<svg version="1.1" xmlns="http://www.w3.org/2000/svg" xmlns:xlink="http://www.w3.org/1999/xlink" width="77.375" height="117.49447" viewBox="0,0,77.375,117.49447"><g transform="translate(-201,-121.476)"><g data-paper-data="{&quot;isPaintingLayer&quot;:true}" fill-rule="evenodd" stroke="none" stroke-width="1" stroke-linecap="butt" stroke-linejoin="miter" stroke-miterlimit="10" stroke-dasharray="" stroke-dashoffset="0" style="mix-blend-mode: normal"><path d="M253.242,233.527c1.676,1.029 2.894,3.136 1.454,4.856c-1.079,1.209 -2.671,0.257 -3.881,-0.25c-1.338,-0.636 -2.865,-1.088 -4.075,-1.914c-0.79,-0.542 -1.701,-1.142 -2.232,-1.952c-0.164,-0.252 -0.243,-0.502 -0.183,-0.74h0.006l-0.304,-10.676h10.197l-0.967,10.676h-0.015M243.116,233.527h-0.01c0.055,0.231 -0.022,0.488 -0.182,0.741c-0.529,0.808 -1.446,1.408 -2.226,1.951c-1.214,0.825 -2.744,1.278 -4.083,1.915c-1.21,0.506 -2.808,1.458 -3.892,0.25c-1.427,-1.72 -0.213,-3.821 1.457,-4.857l-0.98,-10.676h10.215l-0.298,10.676z" fill="#814915"/><path d="M214.049,169.004c1.113,-0.476 2.445,-0.038 3.537,1.006c0.479,-0.739 1.067,-1.151 1.602,-1.05c1.012,0.2 1.48,2.117 1.056,4.29c-0.13612,0.75967 -0.38983,1.49348 -0.752,2.175c-0.04275,0.26235 -0.10765,0.52061 -0.194,0.772l5.106,5.988l10.833,-3.874c0,0 -1.842,2.922 -2.293,3.981c-0.334,0.781 -0.98,3.236 -0.98,3.236c0,0 -7.906,3.21 -10.158,2.398c-2.774,-1 -5.957,-10.032 -5.957,-10.032v-0.006c-1.195,-0.419 -2.349,-1.562 -3.01,-3.133c-1.046,-2.459 -0.502,-5.03 1.21,-5.751M260.032,183.56c3.4,4.34 4.71,17.41 4.71,17.41c0,0 0,-0.019 -0.01,-0.057c0.44,0.636 0.747,1.455 0.846,2.373c0.232,2.187 -0.82,4.09 -2.34,4.253c-0.99,0.1 -1.941,-0.562 -2.549,-1.642c-0.567,0.463 -1.123,0.65 -1.52,0.438c-0.748,-0.392 -0.657,-2.028 0.194,-3.64c0.29195,-0.56464 0.66903,-1.08102 1.118,-1.531c0.038,-0.067 0.065,-0.13 0.103,-0.194c0,0 -1.478,-9.442 -3.057,-11.671c-0.792,-1.122 -1.3,-1.748 -1.482,-2.247c-0.15,-0.397 -0.301,-1.157 -0.364,-1.446c-0.51,-2.24 -3.287,-7.295 -3.287,-7.295c0,0 5.974,3.13 7.638,5.249" data-paper-data="{&quot;origPos&quot;:null}" fill="#c0936a"/><path d="M225.824,181.372c0,0 2.239,-1.042 9.877,-3.311c2.116,-1.009 6.4,-1.215 6.4,-1.215l1.63,0.09h0.137l1.627,-0.059c0,0 4.853,0.175 6.782,1.358c7.49,2.88 9.687,7.569 9.687,7.569c-0.772,3.025 -5.075,3.025 -5.075,3.025l-0.428,-0.581c1.872,9.204 2.108,20.962 2.108,20.962h-12.846l-1.89,-2.366l-1.875,2.366h-12.93c0,0 0.283,-14.164 2.705,-23.556l-4.635,1.821c0,0 -2.05,-3.553 -1.274,-6.103" fill="#e63744"/><path d="M230.033,183.057h2.494v2.31h-2.494zM230.03,199.984v-2.487h2.495v2.487h-2.494zM230.033,202.411h2.494v2.31h-2.494zM234.955,183.057h2.304v2.31h-2.304zM234.955,187.793h2.304v2.49h-2.304zM234.955,192.703h2.304v2.37h-2.304zM234.955,197.5h2.304v2.486h-2.304zM234.955,202.411h2.304v2.31h-2.304zM239.692,178.144h2.49v2.49h-2.49zM239.692,183.057h2.49v2.31h-2.49zM239.692,187.793h2.49v2.49h-2.49zM239.692,192.703h2.49v2.37h-2.49zM239.692,197.5h2.49v2.486h-2.49zM239.692,202.411h2.49v2.31h-2.49zM244.613,180.634v-2.49h2.371v2.49h-2.372zM244.613,185.367v-2.31h2.371v2.31h-2.372zM244.613,190.283v-2.49h2.371v2.49h-2.372zM244.613,195.073v-2.37h2.371v2.37h-2.372zM244.613,199.986v-2.486h2.371v2.486h-2.372zM244.613,204.721v-2.31h2.371v2.31h-2.372zM249.413,180.634v-2.49h2.491v2.49h-2.492zM249.413,185.367v-2.31h2.491v2.31h-2.492zM249.413,190.283v-2.49h2.491v2.49h-2.492zM249.413,195.073v-2.37h2.491v2.37h-2.492zM249.413,199.986v-2.486h2.491v2.486h-2.492zM249.413,204.721v-2.31h2.491v2.31h-2.492zM254.333,183.057h2.31v2.31h-2.31zM254.333,192.704h2.31v2.368h-2.31zM254.333,197.5h2.31v2.486h-2.31zM254.333,202.411h2.31v2.31h-2.31zM225.815,181.374c0,0 1.06,-0.497 4.218,-1.545v0.806h2.492v-1.608c0.727,-0.23 1.574,-0.476 2.43,-0.747v2.354h2.302v-2.49h-1.84c0.091,0 0.185,-0.053 0.283,-0.084c2.118,-1.007 6.4,-1.215 6.4,-1.215l1.631,0.09h0.135l1.63,-0.056c0,0 4.85,0.175 6.78,1.355c0.70126,0.26301 1.38792,0.56344 2.057,0.9v1.5h2.311v-0.202c1.17667,0.75014 2.26489,1.63071 3.244,2.625h-0.818v2.31h2.499v-0.23c0.3,0.418 0.39,0.668 0.39,0.668c-0.234,0.907 -0.782,1.543 -1.438,1.987h-1.45v0.676c-1.152,0.36 -2.192,0.36 -2.192,0.36l-0.235,-0.32v-0.716h-2.31v2.49h2.311v-1.09c1.701,9.044 1.926,20.017 1.926,20.017h-1.927v-2.063h-2.31v2.063h-2.429v-2.063h-2.491v2.063h-2.429v-2.063h-2.371v0.686l-0.783,-0.99l-1.65,2.07v-1.766h-2.488v2.063h-2.435v-2.063h-2.302v2.063h-2.43v-2.063h-2.492v2.063h-1.005c0.13264,-4.72532 0.47632,-9.44236 1.03,-14.137h2.467v-2.368h-2.155c0.112,-0.785 0.24,-1.63 0.382,-2.422h1.773v-2.49h-1.295c0.156,-0.727 0.321,-1.448 0.502,-2.137l-4.636,1.822c0,0 -0.514,-0.893 -0.927,-2.11h1.436v-2.31h-1.947c-0.044,-0.604 -0.004,-1.151 0.156,-1.684z" fill="#ba3b4b"/><path d="M251.904,180.634h2.429v2.423h-2.429zM256.643,183.057h2.426v-0.77c-0.606,-0.541 -1.29,-1.101 -2.116,-1.653h-0.31zM256.644,185.367h2.426v2.425h-2.426zM251.904,185.367h2.429v2.425h-2.429zM246.984,180.634h2.429v2.423h-2.429zM246.984,185.367h2.429v2.425h-2.429zM242.18,185.367h2.43v2.425h-2.43zM237.257,180.634h2.433v2.423h-2.433zM237.257,185.367h2.433v2.425h-2.433zM232.525,180.634h2.428v2.423h-2.428zM232.525,185.367h2.428v2.425h-2.428zM227.714,180.634c-0.037,0 -0.048,0.027 -0.107,0.04v2.383h2.427v-2.423h-2.32M230.032,185.367h-2.424v1.905l2.424,-0.953zM237.258,177.519v0.626h2.433v-1.076c-0.81873,0.10516 -1.63098,0.25573 -2.433,0.451zM252.13,178.144c-0.069,-0.033 -0.165,-0.07 -0.225,-0.11v0.11h0.225M251.904,190.283h2.429v2.421h-2.429zM246.984,190.283h2.429v2.421h-2.429zM242.18,190.283h2.43v2.421h-2.43zM237.257,190.283h2.433v2.421h-2.433zM232.525,190.283h2.428v2.421h-2.428zM251.904,195.074h2.429v2.426h-2.429zM246.984,195.074h2.429v2.426h-2.429zM242.18,195.074h2.43v2.426h-2.43zM237.257,195.074h2.433v2.426h-2.433zM232.525,195.074h2.428v2.426h-2.428zM251.904,199.986h2.429v2.425h-2.429zM246.984,199.986h2.429v2.425h-2.429zM242.18,199.986h2.43v2.425h-2.43zM237.257,199.986h2.433v2.425h-2.433zM232.525,199.986h2.428v2.425h-2.428zM251.904,204.72h2.429v2.426h-2.429zM246.984,204.72h2.429v2.426h-2.429zM242.181,207.144h1.414l0.239,-0.3l0.24,0.301h0.537v-2.425h-2.431zM237.257,204.72h2.433v2.426h-2.433zM232.525,204.72h2.428v2.426h-2.428zM256.643,192.703h0.584c-0.12,-0.806 -0.243,-1.625 -0.378,-2.42h-0.206zM256.643,197.498h1.174c-0.086,-0.8 -0.172,-1.608 -0.272,-2.425h-0.902zM256.643,202.41h1.592c-0.06,-0.765 -0.118,-1.581 -0.188,-2.426h-1.404zM256.643,204.719v2.426h1.853c-0.022,-0.676 -0.062,-1.499 -0.112,-2.425h-1.741zM230.032,195.169c-0.063,0.786 -0.166,1.544 -0.246,2.329h0.246v-2.328M229.363,202.411h0.668v-2.426h-0.48c-0.074,0.851 -0.139,1.64 -0.188,2.425zM229.092,207.145h0.94v-2.425h-0.818c-0.051,0.907 -0.087,1.755 -0.123,2.425zM242.771,180.635h-0.59v2.423h2.43v-2.225l-0.835,1.183zM247.319,177.012l-0.335,0.472v0.66h2.428v-0.833c-0.729,-0.139 -1.46,-0.236 -2.092,-0.299z" fill="#9b1826"/><path d="M243.788,182.016l-3.672,-4.996c0.65913,-0.08109 1.32085,-0.13945 1.984,-0.175l1.632,0.09h0.134l1.63,-0.056c0,0 0.78,0.025 1.83,0.133z" data-paper-data="{&quot;origPos&quot;:null}" fill="#c0936a"/><path d="M256.913,189.11c-1.26,-1.26 -0.913,-2.782 -0.397,-3.465c0.787,-1.05 3.27,-1.77 4.56,-1.498c0.846,0.178 2.066,1.915 1.6,3.084c-0.52,1.326 -4.756,2.882 -5.763,1.88M223.85,182.46c1.008,-1.66 2.388,-2 3.13,-1.535c1.303,0.815 2.423,4.339 1.999,5.819c-0.249,0.855 -2.159,1.754 -3.335,1.293c-1.322,-0.522 -2.534,-4.367 -1.794,-5.577" fill="#9b1826"/><path d="M243.642,182.03h0.37v24.813h-0.369z" fill="#343434"/><path d="M244.396,185.285c-0.00167,-0.22086 0.17515,-0.40171 0.396,-0.405c0.2234,0 0.4045,0.1811 0.4045,0.4045c0,0.2234 -0.1811,0.4045 -0.4045,0.4045c-0.217,0 -0.396,-0.181 -0.396,-0.404M244.395,189.413c0,-0.22368 0.18132,-0.405 0.405,-0.405c0.22368,0 0.405,0.18132 0.405,0.405c0.00003,0.10873 -0.04377,0.21287 -0.12149,0.2889c-0.07772,0.07603 -0.18281,0.11752 -0.29151,0.1151c-0.217,0 -0.396,-0.181 -0.396,-0.404M244.396,193.052c-0.00112,-0.22047 0.17555,-0.40071 0.396,-0.404c0.1087,-0.00242 0.21378,0.03907 0.29151,0.1151c0.07772,0.07603 0.12152,0.18018 0.12149,0.2889c-0.00052,0.10873 -0.04443,0.21276 -0.12197,0.28899c-0.07754,0.07623 -0.1823,0.11835 -0.29103,0.11701c-0.217,0 -0.396,-0.187 -0.396,-0.406M244.396,197.119c-0.00167,-0.22086 0.17515,-0.40171 0.396,-0.405c0.10904,-0.0027 0.21454,0.03881 0.29252,0.11508c0.07797,0.07628 0.12179,0.18084 0.12148,0.28992c0,0.22368 -0.18132,0.405 -0.405,0.405c-0.22368,0 -0.405,-0.18132 -0.405,-0.405M244.396,200.817c-0.00133,-0.10617 0.0397,-0.20849 0.11403,-0.28431c0.07432,-0.07582 0.1758,-0.1189 0.28197,-0.11969c0.10894,-0.00326 0.21451,0.03795 0.29242,0.11416c0.07791,0.07621 0.12144,0.18085 0.12058,0.28984c0.00004,0.10855 -0.04382,0.2125 -0.12161,0.28822c-0.07779,0.07571 -0.18288,0.11675 -0.29139,0.11378c-0.22013,-0.0022 -0.39711,-0.18186 -0.396,-0.402" fill="#fddfbb"/><path d="M258.255,202.707c0.258,3.783 0.308,6.446 0.308,6.446c0,3.831 -4.339,13.69 -4.339,13.69l-10.243,-0.006l-0.139,-6.966h-0.27l-0.143,6.966l-10.239,0.013c0,0 -4.175,-9.845 -4.175,-13.693c0,0 0.057,-2.667 0.315,-6.45c4.992,-4 7.103,-12.499 7.103,-12.499v-12.424c0.77321,-0.25167 1.56591,-0.43898 2.37,-0.56v12.984h9.959v-13.003c0.791,0.12 1.651,0.297 2.368,0.535v12.459c0,0 2.127,8.508 7.125,12.508" fill="#0771b7"/><path d="M257.072,208.728c-2.948,0 -6.637,-1.16 -7.98,-3.377c-0.021,-0.027 -0.008,-0.065 0.017,-0.085c0.025,-0.011 0.065,-0.005 0.084,0.02c1.328,2.181 4.967,3.318 7.878,3.318c0.036,0 0.063,0.025 0.063,0.061c0.00027,0.01679 -0.00628,0.03297 -0.01815,0.04485c-0.01187,0.01187 -0.02806,0.01842 -0.04485,0.01815M230.37,208.728c2.947,0 6.632,-1.16 7.983,-3.377c0.01294,-0.03067 0.00249,-0.06622 -0.025,-0.085c-0.025,-0.011 -0.066,-0.005 -0.078,0.02c-1.326,2.181 -4.973,3.318 -7.88,3.318c-0.034,0 -0.06,0.025 -0.06,0.061c0,0.036 0.026,0.063 0.06,0.063" fill="#0b4768"/><path d="M248.762,195.06v4.914c0.0008,1.28856 -0.511,2.52452 -1.42253,3.4353c-0.91153,0.91078 -2.14791,1.42156 -3.43647,1.4197h-0.242c-2.6816,-0.00055 -4.85579,-2.1734 -4.858,-4.855v-4.913h9.96z" fill="#0c6084"/><path d="M244.95,180.37l3.187,-4.909c0,0 1.19,1.07 1.32,1.384c0.116,0.311 -3.86,6.002 -3.66,5.17c0.207,-0.829 -0.847,-1.646 -0.847,-1.646zM239.403,175.461c0,0 -1.191,1.07 -1.316,1.384c-0.12,0.311 3.86,6.002 3.656,5.17c-0.198,-0.829 0.847,-1.646 0.847,-1.646z" data-paper-data="{&quot;origPos&quot;:null}" fill="#9b1826"/><path d="M264.758,157.807c1.088,0.695 1.803,1.886 1.803,3.236c0,2.141 -1.809,3.884 -4.042,3.884c-0.064,0 -0.128,0 -0.194,-0.006c-3.619,6.484 -10.557,10.871 -18.517,10.871c-7.967,0 -14.911,-4.393 -18.529,-10.89c-0.147,0.019 -0.294,0.025 -0.45,0.025c-2.229,0 -4.044,-1.743 -4.044,-3.885c0,-1.452 0.822,-2.713 2.048,-3.38c-0.142,-0.994 -0.22,-2.008 -0.22,-3.038c0,-11.686 9.495,-21.164 21.195,-21.164c11.702,0 21.195,9.478 21.195,21.164c0,1.08 -0.085,2.141 -0.245,3.183" data-paper-data="{&quot;origPos&quot;:null}" fill="#c0936a"/><path d="M238.95,152.552c0,0 -0.48,1.695 -1.992,1.36c-0.738,-0.164 -0.868,-1.13 -3.238,-0.697c-0.745,0.17 -2.312,1.087 -2.614,1.7c-0.302,0.613 -0.084,-2.248 2.35,-3.312c1.756,-0.634 2.351,-0.603 3.805,-0.603c1.453,0 1.901,0.853 1.69,1.552M249.05,152.552c0,0 0.48,1.695 1.992,1.36c0.738,-0.164 0.868,-1.13 3.238,-0.697c0.745,0.17 2.312,1.087 2.614,1.7c0.302,0.613 0.084,-2.248 -2.35,-3.312c-1.756,-0.634 -2.351,-0.603 -3.805,-0.603c-1.453,0 -1.901,0.853 -1.69,1.552M237,160c0,1.657 -0.895,3 -2,3c-1.105,0 -2,-1.343 -2,-3c0,-1.657 0.895,-3 2,-3c1.105,0 2,1.343 2,3M255,160c0,1.657 -0.895,3 -2,3c-1.105,0 -2,-1.343 -2,-3c0,-1.657 0.895,-3 2,-3c1.105,0 2,1.343 2,3" fill="#2c2c2d"/><path d="M241,163c0,0 0.207,-1.042 0.504,-1.342c0.801,-1.195 2.491,-1.658 2.491,-1.658c0,0 2.175,0.727 2.654,1.641c0.443,0.852 0.341,1.28 0.341,1.28c0,0 -2.125,-1.934 -2.965,-1.816c-1.127,0.158 -3.025,1.895 -3.025,1.895z" fill="#e2a86e"/><path d="M237.2,165.696c0,0 6.897,3.208 13.172,-0.397c0,0 -1.39,5.47 -5.95,5.561c-4.115,0.122 -4.984,-1.492 -5.477,-1.956c-0.492,-0.463 -1.42,-1.772 -1.745,-3.208" data-paper-data="{&quot;origPos&quot;:null}" fill="#9b1826"/><path d="M265.841,151.865c0.034,2.488 -0.837,7.863 -2.538,11.067c0,0 -4.162,-11.777 -7.602,-13.642c-4.191,-2.282 -15.254,1.006 -19.002,-1.945c-0.625,-0.497 -0.555,-1.602 -0.555,-1.602c0,0 -0.716,1.414 -1.06,1.804c-1.819,2.066 -6.529,5.059 -8.766,6.666c-1.8,1.285 -1.886,1.273 -1.49,8.72c0,0 -3.301,-6.78 -3.116,-11.3c0.051,-1.305 0.684,-4.193 1.714,-7.133c3.729,-7.473 11.458,-12.612 20.388,-12.612c10.256,0 18.926,6.779 21.774,16.088c0.14823,1.29172 0.23267,2.58996 0.253,3.89" fill="#333433"/><path d="M242.152,178.214c-0.983,0 -1.79,-2.122 -1.79,-3.092h7.045c0,0.97 -0.794,3.092 -1.79,3.092h-3.465" data-paper-data="{&quot;origPos&quot;:null}" fill="#c0936a"/><path d="M241.122,177.561c-0.396,-0.605 -0.674,-1.443 -0.746,-2.053c1.119,0.187 2.268,0.284 3.436,0.284c1.20094,-0.00278 2.39964,-0.10412 3.584,-0.303l-0.013,0.013l-6.261,2.058" fill="#eeac6c"/><path d="M278.375,141.615c0,3.593 -15.522,6.507 -34.673,6.507c-19.147,0 -34.67,-2.914 -34.67,-6.507c0,-3.596 15.523,-6.516 34.67,-6.516c19.15,0 34.673,2.92 34.673,6.516" fill="#f7b90b"/><path d="M253.95,123.2c0,1.124 -4.216,4.038 -9.425,4.038c-5.218,0 -9.436,-2.914 -9.436,-4.038c0,-1.12 4.218,-1.724 9.436,-1.724c5.209,0 9.425,0.604 9.425,1.724" fill="#d29b0d"/><path d="M261.209,138.611c-2.968,3.672 -30.675,3.352 -34.025,0.017l7.903,-15.453c1.438,0.661 2.924,0.914 4.14,1.575c5.22,2.83 5.22,2.83 9.957,0.187c1.392,-0.778 3.127,-0.987 4.794,-1.762z" fill="#f7b90b"/><path d="M261.209,138.611c-2.968,3.672 -30.675,3.352 -34.025,0.017l2.14,-4.175c11.386,2.588 18.528,2.588 29.941,0l1.944,4.158" fill="#e63744"/><path d="M231.154,238.352c-0.168,0.337 -1.168,0.524 -1.48,0.32l-15.988,-73.139l1.482,-0.322z" fill="#ad7144"/><path d="M216.276,168.566l-2.19,0.484l-1.145,-4.103l2.667,-0.577z" fill="#d0d0d0"/><path d="M217.795,141.909c0.182,-0.358 0.411,-0.386 0.766,-0.166c0,0 5.43,18.665 4.587,20.987c-4.088,2.714 -11.985,4.046 -17.569,3.826c-1.744,-1.155 -4.579,-20.98 -4.579,-20.98c0.219,-0.347 0.445,-0.427 0.765,-0.176c0,0 4.362,16.157 4.889,16.26c0.643,0.129 2.294,0.047 2.557,-0.551c0.181,-0.406 -2.875,-16.699 -2.875,-16.699c0.224,-0.347 0.694,-0.473 1.014,-0.223c0,0 3.857,16.265 4.347,16.372c0.784,0.188 2.491,-0.225 3.151,-0.68c0.355,-0.244 -2.875,-16.702 -2.875,-16.702c0.219,-0.344 0.689,-0.47 1.014,-0.22c0,0 3.83,16.272 4.346,16.375c0.709,0.144 2.174,-0.251 2.8,-0.606c0.47,-0.27 -2.338,-16.817 -2.338,-16.817" fill="#d0d0d0"/><path d="M220.328,172.96c-0.308,2.077 -1.34,3.648 -2.298,3.5c-0.968,-0.143 -1.49,-1.945 -1.18,-4.014c0.31,-2.078 1.336,-3.647 2.295,-3.506c0.968,0.15 1.499,1.946 1.183,4.02" data-paper-data="{&quot;origPos&quot;:null}" fill="#c0936a"/></g></g></svg>