<svg xmlns="http://www.w3.org/2000/svg" width="75.5" height="117.718"><g fill-rule="evenodd" stroke-miterlimit="10" data-paper-data="{&quot;isPaintingLayer&quot;:true}" style="mix-blend-mode:normal"><path fill="#ffdc83" d="M74.473 78.532c.254 2.405-.898 4.489-2.574 4.667-1.1.115-2.144-.613-2.81-1.8-.62.509-1.237.713-1.674.482-.822-.435-.724-2.227.219-3.998a6.953 6.953 0 0 1 1.225-1.684c.039-.073.079-.142.119-.216 0 0-1.63-10.377-3.37-12.826-.867-1.231-1.966-2.203-2.168-2.744v-.01c1.36 10.283-.157 24.569-.157 24.569h-25.41s-1.778-15.744-.08-26.058v.014s-9.028 3.615-11.494 2.722c-3.054-1.104-6.56-11.029-6.56-11.029-1.312-.469-2.587-1.717-3.325-3.447-1.143-2.7-.543-5.524 1.34-6.315 1.228-.522 2.7-.045 3.893 1.095.535-.813 1.179-1.26 1.77-1.146 1.107.215 1.624 2.326 1.16 4.718-.178.911-.474 1.728-.835 2.388a4.747 4.747 0 0 1-.21.847l5.619 6.582 11.856-4.24c1.359-.94 4.34-1.366 6.144-1.54-.303-.669-.486-1.391-.486-1.924h7.753c0 .533-.18 1.264-.488 1.94 1.83.169 4.787.598 6.097 1.542.69.365 6.62 3.54 8.34 5.727 3.746 4.775 5.18 19.14 5.18 19.14a.505.505 0 0 0-.005-.066c.483.695.822 1.601.93 2.61" data-paper-data="{&quot;origPos&quot;:null}"/><path fill="#eeac6c" d="M47.495 50.195c-.437-.669-.74-1.587-.811-2.256 1.228.198 2.489.306 3.773.306a24.06 24.06 0 0 0 3.95-.33l-.012.01-6.9 2.27"/><path fill="#ffdc83" d="M49.908 111.734c.063.258-.022.533-.2.812-.581.9-1.595 1.548-2.458 2.15-1.33.909-3.015 1.398-4.484 2.098-1.335.562-3.093 1.607-4.285.28-1.576-1.889-.234-4.2 1.604-5.34h-.006l-.466-11.804h10.296v11.803m11.158 0c1.845 1.131 3.182 3.451 1.604 5.34-1.192 1.327-2.948.282-4.281-.28-1.468-.7-3.155-1.188-4.488-2.098-.862-.601-1.872-1.251-2.452-2.151-.184-.278-.27-.544-.2-.811h-.005V99.929h10.294l-.463 11.804h-.01" data-paper-data="{&quot;origPos&quot;:null}"/><path fill="#1679af" d="M63.28 84.972 62.15 99.908H50.875l-.152-7.605h-.292l-.154 7.605h-11.28l-1.124-14.936h15.979z"/><path fill="#61c6f1" d="M41.35 99.907h-1.737l-1.138-14.935h1.74zm18.452 0h1.737l1.14-14.935h-1.734z"/><path fill="#f08314" d="M20.4 3.526c11.85 9.973 19.999 31.671 19.883 56.787-.118 25.122-6.137 56.666-20.401 56.602C5.615 116.855-.114 85.246.002 60.13.112 35.014 8.465 13.39 20.4 3.527"/><path fill="#e63744" d="M20.415 3.674c11.84 9.969 19.984 31.629 19.868 56.707-.118 25.082-6.133 56.582-20.388 56.536l.52-113.243"/><path fill="#ffdc83" d="M73.515 28.485c1.199.767 1.985 2.067 1.985 3.556 0 2.356-1.992 4.269-4.454 4.269h-.21a23.34 23.34 0 0 1-20.383 11.934c-8.768 0-16.405-4.828-20.39-11.966-.161.02-.328.031-.493.031-2.46 0-4.457-1.913-4.457-4.269 0-1.598.909-2.984 2.256-3.716a23.407 23.407 0 0 1-.237-3.34c0-12.844 10.439-23.26 23.32-23.26 12.89 0 23.327 10.416 23.327 23.26 0 1.192-.087 2.36-.264 3.5" data-paper-data="{&quot;origPos&quot;:null}"/><path fill="#815b22" d="M45.516 23.44s-.503 1.803-2.082 1.446c-.772-.174-.908-1.201-3.386-.74-.78.18-2.417 1.156-2.732 1.808-.316.652-.088-2.392 2.457-3.522 1.835-.675 2.457-.642 3.977-.642s1.987.907 1.766 1.65m9.74 0s.504 1.803 2.083 1.446c.772-.174.908-1.201 3.386-.74.779.18 2.417 1.156 2.732 1.808.316.652.087-2.392-2.457-3.522-1.835-.675-2.457-.642-3.977-.642s-1.987.907-1.766 1.65M43.205 30.79c0 1.657-.895 3-2 3s-2-1.343-2-3 .895-3 2-3 2 1.343 2 3m18 0c0 1.657-.895 3-2 3s-2-1.343-2-3 .895-3 2-3 2 1.343 2 3" data-paper-data="{&quot;origPos&quot;:null}"/><path fill="#eeac6c" d="M50.225 33.859c-1.125.153-3.02 1.834-3.02 1.834s.207-1.009.503-1.299c.8-1.156 2.487-1.604 2.487-1.604s2.173.703 2.65 1.588c.443.824.34 1.238.34 1.238s-2.121-1.871-2.96-1.756zM43.405 37.486s6.897 3.208 13.172-.397c0 0-1.39 5.47-5.95 5.561-4.115.122-4.984-1.492-5.477-1.956-.492-.463-1.42-1.772-1.745-3.208"/><path fill="#815b22" d="M74.704 21.956c.038 2.728-.918 8.64-2.788 12.164 0 0-4.586-12.948-8.366-14.998-4.618-2.504-16.792 1.105-20.92-2.144-.686-.538-.608-1.758-.608-1.758s-.794 1.56-1.172 1.991c-2.002 2.267-7.188 5.553-9.65 7.32-1.977 1.418-2.07 1.402-1.63 9.589 0 0-3.641-7.449-3.438-12.422.056-1.434.753-4.612 1.89-7.842C32.125 5.642 40.63 0 50.457 0c11.292 0 20.84 7.442 23.97 17.678.16 1.42.253 2.848.277 4.278" data-paper-data="{&quot;origPos&quot;:null}"/></g></svg>