<svg xmlns="http://www.w3.org/2000/svg" xmlns:xlink="http://www.w3.org/1999/xlink" width="120" height="120"><defs><path id="a" d="M.026 0H107.69v53.85H.026z"/><path id="c" d="M.851 0h53.864v107.678H.851z"/></defs><g fill="none" fill-rule="evenodd"><path fill="#00B4C8" d="M59.85 0 6 53.827l.012.024h.014l53.825 53.827 53.839-53.827.026-.024-43.083-43.059L59.865 0z"/><g transform="translate(6)"><mask id="b" fill="#fff"><use xlink:href="#a"/></mask><path fill="#FFF" d="M107.69 53.85H.026L53.85.013 53.865 0l10.767 10.768z" mask="url(#b)" opacity=".3"/></g><g transform="translate(59)"><mask id="d" fill="#fff"><use xlink:href="#c"/></mask><path fill="#FFF" d="m54.715 53.827-.025.023L.851 107.678V0h.013l10.768 10.767z" mask="url(#d)" opacity=".3"/></g><path fill="#E1E1E1" d="M45.814 101.061h28.078v-7.417H45.814z"/><path fill="#4C311A" d="M30.725 120h58.027v-18.94H30.725z"/><g fill="#FFF"><path d="M88.752 101.06V120H59.738V93.643h14.154v7.416z" opacity=".3"/><path d="M92.65 40.417a2.15 2.15 0 1 1-3.04 3.04L68.329 22.176a2.148 2.148 0 0 1 0-3.038 2.149 2.149 0 0 1 3.04-.002l21.28 21.281zm6.783 7.333a2.292 2.292 0 1 1-2.292-2.295 2.293 2.293 0 0 1 2.292 2.295"/></g></g></svg>