<svg xmlns="http://www.w3.org/2000/svg" xmlns:xlink="http://www.w3.org/1999/xlink" width="120" height="120"><defs><path id="a" d="M25.012.198 12.165.26C8.256 22.084 4.335 44.005.042 69.081l31.591-.156 31.593-.155L50.42.073 25.01.198z"/><path id="c" d="M25.012.198 12.165.26C8.256 22.084 4.335 44.005.042 69.081l31.591-.156 31.593-.155L50.42.073 25.01.198z"/><path id="e" d="M25.012.198 12.165.26C8.256 22.084 4.335 44.005.042 69.081l31.591-.156 31.593-.155L50.42.073 25.01.198z"/><path id="g" d="M25.012.198 12.165.26C8.256 22.084 4.335 44.005.042 69.081l31.591-.156 31.593-.155L50.42.073 25.01.198z"/><path id="i" d="M25.012.198 12.165.26C8.256 22.084 4.335 44.005.042 69.081l31.591-.156 31.593-.155L50.42.073 25.01.198z"/><path id="k" d="M25.012.198 12.165.26C8.256 22.084 4.335 44.005.042 69.081l31.591-.156 31.593-.155L50.42.073 25.01.198z"/><path id="m" d="M25.012.198 12.165.26C8.256 22.084 4.335 44.005.042 69.081l31.591-.156 31.593-.155L50.42.073 25.01.198z"/><path id="o" d="m.024.448.42 84.809 24.28-.12L24.304.33z"/><path id="q" d="m.024.448.42 84.809 24.28-.12L24.304.33z"/><path id="s" d="m.024.448.42 84.809 24.28-.12L24.304.33z"/><path id="u" d="m.024.448.42 84.809 24.28-.12L24.304.33z"/><path id="w" d="m.024.448.42 84.809 24.28-.12L24.304.33z"/><path id="y" d="m.024.448.42 84.809 24.28-.12L24.304.33z"/><path id="A" d="m.024.448.42 84.809 24.28-.12L24.304.33z"/><path id="C" d="M.262.066h47.139V47.29H.262z"/></defs><g fill="none" fill-rule="evenodd"><path fill="#8A4B1E" d="m79.518 41.214 12.804 68.697-31.592.156-31.591.155c4.293-25.076 8.214-46.996 12.123-68.82l12.846-.063 25.41-.125z"/><g transform="translate(29.097 41.141)"><mask id="b" fill="#fff"><use xlink:href="#a"/></mask><path fill="#5C4B35" d="m66.908 8.45-71.146.348.002.599 71.147-.35z" mask="url(#b)"/></g><g transform="translate(29.097 41.141)"><mask id="d" fill="#fff"><use xlink:href="#c"/></mask><path fill="#5C4B35" d="m66.955 18.001-71.146.35.002.598 71.147-.35z" mask="url(#d)"/></g><g transform="translate(29.097 41.141)"><mask id="f" fill="#fff"><use xlink:href="#e"/></mask><path fill="#5C4B35" d="m67.002 27.554-71.146.35.003.597 71.146-.349z" mask="url(#f)"/></g><g transform="translate(29.097 41.141)"><mask id="h" fill="#fff"><use xlink:href="#g"/></mask><path fill="#5C4B35" d="m67.05 37.106-71.147.35.003.598 71.147-.35z" mask="url(#h)"/></g><g transform="translate(29.097 41.141)"><mask id="j" fill="#fff"><use xlink:href="#i"/></mask><path fill="#5C4B35" d="m67.097 46.658-71.147.35.003.598 71.147-.35z" mask="url(#j)"/></g><g transform="translate(29.097 41.141)"><mask id="l" fill="#fff"><use xlink:href="#k"/></mask><path fill="#5C4B35" d="m67.144 56.21-71.146.35.003.598 71.146-.35z" mask="url(#l)"/></g><g transform="translate(29.097 41.141)"><mask id="n" fill="#fff"><use xlink:href="#m"/></mask><path fill="#5C4B35" d="m67.192 65.763-71.147.35.003.598 71.147-.35z" mask="url(#n)"/></g><path fill="#A45A27" d="m48.217 34.829 24.28-.12.42 84.81-24.28.119z"/><g transform="translate(48.193 34.38)"><mask id="p" fill="#fff"><use xlink:href="#o"/></mask><path fill="#5C4B35" d="m-23.335 15.559 71.146-.35.004.6-71.147.349z" mask="url(#p)"/></g><g transform="translate(48.193 34.38)"><mask id="r" fill="#fff"><use xlink:href="#q"/></mask><path fill="#5C4B35" d="m-23.288 25.112 71.146-.35.003.598-71.146.35z" mask="url(#r)"/></g><g transform="translate(48.193 34.38)"><mask id="t" fill="#fff"><use xlink:href="#s"/></mask><path fill="#5C4B35" d="m-23.24 34.664 71.146-.35.003.598-71.146.35z" mask="url(#t)"/></g><g transform="translate(48.193 34.38)"><mask id="v" fill="#fff"><use xlink:href="#u"/></mask><path fill="#5C4B35" d="m-23.194 44.216 71.147-.35.003.599-71.146.35z" mask="url(#v)"/></g><g transform="translate(48.193 34.38)"><mask id="x" fill="#fff"><use xlink:href="#w"/></mask><path fill="#5C4B35" d="M-23.145 53.768 48 53.418l.003.6-71.146.349z" mask="url(#x)"/></g><g transform="translate(48.193 34.38)"><mask id="z" fill="#fff"><use xlink:href="#y"/></mask><path fill="#5C4B35" d="m-23.098 63.32 71.146-.349.003.599-71.147.349z" mask="url(#z)"/></g><g transform="translate(48.193 34.38)"><mask id="B" fill="#fff"><use xlink:href="#A"/></mask><path fill="#5C4B35" d="m-23.051 72.873 71.146-.35.003.599-71.146.349z" mask="url(#B)"/></g><path fill="#753F2F" d="m48.096 30.47 24.48-.12 12.31 14.603-48.956.24z"/><path fill="#7A3D29" d="m82.141 41.697 2.746 3.256-48.957.24 2.713-3.283z"/><path fill="#A28665" d="m29.128 108.142 63.183-.31.057 11.591-63.182.31z"/><path fill="#616263" d="m42.147 111.198 9.553-.046.042 8.47-9.553.047z"/><path fill="#545557" d="m51.7 111.177.042 8.445-7.762.039-.042-8.446zm4.043-43.563 9.553-.047.063 12.632-9.553.047z"/><path fill="#545557" d="m55.743 67.614 9.553-.047.063 12.632-9.553.047z"/><path fill="#353536" d="m56.844 68.7 7.362-.037.052 10.45-7.362.037z"/><path fill="#545557" d="m55.84 87.181 9.553-.046.062 12.632-9.552.047z"/><path fill="#545557" d="m55.84 87.181 9.553-.046.062 12.632-9.552.047z"/><path fill="#353536" d="m56.941 88.267 7.362-.036.052 10.45-7.362.036z"/><path fill="#4A493F" d="m18.583 10.772 1.401-1.408 82.304 81.144-1.4 1.408z"/><path fill="#FFF" d="m60.52 37.814 2.263 2.23 2.2-2.211-2.262-2.231-2.2 2.212zm-2.555 2.57 2.263 2.23 2.2-2.212-2.264-2.23-2.2 2.212zm-2.491 2.505 2.262 2.23 2.2-2.211-2.262-2.232-2.2 2.213zm2.253-7.83 2.263 2.232 2.2-2.212-2.263-2.23-2.2 2.21zm-2.555 2.57 2.263 2.232 2.2-2.212-2.263-2.231-2.2 2.212zm-2.492 2.506 2.263 2.23 2.2-2.211-2.262-2.231-2.2 2.212zm2.254-7.828 2.264 2.23 2.2-2.212-2.264-2.23-2.2 2.212zm-2.556 2.57 2.263 2.23 2.2-2.212-2.262-2.23-2.2 2.211zm-2.49 2.504 2.262 2.23 2.2-2.211-2.262-2.231-2.2 2.212zm2.253-7.828 2.263 2.23 2.2-2.211-2.263-2.231-2.2 2.212zm-2.556 2.57 2.263 2.23 2.2-2.212-2.262-2.23-2.2 2.212zm-2.49 2.505 2.262 2.23 2.2-2.212-2.262-2.23-2.2 2.212zm2.253-7.829 2.263 2.23 2.2-2.211-2.263-2.231-2.2 2.212zm-2.556 2.57 2.263 2.23 2.2-2.211-2.262-2.231-2.2 2.212zm-2.49 2.505 2.262 2.23 2.2-2.211-2.263-2.231-2.2 2.212zm2.254-7.828 2.262 2.23 2.2-2.212-2.263-2.23-2.2 2.212zm-2.557 2.57 2.263 2.23 2.2-2.211-2.263-2.232-2.2 2.212zm-2.49 2.504 2.262 2.23 2.2-2.211-2.262-2.231-2.2 2.212zm2.253-7.828 2.263 2.231 2.2-2.212-2.263-2.231-2.2 2.212zm-2.556 2.57 2.263 2.23 2.2-2.212-2.263-2.23-2.2 2.211zm-2.49 2.504 2.262 2.231 2.2-2.212-2.263-2.23-2.2 2.211zm2.253-7.828 2.263 2.23 2.2-2.212-2.263-2.23-2.2 2.212zm-2.556 2.57 2.263 2.23 2.2-2.211-2.263-2.231-2.2 2.212zm-2.49 2.505 2.262 2.23 2.2-2.211-2.263-2.231-2.2 2.212zm2.253-7.829 2.263 2.231 2.2-2.212-2.263-2.231-2.2 2.212zm-2.555 2.57 2.262 2.231 2.2-2.212-2.263-2.23-2.2 2.211zm-2.492 2.505 2.263 2.23 2.2-2.212-2.263-2.23-2.2 2.212zm2.254-7.828 2.263 2.23 2.2-2.211-2.263-2.232-2.2 2.213zm-2.556 2.57 2.263 2.23 2.2-2.212-2.263-2.23-2.2 2.211zm-2.491 2.504 2.263 2.231 2.2-2.212-2.263-2.231-2.2 2.212zm2.254-7.828 2.263 2.23 2.2-2.211-2.263-2.231-2.2 2.212zm-2.556 2.57 2.262 2.23 2.2-2.212-2.262-2.23-2.2 2.212zm-2.49 2.505 2.262 2.23 2.2-2.211-2.263-2.231-2.2 2.212zm2.253-7.829 2.263 2.23 2.2-2.211-2.264-2.23-2.2 2.211zm-2.556 2.57 2.263 2.231 2.2-2.212-2.263-2.231-2.2 2.212zm-2.491 2.505 2.263 2.23 2.2-2.211-2.263-2.231-2.2 2.212zm2.254-7.829L29.267 7l2.2-2.212-2.263-2.23-2.2 2.211zm-2.556 2.57L26.71 9.57l2.2-2.212-2.262-2.23-2.2 2.211zm-2.49 2.505 2.262 2.23 2.2-2.21-2.263-2.232-2.2 2.212zm-1.974-.48L28.876.422l38.536 37.992-8.892 8.942L19.984 9.363zm43.04 51.415-2.263-2.231 2.2-2.212 2.263 2.231-2.2 2.212zm-2.556 2.57-2.263-2.231 2.2-2.212 2.263 2.23-2.2 2.213zm-2.492 2.505-2.262-2.231 2.2-2.212 2.263 2.23-2.2 2.213zm7.84-2.321-2.262-2.231 2.2-2.213 2.263 2.231-2.2 2.213zm-2.555 2.57-2.263-2.231 2.2-2.213 2.263 2.232-2.2 2.212zm-2.49 2.504-2.264-2.23 2.2-2.213 2.263 2.23-2.2 2.213zm7.839-2.32-2.263-2.232 2.2-2.212 2.263 2.23-2.2 2.213zm-2.556 2.57-2.263-2.232 2.2-2.212 2.263 2.231-2.2 2.212zm-2.491 2.504-2.263-2.23 2.2-2.213 2.263 2.231-2.2 2.212zm7.84-2.321-2.263-2.231 2.2-2.212 2.263 2.231-2.2 2.212zm-2.556 2.57-2.263-2.231 2.2-2.212 2.263 2.23-2.2 2.213zm-2.49 2.505-2.264-2.231 2.2-2.213 2.263 2.232-2.2 2.212zm7.838-2.321-2.262-2.23 2.2-2.213 2.263 2.23-2.2 2.213zm-2.555 2.57-2.263-2.231 2.2-2.212 2.263 2.23-2.2 2.213zm-2.49 2.504-2.264-2.23 2.2-2.213 2.263 2.231-2.2 2.212zm7.839-2.32-2.263-2.231 2.2-2.213 2.263 2.231-2.2 2.212zm-2.555 2.57-2.263-2.231 2.2-2.213 2.262 2.231-2.2 2.212zm-2.492 2.504-2.263-2.23 2.2-2.213 2.263 2.231-2.2 2.212zm7.84-2.32-2.263-2.232 2.2-2.212 2.263 2.231-2.2 2.212zm-2.556 2.569-2.262-2.231 2.2-2.212 2.262 2.23-2.2 2.213zm-2.49 2.505-2.263-2.231 2.199-2.213 2.263 2.231-2.2 2.213zm7.839-2.321-2.263-2.231 2.2-2.212 2.263 2.23-2.2 2.213zm-2.556 2.57-2.262-2.231 2.2-2.212 2.262 2.23-2.2 2.212zm-2.491 2.504-2.262-2.23 2.2-2.213 2.262 2.231-2.2 2.212zm7.84-2.32-2.263-2.232 2.2-2.212 2.263 2.231-2.2 2.213zm-2.555 2.57-2.263-2.231 2.2-2.212 2.262 2.23-2.2 2.213zm-2.491 2.504-2.263-2.23 2.2-2.213 2.262 2.231-2.2 2.212zm7.84-2.321-2.264-2.231 2.2-2.212 2.263 2.231-2.2 2.212zm-2.556 2.57-2.263-2.23 2.2-2.213 2.262 2.23-2.2 2.213zm-2.492 2.505-2.262-2.231 2.2-2.212 2.262 2.23-2.2 2.213zm7.84-2.321-2.262-2.231 2.2-2.212 2.262 2.23-2.2 2.213zm-2.556 2.57-2.262-2.231 2.2-2.212 2.263 2.23-2.2 2.213zm-2.49 2.505-2.264-2.232 2.2-2.212 2.263 2.231-2.2 2.213zm7.84-2.322-2.264-2.23 2.2-2.212 2.263 2.23-2.2 2.212zm-2.557 2.57-2.262-2.23 2.2-2.212 2.262 2.23-2.2 2.212zm-2.49 2.505-2.263-2.23 2.2-2.213 2.262 2.23-2.2 2.213zm7.84-2.32-2.264-2.232 2.2-2.212 2.263 2.231-2.2 2.212zm-2.556 2.57-2.263-2.232 2.2-2.212 2.263 2.23-2.2 2.213zm-2.491 2.504-2.264-2.231 2.2-2.212 2.263 2.23-2.2 2.213zm.501 1.96 8.892-8.942-38.535-37.993-8.893 8.942 38.536 37.993z"/><path fill="#4A493F" d="m20.395 92.311-1.415-1.394 81.497-81.949 1.414 1.395z"/><path fill="#FFF" d="m47.554 50.556 2.24-2.254-2.221-2.19-2.24 2.253 2.22 2.19zm2.58 2.544 2.242-2.252-2.222-2.191-2.24 2.253 2.22 2.19zm2.517 2.48 2.24-2.253-2.221-2.19-2.241 2.253 2.222 2.19zm-7.863-2.243 2.241-2.253-2.222-2.191-2.24 2.253 2.221 2.19zm2.581 2.544 2.241-2.253-2.222-2.19-2.24 2.253 2.221 2.19zm2.516 2.48 2.24-2.252-2.22-2.19-2.242 2.253 2.222 2.19zm-7.862-2.243 2.24-2.254-2.221-2.19-2.241 2.253 2.222 2.19zm2.581 2.544 2.24-2.253-2.222-2.19-2.24 2.253 2.222 2.19zm2.516 2.48 2.24-2.253-2.222-2.19-2.24 2.253 2.222 2.19zM39.257 58.9l2.24-2.253-2.221-2.19-2.24 2.252 2.221 2.19zm2.581 2.545 2.24-2.254-2.22-2.19-2.241 2.253 2.221 2.19zm2.515 2.48 2.241-2.254-2.222-2.19-2.24 2.253 2.221 2.19zm-7.862-2.244 2.241-2.253-2.222-2.191-2.24 2.253 2.221 2.19zm2.581 2.544 2.241-2.253-2.222-2.19-2.24 2.253 2.221 2.19zm2.516 2.48 2.24-2.253-2.221-2.19-2.24 2.253 2.22 2.19zm-7.863-2.244 2.241-2.252-2.222-2.191-2.24 2.253 2.221 2.19zm2.581 2.545 2.241-2.253-2.221-2.19-2.241 2.253 2.221 2.19zm2.517 2.48 2.24-2.252-2.222-2.191-2.24 2.253 2.222 2.19zm-7.863-2.243 2.24-2.253-2.221-2.19-2.24 2.252 2.22 2.19zm2.58 2.544 2.241-2.253-2.221-2.19-2.24 2.253 2.22 2.19zm2.516 2.48 2.242-2.253-2.222-2.19-2.241 2.253 2.221 2.19zm-7.862-2.243 2.24-2.253-2.22-2.191-2.241 2.253 2.221 2.19zm2.581 2.544 2.241-2.253-2.222-2.19-2.24 2.252 2.221 2.191zm2.517 2.48 2.24-2.253-2.222-2.19-2.24 2.253 2.222 2.19zm-7.863-2.243 2.24-2.254-2.221-2.19-2.241 2.253 2.222 2.19zm2.58 2.544 2.242-2.253-2.222-2.19-2.241 2.252 2.222 2.19zm2.517 2.48 2.24-2.253-2.221-2.19-2.241 2.253 2.222 2.19zm-7.863-2.244 2.24-2.253-2.221-2.19-2.24 2.253 2.221 2.19zm2.581 2.545 2.241-2.253-2.222-2.19-2.241 2.253 2.222 2.19zm2.516 2.48L30 78.356l-2.221-2.19-2.24 2.253 2.22 2.19zm-7.863-2.243 2.24-2.254-2.22-2.19-2.241 2.253 2.221 2.19zm2.582 2.544 2.24-2.253-2.222-2.19-2.24 2.253 2.222 2.19zm2.515 2.48 2.24-2.253-2.22-2.19-2.242 2.253 2.222 2.19zm-7.862-2.244 2.24-2.253-2.222-2.19-2.24 2.253 2.222 2.19zm2.581 2.545 2.24-2.253-2.222-2.19-2.24 2.252 2.222 2.19zm2.515 2.48 2.241-2.253-2.222-2.19-2.24 2.253 2.221 2.19zm-7.862-2.244 2.24-2.253-2.221-2.19-2.24 2.253 2.221 2.19zm2.581 2.545 2.24-2.253-2.22-2.19-2.241 2.253 2.221 2.19zm2.516 2.48 2.24-2.253-2.221-2.19-2.24 2.253 2.22 2.19zm-.483 1.965L10 82.063l38.158-38.37 8.98 8.854-38.158 38.37z"/><g transform="translate(63.47 10.296)"><mask id="D" fill="#fff"><use xlink:href="#C"/></mask><path fill="#FFF" d="m7.148 37.767-2.24 2.253-2.223-2.19 2.242-2.254 2.221 2.191zm2.581 2.544-2.24 2.253-2.222-2.19 2.24-2.253 2.222 2.19zm2.516 2.481-2.24 2.253-2.222-2.19 2.24-2.254 2.222 2.191zm-2.33-7.806-2.242 2.253-2.222-2.19 2.24-2.254 2.223 2.19zm2.58 2.544-2.241 2.254-2.222-2.19 2.241-2.254 2.222 2.19zm2.515 2.48-2.24 2.254-2.222-2.19 2.24-2.254 2.222 2.19zm-2.33-7.805-2.241 2.253-2.222-2.19 2.24-2.254 2.223 2.19zm2.58 2.545-2.24 2.252-2.221-2.19 2.24-2.253 2.221 2.19zm2.516 2.48-2.24 2.253-2.222-2.191 2.24-2.253 2.222 2.19zm-2.331-7.806-2.24 2.253-2.222-2.19 2.24-2.253 2.222 2.19zm2.581 2.545-2.24 2.253-2.222-2.191 2.24-2.253 2.222 2.19zm2.516 2.48-2.241 2.253-2.222-2.19 2.241-2.254 2.222 2.19zm-2.331-7.807-2.241 2.254-2.222-2.19 2.241-2.254 2.222 2.19zm2.58 2.546-2.24 2.253-2.222-2.191 2.241-2.253 2.222 2.19zm2.516 2.48-2.24 2.253-2.222-2.19 2.24-2.253 2.222 2.19zm-2.33-7.806-2.242 2.253-2.221-2.19 2.24-2.253 2.222 2.19zm2.58 2.545-2.24 2.253-2.222-2.19 2.24-2.254 2.223 2.19zm2.516 2.48-2.24 2.253-2.222-2.19 2.24-2.253 2.222 2.19zm-2.33-7.806L21.5 23.334l-2.221-2.19 2.24-2.253 2.222 2.19zm2.58 2.545-2.24 2.253-2.222-2.19 2.24-2.254 2.222 2.191zm2.515 2.48-2.24 2.253-2.221-2.19 2.24-2.254 2.221 2.19zm-2.33-7.806-2.24 2.253-2.223-2.19 2.241-2.254 2.222 2.19zm2.58 2.544-2.24 2.253-2.221-2.19 2.24-2.253 2.222 2.19zm2.517 2.48-2.24 2.254-2.223-2.19 2.241-2.254 2.222 2.19zm-2.332-7.805-2.24 2.253-2.222-2.19 2.24-2.254 2.222 2.191zm2.581 2.545-2.24 2.253-2.222-2.19 2.24-2.254 2.222 2.19zm2.516 2.48-2.24 2.253-2.222-2.19 2.24-2.253 2.222 2.19zm-2.33-7.806-2.242 2.253-2.222-2.19 2.241-2.253 2.222 2.19zm2.58 2.545-2.24 2.253-2.222-2.19 2.24-2.254 2.222 2.19zm2.516 2.48-2.24 2.253-2.223-2.19 2.241-2.254 2.222 2.19zm-2.331-7.806-2.24 2.253-2.223-2.19 2.24-2.253 2.223 2.19zm2.58 2.545-2.24 2.253-2.222-2.19 2.241-2.254 2.222 2.19zm2.516 2.48-2.24 2.253-2.222-2.19 2.24-2.253 2.222 2.19zm-2.33-7.806L35.33 9.429l-2.222-2.19 2.24-2.254 2.222 2.19zm2.58 2.545-2.24 2.253-2.222-2.19 2.24-2.254 2.222 2.19zm2.516 2.48-2.24 2.253-2.222-2.19 2.24-2.253 2.222 2.19zm-2.332-7.806-2.24 2.253-2.221-2.19 2.24-2.253 2.221 2.19zm2.582 2.545-2.24 2.253-2.223-2.19 2.241-2.253 2.222 2.19zm2.516 2.48-2.24 2.253-2.223-2.19 2.24-2.254 2.223 2.19zm1.968-.5L38.421.066.261 38.436l8.981 8.854L47.401 8.92z" mask="url(#D)"/></g><path fill="#616263" d="M58.28 48.514a3.043 3.043 0 0 1 4.29-.021 3.012 3.012 0 0 1 .022 4.273 3.044 3.044 0 0 1-4.291.021 3.013 3.013 0 0 1-.021-4.273"/></g></svg>