<svg version="1.1" xmlns="http://www.w3.org/2000/svg" xmlns:xlink="http://www.w3.org/1999/xlink" width="75.61756" height="120.00135" viewBox="0,0,75.61756,120.00135"><g transform="translate(-201.99936,-120)"><g data-paper-data="{&quot;isPaintingLayer&quot;:true}" fill-rule="evenodd" stroke-linecap="butt" stroke-linejoin="miter" stroke-miterlimit="10" stroke-dasharray="" stroke-dashoffset="0" style="mix-blend-mode: normal"><path d="M265.888,158.99c-0.857,7.504 -4.894,14.402 -11.369,19.425c-6.32,4.903 -14.475,7.603 -22.964,7.603v-9.506c6.39,0 12.476,-1.992 17.138,-5.607c4.434,-3.441 7.187,-8.055 7.75,-12.993z" data-paper-data="{&quot;origPos&quot;:null}" fill="#584239" stroke="none" stroke-width="1"/><path d="M236.918,239.32l-1.88,-26.652l11.229,-0.954l3.556,26.342z" data-paper-data="{&quot;origPos&quot;:null}" fill="#584239" stroke="none" stroke-width="1"/><path d="M248,224.665l1.821,13.376l-12.9,1.294l-1.054,-14.67z" fill="#f2f2f2" stroke="none" stroke-width="1"/><path d="M236.803,230.516h0.911c0.386,0 0.762,0.165 1.051,0.46c1.02,1.042 2.793,1.741 4.78,1.741c2.268,0 4.136,-0.91 4.878,-2.2c2.863,0.015 5.511,2.605 5.936,5.917l0.256,1.993c0.064,0.5 -0.237,0.908 -0.672,0.908h-16.462c-0.413,0 -0.764,-0.369 -0.804,-0.842l-0.602,-7.093c-0.04,-0.479 0.295,-0.884 0.728,-0.884" fill="#4c413c" stroke="none" stroke-width="1"/><path d="M218.705,213.226l11.262,-0.983l3.492,25.798l-12.902,1.294z" fill="#ecba97" stroke="none" stroke-width="1"/><path d="M254.547,237.897l0.068,0.53c0.064,0.5 -0.237,0.908 -0.672,0.908h-16.462c-0.413,0 -0.764,-0.369 -0.804,-0.842l-0.05,-0.596z" fill="#f2f2f2" stroke="none" stroke-width="1"/><path d="M218.705,213.226l11.262,-0.983l3.492,25.798l-12.902,1.294z" data-paper-data="{&quot;origPos&quot;:null}" fill="#584239" stroke="none" stroke-width="1"/><path d="M231.648,224.665l1.81,13.376l-12.901,1.294l-1.04,-14.67z" fill="#ffffff" stroke="none" stroke-width="1"/><path d="M220.612,230.516h0.91c0.387,0 0.762,0.165 1.052,0.46c1.02,1.042 2.792,1.741 4.779,1.741c2.269,0 4.137,-0.91 4.878,-2.2c2.863,0.015 5.512,2.605 5.936,5.917l0.256,1.993c0.064,0.5 -0.236,0.908 -0.671,0.908h-16.462c-0.413,0 -0.765,-0.369 -0.805,-0.842l-0.601,-7.093c-0.04,-0.479 0.294,-0.884 0.728,-0.884" fill="#534741" stroke="none" stroke-width="1"/><path d="M238.355,237.897l0.068,0.53c0.064,0.5 -0.236,0.908 -0.671,0.908h-16.462c-0.413,0 -0.765,-0.369 -0.805,-0.842l-0.05,-0.596z" fill="#ffffff" stroke="none" stroke-width="1"/><path d="M247.697,213.684h-15.067l-2.367,-13.344h16.293z" fill="#cccccc" stroke="none" stroke-width="1"/><path d="M215.413,200.34h16.673l0.76,13.344h-15.066z" fill="#e6e6e6" stroke="none" stroke-width="1"/><path d="M220.05,213.712l1.074,-0.056l-0.735,-14.205l-1.075,0.056zM222.417,213.712l1.075,-0.056l-0.736,-14.205l-1.074,0.056zM245.85,213.735l-1.356,-14.205l1.071,-0.102l1.356,14.205zM243.482,213.735l-1.355,-14.205l1.07,-0.102l1.357,14.205z" fill="#e3544f" stroke="none" stroke-width="1"/><path d="M259.486,147.089c1.225,0.367 1.899,1.886 1.521,3.33c0.378,-1.444 1.23,-3.511 3.296,-2.762c2.067,0.75 1.434,2.622 0.956,4.036c0.478,-1.414 1.876,-2.313 3.101,-1.946c1.226,0.367 1.73,1.835 1.15,3.22l-1.567,3.597c-1.376,3.294 -4.412,3.94 -7.374,3.052c-2.962,-0.886 -5.143,-3.095 -4.482,-6.603l0.669,-3.867c0.277,-1.474 1.505,-2.424 2.73,-2.057" data-paper-data="{&quot;origPos&quot;:null}" fill="#584239" stroke="none" stroke-width="1"/><path d="M256.345,155.839c1.28268,0.38384 2.63366,-0.34482 3.0175,-1.6275c0.38384,-1.28268 -0.34482,-2.63366 -1.6275,-3.0175l-2.263,-0.678c-1.28268,-0.38411 -2.63389,0.34432 -3.018,1.627c-0.38411,1.28268 0.34432,2.63389 1.627,3.018l2.263,0.678M224.331,170.08c0,-3.98971 3.23429,-7.224 7.224,-7.224c3.98971,0 7.224,3.23429 7.224,7.224c0,3.98998 -3.23452,7.2245 -7.2245,7.2245c-3.98998,0 -7.2245,-3.23452 -7.2245,-7.2245" fill="#ecba97" stroke="none" stroke-width="1"/><path d="M248.97,203.624c0.04915,0.4143 -0.08129,0.82984 -0.35839,1.14172c-0.27711,0.31189 -0.6744,0.49033 -1.09161,0.49028h-32.669c-0.476,0 -0.843,-0.508 -0.775,-1.076l3.21,-27.08c0.08716,-0.73471 0.71013,-1.28808 1.45,-1.288h25.64c0.74,0 1.364,0.554 1.45,1.289z" fill="#d84c4c" stroke="none" stroke-width="1"/><path d="M252.216,180.359c0.12225,0.41321 -0.04892,0.85694 -0.417,1.081c-5.941,3.617 -12.941,5.528 -20.244,5.528c-1.878,0 -3.454,-0.59 -4.558,-1.708c-0.988,-1 -1.532,-2.362 -1.532,-3.834c0,-2.843 2.134,-5.865 6.09,-5.865c6.087,0 11.899,-1.867 16.368,-5.257c0.26442,-0.20917 0.61974,-0.26289 0.93418,-0.14123c0.31443,0.12166 0.54106,0.40056 0.59582,0.73323c0.151,0.596 1.723,5.943 2.763,9.463" fill="#d84c4c" stroke="none" stroke-width="1"/><path d="M231.552,179.635c-2.31,0 -4.495,-0.617 -6.15,-1.737c-1.688,-1.143 -2.639,-2.68 -2.676,-4.328c-0.029,-1.273 0.492,-2.5 1.505,-3.547c1.613,-1.667 4.3,-2.68 7.189,-2.712h0.137c2.311,0 4.495,0.616 6.15,1.736c1.689,1.143 2.64,2.68 2.677,4.329c0.028,1.273 -0.492,2.5 -1.506,3.546c-1.612,1.668 -4.3,2.681 -7.188,2.712h-0.138" fill="#e3544f" stroke="none" stroke-width="1"/><path d="M231.557,167.025c2.368,0 4.608,0.635 6.31,1.786c1.768,1.196 2.762,2.815 2.802,4.558c0.03,1.351 -0.518,2.648 -1.586,3.751c-1.664,1.722 -4.427,2.768 -7.391,2.8h-0.14c-2.367,0 -4.608,-0.634 -6.31,-1.786c-1.767,-1.196 -2.761,-2.814 -2.801,-4.558c-0.031,-1.351 0.518,-2.648 1.586,-3.751c1.664,-1.721 4.427,-2.767 7.39,-2.799l0.141,-0.001M231.557,167.596l-0.135,0.001c-4.718,0.05 -8.484,2.721 -8.41,5.966c0.071,3.215 3.883,5.786 8.54,5.786h0.135c4.718,-0.05 8.484,-2.722 8.411,-5.967c-0.071,-3.214 -3.883,-5.787 -8.541,-5.787" fill="#ffffff" stroke="none" stroke-width="1"/><path d="M231.553,177.823c-1.908,0 -3.712,-0.51 -5.08,-1.434c-1.4,-0.948 -2.188,-2.225 -2.22,-3.596c-0.023,-1.059 0.41,-2.079 1.251,-2.949c1.334,-1.379 3.554,-2.217 5.94,-2.242h0.113c1.908,0 3.711,0.509 5.079,1.434c1.4,0.948 2.189,2.225 2.22,3.595c0.024,1.06 -0.409,2.08 -1.25,2.95c-1.334,1.378 -3.555,2.216 -5.94,2.242h-0.113" fill="#ecba97" stroke="none" stroke-width="1"/><path d="M231.557,167.316c1.964,0 3.824,0.527 5.238,1.484c1.48,1.001 2.313,2.359 2.345,3.825c0.026,1.137 -0.434,2.228 -1.33,3.153c-1.385,1.433 -3.681,2.304 -6.141,2.33l-0.116,0.001c-1.964,0 -3.825,-0.528 -5.239,-1.484c-1.479,-1.001 -2.312,-2.36 -2.345,-3.825c-0.026,-1.138 0.434,-2.228 1.331,-3.154c1.385,-1.432 3.68,-2.303 6.14,-2.33h0.117M231.556,167.887h-0.11c-3.874,0.041 -6.967,2.235 -6.907,4.9c0.059,2.639 3.189,4.751 7.014,4.751h0.11c3.875,-0.042 6.968,-2.235 6.908,-4.9c-0.06,-2.64 -3.189,-4.752 -7.014,-4.752" fill="#ffffff" stroke="none" stroke-width="1"/><path d="M232.162,122.19c4.98852,0.04569 9.85123,1.57111 13.972,4.383l0.033,-3.1c0.01325,-1.24844 1.03606,-2.24975 2.2845,-2.2365c1.24844,0.01325 2.24975,1.03606 2.2365,2.2845l-0.044,4.184c-0.01389,1.4342 1.13583,2.60897 2.57,2.626l4.185,0.044c1.24844,0.01325 2.24975,1.03606 2.2365,2.2845c-0.01325,1.24844 -1.03606,2.24975 -2.2845,2.2365l-3.524,-0.037c2.27081,3.9232 3.44126,8.38632 3.388,12.919l-0.054,5.064l-50.64,-0.535l0.054,-5.064c0.148,-13.984 11.604,-25.2 25.587,-25.052" fill="#42210b" stroke="none" stroke-width="1"/><path d="M207.099,151.742l49.497,0.523l0.048,-4.493c0.04812,-4.42956 -1.09508,-8.79066 -3.31,-12.627l-0.502,-0.868l4.525,0.048c0.9321,0.00723 1.69492,-0.73995 1.707,-1.672c0.00611,-0.44833 -0.16746,-0.88046 -0.482,-1.2c-0.31297,-0.32124 -0.74152,-0.50382 -1.19,-0.507l-4.182,-0.046c-1.7489,-0.01978 -3.15199,-1.45105 -3.137,-3.2l0.044,-4.184c0.006,-0.44831 -0.16756,-0.8804 -0.482,-1.2c-0.31293,-0.32142 -0.74142,-0.50434 -1.19,-0.508h-0.018c-0.923,0 -1.68,0.747 -1.69,1.672l-0.043,4.166l-0.882,-0.6c-4.0276,-2.74736 -8.77981,-4.23793 -13.655,-4.283l0.006,-0.571l-0.007,0.57h-0.268c-6.512,0 -12.648,2.502 -17.308,7.065c-4.70546,4.58175 -7.38235,10.85557 -7.434,17.423l-0.047,4.493zM257.726,153.419l-51.781,-0.547l0.06,-5.635c0.072,-6.916 2.834,-13.389 7.776,-18.227c4.875,-4.773 11.295,-7.392 18.107,-7.392l0.28,0.002c4.74306,0.04385 9.38201,1.39581 13.406,3.907l0.022,-2.06c0.01806,-1.55127 1.27963,-2.79992 2.831,-2.802h0.03c0.757,0.009 1.465,0.31 1.994,0.851c0.53,0.54 0.816,1.255 0.808,2.01l-0.044,4.185c-0.01056,1.11884 0.88619,2.03527 2.005,2.049l4.184,0.044c0.756,0.008 1.464,0.31 1.993,0.85c0.53,0.54 0.816,1.255 0.808,2.011c-0.01805,1.55088 -1.27902,2.79937 -2.83,2.802h-0.031l-2.544,-0.027c2.0044,3.80303 3.03026,8.04532 2.985,12.344l-0.06,5.635z" fill="#42210b" stroke="none" stroke-width="1"/><path d="M255.088,150.162c2.89502,0.01661 5.24171,2.352 5.27229,5.24691c0.03058,2.89491 -2.26626,5.27934 -5.16029,5.35709l-1.06,0.012c-0.271,0.002 -0.534,-0.021 -0.794,-0.058c-3.001,8.832 -11.313,15.231 -21.169,15.335c-9.919,0.105 -18.406,-6.196 -21.546,-15.05c-0.50112,0.15939 -1.02317,0.2433 -1.549,0.249l-1.061,0.011c-1.90546,0.03689 -3.68417,-0.95153 -4.65915,-2.58907c-0.97499,-1.63754 -0.99628,-3.67232 -0.05579,-5.3299c0.9405,-1.65759 2.69813,-2.68302 4.60394,-2.68603l1.06,-0.011c0.111,-0.001 0.219,0.007 0.329,0.013l-0.016,-1.496c-0.132,-12.486 9.883,-22.714 22.368,-22.846c12.486,-0.132 22.714,9.883 22.846,22.368l0.016,1.48l0.575,-0.006" data-paper-data="{&quot;origPos&quot;:null}" fill="#75574c" stroke="none" stroke-width="1"/><path d="M236.442,159.922c1.008,-0.013 1.735,1.204 1.45,2.419c-0.801,3.412 -3.297,5.918 -6.274,5.958c-2.977,0.039 -5.516,-2.4 -6.373,-5.79c-0.306,-1.207 0.4,-2.443 1.408,-2.457z" fill="#42210b" stroke="none" stroke-width="1"/><path d="M231.566,164.271c2.067,-0.028 3.921,-0.95 5.149,0.9c-1.197,1.882 -3.031,3.1 -5.097,3.127c-2.067,0.028 -3.921,-1.141 -5.149,-2.991c1.197,-1.883 3.03,-1.009 5.097,-1.037" fill="#e3544f" stroke="none" stroke-width="1"/><path d="M231.633,161.808c1.955,-0.026 3.7,-0.268 4.897,-1.887l-9.84,0.131c1.225,1.586 2.989,1.782 4.943,1.756M230.018,151.974c0.04,3.726 -2.349,6.226 -5.334,6.257c-2.985,0.032 -5.437,-2.416 -5.476,-6.143c-0.04,-3.727 2.349,-6.226 5.334,-6.258c2.985,-0.031 5.437,2.417 5.476,6.144M243.902,151.974c0.039,3.726 -2.349,6.226 -5.334,6.257c-2.985,0.032 -5.437,-2.416 -5.476,-6.143c-0.04,-3.727 2.348,-6.226 5.333,-6.258c2.985,-0.031 5.437,2.417 5.477,6.144" fill="#ffffff" stroke="none" stroke-width="1"/><path d="M228.783,152.098c0.029,2.737 -1.725,4.402 -3.917,4.425c-2.192,0.023 -3.992,-1.604 -4.021,-4.34c-0.029,-2.737 1.725,-4.402 3.916,-4.426c2.192,-0.023 3.993,1.605 4.022,4.341M242.265,152.098c0.028,2.737 -1.725,4.402 -3.917,4.425c-2.192,0.023 -3.992,-1.604 -4.021,-4.34c-0.03,-2.737 1.724,-4.402 3.916,-4.426c2.192,-0.023 3.993,1.605 4.022,4.341" fill="#42210b" stroke="none" stroke-width="1"/><path d="M222.895,161.267c0.04989,1.73857 -0.83958,3.36949 -2.32822,4.26898c-1.48864,0.89948 -3.34612,0.92835 -4.862,0.07558c-1.51588,-0.85278 -2.45561,-2.45527 -2.45978,-4.19455c-0.00632,-2.64057 2.11072,-4.79593 4.75098,-4.83697c2.64026,-0.04104 4.82327,2.04748 4.89902,4.68697" fill="#ecba97" stroke="none" stroke-width="1"/><path d="M255.779,146.112l-0.357,-0.262c0.08839,0.79073 0.13712,1.58539 0.146,2.381l0.035,3.303c-4.314,0.046 -8.03,-4.451 -9.458,-10.767c-1.02697,0.60655 -2.19535,0.93244 -3.388,0.945c-2.12885,0.02244 -4.14623,-0.94982 -5.455,-2.629c-1.27297,1.7067 -3.2695,2.72156 -5.39853,2.74411c-2.12903,0.02256 -4.14662,-0.94976 -5.45547,-2.62911c-2.04962,2.74568 -5.81746,3.5458 -8.806,1.87c-1.294,6.345 -4.914,10.919 -9.228,10.965l-0.035,-3.303c-0.00772,-0.7884 0.02365,-1.5767 0.094,-2.362l-0.35,0.248c-0.139,-13.16 10.417,-23.941 23.577,-24.08c13.16,-0.139 23.94,10.416 24.08,23.576z" fill="#42210b" stroke="none" stroke-width="1"/><path d="M209.151,145.188l-0.11,1.23c-0.068,0.777 -0.1,1.553 -0.091,2.305l0.028,2.703c3.68,-0.423 6.893,-4.533 8.105,-10.472l0.156,-0.766l0.682,0.382c0.955,0.535 2.037,0.81 3.123,0.8c1.95198,-0.01687 3.78317,-0.94783 4.947,-2.515l0.447,-0.595l0.46,0.586c1.182,1.52331 3.00289,2.41326 4.931,2.41h0.068c1.95255,-0.01664 3.78427,-0.94805 4.948,-2.516l0.447,-0.595l0.459,0.586c1.19677,1.54266 3.04771,2.43482 5,2.41c1.09282,-0.0129 2.16325,-0.31145 3.105,-0.866l0.673,-0.396l0.173,0.762c1.336,5.912 4.636,9.953 8.324,10.299l-0.029,-2.703c-0.00885,-0.77654 -0.05624,-1.55216 -0.142,-2.324l-0.144,-1.292l0.456,0.334c-0.732,-12.197 -10.89,-21.85 -23.212,-21.85c-0.084,0 -0.166,0 -0.25,0.002c-6.1715,0.04825 -12.06721,2.56346 -16.373,6.985c-4.087,4.174 -6.416,9.61 -6.624,15.41zM207.85,152.61l-0.041,-3.874c-0.004,-0.4 0.002,-0.804 0.018,-1.211l-0.262,0.186l-0.012,-1.09c-0.08611,-6.47428 2.42155,-12.71391 6.964,-17.328c4.5806,-4.70458 10.87383,-7.34961 17.44,-7.33c13.335,0 24.253,10.776 24.394,24.143l0.012,1.141l-0.265,-0.194c0.024,0.394 0.038,0.785 0.042,1.172l0.04,3.874l-0.57,0.006h-0.07c-4.279,0 -8.144,-4.175 -9.777,-10.495c-0.94185,0.43189 -1.96391,0.66117 -3,0.673c-2.06129,0.02713 -4.03918,-0.81286 -5.451,-2.315c-1.3799,1.53215 -3.34012,2.41392 -5.402,2.43c-2.06142,0.0263 -4.03929,-0.81354 -5.452,-2.315c-1.37966,1.53189 -3.33947,2.41365 -5.401,2.43c-1.03597,0.00988 -2.06246,-0.19794 -3.013,-0.61c-1.508,6.386 -5.316,10.655 -9.623,10.7z" fill="#42210b" stroke="none" stroke-width="1"/><path d="M256.638,139.662c0.58573,1.85296 0.96076,3.76604 1.118,5.703h-51.607c0.16211,-1.93746 0.54183,-3.85051 1.132,-5.703h49.359" fill="#ffffff" stroke="none" stroke-width="1"/><path d="M257.183,141.658c0.13055,0.56608 0.24195,1.1364 0.334,1.71h-51.12c0.09284,-0.5736 0.2049,-1.14392 0.336,-1.71h50.45" fill="#e3544f" stroke="none" stroke-width="1"/><path d="M237.38,137.182c-1.27276,1.70668 -3.26914,2.72155 -5.39803,2.74411c-2.12889,0.02256 -4.14633,-0.94978 -5.45497,-2.62911" fill="#42210b" stroke="none" stroke-width="1"/><path d="M237.38,137.182c-1.27276,1.70668 -3.26914,2.72155 -5.39803,2.74411c-2.12889,0.02256 -4.14633,-0.94978 -5.45497,-2.62911" fill="none" stroke="#42210b" stroke-width="1.142"/><path d="M228.936,139.083c-1.27276,1.70668 -3.26914,2.72155 -5.39803,2.74411c-2.12889,0.02256 -4.14633,-0.94978 -5.45497,-2.62911" fill="#42210b" stroke="none" stroke-width="1"/><path d="M228.936,139.083c-1.27276,1.70668 -3.26914,2.72155 -5.39803,2.74411c-2.12889,0.02256 -4.14633,-0.94978 -5.45497,-2.62911" fill="none" stroke="#42210b" stroke-width="1.142"/><path d="M247.758,139.083c-1.27273,1.70707 -3.26935,2.7222 -5.39853,2.74476c-2.12918,0.02256 -4.14686,-0.95004 -5.45547,-2.62976" fill="#42210b" stroke="none" stroke-width="1"/><path d="M247.758,139.083c-1.27273,1.70707 -3.26935,2.7222 -5.39853,2.74476c-2.12918,0.02256 -4.14686,-0.95004 -5.45547,-2.62976" fill="none" stroke="#42210b" stroke-width="1.142"/><path d="M223.442,150.533c0.01998,0.54498 -0.25937,1.05734 -0.7283,1.33576c-0.46892,0.27842 -1.05249,0.27842 -1.52141,0c-0.46892,-0.27842 -0.74827,-0.79078 -0.7283,-1.33576c0.02937,-0.80113 0.68734,-1.43542 1.489,-1.43542c0.80166,0 1.45963,0.63429 1.489,1.43542M237.004,150.533c0.01403,0.54135 -0.26676,1.04769 -0.73338,1.32249c-0.46662,0.27481 -1.04561,0.27481 -1.51223,0c-0.46662,-0.27481 -0.74741,-0.78114 -0.73338,-1.32249c0.02093,-0.8076 0.68163,-1.4514 1.4895,-1.4514c0.80787,0 1.46857,0.6438 1.4895,1.4514" fill="#ffffff" stroke="none" stroke-width="1"/><path d="M222.02887,171.22c13.784,0 24.998,-9.211 24.998,-20.531h9.505c0,8.17 -3.689,15.806 -10.388,21.5c-6.478,5.505 -15.042,8.537 -24.115,8.537z" data-paper-data="{&quot;origPos&quot;:null}" fill="#584239" stroke="none" stroke-width="1"/><path d="M276.474,148.954c-1.809,6.089 -8.212,9.558 -14.301,7.75c-6.09,-1.81 -9.559,-8.213 -7.75,-14.302c1.81,-6.09 8.213,-9.559 14.302,-7.75c6.09,1.81 9.559,8.213 7.75,14.302" fill="#9d6345" stroke="none" stroke-width="1"/><path d="M269.739,143.105c-1.069,0 -2.155,-0.148 -3.232,-0.453l-0.782,2.631l10.869,3.23c-0.038,0.147 -0.076,0.294 -0.12,0.44c-0.029,0.099 -0.062,0.194 -0.094,0.29l-10.872,-3.23l-1.303,4.385c2.84361,0.88301 5.25012,2.805 6.74,5.383c-0.223,0.121 -0.452,0.233 -0.682,0.34c-1.39498,-2.38936 -3.63334,-4.17042 -6.275,-4.993l-1.668,5.615c-0.049,-0.014 -0.098,-0.025 -0.147,-0.04c-0.196,-0.058 -0.389,-0.121 -0.579,-0.188l1.66,-5.59c-0.859,-0.206 -1.721,-0.306 -2.573,-0.306c-1.72494,0.0021 -3.42576,0.4054 -4.968,1.178c-0.136,-0.217 -0.267,-0.437 -0.388,-0.662c2.51523,-1.27944 5.40601,-1.61404 8.147,-0.943l1.306,-4.396l-10.434,-3.1c0.027,-0.098 0.05,-0.196 0.08,-0.294c0.043,-0.147 0.091,-0.291 0.141,-0.435l10.43,3.099l0.786,-2.643c-3.02505,-1.07014 -5.48739,-3.32034 -6.825,-6.237c0.212,-0.145 0.429,-0.282 0.649,-0.412c1.23611,2.76077 3.54502,4.89776 6.393,5.917l2.138,-7.197c0.19759,0.04787 0.39398,0.10055 0.589,0.158l0.145,0.047l-2.146,7.222c3.06399,0.8645 6.35167,0.37215 9.028,-1.352c0.11442,0.23039 0.22115,0.46452 0.32,0.702c-1.873,1.177 -4.065,1.834 -6.333,1.834" fill="#603813" stroke="none" stroke-width="1"/><text transform="translate(204,136.4256)" font-size="13.688" xml:space="preserve" fill="#ffffff" fill-rule="evenodd" stroke="none" stroke-width="1" stroke-linecap="butt" stroke-linejoin="miter" stroke-miterlimit="10" stroke-dasharray="" stroke-dashoffset="0" font-family="PingFangSC-Semibold, PingFang SC" font-weight="500" text-anchor="start" style="mix-blend-mode: normal"><tspan x="0" dy="0">11</tspan></text><path d="M242.33,175.226c0.12225,0.41321 -0.04892,0.85694 -0.417,1.081c-5.941,3.617 -12.941,5.528 -20.244,5.528c-1.878,0 -3.454,-0.591 -4.558,-1.708c-0.988,-1 -1.532,-2.362 -1.532,-3.835c0,-2.842 2.134,-5.864 6.09,-5.864c6.087,0 11.899,-1.867 16.369,-5.257c0.26424,-0.2098 0.61986,-0.26389 0.93453,-0.14214c0.31467,0.12175 0.54127,0.40112 0.59547,0.73414c0.15,0.596 1.722,5.943 2.762,9.463" fill="#e3544f" stroke="none" stroke-width="1"/><path d="M249.55064,141.14664c1.225,0.367 1.9,1.886 1.521,3.33c0.378,-1.444 1.23,-3.511 3.297,-2.762c2.067,0.75 1.433,2.621 0.955,4.035c0.478,-1.414 1.876,-2.313 3.102,-1.946c1.225,0.367 1.728,1.836 1.15,3.22l-1.568,3.598c-1.376,3.294 -4.412,3.94 -7.374,3.052c-2.961,-0.887 -5.143,-3.095 -4.482,-6.603l0.669,-3.867c0.277,-1.474 1.505,-2.424 2.73,-2.057" data-paper-data="{&quot;origPos&quot;:null}" fill="#584239" stroke="none" stroke-width="1"/><path d="M246.648,150.135l-2.263,-0.677c-1.28268,-0.38439 -2.01089,-1.73582 -1.6265,-3.0185c0.38439,-1.28268 1.73582,-2.01089 3.0185,-1.6265l2.262,0.678c0.8404,0.23925 1.487,0.9123 1.69238,1.76161c0.20538,0.84932 -0.06224,1.74344 -0.70046,2.34026c-0.63823,0.59682 -1.54827,0.80394 -2.38192,0.54213" data-paper-data="{&quot;origPos&quot;:null}" fill="#584239" stroke="none" stroke-width="1"/><path d="M230.926,214.349l1.384,10.227l0.723,5.34c0.87409,0.138 1.70808,0.46307 2.445,0.953c0.03528,-0.11513 0.0843,-0.22559 0.146,-0.329l-0.418,-5.828c-0.003,-0.052 -0.001,-0.102 0.007,-0.152l-0.72,-10.21h-3.567zM251.182,167.693c1.7,-1.89 2.979,-4.008 3.77,-6.258l-0.11,0.001c-0.95323,2.23067 -2.18285,4.33279 -3.66,6.257zM257.378,136.132h-0.038l-1.454,-0.015c0.20927,0.44216 0.40635,0.89 0.591,1.343c0.459,-0.5 0.958,-0.961 1.496,-1.378c-0.194,0.033 -0.393,0.051 -0.595,0.051zM248.467,120c0.92828,0.00753 1.81491,0.38639 2.462,1.052c0.65098,0.66113 1.01036,1.55525 0.998,2.483l-0.044,4.184c-0.00722,0.75162 0.5954,1.36721 1.347,1.376l4.184,0.045c0.92794,0.00723 1.81445,0.38531 2.462,1.05c0.65089,0.66119 1.01025,1.55527 0.998,2.483c-0.008,0.762 -0.263,1.467 -0.688,2.04c1.6418,-0.79209 3.44112,-1.20363 5.264,-1.204c1.16179,0.00195 2.31738,0.16929 3.432,0.497c0.04633,0.01327 0.09234,0.0276 0.138,0.043l0.05,0.016c3.28552,1.0265 5.98373,3.39451 7.428,6.519l0.06,0.135l0.005,0.01l0.005,0.013c0.041,0.091 0.082,0.182 0.12,0.274c0.00106,0.00197 0.00206,0.00397 0.003,0.006c1.06695,2.57897 1.21662,5.44596 0.424,8.122c-0.92581,3.15022 -3.09476,5.78748 -6.007,7.304c-0.91289,0.48041 -1.88294,0.8433 -2.887,1.08c-0.452,0.828 -1.031,1.502 -1.73,2.012c-0.989,7.498 -5.086,14.378 -11.562,19.402c-0.6564,0.50869 -1.33083,0.99367 -2.022,1.454c0.092,0.634 -0.2,1.274 -0.76,1.614c-1.53108,0.93059 -3.12683,1.75035 -4.775,2.453l2.261,19.084c0.06706,0.57169 -0.10033,1.14616 -0.46398,1.59234c-0.36366,0.44618 -0.89255,0.72602 -1.46602,0.77566l0.659,7.713c0.01597,0.18567 -0.04669,0.36952 -0.17274,0.50679c-0.12605,0.13726 -0.3039,0.21534 -0.49026,0.21521h-0.402l2.105,15.597c2.836,0.519 5.205,3.175 5.62,6.404l0.255,1.993c0.013,0.1 0.017,0.201 0.013,0.3c-0.03,0.598 -0.391,1.102 -0.92,1.283c-0.146,0.05 -0.284,0.074 -0.424,0.074h-32.654c-0.10484,-0.00067 -0.20924,-0.01376 -0.311,-0.039l-0.356,0.036c-0.17894,0.01802 -0.35755,-0.0372 -0.4951,-0.15308c-0.13754,-0.11587 -0.22229,-0.28252 -0.2349,-0.46192l-0.048,-0.68c-0.008,-0.042 -0.017,-0.093 -0.022,-0.153l-0.602,-7.093c-0.01649,-0.20153 0.00661,-0.40434 0.068,-0.597l-0.436,-6.147l-0.735,-10.363h-0.337c-0.32242,0.00059 -0.59867,-0.23053 -0.655,-0.548l-1.398,-7.88h-0.876c-0.392,0 -0.759,-0.169 -1.032,-0.477c-0.316,-0.355 -0.464,-0.845 -0.404,-1.342l2.837,-23.939c-0.866,-1.07 -1.339,-2.432 -1.339,-3.871c0.00481,-1.87335 0.80705,-3.65604 2.206,-4.902c-3.08963,-2.54862 -5.4682,-5.85243 -6.905,-9.591c-0.37,0.076 -0.746,0.116 -1.126,0.12l-1.06,0.012h-0.064c-3.256,0 -5.932,-2.649 -5.967,-5.905c-0.03356,-2.28924 1.25305,-4.39351 3.306,-5.407l0.036,-3.39c0.075,-7.093 2.907,-13.733 7.976,-18.696c4.95221,-4.87194 11.62506,-7.59577 18.572,-7.581c4.56574,-0.0035 9.05501,1.17212 13.033,3.413l0.01,-0.906c0.02619,-1.91437 1.58246,-3.45418 3.497,-3.46zM232.444,230.524l-0.793,-5.86l-1.487,-10.98h4.949l0.774,10.981h-0.017l0.436,6.072c-0.16808,0.17777 -0.25119,0.41946 -0.228,0.663l0.074,0.877c-1.026,-1.033 -2.336,-1.685 -3.708,-1.753zM254.397,160.775l0.805,-0.008c0.231,-0.003 0.458,-0.022 0.68,-0.053c-1.06,3.659 -3.344,7.031 -6.625,9.739c-0.03687,-0.04646 -0.07805,-0.08931 -0.123,-0.128c-0.27442,-0.23487 -0.65889,-0.29234 -0.99,-0.148c2.756,-2.804 4.861,-5.983 6.253,-9.402zM245.598,123.467l-0.021,2.06c-4.02394,-2.51128 -8.66293,-3.86325 -13.406,-3.907h-0.001c-0.093,-0.002 -0.186,-0.002 -0.28,-0.002c-6.81,0 -13.232,2.619 -18.106,7.392c-4.941,4.838 -7.703,11.312 -7.776,18.227l-0.04,3.815c-2.34898,0.95582 -3.69222,3.4412 -3.20485,5.92993c0.48736,2.48873 2.66885,4.28387 5.20485,4.28307l0.057,-0.001l1.06,-0.01c0.52616,-0.0056 1.04856,-0.08952 1.55,-0.249c1.46673,4.12351 4.0959,7.73419 7.57,10.396c-1.719,1.12 -2.623,3.042 -2.623,4.892c0,1.389 0.485,2.679 1.369,3.66l-2.872,24.227c-0.067,0.568 0.299,1.076 0.776,1.076h1.434l1.495,8.428h0.957l0.779,10.981l0.446,6.292c-0.06428,0.13832 -0.0915,0.29098 -0.079,0.443l0.602,7.092c0.003,0.041 0.012,0.08 0.02,0.119l0.051,0.724l0.487,-0.049c0.07378,0.02863 0.15189,0.04452 0.231,0.047l0.015,0.002h32.652c0.07169,-0.00116 0.14267,-0.01435 0.21,-0.039c0.269,-0.092 0.453,-0.354 0.47,-0.686c0.002,-0.059 0,-0.12 -0.008,-0.183l-0.255,-1.993c-0.406,-3.162 -2.84,-5.665 -5.552,-5.897l-2.275,-16.853h1.164l-0.72,-8.428h0.544c0.41721,0.00005 0.8145,-0.17839 1.09161,-0.49028c0.27711,-0.31189 0.40754,-0.72742 0.35839,-1.14172l-2.322,-19.582c1.78206,-0.73135 3.504,-1.60135 5.15,-2.602c0.36846,-0.22376 0.54007,-0.66756 0.418,-1.081l-0.077,-0.258c0.81674,-0.52772 1.61047,-1.09024 2.379,-1.686c6.427,-4.985 10.45,-11.818 11.348,-19.256c0.762,-0.49 1.416,-1.216 1.903,-2.215c0.974,-0.201 1.913,-0.528 2.796,-0.968l0.233,-0.119c2.74784,-1.43852 4.79562,-3.92897 5.676,-6.903c0.75568,-2.53084 0.61331,-5.2451 -0.403,-7.683v-0.001c-0.038,-0.09 -0.078,-0.18 -0.118,-0.27c-1.34242,-3.02325 -3.9247,-5.31974 -7.084,-6.3c-0.048,-0.016 -0.095,-0.033 -0.145,-0.048l-0.027,-0.007c-0.187,-0.055 -0.374,-0.105 -0.561,-0.151c-3.01039,-0.72749 -6.18707,-0.20514 -8.806,1.448l-0.128,0.082c-0.082,0.052 -0.165,0.106 -0.246,0.162c-1.03254,0.70464 -1.94317,1.57305 -2.696,2.571c-0.40825,-1.13855 -0.89612,-2.24695 -1.46,-3.317l2.545,0.027h0.03c1.55099,-0.00208 2.8124,-1.25012 2.831,-2.801c0.008,-0.757 -0.279,-1.472 -0.808,-2.012c-0.53,-0.54 -1.238,-0.842 -1.994,-0.85l-4.184,-0.044c-1.1192,-0.01318 -2.01655,-0.92977 -2.006,-2.049l0.045,-4.185c0.008,-0.755 -0.279,-1.47 -0.809,-2.01c-0.529,-0.541 -1.237,-0.842 -1.993,-0.851h-0.03c-1.55176,0.00154 -2.81394,1.25034 -2.832,2.802z" fill="#1a1a1a" stroke="none" stroke-width="1"/></g></g></svg>