<svg xmlns="http://www.w3.org/2000/svg" width="108.201" height="118.178"><g fill-rule="evenodd" stroke-miterlimit="10" data-paper-data="{&quot;isPaintingLayer&quot;:true}" style="mix-blend-mode:normal"><path fill="#c8c9c9" d="M96.218 103.758c6.142-6.07 9.456-6.233 10.672-5.967 3.578 1.985-1.084 8.878-3.092 11.228-2.158 2.528-6.423 4.264-9.898 3.204v-.015c-3.049-1.587-.614-5.143 2.317-8.45"/><path fill="#888889" d="M98.05 99.715s5.131-3.922 8.796-1.954c.014.015.03.015.044.03-1.217-.266-4.53-.103-10.673 5.967-2.932 3.307-5.367 6.864-2.317 8.45v.015a6.327 6.327 0 0 1-2.93-1.852c-2.685-4.775 7.08-10.655 7.08-10.655"/><path fill="#604c3f" d="M58.099 83.108c1.07.529 2.537.868 4.529.706l-.132 1.94s-2.069 1.47-4.514-.368l.116-2.278m1.305-15.241c1.6.69 3.3 1.058 4.81.866 0 0-2.565 1.338-5.015.368l.206-1.234"/><path fill="#c8c9c9" d="M8.984 117.97c-4.032-.985-10.996-13.962-8.43-16.3 5.498-2.203 10.028 8.334 11.36 12.126 1.35 3.806-2.065 4.29-2.065 4.29v.048c-.278-.048-.571-.091-.865-.164"/><path fill="#888889" d="M.554 101.67c2.302-2.086 9.457 1.765 10.879 2.558l-.046.074c1.159.705 4.943 3.687 3.593 11.83 0 0-1.687 2.41-5.131 2v-.046s3.415-.484 2.065-4.29c-1.332-3.791-5.863-14.33-11.36-12.125"/><path fill="#74b9be" d="M11.681 104.374s4.883-4.172 9.163-5.51c0 0 .484 9.42 7.198 9.42 6.73 0 6.701-4.834 5.996-6.981-.615-1.836 0-3.306 1.1-3.792 1.1-.484.85-1.35.85-1.35s20.774-4.278 26.024-5.747c5.248-1.471 17.228 3.423 21.01 3.54 1.92.074 2.52-.808 2.653-1.69.806.19 7.45 1.837 12.376 7.45 0 0-9.767 5.88-7.083 10.657 0 0-13.927 0-18.076-.485-4.164-.5-6.964-.133-10.028 1.103-3.05 1.219-33.721 6.73-47.884 5.144 1.349-8.144-2.435-11.126-3.593-11.832l.045-.073c.16.088.25.146.25.146"/><path fill="#cae2ad" d="M78.756 89.31c7.93 1.103 11.729-3.923 11.23-8.817-.482-4.911-4.882-10.421-14.162-7.967h-6.731s-.965-2.322-4.88-3.792c7.082-.867 6.715-4.174 6.715-4.174 1.187-.073 2.537-.221 3.957-.631 1.686-.088 8.256-.088 13.636 4.672 6.23 5.513 6.964 19.108-2.434 21.813l-.617.13c-3.547.72-8.707.648-11.596-2.454 1.579.579 3.215.988 4.882 1.22"/><path fill="#cae2ad" d="M85.47 90.545c.044.13.322.926.206 1.72-.133.88-.733 1.763-2.655 1.69-3.782-.118-15.76-5.011-21.008-3.542-5.25 1.47-26.025 5.747-26.025 5.747s-.366-2.44-2.198-2.205c-1.833.25-4.648 1.469-3.55-6.614 0 0-7.695-6.245-13.795-3.79-1.233 1.1-1.1-1.221-.616-2.455 3.153-8.688 9.558-11.686 10.967-12.244 8.254 4.264 16.7 2.895 21.42 1.515C50.577 69.674 52 68.969 52 68.969c3.31.104 6.201-.866 7.14-1.22.085.046.173.086.263.119l-.205 1.232c-1.217-.366-2.802 0-2.933 1.59-.118 1.586-.967 2.57-1.334 4.157-.366 1.604-.617 4.41.116 5.277.411.47 1.144 2.029 3.051 2.984l-.117 2.278c2.448 1.838 4.516.368 4.516.368l.13-1.941c.837-.073 1.76-.235 2.8-.513 0 0 3.256 2.967 8.446 4.79 2.887 3.102 8.05 3.175 11.597 2.455"/><path fill="#77594d" stroke="#77594d" stroke-width=".5" d="M23.528 63.707c-.118-4.775.614-9.185.614-9.185s23.327-9.303 24.06 15.8l.015.044c-4.72 1.38-13.166 2.75-21.42-1.513a26.501 26.501 0 0 1-4.516-2.97c.808-.03 1.276-.705 1.248-2.176m51.356.222c-1.422.41-2.771.559-3.957.632 0 0-.236-.734-.852-.971 1.32-.412 2.156-1.44 2.77-2.63.794-1.56 1.043-3.074.88-4.484 4.312-11.757 14.062-11.757 14.062-11.757h.205c-.015 3.82-.791 7.833-3.006 11.155-3.431 5.116-6.978 7.187-10.102 8.055" data-paper-data="{&quot;origPos&quot;:null}"/><path fill="#e95515" d="M73.727 56.476c.162 1.41-.087 2.926-.88 4.484-.614 1.19-1.451 2.219-2.771 2.63.617.236.853.97.853.97s.365 3.307-6.717 4.174c-1.507.192-3.21-.177-4.807-.867l.044-.235s-.106.043-.31.118c-1.876-.838-3.605-2.102-4.691-3.44-2.404-2.97-3.153-7.114-.924-10.391 1.482-2.16 3.797-4.145 6.29-5.027 5.688-2.012 13.224 1.883 13.913 7.584"/><path fill="#fce2ae" d="M56.778 44.514c1.044-1.706 2.259-2.647 3.622-2.794 1.908-.205 3.329 1.25 3.388 1.308.206.226.2.574-.015.793a.554.554 0 0 1-.779-.027c-.014 0-1.1-1.134-2.474-.972-1.014.104-1.953.868-2.802 2.266a.57.57 0 0 1-.53.265c-.073-.017-.16-.032-.234-.09a.535.535 0 0 1-.175-.75"/><path fill="#fefefe" d="M45.036 40.192c0-.94.762-1.72 1.7-1.72a1.72 1.72 0 0 1 1.715 1.72 1.707 1.707 0 1 1-3.415 0m28.706-1.102a1.719 1.719 0 0 1-1.716-1.72 1.717 1.717 0 0 1 3.432 0 1.72 1.72 0 0 1-1.716 1.72"/><path fill="#3f3a3a" d="M45.462 34.8c2.522 0 4.572 2.059 4.572 4.6 0 2.528-2.05 4.586-4.572 4.586a4.595 4.595 0 0 1-.001-9.188m1.276 7.115a1.71 1.71 0 0 0 1.715-1.72c0-.94-.761-1.72-1.715-1.72-.939 0-1.7.78-1.7 1.72 0 .956.761 1.72 1.7 1.72m28.72-4.543a1.715 1.715 0 0 0-3.43 0 1.718 1.718 0 0 0 1.714 1.72 1.72 1.72 0 0 0 1.716-1.72m-2.992 3.807a4.594 4.594 0 0 1 0-9.186c2.522 0 4.575 2.058 4.575 4.587 0 2.54-2.053 4.6-4.575 4.6"/><path fill="#77594d" stroke="#77594d" stroke-width=".5" d="M16.446 83.55c6.1-2.455 13.795 3.79 13.795 3.79-1.098 8.084 1.717 6.864 3.55 6.614 1.83-.235 2.198 2.206 2.198 2.206s.249.867-.85 1.35c-1.1.487-1.716 1.956-1.1 3.794.706 2.145.734 6.98-5.996 6.98-6.713 0-7.198-9.421-7.198-9.421-5.748-5.643-4.4-15.313-4.4-15.313m57.429 4.54c-5.191-1.823-8.446-4.79-8.446-4.79a16.25 16.25 0 0 1-2.8.512c-1.993.164-3.458-.174-4.53-.704-1.906-.955-2.64-2.513-3.05-2.983-.733-.867-.484-3.675-.116-5.277.367-1.587 1.216-2.572 1.334-4.157.13-1.59 1.716-1.958 2.933-1.59 2.447.972 5.013-.368 5.013-.368 3.915 1.47 4.882 3.793 4.882 3.793h6.729c9.28-2.454 13.679 3.056 14.163 7.965.5 4.896-3.298 9.923-11.23 8.82a23.64 23.64 0 0 1-4.882-1.221m2.067-58.671c.615-1.234-.85-2.335-3.547-2.088-2.686.25-3.784 2.69-3.784 2.69-.367 1.353.982.619 2.565-.85 1.584-1.472 4.15 1.468 4.766.248m-3.474 2.572a4.588 4.588 0 0 0-4.59 4.586 4.592 4.592 0 0 0 4.59 4.6c2.52 0 4.575-2.06 4.575-4.601 0-2.528-2.055-4.585-4.575-4.585m1.027-5.762s.982-2.925-.836-6.232c.455.164 7.653 2.91 10.365 6.232 0 0 0 .015.015.03.087.293.836 2.806 2.684 6.834 1.084 2.38 2.285 6.848 2.272 11.627h-.205s-9.75 0-14.062 11.757c-.69-5.702-8.225-9.597-13.912-7.584-2.494.882-4.81 2.865-6.29 5.025-2.23 3.279-1.48 7.423.924 10.393 1.085 1.338 2.814 2.599 4.69 3.439-.938.352-3.827 1.322-7.14 1.22 0 0-1.422.704-3.783 1.396l-.013-.044c-.735-25.104-24.06-15.801-24.06-15.801s-7.331-.984-5.747-9.066c1.584-8.086 7.698-7.717 9.897-5.747 2.198 1.954 3.182 2.204 3.548-1.97.366-4.16 4.765-11.626 10.38-13.463 0 0 2.932 3.057 8.064 4.527 0 0-1.1-4.41 0-6.864 0 0 9.896 1.234 12.462 4.909 0 0 2.198-3.438-1.218-7.114 0 0 10.133 3.308 11.964 6.496M40.872 39.398a4.59 4.59 0 0 0 4.59 4.586c2.521 0 4.572-2.058 4.572-4.586 0-2.541-2.05-4.6-4.572-4.6a4.595 4.595 0 0 0-4.59 4.6m-.074-7.026c.69 1.179 3.035-1.938 4.736-.586 1.688 1.352 3.079 1.983 2.61.662 0 0-1.275-2.368-3.973-2.412-2.697-.044-4.075 1.162-3.373 2.336" data-paper-data="{&quot;origPos&quot;:null}"/><path fill="#353333" d="M44.17 30.036c2.698.044 3.973 2.412 3.973 2.412.47 1.32-.922.69-2.61-.662-1.701-1.352-4.045 1.765-4.735.585-.704-1.174.676-2.378 3.372-2.335m31.771-.617c-.616 1.22-3.182-1.721-4.766-.248-1.583 1.469-2.932 2.203-2.565.85 0 0 1.098-2.44 3.784-2.69 2.697-.247 4.162.854 3.547 2.088" data-paper-data="{&quot;origPos&quot;:null}"/><path fill="#444141" d="M72.655 19.998c1.818 3.306.838 6.232.838 6.232-1.833-3.188-11.966-6.496-11.966-6.496 3.417 3.676 1.22 7.113 1.22 7.113-2.567-3.674-12.464-4.91-12.464-4.91-1.1 2.456 0 6.866 0 6.866-5.13-1.472-8.062-4.527-8.062-4.527-5.617 1.837-10.015 9.303-10.38 13.46-.368 4.176-1.35 3.925-3.55 1.97-2.198-1.97-8.31-2.336-9.896 5.748-1.583 8.084 5.747 9.068 5.747 9.068s-.733 4.409-.615 9.185c.028 1.47-.44 2.146-1.247 2.176-1.773.075-5.16-3.042-8.034-7.437-10.029-17.033-.25-36.742-.25-36.742-2.198-.252-3.915 1.837-3.915 1.837C11.914 12.268 22.544 9.328 22.544 9.328 26.577-.96 38.437.026 38.437.026c-2.565.233-4.033 4.276-4.033 4.276 6.232-4.043 20.028-5.38 27.725-2.94 27.622 8.702 23.458 26.089 22.725 26.337-.675.237-1.655-1.22-1.818-1.44-.015-.015-.015-.03-.015-.03-2.713-3.321-9.91-6.067-10.366-6.231" data-paper-data="{&quot;origPos&quot;:null}"/><path fill="#6b483a" d="M73.494 26.229S67.856 23.45 63.33 23.05c-.203-1.015-.72-2.155-1.802-3.318 0 0 10.132 3.308 11.965 6.496m-.06-4.273a8.687 8.687 0 0 0-.777-1.958c.353.126 4.762 1.813 7.99 4.114-1.95-.75-4.66-1.677-7.214-2.155m-10.687 4.889s-8.428-3.132-12.943-2.378c.027-.903.154-1.802.48-2.53 0 0 9.897 1.234 12.463 4.909" data-paper-data="{&quot;origPos&quot;:null}"/><path fill="#353333" d="M60.519 42.822c-1.012.104-1.95.868-2.8 2.264a.572.572 0 0 1-.53.266c-.073-.016-.16-.03-.233-.09a.536.536 0 0 1-.178-.75c1.043-1.704 2.26-2.645 3.623-2.792 1.906-.205 3.328 1.25 3.387 1.308.205.226.199.573-.014.793a.555.555 0 0 1-.78-.027c-.014 0-1.098-1.134-2.475-.972M13.998 21.703c-2.2-.25-3.915 1.838-3.915 1.838C11.916 12.269 22.545 9.326 22.545 9.326c-10.511 24.5 5.38 18.128 12.954 12.984 7.577-5.144 18.573-3.428 22.727-1.47 4.154 1.96 2.93-1.958 2.93-1.958.326.36.622.694.937 1.044l-.564-.193c3.416 3.676 1.218 7.114 1.218 7.114-2.566-3.675-12.462-4.91-12.462-4.91-1.1 2.455 0 6.866 0 6.866-5.131-1.471-8.064-4.528-8.064-4.528-5.615 1.837-10.014 9.303-10.38 13.463-.366 4.174-1.35 3.924-3.548 1.97-2.2-1.97-8.313-2.338-9.897 5.746-1.584 8.083 5.746 9.068 5.746 9.068s-.733 4.409-.613 9.185c.027 1.472-.442 2.147-1.247 2.176-1.775.074-5.16-3.042-8.035-7.437-10.028-17.034-.25-36.743-.25-36.743" data-paper-data="{&quot;origPos&quot;:null}"/><path fill="#5e5a5a" d="M33.79 8.838c19.46-.18 26.913-4.672 29.52-7.078 7.085 2.375 11.988 5.332 15.327 8.395C54.794 19.828 33.79 8.838 33.79 8.838" data-paper-data="{&quot;origPos&quot;:null}"/><path fill="#d14b11" d="M53.524 53.919c1.482-2.16 3.798-4.145 6.29-5.027-6.964 7.965-3.116 12.978 4.765 15.183 2.42.678 4.337.413 5.833-.27.362.309.515.755.515.755s.367 3.308-6.715 4.174c-1.508.19-3.21-.177-4.808-.866l.044-.237s-.104.044-.307.119c-1.877-.84-3.608-2.102-4.693-3.44-2.404-2.97-3.153-7.114-.924-10.391"/><path fill="#d14b11" d="M68.61 49.93s5.497 7.532 1.65 11.205c-2.905 2.775-6.32 1.203-8.796-1.288-.61-.61-.861-2.433.312-2.39.886.03 1.83 2.74 2.693 3.25 2.608 1.545 5.785-.671 6.352-3.355.506-2.394-.902-5.454-2.21-7.422"/><path fill="#fefefe" d="M69.16 54.155c1.466 4.593-1.1 5.143-2.382 5.143-1.284 0-1.1-1.654-.917-3.857.184-2.204-2.015-2.94-3.48-3.124-1.467-.183-1.283-1.47.365-1.837 4.582-.183 6.414 3.675 6.414 3.675"/><path fill="#b84109" d="M53.524 53.919c.35-.51.752-1.01 1.186-1.49-.007.025-.018.047-.028.072-1.156 3.6-1.44 7.494.926 10.63 1.78 2.363 4.8 3.84 7.71 4.088 1.365.117 2.62-.013 3.858-.63 1.172-.58 1.994-2.242 3.02-2.696.072-.03.147-.056.216-.087.362.308.515.754.515.754s.367 3.308-6.715 4.174c-1.508.19-3.21-.177-4.808-.866l.044-.237s-.104.044-.307.119c-1.877-.84-3.608-2.102-4.693-3.44-2.404-2.97-3.153-7.114-.924-10.391"/><path fill="#6b483a" d="M58.165 69.036c-.334 0-.703.1-1.088.27.527-.328 1.226-.396 1.87-.26-.261-.007-.522-.01-.783-.01m24.008 6.43c-6.966.55-15.028-1.103-16.678-3.675-.86-1.341-2.22-2.025-3.634-2.38 1.348-.155 2.35-.677 2.35-.677 3.916 1.47 4.883 3.792 4.883 3.792h6.73c8.393-2.22 12.78 2.075 13.903 6.55-1.31-1.87-3.658-3.92-7.554-3.61M16.446 83.55c2.978-1.2 6.332-.321 8.99.888-3.236.09-6.673 1.032-5.758 4.807 1.652 6.796 1.1 11.94 4.583 14.145 3.273 2.073 8 2.032 9.776-2.1l.003.013c.705 2.146.733 6.98-5.997 6.98-6.713 0-7.198-9.42-7.198-9.42-5.748-5.643-4.4-15.313-4.4-15.313" data-paper-data="{&quot;origPos&quot;:null}"/><path fill="#b2c799" d="M56.267 70.689c-.1 1.358-.724 2.295-1.134 3.526-3.355-.164-9.051-.403-13.645-.403-4.953 0-14.45-4.918-20.51-.95 2.547-2.552 5.01-3.69 5.82-4.01 8.253 4.263 16.697 2.895 21.418 1.515 2.36-.693 3.783-1.398 3.783-1.398 3.313.103 6.202-.866 7.14-1.218.088.044.177.086.264.117l-.205 1.234c-1.215-.368-2.8 0-2.931 1.587M15.83 82.997c-.037.27-.073.505-.108.757-.398-.327-.241-1.767.108-2.66.294-.81.623-1.552.967-2.264a23.92 23.92 0 0 0-.967 4.167m16.494.185c.916-3.86 3.666-5.328 4.214-1.104.55 4.228 6.6 10.29 15.578 9.37 7-.715 3.2-3.106 3.876-10.043a6.38 6.38 0 0 0 2.108 1.703l-.118 2.278c2.447 1.837 4.514.368 4.514.368l.13-1.94c.839-.074 1.76-.236 2.803-.515 0 0 3.255 2.968 8.446 4.79 2.887 3.103 8.048 3.176 11.595 2.456.046.13.324.925.206 1.72-.133.882-.733 1.763-2.653 1.69-3.782-.12-15.761-5.011-21.01-3.542-5.25 1.47-26.023 5.747-26.023 5.747s-.368-2.44-2.2-2.205c-1.752.238-4.395 1.344-3.66-5.632.614-.902 1.596-2.622 2.194-5.14M84.92 66.28c-7.934-3.125-14.756 1.864-17.45 4.294-.743-.621-1.793-1.29-3.26-1.84 7.083-.867 6.718-4.175 6.718-4.175 1.185-.071 2.534-.22 3.956-.63 1.429-.075 6.356-.075 11.099 2.813-.35-.166-.704-.32-1.063-.462"/><path fill="#68a7ac" d="m11.388 104.302.044-.073c.16.087.25.146.25.146s4.88-4.173 9.163-5.512c0 0 .485 9.42 7.198 9.42 6.73 0 6.7-4.833 5.997-6.98-.617-1.835 0-3.306 1.1-3.791 1.098-.485.849-1.353.849-1.353s20.775-4.276 26.025-5.745c2.483-.697 6.474.036 10.39 1.012-2.208.245-4.284.85-4.893 2.228-1.466 3.306 8.43 2.938 11.73 6.428 2.864 3.034 14.144-1.962 18.51-.686.098.109.202.21.3.32 0 0-9.765 5.88-7.081 10.655 0 0-13.928 0-18.078-.485-4.165-.5-6.964-.133-10.03 1.103-3.047 1.22-33.72 6.73-47.881 5.144 1.349-8.144-2.435-11.126-3.593-11.831"/><path fill="#609ba0" d="m11.388 104.302.044-.073c.16.087.25.146.25.146s4.88-4.173 9.163-5.512c0 0 .485 9.42 7.198 9.42 6.73 0 6.7-4.833 5.997-6.98-.617-1.835 0-3.306 1.1-3.791 1.098-.485.849-1.353.849-1.353s7.645-1.574 14.83-3.14c-2.096 1.027-4.026 2.239-5.116 3.573-3.298 4.04-8.981 1.838-8.981 6.064s-2.383 8.267-8.43 8.635c-6.046.366-9.53 4.224-3.848 4.04 5.68-.184 38.853-10.287 46.915-8.083 7.384 2.019 20.735-7.028 26.316-7.866.024.006.053.008.076.014.098.109.202.21.3.32 0 0-9.765 5.88-7.081 10.655 0 0-13.928 0-18.078-.485-4.165-.5-6.964-.133-10.03 1.103-3.047 1.22-33.72 6.73-47.881 5.144 1.349-8.144-2.435-11.126-3.593-11.831"/></g></svg>