<svg xmlns="http://www.w3.org/2000/svg" width="55.56" height="116.578"><g fill-rule="evenodd" stroke-miterlimit="10" data-paper-data="{&quot;isPaintingLayer&quot;:true}" style="mix-blend-mode:normal"><path fill="#e53935" d="M55.56 100.606s-12.735 4.939-28.462 4.939C12.299 105.545 0 100.606 0 100.606c0-31.404 12.438-56.862 27.78-56.862 15.343 0 27.78 25.458 27.78 56.862"/><path fill="#c09a69" d="M18.514 91.277h6.63l-1.386 18.42c-.128 1.698-4.529 5.71-4.529 5.71-2.648-1.586-.49-6.586-.49-6.586l-.225-17.545z" data-paper-data="{&quot;origPos&quot;:null}"/><path fill="#757575" d="M24.516 111.565c.301.307.468.643.468.993 0 2.426-1.903 3.26-5.426 3.86-3.138.534-5.61-.335-5.61-1.594 0-1.058 1.858-3.214 4.301-4.492v-6.99h6.266v8.224"/><path fill="#bdbdbd" d="M18.15 114.251c-.876.492-1.855.415-2.184-.17-.33-.587.112-1.461.989-1.953.876-.492 1.855-.416 2.185.17.33.587-.113 1.46-.99 1.953"/><path fill="#c09a69" d="m36.867 91.276-.225 17.545s2.158 5-.49 6.586c0 0-4.401-4.012-4.529-5.71l-1.386-18.42h6.63z" data-paper-data="{&quot;origPos&quot;:null}"/><path fill="#757575" d="M30.7 111.566v-8.224h6.268v6.99c2.443 1.278 4.301 3.434 4.301 4.492 0 1.259-2.472 2.128-5.61 1.594-3.524-.6-5.426-1.434-5.426-3.86 0-.35.166-.686.467-.993"/><path fill="#bdbdbd" d="M37.066 114.251c-.877-.493-1.32-1.366-.99-1.953.33-.586 1.308-.662 2.184-.17.877.492 1.32 1.366.99 1.953-.33.585-1.308.662-2.184.17"/><path fill="#c09a69" d="M39.729 45.6c7.849 9.242 5.991 26.759 5.911 29.379-.095 3.092-3.51 6.239-3.51 6.239-.809-1.503-.716-3.501-.457-5.03-.501.349-.934.485-1.131.31-.32-.286.107-1.286.954-2.233.328-.365.669-.667.984-.887-.345-9.526-2.725-15.626-4.083-19.946L37.1 70.449s-7.309 1.68-9.41 1.68c-2.1 0-9.41-1.68-9.41-1.68l-1.296-17.017c-1.358 4.32-3.738 10.419-4.083 19.946.36.257.69.555.983.887.848.947 1.275 1.947.955 2.232-.197.176-.631.04-1.131-.31.259 1.53.352 3.528-.456 5.03 0 0-3.417-3.146-3.51-6.238-.08-2.619-1.94-20.137 5.91-29.378l8.594-1.71v-5.827h6.889v5.826l8.594 1.71" data-paper-data="{&quot;origPos&quot;:null}"/><path fill="#0288d1" d="M39.728 45.6c6.457 7.602 7.208 20.802 6.92 26.705h-5.231c-.476-8.914-1.714-14.717-3.02-18.873L37.1 70.449s-4.56 1.68-9.41 1.68c-4.357 0-9.41-1.68-9.41-1.68l-1.296-17.017c-1.306 4.156-2.544 9.959-3.02 18.873H8.919c-.287-5.903.277-19.103 6.733-26.705l5.952-1.183c1.612 1.582 3.746 2.547 6.086 2.547 2.341 0 4.475-.965 6.087-2.547l5.952 1.183"/><path fill="#0288d1" d="M39.728 45.6c6.457 7.602 7.208 20.802 6.92 26.705h-5.231c-.476-8.914-1.714-14.717-3.02-18.873L37.1 70.449s-4.56 1.68-9.41 1.68c-4.357 0-9.41-1.68-9.41-1.68l-1.296-17.017c-1.306 4.156-2.544 9.959-3.02 18.873H8.919c-.287-5.903.277-19.103 6.733-26.705l5.952-1.183c1.612 1.582 3.746 2.547 6.086 2.547 2.341 0 4.475-.965 6.087-2.547l5.952 1.183"/><path fill="#fdd835" d="M27.684 69.854c4.211 0 8.216-1.181 9.586-1.63l-.17 2.225s-4.56 1.68-9.41 1.68c-4.357 0-9.41-1.679-9.41-1.679l-.17-2.236c1.454.44 5.761 1.64 9.574 1.64m-14.747-22.15c1.658-2.535 4.561-3.783 5.873-3.083 1.313.701.699 2.808-.731 5.478-1.429 2.672-1.024 6.287-2.337 5.587-1.313-.701-5.152-4.393-2.805-7.982m29.507 0c-1.658-2.535-4.561-3.783-5.873-3.083-1.314.701-.7 2.808.73 5.478 1.43 2.672 1.025 6.287 2.338 5.587 1.313-.701 5.151-4.393 2.805-7.982"/><path fill="#689f38" d="M37.135 70.45s4.926 11.22 2.218 23.2c0 0-7.947 1.18-10.227 0 0 0-.969-3.568-1.418-9.096-.45 5.528-1.418 9.095-1.418 9.095-2.281 1.182-10.227 0-10.227 0-2.708-11.979 2.218-23.2 2.218-23.2s5.052 1.35 9.5 1.35c4.253 0 9.354-1.35 9.354-1.35"/><path fill="#c09a69" d="M46.152 25.783c0 8.805-8.266 15.63-18.462 15.63S9.229 34.588 9.229 25.783c0-8.806 8.265-17.51 18.461-17.51 10.196 0 18.462 8.704 18.462 17.51" data-paper-data="{&quot;origPos&quot;:null}"/><path fill="#5d4037" d="M19.294 28.166a1.552 1.552 0 1 0-3.103.077 1.552 1.552 0 0 0 3.103-.077m16.793 0a1.552 1.552 0 1 1 3.104-.004 1.552 1.552 0 0 1-3.104.004"/><path fill="none" stroke="#ef5350" stroke-linecap="round" stroke-linejoin="round" stroke-width="1.016" d="M31.135 35.69c-.689 1.622-1.972 2.715-3.445 2.715-1.472 0-2.755-1.093-3.444-2.715"/><path fill="#ffccbc" d="M14.969 32.102a4.95 4.95 0 0 1 4.953 4.946c0 .967-.283 1.866-.763 2.628-3.197-1.391-5.843-3.548-7.597-6.211a4.93 4.93 0 0 1 3.407-1.363m28.85 1.362c-1.755 2.663-4.401 4.821-7.597 6.213a4.912 4.912 0 0 1-.763-2.63 4.95 4.95 0 0 1 8.36-3.583"/><path fill="#523914" d="M46.152 25.783c0 1.315-.432-3.252-3.812-4.855-2.144-1.018-2.996 3.065-2.996 3.065s-1.665-3.743-3.257-5.596c-2.285-2.659-4.27-3.253-4.27-3.253s-4.528 7.977-11.895 5.7c-7.87-2.434-10.693 8.405-10.693 4.939 0-8.806 5.459-19.197 18.461-19.197 13.017 0 18.462 10.391 18.462 19.197" data-paper-data="{&quot;origPos&quot;:null}"/><path fill="#fdd835" d="m38.529 13.06-8.84-2.682L29.013.064l3.744 5.022L37.673 0l.817 6.826 6.345-1.962zm-6.121 38.233a1.182 1.182 0 1 1-2.364-.002 1.182 1.182 0 0 1 2.364.002m0 4.481a1.182 1.182 0 1 1-2.365-.002 1.182 1.182 0 0 1 2.365.002m0 4.482a1.182 1.182 0 1 1-2.364-.002 1.182 1.182 0 0 1 2.364.002m0 4.481a1.182 1.182 0 1 1-2.364-.001 1.182 1.182 0 0 1 2.364.001m-6.889-13.444a1.182 1.182 0 1 1-2.363.067 1.182 1.182 0 0 1 2.363-.067m0 4.481a1.182 1.182 0 1 1-2.364-.002 1.182 1.182 0 0 1 2.364.002m0 4.482a1.182 1.182 0 1 1-2.363.067 1.182 1.182 0 0 1 2.363-.067m0 4.481a1.182 1.182 0 1 1-2.363.068 1.182 1.182 0 0 1 2.363-.068"/></g></svg>