<svg version="1.1" xmlns="http://www.w3.org/2000/svg" xmlns:xlink="http://www.w3.org/1999/xlink" width="59.64679" height="117.65951" viewBox="0,0,59.64679,117.65951"><g transform="translate(-210.817,-121.297)"><g data-paper-data="{&quot;isPaintingLayer&quot;:true}" fill-rule="evenodd" stroke="none" stroke-width="1" stroke-linecap="butt" stroke-linejoin="miter" stroke-miterlimit="10" stroke-dasharray="" stroke-dashoffset="0" style="mix-blend-mode: normal"><path d="M268.562,162.09c1.867,0.792 2.461,3.62 1.325,6.314c-0.731,1.73 -1.997,2.982 -3.301,3.45c0,0 -3.488,9.925 -6.518,11.029c-2.457,0.896 -11.112,-2.636 -11.112,-2.636c0,0 -0.701,-2.701 -1.064,-3.555c-0.496,-1.167 -2.51,-4.374 -2.51,-4.374l11.848,4.256l5.586,-6.58c-0.092,-0.264 -0.163,-0.552 -0.21,-0.849c-0.357,-0.654 -0.653,-1.478 -0.831,-2.39c-0.46,-2.39 0.054,-4.499 1.153,-4.716c0.592,-0.114 1.226,0.341 1.762,1.149c1.186,-1.143 2.65,-1.621 3.872,-1.098" data-paper-data="{&quot;origPos&quot;:null}" fill="#996d3d"/><path d="M235.451,232.884c0.067,0.265 -0.019,0.605 -0.2,0.878c-0.577,0.894 -1.58,1.61 -2.44,2.215c-1.323,0.91 -2.994,1.384 -4.46,2.08c-1.323,0.56 -3.068,1.572 -4.255,0.247c-1.566,-1.89 -0.237,-4.284 1.596,-5.42zM236.784,232.884c-0.063,0.265 0.019,0.605 0.197,0.878c0.578,0.894 1.584,1.61 2.439,2.215c1.327,0.91 2.998,1.384 4.462,2.08c1.323,0.56 3.068,1.572 4.255,0.247c1.564,-1.89 0.236,-4.284 -1.594,-5.42z" fill="#333433"/><path d="M248.74,206.218l-1.995,26.736h-10.095l-0.388,-19.335h-0.292l-0.384,19.335h-10.099l-1.993,-26.736z" fill="#565657"/><path d="M218.259,178.082c1.819,-2.323 8.356,-5.763 8.356,-5.763c0,0 -3.038,5.554 -3.593,8.018c-0.069,0.313 -0.245,1.152 -0.401,1.59c-0.201,0.546 -0.758,1.237 -1.621,2.466c-1.727,2.452 -3.35,12.825 -3.35,12.825c0.04058,0.0703 0.07992,0.14131 0.118,0.213c0.437,0.429 0.864,1.009 1.224,1.683c0.932,1.774 1.034,3.563 0.212,4.002c-0.436,0.231 -1.047,0.029 -1.662,-0.485c-0.662,1.188 -1.704,1.92 -2.79,1.804c-1.669,-0.177 -2.816,-2.27 -2.562,-4.67c0.105,-1.009 0.448,-1.915 0.929,-2.608c-0.009,0.043 -0.009,0.063 -0.009,0.063c0,0 1.425,-14.364 5.148,-19.138" data-paper-data="{&quot;origPos&quot;:null}" fill="#996d3d"/><path d="M255.717,175.709c0.844,2.805 -1.397,6.689 -1.397,6.689l-5.065,-2.02c2.646,10.319 2.955,25.845 2.955,25.845h-32.318c0,0 0.258,-12.884 2.302,-22.996l-0.46,0.679c0,0 -4.709,-0.002 -5.549,-3.327c0,0 2.395,-5.16 10.59,-8.33v-0.008c2.113,-1.298 7.42,-1.513 7.42,-1.513l1.785,0.023h0.15l1.78,-0.059c0,0 4.685,0.268 6.999,1.384c8.354,2.495 10.807,3.633 10.807,3.633" fill="#dcd8d6"/><path d="M246.563,187.057c0,0.14 -0.113,0.253 -0.252,0.253h-0.046c-0.06674,-0.00026 -0.13063,-0.0271 -0.17755,-0.07458c-0.04691,-0.04748 -0.07299,-0.11168 -0.07245,-0.17842v-5.447c0,-0.14 0.112,-0.257 0.25,-0.257h0.046c0.139,0 0.252,0.116 0.252,0.257z" fill="#b2b2b2"/><path d="M246.291,178.697c0.172,0 0.273,0.141 0.273,0.32v2.434c0,0.175 -0.101,0.272 -0.273,0.272h-0.032c-0.178,0 -0.244,-0.097 -0.244,-0.272v-2.023h-0.182v1.675c0,0.036 0.01,0.068 -0.023,0.068c-0.036,0 -0.16,-0.032 -0.16,-0.068v-2.138c0,-0.04 0.124,-0.085 0.16,-0.085c0.033,0 0.022,0.045 0.022,0.085v0.101h0.11c0.029,-0.186 0.155,-0.369 0.317,-0.369h0.031" fill="#0771b7"/><path d="M241.617,182.169h5.937v8.157h-5.937z" fill="#c6c2c1"/><path d="M219.899,206.223c0,0 -0.021,-1.182 0.002,-3.106h32.323c0.013,1.924 -0.01,3.108 -0.01,3.108l-32.315,-0.002" fill="#333433"/><path d="M238.994,206.641c-1.002,1.01 -4.56,0.896 -5.658,0c-0.74,-0.596 -0.676,-3.14 0,-3.812c1,-1.007 4.765,-1.104 5.658,0c0.594,0.74 0.67,3.138 0,3.812" fill="#f7b90b"/><path d="M237.985,205.958c-0.645,0.655 -2.949,0.577 -3.663,0c-0.485,-0.388 -0.436,-2.038 0,-2.476c0.645,-0.647 3.087,-0.714 3.663,0c0.39,0.483 0.439,2.042 0,2.476" fill="#333433"/><path d="M238.81,204.751c-0.00218,0.09161 -0.07737,0.16457 -0.169,0.164h-1.13c-0.09018,-0.00055 -0.163,-0.07381 -0.163,-0.164c-0.0011,-0.04365 0.01569,-0.08585 0.04647,-0.11682c0.03078,-0.03097 0.07288,-0.04801 0.11653,-0.04718h1.13c0.093,0 0.168,0.071 0.168,0.164" fill="#d69d0b"/><path d="M236.041,175.26847l-3.873,-4.161c1.153,-0.122 2,-0.154 2,-0.154l1.786,0.065h0.15l1.782,-0.097c0.72527,0.04079 1.449,0.10549 2.17,0.194l-4.016,4.153zM258.917,150.04147c1.187,0.767 1.972,2.069 1.972,3.555c0,2.36 -1.982,4.271 -4.427,4.271c-0.069,0 -0.142,-0.002 -0.212,-0.008c-3.958,7.128 -11.544,11.947 -20.254,11.947c-8.715,0 -16.309,-4.829 -20.265,-11.964c-0.164,0.015 -0.326,0.025 -0.494,0.025c-2.44,0 -4.42,-1.911 -4.42,-4.271c0,-1.595 0.899,-2.982 2.234,-3.719c-0.153,-1.084 -0.235,-2.202 -0.235,-3.334c0,-12.845 10.374,-23.258 23.18,-23.258c12.806,0 23.181,10.413 23.181,23.258c0,1.188 -0.09,2.358 -0.26,3.498" data-paper-data="{&quot;origPos&quot;:null}" fill="#996d3d"/><path d="M229.229,147.096c-0.772,-0.174 -0.908,-1.201 -3.386,-0.74c-0.779,0.18 -2.417,1.156 -2.732,1.808c-0.316,0.652 -0.088,-2.392 2.457,-3.522c1.835,-0.675 2.457,-0.642 3.977,-0.642c1.52,0 1.987,0.907 1.766,1.65c0,0 -0.503,1.803 -2.082,1.446zM243.134,147.096c0.772,-0.174 0.908,-1.201 3.386,-0.74c0.779,0.18 2.417,1.156 2.732,1.808c0.316,0.652 0.087,-2.392 -2.457,-3.522c-1.835,-0.675 -2.457,-0.642 -3.977,-0.642c-1.52,0 -1.987,0.907 -1.766,1.65c0,0 0.503,1.803 2.082,1.446z" data-paper-data="{&quot;origPos&quot;:null}" fill="#492c0e"/><path d="M229,153c0,1.657 -0.895,3 -2,3c-1.105,0 -2,-1.343 -2,-3c0,-1.657 0.895,-3 2,-3c1.105,0 2,1.343 2,3M247,153c0,1.657 -0.895,3 -2,3c-1.105,0 -2,-1.343 -2,-3c0,-1.657 0.895,-3 2,-3c1.105,0 2,1.343 2,3" fill="#343434"/><path d="M236.02,156.069c-1.125,0.153 -3.02,1.834 -3.02,1.834c0,0 0.207,-1.009 0.503,-1.299c0.8,-1.156 2.487,-1.604 2.487,-1.604c0,0 2.173,0.703 2.65,1.588c0.443,0.824 0.34,1.238 0.34,1.238c0,0 -2.121,-1.871 -2.96,-1.756z" fill="#eeac6c"/><path d="M229.2,159.696c0,0 6.897,3.208 13.172,-0.397c0,0 -1.39,5.47 -5.95,5.561c-4.115,0.122 -4.984,-1.492 -5.477,-1.956c-0.492,-0.463 -1.42,-1.772 -1.745,-3.208" fill="#eeac6c"/><path d="M260.097,143.251c0.036,2.731 -0.917,8.644 -2.774,12.167c0,0 -4.557,-12.947 -8.311,-14.997c-4.593,-2.507 -16.691,1.109 -20.795,-2.141c-0.676,-0.543 -0.607,-1.761 -0.607,-1.761c0,0 -0.783,1.559 -1.163,1.991c-1.984,2.267 -7.138,5.552 -9.586,7.32c-1.966,1.416 -2.058,1.399 -1.624,9.588c0,0 -3.614,-7.452 -3.416,-12.422c0.058,-1.431 0.751,-4.612 1.877,-7.841c4.078,-8.213 12.535,-13.858 22.302,-13.858c11.218,0 20.708,7.448 23.818,17.681c0.161,1.41909 0.25444,2.84503 0.28,4.273" data-paper-data="{&quot;origPos&quot;:null}" fill="#492c0e"/><path d="M234.189,172.211c-1.082,0 -1.959,-2.333 -1.959,-3.399h7.707c0,1.066 -0.878,3.398 -1.958,3.398h-3.79" data-paper-data="{&quot;origPos&quot;:null}" fill="#996d3d"/><path d="M233.129,171.469c-0.435,-0.664 -0.811,-1.568 -0.882,-2.229c2.54143,0.41807 5.13491,0.40793 7.673,-0.03l-0.011,0.013l-6.78,2.246" fill="#eeac6c"/><path d="M250.785,173.544l-7.562,-2.75c-0.708,-0.253 -1.479,-0.198 -1.64,0.242v0.007c-0.158,0.44 0.359,1.093 1.06,1.35l7.567,2.746zM221.838,173.544l7.566,-2.75c0.702,-0.253 1.477,-0.198 1.634,0.242l0.002,0.007c0.158,0.44 -0.357,1.093 -1.065,1.35l-7.564,2.746zM238.848,195.14c0.028,1.636 -2.734,2.738 -2.734,2.738c0,0 -2.74,-1.132 -2.734,-2.733c0.006,-1.524 1.48,-16.898 1.48,-16.898c-0.518,-0.349 -0.953,-2.307 -0.953,-2.307l1.138,-0.906l1.953,-0.063l1.227,1.018c0,0 -0.523,1.867 -0.996,2.258c0,0 1.599,15.359 1.619,16.893" fill="#0b4768"/><path d="M236.098,175c0,0 -2.146,0.899 -1.923,1.813c0.222,0.915 -4.131,-5.343 -4.003,-5.687c0.132,-0.34 1.443,-1.517 1.443,-1.517l4.483,5.39z" fill="#dcd8d6"/><path d="M231.615,169.655c-0.185,0.173 -1.29,1.178 -1.409,1.483c-0.034,0.089 0.376,0.835 1.352,2.289c1.18,1.76 2.394,3.375 2.594,3.437c0,-0.005 -0.004,-0.02 -0.006,-0.047c-0.215,-0.87 1.59,-1.694 1.894,-1.833zM234.162,176.937c-0.283,0 -2.26,-2.884 -2.341,-3.007c-0.418,-0.606 -1.76,-2.598 -1.678,-2.813c0.13,-0.347 1.394,-1.483 1.447,-1.534l0.03,-0.02l4.531,5.45l-0.042,0.015c-0.023,0.01 -2.115,0.9 -1.902,1.774c0.012,0.057 0.012,0.093 -0.005,0.112c-0.006,0.015 -0.023,0.023 -0.04,0.023z" fill="#565657"/><path d="M236.018,174.999l4.484,-5.39c0,0 1.31,1.177 1.44,1.517c0.133,0.344 -4.225,6.602 -4.002,5.687c0.222,-0.914 -1.922,-1.813 -1.922,-1.813z" fill="#dcd8d6"/><path d="M236.074,174.985c0.306,0.137 2.11,0.963 1.898,1.833c-0.008,0.027 -0.008,0.042 -0.008,0.046c0.197,-0.063 1.41,-1.673 2.589,-3.43c0.983,-1.458 1.39,-2.206 1.354,-2.295c-0.11,-0.308 -1.22,-1.313 -1.4,-1.483zM237.955,176.935c-0.01627,-0.00013 -0.03165,-0.00745 -0.042,-0.02c-0.017,-0.021 -0.019,-0.055 -0.006,-0.114c0.218,-0.872 -1.88,-1.764 -1.898,-1.772l-0.045,-0.015l4.536,-5.453l0.024,0.023c0.054,0.048 1.316,1.186 1.449,1.534c0.086,0.215 -1.267,2.217 -1.683,2.824c-0.081,0.124 -2.053,2.994 -2.335,2.994z" fill="#565657"/></g></g></svg>