<svg xmlns="http://www.w3.org/2000/svg" width="59.647" height="117.66"><g fill-rule="evenodd" stroke-miterlimit="10" data-paper-data="{&quot;isPaintingLayer&quot;:true}" style="mix-blend-mode:normal"><path fill="#996d3d" d="M57.745 40.793c1.867.792 2.461 3.62 1.325 6.314-.731 1.73-1.997 2.982-3.301 3.45 0 0-3.488 9.925-6.518 11.029-2.457.896-11.112-2.636-11.112-2.636s-.701-2.701-1.064-3.555c-.496-1.167-2.51-4.374-2.51-4.374l11.848 4.256 5.586-6.58a4.949 4.949 0 0 1-.21-.849c-.357-.654-.653-1.478-.831-2.39-.46-2.39.054-4.499 1.153-4.716.592-.114 1.226.341 1.762 1.149 1.186-1.143 2.65-1.621 3.872-1.098" data-paper-data="{&quot;origPos&quot;:null}"/><path fill="#333433" d="M24.634 111.587c.067.265-.019.605-.2.878-.577.894-1.58 1.61-2.44 2.215-1.323.91-2.994 1.384-4.46 2.08-1.323.56-3.068 1.572-4.255.247-1.566-1.89-.237-4.284 1.596-5.42zm1.333 0c-.063.265.019.605.197.878.578.894 1.584 1.61 2.439 2.215 1.327.91 2.998 1.384 4.462 2.08 1.323.56 3.068 1.572 4.255.247 1.564-1.89.236-4.284-1.594-5.42z"/><path fill="#565657" d="m37.923 84.921-1.995 26.736H25.833l-.388-19.335h-.292l-.384 19.335H14.67l-1.993-26.736z"/><path fill="#996d3d" d="M7.442 56.785c1.819-2.323 8.356-5.763 8.356-5.763s-3.038 5.554-3.593 8.018c-.069.313-.245 1.152-.401 1.59-.201.546-.758 1.237-1.621 2.466-1.727 2.452-3.35 12.825-3.35 12.825.04.07.08.141.118.213.437.429.864 1.009 1.224 1.683.932 1.774 1.034 3.563.212 4.002-.436.231-1.047.029-1.662-.485-.662 1.188-1.704 1.92-2.79 1.804-1.669-.177-2.816-2.27-2.562-4.67.105-1.009.448-1.915.929-2.608-.009.043-.009.063-.009.063s1.425-14.364 5.148-19.138" data-paper-data="{&quot;origPos&quot;:null}"/><path fill="#dcd8d6" d="M44.9 54.412c.844 2.805-1.397 6.689-1.397 6.689l-5.065-2.02c2.646 10.319 2.955 25.845 2.955 25.845H9.075s.258-12.884 2.302-22.996l-.46.679s-4.709-.002-5.549-3.327c0 0 2.395-5.16 10.59-8.33v-.008c2.113-1.298 7.42-1.513 7.42-1.513l1.785.023h.15l1.78-.059s4.685.268 6.999 1.384c8.354 2.495 10.807 3.633 10.807 3.633"/><path fill="#b2b2b2" d="M35.746 65.76c0 .14-.113.253-.252.253h-.046a.251.251 0 0 1-.25-.253v-5.447c0-.14.112-.257.25-.257h.046c.139 0 .252.116.252.257z"/><path fill="#0771b7" d="M35.474 57.4c.172 0 .273.141.273.32v2.434c0 .175-.101.272-.273.272h-.032c-.178 0-.244-.097-.244-.272v-2.023h-.182v1.675c0 .036.01.068-.023.068-.036 0-.16-.032-.16-.068v-2.138c0-.04.124-.085.16-.085.033 0 .022.045.022.085v.101h.11c.029-.186.155-.369.317-.369h.031"/><path fill="#c6c2c1" d="M30.8 60.872h5.937v8.157H30.8z"/><path fill="#333433" d="M9.082 84.926s-.021-1.182.002-3.106h32.323c.013 1.924-.01 3.108-.01 3.108l-32.315-.002"/><path fill="#f7b90b" d="M28.177 85.344c-1.002 1.01-4.56.896-5.658 0-.74-.596-.676-3.14 0-3.812 1-1.007 4.765-1.104 5.658 0 .594.74.67 3.138 0 3.812"/><path fill="#333433" d="M27.168 84.661c-.645.655-2.949.577-3.663 0-.485-.388-.436-2.038 0-2.476.645-.647 3.087-.714 3.663 0 .39.483.439 2.042 0 2.476"/><path fill="#d69d0b" d="M27.993 83.454a.168.168 0 0 1-.169.164h-1.13a.164.164 0 0 1-.163-.164.16.16 0 0 1 .163-.164h1.13c.093 0 .168.071.168.164"/><path fill="#996d3d" d="m25.224 53.971-3.873-4.16c1.153-.123 2-.155 2-.155l1.786.065h.15l1.782-.097c.725.041 1.449.106 2.17.194l-4.016 4.153zM48.1 28.744c1.187.767 1.972 2.07 1.972 3.555 0 2.36-1.982 4.271-4.427 4.271a2.52 2.52 0 0 1-.212-.008C41.475 43.69 33.889 48.51 25.179 48.51c-8.715 0-16.309-4.829-20.265-11.964a5.374 5.374 0 0 1-.494.025C1.98 36.57 0 34.66 0 32.3c0-1.596.899-2.983 2.234-3.72a23.897 23.897 0 0 1-.235-3.334c0-12.845 10.374-23.258 23.18-23.258S48.36 12.401 48.36 25.246c0 1.188-.09 2.358-.26 3.498" data-paper-data="{&quot;origPos&quot;:null}"/><path fill="#492c0e" d="M18.412 25.799c-.772-.174-.908-1.201-3.386-.74-.779.18-2.417 1.156-2.732 1.808-.316.652-.088-2.392 2.457-3.522 1.835-.675 2.457-.642 3.977-.642s1.987.907 1.766 1.65c0 0-.503 1.803-2.082 1.446zm13.905 0c.772-.174.908-1.201 3.386-.74.779.18 2.417 1.156 2.732 1.808.316.652.087-2.392-2.457-3.522-1.835-.675-2.457-.642-3.977-.642s-1.987.907-1.766 1.65c0 0 .503 1.803 2.082 1.446z" data-paper-data="{&quot;origPos&quot;:null}"/><path fill="#343434" d="M18.183 31.703c0 1.657-.895 3-2 3s-2-1.343-2-3 .895-3 2-3 2 1.343 2 3m18 0c0 1.657-.895 3-2 3s-2-1.343-2-3 .895-3 2-3 2 1.343 2 3"/><path fill="#eeac6c" d="M25.203 34.772c-1.125.153-3.02 1.834-3.02 1.834s.207-1.009.503-1.299c.8-1.156 2.487-1.604 2.487-1.604s2.173.703 2.65 1.588c.443.824.34 1.238.34 1.238s-2.121-1.871-2.96-1.756zM18.383 38.399s6.897 3.208 13.172-.397c0 0-1.39 5.47-5.95 5.561-4.115.122-4.984-1.492-5.477-1.956-.492-.463-1.42-1.772-1.745-3.208"/><path fill="#492c0e" d="M49.28 21.954c.036 2.731-.917 8.644-2.774 12.167 0 0-4.557-12.947-8.311-14.997-4.593-2.507-16.691 1.109-20.795-2.141-.676-.543-.607-1.761-.607-1.761s-.783 1.559-1.163 1.991c-1.984 2.267-7.138 5.552-9.586 7.32-1.966 1.416-2.058 1.399-1.624 9.588 0 0-3.614-7.452-3.416-12.422.058-1.431.751-4.612 1.877-7.841C6.959 5.645 15.416 0 25.183 0c11.218 0 20.708 7.448 23.818 17.681.161 1.42.254 2.845.28 4.273" data-paper-data="{&quot;origPos&quot;:null}"/><path fill="#996d3d" d="M23.372 50.914c-1.082 0-1.959-2.333-1.959-3.399h7.707c0 1.066-.878 3.398-1.958 3.398h-3.79" data-paper-data="{&quot;origPos&quot;:null}"/><path fill="#eeac6c" d="M22.312 50.172c-.435-.664-.811-1.568-.882-2.229 2.541.418 5.135.408 7.673-.03l-.011.013-6.78 2.246"/><path fill="#0b4768" d="m39.968 52.247-7.562-2.75c-.708-.253-1.479-.198-1.64.242v.007c-.158.44.359 1.093 1.06 1.35l7.567 2.746zm-28.947 0 7.566-2.75c.702-.253 1.477-.198 1.634.242l.002.007c.158.44-.357 1.093-1.065 1.35l-7.564 2.746zm17.01 21.596c.028 1.636-2.734 2.738-2.734 2.738s-2.74-1.132-2.734-2.733c.006-1.524 1.48-16.898 1.48-16.898-.518-.349-.953-2.307-.953-2.307l1.138-.906 1.953-.063 1.227 1.018s-.523 1.867-.996 2.258c0 0 1.599 15.359 1.619 16.893"/><path fill="#dcd8d6" d="M25.281 53.703s-2.146.899-1.923 1.813c.222.915-4.131-5.343-4.003-5.687.132-.34 1.443-1.517 1.443-1.517l4.483 5.39z"/><path fill="#565657" d="M20.798 48.358c-.185.173-1.29 1.178-1.409 1.483-.034.089.376.835 1.352 2.289 1.18 1.76 2.394 3.375 2.594 3.437 0-.005-.004-.02-.006-.047-.215-.87 1.59-1.694 1.894-1.833zm2.547 7.282c-.283 0-2.26-2.884-2.341-3.007-.418-.606-1.76-2.598-1.678-2.813.13-.347 1.394-1.483 1.447-1.534l.03-.02 4.531 5.45-.042.015c-.023.01-2.115.9-1.902 1.774.012.057.012.093-.005.112-.006.015-.023.023-.04.023z"/><path fill="#dcd8d6" d="m25.201 53.702 4.484-5.39s1.31 1.177 1.44 1.517c.133.344-4.225 6.602-4.002 5.687.222-.914-1.922-1.813-1.922-1.813z"/><path fill="#565657" d="M25.257 53.688c.306.137 2.11.963 1.898 1.833-.008.027-.008.042-.008.046.197-.063 1.41-1.673 2.589-3.43.983-1.458 1.39-2.206 1.354-2.295-.11-.308-1.22-1.313-1.4-1.483zm1.881 1.95a.055.055 0 0 1-.042-.02c-.017-.021-.019-.055-.006-.114.218-.872-1.88-1.764-1.898-1.772l-.045-.015 4.536-5.453.024.023c.054.048 1.316 1.186 1.449 1.534.086.215-1.267 2.217-1.683 2.824-.081.124-2.053 2.994-2.335 2.994z"/></g></svg>