<svg xmlns="http://www.w3.org/2000/svg" xmlns:xlink="http://www.w3.org/1999/xlink" width="120" height="120"><defs><path id="a" d="M0 .433h118.566v118.402H0z"/><path id="c" d="M0 .433h118.566v118.402H0z"/><path id="e" d="M0 119.568h118.567V1.165H0z"/></defs><g fill="none" fill-rule="evenodd" transform="translate(1)"><g transform="translate(0 .733)"><mask id="b" fill="#fff"><use xlink:href="#a"/></mask><path fill="#F39800" d="M59.283 84.279c-13.616 0-24.655-10.977-24.655-24.518 0-13.542 11.04-24.519 24.655-24.519 13.616 0 24.655 10.977 24.655 24.519 0 13.54-11.039 24.518-24.655 24.518m0-83.846C26.542.433 0 26.938 0 59.633c0 32.697 26.542 59.203 59.283 59.203 32.742 0 59.283-26.506 59.283-59.202S92.025.433 59.283.433" mask="url(#b)"/></g><g transform="translate(0 .733)"><mask id="d" fill="#fff"><use xlink:href="#c"/></mask><path fill="#F39800" d="M59.283 84.279c-13.616 0-24.655-10.977-24.655-24.518 0-13.542 11.04-24.519 24.655-24.519 13.616 0 24.655 10.977 24.655 24.519 0 13.54-11.039 24.518-24.655 24.518m0-83.846C26.542.433 0 26.938 0 59.633c0 32.697 26.542 59.203 59.283 59.203 32.742 0 59.283-26.506 59.283-59.202S92.025.433 59.283.433" mask="url(#d)"/></g><path fill="#843519" d="M58.868 84.02c-12.7 0-22.993-10.28-22.993-22.961 0-12.682 10.294-22.962 22.993-22.962 12.698 0 22.993 10.28 22.993 22.962 0 12.68-10.295 22.96-22.993 22.96m44.185-39.974c-.83-6.92 6.762-5.57-2.493-20.749-6.74-11.053-18.61-11.27-23.063-12.656-19.322-6.016-11.288 3.392-23.339.622-12.05-2.768-11.15-2.192-17.383 1.038-6.232 3.23-5.826 13.838-11.011 12.656-5.44-1.238-18.016 1.42-17.453 16.391.197 5.24 13.713 5.919 10.804 15.147-2.908 9.227-8.329 1.189-10.823 15.492C5.8 86.289 21.885 91.808 20.222 96.883c-1.661 5.075 15.93 16.37 26.318 13.14 10.389-3.229 23.686 8.12 33.243 1.66 9.557-6.46 17.246-7.717 16.83-15.56-.416-7.844 16.482-3.643 18.698-33.198.574-7.646-11.427-11.959-12.258-18.88"/><path fill="#FFF100" d="m29.475 36.5-.803.214-1.634-6.15.803-.212z"/><path fill="#E60012" d="m50.946 27.203.099-.825 6.325.76-.099.823z"/><path fill="#8FC31F" d="m22.091 63.557-.347-.753 5.787-2.662.348.755zm54.557-30.893-.348-.753 5.788-2.661.348.753zM62.36 91.522l-.347-.754 5.788-2.66.347.753zm-31.58 7.255-.348-.754 5.788-2.661.348.754z"/><path fill="#E60012" d="m36.68 90.276.098-.824 6.326.759-.1.824zm51.564-17.48.819-.143 1.098 6.268-.82.142zm4.984-28.35-.347.754-5.788-2.659.346-.754zm-67.594 2.767-.347.753-5.79-2.658.348-.754z"/><mask id="f" fill="#fff"><use xlink:href="#e"/></mask><path fill="#FFF100" d="M75.628 95.362h.83v-6.363h-.83zm12.605-39.284h6.37v-.83h-6.37zM17.591 79.731h6.371v-.83h-6.371zm36.568 20.195h6.371v-.83h-6.37z" mask="url(#f)"/><path fill="#8FC31F" d="M72.303 24.542a1.523 1.523 0 1 1-3.047 0 1.523 1.523 0 0 1 3.047 0M27.01 73.123a1.523 1.523 0 1 1-3.047 0 1.523 1.523 0 0 1 3.047 0m74.797-6.117a1.523 1.523 0 0 1-3.047 0 1.523 1.523 0 0 1 3.047 0" mask="url(#f)"/><path fill="#E60012" d="M75.766 101.863a1.523 1.523 0 0 1-3.047 0 1.523 1.523 0 0 1 3.047 0M40.861 23.02a1.523 1.523 0 1 1-3.047 0 1.523 1.523 0 0 1 3.047 0M24.517 89a1.523 1.523 0 0 1-3.048 0 1.523 1.523 0 0 1 3.048 0" mask="url(#f)"/><path fill="#FFF100" d="M43.909 81.945a1.523 1.523 0 0 1-3.048 0 1.523 1.523 0 0 1 3.048 0M41 40.863a2.354 2.354 0 0 1-2.356 2.353 2.353 2.353 0 0 1 0-4.703A2.352 2.352 0 0 1 41 40.863m39.201 3.46c0 .84-.682 1.522-1.525 1.522a1.524 1.524 0 1 1 0-3.045c.843 0 1.525.682 1.525 1.523m-7.213 65.887c0 .87-.707 1.577-1.58 1.577a1.578 1.578 0 1 1 0-3.155c.873 0 1.58.706 1.58 1.577" mask="url(#f)"/><path fill="#FFF" d="M100.183 57.534c3.088 5.751-.676 14.42-3.872 19.337-1.46 2.247 2.135 4.33 3.588 2.095 4.1-6.309 7.732-16.338 3.873-23.527-1.265-2.354-4.853-.261-3.589 2.095M94.12 85.126c2.673 0 2.677-4.15 0-4.15-2.675 0-2.678 4.15 0 4.15" mask="url(#f)"/></g></svg>