<svg version="1.1" xmlns="http://www.w3.org/2000/svg" xmlns:xlink="http://www.w3.org/1999/xlink" width="85.821" height="116.61302" viewBox="0,0,85.821,116.61302"><g transform="translate(-197.683,-121.369)"><g data-paper-data="{&quot;isPaintingLayer&quot;:true}" fill-rule="evenodd" stroke="none" stroke-width="1" stroke-linecap="butt" stroke-linejoin="miter" stroke-miterlimit="10" stroke-dasharray="" stroke-dashoffset="0" style="mix-blend-mode: normal"><path d="M197.683,199.728h85.821v31.384h-85.821z" fill="#f7d170"/><path d="M197.683,199.725h85.821v1.455h-85.821zM197.683,229.652h85.821v1.46h-85.821z" fill="#ea5a26"/><path d="M202.722,225.283h0.996v-4.832h-0.996zM209.09,225.283h0.996v-6.685h-0.995zM215.459,225.283h0.996v-4.832h-0.996zM221.823,225.283h0.998v-4.832h-0.998zM228.189,225.283h0.996v-6.685h-0.996zM234.557,225.283h0.996v-4.832h-0.996zM240.925,225.283h0.996v-4.832h-0.996zM247.291,225.283h0.998v-6.685h-0.998zM253.657,225.283h0.996v-4.832h-0.996zM260.025,225.283h0.996v-4.832h-0.996zM266.394,225.283h0.993v-6.685h-0.993zM272.762,225.283h0.991v-4.832h-0.991zM279.126,225.283h0.996v-4.832h-0.996zM206.728,211.485l0.554,-5.328h5.32v1.533h-3.758l-0.262,2.226c0.18,-0.133 0.406,-0.242 0.679,-0.328c0.28705,-0.08612 0.58439,-0.1332 0.884,-0.14c0.889,-0.012 1.571,0.262 2.063,0.824c0.485,0.559 0.73,1.345 0.73,2.357c0,0.936 -0.265,1.7 -0.795,2.295c-0.53,0.6 -1.337,0.898 -2.425,0.898c-0.88,0 -1.63,-0.23 -2.254,-0.697c-0.624,-0.465 -0.93,-1.101 -0.908,-1.911l0.015,-0.034l1.842,-0.084c0,0.396 0.122,0.705 0.36,0.928c0.239,0.223 0.554,0.332 0.945,0.332c0.455,0 0.788,-0.148 0.992,-0.441c0.21,-0.3 0.313,-0.723 0.313,-1.273c0,-0.551 -0.114,-0.986 -0.341,-1.312c-0.228,-0.323 -0.563,-0.488 -1.01,-0.488c-0.368,0 -0.647,0.068 -0.843,0.205c-0.19367,0.13395 -0.33943,0.32632 -0.416,0.549zM228.9,210.915c-0.348,0 -0.642,0.056 -0.884,0.167c-0.22837,0.09899 -0.42544,0.25838 -0.57,0.461v0.51c0,0.733 0.138,1.3 0.407,1.704c0.268,0.4 0.624,0.597 1.064,0.597c0.397,0 0.715,-0.165 0.949,-0.497c0.238,-0.334 0.356,-0.754 0.356,-1.262c0,-0.523 -0.12,-0.932 -0.358,-1.232c-0.236,-0.298 -0.563,-0.448 -0.964,-0.448M229.301,206.019c0.67899,-0.00552 1.35167,0.13072 1.975,0.4l-0.34,1.4c-0.26182,-0.09125 -0.52899,-0.16639 -0.8,-0.225c-0.26989,-0.05407 -0.54478,-0.07921 -0.82,-0.075c-0.558,0 -1.008,0.214 -1.352,0.64c-0.345,0.43 -0.517,1.023 -0.517,1.788v0.306c0.253,-0.249 0.558,-0.444 0.91,-0.579c0.37554,-0.14195 0.77457,-0.21152 1.176,-0.205c0.818,0 1.455,0.29 1.915,0.866c0.457,0.578 0.689,1.335 0.689,2.26c0,0.956 -0.299,1.734 -0.893,2.33c-0.595,0.597 -1.372,0.897 -2.327,0.897c-0.994,0 -1.807,-0.338 -2.436,-1.022c-0.627,-0.68 -0.938,-1.61 -0.938,-2.792v-1.997c0,-1.206 0.354,-2.175 1.065,-2.901c0.708,-0.727 1.61,-1.091 2.693,-1.091M268.001,208.716c0,-0.375 -0.098,-0.67 -0.296,-0.891c-0.195,-0.223 -0.45,-0.33 -0.766,-0.33c-0.356,0 -0.644,0.105 -0.859,0.321c-0.212,0.216 -0.322,0.516 -0.322,0.9c0,0.388 0.11,0.7 0.329,0.936c0.219,0.243 0.509,0.358 0.865,0.358c0.29465,0.01008 0.57662,-0.12015 0.76,-0.351c0.193,-0.238 0.29,-0.55 0.29,-0.943M268.315,212.94c0,-0.427 -0.133,-0.774 -0.395,-1.048c-0.25487,-0.26809 -0.6112,-0.41592 -0.981,-0.407c-0.427,0 -0.783,0.135 -1.067,0.407c-0.287,0.274 -0.427,0.621 -0.427,1.048c0,0.43 0.14,0.773 0.423,1.032c0.281,0.258 0.644,0.384 1.084,0.384c0.393,0 0.719,-0.126 0.976,-0.384c0.26,-0.259 0.387,-0.602 0.387,-1.032M269.912,208.63c0,0.472 -0.127,0.892 -0.37,1.254c-0.25338,0.37088 -0.60238,0.66632 -1.01,0.855c0.519,0.214 0.933,0.52 1.24,0.92c0.305,0.398 0.457,0.854 0.457,1.37c0,0.881 -0.304,1.567 -0.92,2.06c-0.614,0.488 -1.398,0.733 -2.357,0.733c-1,0 -1.822,-0.245 -2.466,-0.733c-0.642,-0.493 -0.962,-1.179 -0.962,-2.06c0,-0.516 0.157,-0.972 0.474,-1.37c0.316,-0.4 0.747,-0.706 1.288,-0.92c-0.42358,-0.18394 -0.78926,-0.47946 -1.058,-0.855c-0.25695,-0.36709 -0.39135,-0.80598 -0.384,-1.254c0,-0.838 0.285,-1.48 0.858,-1.933c0.571,-0.45 1.32,-0.679 2.237,-0.679c0.88,0 1.593,0.23 2.146,0.68c0.55,0.452 0.827,1.094 0.827,1.932M251.197,207.63c-1.08,1.26 -1.815,2.395 -2.204,3.405c-0.386,1.011 -0.581,2.168 -0.581,3.473v1.177h-1.913v-1.177c0,-1.326 0.24,-2.537 0.728,-3.63c0.487,-1.093 1.195,-2.175 2.129,-3.248h-4.872v-1.472h6.713zM201.656,169.314c8.272,12.818 19.317,2.123 15.56,-9.21c-2.727,-8.224 12.074,2.674 12.074,2.674c0,0 -8.667,23.848 -16.186,24.206c-7.516,0.353 -11.478,-11.314 -11.448,-17.67" data-paper-data="{&quot;origPos&quot;:null}" fill="#353233"/><path d="M230.663,231.858l0.107,-4.02l-0.756,-15.192c0,0 4.336,-4.751 6.326,-5.302c1.43,-0.396 5.863,0.913 5.863,0.913l-1.888,19.581l-0.075,4.02h-0.01c1.821,1.125 3.141,3.416 1.583,5.283c-1.179,1.313 -2.906,0.276 -4.224,-0.277c-1.458,-0.692 -3.119,-1.178 -4.437,-2.078c-0.847,-0.592 -1.783,-1.305 -2.356,-2.188c-0.179,-0.275 -0.198,-0.487 -0.133,-0.74M219.505,231.858h-0.004l-0.058,-4.02l-1.908,-19.581c0,0 4.372,-1.326 5.784,-0.943c2.014,0.55 6.407,5.332 6.407,5.332l-0.747,15.192l-0.1,4.02h-0.005c0.065,0.264 0.311,0.53 0.135,0.804c-0.575,0.885 -1.577,1.532 -2.425,2.124c-1.316,0.9 -2.979,1.386 -4.436,2.078c-1.316,0.553 -3.048,1.59 -4.224,0.277c-1.559,-1.867 -0.239,-4.162 1.581,-5.283" data-paper-data="{&quot;origPos&quot;:null}" fill="#75574c"/><path d="M242.417,205.39c0,0 0.221,2.294 -0.214,2.868c-4.984,-0.073 -12.187,4.388 -12.187,4.388h-0.29c0,0 -6.997,-4.592 -12.191,-4.388c-0.434,-0.574 -0.215,-2.867 -0.215,-2.867h25.097z" fill="#23784c"/><path d="M220.719,208.618c1.451,0.343 2.904,0.898 4.211,1.476c-1.575,-1.509 -4.187,-3.684 -5.081,-4.677h-2.53c0,0 -0.041,0.41 -0.051,0.94c0.854,0.499 2.236,1.326 3.451,2.261M242.472,206.362c-0.014,-0.532 -0.054,-0.945 -0.054,-0.945h-2.528c-0.93,0.992 -3.701,3.334 -5.252,4.842c1.317,-0.58 2.794,-1.157 4.254,-1.532c1.249,-0.975 2.693,-1.851 3.58,-2.365M228.979,227.838l0.2,4.04h0.022c0.064,0.265 -0.024,0.559 -0.209,0.838c-0.591,0.91 -1.618,1.585 -2.491,2.198c-0.142,0.096 -0.29,0.186 -0.438,0.276h-7.764v-2.59c0.28049,-0.26979 0.5866,-0.51159 0.914,-0.722h-0.01l0.24,-4.04h9.537z" fill="#eeeeed"/><path d="M229.011,228.494h-9.606l0.01,-0.197h9.588zM229.03,228.892h-9.65l0.013,-0.2h9.628z" fill="#0771b7"/><path d="M242.178,235.189h-8.482c-0.148,-0.089 -0.294,-0.186 -0.436,-0.282c-0.876,-0.611 -1.906,-1.28 -2.496,-2.19c-0.183,-0.281 -0.268,-0.575 -0.203,-0.84h0.01l0.2,-4.037h9.544l0.236,4.037h-0.008c0.64075,0.40401 1.19619,0.92956 1.635,1.547z" fill="#eeeeed"/><path d="M230.747,228.296h9.594l0.011,0.197h-9.616zM230.728,228.691h9.635l0.012,0.2h-9.66z" fill="#0771b7"/><path d="M219.231,231.877l-0.028,-0.01c0,0 0.197,-1.916 1.812,-1.998c1.674,-0.081 2.938,1.653 2.938,1.653l-4.723,0.355z" fill="#6e6e6d"/><path d="M219.815,231.687c0,0 0.135,-1.316 1.245,-1.372c1.146,-0.056 2.02,1.136 2.02,1.136l-3.248,0.246z" fill="#0771b7"/><path d="M219.23,231.877c0,0 1.941,-1.21 6.3,0c1.763,0.206 2.308,-1.425 3.136,-1.787c0.412,-0.182 0.535,0 0.535,0v1.787c0.064,0.266 -0.024,0.558 -0.209,0.838c-0.591,0.911 -1.618,1.584 -2.491,2.197c-1.356,0.925 -3.068,1.418 -4.566,2.132c-1.354,0.57 -3.138,1.635 -4.35,0.278c-1.606,-1.918 -0.242,-4.251 1.628,-5.445h-0.01v-0.008l0.027,0.008" fill="#e63744"/><path d="M228.864,232.903c-0.603,0.818 -1.549,1.437 -2.365,2.007c-0.567,0.39 -1.202,0.704 -1.852,0.984l-0.179,-0.358c1.937,-0.561 4.18,-2.831 4.18,-2.831l0.216,0.198M219.231,231.877c0,0 1.47,-0.917 4.722,-0.355c-0.955,0.707 -2.556,1.744 -3.69,1.752c-1.457,0.011 -1.494,-0.662 -1.206,-1.296c0.049,-0.039 0.106,-0.043 0.156,-0.107h-0.01v-0.004l0.027,0.01" fill="#343434"/><path d="M219.16,233.116c2.562,0 4.803,1.022 6.005,2.544c-1.05,0.501 -2.193,0.893 -3.23,1.383c-1.354,0.57 -3.139,1.636 -4.349,0.28c-1.116,-1.333 -0.796,-2.872 0.129,-4.083l0.013,-0.017c0.464,-0.068 0.94,-0.107 1.432,-0.107" fill="#343434"/><path d="M229.145,230.289c0.01807,0.00026 0.03609,0.00159 0.054,0.004v1.584c0.066,0.266 -0.022,0.557 -0.206,0.838c-0.118,0.18 -0.251,0.351 -0.4,0.514c-0.13,-0.309 -0.21,-0.735 -0.21,-1.2c0,-0.962 0.342,-1.74 0.762,-1.74M218.109,232.813h0.009c0.023,-0.005 2.121,-0.517 4.823,-0.015c0.015,0.002 0.036,-0.009 0.036,-0.026c0.007,-0.017 -0.008,-0.034 -0.025,-0.039c-2.713,-0.505 -4.828,0.009 -4.849,0.016c-0.019,0.004 -0.028,0.02 -0.023,0.04c0.002,0.015 0.017,0.024 0.03,0.024zM218.68,232.302c0.017,-0.006 1.964,-0.645 4.675,-0.032c0.017,0.006 0.036,-0.007 0.04,-0.024c0.003,-0.017 -0.008,-0.036 -0.025,-0.04c-2.728,-0.62 -4.694,0.025 -4.712,0.034c-0.021,0.004 -0.027,0.021 -0.021,0.041c0.004,0.015 0.017,0.021 0.03,0.021z" fill="#eeeeed"/><path d="M240.529,231.877l-4.727,-0.355c0,0 1.269,-1.734 2.939,-1.653c1.616,0.082 1.813,1.998 1.813,1.998z" fill="#6e6e6d"/><path d="M239.925,231.697l-3.25,-0.246c0,0 0.874,-1.192 2.025,-1.136c1.107,0.056 1.242,1.372 1.242,1.372z" fill="#0771b7"/><path d="M240.529,231.877l0.025,-0.008l-0.002,0.008h-0.008c1.871,1.194 3.23,3.527 1.63,5.445c-1.214,1.357 -2.995,0.292 -4.352,-0.278c-1.498,-0.714 -3.209,-1.207 -4.563,-2.132c-0.876,-0.613 -1.904,-1.286 -2.496,-2.197c-0.183,-0.28 -0.27,-0.572 -0.204,-0.838v-1.787c0,0 0.118,-0.182 0.534,0c0.827,0.362 1.372,1.993 3.132,1.787c4.361,-1.21 6.304,0 6.304,0" fill="#e63744"/><path d="M230.895,232.903l0.217,-0.198c0,0 2.239,2.27 4.175,2.831l-0.176,0.358c-0.653,-0.28 -1.284,-0.594 -1.85,-0.984c-0.816,-0.57 -1.763,-1.189 -2.366,-2.007M240.529,231.877l0.025,-0.01l-0.002,0.004h-0.008c0.051,0.064 0.103,0.068 0.154,0.107c0.29,0.634 0.253,1.307 -1.204,1.296c-1.133,-0.008 -2.732,-1.045 -3.692,-1.752c3.252,-0.562 4.727,0.355 4.727,0.355" fill="#343434"/><path d="M240.598,233.116c0.491,0 0.97,0.039 1.43,0.107c0.006,0.005 0.01,0.013 0.014,0.017c0.925,1.211 1.247,2.75 0.131,4.083c-1.213,1.356 -2.994,0.29 -4.35,-0.28c-1.037,-0.49 -2.179,-0.882 -3.233,-1.383c1.204,-1.522 3.443,-2.544 6.008,-2.544" fill="#343434"/><path d="M230.612,230.289c0.421,0 0.762,0.778 0.762,1.74c0,0.465 -0.081,0.891 -0.212,1.2c-0.146,-0.16109 -0.27971,-0.33291 -0.4,-0.514c-0.182,-0.281 -0.27,-0.572 -0.201,-0.838v-1.584c0.01687,-0.00265 0.03392,-0.00399 0.051,-0.004M241.648,232.813c0.013,0 0.028,-0.009 0.03,-0.024c0.004,-0.02 -0.006,-0.036 -0.024,-0.04c-0.021,-0.007 -2.135,-0.521 -4.848,-0.016c-0.01798,0.00426 -0.0305,0.02053 -0.03,0.039c0.00642,0.01771 0.02433,0.02854 0.043,0.026c2.698,-0.502 4.797,0.01 4.818,0.015zM241.088,232.302c0.015,0 0.028,-0.006 0.035,-0.021c0.004,-0.02 -0.007,-0.037 -0.024,-0.041c-0.02,-0.009 -1.983,-0.654 -4.709,-0.034c-0.02,0.004 -0.032,0.023 -0.028,0.04c0.004,0.017 0.022,0.03 0.04,0.024c2.71,-0.613 4.654,0.026 4.678,0.032z" fill="#eeeeed"/><path d="M206.267,199.02c0.105,-0.998 0.44,-1.89 0.918,-2.58l-0.008,0.063c0,0 1.419,-14.207 5.121,-18.93c1.698,-2.162 7.555,-5.3 8.238,-5.664c1.294,-0.934 4.21,-1.354 6.024,-1.525c-0.304,-0.667 -0.487,-1.393 -0.487,-1.92h7.66c0,0.527 -0.18,1.24 -0.482,1.903c1.785,0.173 4.73,0.597 6.072,1.525c0,0 2.32,0.834 3.095,1.108c1.98,0.54 8.615,3.084 8.615,3.084l5.553,-6.51c-0.09702,-0.27247 -0.16703,-0.55383 -0.209,-0.84c-0.356,-0.647 -0.65,-1.455 -0.826,-2.36c-0.46,-2.365 0.054,-4.45 1.148,-4.665c0.586,-0.111 1.217,0.335 1.75,1.136c1.178,-1.13 2.633,-1.6 3.846,-1.088c1.859,0.786 2.451,3.585 1.32,6.248c-0.726,1.71 -1.985,2.949 -3.284,3.412c0,0 -3.462,9.814 -6.48,10.907c-2.44,0.883 -11.354,-2.692 -11.354,-2.692v-0.013c1.676,10.2 -0.08,25.773 -0.08,25.773h-25.098c0,0 -1.502,-14.135 -0.156,-24.298v0.006c-0.198,0.54 -1.282,1.498 -2.145,2.71c-1.718,2.428 -3.327,12.69 -3.327,12.69c0.04,0.068 0.077,0.141 0.113,0.214c0.434,0.424 0.861,0.996 1.215,1.663c0.934,1.757 1.03,3.527 0.217,3.958c-0.434,0.229 -1.039,0.03 -1.653,-0.476c-0.659,1.174 -1.693,1.896 -2.773,1.78c-1.657,-0.175 -2.799,-2.24 -2.543,-4.617" data-paper-data="{&quot;origPos&quot;:null}" fill="#75574c"/><path d="M226.892,170.993c-0.432,-0.659 -0.736,-1.57 -0.805,-2.23c1.213,0.2 2.46,0.3 3.73,0.3c1.329,0 2.632,-0.113 3.9,-0.33l-0.015,0.016l-6.81,2.243" fill="#eeac6c"/><path d="M237.074,170.992c0.664,9.771 5.886,12.476 5.886,12.476v0.004c0.217,2.604 0.279,5.362 0.257,8.012h-26.612c-0.008,-2.421 0.058,-4.933 0.242,-7.335l0.018,-0.053c0,0 6.056,-2.585 6.31,-13.185l0.002,-0.014c0.79,-0.18 1.618,-0.308 2.367,-0.4h0.117c0,0 -1.26,9.469 4.21,9.469c6.386,0 5.338,-9.349 5.338,-9.351c0.62709,0.09717 1.2494,0.22297 1.865,0.377" fill="#23784c"/><path d="M218.311,183.146c0.268,-0.222 0.558,-0.488 0.86,-0.802v9.17h-0.861v-8.368M240.66,181.407c0.26855,0.32976 0.55569,0.64393 0.86,0.941v9.167h-0.86v-10.108" fill="#eeeeed"/><path d="M207.223,149.344c-0.17089,-1.1508 -0.25712,-2.31259 -0.258,-3.476c0,-12.771 10.369,-23.121 23.159,-23.121c12.79,0 23.16,10.35 23.16,23.121c0,1.125 -0.082,2.233 -0.237,3.317c1.335,0.731 2.239,2.109 2.239,3.69c0,2.347 -1.984,4.247 -4.426,4.247c-0.163,0 -0.329,-0.008 -0.487,-0.025c-3.954,7.095 -11.54,11.89 -20.249,11.89c-8.701,0 -16.28,-4.787 -20.238,-11.869c-0.06931,0.00236 -0.13865,0.0037 -0.208,0.004c-2.443,0 -4.421,-1.9 -4.421,-4.247c0,-1.472 0.78,-2.77 1.966,-3.531" data-paper-data="{&quot;origPos&quot;:null}" fill="#75574c"/><path d="M225.311,144.65c0,0 -0.503,1.803 -2.082,1.446c-0.772,-0.174 -0.908,-1.201 -3.386,-0.74c-0.779,0.18 -2.417,1.156 -2.732,1.808c-0.316,0.652 -0.088,-2.392 2.457,-3.522c1.835,-0.675 2.457,-0.642 3.977,-0.642c1.52,0 1.987,0.907 1.766,1.65M235.052,144.65c0,0 0.503,1.803 2.082,1.446c0.772,-0.174 0.908,-1.201 3.386,-0.74c0.779,0.18 2.417,1.156 2.732,1.808c0.316,0.652 0.087,-2.392 -2.457,-3.522c-1.835,-0.675 -2.457,-0.642 -3.977,-0.642c-1.52,0 -1.987,0.907 -1.766,1.65M223,152c0,1.657 -0.895,3 -2,3c-1.105,0 -2,-1.343 -2,-3c0,-1.657 0.895,-3 2,-3c1.105,0 2,1.343 2,3M241,152c0,1.657 -0.895,3 -2,3c-1.105,0 -2,-1.343 -2,-3c0,-1.657 0.895,-3 2,-3c1.105,0 2,1.343 2,3" data-paper-data="{&quot;origPos&quot;:null}" fill="#353233"/><path d="M230.02,155.069c-1.125,0.153 -3.02,1.834 -3.02,1.834c0,0 0.207,-1.009 0.503,-1.299c0.8,-1.156 2.487,-1.604 2.487,-1.604c0,0 2.173,0.703 2.65,1.588c0.443,0.824 0.34,1.238 0.34,1.238c0,0 -2.121,-1.871 -2.96,-1.756z" fill="#eeac6c"/><path d="M223.2,158.696c0,0 6.897,3.208 13.172,-0.397c0,0 -1.39,5.47 -5.95,5.561c-4.115,0.122 -4.984,-1.492 -5.477,-1.956c-0.492,-0.463 -1.42,-1.772 -1.745,-3.208" data-paper-data="{&quot;origPos&quot;:null}" fill="#a54623"/><path d="M254.101,143.083c0.038,2.702 -1.17,6.458 -1.17,6.458c0,0 -6.117,-7.231 -9.85,-9.261c-4.561,-2.478 -6.836,1.172 -10.912,-2.038c-0.678,-0.536 -1.936,-1.946 -1.936,-1.946c0,0 -1.534,1.546 -1.94,1.946c-4.585,4.479 -8.023,-0.75 -11.882,1.956c-4.914,3.446 -9.064,9.178 -9.064,9.178c0,0 -1.428,-1.628 -1.228,-6.546c0.056,-1.419 0.743,-4.56 1.867,-7.753c4.051,-8.126 12.456,-13.708 22.164,-13.708c11.152,0 20.583,7.366 23.676,17.486c0.158,1.40422 0.24944,2.81513 0.274,4.228" data-paper-data="{&quot;origPos&quot;:null}" fill="#353233"/></g></g></svg>