<svg xmlns="http://www.w3.org/2000/svg" width="120" height="120"><g fill="none" fill-rule="evenodd"><path fill="#90C0C2" d="m0 61.241 4 4 4-4-4-4z"/><path fill="#86BBBE" d="m12 57.241-4 4-4-4 4-4z"/><path fill="#90C0C2" d="m12 65.241-4 4-4-4 4-4z"/><path fill="#73B2B4" d="m16 61.241-4 4-4-4 4-4z"/><path fill="#86BBBE" d="m20 57.241-4 4-4-4 4-4z"/><path fill="#90C0C2" d="m20 65.241-4 4-4-4 4-4z"/><path fill="#73B2B4" d="m24 61.241-4 4-4-4 4-4z"/><path fill="#86BBBE" d="m28 57.241-4 4-4-4 4-4z"/><path fill="#90C0C2" d="m28 65.241-4 4-4-4 4-4z"/><path fill="#73B2B4" d="m32 61.241-4 4-4-4 4-4z"/><path fill="#86BBBE" d="m36 57.241-4 4-4-4 4-4zm0 8-4 4-4-4 4-4z"/><path fill="#73B2B4" d="m40 61.241-4 4-4-4 4-4z"/><path fill="#86BBBE" d="m44 57.241-4 4-4-4 4-4z"/><path fill="#90C0C2" d="m44 65.241-4 4-4-4 4-4z"/><path fill="#73B2B4" d="m48 61.241-4 4-4-4 4-4z"/><path fill="#86BBBE" d="m52 57.241-4 4-4-4 4-4z"/><path fill="#90C0C2" d="m52 65.241-4 4-4-4 4-4z"/><path fill="#73B2B4" d="m56 61.241-4 4-4-4 4-4z"/><path fill="#86BBBE" d="m60 57.241-4 4-4-4 4-4z"/><path fill="#90C0C2" d="m60 65.241-4 4-4-4 4-4z"/><path fill="#73B2B4" d="m64 61.241-4 4-4-4 4-4z"/><path fill="#86BBBE" d="m68 57.241-4 4-4-4 4-4zm0 8-4 4-4-4 4-4z"/><path fill="#73B2B4" d="m72 61.241-4 4-4-4 4-4z"/><path fill="#86BBBE" d="m76 57.241-4 4-4-4 4-4z"/><path fill="#90C0C2" d="m76 65.241-4 4-4-4 4-4z"/><path fill="#73B2B4" d="m80 61.241-4 4-4-4 4-4z"/><path fill="#86BBBE" d="m84 57.241-4 4-4-4 4-4z"/><path fill="#834F2A" d="m92 49.241-4 4-4-4 4-4z"/><path fill="#86BBBE" d="m84 65.241-4 4-4-4 4-4z"/><path fill="#73B2B4" d="m88 61.241-4 4-4-4 4-4z"/><path fill="#966A4B" d="m92 57.241-4 4-4-4 4-4zm0 8-4 4-4-4 4-4z"/><path fill="#834F2A" d="m96 61.241-4 4-4-4 4-4zm-4 12-4 4-4-4 4-4z"/><path fill="#5F7F8B" d="m104 61.241-4 4-4-4 4-4z"/><path fill="#6D8894" d="m112 61.241-4 4-4-4 4-4z"/><path fill="#834F2A" d="m112 61.241 4 4 4-4-4-4z"/><path fill="#366171" d="M6.701 27v3.422H3.278v10.264h3.423V30.422h10.265V27H6.701zm3.423 6.844v3.421h3.421v3.421H6.701v3.423h6.844v-3.423h3.421v-6.842h-6.842zm15.466-3.422h6.844V27H25.59v3.422zm6.843 0v3.421H25.59v-3.42h-3.422v13.686h3.422v-6.844h6.843v6.844h3.422V30.422h-3.422zM54.578 27v3.422h-3.421v3.422h-3.422v3.421h3.422v-3.421h3.42v10.265h3.424V27h-3.423zm-13.686 0v17.109h3.42V33.844h3.423v-3.422h-3.422V27h-3.421zm22.227 0v17.109h10.265v-3.423H66.54v-3.421h6.843v-3.421H66.54v-3.422h6.843V27zM6.701 75.247v3.422H3.278v10.264h3.423V78.67h6.844v-3.422H6.701zm6.844 3.422v10.264H6.701v3.423h6.844v-3.423h3.421V78.67h-3.42zm22.227-3.422v6.844h-3.42v6.842h-3.424v3.423h3.423v-3.423h3.421v-6.842h3.422v-6.844h-3.422zm-13.686 6.844h3.422v-6.844h-3.422v6.844zm3.421 6.842h3.421V82.09h-3.42v6.843zm18.806-13.686v17.11h10.265v-3.424h-6.843v-3.42h6.843V82.09h-6.843v-3.42h6.843v-3.422zm15.385 0v17.11h3.42v-6.845h6.844v-3.42h3.422v-3.423h-3.422v3.422h-6.843V78.67h6.843v-3.422H59.698zm6.843 13.686h3.422v-3.42H66.54v3.42zm3.42 3.423h3.423v-3.423h-3.422v3.423z"/></g></svg>