<svg xmlns="http://www.w3.org/2000/svg" width="85.821" height="116.613"><g fill-rule="evenodd" stroke-miterlimit="10" data-paper-data="{&quot;isPaintingLayer&quot;:true}" style="mix-blend-mode:normal"><path fill="#f7d170" d="M0 78.359h85.821v31.384H0z"/><path fill="#ea5a26" d="M0 78.356h85.821v1.455H0zm0 29.927h85.821v1.46H0z"/><path fill="#704933" d="M5.039 103.914h.996v-4.832h-.996zm6.368 0h.996v-6.685h-.995zm6.369 0h.996v-4.832h-.996zm6.364 0h.998v-4.832h-.998zm6.366 0h.996v-6.685h-.996zm6.368 0h.996v-4.832h-.996zm6.368 0h.996v-4.832h-.996zm6.366 0h.998v-6.685h-.998zm6.366 0h.996v-4.832h-.996zm6.368 0h.996v-4.832h-.996zm6.369 0h.993v-6.685h-.993zm6.368 0h.991v-4.832h-.991zm6.364 0h.996v-4.832h-.996zM9.045 90.116l.554-5.328h5.32v1.533h-3.758l-.262 2.226c.18-.133.406-.242.679-.328a3.34 3.34 0 0 1 .884-.14c.889-.012 1.571.262 2.063.824.485.559.73 1.345.73 2.357 0 .936-.265 1.7-.795 2.295-.53.6-1.337.898-2.425.898-.88 0-1.63-.23-2.254-.697-.624-.465-.93-1.101-.908-1.911l.015-.034 1.842-.084c0 .396.122.705.36.928.239.223.554.332.945.332.455 0 .788-.148.992-.441.21-.3.313-.723.313-1.273 0-.551-.114-.986-.341-1.312-.228-.323-.563-.488-1.01-.488-.368 0-.647.068-.843.205-.194.134-.34.326-.416.549zm22.172-.57c-.348 0-.642.056-.884.167a1.369 1.369 0 0 0-.57.461v.51c0 .733.138 1.3.407 1.704.268.4.624.597 1.064.597.397 0 .715-.165.949-.497.238-.334.356-.754.356-1.262 0-.523-.12-.932-.358-1.232-.236-.298-.563-.448-.964-.448m.401-4.896a4.88 4.88 0 0 1 1.975.4l-.34 1.4a6.791 6.791 0 0 0-.8-.225 3.873 3.873 0 0 0-.82-.075c-.558 0-1.008.214-1.352.64-.345.43-.517 1.023-.517 1.788v.306c.253-.249.558-.444.91-.579a3.18 3.18 0 0 1 1.176-.205c.818 0 1.455.29 1.915.866.457.578.689 1.335.689 2.26 0 .956-.299 1.734-.893 2.33-.595.597-1.372.897-2.327.897-.994 0-1.807-.338-2.436-1.022-.627-.68-.938-1.61-.938-2.792v-1.997c0-1.206.354-2.175 1.065-2.901.708-.727 1.61-1.091 2.693-1.091m38.7 2.697c0-.375-.098-.67-.296-.891-.195-.223-.45-.33-.766-.33-.356 0-.644.105-.859.321-.212.216-.322.516-.322.9 0 .388.11.7.329.936.219.243.509.358.865.358a.93.93 0 0 0 .76-.351c.193-.238.29-.55.29-.943m.313 4.224c0-.427-.133-.774-.395-1.048a1.31 1.31 0 0 0-.981-.407c-.427 0-.783.135-1.067.407-.287.274-.427.621-.427 1.048 0 .43.14.773.423 1.032.281.258.644.384 1.084.384.393 0 .719-.126.976-.384.26-.259.387-.602.387-1.032m1.597-4.31c0 .472-.127.892-.37 1.254a2.49 2.49 0 0 1-1.01.855c.519.214.933.52 1.24.92.305.398.457.854.457 1.37 0 .881-.304 1.567-.92 2.06-.614.488-1.398.733-2.357.733-1 0-1.822-.245-2.466-.733-.642-.493-.962-1.179-.962-2.06 0-.516.157-.972.474-1.37.316-.4.747-.706 1.288-.92a2.55 2.55 0 0 1-1.058-.855 2.126 2.126 0 0 1-.384-1.254c0-.838.285-1.48.858-1.933.571-.45 1.32-.679 2.237-.679.88 0 1.593.23 2.146.68.55.452.827 1.094.827 1.932m-18.715-1c-1.08 1.26-1.815 2.395-2.204 3.405-.386 1.011-.581 2.168-.581 3.473v1.177h-1.913v-1.177c0-1.326.24-2.537.728-3.63.487-1.093 1.195-2.175 2.129-3.248h-4.872v-1.472h6.713zM3.973 47.945c8.272 12.818 19.317 2.123 15.56-9.21-2.727-8.224 12.074 2.674 12.074 2.674S22.94 65.257 15.421 65.615c-7.516.353-11.478-11.314-11.448-17.67" data-paper-data="{&quot;origPos&quot;:null}"/><path fill="#be9268" d="m32.98 110.489.107-4.02-.756-15.192s4.336-4.751 6.326-5.302c1.43-.396 5.863.913 5.863.913l-1.888 19.581-.075 4.02h-.01c1.821 1.125 3.141 3.416 1.583 5.283-1.179 1.313-2.906.276-4.224-.277-1.458-.692-3.119-1.178-4.437-2.078-.847-.592-1.783-1.305-2.356-2.188-.179-.275-.198-.487-.133-.74m-11.158 0h-.004l-.058-4.02-1.908-19.581s4.372-1.326 5.784-.943c2.014.55 6.407 5.332 6.407 5.332l-.747 15.192-.1 4.02h-.005c.065.264.311.53.135.804-.575.885-1.577 1.532-2.425 2.124-1.316.9-2.979 1.386-4.436 2.078-1.316.553-3.048 1.59-4.224.277-1.559-1.867-.239-4.162 1.581-5.283" data-paper-data="{&quot;origPos&quot;:null}"/><path fill="#23784c" d="M44.734 84.021s.221 2.294-.214 2.868c-4.984-.073-12.187 4.388-12.187 4.388h-.29s-6.997-4.592-12.191-4.388c-.434-.574-.215-2.867-.215-2.867h25.097z"/><path fill="#eeeeed" d="M23.036 87.249c1.451.343 2.904.898 4.211 1.476-1.575-1.509-4.187-3.684-5.081-4.677h-2.53s-.041.41-.051.94c.854.499 2.236 1.326 3.451 2.261m21.753-2.256a15.004 15.004 0 0 0-.054-.945h-2.528c-.93.992-3.701 3.334-5.252 4.842 1.317-.58 2.794-1.157 4.254-1.532 1.249-.975 2.693-1.851 3.58-2.365m-13.493 21.476.2 4.04h.022c.064.265-.024.559-.209.838-.591.91-1.618 1.585-2.491 2.198-.142.096-.29.186-.438.276h-7.764v-2.59c.28-.27.587-.512.914-.722h-.01l.24-4.04h9.537z"/><path fill="#0771b7" d="M31.328 107.125h-9.606l.01-.197h9.588zm.019.398h-9.65l.013-.2h9.628z"/><path fill="#eeeeed" d="M44.495 113.82h-8.482a9.839 9.839 0 0 1-.436-.282c-.876-.611-1.906-1.28-2.496-2.19-.183-.281-.268-.575-.203-.84h.01l.2-4.037h9.544l.236 4.037h-.008c.64.404 1.196.93 1.635 1.547z"/><path fill="#0771b7" d="M33.064 106.927h9.594l.011.197h-9.616zm-.019.395h9.635l.012.2h-9.66z"/><path fill="#6e6e6d" d="m21.548 110.508-.028-.01s.197-1.916 1.812-1.998c1.674-.081 2.938 1.653 2.938 1.653l-4.723.355z"/><path fill="#0771b7" d="M22.132 110.318s.135-1.316 1.245-1.372c1.146-.056 2.02 1.136 2.02 1.136l-3.248.246z"/><path fill="#e63744" d="M21.547 110.508s1.941-1.21 6.3 0c1.763.206 2.308-1.425 3.136-1.787.412-.182.535 0 .535 0v1.787c.064.266-.024.558-.209.838-.591.911-1.618 1.584-2.491 2.197-1.356.925-3.068 1.418-4.566 2.132-1.354.57-3.138 1.635-4.35.278-1.606-1.918-.242-4.251 1.628-5.445h-.01v-.008l.027.008"/><path fill="#343434" d="M31.181 111.534c-.603.818-1.549 1.437-2.365 2.007-.567.39-1.202.704-1.852.984l-.179-.358c1.937-.561 4.18-2.831 4.18-2.831l.216.198m-9.633-1.026s1.47-.917 4.722-.355c-.955.707-2.556 1.744-3.69 1.752-1.457.011-1.494-.662-1.206-1.296.049-.039.106-.043.156-.107h-.01v-.004l.027.01"/><path fill="#343434" d="M21.477 111.747c2.562 0 4.803 1.022 6.005 2.544-1.05.501-2.193.893-3.23 1.383-1.354.57-3.139 1.636-4.349.28-1.116-1.333-.796-2.872.129-4.083l.013-.017c.464-.068.94-.107 1.432-.107"/><path fill="#eeeeed" d="M31.462 108.92c.018 0 .036.002.054.004v1.584c.066.266-.022.557-.206.838-.118.18-.251.351-.4.514-.13-.309-.21-.735-.21-1.2 0-.962.342-1.74.762-1.74m-11.036 2.524h.009c.023-.005 2.121-.517 4.823-.015.015.002.036-.009.036-.026.007-.017-.008-.034-.025-.039-2.713-.505-4.828.009-4.849.016-.019.004-.028.02-.023.04.002.015.017.024.03.024zm.571-.511c.017-.006 1.964-.645 4.675-.032.017.006.036-.007.04-.024.003-.017-.008-.036-.025-.04-2.728-.62-4.694.025-4.712.034-.021.004-.027.021-.021.041.004.015.017.021.03.021z"/><path fill="#6e6e6d" d="m42.846 110.508-4.727-.355s1.269-1.734 2.939-1.653c1.616.082 1.813 1.998 1.813 1.998z"/><path fill="#0771b7" d="m42.242 110.328-3.25-.246s.874-1.192 2.025-1.136c1.107.056 1.242 1.372 1.242 1.372z"/><path fill="#e63744" d="m42.846 110.508.025-.008-.002.008h-.008c1.871 1.194 3.23 3.527 1.63 5.445-1.214 1.357-2.995.292-4.352-.278-1.498-.714-3.209-1.207-4.563-2.132-.876-.613-1.904-1.286-2.496-2.197-.183-.28-.27-.572-.204-.838v-1.787s.118-.182.534 0c.827.362 1.372 1.993 3.132 1.787 4.361-1.21 6.304 0 6.304 0"/><path fill="#343434" d="m33.212 111.534.217-.198s2.239 2.27 4.175 2.831l-.176.358c-.653-.28-1.284-.594-1.85-.984-.816-.57-1.763-1.189-2.366-2.007m9.634-1.026.025-.01-.002.004h-.008c.051.064.103.068.154.107.29.634.253 1.307-1.204 1.296-1.133-.008-2.732-1.045-3.692-1.752 3.252-.562 4.727.355 4.727.355"/><path fill="#343434" d="M42.915 111.747c.491 0 .97.039 1.43.107.006.005.01.013.014.017.925 1.211 1.247 2.75.131 4.083-1.213 1.356-2.994.29-4.35-.28-1.037-.49-2.179-.882-3.233-1.383 1.204-1.522 3.443-2.544 6.008-2.544"/><path fill="#eeeeed" d="M32.929 108.92c.421 0 .762.778.762 1.74 0 .465-.081.891-.212 1.2a4.346 4.346 0 0 1-.4-.514c-.182-.281-.27-.572-.201-.838v-1.584a.331.331 0 0 1 .051-.004m11.036 2.524c.013 0 .028-.009.03-.024.004-.02-.006-.036-.024-.04-.021-.007-2.135-.521-4.848-.016a.039.039 0 0 0-.03.039.04.04 0 0 0 .043.026c2.698-.502 4.797.01 4.818.015zm-.56-.511c.015 0 .028-.006.035-.021.004-.02-.007-.037-.024-.041-.02-.009-1.983-.654-4.709-.034-.02.004-.032.023-.028.04s.022.03.04.024c2.71-.613 4.654.026 4.678.032z"/><path fill="#be9268" d="M8.584 77.651c.105-.998.44-1.89.918-2.58l-.008.063s1.419-14.207 5.121-18.93c1.698-2.162 7.555-5.3 8.238-5.664 1.294-.934 4.21-1.354 6.024-1.525-.304-.667-.487-1.393-.487-1.92h7.66c0 .527-.18 1.24-.482 1.903 1.785.173 4.73.597 6.072 1.525 0 0 2.32.834 3.095 1.108 1.98.54 8.615 3.084 8.615 3.084l5.553-6.51a4.413 4.413 0 0 1-.209-.84c-.356-.647-.65-1.455-.826-2.36-.46-2.365.054-4.45 1.148-4.665.586-.111 1.217.335 1.75 1.136 1.178-1.13 2.633-1.6 3.846-1.088 1.859.786 2.451 3.585 1.32 6.248-.726 1.71-1.985 2.949-3.284 3.412 0 0-3.462 9.814-6.48 10.907-2.44.883-11.354-2.692-11.354-2.692v-.013c1.676 10.2-.08 25.773-.08 25.773H19.636s-1.502-14.135-.156-24.298v.006c-.198.54-1.282 1.498-2.145 2.71-1.718 2.428-3.327 12.69-3.327 12.69.04.068.077.141.113.214.434.424.861.996 1.215 1.663.934 1.757 1.03 3.527.217 3.958-.434.229-1.039.03-1.653-.476-.659 1.174-1.693 1.896-2.773 1.78-1.657-.175-2.799-2.24-2.543-4.617" data-paper-data="{&quot;origPos&quot;:null}"/><path fill="#eeac6c" d="M29.209 49.624c-.432-.659-.736-1.57-.805-2.23 1.213.2 2.46.3 3.73.3 1.329 0 2.632-.113 3.9-.33l-.015.016-6.81 2.243"/><path fill="#23784c" d="M39.391 49.623c.664 9.771 5.886 12.476 5.886 12.476v.004c.217 2.604.279 5.362.257 8.012H18.922c-.008-2.421.058-4.933.242-7.335l.018-.053s6.056-2.585 6.31-13.185l.002-.014c.79-.18 1.618-.308 2.367-.4h.117s-1.26 9.469 4.21 9.469c6.386 0 5.338-9.349 5.338-9.351.627.097 1.25.223 1.865.377"/><path fill="#eeeeed" d="M20.628 61.777c.268-.222.558-.488.86-.802v9.17h-.861v-8.368m22.35-1.739c.269.33.556.644.86.941v9.167h-.86V60.038"/><path fill="#be9268" d="M9.54 27.975a23.787 23.787 0 0 1-.258-3.476c0-12.771 10.369-23.121 23.159-23.121s23.16 10.35 23.16 23.121c0 1.125-.082 2.233-.237 3.317 1.335.731 2.239 2.109 2.239 3.69 0 2.347-1.984 4.247-4.426 4.247-.163 0-.329-.008-.487-.025-3.954 7.095-11.54 11.89-20.249 11.89-8.701 0-16.28-4.787-20.238-11.869-.07.002-.139.004-.208.004-2.443 0-4.421-1.9-4.421-4.247 0-1.472.78-2.77 1.966-3.531" data-paper-data="{&quot;origPos&quot;:null}"/><path fill="#694530" d="M27.628 23.281s-.503 1.803-2.082 1.446c-.772-.174-.908-1.201-3.386-.74-.779.18-2.417 1.156-2.732 1.808-.316.652-.088-2.392 2.457-3.522 1.835-.675 2.457-.642 3.977-.642s1.987.907 1.766 1.65m9.741 0s.503 1.803 2.082 1.446c.772-.174.908-1.201 3.386-.74.779.18 2.417 1.156 2.732 1.808.316.652.087-2.392-2.457-3.522-1.835-.675-2.457-.642-3.977-.642s-1.987.907-1.766 1.65m-12.052 7.35c0 1.657-.895 3-2 3s-2-1.343-2-3 .895-3 2-3 2 1.343 2 3m18 0c0 1.657-.895 3-2 3s-2-1.343-2-3 .895-3 2-3 2 1.343 2 3" data-paper-data="{&quot;origPos&quot;:null}"/><path fill="#eeac6c" d="M32.337 33.7c-1.125.153-3.02 1.834-3.02 1.834s.207-1.009.503-1.299c.8-1.156 2.487-1.604 2.487-1.604s2.173.703 2.65 1.588c.443.824.34 1.238.34 1.238s-2.121-1.871-2.96-1.756z"/><path fill="#b95f3e" d="M25.517 37.327s6.897 3.208 13.172-.397c0 0-1.39 5.47-5.95 5.561-4.115.122-4.984-1.492-5.477-1.956-.492-.463-1.42-1.772-1.745-3.208" data-paper-data="{&quot;origPos&quot;:null}"/><path fill="#704933" d="M56.418 21.714c.038 2.702-1.17 6.458-1.17 6.458s-6.117-7.231-9.85-9.261c-4.561-2.478-6.836 1.172-10.912-2.038-.678-.536-1.936-1.946-1.936-1.946s-1.534 1.546-1.94 1.946c-4.585 4.479-8.023-.75-11.882 1.956-4.914 3.446-9.064 9.178-9.064 9.178s-1.428-1.628-1.228-6.546c.056-1.419.743-4.56 1.867-7.753C14.354 5.582 22.759 0 32.467 0 43.619 0 53.05 7.366 56.143 17.486c.158 1.404.25 2.815.274 4.228" data-paper-data="{&quot;origPos&quot;:null}"/></g></svg>