<svg xmlns="http://www.w3.org/2000/svg" width="89.513" height="119.873"><g fill-rule="evenodd" stroke-miterlimit="10" data-paper-data="{&quot;isPaintingLayer&quot;:true}" style="mix-blend-mode:normal"><path fill="#ffdb7e" d="M88.169 84.67c1.46 3.017-.237 7.751-.237 7.751-1.53-1.038-2.444-3.005-2.962-4.603-.306.586-.654.935-.93.865-.451-.115-.543-1.29-.204-2.623.13-.516.306-.976.498-1.345-3.558-6.25-7.226-10.407-10.3-13.528l.82-7.114c7.805 7.19 12.342 18.587 13.315 20.596" data-paper-data="{&quot;origPos&quot;:null}"/><path fill="#3949ab" d="M67.534 52.779s13.922 6.893 21.98 27.433c0 0-2.716 4.252-10.848 8.374-8.132 4.124 0-.99 0-.99s-13.22-19.843-11.132-34.817"/><path fill="#283593" d="M23.754 56.72c2.686 8.782-.336 30.598-.336 30.598-2.518-9.135.336-30.598.336-30.598"/><path fill="#ffdb7e" d="M18.853 62.79c-3.315-.503-6.257-4.583-6.257-4.583 1.722-.673 3.861-.313 5.472.165-.31-.584-.4-1.068-.186-1.256.35-.307 1.37.282 2.278 1.316.35.399.631.805.827 1.172 7.166.605 12.67-.065 16.985-.83l5.4 4.702c-10.345 2.363-22.31-.35-24.518-.685" data-paper-data="{&quot;origPos&quot;:null}"/><path fill="#3949ab" d="M23.754 56.72c9.756 4.068 23.904-3.41 23.904-3.41l6.821 8.596s-16.947 1.204-18.682 8.696c-3.312 14.298-12.38 16.716-12.38 16.716s3.023-21.816.337-30.598"/><path fill="#ffe094" d="m66.657 96.785-.204 16.009s1.966 4.563-.448 6.01c0 0-4.011-3.66-4.127-5.21l-1.264-16.81h6.044z"/><path fill="#757575" d="M61.186 115.299v-7.504H66.9v6.378c2.226 1.166 3.92 3.134 3.92 4.1 0 1.148-2.253 1.941-5.112 1.454-3.212-.547-4.945-1.308-4.945-3.523 0-.318.15-.626.424-.905"/><path fill="#bdbdbd" d="M66.989 117.749c-.8-.449-1.203-1.247-.901-1.782.3-.535 1.192-.604 1.99-.155.799.449 1.203 1.247.903 1.782-.302.535-1.192.605-1.992.155"/><path fill="#ffe094" d="M49.93 96.784h6.043l-1.264 16.81c-.116 1.55-4.128 5.21-4.128 5.21-2.413-1.447-.446-6.01-.446-6.01l-.205-16.009z"/><path fill="#757575" d="M55.55 115.299c.274.279.425.587.425.905 0 2.215-1.734 2.976-4.946 3.523-2.859.487-5.112-.306-5.112-1.454 0-.966 1.693-2.934 3.92-4.1v-6.378h5.712v7.504"/><path fill="#bdbdbd" d="M49.749 117.749c-.8.45-1.69.38-1.992-.155-.3-.535.104-1.333.902-1.782.8-.449 1.69-.38 1.99.155.302.535-.102 1.333-.9 1.782"/><path fill="#cfd8dc" d="M71.715 33.608s5.935-3.81 9.717-.101c0 0-1.366.925-2 2.925 0 0 4.128 2.62 4.618 5.187 0 0-4.941-2.31-5.47-.498 0 0 2.24 2.172 2.257 6.247 0 0-6.727-4.18-7.044-2.857 0 0 3.138 2.863 3.933 7.366L67.243 46.34l-8.358-1.744 2.492-11.935zm-28.395 0s-5.935-3.81-9.717-.101c0 0 1.366.925 2 2.925 0 0-4.128 2.62-4.617 5.187 0 0 4.94-2.31 5.47-.498 0 0-2.24 2.172-2.258 6.247 0 0 6.728-4.18 7.044-2.857 0 0-3.137 2.863-3.933 7.366l10.483-5.537 8.357-1.744-2.49-11.935z"/><path fill="#5c6bc0" d="M32.892 107.397c0-32.392 11.336-58.65 25.32-58.65s25.32 26.258 25.32 58.65c0 0-11.21 5.094-24.7 5.094-14.332 0-25.94-5.094-25.94-5.094"/><path fill="none" stroke="#8d6e63" stroke-linecap="round" stroke-linejoin="round" stroke-width="1.477" d="M9.898 48.653a2.166 2.166 0 0 1-2.162 2.17 2.707 2.707 0 0 1-2.712-2.701 3.383 3.383 0 0 1 3.377-3.39 4.23 4.23 0 0 1 4.238 4.22 5.287 5.287 0 0 1-5.277 5.298 6.609 6.609 0 0 1-6.623-6.596 8.261 8.261 0 0 1 8.246-8.276c5.704-.011 10.337 4.602 10.348 10.305V98.3"/><path fill="#ffdb7e" d="M41.466 39.706c0-8.036 7.533-15.978 16.826-15.978 9.294 0 16.828 7.942 16.828 15.978 0 8.035-7.534 14.263-16.828 14.263-9.293 0-16.826-6.228-16.826-14.263" data-paper-data="{&quot;origPos&quot;:null}"/><path fill="#5d4037" d="M65.946 41.88a1.415 1.415 0 1 0 2.83 0 1.415 1.415 0 0 0-2.83 0m-15.305 0a1.415 1.415 0 1 1-2.83 0 1.415 1.415 0 0 1 2.83 0"/><path fill="#5c6bc0" d="M73.592 33.24s-11.476-5.104-30.505 0l3.837-18.491-6.91-5.842-9.044 4.718-7.918-.899-3.264-6.234 5.169 3.538 4.27-.674L41.447 0l18.879 4.814L73.59 33.239z"/><path fill="#cfd8dc" d="M46.594 51.673c5.632-6.738 11.193-6.935 15.346-5.448 3.858 1.382 6.84 4.502 8.249 8.349l1.372 3.747c-2.817-.918-3.756-2.368-3.756-2.368 1.034 3.379 4.6 7.789 4.6 7.789s1.502.188-.468-.094c-1.972-.28-5.82-3.94-5.82-3.94.092 2.72 5.912 6.85 5.912 6.85-1.782.845-5.537-.478-5.537-.478.75 1.962 7.602 4.138 7.602 4.138-.562 1.313-4.317.375-4.317.375 3.472 3.285 8.071.563 8.071.563-.187 3.191-.937 3.003-.937 3.003 1.876.563 8.164-4.663 8.164-4.663-.28 3.875-3.66 5.815-3.66 5.815 1.784.495 4.318-1.152 4.318-1.152-1.22 4.035-6.288 5.724-6.288 5.724 1.502.47 3.754 0 3.754 0-1.501 4.411-8.071 3.097-8.071 3.097 1.5 1.971 3.66 2.816 3.66 2.816-4.036.75-9.292-2.722-9.292-2.722.845.376 1.502 4.223 1.502 4.223-3.473.376-8.166-4.41-8.166-4.41s-1.314-2.628-.75-.094c.562 2.533.75 3.19.75 3.19-5.538-2.252-9.668-8.445-9.668-8.445-.375.844 0 3.753 0 3.753-3.567-2.815-4.74-13.631-4.74-13.631s-.48.271-.938.751c-.657.688-1.174 2.182-1.174 2.182-1.313-4.692 1.033-12.272 1.033-12.272-1.314-.073-3.004 2.231-3.004 2.231-.938-4.129 2.253-8.879 2.253-8.879"/><path fill="none" stroke="#ef5350" stroke-linecap="round" stroke-linejoin="round" stroke-width="1.016" d="M61.431 49.754c-.626 1.48-1.795 2.477-3.137 2.477-1.343 0-2.512-.998-3.14-2.477"/><path fill="none" stroke="#cfd8dc" stroke-width="2.215" d="M52.12 37.698h-6.203m24.21 0h-6.203"/><path fill="#fdd835" d="m65.05 25.313 1.75.255-1.265 1.234.297 1.744-1.564-.823-1.567.823.3-1.744-1.267-1.234 1.75-.255.783-1.585zm-8.093-9.734 1.277.185-.924.9.218 1.27-1.141-.6-1.142.6.218-1.27-.923-.9 1.276-.185.57-1.157zm-5.694 11.862 1.392.203-1.007.982.238 1.386-1.245-.655-1.246.655.238-1.386-1.007-.982 1.392-.203.623-1.261zM48.44 7.649l1.75.255-1.266 1.235.299 1.743-1.566-.823-1.566.823.299-1.743-1.266-1.235 1.75-.255.783-1.585zm-4.483 65.605 1.96.284L44.5 74.92l.334 1.95-1.752-.92-1.752.92.335-1.95-1.418-1.382 1.96-.284.875-1.774zm10.469 13.421 1.96.284-1.417 1.382.334 1.95-1.752-.921-1.752.921.334-1.95-1.418-1.382 1.96-.284.876-1.775zm-12.338 3.96 1.393.203-1.008.982.238 1.386-1.245-.655-1.245.655.237-1.386-1.007-.982 1.392-.203.623-1.261zm-2.582 9.441 1.96.285-1.418 1.381.335 1.95-1.752-.92-1.752.921.334-1.952-1.418-1.38 1.96-.285.876-1.775zm11.756 5.658 1.392.202-1.007.982.238 1.386-1.245-.655-1.246.655.238-1.386-1.007-.982 1.392-.203.623-1.26zm16.974-.266 1.96.284-1.419 1.382.335 1.951-1.752-.922-1.752.921.335-1.95-1.418-1.382 1.959-.284.876-1.775zm-6.13-7.876 1.508.219-1.091 1.064.258 1.502-1.35-.71-1.348.71.258-1.502-1.092-1.063 1.509-.22.673-1.366zm11.053-8.499 1.96.284-1.418 1.382.335 1.95-1.752-.92-1.752.92.334-1.95-1.418-1.382 1.96-.284.876-1.775zm6.18 8.499 1.508.219-1.091 1.064.258 1.502-1.35-.71-1.348.71.257-1.502-1.091-1.063 1.508-.22.675-1.366z"/></g></svg>