<svg version="1.1" xmlns="http://www.w3.org/2000/svg" xmlns:xlink="http://www.w3.org/1999/xlink" width="59.70598" height="118.26072" viewBox="0,0,59.70598,118.26072"><g transform="translate(-210.474,-120.976)"><g data-paper-data="{&quot;isPaintingLayer&quot;:true}" fill-rule="evenodd" stroke="none" stroke-width="1" stroke-linecap="butt" stroke-linejoin="miter" stroke-miterlimit="10" stroke-dasharray="" stroke-dashoffset="0" style="mix-blend-mode: normal"><path d="M225.382,233.22h-0.005h9.772h-0.011c0.063,0.266 -0.083,0.524 -0.263,0.8c-0.579,0.9 -1.517,1.563 -2.376,2.17c-1.321,0.91 -2.995,1.399 -4.455,2.099c-1.326,0.563 -3.067,1.614 -4.253,0.283c-1.566,-1.891 -0.236,-4.216 1.59,-5.353" data-paper-data="{&quot;origPos&quot;:null}" fill="#c08f69"/><path d="M226.788,233.605c2.286,3.011 6.757,-0.476 8.323,-0.453c0.252,0.109 -0.018,0.605 -0.198,0.879c-0.579,0.898 -1.584,1.618 -2.439,2.223c-1.323,0.908 -2.997,1.379 -4.46,2.083c-1.323,0.559 -3.064,1.576 -4.25,0.242c-1.076,-1.299 -0.786,-2.841 0.094,-4.044c0.403,-0.552 1.402,-0.058 2.93,-0.93" fill="#0771b7"/><path d="M226.652,234.015c1.03,2.317 4.784,0.758 7.024,-0.173c0.722,-0.298 1.264,-0.522 1.534,-0.54c0.00514,0.0439 0.00174,0.08839 -0.01,0.131c-0.253,0.027 -0.802,0.256 -1.47,0.534c-1.393,0.575 -3.357,1.393 -4.923,1.393c-0.983,0 -1.811,-0.322 -2.243,-1.22c-0.371,0.224 -0.986,0.314 -1.577,0.4c-0.617,0.091 -1.274,0.175 -1.402,0.416c0.056,-0.094 0.115,-0.19 0.175,-0.28c0.284,-0.134 0.72,-0.197 1.204,-0.267c0.619,-0.091 1.253,-0.183 1.589,-0.426l0.065,-0.045l0.034,0.077" fill="#f7b90b"/><path d="M246.239,233.219c1.826,1.137 3.158,3.462 1.59,5.353c-1.184,1.331 -2.925,0.28 -4.25,-0.283c-1.46,-0.7 -3.135,-1.189 -4.46,-2.099c-0.854,-0.607 -1.798,-1.27 -2.374,-2.17c-0.177,-0.276 -0.328,-0.534 -0.261,-0.8h-0.011h9.77h-0.005" data-paper-data="{&quot;origPos&quot;:null}" fill="#c08f69"/><path d="M244.834,233.605c1.526,0.872 2.527,0.378 2.925,0.93c0.882,1.203 1.175,2.745 0.097,4.044c-1.184,1.334 -2.927,0.317 -4.253,-0.242c-1.46,-0.704 -3.134,-1.175 -4.455,-2.083c-0.86,-0.605 -1.86,-1.325 -2.44,-2.223c-0.179,-0.274 -0.45,-0.77 -0.199,-0.879c1.568,-0.023 6.037,3.464 8.325,0.453" data-paper-data="{&quot;origPos&quot;:null}" fill="#0771b7"/><path d="M244.968,234.015l0.034,-0.077l0.067,0.045c0.331,0.243 0.97,0.335 1.582,0.426c0.488,0.07 0.927,0.133 1.206,0.267c0.063,0.09 0.124,0.186 0.178,0.28c-0.126,-0.241 -0.783,-0.325 -1.402,-0.416c-0.592,-0.086 -1.208,-0.176 -1.575,-0.4c-0.436,0.898 -1.262,1.22 -2.243,1.22c-1.568,0 -3.53,-0.818 -4.923,-1.393c-0.67,-0.278 -1.22,-0.507 -1.472,-0.534c-0.009,-0.047 -0.015,-0.095 -0.009,-0.131c0.27,0.018 0.81,0.242 1.533,0.54c2.243,0.931 5.996,2.49 7.024,0.173" fill="#f7b90b"/><path d="M225.382,233.22h-0.005c-5.105,-4.405 -4.113,-26.736 -4.113,-26.736h28.958c0,0 1.1,22.327 -3.99,26.735c0,0.002 -0.006,0 -0.006,0c-2.441,0 -5.49,1.112 -9.758,0c-0.855,-2.565 0.009,-11.762 0.009,-11.762h-1.337h0.009c0,0 0.875,8.96 0,11.762c-3.908,1.112 -9.767,0 -9.767,0" data-paper-data="{&quot;origPos&quot;:null}" fill="#0b4768"/><path d="M268.281,162.167c1.865,0.797 2.457,3.632 1.323,6.335c-0.731,1.73 -1.996,2.986 -3.303,3.453l0.002,0.004c0,0 -3.481,9.949 -6.511,11.054c-2.457,0.894 -11.106,-2.644 -11.106,-2.644c0,0 -0.704,-2.704 -1.067,-3.56c-0.492,-1.173 -2.682,-4.428 -2.682,-4.428l12.018,4.31l5.581,-6.6c-0.44,-1.24 -0.37,-2.882 0.3,-4.478c1.139,-2.701 3.573,-4.243 5.445,-3.446M218,178.198c1.815,-2.327 8.396,-5.762 8.396,-5.762c0,0 -3.08,5.556 -3.634,8.024c-0.072,0.315 -0.245,1.155 -0.403,1.594c-0.195,0.549 -0.756,1.236 -1.617,2.469c-1.728,2.46 -3.348,12.86 -3.348,12.86c0.038,0.07 0.078,0.14 0.112,0.212c0.442,0.433 0.864,1.01 1.222,1.689c0.938,1.78 1.038,3.573 0.218,4.008c-0.436,0.235 -1.046,0.032 -1.663,-0.48c-0.662,1.189 -1.701,1.92 -2.792,1.805c-1.663,-0.178 -2.808,-2.271 -2.554,-4.678c0.108,-1.017 0.446,-1.922 0.923,-2.62c-0.007,0.043 -0.007,0.066 -0.007,0.066c0,0 1.427,-14.397 5.148,-19.187" data-paper-data="{&quot;origPos&quot;:null}" fill="#c08f69"/><path d="M215.63,200.92464c-1.001,-1.823 -1.138,-3.675 -0.301,-4.146c0.837,-0.464 2.329,0.634 3.332,2.459c1.004,1.82 1.139,3.675 0.299,4.143c-0.837,0.467 -2.328,-0.633 -3.33,-2.456M261.498,166.96364c-0.461,-2.394 0.052,-4.511 1.154,-4.728c1.099,-0.213 2.365,1.555 2.829,3.949c0.463,2.395 -0.054,4.512 -1.153,4.727c-1.1,0.213 -2.366,-1.553 -2.83,-3.948" data-paper-data="{&quot;origPos&quot;:null}" fill="#c08f69"/><path d="M262.179,169.875l5.18,2.615c0,0 -4.543,9.593 -7.574,10.696c-2.353,0.858 -9.371,-1.895 -9.937,-2.288c1.525,6.64 1.939,15.236 2.04,20.58c0,0.065 0.884,15.752 1.404,20.712c-6.815,2.787 -27.844,2.095 -35.069,0c0.722,-5.048 1.416,-20.821 1.422,-21.038c0.108,-4.474 0.446,-11.11 1.436,-17.013c-0.079,0.117 -0.162,0.24 -0.252,0.367c-0.263,0.369 -0.509,0.908 -0.75,1.555c-1.343,3.664 -2.29,10.834 -2.29,10.834l-5.114,0.006c0,0 0.873,-7.403 2.736,-13.36c0.736,-2.348 1.627,-4.474 2.68,-5.83c1.648,-2.117 6.417,-4.823 7.278,-5.296c2.129,-1.386 8.526,-1.598 8.526,-1.598l1.782,0.045h0.148l1.783,-0.045c0,0 6.423,0.237 8.54,1.625l10.735,4.092l5.297,-6.659z" fill="#2baae2"/><path d="M239.103,170.8c0.188,0.018 0.389,0.043 0.6,0.068l-4.203,2.436l-3.684,-2.452c0.194,-0.018 0.377,-0.038 0.55,-0.052c-0.302,-0.677 -0.486,-1.44 -0.486,-1.922h7.705c0,0.482 -0.18,1.245 -0.484,1.922" data-paper-data="{&quot;origPos&quot;:null}" fill="#c08f69"/><path d="M232.705,171.441c-0.434,-0.665 -0.74,-1.596 -0.81,-2.262c2.54469,0.41396 5.14028,0.40484 7.682,-0.027l-0.016,0.014l-6.856,2.275" fill="#e2a86e"/><path d="M223.07,212.969c-0.072,0.065 -0.324,0.065 -0.396,0c-0.214,-0.19 -0.342,-0.944 -0.135,-1.14c0.122,-0.11 0.542,-0.11 0.666,0c0.207,0.196 0.079,0.95 -0.135,1.14" fill="#0b4768"/><path d="M223.152,213.242c0.00002,0.14978 -0.12024,0.27181 -0.27,0.274c-0.14228,-0.01217 -0.25157,-0.1312 -0.25157,-0.274c0,-0.1428 0.10929,-0.26183 0.25157,-0.274c0.146,0 0.27,0.122 0.27,0.274" fill="#0771b7"/><path d="M223.152,213.776c0.00004,0.15012 -0.11992,0.27274 -0.27,0.276c-0.15204,-0.00055 -0.275,-0.12396 -0.275,-0.276c0.00873,-0.1441 0.12814,-0.25648 0.2725,-0.25648c0.14436,0 0.26377,0.11239 0.2725,0.25648" fill="#0b4768"/><path d="M223.404,218.115c-0.092,0.218 -0.942,0.218 -1.064,0c0.018,-1.451 0.4,-4.078 0.4,-4.078h0.266c0,0 0.434,2.71 0.398,4.078" fill="#0771b7"/><path d="M224.2,213.236c-0.072,0.066 -0.327,0.066 -0.399,0c-0.211,-0.19 -0.342,-0.944 -0.132,-1.138c0.121,-0.114 0.542,-0.114 0.666,0c0.207,0.194 0.076,0.948 -0.135,1.138" fill="#0b4768"/><path d="M224.28,213.51c0,0.15022 -0.12178,0.272 -0.272,0.272c-0.15022,0 -0.272,-0.12178 -0.272,-0.272c0,-0.15022 0.12178,-0.272 0.272,-0.272c0.15022,0 0.272,0.12178 0.272,0.272" fill="#0771b7"/><path d="M224.28,214.043c0.00167,0.15094 -0.11906,0.27481 -0.27,0.277c-0.15188,0 -0.275,-0.12312 -0.275,-0.275c0,-0.15188 0.12312,-0.275 0.275,-0.275c0.15,0 0.27,0.122 0.27,0.273" fill="#0b4768"/><path d="M224.534,218.383c-0.095,0.217 -0.943,0.217 -1.065,0c0.018,-1.452 0.4,-4.078 0.4,-4.078h0.266c0,0 0.435,2.71 0.399,4.078" fill="#0771b7"/><path d="M225.395,212.767c-0.072,0.067 -0.324,0.067 -0.396,0c-0.214,-0.19 -0.342,-0.942 -0.133,-1.135c0.12,-0.113 0.542,-0.113 0.664,0c0.21,0.193 0.079,0.944 -0.135,1.135" fill="#0b4768"/><path d="M225.476,213.043c-0.00271,0.1497 -0.12428,0.26994 -0.274,0.271c-0.15133,0 -0.274,-0.12267 -0.274,-0.274c0,-0.15133 0.12267,-0.274 0.274,-0.274c0.15,0 0.274,0.125 0.274,0.277" fill="#0771b7"/><path d="M225.476,213.577c0,0.15022 -0.12178,0.272 -0.272,0.272c-0.15022,0 -0.272,-0.12178 -0.272,-0.272c0,-0.15022 0.12178,-0.272 0.272,-0.272c0.15022,0 0.272,0.12178 0.272,0.272" fill="#0b4768"/><path d="M225.729,217.913c-0.092,0.217 -0.943,0.217 -1.064,0c0.018,-1.45 0.398,-4.078 0.398,-4.078h0.265c0,0 0.437,2.712 0.401,4.078" fill="#0771b7"/><path d="M227.654,211.363c-0.072,0.068 -0.327,0.068 -0.399,0c-0.211,-0.19 -0.342,-0.941 -0.132,-1.136c0.121,-0.111 0.542,-0.111 0.666,0c0.207,0.195 0.076,0.946 -0.135,1.136" fill="#0b4768"/><path d="M227.733,211.639c0,0.15 -0.122,0.274 -0.272,0.274c-0.14976,-0.00219 -0.27002,-0.12422 -0.27,-0.274c0,-0.152 0.121,-0.276 0.27,-0.276c0.15,0 0.272,0.124 0.272,0.276" fill="#0771b7"/><path d="M227.733,212.174c-0.0121,0.14067 -0.12981,0.2487 -0.271,0.2487c-0.14119,0 -0.2589,-0.10803 -0.271,-0.2487c0,-0.152 0.121,-0.276 0.27,-0.276c0.15,0 0.272,0.124 0.272,0.276" fill="#0b4768"/><path d="M227.988,216.51c-0.095,0.217 -0.943,0.217 -1.064,0c0.018,-1.45 0.4,-4.078 0.4,-4.078h0.263c0,0 0.437,2.71 0.4,4.078" fill="#0771b7"/><path d="M226.592,211.699c-0.076,0.063 -0.326,0.063 -0.398,0c-0.214,-0.19 -0.342,-0.942 -0.133,-1.137c0.122,-0.113 0.543,-0.113 0.666,0c0.205,0.195 0.077,0.946 -0.135,1.137" fill="#0b4768"/><path d="M226.67,211.974c0,0.15 -0.12,0.274 -0.27,0.274c-0.07214,-0.00053 -0.14111,-0.02969 -0.19175,-0.08108c-0.05064,-0.05139 -0.07878,-0.12078 -0.07825,-0.19292c0,-0.14912 0.12088,-0.27 0.27,-0.27c0.14912,0 0.27,0.12088 0.27,0.27" fill="#0771b7"/><path d="M226.67,212.506c0,0.151 -0.12,0.276 -0.27,0.276c-0.07241,-0.00079 -0.14153,-0.03032 -0.19217,-0.08208c-0.05064,-0.05176 -0.07863,-0.12152 -0.07783,-0.19392c0,-0.15 0.118,-0.274 0.27,-0.274c0.15,0 0.27,0.124 0.27,0.274" fill="#0b4768"/><path d="M226.924,216.845c-0.092,0.215 -0.945,0.215 -1.062,0c0.016,-1.45 0.396,-4.078 0.396,-4.078h0.266c0,0 0.436,2.71 0.4,4.078" fill="#0771b7"/><path d="M228.917,211.029c-0.076,0.068 -0.326,0.068 -0.4,0c-0.21,-0.188 -0.34,-0.942 -0.13,-1.135c0.12,-0.113 0.541,-0.113 0.66,0c0.21,0.193 0.084,0.947 -0.13,1.135" fill="#0b4768"/><path d="M228.994,211.305c0.00053,0.07195 -0.02768,0.14114 -0.07837,0.19221c-0.05069,0.05107 -0.11967,0.07979 -0.19163,0.07979c-0.07196,0 -0.14094,-0.02872 -0.19163,-0.07979c-0.05069,-0.05107 -0.0789,-0.12026 -0.07837,-0.19221c0,-0.152 0.12,-0.276 0.27,-0.276c0.15,0 0.27,0.124 0.27,0.276" fill="#0771b7"/><path d="M228.994,211.839c0,0.15 -0.12,0.274 -0.27,0.274c-0.07214,-0.00053 -0.14111,-0.02969 -0.19175,-0.08108c-0.05064,-0.05139 -0.07878,-0.12078 -0.07825,-0.19292c0,-0.152 0.12,-0.276 0.27,-0.276c0.15,0 0.27,0.124 0.27,0.276" fill="#0b4768"/><path d="M229.249,216.175c-0.095,0.217 -0.94,0.217 -1.064,0c0.015,-1.45 0.4,-4.078 0.4,-4.078h0.263c0,0 0.44,2.715 0.4,4.078M232.479,171.274c-5.22,2.145 -2.313,32.745 -3.303,39.1c-3.53,0.052 -2.718,0.765 -3.303,1.456c-0.551,0.652 -3.634,0.824 -3.4,0c1.953,-6.913 -2.394,-34.363 3.062,-40.062c0.624,-0.65 2.491,-1.508 3.819,-1.404c0.641,-0.844 3.546,-0.489 3.546,-0.489c0,0 -0.057,1.252 -0.421,1.4" fill="#0771b7"/><path d="M226.327,210.227c0,0 0.009,-0.05 0.022,-0.147c0.005,-0.05 0.02,-0.111 0.025,-0.181c0.00599,-0.08189 0.01433,-0.16359 0.025,-0.245c0.009,-0.09 0.013,-0.194 0.02,-0.303c0.011,-0.111 0.011,-0.231 0.018,-0.358c0.004,-0.129 0.004,-0.265 0.004,-0.407v-0.453c-0.00427,-0.34016 -0.0146,-0.68021 -0.031,-1.02c-0.018,-0.36 -0.04,-0.737 -0.063,-1.131c-0.05457,-0.82185 -0.11623,-1.64322 -0.185,-2.464c-0.065,-0.84 -0.13,-1.68 -0.186,-2.465c-0.06329,-0.86848 -0.10464,-1.73843 -0.124,-2.609l0.002,-0.41c0.002,-0.128 0.007,-0.246 0.01,-0.36c0.001,-0.108 0.006,-0.21 0.01,-0.303c0.014,-0.183 0.025,-0.328 0.034,-0.428c0.014,-0.097 0.018,-0.15 0.018,-0.15c0,0 -0.002,0.053 -0.009,0.15c-0.009,0.1 -0.011,0.245 -0.018,0.428v0.304c0,0.113 0.002,0.23 0.007,0.36c0.002,0.255 0.016,0.545 0.031,0.86c0.018,0.315 0.039,0.654 0.063,1.014c0.027,0.363 0.059,0.74 0.09,1.135c0.066,0.788 0.133,1.625 0.2,2.463c0.068,0.84 0.129,1.678 0.172,2.466c0.04,0.79 0.058,1.526 0.051,2.16c0,0.158 -0.002,0.308 -0.009,0.453c-0.006,0.144 -0.013,0.28 -0.02,0.407c-0.011,0.13 -0.016,0.25 -0.025,0.36c-0.015,0.113 -0.022,0.213 -0.036,0.304c-0.01842,0.14148 -0.04009,0.28252 -0.065,0.423l-0.031,0.147M229.359,170.364c0,0 -0.03,0.022 -0.081,0.07c-0.054,0.045 -0.133,0.11 -0.225,0.199c-0.045,0.045 -0.1,0.097 -0.151,0.154c-0.027,0.027 -0.059,0.054 -0.086,0.086c-0.02947,0.0318 -0.05718,0.06518 -0.083,0.1c-0.03292,0.03154 -0.06366,0.06529 -0.092,0.101c-0.032,0.039 -0.063,0.075 -0.092,0.114l-0.194,0.253c-0.063,0.09 -0.126,0.186 -0.191,0.283c-0.06455,0.10446 -0.12822,0.20946 -0.191,0.315c-0.06301,0.11394 -0.12468,0.22861 -0.185,0.344c-0.12466,0.24672 -0.24106,0.49752 -0.349,0.752c-0.027,0.066 -0.05,0.131 -0.076,0.2c-0.027,0.065 -0.052,0.133 -0.079,0.2c-0.047,0.139 -0.101,0.272 -0.142,0.417c-0.024,0.068 -0.045,0.14 -0.067,0.209l-0.063,0.212c-0.1624,0.55579 -0.29624,1.11953 -0.401,1.689c-0.05,0.272 -0.096,0.537 -0.13,0.788c-0.04,0.252 -0.072,0.492 -0.097,0.709c-0.027,0.222 -0.047,0.426 -0.067,0.602c-0.016,0.184 -0.027,0.342 -0.034,0.467c-0.023,0.262 -0.027,0.41 -0.027,0.41c0,0 -0.005,-0.148 0,-0.41c0.004,-0.258 0.013,-0.632 0.052,-1.076l0.031,-0.346c0.011,-0.118 0.027,-0.242 0.04,-0.37c0.032,-0.25 0.066,-0.52 0.12,-0.794c0.09219,-0.57655 0.22078,-1.14669 0.385,-1.707l0.067,-0.213c0.02,-0.072 0.043,-0.143 0.065,-0.213c0.045,-0.142 0.097,-0.28 0.147,-0.419c0.051,-0.138 0.11,-0.27 0.164,-0.403c0.054,-0.133 0.12,-0.262 0.175,-0.39c0.061,-0.121 0.124,-0.246 0.187,-0.364c0.12476,-0.22378 0.25819,-0.44261 0.4,-0.656c0.075,-0.098 0.14,-0.19 0.205,-0.281c0.07,-0.088 0.14,-0.17 0.203,-0.247c0.06568,-0.07068 0.13102,-0.14168 0.196,-0.213c0.033,-0.031 0.063,-0.063 0.092,-0.095c0.031,-0.03 0.063,-0.054 0.092,-0.083c0.05023,-0.0492 0.10192,-0.09689 0.155,-0.143c0.102,-0.086 0.187,-0.145 0.239,-0.186c0.056,-0.043 0.088,-0.065 0.088,-0.065M248.378,212.969c0.075,0.065 0.324,0.065 0.396,0c0.214,-0.19 0.345,-0.944 0.133,-1.14c-0.12,-0.11 -0.542,-0.11 -0.661,0c-0.21,0.196 -0.081,0.95 0.132,1.14" fill="#0b4768"/><path d="M248.299,213.242c-0.00053,-0.07214 0.02762,-0.14154 0.07825,-0.19292c0.05064,-0.05139 0.11961,-0.08055 0.19175,-0.08108c0.0724,0.00026 0.14174,0.02928 0.19275,0.08067c0.05101,0.05139 0.07952,0.12093 0.07925,0.19333c0,0.152 -0.121,0.274 -0.271,0.274c-0.15,0 -0.27,-0.122 -0.27,-0.274" fill="#0771b7"/><path d="M248.3,213.776c-0.00053,-0.07195 0.02768,-0.14114 0.07837,-0.19221c0.05069,-0.05107 0.11967,-0.07979 0.19163,-0.07979c0.14228,0.01217 0.25157,0.1312 0.25157,0.274c0,0.1428 -0.10929,0.26183 -0.25157,0.274c-0.15,0 -0.27,-0.124 -0.27,-0.276" fill="#0b4768"/><path d="M248.045,218.115c-0.037,-1.368 0.4,-4.078 0.4,-4.078h0.266c0,0 0.38,2.627 0.4,4.078c-0.124,0.218 -0.97,0.218 -1.067,0" fill="#0771b7"/><path d="M247.249,213.236c-0.214,-0.19 -0.34,-0.944 -0.135,-1.138c0.124,-0.114 0.545,-0.114 0.665,0c0.21,0.194 0.08,0.948 -0.13,1.138c-0.076,0.066 -0.326,0.066 -0.4,0" fill="#0b4768"/><path d="M247.17,213.509c-0.00027,-0.0724 0.02824,-0.14195 0.07925,-0.19333c0.05101,-0.05139 0.12034,-0.0804 0.19275,-0.08067c0.07214,0.00053 0.14111,0.02969 0.19175,0.08108c0.05064,0.05139 0.07878,0.12078 0.07825,0.19292c-0.01183,0.14069 -0.12935,0.24894 -0.27054,0.2492c-0.14119,0.00026 -0.25911,-0.10755 -0.27146,-0.2482" fill="#0771b7"/><path d="M247.17,214.043c-0.00027,-0.0724 0.02824,-0.14195 0.07925,-0.19333c0.05101,-0.05139 0.12034,-0.0804 0.19275,-0.08067c0.07214,0.00053 0.14111,0.02969 0.19175,0.08108c0.05064,0.05139 0.07878,0.12078 0.07825,0.19292c0,0.152 -0.121,0.277 -0.27,0.277c-0.151,0 -0.272,-0.125 -0.272,-0.277" fill="#0b4768"/><path d="M246.915,218.383c-0.036,-1.368 0.4,-4.078 0.4,-4.078h0.266c0,0 0.385,2.626 0.4,4.078c-0.123,0.217 -0.969,0.217 -1.066,0" fill="#0771b7"/><path d="M246.054,212.767c-0.214,-0.191 -0.343,-0.942 -0.133,-1.135c0.124,-0.113 0.542,-0.113 0.661,0c0.21,0.193 0.081,0.945 -0.13,1.135c-0.074,0.067 -0.324,0.067 -0.398,0" fill="#0b4768"/><path d="M245.974,213.043c-0.00004,-0.15012 0.11992,-0.27274 0.27,-0.276c0.15204,0.00055 0.275,0.12396 0.275,0.276c-0.00219,0.15031 -0.12467,0.27102 -0.275,0.271c-0.146,0 -0.27,-0.124 -0.27,-0.271" fill="#0771b7"/><path d="M245.974,213.577c-0.00002,-0.14978 0.12024,-0.27181 0.27,-0.274c0.14228,0.01217 0.25157,0.1312 0.25157,0.274c0,0.1428 -0.10929,0.26183 -0.25157,0.274c-0.146,0 -0.27,-0.122 -0.27,-0.274" fill="#0b4768"/><path d="M245.724,217.913c-0.04,-1.366 0.396,-4.078 0.396,-4.078h0.266c0,0 0.382,2.628 0.4,4.078c-0.122,0.217 -0.972,0.217 -1.062,0" fill="#0771b7"/><path d="M243.795,211.363c-0.214,-0.19 -0.34,-0.941 -0.135,-1.136c0.124,-0.111 0.545,-0.111 0.665,0c0.21,0.195 0.08,0.946 -0.13,1.136c-0.074,0.068 -0.326,0.068 -0.4,0" fill="#0b4768"/><path d="M243.716,211.639c-0.00002,-0.15088 0.12113,-0.27381 0.272,-0.276c0.15054,0.00219 0.27111,0.12544 0.27,0.276c0,0.149 -0.122,0.274 -0.27,0.274c-0.149,0 -0.272,-0.124 -0.272,-0.274" fill="#0771b7"/><path d="M243.716,212.174c-0.00002,-0.15088 0.12113,-0.27381 0.272,-0.276c0.15133,0 0.274,0.12267 0.274,0.274c0,0.15133 -0.12267,0.274 -0.274,0.274c-0.149,0 -0.272,-0.122 -0.272,-0.272" fill="#0b4768"/><path d="M243.461,216.51c-0.036,-1.368 0.4,-4.078 0.4,-4.078h0.266c0,0 0.385,2.628 0.4,4.078c-0.123,0.217 -0.969,0.217 -1.067,0" fill="#0771b7"/><path d="M244.856,211.699c-0.213,-0.191 -0.34,-0.942 -0.133,-1.137c0.122,-0.113 0.542,-0.113 0.664,0c0.214,0.195 0.081,0.947 -0.131,1.137c-0.074,0.063 -0.324,0.063 -0.4,0" fill="#0b4768"/><path d="M244.779,211.974c-0.00055,-0.15149 0.12151,-0.2749 0.273,-0.276c0.14281,0.01219 0.25253,0.13167 0.25253,0.275c0,0.14333 -0.10971,0.26281 -0.25253,0.275c-0.149,0 -0.272,-0.124 -0.272,-0.274" fill="#0771b7"/><path d="M244.779,212.506c0.00108,-0.15049 0.12252,-0.27237 0.273,-0.274c0.14281,0.01219 0.25253,0.13167 0.25253,0.275c0,0.14333 -0.10971,0.26281 -0.25253,0.275c-0.149,0 -0.272,-0.125 -0.272,-0.276" fill="#0b4768"/><path d="M244.527,216.845c-0.041,-1.368 0.398,-4.078 0.398,-4.078h0.264c0,0 0.384,2.628 0.4,4.078c-0.12,0.215 -0.97,0.215 -1.062,0" fill="#0771b7"/><path d="M242.534,211.029c-0.212,-0.188 -0.342,-0.942 -0.135,-1.135c0.123,-0.113 0.544,-0.113 0.666,0c0.209,0.193 0.081,0.947 -0.133,1.135c-0.077,0.068 -0.324,0.068 -0.398,0" fill="#0b4768"/><path d="M242.455,211.305c-0.00056,-0.1511 0.1209,-0.27435 0.272,-0.276c0.14228,0.01217 0.25157,0.1312 0.25157,0.274c0,0.1428 -0.10929,0.26183 -0.25157,0.274c-0.0723,0.00054 -0.1418,-0.02795 -0.19293,-0.07907c-0.05113,-0.05113 -0.07961,-0.12062 -0.07907,-0.19293" fill="#0771b7"/><path d="M242.455,211.839c-0.00056,-0.1511 0.1209,-0.27435 0.272,-0.276c0.1511,0.00165 0.27256,0.1249 0.272,0.276c0,0.149 -0.122,0.274 -0.272,0.274c-0.151,0 -0.272,-0.124 -0.272,-0.274" fill="#0b4768"/><path d="M242.202,216.175c-0.041,-1.363 0.398,-4.078 0.398,-4.078h0.268c0,0 0.378,2.628 0.396,4.078c-0.12,0.217 -0.97,0.217 -1.062,0M238.954,171.275c-0.362,-0.148 -0.42,-1.4 -0.42,-1.4c0,0 2.906,-0.355 3.546,0.489c1.327,-0.104 3.199,0.754 3.82,1.404c5.456,5.699 1.112,33.149 3.062,40.062c0.232,0.824 -2.846,0.652 -3.398,0c-0.584,-0.691 0.228,-1.404 -3.3,-1.456c-0.992,-6.355 1.91,-36.955 -3.31,-39.1" fill="#0771b7"/><path d="M245.109,210.227l-0.03,-0.147c-0.018,-0.097 -0.045,-0.24 -0.067,-0.423c-0.011,-0.091 -0.023,-0.19 -0.034,-0.304c-0.009,-0.11 -0.013,-0.23 -0.027,-0.36c-0.00864,-0.13554 -0.01464,-0.27123 -0.018,-0.407c-0.01923,-0.87123 -0.00489,-1.74288 0.043,-2.613c0.043,-0.788 0.103,-1.626 0.166,-2.466c0.07,-0.838 0.138,-1.675 0.205,-2.463c0.032,-0.394 0.06,-0.772 0.088,-1.135c0.027,-0.36 0.047,-0.7 0.065,-1.014c0.016,-0.315 0.027,-0.605 0.032,-0.86c0.002,-0.13 0.002,-0.247 0.006,-0.36c0,-0.109 -0.004,-0.21 -0.004,-0.304c-0.005,-0.183 -0.007,-0.328 -0.016,-0.428c-0.00377,-0.04995 -0.00677,-0.09996 -0.009,-0.15l0.018,0.15c0.011,0.1 0.02,0.245 0.034,0.428c0.004,0.093 0.011,0.195 0.013,0.304c0.003,0.113 0.005,0.23 0.01,0.36v0.41c-0.005,0.142 -0.007,0.296 -0.01,0.452c-0.02343,0.71932 -0.06077,1.43812 -0.112,2.156l-0.187,2.465c-0.07,0.838 -0.135,1.676 -0.184,2.464c-0.023,0.394 -0.05,0.772 -0.063,1.132c-0.018,0.36 -0.027,0.704 -0.032,1.019c0,0.158 0,0.305 -0.002,0.453c0.002,0.142 0.002,0.278 0.007,0.407c0.006,0.127 0.006,0.247 0.015,0.358c0.01,0.109 0.014,0.213 0.023,0.303c0.009,0.09 0.018,0.175 0.022,0.245c0.007,0.07 0.018,0.131 0.027,0.18l0.02,0.148M242.079,170.364c0,0 0.03,0.022 0.083,0.065c0.056,0.041 0.142,0.1 0.239,0.186c0.047,0.04 0.1,0.088 0.16,0.143c0.026,0.029 0.06,0.054 0.087,0.083c0.032,0.032 0.06,0.064 0.092,0.095l0.1,0.102c0.03,0.034 0.067,0.068 0.098,0.111c0.063,0.077 0.135,0.159 0.203,0.247l0.205,0.28c0.07,0.1 0.137,0.207 0.202,0.313l0.198,0.344c0.063,0.118 0.128,0.243 0.19,0.365c0.055,0.127 0.116,0.256 0.17,0.39c0.059,0.133 0.115,0.264 0.164,0.402c0.05,0.138 0.104,0.277 0.149,0.42c0.025,0.07 0.047,0.14 0.067,0.212l0.066,0.213c0.085,0.285 0.157,0.575 0.222,0.863c0.068,0.285 0.12,0.568 0.165,0.844c0.05,0.274 0.087,0.543 0.117,0.795l0.045,0.369c0.009,0.12 0.02,0.235 0.029,0.346c0.034,0.444 0.045,0.818 0.052,1.076c0.004,0.262 0,0.41 0,0.41c0,0 -0.007,-0.148 -0.027,-0.41c-0.02289,-0.35738 -0.05758,-0.71391 -0.104,-1.069c-0.0258,-0.23703 -0.05715,-0.47343 -0.094,-0.709c-0.08187,-0.5456 -0.18394,-1.08797 -0.306,-1.626c-0.07,-0.282 -0.14,-0.568 -0.225,-0.85l-0.063,-0.213l-0.068,-0.209c-0.045,-0.145 -0.097,-0.278 -0.146,-0.416c-0.023,-0.068 -0.052,-0.136 -0.074,-0.202c-0.02824,-0.06565 -0.05393,-0.13236 -0.077,-0.2c-0.056,-0.133 -0.117,-0.26 -0.17,-0.386c-0.062,-0.123 -0.12,-0.247 -0.179,-0.365c-0.05999,-0.11538 -0.12133,-0.23006 -0.184,-0.344c-0.068,-0.106 -0.128,-0.213 -0.191,-0.315l-0.196,-0.283c-0.06188,-0.08541 -0.12523,-0.16976 -0.19,-0.253c-0.03001,-0.03963 -0.06205,-0.07768 -0.096,-0.114c-0.0283,-0.03455 -0.05765,-0.06823 -0.088,-0.101c-0.027,-0.037 -0.058,-0.068 -0.083,-0.1c-0.02807,-0.02993 -0.05743,-0.05863 -0.088,-0.086c-0.04788,-0.05271 -0.09724,-0.10406 -0.148,-0.154c-0.092,-0.088 -0.173,-0.154 -0.225,-0.2c-0.052,-0.047 -0.081,-0.07 -0.081,-0.07" fill="#0b4768"/><path d="M235.174,173.098h0.995v50.93h-0.995z" fill="#0d8ebc"/><path d="M238.952,173.089c-1.453,0.443 -4.574,0.391 -6.073,0.128c-0.436,-0.076 -0.756,-0.357 -0.99,-0.59c-0.607,-0.614 0,-3.469 0,-3.469c1.24,0.203 3.548,1.333 3.807,3.853c0.227,-2.53 2.588,-3.651 3.834,-3.86c0,0 0.542,2.803 0,3.476c-0.034,0.043 -0.072,0.084 -0.112,0.124l-0.124,0.109c-0.102,0.086 -0.205,0.19 -0.342,0.229" fill="#0d8ebc"/><path d="M235.63,173.024c-0.268,-1.738 -1.272,-2.68 -2.064,-3.16c-0.866,-0.526 -1.676,-0.639 -1.685,-0.641l0.02,-0.134c0.032,0.007 0.842,0.118 1.726,0.657c0.821,0.496 1.859,1.465 2.135,3.256z" fill="#0b4768"/><path d="M235.761,173.019l-0.132,-0.014c0.34,-3.224 3.854,-3.912 3.89,-3.917l0.022,0.13c-0.033,0.006 -3.453,0.676 -3.78,3.8" fill="#0b4768"/><path d="M231.644,171.933c0,0 0.005,0.039 0.018,0.109c0.011,0.068 0.03,0.17 0.076,0.29c0.046,0.12 0.124,0.262 0.248,0.39c0.1446,0.13774 0.31528,0.24518 0.502,0.316c0.414,0.16 0.931,0.233 1.485,0.272c0.274,0.018 0.562,0.03 0.857,0.036c0.29,0.005 0.587,0.005 0.887,0.005c0.58137,0.00081 1.16263,-0.01586 1.743,-0.05c0.26611,-0.01714 0.53114,-0.04818 0.794,-0.093c0.248,-0.043 0.482,-0.104 0.684,-0.192c0.2,-0.089 0.37,-0.2 0.491,-0.331c0.12,-0.134 0.191,-0.276 0.234,-0.399c0.04286,-0.12091 0.07139,-0.24644 0.085,-0.374c0.005,-0.015 0.005,-0.026 0.005,-0.026c0,0 0,0.011 -0.005,0.027c0,0.02 0,0.045 -0.002,0.08c-0.009,0.07 -0.02,0.173 -0.06,0.303c-0.04442,0.15314 -0.11886,0.29591 -0.219,0.42c-0.119,0.146 -0.29,0.275 -0.497,0.37c-0.207,0.1 -0.446,0.167 -0.698,0.222c-0.254,0.05 -0.522,0.088 -0.8,0.113c-0.284,0.022 -0.572,0.038 -0.865,0.047c-0.294,0.01 -0.594,0.014 -0.89,0.014c-0.3,0 -0.597,0 -0.89,-0.007c-0.28804,-0.00939 -0.5758,-0.02606 -0.863,-0.05c-0.2705,-0.02067 -0.5396,-0.05672 -0.806,-0.108c-0.2393,-0.04386 -0.47305,-0.11395 -0.697,-0.209c-0.10059,-0.04254 -0.19644,-0.09549 -0.286,-0.158c-0.21732,-0.14747 -0.38086,-0.36155 -0.466,-0.61c-0.036,-0.124 -0.047,-0.23 -0.056,-0.298c-0.00379,-0.03626 -0.00679,-0.07261 -0.009,-0.109" fill="#0b4768"/><path d="M258.558,149.709c1.186,0.767 1.967,2.076 1.967,3.561c0,2.366 -1.982,4.284 -4.424,4.284c-0.069,0 -0.139,-0.002 -0.207,-0.007c-3.962,7.141 -11.542,11.973 -20.25,11.973c-8.712,0 -16.299,-4.84 -20.256,-11.992c-0.158,0.016 -0.324,0.027 -0.486,0.027c-2.444,0 -4.428,-1.918 -4.428,-4.284c0,-1.596 0.904,-2.986 2.241,-3.722c-0.156,-1.094 -0.237,-2.21 -0.237,-3.346c0,-12.877 10.373,-23.314 23.166,-23.314c12.801,0 23.173,10.437 23.173,23.314c0,1.193 -0.09,2.361 -0.259,3.507" data-paper-data="{&quot;origPos&quot;:null}" fill="#c08f69"/><path d="M230.645,146.474c0,0 -0.463,1.61 -1.916,1.292c-0.71,-0.156 -0.835,-1.074 -3.114,-0.662c-0.716,0.161 -2.223,1.033 -2.513,1.615c-0.29,0.583 -0.08,-2.136 2.26,-3.146c1.688,-0.602 2.26,-0.573 3.658,-0.573c1.398,0 1.828,0.81 1.625,1.474M240.355,146.474c0,0 0.463,1.61 1.916,1.292c0.71,-0.156 0.835,-1.074 3.114,-0.662c0.716,0.161 2.223,1.033 2.513,1.615c0.29,0.583 0.08,-2.136 -2.26,-3.146c-1.688,-0.602 -2.26,-0.573 -3.658,-0.573c-1.398,0 -1.828,0.81 -1.625,1.474M228.77,153.55c0,1.574 -0.862,2.85 -1.924,2.85c-1.062,0 -1.923,-1.276 -1.923,-2.85c0,-1.574 0.86,-2.85 1.923,-2.85c1.062,0 1.923,1.276 1.923,2.85M246.077,153.55c0,1.574 -0.86,2.85 -1.923,2.85c-1.063,0 -1.923,-1.276 -1.923,-2.85c0,-1.574 0.86,-2.85 1.923,-2.85c1.062,0 1.923,1.276 1.923,2.85" fill="#2c2c2d"/><path d="M232.615,156.4c0,0 0.2,-0.99 0.485,-1.275c0.77,-1.135 2.395,-1.575 2.395,-1.575c0,0 2.092,0.69 2.552,1.56c0.427,0.808 0.327,1.215 0.327,1.215c0,0 -2.042,-1.837 -2.85,-1.725c-1.084,0.15 -2.909,1.8 -2.909,1.8z" fill="#e2a86e"/><path d="M228.962,158.961c0,0 6.633,3.049 12.667,-0.377c0,0 -1.338,5.196 -5.721,5.283c-3.958,0.116 -4.792,-1.417 -5.268,-1.857c-0.473,-0.441 -1.365,-1.684 -1.679,-3.05" data-paper-data="{&quot;origPos&quot;:null}" fill="#a73e3e"/><path d="M259.621,142.986c0.036,2.735 -0.916,8.66 -2.768,12.192c0,0 -4.558,-12.978 -8.316,-15.031c-4.585,-2.514 -16.679,1.109 -20.781,-2.147c-0.679,-0.539 -0.606,-1.766 -0.606,-1.766c0,0 -0.78,1.56 -1.16,1.997c-1.991,2.273 -7.142,5.568 -9.583,7.336c-1.966,1.424 -2.059,1.406 -1.624,9.611c0,0 -3.612,-7.465 -3.414,-12.45c0.055,-1.436 0.75,-4.621 1.875,-7.857c4.077,-8.237 12.528,-13.895 22.29,-13.895c11.214,0 20.696,7.464 23.806,17.724c0.15912,1.42361 0.25255,2.85379 0.28,4.286" fill="#2c2c2d"/></g></g></svg>