<svg xmlns="http://www.w3.org/2000/svg" width="58.733" height="116.567"><g fill-rule="evenodd" stroke-miterlimit="10" data-paper-data="{&quot;isPaintingLayer&quot;:true}" style="mix-blend-mode:normal"><path fill="#ffdc83" d="m25.13 110.641-.514-19.238s4.328-4.752 6.313-5.303c1.427-.402 5.854.911 5.854.911l-1.96 23.63h-.005c1.815 1.129 3.133 3.42 1.577 5.287-1.174 1.317-2.906.279-4.22-.277-1.452-.69-3.11-1.178-4.426-2.077-.851-.596-1.847-1.242-2.422-2.128-.178-.272-.261-.55-.197-.805m-11.007 0h-.004l-1.961-23.63s4.365-1.33 5.773-.941c2.01.549 6.394 5.333 6.394 5.333l-.514 19.238c.062.262-.022.533-.197.805-.577.886-1.575 1.532-2.424 2.128-1.314.9-2.974 1.386-4.43 2.077-1.313.556-3.038 1.594-4.216.277-1.556-1.867-.238-4.167 1.579-5.287M.904 77.766c.107-1.002.441-1.896.92-2.585l-.01.064s1.417-14.224 5.113-18.953c1.693-2.167 7.543-5.31 8.225-5.67 1.292-.938 4.202-1.36 6.015-1.528-.305-.671-.489-1.398-.489-1.926h7.65c0 .528-.178 1.244-.48 1.91 1.779.173 4.367.759 6.06 1.527.75.337 2.32.832 3.09 1.107 2.334.813 8.602 3.087 8.602 3.087l5.543-6.518a4.574 4.574 0 0 1-.208-.839c-.355-.648-.65-1.46-.825-2.364-.458-2.366.054-4.456 1.147-4.668.585-.116 1.215.332 1.748 1.135 1.175-1.133 2.625-1.605 3.84-1.092 1.854.789 2.443 3.589 1.316 6.258-.726 1.712-1.982 2.952-3.279 3.413h.003s-3.46 9.83-6.468 10.925c-2.438.884-11.34-2.695-11.34-2.695v-.015c1.672 10.213-.075 25.801-.075 25.801H11.94s-1.5-14.151-.157-24.327v.009c-.197.538-1.277 1.497-2.14 2.714-1.713 2.428-3.322 12.703-3.322 12.703.043.069.077.142.114.214.437.427.859.998 1.212 1.667.933 1.758 1.029 3.532.217 3.961-.433.23-1.04.03-1.65-.478-.658 1.177-1.69 1.9-2.769 1.785-1.656-.174-2.79-2.245-2.541-4.622" data-paper-data="{&quot;origPos&quot;:null}"/><path fill="#eeac6c" d="M21.497 49.702c-.428-.66-.733-1.571-.803-2.23 2.523.412 5.098.402 7.618-.03l-.015.015-6.8 2.244"/><path fill="#333433" d="M37.265 59.614c1.558 6.672-.045 26.824-.482 27.4-4.973-.076-12.167 4.389-12.167 4.389h-.291s-6.986-4.592-12.168-4.39c-.435-.573-1.864-19.676-.512-26.046 0 0 4.507-5.12 7.2-11.57a8.03 8.03 0 0 1 1.545-.221s1.297 2.716 4.226 2.716c2.88 0 4.153-2.705 4.153-2.705s.945.094 1.695.326c.613 4.256 6.801 10.1 6.801 10.1"/><path fill="#ffdc83" d="M1.965 28.094a23.276 23.276 0 0 1-.26-3.48c0-12.787 10.355-23.15 23.122-23.15 12.77 0 23.126 10.363 23.126 23.15 0 1.126-.086 2.235-.24 3.321 1.335.732 2.235 2.111 2.235 3.697 0 2.347-1.976 4.25-4.415 4.25-.167 0-.328-.009-.49-.026-3.95 7.104-11.518 11.907-20.216 11.907-8.685 0-16.25-4.795-20.205-11.885a6.453 6.453 0 0 1-.204.004C1.975 35.882 0 33.979 0 31.632c0-1.476.78-2.777 1.965-3.538" data-paper-data="{&quot;origPos&quot;:null}"/><path fill="#ad6920" d="M20.526 24.568s-.503 1.803-2.082 1.446c-.772-.174-.908-1.201-3.386-.74-.779.18-2.417 1.156-2.732 1.808-.316.652-.088-2.392 2.457-3.522 1.835-.675 2.457-.642 3.977-.642s1.987.907 1.766 1.65m9.741 0s.503 1.803 2.082 1.446c.772-.174.908-1.201 3.386-.74.779.18 2.417 1.156 2.732 1.808.316.652.087-2.392-2.457-3.522-1.835-.675-2.457-.642-3.977-.642s-1.987.907-1.766 1.65"/><path fill="#eeac6c" d="M25.235 34.987c-1.125.153-3.02 1.834-3.02 1.834s.207-1.009.503-1.299c.8-1.156 2.487-1.604 2.487-1.604s2.173.703 2.65 1.588c.443.824.34 1.238.34 1.238s-2.121-1.871-2.96-1.756zM18.415 38.614s6.897 3.208 13.172-.397c0 0-1.39 5.47-5.95 5.561-4.115.122-4.984-1.492-5.477-1.956-.492-.463-1.42-1.772-1.745-3.208"/><path fill="#fff" d="M33.618 29.73c0-1.435.861-2.598 1.918-2.598 1.06 0 1.92 1.163 1.92 2.598 0 1.435-.86 2.598-1.92 2.598-1.057 0-1.918-1.163-1.918-2.598m-20.61 0c0-1.435.857-2.598 1.92-2.598 1.056 0 1.913 1.163 1.913 2.598 0 1.435-.857 2.598-1.913 2.598-1.063 0-1.92-1.163-1.92-2.598"/><path fill="#2aa73f" d="M34.348 30.447c0-.889.534-1.609 1.187-1.609.658 0 1.188.721 1.188 1.608 0 .889-.53 1.61-1.188 1.61-.653 0-1.187-.721-1.187-1.609m-20.611 0c0-.889.53-1.609 1.19-1.609.654 0 1.185.721 1.185 1.608 0 .889-.531 1.61-1.184 1.61-.66 0-1.19-.721-1.19-1.609"/><path fill="#ad6920" d="M48.766 21.825c.035 2.706-1.167 6.467-1.167 6.467s-6.108-7.239-9.834-9.273c-4.554-2.48-6.825 1.176-10.896-2.04-.673-.535-1.933-1.948-1.933-1.948s-1.528 1.551-1.937 1.948c-4.578 4.484-8.008-.749-11.863 1.958-4.903 3.45-9.05 9.192-9.05 9.192S.664 26.496.865 21.572c.051-1.42.741-4.565 1.858-7.762C6.771 5.675 15.158.085 24.854.085c11.135 0 20.548 7.374 23.636 17.507.158 1.406.25 2.818.276 4.233"/><path fill="#333433" d="M48.819 25.121c-23.852-4.529-23.852-4.529-47.782-.007-.233-1.192-.368-2.368-.326-3.434.058-1.431.75-4.607 1.88-7.833C6.675 5.636 15.142 0 24.924 0c11.235 0 20.734 7.44 23.852 17.665.162 1.419.254 2.844.276 4.272.013.822-.068 1.935-.233 3.184"/><path fill="#eeeeed" d="m8.198 28.942-.13.425S1.524 23.409.815 20.669c-.005-.868.37-1.954.37-1.954.842 3.313 7.014 10.227 7.014 10.227z"/><path fill="#eeeeed" d="m8.198 28.942-.13.425s-4.847-3.338-6.632-3.463c0 0-.444-.448-.489-1.268 2.887-.049 7.252 4.306 7.252 4.306z"/><path fill="#5c5c5c" d="M20.018 30.124c0 1.59-2.824 2.88-6.309 2.88-3.486 0-6.31-1.887-6.31-3.476 0-1.592 2.824-2.285 6.31-2.285 3.485 0 6.309 1.291 6.309 2.881"/><path fill="#333433" d="M19.141 30.43c0 1.309-2.04 2.373-4.56 2.373-2.516 0-4.558-1.064-4.558-2.373 0-1.31 2.042-2.373 4.558-2.373 2.52 0 4.56 1.062 4.56 2.373"/><path fill="#eeeeed" d="M41.7 28.942s6.334-6.964 7.176-10.279c0 0 .15 1.208.14 2.075-.706 2.742-7.183 8.63-7.183 8.63z"/><path fill="#eeeeed" d="M41.7 28.942s4.292-4.355 7.183-4.306c0 .895-.47 1.273-.47 1.273-1.785.126-6.58 3.458-6.58 3.458z"/><path fill="#5c5c5c" d="M29.883 30.124c0-1.59 2.822-2.881 6.31-2.881 3.482 0 6.309.693 6.309 2.285 0 1.589-2.827 3.476-6.309 3.476-3.488 0-6.31-1.29-6.31-2.88"/><path fill="#333433" d="M30.757 30.43c0-1.311 2.045-2.373 4.562-2.373 2.518 0 4.558 1.063 4.558 2.373 0 1.309-2.04 2.373-4.558 2.373s-4.562-1.064-4.562-2.373"/><path fill="#eeeeed" d="M20.39 30.313c0 .33-.28.6-.625.6a.613.613 0 0 1-.624-.6.61.61 0 0 1 .624-.599c.345 0 .625.266.625.599m10.395 0c0 .33-.283.6-.624.6a.613.613 0 0 1-.624-.6.61.61 0 0 1 .624-.599c.34 0 .623.266.623.599"/><path fill="#eeeeed" d="M30.195 30.426s-5.46-.434-10.4 0v-.462c5.17-.753 10.4 0 10.4 0z"/></g></svg>