<svg xmlns="http://www.w3.org/2000/svg" xmlns:xlink="http://www.w3.org/1999/xlink" width="120" height="120"><defs><path id="a" d="M.277.387H100.68v7.049H.277z"/><path id="c" d="M0 .21h45.148v83.985H0z"/></defs><g fill="none" fill-rule="evenodd"><path fill="#D32F2F" d="m79.067 38.92 1.107 46.888c-.27-15.522-.664-30.95-1.061-46.38l-.046-.509"/><path fill="#D32F2F" d="m79.993 85.835-1.108-46.889.362-.065.01.1.037.406c.387 15.054.787 30.608 1.062 46.395l-.363.053zm.857-36.332c.226 12.041.478 24.073.942 36.075l-.842-35.696c-.033-.126-.068-.252-.1-.379"/><path fill="#D32F2F" d="M81.611 85.608c-.474-12.245-.726-24.537-.944-36.079l-.029-1.572.387 1.48.091.341.016.077.842 35.696-.363.057zm1.318-20.201.48 19.942c-.063-6.528-.214-13.044-.393-19.559a23.44 23.44 0 0 1-.087-.383"/><path fill="#D32F2F" d="m83.228 85.376-.48-19.941.359-.088c.027.127.056.254.086.38l.005.035c.147 5.332.325 12.374.394 19.562l-.364.052zm1.486-11.852c.103 3.872.208 7.74.313 11.595l-.279-11.504-.034-.091"/><path fill="#D32F2F" d="m84.846 85.147-.314-11.596-.03-1.109.427 1.116v.03l.28 11.503v.001l-.363.055zm1.654-6.593c.05 2.385.102 4.77.158 7.147l-.151-7.128-.008-.019"/><path fill="#D32F2F" d="M86.477 85.728a2778.06 2778.06 0 0 1-.159-7.147l-.024-1.12.387 1.037.007.048.152 7.129-.363.053zm1.715-3.524.084 3.268a352.873 352.873 0 0 0-.072-3.25c-.003-.007-.008-.012-.012-.018"/><path fill="#D32F2F" d="m88.095 85.5-.1-3.932.377.56.013.066c.032 1.251.055 2.284.071 3.252l-.361.053zM76.389 47.446c.08 12.268.172 24.54.349 36.847l.01.002-.309-36.918c-.032-2.001-.033.046-.05.069"/><path fill="#D32F2F" d="m76.932 84.516-.372-.068-.002-.13c-.18-12.486-.275-25.09-.35-36.848l.004-.073c.003-.087.007-.268.009-.407.002-.119.003-.236.006-.325.004-.165.008-.321.186-.346.112-.016.158-.023.18.187h.002v.004c.015.15.02.406.026.841l.311 37.165zm-2.08-31.206.153 30.713.033.005c.055-10.26-.047-20.495-.179-30.73l-.007.011"/><path fill="#D32F2F" d="m75.22 84.238-.226-.028.045-.182-.046.181-.168-.022-.154-30.907.355-.605.015.597c.126 9.75.236 20.222.18 30.734l-.002.232zm-1.955-.406-.043-5.365a190.76 190.76 0 0 0 .005 5.361l.038.004"/><path fill="#D32F2F" d="m73.447 84.035-.399-.037-.002-.143a188.544 188.544 0 0 1-.005-5.368l.362-.045.044 5.593z"/><path fill="#D32F2F" d="m73.09 61.512.132 16.954c.066-5.72.284-11.01-.132-16.954"/><path fill="#D32F2F" d="m73.404 78.446-.363.045-.133-16.954.363-.06c.336 4.773.262 9.066.184 13.612a585.196 585.196 0 0 0-.05 3.357"/><path fill="#D32F2F" d="M73.059 60.866a.837.837 0 0 1-.006.114c.015.18.024.354.037.532l-.006-.688-.025.042"/><path fill="#D32F2F" d="m72.908 61.548-.014-.219-.021-.312-.005-.055.008-.014.001-.063.002-.051.05-.086.33-.585.011 1.325-.362.06zm-1.515 5.029.13 17.117h.01c-.025-5.738-.052-11.499-.089-17.252l-.051.135"/><path fill="#D32F2F" d="m71.716 83.892-.368-.026-.006-.148-.131-17.153.064-.168.344-.923.007.944c.039 5.958.066 12.03.09 17.253v.22zm-1.935-.312a4318.86 4318.86 0 0 0-.116-10.18l.11 10.18h.006"/><path fill="#D32F2F" d="m69.964 83.777-.217-.014.034-.183-.037.183-.146-.01-.004-.148-.11-10.18.362-.05c.04 3.393.081 6.788.116 10.18l.002.222zm-.339-13.749.04 3.372-.036-3.379-.004.007"/><path fill="#D32F2F" d="m69.846 73.375-.362.05-.041-3.431.356-.546.01.549zm-1.85.565.045 7.27c0-2.48.012-4.95.013-7.414-.019.048-.037.096-.058.145"/><path fill="#D32F2F" d="m68.221 81.187-.362.047-.044-7.308.015-.037.037-.093.368-.93v.907l-.007 3.627c-.003 1.26-.006 2.523-.007 3.787"/><path fill="#D32F2F" d="m68.054 83.468-.013-2.258c0 .752 0 1.504.002 2.257h.011"/><path fill="#D32F2F" d="m68.236 83.665-.374-.027v-.148c-.003-.753-.003-1.505-.003-2.257l.362-.047.015 2.48zm-1.997-6.806.059 6.47.16.013c-.02-2.196-.108-4.362-.182-6.53l-.037.047z"/><path fill="#D32F2F" d="m66.643 83.544-.525-.047-.061-6.683.385-.489.055 1.56c.063 1.773.127 3.607.144 5.433l.002.226zm-2.118-.411c-.038-1.07-.078-2.14-.107-3.21l.066 3.204.041.006"/><path fill="#D32F2F" d="m64.714 83.346-.408-.055-.07-3.342.361-.055c.03 1.019.066 2.037.103 3.055l.014.397zM31.112 10.341l.143 72.859m.182-.023-.363.046-.143-72.859.363-.046zm-1.893.266-.08-47.33c-.003 15.745-.042 31.49.08 47.33"/><path fill="#D32F2F" d="m29.724 83.42-.362.047c-.1-13.047-.092-26.24-.083-39l.004-8.33v-.001l.362-.046.079 47.33zm-.291-65.811.031 18.504c.002-6.168-.004-12.337-.025-18.51l-.006.006"/><path fill="#D32F2F" d="m29.645 36.09-.362.046-.031-18.578.36-.419.007.44c.019 5.568.028 11.623.026 18.51m-1.919-11.554c.006 2.791.012 5.584.021 8.38l-.014-8.409-.007.029"/><path fill="#D32F2F" d="m27.927 32.892-.361.047c-.01-2.797-.016-5.59-.022-8.381l.006-.044.354-1.498.01 1.468.013 8.408zm-.095 50.794c.055-16.924-.033-33.884-.085-50.77l.085 50.77z"/><path fill="#D32F2F" d="m28.013 83.664-.363.045-.084-50.768v-.003l.361-.046c.01 3.434.023 6.87.035 10.31.046 13.263.094 26.978.05 40.462m-1.974-48.906c-.003 16.358-.058 32.759.082 49.17l-.082-49.17z"/><path fill="#D32F2F" d="m26.3 83.906-.36.047c-.113-12.993-.101-26.185-.09-38.943.003-3.412.006-6.821.007-10.229l.362-.046.082 49.17zm-.268-52.723.006 3.575-.001-3.585-.005.01"/><path fill="#D32F2F" d="m26.219 34.735-.363.046-.005-3.611.36-.924.006 1.963.002 2.526m-1.896 2.914-.01.011c.009 15.482.023 30.982.096 46.512l-.078-46.533-.008.01"/><path fill="#D32F2F" d="m24.59 84.149-.363.046c-.072-15.462-.087-30.824-.096-46.512v-.072l.063-.074.308-.349.01.428.078 46.533zM22.63 43.66l.068 40.754c-.007-13.694.002-27.281-.025-40.865l-.044.111"/><path fill="#D32F2F" d="m22.878 84.392-.362.046-.068-40.79.404-1.042v.92c.02 9.494.022 19.168.023 28.523l.003 12.34v.003zm-1.892.265c.035-8.068.002-16.144-.04-24.224l.04 24.224z"/><path fill="#D32F2F" d="m21.167 84.635-.363.045-.04-24.224.362-.047c.04 7.717.076 15.944.04 24.226"/><path fill="#D32F2F" d="M20.893 50.042c.016 3.464.035 6.928.052 10.391l-.017-10.469c-.011.027-.024.052-.035.078"/><path fill="#D32F2F" d="m21.126 60.41-.362.047-.009-1.765-.044-8.626v-.042l.031-.07a.391.391 0 0 0 .019-.041l.346-.842.019 11.339zm-1.901-5.224.05 29.714c.094-10.002.053-19.914-.002-29.807a1.898 1.898 0 0 1-.048.093"/><path fill="#D32F2F" d="m19.455 84.88-.362.043-.05-29.763.025-.046.044-.085.337-.693.005.733c.052 9.565.095 19.746 0 29.81m-1.978-24.622c.004 8.305.023 16.606.087 24.886l-.042-24.941-.045.055"/><path fill="#D32F2F" d="m17.743 85.12-.362.047c-.055-7.15-.081-14.826-.086-24.887v-.068l.085-.107.32-.438.043 25.453zm-1.927-20.837.036 21.103c.028-7.055.029-14.117.017-21.18l-.053.077z"/><path fill="#D32F2F" d="m16.032 85.364-.362.045-.036-21.164.414-.607.001.545c.014 8.164.009 14.894-.017 21.18m-1.97-16.495c.01 5.578.03 11.162.078 16.76l-.028-16.892-.05.132"/><path fill="#D32F2F" d="m14.32 85.606-.362.047c-.041-5.016-.066-10.342-.077-16.762v-.037l.014-.035c.01-.026.02-.051.028-.077l.368-.973.03 17.837zm-1.968-12.323c.004 4.197.023 8.393.077 12.589l-.022-12.744c-.017.052-.036.103-.055.155"/><path fill="#D32F2F" d="m12.609 85.848-.362.049c-.049-3.803-.073-7.803-.077-12.59v-.034l.03-.08.036-.105.35-1.033.023 13.793zm-1.908-9.232.016 9.498c.005-3.166-.002-6.335-.012-9.504l-.004.006z"/><path fill="#D32F2F" d="m10.898 86.092-.363.045-.016-9.554.36-.58.006.584c.009 2.595.018 6.02.013 9.505M109.3 53.47c.049 11.974.101 23.96.22 36.004h.002l-.205-36.05a5.43 5.43 0 0 0-.016.046"/><path fill="#D32F2F" d="m109.706 89.663-.232-.008-.133-.018-.002-.138c-.116-11.807-.168-23.292-.22-36.005v-.034l.375-1.045.212 37.248zm-1.61-32.668.183 32.202.002.001a7272.57 7272.57 0 0 0-.165-32.27l-.02.067"/><path fill="#D32F2F" d="m108.464 89.465-.279-.1-.087-.042-.175-32.362.367-1.188.008 1.13c.082 12.03.141 22.123.165 32.272v.29zm-1.621-28.652c.04 9.302.09 18.614.185 27.932l.006.002-.159-28.03-.032.096"/><path fill="#D32F2F" d="m107.218 88.997-.37-.112v-.115c-.1-9.824-.15-19.634-.186-27.934v-.031l.389-1.165.167 29.357zm-1.586-24.687c.045 8.025.094 16.054.155 24.093l.004.001-.138-24.153-.02.06"/><path fill="#D32F2F" d="m105.974 88.623-.25-.042-.115-.03-.003-.124c-.067-8.804-.118-17.5-.155-24.093v-.033l.379-1.069.144 25.391zm-1.544-21.058.117 20.618h.003c-.033-6.915-.063-13.803-.096-20.68l-.023.062"/><path fill="#D32F2F" d="m104.731 88.383-.239-.02-.126-.024-.117-20.786.381-.996.004.923.052 11.194.045 9.71zm-1.521-17.2.095 16.821.008.002c-.015-5.61-.051-11.224-.094-16.841a.23.23 0 0 1-.01.018"/><path fill="#D32F2F" d="m103.494 88.211-.367-.042-.004-.14-.096-16.872.357-.659.015.643c.052 6.797.081 11.991.094 16.841l.001.23zm-1.509-13.889.077 13.533.019.002c.001-4.587-.016-9.158-.042-13.72l-.054.185z"/><path fill="#D32F2F" d="m102.26 88.064-.379-.042-.07-13.731.402-1.38.007 1.203c.03 5.201.042 9.56.04 13.72v.23zm-1.523-9.579c.021 3.08.043 6.161.07 9.239h.012l-.053-9.33-.03.09"/><path fill="#D32F2F" d="m101 87.925-.367-.033-.008-.144c-.028-3.077-.049-6.158-.07-9.24v-.03l.385-1.18.06 10.627zM99.542 81.4l.035 6.203.01.001c-.005-2.087-.012-4.175-.02-6.263l-.025.058z"/><path fill="#D32F2F" d="m99.769 87.81-.223-.024.04-.182-.043.182-.142-.013-.006-.146-.035-6.245.384-.878.003.814c.008 2.088.016 4.176.02 6.263l.002.23zm-1.481-4.305c.01 1.324.02 2.649.032 3.974l.014.002-.022-4.004-.024.028"/><path fill="#D32F2F" d="m98.516 87.687-.224-.024.041-.182-.045.181-.14-.013-.01-.145-.03-3.598-.003-.45.36-.427.027.424.024 4.234zm-1.47-2.793.022 2.452.023.003-.014-2.49-.03.035"/><path fill="#D32F2F" d="m97.273 87.557-.225-.026.043-.182-.054.18-.138-.016-.012-.143c-.007-.639-.012-1.279-.018-1.919l-.005-.609.078-.089.309-.359.007.44.015 2.723zM35.82 19.502c.14 4.754.288 9.513.439 14.273l-.426-14.245-.013-.028"/><path fill="#D32F2F" d="M36.078 33.803a6554.88 6554.88 0 0 1-.44-14.272l-.027-.915.389.823.015.062.427 14.246-.364.056z"/><path fill="#D32F2F" d="m36.26 33.775 1.504 50.166c-.4-16.662-.971-33.423-1.504-50.166"/><path fill="#D32F2F" d="m37.583 83.969-1.504-50.166.363-.057c.097 3.07.196 6.14.295 9.209.434 13.445.882 27.35 1.209 40.957v.002l-.363.055zm1.913-.066c-.403-15.853-.932-31.586-1.433-47.325l1.42 47.328a.159.159 0 0 1 .013-.003"/><path fill="#D32F2F" d="m39.32 84.12-.02-.186-1.418-47.325v-.003l.363-.057c.09 2.847.182 5.694.273 8.54.408 12.685.83 25.8 1.16 38.787l.004.173-.362.071z"/><path fill="#D32F2F" d="M37.95 32.963c.038 1.205.074 2.41.113 3.615l-.108-3.599-.005-.016"/><path fill="#D32F2F" d="m37.882 36.606-.067-2.126-.094-3.03.416 1.501.108 3.599-.363.056zm1.985 3.184c.414 14.587.82 29.216 1.313 43.801l.011-.001-1.311-43.736-.013-.065"/><path fill="#D32F2F" d="m41.016 83.8-.018-.18c-.451-13.39-.837-27.028-1.21-40.216l-.102-3.587.36-.084.015.093L41.38 83.74l-.363.06zm.873-34.266 1.015 33.83.016-.003c-.28-11.272-.632-22.517-.994-33.745l-.037-.082"/><path fill="#D32F2F" d="m43.106 83.525-.379.037-.005-.171-1.047-34.907.384.964.028.065.014.03.007.045c.346 10.75.708 22.21.994 33.746l.004.19zm.761-25.358.752 25.084h.006c-.23-8.338-.473-16.665-.723-24.984a6.842 6.842 0 0 1-.035-.1"/><path fill="#D32F2F" d="m44.813 83.431-.208.003.02-.183-.023.183-.157.002-.008-.157-.789-26.334.436 1.294c.286 9.536.516 17.475.722 24.984l.007.208zm.953-18.305c.189 6.034.38 12.075.568 18.137h.004l-.54-17.99-.032-.147"/><path fill="#D32F2F" d="m46.526 83.466-.225-.02.037-.182-.038.182-.14-.012-.007-.142-.569-18.138.359-.089.037.18zm1.118-13.147c.126 4.379.26 8.754.408 13.123l.009.002-.391-13.086-.026-.04"/><path fill="#D32F2F" d="m48.252 83.668-.375-.069-.005-.128a2371.17 2371.17 0 0 1-.409-13.124l-.02-.67.407.604.002.049.4 13.338zm1.214-8.475c.095 2.868.197 5.74.31 8.615l.015.004-.256-8.561c-.023-.019-.047-.037-.069-.058"/><path fill="#D32F2F" d="m49.982 84.048-.25-.057.06-.179-.067.178-.117-.027-.013-.125c-.105-2.667-.206-5.485-.31-8.616l-.016-.475.328.304.044.037.074.06.267 8.9zm1.396-4.664.141 4.72.006.002-.12-4.69c-.01-.01-.018-.021-.027-.032"/><path fill="#D32F2F" d="m51.713 84.312-.229-.025.04-.181-.04.181-.137-.014-.009-.14-.16-5.323.396.511.012.068c.041 1.563.082 3.126.12 4.689l.007.234zm1.444-2.515c.027.776.05 1.554.078 2.33l.004-.001-.069-2.299-.013-.03"/><path fill="#D32F2F" d="m53.065 84.382-.012-.226c-.014-.423-.029-.847-.042-1.271l-.07-2.042.409.922.074 2.476-.359.14zm56.95-34.475c-2.09 6.776-4.317 13.528-6.853 20.2-.88 2.315-1.754 4.629-2.628 6.944-.844 2.235-1.767 4.53-3.129 6.558-1.337 1.993-3.33 3.658-5.526 2.455-1.344-.737-2.239-2.115-3.04-3.386a28.148 28.148 0 0 1-2.192-4.27c-2.52-6.096-3.334-12.94-4.266-19.602-1.173-8.38-2.212-16.794-3.251-25.208-.052-.424-.734-.332-.68.097.987 8.002 1.975 16.004 3.078 23.977.965 6.971 1.741 14.18 4.297 20.596 1.33 3.34 5.285 12.22 10.426 7.683 1.737-1.532 2.832-3.78 3.735-5.825.913-2.069 1.619-4.192 2.423-6.292a391.088 391.088 0 0 0 7.64-21.862l-.034-2.065zM10.058 76.874c.034.423.067.846.095 1.27.854-1.569 1.622-3.179 2.354-4.753 1.763-3.792 3.315-7.662 4.756-11.554 3.137-8.472 5.603-17.147 7.93-25.78 2.469-9.153 4.524-18.362 6.707-27.553.354-1.49.71-2.982 1.07-4.473.105-.44-.554-.527-.66-.088-2.232 9.279-4.292 18.582-6.673 27.841-2.244 8.72-4.688 17.485-7.642 26.075-2.2 6.397-4.659 12.938-7.937 19.015"/><path fill="#D32F2F" d="M32.81 4.053c1.746 9.59 3.372 19.216 5.222 28.774.883 4.56 1.827 9.1 2.821 13.623.969 4.412 1.879 8.862 3.086 13.188a155.803 155.803 0 0 0 3.435 10.758c1.25 3.477 2.566 6.993 4.382 10.16.696 1.213 1.488 2.4 2.666 3.171 1.542 1.011 3.523 1.22 5.438.582 2.075-.691 3.634-2.24 4.768-4.116 1.346-2.224 2.651-4.473 3.82-6.783 5.54-10.952 7.65-23.083 9.37-34.705.241-1.626.472-3.252.7-4.88.062-.437-.597-.528-.659-.086-1.667 11.867-3.37 24.189-8.244 35.631-.93 2.188-2 4.325-3.164 6.42a118.377 118.377 0 0 1-1.868 3.232c-.693 1.16-1.358 2.317-2.403 3.217-1.796 1.546-4.204 2.171-6.234 1.454-1.537-.542-2.519-1.76-3.333-3.099-1.823-2.998-3.098-6.397-4.317-9.733a157.073 157.073 0 0 1-3.448-10.596c-1.126-3.92-1.976-7.948-2.87-11.954a573.249 573.249 0 0 1-2.887-13.688C37.346 25.79 35.83 16.886 34.23 8.008c-.254-1.41-.51-2.82-.766-4.229-.077-.42-.73-.145-.654.274"/><path fill="#EF5350" d="m32.899 12.55.073 4.495 18.663-2.649.067-4.514z"/><path fill="#D32F2F" d="m55.102 9.4-3.4.482-.067 4.515 3.54-.503z"/><path fill="#EF5350" d="m33.203 31.237.073 4.494 18.08-2.565.067-4.514z"/><path fill="#D32F2F" d="m55.406 28.086-3.983.566-.067 4.514 4.123-.585z"/><path fill="#EF5350" d="m33.508 49.923.073 4.494 17.495-2.482.067-4.514z"/><path fill="#D32F2F" d="m55.71 46.773-4.567.647-.067 4.515 4.708-.668zm.305 18.686-5.151.73-.067 4.515 5.29-.751z"/><path fill="#EF5350" d="m33.812 68.61.073 4.493 16.912-2.4.067-4.513z"/><path fill="#F26E55" d="M36.253 112.363c-.85-32.103-1.926-77.112-2.768-108.79l-.678.095 1.602 108.725 1.844-.03z"/><path fill="#D32F2F" d="M34.409 112.393 32.807 3.668l-.47.067c.08 31.398.385 76.75.472 108.684l1.6-.026zm22.211-.359L55.134.5l-.653.093c.08 31.862.414 79.329.498 111.467l1.64-.026z"/><path fill="#F26E55" d="M58.575 112.002C57.716 79.682 56.483 32.594 55.628.43l-.494.07 1.486 111.534 1.955-.032z"/><path fill="#EF5350" d="m78.356 39.29.047 2.9 12.037-1.708.044-2.912z"/><path fill="#D32F2F" d="m92.676 37.259-2.192.31-.044 2.912 2.283-.324z"/><path fill="#EF5350" d="m78.552 51.343.047 2.9 11.661-1.656.044-2.911z"/><path fill="#D32F2F" d="m92.872 49.311-2.569.365-.043 2.911 2.66-.377z"/><path fill="#EF5350" d="m78.748 63.396.047 2.899 11.285-1.602.043-2.911z"/><path fill="#D32F2F" d="m93.069 61.364-2.946.418-.043 2.911 3.036-.43zm.196 12.052-3.322.472-.044 2.911 3.413-.484z"/><path fill="#EF5350" d="m78.945 75.448.047 2.9 10.908-1.55.043-2.911z"/><path fill="#F26E55" d="M80.564 106.57c-.547-20.678-1.289-52.703-1.83-73.07l-.437.062 1.08 73.027 1.187-.02z"/><path fill="#D32F2F" d="m79.377 106.59-1.08-73.028-.303.043c.05 20.185.297 52.43.354 73l1.029-.016zm14.326-.232-1.006-74.84-.421.06c.051 20.484.316 54.086.371 74.797l1.056-.017z"/><path fill="#F26E55" d="M94.962 106.337c-.553-20.824-1.396-54.185-1.946-74.864l-.319.046 1.006 74.838 1.259-.02z"/><path fill="#F26E55" d="M110.636 88.071c-32.007-6.048-66.381-7.079-100.291-3.063-.006.51-.017 1.02-.033 1.53 33.936-4.004 68.33-2.953 100.35 3.12l-.026-1.587z"/><g transform="translate(10 83.31)"><mask id="b" fill="#fff"><use xlink:href="#a"/></mask><path fill="#D32F2F" d="M100.654 5.849C68.635-.201 34.248-1.231.327 2.789a78.716 78.716 0 0 1-.05 1.533C34.229.31 68.644 1.359 100.68 7.436l-.026-1.587z" mask="url(#b)"/></g><path fill="#F26E55" d="M54.877.922c1.754 9.628 3.387 19.293 5.245 28.888 1.736 8.954 3.595 17.9 5.84 26.68 1.843 7.211 3.81 14.554 6.828 21.24 1.168 2.59 2.954 6.192 6.272 6.278 2.177.056 3.788-1.972 4.863-3.75 1.495-2.474 2.658-5.112 3.612-7.786 2.012-5.646 3.146-11.536 3.995-17.323.927-6.315 1.341-12.637 1.466-18.916.032-1.59.043-3.177.04-4.763-.002-.439-.682-.342-.681.097.027 11.866-.805 24.02-3.967 35.906-.743 2.794-1.653 5.57-2.848 8.257a39.64 39.64 0 0 1-1.965 3.854c-.688 1.179-1.498 2.464-2.68 3.217-2.171 1.382-4.376-.339-5.542-1.89-.767-1.02-1.343-2.202-1.876-3.376-2.938-6.467-4.852-13.57-6.664-20.544-2.168-8.35-3.948-16.867-5.633-25.383-1.745-8.82-3.26-17.71-4.857-26.576A2065.46 2065.46 0 0 0 55.531.65c-.077-.421-.73-.146-.654.273"/><path fill="#F26E55" d="M110.611 86.52c-.225.248-.473.48-.753.69-2.219 1.658-4.239.148-5.461-1.494-2.366-3.177-3.84-7.076-4.89-10.987-1.111-4.142-1.74-8.45-2.33-12.753a1019.42 1019.42 0 0 1-1.823-14.123C94.69 42.43 94.054 37 93.42 31.57c-.05-.426-.731-.333-.681.097 1.238 10.577 2.463 21.16 3.934 31.679.636 4.546 1.356 9.093 2.687 13.41.63 2.044 1.4 4.03 2.356 5.91.887 1.745 1.896 3.621 3.384 4.89 1.448 1.235 3.456 1.508 5.229.104a5.91 5.91 0 0 0 .297-.255l-.014-.886z"/><g transform="translate(10 .3)"><mask id="d" fill="#fff"><use xlink:href="#c"/></mask><path fill="#F26E55" d="M20.965 75.723c-2.07 3.517-5.026 7.055-9.178 7.743-2.788.461-5.041-.859-6.978-2.447-1.83-1.502-3.427-3.26-4.81-5.192.04.445.073.89.105 1.335.453.592.919 1.173 1.42 1.724 1.653 1.825 3.592 3.694 5.901 4.697 3.956 1.719 8.662-.368 11.631-3.933 2.397-2.877 4.073-6.381 5.618-9.704 1.762-3.792 3.315-7.662 4.756-11.554 3.137-8.472 5.602-17.147 7.93-25.78 2.468-9.153 4.523-18.362 6.707-27.553.354-1.491.71-2.982 1.07-4.473.105-.44-.555-.527-.66-.088-2.232 9.279-4.292 18.582-6.674 27.841-2.243 8.72-4.687 17.485-7.641 26.075-2.479 7.205-5.257 14.61-9.197 21.309" mask="url(#d)"/></g><path fill="#F26E55" d="m10.34 85.558.146-.02-.147-9.094-.31.044c.247 3.025.365 6.052.31 9.07m1.963-.278-.362.051-.104-6.38.362-.05zm2.3-.327-.362.052-.059-3.598.362-.051zm12.003-.492-.362.052-.044-2.727.361-.051zm1.876-.266-.362.052-.063-3.874.362-.052zm2.057-.292-.361.052-.102-6.293.361-.051zm1.95-.276-.363.051-.146-8.956.363-.052zm4.225-.599-.363.051-.279-17.11.363-.052zm2.683.83-.363.052-.39-23.999.362-.051zm2.542-.36-.364.051-.508-31.251.363-.051zm2.421-.344-.363.052-.611-37.5.363-.052zm2.668-.023-.363.052-.763-46.835.363-.052zm2.427.019-.363.052-.891-54.716.363-.052zm2.459.385-.363.052-1.058-64.972.363-.051zm2.214-.315-.363.053-1.206-74.037.363-.051zm4.406.587c-.275-15.72-.696-31.606-1.103-46.969-.221-8.382-.45-17.05-.654-25.593l.363-.054c.203 8.543.432 17.21.655 25.592.406 15.364.827 31.25 1.102 46.972l-.363.052zm1.739-.243c-.549-13.558-.808-27.387-1.059-40.761a3614.58 3614.58 0 0 0-.439-21.222l.363-.055c.174 7.075.31 14.268.44 21.225.25 13.372.509 27.199 1.058 40.753l-.363.06zm2.101-.301-.363.049c-.087-9.626-.388-19.39-.679-28.832-.23-7.483-.469-15.22-.6-22.868l.363-.051c.131 7.644.37 15.38.6 22.862.291 9.445.592 19.21.68 28.84m1.376-.195-.113-3.962c-.347-12.314-.706-25.047-.92-37.425l.363-.052c.214 12.376.573 25.108.92 37.421l.112 3.963-.363.055zm1.751.561c-.125-5.15-.233-10.405-.336-15.487-.11-5.358-.223-10.899-.356-16.286l.362-.054c.134 5.387.248 10.929.357 16.287.104 5.082.21 10.336.336 15.486l-.363.054zm1.739-.249c-.062-3.594-.19-7.217-.315-10.72-.165-4.682-.337-9.524-.347-14.265l.363-.047c.01 4.736.182 9.574.347 14.253.124 3.505.253 7.13.315 10.728l-.363.052zm1.74-.232c-.335-3.492-.323-6.99-.312-10.373.008-2.439.016-4.96-.106-7.443l.363-.064c.122 2.493.114 5.02.106 7.462-.011 3.375-.023 6.864.31 10.338l-.362.08zm1.755.802c-.134-2.38-.124-4.82-.116-7.178.006-1.554.013-3.16-.022-4.732l.362-.054c.035 1.577.029 3.186.022 4.742-.008 2.353-.018 4.787.115 7.157l-.361.066zm2.101-.303-.363.049c-.023-2.58-.132-5.202-.23-7.517l.364-.06c.096 2.317.206 4.943.23 7.528m1.375-.195c-.025-.909-.048-1.818-.07-2.727l.362-.055c.022.91.045 1.818.07 2.727l-.362.055zm2.122.991-.363.05c-.006-.543-.017-1.087-.028-1.63l.361-.053c.012.544.022 1.088.03 1.633m1.378-.175a22.475 22.475 0 0 1-.1-.861l.36-.08c.028.285.061.57.098.848l-.358.093zm3.848.029-.363.045c0-.39-.004-.788-.013-1.216l.362-.053c.01.43.014.83.014 1.224m1.394.892a816.153 816.153 0 0 1-.102-4.239l.362-.053c.031 1.412.063 2.824.102 4.236l-.362.056zm2.1-.291-.361.032c.078-2.192-.005-4.391-.104-6.64l.361-.061c.1 2.256.183 4.464.104 6.669m1.39.578c-.098-3.186-.167-6.43-.234-9.568l-.019-.902.364-.054.018.903c.067 3.136.136 6.38.234 9.564l-.363.057zm2.102-.295-.363.04c.054-3.378-.077-6.788-.203-10.087a424.607 424.607 0 0 1-.157-4.507l.363-.055c.042 1.501.1 3.027.156 4.502.127 3.304.258 6.72.204 10.107m1.386.378c-.332-3.959-.33-8.08-.326-12.067.002-2.916.004-5.931-.125-8.853l.363-.062c.13 2.93.127 5.95.125 8.87-.003 3.978-.006 8.093.325 12.036l-.362.076zm1.751.533c-.078-4.215-.22-8.432-.356-12.51-.182-5.445-.37-11.075-.404-16.651l.363-.048c.033 5.571.222 11.199.404 16.641.137 4.08.278 8.298.356 12.516l-.363.052zm3.781.062-.364.046c-.023-8.967-.259-18.138-.486-27.009-.149-5.82-.303-11.837-.397-17.742l.364-.052c.093 5.904.247 11.92.396 17.74.227 8.872.463 18.045.487 27.017m.976.246-.362.047c-.026-6.552-.225-13.19-.418-19.609-.138-4.582-.28-9.321-.357-13.973l.363-.052c.077 4.65.219 9.387.357 13.969.193 6.421.392 13.061.418 19.618m1.052.364-.363.052c-.131-8.2-.266-16.68-.588-25.273l.363-.059c.322 8.597.457 17.078.588 25.28m.99.256-.364.048c-.045-5.64-.18-11.36-.306-16.213l.363-.055c.126 4.854.262 10.577.307 16.22m1.009.149-.363.05-.053-3.626c-.04-2.644-.078-5.288-.113-7.933l.363-.05c.035 2.644.074 5.288.113 7.932l.053 3.627zm.651.28c-.078-2.787-.15-5.783-.233-9.717l.363-.053c.084 3.933.155 6.929.233 9.714l-.363.056zm.933.188c-.133-2.378-.135-4.738-.126-7.147l.362-.044c-.01 2.404-.007 4.757.125 7.126l-.361.065zm1.054.077c-.032-1.593-.04-3.214-.047-4.782v-.036l.362-.047v.035c.008 1.567.016 3.187.047 4.777l-.362.053zm1.038.248c-.02-1.004-.047-2.008-.075-3.01l.361-.056c.029 1.003.055 2.008.076 3.012l-.362.054z"/><path fill="#F4C394" d="M59.648 109.44c-10.152-2.02-20.553-.147-31.176-1.59-.272.387-.5.828-.709 1.23a15.55 15.55 0 0 0-.531 1.142l.062 3.786 32.768.208c.043-1.582-.035-3.168-.414-4.776"/><path fill="#E5D7B3" d="M61.223 108.2c-.028-.028-.052-.058-.079-.088l-32.352-.662c-.113.123-.22.258-.32.4 10.623 1.443 21.024-.43 31.177 1.59.378 1.608.455 3.195.413 4.776l2.424.016-.08-4.946c-.372-.39-.808-.698-1.183-1.085"/><path fill="#F4C394" d="M62.54 114.17c-12.078-2.405-24.453-.175-37.092-1.892-.323.46-.595.985-.843 1.463-.23.444-.44.898-.632 1.359l.073 4.504 38.986.247c.05-1.882-.041-3.768-.492-5.682"/><path fill="#E5D7B3" d="M64.413 112.695c-.033-.035-.061-.07-.093-.106l-38.49-.787a4.714 4.714 0 0 0-.381.476c12.638 1.716 25.013-.513 37.091 1.891.45 1.914.543 3.8.492 5.682l2.884.019-.096-5.885c-.442-.463-.96-.83-1.407-1.29"/><path fill="#F4C394" d="M95.017 105.528c-6.2-1.234-12.554-.09-19.042-.97-.167.235-.306.505-.433.75a9.2 9.2 0 0 0-.324.698l.037 2.312 20.015.127c.025-.966-.022-1.935-.253-2.917"/><path fill="#E5D7B3" d="M95.979 104.771c-.018-.018-.032-.036-.048-.054l-19.761-.404a2.47 2.47 0 0 0-.196.244c6.49.882 12.842-.263 19.043.971.231.982.278 1.951.252 2.917l1.48.01-.048-3.021c-.227-.238-.494-.426-.722-.663"/><path fill="#F4C394" d="M96.783 108.416c-7.377-1.468-14.936-.106-22.655-1.155a7.685 7.685 0 0 0-.515.894 10.96 10.96 0 0 0-.386.83l.045 2.75 23.812.152c.03-1.15-.026-2.302-.3-3.47"/><path fill="#E5D7B3" d="m97.927 107.516-.057-.064-23.51-.482c-.082.09-.16.187-.232.292 7.72 1.048 15.278-.314 22.655 1.154.275 1.17.331 2.322.3 3.471l1.762.011-.058-3.594c-.27-.283-.587-.507-.86-.788"/></g></svg>