<svg version="1.1" xmlns="http://www.w3.org/2000/svg" xmlns:xlink="http://www.w3.org/1999/xlink" width="59.55199" height="117.457" viewBox="0,0,59.55199,117.457"><g transform="translate(-210.799,-122.038)"><g data-paper-data="{&quot;isPaintingLayer&quot;:true}" fill-rule="evenodd" stroke="none" stroke-width="1" stroke-linecap="butt" stroke-linejoin="miter" stroke-miterlimit="10" stroke-dasharray="" stroke-dashoffset="0" style="mix-blend-mode: normal"><path d="M268.443,162.529c1.873,0.794 2.468,3.628 1.331,6.32c-0.737,1.733 -2.003,2.988 -3.315,3.453h0.007c0,0 -3.491,9.93 -6.53,11.036c-2.46,0.894 -11.13,-2.64 -11.13,-2.64c0,0 -0.699,-2.699 -1.065,-3.554c-0.495,-1.171 -2.518,-4.377 -2.518,-4.377l11.872,4.26l5.594,-6.59v0.004c-0.092,-0.268 -0.162,-0.552 -0.212,-0.85c-0.359,-0.655 -0.647,-1.476 -0.827,-2.39c-0.468,-2.392 0.05,-4.501 1.152,-4.716c0.593,-0.114 1.224,0.335 1.764,1.145c1.187,-1.143 2.653,-1.619 3.877,-1.1M218.07,178.532c1.812,-2.323 8.366,-5.763 8.366,-5.763c0,0 -3.045,5.553 -3.597,8.02c-0.072,0.314 -0.246,1.152 -0.403,1.592c-0.2,0.545 -0.76,1.234 -1.62,2.465c-1.734,2.455 -3.357,12.836 -3.357,12.836c0.037,0.067 0.079,0.14 0.113,0.21c0.48988,0.49784 0.90306,1.0657 1.226,1.685c0.935,1.776 1.034,3.57 0.217,4.002c-0.437,0.233 -1.05,0.029 -1.67,-0.478c-0.657,1.187 -1.703,1.916 -2.793,1.802c-1.669,-0.179 -2.816,-2.272 -2.558,-4.672c0.102,-1.012 0.442,-1.915 0.922,-2.614c-0.002,0.044 -0.008,0.067 -0.008,0.067c0,0 1.434,-14.371 5.162,-19.152" data-paper-data="{&quot;origPos&quot;:null}" fill="#ffdc83"/><path d="M245.187,172.739c8.356,2.499 10.368,3.413 10.368,3.413c0.84,2.804 -1.4,6.715 -1.4,6.715l-5.526,-2.179l-3.442,-7.95zM215.962,181.028c0.837,3.327 5.558,3.327 5.558,3.327l1.2,-1.663l3.723,-9.925c-8.203,3.17 -10.481,8.261 -10.481,8.261" fill="#eeeeed"/><path d="M219.67,206.772h0.01c0,0 0.544,-27.489 6.38,-33.668c1.575,-1.66 7.934,-1.867 7.934,-1.867l1.789,0.086h0.147l1.785,-0.124c0,0 6.37,0.297 7.942,1.964c5.832,6.173 6.382,33.609 6.382,33.609h0.038h-32.408z" fill="#eeeeed"/><path d="M219.679,206.772c0,0 0.247,-12.939 2.292,-23.057l-0.47,0.64c0,0 -4.735,0 -5.577,-3.327c0,0 2.18,-4.616 9.311,-7.793v33.537zM246.947,173.296c6.823,2.075 8.567,2.855 8.567,2.855c0.845,2.804 -1.36,6.716 -1.36,6.716l-5.075,-2.003c2.645,10.318 2.96,25.908 2.96,25.908h-5.092v-33.476M240.429,171.471v35.3h-9.303v-35.3c1.553,-0.192 2.833,-0.234 2.833,-0.234l1.823,0.086h0.148l1.75,-0.124c0,0 1.355,0.063 2.75,0.271z" fill="#68a369"/><path d="M235.188,233.405h-9.768l-0.465,-11.722h10.232zM246.288,233.405h-9.77v-11.722h10.23z" data-paper-data="{&quot;origPos&quot;:null}" fill="#ffdc83"/><path d="M235.166,226.411v6.993h-9.746l-0.277,-6.994z" fill="#343434"/><path d="M225.2,227.809l-0.056,-1.398h10.023v1.398z" fill="#68a369"/><path d="M246.561,226.411l-0.273,6.993h-9.798v-6.994z" fill="#343434"/><path d="M236.49,226.411h10.071l-0.052,1.398h-10.019z" fill="#68a369"/><path d="M248.477,206.758l-1.119,14.922h-11.21l-0.149,-7.593h-0.288l-0.152,7.593h-11.22l-1.11,-14.922h15.88z" fill="#343434"/><path d="M226.687,221.68h-1.73l-1.128,-14.922h1.724zM245.023,221.68h1.724l1.132,-14.922h-1.728z" fill="#eeeeed"/><path d="M233.705,173.051c-1.084,0 -1.961,-2.332 -1.961,-3.4h7.705c0,1.068 -0.872,3.4 -1.96,3.4h-3.784" data-paper-data="{&quot;origPos&quot;:null}" fill="#ffdc83"/><path d="M232.571,172.186c-0.437,-0.661 -0.739,-1.585 -0.813,-2.248c2.54452,0.40874 5.13875,0.39861 7.68,-0.03l-0.015,0.011l-6.853,2.267" fill="#eeac6c"/><path d="M212.766,150.49c-0.17581,-1.15567 -0.26339,-2.32304 -0.262,-3.492c0,-12.831 10.376,-23.24 23.18,-23.24c12.801,0 23.182,10.409 23.182,23.24c0,1.13 -0.082,2.244 -0.238,3.335c1.338,0.732 2.241,2.122 2.241,3.71c0,2.36 -1.987,4.269 -4.427,4.269c-0.168,0 -0.327,-0.01 -0.487,-0.025c-3.96,7.13 -11.556,11.951 -20.271,11.951c-8.705,0 -16.294,-4.813 -20.253,-11.93c-0.075,0 -0.14,0.004 -0.214,0.004c-2.442,0 -4.418,-1.91 -4.418,-4.27c0,-1.482 0.779,-2.783 1.967,-3.551" data-paper-data="{&quot;origPos&quot;:null}" fill="#ffdc83"/><path d="M229.229,147.096c-0.772,-0.174 -0.908,-1.201 -3.386,-0.74c-0.779,0.18 -2.417,1.156 -2.732,1.808c-0.316,0.652 -0.088,-2.392 2.457,-3.522c1.835,-0.675 2.457,-0.642 3.977,-0.642c1.52,0 1.987,0.907 1.766,1.65c0,0 -0.503,1.803 -2.082,1.446zM243.134,147.096c0.772,-0.174 0.908,-1.201 3.386,-0.74c0.779,0.18 2.417,1.156 2.732,1.808c0.316,0.652 0.087,-2.392 -2.457,-3.522c-1.835,-0.675 -2.457,-0.642 -3.977,-0.642c-1.52,0 -1.987,0.907 -1.766,1.65c0,0 0.503,1.803 2.082,1.446zM229,153c0,1.657 -0.895,3 -2,3c-1.105,0 -2,-1.343 -2,-3c0,-1.657 0.895,-3 2,-3c1.105,0 2,1.343 2,3M247,153c0,1.657 -0.895,3 -2,3c-1.105,0 -2,-1.343 -2,-3c0,-1.657 0.895,-3 2,-3c1.105,0 2,1.343 2,3" fill="#343434"/><path d="M236.02,156.069c-1.125,0.153 -3.02,1.834 -3.02,1.834c0,0 0.207,-1.009 0.503,-1.299c0.8,-1.156 2.487,-1.604 2.487,-1.604c0,0 2.173,0.703 2.65,1.588c0.443,0.824 0.34,1.238 0.34,1.238c0,0 -2.121,-1.871 -2.96,-1.756z" fill="#eeac6c"/><path d="M229.2,159.696c0,0 6.897,3.208 13.172,-0.397c0,0 -1.39,5.47 -5.95,5.561c-4.115,0.122 -4.984,-1.492 -5.477,-1.956c-0.492,-0.463 -1.42,-1.772 -1.745,-3.208" fill="#eeac6c"/><path d="M259.863,143.968c0.035,2.733 -0.914,8.636 -2.768,12.156c0,0 -4.559,-12.932 -8.314,-14.981c-4.591,-2.505 -16.693,1.105 -20.799,-2.143c-0.682,-0.536 -0.6,-1.756 -0.6,-1.756c0,0 -0.788,1.552 -1.163,1.988c-1.989,2.267 -7.143,5.547 -9.585,7.312c-1.974,1.418 -2.064,1.401 -1.627,9.58c0,0 -3.621,-7.438 -3.413,-12.41c0.053,-1.43 0.743,-4.609 1.873,-7.834c4.078,-8.206 12.533,-13.842 22.298,-13.842c11.223,0 20.708,7.433 23.823,17.663c0.15843,1.41724 0.25019,2.84115 0.275,4.267M225.427,233.405h9.76c0.069,0.2 -0.019,0.503 -0.194,0.785c-0.583,0.897 -1.589,1.518 -2.442,2.116c-1.322,0.912 -2.999,1.409 -4.462,2.105c-1.323,0.562 -3.069,1.621 -4.255,0.295c-1.565,-1.884 -0.236,-4.171 1.594,-5.301zM236.517,233.405c-0.063,0.2 0.023,0.503 0.2,0.785c0.582,0.897 1.583,1.518 2.44,2.116c1.323,0.912 3.001,1.409 4.463,2.105c1.32,0.562 3.066,1.621 4.254,0.295c1.566,-1.884 0.236,-4.171 -1.594,-5.301z" fill="#343434"/><path d="M263.324,231.845c0,4.223 -3.412,7.65 -7.627,7.65c-4.213,0 -7.63,-3.427 -7.63,-7.65c0,-4.221 3.417,-7.647 7.63,-7.647c4.215,0 7.627,3.426 7.627,7.647" fill="#eeeeed"/><path d="M262.549,231.757l-2.847,-1.03l-1.557,0.674l-0.85,2.807l0.92,1.2l3.097,-0.42zM253.555,238.466h4.242l0.376,-3.038l-0.895,-1.164v0.007h-3.183l-0.91,1.21zM250.027,235.033l3.119,0.42l0.906,-1.208l-0.86,-2.918l0.027,-0.021l-1.407,-0.587l0.007,0.126l-2.96,1.116zM251.47,227.752l0.031,0.007l0.294,2.911l1.449,0.602l2.388,-1.795v-1.482l-2.394,-1.8zM258.135,226.051l0.019,0.066l-2.421,1.932l-0.036,-0.023v1.415l0.036,-0.023l2.421,1.93l1.487,-0.644l-0.034,-0.013l0.269,-3.01zM262.589,231.778l-1.241,3.248l0.62,1.183c-0.84133,1.21408 -2.01338,2.16123 -3.377,2.729l-0.754,-0.4h-4.274l0.005,0.01l-0.733,0.388c-1.38191,-0.56255 -2.56853,-1.51796 -3.413,-2.748l0.576,-1.097l-1.208,-3.191l-0.682,-0.792c0.13342,-1.41032 0.65775,-2.75544 1.514,-3.884l1.804,0.517l1.796,-1.57l-0.03,-0.023l0.497,-1.675c1.29649,-0.35825 2.66496,-0.36516 3.965,-0.02l0.458,1.51l1.772,1.658v-0.02l1.77,-0.524c0.8964,1.1185 1.45803,2.4678 1.62,3.892l-0.678,0.809z" fill="#343434"/></g></g></svg>