<svg xmlns="http://www.w3.org/2000/svg" width="55.94" height="115.912"><g fill-rule="evenodd" stroke-miterlimit="10" data-paper-data="{&quot;isPaintingLayer&quot;:true}" style="mix-blend-mode:normal"><path fill="#ffd988" d="m24.49 110.21-.634-18.228s4.085-4.535 5.968-5.076c1.354-.392 5.572.821 5.572.821l-1.684 22.411h-.009c1.736 1.053 3.01 3.222 1.54 4.999-1.107 1.258-2.758.285-4.014-.232-1.385-.641-2.97-1.086-4.227-1.932-.812-.56-1.76-1.16-2.31-1.998-.173-.258-.258-.52-.202-.765m-10.465.082h-.005l-2.04-22.377s4.135-1.292 5.487-.936c1.911.504 6.112 5.005 6.112 5.005l-.337 18.237h-.007c.06.256-.013.505-.183.766-.535.844-1.479 1.465-2.286 2.037-1.243.862-2.818 1.334-4.19 1.997-1.249.537-2.882 1.536-4.013.296-1.49-1.754-.258-3.943 1.462-5.025M1.21 79.235c.095-.95.408-1.8.854-2.457-.005.042-.01.06-.01.06s1.244-13.49 4.721-17.999c1.593-2.07 7.132-5.09 7.777-5.439 1.216-.9 3.99-1.318 5.708-1.494-.294-.632-.475-1.318-.48-1.819l7.277-.058c.005.5-.167 1.185-.44 1.813 1.69.149 4.155.685 5.77 1.398.716.318 2.21.775 2.947 1.03 2.226.753 8.202 2.857 8.202 2.857l5.22-6.216a4.254 4.254 0 0 1-.203-.793 7.681 7.681 0 0 1-.803-2.24c-.45-2.23.02-4.22 1.055-4.425.556-.118 1.16.3 1.673 1.057 1.105-1.082 2.483-1.538 3.64-1.06 1.772.735 2.35 3.382 1.297 5.92-.674 1.628-1.858 2.812-3.092 3.262 0 0-3.205 9.34-6.065 10.397-2.31.86-10.802-2.464-10.802-2.464v-.018c1.671 9.672.123 24.46.123 24.46l-23.825.189s-1.532-13.401-.332-23.055v.005c-.183.514-1.207 1.433-2.014 2.584-1.613 2.323-3.06 12.072-3.06 12.072.03.065.07.13.106.203.413.398.823.941 1.167 1.567.897 1.659 1 3.337.234 3.752-.413.222-.988.035-1.577-.441-.616 1.124-1.588 1.814-2.615 1.712-1.575-.145-2.677-2.1-2.453-4.36" data-paper-data="{&quot;origPos&quot;:null}"/><path fill="#eeac6c" d="M20.577 52.481a5.298 5.298 0 0 1-.78-2.11c2.402.37 4.849.342 7.242-.082l-.01.013-6.452 2.18"/><path fill="#d6b591" d="M35.644 61.759c1.532 6.312.16 25.423-.248 25.969-4.736-.031-11.54 4.255-11.54 4.255l-.276.002s-6.675-4.3-11.6-4.07c-.417-.541-1.92-18.635-.683-24.684 0 0 3.95-3.186 4.61-10.487 1.02-.412 3.613-.752 3.613-.752s.303 1.814 4.03 1.785c3.858-.03 3.938-1.839 3.938-1.839s2.871.466 3.638.829c.418 7.32 4.518 8.992 4.518 8.992"/><path fill="#0771b7" d="M20.63 65.323a10.07 10.07 0 0 1 2.672.472c-.943.872-2.185 1.632-3.645 2.174 1.464.569 2.706 1.341 3.645 2.23-1.18.371-2.58.525-4.073.42 1.597 1.131 2.89 2.391 3.784 3.647-1.435-.085-3.055-.461-4.73-1.115 1.47 1.812 2.507 3.707 3.032 5.425-1.295-.516-2.675-1.347-4.015-2.451.67 1.953.983 3.827.95 5.444-1.093-.906-2.156-2.158-3.106-3.656.3 1.944.28 3.765-.01 5.285-.699-.823-1.355-1.832-1.93-2.99-.103 1.677-.413 3.209-.898 4.473a13.076 13.076 0 0 1-.96-2.017c-.478-5.972-.877-15.391-.05-19.432 0 0 .955-.775 2.008-2.422 1.105-.911 2.32-1.525 3.505-1.822a7.439 7.439 0 0 1-.284 1.227 8.59 8.59 0 0 1 2.728-1.075 8.74 8.74 0 0 1-.796 2.244 8.435 8.435 0 0 1 2.126-.75c-.167.88-.51 1.783-1.017 2.66 1.095-.307 2.157-.443 3.13-.418-.507.853-1.207 1.683-2.067 2.446m15.485-.347c.458 5.085.176 12.806-.174 17.82a13.689 13.689 0 0 1-.807 1.708c-.506-1.261-.839-2.783-.975-4.462-.55 1.169-1.189 2.186-1.883 3.021-.306-1.516-.356-3.335-.096-5.283-.919 1.514-1.969 2.778-3.044 3.702-.054-1.614.23-3.495.87-5.457-1.328 1.125-2.69 1.977-3.98 2.516.5-1.73 1.505-3.638 2.942-5.475-1.66.679-3.277 1.085-4.707 1.192.876-1.269 2.146-2.552 3.726-3.707-1.493.129-2.893-.003-4.083-.354.922-.906 2.157-1.696 3.607-2.286-1.463-.522-2.723-1.259-3.676-2.12.8-.279 1.7-.45 2.664-.515-.866-.751-1.582-1.567-2.1-2.411.971-.045 2.037.075 3.132.365-.5-.816-.86-1.71-1.064-2.645a8.532 8.532 0 0 1 2.144.719 8.18 8.18 0 0 1-.83-2.233 8.73 8.73 0 0 1 2.967 1.169 8.01 8.01 0 0 1-.466-1.672c1.196.281 2.427.884 3.551 1.781h.005c.961 1.069 1.807 1.416 1.807 1.416.156.624.277 1.389.377 2.235.039.325.07.65.093.976m-11.728-9.469c.013 1.645-.337 3.139-.915 4.255-.596-1.107-.968-2.594-.982-4.239-.007-.596.037-1.19.132-1.779.31.028.62.04.93.035.24-.002.464-.011.674-.022.102.578.156 1.163.161 1.75"/><path fill="#6cc5d8" d="M21.26 55.028a8.593 8.593 0 0 1 .307-1.454c.403.096.812.159 1.225.187.024.458.006.946-.054 1.443-.156 1.282-.582 2.415-1.142 3.228-.357-.924-.49-2.12-.337-3.404"/><path fill="#0771b7" d="M20.623 53.221c.38.195.786.333 1.205.412a8.894 8.894 0 0 1-.248 1.307c-.336 1.253-.916 2.311-1.586 3.034-.219-.962-.187-2.168.15-3.422a8.53 8.53 0 0 1 .48-1.331"/><path fill="#6cc5d8" d="M19.841 52.59c.205.256.54.541 1.084.77a7.938 7.938 0 0 1-.404 1.02c-.55 1.173-1.314 2.115-2.1 2.703-.04-.982.2-2.166.753-3.333.19-.404.413-.792.667-1.16"/><path fill="#0771b7" d="M19.52 51.992s.07.423.57.862c-.173.258-.359.507-.556.748-.827.998-1.793 1.726-2.706 2.102.206-.964.73-2.048 1.557-3.048.17-.207.346-.397.526-.577.37-.057.61-.087.61-.087"/><path fill="#6cc5d8" d="M19.536 52.049c-.115.114-.232.22-.355.329-.979.838-2.056 1.39-3.022 1.612.236-.568.552-1.1.937-1.58 1.122-.25 2.424-.417 2.424-.417l.016.056m5.832 6.353c-.578-.804-1.015-1.928-1.192-3.208a9.175 9.175 0 0 1-.08-1.432 7.58 7.58 0 0 0 1.243-.158c.142.454.245.918.31 1.389.174 1.283.06 2.481-.28 3.409"/><path fill="#0771b7" d="M25.326 54.91a8 8 0 0 1-.258-1.253 4.982 4.982 0 0 0 1.233-.374c.185.392.338.798.458 1.215.354 1.25.406 2.456.2 3.42-.68-.712-1.278-1.758-1.633-3.008"/><path fill="#6cc5d8" d="M26.374 54.334a9.779 9.779 0 0 1-.39-.922c.573-.209.928-.478 1.147-.732.22.318.413.653.58 1.001.573 1.16.841 2.34.807 3.32-.796-.574-1.57-1.505-2.143-2.667"/><path fill="#0771b7" d="M27.353 53.538a8.34 8.34 0 0 1-.48-.61c.593-.479.616-.99.616-.99l.47.08c.182.179.356.364.524.556.846.989 1.388 2.064 1.604 3.026-.916-.363-1.894-1.078-2.735-2.062"/><path fill="#6cc5d8" d="M27.453 52.11c.031-.107.036-.172.036-.172s1.27.203 2.342.45c.37.45.675.95.902 1.487-.967-.207-2.058-.741-3.05-1.563-.078-.069-.157-.14-.23-.202"/><path fill="#0771b7" d="M15.944 75.274c6.217 5.991 8.914 13.04 9.748 15.65-1.126.605-1.836 1.041-1.836 1.041l-.276.003-.469-.285c-.907-2.993-3.957-12.517-7.167-16.409"/><path fill="#0771b7" d="M21.462 90.761c.86-2.763 3.462-9.671 9.436-15.616-3.24 4.065-6.222 14.111-6.973 16.785a.678.678 0 0 1-.069.036l-.277.002s-.827-.526-2.117-1.206"/><path fill="#6cc5d8" d="M26.015 90.75c-1.307.693-2.159 1.216-2.159 1.216l-.277.002s-.005.005-.009 0c-.778-2.609-3.924-12.673-7.248-16.705 6.086 5.874 8.796 12.755 9.693 15.487"/><path fill="#42b8c8" d="M23.54 91.959a32.638 32.638 0 0 0-2.4-1.356c.905-2.867 3.527-9.622 9.385-15.444-3.255 4.072-6.233 14.144-6.985 16.8"/><path fill="#eeeeed" d="M16.04 63.081c-1.886 1.85-3.956 5.929-5.216 8.663a85.135 85.135 0 0 1 .015-3.22c1.263-1.756 2.972-3.709 5.2-5.443"/><path fill="#eeeeed" d="M10.853 68.04c1.31 2.721 3.408 6.669 5.294 8.456-2.28-1.714-4.034-3.664-5.33-5.414a87.888 87.888 0 0 1 .036-3.042"/><path fill="#6cc5d8" d="M10.864 67.732c1.26-1.746 2.958-3.683 5.168-5.406-1.883 1.848-3.955 5.926-5.215 8.666-.005-1.087.01-2.174.047-3.26"/><path fill="#6cc5d8" d="M16.153 77.25c-2.28-1.712-4.033-3.662-5.329-5.414-.014-1.03-.01-2.059.011-3.088 1.305 2.716 3.418 6.702 5.318 8.502"/><path fill="#eeeeed" d="M31.025 62.964c2.258 1.687 3.994 3.611 5.285 5.341.027 1.019.043 2.084.04 3.161-1.305-2.705-3.419-6.699-5.325-8.502"/><path fill="#eeeeed" d="M36.29 67.858c.039 1.019.059 2.038.06 3.057-1.26 1.77-2.975 3.729-5.219 5.461 1.868-1.814 3.895-5.788 5.158-8.518"/><path fill="#6cc5d8" d="M36.278 67.525c.044 1.067.068 2.134.072 3.202-1.304-2.714-3.418-6.713-5.33-8.519 2.238 1.679 3.971 3.589 5.258 5.317"/><path fill="#6cc5d8" d="M31.14 77.131c1.87-1.821 3.914-5.823 5.172-8.563.027 1.004.042 2.048.04 3.113-1.263 1.758-2.973 3.718-5.213 5.45"/><path fill="#ffd988" d="M1.57 28.851c-.098-12.119 9.668-22.02 21.81-22.115 12.14-.098 22.063 9.647 22.16 21.763a21.955 21.955 0 0 1-.2 3.153c1.272.685 2.137 1.988 2.15 3.486.018 2.229-1.844 4.046-4.164 4.063a3.51 3.51 0 0 1-.462-.02c-3.7 6.761-10.865 11.371-19.13 11.435-8.264.065-15.494-4.421-19.304-11.112-.07.007-.132.01-.203.01-2.313.017-4.21-1.769-4.227-3.997-.01-1.396.718-2.636 1.847-3.367a21.52 21.52 0 0 1-.277-3.3z" data-paper-data="{&quot;origPos&quot;:null}"/><path fill="#805221" d="M19.31 25.852s-.503 1.803-2.082 1.446c-.772-.174-.908-1.201-3.386-.74-.779.18-2.417 1.156-2.732 1.808-.316.652-.088-2.392 2.457-3.522 1.835-.675 2.457-.642 3.977-.642s1.987.907 1.766 1.65m9.741 0s.503 1.803 2.082 1.446c.772-.174.908-1.201 3.386-.74.78.18 2.417 1.156 2.732 1.808.316.652.087-2.392-2.457-3.522-1.835-.675-2.457-.642-3.977-.642s-1.987.907-1.766 1.65" data-paper-data="{&quot;origPos&quot;:null}"/><path fill="#6f471d" d="M17 33.46c0 1.657-.896 3-2 3-1.106 0-2-1.343-2-3s.894-3 2-3c1.104 0 2 1.343 2 3m18 0c0 1.657-.896 3-2 3-1.106 0-2-1.343-2-3s.894-3 2-3c1.104 0 2 1.343 2 3" data-paper-data="{&quot;origPos&quot;:null}"/><path fill="#eeac6c" d="M24.02 36.271c-1.126.153-3.02 1.834-3.02 1.834s.206-1.009.502-1.299c.8-1.156 2.487-1.604 2.487-1.604s2.173.703 2.65 1.588c.443.824.34 1.238.34 1.238s-2.12-1.871-2.96-1.756zM17.2 39.898s6.896 3.208 13.171-.397c0 0-1.39 5.47-5.95 5.561-4.115.122-4.984-1.492-5.477-1.956-.492-.463-1.42-1.772-1.745-3.208"/><path fill="#814b18" d="M29.106 6.697c.025 3.07-2.45 5.581-5.53 5.606-3.076.022-5.595-2.447-5.62-5.517-.026-3.075 2.455-5.582 5.53-5.609 3.082-.022 5.596 2.445 5.62 5.52"/><path fill="#0771b7" d="M22.37 4.252c-.013-1.647.337-3.143.913-4.252.595 1.1.968 2.592.981 4.24.011 1.64-.337 3.136-.914 4.256-.594-1.11-.966-2.6-.98-4.243"/><path fill="#6cc5d8" d="M21.15 4.766c-.178-1.28-.058-2.49.277-3.409.578.795 1.02 1.92 1.194 3.204.18 1.278.055 2.485-.282 3.407-.57-.793-1.012-1.922-1.19-3.202"/><path fill="#0771b7" d="M20.042 5.249c-.36-1.24-.406-2.454-.208-3.411.685.71 1.278 1.765 1.635 3.005.357 1.243.41 2.454.203 3.416-.68-.713-1.276-1.761-1.63-3.01"/><path fill="#6cc5d8" d="M19.087 6.072c-.57-1.157-.838-2.337-.81-3.323.802.58 1.571 1.51 2.142 2.669.574 1.164.84 2.342.808 3.324-.797-.577-1.57-1.505-2.14-2.67"/><path fill="#0771b7" d="M18.312 7.175c-.839-.977-1.388-2.062-1.604-3.017.92.367 1.894 1.071 2.737 2.057.843.989 1.39 2.062 1.602 3.02-.913-.361-1.894-1.074-2.735-2.06"/><path fill="#6cc5d8" d="M18.161 8.588c-.992-.826-1.717-1.799-2.094-2.707.966.205 2.052.735 3.05 1.567.992.826 1.717 1.8 2.092 2.71-.964-.207-2.048-.74-3.048-1.57m7.375-3.857c.156-1.285.02-2.49-.333-3.404-.564.804-.988 1.937-1.142 3.221-.15 1.283-.02 2.487.335 3.402.564-.801.986-1.937 1.14-3.219"/><path fill="#0771b7" d="M26.658 5.196c-.342 1.252-.919 2.311-1.594 3.035-.216-.958-.187-2.168.15-3.418.342-1.244.92-2.308 1.586-3.032.22.957.19 2.171-.142 3.415"/><path fill="#6cc5d8" d="M27.625 6.005c-.558 1.173-1.316 2.113-2.104 2.703-.047-.984.2-2.167.752-3.337.554-1.171 1.314-2.109 2.104-2.703.044.986-.202 2.17-.752 3.337"/><path fill="#0771b7" d="M28.413 7.095c-.827.999-1.798 1.725-2.705 2.101.198-.957.73-2.041 1.554-3.041.826-1 1.796-1.721 2.704-2.102-.196.958-.729 2.051-1.553 3.042"/><path fill="#6cc5d8" d="M28.586 8.506c-.986.846-2.059 1.396-3.023 1.618.36-.917 1.07-1.901 2.05-2.743.982-.848 2.061-1.396 3.023-1.614-.364.915-1.067 1.897-2.05 2.739"/><path fill="#805221" d="M46.297 25.852c.055 2.56-1.063 6.14-1.063 6.14s-5.862-6.817-9.42-8.71c-4.35-2.32-6.48 1.158-10.375-1.856-.644-.504-1.854-1.837-1.854-1.837-.606.624-1.215 1.246-1.827 1.865-4.32 4.286-7.62-.652-11.263 1.942-4.636 3.308-8.537 8.783-8.537 8.783S.593 30.641.744 25.974c.043-1.344.674-4.333 1.716-7.374C6.243 10.861 14.178 5.498 23.393 5.426c10.588-.084 19.598 6.834 22.61 16.414a44.2 44.2 0 0 1 .294 4.012" data-paper-data="{&quot;origPos&quot;:null}"/></g></svg>