<svg version="1.1" xmlns="http://www.w3.org/2000/svg" xmlns:xlink="http://www.w3.org/1999/xlink" width="55.93974" height="115.91198" viewBox="0,0,55.93974,115.91198"><g transform="translate(-211.00088,-122.798)"><g data-paper-data="{&quot;isPaintingLayer&quot;:true}" fill-rule="evenodd" stroke="none" stroke-width="1" stroke-linecap="butt" stroke-linejoin="miter" stroke-miterlimit="10" stroke-dasharray="" stroke-dashoffset="0" style="mix-blend-mode: normal"><path d="M235.49,233.008l-0.633,-18.228c0,0 4.085,-4.535 5.968,-5.076c1.354,-0.392 5.572,0.821 5.572,0.821l-1.684,22.411h-0.009c1.736,1.053 3.01,3.222 1.54,4.999c-1.107,1.258 -2.758,0.285 -4.014,-0.232c-1.385,-0.641 -2.97,-1.086 -4.227,-1.932c-0.812,-0.56 -1.76,-1.16 -2.311,-1.998c-0.172,-0.258 -0.257,-0.52 -0.201,-0.765M225.026,233.09h-0.005l-2.041,-22.377c0,0 4.136,-1.292 5.488,-0.936c1.911,0.504 6.112,5.005 6.112,5.005l-0.337,18.237h-0.007c0.06,0.256 -0.013,0.505 -0.183,0.766c-0.535,0.844 -1.479,1.465 -2.286,2.037c-1.243,0.862 -2.818,1.334 -4.19,1.997c-1.249,0.537 -2.882,1.536 -4.013,0.296c-1.49,-1.754 -0.258,-3.943 1.462,-5.025M212.21,202.033c0.095,-0.95 0.408,-1.8 0.854,-2.457c-0.005,0.042 -0.011,0.06 -0.011,0.06c0,0 1.245,-13.49 4.722,-17.999c1.593,-2.07 7.132,-5.09 7.777,-5.439c1.216,-0.9 3.99,-1.318 5.708,-1.494c-0.294,-0.632 -0.475,-1.318 -0.48,-1.819l7.277,-0.058c0.005,0.5 -0.167,1.185 -0.441,1.813c1.69,0.149 4.156,0.685 5.77,1.398c0.717,0.318 2.21,0.775 2.948,1.03c2.226,0.753 8.202,2.857 8.202,2.857l5.22,-6.216c-0.093,-0.25719 -0.16098,-0.52276 -0.203,-0.793c-0.3824,-0.70042 -0.65332,-1.45615 -0.803,-2.24c-0.45,-2.23 0.02,-4.22 1.055,-4.425c0.556,-0.118 1.16,0.3 1.673,1.057c1.105,-1.082 2.483,-1.538 3.64,-1.06c1.772,0.735 2.35,3.382 1.297,5.92c-0.674,1.628 -1.858,2.812 -3.092,3.262c0,0 -3.205,9.34 -6.065,10.397c-2.31,0.86 -10.802,-2.464 -10.802,-2.464v-0.018c1.671,9.672 0.123,24.46 0.123,24.46l-23.825,0.189c0,0 -1.532,-13.401 -0.332,-23.055v0.005c-0.183,0.514 -1.207,1.433 -2.014,2.584c-1.613,2.323 -3.061,12.072 -3.061,12.072c0.031,0.065 0.071,0.13 0.107,0.203c0.413,0.398 0.823,0.941 1.167,1.567c0.897,1.659 1,3.337 0.234,3.752c-0.413,0.222 -0.988,0.035 -1.577,-0.441c-0.616,1.124 -1.588,1.814 -2.615,1.712c-1.575,-0.145 -2.677,-2.1 -2.453,-4.36" data-paper-data="{&quot;origPos&quot;:null}" fill="#ffd988"/><path d="M231.578,175.279c-0.417,-0.623 -0.707,-1.487 -0.781,-2.11c2.40249,0.37016 4.84951,0.34246 7.243,-0.082l-0.01,0.013l-6.452,2.18" fill="#eeac6c"/><path d="M246.645,184.557c1.532,6.312 0.16,25.423 -0.248,25.969c-4.736,-0.031 -11.54,4.255 -11.54,4.255l-0.276,0.002c0,0 -6.675,-4.3 -11.6,-4.07c-0.417,-0.541 -1.92,-18.635 -0.683,-24.684c0,0 3.949,-3.186 4.609,-10.487c1.02,-0.412 3.614,-0.752 3.614,-0.752c0,0 0.303,1.814 4.03,1.785c3.858,-0.03 3.938,-1.839 3.938,-1.839c0,0 2.871,0.466 3.638,0.829c0.418,7.32 4.518,8.992 4.518,8.992" fill="#d6b591"/><path d="M231.631,188.121c0.90788,0.03607 1.80671,0.19484 2.672,0.472c-0.943,0.872 -2.185,1.632 -3.645,2.174c1.464,0.569 2.706,1.341 3.645,2.23c-1.18,0.371 -2.581,0.525 -4.073,0.42c1.597,1.131 2.889,2.391 3.784,3.647c-1.435,-0.085 -3.055,-0.461 -4.73,-1.115c1.47,1.812 2.507,3.707 3.032,5.425c-1.295,-0.516 -2.675,-1.347 -4.015,-2.451c0.67,1.953 0.983,3.827 0.95,5.444c-1.093,-0.906 -2.156,-2.158 -3.106,-3.656c0.3,1.944 0.28,3.765 -0.01,5.285c-0.699,-0.823 -1.355,-1.832 -1.93,-2.99c-0.103,1.677 -0.413,3.209 -0.898,4.473c-0.354,-0.597 -0.677,-1.273 -0.96,-2.017c-0.478,-5.972 -0.877,-15.391 -0.05,-19.432c0,0 0.955,-0.775 2.008,-2.422c1.105,-0.911 2.32,-1.525 3.505,-1.822c-0.058,0.406 -0.152,0.817 -0.284,1.227c0.841,-0.51203 1.76378,-0.87566 2.728,-1.075c-0.16173,0.78081 -0.42954,1.53581 -0.796,2.244c0.712,-0.358 1.426,-0.61 2.126,-0.75c-0.167,0.88 -0.511,1.783 -1.017,2.66c1.095,-0.307 2.157,-0.443 3.13,-0.418c-0.507,0.853 -1.207,1.683 -2.067,2.446M247.115,187.773c0.458,5.085 0.176,12.806 -0.174,17.82c-0.243,0.628 -0.517,1.184 -0.807,1.708c-0.506,-1.261 -0.839,-2.783 -0.975,-4.462c-0.551,1.169 -1.189,2.186 -1.883,3.021c-0.306,-1.516 -0.356,-3.335 -0.096,-5.283c-0.919,1.514 -1.969,2.778 -3.044,3.702c-0.054,-1.614 0.23,-3.495 0.87,-5.457c-1.328,1.125 -2.69,1.977 -3.98,2.516c0.499,-1.73 1.505,-3.638 2.942,-5.475c-1.66,0.679 -3.277,1.085 -4.707,1.192c0.876,-1.269 2.146,-2.552 3.726,-3.707c-1.493,0.129 -2.893,-0.003 -4.083,-0.354c0.922,-0.906 2.157,-1.696 3.607,-2.286c-1.463,-0.522 -2.723,-1.259 -3.676,-2.12c0.799,-0.279 1.7,-0.45 2.664,-0.515c-0.866,-0.751 -1.582,-1.567 -2.1,-2.411c0.971,-0.045 2.037,0.075 3.132,0.365c-0.49959,-0.81621 -0.85921,-1.7102 -1.064,-2.645c0.7434,0.14348 1.4644,0.38527 2.144,0.719c-0.38415,-0.69984 -0.66378,-1.45215 -0.83,-2.233c1.05239,0.20419 2.05816,0.60047 2.967,1.169c-0.21544,-0.53881 -0.37169,-1.09943 -0.466,-1.672c1.196,0.281 2.427,0.884 3.551,1.781h0.005c0.961,1.069 1.807,1.416 1.807,1.416c0.156,0.624 0.277,1.389 0.377,2.235c0.03884,0.32454 0.06985,0.64997 0.093,0.976M235.387,178.304c0.013,1.645 -0.337,3.139 -0.915,4.255c-0.596,-1.107 -0.968,-2.594 -0.982,-4.239c-0.00705,-0.59569 0.03711,-1.19088 0.132,-1.779c0.30915,0.02826 0.6196,0.03995 0.93,0.035c0.239,-0.002 0.464,-0.011 0.674,-0.022c0.10169,0.57792 0.15554,1.16323 0.161,1.75" fill="#0771b7"/><path d="M232.26,177.826c0.065,-0.512 0.168,-1.002 0.308,-1.454c0.40248,0.09601 0.81221,0.15856 1.225,0.187c0.024,0.458 0.006,0.946 -0.054,1.443c-0.156,1.282 -0.582,2.415 -1.142,3.228c-0.357,-0.924 -0.491,-2.12 -0.337,-3.404" fill="#6cc5d8"/><path d="M231.624,176.019c0.37978,0.19452 0.78562,0.33328 1.205,0.412c-0.049,0.423 -0.128,0.866 -0.248,1.307c-0.336,1.253 -0.916,2.311 -1.586,3.034c-0.219,-0.962 -0.187,-2.168 0.149,-3.422c0.12286,-0.45619 0.28342,-0.90139 0.48,-1.331" fill="#0771b7"/><path d="M230.842,175.388c0.205,0.256 0.54,0.541 1.084,0.77c-0.107,0.339 -0.241,0.677 -0.404,1.02c-0.551,1.173 -1.314,2.115 -2.101,2.703c-0.04,-0.982 0.201,-2.166 0.754,-3.333c0.1899,-0.40443 0.413,-0.79243 0.667,-1.16" fill="#6cc5d8"/><path d="M230.521,174.79c0,0 0.07,0.423 0.57,0.862c-0.17357,0.25786 -0.35911,0.50747 -0.556,0.748c-0.827,0.998 -1.793,1.726 -2.706,2.102c0.206,-0.964 0.73,-2.048 1.557,-3.048c0.17,-0.207 0.346,-0.397 0.526,-0.577c0.369,-0.057 0.61,-0.087 0.61,-0.087" fill="#0771b7"/><path d="M230.537,174.847c-0.115,0.114 -0.232,0.22 -0.355,0.329c-0.979,0.838 -2.056,1.39 -3.022,1.612c0.23606,-0.56832 0.55154,-1.10028 0.937,-1.58c1.122,-0.25 2.424,-0.417 2.424,-0.417l0.016,0.056M236.369,181.2c-0.578,-0.804 -1.015,-1.928 -1.192,-3.208c-0.064,-0.494 -0.093,-0.975 -0.08,-1.432c0.41798,-0.01827 0.83374,-0.07112 1.243,-0.158c0.14143,0.45367 0.24511,0.91825 0.31,1.389c0.174,1.283 0.059,2.481 -0.281,3.409" fill="#6cc5d8"/><path d="M236.327,177.708c-0.11931,-0.41011 -0.20559,-0.82912 -0.258,-1.253c0.515,-0.094 0.917,-0.225 1.233,-0.374c0.18467,0.3922 0.33782,0.79849 0.458,1.215c0.354,1.25 0.406,2.456 0.2,3.42c-0.68,-0.712 -1.278,-1.758 -1.633,-3.008" fill="#0771b7"/><path d="M237.375,177.132c-0.147,-0.305 -0.278,-0.612 -0.39,-0.922c0.573,-0.209 0.928,-0.478 1.147,-0.732c0.21914,0.31803 0.41307,0.65272 0.58,1.001c0.573,1.16 0.841,2.34 0.807,3.32c-0.796,-0.574 -1.57,-1.505 -2.143,-2.667" fill="#6cc5d8"/><path d="M238.354,176.336c-0.172,-0.196 -0.33,-0.403 -0.48,-0.61c0.593,-0.479 0.616,-0.99 0.616,-0.99l0.47,0.08c0.18144,0.17883 0.35622,0.36429 0.524,0.556c0.846,0.989 1.388,2.064 1.604,3.026c-0.916,-0.363 -1.894,-1.078 -2.735,-2.062" fill="#0771b7"/><path d="M238.454,174.908c0.031,-0.107 0.036,-0.172 0.036,-0.172c0,0 1.269,0.203 2.342,0.45c0.37069,0.44965 0.67449,0.95049 0.902,1.487c-0.967,-0.207 -2.058,-0.741 -3.05,-1.563c-0.078,-0.069 -0.157,-0.14 -0.23,-0.202" fill="#6cc5d8"/><path d="M226.945,198.072c6.217,5.991 8.914,13.04 9.748,15.65c-1.126,0.605 -1.836,1.041 -1.836,1.041l-0.276,0.003l-0.469,-0.285c-0.907,-2.993 -3.957,-12.517 -7.167,-16.409" fill="#0771b7"/><path d="M232.463,213.559c0.859,-2.763 3.462,-9.671 9.436,-15.616c-3.241,4.065 -6.222,14.111 -6.973,16.785c-0.045,0.026 -0.069,0.036 -0.069,0.036l-0.277,0.002c0,0 -0.827,-0.526 -2.117,-1.206" fill="#0771b7"/><path d="M237.016,213.548c-1.307,0.693 -2.159,1.216 -2.159,1.216l-0.277,0.002c0,0 -0.005,0.005 -0.009,0c-0.778,-2.609 -3.924,-12.673 -7.248,-16.705c6.086,5.874 8.796,12.755 9.693,15.487" fill="#6cc5d8"/><path d="M234.541,214.757c-0.78055,-0.4856 -1.58126,-0.938 -2.4,-1.356c0.905,-2.867 3.527,-9.622 9.385,-15.444c-3.255,4.072 -6.233,14.144 -6.985,16.8" fill="#42b8c8"/><path d="M227.041,185.879c-1.886,1.85 -3.956,5.929 -5.216,8.663c-0.0153,-1.07333 -0.0103,-2.14686 0.015,-3.22c1.263,-1.756 2.972,-3.709 5.2,-5.443" fill="#eeeeed"/><path d="M221.854,190.838c1.309,2.721 3.408,6.669 5.294,8.456c-2.28,-1.714 -4.034,-3.664 -5.33,-5.414c-0.004,-1.056 0.006,-2.078 0.036,-3.042" fill="#eeeeed"/><path d="M221.865,190.53c1.26,-1.746 2.958,-3.683 5.168,-5.406c-1.883,1.848 -3.955,5.926 -5.215,8.666c-0.00524,-1.08687 0.01043,-2.17374 0.047,-3.26" fill="#6cc5d8"/><path d="M227.154,200.048c-2.28,-1.712 -4.033,-3.662 -5.329,-5.414c-0.01433,-1.02932 -0.01066,-2.05881 0.011,-3.088c1.305,2.716 3.418,6.702 5.318,8.502" fill="#6cc5d8"/><path d="M242.026,185.762c2.258,1.687 3.994,3.611 5.285,5.341c0.027,1.019 0.043,2.084 0.04,3.161c-1.305,-2.705 -3.419,-6.699 -5.325,-8.502" fill="#eeeeed"/><path d="M247.29,190.656c0.03964,1.01852 0.05964,2.03771 0.06,3.057c-1.26,1.77 -2.974,3.729 -5.218,5.461c1.868,-1.814 3.895,-5.788 5.158,-8.518" fill="#eeeeed"/><path d="M247.279,190.323c0.04391,1.06679 0.06791,2.13431 0.072,3.202c-1.304,-2.714 -3.418,-6.713 -5.33,-8.519c2.238,1.679 3.971,3.589 5.258,5.317" fill="#6cc5d8"/><path d="M242.14,199.929c1.871,-1.821 3.915,-5.823 5.173,-8.563c0.027,1.004 0.042,2.048 0.04,3.113c-1.263,1.758 -2.973,3.718 -5.213,5.45" fill="#6cc5d8"/><path d="M212.571,151.649c-0.098,-12.119 9.668,-22.02 21.81,-22.115c12.14,-0.098 22.063,9.647 22.159,21.763c0.00947,1.05442 -0.05704,2.10814 -0.199,3.153c1.272,0.685 2.137,1.988 2.15,3.486c0.018,2.229 -1.844,4.046 -4.164,4.063c-0.15427,0.0035 -0.30861,-0.00319 -0.462,-0.02c-3.7,6.761 -10.865,11.371 -19.131,11.435c-8.263,0.065 -15.493,-4.421 -19.303,-11.112c-0.07,0.007 -0.132,0.01 -0.203,0.01c-2.313,0.017 -4.21,-1.769 -4.227,-3.997c-0.011,-1.396 0.718,-2.636 1.847,-3.367c-0.17696,-1.09125 -0.26957,-2.19452 -0.277,-3.3z" data-paper-data="{&quot;origPos&quot;:null}" fill="#ffd988"/><path d="M230.311,148.65c0,0 -0.503,1.803 -2.082,1.446c-0.772,-0.174 -0.908,-1.201 -3.386,-0.74c-0.779,0.18 -2.417,1.156 -2.732,1.808c-0.316,0.652 -0.088,-2.392 2.457,-3.522c1.835,-0.675 2.457,-0.642 3.977,-0.642c1.52,0 1.987,0.907 1.766,1.65M240.052,148.65c0,0 0.503,1.803 2.082,1.446c0.772,-0.174 0.908,-1.201 3.386,-0.74c0.779,0.18 2.417,1.156 2.732,1.808c0.316,0.652 0.087,-2.392 -2.457,-3.522c-1.835,-0.675 -2.457,-0.642 -3.977,-0.642c-1.52,0 -1.987,0.907 -1.766,1.65" data-paper-data="{&quot;origPos&quot;:null}" fill="#805221"/><path d="M228,156.25758c0,1.657 -0.895,3 -2,3c-1.105,0 -2,-1.343 -2,-3c0,-1.657 0.895,-3 2,-3c1.105,0 2,1.343 2,3M246,156.25758c0,1.657 -0.895,3 -2,3c-1.105,0 -2,-1.343 -2,-3c0,-1.657 0.895,-3 2,-3c1.105,0 2,1.343 2,3" data-paper-data="{&quot;origPos&quot;:null}" fill="#6f471d"/><path d="M235.02,159.069c-1.125,0.153 -3.02,1.834 -3.02,1.834c0,0 0.207,-1.009 0.503,-1.299c0.8,-1.156 2.487,-1.604 2.487,-1.604c0,0 2.173,0.703 2.65,1.588c0.443,0.824 0.34,1.238 0.34,1.238c0,0 -2.121,-1.871 -2.96,-1.756z" fill="#eeac6c"/><path d="M228.2,162.696c0,0 6.897,3.208 13.172,-0.397c0,0 -1.39,5.47 -5.95,5.561c-4.115,0.122 -4.984,-1.492 -5.477,-1.956c-0.492,-0.463 -1.42,-1.772 -1.745,-3.208" fill="#eeac6c"/><path d="M240.107,129.495c0.025,3.07 -2.451,5.581 -5.53,5.606c-3.076,0.022 -5.595,-2.447 -5.621,-5.517c-0.025,-3.075 2.456,-5.582 5.53,-5.609c3.083,-0.022 5.597,2.445 5.621,5.52" fill="#814b18"/><path d="M233.371,127.05c-0.013,-1.647 0.337,-3.143 0.913,-4.252c0.595,1.1 0.968,2.592 0.981,4.24c0.011,1.64 -0.337,3.136 -0.914,4.256c-0.594,-1.11 -0.966,-2.6 -0.98,-4.243" fill="#0771b7"/><path d="M232.15,127.564c-0.177,-1.28 -0.057,-2.49 0.278,-3.409c0.578,0.795 1.02,1.92 1.194,3.204c0.18,1.278 0.055,2.485 -0.282,3.407c-0.57,-0.793 -1.012,-1.922 -1.19,-3.202" fill="#6cc5d8"/><path d="M231.043,128.047c-0.36,-1.24 -0.406,-2.454 -0.208,-3.411c0.685,0.71 1.278,1.765 1.635,3.005c0.357,1.243 0.41,2.454 0.203,3.416c-0.68,-0.713 -1.276,-1.761 -1.63,-3.01" fill="#0771b7"/><path d="M230.088,128.87c-0.57,-1.157 -0.838,-2.337 -0.81,-3.323c0.802,0.58 1.571,1.51 2.142,2.669c0.574,1.164 0.839,2.342 0.808,3.324c-0.797,-0.577 -1.57,-1.505 -2.14,-2.67" fill="#6cc5d8"/><path d="M229.313,129.973c-0.839,-0.977 -1.388,-2.062 -1.604,-3.017c0.919,0.367 1.894,1.071 2.737,2.057c0.843,0.989 1.39,2.062 1.602,3.02c-0.913,-0.361 -1.894,-1.074 -2.735,-2.06" fill="#0771b7"/><path d="M229.162,131.386c-0.992,-0.826 -1.717,-1.799 -2.094,-2.707c0.966,0.205 2.052,0.735 3.05,1.567c0.992,0.826 1.717,1.8 2.092,2.71c-0.964,-0.207 -2.048,-0.74 -3.048,-1.57M236.537,127.529c0.156,-1.285 0.02,-2.49 -0.333,-3.404c-0.564,0.804 -0.988,1.937 -1.142,3.221c-0.151,1.283 -0.02,2.487 0.335,3.402c0.564,-0.801 0.986,-1.937 1.14,-3.219" fill="#6cc5d8"/><path d="M237.659,127.994c-0.342,1.252 -0.919,2.311 -1.594,3.035c-0.216,-0.958 -0.187,-2.168 0.15,-3.418c0.342,-1.244 0.919,-2.308 1.586,-3.032c0.219,0.957 0.19,2.171 -0.142,3.415" fill="#0771b7"/><path d="M238.626,128.803c-0.558,1.173 -1.316,2.113 -2.104,2.703c-0.047,-0.984 0.199,-2.167 0.752,-3.337c0.554,-1.171 1.314,-2.109 2.104,-2.703c0.044,0.986 -0.202,2.17 -0.752,3.337" fill="#6cc5d8"/><path d="M239.414,129.893c-0.827,0.999 -1.798,1.725 -2.705,2.101c0.198,-0.957 0.729,-2.041 1.554,-3.041c0.826,-1 1.796,-1.721 2.704,-2.102c-0.196,0.958 -0.729,2.051 -1.553,3.042" fill="#0771b7"/><path d="M239.587,131.304c-0.986,0.846 -2.059,1.396 -3.023,1.618c0.36,-0.917 1.07,-1.901 2.05,-2.743c0.982,-0.848 2.061,-1.396 3.023,-1.614c-0.364,0.915 -1.067,1.897 -2.05,2.739" fill="#6cc5d8"/><path d="M257.298,148.65c0.055,2.56 -1.063,6.14 -1.063,6.14c0,0 -5.862,-6.817 -9.42,-8.71c-4.35,-2.32 -6.48,1.158 -10.375,-1.856c-0.644,-0.504 -1.854,-1.837 -1.854,-1.837c-0.60614,0.62446 -1.21515,1.24614 -1.827,1.865c-4.321,4.286 -7.62,-0.652 -11.263,1.942c-4.636,3.308 -8.537,8.783 -8.537,8.783c0,0 -1.365,-1.538 -1.214,-6.205c0.043,-1.344 0.674,-4.333 1.716,-7.374c3.783,-7.739 11.718,-13.102 20.933,-13.174c10.588,-0.084 19.598,6.834 22.609,16.414c0.15917,1.33216 0.25761,2.67088 0.295,4.012" data-paper-data="{&quot;origPos&quot;:null}" fill="#805221"/></g></g></svg>