<svg xmlns="http://www.w3.org/2000/svg" width="79.713" height="115.85"><g fill-rule="evenodd" stroke-miterlimit="10" data-paper-data="{&quot;isPaintingLayer&quot;:true}" style="mix-blend-mode:normal"><path fill="#be966b" stroke="#be966b" stroke-width=".5" d="M43.861 82.732c.377 1.424 1.188 5.41-1.231 6.716-2.643 1.436-4.857.526-5.308.31 2.686-2.003.591-7.947.591-7.947s-3.237-1.2-1.218-3.47c0 0 1.479-1.48 4.457-.407 0 0 .668-5.089 2.018-8.304 0 0 7.954-.535 13.351 4.96 0 0-1.532 2.057-4.427 4.082-2.103 1.467-4.92 2.924-8.384 3.546 0 0 .065.19.151.514m-7.166-29.973c3.917-.537 3.636-6.964 3.636-6.964h-7.683s.128 7.498 4.047 6.964m-12.952-22.54s2.515-.18 4.048 1.694c0 0 1.166.623 1.802.268.626-.353-1.446-3.482-5.85-1.962m1.804 3.3c-.561 0-1.079.162-1.522.429l-2.007-.879 1.166 1.63c-.082.107-.155.22-.216.341l-2.373.515 2.016.579c-.01.107-.033.212-.033.332 0 1.628 1.329 2.945 2.969 2.945a2.954 2.954 0 0 0 2.967-2.945 2.954 2.954 0 0 0-2.967-2.947m-10.707-2.59c3.508-.536 16.998-4.683 23.872-10.84 0 0 1.218 2.013-4.176 7.369 0 0-.94.792 1.08.536 2.017-.277 8.901-.407 12.142-6.3 0 0-.67 4.017-2.431 5.893-1.758 1.875-1.077 1.734.401 1.478 1.489-.278 7.966-.942 10.663-7.497 0 0 3.907 2.14 4.047 7.09 0 0 .69-.385 1.618-.535v-.012c1.123-.192 2.613-.053 3.638 1.49 1.899 2.806.95 7.499-4.036 8.292l.032.128-.032.01s-15.1 3.998-12.076 18.383c-.53.03-1.08.107-1.675.299a6.64 6.64 0 0 0-1.812.866c-3.097 2.11-5.872 2.646-8.17 2.497-3.41-.225-5.796-1.97-6.67-2.366-1.015-.452-2.732-1.416-4.49-2.015a8.987 8.987 0 0 0-.734-.225l.01-.033c-.614-13.925-14.169-17.803-14.169-17.803l-.81-.277c-4.447-.536-5.935-5.89-3.777-8.43 1.002-1.202 2.116-1.589 3.001-1.683 1.003-.087 1.725.214 1.725.214s-.68 4.008 2.829 3.471m36.608-.71c-4.414-1.519-6.476 1.61-5.85 1.963.626.355 1.802-.268 1.802-.268 1.522-1.874 4.048-1.694 4.048-1.694m-1.803 3.301a2.955 2.955 0 0 0-2.968 2.947 2.955 2.955 0 0 0 2.968 2.945c1.64 0 2.969-1.317 2.969-2.945 0-.12-.022-.225-.035-.332l2.01-.579-2.365-.515a3.588 3.588 0 0 0-.215-.342l1.164-1.629-2.006.879a2.965 2.965 0 0 0-1.522-.429" data-paper-data="{&quot;origPos&quot;:null}"/><path fill="#7f4f21" d="M57.601 110.069s3.777.664 3.235 3.75c-.538 3.086-6.333 2.014-8.892.942-2.568-1.07-3.108-2.817-1.76-4.028 1.351 1.747 4.457 1.21 4.457 1.21 1.339-1.337 2.96-1.874 2.96-1.874M20.905 111.943s3.108.537 4.457-1.209c1.348 1.21.809 2.957-1.759 4.028-2.558 1.072-8.354 2.142-8.893-.943-.54-3.085 3.236-3.75 3.236-3.75s1.62.537 2.959 1.874"/><path fill="#595757" d="M30.067 103.662a102.67 102.67 0 0 1-4.704 7.072c-1.35 1.746-4.458 1.21-4.458 1.21a8.452 8.452 0 0 0-2.958-1.875l1.62-.664c-2.18-2.346-3.573-5.645-4.446-8.559.376.193 7.273 3.793 14.947 2.816m30.456-2.731c-.69 2.497-2.017 5.754-4.544 8.474l1.621.665s-1.62.535-2.96 1.873c0 0-3.107.537-4.456-1.21 0 0-2.234-2.311-4.91-7.059l.053-.033c7.221.974 14.01-2.13 15.196-2.71"/><path fill="#6a3908" d="M16.642 76.679a22.02 22.02 0 0 0 6.994 4.125l-.032.075c-7.89-1.502-14.16-3.483-14.16-3.483l1.079-2.807s2.698 1.33 6.064 2.144zm48.027 2.325c-6.336 2.678-13.631 3.675-20.808 3.728-.087-.323-.15-.515-.15-.515 3.464-.62 6.28-2.078 8.384-3.545 1.78-.224 8.602-1.17 11.98-2.217z"/><path fill="#e0b36e" d="M16.189 89.716s6.205 9.909 19.287 3.878c0 0 12.151 9.511 18.756-1.07 0 0 12.477 2.667 17.504-9.278 1.157 1.392 1.794 2.593 1.794 2.593-2.17 8.067-7.846 10.442-12.294 11.01-3.303.409-5.924-.168-5.924-.168-3.357 4.743-7.426 5.674-11.019 5.161-4.934-.686-8.948-4.092-8.948-4.092-.928.544-1.834.997-2.707 1.35-10.837 4.424-16.849-5.099-16.849-5.099-.7.076-1.382.13-2.03.16C.733 94.686 0 84.359 0 84.359c.41-.845.896-1.595 1.425-2.248.43 1.585 3.076 8.923 14.764 7.605" data-paper-data="{&quot;origPos&quot;:null}"/><path fill="#7f4f21" d="M64.669 79.004c3.075.204 5.525 2.399 7.068 4.242-5.028 11.946-17.505 9.278-17.505 9.278-6.606 10.582-18.756 1.07-18.756 1.07-13.082 6.031-19.287-3.877-19.287-3.877C4.501 91.034 1.855 83.695 1.425 82.11c3.172-3.931 8.018-4.714 8.018-4.714s6.27 1.981 14.16 3.483l.034-.075c1.833.673 3.928 1.179 6.312 1.413 0 0 .508 8.183 5.223 8.183.141 0 .292-.009.443-.019.713-.075 1.272-.301 1.705-.623.453.217 2.666 1.126 5.31-.31 2.419-1.306 1.608-5.291 1.231-6.716 7.177-.053 14.472-1.05 20.808-3.728"/><path fill="#8ed2f4" d="M59.401 13.305c-.756.655-1.812.849-2.697.407l-2.806-1.401c-1.057-.515-1.522-1.759-1.188-2.926a2.76 2.76 0 0 1 .195-.547l1.111-2.206a2.94 2.94 0 0 1 1.026-1.136c.722-.45 1.608-.536 2.375-.16l2.805 1.403c1.207.6 1.652 2.152.982 3.47l-1.112 2.209c-.166.34-.4.643-.69.887"/><path fill="#8ed2f4" d="M45.21 3.557v-.321C45.21 1.446 46.547 0 48.189 0h3.809c1.339 0 2.46.966 2.84 2.283.085.3.127.62.127.953v2.12l.077.14a2.94 2.94 0 0 0-1.026 1.136l-1.111 2.206c-.084.175-.15.358-.195.547-.182.022-.54.076-.712.076h-3.81c-1.64 0-2.978-1.446-2.978-3.225z"/><path fill="#fefefe" d="M38.94 72.395c0 .793-.637 1.435-1.435 1.435a1.43 1.43 0 1 1 0-2.86 1.43 1.43 0 0 1 1.435 1.425m-1.435-8.743c.798 0 1.435.632 1.435 1.426 0 .792-.637 1.423-1.435 1.423-.8 0-1.436-.631-1.436-1.423 0-.794.636-1.426 1.436-1.426"/><path fill="#da9ab6" d="M12.951 72.309s1.1 2.09 3.691 4.37l-.055.055c-3.366-.815-6.065-2.144-6.065-2.144l.52-2.989c1.066.602 1.909.707 1.909.707m43.57 2.281s3.604.353 6.746-1.756l.01.012c.669 2.409.798 3.61.798 3.61-3.377 1.048-10.199 1.992-11.98 2.217 2.893-2.026 4.426-4.082 4.426-4.082"/><path fill="#f6c8dc" d="M43.17 69.631c-1.35 3.213-2.018 8.302-2.018 8.302-2.979-1.071-4.457.408-4.457.408-.94-1.073-3.24-.537-3.24-.537l-2.837-8.709s2.43-1.329.96-7.049c3.41.483 6.335-1.918 6.335-1.918s2.084 2.401 4.804 2.572c-.216.718-.95 3.674.453 6.93m-5.665 4.2a1.431 1.431 0 1 0 0-2.86 1.43 1.43 0 1 0 0 2.86m0-10.178a1.424 1.424 0 1 0 0 2.849c.798 0 1.435-.63 1.435-1.423 0-.794-.637-1.426-1.435-1.426"/><path fill="#ebb5cd" d="M43.17 69.631c-1.35 3.213-2.018 8.302-2.018 8.302-2.979-1.071-4.457.408-4.457.408-.94-1.073-3.24-.537-3.24-.537l-2.837-8.709s2.43-1.329.96-7.049c3.41.483 6.335-1.918 6.335-1.918s2.084 2.401 4.804 2.572c-.216.718-.95 3.674.453 6.93m-5.665 4.2a1.431 1.431 0 1 0 0-2.86 1.43 1.43 0 1 0 0 2.86m0-10.178a1.424 1.424 0 1 0 0 2.849c.798 0 1.435-.63 1.435-1.423 0-.794-.637-1.426-1.435-1.426"/><path fill="#f6c8dc" d="M49.582 56.413c1.314-.068 2.384.224 2.987.224 1.383 0 6.002-.44 8.603-4.2l.075.054c4.189.802 6.745 5.892 6.606 10.445-.174 5.42-2.257 8.343-4.586 9.897-3.142 2.109-6.746 1.757-6.746 1.757-5.397-5.494-13.35-4.959-13.35-4.959-1.404-3.257-.67-6.212-.454-6.932a4.674 4.674 0 0 0 2.342-.429c3.67-1.701 2.99-5.013 2.848-5.558a6.555 6.555 0 0 1 1.675-.3"/><path fill="#fefefe" d="M37.925 60.075c2.298.15 5.073-.386 8.17-2.497a6.64 6.64 0 0 1 1.812-.866c.141.545.822 3.857-2.849 5.56a4.684 4.684 0 0 1-2.342.427c-2.719-.17-4.802-2.57-4.802-2.57z"/><path fill="#fefefe" d="M26.766 55.694c1.757.6 3.474 1.563 4.49 2.014.873.397 3.26 2.143 6.67 2.367l-.012.053s-2.925 2.401-6.336 1.918a5.943 5.943 0 0 1-1.629-.451c-4.047-1.744-3.239-5.751-3.239-5.751z"/><path fill="#f6c8dc" d="M26.031 55.469c.247.063.487.139.734.225l-.055.15s-.808 4.006 3.24 5.75c.549.239 1.1.387 1.628.452 1.47 5.72-.96 7.05-.96 7.05-9.843-1.074-17.667 3.212-17.667 3.212s-.843-.106-1.91-.706c-1.792-.985-4.21-3.332-4.297-8.795-.119-8.035 6.303-11.055 7.297-11.474 4.058 3.826 7.964 3.696 10.328 3.836.563.038 1.12.139 1.662.3"/><path fill="#be966b" stroke="#be966b" stroke-width=".5" d="M63.243 46.662v.013c-.14 2.484-.83 4.358-1.814 5.762-2.6 3.76-7.22 4.2-8.603 4.2-.603 0-1.673-.292-2.988-.224-3.022-14.386 12.077-18.384 12.077-18.384l.031-.01.595 2.151c.603 2.53.798 4.672.702 6.491M12.13 37.634s13.555 3.877 14.17 17.803l-.01.031a7.685 7.685 0 0 0-1.662-.3c-2.364-.138-6.272-.01-10.33-3.835a7.29 7.29 0 0 1-.323-.31c-5.266-5.763-2.03-12.726-2.03-12.726z" data-paper-data="{&quot;origPos&quot;:null}"/><path fill="#e50113" d="M40.331 45.796s.28 6.427-3.636 6.964c-3.918.534-4.047-6.964-4.047-6.964z"/><path fill="#6f441d" d="M23.743 30.219c4.405-1.52 6.476 1.609 5.85 1.962-.637.354-1.803-.268-1.803-.268-1.53-1.874-4.047-1.694-4.047-1.694m27.704 0s-2.525-.18-4.046 1.694c0 0-1.176.622-1.801.268-.628-.353 1.435-3.482 5.847-1.962" data-paper-data="{&quot;origPos&quot;:null}"/><path fill="#794b1f" d="M54.709 5.357V3.236c0-.332-.043-.653-.13-.953C55.82 1.491 62.9-2.42 72.193 3.889c10.252 6.963 6.065 20.355 3.778 26.503-2.3 6.17-2.98 9.513-1.62 10.711 1.34 1.21 3.357 1.48 5.105-1.305-.14.695-3.27 14.685-16.727 6.876v-.012c.096-1.819-.098-3.962-.702-6.491l-.594-2.15-.031-.13c4.984-.793 5.933-5.484 4.035-8.292-1.025-1.542-2.516-1.681-3.638-1.488.756-9.793-2.277-14.292-2.655-14.806.282-.236.518-.535.69-.887l1.113-2.21c.67-1.317.226-2.868-.981-3.469L57.16 5.335c-.768-.375-1.653-.288-2.375.16z" data-paper-data="{&quot;origPos&quot;:null}"/><path fill="#794b1f" d="M10.253 27.049S11.72-2.913 45.21 3.558v2.68c0 1.777 1.337 3.223 2.978 3.223h3.81c.173 0 .53-.053.713-.076-.335 1.167.13 2.411 1.187 2.926l2.806 1.403c.885.44 1.942.247 2.697-.408.378.515 3.41 5.014 2.656 14.805v.012c-.93.15-1.619.535-1.619.535-.14-4.95-4.047-7.091-4.047-7.091-2.698 6.556-9.174 7.22-10.664 7.498-1.477.256-2.157.397-.4-1.478 1.76-1.875 2.43-5.893 2.43-5.893-3.24 5.893-10.123 6.022-12.141 6.3-2.02.255-1.08-.536-1.08-.536 5.395-5.357 4.176-7.37 4.176-7.37-6.874 6.157-20.365 10.304-23.872 10.841-3.508.536-2.829-3.472-2.829-3.472s-.721-.3-1.726-.215l-.032-.192z" data-paper-data="{&quot;origPos&quot;:null}"/><path fill="#be966b" d="M44.293 101.843c3.594.512 7.662-.419 11.02-5.164 0 0 2.62.58 5.924.17l.01.098s-.097 1.66-.723 3.984c-1.187.58-7.975 3.685-15.196 2.71l-.053.033a46.823 46.823 0 0 1-.982-1.831m-29.182-1.007c-1.059-3.568-1.35-6.568-1.35-6.568v-.107a33.32 33.32 0 0 0 2.027-.16s6.013 9.523 16.85 5.099a78.378 78.378 0 0 1-2.57 4.563c-7.674.975-14.57-2.624-14.947-2.816 0-.011-.01-.011-.01-.011M37.321 89.759c-.433.321-.993.547-1.705.622a6.75 6.75 0 0 1-.445.019c-4.714 0-5.221-8.183-5.221-8.183-2.385-.234-4.48-.74-6.314-1.413a22.02 22.02 0 0 1-6.994-4.125c-2.59-2.28-3.692-4.371-3.692-4.371s7.826-4.286 17.669-3.213l2.836 8.71s2.3-.537 3.24.535c-2.019 2.271 1.22 3.472 1.22 3.472s2.094 5.944-.594 7.947" data-paper-data="{&quot;origPos&quot;:null}"/><path fill="#f9cda5" d="M39.064 41.61a.409.409 0 0 1-.33-.169c-.799-1.113-1.618-1.677-2.415-1.637-1.277.04-2.208 1.511-2.217 1.528a.409.409 0 0 1-.556.13.396.396 0 0 1-.132-.552c.044-.074 1.162-1.852 2.875-1.91 1.089-.063 2.138.628 3.104 1.974a.405.405 0 0 1-.095.564.43.43 0 0 1-.234.072"/><path fill="#a27f5a" d="M15.635 30.779c-.364 3.449-.159 6.332.371 8.712-2.324-1.336-4.134-1.857-4.134-1.857l-.809-.279c-4.447-.535-5.936-5.89-3.778-8.43 1.003-1.2 2.116-1.588 3-1.682 1.004-.087 1.726.215 1.726.215s-.679 4.007 2.829 3.471c.225-.036.494-.085.795-.15m21.935-6.897c-7.22 4.191-13.802 5.441-17.808 5.781 5.613-1.75 13.994-5.135 18.951-9.575 0 0 .647 1.094-1.143 3.794m9.086 1.54c-3.759 2.674-8.11 2.558-9.646 2.412 2.837-.325 8.051-1.233 10.747-6.142 0 0-.322 1.924-1.1 3.73m2.527 27.158a17.668 17.668 0 0 0 .398 3.833 6.546 6.546 0 0 0-1.674.299 6.64 6.64 0 0 0-1.813.866c-3.097 2.111-5.872 2.647-8.169 2.498-3.41-.225-5.798-1.971-6.67-2.368-1.016-.45-2.732-1.415-4.49-2.015a9.812 9.812 0 0 0-.735-.225l.01-.032a20.14 20.14 0 0 0-.51-3.732c9.287 5.471 17.809 3.73 23.653.876m16.509-22.982c1.898 2.807.949 7.499-4.035 8.293l.03.128-.03.01s-1.704.455-3.846 1.597c-.26-5.335-1.78-11.18-2.32-12.038-.493-.784-3.04-.332-5.24.236 2.24-.987 4.714-2.797 6.138-6.257 0 0 3.908 2.14 4.048 7.09a5.455 5.455 0 0 1 1.618-.535v-.012c1.122-.191 2.613-.053 3.638 1.489m-27.78 52.213s2.095 5.944-.593 7.947c-.433.321-.993.547-1.706.621-.151.01-.302.02-.445.02-4.713 0-5.22-8.183-5.22-8.183-2.384-.233-4.48-.74-6.314-1.413a22.02 22.02 0 0 1-6.995-4.125c-2.589-2.28-3.69-4.372-3.69-4.372s4.02-2.187 9.907-3.04c-2.447 1.308-4.224 3.157-2.082 5.453 4.497 4.82 8.634 5 9.353 6.606.719 1.607 2.518 7.855 5.575 6.605 2.461-1.006 1.546-4.436 1.656-6.39.311.178.554.271.554.271" data-paper-data="{&quot;origPos&quot;:null}"/><path fill="#a27f5a" d="M41.153 77.933c-1.71-.479-3.449 1.202-4.07 3.437-.796-.539-1.698-1.557-.388-3.03 0 0 1.478-1.479 4.457-.407m-2.388 9.462c4.137 3.749 5.037-2.499 4.945-5.177.056.17.107.341.152.514.376 1.424 1.187 5.41-1.23 6.716-2.645 1.436-4.858.526-5.31.31.785-.584 1.153-1.51 1.295-2.52.053.05.091.107.148.157m9.908-17.147c2.499.633 5.429 1.878 7.849 4.342 0 0-1.532 2.056-4.427 4.082-2.104 1.466-4.92 2.925-8.384 3.546-.09-2.679 8.186-5.177 9.442-7.677.653-1.297-1.884-2.974-4.48-4.293" data-paper-data="{&quot;origPos&quot;:null}"/><path fill="#ebb5cd" d="M29.95 69.007c.49-.241.972-.5 1.443-.776-.377.64-.775.864-.775.864-9.842-1.072-17.667 3.214-17.667 3.214s-.844-.106-1.91-.707c-1.791-.985-4.21-3.331-4.296-8.796-.119-8.033 6.303-11.054 7.296-11.472 4.057 3.824 7.965 3.696 10.33 3.834.563.04 1.12.14 1.66.3.248.065.493.14.735.225l-.055.15s-.155.78.014 1.797c-2.088-1.54-7.813-2.576-12.067-.953-3.591 1.373-2.854 6.497-1.457 9.151 1.687 3.197 5.117 2.276 8.102 2.29 1.933.009 3.885.242 5.8.479.559.067 2.338.65 2.847.4m31.298-16.516c4.188.802 6.745 5.892 6.605 10.445-.173 5.42-2.257 8.343-4.587 9.897-3.14 2.109-6.745 1.757-6.745 1.757-5.396-5.494-13.35-4.959-13.35-4.959 5.844-5.089 20.236 4.019 21.494-4.195 1.26-8.215-7.374-7.319-10.072-6.785-2.085.413-5.448.827-6.875.993.533-1.34.272-2.612.19-2.932a6.52 6.52 0 0 1 1.674-.299c1.315-.068 2.385.224 2.989.224 1.382 0 6-.44 8.6-4.2l.077.054"/><path fill="#da9ab6" d="M42.716 62.7c-.216.718-.948 3.675.454 6.93-1.349 3.215-2.018 8.304-2.018 8.304-2.979-1.073-4.457.407-4.457.407-.94-1.074-3.24-.537-3.24-.537l-2.837-8.708s2.429-1.33.96-7.05c.1.014.196.018.296.028.552 2.106 1.59 6.69.774 8.718 0 0 .539 5 3.777 5 3.237 0 4.496-1.966 5.575-6.071 0 0-1.444-2.793.717-7.022"/><path fill="#8f5620" d="M51.998 9.46c.172 0 .531-.053.712-.076 0 0-8.012 6.063-7.651-5.187.006-.232-.018-.449-.035-.669.063.012.122.018.186.028v2.68c0 1.778 1.338 3.224 2.979 3.224z" data-paper-data="{&quot;origPos&quot;:null}"/><path fill="#6f441d" d="M59.401 13.305c.378.514 3.411 5.013 2.655 14.806v.01c-.927.151-1.617.536-1.617.536-.141-4.949-4.049-7.09-4.049-7.09-2.697 6.554-9.173 7.219-10.663 7.498-1.477.255-2.157.395-.4-1.479 1.761-1.875 2.43-5.892 2.43-5.892-3.239 5.892-10.123 6.021-12.14 6.3-2.021.254-1.08-.537-1.08-.537 5.394-5.356 4.176-7.37 4.176-7.37-6.875 6.158-20.366 10.305-23.872 10.84-3.509.537-2.829-3.47-2.829-3.47s-.723-.3-1.726-.215l-.032-.192s.129-2.519 1.116-5.934c1.184 3.936 6.751 7.03 27.754-3.17 0 0 3.418 3.032 8.993.178 5.576-2.856 2.351-4.98 4.593-8.739-.334 1.167.131 2.411 1.188 2.926l2.806 1.401c.885.442 1.941.248 2.697-.407" data-paper-data="{&quot;origPos&quot;:null}"/><path fill="#8f5620" d="M42.541 10.803S30.623 20.735 12.21 18.62c1.301-3.41 3.461-7.246 7.041-10.31 3.509 2.033 11.727 5.528 23.29 2.493" data-paper-data="{&quot;origPos&quot;:null}"/><path fill="#6f441d" d="M74.608 41.103c1.339 1.21 3.357 1.481 5.105-1.304-.14.694-3.27 14.684-16.727 6.876v-.013c.096-1.82-.098-3.961-.702-6.491l-.595-2.151-.03-.128c4.984-.793 5.933-5.486 4.035-8.292-1.025-1.543-2.516-1.682-3.638-1.49.756-9.791-2.277-14.29-2.654-14.804.29-.245.525-.548.69-.889l1.112-2.208c.34-.659.4-1.428.164-2.131 2.546.224 5.98 1.758 6.536 8.26 0 0 1.078 8.57 1.798 5 .718-3.571 1.437-8.214.54-10.356-.901-2.143 1.437-1.963 3.237.713 1.798 2.678 1.798-1.963-.72-4.64-2.517-2.679-10.433-6.07-14.21-3.571 0 0 2.385-3.346 9.922-1.752a22.331 22.331 0 0 1 3.979 2.157c10.252 6.963 6.065 20.353 3.778 26.503-2.3 6.171-2.98 9.513-1.62 10.711" data-paper-data="{&quot;origPos&quot;:null}"/><path fill="#82c1e0" d="m54.966 5.356.076.14a2.93 2.93 0 0 0-1.026 1.136l-1.111 2.206a2.634 2.634 0 0 0-.194.547c-.183.022-.541.076-.713.076H48.19c-1.642 0-2.98-1.446-2.98-3.225v-3a3.53 3.53 0 0 1 .096-.78c.433 1.885 1.575 4.9 4.428 4.778 4.139-.179 3.238-3.037 2.879-4.465C52.421 2 50.664.618 48.857 0h3.141c1.339 0 2.46.966 2.838 2.283.087.3.13.621.13.953v2.121z"/><path fill="#fefefe" d="M51.078 4.151c-.398.683-1.52.778-2.51.212-.989-.563-1.472-1.577-1.076-2.26.398-.685 1.522-.78 2.511-.216.99.566 1.474 1.58 1.075 2.264m8.279 4.868c0 .74-.684 1.34-1.527 1.34-.847 0-1.53-.6-1.53-1.34 0-.74.683-1.34 1.53-1.34.843 0 1.527.6 1.527 1.34"/><path fill="#6e4319" d="M64.669 79.004c1.444 3.391 2.333 5.537-.185 3.394-2.516-2.144-5.216.178-3.418 2.676 1.799 2.501-3.237 0-4.317-1.07-1.077-1.071-3.597-.535-2.697 3.928.899 4.462-4.317-1.429-5.756-3.928-1.438-2.502-2.518 3.928-2.518 3.928-1.618 5.713-8.273 2.856-8.273 2.856-.912.544-1.684.718-2.224.76l.024.251c-6.82-.738-9.926-8.383-11.112-9.223-1.258-.894-3.958-1.786-5.576 1.428-1.618 3.214-1.978-.894-1.618-3.214.358-2.319-5.038-1.07-9.174 1.072-3.042 1.576.336-2.16 2.334-4.247a141.54 141.54 0 0 0 13.444 3.264l.034-.075c1.833.673 3.928 1.179 6.312 1.413 0 0 .508 8.183 5.223 8.183.141 0 .292-.009.443-.019.713-.075 1.272-.301 1.705-.623.453.217 2.666 1.126 5.31-.31 2.419-1.306 1.608-5.291 1.231-6.716 7.177-.053 14.472-1.05 20.808-3.728"/><path fill="#3f3a3a" d="M20.421 102.846c2.66.727 6.064 1.272 9.646.817-2.439 4.017-4.705 7.07-4.705 7.07-1.349 1.747-4.457 1.21-4.457 1.21a8.445 8.445 0 0 0-2.959-1.873l.52-.214c.111.071.22.15.33.215 5.975 3.47 2.978-4.19 1.625-7.225m30.412.835c.169 2.889 1.205 8.393 6.767 6.388a8.434 8.434 0 0 0-2.958 1.875s-3.107.536-4.457-1.21c0 0-2.235-2.312-4.91-7.06l.052-.033c1.899.259 3.763.227 5.506.04"/><path fill="#6e4319" d="M25.363 110.734c1.348 1.209.808 2.957-1.759 4.027-2.559 1.072-8.355 2.144-8.893-.942-.116-.654-.027-1.193.168-1.647.193.81 1.281 1.609 3.198 2.004 2.722.564 4.226-1.001 4.966-2.235.843-.131 1.74-.458 2.32-1.207M59.449 110.807c.866.554 1.655 1.485 1.387 3.011-.538 3.087-6.333 2.015-8.891.943-2.568-1.07-3.109-2.818-1.76-4.028.941 1.217 2.732 1.327 3.734 1.28 1.902 1.505 4.447 3.059 5.71 1.807 1.06-1.052.704-2.167-.18-3.013"/><path fill="#fefefe" d="M51.605 37.262a1.3 1.3 0 0 1-.925-2.22 1.3 1.3 0 0 1 .925-.377 1.3 1.3 0 0 1 1.31 1.299c0 .72-.585 1.298-1.31 1.298M26.05 35.759a1.32 1.32 0 0 1-1.32 1.31c-.717 0-1.312-.59-1.312-1.31 0-.72.595-1.3 1.312-1.3.725 0 1.32.58 1.32 1.3"/><path fill="#3f3a3a" d="M47.526 36.061c0 .723.583 1.299 1.31 1.299a1.3 1.3 0 1 0 0-2.598 1.3 1.3 0 0 0-1.31 1.3m2.256 3.742c-1.841 0-3.334-1.483-3.334-3.31 0-1.83 1.493-3.31 3.334-3.31.63 0 1.2.182 1.71.483l2.253-.986-1.308 1.827c.084.12.169.254.24.386l2.658.576-2.256.651c.013.12.037.24.037.374 0 1.826-1.494 3.309-3.334 3.309m-21.307-3.443c0 1.827-1.49 3.309-3.334 3.309-1.841 0-3.334-1.482-3.334-3.31 0-.132.023-.253.035-.373l-2.264-.649 2.666-.577c.072-.133.145-.266.242-.387l-1.31-1.827 2.254.985c.498-.3 1.08-.482 1.71-.482 1.845 0 3.335 1.482 3.335 3.31m-3.745-1.9c-.717 0-1.311.578-1.311 1.298 0 .722.594 1.312 1.31 1.312.727 0 1.32-.59 1.32-1.312a1.31 1.31 0 0 0-1.32-1.299"/><path fill="#fefefe" d="M48.877 34.726a1.31 1.31 0 0 1 1.32 1.299 1.32 1.32 0 0 1-1.32 1.313c-.717 0-1.31-.59-1.31-1.313 0-.72.593-1.299 1.31-1.299"/></g></svg>