<svg xmlns="http://www.w3.org/2000/svg" width="57.595" height="119.215"><g fill-rule="evenodd" stroke-miterlimit="10" data-paper-data="{&quot;isPaintingLayer&quot;:true}" style="mix-blend-mode:normal"><path fill="#2c2c2d" d="M35.768 113.601h-8.904c-.057.25.021.558.18.815.531.826 1.448 1.487 2.228 2.045 1.21.842 2.735 1.277 4.07 1.923 1.209.515 2.8 1.456 3.881.226 1.429-1.745.217-3.96-1.455-5.01zm-19.023 0h8.904c.06.25-.018.558-.18.815-.528.826-1.445 1.487-2.225 2.045-1.21.842-2.738 1.277-4.07 1.923-1.209.515-2.802 1.456-3.881.226-1.431-1.745-.219-3.96 1.452-5.01z"/><path fill="#eeeeed" d="M35.769 113.602h-8.906l-.005-6.796h9.186z"/><path fill="#dfaa22" d="m26.862 108.858-.002-1.604h9.167l-.065 1.604z"/><path fill="#2356a3" d="M26.862 110.089v-1.232h9.101l-.052 1.233z"/><path fill="#eeeeed" d="M25.65 113.602h-8.904l-.274-6.796h9.178z"/><path fill="#2356a3" d="m16.602 110.089-.047-1.232h9.097v1.233z"/><path fill="#dfaa22" d="m16.555 108.858-.065-1.604h9.162v1.604z"/><path fill="#2c2c2d" d="M23.102 88.893h14.49s2.27 15.284-1.018 18.439c-1.857 1.79-10.231-.003-10.231-.003l-.139-11.595h-.263l-.136 11.598s-8.366 1.782-10.226-.003c-3.288-3.158-1.023-18.436-1.023-18.436z"/><path fill="#dfaa22" d="M14.456 89.623s1.264 10.042.525 17.51c-.039.398-1.235-.287-1.455-.619-.136-.212 0-1.017 0-1.017s-1.257-.268-1.317-.635c-.665-4.012.91-15.222.91-15.222z"/><path fill="#8e6713" d="m13.468 105.496-.089-9.297.21 9.295z"/><path fill="#e9c7a1" d="M55.859 48.148c1.706.733 2.246 3.349 1.209 5.84-.666 1.598-1.817 2.757-3.011 3.187h.003s-3.182 9.175-5.95 10.197c-2.241.826-10.139-2.437-10.139-2.437s-.638-2.494-.97-3.283c-.451-1.081-2.29-4.045-2.29-4.045l10.81 3.934 5.096-6.085a4.643 4.643 0 0 1-.191-.783c-.327-.606-.595-1.365-.757-2.21-.423-2.21.047-4.158 1.053-4.36.538-.107 1.117.316 1.606 1.062 1.084-1.057 2.416-1.497 3.531-1.017M9.971 62.933c1.653-2.148 7.621-5.328 7.621-5.328s-2.771 5.136-3.277 7.412c-.063.292-.222 1.068-.369 1.472-.18.501-.689 1.141-1.478 2.276-1.575 2.27-3.053 11.86-3.053 11.86.036.064.068.13.102.196.448.46.825.984 1.117 1.556.854 1.642.943 3.296.199 3.7-.4.215-.959.029-1.52-.446-.604 1.099-1.554 1.774-2.547 1.668-1.52-.168-2.565-2.096-2.335-4.316.099-.937.408-1.771.844-2.414l-.005.058s1.301-13.278 4.701-17.694" data-paper-data="{&quot;origPos&quot;:null}"/><path fill="#eeeeed" d="M9.767 80.317H5.16s1.316-13.48 4.881-17.81c1.567-1.901 5.859-4.445 6.64-4.886 1.948-1.275 7.786-1.469 7.786-1.469l1.627.05h.136l1.627-.05s5.86.21 7.794 1.495l9.867 3.87 5.018-6.098 4.474 2.268s-4.84 9.003-6.854 9.744c-2.144.791-8.582-1.798-9.128-2.05 2.167 9.531 1.875 23.577 1.875 23.577l-29.483-.003s-.185-11.238 1.35-20.523c-.07.11-.146.22-.23.338-1.159 1.667-2.773 11.547-2.773 11.547"/><path fill="#2356a3" d="M37.354 58.314c.073.947.499 5.63 1.674 7.067 2.168 9.531 1.901 23.577 1.901 23.577v.898l-12.61.924-1.82-1.788-1.815 1.788-13.279-.925v-.9s-.172-11.236 1.366-20.52c1.021-2.09 1.397-7.803 1.483-9.317a46.266 46.266 0 0 1 2.427-1.495c1.946-1.274 7.786-1.463 7.786-1.463l1.627.056h.136l1.627-.056s5.861.204 7.794 1.487z"/><path fill="#f6b90c" d="M40.928 88.927v.929l-12.608.922-1.82-1.787-1.818 1.787-13.279-.922v-.943l13.279.895 1.395-1.413V59.79h.786v28.537l1.457 1.482zM14.253 59.118l.74-.476c-.118 7.444-1.21 10.358-2.416 11.042.054-.355.136-.9.196-1.25 1.018-2.088 1.397-7.803 1.48-9.316m24.775 6.263c.07.313.139.626.204.94l.031.159c-1.69-.873-2.458-2.496-2.873-8.535.003-.003.005-.005.005-.008l.959.377c.073.948.499 5.63 1.674 7.066"/><path fill="#f6b90c" d="m29.802 77.215-3.257-3.262-3.254 3.262 3.254 3.317zm-3.257 3.633L23.299 84.3l3.246 3.394 3.247-3.394zm0-7.317 3.38-3.311-3.38-3.203-3.38 3.203zm0-6.931 3.228-3.152-3.228-2.922-3.228 2.922zm3.86 10.612-3.416 3.481 3.393 3.61-3.644 3.808-.193-.191-.191.191-3.646-3.808 3.396-3.609-3.417-3.482 3.466-3.468-3.601-3.53 3.596-3.407-3.458-3.37 3.704-3.352.151.17.154-.17 3.704 3.352-3.459 3.37 3.6 3.407-3.602 3.53z"/><path fill="#f6b90c" d="M26.535 60.246c-4.55 0-4.55-3.925-4.55-3.925 1.403-.17 2.46-.154 2.46-.154l2.025.111h.167l2.019-.074s.966.034 2.27.172c0 0 .041 3.87-4.391 3.87"/><path fill="#2da9e0" d="M6.864 70.314c.14-.579.292-1.154.457-1.726l4.796 1.08c-.173.47-.35 1.055-.525 1.71l-4.728-1.064m38.199-8.976-1.259 5.691a33.557 33.557 0 0 1-1.693-.508l1.293-5.831 1.658.648z"/><path fill="#e9c7a1" d="M47.335 36.845c1.084.712 1.797 1.917 1.797 3.285 0 2.186-1.807 3.952-4.035 3.952-.065 0-.131-.003-.193-.003-3.612 6.583-10.536 11.037-18.479 11.037-7.953 0-14.877-4.462-18.489-11.058a4.156 4.156 0 0 1-.447.024c-2.231 0-4.041-1.766-4.041-3.952 0-1.469.826-2.751 2.043-3.434a22.601 22.601 0 0 1-.216-3.083c0-11.873 9.47-21.503 21.15-21.503 11.68 0 21.148 9.629 21.148 21.503 0 1.099-.081 2.18-.238 3.232" data-paper-data="{&quot;origPos&quot;:null}"/><path fill="#2c2c2d" d="M22.125 31.51s-.457 1.65-1.89 1.323c-.701-.16-.824-1.1-3.074-.678-.707.165-2.194 1.058-2.48 1.654-.287.597-.08-2.187 2.23-3.222 1.666-.617 2.23-.586 3.61-.586s1.805.83 1.604 1.509m9.583 0s.457 1.65 1.89 1.323c.701-.16.825-1.1 3.074-.678.707.165 2.194 1.058 2.48 1.654.287.597.08-2.187-2.23-3.222-1.666-.617-2.23-.586-3.61-.586s-1.804.83-1.604 1.509m-11.434 7.247c0 1.612-.85 2.919-1.898 2.919s-1.898-1.307-1.898-2.919.85-2.919 1.898-2.919 1.898 1.307 1.898 2.919m17.081 0c0 1.612-.85 2.919-1.898 2.919s-1.898-1.307-1.898-2.919.85-2.919 1.898-2.919c1.049 0 1.898 1.307 1.898 2.919"/><path fill="#683918" d="M24.07 41.676s.196-1.014.478-1.306c.76-1.163 2.364-1.613 2.364-1.613s2.065.707 2.518 1.597c.421.828.324 1.245.324 1.245s-2.017-1.881-2.814-1.767c-1.07.154-2.87 1.844-2.87 1.844zM20.464 44.299s6.544 3.123 12.5-.386c0 0-1.32 5.321-5.646 5.41-3.905.12-4.73-1.451-5.197-1.902-.468-.45-1.349-1.724-1.658-3.122"/><path fill="#2c2c2d" d="M48.412 30.81c.034 2.526-.833 7.991-2.528 11.247 0 0-4.159-11.967-7.586-13.863-4.189-2.316-15.226 1.019-18.97-1.981-.62-.499-.55-1.628-.55-1.628s-.716 1.44-1.063 1.84c-1.81 2.098-6.514 5.137-8.747 6.765-1.792 1.317-1.876 1.298-1.479 8.867 0 0-3.301-6.883-3.118-11.483.052-1.326.684-4.26 1.713-7.248 3.722-7.595 11.434-12.813 20.344-12.813 10.238 0 18.889 6.883 21.73 16.348.147 1.312.232 2.63.254 3.949"/><path fill="#e9c7a1" d="M26.519 59.416c-3.661 0-3.661-3.155-3.661-3.155 1.128-.14 1.977-.128 1.977-.128l1.63.09h.135l1.628-.06s.773.029 1.825.138c0 0 .032 3.115-3.534 3.115" data-paper-data="{&quot;origPos&quot;:null}"/><path fill="#e9c7a1" d="M24.777 57.582c-.987 0-1.788-2.156-1.788-3.144h7.03c0 .988-.799 3.144-1.786 3.144h-3.456" data-paper-data="{&quot;origPos&quot;:null}"/><path fill="#683918" d="M23.811 56.897c-.397-.613-.742-1.447-.807-2.06 2.32.382 4.688.373 7.005-.027l-.016.013-6.182 2.074"/><path fill="#f9d6b3" d="M0 15.433c0-1.45 19.647-2.873 26.25-2.942 7.005-.075 27.795 2.531 27.795 3.654 0 1.121-14.388 8.902-28.098 8.902C12.125 25.047 0 17.847 0 15.433"/><path fill="#e1b38d" d="M35.197 1.756c0 1.142-4.213 4.1-9.413 4.1s-9.416-2.958-9.416-4.1C16.368.616 20.583 0 25.784 0c5.2 0 9.413.616 9.413 1.756"/><path fill="#f9d6b3" d="M37.888 17.415c-2.962 3.726-20.853 3.402-24.189.016l2.67-15.704c1.436.678 2.917.927 4.134 1.6 5.206 2.878 5.206 2.878 9.933.19 1.384-.788 3.119-.998 4.785-1.79z"/><path fill="#2356a3" d="M37.888 17.415c-2.962 3.726-20.853 3.402-24.188.016l.72-4.239c11.362 2.619 11.362 2.619 22.752 0l.716 4.223"/></g></svg>