<svg version="1.1" xmlns="http://www.w3.org/2000/svg" xmlns:xlink="http://www.w3.org/1999/xlink" width="73.15814" height="119.51589" viewBox="0,0,73.15814,119.51589"><g transform="translate(-203.31286,-120.012)"><g data-paper-data="{&quot;isPaintingLayer&quot;:true}" fill-rule="evenodd" stroke="none" stroke-width="1" stroke-linecap="butt" stroke-linejoin="miter" stroke-miterlimit="10" stroke-dasharray="" stroke-dashoffset="0" style="mix-blend-mode: normal"><path d="M203.313,169.26c8.392,13.167 19.59,2.182 15.779,-9.46c-2.764,-8.448 12.243,2.751 12.243,2.751c0,0 -8.789,24.492 -16.411,24.86c-7.624,0.363 -11.638,-11.624 -11.611,-18.15" data-paper-data="{&quot;origPos&quot;:null}" fill="#80591f"/><path d="M208.983,196.965h0.002zM208.052,199.584c0.111,-1.032 0.452,-1.957 0.938,-2.665v0.013c0.098,-0.949 1.558,-14.79 5.201,-19.502c1.837,-2.375 8.689,-6.007 8.689,-6.007h0.015c2.202,-1.27 7.422,-1.46 7.422,-1.46l1.815,0.08h0.152l1.809,-0.112c0,0 5.195,0.253 7.415,1.538v0.005l12.193,4.417l5.66,-6.724c-0.093,-0.269 -0.162,-0.559 -0.21,-0.867c-0.364,-0.667 -0.662,-1.508 -0.84,-2.437c-0.472,-2.443 0.052,-4.598 1.168,-4.818c0.599,-0.117 1.241,0.345 1.787,1.173c1.202,-1.169 2.684,-1.658 3.92,-1.125c1.896,0.81 2.499,3.7 1.343,6.454c-0.737,1.765 -2.02,3.046 -3.347,3.522h0.002c0,0 -3.53,10.137 -6.606,11.267c-2.239,0.819 -9.557,-1.999 -11.008,-2.575c2.698,10.537 3.014,26.532 3.014,26.532h-32.752c0,0 0.257,-13.903 2.475,-24.333v-0.009c-0.27,0.473 -0.736,1.072 -1.336,1.93c-1.75,2.505 -3.389,13.099 -3.389,13.099c0.041,0.075 0.083,0.141 0.118,0.22c0.49775,0.50711 0.91583,1.08668 1.24,1.719c0.952,1.812 1.052,3.641 0.222,4.088c-0.442,0.233 -1.062,0.027 -1.687,-0.493c-0.67,1.215 -1.723,1.959 -2.827,1.84c-1.691,-0.18 -2.853,-2.318 -2.596,-4.77z" data-paper-data="{&quot;origPos&quot;:null}" fill="#ffd466"/><path d="M276.47,160.576c0,5.66 -4.537,10.249 -10.135,10.249c-5.6,0 -10.138,-4.59 -10.138,-10.249c0,-5.663 4.538,-10.25 10.138,-10.25c5.598,0 10.136,4.587 10.136,10.25" fill="#b52836"/><path d="M274.163,160.576c0,4.372 -3.505,7.918 -7.83,7.918c-4.322,0 -7.826,-3.546 -7.826,-7.918c0,-4.371 3.504,-7.92 7.827,-7.92c4.324,0 7.829,3.549 7.829,7.92" fill="#e63744"/><path d="M268.777,160.576c0,1.363 -1.095,2.468 -2.442,2.468c-1.35,0 -2.445,-1.105 -2.445,-2.468c0,-1.364 1.095,-2.472 2.445,-2.472c1.347,0 2.442,1.108 2.442,2.472" fill="#eeeeed"/><path d="M266.896,160.576c0,0.31011 -0.25139,0.5615 -0.5615,0.5615c-0.31011,0 -0.5615,-0.25139 -0.5615,-0.5615c0.0127,-0.3009 0.26033,-0.5383 0.5615,-0.5383c0.30117,0 0.5488,0.2374 0.5615,0.5383" fill="#343434"/><path d="M215.834,206.294c0.013,-0.68 0.272,-12.276 2.03,-22.051c0.044,-0.216 0.066,-0.41 0.111,-0.619c3.618,-4.09 4.083,-7.877 4.932,-12.196c0.982,-0.566 2.557,-0.913 4.007,-1.127c0,0 -0.002,6.504 5.217,6.504c4.945,0 4.705,-6.594 4.705,-6.594c1.611,0.22 3.537,0.603 4.673,1.265c0.897,2.717 1.824,8.371 4.61,10.667c2.135,10.123 2.45,23.402 2.464,24.15h-32.75z" fill="#23784c"/><path d="M241.037,176.64v1.904c0.00319,0.48446 -0.18627,0.95033 -0.52668,1.29505c-0.34041,0.34472 -0.80386,0.54004 -1.28832,0.54295c-0.48446,-0.00291 -0.94791,-0.19822 -1.28832,-0.54295c-0.34041,-0.34472 -0.52987,-0.81059 -0.52668,-1.29505v-1.904z" fill="#f6b90c"/><path d="M246.081,206.294h-2.152v-27.234c0.57,1.228 1.266,2.306 2.152,3.052zM220.257,180.42c-0.60508,1.09103 -1.32699,2.11303 -2.153,3.048v22.826h2.153v-25.874M222.007,187.386h20.378v12.786h-20.378z" fill="#eeeeed"/><path d="M222.007,187.387h20.378v2.58h-20.378zM222.007,198.54h20.378v1.632h-20.378z" fill="#99588c"/><path d="M230.323,233.456h-8.676l-0.024,-4.345l-0.354,-8.102l-0.632,-3.128h10.896v3.128l-0.242,8.102zM242.763,233.456h-9.348l-0.307,-4.345l-0.23,-8.102v-3.128h10.892l-0.633,3.128l-0.35,8.102z" data-paper-data="{&quot;origPos&quot;:null}" fill="#ffd466"/><path d="M244.981,206.25l-1.136,11.833h-11.076l-0.418,-4.352h-0.296l-0.42,4.352h-11.08l-1.13,-11.833h16.073z" fill="#e63744"/><path d="M231.494,233.26h0.02c0.065,0.273 -0.019,0.573 -0.206,0.863c-0.601,0.936 -1.642,1.626 -2.53,2.256c-0.145,0.099 -0.293,0.192 -0.441,0.282h-7.875v-2.661c0.287,-0.269 0.601,-0.535 0.927,-0.739h-0.008l0.243,-4.15h9.668z" fill="#eeeeed"/><path d="M231.324,229.784h-9.741l0.01,-0.206h9.722zM231.344,230.192h-9.784l0.01,-0.202h9.765z" fill="#0771b7"/><path d="M244.674,234.849v1.812h-8.599c-0.152,-0.09 -0.301,-0.19 -0.442,-0.288c-0.889,-0.628 -1.933,-1.315 -2.529,-2.25c-0.185,-0.291 -0.274,-0.59 -0.207,-0.863h0.009l0.204,-4.15h9.677l0.239,4.15h-0.008c0.65256,0.4142 1.21562,0.95482 1.656,1.59z" fill="#eeeeed"/><path d="M233.084,229.578h9.729l0.011,0.207h-9.749zM233.065,229.99h9.77l0.013,0.202h-9.792z" fill="#0771b7"/><path d="M221.407,233.261l-0.026,-0.016c0,0 0.198,-1.965 1.836,-2.047c1.696,-0.083 2.98,1.697 2.98,1.697l-4.79,0.365z" fill="#6e6e6d"/><path d="M221.999,233.064c0,0 0.137,-1.352 1.26,-1.407c1.169,-0.057 2.05,1.165 2.05,1.165l-3.293,0.251z" fill="#0771b7"/><path d="M221.407,233.261c0,0 1.968,-1.244 6.388,0c1.787,0.211 2.339,-1.464 3.177,-1.838c0.422,-0.187 0.542,0 0.542,0v1.838c0.065,0.273 -0.019,0.572 -0.207,0.86c-0.6,0.936 -1.641,1.627 -2.528,2.257c-1.374,0.95 -3.113,1.457 -4.63,2.19c-1.373,0.583 -3.182,1.672 -4.412,0.286c-1.626,-1.97 -0.248,-4.369 1.652,-5.593h-0.008v-0.009l0.026,0.008" fill="#0771b7"/><path d="M231.175,234.314c-0.614,0.841 -1.574,1.477 -2.398,2.063c-0.577,0.396 -1.215,0.72 -1.879,1.01l-0.18,-0.37c1.963,-0.579 4.237,-2.906 4.237,-2.906l0.22,0.203M221.407,233.261c0,0 1.493,-0.945 4.79,-0.365c-0.971,0.726 -2.592,1.791 -3.744,1.8c-1.477,0.011 -1.516,-0.68 -1.22,-1.334c0.052,-0.037 0.106,-0.042 0.156,-0.107h-0.008v-0.01l0.026,0.015" fill="#343434"/><path d="M221.334,234.534c2.602,0 4.872,1.05 6.092,2.61c-1.068,0.514 -2.224,0.915 -3.277,1.424c-1.374,0.584 -3.182,1.673 -4.41,0.284c-1.132,-1.369 -0.807,-2.948 0.133,-4.193c0.004,-0.003 0.008,-0.011 0.012,-0.018c0.469,-0.07 0.952,-0.108 1.45,-0.108" fill="#343434"/><path d="M231.46,231.629l0.052,0.002v1.63c0.068,0.272 -0.017,0.572 -0.204,0.86c-0.12,0.185 -0.255,0.361 -0.405,0.528c-0.131,-0.319 -0.216,-0.755 -0.216,-1.237c0,-0.984 0.346,-1.782 0.773,-1.782" fill="#eeeeed"/><path d="M220.272,234.222c-0.01659,0.00044 -0.03121,-0.01084 -0.035,-0.027c-0.005,-0.018 0.008,-0.035 0.026,-0.042c0.022,-0.004 2.163,-0.532 4.919,-0.013c0.017,0.002 0.03,0.022 0.026,0.037c-0.005,0.02 -0.022,0.031 -0.042,0.03c-2.733,-0.52 -4.866,0.008 -4.886,0.012c-0.00235,0.00171 -0.00511,0.00274 -0.008,0.003M220.837,233.696c-0.013,0 -0.028,-0.009 -0.033,-0.02c-0.006,-0.02 0.005,-0.04 0.022,-0.044c0.022,-0.009 2.011,-0.669 4.777,-0.033c0.02,0.005 0.029,0.022 0.026,0.04c-0.004,0.02 -0.024,0.033 -0.039,0.026c-2.746,-0.63 -4.723,0.022 -4.742,0.031h-0.011" fill="#145c83"/><path d="M243.001,233.26l-4.788,-0.365c0,0 1.284,-1.78 2.977,-1.697c1.641,0.082 1.837,2.047 1.837,2.047l-0.026,0.016z" fill="#6e6e6d"/><path d="M242.393,233.073l-3.295,-0.251c0,0 0.884,-1.222 2.05,-1.165c1.126,0.055 1.263,1.407 1.263,1.407z" fill="#0771b7"/><path d="M243.001,233.26l0.026,-0.008v0.009h-0.008c1.897,1.224 3.28,3.623 1.654,5.593c-1.232,1.386 -3.04,0.297 -4.414,-0.286c-1.517,-0.733 -3.254,-1.24 -4.627,-2.19c-0.888,-0.63 -1.93,-1.321 -2.532,-2.257c-0.185,-0.288 -0.274,-0.587 -0.209,-0.86v-1.838c0,0 0.124,-0.187 0.545,0c0.837,0.374 1.39,2.049 3.175,1.838c4.423,-1.244 6.39,0 6.39,0" fill="#0771b7"/><path d="M233.235,234.314l0.22,-0.203c0,0 2.274,2.327 4.233,2.906l-0.179,0.37c-0.661,-0.29 -1.301,-0.614 -1.876,-1.01c-0.827,-0.586 -1.787,-1.222 -2.398,-2.063M243.001,233.26l0.026,-0.015v0.01h-0.008c0.052,0.065 0.106,0.07 0.156,0.107c0.294,0.654 0.255,1.345 -1.219,1.334c-1.15,-0.009 -2.772,-1.074 -3.743,-1.8c3.295,-0.58 4.788,0.365 4.788,0.365" fill="#343434"/><path d="M243.073,234.533c0.499,0 0.982,0.038 1.45,0.108c0.004,0.007 0.01,0.015 0.015,0.018c0.94,1.245 1.265,2.824 0.133,4.193c-1.23,1.389 -3.038,0.3 -4.412,-0.284c-1.051,-0.509 -2.209,-0.91 -3.275,-1.424c1.218,-1.56 3.49,-2.61 6.09,-2.61" fill="#343434"/><path d="M232.948,231.63c0.426,0 0.772,0.798 0.772,1.782c0,0.482 -0.082,0.918 -0.215,1.237c-0.14863,-0.16511 -0.28405,-0.34166 -0.405,-0.528c-0.185,-0.288 -0.274,-0.588 -0.207,-0.86v-1.63l0.055,-0.002" fill="#eeeeed"/><path d="M244.137,234.222c-0.00358,0.00015 -0.0071,-0.00091 -0.01,-0.003c-0.021,-0.004 -2.15,-0.532 -4.885,-0.012c-0.02,0.001 -0.038,-0.01 -0.04,-0.03c-0.00207,-0.00842 -0.0004,-0.01732 0.00459,-0.02441c0.00498,-0.00709 0.01279,-0.01168 0.02141,-0.01259c2.751,-0.519 4.895,0.009 4.917,0.013c0.019,0.007 0.03,0.024 0.026,0.042c-0.007,0.017 -0.017,0.027 -0.035,0.027M243.57,233.696h-0.01c-0.02,-0.009 -1.994,-0.661 -4.742,-0.031c-0.016,0.007 -0.033,-0.006 -0.037,-0.026c-0.007,-0.018 0.006,-0.035 0.026,-0.04c2.766,-0.636 4.755,0.024 4.777,0.033c0.017,0.004 0.026,0.024 0.02,0.044c-0.004,0.011 -0.018,0.02 -0.034,0.02" fill="#145c83"/><path d="M233.86,171.835h-3.833c-1.095,0 -1.983,-2.382 -1.983,-3.47h7.803c0,1.088 -0.888,3.47 -1.987,3.47" data-paper-data="{&quot;origPos&quot;:null}" fill="#ffd466"/><path d="M228.879,170.952c-0.439,-0.678 -0.748,-1.62 -0.82,-2.3c1.236,0.202 2.505,0.31 3.798,0.31c1.33139,0.00186 2.66041,-0.11224 3.972,-0.341l-0.013,0.016l-6.936,2.315" fill="#eeac6c"/><path d="M208.962,148.747c-0.17483,-1.18197 -0.26273,-2.37517 -0.263,-3.57c0,-13.119 10.514,-23.75 23.484,-23.75c12.97,0 23.482,10.631 23.482,23.75c0,1.158 -0.08,2.294 -0.238,3.407c1.354,0.751 2.268,2.169 2.268,3.79c0,2.411 -2.009,4.366 -4.483,4.366c-0.17,0 -0.333,-0.011 -0.494,-0.029c-4.014,7.288 -11.705,12.216 -20.535,12.216c-8.821,0 -16.507,-4.92 -20.52,-12.194c-0.072,0.002 -0.141,0.007 -0.211,0.007c-2.477,0 -4.486,-1.955 -4.486,-4.365c0,-1.515 0.79,-2.846 1.996,-3.628" data-paper-data="{&quot;origPos&quot;:null}" fill="#ffd466"/><path d="M256.497,142.316c0.034,2.776 -1.186,6.634 -1.186,6.634c0,0 -6.205,-7.429 -9.99,-9.513c-4.628,-2.543 -6.932,1.206 -11.068,-2.093c-0.683,-0.549 -1.96,-1.999 -1.96,-1.999c0,0 -1.557,1.587 -1.97,1.998c-4.649,4.603 -8.132,-0.768 -12.049,2.01c-4.98,3.537 -9.187,9.43 -9.187,9.43c0,0 -1.449,-1.675 -1.249,-6.727c0.058,-1.459 0.757,-4.684 1.893,-7.964c4.111,-8.346 12.63,-14.08 22.476,-14.08c11.307,0 20.87,7.565 24.011,17.961c0.15976,1.44262 0.2532,2.89181 0.28,4.343" data-paper-data="{&quot;origPos&quot;:null}" fill="#80591f"/><path d="M227.643,142.991c0.234,-0.789 -0.261,-1.752 -1.867,-1.752c-1.607,0 -2.264,-0.035 -4.204,0.682c-2.69,1.2 -2.932,4.432 -2.598,3.74c0.334,-0.693 2.065,-1.729 2.889,-1.92c2.619,-0.49 2.763,0.601 3.579,0.786c1.669,0.379 2.201,-1.536 2.201,-1.536M237.941,142.991c-0.234,-0.789 0.26,-1.752 1.867,-1.752c1.606,0 2.264,-0.035 4.204,0.682c2.69,1.2 2.932,4.432 2.598,3.74c-0.334,-0.693 -2.066,-1.729 -2.889,-1.92c-2.619,-0.49 -2.763,0.601 -3.579,0.786c-1.67,0.379 -2.202,-1.536 -2.202,-1.536" data-paper-data="{&quot;origPos&quot;:null}" fill="#80591f"/><path d="M225.2,150.796c0,1.76 -0.947,3.186 -2.114,3.186c-1.168,0 -2.115,-1.426 -2.115,-3.186c0,-1.76 0.947,-3.185 2.115,-3.185c1.167,0 2.114,1.426 2.114,3.185M244.229,150.796c0,1.76 -0.947,3.186 -2.115,3.186c-1.168,0 -2.114,-1.426 -2.114,-3.186c0,-1.76 0.946,-3.185 2.114,-3.185c1.168,0 2.115,1.426 2.115,3.185" data-paper-data="{&quot;origPos&quot;:null}" fill="#664514"/><path d="M232.621,154.056c-1.189,0.162 -3.192,1.947 -3.192,1.947c0,0 0.218,-1.071 0.531,-1.379c0.846,-1.228 2.63,-1.704 2.63,-1.704c0,0 2.296,0.747 2.8,1.687c0.469,0.875 0.36,1.315 0.36,1.315c0,0 -2.242,-1.987 -3.13,-1.866z" fill="#eeac6c"/><path d="M225.41,157.908c0,0 7.294,3.405 13.929,-0.423c0,0 -1.471,5.808 -6.29,5.905c-4.351,0.13 -5.27,-1.584 -5.79,-2.077c-0.523,-0.491 -1.504,-1.881 -1.849,-3.406" fill="#eeac6c"/></g></g></svg>