<svg xmlns="http://www.w3.org/2000/svg" xmlns:xlink="http://www.w3.org/1999/xlink" width="120" height="120"><defs><path id="a" d="M.266.447h56.396v24.66H.266z"/><path id="c" d="M0 95.553h119.427V.627H0z"/></defs><g fill="none" fill-rule="evenodd" transform="translate(0 13)"><g transform="translate(31.25 .18)"><mask id="b" fill="#fff"><use xlink:href="#a"/></mask><path fill="#FF8585" d="M56.662 25.108C56.305 11.434 43.822.448 28.464.448S.622 11.433.266 25.107h56.396z" mask="url(#b)"/></g><path fill="#FF8585" d="M78.51 23.617c0 .562-.028 1.118-.067 1.67h9.469C87.573 12.293 76.277 1.73 61.973.716c9.523 3.23 16.536 12.365 16.536 22.902"/><mask id="d" fill="#fff"><use xlink:href="#c"/></mask><path fill="#FFD586" d="M30.769 89.277h57.89V25.888h-57.89z" mask="url(#d)"/><path fill="#7F7370" d="M91.51 25.888a2.857 2.857 0 0 1-2.852 2.862h-57.89a2.857 2.857 0 0 1-2.85-2.862 2.857 2.857 0 0 1 2.85-2.863h57.89a2.857 2.857 0 0 1 2.852 2.863" mask="url(#d)"/><path fill="#0094A8" d="M37.724 44.477h7.227v-7.254h-7.227zm12.25 0h7.227v-7.254h-7.227zm12.252 0h7.227v-7.254h-7.227zm12.251 0h7.226v-7.254h-7.226zM37.724 64.836h7.227v-7.255h-7.227zm12.25 0h7.227v-7.255h-7.227zm12.252 0h7.227v-7.255h-7.227zm12.251 0h7.226v-7.255h-7.226zM37.724 54.775h7.227V47.52h-7.227zm12.25 0h7.227V47.52h-7.227zm12.252 0h7.227V47.52h-7.227zm12.251 0h7.226V47.52h-7.226z" mask="url(#d)"/><path fill="#7F7370" d="M51.659 89.277h16.11V74.502h-16.11z" mask="url(#d)"/><path fill="#7F7370" d="M59.714 89.277h8.055V74.502h-8.055z" mask="url(#d)"/><path fill="#F2F2F0" d="M116.87 89.277V63.184l-28.212-20.74v46.833z" mask="url(#d)"/><path fill="#0094A8" d="M104.453 72.968h7.226v-7.256h-7.227zm-10.603 0h7.226v-7.256H93.85zm10.603 10.589h7.226v-7.255h-7.227zm-10.603 0h7.226v-7.255H93.85z" mask="url(#d)"/><path stroke="#7F7370" stroke-linecap="round" stroke-width="4.074" d="m88.658 42.445 28.213 20.74" mask="url(#d)"/><path fill="#F2F2F0" d="M2.557 89.277V63.184l28.212-20.74v46.833z" mask="url(#d)"/><path fill="#0094A8" d="M7.748 72.968h7.227v-7.256H7.748zm10.603 0h7.227v-7.256H18.35zM7.748 83.557h7.227v-7.255H7.748zm10.603 0h7.227v-7.255H18.35z" mask="url(#d)"/><path stroke="#7F7370" stroke-linecap="round" stroke-width="4.074" d="M30.77 42.445 2.556 63.185" mask="url(#d)"/><path fill="#84BE00" d="M119.418 92.415c0 1.733-1.4 3.138-3.126 3.138H3.126A3.131 3.131 0 0 1 0 92.415c0-1.734 1.4-3.138 3.126-3.138h113.166a3.131 3.131 0 0 1 3.126 3.138" mask="url(#d)"/><path fill="#84BE00" d="M119.428 92.415c0 1.733-1.4 3.138-3.126 3.138H3.135c-1.726 0 113.167-6.276 113.167-6.276a3.131 3.131 0 0 1 3.126 3.138" mask="url(#d)"/></g></svg>