<svg xmlns="http://www.w3.org/2000/svg" width="74.637" height="118.469"><g fill-rule="evenodd" stroke-miterlimit="10" data-paper-data="{&quot;isPaintingLayer&quot;:true}" style="mix-blend-mode:normal"><path fill="#785c44" d="m25.759 101.433.522.932-21.625 11.914s-2.385.288-2.28.04z"/><path fill="#785c44" d="m3.038 102.33.522-.93 23.28 12.913c.068.254-2.216 0-2.216 0z"/><path fill="#68503a" d="M14.478 108.31c-.175-.114-.278-.28-.22-.376.065-.088.262-.068.44.046.175.12.265.288.215.38-.063.094-.26.07-.436-.05"/><path fill="#343434" d="M.214 101.455s-.17-1.396.05-1.674c1.741-2.204 9.402.61 9.402.61l-.064 1.68-9.388-.616"/><path fill="#fff" d="m1.017 100.39.012-.07 6.936.876-.012.062z"/><path fill="#785c44" d="M1.718 99.759c-.511-.876-.004-4.514-.004-4.514h.796v4.514c-.134.198-.665.22-.792 0"/><path fill="#785c44" d="M.214 96.23c-.3-.068-.17-1.392.05-1.676 1.741-2.2 9.402.612 9.402.612l-.064 1.222s-7.496.28-9.388-.158"/><path fill="#474747" d="M25.286 101.455s-.238-1.396.068-1.674c2.452-2.204 13.257.61 13.257.61l-.084 1.68-13.241-.616"/><path fill="#785c44" d="M27.403 99.759c-.717-.876 0-4.514 0-4.514h1.106v4.514c-.188.198-.934.22-1.106 0"/><path fill="#785c44" d="M25.286 96.23c-.424-.068-.238-1.392.068-1.676 2.452-2.2 13.257.612 13.257.612l-.084 1.222s-10.571.28-13.241-.158"/><path fill="#343434" d="m4.336 100.793 5.213.724c.134-.432.527-.76.993-.724 6.75.568 20.389.47 27.374 0 .585-.036 1.06.464 1.06 1.032 0 .522-.404.964-.927 1.024l.201.004s-9.28 2.068-20.322 2.068c-13.78 0-13.505-2.85-17.714-3.466z"/><path fill="#8f7355" d="M38.251 76.679c.208-.268 1.122-.238 1.37 0v24.632h-1.37zm-29.402 0c.213-.268 1.125-.238 1.37 0v24.632h-1.37z"/><path fill="#343434" d="M8.594 77.833h31.29v10.195H8.594z"/><path fill="#eeeeed" d="M13.899 80.748c.012.002.02.052.025.128l-.004.006.004.034v1.336l-.004.222h.004c.17-.018.275-.04.334-.064a.33.33 0 0 0 .124-.038.926.926 0 0 0 .162-.08c.172-.074.322-.204.468-.384.075-.082.142-.218.202-.39 0-.068 0-.116.01-.142 0-.22-.05-.378-.176-.464-.057-.074-.176-.132-.348-.172 0-.018-.122-.028-.387-.056-.278.014-.414.034-.414.064zm.44-.876.36.004.35.048c0 .014.038.03.153.046 0 .004.03.016.106.038 0 .006.036.02.113.028 0 .012.069.046.209.102.002.014.048.04.123.088 0 .016.012.028.051.034 0 .014.018.034.077.068.144.172.219.308.24.402.015.01.036.08.058.214l.008.212c0 .118-.014.246-.043.376a2.35 2.35 0 0 1-.247.532 1.06 1.06 0 0 1-.113.172c0 .026-.128.164-.377.404-.08.084-.174.15-.264.212 0 .014-.042.042-.12.076 0 .012-.015.028-.06.034 0 .01-.047.048-.154.098-.038.012-.063.022-.063.038-.02 0-.046.014-.103.038l-.195.078a.755.755 0 0 1-.19.048c0 .016-.071.036-.209.048 0 .016-.026.022-.105.022h-.576c-.194-.006-.287-.034-.287-.07.012-.236.026-.436.026-.59v-.834l-.014-.952-.012-.004-.32.082-.134.034c0 .016-.004.02-.03.03l-.031-.03c.02-.112.03-.188.03-.248v-.13l-.034-.394c.049-.042.089-.056.128-.056 0-.01.038-.032.113-.048 0-.006.034-.016.107-.034.013-.01.102-.032.254-.068a.554.554 0 0 1 .194-.046c0-.012.055-.028.177-.028.018-.022.083-.036.21-.036a.965.965 0 0 1 .207-.034zm3.13-.042.043.026c-.043.556-.055 1.02-.055 1.39l.006.628c.022.482.049.794.075.942 0 .112.022.282.069.522 0 .022-.095.028-.288.042 0 .004-.087.02-.27.024-.012.026-.07.028-.166.028a.56.56 0 0 1-.186.054c0 .01-.008.014-.03.014l-.027-.026v-.206c0-.258.014-.408.018-.456l-.004-.028.004-.464-.018-1.336-.026-.388h.014l-.014-.01c0-.298-.016-.476-.03-.544a.447.447 0 0 1 .145-.048c.223-.062.381-.088.462-.102.025-.016.108-.024.254-.042zm1.595.798v.22c0 .126.014.252.037.384l-.009.026.013.086-.004.032.018.018h.008l.158-.04a.429.429 0 0 0 .166-.034c.014 0 .108-.03.251-.078.15-.062.268-.142.347-.214.063-.07.087-.132.087-.19l.01-.028v-.058a.283.283 0 0 0-.111-.136c-.037-.03-.138-.054-.322-.074-.367.028-.566.054-.566.074-.042 0-.073.004-.083.012zm.582-.79c.25 0 .447.012.57.046.04 0 .094.008.177.034a.35.35 0 0 1 .128.044.58.58 0 0 1 .186.074.89.89 0 0 1 .284.218c.08.104.128.192.128.258.014 0 .02.058.02.16 0 .046-.006.12-.036.24a.965.965 0 0 1-.187.346c-.09.117-.2.219-.324.3a1 1 0 0 1-.282.166c-.069.04-.182.08-.33.126v.016c.055.07.193.198.428.412.03.028.099.088.23.188.05.054.191.164.428.332v.038a.63.63 0 0 0-.121.174l-.288.328-.065.066h-.016c-.258-.196-.649-.544-1.163-1.038l-.252-.266-.014.004v1.126l-.028.032h-.847l-.01-.026.024-1.136c-.004-.43-.014-.698-.024-.802v-.37l-.02-.012h-.017c-.014.026-.059.042-.138.058 0 .006-.032.016-.117.032 0 .012-.018.022-.035.022l-.018-.022v-.09c0-.124-.018-.346-.06-.674a.413.413 0 0 1 .157-.058.416.416 0 0 1 .144-.054l.241-.082.114-.034c0-.006.045-.02.154-.036.01-.008.12-.04.328-.078l.316-.058zm4.179-.008.014.02v.026l-.036.11a2.44 2.44 0 0 0-.097.488l-.03.018h-.483l-.723.056-.005.03c.023.144.023.298.023.44v.012c0 .056.012.086.02.086h.004l.195-.03h.097l.474-.026c.069.008.103.022.103.04v.016l-.034.13c-.028.098-.06.258-.085.494v.04c0 .024-.014.046-.03.052l-.098-.01h-.344c-.177 0-.278.01-.29.032l.008.382v.23c0 .008.004.016.022.016l.373-.026.012.006c0-.012.333-.02.981-.02l.02.032-.034.41c0 .152.01.29.034.394l-.024.01h-.063l-.11-.008v.008h-.013a4.245 4.245 0 0 0-.558-.034h-.218c-.276 0-.513.008-.702.026l-.004-.002h-.006l-.431.032a.31.31 0 0 1-.134.022h-.067l-.02-.022a4.5 4.5 0 0 0 .063-.534l.04-.878-.04-.004-.154.034c-.029-.006-.043-.012-.043-.03v-.086a3.06 3.06 0 0 0-.02-.418l.008-.006-.008-.04v-.05l.02-.024h.03c.132-.024.19-.032.19-.05l-.054-.526-.012-.014h-.07l-.208.056-.016-.05v-.244l-.036-.404c.016-.034.123-.056.322-.064.108-.02.217-.031.326-.032a2.53 2.53 0 0 1 .444-.046l.17-.024h.12c.304-.034.69-.046 1.187-.046m2.394-.017c.08 0 .116.016.116.054l.043.214v.016h-.013l.013.148v.016c-.013.28-.025.444-.067.49-.07-.004-.167-.012-.29-.012-.17 0-.28.012-.35.04-.084.03-.17.062-.27.124-.158.124-.27.23-.312.328 0 0-.008.026-.04.082-.015 0-.015.02-.015.062-.026 0-.053.088-.081.268v.162c.028.136.055.218.067.248.072.155.195.28.348.356a.66.66 0 0 0 .258.082c0 .012.032.012.087.012h.132c.188-.022.312-.048.366-.076l.167-.072a.565.565 0 0 0 .151-.114h.01c.035 0 .06.082.074.25.042.218.07.422.08.62a.666.666 0 0 1-.192.096.374.374 0 0 1-.107.046c-.012.016-.04.024-.114.026 0 .018-.052.03-.164.052a.724.724 0 0 1-.237.034c0 .006-.055.014-.138.03v-.012l-.016.012h-.122a1.62 1.62 0 0 1-.389-.044.306.306 0 0 1-.133-.036 1.347 1.347 0 0 1-.325-.128l-.143-.096c0-.016-.039-.056-.12-.118-.164-.19-.245-.312-.245-.362-.043-.048-.097-.178-.15-.376l-.03-.284c0-.098.01-.254.046-.48.01 0 .02-.05.037-.138.012 0 .026-.034.04-.108a.49.49 0 0 0 .069-.178c.012 0 .028-.028.057-.09.083-.166.19-.312.328-.448.205-.206.336-.31.375-.324 0-.014.042-.04.128-.076 0-.012.016-.02.054-.032.138-.084.247-.132.347-.16 0-.012.028-.018.08-.018.021-.016.128-.044.299-.078z"/><path fill="#eeeeed" d="m29.033 79.82.004.009.08-.008h.17c.016 0 .03.018.03.034a2.809 2.809 0 0 0-.097.482c-.016 0-.024.082-.029.234l-.062.066h-.081l-.365.046c0 .014-.065.03-.197.036-.063.02-.099.032-.099.05l.01.01v.006a1.09 1.09 0 0 0-.048.366c-.017.066-.045.354-.07.846-.03.412-.046.848-.046 1.304a.533.533 0 0 1-.267.064.852.852 0 0 1-.236.036c-.022.016-.117.032-.283.038a.694.694 0 0 1-.162.028l-.019-.028.057-.364c.012-.086.025-.162.025-.238a1.71 1.71 0 0 0 .042-.424.902.902 0 0 0 .039-.322c.042-.414.075-.708.075-.874l.012-.202-.008-.026.022-.152-.004-.012h-.01c0 .022-.087.03-.25.046-.022.016-.085.024-.208.024a.616.616 0 0 1-.237.056l-.335.092h-.038l-.01-.016v-.012c.02-.064.03-.144.036-.256a1.88 1.88 0 0 0 .039-.308c.024-.068.028-.176.028-.336.032-.038.114-.068.255-.068a1.81 1.81 0 0 1 .355-.038c0-.016.115-.03.353-.04.07-.016.22-.036.43-.044.023-.016.161-.024.415-.034.048-.014.214-.024.49-.036zm1.245 1.717v.234c.022.156.049.26.077.318 0 .012.03.068.077.154.09.096.158.158.199.18a.43.43 0 0 0 .216.06l.09.008a.559.559 0 0 0 .249-.04c.022 0 .067-.028.152-.092a1 1 0 0 0 .326-.506c.034-.09.065-.226.091-.406v-.378a2.732 2.732 0 0 0-.085-.338h-.028a.333.333 0 0 1-.185.078.501.501 0 0 0-.294-.158h-.253a1.71 1.71 0 0 0-.227.096c-.17.14-.26.242-.26.3a.78.78 0 0 0-.107.252c-.024.11-.038.192-.038.238zm.802-1.716c.201 0 .367.03.483.086a.09.09 0 0 1 .067.032c.02 0 .056.022.12.07h.005l.203-.064.117-.038c.014 0 .039-.016.091-.036l.114-.05c.069.096.124.26.178.488.057.172.083.308.09.404.024 0 .032.078.036.244.008 0 .016.058.018.164l-.002.008.002.04v.014l-.03.416-.045.284c-.012 0-.022.054-.04.156-.015 0-.029.032-.035.112-.02 0-.034.032-.034.102-.014 0-.027.032-.045.092l-.075.146c-.098.17-.212.33-.34.478a1.833 1.833 0 0 1-.38.266.99.99 0 0 1-.252.104c0 .012-.053.02-.167.026 0 .014-.04.018-.127.036v-.006l-.053.006h-.095l-.106-.006-.026.006a.678.678 0 0 0-.245-.05c0-.01-.04-.02-.136-.042 0-.012-.03-.028-.101-.04 0-.016-.022-.022-.065-.03 0-.01-.045-.038-.136-.078a1.636 1.636 0 0 1-.328-.33 1.38 1.38 0 0 1-.113-.208c-.009 0-.02-.032-.035-.08 0 0-.026-.052-.057-.154-.024-.098-.048-.172-.048-.228-.023 0-.035-.152-.047-.452.012-.23.024-.388.059-.476l.079-.26c.131-.37.379-.69.705-.908.14-.092.278-.154.415-.194l.138-.042zm2.827.807.01.078v.142c0 .126.012.252.033.384l-.006.026.012.086-.006.032.018.018h.01l.158-.04a.45.45 0 0 0 .164-.034c.018 0 .1-.03.253-.078.152-.062.272-.142.345-.214.057-.07.087-.132.087-.19l.008-.028v-.058a.268.268 0 0 0-.107-.136c-.037-.03-.142-.054-.32-.074-.375.028-.566.054-.566.074a.238.238 0 0 0-.093.012zm.588-.79c.249 0 .448.012.567.046.047 0 .1.008.18.034a.35.35 0 0 1 .124.044c.018 0 .083.016.186.074a1 1 0 0 1 .292.218c.08.104.124.192.124.258.01 0 .018.058.022.16a1.1 1.1 0 0 1-.042.24.878.878 0 0 1-.19.346c-.087.118-.194.22-.317.3-.07.058-.158.112-.28.166a1.6 1.6 0 0 1-.334.126v.016c.059.07.199.198.432.412.024.028.099.088.229.188.044.054.194.164.427.332v.038a.811.811 0 0 0-.123.174l-.282.328-.077.066h-.004c-.257-.196-.649-.544-1.167-1.038l-.25-.266-.012.004v1.126l-.032.032h-.841l-.022-.026.032-1.136a11.472 11.472 0 0 0-.032-.802l.008-.008v-.004l-.008-.306v-.052l-.012-.012h-.025c-.01.026-.052.042-.132.058 0 .006-.03.016-.115.032 0 .012-.012.022-.034.022l-.019-.022v-.09c0-.124-.014-.346-.056-.674a.364.364 0 0 1 .158-.058.361.361 0 0 1 .133-.054l.25-.082.105-.034c0-.006.049-.02.154-.036.016-.008.124-.04.334-.078l.32-.058z"/><path fill="#f7b90b" d="m24.185 84.35.34.674.748.104-.54.526.12.738-.668-.35-.67.35.121-.738-.537-.526.746-.104zm-2.612 0 .33.674.754.104-.545.526.128.738-.667-.35-.677.35.128-.738-.547-.526.758-.104zm5.159 0 .338.674.748.104-.539.526.124.738-.671-.35-.673.35.128-.738-.541-.526.748-.104z"/><path fill="#fff" d="M10.476 78.613h.067v8.513h-.067zm27.441 0h.07v8.513h-.07z"/><path fill="#8f7355" d="m38.294 101.303.665 1.184L11.514 117.6s-3.013.37-2.88.054z"/><path fill="#8f7355" d="m9.465 102.439.662-1.176 29.532 16.38c.087.328-2.79 0-2.79 0z"/><path fill="#68503a" d="M23.983 110.035c-.229-.152-.348-.364-.277-.482.083-.114.33-.086.555.062.217.152.344.364.27.482-.073.116-.327.088-.548-.062"/><path fill="#9b6b3e" d="M67.609 59.593c3.67 4.62 5.067 18.515 5.067 18.515s0-.02-.008-.062c.472.67.807 1.546.91 2.524.247 2.324-.875 4.342-2.517 4.51-1.07.118-2.095-.594-2.747-1.74-.608.496-1.208.688-1.636.468-.802-.424-.705-2.154.211-3.87.359-.654.77-1.214 1.208-1.634.034-.07.075-.138.113-.206 0 0-1.594-10.026-3.292-12.408-.851-1.18-1.403-1.85-1.591-2.376-.158-.424-.336-1.238-.405-1.54-.541-2.38-3.534-7.754-3.534-7.754s6.44 3.324 8.22 5.574M18.149 44.123c1.209-.502 2.65-.042 3.812 1.066.527-.788 1.147-1.224 1.729-1.108 1.078.206 1.588 2.25 1.139 4.558-.185.884-.475 1.678-.817 2.312-.05.292-.12.562-.209.822l5.483 6.366 11.662-4.118s-1.988 3.094-2.478 4.232c-.35.82-1.038 3.432-1.038 3.432s-8.518 3.418-10.928 2.55c-2.988-1.066-6.41-10.664-6.41-10.664h.003c-1.283-.448-2.529-1.658-3.25-3.336-1.119-2.608-.533-5.338 1.303-6.112" data-paper-data="{&quot;origPos&quot;:null}"/><path fill="#565657" d="m62.468 86.806-1.96 25.862h-9.933l-.385-18.706h-.284l-.378 18.706h-9.931l-1.956-25.862z"/><path fill="#8f7355" d="M67.777 77.635s-1.287-9.576-2.985-11.948c-.091-.128-.172-.24-.247-.356 1.655 9.712 1.453 21.468 1.453 21.468v3.216s-11.98 1.96-15.234 0c-.337-.194-.724-1.354-.724-1.354s-.344 1.16-.664 1.354c-3.216 1.982-15.157 0-15.157 0v-3.21s-.312-14.7 2.026-24.668c-.587.268-7.528 2.974-9.841 2.146-2.985-1.066-7.38-10.194-7.38-10.194l4.765-2.316 5.536 6.344 10.56-4.074c2.079-1.34 8.393-1.558 8.393-1.558l1.762.044h.142l1.757-.044s6.293.196 8.393 1.536c.845.458 5.528 3.062 7.149 5.106 3.666 4.624 5.262 18.514 5.262 18.514l-4.966-.006"/><path fill="#634c35" d="M40.934 87.18s-3.927.834-4.772 0c-1.502-1.484 0-8.382 0-8.382h4.772zm18.36 0s3.914.834 4.761 0c1.504-1.484-.008-8.382-.008-8.382h-4.753zm-9.151 1.543h-.127V76.22l.127.514z"/><path fill="#4f2a11" d="M60.307 112.599c1.8 1.092 3.098 3.41 1.564 5.238-1.165 1.282-2.881.308-4.186-.236-1.439-.676-3.084-1.134-4.387-2.01-.841-.588-1.83-1.278-2.4-2.146-.174-.264-.257-.584-.192-.846h9.6zm-20.505 0c-1.803 1.092-3.11 3.41-1.562 5.238 1.16 1.282 2.871.308 4.172-.236 1.44-.676 3.086-1.134 4.383-2.01.847-.588 1.838-1.278 2.407-2.146.174-.264.257-.584.193-.846z"/><path fill="#4b3521" d="M50.143 76.733 46.46 54.549h7.541z"/><path fill="#634c35" d="M45.897 56.805c-2.837-.344-4.586.004-4.586.004a62.808 62.808 0 0 0-1.911-2.574l.484-.186c1.474-.952 5.054-1.33 7.03-1.478 1.341 3.118 3.23 24.17 3.23 24.17s-3.686-13.256-8.063-17.092c0 0 1.22-2.004 3.816-2.844"/><path fill="#634c35" d="M54.389 56.805c2.599.84 3.818 2.844 3.818 2.844-4.386 3.836-8.064 17.092-8.064 17.092s1.769-21.16 3.367-24.164c1.974.146 5.423.52 6.892 1.472l.474.186c-1.159 1.496-1.903 2.574-1.903 2.574s-1.752-.348-4.583-.004"/><path fill="#fddfbb" d="M48.386 53.91c-1.063 0-1.927-2.255-1.927-3.29h7.579c0 1.035-.868 3.29-1.923 3.29h-3.729"/><path fill="#eeac6c" d="M47.338 53.194c-.424-.636-.789-1.51-.856-2.152 1.196.19 2.426.29 3.682.29a23.118 23.118 0 0 0 3.858-.318l-.016.014-6.668 2.166"/><path fill="#7a1421" d="M53.436 52.758s7.759 4.324 8.918 6.874c.853 1.904-.565 8.29-.565 8.29s-3.255 1.774-5.21 3.628c-2.434-1.258.057-8.252-.867-10.802-.752-2.078-5.058-7.252-5.058-7.252z"/><path fill="#9b1826" d="M55.379 54.673s-7.939 2.182-10.147 0c-.748-.738-1.178-4.17-1.178-4.17s10.292-2.18 12.497 0c.75.73-1.172 4.17-1.172 4.17"/><path fill="#9b6b3e" d="M72.698 32.22c1.169.745 1.939 2.003 1.939 3.437 0 2.284-1.947 4.132-4.356 4.132h-.203c-3.899 6.884-11.353 11.544-19.915 11.544-8.577 0-16.042-4.668-19.934-11.564a5.34 5.34 0 0 1-.475.02c-2.407 0-4.354-1.848-4.354-4.132 0-1.536.89-2.88 2.2-3.592a22.463 22.463 0 0 1-.233-3.228c0-12.422 10.206-22.494 22.796-22.494 12.588 0 22.788 10.072 22.788 22.494 0 1.154-.081 2.282-.252 3.384" data-paper-data="{&quot;origPos&quot;:null}"/><path fill="#343434" d="M43.818 28.739c-.772-.174-.908-1.201-3.386-.74-.779.18-2.417 1.156-2.732 1.808-.316.652-.088-2.392 2.457-3.522 1.835-.675 2.457-.642 3.977-.642s1.987.907 1.766 1.65c0 0-.503 1.803-2.082 1.446zm13.905 0c.772-.174.908-1.201 3.386-.74.779.18 2.417 1.156 2.732 1.808.316.652.087-2.392-2.457-3.522-1.835-.675-2.457-.642-3.977-.642s-1.987.907-1.766 1.65c0 0 .503 1.803 2.082 1.446z" data-paper-data="{&quot;origPos&quot;:null}"/><path fill="#343434" d="M41.589 37.643c-1.105 0-2-1.343-2-3s.895-3 2-3 2 1.343 2 3-.895 3-2 3zm18 0c-1.105 0-2-1.343-2-3s.895-3 2-3 2 1.343 2 3-.895 3-2 3z"/><path fill="#eeac6c" d="M50.609 37.712c-1.125.153-3.02 1.834-3.02 1.834s.207-1.01.503-1.3c.8-1.155 2.487-1.603 2.487-1.603s2.173.703 2.65 1.588c.443.824.34 1.238.34 1.238s-2.121-1.871-2.96-1.756z"/><path fill="#7a1421" d="M43.789 41.339s6.897 3.208 13.172-.397c0 0-1.39 5.47-5.95 5.56-4.115.123-4.984-1.491-5.477-1.955-.492-.463-1.42-1.772-1.745-3.208" data-paper-data="{&quot;origPos&quot;:null}"/><path fill="#fff" d="M41.494 33.814c0 1.386-.849 2.522-1.886 2.522-1.04 0-1.897-1.136-1.897-2.522 0-1.396.857-2.532 1.897-2.532 1.037 0 1.886 1.136 1.886 2.532m20.325 0c0 1.386-.847 2.522-1.897 2.522-1.042 0-1.89-1.136-1.89-2.522 0-1.396.848-2.532 1.89-2.532 1.05 0 1.897 1.136 1.897 2.532"/><path fill="#343434" d="M40.772 34.509c0 .862-.52 1.562-1.163 1.562-.65 0-1.176-.7-1.176-1.562 0-.87.525-1.564 1.176-1.564.644 0 1.163.694 1.163 1.564m20.32 0c0 .862-.524 1.562-1.169 1.562-.642 0-1.171-.7-1.171-1.562 0-.87.529-1.564 1.171-1.564.645 0 1.17.694 1.17 1.564"/><path fill="#343434" d="M73.861 25.9c.034 2.647-.9 8.365-2.72 11.767 0 0-4.49-12.516-8.18-14.498-4.509-2.43-16.411 1.072-20.441-2.07-.673-.522-.597-1.704-.597-1.704s-.777 1.504-1.15 1.918c-1.956 2.196-7.02 5.376-9.42 7.088-1.939 1.368-2.027 1.352-1.599 9.266 0 0-3.556-7.198-3.36-12.01.055-1.382.736-4.454 1.84-7.58C32.252 10.13 40.566 4.675 50.165 4.675c11.035 0 20.366 7.2 23.424 17.1a46.17 46.17 0 0 1 .27 4.126" data-paper-data="{&quot;origPos&quot;:null}"/><path fill="#565657" d="M21.904 52.142s-2.367-.894-2.523-1.624c-.616-2.866 6.486-9.834 6.486-9.834l2.519 1.62z"/><path fill="#d0d0d0" d="M25.789 42.7s-2.57 6.12-4.534 6.467c-.346.064-.943-.376-1.43-.782 1.015-2.184 3.388-4.908 4.837-6.456z"/><path fill="#565657" d="M7.432 23.543c7.784 2.146 12.075 12.546 26.069 16.404.673.182-.503 4.346-1.181 4.162C17.596 40.047 8.74 47.5 1.264 45.435z"/><path fill="#343434" d="M7.429 35.33c-1.71 6.042-4.477 10.57-6.164 10.104-1.698-.464-1.684-5.748.026-11.798C3.001 27.58 5.767 23.06 7.453 23.53c1.706.466 1.686 5.75-.024 11.8"/><path fill="#9b6b3e" d="M24.894 48.348c-.333 2.208-1.44 3.872-2.479 3.718-1.027-.148-1.6-2.062-1.262-4.274.332-2.2 1.445-3.866 2.474-3.716 1.036.156 1.601 2.064 1.267 4.272" data-paper-data="{&quot;origPos&quot;:null}"/><path fill="#226380" d="M65.923 31.536c.395 1.388 1.143 4.938-.198 6.714-2.079 2.754-11.771-.93-13.937-3.624-.77-.966-.517-2.372-.252-3.096h-2.885c.253.724.515 2.146-.259 3.104-2.162 2.7-11.858 6.358-13.937 3.602-1.342-1.776-.594-5.306-.193-6.694l-1.867-1.332h35.36z"/><path fill="#1a4e60" d="M37.863 31.565a.588.588 0 0 1-.178.816l-2.09 1.332a.593.593 0 0 1-.818-.182l-.01-.008a.57.57 0 0 1 .184-.81l2.081-1.336a.61.61 0 0 1 .83.178v.01zm-.851 2.906c0 .362-.3.656-.67.656a.66.66 0 1 1 0-1.32c.37 0 .67.294.67.664"/><path fill="#7d3362" d="M65.386 4.793c2.428 5.72-5.159 14.302-16.936 19.16-11.79 4.862-23.302 4.164-25.73-1.558-2.176-5.128 3.716-12.556 13.455-17.54-.696-.4-1.431-.714-2.166-.954-1.254-.408-2.578-.66-3.903-.622-.128.008-.128-.186 0-.188 1.374-.048 2.755.22 4.045.656.77.258 1.512.59 2.216.994a48.427 48.427 0 0 1 3.305-1.508c11.781-4.86 23.294-4.16 25.714 1.56"/></g></svg>