<svg xmlns="http://www.w3.org/2000/svg" width="58.487" height="118.432"><g fill-rule="evenodd" stroke-miterlimit="10" data-paper-data="{&quot;isPaintingLayer&quot;:true}" style="mix-blend-mode:normal"><path fill="#9e723f" d="M7.431 43.888c1.085.21 1.595 2.257 1.14 4.574-.177.883-.468 1.678-.818 2.313-.193 1.226-.823 2.207-1.813 2.624-1.843.77-4.25-.725-5.37-3.339-1.123-2.612-.536-5.355 1.31-6.127 1.201-.504 2.644-.04 3.815 1.068.527-.786 1.156-1.223 1.735-1.113M57.421 80.49c.248 2.327-.88 4.355-2.523 4.527-1.073.113-2.096-.596-2.754-1.746-.608.494-1.208.692-1.638.466-.806-.42-.713-2.158.212-3.883a6.77 6.77 0 0 1 1.207-1.63c.453-.92 1.187-1.548 2.07-1.642 1.643-.17 3.178 1.578 3.426 3.908" data-paper-data="{&quot;origPos&quot;:null}"/><path fill="#fff" d="M51.735 78.015s-1.295-10.062-3-12.442c-.696-.97-1.085-1.59-1.314-2.073 2.213 9.924 2.485 23.334 2.485 23.334H18.033s.308-15.115 2.923-25.12c-1.447.562-8.529 3.231-10.7 2.454-2.992-1.07-7.41-10.22-7.41-10.22l4.783-2.326 5.422 6.428 11.666-4.183s-.027.04-.067.112c1.948-1.37 7.486-1.62 7.486-1.62l1.762.073h.145l1.76-.055s5.396.203 7.412 1.52c-.012-.023-.02-.032-.02-.032s6.453 3.334 8.242 5.588c3.674 4.635 5.081 18.567 5.081 18.567l-4.783-.005"/><path fill="#1679af" d="M49.706 82.05c.035.56.064 1.12.088 1.68H18.145c.025-.56.055-1.12.088-1.68zm-31.359-1.81c.035-.562.075-1.123.12-1.683h31.007c.043.582.086 1.1.122 1.682H18.348m.267-3.492c.051-.582.103-1.099.158-1.683H49.17c.055.583.105 1.101.155 1.683h-30.71m.333-3.364c.058-.56.125-1.12.2-1.68h29.65c.07.56.137 1.12.197 1.68H18.948m.408-3.298c.078-.58.158-1.162.248-1.68H48.34c.091.559.173 1.119.245 1.68H19.356m28.358-5.239c.11.518.216 1.102.316 1.683H19.91c.102-.58.207-1.165.317-1.683zm-24.844-8.51a.155.155 0 0 1-.02.02l-.359-1.69 1.328-.477.084.485a1.53 1.53 0 0 0-.143.203c.046-.062.094-.123.143-.182h20.78a72.006 72.006 0 0 1 2.832 1.68H22.85l.021-.04"/><path fill="#1679af" d="M21.561 59.58a2.586 2.586 0 0 0-.07.203l-1.055-4.38 1.273-.458.548 3.176H50.01c.591.452 1.092.932 1.426 1.355.083.104.164.197.246.327H21.49c.021-.075.047-.15.071-.223"/><path fill="#1679af" d="M20.94 61.72c-.25.098-.66.254-1.183.444l-1.652-5.925 1.53-.55 1.388 5.861h20.335l11.077-.518c.277.537.528 1.088.751 1.65l-5.878.272c.02.087.038.176.062.266v.01H20.575v-.009c.062-.285.131-.58.198-.86l.004-.007c.03-.126.062-.251.096-.376.002-.019.01-.033.012-.054l.055-.205m-3.939-5.085 1.6 5.94a61.45 61.45 0 0 1-1.32.441l-1.819-5.83 1.54-.55zm-2.516.903.843 6.058c-.456.125-.914.242-1.36.342l-1.095-6.099.18.211zm-3.203-1.585 1.268 1.5-2.308 6.71c-.386-.14-.794-.414-1.214-.784zm-.263-.312-4.314 4.983a37.762 37.762 0 0 1-.82-1.235l4.047-5.035zm-2.577-3.055 1.08 1.28L4.33 56.77a59.091 59.091 0 0 1-.69-1.266l4.801-2.918zm40.293 12.988a26.714 26.714 0 0 1-.684-.992l5.732-.26.13.397a.055.055 0 0 0 .01.022l.117.388a.084.084 0 0 1 .01.026l.12.39c.002.007.01.017.012.024.041.14.064.272.131.412v.002l-5.199.235c-.057-.122-.13-.24-.19-.346-.003-.004-.005-.009-.008-.01l-.033-.063-.015-.02-.03-.053-.015-.018-.03-.052a.051.051 0 0 1-.013-.019c-.014-.019-.03-.04-.045-.063m6.006 2.128c.137.555.265 1.112.384 1.67l-4.934.162c-.148-.588-.3-1.15-.465-1.668l5.015-.164m.682 3.12c.11.557.212 1.114.308 1.673l-4.872.12a61.277 61.277 0 0 0-.34-1.673l4.904-.12m.58 3.34c.089.56.172 1.12.247 1.68h-4.836a59.623 59.623 0 0 0-.274-1.68H56"/><path fill="#e63744" d="M35.333 59.49c1.505-1.388 2.55-2.89 1.903-5.464-.49-1.945-.71-2.536-1.655-2.67-1.337-.193-3.553-.336-4.397 1.085-1.58 2.464 2.487 6.06 4.15 7.05m6.173-9.972c2.71 2.421.425 8.35-1.354 10.604-2.538 3.337-6.26 6.094-8.125 9.852-.508.835-.93 1.838-1.352 2.673-1.44-.917-3.639-.753-5.077-.167 1.693-3.508 3.551-6.932 6.262-9.854.527-.588 1.107-1.11 1.684-1.602-2.407.202-5.482-2.348-6.677-4.078-.978-1.367-3.367-6.746-.599-7.605-.02-.007-.016-.019.05-.013a.59.59 0 0 1 .07-.02c.004.01.004.017 0 .024.047.004.094.008.14.014 1.693.17 3.215-.162 5.078.254 2.79.586 7.701-2.005 9.9-.082"/><path fill="#9e723f" d="M56.548 31.933c1.17.743 1.94 2.01 1.94 3.447 0 2.29-1.957 4.143-4.368 4.143-.066 0-.133-.002-.202-.004C50.012 46.427 42.53 51.1 33.94 51.1c-8.598 0-16.086-4.683-19.99-11.605-.16.018-.322.028-.486.028-2.41 0-4.366-1.853-4.366-4.143 0-1.546.891-2.895 2.21-3.605a22.907 22.907 0 0 1-.23-3.235c0-12.46 10.236-22.56 22.862-22.56 12.627 0 22.864 10.1 22.864 22.56 0 1.153-.088 2.287-.255 3.393" data-paper-data="{&quot;origPos&quot;:null}"/><path fill="#363335" d="M28.01 29.377c-.773-.174-.909-1.2-3.387-.74-.779.18-2.417 1.156-2.732 1.808-.316.652-.088-2.392 2.457-3.522 1.835-.675 2.457-.642 3.977-.642s1.987.907 1.766 1.65c0 0-.503 1.803-2.082 1.446zm13.904 0c.772-.174.908-1.2 3.386-.74.78.18 2.417 1.156 2.732 1.808.316.652.087-2.392-2.457-3.522-1.835-.675-2.457-.642-3.977-.642s-1.987.907-1.766 1.65c0 0 .503 1.803 2.082 1.446zM27.78 35.281c0 1.657-.895 3-2 3s-2-1.343-2-3 .895-3 2-3 2 1.343 2 3m18 0c0 1.657-.895 3-2 3s-2-1.343-2-3 .895-3 2-3 2 1.343 2 3" data-paper-data="{&quot;origPos&quot;:null}"/><path fill="#eeac6c" d="M34.8 38.35c-1.125.153-3.02 1.834-3.02 1.834s.207-1.009.503-1.299c.8-1.156 2.487-1.604 2.487-1.604s2.173.703 2.65 1.588c.443.824.34 1.238.34 1.238s-2.12-1.87-2.96-1.756z"/><path fill="#805120" d="M27.98 41.977s6.897 3.208 13.172-.397c0 0-1.39 5.47-5.95 5.561-4.115.122-4.984-1.492-5.477-1.956-.492-.463-1.42-1.772-1.745-3.208" data-paper-data="{&quot;origPos&quot;:null}"/><path fill="#363335" d="M57.708 25.598c.035 2.652-.904 8.383-2.733 11.802 0 0-4.497-12.558-8.203-14.548-4.526-2.43-16.464 1.075-20.51-2.078-.67-.522-.596-1.705-.596-1.705s-.773 1.508-1.145 1.928c-1.963 2.2-7.044 5.39-9.459 7.1-1.937 1.376-2.028 1.362-1.6 9.304 0 0-3.566-7.227-3.37-12.05.057-1.39.741-4.473 1.853-7.605C15.968 9.777 24.306 4.304 33.938 4.304c11.07 0 20.426 7.223 23.498 17.148.156 1.377.246 2.76.272 4.146" data-paper-data="{&quot;origPos&quot;:null}"/><path fill="#9e723f" d="M32.152 53.854c-1.066 0-1.934-2.264-1.934-3.297h7.605c0 1.033-.866 3.297-1.934 3.297h-3.737" data-paper-data="{&quot;origPos&quot;:null}"/><path fill="#eeac6c" d="M31.036 52.99a5.386 5.386 0 0 1-.8-2.186c2.51.4 5.067.392 7.573-.026l-.014.012-6.758 2.2"/><path fill="#343434" d="M23.64 112.638c-1.804 1.101-3.116 3.34-1.57 5.17 1.168 1.29 2.887.268 4.194-.278 1.445-.678 3.095-1.155 4.4-2.035.846-.584 1.838-1.207 2.406-2.076.176-.268.26-.522.197-.78h-9.626zm20.568 0c1.805 1.101 3.117 3.34 1.57 5.17-1.17 1.29-2.889.268-4.195-.278-1.443-.678-3.09-1.155-4.398-2.035-.846-.584-1.838-1.207-2.408-2.076-.176-.268-.26-.522-.196-.78h9.627z"/><path fill="#e63744" d="m46.377 86.772-1.967 25.866h-9.96l-.38-18.755h-.29l-.38 18.755h-9.964l-1.965-25.866h15.662z"/><path fill="#1679af" d="M47.671 4.807c2.43 5.737-5.182 14.344-17 19.22-11.82 4.872-23.374 4.171-25.804-1.566-2.179-5.148 3.717-12.6 13.487-17.6a11.836 11.836 0 0 0-2.17-.948c-1.256-.409-2.58-.666-3.91-.623-.127.004-.127-.189 0-.193 1.373-.045 2.766.216 4.058.661.773.26 1.519.594 2.225 1a46.794 46.794 0 0 1 3.31-1.513C33.688-1.633 45.24-.93 47.671 4.807"/></g></svg>