<svg xmlns="http://www.w3.org/2000/svg" width="83.436" height="119.642"><g fill-rule="evenodd" stroke-miterlimit="10" data-paper-data="{&quot;isPaintingLayer&quot;:true}" style="mix-blend-mode:normal"><path fill="#eeeeed" d="M48.473 114.126c-.059.24.017.547.181.797.525.813 1.44 1.468 2.22 2.016 1.205.822 2.731 1.25 4.065 1.887 1.205.51 2.793 1.429 3.873.22 1.425-1.715.218-3.89-1.451-4.92zm-1.214 0c.054.24-.02.547-.183.797-.528.813-1.441 1.468-2.219 2.016-1.207.822-2.733 1.25-4.067 1.887-1.205.51-2.794 1.429-3.873.22-1.427-1.715-.216-3.89 1.45-4.92z"/><path fill="#2356a3" d="m59.365 89.888-1.813 24.298h-9.204l-.35-17.574h-.264l-.351 17.574h-9.204l-1.814-24.297z"/><path fill="#9b6c40" d="M64.131 64.319c3.393 4.342 4.692 17.394 4.692 17.394s0-.02-.004-.057c.438.63.745 1.453.841 2.374.231 2.182-.815 4.078-2.332 4.24-.99.104-1.94-.557-2.541-1.637-.56.465-1.116.65-1.517.438-.741-.397-.656-2.024.196-3.634a6.26 6.26 0 0 1 1.116-1.532c.035-.068.065-.131.105-.194 0 0-1.478-9.428-3.052-11.658-.786-1.117-1.294-1.743-1.473-2.238-.15-.397-.307-1.161-.366-1.447-.508-2.238-3.276-7.285-3.276-7.285s5.959 3.127 7.61 5.236M18.312 49.784c1.112-.471 2.446-.037 3.525 1 .488-.734 1.068-1.146 1.604-1.044 1.003.199 1.474 2.114 1.05 4.288a7.552 7.552 0 0 1-.753 2.17c-.042.27-.107.53-.194.77l5.089 5.98 10.795-3.865s-1.835 2.913-2.289 3.975c-.329.777-.97 3.23-.97 3.23s-7.883 3.206-10.117 2.397c-2.768-1.006-5.941-10.025-5.941-10.025-1.19-.424-2.343-1.563-3.006-3.134-1.037-2.45-.497-5.018 1.208-5.742" data-paper-data="{&quot;origPos&quot;:null}"/><path fill="#d0d0d0" d="M29.412 50.947c0 .32-6.584 1.12-14.705 1.12-8.125 0-14.707-.8-14.707-1.12 0-.32 6.582-.582 14.707-.582 8.121 0 14.705.262 14.705.582"/><path fill="#814915" d="M7.928 49.958a1.133 1.133 0 1 1-2.265.07 1.133 1.133 0 0 1 2.265-.07"/><path fill="#482c15" d="M9.378 51.039a1.13 1.13 0 0 1-1.419-.738 1.135 1.135 0 0 1 .737-1.424 1.134 1.134 0 0 1 .682 2.162"/><path fill="#fddeba" d="M9.399 50.275c.102.037.183 0 .266-.046-.025-.094-.052-.176-.155-.224-.104-.05-.191-.01-.281.04.03.095.061.184.17.23m-.523-.222c.105.048.191.01.281-.04-.03-.096-.063-.183-.17-.227-.107-.04-.185-.002-.268.047.024.093.054.176.157.22m-.523-.186c.113.044.203-.004.298-.063-.024-.105-.05-.205-.165-.255-.115-.053-.207-.003-.305.045-.005.005-.007.007-.013.009.002.004.006.01.006.014.029.106.059.204.179.25m1.521.703c-.133-.06-.168-.177-.194-.28-.085.048-.181.085-.303.04-.128-.053-.17-.156-.205-.256-.092.046-.196.092-.322.035-.118-.054-.162-.15-.188-.244-.093.057-.2.113-.335.06-.149-.054-.186-.177-.223-.287v-.003a.373.373 0 0 1-.163.04.5.5 0 0 0 .017-.061.394.394 0 0 0 .138-.04.292.292 0 0 0-.068-.128l.032-.057a.42.42 0 0 1 .09.157l.002-.004c.103-.052.216-.113.36-.05.13.057.166.174.19.28.087-.05.185-.088.305-.042.128.048.17.157.205.254.092-.045.196-.09.322-.03.118.048.157.147.183.24.094-.054.196-.11.334-.056.033.012.064.03.091.054-.002.024-.009.044-.013.066a.267.267 0 0 0-.098-.066c-.116-.046-.203.009-.296.066.026.107.05.205.163.255a.236.236 0 0 0 .109.02c-.013.02-.02.04-.037.06a.28.28 0 0 1-.096-.023"/><path fill="#814915" d="M12.409 49.958a1.134 1.134 0 1 1-2.267.003 1.134 1.134 0 0 1 2.267-.003"/><path fill="#f0c0da" d="M13.594 51.087a1.132 1.132 0 1 1 .664-1.984c.227.197.365.477.384.777a1.13 1.13 0 0 1-1.048 1.207"/><path fill="#482c15" d="M14.643 49.896a1.125 1.125 0 0 1-1.048 1.19 1.127 1.127 0 0 1-1.205-1.03l2.253-.16"/><path fill="#482c15" d="M15.497 51.062a1.135 1.135 0 0 1-.34-2.066 1.13 1.13 0 0 1 .854-.14 1.134 1.134 0 0 1-.514 2.206"/><path fill="#ce8f64" d="m16.328 49.614.079-.338.22.216zm-.535-.167.211-.085-.212-.227zm-.621.309.244-.076-.27-.236zm.136-.46.244-.1.015.198zm.566.707.211-.186.136.268zm.502-.118.166-.02.013.216zm-1.061.36.303.075-.072-.317zm-.311-.092-.052-.21.185.076zm.256.683-.063-.225.264.108zm.54.022.02-.31.192.22zm.577-.18-.075-.267.21.092zm-.258-1.523-.026-.094.083.053z"/><path fill="#814915" d="M19.126 49.958a1.13 1.13 0 1 1-2.26 0 1.13 1.13 0 0 1 2.26 0"/><path fill="#482c15" d="M21.365 49.958c0 .626-.506 1.134-1.133 1.134a1.134 1.134 0 0 1 0-2.267c.627 0 1.133.509 1.133 1.133"/><path fill="#fddeba" d="M20.382 48.818c.031.004.061.01.091.017l-1.318.794a.599.599 0 0 1 .032-.087zm.65.314c.017.014.033.03.048.046l-1.9 1.147-.02-.061zm-1.451 1.728 1.783-1.078a.73.73 0 0 1 .004.065l-1.732 1.05a.804.804 0 0 1-.054-.038zm1.732-.552c-.011.03-.022.064-.034.094l-1.11.67c-.035-.004-.068-.006-.1-.013z"/><path fill="#814915" d="M23.606 49.958a1.131 1.131 0 1 1-2.262 0 1.131 1.131 0 0 1 2.262 0"/><path fill="#482c15" d="M9.018 48.019a1.131 1.131 0 1 1-2.262 0 1.131 1.131 0 0 1 2.262 0"/><path fill="#814915" d="M11.259 48.019a1.134 1.134 0 1 1-2.268 0 1.134 1.134 0 0 1 2.268 0"/><path fill="#482c15" d="m11.016 48.669-.766-.5.01.034-.03-.026.237.89-.331-.855-.009.037-.011-.037-.331.855.235-.89-.03.026.013-.035-.767.5.715-.582-.046.004.035-.022-.918-.048.918-.052-.035-.02h.046l-.715-.578.767.497-.013-.037.03.029-.235-.89.332.857.01-.04.009.04.331-.857-.237.89.03-.03-.011.038.767-.497-.712.578h.041l-.033.02.918.052-.918.048.033.022-.041-.004z"/><path fill="#ce8f64" d="M13.494 48.019a1.13 1.13 0 1 1-2.26 0 1.13 1.13 0 0 1 2.26 0"/><path fill="#fddeba" d="m13.192 48.019-.155.219-.002.266-.255.087-.16.214-.256-.08-.253.08-.157-.214-.257-.087-.002-.266-.155-.218.155-.218.002-.27.257-.084.157-.216.253.08.257-.08.159.216.255.085.002.269z"/><path fill="#814915" d="M15.737 48.019a1.132 1.132 0 1 1-2.262.001 1.132 1.132 0 1 1 2.262 0"/><path fill="#ce8f64" d="M17.974 48.019a1.13 1.13 0 1 1-2.26 0 1.131 1.131 0 0 1 2.26 0"/><path fill="#fddeba" d="M17.209 47.417c.206 0 .3.303.4.628.063.207.131.42.227.524-.013.017-.024.035-.036.052-.108-.107-.178-.33-.25-.561-.087-.286-.178-.584-.342-.584-.166 0-.257.298-.346.584-.099.323-.192.629-.404.629-.207 0-.298-.306-.401-.63-.067-.213-.133-.435-.233-.531a.474.474 0 0 0 .028-.055c.12.1.19.33.264.572.09.286.182.583.342.583.164 0 .255-.297.345-.583.1-.325.195-.628.405-.628"/><path fill="#814915" d="M20.216 48.019a1.133 1.133 0 1 1-2.265 0 1.133 1.133 0 1 1 2.265 0"/><path fill="#814915" d="M22.455 48.019a1.131 1.131 0 1 1-2.261 0 1.131 1.131 0 0 1 2.26 0"/><path fill="#482c15" d="m22.408 48.019-.397.223.192.415-.455-.053-.09.45-.333-.308-.336.308-.09-.45-.453.053.192-.415-.399-.222.4-.225-.193-.412.454.048.09-.445.335.307.333-.307.09.445.455-.048-.192.412z"/><path fill="#f0c0da" d="M21.635 48.019a.31.31 0 1 1-.622 0 .31.31 0 0 1 .623 0"/><path fill="#814915" d="M10.108 46.08a1.133 1.133 0 1 1-2.265.068 1.133 1.133 0 0 1 2.265-.067"/><path fill="#fddeba" d="m9.614 46.138.057-.296-.227-.175-.253.382.423.09zm-.013.059-.445-.094-.228.347.568.293zm-.513-.104-.35-.077-.079.299.214.109zm-.248.38-.196-.1-.176.669zm-.235-.186.072-.284-.423-.085-.098.137zm-.309-.421.398.08.186-.711-.09-.072zm.638-.594-.183.686.373.08.27-.408-.46-.357zm1.162.967-.007.06-.427-.09-.111.566.22.11a.19.19 0 0 1-.05.043l-.183-.094-.05.258-.067.03.06-.316-.588-.303-.397.602c-.03-.013-.064-.033-.094-.05l.186-.71-.467-.24-.224.317c-.007-.022-.013-.05-.02-.076l.192-.27-.22-.11.008-.061.249.124.087-.124-.322-.068c.006-.017.01-.041.017-.057l.34.07.516-.722-.146-.113a.27.27 0 0 1 .068-.022l.111.083.087-.122a.998.998 0 0 1 .079-.005l-.116.164.072.056.057-.22h.063l-.067.259.477.37.25-.387c.016.014.031.03.048.044l-.25.378.207.163.098-.493c.015.02.035.039.052.057l-.093.48.368.28c-.002.027-.005.05-.005.075l-.377-.292-.056.268z"/><path fill="#814915" d="M12.347 46.08a1.132 1.132 0 1 1-2.264 0 1.132 1.132 0 0 1 2.264 0"/><path fill="#fddeba" d="M10.749 45.6h-.343l.157-.264zm-.038.559-.133-.186-.172.26zm.442.536-.132-.22-.166.319zm-.48-.028-.153-.218.19-.057zm.561-.71-.23-.17.23-.188zm-.229-.462-.057-.16.204-.063zm.593.952v-.316l-.29.142zm-.024.318-.192.1.035-.198zm.606-.401-.202.11.045-.28zm-.1-.536-.305.055.17-.236zm-.305-.52-.246.135.045-.227zm-1.423.598-.088.05.033-.097z"/><path fill="#814915" d="M14.588 46.08a1.133 1.133 0 1 1-2.266-.001 1.133 1.133 0 0 1 2.266.002"/><path fill="#814915" d="M16.116 45.029a1.132 1.132 0 1 1-.807 2.115 1.132 1.132 0 0 1 .807-2.115"/><path fill="#482c15" d="M14.652 45.642a1.131 1.131 0 0 1 2.099.842l-2.099-.842"/><path fill="#fddeba" d="M10.762 41.139a1.135 1.135 0 0 1 1.422 1.536 1.13 1.13 0 0 1-.637.589 1.128 1.128 0 0 1-1.453-.67 1.13 1.13 0 0 1 .667-1.455"/><path fill="#482c15" d="M10.089 42.577a1.132 1.132 0 0 1 .673-1.438 1.133 1.133 0 0 1 1.447.652l-2.12.786"/><path fill="#814915" d="M19.066 46.08a1.133 1.133 0 0 1-2.177.435 1.132 1.132 0 1 1 2.177-.434"/><path fill="#482c15" d="m18.894 46.08-.275.223.092.343-.353.017-.127.332-.294-.194-.3.194-.123-.332-.357-.017.096-.343-.28-.222.28-.223-.096-.345.357-.015.122-.331.301.194.294-.194.127.33.353.016-.092.345z"/><path fill="#ce8f64" d="m18.383 46.08-.218.232-.229.218-.233-.218-.22-.231.22-.234.233-.218.23.218z"/><path fill="#fddeba" d="M20.424 44.974c.608.14.992.748.854 1.36a1.132 1.132 0 0 1-2.208-.504c.14-.612.746-.994 1.354-.856"/><path fill="#482c15" d="m20.099 45.347-.225.185.32.332.177-.393zm.839.376-.51-.23-.19.419.286.299.414-.49zm-.451.536-.28-.288-.147.329.27.142.156-.183zm.511.532-.47-.488-.142.168.613.32zm-.708-.301-.255-.132-.177.39.11.126zm-1.05-.433.571.64.17-.37-.654-.343-.087.072zm.764.216.16-.35-.336-.353-.451.373zm.394-.858.18-.393a.594.594 0 0 1 .054.024l-.178.393.522.233.16-.188c.009.02.022.037.033.057l-.135.159.237.105c.007.026.013.048.018.074l-.297-.132-.425.51.499.52a.65.65 0 0 1-.074.08l-.647-.338-.336.4.257.29a1.015 1.015 0 0 1-.078.003l-.22-.246-.157.188c-.022-.007-.037-.016-.059-.024l.176-.21-.1-.113-.137.296c-.017-.008-.035-.02-.055-.026l.149-.318-.593-.666-.14.118c-.004-.024-.004-.048-.006-.072l.107-.09-.1-.113a.97.97 0 0 1 .01-.078l.137.152.07-.056-.205-.107a.028.028 0 0 0 .005-.018c.004-.017.006-.028.013-.043l.237.124.465-.382-.318-.332a.499.499 0 0 0 .05-.037l.316.33.202-.168-.455-.205c.019-.011.041-.025.063-.035l.444.196.36-.295c.024.003.046.012.07.02l-.368.303.248.11z"/><path fill="#814915" d="M11.195 44.139a1.13 1.13 0 1 1-2.26-.002 1.13 1.13 0 0 1 2.26.003"/><path fill="#482c15" d="M13.437 44.139a1.13 1.13 0 0 1-1.131 1.133 1.132 1.132 0 1 1 1.131-1.132"/><path fill="#fddeba" d="M11.178 44.218c-.004-.025-.004-.046-.004-.07l1.704.968c-.021.013-.043.022-.063.037l-1.637-.936m2.195-.444c.011.022.016.048.026.074l-1.628-.706a.858.858 0 0 1 .074-.033l1.527.665m-1.725-.553.05-.035 1.277 1.868a.434.434 0 0 1-.05.033l-1.277-1.866"/><path fill="#814915" d="M15.676 44.139a1.132 1.132 0 1 1-2.264 0 1.132 1.132 0 0 1 2.264 0"/><path fill="#fddeba" d="M14.954 43.887c.068-.085.059-.174.039-.266-.098-.004-.183-.002-.261.082-.076.088-.065.18-.048.28.105 0 .198-.004.27-.096m-.366.44c.076-.09.066-.181.048-.281-.1-.002-.196.002-.27.092-.068.086-.059.175-.035.266.094.009.183.005.257-.077m-.333.439c.076-.096.052-.196.024-.301-.105-.008-.207-.017-.29.079-.086.093-.066.194-.046.303v.015h.015c.114.003.218.003.297-.096m1.124-1.241c-.098.11-.215.107-.324.1.019.096.028.203-.055.302-.087.109-.198.12-.303.12.02.1.028.215-.065.32-.086.096-.188.107-.286.103.022.104.046.227-.048.34-.096.12-.224.12-.34.12h-.002a.343.343 0 0 1-.013.17.41.41 0 0 1-.05-.035.345.345 0 0 0 0-.141.346.346 0 0 0-.142.024c-.015-.011-.026-.03-.041-.046a.397.397 0 0 1 .172-.04v-.004c-.02-.111-.046-.238.059-.356.096-.11.217-.11.327-.1-.02-.096-.028-.198.052-.301.087-.11.201-.118.303-.118-.017-.102-.026-.216.068-.321.082-.096.191-.104.287-.098-.026-.106-.048-.224.042-.336a.26.26 0 0 1 .085-.072c.014.01.037.024.054.037a.21.21 0 0 0-.09.066c-.076.098-.054.2-.03.305.111.007.214.01.294-.08a.221.221 0 0 0 .055-.1c.016.02.031.036.046.056a.257.257 0 0 1-.055.085"/><path fill="#814915" d="M17.052 43.04a1.134 1.134 0 1 1-.54 2.202 1.137 1.137 0 0 1-.826-1.373c.148-.604.76-.977 1.367-.83"/><path fill="#482c15" d="m17.051 43.063.575 1.285-1.105.87-.58-1.285z"/><path fill="#814915" d="M20.156 44.139a1.131 1.131 0 0 1-2.262 0 1.132 1.132 0 1 1 2.262 0m-5.63-1.937a1.133 1.133 0 1 1-2.265.07 1.133 1.133 0 0 1 2.265-.07"/><path fill="#ce8f64" d="M16.765 42.202a1.131 1.131 0 1 1-2.262 0 1.131 1.131 0 0 1 2.262 0"/><path fill="#482c15" d="M15.172 41.718h-.347l.157-.262zm-.042.563-.133-.185-.173.257zm.444.537-.133-.22-.168.319zm-.482-.028-.155-.218.192-.06zm.56-.712-.228-.168.228-.191zm-.229-.466-.057-.156.207-.06zm.594.958v-.316l-.29.142zm-.025.318-.191.098.032-.197zm.607-.402-.203.112.046-.28zm-.101-.537-.305.055.172-.235zm-.305-.517-.246.133.045-.227zm-1.423.597-.087.048.033-.093zm4.237.173"/><path fill="#814915" d="M17.534 43.282c-.022-.006-.044-.017-.065-.023l-.273-1.96a.312.312 0 0 1 .057-.042l.281 2.025m-.592-.437a.547.547 0 0 1-.048-.08l.192-1.375a.498.498 0 0 1 .072-.063l-.216 1.518m1.431.374c-.02.01-.04.02-.061.027l-.288-2.08-.323 2.153c-.019-.002-.039-.004-.06-.008l.336-2.237.1.013zm.233-.154c-.024.017-.045.037-.067.052l.224-1.61.055.068-.212 1.49"/><path fill="#482c15" d="M15.001 41.269a1.131 1.131 0 1 1-1.035-2.012 1.131 1.131 0 0 1 1.035 2.012"/><path fill="#fddeba" d="M15.186 40.309c.096.186-.133.41-.375.646-.154.15-.314.31-.362.44-.023 0-.041-.002-.063-.004.046-.146.21-.31.384-.48.214-.21.436-.428.364-.574-.078-.147-.384-.092-.678-.037-.333.057-.647.11-.741-.072-.099-.188.133-.412.371-.645.163-.156.326-.32.366-.45.024-.002.045-.002.067-.002-.037.15-.211.318-.39.495-.213.209-.436.424-.362.574.076.146.38.09.676.037.333-.06.647-.112.743.072"/><path fill="#482c15" d="M17.855 40.263c0 .624-.505 1.134-1.131 1.134a1.134 1.134 0 0 1 0-2.266c.626 0 1.131.508 1.131 1.132"/><path fill="#fddeba" d="M17.704 40.263a.981.981 0 1 1-1.962.002.981.981 0 0 1 1.962-.002"/><path fill="#814915" d="M17.525 40.263a.801.801 0 0 1-1.602 0c0-.443.36-.805.802-.805.443 0 .8.362.8.805"/><path fill="#482c15" d="M17.093 40.263a.37.37 0 1 1-.74.002.37.37 0 0 1 .74-.002"/><path fill="#fddeba" d="M14.465 38.324a1.13 1.13 0 1 1-2.26 0 1.13 1.13 0 0 1 2.26 0"/><path fill="#f0c0da" d="M12.639 37.857c.017.064-.005.12-.044.13-.037.008-.078-.034-.092-.095-.015-.063 0-.12.04-.126.039-.011.08.03.096.09m1.176.553c-.006.077-.05.133-.095.129-.046-.007-.077-.072-.068-.144.007-.076.05-.13.096-.124.048.002.076.067.067.14m-1.259.022c-.038.034-.081.045-.105.026-.022-.024-.011-.07.026-.105.033-.035.08-.046.105-.024.021.02.01.065-.026.103m.489.353c-.007.072-.046.127-.09.125-.045-.005-.073-.064-.07-.133.007-.072.045-.13.09-.123.044.003.074.06.07.13m.296-1.182c-.03.063-.085.1-.127.083-.039-.018-.048-.083-.017-.15.028-.064.085-.1.124-.082.04.018.05.085.02.149m.279.4c.024.049.02.1-.011.115-.03.013-.072-.015-.096-.061-.024-.046-.02-.098.013-.114.028-.013.07.013.094.06m-.36 1.136c-.015.052-.052.085-.083.076-.035-.01-.046-.06-.033-.113.018-.05.057-.083.085-.072.035.009.048.059.03.109m-.188-1.037c0 .046-.027.085-.057.085-.028 0-.055-.04-.052-.087 0-.05.026-.09.058-.09.027 0 .053.042.05.092m.967.787c0 .05-.024.087-.052.087-.03 0-.057-.042-.055-.09.002-.048.028-.087.059-.087.028 0 .05.042.048.09m-1.09-1.137c-.015.046-.048.078-.076.07-.028-.01-.042-.055-.028-.1.015-.047.05-.077.076-.068.028.006.041.052.028.098m1.09.177c-.007.046-.037.083-.068.076-.028-.004-.045-.048-.037-.094.009-.048.037-.085.068-.08.03.006.048.048.037.098m-.453.976c.024.067.006.13-.033.144-.04.01-.092-.03-.111-.096-.022-.066-.005-.131.032-.142.042-.013.092.03.112.094m-.328-.337c.01.035.002.065-.022.074-.02.007-.044-.015-.054-.048-.011-.037-.003-.067.017-.074.02-.01.046.015.059.048m-.607.182c.01.034.002.069-.017.073-.022.007-.046-.015-.06-.048-.01-.035-.001-.067.02-.074.018-.006.044.013.057.048m1.149-1.15c.014.033.003.068-.02.075-.019.004-.043-.018-.054-.053-.008-.03-.004-.065.016-.07.021-.008.045.016.058.048m.364.726c.011.033.003.068-.017.076-.024.005-.046-.017-.059-.05-.01-.035-.002-.068.018-.074.02-.007.045.015.058.048m.12-.337c-.013.035-.044.055-.064.044-.02-.007-.021-.04-.008-.074.015-.03.041-.05.063-.044.017.009.022.042.009.074"/><path fill="#814915" d="M15.554 36.384a1.132 1.132 0 1 1-2.263.073 1.132 1.132 0 0 1 2.263-.073"/><path fill="#482c15" d="M16.657 38.656a1.134 1.134 0 0 1-2.082.198 1.126 1.126 0 0 1-.08-.861c.179-.6.813-.936 1.408-.753.601.186.937.816.754 1.416"/><path fill="#814915" d="m16.636 38.648-1.317.508L14.511 38l1.316-.506zm-3.257 1.615c0 .624-.51 1.134-1.135 1.134a1.135 1.135 0 1 1 1.136-1.134"/><path fill="#482c15" d="m13.332 40.263-.4.225.191.414-.453-.054-.09.45-.335-.311-.336.312-.09-.451-.453.054.192-.414-.4-.225.4-.225-.192-.417.454.055.09-.45.335.313.335-.312.09.449.453-.055-.192.417z"/><path fill="#fddeba" d="M12.557 40.263a.312.312 0 1 1-.624 0 .312.312 0 0 1 .624 0"/><path fill="#9b6c40" d="M24.558 53.75c-.312 2.078-1.337 3.643-2.291 3.499-.957-.142-1.484-1.94-1.175-4.015.307-2.073 1.334-3.64 2.295-3.495.953.146 1.482 1.94 1.17 4.012" data-paper-data="{&quot;origPos&quot;:null}"/><path fill="#eeeeed" d="M64.291 81.275s-1.197-9-2.77-11.232c-.083-.117-.16-.226-.232-.331 1.537 9.124 1.35 20.17 1.35 20.17v2.106H33.2v-2.103s-.29-13.81 1.875-23.173c-.543.246-6.973 2.793-9.117 2.01-2.764-1-6.844-9.575-6.844-9.575l4.419-2.175 5.13 5.963 9.783-3.831c1.929-1.257 7.783-1.464 7.783-1.464l1.624.048h.135l1.626-.048s5.83.187 7.772 1.444c.782.428 5.131 2.88 6.628 4.8 3.396 4.34 4.873 17.396 4.873 17.396l-4.596-.005"/><path fill="#c6c5c6" d="M42.608 57.957v34.03h.125V57.94c-.042.006-.083.01-.125.017m10.474-.028v34.06h.122V57.945c-.04-.007-.08-.01-.122-.015m-8.234 7.238a.635.635 0 1 1-1.271 0 .636.636 0 0 1 1.27 0m.001 4.304a.636.636 0 0 1-1.271 0 .636.636 0 1 1 1.27 0m.001 4.3a.636.636 0 1 1-1.273.003.636.636 0 0 1 1.273-.002m0 4.302a.635.635 0 1 1-1.271 0 .636.636 0 1 1 1.27 0m.001 4.3a.635.635 0 1 1-1.271 0 .636.636 0 0 1 1.27 0m7.445-12.903c0 .35-.287.635-.633.635a.637.637 0 1 1 0-1.274c.346 0 .634.284.634.64m-.001 4.3c0 .35-.283.634-.633.637a.637.637 0 1 1 0-1.274c.346 0 .634.284.634.637m-.001 8.603"/><path fill="#264775" d="M56.897 100.509c-2.856 3.537-14.956 3.214-18.169 0-2.099-2.103 0-11.897 0-11.897h18.169s1.865 9.58 0 11.897"/><path fill="#264775" d="M33.201 89.88c0-.087-.028-1.453 0-3.576h29.423c.039 2.143.015 3.513.015 3.576H33.201"/><path fill="#9b6c40" d="M51.103 57.59c.17.019.353.039.547.063l-3.83 2.21-3.36-2.225c.176-.016.344-.035.501-.05-.272-.611-.442-1.305-.442-1.74h7.026c0 .435-.167 1.129-.442 1.74" data-paper-data="{&quot;origPos&quot;:null}"/><path fill="#eeac6c" d="M45.274 58.173a5.062 5.062 0 0 1-.74-2.05c2.319.374 4.683.366 6.999-.024l-.013.013-6.247 2.06"/><path fill="#eeeeed" d="M50.965 59.668c-1.324.4-4.17.35-5.534.116-.399-.07-.687-.325-.9-.537-.556-.554 0-3.146 0-3.146 1.127.187 3.232 1.208 3.465 3.495.209-2.297 2.358-3.31 3.496-3.497 0 0 .495 2.537 0 3.148a2.081 2.081 0 0 1-.102.113l-.112.098c-.091.075-.187.17-.313.21"/><path fill="#c6c5c6" d="M47.936 59.604c-.242-1.575-1.157-2.426-1.88-2.862-.79-.476-1.524-.58-1.53-.583l.012-.118c.033.007.772.107 1.576.594.75.45 1.69 1.328 1.944 2.952z"/><path fill="#c6c5c6" d="m48.057 59.602-.122-.01c.307-2.927 3.513-3.548 3.546-3.553l.022.118c-.033.007-3.147.613-3.446 3.445" data-paper-data="{&quot;origPos&quot;:null}"/><path fill="#c6c5c6" d="M44.305 58.619s.007.033.017.096c.032.23.135.447.295.617.06.057.126.11.202.16.079.045.164.09.258.126.372.146.845.212 1.349.247.255.02.516.026.782.035.266.002.536.002.809.002.268 0 .54 0 .806-.01.266-.006.53-.014.783-.032.252-.02.496-.043.723-.085.225-.043.44-.096.623-.174a1.3 1.3 0 0 0 .45-.304c.153-.176.25-.393.28-.624l.01-.072c0-.017.006-.026.006-.026s-.007.009-.007.026c0 .016 0 .04-.004.072a1.222 1.222 0 0 1-.05.273c-.041.14-.11.27-.203.382a1.31 1.31 0 0 1-.453.336 2.64 2.64 0 0 1-.637.198 6.06 6.06 0 0 1-.73.105c-.253.02-.518.035-.787.044-.54.018-1.082.018-1.623.002-.268-.004-.53-.017-.783-.04a6.78 6.78 0 0 1-.734-.1 3.109 3.109 0 0 1-.637-.19c-.09-.041-.177-.09-.259-.146a.9.9 0 0 1-.205-.174 1.075 1.075 0 0 1-.218-.375c-.037-.114-.046-.21-.054-.273l-.009-.096"/><path fill="#c8930f" d="M46.557 57.642c-.6-.08-1.24-.256-1.853-.404-.046.3-.096.58-.144.84.6.4 1.227.744 1.818.842.059-.432.118-.862.179-1.278m-1.898-.458c.645.144 1.327.327 1.959.405-.066.456-.129.923-.194 1.399-.621-.085-1.29-.467-1.925-.908.053-.275.105-.574.16-.896"/><path fill="#e63744" d="M45.78 58.74c.052-.395.109-.803.166-1.211.202.044.405.082.61.114-.061.416-.118.844-.179 1.278a2.65 2.65 0 0 1-.597-.181"/><path fill="#f6b90c" d="m45.169 58.438.155-1.054c.206.052.413.1.621.144l-.166 1.213a5.398 5.398 0 0 1-.61-.303"/><path fill="#232323" d="M44.56 58.077c.052-.279.1-.558.145-.837.204.045.411.098.62.144-.054.364-.104.72-.157 1.053a8.721 8.721 0 0 1-.608-.36"/><path fill="#c8930f" d="M49.547 58.92c.59-.098 1.218-.443 1.818-.842a27.42 27.42 0 0 1-.142-.84c-.612.148-1.253.325-1.852.404l.176 1.278m1.879-.84c-.632.44-1.301.823-1.925.908-.065-.476-.126-.943-.194-1.4.635-.077 1.317-.26 1.962-.404.052.325.104.62.157.896"/><path fill="#232323" d="M50.147 58.74a2.638 2.638 0 0 1-.599.18c-.061-.433-.118-.861-.177-1.277.199-.03.401-.068.608-.114.055.408.114.816.168 1.21"/><path fill="#f6b90c" d="M50.756 58.438a5.44 5.44 0 0 1-.608.303c-.057-.395-.113-.803-.168-1.213.205-.042.414-.092.621-.144l.155 1.054"/><path fill="#e63744" d="M51.365 58.077c-.203.13-.406.25-.608.36-.053-.333-.103-.69-.157-1.053.209-.046.416-.1.623-.144.046.299.094.578.142.837"/><path fill="#9b6c40" d="M68.845 38.6c1.084.695 1.796 1.882 1.796 3.23 0 2.145-1.807 3.882-4.03 3.882-.069 0-.128 0-.191-.003-3.612 6.473-10.521 10.853-18.452 10.853-7.942 0-14.855-4.388-18.462-10.874a4.702 4.702 0 0 1-.445.024c-2.227 0-4.032-1.737-4.032-3.882 0-1.446.819-2.708 2.038-3.375a21.694 21.694 0 0 1-.216-3.035c0-11.673 9.455-21.138 21.117-21.138 11.66 0 21.115 9.465 21.115 21.138 0 1.082-.081 2.142-.238 3.18" data-paper-data="{&quot;origPos&quot;:null}"/><path fill="#3b2711" d="M42.972 33.55s-.48 1.696-1.992 1.36c-.738-.163-.868-1.13-3.238-.696-.745.17-2.312 1.087-2.614 1.7-.302.613-.084-2.248 2.35-3.312 1.756-.634 2.351-.603 3.805-.603 1.453 0 1.901.853 1.69 1.552m10.099 0s.48 1.695 1.992 1.36c.738-.164.868-1.13 3.238-.697.745.17 2.312 1.087 2.614 1.7.302.613.084-2.248-2.35-3.312-1.756-.634-2.351-.603-3.805-.603-1.453 0-1.901.853-1.69 1.552M41.022 40.999c0 1.657-.895 3-2 3s-2-1.343-2-3 .895-3 2-3 2 1.343 2 3m18 0c0 1.657-.895 3-2 3s-2-1.343-2-3 .895-3 2-3 2 1.343 2 3" data-paper-data="{&quot;origPos&quot;:null}"/><path fill="#e2a86e" d="M45.022 43.999s.207-1.042.504-1.342c.801-1.195 2.491-1.658 2.491-1.658s2.175.727 2.654 1.64c.443.853.341 1.28.341 1.28s-2.125-1.933-2.965-1.815c-1.127.158-3.025 1.895-3.025 1.895zM41.222 46.695s6.897 3.208 13.172-.397c0 0-1.39 5.47-5.95 5.56-4.115.123-4.984-1.491-5.477-1.955-.492-.463-1.42-1.772-1.745-3.208"/><path fill="#3b2711" d="M69.92 32.666c.036 2.483-.832 7.855-2.524 11.055 0 0-4.151-11.762-7.573-13.627-4.18-2.278-15.202 1.006-18.94-1.947-.619-.49-.549-1.6-.549-1.6s-.715 1.413-1.062 1.81c-1.813 2.062-6.505 5.047-8.733 6.652-1.794 1.29-1.876 1.275-1.478 8.712 0 0-3.295-6.768-3.112-11.288.052-1.301.682-4.187 1.707-7.126 3.716-7.465 11.418-12.595 20.317-12.595 10.219 0 18.861 6.772 21.697 16.07a41.12 41.12 0 0 1 .25 3.884" data-paper-data="{&quot;origPos&quot;:null}"/><path fill="#eeeeed" d="M17.019 17.193c0-3.34 6.261-9.49 12.07-8.69 1.116-2.795 9.552-8.05 15.76-8.446C55.543-.63 68.154 5.167 68.424 5.31c23.301 12.353 15.742 28.608 2.435 20.42l-.864 8.45c-4.923-2.04-23.647-8.555-44.053.045l-.879-8.441c-4.66-1.001-8.044-3.624-8.044-8.592"/><path fill="#2356a3" d="M66.419 32.869a61.541 61.541 0 0 0-4.04-1.153v-8.82c3.192 1.217 4.238 1.937 4.238 1.937l-.198 8.035zm-8.288-2.05a61.349 61.349 0 0 0-4.163-.586v-9.578c3.14.558 4.235.907 4.235.907l-.072 9.258zm-12.992-.872-.07-9.475s1.114-.223 4.235-.181v9.628a59.241 59.241 0 0 0-4.165.028m-8.354.98-.07-8.943s1.09-.347 4.235-.908v9.203c-1.362.16-2.755.37-4.165.648m-3.639.837a55.384 55.384 0 0 0-4.043 1.24l-.194-7.805s1.026-.72 4.237-1.942z"/></g></svg>