<svg version="1.1" xmlns="http://www.w3.org/2000/svg" xmlns:xlink="http://www.w3.org/1999/xlink" width="53.82086" height="119.27962" viewBox="0,0,53.82086,119.27962"><g transform="translate(-213.49176,-120.54917)"><g data-paper-data="{&quot;isPaintingLayer&quot;:true}" fill-rule="evenodd" stroke="none" stroke-width="1" stroke-linecap="butt" stroke-linejoin="miter" stroke-miterlimit="10" stroke-dasharray="" stroke-dashoffset="0" style="mix-blend-mode: normal"><path d="M253.197,176.937c-0.277,-0.958 0.052,-2.65 0.412,-3.25c0.146,-0.242 0.599,-0.632 0.969,-0.928c-0.058,-0.336 -0.093,-0.637 -0.039,-0.921c0.078,-0.438 0.906,-1.242 1.38,-1.242c0.061,0 0.11,0.01 0.159,0.032c0.19,0.093 0.331,0.297 0.421,0.6c0.278,0.943 -0.039,2.599 -0.394,3.22c0.177,0.099 0.309,0.295 0.394,0.586c0.28,0.953 -0.049,2.65 -0.411,3.247c-0.035,0.062 -0.09,0.128 -0.156,0.199c0.036,0.056 0.07,0.12 0.104,0.188c0.427,0.899 0.363,2.626 0.098,3.275c-0.03068,0.06762 -0.06645,0.1328 -0.107,0.195c0.467,0.71 0.81,1.837 0.832,2.542c0.784,0.578 1.585,1.872 1.724,2.55c0.008,0.04 0.012,0.08 0.015,0.13c0.896,0.318 1.965,1.124 2.31,1.655c0.037,0.054 0.073,0.13 0.11,0.218c0.852,0 1.936,0.252 2.42,0.559c0.241,0.154 0.619,0.614 0.908,0.991c0.202,-0.031 0.397,-0.056 0.582,-0.056c0.12,0 0.23,0.012 0.331,0.032c0.341,0.066 0.892,0.588 1.118,1.053c0.1,0.21 0.124,0.387 0.058,0.514c-0.209,0.419 -0.876,0.505 -1.397,0.507c-0.791,0 -1.785,-0.215 -2.313,-0.497c-0.01589,0.091 -0.06334,0.1735 -0.134,0.233c-0.117,0.098 -0.283,0.147 -0.48,0.147c-0.937,0 -2.54,-1.12 -2.978,-1.79c-0.007,-0.013 -0.012,-0.025 -0.021,-0.037c-0.076,0.147 -0.168,0.24 -0.27,0.271c-0.05799,0.01604 -0.11783,0.02444 -0.178,0.025c-0.845,0 -2.021,-1.616 -2.36,-2.579c-0.097,0.093 -0.2,0.147 -0.294,0.147h-0.008c-0.214,0 -0.428,-0.125 -0.645,-0.357c-0.628,-0.689 -1.11,-2.241 -1.074,-3.035l-0.017,0.003c-0.03203,-0.00022 -0.06392,-0.00425 -0.095,-0.012c-0.204,-0.064 -0.375,-0.24 -0.51,-0.527c-0.425,-0.899 -0.364,-2.628 -0.098,-3.274c0.024,-0.057 0.06,-0.123 0.104,-0.191c-0.014,-0.008 -0.031,-0.013 -0.043,-0.02c-0.195,-0.093 -0.336,-0.294 -0.427,-0.597c-0.275,-0.946 0.042,-2.601 0.397,-3.223c-0.177,-0.1 -0.311,-0.297 -0.397,-0.583M233.814,176.937c0.278,-0.958 -0.05,-2.65 -0.411,-3.25c-0.149,-0.242 -0.599,-0.632 -0.97,-0.928c0.06,-0.336 0.093,-0.637 0.042,-0.921c-0.08,-0.438 -0.908,-1.242 -1.385,-1.242c-0.05276,-0.00097 -0.10505,0.00997 -0.153,0.032c-0.193,0.093 -0.334,0.297 -0.422,0.6c-0.277,0.943 0.037,2.599 0.395,3.22c-0.18,0.099 -0.312,0.295 -0.395,0.586c-0.282,0.953 0.047,2.65 0.41,3.247c0.036,0.062 0.092,0.128 0.155,0.199c-0.03849,0.06065 -0.07354,0.12342 -0.105,0.188c-0.426,0.899 -0.36,2.626 -0.097,3.275c0.024,0.056 0.061,0.124 0.107,0.195c-0.467,0.71 -0.81,1.837 -0.832,2.542c-0.782,0.578 -1.586,1.872 -1.724,2.55c-0.00796,0.04294 -0.01297,0.08638 -0.015,0.13c-0.896,0.318 -1.962,1.124 -2.31,1.655c-0.037,0.054 -0.071,0.13 -0.108,0.218c-0.854,0 -1.938,0.252 -2.422,0.559c-0.241,0.154 -0.619,0.614 -0.908,0.991c-0.19161,-0.03351 -0.38552,-0.05223 -0.58,-0.056c-0.11178,-0.00024 -0.22331,0.01048 -0.333,0.032c-0.339,0.066 -0.892,0.588 -1.116,1.053c-0.102,0.21 -0.124,0.387 -0.06,0.514c0.209,0.419 0.876,0.505 1.397,0.507c0.791,0 1.785,-0.215 2.313,-0.497c0.01684,0.09066 0.06411,0.17285 0.134,0.233c0.117,0.098 0.282,0.147 0.482,0.147c0.935,0 2.537,-1.12 2.975,-1.79c0.008,-0.013 0.013,-0.025 0.022,-0.037c0.076,0.147 0.168,0.24 0.27,0.271c0.05799,0.01604 0.11783,0.02444 0.178,0.025c0.845,0 2.021,-1.616 2.36,-2.579c0.1,0.093 0.2,0.147 0.294,0.147h0.008c0.214,0 0.428,-0.125 0.645,-0.357c0.628,-0.689 1.11,-2.241 1.074,-3.035c0,0 0.012,0.003 0.019,0.003c0.03202,-0.00037 0.06389,-0.00439 0.095,-0.012c0.202,-0.064 0.372,-0.24 0.509,-0.527c0.423,-0.899 0.363,-2.628 0.1,-3.274c-0.03193,-0.06531 -0.06697,-0.12905 -0.105,-0.191c0.012,-0.008 0.03,-0.013 0.044,-0.02c0.192,-0.093 0.336,-0.294 0.423,-0.597c0.276,-0.946 -0.041,-2.601 -0.396,-3.223c0.18,-0.1 0.314,-0.297 0.396,-0.583" fill="#2c2c2d"/><path d="M223.001,183.942l2.775,3.353l24.886,-0.343l8.729,4.287l4.743,9.75c0,0 -7.733,2.846 -10.438,3.25c-4.599,0.688 -13.959,-0.071 -18.609,-0.264c-10.117,-0.422 -16.844,-20.866 -12.087,-20.033z" fill="#bf3550"/><path d="M243.063,234.741c0.032,0.228 -0.038,0.417 -0.178,0.632c-0.491,0.762 -1.346,1.313 -2.076,1.825c-1.125,0.774 -2.547,1.195 -3.794,1.79c-1.125,0.477 -2.608,1.376 -3.618,0.243c-1.305,-1.578 -0.241,-3.522 1.269,-4.49zM252.577,234.741c1.509,0.968 2.571,2.912 1.266,4.492c-1.01,1.132 -2.493,0.23 -3.618,-0.248c-1.247,-0.595 -2.669,-1.011 -3.794,-1.785c-0.728,-0.512 -1.584,-1.065 -2.074,-1.827c-0.141,-0.218 -0.212,-0.404 -0.18,-0.632h8.4" data-paper-data="{&quot;origPos&quot;:null}" fill="#be9269"/><path d="M243.038,234.727c0.053,0.228 -0.066,0.458 -0.219,0.693c-0.492,0.764 -1.388,1.32 -2.116,1.832c-0.731,0.502 -1.583,0.855 -2.433,1.202l-0.321,0.13c-0.353,0.15 -0.704,0.294 -1.042,0.458c-1.125,0.475 -2.608,1.372 -3.616,0.235c-0.017,-0.017 -0.209,-0.259 -0.253,-0.362c0.934,0.414 2.904,-0.127 4.784,-0.97c-0.26,-0.994 -3.35,-1.455 -4.925,-1.217c0.17262,-0.4236 0.41987,-0.81277 0.73,-1.149c4.366,-0.516 5.293,1.573 5.379,1.795c1.784,-0.94 3.248,-2.02 3.272,-2.647c0,0 0.526,-0.742 0.747,-0.637l0.013,0.637M244.16,234.67c-0.054,0.227 0.051,0.506 0.204,0.746c0.49,0.76 1.347,1.32 2.075,1.832c0.728,0.502 1.582,0.853 2.435,1.2l0.316,0.133c0.35176,0.14131 0.69925,0.29305 1.042,0.455c1.127,0.478 2.608,1.372 3.616,0.238c0.017,-0.022 0.209,-0.262 0.255,-0.365c-0.939,0.414 -2.906,-0.125 -4.786,-0.968c0.263,-0.994 3.35,-1.457 4.927,-1.217c-0.165,-0.411 -0.416,-0.803 -0.73,-1.153c-4.365,-0.515 -5.293,1.574 -5.378,1.797c-1.787,-0.94 -3.263,-2.072 -3.285,-2.698c0,0 -0.484,-0.708 -0.694,-0.61l0.003,0.61" data-paper-data="{&quot;origPos&quot;:null}" fill="#9c6c40"/><path d="M215.111,174.38c1.04,-0.443 2.282,-0.036 3.292,0.94c0.453,-0.69 0.996,-1.077 1.497,-0.979c0.935,0.184 1.374,1.984 0.98,4.021c-0.15,0.777 -0.4,1.48 -0.704,2.035c-0.03846,0.24586 -0.0987,0.48781 -0.18,0.723h0.002l4.748,5.613l10.08,-3.63c0,0 -1.714,2.734 -2.136,3.73c-0.309,0.728 -0.905,3.03 -0.905,3.03c0,0 -7.36,3.01 -9.45,2.248c-2.58,-0.943 -5.544,-9.402 -5.544,-9.402c-1.113,-0.401 -2.186,-1.467 -2.81,-2.94c-0.964,-2.298 -0.46,-4.71 1.13,-5.389M259.584,187.96c3.17,4.07 4.383,16.317 4.383,16.317c0,0 -0.003,-0.02 -0.005,-0.054c0.407,0.593 0.694,1.364 0.784,2.226c0.214,2.045 -0.757,3.826 -2.177,3.98c-0.923,0.096 -1.811,-0.524 -2.374,-1.538c-0.523,0.438 -1.042,0.61 -1.414,0.412c-0.694,-0.373 -0.611,-1.9 0.185,-3.41c0.304,-0.577 0.67,-1.07 1.04,-1.437c0.033,-0.061 0.063,-0.122 0.097,-0.184c0,0 -1.378,-8.84 -2.846,-10.934c-0.738,-1.046 -1.252,-1.813 -1.42,-2.278c-0.134,-0.375 -0.243,-0.908 -0.302,-1.18c-0.472,-2.097 -3.056,-6.833 -3.056,-6.833c0,0 5.562,2.929 7.105,4.913" data-paper-data="{&quot;origPos&quot;:null}" fill="#9c6c40"/><path d="M259.889,204.275c0,0 -0.999,-8.344 -2.516,-10.658c-0.672,-1.023 -1.202,-1.834 -1.414,-2.243c-0.029,-0.057 -0.1,-0.24 -0.122,-0.314c1.743,8.751 1.536,20.897 1.536,20.897h-27.464c0,0 -0.212,-13.236 1.797,-22.021c-0.979,0.441 -7.105,3.23 -9.71,2.199c-1.79,-0.705 -5.665,-9.127 -5.665,-9.127l3.71,-1.915l4.751,5.515l8,-2.792l1.977,-0.708c1.758,-1.21 7.316,-1.41 7.316,-1.41l1.52,0.034h0.123l1.51,-0.034c0,0 5.483,0.188 7.273,1.381c-0.005,-0.005 -0.007,-0.01 -0.007,-0.01c0,0 0.962,0.485 2.215,1.164c1.702,0.925 4.21,2.671 5.286,4.148c2.613,3.578 4.074,15.894 4.074,15.894h-4.19" fill="#eeeeed"/><path d="M264.133,200.989c-6.961,-10.802 -15.493,-6.353 -19.963,-9.636c-1.242,-0.917 -1.064,-4.808 -0.353,-6.18c0.621,-1.197 3.158,-1.956 3.932,-3.68c7.567,1.614 14.842,4.459 16.384,19.496" fill="#e63250"/><path d="M239.813,181.493c0.543,2.101 3.414,2.451 4.005,3.68c0.711,1.485 -0.287,5.406 -1.59,6.405c-4.104,3.159 -14.84,2.628 -19.227,-7.636c3.058,4.166 11.823,-3.123 16.812,-2.45" fill="#e63250"/><path d="M243.292,187.22c-0.04574,0.04692 -0.10848,0.07337 -0.174,0.07337c-0.06552,0 -0.12826,-0.02646 -0.174,-0.07337l-0.01,-0.01c-0.0466,-0.0457 -0.07286,-0.10823 -0.07286,-0.1735c0,-0.06527 0.02626,-0.1278 0.07286,-0.1735l1.393,-1.403c0.0458,-0.04604 0.10806,-0.07193 0.173,-0.07193c0.06494,0 0.1272,0.02589 0.173,0.07193l0.01,0.01c0.0966,0.09745 0.0966,0.25455 0,0.352l-1.39,1.399z" fill="#f6b90c"/><path d="M244.673,187.22c-0.04574,0.04692 -0.10848,0.07337 -0.174,0.07337c-0.06552,0 -0.12826,-0.02646 -0.174,-0.07337l-1.393,-1.398c-0.09448,-0.09831 -0.09448,-0.25369 0,-0.352l0.013,-0.01c0.09631,-0.09559 0.25169,-0.09559 0.348,0l1.39,1.403c0.04692,0.04574 0.07337,0.10848 0.07337,0.174c0,0.06552 -0.02646,0.12826 -0.07337,0.174l-0.01,0.01z" fill="#f6b90c"/><path d="M224.087,184.872c0.24588,0.12088 0.50589,0.21058 0.774,0.267c2.988,5.14 12.664,10.822 18.639,3.39c0.107,0.073 0.146,0.347 0,0.523c-4.3,6.863 -15.787,3.618 -19.413,-4.18" fill="#d6aa3b"/><path d="M264.014,199.925c-8.502,-11.864 -18.616,-4.68 -20.516,-10.884c-0.09,-0.091 -0.1,-0.433 0,-0.511c1.875,5.684 12.707,-0.157 20.379,10.405c0.04905,0.32952 0.09472,0.65954 0.137,0.99" fill="#d6aa3b"/><path d="M257.361,208.311c0.631,1.891 6.123,16.687 6.016,23.946c-3.91,4.115 -34.535,4.024 -39.022,0.005c-0.93,-5.677 5.013,-22.239 5.568,-23.952h27.438" fill="#2baae2"/><path d="M258.945,212.899l0.051,0.162c-0.704,0.095 -1.106,0.345 -1.524,0.607c-0.497,0.306 -1.006,0.622 -2.012,0.662c-1.005,0.031 -1.514,-0.248 -2.008,-0.52c-0.492,-0.269 -0.955,-0.526 -1.912,-0.502c-0.956,0.023 -1.422,0.299 -1.913,0.593c-0.492,0.294 -1.001,0.597 -2.007,0.612c-1.008,0.012 -1.516,-0.267 -2.011,-0.551c-0.492,-0.284 -0.957,-0.536 -1.903,-0.536h-0.02c-0.947,0 -1.414,0.252 -1.904,0.536c-0.485,0.279 -0.984,0.551 -1.975,0.551h-0.033c-1.006,-0.015 -1.515,-0.318 -2.01,-0.612c-0.491,-0.294 -0.959,-0.571 -1.911,-0.593c-0.956,-0.027 -1.422,0.232 -1.916,0.502c-0.492,0.272 -1.003,0.551 -2.009,0.519c-1.006,-0.039 -1.514,-0.355 -2.006,-0.661c-0.433,-0.269 -0.847,-0.524 -1.585,-0.612l0.053,-0.167c0.76,0.098 1.198,0.368 1.622,0.635c0.494,0.308 0.964,0.597 1.924,0.634c0.961,0.032 1.426,-0.225 1.921,-0.495c0.489,-0.269 0.995,-0.551 2.001,-0.524c0.998,0.017 1.504,0.321 1.994,0.617c0.494,0.297 0.962,0.576 1.924,0.588c0.959,0.009 1.426,-0.247 1.921,-0.531c0.489,-0.28 0.995,-0.556 1.994,-0.556h0.014c0.991,0 1.497,0.276 1.987,0.556c0.496,0.284 0.964,0.548 1.926,0.536c0.959,-0.012 1.427,-0.294 1.921,-0.59c0.492,-0.294 0.998,-0.6 1.997,-0.62c0.998,-0.026 1.506,0.254 1.996,0.524c0.494,0.272 0.964,0.527 1.924,0.495c0.961,-0.037 1.429,-0.326 1.923,-0.634c0.414,-0.258 0.84,-0.522 1.566,-0.624M260.818,218.854c0.015,0.054 0.029,0.11 0.049,0.164c-0.784,0.174 -1.247,0.47 -1.697,0.759c-0.55,0.353 -1.123,0.72 -2.254,0.848c-1.133,0.115 -1.71,-0.13 -2.26,-0.368c-0.529,-0.227 -1.076,-0.46 -2.143,-0.376c-1.069,0.068 -1.617,0.379 -2.147,0.68c-0.553,0.316 -1.125,0.644 -2.26,0.691h-0.182c-1.018,0 -1.559,-0.267 -2.082,-0.527c-0.531,-0.267 -1.079,-0.536 -2.157,-0.531h-0.02c-1.049,0 -1.592,0.269 -2.116,0.531c-0.554,0.274 -1.127,0.558 -2.264,0.526c-1.135,-0.046 -1.707,-0.374 -2.257,-0.69c-0.533,-0.301 -1.081,-0.612 -2.148,-0.681c-1.068,-0.083 -1.614,0.15 -2.142,0.377c-0.555,0.238 -1.128,0.483 -2.262,0.368c-1.134,-0.128 -1.702,-0.495 -2.254,-0.848c-0.449,-0.289 -0.916,-0.585 -1.7,-0.761c0.01355,-0.05449 0.02889,-0.10852 0.046,-0.162c0.806,0.176 1.283,0.482 1.743,0.779c0.563,0.36 1.091,0.7 2.184,0.82c1.089,0.11 1.617,-0.115 2.175,-0.352c0.547,-0.236 1.113,-0.478 2.223,-0.39c1.105,0.071 1.67,0.394 2.215,0.703c0.56,0.321 1.089,0.622 2.184,0.667c1.091,0.031 1.622,-0.233 2.182,-0.51c0.545,-0.272 1.113,-0.551 2.223,-0.549c1.108,-0.007 1.672,0.277 2.22,0.548c0.558,0.278 1.091,0.542 2.182,0.51c1.095,-0.044 1.624,-0.346 2.184,-0.666c0.545,-0.309 1.11,-0.632 2.218,-0.703c1.108,-0.088 1.673,0.154 2.22,0.39c0.558,0.237 1.086,0.462 2.18,0.352c1.087,-0.12 1.619,-0.46 2.177,-0.82c0.462,-0.297 0.937,-0.6 1.74,-0.779M262.473,225.256c0.01,0.054 0.024,0.113 0.034,0.166c-0.835,0.236 -1.334,0.562 -1.816,0.88c-0.604,0.394 -1.224,0.804 -2.464,1.004c-1.242,0.181 -1.87,-0.034 -2.474,-0.242c-0.575,-0.199 -1.172,-0.405 -2.332,-0.275c-1.162,0.111 -1.76,0.439 -2.34,0.757c-0.606,0.33 -1.232,0.676 -2.476,0.75c-0.108,0.004 -0.207,0.007 -0.304,0.007c-1.05,0 -1.622,-0.255 -2.18,-0.505c-0.567,-0.252 -1.156,-0.516 -2.282,-0.516h-0.06c-1.164,-0.008 -1.76,0.259 -2.34,0.516c-0.606,0.27 -1.234,0.551 -2.481,0.498c-1.247,-0.074 -1.875,-0.42 -2.479,-0.75c-0.58,-0.318 -1.176,-0.647 -2.34,-0.757c-1.158,-0.129 -1.755,0.076 -2.332,0.275c-0.606,0.208 -1.229,0.423 -2.469,0.242c-1.242,-0.201 -1.865,-0.61 -2.464,-1.004c-0.506,-0.333 -1.027,-0.676 -1.931,-0.908c0.01,-0.057 0.022,-0.111 0.034,-0.169c0.933,0.242 1.469,0.593 1.987,0.933c0.616,0.404 1.196,0.786 2.399,0.982c1.2,0.174 1.777,-0.025 2.39,-0.235c0.594,-0.206 1.208,-0.419 2.406,-0.285c1.193,0.114 1.807,0.449 2.401,0.774c0.616,0.34 1.2,0.662 2.408,0.73c1.205,0.054 1.787,-0.206 2.4,-0.48c0.585,-0.261 1.191,-0.531 2.355,-0.531h0.119c1.159,0 1.763,0.269 2.35,0.531c0.613,0.274 1.198,0.534 2.403,0.48c1.207,-0.068 1.789,-0.39 2.405,-0.73c0.592,-0.325 1.206,-0.661 2.403,-0.774c1.198,-0.135 1.812,0.079 2.406,0.285c0.614,0.21 1.191,0.409 2.391,0.235c1.203,-0.196 1.782,-0.578 2.396,-0.982c0.499,-0.329 1.013,-0.662 1.877,-0.902" fill="#1a5f77"/><path d="M242.1,183.04c-0.922,0 -1.67,-1.988 -1.67,-2.9h6.56c0,0.912 -0.748,2.9 -1.67,2.9h-3.22" data-paper-data="{&quot;origPos&quot;:null}" fill="#9c6c40"/><path d="M241.138,182.287c-0.36547,-0.58417 -0.60144,-1.2399 -0.692,-1.923c2.16214,0.3557 4.36853,0.34759 6.528,-0.024l-0.007,0.012l-5.829,1.935" fill="#e2a86e"/><path d="M263.134,163.778c1.008,0.654 1.673,1.767 1.673,3.027c0,2.014 -1.688,3.644 -3.764,3.644c-0.061,0 -0.118,-0.002 -0.178,-0.004c-3.365,6.07 -9.82,10.18 -17.224,10.18c-7.414,0 -13.871,-4.117 -17.238,-10.2c-0.139,0.014 -0.278,0.024 -0.421,0.024c-2.077,0 -3.764,-1.631 -3.764,-3.643c0,-1.357 0.771,-2.543 1.908,-3.17c-0.131,-0.928 -0.202,-1.876 -0.202,-2.843c0,-10.949 8.827,-19.827 19.717,-19.827c10.889,0 19.715,8.877 19.715,19.827c0,1.014 -0.076,2.013 -0.222,2.985" data-paper-data="{&quot;origPos&quot;:null}" fill="#9c6c40"/><g data-paper-data="{&quot;origPos&quot;:null}"><path d="M239.033,158.396c0,0 -0.426,1.526 -1.762,1.224c-0.653,-0.147 -0.768,-1.017 -2.865,-0.627c-0.66,0.153 -2.045,0.979 -2.312,1.53c-0.268,0.552 -0.074,-2.023 2.079,-2.98c1.553,-0.57 2.08,-0.543 3.365,-0.543c1.286,0 1.682,0.768 1.495,1.396M247.967,158.396c0,0 0.426,1.526 1.762,1.224c0.653,-0.147 0.768,-1.017 2.865,-0.627c0.66,0.153 2.045,0.979 2.312,1.53c0.268,0.552 0.074,-2.023 -2.079,-2.98c-1.553,-0.57 -2.08,-0.543 -3.365,-0.543c-1.286,0 -1.682,0.768 -1.495,1.396M237.308,165.1c0,1.491 -0.792,2.7 -1.77,2.7c-0.977,0 -1.769,-1.209 -1.769,-2.7c0,-1.491 0.792,-2.7 1.77,-2.7c0.977,0 1.769,1.209 1.769,2.7M253.23,165.1c0,1.491 -0.791,2.7 -1.768,2.7c-0.978,0 -1.77,-1.209 -1.77,-2.7c0,-1.491 0.792,-2.7 1.77,-2.7c0.977,0 1.769,1.209 1.769,2.7" fill="#2c2c2d"/><path d="M240.846,167.8c0,0 0.184,-0.938 0.446,-1.208c0.708,-1.075 2.204,-1.492 2.204,-1.492c0,0 1.924,0.654 2.347,1.478c0.392,0.765 0.302,1.151 0.302,1.151c0,0 -1.88,-1.74 -2.623,-1.634c-0.997,0.141 -2.676,1.705 -2.676,1.705z" fill="#683918"/><path d="M237.484,170.226c0,0 6.102,2.888 11.654,-0.357c0,0 -1.23,4.922 -5.264,5.005c-3.64,0.11 -4.408,-1.343 -4.845,-1.76c-0.436,-0.417 -1.257,-1.595 -1.545,-2.888" fill="#683918"/></g><path d="M264.133,158.207c0.032,2.329 -0.998,5.569 -0.998,5.569c0,0 -5.238,-6.232 -8.43,-7.981c-3.905,-2.135 -5.848,1.012 -9.337,-1.758c-0.579,-0.463 -1.659,-1.678 -1.659,-1.678c0,0 -1.312,1.333 -1.66,1.678c-3.923,3.859 -6.863,-0.649 -10.163,1.685c-4.205,2.968 -7.756,7.912 -7.756,7.912c0,0 -1.223,-1.403 -1.05,-5.644c0.046,-1.22 0.635,-3.929 1.595,-6.684c3.469,-7.004 10.659,-11.816 18.966,-11.816c9.54,0 17.609,6.35 20.255,15.077c0.13581,1.2093 0.2149,2.4243 0.237,3.641" fill="#343434"/><path d="M230.012,144.012c4.152,-19.646 5.342,-26.074 21.882,-22.54c16.383,3.504 15.069,9.724 10.871,29.583c-0.158,0.76 -32.913,-6.274 -32.753,-7.043" fill="#594a43"/><path d="M267.266,153.515c-0.10907,0.52935 -0.42484,0.99332 -0.87726,1.28899c-0.45243,0.29567 -1.00412,0.39862 -1.53274,0.28601l-38.253,-8.177c-1.10121,-0.24007 -1.80179,-1.32444 -1.568,-2.427c0.11056,-0.52933 0.42695,-0.99303 0.87953,-1.28899c0.45257,-0.29596 1.00422,-0.39993 1.53347,-0.28901l38.253,8.18c0.52951,0.11407 0.99196,0.43393 1.2855,0.88915c0.29354,0.45522 0.39409,1.00845 0.2795,1.53785" fill="#473931"/><path d="M265.702,151.089c0.56774,0.12341 1.05618,0.48249 1.34335,0.98756c0.28717,0.50507 0.34594,1.10844 0.16165,1.65944l-42.207,-9.025c0.01,-0.073 0.019,-0.149 0.036,-0.225c0.1103,-0.52942 0.42668,-0.99321 0.87937,-1.28905c0.45268,-0.29585 1.00447,-0.39945 1.53363,-0.28795l38.253,8.18" fill="#deb85f"/></g></g></svg>