<svg xmlns="http://www.w3.org/2000/svg" width="73.005" height="117.678"><g fill-rule="evenodd" stroke-miterlimit="10" data-paper-data="{&quot;isPaintingLayer&quot;:true}" style="mix-blend-mode:normal"><path fill="#303030" d="M73.004 93.34c.092 11.708-9.305 21.278-20.995 21.37-11.685.095-21.236-9.323-21.328-21.032-.095-11.712 9.306-21.282 20.99-21.374 11.69-.095 21.24 9.328 21.333 21.037"/><path fill="#d6d8d6" d="M64.543 93.408c.055 7.027-5.585 12.769-12.603 12.827-7.017.055-12.747-5.597-12.8-12.626-.057-7.036 5.583-12.777 12.598-12.833 7.017-.055 12.75 5.596 12.805 12.632"/><path fill="#303030" d="M54.442 93.487a2.609 2.609 0 0 1-2.581 2.63 2.606 2.606 0 0 1-2.621-2.586 2.604 2.604 0 0 1 4.427-1.88c.492.484.771 1.145.775 1.836"/><path fill="#9b9a9a" d="M52.511 89.622a.701.701 0 1 1-.708-.7c.388 0 .703.313.707.7m.061 7.793a.7.7 0 1 1-1.4.012.708.708 0 0 1 .695-.713.707.707 0 0 1 .705.7m-3.92-3.868a.701.701 0 1 1-1.4.01c0-.384.308-.698.693-.703a.702.702 0 0 1 .707.693m.49-1.925a.703.703 0 0 1-1.193.506.693.693 0 0 1-.205-.494.7.7 0 0 1 .689-.713.71.71 0 0 1 .71.7m1.403-1.428a.703.703 0 0 1-.698.707.696.696 0 0 1-.7-.695.704.704 0 0 1 .688-.713.71.71 0 0 1 .71.7m5.886 3.292a.705.705 0 0 1-.696.71.702.702 0 0 1-.01-1.404.699.699 0 0 1 .705.693m-1.921-1.904c.005.388.32.7.708.697a.702.702 0 0 0 .69-.708.702.702 0 0 0-.702-.7.705.705 0 0 0-.696.71m-1.425-1.405c.004.388.32.7.707.697a.7.7 0 0 0 .69-.708.7.7 0 0 0-.702-.7.705.705 0 0 0-.695.71m-3.913 5.297a.704.704 0 0 0-.708-.7.702.702 0 0 0-.483 1.202c.132.13.31.201.495.199a.695.695 0 0 0 .695-.7m1.426 1.4a.702.702 0 1 0-1.402.013.702.702 0 0 0 1.402-.012m3.945-1.445a.706.706 0 0 1 .696-.71.7.7 0 0 1 .7.699.694.694 0 0 1-.689.7.697.697 0 0 1-.707-.69m-1.403 1.426c0-.386.31-.7.695-.706a.7.7 0 0 1 .009 1.397.698.698 0 0 1-.704-.691"/><path fill="#005784" d="M51.615 57.466c3.713 4.675 5.235 18.819 5.235 18.819s-.005-.02-.007-.065c.479.68.82 1.574.933 2.566.27 2.364-.843 4.43-2.49 4.62-1.07.125-2.103-.588-2.768-1.753-.604.51-1.205.713-1.64.487-.808-.418-.728-2.188.187-3.942a6.76 6.76 0 0 1 1.19-1.668c.037-.074.074-.141.109-.215 0 0-1.672-10.212-3.397-12.616-.869-1.2-1.426-1.874-1.622-2.412-.161-.43-.338-1.257-.412-1.562-.569-2.425-3.609-7.876-3.609-7.876s6.488 3.334 8.291 5.617M1.853 42.098c1.2-.521 2.648-.062 3.827 1.055.523-.805 1.145-1.253 1.727-1.142 1.092.196 1.613 2.277 1.175 4.633-.164.898-.447 1.713-.797 2.359-.046.298-.11.577-.205.835l5.564 6.448 11.663-4.29s-1.965 3.17-2.441 4.332c-.355.846-1.023 3.512-1.023 3.512s-8.514 3.547-10.946 2.687c-3.006-1.07-6.522-10.82-6.522-10.82l.007-.003c-1.3-.45-2.557-1.673-3.29-3.367-1.144-2.651-.58-5.444 1.26-6.24"/><path fill="#f08314" d="M51.934 75.849s-1.374-9.75-3.097-12.16c-.088-.122-.175-.242-.253-.358.317 9.61-1.91 21.898-1.91 21.898l-24.918.199S18.874 70.605 20.16 60.31c-.585.27-7.532 3.086-9.862 2.26-3.001-1.064-7.494-10.325-7.494-10.325l4.765-2.4 5.61 6.425 10.569-4.237c2.077-1.387 8.413-1.657 8.413-1.657l1.761.037h.15l1.76-.067s6.317.152 8.431 1.498c.855.464 5.58 3.08 7.223 5.148 3.714 4.678 5.43 18.819 5.43 18.819l-4.982.037"/><path fill="#fff" d="M52.33 75.844s-1.384-10.21-3.104-12.616c-.088-.123-.177-.245-.253-.358.009.35.023.713.024 1.07-.047-.094-.107-.172-.16-.251-.088-.122-.175-.242-.254-.358.238 7.115-.925 15.7-1.545 19.676l-25.234.025c-.723-4.35-2.257-15.148-1.26-23.19-.585.277-7.524 3.092-9.852 2.269-2.741-.972-6.7-8.726-7.395-10.113l2.445-1.232c1.541 2.852 4.565 8.107 6 8.202 1.971.138 8.235-2.402 11.008-3.102 5.861-1.472 22.194-.92 24.164-.22 4.981 1.75 6.812 8.91 7.581 20.186l-2.164.012"/><path fill="#0771b7" d="M51.934 75.849s-1.374-9.75-3.097-12.16c-.088-.122-.175-.242-.253-.358.246 7.406-1.018 16.406-1.615 20.142l-25.561.02c-.716-4.345-2.253-15.145-1.248-23.183-.585.27-7.532 3.086-9.862 2.26-3.001-1.064-7.494-10.325-7.494-10.325l2.434-1.223c1.504 2.795 4.643 8.31 6.118 8.409 1.973.139 8.235-2.402 11.01-3.103 5.856-1.477 22.191-.914 24.161-.222 4.975 1.754 6.805 8.455 7.579 19.728l-2.172.014"/><path fill="#565657" d="M4.909 56.147c-1.23-2.102-2.105-3.9-2.105-3.9l4.765-2.4 2.94 3.365-5.6 2.935m47.025 19.7s-.257-1.831-.69-4.1l4.905-.814c.521 2.813.767 4.878.767 4.878l-4.982.037"/><path fill="#e63744" d="m32.372 64.098-9.963.078s-.66-2.97-.027-3.611c1.745-1.784 9.96-.08 9.96-.08z"/><path fill="#2baae2" d="m46.845 68.977-10.163.08-.019-2.23s8.35-1.872 10.163-.081c.399.39.019 2.23.019 2.23"/><path fill="#f7b90b" d="m46.845 68.977-10.163.08-.005-.46 10.246-.081zm-14.109-.81-10.559.084-.023-2.624 10.56-.083z"/><path fill="#f08314" d="M33.711 66.91a2.167 2.167 0 0 1-2.15 2.188 2.17 2.17 0 0 1-2.178-2.15 2.164 2.164 0 0 1 4.327-.037m5.571-4.07-.12-.39c-.034-.111-.064-.25-.099-.358h-.004c-.028.108-.053.247-.08.36l-.11.392zm-.467.32-.132.48-.435.003.555-1.865.548-.005.592 1.856-.454.004-.145-.477-.53.004zm1.79.164c.046.01.092.007.163.007.19 0 .355-.074.355-.272-.002-.19-.17-.26-.375-.26l-.148.003zm-.007-.824.136-.002c.22 0 .336-.095.336-.233-.002-.136-.108-.215-.302-.213-.087 0-.138.012-.175.017zm-.424-.708a3.06 3.06 0 0 1 .546-.05c.253-.001.412.027.548.103a.417.417 0 0 1 .226.37c0 .163-.095.317-.302.398v.005c.212.055.37.212.373.454a.49.49 0 0 1-.191.395c-.138.11-.36.168-.728.173-.205 0-.366-.007-.456-.023zm3.04 1.757c-.072.04-.247.079-.47.08-.64.006-.981-.387-.986-.913-.004-.64.45-.994 1.009-1a1.1 1.1 0 0 1 .458.08l-.083.336a.838.838 0 0 0-.357-.071c-.327.002-.585.21-.582.623.004.37.225.607.598.605.127 0 .268-.03.35-.067zm1.275.713-1.094-1.833 1.064-1.846 2.149-.016 1.091 1.828-1.061 1.848z"/><path fill="#c12636" d="m15.432 55.365 2.133-.86 1.763 3.74-2.07.985zm33.782 5.318-1.189-1.97 3.254-1.964c.071.078.14.159.205.242.374.474.728 1.04 1.06 1.674z"/><path fill="#565657" d="M44.708 111.532c1.822 1.105 3.146 3.452 1.615 5.324-1.159 1.32-2.884.332-4.196-.203-1.451-.681-3.105-1.131-4.42-2.017-.847-.582-1.85-1.286-2.427-2.167-.178-.27-.263-.598-.2-.86zm-20.572.165c-1.798 1.13-3.095 3.503-1.531 5.346 1.179 1.304 2.89.287 4.194-.27 1.441-.701 3.083-1.181 4.387-2.086.84-.595 1.826-1.313 2.393-2.204.172-.272.25-.602.188-.863l-9.63.076z"/><path fill="#0771b7" d="m46.674 85.23-1.76 26.363-9.965.079-.534-19.05-.288.002-.228 19.057-9.97.078-2.174-26.33z"/><path fill="#fff" d="m22.275 85.405 4.468-.034s2.409 17.259 1.574 21.062c-.252 1.129-4.66 2.167-4.66 2.167zm18.142 20.939c-.942-5.25 1.24-21.095 1.24-21.095l4.49-.035-1.011 23.22s-4.512-.948-4.719-2.09"/><path fill="#f08314" d="m21.754 85.41 4.46-.036s2.411 17.262 1.577 21.063c-.249 1.128-4.134 2.03-4.134 2.03zm19.189 20.93c-.946-5.25 1.237-21.093 1.237-21.093l4.493-.034-1.54 23.093s-3.987-.824-4.19-1.966"/><path fill="#565657" d="M21.75 85.41c-.019-.131-.302-1.578-.645-3.88l26.185-.206c-.331 2.308-.598 3.756-.617 3.888l-24.923.198"/><path fill="#be9969" d="M56.502 29.53c1.177.748.051 7.715-2.36 7.735-.069 0-.141 0-.205-.004-3.858 7.052-11.306 11.857-19.896 11.928-8.602.067-16.136-4.624-20.096-11.631a4.588 4.588 0 0 1-.484.028c-2.416.02-3.537-7.117-2.222-7.855a23.143 23.143 0 0 1-.258-3.282C10.879 13.787 21.04 3.446 33.677 3.345c12.632-.1 22.957 10.077 23.055 22.74a22.762 22.762 0 0 1-.23 3.445" data-paper-data="{&quot;origPos&quot;:null}"/><path fill="#61441a" d="M29.282 25.477s-.503 1.803-2.082 1.446c-.772-.174-.908-1.201-3.386-.74-.779.18-2.417 1.156-2.732 1.808-.316.652-.088-2.392 2.457-3.522 1.835-.675 2.457-.642 3.977-.642s1.987.907 1.766 1.65m9.741 0s.503 1.803 2.082 1.446c.772-.174.908-1.201 3.386-.74.779.18 2.417 1.156 2.732 1.808.316.652.087-2.392-2.457-3.522-1.835-.675-2.457-.642-3.977-.642s-1.987.907-1.766 1.65M26.971 32.827c0 1.657-.895 3-2 3s-2-1.343-2-3 .895-3 2-3 2 1.343 2 3m18 0c0 1.657-.895 3-2 3s-2-1.343-2-3 .895-3 2-3 2 1.343 2 3" data-paper-data="{&quot;origPos&quot;:null}"/><path fill="#eeac6c" d="M33.991 35.896c-1.125.153-3.02 1.834-3.02 1.834s.207-1.01.503-1.3c.8-1.155 2.487-1.603 2.487-1.603s2.173.703 2.65 1.588c.443.824.34 1.238.34 1.238s-2.121-1.871-2.96-1.756zM27.171 39.523s6.897 3.208 13.172-.397c0 0-1.39 5.47-5.95 5.56-4.115.123-4.984-1.491-5.477-1.955-.492-.463-1.42-1.772-1.745-3.208"/><path fill="#eeac6c" d="M33.996 47.085c-7.648.06-7.708-7.548-7.708-7.548 7.65 2.37 15.298-.12 15.298-.12s.06 7.608-7.59 7.668m-.085-10.238c.451-.006.9-.064 1.338-.173 1.204-.306 1.992-.888 2.024-.916l-.272-.367c-.03.023-2.989 2.19-6.022.049l-.263.37c1.129.802 2.245 1.044 3.195 1.037"/><path fill="#333433" d="M57.619 23.089c.051 2.69-.838 8.525-2.644 12.012 0 0-4.601-12.725-8.321-14.712-4.546-2.44-16.464 1.218-20.536-1.952-.677-.524-.61-1.73-.61-1.73s-.763 1.538-1.133 1.974c-1.944 2.248-7.008 5.528-9.408 7.288-1.923 1.415-2.018 1.399-1.525 9.462 0 0-3.625-7.311-3.47-12.21.046-1.42.707-4.553 1.791-7.745C15.729 7.348 24.025 1.72 33.667 1.64c11.067-.087 20.488 7.176 23.643 17.237.167 1.398.27 2.803.31 4.21"/><path fill="#565657" d="M31.309 52.893c-.405-.146-.748-.338-.978-.568-.611-.603-.028-3.413-.028-3.413 1.244.195 2.502.288 3.761.277a22.774 22.774 0 0 0 3.784-.344s.552 2.748.027 3.42c-.036.037-.073.083-.115.118l.012.023-.129.092a2.272 2.272 0 0 1-.336.22z"/><path fill="#005784" d="M43.741 37.386s5.675-1.38 6.582-2.936c1.433-2.466-1.091-11.36-1.091-11.36l-30.49.242s-2.732 8.87-1.35 11.379c.795 1.45 5.956 2.837 5.956 2.837l10.592-3.912 9.801 3.75M33.504 0c13.832-.11 25.137 12.426 25.26 27.988.124 15.57-19.613 28.35-24.813 28.389-5.557.046-25.135-12.42-25.26-27.99C8.569 12.823 19.677.112 33.504 0"/><path fill="#02405a" d="M53.691 23.053s2.061 10.464.088 12.944c-6.163 7.768-32.538 7.276-39.592.316-2.257-2.222-.104-12.944-.104-12.944l4.623-.037s-2.699 8.876-1.315 11.38c.799 1.449 5.955 2.836 5.955 2.836s7.773-3.932 10.594-3.912c2.623.016 9.802 3.75 9.802 3.75s5.67-1.38 6.582-2.937c1.432-2.46-1.069-11.36-1.069-11.36l4.436-.036"/><path fill="#f08314" d="M32.023 52.868c.093 0 .187-.003.28-.011l-.01-.132c-2.397.183-5.829-1.846-9.935-5.866-3.109-3.04-5.533-6.178-5.553-6.212l-.105.08c.025.033 2.452 3.17 5.57 6.227 1.829 1.795 3.533 3.2 5.069 4.19 1.805 1.157 3.379 1.736 4.685 1.724m4.268-.034c-.094 0-.189.003-.283-.007l.012-.131c2.402.14 5.794-1.941 9.836-6.023 3.061-3.09 5.438-6.268 5.458-6.3l.104.078c-.023.03-2.4 3.21-5.465 6.314-1.802 1.823-3.487 3.256-5.012 4.269-1.782 1.187-3.346 1.789-4.65 1.8"/><path fill="#67b1d2" d="M52.67 9.527c2.484 3.034 7.768 17.346 4.254 15.616-13.862-6.817-35.205-6.406-46.63.616C6.95 27.813 11.487 12.63 14.24 9.834 23.279.627 44.487-.453 52.67 9.527"/><path fill="#eeeeed" d="M12.461 21.04c1.46-14.404 11.225-15.676 21.39-15.673-9.561 1.587-16.45 5.127-21.39 15.674"/><path fill="#f08314" d="M11.116 26.855c.01 1.15-.483 2.088-1.1 2.093-.618.007-1.124-.925-1.136-2.077-.009-1.154.484-2.088 1.103-2.093.615-.007 1.124.923 1.133 2.077m47.415-.378c.009 1.15-.486 2.09-1.103 2.095-.618.004-1.127-.926-1.136-2.077-.009-1.154.484-2.09 1.101-2.096.62-.004 1.129.924 1.138 2.077"/></g></svg>