<svg xmlns="http://www.w3.org/2000/svg" width="87.696" height="111.889"><g fill-rule="evenodd" stroke-miterlimit="10" data-paper-data="{&quot;isPaintingLayer&quot;:true}" style="mix-blend-mode:normal"><path fill="#9e6d3f" d="M77.298 55.959c3.451 4.39 4.775 17.59 4.775 17.59v-.059c.444.637.757 1.465.853 2.392.232 2.208-.828 4.127-2.374 4.287-1.01.116-1.974-.557-2.583-1.648-.575.468-1.146.658-1.553.441-.758-.4-.668-2.044.203-3.673a6.41 6.41 0 0 1 1.136-1.548c.03-.072.067-.135.107-.201 0 0-1.507-9.525-3.112-11.78-.8-1.129-1.326-1.767-1.506-2.27-.145-.4-.3-1.164-.371-1.456-.52-2.265-3.336-7.369-3.336-7.369s6.074 3.156 7.76 5.294M30.604 41.264c1.127-.475 2.489-.04 3.587 1.01.495-.74 1.085-1.155 1.637-1.05 1.018.195 1.5 2.135 1.07 4.33-.163.838-.436 1.594-.773 2.194-.035.267-.1.528-.195.78l5.19 6.047 11.002-3.91s-1.873 2.945-2.334 4.02c-.333.781-.991 3.26-.991 3.26s-8.029 3.251-10.311 2.424c-2.816-1.01-6.05-10.13-6.05-10.13-1.214-.43-2.393-1.582-3.064-3.174-1.052-2.472-.503-5.065 1.232-5.8" data-paper-data="{&quot;origPos&quot;:null}"/><path fill="#cd9363" d="M3.153 84.343h25.23v21.194H3.154z"/><path fill="#a26a3f" d="M3.154 84.344h25.23v7.699c-1.428-6.497-19.102-7.759-25.23-7.007z"/><path fill="#7f4a1a" d="M6.827 100.969c-.03.587-.096 2.092.104 2.705.48.014.841.055.841.107 0 .064-.497.108-1.111.108-.618 0-1.114-.044-1.114-.108 0-.052.36-.093.846-.107.161-.608.122-2.118.096-2.715a2.204 2.204 0 0 1-2.049-2.194h4.44a2.216 2.216 0 0 1-2.053 2.204m6.463 2.097c.091.169-.125.638-.68.631-.67-.01-.606-2.158-.56-2.968H9.995c0-1.229.993-2.208 2.223-2.208 1.228 0 2.226.978 2.226 2.208h-2.09c-.031.711-.069 2.447.361 2.544.194.042.184-.226.184-.226z"/><path fill="#cd9363" d="M9.448 74.416h18.935v9.929H9.448z"/><path fill="#a26a3f" d="M28.382 74.417v5.806c-1.072-4.869-14.241-5.84-18.936-5.293v-.513z"/><path fill="#7f4a1a" d="M11.814 81.794c-.021.34-.057 1.218.048 1.572.293.009.498.034.498.057 0 .038-.293.068-.654.068-.349 0-.64-.03-.64-.068 0-.023.211-.047.494-.057.096-.354.069-1.232.057-1.572a1.284 1.284 0 0 1-1.191-1.28h2.575a1.28 1.28 0 0 1-1.188 1.28m3.752 1.221c.048.101-.077.363-.402.363-.386-.003-.358-1.25-.321-1.721h-1.199a1.29 1.29 0 0 1 1.29-1.284c.718 0 1.292.575 1.292 1.284h-1.207c-.023.418-.04 1.417.21 1.475.109.02.103-.13.103-.13z"/><path fill="#d0d0d0" d="M35.446 43.913a1.2 1.2 0 0 1 1.204 1.195 1.2 1.2 0 0 1-1.204 1.188h-4.664v59.945c0 .663-.537 1.197-1.195 1.197a1.199 1.199 0 0 1-1.204-1.197V45.108c0-.665.538-1.195 1.203-1.195h5.86"/><path fill="#d0d0d0" d="M28.566 106.736a1.2 1.2 0 0 1-1.199 1.195H1.207c-.667 0-1.207-.54-1.207-1.195 0-.662.54-1.197 1.207-1.197h26.159c.664 0 1.2.535 1.2 1.197"/><path fill="#333433" d="M23.512 105.151c0-3.673 2.992-6.644 6.69-6.644 3.694 0 6.69 2.971 6.69 6.644 0 3.669-2.996 6.642-6.69 6.642-3.698 0-6.69-2.973-6.69-6.642"/><path fill="#eeeeed" d="M26.232 105.151c0-2.181 1.772-3.94 3.97-3.94a3.946 3.946 0 0 1 3.967 3.94 3.95 3.95 0 0 1-3.967 3.943c-2.198 0-3.97-1.767-3.97-3.943"/><path fill="#333433" d="M29.504 105.151a.698.698 0 0 1 1.398 0 .7.7 0 0 1-1.398 0"/><path fill="#9e6d3f" d="M36.961 45.275c-.311 2.098-1.358 3.684-2.337 3.532-.97-.144-1.504-1.959-1.192-4.05.314-2.098 1.358-3.683 2.341-3.542.965.152 1.502 1.962 1.188 4.06" data-paper-data="{&quot;origPos&quot;:null}"/><path fill="#333433" d="M61.335 106.314c-.06.245.02.553.18.812.54.819 1.474 1.48 2.27 2.035 1.23.83 2.786 1.263 4.134 1.905 1.236.513 2.853 1.442 3.949.218 1.453-1.732.222-3.927-1.477-4.97zm-1.24 0c.061.245-.014.553-.18.812-.536.819-1.473 1.48-2.263 2.035-1.236.83-2.785 1.263-4.142 1.905-1.232.513-2.852 1.442-3.952.218-1.453-1.732-.223-3.927 1.477-4.97z"/><path fill="#ad6921" d="m72.431 81.811-1.844 24.569h-9.374l-.363-17.775h-.266l-.362 17.775h-9.366l-1.862-24.569z"/><path fill="#d7a97e" d="M42.514 53.762s2.282-1.043 10.032-3.336c2.148-1.028 6.504-1.268 6.504-1.268l1.651.053h.138l1.65-.019s4.935.194 6.893 1.39v.007c7.603 2.91 9.83 7.65 9.83 7.65-.777 3.06-5.15 3.06-5.15 3.06l-.425-.625c1.896 9.293 2.133 21.128 2.133 21.128H45.772s.289-14.261 2.737-23.746l-4.692 1.858s-2.084-3.572-1.303-6.152"/><path fill="#7f4a1a" d="M71.071 60.156c.012.009.012.026 0 .038l-.008.055-.042.237c0 .046-.04.079-.088.079h-.002a.53.53 0 0 1-.447.28h-.025a.449.449 0 0 1-.396.27.283.283 0 0 1-.287-.27h-2.409a.428.428 0 0 1-.377.27.286.286 0 0 1-.29-.277c-.232-.01-.417-.019-.433-.046-.063-.094-.027-.281-.007-.404v-.012h.007c0-.009.004-.011.004-.023.104-.231.783-.766.956-1.026.041-.056.083-.114.14-.176 0-.012.006-.017.018-.017v-.002c.009-.009.011-.009.011-.019v-.008c.017 0 .017-.004.017-.008h.004c.008-.007.008-.013.012-.021h.003c0-.007.012-.01.02-.01v-.01c.003 0 .007-.008.007-.014.016-.011.033-.026.044-.032v-.004c.18-.175.429-.342.693-.342h2.681c.211 0 .351.158.34.367.003 0 .003 0 0 .007v.046l-.012.067-.174.967c0 .004.012.004.012.007.017 0 .017.008.02.016h.008v.015m-.011 1.33a.128.128 0 0 0-.128-.128H66.39a.126.126 0 0 0-.13.128v.028a.127.127 0 0 0 .13.127h4.542a.13.13 0 0 0 .128-.127zm.424.374a.128.128 0 0 0-.13-.127h-4.547a.132.132 0 0 0-.127.128v.02c0 .07.057.127.127.128h4.547a.126.126 0 0 0 .13-.128z"/><path fill="#d6843b" d="m71.307 76.392 16.389 3.266-5.272 26.102-16.397-3.264z"/><path fill="#e1e1e1" d="m72.117 77.611 14.351 2.858-4.595 22.753-14.348-2.86z"/><path fill="#b2b2b2" d="M79.493 77.215c-.421-.086-.815.138-.909.501l1.552.312c.057-.371-.22-.726-.643-.813zm-4.249-.168 2.929.587c.128-.568.746-.92 1.398-.79.647.129 1.082.692.982 1.269l2.894.572-.34 1.674-8.203-1.631.34-1.68z"/><path fill="#6e6e6d" d="m81.315 81.831-8.481-1.767.078-.414 8.489 1.761zm-4.451-.048-4.21-.88.094-.414 4.208.872zm7.696 2.533-12.097-2.514.087-.416 12.101 2.508zm-.488.833-11.798-2.453.096-.414 11.794 2.447zm.127.898-12.089-2.51.079-.414 12.092 2.504z"/><path fill="#9e6d3f" d="M82.927 75.899c.229 2.199-.83 4.11-2.367 4.27-1.008.116-1.968-.557-2.58-1.647-.578.467-1.142.657-1.548.441-.75-.398-.662-2.032.207-3.66a6.181 6.181 0 0 1 1.133-1.541c.034-.066.091-.161.12-.226l4.187.004c.448.636.75 1.438.848 2.36M64.514 49.341c-1.066-.11-1.858-.14-1.858-.14l-1.655.061h-.143l-1.651-.089s-.867.043-2.011.18l3.727 3.823zm17.583-19.384c1.102.705 1.829 1.898 1.829 3.264 0 2.17-1.84 3.924-4.102 3.924h-.2a21.523 21.523 0 0 1-18.807 10.971A21.533 21.533 0 0 1 42.01 37.121a4.56 4.56 0 0 1-.455.023c-2.268 0-4.11-1.754-4.11-3.924 0-1.464.838-2.734 2.079-3.408a21.496 21.496 0 0 1-.221-3.072c0-11.803 9.636-21.368 21.514-21.368 11.891 0 21.525 9.565 21.525 21.368 0 1.098-.09 2.169-.245 3.216" data-paper-data="{&quot;origPos&quot;:null}"/><path fill="#333433" d="M83.196 23.958c.036 2.507-.85 7.938-2.577 11.178 0 0-4.233-11.898-7.713-13.782-4.265-2.301-15.5 1.02-19.307-1.966-.629-.495-.562-1.62-.562-1.62s-.73 1.429-1.07 1.834c-1.853 2.084-6.63 5.107-8.913 6.72-1.821 1.307-1.905 1.292-1.501 8.814 0 0-3.358-6.846-3.168-11.412.051-1.318.694-4.242 1.744-7.21a23.107 23.107 0 0 1 20.7-12.728c10.412 0 19.212 6.838 22.107 16.243.15 1.305.236 2.617.26 3.93"/><path fill="#9e6d3f" d="M59.144 50.567c-1.004 0-1.816-2.147-1.816-3.124h7.15c0 .977-.805 3.123-1.819 3.123h-3.515" data-paper-data="{&quot;origPos&quot;:null}"/><path fill="#9e6d3f" d="M58.096 49.906a5.163 5.163 0 0 1-.757-2.075 21.71 21.71 0 0 0 7.132-.022l-.017.013-6.358 2.084" data-paper-data="{&quot;origPos&quot;:null}"/><path fill="#ad6921" d="M65.034 48.212s1.216 1.078 1.333 1.39c.115.308-3.928 6.067-3.713 5.221.203-.838-1.783-1.662-1.783-1.662z"/><path fill="#7f4a1a" d="M60.917 53.15c.282.121 1.96.88 1.759 1.687v.038c.181-.06 1.308-1.54 2.408-3.156.901-1.34 1.284-2.026 1.255-2.103-.11-.285-1.138-1.21-1.307-1.367l-4.115 4.9zm1.709 1.77c-.017-.017-.017-.051 0-.104.191-.806-1.754-1.617-1.768-1.628l-.042-.012 4.209-5.01.023.017c.048.046 1.224 1.092 1.34 1.402.08.21-1.164 2.035-1.547 2.594-.076.112-1.917 2.758-2.183 2.758a.045.045 0 0 1-.032-.017z"/><path fill="#ad6921" d="M60.936 53.161s-1.99.824-1.781 1.662c.214.846-3.834-4.913-3.71-5.221.117-.312 1.334-1.39 1.334-1.39z"/><path fill="#7f4a1a" d="M60.889 53.149c-.285.124-1.957.88-1.764 1.688.004.02.004.032.004.038-.182-.059-1.303-1.539-2.402-3.154-.904-1.342-1.281-2.022-1.26-2.106.112-.285 1.138-1.21 1.312-1.366zm-1.745 1.791a.059.059 0 0 0 .042-.02c.01-.017.01-.051 0-.104-.197-.806 1.743-1.617 1.764-1.629l.038-.011-4.201-5.01-.033.017c-.042.045-1.222 1.092-1.337 1.402-.082.209 1.167 2.046 1.556 2.603.084.112 1.913 2.752 2.171 2.752zM38.938 20.694s7.771-6.9 21.747-6.9c11.511 0 22.173 6.9 22.173 6.9-4.255 10.305-39.996 10.182-43.92 0"/><path fill="#ad6921" d="M38.886 20.712C36.646 18.484 44.135 0 61.094 0c16.437 0 24.2 18.303 21.763 20.712-22.826-5.878-43.971 0-43.971 0"/><path fill="#333433" d="M54.001 32.196c0 1.657-.895 3-2 3s-2-1.343-2-3 .895-3 2-3 2 1.343 2 3m18 0c0 1.657-.895 3-2 3s-2-1.343-2-3 .895-3 2-3 2 1.343 2 3"/><path fill="#eeac6c" d="M61.021 35.265c-1.125.153-3.02 1.834-3.02 1.834s.207-1.009.503-1.299c.8-1.156 2.487-1.604 2.487-1.604s2.173.703 2.65 1.588c.443.824.34 1.238.34 1.238s-2.121-1.871-2.96-1.756z"/><path fill="#944848" d="M54.201 38.892s6.897 3.208 13.172-.397c0 0-1.39 5.47-5.95 5.561-4.115.122-4.984-1.492-5.477-1.956-.492-.463-1.42-1.772-1.745-3.208" data-paper-data="{&quot;origPos&quot;:null}"/></g></svg>