<svg xmlns="http://www.w3.org/2000/svg" xmlns:xlink="http://www.w3.org/1999/xlink" width="120" height="120"><defs><path id="a" d="M0 70.155h119.855V.589H0z"/><path id="c" d="M.576 11.5v25.887h21.787V11.499C22.363 5.53 17.481.673 11.47.673 5.459.673.576 5.53.576 11.499z"/></defs><g fill="none" fill-rule="evenodd"><path fill="#202526" d="M46.386 80.359H73.42v-13.6H46.386z"/><path fill="#2C383A" d="M3.04 80.359h43.346v-13.6H3.039z"/><path fill="#66534D" d="m37.873 41.147 8.513 9.17h-8.54z"/><g transform="translate(0 24.256)"><path fill="#CBD2DD" d="M37.9 37.97H0v-1.615c0-10.754 8.778-19.47 19.606-19.47H37.9V37.97z"/><path fill="#4D646B" d="M40.94 41.203H3.04v-1.615c0-10.754 8.777-19.471 19.605-19.471h18.294v21.086z"/><mask id="b" fill="#fff"><use xlink:href="#a"/></mask><path fill="#4D646B" d="M29.177 41.203h17.209V29.735H29.177z" mask="url(#b)"/><path fill="#CBD2DD" d="M3.04 42.504h43.346v-1.301H3.039z" mask="url(#b)"/><path fill="#3B4F54" d="M3.04 41.203h43.163V39.07H3.04zm21.983-6.793h21.363v-4.675H25.023z" mask="url(#b)"/><path fill="#CBD2DD" d="M8.733 41.854h.515V20.1h-.515zm6.253 0h.514V20.1h-.514zm6.254 0h.514V20.1h-.515zm6.251 0h.515V20.1h-.515zm6.253 0h.515V20.1h-.515zm6.253 0h.515V20.1h-.515z" mask="url(#b)"/><path fill="#ABB7C9" d="M25.023 29.735h21.363v-3.68H25.023zM3.04 56.103h2.923v-13.6H3.039zm24.676 0h2.922v-13.6h-2.922z" mask="url(#b)"/><path fill="#8492A5" d="M3.04 56.103h2.923v-8.438H3.039zm24.676 0h2.922v-8.438h-2.922z" mask="url(#b)"/><path fill="#2C383A" d="M73.47 56.103h43.346v-13.6H73.47z" mask="url(#b)"/><path fill="#66534D" d="m81.982 16.89-8.512 9.17h8.54z" mask="url(#b)"/><path fill="#CBD2DD" d="M81.956 37.97h37.9v-1.615c0-10.754-8.779-19.47-19.607-19.47H81.956V37.97z" mask="url(#b)"/><path fill="#4D646B" d="M78.916 41.203h37.9v-1.615c0-10.754-8.778-19.471-19.605-19.471H78.916v21.086z" mask="url(#b)"/><path fill="#4D646B" d="M73.47 41.203h17.208V29.735H73.47z" mask="url(#b)"/><path fill="#CBD2DD" d="M73.47 42.504h43.346v-1.301H73.47z" mask="url(#b)"/><path fill="#3B4F54" d="M73.652 41.203h43.164V39.07H73.652zm-.182-6.793h21.362v-4.675H73.47z" mask="url(#b)"/><path fill="#CBD2DD" d="M110.608 41.854h.515V20.1h-.515zm-6.253 0h.515V20.1h-.515zm-6.253 0h.515V20.1h-.515zm-6.252 0h.514V20.1h-.515zm-6.253 0h.514V20.1h-.514zm-6.253 0h.515V20.1h-.515z" mask="url(#b)"/><path fill="#ABB7C9" d="M73.47 29.735h21.362v-3.68H73.47zm40.423 26.368h2.923v-13.6h-2.923zm-24.676 0h2.923v-13.6h-2.923z" mask="url(#b)"/><path fill="#8492A5" d="M113.893 56.103h2.923v-8.438h-2.923zm-24.676 0h2.923v-8.438h-2.923z" mask="url(#b)"/><path fill="#B3978D" d="M73.463 42.504H46.386V14.035C46.386 6.61 52.447.59 59.925.59c7.477 0 13.538 6.02 13.538 13.446v28.469z" mask="url(#b)"/><path fill="#4F7384" d="M49.087 39.923V14.036c0-5.97 4.882-10.827 10.894-10.827 6.01 0 10.894 4.857 10.894 10.827v25.887H49.087z" mask="url(#b)"/><path fill="#4F7384" d="M49.087 39.923V14.036c0-5.97 4.882-10.827 10.894-10.827 6.01 0 10.894 4.857 10.894 10.827v25.887H49.087z" mask="url(#b)"/><path fill="#3B4F54" d="M48.93 39.854h21.946V28.539H48.929z" mask="url(#b)"/></g><g transform="translate(48.51 26.792)"><mask id="d" fill="#fff"><use xlink:href="#c"/></mask><path fill="#CBD2DD" d="M3.176 39.968h.408V.674h-.408zm3.213 0h.408V.674H6.39zm3.214 0h.408V.674h-.408zm3.214 0h.408V.674h-.408zm3.213 0h.407V.674h-.407zm3.214 0h.408V.674h-.408z" mask="url(#d)"/><path fill="#CBD2DD" d="M-8.37 28.503h39.567v-.406H-8.37zm0-3.193h39.567v-.404H-8.37zm0-3.191h39.567v-.405H-8.37zm0-3.192h39.567v-.405H-8.37zm0-3.191h39.567v-.405H-8.37zm0-3.192h39.567v-.405H-8.37z" mask="url(#d)"/></g><path fill="#ABB7C9" d="M46.386 80.359h2.543v-13.6h-2.543zm24.491 0h2.543v-13.6h-2.543z"/><path fill="#8492A5" d="M46.386 80.359h2.543v-6.8h-2.543zm24.491 0h2.543v-6.8h-2.543z"/><path fill="#A29F99" d="M3.04 94.41h113.779V80.36H3.04z"/><path fill="#8C8579" d="M3.04 87.384h113.779v-7.026H3.04z"/></g></svg>