<svg version="1.1" xmlns="http://www.w3.org/2000/svg" xmlns:xlink="http://www.w3.org/1999/xlink" width="86.35062" height="118.78131" viewBox="0,0,86.35062,118.78131"><g transform="translate(-197.06033,-121.0932)"><g data-paper-data="{&quot;isPaintingLayer&quot;:true}" fill-rule="evenodd" stroke-miterlimit="10" stroke-dasharray="" stroke-dashoffset="0" style="mix-blend-mode: normal"><path d="M238.225,188.198c8.382,0.617 16.243,-1.011 22.625,-4.231c2.609,7.763 4.133,16.047 4.133,22.829c0,18.412 -11.209,18.13 -25.034,18.13c-13.824,0 -25.03,0.282 -25.03,-18.131c0,-7.17 1.699,-16.024 4.591,-24.16c5.325,3.04 11.731,5.047 18.715,5.563" fill="#add8e3" stroke="none" stroke-width="1" stroke-linecap="butt" stroke-linejoin="miter"/><path d="M218.39,206.825c1.09703,-0.8046 2.23021,-1.55872 3.396,-2.26c0,0 11.78,-0.523 19.95,18.025c0,0 -6.056,2.767 -14.808,3.875c-5.989,0.759 -11.59,-1.266 -13.036,-7.144c-1.155,-4.697 0.605,-9.647 4.498,-12.496" fill="#94c7d4" stroke="none" stroke-width="1" stroke-linecap="butt" stroke-linejoin="miter"/><path d="M215.195,210.695c15.793,1.271 13.633,15.494 13.633,15.494c-4.652,6.491 -9.017,7.666 -13.099,8.31c-3.055,0.484 -9.622,-1.206 -9.242,-4.286c1.134,-9.205 8.708,-19.518 8.708,-19.518M264.581,215.665c2.98,3.803 3.926,6.627 1.545,10.83c-2.98,5.266 -8.92,5.69 -14.48,3.328c-6.373,-2.707 -10.193,-10.685 -11.543,-13.995c-0.381,-0.93903 -0.14719,-2.01561 0.589,-2.712c4.989,-4.744 11.133,-2.886 15.939,-2.186c2.595,0.38 6.2,2.517 7.83,4.578c0.038,0.053 0.082,0.106 0.12,0.158" fill="#94c7d4" stroke="none" stroke-width="1" stroke-linecap="butt" stroke-linejoin="miter"/><path d="M265.288,216.608c0,0 5.396,6.106 6.53,15.312c0.38,3.078 -6.186,4.767 -9.242,4.284c-4.081,-0.644 -6.418,-1.571 -12.371,-7.108c0,0 -0.71,-11.218 15.083,-12.488" fill="#94c7d4" stroke="none" stroke-width="1" stroke-linecap="butt" stroke-linejoin="miter"/><path d="M239.949,204.938c9.591,0 18.311,-0.365 24.821,-2.735c0.13685,1.52656 0.20759,3.05833 0.212,4.591c0,18.415 -11.209,18.132 -25.033,18.132c-13.824,0 -25.03,0.283 -25.03,-18.132c0.00492,-1.5326 0.07465,-3.0643 0.209,-4.591c6.509,2.37 15.229,2.735 24.821,2.735" fill="#add8e3" stroke="none" stroke-width="1" stroke-linecap="butt" stroke-linejoin="miter"/><path d="M221.964,204.046c-0.738,4.222 -0.318,8.62 -0.318,8.62l-5.237,3.653c-0.962,-2.428 -1.49,-5.537 -1.49,-9.524c0,-7.228 1.726,-16.162 4.658,-24.355c2.836,1.32 5.78,4.094 6.105,9.912c0,0 -2.012,1.944 -3.718,11.694" fill="#94c7d4" stroke="none" stroke-width="1" stroke-linecap="butt" stroke-linejoin="miter"/><path d="M249.17,202.203c0,5.109 -4.13,9.252 -9.222,9.252c-5.09,0 -9.22,-4.143 -9.22,-9.252c0,-5.107 4.13,-9.25 9.22,-9.25c5.093,0 9.222,4.143 9.222,9.25" fill="#cceff7" stroke="none" stroke-width="1" stroke-linecap="butt" stroke-linejoin="miter"/><path d="M257.479,214.884c0,0 -0.061,-5.161 -0.605,-9.411c-1.259,-9.817 -3.177,-11.857 -3.177,-11.857c0.625,-6.161 4.051,-8.748 7.094,-9.826c2.647,7.812 4.192,16.172 4.192,23.004c0,4.972 -0.827,8.57 -2.289,11.188z" fill="#94c7d4" stroke="none" stroke-width="1" stroke-linecap="butt" stroke-linejoin="miter"/><path d="M239.949,220.419c12.998,0 23.679,-1.411 24.908,-16.886c0.073,1.114 0.125,2.212 0.125,3.262c0,18.412 -11.209,18.132 -25.033,18.132c-13.824,0 -25.03,0.281 -25.03,-18.132c0.00556,-1.08829 0.04491,-2.17615 0.118,-3.262c1.232,15.476 11.913,16.886 24.912,16.886" fill="#94c7d4" stroke="none" stroke-width="1" stroke-linecap="butt" stroke-linejoin="miter"/><path d="M245.077,222.612c0.82498,0.75797 1.66994,1.4939 2.534,2.207c-2.416,0.116 -4.989,0.108 -7.663,0.108c-4.235,0 -8.226,0.024 -11.721,-0.47c0.62643,-0.66379 1.2179,-1.35973 1.772,-2.085c3.05,0.28 6.415,0.268 9.949,0.268c1.761,0 3.476,0.003 5.129,-0.028" fill="#7eb4c2" stroke="none" stroke-width="1" stroke-linecap="butt" stroke-linejoin="miter"/><path d="M271.818,231.92c0.379,3.078 -6.186,4.767 -9.242,4.284c-4.081,-0.644 -6.418,-1.571 -12.371,-7.107v-0.01c-2.674,-1.551 -4.83,-4.001 -6.491,-6.457c0.458,-0.005 0.91,-0.012 1.36,-0.022c2.4,2.196 4.202,3.605 5.787,4.543c5.47,4.995 7.788,5.889 11.715,6.508c2.637,0.418 7.889,-0.788 9.029,-3.104c0.08279,0.45308 0.15381,0.90824 0.213,1.365" fill="#7eb4c2" stroke="none" stroke-width="1" stroke-linecap="butt" stroke-linejoin="miter"/><path d="M264.196,239.458c-3.851,-0.743 -3.935,-6.443 -0.088,-7.255c0.17,-0.037 0.35,-0.068 0.534,-0.1c5.924,-0.911 9.713,-5.487 13.06,-4.536c3.347,0.952 7.522,9.723 -2.603,11.674c-4.752,0.915 -8.385,0.702 -10.903,0.217" fill="#788d91" stroke="none" stroke-width="1" stroke-linecap="butt" stroke-linejoin="miter"/><path d="M239.949,222.639l1.678,-0.001c-0.74,0.325 -5.696,2.417 -12.798,3.551c-4.652,6.491 -9.019,7.666 -13.1,8.31c-3.056,0.484 -9.622,-1.206 -9.242,-4.286c0.069,-0.57 0.172,-1.144 0.287,-1.72c1.295,2.217 6.375,3.36 8.955,2.952c3.268,-0.515 6.721,-1.378 10.353,-5.03c1.117,-0.872 2.251,-1.984 3.405,-3.395c0.904,-0.155 1.781,-0.322 2.606,-0.5c2.47,0.127 5.109,0.12 7.856,0.12" fill="#7eb4c2" stroke="none" stroke-width="1" stroke-linecap="butt" stroke-linejoin="miter"/><path d="M215.859,237.397c-2.533,0.393 -6.172,0.471 -10.887,-0.623c-10.044,-2.332 -5.543,-10.94 -2.162,-11.765c3.378,-0.825 6.994,3.892 12.88,5.025c0.1777,0.03528 0.35443,0.07529 0.53,0.12c3.815,0.956 3.514,6.645 -0.36,7.243" fill="#788d91" stroke="none" stroke-width="1" stroke-linecap="butt" stroke-linejoin="miter"/><path d="M253.743,193.953c-1.089,-11.492 9.777,-12.724 9.777,-12.724c9.939,7.706 8.134,25.32 8.134,25.32c-0.737,5.273 -3.177,10.01 -3.177,10.01l-7.707,-3.127c0,0 -0.243,-4.414 -1.605,-8.474c-3.143,-9.383 -5.422,-11.005 -5.422,-11.005" fill="#add8e3" stroke="none" stroke-width="1" stroke-linecap="butt" stroke-linejoin="miter"/><path d="M261.034,214.298c0.79395,0.49094 1.04312,1.53048 0.558,2.328c-0.482,0.795 -1.528,1.047 -2.318,0.561l-1.217,-0.745c-0.79311,-0.49093 -1.04292,-1.52899 -0.56,-2.327c0.48555,-0.79617 1.52423,-1.04857 2.321,-0.564l1.216,0.747" data-paper-data="{&quot;origPos&quot;:null}" fill="#795e4f" stroke="none" stroke-width="1" stroke-linecap="butt" stroke-linejoin="miter"/><path d="M269.054,217.517c-0.079,3.205 -2.737,5.74 -5.932,5.66c-3.195,-0.082 -5.723,-2.745 -5.641,-5.952c0.08,-3.207 2.735,-5.741 5.932,-5.66c3.196,0.079 5.723,2.744 5.641,5.952" data-paper-data="{&quot;origPos&quot;:null}" fill="#795e4f" stroke="none" stroke-width="1" stroke-linecap="butt" stroke-linejoin="miter"/><path d="M264.797,185.707c-1.541,-1.678 -3.976,-2.213 -6.087,-1.371c-1.095,0.438 -2.312,1.07 -3.441,1.977c2.789,-4.46 8.25,-5.083 8.25,-5.083c7.438,5.763 8.3,17.07 8.263,22.402v0.075c0,0.16 -0.003,0.315 -0.006,0.468c-0.004,0.053 -0.004,0.11 -0.004,0.163v0.002c-0.46,-5.587 -2.053,-13.264 -6.975,-18.633" fill="#94c7d4" stroke="none" stroke-width="1" stroke-linecap="butt" stroke-linejoin="miter"/><path d="M225.921,191.848c0,0 -2.394,1.445 -6.226,10.566c-1.66,3.948 -2.23,8.333 -2.23,8.333l-8.563,3.454c0,0 -1.436,-5.82 -1.779,-11.132c0,0 -0.494,-17.7 9.996,-24.64c0,0 10.744,2.04 8.802,13.419" fill="#add8e3" stroke="none" stroke-width="1" stroke-linecap="butt" stroke-linejoin="miter"/><path d="M217.14,211.592l1.268,-0.655c0.83079,-0.42222 1.84659,-0.09316 2.272,0.736c0.42199,0.83184 0.0949,1.84834 -0.733,2.278l-1.266,0.652c-0.83014,0.42452 -1.84726,0.09652 -2.273,-0.733c-0.42214,-0.83157 -0.09553,-1.84799 0.732,-2.278" data-paper-data="{&quot;origPos&quot;:null}" fill="#795e4f" stroke="none" stroke-width="1" stroke-linecap="butt" stroke-linejoin="miter"/><path d="M208.902,214.82298c0.158,-3.205 2.877,-5.67 6.068,-5.513c3.196,0.157 5.657,2.884 5.495,6.088c-0.157,3.205 -2.873,5.672 -6.068,5.513c-3.196,-0.158 -5.654,-2.884 -5.495,-6.088" data-paper-data="{&quot;origPos&quot;:null}" fill="#795e4f" stroke="none" stroke-width="1" stroke-linecap="butt" stroke-linejoin="miter"/><path d="M215.51,182.798c-5.307,4.986 -7.464,12.523 -8.338,18.06v-0.003c0.004,-0.052 0.006,-0.109 0.006,-0.165c0.013,-0.148 0.02,-0.303 0.03,-0.465l0.003,-0.075c0.362,-5.32 2.063,-16.53 9.908,-21.723c0,0 5.398,1.03 7.85,5.687c-1.06,-0.989 -2.225,-1.709 -3.283,-2.229c-2.046,-0.999 -4.516,-0.646 -6.176,0.914" fill="#94c7d4" stroke="none" stroke-width="1" stroke-linecap="butt" stroke-linejoin="miter"/><path d="M211.508,158.635c-0.293,3.996 -3.76,6.998 -7.743,6.703c-3.985,-0.293 -6.977,-3.77 -6.685,-7.767c0.294,-3.995 3.76,-6.996 7.743,-6.702c3.985,0.293 6.976,3.77 6.685,7.766" data-paper-data="{&quot;origPos&quot;:null}" fill="#795e4f" stroke="none" stroke-width="1" stroke-linecap="butt" stroke-linejoin="miter"/><path d="M208.68,158.427c-0.08372,1.16513 -0.6269,2.24927 -1.51003,3.01388c-0.88313,0.7646 -2.03385,1.14703 -3.19897,1.06312c-1.16514,-0.08767 -2.24772,-0.63466 -3.00951,-1.52061c-0.7618,-0.88595 -1.14039,-2.03827 -1.05249,-3.20339c0.08268,-1.16553 0.62557,-2.25031 1.50894,-3.01513c0.88338,-0.76482 2.03469,-1.14686 3.20006,-1.06187c2.42577,0.18363 4.24393,2.2981 4.062,4.724" data-paper-data="{&quot;origPos&quot;:null}" fill="#503222" stroke="none" stroke-width="1" stroke-linecap="butt" stroke-linejoin="miter"/><path d="M283.391,163.933c-0.29,3.996 -3.756,6.996 -7.74,6.703c-3.984,-0.293 -6.977,-3.77 -6.685,-7.766c0.294,-3.997 3.76,-6.997 7.743,-6.704c3.985,0.294 6.976,3.771 6.682,7.767" data-paper-data="{&quot;origPos&quot;:null}" fill="#795e4f" stroke="none" stroke-width="1" stroke-linecap="butt" stroke-linejoin="miter"/><path d="M280.566,163.724c-0.17487,2.42601 -2.28294,4.25115 -4.709,4.077c-2.42562,-0.18311 -4.24391,-2.29729 -4.062,-4.723c0.17839,-2.42204 2.28646,-4.24089 4.7085,-4.0625c2.42204,0.17839 4.24089,2.28646 4.0625,4.7085" data-paper-data="{&quot;origPos&quot;:null}" fill="#503222" stroke="none" stroke-width="1" stroke-linecap="butt" stroke-linejoin="miter"/><path d="M230.567,137.471c0,0 11.922,-2.202 10.96,-7.957c-0.961,-5.755 7.546,-3.034 5.149,3.379c0,0 3.387,-2.79 3.053,-7.875c-0.334,-5.085 5.45,-5.233 6.38,-0.42c0.932,4.812 -3.356,10.42 -3.356,10.42c0,0 3.19,-0.054 4.87,-4.176c1.679,-4.12 6.187,-1.749 2.507,4.38c-3.678,6.128 -15.09,9.79 -15.09,9.79l-14.473,-7.54z" fill="#d66c00" stroke="none" stroke-width="1" stroke-linecap="butt" stroke-linejoin="miter"/><path d="M230.567,137.471c0,0 9.178,-1.697 10.778,-6.003c0.461,0.022 0.925,0.041 1.393,0.076c1.40443,0.10592 2.80347,0.27409 4.193,0.504c-0.067,0.274 -0.145,0.555 -0.255,0.846c0,0 0.316,-0.262 0.739,-0.762c2.11383,0.3663 4.19906,0.88192 6.24,1.543c-0.513,0.833 -0.901,1.343 -0.901,1.343c0,0 1.086,-0.025 2.324,-0.857c1.52585,0.5531 3.01835,1.19417 4.47,1.92c-4.167,5.609 -14.508,8.932 -14.508,8.932z" fill="#ba5e00" stroke="none" stroke-width="1" stroke-linecap="butt" stroke-linejoin="miter"/><path d="M276.179,163.401c-1.108,15.157 -18.103,26.26 -37.954,24.798c-19.85,-1.465 -35.042,-14.938 -33.932,-30.095c1.11,-15.16 18.103,-26.26 37.953,-24.796c19.851,1.461 35.044,14.936 33.933,30.092" data-paper-data="{&quot;origPos&quot;:null}" fill="#795e4f" stroke="none" stroke-width="1" stroke-linecap="butt" stroke-linejoin="miter"/><path d="M264.351,181.949c0.54869,0.48475 1.06544,1.0045 1.547,1.556c-7.006,5.231 -16.917,8.133 -27.672,7.341c-9.696,-0.715 -18.27,-4.3 -24.388,-9.54c0.45738,-0.5173 0.9449,-1.00715 1.46,-1.467c5.986,4.594 13.983,7.699 22.928,8.36c9.984,0.732 19.243,-1.712 26.124,-6.249" fill="#94c7d4" stroke="none" stroke-width="1" stroke-linecap="butt" stroke-linejoin="miter"/><path d="M243.972,166.779c1.487,-0.673 4.315,0.764 3.836,3.597c-0.404,2.397 -3.046,3.223 -5.256,3.493c-0.75333,0.70077 -1.74412,1.09023 -2.773,1.09c-1.21809,-0.00022 -2.37277,-0.5431 -3.15,-1.481c-2.194,-0.562 -4.879,-1.767 -4.933,-4.29c-0.06,-2.873 2.946,-3.879 4.32,-2.995c0.59231,0.38505 1.21426,0.72244 1.86,1.009c0.587,-0.30823 1.24,-0.4695 1.903,-0.47c0.83704,-0.00057 1.65399,0.25639 2.34,0.736c0.573,-0.164 1.195,-0.391 1.853,-0.689" fill="#e3ac94" stroke="none" stroke-width="1" stroke-linecap="butt" stroke-linejoin="miter"/><path d="M244.764,179.204c-0.118,1.633 -2.673,2.774 -5.707,2.551c-3.031,-0.224 -5.393,-1.728 -5.27,-3.362c0.118,-1.631 2.672,-2.774 5.706,-2.55c3.033,0.224 5.39,1.73 5.271,3.36M248.227,137.358c0.155,1.942 -5.668,3.996 -13.009,4.59c-7.34,0.592 -13.418,-0.5 -13.575,-2.443c-0.155,-1.941 5.67,-3.995 13.012,-4.59c7.339,-0.591 13.416,0.501 13.572,2.443" data-paper-data="{&quot;origPos&quot;:null}" fill="#bfad9d" stroke="none" stroke-width="1" stroke-linecap="butt" stroke-linejoin="miter"/><path d="M264.506,159.658c0.309,-4.233 -3.414,-7.956 -8.315,-8.318c-3.232,-0.238 -6.165,1.045 -7.88,3.156M216.903,156.15c0.31,-4.234 4.534,-7.37 9.434,-7.01c3.231,0.238 5.947,1.936 7.337,4.279" data-paper-data="{&quot;origPos&quot;:null}" fill="none" stroke="#d4a28c" stroke-width="1.253" stroke-linecap="round" stroke-linejoin="round"/><path d="M231.696,168.294c-0.061,-2.874 2.945,-3.879 4.321,-2.996c1.543,0.995 2.946,1.522 3.88,1.59c0.938,0.07 2.403,-0.246 4.075,-1.003c1.486,-0.674 4.316,0.763 3.836,3.596c-0.713,4.219 -8.36,3.579 -8.36,3.579c0,0 -7.661,-0.486 -7.752,-4.766" fill="#cceff7" stroke="none" stroke-width="1" stroke-linecap="butt" stroke-linejoin="miter"/><path d="M243.881,169.951c0.00276,2.26911 -1.83389,4.11114 -4.103,4.115c-1.08915,-0.00212 -2.13284,-0.43689 -2.90139,-1.20863c-0.76855,-0.77174 -1.199,-1.81722 -1.19661,-2.90637c-0.00212,-1.08898 0.42844,-2.1342 1.19696,-2.90573c0.76852,-0.77153 1.81206,-1.20615 2.90104,-1.20827c2.26872,0.00386 4.10521,1.84528 4.103,4.114" fill="#91cad9" stroke="none" stroke-width="1" stroke-linecap="butt" stroke-linejoin="miter"/><path d="M242.115,169.249c0.00106,0.62061 -0.24446,1.21622 -0.68254,1.6558c-0.43809,0.43959 -1.03285,0.68714 -1.65346,0.6882c-0.62078,-0.00079 -1.2158,-0.24823 -1.65411,-0.68784c-0.4383,-0.43961 -0.68396,-1.03538 -0.68289,-1.65616" fill="none" stroke="#788d91" stroke-width="1.41" stroke-linecap="round" stroke-linejoin="round"/><path d="M240.683,158.161c4.934,0.363 3.493,3.17 3.493,3.17c0,0 0.279,-1.903 -3.563,-2.187c-3.842,-0.282 -3.845,1.642 -3.845,1.642c0,0 -1.015,-2.988 3.915,-2.625" fill="#e3ac94" stroke="none" stroke-width="1" stroke-linecap="butt" stroke-linejoin="miter"/><path d="M238.277,160.139c0.294,-0.22 0.646,-0.245 0.789,-0.055c0.14,0.19 0.019,0.522 -0.276,0.742c-0.294,0.221 -0.647,0.245 -0.79,0.056c-0.139,-0.192 -0.017,-0.522 0.277,-0.743M242.777,160.471c0.258,0.26 0.331,0.607 0.163,0.776c-0.166,0.165 -0.51,0.09 -0.771,-0.172c-0.257,-0.26 -0.33,-0.608 -0.162,-0.775c0.166,-0.166 0.512,-0.09 0.77,0.17" fill="#e3ac94" stroke="none" stroke-width="1" stroke-linecap="butt" stroke-linejoin="miter"/><path d="M212.304,157.985c2.87,0.212 5.06,2.266 4.89,4.588c-0.17,2.322 -2.634,4.034 -5.506,3.822c-2.872,-0.212 -5.062,-2.266 -4.892,-4.588c0.169,-2.322 2.637,-4.034 5.507,-3.822M268.788,162.149c2.87,0.21 5.06,2.266 4.89,4.586c-0.173,2.323 -2.636,4.035 -5.506,3.823c-2.875,-0.212 -5.065,-2.266 -4.895,-4.589c0.169,-2.321 2.636,-4.032 5.51,-3.82" data-paper-data="{&quot;origPos&quot;:null}" fill="#ffa6a6" stroke="none" stroke-width="1" stroke-linecap="butt" stroke-linejoin="miter"/></g></g></svg>