<svg version="1.1" xmlns="http://www.w3.org/2000/svg" xmlns:xlink="http://www.w3.org/1999/xlink" width="58.48727" height="118.43221" viewBox="0,0,58.48727,118.43221"><g transform="translate(-210.21972,-120.71882)"><g data-paper-data="{&quot;isPaintingLayer&quot;:true}" fill-rule="evenodd" stroke="none" stroke-width="1" stroke-linecap="butt" stroke-linejoin="miter" stroke-miterlimit="10" stroke-dasharray="" stroke-dashoffset="0" style="mix-blend-mode: normal"><path d="M217.651,164.607c1.085,0.21 1.595,2.257 1.14,4.574c-0.177,0.883 -0.468,1.678 -0.818,2.313c-0.193,1.226 -0.823,2.207 -1.813,2.624c-1.843,0.769 -4.25,-0.725 -5.37,-3.339c-1.123,-2.612 -0.536,-5.355 1.309,-6.127c1.202,-0.504 2.645,-0.04 3.816,1.068c0.527,-0.786 1.156,-1.223 1.735,-1.113M267.641,201.209c0.248,2.327 -0.88,4.355 -2.523,4.527c-1.073,0.113 -2.096,-0.596 -2.754,-1.746c-0.608,0.494 -1.208,0.692 -1.638,0.466c-0.806,-0.421 -0.713,-2.158 0.212,-3.883c0.31819,-0.60087 0.72509,-1.15037 1.207,-1.63c0.453,-0.92 1.187,-1.548 2.07,-1.642c1.643,-0.17 3.178,1.578 3.426,3.908" data-paper-data="{&quot;origPos&quot;:null}" fill="#be9668"/><path d="M261.955,198.734c0,0 -1.295,-10.062 -3,-12.442c-0.696,-0.97 -1.085,-1.591 -1.314,-2.073c2.213,9.924 2.485,23.334 2.485,23.334h-31.873c0,0 0.308,-15.115 2.923,-25.12c-1.447,0.562 -8.529,3.231 -10.701,2.454c-2.991,-1.071 -7.41,-10.221 -7.41,-10.221l4.784,-2.325l5.422,6.428l11.666,-4.183c0,0 -0.027,0.04 -0.067,0.112c1.948,-1.37 7.486,-1.62 7.486,-1.62l1.762,0.073h0.145l1.76,-0.055c0,0 5.396,0.203 7.412,1.52c-0.012,-0.023 -0.02,-0.032 -0.02,-0.032c0,0 6.453,3.334 8.242,5.588c3.674,4.635 5.081,18.567 5.081,18.567l-4.783,-0.005" fill="#ffffff"/><path d="M259.926,202.769c0.03481,0.5597 0.06414,1.11973 0.088,1.68h-31.649c0.02505,-0.56022 0.05438,-1.12023 0.088,-1.68zM228.567,200.958c0.03517,-0.561 0.07517,-1.12169 0.12,-1.682h31.007c0.043,0.582 0.086,1.099 0.122,1.682h-31.248M228.835,197.466c0.051,-0.582 0.103,-1.099 0.158,-1.683h30.397c0.055,0.583 0.105,1.101 0.155,1.683h-30.71M229.168,194.102c0.05793,-0.56096 0.12427,-1.12103 0.199,-1.68h29.65c0.07126,0.55937 0.13726,1.11939 0.198,1.68h-30.047M229.576,190.804c0.078,-0.58 0.158,-1.162 0.248,-1.68h28.735c0.09088,0.55862 0.17256,1.11869 0.245,1.68h-29.228M257.934,185.565c0.11,0.518 0.216,1.102 0.316,1.683h-28.12c0.102,-0.581 0.207,-1.165 0.317,-1.683zM233.09,177.054c-0.00636,0.00731 -0.01339,0.01401 -0.021,0.02l-0.358,-1.69l1.328,-0.476l0.084,0.485c-0.05309,0.06368 -0.10091,0.13157 -0.143,0.203c0.04593,-0.06201 0.09361,-0.1227 0.143,-0.182h20.779c0.95702,0.53833 1.9016,1.09847 2.833,1.68h-24.666l0.021,-0.04" fill="#1679af"/><path d="M231.781,180.299c-0.048,0.123 -0.071,0.203 -0.071,0.203l-1.054,-4.38l1.273,-0.458l0.548,3.176h27.753c0.591,0.452 1.092,0.932 1.426,1.355c0.083,0.104 0.164,0.197 0.246,0.327h-30.192c0.021,-0.075 0.047,-0.15 0.071,-0.223" fill="#1679af"/><path d="M231.16,182.438c-0.251,0.099 -0.661,0.255 -1.183,0.445l-1.652,-5.925l1.53,-0.55l1.388,5.861h20.335l11.077,-0.518c0.27712,0.53707 0.52776,1.08739 0.751,1.649l-5.878,0.273c0.019,0.087 0.038,0.176 0.062,0.266v0.01h-26.795v-0.009c0.062,-0.285 0.131,-0.58 0.198,-0.86l0.004,-0.007c0.02953,-0.12595 0.06154,-0.25131 0.096,-0.376c0.002,-0.019 0.009,-0.033 0.012,-0.054l0.055,-0.205M227.221,177.353l1.6,5.939c-0.414,0.144 -0.855,0.292 -1.32,0.442l-1.819,-5.831l1.54,-0.55zM224.705,178.256l0.843,6.058c-0.456,0.125 -0.914,0.242 -1.36,0.342l-1.095,-6.099l0.179,0.211zM221.502,176.671l1.268,1.5l-2.308,6.71c-0.386,-0.141 -0.794,-0.414 -1.214,-0.784zM221.239,176.359l-4.314,4.983c-0.279,-0.402 -0.553,-0.816 -0.82,-1.235l4.047,-5.035zM218.662,173.304l1.08,1.28l-5.192,2.904c-0.257,-0.459 -0.491,-0.887 -0.691,-1.266l4.802,-2.918zM258.955,186.292c-0.272,-0.379 -0.498,-0.706 -0.684,-0.992l5.732,-0.26c0.04369,0.13211 0.08669,0.26444 0.129,0.397c0.00166,0.00798 0.00508,0.0155 0.01,0.022l0.118,0.388c0.00476,0.00805 0.00814,0.01684 0.01,0.026l0.12,0.39c0.002,0.007 0.009,0.017 0.012,0.024c0.041,0.139 0.064,0.272 0.131,0.412v0.002l-5.199,0.235c-0.057,-0.122 -0.131,-0.24 -0.191,-0.346c-0.002,-0.004 -0.004,-0.009 -0.007,-0.011l-0.033,-0.062l-0.015,-0.021l-0.03,-0.052l-0.015,-0.018l-0.031,-0.052c-0.00536,-0.00536 -0.00946,-0.01185 -0.012,-0.019c-0.014,-0.019 -0.031,-0.04 -0.045,-0.063M264.961,188.42c0.13679,0.55461 0.26481,1.11135 0.384,1.67l-4.934,0.162c-0.148,-0.588 -0.3,-1.15 -0.465,-1.668l5.015,-0.164M265.643,191.54c0.10896,0.55649 0.21164,1.11419 0.308,1.673l-4.872,0.12c-0.105,-0.553 -0.219,-1.116 -0.341,-1.673l4.905,-0.12M266.222,194.88c0.08975,0.55893 0.17242,1.11898 0.248,1.68h-4.836c-0.077,-0.517 -0.17,-1.098 -0.274,-1.68h4.86" fill="#1679af"/><path d="M245.553,180.209c1.505,-1.388 2.549,-2.891 1.903,-5.464c-0.491,-1.945 -0.71,-2.536 -1.655,-2.67c-1.337,-0.193 -3.553,-0.336 -4.397,1.085c-1.581,2.464 2.487,6.059 4.149,7.05M251.727,170.238c2.709,2.421 0.425,8.35 -1.354,10.604c-2.538,3.337 -6.26,6.094 -8.125,9.852c-0.508,0.835 -0.93,1.838 -1.352,2.673c-1.44,-0.917 -3.639,-0.753 -5.077,-0.167c1.693,-3.508 3.551,-6.932 6.262,-9.854c0.527,-0.588 1.107,-1.111 1.684,-1.602c-2.407,0.202 -5.482,-2.348 -6.677,-4.078c-0.978,-1.367 -3.367,-6.746 -0.599,-7.605c-0.021,-0.007 -0.016,-0.019 0.05,-0.013c0.0229,-0.0081 0.04628,-0.01478 0.07,-0.02c0.004,0.01 0.004,0.017 0,0.024c0.04678,0.0034 0.09347,0.00807 0.14,0.014c1.693,0.169 3.215,-0.162 5.078,0.254c2.79,0.586 7.701,-2.005 9.9,-0.082" fill="#e63744"/><path d="M266.768,152.652c1.169,0.743 1.939,2.009 1.939,3.447c0,2.289 -1.956,4.143 -4.367,4.143c-0.066,0 -0.133,-0.002 -0.202,-0.004c-3.906,6.908 -11.389,11.581 -19.979,11.581c-8.598,0 -16.086,-4.683 -19.99,-11.605c-0.16,0.018 -0.322,0.028 -0.486,0.028c-2.411,0 -4.366,-1.853 -4.366,-4.143c0,-1.546 0.891,-2.895 2.21,-3.605c-0.151,-1.059 -0.231,-2.139 -0.231,-3.235c0,-12.461 10.237,-22.56 22.863,-22.56c12.627,0 22.864,10.099 22.864,22.56c0,1.153 -0.088,2.287 -0.255,3.393" data-paper-data="{&quot;origPos&quot;:null}" fill="#be9668"/><path d="M238.229,150.096c-0.772,-0.174 -0.908,-1.201 -3.386,-0.74c-0.779,0.18 -2.417,1.156 -2.732,1.808c-0.316,0.652 -0.088,-2.392 2.457,-3.522c1.835,-0.675 2.457,-0.642 3.977,-0.642c1.52,0 1.987,0.907 1.766,1.65c0,0 -0.503,1.803 -2.082,1.446zM252.134,150.096c0.772,-0.174 0.908,-1.201 3.386,-0.74c0.779,0.18 2.417,1.156 2.732,1.808c0.316,0.652 0.087,-2.392 -2.457,-3.522c-1.835,-0.675 -2.457,-0.642 -3.977,-0.642c-1.52,0 -1.987,0.907 -1.766,1.65c0,0 0.503,1.803 2.082,1.446z" data-paper-data="{&quot;origPos&quot;:null}" fill="#805120"/><path d="M238,156c0,1.657 -0.895,3 -2,3c-1.105,0 -2,-1.343 -2,-3c0,-1.657 0.895,-3 2,-3c1.105,0 2,1.343 2,3M256,156c0,1.657 -0.895,3 -2,3c-1.105,0 -2,-1.343 -2,-3c0,-1.657 0.895,-3 2,-3c1.105,0 2,1.343 2,3" data-paper-data="{&quot;origPos&quot;:null}" fill="#724618"/><path d="M245.02,159.069c-1.125,0.153 -3.02,1.834 -3.02,1.834c0,0 0.207,-1.009 0.503,-1.299c0.8,-1.156 2.487,-1.604 2.487,-1.604c0,0 2.173,0.703 2.65,1.588c0.443,0.824 0.34,1.238 0.34,1.238c0,0 -2.121,-1.871 -2.96,-1.756z" fill="#eeac6c"/><path d="M238.2,162.696c0,0 6.897,3.208 13.172,-0.397c0,0 -1.39,5.47 -5.95,5.561c-4.115,0.122 -4.984,-1.492 -5.477,-1.956c-0.492,-0.463 -1.42,-1.772 -1.745,-3.208" data-paper-data="{&quot;origPos&quot;:null}" fill="#805120"/><path d="M267.928,146.317c0.035,2.652 -0.904,8.383 -2.733,11.802c0,0 -4.497,-12.558 -8.203,-14.548c-4.526,-2.431 -16.464,1.075 -20.51,-2.078c-0.67,-0.522 -0.596,-1.705 -0.596,-1.705c0,0 -0.773,1.508 -1.145,1.928c-1.963,2.2 -7.044,5.39 -9.459,7.1c-1.937,1.376 -2.028,1.362 -1.6,9.304c0,0 -3.566,-7.227 -3.37,-12.05c0.057,-1.391 0.741,-4.473 1.853,-7.605c4.023,-7.969 12.361,-13.442 21.993,-13.442c11.069,0 20.426,7.223 23.498,17.148c0.15528,1.377 0.24605,2.76051 0.272,4.146" data-paper-data="{&quot;origPos&quot;:null}" fill="#805120"/><path d="M242.372,174.573c-1.066,0 -1.934,-2.264 -1.934,-3.297h7.605c0,1.033 -0.866,3.297 -1.934,3.297h-3.737" data-paper-data="{&quot;origPos&quot;:null}" fill="#be9668"/><path d="M241.256,173.709c-0.43,-0.642 -0.729,-1.539 -0.8,-2.186c2.50918,0.40031 5.06663,0.39153 7.573,-0.026l-0.014,0.012l-6.758,2.2" fill="#eeac6c"/><path d="M233.86,233.357c-1.804,1.101 -3.116,3.339 -1.57,5.17c1.168,1.289 2.887,0.268 4.194,-0.278c1.445,-0.678 3.095,-1.155 4.4,-2.035c0.846,-0.584 1.838,-1.207 2.406,-2.076c0.176,-0.268 0.26,-0.522 0.197,-0.78h-9.626zM254.428,233.357c1.805,1.101 3.117,3.339 1.57,5.17c-1.17,1.289 -2.889,0.268 -4.195,-0.278c-1.443,-0.678 -3.09,-1.155 -4.398,-2.035c-0.846,-0.584 -1.838,-1.207 -2.408,-2.076c-0.176,-0.268 -0.26,-0.522 -0.196,-0.78h9.627z" fill="#343434"/><path d="M256.597,207.491l-1.967,25.866h-9.96l-0.38,-18.755h-0.29l-0.381,18.755h-9.963l-1.965,-25.866h15.662z" fill="#e63744"/><path d="M257.891,125.526c2.43,5.737 -5.182,14.344 -17,19.219c-11.82,4.873 -23.374,4.172 -25.804,-1.565c-2.179,-5.148 3.717,-12.6 13.487,-17.6c-0.686,-0.392 -1.425,-0.703 -2.17,-0.948c-1.256,-0.409 -2.58,-0.666 -3.91,-0.623c-0.127,0.004 -0.127,-0.189 0,-0.193c1.373,-0.045 2.766,0.216 4.058,0.661c0.77293,0.25889 1.51825,0.59387 2.225,1c1.06,-0.534 2.163,-1.043 3.31,-1.513c11.821,-4.878 23.373,-4.176 25.804,1.562" fill="#1679af"/></g></g></svg>