<svg xmlns="http://www.w3.org/2000/svg" width="59.552" height="117.457"><g fill-rule="evenodd" stroke-miterlimit="10" data-paper-data="{&quot;isPaintingLayer&quot;:true}" style="mix-blend-mode:normal"><path fill="#9e733f" d="M57.644 40.491c1.873.794 2.468 3.628 1.331 6.32-.737 1.733-2.003 2.988-3.315 3.453h.007s-3.491 9.93-6.53 11.036c-2.46.894-11.13-2.64-11.13-2.64s-.699-2.699-1.065-3.554c-.495-1.171-2.518-4.377-2.518-4.377l11.872 4.26 5.594-6.59v.004a5.336 5.336 0 0 1-.212-.85c-.359-.655-.647-1.476-.827-2.39-.468-2.392.05-4.501 1.152-4.716.593-.114 1.224.335 1.764 1.145 1.187-1.143 2.653-1.619 3.877-1.1M7.271 56.494c1.812-2.323 8.366-5.763 8.366-5.763s-3.045 5.553-3.597 8.02c-.072.314-.246 1.152-.403 1.592-.2.545-.76 1.234-1.62 2.465C8.283 65.263 6.66 75.644 6.66 75.644c.037.067.079.14.113.21a7.05 7.05 0 0 1 1.226 1.685c.935 1.776 1.034 3.57.217 4.002-.437.233-1.05.029-1.67-.478-.657 1.187-1.703 1.916-2.793 1.802-1.669-.179-2.816-2.272-2.558-4.672.102-1.012.442-1.915.922-2.614-.002.044-.008.067-.008.067s1.434-14.371 5.162-19.152" data-paper-data="{&quot;origPos&quot;:null}"/><path fill="#eeeeed" d="M34.388 50.701c8.356 2.499 10.368 3.413 10.368 3.413.84 2.804-1.4 6.715-1.4 6.715L37.83 58.65l-3.442-7.95zM5.163 58.99c.837 3.327 5.558 3.327 5.558 3.327l1.2-1.663 3.723-9.925C7.441 53.899 5.163 58.99 5.163 58.99"/><path fill="#eeeeed" d="M8.871 84.734h.01s.544-27.489 6.38-33.668c1.575-1.66 7.934-1.867 7.934-1.867l1.789.086h.147l1.785-.124s6.37.297 7.942 1.964c5.832 6.173 6.382 33.609 6.382 33.609h.038H8.87z"/><path fill="#68a369" d="M8.88 84.734s.247-12.939 2.292-23.057l-.47.64s-4.735 0-5.577-3.327c0 0 2.18-4.616 9.311-7.793v33.537zm27.268-33.476c6.823 2.075 8.567 2.855 8.567 2.855.845 2.804-1.36 6.716-1.36 6.716l-5.075-2.003c2.645 10.318 2.96 25.908 2.96 25.908h-5.092V51.258m-6.518-1.825v35.3h-9.303v-35.3c1.553-.192 2.833-.234 2.833-.234l1.823.086h.148l1.75-.124s1.355.063 2.75.271z"/><path fill="#9e733f" d="M24.389 111.367h-9.768l-.465-11.722h10.232zm11.1 0h-9.77V99.645h10.23z" data-paper-data="{&quot;origPos&quot;:null}"/><path fill="#343434" d="M24.367 104.373v6.993h-9.746l-.277-6.994z"/><path fill="#68a369" d="m14.401 105.771-.056-1.398h10.023v1.398z"/><path fill="#343434" d="m35.762 104.373-.273 6.993h-9.798v-6.994z"/><path fill="#68a369" d="M25.691 104.373h10.071l-.052 1.398H25.691z"/><path fill="#343434" d="m37.678 84.72-1.119 14.922h-11.21l-.149-7.593h-.288l-.152 7.593H13.54L12.43 84.72h15.88z"/><path fill="#eeeeed" d="M15.888 99.642h-1.73L13.03 84.72h1.724zm18.336 0h1.724L37.08 84.72h-1.728z"/><path fill="#9e733f" d="M22.906 51.013c-1.084 0-1.961-2.332-1.961-3.4h7.705c0 1.068-.872 3.4-1.96 3.4h-3.784" data-paper-data="{&quot;origPos&quot;:null}"/><path fill="#eeac6c" d="M21.772 50.148c-.437-.661-.739-1.585-.813-2.248 2.545.409 5.139.399 7.68-.03l-.015.011-6.853 2.267"/><path fill="#9e733f" d="M1.967 28.452a23.036 23.036 0 0 1-.262-3.492c0-12.831 10.376-23.24 23.18-23.24 12.801 0 23.182 10.409 23.182 23.24 0 1.13-.082 2.244-.238 3.335 1.338.732 2.241 2.122 2.241 3.71 0 2.36-1.987 4.269-4.427 4.269-.168 0-.327-.01-.487-.025C41.196 43.379 33.6 48.2 24.885 48.2c-8.705 0-16.294-4.813-20.253-11.93-.075 0-.14.004-.214.004-2.442 0-4.418-1.91-4.418-4.27 0-1.482.779-2.783 1.967-3.551" data-paper-data="{&quot;origPos&quot;:null}"/><path fill="#343434" d="M18.43 25.058c-.772-.174-.908-1.201-3.386-.74-.779.18-2.417 1.156-2.732 1.808-.316.652-.088-2.392 2.457-3.522 1.835-.675 2.457-.642 3.977-.642s1.987.907 1.766 1.65c0 0-.503 1.803-2.082 1.446zm13.905 0c.772-.174.908-1.201 3.386-.74.779.18 2.417 1.156 2.732 1.808.316.652.087-2.392-2.457-3.522-1.835-.675-2.457-.642-3.977-.642s-1.987.907-1.766 1.65c0 0 .503 1.803 2.082 1.446zm-14.134 5.904c0 1.657-.895 3-2 3s-2-1.343-2-3 .895-3 2-3 2 1.343 2 3m18 0c0 1.657-.895 3-2 3s-2-1.343-2-3 .895-3 2-3 2 1.343 2 3"/><path fill="#eeac6c" d="M25.221 34.031c-1.125.153-3.02 1.834-3.02 1.834s.207-1.009.503-1.299c.8-1.156 2.487-1.604 2.487-1.604s2.173.703 2.65 1.588c.443.824.34 1.238.34 1.238s-2.121-1.871-2.96-1.756zM18.401 37.658s6.897 3.208 13.172-.397c0 0-1.39 5.47-5.95 5.561-4.115.122-4.984-1.492-5.477-1.956-.492-.463-1.42-1.772-1.745-3.208"/><path fill="#343434" d="M49.064 21.93c.035 2.733-.914 8.636-2.768 12.156 0 0-4.559-12.932-8.314-14.981-4.591-2.505-16.693 1.105-20.799-2.143-.682-.536-.6-1.756-.6-1.756s-.788 1.552-1.163 1.988c-1.989 2.267-7.143 5.547-9.585 7.312-1.974 1.418-2.064 1.401-1.627 9.58 0 0-3.621-7.438-3.413-12.41.053-1.43.743-4.609 1.873-7.834C6.746 5.636 15.201 0 24.966 0c11.223 0 20.708 7.433 23.823 17.663a45.54 45.54 0 0 1 .275 4.267m-34.436 89.437h9.76c.069.2-.019.503-.194.785-.583.897-1.589 1.518-2.442 2.116-1.322.912-2.999 1.409-4.462 2.105-1.323.562-3.069 1.621-4.255.295-1.565-1.884-.236-4.171 1.594-5.301zm11.09 0c-.063.2.023.503.2.785.582.897 1.583 1.518 2.44 2.116 1.323.912 3.001 1.409 4.463 2.105 1.32.562 3.066 1.621 4.254.295 1.566-1.884.236-4.171-1.594-5.301z"/><path fill="#eeeeed" d="M52.525 109.807c0 4.223-3.412 7.65-7.627 7.65-4.213 0-7.63-3.427-7.63-7.65 0-4.221 3.417-7.647 7.63-7.647 4.215 0 7.627 3.426 7.627 7.647"/><path fill="#343434" d="m51.75 109.719-2.847-1.03-1.557.674-.85 2.807.92 1.2 3.097-.42zm-8.994 6.709h4.242l.376-3.038-.895-1.164v.007h-3.183l-.91 1.21zm-3.528-3.433 3.119.42.906-1.208-.86-2.918.027-.021-1.407-.587.007.126-2.96 1.116zm1.443-7.281.031.007.294 2.911 1.449.602 2.388-1.795v-1.482l-2.394-1.8zm6.665-1.701.019.066-2.421 1.932-.036-.023v1.415l.036-.023 2.421 1.93 1.487-.644-.034-.013.269-3.01zm4.454 5.727-1.241 3.248.62 1.183a7.718 7.718 0 0 1-3.377 2.729l-.754-.4h-4.274l.005.01-.733.388a7.629 7.629 0 0 1-3.413-2.748l.576-1.097-1.208-3.191-.682-.792a7.612 7.612 0 0 1 1.514-3.884l1.804.517 1.796-1.57-.03-.023.497-1.675a7.582 7.582 0 0 1 3.965-.02l.458 1.51 1.772 1.658v-.02l1.77-.524a7.596 7.596 0 0 1 1.62 3.892l-.678.809z"/></g></svg>