<svg version="1.1" xmlns="http://www.w3.org/2000/svg" xmlns:xlink="http://www.w3.org/1999/xlink" width="60.82266" height="117.61425" viewBox="0,0,60.82266,117.61425"><g transform="translate(-209.79929,-120.83311)"><g data-paper-data="{&quot;isPaintingLayer&quot;:true}" fill-rule="evenodd" stroke="none" stroke-width="1" stroke-linecap="butt" stroke-linejoin="miter" stroke-miterlimit="10" stroke-dasharray="" stroke-dashoffset="0" style="mix-blend-mode: normal"><path d="M254.858,232.47c1.795,1.112 3.103,3.472 1.564,5.33c-1.164,1.314 -2.878,0.31 -4.179,-0.237c-1.435,-0.689 -3.08,-1.153 -4.378,-2.05c-0.842,-0.593 -1.83,-1.299 -2.399,-2.178c-0.175,-0.273 -0.256,-0.604 -0.195,-0.864h9.587zM234.38,232.47c-1.798,1.112 -3.103,3.472 -1.564,5.33c1.163,1.314 2.878,0.31 4.174,-0.237c1.44,-0.689 3.084,-1.153 4.383,-2.05c0.839,-0.593 1.829,-1.299 2.394,-2.178c0.18,-0.273 0.26,-0.604 0.198,-0.864h-9.585z" fill="#000001"/><path d="M257.038,206.165l-2.18,26.3h-9.586l-0.49,-19.007h-0.286l-0.535,19.008h-9.58l-2.143,-26.3z" fill="#bc1718"/><path d="M234.164,166.328c0.326,-1.102 -0.052,-3.063 -0.47,-3.752c-0.173,-0.283 -0.695,-0.73 -1.12,-1.075c0.065,-0.385 0.103,-0.731 0.044,-1.062c-0.09,-0.507 -1.044,-1.435 -1.595,-1.435c-0.06271,-0.00076 -0.12483,0.01221 -0.182,0.038c-0.218,0.107 -0.38,0.34 -0.486,0.693c-0.32,1.084 0.043,3 0.457,3.718c-0.205,0.117 -0.358,0.342 -0.457,0.674c-0.324,1.108 0.054,3.064 0.475,3.757c0.04,0.065 0.103,0.147 0.18,0.228c-0.04506,0.06976 -0.08516,0.14261 -0.12,0.218c-0.492,1.041 -0.423,3.034 -0.114,3.785c0.029,0.061 0.07,0.138 0.126,0.224c-0.543,0.822 -0.936,2.12 -0.966,2.937c-0.902,0.67 -1.827,2.158 -1.986,2.948c-0.01105,0.0483 -0.01774,0.0975 -0.02,0.147c-1.031,0.365 -2.269,1.3 -2.667,1.913c-0.05112,0.07841 -0.09338,0.16226 -0.126,0.25c-0.983,0 -2.236,0.292 -2.794,0.65c-0.282,0.176 -0.716,0.708 -1.051,1.143c-0.22236,-0.03885 -0.44733,-0.06091 -0.673,-0.066c-0.14,0 -0.263,0.011 -0.38,0.038c-0.392,0.077 -1.028,0.68 -1.292,1.216c-0.117,0.243 -0.141,0.449 -0.067,0.594c0.24,0.482 1.012,0.584 1.615,0.584c0.914,0 2.061,-0.247 2.669,-0.573c0.02067,0.10467 0.07429,0.19998 0.153,0.272c0.14,0.11 0.326,0.167 0.558,0.167c1.078,0 2.932,-1.288 3.438,-2.067l0.025,-0.045c0.085,0.167 0.191,0.276 0.31,0.317c0.06747,0.01829 0.1371,0.02738 0.207,0.027c0.972,0 2.331,-1.87 2.723,-2.98c0.114,0.109 0.234,0.168 0.344,0.168h0.007c0.247,0 0.497,-0.138 0.744,-0.41c0.725,-0.797 1.283,-2.59 1.24,-3.503h0.02c0.03736,-0.00049 0.07443,-0.00655 0.11,-0.018c0.235,-0.068 0.433,-0.276 0.59,-0.607c0.486,-1.041 0.416,-3.031 0.113,-3.78c-0.03475,-0.07806 -0.07554,-0.15329 -0.122,-0.225c0.02,-0.004 0.036,-0.011 0.052,-0.018c0.223,-0.111 0.387,-0.342 0.488,-0.695c0.322,-1.087 -0.045,-3.002 -0.454,-3.72c0.207,-0.116 0.36,-0.342 0.454,-0.675M255.293,166.328c-0.322,-1.102 0.059,-3.063 0.477,-3.752c0.173,-0.283 0.693,-0.73 1.118,-1.075c-0.067,-0.385 -0.105,-0.731 -0.05,-1.062c0.095,-0.507 1.052,-1.435 1.6,-1.435c0.068,0 0.127,0.013 0.178,0.038c0.223,0.107 0.387,0.34 0.489,0.693c0.32,1.084 -0.043,3 -0.455,3.718c0.205,0.117 0.358,0.342 0.455,0.674c0.328,1.108 -0.054,3.064 -0.475,3.757c-0.04,0.065 -0.104,0.147 -0.178,0.228c0.04,0.066 0.081,0.136 0.122,0.218c0.488,1.041 0.416,3.034 0.112,3.785c-0.03,0.061 -0.072,0.138 -0.124,0.224c0.54,0.822 0.936,2.12 0.961,2.937c0.907,0.67 1.83,2.158 1.991,2.948c0.00986,0.04837 0.01455,0.09764 0.014,0.147c1.037,0.365 2.27,1.3 2.67,1.913c0.043,0.062 0.084,0.148 0.127,0.25c0.983,0 2.236,0.292 2.796,0.65c0.277,0.176 0.714,0.708 1.047,1.143c0.22203,-0.0388 0.44666,-0.06086 0.672,-0.066c0.14,0 0.266,0.011 0.383,0.038c0.391,0.077 1.028,0.68 1.29,1.216c0.116,0.243 0.14,0.449 0.069,0.594c-0.243,0.482 -1.01,0.584 -1.618,0.584c-0.909,0 -2.059,-0.247 -2.666,-0.573c-0.02135,0.10487 -0.07566,0.20017 -0.155,0.272c-0.14,0.11 -0.324,0.167 -0.558,0.167c-1.078,0 -2.93,-1.288 -3.434,-2.067c-0.01179,-0.01373 -0.02186,-0.02884 -0.03,-0.045c-0.082,0.167 -0.188,0.276 -0.31,0.317c-0.0658,0.0181 -0.13376,0.02718 -0.202,0.027c-0.977,0 -2.336,-1.87 -2.725,-2.98c-0.117,0.109 -0.232,0.168 -0.342,0.168h-0.011c-0.243,0 -0.493,-0.138 -0.745,-0.41c-0.724,-0.797 -1.28,-2.59 -1.235,-3.503h-0.023c-0.03739,-0.00012 -0.07452,-0.0062 -0.11,-0.018c-0.234,-0.068 -0.434,-0.276 -0.59,-0.607c-0.49,-1.041 -0.418,-3.031 -0.112,-3.78c0.025,-0.066 0.07,-0.141 0.12,-0.225c-0.01778,-0.00462 -0.03517,-0.01064 -0.052,-0.018c-0.223,-0.111 -0.387,-0.342 -0.49,-0.695c-0.318,-1.087 0.046,-3.002 0.458,-3.72c-0.21,-0.116 -0.358,-0.342 -0.459,-0.675" data-paper-data="{&quot;origPos&quot;:null}" fill="#2c1f0b"/><path d="M211.669,162.864c1.199,-0.512 2.637,-0.043 3.8,1.084c0.528,-0.797 1.152,-1.24 1.73,-1.13c1.08,0.21 1.586,2.292 1.134,4.644c-0.175,0.901 -0.463,1.71 -0.815,2.352c-0.04364,0.28369 -0.11292,0.56283 -0.207,0.834l5.486,6.486l11.637,-4.195c0,0 -1.978,3.16 -2.466,4.311c-0.358,0.842 -1.042,3.498 -1.042,3.498c0,0 -8.503,3.48 -10.915,2.597c-2.979,-1.089 -6.4,-10.861 -6.4,-10.861c-1.285,-0.462 -2.527,-1.694 -3.245,-3.396c-1.116,-2.656 -0.533,-5.439 1.303,-6.224M263.03,178.551c3.656,4.705 5.055,18.854 5.055,18.854c0,0 0,-0.023 -0.004,-0.064c0.47,0.686 0.803,1.574 0.904,2.57c0.252,2.366 -0.873,4.424 -2.51,4.596c-1.067,0.116 -2.089,-0.602 -2.741,-1.772c-0.605,0.502 -1.206,0.704 -1.634,0.475c-0.805,-0.43 -0.708,-2.192 0.214,-3.942c0.31205,-0.61149 0.71759,-1.17054 1.202,-1.657c0.033,-0.07 0.07,-0.145 0.11,-0.213c0,0 -1.59,-10.216 -3.287,-12.632c-0.849,-1.211 -1.443,-2.096 -1.638,-2.633c-0.156,-0.43 -0.282,-1.05 -0.349,-1.363c-0.545,-2.423 -3.528,-7.897 -3.528,-7.897c0,0 6.424,3.387 8.206,5.678" data-paper-data="{&quot;origPos&quot;:null}" fill="#9c6c40"/><path d="M260.459,202.161c0.727,2.187 4.34,24.661 4.34,30.985c-4.518,4.75 -34.663,4.644 -39.842,0.004c0,-6.609 3.178,-29.064 3.82,-31.043c0.06,-3.401 1.289,-20.105 2.056,-21.275c-0.731,0.334 -8.716,3.859 -11.214,3.2c-2.146,-0.566 -5.596,-6.548 -7.27,-10.795c0.979,-1.613 3.607,-2.702 5.589,-2.957c1.328,2.037 2.955,4.605 4.892,6.71l9.228,-3.232c1.372,-0.811 3.534,-1.522 4.81,-1.74c2.619,-0.586 5.954,-0.715 5.954,-0.715l1.75,0.027h0.145l1.74,-0.027c0,0 3.611,0.14 6.289,0.797c1.237,0.269 3.535,1.146 4.59,2.107c0.027,0.014 0.049,0.028 0.074,0.04c1.967,1.068 4.854,3.094 6.104,4.79c1.463,1.983 5.202,13.816 5.355,18.363c-1.462,0.78 -4.594,0.826 -6.142,0c-0.191,-1.673 -2.977,-13.78 -3.888,-14.903c0.22,0.904 1.631,14.104 1.62,19.664" fill="#bcbbbb"/><path d="M227.317,233.455l-1.24,-0.05c0.457,-11.71 2.606,-26.928 4.341,-34.307l1.206,0.283c-1.721,7.327 -3.854,22.436 -4.307,34.074M230.71,234.43l-1.24,-0.032c0.304,-13.028 2.316,-27.15 3.947,-35.282l1.213,0.249c-1.618,8.08 -3.616,22.116 -3.92,35.065M234.169,235.473l-1.24,-0.016c0.144,-12.425 2.353,-28.73 3.881,-36.341l1.213,0.249c-1.512,7.562 -3.713,23.764 -3.854,36.108M236.977,235.597c-0.039,-13.621 1.527,-28.662 3.093,-36.48l1.218,0.247c-1.553,7.755 -3.108,22.694 -3.072,36.23l-1.24,0.003zM241.415,235.929c-0.054,-8.104 0.455,-28.429 1.586,-36.772l1.231,0.167c-1.123,8.287 -1.631,28.524 -1.58,36.596zM263.489,233.455h-1.24c0,-11.887 -2.77,-26.86 -4.63,-34.044l1.199,-0.31c1.876,7.247 4.67,22.333 4.67,34.354M258.918,234.44c-0.645,-15.17 -2.54,-26.243 -4.31,-35.076l1.217,-0.249c1.78,8.878 3.685,20.013 4.333,35.274l-1.24,0.052zM256.31,235.49h-1.24c0,-12.48 -2.077,-27.241 -3.855,-36.117l1.215,-0.24c1.791,8.935 3.882,23.812 3.882,36.358M251.024,235.597c-0.02,-13.17 -1.575,-28.766 -3.072,-36.233l1.215,-0.247c1.72,8.586 3.083,24.611 3.096,36.478l-1.24,0.002zM247.827,235.929l-1.242,-0.01c0.056,-8.07 -0.455,-28.308 -1.575,-36.595l1.228,-0.167c1.13,8.343 1.638,28.668 1.589,36.772" fill="#9b1826"/><path d="M224.964,232.488c10.858,4.182 28.874,4.182 39.818,-0.002c0.009,0.235 0.016,0.455 0.016,0.659c-4.518,4.752 -34.661,4.646 -39.843,0.004c-0.00031,-0.22037 0.00269,-0.44072 0.009,-0.661" fill="#721f2b"/><path d="M260.39,199.435h-31.495c0.338,-5.858 1.301,-17.629 1.938,-18.603c-0.732,0.333 -8.717,3.859 -11.215,3.2c-2.146,-0.566 -5.593,-6.548 -7.27,-10.796c0.98,-1.612 3.608,-2.701 5.59,-2.956c1.33,2.037 2.954,4.605 4.894,6.71l9.225,-3.233c1.374,-0.811 3.534,-1.521 4.81,-1.737c2.619,-0.588 5.954,-0.717 5.954,-0.717l1.752,0.027h0.145l1.74,-0.027c0,0 3.61,0.14 6.29,0.797c1.235,0.269 3.532,1.145 4.59,2.107c0.024,0.014 0.047,0.028 0.072,0.04c1.966,1.068 4.853,3.094 6.106,4.79c1.46,1.983 5.2,13.815 5.355,18.365c-1.465,0.778 -4.595,0.824 -6.145,0c-0.191,-1.676 -2.976,-13.783 -3.885,-14.903c0.188,0.774 1.26,10.651 1.548,16.936z" fill="#eeeeed"/><path d="M251.465,171.684c0,0 -0.44,15.48 -6.745,20.495c0.17,3.611 0.227,3.812 0.225,9.622c5.602,2.824 11.765,0.521 16.074,0.023c-0.646,-4.345 -1.35,-13.112 -1.814,-17.482c-0.279,-2.615 -0.002,-7.954 -1.264,-10.18c-0.893,-0.74 -4.47,-2.562 -6.476,-2.478M237.838,171.684c0,0 1.179,15.48 6.746,20.495c-0.167,3.611 -0.225,3.812 -0.221,9.622c-6.109,3.612 -12.973,0.675 -16.076,0.023c0.646,-4.345 1.348,-13.112 1.813,-17.482c0.28,-2.615 -0.018,-8.286 1.245,-10.517c0.515,-0.425 1.944,-0.876 3.426,-1.449c1.085,-0.423 2.217,-0.726 3.067,-0.692" fill="#bc1718"/><path d="M244.595,175.164c-4.16,0 -3.945,-3.702 -3.945,-3.702c0.70814,-0.08664 1.41882,-0.151 2.131,-0.193l1.753,0.098h0.148l1.75,-0.064c0,0 0.831,0.032 1.965,0.15c0,0 -0.083,3.71 -3.802,3.71" data-paper-data="{&quot;origPos&quot;:null}" fill="#9c6c40"/><path d="M242.684,172.865c-1.064,0 -1.924,-2.297 -1.924,-3.35h7.568c0,1.053 -0.862,3.349 -1.925,3.349h-3.72" data-paper-data="{&quot;origPos&quot;:null}" fill="#9c6c40"/><path d="M241.573,171.997c-0.427,-0.654 -0.729,-1.561 -0.801,-2.221c2.49801,0.41052 5.047,0.40139 7.542,-0.027l-0.013,0.016l-6.728,2.232" data-paper-data="{&quot;origPos&quot;:null}" fill="#eeac6c"/><path d="M243.336,180.128c-0.329,-0.596 -0.765,-2.31 -0.786,-2.38l0.066,-0.02c0.004,0.02 0.452,1.782 0.776,2.366zM245.678,180.128l-0.056,-0.034c0.326,-0.584 0.771,-2.346 0.778,-2.366l0.065,0.02c-0.02,0.07 -0.459,1.784 -0.787,2.38" fill="#d8a31f"/><path d="M243.551,182.757l-0.97,-1.742l0.97,-1.738h1.937l0.968,1.738l-0.968,1.742z" fill="#d8a31f"/><path d="M244.992,181.03c0.00001,0.2525 -0.20351,0.4578 -0.456,0.46c-0.2546,0 -0.461,-0.2064 -0.461,-0.461c0,-0.2546 0.2064,-0.461 0.461,-0.461c0.25,0 0.456,0.208 0.456,0.462" fill="#e9b43e"/><path d="M244.21,179.648c-0.01141,0.24382 -0.21242,0.43563 -0.4565,0.43563c-0.24408,0 -0.44509,-0.19181 -0.4565,-0.43563c0,-0.25 0.204,-0.458 0.454,-0.458c0.25288,0.00055 0.4579,0.20512 0.459,0.458M245.709,179.648c0,0.25184 -0.20416,0.456 -0.456,0.456c-0.25184,0 -0.456,-0.20416 -0.456,-0.456c0.00109,-0.2521 0.2049,-0.45636 0.457,-0.458c0.252,0 0.455,0.209 0.455,0.458M244.21,182.343c0.00787,0.16819 -0.07737,0.32708 -0.22186,0.41353c-0.14449,0.08645 -0.3248,0.08645 -0.46929,0c-0.14449,-0.08645 -0.22973,-0.24535 -0.22186,-0.41353c0,-0.253 0.204,-0.46 0.454,-0.46c0.25366,0.00055 0.459,0.20634 0.459,0.46M245.709,182.343c0,0.25184 -0.20416,0.456 -0.456,0.456c-0.25184,0 -0.456,-0.20416 -0.456,-0.456c0,-0.253 0.205,-0.46 0.457,-0.46c0.252,0 0.455,0.207 0.455,0.46M246.495,181.03c0.00001,0.2525 -0.20351,0.4578 -0.456,0.46c-0.2546,0 -0.461,-0.2064 -0.461,-0.461c0,-0.2546 0.2064,-0.461 0.461,-0.461c0.25,0 0.456,0.208 0.456,0.462M243.49,181.03c0,0.253 -0.203,0.46 -0.455,0.46c-0.12138,-0.00053 -0.23756,-0.04932 -0.32292,-0.13562c-0.08536,-0.0863 -0.13288,-0.203 -0.13208,-0.32438c0,-0.254 0.203,-0.462 0.455,-0.462c0.252,0 0.454,0.208 0.454,0.462" fill="#9f191b"/><path d="M246.434,177.764c-1.12269,0.90809 -2.72731,0.90809 -3.85,0v-0.064c1.1235,0.9058 2.7265,0.9058 3.85,0v0.063z" fill="#d8a31f"/><path d="M243.876,178.27c0.00027,0.06763 -0.02635,0.1326 -0.07398,0.18061c-0.04763,0.04801 -0.11239,0.07513 -0.18002,0.07539c-0.06823,0.00081 -0.13392,-0.02587 -0.18226,-0.07403c-0.04834,-0.04816 -0.07528,-0.11374 -0.07474,-0.18197c0,-0.14111 0.11439,-0.2555 0.2555,-0.2555c0.14111,0 0.2555,0.11439 0.2555,0.2555M244.858,178.47c-0.00848,0.13599 -0.12124,0.24195 -0.2575,0.24195c-0.13626,0 -0.24902,-0.10595 -0.2575,-0.24195c0.00821,-0.13601 0.12077,-0.24219 0.25703,-0.24245c0.13626,-0.00026 0.24923,0.10547 0.25797,0.24145M245.77,178.27c-0.00846,0.13545 -0.12078,0.24098 -0.2565,0.24098c-0.13572,0 -0.24804,-0.10553 -0.2565,-0.24098c-0.00596,-0.09546 0.04158,-0.18634 0.1234,-0.23587c0.08182,-0.04954 0.18438,-0.04954 0.2662,0c0.08182,0.04954 0.12936,0.14041 0.1234,0.23587" fill="#9f191b"/><path d="M244.55,175.152c0,0 3.603,0.048 3.88,-4.26c0.481,-0.157 2.747,0.083 3.5,0.708c1.79,1.486 2.266,7.803 -5.31,7.413c-1.109,-1.152 -2.07,-3.86 -2.07,-3.86" fill="#eeeeed"/><path d="M244.617,175.153c0,0 -1.017,2.918 -2.007,3.86c-7.774,0.358 -6.699,-6.072 -5.313,-7.413c0.633,-0.609 2.858,-0.862 3.31,-0.708c0.079,4.075 4.01,4.26 4.01,4.26" fill="#eeeeed"/><path d="M238.792,178.447c0.14861,0.06677 0.30124,0.12422 0.457,0.172c0.076,0.027 0.152,0.05 0.233,0.07c0.077,0.023 0.156,0.041 0.232,0.062c0.079,0.02 0.158,0.034 0.24,0.052c0.077,0.02 0.156,0.034 0.24,0.047c0.07903,0.0148 0.15838,0.02781 0.238,0.039c0.079,0.011 0.16,0.025 0.238,0.034l0.241,0.027c0.083,0.011 0.164,0.013 0.243,0.02c0.081,0.007 0.162,0.014 0.24,0.018l0.246,0.012c0.158,0.006 0.324,0.002 0.482,0.006c0.085,0 0.166,-0.004 0.245,-0.006l0.24,-0.01l-0.01,0.01c0.065,-0.061 0.123,-0.127 0.182,-0.193c0.058,-0.068 0.112,-0.136 0.162,-0.21c0.051,-0.07 0.103,-0.145 0.148,-0.22c0.05,-0.072 0.097,-0.15 0.142,-0.226c0.18,-0.308 0.342,-0.623 0.495,-0.945c0.30165,-0.64525 0.57787,-1.30209 0.828,-1.969l0.031,-0.086l0.032,0.086c0.117,0.337 0.245,0.674 0.387,1c0.14,0.333 0.288,0.66 0.452,0.976c0.16,0.322 0.335,0.634 0.527,0.935c0.051,0.077 0.099,0.154 0.153,0.225c0.051,0.074 0.103,0.144 0.155,0.217c0.054,0.07 0.11,0.14 0.166,0.21l0.178,0.2l-0.013,-0.01c0.177,0.014 0.357,0.026 0.533,0.028c0.175,0.004 0.35,0 0.53,-0.005c0.70948,-0.03317 1.41278,-0.14793 2.096,-0.342c0.17,-0.052 0.337,-0.106 0.504,-0.167c0.16757,-0.06057 0.3318,-0.13 0.492,-0.208c-0.15937,0.08097 -0.32293,0.15341 -0.49,0.217c-0.50041,0.18548 -1.01603,0.32701 -1.541,0.423c-0.52573,0.08733 -1.05809,0.12848 -1.591,0.123c-0.18,0 -0.358,-0.01 -0.536,-0.023h-0.009l-0.004,-0.007c-0.06245,-0.06536 -0.12314,-0.13239 -0.182,-0.201c-0.059,-0.066 -0.113,-0.138 -0.17,-0.21l-0.159,-0.218c-0.25208,-0.37207 -0.48246,-0.75838 -0.69,-1.157c-0.24342,-0.48318 -0.46432,-0.97737 -0.662,-1.481c-0.0674,-0.16745 -0.13075,-0.3365 -0.19,-0.507l0.064,0.004c-0.25513,0.66759 -0.53668,1.32477 -0.844,1.97c-0.155,0.322 -0.32,0.64 -0.504,0.947c-0.043,0.077 -0.092,0.151 -0.137,0.226c-0.052,0.075 -0.1,0.15 -0.155,0.222c-0.05191,0.07334 -0.10696,0.14441 -0.165,0.213c-0.05838,0.06839 -0.12154,0.13255 -0.189,0.192l-0.004,0.007h-0.01l-0.242,0.004c-0.079,0.005 -0.16,0.007 -0.245,0.007c-0.158,-0.002 -0.324,0 -0.484,-0.011l-0.245,-0.011c-0.08,-0.003 -0.16,-0.014 -0.241,-0.02c-0.079,-0.01 -0.162,-0.014 -0.243,-0.023l-0.24,-0.03c-0.08,-0.011 -0.16,-0.025 -0.242,-0.038c-0.08058,-0.01086 -0.16066,-0.02521 -0.24,-0.043c-0.08009,-0.01381 -0.15979,-0.02982 -0.239,-0.048c-0.079,-0.02 -0.16,-0.038 -0.236,-0.059c-0.081,-0.022 -0.16,-0.038 -0.234,-0.063c-0.079,-0.025 -0.155,-0.048 -0.234,-0.075c-0.07674,-0.02501 -0.15247,-0.05303 -0.227,-0.084c-0.07635,-0.02837 -0.15142,-0.06006 -0.225,-0.095" fill="#727272"/><path d="M267.225,150.614c1.165,0.754 1.93,2.038 1.93,3.498c0,2.323 -1.947,4.207 -4.348,4.207c-0.067,0 -0.134,-0.002 -0.2,-0.005c-3.892,7.017 -11.342,11.765 -19.896,11.765c-8.559,0 -16.016,-4.757 -19.904,-11.785c-0.16,0.014 -0.319,0.025 -0.481,0.025c-2.406,0 -4.352,-1.884 -4.352,-4.207c0,-1.569 0.891,-2.936 2.205,-3.661c-0.152,-1.071 -0.232,-2.169 -0.232,-3.283c0,-12.654 10.191,-22.91 22.764,-22.91c12.573,0 22.767,10.256 22.767,22.91c0,1.168 -0.087,2.323 -0.254,3.446" data-paper-data="{&quot;origPos&quot;:null}" fill="#9c6c40"/><path d="M239.951,145.552c0.211,-0.699 -0.237,-1.552 -1.69,-1.552c-1.454,0 -2.049,-0.031 -3.805,0.603c-2.434,1.064 -2.652,3.925 -2.35,3.312c0.302,-0.613 1.869,-1.53 2.614,-1.7c2.37,-0.433 2.5,0.533 3.238,0.697c1.512,0.335 1.992,-1.36 1.992,-1.36M250.049,145.552c-0.211,-0.699 0.237,-1.552 1.69,-1.552c1.454,0 2.049,-0.031 3.805,0.603c2.434,1.064 2.652,3.925 2.35,3.312c-0.302,-0.613 -1.869,-1.53 -2.614,-1.7c-2.37,-0.433 -2.5,0.533 -3.238,0.697c-1.512,0.335 -1.992,-1.36 -1.992,-1.36" data-paper-data="{&quot;origPos&quot;:null}" fill="#2c1f0b"/><path d="M238,153c0,1.657 -0.895,3 -2,3c-1.105,0 -2,-1.343 -2,-3c0,-1.657 0.895,-3 2,-3c1.105,0 2,1.343 2,3M256,153c0,1.657 -0.895,3 -2,3c-1.105,0 -2,-1.343 -2,-3c0,-1.657 0.895,-3 2,-3c1.105,0 2,1.343 2,3" data-paper-data="{&quot;origPos&quot;:null}" fill="#2c1f0b"/><path d="M242,156c0,0 0.207,-1.042 0.504,-1.342c0.801,-1.195 2.491,-1.658 2.491,-1.658c0,0 2.175,0.727 2.654,1.641c0.443,0.852 0.341,1.28 0.341,1.28c0,0 -2.125,-1.934 -2.965,-1.816c-1.127,0.158 -3.025,1.895 -3.025,1.895z" fill="#e2a86e"/><path d="M238.2,158.696c0,0 6.897,3.208 13.172,-0.397c0,0 -1.39,5.47 -5.95,5.561c-4.115,0.122 -4.984,-1.492 -5.477,-1.956c-0.492,-0.463 -1.42,-1.772 -1.745,-3.208" data-paper-data="{&quot;origPos&quot;:null}" fill="#9b1826"/><path d="M220.959,144.18c0.02455,-1.40583 0.11532,-2.80972 0.272,-4.207c3.058,-10.082 12.375,-17.416 23.393,-17.416c9.594,0 17.899,5.556 21.904,13.648c1.102,3.184 1.786,6.315 1.84,7.723c0.196,4.9 -1.212,6.521 -1.212,6.521c0,0 -4.102,-5.712 -8.955,-9.142c-3.816,-2.693 -7.21,2.513 -11.741,-1.948c-0.403,-0.398 -1.917,-1.938 -1.917,-1.938c0,0 -1.244,1.409 -1.912,1.938c-4.028,3.2 -6.273,-0.434 -10.782,2.036c-3.693,2.015 -9.734,9.22 -9.734,9.22c0,0 -1.19,-3.745 -1.156,-6.435" data-paper-data="{&quot;origPos&quot;:null}" fill="#2c1f0b"/><path d="M268.375,142.104h-47.511l1.308,-19.374c21.35,-4.268 44.898,0 44.898,0z" fill="#9f191b"/><path d="M267.257,125.488c-15.03224,-1.82289 -30.22861,-1.84034 -45.265,-0.052l0.18,-2.706c21.35,-4.267 44.898,0 44.898,0l0.187,2.757" fill="#d8a31f"/><path d="M237.614,125.932c-0.00315,0.52106 -0.4135,0.94855 -0.934,0.973c-0.24556,0.00986 -0.48443,-0.08135 -0.66092,-0.25236c-0.17649,-0.17101 -0.27519,-0.40689 -0.27308,-0.65264c0,-0.519 0.417,-0.958 0.934,-0.974c0.24589,-0.01046 0.48526,0.08069 0.66192,0.25206c0.17666,0.17136 0.27505,0.40785 0.27208,0.65394M239.706,129.096c-0.00294,0.52003 -0.41624,0.94482 -0.936,0.962c-0.24651,0.00707 -0.48529,-0.08643 -0.66145,-0.25901c-0.17616,-0.17258 -0.27455,-0.40939 -0.27255,-0.65599c0,-0.518 0.419,-0.95 0.934,-0.964c0.24688,-0.0065 0.48584,0.08739 0.66225,0.26022c0.17641,0.17283 0.27519,0.40982 0.27375,0.65678M241.6,132.28c-0.00098,0.51932 -0.41678,0.94267 -0.936,0.953c-0.24656,0.00486 -0.48461,-0.09011 -0.66012,-0.26335c-0.1755,-0.17324 -0.27355,-0.41005 -0.27188,-0.65665c0,-0.52 0.419,-0.948 0.932,-0.957c0.2477,-0.00514 0.48694,0.09016 0.66325,0.26422c0.17631,0.17405 0.2747,0.41204 0.27275,0.65978M243.496,135.48c0.00004,0.51781 -0.41623,0.93943 -0.934,0.946c-0.24749,0.00214 -0.48555,-0.09489 -0.66103,-0.26943c-0.17548,-0.17454 -0.27378,-0.41207 -0.27297,-0.65957c0,-0.52 0.417,-0.944 0.934,-0.95c0.24769,-0.00107 0.48557,0.09672 0.66091,0.27168c0.17533,0.17496 0.27363,0.41263 0.27309,0.66032M245.522,138.696c0,0.51639 -0.41861,0.935 -0.935,0.935c-0.51639,0 -0.935,-0.41861 -0.935,-0.935c-0.00111,-0.51837 0.41763,-0.9398 0.936,-0.942c0.51758,0.0033 0.93511,0.42441 0.934,0.942M233.654,129.31c0,0.519 0.421,0.917 0.936,0.897c0.51983,-0.02949 0.92757,-0.45735 0.932,-0.978c0.0039,-0.24559 -0.0941,-0.48182 -0.27068,-0.65254c-0.17659,-0.17072 -0.416,-0.26067 -0.66132,-0.24846c-0.52182,0.02998 -0.93107,0.45934 -0.936,0.982M231.763,132.629c0,0.518 0.418,0.915 0.933,0.888c0.52288,-0.03211 0.9313,-0.46414 0.934,-0.988c0.00385,-0.24497 -0.09483,-0.48041 -0.2722,-0.64943c-0.17737,-0.16901 -0.41729,-0.25623 -0.6618,-0.24057c-0.52213,0.03505 -0.92894,0.46671 -0.933,0.99M229.87,135.966c0,0.518 0.42,0.91 0.935,0.878c0.515,-0.032 0.931,-0.475 0.931,-0.994c0.00456,-0.24405 -0.09374,-0.47877 -0.27084,-0.64674c-0.17711,-0.16797 -0.41669,-0.25372 -0.66016,-0.23626c-0.52372,0.0395 -0.92977,0.47381 -0.934,0.999M227.847,139.326c0,0.519 0.419,0.906 0.932,0.872c0.517,-0.036 0.933,-0.484 0.933,-1.005c0.00454,-0.24364 -0.09438,-0.4778 -0.27222,-0.64439c-0.17784,-0.1666 -0.41795,-0.25003 -0.66078,-0.22961c-0.52265,0.04757 -0.92494,0.48223 -0.932,1.007M223.976,130c0,0.519 -0.419,0.978 -0.93,1.026c-0.23999,0.0301 -0.48117,-0.04599 -0.66045,-0.20836c-0.17927,-0.16237 -0.2788,-0.39485 -0.27255,-0.63664c0,-0.518 0.418,-0.982 0.933,-1.03c0.511,-0.052 0.93,0.33 0.93,0.85M225.865,133.05c0,0.518 -0.418,0.973 -0.931,1.018c-0.24102,0.02721 -0.48204,-0.0511 -0.66105,-0.21477c-0.17901,-0.16367 -0.27852,-0.39674 -0.27295,-0.63923c0,-0.518 0.416,-0.975 0.934,-1.02c0.24049,-0.02529 0.48027,0.05391 0.65837,0.21748c0.17811,0.16357 0.2774,0.39575 0.27263,0.63752M227.757,136.116c0,0.518 -0.419,0.971 -0.934,1.012c-0.2416,0.02451 -0.48207,-0.0561 -0.66007,-0.22128c-0.17801,-0.16518 -0.27634,-0.39896 -0.26993,-0.64172c0,-0.518 0.413,-0.973 0.93,-1.016c0.24228,-0.02284 0.48281,0.05876 0.66117,0.22433c0.17836,0.16556 0.27761,0.39936 0.27283,0.64267M265.264,130c0,0.519 0.419,0.978 0.934,1.026c0.23924,0.02925 0.47934,-0.04733 0.65747,-0.2097c0.17813,-0.16237 0.27656,-0.39437 0.26953,-0.6353c0,-0.518 -0.416,-0.982 -0.927,-1.03c-0.24068,-0.02882 -0.482,0.04838 -0.66127,0.21153c-0.17927,0.16315 -0.2788,0.39615 -0.27273,0.63847M263.375,133.05c0,0.518 0.418,0.973 0.933,1.018c0.2406,0.02699 0.48109,-0.05153 0.65942,-0.21528c0.17833,-0.16375 0.27701,-0.3967 0.27058,-0.63872c-0.00718,-0.52637 -0.40653,-0.96437 -0.93,-1.02c-0.24082,-0.02591 -0.48115,0.05302 -0.65971,0.21666c-0.17857,0.16364 -0.27812,0.39618 -0.27329,0.63834M261.483,136.116c0,0.518 0.418,0.971 0.934,1.012c0.24154,0.02382 0.4817,-0.057 0.6597,-0.222c0.178,-0.165 0.27677,-0.39835 0.2713,-0.641c0,-0.518 -0.416,-0.973 -0.931,-1.016c-0.24228,-0.02284 -0.48281,0.05876 -0.66117,0.22433c-0.17836,0.16556 -0.27761,0.39936 -0.27283,0.64267M259.463,139.19c0,0.518 0.419,0.966 0.93,1c0.24205,0.02221 0.48211,-0.05964 0.66016,-0.2251c0.17805,-0.16546 0.27727,-0.39888 0.27284,-0.6419c0,-0.52 -0.416,-0.971 -0.933,-1.01c-0.24238,-0.01829 -0.48127,0.06623 -0.6582,0.23289c-0.17693,0.16666 -0.27558,0.40007 -0.2718,0.64311M253.43,125.998c0,0.518 -0.42,0.92 -0.934,0.903c-0.5211,-0.02034 -0.93372,-0.44751 -0.936,-0.969c-0.00294,-0.2468 0.0956,-0.48397 0.27257,-0.65602c0.17696,-0.17205 0.41682,-0.26387 0.66343,-0.25398c0.513,0.02 0.934,0.457 0.934,0.976M255.52,129.308c0.00223,0.24508 -0.09671,0.48023 -0.27348,0.65c-0.17677,0.16977 -0.41573,0.25913 -0.66052,0.247c-0.5222,-0.03001 -0.93159,-0.45995 -0.936,-0.983c0,-0.516 0.418,-0.92 0.936,-0.899c0.52067,0.03395 0.92731,0.46325 0.933,0.985M257.411,132.627c0.003,0.24445 -0.09605,0.47909 -0.27332,0.64744c-0.17727,0.16835 -0.41671,0.25517 -0.66068,0.23956c-0.52099,-0.03495 -0.92738,-0.46487 -0.933,-0.987c0,-0.518 0.42,-0.919 0.933,-0.892c0.516,0.027 0.934,0.473 0.934,0.992M259.303,135.961c0.0043,0.24354 -0.09404,0.47765 -0.27097,0.64506c-0.17692,0.16741 -0.41611,0.25268 -0.65903,0.23494c-0.52304,-0.03795 -0.92961,-0.47061 -0.935,-0.995c-0.00437,-0.24489 0.09469,-0.48028 0.27286,-0.64836c0.17816,-0.16807 0.41892,-0.25326 0.66314,-0.23464c0.513,0.031 0.929,0.48 0.929,0.998M249.47,129.094c0,0.518 0.419,0.946 0.934,0.962c0.24667,0.00764 0.48578,-0.08567 0.66207,-0.25838c0.17629,-0.1727 0.2745,-0.40985 0.27193,-0.65662c-0.0003,-0.52034 -0.4139,-0.94633 -0.934,-0.962c-0.24651,-0.00707 -0.48529,0.08643 -0.66145,0.25901c-0.17616,0.17258 -0.27455,0.40939 -0.27255,0.65599M247.576,132.28c0,0.516 0.419,0.942 0.934,0.953c0.24727,0.00432 0.48583,-0.09132 0.66164,-0.26525c0.17581,-0.17393 0.27401,-0.41144 0.27236,-0.65875c-0.00146,-0.51869 -0.41547,-0.94201 -0.934,-0.955c-0.24746,-0.00377 -0.486,0.09232 -0.66175,0.26656c-0.17575,0.17425 -0.27389,0.41195 -0.27225,0.65944M245.678,135.48c0,0.518 0.42,0.941 0.934,0.943c0.52,0.005 0.936,-0.41 0.936,-0.928c0.00113,-0.51953 -0.41651,-0.94297 -0.936,-0.949c-0.24786,-0.00107 -0.4859,0.09686 -0.66126,0.27203c-0.17536,0.17517 -0.27354,0.4131 -0.27274,0.66097" fill="#d8a31f"/></g></g></svg>