<svg xmlns="http://www.w3.org/2000/svg" width="120" height="120"><g fill="none" transform="matrix(-1 0 0 1 120 45)"><path fill="#34373E" d="M15.026 20.73h36.915v5.213H15.026z"/><path fill="#793800" d="M15.026 20.73h8.868V5.386H6.317c-1.918 0-3.555 1.386-3.818 3.273l-1.496 7.81v11.085h14.041V20.73h-.018z"/><path fill="#662F00" d="M117.871 19.085H35.472a.525.525 0 0 1-.528-.52v-.156c0-.294.247-.52.528-.52h81.308c.616 0 1.109.486 1.109 1.092v.104h-.018z"/><path fill="#34373E" d="M117.8 22.67H66.036l-9.255-3.585h61.02z"/><path fill="#34373E" d="M118.856 25.406h-1.073v-6.321h.387c.37 0 .669.294.669.658v5.663h.017z"/><path fill="#A8A8A8" d="M119.666 25.406h-.81V23.97h.81c.176 0 .316.138.316.311v.814c0 .174-.14.312-.316.312z"/><g transform="translate(88.328 20.782)"><path fill="#252229" d="M8.287.346h-5.19C2.164.346 1.32.883.95 1.732l-.352.796c-.14.295-.193.624-.193.953v3.793h10.61v-3.81c0-.33-.07-.641-.194-.953l-.352-.796A2.43 2.43 0 0 0 8.287.346z"/><ellipse cx="5.701" cy="5.49" fill="#514B5A" rx="4.592" ry="4.52"/><ellipse cx="5.701" cy="5.49" fill="#EDEDEE" rx="2.657" ry="2.615"/><ellipse cx="5.701" cy="5.49" fill="#793800" rx="1.232" ry="1.212"/><path fill="#793800" d="M.739 5.109V3.256c0-.295.07-.572.194-.831l.334-.71C1.619.97 2.41.485 3.273.485h4.856c.88 0 1.654.485 2.006 1.23l.334.71c.123.26.194.554.194.83V5.11h.633V3.204c0-.33-.07-.64-.211-.953l-.37-.796C10.312.623 9.432.069 8.446.069H2.975c-.986 0-1.865.537-2.27 1.386l-.37.796a2.23 2.23 0 0 0-.21.953v1.905H.74z"/><path fill="#252229" d="M20.516.346h-5.19c-.933 0-1.778.537-2.147 1.386l-.352.796c-.14.295-.194.624-.194.953v3.793h10.593v-3.81c0-.33-.07-.641-.194-.953l-.352-.796A2.385 2.385 0 0 0 20.516.346z"/><ellipse cx="17.93" cy="5.49" fill="#514B5A" rx="4.592" ry="4.52"/><ellipse cx="17.93" cy="5.49" fill="#EDEDEE" rx="2.657" ry="2.615"/><ellipse cx="17.93" cy="5.49" fill="#793800" rx="1.232" ry="1.212"/><path fill="#793800" d="M12.968 5.109V3.256c0-.295.07-.572.193-.831l.335-.71C13.848.97 14.639.485 15.5.485h4.857c.88 0 1.654.485 2.006 1.23l.334.71c.123.26.193.554.193.83V5.11h.634V3.204c0-.33-.07-.64-.211-.953l-.37-.796C22.54.623 21.66.069 20.674.069h-5.472c-.985 0-1.865.537-2.27 1.386l-.369.796c-.14.295-.211.624-.211.953v1.905h.616z"/></g><g fill="#4F2500"><path d="M26.868 27.398h-6.897a.745.745 0 0 1-.757-.745v-2.338c0-.416.334-.745.757-.745h6.897c.422 0 .757.33.757.745v2.338a.745.745 0 0 1-.757.745z"/><path d="M23.718 23.57h-1.372v-.38c0-.122.088-.208.211-.208h.95c.123 0 .211.086.211.207v.381z"/></g><g transform="translate(28.68 20.955)"><path fill="#252229" d="M8.323.294H3.132C2.199.294 1.355.831.985 1.68l-.352.797C.493 2.77.44 3.1.44 3.429v3.793h10.61V3.429c0-.329-.07-.64-.194-.952l-.352-.797A2.446 2.446 0 0 0 8.323.294z"/><ellipse cx="5.718" cy="5.438" fill="#514B5A" rx="4.592" ry="4.52"/><ellipse cx="5.718" cy="5.438" fill="#EDEDEE" rx="2.657" ry="2.615"/><ellipse cx="5.718" cy="5.438" fill="#793800" rx="1.232" ry="1.212"/><path fill="#793800" d="M.757 5.057V3.204c0-.295.07-.572.193-.831l.334-.71C1.636.918 2.428.433 3.29.433h4.857c.88 0 1.654.485 2.005 1.23l.335.71c.123.26.193.554.193.83v1.854h.634V3.152c0-.33-.07-.64-.211-.953l-.37-.796C10.328.572 9.45.017 8.463.017H2.991c-.985 0-1.865.537-2.27 1.386l-.37.796a2.23 2.23 0 0 0-.21.953v1.905h.616z"/><path fill="#252229" d="M20.551.294h-5.19c-.933 0-1.777.537-2.147 1.386l-.352.797c-.14.294-.193.623-.193.952v3.793h10.61V3.429c0-.329-.07-.64-.194-.952l-.352-.797A2.446 2.446 0 0 0 20.551.294z"/><ellipse cx="17.947" cy="5.438" fill="#514B5A" rx="4.592" ry="4.52"/><ellipse cx="17.947" cy="5.438" fill="#EDEDEE" rx="2.657" ry="2.615"/><ellipse cx="17.947" cy="5.438" fill="#793800" rx="1.232" ry="1.212"/><path fill="#793800" d="M12.985 5.057V3.204c0-.295.07-.572.194-.831l.334-.71c.352-.745 1.144-1.23 2.006-1.23h4.856c.88 0 1.654.485 2.006 1.23l.335.71c.123.26.193.554.193.83v1.854h.634V3.152c0-.33-.07-.64-.212-.953l-.37-.796C22.558.572 21.678.017 20.693.017H15.22c-.985 0-1.865.537-2.27 1.386l-.37.796a2.23 2.23 0 0 0-.21.953v1.905h.615z"/></g><path fill="#632E00" d="M14.692 20.73h-5.19c-.933 0-1.778.537-2.147 1.386l-.352.796c-.14.295-.194.624-.194.953v3.793h10.61v-3.793c0-.33-.07-.641-.193-.953l-.352-.796a2.446 2.446 0 0 0-2.182-1.386z"/><ellipse cx="12.088" cy="26.272" fill="#514B5A" rx="4.592" ry="4.52"/><ellipse cx="12.088" cy="26.272" fill="#EDEDEE" rx="2.657" ry="2.615"/><ellipse cx="12.088" cy="26.272" fill="#793800" rx="1.232" ry="1.212"/><path fill="#662F00" d="M23.894 5.403H13.848V4.97c0-.415.246-.796.633-.987l8.182-3.88c.58-.276 1.249.14 1.249.763v4.537h-.018z"/><path fill="#34373E" d="M2.34 27.554H.81a.756.756 0 0 1-.757-.745v-3.654c0-.399.334-.745.756-.745H2.34c.405 0 .757.33.757.745v3.654a.745.745 0 0 1-.757.745z"/><path fill="#D7D7D7" d="m3.097 9.664-1.302 6.425h8.2V9.664z"/><path fill="#632E00" d="M9.695 18.08H8.27a.294.294 0 1 1 0-.588h1.425a.294.294 0 1 1 0 .588z"/><path fill="#5E2C00" d="M23.894 8.919v-.9H2.64a4.24 4.24 0 0 0-.158.64l-.053.26h21.466zm-13.284 0h1V20.73h-1zm10.628 0h1V20.73h-1z"/><path fill="#D7D7D7" d="M19.232 13.872H12.95a1.05 1.05 0 0 1-1.056-1.039v-2.148c0-.571.476-1.039 1.056-1.039h6.282c.58 0 1.055.468 1.055 1.04v2.147a1.04 1.04 0 0 1-1.055 1.04zM.985 25.216H.053v-1.957h.932c.317 0 .581.26.581.571v.797a.563.563 0 0 1-.58.589zm.933-5.767H.985v-1.957h.933c.317 0 .58.26.58.571v.797a.584.584 0 0 1-.58.589z"/><path fill="#793800" d="M1.443 26.497H.07v-.571h1.373c.158 0 .299.12.299.294 0 .156-.14.277-.3.277z"/><path fill="#252229" d="M38.217 19.085h6.633v1.645h-6.633z"/><path fill="#D5D5D5" d="M35.806 3.43h81.202v14.46H35.806z"/><path fill="#EBEBEB" d="M33.15 10.65c0 3.984 1.178 7.223 2.656 7.223V3.412c-1.46.017-2.656 3.238-2.656 7.239zm83.859-7.22v14.46c1.46 0 2.657-3.239 2.657-7.222 0-3.983-1.197-7.239-2.657-7.239zM51.22 3.429H41.032v-.381c0-.502.423-.918.933-.918h8.34c.51 0 .933.416.933.918v.381h-.018zm30.281 0H71.314v-.381c0-.502.422-.918.932-.918h8.34c.51 0 .933.416.933.918v.381h-.018zm30.282 0h-10.188v-.381c0-.502.423-.918.933-.918h8.322c.51 0 .933.416.933.918v.381z"/></g></svg>