<svg xmlns="http://www.w3.org/2000/svg" width="52.206" height="117.718"><g stroke-miterlimit="10" data-paper-data="{&quot;isPaintingLayer&quot;:true}" style="mix-blend-mode:normal"><path fill="#f26b30" fill-rule="evenodd" d="M21.716 112.3s2.053 2.046 1.804 5.15l-13.018-.056s-.046-2.678 3.96-3.143l3.132-1.967 4.122.015z"/><path fill="#fff" fill-rule="evenodd" d="m17.228 112.512 1.016.566c.195.108.007.382-.187.273l-1.147-.64zm-.578.364 1.11.618c.195.106.007.38-.188.273-.412-.232-.827-.462-1.24-.692zm.437 1.306c-.444-.247-.888-.496-1.333-.742l.317-.2c.402.22.803.446 1.204.668.194.108.008.382-.188.274m-.486.414-1.425-.793.318-.2 1.296.72c.194.109.007.383-.188.273m-.485.416c-.505-.283-1.012-.565-1.52-.846l.319-.2 1.389.773c.194.109.007.38-.188.273M10.5 117.66c-.38-.002-.377-.537.003-.536l13.016.058c.38.003.377.537-.001.535-4.338-.017-8.68-.037-13.018-.057m7.093-5.11c-.38-.002-.38-.54 0-.537 1.375.008 2.749.012 4.123.018.38.002.378.539-.002.536l-4.122-.017"/><path fill="#f26b30" fill-rule="evenodd" d="m29.418 112.299 4.123-.015 3.13 1.967c4.008.465 3.96 3.143 3.96 3.143l-13.016.056c-.25-3.104 1.803-5.15 1.803-5.15z"/><path fill="#fff" fill-rule="evenodd" d="m34.224 112.712-1.147.639c-.194.109-.382-.165-.188-.273.34-.188.678-.377 1.017-.566zm.578.363c-.413.23-.828.46-1.24.692-.195.107-.383-.167-.188-.273l1.11-.618zm-.755 1.107c-.195.108-.382-.166-.188-.274.4-.222.802-.447 1.203-.668l.318.2c-.445.246-.89.495-1.333.742m.485.414c-.195.11-.382-.164-.188-.273l1.296-.72.318.2c-.475.265-.951.53-1.426.793m.485.416c-.195.108-.382-.164-.188-.273l1.389-.773.318.2c-.507.28-1.013.563-1.52.846m5.617 2.649c-4.34.02-8.68.04-13.018.057-.378.002-.381-.532-.001-.535l13.017-.058c.38-.001.382.534.002.536m-7.091-5.11-4.123.017c-.38.003-.383-.534-.002-.536 1.374-.006 2.748-.01 4.123-.018.379-.002.382.535.002.537"/><path fill="#795c4c" fill-rule="evenodd" d="M.543 25.068c1.69-1.493 3.668 2.236 3.668 2.236a47.861 47.861 0 0 0 .026 4.626l-.026.044c-2.812-.747-5.358-5.413-3.668-6.906" data-paper-data="{&quot;origPos&quot;:null}"/><path fill="#795c4c" fill-rule="evenodd" d="M25.655 4.07s24.927-2.238 21.969 30.097c0 0-.562 8.258-7.182 11.058-6.618 2.8-11.548 4.479-11.548 8.538 0 0-.047 2.287-3.24 2.287-3.191 0-3.238-2.287-3.238-2.287 0-4.058-4.93-5.738-11.548-8.538-6.62-2.8-7.183-11.058-7.183-11.058C.727 1.83 25.655 4.07 25.655 4.07" data-paper-data="{&quot;origPos&quot;:null}"/><path fill="#795c4c" fill-rule="evenodd" d="M51.256 25.068c1.69 1.493-.855 6.159-3.667 6.906l-.026-.044c.083-1.541.092-3.085.026-4.626 0 0 1.977-3.73 3.667-2.236" data-paper-data="{&quot;origPos&quot;:null}"/><path fill="#2b2629" fill-rule="evenodd" d="M38.61 31.927c0 1.263-.65 2.286-1.453 2.286-.805 0-1.456-1.023-1.456-2.286 0-1.262.65-2.286 1.456-2.286.803 0 1.454 1.024 1.454 2.286m-23.378 0c0 1.263-.651 2.286-1.455 2.286s-1.455-1.023-1.455-2.286c0-1.262.65-2.286 1.455-2.286.804 0 1.455 1.024 1.455 2.286"/><path fill="#efb1a0" fill-rule="evenodd" d="M23.214 35.52s2.63 1.493 4.506 0c0 0-1.126 3.08-4.506 0"/><path fill="#e5a698" fill-rule="evenodd" d="m15.6 36.889.217.108c.14.07.35.163.615.284.26.127.597.247.964.412.38.134.796.318 1.267.468l.73.245.79.228c.533.177 1.125.262 1.712.42.604.094 1.222.227 1.857.283l.959.094c.32.036.646.013.969.023.323 0 .647.03.968.009.32-.025.64-.05.958-.073.639-.022 1.25-.163 1.852-.255l.446-.073c.146-.034.287-.08.429-.115l.83-.223c.55-.123 1.04-.326 1.502-.5l.663-.25a3.59 3.59 0 0 0 .592-.243l.942-.457c.528-.25.84-.385.84-.385s-.26.208-.728.563l-.858.633c-.33.254-.756.44-1.2.69l-.704.375c-.24.14-.52.207-.791.319l-.85.313c-.145.052-.291.112-.443.154l-.466.105c-.63.125-1.272.334-1.951.36l-1.02.097c-.341.028-.685.005-1.03.008-.342-.016-.687 0-1.027-.043-.34-.04-.678-.08-1.014-.118a6.702 6.702 0 0 1-.986-.176l-.953-.213c-.612-.191-1.21-.347-1.75-.58l-.79-.314-.715-.347c-.462-.21-.854-.466-1.214-.664-.346-.223-.65-.412-.886-.59-.241-.168-.42-.317-.541-.417l-.185-.155"/><path fill="#5f3117" fill-rule="evenodd" d="M51.815 4.038s2.3 8.11-4.252 8.593c0 0 1.62 14.529 0 17.01-1.62 2.48-4.793-6.474-7.71-9.24 0 0 2.785 7.375 0 6.322-2.787-1.054-16.17-8.034-18.82-8.297 0 0 3.843 6.058.795 5.268-3.047-.791-10.525-1.413-13.013-3.735.574 6.19-.414 13.338-3.55 13.48 0 0-6.298-19.754-1.028-22.257 1.226-.583 2.253.299 3.034 1.997-.002-.008-1.541-9.241 6.506-11.61 8.05-2.371 17.967-1.976 25.067.658 7.099 2.634 11.249 4.445 12.97 1.81"/><path fill="#80789b" fill-rule="evenodd" d="M37.688 85.347s-1.196 21.349-1.852 28.377h-7.833s-.41-4.428-2.348-22.207v-.001c-1.851 17.648-2.348 22.208-2.348 22.208h-7.833c-.656-7.027-1.852-28.377-1.852-28.377l12.033 1.704v-.001z"/><path fill="#6d6789" fill-rule="evenodd" d="M37.408 90.195c-2.61-.497-3.566-2.758-3.916-4.254l4.195-.594s-.108 1.943-.278 4.848m-23.473 0c2.609-.497 3.566-2.758 3.916-4.254l-4.196-.594s.11 1.943.28 4.848"/><path fill="#795c4c" fill-rule="evenodd" d="M37.845 58.478c4.457 7.679 6.632 17.268 5.752 26.108 0 0-.418 3.683-.84 4.313-.423.63-3.451 0-3.825-.42-.375-.42.495-3.08.495-3.08s-1.318.56-1.74 0c-.423-.56 1.74-1.356 1.74-1.356.67-7.988-1.204-16.51-5.23-23.445-1.364-2.35 2.288-4.465 3.648-2.12m-24.436 0c1.36-2.345 5.012-.231 3.648 2.119-4.025 6.936-5.9 15.458-5.23 23.446 0 0 2.164.796 1.74 1.356-.422.56-1.74 0-1.74 0s.87 2.66.496 3.08c-.375.42-3.403 1.05-3.825.42-.422-.63-.842-4.313-.842-4.313-.88-8.84 1.296-18.428 5.753-26.108" data-paper-data="{&quot;origPos&quot;:null}"/><path fill="#f26b30" fill-rule="evenodd" d="M33.952 61.272s2.64 17.69 4.096 23.914c0 0-3.591 1.867-12.217 1.867l-.176-.002-.176.002c-8.626 0-12.218-1.867-12.218-1.867 1.457-6.224 4.097-23.914 4.097-23.914l-1.42 2.886-4.48-2.64c2.655-8.824 10.958-7.755 10.958-7.755.713 2.135 3.233 2.1 3.239 2.1.005 0 2.525.035 3.239-2.1 0 0 2.417-.312 5.06.788a.5.5 0 0 0 .374.185.499.499 0 0 0 .27.146c.164.139.358.243.57.302.142.121.306.217.485.279 1.69 1.139 3.282 3.006 4.199 6.055l-4.481 2.64z"/><path fill="#f9875f" fill-rule="evenodd" d="M11.65 60.863a.747.747 0 0 0 .063-.328c.132-.233.237-.484.312-.747.056-.1.107-.202.153-.307 8.893 1.132 18.09 1.427 26.95.407.121.511.344 1.092.544 1.39-9.21 1.1-18.778.787-28.023-.415z" data-paper-data="{&quot;origPos&quot;:null}"/><path fill="#f9875f" d="M16.516 67.176c.096-.475.14-.978.11-1.435 5.972.56 12.033.714 17.991.321-.048.474-.025 1 .085 1.442-6.024.395-12.148.238-18.186-.328z" data-paper-data="{&quot;origPos&quot;:null}"/><path fill="#f9875f" fill-rule="evenodd" d="M15.494 72.845a4.57 4.57 0 0 0 .392-1.407c6.516.647 13.145.818 19.641.328-.14.355-.1.822.191 1.433-6.69.51-13.517.327-20.224-.354z" data-paper-data="{&quot;origPos&quot;:null}"/><path fill="#f9875f" d="M14.47 78.505c.233-.407.383-.934.386-1.406 7.19.771 14.535.971 21.701.352a5.266 5.266 0 0 0 .075 1.443c-7.323.628-14.822.412-22.162-.39zM13.594 84.174c.193-.382.27-.917.262-1.418 7.85.901 15.905 1.132 23.727.368-.108.664.03 1.12.323 1.42-8.016.798-16.267.561-24.312-.37zM35.168 55.184c.154.132.335.233.533.294.123.133.25.263.379.39-6.823.545-13.792.365-20.636-.333.338-.106.64-.289.889-.529a.502.502 0 0 0 .24-.207c.086-.03.169-.063.25-.102a.497.497 0 0 0 .25-.083.499.499 0 0 0 .275-.146.497.497 0 0 0 .252-.078.497.497 0 0 0 .232-.078c1.647.14 3.3.247 4.954.32a3.494 3.494 0 0 0 2.767 1.357c.587 0 1.14-.144 1.625-.4.43-.203.812-.493 1.123-.845 1.895-.008 3.786-.066 5.667-.177.088.1.216.165.36.17a.499.499 0 0 0 .27.145c.164.139.358.243.57.302z" data-paper-data="{&quot;origPos&quot;:null}"/></g></svg>