<svg version="1.1" xmlns="http://www.w3.org/2000/svg" xmlns:xlink="http://www.w3.org/1999/xlink" width="52.20601" height="117.71757" viewBox="0,0,52.20601,117.71757"><g transform="translate(-214.49132,-121.00043)"><g data-paper-data="{&quot;isPaintingLayer&quot;:true}" stroke="none" stroke-width="1" stroke-linecap="butt" stroke-linejoin="miter" stroke-miterlimit="10" stroke-dasharray="" stroke-dashoffset="0" style="mix-blend-mode: normal"><path d="M236.207,233.3c0,0 2.053,2.046 1.804,5.15l-13.018,-0.056c0,0 -0.046,-2.678 3.96,-3.143l3.132,-1.967l4.122,0.015z" fill="#f26b30" fill-rule="evenodd"/><path d="M231.719,233.512l1.016,0.566c0.195,0.108 0.007,0.382 -0.187,0.273l-1.147,-0.639zM231.141,233.876l1.11,0.618c0.195,0.106 0.007,0.38 -0.188,0.273c-0.412,-0.232 -0.827,-0.462 -1.24,-0.692zM231.578,235.182c-0.444,-0.247 -0.888,-0.496 -1.333,-0.742l0.317,-0.2c0.402,0.221 0.803,0.446 1.204,0.668c0.194,0.108 0.008,0.382 -0.188,0.274M231.092,235.596l-1.425,-0.793l0.318,-0.2l1.296,0.72c0.194,0.109 0.007,0.383 -0.188,0.273M230.608,236.012c-0.505,-0.283 -1.012,-0.565 -1.519,-0.846l0.318,-0.2l1.389,0.773c0.194,0.109 0.007,0.381 -0.188,0.273M224.992,238.661c-0.38,-0.002 -0.377,-0.537 0.003,-0.536l13.016,0.058c0.38,0.003 0.377,0.537 -0.001,0.535c-4.338,-0.017 -8.679,-0.037 -13.018,-0.057M232.085,233.551c-0.38,-0.002 -0.379,-0.539 0,-0.537c1.375,0.008 2.749,0.012 4.123,0.018c0.381,0.002 0.378,0.539 -0.002,0.536l-4.122,-0.017" fill="#ffffff" fill-rule="evenodd"/><path d="M243.909,233.299l4.123,-0.015l3.13,1.967c4.008,0.465 3.96,3.143 3.96,3.143l-13.016,0.056c-0.25,-3.104 1.803,-5.15 1.803,-5.15z" fill="#f26b30" fill-rule="evenodd"/><path d="M248.715,233.712l-1.147,0.639c-0.194,0.109 -0.382,-0.165 -0.188,-0.273c0.34,-0.188 0.678,-0.377 1.017,-0.566zM249.293,234.075c-0.413,0.23 -0.828,0.46 -1.24,0.692c-0.195,0.107 -0.383,-0.167 -0.188,-0.273l1.11,-0.618zM248.538,235.182c-0.195,0.108 -0.382,-0.166 -0.188,-0.274c0.401,-0.222 0.802,-0.447 1.203,-0.668l0.318,0.2c-0.445,0.246 -0.889,0.495 -1.333,0.742M249.023,235.596c-0.195,0.11 -0.382,-0.164 -0.188,-0.273l1.296,-0.72l0.318,0.2c-0.475,0.265 -0.951,0.53 -1.426,0.793M249.508,236.012c-0.195,0.108 -0.382,-0.164 -0.188,-0.273l1.389,-0.773l0.318,0.2c-0.507,0.281 -1.013,0.563 -1.52,0.846M255.124,238.661c-4.339,0.02 -8.68,0.04 -13.018,0.057c-0.378,0.002 -0.381,-0.532 -0.001,-0.535l13.017,-0.058c0.38,-0.001 0.382,0.534 0.002,0.536M248.033,233.551l-4.123,0.017c-0.38,0.003 -0.383,-0.534 -0.002,-0.536c1.374,-0.006 2.748,-0.01 4.123,-0.018c0.379,-0.002 0.382,0.535 0.002,0.537" fill="#ffffff" fill-rule="evenodd"/><path d="M215.034,146.068c1.69,-1.493 3.668,2.236 3.668,2.236c-0.0659,1.54152 -0.05723,3.08532 0.026,4.626l-0.026,0.044c-2.812,-0.747 -5.358,-5.413 -3.668,-6.906" data-paper-data="{&quot;origPos&quot;:null}" fill="#795c4c" fill-rule="evenodd"/><path d="M240.146,125.07c0,0 24.927,-2.238 21.969,30.097c0,0 -0.562,8.258 -7.182,11.058c-6.618,2.8 -11.548,4.479 -11.548,8.538c0,0 -0.047,2.287 -3.239,2.287c-3.192,0 -3.239,-2.287 -3.239,-2.287c0,-4.058 -4.929,-5.738 -11.548,-8.538c-6.62,-2.8 -7.183,-11.058 -7.183,-11.058c-2.958,-32.336 21.97,-30.096 21.97,-30.096" data-paper-data="{&quot;origPos&quot;:null}" fill="#795c4c" fill-rule="evenodd"/><path d="M265.747,146.068c1.69,1.493 -0.855,6.159 -3.667,6.906l-0.026,-0.044c0.08323,-1.54068 0.0919,-3.08448 0.026,-4.626c0,0 1.977,-3.729 3.667,-2.236" data-paper-data="{&quot;origPos&quot;:null}" fill="#795c4c" fill-rule="evenodd"/><path d="M253.102,152.927c0,1.263 -0.651,2.286 -1.454,2.286c-0.805,0 -1.456,-1.023 -1.456,-2.286c0,-1.262 0.651,-2.286 1.456,-2.286c0.803,0 1.454,1.024 1.454,2.286M229.724,152.927c0,1.263 -0.651,2.286 -1.455,2.286c-0.804,0 -1.455,-1.023 -1.455,-2.286c0,-1.262 0.651,-2.286 1.455,-2.286c0.804,0 1.455,1.024 1.455,2.286" fill="#2b2629" fill-rule="evenodd"/><path d="M237.705,156.52c0,0 2.63,1.493 4.506,0c0,0 -1.126,3.08 -4.506,0" fill="#efb1a0" fill-rule="evenodd"/><path d="M230.091,157.889l0.217,0.108c0.14,0.07 0.35,0.163 0.615,0.284c0.26,0.127 0.597,0.247 0.964,0.412c0.381,0.134 0.796,0.318 1.267,0.468l0.73,0.245l0.79,0.228c0.533,0.177 1.125,0.262 1.712,0.421c0.604,0.093 1.222,0.226 1.857,0.282l0.959,0.094c0.32,0.036 0.646,0.013 0.969,0.023c0.323,0 0.647,0.03 0.968,0.009c0.32,-0.025 0.64,-0.05 0.958,-0.073c0.639,-0.022 1.25,-0.163 1.852,-0.255l0.446,-0.073c0.146,-0.034 0.287,-0.08 0.429,-0.115l0.83,-0.223c0.55,-0.123 1.041,-0.326 1.502,-0.5l0.663,-0.249c0.20421,-0.06354 0.40233,-0.1452 0.592,-0.244l0.942,-0.457c0.528,-0.249 0.84,-0.385 0.84,-0.385c0,0 -0.26,0.208 -0.728,0.563l-0.858,0.633c-0.33,0.254 -0.756,0.441 -1.2,0.69l-0.704,0.375c-0.24,0.14 -0.52,0.207 -0.791,0.319l-0.85,0.313c-0.145,0.052 -0.291,0.112 -0.443,0.154l-0.466,0.105c-0.63,0.125 -1.272,0.334 -1.951,0.36l-1.019,0.097c-0.342,0.028 -0.686,0.005 -1.03,0.008c-0.343,-0.016 -0.688,0 -1.028,-0.043c-0.34,-0.04 -0.678,-0.08 -1.014,-0.118c-0.33259,-0.03399 -0.66218,-0.09282 -0.986,-0.176l-0.953,-0.213c-0.612,-0.191 -1.21,-0.347 -1.75,-0.58l-0.79,-0.314l-0.715,-0.347c-0.462,-0.209 -0.854,-0.466 -1.214,-0.664c-0.346,-0.223 -0.65,-0.412 -0.886,-0.59c-0.241,-0.168 -0.42,-0.317 -0.541,-0.417l-0.185,-0.155" fill="#e5a698" fill-rule="evenodd"/><path d="M266.306,125.038c0,0 2.3,8.11 -4.252,8.593c0,0 1.62,14.529 0,17.01c-1.62,2.481 -4.793,-6.474 -7.71,-9.24c0,0 2.785,7.375 0,6.322c-2.787,-1.054 -16.17,-8.034 -18.82,-8.297c0,0 3.843,6.058 0.795,5.268c-3.047,-0.791 -10.525,-1.413 -13.013,-3.735c0.574,6.19 -0.414,13.338 -3.549,13.48c0,0 -6.299,-19.754 -1.029,-22.257c1.226,-0.583 2.253,0.299 3.034,1.997c-0.002,-0.008 -1.541,-9.241 6.506,-11.61c8.051,-2.371 17.967,-1.976 25.067,0.658c7.099,2.634 11.249,4.445 12.971,1.811" fill="#5f3117" fill-rule="evenodd"/><path d="M252.179,206.347c0,0 -1.196,21.349 -1.852,28.377h-7.833c0,0 -0.409,-4.428 -2.348,-22.207v-0.001v0.001c-1.851,17.647 -2.348,22.207 -2.348,22.207h-7.833c-0.656,-7.027 -1.852,-28.377 -1.852,-28.377l12.033,1.704v-0.001z" fill="#80789b" fill-rule="evenodd"/><path d="M251.899,211.195c-2.609,-0.497 -3.566,-2.758 -3.916,-4.254l4.195,-0.594c0,0 -0.108,1.943 -0.278,4.848M228.427,211.195c2.609,-0.497 3.566,-2.758 3.916,-4.254l-4.196,-0.594c0,0 0.11,1.943 0.28,4.848" fill="#6d6789" fill-rule="evenodd"/><path d="M252.336,179.478c4.457,7.679 6.632,17.268 5.752,26.108c0,0 -0.418,3.683 -0.84,4.313c-0.423,0.63 -3.451,0 -3.825,-0.42c-0.375,-0.42 0.495,-3.08 0.495,-3.08c0,0 -1.318,0.56 -1.74,0c-0.423,-0.559 1.74,-1.356 1.74,-1.356c0.67,-7.988 -1.204,-16.51 -5.23,-23.445c-1.364,-2.35 2.288,-4.465 3.648,-2.12M227.9,179.478c1.36,-2.345 5.012,-0.231 3.648,2.119c-4.025,6.936 -5.899,15.458 -5.229,23.446c0,0 2.163,0.796 1.74,1.356c-0.423,0.56 -1.74,0 -1.74,0c0,0 0.869,2.66 0.495,3.08c-0.375,0.42 -3.403,1.05 -3.825,0.42c-0.422,-0.63 -0.842,-4.313 -0.842,-4.313c-0.879,-8.839 1.296,-18.428 5.753,-26.108" data-paper-data="{&quot;origPos&quot;:null}" fill="#795c4c" fill-rule="evenodd"/><path d="M248.443,182.272c0,0 2.64,17.69 4.096,23.914c0,0 -3.591,1.867 -12.217,1.867l-0.176,-0.002l-0.176,0.002c-8.626,0 -12.218,-1.867 -12.218,-1.867c1.457,-6.224 4.097,-23.914 4.097,-23.914l-1.42,2.886l-4.48,-2.639c2.655,-8.825 10.958,-7.756 10.958,-7.756c0.713,2.135 3.233,2.1 3.239,2.1c0.005,0 2.525,0.035 3.239,-2.1c0,0 2.41779,-0.31128 5.06118,0.78867c0.08862,0.10917 0.22233,0.18025 0.37278,0.18488c0.07127,0.07412 0.16518,0.12631 0.2706,0.14544c0.16353,0.13904 0.35728,0.24361 0.57001,0.3025c0.14131,0.12115 0.30542,0.21645 0.48501,0.2786c1.69007,1.13897 3.28126,3.00664 4.19843,6.0549l-4.481,2.64z" fill="#f26b30" fill-rule="evenodd"/><path d="" data-paper-data="{&quot;origPos&quot;:null}" fill="#f9875f" fill-rule="nonzero"/><path d="" fill="#f9875f" fill-rule="nonzero"/><path d="M226.1405,181.86377c0.0414,-0.09306 0.0644,-0.19611 0.0644,-0.30453c0,-0.00779 -0.00012,-0.01557 -0.00035,-0.02331c0.13128,-0.23382 0.23649,-0.48425 0.31168,-0.74735c0.05582,-0.09958 0.10693,-0.20217 0.15299,-0.30747c8.89266,1.13245 18.09092,1.42724 26.95019,0.40718c0.1211,0.51114 0.34393,1.0921 0.54352,1.39027c-9.20942,1.09946 -18.77751,0.78681 -28.02243,-0.4148z" data-paper-data="{&quot;origPos&quot;:null}" fill="#f9875f" fill-rule="evenodd"/><path d="M231.00757,188.17673c0.0961,-0.47538 0.13975,-0.9778 0.10967,-1.43536c5.97248,0.55983 12.03291,0.71377 17.99142,0.32128c-0.04862,0.47344 -0.02505,1.0002 0.08448,1.4414c-6.02429,0.39518 -12.14762,0.23884 -18.18556,-0.32732z" data-paper-data="{&quot;origPos&quot;:null}" fill="#f9875f" fill-rule="nonzero"/><path d="M229.98489,193.8451c0.20696,-0.45376 0.35494,-0.9768 0.39285,-1.40715c6.51517,0.64783 13.14462,0.81836 19.64094,0.32843c-0.1412,0.35543 -0.1012,0.82235 0.19105,1.43341c-6.69084,0.50948 -13.51716,0.32626 -20.22485,-0.35469z" data-paper-data="{&quot;origPos&quot;:null}" fill="#f9875f" fill-rule="evenodd"/><path d="M228.96086,199.50493c0.23389,-0.40641 0.38324,-0.93325 0.38673,-1.40547c7.1894,0.77139 14.53445,0.97111 21.70076,0.35161c-0.0392,0.49507 -0.01544,1.0188 0.07453,1.44304c-7.32221,0.62814 -14.8212,0.4126 -22.16201,-0.38918z" data-paper-data="{&quot;origPos&quot;:null}" fill="#f9875f" fill-rule="nonzero"/><path d="" data-paper-data="{&quot;origPos&quot;:null}" fill="#f9875f" fill-rule="nonzero"/><path d="M228.08482,205.17439c0.19351,-0.38156 0.27136,-0.91741 0.26223,-1.41808c7.85001,0.90156 15.90498,1.13245 23.72683,0.36836c-0.10717,0.66349 0.03041,1.11943 0.32323,1.41938c-8.01531,0.79821 -16.26717,0.56143 -24.31229,-0.36966z" data-paper-data="{&quot;origPos&quot;:null}" fill="#f9875f" fill-rule="nonzero"/><path d="" data-paper-data="{&quot;origPos&quot;:null}" fill="#f9875f" fill-rule="nonzero"/><path d="M249.65957,176.18449c0.15382,0.13187 0.33466,0.23313 0.53307,0.29433c0.12261,0.13306 0.24878,0.26278 0.37838,0.38902c-6.82276,0.54532 -13.79135,0.36547 -20.63576,-0.33204c0.33756,-0.10598 0.64084,-0.28937 0.88905,-0.52936c0.10103,-0.04123 0.18556,-0.11456 0.2409,-0.20732c0.08522,-0.02893 0.16814,-0.06282 0.24842,-0.10134c0.09244,-0.00488 0.17822,-0.03487 0.25066,-0.08327c0.10704,-0.01853 0.20243,-0.0711 0.27459,-0.14615c0.09286,-0.00286 0.17935,-0.03102 0.25279,-0.07785c0.08489,-0.00647 0.16386,-0.03415 0.23162,-0.07774c1.64686,0.13888 3.29941,0.2463 4.9537,0.31933c0.64023,0.82587 1.64193,1.35746 2.76779,1.35746c0.58655,0 1.1394,-0.14428 1.62499,-0.39929c0.42976,-0.20428 0.81128,-0.49358 1.12284,-0.84615c1.8944,-0.00805 3.78529,-0.06554 5.66674,-0.17687c0.08841,0.10032 0.21643,0.1649 0.3596,0.1693c0.07127,0.07412 0.16518,0.12631 0.2706,0.14544c0.16353,0.13904 0.35728,0.24361 0.57001,0.3025z" data-paper-data="{&quot;origPos&quot;:null}" fill="#f9875f" fill-rule="nonzero"/></g></g></svg>