<svg xmlns="http://www.w3.org/2000/svg" xmlns:xlink="http://www.w3.org/1999/xlink" width="120" height="120"><defs><path id="a" d="M24.935.257a7.33 7.33 0 0 0-5.52 2.638L2.506 23.185a7.332 7.332 0 0 0-.465 8.764l58.765 88.045.001.006.001-.006 58.765-88.045a7.33 7.33 0 0 0-.465-8.764l-16.909-20.29A7.33 7.33 0 0 0 96.68.257H24.935z"/><path id="c" d="M24.935.257a7.33 7.33 0 0 0-5.52 2.638L2.506 23.185a7.332 7.332 0 0 0-.465 8.764l58.765 88.045.001.006.001-.006 58.765-88.045a7.33 7.33 0 0 0-.465-8.764l-16.909-20.29A7.33 7.33 0 0 0 96.68.257H24.935z"/><path id="e" d="M24.935.257a7.33 7.33 0 0 0-5.52 2.638L2.506 23.185a7.332 7.332 0 0 0-.465 8.764l58.765 88.045.001.006.001-.006 58.765-88.045a7.33 7.33 0 0 0-.465-8.764l-16.909-20.29A7.33 7.33 0 0 0 96.68.257H24.935z"/><path id="g" d="M24.935.257a7.33 7.33 0 0 0-5.52 2.638L2.506 23.185a7.332 7.332 0 0 0-.465 8.764l58.765 88.045.001.006.001-.006 58.765-88.045a7.33 7.33 0 0 0-.465-8.764l-16.909-20.29A7.33 7.33 0 0 0 96.68.257H24.935z"/><path id="i" d="M24.935.257a7.33 7.33 0 0 0-5.52 2.638L2.506 23.185a7.332 7.332 0 0 0-.465 8.764l58.765 88.045.001.006.001-.006 58.765-88.045a7.33 7.33 0 0 0-.465-8.764l-16.909-20.29A7.33 7.33 0 0 0 96.68.257H24.935z"/><path id="k" d="M24.935.257a7.33 7.33 0 0 0-5.52 2.638L2.506 23.185a7.332 7.332 0 0 0-.465 8.764l58.765 88.045.001.006.001-.006 58.765-88.045a7.33 7.33 0 0 0-.465-8.764l-16.909-20.29A7.33 7.33 0 0 0 96.68.257H24.935z"/><path id="m" d="M24.935.257a7.33 7.33 0 0 0-5.52 2.638L2.506 23.185a7.332 7.332 0 0 0-.465 8.764l58.765 88.045.001.006.001-.006 58.765-88.045a7.33 7.33 0 0 0-.465-8.764l-16.909-20.29A7.33 7.33 0 0 0 96.68.257H24.935z"/><path id="o" d="M24.935.257a7.33 7.33 0 0 0-5.52 2.638L2.506 23.185a7.332 7.332 0 0 0-.465 8.764l58.765 88.045.001.006.001-.006 58.765-88.045a7.33 7.33 0 0 0-.465-8.764l-16.909-20.29A7.33 7.33 0 0 0 96.68.257H24.935z"/><path id="q" d="M24.935.257a7.33 7.33 0 0 0-5.52 2.638L2.506 23.185a7.332 7.332 0 0 0-.465 8.764l58.765 88.045.001.006.001-.006 58.765-88.045a7.33 7.33 0 0 0-.465-8.764l-16.909-20.29A7.33 7.33 0 0 0 96.68.257H24.935z"/></defs><g fill="none" fill-rule="evenodd"><g transform="translate(0 .744)"><mask id="b" fill="#fff"><use xlink:href="#a"/></mask><path fill="#9E2020" d="M-1 27.393 60.811 120V27.393z" mask="url(#b)"/></g><g transform="translate(0 .744)"><mask id="d" fill="#fff"><use xlink:href="#c"/></mask><path fill="#ED7070" d="M-1 27.393 21.613.256l17.876 27.137z" mask="url(#d)"/></g><g transform="translate(0 .744)"><mask id="f" fill="#fff"><use xlink:href="#e"/></mask><path fill="#9E2020" d="M60.81 27.393V.256L39.49 27.393z" mask="url(#f)"/></g><g transform="translate(0 .744)"><mask id="h" fill="#fff"><use xlink:href="#g"/></mask><path fill="#D63C3C" d="M21.613.256H60.81L39.49 27.393z" mask="url(#h)"/></g><g transform="translate(0 .744)"><mask id="j" fill="#fff"><use xlink:href="#i"/></mask><path fill="#ED7070" d="M122.62 27.393 60.81 120V27.393z" mask="url(#j)"/></g><g transform="translate(0 .744)"><mask id="l" fill="#fff"><use xlink:href="#k"/></mask><path fill="#D63C3C" d="M82.129 27.393 60.808 120 39.486 27.393z" mask="url(#l)"/></g><g transform="translate(0 .744)"><mask id="n" fill="#fff"><use xlink:href="#m"/></mask><path fill="#D63C3C" d="M122.62 27.393 100.007.256 82.131 27.393z" mask="url(#n)"/></g><g transform="translate(0 .744)"><mask id="p" fill="#fff"><use xlink:href="#o"/></mask><path fill="#9E2020" d="M60.81 27.393V.256l21.32 27.137z" mask="url(#p)"/></g><g transform="translate(0 .744)"><mask id="r" fill="#fff"><use xlink:href="#q"/></mask><path fill="#ED7070" d="M100.007.256H60.81l21.32 27.137z" mask="url(#r)"/></g></g></svg>