<svg xmlns="http://www.w3.org/2000/svg" width="53.13" height="116.173"><g fill-rule="evenodd" stroke-miterlimit="10" data-paper-data="{&quot;isPaintingLayer&quot;:true}" style="mix-blend-mode:normal"><path fill="#75574c" d="M1.326 80.935c.224-2.163 1.61-3.787 3.095-3.627.799.085 1.46.668 1.87 1.525.39.387.77.905 1.09 1.514.835 1.6.921 3.213.193 3.604-.39.212-.932.026-1.482-.433-.59 1.069-1.518 1.726-2.485 1.622-1.486-.158-2.505-2.041-2.281-4.205m45.092-33.992c.525-.102 1.092.304 1.57 1.036 1.055-1.031 2.356-1.46 3.446-.992 1.667.715 2.195 3.263 1.18 5.69-1.014 2.426-3.185 3.813-4.85 3.099-.896-.385-1.46-1.298-1.637-2.437-.319-.59-.58-1.328-.739-2.148-.411-2.152.05-4.053 1.03-4.248" data-paper-data="{&quot;origPos&quot;:null}"/><path fill="#eeeeed" d="m50.599 56.271-.013.028c-.039.085-4.026 8.522-6.709 9.508-.237.087-.557.135-.937.135-2.486 0-7.357-1.859-8.657-2.375 0 .01.003.02.007.029.685 2.74 1.26 6.166 1.708 10.154.764 6.792.892 13.006.894 13.069v.07H8.043v-.07c.002-.063.129-6.288.894-13.08.347-3.094.769-5.841 1.262-8.196-.213.395-.53.893-1.001 1.571-1.519 2.181-2.693 11.463-2.706 11.555l-.001.052-4.35.062h-.03l.003-.086c.004-.035.327-3.332 1.051-7.062.667-3.446 1.828-8.018 3.543-10.243 1.46-1.89 6.403-4.616 7.312-5.11 1.732-1.268 6.571-1.48 6.789-1.488l1.593.083h.13l1.59-.075c.217.009 4.921.173 6.715 1.388l10.496 3.87 4.898-5.97z"/><path fill="#75574c" d="M42.859 35.84c1.055.691 1.751 1.866 1.751 3.202 0 2.126-1.766 3.848-3.944 3.848-.06 0-.121-.003-.181-.005-3.53 6.416-10.289 10.756-18.045 10.756-7.767 0-14.532-4.348-18.057-10.778a3.766 3.766 0 0 1-.44.027C1.766 42.89 0 41.168 0 39.042c0-1.434.805-2.688 1.998-3.348a21.572 21.572 0 0 1-.208-3.005c0-11.571 9.244-20.951 20.65-20.951 11.403 0 20.649 9.381 20.649 20.952a21.36 21.36 0 0 1-.23 3.15" data-paper-data="{&quot;origPos&quot;:null}"/><path fill="#353233" d="M15.981 32.028c-.772-.174-.908-1.201-3.386-.74-.779.18-2.417 1.156-2.732 1.808-.316.652-.088-2.392 2.457-3.522 1.835-.675 2.457-.642 3.977-.642s1.987.907 1.766 1.65c0 0-.503 1.803-2.082 1.446zm13.905 0c.772-.174.908-1.201 3.386-.74.779.18 2.417 1.156 2.732 1.808.316.652.087-2.392-2.457-3.522-1.835-.675-2.457-.642-3.977-.642s-1.987.907-1.766 1.65c0 0 .503 1.803 2.082 1.446z" data-paper-data="{&quot;origPos&quot;:null}"/><path fill="#2c2a2a" d="M15.752 37.932c0 1.657-.895 3-2 3s-2-1.343-2-3 .895-3 2-3 2 1.343 2 3m18 0c0 1.657-.895 3-2 3s-2-1.343-2-3 .895-3 2-3 2 1.343 2 3" data-paper-data="{&quot;origPos&quot;:null}"/><path fill="#eeac6c" d="M22.772 41.001c-1.125.153-3.02 1.834-3.02 1.834s.207-1.009.503-1.299c.8-1.156 2.487-1.604 2.487-1.604s2.173.703 2.65 1.588c.443.824.34 1.238.34 1.238s-2.121-1.871-2.96-1.756z"/><path fill="#a63f3f" d="M15.647 44.628s6.897 3.208 13.172-.397c0 0-1.39 5.47-5.95 5.561-4.115.122-4.984-1.492-5.477-1.956-.492-.463-1.42-1.772-1.745-3.208" data-paper-data="{&quot;origPos&quot;:null}"/><path fill="#353233" d="M43.907 29.959c.031 2.461-.817 7.786-2.469 10.959 0 0-4.062-11.663-7.407-13.509-4.09-2.257-14.87.996-18.525-1.93-.607-.485-.539-1.586-.539-1.586s-.7 1.401-1.038 1.792c-1.77 2.045-6.362 5.006-8.54 6.595-1.753 1.276-1.833 1.263-1.447 8.638 0 0-3.22-6.711-3.043-11.188.053-1.292.667-4.155 1.673-7.065 3.634-7.399 11.163-12.482 19.867-12.482 9.996 0 18.448 6.706 21.22 15.926a41.66 41.66 0 0 1 .248 3.85" data-paper-data="{&quot;origPos&quot;:null}"/><path fill="#75574c" d="M20.826 56.198c-.965 0-1.747-2.101-1.747-3.061h6.867c0 .959-.78 3.061-1.747 3.061h-3.373" data-paper-data="{&quot;origPos&quot;:null}"/><path fill="#eeac6c" d="M19.817 55.396a5.05 5.05 0 0 1-.722-2.028 20.572 20.572 0 0 0 6.838-.024l-.01.009-6.106 2.043"/><path fill="#814915" d="m33.671 86.77-1.001 13.452h-9.985l-.132-6.847h-.258l-.135 6.847h-9.99l-.993-13.452h14.148z"/><path fill="#ac6b32" d="M14.255 100.222h-1.54L11.707 86.77h1.54zm16.339 0h1.538l1.006-13.452H31.6z"/><path fill="#814915" d="M13.136 110.792c-1.63 1.022-2.815 3.103-1.417 4.8 1.053 1.2 2.608.25 3.789-.255 1.303-.63 2.791-1.073 3.971-1.893.765-.541 1.66-1.12 2.174-1.925.159-.251.234-.487.178-.727zm18.577 0c1.63 1.022 2.815 3.103 1.42 4.8-1.058 1.2-2.609.25-3.791-.255-1.303-.63-2.792-1.073-3.974-1.893-.763-.541-1.659-1.12-2.173-1.925-.158-.251-.233-.487-.177-.727z"/><path fill="#75574c" d="M21.836 110.792H13.13l-.414-10.57h9.12zm9.881 0H23.02v-10.57h9.111z" data-paper-data="{&quot;origPos&quot;:null}"/><path fill="#fff" d="M21.836 110.853h-8.648l-.413-6.367h9.06z"/><path fill="#c6c4c4" d="M12.802 104.486h9.033v1.263h-8.941z" data-paper-data="{&quot;origPos&quot;:null}"/><path fill="#fff" d="M22.962 104.486h9.142l-.415 6.367h-8.727z"/><path fill="#c6c4c4" d="M31.985 105.749H23.02v-1.263h9.055z"/><path fill="#814915" d="M27.284 55.136c.766.126 1.598.297 2.306.528v31.107h-2.306V74.818h-9.71v11.953h-2.307V55.713c.651-.245 1.477-.424 2.307-.558V68.03h9.71V55.136"/><path fill="#ac6b32" d="M22.81 71.405c0 .297-.24.54-.535.54a.536.536 0 0 1-.532-.54c0-.3.237-.542.532-.542.296 0 .535.243.535.542m-.251-1.931c0 .688-.133 1.247-.295 1.247-.161 0-.29-.559-.29-1.247 0-.686.129-1.246.29-1.246.162 0 .295.56.295 1.246m0 3.905c0 .686-.133 1.245-.295 1.245-.161 0-.29-.559-.29-1.245 0-.688.129-1.248.29-1.248.162 0 .295.56.295 1.248m1.631-1.654c-.677 0-1.228-.135-1.228-.3 0-.163.551-.296 1.228-.296.676 0 1.227.133 1.227.297 0 .164-.551.3-1.227.3m-3.848-.001c-.678 0-1.23-.135-1.23-.3 0-.163.552-.296 1.23-.296.677 0 1.226.133 1.226.297 0 .164-.55.3-1.226.3m3.492-1.469c-.48.487-.963.787-1.077.673-.116-.118.181-.608.661-1.093.478-.49.96-.789 1.077-.673.114.118-.18.606-.661 1.093m-2.722 2.759c-.48.49-.96.789-1.077.673-.114-.116.181-.607.662-1.09.48-.49.962-.791 1.079-.673.112.116-.181.603-.664 1.09m0-3.18c.483.488.776.975.664 1.093-.117.116-.599-.186-1.08-.673-.48-.485-.775-.975-.66-1.093.116-.113.596.184 1.076.673m2.722 2.762c.48.485.775.974.661 1.09-.116.118-.599-.183-1.077-.673-.48-.485-.777-.974-.661-1.09.114-.116.597.183 1.077.673"/><path fill="#2da840" d="M22.074 21.163v-.002.002-.004l-15.7-5.214S17.023-1.832 22.09.155c5.067-1.987 15.67 15.79 15.67 15.79l-15.686 5.214z"/><path fill="#e63744" d="M4.096 10.184c0-3.32 1.189-6.265 3.028-8.125 1.839 1.86 3.029 4.805 3.029 8.125 0 3.317-1.189 6.264-3.029 8.124-1.839-1.86-3.028-4.807-3.028-8.124"/><path fill="#228e37" d="M43.249 16.316c1.216.711-.01 2.555-.01 2.555l-21.172 4.582L.903 18.871s-1.227-1.845-.01-2.555c4.705-2.74 21.175 4.847 21.175 4.847s16.472-7.587 21.18-4.847"/></g></svg>