<svg xmlns="http://www.w3.org/2000/svg" width="59.271" height="116.147"><g fill-rule="evenodd" stroke-miterlimit="10" data-paper-data="{&quot;isPaintingLayer&quot;:true}" style="mix-blend-mode:normal"><path fill="#c0936a" d="M.536 50.824C-.52 48.327.033 45.703 1.773 44.97c1.134-.482 2.496-.04 3.6 1.018.498-.752 1.091-1.17 1.638-1.062 1.026.199 1.505 2.156 1.075 4.37-.165.846-.439 1.605-.773 2.21a4.01 4.01 0 0 1-.199.786l5.2 6.1s2.386-1.172 8.068-2.887l2.895-1.038c1.256-.872 4.016-1.275 5.686-1.438-.28-.621-.45-1.298-.45-1.794h7.171c0 .496-.173 1.184-.456 1.808 1.696.159 4.43.56 5.64 1.434.64.343 6.12 3.286 7.711 5.313 3.383 4.319 4.787 17.695 4.787 17.68.444.644.76 1.484.86 2.42.236 2.224-.829 4.163-2.38 4.327-1.014.104-1.983-.571-2.6-1.67-.572.472-1.142.66-1.545.446-.765-.403-.672-2.065.202-3.71.332-.624.726-1.161 1.136-1.557.032-.07.065-.135.106-.2 0 0-1.509-9.62-3.113-11.891-.809-1.138-1.822-2.033-2.009-2.54 1.258 9.522-.147 22.764-.147 22.764l-1.61 13.91-.43 10.907h-.006c-2.915.61-8.19.403-9.08 0h.001V99.76l-.489-7.102h-.27l-.479 7.102v10.915h-.004c-2.143.61-9.09 0-9.09 0l-.439-10.907-1.618-13.908v-.002s-1.63-14.581-.064-24.138c-.083.036-8.354 3.344-10.628 2.52C6.846 63.22 3.608 54.02 3.608 54.02h.004c-1.218-.434-2.394-1.593-3.076-3.197" data-paper-data="{&quot;origPos&quot;:null}"/><path fill="#e2a86e" d="M29.282 53.622c-.407-.614-.687-1.516-.757-2.13 1.138.183 2.306.325 3.495.325 1.224 0 2.446-.103 3.652-.311l-.016.014-6.374 2.102"/><path fill="#f6b90c" d="M33.487 110.619c-.06.249-.169.482 0 .739.54.83.857 1.418 1.655 1.973 1.236.847 2.795 1.302 4.157 1.955 1.24.519 2.862 1.498 3.966.263 1.702-1.043 1.504-3.762 1.097-3.463-2.665 1.943-2.718-.72-2.58-1.467zm-2.625 0c.06.249.167.482 0 .739-.54.83-.859 1.418-1.657 1.973-1.235.847-2.793 1.302-4.157 1.955-1.239.519-2.862 1.498-3.967.263-1.7-1.043-1.5-3.762-1.093-3.463 2.662 1.943 2.713-.72 2.577-1.467z"/><path fill="#a51c24" d="M15.446 89.949c.197-1.402.688-2.753 1.13-4.104.175-.551.844-3.416 1.846-3.03.244-.416.688-.8 1.698-.013 1.22 3.03.071 4.836.071 4.836a16.009 16.009 0 0 1-.134 1.633c-.29 2.859-1.472 5.556-2.256 8.26-.786-.313-1.325.31-2.109.466-.049-.258-.049-.622-.049-.934 0-2.337-.494-4.88-.197-7.114"/><path fill="#f9e9c4" d="M20.402 85.739c4.83-3.363 19.015-3.756 23.545 0 .334 10.19 7.01 18.467-1.86 24.83-1.912 1.372-9.149 1.506-9.416 0-.497-2.78-.36-12.135-.36-12.135h-.27s.15 9.36-.365 12.135c-.27 1.48-7.518 1.394-9.415 0-8.675-6.363-3.072-14.562-1.86-24.83"/><path fill="#bc1718" d="M43.931 87.618c-4.702 2.45-19.298 2.208-23.632 0-1.227-.622-1.35-5.761 0-5.49 4.334.866 18.17.866 23.633 0 1.356-.22 1.221 4.857 0 5.49"/><path fill="#8279b6" d="M27.905 52.94c-3.164 7.76 3.953 22.816 0 32.818-4.332-2.29-8.97-1.693-10.705-4.33 2.525-5.345 1.672-10.848 2.34-16.965 2.628-.73 2.092-6.865 1.615-9.605 2.045-.853 4.87-1.907 6.75-1.917m15.154 2.354c-1.83 8.477 1.454 9.607 1.454 9.607.608 5.434-.348 12.514 2.54 16.548-1.757 2.842-6.679 2.627-10.44 4.309-3.598-6.115 2.99-24.161 0-32.818 2.098.27 3.975.877 6.446 2.354"/><path fill="#f6b90c" d="M27.318 67.747c.9 6.03 1.832 12.262.316 17.037l-.074.224-.2-.122c-.848-.511-2.24-.818-3.71-1.14-2.374-.522-5.027-1.106-6.254-2.74.059-.134.116-.27.171-.405 1.071 1.663 3.766 2.254 6.158 2.783 1.396.305 2.716.596 3.622 1.07 1.394-4.667.482-10.758-.397-16.652-.864-5.794-1.684-11.285-.147-14.762.147-.02.298-.043.438-.06-1.623 3.36-.798 8.906.077 14.767m19.465 13.306c-1.356 1.394-3.814 2.036-6.024 2.614-1.419.372-2.758.722-3.587 1.219l-.217.132-.06-.246c-1.09-4.508-.315-10.303.43-15.908.822-6.156 1.601-11.983-.029-15.82.144.024.29.05.434.077 1.545 3.929.778 9.7-.035 15.792-.729 5.473-1.484 11.124-.492 15.53.871-.46 2.134-.788 3.464-1.136 2.203-.576 4.656-1.215 5.922-2.588.064.114.127.224.194.334"/><path fill="#e63744" d="m45.407 14.538-13.709-4.53s2.116-8.743 5.006-9.811c2.354-.871 9.42 1.302 10.531 3.485 1.372 2.68-1.828 10.856-1.828 10.856"/><path fill="#be9268" d="M53.365 33.327c1.107.712 1.836 1.922 1.836 3.302 0 2.189-1.85 3.967-4.124 3.967-.067 0-.13-.002-.195-.006-3.697 6.616-10.77 11.09-18.89 11.09-8.122 0-15.205-4.484-18.898-11.11a4.209 4.209 0 0 1-.453.026c-2.28 0-4.127-1.778-4.127-3.968 0-1.478.843-2.766 2.085-3.45a21.817 21.817 0 0 1-.218-3.1c0-11.926 9.676-21.598 21.611-21.598 11.937 0 21.613 9.672 21.613 21.597 0 1.107-.08 2.192-.24 3.25" data-paper-data="{&quot;origPos&quot;:null}"/><path fill="#343434" d="M27.752 28.123s-.503 1.803-2.082 1.446c-.772-.174-.908-1.201-3.386-.74-.779.18-2.417 1.156-2.732 1.808-.316.652-.088-2.392 2.457-3.522 1.835-.675 2.457-.642 3.977-.642s1.987.907 1.766 1.65m9.741 0s.503 1.803 2.082 1.446c.772-.174.908-1.201 3.386-.74.78.18 2.417 1.156 2.732 1.808.316.652.087-2.392-2.457-3.522-1.835-.675-2.457-.642-3.977-.642s-1.987.907-1.766 1.65m-12.052 7.35c0 1.657-.895 3-2 3s-2-1.343-2-3 .895-3 2-3 2 1.343 2 3m18 0c0 1.657-.895 3-2 3s-2-1.343-2-3 .895-3 2-3 2 1.343 2 3l15.83 1.128"/><path fill="#683918" d="M32.461 38.542c-1.125.153-3.02 1.834-3.02 1.834s.207-1.01.503-1.3c.8-1.155 2.487-1.603 2.487-1.603s2.173.703 2.65 1.588c.443.824.34 1.238.34 1.238s-2.12-1.871-2.96-1.756zM25.641 42.169s6.897 3.208 13.172-.397c0 0-1.39 5.47-5.95 5.56-4.115.123-4.984-1.491-5.477-1.955-.492-.463-1.42-1.772-1.745-3.208"/><path fill="#6d4731" d="M54.464 27.264c.037 2.537-.853 8.026-2.585 11.3 0 0-4.248-12.022-7.748-13.93-4.283-2.326-15.567 1.029-19.39-1.986-.635-.505-.562-1.636-.562-1.636s-.73 1.445-1.087 1.847c-1.85 2.108-6.659 5.16-8.939 6.798-1.832 1.317-1.918 1.302-1.512 8.907 0 0-3.37-6.92-3.185-11.536.052-1.333.697-4.285 1.75-7.281 3.8-7.632 11.684-12.87 20.79-12.87 10.466 0 19.31 6.913 22.21 16.42.163 1.467.246 2.837.258 3.967" data-paper-data="{&quot;origPos&quot;:null}"/></g></svg>