<svg version="1.1" xmlns="http://www.w3.org/2000/svg" xmlns:xlink="http://www.w3.org/1999/xlink" width="65.40359" height="118.26727" viewBox="0,0,65.40359,118.26727"><g transform="translate(-207.00041,-120.00033)"><g data-paper-data="{&quot;isPaintingLayer&quot;:true}" fill-rule="evenodd" stroke="none" stroke-width="1" stroke-linecap="butt" stroke-linejoin="miter" stroke-miterlimit="10" stroke-dasharray="" stroke-dashoffset="0" style="mix-blend-mode: normal"><path d="M239.448,132.083c4.482,-21.008 28.776,-11.715 32.181,5.78c2.282,11.726 -4.169,21.097 -5.846,28.231c-1.038,4.434 -2.355,13.609 2.397,18.087c-13.965,-2.457 -12.987,-17.838 -12.78,-23.095c0.3,-7.552 -15.286,-27.972 -15.952,-29.002" fill="#9b1826"/><path d="M228.58,179.249c4.592,-4.32 22.554,-2.741 26.83,2.425c7.906,9.556 3.96,43.787 6.767,51.615c-3.467,1.13 -6.543,-0.84 -10.884,-0.83c-4.706,0.013 -9.951,0.282 -14.763,0.529c-3.082,0.16 -5.755,-0.38 -8.226,-0.31c-2.418,0.07 -4.65,0.754 -5.992,0.602c2.213,-8.3 -3.179,-45.14 6.268,-54.031" fill="#e63744"/><path d="M250.622,232.947c1.623,1.008 2.803,3.072 1.413,4.748c-1.051,1.181 -2.598,0.248 -3.773,-0.249c-1.298,-0.623 -2.782,-1.057 -3.961,-1.867c-0.758,-0.535 -1.648,-1.112 -2.163,-1.91c-0.159,-0.244 -0.232,-0.486 -0.176,-0.722h-0.004l0.013,-11.478l9.103,0.205l-0.446,11.273h-0.006M240.781,232.947c0.057,0.236 -0.018,0.478 -0.178,0.722c-0.513,0.798 -1.405,1.375 -2.165,1.91c-1.175,0.81 -2.659,1.244 -3.957,1.867c-1.175,0.497 -2.722,1.429 -3.775,0.249c-1.392,-1.676 -0.21,-3.739 1.413,-4.748h-0.006l-0.446,-11.294l9.104,-0.116l0.008,11.41z" data-paper-data="{&quot;origPos&quot;:null}" fill="#7a5c4e"/><path d="M240.844,232.931c0.059,0.238 -0.066,0.48 -0.226,0.726c-0.515,0.794 -1.451,1.375 -2.208,1.91c-0.763,0.524 -1.653,0.89 -2.54,1.252c-0.111,0.047 -0.223,0.093 -0.333,0.137c-0.36671,0.14777 -0.72919,0.30583 -1.087,0.474c-1.174,0.499 -2.722,1.43 -3.773,0.25c-0.017,-0.023 -0.22,-0.273 -0.268,-0.381c0.98,0.43 3.036,-0.132 4.994,-1.01c-0.27,-1.038 -3.493,-1.518 -5.138,-1.27c0.18175,-0.44215 0.43966,-0.84898 0.762,-1.202c4.552,-0.534 5.521,1.644 5.607,1.876c1.87,-0.979 3.392,-2.107 3.413,-2.762c0,0 0.552,-0.773 0.787,-0.665l0.01,0.664" fill="#884b13"/><path d="M240.779,231.704c0,0 -6.602,1.391 -8.716,0c-0.237,0.2 -0.172,1.027 0.048,1.244c1.574,1.522 8.735,0 8.735,0zM241.922,232.873l-0.004,-0.64c0.222,-0.1 0.726,0.64 0.726,0.64c0.021,0.653 1.564,1.832 3.423,2.81c0.093,-0.227 1.056,-2.408 5.614,-1.87c0.324,0.361 0.592,0.77 0.76,1.203c-1.644,-0.252 -4.864,0.23 -5.138,1.268c1.96,0.878 4.014,1.442 4.993,1.012c-0.07808,0.13218 -0.16705,0.25762 -0.266,0.375c-1.05,1.185 -2.598,0.25 -3.772,-0.246c-0.35823,-0.16724 -0.72069,-0.32529 -1.087,-0.474c-0.111,-0.046 -0.224,-0.092 -0.333,-0.139c-0.886,-0.362 -1.778,-0.73 -2.54,-1.252c-0.762,-0.537 -1.652,-1.116 -2.163,-1.912c-0.16,-0.244 -0.272,-0.541 -0.213,-0.775" fill="#884b13"/><path d="M241.911,232.948c0,0 7.162,1.522 8.735,0c0.226,-0.217 0.287,-1.044 0.048,-1.244c-1.897,1.51 -8.735,0 -8.735,0zM240.799,231.683l0.069,1.244c0,0 -7.164,1.52 -8.737,0c-0.222,-0.217 -0.284,-1.042 -0.046,-1.244c2.111,1.392 8.715,0 8.715,0z" fill="#884b13"/><path d="M241.98,231.683c0,0 6.84,1.512 8.736,0c0.235,0.202 0.174,1.027 -0.05,1.244c-1.576,1.52 -8.733,0 -8.733,0l0.046,-1.244z" fill="#884b13"/><path d="M233.494,221.784c-0.637,0.64 -2.96,0.64 -3.597,0v-13.28h3.597z" fill="#653310"/><path d="M232.257,220.361c-0.2,0.198 -0.922,0.198 -1.12,0v-11.857h1.12z" fill="#86522d"/><path d="M238.859,221.784c-0.634,0.64 -2.96,0.64 -3.597,0v-13.28h3.597z" fill="#653310"/><path d="M237.62,220.361c-0.197,0.198 -0.92,0.198 -1.12,0v-11.857h1.12z" fill="#86522d"/><path d="M248.412,221.784c-0.637,0.64 -2.96,0.64 -3.597,0v-13.28h3.597z" fill="#653310"/><path d="M247.173,220.361c-0.2,0.198 -0.92,0.198 -1.12,0v-11.857h1.12z" fill="#86522d"/><path d="M253.542,221.784c-0.637,0.64 -2.96,0.64 -3.597,0v-13.28h3.597z" fill="#653310"/><path d="M252.305,220.361c-0.201,0.198 -0.924,0.198 -1.12,0v-11.857h1.12z" fill="#86522d"/><path d="M230.664,222.495c-0.639,0.64 -2.96,0.64 -3.6,0v-13.28h3.6z" fill="#884b13"/><path d="M229.425,221.072c-0.197,0.2 -0.921,0.2 -1.12,0v-11.857h1.12z" fill="#ad642c"/><path d="M236.737,222.495c-0.637,0.64 -2.96,0.64 -3.597,0v-13.28h3.597z" fill="#884b13"/><path d="M235.498,221.072c-0.2,0.2 -0.92,0.2 -1.12,0v-11.857h1.12z" fill="#ad642c"/><path d="M241.867,222.495c-0.637,0.64 -2.96,0.64 -3.597,0v-13.28h3.597z" fill="#884b13"/><path d="M240.63,221.072c-0.201,0.2 -0.922,0.2 -1.12,0v-11.857h1.12z" fill="#ad642c"/><path d="M245.169,222.495c-0.637,0.64 -2.96,0.64 -3.597,0v-13.28h3.597z" fill="#884b13"/><path d="M243.93,221.072c-0.2,0.2 -0.92,0.2 -1.12,0v-11.857h1.12z" fill="#ad642c"/><path d="M251.184,222.495c-0.638,0.64 -2.962,0.64 -3.599,0v-13.28h3.6v13.28z" fill="#884b13"/><path d="M249.945,221.072c-0.199,0.2 -0.923,0.2 -1.12,0v-11.857h1.12z" fill="#ad642c"/><path d="M255.783,222.495c-0.637,0.64 -2.963,0.64 -3.597,0v-13.28h3.597z" fill="#884b13"/><path d="M254.546,221.072c-0.201,0.2 -0.926,0.2 -1.12,0v-11.857h1.12z" fill="#ad642c"/><path d="M257.275,184.033c3.308,4.25 4.596,17.03 4.596,17.03v0.001c0,0 -0.02,-0.019 -0.025,-0.056c0.425,0.616 0.714,1.42 0.808,2.32c0.226,2.139 -0.798,3.995 -2.274,4.155c-0.967,0.104 -1.892,-0.547 -2.48,-1.604c-0.551,0.455 -1.094,0.636 -1.481,0.43c-0.727,-0.388 -0.643,-1.98 0.193,-3.558c0.28254,-0.55247 0.64812,-1.05835 1.084,-1.5c0.034,-0.067 0.065,-0.13 0.1,-0.19c0,0 -1.436,-9.232 -2.972,-11.418c-0.769,-1.09 -1.263,-1.707 -1.439,-2.191c-0.14,-0.39 -0.295,-1.135 -0.358,-1.415c-0.494,-2.192 -3.18,-7.135 -3.18,-7.135c0,0 5.816,3.061 7.428,5.13M212.59,169.798c1.083,-0.461 2.384,-0.038 3.435,0.98c0.475,-0.72 1.042,-1.123 1.564,-1.022c0.975,0.193 1.436,2.071 1.024,4.2c-0.13487,0.74108 -0.38347,1.45686 -0.737,2.122c-0.04,0.265 -0.1,0.52 -0.185,0.755h0.002l4.958,5.86l10.522,-3.79c0,0 -1.786,2.853 -2.23,3.895c-0.323,0.758 -0.945,3.16 -0.945,3.16c0,0 -7.686,3.14 -9.865,2.345c-2.7,-0.981 -5.79,-9.813 -5.79,-9.813c-1.162,-0.417 -2.282,-1.53 -2.93,-3.07c-1.012,-2.4 -0.484,-4.915 1.178,-5.622" data-paper-data="{&quot;origPos&quot;:null}" fill="#7a5c4e"/><path d="M213.918,178.657l4.206,-2.224l2.398,2.98c0,0 -3.759,3.294 -5.136,2.804c-0.903,-0.32 -1.468,-3.56 -1.468,-3.56M262.15,200.914h-4.776l-0.35,-2.425c0,0 3.838,-1.524 4.801,-0.78c0.637,0.491 0.325,3.205 0.325,3.205" fill="#d18f1c"/><path d="M230.21,179.73c0.99,-0.314 2.123,-0.663 3.413,-1.05c2.052,-0.994 6.212,-1.194 6.212,-1.194l1.58,0.08h0.135l1.583,-0.055c0,0 4.713,0.175 6.587,1.333v0.002c0.99835,0.38313 1.96929,0.83418 2.906,1.35c-0.44,2.161 0.582,6.035 1.013,7.652c0.07,0.467 0.15,0.785 0.15,0.785c1.816,8.996 1.944,20.598 1.944,20.598l-28.599,-0.116c0,0 0.277,-13.84 2.624,-23.023c0,0 0.846,-3.39 0.452,-6.362" fill="#d8bda0"/><path d="M244.48,177.597c0.165,0.018 0.343,0.04 0.53,0.06c0,0 -0.566,3.762 -3.564,3.762c-2.758,0 -3.438,-3.773 -3.438,-3.773l0.49,-0.048c-0.268,-0.598 -0.431,-1.276 -0.431,-1.703h6.844c0,0.427 -0.163,1.105 -0.431,1.703" data-paper-data="{&quot;origPos&quot;:null}" fill="#7a5c4e"/><path d="M238.802,178.167c-0.38139,-0.60841 -0.62699,-1.29198 -0.72,-2.004c1.084,0.177 2.198,0.272 3.333,0.272c1.16675,0.00006 2.33135,-0.09997 3.481,-0.299l-0.01,0.015l-6.084,2.016" fill="#eeac6c"/><path d="M229.776,186.047c3.141,-0.261 3.415,-7.215 3.415,-7.215c0,0 0,0.005 -0.008,0.015c0.999,-0.664 2.921,-1.013 4.445,-1.192c0,0 0.209,7.051 3.804,7.059c3.6,0.008 3.878,-7.063 3.878,-7.063c1.507,0.187 3.421,0.543 4.451,1.194l0.004,0.01c0.021,7.307 4.073,9.37 3.87,8.96c1.957,9.072 2.121,21.415 2.121,21.415c0,0 -4.073,-0.011 -5.779,0.356c-1.826,0.393 -4.454,2.1 -8.354,2.1c-3.613,0 -6.296,-1.726 -8.053,-2.1c-1.888,-0.405 -6.53,-0.356 -6.53,-0.356c0,0 0.398,-14.008 2.736,-23.182" fill="#d18f1c"/><path d="M228.885,198.412c-0.113,0.487 -0.553,0.88 -1.076,0.897c0.03443,0.56304 0.50191,1.00158 1.066,1c0.567,0 1.028,-0.434 1.065,-1c-0.517,-0.027 -0.942,-0.417 -1.055,-0.897M229.982,197.345c-0.11568,0.49746 -0.54336,0.86056 -1.053,0.894c0.02473,0.57079 0.49467,1.02082 1.066,1.02082c0.57133,0 1.04127,-0.45003 1.066,-1.02082c-0.526,-0.012 -0.966,-0.406 -1.079,-0.894M231.105,198.412c-0.114,0.487 -0.551,0.88 -1.079,0.897c0.03544,0.56336 0.50353,1.00164 1.068,1c0.565,0 1.028,-0.434 1.064,-1c-0.517,-0.027 -0.943,-0.417 -1.053,-0.897M232.202,197.345c-0.11718,0.49775 -0.54574,0.86056 -1.056,0.894c0.03436,0.56465 0.50231,1.00499 1.068,1.005c0.56492,-0.00107 1.03168,-0.44112 1.066,-1.005c-0.526,-0.012 -0.963,-0.406 -1.078,-0.894M233.322,198.412c-0.113,0.487 -0.553,0.88 -1.079,0.897c0.0419,0.55831 0.50712,0.98993 1.067,0.98993c0.55988,0 1.0251,-0.43162 1.067,-0.98993c-0.515,-0.027 -0.942,-0.417 -1.055,-0.897M234.421,197.345c-0.117,0.49826 -0.54623,0.8613 -1.057,0.894c0.03842,0.56072 0.50447,0.99593 1.0665,0.99593c0.56203,0 1.02808,-0.43521 1.0665,-0.99593c-0.526,-0.012 -0.965,-0.406 -1.076,-0.894M235.541,198.412c-0.113,0.487 -0.55,0.88 -1.078,0.897c0.03009,0.56705 0.49865,1.01142 1.0665,1.01142c0.56785,0 1.03641,-0.44436 1.0665,-1.01142c-0.517,-0.027 -0.944,-0.417 -1.055,-0.897M236.638,197.345c-0.11736,0.49724 -0.54525,0.85982 -1.055,0.894c-0.02431,0.39679 0.17358,0.7743 0.51373,0.98005c0.34015,0.20575 0.76638,0.20575 1.10653,0c0.34015,-0.20575 0.53804,-0.58326 0.51373,-0.98005c-0.526,-0.012 -0.964,-0.406 -1.079,-0.894M237.758,198.412c-0.113,0.487 -0.55,0.88 -1.078,0.897c0.03491,0.56281 0.5021,1.00108 1.066,1c0.568,0 1.03,-0.434 1.068,-1c-0.516,-0.027 -0.945,-0.417 -1.056,-0.897M238.856,197.345c-0.1166,0.49811 -0.54548,0.8612 -1.056,0.894c0.03455,0.56395 0.50199,1.00364 1.067,1.00364c0.56501,0 1.03245,-0.43969 1.067,-1.00364c-0.528,-0.012 -0.963,-0.406 -1.078,-0.894M239.976,198.412c-0.113,0.487 -0.551,0.88 -1.079,0.897c0.03593,0.56313 0.50373,1.00114 1.068,1c0.566,0 1.028,-0.434 1.068,-1c-0.515,-0.027 -0.942,-0.417 -1.057,-0.897M241.075,197.345c-0.11762,0.49909 -0.54822,0.86226 -1.06,0.894c0.03777,0.56383 0.50491,1.00259 1.07,1.005c0.5653,-0.001 1.03267,-0.44081 1.068,-1.005c-0.528,-0.012 -0.963,-0.406 -1.078,-0.894M242.195,198.412c-0.115,0.487 -0.551,0.88 -1.078,0.897c0.038,0.566 0.502,1 1.068,1c0.563,0 1.028,-0.434 1.065,-1c-0.515,-0.027 -0.944,-0.417 -1.055,-0.897M243.292,197.345c-0.11707,0.49741 -0.54512,0.86014 -1.055,0.894c0.03533,0.56419 0.5027,1.004 1.068,1.005c0.56492,-0.00107 1.03168,-0.44112 1.066,-1.005c-0.526,-0.012 -0.964,-0.406 -1.079,-0.894M244.412,198.412c-0.115,0.487 -0.552,0.88 -1.078,0.897c-0.01699,0.39222 0.18259,0.76214 0.51971,0.96332c0.33713,0.20118 0.75745,0.20118 1.09457,0c0.33713,-0.20118 0.5367,-0.5711 0.51971,-0.96332c-0.516,-0.027 -0.945,-0.417 -1.056,-0.897M245.51,197.345c-0.11608,0.49762 -0.54411,0.86067 -1.054,0.894c-0.02431,0.39679 0.17358,0.7743 0.51373,0.98005c0.34015,0.20575 0.76638,0.20575 1.10653,0c0.34015,-0.20575 0.53804,-0.58326 0.51373,-0.98005c-0.53,-0.012 -0.965,-0.406 -1.08,-0.894M246.63,198.412c-0.113,0.487 -0.551,0.88 -1.077,0.897c0.02474,0.57133 0.49513,1.02179 1.067,1.02179c0.57187,0 1.04226,-0.45046 1.067,-1.02179c-0.517,-0.027 -0.944,-0.417 -1.057,-0.897M247.729,197.345c-0.11707,0.49741 -0.54512,0.86014 -1.055,0.894c0.03434,0.56426 0.50169,1.00446 1.067,1.005c0.56471,-0.00248 1.03123,-0.44148 1.068,-1.005c-0.527,-0.012 -0.967,-0.406 -1.08,-0.894M248.849,198.412c-0.116,0.487 -0.553,0.88 -1.076,0.897c0.03339,0.56234 0.49967,1.00099 1.063,1c0.568,0 1.031,-0.434 1.068,-1c-0.515,-0.027 -0.942,-0.417 -1.055,-0.897M249.948,197.345c-0.11707,0.49741 -0.54512,0.86014 -1.055,0.894c-0.02092,0.39416 0.17746,0.76766 0.51575,0.97103c0.33829,0.20337 0.76121,0.20337 1.0995,0c0.33829,-0.20337 0.53667,-0.57688 0.51575,-0.97103c-0.527,-0.012 -0.965,-0.406 -1.075,-0.894M251.066,198.412c-0.111,0.487 -0.55,0.88 -1.076,0.897c0.03443,0.56304 0.50191,1.00158 1.066,1c0.566,0 1.028,-0.434 1.066,-1c-0.516,-0.027 -0.943,-0.417 -1.056,-0.897M252.166,197.345c-0.114,0.48 -0.541,0.869 -1.056,0.894c0.03432,0.56388 0.50108,1.00393 1.066,1.005c0.56512,-0.00057 1.03217,-0.44089 1.066,-1.005c-0.524,-0.012 -0.963,-0.406 -1.076,-0.894M253.286,198.412c-0.113,0.487 -0.551,0.88 -1.076,0.897c0.03339,0.56234 0.49967,1.00099 1.063,1c0.57,0 1.028,-0.434 1.068,-1c-0.517,-0.027 -0.942,-0.417 -1.055,-0.897M254.341,201.441c-0.517,-0.025 -0.942,-0.416 -1.055,-0.892c-0.113,0.482 -0.551,0.88 -1.076,0.892c0.03186,0.56352 0.49858,1.0039 1.063,1.003c0.56539,0.00208 1.03406,-0.43762 1.068,-1.002M255.461,202.509c-0.528,-0.015 -0.966,-0.409 -1.076,-0.895c-0.113,0.478 -0.542,0.87 -1.057,0.893c0.037,0.568 0.5,1.004 1.067,1.004c0.566,0 1.026,-0.434 1.066,-1.002M255.461,204.646c-0.51969,-0.02447 -0.95952,-0.39195 -1.076,-0.899c-0.113,0.482 -0.542,0.871 -1.057,0.894c0.04373,0.55571 0.50677,0.98475 1.06419,0.98606c0.55743,0.00131 1.02247,-0.42556 1.06881,-0.98106M255.461,206.78c-0.528,-0.016 -0.966,-0.412 -1.076,-0.896c-0.12018,0.49631 -0.54763,0.85784 -1.057,0.894c0.037,0.567 0.5,1 1.067,1c0.566,0 1.026,-0.433 1.066,-0.998M253.273,208.846c0.56539,0.00208 1.03406,-0.43762 1.068,-1.002c-0.517,-0.026 -0.942,-0.417 -1.055,-0.893c-0.113,0.484 -0.551,0.883 -1.076,0.893c0.03237,0.56313 0.49894,1.00293 1.063,1.002M251.11,206.778c0.03491,0.56281 0.5021,1.00108 1.066,1c0.567,0 1.026,-0.433 1.066,-0.998c-0.524,-0.016 -0.963,-0.412 -1.076,-0.896c-0.11921,0.4965 -0.54663,0.85836 -1.056,0.894M251.056,208.846c0.56482,0.00152 1.03259,-0.43817 1.066,-1.002c-0.516,-0.026 -0.943,-0.417 -1.056,-0.893c-0.111,0.484 -0.55,0.883 -1.076,0.893c0.03341,0.56383 0.50118,1.00352 1.066,1.002M248.893,206.778c0.03341,0.56273 0.50028,1.00152 1.064,1c0.567,0 1.027,-0.433 1.067,-0.998c-0.527,-0.016 -0.965,-0.412 -1.076,-0.896c-0.11852,0.49653 -0.54576,0.85856 -1.055,0.894M248.836,208.846c0.56539,0.00208 1.03406,-0.43762 1.068,-1.002c-0.515,-0.026 -0.942,-0.417 -1.055,-0.893c-0.116,0.484 -0.553,0.883 -1.076,0.893c0.03237,0.56313 0.49894,1.00293 1.063,1.002M247.741,209.913c0.56441,-0.00041 1.03164,-0.43876 1.068,-1.002c-0.527,-0.015 -0.967,-0.406 -1.08,-0.895c-0.11757,0.49727 -0.54521,0.86006 -1.055,0.895c0.03441,0.56376 0.50219,1.00305 1.067,1.002M246.621,208.846c0.56423,0.00002 1.03113,-0.43885 1.066,-1.002c-0.517,-0.026 -0.944,-0.417 -1.057,-0.893c-0.113,0.484 -0.551,0.883 -1.077,0.893c0.038,0.568 0.501,1.002 1.068,1.002M245.522,209.913c0.5648,0.00058 1.0326,-0.43831 1.068,-1.002c-0.53,-0.015 -0.965,-0.406 -1.08,-0.895c-0.111,0.478 -0.539,0.87 -1.054,0.895c0.03341,0.56383 0.50118,1.00352 1.066,1.002M244.402,210.983c0.56551,0.00043 1.03314,-0.44044 1.066,-1.005c-0.516,-0.024 -0.945,-0.414 -1.056,-0.894c-0.115,0.486 -0.552,0.88 -1.078,0.894c0.03436,0.56465 0.50231,1.00499 1.068,1.005M242.237,208.911c-0.02431,0.39679 0.17358,0.7743 0.51373,0.98005c0.34015,0.20575 0.76638,0.20575 1.10653,0c0.34015,-0.20575 0.53804,-0.58326 0.51373,-0.98005c-0.526,-0.015 -0.964,-0.406 -1.079,-0.895c-0.11757,0.49727 -0.54521,0.86006 -1.055,0.895M242.185,210.983c0.56493,-0.0006 1.03168,-0.44105 1.065,-1.005c-0.515,-0.024 -0.944,-0.414 -1.055,-0.894c-0.115,0.486 -0.551,0.88 -1.078,0.894c0.03436,0.56465 0.50231,1.00499 1.068,1.005M240.015,208.911c0.03737,0.56355 0.50521,1.00166 1.07,1.002c0.5648,0.00058 1.0326,-0.43831 1.068,-1.002c-0.528,-0.015 -0.963,-0.406 -1.078,-0.895c-0.11812,0.49895 -0.54832,0.86218 -1.06,0.895M239.965,210.983c0.56569,-0.00001 1.03364,-0.44035 1.068,-1.005c-0.515,-0.024 -0.942,-0.414 -1.057,-0.894c-0.11872,0.50611 -0.55964,0.87144 -1.079,0.894c0.03436,0.56465 0.50231,1.00499 1.068,1.005M237.8,208.91c0.03394,0.56438 0.50261,1.00408 1.068,1.002c0.56482,0.00152 1.03259,-0.43817 1.066,-1.002c-0.528,-0.015 -0.963,-0.406 -1.078,-0.895c-0.1168,0.49814 -0.54545,0.86144 -1.056,0.895M237.746,210.982c0.56629,0.00149 1.0351,-0.43967 1.068,-1.005c-0.516,-0.024 -0.945,-0.414 -1.056,-0.894c-0.11861,0.50576 -0.55902,0.871 -1.078,0.894c0.03335,0.56433 0.50068,1.00493 1.066,1.005M235.583,208.91c0.03341,0.56383 0.50118,1.00352 1.066,1.002c0.568,0 1.028,-0.434 1.068,-1.002c-0.526,-0.015 -0.964,-0.406 -1.079,-0.895c-0.113,0.478 -0.54,0.87 -1.055,0.895M235.529,208.845c0.56442,0.00005 1.03162,-0.43869 1.067,-1.002c-0.517,-0.026 -0.944,-0.417 -1.055,-0.893c-0.113,0.484 -0.55,0.883 -1.078,0.893c0.03438,0.56338 0.50158,1.00252 1.066,1.002M233.364,206.777c0.0359,0.56274 0.50311,1.00062 1.067,1c0.566,0 1.029,-0.433 1.066,-0.998c-0.526,-0.016 -0.965,-0.412 -1.076,-0.896c-0.11874,0.49719 -0.547,0.8594 -1.057,0.894M233.309,208.845c0.56539,0.00208 1.03406,-0.43762 1.068,-1.002c-0.515,-0.026 -0.942,-0.417 -1.055,-0.893c-0.113,0.484 -0.553,0.883 -1.078,0.893c0.03581,0.56231 0.50155,1.00051 1.065,1.002M231.146,206.777c0.042,0.567 0.498,1 1.068,1c0.566,0 1.026,-0.433 1.066,-0.998c-0.526,-0.016 -0.963,-0.412 -1.078,-0.896c-0.11863,0.49686 -0.54638,0.85898 -1.056,0.894M231.094,208.845c0.56464,0.00197 1.0321,-0.43825 1.064,-1.002c-0.517,-0.026 -0.943,-0.417 -1.053,-0.893c-0.114,0.484 -0.551,0.883 -1.079,0.893c0.03443,0.56415 0.5028,1.00358 1.068,1.002M228.929,206.777c0.038,0.567 0.501,1 1.068,1c0.56299,0.00158 1.02958,-0.43606 1.064,-0.998c-0.526,-0.016 -0.966,-0.412 -1.079,-0.896c-0.11685,0.49675 -0.54388,0.85929 -1.053,0.894M228.875,208.845c0.56463,0.00149 1.0321,-0.43833 1.065,-1.002c-0.517,-0.026 -0.942,-0.417 -1.055,-0.893c-0.113,0.484 -0.553,0.883 -1.076,0.893c0.03341,0.56383 0.50118,1.00352 1.066,1.002M227.809,205.712c0.03544,0.56225 0.50263,0.99964 1.066,0.998c0.567,0 1.028,-0.434 1.065,-1c-0.517,-0.025 -0.942,-0.415 -1.055,-0.897c-0.113,0.486 -0.553,0.882 -1.076,0.899M227.809,203.575c0.0306,0.56649 0.49914,1.00998 1.06645,1.00945c0.56731,-0.00053 1.03502,-0.44491 1.06455,-1.01145c-0.517,-0.023 -0.942,-0.413 -1.055,-0.895c-0.113,0.489 -0.553,0.882 -1.076,0.897M229.997,201.375c0.565,0 1.026,-0.433 1.064,-1c-0.526,-0.017 -0.966,-0.412 -1.079,-0.897c-0.11659,0.4974 -0.54339,0.86097 -1.053,0.897c0.038,0.567 0.501,1 1.068,1M232.158,201.44c-0.517,-0.025 -0.943,-0.416 -1.053,-0.892c-0.114,0.482 -0.551,0.88 -1.079,0.892c0.03392,0.56454 0.50244,1.00455 1.068,1.003c0.56462,0.0014 1.03163,-0.43925 1.063,-1.003M232.214,201.375c0.566,0 1.026,-0.433 1.066,-1c-0.526,-0.017 -0.963,-0.412 -1.078,-0.897c-0.11808,0.49769 -0.54577,0.86098 -1.056,0.897c0.042,0.567 0.498,1 1.068,1M234.377,201.44c-0.515,-0.025 -0.942,-0.416 -1.055,-0.892c-0.113,0.482 -0.553,0.88 -1.079,0.892c0.0419,0.55831 0.50712,0.98993 1.067,0.98993c0.55988,0 1.0251,-0.43162 1.067,-0.98993M234.431,201.375c0.566,0 1.029,-0.433 1.066,-1c-0.526,-0.017 -0.965,-0.412 -1.076,-0.897c-0.11819,0.49802 -0.54639,0.8614 -1.057,0.897c0.0359,0.56274 0.50311,1.00062 1.067,1M236.596,201.44c-0.517,-0.025 -0.944,-0.416 -1.055,-0.892c-0.113,0.482 -0.55,0.88 -1.078,0.892c0.03842,0.56072 0.50447,0.99593 1.0665,0.99593c0.56203,0 1.02808,-0.43521 1.0665,-0.99593M236.649,201.375c0.568,0 1.028,-0.433 1.068,-1c-0.526,-0.017 -0.964,-0.412 -1.079,-0.897c-0.113,0.478 -0.54,0.87 -1.055,0.897c0.03443,0.56304 0.50191,1.00158 1.066,1M238.814,201.44c-0.516,-0.025 -0.945,-0.416 -1.056,-0.892c-0.113,0.482 -0.55,0.88 -1.078,0.892c0.03388,0.56377 0.50121,1.00349 1.066,1.003c0.56576,0.00205 1.03457,-0.43823 1.068,-1.003M238.868,201.375c0.566,0 1.028,-0.433 1.066,-1c-0.528,-0.017 -0.963,-0.412 -1.078,-0.897c-0.1175,0.49804 -0.54551,0.86161 -1.056,0.897c0.03447,0.56382 0.50314,1.00264 1.068,1M241.033,201.44c-0.515,-0.025 -0.942,-0.416 -1.057,-0.892c-0.113,0.482 -0.551,0.88 -1.079,0.892c0.03489,0.56409 0.50284,1.00355 1.068,1.003c0.56516,0.00055 1.03311,-0.43891 1.068,-1.003M241.085,201.375c0.566,0 1.028,-0.433 1.068,-1c-0.528,-0.017 -0.963,-0.412 -1.078,-0.897c-0.11853,0.49902 -0.54825,0.86266 -1.06,0.897c0.03838,0.56276 0.50593,0.99973 1.07,1M243.25,201.44c-0.515,-0.025 -0.944,-0.416 -1.055,-0.892c-0.115,0.482 -0.551,0.88 -1.078,0.892c0.038,0.569 0.502,1.003 1.068,1.003c0.5644,-0.00004 1.03115,-0.43961 1.065,-1.003M243.305,201.375c0.563,0 1.028,-0.433 1.066,-1c-0.526,-0.017 -0.964,-0.412 -1.079,-0.897c-0.11797,0.49735 -0.54515,0.86056 -1.055,0.897c0.03593,0.56313 0.50373,1.00114 1.068,1M245.468,201.44c-0.516,-0.025 -0.945,-0.416 -1.056,-0.892c-0.115,0.482 -0.552,0.88 -1.078,0.892c-0.02431,0.39679 0.17358,0.7743 0.51373,0.98005c0.34015,0.20575 0.76638,0.20575 1.10653,0c0.34015,-0.20575 0.53804,-0.58326 0.51373,-0.98005M245.522,201.375c0.565,0 1.028,-0.433 1.068,-1c-0.53,-0.017 -0.965,-0.412 -1.08,-0.897c-0.11728,0.49738 -0.54427,0.86076 -1.054,0.897c0.03443,0.56304 0.50191,1.00158 1.066,1M247.687,201.44c-0.517,-0.025 -0.944,-0.416 -1.057,-0.892c-0.113,0.482 -0.551,0.88 -1.077,0.892c0.02474,0.57133 0.49513,1.02179 1.067,1.02179c0.57187,0 1.04226,-0.45046 1.067,-1.02179M247.741,201.375c0.56388,0.00015 1.03111,-0.43733 1.068,-1c-0.527,-0.017 -0.967,-0.412 -1.08,-0.897c-0.11797,0.49735 -0.54515,0.86056 -1.055,0.897c0.03542,0.56297 0.50292,1.00111 1.067,1M249.904,201.44c-0.515,-0.025 -0.942,-0.416 -1.055,-0.892c-0.116,0.482 -0.553,0.88 -1.076,0.892c0.03186,0.56352 0.49858,1.0039 1.063,1.003c0.56576,0.00205 1.03457,-0.43823 1.068,-1.003M249.957,201.375c0.567,0 1.027,-0.433 1.067,-1c-0.527,-0.017 -0.965,-0.412 -1.076,-0.897c-0.11797,0.49735 -0.54515,0.86056 -1.055,0.897c0.03341,0.56273 0.50028,1.00152 1.064,1M252.122,201.44c-0.516,-0.025 -0.943,-0.416 -1.056,-0.892c-0.111,0.482 -0.55,0.88 -1.076,0.892c0.0329,0.56423 0.50082,1.00449 1.066,1.003c0.56518,0.00149 1.0331,-0.43877 1.066,-1.003M251.11,200.375c0.03491,0.56281 0.5021,1.00108 1.066,1c0.567,0 1.026,-0.433 1.066,-1c-0.524,-0.017 -0.963,-0.412 -1.076,-0.897c-0.114,0.478 -0.541,0.87 -1.056,0.897M252.176,203.51c0.56482,0.00152 1.03259,-0.43817 1.066,-1.002c-0.524,-0.015 -0.963,-0.409 -1.076,-0.895c-0.114,0.478 -0.541,0.87 -1.056,0.893c0.03385,0.56394 0.50105,1.00396 1.066,1.004M253.273,204.579c0.56606,-0.00004 1.03414,-0.44096 1.068,-1.006c-0.517,-0.023 -0.942,-0.413 -1.055,-0.895c-0.11726,0.50626 -0.5569,0.87277 -1.076,0.897c0.03182,0.56386 0.49825,1.00484 1.063,1.005M253.286,204.813c-0.113,0.486 -0.551,0.882 -1.076,0.899c0.0344,0.56155 0.5004,0.99905 1.063,0.998c0.57,0 1.028,-0.434 1.068,-1c-0.517,-0.025 -0.942,-0.415 -1.055,-0.897M251.11,204.64c0.0333,0.56467 0.50035,1.00587 1.066,1.007c0.56423,0.00002 1.03113,-0.43885 1.066,-1.002c-0.524,-0.017 -0.963,-0.411 -1.076,-0.899c-0.114,0.482 -0.541,0.871 -1.056,0.894M251.066,204.813c-0.1177,0.50631 -0.55683,0.8732 -1.076,0.899c0.03544,0.56225 0.50263,0.99964 1.066,0.998c0.566,0 1.028,-0.434 1.066,-1c-0.516,-0.025 -0.943,-0.415 -1.056,-0.897M248.893,204.641c-0.02165,0.39411 0.17604,0.76798 0.51394,0.97197c0.3379,0.20399 0.76081,0.20479 1.09948,0.00206c0.33866,-0.20272 0.53775,-0.57585 0.51758,-0.97003c-0.51969,-0.02447 -0.95952,-0.39195 -1.076,-0.899c-0.113,0.482 -0.538,0.871 -1.055,0.894M247.773,205.712c0.0344,0.56155 0.5004,0.99905 1.063,0.998c0.568,0 1.031,-0.434 1.068,-1c-0.515,-0.025 -0.942,-0.415 -1.055,-0.897c-0.116,0.486 -0.553,0.882 -1.076,0.899M247.729,205.883c-0.11852,0.49653 -0.54576,0.85856 -1.055,0.894c0.03791,0.5613 0.50399,0.99738 1.06657,0.99791c0.56258,0.00053 1.02948,-0.43468 1.06843,-0.99591c-0.527,-0.017 -0.967,-0.412 -1.08,-0.897M245.553,205.712c0.038,0.564 0.501,0.998 1.068,0.998c0.564,0 1.026,-0.434 1.066,-1c-0.517,-0.025 -0.944,-0.415 -1.057,-0.897c-0.11923,0.50593 -0.55794,0.87254 -1.077,0.9M244.456,206.777c0.03443,0.56304 0.50191,1.00158 1.066,1c0.565,0 1.028,-0.433 1.068,-0.998c-0.53,-0.016 -0.965,-0.412 -1.08,-0.896c-0.11783,0.49655 -0.54488,0.85877 -1.054,0.894M244.412,206.95c-0.115,0.484 -0.552,0.883 -1.078,0.893c-0.02431,0.39679 0.17358,0.7743 0.51373,0.98005c0.34015,0.20575 0.76638,0.20575 1.10653,0c0.34015,-0.20575 0.53804,-0.58326 0.51373,-0.98005c-0.516,-0.026 -0.945,-0.417 -1.056,-0.893M242.237,206.777c-0.01735,0.3922 0.18188,0.76231 0.51881,0.9638c0.33694,0.20149 0.75725,0.20189 1.09457,0.00103c0.33731,-0.20086 0.53723,-0.57059 0.52062,-0.96283c-0.526,-0.016 -0.964,-0.412 -1.079,-0.896c-0.11852,0.49653 -0.54576,0.85856 -1.055,0.894M242.195,206.95c-0.115,0.484 -0.551,0.883 -1.078,0.893c0.038,0.568 0.502,1.002 1.068,1.002c0.56404,-0.00001 1.03064,-0.43901 1.065,-1.002c-0.515,-0.026 -0.944,-0.417 -1.055,-0.893M240.015,206.777c0.03838,0.56276 0.50593,0.99973 1.07,1c0.566,0 1.028,-0.433 1.068,-0.998c-0.528,-0.016 -0.963,-0.412 -1.078,-0.896c-0.11937,0.49801 -0.54899,0.86035 -1.06,0.894M239.976,206.95c-0.113,0.484 -0.551,0.883 -1.079,0.893c0.0354,0.56369 0.5032,1.00258 1.068,1.002c0.5648,0.00058 1.0326,-0.43831 1.068,-1.002c-0.515,-0.026 -0.942,-0.417 -1.058,-0.893M237.8,206.777c0.03447,0.56382 0.50314,1.00264 1.068,1c0.566,0 1.028,-0.433 1.066,-0.998c-0.528,-0.016 -0.963,-0.412 -1.078,-0.896c-0.11805,0.49721 -0.54612,0.85961 -1.056,0.894M237.758,206.95c-0.113,0.484 -0.55,0.883 -1.078,0.893c0.03438,0.56338 0.50158,1.00252 1.066,1.002c0.56539,0.00208 1.03406,-0.43762 1.068,-1.002c-0.516,-0.026 -0.945,-0.417 -1.056,-0.893M236.638,205.883c-0.11909,0.49617 -0.54601,0.85794 -1.055,0.894c0.03443,0.56304 0.50191,1.00158 1.066,1c0.568,0 1.028,-0.433 1.068,-0.998c-0.526,-0.016 -0.964,-0.412 -1.079,-0.896M235.541,204.813c-0.11881,0.50643 -0.55846,0.87308 -1.078,0.899c0.03061,0.56703 0.49959,1.01096 1.06745,1.01042c0.56785,-0.00053 1.036,-0.44534 1.06555,-1.01242c-0.51114,-0.03328 -0.93995,-0.39787 -1.055,-0.897M233.364,204.64c0.02873,0.56715 0.49626,1.01264 1.06413,1.01397c0.56787,0.00133 1.03748,-0.44196 1.06887,-1.00897c-0.526,-0.017 -0.965,-0.411 -1.076,-0.899c-0.11582,0.49899 -0.54571,0.86259 -1.057,0.894M233.322,204.813c-0.11952,0.5064 -0.55934,0.87285 -1.079,0.899c-0.02393,0.39681 0.17431,0.77413 0.51465,0.97956c0.34034,0.20543 0.76657,0.20503 1.10653,-0.00104c0.33996,-0.20606 0.53749,-0.58376 0.51282,-0.98052c-0.515,-0.025 -0.942,-0.415 -1.055,-0.897M231.146,204.64c0.03335,0.56544 0.50158,1.00692 1.068,1.007c0.56383,-0.00097 1.03017,-0.4393 1.066,-1.002c-0.526,-0.017 -0.963,-0.411 -1.078,-0.899c-0.113,0.482 -0.538,0.871 -1.056,0.894M231.105,204.813c-0.11892,0.50677 -0.55909,0.87351 -1.079,0.899c0.03645,0.56257 0.50425,0.99971 1.068,0.998c0.565,0 1.028,-0.434 1.064,-1c-0.517,-0.025 -0.943,-0.415 -1.053,-0.897M231.061,204.645c-0.526,-0.017 -0.966,-0.411 -1.079,-0.899c-0.1142,0.49836 -0.54271,0.86217 -1.053,0.894c-0.00138,0.58874 0.47476,1.06712 1.0635,1.0685c0.58874,0.00138 1.06712,-0.47476 1.0685,-1.0635M229.997,203.51c0.56444,0.00146 1.03161,-0.43848 1.064,-1.002c-0.526,-0.015 -0.966,-0.409 -1.079,-0.895c-0.111,0.478 -0.536,0.87 -1.053,0.893c0.038,0.568 0.501,1.004 1.068,1.004M232.158,203.573c-0.517,-0.023 -0.943,-0.413 -1.053,-0.895c-0.11756,0.50729 -0.55877,0.87408 -1.079,0.897c0.03439,0.56448 0.50247,1.00452 1.068,1.004c0.56512,-0.00019 1.03169,-0.44175 1.063,-1.006M232.214,203.51c0.566,0 1.026,-0.434 1.066,-1.002c-0.526,-0.015 -0.963,-0.409 -1.078,-0.895c-0.113,0.478 -0.538,0.87 -1.056,0.893c0.042,0.568 0.498,1.004 1.068,1.004M234.377,203.573c-0.515,-0.023 -0.942,-0.413 -1.055,-0.895c-0.11807,0.50657 -0.5584,0.87298 -1.078,0.897c0.03528,0.56288 0.50102,1.00194 1.065,1.004c0.56606,-0.00004 1.03414,-0.44096 1.068,-1.006M234.431,203.51c0.56482,0.00152 1.03259,-0.43817 1.066,-1.002c-0.526,-0.015 -0.965,-0.409 -1.076,-0.895c-0.113,0.478 -0.538,0.87 -1.057,0.893c0.03485,0.56387 0.50206,1.00349 1.067,1.004M236.596,203.573c-0.517,-0.023 -0.944,-0.413 -1.054,-0.895c-0.11766,0.50764 -0.55939,0.87452 -1.08,0.897c-0.01661,0.39224 0.18331,0.76196 0.52062,0.96283c0.33731,0.20086 0.75763,0.20047 1.09457,-0.00103c0.33694,-0.20149 0.53616,-0.5716 0.51881,-0.9638M236.649,203.51c0.568,0 1.028,-0.434 1.068,-1.002c-0.526,-0.015 -0.964,-0.409 -1.079,-0.895c-0.113,0.478 -0.54,0.87 -1.055,0.893c0.03337,0.56417 0.50085,1.00446 1.066,1.004M238.814,203.573c-0.516,-0.023 -0.945,-0.413 -1.056,-0.895c-0.11746,0.50695 -0.55814,0.87364 -1.078,0.897c0.04242,0.55828 0.50804,0.98946 1.06793,0.98894c0.55989,-0.00052 1.0247,-0.43258 1.06607,-0.99094M238.868,203.51c0.56482,0.00152 1.03259,-0.43817 1.066,-1.002c-0.528,-0.015 -0.963,-0.409 -1.078,-0.895c-0.11639,0.49807 -0.54551,0.86096 -1.056,0.893c0.03341,0.56494 0.50208,1.00552 1.068,1.004M241.033,203.573c-0.515,-0.023 -0.942,-0.413 -1.057,-0.895c-0.11756,0.50729 -0.55877,0.87408 -1.079,0.897c0.03487,0.56425 0.50267,1.00402 1.068,1.004c0.56566,-0.00104 1.03317,-0.44141 1.068,-1.006M241.085,203.51c0.5648,0.00058 1.0326,-0.43831 1.068,-1.002c-0.528,-0.015 -0.963,-0.409 -1.078,-0.895c-0.1177,0.49888 -0.54838,0.8617 -1.06,0.893c0.03732,0.56389 0.50488,1.00261 1.07,1.004M243.25,203.573c-0.514,-0.023 -0.944,-0.413 -1.054,-0.895c-0.116,0.489 -0.552,0.882 -1.08,0.897c0.03507,0.56392 0.50293,1.00318 1.06794,1.00265c0.56501,-0.00053 1.03205,-0.44066 1.06606,-1.00465M243.305,203.51c0.56442,0.00052 1.03162,-0.43862 1.066,-1.002c-0.526,-0.015 -0.964,-0.409 -1.079,-0.895c-0.111,0.478 -0.54,0.87 -1.055,0.893c0.03487,0.56425 0.50267,1.00402 1.068,1.004M245.468,203.573c-0.516,-0.023 -0.945,-0.413 -1.056,-0.895c-0.115,0.489 -0.552,0.882 -1.078,0.897c0.03507,0.56392 0.50293,1.00318 1.06794,1.00265c0.56501,-0.00053 1.03205,-0.44066 1.06606,-1.00465M245.522,203.51c0.5648,0.00058 1.0326,-0.43831 1.068,-1.002c-0.53,-0.015 -0.965,-0.409 -1.08,-0.895c-0.111,0.478 -0.539,0.87 -1.054,0.893c0.03337,0.56417 0.50085,1.00446 1.066,1.004M244.456,204.641c0.03347,0.56403 0.5001,1.00461 1.06512,1.00567c0.56502,0.00106 1.03329,-0.43777 1.06888,-1.00167c-0.53,-0.017 -0.965,-0.411 -1.08,-0.899c-0.1149,0.49834 -0.54359,0.86195 -1.054,0.894M244.412,204.813c-0.115,0.486 -0.552,0.882 -1.078,0.899c0.03694,0.56234 0.50445,0.99921 1.068,0.998c0.566,0 1.028,-0.434 1.066,-1c-0.516,-0.025 -0.945,-0.415 -1.056,-0.897M242.237,204.64c0.03432,0.56498 0.50198,1.00593 1.068,1.007c0.56383,-0.00097 1.03017,-0.4393 1.066,-1.002c-0.526,-0.017 -0.964,-0.411 -1.079,-0.899c-0.1156,0.49831 -0.54447,0.86173 -1.055,0.894M242.195,204.813c-0.115,0.486 -0.551,0.882 -1.078,0.899c0.038,0.564 0.502,0.998 1.068,0.998c0.563,0 1.028,-0.434 1.065,-1c-0.515,-0.025 -0.944,-0.415 -1.055,-0.897M240.015,204.64c0.03677,0.56462 0.50419,1.00452 1.07,1.007c0.56421,-0.0009 1.03116,-0.43899 1.068,-1.002c-0.528,-0.017 -0.963,-0.411 -1.078,-0.899c-0.11614,0.5 -0.54758,0.86387 -1.06,0.894M239.976,204.813c-0.11892,0.50677 -0.55909,0.87351 -1.079,0.899c0.03694,0.56234 0.50445,0.99921 1.068,0.998c0.566,0 1.028,-0.434 1.068,-1c-0.515,-0.025 -0.942,-0.415 -1.058,-0.897M237.8,204.64c0.02337,0.57142 0.49271,1.02302 1.06461,1.02436c0.57189,0.00134 1.04335,-0.44806 1.06939,-1.01936c-0.528,-0.017 -0.963,-0.411 -1.078,-0.899c-0.11512,0.49901 -0.54483,0.86281 -1.056,0.894M236.649,205.647c0.56461,0.00009 1.03212,-0.43854 1.068,-1.002c-0.526,-0.017 -0.964,-0.411 -1.079,-0.899c-0.113,0.482 -0.54,0.871 -1.055,0.894c0.03282,0.56489 0.50015,1.00636 1.066,1.007M237.758,204.813c-0.11881,0.50643 -0.55846,0.87308 -1.078,0.899c0.03592,0.56203 0.50283,0.99915 1.066,0.998c0.568,0 1.03,-0.434 1.068,-1c-0.515,-0.025 -0.945,-0.415 -1.055,-0.897M247.687,203.573c-0.517,-0.023 -0.944,-0.413 -1.057,-0.895c-0.11736,0.50661 -0.55752,0.87321 -1.077,0.897c0.00055,0.58929 0.47871,1.06655 1.068,1.066c0.58929,-0.00055 1.06655,-0.47871 1.066,-1.068M247.741,203.51c0.56441,-0.00041 1.03164,-0.43876 1.068,-1.002c-0.527,-0.015 -0.967,-0.409 -1.08,-0.895c-0.111,0.478 -0.54,0.87 -1.055,0.893c0.03436,0.5641 0.50186,1.00399 1.067,1.004M248.809,204.645c-0.527,-0.017 -0.967,-0.411 -1.08,-0.899c-0.1156,0.49831 -0.54447,0.86173 -1.055,0.894c0.03333,0.56505 0.50097,1.00639 1.067,1.007c0.56363,-0.00237 1.02973,-0.43966 1.068,-1.002M249.904,203.573c-0.515,-0.023 -0.942,-0.413 -1.055,-0.895c-0.116,0.489 -0.553,0.882 -1.076,0.897c0.03233,0.56346 0.49861,1.00387 1.063,1.004c0.56606,-0.00004 1.03414,-0.44096 1.068,-1.006M251.066,202.678c-0.11624,0.50648 -0.55589,0.87334 -1.075,0.897c-0.02055,0.39417 0.17819,0.76749 0.51666,0.97054c0.33848,0.20305 0.7614,0.20265 1.09949,-0.00103c0.3381,-0.20368 0.53613,-0.57737 0.51484,-0.97151c-0.516,-0.023 -0.943,-0.413 -1.056,-0.895M249.957,203.51c0.567,0 1.027,-0.434 1.067,-1.002c-0.527,-0.015 -0.965,-0.409 -1.076,-0.895c-0.113,0.478 -0.538,0.87 -1.055,0.893c0.03233,0.56346 0.49861,1.00387 1.063,1.004M227.809,201.44c0.0329,0.56423 0.50082,1.00449 1.066,1.003c0.565,0.00146 1.03261,-0.43893 1.065,-1.003c-0.517,-0.025 -0.942,-0.416 -1.055,-0.892c-0.113,0.482 -0.553,0.88 -1.076,0.892M228.843,198.239c-0.427,-0.011 -0.795,-0.272 -0.98,-0.63l0.012,-0.122c0.156,0.406 0.545,0.688 1,0.688c0.58469,-0.00102 1.06073,-0.47038 1.07,-1.055h0.077c0.00928,0.5854 0.48653,1.05507 1.072,1.055c0.5848,0.00004 1.06088,-0.47024 1.068,-1.055h0.081c0.00549,0.58427 0.4807,1.05503 1.065,1.055c0.58591,0.00115 1.06379,-0.46914 1.072,-1.055h0.079c0,0.5915 0.4795,1.071 1.071,1.071c0.5915,0 1.071,-0.4795 1.071,-1.071h0.075c0,0.5915 0.4795,1.071 1.071,1.071c0.5915,0 1.071,-0.4795 1.071,-1.071h0.077c0.0082,0.58508 0.48486,1.05506 1.07,1.055c0.58516,-0.00151 1.06205,-0.46996 1.074,-1.055h0.074c0,0.5915 0.4795,1.071 1.071,1.071c0.5915,0 1.071,-0.4795 1.071,-1.071h0.075c0,0.5915 0.4795,1.071 1.071,1.071c0.5915,0 1.071,-0.4795 1.071,-1.071h0.077c0.00821,0.58586 0.48609,1.05615 1.072,1.055c0.58469,0.00057 1.06051,-0.47034 1.066,-1.055h0.081c0,0.59094 0.47906,1.07 1.07,1.07c0.59094,0 1.07,-0.47906 1.07,-1.07h0.078c0.02479,0.57351 0.49695,1.02571 1.071,1.02571c0.57405,0 1.04621,-0.4522 1.071,-1.02571h0.077c0,0.59094 0.47906,1.07 1.07,1.07c0.59094,0 1.07,-0.47906 1.07,-1.07h0.077c0.00663,0.44238 0.28484,0.83506 0.7,0.988c0.004,0.023 0.004,0.046 0.008,0.071c-0.372,-0.132 -0.657,-0.455 -0.745,-0.835c-0.11874,0.49719 -0.547,0.8594 -1.057,0.894c0.02506,0.43154 0.30777,0.80542 0.71616,0.9471c0.40839,0.14168 0.86191,0.02321 1.14884,-0.3001l0.006,0.075c-0.20299,0.21215 -0.48059,0.33696 -0.774,0.348c0.03463,0.49265 0.39903,0.89905 0.885,0.987c0.002,0.019 0.002,0.043 0.009,0.063c-0.463,-0.073 -0.831,-0.438 -0.934,-0.88c-0.11925,0.49753 -0.54674,0.86071 -1.057,0.898c0.037,0.566 0.5,1 1.067,1c0.417,0 0.777,-0.239 0.953,-0.59c0.004,0.038 0.008,0.071 0.008,0.111c-0.19978,0.32553 -0.5493,0.52939 -0.931,0.543c0.03416,0.55293 0.48615,0.98754 1.04,1c0.004,0.106 0.013,0.209 0.017,0.312c-0.14206,0.47079 -0.56575,0.80069 -1.057,0.823c0.0348,0.5631 0.50083,1.00244 1.065,1.004c0.038,0 0.065,-0.002 0.097,-0.003c0.00227,0.01993 0.0036,0.03995 0.004,0.06l-0.046,0.004c0.00676,0.10019 0.02798,0.19888 0.063,0.293c0.002,0.055 0.006,0.112 0.006,0.169c-0.05,-0.091 -0.086,-0.188 -0.109,-0.289c-0.11962,0.50674 -0.55997,0.87329 -1.08,0.899c0.01985,0.3041 0.16866,0.58524 0.40898,0.77265c0.24032,0.1874 0.54925,0.26322 0.84902,0.20835c0.00237,0.02159 0.0037,0.04328 0.004,0.065c-0.04704,0.01036 -0.09488,0.01672 -0.143,0.019c0.01283,0.17608 0.0677,0.34651 0.16,0.497c0.004,0.036 0.004,0.072 0.004,0.108c-0.094,-0.129 -0.169,-0.276 -0.203,-0.432c-0.113,0.484 -0.553,0.883 -1.08,0.893c0.01964,0.31668 0.17907,0.60823 0.43508,0.79565c0.25601,0.18742 0.58211,0.25131 0.88992,0.17435c0,0.023 0,0.047 0.002,0.067c-0.067,0.015 -0.134,0.026 -0.207,0.03c0.00721,0.11061 0.0322,0.21934 0.074,0.322h-0.07c-0.017,-0.05 -0.034,-0.099 -0.044,-0.15c-0.015,0.051 -0.031,0.102 -0.048,0.15h-0.065c0.038,-0.101 0.059,-0.208 0.069,-0.322c-0.528,-0.015 -0.966,-0.406 -1.076,-0.895c-0.113,0.478 -0.542,0.87 -1.057,0.895c0.00884,0.12496 0.03929,0.24745 0.09,0.362l-0.065,0.002c-0.02914,-0.06107 -0.05161,-0.12511 -0.067,-0.191c-0.017,0.07 -0.04,0.134 -0.067,0.2c-0.025,0 -0.046,0 -0.069,0.002c0.05264,-0.11856 0.08379,-0.24554 0.092,-0.375c-0.524,-0.015 -0.963,-0.406 -1.076,-0.895c-0.114,0.478 -0.541,0.87 -1.056,0.895c0.01045,0.17519 0.06367,0.34514 0.155,0.495l-0.065,0.006c-0.058,-0.101 -0.109,-0.213 -0.134,-0.328c-0.029,0.128 -0.081,0.248 -0.153,0.357c-0.023,0.003 -0.05,0.007 -0.077,0.009c0.11014,-0.15942 0.1751,-0.34566 0.188,-0.539c-0.527,-0.015 -0.965,-0.406 -1.076,-0.895c-0.113,0.478 -0.538,0.87 -1.055,0.895c0.01937,0.34281 0.20344,0.65506 0.494,0.838c-0.027,0.008 -0.046,0.015 -0.071,0.021c-0.235,-0.164 -0.402,-0.409 -0.467,-0.686c-0.116,0.486 -0.553,0.88 -1.076,0.894c0.00571,0.11533 0.03178,0.22875 0.077,0.335l-0.061,0.023c-0.025,-0.059 -0.043,-0.122 -0.06,-0.185c-0.019,0.084 -0.048,0.164 -0.088,0.242c-0.027,0.011 -0.054,0.024 -0.086,0.034c0.073,-0.135 0.122,-0.287 0.132,-0.449c-0.517,-0.024 -0.944,-0.414 -1.057,-0.894c-0.11851,0.50542 -0.5584,0.87056 -1.077,0.894c0.02755,0.41162 0.28657,0.77184 0.668,0.929c-0.028,0.006 -0.058,0.017 -0.088,0.025c-0.309,-0.151 -0.543,-0.444 -0.623,-0.781c-0.11641,0.49791 -0.54389,0.86171 -1.054,0.897c0.00721,0.11061 0.0322,0.21934 0.074,0.322l-0.065,0.013c-0.021,-0.055 -0.038,-0.11 -0.053,-0.165c-0.014,0.063 -0.037,0.129 -0.06,0.19c-0.028,0.004 -0.053,0.01 -0.074,0.015c0.051,-0.116 0.086,-0.245 0.093,-0.375c-0.526,-0.017 -0.964,-0.411 -1.079,-0.897c-0.11739,0.49771 -0.54489,0.86118 -1.055,0.897c0.01516,0.2234 0.09937,0.43657 0.241,0.61c-0.02291,0.00271 -0.04594,0.00438 -0.069,0.005c-0.103,-0.133 -0.176,-0.283 -0.214,-0.445c-0.04059,0.16938 -0.11848,0.32756 -0.228,0.463h-0.075c0.15386,-0.1768 0.24553,-0.39914 0.261,-0.633c-0.528,-0.017 -0.963,-0.411 -1.078,-0.897c-0.109,0.48 -0.542,0.869 -1.059,0.897c0.0155,0.19808 0.08388,0.38836 0.198,0.551l-0.075,-0.008c-0.073,-0.114 -0.132,-0.24 -0.163,-0.372c-0.02755,0.11668 -0.07381,0.22812 -0.137,0.33c-0.016,-0.004 -0.04,-0.006 -0.06,-0.013c0.08899,-0.14836 0.14207,-0.31548 0.155,-0.488c-0.528,-0.017 -0.963,-0.411 -1.078,-0.897c-0.11701,0.49818 -0.54542,0.86168 -1.056,0.896c0.005,0.01 0.005,0.02 0.005,0.03c-0.03,-0.008 -0.059,-0.019 -0.088,-0.027v-0.002h-0.013c-0.192,-0.061 -0.383,-0.127 -0.572,-0.19c-0.244,-0.162 -0.429,-0.419 -0.494,-0.707c-0.03996,0.16356 -0.1139,0.31688 -0.217,0.45c-0.0195,-0.00637 -0.03854,-0.01405 -0.057,-0.023c0.1382,-0.1708 0.21935,-0.38065 0.232,-0.6c-0.517,-0.025 -0.944,-0.415 -1.055,-0.895c-0.096,0.409 -0.419,0.748 -0.825,0.86l-0.117,-0.045c0.486,-0.075 0.865,-0.477 0.898,-0.987c-0.526,-0.015 -0.965,-0.406 -1.076,-0.895c-0.113,0.478 -0.538,0.87 -1.057,0.895c0.01711,0.26681 0.1334,0.51757 0.326,0.703c-0.037,-0.008 -0.067,-0.017 -0.102,-0.023c-0.128,-0.145 -0.22,-0.32 -0.266,-0.507c-0.036,0.154 -0.105,0.296 -0.197,0.424c-0.021,-0.003 -0.044,-0.005 -0.069,-0.01c0.13172,-0.16884 0.20976,-0.37333 0.224,-0.587c-0.526,-0.015 -0.963,-0.406 -1.078,-0.895c-0.113,0.478 -0.538,0.87 -1.056,0.894c0.00884,0.14658 0.04836,0.28966 0.116,0.42c-0.023,-0.002 -0.05,-0.004 -0.07,-0.004c-0.0406,-0.07601 -0.06991,-0.15754 -0.087,-0.242c-0.019,0.077 -0.049,0.157 -0.082,0.231c-0.023,0 -0.044,-0.004 -0.067,-0.004c0.06197,-0.12475 0.09771,-0.26089 0.105,-0.4c-0.526,-0.015 -0.966,-0.406 -1.079,-0.895c-0.11589,0.4975 -0.54333,0.8608 -1.053,0.895c0.0073,0.11491 0.03261,0.22795 0.075,0.335h-0.067c-0.02,-0.055 -0.039,-0.106 -0.052,-0.162c-0.012,0.054 -0.031,0.105 -0.046,0.157c-0.025,-0.002 -0.051,-0.002 -0.071,-0.002c0.04351,-0.10426 0.06888,-0.21519 0.075,-0.328c-0.525,-0.015 -0.965,-0.406 -1.078,-0.895c-0.086,0.367 -0.356,0.682 -0.71,0.819c0.002,-0.021 0.002,-0.042 0.002,-0.065c0.38173,-0.15475 0.64074,-0.51487 0.666,-0.926c-0.232,-0.009 -0.442,-0.095 -0.618,-0.23c0,-0.023 0.005,-0.044 0.005,-0.067c0.182,0.145 0.414,0.231 0.668,0.231c0.563,0 1.025,-0.433 1.065,-0.998c-0.525,-0.016 -0.965,-0.412 -1.078,-0.896c-0.077,0.33 -0.308,0.621 -0.611,0.775c0,-0.024 0.002,-0.047 0.004,-0.07c0.32803,-0.17469 0.54193,-0.50707 0.565,-0.878c-0.184,-0.011 -0.358,-0.065 -0.511,-0.155c0,-0.022 0.004,-0.045 0.004,-0.07c0.16865,0.10515 0.36326,0.16124 0.562,0.162c0.56325,-0.00199 1.02872,-0.43991 1.065,-1.002c-0.525,-0.017 -0.965,-0.411 -1.078,-0.899c-0.064,0.284 -0.243,0.537 -0.484,0.701c0,-0.028 0.005,-0.049 0.005,-0.076c0.25724,-0.18764 0.41745,-0.48019 0.437,-0.798c-0.132,-0.006 -0.262,-0.036 -0.375,-0.086c0.00017,-0.02176 0.00184,-0.04347 0.005,-0.065c0.31932,0.13814 0.68592,0.11209 0.98249,-0.06984c0.29657,-0.18192 0.48594,-0.49691 0.50751,-0.84416c-0.525,-0.015 -0.965,-0.409 -1.078,-0.895c-0.05053,0.21531 -0.16156,0.4117 -0.32,0.566l0.004,-0.09c0.16349,-0.17824 0.26029,-0.40753 0.274,-0.649c-0.07371,-0.00241 -0.14688,-0.01349 -0.218,-0.033c0.00223,-0.02168 0.00457,-0.04334 0.007,-0.065c0.30817,0.07898 0.63551,0.01646 0.89288,-0.17053c0.25738,-0.18699 0.41799,-0.47898 0.43812,-0.79647c-0.525,-0.016 -0.965,-0.412 -1.078,-0.896c-0.02569,0.10469 -0.06502,0.20556 -0.117,0.3c0.00425,-0.06176 0.00959,-0.12343 0.016,-0.185c0.03244,-0.09225 0.05229,-0.18845 0.059,-0.286c-0.011,0 -0.021,-0.002 -0.031,-0.006l0.006,-0.062c0.025,0 0.052,0.003 0.08,0.003c0.56434,-0.00209 1.03023,-0.44173 1.065,-1.005" fill="#b5771c"/><path d="M234.937,181.317c9.845,1.006 8.124,-2.373 10.232,-4.166c1.194,-1.015 10.735,2.263 10.241,4.524c-7.092,11.554 -13.865,0.95 -20.263,1.274c-0.203,-0.358 -0.434,-1.289 -0.21,-1.632M235.37,180.677c0.403,-0.808 0.116,-3.526 -0.78,-3.526c-1.623,0 -5.89,0.503 -6.01,2.097c-0.094,1.301 4.592,2.427 4.592,2.427c0,0 1.93,-0.456 2.199,-0.998" fill="#9b1826"/><path d="M237.403,182.47c0.00186,0.75418 -0.29603,1.4782 -0.8281,2.01271c-0.53207,0.53451 -1.25472,0.8357 -2.0089,0.83729c-0.75445,-0.00132 -1.47746,-0.30237 -2.0099,-0.83688c-0.53244,-0.53451 -0.83069,-1.25867 -0.8291,-2.01312c-0.00239,-0.75523 0.29561,-1.48043 0.82833,-2.01577c0.53272,-0.53534 1.25644,-0.83691 2.01167,-0.83823c0.75462,0.00212 1.47747,0.30406 2.00938,0.83935c0.53191,0.53529 0.82928,1.26003 0.82662,2.01465" fill="#9f6a13"/><path d="M233.886,180.854c0,0.25405 -0.20595,0.46 -0.46,0.46c-0.25405,0 -0.46,-0.20595 -0.46,-0.46c0,-0.25405 0.20595,-0.46 0.46,-0.46c0.25405,0 0.46,0.20595 0.46,0.46M235.833,180.677c0,0.25433 -0.20617,0.4605 -0.4605,0.4605c-0.25433,0 -0.4605,-0.20617 -0.4605,-0.4605c0,-0.25405 0.20595,-0.46 0.46,-0.46c0.25405,0 0.46,0.20595 0.46,0.46M237.013,182.217c-0.01148,0.24653 -0.2147,0.44051 -0.4615,0.44051c-0.2468,0 -0.45002,-0.19398 -0.4615,-0.44051c0,-0.256 0.207,-0.465 0.46,-0.465c0.253,0 0.463,0.209 0.463,0.465M236.068,184.175c0,0.25603 -0.20697,0.4639 -0.463,0.465c-0.25453,-0.00275 -0.45911,-0.21045 -0.458,-0.465c0,-0.25405 0.20595,-0.46 0.46,-0.46c0.25405,0 0.46,0.20595 0.46,0.46M233.946,184.175c0,0.25603 -0.20697,0.4639 -0.463,0.465c-0.24445,-0.01606 -0.43452,-0.21902 -0.43452,-0.464c0,-0.24498 0.19007,-0.44794 0.43452,-0.464c0.255,0 0.463,0.206 0.463,0.463M233.001,182.573c0.0008,0.1227 -0.04725,0.24068 -0.13355,0.32792c-0.0863,0.08723 -0.20375,0.13655 -0.32645,0.13708c-0.1227,-0.00053 -0.24016,-0.04985 -0.32645,-0.13708c-0.0863,-0.08723 -0.13434,-0.20521 -0.13355,-0.32792c0,-0.255 0.206,-0.465 0.46,-0.465c0.255,0 0.46,0.21 0.46,0.465" fill="#d18f1c"/><path d="M235.322,182.454c0.00111,0.42929 -0.34571,0.77835 -0.775,0.78c-0.42984,-0.0011 -0.77755,-0.35016 -0.777,-0.78c0,-0.43 0.348,-0.78 0.777,-0.78c0.427,0 0.775,0.35 0.775,0.78" fill="#b5771c"/><path d="M235.007,182.454c0.00056,0.2551 -0.20491,0.4628 -0.46,0.465c-0.12287,0.00001 -0.24064,-0.04914 -0.32705,-0.13649c-0.08641,-0.08735 -0.13429,-0.20564 -0.13295,-0.32851c0,-0.25405 0.20595,-0.46 0.46,-0.46c0.25405,0 0.46,0.20595 0.46,0.46" fill="#d18f1c"/><path d="M261.766,158.848c1.055,0.68 -0.01,6.962 -2.18,6.962c-0.065,0 -0.128,0 -0.186,-0.002c-3.522,6.339 -10.256,10.627 -17.99,10.627c-7.74,0 -14.484,-4.299 -17.996,-10.646c-0.145,0.015 -0.291,0.021 -0.435,0.021c-2.171,0 -3.13,-6.453 -1.943,-7.103c-0.14,-0.971 -0.21,-1.964 -0.21,-2.972c0,-11.432 9.217,-20.7 20.584,-20.7c11.369,0 20.584,9.268 20.584,20.699c0,1.059 -0.078,2.099 -0.228,3.114" data-paper-data="{&quot;origPos&quot;:null}" fill="#7a5c4e"/><path d="M229.14,157.466c1.68,-1.044 4.15,-1.705 4.15,-1.705c0.294,-0.545 0.032,-1.482 -0.356,-1.535c-1.23,-0.177 -3.793,3.24 -3.793,3.24M252.97,157.466c-1.682,-1.044 -4.15,-1.705 -4.15,-1.705c-0.296,-0.545 -0.032,-1.482 0.355,-1.535c1.232,-0.177 3.794,3.24 3.794,3.24" fill="#f6b90c"/><path d="M262.814,153.035c0.034,2.431 -0.814,7.69 -2.462,10.827c0,0 -4.047,-11.52 -7.382,-13.345c-4.077,-2.23 -14.825,0.983 -18.465,-1.907c-0.607,-0.478 -0.536,-1.565 -0.536,-1.565c0,0 -0.697,1.383 -1.035,1.769c-1.765,2.021 -6.342,4.947 -8.513,6.516c-1.75,1.261 -1.83,1.246 -1.442,8.532c0,0 -3.212,-6.627 -3.034,-11.052c0.05,-1.277 0.666,-4.104 1.666,-6.977c3.623,-7.312 11.131,-12.333 19.803,-12.333c9.966,0 18.39,6.626 21.155,15.734c0.13812,1.26306 0.21987,2.53166 0.245,3.802" fill="#f6b90c"/><path d="M263.853,154.22c0.137,6.514 -0.894,16.88 -14.392,21.676c-0.943,-2.783 -0.143,-5.842 0.006,-8.24c10.444,-7.663 4.311,-15.11 -8.012,-10.912c-12.304,-4.198 -18.464,3.249 -8.02,10.912c0.149,2.398 0.942,5.457 0,8.24c-13.498,-4.796 -14.524,-15.162 -14.388,-21.676c-2.194,-9.093 6.317,-25.419 22.407,-25.419c16.095,0 24.909,17.065 22.399,25.419" fill="#d18f1c"/><path d="M256.637,141.909c2.814,3.223 8.939,5.714 5.936,16.078c-1.419,4.901 -7.142,-7.835 -10.473,-9.305c-2.435,-1.076 -10.647,-1.49 -10.647,-1.49c0,0 -8.197,0.414 -10.634,1.49c-3.329,1.469 -9.044,14.206 -10.464,9.305c-3.002,-10.364 3.124,-12.855 5.938,-16.078c0.969,-1.112 0.839,-4.227 2.627,-5.284c6.118,-3.619 10.616,3.749 12.533,1.478c1.948,2.272 6.428,-5.098 12.546,-1.478c1.788,1.057 1.671,4.172 2.638,5.285" fill="#9f6a13"/><path d="M253,147.803c1.589,1.697 1.373,6.417 0.555,8.642c-1.61,-2.09 -3.252,-3.221 -4.788,-3.844l-0.51,2.453l-0.28,-2.733c-0.278,-0.086 -0.557,-0.156 -0.827,-0.214l-0.419,2.242l-0.282,-2.373c-2.641,-0.396 -4.613,0.197 -4.938,-1.343c-0.244,1.608 -2.173,0.819 -4.978,1.311l-0.29,2.405l-0.42,-2.255c-0.27843,0.06694 -0.5537,0.14635 -0.825,0.238l-0.277,2.722l-0.504,-2.417c-1.501,0.648 -3.154,1.794 -4.864,3.808c-1.151,-2.612 -1.049,-6.962 0.557,-8.642c2.207,-2.307 7.551,-3.688 11.601,-3.663c3.876,0.021 9.422,1.457 11.489,3.663" fill="#b5771c"/><path d="M245.24,146.541c0,0 -0.42,-0.063 -0.081,-0.213l-1.33,-1.105l-1.568,0.518l-0.534,1.276l0.986,0.815l1.749,-0.668zM237.71,146.541c0,0 0.391,-0.12 0.08,-0.213l1.331,-1.105l1.566,0.518l0.536,1.276l-0.988,0.815l-1.746,-0.668l-0.78,-0.623z" fill="#7a4e11"/><path d="M242.662,147.446c0.603,0.212 2.577,-0.906 2.577,-0.906c0,0 -2.01,3.2 -3.762,3.584c-1.759,-0.384 -3.767,-3.584 -3.767,-3.584c0,0 1.975,1.118 2.578,0.906c0.415,-0.143 0.45,-0.765 0.435,-1.008c-0.042,-0.811 -0.712,-0.975 -1.235,-0.95c-0.396,0.023 -0.254,0.594 -0.204,0.684c0.1,0.194 0.438,-0.04 0.6,0.084c0.23,0.175 0.211,0.499 0.031,0.672c-0.382,0.36 -1.627,-0.105 -2.012,-0.459c-0.364,-0.335 -0.446,-1.535 0.004,-1.988c0.628,-0.635 3.57,-0.572 3.57,-0.572c0,0 2.94,-0.063 3.57,0.572c0.45,0.453 0.364,1.653 0,1.987c-0.385,0.355 -1.631,0.82 -2.013,0.46c-0.181,-0.172 -0.2,-0.497 0.03,-0.672c0.165,-0.124 0.501,0.11 0.601,-0.084c0.048,-0.091 0.193,-0.661 -0.205,-0.685c-0.524,-0.024 -1.202,0.12 -1.238,0.95c-0.008,0.244 0.023,0.866 0.44,1.009" fill="#9f6a13"/><path d="M241.468,150.118c0,0 0,-0.092 -0.004,-0.25c0,-0.162 -0.004,-0.39 -0.01,-0.665c0,-0.137 0,-0.285 -0.003,-0.445c-0.002,-0.155 -0.002,-0.322 -0.002,-0.494c-0.00438,-0.71533 -0.00438,-1.43067 0,-2.146c0,-0.172 0,-0.34 0.002,-0.497c0.002,-0.157 0.002,-0.305 0.002,-0.444c0.007,-0.276 0.01,-0.503 0.01,-0.663c0.005,-0.158 0.005,-0.25 0.005,-0.25l0.004,0.25l0.009,0.663c0,0.14 0.002,0.287 0.004,0.444l0.002,0.497c0.002,0.341 0.002,0.708 0.002,1.072c0,0.366 0,0.733 -0.002,1.074l-0.002,0.494c-0.002,0.16 -0.004,0.308 -0.004,0.445l-0.009,0.665l-0.004,0.25" fill="#9f6a13"/><path d="M237.123,142.801c-0.687,-0.31 -1.61,-0.071 -2.182,0c-0.72,0.089 -1.864,-0.356 -1.874,-1.621c-0.031,-0.567 1.133,-1.522 1.696,-1.497c1.533,0.066 1.981,2.371 2.36,3.118" fill="#b5771c"/><path d="M236.827,141.18c0.00106,0.4933 -0.19388,0.96682 -0.54195,1.31639c-0.34807,0.34957 -0.82075,0.54655 -1.31405,0.54761c-1.02553,-0.00496 -1.85332,-0.83947 -1.85,-1.865c0,-1.027 0.829,-1.863 1.85,-1.863c1.02686,0.00221 1.85766,0.83614 1.856,1.863" fill="#b5771c"/><path d="M236.687,141.18c0,0.953 -0.768,1.723 -1.714,1.723c-0.947,0 -1.715,-0.77 -1.715,-1.724c0,-0.951 0.768,-1.722 1.715,-1.722c0.946,0 1.714,0.77 1.714,1.722" fill="#d18f1c"/><path d="M236.475,141.18c0,0.833 -0.674,1.509 -1.503,1.509c-0.827,0 -1.5,-0.676 -1.5,-1.51c0,-0.831 0.673,-1.507 1.5,-1.507c0.829,0 1.503,0.676 1.503,1.507" fill="#b5771c"/><path d="M235.698,141.18c0,0.401 -0.322,0.73 -0.727,0.73c-0.40018,-0.0033 -0.72222,-0.32981 -0.72,-0.73c-0.00985,-0.2649 0.12585,-0.514 0.35376,-0.64937c0.22791,-0.13537 0.51157,-0.13537 0.73948,0c0.22791,0.13537 0.36361,0.38448 0.35376,0.64937" fill="#9f6a13"/><path d="M235.647,141.18c0,0.37224 -0.30176,0.674 -0.674,0.674c-0.37224,0 -0.674,-0.30176 -0.674,-0.674c0.01951,-0.35799 0.31548,-0.63827 0.674,-0.63827c0.35852,0 0.65449,0.28028 0.674,0.63827" fill="#d18f1c"/><path d="M237.123,142.801c-0.379,-0.748 -0.827,-3.052 -2.36,-3.118c-0.563,-0.025 -1.727,0.931 -1.698,1.498c0.013,1.264 1.156,1.709 1.876,1.62c0.572,-0.071 1.495,-0.31 2.182,0zM232.62,143.403v-4.305h4.752v4.305h-4.753z" fill="#9f6a13"/><path d="M234.74,139.713c-0.32,0 -0.862,0.318 -1.257,0.737c-0.262,0.276 -0.398,0.535 -0.386,0.729c0.013,1.176 0.997,1.602 1.659,1.602c0.058,0 0.123,-0.002 0.182,-0.01c0.102,-0.014 0.215,-0.032 0.339,-0.05c0.33326,-0.06238 0.67104,-0.0975 1.01,-0.105c0.3,0 0.556,0.04 0.776,0.125c-0.08223,-0.18373 -0.15564,-0.37128 -0.22,-0.562c-0.352,-0.963 -0.886,-2.417 -2.079,-2.466h-0.023zM237.19,142.865l-0.077,-0.036c-0.26183,-0.10871 -0.54359,-0.16118 -0.827,-0.154c-0.347,0 -0.695,0.057 -1,0.106c-0.11296,0.01912 -0.22632,0.03579 -0.34,0.05c-0.47092,0.04941 -0.94274,-0.08494 -1.317,-0.375c-0.268,-0.212 -0.586,-0.604 -0.592,-1.275c-0.013,-0.209 0.13,-0.485 0.4,-0.773c0.345,-0.366 0.919,-0.756 1.304,-0.756h0.019c1.241,0.05 1.78,1.529 2.14,2.508c0.094,0.252 0.173,0.473 0.25,0.63z" fill="#7a4e11"/><path d="M233.175,140.865l-0.027,0.03l-0.013,0.014c-0.004,0.006 -0.008,0.012 -0.017,0.019l-0.044,0.042c-0.01706,0.01578 -0.0351,0.03048 -0.054,0.044c-0.019,0.02 -0.042,0.034 -0.063,0.05c-0.02,0.015 -0.044,0.03 -0.069,0.047c-0.021,0.017 -0.048,0.032 -0.071,0.046l-0.076,0.042l-0.073,0.038c-0.023,0.013 -0.05,0.021 -0.069,0.034l-0.063,0.027c-0.04431,0.01855 -0.08899,0.03622 -0.134,0.053c0,0 0.053,-0.021 0.13,-0.061c0.017,-0.01 0.04,-0.02 0.063,-0.032c0.02182,-0.01126 0.04286,-0.02395 0.063,-0.038c0.025,-0.012 0.046,-0.03 0.069,-0.044c0.027,-0.012 0.048,-0.03 0.073,-0.044c0.02246,-0.01786 0.04582,-0.03455 0.07,-0.05c0.02,-0.017 0.043,-0.034 0.062,-0.051c0.02003,-0.01623 0.0397,-0.0329 0.059,-0.05c0.016,-0.017 0.033,-0.032 0.048,-0.049c0.012,-0.015 0.027,-0.027 0.035,-0.04c0.0082,-0.00449 0.01509,-0.01104 0.02,-0.019c0.00346,-0.00541 0.00748,-0.01044 0.012,-0.015c0.00582,-0.01149 0.01251,-0.02252 0.02,-0.033z" fill="#7a4e11"/><path d="M245.874,142.801c0.38,-0.747 0.83,-3.052 2.358,-3.118c0.565,-0.025 1.73,0.93 1.698,1.497c-0.013,1.265 -1.154,1.71 -1.874,1.621c-0.574,-0.071 -1.497,-0.31 -2.182,0" fill="#b5771c"/><path d="M246.171,141.179c-0.00221,-1.02592 0.82708,-1.85969 1.853,-1.863c1.02647,0.00276 1.85666,0.83653 1.855,1.863c0.00221,1.02702 -0.82798,1.86169 -1.855,1.865c-1.02647,-0.00331 -1.85621,-0.83753 -1.854,-1.864" fill="#b5771c"/><path d="M246.308,141.179c0,-0.952 0.768,-1.722 1.714,-1.722c0.94954,0.00166 1.71811,0.77246 1.717,1.722c0.00106,0.45635 -0.17927,0.89441 -0.5013,1.21775c-0.32203,0.32334 -0.75935,0.50546 -1.2157,0.50625c-0.946,0 -1.714,-0.77 -1.714,-1.723" fill="#d18f1c"/><path d="M246.526,141.179c-0.00186,-0.39852 0.15494,-0.78139 0.4358,-1.06413c0.28086,-0.28273 0.66268,-0.44208 1.0612,-0.44287c0.83,0 1.5,0.676 1.5,1.507c0,0.834 -0.67,1.51 -1.5,1.51c-0.39887,-0.00079 -0.781,-0.16041 -1.06191,-0.44358c-0.28092,-0.28317 -0.43748,-0.66656 -0.43509,-1.06542" fill="#b5771c"/><path d="M247.299,141.179c0,-0.4 0.325,-0.726 0.725,-0.726c0.40234,0 0.7285,0.32616 0.7285,0.7285c0,0.40234 -0.32616,0.7285 -0.7285,0.7285c-0.4,0 -0.724,-0.329 -0.724,-0.73" fill="#9f6a13"/><path d="M247.351,141.18c-0.01359,-0.24919 0.11163,-0.4855 0.32546,-0.61419c0.21383,-0.12869 0.48126,-0.12869 0.69509,0c0.21383,0.12869 0.33905,0.36499 0.32546,0.61419c0,0.37196 -0.30154,0.6735 -0.6735,0.6735c-0.37196,0 -0.6735,-0.30154 -0.6735,-0.6735" fill="#d18f1c"/><path d="M248.056,142.801c0.72,0.089 1.861,-0.356 1.874,-1.621c0.032,-0.567 -1.133,-1.522 -1.698,-1.497c-1.528,0.066 -1.978,2.371 -2.358,3.118c0.685,-0.31 1.608,-0.071 2.182,0zM245.625,139.098h4.753v4.305h-4.753z" fill="#9f6a13"/><path d="M248.234,139.713c-1.194,0.049 -1.725,1.503 -2.08,2.466c-0.079,0.22 -0.15,0.414 -0.219,0.562c0.2491,-0.08912 0.51252,-0.13149 0.777,-0.125c0.351,0 0.701,0.055 1.013,0.106c0.117,0.017 0.233,0.035 0.333,0.048c0.06,0.009 0.121,0.01 0.182,0.01c0.66,0 1.646,-0.425 1.66,-1.601c0.013,-0.194 -0.127,-0.453 -0.385,-0.729c-0.398,-0.419 -0.938,-0.737 -1.26,-0.737zM245.844,142.789c0.078,-0.156 0.162,-0.377 0.252,-0.63c0.36,-0.978 0.9,-2.456 2.136,-2.507h0.017c0.391,0 0.965,0.39 1.312,0.756c0.27,0.288 0.413,0.564 0.398,0.773c-0.004,0.671 -0.324,1.063 -0.59,1.275c-0.37384,0.28938 -0.84476,0.42367 -1.315,0.375c-0.11407,-0.01376 -0.22778,-0.03043 -0.341,-0.05c-0.308,-0.049 -0.656,-0.106 -1.001,-0.106c-0.329,0 -0.6,0.053 -0.827,0.154l-0.078,0.036l0.038,-0.076z" fill="#7a4e11"/><path d="M249.821,140.865l0.046,-0.04c0,0 0.01,0.01 0.027,0.033c0.002,0.005 0.006,0.009 0.01,0.015c0.01946,0.01859 0.03782,0.03829 0.055,0.059c0.014,0.017 0.031,0.032 0.048,0.049l0.056,0.05c0.02206,0.01649 0.04374,0.03349 0.065,0.051l0.072,0.05c0.02125,0.01675 0.04401,0.03148 0.068,0.044c0.02253,0.0159 0.0459,0.03059 0.07,0.044c0.025,0.015 0.046,0.028 0.067,0.038c0.019,0.012 0.042,0.022 0.06,0.032c0.078,0.04 0.128,0.061 0.128,0.061l-0.132,-0.053c-0.019,-0.008 -0.042,-0.017 -0.062,-0.027c-0.022,-0.013 -0.047,-0.021 -0.07,-0.034l-0.073,-0.038c-0.027,-0.014 -0.048,-0.027 -0.073,-0.042c-0.026,-0.01364 -0.05106,-0.029 -0.075,-0.046c-0.022,-0.017 -0.049,-0.032 -0.07,-0.047c-0.02,-0.016 -0.044,-0.03 -0.06,-0.05c-0.021,-0.014 -0.04,-0.027 -0.055,-0.044c-0.014,-0.015 -0.031,-0.03 -0.044,-0.042l-0.017,-0.019c-0.01458,-0.0141 -0.02859,-0.02878 -0.042,-0.044z" fill="#7a4e11"/><path d="M263.477,148.426c-0.023,-0.092 -0.155,-0.195 -0.283,-0.292c-0.163,-0.125 -0.333,-0.257 -0.379,-0.445c-0.052,-0.187 0.036,-0.387 0.117,-0.578c0.063,-0.14 0.132,-0.3 0.105,-0.386c-0.027,-0.092 -0.165,-0.183 -0.301,-0.271c-0.172,-0.114 -0.348,-0.232 -0.41,-0.417c-0.061,-0.188 0.01,-0.39 0.079,-0.585c0.05,-0.144 0.109,-0.308 0.075,-0.394c-0.031,-0.089 -0.178,-0.17 -0.316,-0.249c-0.18,-0.1 -0.364,-0.204 -0.438,-0.383c-0.077,-0.18 -0.02,-0.391 0.036,-0.593c0.038,-0.146 0.086,-0.312 0.046,-0.394c-0.038,-0.088 -0.193,-0.158 -0.335,-0.225c-0.188,-0.089 -0.381,-0.177 -0.469,-0.35c-0.088,-0.177 -0.046,-0.387 -0.008,-0.591c0.029,-0.15 0.063,-0.318 0.019,-0.398c-0.049,-0.084 -0.204,-0.143 -0.352,-0.198c-0.195,-0.074 -0.394,-0.148 -0.496,-0.312c-0.1,-0.168 -0.078,-0.38 -0.053,-0.59c0.013,-0.15 0.034,-0.321 -0.017,-0.4c-0.052,-0.077 -0.213,-0.123 -0.366,-0.166c-0.199,-0.058 -0.4,-0.117 -0.517,-0.271c-0.115,-0.16 -0.109,-0.375 -0.103,-0.585c0.007,-0.15 0.01,-0.325 -0.046,-0.396c-0.06,-0.074 -0.222,-0.105 -0.379,-0.137c-0.203,-0.04 -0.41,-0.082 -0.538,-0.227c-0.125,-0.148 -0.138,-0.362 -0.146,-0.569c-0.009,-0.156 -0.02,-0.326 -0.082,-0.393c-0.067,-0.07 -0.237,-0.089 -0.39,-0.106c-0.205,-0.023 -0.416,-0.048 -0.554,-0.183c-0.138,-0.137 -0.168,-0.35 -0.195,-0.556c-0.023,-0.151 -0.044,-0.324 -0.113,-0.385c-0.07,-0.063 -0.243,-0.067 -0.396,-0.072c-0.203,-0.006 -0.416,-0.012 -0.565,-0.138c-0.15,-0.123 -0.197,-0.333 -0.24,-0.535c-0.034,-0.15 -0.07,-0.32 -0.145,-0.375c-0.074,-0.057 -0.25,-0.048 -0.4,-0.042c-0.205,0.01 -0.419,0.025 -0.576,-0.088c-0.16,-0.112 -0.222,-0.316 -0.283,-0.516c-0.046,-0.146 -0.096,-0.31 -0.173,-0.36c-0.078,-0.053 -0.25,-0.028 -0.4,-0.009c-0.206,0.028 -0.417,0.057 -0.587,-0.042c-0.165,-0.097 -0.245,-0.299 -0.32,-0.49c-0.057,-0.141 -0.124,-0.303 -0.205,-0.348c-0.082,-0.044 -0.25,-0.004 -0.4,0.026c-0.199,0.046 -0.408,0.09 -0.584,0.006c-0.174,-0.086 -0.268,-0.28 -0.358,-0.467c-0.07,-0.135 -0.147,-0.291 -0.23,-0.329c-0.086,-0.036 -0.252,0.013 -0.396,0.06c-0.2,0.056 -0.404,0.117 -0.587,0.047c-0.177,-0.069 -0.288,-0.254 -0.393,-0.433c-0.078,-0.133 -0.163,-0.28 -0.251,-0.312c-0.088,-0.031 -0.25,0.032 -0.392,0.087c-0.195,0.077 -0.391,0.153 -0.576,0.094c-0.188,-0.054 -0.308,-0.231 -0.431,-0.402c-0.086,-0.126 -0.184,-0.267 -0.272,-0.29c-0.092,-0.024 -0.25,0.05 -0.385,0.115c-0.187,0.089 -0.38,0.181 -0.57,0.14c-0.19,-0.043 -0.327,-0.21 -0.459,-0.371c-0.096,-0.118 -0.2,-0.253 -0.293,-0.268c-0.092,-0.018 -0.245,0.07 -0.374,0.144c-0.18,0.103 -0.365,0.21 -0.557,0.18c-0.193,-0.029 -0.342,-0.182 -0.482,-0.332c-0.107,-0.114 -0.226,-0.24 -0.316,-0.246c-0.094,-0.013 -0.237,0.084 -0.362,0.168c-0.172,0.116 -0.348,0.236 -0.545,0.223c-0.192,-0.017 -0.351,-0.16 -0.502,-0.3c-0.115,-0.102 -0.243,-0.22 -0.337,-0.222c-0.09,-0.004 -0.224,0.103 -0.348,0.196c-0.161,0.128 -0.329,0.263 -0.525,0.263c-0.193,0 -0.36,-0.135 -0.526,-0.263c-0.117,-0.093 -0.255,-0.2 -0.347,-0.196c-0.09,0.002 -0.22,0.12 -0.333,0.221c-0.151,0.141 -0.31,0.284 -0.503,0.301c-0.197,0.013 -0.375,-0.107 -0.544,-0.223c-0.126,-0.084 -0.268,-0.18 -0.362,-0.168c-0.095,0.006 -0.21,0.132 -0.315,0.242c-0.142,0.154 -0.29,0.307 -0.483,0.337c-0.193,0.03 -0.38,-0.078 -0.56,-0.181c-0.129,-0.076 -0.282,-0.162 -0.372,-0.144c-0.092,0.015 -0.199,0.15 -0.293,0.268c-0.132,0.162 -0.268,0.328 -0.459,0.37c-0.19,0.042 -0.385,-0.05 -0.571,-0.139c-0.136,-0.065 -0.291,-0.139 -0.381,-0.115c-0.088,0.023 -0.189,0.164 -0.274,0.29c-0.122,0.17 -0.245,0.348 -0.432,0.402c-0.184,0.06 -0.383,-0.019 -0.578,-0.094c-0.14,-0.055 -0.301,-0.118 -0.387,-0.089c-0.09,0.032 -0.176,0.181 -0.255,0.314c-0.103,0.179 -0.214,0.362 -0.396,0.433c-0.182,0.07 -0.385,0.009 -0.582,-0.048c-0.147,-0.046 -0.31,-0.095 -0.396,-0.059c-0.084,0.038 -0.163,0.194 -0.23,0.329c-0.09,0.187 -0.185,0.38 -0.36,0.467c-0.176,0.082 -0.384,0.04 -0.585,-0.009c-0.148,-0.027 -0.316,-0.067 -0.397,-0.023c-0.084,0.045 -0.151,0.207 -0.206,0.348c-0.075,0.191 -0.152,0.393 -0.32,0.49c-0.17,0.1 -0.38,0.07 -0.588,0.042c-0.149,-0.019 -0.32,-0.044 -0.398,0.007c-0.078,0.05 -0.13,0.216 -0.174,0.362c-0.06,0.2 -0.125,0.404 -0.282,0.516c-0.16,0.111 -0.375,0.098 -0.578,0.088c-0.151,-0.008 -0.325,-0.015 -0.4,0.04c-0.074,0.057 -0.11,0.225 -0.143,0.377c-0.042,0.202 -0.092,0.412 -0.24,0.535c-0.15,0.126 -0.363,0.132 -0.568,0.136c-0.153,0.007 -0.324,0.01 -0.393,0.074c-0.07,0.061 -0.095,0.234 -0.114,0.385c-0.029,0.205 -0.056,0.42 -0.196,0.556c-0.139,0.135 -0.352,0.16 -0.555,0.181c-0.153,0.017 -0.325,0.038 -0.388,0.105c-0.062,0.068 -0.073,0.24 -0.081,0.394c-0.009,0.206 -0.023,0.423 -0.147,0.57c-0.127,0.146 -0.335,0.188 -0.538,0.228c-0.157,0.03 -0.32,0.063 -0.379,0.137c-0.056,0.071 -0.052,0.244 -0.048,0.396c0.006,0.208 0.015,0.425 -0.1,0.583c-0.118,0.156 -0.32,0.215 -0.518,0.273c-0.155,0.043 -0.314,0.089 -0.368,0.167c-0.05,0.078 -0.03,0.246 -0.015,0.4c0.025,0.208 0.046,0.42 -0.054,0.587c-0.1,0.166 -0.302,0.24 -0.494,0.312c-0.151,0.057 -0.306,0.116 -0.352,0.2c-0.044,0.078 -0.013,0.248 0.017,0.396c0.04,0.206 0.081,0.416 -0.007,0.591c-0.088,0.175 -0.282,0.263 -0.47,0.352c-0.143,0.067 -0.296,0.137 -0.334,0.225c-0.04,0.082 0.009,0.248 0.046,0.394c0.055,0.202 0.111,0.412 0.036,0.593c-0.073,0.18 -0.26,0.282 -0.44,0.383c-0.14,0.078 -0.282,0.16 -0.316,0.249c-0.035,0.086 0.023,0.25 0.076,0.394c0.069,0.195 0.142,0.397 0.08,0.585c-0.064,0.185 -0.242,0.303 -0.413,0.417c-0.134,0.088 -0.273,0.179 -0.298,0.271c-0.027,0.087 0.042,0.247 0.105,0.386c0.082,0.191 0.17,0.391 0.117,0.578c-0.048,0.188 -0.217,0.32 -0.38,0.445c-0.128,0.097 -0.258,0.2 -0.281,0.292l-0.287,-0.063c0.044,-0.198 0.218,-0.332 0.39,-0.465c0.123,-0.095 0.25,-0.192 0.276,-0.282c0.02,-0.093 -0.044,-0.242 -0.107,-0.388c-0.086,-0.193 -0.172,-0.395 -0.115,-0.59c0.054,-0.19 0.24,-0.313 0.418,-0.433c0.13,-0.086 0.262,-0.174 0.294,-0.26c0.031,-0.091 -0.026,-0.245 -0.078,-0.394c-0.069,-0.2 -0.144,-0.409 -0.073,-0.594c0.071,-0.192 0.264,-0.301 0.448,-0.406c0.136,-0.076 0.274,-0.156 0.312,-0.238c0.038,-0.09 -0.006,-0.247 -0.05,-0.402c-0.055,-0.203 -0.111,-0.415 -0.03,-0.598c0.088,-0.186 0.287,-0.278 0.482,-0.369c0.14,-0.067 0.287,-0.135 0.329,-0.215c0.04,-0.086 0.008,-0.246 -0.02,-0.4c-0.041,-0.21 -0.08,-0.427 0.017,-0.602c0.099,-0.176 0.306,-0.256 0.505,-0.33c0.145,-0.053 0.297,-0.112 0.346,-0.19c0.048,-0.08 0.029,-0.242 0.012,-0.398c-0.023,-0.212 -0.048,-0.433 0.065,-0.597c0.111,-0.169 0.322,-0.232 0.532,-0.289c0.148,-0.046 0.301,-0.088 0.36,-0.162c0.05,-0.076 0.046,-0.24 0.042,-0.398c-0.004,-0.212 -0.015,-0.436 0.113,-0.591c0.126,-0.156 0.343,-0.203 0.553,-0.243c0.15,-0.031 0.312,-0.06 0.368,-0.132c0.065,-0.072 0.071,-0.234 0.08,-0.392c0.01,-0.214 0.023,-0.433 0.16,-0.58c0.137,-0.146 0.359,-0.173 0.568,-0.197c0.155,-0.016 0.316,-0.035 0.381,-0.099c0.07,-0.065 0.093,-0.229 0.111,-0.383c0.028,-0.21 0.059,-0.431 0.208,-0.564c0.15,-0.137 0.372,-0.145 0.584,-0.15c0.157,-0.008 0.318,-0.012 0.387,-0.069c0.073,-0.059 0.109,-0.219 0.14,-0.375c0.046,-0.206 0.095,-0.423 0.254,-0.543c0.161,-0.124 0.38,-0.113 0.594,-0.1c0.155,0.008 0.317,0.016 0.392,-0.037c0.075,-0.054 0.128,-0.21 0.17,-0.36c0.062,-0.204 0.13,-0.414 0.297,-0.524c0.17,-0.11 0.387,-0.082 0.599,-0.052c0.155,0.023 0.314,0.044 0.393,-0.003c0.082,-0.048 0.145,-0.2 0.2,-0.347c0.079,-0.198 0.16,-0.404 0.338,-0.499c0.178,-0.092 0.392,-0.046 0.6,-0.002c0.152,0.034 0.313,0.07 0.395,0.027c0.084,-0.037 0.157,-0.185 0.226,-0.326c0.09,-0.194 0.19,-0.391 0.373,-0.474c0.188,-0.08 0.393,-0.016 0.599,0.049c0.148,0.042 0.305,0.09 0.391,0.055c0.088,-0.034 0.17,-0.173 0.253,-0.306c0.107,-0.187 0.218,-0.377 0.407,-0.442c0.19,-0.067 0.395,0.013 0.594,0.093c0.147,0.052 0.295,0.111 0.388,0.086c0.087,-0.03 0.18,-0.162 0.268,-0.29c0.123,-0.175 0.25,-0.356 0.443,-0.405c0.195,-0.054 0.392,0.04 0.587,0.13c0.138,0.068 0.287,0.14 0.377,0.12c0.092,-0.02 0.19,-0.149 0.29,-0.269c0.137,-0.166 0.277,-0.334 0.474,-0.374c0.197,-0.036 0.385,0.076 0.571,0.18c0.136,0.079 0.279,0.159 0.371,0.146c0.092,-0.017 0.203,-0.133 0.31,-0.246c0.146,-0.156 0.297,-0.314 0.498,-0.337c0.2,-0.021 0.381,0.1 0.557,0.217c0.13,0.09 0.262,0.179 0.358,0.172c0.092,-0.004 0.214,-0.113 0.329,-0.22c0.159,-0.142 0.318,-0.291 0.52,-0.302c0.202,-0.006 0.374,0.13 0.541,0.261c0.122,0.1 0.252,0.198 0.342,0.198c0.092,0 0.224,-0.099 0.345,-0.198c0.17,-0.13 0.34,-0.267 0.54,-0.26c0.201,0.01 0.365,0.16 0.52,0.3c0.115,0.108 0.238,0.217 0.328,0.221c0.094,0.007 0.228,-0.082 0.358,-0.172c0.176,-0.116 0.358,-0.24 0.56,-0.217c0.198,0.023 0.351,0.18 0.498,0.337c0.106,0.113 0.217,0.23 0.312,0.246c0.09,0.013 0.23,-0.067 0.366,-0.145c0.186,-0.105 0.377,-0.217 0.572,-0.181c0.199,0.04 0.339,0.21 0.475,0.374c0.098,0.12 0.199,0.249 0.289,0.27c0.092,0.019 0.24,-0.053 0.379,-0.118c0.192,-0.09 0.39,-0.187 0.586,-0.133c0.193,0.049 0.322,0.23 0.442,0.405c0.09,0.13 0.182,0.263 0.272,0.29c0.088,0.025 0.24,-0.031 0.387,-0.086c0.195,-0.08 0.4,-0.16 0.593,-0.093c0.188,0.065 0.3,0.257 0.408,0.442c0.082,0.133 0.163,0.272 0.25,0.308c0.087,0.033 0.24,-0.013 0.393,-0.057c0.201,-0.063 0.412,-0.126 0.597,-0.046c0.184,0.082 0.282,0.277 0.374,0.471c0.07,0.141 0.143,0.289 0.227,0.326c0.081,0.043 0.24,0.007 0.393,-0.027c0.21,-0.044 0.423,-0.088 0.601,0.002c0.178,0.097 0.26,0.303 0.34,0.501c0.054,0.148 0.114,0.297 0.194,0.345c0.084,0.047 0.243,0.026 0.396,0.005c0.211,-0.028 0.431,-0.06 0.599,0.05c0.17,0.11 0.234,0.322 0.299,0.524c0.042,0.15 0.094,0.306 0.17,0.36c0.073,0.053 0.238,0.047 0.391,0.038c0.214,-0.012 0.431,-0.025 0.593,0.1c0.16,0.12 0.207,0.336 0.253,0.545c0.033,0.153 0.07,0.313 0.142,0.374c0.07,0.057 0.233,0.061 0.386,0.068c0.215,0.006 0.435,0.012 0.584,0.15c0.15,0.134 0.18,0.353 0.205,0.563c0.023,0.156 0.044,0.32 0.113,0.386c0.065,0.06 0.228,0.082 0.381,0.099c0.21,0.023 0.433,0.048 0.572,0.195c0.136,0.148 0.148,0.367 0.157,0.58c0.006,0.16 0.014,0.32 0.08,0.39c0.058,0.072 0.217,0.102 0.37,0.133c0.21,0.04 0.425,0.087 0.55,0.245c0.128,0.155 0.12,0.379 0.116,0.59c-0.005,0.16 -0.013,0.323 0.044,0.397c0.054,0.074 0.209,0.118 0.358,0.162c0.207,0.057 0.416,0.12 0.53,0.289c0.115,0.166 0.087,0.385 0.064,0.597c-0.016,0.156 -0.035,0.32 0.013,0.398c0.05,0.078 0.2,0.137 0.345,0.19c0.201,0.076 0.406,0.154 0.507,0.33c0.096,0.175 0.057,0.394 0.015,0.602c-0.032,0.154 -0.057,0.314 -0.017,0.4c0.042,0.08 0.186,0.15 0.329,0.215c0.194,0.09 0.393,0.183 0.477,0.369c0.086,0.183 0.025,0.395 -0.03,0.598c-0.04,0.155 -0.085,0.313 -0.05,0.402c0.038,0.082 0.178,0.162 0.312,0.238c0.189,0.105 0.38,0.214 0.453,0.406c0.069,0.185 -0.005,0.394 -0.076,0.594c-0.054,0.149 -0.107,0.303 -0.075,0.393c0.027,0.087 0.159,0.175 0.29,0.261c0.179,0.12 0.363,0.242 0.422,0.434c0.054,0.194 -0.032,0.396 -0.117,0.59c-0.061,0.145 -0.128,0.294 -0.105,0.387c0.02,0.09 0.153,0.187 0.276,0.282c0.168,0.133 0.344,0.267 0.39,0.465z" fill="#9f6a13"/><path d="M229.6,153.753c-0.016,-0.248 -0.215,-0.905 -0.46,-0.88c-0.107,1.924 -1.066,3.43 -1.918,4.223c-1.298,1.211 -3.37,0.998 -4.25,2.086c-0.475,0.586 -1.444,1.77 -1.424,4.07c0.628,-2.488 1.48,-3.187 1.964,-3.606c1.474,-1.272 2.745,-0.699 4.253,-2.107c0.764,-0.72 1.888,-2.27 1.835,-3.786M222.311,165.073c2.333,-4.122 4.247,-1.436 5.855,-5.562c-1.782,2.623 -5.247,0.709 -5.855,5.562M227.777,162.063c0.804,1.933 -2.923,3.71 -1.845,5.844c0.375,0.739 2.234,2.958 3.208,-0.734c0.831,4.833 -2.913,4.856 -4.843,1.54c-3.16,-5.42 2.192,-2.94 3.48,-6.65" fill="#b5771c"/><path d="M228.368,167.838c0.00111,0.23063 -0.18437,0.4188 -0.415,0.421c-0.11086,-0.00053 -0.21697,-0.04508 -0.29499,-0.12384c-0.07802,-0.07877 -0.12155,-0.1853 -0.12101,-0.29616c-0.01078,-0.15514 0.06588,-0.30334 0.19873,-0.38419c0.13285,-0.08085 0.2997,-0.08085 0.43254,0c0.13285,0.08085 0.2095,0.22905 0.19873,0.38419M229.605,169.273c-0.465,2.838 -2.565,2.24 -2.565,2.24c0,0 2.79,1.436 2.565,-2.24M253.343,153.753c-0.052,1.516 1.072,3.066 1.84,3.786c1.506,1.408 2.773,0.835 4.25,2.107c0.487,0.419 1.333,1.118 1.963,3.606c0.025,-2.3 -0.95,-3.484 -1.422,-4.07c-0.879,-1.088 -2.952,-0.875 -4.252,-2.086c-0.852,-0.793 -1.807,-2.299 -1.916,-4.223c-0.245,-0.025 -0.446,0.632 -0.463,0.88M260.63,165.073c-0.606,-4.853 -4.07,-2.939 -5.851,-5.562c1.608,4.126 3.521,1.44 5.852,5.562M255.167,162.063c1.288,3.71 6.642,1.23 3.48,6.65c-1.932,3.316 -5.674,3.293 -4.84,-1.54c0.97,3.692 2.832,1.473 3.207,0.734c1.076,-2.134 -2.653,-3.911 -1.847,-5.844" fill="#b5771c"/><path d="M254.574,167.838c-0.00056,0.23118 0.18582,0.41935 0.417,0.421c0.235,0 0.419,-0.19 0.419,-0.42c0,-0.23086 -0.18714,-0.418 -0.418,-0.418c-0.23086,0 -0.418,0.18714 -0.418,0.418M253.341,169.273c0.465,2.838 2.563,2.24 2.563,2.24c0,0 -2.79,1.436 -2.563,-2.24" fill="#b5771c"/><path d="M261.408,187.082c6.072,0 10.996,11.459 10.996,25.593c0,14.133 -4.924,25.592 -10.996,25.592c-0.806,0 -1.594,-0.203 -2.352,-0.583c1.816,-4.084 1.303,-8.303 -1.327,-9.769c-1.457,-0.81 -3.283,-0.619 -5.044,0.346c-1.428,-4.316 -2.274,-9.722 -2.274,-15.586c0,-14.134 4.925,-25.593 10.997,-25.593" fill="#9f6a13"/><path d="M260.21,237.195c0.397,0.122 0.8,0.183 1.197,0.183c1.108,0 2.408,-0.166 3.662,-1.402c1.336,-1.314 2.772,-3.493 3.656,-5.558c2.03,-4.724 3.147,-11.023 3.147,-17.741c0,-6.718 -1.116,-13.021 -3.147,-17.745c-0.884,-2.064 -2.32,-4.245 -3.656,-5.558c-1.254,-1.236 -2.554,-1.402 -3.662,-1.402c-1.244,0 -2.477,0.591 -3.664,1.757c-1.227,1.207 -2.334,2.956 -3.3,5.203c-2.03,4.724 -3.149,11.027 -3.149,17.745c0,5.179 0.668,10.14 1.929,14.347c0.848,-0.335 1.683,-0.507 2.48,-0.507c0.89,0 1.716,0.208 2.455,0.623c1.513,0.84 2.506,2.463 2.778,4.56c0.226,1.705 -0.027,3.602 -0.726,5.495M261.407,237.498c-0.43901,-0.00188 -0.87499,-0.07275 -1.292,-0.21l-0.058,-0.017l0.023,-0.06c0.707,-1.892 0.963,-3.793 0.74,-5.496c-0.271,-2.06 -1.237,-3.647 -2.721,-4.476c-0.73323,-0.40363 -1.55805,-0.61165 -2.395,-0.604c-0.802,0 -1.644,0.177 -2.496,0.524l-0.06,0.025l-0.02,-0.063c-1.275,-4.232 -1.95,-9.227 -1.95,-14.444c0,-6.737 1.12,-13.053 3.154,-17.792c0.972,-2.259 2.092,-4.02 3.33,-5.242c1.205,-1.185 2.468,-1.79 3.745,-1.79c1.13,0 2.458,0.173 3.744,1.434c1.346,1.327 2.79,3.522 3.683,5.598c2.037,4.74 3.157,11.055 3.157,17.792c0,6.732 -1.12,13.05 -3.157,17.791c-0.892,2.072 -2.337,4.27 -3.683,5.594c-1.286,1.265 -2.613,1.436 -3.744,1.436" fill="#724a10"/><path d="M260.676,236.948c0.243,0.049 0.49,0.074 0.733,0.074c1.034,0 2.248,-0.152 3.412,-1.3c1.307,-1.283 2.71,-3.422 3.579,-5.445c2.012,-4.68 3.121,-10.93 3.121,-17.6c0,-6.672 -1.11,-12.925 -3.121,-17.605c-0.87,-2.023 -2.272,-4.16 -3.579,-5.446c-1.164,-1.143 -2.378,-1.299 -3.412,-1.299c-1.15,0 -2.301,0.558 -3.415,1.655c-1.196,1.177 -2.28,2.888 -3.227,5.09c-2.01,4.68 -3.12,10.933 -3.12,17.605c0,4.991 0.627,9.79 1.807,13.882c0.72284,-0.25591 1.48322,-0.38974 2.25,-0.396c0.948,0 1.831,0.221 2.625,0.663c1.616,0.9 2.667,2.617 2.958,4.827c0.218,1.647 0.004,3.472 -0.611,5.295M261.409,237.142c-0.273,0 -0.551,-0.034 -0.825,-0.093l-0.065,-0.014l0.023,-0.062c0.628,-1.825 0.846,-3.66 0.628,-5.303c-0.285,-2.174 -1.317,-3.859 -2.898,-4.739c-0.78569,-0.43523 -1.67086,-0.65919 -2.569,-0.65c-0.733,0 -1.497,0.137 -2.267,0.412l-0.059,0.02l-0.017,-0.06c-1.195,-4.12 -1.828,-8.951 -1.828,-13.976c0,-6.687 1.112,-12.958 3.128,-17.65c0.953,-2.218 2.046,-3.942 3.25,-5.127c1.139,-1.122 2.316,-1.689 3.499,-1.689c1.057,0 2.3,0.156 3.496,1.333c1.315,1.295 2.73,3.444 3.601,5.482c2.02,4.693 3.133,10.964 3.133,17.65c0,6.685 -1.112,12.954 -3.133,17.65c-0.87,2.035 -2.286,4.189 -3.6,5.483c-1.196,1.175 -2.44,1.333 -3.497,1.333" fill="#724a10"/><path d="M264.51,201.819c-1.294,0 -2.23,2.176 -2.584,2.997c-0.898,2.089 -1.39,4.878 -1.39,7.86c0,2.24 0.278,4.393 0.812,6.227c0.848,2.854 2.079,4.627 3.22,4.627c0.844,0 1.947,-0.518 2.448,-2.983c0.125,-0.615 0.284,-1.25 0.454,-1.928c0.44,-1.771 0.942,-3.78 0.942,-5.944c0,-2.875 -0.737,-5.513 -1.33,-7.635l-0.064,-0.232c-0.716,-2.56 -1.64,-2.947 -2.45,-2.987c-0.019,-0.002 -0.036,-0.002 -0.059,-0.002M264.569,223.65c-1.213,0 -2.461,-1.764 -3.332,-4.714c-0.536,-1.846 -0.819,-4.01 -0.819,-6.26c0,-2.996 0.494,-5.803 1.399,-7.908c0.364,-0.84 1.321,-3.07 2.692,-3.07c0.023,0 0.044,0 0.065,0.003c0.85,0.042 1.822,0.442 2.557,3.073l0.065,0.234c0.594,2.126 1.333,4.777 1.333,7.667c0,2.177 -0.502,4.192 -0.946,5.97c-0.16475,0.63828 -0.31545,1.2801 -0.452,1.925c-0.515,2.545 -1.675,3.08 -2.563,3.08" fill="#724a10"/><path d="M270.77,212.988c-0.088,4.988 -3.308,8.977 -5.722,8.935c-2.41,-0.04 -3.562,-4.107 -3.476,-9.095c0.088,-4.987 1.378,-9.01 3.79,-8.968c2.412,0.044 5.494,4.141 5.408,9.128" fill="#724a10"/><path d="M209.577,169.648c4.68,-15.405 -2.175,-19.215 -2.512,-24.356c-0.226,-3.413 -0.015,-8.94 3.235,-13.287c3.67,5.584 5.69,21.836 5.514,34.813c-0.006,0.769 -1.032,2.707 -1.032,2.707c0,0 -4.034,1.148 -5.205,0.123" fill="#d0d0d0"/><path d="M211.137,169.837c0.329,0.004 0.846,0.166 1.347,0.322c0.502,0.16 0.975,0.307 1.222,0.29c0.01474,-0.00029 0.02945,-0.00162 0.044,-0.004c0.27,-0.507 0.49,-0.983 0.561,-1.215c-0.402,-5.697 -1.137,-16.294 -1.938,-22.98c-0.43,-3.6 -0.894,-6.517 -1.384,-8.66c-0.15922,-0.72519 -0.35074,-1.4429 -0.574,-2.151c-1.545,3.343 -1.667,7.132 -1.5,9.73c0.08,1.16 0.644,2.348 1.366,3.857c1.784,3.75 4.233,8.884 1.692,18.94l-0.005,0.018c-0.1,0.432 -0.385,1.446 -0.83,1.853M213.71,170.507c-0.257,0.02 -0.737,-0.13 -1.245,-0.29c-0.536,-0.168 -1.091,-0.34 -1.397,-0.32l-0.115,0.01l0.082,-0.06c0.483,-0.362 0.795,-1.528 0.879,-1.876l0.004,-0.019c2.534,-10.035 0.09,-15.162 -1.694,-18.9c-0.72,-1.514 -1.29,-2.708 -1.365,-3.879c-0.171,-2.62 -0.046,-6.452 1.535,-9.827l0.03,-0.067l0.022,0.07c0.205,0.622 0.406,1.372 0.601,2.227c0.488,2.147 0.955,5.063 1.386,8.667c0.8,6.69 1.54,17.293 1.933,22.987v0.013c-0.07,0.234 -0.293,0.724 -0.572,1.244l-0.004,0.009l-0.015,0.002c-0.02135,0.00482 -0.04312,0.0075 -0.065,0.008" fill="#b5b4b4"/><path d="M216.711,176.991c0,0 0.094,1.4 -0.339,1.659c-1.564,0.933 -7.268,0.697 -7.19,-1.13c0.015,-0.406 0.786,-0.771 1.616,-0.116c0.963,0.768 4.016,0.418 4.029,-0.282c0.029,-1.362 0.563,-4.461 -0.377,-5.44c-0.8,-0.834 -4.483,-0.474 -4.479,1.086c-0.031,0.609 -1.019,0.556 -1.174,0.084c-0.245,-0.747 -0.731,-2.541 -0.218,-3.134c0.812,-0.941 3.289,-0.96 5.196,-0.817c1.23,-0.255 1.452,-2.331 2.22,-2.202l0.172,2.484l0.544,7.808" fill="#f7b90b"/><path d="M218.666,173.965c-0.41,2.126 -1.537,3.693 -2.515,3.501c-0.976,-0.19 -1.434,-2.065 -1.022,-4.19c0.409,-2.128 1.533,-3.694 2.51,-3.5c0.979,0.19 1.437,2.065 1.027,4.19" data-paper-data="{&quot;origPos&quot;:null}" fill="#7a5c4e"/><path d="M237.388,156.485c0,0 -0.448,1.623 -1.851,1.302c-0.686,-0.157 -0.807,-1.082 -3.01,-0.667c-0.692,0.163 -2.148,1.04 -2.429,1.627c-0.28,0.587 -0.077,-2.152 2.184,-3.17c1.632,-0.607 2.185,-0.577 3.536,-0.577c1.35,0 1.766,0.816 1.57,1.485M246.046,156.485c0,0 0.447,1.623 1.851,1.302c0.686,-0.157 0.807,-1.082 3.01,-0.667c0.692,0.163 2.148,1.04 2.428,1.627c0.281,0.587 0.078,-2.152 -2.184,-3.17c-1.631,-0.607 -2.184,-0.577 -3.535,-0.577c-1.35,0 -1.767,0.816 -1.57,1.485" data-paper-data="{&quot;origPos&quot;:null}" fill="#3b2711"/><path d="M235.333,163.1c0,1.491 -0.796,2.7 -1.778,2.7c-0.982,0 -1.777,-1.209 -1.777,-2.7c0,-1.491 0.795,-2.7 1.777,-2.7c0.982,0 1.778,1.209 1.778,2.7M251.333,163.1c0,1.491 -0.795,2.7 -1.777,2.7c-0.983,0 -1.778,-1.209 -1.778,-2.7c0,-1.491 0.795,-2.7 1.778,-2.7c0.982,0 1.777,1.209 1.777,2.7" data-paper-data="{&quot;origPos&quot;:null}" fill="#3b2711"/><path d="M238.889,165.712c0,0 0.184,-0.908 0.447,-1.168c0.711,-1.041 2.211,-1.444 2.211,-1.444c0,0 1.931,0.632 2.355,1.43c0.393,0.741 0.303,1.114 0.303,1.114c0,0 -1.886,-1.684 -2.632,-1.582c-1,0.138 -2.684,1.65 -2.684,1.65z" fill="#eeac6c"/><path d="M235.51,168.226c0,0 6.133,2.888 11.71,-0.356c0,0 -1.236,4.922 -5.289,5.005c-3.658,0.11 -4.43,-1.343 -4.868,-1.76c-0.439,-0.418 -1.264,-1.596 -1.553,-2.889" fill="#eeac6c"/></g></g></svg>