<svg version="1.1" xmlns="http://www.w3.org/2000/svg" xmlns:xlink="http://www.w3.org/1999/xlink" width="60.41511" height="119.81886" viewBox="0,0,60.41511,119.81886"><g transform="translate(-210.34891,-120.00814)"><g data-paper-data="{&quot;isPaintingLayer&quot;:true}" fill-rule="evenodd" stroke="none" stroke-width="1" stroke-linecap="butt" stroke-linejoin="miter" stroke-miterlimit="10" stroke-dasharray="" stroke-dashoffset="0" style="mix-blend-mode: normal"><path d="M234.97276,169.06c0.006,-0.004 8.509,-1.475 13.07,-0.791c2.278,0.341 5.322,3.165 2.412,6.538c-2.26,2.62 -2.248,8.628 -9.53,5.418c-2.35,-1.035 -5.82,-6.964 -5.857,-9.658c0,-0.008 -0.621,-1.153 -0.095,-1.507" data-paper-data="{&quot;origPos&quot;:null}" fill="#be936b"/><path d="M240.553,209.318c0.703,1.216 -2.883,18.18 -1.025,23.786c0.656,1.979 -3.35,9.9 -6.137,-1.577c-1.054,-4.338 -5.355,-21.527 -0.515,-22.718c1.679,-0.412 6.795,-1.016 7.677,0.51" data-paper-data="{&quot;origPos&quot;:null}" fill="#be936b"/><path d="M242.243,235.188c2.37,6.184 -7.743,3.129 -7.76,3.14c-0.122,1.308 0.552,0.454 -1.304,0.91c-0.216,-0.889 0.413,-7.069 0.733,-5.826c0.112,0.435 0.249,0.706 0.706,1.15c2.275,2.209 5.535,-4.829 7.625,0.627" fill="#1c8c43"/><path d="M256.425,179.675c1.386,2.489 6.155,14.731 6.47,17.971c0.096,0.987 -0.675,3.093 -0.592,3.89c-0.104,0.762 -0.234,1.512 -0.553,2.146c-0.814,1.625 -0.325,1.65 0.33,1.53c0.382,-0.07 1.266,-1.637 1.83,-2.621c0.484,0.813 1.061,3.543 2.518,5.663c1.17,0.238 -0.722,-4.517 -0.435,-4.156c0.764,0.958 1.562,4.06 2.501,4.284c1.371,0.33 -1.599,-3.686 -1.384,-5.02c0.001,-0.005 2.139,4.167 2.96,3.572c0.07,-0.052 0.033,-0.24 -0.2,-0.687c-0.33,-0.628 -1.529,-3.043 -1.754,-3.478c0.623,0.659 1.1,1.182 1.816,1.655c1.775,1.172 -0.814,-2.182 -1.107,-2.553c-0.959,-1.215 -2.355,-3.82 -2.67,-5.388h-0.001c-1.007,-7.055 -4.542,-18.808 -6.851,-23.814c-1.848,-4.004 -2.54,-2.275 -5.115,0.92c-1.113,1.382 1.017,3.898 2.237,6.086M254.607,209.907c0.703,1.217 -2.883,18.18 -1.025,23.786c0.655,1.98 -3.35,9.9 -6.137,-1.576c-1.054,-4.339 -5.355,-21.527 -0.515,-22.718c1.679,-0.413 6.795,-1.017 7.677,0.508M264.117,149.008c5.196,18.78 -35.672,35.96 -42.919,9.544c-5.546,-20.223 35.803,-35.264 42.92,-9.544" data-paper-data="{&quot;origPos&quot;:null}" fill="#be936b"/><path d="M229.273,155.62c2.71,-0.892 4.613,2.14 4.026,4.223c-0.6,2.13 -3.742,3.296 -5.85,0.93c-2.107,-2.368 0.772,-4.807 1.824,-5.153" fill="#fefefe"/><path d="M233.312,158.137c0.009,0.016 -1.385,-1.2 -1.468,-1.246c-2.978,-1.663 -5.081,3.249 -7.565,1.349c-0.875,-0.67 0.598,0.903 1.74,-0.613c1.295,-1.72 3.905,-3.119 5.88,-1.607c0.983,0.752 1.069,1.464 1.413,2.117" fill="#210001"/><path d="M229.165,156.794c1.946,-0.64 3.312,1.538 2.891,3.033c-0.431,1.53 -2.688,2.367 -4.2,0.668c-1.513,-1.7 0.554,-3.452 1.31,-3.7" fill="#231916"/><path d="M252.471,147.984c1.052,-0.346 4.807,-0.09 4.497,3.073c-0.31,3.162 -3.53,4.09 -5.265,2.729c-1.695,-1.332 -1.942,-4.909 0.768,-5.802" fill="#fefefe"/><path d="M252.627,149.369c0.727,-0.239 3.317,-0.062 3.104,2.121c-0.213,2.182 -2.436,2.822 -3.633,1.882c-1.171,-0.918 -1.341,-3.387 0.529,-4.003" fill="#231916"/><path d="M250.499,152.438c-0.146,-0.648 -0.262,-1.202 -0.03,-2.295c0.464,-2.196 2.817,-2.766 4.703,-2.358c1.662,0.359 1.748,-1.583 1.542,-0.611c-0.585,2.762 -4.882,0.657 -5.94,3.549c-0.03,0.08 -0.271,1.731 -0.275,1.715" fill="#210001"/><path d="M243.125,154.551c4,-1.465 5.462,2.644 2.908,5.007c-1.478,1.369 1.233,-0.744 -0.013,-3.36c-1.248,-2.618 -3.845,-1.299 -2.895,-1.647" fill="#f1c28c"/><path d="M230.82,150.495c0.185,0.071 0.088,0.134 0.156,0.28c-0.18,0.358 -0.617,0.129 -0.925,0.156c-1.113,0.097 -2.398,0.772 -3.163,1.584c-0.9,0.955 -1.295,0.799 -1.19,0.362c0.581,-2.424 2.976,-3.215 5.122,-2.382M248.187,144.629c-0.107,0.168 0.008,0.161 0.038,0.32c0.355,0.181 0.574,-0.263 0.838,-0.425c0.956,-0.583 2.389,-0.803 3.482,-0.603c1.287,0.235 1.513,-0.125 1.173,-0.415c-1.891,-1.61 -4.289,-0.824 -5.531,1.124" fill="#a05a22"/><path d="M230.41,157.829c0.755,-0.249 1.285,0.597 1.122,1.177c-0.167,0.594 -1.043,0.92 -1.63,0.26c-0.588,-0.66 0.214,-1.34 0.508,-1.437M252.99,150.747c0.755,-0.25 1.286,0.596 1.122,1.177c-0.167,0.594 -1.043,0.918 -1.63,0.259c-0.588,-0.66 0.215,-1.34 0.508,-1.436" fill="#fefefe"/><path d="M249.212,161.619c0.184,1.5 -1.327,9.344 -7.692,2.901c-0.359,-0.365 1.795,-0.82 3.875,-1.515c1.722,-0.575 3.742,-1.992 3.817,-1.386" fill="#ee8785"/><path d="M248.058,165.742c-0.32,0.4 -0.804,0.958 -1.427,1.152c-0.611,0.191 -1.271,0.09 -1.811,-0.045c0.089,-1.475 2.462,-2.378 3.238,-1.107" fill="#d76b6c"/><path d="M263.743,159.803c-0.705,-6.587 -3.14,-12.372 -7.12,-15.734c-3.56,-3.006 -14.635,-2.534 -19.947,-7.13c-3.256,7.49 -24.475,20.464 -4.852,33.956c-5.337,1.101 -10.724,1.887 -11.152,1.144c-8.64,-14.987 -5.869,-37.116 11.718,-43.286c17.158,-6.02 34.147,7.404 38.35,22.981c0.502,1.86 -7.03,5.785 -6.997,8.069" data-paper-data="{&quot;origPos&quot;:null}" fill="#a05a22"/><path d="M256.297,235.777c2.37,6.185 -7.743,3.13 -7.76,3.14c-0.123,1.308 0.551,0.454 -1.303,0.91c-0.216,-0.889 0.412,-7.068 0.732,-5.826c0.112,0.436 0.249,0.706 0.706,1.15c2.275,2.209 5.535,-4.828 7.625,0.627" fill="#1c8c43"/><path d="M230.286,179.71c-1.956,2.067 -9.586,12.742 -10.687,15.802c-0.335,0.933 -0.105,3.165 -0.382,3.917c-0.086,0.764 -0.144,1.524 0.008,2.217c0.39,1.777 -0.09,1.68 -0.696,1.4c-0.352,-0.162 -0.824,-1.9 -1.128,-2.994c-0.669,0.667 -1.899,3.168 -3.832,4.86c-1.192,-0.06 1.81,-4.197 1.442,-3.919c-0.975,0.74 -2.51,3.545 -3.476,3.53c-1.409,-0.024 2.456,-3.174 2.576,-4.52c0,-0.006 -3.097,3.505 -3.746,2.724c-0.056,-0.068 0.027,-0.242 0.363,-0.616c0.473,-0.527 2.228,-2.568 2.553,-2.934c-0.765,0.484 -1.356,0.871 -2.166,1.152c-2.008,0.693 1.325,-1.91 1.7,-2.198c1.228,-0.94 3.221,-3.116 3.912,-4.556c1.29,-4.828 5.381,-11.14 8.536,-16.236c1.769,-2.858 3.749,-5.216 4.784,-5.115c3.308,0.324 2.29,-0.509 3.901,2.146c0.922,1.518 -1.944,3.523 -3.662,5.34" data-paper-data="{&quot;origPos&quot;:null}" fill="#be936b"/><path d="M243.208,164.596c-0.43,0.115 -1.024,0.301 -1.311,-0.473c-0.009,-0.023 5.623,-2.287 6.75,-2.569c-0.06,0.399 -0.217,0.916 -0.221,0.942c-0.074,0.525 -4.633,1.944 -5.218,2.1" fill="#fefefe"/><path d="M222.239,156.6c-2.406,-3.117 -2.56,-8.05 -2.58,-9.147c-0.248,-14.269 16.824,-20.763 28.226,-17.49c7.573,2.175 11.647,14.339 10.663,12.714c-6.88,-11.359 -22.536,-13.497 -31.72,-4.347c-3.638,3.624 -5.468,14.07 -4.59,18.27" fill="#1c8c43"/><path d="M225.166,138.121c0.042,0.094 0.608,-0.842 0.53,-1.052c-3.391,-9.19 -5.773,-7.054 -5.196,-6.454c3.576,3.719 2.558,2.784 4.666,7.506M244.53,131.748c0.021,0.1 -0.986,-0.318 -1.046,-0.534c-2.661,-9.43 0.515,-9.123 0.402,-8.296c-0.701,5.127 -0.429,3.766 0.644,8.83" fill="#1c8c43"/><path d="M218.801,128.333c0.141,-0.053 2.684,-2.607 3.106,2.13c-4.52,1.487 -3.846,-1.85 -3.106,-2.13M244.051,120.022c-0.145,0.041 -3.696,-0.506 -1.255,3.565c4.519,-1.488 2.017,-3.778 1.254,-3.565" fill="#1c8c43"/><path d="M236.447,171.965c9.796,17.627 14.436,-1.265 14.22,-2.517c1.735,-0.217 5.488,-0.572 6.404,0.21c8.486,7.246 3.957,56.787 -3.905,62.316c-1.67,1.175 -3.355,-0.537 -5.914,-0.72c-2.83,-0.205 -1.696,-14.011 -3.04,-16.406c-1.395,-2.489 0.204,14.983 -4.495,17.414c-1.743,0.903 -4.235,1.252 -5.602,0.801c-14.5,-10.217 -6.625,-58.523 -6.625,-58.882c0,-2.118 5.752,-3.092 8.957,-2.216" fill="#82bf36"/><path d="M250.628,169.25c2.893,2.144 2.319,11.785 -2.574,12.142c-1.25,0.091 -2.484,0.087 -3.077,-1.684c-0.504,-1.506 0.33,2.497 -3.094,2.417c-4.453,-0.105 -7.28,-8.45 -5.218,-10.331c2.22,2.36 3.46,7.551 8.945,6.737c2.795,-0.414 4.87,-9.39 5.018,-9.281" fill="#1c8c43"/><path d="M254.398,155.606c0.348,0.05 0.406,-0.47 0.068,-0.494c-0.459,-0.033 -0.18,0.478 -0.068,0.494M254.835,157.333c0.348,0.051 0.406,-0.47 0.068,-0.495c-0.459,-0.032 -0.179,0.479 -0.068,0.495M255.883,156.087c-0.172,0.307 -0.618,0.037 -0.43,-0.248c0.253,-0.387 0.485,0.148 0.43,0.248M255.976,154.769c-0.171,0.308 -0.617,0.038 -0.43,-0.247c0.253,-0.387 0.486,0.148 0.43,0.247M256.861,155.752c-0.171,0.307 -0.618,0.037 -0.43,-0.247c0.253,-0.387 0.485,0.147 0.43,0.247M257.151,156.703c-0.171,0.308 -0.618,0.039 -0.43,-0.246c0.253,-0.387 0.485,0.147 0.43,0.246M256.224,157.164c-0.172,0.308 -0.618,0.038 -0.43,-0.247c0.253,-0.386 0.485,0.149 0.43,0.247M255.105,158.157c-0.171,0.307 -0.618,0.038 -0.43,-0.247c0.253,-0.387 0.485,0.147 0.43,0.247M258.245,156.326c-0.171,0.308 -0.618,0.038 -0.431,-0.247c0.254,-0.387 0.486,0.147 0.431,0.247M257.331,154.426c0.055,-0.099 -0.177,-0.634 -0.43,-0.247c-0.187,0.284 0.258,0.554 0.43,0.247M257.897,155.319c-0.17,0.307 -0.617,0.038 -0.43,-0.247c0.254,-0.387 0.486,0.147 0.431,0.247M253.786,157.962c-0.172,0.308 -0.618,0.038 -0.43,-0.247c0.253,-0.386 0.485,0.149 0.43,0.247M258.888,154.995c-0.172,0.307 -0.617,0.038 -0.43,-0.247c0.253,-0.387 0.486,0.147 0.43,0.247M253.563,156.622c0.171,-0.307 0.617,-0.037 0.43,0.247c-0.254,0.387 -0.485,-0.147 -0.43,-0.247M231.933,163.716c0.347,0.05 0.406,-0.47 0.068,-0.494c-0.46,-0.033 -0.18,0.478 -0.068,0.494M232.37,165.442c0.347,0.051 0.407,-0.469 0.068,-0.494c-0.459,-0.033 -0.18,0.478 -0.068,0.494M233.418,164.196c-0.172,0.308 -0.618,0.038 -0.43,-0.247c0.253,-0.387 0.485,0.148 0.43,0.247M233.511,162.879c-0.172,0.307 -0.617,0.038 -0.43,-0.247c0.253,-0.387 0.485,0.147 0.43,0.247M234.396,163.861c-0.171,0.308 -0.617,0.038 -0.43,-0.247c0.253,-0.386 0.486,0.148 0.43,0.247M234.686,164.813c-0.171,0.308 -0.617,0.038 -0.43,-0.247c0.253,-0.386 0.485,0.148 0.43,0.247M233.759,165.274c-0.172,0.308 -0.617,0.038 -0.43,-0.247c0.253,-0.387 0.485,0.148 0.43,0.246M232.639,166.267c-0.17,0.307 -0.616,0.037 -0.43,-0.247c0.254,-0.387 0.486,0.147 0.43,0.247M235.779,164.435c-0.17,0.308 -0.617,0.038 -0.43,-0.247c0.254,-0.386 0.486,0.148 0.43,0.247M234.866,162.535c0.056,-0.099 -0.177,-0.633 -0.43,-0.246c-0.187,0.284 0.258,0.554 0.43,0.246M235.433,163.428c-0.172,0.308 -0.618,0.038 -0.432,-0.246c0.255,-0.387 0.487,0.147 0.432,0.246M231.321,166.072c-0.172,0.308 -0.618,0.038 -0.43,-0.247c0.253,-0.386 0.485,0.148 0.43,0.247M236.423,163.105c-0.171,0.307 -0.618,0.037 -0.43,-0.247c0.253,-0.387 0.485,0.147 0.43,0.247M231.098,164.732c0.171,-0.307 0.617,-0.037 0.43,0.247c-0.253,0.387 -0.486,-0.147 -0.43,-0.247" fill="#aa3e0a"/></g></g></svg>