<svg xmlns="http://www.w3.org/2000/svg" width="60.415" height="119.819"><g fill-rule="evenodd" stroke-miterlimit="10" data-paper-data="{&quot;isPaintingLayer&quot;:true}" style="mix-blend-mode:normal"><path fill="#be936b" d="M24.624 49.052c.006-.004 8.509-1.475 13.07-.791 2.278.34 5.322 3.165 2.412 6.538-2.26 2.62-2.248 8.628-9.53 5.418-2.35-1.035-5.82-6.964-5.857-9.658 0-.008-.621-1.153-.095-1.507M30.204 89.31c.703 1.216-2.883 18.18-1.025 23.786.656 1.979-3.35 9.9-6.137-1.577-1.054-4.338-5.355-21.527-.515-22.718 1.68-.412 6.795-1.016 7.677.51" data-paper-data="{&quot;origPos&quot;:null}"/><path fill="#1c8c43" d="M31.894 115.18c2.37 6.184-7.743 3.129-7.76 3.14-.122 1.308.552.454-1.304.91-.216-.89.413-7.07.733-5.826.112.435.25.706.706 1.15 2.275 2.209 5.535-4.83 7.625.627"/><path fill="#be936b" d="M46.076 59.667c1.386 2.489 6.155 14.73 6.47 17.97.096.988-.675 3.094-.592 3.89-.104.763-.234 1.513-.553 2.147-.814 1.625-.325 1.65.33 1.53.382-.07 1.266-1.637 1.83-2.621.484.813 1.061 3.543 2.518 5.663 1.17.238-.722-4.517-.435-4.156.764.958 1.562 4.06 2.501 4.284 1.371.33-1.599-3.686-1.384-5.02.001-.005 2.14 4.167 2.96 3.572.07-.052.033-.24-.2-.687-.33-.628-1.529-3.043-1.754-3.478.623.659 1.1 1.182 1.816 1.655 1.775 1.172-.814-2.182-1.107-2.553-.959-1.215-2.355-3.82-2.67-5.388-1.008-7.055-4.543-18.808-6.852-23.814-1.848-4.004-2.54-2.275-5.115.92-1.113 1.382 1.017 3.898 2.237 6.086m-1.818 30.232c.703 1.217-2.883 18.18-1.025 23.786.655 1.98-3.35 9.9-6.137-1.576-1.054-4.34-5.355-21.527-.515-22.718 1.68-.413 6.795-1.017 7.677.508m9.51-60.9c5.196 18.78-35.672 35.96-42.919 9.545C5.303 18.32 46.652 3.28 53.77 29" data-paper-data="{&quot;origPos&quot;:null}"/><path fill="#fefefe" d="M18.924 35.612c2.71-.892 4.613 2.14 4.026 4.223-.6 2.13-3.742 3.296-5.85.93-2.107-2.368.772-4.807 1.824-5.153"/><path fill="#210001" d="M22.963 38.129c.01.016-1.385-1.2-1.468-1.246-2.978-1.663-5.08 3.249-7.565 1.349-.875-.67.598.903 1.74-.613 1.295-1.72 3.905-3.12 5.88-1.607.983.752 1.07 1.464 1.413 2.117"/><path fill="#231916" d="M18.816 36.786c1.946-.64 3.312 1.538 2.891 3.033-.43 1.53-2.688 2.367-4.2.668-1.513-1.7.554-3.452 1.31-3.7"/><path fill="#fefefe" d="M42.122 27.976c1.052-.346 4.807-.09 4.497 3.073-.31 3.162-3.53 4.09-5.265 2.729-1.695-1.332-1.942-4.91.768-5.802"/><path fill="#231916" d="M42.278 29.36c.727-.238 3.317-.061 3.104 2.122-.213 2.182-2.436 2.822-3.633 1.882-1.17-.918-1.34-3.387.53-4.003"/><path fill="#210001" d="M40.15 32.43c-.146-.648-.262-1.202-.03-2.295.464-2.196 2.817-2.766 4.703-2.358 1.662.359 1.748-1.583 1.542-.611-.585 2.762-4.882.657-5.94 3.549-.03.08-.27 1.73-.275 1.715"/><path fill="#f1c28c" d="M32.776 34.543c4-1.465 5.462 2.644 2.908 5.007-1.478 1.369 1.233-.744-.013-3.36-1.248-2.618-3.845-1.3-2.895-1.647"/><path fill="#a05a22" d="M20.471 30.487c.185.07.088.134.156.28-.18.358-.617.129-.925.156-1.113.097-2.398.772-3.163 1.584-.9.955-1.295.799-1.19.362.581-2.424 2.976-3.215 5.122-2.382m17.367-5.866c-.107.168.008.16.038.32.355.18.574-.263.838-.425.956-.583 2.39-.803 3.482-.603 1.287.235 1.513-.125 1.173-.415-1.89-1.61-4.289-.824-5.53 1.124"/><path fill="#fefefe" d="M20.061 37.82c.755-.248 1.285.598 1.122 1.178-.167.594-1.043.92-1.63.26-.588-.66.214-1.34.508-1.437m22.58-7.082c.755-.25 1.286.596 1.122 1.177-.167.594-1.043.918-1.63.259-.588-.66.215-1.34.508-1.436"/><path fill="#ee8785" d="M38.863 41.61c.184 1.5-1.327 9.345-7.692 2.902-.359-.365 1.795-.82 3.875-1.515 1.722-.575 3.742-1.992 3.817-1.386"/><path fill="#d76b6c" d="M37.71 45.734c-.32.4-.805.958-1.428 1.152-.61.19-1.27.09-1.81-.045.088-1.475 2.461-2.378 3.237-1.107"/><path fill="#a05a22" d="M53.394 39.795c-.705-6.587-3.14-12.372-7.12-15.734-3.56-3.006-14.635-2.534-19.947-7.13-3.256 7.49-24.475 20.464-4.852 33.956-5.337 1.1-10.724 1.887-11.152 1.144-8.64-14.987-5.869-37.116 11.718-43.286 17.158-6.02 34.147 7.404 38.35 22.98.502 1.86-7.03 5.786-6.997 8.07" data-paper-data="{&quot;origPos&quot;:null}"/><path fill="#1c8c43" d="M45.948 115.769c2.37 6.185-7.743 3.13-7.76 3.14-.123 1.308.551.454-1.303.91-.216-.89.412-7.068.732-5.826.112.436.25.706.706 1.15 2.275 2.209 5.535-4.828 7.625.627"/><path fill="#be936b" d="M19.937 59.702c-1.956 2.067-9.586 12.742-10.687 15.802-.335.933-.105 3.165-.382 3.917-.086.764-.144 1.524.008 2.217.39 1.777-.09 1.68-.696 1.4-.352-.162-.824-1.9-1.128-2.994-.669.667-1.899 3.168-3.832 4.86-1.192-.06 1.81-4.197 1.442-3.92-.975.74-2.51 3.546-3.476 3.53-1.409-.023 2.456-3.173 2.576-4.52 0-.005-3.097 3.506-3.746 2.725-.056-.068.027-.242.363-.616.473-.527 2.228-2.568 2.553-2.934-.765.484-1.356.87-2.166 1.152-2.008.693 1.325-1.91 1.7-2.198 1.228-.94 3.221-3.116 3.912-4.556 1.29-4.828 5.381-11.14 8.536-16.236 1.77-2.858 3.75-5.216 4.784-5.115 3.308.324 2.29-.51 3.901 2.146.922 1.518-1.944 3.523-3.662 5.34" data-paper-data="{&quot;origPos&quot;:null}"/><path fill="#fefefe" d="M32.86 44.588c-.43.115-1.025.3-1.312-.473-.009-.023 5.623-2.287 6.75-2.57-.06.4-.217.917-.22.943-.075.525-4.634 1.944-5.219 2.1"/><path fill="#1c8c43" d="M11.89 36.592c-2.406-3.117-2.56-8.05-2.58-9.147-.248-14.27 16.824-20.763 28.226-17.49C45.11 12.13 49.183 24.294 48.2 22.669c-6.88-11.36-22.536-13.497-31.72-4.347-3.638 3.624-5.468 14.07-4.59 18.27"/><path fill="#1c8c43" d="M14.817 18.113c.042.094.608-.842.53-1.052-3.39-9.19-5.773-7.054-5.196-6.454 3.576 3.719 2.558 2.784 4.666 7.506m19.364-6.373c.021.1-.986-.318-1.046-.534-2.66-9.43.515-9.123.402-8.296-.7 5.127-.429 3.766.644 8.83"/><path fill="#1c8c43" d="M8.452 8.325c.141-.053 2.684-2.607 3.106 2.13-4.52 1.487-3.846-1.85-3.106-2.13M33.702.014c-.145.04-3.696-.506-1.255 3.565C36.967 2.09 34.464-.2 33.701.014"/><path fill="#82bf36" d="M26.098 51.957c9.796 17.627 14.436-1.265 14.22-2.517 1.735-.217 5.488-.572 6.404.21 8.486 7.246 3.957 56.787-3.905 62.316-1.67 1.175-3.355-.537-5.914-.72-2.83-.205-1.696-14.011-3.04-16.406-1.395-2.49.204 14.983-4.495 17.414-1.743.903-4.235 1.252-5.602.8-14.5-10.216-6.625-58.522-6.625-58.881 0-2.118 5.752-3.092 8.957-2.216"/><path fill="#1c8c43" d="M40.28 49.242c2.892 2.144 2.318 11.785-2.575 12.142-1.25.09-2.484.087-3.077-1.684-.504-1.506.33 2.497-3.094 2.417-4.453-.105-7.28-8.45-5.218-10.331 2.22 2.36 3.46 7.55 8.945 6.737 2.795-.414 4.87-9.39 5.018-9.281"/><path fill="#aa3e0a" d="M44.05 35.598c.347.05.405-.47.067-.494-.459-.033-.18.478-.068.494m.437 1.727c.348.05.406-.47.068-.495-.459-.032-.179.479-.068.495m1.048-1.246c-.172.307-.618.037-.43-.248.253-.387.485.148.43.248m.093-1.318c-.17.308-.617.038-.43-.247.253-.387.486.148.43.247m.885.983c-.17.307-.618.037-.43-.247.253-.387.485.147.43.247m.29.95c-.17.309-.618.04-.43-.245.253-.387.485.147.43.246m-.927.46c-.172.309-.618.039-.43-.246.253-.386.485.149.43.247m-1.119.993c-.17.307-.618.038-.43-.247.253-.387.485.147.43.247m3.14-1.831c-.17.308-.618.038-.43-.247.253-.387.485.147.43.247m-.914-1.9c.055-.1-.177-.634-.43-.247-.187.284.258.554.43.247m.566.893c-.17.307-.617.038-.43-.247.254-.387.486.147.431.247m-4.112 2.643c-.172.308-.618.038-.43-.247.253-.386.485.149.43.247m5.102-2.967c-.172.307-.617.038-.43-.247.253-.387.486.147.43.247m-5.325 1.627c.171-.307.617-.037.43.247-.254.387-.485-.147-.43-.247m-21.63 7.094c.347.05.406-.47.068-.494-.46-.033-.18.478-.068.494m.437 1.726c.347.05.407-.47.068-.494-.459-.033-.18.478-.068.494m1.048-1.246c-.172.308-.618.038-.43-.247.253-.387.485.148.43.247m.093-1.317c-.172.307-.617.038-.43-.247.253-.387.485.147.43.247m.885.982c-.17.308-.617.038-.43-.247.253-.386.486.148.43.247m.29.952c-.17.308-.617.038-.43-.247.253-.386.485.148.43.247m-.927.46c-.172.309-.617.039-.43-.246.253-.387.485.148.43.246m-1.12.994c-.17.307-.616.037-.43-.247.254-.387.486.147.43.247m3.14-1.832c-.17.308-.617.038-.43-.247.254-.386.486.148.43.247m-.913-1.9c.056-.1-.177-.633-.43-.246-.187.284.258.554.43.246m.567.893c-.172.308-.618.038-.432-.246.255-.387.487.147.432.246m-4.112 2.644c-.172.308-.618.038-.43-.247.253-.386.485.148.43.247m5.102-2.967c-.17.307-.618.037-.43-.247.253-.387.485.147.43.247m-5.325 1.627c.171-.307.617-.037.43.247-.253.387-.486-.147-.43-.247"/></g></svg>