<svg version="1.1" xmlns="http://www.w3.org/2000/svg" xmlns:xlink="http://www.w3.org/1999/xlink" width="90.14832" height="119.81969" viewBox="0,0,90.14832,119.81969"><g transform="translate(-195.85346,-120.00047)"><g data-paper-data="{&quot;isPaintingLayer&quot;:true}" fill-rule="evenodd" stroke-linecap="butt" stroke-linejoin="miter" stroke-miterlimit="10" stroke-dasharray="" stroke-dashoffset="0" style="mix-blend-mode: normal"><path d="M234.185,156.504c-0.00079,0.83178 -0.33253,1.62906 -0.922,2.21591c-0.58947,0.58685 -1.38823,0.91502 -2.22,0.91209c-0.83013,0.00053 -1.62646,-0.32873 -2.21383,-0.91534c-0.58737,-0.58661 -0.91764,-1.38253 -0.91817,-2.21266c0.00441,-1.72566 1.40634,-3.12132 3.132,-3.118c0.83029,-0.00372 1.62799,0.32282 2.21735,0.90768c0.58936,0.58486 0.92201,1.38003 0.92465,2.21032M230.277,155.697c-0.00217,0.31254 0.12144,0.61282 0.34301,0.83326c0.22156,0.22044 0.52248,0.34251 0.835,0.33874c0.647,0 1.178,-0.518 1.178,-1.172c0,-0.646 -0.531,-1.171 -1.178,-1.171c-0.662,0 -1.178,0.525 -1.178,1.171M251.633,156.139c0.65087,0 1.1785,-0.52763 1.1785,-1.1785c0,-0.65087 -0.52763,-1.1785 -1.1785,-1.1785c-0.31296,-0.00213 -0.61394,0.12015 -0.83674,0.33995c-0.22279,0.2198 -0.34915,0.51909 -0.35127,0.83205c-0.00054,0.31497 0.12456,0.61714 0.34755,0.83957c0.22299,0.22243 0.52549,0.34676 0.84045,0.34543M254.363,155.76c0.00027,0.83203 -0.33076,1.62994 -0.91994,2.21744c-0.58918,0.58749 -1.38803,0.91622 -2.22006,0.91356c-0.83082,0.0008 -1.62788,-0.32876 -2.21554,-0.91605c-0.58766,-0.58729 -0.91773,-1.38413 -0.91746,-2.21495c0.00662,-1.72481 1.40818,-3.11877 3.133,-3.116c1.738,0 3.14,1.397 3.14,3.115" fill="#3f3a3a" stroke="none" stroke-width="1"/><path d="M217.928,233.421c3.235,1.344 7.35,-0.666 7.35,-0.666c0,0 0.399,3.559 -2.019,5.042c-2.44,1.473 -5.267,2.688 -7.017,1.613c-1.76,-1.074 -0.412,-3.903 1.685,-5.989" fill="#3f3a3a" stroke="none" stroke-width="1"/><path d="M256.253,225.023c0,0 3.844,1.742 3.574,3.226c-0.27,1.484 -12.557,4.57 -9.987,-2.28c3.303,1.204 6.413,-0.946 6.413,-0.946" fill="#3f3a3a" stroke="none" stroke-width="1"/><path d="M221.101,216.012c0.193,0.989 0.573,2.043 1.468,2.483c-1.697,1.376 -3.932,2.678 -6.737,3.303c0,0 -1.415,-1.012 -0.745,-2.56c3.173,-0.397 6.013,-3.226 6.013,-3.226" fill="#595757" stroke="none" stroke-width="1"/><path d="M240.481,207.559c1.25899,-0.17293 2.51456,-0.36997 3.766,-0.591c0.972,-0.173 1.911,-0.355 2.829,-0.537c4.37998,-0.90956 8.70518,-2.06539 12.955,-3.462c0.022,0.999 0.249,14.484 -3.778,22.054c0,0 -3.109,2.15 -6.412,0.946c0,0 -3.78,-2.763 -5.809,-8.883c0,0 -5.657,1.614 -8.972,1.55c0,0 -5.398,10.818 -9.782,14.118c0,0 -4.114,2.012 -7.35,0.668c0,0 -8.704,-10.927 -7.57,-24.624c2.676,2.213 5.54,3.923 5.54,3.923c-1.75,2.892 -0.812,6.516 -0.812,6.516c-0.667,1.55 0.745,2.56 0.745,2.56c2.807,-0.624 5.042,-1.925 6.738,-3.302c0.333,0.162 0.745,0.238 1.23,0.206c1.814,-0.131 1.144,-1.678 0.874,-2.55c-0.01,-0.032 -0.02,-0.063 -0.02,-0.097c1.187,-1.343 1.77,-2.375 1.77,-2.375c-0.325,-0.958 -0.854,-1.387 -1.155,-1.571c0.03,-0.29 0.03,-0.601 0.01,-0.935c-0.139,-2.485 -3.508,-3.893 -3.508,-3.893c5.754,1.366 12.482,1.13 18.71,0.28" fill="#888889" stroke="none" stroke-width="1"/><path d="M225.269,212.107c0.299,0.185 0.829,0.612 1.153,1.572c0,0 -0.583,1.031 -1.769,2.375c-0.154,-0.762 0.528,-2.054 0.616,-3.947" fill="#595757" stroke="none" stroke-width="1"/><path d="M204.83,196.934l0.01,-0.086l15.18,1.29c0,0 0.065,7.529 1.75,9.142c0,0 3.368,1.407 3.508,3.892c0.02,0.333 0.02,0.645 -0.01,0.935c-0.087,1.893 -0.768,3.185 -0.616,3.947c0,0.033 0.011,0.064 0.02,0.097c0.271,0.87 0.941,2.418 -0.873,2.548c-0.485,0.033 -0.897,-0.042 -1.23,-0.204c-0.895,-0.442 -1.274,-1.494 -1.469,-2.485c0,0 -2.84,2.83 -6.013,3.229c0,0 -0.939,-3.626 0.81,-6.519c0,0 -2.863,-1.709 -5.54,-3.922c-2.051,-1.69 -3.984,-3.668 -4.447,-5.41c-1.08,-4.043 -1.08,-6.453 -1.08,-6.453z" data-paper-data="{&quot;origPos&quot;:null}" fill="#9e753f" stroke="none" stroke-width="1"/><path d="M255.853,173.364c0.551,0.174 3.984,1.249 5.658,1.99c0,0 -0.022,0.377 -0.086,1.012c-0.249,2.428 -1.027,8.62 -2.84,11.774c-0.204,0.356 -0.421,0.654 -0.648,0.924l-0.097,0.042c-3.606,-7.461 -9.014,-12.881 -9.014,-12.881l-0.054,-0.075c0.711,-0.464 1.144,-0.828 1.284,-0.958c0.032,-0.032 0.054,-0.042 0.054,-0.042c2.05258,0.01029 4.05827,-0.61345 5.743,-1.786M211.383,179.451l0.087,-0.14c1.782,1.129 3.962,1.623 6.23,1.73c0.873,0.442 3.79,2.237 4.48,7.013l-2.159,10.085l-15.18,-1.29l-0.615,-0.053c0,0 -2.02,-11.43 7.157,-17.346z" fill="#dbdcdc" stroke="none" stroke-width="1"/><path d="M227.814,179.677c1.189,0.203 8.12,1.483 10.819,4.483c0,0 5.387,15.744 1.847,23.4c-6.229,0.85 -12.956,1.085 -18.71,-0.28c-1.684,-1.612 -1.75,-9.14 -1.75,-9.14l2.16,-10.086c-0.691,-4.777 -3.607,-6.571 -4.481,-7.013c3.585,0.196 7.374,-0.6 10.115,-1.364M260.031,202.969c-4.24982,1.39661 -8.57502,2.55245 -12.955,3.462v-0.023c2.97,-12.096 -2.904,-23.732 -2.904,-23.732c1.92,-2.258 2.894,-4.967 3.12,-5.667c0.584,-0.3 1.08,-0.602 1.48,-0.86l0.053,0.077c0,0 5.409,5.419 9.016,12.88c1.975,4.089 3.42,8.786 3.13,13.539c0,0 -0.335,0.12 -0.94,0.324" fill="#0084bb" stroke="none" stroke-width="1"/><path d="M243.762,178.395c1.404,-0.396 2.58,-0.902 3.53,-1.386c-0.227,0.7 -1.2,3.409 -3.12,5.667c0,0 5.873,11.636 2.903,23.732v0.023c-0.917,0.183 -1.855,0.364 -2.827,0.538c2.753,-14.7 -3.249,-24.829 -3.249,-24.829c2.278,-1.517 2.72,-3.497 2.763,-3.745" fill="#fefefe" stroke="none" stroke-width="1"/><path d="M240.998,182.14c0,0 6.004,10.129 3.25,24.828c-1.25177,0.22137 -2.50767,0.41875 -3.767,0.592c3.539,-7.657 -1.848,-23.4 -1.848,-23.4c-2.699,-3 -9.631,-4.28 -10.819,-4.483c2.353,-0.656 3.942,-1.301 3.942,-1.301c0.53886,0.13632 1.08217,0.25439 1.629,0.354c0.012,0.011 0.024,0.011 0.034,0.011c3.639,1.032 7.58,3.399 7.58,3.399M230.276,155.698c-0.00054,-0.31204 0.12359,-0.61137 0.3448,-0.83145c0.22121,-0.22008 0.52116,-0.34268 0.8332,-0.34055c0.648,0 1.178,0.526 1.178,1.172c0,0.653 -0.53,1.171 -1.178,1.171c-0.661,0 -1.178,-0.518 -1.178,-1.171M250.445,154.955c0.00212,-0.31296 0.12847,-0.61226 0.35127,-0.83205c0.22279,-0.2198 0.52378,-0.34208 0.83674,-0.33995c0.647,0 1.177,0.527 1.177,1.172c0.01253,0.43067 -0.21008,0.83409 -0.5811,1.05312c-0.37102,0.21903 -0.83178,0.21903 -1.2028,0c-0.37102,-0.21903 -0.59363,-0.62245 -0.5811,-1.05312" fill="#fefefe" stroke="none" stroke-width="1"/><path d="M240.793,159.687c0.064,-0.087 1.79,-2 3.54,-1.938c1.588,0.066 2.172,1.431 2.268,2.154c0.01597,0.14147 -0.02521,0.28347 -0.1144,0.39444c-0.08919,0.11097 -0.21901,0.18174 -0.3606,0.19656c-0.28,0.042 -0.561,-0.163 -0.605,-0.453c-0.01,-0.129 -0.183,-1.172 -1.24,-1.214c-1.081,-0.042 -2.279,1.105 -2.667,1.558c-0.10585,0.11572 -0.25518,0.18205 -0.412,0.183c-0.12702,0.00128 -0.24999,-0.04469 -0.345,-0.129c-0.10955,-0.09036 -0.17808,-0.22104 -0.19012,-0.36254c-0.01204,-0.1415 0.03342,-0.28188 0.12613,-0.38946" fill="#face8b" stroke="none" stroke-width="1"/><path d="M239.852,167.041c1.534,-2.441 4.266,-3.505 6.113,-2.355c1.845,1.141 2.104,4.055 0.584,6.495c-1.535,2.452 -4.267,3.506 -6.112,2.366c-1.845,-1.152 -2.106,-4.052 -0.585,-6.506" fill="#e50113" stroke="none" stroke-width="1"/><path d="M207.90751,175.289c-0.119,-2.828 1.856,-10.431 2.332,-12.248l0.108,0.022c16.594,-2.893 20.912,15.313 20.912,15.313c0,0 -1.589,0.645 -3.941,1.302c-2.742,0.763 -6.53,1.557 -10.115,1.363c-2.269,-0.107 -4.449,-0.601 -6.229,-1.731c-1.32849,-0.85069 -2.39122,-2.05756 -3.067,-3.483l-0.054,-0.012c0.044,-0.149 0.064,-0.333 0.054,-0.525M255.35651,173.364c-1.619,1.129 -3.583,1.786 -5.743,1.786c0,0 -0.022,0.009 -0.054,0.042c0.508,-14.807 8.076,-16.612 8.886,-16.752c1.058,2.977 1.868,6.269 1.284,8.514c-0.69,2.669 -2.235,4.947 -4.373,6.41" data-paper-data="{&quot;origPos&quot;:null}" fill="#9e753f" stroke="#9e753f" stroke-width="0.5"/><path d="M233.419,178.742c4.2,0.795 7.676,0.407 10.344,-0.346c-0.044,0.249 -0.486,2.229 -2.763,3.744c0,0 -3.944,-2.367 -7.58,-3.399" data-paper-data="{&quot;origPos&quot;:null}" fill="#866232" stroke="none" stroke-width="1"/><path d="M258.33675,188.14c1.814,-3.153 2.59,-9.346 2.839,-11.775h0.022c0,0 4.859,0.537 11.811,3.827c0,0 11.196,-2.957 12.545,0.077c1.351,3.021 -4.653,3.29 -4.653,3.29c0,0 1.08,4.032 -1.49,6.31c-2.559,2.293 -7.557,1.012 -7.957,-1.47c0,0 -8.777,1.139 -13.02,-0.204l-0.097,-0.055M240.18875,173.546c1.845,1.142 4.577,0.087 6.112,-2.365c1.52,-2.441 1.261,-5.354 -0.586,-6.494c-1.845,-1.15 -4.577,-0.087 -6.111,2.354c-1.521,2.453 -1.261,5.355 0.585,6.505M252.12875,150.482c0.593,0.162 1.198,0.395 1.652,-0.195c0.4,-0.536 -0.01,-1.484 -1.759,-1.484c-1.762,0 -3.1,1.356 -3.1,1.356c-0.679,0.752 -0.463,1.172 0.497,0.893c0.994,-0.302 1.597,-0.873 2.71,-0.57M250.97375,152.643c-1.72427,-0.00222 -3.12493,1.39174 -3.131,3.116c-0.0008,0.83082 0.32876,1.62788 0.91605,2.21554c0.58729,0.58766 1.38413,0.91773 2.21495,0.91746c0.83248,0.00239 1.63169,-0.32664 2.22118,-0.91445c0.5895,-0.58781 0.92082,-1.38607 0.92082,-2.21856c0,-1.716 -1.404,-3.116 -3.142,-3.116M255.65975,147.062c0,0 -0.4,3.225 0.14,4.57c0.28,0.7 1.738,3.559 2.894,6.807c-0.81,0.14 -8.379,1.946 -8.886,16.753c-0.14,0.131 -0.572,0.495 -1.284,0.958c-0.4,0.257 -0.896,0.56 -1.479,0.86c-1.12849,0.57611 -2.31083,1.04001 -3.53,1.385c-2.668,0.754 -6.144,1.141 -10.344,0.346c-0.011,0 -0.023,0 -0.033,-0.01c-0.55,-0.152 -1.101,-0.28 -1.631,-0.355c0,0 -4.317,-18.206 -20.91,-15.313l-0.108,-0.022c0.062,-0.247 0.108,-0.387 0.108,-0.387c0,0 -7.429,2.021 -5.939,-5.644c1.479,-7.668 5.939,-5.916 7.277,-2.83c1.36,3.099 2.299,5.119 3.648,0.409c1.349,-4.71 3.11,-8.066 5.808,-9.547c0,0 1.751,4.17 10.797,4.3c1.34,0 3.003,-0.677 1.21,-2.151c-1.49,-1.204 -2.57,-1.204 -4.05,-4.429c0,0 10.118,6.858 26.312,4.3M229.82375,149.62c-1.758,0 -2.161,0.937 -1.758,1.474c0.452,0.591 1.057,0.356 1.65,0.194c1.113,-0.302 1.715,0.268 2.708,0.57c0.954,0.278 1.179,-0.14 0.499,-0.902c0,0 -1.349,-1.336 -3.099,-1.336M230.79475,153.385c-1.72544,-0.00277 -3.12704,1.39257 -3.132,3.118c0,0.83048 0.33004,1.62691 0.91746,2.21395c0.58742,0.58704 1.38406,0.91658 2.21454,0.91605c0.83195,0.00293 1.63086,-0.32539 2.22036,-0.91245c0.5895,-0.58706 0.92111,-1.3846 0.92164,-2.21655c-0.00238,-0.83047 -0.33491,-1.6259 -0.9243,-2.21097c-0.58938,-0.58507 -1.38724,-0.91175 -2.2177,-0.90803M244.03275,158.827c1.057,0.042 1.23,1.084 1.24,1.214c0.04673,0.2892 0.31443,0.4892 0.605,0.452c0.14177,-0.01459 0.27184,-0.08524 0.36124,-0.19624c0.0894,-0.111 0.13072,-0.25313 0.11476,-0.39476c-0.098,-0.722 -0.681,-2.086 -2.269,-2.152c-1.748,-0.064 -3.476,1.849 -3.54,1.938c-0.09233,0.10736 -0.13758,0.24736 -0.12554,0.38845c0.01204,0.14109 0.08035,0.27139 0.18954,0.36155c0.09492,0.08524 0.21843,0.13165 0.346,0.13c0.15616,-0.00139 0.3047,-0.06769 0.41,-0.183c0.39,-0.452 1.587,-1.6 2.667,-1.558" data-paper-data="{&quot;origPos&quot;:null}" fill="#9e753f" stroke="#9e753f" stroke-width="0.5"/><path d="M252.27,148.803c1.748,0 2.158,0.948 1.76,1.484c-0.454,0.591 -1.059,0.356 -1.652,0.194c-1.113,-0.301 -1.718,0.268 -2.71,0.571c-0.961,0.277 -1.177,-0.143 -0.498,-0.893c0,0 1.339,-1.356 3.1,-1.356M233.17,150.955c0.681,0.763 0.455,1.183 -0.498,0.903c-0.992,-0.301 -1.596,-0.872 -2.709,-0.57c-0.593,0.163 -1.198,0.396 -1.65,-0.195c-0.402,-0.536 0,-1.473 1.758,-1.473c1.751,0 3.099,1.335 3.099,1.335" fill="#794d45" stroke="none" stroke-width="1"/><path d="M199.508,170.451c-7.299,-14.378 1.08,-26.078 1.08,-26.078c-2.44,0.409 -4.73,4.431 -4.73,4.431c-0.27,-13.032 11.606,-17.463 11.606,-17.463c-1.619,-0.678 -5.397,0.398 -5.397,0.398c2.299,-8.462 11.066,-6.184 11.066,-6.184c2.289,-7.794 10.666,-5.107 10.666,-5.107c-4.599,1.344 -4.599,4.57 -4.599,4.57c0,0 11.077,-7.398 24.574,-1.882c18.891,7.666 13.494,23.516 12.134,23.926c-16.194,2.559 -26.312,-4.3 -26.312,-4.3c1.48,3.225 2.56,3.225 4.05,4.43c1.793,1.474 0.129,2.15 -1.211,2.15c-9.044,-0.13 -10.794,-4.301 -10.794,-4.301c-2.7,1.483 -4.46,4.839 -5.81,9.549c-1.348,4.71 -2.288,2.689 -3.648,-0.41c-1.338,-3.086 -5.798,-4.838 -7.278,2.83c-1.489,7.665 5.94,5.645 5.94,5.645c0,0 -0.045,0.139 -0.108,0.386c-0.477,1.817 -2.452,9.42 -2.334,12.248c0.01167,0.17712 -0.00658,0.35495 -0.054,0.526c-0.529,2.344 -5.936,-0.452 -8.841,-5.365" fill="#794d45" stroke="none" stroke-width="1"/><path d="M233.308,146.933c-1.32,-0.965 -2.346,-1.196 -3.712,-4.173c0,0 7.906,5.344 20.91,4.828c-3.857,1.017 -9.9,1.682 -17.198,-0.655M267.654,185.594c8.277,-1.255 9.177,6.503 13.495,-2.036c0,0 1.08,4.033 -1.49,6.313c-2.558,2.293 -7.556,1.01 -7.956,-1.472c0,0 -8.777,1.139 -13.02,-0.204l-0.098,-0.055c0.69,-1.199 1.229,-2.837 1.645,-4.54c1.455,1.426 3.774,2.547 7.424,1.994M218.89,216.778c3.598,-1.253 3.779,-5.735 2.519,-6.81c-1.26,-1.075 0,-5.556 -4.678,-10.217c-3.41,-3.393 -8.817,-0.987 -11.507,0.57c-0.388,-2.151 -0.394,-3.386 -0.394,-3.386l0.01,-0.085l15.18,1.289c0,0 0.066,7.53 1.75,9.142c0,0 3.368,1.406 3.508,3.892c0.02,0.333 0.02,0.645 -0.009,0.934c-0.088,1.894 -0.769,3.186 -0.616,3.948c0,0.033 0.01,0.063 0.02,0.097c0.27,0.87 0.94,2.418 -0.874,2.548c-0.486,0.033 -0.897,-0.042 -1.23,-0.205c-0.895,-0.441 -1.274,-1.493 -1.468,-2.484c0,0 -2.84,2.83 -6.015,3.227c0,0 -0.761,-2.964 0.387,-5.67c-0.006,0.167 -0.11,4.442 3.417,3.21" data-paper-data="{&quot;origPos&quot;:null}" fill="#866232" stroke="none" stroke-width="1"/><path d="M210.63,209.018c-0.09,-0.074 -0.183,-0.147 -0.273,-0.22c-0.997,-0.823 -1.962,-1.713 -2.747,-2.609z" fill="#fad4a0" stroke="none" stroke-width="1"/><path d="M217.7,181.041c3.585,0.194 7.373,-0.601 10.115,-1.363c0.751,0.126 3.793,0.688 6.61,1.837c-2.456,-0.349 -5.924,-0.466 -8.876,0.853c0,0 -1.982,1.077 -0.722,4.48c1.262,3.407 -4.497,17.743 4.139,19.715c8.399,1.916 16.28,-4.64 9.274,-22.79c0.135,0.127 0.275,0.253 0.394,0.387c0,0 5.387,15.743 1.847,23.399c-6.23,0.85 -12.957,1.086 -18.71,-0.279c-1.686,-1.612 -1.75,-9.14 -1.75,-9.14l2.158,-10.086c-0.69,-4.776 -3.605,-6.571 -4.48,-7.013M245.397,185.617c-0.675,-1.85 -1.224,-2.94 -1.224,-2.94c1.92,-2.259 2.893,-4.968 3.12,-5.667c0.50653,-0.26274 1.0001,-0.54974 1.479,-0.86l0.053,0.076c0,0 0.535,0.533 1.377,1.497c-2.153,0.65 -4.441,6.865 -4.805,7.894M246.582,189.408c5.713,11.367 3.445,15.644 10.277,11.779c2.939,-1.664 3.22,-5.209 2.289,-9.049c1.257,3.308 2.046,6.891 1.824,10.507c0,0 -0.336,0.12 -0.941,0.324c-4.24982,1.39661 -8.57502,2.55245 -12.955,3.462v-0.023c1.554,-6.327 0.685,-12.526 -0.494,-17" fill="#006798" stroke="none" stroke-width="1"/><path d="M236.884,180.129c-2.287,-0.538 -4.478,-0.236 -6.094,0.198c-0.9826,-0.25769 -1.97545,-0.47454 -2.976,-0.65c2.353,-0.656 3.942,-1.301 3.942,-1.301c0.55,0.14 1.1,0.258 1.63,0.354c0.011,0.011 0.023,0.011 0.033,0.011c3.639,1.032 7.58,3.398 7.58,3.398c0,0 6.003,10.13 3.249,24.829c-1.23,0.214 -2.483,0.419 -3.767,0.59c9.261,-5.366 0.992,-26.354 -3.597,-27.43M244.712,179.457c-0.828,0.823 -2.28,1.77 -3.408,2.448c1.995,-1.478 2.418,-3.273 2.459,-3.51c1.21925,-0.34476 2.40161,-0.80866 3.53,-1.385c-0.071,0.217 -0.221,0.64 -0.442,1.166c-0.688,0.175 -1.51,0.654 -2.139,1.28" data-paper-data="{&quot;origPos&quot;:null}" fill="#dadada" stroke="none" stroke-width="1"/><path d="M250.056,175.192c0.032,-0.032 0.053,-0.041 0.053,-0.041c2.05299,0.00994 4.05899,-0.61414 5.744,-1.787c0.237,0.075 1.006,0.314 1.935,0.621c-2.289,1.334 -5.607,3.84 -3.764,6.412c2.262,3.155 5.18,3.662 6.067,3.746c-0.396,1.505 -0.89,2.928 -1.506,3.997c-0.18813,0.32632 -0.40498,0.63521 -0.648,0.923l-0.096,0.042c-3.607,-7.46 -9.016,-12.88 -9.016,-12.88l-0.054,-0.076c0.713,-0.462 1.145,-0.826 1.285,-0.957M216.776,183.489c-1.924,-3.143 -5.47,-2.7 -8.24,-1.69c0.85295,-0.89235 1.80861,-1.68051 2.847,-2.348l0.087,-0.14c1.782,1.129 3.962,1.623 6.23,1.73c0.873,0.442 3.79,2.237 4.48,7.013l-2.16,10.086l-12.373,-1.052c9.309,-0.133 12.16,-8.651 9.13,-13.6" fill="#b4b5b5" stroke="none" stroke-width="1"/><path d="M225.156,210.521c-0.614,-2.074 -3.386,-3.24 -3.386,-3.24c1.38,0.31918 2.77829,0.55328 4.187,0.701c-0.19116,0.86874 -0.45921,1.71876 -0.801,2.54" fill="#6f6e6e" stroke="none" stroke-width="1"/><path d="M210.358,208.797c2.677,2.214 5.54,3.923 5.54,3.923c-0.4292,0.72385 -0.7287,1.5171 -0.885,2.344c-0.764,-0.885 -2.123,-2.192 -2.69,-1.063c-0.81,1.612 1.213,17.474 7.559,18.147c6.342,0.671 15.924,-15.996 13.358,-16.264c-2.564,-0.27 -0.81,-0.942 1.485,-1.21c2.293,-0.269 0,-2.286 -2.43,-2.69c-2.428,-0.401 -1.483,-1.613 1.487,-1.745c2.968,-0.137 6.747,-1.614 1.889,-1.346c-1.897,0.105 -3.749,-0.222 -5.306,-0.657c3.368,0.042 6.81,-0.226 10.115,-0.677c1.25975,-0.1723 2.51599,-0.36934 3.768,-0.591c0.972,-0.172 1.91,-0.355 2.827,-0.537c3.287,-0.68 6.222,-1.446 8.543,-2.107c-0.833,0.783 -2.311,1.772 -4.833,2.42c-4.723,1.208 -4.184,1.747 -2.025,2.15c2.16,0.404 2.7,1.613 0.406,1.613c-2.294,0 -5.264,2.418 -3.51,2.956c1.755,0.538 1.349,1.21 -0.135,1.613c-1.484,0.403 3.374,9.679 7.692,9.947c1.278,0.079 2.555,-0.42 3.755,-1.507c-0.21634,0.51264 -0.45524,1.01547 -0.716,1.507c0,0 -3.109,2.15 -6.412,0.946c0,0 -3.778,-2.764 -5.809,-8.883c0,0 -5.656,1.614 -8.971,1.55c0,0 -5.398,10.82 -9.781,14.12c0,0 -4.114,2.01 -7.352,0.666c0,0 -8.704,-10.927 -7.57,-24.625" fill="#6f6e6e" stroke="none" stroke-width="1"/><path d="M249.84,225.969c0.487,0.176 0.97,0.276 1.438,0.324c0.403,1.241 1.494,3.097 4.365,2.36c2.464,-0.634 3.515,-1.316 3.211,-2.04c0.616,0.513 1.072,1.092 0.973,1.636c-0.27,1.485 -12.556,4.57 -9.987,-2.28" fill="#2c2421" stroke="none" stroke-width="1"/><path d="M217.927,233.421c0,0 -2.906,3.295 -0.88,4.505c1.381,0.827 3.583,-2.175 4.84,-4.159c1.894,-0.287 3.389,-1.012 3.389,-1.012c0,0 0.402,3.559 -2.016,5.042c-2.441,1.474 -5.27,2.688 -7.018,1.613c-1.76,-1.074 -0.412,-3.903 1.685,-5.989" fill="#2c2421" stroke="none" stroke-width="1"/><path d="M195.858,148.803c-0.27,-13.031 11.606,-17.462 11.606,-17.462c-0.15432,-0.06116 -0.31449,-0.1064 -0.478,-0.135c0.688,-0.358 3.352,-1.39 0.028,6.178c-3.778,8.603 12.956,2.688 14.756,5.016c1.799,2.332 6.297,3.943 4.138,0.18c-2.16,-3.762 4.678,-1.432 4.678,-1.432c17.585,5.272 24.481,2.926 27.077,-0.49c-0.023,3.598 -1.21,6.24 -1.755,6.404c-16.195,2.558 -26.313,-4.3 -26.313,-4.3c1.482,3.225 2.56,3.225 4.052,4.43c1.791,1.474 0.129,2.15 -1.212,2.15c-9.046,-0.13 -10.795,-4.3 -10.795,-4.3c-2.698,1.481 -4.46,4.838 -5.809,9.547c-1.35,4.71 -2.288,2.69 -3.649,-0.409c-1.338,-3.086 -5.797,-4.838 -7.276,2.83c-1.49,7.665 5.938,5.645 5.938,5.645c0,0 -0.045,0.139 -0.108,0.386c-0.476,1.817 -2.452,9.42 -2.332,12.248c0.01,0.193 -0.01,0.377 -0.054,0.526c-0.53,2.344 -5.938,-0.452 -8.841,-5.364c-7.3,-14.379 1.079,-26.079 1.079,-26.079c-2.442,0.41 -4.73,4.431 -4.73,4.431" fill="#623c36" stroke="none" stroke-width="1"/><path d="M217.81,130.036c15.353,2.816 25.058,-2.597 28.973,-5.5c4.45,2.342 7.186,5.199 8.804,8.08c-22.4,12.278 -37.777,-2.58 -37.777,-2.58" fill="#a86e63" stroke="none" stroke-width="1"/></g></g></svg>