<svg xmlns="http://www.w3.org/2000/svg" width="90.148" height="119.82"><g fill-rule="evenodd" stroke-miterlimit="10" data-paper-data="{&quot;isPaintingLayer&quot;:true}" style="mix-blend-mode:normal"><path fill="#3f3a3a" d="M38.332 36.504a3.131 3.131 0 0 1-3.142 3.128 3.13 3.13 0 0 1-3.132-3.128 3.126 3.126 0 0 1 3.132-3.118 3.128 3.128 0 0 1 3.142 3.118m-3.908-.807a1.164 1.164 0 0 0 1.178 1.172c.647 0 1.178-.518 1.178-1.172 0-.646-.531-1.171-1.178-1.171-.662 0-1.178.525-1.178 1.17m21.356.443a1.178 1.178 0 1 0 0-2.357 1.18 1.18 0 0 0-1.188 1.172 1.183 1.183 0 0 0 1.188 1.185m2.73-.38a3.13 3.13 0 0 1-3.14 3.132 3.13 3.13 0 0 1-3.133-3.131 3.128 3.128 0 0 1 3.133-3.116c1.738 0 3.14 1.397 3.14 3.115M22.075 113.42c3.235 1.345 7.35-.665 7.35-.665s.399 3.559-2.02 5.042c-2.44 1.473-5.266 2.688-7.016 1.613-1.76-1.074-.412-3.903 1.685-5.99M60.4 105.023s3.844 1.742 3.574 3.226-12.557 4.57-9.987-2.28c3.303 1.204 6.413-.946 6.413-.946"/><path fill="#595757" d="M25.248 96.012c.193.989.573 2.043 1.468 2.483-1.697 1.376-3.932 2.678-6.737 3.303 0 0-1.415-1.012-.745-2.56 3.173-.397 6.013-3.226 6.013-3.226"/><path fill="#888889" d="M44.628 87.559a99.498 99.498 0 0 0 3.766-.591c.972-.173 1.91-.355 2.829-.537 4.38-.91 8.705-2.066 12.955-3.462.022.999.249 14.484-3.778 22.054 0 0-3.11 2.15-6.412.946 0 0-3.78-2.763-5.81-8.883 0 0-5.656 1.614-8.971 1.55 0 0-5.398 10.818-9.782 14.118 0 0-4.114 2.012-7.35.668 0 0-8.704-10.927-7.57-24.624 2.676 2.213 5.54 3.923 5.54 3.923-1.75 2.892-.812 6.516-.812 6.516-.667 1.55.745 2.56.745 2.56 2.807-.624 5.042-1.925 6.738-3.302.333.162.745.238 1.23.206 1.814-.131 1.144-1.678.874-2.55-.01-.032-.02-.063-.02-.097 1.187-1.343 1.77-2.375 1.77-2.375-.325-.958-.854-1.387-1.155-1.571.03-.29.03-.601.01-.935-.14-2.485-3.508-3.893-3.508-3.893 5.754 1.366 12.482 1.13 18.71.28"/><path fill="#595757" d="M29.416 92.107c.299.185.829.612 1.153 1.572 0 0-.583 1.03-1.77 2.375-.153-.762.529-2.054.617-3.947"/><path fill="#9e753f" d="m8.977 76.934.01-.086 15.18 1.29s.065 7.529 1.75 9.142c0 0 3.368 1.407 3.508 3.892.02.333.02.645-.01.935-.087 1.893-.768 3.185-.616 3.947 0 .033.01.064.02.097.27.87.94 2.418-.873 2.548-.485.033-.897-.042-1.23-.204-.895-.442-1.274-1.494-1.47-2.485 0 0-2.84 2.83-6.012 3.229 0 0-.94-3.626.81-6.52 0 0-2.863-1.708-5.54-3.921-2.051-1.69-3.984-3.668-4.447-5.41-1.08-4.043-1.08-6.453-1.08-6.453z" data-paper-data="{&quot;origPos&quot;:null}"/><path fill="#dbdcdc" d="M60 53.364c.55.174 3.984 1.249 5.658 1.99 0 0-.022.377-.086 1.012-.25 2.428-1.027 8.62-2.84 11.774a6.228 6.228 0 0 1-.648.924l-.097.042c-3.606-7.461-9.014-12.881-9.014-12.881l-.054-.075c.71-.464 1.144-.828 1.284-.958a.212.212 0 0 1 .054-.042A9.966 9.966 0 0 0 60 53.364M15.53 59.45l.087-.14c1.782 1.129 3.962 1.623 6.23 1.73.873.442 3.79 2.237 4.48 7.013l-2.16 10.085-15.18-1.29-.614-.053s-2.02-11.43 7.157-17.346z"/><path fill="#0084bb" d="M31.96 59.677c1.19.203 8.12 1.483 10.82 4.483 0 0 5.387 15.744 1.847 23.4-6.23.85-12.956 1.085-18.71-.28-1.684-1.612-1.75-9.14-1.75-9.14l2.16-10.086c-.691-4.777-3.607-6.571-4.481-7.013 3.585.196 7.374-.6 10.115-1.364m32.217 23.292a118.986 118.986 0 0 1-12.955 3.462v-.023c2.97-12.096-2.904-23.732-2.904-23.732 1.92-2.258 2.894-4.967 3.12-5.667.584-.3 1.08-.602 1.48-.86l.053.077s5.409 5.419 9.016 12.88c1.975 4.089 3.42 8.786 3.13 13.539 0 0-.335.12-.94.324"/><path fill="#fefefe" d="M47.909 58.395a19.275 19.275 0 0 0 3.53-1.386c-.227.7-1.2 3.409-3.12 5.667 0 0 5.873 11.636 2.903 23.732v.023c-.917.183-1.855.364-2.827.538 2.753-14.7-3.25-24.83-3.25-24.83 2.279-1.516 2.72-3.496 2.764-3.744"/><path fill="#fefefe" d="M45.145 62.14s6.004 10.129 3.25 24.828a99.514 99.514 0 0 1-3.767.592c3.539-7.657-1.848-23.4-1.848-23.4-2.7-3-9.631-4.28-10.82-4.483 2.354-.656 3.943-1.301 3.943-1.301.538.136 1.082.254 1.629.354.012.01.024.01.034.01 3.639 1.033 7.58 3.4 7.58 3.4M34.423 35.698a1.17 1.17 0 0 1 1.178-1.172c.648 0 1.178.526 1.178 1.172 0 .653-.53 1.17-1.178 1.17a1.164 1.164 0 0 1-1.178-1.17m20.169-.743a1.18 1.18 0 0 1 1.188-1.172c.647 0 1.177.527 1.177 1.172a1.183 1.183 0 1 1-2.365 0"/><path fill="#face8b" d="M44.94 39.687c.064-.087 1.79-2 3.54-1.938 1.588.066 2.172 1.43 2.268 2.154a.534.534 0 0 1-.475.59.544.544 0 0 1-.605-.452c-.01-.13-.183-1.172-1.24-1.214-1.081-.042-2.28 1.105-2.667 1.558a.563.563 0 0 1-.412.183.512.512 0 0 1-.345-.13.528.528 0 0 1-.064-.751"/><path fill="#e50113" d="M43.999 47.04c1.534-2.44 4.266-3.504 6.113-2.354 1.845 1.14 2.104 4.055.584 6.495-1.535 2.452-4.267 3.506-6.112 2.366-1.845-1.152-2.106-4.052-.585-6.506"/><path fill="#9e753f" stroke="#9e753f" stroke-width=".5" d="M12.054 55.289c-.119-2.828 1.856-10.431 2.332-12.248l.108.022c16.594-2.893 20.912 15.313 20.912 15.313s-1.589.645-3.941 1.302c-2.742.763-6.53 1.557-10.115 1.363-2.269-.107-4.449-.601-6.229-1.731a8.418 8.418 0 0 1-3.067-3.483L12 55.815c.044-.15.064-.333.054-.525m47.449-1.926a9.961 9.961 0 0 1-5.743 1.786s-.022.009-.054.042c.508-14.807 8.076-16.612 8.886-16.752 1.058 2.977 1.868 6.269 1.284 8.514-.69 2.669-2.235 4.947-4.373 6.41" data-paper-data="{&quot;origPos&quot;:null}"/><path fill="#866232" d="M37.566 58.742c4.2.795 7.676.407 10.344-.346-.044.249-.486 2.229-2.763 3.744 0 0-3.944-2.367-7.58-3.4" data-paper-data="{&quot;origPos&quot;:null}"/><path fill="#9e753f" stroke="#9e753f" stroke-width=".5" d="M62.483 68.14c1.814-3.153 2.59-9.346 2.84-11.775h.021s4.86.537 11.811 3.827c0 0 11.196-2.957 12.545.077 1.351 3.02-4.653 3.29-4.653 3.29s1.08 4.032-1.49 6.31C80.998 72.162 76 70.88 75.6 68.399c0 0-8.777 1.139-13.02-.204l-.097-.055M44.335 53.546c1.845 1.142 4.577.087 6.112-2.365 1.52-2.441 1.261-5.354-.586-6.494-1.845-1.15-4.577-.087-6.11 2.354-1.522 2.453-1.262 5.355.584 6.505m11.94-23.064c.593.162 1.198.395 1.652-.195.4-.536-.01-1.484-1.759-1.484-1.762 0-3.1 1.356-3.1 1.356-.679.752-.463 1.172.497.893.994-.302 1.597-.873 2.71-.57m-1.155 2.16a3.127 3.127 0 0 0-3.13 3.117 3.13 3.13 0 0 0 3.13 3.133 3.133 3.133 0 0 0 3.142-3.133c0-1.716-1.404-3.116-3.142-3.116m4.686-5.581s-.4 3.225.14 4.57c.28.7 1.738 3.559 2.894 6.807-.81.14-8.379 1.946-8.886 16.753-.14.13-.572.495-1.284.958-.4.257-.896.56-1.479.86a19.352 19.352 0 0 1-3.53 1.385c-2.668.754-6.144 1.14-10.344.346-.01 0-.023 0-.033-.01-.55-.152-1.1-.28-1.63-.355 0 0-4.318-18.206-20.91-15.313l-.109-.022c.062-.247.108-.387.108-.387s-7.429 2.02-5.939-5.644c1.48-7.668 5.94-5.916 7.277-2.83 1.36 3.099 2.3 5.119 3.648.409 1.35-4.71 3.11-8.066 5.808-9.547 0 0 1.751 4.17 10.797 4.3 1.34 0 3.003-.677 1.21-2.151-1.49-1.204-2.57-1.204-4.05-4.43 0 0 10.118 6.859 26.312 4.3M33.97 29.62c-1.758 0-2.16.937-1.758 1.474.452.59 1.057.356 1.65.194 1.113-.302 1.715.268 2.708.57.954.278 1.18-.14.5-.902 0 0-1.35-1.336-3.1-1.336m.971 3.765a3.127 3.127 0 0 0-3.132 3.118 3.13 3.13 0 0 0 3.132 3.13 3.131 3.131 0 0 0 3.142-3.13 3.128 3.128 0 0 0-3.142-3.118m13.238 5.442c1.057.042 1.23 1.084 1.24 1.214.047.289.315.489.605.452a.534.534 0 0 0 .476-.591c-.098-.722-.68-2.086-2.269-2.152-1.748-.064-3.476 1.849-3.54 1.938a.527.527 0 0 0 .064.75.508.508 0 0 0 .346.13.562.562 0 0 0 .41-.183c.39-.452 1.587-1.6 2.667-1.558" data-paper-data="{&quot;origPos&quot;:null}"/><path fill="#794d45" d="M56.417 28.803c1.748 0 2.158.948 1.76 1.484-.454.59-1.06.356-1.652.194-1.113-.301-1.718.268-2.71.57-.961.278-1.177-.142-.498-.892 0 0 1.339-1.356 3.1-1.356m-19.1 2.152c.68.763.455 1.183-.498.903-.992-.301-1.596-.872-2.71-.57-.592.163-1.197.396-1.65-.195-.401-.536 0-1.473 1.759-1.473 1.75 0 3.099 1.335 3.099 1.335"/><path fill="#794d45" d="M3.655 50.45c-7.3-14.377 1.08-26.077 1.08-26.077-2.44.409-4.73 4.43-4.73 4.43-.27-13.031 11.606-17.462 11.606-17.462-1.62-.678-5.397.398-5.397.398C8.513 3.277 17.28 5.555 17.28 5.555 19.569-2.24 27.946.448 27.946.448c-4.6 1.344-4.6 4.57-4.6 4.57S34.425-2.38 47.922 3.136c18.89 7.666 13.494 23.516 12.134 23.926-16.194 2.559-26.312-4.3-26.312-4.3 1.48 3.225 2.56 3.225 4.05 4.43 1.793 1.474.129 2.15-1.211 2.15-9.044-.13-10.794-4.301-10.794-4.301-2.7 1.483-4.46 4.839-5.81 9.549-1.348 4.71-2.288 2.689-3.648-.41-1.338-3.086-5.798-4.838-7.278 2.83-1.49 7.665 5.94 5.645 5.94 5.645s-.045.139-.108.386c-.477 1.817-2.452 9.42-2.334 12.248a1.58 1.58 0 0 1-.054.526c-.53 2.344-5.936-.452-8.841-5.365"/><path fill="#866232" d="M37.455 26.933c-1.32-.965-2.346-1.196-3.712-4.173 0 0 7.906 5.344 20.91 4.828-3.857 1.017-9.9 1.682-17.198-.655M71.8 65.593c8.277-1.254 9.177 6.504 13.495-2.035 0 0 1.08 4.033-1.49 6.313-2.558 2.293-7.556 1.01-7.956-1.472 0 0-8.777 1.139-13.02-.204l-.098-.055c.69-1.2 1.229-2.837 1.645-4.54 1.455 1.426 3.774 2.547 7.424 1.994M23.037 96.778c3.598-1.253 3.779-5.735 2.519-6.81-1.26-1.075 0-5.556-4.678-10.217-3.41-3.393-8.817-.987-11.507.57-.388-2.151-.394-3.386-.394-3.386l.01-.085 15.18 1.289s.066 7.53 1.75 9.142c0 0 3.368 1.406 3.508 3.892.02.333.02.645-.01.934-.087 1.894-.768 3.186-.615 3.948 0 .033.01.063.02.097.27.87.94 2.418-.874 2.548-.486.033-.897-.042-1.23-.205-.895-.441-1.274-1.493-1.468-2.484 0 0-2.84 2.83-6.015 3.227 0 0-.761-2.964.387-5.67-.006.167-.11 4.442 3.417 3.21" data-paper-data="{&quot;origPos&quot;:null}"/><path fill="#fad4a0" d="M14.777 89.018c-.09-.074-.183-.147-.273-.22-.997-.823-1.962-1.713-2.747-2.61z"/><path fill="#006798" d="M21.847 61.04c3.585.195 7.373-.6 10.115-1.362.75.126 3.793.688 6.61 1.837-2.456-.35-5.924-.466-8.876.853 0 0-1.982 1.077-.722 4.48 1.262 3.407-4.497 17.743 4.139 19.715 8.399 1.916 16.28-4.64 9.274-22.79.135.127.275.253.394.387 0 0 5.387 15.743 1.847 23.399-6.23.85-12.957 1.086-18.71-.28-1.686-1.611-1.75-9.14-1.75-9.14l2.158-10.085c-.69-4.776-3.605-6.571-4.48-7.013m27.698 4.576c-.675-1.85-1.224-2.94-1.224-2.94 1.92-2.26 2.893-4.968 3.12-5.667.506-.263 1-.55 1.479-.86l.053.076s.535.533 1.377 1.497c-2.153.65-4.441 6.865-4.805 7.894m1.185 3.79c5.713 11.368 3.445 15.645 10.277 11.78 2.939-1.664 3.22-5.21 2.289-9.05 1.257 3.309 2.046 6.892 1.824 10.508 0 0-.336.12-.941.324a118.986 118.986 0 0 1-12.955 3.462v-.023c1.554-6.327.685-12.526-.494-17"/><path fill="#dadada" d="M41.03 60.129c-2.286-.538-4.477-.236-6.093.198a36.765 36.765 0 0 0-2.976-.65c2.353-.656 3.942-1.301 3.942-1.301.55.14 1.1.258 1.63.354.01.01.023.01.033.01 3.639 1.033 7.58 3.399 7.58 3.399s6.003 10.13 3.249 24.829c-1.23.214-2.483.419-3.767.59 9.26-5.366.992-26.354-3.597-27.43m7.828-.671c-.828.823-2.28 1.77-3.408 2.448 1.995-1.478 2.418-3.273 2.459-3.51a19.314 19.314 0 0 0 3.53-1.385c-.071.217-.221.64-.442 1.166-.688.175-1.51.654-2.14 1.28" data-paper-data="{&quot;origPos&quot;:null}"/><path fill="#b4b5b5" d="M54.203 55.192c.032-.032.053-.041.053-.041A9.97 9.97 0 0 0 60 53.364c.237.075 1.006.314 1.935.62-2.29 1.335-5.607 3.84-3.764 6.413 2.262 3.155 5.18 3.662 6.067 3.746-.396 1.505-.89 2.928-1.506 3.997a6.334 6.334 0 0 1-.648.923l-.096.042c-3.607-7.46-9.016-12.88-9.016-12.88l-.054-.076c.713-.462 1.145-.826 1.285-.957m-33.28 8.297c-1.924-3.143-5.47-2.7-8.24-1.69a15.63 15.63 0 0 1 2.847-2.348l.087-.14c1.782 1.129 3.962 1.623 6.23 1.73.873.442 3.79 2.237 4.48 7.013l-2.16 10.086-12.373-1.052c9.309-.133 12.16-8.651 9.13-13.6"/><path fill="#6f6e6e" d="M29.303 90.52c-.614-2.073-3.386-3.24-3.386-3.24 1.38.32 2.778.554 4.187.702a15 15 0 0 1-.801 2.54"/><path fill="#6f6e6e" d="M14.505 88.797c2.677 2.214 5.54 3.923 5.54 3.923a7.228 7.228 0 0 0-.885 2.344c-.764-.885-2.123-2.192-2.69-1.063-.81 1.612 1.213 17.474 7.559 18.147 6.342.67 15.924-15.996 13.358-16.264-2.564-.27-.81-.942 1.485-1.21 2.293-.27 0-2.286-2.43-2.69-2.428-.401-1.483-1.613 1.487-1.745 2.968-.137 6.747-1.614 1.889-1.346-1.897.105-3.75-.222-5.306-.657 3.368.042 6.81-.226 10.115-.677 1.26-.173 2.516-.37 3.768-.591.972-.172 1.91-.355 2.827-.537 3.287-.68 6.222-1.446 8.543-2.107-.833.783-2.311 1.772-4.833 2.42-4.723 1.208-4.184 1.747-2.025 2.15 2.16.404 2.7 1.613.406 1.613s-5.264 2.418-3.51 2.956c1.755.538 1.349 1.21-.135 1.613s3.374 9.679 7.692 9.947c1.278.079 2.555-.42 3.755-1.507a18.876 18.876 0 0 1-.716 1.507s-3.11 2.15-6.412.946c0 0-3.778-2.764-5.81-8.883 0 0-5.655 1.614-8.97 1.55 0 0-5.398 10.82-9.781 14.12 0 0-4.114 2.01-7.352.666 0 0-8.704-10.927-7.57-24.625"/><path fill="#2c2421" d="M53.987 105.969c.487.176.97.276 1.438.324.403 1.24 1.494 3.097 4.365 2.36 2.464-.634 3.515-1.316 3.21-2.04.617.513 1.073 1.092.974 1.636-.27 1.485-12.556 4.57-9.987-2.28M22.074 113.42s-2.906 3.296-.88 4.506c1.38.827 3.583-2.175 4.84-4.16 1.894-.286 3.389-1.011 3.389-1.011s.402 3.559-2.016 5.042c-2.441 1.474-5.27 2.688-7.018 1.613-1.76-1.074-.412-3.903 1.685-5.99"/><path fill="#623c36" d="M.005 28.803C-.265 15.772 11.61 11.34 11.61 11.34a2.437 2.437 0 0 0-.478-.135c.688-.358 3.352-1.39.028 6.178-3.778 8.603 12.956 2.688 14.756 5.016 1.799 2.332 6.297 3.943 4.138.18-2.16-3.762 4.678-1.432 4.678-1.432 17.585 5.272 24.48 2.926 27.077-.49-.023 3.598-1.21 6.24-1.755 6.404-16.195 2.558-26.313-4.3-26.313-4.3 1.482 3.225 2.56 3.225 4.052 4.43 1.79 1.474.129 2.15-1.212 2.15-9.046-.13-10.795-4.3-10.795-4.3-2.698 1.48-4.46 4.838-5.81 9.547-1.35 4.71-2.287 2.69-3.648-.41-1.338-3.085-5.797-4.837-7.276 2.83-1.49 7.666 5.938 5.646 5.938 5.646s-.045.139-.108.386c-.476 1.817-2.452 9.42-2.332 12.248.01.193-.01.377-.054.526-.53 2.344-5.938-.452-8.841-5.364-7.3-14.38 1.079-26.08 1.079-26.08-2.442.41-4.73 4.432-4.73 4.432"/><path fill="#a86e63" d="M21.957 10.036c15.353 2.816 25.058-2.597 28.973-5.5 4.45 2.342 7.186 5.199 8.804 8.08-22.4 12.278-37.777-2.58-37.777-2.58"/></g></svg>