<svg version="1.1" xmlns="http://www.w3.org/2000/svg" xmlns:xlink="http://www.w3.org/1999/xlink" width="54.85003" height="107.99994" viewBox="0,0,54.85003,107.99994"><g transform="translate(-212.99993,-132.00006)"><g data-paper-data="{&quot;isPaintingLayer&quot;:true}" fill-rule="evenodd" stroke-miterlimit="10" stroke-dasharray="" stroke-dashoffset="0" style="mix-blend-mode: normal"><path d="M239.694,189.092c-10.67,-1.242 -18.312,-10.896 -17.071,-21.565l0.49,-4.215c1.24,-10.669 10.895,-18.312 21.564,-17.071c10.67,1.24 18.313,10.895 17.072,21.564l-0.49,4.215c-1.241,10.67 -10.896,18.312 -21.565,17.072" fill="#faac99" stroke="none" stroke-width="1" stroke-linecap="butt" stroke-linejoin="miter"/><path d="M239.513,190.65c-11.445,-1.331 -19.644,-11.688 -18.313,-23.133l0.526,-4.521c1.33,-11.445 11.688,-19.644 23.133,-18.313c11.445,1.33 19.644,11.688 18.312,23.133l-0.525,4.521c-1.331,11.445 -11.688,19.644 -23.133,18.313" fill="#faac99" stroke="none" stroke-width="1" stroke-linecap="butt" stroke-linejoin="miter"/><path d="M221.058,202.082v-36.925c0.001,-11.912 9.658,-21.568 21.57,-21.568c11.912,0 21.57,9.655 21.57,21.568v36.928c0,5.641 -4.574,10.212 -10.215,10.212h-22.71c-5.642,0 -10.215,-4.573 -10.215,-10.215" data-paper-data="{&quot;origPos&quot;:null}" fill="#542f19" stroke="none" stroke-width="1" stroke-linecap="butt" stroke-linejoin="miter"/><path d="M216.607,171.811c0.34609,-2.97318 3.0368,-5.10291 6.01,-4.757l1.174,0.136c2.9735,0.34573 5.10373,3.0365 4.758,6.01c-0.34573,2.9735 -3.0365,5.10373 -6.01,4.758l-1.175,-0.137c-2.97318,-0.34609 -5.10291,-3.0368 -4.757,-6.01M254.189,176.182c0.34609,-2.97318 3.0368,-5.10291 6.01,-4.757l1.174,0.136c2.9509,0.37049 5.05205,3.04965 4.70854,6.00381c-0.34351,2.95416 -3.00337,5.0797 -5.96054,4.76319l-1.175,-0.136c-2.97318,-0.34609 -5.10291,-3.0368 -4.757,-6.01" fill="#fc9068" stroke="none" stroke-width="1" stroke-linecap="butt" stroke-linejoin="miter"/><path d="M239.513,190.65c-11.445,-1.331 -19.644,-11.688 -18.313,-23.133l0.526,-4.521c1.33,-11.445 11.688,-19.644 23.133,-18.313c11.445,1.33 19.644,11.688 18.312,23.133l-0.525,4.521c-1.331,11.445 -11.688,19.644 -23.133,18.313" fill="#faac99" stroke="none" stroke-width="1" stroke-linecap="butt" stroke-linejoin="miter"/><path d="M239.513,190.65c-11.445,-1.331 -19.644,-11.688 -18.313,-23.133l0.526,-4.521c1.33,-11.445 11.688,-19.644 23.133,-18.313c11.445,1.33 19.644,11.688 18.312,23.133l-0.525,4.521c-1.331,11.445 -11.688,19.644 -23.133,18.313" data-paper-data="{&quot;origPos&quot;:null}" fill="#755c4d" stroke="none" stroke-width="1" stroke-linecap="butt" stroke-linejoin="miter"/><path d="M243.69,155.088l-23.115,12.034c1.376,-11.833 12.084,-20.309 23.917,-18.933c11.833,1.376 20.31,12.084 18.934,23.917z" fill="#542f19" stroke="none" stroke-width="1" stroke-linecap="butt" stroke-linejoin="miter"/><path d="M234.209,182.665h10.608v56.868h-10.608z" data-paper-data="{&quot;origPos&quot;:null}" fill="#755c4d" stroke="none" stroke-width="1" stroke-linecap="butt" stroke-linejoin="miter"/><path d="M246.585,194.032l-7.072,2.257l5.304,-6.501z" fill="#f1ebe2" stroke="none" stroke-width="1" stroke-linecap="butt" stroke-linejoin="miter"/><path d="M247.222,237.525h-15.419c-2.87,0 -5.395,-2.363 -5.649,-5.38l-2.567,-30.563c-0.376,-4.473 2.303,-8.258 5.999,-8.258h19.854c3.696,0 6.374,3.785 5.998,8.258l-2.567,30.564c-0.253,3.016 -2.779,5.379 -5.649,5.379" fill="#f1ebe2" stroke="none" stroke-width="1" stroke-linecap="butt" stroke-linejoin="miter"/><path d="M256.486,240h-33.946l2.121,-19.095h29.703z" fill="#135586" stroke="none" stroke-width="1" stroke-linecap="butt" stroke-linejoin="miter"/><path d="M226.783,202.165l-1.547,14.454c-0.303,2.824 -4.338,3.025 -4.919,0.244l-1.667,-7.98M252.242,202.165l1.548,14.454c0.302,2.824 4.338,3.025 4.918,0.244l1.667,-7.98" fill="none" stroke="#f1ebe2" stroke-width="7.779" stroke-linecap="round" stroke-linejoin="miter"/><path d="M251.182,221.259h-23.338l-1.061,-9.08v-7.54h25.46v6.72zM251.358,193.485c-0.00094,-0.24791 -0.16174,-0.46689 -0.398,-0.542c-0.66198,-0.21561 -1.35379,-0.32563 -2.05,-0.326h-0.522c-0.15002,-0.00027 -0.29399,0.05914 -0.40016,0.16513c-0.10617,0.10599 -0.16584,0.24985 -0.16584,0.39987v9.478c0,0.312 0.253,0.565 0.566,0.565h2.405c0.31204,0 0.565,-0.25296 0.565,-0.565zM231.203,193.35c0,-0.40482 -0.32818,-0.733 -0.733,-0.733c-0.82,0 -1.602,0.151 -2.326,0.422c-0.28733,0.10802 -0.47745,0.38303 -0.477,0.69v8.763c0,0.405 0.328,0.733 0.733,0.733h2.07c0.40482,0 0.733,-0.32818 0.733,-0.733z" fill="#135586" stroke="none" stroke-width="1" stroke-linecap="butt" stroke-linejoin="miter"/><path d="M256.929,154.05c4.697,4.511 7.307,11.087 6.497,18.056l-0.344,2.956c-0.077,0.656 -0.743,1.072 -1.368,0.856c-4.94,-1.708 -8.208,-6.669 -7.578,-12.075l1.064,-9.158c0.098,-0.84 1.119,-1.221 1.73,-0.635M220.575,167.122c0.893,-7.679 5.72,-13.942 12.23,-17.018l-1.292,11.108c-0.631,5.429 -4.983,9.519 -10.213,10.02c-0.29571,0.02999 -0.5891,-0.07543 -0.79811,-0.28676c-0.209,-0.21133 -0.31116,-0.50588 -0.27789,-0.80124l0.351,-3.022" fill="#542f19" stroke="none" stroke-width="1" stroke-linecap="butt" stroke-linejoin="miter"/><path d="M248.329,156.893c1.73098,0.20106 3.31118,1.08157 4.39291,2.4478c1.08173,1.36623 1.57637,3.10625 1.37509,4.8372l-0.425,3.652c-0.41919,3.60421 -3.68079,6.18618 -7.285,5.767l-9.57,-1.113c-1.73098,-0.20106 -3.31118,-1.08157 -4.39291,-2.4478c-1.08173,-1.36623 -1.57637,-3.10625 -1.37509,-4.8372l0.425,-3.652c0.41919,-3.60421 3.68079,-6.18618 7.285,-5.767l0.72,0.084c1.44926,0.16861 2.91578,-0.10136 4.21,-0.775c1.1052,0.95254 2.4707,1.55169 3.92,1.72l0.721,0.084" data-paper-data="{&quot;origPos&quot;:null}" fill="#755c4d" stroke="none" stroke-width="1" stroke-linecap="butt" stroke-linejoin="miter"/><path d="M243.06,172.396c-0.316,2.716 -0.915,2.385 -1.691,2.295c-0.776,-0.09 -1.435,0.094 -1.12,-2.622c0.317,-2.716 1.038,-3.44 1.814,-3.349c0.776,0.09 1.312,0.96 0.997,3.676" fill="#fc9068" stroke="none" stroke-width="1" stroke-linecap="butt" stroke-linejoin="miter"/><path d="M236.546,170.248c-0.085,0.727 -1.322,-0.116 -2.639,-0.27c-1.317,-0.153 -2.714,0.384 -2.63,-0.343c0.16928,-1.45499 1.48601,-2.49728 2.941,-2.328c1.45499,0.16928 2.49728,1.48601 2.328,2.941" fill="#542f19" stroke="none" stroke-width="1" stroke-linecap="butt" stroke-linejoin="miter"/><path d="M244.764,176.215c-0.191,1.643 -1.924,2.791 -3.87,2.565c-1.948,-0.226 -3.37,-1.742 -3.18,-3.385" fill="none" stroke="#ff5400" stroke-width="1.686" stroke-linecap="round" stroke-linejoin="round"/><path d="M252.351,172.086c-0.084,0.727 -1.321,-0.116 -2.638,-0.27c-1.317,-0.152 -2.715,0.385 -2.63,-0.343c0.18658,-1.43907 1.49512,-2.46096 2.93651,-2.29323c1.44139,0.16772 2.48032,1.46277 2.33149,2.90623" fill="#542f19" stroke="none" stroke-width="1" stroke-linecap="butt" stroke-linejoin="miter"/><path d="M263.304,173.149l-4.76,-15.114l-18.982,-9.73l-19.108,19.861l0.543,-4.675c1.377,-11.833 12.084,-20.31 23.917,-18.934c11.834,1.376 20.31,12.085 18.934,23.918l-0.544,4.675z" fill="#542f19" stroke="none" stroke-width="1" stroke-linecap="butt" stroke-linejoin="miter"/><path d="M257.485,154.22c-1.174,-0.612 -2.214,-1.246 -3.26,-1.842c-1.02513,-0.59073 -2.06201,-1.16085 -3.11,-1.71c-1.05114,-0.54437 -2.11581,-1.0622 -3.193,-1.553c-1.091,-0.509 -2.215,-0.984 -3.396,-1.575l-0.023,-0.011c-0.3552,-0.17719 -0.55899,-0.56011 -0.50756,-0.95371c0.05143,-0.3936 0.34676,-0.71131 0.73556,-0.79129c1.39,-0.288 2.813,-0.235 4.2,0.009c1.385,0.253 2.736,0.718 3.995,1.363c1.26121,0.64089 2.41911,1.46743 3.435,2.452c1.006,0.985 1.874,2.116 2.437,3.427c0.15496,0.36207 0.06615,0.78245 -0.22202,1.0509c-0.28817,0.26845 -0.71378,0.3273 -1.06398,0.1471l-0.027,-0.014z" fill="#e50102" stroke="none" stroke-width="1" stroke-linecap="butt" stroke-linejoin="miter"/><path d="M244.817,190.029l-5.304,6.5l-5.304,-6.501z" data-paper-data="{&quot;origPos&quot;:null}" fill="#755c4d" stroke="none" stroke-width="1" stroke-linecap="butt" stroke-linejoin="miter"/><path d="M234.209,189.788l5.304,6.501l-7.072,-2.257z" fill="#f1ebe2" stroke="none" stroke-width="1" stroke-linecap="butt" stroke-linejoin="miter"/><path d="M234.209,189.788l5.304,6.501l-7.072,-2.257z" fill="#f1ebe2" stroke="none" stroke-width="1" stroke-linecap="butt" stroke-linejoin="miter"/><path d="M257.82,180.164c-0.31591,2.71586 -2.77364,4.66141 -5.4895,4.3455c-2.71586,-0.31591 -4.66141,-2.77364 -4.3455,-5.4895c0.31591,-2.71586 2.77364,-4.66141 5.4895,-4.3455c2.71586,0.31591 4.66141,2.77364 4.3455,5.4895M233.936,177.386c-0.31563,2.71586 -2.77314,4.66163 -5.489,4.346c-2.71586,-0.31563 -4.66163,-2.77314 -4.346,-5.489c0.31563,-2.71586 2.77314,-4.66163 5.489,-4.346c2.71586,0.31563 4.66163,2.77314 4.346,5.489M218.712,208.662l-4.42,0.022l-0.031,-6.422c-0.00443,-0.93132 0.74668,-1.69004 1.678,-1.695c0.72501,-0.00372 1.42179,0.28079 1.93699,0.79092c0.51519,0.51013 0.80657,1.20407 0.81001,1.92908z" fill="#fc9068" stroke="none" stroke-width="1" stroke-linecap="butt" stroke-linejoin="miter"/><path d="M224.32,208.971c0.017,3.417 -1.614,5.603 -5.031,5.62c-3.419,0.017 -6.272,-2.036 -6.289,-5.454c-0.00798,-1.64117 0.63634,-3.21828 1.79119,-4.38438c1.15485,-1.16611 2.72565,-1.82568 4.36681,-1.83362c3.417,-0.017 5.146,2.634 5.162,6.052" data-paper-data="{&quot;origPos&quot;:null}" fill="#755c4d" stroke="none" stroke-width="1" stroke-linecap="butt" stroke-linejoin="miter"/><path d="M260.619,203.677c-0.0072,-0.72502 0.274,-1.42318 0.7817,-1.94082c0.5077,-0.51764 1.20028,-0.81232 1.9253,-0.81918c0.93133,-0.00888 1.69366,0.73867 1.703,1.67l0.064,6.422l-4.42,0.044z" fill="#fc9068" stroke="none" stroke-width="1" stroke-linecap="butt" stroke-linejoin="miter"/><path d="M254.714,209.832c-0.034,-3.418 1.656,-6.094 5.073,-6.128c1.64118,-0.01626 3.2216,0.62015 4.39353,1.7692c1.17193,1.14905 1.83937,2.71661 1.85547,4.3578c0.034,3.417 -2.79,5.512 -6.208,5.546c-3.417,0.034 -5.08,-2.128 -5.114,-5.545" data-paper-data="{&quot;origPos&quot;:null}" fill="#755c4d" stroke="none" stroke-width="1" stroke-linecap="butt" stroke-linejoin="miter"/><path d="M231.026,207.292c0,0.87869 -0.71231,1.591 -1.591,1.591c-0.87869,0 -1.591,-0.71231 -1.591,-1.591c0,-0.87869 0.71231,-1.591 1.591,-1.591c0.87869,0 1.591,0.71231 1.591,1.591M251.182,207.292c0,0.87896 -0.71254,1.5915 -1.5915,1.5915c-0.87896,0 -1.5915,-0.71254 -1.5915,-1.5915c0,-0.87896 0.71254,-1.5915 1.5915,-1.5915c0.87896,0 1.5915,0.71254 1.5915,1.5915" fill="#f1ebe2" stroke="none" stroke-width="1" stroke-linecap="butt" stroke-linejoin="miter"/><path d="M254.861,143.27c3.36586,-2.25942 7.58107,-2.85301 11.44,-1.611c1.354,0.438 1.957,2.021 1.252,3.258c-3.238,5.682 -10.469,7.663 -16.151,4.425c-5.682,-3.239 -7.663,-10.47 -4.425,-16.152c0.751,-1.316 2.305,-1.585 3.441,-0.583c3.03508,2.68696 4.67253,6.61587 4.444,10.663" fill="#e50102" stroke="none" stroke-width="1" stroke-linecap="butt" stroke-linejoin="miter"/><path d="M234.608,209.199h9.81c1.507,0 2.592,1.532 2.005,2.92c-1.17303,2.77745 -3.895,4.58263 -6.91,4.58263c-3.015,0 -5.73697,-1.80518 -6.91,-4.58263c-0.587,-1.389 0.497,-2.919 2.004,-2.919z" fill="#f1ebe2" stroke="none" stroke-width="1" stroke-linecap="butt" stroke-linejoin="miter"/><path d="M239.512,190.65c-3.67293,-0.42289 -7.16628,-1.81899 -10.119,-4.044h22.85v1.45c-3.728,2.126 -8.14,3.128 -12.73,2.594" data-paper-data="{&quot;origPos&quot;:null}" fill="#755c4d" stroke="none" stroke-width="1" stroke-linecap="butt" stroke-linejoin="miter"/></g></g></svg>