<svg version="1.1" xmlns="http://www.w3.org/2000/svg" xmlns:xlink="http://www.w3.org/1999/xlink" width="65.33624" height="113.24866" viewBox="0,0,65.33624,113.24866"><g transform="translate(-207.06602,-123.708)"><g data-paper-data="{&quot;isPaintingLayer&quot;:true}" fill-rule="evenodd" stroke="none" stroke-width="1" stroke-linecap="butt" stroke-linejoin="miter" stroke-miterlimit="10" stroke-dasharray="" stroke-dashoffset="0" style="mix-blend-mode: normal"><path d="M238.52,231.244c0.063,0.194 -0.02,0.483 -0.188,0.749c-0.557,0.861 -1.525,1.453 -2.349,2.029c-1.275,0.877 -2.888,1.36 -4.299,2.035c-1.273,0.538 -2.952,1.563 -4.093,0.283c-1.506,-1.813 -0.229,-4.006 1.535,-5.096zM249.199,231.244h-9.393c-0.064,0.194 0.02,0.483 0.19,0.749c0.557,0.861 1.527,1.453 2.347,2.029c1.278,0.877 2.888,1.36 4.298,2.035c1.275,0.538 2.954,1.563 4.093,0.283c1.509,-1.813 0.23,-4.006 -1.534,-5.096z" fill="#4f2a11"/><path d="M251.317,205.398l-1.92,25.846h-9.723l-0.368,-18.599h-0.284l-0.373,18.599h-9.724l-1.916,-25.846z" fill="#545c32"/><path d="M270.097,180.629c0.536,0.112 1.578,1.265 1.328,1.755c-0.471,0.944 -3.251,0.535 -4.258,-0.019c-0.01886,0.1094 -0.07211,0.20993 -0.152,0.287c-0.849,0.682 -3.338,-0.962 -3.933,-1.88c-0.02102,-0.02843 -0.03848,-0.05933 -0.052,-0.092c-0.082,0.179 -0.189,0.308 -0.319,0.346c-0.969,0.299 -2.512,-1.801 -2.899,-2.953c-0.112,0.114 -0.232,0.184 -0.349,0.184c-1.083,0.018 -2.025,-2.772 -1.95,-3.875c-0.056,0.008 -0.109,0.006 -0.156,-0.012c-1.042,-0.318 -1.096,-3.303 -0.678,-4.313c0.0379,-0.08961 0.08552,-0.17478 0.142,-0.254c-0.03171,-0.00345 -0.06254,-0.0126 -0.091,-0.027c-0.981,-0.476 -0.571,-3.429 -0.004,-4.363c-0.977,-0.476 -0.566,-3.433 0.004,-4.361c0.166,-0.283 0.698,-0.733 1.122,-1.073c-0.071,-0.382 -0.112,-0.736 -0.052,-1.058c0.095,-0.543 1.23,-1.606 1.723,-1.367c0.977,0.476 0.569,3.427 0.002,4.361c0.975,0.482 0.565,3.435 -0.002,4.368c-0.043,0.066 -0.113,0.152 -0.193,0.24c0.61,0.893 0.589,3.117 0.242,3.96c-0.03283,0.08052 -0.07477,0.15702 -0.125,0.228c0.55,0.828 0.94,2.153 0.96,2.94c0.895,0.651 1.827,2.141 1.981,2.91c0.0108,0.05442 0.01749,0.10958 0.02,0.165c1.032,0.352 2.264,1.285 2.66,1.895c0.05366,0.08283 0.09793,0.17138 0.132,0.264c1.027,-0.002 2.252,0.298 2.789,0.635c0.275,0.176 0.713,0.713 1.05,1.146c0.382,-0.061 0.733,-0.096 1.058,-0.036M221.804,165.414c0.567,0.934 0.977,3.885 -0.002,4.363c-0.02771,0.01231 -0.05698,0.02073 -0.087,0.025c0.05303,0.08066 0.09919,0.16562 0.138,0.254c0.414,1.012 0.363,3.997 -0.678,4.312c-0.04963,0.01788 -0.10309,0.02237 -0.155,0.013c0.076,1.103 -0.869,3.893 -1.953,3.876c-0.115,0 -0.237,-0.071 -0.351,-0.183c-0.382,1.15 -1.927,3.25 -2.894,2.953c-0.137,-0.039 -0.237,-0.166 -0.32,-0.346c-0.01573,0.03215 -0.03413,0.06292 -0.055,0.092c-0.595,0.916 -3.078,2.562 -3.926,1.88c-0.08487,-0.07431 -0.14053,-0.1764 -0.157,-0.288c-1.011,0.555 -3.786,0.964 -4.261,0.02c-0.246,-0.491 0.796,-1.643 1.334,-1.755c0.318,-0.061 0.672,-0.025 1.057,0.035c0.333,-0.434 0.768,-0.969 1.048,-1.144c0.538,-0.34 1.766,-0.639 2.79,-0.635c0.03253,-0.09373 0.07653,-0.18307 0.131,-0.266c0.393,-0.611 1.627,-1.541 2.66,-1.893c0.00273,-0.05526 0.00841,-0.11034 0.017,-0.165c0.156,-0.77 1.086,-2.26 1.986,-2.91c0.024,-0.79 0.411,-2.112 0.96,-2.941c-0.057,-0.081 -0.1,-0.16 -0.126,-0.23c-0.349,-0.842 -0.368,-3.067 0.241,-3.96c-0.083,-0.085 -0.15,-0.171 -0.193,-0.238c-0.564,-0.932 -0.98,-3.885 -0.002,-4.369c-0.562,-0.935 -0.978,-3.885 0.002,-4.36c0.492,-0.238 1.624,0.825 1.724,1.368c0.059,0.322 0.015,0.676 -0.055,1.056c0.431,0.34 0.959,0.792 1.125,1.073c0.567,0.93 0.979,3.885 0.002,4.363" data-paper-data="{&quot;origPos&quot;:null}" fill="#80581e"/><path d="M270.567,162.994c1.803,0.764 2.374,3.484 1.279,6.077c-1.094,2.595 -3.442,4.072 -5.242,3.309c-1.031,-0.433 -1.659,-1.504 -1.803,-2.822c-0.327,-0.608 -0.601,-1.358 -0.763,-2.188c-0.449,-2.237 0.052,-4.217 1.106,-4.418c0.575,-0.11 1.192,0.322 1.71,1.092c1.137,-1.092 2.542,-1.546 3.713,-1.05" data-paper-data="{&quot;origPos&quot;:null}" fill="#ffe286"/><path d="M264.955,170.558l4.668,2.32c0,0 -4.311,9.091 -7.234,10.153c-2.126,0.772 -9.068,-1.86 -10.452,-2.407c2.531,9.935 2.828,24.932 2.828,24.932v13.63h-31.114l0.004,-13.63c0,0 0.257,-13.035 2.343,-22.826c-0.279,0.426 -0.685,0.914 -1.206,1.654c-1.661,2.362 -2.93,12.34 -2.93,12.34l-4.666,0.006c0,0 1.375,-13.81 4.96,-18.406c1.744,-2.233 8.042,-5.533 8.042,-5.533v0.028c1.976,-1.308 7.22,-1.508 7.22,-1.508l1.72,0.163h0.144l1.718,-0.138c0,0 5.35,0.116 7.279,1.447l11.382,4.147l5.293,-6.372z" fill="#eeeeed"/><path d="M234.127,226.602l-17.063,3.433l-5.492,-27.41l17.067,-3.438z" fill="#d6843b"/><path d="M232.568,224.361l-14.93,3.01l-4.782,-23.896l14.929,-3.004z" fill="#e1e1e1"/><path d="M219.441,200.905l1.616,-0.322c-0.095,-0.38 -0.512,-0.614 -0.948,-0.527c-0.433,0.086 -0.725,0.464 -0.668,0.849zM224.533,199.883l0.351,1.763l-8.532,1.715l-0.35,-1.762l3.006,-0.605c-0.101,-0.6 0.352,-1.19 1.026,-1.322c0.674,-0.139 1.315,0.232 1.455,0.824z" fill="#b2b2b2"/><path d="M223.305,203.857l-8.842,1.78l-0.087,-0.44l8.842,-1.777zM219.028,205.635l-4.387,0.885l-0.092,-0.442l4.39,-0.883zM227.433,204.923l-12.606,2.54l-0.09,-0.442l12.609,-2.537zM227.31,205.93l-12.295,2.476l-0.09,-0.44l12.298,-2.475zM227.804,206.748l-12.614,2.535l-0.086,-0.437l12.61,-2.54z" fill="#6e6e6d"/><path d="M216.31,199.236c0.108,-0.97 0.424,-1.807 0.885,-2.476l4.351,-0.008c0.04,0.07 0.098,0.166 0.13,0.24c0.428,0.415 0.832,0.97 1.182,1.616c0.9,1.705 0.993,3.433 0.207,3.85c-0.423,0.224 -1.01,0.024 -1.602,-0.466c-0.64,1.146 -1.64,1.846 -2.686,1.736c-1.606,-0.167 -2.709,-2.182 -2.467,-4.492" data-paper-data="{&quot;origPos&quot;:null}" fill="#ffe286"/><path d="M239.305,189.931l-0.735,-1.067l-1.881,-4.298l-2.2,-13.18c1.613,-0.237 2.995,-0.3 2.995,-0.3l1.716,0.068h0.146l1.716,-0.05c0,0 1.537,0.053 3.261,0.313l-2.47,13.145l-2.028,4.599z" fill="#91c78f"/><path d="M239.325,189.942c-4.052,-2.668 -6.515,-11.854 -6.515,-11.854l1.097,-2.116l-2.159,-0.552l-0.523,-3.27c1.139,-0.434 2.651,-0.698 3.91,-0.855c0.966,5.36 4.19,18.647 4.19,18.647" fill="#d0d0d0"/><path d="M239.282,189.942c0,0 3.224,-13.287 4.19,-18.647c1.26,0.157 2.774,0.421 3.91,0.855l-0.527,3.27l-2.152,0.552l1.098,2.116c0,0 -2.469,9.186 -6.52,11.854" fill="#d0d0d0"/><path d="M240.021,205.575c0.01303,0.22882 -0.10163,0.44605 -0.29791,0.56439c-0.19627,0.11834 -0.44192,0.11834 -0.63819,0c-0.19627,-0.11834 -0.31094,-0.33557 -0.29791,-0.56439c-0.01303,-0.22882 0.10163,-0.44605 0.29791,-0.56439c0.19627,-0.11834 0.44192,-0.11834 0.63819,0c0.19627,0.11834 0.31094,0.33557 0.29791,0.56439M240.021,199.416c0,0.34076 -0.27624,0.617 -0.617,0.617c-0.34076,0 -0.617,-0.27624 -0.617,-0.617c0,-0.34076 0.27624,-0.617 0.617,-0.617c0.34076,0 0.617,0.27624 0.617,0.617M240.021,193.069c0,0.34076 -0.27624,0.617 -0.617,0.617c-0.34076,0 -0.617,-0.27624 -0.617,-0.617c-0.01303,-0.22882 0.10163,-0.44605 0.29791,-0.56439c0.19627,-0.11834 0.44192,-0.11834 0.63819,0c0.19627,0.11834 0.31094,0.33557 0.29791,0.56439" fill="#4f4f4f"/><path d="M250.395,189.77c0,0.128 -0.11,0.238 -0.242,0.238h-0.026c-0.13382,0.00167 -0.24381,-0.10518 -0.246,-0.239v-5.29c0,-0.133 0.108,-0.243 0.246,-0.243h0.026c0.132,0 0.242,0.11 0.242,0.242v5.291z" fill="#b2b2b2"/><path d="M250.127,181.673c0.169,0 0.33,0.124 0.33,0.295v2.34c0,0.166 -0.161,0.316 -0.33,0.316h-0.03c-0.168,0 -0.278,-0.151 -0.278,-0.316v-1.998h-0.065v1.66c0,0.036 -0.053,0.076 -0.09,0.076c-0.034,0 -0.036,-0.041 -0.036,-0.076v-2.051c0,-0.035 0.002,-0.053 0.036,-0.053c0.037,0 0.09,0.018 0.09,0.053v0.008h0.04c0.029,-0.126 0.151,-0.254 0.303,-0.254h0.03" fill="#0771b7"/><path d="M245.082,184.812h5.695v7.824h-5.695z" fill="#d0d0d0"/><path d="M245.147,186.293h5.63v0.059h-5.63z" fill="#878888"/><path d="M230.407,185.761c0.004,0.246 -0.974,0.474 -0.974,0c-0.009,-14.944 7.01,-15.532 7.01,-15.532l-0.266,0.778c0,0 -5.873,1.2 -5.77,14.753" fill="#4f4f4f"/><path d="M231.892,187.12c0.00106,0.52378 -0.2064,1.02644 -0.57658,1.397c-0.37018,0.37056 -0.87264,0.57853 -1.39642,0.578c-1.09131,0 -1.976,-0.88469 -1.976,-1.976c0,-1.09131 0.88469,-1.976 1.976,-1.976c1.09,0 1.973,0.886 1.973,1.976" fill="#b2b2b2"/><path d="M246.755,177.827c1.30671,0.23188 2.25737,1.36988 2.253,2.697c-0.0003,0.08273 -0.00297,0.16543 -0.008,0.248h-0.83c0.07089,-0.54443 -0.09555,-1.09308 -0.45698,-1.50636c-0.36143,-0.41328 -0.883,-0.65135 -1.43202,-0.65364c-0.54979,0.00118 -1.07251,0.23873 -1.43499,0.65211c-0.36247,0.41338 -0.52968,0.96266 -0.45901,1.50789h-0.83c-0.12929,-1.41211 0.84019,-2.68956 2.235,-2.945c0.104,-5.716 -3.798,-6.821 -3.798,-6.821l-0.26,-0.776c0,0 4.873,1.032 5.021,7.597" fill="#4f4f4f"/><path d="M243.688,180.773h0.57c0.352,7.759 4.152,7.495 4.152,7.495v0.575c-4.54,0.064 -4.723,-8.07 -4.723,-8.07z" fill="#b2b2b2"/><path d="M248.835,188.55c0,0.17 -0.203,0.306 -0.451,0.306c-0.25,0 -0.453,-0.136 -0.453,-0.307c0,-0.169 0.203,-0.311 0.453,-0.311c0.248,0 0.45,0.142 0.45,0.311" fill="#908f90"/><path d="M248.898,180.773c0,0 -0.104,8.134 -4.645,8.07v-0.575c0,0 3.723,0.264 4.074,-7.495h0.57z" fill="#b2b2b2"/><path d="M243.751,188.549c0,-0.169 0.199,-0.311 0.453,-0.311c0.247,0 0.446,0.142 0.446,0.311c0,0.171 -0.199,0.307 -0.446,0.307c-0.254,0 -0.454,-0.136 -0.454,-0.306" fill="#908f90"/><path d="M261.405,151.105c1.139,0.741 1.892,1.992 1.892,3.418c0,2.27 -1.908,4.11 -4.263,4.11c-0.067,0 -0.13,-0.002 -0.195,-0.007c-3.819,6.851 -11.12,11.487 -19.505,11.487c-8.396,0 -15.701,-4.643 -19.514,-11.505c-0.156,0.016 -0.315,0.025 -0.475,0.025c-2.353,0 -4.263,-1.84 -4.263,-4.109c0,-1.533 0.873,-2.868 2.16,-3.58c-0.15,-1.044 -0.23,-2.114 -0.23,-3.201c0,-12.359 9.998,-22.374 22.322,-22.374c12.327,0 22.317,10.014 22.317,22.374c0,1.144 -0.082,2.267 -0.246,3.362" data-paper-data="{&quot;origPos&quot;:null}" fill="#ffe286"/><path d="M233.229,148.096c-0.772,-0.174 -0.908,-1.201 -3.386,-0.74c-0.779,0.18 -2.417,1.156 -2.732,1.808c-0.316,0.652 -0.088,-2.392 2.457,-3.522c1.835,-0.675 2.457,-0.642 3.977,-0.642c1.52,0 1.987,0.907 1.766,1.65c0,0 -0.503,1.803 -2.082,1.446zM247.134,148.096c0.772,-0.174 0.908,-1.201 3.386,-0.74c0.779,0.18 2.417,1.156 2.732,1.808c0.316,0.652 0.087,-2.392 -2.457,-3.522c-1.835,-0.675 -2.457,-0.642 -3.977,-0.642c-1.52,0 -1.987,0.907 -1.766,1.65c0,0 0.503,1.803 2.082,1.446z" data-paper-data="{&quot;origPos&quot;:null}" fill="#80581e"/><path d="M233,154c0,1.657 -0.895,3 -2,3c-1.105,0 -2,-1.343 -2,-3c0,-1.657 0.895,-3 2,-3c1.105,0 2,1.343 2,3M251,154c0,1.657 -0.895,3 -2,3c-1.105,0 -2,-1.343 -2,-3c0,-1.657 0.895,-3 2,-3c1.105,0 2,1.343 2,3" data-paper-data="{&quot;origPos&quot;:null}" fill="#4f2a11"/><path d="M240.02,157.069c-1.125,0.153 -3.02,1.834 -3.02,1.834c0,0 0.207,-1.009 0.503,-1.299c0.8,-1.156 2.487,-1.604 2.487,-1.604c0,0 2.173,0.703 2.65,1.588c0.443,0.824 0.34,1.238 0.34,1.238c0,0 -2.121,-1.871 -2.96,-1.756z" fill="#eeac6c"/><path d="M233.2,160.696c0,0 6.897,3.208 13.172,-0.397c0,0 -1.39,5.47 -5.95,5.561c-4.115,0.122 -4.984,-1.492 -5.477,-1.956c-0.492,-0.463 -1.42,-1.772 -1.745,-3.208" fill="#eeac6c"/><path d="M237.589,172.791c-1.044,0 -1.889,-2.194 -1.889,-3.24h7.425c0,1.046 -0.842,3.24 -1.888,3.24h-3.648" data-paper-data="{&quot;origPos&quot;:null}" fill="#ffe286"/><path d="M236.502,171.986c-0.424,-0.635 -0.719,-1.524 -0.781,-2.167c2.44788,0.39934 4.94499,0.39055 7.39,-0.026l-0.014,0.01l-6.595,2.183" fill="#eeac6c"/><path d="M262.534,144.827c0.034,2.625 -1.13,6.278 -1.13,6.278c0,0 -5.928,-7.031 -9.544,-9.003c-4.42,-2.41 -6.622,1.141 -10.572,-1.987c-0.656,-0.517 -1.874,-1.89 -1.874,-1.89c0,0 -1.484,1.506 -1.88,1.89c-4.442,4.357 -7.774,-0.728 -11.508,1.905c-4.757,3.346 -8.781,8.924 -8.781,8.924c0,0 -1.383,-1.581 -1.19,-6.368c0.053,-1.375 0.719,-4.432 1.808,-7.538c3.928,-7.9 12.065,-13.33 21.47,-13.33c10.807,0 19.939,7.162 22.936,17.008c0.164,1.52 0.25,2.941 0.264,4.111" data-paper-data="{&quot;origPos&quot;:null}" fill="#80581e"/></g></g></svg>