<svg version="1.1" xmlns="http://www.w3.org/2000/svg" xmlns:xlink="http://www.w3.org/1999/xlink" width="87.696" height="111.88872" viewBox="0,0,87.696,111.88872"><g transform="translate(-195.999,-123.804)"><g data-paper-data="{&quot;isPaintingLayer&quot;:true}" fill-rule="evenodd" stroke="none" stroke-width="1" stroke-linecap="butt" stroke-linejoin="miter" stroke-miterlimit="10" stroke-dasharray="" stroke-dashoffset="0" style="mix-blend-mode: normal"><path d="M273.297,179.763c3.451,4.39 4.775,17.59 4.775,17.59v-0.059c0.444,0.637 0.757,1.465 0.853,2.392c0.232,2.208 -0.828,4.127 -2.374,4.287c-1.01,0.116 -1.974,-0.557 -2.583,-1.648c-0.575,0.468 -1.146,0.658 -1.553,0.441c-0.758,-0.4 -0.668,-2.044 0.203,-3.673c0.2988,-0.57011 0.68176,-1.09196 1.136,-1.548c0.03,-0.072 0.067,-0.135 0.107,-0.201c0,0 -1.507,-9.525 -3.112,-11.78c-0.8,-1.129 -1.326,-1.767 -1.506,-2.27c-0.145,-0.4 -0.3,-1.164 -0.371,-1.456c-0.52,-2.265 -3.336,-7.369 -3.336,-7.369c0,0 6.074,3.156 7.76,5.294M226.603,165.068c1.127,-0.475 2.489,-0.04 3.587,1.01c0.495,-0.74 1.085,-1.155 1.637,-1.05c1.018,0.195 1.5,2.135 1.07,4.33c-0.163,0.838 -0.436,1.594 -0.773,2.194c-0.03548,0.2665 -0.10089,0.52815 -0.195,0.78l5.19,6.047l11.002,-3.91c0,0 -1.873,2.945 -2.334,4.02c-0.333,0.781 -0.991,3.26 -0.991,3.26c0,0 -8.029,3.251 -10.311,2.424c-2.816,-1.01 -6.05,-10.13 -6.05,-10.13c-1.214,-0.43 -2.393,-1.582 -3.064,-3.174c-1.052,-2.472 -0.503,-5.065 1.232,-5.8" data-paper-data="{&quot;origPos&quot;:null}" fill="#be9269"/><path d="M199.152,208.147h25.23v21.194h-25.229z" fill="#cd9363"/><path d="M199.153,208.148h25.23v7.699c-1.428,-6.497 -19.102,-7.759 -25.23,-7.007z" fill="#a26a3f"/><path d="M202.826,224.773c-0.03,0.587 -0.096,2.092 0.104,2.705c0.48,0.014 0.841,0.055 0.841,0.107c0,0.064 -0.497,0.108 -1.111,0.108c-0.618,0 -1.114,-0.044 -1.114,-0.108c0,-0.052 0.36,-0.093 0.846,-0.107c0.161,-0.608 0.122,-2.118 0.096,-2.715c-1.144,-0.084 -2.049,-1.03 -2.049,-2.194h4.44c-0.00314,1.15832 -0.89782,2.1188 -2.053,2.204M209.289,226.87c0.091,0.169 -0.125,0.638 -0.68,0.631c-0.67,-0.01 -0.606,-2.158 -0.56,-2.968h-2.055c0,-1.229 0.993,-2.208 2.223,-2.208c1.228,0 2.226,0.978 2.226,2.208h-2.09c-0.031,0.711 -0.069,2.447 0.361,2.544c0.194,0.042 0.184,-0.226 0.184,-0.226z" fill="#7f4a1a"/><path d="M205.447,198.22h18.935v9.929h-18.935z" fill="#cd9363"/><path d="M224.381,198.221v5.806c-1.072,-4.869 -14.241,-5.84 -18.936,-5.293v-0.513z" fill="#a26a3f"/><path d="M207.813,205.598c-0.021,0.34 -0.057,1.218 0.048,1.572c0.293,0.009 0.498,0.034 0.498,0.057c0,0.038 -0.293,0.068 -0.654,0.068c-0.349,0 -0.64,-0.03 -0.64,-0.068c0,-0.023 0.211,-0.047 0.494,-0.057c0.096,-0.354 0.069,-1.232 0.057,-1.572c-0.669,-0.05 -1.191,-0.604 -1.191,-1.28h2.575c0.00174,0.6725 -0.51724,1.23167 -1.188,1.28M211.564,206.819c0.048,0.101 -0.077,0.363 -0.402,0.363c-0.386,-0.003 -0.358,-1.25 -0.321,-1.721h-1.199c0.0033,-0.7101 0.57989,-1.28401 1.29,-1.284c0.718,0 1.292,0.575 1.292,1.284h-1.207c-0.023,0.418 -0.04,1.417 0.21,1.475c0.109,0.02 0.103,-0.13 0.103,-0.13z" fill="#7f4a1a"/><path d="M231.445,167.717c0.66235,-0.00221 1.20124,0.53265 1.204,1.195c-0.00659,0.65961 -0.54436,1.19023 -1.204,1.188h-4.664v59.945c0,0.663 -0.537,1.197 -1.195,1.197c-0.666,0 -1.204,-0.534 -1.204,-1.197v-61.133c0,-0.665 0.538,-1.195 1.203,-1.195h5.86" fill="#d0d0d0"/><path d="M224.565,230.54c-0.00275,0.6604 -0.5386,1.19446 -1.199,1.195h-26.16c-0.667,0 -1.207,-0.54 -1.207,-1.195c0,-0.662 0.54,-1.197 1.207,-1.197h26.159c0.664,0 1.2,0.535 1.2,1.197" fill="#d0d0d0"/><path d="M219.511,228.955c0,-3.673 2.992,-6.644 6.69,-6.644c3.694,0 6.69,2.971 6.69,6.644c0,3.669 -2.996,6.642 -6.69,6.642c-3.698,0 -6.69,-2.973 -6.69,-6.642" fill="#333433"/><path d="M222.231,228.955c0,-2.181 1.772,-3.94 3.97,-3.94c1.04914,-0.00558 2.05731,0.40686 2.8017,1.14619c0.74439,0.73933 1.16372,1.74466 1.1653,2.79381c-0.00185,1.04934 -0.42116,2.05483 -1.16541,2.79457c-0.74425,0.73974 -1.75226,1.15295 -2.80159,1.14843c-2.198,0 -3.97,-1.767 -3.97,-3.943" fill="#eeeeed"/><path d="M225.503,228.955c0.00165,-0.38432 0.31367,-0.695 0.698,-0.695c0.38421,0.00108 0.69617,0.31081 0.7,0.695c-0.01988,0.37153 -0.32693,0.6626 -0.699,0.6626c-0.37207,0 -0.67912,-0.29106 -0.699,-0.6626" fill="#333433"/><path d="M232.96,169.079c-0.311,2.098 -1.358,3.684 -2.337,3.532c-0.97,-0.144 -1.504,-1.959 -1.192,-4.05c0.314,-2.098 1.358,-3.683 2.341,-3.542c0.965,0.152 1.502,1.962 1.188,4.06" data-paper-data="{&quot;origPos&quot;:null}" fill="#be9269"/><path d="M257.334,230.118c-0.06,0.245 0.02,0.553 0.18,0.812c0.54,0.819 1.474,1.48 2.27,2.035c1.23,0.83 2.786,1.263 4.134,1.905c1.236,0.513 2.853,1.442 3.949,0.218c1.453,-1.732 0.222,-3.927 -1.477,-4.97zM256.094,230.118c0.061,0.245 -0.014,0.553 -0.18,0.812c-0.536,0.819 -1.473,1.48 -2.263,2.035c-1.236,0.83 -2.785,1.263 -4.142,1.905c-1.232,0.513 -2.852,1.442 -3.952,0.218c-1.453,-1.732 -0.223,-3.927 1.477,-4.97z" fill="#333433"/><path d="M268.43,205.615l-1.844,24.569h-9.374l-0.363,-17.775h-0.266l-0.362,17.775h-9.366l-1.862,-24.569z" fill="#ad6921"/><path d="M238.513,177.566c0,0 2.282,-1.043 10.032,-3.336c2.148,-1.028 6.504,-1.268 6.504,-1.268l1.651,0.053h0.138l1.65,-0.019c0,0 4.935,0.194 6.893,1.39v0.007c7.603,2.91 9.83,7.65 9.83,7.65c-0.777,3.06 -5.15,3.06 -5.15,3.06l-0.425,-0.625c1.896,9.293 2.133,21.128 2.133,21.128h-29.998c0,0 0.289,-14.261 2.737,-23.746l-4.692,1.858c0,0 -2.084,-3.572 -1.303,-6.152" fill="#d7a97e"/><path d="M267.07,183.96c0.012,0.009 0.012,0.026 0,0.038l-0.008,0.055l-0.042,0.237c0,0.046 -0.04,0.079 -0.088,0.079h-0.002c-0.08868,0.16611 -0.25884,0.2727 -0.447,0.28h-0.025c-0.06891,0.15882 -0.22299,0.26387 -0.396,0.27c-0.159,0 -0.277,-0.118 -0.287,-0.27h-2.409c-0.057,0.152 -0.22,0.27 -0.377,0.27c-0.15605,0.00226 -0.28511,-0.12101 -0.29,-0.277c-0.232,-0.01 -0.417,-0.019 -0.433,-0.046c-0.063,-0.094 -0.027,-0.281 -0.007,-0.404v-0.012h0.007c0,-0.009 0.004,-0.011 0.004,-0.023c0.104,-0.231 0.783,-0.766 0.956,-1.026c0.041,-0.056 0.083,-0.114 0.14,-0.176c0,-0.012 0.006,-0.017 0.018,-0.017v-0.002c0.009,-0.009 0.011,-0.009 0.011,-0.019v-0.008c0.017,0 0.017,-0.004 0.017,-0.008h0.004c0.008,-0.007 0.008,-0.013 0.012,-0.021h0.003c0,-0.007 0.012,-0.01 0.02,-0.01v-0.01c0.003,0 0.007,-0.008 0.007,-0.014c0.016,-0.011 0.033,-0.026 0.044,-0.032v-0.004c0.18,-0.175 0.429,-0.342 0.693,-0.342h2.681c0.211,0 0.351,0.158 0.34,0.367c0.003,0 0.003,0 0,0.007v0.046l-0.012,0.067l-0.174,0.967c0,0.004 0.012,0.004 0.012,0.007c0.017,0 0.017,0.008 0.02,0.016h0.008v0.015M267.059,185.29c0,-0.073 -0.059,-0.128 -0.128,-0.128h-4.542c-0.074,0 -0.13,0.055 -0.13,0.128v0.028c-0.00001,0.03421 0.01378,0.06697 0.03825,0.09088c0.02447,0.02391 0.05755,0.03693 0.09175,0.03612h4.542c0.06986,-0.00106 0.1264,-0.05715 0.128,-0.127zM267.483,185.664c0,-0.07 -0.057,-0.127 -0.13,-0.127h-4.547c-0.064,0 -0.127,0.058 -0.127,0.128v0.02c0.00053,0.07008 0.05693,0.12692 0.127,0.128h4.547c0.03445,0.0011 0.06786,-0.01197 0.09242,-0.03615c0.02456,-0.02419 0.03815,-0.05738 0.03758,-0.09185z" fill="#7f4a1a"/><path d="M267.306,200.196l16.389,3.266l-5.272,26.102l-16.397,-3.264z" fill="#d6843b"/><path d="M268.116,201.415l14.351,2.858l-4.595,22.753l-14.348,-2.86z" fill="#e1e1e1"/><path d="M275.492,201.019c-0.421,-0.086 -0.815,0.138 -0.909,0.501l1.552,0.312c0.057,-0.371 -0.22,-0.726 -0.643,-0.813zM271.243,200.851l2.929,0.587c0.128,-0.568 0.746,-0.92 1.398,-0.79c0.647,0.129 1.082,0.692 0.982,1.269l2.894,0.572l-0.34,1.674l-8.203,-1.631l0.34,-1.68z" fill="#b2b2b2"/><path d="M277.314,205.635l-8.481,-1.767l0.078,-0.414l8.489,1.761zM272.863,205.587l-4.21,-0.88l0.094,-0.414l4.208,0.872zM280.559,208.12l-12.097,-2.514l0.087,-0.416l12.101,2.508zM280.071,208.953l-11.798,-2.453l0.096,-0.414l11.794,2.447zM280.198,209.851l-12.089,-2.51l0.079,-0.414l12.092,2.504z" fill="#6e6e6d"/><path d="M278.926,199.703c0.229,2.199 -0.83,4.11 -2.367,4.27c-1.008,0.116 -1.968,-0.557 -2.58,-1.647c-0.578,0.467 -1.142,0.657 -1.548,0.441c-0.75,-0.398 -0.662,-2.032 0.207,-3.66c0.329,-0.619 0.723,-1.146 1.133,-1.541c0.034,-0.066 0.091,-0.161 0.12,-0.226l4.187,0.004c0.448,0.636 0.75,1.438 0.848,2.36M260.513,173.145c-1.066,-0.11 -1.858,-0.14 -1.858,-0.14l-1.655,0.061h-0.143l-1.651,-0.089c0,0 -0.867,0.043 -2.011,0.18l3.727,3.823zM278.096,153.761c1.102,0.705 1.829,1.898 1.829,3.264c0,2.17 -1.84,3.924 -4.102,3.924h-0.2c-3.82057,6.79207 -11.01414,10.98842 -18.807,10.971c-7.79732,0.01043 -14.99109,-4.19521 -18.807,-10.995c-0.152,0.015 -0.299,0.023 -0.455,0.023c-2.268,0 -4.11,-1.754 -4.11,-3.924c0,-1.464 0.838,-2.734 2.079,-3.408c-0.145,-1.003 -0.221,-2.032 -0.221,-3.072c0,-11.803 9.636,-21.368 21.514,-21.368c11.891,0 21.525,9.565 21.525,21.368c0,1.098 -0.09,2.169 -0.245,3.216" data-paper-data="{&quot;origPos&quot;:null}" fill="#be9269"/><path d="M279.195,147.762c0.036,2.507 -0.85,7.938 -2.577,11.178c0,0 -4.233,-11.898 -7.713,-13.782c-4.265,-2.301 -15.5,1.02 -19.307,-1.966c-0.629,-0.495 -0.562,-1.62 -0.562,-1.62c0,0 -0.73,1.429 -1.07,1.834c-1.853,2.084 -6.63,5.107 -8.913,6.72c-1.821,1.307 -1.905,1.292 -1.501,8.814c0,0 -3.358,-6.846 -3.168,-11.412c0.051,-1.318 0.694,-4.242 1.744,-7.21c3.93199,-7.82118 11.94609,-12.74888 20.7,-12.728c10.412,0 19.212,6.838 22.107,16.243c0.14963,1.30507 0.23639,2.61659 0.26,3.93" fill="#333433"/><path d="M255.143,174.371c-1.004,0 -1.816,-2.147 -1.816,-3.124h7.15c0,0.977 -0.805,3.123 -1.819,3.123h-3.515" data-paper-data="{&quot;origPos&quot;:null}" fill="#be9269"/><path d="M254.095,173.71c-0.405,-0.612 -0.69,-1.461 -0.757,-2.075c2.36229,0.38588 4.77213,0.37845 7.132,-0.022l-0.017,0.013l-6.358,2.084" fill="#eeac6c"/><path d="M261.033,172.016c0,0 1.216,1.078 1.333,1.39c0.115,0.308 -3.928,6.067 -3.713,5.221c0.203,-0.838 -1.783,-1.662 -1.783,-1.662z" fill="#ad6921"/><path d="M256.916,176.954c0.282,0.121 1.96,0.88 1.759,1.687v0.038c0.181,-0.06 1.308,-1.54 2.408,-3.156c0.901,-1.34 1.284,-2.026 1.255,-2.103c-0.11,-0.285 -1.138,-1.21 -1.307,-1.367l-4.115,4.9zM258.625,178.724c-0.017,-0.017 -0.017,-0.051 0,-0.104c0.191,-0.806 -1.754,-1.617 -1.768,-1.628l-0.042,-0.012l4.209,-5.01l0.023,0.017c0.048,0.046 1.224,1.092 1.34,1.402c0.08,0.21 -1.164,2.035 -1.547,2.594c-0.076,0.112 -1.917,2.758 -2.183,2.758c-0.01258,-0.00093 -0.02419,-0.0071 -0.032,-0.017z" fill="#7f4a1a"/><path d="M256.935,176.965c0,0 -1.99,0.824 -1.781,1.662c0.214,0.846 -3.834,-4.913 -3.71,-5.221c0.117,-0.312 1.334,-1.39 1.334,-1.39z" fill="#ad6921"/><path d="M256.888,176.953c-0.285,0.124 -1.957,0.88 -1.764,1.688c0.004,0.02 0.004,0.032 0.004,0.038c-0.182,-0.059 -1.303,-1.539 -2.402,-3.154c-0.904,-1.342 -1.281,-2.022 -1.26,-2.106c0.112,-0.285 1.138,-1.21 1.312,-1.366zM255.143,178.744c0.01615,-0.00063 0.03133,-0.00786 0.042,-0.02c0.01,-0.017 0.01,-0.051 0,-0.104c-0.197,-0.806 1.743,-1.617 1.764,-1.629l0.038,-0.011l-4.201,-5.01l-0.033,0.017c-0.042,0.045 -1.222,1.092 -1.337,1.402c-0.082,0.209 1.167,2.046 1.556,2.603c0.084,0.112 1.913,2.752 2.171,2.752zM234.937,144.498c0,0 7.771,-6.9 21.747,-6.9c11.511,0 22.173,6.9 22.173,6.9c-4.255,10.305 -39.996,10.182 -43.92,0" fill="#7f4a1a"/><path d="M234.885,144.516c-2.24,-2.228 5.249,-20.712 22.208,-20.712c16.437,0 24.2,18.303 21.763,20.712c-22.826,-5.878 -43.971,0 -43.971,0" fill="#ad6921"/><path d="M250,156c0,1.657 -0.895,3 -2,3c-1.105,0 -2,-1.343 -2,-3c0,-1.657 0.895,-3 2,-3c1.105,0 2,1.343 2,3M268,156c0,1.657 -0.895,3 -2,3c-1.105,0 -2,-1.343 -2,-3c0,-1.657 0.895,-3 2,-3c1.105,0 2,1.343 2,3" fill="#333433"/><path d="M257.02,159.069c-1.125,0.153 -3.02,1.834 -3.02,1.834c0,0 0.207,-1.009 0.503,-1.299c0.8,-1.156 2.487,-1.604 2.487,-1.604c0,0 2.173,0.703 2.65,1.588c0.443,0.824 0.34,1.238 0.34,1.238c0,0 -2.121,-1.871 -2.96,-1.756z" fill="#eeac6c"/><path d="M250.2,162.696c0,0 6.897,3.208 13.172,-0.397c0,0 -1.39,5.47 -5.95,5.561c-4.115,0.122 -4.984,-1.492 -5.477,-1.956c-0.492,-0.463 -1.42,-1.772 -1.745,-3.208" data-paper-data="{&quot;origPos&quot;:null}" fill="#944848"/></g></g></svg>