<svg xmlns="http://www.w3.org/2000/svg" width="120" height="120"><g fill="none" fill-rule="evenodd"><path fill="#282826" d="m3.263 94.192-2.248 4.573 4.994 2.455 4.995 2.455 2.248-4.572a34.324 34.324 0 0 1 8.467-10.92l3.482-2.985-18.226-8.96-.237 4.58a34.323 34.323 0 0 1-3.475 13.374"/><path fill="#4E92C2" d="m3.2 99.84-3.157 6.422 6.794.37 1.982-4.031L3.2 99.839m27.094-15.735 26.255-60.039a3.653 3.653 0 0 0-1.736-4.741l-13.765-6.767a3.653 3.653 0 0 0-4.814 1.522L4.73 71.538l25.564 12.566"/><path fill="#1B1A19" d="m29.526 85.858.768-1.754L4.73 71.538l-.92 1.679a1.259 1.259 0 0 0 .548 1.735l23.46 11.532a1.259 1.259 0 0 0 1.708-.626"/><path fill="#282826" d="m66.082 94.192-2.248 4.573 4.994 2.455 4.995 2.455 2.248-4.572a34.324 34.324 0 0 1 8.467-10.92l3.482-2.985-18.226-8.96-.237 4.58a34.33 34.33 0 0 1-3.475 13.374"/><path fill="#DB2C6F" d="m66.02 99.84-3.158 6.422 6.794.37 1.982-4.031-5.619-2.762m27.093-15.735 26.255-60.039a3.653 3.653 0 0 0-1.735-4.741l-13.765-6.767a3.653 3.653 0 0 0-4.814 1.522L67.55 71.538l25.563 12.566"/><path fill="#1B1A19" d="m92.345 85.858.767-1.754L67.55 71.538l-.92 1.679a1.259 1.259 0 0 0 .548 1.735l23.46 11.532a1.259 1.259 0 0 0 1.708-.626"/></g></svg>