<svg version="1.1" xmlns="http://www.w3.org/2000/svg" xmlns:xlink="http://www.w3.org/1999/xlink" width="76.95048" height="117.50167" viewBox="0,0,76.95048,117.50167"><g transform="translate(-201.96982,-122.33658)"><g data-paper-data="{&quot;isPaintingLayer&quot;:true}" fill-rule="evenodd" stroke-linecap="butt" stroke-linejoin="miter" stroke-miterlimit="10" stroke-dasharray="" stroke-dashoffset="0" style="mix-blend-mode: normal"><path d="M233.279,234.29601c0,0 2.857,0.996 4.567,1.28c1.666,0.262 1.434,-0.787 0.892,-1.247c0.408,0.296 3.916,2.898 3.453,4.429c-0.496,1.617 -4.697,1.125 -5.846,0.414c-1.135,-0.698 -1.357,-1.126 -1.357,-1.126l-0.496,1.062c0,0 -0.639,0.284 -1.5,-0.077c0,0 -1.068,-3.816 0.287,-4.735M244.078,233.57501c0,0 2.845,0.984 4.568,1.268c1.664,0.273 1.432,-0.776 0.891,-1.237c0.409,0.296 3.915,2.899 3.453,4.419c-0.497,1.629 -4.708,1.136 -5.846,0.426c-1.147,-0.71 -1.357,-1.127 -1.357,-1.127l-0.496,1.062c0,0 -0.64,0.273 -1.501,-0.077c0,0 -1.068,-3.816 0.288,-4.734" fill="#00807a" stroke="none" stroke-width="1"/><path d="M251.413,186.64401c0.266,0.195 0.529,0.393 0.806,0.59l-0.022,0.02c0,0 -0.994,2.702 -2.207,1.914c-1.17,-0.765 0.209,-2.088 1.423,-2.525M254.655,189.18101c0.24257,0.18425 0.47522,0.38119 0.697,0.59c-0.078,0.49 -0.475,2.34 -1.534,1.89c-1.071,-0.448 -0.32,-1.836 0.837,-2.481M252.064,185.64901c0.552,-1.532 1.59,-1.882 2.24,-1.05c0.616,0.763 -1.204,1.606 -1.391,1.693c-0.288,-0.218 -0.572,-0.425 -0.872,-0.621l0.023,-0.023M255.438,188.33701c0.034,-0.174 0.42,-2.273 1.8,-1.421c1.445,0.886 -1.005,2.088 -1.005,2.088l-0.024,0.022c-0.24,-0.229 -0.494,-0.459 -0.77,-0.689" fill="#fefefe" stroke="none" stroke-width="1"/><path d="M251.413,186.64301c-1.157,-0.821 -2.316,-1.552 -3.343,-2.034c0.64,-0.022 1.324,-0.077 2.042,-0.142c0.66342,0.36784 1.30759,0.76936 1.93,1.203c0.29756,0.19737 0.58807,0.40517 0.871,0.623c0.8728,0.64237 1.71568,1.32442 2.526,2.044c0.2649,0.22139 0.52238,0.45152 0.772,0.69c1.708,1.563 2.835,2.81 2.835,2.81l0.077,0.066c-0.197,0.24 -0.387,0.492 -0.551,0.732c-0.365,-0.338 -1.61,-1.509 -3.22,-2.864c-0.221,-0.209 -0.454,-0.405 -0.697,-0.59c-0.79594,-0.66884 -1.60819,-1.31803 -2.436,-1.947c-0.276,-0.197 -0.539,-0.395 -0.806,-0.591" fill="#fefefe" stroke="none" stroke-width="1"/><path d="M270.859,159.77601c-1.465,-3.488 -3.982,-5.653 -4.645,-7.03c-0.914,-1.915 -0.274,-6.015 -0.274,-6.015c0,0 -25.182,8.289 -34.833,-2.733c0,0 -2.018,10.388 -9.65,15.122c0,0 -0.916,-2.459 -4.778,-2.273c-3.817,0.185 -6.375,8.014 -2.084,11.36c-0.861,0.612 -1.413,1.608 -1.413,2.722c0,1.837 1.5,3.325 3.354,3.325c0.507,0 0.992,-0.11 1.422,-0.317c-0.186,3.664 1.566,8.507 5.88,11.154c-1.798,0.787 -3.332,0.852 -4.588,0.545c-3,-0.71 -4.5,-3.454 -4.5,-3.454c0,0 -3.86,1.094 -5.98,-1.28c-4.599,-3.368 -2.119,-9.109 -2.119,-9.109c0,0 -2.932,0.176 -4.41,-5.837c-1.467,-6.016 3.496,-10.75 3.496,-10.75c0,0 -3.772,-7.294 1.654,-15.494c5.427,-8.202 15.531,-8.376 15.531,-8.376c0,0 8.549,-11.307 25.006,-8.573c16.456,2.734 18.112,17.134 18.112,17.134c9.276,1.455 6.616,10.475 6.616,10.475c0,0.1 5.329,0.92 6.156,6.66c0.828,5.74 -3.398,8.835 -3.398,8.835c0,0 0.729,6.375 -5.89,8.2c1.964,-2.437 2.56,-5.641 2.395,-9.567c-0.06641,-1.62172 -0.42552,-3.21807 -1.06,-4.712v-0.012" fill="#a38b77" stroke="none" stroke-width="1"/><path d="M214.595,168.20701c0.54,-0.383 1.213,-0.611 1.94,-0.611c1.854,0 3.354,1.497 3.354,3.333c0.00279,1.29456 -0.75206,2.47102 -1.93,3.008c-0.43,0.208 -0.916,0.317 -1.424,0.317c-1.853,0 -3.352,-1.488 -3.352,-3.325c0.0009,-1.08275 0.52737,-2.09767 1.412,-2.722" fill="#6cbc88" stroke="none" stroke-width="1"/><path d="M240.284,184.58701c-1.489,1.027 -5.46,3.15 -11.571,2.242c-1.887,-0.284 -3.506,-0.897 -4.864,-1.738h-0.01c-4.315,-2.647 -6.067,-7.491 -5.88,-11.154c1.17761,-0.53683 1.93239,-1.71281 1.93,-3.007c14.339,-4.09 19.248,7.02 20.616,11.437c0.318,1.061 0.44,1.728 0.44,1.728c0,0 -0.22,0.196 -0.661,0.492" data-paper-data="{&quot;origPos&quot;:null}" fill="#be9269" stroke="#be9269" stroke-width="0.5"/><path d="M219.25,185.63601c1.256,0.307 2.789,0.24 4.589,-0.545h0.01c1.358,0.841 2.977,1.454 4.865,1.738c6.11,0.908 10.08,-1.215 11.57,-2.242c-0.122,0.524 -1.07,5.107 0.66,8.803c1.833,3.914 7.447,6.648 7.447,6.648c0.088,3.28 -2.206,5.926 -2.206,5.926c0,0 -19.127,3.457 -25.195,-11.393c0,0 -1.806,-4.769 -1.74,-8.935" fill="#00807a" stroke="none" stroke-width="1"/><path d="M242.412,221.53501c-3.21,0.197 -6.451,0.197 -9.376,-0.174l-3.308,-6.65l-1.84,7.01c0,0 -0.509,0.077 -1.26,0.143c-1.498,0.12 -3.981,0.164 -5.448,-0.69c0,0 -7.909,-11.842 -0.19,-26.603c6.068,14.849 25.195,11.393 25.195,11.393c2.295,3.368 5.239,3.368 6.893,2.187c0.155,-0.109 0.277,-0.23 0.365,-0.371c6.893,0.371 5.791,-5.829 5.791,-5.829c1.909,-0.612 3.496,-1.289 4.82,-2.011c0.231,0.808 1.036,4.385 -1.148,7.118c0,0 1.292,6.288 -2.206,11.568c0,0 -2.889,0.744 -7.092,1.499c-3.199,0.568 -7.168,1.148 -11.196,1.41" fill="#00807a" stroke="none" stroke-width="1"/><path d="M229.728,214.71201l3.308,6.648c2.925,0.372 6.167,0.372 9.375,0.176c-0.031,0.567 -0.23,3.783 -1.608,7.237c-0.4487,1.14014 -1.01086,2.2323 -1.678,3.26c-0.716,0.853 -0.991,1.838 -0.43,2.263c0,0 0.01,0.01 0.044,0.033c0.54,0.46 0.772,1.508 -0.893,1.247c-1.708,-0.284 -4.568,-1.28 -4.568,-1.28c0,0 -6,-7.85 -6.649,-12.433c0.751,-0.064 1.258,-0.141 1.258,-0.141z" data-paper-data="{&quot;origPos&quot;:null}" fill="#be9269" stroke="none" stroke-width="1"/><path d="M236.523,152.58101c0,0 1.62,-1.323 3.53,-0.656c1.896,0.656 1.852,1.411 1.653,1.816c-0.21,0.415 -1.39,0.077 -2.052,-0.449c-0.662,-0.525 -1.599,-1.005 -3.132,-0.711" fill="#a38b77" stroke="none" stroke-width="1"/><path d="M240.625,156.13501c0.59458,-0.11705 1.17185,0.26883 1.291,0.863c0.111,0.602 -0.287,1.17 -0.883,1.28c-0.595,0.11 -1.179,-0.274 -1.29,-0.875c-0.109,-0.59 0.286,-1.158 0.882,-1.268" fill="#fefefe" stroke="none" stroke-width="1"/><path d="M240.285,184.58701c0.44,-0.296 0.66,-0.492 0.66,-0.492c0,0 2.748,0.7 7.124,0.515c1.027,0.481 2.187,1.213 3.344,2.033c-1.214,0.437 -2.593,1.761 -1.423,2.525c1.213,0.788 2.208,-1.914 2.208,-1.914l0.02,-0.02c0.82839,0.62864 1.64098,1.27784 2.437,1.947c-1.158,0.644 -1.908,2.032 -0.838,2.48c1.059,0.45 1.458,-1.399 1.534,-1.89c1.612,1.355 2.856,2.526 3.222,2.865c-2.293,3.083 -3.563,6.221 -3.563,6.221c0,0 -1.38,-0.186 -1.844,0.908l-4.775,0.273c0,0 -5.615,-2.734 -7.446,-6.648c-1.731,-3.696 -0.783,-8.278 -0.661,-8.803" fill="#00807a" stroke="none" stroke-width="1"/><path d="M237.252,158.15801c0.01,0.132 0.01,0.263 0.03,0.393c0.29888,1.54266 1.79107,2.55148 3.334,2.254c0.32,-0.055 0.595,-0.176 0.858,-0.317c-1.202,1.574 -3.67,2.012 -3.67,2.012c3.55,0.447 4.676,-2.735 4.676,-2.735l0.075,-0.338c0.32,-0.569 0.464,-1.236 0.332,-1.914c-0.286,-1.53 -1.777,-2.547 -3.33,-2.252c-0.75668,0.13745 -1.42351,0.58007 -1.844,1.224l-1.444,-0.099l1.124,0.788c-0.04216,0.11004 -0.07495,0.22344 -0.098,0.339l-1.711,0.437zM244.155,174.97501c0.862,-3.214 2.605,-5.357 3.397,-6.385c0.179,-0.242 0.31,-0.415 0.376,-0.536c0.32,-0.634 -0.32,-0.634 -0.828,0c-2.482,2.963 -3.86,6.474 -3.905,9.109c-0.044,2.482 -1.058,4.68 -1.19,4.953c1.741,-1.837 1.92,-6.266 2.15,-7.141zM250.321,171.65201c0.596,0.732 1.699,2.143 3.805,2.285c2.118,0.131 2.946,-1.323 3.221,-1.914c0.232,-0.514 0.42,-0.961 0.784,-1.148c0.254,-0.12 0.674,-0.175 0.64,-0.711v-0.01c0,0 -0.089,-0.46 -0.64,-0.46c-0.552,0 -0.74,-0.132 -1.104,-0.546c-0.364,-0.406 -0.97,-0.361 -1.334,0.141c-0.364,0.493 -0.828,0.679 -1.468,0.175c-0.65,-0.502 -1.201,-0.677 -1.93,-0.175c-0.737,0.493 -1.378,0.864 -1.93,0.766c-0.342,-0.054 -0.75,-0.164 -1.047,-0.164c-0.188,0 -0.32,0.044 -0.376,0.164c-0.142,0.328 0.784,0.874 1.38,1.597zM262.389,172.87701c-0.652,-5.239 -3.475,-6.147 -3.475,-6.147c-1.38,-0.404 0.23,0.69 0.23,0.69c0.818,0.481 1.546,1.597 2.097,2.69c0.64,1.269 1.059,2.514 1.148,2.767zM264.505,159.53501c-0.22,0 -2.568,-0.033 -3.971,-1.3c0.288,0.1 0.585,0.163 0.906,0.163c0.7531,0.00266 1.47631,-0.29444 2.01005,-0.82575c0.53374,-0.5313 0.83415,-1.25315 0.83495,-2.00625c0,-0.13 -0.023,-0.262 -0.043,-0.404l1.609,-0.504l-1.764,-0.107c-0.04528,-0.10867 -0.09704,-0.21453 -0.155,-0.317l0.95,-0.985l-1.402,0.36c-0.53654,-0.54991 -1.27171,-0.86091 -2.04,-0.863c-1.578,0 -2.846,1.268 -2.846,2.82c0,0.7 0.264,1.334 0.683,1.827l0.143,0.317c0,0 1.699,2.91 5.085,1.825zM260.336,149.55301c-1.742,1.005 -1.564,1.738 -1.29,2.099c0.276,0.361 1.38,-0.186 1.93,-0.82c0.553,-0.634 1.38,-1.28 2.946,-1.28c0,0 -1.843,-0.995 -3.586,0zM254.956,163c-2.572,0 -4.039,2.822 -3.588,2.68c0.355,-0.098 0.708,-0.59 0.961,-0.819c0.43,-0.394 0.872,-0.777 1.434,-0.964c0.749,-0.24 1.721,-0.273 2.394,0.22c0.363,0.274 0.496,0.646 0.694,1.038c0.166,0.34 0.375,0.754 0.496,0.12c0,0 0.187,-2.275 -2.392,-2.275zM240.051,151.92501c-1.908,-0.667 -3.53,0.655 -3.53,0.655c1.534,-0.294 2.47,0.186 3.133,0.712c0.66,0.525 1.841,0.865 2.051,0.448c0.198,-0.404 0.244,-1.16 -1.654,-1.815zM216.68,156.84601c3.862,-0.186 4.778,2.275 4.778,2.275c7.632,-4.736 9.65,-15.123 9.65,-15.123c9.651,11.022 34.833,2.734 34.833,2.734c0,0 -0.64,4.1 0.274,6.014c0.663,1.377 3.18,3.543 4.645,7.03v0.012c-0.54,0.153 -5.957,2.022 -6.707,13.274c-0.087,1.4 -0.11,2.941 -0.044,4.648c0,0 -0.705,0.667 -1.885,1.574c-1.202,0.92 -2.901,2.099 -4.865,3.094c-1.731,0.876 -3.673,1.608 -5.658,1.891c-0.54,0.079 -1.07,0.143 -1.588,0.197c-0.719,0.066 -1.403,0.12 -2.042,0.143c-4.377,0.186 -7.126,-0.514 -7.126,-0.514c0,0 -0.12,-0.667 -0.44,-1.728c-1.368,-4.417 -6.276,-15.527 -20.615,-11.438c0,-1.837 -1.501,-3.333 -3.354,-3.333c-0.728,0 -1.4,0.228 -1.94,0.61c-4.292,-3.344 -1.734,-11.174 2.083,-11.36zM240.803,228.77401l0.01,0.01c1.01323,1.64659 2.10275,3.24499 3.265,4.79c0,0 2.846,0.984 4.568,1.269c1.664,0.274 1.432,-0.776 0.89,-1.236c-0.032,-0.022 -0.043,-0.033 -0.043,-0.033c-0.57,-0.427 -0.285,-1.41 0.43,-2.263c2.88,-4.406 3.598,-10.257 3.686,-11.187c-3.2,0.569 -7.169,1.149 -11.197,1.411c-0.16191,2.48156 -0.70459,4.92345 -1.609,7.24" data-paper-data="{&quot;origPos&quot;:null}" fill="#be9269" stroke="none" stroke-width="1"/><path d="M243.195,177.16301c0.045,-2.635 1.423,-6.146 3.905,-9.109c0.508,-0.634 1.148,-0.634 0.828,0c-0.066,0.121 -0.197,0.294 -0.376,0.536c-0.792,1.028 -2.535,3.171 -3.397,6.386c-0.23,0.874 -0.409,5.303 -2.15,7.139c0.132,-0.272 1.146,-2.47 1.19,-4.952" data-paper-data="{&quot;origPos&quot;:null}" fill="#d8a677" stroke="none" stroke-width="1"/><path d="M253.167,199.76501c0,0 1.842,-0.087 1.842,1.18c0,1.279 -2.206,1.192 -2.118,2.187c0.078,0.919 1.533,3.325 0.552,4.647c-0.088,0.142 -0.21,0.263 -0.364,0.372c-1.654,1.181 -4.6,1.181 -6.894,-2.187c0,0 2.294,-2.646 2.206,-5.926z" data-paper-data="{&quot;origPos&quot;:null}" fill="#be9269" stroke="none" stroke-width="1"/><path d="M248.942,170.05501c0,0 1.148,0.645 2.063,0.874c0.928,0.22 2.945,0.908 4.048,0.723c1.104,-0.176 1.831,-0.909 2.338,-1.05c1.06,-0.132 1.38,-0.438 1.38,-0.438c0.033,0.536 -0.386,0.591 -0.641,0.711c-0.362,0.187 -0.552,0.634 -0.782,1.148c-0.276,0.591 -1.105,2.045 -3.222,1.914c-2.107,-0.142 -3.209,-1.553 -3.805,-2.285c-0.595,-0.723 -1.52,-1.269 -1.379,-1.597" fill="#e50113" stroke="none" stroke-width="1"/><path d="M249.318,169.89101c0.297,0 0.706,0.11 1.047,0.164c0.552,0.099 1.193,-0.273 1.929,-0.765c0.729,-0.503 1.281,-0.328 1.932,0.174c0.64,0.504 1.102,0.318 1.467,-0.174c0.364,-0.503 0.971,-0.547 1.334,-0.142c0.364,0.414 0.552,0.547 1.104,0.547c0.552,0 0.64,0.459 0.64,0.459v0.01c0,0 -0.32,0.307 -1.38,0.437c-0.507,0.142 -1.234,0.875 -2.338,1.051c-1.103,0.185 -3.12,-0.503 -4.048,-0.723c-0.915,-0.228 -2.063,-0.874 -2.063,-0.874c0.055,-0.12 0.189,-0.165 0.376,-0.165" fill="#e50113" stroke="none" stroke-width="1"/><path d="M251.7,184.27001c1.986,-0.284 3.927,-1.016 5.658,-1.892c4.171,1.663 4.358,6.813 4.358,6.813c-0.961,0.808 -1.821,1.738 -2.593,2.711l-0.076,-0.065c-0.90495,-0.97722 -1.85149,-1.91508 -2.837,-2.811l0.023,-0.02c0,0 2.449,-1.204 1.006,-2.09c-1.38,-0.853 -1.766,1.247 -1.8,1.421c-0.8106,-0.71924 -1.65347,-1.40128 -2.526,-2.044c0.188,-0.088 2.007,-0.929 1.391,-1.695c-0.651,-0.83 -1.688,-0.481 -2.24,1.05l-0.022,0.023c-0.629,-0.439 -1.278,-0.844 -1.93,-1.204c0.518,-0.055 1.048,-0.119 1.588,-0.197" fill="#00807a" stroke="none" stroke-width="1"/><path d="M254.955,163.00201c2.579,0 2.393,2.275 2.393,2.275c-0.123,0.634 -0.332,0.219 -0.497,-0.121c-0.199,-0.393 -0.33,-0.764 -0.695,-1.039c-0.673,-0.491 -1.644,-0.458 -2.394,-0.218c-0.562,0.186 -1.003,0.568 -1.433,0.963c-0.254,0.228 -0.606,0.72 -0.96,0.82c-0.452,0.14 1.014,-2.68 3.586,-2.68" fill="#f9cda5" stroke="none" stroke-width="1"/><path d="M255.009,200.94401c0,-1.266 -1.842,-1.18 -1.842,-1.18c0.462,-1.093 1.842,-0.907 1.842,-0.907c2.294,0.821 4.225,3.095 4.225,3.095c0,0 1.103,6.199 -5.79,5.828c0.981,-1.323 -0.476,-3.729 -0.552,-4.647c-0.088,-0.996 2.118,-0.908 2.118,-2.188" data-paper-data="{&quot;origPos&quot;:null}" fill="#be9269" stroke="none" stroke-width="1"/><path d="M258.572,192.63601c0.17291,-0.25281 0.35709,-0.49773 0.552,-0.734c0.771,-0.972 1.632,-1.902 2.593,-2.712c0,0 -0.188,-5.149 -4.358,-6.812c1.964,-0.994 3.662,-2.176 4.864,-3.094c0.618,0.306 8.217,4.232 7.951,12.192c-0.142,2.778 -1.409,5.883 -6.119,8.465c-1.324,0.72 -2.912,1.398 -4.82,2.01c0,0 -1.932,-2.273 -4.226,-3.095c0,0 1.269,-3.138 3.563,-6.22" fill="#00807a" stroke="none" stroke-width="1"/><path d="M258.914,166.73001c0,0 2.823,0.909 3.475,6.147c-0.089,-0.253 -0.508,-1.498 -1.148,-2.768c-0.551,-1.092 -1.279,-2.208 -2.097,-2.69c0,0 -1.61,-1.093 -0.23,-0.689" data-paper-data="{&quot;origPos&quot;:null}" fill="#d8a677" stroke="none" stroke-width="1"/><path d="M260.337,149.55201c1.743,-0.995 3.584,0 3.584,0c-1.565,0 -2.392,0.646 -2.945,1.28c-0.552,0.634 -1.654,1.181 -1.93,0.82c-0.275,-0.361 -0.451,-1.094 1.291,-2.099" fill="#a38b77" stroke="none" stroke-width="1"/><path d="M261.119,155.07501c0.00052,0.29172 0.11733,0.5712 0.32454,0.77654c0.20722,0.20534 0.48774,0.31959 0.77946,0.31746c0.606,0 1.102,-0.494 1.102,-1.094c0,-0.613 -0.496,-1.094 -1.102,-1.094c-0.617,0 -1.103,0.481 -1.103,1.094M258.595,155.56701c0.00318,-0.75163 0.30481,-1.4712 0.83854,-2.00043c0.53373,-0.52923 1.25584,-0.82476 2.00746,-0.82157c0.76846,0.00224 1.50369,0.31363 2.04,0.864l1.4,-0.36l-0.948,0.984c0.054,0.099 0.11,0.207 0.154,0.317l1.764,0.109l-1.61,0.503c0.022,0.143 0.043,0.273 0.043,0.405c-0.00106,0.75285 -0.30142,1.47438 -0.83489,2.0056c-0.53347,0.53122 -1.25627,0.82852 -2.00911,0.8264c-0.321,0 -0.618,-0.065 -0.905,-0.165c1.402,1.269 3.75,1.302 3.97,1.302c-3.386,1.083 -5.084,-1.826 -5.084,-1.826l-0.143,-0.317c-0.419,-0.493 -0.683,-1.127 -0.683,-1.826" fill="#3f3a3a" stroke="none" stroke-width="1"/><path d="M262.223,153.98101c0.606,0 1.102,0.481 1.102,1.094c-0.00385,0.60556 -0.49643,1.09411 -1.102,1.093c-0.617,0 -1.104,-0.492 -1.104,-1.093c0,-0.613 0.487,-1.094 1.104,-1.094" fill="#fefefe" stroke="none" stroke-width="1"/><path d="M264.153,173.06201c0.749,-11.252 6.166,-13.121 6.706,-13.274c0.63399,1.49444 0.99308,3.09102 1.06,4.713c0.166,3.924 -0.431,7.127 -2.394,9.567c-1.226,1.519 -2.979,2.733 -5.417,3.641c-0.065,-1.707 -0.043,-3.247 0.045,-4.647" data-paper-data="{&quot;origPos&quot;:null}" fill="#be9269" stroke="#be9269" stroke-width="0.5"/><path d="M248.942,170.05501c0,0 1.148,0.645 2.063,0.874c0.928,0.22 2.945,0.908 4.048,0.723c1.104,-0.176 1.831,-0.909 2.338,-1.05c0.286,-0.036 0.514,-0.084 0.701,-0.135c-0.69,0.74 -1.698,1.61 -2.719,1.689c-1.791,0.136 -3.447,0.272 -2.621,0.682c0.703,0.348 2.898,0.98 5.062,-1.68c-0.177,0.227 -0.316,0.528 -0.466,0.865c-0.276,0.591 -1.105,2.045 -3.222,1.914c-2.107,-0.142 -3.209,-1.553 -3.805,-2.285c-0.595,-0.723 -1.52,-1.269 -1.379,-1.597" fill="#be000a" stroke="none" stroke-width="1"/><path d="M256.199,169.64901c0.00053,-0.08487 0.03475,-0.16605 0.09514,-0.22569c0.06039,-0.05964 0.14199,-0.09284 0.22686,-0.09231c0.08504,-0.0008 0.1669,0.03229 0.22751,0.09195c0.0606,0.05967 0.09496,0.141 0.09549,0.22605c0,0.08539 -0.03412,0.16724 -0.09478,0.22734c-0.06066,0.0601 -0.14283,0.09346 -0.22822,0.09266c-0.08487,0.00027 -0.16637,-0.03319 -0.22657,-0.09302c-0.0602,-0.05982 -0.09417,-0.14111 -0.09443,-0.22598" fill="#fefefe" stroke="none" stroke-width="1"/><path d="M205.737,155.20601c0,0 -3.772,-7.293 1.655,-15.495c2.75,-4.156 6.7,-6.246 9.928,-7.302c-9.034,3.8 -11.992,16.724 -2.208,20.429c10.112,3.827 15.994,-9.477 15.994,-9.477c25.727,4.506 33.124,0.46 34.945,-3.462c9.262,1.46 6.606,10.474 6.606,10.474c0,0.097 5.328,0.918 6.156,6.66c0.827,5.74 -3.398,8.834 -3.398,8.834c0,0 0.728,6.375 -5.89,8.2c1.964,-2.439 2.559,-5.642 2.393,-9.567c-0.0657,-1.62214 -0.42483,-3.21894 -1.06,-4.713v-0.01c-1.465,-3.488 -3.982,-5.654 -4.643,-7.032c-0.916,-1.913 -0.275,-6.014 -0.275,-6.014c0,0 -25.182,8.29 -34.834,-2.733c0,0 -2.017,10.388 -9.65,15.123c0,0 -0.916,-2.461 -4.777,-2.275c-3.816,0.187 -6.376,8.016 -2.084,11.36c-0.8852,0.62473 -1.41175,1.64055 -1.412,2.724c0,1.836 1.5,3.324 3.354,3.324c0.505,0 0.992,-0.11 1.422,-0.317c-0.188,3.664 1.564,8.506 5.879,11.154c-1.798,0.786 -3.331,0.851 -4.589,0.546c-3,-0.711 -4.5,-3.456 -4.5,-3.456c0,0 -3.86,1.094 -5.979,-1.279c-4.6,-3.368 -2.117,-9.108 -2.117,-9.108c0,0 -2.935,0.175 -4.412,-5.839c-1.467,-6.015 3.496,-10.749 3.496,-10.749" fill="#907a69" stroke="none" stroke-width="1"/><path d="M231.291,133.70101c14.945,1.632 23.257,-3.395 26.984,-6.68c4.616,3.496 6.535,8.096 7.295,10.747c-20.082,5.528 -34.28,-4.068 -34.28,-4.068" fill="#bfa288" stroke="none" stroke-width="1"/><path d="M240.284,184.58701c0.441,-0.296 0.661,-0.492 0.661,-0.492c0,0 2.707,0.688 7.025,0.517c-2.14,0.41 -5.1,1.52 -5.1,3.853c0,3.264 9.353,11.632 14.453,6c-1.501,2.382 -2.313,4.392 -2.313,4.392c0,0 -1.38,-0.186 -1.844,0.908l-4.775,0.273c0,0 -5.615,-2.734 -7.446,-6.648c-1.731,-3.696 -0.783,-8.278 -0.66,-8.803M258.313,184.36501c-0.652,-0.75 -1.348,-1.214 -2.046,-1.477c0.372,-0.164 0.738,-0.33 1.092,-0.51c4.169,1.663 4.358,6.812 4.358,6.812c-0.961,0.81 -1.823,1.74 -2.593,2.712l-0.078,-0.064l-0.004,-0.004c0.854,-1.873 1.487,-4.927 -0.729,-7.47M258.354,181.83501c1.34708,-0.75988 2.63985,-1.61226 3.869,-2.551c0.414,0.206 3.979,2.055 6.195,5.66c-3.598,-4.472 -7.666,-3.99 -10.064,-3.109" fill="#006763" stroke="none" stroke-width="1"/><path d="M270.152,190.57401c0.011,0.299 0.033,0.592 0.023,0.902c-0.143,2.778 -1.41,5.883 -6.12,8.465c-1.324,0.721 -2.912,1.398 -4.82,2.01c0,0 -1.932,-2.273 -4.226,-3.094c5.03,2.068 14.098,-2.494 15.143,-8.283M223.838,185.09001h0.011c1.357,0.842 2.978,1.455 4.864,1.739c4.491,0.667 7.822,-0.303 9.866,-1.271c-1.906,1.386 -4.859,2.807 -8.667,2.36c-6.987,-0.82 -7.078,2.37 -4.78,5.56c2.298,3.187 17.38,16.948 23.26,6.56c0.087,3.28 -2.207,5.926 -2.207,5.926c0,0 -19.127,3.456 -25.195,-11.393c0,0 -1.807,-4.769 -1.742,-8.935c1.258,0.307 2.79,0.242 4.589,-0.545" fill="#006763" stroke="none" stroke-width="1"/><path d="M261.348,203.22601c-0.964,0.15 -1.63,0.37 -2.12,0.594c0.149,-1.036 0.006,-1.868 0.006,-1.868c1.909,-0.613 3.497,-1.29 4.82,-2.012c0.198,0.696 0.817,3.44 -0.402,5.933c-0.15,-1.395 -0.68,-2.898 -2.304,-2.647M220.99,194.57001c6.069,14.85 25.194,11.394 25.194,11.394c2.295,3.37 5.24,3.37 6.895,2.187c0.154,-0.108 0.275,-0.23 0.364,-0.372c1.91,0.104 3.192,-0.307 4.067,-0.942c-0.474,1.272 -1.337,2.704 -2.873,2.95c-2.85,0.456 -4.229,2.46 -7.814,0.546c-3.583,-1.913 -11.949,-0.818 -17.188,-2.64c-5.238,-1.824 -7.718,-1.46 -8.364,2.824c-0.643,4.283 0.55,8.838 2.666,9.385c2.114,0.546 3.584,-0.547 5.514,-5.741c0,0 0.093,-1.822 3.401,3.92c1.19,2.188 26.158,5.689 30.22,-6.674c-0.17,2.148 -0.76,4.788 -2.372,7.22c0,0 -2.89,0.743 -7.091,1.497c-3.2,0.569 -7.169,1.148 -11.196,1.411c-3.21,0.197 -6.453,0.197 -9.377,-0.174l-3.308,-6.65l-1.841,7.011c0,0 -0.507,0.077 -1.258,0.142c-1.5,0.12 -3.982,0.164 -5.45,-0.689c0,0 -7.909,-11.842 -0.188,-26.604" fill="#006763" stroke="none" stroke-width="1"/><path d="M263.737,201.86001c-0.633,-0.907 -3.26,0.056 -4.457,0.558c-0.00758,-0.156 -0.02293,-0.31153 -0.046,-0.466c1.909,-0.613 3.497,-1.29 4.82,-2.012c0.134,0.466 0.441,1.849 0.274,3.457c-0.118,-0.601 -0.326,-1.156 -0.59,-1.536M220.99,194.57001c6.069,14.85 25.194,11.394 25.194,11.394c2.295,3.37 5.24,3.37 6.895,2.187c0.154,-0.108 0.275,-0.23 0.364,-0.372c1.91,0.104 3.192,-0.307 4.067,-0.942c-0.0925,0.24158 -0.19594,0.47882 -0.31,0.711c-0.713,0.54 -1.881,1.055 -3.758,1.055c0,0 -4.044,3.373 -8.089,-1.732c0,0 -13.274,4.467 -22.717,-7.488c-2.58,-1.89 -4.008,1.065 -4.008,1.065c0.346,-2.188 2.363,-5.877 2.363,-5.877" fill="#004f4f" stroke="none" stroke-width="1"/><path d="M253.705,207.21701c-0.003,0.018 -0.012,0.037 -0.016,0.054c0.004,-0.017 0.013,-0.036 0.016,-0.054M253.777,206.57101l-0.001,0.113v-0.113M248.391,200.03801c0.395,4.92 -1.635,7.243 2.156,7.381c1.841,0.066 2.581,-0.961 2.867,-2.037c-0.126,-0.444 -0.477,-1.588 -0.506,-2.166c-0.003,-0.026 -0.014,-0.06 -0.017,-0.083c-0.04,-0.438 0.37,-0.666 0.836,-0.893c-0.14624,0.09521 -0.27766,0.21146 -0.39,0.345c0.547,-0.373 1.407,-0.863 1.187,-1.454c-0.301,-0.797 -1.448,-0.456 -1.357,-1.367c0,0 0.04,-0.086 0.122,-0.203c0.097,-0.15 0.206,-0.28 0.334,-0.374c0.005,0.004 0.006,0.008 0.012,0.011c0.292,-0.23 0.73,-0.425 1.374,-0.342c0,0 -0.762,0.863 -0.187,1.136c0.574,0.274 1.242,1.368 0.184,2.142c-1.058,0.774 -1.735,1.974 -1.178,3.596c1.098,1.79 3.054,-0.985 3.408,-1.997c0.16,-0.457 0.823,-2.963 0.357,-3.34c0.58801,0.47472 1.13679,0.99608 1.641,1.559c0,0 1.102,6.2 -5.791,5.827c-0.088,0.143 -0.21,0.264 -0.364,0.373c-1.654,1.18 -4.6,1.18 -6.894,-2.188c0,0 2.294,-2.645 2.206,-5.927M227.887,221.72201l1.841,-7.01l3.308,6.648c2.804,0.358 5.902,0.365 8.982,0.194c-1.821,0.442 -4.313,0.957 -6.775,1.173c-4.688,0.41 -4.688,4.237 -2.207,8.611c2.482,4.374 5.24,3.417 5.102,2.46c0,0 0.106,-0.044 0.264,-0.116c0.011,0.252 0.1,0.468 0.293,0.614c0,0 0.01,0.01 0.044,0.033c0.54,0.46 0.772,1.508 -0.893,1.247c-1.709,-0.284 -4.568,-1.28 -4.568,-1.28c0,0 -6,-7.85 -6.649,-12.433c0.75,-0.064 1.258,-0.141 1.258,-0.141M242.412,221.53501c3.53,-0.23 7.018,-0.704 9.98,-1.2c-1.604,0.888 -3.706,1.982 -5.706,2.802c-3.998,1.64 -4.135,5.057 -2.619,7.928c1.516,2.87 5.841,3.718 5.47,2.542c0.542,0.46 0.772,1.509 -0.89,1.236c-1.723,-0.284 -4.568,-1.268 -4.568,-1.268c0,0 -1.622,-2.111 -3.266,-4.79l-0.01,-0.01c1.377,-3.456 1.577,-6.671 1.609,-7.24" data-paper-data="{&quot;origPos&quot;:null}" fill="#9b7755" stroke="none" stroke-width="1"/><path d="M244.078,233.57501c0,0 0.816,0.28 1.834,0.586c0.387,1.14 1.522,3.173 4.774,3.465c1.389,0.125 2.057,-0.043 2.249,-0.382c0.094,0.277 0.129,0.543 0.055,0.78c-0.497,1.63 -4.708,1.138 -5.846,0.427c-1.147,-0.71 -1.357,-1.127 -1.357,-1.127l-0.496,1.062c0,0 -0.64,0.273 -1.5,-0.077c0,0 -1.069,-3.816 0.287,-4.734M233.279,234.29601c0,0 0.967,0.336 2.11,0.674c0.68,1.097 2.534,3.663 4.817,3.34c1.063,-0.15 1.523,-0.566 1.542,-1.088c0.37,0.547 0.579,1.088 0.443,1.536c-0.496,1.617 -4.697,1.125 -5.846,0.414c-1.135,-0.698 -1.357,-1.126 -1.357,-1.126l-0.495,1.062c0,0 -0.64,0.284 -1.501,-0.077c0,0 -1.068,-3.816 0.287,-4.735" fill="#006763" stroke="none" stroke-width="1"/><path d="M252.27,186.09601c0,0 0.828,-1.914 1.38,-1.435c0.551,0.479 -1.38,1.435 -1.38,1.435M255.786,188.62501c0,0 0.828,-1.914 1.379,-1.436c0.553,0.48 -1.379,1.436 -1.379,1.436M255.028,189.51401c0,0 -0.413,1.709 -1.102,1.503c-0.69,-0.205 1.102,-1.503 1.102,-1.503M251.788,186.98501c0,0 -0.688,1.913 -1.241,1.502c-0.552,-0.409 0.206,-0.956 1.241,-1.502" fill="#707f62" stroke="none" stroke-width="1"/><path d="M214.595,168.20701c0.055,-0.038 0.117,-0.068 0.173,-0.104c-1.181,1.518 -0.91,4.243 1.723,4.462c2.699,0.222 3.105,-2.01 3.164,-2.84c0.145,0.376 0.234,0.778 0.234,1.204c0.00279,1.29456 -0.75206,2.47102 -1.93,3.008c-0.43,0.208 -0.916,0.317 -1.424,0.317c-1.853,0 -3.352,-1.488 -3.352,-3.325c0,-1.114 0.55,-2.11 1.412,-2.722" fill="#56996e" stroke="none" stroke-width="1"/><path d="M215.94,170.10401c0,-0.604 0.493,-1.093 1.102,-1.093c0.611,0 1.104,0.489 1.104,1.093c0,0.604 -0.494,1.094 -1.104,1.094c-0.609,0 -1.102,-0.489 -1.102,-1.094" fill="#fefefe" stroke="none" stroke-width="1"/><path d="M239.811,157.19301c0.06297,0.32822 0.25375,0.61797 0.53037,0.80551c0.27662,0.18754 0.61642,0.2575 0.94463,0.19449c0.32778,-0.05951 0.61828,-0.24729 0.80712,-0.52173c0.18884,-0.27444 0.26042,-0.61287 0.19888,-0.94027c-0.13578,-0.67817 -0.79427,-1.11895 -1.473,-0.986c-0.6782,0.12222 -1.12927,0.77063 -1.008,1.449zM237.016,157.32001c0.023,-0.127 0.063,-0.263 0.113,-0.387l-1.285,-0.9l1.65,0.111c0.48003,-0.735 1.24125,-1.24019 2.105,-1.397c1.774,-0.337 3.478,0.823 3.803,2.573c0.152,0.773 -0.013,1.535 -0.378,2.185l-0.087,0.387c0,0 -1.287,3.634 -5.342,3.122c0,0 2.822,-0.5 4.195,-2.297c-0.302,0.162 -0.618,0.299 -0.982,0.362c-1.76166,0.33958 -3.46526,-0.81256 -3.806,-2.574c-0.025,-0.149 -0.025,-0.298 -0.036,-0.448l-1.905,-0.239z" fill="#3f3a3a" stroke="none" stroke-width="1"/></g></g></svg>