<svg xmlns="http://www.w3.org/2000/svg" xmlns:xlink="http://www.w3.org/1999/xlink" width="100" height="100"><defs><path id="a" d="M.077.06h43.004V53.4H.077z"/><path id="c" d="M0 0h79.977v86.36H0z"/><path id="e" d="M0 0h79.978v86.36H0z"/></defs><g fill="none" fill-rule="evenodd"><g transform="translate(33.541 41.6)"><mask id="b" fill="#fff"><use xlink:href="#a"/></mask><path fill="#DCD7BE" d="M4.636 12.797 32.876.583c5.04-2.18 10.523 2.743 10.19 9.147l-1.864 35.885c-.353 6.807-6.934 10.142-11.654 5.906L3.173 27.849c-4.72-4.236-3.894-12.735 1.463-15.052" mask="url(#b)"/></g><g transform="translate(10 5)"><mask id="d" fill="#fff"><use xlink:href="#c"/></mask><path fill="#DCD7BE" d="m73.686 55.024-47.13 29.399c-8.41 5.246-19.45-.733-20.513-11.11L.08 15.158C-1.049 4.129 9.807-3.505 19.307 1.64l53.09 28.755c9.501 5.146 10.228 19.053 1.29 24.63" mask="url(#d)"/></g><g transform="translate(10 5)"><mask id="f" fill="#fff"><use xlink:href="#e"/></mask><path fill="#EDE7CC" d="M72.398 30.395 19.308 1.64C9.806-3.505-1.05 4.128.08 15.16l5.962 58.152C7.107 83.69 18.146 89.67 26.557 84.422l13.222-8.247-34.6-65.636C3.545 6.757 8.098 3.335 11.26 5.97l54.644 53.91 7.782-4.855c8.94-5.576 8.212-19.483-1.288-24.629" mask="url(#f)"/></g></g></svg>