<svg xmlns="http://www.w3.org/2000/svg" width="63.629" height="119.37"><g fill-rule="evenodd" stroke-miterlimit="10" data-paper-data="{&quot;isPaintingLayer&quot;:true}" style="mix-blend-mode:normal"><path fill="#9e6e41" d="M39.855 117.344a2.723 2.723 0 0 1-2.723-2.617L35.84 80.44a2.722 2.722 0 0 1 2.623-2.818c1.523-.076 2.77 1.114 2.826 2.614l1.29 34.286a2.722 2.722 0 0 1-2.621 2.82c-.034.002-.07.002-.104.002" data-paper-data="{&quot;origPos&quot;:null}"/><path fill="#9e6e41" d="M38.637 77.274a2.722 2.722 0 0 0-2.622 2.819l1.29 34.287a2.723 2.723 0 0 0 2.723 2.617 2.722 2.722 0 0 0 2.726-2.822l-.203-5.404c-1.088.663-2.38 1.197-3.5 1.205-2.279.017-1.15-2.996-1.117-4.347.083-3.42-.068-6.842-.348-10.246-.064-.783-.05-1.666.636-2.186.437-.332 1.05-.396 1.57-.514.73-.164 1.435-.33 2.131-.57l-.46-12.224c-.056-1.5-1.303-2.69-2.826-2.615m-17.872 41.072a2.72 2.72 0 0 1-2.724-2.863c.327-6.144.656-12.135.983-18.128.327-5.99.655-11.98.983-18.12a2.72 2.72 0 0 1 2.867-2.57 2.72 2.72 0 0 1 2.577 2.859c-.327 6.143-.655 12.135-.982 18.127-.328 5.99-.656 11.98-.984 18.12a2.723 2.723 0 0 1-2.72 2.575" data-paper-data="{&quot;origPos&quot;:null}"/><path fill="#9e6e41" d="M19.024 97.53c.328-5.99.655-11.98.983-18.122a2.72 2.72 0 0 1 2.867-2.57 2.721 2.721 0 0 1 2.577 2.86c-.24 4.528-.483 8.976-.725 13.4-.727.294-1.484.463-2.295.567-.49.063-1.013.064-1.473.27-.626.281-.898.787-1.033 1.44a17.315 17.315 0 0 0-.275 4.934c.148 1.798.065 4.788-.022 6.583-.08 1.64.29 2.676 2.534 2.423.574-.064 1.164-.274 1.712-.583-.13 2.388-.259 4.786-.389 7.213a2.722 2.722 0 0 1-2.867 2.57 2.721 2.721 0 0 1-2.577-2.86c.328-6.142.655-12.135.983-18.126" data-paper-data="{&quot;origPos&quot;:null}"/><path fill="#ffd" d="M53.594 68.913c-3.236 0-7.889-.468-10.232-2.898-2.779-2.883-3.973-6.6-4.849-10.188-.63-2.584-2.445-5.562-3.755-7.576l6.61-4.27c1.758 2.704 3.894 6.284 4.798 9.99.687 2.811 1.42 4.995 2.733 6.451.817.381 3.764.862 7.12.525l.791 7.814c-.52.052-1.716.152-3.216.152"/><path fill="#28355d" d="M.758 37.708a.554.554 0 0 1-.72-.717 16.64 16.64 0 0 1 6.041-7.539c3.052-2.08 7.48-2.846 11.167-2.58.93 5.634-1.02 11.665-5.075 15.697-.385.383-1.018.757-1.417.39-.253-.236-.23-.634-.19-.976l.464-3.83a13.116 13.116 0 0 1-6.443 4.702c-.438.145-.847-.284-.695-.718a23.482 23.482 0 0 1 3.49-6.503 44.884 44.884 0 0 0-6.622 2.074"/><path fill="#28355d" d="m10.588 41.793.09-.193c.506-1.042 1.224-1.952 1.825-2.93-.03 1.303-.123 2.66-.395 3.955-.388.362-.975.682-1.354.333-.253-.235-.23-.633-.19-.975l.023-.19m-6.718.616c1.027-.812 2.058-2.167 3.022-3.053 1.146-1.05 2.006-1.883 3.245-2.829-.407 1.69-3.25 5.042-3.478 5.425a13 13 0 0 1-2.073.902.552.552 0 0 1-.716-.445M.04 36.991l.02-.043c1.677-1.66 3.815-2.746 6.18-2.425-.224.734-.7 1.3-1.32 1.76a45.22 45.22 0 0 0-4.16 1.425.554.554 0 0 1-.72-.717m14.33-2.71c-.574-1.01-1.432-1.39-2.486-1.82-1.82-.749-3.406-1.66-4.102-3.614-.036-.1-.065-.206-.097-.31 2.882-1.384 6.48-1.888 9.562-1.666.565 3.426.06 6.996-1.332 10.176-.704-.742-1.1-1.986-1.546-2.767"/><path fill="#880e3d" d="M42.846 71.252s1.363 7.835 1.515 10.94c.15 3.106.454 8.241-.758 8.544-1.212.301-4.392.755-6.513.755-2.12 0-3.938.754-4.847 0-.908-.755-1.06-5.57-1.06-5.57h-1.817v.888c-.303 2.718.128 3.927-.77 4.38-.896.453-5.75.822-7.716.637-1.966-.184-5.544-1.09-6.103-2.148-.558-1.057-.137-6.796.106-9.817.245-3.02 2.971-11.27 2.971-11.27z"/><g fill="#880e3d"><path d="M14.883 79.861c.245-3.02 2.972-11.27 2.972-11.27l24.99 2.662s1.045 6 1.407 9.58c-1.8 1.777-5.623 1.622-7.825 1.534-2.024-.082-4.048-.32-6.074-.308-.93.005-1.823.025-2.688.398-1.02.44-1.887 1.127-2.958 1.473-1.739.561-3.59.413-5.36.14-.764-.117-2.443-.645-3.156-.152-1.242.86 2.983 2.347 2.885 2.792-.098.444-1.636.038-2.456.137-.206.025-.342.212-.237.41.962 1.808 5.604 2.567 5.57 2.828-.035.262-.5.728-.757.772-.186.031-.234.258-.163.4.116.235.27.434.453.604-.22-.008-.428-.018-.606-.034-1.966-.185-5.544-1.09-6.102-2.149-.559-1.057-.139-6.796.105-9.817"/><path d="M33.034 85.055c.725 0 0 1.753-.422 2.654-.07.15-.023.36.163.401.932.2.848.336.868 1.1.013.486.187.95.423 1.37.233.4.512.77.831 1.105-1.145.157-2.08.282-2.653-.194-.759-.63-1.005-4.443-1.06-5.57.578-.46 1.125-.866 1.85-.866"/></g><path fill="#d11335" d="M28.101 41.912h7.772c4.614 0 8.467 3.507 8.886 8.088l2.046 27.71a3.055 3.055 0 0 1-3.052 3.274h-23.53a3.055 3.055 0 0 1-3.054-3.275L19.215 50c.42-4.58 4.273-8.087 8.886-8.087"/><path fill="#28355d" fill-opacity=".1" d="M17.17 77.71 19.214 50c.42-4.58 4.273-8.088 8.886-8.088h7.772c1.053 0 2.063.19 3.005.527.153.816.237 1.645.197 2.467-.04.853-.197 1.813-.82 2.454-.914.94-2.543.892-3.753.852-1.28-.043-2.56-.248-3.842-.183-.43.021-1.025.015-1.39.291-.354.268-.432.717-.62 1.093-.349.694-.868 1.175-1.414 1.718-.474.47-1.05.886-.529 1.521.46.56 1.464.77 2.113.967 1.37.418 6.127 1.18 4.703 3.454-.085.134-.02.29.098.373 3.106 2.224 4.576 6.258 4.715 9.961.086 2.273-.597 4.15-1.514 6.197-.589 1.314-1.696 2.783-1.927 4.215-.463 2.871 4.62 2.216 6.233 2.385 1.395.145 2.834.292 4.263.303-.473.3-1.032.477-1.638.477h-23.53a3.056 3.056 0 0 1-3.054-3.275"/><path fill="#28355d" d="M44.214 27.66c6.175 2.65 10.8 8.565 11.981 15.15.096.532-.54.88-.93.502l-3.36-3.257.472 7.874c.03.482-.54.774-.907.46a14.49 14.49 0 0 1-3.866-5.264 21.433 21.433 0 0 1-.527 4.416c-.086.38-.24.82-.617.926-.39.11-.759-.213-1.022-.52-2.3-2.69-3.287-6.308-3.369-9.843-.08-3.534 1.32-7.006 2.145-10.444"/><path fill="#28355d" d="M49.588 34.2c-.76.7-1.096 1.807-1.768 2.596-1.425 1.67-3.453 2.802-5.608 3.192a20.198 20.198 0 0 1-.143-1.884c-.08-3.534 1.32-7.006 2.145-10.444 2.834 1.216 5.336 3.126 7.334 5.468-.71.287-1.423.58-1.96 1.071m2.706 3.354c.21-.143.828.198.986.29 1.21.684 1.996 2.19 2.57 3.446.134.503.254 1.008.345 1.521a.552.552 0 0 1-.5.652c-.324-.523-.65-1.045-.968-1.573-.524-.87-1.11-1.7-1.624-2.574-.137-.23-.9-1.7-.81-1.762m-6.036 3.71c.717.823 1.1 1.837 1.304 2.925a21.47 21.47 0 0 1-.484 3.353c-.086.38-.24.821-.617.926a.59.59 0 0 1-.156.02c-.72-2.42-.898-4.97-.047-7.224m3.741-.418a10.02 10.02 0 0 1 2.13 2.937l.25 4.147a.556.556 0 0 1-.724.56c-1.208-2.427-1.998-5.177-1.657-7.644"/><path fill="#28355d" d="M23.863 2.234s7.441-4.308 16.96-.96c6.87 2.417 11.11 8.558 12.726 14.7 1.616 6.142-2.34 16.234-7.252 17.863-4.913 1.63-31.752-2.145-31.752-2.145S7 28.36 8.01 15.773C9.018 3.187 18.208.073 23.863 2.234"/><path fill="#28355d" d="M12.517 21.12c.172.003.318-.178.264-.346-.978-3.017-.72-5.563.582-8.635.96-2.268 2.706-5.105 4.76-6.688 2.16-1.665 4.114-2.07 6.685-2.829 1.691-.498 3.137-.464 4.733.337.85.425 2.508 1.163 2.577 2.251.022.35.57.351.547 0 0-.018-.008-.036-.01-.054a.273.273 0 0 0 .064-.08c1.61-3.228 5.937-2.318 8.67-1.27 3.362 1.29 6.67 3.688 8.84 6.552 1.15 1.517 1.968 3.254 2.12 5.164.085 1.095-.008 2.208.16 3.3.165 1.083.644 1.71 1.31 2.021-.586 5.583-3.774 11.75-7.522 12.994-4.913 1.63-31.752-2.145-31.752-2.145s-4.406-1.953-6.032-8.494c.908-1.26 2.307-2.109 4.004-2.078"/><path fill="#9e6e41" d="M45.853 28.532c.017-2.623.42-3.273 2.29-5.283 2.152-2.312 6.747-1.576 7.208 2.198.291 2.375-2.505 5.95-5.472 6.33-2.968.38-4.042-.86-4.026-3.245" data-paper-data="{&quot;origPos&quot;:null}"/><path fill="#9e6e41" d="M48.143 23.25c1.16-1.248 3.03-1.599 4.58-1.075.29 1.113.27 2.33-.308 3.33-.363.627-1.199.962-1.265 1.725-.033.387.198.764.248 1.14.11.837-.202 1.765-.584 2.492a6.133 6.133 0 0 1-.53.836c-.135.03-.27.061-.405.08-2.968.38-4.042-.86-4.026-3.246.018-2.623.42-3.273 2.29-5.283m-30.02 5.283c.015 2.385-1.06 3.625-4.027 3.245-2.968-.38-5.763-3.955-5.472-6.33.461-3.774 5.055-4.51 7.207-2.198 1.871 2.01 2.273 2.66 2.29 5.283" data-paper-data="{&quot;origPos&quot;:null}"/><path fill="#9e6e41" d="M14.096 31.776c-.007 0-.013-.002-.019-.003-1.122-1-2.45-2.627-2.397-4.183.04-1.2 1.241-1.41 1.126-2.707-.085-.945-.616-1.967-.647-2.919 1.325-.153 2.732.275 3.673 1.285 1.87 2.01 2.272 2.66 2.29 5.283.016 2.385-1.058 3.625-4.026 3.245" data-paper-data="{&quot;origPos&quot;:null}"/><path fill="#9e6e41" d="M13.383 27.609c0-9.954 1.652-21.346 18.075-21.346 16.42 0 18.074 11.392 18.074 21.346s-8.093 12.687-18.074 12.687c-9.983 0-18.075-2.733-18.075-12.687" data-paper-data="{&quot;origPos&quot;:null}"/><path fill="#9e6e41" d="M48.198 27.832c-.377-.598-.65-1.274-.918-1.926-.575-1.402-1.228-2.767-1.786-4.176-1.145-2.89-1.91-5.927-3.05-8.814a14.22 14.22 0 0 0-.88-2.025c-.17-.31-.626-.037-.474.276.313.64.592 1.292.848 1.952.52 1.477.82 3.022 1.078 4.578-2.18.24-4.352-.028-6.09-1.492-1.67-1.408-2.686-3.45-3.569-5.404-.107-.237-.425-.128-.5.064-.76 1.958-1.553 4.492-3.704 5.33-1.61.626-1.462-.77-1.694-1.875-.255-1.212-.53-2.413-.73-3.636-.044-.277-.46-.242-.527 0-1.414 5.104-5.772 16.576-12.289 16.587.008-9.937 1.692-21.274 18.074-21.274 16.422 0 18.075 11.392 18.075 21.347 0 .058-.004.113-.005.171-.43.912-1.17 1.41-1.859.317" data-paper-data="{&quot;origPos&quot;:null}"/><path fill="#ff7ba1" d="M32.056 32.297a7.26 7.26 0 0 1-.328-.009c-2.844-.15-5.404-2.262-6.084-5.02a.604.604 0 0 1 .444-.73.604.604 0 0 1 .733.442c.547 2.216 2.685 3.98 4.972 4.1 2.28.13 4.6-1.405 5.38-3.55a.606.606 0 1 1 1.14.412c-.935 2.566-3.53 4.354-6.257 4.354"/><path fill="#ff8c2d" d="M32.71 23.947c.66.034 1.127.668 1.185 1.295.053.583-.272 1.473-.926 1.588-.38.066-.722-.3-.514-.666.183-.32.512-.452.49-.875-.02-.365-.304-.595-.505-.873-.138-.19.046-.48.27-.469"/><path fill="#28355d" d="M39.45 8.091c1.373 2.296.965 5.71 3.09 9.032-6.6-.98-7.32-2.507-9.885-8.648-.187 2.408-1.219 4.58-3.946 7.123-.404-3.047-1.24-5.047-2.126-8.345-1.794 6.268-6.35 17.966-12.668 19.636-.89-4.56.105-15.989 3.354-19.318 3.25-3.328 7.901-5.138 12.556-5.32 4.656-.184 9.298 1.181 13.351 3.47 2.692 1.52 5.178 3.471 7.007 5.96 1.827 2.486 2.637 13.088-.875 17.282-3.685-4.974-4.699-17.44-9.858-20.872" data-paper-data="{&quot;origPos&quot;:null}"/><path fill="#28355d" d="M47.362 18.648c1.353 3.098 2.03 6.707 1.801 10.106-.796-1.14-1.468-2.63-2.087-4.298-.036-1.944-.032-3.885.286-5.808m-6.339-1.782c-.536-1.348-.898-2.765-1.292-4.17-.462-1.646-1.09-3.68-.249-5.29.17.344.322.696.46 1.052a6.138 6.138 0 0 0-.492-.367c1.373 2.296.965 5.71 3.09 9.032a35.86 35.86 0 0 1-1.517-.257m-2.6-.708c-.698-.267-1.286-.583-1.793-.968-.584-2.333-1.136-4.673-1.082-7.072 1.687 2.238 2.397 5.238 2.875 8.04m-8.45-3.795c.81-1.892 1.133-4.146 2.136-5.949.396.79.646 1.677.778 2.613-.077-.184-.15-.36-.232-.552-.187 2.408-1.22 4.58-3.946 7.124-.02-.159-.048-.305-.07-.457.48-.909.925-1.836 1.334-2.779m-9.404 5.083c1.09-2.504 1.453-5.7 3.127-7.92.446 1.713.458 3.5.19 5.277-1.49 3.443-3.409 6.93-5.684 9.304.692-2.254 1.424-4.495 2.367-6.66m-5.24 4.951c.69-2.78 1.175-5.742 2.351-8.38.063 2.53-.368 5.007-.746 7.52-.213 1.41-.382 2.844-.68 4.243a7.93 7.93 0 0 1-1.907.976c.287-1.461.614-2.915.98-4.359M27.168 4.346c1.374 2.195 1.402 5.2.86 7.923-.41-1.54-.916-3.05-1.445-5.016-.047.165-.098.336-.149.51.13-1.167.32-2.319.735-3.417M42.694 8.14c2.046 2.97 2.28 6.32 2.22 9.756-.534-1.634-1.097-3.235-1.74-4.682-.204-1.688-.458-3.373-.48-5.074" data-paper-data="{&quot;origPos&quot;:null}"/><path fill="#41240f" d="M23.152 21.201c.073 0 .143.013.213.022.501-.397.47-1.329 1.034-1.706.104-.069.288-.05.37.048.475.565.227 1.515-.08 2.117-.044.083-.09.163-.14.24.2.28.32.621.32.991 0 .945-.769 1.711-1.717 1.711a1.714 1.714 0 0 1-1.717-1.71c0-.946.77-1.713 1.717-1.713m17.671 0c.073 0 .142.013.213.022.5-.397.47-1.329 1.034-1.706.104-.069.288-.05.37.048.474.565.226 1.515-.08 2.117-.044.083-.09.163-.14.24.2.28.32.621.32.991 0 .945-.77 1.711-1.717 1.711a1.714 1.714 0 0 1-1.717-1.71c0-.946.77-1.713 1.717-1.713" data-paper-data="{&quot;origPos&quot;:null}"/><path fill="#ff8639" d="M6.95 67.734c0-8.085 6.572-14.639 14.68-14.639 8.107 0 14.68 6.554 14.68 14.638 0 8.085-6.573 14.64-14.68 14.64-8.108 0-14.68-6.555-14.68-14.639"/><path fill="#28355d" d="M7.07 69.578a14.683 14.683 0 0 1-.12-1.812 24.185 24.185 0 0 1 9.596-4.21c-1.073-2.545-3.233-4.662-5.823-5.62.366-.404.754-.786 1.162-1.147 2.788 1.25 5.065 3.667 6.173 6.513.773-.1 1.553-.165 2.335-.188.911-.024 1.823.005 2.731.086-.573-3.504-1.73-6.9-3.455-9.97.55-.074 1.102-.116 1.656-.127a32.053 32.053 0 0 1 3.42 10.293c.87.135 1.732.314 2.58.543.355-1.177.918-2.257 1.677-3.162 1.016-1.21 2.396-2.05 3.863-2.46.352.415.68.851.985 1.306-1.384.255-2.73.985-3.687 2.124-.63.75-1.097 1.65-1.393 2.636a24.06 24.06 0 0 1 7.517 4.16c-.034.606-.106 1.21-.215 1.807a22.416 22.416 0 0 0-7.61-4.475 10.032 10.032 0 0 0 .33 3.942c.747 2.605 2.516 4.896 4.783 6.421a14.67 14.67 0 0 1-.94 1.177c-2.51-1.724-4.467-4.28-5.299-7.184a11.484 11.484 0 0 1-.335-4.815 22.75 22.75 0 0 0-2.056-.46c.615 5.92-.374 12-3.006 17.408-.103.002-.206.008-.31.008-.457 0-.91-.024-1.357-.064 2.748-5.333 3.755-11.556 3.067-17.57a22.165 22.165 0 0 0-2.9-.115c-.643.02-1.283.073-1.92.148.156.67.25 1.355.268 2.046.121 4.8-3.294 9.44-7.83 10.961a14.646 14.646 0 0 1-1.068-1.256c4.225-1.089 7.494-5.3 7.384-9.666A8.796 8.796 0 0 0 17.018 65a22.634 22.634 0 0 0-9.949 4.58"/><path fill="#ff8639" fill-opacity=".05" d="M21.63 53.095c.807 0 1.598.067 2.37.193-.918.938-1.903 1.814-2.863 2.704-1.136 1.053-2.464 2.04-3.51 3.168-.605.653-1.308 3.477-1.126 4.852.33 2.486 6.618 1.81 4.67 4.834-.099.15 0 .353.162.4 1.757.508 4.111.577 5.515 1.875.753.697.737 1.687.314 2.545-.152.306-.302.576-.366.913-.047.248.013.506-.028.75-.107.642-.569.893-1.124 1.191-.165.09-.166.302-.056.43.823.947-.877 1.102-1.525 1.192-.845.118-1.699.162-2.546.265-1.062.13-2.89.69-2.227 2.185.392.89 1.66 1.41 2.505 1.776-.055 0-.11.005-.165.005-8.108 0-14.68-6.555-14.68-14.64 0-8.084 6.572-14.638 14.68-14.638"/><path fill="#ffd" d="M5.765 57.23c2.228-4.467 5.568-7.212 9.023-9.6l.011-.007.07-.046c.711-.492 1.43-.97 2.142-1.443 1.244-.826 2.53-1.68 3.76-2.594a3.943 3.943 0 0 1 5.51.801 3.918 3.918 0 0 1-.804 5.495c-1.396 1.038-2.77 1.951-4.1 2.835l-.024.015c-.699.464-1.39.923-2.065 1.39-2.808 1.935-5.04 3.785-6.47 6.652-.589 1.177-1.48 3.404-.863 5.096.424 1.158 1.675 2.235 3.347 2.881.931.36 2.005.62 3.38.815l-1.119 7.774c-1.98-.283-3.603-.685-5.106-1.266-3.813-1.472-6.693-4.21-7.9-7.513-1.224-3.345-.806-7.249 1.208-11.285m37.485 52.787c-.202-.604-5.049 1.61-6.463 1.36-.688-.123.152 1.36.152 2.026 0 1.217.555 2.397.555 2.397s1.897 2.574 4.381 2.171c1.463-.237 1.275-1.48 1.223-3.625-.037-1.499.234-4.08.152-4.329"/><path fill="#28355d" d="M40.943 113.974c.124-.05.25-.189.191-.336-.397-.975-.838-1.758.532-2.297a4.5 4.5 0 0 1 1.565-.28c-.055.95-.156 2.335-.133 3.286.052 2.143.24 3.388-1.223 3.624-2.484.403-4.38-2.17-4.38-2.17s-.556-1.18-.556-2.398c0-.022-.003-.047-.005-.07 1.171.817 2.597 1.2 4.01.64"/><path fill="#ffd" d="M24.23 110.017c.082.25-.189 2.83-.152 4.33.053 2.143.24 3.387-1.223 3.624-2.485.403-5.202-2.17-5.202-2.17s.451-1.51.353-2.398c-.102-.919-1.107-2.182-.239-2.027 1.414.251 6.261-1.963 6.463-1.359"/><path fill="#28355d" d="M18.006 113.403c-.004-.037-.012-.076-.018-.113.24.17.497.317.775.44.601.262 1.88.662 2.507.22.642-.452.162-.922.078-1.51-.172-1.213 1.632-1.573 2.878-1.66-.049.938-.174 2.517-.148 3.566.053 2.144.24 3.388-1.222 3.625-2.486.403-5.204-2.17-5.204-2.17s.452-1.51.354-2.398"/><path fill="#d11335" d="M36.56 114.27c.96.115 1.75.63 2.748.662.976.031 1.965-.16 2.897-.43 1.227-.358 1.622-.366 2.67.374 1.268.894 1.8.902 3.222 1.53.585.257 1.35 1.482.76 2.337-.53.771-5.554.681-7.326.507-.813-.08-1.676-.16-2.48-.29-.606-.1-1.459-.144-2.025-.414-1.305-.623-.824-2.523-.825-3.646a.386.386 0 0 1 .36-.63"/><path fill="#28355d" d="M39.324 117.948c.552.15 1.658.54 2.234.212.457-.26.197-.67.42-.904.522-.55 3.002.552 3.663.688.522.107 1.214.303 1.735.09.78-.322.732-1.112.407-1.762.102.042.2.083.314.133.585.258 1.35 1.483.76 2.34-.53.77-5.554.68-7.326.505-.813-.08-1.675-.16-2.48-.29-.606-.1-1.459-.144-2.025-.414-.865-.413-.945-1.386-.9-2.323.871.818 1.904 1.373 3.198 1.725"/><path fill="#880e3d" d="M44.828 111.432c.875-.168 1.528 0 1.306 1.01-.116.524-.333.964-.6 1.434-.166.288-.356.56-.569.814-.18.218-1.652.866-1.725.72-.167-.338-.335-.909-.545-1.216-.2-.29-.302-.632-.49-.93-.107-.17-.279-.337-.317-.544-.21-1.137 2.313-1.168 2.94-1.288"/><path fill="#d11335" d="M17.173 114.27c.96.115 1.75.63 2.748.662.975.031 1.965-.16 2.897-.43 1.226-.358 1.622-.366 2.67.374 1.267.894 1.8.902 3.221 1.53.586.257 1.352 1.482.762 2.337-.532.771-5.555.681-7.327.507-.813-.08-1.676-.16-2.48-.29-.607-.1-1.459-.144-2.026-.414-1.304-.623-.823-2.523-.824-3.646a.386.386 0 0 1 .36-.63"/><path fill="#28355d" d="M20.038 117.794c.647.213 1.742.65 2.443.361.556-.229.35-.618.802-.8.712-.289 1.817.53 2.54.684.604.13 1.367.201 1.95-.04.816-.34.857-1.032.635-1.72.1.04.193.078.301.126.586.258 1.352 1.483.762 2.34-.532.77-5.554.68-7.327.505-.814-.08-1.676-.16-2.48-.29-.606-.1-1.46-.144-2.026-.414-.985-.47-.952-1.669-.877-2.71.885.91 2.007 1.54 3.277 1.958"/><path fill="#880e3d" d="M25.441 111.432c.874-.168 1.528 0 1.305 1.01-.116.524-.332.964-.6 1.434-.165.288-.355.56-.569.814-.18.218-1.65.866-1.724.72-.168-.338-.335-.909-.546-1.216-.2-.29-.3-.632-.489-.93-.108-.17-.28-.337-.317-.544-.21-1.137 2.313-1.168 2.94-1.288"/><path fill="#ff7ba1" d="M44.262 27.04c.383.236.695.601 1.001.926.317.337.605.646.754 1.086.1.29-.242.485-.48.368-.403-.2-.667-.534-.946-.883-.268-.332-.59-.673-.766-1.062-.122-.269.142-.62.437-.436m-1.322.493c.381.514.777 1.164.875 1.803.06.39-.436.832-.76.44-.446-.54-.689-1.262-.829-1.943-.092-.448.452-.652.714-.3m-19.619-1.094c.334.761.83 1.583.943 2.412.058.43-.447.68-.714.3-.484-.687-.68-1.62-.955-2.407-.146-.418.545-.72.726-.305m-1.685.108c.084.768.21 1.544.228 2.316.015.675-1.067.676-1.05 0 .017-.772.142-1.548.226-2.316a.298.298 0 0 1 .596 0"/><path fill="#9e6e41" d="M21.618 76.493c-.358-.003-.675-.025-.863-.069a55.84 55.84 0 0 1-3.02-.33l.774-5.38c.7.1 1.408.173 2.117.24.38-.036.825-.026 1.364.05.684.095 1.573.311 2.28.62.545.235.51.875-.068.946-.407.05-.907-.02-1.095-.003 1.32.356 2.152.405 2.034 1.017-.094.495-.716.582-2.122.572.672.063 1.557.231 1.51.758-.049.523-1.597.544-2.034.491 1.202.237 1.404.508 1.185.798-.143.188-1.2.294-2.042.29h-.02" data-paper-data="{&quot;origPos&quot;:null}"/><path fill="#9e6e41" d="M18.51 70.713c.263.037.53.07.795.1-.398 1.568-.442 3.346 1.118 4.24.855.49 1.868.621 2.9.58.45.177.51.37.356.57-.143.19-1.198.294-2.04.29h-.02c-.359-.003-.676-.024-.864-.069a55.3 55.3 0 0 1-3.019-.33zm37.633-8.535c.881-.079 1.632-.23 2.237-.406.241-.114.518-.218.853-.304l.08-.032-.002.016c.163-.04.33-.079.517-.11.68-.12 1.593-.188 2.362-.113.59.058.755.677.226.923-.37.173-.869.26-1.042.333 1.365-.066 2.172-.275 2.25.343.062.5-.503.774-1.843 1.196.66-.146 1.552-.258 1.67.258.116.512-1.35 1.007-1.783 1.09 1.216-.142 1.493.052 1.373.397-.11.32-2.08 1.06-2.722 1.11l-.164.01c-1.01.292-2.195.515-3.469.652z" data-paper-data="{&quot;origPos&quot;:null}"/><path fill="#9e6e41" stroke="#9e6e41" stroke-width=".5" d="M56.983 62.046c.002 1.016.036 2.038.202 3.018.112.663.355 1.054 1.05 1.148.892.12 2.024-.14 2.898-.328.516-.11 1.048-.255 1.51-.505.236.07.289.208.226.39-.112.32-2.082 1.06-2.723 1.11l-.164.01c-1.01.292-2.195.515-3.468.652l-.544-5.363c.362-.032.697-.079 1.013-.132M28.795 41.912v-1.976c.983.063 1.99.094 3.02.094 1.028 0 2.036-.03 3.018-.094v1.976h.867c.81 0 1.594.11 2.342.312.138 1.588-.243 3.181-1.83 3.992-1.96 1.002-4.536.4-6.405-.502-1.691-.817-3.226-1.999-4.542-3.396a8.93 8.93 0 0 1 2.663-.406z" data-paper-data="{&quot;origPos&quot;:null}"/><path fill="#9e6e41" d="M28.101 41.912h.867v-1.976c.983.063 1.99.094 3.02.094 1.028 0 2.036-.03 3.018-.094v1.604c-.958.31-2.41.304-2.954.412-.8.16-1.584.378-1.786 1.24-.418 1.785 1.25 2.724 2.748 2.954 1.168.18 2.392.127 3.598-.072-.076.047-.143.1-.226.142-1.96 1.002-4.537.4-6.406-.502-1.69-.817-3.226-1.999-4.54-3.396a8.93 8.93 0 0 1 2.661-.406" data-paper-data="{&quot;origPos&quot;:null}"/></g></svg>