<svg version="1.1" xmlns="http://www.w3.org/2000/svg" xmlns:xlink="http://www.w3.org/1999/xlink" width="68.39001" height="119.43166" viewBox="0,0,68.39001,119.43166"><g transform="translate(-206.547,-120.456)"><g data-paper-data="{&quot;isPaintingLayer&quot;:true}" fill-rule="evenodd" stroke="none" stroke-width="1" stroke-linecap="butt" stroke-linejoin="miter" stroke-miterlimit="10" stroke-dasharray="" stroke-dashoffset="0" style="mix-blend-mode: normal"><path d="M217.874,227.418v-18.074c0,0 0.782,-25.59 9.107,-31.35c2.242,-1.553 11.32,-1.811 11.32,-1.811l2.547,0.081h0.214l2.547,-0.068c0,0 9.078,0.214 11.32,1.764c8.321,5.762 9.089,31.368 9.089,31.368v18.09z" fill="#757575"/><path d="M217.875,224.183h46.145v3.236h-46.145z" fill="#c9c9c9"/><path d="M231.263,234.325c-1.71,1.058 -2.952,3.204 -1.486,4.963c1.104,1.241 2.734,0.254 3.972,-0.271c1.364,-0.652 2.926,-1.114 4.164,-1.963c0.801,-0.562 1.738,-1.153 2.278,-1.986c0.167,-0.258 0.246,-0.494 0.187,-0.743zM250.738,234.325c1.71,1.058 2.952,3.204 1.486,4.963c-1.106,1.241 -2.734,0.254 -3.972,-0.271c-1.366,-0.652 -2.928,-1.114 -4.166,-1.963c-0.8,-0.562 -1.739,-1.153 -2.278,-1.986c-0.167,-0.258 -0.246,-0.494 -0.185,-0.743z" fill="#9f9480"/><path d="M252.79,209.371l-1.86,24.953h-9.434l-0.362,-18.045h-0.271l-0.361,18.045h-9.434l-1.861,-24.953z" fill="#343434"/><path d="M225.791,209.371h0.039c0,0 0.51,-25.596 5.952,-31.356c1.465,-1.555 7.402,-1.832 7.402,-1.832l1.666,0.08h0.14l1.666,-0.054c0,0 5.935,0.221 7.4,1.77c5.445,5.764 5.955,31.392 5.955,31.392h0.007z" fill="#343434"/><path d="M255.913,206.633c0.077,1.682 0.097,2.737 0.097,2.737h-30.181c0.0213,-0.91269 0.05364,-1.82509 0.097,-2.737z" fill="#c9c9c9"/><path d="M226.12,203.147c0.088,-1.367 0.204,-2.862 0.348,-4.417h28.903c0.13817,1.47053 0.25452,2.94302 0.349,4.417h-29.6" fill="#ad6922"/><path d="M244.132,203.324c-1.27,1.277 -5.797,1.134 -7.199,0c-0.94,-0.76 -0.853,-3.996 0,-4.854c1.274,-1.275 6.068,-1.404 7.199,0c0.763,0.944 0.858,3.996 0,4.854" fill="#f7b90b"/><path d="M220.644,206.945l4.83,25.752l-0.953,6.249l-2.303,-5.712l-3.52,-25.968z" fill="#ad6922"/><path d="M222.715,207.234l-6.065,0.999l-0.37,-2.273l1.836,-0.302l-0.743,-4.544l2.387,-0.394l0.747,4.545l1.836,-0.304z" fill="#7a4310"/><path d="M220.398,199.994c0.165,1.01 -0.574,1.972 -1.65,2.148c-1.08,0.177 -2.087,-0.495 -2.254,-1.503c-0.165,-1.01 0.573,-1.972 1.653,-2.15c1.077,-0.18 2.086,0.497 2.251,1.505" fill="#ad6922"/><path d="M253.063,185.161c-0.52,-2.296 -3.356,-7.483 -3.356,-7.483c0,0 6.111,3.208 7.804,5.377c3.48,4.461 4.812,17.864 4.812,17.864l-4.53,-0.002c0,0 -1.226,-9.683 -2.84,-11.973c-0.809,-1.145 -1.33,-1.788 -1.515,-2.298c-0.147,-0.407 -0.31,-1.191 -0.375,-1.486" fill="#4f2a11"/><path d="M263.178,203.297c0.235,2.242 -0.831,4.191 -2.389,4.359c-1.016,0.106 -1.987,-0.574 -2.606,-1.684c-0.578,0.48 -1.147,0.667 -1.556,0.45c-0.761,-0.406 -0.671,-2.076 0.203,-3.734c0.334,-0.631 0.734,-1.171 1.143,-1.571c0.034,-0.07 0.07,-0.131 0.106,-0.199l4.243,0.002l-0.007,-0.059c0.449,0.648 0.766,1.492 0.863,2.436" fill="#fddfbb"/><path d="M228.824,185.16c-0.064,0.295 -0.23,1.079 -0.375,1.486c-0.185,0.51 -0.707,1.153 -1.515,2.298c-1.615,2.29 -2.84,11.973 -2.84,11.973l-4.53,0.002c0,0 1.334,-13.403 4.811,-17.864c1.694,-2.169 7.804,-5.377 7.804,-5.377c0,0 -2.838,5.187 -3.355,7.483" fill="#4f2a11"/><path d="M218.709,203.297c0.1,-0.944 0.415,-1.788 0.862,-2.436l-0.006,0.059l4.245,-0.002c0.034,0.068 0.07,0.129 0.104,0.199c0.406,0.4 0.808,0.94 1.144,1.571c0.872,1.658 0.962,3.328 0.2,3.734c-0.407,0.217 -0.979,0.03 -1.554,-0.45c-0.62,1.11 -1.59,1.79 -2.606,1.684c-1.558,-0.168 -2.626,-2.117 -2.39,-4.359" data-paper-data="{&quot;origPos&quot;:null}" fill="#ffdb80"/><path d="M229.512,234.574v-11.244c0,-2.748 2.228,-4.935 4.97,-4.935h1.368c1.31306,-0.00719 2.57473,0.50973 3.50528,1.43615c0.93055,0.92642 1.45307,2.18578 1.45172,3.49885v11.244z" fill="#c1b69c"/><path d="M239.937,226.56l-4.67,-3.093l-4.738,3.847l4.668,3.09zM240.806,225.722v1.644l-4.582,3.722l4.582,3.037v0.45h-1.515l-4.024,-2.665l-3.286,2.665h-1.874l4.125,-3.369l-4.667,-3.114l-0.054,0.039v-1.519l4.721,-3.829l-3.705,-2.457c0.24089,-0.32161 0.52069,-0.61216 0.833,-0.865l3.836,2.545l3.44,-2.793c0.3314,0.22564 0.63398,0.49094 0.901,0.79l-3.313,2.685z" fill="#4f2a11"/><path d="M241.241,234.574v-11.244c0,-2.748 2.229,-4.935 4.97,-4.935h1.368c1.31332,-0.00746 2.57535,0.50931 3.50628,1.43573c0.93092,0.92642 1.45381,2.18593 1.45272,3.49927v11.244z" fill="#c1b69c"/><path d="M251.531,227.314l-4.737,-3.847l-4.67,3.093l4.74,3.844zM252.539,226.643v1.488l-4.713,3.074l4.125,3.37h-1.874l-3.283,-2.665l-4.023,2.664h-1.53v-0.45l4.584,-3.036l-4.584,-3.722v-1.644l4.589,-3.034l-3.308,-2.686c0.26722,-0.29961 0.57053,-0.56497 0.903,-0.79l3.439,2.794l3.837,-2.545c0.31176,0.25344 0.59149,0.54391 0.833,0.865l-3.71,2.457z" fill="#4f2a11"/><path d="M218.643,201.019l1.472,-9.7c0.2221,-1.78727 1.85064,-3.05634 3.638,-2.835h0.004c1.78549,0.22962 3.04931,1.85958 2.827,3.646l-1.474,9.697z" fill="#c1b69c"/><path d="M222.539,197.262l2.831,-1.46l-2.418,-2.117l-2.834,1.462zM226.203,194.629l-0.171,1.125l-0.217,1.426l-2.118,1.092l1.725,1.505l-0.255,1.676l-2.838,-2.477l-3.663,1.888l0.266,-1.746l2.24,-1.152l-1.824,-1.592l0.167,-1.106l0.237,-1.54l2.04,-1.053l-1.66,-1.449c0.078,-0.523 0.28,-0.999 0.568,-1.405l2.46,2.15l3.145,-1.624c0.21035,0.45484 0.31301,0.95205 0.3,1.453l-2.287,1.18z" fill="#4f2a11"/><path d="M256.759,201.827l-1.474,-9.697c-0.22403,-1.78689 1.04062,-3.41792 2.827,-3.646h0.002c1.78761,-0.22081 3.41637,1.04774 3.64,2.835l1.47,9.7z" fill="#c1b69c"/><path d="M261.75,195.146l-2.834,-1.46l-2.42,2.115l2.834,1.46zM257.551,192.982l-2.29,-1.183c-0.01246,-0.50015 0.0909,-0.99641 0.302,-1.45l3.148,1.623l2.456,-2.149c0.29719,0.41624 0.49243,0.89647 0.57,1.402l-1.662,1.451l2.041,1.05l0.235,1.54l0.169,1.107l-1.824,1.595l2.242,1.15l0.264,1.748l-3.665,-1.889l-2.836,2.475l-0.253,-1.676l1.723,-1.503l-2.118,-1.091l-0.218,-1.429l-0.17,-1.123z" fill="#4f2a11"/><path d="M273.81,205.74c0,6.385 -5.163,11.563 -11.531,11.563c-6.372,0 -11.534,-5.178 -11.534,-11.563c0,-6.384 5.162,-11.563 11.534,-11.563c6.368,0 11.532,5.179 11.532,11.563" fill="#c69060"/><path d="M273.304,210.243l-1.364,2.167l-1.727,2.199l-6.587,-6.24l1.393,8.948l-2.741,0.301l-2.597,-0.299l1.255,-9l-6.41,6.321l-1.782,-1.954l-1.33,-2.395l8.678,-4.567l-8.696,-4.528l1.249,-2.33l1.843,-2.035l6.44,6.296l-1.247,-8.941h5.338l-1.375,8.851l6.528,-6.239l3.114,4.35l-9.026,4.567z" fill="#752e3e"/><path d="M262.278,217.305c6.368,0 11.532,-5.179 11.532,-11.563c0,-6.388 -5.164,-11.566 -11.532,-11.566c-6.37,0 -11.532,5.178 -11.532,11.566c0,6.384 5.162,11.563 11.532,11.563M262.278,193.588c6.693,0 12.117,5.44 12.117,12.154c0,6.708 -5.424,12.151 -12.116,12.151c-6.694,0 -12.12,-5.443 -12.12,-12.151c0,-6.714 5.426,-12.154 12.119,-12.154" fill="#4f2a11"/><path d="M265.467,205.74c0,1.766 -1.427,3.2 -3.189,3.2c-1.76432,-0.00331 -3.19221,-1.43568 -3.19,-3.2c-0.00166,-1.76361 1.42639,-3.19479 3.19,-3.197c0.84692,0.00079 1.6588,0.33813 2.25691,0.93774c0.59811,0.59961 0.93341,1.41234 0.93209,2.25926" fill="#4f2a11"/><path d="M262.294,156.581c1.11,0.714 1.84,1.934 1.84,3.315c0,2.205 -1.85,3.99 -4.133,3.99c-0.065,0 -0.13,-0.003 -0.196,-0.005c-3.698,6.648 -10.784,11.144 -18.918,11.144c-8.143,0 -15.233,-4.505 -18.929,-11.167c-0.152,0.016 -0.303,0.028 -0.457,0.028c-2.284,0 -4.134,-1.785 -4.134,-3.99c0,-1.483 0.842,-2.78 2.09,-3.464c-0.146,-1.019 -0.22,-2.058 -0.22,-3.115c0,-11.99 9.694,-21.71 21.65,-21.71c11.956,0 21.65,9.72 21.65,21.71c-0.00014,1.09255 -0.0817,2.18357 -0.244,3.264" data-paper-data="{&quot;origPos&quot;:null}" fill="#ffdb80"/><path d="M235.229,152.096c-0.772,-0.174 -0.908,-1.201 -3.386,-0.74c-0.779,0.18 -2.417,1.156 -2.732,1.808c-0.316,0.652 -0.088,-2.392 2.457,-3.522c1.835,-0.675 2.457,-0.642 3.977,-0.642c1.52,0 1.987,0.907 1.766,1.65c0,0 -0.503,1.803 -2.082,1.446zM249.134,152.096c0.772,-0.174 0.908,-1.201 3.386,-0.74c0.779,0.18 2.417,1.156 2.732,1.808c0.316,0.652 0.087,-2.392 -2.457,-3.522c-1.835,-0.675 -2.457,-0.642 -3.977,-0.642c-1.52,0 -1.987,0.907 -1.766,1.65c0,0 0.503,1.803 2.082,1.446z" data-paper-data="{&quot;origPos&quot;:null}" fill="#653310"/><path d="M235,158c0,1.657 -0.895,3 -2,3c-1.105,0 -2,-1.343 -2,-3c0,-1.657 0.895,-3 2,-3c1.105,0 2,1.343 2,3M253,158c0,1.657 -0.895,3 -2,3c-1.105,0 -2,-1.343 -2,-3c0,-1.657 0.895,-3 2,-3c1.105,0 2,1.343 2,3" data-paper-data="{&quot;origPos&quot;:null}" fill="#653310"/><path d="M242.02,161.069c-1.125,0.153 -3.02,1.834 -3.02,1.834c0,0 0.207,-1.009 0.503,-1.299c0.8,-1.156 2.487,-1.604 2.487,-1.604c0,0 2.173,0.703 2.65,1.588c0.443,0.824 0.34,1.238 0.34,1.238c0,0 -2.121,-1.871 -2.96,-1.756z" fill="#eeac6c"/><path d="M235.2,164.696c0,0 6.897,3.208 13.172,-0.397c0,0 -1.39,5.47 -5.95,5.561c-4.115,0.122 -4.984,-1.492 -5.477,-1.956c-0.492,-0.463 -1.42,-1.772 -1.745,-3.208" fill="#eeac6c"/><path d="M263.398,150.488c0.027,2.01 -0.519,20.422 -1.603,23.572c-0.289,0.847 -0.617,-12.918 -0.985,-12.218c0,0 -4.258,-12.083 -7.767,-13.996c-4.286,-2.34 -15.59,1.032 -19.422,-2c-0.635,-0.502 -0.565,-1.644 -0.565,-1.644c0,0 -0.731,1.452 -1.086,1.857c-1.856,2.119 -10.875,8.142 -10.47,15.783c0,0 -0.296,13.893 -0.705,12.92c-0.98,-2.326 -2.616,-21.245 -2.486,-24.512c0.055,-1.338 0.702,-4.304 1.755,-7.32c3.806,-7.666 11.703,-12.935 20.826,-12.935c10.479,0 19.34,6.949 22.251,16.503c0.14596,1.32543 0.23171,2.6568 0.257,3.99" data-paper-data="{&quot;origPos&quot;:null}" fill="#653310"/><path d="M239.198,177.695c-1.009,0 -1.83,-2.178 -1.83,-3.172h7.198c0,0.994 -0.817,3.172 -1.831,3.172h-3.536" data-paper-data="{&quot;origPos&quot;:null}" fill="#ffdb80"/><path d="M238.143,176.843c-0.40266,-0.6365 -0.66168,-1.35315 -0.759,-2.1c2.37604,0.38387 4.79903,0.37441 7.172,-0.028l-0.013,0.012l-6.4,2.117" data-paper-data="{&quot;origPos&quot;:null}" fill="#eeac6c"/><path d="M226.685,178.198c0.09666,-0.07343 0.19537,-0.14412 0.296,-0.212c1.903,-1.318 8.727,-1.715 10.753,-1.8c0.817,0.767 2.696,2.83 1.253,4.38c-1.807,1.944 -7.395,0.555 -7.98,-0.636c-0.391,-0.794 -2.782,-1.41 -4.322,-1.732M242.97,180.566c-1.434,-1.542 0.415,-3.586 1.241,-4.37c2.06,0.084 8.828,0.454 10.72,1.764c0.11231,0.0761 0.2214,0.15683 0.327,0.242c-1.535,0.32 -3.918,0.936 -4.308,1.728c-0.585,1.191 -6.174,2.579 -7.98,0.636" data-paper-data="{&quot;origPos&quot;:null}" fill="#c1b69c"/><path d="M237.843,180.017c0,0.73951 -0.59949,1.339 -1.339,1.339c-0.73951,0 -1.339,-0.59949 -1.339,-1.339c0,-0.73951 0.59949,-1.339 1.339,-1.339c0.73951,0 1.339,0.59949 1.339,1.339M246.655,180.017c0,0.73979 -0.59971,1.3395 -1.3395,1.3395c-0.73979,0 -1.3395,-0.59971 -1.3395,-1.3395c-0.01332,-0.48728 0.23904,-0.94336 0.65896,-1.19093c0.41992,-0.24757 0.94116,-0.24757 1.36108,0c0.41992,0.24757 0.67228,0.70364 0.65896,1.19093" fill="#ad6922"/><path d="M262.845,142.855c-22.068,1.979 -22.479,1.981 -43.875,0.016c3.442,-8.778 11.966,-18.414 21.94,-18.414c9.967,0 18.493,9.627 21.935,18.398" fill="#965925"/><path d="M263.4,142.806c0,0 1.87,7.266 0.003,7.653c-22.543,4.673 -22.54,4.673 -45.119,0c-1.872,-0.387 -0.002,-7.653 -0.002,-7.653c9.111,0.838 14.519,1.334 19.236,1.486v-20.55h6.393v20.543c4.776,-0.159 10.254,-0.652 19.489,-1.479" fill="#7a4310"/><path d="M242.16,141.735c0.00166,0.76729 -0.61871,1.39079 -1.386,1.393c-0.75398,-0.02021 -1.35469,-0.63725 -1.35469,-1.3915c0,-0.75425 0.60071,-1.37129 1.35469,-1.3915c0.768,0 1.387,0.625 1.387,1.39M242.16,134.767c0,0.7663 -0.6212,1.3875 -1.3875,1.3875c-0.7663,0 -1.3875,-0.6212 -1.3875,-1.3875c0,-0.768 0.624,-1.392 1.39,-1.392c0.76689,0.00221 1.38711,0.6251 1.386,1.392M242.16,128.607c0,0.767 -0.618,1.388 -1.386,1.388c-0.74717,-0.02835 -1.33826,-0.64229 -1.33826,-1.39c0,-0.74771 0.59109,-1.36165 1.33826,-1.39c0.768,0 1.387,0.622 1.387,1.392" fill="#434344"/><path d="M223.216,135.192c-1.58859,2.17509 -2.922,4.5255 -3.974,7.005c-7.251,-1.531 -12.695,-7.981 -12.695,-15.707c-0.0019,-2.06807 0.39607,-4.11701 1.172,-6.034c0.655,8.102 7.305,14.504 15.497,14.736M273.765,120.457c0.754,1.864 1.172,3.899 1.172,6.034c0,7.616 -5.291,13.99 -12.39,15.638c-1.04781,-2.4606 -2.37449,-4.79285 -3.954,-6.951c8.045,-0.388 14.527,-6.728 15.172,-14.721" fill="#eeeeed"/></g></g></svg>