<svg xmlns="http://www.w3.org/2000/svg" width="71.371" height="111.696"><g fill-rule="evenodd" stroke-miterlimit="10" data-paper-data="{&quot;isPaintingLayer&quot;:true}" style="mix-blend-mode:normal"><path fill="#21221f" d="M52.489 79.309c-.06-.027-.6-.268-.718-.552a.276.276 0 0 1 0-.226c.046-.118.24-.112.543-.097.156.013.418.023.495-.015-.036-.06-.172-.192-.262-.285-.261-.252-.428-.416-.364-.56.053-.13.266-.121.583-.104.146 0 .377.015.457-.01-.038-.074-.192-.216-.279-.3-.254-.247-.408-.402-.351-.539.059-.137.279-.12.592-.118.139.006.362.014.44-.01a2.528 2.528 0 0 0-.28-.303c-.266-.243-.41-.393-.35-.53.061-.13.253-.13.594-.115.14.007.363.011.438-.015-.032-.069-.184-.213-.286-.302-.262-.247-.406-.39-.345-.528.053-.13.252-.13.607-.114.129 0 .347.006.425-.02-.036-.065-.196-.208-.283-.299-.262-.247-.404-.389-.353-.53.051-.127.254-.127.6-.117.142.006.36.013.432-.017-.034-.069-.184-.213-.29-.3-.262-.249-.402-.393-.35-.522.048-.139.255-.139.606-.13.131.004.351.014.43-.013-.04-.07-.193-.214-.293-.307-.264-.237-.406-.382-.357-.518.053-.131.264-.135.61-.131.13.01.354.01.432-.017-.09-.11-.19-.21-.298-.3-.262-.24-.406-.384-.351-.517.051-.129.252-.138.605-.129.133 0 .355.004.43-.023-.04-.068-.2-.214-.297-.303-.262-.241-.41-.376-.357-.513.052-.13.256-.137.6-.13.135 0 .355 0 .43-.025a2.673 2.673 0 0 0-.295-.302c-.264-.238-.406-.382-.351-.511.05-.135.254-.14.601-.135.137 0 .351 0 .429-.026-.04-.065-.2-.205-.3-.296-.264-.243-.41-.378-.357-.513.055-.131.249-.139.604-.139.134 0 .349 0 .423-.024-.034-.065-.197-.21-.294-.3-.264-.234-.406-.38-.357-.513.048-.13.245-.133.602-.133.138 0 .345 0 .425-.03-.038-.07-.196-.213-.302-.296-.26-.237-.416-.378-.363-.516.056-.128.255-.137.613-.137.13 0 .348-.004.42-.032-.036-.065-.201-.205-.304-.297-.26-.231-.412-.372-.366-.506.055-.13.264-.145.615-.145.127 0 .35 0 .423-.02-.042-.075-.205-.219-.304-.3-.265-.234-.413-.373-.368-.507.053-.139.254-.143.607-.15.131 0 .351 0 .425-.027-.04-.072-.203-.212-.305-.298-.266-.23-.416-.368-.364-.509.047-.127.244-.138.595-.146.139 0 .351 0 .43-.032-.037-.068-.21-.209-.304-.294-.27-.234-.422-.367-.37-.494.05-.142.244-.152.603-.157.133 0 .35-.008.425-.035-.044-.072-.203-.207-.311-.292-.262-.235-.42-.37-.368-.497.05-.137.246-.152.597-.16.145-.004.351-.011.427-.038-.038-.062-.207-.207-.309-.29-.27-.23-.414-.367-.372-.501.044-.13.254-.143.605-.158.13 0 .351-.004.422-.036-.04-.066-.203-.201-.306-.292-.27-.226-.429-.357-.377-.496.037-.135.248-.148.595-.161.133 0 .355-.011.431-.038a2.314 2.314 0 0 0-.313-.29c-.271-.22-.427-.357-.383-.5.047-.133.256-.144.607-.16.13-.005.345-.009.417-.035-.043-.072-.21-.21-.313-.29-.275-.225-.421-.36-.383-.496.053-.137.25-.148.601-.165.137-.006.35-.017.43-.044-.046-.07-.215-.2-.32-.285-.273-.226-.425-.353-.383-.493.044-.139.247-.15.598-.171.137-.002.347-.017.425-.042-.04-.072-.21-.201-.315-.283-.279-.224-.435-.353-.389-.49.046-.136.245-.155.6-.174.132-.008.347-.021.417-.051-.036-.067-.205-.205-.313-.283-.28-.219-.436-.35-.387-.482.038-.14.24-.16.59-.177.137-.011.351-.027.42-.055-.033-.068-.206-.197-.32-.283-.275-.214-.432-.345-.39-.482.047-.137.244-.154.595-.182a1.97 1.97 0 0 0 .424-.052c-.05-.07-.215-.199-.321-.279-.283-.21-.438-.341-.397-.482.04-.133.241-.16.594-.186.13-.005.347-.023.423-.055-.049-.066-.222-.195-.326-.273-.283-.215-.435-.338-.397-.482.038-.137.234-.156.592-.19a2.2 2.2 0 0 0 .418-.06c-.044-.07-.216-.19-.325-.272-.28-.213-.44-.336-.398-.475.03-.139.233-.161.582-.197.135-.016.351-.03.425-.063-.047-.066-.225-.19-.335-.27-.285-.205-.439-.328-.403-.472.042-.135.238-.164.587-.202.136-.013.35-.032.42-.064-.045-.063-.217-.19-.33-.264-.286-.21-.445-.336-.417-.47.042-.134.24-.166.592-.204.137-.017.344-.045.422-.074-.055-.068-.226-.186-.336-.268-.289-.199-.452-.318-.42-.459.036-.138.236-.17.589-.213.127-.013.349-.041.411-.08-.045-.056-.218-.178-.334-.26-.288-.195-.455-.318-.417-.453.027-.135.235-.173.584-.222.13-.02.338-.044.418-.078-.055-.064-.237-.184-.347-.256-.29-.196-.46-.313-.425-.448.028-.144.222-.179.576-.237.137-.02.348-.044.41-.082-.042-.065-.222-.182-.34-.254-.292-.188-.459-.304-.436-.443.036-.14.237-.18.585-.24.129-.018.335-.048.411-.088-.049-.057-.235-.177-.349-.247-.296-.18-.463-.296-.44-.437.03-.14.224-.186.57-.243.132-.028.339-.068.419-.106-.052-.059-.241-.17-.36-.241-.3-.175-.47-.283-.445-.427.027-.137.222-.188.571-.254.13-.023.338-.07.404-.11a1.94 1.94 0 0 0-.35-.23c-.314-.18-.48-.28-.454-.418.011-.144.21-.195.554-.273.13-.027.34-.07.41-.118a1.832 1.832 0 0 0-.372-.218c-.3-.173-.475-.272-.456-.41.016-.145.211-.203.558-.285.13-.032.327-.085.4-.13-.058-.052-.254-.15-.373-.216-.311-.155-.49-.254-.476-.389.017-.148.208-.21.56-.305.119-.034.322-.091.386-.135-.05-.059-.252-.152-.377-.21-.31-.14-.494-.232-.484-.377.004-.14.2-.205.535-.315.133-.038.326-.106.39-.15-.06-.057-.257-.142-.38-.193-.325-.13-.509-.217-.5-.352 0-.15.19-.22.518-.35.128-.044.323-.118.388-.17-.065-.045-.27-.12-.397-.17-.33-.113-.518-.183-.526-.321 0-.15.184-.232.507-.378.114-.051.31-.135.376-.196-.07-.041-.281-.1-.414-.14-.328-.09-.516-.148-.53-.294-.016-.14.156-.24.471-.407.116-.064.298-.16.359-.22-.078-.04-.287-.078-.421-.106-.348-.063-.534-.1-.566-.24-.023-.142.14-.257.429-.459.129-.085.324-.222.342-.273v.02l.178-.054c.038.154-.15.28-.42.457-.104.078-.294.207-.335.274.066.036.271.077.404.096.322.063.556.101.582.257.014.15-.18.258-.466.412-.116.066-.32.165-.37.226.066.045.265.102.4.132.307.093.54.158.552.316.01.148-.207.24-.487.368-.135.053-.336.144-.395.195.066.05.26.124.395.17.303.102.521.19.525.335 0 .15-.218.238-.514.348-.133.045-.34.12-.391.172.051.054.245.131.38.185.292.129.514.21.5.366 0 .152-.22.22-.533.319-.121.036-.334.112-.393.156.06.05.253.144.37.199.323.154.507.243.492.385-.015.15-.23.213-.539.3-.129.038-.341.099-.406.139.051.059.245.157.364.218.323.16.496.258.477.4-.012.149-.232.204-.543.278a2.6 2.6 0 0 0-.408.13c.051.06.239.162.355.227.313.174.49.27.47.412-.015.148-.25.2-.563.275-.127.024-.334.072-.404.114.049.055.239.165.354.233.304.173.479.28.456.422-.027.15-.249.193-.558.254-.137.03-.355.068-.417.108.053.065.235.177.352.24.295.185.471.292.448.434-.028.144-.231.182-.573.25-.133.016-.343.054-.415.094.05.066.235.178.347.248.294.19.469.296.438.443-.028.14-.22.178-.569.233-.13.025-.355.055-.417.095.053.057.23.177.34.249.295.197.466.31.436.446-.029.142-.228.173-.581.23-.133.019-.342.05-.414.089.05.062.226.18.334.252.302.201.465.317.433.456-.03.144-.232.176-.58.222-.137.017-.346.04-.422.083.053.065.228.18.336.26.3.198.457.318.429.458-.038.135-.234.167-.583.209-.134.017-.353.045-.423.078.046.064.23.188.332.265.29.204.456.327.416.462-.034.138-.237.169-.583.205-.13.017-.355.041-.42.074.043.064.225.197.325.271.289.201.456.323.418.467-.04.135-.234.165-.583.203-.138.012-.353.03-.429.065.054.063.219.193.329.271.288.207.45.33.411.465-.038.147-.24.164-.592.196-.136.017-.349.034-.419.074.044.065.216.188.325.27.28.21.44.336.4.476-.04.135-.235.16-.586.186-.139.011-.35.034-.43.065.05.068.227.195.323.273.293.213.446.347.406.48-.038.137-.242.158-.597.182-.131.016-.348.027-.412.06.04.07.205.2.311.278.285.213.438.346.399.479-.036.134-.243.163-.592.182-.135.015-.351.027-.427.059.05.062.216.193.32.283.285.21.442.341.395.48-.046.142-.24.15-.596.178-.134.008-.353.017-.423.05.042.066.207.203.317.28.279.223.436.354.389.487-.044.136-.245.157-.594.178-.135.004-.351.013-.421.048.04.066.209.203.31.284.284.224.428.351.388.49-.042.139-.245.148-.596.17a2.516 2.516 0 0 0-.429.043c.046.074.219.21.317.296.283.214.431.347.384.486-.04.135-.245.148-.596.167-.137.007-.35.01-.427.042.045.068.207.205.311.288.273.228.429.355.381.496-.043.132-.246.148-.6.159-.13.006-.344.015-.417.046.042.066.21.203.312.292.27.222.413.359.375.493-.05.135-.246.152-.601.156-.139.008-.353.012-.42.044.037.062.205.205.31.294.271.228.413.359.375.494-.05.134-.25.15-.609.157-.13.004-.35.008-.417.036.04.07.207.207.304.298.269.222.425.357.371.496-.043.134-.246.148-.593.155-.147 0-.353.006-.43.036.039.067.204.211.31.293.264.23.416.364.364.503-.045.133-.244.14-.597.144-.135.011-.351.011-.43.042.04.066.21.207.314.292.258.232.414.367.358.5-.049.138-.242.15-.597.157-.139 0-.355 0-.425.032.043.065.2.207.301.298.27.226.412.361.367.498-.042.14-.253.144-.604.148-.133 0-.347 0-.427.028.04.07.213.21.31.3.26.23.413.368.366.503-.053.137-.256.143-.607.143-.14 0-.351.007-.431.034.038.062.207.207.313.3.262.233.406.366.355.507-.046.134-.254.142-.602.142-.138 0-.354 0-.428.025.041.07.199.214.297.301.272.24.416.374.365.507-.053.131-.249.137-.607.137-.133 0-.348 0-.422.025.034.072.198.216.302.307.258.232.4.372.35.509-.046.135-.244.138-.61.135-.129 0-.345 0-.417.026.04.069.195.213.301.302.256.235.4.376.359.51-.059.135-.254.143-.62.135-.128 0-.34 0-.414.025.036.067.193.213.296.304.262.233.404.38.355.507-.055.138-.255.138-.615.138-.13 0-.344-.007-.42.017.04.073.204.217.297.304.258.241.404.384.352.516-.05.137-.25.137-.609.128-.136 0-.345-.008-.423.02.038.07.194.22.298.312.262.23.404.374.353.509-.053.132-.258.14-.618.129-.133 0-.34-.012-.422.017.038.07.196.22.3.31.258.242.402.379.347.514-.055.13-.258.136-.613.13-.134-.007-.347-.015-.425.016.04.068.196.216.302.307.258.241.395.384.344.511-.06.14-.264.14-.615.127-.13 0-.346-.007-.42.013.037.073.196.228.295.317.254.238.396.384.341.513-.051.127-.258.135-.62.12-.131-.004-.34-.01-.414.015.036.07.195.222.3.323.227.212.393.366.332.5-.051.137-.256.137-.623.126-.129 0-.335-.01-.411.011.034.07.2.226.298.327.233.212.394.37.335.507-.05.13-.273.127-.62.115-.129 0-.34-.007-.42.012.044.07.204.228.302.326.226.219.387.374.332.505-.064.135-.278.135-.64.126-.134-.008-.33-.016-.397.003.03.078.208.25.309.346.226.214.372.355.32.484-.068.156-.354.148-.686.131-.122-.004-.312-.019-.37 0a.076.076 0 0 0 .007.063c.069.172.412.372.617.455z"/><path fill="#ad6921" d="M48.824 106.196c1.684 1.043 2.906 3.175 1.464 4.91-1.086 1.22-2.7.252-3.916-.26-1.347-.646-2.886-1.092-4.104-1.929-.786-.55-1.715-1.148-2.253-1.97-.157-.255-.23-.501-.18-.75h8.988m-10.208 0c.053.233-.029.495-.186.75-.534.822-1.461 1.42-2.245 1.97-1.218.837-2.759 1.283-4.11 1.929-1.216.512-2.823 1.48-3.912.26-1.444-1.735-.222-3.859 1.466-4.909h-.007 8.994"/><path fill="#0b4768" d="m50.835 81.67-1.842 24.55h-9.3l-.351-17.746h-.271l-.352 17.746h-9.3l-1.836-24.549z"/><path fill="#ffdc83" d="M22.733 55.781c1.67-2.144 7.71-5.295 7.71-5.295s-2.79 5.097-3.3 7.364c-.066.284-.229 1.055-.371 1.458-.184.501-.702 1.136-1.488 2.266-1.598 2.252-3.093 11.783-3.093 11.783.038.062.074.126.106.192.45.46.83.983 1.127 1.554.862 1.629.95 3.272.2 3.672-.406.216-.964.026-1.533-.439-.609 1.088-1.573 1.756-2.579 1.656-1.533-.166-2.6-2.085-2.368-4.29.108-.93.406-1.76.846-2.4 0 .035-.027.065-.027.065v-.01s1.336-13.193 4.77-17.576M69.1 41.079c1.724.735 2.271 3.332 1.218 5.81-.666 1.585-1.835 2.737-3.032 3.168 0 0-3.22 9.116-6.006 10.131-2.271.824-10.246-2.424-10.246-2.424s-.639-2.481-.975-3.263c-.454-1.071-2.319-4.015-2.319-4.015l10.92 3.905 5.144-6.048a5.248 5.248 0 0 1-.196-.779c-.32-.598-.592-1.357-.762-2.192-.427-2.196.053-4.136 1.064-4.332.547-.105 1.133.309 1.619 1.055 1.098-1.055 2.443-1.484 3.571-1.016" data-paper-data="{&quot;origPos&quot;:null}"/><path fill="#fddfbb" d="M62.794 45.08c-.313-2.096.222-3.916 1.182-4.056.969-.149 2.009 1.431 2.319 3.531.311 2.095-.215 3.906-1.182 4.05-.969.15-2.009-1.437-2.319-3.525"/><path fill="#f7b90b" d="M57.238 53.593c.776 2.57-1.294 6.158-1.294 6.158L51.288 57.9c2.43 9.48 2.72 23.77 2.72 23.77h-29.78s.241-11.856 2.123-21.14l-.421.59s-4.345 0-5.107-3.049c0 0 2.198-4.738 9.75-7.65 1.947-1.196 6.837-1.374 6.837-1.374l1.641.058h.135l1.644-.087s4.315.207 6.45 1.235c7.705 2.287 9.958 3.34 9.958 3.34"/><path fill="#7b7b3e" d="M47.721 50.397s.286 7.185 3.546 7.453c2.427 9.472 2.714 23.755 2.714 23.755h.007l.06 1.893s-8.471 1.088-11 0c-1.355-.575-4.07-2.18-4.07-2.18s-2.974 1.614-4.399 2.18c-2.402.981-10.39 0-10.39 0l.04-1.906s.252-12.552 2.286-21.91c-.207.419 3.992-1.711 4.017-9.258v-.002c1.066-.678 3.057-1.048 4.618-1.238 0 0 .287 14.401 4.019 14.395 3.732-.013 3.947-14.395 3.947-14.395 1.58.19 3.578.545 4.618 1.238a.062.062 0 0 0-.013-.025"/><path fill="#565541" d="M32.594 64.112c0 .62-.5 1.13-1.127 1.13-.624 0-1.13-.506-1.132-1.13v-5.453a1.13 1.13 0 0 1 2.259 0v5.452z"/><path fill="#393828" d="M31.358 61.69c-.345 0-.719-.07-1.058-.284l.064-.105c.943.596 2.194.008 2.207 0l.053.112c-.042.01-.6.277-1.266.277m.291-1.069a.191.191 0 0 1-.195.188.188.188 0 0 1-.188-.188.19.19 0 0 1 .188-.19c.106 0 .195.083.195.19"/><path fill="#565541" d="M35.23 64.112c0 .62-.506 1.13-1.135 1.13-.63 0-1.136-.51-1.136-1.13v-5.453a1.13 1.13 0 0 1 1.136-1.126 1.13 1.13 0 0 1 1.135 1.126v5.452z"/><path fill="#393828" d="M33.991 61.69c-.344 0-.72-.07-1.057-.284l.066-.105c.936.596 2.188.008 2.203 0l.055.112c-.042.01-.6.277-1.267.277m.288-1.069a.191.191 0 0 1-.382 0c0-.107.09-.19.196-.19a.19.19 0 0 1 .186.19"/><path fill="#565541" d="M45.388 64.112c0 .62-.507 1.13-1.136 1.13a1.13 1.13 0 0 1-1.135-1.13v-5.453c0-.621.503-1.126 1.135-1.126.63 0 1.136.505 1.136 1.126v5.452z"/><path fill="#393828" d="M44.139 61.69a1.92 1.92 0 0 1-1.045-.284l.06-.105c.934.596 2.192.008 2.203 0l.053.112c-.036.01-.592.277-1.27.277m.287-1.069c0 .106-.077.188-.18.188a.19.19 0 0 1-.195-.188c0-.107.087-.19.195-.19.103 0 .18.083.18.19"/><path fill="#565541" d="M48.016 64.112a1.134 1.134 0 0 1-2.266 0v-5.453c0-.621.505-1.126 1.127-1.126a1.13 1.13 0 0 1 1.139 1.126v5.452z"/><path fill="#393828" d="M46.773 61.69c-.341 0-.713-.07-1.057-.284l.067-.105c.943.596 2.191.008 2.205 0l.05.112c-.031.01-.593.277-1.265.277m.288-1.069a.182.182 0 0 1-.184.188.185.185 0 0 1-.191-.188c0-.107.08-.19.191-.19.107 0 .184.083.184.19"/><path fill="#565541" d="M36.313 67.407h5.82v1.22h-5.82zm0 3.914h5.82v1.226h-5.82zm0 3.977h5.82v1.226h-5.82z"/><path fill="#21221f" d="M23.653 77.676h31.02v4.04h-31.02z"/><path fill="#333433" d="M27.667 85.312c-.688.68-3.846 0-3.846 0v-8.495h3.846s1.497 6.995 0 8.495m22.816 0c.686.68 3.868 0 3.868 0v-8.495h-3.879s-1.487 6.995.012 8.495m-17.485 0c-.683.68-3.24.746-3.838 0-1.338-1.65 0-8.495 0-8.495h3.838s1.5 6.995 0 8.495m5.389 0c-.68.68-3.24.746-3.845 0-1.332-1.65 0-8.495 0-8.495h3.845s1.499 6.995 0 8.495m5.275 0c-.673.68-3.233.746-3.84 0-1.338-1.65 0-8.495 0-8.495h3.84s1.501 6.995 0 8.495m5.28 0c-.674.68-3.236.746-3.843 0-1.336-1.65 0-8.495 0-8.495h3.842s1.503 6.995 0 8.495"/><path fill="#ffdc83" d="M37.434 50.366c-.998 0-1.806-2.142-1.806-3.123h7.1c0 .981-.814 3.123-1.808 3.123h-3.486" data-paper-data="{&quot;origPos&quot;:null}"/><path fill="#eeac6c" d="M36.475 49.707c-.4-.615-.765-1.456-.83-2.071 1.125.189 2.28.279 3.45.279 1.213 0 2.424-.101 3.62-.305l-.011.011-6.23 2.086"/><path fill="#d69d0b" d="M25.906 61.405c-1.015 1.012-5.292-.558-5.817-1.893-.465-1.182.759-2.934 1.62-3.117 1.294-.279 3.797.45 4.599 1.504.518.698.866 2.234-.402 3.506m33.322-6.716c.74 1.228-.482 5.108-1.818 5.632-1.174.469-3.115-.442-3.36-1.304-.425-1.499.702-5.057 2.026-5.879.74-.467 2.135-.122 3.152 1.551"/><path fill="#426883" d="M27.711 19.277s-4.454 16.29-18.01 17.153c-2.918.179-10.36-6.913-9.654-9.755 1.116-4.448 16.912-7.085 16.912-7.085z"/><path fill="#ffdc83" d="M60.213 29.779c1.096.697 1.818 1.9 1.818 3.265 0 2.162-1.828 3.924-4.07 3.924-.067 0-.131 0-.2-.008-3.65 6.548-10.641 10.974-18.667 10.974-8.03 0-15.022-4.438-18.672-10.993-.15.014-.302.027-.454.027-2.252 0-4.077-1.762-4.077-3.924 0-1.462.827-2.739 2.06-3.413a21.58 21.58 0 0 1-.217-3.066c0-11.803 9.57-21.375 21.36-21.375 11.793 0 21.358 9.572 21.358 21.375 0 1.094-.082 2.159-.239 3.214" data-paper-data="{&quot;origPos&quot;:null}"/><path fill="#80511f" d="M34.554 24.649s-.503 1.803-2.082 1.446c-.772-.174-.908-1.201-3.386-.74-.779.18-2.417 1.156-2.732 1.808-.316.652-.088-2.392 2.457-3.522 1.835-.675 2.457-.642 3.977-.642s1.987.907 1.766 1.65m9.741 0s.503 1.803 2.082 1.446c.772-.174.908-1.201 3.386-.74.779.18 2.417 1.156 2.732 1.808.316.652.087-2.392-2.457-3.522-1.835-.675-2.457-.642-3.977-.642s-1.987.907-1.766 1.65M32.243 31.999c0 1.657-.895 3-2 3s-2-1.343-2-3 .895-3 2-3 2 1.343 2 3m18 0c0 1.657-.895 3-2 3s-2-1.343-2-3 .895-3 2-3 2 1.343 2 3" data-paper-data="{&quot;origPos&quot;:null}"/><path fill="#eeac6c" d="M39.263 35.068c-1.125.153-3.02 1.834-3.02 1.834s.207-1.009.503-1.299c.8-1.156 2.487-1.604 2.487-1.604s2.173.703 2.65 1.588c.443.824.34 1.238.34 1.238s-2.121-1.871-2.96-1.756zM32.443 38.695s6.897 3.208 13.172-.397c0 0-1.39 5.47-5.95 5.561-4.115.122-4.984-1.492-5.477-1.956-.492-.463-1.42-1.772-1.745-3.208"/><path fill="#fff" d="M50.016 31.282c0 1.325-.79 2.404-1.776 2.404-.972 0-1.767-1.079-1.767-2.404 0-1.32.795-2.395 1.767-2.395.987 0 1.776 1.074 1.776 2.395"/><path fill="#343434" d="M49.344 31.944c0 .824-.493 1.487-1.104 1.487-.6 0-1.091-.663-1.091-1.487 0-.816.491-1.477 1.09-1.477.612 0 1.105.661 1.105 1.477"/><path fill="#80511f" d="M61.303 23.775c.034 2.513-.842 7.944-2.558 11.184 0 0-4.2-11.898-7.656-13.778-4.229-2.302-15.38 1.012-19.158-1.974-.632-.491-.554-1.615-.554-1.615s-.727 1.425-1.078 1.83c-1.825 2.08-6.578 5.1-8.831 6.723-1.817 1.303-1.899 1.291-1.5 8.814 0 0-3.329-6.849-3.144-11.42.049-1.312.688-4.233 1.722-7.2 3.763-7.548 11.55-12.73 20.548-12.73 10.341 0 19.081 6.838 21.951 16.238.149 1.304.235 2.615.258 3.928" data-paper-data="{&quot;origPos&quot;:null}"/><path fill="#6a97c0" d="M17.338 20.695C15.116 18.467 22.554 0 39.369 0 55.674 0 63.366 18.285 60.96 20.695c-22.646-5.873-43.622 0-43.622 0"/><path fill="#5a85a7" d="M17.338 20.695s-9.72 6.701-13.434 6.456c-.946-.068-2.038-1.334-3.686-.936 2.024-4.167 16.741-6.625 16.741-6.625l1.912.727z"/><path fill="#426883" d="M47.89 16.281c0-3.487 2.829-5.822 6.316-5.205 3.501.617 6.334 3.947 6.334 7.436l-12.65-2.23zm9.225 2.523a.29.29 0 0 1-.58 0c0-.161.134-.292.293-.292.156 0 .287.131.287.292m1.282.247a.287.287 0 1 1-.574-.008.287.287 0 0 1 .574.008m1.35.243a.286.286 0 0 1-.285.288.297.297 0 0 1-.302-.288c0-.156.14-.285.302-.285.156 0 .285.13.285.285"/><path fill="#696969" d="M57.502 25.391h9.85v4.89h-9.85z"/><path fill="#515151" d="M66.801 25.391h.184v2.447h-.184zm-.366 0h.18v2.447h-.18zm-.368 0h.178v2.447h-.178zm-.364 0h.182v2.447h-.182zm-.374 0h.188v2.447h-.188zm-.365 0h.185v2.447h-.185zm-.364 0h.18v2.447h-.18zm-.364 0h.182v2.447h-.182z"/><path fill="#333433" d="M61.966 31.632h-3.55v-6.37c0-.981.799-1.773 1.773-1.773h.015a1.77 1.77 0 0 1 1.763 1.773v6.371z"/><path fill="#515151" d="M56.895 52.208c0-.44 1.465-.788 3.285-.788 1.825 0 3.292.348 3.292.788 0 .437-1.467.788-3.292.788-1.82 0-3.285-.351-3.285-.787"/><path fill="#21221f" d="M55.971 51.95c-.349-.129-1.227-.856-1.227-.856h11.073s-.861.744-1.216.856c-2.06.65-6.607.752-8.63 0"/><path fill="#515151" d="M52.548 51.094s-3.28-16.813 0-20.87c2.457-3.05 12.891-2.77 15.656 0 3.688 3.689 0 20.87 0 20.87H52.548"/><path fill="#333433" d="M70.535 48.525c-1.008 1.465-2.94.919-2.94.919v-1.958s1.388.242 2.862-.941c.38.311.355 1.58.078 1.98"/><path fill="#21221f" d="M52.177 49.626c-1.732-1.732-1.536-7.89 0-9.792 2.492-3.08 13.046-2.802 15.846 0 1.732 1.737 1.905 8.256 0 9.792-3.08 2.49-13.043 2.806-15.846 0"/><path fill="#333433" d="M52.712 49.296c-1.62-1.617-1.436-7.366 0-9.142 2.33-2.882 12.17-2.622 14.79 0 1.617 1.615 1.78 7.703 0 9.142-2.878 2.323-12.181 2.618-14.79 0"/><path fill="#21221f" d="M54.985 44.954a5.19 5.19 0 0 0 5.178 5.185 5.192 5.192 0 0 0 5.182-5.185 5.19 5.19 0 0 0-5.182-5.182 5.186 5.186 0 0 0-5.178 5.182m-.065 0a5.24 5.24 0 1 1 10.481 0 5.245 5.245 0 0 1-5.238 5.245 5.249 5.249 0 0 1-5.243-5.245"/><path fill="#21221f" d="M55.584 44.954a4.58 4.58 0 1 1 9.157 0 4.575 4.575 0 0 1-4.578 4.579 4.576 4.576 0 0 1-4.579-4.579"/><path fill="#eeeeed" d="M63.417 46.797c.47-1.344-.101-4.687-2.683-5.131 3.487-.05 4.007 3.288 2.683 5.131"/><path fill="#333433" d="M50.275 31.264h12.243c1.21 0 2.208.988 2.208 2.208a2.21 2.21 0 0 1-2.208 2.197H50.275z"/><path fill="#e63744" d="M60.212 33.142a.56.56 0 0 1 .954-.396.555.555 0 0 1 .161.396.552.552 0 0 1-.554.556.556.556 0 0 1-.56-.556m-1.895 0a.558.558 0 1 1 1.116 0 .558.558 0 0 1-1.116 0"/><path fill="#6a97c0" d="M56.363 33.142a.557.557 0 1 1 1.116-.002.558.558 0 0 1-1.116.002"/><path fill="#009244" d="M54.459 33.142a.558.558 0 1 1 1.116-.004.558.558 0 0 1-1.116.004"/><path fill="#515151" d="M44.183 31.777a3.253 3.253 0 0 1 3.254-3.255 3.26 3.26 0 0 1 3.258 3.255 3.26 3.26 0 0 1-3.258 3.256 3.254 3.254 0 0 1-3.254-3.256"/><path fill="#333433" d="m51.935 31.292-.01 4.404h-1.65l-.865-1.223c-1.169.158-2.499.378-3.105-.085-1.764-1.365-1.569-4.078 0-5.148.932-.636 3.403-.242 4.507-.008a.523.523 0 0 1 .277.156h.004l.007.034c.004.013.004.036.019.053zm13.119 3.053a3.16 3.16 0 0 1 3.157-3.16 3.161 3.161 0 0 1 2.235 5.394 3.154 3.154 0 0 1-2.235.923 3.154 3.154 0 0 1-3.158-3.157"/><path fill="#21221f" d="M66.208 34.345a2.003 2.003 0 1 1 4.006.003 2.003 2.003 0 0 1-4.006-.003"/></g></svg>