<svg xmlns="http://www.w3.org/2000/svg" width="62.239" height="119.823"><g fill-rule="evenodd" stroke-miterlimit="10" data-paper-data="{&quot;isPaintingLayer&quot;:true}" style="mix-blend-mode:normal"><path fill="#ffd781" d="M37.01 62.697c2.42-1.337 12.62-8.955 14.53-11.452.584-.762 1.015-2.882 1.49-3.494.3-.678.575-1.36.634-2.042.15-1.749.57-1.52 1.053-1.089.282.252.219 1.99.185 3.083.817-.42 2.687-2.366 4.978-3.365 1.093.4-2.9 3.34-2.478 3.19 1.123-.398 3.366-2.536 4.26-2.243 1.307.428-3.206 2.21-3.707 3.415-.002.004 3.9-2.33 4.279-1.425.033.08-.094.215-.516.463-.593.347-2.82 1.72-3.228 1.961.853-.224 1.516-.41 2.352-.433 2.072-.058-1.788 1.375-2.22 1.53-1.416.51-3.903 1.936-4.964 3.062-3.977 6.23-19.18 26.123-21.605 12.694-.306-1.688 2.83-2.68 4.957-3.855m6.958 29.668c.6 1.052-2.693 15.587-1.134 20.421.55 1.707-3.016 8.47-5.324-1.417-.872-3.737-4.438-18.547-.215-19.52 1.465-.337 5.922-.803 6.674.516m-16.04 4.765c.183 1.195-8.118 13.604-8.4 18.672-.1 1.79-5.86 6.842-4.463-3.212.529-3.8 2.52-18.898 6.815-18.31 1.49.205 5.82 1.351 6.049 2.85" data-paper-data="{&quot;origPos&quot;:null}"/><path fill="#210001" d="M45.175 114.605c-1.764-4.708-4.672 1.304-6.628-.616-.393-.387-.51-.62-.603-.995-.265-1.07-.875 4.23-.696 4.996 1.618-.373 1.023.354 1.143-.768.015-.009 8.782 2.72 6.784-2.617m-23.68 2.442c-.57-4.99-4.85.15-6.282-2.184-.288-.469-.345-.723-.344-1.109.002-1.103-1.875 3.896-1.888 4.683 1.662.025.908.588 1.297-.472.016-.006 7.864 4.74 7.218-.918M40.56 54.004c6.574 7.496 8.2 46.236 3.409 54.858-1.9 3.42-.488 2.5-6.46 2.507-.296-.64-3.21-4.676-4.125-8.59-3.138-13.444-7.263.543-11.456 6.85-1.83 2.755-.254 5.948-7.464 1.576-2.028-1.23 4.28-47.767 8.655-52.145 3.78-3.784 11.908-9.779 16.86-5.858.36.286.365.554.58.802"/><path fill="#231916" d="M30.27 97.024c1.27 0 2.325 1.874 3.225 5.728.72 3.093 2.69 6.248 3.637 7.764.156.242.306.49.448.74 1.274 0 2.218.043 2.908.073.42.02.752.034 1.024.034 1.027 0 1.122-.183 1.737-1.383.16-.315.36-.705.62-1.173 2.203-3.963 3.224-15.13 2.544-27.79C45.853 70.63 44 58.1 40.473 54.078c-.093-.107-.15-.216-.205-.322a1.24 1.24 0 0 0-.36-.466c-1.052-.832-2.317-1.254-3.76-1.254-4.32 0-9.674 3.826-12.95 7.103-3.936 3.941-9.802 44-8.932 51.124.08.673.207.816.258.846 2.437 1.478 3.933 2.137 4.85 2.137.938 0 1.198-.726 1.558-1.73.216-.604.46-1.286.902-1.949.978-1.473 1.965-3.388 2.918-5.238 1.936-3.757 3.764-7.305 5.519-7.305m-10.897 16.448c-.961 0-2.494-.67-4.97-2.17-.177-.108-.293-.429-.365-1.012-.87-7.145 5.039-47.346 9-51.31 3.304-3.308 8.72-7.17 13.11-7.17 1.495 0 2.808.438 3.9 1.303.24.19.336.375.422.54.05.097.099.19.175.277 3.563 4.064 5.433 16.651 5.993 27.075.57 10.567-.006 23.295-2.57 27.912-.258.464-.457.853-.617 1.165-.625 1.218-.773 1.507-1.94 1.507-.277 0-.612-.014-1.034-.034-.688-.03-1.63-.072-2.898-.072h-.143l-.03-.066c-.06-.125-.23-.402-.47-.782-.951-1.527-2.934-4.702-3.664-7.832-.86-3.685-1.871-5.553-3.002-5.553-1.616 0-3.497 3.651-5.316 7.182-.957 1.856-1.946 3.776-2.932 5.26-.426.64-.666 1.31-.876 1.9-.378 1.05-.675 1.88-1.773 1.88"/><path fill="#6c2600" d="M39.885 49.528c-.73 5.981-26.228 48.94-27.831 48.746C-7.364 95.94-4.406 47.697 28.88 45.137c3.398-.262 11.285 2.1 11.005 4.39"/><path fill="#5d1b00" d="M40.53 49.618c1.37 5.87-7.84 54.894-9.413 55.257-19.054 4.39-32.846-41.958-2.44-55.653 3.104-1.398 11.328-1.85 11.853.396"/><path fill="#ffd781" d="M29.638 66.868c-.287 2.525.008 14.23.872 16.997.263.844 1.637 2.303 1.845 2.987.35.59.72 1.16 1.205 1.57 1.243 1.05.845 1.24.259 1.37-.342.075-1.622-.904-2.432-1.516-.12.836.35 3.276-.124 5.523-.89.602-.971-3.957-1.085-3.562-.3 1.053.114 3.874-.588 4.386-1.025.746.047-3.58-.595-4.602-.003-.003-.33 4.164-1.218 3.96-.076-.017-.112-.185-.072-.632.055-.63.21-3.028.247-3.464-.288.757-.503 1.352-.934 1.99-1.068 1.58-.081-2.074.033-2.48.374-1.33.628-3.954.345-5.35-2.58-6.313-9.48-28.34 1.984-22.948 1.442.678.51 3.552.258 5.771" data-paper-data="{&quot;origPos&quot;:null}"/><path fill="#6c2600" d="M22.974 65.628c-2.852 1.147 2.576-12.333 7.69-4.839 1.208 1.768.643 4.513.07 4.645-.03.007-4.183-1.246-7.76.194"/><path fill="#ffd781" d="M18.905 43.067c-5.375-22.434 32.612-28.46 36.875-10.84 5.568 23.014-32.951 27.223-36.875 10.84" data-paper-data="{&quot;origPos&quot;:null}"/><path fill="#fefefe" d="M48.365 33.406c.95-.18 4.18.452 3.564 3.13-.617 2.673-3.514 3.114-4.87 1.757-1.324-1.327-1.145-4.42 1.306-4.887"/><path fill="#210001" d="M46.33 37.008c-.01-.639-.244-1.212.193-2.195.875-1.974 3.463-2.014 5.178-1.259 1.512.666 1.978-1.142 1.59-.269-1.102 2.482-4.78-.347-6.36 2.164-.043.07-.6 1.575-.6 1.56"/><path fill="#231916" d="M48.94 34.25c.684-.13 3.004.323 2.56 2.245-.443 1.92-2.523 2.237-3.496 1.262-.951-.953-.823-3.174.937-3.508"/><path fill="#fefefe" d="M27.39 37.394c2.45-.466 3.768 2.343 3.03 4.062-.755 1.76-3.611 2.412-5.18.153-1.567-2.26 1.2-4.034 2.15-4.215"/><path fill="#231916" d="M27.854 38.507c1.69-.322 2.6 1.616 2.09 2.803-.52 1.214-2.492 1.665-3.573.105-1.083-1.56.826-2.784 1.483-2.908"/><path fill="#210001" d="M30.775 39.931c.004.014-.876-1.133-.932-1.18-2.028-1.74-4.432 1.658-6.043-.184-.565-.648.318.783 1.44-.188 1.272-1.1 3.312-1.66 4.592-.196.637.73.782 1.197.943 1.748"/><path fill="#f1c28c" d="M37.31 38.426c.873-.136-1.67-.04-1.524 2.462.147 2.502 3.112 2.96 1.404 2.546-2.95-.712-3.558-4.433.12-5.008"/><path fill="#6b4915" d="M45.023 30.183c1.293-1.532 3.46-1.942 4.924-.354.265.286.029.57-1.063.227-.927-.292-2.195-.262-3.088.133-.247.11-.486.467-.774.272-.01-.14-.11-.146 0-.278M29.26 33.056c-1.77-.95-3.937-.535-4.707 1.478-.14.362.186.54 1.072-.18.753-.61 1.942-1.049 2.92-1.009.27.011.625.255.82-.03-.043-.134.048-.177-.105-.259" data-paper-data="{&quot;origPos&quot;:null}"/><path fill="#fefefe" d="M48.424 35.554c.265-.05 1.165.126.993.873-.172.745-.98.868-1.357.49-.37-.37-.32-1.233.364-1.363m-20.268 4.147c.265-.05 1.165.126.993.872-.172.745-.98.868-1.357.49-.37-.37-.32-1.233.364-1.363"/><path fill="#6b4915" d="M23.092 23.403c5.9-5.02 15.254-6.704 22.604-4.245.526-2.224 5.682-5.894 8.899-1.129.94 1.395 1.532 4.528.137 5.73-.401.347-.776.643-1.13.893 2.225 2.952 3.45 6.94 3.07 12.05-9.23-19.137-16.71.342-30.254-6.987-.836-.453-4.196 3.026-5.818 7.372-1.481 3.97-.608 8.37-.925 7.696-2.41-5.119-2.785-9.609-1.778-13.377-.655-.19-1.4-.533-2.273-1.03-1.603-.91-1.636-4.097-.985-5.648 1.973-4.694 6.735-3.178 8.453-1.325" data-paper-data="{&quot;origPos&quot;:null}"/><path fill="#231916" d="M47.78 18.402c1.77 1.185 3.298 2.814 4.44 4.952.447.838 2.405 4.632 1.875 8-1.095-3.545-6.892-10.67-11.202-11.88-10.882-3.052-21.97 5.151-22.456 16.631-.063 1.48-1.69-7.218 1.552-12.49.003-5.378-.865-18.576-.232-18.548.059.002 2.106-2.883 2.514-1.78.18.486-1.723 1.54-1.893 2.802-.291 2.157 3.336-.825 2.876.708.108.387-1.58 2.338-1.752 3.565-.144 1.021 3.63-2.3 4.003-1.102.714 2.29.34 6.781-1.032 10.206 4.528-2.87 10.52-4.284 15.796-3.273-2.22-2.858-3.812-6.863-3.81-9.188.002-1.254 4.594.813 4.152-.12-.528-1.123-2.72-2.493-2.732-2.893-.895-1.33 3.457.456 2.537-1.52-.538-1.156-2.668-1.605-2.64-2.122.062-1.174 2.874.982 2.93.962.57-.202 3.426 11.575 5.073 17.09"/><path fill="#aa3e0a" d="M50.19 40.163c.058-.08-.096-.56-.351-.25-.19.228.176.5.352.25m.827 1.302c.057-.08-.097-.56-.353-.25-.188.227.176.5.353.25m-1.417-.08c-.096-.024-.294-.488.103-.418.292.052.194.493-.103.418m-.888-.723c-.095-.024-.293-.489.104-.418.292.051.194.492-.104.418m.088 1.142c-.096-.024-.294-.488.103-.418.292.051.194.492-.103.418m.426.75c-.096-.026-.294-.49.103-.42.292.051.194.493-.103.42m.848-.313c-.095-.024-.293-.488.104-.418.292.051.194.493-.104.418m1.3-.116c-.095-.024-.293-.488.104-.418.292.051.194.493-.104.418m-3.045.893c-.096-.024-.293-.488.103-.419.293.052.195.493-.103.42m-.65-1.707c-.094-.024-.292-.488.105-.418.292.051.193.493-.104.418m.223.89c-.096-.025-.294-.49.104-.42.29.051.193.493-.104.42m4.143-1.025c-.096-.024-.293-.488.103-.418.292.051.194.493-.103.418m-4.944 1.456c-.096-.024-.294-.488.104-.418.292.051.194.493-.104.418m4.233-2.392c.095.024.293.488-.104.418-.292-.05-.194-.493.104-.418m-22.922 3.746c.057-.08-.097-.56-.353-.25-.188.227.177.5.353.25m.827 1.302c.056-.08-.098-.56-.353-.25-.188.227.176.5.353.25m-1.418-.08c-.095-.024-.293-.488.104-.418.292.051.194.493-.104.418m-.887-.724c-.096-.024-.293-.488.103-.418.293.051.195.493-.103.418m.087 1.143c-.095-.024-.293-.488.104-.419.292.052.194.493-.104.42m.427.747c-.096-.024-.294-.488.103-.418.292.051.194.493-.103.418m.849-.31c-.096-.025-.294-.489.103-.419.292.051.194.492-.103.418m1.299-.116c-.096-.024-.293-.488.103-.418.293.05.194.492-.103.418m-3.045.893c-.096-.024-.293-.488.103-.42.293.052.195.494-.103.42m-.65-1.706c-.095-.024-.292-.488.104-.418.292.051.194.493-.103.418m.222.888c-.095-.024-.293-.488.104-.418.292.051.194.493-.104.418m4.144-1.023c-.096-.024-.294-.488.103-.418.292.051.194.492-.103.418m-4.944 1.456c-.096-.025-.293-.488.103-.419.293.052.194.493-.103.42m4.233-2.394c.095.024.292.488-.104.42-.293-.053-.194-.495.104-.42"/><path fill="#ee8785" d="M33.028 46.844c-.335-.376 3.143-.746 5.66-1.41 3.043-.8 6.009-1.776 5.823-1.37-3.284 7.177-10.654 3.711-11.483 2.78"/><path fill="#d76b6c" d="M37.32 48.357c-.006-1.452 3.536-2.33 4.74-1.292-.55.452-1.272.96-2.154 1.216-.9.263-1.9.165-2.585.076"/><path fill="#fefefe" d="M42.293 45.344c-.468.151-3.243 1.082-3.603.09-.023 1.183-4.002 1.951-4.273 1.76-.023-.017-.634-.377-1.003-.634 1.573-.527 10.106-2.447 10.113-2.425.229.764-.63 1.014-1.234 1.21"/></g></svg>