<svg xmlns="http://www.w3.org/2000/svg" width="68.39" height="119.432"><g fill-rule="evenodd" stroke-miterlimit="10" data-paper-data="{&quot;isPaintingLayer&quot;:true}" style="mix-blend-mode:normal"><path fill="#757575" d="M11.327 106.962V88.888s.782-25.59 9.107-31.35c2.242-1.553 11.32-1.811 11.32-1.811l2.547.081h.214l2.547-.068s9.078.214 11.32 1.764c8.321 5.762 9.089 31.368 9.089 31.368v18.09z"/><path fill="#c9c9c9" d="M11.328 103.727h46.145v3.236H11.328z"/><path fill="#9f9480" d="M24.716 113.869c-1.71 1.058-2.952 3.204-1.486 4.963 1.104 1.241 2.734.254 3.972-.271 1.364-.652 2.926-1.114 4.164-1.963.801-.562 1.738-1.153 2.278-1.986.167-.258.246-.494.187-.743zm19.475 0c1.71 1.058 2.952 3.204 1.486 4.963-1.106 1.241-2.734.254-3.972-.271-1.366-.652-2.928-1.114-4.166-1.963-.8-.562-1.739-1.153-2.278-1.986-.167-.258-.246-.494-.185-.743z"/><path fill="#343434" d="m46.243 88.915-1.86 24.953h-9.434l-.362-18.045h-.271l-.361 18.045h-9.434L22.66 88.915zM19.244 88.915h.039s.51-25.596 5.952-31.356c1.465-1.555 7.402-1.832 7.402-1.832l1.666.08h.14l1.666-.054s5.935.221 7.4 1.77c5.445 5.764 5.955 31.392 5.955 31.392h.007z"/><path fill="#c9c9c9" d="M49.366 86.177c.077 1.682.097 2.737.097 2.737H19.282c.021-.913.054-1.825.097-2.737z"/><path fill="#ad6922" d="M19.573 82.691c.088-1.367.204-2.862.348-4.417h28.903c.138 1.47.255 2.943.349 4.417h-29.6"/><path fill="#f7b90b" d="M37.585 82.868c-1.27 1.277-5.797 1.134-7.199 0-.94-.76-.853-3.996 0-4.854 1.274-1.275 6.068-1.404 7.199 0 .763.944.858 3.996 0 4.854"/><path fill="#ad6922" d="m14.097 86.489 4.83 25.752-.953 6.249-2.303-5.712-3.52-25.968z"/><path fill="#7a4310" d="m16.168 86.778-6.065.999-.37-2.273 1.836-.302-.743-4.544 2.387-.394.747 4.545 1.836-.304z"/><path fill="#ad6922" d="M13.851 79.538c.165 1.01-.574 1.972-1.65 2.148-1.08.177-2.087-.495-2.254-1.503-.165-1.01.573-1.972 1.653-2.15 1.077-.18 2.086.497 2.251 1.505"/><path fill="#4f2a11" d="M46.516 64.705c-.52-2.296-3.356-7.483-3.356-7.483s6.111 3.208 7.804 5.377c3.48 4.461 4.812 17.864 4.812 17.864l-4.53-.002s-1.226-9.683-2.84-11.973c-.809-1.145-1.33-1.788-1.515-2.298-.147-.407-.31-1.191-.375-1.486"/><path fill="#fddfbb" d="M56.631 82.841c.235 2.242-.831 4.191-2.389 4.359-1.016.106-1.987-.574-2.606-1.684-.578.48-1.147.667-1.556.45-.761-.406-.671-2.076.203-3.734a6.419 6.419 0 0 1 1.143-1.571c.034-.07.07-.131.106-.199l4.243.002-.007-.059c.449.648.766 1.492.863 2.436"/><path fill="#4f2a11" d="M22.277 64.704c-.064.295-.23 1.079-.375 1.486-.185.51-.707 1.153-1.515 2.298-1.615 2.29-2.84 11.973-2.84 11.973l-4.53.002s1.334-13.403 4.811-17.864c1.694-2.169 7.804-5.377 7.804-5.377s-2.838 5.187-3.355 7.483"/><path fill="#9b6c40" d="M12.162 82.841c.1-.944.415-1.788.862-2.436l-.006.059 4.245-.002c.034.068.07.129.104.199.406.4.808.94 1.144 1.571.872 1.658.962 3.328.2 3.734-.407.217-.979.03-1.554-.45-.62 1.11-1.59 1.79-2.606 1.684-1.558-.168-2.626-2.117-2.39-4.359" data-paper-data="{&quot;origPos&quot;:null}"/><path fill="#c1b69c" d="M22.965 114.118v-11.244c0-2.748 2.228-4.935 4.97-4.935h1.368a4.93 4.93 0 0 1 4.957 4.935v11.244z"/><path fill="#4f2a11" d="m33.39 106.104-4.67-3.093-4.738 3.847 4.668 3.09zm.869-.838v1.644l-4.582 3.722 4.582 3.037v.45h-1.515l-4.024-2.665-3.286 2.665H23.56l4.125-3.369-4.667-3.114-.054.039v-1.519l4.721-3.829-3.705-2.457c.24-.322.52-.612.833-.865l3.836 2.545 3.44-2.793c.331.226.634.49.901.79l-3.313 2.685z"/><path fill="#c1b69c" d="M34.694 114.118v-11.244c0-2.748 2.229-4.935 4.97-4.935h1.368a4.931 4.931 0 0 1 4.959 4.935v11.244z"/><path fill="#4f2a11" d="m44.984 106.858-4.737-3.847-4.67 3.093 4.74 3.844zm1.008-.671v1.488l-4.713 3.074 4.125 3.37H43.53l-3.283-2.665-4.023 2.664h-1.53v-.45l4.584-3.036-4.584-3.722v-1.644l4.589-3.034-3.308-2.686c.267-.3.57-.565.903-.79l3.439 2.794 3.837-2.545c.312.253.591.544.833.865l-3.71 2.457z"/><path fill="#c1b69c" d="m12.096 80.563 1.472-9.7a3.262 3.262 0 0 1 3.638-2.835h.004a3.269 3.269 0 0 1 2.827 3.646l-1.474 9.697z"/><path fill="#4f2a11" d="m15.992 76.806 2.831-1.46-2.418-2.117-2.834 1.462zm3.664-2.633-.171 1.125-.217 1.426-2.118 1.092 1.725 1.505-.255 1.676-2.838-2.477-3.663 1.888.266-1.746 2.24-1.152-1.824-1.592.167-1.106.237-1.54 2.04-1.053-1.66-1.449c.078-.523.28-.999.568-1.405l2.46 2.15 3.145-1.624c.21.455.313.952.3 1.453l-2.287 1.18z"/><path fill="#c1b69c" d="m50.212 81.371-1.474-9.697a3.266 3.266 0 0 1 2.827-3.646h.002a3.265 3.265 0 0 1 3.64 2.835l1.47 9.7z"/><path fill="#4f2a11" d="m55.203 74.69-2.834-1.46-2.42 2.115 2.834 1.46zm-4.199-2.164-2.29-1.183c-.012-.5.09-.996.302-1.45l3.148 1.623 2.456-2.149c.297.416.492.896.57 1.402l-1.662 1.451 2.041 1.05.235 1.54.169 1.107-1.824 1.595 2.242 1.15.264 1.748-3.665-1.889-2.836 2.475-.253-1.676 1.723-1.503-2.118-1.091-.218-1.429-.17-1.123z"/><path fill="#c69060" d="M67.263 85.284c0 6.385-5.163 11.563-11.531 11.563-6.372 0-11.534-5.178-11.534-11.563 0-6.384 5.162-11.563 11.534-11.563 6.368 0 11.532 5.179 11.532 11.563"/><path fill="#752e3e" d="m66.757 89.787-1.364 2.167-1.727 2.199-6.587-6.24 1.393 8.948-2.741.301-2.597-.299 1.255-9-6.41 6.321-1.782-1.954-1.33-2.395 8.678-4.567-8.696-4.528 1.249-2.33 1.843-2.035 6.44 6.296-1.247-8.941h5.338l-1.375 8.851 6.528-6.239 3.114 4.35-9.026 4.567z"/><path fill="#4f2a11" d="M55.731 96.849c6.368 0 11.532-5.179 11.532-11.563 0-6.388-5.164-11.566-11.532-11.566-6.37 0-11.532 5.178-11.532 11.566 0 6.384 5.162 11.563 11.532 11.563m0-23.717c6.693 0 12.117 5.44 12.117 12.154 0 6.708-5.424 12.151-12.116 12.151-6.694 0-12.12-5.443-12.12-12.151 0-6.714 5.426-12.154 12.119-12.154"/><path fill="#4f2a11" d="M58.92 85.284c0 1.766-1.427 3.2-3.189 3.2a3.196 3.196 0 0 1-3.19-3.2 3.194 3.194 0 0 1 3.19-3.197 3.192 3.192 0 0 1 3.189 3.197"/><path fill="#9b6c40" d="M55.747 36.125c1.11.714 1.84 1.934 1.84 3.315 0 2.205-1.85 3.99-4.133 3.99-.065 0-.13-.003-.196-.005-3.698 6.648-10.784 11.144-18.918 11.144-8.143 0-15.233-4.505-18.929-11.167a4.345 4.345 0 0 1-.457.028c-2.284 0-4.134-1.785-4.134-3.99 0-1.483.842-2.78 2.09-3.464a21.943 21.943 0 0 1-.22-3.115c0-11.99 9.694-21.71 21.65-21.71 11.956 0 21.65 9.72 21.65 21.71 0 1.093-.082 2.184-.244 3.264" data-paper-data="{&quot;origPos&quot;:null}"/><path fill="#653310" d="M28.682 31.64c-.772-.174-.908-1.201-3.386-.74-.779.18-2.417 1.156-2.732 1.808-.316.652-.088-2.392 2.457-3.522 1.835-.675 2.457-.642 3.977-.642s1.987.907 1.766 1.65c0 0-.503 1.803-2.082 1.446zm13.905 0c.772-.174.908-1.201 3.386-.74.779.18 2.417 1.156 2.732 1.808.316.652.087-2.392-2.457-3.522-1.835-.675-2.457-.642-3.977-.642s-1.987.907-1.766 1.65c0 0 .503 1.803 2.082 1.446zM28.453 37.544c0 1.657-.895 3-2 3s-2-1.343-2-3 .895-3 2-3 2 1.343 2 3m18 0c0 1.657-.895 3-2 3s-2-1.343-2-3 .895-3 2-3 2 1.343 2 3" data-paper-data="{&quot;origPos&quot;:null}"/><path fill="#eeac6c" d="M35.473 40.613c-1.125.153-3.02 1.834-3.02 1.834s.207-1.009.503-1.299c.8-1.156 2.487-1.604 2.487-1.604s2.173.703 2.65 1.588c.443.824.34 1.238.34 1.238s-2.121-1.871-2.96-1.756zM28.653 44.24s6.897 3.208 13.172-.397c0 0-1.39 5.47-5.95 5.561-4.115.122-4.984-1.492-5.477-1.956-.492-.463-1.42-1.772-1.745-3.208"/><path fill="#653310" d="M56.851 30.032c.027 2.01-.519 20.422-1.603 23.572-.289.847-.617-12.918-.985-12.218 0 0-4.258-12.083-7.767-13.996-4.286-2.34-15.59 1.032-19.422-2-.635-.502-.565-1.644-.565-1.644s-.731 1.452-1.086 1.857c-1.856 2.119-10.875 8.142-10.47 15.783 0 0-.296 13.893-.705 12.92-.98-2.326-2.616-21.245-2.486-24.512.055-1.338.702-4.304 1.755-7.32C17.323 14.808 25.22 9.539 34.343 9.539c10.479 0 19.34 6.949 22.251 16.503a44.09 44.09 0 0 1 .257 3.99" data-paper-data="{&quot;origPos&quot;:null}"/><path fill="#9b6c40" d="M32.651 57.239c-1.009 0-1.83-2.178-1.83-3.172h7.198c0 .994-.817 3.172-1.831 3.172h-3.536" data-paper-data="{&quot;origPos&quot;:null}"/><path fill="#eeac6c" d="M31.596 56.387a5.18 5.18 0 0 1-.759-2.1c2.376.384 4.799.374 7.172-.028l-.013.012-6.4 2.117" data-paper-data="{&quot;origPos&quot;:null}"/><path fill="#c1b69c" d="M20.138 57.742c.097-.073.195-.144.296-.212 1.903-1.318 8.727-1.715 10.753-1.8.817.767 2.696 2.83 1.253 4.38-1.807 1.944-7.395.555-7.98-.636-.391-.794-2.782-1.41-4.322-1.732m16.285 2.368c-1.434-1.542.415-3.586 1.241-4.37 2.06.084 8.828.454 10.72 1.764.112.076.221.157.327.242-1.535.32-3.918.936-4.308 1.728-.585 1.191-6.174 2.579-7.98.636" data-paper-data="{&quot;origPos&quot;:null}"/><path fill="#ad6922" d="M31.296 59.561a1.339 1.339 0 1 1-2.678 0 1.339 1.339 0 0 1 2.678 0m8.812 0a1.34 1.34 0 1 1-2.679 0 1.34 1.34 0 1 1 2.679 0"/><path fill="#965925" d="M56.298 22.399c-22.068 1.979-22.479 1.981-43.875.016 3.442-8.778 11.966-18.414 21.94-18.414 9.967 0 18.493 9.627 21.935 18.398"/><path fill="#7a4310" d="M56.853 22.35s1.87 7.266.003 7.653c-22.543 4.673-22.54 4.673-45.119 0-1.872-.387-.002-7.653-.002-7.653 9.111.838 14.519 1.334 19.236 1.486V3.286h6.393v20.543c4.776-.159 10.254-.652 19.489-1.479"/><path fill="#434344" d="M35.613 21.279a1.39 1.39 0 0 1-1.386 1.393 1.392 1.392 0 0 1 0-2.783c.768 0 1.387.625 1.387 1.39m-.001-6.968a1.387 1.387 0 1 1-2.775 0c0-.768.624-1.392 1.39-1.392a1.39 1.39 0 0 1 1.386 1.392m-.001-6.16c0 .767-.618 1.388-1.386 1.388a1.391 1.391 0 0 1 0-2.78c.768 0 1.387.622 1.387 1.392"/><path fill="#eeeeed" d="M16.669 14.736a35.162 35.162 0 0 0-3.974 7.005C5.444 20.21 0 13.76 0 6.034A16.043 16.043 0 0 1 1.172 0c.655 8.102 7.305 14.504 15.497 14.736M67.218.001a16.05 16.05 0 0 1 1.172 6.034c0 7.616-5.291 13.99-12.39 15.638a34.963 34.963 0 0 0-3.954-6.951c8.045-.388 14.527-6.728 15.172-14.721"/></g></svg>