<svg version="1.1" xmlns="http://www.w3.org/2000/svg" xmlns:xlink="http://www.w3.org/1999/xlink" width="56.53632" height="113.05854" viewBox="0,0,56.53632,113.05854"><g transform="translate(-211.96768,-123.504)"><g data-paper-data="{&quot;isPaintingLayer&quot;:true}" fill-rule="evenodd" stroke="none" stroke-width="1" stroke-linecap="butt" stroke-linejoin="miter" stroke-miterlimit="10" stroke-dasharray="" stroke-dashoffset="0" style="mix-blend-mode: normal"><path d="M236.721,173.527c0,0.67986 -0.55114,1.231 -1.231,1.231c-0.67986,0 -1.231,-0.55114 -1.231,-1.231v-8.398c0,-0.68014 0.55136,-1.2315 1.2315,-1.2315c0.68014,0 1.2315,0.55136 1.2315,1.2315v8.398z" fill="#616160"/><path d="M229.963,208.107v-32.801c0.0008,-1.30221 0.51886,-2.55077 1.44023,-3.47102c0.92137,-0.92024 2.17056,-1.43678 3.47277,-1.43598h1.233c2.70866,0.00221 4.90345,2.19834 4.904,4.907v32.801z" fill="#f7b90b"/><path d="M229.964,186.097h11.05v4.233h-11.05zM229.964,197.44h11.05v4.23h-11.05zM229.655,165.002h3.2v1.348h-3.2z" fill="#616160"/><path d="M235.955,166.382c-0.00386,1.37262 -1.11738,2.48345 -2.49,2.484c-0.6593,0.00133 -1.29199,-0.25992 -1.75828,-0.72602c-0.46629,-0.4661 -0.72779,-1.09869 -0.72672,-1.75798c-0.0008,-0.65895 0.26068,-1.29113 0.72673,-1.75698c0.46604,-0.46585 1.09832,-0.72708 1.75727,-0.72602c1.37262,-0.00001 2.48659,1.11038 2.491,2.483" fill="#c6c5c6"/><path d="M252.421,165.129c0,-0.675 0.558,-1.228 1.239,-1.228c0.676,0 1.222,0.553 1.222,1.228v8.398c0,0.675 -0.546,1.228 -1.222,1.228c-0.681,0 -1.239,-0.553 -1.239,-1.228z" fill="#616160"/><path d="M248.127,208.107v-32.801c0.00079,-1.30273 0.51927,-2.55175 1.44129,-3.47208c0.92202,-0.92033 2.17198,-1.43651 3.47471,-1.43492h1.23c2.702,0 4.902,2.195 4.902,4.907v32.801z" fill="#f7b90b"/><path d="M248.126,186.097h11.048v4.233h-11.048zM248.126,197.44h11.048v4.23h-11.048zM256.295,165.002h3.193v1.348h-3.193z" fill="#616160"/><path d="M253.2,166.382c0,-1.37188 1.11212,-2.484 2.484,-2.484c1.37188,0 2.484,1.11212 2.484,2.484c0,1.37188 -1.11212,2.484 -2.484,2.484c-0.65912,0.00106 -1.29156,-0.2603 -1.75763,-0.72637c-0.46607,-0.46607 -0.72744,-1.0985 -0.72637,-1.75763" fill="#c6c5c6"/><path d="M266.173,195.118v-0.005zM261.872,195.118c0,0 -1.529,-9.78 -3.167,-12.088c-0.815,-1.158 -1.85,-2.083 -2.043,-2.6c1.277,9.691 -0.151,23.139 -0.151,23.139l-1.63,14.103l-0.442,11.162h-0.005c1.732,1.043 2.986,3.254 1.503,5.028c-1.121,1.256 -2.769,0.261 -4.023,-0.264c-1.382,-0.66 -2.963,-1.118 -4.225,-1.978c-0.807,-0.564 -1.759,-1.183 -2.307,-2.023c-0.168,-0.26 -0.246,-0.521 -0.184,-0.763h-0.01v-11.158l-0.485,-7.175h-0.282l-0.459,7.171v11.162h-0.03c0.063,0.242 -0.019,0.503 -0.187,0.763c-0.546,0.841 -1.496,1.459 -2.31,2.023c-1.254,0.86 -2.836,1.318 -4.224,1.978c-1.248,0.524 -2.9,1.519 -4.017,0.264c-1.483,-1.778 -0.229,-3.985 1.501,-5.028h-0.007l-0.43,-11.158v-0.004l-1.637,-14.102h-0.004c0,0 -1.677,-14.816 -0.08,-24.53c-0.087,0.032 -8.496,3.419 -10.806,2.577c-2.874,-1.035 -6.174,-10.393 -6.174,-10.393v-0.007c-1.238,-0.436 3.654,-1.982 3.564,-1.742l5.289,6.205l11.153,-3.992c1.273,-0.892 4.085,-1.289 5.775,-1.454c-0.278,-0.626 -0.455,-1.301 -0.455,-1.8h7.301c0,0.499 -0.179,1.185 -0.472,1.82c1.73,0.16 4.504,0.546 5.737,1.439c0.652,0.345 6.236,3.335 7.85,5.4c3.405,4.345 4.771,17.107 4.866,17.987v-0.005c0.451,0.646 -4.333,0.116 -4.293,0.043z" fill="#333433"/><path d="M220.608,233.785c3.62,4.016 13.04,2.495 13.04,2.495c0,0 11.151,-4.184 10.401,-7.117c-0.564,-2.2 -4.634,2.106 -9.354,-0.33c-7.512,-0.696 -14.086,4.952 -14.086,4.952M268.504,233.785c-3.603,4.016 -13.036,2.495 -13.036,2.495c0,0 -11.149,-4.184 -10.397,-7.117c0.56,-2.2 4.648,2.106 9.356,-0.33c7.52,-0.696 14.077,4.952 14.077,4.952" fill="#0771b7"/><path d="M234.817,203.604h-1.637l2.705,14.073zM254.308,203.604h1.643l-2.705,14.073z" fill="#61c6f1"/><path d="M256.86,199.403c-0.165,2.536 -0.35,4.166 -0.35,4.166h-23.893c0,0 -0.189,-1.629 -0.373,-4.166z" fill="#434344"/><path d="M237.641,203.48c0,1.10319 -0.89431,1.9975 -1.9975,1.9975c-1.10319,0 -1.9975,-0.89431 -1.9975,-1.9975v-3.68c0,-1.1 0.9,-1.997 1.999,-1.997c1.096,0 1.996,0.897 1.996,1.996v3.68zM242.797,203.48c-0.00276,1.09992 -0.89608,1.98966 -1.996,1.988c-1.10214,0.00332 -1.99859,-0.88687 -2.003,-1.989v-3.679c0.02431,-1.08687 0.91236,-1.95528 1.9995,-1.95528c1.08714,0 1.97519,0.86841 1.9995,1.95528zM250.341,203.48c-0.00028,1.10181 -0.89369,1.99478 -1.9955,1.9945c-1.10181,-0.00028 -1.99478,-0.89369 -1.9945,-1.9955v-3.679c0,-1.099 0.892,-1.996 2,-1.996c1.09,0 1.99,0.897 1.99,1.996zM255.493,203.48c-0.0011,1.09788 -0.89112,1.98745 -1.989,1.988c-0.52883,0.00159 -1.03659,-0.20716 -1.41138,-0.58026c-0.37478,-0.3731 -0.58583,-0.87991 -0.58662,-1.40874v-3.679c0,-1.099 0.893,-1.996 1.998,-1.996c1.097,0 1.99,0.897 1.99,1.996v3.68z" fill="#616160"/><path d="M213.73,162.124c1.122,-0.473 2.468,-0.04 3.568,1.012c0.495,-0.738 1.088,-1.156 1.627,-1.052c1.02,0.196 1.488,2.14 1.06,4.338c-0.158,0.835 -0.428,1.592 -0.754,2.189c-0.178,1.165 -0.774,2.101 -1.705,2.49c-1.726,0.73 -3.974,-0.688 -5.022,-3.167c-1.053,-2.474 -0.509,-5.074 1.225,-5.81M266.928,197.526c-0.238,-2.208 -1.673,-3.868 -3.211,-3.705c-0.83,0.082 -1.515,0.68 -1.94,1.552c-0.45149,0.45624 -0.83236,0.97731 -1.13,1.546c-0.864,1.633 -0.957,3.286 -0.198,3.681c0.402,0.213 0.967,0.025 1.536,-0.443c0.615,1.092 1.572,1.761 2.579,1.66c1.538,-0.163 2.586,-2.087 2.364,-4.291" data-paper-data="{&quot;origPos&quot;:null}" fill="#9e6d3f"/><path d="M240.217,170.366c0.522,4.809 -5.475,14.426 -8.364,18.748c-0.00105,-1.23774 0.02462,-2.47536 0.077,-3.712c2.545,-4.153 5.68,-10.056 6.22,-14.676c0.68299,-0.15226 1.37275,-0.2724 2.067,-0.36M257.081,185.246c0.06762,1.25492 0.10497,2.51128 0.112,3.768c-2.916,-4.361 -8.812,-13.85 -8.306,-18.629c0.69747,0.0873 1.39055,0.20677 2.077,0.358c0.538,4.558 3.595,10.367 6.116,14.503" fill="#616160"/><path d="M266.146,150.353c1.125,0.719 1.865,1.957 1.865,3.355c0,2.22 -1.875,4.02 -4.191,4.02c-0.064,0 -0.129,0 -0.194,-0.006c-3.753,6.715 -10.93,11.258 -19.176,11.258c-8.25,0 -15.437,-4.55 -19.181,-11.276c-0.158,0.019 -0.314,0.025 -0.47,0.025c-2.314,0 -4.19,-1.8 -4.19,-4.02c0,-1.501 0.862,-2.809 2.12,-3.507c-0.141,-1.025 -0.219,-2.079 -0.219,-3.142c0,-12.115 9.824,-21.93 21.938,-21.93c12.122,0 21.943,9.815 21.943,21.93c0,1.114 -0.084,2.221 -0.246,3.294" data-paper-data="{&quot;origPos&quot;:null}" fill="#9e6d3f"/><path d="M240.311,143.65c0,0 -0.503,1.803 -2.082,1.446c-0.772,-0.174 -0.908,-1.201 -3.386,-0.74c-0.779,0.18 -2.417,1.156 -2.732,1.808c-0.316,0.652 -0.088,-2.392 2.457,-3.522c1.835,-0.675 2.457,-0.642 3.977,-0.642c1.52,0 1.987,0.907 1.766,1.65M250.052,143.65c0,0 0.503,1.803 2.082,1.446c0.772,-0.174 0.908,-1.201 3.386,-0.74c0.779,0.18 2.417,1.156 2.732,1.808c0.316,0.652 0.087,-2.392 -2.457,-3.522c-1.835,-0.675 -2.457,-0.642 -3.977,-0.642c-1.52,0 -1.987,0.907 -1.766,1.65" data-paper-data="{&quot;origPos&quot;:null}" fill="#462a0d"/><path d="M238,151c0,1.657 -0.895,3 -2,3c-1.105,0 -2,-1.343 -2,-3c0,-1.657 0.895,-3 2,-3c1.105,0 2,1.343 2,3M256,151c0,1.657 -0.895,3 -2,3c-1.105,0 -2,-1.343 -2,-3c0,-1.657 0.895,-3 2,-3c1.105,0 2,1.343 2,3" data-paper-data="{&quot;origPos&quot;:null}" fill="#462a0d"/><path d="M245.02,154.069c-1.125,0.153 -3.02,1.834 -3.02,1.834c0,0 0.207,-1.009 0.503,-1.299c0.8,-1.156 2.487,-1.604 2.487,-1.604c0,0 2.173,0.703 2.65,1.588c0.443,0.824 0.34,1.238 0.34,1.238c0,0 -2.121,-1.871 -2.96,-1.756z" fill="#eeac6c"/><path d="M238.2,157.696c0,0 6.897,3.208 13.172,-0.397c0,0 -1.39,5.47 -5.95,5.561c-4.115,0.122 -4.984,-1.492 -5.477,-1.956c-0.492,-0.463 -1.42,-1.772 -1.745,-3.208" data-paper-data="{&quot;origPos&quot;:null}" fill="#b15050"/><path d="M267.264,144.202c0.032,2.573 -0.866,8.146 -2.623,11.46c0,0 -4.318,-12.204 -7.873,-14.13c-4.348,-2.36 -15.795,1.04 -19.678,-2.024c-0.645,-0.507 -0.571,-1.656 -0.571,-1.656c0,0 -0.75,1.472 -1.1,1.877c-1.888,2.137 -6.764,5.235 -9.084,6.895c-1.861,1.343 -1.943,1.32 -1.536,9.039c0,0 -3.422,-7.013 -3.228,-11.709c0.055,-1.344 0.703,-4.339 1.773,-7.384c3.859,-7.746 11.864,-13.066 21.11,-13.066c10.623,0 19.606,7.026 22.543,16.666c0.15087,1.33919 0.23996,2.68461 0.267,4.032" fill="#f7b90b"/><path d="M244.513,167.517c9.388,0 16.995,-5.9 16.995,-13.18c0,-7.278 -7.607,-13.182 -16.995,-13.182c-9.389,0 -17.002,5.904 -17.002,13.182c0,7.28 7.613,13.18 17.002,13.18M266.424,150.546c0.967,0.74 1.587,1.879 1.587,3.16c0,2.222 -1.876,4.022 -4.19,4.022c-0.066,0 -0.132,0 -0.196,-0.005c-3.753,6.714 -10.93,11.257 -19.177,11.257c-8.249,0 -15.435,-4.55 -19.177,-11.275c-0.158,0.019 -0.314,0.024 -0.47,0.024c-2.316,0 -4.193,-1.801 -4.193,-4.022c0,-1.478 0.828,-2.767 2.057,-3.468c-0.649,-2.058 -1.172,-4.365 -1.094,-6.285c0.057,-1.345 0.702,-4.34 1.772,-7.382c3.86,-7.749 11.865,-13.068 21.111,-13.068c10.623,0 19.607,7.024 22.543,16.666c0.15084,1.33886 0.23993,2.68395 0.267,4.031c0.017,1.462 -0.267,3.91 -0.84,6.346" fill="#333433"/><path d="M259.512,164.999c-2.733,-2.666 -11.153,0.433 -14.874,-3.402v4.817c0,0 8.386,-2.67 14.849,-0.063c0.31,0.13 0.26,-1.114 0.025,-1.352M229.627,164.999c2.725,-2.666 11.138,0.433 14.885,-3.402v4.817c0,0 -8.393,-2.67 -14.858,-0.063c-0.313,0.13 -0.275,-1.114 -0.027,-1.352" fill="#b96316"/><path d="M249.743,164.01c0,1.36073 -0.54062,2.66572 -1.5029,3.62781c-0.96228,0.96209 -2.26737,1.50245 -3.6281,1.50219c-2.83,0 -5.135,-2.3 -5.135,-5.13c0.00276,-2.83435 2.30065,-5.1309 5.135,-5.132c1.36108,0 2.66637,0.54089 3.62852,1.5036c0.96215,0.96271 1.50228,2.26832 1.50148,3.6294" fill="#565657"/><path d="M247.027,164.01c-0.00166,1.33338 -1.08362,2.41311 -2.417,2.412c-1.33266,0 -2.413,-1.08034 -2.413,-2.413c0,-1.33266 1.08034,-2.413 2.413,-2.413c0.64101,-0.00106 1.25609,0.25297 1.70954,0.70604c0.45345,0.45307 0.70799,1.06795 0.70746,1.70896" fill="#333433"/><path d="M260.991,155.487c1.405,-1.883 1.336,-6.078 0.202,-7.113c-6.121,-5.607 -26.607,-5.018 -33.227,0c-1.22,0.923 -1.203,5.215 0.204,7.1c2.186,2.93 12.358,-0.949 14.626,-3.807c0.815,-1.029 2.759,-1.043 3.569,-0.023c2.272,2.869 12.443,6.777 14.626,3.843M262.887,147.283c1.317,1.209 1.402,7.215 -0.236,9.419c-2.553,3.423 -13.327,0.152 -15.98,-3.198c-0.947,-1.193 -3.226,-1.176 -4.177,0.022c-2.644,3.34 -13.428,6.584 -15.974,3.165c-1.643,-2.21 -1.667,-8.32 -0.234,-9.408c7.725,-5.851 29.443,-6.545 36.601,0" fill="#c6c5c6"/><path d="M231.751,148.382c0.0924,0.13957 0.12455,0.31053 0.08916,0.47412c-0.03539,0.1636 -0.13533,0.30598 -0.27716,0.39488l-2.185,1.41c-0.13971,0.09118 -0.30996,0.12302 -0.47318,0.0885c-0.16322,-0.03452 -0.306,-0.13257 -0.39682,-0.2725l-0.006,-0.011c-0.09111,-0.13969 -0.12241,-0.31009 -0.08689,-0.47304c0.03552,-0.16295 0.1349,-0.30486 0.27589,-0.39396l2.183,-1.415c0.29408,-0.18556 0.68264,-0.101 0.873,0.19zM230.85,151.472c-0.00165,0.3852 -0.3138,0.6969 -0.699,0.698c-0.37262,-0.01991 -0.66454,-0.32785 -0.66454,-0.701c0,-0.37315 0.29193,-0.68109 0.66454,-0.701c0.18617,0.00026 0.36457,0.07468 0.49575,0.20679c0.13117,0.13211 0.20432,0.31104 0.20325,0.49721" fill="#eeeeed"/></g></g></svg>