<svg xmlns="http://www.w3.org/2000/svg" width="75.618" height="120.001"><g fill-rule="evenodd" stroke-miterlimit="10" data-paper-data="{&quot;isPaintingLayer&quot;:true}" style="mix-blend-mode:normal"><path fill="#ffda7c" d="M63.889 38.99c-.857 7.504-4.894 14.402-11.37 19.425-6.32 4.903-14.474 7.603-22.963 7.603v-9.506c6.39 0 12.476-1.992 17.138-5.607 4.434-3.441 7.187-8.055 7.75-12.993zM34.919 119.32l-1.88-26.652 11.229-.954 3.556 26.342z" data-paper-data="{&quot;origPos&quot;:null}"/><path fill="#f2f2f2" d="m46 104.665 1.822 13.376-12.9 1.294-1.054-14.67z"/><path fill="#4c413c" d="M34.804 110.516h.91c.387 0 .763.165 1.052.46 1.02 1.042 2.793 1.741 4.78 1.741 2.268 0 4.136-.91 4.878-2.2 2.863.015 5.51 2.605 5.936 5.917l.256 1.993c.064.5-.237.908-.672.908H35.482c-.413 0-.764-.369-.804-.842l-.602-7.093c-.04-.479.295-.884.728-.884"/><path fill="#ecba97" d="m16.706 93.226 11.262-.983 3.492 25.798-12.902 1.294z"/><path fill="#f2f2f2" d="m52.548 117.897.068.53c.064.5-.237.908-.672.908H35.482c-.413 0-.764-.369-.804-.842l-.05-.596z"/><path fill="#ffda7c" d="m16.706 93.226 11.262-.983 3.492 25.798-12.902 1.294z" data-paper-data="{&quot;origPos&quot;:null}"/><path fill="#fff" d="m29.649 104.665 1.81 13.376-12.901 1.294-1.04-14.67z"/><path fill="#534741" d="M18.613 110.516h.91c.387 0 .762.165 1.052.46 1.02 1.042 2.792 1.741 4.779 1.741 2.269 0 4.137-.91 4.878-2.2 2.863.015 5.512 2.605 5.936 5.917l.256 1.993c.064.5-.236.908-.671.908H19.29c-.413 0-.765-.369-.805-.842l-.601-7.093c-.04-.479.294-.884.728-.884"/><path fill="#fff" d="m36.356 117.897.068.53c.064.5-.236.908-.671.908H19.29c-.413 0-.765-.369-.805-.842l-.05-.596z"/><path fill="#ccc" d="M45.698 93.684H30.63L28.264 80.34h16.293z"/><path fill="#e6e6e6" d="M13.414 80.34h16.673l.76 13.344H15.78z"/><path fill="#e3544f" d="m18.05 93.712 1.075-.056-.735-14.205-1.075.056zm2.368 0 1.075-.056-.736-14.205-1.074.056zm23.433.023L42.495 79.53l1.07-.102 1.357 14.205zm-2.368 0L40.128 79.53l1.07-.102 1.357 14.205z"/><path fill="#ffda7c" d="M57.487 27.089c1.225.367 1.899 1.886 1.52 3.33.379-1.444 1.23-3.511 3.297-2.762 2.067.75 1.434 2.622.956 4.036.478-1.414 1.876-2.313 3.1-1.946 1.227.367 1.73 1.835 1.15 3.22l-1.566 3.597c-1.376 3.294-4.412 3.94-7.374 3.052-2.962-.886-5.143-3.095-4.482-6.603l.669-3.867c.277-1.474 1.505-2.424 2.73-2.057" data-paper-data="{&quot;origPos&quot;:null}"/><path fill="#ecba97" d="M54.346 35.839a2.424 2.424 0 0 0 1.39-4.645l-2.263-.678a2.424 2.424 0 0 0-1.391 4.645l2.263.678M22.332 50.08a7.224 7.224 0 1 1 7.223 7.225 7.225 7.225 0 0 1-7.224-7.225"/><path fill="#d84c4c" d="M46.97 83.624a1.46 1.46 0 0 1-1.45 1.632H12.853c-.476 0-.843-.508-.775-1.076l3.21-27.08a1.46 1.46 0 0 1 1.45-1.288h25.64c.74 0 1.364.554 1.45 1.289z"/><path fill="#d84c4c" d="M50.217 60.359a.95.95 0 0 1-.417 1.081c-5.941 3.617-12.941 5.528-20.244 5.528-1.878 0-3.454-.59-4.558-1.708-.988-1-1.532-2.362-1.532-3.834 0-2.843 2.134-5.865 6.09-5.865 6.087 0 11.899-1.867 16.368-5.257a.952.952 0 0 1 1.53.592c.15.596 1.723 5.943 2.763 9.463"/><path fill="#e3544f" d="M29.553 59.635c-2.31 0-4.495-.617-6.15-1.737-1.688-1.143-2.64-2.68-2.676-4.328-.03-1.273.492-2.5 1.505-3.547 1.613-1.667 4.3-2.68 7.189-2.712h.137c2.31 0 4.495.616 6.15 1.736 1.689 1.143 2.64 2.68 2.677 4.329.028 1.273-.492 2.5-1.506 3.546-1.612 1.668-4.3 2.681-7.188 2.712h-.138"/><path fill="#fff" d="M29.558 47.025c2.368 0 4.608.635 6.31 1.786 1.768 1.196 2.762 2.815 2.802 4.558.03 1.351-.518 2.648-1.586 3.751-1.664 1.722-4.427 2.768-7.391 2.8h-.14c-2.367 0-4.608-.634-6.31-1.786-1.767-1.196-2.761-2.814-2.801-4.558-.031-1.351.518-2.648 1.586-3.751 1.664-1.721 4.427-2.767 7.39-2.799l.14-.001m0 .571-.135.001c-4.718.05-8.484 2.721-8.41 5.966.07 3.215 3.883 5.786 8.54 5.786h.135c4.718-.05 8.484-2.722 8.41-5.967-.07-3.214-3.882-5.787-8.54-5.787"/><path fill="#ecba97" d="M29.554 57.823c-1.908 0-3.712-.51-5.08-1.434-1.4-.948-2.188-2.225-2.22-3.596-.023-1.059.41-2.079 1.25-2.949 1.335-1.379 3.555-2.217 5.94-2.242h.114c1.908 0 3.71.509 5.079 1.434 1.4.948 2.189 2.225 2.22 3.595.024 1.06-.41 2.08-1.25 2.95-1.334 1.378-3.555 2.216-5.94 2.242h-.113"/><path fill="#fff" d="M29.558 47.316c1.964 0 3.824.527 5.238 1.484 1.48 1.001 2.313 2.359 2.345 3.825.026 1.137-.434 2.228-1.33 3.153-1.385 1.433-3.681 2.304-6.141 2.33l-.116.001c-1.964 0-3.825-.528-5.24-1.484-1.478-1.001-2.311-2.36-2.344-3.825-.026-1.138.434-2.228 1.33-3.154 1.386-1.432 3.68-2.303 6.14-2.33h.118m-.001.571h-.11c-3.874.041-6.967 2.235-6.907 4.9.059 2.639 3.189 4.751 7.014 4.751h.11c3.875-.042 6.968-2.235 6.908-4.9-.06-2.64-3.19-4.752-7.014-4.752"/><path fill="#42210b" d="M30.163 2.19a25.198 25.198 0 0 1 13.972 4.383l.033-3.1a2.26 2.26 0 1 1 4.52.048l-.043 4.184a2.601 2.601 0 0 0 2.57 2.626l4.185.044a2.26 2.26 0 1 1-.048 4.521l-3.524-.037a25.198 25.198 0 0 1 3.388 12.919l-.054 5.064-50.64-.535.054-5.064c.148-13.984 11.604-25.2 25.587-25.052"/><path fill="#42210b" d="m5.1 31.742 49.497.523.048-4.493a24.717 24.717 0 0 0-3.31-12.627l-.502-.868 4.525.048a1.694 1.694 0 0 0 1.707-1.672 1.678 1.678 0 0 0-.482-1.2 1.678 1.678 0 0 0-1.19-.507L51.21 10.9a3.173 3.173 0 0 1-3.137-3.2l.044-4.184a1.679 1.679 0 0 0-.482-1.2 1.68 1.68 0 0 0-1.19-.508h-.018c-.923 0-1.68.747-1.69 1.672l-.043 4.166-.882-.6a24.636 24.636 0 0 0-13.655-4.283l.006-.571-.007.57h-.268c-6.512 0-12.648 2.502-17.308 7.065A24.588 24.588 0 0 0 5.147 27.25L5.1 31.743zm50.627 1.677-51.781-.547.06-5.635c.072-6.916 2.834-13.389 7.776-18.227 4.875-4.773 11.295-7.392 18.107-7.392l.28.002a25.772 25.772 0 0 1 13.406 3.907l.022-2.06a2.835 2.835 0 0 1 2.83-2.802h.03c.758.009 1.466.31 1.995.851.53.54.816 1.255.808 2.01l-.044 4.185A2.03 2.03 0 0 0 51.22 9.76l4.184.044c.756.008 1.464.31 1.993.85.53.54.816 1.255.808 2.011a2.835 2.835 0 0 1-2.83 2.802h-.031L52.8 15.44a25.89 25.89 0 0 1 2.985 12.344l-.06 5.635z"/><path fill="#ffe194" d="M53.089 30.162a5.303 5.303 0 0 1 .112 10.604l-1.06.012a5.329 5.329 0 0 1-.794-.058c-3.001 8.832-11.313 15.231-21.17 15.335-9.918.105-18.405-6.196-21.545-15.05a5.3 5.3 0 0 1-1.55.249l-1.06.011A5.303 5.303 0 1 1 5.91 30.66l1.06-.011c.11-.001.219.007.329.013l-.016-1.496C7.152 16.68 17.167 6.452 29.652 6.32c12.486-.132 22.714 9.883 22.846 22.368l.016 1.48.575-.006" data-paper-data="{&quot;origPos&quot;:null}"/><path fill="#42210b" d="M34.443 39.922c1.008-.013 1.735 1.204 1.45 2.419-.801 3.412-3.297 5.918-6.274 5.958-2.977.039-5.516-2.4-6.373-5.79-.306-1.207.4-2.443 1.408-2.457z"/><path fill="#e3544f" d="M29.567 44.271c2.067-.028 3.92-.95 5.149.9-1.197 1.882-3.031 3.1-5.097 3.127-2.067.028-3.921-1.141-5.15-2.991 1.198-1.883 3.03-1.009 5.098-1.037"/><path fill="#fff" d="M29.634 41.808c1.955-.026 3.7-.268 4.897-1.887l-9.84.131c1.225 1.586 2.989 1.782 4.943 1.756m-1.615-9.834c.04 3.726-2.35 6.226-5.334 6.257-2.985.032-5.437-2.416-5.476-6.143-.04-3.727 2.349-6.226 5.334-6.258 2.985-.031 5.437 2.417 5.476 6.144m13.884 0c.039 3.726-2.35 6.226-5.334 6.257-2.985.032-5.437-2.416-5.476-6.143-.04-3.727 2.348-6.226 5.333-6.258 2.985-.031 5.437 2.417 5.477 6.144"/><path fill="#42210b" d="M26.784 32.098c.029 2.737-1.725 4.402-3.917 4.425-2.192.023-3.992-1.604-4.021-4.34-.03-2.737 1.725-4.402 3.916-4.426 2.192-.023 3.993 1.605 4.022 4.341m13.482 0c.028 2.737-1.725 4.402-3.917 4.425-2.192.023-3.992-1.604-4.021-4.34-.03-2.737 1.724-4.402 3.916-4.426 2.192-.023 3.993 1.605 4.022 4.341"/><path fill="#ecba97" d="M20.896 41.267a4.826 4.826 0 1 1-9.648.277 4.826 4.826 0 0 1 9.648-.277"/><path fill="#42210b" d="m53.78 26.112-.357-.262c.088.79.137 1.585.146 2.381l.035 3.303c-4.314.046-8.03-4.451-9.458-10.767a6.803 6.803 0 0 1-3.388.945 6.825 6.825 0 0 1-5.455-2.629 6.825 6.825 0 0 1-10.854.115 6.824 6.824 0 0 1-8.806 1.87c-1.294 6.345-4.914 10.919-9.228 10.965L6.38 28.73c-.008-.788.023-1.577.094-2.362l-.35.248C5.984 13.456 16.54 2.675 29.7 2.536c13.16-.139 23.94 10.416 24.08 23.576z"/><path fill="#42210b" d="m7.152 25.188-.11 1.23c-.068.777-.1 1.553-.091 2.305l.028 2.703c3.68-.423 6.893-4.533 8.105-10.472l.156-.766.682.382c.955.535 2.037.81 3.123.8a6.229 6.229 0 0 0 4.947-2.515l.447-.595.46.586a6.228 6.228 0 0 0 4.93 2.41h.069a6.228 6.228 0 0 0 4.948-2.516l.447-.595.459.586a6.228 6.228 0 0 0 5 2.41 6.265 6.265 0 0 0 3.105-.866l.673-.396.173.762c1.336 5.912 4.636 9.953 8.324 10.299l-.03-2.703a23.466 23.466 0 0 0-.141-2.324l-.144-1.292.456.334c-.732-12.197-10.89-21.85-23.212-21.85-.084 0-.166 0-.25.002a23.106 23.106 0 0 0-16.373 6.985c-4.087 4.174-6.416 9.61-6.624 15.41zM5.85 32.61l-.041-3.874c-.004-.4.002-.804.018-1.211l-.262.186-.012-1.09a24.24 24.24 0 0 1 6.964-17.328 24.24 24.24 0 0 1 17.44-7.33c13.335 0 24.253 10.776 24.394 24.143l.012 1.141-.265-.194c.024.394.038.785.042 1.172l.04 3.874-.57.006h-.07c-4.28 0-8.144-4.175-9.777-10.495a7.4 7.4 0 0 1-3 .673 7.348 7.348 0 0 1-5.451-2.315 7.347 7.347 0 0 1-5.402 2.43 7.357 7.357 0 0 1-5.452-2.315 7.347 7.347 0 0 1-5.401 2.43 7.398 7.398 0 0 1-3.013-.61c-1.508 6.386-5.316 10.655-9.623 10.7z"/><path fill="#fff" d="M54.639 19.662c.585 1.853.96 3.766 1.118 5.703H4.15c.162-1.937.541-3.85 1.132-5.703H54.64"/><path fill="#e3544f" d="M55.184 21.658c.13.566.242 1.136.334 1.71H4.398a25.97 25.97 0 0 1 .336-1.71h50.45"/><path fill="#42210b" d="M35.38 17.182a6.824 6.824 0 0 1-10.852.115"/><path fill="none" stroke="#42210b" stroke-width="1.142" d="M35.38 17.182a6.824 6.824 0 0 1-10.852.115"/><path fill="#42210b" d="M26.937 19.083a6.824 6.824 0 0 1-10.853.115"/><path fill="none" stroke="#42210b" stroke-width="1.142" d="M26.937 19.083a6.824 6.824 0 0 1-10.853.115"/><path fill="#42210b" d="M45.759 19.083a6.824 6.824 0 0 1-10.854.115"/><path fill="none" stroke="#42210b" stroke-width="1.142" d="M45.759 19.083a6.824 6.824 0 0 1-10.854.115"/><path fill="#fff" d="M21.443 30.533a1.49 1.49 0 1 1-2.978.11 1.49 1.49 0 0 1 2.978-.11m13.562 0a1.49 1.49 0 1 1-2.98.077 1.49 1.49 0 0 1 2.98-.077"/><path fill="#ffda7c" d="M19.868 51.22c13.784 0 24.998-9.211 24.998-20.531h9.505c0 8.17-3.69 15.806-10.388 21.5-6.478 5.505-15.042 8.537-24.115 8.537z" data-paper-data="{&quot;origPos&quot;:null}"/><path fill="#9d6345" d="M74.475 28.954c-1.81 6.089-8.212 9.558-14.301 7.75-6.09-1.81-9.56-8.213-7.75-14.302 1.81-6.09 8.213-9.559 14.302-7.75 6.09 1.81 9.559 8.213 7.75 14.302"/><path fill="#603813" d="M67.74 23.105c-1.07 0-2.155-.148-3.232-.453l-.782 2.631 10.869 3.23c-.038.147-.076.294-.12.44-.03.099-.062.194-.094.29l-10.872-3.23-1.303 4.385a11.84 11.84 0 0 1 6.74 5.383 12.37 12.37 0 0 1-.682.34 11.081 11.081 0 0 0-6.275-4.993l-1.668 5.615c-.05-.014-.098-.025-.147-.04a11.865 11.865 0 0 1-.58-.188l1.66-5.59a11.022 11.022 0 0 0-7.54.872 11.557 11.557 0 0 1-.388-.662 11.787 11.787 0 0 1 8.147-.943l1.306-4.396-10.434-3.1c.027-.098.05-.196.08-.294.043-.147.09-.291.14-.435l10.43 3.099.787-2.643a11.86 11.86 0 0 1-6.825-6.237c.212-.145.429-.282.649-.412a11.104 11.104 0 0 0 6.393 5.917l2.138-7.197c.197.048.394.1.589.158l.145.047-2.146 7.222c3.064.864 6.351.372 9.028-1.352.114.23.22.465.32.702a11.914 11.914 0 0 1-6.333 1.834"/><text xml:space="preserve" fill="#fff" font-family="PingFangSC-Semibold, PingFang SC" font-size="13.688" font-weight="500" style="mix-blend-mode:normal" transform="translate(2 16.426)"><tspan x="0" dy="0">11</tspan></text><path fill="#e3544f" d="M40.33 55.226a.95.95 0 0 1-.416 1.081c-5.941 3.617-12.941 5.528-20.244 5.528-1.878 0-3.454-.591-4.558-1.708-.988-1-1.532-2.362-1.532-3.835 0-2.842 2.134-5.864 6.09-5.864 6.087 0 11.899-1.867 16.369-5.257a.951.951 0 0 1 1.53.592c.15.596 1.722 5.943 2.762 9.463"/><path fill="#ffda7c" d="M47.79 21.386c1.226.367 1.9 1.886 1.522 3.33.378-1.444 1.23-3.511 3.297-2.762 2.067.75 1.433 2.621.955 4.035.478-1.414 1.876-2.313 3.102-1.946 1.225.367 1.728 1.836 1.15 3.22l-1.568 3.598c-1.376 3.294-4.412 3.94-7.374 3.052-2.961-.887-5.143-3.095-4.482-6.603l.669-3.867c.277-1.474 1.505-2.424 2.73-2.057" data-paper-data="{&quot;origPos&quot;:null}"/><path fill="#ffda7c" d="m44.649 30.135-2.263-.677a2.425 2.425 0 0 1 1.392-4.645l2.262.678a2.424 2.424 0 1 1-1.39 4.644" data-paper-data="{&quot;origPos&quot;:null}"/><path fill="#1a1a1a" d="m28.927 94.349 1.384 10.227.723 5.34a6.148 6.148 0 0 1 2.445.953 1.5 1.5 0 0 1 .146-.329l-.418-5.828a.699.699 0 0 1 .007-.152l-.72-10.21h-3.567zm20.256-46.656c1.7-1.89 2.979-4.008 3.77-6.258l-.11.001a28.97 28.97 0 0 1-3.66 6.257zm6.196-31.561h-.038l-1.454-.015c.209.442.406.89.59 1.343.46-.5.959-.961 1.497-1.378a3.548 3.548 0 0 1-.595.051zM46.468 0a3.473 3.473 0 0 1 2.462 1.052 3.473 3.473 0 0 1 .998 2.483l-.044 4.184a1.363 1.363 0 0 0 1.347 1.376l4.184.045a3.475 3.475 0 0 1 2.462 1.05c.65.661 1.01 1.555.998 2.483a3.476 3.476 0 0 1-.688 2.04 12.12 12.12 0 0 1 8.696-.707c.046.013.092.028.138.043l.05.016a12.187 12.187 0 0 1 7.428 6.519l.06.135.005.01.005.013c.04.091.082.182.12.274a12.19 12.19 0 0 1 .427 8.128 12.073 12.073 0 0 1-6.007 7.304 12.22 12.22 0 0 1-2.887 1.08c-.452.828-1.031 1.502-1.73 2.012-.99 7.498-5.086 14.378-11.562 19.402-.657.509-1.331.994-2.022 1.454.092.634-.2 1.274-.76 1.614a37.534 37.534 0 0 1-4.775 2.453l2.26 19.084a2.128 2.128 0 0 1-1.93 2.368l.66 7.713a.665.665 0 0 1-.663.722h-.402l2.105 15.597c2.836.519 5.205 3.175 5.62 6.404l.255 1.993c.013.1.017.201.013.3-.03.598-.391 1.102-.92 1.283-.146.05-.284.074-.424.074H19.293c-.105 0-.21-.014-.311-.039l-.356.036a.665.665 0 0 1-.73-.615l-.048-.68a1.43 1.43 0 0 1-.022-.153l-.602-7.093a1.55 1.55 0 0 1 .068-.597l-.436-6.147-.735-10.363h-.337a.664.664 0 0 1-.655-.548l-1.398-7.88h-.876a1.37 1.37 0 0 1-1.032-.477 1.708 1.708 0 0 1-.404-1.342l2.837-23.939c-.866-1.07-1.34-2.432-1.34-3.871a6.587 6.587 0 0 1 2.207-4.902A23.241 23.241 0 0 1 8.218 41.8c-.37.076-.746.116-1.126.12l-1.06.012h-.064c-3.256 0-5.932-2.649-5.967-5.905a5.933 5.933 0 0 1 3.306-5.407l.036-3.39c.075-7.093 2.907-13.733 7.976-18.696A26.402 26.402 0 0 1 29.89.953a26.513 26.513 0 0 1 13.033 3.413l.01-.906A3.508 3.508 0 0 1 46.43 0zM30.445 110.524l-.793-5.86-1.487-10.98h4.949l.774 10.981h-.017l.436 6.072a.848.848 0 0 0-.228.663l.074.877c-1.026-1.033-2.336-1.685-3.708-1.753zm21.953-69.749.805-.008c.23-.003.458-.022.68-.053-1.06 3.659-3.344 7.031-6.625 9.739a.94.94 0 0 0-1.113-.276c2.756-2.804 4.86-5.983 6.253-9.402zm-8.8-37.308-.02 2.06A25.77 25.77 0 0 0 30.172 1.62h-.001c-.093-.002-.186-.002-.28-.002-6.81 0-13.232 2.619-18.106 7.392-4.941 4.838-7.703 11.312-7.776 18.227l-.04 3.815a5.302 5.302 0 0 0 2 10.213l.057-.001 1.06-.01a5.3 5.3 0 0 0 1.55-.249 22.666 22.666 0 0 0 7.57 10.396c-1.72 1.12-2.623 3.042-2.623 4.892 0 1.389.485 2.679 1.369 3.66L12.08 84.18c-.067.568.299 1.076.776 1.076h1.434l1.495 8.428h.957l.779 10.981.446 6.292a.88.88 0 0 0-.08.443l.603 7.092c.003.041.012.08.02.119l.05.724.488-.049a.7.7 0 0 0 .23.047l.016.002h32.652a.641.641 0 0 0 .21-.039c.269-.092.453-.354.47-.686.002-.059 0-.12-.008-.183l-.255-1.993c-.406-3.162-2.84-5.665-5.552-5.897l-2.275-16.853H45.7l-.72-8.428h.544a1.46 1.46 0 0 0 1.45-1.632l-2.322-19.582a36.838 36.838 0 0 0 5.15-2.602.95.95 0 0 0 .418-1.081l-.077-.258c.816-.528 1.61-1.09 2.379-1.686 6.427-4.985 10.45-11.818 11.348-19.256.762-.49 1.416-1.216 1.903-2.215a11.464 11.464 0 0 0 2.796-.968l.233-.119a11.465 11.465 0 0 0 5.676-6.903c.755-2.53.613-5.245-.403-7.683v-.001c-.038-.09-.078-.18-.118-.27a11.47 11.47 0 0 0-7.084-6.3c-.048-.016-.095-.033-.145-.048l-.027-.007a11.456 11.456 0 0 0-9.367 1.297l-.128.082a11.49 11.49 0 0 0-2.942 2.733 25.78 25.78 0 0 0-1.46-3.317l2.545.027h.03a2.835 2.835 0 0 0 2.83-2.801 2.814 2.814 0 0 0-.807-2.012 2.818 2.818 0 0 0-1.994-.85l-4.184-.044a2.03 2.03 0 0 1-2.006-2.049l.045-4.185a2.81 2.81 0 0 0-.81-2.01 2.815 2.815 0 0 0-1.992-.851h-.03a2.835 2.835 0 0 0-2.832 2.802z"/></g></svg>