<svg xmlns="http://www.w3.org/2000/svg" width="480" height="360"><defs><linearGradient id="a" x1="49.994%" x2="49.994%" y1="723.446%" y2="24.974%"><stop offset="0%" stop-color="#196DA1"/><stop offset="65.77%" stop-color="#264D78"/><stop offset="100%" stop-color="#2B4168"/></linearGradient><linearGradient id="b" x1="49.997%" x2="49.997%" y1="723.307%" y2="24.99%"><stop offset="0%" stop-color="#196DA1"/><stop offset="65.77%" stop-color="#264D78"/><stop offset="100%" stop-color="#2B4168"/></linearGradient><linearGradient id="c" x1="50.008%" x2="50.008%" y1="723.38%" y2="24.981%"><stop offset="0%" stop-color="#196DA1"/><stop offset="65.77%" stop-color="#264D78"/><stop offset="100%" stop-color="#2B4168"/></linearGradient><linearGradient id="d" x1="49.993%" x2="49.993%" y1="723.362%" y2="24.984%"><stop offset="0%" stop-color="#196DA1"/><stop offset="65.77%" stop-color="#264D78"/><stop offset="100%" stop-color="#2B4168"/></linearGradient><linearGradient id="e" x1="49.998%" x2="49.998%" y1="723.368%" y2="24.983%"><stop offset="0%" stop-color="#196DA1"/><stop offset="65.77%" stop-color="#264D78"/><stop offset="100%" stop-color="#2B4168"/></linearGradient><linearGradient id="f" x1="50%" x2="50%" y1="128.936%" y2="4.456%"><stop offset="0%" stop-color="#196DA1"/><stop offset="65.77%" stop-color="#264D78"/><stop offset="100%" stop-color="#2B4168"/></linearGradient><linearGradient id="g" x1="50%" x2="50%" y1="128.932%" y2="4.468%"><stop offset="0%" stop-color="#2B4168"/><stop offset="34.23%" stop-color="#264D78"/><stop offset="100%" stop-color="#196DA1"/></linearGradient></defs><g fill="none" transform="translate(-2 -100)"><path fill="#205B8A" d="M0 0h485v485H0z"/><path fill="#2872A0" d="M485 373V200.675c-5.681-2.523-11.12-4.527-16.317-5.978-71.676-19.835-106.665 84.452-192.302 104.321-85.637 19.869-122.393-86.076-197.568-106.775-26.433-7.29-54.078-1.451-78.813 9.192V373h485z"/><path fill="#15263F" d="M485 260.38V485H0V293.618l14.411-40.698 21.999 49.615 34.123-68.35 33.915 61.758 19.4-35.39 15.936 33.308 26.329-54.125 20.785 53.431 11.779-35.39 12.333 30.845 26.467-56.52 24.665 56.52 23.835-55.825 11.086 38.165 12.47-13.878 11.78 20.123L343.483 221l20.094 58.983 15.935-30.532 13.72 30.566 23.002-49.996 23.557 54.125 13.857-43.716 15.97 52.598z" opacity=".3"/><path fill="url(#a)" d="M113.687 150 79.244 95.439h18.872L72.918 55.53h18.908L56.93.311l-34.86 55.22h18.907L15.745 95.44h18.907L.209 150z" transform="translate(365 224)"/><path fill="#2183B5" d="m423.32 226.46-1.39-2.148-34.86 55.22h2.711zm-23.668 92.979L365.209 374h2.745l34.444-54.561zm9.036-39.908h-2.71l-25.233 39.908h2.745z" opacity=".54"/><path fill="#15263F" d="M444.244 319.439h18.872l-25.198-39.908h18.908L423.32 226.46 442.506 374h36.181z" opacity=".45"/><path fill="url(#b)" d="M97.687 129 68.08 82.081h16.229l-21.65-34.33H78.92L48.931.243 18.973 47.75h16.264L13.553 82.08h16.264L.209 129z" transform="translate(302 246)"/><path fill="#2183B5" d="m352.112 248.115-1.182-1.872-29.956 47.508h2.364zm-20.295 79.966L302.209 375h2.363l29.573-46.919zm7.75-34.331h-2.329l-21.685 34.331h2.363z" opacity=".54"/><path fill="#15263F" d="M370.079 328.081h16.229l-21.65-34.33h16.263l-28.809-45.636L368.584 375h31.103z" opacity=".45"/><path fill="url(#c)" d="M113.827 151 79.282 95.968h18.965L72.96 55.725h18.965L56.931 0 21.97 55.725h18.965L15.65 95.968h18.93L.035 151z" transform="translate(189 223)"/><path fill="#2183B5" d="M247.313 225.182 245.93 223l-34.96 55.725h2.729zm-23.733 93.786L189.035 374h2.763l34.546-55.032zm9.085-40.243h-2.729l-25.287 40.243h2.73z" opacity=".54"/><path fill="#15263F" d="M268.282 318.968h18.965l-25.287-40.243h18.965l-33.612-53.543L266.555 374h36.272z" opacity=".45"/><path fill="url(#d)" d="M116 153 80.853 97.373h19.275L74.393 56.631h19.31L58.104.277 22.54 56.63h19.276L16.115 97.373H35.39L.243 153z" transform="translate(83 221)"/><path fill="#2183B5" d="m142.493 223.492-1.389-2.215-35.564 56.354h2.779zm-24.103 94.881L83.243 374h2.779l35.147-55.627zm9.204-40.743h-2.778l-25.701 40.743h2.778z" opacity=".54"/><path fill="#15263F" d="M163.853 318.373h19.275l-25.735-40.742h19.31l-34.21-54.139L162.081 374H199z" opacity=".45"/><path fill="url(#e)" d="M98 129 68.322 82.069h16.264l-21.72-34.342h16.299L49.105.207l-30.026 47.52h16.264l-21.72 34.342H29.92L.243 129z" transform="translate(16 245)"/><path fill="#2183B5" d="m66.286 247.075-1.182-1.867-30.025 47.519h2.328zm-20.365 79.994L16.243 374h2.363l29.678-46.931zm7.785-34.342h-2.363l-21.72 34.342h2.363z" opacity=".54"/><path fill="#15263F" d="M84.322 327.069h16.264l-21.72-34.342h16.299l-28.88-45.652L82.829 374H114z" opacity=".45"/><path fill="url(#f)" d="M0 374h485v111H0z"/><path fill="url(#g)" d="M0 407h485v78H0z"/><path fill="#72CDED" d="M58.333 407.313c-3.29 0-5.993 1.95-5.993 4.282 0 2.367 2.702 4.282 5.993 4.282h20.021c2.84 0 5.161 1.67 5.161 3.69 0 1.88-1.974 3.446-4.503 3.655h-34.57c-3.498 0-6.338 2.297-6.338 5.151v2.611c0 2.82 2.84 5.152 6.339 5.152h34.57c2.528.244 4.502 1.81 4.502 3.655 0 2.054-2.32 3.69-5.16 3.69H58.332c-3.29 0-5.993 1.95-5.993 4.282 0 2.367 2.702 4.281 5.993 4.281h62.627c1.801 0 3.29 1.045 3.29 2.367 0 1.288-1.489 2.367-3.29 2.367h-43.99c-1.42 0-2.598.94-2.598 2.09v1.043c0 1.15 1.177 2.089 2.598 2.089h319.854c1.42 0 2.598-.94 2.598-2.089v-1.044c0-1.149-1.177-2.089-2.598-2.089h-43.956c-1.801 0-3.29-1.044-3.29-2.367 0-1.288 1.489-2.367 3.29-2.367h62.627c3.29 0 5.992-1.95 5.992-4.281 0-2.367-2.701-4.282-5.992-4.282h-20.021c-2.84 0-5.162-1.67-5.162-3.69 0-1.88 1.975-3.446 4.503-3.655h34.57c3.499 0 6.339-2.297 6.339-5.152v-2.611c0-2.82-2.84-5.151-6.339-5.151h-34.57c-2.528-.244-4.503-1.81-4.503-3.656 0-2.053 2.321-3.69 5.162-3.69h20.02c3.292 0 5.993-1.949 5.993-4.281 0-2.367-2.701-4.282-5.992-4.282H58.333z" opacity=".14"/><g fill="#FFF" opacity=".29"><path d="M287.122 440.418h-30.274a1.245 1.245 0 0 1-1.247-1.253v-.523c0-.696.554-1.253 1.247-1.253h30.274c.693 0 1.247.557 1.247 1.253v.523c0 .696-.554 1.253-1.247 1.253zm-90.164 4.351h-30.275a1.245 1.245 0 0 1-1.247-1.253v-.522c0-.697.554-1.253 1.247-1.253h30.275c.692 0 1.247.556 1.247 1.253v.522c0 .696-.555 1.253-1.247 1.253zm112.056-22.244h-9.595a.934.934 0 0 0-.935.94v.383c0 .522.416.94.935.94h9.595c.52 0 .935-.418.935-.94v-.383a.934.934 0 0 0-.935-.94zm-54.21 29.728h-9.595a.934.934 0 0 0-.935.94v.383c0 .522.416.94.935.94h9.595c.52 0 .936-.418.936-.94v-.383c0-.522-.45-.94-.936-.94zm1.94-36.063h-21.926a.609.609 0 0 0-.59.592v.661a.61.61 0 0 0 .59.592h21.926a.609.609 0 0 0 .589-.592v-.661a.609.609 0 0 0-.589-.592zm-35.228-5.082h-1.697a.609.609 0 0 0-.589.591v.244c0 .313.277.592.59.592h1.696a.609.609 0 0 0 .59-.592v-.244a.609.609 0 0 0-.59-.591z"/><path d="M226.747 416.225h-4.503a.734.734 0 0 0-.728.73v.314c0 .418.347.731.728.731h4.503a.734.734 0 0 0 .727-.731v-.313c.035-.383-.311-.731-.727-.731zm91.308-4.317H307.35a.845.845 0 0 0-.83.836v.348c0 .452.38.835.83.835h10.704c.45 0 .831-.383.831-.835v-.348c0-.488-.346-.836-.831-.836zm-70.595 31.991h-7.654a.77.77 0 0 0-.762.766v.313a.77.77 0 0 0 .762.766h7.655a.77.77 0 0 0 .762-.766v-.313a.77.77 0 0 0-.762-.766zm78.215-31.991h-.588a.66.66 0 0 0-.659.662v.278a.66.66 0 0 0 .659.661h.588a.66.66 0 0 0 .659-.66v-.28a.638.638 0 0 0-.659-.66zm-10.183 16.117h-.485a1.17 1.17 0 0 0-1.178 1.184v.661c0 .662.52 1.184 1.178 1.184h.485a1.17 1.17 0 0 0 1.177-1.184v-.661a1.17 1.17 0 0 0-1.177-1.184zm-17.354-9.885a1.17 1.17 0 0 0-1.178 1.183v.035c0 .661.52 1.183 1.178 1.183a1.17 1.17 0 0 0 1.177-1.183v-.035a1.17 1.17 0 0 0-1.177-1.184zm-36.198 29.449h-1.212a.845.845 0 0 0-.832.835v.348c0 .453.381.836.832.836h1.177c.45 0 .832-.383.832-.836v-.348c.034-.452-.347-.835-.797-.835zm50.954-12.045h-12.782c-.866 0-1.559.697-1.559 1.567v.661c0 .87.693 1.567 1.559 1.567h12.782c.866 0 1.558-.697 1.558-1.567v-.661c0-.87-.727-1.567-1.558-1.567zm-.035 20.782h-2.182a.97.97 0 0 0-.97.975v.383a.97.97 0 0 0 .97.974h2.182a.97.97 0 0 0 .97-.974v-.383a.994.994 0 0 0-.97-.975z" opacity=".48"/><path d="M286.464 448.598h-.589a.401.401 0 0 0-.415.418v.174c0 .244.173.418.415.418h.59a.401.401 0 0 0 .415-.418v-.174a.401.401 0 0 0-.416-.418zm-134.675-33.835h-18.775a.86.86 0 0 0-.866.87v.348c0 .487.381.87.866.87h18.775a.86.86 0 0 0 .865-.87v-.348c.035-.487-.38-.87-.865-.87z"/><path d="M180.296 411.351h-10.114a1.54 1.54 0 0 0-1.524 1.532v.626a1.54 1.54 0 0 0 1.524 1.532h10.114a1.54 1.54 0 0 0 1.524-1.532v-.626a1.54 1.54 0 0 0-1.524-1.532z" opacity=".48"/></g><g fill="#FFF" transform="translate(156 135)"><circle cx="37.035" cy="37.035" r="36.861" opacity=".2"/><circle cx="37.035" cy="37.035" r="25.813"/></g><path fill="#FFF" d="M416.984 149.076c1.38 2.29-84.458 56.452-88.601 58.95-4.144 2.499-8.598 2.637-9.98.347-1.38-2.29.899-6.176 5.042-8.674 4.109-2.464 92.157-52.913 93.539-50.623z" opacity=".12"/><path fill="#FFF" d="M99.989 162.053c.973 1.615-60.549 39.775-63.54 41.561-2.956 1.752-6.156 1.855-7.164.24-.974-1.614.626-4.362 3.617-6.113 2.99-1.752 66.113-37.302 67.087-35.688z" opacity=".09"/><path fill="#FFF" d="m460.5 172 .538 1.514a2.372 2.372 0 0 0 1.448 1.448l1.514.538-1.514.538a2.372 2.372 0 0 0-1.448 1.448L460.5 179l-.538-1.514a2.372 2.372 0 0 0-1.448-1.448L457 175.5l1.514-.538a2.372 2.372 0 0 0 1.448-1.448L460.5 172zM313 149l.628 1.719c.265.76.893 1.355 1.653 1.653L317 153l-1.719.628c-.76.265-1.355.893-1.653 1.653L313 157l-.628-1.719c-.265-.76-.893-1.355-1.653-1.653L309 153l1.719-.628c.76-.265 1.355-.893 1.653-1.653L313 149zm110-29 .628 1.719c.265.76.893 1.355 1.653 1.653L427 124l-1.719.628c-.76.265-1.355.893-1.653 1.653L423 128l-.628-1.719c-.265-.76-.893-1.355-1.653-1.653L419 124l1.719-.628c.76-.265 1.355-.893 1.653-1.653L423 120zM300 240l.628 1.719c.265.76.893 1.355 1.653 1.653L304 244l-1.719.628c-.76.265-1.355.893-1.653 1.653L300 248l-.628-1.719c-.265-.76-.893-1.355-1.653-1.653L296 244l1.719-.628c.76-.265 1.355-.893 1.653-1.653L300 240zM24 159l.633 1.733a2.648 2.648 0 0 0 1.634 1.634L28 163l-1.733.633a2.648 2.648 0 0 0-1.634 1.634L24 167l-.633-1.733a2.648 2.648 0 0 0-1.634-1.634L20 163l1.733-.633a2.648 2.648 0 0 0 1.634-1.634L24 159z"/><circle cx="322" cy="226" r="1" fill="#FFF"/><circle cx="285.5" cy="181.5" r="2.5" fill="#FFF"/><circle cx="279.5" cy="112.5" r="1.5" fill="#FFF"/><circle cx="352" cy="129" r="1" fill="#FFF"/><circle cx="120.5" cy="100.5" r="1.5" fill="#FFF"/><circle cx="29" cy="113" r="1" fill="#FFF"/><circle cx="97" cy="133" r="1" fill="#FFF"/><circle cx="112" cy="182" r="1" fill="#FFF"/><circle cx="402" cy="190" r="1" fill="#FFF"/><circle cx="460" cy="144" r="1" fill="#FFF"/></g></svg>