<svg xmlns="http://www.w3.org/2000/svg" width="60.192" height="118.732"><g fill-rule="evenodd" stroke-miterlimit="10" data-paper-data="{&quot;isPaintingLayer&quot;:true}" style="mix-blend-mode:normal"><path fill="#9e561a" d="M15.029 112.708h-.005l-4.14-26.843h29.19l-4.024 26.842h-.007c1.843 1.14 3.18 3.478 1.604 5.374-1.193 1.342-2.95.283-4.285-.28-1.475-.703-3.162-1.198-4.496-2.113-.866-.605-1.873-1.26-2.458-2.162-.18-.279-.263-.549-.2-.819h.003v-11.81h-.002l-.022-3.956-1.357-.026.038 3.982h.005v11.81h-.005c.062.27-.021.54-.203.819-.583.902-1.595 1.558-2.458 2.164-1.335.913-3.023 1.408-4.494 2.11-1.337.564-3.092 1.623-4.287.281-1.578-1.896-.24-4.234 1.604-5.374"/><path fill="#795c4c" d="M58.275 41.363c1.884.802 2.48 3.647 1.334 6.362-.733 1.736-2.009 2.997-3.328 3.467l.002.002s-3.511 9.988-6.568 11.102c-2.476.898-11.198-2.657-11.198-2.657s-.704-2.713-1.067-3.574c-.505-1.176-2.705-4.448-2.705-4.448l12.11 4.33 5.631-6.627c-.445-1.245-.374-2.897.303-4.498 1.146-2.71 3.603-4.26 5.486-3.46M7.587 57.461c1.828-2.34 8.464-5.786 8.464-5.786s-3.104 5.577-3.666 8.057c-.069.317-.246 1.159-.404 1.599-.199.551-.764 1.245-1.632 2.481-1.743 2.469-3.373 12.909-3.373 12.909.038.073.077.145.113.218.44.431.87 1.014 1.234 1.695.94 1.784 1.041 3.587.215 4.024-.438.236-1.051.03-1.674-.484-.669 1.198-1.716 1.931-2.813 1.816-1.678-.179-2.833-2.283-2.576-4.7.102-1.016.447-1.929.93-2.627-.007.04-.008.062-.008.062s1.438-14.456 5.19-19.264" data-paper-data="{&quot;origPos&quot;:null}"/><path fill="#795c4c" d="M5.197 80.164c-1.012-1.83-1.146-3.695-.304-4.162.845-.469 2.348.634 3.363 2.464 1.007 1.83 1.144 3.694.297 4.164-.842.465-2.343-.636-3.356-2.466M51.44 46.062c-.469-2.404.051-4.53 1.161-4.746 1.109-.219 2.386 1.56 2.852 3.964.467 2.404-.052 4.528-1.163 4.746-1.11.215-2.384-1.562-2.85-3.964" data-paper-data="{&quot;origPos&quot;:null}"/><path fill="#f1c863" d="M41.234 75.628s3.614 9.288 3.607 16.668c0 .917-.28 4.785-1.144 5.097-.677.251-2.18-.859-2.463-1.527-1.336-3.223 0-13.963 0-13.963z"/><path fill="#1e396d" d="M9.161 83.046h32.678v29.833H9.161z"/><path fill="#eeeeed" d="M9.161 112.911h32.678v-2.55H9.161zm0-7.382h32.678v-1.88H9.161zm0-3.157h32.678v-1.877H9.161zM7.374 76.236l-5.154.004s.878-7.436 2.755-13.412c.747-2.36 1.642-4.494 2.703-5.854 1.66-2.124 6.467-4.841 7.333-5.321 2.148-1.389 8.596-1.599 8.596-1.599l1.8.056h.15l1.798-.056s6.474.23 8.608 1.627l10.826 4.105 5.336-6.685 5.223 2.627s-4.581 9.63-7.636 10.74c-2.376.866-9.45-1.9-10.02-2.3 1.543 6.67 1.955 15.303 2.054 20.666.006.133.006.367.012.568 0 .107-32.539.002-32.539.002l.026-.893c.109-4.498.45-11.158 1.45-17.087l-.255.368c-.263.37-.517.913-.755 1.562-1.357 3.682-2.31 10.882-2.31 10.882"/><path fill="#f1c863" d="M9.161 76.671h32.678v6.375H9.161z"/><path fill="#b5b4b4" d="M37.687 74.926h-1.14l-4.754-24.63 2.277.47zm-24.64 8.186h-1.071l2.678-31.543 2.412-.872z"/><path fill="#2c2c2d" d="m49.296 91.137-36.683 10.509-6.918-18.212 35.964-12.405z"/><path fill="#bc1718" d="m11.907 81.29 24.37-8.406 7.532 19.827-24.862 7.12z"/><path fill="#f7b90b" d="m33.499 73.841.235-.082 7.479 19.693-.24.073zm-19.107 6.592.235-.081 7.097 18.683-.24.069z"/><path fill="#2c2c2d" d="m14.628 80.352 18.871-6.51 7.475 19.683-19.25 5.51z"/><path fill="#bc1718" d="m18.77 78.923 10.588-3.651 7.39 19.461-10.798 3.092z"/><path fill="#f7b90b" d="m29.357 75.271.295-.103 7.399 19.479-.303.086zm-10.881 3.755.294-.103 7.18 18.903-.303.085z"/><path fill="#d0d0d0" d="M10.828 86.536s-.724-3.275.18-3.677c10.185-4.545 29.422-8.998 29.422-8.998s-22.445 5.893-28.335 10.176c-.587.424-1.267 2.499-1.267 2.499m26.807 6.757c5.595-1.714 8.541-3.214 7.087-8.773 3.006 5.505.684 7.736-7.087 8.773"/><path fill="#eeeeed" d="m12.163 91.6 7.3 2.13a69.584 69.584 0 0 1-.672-1.524 82.336 82.336 0 0 1-2.204-5.573L12.164 91.6zm7.908 2.495a104.207 104.207 0 0 0 2.33 4.75.439.439 0 0 1-.393.109 98.91 98.91 0 0 1-2.298-4.69l-4.608 4.834 4.898.431-1.102.317-4.214-.382-2.877.772-.108-.384 2.87-.776 4.735-4.973-7.732-2.256-2.403.76-.12-.388 2.706-.85.02.066 4.565-5.134-7.37-1.878-2.765 1.01-.141-.384 2.782-1.007 2.941-2.713.909-.31-3.331 3.092 6.966 1.774c-.65-1.935-1.206-3.928-1.446-5.623.056-.133.292-.143.392-.135.233 1.747.818 3.823 1.5 5.829l27.118-8.895.124.384-27.112 8.89a83.423 83.423 0 0 0 2.25 5.713c.243.56.49 1.119.742 1.676l27.205-8.233.111.385-27.145 8.218z"/><path fill="#b98c6a" d="M12.874 102.343c-.261.082-.558-.077-.665-.353L5.243 83.643c-.107-.277.02-.57.282-.652l.007-.002c.26-.081.56.075.667.352l6.967 18.347c.103.278-.023.57-.286.653zM49.335 91.41c-.228.072-.494-.065-.583-.311l-7.547-19.858c-.092-.244.019-.501.25-.574.235-.073.686-.05.782.195l7.54 19.858c.095.242-.213.617-.442.69"/><path fill="#795c4c" d="m28.86 50.03.605.066-4.047 5.533-3.906-5.544.556-.055c-.306-.679-.492-1.449-.492-1.929h7.774c0 .48-.186 1.249-.49 1.929" data-paper-data="{&quot;origPos&quot;:null}"/><path fill="#683918" d="M22.411 50.675c-.441-.67-.749-1.6-.817-2.27 2.565.415 5.182.406 7.744-.028l-.018.013-6.91 2.284"/><path fill="#dcdcdc" d="M25.153 55.697h.406v13.03h-.406zm-1.024-1.825-3.512-5.428s-1.322 1.183-1.45 1.528c-.135.341 4.259 6.645 4.032 5.728-.229-.922.93-1.829.93-1.829zm2.606 0 3.517-5.428s1.319 1.183 1.447 1.528c.132.341-4.261 6.645-4.032 5.728.224-.922-.932-1.829-.932-1.829z"/><path fill="#795c4c" d="M48.473 28.851c1.199.77 1.988 2.086 1.988 3.58 0 2.372-1.996 4.298-4.461 4.298-.071 0-.144-.002-.21-.004-3.996 7.17-11.641 12.019-20.411 12.019-8.786 0-16.436-4.858-20.426-12.043a4.512 4.512 0 0 1-.493.028c-2.463 0-4.46-1.926-4.46-4.298 0-1.602.91-3 2.258-3.739a23.7 23.7 0 0 1-.24-3.358c0-12.93 10.454-23.415 23.361-23.415 12.894 0 23.354 10.485 23.354 23.415 0 1.193-.087 2.37-.26 3.517" data-paper-data="{&quot;origPos&quot;:null}"/><path fill="#2c2c2d" d="M49.542 22.099c.036 2.747-.921 8.7-2.79 12.247 0 0-4.594-13.031-8.381-15.094-4.624-2.525-16.817 1.11-20.951-2.159-.687-.544-.608-1.77-.608-1.77s-.795 1.565-1.171 2c-2.008 2.289-7.199 5.593-9.666 7.371-1.982 1.428-2.071 1.41-1.633 9.652 0 0-3.644-7.498-3.444-12.506.057-1.44.759-4.639 1.894-7.892C6.9 5.683 15.42.001 25.266 0c11.305 0 20.86 7.496 24.002 17.799.158 1.428.25 2.863.274 4.3"/><path fill="#2c2c2d" d="M20.95 24.553s-.48 1.695-1.992 1.36c-.738-.164-.868-1.13-3.238-.697-.745.17-2.312 1.087-2.614 1.7-.302.613-.084-2.248 2.35-3.312 1.756-.634 2.351-.603 3.805-.603 1.453 0 1.901.853 1.69 1.552m10.099 0s.48 1.695 1.992 1.36c.738-.164.868-1.13 3.238-.697.745.17 2.312 1.087 2.614 1.7.302.613.084-2.248-2.35-3.312-1.756-.634-2.351-.603-3.805-.603-1.453 0-1.901.853-1.69 1.552M19 32.001c0 1.657-.895 3-2 3s-2-1.343-2-3 .895-3 2-3 2 1.343 2 3m18 0c0 1.657-.895 3-2 3s-2-1.343-2-3 .895-3 2-3 2 1.343 2 3"/><path fill="#683918" d="M23 35.001s.207-1.042.504-1.342c.801-1.195 2.491-1.658 2.491-1.658s2.175.727 2.654 1.641c.443.852.341 1.28.341 1.28s-2.125-1.934-2.965-1.816C24.898 33.264 23 35.001 23 35.001zM19.2 37.697s6.897 3.208 13.172-.397c0 0-1.39 5.47-5.95 5.561-4.115.122-4.984-1.492-5.477-1.956-.492-.463-1.42-1.772-1.745-3.208"/></g></svg>