<svg xmlns="http://www.w3.org/2000/svg" width="73.081" height="119.422"><g fill-rule="evenodd" stroke-miterlimit="10" data-paper-data="{&quot;isPaintingLayer&quot;:true}" style="mix-blend-mode:normal"><path fill="#864e1a" d="M.438 101.945h2.819v14.398H.438z"/><path fill="#ad6921" d="m0 101.066.44.816v14.461l-.44-.818z"/><path fill="#5f3311" d="M0 101.126h27.221l8.78 15.705-26.788.34z"/><path fill="#ad6921" d="M.438 88.745h26.784v5.53H.438z"/><path fill="#5f3311" d="M.44 87.926v6.348l-.44-.82v-5.528z"/><path fill="#ad6921" d="M.438 96.35h26.784v5.532H.438z"/><path fill="#5f3311" d="M.44 95.535v6.347l-.44-.817v-5.53z"/><path fill="#ad6921" d="M35.185 105.154v5.533l-9.222-17.193v-5.528z"/><path fill="#864e1a" d="m35.186 105.154-9.223-17.189h.823l9.215 17.19z"/><path fill="#864e1a" d="m26.786 87.926.435.818H.44L0 87.926z"/><path fill="#ad6921" d="M35.185 112.76v5.533l-9.222-17.184v-5.533z"/><path fill="#864e1a" d="m35.186 112.76-9.224-17.184h.823L36 112.76z"/><path fill="#864e1a" d="m26.786 95.535.435.814H.44L0 95.535z"/><path fill="#ad6921" d="M26.403 94.276h.819v2.073h-.819zm-.441-.82.44.818v2.075l-.44-.814z"/><path fill="#71b96c" d="M20.428 93.156c1.715 0 3.097 1.246 3.097 2.786 0 1.538-1.382 2.786-3.097 2.786-.892 0-1.689-.334-2.25-.866-.558.755-1.515 1.252-2.59 1.252-1.718 0-3.108-1.246-3.108-2.786 0-1.538 1.39-2.79 3.108-2.79a3.28 3.28 0 0 1 2.246.864c.554-.753 1.508-1.246 2.594-1.246m-9.337 13.212c1.194.386 2.044 1.416 2.044 2.625 0 1.54-1.385 2.786-3.1 2.786-1.708 0-3.11-1.246-3.11-2.786.002-.234.038-.467.105-.692-1.2-.388-2.057-1.42-2.057-2.627a2.59 2.59 0 0 1 .161-.887c-1.299-.332-2.248-1.406-2.248-2.68 0-.288.05-.574.148-.846-.69-.51-1.117-1.288-1.117-2.145 0-.393.09-.775.25-1.113-.8-.508-1.325-1.34-1.325-2.295 0-1.538 1.391-2.784 3.108-2.784 1.715 0 3.099 1.246 3.099 2.784a2.54 2.54 0 0 1-.257 1.121c.801.507 1.337 1.34 1.337 2.287 0 .3-.057.576-.15.846.681.513 1.118 1.285 1.118 2.145a2.52 2.52 0 0 1-.165.886c1.297.334 2.249 1.41 2.249 2.681 0 .24-.031.472-.09.694m16.715-14.68c.089-.954-.146-2.025-.133-2.697.028-1.268-.453-2.348-1.7-2.454-1.267-.112-1.85.868-2.061 2.114-.111.671-.588 1.68-.666 2.631a2.298 2.298 0 0 0 2.072 2.487 2.295 2.295 0 0 0 2.488-2.08"/><path fill="#477747" d="M25.081 86.557a1.278 1.278 0 0 1-.319-.9c.673.08 1.173.662 1.15 1.34a1.249 1.249 0 0 1-.831-.44"/><path fill="#477747" d="M26.875 86.623a1.702 1.702 0 0 1-1.12.54c0-.41.158-.832.456-1.16a1.67 1.67 0 0 1 1.123-.53c-.007.41-.153.825-.46 1.15"/><path fill="#8bc276" d="M25.259 90.39a2.295 2.295 0 0 1-1.543 2.847 2.29 2.29 0 0 1-2.84-1.549c-.281-.91-.211-2.024-.353-2.692-.259-1.23-.072-2.367 1.14-2.727 1.209-.36 2.049.467 2.486 1.656.233.632.851 1.547 1.11 2.465"/><path fill="#477747" d="M20.838 86.62a1.294 1.294 0 0 1-.618-.715c.313-.089.649-.053.936.1.293.149.515.407.618.72a1.296 1.296 0 0 1-.936-.106"/><path fill="#477747" d="M22.541 86.024a1.68 1.68 0 0 1-.845.906 1.67 1.67 0 0 1 0-1.24c.166-.412.47-.733.845-.912a1.77 1.77 0 0 1 0 1.246"/><path fill="#c4aa3a" d="M20.745 85.55c1.216.975 1.658 6.021 1.658 6.021a3.612 3.612 0 0 1-3.036 4.1l-.009.006a3.61 3.61 0 0 1-4.091-3.04s-1.11-5.059-.107-6.252c.916-1.08 4.488-1.722 5.585-.836"/><path fill="#635416" d="m21.812 87.904.03.137-1.456-.436-1.316.803-1.483-.443-1.323.798-1.476-.445-.045.024c0-.044 0-.1.006-.144l.02-.015 1.482.447 1.317-.807 1.477.447 1.33-.798 1.437.432m.324 1.946-1.484-.439-1.317.8-1.485-.446-1.323.805-1.473-.445-.183.104c0-.037-.018-.087-.018-.133l.185-.113 1.478.447 1.317-.799 1.484.446 1.322-.806 1.475.446.046-.029c.006.045.013.09.022.133zm.228 1.561-1.478-.447-1.323.801-1.478-.448-1.318.808-1.49-.448-.174.112a.738.738 0 0 1-.021-.133l.185-.114 1.473.44 1.328-.8 1.478.447 1.318-.807 1.483.447.017-.013a.433.433 0 0 1 .017.14zm-.023 1.523c-.007.044-.011.083-.028.122l-1.17-.353-1.32.807-1.485-.447-1.316.801-1.476-.448-.054.033c-.018-.04-.031-.079-.053-.12l.087-.046 1.483.447 1.316-.807 1.476.447 1.33-.8 1.21.364"/><path fill="#71b96c" d="M15.58 85.398a3.33 3.33 0 0 1-1.312-2.047 3.287 3.287 0 0 1 2.35.61 3.282 3.282 0 0 1 1.308 2.037 3.312 3.312 0 0 1-2.346-.6"/><path fill="#71b96c" d="M20.12 84.486a4.373 4.373 0 0 1-2.475 2.018 4.397 4.397 0 0 1 .446-3.163 4.34 4.34 0 0 1 2.47-2.016c.257 1.072.1 2.201-.441 3.161"/><path fill="#c4aa3a" d="M6.742 84.537c1.2.995 1.57 6.04 1.57 6.04a3.612 3.612 0 0 1-3.1 4.058h-.006a3.598 3.598 0 0 1-4.049-3.099s-1.038-5.072-.013-6.25c.93-1.067 4.514-1.654 5.598-.749"/><path fill="#635416" d="M7.767 86.902c.011.048.026.094.041.142l-1.452-.46-1.338.78-1.468-.468-1.34.785-1.467-.462-.046.026c0-.055 0-.1.007-.155l.019-.013 1.47.467 1.338-.779L5 87.227l1.335-.775 1.431.45m.301 1.955-1.473-.465-1.335.785-1.47-.466-1.337.778-1.467-.466-.185.106a.809.809 0 0 1-.015-.133l.185-.113 1.471.466 1.334-.78 1.472.467 1.334-.779 1.467.467.05-.029c.004.05.013.09.013.136zm.205 1.562-1.471-.47-1.334.78-1.472-.464-1.336.786-1.467-.467-.181.107c-.013-.05-.013-.087-.026-.135l.185-.114 1.476.468 1.33-.78 1.478.467 1.327-.783 1.478.471.027-.02a.86.86 0 0 0 .01.138zm-.042 1.524a.607.607 0 0 0-.03.12L7.035 91.7l-1.327.777-1.48-.467-1.328.787-1.48-.47-.052.03c-.011-.042-.024-.08-.037-.12l.078-.046 1.469.466 1.339-.78 1.467.467 1.338-.788 1.208.388"/><path fill="#71b96c" d="M1.575 84.303A3.312 3.312 0 0 1 .293 82.24a3.3 3.3 0 0 1 2.342.641 3.335 3.335 0 0 1 1.289 2.064 3.324 3.324 0 0 1-2.348-.64"/><path fill="#71b96c" d="M6.13 83.466a4.366 4.366 0 0 1-2.498 1.972 4.38 4.38 0 0 1 .491-3.153 4.329 4.329 0 0 1 2.501-1.974 4.4 4.4 0 0 1-.494 3.154"/><path fill="#f7b90b" d="M12.235 87.925c.222.395-.307 1.171-.495 1.665-.27.706-.914 1.433-1.82 1.946-.935.54-1.927.726-2.685.574-.479-.1-1.25-.107-1.462-.48-.203-.354.17-1.006.302-1.45.242-.752.912-1.535 1.878-2.09.817-.475 1.685-.674 2.395-.612.611.043 1.628 0 1.887.447m3.449.684c.446.043.797.914 1.1 1.348.424.626.65 1.575.574 2.605-.092 1.082-.497 2.012-1.056 2.546-.352.34-.796.974-1.22.94-.4-.03-.73-.71-1.02-1.08-.485-.61-.75-1.618-.659-2.726.074-.947.4-1.772.845-2.326.393-.478.925-1.349 1.436-1.307"/><path fill="#dda20c" d="M13.246 85.151c.45.04.795.914 1.106 1.353.42.62.65 1.566.57 2.607-.094 1.082-.498 2.005-1.051 2.544-.361.342-.799.97-1.223.934-.407-.03-.732-.707-1.021-1.074-.481-.62-.749-1.616-.664-2.725.072-.947.4-1.778.847-2.326.398-.482.929-1.352 1.436-1.313"/><path fill="#68a369" d="M15.956 96.968c1.158 4.086-.168 8.04-2.956 8.834-2.788.785-5.983-1.88-7.136-5.967-1.156-4.087.165-8.038 2.953-8.832 2.793-.795 5.986 1.88 7.14 5.965"/><path fill="#477747" d="M7.541 99.37c.821 2.885 2.488 5.111 4.225 5.93-1.896-.365-3.846-2.66-4.73-5.785-.885-3.133-.422-6.11.995-7.418-1.051 1.612-1.304 4.388-.49 7.272m6.375-1.816c.82 2.887.568 5.662-.484 7.275 1.413-1.302 1.877-4.288.995-7.412-.892-3.127-2.842-5.426-4.734-5.795 1.741.82 3.409 3.055 4.223 5.932"/><path fill="#477747" d="M8.978 98.962c.77 2.697 2.07 4.852 3.35 5.72-1.345-.464-2.864-2.694-3.698-5.62-.823-2.933-.705-5.633.2-6.733-.624 1.407-.613 3.933.148 6.633m3.588-1.02c.766 2.698.77 5.218.148 6.632.901-1.1 1.023-3.807.2-6.733-.829-2.926-2.342-5.157-3.685-5.627 1.265.875 2.58 3.031 3.337 5.727"/><path fill="#68a369" d="M31.172 98.828c-.496 4.221-3.219 7.368-6.092 7.04-2.877-.333-4.82-4.027-4.335-8.24.48-4.218 3.206-7.37 6.092-7.037 2.87.332 4.812 4.017 4.335 8.237"/><path fill="#477747" d="M22.475 97.836c.344-2.98 1.628-5.445 3.219-6.532-1.811.666-3.372 3.247-3.746 6.472-.366 3.233.566 6.1 2.174 7.158-1.299-1.418-1.987-4.119-1.647-7.097m6.581.76c.348-2.98-.353-5.674-1.65-7.103 1.61 1.062 2.542 3.933 2.176 7.16-.372 3.234-1.933 5.813-3.746 6.478 1.594-1.09 2.873-3.558 3.22-6.537"/><path fill="#477747" d="M23.965 98.007c.318-2.784 1.26-5.125 2.379-6.185-1.25.674-2.394 3.122-2.743 6.146-.341 3.02.21 5.666 1.282 6.61-.853-1.29-1.242-3.785-.918-6.57m3.694.428c.32-2.787-.065-5.28-.916-6.566 1.07.94 1.623 3.585 1.28 6.605-.349 3.026-1.494 5.476-2.743 6.153 1.119-1.067 2.059-3.408 2.379-6.192"/><path fill="#f7b531" d="M21.901 97.55c-1.156 2.925 1.596 6.595 1.236 6.717a4.557 4.557 0 0 1-1.423-.512c-2.479-1.393-3.176-4.862-1.569-7.74 1.617-2.88 4.936-4.084 7.42-2.687l.16.1c.433.821-4.466.72-5.824 4.121"/><path fill="#efc15a" d="M20.077 98.8c1.187 2.926 5.709 3.668 5.535 4.001a4.29 4.29 0 0 1-1.382.62c-2.751.713-5.652-1.307-6.475-4.505-.82-3.2.74-6.365 3.494-7.078.065-.016.134-.029.2-.042.881.294-2.738 3.62-1.372 7.004"/><path fill="#edae2d" d="M16.277 97.044c.28-3.65-4.174-5.716-3.43-6.26.067-.006.133-.015.2-.02 2.843-.16 5.291 2.38 5.487 5.678.19 3.292-1.963 6.098-4.797 6.264a4.676 4.676 0 0 1-1.517-.17c-.259-.264 3.818-2.348 4.057-5.492"/><path fill="#f29221" d="M34.15 103.92a3.221 3.221 0 1 1-6.442 0 3.221 3.221 0 0 1 6.442 0"/><path fill="#71b96c" d="M30.012 100.513a1.91 1.91 0 0 1-.349-1.353c.47.097.888.366 1.169.755.284.388.41.87.353 1.346a1.891 1.891 0 0 1-1.173-.748"/><path fill="#71b96c" d="M32.647 100.828a2.496 2.496 0 0 1-1.7.66c.044-.63.329-1.22.795-1.646a2.519 2.519 0 0 1 1.702-.654 2.457 2.457 0 0 1-.797 1.64"/><path fill="#f29221" d="M34.962 111.06a3.223 3.223 0 1 1-6.447 0 3.223 3.223 0 0 1 6.447 0"/><path fill="#68a369" d="M30.824 107.653a1.895 1.895 0 0 1-.352-1.353c.472.094.89.364 1.17.755.303.397.405.886.355 1.346a1.91 1.91 0 0 1-1.173-.748"/><path fill="#68a369" d="M33.459 107.968a2.481 2.481 0 0 1-1.702.653 2.486 2.486 0 0 1 2.499-2.293 2.515 2.515 0 0 1-.797 1.64"/><path fill="#f29221" d="M30.122 113.474c.29 1.758-.888 3.43-2.64 3.73a3.216 3.216 0 0 1-3.715-2.644 3.221 3.221 0 0 1 2.631-3.728 3.231 3.231 0 0 1 3.724 2.642"/><path fill="#68a369" d="M25.459 110.815a1.883 1.883 0 0 1-.566-1.275c.478.015.934.208 1.278.54.343.338.547.792.572 1.272a1.911 1.911 0 0 1-1.284-.537"/><path fill="#68a369" d="M28.112 110.68a2.51 2.51 0 0 1-1.57.935c-.057-.63.13-1.259.52-1.757.384-.5.945-.833 1.568-.93a2.486 2.486 0 0 1-.518 1.751"/><path fill="#d77917" d="M29.922 105.132a3.237 3.237 0 0 1-2.635 3.727 3.232 3.232 0 0 1-1.088-6.37c1.756-.304 3.414.885 3.723 2.643"/><path fill="#71b96c" d="M25.266 102.467a1.895 1.895 0 0 1-.573-1.272c.48.015.938.21 1.28.548.344.334.548.787.57 1.265a1.899 1.899 0 0 1-1.277-.542"/><path fill="#71b96c" d="M27.912 102.335c-.398.52-.97.83-1.57.931a2.48 2.48 0 0 1 .52-1.752c.4-.519.974-.83 1.568-.93a2.489 2.489 0 0 1-.518 1.751"/><path fill="#f29221" d="M8.438 100.86c.244-.425 1.548-.724 1.91-.392 1.009 1.53.822 8.845.822 8.845s-2.94-6.487-2.732-8.453"/><path fill="#71b96c" d="M9.454 98.816c.255 1.2.279 2.207.072 2.244-.204.05-.577-.893-.823-2.084-.243-1.202-.274-2.208-.074-2.254.214-.039.586.893.825 2.095"/><path fill="#71b96c" d="M8.736 98.856c.587 1.073.905 2.026.718 2.133-.191.098-.812-.694-1.397-1.767-.57-1.08-.89-2.034-.703-2.138.187-.1.807.691 1.382 1.771"/><path fill="#71b96c" d="M9.378 98.723c.102-1.222.361-2.195.574-2.173.216.013.301 1.021.196 2.24-.106 1.218-.363 2.191-.572 2.17-.215-.02-.309-1.017-.198-2.237"/><path fill="#f29221" d="M12.035 100.29c.237-.42 1.556-.708 1.902-.37.999 1.55.703 8.867.703 8.867s-2.843-6.532-2.605-8.498"/><path fill="#71b96c" d="M13.085 98.263c.226 1.198.237 2.206.034 2.243-.204.041-.568-.897-.792-2.1-.224-1.206-.246-2.21-.041-2.25.213-.04.568.905.799 2.107"/><path fill="#71b96c" d="M12.366 98.291c.562 1.077.866 2.044.675 2.136-.187.1-.801-.699-1.363-1.787-.561-1.087-.864-2.045-.672-2.143.191-.094.796.703 1.36 1.794"/><path fill="#71b96c" d="M13.004 98.163c.122-1.215.394-2.189.607-2.16.213.02.285 1.021.155 2.238-.122 1.22-.392 2.187-.599 2.165-.213-.016-.292-1.023-.163-2.243"/><path fill="#d77917" d="M10.33 100.402c.31-.388 1.637-.506 1.944-.122.798 1.654-.405 8.88-.405 8.88s-2.002-6.838-1.539-8.758"/><path fill="#71b96c" d="M11.636 98.523c.073 1.22-.04 2.22-.251 2.232-.216.01-.438-.969-.52-2.186-.083-1.22.026-2.22.24-2.234.212-.01.45.968.53 2.188"/><path fill="#71b96c" d="M10.916 98.456c.427 1.146.6 2.137.401 2.213-.2.072-.703-.8-1.125-1.946-.422-1.148-.603-2.132-.407-2.217.2-.072.71.803 1.132 1.95"/><path fill="#71b96c" d="M11.563 98.414c.272-1.193.664-2.118.87-2.072.213.047.162 1.051-.117 2.247-.274 1.191-.668 2.118-.877 2.073-.203-.046-.148-1.052.124-2.248"/><path fill="#e42328" d="M19.722 102.896c0 1.4-1.28 2.537-2.85 2.537-1.563 0-2.841-1.137-2.841-2.538 0-1.41 1.278-2.548 2.84-2.548 1.572 0 2.851 1.14 2.851 2.548"/><path fill="#71b96c" d="M15.956 100.894a1.915 1.915 0 0 1-.572-1.273 1.91 1.91 0 0 1 1.852 1.815 1.927 1.927 0 0 1-1.28-.542"/><path fill="#71b96c" d="M18.606 100.762c-.4.52-.972.831-1.57.932a2.514 2.514 0 0 1 .522-1.752c.393-.52.966-.834 1.567-.934a2.53 2.53 0 0 1-.518 1.754"/><path fill="#e42328" d="M24.694 103.568c0 1.4-1.28 2.538-2.845 2.538-1.578 0-2.85-1.139-2.85-2.538 0-1.407 1.272-2.546 2.85-2.546 1.565 0 2.845 1.14 2.845 2.546"/><path fill="#71b96c" d="M20.923 101.57a1.917 1.917 0 0 1-.57-1.274c.48.014.937.206 1.282.538.343.338.548.792.575 1.272a1.925 1.925 0 0 1-1.287-.536"/><path fill="#71b96c" d="M23.58 101.436c-.388.497-.95.829-1.571.931a2.456 2.456 0 0 1 .513-1.752c.403-.52.969-.84 1.568-.934a2.505 2.505 0 0 1-.51 1.755"/><path fill="#b91922" d="M25.453 110.212c0 1.403-1.27 2.542-2.847 2.542-1.567 0-2.845-1.14-2.845-2.542 0-1.407 1.278-2.544 2.845-2.544 1.578 0 2.847 1.137 2.847 2.544"/><path fill="#71b96c" d="M21.688 108.213a1.94 1.94 0 0 1-.572-1.273c.48.014.936.207 1.28.54.343.338.547.793.57 1.274a1.936 1.936 0 0 1-1.278-.54"/><path fill="#71b96c" d="M24.336 108.08a2.51 2.51 0 0 1-1.568.935 2.499 2.499 0 0 1 2.083-2.688 2.464 2.464 0 0 1-.514 1.752"/><path fill="#e42328" d="M21.28 111.12c0 1.402-1.28 2.537-2.85 2.537-1.568 0-2.841-1.135-2.841-2.537 0-1.408 1.273-2.547 2.84-2.547 1.572 0 2.851 1.14 2.851 2.547"/><path fill="#71b96c" d="M17.514 109.121a1.912 1.912 0 0 1-.572-1.273 1.908 1.908 0 0 1 1.852 1.81 1.905 1.905 0 0 1-1.28-.537"/><path fill="#71b96c" d="M20.158 108.986c-.398.52-.966.834-1.569.932a2.54 2.54 0 0 1 .52-1.752c.385-.5.947-.833 1.57-.933.055.63-.13 1.257-.52 1.754"/><path fill="#e42328" d="M16.672 113.425c0 1.4-1.27 2.542-2.842 2.542-1.567 0-2.847-1.14-2.847-2.542 0-1.407 1.28-2.538 2.847-2.538 1.571 0 2.842 1.13 2.842 2.538"/><path fill="#71b96c" d="M12.915 111.426a1.859 1.859 0 0 1-.575-1.274c.479.015.935.211 1.275.548.347.333.552.787.573 1.267a1.879 1.879 0 0 1-1.273-.54"/><path fill="#71b96c" d="M15.559 111.292c-.4.52-.969.836-1.572.936a2.5 2.5 0 0 1 .523-1.756 2.46 2.46 0 0 1 1.567-.932 2.51 2.51 0 0 1-.518 1.752"/><path fill="#b91922" d="M14.789 111.358c0 1.403-1.28 2.542-2.849 2.542-1.573 0-2.842-1.139-2.842-2.542 0-1.407 1.269-2.544 2.842-2.544 1.57 0 2.85 1.137 2.85 2.544"/><path fill="#71b96c" d="M11.019 109.36a1.931 1.931 0 0 1-.575-1.275c.481.016.94.209 1.286.542.34.34.545.793.573 1.273a1.918 1.918 0 0 1-1.284-.54"/><path fill="#71b96c" d="M13.671 109.226c-.407.52-.97.835-1.569.935a2.479 2.479 0 0 1 .516-1.754c.402-.52.966-.84 1.569-.934a2.519 2.519 0 0 1-.516 1.752"/><path fill="#ad6921" d="M9.214 105.155h26.788v5.533H9.214z"/><path fill="#5f3311" d="m9.214 110.687-.437-.82v-5.533h.437z"/><path fill="#864e1a" d="M36.001 105.154H9.213l-.437-.82H35.56z"/><path fill="#ad6921" d="M9.214 112.76h26.788v5.534H9.214z"/><path fill="#5f3311" d="m9.214 118.294-.437-.82v-5.534h.437z"/><path fill="#864e1a" d="M36.001 112.76H9.213l-.437-.82H35.56z"/><path fill="#ad6921" d="M9.213 112.76v5.533L0 101.11v-5.533z"/><path fill="#864e1a" d="M9.214 112.76.001 95.576h.812l9.222 17.184z"/><path fill="#ad6921" d="M.438 94.274h.812v2.072H.438zM0 93.457l.438.82v2.07L0 95.537z"/><path fill="#ad6921" d="M9.213 105.154v5.533L0 93.494v-5.528z"/><path fill="#864e1a" d="M9.214 105.154.001 87.965h.812l9.222 17.19z"/><path fill="#ad6921" d="M9.214 110.688h.82v2.072h-.82zM8.776 109.867l.438.82v2.073l-.438-.814zm26.409.821h.817v2.072h-.816zm-.438-.82.438.82v2.072l-.438-.814z"/><path fill="#333433" d="M59.322 113.7c1.724 1.071 2.982 3.325 1.504 5.105-1.117 1.25-2.767.3-4.014-.229-1.386-.657-2.968-1.104-4.22-1.957-.803-.567-1.752-1.246-2.298-2.086-.168-.266-.246-.582-.187-.833zm-19.682 0c-1.726 1.071-2.982 3.325-1.502 5.105 1.12 1.25 2.76.3 4.012-.229 1.384-.657 2.958-1.104 4.207-1.957.81-.567 1.758-1.246 2.3-2.086.177-.266.255-.582.194-.833h-9.21z"/><path fill="#565657" d="m61.398 88.551-1.882 25.218h-9.538l-.36-18.242h-.277l-.364 18.242H39.44l-1.874-25.218z"/><path fill="#c09369" d="M66.33 62.022c3.517 4.504 4.87 18.048 4.87 18.048s0-.015-.01-.059c.455.653.77 1.508.875 2.46.237 2.264-.845 4.232-2.423 4.4-1.023.111-2.009-.574-2.633-1.693-.575.478-1.156.672-1.565.454-.775-.415-.684-2.1.204-3.773.34-.64.734-1.18 1.156-1.588.033-.072.072-.14.107-.205 0 0-1.528-9.779-3.16-12.092-.821-1.16-1.343-1.813-1.53-2.328-.153-.41-.318-1.198-.384-1.496-.518-2.322-3.39-7.56-3.39-7.56s6.176 3.24 7.883 5.432M18.857 46.94c1.154-.489 2.53-.04 3.657 1.04.505-.763 1.105-1.188 1.66-1.08 1.04.2 1.524 2.19 1.084 4.445a7.974 7.974 0 0 1-.777 2.254c-.043.272-.11.54-.2.8l5.267 6.204 11.185-4.013s-1.9 3.02-2.368 4.126c-.335.8-1.003 3.347-1.003 3.347s-8.173 3.334-10.487 2.485c-2.866-1.038-6.157-10.396-6.157-10.396-1.232-.44-2.422-1.62-3.11-3.258-1.08-2.537-.52-5.2 1.25-5.954" data-paper-data="{&quot;origPos&quot;:null}"/><path fill="#eeeeed" d="M66.497 79.611s-1.236-9.338-2.864-11.65c-.084-.12-.167-.232-.244-.348 1.596 9.474 1.402 20.93 1.402 20.93v2.187H34.283v-2.178s-.298-14.326 1.94-24.052c-.558.26-7.22 2.902-9.438 2.094-2.868-1.04-7.09-9.938-7.09-9.938l4.572-2.26 5.324 6.191 10.129-3.97c1.994-1.314 8.059-1.527 8.059-1.527l1.69.052h.141l1.683-.052s6.037.194 8.05 1.498c.812.448 5.313 2.992 6.869 4.98 3.515 4.505 5.055 18.05 5.055 18.05l-4.77-.007"/><path fill="#c09369" d="M25.336 51.056c-.32 2.153-1.393 3.78-2.386 3.628-.99-.148-1.534-2.014-1.205-4.16.317-2.154 1.38-3.78 2.368-3.633.994.152 1.54 2.016 1.223 4.165" data-paper-data="{&quot;origPos&quot;:null}"/><path fill="#68a369" d="M63.917 71.461c.766 6.471.903 15.757.903 15.757v12.323H34.276V88.305c0-1.476-.081-9.293.803-16.896 1.95-.34 6.014-1.342 7.104-3.81V55.743c.77-.168 1.604-.295 2.378-.395v9.8h10.23v-9.77a22.76 22.76 0 0 1 2.375.411V67.6c.975 2.754 4.908 3.61 6.751 3.862"/><path fill="#477747" d="M34.275 87.722H64.82v.814H34.276v-.232z"/><path fill="#c09369" d="m49.682 59.163 3.66-3.932c-1.093-.113-1.892-.142-1.892-.142l-1.682.06h-.137l-1.694-.095c-.683.045-1.364.108-2.044.19l3.79 3.92zm21.539-23.829c1.122.726 1.86 1.952 1.86 3.35 0 2.228-1.87 4.028-4.181 4.028h-.196c-3.746 6.72-10.896 11.256-19.116 11.256-8.231 0-15.398-4.55-19.133-11.278a4.355 4.355 0 0 1-.459.022c-2.31 0-4.184-1.8-4.184-4.028 0-1.498.858-2.803 2.112-3.497a22.808 22.808 0 0 1-.216-3.155c0-12.109 9.792-21.927 21.88-21.927 12.082 0 21.878 9.818 21.878 21.928a21.62 21.62 0 0 1-.246 3.3" data-paper-data="{&quot;origPos&quot;:null}"/><path fill="#864e1a" d="M42.655 31.602c-.772-.174-.908-1.2-3.386-.74-.779.18-2.417 1.156-2.732 1.808-.316.652-.088-2.392 2.457-3.522 1.835-.675 2.457-.642 3.977-.642s1.987.907 1.766 1.65c0 0-.503 1.803-2.082 1.446zm13.905 0c.772-.174.908-1.2 3.386-.74.779.18 2.417 1.156 2.732 1.808.316.652.087-2.392-2.457-3.522-1.835-.675-2.457-.642-3.977-.642s-1.987.907-1.766 1.65c0 0 .503 1.803 2.082 1.446zM42.691 37.506c0 1.657-.895 3-2 3s-2-1.343-2-3 .895-3 2-3 2 1.343 2 3m18 0c0 1.657-.895 3-2 3s-2-1.343-2-3 .895-3 2-3 2 1.343 2 3" data-paper-data="{&quot;origPos&quot;:null}"/><path fill="#eeac6c" d="M49.446 40.575c-1.125.153-3.02 1.834-3.02 1.834s.207-1.009.503-1.299c.8-1.156 2.487-1.604 2.487-1.604s2.173.703 2.65 1.588c.443.824.34 1.238.34 1.238s-2.121-1.87-2.96-1.756z"/><path fill="#b91922" d="M42.626 44.202s6.897 3.208 13.172-.397c0 0-1.39 5.47-5.95 5.561-4.115.122-4.984-1.492-5.477-1.956-.492-.463-1.42-1.772-1.745-3.208" data-paper-data="{&quot;origPos&quot;:null}"/><path fill="#864e1a" d="M72.335 29.18c.035 2.574-.862 8.147-2.612 11.472 0 0-4.309-12.21-7.855-14.145-4.327-2.358-15.751 1.05-19.621-2.018-.644-.506-.57-1.658-.57-1.658s-.744 1.464-1.106 1.878c-1.871 2.138-6.741 5.241-9.041 6.897-1.863 1.342-1.939 1.33-1.534 9.046 0 0-3.411-7.026-3.228-11.71.057-1.353.705-4.353 1.77-7.4 3.856-7.746 11.835-13.063 21.051-13.063 10.592 0 19.549 7.02 22.485 16.667a44.75 44.75 0 0 1 .26 4.034" data-paper-data="{&quot;origPos&quot;:null}"/><path fill="#c09369" d="M47.878 56.49c-1.014 0-1.847-2.207-1.847-3.209h7.273c0 1.002-.832 3.208-1.852 3.208h-3.574" data-paper-data="{&quot;origPos&quot;:null}"/><path fill="#eeac6c" d="M46.811 55.81c-.413-.628-.694-1.5-.761-2.128a21.92 21.92 0 0 0 3.536.286 22.08 22.08 0 0 0 3.709-.31l-.013.013-6.471 2.138" data-paper-data="{&quot;origPos&quot;:null}"/><path fill="#eeeeed" d="M35.406 17.995s1.258-12.644 4.643-14.21l1.214.506s1.917-3.02 3.3-4.152c1.386-1.135 11.162 5.033 11.162 5.033l1.151-.76c3.429 1.141 4.992 13.584 4.992 13.584s-11.481 2.365-15.358 2.26c-2.831-.074-11.104-2.26-11.104-2.26"/><path fill="#b7b7b6" d="m56.89 4.438-9.071 5.67 9.043-5.72z"/><path fill="#b7b7b6" d="M50.454 8.451 40.031 3.814l.03-.054 10.457 4.651z"/></g></svg>