<svg version="1.1" xmlns="http://www.w3.org/2000/svg" xmlns:xlink="http://www.w3.org/1999/xlink" width="59.10172" height="118.94756" viewBox="0,0,59.10172,118.94756"><g transform="translate(-210.604,-120.2733)"><g data-paper-data="{&quot;isPaintingLayer&quot;:true}" fill-rule="evenodd" stroke="none" stroke-width="1" stroke-linecap="butt" stroke-linejoin="miter" stroke-miterlimit="10" stroke-dasharray="" stroke-dashoffset="0" style="mix-blend-mode: normal"><path d="M267.92367,167.457c1.749,0.742 2.306,3.382 1.242,5.898c-0.685,1.615 -1.868,2.784 -3.094,3.219v0.003c0,0 -3.264,9.264 -6.108,10.293c-2.3,0.838 -10.41,-2.459 -10.41,-2.459c0,0 -0.658,-2.522 -1,-3.317c-0.463,-1.094 -2.35,-4.086 -2.35,-4.086l11.102,3.974l5.234,-6.144c-0.09,-0.245 -0.153,-0.515 -0.197,-0.79c-0.37046,-0.69914 -0.63182,-1.45084 -0.775,-2.229c-0.435,-2.233 0.049,-4.204 1.078,-4.403c0.553,-0.108 1.149,0.313 1.649,1.068c1.112,-1.067 2.486,-1.509 3.629,-1.027" data-paper-data="{&quot;origPos&quot;:null}" fill="#9b6e3e"/><path d="M228.018,233.555c-1.714,1.056 -2.96,3.293 -1.491,5.054c1.108,1.241 2.743,0.295 3.982,-0.226c1.372,-0.654 2.944,-1.092 4.182,-1.942c0.803,-0.56 1.745,-1.23 2.286,-2.066c0.168,-0.261 0.246,-0.57 0.185,-0.82zM247.555,233.555c1.716,1.056 2.962,3.293 1.494,5.054c-1.11,1.241 -2.745,0.295 -3.987,-0.226c-1.371,-0.654 -2.936,-1.092 -4.18,-1.942c-0.802,-0.56 -1.74,-1.23 -2.284,-2.066c-0.169,-0.261 -0.246,-0.57 -0.185,-0.82z" fill="#333433"/><path d="M249.615,208.656l-1.866,24.96h-9.465l-0.362,-18.052h-0.273l-0.36,18.052h-9.467l-1.868,-24.96z" fill="#0b4768"/><path d="M221.054,182.388c1.699,-2.171 7.83,-5.378 7.83,-5.378c0,0 -2.849,5.184 -3.367,7.485c-0.067,0.293 -0.228,1.075 -0.377,1.485c-0.19,0.508 -0.707,1.153 -1.52,2.3c-1.62,2.29 -3.134,11.975 -3.134,11.975c0.03635,0.06612 0.07037,0.1335 0.102,0.202c0.4629,0.46059 0.85153,0.99022 1.152,1.57c0.875,1.656 0.963,3.329 0.2,3.734c-0.409,0.214 -0.982,0.027 -1.563,-0.449c-0.617,1.11 -1.593,1.79 -2.613,1.684c-1.562,-0.167 -2.634,-2.118 -2.394,-4.361c0.096,-0.942 0.413,-1.788 0.865,-2.438c-0.007,0.044 -0.007,0.06 -0.007,0.06c0,0 1.338,-13.409 4.826,-17.869" data-paper-data="{&quot;origPos&quot;:null}" fill="#9b6e3e"/><path d="M220.891,199.818l-4.73,0.006c0,0 1.523,-13.412 5.015,-17.87c1.54,-1.969 6.012,-4.487 6.819,-4.932c1.993,-1.288 7.995,-1.483 7.995,-1.483l1.67,0.051h0.14l1.67,-0.05c0,0 6.022,0.212 8.007,1.506l10.061,3.934l5.278,-6.125l4.545,2.232c0,0 -4.197,8.81 -7.04,9.838c-2.204,0.801 -8.816,-1.815 -9.379,-2.065c2.23,9.62 1.927,23.805 1.927,23.805l-30.28,-0.004c0,0 -0.193,-11.347 1.386,-20.723c-0.071,0.109 -0.154,0.223 -0.235,0.343c-1.623,2.29 -2.849,11.537 -2.849,11.537" fill="#0771b7"/><path d="M243.034,183.068c1.253,0.724 2.192,0 2.192,0c0,0 1.072,0.738 2.19,0c0,6.492 -2.19,5.658 -2.19,5.658c0,0 -2.192,0.878 -2.192,-5.658" fill="#f6b90c"/><path d="M222.589,208.661c0,0 -0.02,-1.099 0.002,-2.897h30.289c0.01,1.798 -0.01,2.901 -0.01,2.901l-30.28,-0.004" fill="#333433"/><path d="M240.478,209.057c-0.936,0.935 -4.268,0.834 -5.297,0c-0.699,-0.563 -0.63,-2.935 0,-3.564c0.939,-0.937 4.467,-1.03 5.297,0c0.561,0.69 0.632,2.933 0,3.564" fill="#f7b90b"/><path d="M239.542,208.415c-0.612,0.608 -2.768,0.54 -3.441,0c-0.449,-0.362 -0.408,-1.904 0,-2.31c0.612,-0.605 2.898,-0.668 3.441,0c0.364,0.45 0.406,1.903 0,2.31" fill="#333433"/><path d="M240.307,207.288c0.00055,0.04092 -0.01553,0.08031 -0.04456,0.10915c-0.02903,0.02884 -0.06852,0.04466 -0.10944,0.04385h-1.058c-0.04128,0.0008 -0.08118,-0.01489 -0.11084,-0.04362c-0.02966,-0.02873 -0.04663,-0.06809 -0.04716,-0.10938c0,-0.087 0.071,-0.158 0.158,-0.158h1.058c0.087,0 0.154,0.071 0.154,0.158" fill="#d69d0b"/><path d="M234.089,175.633c1.081,-0.112 1.87,-0.139 1.87,-0.139l1.677,0.06h0.138l1.673,-0.09c0,0 0.873,0.037 2.03,0.175l-3.76,3.883zM259.148,155.969c1.118,0.714 1.85,1.932 1.85,3.319c0,2.201 -1.857,3.988 -4.152,3.988c-0.063,0 -0.126,-0.002 -0.193,-0.008c-3.707,6.652 -10.822,11.152 -18.98,11.152c-8.167,0 -15.282,-4.507 -18.99,-11.172c-0.153,0.018 -0.304,0.028 -0.46,0.028c-2.29,0 -4.148,-1.787 -4.148,-3.988c0,-1.487 0.845,-2.784 2.102,-3.466c-0.146,-1.021 -0.222,-2.06 -0.222,-3.118c0,-11.994 9.722,-21.718 21.718,-21.718c11.997,0 21.721,9.724 21.721,21.718c0.00194,1.09337 -0.08029,2.18526 -0.246,3.266" data-paper-data="{&quot;origPos&quot;:null}" fill="#9b6e3e"/><path d="M231.229,152.096c-0.772,-0.174 -0.908,-1.201 -3.386,-0.74c-0.779,0.18 -2.417,1.156 -2.732,1.808c-0.316,0.652 -0.088,-2.392 2.457,-3.522c1.835,-0.675 2.457,-0.642 3.977,-0.642c1.52,0 1.987,0.907 1.766,1.65c0,0 -0.503,1.803 -2.082,1.446zM245.134,152.096c0.772,-0.174 0.908,-1.201 3.386,-0.74c0.779,0.18 2.417,1.156 2.732,1.808c0.316,0.652 0.087,-2.392 -2.457,-3.522c-1.835,-0.675 -2.457,-0.642 -3.977,-0.642c-1.52,0 -1.987,0.907 -1.766,1.65c0,0 0.503,1.803 2.082,1.446zM231,158c0,1.657 -0.895,3 -2,3c-1.105,0 -2,-1.343 -2,-3c0,-1.657 0.895,-3 2,-3c1.105,0 2,1.343 2,3M249,158c0,1.657 -0.895,3 -2,3c-1.105,0 -2,-1.343 -2,-3c0,-1.657 0.895,-3 2,-3c1.105,0 2,1.343 2,3" fill="#343434"/><path d="M238.02,161.069c-1.125,0.153 -3.02,1.834 -3.02,1.834c0,0 0.207,-1.009 0.503,-1.299c0.8,-1.156 2.487,-1.604 2.487,-1.604c0,0 2.173,0.703 2.65,1.588c0.443,0.824 0.34,1.238 0.34,1.238c0,0 -2.121,-1.871 -2.96,-1.756z" fill="#eeac6c"/><path d="M231.2,164.696c0,0 6.897,3.208 13.172,-0.397c0,0 -1.39,5.47 -5.95,5.561c-4.115,0.122 -4.984,-1.492 -5.477,-1.956c-0.492,-0.463 -1.42,-1.772 -1.745,-3.208" fill="#eeac6c"/><path d="M224.727,154.52c1.77,-1.097 4.38,-1.785 4.38,-1.785c0.309,-0.577 0.033,-1.558 -0.378,-1.615c-1.303,-0.187 -4.002,3.4 -4.002,3.4M249.871,154.52c-1.775,-1.097 -4.386,-1.785 -4.386,-1.785c-0.307,-0.577 -0.028,-1.558 0.378,-1.615c1.302,-0.187 4.008,3.4 4.008,3.4" fill="#ad6921"/><path d="M260.255,149.874c0.035,2.549 -0.858,8.067 -2.595,11.354c0,0 -4.272,-12.082 -7.788,-13.998c-4.304,-2.337 -15.644,1.035 -19.487,-1.999c-0.639,-0.504 -0.565,-1.645 -0.565,-1.645c0,0 -0.738,1.452 -1.09,1.862c-1.867,2.116 -6.692,5.185 -8.986,6.83c-1.844,1.326 -1.929,1.312 -1.52,8.95c0,0 -3.388,-6.952 -3.2,-11.592c0.054,-1.34 0.701,-4.304 1.76,-7.324c3.821,-7.666 11.742,-12.935 20.894,-12.935c10.512,0 19.402,6.95 22.32,16.507c0.14948,1.32512 0.23525,2.65666 0.257,3.99" data-paper-data="{&quot;origPos&quot;:null}" fill="#333433"/><path d="M235.981,176.911c-1.017,0 -1.837,-2.177 -1.837,-3.177h7.221c0,1 -0.822,3.177 -1.836,3.177h-3.548" data-paper-data="{&quot;origPos&quot;:null}" fill="#9b6e3e"/><path d="M234.986,176.218c-0.411,-0.62 -0.758,-1.462 -0.826,-2.083c2.38296,0.38893 4.81391,0.38014 7.194,-0.026l-0.014,0.014l-6.354,2.095" data-paper-data="{&quot;origPos&quot;:null}" fill="#eeac6c"/><path d="M250.991,179.641l-7.086,-2.561c-0.663,-0.24 -1.149,-0.854 -0.993,-1.265v-0.002c0.145,-0.41 0.87,-0.462 1.533,-0.224l7.085,2.563l-0.539,1.49z" fill="#0b4768"/><path d="M251.021,179.57l-0.05,0.144l-7.092,-2.565c-0.708,-0.257 -1.204,-0.903 -1.041,-1.357c0.101,-0.27 0.399,-0.42 0.839,-0.42c0.27044,0.00448 0.53819,0.05452 0.792,0.148l7.09,2.561l-0.053,0.138l-7.086,-2.559c-0.246,-0.09 -0.511,-0.14 -0.743,-0.14c-0.37,0 -0.626,0.118 -0.699,0.32c-0.132,0.37 0.336,0.947 0.95,1.169l7.092,2.561z" fill="#f6b90c"/><path d="M244.506,176.308c0.00082,0.08679 -0.03344,0.17024 -0.095,0.23143c-0.06156,0.06118 -0.14522,0.09493 -0.232,0.09358c-0.08626,0.00082 -0.1692,-0.03323 -0.23001,-0.09441c-0.06081,-0.06118 -0.09434,-0.14434 -0.09299,-0.23059c0,-0.1795 0.14551,-0.325 0.325,-0.325c0.1795,0 0.325,0.1455 0.325,0.325M250.847,178.742c-0.06,0.17 -0.49,0.175 -0.956,0.006c-0.465,-0.163 -0.79,-0.439 -0.726,-0.612c0.06,-0.173 0.486,-0.173 0.952,-0.008c0.46,0.168 0.791,0.441 0.73,0.614" fill="#f6b90c"/><path d="M224.948,179.642l-0.542,-1.49l7.086,-2.563c0.665,-0.238 1.387,-0.186 1.537,0.224v0.002c0.148,0.411 -0.332,1.025 -0.996,1.265l-7.085,2.561z" fill="#0b4768"/><path d="M224.919,179.57l7.09,-2.561c0.613,-0.222 1.082,-0.799 0.948,-1.169c-0.069,-0.202 -0.323,-0.32 -0.695,-0.32c-0.234,0 -0.498,0.05 -0.744,0.14l-7.085,2.559l-0.054,-0.138l7.09,-2.561c0.266,-0.095 0.541,-0.148 0.793,-0.148c0.437,0 0.738,0.15 0.837,0.42c0.165,0.454 -0.335,1.1 -1.037,1.357l-7.096,2.565z" fill="#f6b90c"/><path d="M231.431,176.308c0.00212,-0.178 0.14503,-0.32224 0.323,-0.326c0.17981,0.00055 0.32545,0.14619 0.326,0.326c0.00054,0.08653 -0.03367,0.16967 -0.09495,0.23076c-0.06128,0.06109 -0.14452,0.09505 -0.23105,0.09424c-0.173,0 -0.323,-0.144 -0.323,-0.325M225.092,178.742c-0.059,-0.173 0.265,-0.446 0.732,-0.614c0.464,-0.165 0.887,-0.165 0.952,0.008c0.059,0.173 -0.268,0.449 -0.73,0.612c-0.468,0.169 -0.895,0.164 -0.954,-0.006" fill="#f6b90c"/><path d="M240.346,198.316c0.025,1.528 -2.562,2.558 -2.562,2.558c0,0 -2.568,-1.057 -2.566,-2.552c0.006,-1.428 1.393,-15.781 1.393,-15.781c-0.488,-0.32 -0.896,-2.15 -0.896,-2.15l1.068,-0.848l1.83,-0.057l1.15,0.948c0,0 -0.492,1.743 -0.935,2.107c0,0 1.496,14.345 1.518,15.775" fill="#0b4768"/><path d="M237.769,179.513c0,0 -2.01,0.838 -1.803,1.691c0.215,0.856 -3.87,-4.987 -3.744,-5.307c0.123,-0.319 1.345,-1.415 1.345,-1.415l4.202,5.03z" fill="#0771b7"/><path d="M233.564,174.525c-0.173,0.156 -1.206,1.1 -1.314,1.383c-0.036,0.085 0.346,0.777 1.267,2.137c1.106,1.644 2.241,3.153 2.43,3.21c0,-0.008 -0.004,-0.022 -0.008,-0.045c-0.2,-0.81 1.488,-1.584 1.777,-1.71zM235.957,181.318c-0.266,0 -2.12,-2.69 -2.2,-2.805c-0.388,-0.565 -1.641,-2.422 -1.564,-2.63c0.12,-0.321 1.306,-1.38 1.351,-1.427l0.028,-0.021l4.246,5.09l-0.041,0.019c-0.016,0.006 -1.98,0.836 -1.779,1.654c0.014,0.05 0.01,0.085 -0.004,0.102c-0.00871,0.01162 -0.02249,0.01832 -0.037,0.018z" fill="#094767"/><path d="M237.698,179.512l4.197,-5.03c0,0 1.228,1.096 1.348,1.415c0.121,0.32 -3.956,6.163 -3.749,5.307c0.214,-0.853 -1.796,-1.691 -1.796,-1.691z" fill="#0771b7"/><path d="M237.746,179.5c0.29,0.125 1.98,0.9 1.78,1.71c-0.006,0.024 -0.01,0.038 -0.01,0.046c0.185,-0.06 1.325,-1.564 2.433,-3.203c0.919,-1.365 1.296,-2.06 1.265,-2.144c-0.106,-0.285 -1.145,-1.228 -1.318,-1.383l-4.15,4.975zM239.509,181.319c0,0 -0.03,-0.004 -0.038,-0.018c-0.015,-0.02 -0.02,-0.053 -0.006,-0.104c0.203,-0.819 -1.76,-1.649 -1.78,-1.655l-0.044,-0.016l4.25,-5.09l0.024,0.021c0.051,0.047 1.234,1.106 1.358,1.426c0.08,0.209 -1.185,2.076 -1.576,2.644c-0.077,0.11 -1.925,2.792 -2.188,2.792z" fill="#094767"/><path d="M215.587,148.308c0,0 7.834,-7.01 21.95,-7.01c11.618,0 22.383,7.01 22.383,7.01c-4.299,10.471 -40.372,10.353 -44.333,0" fill="#0b4768"/><path d="M215.586,148.308l-4.982,-7.346c0,0 5.315,-3.56 7.16,-10.646c9.849,-1.74 14.462,-10.216 19.772,-10.04c5.412,0.182 8.93,8.544 20.207,10.04c1.516,6.218 7.16,10.646 7.16,10.646l-4.983,7.346c-17.239,-7.471 -23.097,-12.553 -44.333,0z" fill="#0771b7"/><path d="M215.524,141.379c29.028,-10.359 44.398,0.568 44.398,0.568v6.382c-24.97,-11.162 -44.39,0 -44.39,0z" fill="#333433"/><path d="M216.723,148.308c0,1.106 -0.502,2 -1.118,2c-0.616,0 -1.117,-0.894 -1.117,-2c0,-1.106 0.501,-2.005 1.117,-2.005c0.616,0 1.118,0.9 1.118,2.005M261.055,148.308c0,1.106 -0.504,2 -1.118,2c-0.62,0 -1.12,-0.894 -1.12,-2c0,-1.106 0.5,-2.005 1.12,-2.005c0.614,0 1.118,0.9 1.118,2.005M233.41,124.494c2.43,1.397 4.239,0 4.239,0c0,0 2.076,1.424 4.24,0c0,12.557 -4.24,10.936 -4.24,10.936c0,0 -4.239,1.705 -4.239,-10.936" fill="#f6b90c"/></g></g></svg>