<svg xmlns="http://www.w3.org/2000/svg" width="66.177" height="117.324"><g fill-rule="evenodd" stroke-miterlimit="10" data-paper-data="{&quot;isPaintingLayer&quot;:true}" style="mix-blend-mode:normal"><path fill="#81561f" d="M66.09 39.978c.054.186.087.286.087.286l-.11-.276c-.02-.048-.036-.099-.065-.155l-.084-.175c-.033-.063-.064-.135-.104-.204-.038-.071-.084-.145-.13-.221-.025-.042-.05-.078-.077-.12-.007-.009-.019-.024-.026-.036.176.412.258 1.012.227 2.103-1.13 2.469-2.926 3.331-4.53 2.469.893 4.097-3.109 4.344-4.442 3.352.748 3.187-3.627 4.181-4.85 2.223-1.03 5.52-7.148 1.983-7.148 1.983l-9.832 1.291v.076l-.293-.036-.294.036v-.076l-9.83-1.291s-6.119 3.537-7.149-1.983c-1.22 1.957-5.6.964-4.848-2.223-1.335.992-5.337.745-4.444-3.352-1.6.862-3.4 0-4.529-2.469-.032-1.091.05-1.691.228-2.103-.012.012-.02.027-.029.037-.027.041-.054.077-.075.12-.05.075-.09.15-.134.22-.04.069-.069.141-.102.204-.026.063-.059.124-.084.175-.024.055-.044.107-.064.155-.074.179-.11.276-.11.276s.03-.099.09-.286c.02-.046.033-.099.053-.158.025-.053.045-.116.073-.181.027-.067.052-.139.09-.215.037-.071.073-.151.113-.235.022-.04.045-.083.07-.123.026-.04.05-.084.08-.128.048-.089.115-.177.178-.269l.05-.068c.02-.023.033-.046.056-.069.034-.043.07-.091.11-.137.081-.096.165-.19.25-.282.174-.188.366-.381.548-.596.18-.212.34-.455.49-.722.062-.137.137-.272.191-.418l.088-.22c.027-.078.05-.16.074-.24.104-.32.179-.65.225-.983a3.953 3.953 0 0 0-.004-1.042c-.039-.356-.134-.722-.209-1.123a4.69 4.69 0 0 1-.056-1.275c.014-.216.06-.44.098-.656.027-.1.048-.197.075-.3L6 30.466l.01-.037.002-.012.005-.02.008-.021.05-.158a5.15 5.15 0 0 1 .548-1.225c.056-.101.125-.194.19-.285.067-.101.142-.185.214-.275l.054-.067.054-.06.115-.124c.07-.081.144-.16.218-.238.288-.303.535-.585.723-.895.096-.153.172-.324.251-.484l.096-.244.011-.032.01-.037.025-.074.046-.149.048-.144.028-.122c.023-.088.043-.179.068-.268.026-.18.065-.357.075-.53a3.885 3.885 0 0 0-.06-1.025c-.06-.349-.163-.739-.215-1.171a5.456 5.456 0 0 1 .005-1.284c.024-.107.04-.212.06-.32l.027-.156c.012-.042.021-.086.033-.128l.063-.255.006-.029.006-.017v-.006l.01-.034.02-.069c.014-.043.031-.091.044-.135.028-.089.058-.181.088-.268.033-.09.07-.178.104-.265.07-.174.157-.343.24-.507.043-.084.097-.162.143-.24.048-.078.094-.158.15-.23.052-.073.101-.145.157-.214a2.53 2.53 0 0 1 .161-.198c.052-.068.102-.122.157-.183.048-.056.099-.11.152-.161l.266-.29.115-.128c.038-.042.075-.082.105-.12l.093-.112c.01-.021.026-.038.04-.055.011-.017.028-.038.038-.056.052-.072.103-.139.137-.207.024-.036.041-.067.06-.099a.697.697 0 0 0 .052-.099c.03-.063.061-.128.09-.185.031-.059.046-.11.065-.16.02-.05.036-.093.056-.137.016-.05.03-.098.044-.148.064-.19.094-.29.094-.29l1.834.653s-.036.099-.11.282c-.02.044-.039.092-.068.152l-.102.227c-.042.078-.078.171-.13.255-.05.086-.1.177-.157.273-.064.099-.129.196-.196.293-.065.105-.15.2-.235.305-.02.025-.044.051-.067.078-.019.025-.045.047-.069.075l-.138.15c-.05.053-.1.097-.15.144-.048.05-.105.103-.15.147-.05.046-.113.091-.16.141 5.813-2.345 22.162-4.013 23.104-4.112v-.006l.03.002.036-.002v.006c1.007.099 17.311 1.767 23.127 4.112-.054-.05-.096-.095-.148-.141-.049-.044-.098-.097-.149-.147-.048-.047-.098-.091-.142-.145a1.898 1.898 0 0 1-.148-.15.603.603 0 0 0-.067-.074.806.806 0 0 0-.063-.078c-.084-.105-.169-.2-.234-.305-.036-.049-.073-.103-.105-.149-.035-.049-.068-.094-.092-.144l-.158-.273c-.049-.084-.086-.177-.126-.255a9.885 9.885 0 0 1-.107-.227c-.027-.061-.043-.108-.066-.152l-.11-.282 1.834-.654s.03.102.09.29c.017.042.034.099.053.149.014.044.034.087.054.137.02.05.031.101.063.16l.088.185a.71.71 0 0 0 .053.098c.019.034.039.067.06.1.036.068.09.135.136.207a.32.32 0 0 0 .04.056c.012.017.026.034.04.055.034.038.058.076.091.112.033.038.07.078.104.12l.115.128c.088.093.18.189.27.289l.153.162c.05.061.103.115.153.183.054.063.112.13.167.198l.155.214c.053.074.102.15.147.23.05.078.1.156.14.24.083.164.173.333.24.507.035.087.073.175.11.265l.084.268c.017.044.031.092.044.135l.02.069.011.034.002.006.006.017.005.029c.024.084.044.17.062.255l.036.128c.007.053.017.104.027.156.017.108.036.213.055.32.05.411.058.855.008 1.284-.054.431-.158.822-.218 1.171a3.76 3.76 0 0 0-.056 1.024c.01.174.046.351.075.53.025.089.042.181.067.269l.031.122.043.144.05.149.02.074.013.037.011.032c.033.082.064.162.1.244.075.16.152.331.25.484.187.31.43.592.72.895l.222.238.11.124.055.061.054.066c.071.09.146.174.212.275.066.091.135.185.19.285.238.381.423.794.55 1.225l.05.159.006.02.006.019v.013l.012.037.02.072c.022.1.047.2.073.299.04.217.083.44.1.657.04.433.013.871-.06 1.275-.07.401-.164.767-.208 1.123a4.215 4.215 0 0 0-.006 1.042c.05.333.125.662.225.983.026.08.05.162.08.24.026.076.057.149.084.219.054.147.13.282.197.419.136.258.3.5.49.722.182.216.367.408.542.596.086.092.17.186.25.282.037.046.08.094.11.137.02.022.039.045.055.069.02.023.032.046.052.068.063.092.13.179.182.269l.074.128c.028.04.047.083.07.123.044.085.08.165.117.235.034.076.06.148.086.215.025.065.054.128.075.181.021.059.036.112.054.158" data-paper-data="{&quot;origPos&quot;:null}"/><path fill="#0f0f0f" d="m34.082 112.008.005.002-.547 3.42h-.66l-.144-.923c-1.28.782-2.819 1.24-4.184 1.885-1.338.558-3.094 1.614-4.29.286-1.58-1.888 1.277-4.377 3.125-5.51l6.3.182c.051.221.375.435.395.657zM42.254 111.167c1.845 1.134 4.705 3.627 3.125 5.514-1.197 1.328-2.954.276-4.29-.284-1.365-.643-2.906-1.106-4.183-1.891l-.145.925h-.659l-.55-3.42.01-.004c.014-.223.338-.437.39-.657l6.302-.183"/><path fill="#fddfbb" d="m47.561 84.713-5.336 26.684H35.91l-.94-19.347h-.3l-.94 19.347h-6.316L22.08 84.713h16.027z"/><path fill="#f5bcd7" d="M35.375 103.142c2.014.972 8.502 0 8.502 0l-1.64 8.227c2.004 1.027 2.46 2.962 2.46 2.962-4.22 1.306-8.379-2.543-8.76-2.909h-.027z"/><path fill="#d50f15" d="M35.54 105.684c1.504.033 5.142.065 7.89-.286l-.22 1.101c-1.94.221-4.193.273-5.878.273-.69 0-1.282-.01-1.725-.017l-.067-1.07zm.183 2.873c1.487.028 4.571.045 7.124-.222l-.224 1.095c-1.794.168-3.772.212-5.292.212-.594 0-1.12-.006-1.537-.014l-.07-1.07zm4.934 5.69a10.64 10.64 0 0 1-1.896-.806c1.287-.122 3.312-.471 4.656-1.223.284.274.508.56.684.834-1.014.611-2.313.977-3.444 1.194"/><path fill="#f5bcd7" d="M33.728 111.422h-.027c-.38.366-4.538 4.215-8.757 2.909 0 0 .453-1.935 2.457-2.962l-1.638-8.227s6.486.972 8.504 0z"/><path fill="#d50f15" d="m34.102 105.685-.07 1.07c-.443.007-1.034.017-1.726.017-1.684 0-3.937-.052-5.878-.273l-.219-1.101c2.75.351 6.387.319 7.893.286zm-.187 2.873-.068 1.07c-.42.008-.94.014-1.54.014-1.518 0-3.498-.044-5.292-.212l-.217-1.095c2.546.267 5.633.25 7.117.222zm-4.932 5.688c-1.133-.217-2.432-.583-3.446-1.194.178-.274.402-.56.686-.834 1.342.752 3.371 1.101 4.654 1.223-.575.31-1.214.594-1.894.806"/><path fill="#0f0f0f" d="m26.301 111.975.061-.032c.04-.02.1-.052.178-.086.075-.036.173-.072.286-.116.06-.02.12-.04.18-.057.063-.021.132-.042.207-.06.07-.013.146-.034.222-.047.075-.013.16-.029.244-.042.084-.011.172-.017.26-.03.087-.008.18-.008.27-.012.187-.006.375 0 .572.012.096.013.195.022.29.034.1.017.195.028.293.05.379.069.75.176 1.106.32.174.066.335.14.486.218.146.077.282.155.407.229.25.152.442.3.57.413.07.054.116.103.15.132l.05.051-.25-.093c-.08-.029-.177-.06-.285-.097-.11-.037-.23-.082-.368-.126-.3-.102-.604-.195-.91-.28-.086-.021-.17-.044-.257-.067-.088-.02-.174-.047-.266-.064-.086-.021-.173-.04-.263-.061a6.664 6.664 0 0 0-.268-.052c-.18-.038-.364-.063-.539-.091l-.27-.03-.259-.026-.255-.019c-.082-.003-.163-.01-.243-.011-.079-.002-.157-.002-.232-.006-.073 0-.148.004-.218.004-.07-.004-.135.002-.198.002-.065.002-.13.006-.186.006-.113.01-.214.011-.297.017a2.786 2.786 0 0 1-.2.015l-.068.002m17.036 0-.069-.002a2.489 2.489 0 0 1-.195-.015c-.088-.006-.186-.008-.3-.017-.06 0-.118-.004-.185-.006-.063 0-.132-.006-.2-.002-.07 0-.145-.004-.22-.004-.073.004-.15.004-.23.006-.08.002-.16.008-.243.011-.083.006-.169.012-.253.02-.085.007-.173.017-.263.024l-.264.03c-.179.03-.36.054-.54.092-.09.015-.18.032-.27.052l-.268.06c-.088.018-.176.044-.258.065l-.259.067c-.307.084-.61.177-.912.28-.135.044-.257.09-.366.126-.11.038-.206.068-.282.097l-.25.093s.014-.019.047-.051c.034-.029.08-.078.15-.132.128-.112.32-.26.566-.413.127-.074.263-.152.413-.229.157-.081.318-.154.483-.219a5.837 5.837 0 0 1 1.105-.32c.098-.02.196-.032.294-.05.094-.01.193-.02.291-.033.196-.012.383-.018.57-.012.093.004.187.004.271.012.087.013.175.019.261.03.083.013.163.029.242.042.078.013.151.034.226.048.073.017.14.038.203.059.065.019.125.036.182.057.111.044.21.08.284.116.078.034.138.067.18.086.038.022.06.032.06.032"/><path fill="#fcde7d" d="M.581 46.931c-1.146-2.69-.544-5.517 1.338-6.31 1.232-.517 2.71-.043 3.902 1.1.541-.81 1.183-1.261 1.777-1.145 1.108.213 1.631 2.322 1.163 4.709-.177.91-.475 1.729-.837 2.383a4.512 4.512 0 0 1-.209.846l5.631 6.57s2.582-1.262 8.738-3.11l3.138-1.118c1.361-.939 4.352-1.373 6.158-1.547-.303-.672-.485-1.401-.485-1.935h7.772c0 .534-.188 1.276-.498 1.949 1.84.169 4.8.604 6.112 1.545.692.369 6.635 3.539 8.355 5.723 3.668 4.656 5.192 19.069 5.19 19.049.483.696.822 1.6.932 2.61.253 2.397-.9 4.484-2.58 4.663-1.098.113-2.149-.615-2.816-1.802-.62.511-1.232.715-1.677.482-.824-.434-.724-2.224.22-3.996.361-.674.791-1.251 1.231-1.68.04-.074.08-.145.115-.217 0 0-1.629-10.36-3.373-12.81-.872-1.227-1.97-2.19-2.174-2.737 1.363 10.261-.163 24.528-.163 24.528l-25.476.002v-.002s-1.769-15.71-.073-26.01c-.09.04-9.05 3.604-11.51 2.717-3.064-1.099-6.57-11.014-6.57-11.014-1.318-.466-2.589-1.716-3.33-3.444" data-paper-data="{&quot;origPos&quot;:null}"/><path fill="#7dcdf4" d="M48.346 78.531c4.032 4.502 9.722 22.482 9.722 22.482s-23.008 8.844-46.02 0c0 0 4.074-16.329 9.104-22.489-.6-6.582.211-15.237-.607-16.09 0 0-2.09-2.188-3.484-1.808-.735.202-1.476.388-2.22.556.393-2.283.111-4.56-1.28-6.262 2.83-1.471 6.796-2.334 10.084-3.739 2.82-1.21 5.136-1.882 7.15-1.945 1.005-.033 4.023-.219 4.023-.219s2.904.265 3.876.285c4.508.231 7.281 2.177 10.116 3.977 4.027 2.555 5.29 4.618 6.283 8.34-2.825.247-5.183 1.527-5.183 1.527l-.64-.762-.015.13c-1.399.682-.033 9.366-.909 16.017"/><path fill="#9d87be" d="M21.57 80.956a.403.403 0 0 1-.425.384.402.402 0 1 1 .035-.805c.224.01.4.198.39.42m5.65.174a.408.408 0 0 1-.42.394.407.407 0 0 1-.399-.415.41.41 0 0 1 .818.021m5.313.083a.402.402 0 0 1-.412.4.397.397 0 0 1-.4-.403c0-.225.187-.404.405-.402.23 0 .41.182.407.405m5.314-.005a.398.398 0 0 1-.403.405.402.402 0 1 1-.006-.804.402.402 0 0 1 .41.4m5.314-.1a.406.406 0 0 1-.398.415.41.41 0 0 1-.418-.394.408.408 0 1 1 .816-.02m5.312-.189a.404.404 0 0 1-.389.421.403.403 0 0 1-.425-.384.408.408 0 1 1 .815-.036M20.86 85.97a.406.406 0 0 1-.438.372.41.41 0 0 1-.38-.433.41.41 0 0 1 .44-.371c.227.015.396.21.38.432m6.328.313a.403.403 0 0 1-.425.385.399.399 0 0 1-.389-.42.408.408 0 0 1 .815.035m5.334.154a.407.407 0 0 1-.414.397.405.405 0 0 1-.404-.412.41.41 0 0 1 .818.015m5.337-.015a.41.41 0 1 1-.82.016.41.41 0 0 1 .82-.016m5.332-.173a.407.407 0 0 1-.393.419.406.406 0 0 1-.427-.385.409.409 0 0 1 .39-.421.414.414 0 0 1 .43.387m6.265-.34a.408.408 0 0 1-.38.432.409.409 0 0 1-.44-.371.399.399 0 0 1 .375-.43.41.41 0 0 1 .445.37m-27.636 4.94a.403.403 0 0 1-.447.36.405.405 0 0 1-.368-.444.412.412 0 0 1 .727-.214c.068.084.1.191.088.298m5.34.42a.411.411 0 0 1-.819-.053.408.408 0 0 1 .434-.377.414.414 0 0 1 .385.43m5.353.2a.409.409 0 0 1-.422.396.406.406 0 0 1-.4-.413.41.41 0 0 1 .42-.394.41.41 0 0 1 .402.411m-15.599-1.257a.403.403 0 0 1-.464.34.409.409 0 0 1-.349-.459.417.417 0 0 1 .464-.34.407.407 0 0 1 .35.459m20.955 1.239a.41.41 0 0 1-.403.416.408.408 0 0 1-.42-.399.408.408 0 0 1 .405-.411.41.41 0 0 1 .418.394m5.353-.235a.41.41 0 0 1-.387.43.406.406 0 0 1-.433-.377.41.41 0 0 1 .82-.053m5.331-.451a.403.403 0 0 1-.362.444.408.408 0 0 1-.453-.36.407.407 0 0 1 .366-.444.408.408 0 0 1 .45.36m5.303-.671a.4.4 0 0 1-.345.46.411.411 0 0 1-.467-.342.419.419 0 0 1 .352-.459c.22-.032.428.12.46.341m-32.11 5.767a.411.411 0 0 1-.46.348.41.41 0 0 1-.358-.459.413.413 0 0 1 .464-.343c.226.03.387.233.354.454m5.358.562a.403.403 0 0 1-.443.368.4.4 0 0 1-.232-.711.409.409 0 0 1 .3-.093.406.406 0 0 1 .375.436m5.388.27a.409.409 0 0 1-.423.394.408.408 0 0 1-.403-.417.41.41 0 0 1 .424-.39c.23.004.408.19.402.413m-14.573-1.012a.411.411 0 0 1-.483.318.406.406 0 0 1-.326-.474.417.417 0 0 1 .481-.32c.22.044.368.255.328.476m19.971.99a.408.408 0 0 1-.402.417.408.408 0 0 1-.424-.394.409.409 0 0 1 .4-.416.409.409 0 0 1 .426.393m5.385-.314a.403.403 0 0 1-.375.435.41.41 0 0 1-.449-.368.41.41 0 0 1 .378-.436.411.411 0 0 1 .446.37m5.355-.607a.412.412 0 0 1-.354.457.41.41 0 0 1-.466-.347.41.41 0 0 1 .353-.455.42.42 0 0 1 .467.345m3.886-.893a.414.414 0 0 1-.81.158.414.414 0 0 1 .81-.158m-32.6 6.662a.41.41 0 0 1-.475.333.408.408 0 0 1-.34-.466.416.416 0 0 1 .472-.332c.228.04.381.246.343.465m6.108 1.256a.413.413 0 0 1-.457.362.409.409 0 0 1-.37-.442.412.412 0 0 1 .451-.364c.226.02.393.218.376.444m6.455.377a.415.415 0 0 1-.433.393.417.417 0 0 1-.404-.42.421.421 0 0 1 .435-.392c.226.01.408.196.402.42M14.477 99.96a.412.412 0 0 1-.495.3.405.405 0 0 1-.31-.487.408.408 0 0 1 .492-.297.404.404 0 0 1 .313.484m23.436 3.167a.41.41 0 0 1-.4.42.417.417 0 0 1-.432-.393.417.417 0 0 1 .832-.027m6.456-.431a.41.41 0 0 1-.372.444.421.421 0 0 1-.46-.364.411.411 0 0 1 .375-.442.417.417 0 0 1 .457.362m6.568-1.242a.407.407 0 0 1-.34.469.415.415 0 0 1-.477-.335.408.408 0 0 1 .345-.463c.22-.035.43.11.472.33m5.585-1.908a.407.407 0 0 1-.31.486.412.412 0 0 1-.497-.303.408.408 0 0 1 .31-.485.42.42 0 0 1 .497.303"/><path fill="#46aad3" d="M48.361 78.427c-9.052.811-18.16.823-27.214.04-.052-.591-.095-1.2-.13-1.817 9.16.807 18.368.79 27.52-.05a34.167 34.167 0 0 1-.176 1.827"/><path fill="#7bbfdb" d="M15.514 61.022c.47-.445.605-5.617-1.365-6.39a25.158 25.158 0 0 1 2.126-.868c1.943.653 1.815 2.655 1.815 3.798 0 1.392-.305 2.354-.699 3.023a1.19 1.19 0 0 0-.33.041 46.79 46.79 0 0 1-1.547.397m39.327-.29c-.862-.51-4.297.736-5.07 2.252l-.5-.6 1.16-2.596 3.651-1.079c.3.656.554 1.332.76 2.023"/><path fill="#7dcdf4" d="M45.524 51.276c-.156 6.354 3.731 11.196 3.731 11.196 2.678-2.179 5.434-2.217 5.434-2.217 2.228-.686-1.687-8.187-4.692-9.315-2.699-1.013-4.473.336-4.473.336m-21.312-.334c-.253 4.903-.999 9.545-3.74 11.48-.019.033-.086.05-.086.05-2.072.244-2.672-1.268-4.057-1.663-.263-3.735-1.187-6.611-1.187-6.611 1.026-2.562 4.248-4.339 6.132-4.525 2.867-.287 2.938 1.27 2.938 1.27"/><path fill="#44a6cc" d="M49.361 62.429s-.039-.04-.096-.11a2.392 2.392 0 0 1-.106-.128c-.044-.048-.08-.11-.132-.172-.046-.062-.1-.13-.15-.205-.05-.07-.105-.153-.16-.235-.06-.08-.11-.167-.165-.255-.054-.087-.11-.175-.165-.268-.056-.094-.105-.183-.16-.273a6.446 6.446 0 0 1-.149-.266 8.98 8.98 0 0 1-.256-.479c-.075-.14-.135-.259-.177-.34l-.065-.13s.02.046.061.13c.037.085.092.205.16.352.07.14.147.31.241.486.042.087.088.18.136.274.05.091.098.185.151.276.048.097.102.187.156.28.051.088.101.18.153.265.054.084.105.164.15.242.053.078.105.146.147.213.046.069.088.131.13.181l.096.13c.062.076.092.118.092.118zm-28.934.096.12-.09c.034-.028.08-.065.131-.103.027-.019.054-.038.083-.064.028-.025.06-.05.09-.079.06-.057.126-.116.195-.177.07-.064.134-.139.205-.211l.108-.114c.036-.037.067-.078.101-.118.071-.082.14-.166.211-.25.067-.084.13-.171.194-.255.063-.086.122-.174.18-.254.055-.085.113-.167.163-.245.046-.078.096-.155.138-.221l.113-.189c.036-.055.061-.105.086-.146l.075-.128s-.029.044-.079.126c-.027.04-.06.085-.094.14-.032.058-.07.119-.12.187-.043.067-.096.137-.144.214-.052.078-.117.154-.175.234-.06.082-.116.166-.187.247-.068.082-.136.164-.202.248-.072.08-.147.16-.216.238-.037.038-.07.078-.108.114-.04.039-.07.073-.109.107-.075.07-.14.14-.209.2-.069.06-.138.113-.197.166l-.088.072c-.03.025-.06.04-.085.061-.053.038-.1.069-.138.097-.08.057-.122.084-.122.084zm3.848-11.58s-.013.393-.053.978c-.02.293-.044.634-.075 1-.02.182-.038.371-.057.562-.036.388-.082.775-.137 1.16-.02.192-.05.38-.078.56-.029.182-.06.356-.09.521-.029.166-.063.322-.094.467-.025.143-.063.272-.09.389-.01.055-.024.109-.04.162-.012.05-.03.095-.04.137-.05.162-.077.257-.077.257s.025-.095.072-.261c.011-.046.024-.092.037-.137.011-.048.023-.103.038-.16.023-.118.06-.248.08-.393.028-.144.058-.299.085-.466.021-.166.054-.34.077-.522.02-.183.05-.368.07-.56.018-.19.041-.385.056-.58.023-.194.037-.388.05-.578.02-.193.03-.385.042-.566.025-.366.044-.705.056-.998.027-.585.034-.977.034-.977zm21.318.338-.006.053c-.002.038-.004.092-.01.16-.005.067-.01.15-.013.248-.004.095-.004.202-.004.32s.004.246.006.38c.006.134.01.277.021.424l.012.223c.005.076.015.154.023.23.01.156.028.31.046.465.02.156.046.314.063.468.025.153.055.303.08.448.027.147.062.286.087.42.024.132.055.254.086.369.03.114.052.22.078.314.03.093.05.173.067.238l.062.208-.067-.206a6.901 6.901 0 0 0-.075-.238l-.088-.31c-.03-.115-.063-.239-.094-.37-.033-.134-.067-.27-.098-.415-.028-.15-.057-.3-.088-.45-.023-.152-.056-.307-.077-.463-.02-.158-.048-.314-.065-.47-.008-.076-.015-.155-.027-.229a8.365 8.365 0 0 1-.019-.227c-.015-.148-.019-.289-.029-.426-.007-.135-.015-.263-.019-.383-.002-.118-.004-.227-.002-.324-.002-.095.002-.179.002-.25.004-.07.01-.123.01-.161 0-.02.003-.038.006-.057z"/><path fill="#eeeeed" d="M34.857 52.932c-2.976 3.447-6.838 1.234-7.61-3.075 1.293-.375 2.464-.588 3.547-.623.08-.001.174-.005.28-.011z"/><path fill="#eeeeed" d="M42.448 49.961c-.822 4.249-4.62 6.649-7.592 2.971l3.708-3.632.13.001a15.15 15.15 0 0 1 3.755.66"/><path fill="#fcde7d" d="M34.783 53.196c-4.05 0-5.673-2.41-5.463-3.593.418-.06.821-.095 1.213-.106 1.007-.033 4.025-.22 4.025-.22s2.902.266 3.874.286c.54.027 1.08.081 1.614.163.36 1.205-1.202 3.47-5.263 3.47" data-paper-data="{&quot;origPos&quot;:null}"/><path fill="#fcde7d" d="M32.856 50.715c-1.093 0-1.98-2.293-1.98-3.393h7.793c0 1.099-.888 3.393-1.98 3.393h-3.833" data-paper-data="{&quot;origPos&quot;:null}"/><path fill="#eeac6c" d="M31.695 49.847c-.456-.629-.76-1.582-.805-2.282a23.99 23.99 0 0 0 7.767-.025l-.01.014-6.952 2.293"/><path fill="#fcde7d" d="M58.05 28.188c1.203.764 1.994 2.074 1.994 3.56 0 2.362-2.007 4.278-4.477 4.278-.075 0-.143-.002-.213-.004A23.456 23.456 0 0 1 34.87 47.981a23.46 23.46 0 0 1-20.497-11.98 6.067 6.067 0 0 1-.492.025c-2.475 0-4.478-1.916-4.478-4.278 0-1.595.915-2.983 2.266-3.718a23.549 23.549 0 0 1-.244-3.345c0-12.869 10.5-23.297 23.445-23.297 12.947 0 23.443 10.428 23.443 23.297 0 1.188-.086 2.36-.263 3.502" data-paper-data="{&quot;origPos&quot;:null}"/><path fill="#81561f" d="M10.597 21.879c.02-1.211.105-2.69.28-4.259C14.01 7.42 23.557 0 34.843 0a25.071 25.071 0 0 1 22.438 13.81c1.135 3.218 1.83 6.385 1.89 7.81.2 4.958-1.244 6.6-1.244 6.6s-4.203-5.779-9.179-9.25c-3.906-2.727-7.38 2.543-12.023-1.97a456.71 456.71 0 0 1-1.965-1.959s-1.274 1.423-1.96 1.958c-4.125 3.24-6.43-.44-11.048 2.057-3.776 2.042-9.585 8.816-10.084 8.974-.3-1.01-1.102-3.936-1.07-6.15" data-paper-data="{&quot;origPos&quot;:null}"/><path fill="#5cb24f" d="M35.06 3.756c6.04 0 15.625 3.731 17.78 10.105-3.228-3.478-11.134-6.642-17.78-6.642-6.616 0-14.555 3.164-17.78 6.642C19.951 7.406 29.031 3.756 35.061 3.756"/><path fill="#3a9936" d="M41.205 1.788c1.736.55 1.833 6.146.376 7.236-1.13.844-4.69-1.099-6.124-1.943-.13.236-.339.383-.57.383-.237 0-.449-.156-.584-.402-1.406.829-5.02 2.812-6.158 1.962-1.454-1.089-1.357-6.686.376-7.236 1.47-.468 4.41 2.667 5.704 4.162.124-.339.371-.573.661-.573.28 0 .521.215.65.537 1.311-1.515 4.213-4.591 5.67-4.126"/><path fill="#81561f" d="M30.21 23.157s-.503 1.803-2.082 1.446c-.772-.174-.908-1.201-3.386-.74-.779.18-2.417 1.156-2.732 1.808-.316.652-.088-2.392 2.457-3.522 1.835-.675 2.457-.642 3.977-.642s1.987.907 1.766 1.65m9.741 0s.503 1.803 2.082 1.446c.772-.174.908-1.201 3.386-.74.78.18 2.417 1.156 2.732 1.808.316.652.087-2.392-2.457-3.522-1.835-.675-2.457-.642-3.977-.642s-1.987.907-1.766 1.65M27.9 30.507c0 1.657-.896 3-2 3-1.106 0-2-1.343-2-3s.894-3 2-3c1.104 0 2 1.343 2 3m18 0c0 1.657-.896 3-2 3-1.106 0-2-1.343-2-3s.894-3 2-3c1.104 0 2 1.343 2 3" data-paper-data="{&quot;origPos&quot;:null}"/><path fill="#eeac6c" d="M34.92 33.576c-1.126.153-3.02 1.834-3.02 1.834s.206-1.009.502-1.299c.8-1.156 2.487-1.604 2.487-1.604s2.173.703 2.65 1.588c.443.824.34 1.238.34 1.238s-2.12-1.871-2.96-1.756zM28.1 37.203s6.896 3.208 13.171-.397c0 0-1.39 5.47-5.95 5.561-4.115.122-4.984-1.492-5.477-1.956-.492-.463-1.42-1.772-1.745-3.208"/></g></svg>