<svg version="1.1" xmlns="http://www.w3.org/2000/svg" xmlns:xlink="http://www.w3.org/1999/xlink" width="93.89217" height="119.35148" viewBox="0,0,93.89217,119.35148"><g transform="translate(-193.83023,-119.99949)"><g data-paper-data="{&quot;isPaintingLayer&quot;:true}" fill-rule="evenodd" stroke="none" stroke-width="1" stroke-linecap="butt" stroke-linejoin="miter" stroke-miterlimit="10" stroke-dasharray="" stroke-dashoffset="0" style="mix-blend-mode: normal"><path d="M229.563,178.306c0.459,0.964 -0.734,2.415 -2.06,2.818l-0.007,0.002c-1.331,0.407 -2.53,0.334 -2.68,-0.159l-8.032,-26.627c-0.151,-0.493 0.809,-1.22 2.138,-1.624l0.009,-0.002c1.329,-0.407 2.508,-0.33 2.677,0.16c1.167,3.401 2.59,6.701 2.888,14.13c0.16,3.96 3.601,8.242 5.067,11.302" fill="#81461d"/><path d="M218.707,169.164l3.198,-3.917l5.506,16.703v5.12l-6.378,1.742l-3.866,-9.86z" fill="#b75f22"/><path d="M195.703,169.385c2.289,-3.03 7.85,-5.76 9.207,-6.519c1.359,-0.758 4.376,-4.243 6.79,-9.096c2.418,-4.852 8,-3.855 9.054,0c1.026,3.732 5.596,28.89 -13.721,31.385c-14.396,1.857 -14.942,-10.985 -11.33,-15.77" fill="#b75f22"/><path d="M214.726,179.813c0,0.913 -0.088,1.803 -0.259,2.663c-1.962,1.339 -4.404,2.289 -7.434,2.679c-14.396,1.855 -14.942,-10.985 -11.33,-15.77c0.202,-0.27 0.428,-0.533 0.678,-0.795c1.798,-1.105 3.891,-1.74 6.121,-1.74c6.749,0 12.224,5.805 12.224,12.963" fill="#f4d2b2"/><path d="M214.496,157.66c-0.113,0.876 -0.725,1.521 -1.371,1.438c-0.645,-0.082 -1.078,-0.86 -0.967,-1.74c0.113,-0.877 0.726,-1.522 1.374,-1.438c0.644,0.083 1.077,0.861 0.964,1.74" fill="#ffffff"/><path d="M213.996,158.043c0.069,-0.544 -0.2,-1.027 -0.597,-1.079c-0.401,-0.05 -0.781,0.346 -0.852,0.89c-0.067,0.544 0.2,1.026 0.6,1.076c0.397,0.051 0.781,-0.345 0.849,-0.887M211.7,155.323c0,0 2.055,-2.11 2.883,-1.88c0.26,0.071 0.358,0.733 0.108,1.082c0,0 -1.749,0.234 -2.991,0.797" fill="#81461d"/><path d="M219.28,158.246c-0.111,0.878 -0.726,1.521 -1.372,1.44c-0.642,-0.084 -1.077,-0.862 -0.967,-1.74c0.114,-0.877 0.73,-1.522 1.374,-1.44c0.647,0.085 1.078,0.863 0.965,1.74" fill="#ffffff"/><path d="M218.782,158.629c0.068,-0.544 -0.203,-1.026 -0.6,-1.076c-0.399,-0.051 -0.778,0.345 -0.851,0.889c-0.066,0.543 0.198,1.027 0.601,1.077c0.4,0.05 0.78,-0.346 0.85,-0.89M220.238,156.394c0,0 -1.457,-2.561 -2.314,-2.548c-0.272,0.002 -0.534,0.618 -0.38,1.018c0,0 1.634,0.668 2.694,1.53M202.467,172.624c0,0 -2.208,-2.691 -3.054,-2.254c-0.636,0.33 -0.796,0.658 -0.63,1.314c0.237,0.923 3.684,0.94 3.684,0.94M203.134,172.616c0,0 2.255,-2.661 3.087,-2.214c0.636,0.342 0.787,0.673 0.613,1.322c-0.248,0.924 -3.7,0.892 -3.7,0.892M202.817,184.086c-4.591,0 -4.591,-4.58 -4.591,-4.58c4.592,3.086 9.182,0 9.182,0c0,0 0,4.58 -4.591,4.58" fill="#81461d"/><path d="M209.573,151.279c-1.05267,-1.02778 -1.655,-2.43093 -1.675,-3.902c1.46752,-0.01956 2.88215,0.54738 3.93,1.575c1.05201,1.02759 1.65486,2.42957 1.677,3.9c-1.4677,0.02045 -2.88293,-0.54536 -3.932,-1.572" fill="#b75f22"/><path d="M210.036,150.804c-0.62056,-0.60806 -0.97629,-1.4363 -0.99,-2.305c0.86577,-0.01203 1.70054,0.32202 2.319,0.928c0.6222,0.60701 0.97854,1.43583 0.991,2.305c-0.835,0.011 -1.674,-0.298 -2.32,-0.928" fill="#81461d"/><path d="M223.534,152.267c-1.11713,0.95295 -2.56879,1.41991 -4.032,1.297c0.12243,-1.46564 0.82119,-2.82288 1.943,-3.774c1.11499,-0.95279 2.56435,-1.42079 4.026,-1.3c-0.1198,1.4659 -0.81646,2.82433 -1.937,3.777" fill="#b75f22"/><path d="M223.103,151.76c-0.65803,0.56291 -1.51412,0.83878 -2.377,0.766c0.07268,-0.86546 0.48463,-1.66707 1.146,-2.23c0.65906,-0.56177 1.51496,-0.83748 2.378,-0.766c-0.07187,0.86592 -0.48439,1.66793 -1.147,2.23M212.936,150.455c0.06197,-0.32527 0.30165,-0.58801 0.61988,-0.67951c0.31823,-0.0915 0.66086,0.00382 0.88612,0.24651c0.04656,0.0163 0.09144,0.03706 0.134,0.062c0,-0.015 0.005,-0.028 0.005,-0.04c0.05431,-0.2873 0.25246,-0.52651 0.52462,-0.63335c0.27217,-0.10684 0.58014,-0.06629 0.81538,0.10735c0.004,-0.025 0.006,-0.055 0.012,-0.083c0.08375,-0.40724 0.47813,-0.67246 0.88688,-0.59643c0.40875,0.07603 0.68139,0.46531 0.61312,0.87543c0.19415,-0.04799 0.39629,-0.05412 0.593,-0.018c0.49156,0.09638 0.89229,0.45157 1.047,0.928c0.4268,0.01133 0.81084,0.26203 0.99295,0.64819c0.18211,0.38616 0.13124,0.84196 -0.13153,1.17848c-0.26276,0.33651 -0.69263,0.49638 -1.11142,0.41333c-0.28876,-0.05392 -0.54421,-0.2205 -0.71,-0.463c-0.58286,0.1519 -1.1969,-0.09178 -1.517,-0.602c-0.18334,0.17679 -0.42548,0.2797 -0.68,0.289c-0.05577,0.22378 -0.20038,0.41514 -0.40044,0.52989c-0.20005,0.11475 -0.43824,0.14296 -0.65956,0.07811c-0.222,0.328 -0.623,0.51 -1.033,0.431c-0.3779,-0.07523 -0.68148,-0.35642 -0.78538,-0.72746c-0.1039,-0.37104 0.0095,-0.769 0.29338,-1.02954c-0.3061,-0.19577 -0.46246,-0.55796 -0.395,-0.915M227.015,227.575c-0.064,0.981 -1.48,1.686 -2.458,1.624l-0.375,-0.023c-0.975,-0.063 -2.291,-0.95 -2.23,-1.929c0.427,-6.64 1.859,-19.886 2.285,-26.524c0.0616,-0.9792 0.90473,-1.72343 1.884,-1.663l0.376,0.026c0.977,0.062 1.717,0.91 1.653,1.892c-0.427,6.64 -0.706,19.956 -1.135,26.597M257.757,226.939c0.028,0.983 -1.319,1.819 -2.296,1.845l-0.377,0.012c-0.98,0.028 -2.37,-0.732 -2.398,-1.714c-0.186,-6.651 0.02,-19.971 -0.169,-26.623c-0.02747,-0.98038 0.74369,-1.79806 1.724,-1.828l0.376,-0.012c0.98077,-0.02461 1.79591,0.75025 1.821,1.731c0.188,6.651 1.135,19.937 1.319,26.589M263.613,190.985c0,0 0.203,-2.914 0.992,-3.088c2.882,-0.634 2.52,4.905 3.153,7.629c0.617,2.653 4.7,6.99 9.402,5.447c0,0 -6.545,-2.353 -2.443,-12.939c1.052,-2.71 -3.162,-11.005 -11.104,-2.49c-0.59,0.637 -1.19,3.266 -1.19,3.266z" fill="#81461d"/><path d="M264.855,190.364c0,9.055 -7.459,20.402 -19.559,20.402c-12.1,0 -23.816,-5.85 -24.256,-20.403c-0.143,-4.827 0.621,-8.755 5.903,-9.068c4.62,-0.272 15.388,4.26 21.033,4.397c3.125,0.077 5.5,-1.266 9.015,-2.09c3.61,-0.848 7.864,0.303 7.864,6.762" fill="#b75f22"/><path d="M233.703,233.725c0,0.984 -1.37,1.791 -2.35,1.791h-0.375c-0.979,0 -2.348,-0.807 -2.348,-1.79c0,-6.654 0.576,-19.957 0.576,-26.613c0,-0.984 0.793,-1.776 1.772,-1.776h0.376c0.979,0 1.77,0.792 1.77,1.776c0,6.656 0.579,19.959 0.579,26.612M263.613,232.543c0,0.983 -1.37,1.787 -2.349,1.787h-0.375c-0.98,0 -2.351,-0.804 -2.351,-1.787c0,-6.654 0.578,-26.546 0.578,-33.2c0,-0.981 0.794,-1.795 1.773,-1.795h0.375c0.98,0 1.773,0.814 1.773,1.795c0,6.654 0.576,26.546 0.576,33.2" fill="#b75f22"/><path d="M228.634,232.453c1.764,0.52 3.838,0.24 5.064,-0.02c0.002,0.45 0.005,0.885 0.005,1.293c0,0.983 -1.37,1.791 -2.349,1.791h-0.376c-0.978,0 -2.348,-0.808 -2.348,-1.792c0,-0.398 0.002,-0.829 0.004,-1.272M258.547,231.256c1.744,0.535 3.81,0.272 5.06,0.01c0.002,0.465 0.006,0.894 0.006,1.277c0,0.984 -1.369,1.788 -2.349,1.788h-0.376c-0.978,0 -2.35,-0.804 -2.35,-1.788c0,-0.385 0.004,-0.822 0.008,-1.287M252.655,225.756c1.83,0.457 3.931,0.113 5.06,-0.147c0.017,0.467 0.032,0.91 0.043,1.33c0.025,0.984 -1.321,1.817 -2.298,1.845l-0.375,0.013c-0.98,0.028 -2.373,-0.733 -2.398,-1.714c-0.011,-0.418 -0.022,-0.86 -0.032,-1.327M222.034,226.058c1.807,0.559 3.925,0.33 5.064,0.135c-0.027,0.486 -0.055,0.949 -0.083,1.382c-0.064,0.981 -1.48,1.686 -2.457,1.624l-0.375,-0.023c-0.976,-0.063 -2.292,-0.949 -2.23,-1.929c0.023,-0.375 0.051,-0.774 0.081,-1.189" fill="#373737"/><path d="M225.605,170.586c8.224,12.816 19.198,2.12 15.466,-9.21c-2.711,-8.229 12,2.674 12,2.674c0,0 -8.611,23.848 -16.085,24.202c-7.475,0.355 -11.409,-11.315 -11.381,-17.666" data-paper-data="{&quot;origPos&quot;:null}" fill="#333433"/><path d="M266.78,181.11c2.622,10.24 2.929,25.676 2.929,25.676c0,0 0.456,15.034 -1.937,15.878l-9.216,-13.838c-3.827,-0.397 -4.734,-4.61 -4.734,-4.61c0,0 -1.013,4.213 -4.386,4.61l-9.882,13.838c-2.492,-0.885 -1.91,-15.889 -1.91,-15.889h0.01c0,0 0.307,-15.437 2.926,-25.686c-1.49,0.591 27.73,0.625 26.2,0.021" fill="#b52836"/><path d="M266.246,206.799l-1.978,17.216h-9.755l-0.647,-9.866h-0.288l-0.646,9.866h-9.753l-1.98,-17.215z" fill="#eeeeed"/><path d="M243.392,233.424h-0.008l-0.463,-11.655h10.142v11.655h0.008c0.064,0.261 -0.02,0.518 -0.196,0.793c-0.574,0.889 -1.57,1.532 -2.42,2.125c-1.313,0.907 -2.975,1.389 -4.426,2.083c-1.314,0.555 -3.042,1.607 -4.22,0.29c-1.555,-1.873 -0.237,-4.168 1.583,-5.291M254.384,233.424v-11.655h10.159l-0.459,11.655h-0.008c1.817,1.123 3.136,3.415 1.578,5.29c-1.175,1.318 -2.903,0.27 -4.215,-0.287c-1.455,-0.692 -3.115,-1.185 -4.43,-2.087c-0.848,-0.596 -1.844,-1.232 -2.418,-2.12c-0.177,-0.278 -0.26,-0.6 -0.199,-0.796z" fill="#343434"/><path d="M253.44,201.86l8.505,4.94h-17.29z" fill="#d0d0d0"/><path d="M280.248,162.944c0.583,-0.116 1.214,0.334 1.748,1.138c1.175,-1.134 2.626,-1.608 3.837,-1.093c1.854,0.79 2.445,3.6 1.317,6.274c-1.129,2.676 -3.55,4.206 -5.404,3.418c-0.994,-0.424 -1.628,-1.43 -1.822,-2.687c-0.39156,-0.7433 -0.66804,-1.54173 -0.82,-2.368c-0.46,-2.374 0.05,-4.468 1.144,-4.682M230.128,200.4c0.104,-1 0.433,-1.858 0.906,-2.546l4.472,-0.006c0.038,0.068 0.096,0.169 0.132,0.242c0.433,0.426 0.853,0.996 1.21,1.665c0.928,1.757 1.024,3.531 0.215,3.96c-0.433,0.23 -1.037,0.03 -1.647,-0.476c-0.653,1.174 -1.683,1.896 -2.758,1.783c-1.65,-0.176 -2.78,-2.246 -2.53,-4.622" fill="#333433"/><path d="M280.046,170.865l4.813,2.38c0,0 -4.442,9.371 -7.45,10.466c-2.17,0.79 -9.196,-1.886 -10.73,-2.49c2.62,10.247 2.927,25.693 2.927,25.693h0.007l0.07,2.053h-11.862c-3.37,-0.463 -4.386,-4.61 -4.386,-4.61c0,0 -0.904,4.213 -4.732,4.609h-11.191l0.036,-2.061c0,0 0.271,-13.577 2.465,-23.711c-0.238,0.47 -0.617,1.067 -1.24,1.952c-1.711,2.44 -3.015,12.74 -3.015,12.74l-4.813,0.004c0,0 1.417,-14.265 5.112,-19.007c1.8,-2.31 8.29,-5.722 8.29,-5.722c0,0 0,0.005 -0.002,0.007c2.071,-1.318 7.39,-1.554 7.39,-1.554l1.768,0.075h0.15l1.768,-0.06c0,0 5.425,0.2 7.454,1.552l-0.012,-0.02l11.73,4.282l5.453,-6.579z" fill="#e63744"/><path d="M253.113,190.177l-2.093,-4.747l-2.545,-13.573c1.777,-0.27 3.362,-0.33 3.362,-0.33l1.77,0.047h0.148l1.77,-0.064c0,0 1.426,0.064 3.086,0.31l-2.264,13.61l-1.941,4.44l-0.76,1.101l-0.533,-0.793z" fill="#ffffff"/><path d="M251.465,181.633c0.024,-1.515 1.078,-5.964 1.078,-5.964c-0.472,-0.387 -0.875,-2.282 -0.875,-2.282l1.975,-1.72l2.183,1.72c0,0 -0.43,1.942 -0.941,2.282c0,0 0.932,4.462 0.94,5.97c0.005,1.586 -0.94,6.27 -0.94,6.27l-1.24,3.037l-1.218,-2.9c0,0 -0.985,-4.79 -0.962,-6.413" fill="#d0d0d0"/><path d="M253.673,171.607h0.081l1.771,-0.081c0,0 2,0.081 4.024,0.456c0.053,0.684 0.049,1.415 -0.122,2.092c-0.143,0.527 -0.407,0.643 -0.7,1.026c-0.264,0.382 -0.117,0.645 -0.644,0.73c-0.32,0.059 -0.582,-0.06 -0.815,-0.26l-0.026,0.019c0,0 -3.569,-2.657 -3.569,-3.982" fill="#ffffff"/><path d="M255.526,171.557l-1.771,0.084h-0.051c0.06,1.251 3.25,3.69 3.539,3.906l0.025,-0.021l0.022,0.017c0.254,0.225 0.508,0.306 0.79,0.257c0.334,-0.056 0.377,-0.176 0.451,-0.373c0.039,-0.103 0.08,-0.216 0.171,-0.345c0.088,-0.12 0.175,-0.21 0.258,-0.298c0.18,-0.193 0.337,-0.358 0.435,-0.715c0.145,-0.577 0.184,-1.25 0.126,-2.058c-1.994,-0.366 -3.976,-0.45 -3.995,-0.454M257.266,175.611l-0.021,0.02l-0.023,-0.015c-0.146,-0.11 -3.582,-2.683 -3.582,-4.01v-0.032h0.115l1.77,-0.081c0.022,0 2.025,0.088 4.033,0.456l0.023,0.007l0.002,0.023c0.064,0.827 0.026,1.517 -0.121,2.107c-0.103,0.373 -0.267,0.546 -0.453,0.743c-0.083,0.088 -0.166,0.176 -0.254,0.29c-0.085,0.124 -0.125,0.233 -0.164,0.33c-0.075,0.197 -0.128,0.353 -0.501,0.415c-0.05486,0.01184 -0.11088,0.01754 -0.167,0.017c-0.226,0 -0.441,-0.09 -0.657,-0.27" fill="#666767"/><path d="M248.215,174.305c-0.239,-0.643 -0.529,-1.631 -0.31,-2.357c1.30092,-0.21703 2.61416,-0.35229 3.932,-0.405l1.771,0.064h0.009c0,1.324 -3.572,3.981 -3.572,3.981l-0.078,-0.013c-0.905,0 -1.43,-0.39 -1.752,-1.27" fill="#ffffff"/><path d="M251.838,171.574c-0.017,0 -1.946,0.064 -3.904,0.403c-0.16,0.55 -0.053,1.333 0.312,2.32c0.322,0.875 0.834,1.248 1.725,1.248l0.067,0.008c0.22,-0.163 3.488,-2.646 3.543,-3.915zM249.968,175.609c-0.905,0 -1.458,-0.399 -1.784,-1.292c-0.378,-1.01 -0.478,-1.811 -0.308,-2.377l0.007,-0.021l0.02,-0.002c1.30185,-0.21793 2.61611,-0.35386 3.935,-0.407l1.77,0.064h0.043v0.034c0,1.324 -3.436,3.898 -3.584,4.007l-0.01,0.009l-0.09,-0.015z" fill="#666767"/><path d="M253.63,190.983c0,0 3.321,-13.719 4.318,-19.254c1.294,0.161 2.852,0.438 4.027,0.883l-0.546,3.38l-2.219,0.567l1.131,2.186c0,0 -2.54,9.484 -6.711,12.238" fill="#b52836"/><path d="M253.671,190.983c-4.175,-2.754 -6.713,-12.238 -6.713,-12.238l1.128,-2.186l-2.218,-0.567l-0.544,-3.38c1.173,-0.445 2.734,-0.722 4.027,-0.883c0.997,5.535 4.32,19.254 4.32,19.254" fill="#b52836"/><path d="M252.909,194.21c0,-0.35236 0.28564,-0.638 0.638,-0.638c0.35236,0 0.638,0.28564 0.638,0.638c0,0.35236 -0.28564,0.638 -0.638,0.638c-0.35236,0 -0.638,-0.28564 -0.638,-0.638M252.909,197.058c-0.00133,-0.16973 0.06502,-0.33299 0.18438,-0.45366c0.11936,-0.12067 0.28188,-0.18881 0.45162,-0.18934c0.33729,0.02308 0.59911,0.30342 0.59911,0.6415c0,0.33808 -0.26181,0.61842 -0.59911,0.6415c-0.352,0 -0.636,-0.289 -0.636,-0.64M252.909,199.969c-0.0008,-0.1692 0.06586,-0.33174 0.18522,-0.45166c0.11936,-0.11992 0.28159,-0.18734 0.45078,-0.18734c0.35307,0 0.63945,0.28593 0.64,0.639c0,0.35236 -0.28564,0.638 -0.638,0.638c-0.35236,0 -0.638,-0.28564 -0.638,-0.638" fill="#f6b90c"/><path d="M231.14,150.614c-0.17265,-1.15127 -0.2589,-2.31385 -0.258,-3.478c0,-12.767 10.306,-23.12 23.019,-23.12c12.712,0 23.02,10.353 23.02,23.12c-0.00045,1.11095 -0.08032,2.22044 -0.239,3.32c1.332,0.73 2.228,2.108 2.228,3.69c0,2.346 -1.972,4.249 -4.397,4.249c-0.16279,-0.00023 -0.32541,-0.01025 -0.487,-0.03c-3.931,7.097 -11.47,11.895 -20.125,11.895c-8.647,0 -16.18,-4.79 -20.116,-11.874c-0.06782,0.00618 -0.1359,0.00919 -0.204,0.009c-2.428,0 -4.397,-1.903 -4.397,-4.25c0,-1.472 0.778,-2.77 1.956,-3.531" data-paper-data="{&quot;origPos&quot;:null}" fill="#ffdb80"/><path d="M249.311,147.65c0,0 -0.503,1.803 -2.082,1.446c-0.772,-0.174 -0.908,-1.201 -3.386,-0.74c-0.779,0.18 -2.417,1.156 -2.732,1.808c-0.316,0.652 -0.088,-2.392 2.457,-3.522c1.835,-0.675 2.457,-0.642 3.977,-0.642c1.52,0 1.987,0.907 1.766,1.65M259.052,147.65c0,0 0.503,1.803 2.082,1.446c0.772,-0.174 0.908,-1.201 3.386,-0.74c0.779,0.18 2.417,1.156 2.732,1.808c0.316,0.652 0.087,-2.392 -2.457,-3.522c-1.835,-0.675 -2.457,-0.642 -3.977,-0.642c-1.52,0 -1.987,0.907 -1.766,1.65" fill="#f6b90c"/><path d="M247,155c0,1.657 -0.895,3 -2,3c-1.105,0 -2,-1.343 -2,-3c0,-1.657 0.895,-3 2,-3c1.105,0 2,1.343 2,3M265,155c0,1.657 -0.895,3 -2,3c-1.105,0 -2,-1.343 -2,-3c0,-1.657 0.895,-3 2,-3c1.105,0 2,1.343 2,3" data-paper-data="{&quot;origPos&quot;:null}" fill="#333433"/><path d="M254.02,158.069c-1.125,0.153 -3.02,1.834 -3.02,1.834c0,0 0.207,-1.009 0.503,-1.299c0.8,-1.156 2.487,-1.604 2.487,-1.604c0,0 2.173,0.703 2.65,1.588c0.443,0.824 0.34,1.238 0.34,1.238c0,0 -2.121,-1.871 -2.96,-1.756z" fill="#eeac6c"/><path d="M247.2,161.696c0,0 6.897,3.208 13.172,-0.397c0,0 -1.39,5.47 -5.95,5.561c-4.115,0.122 -4.984,-1.492 -5.477,-1.956c-0.492,-0.463 -1.42,-1.772 -1.745,-3.208" fill="#eeac6c"/><path d="M267.621,149.07c-1.877,-1.166 -4.642,-1.901 -4.642,-1.901c-0.326,-0.613 -0.034,-1.654 0.401,-1.717c1.378,-0.195 4.241,3.618 4.241,3.618M240.976,149.07c1.879,-1.166 4.642,-1.901 4.642,-1.901c0.326,-0.613 0.036,-1.654 -0.4,-1.717c-1.375,-0.195 -4.242,3.618 -4.242,3.618" fill="#f6b90c"/><path d="M277.731,144.352c0.037,2.704 -1.16,6.461 -1.16,6.461c0,0 -6.08,-7.23 -9.792,-9.26c-4.533,-2.477 -6.794,1.172 -10.848,-2.042c-0.672,-0.531 -1.922,-1.946 -1.922,-1.946c0,0 -1.525,1.55 -1.928,1.946c-4.56,4.481 -7.973,-0.748 -11.81,1.957c-4.882,3.445 -9.01,9.18 -9.01,9.18c0,0 -1.418,-1.629 -1.218,-6.549c0.054,-1.414 0.736,-4.558 1.854,-7.753c4.026,-8.121 12.38,-13.706 22.032,-13.706c11.084,0 20.456,7.365 23.53,17.485c0.15717,1.40328 0.24827,2.81317 0.273,4.225" data-paper-data="{&quot;origPos&quot;:null}" fill="#333433"/><path d="M251.645,173.03c-1.075,0 -1.945,-2.316 -1.945,-3.375h7.649c0,1.059 -0.871,3.375 -1.943,3.375h-3.76" data-paper-data="{&quot;origPos&quot;:null}" fill="#ffdb80"/><path d="M250.592,172.294c-0.429,-0.662 -0.802,-1.556 -0.874,-2.214c1.213,0.2 2.457,0.3 3.726,0.3c1.325,0 2.624,-0.113 3.89,-0.33l-0.013,0.015l-6.729,2.229" fill="#eeac6c"/><path d="M278.03,145.077c-0.27,5.58 -2.701,25.4 -24.263,25.288c22.153,-3.655 21.944,-23.977 21.944,-23.977z" fill="#333433"/><path d="M231.92,146.388c0,0 -1.534,19.858 21.947,23.977c-21.561,0.112 -24.36,-19.905 -24.36,-25.288z" fill="#333433"/><path d="M278.03,145.077c-5.04,8.153 -41.814,8.226 -48.523,0c0,0 11.32,-10.687 24.506,-10.687c16.023,0 24.017,10.687 24.017,10.687" fill="#1d1d1d"/><path d="M229.507,145.077c0,-13.507 10.86,-24.369 24.26,-24.369c13.4,0 24.263,10.862 24.263,24.369z" fill="#333433"/><path d="M249.093,128.759c1.504,-1.332 7.467,-1.386 9.363,0l-1.201,3.086h-6.961zM251.19,138.359l-0.892,-2.29c1.118,-0.988 5.547,-1.03 6.953,0l-0.892,2.291h-5.169zM249.111,125.498l-1.609,-4.136c2.016,-1.78 10.004,-1.853 12.544,0l-1.608,4.136h-9.328zM260.796,142.208c5.884,0 4.312,-13.254 4.312,-13.254c0,0 -1.037,10.833 -4.312,13.254M246.942,142.208c-6.534,-0.493 -4.25,-13.254 -4.25,-13.254c0,0 1.005,10.19 4.25,13.254" fill="#1d1d1d"/></g></g></svg>