<svg xmlns="http://www.w3.org/2000/svg" width="93.892" height="119.351"><g fill-rule="evenodd" stroke-miterlimit="10" data-paper-data="{&quot;isPaintingLayer&quot;:true}" style="mix-blend-mode:normal"><path fill="#81461d" d="M35.733 58.307c.459.964-.734 2.415-2.06 2.818l-.007.002c-1.331.407-2.53.334-2.68-.16l-8.032-26.626c-.151-.493.809-1.22 2.138-1.624l.009-.002c1.329-.407 2.508-.33 2.677.16 1.167 3.4 2.59 6.7 2.888 14.13.16 3.96 3.6 8.242 5.067 11.302"/><path fill="#b75f22" d="m24.877 49.165 3.198-3.917L33.58 61.95v5.12l-6.378 1.742-3.866-9.86z"/><path fill="#b75f22" d="M1.873 49.386c2.289-3.03 7.85-5.76 9.207-6.52 1.359-.757 4.376-4.242 6.79-9.095 2.418-4.852 8-3.855 9.054 0 1.026 3.732 5.596 28.89-13.721 31.385C-1.193 67.013-1.74 54.17 1.873 49.386"/><path fill="#f4d2b2" d="M20.896 59.814c0 .913-.088 1.803-.26 2.663-1.961 1.339-4.403 2.289-7.433 2.679C-1.193 67.01-1.74 54.17 1.873 49.386c.202-.27.428-.533.678-.795a11.649 11.649 0 0 1 6.12-1.74c6.75 0 12.225 5.805 12.225 12.963"/><path fill="#fff" d="M20.666 37.66c-.113.877-.725 1.522-1.371 1.439-.645-.082-1.078-.86-.967-1.74.113-.877.726-1.522 1.374-1.438.644.083 1.077.86.964 1.74"/><path fill="#81461d" d="M20.166 38.044c.069-.544-.2-1.027-.597-1.08-.401-.05-.781.347-.852.89-.067.545.2 1.027.6 1.077.397.05.78-.345.849-.887m-2.296-2.72s2.055-2.11 2.883-1.88c.26.07.358.733.108 1.082 0 0-1.75.234-2.991.797"/><path fill="#fff" d="M25.45 38.247c-.111.878-.726 1.52-1.372 1.44-.642-.084-1.077-.862-.967-1.74.114-.877.73-1.522 1.374-1.44.647.085 1.078.863.965 1.74"/><path fill="#81461d" d="M24.952 38.63c.068-.544-.203-1.026-.6-1.076-.4-.051-.778.345-.851.889-.066.543.198 1.027.6 1.077.4.05.78-.346.85-.89m1.457-2.235s-1.457-2.561-2.314-2.548c-.272.002-.534.618-.38 1.018 0 0 1.634.668 2.694 1.53M8.637 52.625s-2.208-2.691-3.054-2.254c-.636.33-.796.658-.63 1.314.237.923 3.684.94 3.684.94m.667-.008s2.255-2.661 3.087-2.214c.636.342.787.673.613 1.322-.248.924-3.7.892-3.7.892m-.317 11.47c-4.591 0-4.591-4.58-4.591-4.58 4.592 3.086 9.182 0 9.182 0s0 4.58-4.591 4.58"/><path fill="#b75f22" d="M15.743 31.28a5.559 5.559 0 0 1-1.675-3.902 5.508 5.508 0 0 1 3.93 1.575 5.569 5.569 0 0 1 1.677 3.9 5.512 5.512 0 0 1-3.932-1.572"/><path fill="#81461d" d="M16.206 30.805a3.3 3.3 0 0 1-.99-2.305c.866-.013 1.7.322 2.319.928.622.607.978 1.435.99 2.305a3.252 3.252 0 0 1-2.32-.928"/><path fill="#b75f22" d="M29.704 32.268a5.503 5.503 0 0 1-4.032 1.297 5.554 5.554 0 0 1 1.943-3.774 5.5 5.5 0 0 1 4.026-1.3 5.551 5.551 0 0 1-1.937 3.777"/><path fill="#81461d" d="M29.273 31.76a3.238 3.238 0 0 1-2.377.767 3.29 3.29 0 0 1 1.146-2.23 3.252 3.252 0 0 1 2.378-.766 3.28 3.28 0 0 1-1.147 2.23m-10.167-1.305a.878.878 0 0 1 1.506-.433.765.765 0 0 1 .134.062c0-.015.005-.028.005-.04a.85.85 0 0 1 1.34-.526c.004-.025.006-.055.012-.083a.763.763 0 0 1 1.5.279 1.41 1.41 0 0 1 .593-.018 1.38 1.38 0 0 1 1.047.928 1.131 1.131 0 1 1-.25 2.24 1.106 1.106 0 0 1-.71-.463 1.38 1.38 0 0 1-1.517-.602c-.184.176-.426.28-.68.289a.847.847 0 0 1-1.06.608c-.222.328-.623.51-1.033.43a1.023 1.023 0 0 1-.492-1.756.89.89 0 0 1-.395-.915m14.079 77.12c-.064.98-1.48 1.686-2.458 1.624l-.375-.023c-.975-.063-2.291-.95-2.23-1.93.427-6.64 1.859-19.885 2.285-26.523a1.778 1.778 0 0 1 1.884-1.663l.376.026c.977.062 1.717.91 1.653 1.892-.427 6.64-.706 19.956-1.135 26.597m30.742-.636c.028.983-1.32 1.819-2.296 1.845l-.377.012c-.98.028-2.37-.732-2.398-1.714-.186-6.651.02-19.971-.17-26.623a1.779 1.779 0 0 1 1.725-1.828l.376-.012c.98-.025 1.796.75 1.82 1.73.189 6.652 1.136 19.938 1.32 26.59m5.856-35.954s.203-2.914.992-3.088c2.882-.634 2.52 4.905 3.153 7.629.617 2.653 4.7 6.99 9.402 5.447 0 0-6.545-2.353-2.443-12.94 1.052-2.71-3.162-11.004-11.104-2.49-.59.638-1.19 3.267-1.19 3.267z"/><path fill="#b75f22" d="M71.025 70.365c0 9.055-7.46 20.402-19.56 20.402-12.1 0-23.815-5.85-24.255-20.403-.143-4.827.62-8.755 5.903-9.068 4.62-.272 15.388 4.26 21.033 4.397 3.125.077 5.5-1.266 9.015-2.09 3.61-.848 7.864.303 7.864 6.762"/><path fill="#b75f22" d="M39.873 113.726c0 .984-1.37 1.79-2.35 1.79h-.375c-.98 0-2.348-.806-2.348-1.79 0-6.653.576-19.956.576-26.612 0-.984.793-1.776 1.772-1.776h.376c.979 0 1.77.792 1.77 1.776 0 6.656.579 19.959.579 26.612m29.91-1.182c0 .983-1.37 1.787-2.35 1.787h-.374c-.98 0-2.351-.804-2.351-1.787 0-6.654.578-26.546.578-33.2 0-.981.794-1.795 1.773-1.795h.375c.98 0 1.773.814 1.773 1.795 0 6.654.576 26.546.576 33.2"/><path fill="#373737" d="M34.804 112.454c1.764.52 3.838.24 5.064-.02.002.45.005.885.005 1.293 0 .983-1.37 1.79-2.35 1.79h-.375c-.978 0-2.348-.807-2.348-1.791 0-.398.002-.83.004-1.272m29.913-1.197c1.744.535 3.81.272 5.06.01.002.465.006.894.006 1.277 0 .984-1.37 1.788-2.35 1.788h-.375c-.978 0-2.35-.804-2.35-1.788 0-.385.004-.822.008-1.287m-5.891-5.5c1.83.457 3.93.113 5.06-.147.017.467.032.91.043 1.33.025.984-1.321 1.817-2.298 1.845l-.375.013c-.98.028-2.373-.733-2.398-1.714-.011-.418-.022-.86-.032-1.327m-30.621.302c1.807.559 3.925.33 5.064.135-.027.486-.055.949-.083 1.382-.064.98-1.48 1.686-2.457 1.624l-.375-.023c-.976-.063-2.292-.95-2.23-1.93.023-.374.05-.773.08-1.188"/><path fill="#333433" d="M31.775 50.587c8.224 12.816 19.198 2.12 15.466-9.21-2.711-8.23 12 2.674 12 2.674S50.63 67.899 43.156 68.253c-7.475.355-11.41-11.315-11.381-17.666" data-paper-data="{&quot;origPos&quot;:null}"/><path fill="#b52836" d="M72.95 61.11c2.622 10.24 2.929 25.677 2.929 25.677s.456 15.034-1.937 15.878l-9.216-13.838c-3.827-.397-4.734-4.61-4.734-4.61s-1.013 4.213-4.386 4.61l-9.882 13.838c-2.492-.885-1.91-15.89-1.91-15.89h.01S44.13 71.34 46.75 61.09c-1.49.59 27.73.625 26.2.02"/><path fill="#eeeeed" d="m72.416 86.8-1.978 17.216h-9.755l-.647-9.866h-.288l-.646 9.866h-9.753L47.369 86.8z"/><path fill="#343434" d="M49.562 113.425h-.008l-.463-11.655h10.142v11.655h.008c.064.26-.02.518-.196.793-.574.889-1.57 1.532-2.42 2.125-1.313.907-2.975 1.389-4.426 2.083-1.314.555-3.042 1.607-4.22.29-1.555-1.873-.237-4.168 1.583-5.291m10.992 0V101.77h10.159l-.46 11.655h-.007c1.817 1.123 3.136 3.415 1.578 5.29-1.175 1.318-2.903.27-4.215-.287-1.455-.692-3.115-1.185-4.43-2.087-.848-.596-1.844-1.232-2.418-2.12-.177-.278-.26-.6-.2-.796z"/><path fill="#d0d0d0" d="m59.61 81.86 8.505 4.94h-17.29z"/><path fill="#333433" d="M86.418 42.945c.583-.116 1.214.334 1.748 1.138 1.175-1.134 2.626-1.608 3.837-1.093 1.854.79 2.445 3.6 1.317 6.274-1.13 2.676-3.55 4.206-5.404 3.418-.994-.424-1.628-1.43-1.822-2.687a8.303 8.303 0 0 1-.82-2.368c-.46-2.374.05-4.468 1.144-4.682M36.298 80.4c.104-1 .433-1.858.906-2.546l4.472-.006c.038.068.096.169.132.242.433.426.853.996 1.21 1.665.928 1.757 1.024 3.53.215 3.96-.433.23-1.037.03-1.647-.476-.653 1.174-1.683 1.896-2.758 1.783-1.65-.176-2.78-2.246-2.53-4.622"/><path fill="#e63744" d="m86.216 50.866 4.813 2.38s-4.442 9.37-7.45 10.466c-2.17.79-9.196-1.886-10.73-2.49 2.62 10.247 2.927 25.693 2.927 25.693h.007l.07 2.053H63.99c-3.37-.463-4.386-4.61-4.386-4.61s-.904 4.213-4.732 4.609H43.682l.036-2.061s.27-13.577 2.465-23.711c-.238.47-.617 1.067-1.24 1.952-1.711 2.44-3.015 12.74-3.015 12.74l-4.813.004s1.417-14.265 5.112-19.007c1.8-2.31 8.29-5.722 8.29-5.722s0 .005-.002.007c2.07-1.318 7.39-1.554 7.39-1.554l1.768.075h.15l1.768-.06s5.425.2 7.454 1.552l-.012-.02 11.73 4.282 5.453-6.58z"/><path fill="#fff" d="M59.283 70.178 57.19 65.43l-2.545-13.573c1.777-.27 3.362-.33 3.362-.33l1.77.047h.148l1.77-.064s1.426.064 3.086.31l-2.264 13.61-1.941 4.44-.76 1.1-.533-.792z"/><path fill="#d0d0d0" d="M57.635 61.634c.024-1.515 1.078-5.964 1.078-5.964-.472-.387-.875-2.282-.875-2.282l1.975-1.72 2.183 1.72s-.43 1.942-.941 2.282c0 0 .932 4.462.94 5.97.005 1.586-.94 6.27-.94 6.27l-1.24 3.037-1.218-2.9s-.985-4.79-.962-6.413"/><path fill="#fff" d="M59.843 51.608h.08l1.772-.081s2 .08 4.024.456c.053.684.049 1.415-.122 2.092-.143.527-.407.643-.7 1.026-.264.382-.117.645-.644.73-.32.059-.582-.06-.815-.26l-.026.019s-3.57-2.657-3.57-3.982"/><path fill="#666767" d="m61.696 51.558-1.771.084h-.051c.06 1.25 3.25 3.69 3.539 3.906l.025-.021.022.017c.254.225.508.306.79.257.334-.056.377-.176.45-.373.04-.103.08-.216.172-.345.088-.12.175-.21.258-.298.18-.193.337-.358.435-.715.145-.577.184-1.25.126-2.058-1.994-.366-3.976-.45-3.995-.454m1.74 4.054-.021.02-.023-.015c-.146-.11-3.582-2.683-3.582-4.01v-.032h.115l1.77-.081c.022 0 2.025.088 4.033.456l.023.007.002.023c.064.827.026 1.517-.121 2.107-.103.373-.267.546-.453.743-.083.088-.166.176-.254.29-.085.124-.125.233-.164.33-.075.197-.128.353-.501.415a.757.757 0 0 1-.167.017c-.226 0-.441-.09-.657-.27"/><path fill="#fff" d="M54.385 54.306c-.24-.643-.53-1.631-.31-2.357a31.56 31.56 0 0 1 3.932-.405l1.77.064h.01c0 1.324-3.572 3.98-3.572 3.98l-.078-.012c-.905 0-1.43-.39-1.752-1.27"/><path fill="#666767" d="M58.008 51.575c-.017 0-1.946.064-3.904.403-.16.55-.053 1.333.312 2.32.322.875.834 1.248 1.725 1.248l.067.008c.22-.163 3.488-2.646 3.543-3.915zm-1.87 4.035c-.905 0-1.458-.4-1.784-1.292-.378-1.01-.478-1.811-.308-2.377l.007-.021.02-.002a31.52 31.52 0 0 1 3.935-.407l1.77.064h.043v.034c0 1.324-3.436 3.898-3.584 4.007l-.01.009-.09-.015z"/><path fill="#b52836" d="M59.8 70.984s3.32-13.72 4.318-19.254c1.294.16 2.852.438 4.027.883l-.546 3.38-2.22.567 1.132 2.186S63.97 68.23 59.8 70.984"/><path fill="#b52836" d="M59.84 70.984c-4.174-2.754-6.712-12.238-6.712-12.238l1.128-2.186-2.218-.567-.544-3.38c1.173-.445 2.734-.722 4.027-.883.997 5.535 4.32 19.254 4.32 19.254"/><path fill="#f6b90c" d="M59.079 74.21a.638.638 0 1 1 1.276 0 .638.638 0 0 1-1.276 0m0 2.849a.638.638 0 0 1 .636-.643.643.643 0 0 1 0 1.283.64.64 0 0 1-.636-.64m0 2.91a.636.636 0 0 1 .636-.638.638.638 0 1 1-.636.639"/><path fill="#ffdb80" d="M37.31 30.615a23.33 23.33 0 0 1-.258-3.478c0-12.767 10.306-23.12 23.019-23.12 12.712 0 23.02 10.353 23.02 23.12 0 1.11-.08 2.22-.24 3.32 1.333.73 2.229 2.108 2.229 3.69 0 2.346-1.972 4.249-4.397 4.249-.163 0-.326-.01-.487-.03-3.931 7.097-11.47 11.895-20.125 11.895-8.647 0-16.18-4.79-20.116-11.874-.068.006-.136.009-.204.009-2.428 0-4.397-1.903-4.397-4.25 0-1.472.778-2.77 1.956-3.531" data-paper-data="{&quot;origPos&quot;:null}"/><path fill="#f6b90c" d="M55.48 27.65s-.502 1.804-2.081 1.447c-.772-.174-.908-1.201-3.386-.74-.78.18-2.417 1.156-2.732 1.808-.316.652-.088-2.392 2.457-3.522 1.835-.675 2.457-.642 3.977-.642s1.987.907 1.766 1.65m9.74 0s.504 1.803 2.083 1.446c.772-.174.908-1.201 3.386-.74.779.18 2.417 1.156 2.732 1.808.316.652.087-2.392-2.457-3.522-1.835-.675-2.457-.642-3.977-.642s-1.987.907-1.766 1.65"/><path fill="#333433" d="M53.17 35c0 1.658-.895 3-2 3s-2-1.342-2-3c0-1.656.895-3 2-3s2 1.344 2 3m18 0c0 1.658-.895 3-2 3s-2-1.342-2-3c0-1.656.895-3 2-3s2 1.344 2 3" data-paper-data="{&quot;origPos&quot;:null}"/><path fill="#eeac6c" d="M60.19 38.07c-1.125.153-3.02 1.834-3.02 1.834s.207-1.01.503-1.3c.8-1.155 2.487-1.603 2.487-1.603s2.173.703 2.65 1.588c.443.824.34 1.238.34 1.238s-2.121-1.871-2.96-1.756zM53.37 41.697s6.897 3.208 13.172-.397c0 0-1.39 5.47-5.95 5.56-4.115.123-4.984-1.491-5.477-1.955-.492-.463-1.42-1.772-1.745-3.208"/><path fill="#f6b90c" d="M73.79 29.07c-1.876-1.165-4.641-1.9-4.641-1.9-.326-.613-.034-1.654.4-1.717 1.379-.195 4.242 3.618 4.242 3.618m-26.645 0c1.879-1.166 4.642-1.901 4.642-1.901.326-.613.036-1.654-.4-1.717-1.375-.195-4.242 3.618-4.242 3.618"/><path fill="#333433" d="M83.9 24.353c.038 2.704-1.16 6.46-1.16 6.46s-6.08-7.23-9.791-9.26c-4.533-2.476-6.794 1.173-10.848-2.041-.672-.531-1.922-1.946-1.922-1.946s-1.525 1.55-1.928 1.946c-4.56 4.48-7.973-.748-11.81 1.957-4.882 3.445-9.01 9.18-9.01 9.18s-1.418-1.63-1.218-6.55c.054-1.413.736-4.557 1.854-7.752C42.093 8.226 50.447 2.64 60.099 2.64c11.084 0 20.456 7.365 23.53 17.485.157 1.403.248 2.813.273 4.225" data-paper-data="{&quot;origPos&quot;:null}"/><path fill="#ffdb80" d="M57.815 53.03c-1.075 0-1.945-2.315-1.945-3.374h7.649c0 1.059-.871 3.375-1.943 3.375h-3.76" data-paper-data="{&quot;origPos&quot;:null}"/><path fill="#eeac6c" d="M56.762 52.295c-.43-.662-.802-1.556-.874-2.214 1.213.2 2.457.3 3.726.3 1.325 0 2.624-.113 3.89-.33l-.013.015-6.73 2.229"/><path fill="#333433" d="M84.2 25.078c-.27 5.58-2.701 25.4-24.263 25.288C82.09 46.71 81.88 26.389 81.88 26.389z"/><path fill="#333433" d="M38.09 26.389s-1.534 19.858 21.947 23.977c-21.561.112-24.36-19.905-24.36-25.288z"/><path fill="#1d1d1d" d="M84.2 25.078c-5.04 8.153-41.814 8.226-48.523 0 0 0 11.32-10.687 24.506-10.687 16.023 0 24.017 10.687 24.017 10.687"/><path fill="#333433" d="M35.677 25.078c0-13.507 10.86-24.37 24.26-24.37 13.4 0 24.263 10.863 24.263 24.37z"/><path fill="#1d1d1d" d="M55.263 8.76c1.504-1.332 7.467-1.386 9.363 0l-1.201 3.086h-6.961zm2.097 9.6-.892-2.29c1.118-.988 5.547-1.03 6.953 0l-.892 2.29h-5.17zM55.28 5.499l-1.608-4.136c2.016-1.78 10.004-1.853 12.544 0l-1.608 4.136H55.28zm11.686 16.71c5.884 0 4.312-13.254 4.312-13.254s-1.037 10.833-4.312 13.254m-13.854 0c-6.534-.493-4.25-13.254-4.25-13.254s1.005 10.19 4.25 13.254"/></g></svg>