<svg xmlns="http://www.w3.org/2000/svg" width="64.315" height="119.44"><g fill-rule="evenodd" stroke-miterlimit="10" data-paper-data="{&quot;isPaintingLayer&quot;:true}" style="mix-blend-mode:normal"><path fill="#515151" d="M22.14 105.214c-2.99-2.483-2.954-15.328-2.954-15.328h26.14s.256 12.83-2.71 15.328c-1.893 1.599-9.883 0-9.883 0l-.358-1.81-.36 1.81s-7.968 1.58-9.874 0"/><path fill="#2c2c2d" d="M31.83 113.96c.059.237-.016.494-.18.749-.53.816-1.445 1.414-2.23 1.963-1.204.834-2.733 1.282-4.07 1.922-1.205.512-2.797 1.475-3.88.255-1.43-1.725-.216-3.844 1.458-4.888l-.844-8.747h10.043zM41.83 113.96c1.672 1.043 2.884 3.163 1.457 4.888-1.081 1.219-2.673.257-3.883-.255-1.337-.641-2.864-1.09-4.07-1.923-.782-.548-1.7-1.146-2.23-1.962-.161-.258-.236-.513-.181-.748l-.292-8.746h10.04l-.84 8.746"/><path fill="#e7c49f" d="M16.239 64.347c1.637-2.102 7.578-5.203 7.578-5.203s-2.78 5.017-3.28 7.245c-.066.285-.221 1.042-.364 1.439-.18.492-.686 1.118-1.463 2.23-1.561 2.22-3.021 11.608-3.021 11.608.036.065.068.13.102.195.443.45.815.964 1.105 1.525.844 1.603.93 3.226.192 3.618-.39.212-.943.027-1.501-.435-.594 1.075-1.533 1.735-2.514 1.632-1.506-.16-2.54-2.05-2.308-4.227.093-.913.4-1.732.832-2.36-.004.036-.008.056-.008.056s1.29-12.998 4.65-17.323m45.385-14.475c1.686.72 2.225 3.279 1.196 5.72-.658 1.562-1.8 2.698-2.98 3.118l.002.002s-3.143 8.98-5.885 9.98c-2.216.809-10.025-2.386-10.025-2.386s-.631-2.441-.96-3.214c-.446-1.06-2.417-4-2.417-4L51.4 62.986l5.04-5.957c-.086-.24-.147-.5-.19-.77-.324-.591-.588-1.335-.748-2.16-.416-2.162.048-4.073 1.04-4.268.532-.103 1.107.304 1.59 1.04 1.072-1.036 2.392-1.467 3.492-.998" data-paper-data="{&quot;origPos&quot;:null}"/><path fill="#2c2c2d" d="M60.792 59.194s-4.097 8.657-6.84 9.656c-2.12.777-8.456-1.708-8.966-2.066 1.379 5.993 1.75 13.755 1.84 18.58.003.06.738 8.066.668 12.729-6.153 2.514-23.935 1.89-30.456 0-.177-4.79.679-12.825.683-13.02.098-4.043.403-10.032 1.297-15.362-.07.105-.148.214-.228.33-.234.332-.46.82-.677 1.404-1.214 3.308-2.067 9.784-2.067 9.784l-4.616.004s.786-6.686 2.467-12.062c.667-2.121 1.47-4.04 2.423-5.263 1.484-1.911 5.789-4.354 6.566-4.787 1.92-1.25 7.698-1.44 7.698-1.44l1.61.04h.134l1.61-.04s5.797.212 7.709 1.47l9.69 3.692 4.78-6.013z"/><path fill="#131313" d="m26.345 99.48-.12-.006.063-33.664zm2.832-26.63a.826.826 0 0 1-.824.829.823.823 0 0 1-.818-.83c0-.456.367-.827.818-.827.456 0 .824.37.824.827m7.493 0a.824.824 0 0 1-.822.83.824.824 0 0 1-.82-.83c0-.456.367-.827.82-.827.456 0 .822.37.822.827m-7.493 7.846c0 .458-.368.83-.824.83a.823.823 0 0 1-.818-.83c0-.457.367-.827.818-.827.456 0 .824.37.824.827m7.493 0c0 .458-.366.83-.822.83a.824.824 0 0 1-.82-.83c0-.457.367-.827.82-.827.456 0 .822.37.822.827m-7.493 9.055a.827.827 0 0 1-.824.827.824.824 0 0 1-.818-.828c0-.458.367-.83.818-.83.456 0 .824.37.824.83m7.493 0a.825.825 0 0 1-.822.828.825.825 0 0 1-.82-.828c0-.458.367-.83.82-.83.456 0 .822.37.822.83"/><path fill="#e7c49f" d="M32.298 60.823c-3.822 0-3.624-3.038-3.624-3.038 1.118-.133 1.959-.176 1.959-.176l1.61.088h.136l1.607-.056s.762.023 1.805.133c0 0-.076 3.05-3.493 3.05" data-paper-data="{&quot;origPos&quot;:null}"/><path fill="#e7c49f" d="M30.54 59.076c-.974 0-1.77-2.113-1.77-3.08h6.96c0 .967-.795 3.08-1.772 3.08H30.54" data-paper-data="{&quot;origPos&quot;:null}"/><path fill="#eeac6c" d="M29.522 58.274a5.039 5.039 0 0 1-.732-2.038c2.294.375 4.634.365 6.925-.027l-.013.012-6.18 2.053"/><path fill="#eeeeed" d="M32.258 60.813s2.565-.465 3.445-4.515c.443-.148 3.278.71 3.338 1.613.097 1.53-.262 2.499-3.083 4.397-1.017-1.058-3.7-1.495-3.7-1.495"/><path fill="#eeeeed" d="M32.316 60.813s-2.727.63-3.638 1.495c-2.334-1.268-2.791-3.092-3.08-4.397-.18-.788 2.797-1.761 3.214-1.613.886 3.627 3.504 4.515 3.504 4.515"/><path fill="#487f66" d="M33.755 61.782c1.993.552 5.312 1.675 5.374 3.015.024.546-1.636 1.64-1.846 1.137-.442-1.071-2.402-2.646-3.732-3.63-.241.414-.647.746-1.07.375-.78.326-1.07-.117-1.14-.585-1.316.956-3.541 2.69-4.018 3.84-.21.504-1.871-.591-1.846-1.137.069-1.453 3.97-2.651 5.849-3.146.008-.083.025-.165.05-.244.105-.303 1.255-.247 1.255-.247s1.078.124 1.128.42a.59.59 0 0 1-.004.202m13.06 21.58c.19-.018.33 3.953.21 3.963-9.76.913-19.802.907-29.56-.011-.06-.004.145-3.968.305-3.955a159.22 159.22 0 0 0 29.046.004"/><path fill="#2d5441" d="M17.654 83.892c9.739.9 19.54.9 29.28 0 .01.056.014.118.02.18-9.751.903-19.566.903-29.317-.002.005-.062.013-.124.017-.178m-.185 2.698c9.845.92 19.754.923 29.6.006.002.06.002.12 0 .182a159.48 159.48 0 0 1-29.606-.008c.002-.056.002-.116.007-.18"/><path fill="#9f191b" d="M47.049 87.264a159.1 159.1 0 0 1-29.591-.013c0-.04-.002-.103 0-.18 9.844.923 19.757.925 29.604.008-.004.08-.01.14-.012.185m-29.33-3.79a159.02 159.02 0 0 0 29.15.002c.015.058.025.118.033.178-9.716.895-19.496.895-29.216-.002.013-.071.023-.131.033-.178"/><path fill="#eeeeed" d="M17.554 85.026c9.803.915 19.666.915 29.47.007.001.06.004.12.01.18a159.3 159.3 0 0 1-29.49-.004c.004-.06.01-.123.01-.183"/><path fill="#eeeeed" d="M17.52 85.51c9.821.914 19.705.915 29.525.002 0 .06.004.122.004.18-9.821.915-19.713.913-29.536-.002a2.77 2.77 0 0 0 .008-.18"/><path fill="#e7c49f" d="M16.833 83.235c.907 1.646 1.026 3.322.272 3.744-.757.418-2.103-.572-3.007-2.218-.793-1.442-.987-2.91-.51-3.532l1.505-.002c.597.38 1.238 1.093 1.74 2.008" data-paper-data="{&quot;origPos&quot;:null}"/><path fill="#2c2c2d" d="m.379 24.722 13.63.273-1.516 11.722S-2.553 29.187.379 24.72zM63.936 24.72c2.932 4.467-12.112 11.997-12.112 11.997l-1.518-11.722z"/><path fill="#e7c49f" d="M52.846 38.622c1.073.695 1.78 1.875 1.78 3.219 0 2.134-1.79 3.866-3.997 3.866-.061 0-.123-.002-.187-.005-3.575 6.446-10.417 10.809-18.276 10.809-7.864 0-14.716-4.37-18.286-10.83a3.78 3.78 0 0 1-.443.026c-2.205 0-3.993-1.732-3.993-3.866 0-1.44.813-2.698 2.02-3.362a21.328 21.328 0 0 1-.215-3.02c0-11.624 9.365-21.053 20.917-21.053 11.55 0 20.914 9.429 20.914 21.054 0 1.073-.081 2.132-.234 3.162" data-paper-data="{&quot;origPos&quot;:null}"/><path fill="#7e581e" d="M53.806 32.552c.034 2.47-.826 7.822-2.501 11.012 0 0-4.114-11.717-7.5-13.573-4.142-2.27-15.06.999-18.762-1.941-.615-.487-.545-1.59-.545-1.59s-.71 1.405-1.052 1.797c-1.794 2.058-6.444 5.03-8.65 6.628-1.773 1.282-1.856 1.269-1.463 8.679 0 0-3.264-6.744-3.084-11.244.05-1.296.677-4.174 1.692-7.096 3.684-7.434 11.31-12.54 20.124-12.54 10.123 0 18.682 6.736 21.492 16 .14 1.285.224 2.575.249 3.868" data-paper-data="{&quot;origPos&quot;:null}"/><path fill="#333433" d="M63.94 24.72c0 1.053-14.226 2.45-31.778 2.45C14.608 27.17.38 25.774.38 24.72c0-1.05 14.228-1.904 31.782-1.904 17.552 0 31.778.855 31.778 1.905"/><path fill="#2c2c2d" d="M51.374 23.336c-3.273 4.075-35.197 3.705-38.88 0L16.6 1.933c5.853-2.53 25.49-2.623 31.557 0z"/><path fill="#721f2b" d="M12.985 20.78a88.65 88.65 0 0 0 38.003-.02l.383 2.57a88.575 88.575 0 0 1-38.876-.006l.49-2.544"/><path fill="#7e581e" d="M28.172 33.65s-.503 1.803-2.082 1.446c-.772-.174-.908-1.201-3.386-.74-.78.18-2.417 1.156-2.732 1.808-.316.652-.088-2.392 2.457-3.522 1.835-.675 2.457-.642 3.977-.642s1.987.907 1.766 1.65m9.74 0s.504 1.803 2.083 1.446c.772-.174.908-1.201 3.386-.74.779.18 2.417 1.156 2.732 1.808.316.652.087-2.392-2.457-3.522-1.835-.675-2.457-.642-3.977-.642s-1.987.907-1.766 1.65" data-paper-data="{&quot;origPos&quot;:null}"/><path fill="#5e4116" d="M26 41c0 1.657-.895 3-2 3s-2-1.343-2-3 .895-3 2-3 2 1.343 2 3m18 0c0 1.657-.895 3-2 3s-2-1.343-2-3 .895-3 2-3 2 1.343 2 3" data-paper-data="{&quot;origPos&quot;:null}"/><path fill="#eeac6c" d="M33.02 42.069c-1.125.153-3.02 1.834-3.02 1.834s.207-1.01.503-1.3C31.303 41.449 32.99 41 32.99 41s2.173.703 2.65 1.588c.443.824.34 1.238.34 1.238s-2.121-1.871-2.96-1.756zM26.2 46.696s6.897 3.208 13.172-.397c0 0-1.39 5.47-5.95 5.56-4.115.123-4.984-1.491-5.477-1.955-.492-.463-1.42-1.772-1.745-3.208"/></g></svg>