<svg version="1.1" xmlns="http://www.w3.org/2000/svg" xmlns:xlink="http://www.w3.org/1999/xlink" width="102.73754" height="118.43176" viewBox="0,0,102.73754,118.43176"><g transform="translate(-189.01404,-120.83919)"><g data-paper-data="{&quot;isPaintingLayer&quot;:true}" fill-rule="evenodd" stroke-miterlimit="10" stroke-dasharray="" stroke-dashoffset="0" style="mix-blend-mode: normal"><path d="M254.566,175.713c0,0 2.493,0.167 12.459,-1.713c6.153,-1.164 13.994,-6.807 13.994,-6.807l6.96,5.971c0,0 -6.402,5.75 -12.393,10.502c0,0 -13.891,11.63 -26.165,7.624c0,0 -5.227,-9.912 5.145,-15.577" fill="#ff83af" stroke="none" stroke-width="1" stroke-linecap="butt" stroke-linejoin="miter"/><path d="M281.909,167.908l-1.337,-0.603c-0.86846,-0.39458 -1.25329,-1.41795 -0.86,-2.287c0.39908,-0.86763 1.4229,-1.25145 2.294,-0.86l1.334,0.601c0.4182,0.18914 0.74409,0.53671 0.90595,0.9662c0.16186,0.42949 0.14641,0.9057 -0.04295,1.3238c-0.39908,0.86763 -1.4229,1.25145 -2.294,0.86" data-paper-data="{&quot;origPos&quot;:null}" fill="#e6c69e" stroke="none" stroke-width="1" stroke-linecap="butt" stroke-linejoin="miter"/><path d="M289.267,172.859c-2.672,1.906 -6.39,1.294 -8.301,-1.37c-0.91945,-1.2772 -1.29184,-2.86823 -1.0347,-4.42081c0.25714,-1.55258 1.12258,-2.93861 2.4047,-3.85119c2.6734,-1.90619 6.38458,-1.29391 8.304,1.37c0.91809,1.27792 1.28935,2.8689 1.0317,4.42119c-0.25765,1.55229 -1.12299,2.93801 -2.4047,3.85081" data-paper-data="{&quot;origPos&quot;:null}" fill="#e6c69e" stroke="none" stroke-width="1" stroke-linecap="butt" stroke-linejoin="miter"/><path d="M253.955,189.806c7.396,1.094 14.823,-1.962 19.823,-4.774c-0.045,0.032 -0.092,0.065 -0.137,0.099c-0.128,0.089 -0.255,0.178 -0.394,0.273c-0.02,0.012 -0.042,0.028 -0.062,0.042c-4.499,3.089 -14.584,8.842 -23.764,5.845c0,0 -2.623,-4.985 -0.452,-9.907c-0.117,1.479 0.048,2.871 0.31,4.05c0.506,2.275 2.366,4.03 4.676,4.372" fill="#f0719e" stroke="none" stroke-width="1" stroke-linecap="butt" stroke-linejoin="miter"/><path d="M258.825,203.91c0,18.798 -11.517,18.511 -25.728,18.511c-14.207,0 -25.728,0.287 -25.728,-18.51c0,-18.802 11.52,-48.934 25.728,-48.934c14.21,0 25.728,30.132 25.728,48.934" fill="#ff83af" stroke="none" stroke-width="1" stroke-linecap="butt" stroke-linejoin="miter"/><path d="M233.098,202.014c9.858,0 18.822,-0.372 25.512,-2.79c0.142,1.618 0.216,3.187 0.216,4.686c0,18.797 -11.518,18.512 -25.728,18.512c-14.209,0 -25.728,0.285 -25.728,-18.512c0.00383,-1.5644 0.07589,-3.12788 0.216,-4.686c6.689,2.418 15.654,2.79 25.512,2.79" fill="#e06a94" stroke="none" stroke-width="1" stroke-linecap="butt" stroke-linejoin="miter"/><path d="M233.098,217.818c13.362,0 24.342,-1.441 25.606,-17.238c0.07493,1.10881 0.11561,2.21968 0.122,3.331c0,18.797 -11.518,18.51 -25.728,18.51c-14.209,0 -25.728,0.287 -25.728,-18.511c0.00599,-1.11102 0.04701,-2.22157 0.123,-3.33c1.265,15.797 12.245,17.238 25.605,17.238" fill="#cc5c84" stroke="none" stroke-width="1" stroke-linecap="butt" stroke-linejoin="miter"/><path d="M233.098,220.629c13.968,0 25.33,0.262 25.71,-17.586c0.006,0.289 0.018,0.583 0.018,0.868c0,18.797 -11.518,18.51 -25.728,18.51c-14.209,0 -25.728,0.287 -25.728,-18.51c0,-0.285 0.012,-0.578 0.018,-0.868c0.382,17.847 11.742,17.587 25.71,17.587" fill="#bf4772" stroke="none" stroke-width="1" stroke-linecap="butt" stroke-linejoin="miter"/><path d="M203.882,206.218c1.12713,-0.82142 2.291,-1.59122 3.488,-2.307c0,0 12.109,-0.536 20.506,18.403c0,0 -6.221,2.821 -15.217,3.954c-6.158,0.773 -11.916,-1.291 -13.402,-7.293c-1.186,-4.794 0.623,-9.847 4.625,-12.757" fill="#cc5c84" stroke="none" stroke-width="1" stroke-linecap="butt" stroke-linejoin="miter"/><path d="M212.658,223.616c6.82,-0.858 12.439,-2.194 14.569,-3.028c0.353,0.713 0.305,0.948 0.648,1.725c0,0 -6.221,2.822 -15.217,3.955c-6.156,0.774 -11.916,-1.29 -13.401,-7.294c-0.34175,-1.3927 -0.43652,-2.83455 -0.28,-4.26c0.05869,0.54212 0.15222,1.0799 0.28,1.61c1.485,6.002 7.245,8.068 13.401,7.292" fill="#bf4772" stroke="none" stroke-width="1" stroke-linecap="butt" stroke-linejoin="miter"/><path d="M200.068,210.822c15.275,5.64 19.643,12.95 19.643,12.95c0.795,5.668 -6.646,8.594 -10.861,8.094c-3.155,-0.375 -8.732,-4.494 -9.756,-9.444c-1.601,-7.753 0.974,-11.6 0.974,-11.6" fill="#cc5c84" stroke="none" stroke-width="1" stroke-linecap="butt" stroke-linejoin="miter"/><path d="M224.421,226.594c-0.918,2.461 -2.671,5.752 -6.012,9.426c-7.116,7.82 -12.565,-0.486 -11.609,-3.922c0.956,-3.432 6.984,-4.318 10.95,-9.015c0.124,-0.147 0.246,-0.287 0.37,-0.417c2.767,-2.934 7.71,0.165 6.301,3.928" fill="#91415e" stroke="none" stroke-width="1" stroke-linecap="butt" stroke-linejoin="miter"/><path d="M262.242,206.218c4.003,2.91 5.809,7.963 4.627,12.757c-1.486,6.002 -7.245,8.066 -13.4,7.293c-8.998,-1.133 -15.223,-3.954 -15.223,-3.954c8.4,-18.939 20.51,-18.403 20.51,-18.403c1.19635,0.71579 2.35955,1.48558 3.486,2.307" fill="#cc5c84" stroke="none" stroke-width="1" stroke-linecap="butt" stroke-linejoin="miter"/><path d="M266.868,216.323c0.1293,-0.52979 0.22284,-1.06767 0.28,-1.61c0.152,1.401 0.07,2.843 -0.28,4.263c-1.485,6.002 -7.243,8.066 -13.4,7.292c-8.996,-1.132 -15.22,-3.954 -15.22,-3.954c0.344,-0.776 0.463,-1.036 0.817,-1.746c2.129,0.834 7.581,2.191 14.403,3.048c6.157,0.775 11.915,-1.291 13.4,-7.293" fill="#bf4772" stroke="none" stroke-width="1" stroke-linecap="butt" stroke-linejoin="miter"/><path d="M266.054,210.822c0,0 2.578,3.847 0.976,11.6c-1.021,4.95 -6.601,9.069 -9.755,9.444c-4.217,0.5 -12.533,-1.168 -11.738,-6.835c0,0 5.247,-8.57 20.517,-14.21" fill="#cc5c84" stroke="none" stroke-width="1" stroke-linecap="butt" stroke-linejoin="miter"/><path d="M241.702,226.594c-1.408,-3.763 3.536,-6.862 6.303,-3.928c0.122,0.13 0.246,0.27 0.37,0.417c3.966,4.697 9.994,5.583 10.949,9.015c0.957,3.436 -4.492,11.742 -11.606,3.922c-3.343,-3.674 -5.095,-6.965 -6.016,-9.426" fill="#91415e" stroke="none" stroke-width="1" stroke-linecap="butt" stroke-linejoin="miter"/><path d="M203.862,155.45c-0.3,4.078 -3.862,7.143 -7.958,6.843c-4.094,-0.3 -7.168,-3.85 -6.87,-7.93c0.303,-4.078 3.865,-7.143 7.96,-6.843c4.095,0.3 7.17,3.851 6.868,7.93" data-paper-data="{&quot;origPos&quot;:null}" fill="#e6c49c" stroke="none" stroke-width="1" stroke-linecap="butt" stroke-linejoin="miter"/><path d="M200.957,154.532c-0.183,2.48 -2.35,4.344 -4.84,4.161c-2.489,-0.183 -4.359,-2.341 -4.177,-4.821c0.18736,-2.48577 2.35421,-4.34908 4.84,-4.162c1.19375,0.08448 2.30488,0.64027 3.08844,1.54482c0.78356,0.90455 1.17519,2.08359 1.08856,3.27718" data-paper-data="{&quot;origPos&quot;:null}" fill="#cfa87e" stroke="none" stroke-width="1" stroke-linecap="butt" stroke-linejoin="miter"/><path d="M277.75,160.85799c-0.3,4.079 -3.863,7.144 -7.958,6.844c-4.095,-0.3 -7.17,-3.85 -6.868,-7.93c0.301,-4.078 3.864,-7.143 7.959,-6.843c4.093,0.3 7.167,3.85 6.866,7.93" data-paper-data="{&quot;origPos&quot;:null}" fill="#e6c69e" stroke="none" stroke-width="1" stroke-linecap="butt" stroke-linejoin="miter"/><path d="M274.846,159.94c-0.183,2.48 -2.351,4.345 -4.842,4.162c-1.19309,-0.08577 -2.30323,-0.64199 -3.08621,-1.5463c-0.78297,-0.90431 -1.17462,-2.08262 -1.08879,-3.2757c0.18842,-2.48468 2.35414,-4.34695 4.839,-4.161c1.19344,0.08502 2.30419,0.64077 3.08777,1.54494c0.78358,0.90417 1.17576,2.08265 1.09023,3.27606" data-paper-data="{&quot;origPos&quot;:null}" fill="#cfa87e" stroke="none" stroke-width="1" stroke-linecap="butt" stroke-linejoin="miter"/><path d="M265.237,135.723c1.329,1.925 -0.71,5.628 -4.56,8.269c-3.846,2.642 -8.046,3.224 -9.376,1.299c-0.646,-0.932 -0.496,-2.282 0.264,-3.724c-0.016,-0.055 -0.03,-0.113 -0.042,-0.17c-1.309,1.044 -2.665,1.494 -3.872,1.124c-1.191,-0.367 -2.05,-1.47 -2.545,-3.03c-0.3393,0.21239 -0.72723,0.33458 -1.127,0.355c-0.474,0.017 -0.935,-0.128 -1.372,-0.398c-0.404,0.818 -0.977,1.383 -1.7,1.586c-2.257,0.632 -5.115,-2.489 -6.38,-6.971c-1.265,-4.483 -0.461,-8.629 1.799,-9.261c1.189,-0.334 2.543,0.381 3.746,1.78c0.695,-2.125 1.89,-3.537 3.3,-3.586c1.455,-0.053 2.788,1.353 3.635,3.54c2.038,-3.925 4.959,-6.291 7.313,-5.567c2.384,0.733 3.458,4.411 2.875,8.879c1.709,-1.23 3.401,-1.645 4.541,-0.92c1.349,0.858 1.575,3.088 0.783,5.665c1.218,0.009 2.191,0.372 2.717,1.13" fill="#e4c626" stroke="none" stroke-width="1" stroke-linecap="butt" stroke-linejoin="miter"/><path d="M237.557,127.8c11.219,0.82 20.981,5.353 27.315,11.834c-0.829,1.483 -2.288,3.051 -4.195,4.359c-3.847,2.641 -8.047,3.223 -9.377,1.298c-0.645,-0.932 -0.495,-2.281 0.265,-3.725c-0.015,-0.053 -0.029,-0.113 -0.042,-0.17c-1.312,1.045 -2.665,1.495 -3.872,1.125c-1.191,-0.367 -2.049,-1.47 -2.545,-3.03c-0.33959,0.21255 -0.72789,0.33475 -1.128,0.355c-0.473,0.017 -0.933,-0.128 -1.37,-0.398c-0.405,0.818 -0.978,1.383 -1.7,1.586c-2.258,0.632 -5.116,-2.49 -6.38,-6.97c-0.674,-2.387 -0.756,-4.674 -0.35,-6.39c1.12744,0.00278 2.25444,0.04447 3.379,0.125" fill="#c7ad21" stroke="none" stroke-width="1" stroke-linecap="butt" stroke-linejoin="miter"/><path d="M270.338,159.61c-1.143,15.476 -18.607,26.808 -39.01,25.314c-20.406,-1.495 -36.02,-15.249 -34.878,-30.723c1.14,-15.473 18.607,-26.807 39.01,-25.313c20.402,1.492 36.016,15.249 34.877,30.722" data-paper-data="{&quot;origPos&quot;:null}" fill="#e6c69e" stroke="none" stroke-width="1" stroke-linecap="butt" stroke-linejoin="miter"/><path d="M238.754,179.618c-0.122,1.666 -2.747,2.834 -5.863,2.605c-3.117,-0.228 -5.545,-1.763 -5.421,-3.43c0.122,-1.667 2.748,-2.833 5.866,-2.604c3.116,0.228 5.542,1.763 5.418,3.43M242.313,134.433c0.16,1.983 -5.826,4.08 -13.37,4.685c-7.547,0.606 -13.791,-0.51 -13.952,-2.492c-0.159,-1.982 5.826,-4.08 13.37,-4.685c7.545,-0.606 13.791,0.51 13.952,2.492" data-paper-data="{&quot;origPos&quot;:null}" fill="#ffead3" stroke="none" stroke-width="1" stroke-linecap="butt" stroke-linejoin="miter"/><path d="M218.659,167.72099c-3.073,-6.256 2.521,-9.217 6.331,-6.72c3.806,2.495 6.862,3.695 8.814,3.837c1.947,0.143 5.144,-0.599 9.28,-2.513c4.133,-1.914 9.232,1.828 5.276,7.569c-3.956,5.742 -15.288,4.824 -15.288,4.824c0,0 -11.343,-0.744 -14.413,-6.998" fill="#bf4545" stroke="none" stroke-width="1" stroke-linecap="butt" stroke-linejoin="miter"/><path d="M244.576,164.922c0.029,1.328 -3.494,1.654 -4.261,0.542c-0.288,-0.414 -0.311,-1.14 -0.234,-1.891c1.01716,-0.37479 2.01866,-0.7908 3.002,-1.247c0.2,-0.094 0.405,-0.17 0.61,-0.236c0.425,0.972 0.869,2.145 0.883,2.832" fill="#ffffff" stroke="none" stroke-width="1" stroke-linecap="butt" stroke-linejoin="miter"/><path d="M233.397,170.33c0,0 5.923,0.39 10.368,2.965c-4.774,1.9 -10.693,1.423 -10.693,1.423c0,0 -5.923,-0.389 -10.367,-2.965c4.775,-1.901 10.692,-1.423 10.692,-1.423" fill="#ff5c5c" stroke="none" stroke-width="1" stroke-linecap="butt" stroke-linejoin="miter"/><path d="M234.089,159.759c-5.068,-0.37 -3.585,-3.237 -3.585,-3.237c0,0 -0.29,1.943 3.66,2.233c3.947,0.287 3.95,-1.675 3.95,-1.675c0,0 1.045,3.05 -4.025,2.68" fill="#e3ac94" stroke="none" stroke-width="1" stroke-linecap="butt" stroke-linejoin="miter"/><path d="M204.36,154.603c2.951,0.217 5.202,2.313 5.027,4.685c-0.174,2.369 -2.71,4.117 -5.66,3.901c-2.951,-0.217 -5.202,-2.314 -5.027,-4.684c0.175,-2.371 2.708,-4.117 5.66,-3.902M262.416,158.854c2.951,0.215 5.2,2.312 5.025,4.683c-0.172,2.371 -2.707,4.118 -5.66,3.901c-2.949,-0.217 -5.2,-2.313 -5.027,-4.683c0.174,-2.372 2.708,-4.118 5.662,-3.901" fill="#ffa6a6" stroke="none" stroke-width="1" stroke-linecap="butt" stroke-linejoin="miter"/><path d="M224.727,153.857c-0.008,0.02 -0.012,0.039 -0.018,0.056c-0.142,0.432 -0.511,0.758 -0.959,0.85c-12.92,2.694 -17.515,-1.891 -17.515,-1.891c-0.857,-2.062 0.202,-4.53 0.202,-4.53c0,0 1.389,-3.502 5.76,-4.754c1.936,-0.553 3.729,-0.673 5.326,-0.543c5.307,0.429 8.832,5.762 7.204,10.812" data-paper-data="{&quot;origPos&quot;:null}" fill="#ffead3" stroke="none" stroke-width="1" stroke-linecap="butt" stroke-linejoin="miter"/><path d="M220.433,151.178c-0.077,3.362 -2.245,6.04 -4.84,5.98c-2.596,-0.06 -4.638,-2.835 -4.56,-6.197c0.078,-3.361 2.246,-6.038 4.84,-5.978c2.598,0.06 4.639,2.834 4.56,6.195" fill="#74b4c4" stroke="none" stroke-width="1" stroke-linecap="butt" stroke-linejoin="miter"/><path d="M218.828,151.142c-0.052,2.212 -1.48,3.974 -3.187,3.936c-1.71,-0.04 -3.053,-1.867 -3.002,-4.079c0.051,-2.214 1.478,-3.975 3.187,-3.935c1.708,0.038 3.052,1.864 3.002,4.078" fill="#426770" stroke="none" stroke-width="1" stroke-linecap="butt" stroke-linejoin="miter"/><path d="M216.063,149.267c-0.286,1.483 -1.448,2.509 -2.594,2.289c-1.146,-0.22 -1.841,-1.602 -1.554,-3.085c0.287,-1.483 1.449,-2.507 2.594,-2.287c1.146,0.22 1.84,1.601 1.554,3.084" fill="#ffffff" stroke="none" stroke-width="1" stroke-linecap="butt" stroke-linejoin="miter"/><path d="M218.733,153.538c-0.196,1.023 -0.997,1.73 -1.788,1.577c-0.789,-0.151 -1.27,-1.103 -1.072,-2.126c0.198,-1.023 1,-1.73 1.789,-1.579c0.792,0.15 1.27,1.105 1.071,2.128" fill="#ffffff" stroke="none" stroke-width="1" stroke-linecap="butt" stroke-linejoin="miter"/><path d="M241.96,153.86999c-1.153,-5.194 2.878,-10.174 8.213,-10.097c1.595,0.022 3.359,0.308 5.224,1.032c4.234,1.654 5.289,5.27 5.289,5.27c0,0 0.824,2.553 -0.223,4.529c0,0 -5.001,4.138 -17.617,0.26c-0.43727,-0.13462 -0.77009,-0.49143 -0.874,-0.937c-0.004,-0.02 -0.009,-0.037 -0.012,-0.057" data-paper-data="{&quot;origPos&quot;:null}" fill="#ffead3" stroke="none" stroke-width="1" stroke-linecap="butt" stroke-linejoin="miter"/><path d="M246.485,151.6c0.235,-3.354 2.525,-5.927 5.117,-5.744c2.591,0.18 4.498,3.046 4.263,6.4c-0.236,3.355 -2.528,5.928 -5.12,5.748c-2.588,-0.184 -4.497,-3.048 -4.26,-6.404" fill="#74b4c4" stroke="none" stroke-width="1" stroke-linecap="butt" stroke-linejoin="miter"/><path d="M248.088,151.713c0.155,-2.209 1.663,-3.901 3.37,-3.783c1.702,0.12 2.96,2.006 2.802,4.214c-0.154,2.209 -1.663,3.903 -3.368,3.783c-1.703,-0.119 -2.96,-2.006 -2.804,-4.214" fill="#426770" stroke="none" stroke-width="1" stroke-linecap="butt" stroke-linejoin="miter"/><path d="M247.696,149.836c0.225,-1.496 1.344,-2.566 2.495,-2.396c1.152,0.173 1.907,1.524 1.684,3.017c-0.224,1.496 -1.342,2.567 -2.496,2.394c-1.153,-0.171 -1.907,-1.521 -1.683,-3.015" fill="#ffffff" stroke="none" stroke-width="1" stroke-linecap="butt" stroke-linejoin="miter"/><path d="M251.855,153.33999c0.198,-1.025 0.999,-1.731 1.788,-1.579c0.791,0.152 1.271,1.105 1.072,2.128c-0.196,1.023 -0.998,1.729 -1.788,1.578c-0.788,-0.152 -1.27,-1.104 -1.072,-2.127" fill="#ffffff" stroke="none" stroke-width="1" stroke-linecap="butt" stroke-linejoin="miter"/><path d="M227.876,186.758c0,0 4.192,19.058 -7.981,17.74c-12.173,-1.32 -11.858,-13.585 -0.278,-20.222l8.26,2.482z" fill="#c08041" stroke="none" stroke-width="1" stroke-linecap="butt" stroke-linejoin="miter"/><path d="M217.07,185.997c0.78643,1.67504 2.20353,2.97099 3.942,3.605c2.45248,0.89874 5.20088,0.36769 7.142,-1.38c-0.08036,-0.49059 -0.17305,-0.97908 -0.278,-1.465l-8.26,-2.481c-0.8897,0.51049 -1.74066,1.08571 -2.546,1.721M221.813,200.816c1.094,0.292 2.04,0.883 2.858,1.633c0.329,2.793 -0.54,7.163 -2.664,10.547c-0.33513,0.52237 -0.92531,0.82414 -1.545,0.79c-0.96,-0.054 -2.394,-0.469 -3.621,-2.2c-0.32057,-0.45407 -0.40666,-1.03332 -0.232,-1.561c0.463,-1.399 1.918,-5.468 1.621,-8.853c1.066,-0.506 2.265,-0.709 3.583,-0.356" fill="#ab713a" stroke="none" stroke-width="1" stroke-linecap="butt" stroke-linejoin="miter"/><path d="M219.643,210.742c1.172,0.62 1.894,1.546 1.616,2.065c-0.277,0.52 -1.45,0.437 -2.619,-0.185c-1.171,-0.62 -1.895,-1.545 -1.618,-2.065c0.277,-0.52 1.451,-0.435 2.621,0.185" fill="#85592d" stroke="none" stroke-width="1" stroke-linecap="butt" stroke-linejoin="miter"/><path d="M212.496,197.928c1.193,0.657 1.918,1.634 2.331,2.732c-2.568,2.234 -4.15,5.114 -4.788,6.44c-0.24263,0.5013 -0.70798,0.85838 -1.255,0.963c-2.089,0.397 -3.41,-0.295 -4.138,-0.918c-0.47185,-0.4033 -0.6881,-1.03061 -0.565,-1.639c0.829,-3.906 3.037,-6.596 5.22,-8.378c1.109,0.023 2.202,0.255 3.195,0.8" fill="#ab713a" stroke="none" stroke-width="1" stroke-linecap="butt" stroke-linejoin="miter"/><path d="M207.354,205.518c1.275,0.36 2.179,1.114 2.015,1.68c-0.16,0.566 -1.327,0.73 -2.6,0.368c-1.277,-0.362 -2.18,-1.114 -2.017,-1.679c0.16,-0.566 1.328,-0.73 2.602,-0.369" fill="#85592d" stroke="none" stroke-width="1" stroke-linecap="butt" stroke-linejoin="miter"/><path d="M215.371,186.852c4.878,3.911 12.908,8.208 12.908,8.208l0.023,8.445c0,0 -3.632,-0.285 -14.668,-3.457c0,0 -4.319,-1.15 -8.5,-3.873c-7.585,-4.944 -6.397,-18.329 2.847,-19.61c1.46361,1.09385 3.00241,2.08329 4.605,2.961c-0.397,1.971 -0.263,4.882 2.785,7.326" fill="#ff83af" stroke="none" stroke-width="1" stroke-linecap="butt" stroke-linejoin="miter"/><path d="M267.025,173.999c0.048,-0.009 0.097,-0.022 0.145,-0.032c-6.476,9.38 -19.925,15.269 -34.984,14.168c-10.711,-0.785 -20.098,-4.95 -26.438,-10.967c0.684,-0.283 1.427,-0.494 2.234,-0.604c6.129,4.595 14.262,7.695 23.344,8.361c12.806,0.937 24.452,-3.18 31.632,-10.198c1.35805,-0.22879 2.71379,-0.47114 4.067,-0.727M214.921,198.577c7.438,2.139 11.51,2.965 13.377,3.275l0.005,1.653c0,0 -3.634,-0.285 -14.668,-3.457c0,0 -4.319,-1.149 -8.5,-3.874c-6.024,-3.925 -6.51,-13.166 -1.827,-17.451c-3.24,4.662 -2.29,12.459 3.11,15.98c4.181,2.726 8.503,3.874 8.503,3.874" fill="#f0719e" stroke="none" stroke-width="1" stroke-linecap="butt" stroke-linejoin="miter"/><path d="M229.068,195.548l-0.417,-1.4c-0.26847,-0.91668 0.25587,-1.87767 1.172,-2.148c0.91752,-0.2692 1.88034,0.2524 2.156,1.168l0.415,1.399c0.2709,0.91845 -0.25405,1.8826 -1.1725,2.1535c-0.91845,0.2709 -1.8826,-0.25405 -2.1535,-1.1725" data-paper-data="{&quot;origPos&quot;:null}" fill="#e6c69e" stroke="none" stroke-width="1" stroke-linecap="butt" stroke-linejoin="miter"/><path d="M230.124,204.331c-3.194,-0.764 -5.163,-3.967 -4.394,-7.149c0.769,-3.186 3.982,-5.146 7.177,-4.378c3.196,0.764 5.163,3.966 4.394,7.147c-0.769,3.186 -3.98,5.146 -7.177,4.38" data-paper-data="{&quot;origPos&quot;:null}" fill="#e6c69e" stroke="none" stroke-width="1" stroke-linecap="butt" stroke-linejoin="miter"/><path d="M227.63,187.096c0,0 4.344,5.364 1.808,11.634c-0.1812,0.43491 -0.58306,0.73812 -1.051,0.793c-0.726,0.088 -1.856,-0.033 -3.005,-1.166c-0.30157,-0.29755 -0.44374,-0.72073 -0.383,-1.14c0.198,-1.357 0.499,-4.79 -0.892,-7.77c0,0 0.037,-3.824 3.523,-2.351" fill="#ab713a" stroke="none" stroke-width="1" stroke-linecap="butt" stroke-linejoin="miter"/><path d="M227.366,197.353c0.959,0.311 1.625,0.909 1.487,1.331c-0.137,0.427 -1.03,0.52 -1.987,0.21c-0.96,-0.309 -1.624,-0.906 -1.487,-1.332c0.139,-0.425 1.028,-0.519 1.987,-0.209" fill="#85592d" stroke="none" stroke-width="1" stroke-linecap="butt" stroke-linejoin="miter"/><path d="M218.608,184.276c2.348,2.957 -1.342,4.007 -1.342,4.007c-3.251,-0.541 -6.494,0.654 -7.756,1.207c-0.39,0.167 -0.836,0.144 -1.206,-0.067c-1.4,-0.803 -1.817,-1.857 -1.925,-2.577c-0.07125,-0.46602 0.1174,-0.93378 0.492,-1.22c5.391,-4.1 11.737,-1.35 11.737,-1.35" fill="#ab713a" stroke="none" stroke-width="1" stroke-linecap="butt" stroke-linejoin="miter"/><path d="M208.75,187.249c0.555,0.84 0.7,1.72 0.324,1.965c-0.375,0.246 -1.127,-0.234 -1.681,-1.073c-0.556,-0.84 -0.701,-1.72 -0.326,-1.964c0.375,-0.245 1.127,0.232 1.683,1.072" fill="#85592d" stroke="none" stroke-width="1" stroke-linecap="butt" stroke-linejoin="miter"/><path d="M229.616,179.23c0.11258,-1.58676 1.4891,-2.78248 3.076,-2.672c0.76238,0.05004 1.47355,0.40128 1.97668,0.97625c0.50313,0.57498 0.75689,1.32646 0.70532,2.08875c-0.11153,1.58645 -1.48747,2.78246 -3.074,2.672c-1.58707,-0.10532 -2.78852,-1.47687 -2.684,-3.064" fill="#ab713a" stroke="none" stroke-width="1" stroke-linecap="butt" stroke-linejoin="miter"/><path d="M230.748,179.58c0.03204,-0.46335 0.24686,-0.89499 0.59719,-1.19993c0.35033,-0.30494 0.80746,-0.45821 1.27081,-0.42607c0.46378,0.03029 0.89646,0.24382 1.20262,0.5935c0.30616,0.34968 0.46064,0.80679 0.42938,1.2705c-0.06777,0.96561 -0.90537,1.69353 -1.871,1.626c-0.46344,-0.03028 -0.89577,-0.24374 -1.20158,-0.59326c-0.30581,-0.34953 -0.45996,-0.80638 -0.42842,-1.26974" fill="#85592d" stroke="none" stroke-width="1" stroke-linecap="butt" stroke-linejoin="miter"/><path d="M217.483,175.06c0.05354,-0.7619 0.40764,-1.47129 0.98435,-1.97205c0.57671,-0.50076 1.32877,-0.75183 2.09065,-0.69795c1.58637,0.1048 2.78751,1.47561 2.683,3.062c-0.11208,1.58687 -1.48793,2.78331 -3.075,2.674c-0.76245,-0.05056 -1.47355,-0.40205 -1.97676,-0.97709c-0.50321,-0.57504 -0.75726,-1.32649 -0.70624,-2.08891" fill="#ab713a" stroke="none" stroke-width="1" stroke-linecap="butt" stroke-linejoin="miter"/><path d="M218.611,175.411c0.06829,-0.96576 0.90618,-1.69355 1.872,-1.626c0.46397,0.03028 0.89681,0.24395 1.203,0.59385c0.30619,0.3499 0.46054,0.80727 0.429,1.27115c-0.06831,0.96493 -0.90494,1.69239 -1.87,1.626c-0.96578,-0.06469 -1.69683,-0.8991 -1.634,-1.865" fill="#85592d" stroke="none" stroke-width="1" stroke-linecap="butt" stroke-linejoin="miter"/><path d="M231.065,183.966c-1.342,3.636 -5.386,5.502 -9.034,4.165c-3.648,-1.337 -5.519,-5.366 -4.177,-9.002c1.34,-3.635 5.384,-5.498 9.031,-4.163c3.65,1.337 5.52,5.366 4.18,9" fill="#c08041" stroke="none" stroke-width="1" stroke-linecap="butt" stroke-linejoin="miter"/><path d="M223.715,182.617c-0.138,0.375 -0.871,0.452 -1.637,0.17c-0.764,-0.28 -1.274,-0.81 -1.135,-1.185c0.138,-0.374 0.871,-0.451 1.637,-0.173c0.764,0.279 1.272,0.811 1.135,1.188" fill="#4a3119" stroke="none" stroke-width="1" stroke-linecap="butt" stroke-linejoin="miter"/><path d="M222.62,182.01c-0.048,0.13 -0.373,0.13 -0.725,0c-0.355,-0.13 -0.602,-0.338 -0.554,-0.47c0.046,-0.127 0.374,-0.127 0.726,0c0.352,0.132 0.6,0.34 0.552,0.47" fill="#ffffff" stroke="none" stroke-width="1" stroke-linecap="butt" stroke-linejoin="miter"/><path d="M219.392,178.726c0.27369,-0.74037 1.09488,-1.11966 1.836,-0.848c0.35551,0.12976 0.64479,0.39561 0.80406,0.73891c0.15927,0.3433 0.17544,0.73586 0.04494,1.09109M225.475,180.952c0.3354,-0.90402 1.33887,-1.3664 2.244,-1.034c0.43471,0.15752 0.78868,0.48185 0.98351,0.90117c0.19483,0.41932 0.21444,0.89901 0.05449,1.33283M222.029,182.53c-0.536,1.452 -2.647,1.526 -3.186,0.077c-0.07929,-0.21713 -0.12972,-0.44374 -0.15,-0.674M222.029,182.53c-0.536,1.452 1.024,2.87 2.38,2.112c0.182,-0.1 0.365,-0.237 0.55,-0.414" fill="none" stroke="#4a3119" stroke-width="0.55" stroke-linecap="round" stroke-linejoin="round"/></g></g></svg>