<svg xmlns="http://www.w3.org/2000/svg" width="73.247" height="116.429"><g fill-rule="evenodd" stroke-miterlimit="10" data-paper-data="{&quot;isPaintingLayer&quot;:true}" style="mix-blend-mode:normal"><path fill="#75594c" d="m26.306 110.509-.512-19.213s4.326-4.75 6.31-5.3c1.43-.397 5.855.912 5.855.912l-1.96 23.6h-.008c1.815 1.125 3.135 3.416 1.58 5.282-1.175 1.314-2.907.277-4.22-.276-1.453-.692-3.114-1.178-4.427-2.079-.85-.59-1.85-1.238-2.422-2.123-.176-.274-.26-.55-.197-.804m-11.006.001h-.007l-1.958-23.601s4.365-1.327 5.775-.943c2.008.55 6.392 5.331 6.392 5.331l-.514 19.213h-.003c.065.264-.019.53-.197.804-.576.885-1.572 1.532-2.419 2.123-1.316.9-2.979 1.387-4.43 2.08-1.313.552-3.042 1.59-4.219.276-1.555-1.867-.235-4.162 1.58-5.283M2.08 77.672c.108-.999.442-1.89.918-2.58-.005.04-.005.062-.005.062s1.417-14.207 5.113-18.93c1.693-2.162 7.54-5.3 8.224-5.664 1.29-.934 4.203-1.354 6.013-1.525-.304-.667-.486-1.393-.486-1.92h7.648c0 .527-.178 1.24-.48 1.903 1.778.173 4.37.758 6.06 1.525.748.34 2.318.834 3.092 1.108 2.33.812 8.6 3.084 8.6 3.084l5.543-6.51a4.42 4.42 0 0 1-.208-.84c-.354-.648-.647-1.455-.823-2.36-.459-2.365.051-4.45 1.144-4.665.585-.111 1.215.335 1.747 1.136 1.178-1.13 2.63-1.6 3.84-1.088 1.858.786 2.445 3.585 1.32 6.248-.729 1.71-1.985 2.949-3.283 3.411h.004s-3.456 9.815-6.47 10.908c-2.438.883-11.337-2.692-11.337-2.692v-.013c1.674 10.2-.077 25.772-.077 25.772H13.117s-1.5-14.134-.158-24.297v.006c-.197.54-1.282 1.498-2.139 2.71-1.714 2.427-3.32 12.69-3.32 12.69.037.068.076.141.11.214.435.424.86.996 1.213 1.663.934 1.757 1.03 3.527.22 3.958-.434.229-1.04.03-1.65-.476-.659 1.174-1.694 1.896-2.772 1.78-1.654-.175-2.792-2.24-2.542-4.617" data-paper-data="{&quot;origPos&quot;:null}"/><path fill="#eeac6c" d="M22.675 49.643a5.533 5.533 0 0 1-.807-2.229c1.215.2 2.46.3 3.728.3 1.327 0 2.627-.113 3.894-.33l-.015.015-6.8 2.244"/><path fill="#f7b90b" d="M50.8 36.914c0-6.202 5.027-11.223 11.222-11.223 6.202 0 11.225 5.021 11.225 11.223 0 6.197-5.023 11.222-11.225 11.222-6.195 0-11.222-5.025-11.222-11.222"/><path fill="#727371" d="M54.035 44.796c.253-.01.502-.017.761-.017 4.346 0 8.282 1.286 8.694 1.425.07-.313.57-2.597.803-5.627H51.415c-.01-.021-.015-.045-.024-.066h12.91c.121-1.605.168-3.412.044-5.23H50.92a.714.714 0 0 1 .01-.067h13.41a23.59 23.59 0 0 0-.505-3.483c-.097-.37-.202-.73-.326-1.086H52.713c.015-.021.028-.045.045-.066h1.657c.214-.268 1.36-1.67 2.948-3.093.515-.46 1.108-.95 1.755-1.416l.191-.05c-2.462 1.732-4.425 4.083-4.809 4.559h4.218c.261-.21 1.665-1.308 3.728-2.289 1.187-.568 2.732-1.161 4.48-1.479l.1.054c-1.779.309-3.35.909-4.552 1.483a20.408 20.408 0 0 0-3.654 2.23h4.708c.13-.036 2.951-.848 6.041-.848.384 0 .752.01 1.11.036l.058.071a17.138 17.138 0 0 0-1.168-.043c-.724 0-1.434.045-2.096.116v16.815l-.066.039V29.916c-1.28.137-2.547.374-3.79.708.104.362.198.73.286 1.101.79 3.058.714 6.56.493 9.088a43.005 43.005 0 0 1-.823 5.402c.215.069 1.62.495 3.485.73-.035.02-.069.037-.108.054a21.285 21.285 0 0 1-3.407-.724s-2.243-.812-5.293-1.183c.305.24 2.214 1.37 4.224 2.317.414.192.874.39 1.371.578-.045.009-.087.015-.128.022-.43-.165-.853-.346-1.27-.543-2.283-1.07-4.293-2.387-4.293-2.387-1.19-.182-1.989-.233-3.358-.233l-.32.002c.144.186.485.615.974 1.161a21.57 21.57 0 0 1-.268-.199c-.386-.446-.656-.79-.789-.958-.098 0-.195.004-.293.007a1.857 1.857 0 0 0-.065-.063M71.051 30.24v13.346c-.024.028-.045.06-.069.088V30.15l.07.09"/><path fill="#75594c" d="M51.22 44.901c-.34-2.267.237-4.228 1.282-4.385 1.048-.156 2.17 1.554 2.51 3.817.338 2.27-.236 4.232-1.283 4.386-1.049.157-2.172-1.549-2.51-3.818" data-paper-data="{&quot;origPos&quot;:null}"/><path fill="#82a74d" d="M38.441 59.545c1.558 6.66-.045 26.79-.482 27.365-4.974-.075-12.165 4.386-12.165 4.386H25.5s-6.983-4.59-12.167-4.386c-.435-.575-1.862-19.65-.51-26.015 0 0 6.444-3.872 7.196-11.558.79-.197 1.547-.22 1.547-.22s.302 5.892 4.224 5.892c4.056 0 4.153-5.88 4.153-5.88s.95.096 1.7.328c.382 7.714 6.8 10.088 6.8 10.088"/><path fill="#f6b90c" d="M18.297 81.857c7.078 0 12.165 4.446 13.963 6.281-.812.302-1.596.636-2.322.973-1.18-1.44-5.115-5.69-11.64-7.254m4.304-1.657c7.785 0 13.162 5.383 14.4 6.745-.93.093-1.848.27-2.745.532-1.155-1.419-5.095-5.7-11.655-7.277m4.746-30.03c1.266.255-.596-1.112-.724-1.3l.06.505c.017-.077.188.699.665.795m-3.054.041c.22-.285.158-1.202.158-1.202-.078-.018-.618.204-.758.502-.4.743-.052 1.474.6.7m4.424-.36c.575.572.656 1.444-.55 1.554-.922.028-1.897-1.41-2.542-2.18-.47-.565-.516-.107-.516-.107.302 1.267.06 3.133-1.693 2.563-.915-.353-1.61-1.397-.958-2.173.283-.396.947-.586 1.457-.826.348-.166.96-.5 1.093-.86.084-.217.022-.459.112-.675-.266-.975.372-.221.775.853.296.792 1.5.531 2.823 1.851"/><path fill="#75594c" d="M3.143 28.367a23.22 23.22 0 0 1-.26-3.476c0-12.77 10.35-23.12 23.12-23.12 12.771 0 23.121 10.351 23.121 23.12 0 1.125-.08 2.235-.236 3.317 1.333.73 2.235 2.11 2.235 3.69 0 2.346-1.978 4.25-4.416 4.25-.163 0-.326-.01-.487-.026-3.949 7.092-11.522 11.89-20.217 11.89-8.685 0-16.252-4.789-20.203-11.869-.07.002-.14.004-.208.004-2.44 0-4.417-1.903-4.417-4.249 0-1.472.78-2.77 1.968-3.53" data-paper-data="{&quot;origPos&quot;:null}"/><path fill="#353334" d="M21.31 23.188s-.503 1.803-2.082 1.446c-.772-.174-.908-1.201-3.386-.74-.779.18-2.417 1.156-2.732 1.808-.316.652-.088-2.392 2.457-3.522 1.835-.675 2.457-.642 3.977-.642s1.987.907 1.766 1.65m9.741 0s.503 1.803 2.082 1.446c.772-.174.908-1.201 3.386-.74.78.18 2.417 1.156 2.732 1.808.316.652.087-2.392-2.457-3.522-1.835-.675-2.457-.642-3.977-.642s-1.987.907-1.766 1.65M19 30.538c0 1.657-.896 3-2 3-1.106 0-2-1.343-2-3s.894-3 2-3c1.104 0 2 1.343 2 3m18 0c0 1.657-.896 3-2 3-1.106 0-2-1.343-2-3s.894-3 2-3c1.104 0 2 1.343 2 3" data-paper-data="{&quot;origPos&quot;:null}"/><path fill="#eeac6c" d="M26.02 33.607c-1.126.153-3.02 1.834-3.02 1.834s.206-1.009.502-1.299c.8-1.156 2.487-1.604 2.487-1.604s2.173.703 2.65 1.588c.443.824.34 1.238.34 1.238s-2.12-1.871-2.96-1.756z"/><path fill="#bb5050" d="M19.2 37.234s6.896 3.208 13.171-.397c0 0-1.39 5.47-5.95 5.561-4.115.122-4.984-1.492-5.477-1.956-.492-.463-1.42-1.772-1.745-3.208" data-paper-data="{&quot;origPos&quot;:null}"/><path fill="#353334" d="M49.942 21.8c.173 2.698-1.167 6.46-1.167 6.46s-6.11-7.23-9.836-9.26c-4.554-2.477-6.825 1.172-10.894-2.042-.675-.532-1.933-1.942-1.933-1.942s-1.532 1.545-1.937 1.942c-4.578 4.48-8.008-.746-11.863 1.956-4.905 3.448-9.047 9.182-9.047 9.182s-1.425-1.631-1.228-6.551c.058-1.414.743-4.557 1.863-7.75C7.947 5.671 16.336.087 26.03.087c11.132 0 23.057 8.411 23.912 21.714" data-paper-data="{&quot;origPos&quot;:null}"/><path fill="#82a74d" d="M3.025 28.376c-.602-2.561-1.103-5.107-1.009-6.645C2.893 7.736 14.926 0 26.056 0c9.695 0 18.084 5.58 22.132 13.703 1.12 3.198 1.807 6.339 1.862 7.755.082 2.013-.467 4.434-1.15 6.594 1.29.733 2.153 2.087 2.153 3.634 0 2.332-1.967 4.224-4.393 4.224-.163 0-.325-.009-.484-.026a23.092 23.092 0 0 1-4.174 5.41c1.888-19.49-3.377-24.633-15.94-24.633-11.752 0-16.818 5.766-15.93 24.739C8.1 39.44 7.09 38.07 5.96 35.906c-.067.004-.135.004-.206.004-2.426 0-4.393-1.892-4.393-4.224 0-1.341.652-2.537 1.665-3.31"/><path fill="#768d4b" d="M45.004 29.516c1.476-4.41 3.87-7.584 5.346-7.09 1.481.496 3.002 5.198 1.528 9.61-1.474 4.408-5.394 6.853-6.872 6.36-1.474-.497-1.474-4.47-.002-8.88"/><path fill="#667c3e" d="M48.14 24.45c.221-.72.828-1.17 1.351-1.009.523.162.764.876.544 1.596-.225.717-.829 1.167-1.352 1.007-.524-.163-.767-.876-.544-1.594m-2.65 6.025c.222-.718.83-1.168 1.352-1.008.523.164.765.877.547 1.594-.225.72-.832 1.17-1.352 1.01-.525-.165-.77-.877-.547-1.597m-.703 5.479c-.062-.752.328-1.397.876-1.442.547-.047 1.042.525 1.102 1.273.064.75-.328 1.392-.872 1.442-.549.045-1.044-.525-1.106-1.273"/><path fill="#768d4b" d="M7.474 29.516c1.477 4.41 1.472 8.383-.004 8.88-1.476.493-5.396-1.952-6.868-6.36-1.476-4.412.045-9.114 1.524-9.61 1.476-.494 3.872 2.68 5.348 7.09"/><path fill="#667c3e" d="M4.34 24.45c.222.718-.02 1.431-.547 1.594-.52.16-1.13-.29-1.35-1.007-.225-.72.022-1.434.544-1.596.525-.161 1.13.289 1.353 1.009m2.65 6.024c.222.72-.023 1.432-.548 1.597-.523.16-1.129-.29-1.35-1.01-.225-.717.02-1.43.545-1.594.522-.16 1.13.29 1.352 1.008m.703 5.478c-.062.748-.56 1.318-1.106 1.273-.544-.05-.936-.692-.874-1.442.062-.748.557-1.32 1.106-1.273.544.045.936.69.874 1.442"/><path fill="#f6b90c" d="M26.057 14.633c9.694 0 19.041 0 16.971 25.614-.184.23-.505.58-1.026 1.048 1.888-19.492-3.377-24.635-15.94-24.635-11.752 0-16.818 5.767-15.93 24.74-.423-.382-.599-.519-.91-.911-2.52-24.11 5.703-25.856 16.835-25.856"/></g></svg>