<svg version="1.1" xmlns="http://www.w3.org/2000/svg" xmlns:xlink="http://www.w3.org/1999/xlink" width="57.07972" height="110.71228" viewBox="0,0,57.07972,110.71228"><g transform="translate(-212.68027,-124.426)"><g data-paper-data="{&quot;isPaintingLayer&quot;:true}" fill-rule="evenodd" stroke="none" stroke-width="1" stroke-linecap="butt" stroke-linejoin="miter" stroke-miterlimit="10" stroke-dasharray="" stroke-dashoffset="0" style="mix-blend-mode: normal"><path d="M242.913,128.197l0.365,73.185c-5.491,4.146 -26.528,-7.515 -26.528,-7.515l3.005,-63.856z" fill="#1d1d1d"/><path d="M266.755,130.011l3.005,63.856c0,0 -21.037,11.661 -26.53,7.515l0.367,-73.185zM252.313,229.763c1.636,1.004 2.825,3.122 1.422,4.794c-1.057,1.177 -2.613,0.284 -3.798,-0.216c-1.309,-0.619 -2.803,-1.036 -3.985,-1.838c-0.765,-0.535 -1.666,-1.17 -2.179,-1.964c-0.16,-0.244 -0.238,-0.542 -0.18,-0.776zM233.683,229.763c-1.637,1.004 -2.823,3.122 -1.422,4.794c1.057,1.177 2.615,0.284 3.797,-0.216c1.31,-0.619 2.804,-1.036 3.986,-1.838c0.765,-0.535 1.665,-1.17 2.181,-1.964c0.16,-0.244 0.236,-0.542 0.18,-0.776z" fill="#1d1d1d"/><path d="M254.287,206.15l-1.78,23.675h-9.024l-0.344,-17.121h-0.262l-0.347,17.121h-9.023l-1.783,-23.675z" fill="#4f4f4f"/><path d="M264.579,200.436c0.226,2.126 -0.796,3.973 -2.284,4.13c-0.971,0.102 -1.901,-0.544 -2.491,-1.595c-0.551,0.454 -1.092,0.632 -1.482,0.428c-0.729,-0.385 -0.644,-1.971 0.193,-3.538c0.28685,-0.54863 0.65426,-1.05121 1.09,-1.491c0.409,-0.839 1.075,-1.412 1.873,-1.495c1.488,-0.156 2.875,1.437 3.101,3.562M219.405,167.06c0.985,0.188 1.444,2.055 1.031,4.168c-0.13839,0.73683 -0.38649,1.44874 -0.736,2.112c-0.18,1.117 -0.748,2.012 -1.643,2.39c-1.67,0.704 -3.844,-0.658 -4.86,-3.042c-1.017,-2.386 -0.486,-4.885 1.182,-5.589c1.092,-0.459 2.399,-0.037 3.455,0.973c0.478,-0.715 1.046,-1.114 1.571,-1.012" data-paper-data="{&quot;origPos&quot;:null}" fill="#e7c69d"/><path d="M219.585,174.111l4.908,5.865l10.554,-3.816l-0.01,0.017c1.824,-1.204 6.706,-1.384 6.706,-1.384l1.591,0.045h0.133l1.595,-0.06c0,0 4.781,0.211 6.648,1.386c-0.003,-0.002 -0.003,-0.004 -0.003,-0.004c0,0 5.839,3.04 7.456,5.096c3.326,4.224 4.598,16.93 4.598,16.93l-4.327,-0.004c0,0 -1.171,-9.177 -2.716,-11.348c-0.559,-0.787 -0.9,-1.321 -1.112,-1.738c1.971,9.027 2.216,21.107 2.216,21.107l0.035,23.967h-10.07c-3.442,-0.322 -5.17,-0.405 -8.207,0h-10.667l0.06,-23.926h0.008c0,0 0.278,-13.768 2.629,-22.898c-1.376,0.539 -7.7,2.919 -9.65,2.217c-2.707,-0.975 -6.704,-9.325 -6.704,-9.325z" fill="#343434"/><path d="M262.014,198.181c0.104,0.75 -0.127,1.825 -0.68,2.901c-0.874,1.691 -2.223,2.74 -3.009,2.338c-0.789,-0.4 -0.717,-2.101 0.157,-3.794c0.293,-0.565 0.634,-1.054 0.99,-1.445z" data-paper-data="{&quot;origPos&quot;:null}" fill="#e7c69d"/><path d="M256.122,178.466v32.88h-0.298v-1.89h-0.356v1.89h-0.3v-1.89h-0.292v1.89h-0.297v-1.89h-0.356v1.89h-0.3v-1.89h-0.354v1.89h-0.297v-1.89h-0.356v1.89h-0.297v-1.89h-0.297v1.89h-0.295v-1.89h-0.359v1.89h-0.297v-1.89h-0.354v1.89h-0.301v-1.89h-0.354v1.89h-0.295v-1.89h-0.3v1.89h-0.295v-1.89h-0.356v1.89h-0.297v-1.89h-0.295v1.89h-0.3v-1.89h-0.354v1.89h-0.297v-1.89h-0.3v1.89h-0.294v-1.89h-0.359v1.89h-0.295v-1.89h-0.238v1.89h-0.297v-1.89h-0.356v1.89h-0.295v-1.89h-0.297v1.89h-0.297v-1.89h-0.357v1.89h-0.297v-36.729c0,0 7.736,0.706 12.23,3.848" fill="#e2a821"/><path d="M245.766,207.39v-32.519c2.139,0.337 5.58,1.065 8.43,2.488v30.03h-8.43z" fill="#eeeeed"/><path d="M250.952,195.122v0.005zM247.688,193.836c-0.061,-0.083 0.122,-0.965 0.131,-1.009h-0.002c-0.025,-0.019 0.015,-0.154 0.085,-0.354c0.029,-0.089 0.057,-0.174 0.07,-0.224c0,-0.01 0,-0.02 0.004,-0.03c0.0103,-0.06934 0.03264,-0.13635 0.066,-0.198c0.073,-0.104 0.31,-0.234 0.433,-0.234c0.054,0 0.087,0.039 0.092,0.063c0.02,0.126 -0.02,0.21 -0.05,0.28c-0.01753,0.02973 -0.03099,0.06168 -0.04,0.095c-0.00445,0.05324 -0.00445,0.10676 0,0.16c0.006,0.03 0.026,0.082 0.041,0.13c0.014,0.036 0.027,0.069 0.035,0.095c0.005,0.02 0.009,0.05 0.018,0.076c0.01252,0.06965 0.0316,0.13795 0.057,0.204c0.05592,0.09706 0.13279,0.18041 0.225,0.244c0.01922,0.01205 0.04063,0.02021 0.063,0.024c0.068,0.021 0.151,0.045 0.206,0.197h0.039c-0.00274,-0.00515 -0.00574,-0.01016 -0.009,-0.015c-0.006,-0.015 0.022,-0.039 0.07,-0.071c0.054,-0.044 0.134,-0.099 0.164,-0.159h-0.007c-0.014,0 -0.019,-0.009 -0.024,-0.013c-0.002,-0.006 0.007,-0.02 0.027,-0.046c0.03531,-0.04045 0.06035,-0.08882 0.073,-0.141h-0.01c-0.00376,-0.00375 -0.00681,-0.00816 -0.009,-0.013c-0.002,-0.004 0.005,-0.017 0.015,-0.039c0.02072,-0.03595 0.0362,-0.07468 0.046,-0.115c-0.004,0.002 -0.017,0.002 -0.017,0.002c-0.00327,-0.00393 -0.00596,-0.00831 -0.008,-0.013c-0.003,-0.005 0.004,-0.02 0.01,-0.048c0.01096,-0.02137 0.01968,-0.04383 0.026,-0.067c-0.01,0.011 -0.03,0.015 -0.03,0.015h-0.007l-0.004,-0.002v-0.002c0.045,-0.113 0.052,-0.205 0.015,-0.27c-0.033,-0.065 -0.096,-0.08 -0.096,-0.08h-0.002c-0.077,0.011 -0.123,0.03 -0.159,0.043c-0.02784,0.01522 -0.05844,0.02473 -0.09,0.028c-0.027,0 -0.088,-0.017 -0.088,-0.043l-0.002,-0.007l0.004,0.005c0.039,0.001 0.079,-0.019 0.119,-0.039c0.039,-0.02 0.078,-0.044 0.12,-0.044h0.008c0.005,-0.045 -0.144,-0.135 -0.205,-0.158c-0.013,-0.003 -0.026,-0.005 -0.048,-0.005l-0.042,0.002h-0.037c-0.024,0 -0.042,-0.002 -0.052,-0.004l-0.018,-0.009c-0.019,-0.006 -0.041,-0.015 -0.063,-0.015c-0.039,0 -0.059,0.024 -0.068,0.076l-0.002,0.009l-0.002,-0.007c-0.052,-0.039 -0.066,-0.104 -0.042,-0.165c0.0245,-0.07474 0.09337,-0.12599 0.172,-0.128c0,0 0.049,-0.007 0.09,-0.007c0,0 0.003,0 0.005,0.003c0.004,-0.01 0.011,-0.013 0.017,-0.02c0.031,-0.037 0.077,-0.091 0.214,-0.098c0.081,-0.002 0.191,0.042 0.304,0.083c0.08781,0.037 0.17933,0.06449 0.273,0.082h0.01l-0.01,0.009c0,0 -0.031,0.037 -0.091,0.037h-0.007c0.03535,0.0397 0.06745,0.08217 0.096,0.127c0.005,0.01 0.013,0.019 0.022,0.03c0.00909,0.01519 0.01946,0.02958 0.031,0.043c0.021,0.028 0.035,0.046 0.026,0.056c-0.003,0.003 -0.013,0.005 -0.013,0.005c-0.01967,-0.00451 -0.03832,-0.01264 -0.055,-0.024c0.015,0.019 0.042,0.052 0.048,0.067c0.00925,0.01604 0.01727,0.03275 0.024,0.05c0.009,0.024 0.018,0.05 0.028,0.063c0.00455,0.00955 0.01142,0.01781 0.02,0.024c0.024,0.024 0.051,0.054 0.042,0.074c-0.005,0.004 -0.022,0.007 -0.022,0.007c-0.007,0 -0.013,0 -0.02,-0.003c0.007,0.009 0.011,0.016 0.007,0.018c0,0.002 -0.005,0.002 -0.007,0.006c0.002,0.002 0.002,0.005 0.002,0.007c0.005,0.026 0.025,0.065 0.04,0.106c0.028,0.066 0.054,0.124 0.037,0.148c-0.003,0.004 -0.013,0.004 -0.013,0.004h-0.005c0,0 -0.002,0.003 -0.006,0c0.00769,0.03317 0.02197,0.06446 0.042,0.092c0.02,0.043 0.039,0.075 0.03,0.095l-0.011,0.007c0.004,0.015 0.018,0.052 0.024,0.095c0.007,-0.043 0.022,-0.08 0.022,-0.095c-0.00102,-0.0025 -0.00237,-0.00485 -0.004,-0.007c-0.011,-0.019 0.006,-0.052 0.03,-0.095c0.01642,-0.0295 0.03047,-0.06027 0.042,-0.092c-0.009,0.003 -0.013,0 -0.013,0c-0.009,0 -0.011,0 -0.016,-0.004c-0.013,-0.024 0.011,-0.082 0.039,-0.148c0.018,-0.041 0.036,-0.08 0.04,-0.108v-0.005c0,-0.004 -0.002,-0.004 -0.004,-0.006c-0.003,-0.005 0.002,-0.008 0.004,-0.018c-0.004,0.003 -0.02,0.003 -0.02,0.003c-0.01,0 -0.02,-0.003 -0.02,-0.007c-0.008,-0.019 0.02,-0.05 0.04,-0.074c0.00907,-0.00622 0.0166,-0.01443 0.022,-0.024c0.01224,-0.01958 0.02167,-0.04079 0.028,-0.063c0.009,-0.021 0.013,-0.039 0.022,-0.05c0.01526,-0.02414 0.03303,-0.04659 0.053,-0.067c-0.02,0.009 -0.062,0.024 -0.062,0.024c-0.004,0 -0.008,-0.002 -0.008,-0.005c-0.009,-0.01 0.004,-0.028 0.028,-0.056c0.007,-0.014 0.02,-0.028 0.031,-0.044c0.006,-0.01 0.015,-0.019 0.021,-0.03c0.02725,-0.0449 0.05873,-0.08709 0.094,-0.126h-0.008c-0.062,0 -0.092,-0.036 -0.092,-0.036l-0.004,-0.01h0.006c0.083,-0.01 0.179,-0.047 0.273,-0.082c0.116,-0.041 0.221,-0.085 0.304,-0.083c0.138,0.007 0.182,0.061 0.212,0.098c0.007,0.007 0.013,0.01 0.02,0.02l0.006,-0.003c0.04,0 0.09,0.007 0.09,0.007c0.087,0 0.148,0.065 0.172,0.128c0.02307,0.05811 0.00658,0.12445 -0.041,0.165l-0.002,0.007l-0.005,-0.009c-0.011,-0.052 -0.03,-0.076 -0.067,-0.076c-0.024,0 -0.044,0.009 -0.064,0.015c-0.00626,0.00171 -0.01207,0.00478 -0.017,0.009c-0.01718,0.00288 -0.03458,0.00422 -0.052,0.004h-0.04l-0.037,-0.002c-0.01679,0.00009 -0.03353,0.00177 -0.05,0.005c-0.062,0.023 -0.21,0.113 -0.206,0.158h0.009c0.04,0 0.079,0.024 0.12,0.043c0.037,0.02 0.079,0.042 0.116,0.04l0.004,-0.005v0.007c0,0.026 -0.061,0.043 -0.087,0.043h-0.002c-0.031,-0.002 -0.057,-0.013 -0.087,-0.028c-0.04,-0.013 -0.086,-0.033 -0.16,-0.043h-0.005c0,0 -0.061,0.015 -0.096,0.08c-0.033,0.065 -0.028,0.157 0.016,0.27v0.002l-0.003,0.002h-0.015c-0.0081,-0.00273 -0.01511,-0.00799 -0.02,-0.015c0.007,0.026 0.016,0.047 0.022,0.067c0.011,0.028 0.016,0.043 0.013,0.048c-0.002,0.009 -0.018,0.013 -0.018,0.013l-0.01,-0.002c0.01084,0.03966 0.02628,0.07792 0.046,0.114c0.013,0.023 0.022,0.036 0.015,0.04c-0.002,0.006 -0.004,0.013 -0.017,0.013h-0.003c0.01208,0.05324 0.03874,0.10206 0.077,0.141c0.017,0.026 0.028,0.039 0.024,0.046c0,0.004 -0.021,0.012 -0.021,0.012h-0.01c0.034,0.062 0.11,0.118 0.164,0.16c0.048,0.034 0.077,0.056 0.075,0.071c-0.005,0.007 -0.011,0.015 -0.018,0.015h0.05c0.055,-0.152 0.14,-0.176 0.206,-0.197c0.024,-0.007 0.043,-0.011 0.065,-0.024c0.09066,-0.06536 0.16719,-0.14835 0.225,-0.244c0.02439,-0.06638 0.04345,-0.13459 0.057,-0.204c0.005,-0.026 0.013,-0.056 0.018,-0.076l0.032,-0.095c0.016,-0.048 0.035,-0.1 0.042,-0.13c0.00667,-0.05312 0.00667,-0.10688 0,-0.16c-0.00697,-0.0335 -0.01947,-0.06561 -0.037,-0.095c-0.029,-0.07 -0.07,-0.154 -0.053,-0.28c0.004,-0.024 0.035,-0.063 0.094,-0.063c0.123,0 0.361,0.13 0.433,0.234c0.031,0.042 0.05,0.133 0.068,0.198l0.002,0.03c0.02174,0.07537 0.04575,0.15008 0.072,0.224c0.063,0.2 0.107,0.334 0.081,0.354h-0.002c0.01,0.044 0.192,0.926 0.13,1.009c-0.001,0.004 -0.01,0.006 -0.01,0.006h-0.012c0.006,0.029 0.022,0.183 -0.005,0.417l-0.002,0.009l-0.028,-0.037c0.01405,0.02903 0.02349,0.06007 0.028,0.092c0.012,0.11 -0.024,0.252 -0.048,0.367c-0.01135,0.04197 -0.01937,0.08477 -0.024,0.128v0.009l-0.004,-0.005c0,-0.004 -0.011,-0.011 -0.02,-0.026v0.005c0.008,0.015 0.013,0.03 0.018,0.043c0,0.026 -0.009,0.072 -0.018,0.126c-0.013,0.096 -0.035,0.23 -0.035,0.372v0.008l-0.004,-0.004c0,-0.005 -0.018,-0.02 -0.029,-0.035l0.007,0.02c0.00735,0.00744 0.01313,0.01628 0.017,0.026c0.005,0.048 0.013,0.319 -0.05,0.402c-0.013,0.016 -0.026,0.024 -0.041,0.026h-0.003c-0.02,0 -0.037,-0.037 -0.05,-0.111c-0.009,0.018 -0.024,0.046 -0.037,0.046l-0.002,-0.002c-0.026,-0.005 -0.04,-0.061 -0.046,-0.096c-0.004,0.015 -0.022,0.04 -0.037,0.04c-0.024,0 -0.037,-0.049 -0.044,-0.09c-0.004,0.022 -0.031,0.054 -0.031,0.054c-0.03,0 -0.039,-0.058 -0.045,-0.1c0,-0.01 -0.003,-0.019 -0.003,-0.026c-0.015,-0.05 -0.041,-0.121 -0.067,-0.197c-0.03794,-0.09694 -0.06869,-0.19654 -0.092,-0.298c-0.002,-0.015 -0.007,-0.031 -0.004,-0.044h-0.014c-0.00663,-0.02706 -0.01464,-0.05376 -0.024,-0.08c-0.006,0.03 -0.017,0.074 -0.036,0.074h-0.01l-0.015,0.002l-0.022,-0.085c0,-0.017 -0.013,-0.054 -0.036,-0.104c-0.027,-0.059 -0.055,-0.139 -0.09,-0.235c0,0.054 -0.007,0.189 -0.04,0.224c-0.008,0.007 -0.022,0.009 -0.022,0.009c-0.011,0 -0.021,-0.007 -0.035,-0.013c-0.05193,-0.07855 -0.09077,-0.16501 -0.115,-0.256c-0.009,0.052 -0.028,0.16 -0.068,0.16h-0.005c-0.072,-0.006 -0.135,-0.239 -0.18,-0.441v0.599h0.03c0.07239,0.00156 0.14402,0.01508 0.212,0.04c0.07777,0.04158 0.14917,0.09412 0.212,0.156c0.021,0.018 0.043,0.02 0.061,0.022c0.006,0.002 0.013,0.002 0.015,0.009c0.005,0.002 0.005,0.004 0.005,0.006c-0.014,0.05 -0.064,0.07 -0.16,0.07h-0.026c0.004,0.004 0.006,0.009 0.011,0.012c0.022,0.038 0.043,0.075 0.065,0.09c0.009,0.004 0.057,0.043 0.04,0.083c-0.007,0.013 -0.024,0.017 -0.048,0.017c-0.02837,0.00011 -0.05662,-0.00359 -0.084,-0.011c0.04,0.067 0.062,0.133 0.046,0.165l0.374,0.413l0.011,-0.002c0.026,0 0.044,0.009 0.052,0.02c0.003,0.003 0.003,-0.003 0.003,0.013h0.096c0.008,-0.016 0.057,-0.068 0.081,-0.074c0.008,-0.003 0.031,-0.003 0.031,-0.003c0.008,0 0.017,0 0.03,0.003l0.006,0.004c0.01902,-0.01802 0.04384,-0.02865 0.07,-0.03c0.031,0 0.062,0.017 0.072,0.041c0.01367,0.02349 0.01128,0.05301 -0.006,0.074l-0.002,0.004l-0.003,-0.004c-0.01,-0.018 -0.026,-0.025 -0.057,-0.025l-0.03,0.02c0,0.013 -0.004,0.033 -0.004,0.037c0.006,0.003 0.011,0.003 0.018,0.003l0.03,-0.005l0.006,-0.002l-0.005,0.007c0,0.004 -0.027,0.043 -0.08,0.045c-0.0138,-0.00277 -0.02748,-0.0061 -0.041,-0.01c-0.01164,0.00065 -0.02296,0.00408 -0.033,0.01c-0.011,0.007 -0.033,0.009 -0.033,0.009c-0.011,0 -0.032,-0.009 -0.042,-0.013v0.004c0.01,0.018 0.066,0.035 0.09,0.039c0.02129,0.00041 0.04245,0.00343 0.063,0.009c0.02168,0.01038 0.04106,0.025 0.057,0.043c0.005,0.003 0.02,0.005 0.02,0.005c0.011,0.002 0.026,0.005 0.033,0.015c0.008,0.009 0.008,0.017 0.002,0.037c0,0.004 -0.004,0.006 -0.009,0.006c0.035,0.027 0.057,0.057 0.057,0.09c-0.0032,0.03133 -0.02309,0.05849 -0.052,0.071l-0.009,0.002l0.004,-0.006c0.00622,-0.01388 0.00694,-0.02961 0.002,-0.044c-0.019,-0.036 -0.083,-0.054 -0.091,-0.056c-0.018,0.017 -0.033,0.033 -0.049,0.033h-0.004c-0.024,-0.005 -0.024,-0.031 -0.026,-0.048c0,-0.011 -0.002,-0.015 -0.004,-0.024c-0.018,-0.033 -0.042,-0.035 -0.053,-0.035v0.002l-0.002,-0.002c-0.002,-0.002 -0.079,-0.052 -0.105,-0.085c0.009,0.043 0.054,0.066 0.094,0.083c0.024,0.013 0.042,0.02 0.052,0.03c0.005,0.009 0.003,0.024 0.003,0.037c0,0.013 -0.003,0.029 0.002,0.037c0.002,0.002 0.015,0.005 0.015,0.005c0.018,0.006 0.037,0.008 0.039,0.032c0.003,0.007 -0.004,0.011 -0.013,0.02c-0.004,0.004 -0.013,0.008 -0.013,0.013c0,0.002 0.009,0.006 0.013,0.008c0.009,0.006 0.016,0.011 0.016,0.016c-0.003,0.019 -0.038,0.024 -0.055,0.024c0.02196,0.04337 0.01929,0.09512 -0.007,0.136c-0.02029,0.03349 -0.05685,0.05368 -0.096,0.053c-0.00654,-0.00306 -0.01234,-0.00749 -0.017,-0.013v-0.003l0.004,-0.002c0.02186,-0.01264 0.03772,-0.03354 0.044,-0.058c0.009,-0.031 -0.007,-0.068 -0.018,-0.085l-0.024,0.004c-0.085,0 -0.096,-0.132 -0.107,-0.23c-0.00018,-0.03208 -0.00593,-0.06389 -0.017,-0.094c-0.002,-0.004 -0.018,-0.008 -0.018,-0.008c-0.008,-0.003 -0.013,-0.003 -0.015,-0.005c-0.007,-0.002 -0.011,-0.011 -0.015,-0.017c-0.009,-0.008 -0.016,-0.018 -0.02,-0.018c-0.006,-0.002 -0.017,0.01 -0.026,0.02c-0.009,0.004 -0.015,0.013 -0.024,0.018c-0.02053,0.00729 -0.04223,0.01068 -0.064,0.01c-0.03,0 -0.057,-0.004 -0.067,-0.015c-0.016,-0.009 -0.029,-0.032 -0.042,-0.055c-0.004,-0.012 -0.013,-0.02 -0.017,-0.03c-0.059,-0.004 -0.099,-0.017 -0.116,-0.045h-0.005l-0.008,-0.002c-0.005,-0.003 -0.016,-0.007 -0.033,-0.007c0,0 -0.018,0.007 -0.044,0.042l-0.004,0.01v-0.011c-0.00912,-0.03422 -0.00291,-0.07071 0.017,-0.1c0.022,-0.024 0.057,-0.024 0.07,-0.024h0.018c0.0016,-0.00623 0.00554,-0.0116 0.011,-0.015c0.008,-0.006 0.043,-0.008 0.043,-0.008c0.018,0 0.031,0.002 0.038,0.008c0.01852,0.01247 0.03475,0.02803 0.048,0.046c0.006,0.002 0.039,0.022 0.052,0.028l0.02,0.002l-0.376,-0.36c-0.00958,0.02096 -0.02203,0.04048 -0.037,0.058c-0.019,0.026 -0.059,0.039 -0.059,0.039c-0.028,0 -0.064,-0.093 -0.088,-0.158c-0.035,0.071 -0.087,0.134 -0.126,0.134c-0.011,0 -0.02,-0.002 -0.024,-0.01c-0.011,-0.005 -0.02,-0.039 -0.027,-0.089c-0.035,0.03 -0.072,0.058 -0.096,0.058h-0.008c-0.018,-0.004 -0.031,-0.028 -0.04,-0.052c-0.07655,0.06573 -0.16382,0.11782 -0.258,0.154c0.078,0.07 0.221,0.346 0.238,0.437c0.003,0.008 0.009,0.033 -0.004,0.038c-0.018,0.006 -0.048,0.01 -0.048,0.01c-0.007,0 -0.015,0 -0.022,-0.004c0.079,0.128 0.164,0.304 0.179,0.378c0,0.011 0.007,0.034 -0.011,0.041c-0.01661,0.00627 -0.03425,0.00932 -0.052,0.009c-0.009,0 -0.02,0 -0.033,-0.002c0.103,0.154 0.234,0.402 0.256,0.488c0.004,0.024 0.009,0.037 0,0.04c-0.015,0.004 -0.029,0.01 -0.044,0.01c-0.057,0 -0.094,-0.034 -0.14,-0.084c0.023,0.078 0.024,0.15 0.013,0.171c-0.004,0.006 -0.015,0.016 -0.015,0.016l-0.004,0.002c-0.033,0 -0.085,-0.054 -0.134,-0.124c0.00945,0.05726 0.00672,0.11587 -0.008,0.172c-0.003,0.004 -0.007,0.01 -0.013,0.01h-0.005c-0.03,0 -0.078,-0.065 -0.122,-0.141c0.002,0.082 -0.002,0.148 -0.022,0.172c-0.003,0.004 -0.013,0.007 -0.013,0.007c-0.039,0 -0.092,-0.092 -0.136,-0.19c0.007,0.095 -0.006,0.178 -0.028,0.205c-0.004,0.008 -0.013,0.01 -0.013,0.01c-0.002,0.003 -0.004,0.003 -0.004,0.003c-0.018,0 -0.042,-0.02 -0.068,-0.048c-0.022,0.11 -0.064,0.2 -0.109,0.2c-0.049,0 -0.09,-0.096 -0.114,-0.207c-0.024,0.033 -0.048,0.055 -0.07,0.055l-0.007,-0.003c0,0 -0.008,-0.002 -0.013,-0.01c-0.019,-0.027 -0.03,-0.109 -0.026,-0.205c-0.044,0.099 -0.096,0.189 -0.135,0.189c-0.007,0 -0.011,-0.002 -0.013,-0.007c-0.018,-0.023 -0.027,-0.088 -0.02,-0.17c-0.048,0.075 -0.094,0.14 -0.127,0.14h-0.002c-0.004,-0.002 -0.011,-0.006 -0.013,-0.013c-0.01505,-0.06019 -0.01743,-0.12284 -0.007,-0.184c-0.05,0.074 -0.107,0.132 -0.142,0.132h-0.004c-0.009,-0.002 -0.011,-0.004 -0.013,-0.011c-0.013,-0.021 -0.009,-0.087 0.008,-0.165c-0.041,0.05 -0.087,0.078 -0.126,0.078c-0.018,0 -0.031,-0.006 -0.044,-0.01c-0.011,-0.003 -0.011,-0.016 -0.007,-0.04c0.024,-0.086 0.151,-0.332 0.254,-0.486l-0.024,0.001c-0.01886,0.00104 -0.03771,-0.00238 -0.055,-0.01c-0.015,-0.007 -0.011,-0.031 -0.006,-0.041c0.04171,-0.1334 0.10125,-0.26054 0.177,-0.378c-0.007,0.003 -0.016,0.003 -0.024,0.003c-0.01524,0.00006 -0.03029,-0.00336 -0.044,-0.01c-0.015,-0.004 -0.011,-0.028 -0.007,-0.037c0.05073,-0.15972 0.13189,-0.30811 0.239,-0.437c-0.09479,-0.033 -0.18286,-0.08279 -0.26,-0.147c-0.009,0.023 -0.02,0.041 -0.035,0.046h-0.009c-0.024,0 -0.061,-0.029 -0.096,-0.06c-0.009,0.05 -0.02,0.085 -0.027,0.09c-0.004,0.008 -0.013,0.01 -0.024,0.01c-0.038,0 -0.091,-0.063 -0.128,-0.135c-0.022,0.064 -0.059,0.16 -0.086,0.16c-0.019,0 -0.039,-0.014 -0.061,-0.04c-0.01349,-0.01857 -0.02585,-0.03794 -0.037,-0.058l-0.367,0.36c0.00492,-0.00115 0.00995,-0.00182 0.015,-0.002l0.048,-0.028c0.01355,-0.01805 0.03013,-0.03362 0.049,-0.046c0.01,-0.006 0.021,-0.008 0.05,-0.008c0.01098,0.00122 0.02174,0.00391 0.032,0.008c0.003,0.005 0.007,0.009 0.013,0.015h0.014c0.015,0 0.048,0 0.072,0.025c0.01991,0.02929 0.02612,0.06578 0.017,0.1v0.01l-0.006,-0.011c-0.023,-0.034 -0.053,-0.041 -0.053,-0.041c-0.009,0 -0.015,0.004 -0.027,0.007c-0.003,0.002 -0.01,0.002 -0.01,0.002c-0.017,0.028 -0.055,0.041 -0.116,0.046c-0.007,0.008 -0.011,0.017 -0.017,0.03c-0.016,0.022 -0.024,0.045 -0.04,0.054c-0.015,0.011 -0.037,0.015 -0.067,0.015c-0.02188,0.00105 -0.04373,-0.0027 -0.064,-0.011c-0.008,-0.004 -0.017,-0.013 -0.024,-0.016c-0.011,-0.012 -0.019,-0.023 -0.028,-0.02c-0.002,0 -0.011,0.008 -0.015,0.017c-0.005,0.007 -0.011,0.015 -0.018,0.017c-0.004,0.002 -0.009,0.002 -0.022,0.005c-0.00468,0.00205 -0.00906,0.00474 -0.013,0.008c-0.009,0.014 -0.011,0.048 -0.017,0.094c-0.007,0.098 -0.02,0.23 -0.105,0.23c-0.009,0 -0.016,-0.002 -0.027,-0.004c-0.008,0.017 -0.026,0.055 -0.017,0.085c0.004,0.021 0.022,0.043 0.048,0.058l0.002,0.002l-0.002,0.003c-0.004,0.01 -0.03,0.013 -0.03,0.013c-0.022,0 -0.057,-0.016 -0.08,-0.053c-0.014,-0.021 -0.036,-0.066 -0.01,-0.136c-0.015,0 -0.05,-0.004 -0.053,-0.024c-0.004,-0.005 0.007,-0.009 0.014,-0.016c0.006,-0.002 0.013,-0.006 0.013,-0.008c0,-0.005 -0.004,-0.009 -0.014,-0.013c-0.006,-0.009 -0.01,-0.013 -0.01,-0.02c0.002,-0.024 0.021,-0.026 0.043,-0.032l0.009,-0.005c0.007,-0.008 0.002,-0.024 0.002,-0.037c0,-0.013 -0.002,-0.028 0.007,-0.037c0.006,-0.01 0.026,-0.017 0.048,-0.03c0.041,-0.017 0.089,-0.039 0.096,-0.083c-0.03162,0.03227 -0.06685,0.06079 -0.105,0.085v0.002v-0.002h-0.004c-0.02212,0.00076 -0.04171,0.01448 -0.05,0.035c-0.005,0.009 -0.005,0.013 -0.005,0.024c-0.004,0.018 -0.006,0.043 -0.026,0.048h-0.004c-0.018,0 -0.029,-0.016 -0.046,-0.033c-0.016,0.002 -0.074,0.02 -0.094,0.056c-0.00446,0.01433 -0.00446,0.02967 0,0.044l0.004,0.006l-0.007,-0.002c-0.03,-0.013 -0.05,-0.039 -0.05,-0.071c0,-0.033 0.02,-0.063 0.057,-0.09c-0.006,0 -0.015,-0.002 -0.015,-0.006c-0.002,-0.02 -0.002,-0.028 0.006,-0.037c0.007,-0.011 0.02,-0.013 0.037,-0.015c0.00457,-0.00098 0.00895,-0.00267 0.013,-0.005c0.0174,-0.01765 0.03769,-0.0322 0.06,-0.043c0.015,-0.007 0.065,-0.008 0.065,-0.008c0.02,-0.005 0.079,-0.022 0.09,-0.04v-0.004c-0.011,0.004 -0.035,0.013 -0.055,0.013c0,0 -0.011,-0.002 -0.024,-0.009c-0.01023,-0.00723 -0.02247,-0.01108 -0.035,-0.011l-0.015,0.005c-0.011,0.004 -0.015,0.006 -0.024,0.006c-0.05,-0.002 -0.079,-0.041 -0.079,-0.045l-0.006,-0.007l0.01,0.002c0,0 0.014,0.005 0.035,0.005c0,0 0.005,0 0.009,-0.003c-0.002,-0.004 -0.002,-0.024 -0.002,-0.036c-0.011,-0.01 -0.045,-0.02 -0.045,-0.02c-0.02,0 -0.03,0.006 -0.04,0.024l-0.005,0.004l-0.001,-0.004c-0.018,-0.025 -0.023,-0.048 -0.01,-0.075c0.01555,-0.0253 0.04331,-0.04051 0.073,-0.04c0.02674,0.00139 0.05218,0.01199 0.072,0.03c0.001,-0.002 0.004,-0.004 0.011,-0.007h0.024c0.013,0 0.026,0 0.03,0.003c0.03373,0.01688 0.06237,0.04242 0.083,0.074h0.096c0,-0.016 0,-0.009 0.003,-0.013c0.006,-0.011 0.023,-0.018 0.053,-0.018h0.01l0.374,-0.413c-0.018,-0.03 0.006,-0.098 0.046,-0.164c-0.02818,0.00664 -0.05704,0.01 -0.086,0.01c-0.026,0 -0.036,-0.004 -0.046,-0.017c-0.017,-0.04 0.033,-0.079 0.04,-0.083c0.022,-0.015 0.041,-0.052 0.068,-0.089c0,-0.004 0.004,-0.011 0.004,-0.013h-0.033c-0.087,0 -0.135,-0.024 -0.147,-0.072v-0.004c0.005,-0.009 0.02,-0.009 0.02,-0.009c0.016,-0.002 0.037,-0.004 0.057,-0.022c0.06283,-0.06188 0.13423,-0.11442 0.212,-0.156c0.06663,-0.02467 0.13696,-0.03786 0.208,-0.039h0.013v-0.557c-0.029,0.192 -0.096,0.392 -0.162,0.398h-0.002c-0.042,0 -0.059,-0.108 -0.068,-0.161c-0.037,0.117 -0.078,0.217 -0.118,0.257c-0.01,0.006 -0.03,0.013 -0.03,0.013h-0.007c-0.00565,-0.00176 -0.01079,-0.00484 -0.015,-0.009c-0.037,-0.034 -0.04,-0.174 -0.042,-0.224c-0.032,0.096 -0.065,0.176 -0.092,0.233c-0.01534,0.03363 -0.02805,0.0684 -0.038,0.104c0,0.024 -0.01,0.087 -0.04,0.087v-0.002c-0.02,0 -0.031,-0.044 -0.035,-0.074c-0.00975,0.02349 -0.0181,0.04753 -0.025,0.072c0,0.002 -0.01,0.008 -0.01,0.008h-0.004c0,0.014 -0.003,0.029 -0.005,0.044c-0.004,0.006 -0.004,0.013 -0.004,0.015c-0.013,0.072 -0.053,0.176 -0.086,0.28c-0.03027,0.07319 -0.05435,0.14879 -0.072,0.226c-0.008,0.042 -0.017,0.1 -0.043,0.1h-0.005c-0.013,0 -0.024,-0.032 -0.03,-0.054c-0.007,0.041 -0.018,0.089 -0.044,0.093c-0.015,0 -0.031,-0.028 -0.037,-0.043c-0.004,0.035 -0.022,0.091 -0.046,0.096l-0.007,0.002c-0.015,0 -0.023,-0.028 -0.033,-0.045c-0.012,0.073 -0.028,0.11 -0.05,0.11c-0.017,-0.002 -0.031,-0.011 -0.041,-0.026c-0.066,-0.082 -0.055,-0.354 -0.05,-0.402c0.00234,-0.00995 0.00755,-0.019 0.015,-0.026c0.00382,-0.00627 0.00685,-0.01298 0.009,-0.02c-0.011,0.015 -0.029,0.031 -0.029,0.035l-0.006,0.004v-0.008c0.005,-0.142 -0.02,-0.276 -0.035,-0.372c-0.006,-0.054 -0.018,-0.1 -0.016,-0.126c0,-0.013 0.009,-0.028 0.016,-0.043c0,-0.003 0,-0.005 0.002,-0.005c-0.009,0.016 -0.02,0.022 -0.02,0.026l-0.004,0.005v-0.009c-0.002,-0.03 -0.014,-0.076 -0.024,-0.128c-0.026,-0.115 -0.059,-0.257 -0.052,-0.367c0.006,-0.024 0.021,-0.066 0.03,-0.092l-0.031,0.038v-0.01c-0.028,-0.234 -0.008,-0.388 -0.006,-0.417h-0.015l-0.007,-0.006z" fill="#dba51d"/><path d="M251.154,192.231c0.017,-0.005 0.059,-0.02 0.072,-0.04c0.004,-0.004 0.004,-0.008 0.004,-0.013v-0.002l-0.004,0.002c-0.021,0.003 -0.061,0.005 -0.061,0.005c-0.055,0 -0.088,-0.016 -0.118,-0.029c-0.013,-0.004 -0.029,-0.008 -0.04,-0.015c-0.01,-0.002 -0.03,-0.005 -0.065,-0.005c-0.00735,0.00175 -0.01419,0.00517 -0.02,0.01c-0.011,0.004 -0.024,0.021 -0.035,0.037c-0.0024,0.00581 -0.00618,0.01096 -0.011,0.015l-0.004,0.006h0.009l0.03,-0.002c0.03522,0.00073 0.07006,0.00749 0.103,0.02l0.037,0.01c0.03417,0.0048 0.06883,0.0048 0.103,0M248.964,192.182c-0.02175,-0.00025 -0.04347,-0.00192 -0.065,-0.005l-0.002,-0.002v0.002c-0.003,0.005 0,0.011 0.002,0.016c0.015,0.019 0.057,0.034 0.072,0.037c0.03379,0.00539 0.06821,0.00539 0.102,0l0.04,-0.009c0.04268,-0.01479 0.08797,-0.02058 0.133,-0.017h0.007l-0.005,-0.007c0,-0.004 -0.004,-0.009 -0.011,-0.017c-0.008,-0.016 -0.021,-0.033 -0.034,-0.037c-0.005,-0.007 -0.02,-0.007 -0.033,-0.007c-0.022,0 -0.042,0 -0.052,0.002c-0.01275,0.00668 -0.02616,0.01205 -0.04,0.016c-0.031,0.013 -0.066,0.028 -0.114,0.028M249.526,191.135l-0.04,-0.011c-0.00844,0.01329 -0.01971,0.02456 -0.033,0.033c0.031,-0.009 0.059,-0.013 0.073,-0.022zM249.176,190.957h-0.003l0.005,0.002zM249.645,191.085c-0.01432,0.01948 -0.03368,0.0347 -0.056,0.044c0.03727,-0.00828 0.075,-0.01429 0.113,-0.018c-0.02129,-0.00234 -0.04128,-0.01145 -0.057,-0.026zM250.644,191.125c-0.018,0.006 -0.033,0.008 -0.048,0.01l0.076,0.02zM250.957,190.959l0.002,-0.002h-0.002zM249.916,191.092h-0.004c-0.039,0 -0.074,-0.016 -0.094,-0.04c-0.009,0.007 -0.031,0.04 -0.063,0.053l0.162,-0.013zM250.065,190.989c-0.013,0.061 -0.072,0.096 -0.131,0.1c0.048,-0.002 0.098,-0.002 0.151,-0.002h0.078c-0.04768,-0.01307 -0.08493,-0.05032 -0.098,-0.098zM250.368,191.1c-0.02175,-0.00815 -0.03961,-0.02423 -0.05,-0.045c-0.02465,0.01783 -0.05303,0.0298 -0.083,0.035c0.049,0.002 0.09,0.008 0.134,0.01zM250.526,191.125c-0.01544,-0.01008 -0.02815,-0.02382 -0.037,-0.04c-0.01687,0.01148 -0.03543,0.02025 -0.055,0.026c0.03113,-0.00012 0.06212,0.00426 0.092,0.013zM250.286,190.963c-0.011,-0.011 -0.02,-0.024 -0.02,-0.034c0,-0.028 0.022,-0.048 0.05,-0.048c0.022,0 0.044,0.019 0.044,0.048c0,0.013 -0.009,0.026 -0.017,0.034c0,0.009 0.015,0.089 0.076,0.089h0.017c0.01518,-0.00823 0.02929,-0.01831 0.042,-0.03c0.013,-0.013 0.02,-0.028 0.017,-0.042c0,-0.017 -0.003,-0.028 -0.013,-0.03h-0.004c0,0 -0.015,0 -0.024,0.009c0.013,-0.004 0.024,-0.004 0.028,0.004c0.009,0.016 0.011,0.026 0.007,0.039c-0.017,0.022 -0.057,0.027 -0.057,0.027h-0.004c0,0 -0.035,-0.003 -0.04,-0.059c-0.00201,-0.02101 0.0053,-0.04185 0.02,-0.057c0.02,-0.019 0.043,-0.032 0.063,-0.032c0.018,0 0.027,0.004 0.035,0.013c0.00131,-0.0217 -0.00627,-0.043 -0.021,-0.059c-0.007,-0.013 -0.018,-0.022 -0.018,-0.035c0,-0.008 0.015,-0.03 0.033,-0.052c0.034,-0.043 0.081,-0.104 0.074,-0.163c-0.02,-0.106 -0.194,-0.121 -0.297,-0.121c-0.048,0 -0.092,0.002 -0.092,0.002c-0.008,0.158 0.015,0.228 0.022,0.258c0.007,0.012 0.009,0.016 0.007,0.022c-0.003,0.017 -0.057,0.039 -0.057,0.044h-0.004c-0.014,0.015 -0.04,0.052 -0.04,0.078c0.022,-0.007 0.039,-0.013 0.055,-0.013c0.063,0 0.076,0.067 0.078,0.095c0.00212,0.01898 -0.00408,0.03794 -0.017,0.052c-0.013,0.018 -0.035,0.024 -0.053,0.024h-0.012c0,0 -0.03,-0.004 -0.04,-0.054c0,-0.005 0,-0.013 0.004,-0.015l0.018,-0.009h0.004c0.004,0 0.014,0.002 0.024,0.018c0,-0.007 0,-0.011 -0.004,-0.016c-0.007,-0.008 -0.014,-0.013 -0.024,-0.013c-0.00931,-0.00209 -0.01872,0.00305 -0.022,0.012c-0.007,0.004 -0.011,0.014 -0.009,0.03c0.009,0.058 0.083,0.06 0.092,0.06c0,0 0.042,-0.004 0.066,-0.028c0.01084,-0.01349 0.01555,-0.03089 0.013,-0.048zM249.748,190.966c0,0.013 -0.011,0.032 -0.024,0.047c-0.006,0.007 -0.02,0.016 -0.033,0.013c-0.032,-0.002 -0.048,-0.026 -0.046,-0.047c0,-0.02 0.013,-0.026 0.033,-0.022c-0.004,-0.002 -0.022,-0.004 -0.022,-0.004h-0.004c-0.009,0.004 -0.013,0.019 -0.013,0.028c0.002,0.024 0.035,0.065 0.072,0.071c0.027,0.004 0.074,-0.028 0.077,-0.086c-0.014,-0.009 -0.02,-0.024 -0.02,-0.037c0,-0.028 0.019,-0.048 0.046,-0.048c0.023,0 0.043,0.019 0.043,0.048c0.00009,0.01256 -0.00455,0.0247 -0.013,0.034c0.013,0.068 0.048,0.072 0.077,0.072h0.013c0.033,0 0.079,-0.017 0.085,-0.065c0,-0.013 -0.037,-0.033 -0.037,-0.033c0,0 -0.015,0.005 -0.02,0.016c-0.004,0.003 -0.004,0.006 -0.004,0.013c0.006,-0.018 0.03,-0.022 0.03,-0.022c0,0 0.022,0.008 0.02,0.03c0,0.02 -0.019,0.05 -0.044,0.05h-0.002c-0.07,-0.008 -0.074,-0.045 -0.074,-0.074c0,-0.002 0,-0.006 -0.003,-0.008c-0.004,-0.017 0.005,-0.039 0.02,-0.057c0.01846,-0.01884 0.04362,-0.02962 0.07,-0.03c0.01705,0.00065 0.03362,0.00582 0.048,0.015c-0.00419,-0.03453 -0.02317,-0.06554 -0.052,-0.085h-0.004v-0.002c-0.013,-0.007 -0.046,-0.024 -0.048,-0.037c0,-0.006 0.002,-0.011 0.004,-0.022c0.02427,-0.08379 0.0294,-0.17196 0.015,-0.258c0,0 -0.039,-0.002 -0.085,-0.002c-0.098,0 -0.277,0.015 -0.293,0.121c-0.007,0.059 0.037,0.12 0.073,0.163c0.019,0.022 0.03,0.044 0.03,0.052c0,0.013 -0.007,0.022 -0.015,0.035c-0.013,0.013 -0.027,0.033 -0.027,0.058c0.01198,-0.00739 0.02595,-0.01089 0.04,-0.01c0.046,0 0.085,0.043 0.087,0.083zM250.802,191.083c-0.005,0.004 -0.014,0.004 -0.02,0.004c-0.016,0 -0.035,-0.015 -0.037,-0.03c-0.003,-0.037 0.017,-0.078 0.063,-0.085c0,-0.002 0.022,-0.002 0.022,-0.002c0,0 0.019,0.002 0.035,0.017c-0.002,-0.008 -0.009,-0.018 -0.018,-0.028c-0.008,-0.011 -0.017,-0.022 -0.017,-0.033c0,-0.026 0.026,-0.047 0.051,-0.073c0.025,-0.027 0.06,-0.059 0.06,-0.098c-0.004,-0.087 -0.144,-0.137 -0.168,-0.146c0.046,0.122 -0.035,0.278 -0.042,0.285c-0.02599,0.01448 -0.05525,0.02205 -0.085,0.022c0.00706,0.00248 0.01378,0.00584 0.02,0.01c0.011,0.011 0.011,0.038 0.007,0.068c-0.007,0.058 -0.07,0.063 -0.07,0.063c0,0 -0.02,0.002 -0.029,-0.012c-0.009,-0.006 -0.011,-0.016 -0.011,-0.03c0.005,-0.026 0.035,-0.03 0.035,-0.03h0.007c0,0 0.007,0 0.017,0.009c0,-0.005 -0.002,-0.007 -0.006,-0.009c-0.005,-0.004 -0.018,-0.006 -0.018,-0.006c-0.01655,0.00152 -0.03157,0.01031 -0.041,0.024c-0.005,0.01 -0.013,0.023 -0.005,0.05c0.009,0.023 0.027,0.03 0.04,0.03l0.011,-0.002h0.008c0,0 0.035,-0.005 0.07,-0.072v-0.019c0,-0.02 0.015,-0.04 0.035,-0.04c0.02171,-0.00001 0.03946,0.0173 0.04,0.039c0.00083,0.01781 -0.0115,0.03355 -0.029,0.037v0.003c-0.02,0.026 -0.028,0.047 -0.022,0.067c0.005,0.017 0.022,0.024 0.022,0.024l0.018,0.004c0.017,0 0.041,-0.009 0.056,-0.041zM249.388,191.036c0.004,0.008 0,0.03 -0.009,0.04c-0.011,0.013 -0.026,0.016 -0.046,0.009c0.024,0.026 0.046,0.039 0.061,0.039c0.022,0 0.033,-0.024 0.033,-0.038c0.00046,-0.02171 -0.0066,-0.04291 -0.02,-0.06c-0.019,-0.004 -0.028,-0.017 -0.028,-0.036c0,-0.02 0.015,-0.04 0.037,-0.04c0.022,0 0.037,0.019 0.037,0.039c0,0.009 0,0.016 -0.006,0.022c0.021,0.044 0.061,0.07 0.094,0.072c0.008,0 0.019,-0.007 0.028,-0.015c0.013,-0.013 0.015,-0.032 0.013,-0.052c-0.002,-0.016 -0.028,-0.042 -0.052,-0.037c-0.00743,0.00151 -0.01433,0.00496 -0.02,0.01c0.009,-0.004 0.022,-0.006 0.022,-0.006c0.022,0 0.035,0.019 0.037,0.033c0,0.008 0,0.019 -0.009,0.026c-0.002,0.008 -0.011,0.015 -0.023,0.017h-0.01c-0.028,0 -0.069,-0.035 -0.074,-0.085c0,-0.021 0.007,-0.037 0.015,-0.043c0.009,-0.007 0.016,-0.013 0.027,-0.015c-0.037,-0.002 -0.079,-0.007 -0.094,-0.022c-0.007,-0.007 -0.086,-0.163 -0.04,-0.285c-0.026,0.009 -0.168,0.059 -0.168,0.146c-0.002,0.038 0.033,0.071 0.06,0.098c0.025,0.026 0.05,0.047 0.05,0.073c0,0.011 -0.01,0.023 -0.02,0.033c-0.005,0.008 -0.009,0.02 -0.016,0.028c0.01408,-0.01007 0.03072,-0.01596 0.048,-0.017c0.038,0 0.068,0.035 0.073,0.065zM249.06,190.838c0.00047,-0.01499 0.00653,-0.02926 0.017,-0.04c-0.01795,-0.00783 -0.02968,-0.02542 -0.03,-0.045c0,-0.02 0.019,-0.042 0.041,-0.046c-0.011,-0.011 -0.017,-0.024 -0.017,-0.039c0,-0.024 0.022,-0.046 0.053,-0.046c0,0 0.006,0 0.01,0.002c0,-0.006 -0.004,-0.015 -0.004,-0.021c0,-0.026 0.017,-0.043 0.052,-0.043c0.00763,0.00263 0.015,0.00598 0.022,0.01c-0.002,-0.004 -0.002,-0.009 -0.002,-0.013c0,-0.023 0.02,-0.043 0.052,-0.043c0,0 0.013,0.004 0.022,0.015c0.002,-0.024 0.022,-0.044 0.044,-0.044c0.024,0 0.041,0.015 0.044,0.037l0.035,-0.002c0,-0.004 -0.005,-0.009 -0.005,-0.017c0,-0.024 0.022,-0.046 0.053,-0.046l0.013,0.004c-0.005,-0.006 -0.007,-0.015 -0.007,-0.026c0,-0.024 0.024,-0.045 0.057,-0.045c0,0 0.009,0.002 0.017,0.008l-0.002,-0.008c0.00107,-0.02573 0.02225,-0.04602 0.048,-0.046c0.01421,0.00062 0.02725,0.00807 0.035,0.02c0.004,-0.022 0.044,-0.037 0.044,-0.037c0.02028,-0.00125 0.03897,0.01094 0.046,0.03c0.00546,-0.01973 0.02354,-0.03329 0.044,-0.033c0.021,0 0.041,0.018 0.043,0.044c0.002,-0.022 0.042,-0.037 0.042,-0.037c0.024,0 0.039,0.015 0.045,0.037c0.005,-0.02 0.02,-0.028 0.04,-0.028c0.01131,0 0.02215,0.00456 0.03006,0.01265c0.00791,0.00809 0.01221,0.01904 0.01194,0.03035v0.005h0.013c-0.009,-0.016 -0.013,-0.035 -0.013,-0.059c-0.00032,-0.05367 0.03814,-0.09973 0.091,-0.109v-0.048h-0.03c-0.002,0.016 -0.035,0.022 -0.035,0.022c0,0 -0.009,-0.006 -0.022,-0.021c0,0 -0.009,-0.01 -0.009,-0.02c0,-0.013 0.008,-0.024 0.018,-0.026c0.004,-0.009 0.035,-0.015 0.035,-0.015c0,0 0.011,0.006 0.013,0.015h0.03v-0.033c-0.012,-0.002 -0.022,-0.011 -0.022,-0.024c0,-0.012 0.01,-0.019 0.02,-0.022c0.002,-0.013 0.022,-0.023 0.022,-0.023c0.013,0 0.022,0.01 0.022,0.024c0.013,0.001 0.024,0.008 0.024,0.021c0,0.01111 -0.00733,0.02089 -0.018,0.024v0.033h0.024c0,-0.009 0.011,-0.015 0.036,-0.015c0,0 0.006,0.006 0.01,0.015c0.011,0.002 0.02,0.013 0.02,0.026c0,0.011 -0.009,0.019 -0.02,0.021c0,0.014 -0.024,0.02 -0.024,0.02c-0.011,0 -0.022,-0.006 -0.022,-0.022h-0.024v0.048c0.044,0.009 0.088,0.055 0.088,0.109c0,0.017 -0.005,0.03 -0.009,0.045l-0.002,0.005v-0.002c-0.002,0.006 -0.006,0.011 -0.006,0.011h0.012v-0.005c-0.00029,-0.01167 0.00429,-0.02293 0.01263,-0.03109c0.00835,-0.00816 0.01971,-0.01247 0.03137,-0.01191c0.01768,-0.00005 0.0334,0.01124 0.039,0.028c0.007,-0.022 0.024,-0.037 0.044,-0.037c0.02181,-0.00028 0.04053,0.01547 0.044,0.037c0.00026,-0.01194 0.00526,-0.02328 0.01388,-0.03153c0.00863,-0.00825 0.02018,-0.01274 0.03212,-0.01247c0.017,0 0.035,0.016 0.041,0.033c0.004,-0.017 0.024,-0.03 0.044,-0.03c0.02143,0.00021 0.03959,0.01584 0.043,0.037c0.012,-0.011 0.023,-0.02 0.04,-0.02c0.024,0 0.044,0.024 0.044,0.048v0.006c0.006,-0.006 0.028,-0.008 0.028,-0.008c0.024,0 0.048,0.021 0.048,0.045c0.00003,0.0098 -0.00395,0.01919 -0.011,0.026l0.018,-0.004c0.028,0 0.05,0.022 0.05,0.046c0,0.008 -0.002,0.013 -0.007,0.017l0.04,0.002c0.00159,-0.0213 0.01965,-0.03759 0.041,-0.037c0.026,0 0.044,0.02 0.046,0.044c0.005,-0.011 0.016,-0.015 0.029,-0.015c0.024,0 0.046,0.019 0.046,0.043c0,0.004 0,0.009 -0.003,0.013c0.007,-0.006 0.027,-0.011 0.027,-0.011c0.01192,-0.00056 0.02354,0.00386 0.03207,0.01221c0.00853,0.00834 0.01322,0.01986 0.01293,0.03179c0,0.006 0,0.015 -0.006,0.021c0.007,-0.002 0.011,-0.002 0.017,-0.002c0.027,0 0.048,0.022 0.048,0.045c-0.00084,0.01454 -0.00607,0.02849 -0.015,0.04c0.02,0.004 0.035,0.026 0.035,0.046c0.00021,0.01974 -0.0117,0.0376 -0.03,0.045c0.01294,0.0088 0.02078,0.02335 0.021,0.039c-0.00102,0.02607 -0.02193,0.04698 -0.048,0.048l-0.01,-0.002c0.008,0.009 0.01,0.02 0.01,0.032c0.00048,0.01634 -0.00795,0.03165 -0.022,0.04h0.005c0.026,0.002 0.041,0.015 0.043,0.028c0.003,0.011 -0.002,0.017 -0.01,0.026c-0.005,0.002 -0.007,0.002 -0.022,0.002l-0.022,-0.002c0,0 -0.004,-0.004 -0.026,-0.004c-0.01725,0.00669 -0.03292,0.01691 -0.046,0.03l-0.002,0.004c-0.005,0.018 -0.038,0.042 -0.038,0.042c-0.032,0.037 -0.076,0.091 -0.111,0.095l-0.024,0.002c0.00555,0.00343 0.00895,0.00948 0.009,0.016c0,0.008 -0.005,0.013 -0.005,0.013c-0.004,0.006 -0.006,0.008 -0.011,0.008h-0.011v0.042c0.031,0.005 0.046,0.028 0.046,0.045c-0.004,0.018 -0.021,0.031 -0.046,0.033v0.037l0.007,0.002c0.015,0.002 0.02,0.009 0.02,0.017c0,0.005 0,0.011 -0.005,0.016c-0.004,0.004 -0.006,0.008 -0.011,0.008h-0.004c-0.201,-0.057 -0.43,-0.087 -0.669,-0.087c-0.238,0 -0.472,0.031 -0.673,0.087h-0.002c-0.011,0 -0.017,-0.013 -0.017,-0.024c0,-0.008 0.004,-0.015 0.022,-0.016v-0.04c-0.025,-0.004 -0.038,-0.015 -0.042,-0.033c-0.002,-0.015 0.009,-0.037 0.042,-0.043v-0.044h-0.005c-0.011,0 -0.017,-0.013 -0.017,-0.021c-0.00013,-0.00591 0.00202,-0.01164 0.006,-0.016l-0.056,-0.008c-0.02461,-0.01854 -0.04505,-0.04205 -0.06,-0.069c-0.004,-0.01 -0.008,-0.016 -0.015,-0.02h-0.004c-0.013,0 -0.029,-0.024 -0.035,-0.042v-0.008c-0.018,-0.013 -0.033,-0.029 -0.084,-0.029l-0.03,0.007c-0.009,0.002 -0.022,-0.009 -0.022,-0.022c0,-0.006 0.007,-0.028 0.053,-0.032c-0.014,-0.007 -0.024,-0.022 -0.024,-0.039c-0.00049,-0.01234 0.00423,-0.02431 0.013,-0.033l-0.009,0.002c-0.03,0 -0.05,-0.022 -0.05,-0.048zM246.621,203.431c0.00385,-0.48974 0.40225,-0.88456 0.892,-0.884h5.048c0.4892,-0.00001 0.8867,0.39481 0.89,0.884c0,0.491 -0.4,0.887 -0.89,0.887h-5.048c-0.49114,0.00111 -0.89035,-0.39586 -0.892,-0.887M246.621,205.853c0.00275,-0.49036 0.40163,-0.88611 0.892,-0.885h5.048c0.49,0 0.89,0.395 0.89,0.885c0,0.491 -0.4,0.884 -0.89,0.884h-5.048c-0.49,0 -0.892,-0.394 -0.892,-0.884M247.513,182c-0.491,0 -0.891,0.397 -0.891,0.884c0.00165,0.49075 0.40025,0.88755 0.891,0.887h1.663v1.651c-0.00054,0.23593 0.09315,0.46231 0.26027,0.62886c0.16711,0.16655 0.39381,0.25947 0.62973,0.25814c0.491,0 0.891,-0.396 0.891,-0.887v-1.651h1.604c0.49036,0 0.88835,-0.39664 0.89,-0.887c0,-0.487 -0.4,-0.884 -0.89,-0.884h-1.604v-1.595c0,-0.489 -0.4,-0.885 -0.891,-0.885c-0.494,0 -0.89,0.395 -0.89,0.885v1.595h-1.663" fill="#dba51d"/><path d="M249.775,182.893c0,-0.16348 0.13252,-0.296 0.296,-0.296c0.16348,0 0.296,0.13252 0.296,0.296c0,0.16348 -0.13252,0.296 -0.296,0.296c-0.16348,0 -0.296,-0.13252 -0.296,-0.296M249.775,180.707c0,-0.16348 0.13252,-0.296 0.296,-0.296c0.16348,0 0.296,0.13252 0.296,0.296c-0.01267,0.15407 -0.14141,0.27265 -0.296,0.27265c-0.15459,0 -0.28333,-0.11858 -0.296,-0.27265M249.775,185.196c0,-0.16348 0.13252,-0.296 0.296,-0.296c0.16348,0 0.296,0.13252 0.296,0.296c-0.01267,0.15407 -0.14141,0.27265 -0.296,0.27265c-0.15459,0 -0.28333,-0.11858 -0.296,-0.27265M252.328,182.658c0.1627,0.00055 0.29445,0.1323 0.295,0.295c-0.0011,0.16231 -0.13269,0.29346 -0.295,0.294c-0.162,0 -0.298,-0.133 -0.298,-0.294c0.00165,-0.16341 0.13458,-0.29501 0.298,-0.295M247.814,182.658c0.16325,0 0.2959,0.13175 0.297,0.295c0,0.16348 -0.13252,0.296 -0.296,0.296c-0.16348,0 -0.296,-0.13252 -0.296,-0.296c0.00055,-0.1627 0.1323,-0.29445 0.295,-0.295" fill="#9a7417"/><path d="M230.271,177.645c4.385,-2.38 12.23,-3.028 12.23,-3.028v36.728h-0.295v-1.888h-0.356v1.888h-0.299v-1.888h-0.298v1.888h-0.295v-1.888h-0.356v1.888h-0.297v-1.888h-0.238v1.888h-0.295v-1.888h-0.356v1.888h-0.297v-1.888h-0.298v1.888h-0.297v-1.888h-0.358v1.888h-0.295v-1.888h-0.297v1.888h-0.298v-1.888h-0.355v1.888h-0.3v-1.888h-0.295v1.888h-0.295v-1.888h-0.356v1.888h-0.296v-1.888h-0.36v1.888h-0.295v-1.888h-0.356v1.888h-0.299v-1.888h-0.293v1.888h-0.297v-1.888h-0.359v1.888h-0.297v-1.888h-0.354v1.888h-0.299v-1.888h-0.357v1.888h-0.297v-1.888h-0.292v1.888h-0.3v-1.888h-0.356v1.888h-0.298v-33.7" fill="#e2a821"/><path d="M232.17,176.79c2.85,-1.087 6.355,-1.676 8.428,-1.954v32.553h-8.428z" fill="#eeeeed"/><path d="M235.441,195.122l-0.002,0.005h0.001v-0.005zM238.573,192.827c0.008,0.044 0.192,0.926 0.13,1.009c-0.004,0.004 -0.011,0.006 -0.011,0.006h-0.011c0.003,0.029 0.018,0.183 -0.007,0.417v0.009l-0.03,-0.037c0.009,0.026 0.027,0.068 0.027,0.092c0.011,0.11 -0.022,0.252 -0.049,0.367c-0.013,0.052 -0.021,0.098 -0.021,0.128l-0.003,0.009l-0.006,-0.005c0,-0.004 -0.007,-0.011 -0.015,-0.026v0.005c0.00841,0.01291 0.01356,0.02766 0.015,0.043c0,0.026 -0.005,0.072 -0.015,0.126c-0.016,0.096 -0.04,0.23 -0.033,0.372v0.008l-0.007,-0.004c-0.002,-0.005 -0.02,-0.02 -0.03,-0.035c0.0018,0.00698 0.00449,0.0137 0.008,0.02c0.00856,0.00621 0.01431,0.01556 0.016,0.026c0.006,0.048 0.015,0.319 -0.048,0.402c-0.00979,0.01411 -0.025,0.02353 -0.042,0.026c-0.024,0 -0.039,-0.037 -0.052,-0.111c-0.007,0.018 -0.033,0.046 -0.033,0.046c0,0 -0.007,0 -0.007,-0.002c-0.024,-0.005 -0.039,-0.061 -0.046,-0.096c-0.007,0.015 -0.021,0.043 -0.037,0.043h-0.002c-0.024,-0.003 -0.035,-0.052 -0.042,-0.093c-0.004,0.022 -0.015,0.054 -0.03,0.054c-0.028,0 -0.042,-0.058 -0.046,-0.1c0,-0.01 -0.004,-0.024 -0.004,-0.028c-0.015,-0.05 -0.04,-0.122 -0.065,-0.198c-0.04,-0.104 -0.077,-0.208 -0.09,-0.28v-0.015c-0.00704,-0.01354 -0.01015,-0.02878 -0.009,-0.044h-0.013l-0.002,-0.008c-0.005,-0.012 -0.012,-0.037 -0.022,-0.072c-0.007,0.03 -0.017,0.074 -0.037,0.074h-0.002v0.002c-0.029,0 -0.038,-0.063 -0.04,-0.087c0,-0.015 -0.017,-0.052 -0.037,-0.104c-0.026,-0.057 -0.057,-0.137 -0.094,-0.233c0,0.05 -0.004,0.189 -0.039,0.224c-0.007,0.007 -0.023,0.009 -0.023,0.009h-0.01l-0.02,-0.013c-0.05518,-0.0771 -0.09522,-0.16397 -0.118,-0.256c-0.009,0.052 -0.028,0.16 -0.07,0.16c-0.064,-0.006 -0.134,-0.206 -0.164,-0.398v0.556h0.016c0.07009,0.00176 0.13939,0.01528 0.205,0.04c0.07906,0.04096 0.15153,0.09355 0.215,0.156c0.019,0.018 0.045,0.02 0.06,0.022c0.005,0 0.013,0 0.018,0.009v0.004c-0.013,0.048 -0.059,0.072 -0.149,0.072h-0.037c0.004,0.002 0.007,0.009 0.009,0.012c0.01696,0.03445 0.04078,0.06508 0.07,0.09c0.007,0.004 0.054,0.043 0.037,0.083c-0.004,0.013 -0.019,0.017 -0.049,0.017c-0.02701,-0.00052 -0.05386,-0.00421 -0.08,-0.011c0.037,0.067 0.061,0.135 0.044,0.165l0.373,0.413h0.014c0.026,0 0.043,0.007 0.05,0.018c0.002,0.003 0.002,-0.003 0.002,0.013h0.096c0.011,-0.016 0.057,-0.068 0.083,-0.074c0.007,-0.003 0.017,-0.003 0.037,-0.003h0.02c0.004,0.003 0.006,0.005 0.006,0.007c0.0204,-0.01898 0.04714,-0.02968 0.075,-0.03c0.02938,0.00063 0.05647,0.01605 0.072,0.041c0.013,0.026 0.009,0.05 -0.009,0.074l-0.004,0.004l-0.002,-0.004c-0.007,-0.018 -0.038,-0.025 -0.038,-0.025c-0.017,0 -0.035,0.012 -0.048,0.02l-0.002,0.037c0.005,0.003 0.016,0.003 0.016,0.003c0.015,0 0.03,-0.005 0.03,-0.005l0.009,-0.002l-0.005,0.007c-0.01845,0.02637 -0.04788,0.04292 -0.08,0.045h-0.005c-0.01367,-0.00178 -0.0271,-0.00514 -0.04,-0.01c-0.01067,0.00081 -0.02098,0.00425 -0.03,0.01c-0.013,0.007 -0.03,0.009 -0.03,0.009c-0.01537,-0.00146 -0.03031,-0.00588 -0.044,-0.013v0.004c0.007,0.018 0.066,0.035 0.09,0.039c0.02126,0.00071 0.04239,0.00373 0.063,0.009c0.02062,0.01159 0.03948,0.02607 0.056,0.043c0.003,0.003 0.012,0.005 0.02,0.005c0.009,0.002 0.027,0.005 0.035,0.015c0.005,0.009 0.005,0.017 0.003,0.037c-0.003,0.004 -0.014,0.006 -0.014,0.006c0.037,0.027 0.057,0.057 0.057,0.09c-0.00125,0.03144 -0.02082,0.05923 -0.05,0.071l-0.009,0.002l0.005,-0.006c0.00446,-0.01433 0.00446,-0.02967 0,-0.044c-0.02,-0.036 -0.079,-0.054 -0.094,-0.056c-0.013,0.017 -0.029,0.033 -0.046,0.033h-0.005c-0.021,-0.005 -0.021,-0.031 -0.024,-0.048c0,-0.011 0,-0.015 -0.006,-0.024c-0.018,-0.033 -0.042,-0.035 -0.05,-0.035h-0.005v0.002v-0.002c-0.03848,-0.0246 -0.07434,-0.05308 -0.107,-0.085c0.011,0.043 0.057,0.066 0.098,0.083c0.022,0.013 0.042,0.02 0.049,0.03c0.008,0.009 0.006,0.024 0.006,0.037c-0.004,0.013 -0.004,0.029 0.002,0.037c0,0.002 0.015,0.005 0.015,0.005c0.016,0.006 0.036,0.008 0.04,0.032c0,0.007 -0.009,0.011 -0.013,0.02c-0.007,0.004 -0.013,0.008 -0.013,0.013c0,0.002 0.006,0.006 0.013,0.008c0.006,0.006 0.013,0.011 0.013,0.016c0,0.019 -0.053,0.024 -0.053,0.024c0.029,0.069 0.005,0.115 -0.01,0.136c-0.01816,0.03366 -0.05377,0.05418 -0.092,0.053c0,0 -0.013,-0.003 -0.018,-0.013l-0.002,-0.003l0.002,-0.002c0.02388,-0.01117 0.0415,-0.03245 0.048,-0.058c0.011,-0.031 -0.008,-0.068 -0.017,-0.085c-0.0085,0.00223 -0.01722,0.00357 -0.026,0.004c-0.088,0 -0.096,-0.132 -0.105,-0.23c-0.00165,-0.03201 -0.00771,-0.06364 -0.018,-0.094c-0.004,-0.004 -0.017,-0.008 -0.017,-0.008c-0.007,-0.003 -0.013,-0.003 -0.018,-0.005c-0.004,-0.002 -0.008,-0.011 -0.017,-0.017c-0.005,-0.008 -0.015,-0.018 -0.015,-0.018c-0.009,-0.002 -0.018,0.01 -0.029,0.02c-0.006,0.004 -0.015,0.013 -0.024,0.018c-0.013,0.006 -0.037,0.01 -0.063,0.01c-0.031,0 -0.058,-0.004 -0.068,-0.015c-0.013,-0.009 -0.027,-0.032 -0.037,-0.055c-0.011,-0.012 -0.015,-0.02 -0.02,-0.03c-0.059,-0.004 -0.1,-0.017 -0.116,-0.045h-0.004l-0.009,-0.002c-0.006,-0.003 -0.024,-0.007 -0.024,-0.007c-0.013,0 -0.028,0.007 -0.057,0.042l-0.002,0.01v-0.011c-0.009,-0.043 0,-0.076 0.02,-0.1c0.022,-0.024 0.055,-0.024 0.072,-0.024h0.014l0.01,-0.015c0.013,-0.006 0.043,-0.008 0.043,-0.008c0.018,0 0.031,0.002 0.04,0.008c0.01852,0.01247 0.03475,0.02803 0.048,0.046c0.01681,0.00908 0.03347,0.01842 0.05,0.028l0.02,0.002l-0.376,-0.36c-0.00863,0.0208 -0.02007,0.04031 -0.034,0.058c-0.023,0.026 -0.042,0.039 -0.06,0.039c-0.028,0 -0.065,-0.095 -0.092,-0.158c-0.032,0.071 -0.083,0.134 -0.126,0.134c-0.009,0 -0.016,-0.002 -0.022,-0.01c-0.009,-0.005 -0.02,-0.039 -0.026,-0.089c-0.031,0.03 -0.068,0.058 -0.096,0.058h-0.007c-0.017,-0.005 -0.028,-0.022 -0.037,-0.045c-0.07652,0.06511 -0.16476,0.115 -0.26,0.147c0.083,0.077 0.22,0.346 0.238,0.437c0.004,0.008 0.009,0.033 -0.007,0.038c-0.01637,0.00716 -0.03414,0.01058 -0.052,0.01c0,0 -0.007,0 -0.018,-0.004c0.07809,0.11656 0.13873,0.2439 0.18,0.378c0.004,0.011 0.008,0.034 -0.007,0.041c-0.02392,0.01032 -0.05033,0.01345 -0.076,0.009c0.101,0.15244 0.18516,0.3154 0.251,0.486c0.004,0.024 0.004,0.037 -0.002,0.04c-0.016,0.004 -0.031,0.01 -0.046,0.01c-0.044,0 -0.088,-0.028 -0.129,-0.078c0.018,0.078 0.022,0.144 0.008,0.166c-0.002,0.006 -0.006,0.008 -0.01,0.01h-0.007c-0.035,0 -0.089,-0.058 -0.142,-0.132c0.009,0.087 0.009,0.16 -0.006,0.184c-0.00276,0.00602 -0.0078,0.01069 -0.014,0.013h-0.004c-0.03,0 -0.081,-0.065 -0.124,-0.141c0.00827,0.05794 0.00209,0.11703 -0.018,0.172c-0.00375,0.00439 -0.00922,0.00694 -0.015,0.007c-0.04,0 -0.092,-0.092 -0.134,-0.19c0.002,0.095 -0.008,0.178 -0.028,0.205c-0.007,0.008 -0.017,0.01 -0.017,0.01c0,0.003 -0.005,0.003 -0.005,0.003c-0.019,0 -0.041,-0.022 -0.068,-0.055c-0.023,0.111 -0.063,0.207 -0.113,0.207c-0.044,0 -0.085,-0.09 -0.114,-0.2c-0.022,0.028 -0.043,0.048 -0.065,0.048l-0.006,-0.003c0,0 -0.005,-0.002 -0.01,-0.01c-0.021,-0.027 -0.032,-0.109 -0.028,-0.205c-0.042,0.099 -0.096,0.189 -0.136,0.189h-0.004c-0.00298,-0.00195 -0.00567,-0.0043 -0.008,-0.007c-0.02123,-0.05399 -0.02812,-0.11256 -0.02,-0.17c-0.044,0.075 -0.092,0.14 -0.124,0.14h-0.01l-0.008,-0.01c-0.01539,-0.05599 -0.0188,-0.1146 -0.01,-0.172c-0.047,0.069 -0.1,0.124 -0.13,0.124h-0.002l-0.005,-0.002c-0.008,0 -0.012,-0.009 -0.012,-0.016c-0.016,-0.021 -0.012,-0.093 0.01,-0.171c-0.046,0.05 -0.083,0.084 -0.14,0.084c-0.015,0 -0.028,-0.006 -0.043,-0.01c-0.007,-0.003 -0.005,-0.016 0,-0.04c0.06747,-0.17124 0.15295,-0.33483 0.255,-0.488c-0.013,0.002 -0.023,0.002 -0.033,0.002c-0.01773,0.00014 -0.03535,-0.00291 -0.052,-0.009c-0.015,-0.007 -0.013,-0.031 -0.009,-0.041c0.013,-0.074 0.099,-0.25 0.179,-0.378c-0.008,0.003 -0.022,0.003 -0.022,0.003c-0.01712,-0.00046 -0.03403,-0.00384 -0.05,-0.01c-0.011,-0.004 -0.006,-0.028 -0.006,-0.037c0.019,-0.091 0.163,-0.367 0.243,-0.437c-0.09526,-0.03519 -0.18336,-0.08737 -0.26,-0.154c-0.007,0.024 -0.023,0.048 -0.04,0.053h-0.007c-0.026,0 -0.066,-0.029 -0.096,-0.06c-0.009,0.05 -0.017,0.085 -0.026,0.09c-0.009,0.008 -0.014,0.01 -0.024,0.01c-0.039,0 -0.092,-0.063 -0.129,-0.135c-0.022,0.066 -0.059,0.16 -0.086,0.16c-0.019,0 -0.04,-0.014 -0.06,-0.04c-0.01529,-0.01791 -0.02869,-0.03734 -0.04,-0.058l-0.374,0.36l0.02,-0.002c0.016,-0.006 0.044,-0.026 0.053,-0.028c0.01265,-0.01849 0.02899,-0.03415 0.048,-0.046c0.007,-0.006 0.019,-0.008 0.037,-0.008c0.01504,-0.00011 0.02996,0.0026 0.044,0.008c0.00546,0.0034 0.0094,0.00877 0.011,0.015h0.017c0.013,0 0.048,0 0.07,0.025c0.02,0.023 0.024,0.056 0.02,0.1v0.01l-0.005,-0.011c-0.024,-0.034 -0.054,-0.041 -0.054,-0.041c-0.00843,0.00049 -0.01663,0.00289 -0.024,0.007l-0.013,0.002c-0.018,0.028 -0.057,0.041 -0.116,0.046c-0.00844,0.00832 -0.01464,0.01864 -0.018,0.03c-0.013,0.022 -0.026,0.045 -0.041,0.054c-0.013,0.011 -0.036,0.015 -0.066,0.015c-0.02221,0.00113 -0.0444,-0.00262 -0.065,-0.011c-0.007,-0.004 -0.016,-0.013 -0.024,-0.016c-0.009,-0.012 -0.02,-0.023 -0.033,-0.02l-0.009,0.017c-0.009,0.007 -0.01,0.015 -0.02,0.017c-0.002,0.002 -0.006,0.002 -0.015,0.005c-0.00632,0.00096 -0.01223,0.00374 -0.017,0.008c-0.011,0.014 -0.014,0.048 -0.018,0.094c-0.009,0.098 -0.022,0.23 -0.114,0.23l-0.017,-0.004c-0.011,0.017 -0.027,0.055 -0.017,0.085c0.00628,0.02535 0.0235,0.0466 0.047,0.058v0.005c-0.004,0.01 -0.015,0.013 -0.03,0.013c-0.026,0 -0.059,-0.016 -0.08,-0.053c-0.016,-0.021 -0.036,-0.066 -0.01,-0.136c-0.017,0 -0.052,-0.004 -0.054,-0.024c0,-0.005 0.006,-0.009 0.015,-0.016c0.004,-0.002 0.013,-0.006 0.013,-0.008c0,-0.005 -0.009,-0.009 -0.013,-0.013c-0.009,-0.009 -0.015,-0.013 -0.013,-0.02c0,-0.024 0.022,-0.026 0.035,-0.032c0.007,0.00021 0.01392,-0.00152 0.02,-0.005c0.004,-0.008 0.002,-0.024 0.002,-0.037c0,-0.013 0,-0.028 0.004,-0.037c0.007,-0.01 0.024,-0.017 0.05,-0.03c0.04,-0.017 0.09,-0.039 0.094,-0.083c-0.03115,0.03279 -0.06645,0.06136 -0.105,0.085v0.002v-0.002h-0.01c-0.01988,0.00293 -0.03668,0.01628 -0.044,0.035c-0.002,0.009 -0.005,0.013 -0.005,0.024c-0.002,0.018 -0.006,0.043 -0.026,0.048h-0.004c-0.015,0 -0.031,-0.016 -0.044,-0.033c-0.016,0.002 -0.074,0.02 -0.096,0.056c-0.00446,0.01433 -0.00446,0.02967 0,0.044l0.006,0.006l-0.01,-0.002c-0.029,-0.013 -0.046,-0.039 -0.049,-0.071c0,-0.033 0.02,-0.063 0.06,-0.09c-0.011,0 -0.014,-0.002 -0.016,-0.006c-0.002,-0.02 -0.002,-0.028 0.005,-0.037c0.006,-0.011 0.019,-0.013 0.042,-0.015c0.00342,-0.00148 0.00676,-0.00315 0.01,-0.005c0.01594,-0.018 0.03532,-0.03262 0.057,-0.043c0.015,-0.007 0.065,-0.008 0.065,-0.008c0.02,-0.005 0.079,-0.022 0.088,-0.04v-0.004c-0.01655,0.00803 -0.03461,0.01247 -0.053,0.013l-0.022,-0.009c-0.01,-0.006 -0.03,-0.011 -0.03,-0.011c-0.007,0 -0.02,0.005 -0.02,0.005c-0.011,0.004 -0.024,0.006 -0.024,0.006h-0.004c-0.048,-0.002 -0.074,-0.041 -0.074,-0.045l-0.007,-0.007l0.007,0.002l0.03,0.005c0.009,0 0.013,0 0.018,-0.003c-0.005,-0.004 -0.005,-0.024 -0.005,-0.036c-0.013,-0.01 -0.03,-0.02 -0.048,-0.02c-0.01574,-0.00079 -0.03007,0.00903 -0.035,0.024l-0.006,0.004l-0.002,-0.004c-0.01583,-0.02185 -0.01852,-0.05059 -0.007,-0.075c0.01406,-0.02436 0.03988,-0.03955 0.068,-0.04c0.02803,0.00097 0.05487,0.01156 0.076,0.03l0.007,-0.004c0.01351,-0.00256 0.02726,-0.00357 0.041,-0.003c0,0 0.013,0 0.018,0.003c0.024,0.006 0.071,0.058 0.081,0.074h0.096c0,-0.016 0,-0.009 0.002,-0.013c0.009,-0.011 0.026,-0.02 0.05,-0.02l0.016,0.002l0.373,-0.413c-0.019,-0.032 0.004,-0.098 0.044,-0.164c-0.033,0.008 -0.061,0.01 -0.083,0.01c-0.024,0 -0.042,-0.004 -0.046,-0.017c-0.02,-0.04 0.028,-0.079 0.037,-0.083c0.02786,-0.02581 0.05148,-0.05585 0.07,-0.089c0,-0.004 0.004,-0.009 0.004,-0.013h-0.035c-0.084,0 -0.135,-0.02 -0.144,-0.07c-0.004,-0.002 0,-0.004 0,-0.006c0.002,-0.007 0.009,-0.007 0.017,-0.009c0.016,-0.002 0.04,-0.004 0.06,-0.022c0.06316,-0.06237 0.13529,-0.11495 0.214,-0.156c0.06728,-0.02484 0.13829,-0.03803 0.21,-0.039h0.031v-0.6c-0.047,0.202 -0.108,0.435 -0.18,0.441h-0.007c-0.038,0 -0.058,-0.108 -0.068,-0.161c-0.02356,0.09242 -0.06427,0.1796 -0.12,0.257c-0.008,0.006 -0.02,0.013 -0.03,0.013h-0.007c-0.00492,-0.00206 -0.00935,-0.00512 -0.013,-0.009c-0.039,-0.034 -0.041,-0.169 -0.041,-0.224c-0.035,0.095 -0.066,0.176 -0.09,0.235c-0.022,0.05 -0.037,0.087 -0.037,0.104c-0.004,0.022 -0.039,0.085 -0.039,0.085v-0.002h-0.027c0,0 -0.01,-0.044 -0.014,-0.074c-0.01,0.035 -0.02,0.061 -0.02,0.072c-0.003,0.002 -0.007,0.008 -0.014,0.008h-0.004c0,0.014 -0.004,0.029 -0.007,0.044l-0.004,0.015c-0.011,0.072 -0.052,0.18 -0.085,0.283c-0.029,0.076 -0.057,0.147 -0.07,0.197l-0.002,0.026c-0.005,0.042 -0.016,0.1 -0.046,0.1h-0.013c-0.00709,-0.01743 -0.01245,-0.03552 -0.016,-0.054c-0.01,0.041 -0.019,0.09 -0.043,0.09h-0.002c-0.016,0 -0.031,-0.025 -0.04,-0.04c-0.004,0.035 -0.017,0.091 -0.043,0.096l-0.003,0.002c-0.013,0 -0.028,-0.028 -0.037,-0.045c-0.01,0.073 -0.03,0.11 -0.05,0.11h-0.002c-0.01645,-0.00253 -0.03101,-0.012 -0.04,-0.026c-0.065,-0.082 -0.056,-0.354 -0.048,-0.402c-0.00022,-0.01052 0.0051,-0.02039 0.014,-0.026c0.00168,-0.00737 0.00511,-0.01423 0.01,-0.02c-0.015,0.015 -0.032,0.031 -0.032,0.035l-0.007,0.004v-0.008c0.004,-0.142 -0.017,-0.276 -0.031,-0.372c-0.01101,-0.04107 -0.01606,-0.0835 -0.015,-0.126c0.00063,-0.0152 0.0051,-0.03 0.013,-0.043c0,-0.003 0.003,-0.005 0.003,-0.005c-0.011,0.016 -0.02,0.022 -0.02,0.026l-0.007,0.005v-0.009c-0.004,-0.03 -0.011,-0.076 -0.022,-0.128c-0.026,-0.115 -0.061,-0.257 -0.052,-0.367c0.00733,-0.03147 0.01736,-0.06226 0.03,-0.092l-0.03,0.038v-0.01c-0.026,-0.234 -0.011,-0.388 -0.005,-0.417h-0.015c0,0 -0.006,-0.002 -0.008,-0.006c-0.062,-0.083 0.12,-0.965 0.131,-1.009h-0.003c-0.026,-0.019 0.016,-0.154 0.083,-0.354c0.031,-0.089 0.057,-0.174 0.07,-0.224c0.003,-0.01 0.003,-0.02 0.007,-0.03c0.0104,-0.06892 0.03166,-0.13575 0.063,-0.198c0.073,-0.104 0.311,-0.234 0.433,-0.234c0.059,0 0.09,0.039 0.094,0.063c0.02,0.126 -0.02,0.21 -0.05,0.28c-0.01931,0.0288 -0.03289,0.06106 -0.04,0.095c-0.00667,0.05312 -0.00667,0.10688 0,0.16c0.005,0.03 0.027,0.082 0.045,0.13c0.01,0.036 0.025,0.069 0.03,0.095l0.017,0.076c0.01355,0.06941 0.03261,0.13762 0.057,0.204c0.05726,0.0967 0.13468,0.17992 0.227,0.244c0.02,0.013 0.037,0.017 0.064,0.024c0.07,0.021 0.15,0.045 0.205,0.197h0.043l-0.01,-0.015c-0.002,-0.015 0.026,-0.037 0.074,-0.071c0.055,-0.042 0.131,-0.099 0.167,-0.159h-0.01c-0.015,0 -0.021,-0.009 -0.021,-0.013c-0.005,-0.006 0.004,-0.02 0.021,-0.046c0.03725,-0.03924 0.06287,-0.08805 0.074,-0.141h-0.01c0,0 -0.005,-0.007 -0.007,-0.013c-0.002,-0.004 0.002,-0.017 0.016,-0.039c0.015,-0.028 0.039,-0.072 0.043,-0.115c-0.002,0.002 -0.008,0.002 -0.008,0.002c-0.007,0 -0.016,-0.004 -0.018,-0.013c0.01423,-0.03751 0.02592,-0.07593 0.035,-0.115c-0.009,0.011 -0.031,0.015 -0.031,0.015h-0.004l-0.004,-0.002l0.002,-0.002c0.043,-0.113 0.046,-0.205 0.013,-0.27c-0.033,-0.065 -0.096,-0.08 -0.096,-0.08h-0.002c-0.076,0.011 -0.123,0.03 -0.156,0.043c-0.02848,0.01453 -0.05927,0.02401 -0.091,0.028c-0.029,0 -0.09,-0.017 -0.09,-0.043v-0.007l0.007,0.005c0.035,0.001 0.072,-0.019 0.113,-0.039c0.042,-0.02 0.081,-0.044 0.12,-0.044h0.009c0.005,-0.045 -0.142,-0.135 -0.205,-0.158c-0.01942,-0.00382 -0.03921,-0.0055 -0.059,-0.005l-0.028,0.002h-0.04c-0.01742,0.00043 -0.03485,-0.00091 -0.052,-0.004c-0.00522,-0.00435 -0.01139,-0.00743 -0.018,-0.009c-0.017,-0.006 -0.039,-0.015 -0.063,-0.015c-0.038,0 -0.059,0.024 -0.068,0.076v0.009l-0.007,-0.007c-0.04818,-0.04038 -0.06298,-0.10822 -0.036,-0.165c0.02349,-0.07461 0.0918,-0.12605 0.17,-0.128c0.03051,-0.00411 0.06122,-0.00645 0.092,-0.007l0.001,0.003c0.007,-0.01 0.014,-0.013 0.02,-0.02c0.031,-0.037 0.079,-0.091 0.215,-0.098c0.08,-0.002 0.19,0.042 0.303,0.083c0.093,0.035 0.188,0.072 0.273,0.082h0.007l-0.007,0.009c0,0 -0.032,0.037 -0.094,0.037h-0.006c0.03535,0.0397 0.06745,0.08217 0.096,0.127c0.004,0.01 0.013,0.019 0.02,0.03c0.01021,0.01418 0.02021,0.02852 0.03,0.043c0.027,0.028 0.037,0.046 0.033,0.056c-0.004,0.003 -0.009,0.005 -0.03,0.005c-0.01366,-0.00858 -0.02767,-0.01658 -0.042,-0.024c0.015,0.019 0.042,0.052 0.05,0.067c0.005,0.011 0.016,0.029 0.023,0.05c0.00508,0.02301 0.01534,0.04455 0.03,0.063c0.002,0.009 0.008,0.015 0.017,0.024c0.022,0.024 0.052,0.054 0.042,0.074c0,0.004 -0.009,0.007 -0.027,0.007c0,0 -0.008,0 -0.015,-0.003c0.005,0.009 0.011,0.013 0.007,0.018l-0.005,0.006c0,0.002 0.003,0.005 0.003,0.005c0.00695,0.03776 0.01978,0.0742 0.038,0.108c0.027,0.066 0.051,0.124 0.04,0.148c-0.004,0.004 -0.009,0.004 -0.017,0.004h-0.003c0,0 -0.004,0.003 -0.01,0c0.006,0.027 0.024,0.059 0.042,0.092c0.021,0.043 0.04,0.075 0.03,0.095l-0.009,0.007c0.004,0.015 0.02,0.052 0.026,0.095c0.007,-0.043 0.02,-0.08 0.024,-0.095c-0.001,-0.002 -0.006,-0.005 -0.011,-0.007c-0.006,-0.019 0.011,-0.052 0.035,-0.095c0.01645,-0.02909 0.02954,-0.05995 0.039,-0.092c-0.006,0.003 -0.01,0 -0.01,0h-0.009c0,0 -0.004,0 -0.011,-0.004c-0.011,-0.024 0.018,-0.082 0.039,-0.148c0.02,-0.041 0.04,-0.08 0.042,-0.106v-0.007c0,-0.004 -0.002,-0.004 -0.002,-0.006c-0.002,-0.002 0,-0.008 0.004,-0.018c-0.004,0.003 -0.013,0.003 -0.031,0.003l-0.01,-0.007c-0.009,-0.019 0.017,-0.05 0.041,-0.074c0.007,-0.009 0.018,-0.015 0.02,-0.024c0.01312,-0.01911 0.02261,-0.04046 0.028,-0.063c0.01729,-0.0432 0.04238,-0.08286 0.074,-0.117c-0.017,0.009 -0.043,0.024 -0.063,0.024c-0.0022,-0.00141 -0.00422,-0.00309 -0.006,-0.005c-0.009,-0.01 0.004,-0.028 0.031,-0.056c0.00825,-0.01579 0.01832,-0.03056 0.03,-0.044c0.004,-0.01 0.015,-0.019 0.017,-0.03c0.02859,-0.04449 0.0607,-0.08662 0.096,-0.126h-0.006c-0.062,0 -0.092,-0.036 -0.092,-0.036l-0.007,-0.01h0.007c0.083,-0.01 0.179,-0.047 0.273,-0.082c0.116,-0.041 0.219,-0.085 0.304,-0.083c0.138,0.007 0.181,0.061 0.214,0.098c0.00771,0.0049 0.01394,0.01181 0.018,0.02c0.002,-0.003 0.004,-0.003 0.008,-0.003c0.037,0 0.085,0.007 0.085,0.007c0.079,0.00159 0.14838,0.05292 0.173,0.128c0.024,0.061 0.011,0.126 -0.037,0.165l-0.004,0.007v-0.009c-0.014,-0.052 -0.035,-0.076 -0.07,-0.076c-0.024,0 -0.046,0.009 -0.066,0.015c-0.0052,0.00265 -0.01021,0.00566 -0.015,0.009c-0.0212,0.003 -0.04259,0.00434 -0.064,0.004h-0.028l-0.04,-0.002c-0.01681,-0.0003 -0.03359,0.00138 -0.05,0.005c-0.061,0.023 -0.209,0.113 -0.205,0.158h0.009c0.041,0 0.08,0.024 0.12,0.043c0.041,0.02 0.081,0.042 0.118,0.04l0.005,-0.005v0.007c0,0.026 -0.062,0.043 -0.09,0.043c-0.03116,-0.00369 -0.06134,-0.01319 -0.089,-0.028c-0.038,-0.013 -0.084,-0.033 -0.16,-0.043h-0.003c0,0 -0.063,0.015 -0.096,0.08c-0.034,0.065 -0.03,0.157 0.016,0.27v0.002l-0.003,0.002h-0.007c-0.008,0 -0.021,-0.005 -0.03,-0.015c0.007,0.026 0.018,0.047 0.022,0.067c0.00709,0.01536 0.01246,0.03146 0.016,0.048c-0.005,0.009 -0.02,0.013 -0.02,0.013c0,0 -0.007,0 -0.009,-0.002c0.00989,0.03998 0.02537,0.07836 0.046,0.114c0.013,0.023 0.02,0.036 0.015,0.04c-0.002,0.006 -0.017,0.013 -0.017,0.013h-0.002c0.01267,0.0528 0.03887,0.10139 0.076,0.141c0.017,0.026 0.026,0.039 0.024,0.046c-0.004,0.004 -0.009,0.012 -0.024,0.012h-0.007c0.034,0.062 0.108,0.116 0.164,0.16c0.048,0.032 0.077,0.056 0.07,0.071c-0.002,0.007 -0.015,0.015 -0.015,0.015h0.046c0.057,-0.152 0.138,-0.176 0.205,-0.197c0.02247,-0.00343 0.04394,-0.01162 0.063,-0.024c0.09324,-0.06394 0.17168,-0.14715 0.23,-0.244c0.02353,-0.06627 0.04094,-0.13455 0.052,-0.204l0.02,-0.076c0.007,-0.026 0.02,-0.059 0.033,-0.095l0.042,-0.13c0.00556,-0.05319 0.00556,-0.10681 0,-0.16c-0.00611,-0.03425 -0.01977,-0.0667 -0.04,-0.095c-0.03,-0.07 -0.068,-0.154 -0.05,-0.28c0.002,-0.024 0.034,-0.063 0.094,-0.063c0.12,0 0.36,0.13 0.43,0.234c0.033,0.042 0.053,0.133 0.068,0.198c0,0.01 0.004,0.02 0.004,0.03c0.01986,0.07571 0.04321,0.15046 0.07,0.224c0.063,0.2 0.107,0.334 0.083,0.354h-0.002z" fill="#dba51d"/><path d="M235.239,192.23c0.03373,0.00609 0.06827,0.00609 0.102,0c0.014,-0.004 0.027,-0.008 0.04,-0.01c0.03252,-0.01276 0.06707,-0.01953 0.102,-0.02c0.011,0 0.02,0.002 0.02,0.002h0.018l-0.005,-0.006c-0.002,-0.005 -0.008,-0.009 -0.013,-0.015c-0.009,-0.016 -0.02,-0.033 -0.033,-0.037c-0.006,-0.007 -0.017,-0.01 -0.035,-0.01c-0.01678,0.0002 -0.03351,0.00187 -0.05,0.005c-0.01295,0.00597 -0.02632,0.01098 -0.04,0.015c-0.03,0.013 -0.063,0.029 -0.117,0.029c0,0 -0.04,-0.002 -0.061,-0.005l-0.003,-0.002l-0.002,0.002c0.00062,0.00467 0.00234,0.00912 0.005,0.013c0.013,0.02 0.056,0.035 0.072,0.04M237.432,192.182c-0.054,0 -0.087,-0.015 -0.118,-0.028c-0.01402,-0.00439 -0.02772,-0.00973 -0.041,-0.016c-0.011,-0.002 -0.03,-0.002 -0.048,-0.002c-0.02,0 -0.026,0 -0.035,0.007c-0.013,0.004 -0.026,0.021 -0.035,0.037c-0.00328,0.0064 -0.00768,0.01216 -0.013,0.017l-0.005,0.007h0.01c0.01,0 0.021,-0.003 0.021,-0.003c0.03791,-0.00018 0.07553,0.0066 0.111,0.02c0.014,0.002 0.027,0.006 0.04,0.009c0.01787,0.00274 0.03592,0.00408 0.054,0.004l0.049,-0.004c0.015,-0.003 0.059,-0.018 0.07,-0.037c0.004,-0.005 0.008,-0.011 0.004,-0.016v-0.002l-0.005,0.002c-0.01953,0.00303 -0.03924,0.0047 -0.059,0.005M236.85,191.135c0,0 0.037,-0.004 0.057,-0.01c0.00775,0.01257 0.01795,0.02346 0.03,0.032c-0.028,-0.008 -0.057,-0.013 -0.087,-0.022zM237.217,190.957h0.002c-0.002,0 -0.002,0.002 -0.002,0.002zM236.747,191.085c0.007,0.005 0.026,0.03 0.057,0.044c-0.04,-0.009 -0.077,-0.013 -0.114,-0.017c0.02089,-0.0043 0.04044,-0.01356 0.057,-0.027zM235.749,191.125c0.015,0.006 0.032,0.008 0.048,0.01c-0.02587,0.00586 -0.05155,0.01253 -0.077,0.02zM235.439,190.959c0,0 -0.003,0 -0.005,-0.002h0.002l0.002,0.002zM236.476,191.089c0.03777,0.00231 0.07489,-0.01066 0.103,-0.036c0.01543,0.02268 0.03741,0.04012 0.063,0.05l-0.166,-0.013zM236.328,190.989c0.013,0.062 0.076,0.096 0.135,0.1l-0.155,-0.001h-0.077c0.04689,-0.01406 0.08342,-0.05097 0.097,-0.098zM236.076,191.055c0.02368,0.01821 0.05151,0.03023 0.081,0.035c-0.044,0 -0.087,0.006 -0.13,0.009c0.03,-0.011 0.045,-0.037 0.05,-0.044zM235.901,191.085c0.022,0.011 0.04,0.018 0.057,0.024c-0.03082,0.00202 -0.06134,0.00738 -0.091,0.016c0.01429,-0.01051 0.02593,-0.0242 0.034,-0.04zM236.107,190.964c0.00992,-0.00972 0.01535,-0.02312 0.015,-0.037c0.00028,-0.01228 -0.00448,-0.02414 -0.01317,-0.03283c-0.00869,-0.00869 -0.02055,-0.01344 -0.03283,-0.01317c-0.02423,0.00158 -0.04305,0.02172 -0.043,0.046c0,0.015 0.008,0.028 0.017,0.037c-0.002,0.008 -0.013,0.089 -0.076,0.089h-0.003c0,0 -0.037,-0.013 -0.056,-0.03c-0.014,-0.016 -0.02,-0.029 -0.018,-0.042c0,-0.017 0.004,-0.028 0.015,-0.03h0.003c0,0 0.013,0 0.024,0.008c-0.013,-0.004 -0.024,-0.004 -0.029,0.005c-0.009,0.015 -0.01,0.026 -0.002,0.037c0.009,0.024 0.05,0.028 0.05,0.028h0.002c0,0 0.042,-0.002 0.044,-0.059c0.00166,-0.02127 -0.00559,-0.04227 -0.02,-0.058c-0.01789,-0.01789 -0.04174,-0.02857 -0.067,-0.03c0,0 -0.022,0.004 -0.033,0.012c0.00114,-0.0221 0.00958,-0.04321 0.024,-0.06c0.009,-0.014 0.018,-0.02 0.018,-0.033c0,-0.009 -0.016,-0.03 -0.031,-0.055c-0.037,-0.04 -0.083,-0.104 -0.074,-0.16c0.017,-0.109 0.192,-0.124 0.295,-0.124c0.048,0 0.085,0.002 0.085,0.002c0.015,0.16 -0.009,0.23 -0.015,0.26c-0.007,0.01 -0.01,0.014 -0.007,0.02c0.002,0.02 0.055,0.042 0.057,0.046h0.006c0.011,0.015 0.04,0.052 0.04,0.078c-0.022,-0.006 -0.04,-0.013 -0.057,-0.013c-0.066,0 -0.079,0.065 -0.079,0.096c-0.002,0.02 0.002,0.037 0.018,0.05c0.01291,0.01559 0.03178,0.02503 0.052,0.026h0.002c0,0 0.04,-0.005 0.048,-0.055c0.005,-0.004 0,-0.013 -0.002,-0.015c-0.00243,-0.00325 -0.00549,-0.00597 -0.009,-0.008h-0.008c0,0 -0.018,0.002 -0.029,0.017c0,-0.007 0,-0.01 0.005,-0.015c0.0049,-0.00852 0.01419,-0.01355 0.024,-0.013c0.006,-0.002 0.015,0.002 0.024,0.01c0.004,0.005 0.006,0.016 0.006,0.031c-0.01,0.059 -0.083,0.06 -0.091,0.06c0,0 -0.042,-0.003 -0.066,-0.03c-0.01,-0.01 -0.013,-0.028 -0.013,-0.045zM236.644,190.966c0,0.013 0.011,0.033 0.024,0.046c0.007,0.006 0.02,0.017 0.033,0.015c0.033,-0.002 0.048,-0.026 0.046,-0.048c0,-0.02 -0.013,-0.026 -0.033,-0.022l0.016,-0.004h0.006c0.013,0.004 0.018,0.02 0.018,0.028c0,0.022 -0.035,0.065 -0.072,0.072c-0.031,0.004 -0.073,-0.028 -0.077,-0.087c0.01314,-0.00898 0.0207,-0.02411 0.02,-0.04c0,-0.01211 -0.00488,-0.02371 -0.01353,-0.03218c-0.00866,-0.00847 -0.02036,-0.01309 -0.03247,-0.01282c-0.024,0 -0.048,0.02 -0.048,0.046c0,0.015 0.009,0.028 0.022,0.037h-0.005c-0.013,0.067 -0.048,0.072 -0.076,0.072h-0.009c-0.04,0 -0.085,-0.02 -0.087,-0.066c0,-0.013 0.017,-0.032 0.017,-0.032c0.018,0 0.03,0.004 0.037,0.015c0.005,0.004 0.01,0.006 0.01,0.013c-0.00709,-0.01151 -0.01871,-0.0195 -0.032,-0.022h-0.002c0,0 -0.024,0.009 -0.024,0.03c0.002,0.02 0.024,0.05 0.046,0.05h0.002c0.07,-0.01 0.072,-0.045 0.079,-0.073v-0.009c0.002,-0.02 -0.007,-0.039 -0.022,-0.056c-0.01813,-0.01932 -0.0435,-0.0302 -0.07,-0.03c-0.01583,-0.00044 -0.03134,0.00449 -0.044,0.014c0,-0.015 0.007,-0.058 0.05,-0.084v-0.003c0.016,-0.006 0.049,-0.023 0.049,-0.039c0.004,-0.006 0,-0.01 -0.002,-0.02c-0.02472,-0.0843 -0.03287,-0.1726 -0.024,-0.26c0.008,0 0.043,-0.002 0.091,-0.002c0.105,0 0.28,0.015 0.295,0.124c0.011,0.056 -0.037,0.12 -0.072,0.16c-0.01359,0.01613 -0.0238,0.03484 -0.03,0.055c0,0.013 0.006,0.02 0.017,0.032c0.011,0.016 0.024,0.035 0.02,0.061c-0.009,-0.008 -0.024,-0.01 -0.035,-0.01c-0.04635,-0.00011 -0.08484,0.03576 -0.088,0.082zM235.611,191.088c0.015,0 0.037,-0.016 0.037,-0.03c0.002,-0.04 -0.017,-0.079 -0.061,-0.086c-0.002,-0.002 -0.007,-0.002 -0.011,-0.002c0,0 -0.033,0.002 -0.046,0.018c0.00275,-0.01068 0.00787,-0.02059 0.015,-0.029c0.01,-0.01 0.018,-0.021 0.018,-0.034c0,-0.024 -0.026,-0.046 -0.048,-0.072c-0.029,-0.028 -0.061,-0.059 -0.061,-0.098c0,-0.087 0.14,-0.137 0.168,-0.145c-0.048,0.12 0.035,0.278 0.04,0.284c0.017,0.013 0.05,0.018 0.084,0.02c-0.00651,0.00163 -0.01241,0.00511 -0.017,0.01c-0.011,0.014 -0.013,0.04 -0.011,0.07c0.01,0.059 0.074,0.063 0.074,0.063c0,0 0.018,0.002 0.029,-0.01c0.006,-0.007 0.01,-0.018 0.006,-0.033c0,-0.024 -0.033,-0.028 -0.033,-0.028h-0.004c0,0 -0.009,0 -0.02,0.008c0,-0.004 0.003,-0.006 0.007,-0.008c0.00377,-0.00326 0.00821,-0.00565 0.013,-0.007h0.004c0.011,0 0.029,0.007 0.038,0.022c0.01,0.01 0.017,0.026 0.008,0.052c-0.00461,0.01355 -0.0148,0.02447 -0.028,0.03c-0.015,0 -0.02,-0.002 -0.02,-0.002h-0.002c0,0 -0.048,-0.004 -0.079,-0.074v-0.017c0,-0.02 -0.015,-0.04 -0.035,-0.04c-0.02226,-0.00001 -0.04046,0.01775 -0.041,0.04c0.00077,0.01759 0.01295,0.03261 0.03,0.037l-0.002,0.002h0.002c0.022,0.026 0.029,0.048 0.025,0.065c-0.00344,0.01133 -0.0114,0.02073 -0.022,0.026l-0.02,0.005c-0.017,0 -0.042,-0.01 -0.057,-0.042c0.007,0.005 0.013,0.005 0.02,0.005zM237.014,191.077c0.008,0.013 0.026,0.013 0.048,0.008c-0.024,0.027 -0.048,0.04 -0.066,0.04c-0.017,0 -0.028,-0.026 -0.033,-0.04c0,-0.013 0.01,-0.043 0.025,-0.058c0.01548,-0.00578 0.02581,-0.02048 0.026,-0.037c0,-0.02 -0.018,-0.04 -0.035,-0.04c-0.01087,-0.00027 -0.02141,0.0038 -0.02929,0.0113c-0.00788,0.0075 -0.01245,0.01783 -0.01271,0.0287c0,0.009 0.002,0.013 0.009,0.02c-0.02,0.045 -0.059,0.071 -0.094,0.073c-0.009,0 -0.02,-0.006 -0.028,-0.015c-0.01253,-0.015 -0.01666,-0.0353 -0.011,-0.054c0.002,-0.013 0.026,-0.04 0.048,-0.035c0,0 0.015,0.002 0.022,0.01c-0.0052,-0.00235 -0.01054,-0.00435 -0.016,-0.006c-0.028,0 -0.041,0.018 -0.043,0.03c-0.003,0.012 0,0.023 0.008,0.029c0.003,0.009 0.011,0.015 0.024,0.017h0.01c0.03,0 0.07,-0.034 0.071,-0.084c0.002,-0.022 -0.004,-0.037 -0.013,-0.046c-0.00745,-0.00791 -0.01728,-0.01318 -0.028,-0.015c0.041,-0.002 0.076,-0.005 0.096,-0.02c0.004,-0.006 0.09,-0.165 0.04,-0.284c0.03,0.008 0.167,0.058 0.167,0.145c0,0.04 -0.03,0.07 -0.059,0.098c-0.026,0.026 -0.05,0.048 -0.05,0.072c0,0.013 0.007,0.024 0.018,0.034c0.006,0.01 0.015,0.02 0.017,0.029c-0.01341,-0.01008 -0.02931,-0.01631 -0.046,-0.018c-0.037,0 -0.07,0.033 -0.078,0.066c0,0.008 0,0.03 0.013,0.04zM237.314,190.799c0.01906,-0.00735 0.03173,-0.02557 0.032,-0.046c0,-0.022 -0.018,-0.041 -0.042,-0.046c0.01113,-0.00995 0.01765,-0.02407 0.018,-0.039c0,-0.026 -0.02,-0.045 -0.05,-0.045c0,0 -0.011,0 -0.014,0.002c0.003,-0.007 0.003,-0.015 0.003,-0.022c0,-0.026 -0.016,-0.046 -0.042,-0.046c-0.01037,-0.00064 -0.02029,0.00432 -0.026,0.013v-0.015c0,-0.021 -0.022,-0.041 -0.042,-0.041c0,0 -0.026,0.004 -0.035,0.015c-0.002,-0.024 -0.021,-0.043 -0.043,-0.043c-0.022,0 -0.042,0.015 -0.044,0.037l-0.035,-0.003c0.002,-0.004 0.002,-0.008 0.002,-0.017c0,-0.026 -0.017,-0.046 -0.043,-0.046c0,0 -0.016,0 -0.02,0.003c0.004,-0.005 0.006,-0.013 0.006,-0.024c-0.00098,-0.02461 -0.02042,-0.04448 -0.045,-0.046c-0.011,0 -0.02,0.002 -0.027,0.009v-0.007c0.00027,-0.01247 -0.00443,-0.02453 -0.01306,-0.03353c-0.00863,-0.009 -0.02048,-0.01421 -0.03294,-0.01447c0,0 -0.028,0.01 -0.037,0.02c-0.00485,-0.02238 -0.02512,-0.03801 -0.048,-0.037c0,0 -0.033,0.013 -0.041,0.03c-0.00583,-0.01933 -0.02382,-0.03241 -0.044,-0.032c-0.01113,-0.00056 -0.02198,0.00354 -0.02996,0.01133c-0.00797,0.00778 -0.01234,0.01854 -0.01204,0.02967c-0.006,-0.02 -0.024,-0.035 -0.043,-0.035c-0.02143,0.00009 -0.0402,0.01437 -0.046,0.035c-0.004,-0.017 -0.022,-0.026 -0.037,-0.026c-0.01131,-0.00054 -0.02236,0.00351 -0.03064,0.01122c-0.00828,0.00772 -0.0131,0.01846 -0.01336,0.02978v0.007l-0.002,-0.002h-0.013c0.013,-0.015 0.017,-0.033 0.017,-0.057c0,-0.054 -0.037,-0.1 -0.092,-0.108v-0.048h0.029c0.00138,0.00818 0.00609,0.01542 0.013,0.02c0.022,0 0.033,-0.007 0.033,-0.02c0.015,0 0.022,-0.009 0.022,-0.02c0,-0.013 -0.007,-0.024 -0.022,-0.026c0,-0.009 -0.011,-0.017 -0.024,-0.017c0,0 -0.02,0.008 -0.022,0.017h-0.029v-0.032c0.014,-0.003 0.018,-0.011 0.018,-0.024c0,-0.013 -0.007,-0.02 -0.018,-0.022c-0.0002,-0.00862 -0.00299,-0.01698 -0.008,-0.024c-0.027,0 -0.035,0.01 -0.037,0.024c-0.011,0.002 -0.022,0.009 -0.022,0.022c0,0.013 0.01,0.021 0.02,0.024v0.032h-0.027c-0.00269,-0.00996 -0.01168,-0.01691 -0.022,-0.017c0,0 -0.02,0.008 -0.022,0.017c-0.013,0.002 -0.024,0.013 -0.024,0.026c0,0.011 0.011,0.02 0.024,0.022c0,0.01 0.011,0.017 0.011,0.017c0.022,0 0.031,-0.006 0.033,-0.02h0.026v0.049c-0.05167,0.01034 -0.08914,0.05531 -0.09,0.108c0,0.018 0.005,0.03 0.012,0.044v0.004v-0.002c0.002,0.006 0.006,0.01 0.006,0.01h-0.01v0.003v-0.007c0,-0.023 -0.02,-0.04 -0.047,-0.04c-0.01684,-0.00024 -0.03219,0.0096 -0.039,0.025c-0.0055,-0.02083 -0.02446,-0.03526 -0.046,-0.035c-0.01967,0.00139 -0.03602,0.01569 -0.04,0.035c-0.00208,-0.02328 -0.02163,-0.04109 -0.045,-0.041c-0.017,0 -0.035,0.015 -0.044,0.033c-0.004,-0.018 -0.024,-0.03 -0.043,-0.03c-0.02,0 -0.042,0.014 -0.044,0.036c-0.00944,-0.01259 -0.02426,-0.02 -0.04,-0.02c-0.023,0 -0.04,0.022 -0.04,0.046v0.009c-0.01,-0.007 -0.02,-0.009 -0.02,-0.009c-0.036,0 -0.06,0.022 -0.06,0.046c0,0.01 0.007,0.02 0.01,0.024c-0.005,-0.003 -0.01,-0.003 -0.01,-0.003c-0.035,0 -0.054,0.02 -0.054,0.046c0,0.009 0.002,0.013 0.002,0.017l-0.037,0.003c0,-0.022 -0.018,-0.037 -0.042,-0.037c-0.02331,0.00102 -0.04198,0.01969 -0.043,0.043c-0.007,-0.01 -0.018,-0.015 -0.033,-0.015c-0.022,0 -0.044,0.02 -0.044,0.041c0,0.005 0,0.009 0.002,0.015c-0.006,-0.008 -0.017,-0.013 -0.017,-0.013c-0.035,0 -0.057,0.02 -0.057,0.046c0,0.007 0.004,0.015 0.009,0.022c-0.005,-0.002 -0.011,-0.002 -0.016,-0.002c-0.028,0 -0.048,0.02 -0.048,0.045c0,0.015 0.007,0.029 0.016,0.04c-0.02166,0.00422 -0.03747,0.02294 -0.038,0.045c0,0.022 0.014,0.04 0.031,0.046c-0.01314,0.0078 -0.02142,0.02173 -0.022,0.037c0,0.028 0.024,0.05 0.048,0.05l0.011,-0.003c-0.00811,0.0079 -0.01279,0.01868 -0.013,0.03c0,0.016 0.013,0.031 0.022,0.042c-0.028,0.002 -0.044,0.015 -0.046,0.028c-0.002,0.011 0.002,0.018 0.011,0.024c0.00283,0.00129 0.00589,0.00198 0.009,0.002c0,0 0.02,0 0.026,-0.002c0,0 0.015,-0.004 0.024,-0.004c0,0 0.03,0.006 0.059,0.033v0.004c0.00679,0.01434 0.01482,0.02806 0.024,0.041c0.046,0.037 0.09,0.091 0.125,0.096l0.015,0.002c0.002,0.002 -0.002,0.009 -0.002,0.013c0,0.009 0.002,0.013 0.002,0.013c0.009,0.009 0.013,0.01 0.013,0.01h0.011v0.042c-0.033,0.005 -0.048,0.026 -0.042,0.046c0.003,0.017 0.018,0.03 0.042,0.032v0.035l-0.002,0.002c-0.013,0.003 -0.024,0.009 -0.024,0.02c0,0.004 0.002,0.01 0.004,0.015c0.00415,0.00235 0.00787,0.0054 0.011,0.009h0.009c0.21695,-0.05944 0.44106,-0.08871 0.666,-0.087c0.236,0 0.472,0.03 0.673,0.087h0.002c0.014,0 0.02,-0.013 0.02,-0.024c0,-0.011 -0.006,-0.017 -0.022,-0.02v-0.037c0.024,-0.004 0.035,-0.015 0.04,-0.032c0.002,-0.018 -0.01,-0.037 -0.04,-0.044v-0.043h0.002c0.01,0 0.02,-0.013 0.02,-0.024c0,-0.004 -0.004,-0.01 -0.01,-0.013c0.017,-0.002 0.036,-0.004 0.058,-0.009c0.02493,-0.0193 0.04568,-0.04345 0.061,-0.071c0.005,-0.01 0.007,-0.014 0.013,-0.018h0.005c0.013,0 0.028,-0.024 0.037,-0.041v-0.009c0.01667,-0.02016 0.04187,-0.03127 0.068,-0.03c0,0 0.026,0.002 0.046,0.006c0.006,0.002 0.02,-0.006 0.02,-0.02c0,-0.006 -0.007,-0.028 -0.055,-0.032c0.0161,-0.00722 0.02634,-0.02336 0.026,-0.041c-0.00021,-0.01132 -0.00489,-0.0221 -0.013,-0.03l0.01,0.002c0.03,0 0.049,-0.022 0.049,-0.05c0.00023,-0.01497 -0.00734,-0.02899 -0.02,-0.037zM239.771,203.431c-0.00165,0.49075 -0.40025,0.88755 -0.891,0.887h-5.048c-0.23577,0.0008 -0.46215,-0.0923 -0.62914,-0.25873c-0.16699,-0.16643 -0.26086,-0.3925 -0.26086,-0.62827c0,-0.487 0.398,-0.884 0.89,-0.884h5.048c0.48959,-0.00056 0.8877,0.39442 0.891,0.884M239.771,205.853c-0.0022,0.49004 -0.40096,0.88566 -0.891,0.884h-5.048c-0.32309,0.01087 -0.62641,-0.1553 -0.79117,-0.43344c-0.16477,-0.27814 -0.16477,-0.62398 0,-0.90212c0.16477,-0.27814 0.46808,-0.44431 0.79117,-0.43344h5.048c0.48998,-0.00056 0.88825,0.39503 0.891,0.885M238.88,182h-1.664v-1.595c0,-0.23541 -0.09379,-0.46112 -0.26062,-0.62721c-0.16684,-0.16609 -0.39297,-0.25886 -0.62838,-0.25779c-0.23569,-0.00106 -0.46213,0.09161 -0.62944,0.25761c-0.16731,0.166 -0.26177,0.3917 -0.26256,0.62739v1.595h-1.604c-0.48926,-0.00056 -0.8868,0.39474 -0.889,0.884c0,0.489 0.398,0.887 0.89,0.887h1.603v1.651c0,0.491 0.4,0.887 0.892,0.887c0.494,0 0.89,-0.396 0.89,-0.887v-1.651h1.662c0.49114,0.00111 0.89035,-0.39586 0.892,-0.887c-0.0033,-0.48997 -0.40202,-0.88511 -0.892,-0.884" fill="#dba51d"/><path d="M236.617,182.893c0,0.16348 -0.13252,0.296 -0.296,0.296c-0.16348,0 -0.296,-0.13252 -0.296,-0.296c0,-0.16348 0.13252,-0.296 0.296,-0.296c0.16348,0 0.296,0.13252 0.296,0.296M236.617,180.707c-0.01267,0.15407 -0.14141,0.27265 -0.296,0.27265c-0.15459,0 -0.28333,-0.11858 -0.296,-0.27265c0,-0.16348 0.13252,-0.296 0.296,-0.296c0.16348,0 0.296,0.13252 0.296,0.296M236.617,185.196c-0.01267,0.15407 -0.14141,0.27265 -0.296,0.27265c-0.15459,0 -0.28333,-0.11858 -0.296,-0.27265c0,-0.16348 0.13252,-0.296 0.296,-0.296c0.16348,0 0.296,0.13252 0.296,0.296M234.065,182.658c0.16292,0 0.295,0.13208 0.295,0.295c0,0.16292 -0.13208,0.295 -0.295,0.295c-0.16292,0 -0.295,-0.13208 -0.295,-0.295c0,-0.16292 0.13208,-0.295 0.295,-0.295M238.576,182.658c0.164,0 0.297,0.132 0.297,0.295c0,0.16348 -0.13252,0.296 -0.296,0.296c-0.16348,0 -0.296,-0.13252 -0.296,-0.296c0,-0.163 0.133,-0.295 0.295,-0.295" fill="#9a7417"/><path d="M241.784,176.136c-0.966,0 -1.749,-2.027 -1.749,-3h6.882c0,0.973 -0.787,3 -1.753,3h-3.38" fill="#343434"/><path d="M240.774,175.36c-0.389,-0.589 -0.662,-1.404 -0.723,-1.993c2.26869,0.36643 4.58216,0.35765 6.848,-0.026l-0.008,0.013l-6.117,2.006" fill="#1f2020"/><path d="M263.847,156.166c1.062,0.679 1.763,1.835 1.763,3.15c0,2.088 -1.772,3.783 -3.957,3.783c-0.061,0 -0.125,-0.004 -0.188,-0.004c-3.538,6.308 -10.318,10.576 -18.098,10.576c-7.5101,0.01014 -14.43794,-4.04373 -18.108,-10.596c-0.147,0.015 -0.289,0.024 -0.437,0.024c-2.186,0 -3.958,-1.695 -3.958,-3.783c0,-1.411 0.809,-2.641 2.004,-3.288c-0.138,-0.97 -0.216,-1.954 -0.216,-2.958c0,-11.376 9.278,-20.596 20.716,-20.596c11.44,0 20.71,9.22 20.71,20.596c0,1.054 -0.078,2.087 -0.231,3.097" data-paper-data="{&quot;origPos&quot;:null}" fill="#e7c69d"/><path d="M238.95,150.552c0,0 -0.48,1.695 -1.992,1.36c-0.738,-0.164 -0.868,-1.13 -3.238,-0.697c-0.745,0.17 -2.312,1.087 -2.614,1.7c-0.302,0.613 -0.084,-2.248 2.35,-3.312c1.756,-0.634 2.351,-0.603 3.805,-0.603c1.453,0 1.901,0.853 1.69,1.552M249.05,150.552c0,0 0.48,1.695 1.992,1.36c0.738,-0.164 0.868,-1.13 3.238,-0.697c0.745,0.17 2.312,1.087 2.614,1.7c0.302,0.613 0.084,-2.248 -2.35,-3.312c-1.756,-0.634 -2.351,-0.603 -3.805,-0.603c-1.453,0 -1.901,0.853 -1.69,1.552M237,158c0,1.657 -0.895,3 -2,3c-1.105,0 -2,-1.343 -2,-3c0,-1.657 0.895,-3 2,-3c1.105,0 2,1.343 2,3M255,158c0,1.657 -0.895,3 -2,3c-1.105,0 -2,-1.343 -2,-3c0,-1.657 0.895,-3 2,-3c1.105,0 2,1.343 2,3" fill="#2c2c2d"/><path d="M241,161c0,0 0.207,-1.042 0.504,-1.342c0.801,-1.195 2.491,-1.658 2.491,-1.658c0,0 2.175,0.727 2.654,1.641c0.443,0.852 0.341,1.28 0.341,1.28c0,0 -2.125,-1.934 -2.965,-1.816c-1.127,0.158 -3.025,1.895 -3.025,1.895z" fill="#e2a86e"/><path d="M237.2,163.696c0,0 6.897,3.208 13.172,-0.397c0,0 -1.39,5.47 -5.95,5.561c-4.115,0.122 -4.984,-1.492 -5.477,-1.956c-0.492,-0.463 -1.42,-1.772 -1.745,-3.208" fill="#e2a86e"/><path d="M264.901,150.384c0.037,2.419 -0.816,7.654 -2.476,10.774c0,0 -4.073,-11.46 -7.428,-13.28c-4.099,-2.218 -14.913,0.98 -18.58,-1.895c-0.608,-0.48 -0.538,-1.56 -0.538,-1.56c0,0 -0.701,1.378 -1.04,1.763c-1.778,2.01 -6.383,4.919 -8.57,6.482c-1.757,1.256 -1.838,1.24 -1.449,8.49c0,0 -3.23,-6.595 -3.05,-11c0.048,-1.267 0.668,-4.081 1.674,-6.943c3.78396,-7.53311 11.49793,-12.28312 19.928,-12.271c10.026,0 18.502,6.595 21.286,15.657c0.13915,1.25658 0.2199,2.51894 0.242,3.783" fill="#2c2c2d"/><path d="M267.86,128.15l-2.967,22.024h-43.224l-2.97,-22.024c24.633,-8.379 49.16,0 49.16,0z" fill="#343434"/><path d="M245.004,130.397h-1.35v3.931h-0.741v-3.931h-1.363v-0.737h1.362v-1.463h0.742v1.464h1.35z" fill="#f6b90c"/></g></g></svg>