<svg xmlns="http://www.w3.org/2000/svg" width="68.31" height="119.818"><g fill-rule="evenodd" stroke-miterlimit="10" data-paper-data="{&quot;isPaintingLayer&quot;:true}" style="mix-blend-mode:normal"><path fill="#98d3d8" d="M28.612 65.138c2.292 3.469-26.89-5.065-24.236-15.904 3.404-13.895 20.366 11.558 23.88 15.365z"/><path fill="#86ccd1" d="M21.646 56.305c2.227 2.509 5.505 6.031 6.987 8.99.71 1.42-4.107.7-9.227-1.468-.83-.351 3.909.488 4.449-1.139.638-1.92-2.591-6.813-2.21-6.383"/><path fill="#98d3d8" d="m27.922 65.755.455.223c2.93 1.44-20.32 7.378-22.79-1.076-3.166-10.838 18.438-.326 22.335.852z"/><path fill="#86ccd1" d="m27.867 65.755.455.223c1.417.696-3.283 2.443-8.796 3.108-.893.107 3.69-1.312 3.367-2.996-.383-1.987-5.552-4.291-5.01-4.107 4.338 1.471 8.48 3.317 9.984 3.771z"/><path fill="#98d3d8" d="M43.576 65.336c3.513-3.808 20.476-29.261 23.879-15.366C70.11 60.81 40.927 69.343 43.22 65.874z"/><path fill="#86ccd1" d="M50.186 57.041c.382-.43-2.847 4.464-2.21 6.384.54 1.626 5.28.787 4.45 1.138-5.12 2.168-9.938 2.888-9.227 1.469 1.48-2.96 4.76-6.482 6.987-8.99"/><path fill="#98d3d8" d="M43.91 66.491c3.897-1.179 25.5-11.69 22.335-.852-2.47 8.454-25.72 2.516-22.79 1.076z"/><path fill="#86ccd1" d="M43.965 66.491c1.504-.455 5.646-2.3 9.983-3.772.543-.184-4.627 2.12-5.01 4.108-.323 1.684 4.26 3.103 3.368 2.995-5.514-.665-10.213-2.411-8.797-3.107z"/><path fill="#775a4c" d="M43.53 49.051c.525.354-.094 1.5-.094 1.507-.038 2.695-3.495 8.624-5.835 9.658-7.256 3.21-7.244-2.798-9.496-5.418-2.9-3.373.133-6.197 2.403-6.537 4.545-.684 13.016.787 13.022.79M38.218 89.309c.878-1.525 5.976-.921 7.648-.508 4.823 1.191.537 18.379-.513 22.718-2.777 11.476-6.767 3.556-6.114 1.576 1.85-5.606-1.721-22.569-1.021-23.786" data-paper-data="{&quot;origPos&quot;:null}"/><path fill="#210001" d="M36.534 115.18c2.083-5.456 5.33 1.582 7.597-.627.455-.444.592-.714.703-1.15.318-1.243.945 4.937.73 5.826-1.848-.456-1.177.398-1.3-.91-.015-.01-10.091 3.045-7.73-3.14" data-paper-data="{&quot;origPos&quot;:null}"/><path fill="#775a4c" d="M19.197 59.982c1.659-1.866 4.276-3.851 3.494-5.444-1.81-3.686-3.6-2.845-6.265.655C13.095 59.568 8.6 67.575 6.09 74.236H6.09c-.646 1.46-2.57 3.694-3.764 4.668-.366.298-3.61 2.998-1.63 2.246.798-.304 1.376-.708 2.124-1.214-.313.375-2.002 2.467-2.46 3.007-.323.384-.4.56-.342.626.668.762 3.652-2.837 3.652-2.833-.081 1.35-3.84 4.612-2.436 4.594.96-.012 2.41-2.862 3.36-3.629.359-.289-2.512 3.934-1.323 3.96 1.877-1.748 3.03-4.285 3.677-4.97.334 1.084.853 2.808 1.209 2.96.61.262 1.092.345.653-1.42-.172-.689-.135-1.449-.072-2.216.255-.759-.04-2.984.269-3.926 1.01-3.09 8.302-13.984 10.19-16.107m5.019 29.917c.878-1.525 5.976-.922 7.648-.509 4.822 1.191.537 18.379-.513 22.718-2.777 11.476-6.767 3.556-6.114 1.576 1.85-5.605-1.721-22.569-1.021-23.785m-9.476-60.9c7.09-25.72 48.287-10.679 42.76 9.545-7.218 26.415-47.936 9.235-42.76-9.545" data-paper-data="{&quot;origPos&quot;:null}"/><path fill="#fefefe" d="M49.456 35.611c1.048.346 3.916 2.785 1.816 5.154-2.098 2.365-5.23 1.2-5.827-.93-.584-2.083 1.31-5.116 4.01-4.224"/><path fill="#210001" d="M45.43 38.128c.345-.653.43-1.365 1.41-2.117 1.968-1.512 4.568-.112 5.858 1.607 1.138 1.517 2.605-.056 1.735.613-2.476 1.9-4.571-3.012-7.538-1.348-.083.045-1.472 1.261-1.464 1.245"/><path fill="#231916" d="M49.564 36.786c.752.248 2.812 2 1.304 3.7-1.507 1.699-3.755.862-4.184-.668-.42-1.495.94-3.672 2.88-3.032"/><path fill="#fefefe" d="M26.344 27.976c2.7.892 2.454 4.47.764 5.801-1.727 1.362-4.936.433-5.245-2.728-.308-3.164 3.433-3.42 4.48-3.073"/><path fill="#231916" d="M26.188 29.36c1.864.616 1.694 3.085.527 4.004-1.192.94-3.406.299-3.62-1.883-.212-2.183 2.37-2.36 3.093-2.12"/><path fill="#210001" d="M28.309 32.43c-.004.016-.244-1.636-.274-1.716-1.055-2.892-5.336-.787-5.92-3.549-.204-.972-.118.97 1.538.611 1.879-.407 4.223.162 4.685 2.358.23 1.093.115 1.646-.03 2.296"/><path fill="#f1c28c" d="M35.655 34.543c.946.348-1.641-.972-2.884 1.646-1.242 2.616 1.46 4.729-.013 3.36-2.544-2.363-1.087-6.471 2.897-5.006"/><path fill="#a05a22" d="M47.915 30.486c-.184.072-.088.134-.156.28.179.358.615.129.923.156 1.109.097 2.388.772 3.15 1.584.898.955 1.29.799 1.186.363-.578-2.424-2.965-3.215-5.103-2.383m-17.303-5.865c.107.167-.008.161-.038.319-.353.182-.571-.263-.835-.425-.952-.583-2.38-.803-3.47-.603-1.282.235-1.507-.125-1.167-.415 1.884-1.61 4.273-.823 5.51 1.124"/><path fill="#fefefe" d="M48.324 37.82c.292.097 1.09.777.505 1.437-.584.659-1.457.334-1.624-.259-.163-.581.366-1.426 1.119-1.178m-22.497-7.082c.292.097 1.09.777.505 1.437-.584.659-1.457.334-1.624-.26-.163-.58.366-1.426 1.119-1.177"/><path fill="#ee8785" d="M29.59 41.61c.075-.606 2.088.811 3.804 1.386 2.07.695 4.218 1.151 3.86 1.515-6.341 6.443-7.846-1.401-7.663-2.901"/><path fill="#d76b6c" d="M30.74 45.734c.773-1.272 3.138-.37 3.226 1.106-.537.135-1.195.237-1.804.046-.62-.195-1.103-.753-1.422-1.153"/><path fill="#aa3e0a" d="M20.82 44.776c.013-.883-7.751-2.469-9.624-11.529C8.245 18.964 19.268 3.643 46.35 8.744 64.592 12.18 72.466 53.15 63.86 68.138c-.427.742-17.354-14.122-22.672-15.222 4.256-4.762 8.104-1.302 12.562-8.258 10.698-16.69-9.557-21.116-11.67-27.727-5.292 4.595-16.327 4.124-19.872 7.129-3.967 3.362-10.605 9.218-1.39 20.716"/><path fill="#210001" d="M22.532 115.769c2.082-5.456 5.33 1.582 7.596-.627.456-.444.593-.714.704-1.149.319-1.243.945 4.936.73 5.825-1.848-.456-1.177.399-1.3-.91-.016-.01-10.092 3.045-7.73-3.139"/><path fill="#775a4c" d="M48.448 59.701c-1.714-1.817-4.568-3.822-3.65-5.34 1.607-2.655.59-1.822 3.887-2.145 1.032-.101 3.004 2.256 4.767 5.114 3.142 5.096 7.219 11.408 8.504 16.236.688 1.441 2.674 3.617 3.897 4.556.374.287 3.694 2.891 1.694 2.197-.808-.279-1.396-.667-2.158-1.151.324.366 2.072 2.408 2.544 2.934.335.375.417.548.36.616-.646.781-3.73-2.73-3.73-2.724.119 1.346 3.969 4.497 2.565 4.52-.962.015-2.491-2.79-3.463-3.53-.365-.278 2.625 3.859 1.437 3.919-1.926-1.692-3.151-4.193-3.818-4.86-.303 1.094-.772 2.832-1.124 2.995-.603.279-1.081.376-.693-1.401.15-.693.094-1.452.007-2.217-.275-.752-.045-2.984-.38-3.916-1.098-3.06-8.698-13.736-10.646-15.803" data-paper-data="{&quot;origPos&quot;:null}"/><path fill="#fefefe" d="M35.572 44.587c-.582-.156-5.124-1.575-5.198-2.1-.004-.025-.161-.542-.22-.942 1.122.282 6.733 2.546 6.725 2.569-.286.774-.88.588-1.307.473"/><path fill="#210001" d="M56.465 36.591c.875-4.2-.948-14.646-4.572-18.27-9.151-9.15-24.75-7.012-31.604 4.347-.98 1.625 3.078-10.539 10.624-12.713 11.36-3.274 28.368 3.22 28.12 17.489-.018 1.097-.171 6.031-2.568 9.147"/><path fill="#210001" d="M53.549 18.113c-.043.093-.607-.843-.53-1.053 3.379-9.19 5.753-7.053 5.177-6.453-3.563 3.719-2.548 2.783-4.648 7.506m-19.293-6.374c-.021.101.982-.318 1.042-.534 2.652-9.43-.513-9.123-.4-8.296.698 5.127.428 3.767-.642 8.83"/><path fill="#210001" d="M59.889 8.324c.738.281 1.41 3.617-3.094 2.13.42-4.737 2.954-2.183 3.094-2.13M34.733.014c-.76-.214-3.252 2.077 1.25 3.564C38.415-.493 34.877.054 34.733.014"/><path fill="#f9c000" d="M42.14 51.974c3.024-.537 6.116-.469 8.574.538 6.76 2.768 11.918 7.857 5.677 14.883-1.458 1.64-2.074 2.57-3.38 1.946 1.09 15.185.825 37.204-8.38 43.714-1.36.45-3.844.1-5.581-.801-4.681-2.432-3.09-19.903-4.48-17.415-1.337 2.395-.208 16.202-3.027 16.405-2.55.185-4.228 1.896-5.892.721-5.22-3.683-11.253-28.514-9.946-45.508-1.252.195-1.673-.833-2.707-2.655-5.642-9.936 10.133-15.995 15.144-14.363.792 1.77 1.616 4.8 5.417 6.204 4.003 1.48 8.414-3.64 8.58-3.669"/><path fill="#231916" d="M15.705 66.457c.374-.068 9.853 5.61 18.616 5.61 8.67 0 15.82-2.726 18.69-2.726.103 1.525.14 2.126.186 2.901-.94 1.165-6.755 2.15-10.836 2.427-2.501.169-7.566 1.253-12.43.572-5.575-.78-11.023-3.495-14.373-6.023zm-.125 7.951c.374-.069 10.074 5.81 18.838 5.81 8.67 0 16.115-2.973 18.985-2.973.104 1.526.006 2.325.052 3.1-.94 1.165-6.916 2.198-10.997 2.475-2.5.17-7.566 1.253-12.43.573-5.574-.78-11.023-3.495-14.373-6.023z"/><path fill="#231916" d="M16.248 82.734c.373-.07 10.477 5.931 19.24 5.931 8.67 0 15.042-3.638 17.913-3.638.103 1.526-.065 3.382-.02 4.157-1.738 2.155-10.886 3.541-16.22 3.51-8.914-.054-15.547-3.188-20.436-6.878zm12.293-33.17c1.07-.196 2.963 5.692 6.106 6.327 2.975.6 6.114-3.19 7.493-3.917 1.512 8.767-14.512 14.724-13.6-2.41" data-paper-data="{&quot;origPos&quot;:null}"/><path fill="#aa3e0a" d="M44.616 42.194c.105.336.595.163.47-.154-.17-.43-.504.046-.47.154m-1.35 1.148c.106.336.595.163.47-.154-.17-.431-.503.045-.47.154m1.566.406c-.35-.022-.302-.543.033-.497.455.061.079.504-.033.497m1.215-.489c-.35-.021-.302-.543.033-.498.454.062.079.505-.033.498m-.492 1.23c-.35-.022-.302-.543.033-.498.455.062.079.505-.033.498m-.723.677c-.35-.022-.301-.543.033-.498.455.062.079.505-.033.498m-.813-.64c-.348-.021-.302-.542.033-.497.455.061.079.504-.033.497m-1.37-.581c-.348-.021-.302-.543.034-.498.454.062.078.505-.034.498m2.994 2.047c-.35-.022-.302-.543.033-.498.455.062.079.505-.033.498m1.297-1.654c-.348-.022-.301-.544.034-.498.454.061.078.504-.034.498m-.55.901c-.35-.021-.302-.543.033-.497.455.061.079.504-.033.497m-4.14-2.574c-.348-.022-.302-.543.034-.498.455.062.078.505-.034.498m4.858 3.331c-.35-.022-.301-.543.033-.498.455.062.079.505-.033.497m-3.76-4.116c.348.022.302.544-.034.498-.454-.061-.078-.505.034-.498m-19.325-6.061c.105.337.595.164.47-.153-.17-.431-.503.045-.47.153m-1.35 1.148c.106.337.596.164.47-.153-.17-.431-.503.045-.47.153m1.566.406c-.348-.021-.301-.542.033-.497.455.062.079.504-.033.497m1.215-.488c-.35-.022-.302-.543.033-.498.455.062.079.505-.033.498m-.492 1.23c-.35-.022-.301-.544.033-.498.455.062.079.505-.033.498m-.723.676c-.348-.021-.301-.542.033-.497.455.062.079.504-.033.497m-.813-.639c-.348-.022-.301-.543.034-.497.455.061.078.504-.034.497m-1.37-.581c-.348-.022-.301-.544.034-.498.455.061.079.504-.034.498m2.994 2.046c-.35-.021-.301-.542.033-.497.455.062.079.505-.033.497m1.298-1.654c-.35-.021-.302-.543.033-.498.454.062.079.505-.033.498m-.551.902c-.348-.022-.301-.543.033-.497.455.061.079.504-.032.497m-4.14-2.574c-.35-.022-.302-.544.033-.498.455.062.079.505-.034.498m4.859 3.331c-.35-.022-.302-.544.032-.498.455.061.08.504-.032.497m-3.761-4.116c.349.022.302.543-.034.498-.455-.062-.078-.505.035-.498"/></g></svg>