<svg xmlns="http://www.w3.org/2000/svg" width="57.596" height="117.784"><g fill-rule="evenodd" stroke-miterlimit="10" data-paper-data="{&quot;isPaintingLayer&quot;:true}" style="mix-blend-mode:normal"><path fill="#9e6d3f" d="M50.661 58.907c3.622 4.618 5.006 18.506 5.006 18.506l-.012-.06c.46.678.79 1.554.9 2.53.246 2.316-.866 4.34-2.486 4.512-1.054.11-2.066-.594-2.712-1.744-.596.494-1.184.694-1.612.464-.792-.416-.696-2.15.208-3.868.356-.648.764-1.21 1.184-1.63.048-.07.08-.136.114-.204 0 0-1.572-10.034-3.238-12.408-.85-1.188-1.388-1.852-1.582-2.386-.156-.416-.32-1.228-.388-1.532-.534-2.384-3.488-7.758-3.488-7.758s6.344 3.328 8.106 5.578M1.852 43.438c1.18-.502 2.598-.042 3.75 1.064.518-.786 1.142-1.224 1.71-1.11 1.068.21 1.564 2.254 1.122 4.554-.172.89-.456 1.686-.806 2.312-.05.298-.118.57-.204.82l5.42 6.376 11.496-4.126s-1.952 3.106-2.43 4.234c-.358.826-1.034 3.438-1.034 3.438s-8.402 3.41-10.782 2.55c-2.952-1.07-6.332-10.666-6.332-10.666-1.266-.448-2.496-1.668-3.2-3.334-1.104-2.608-.534-5.346 1.29-6.112" data-paper-data="{&quot;origPos&quot;:null}"/><path fill="#9e6d3f" d="M8.5 47.66c-.33 2.209-1.422 3.873-2.442 3.719-1.022-.148-1.58-2.062-1.25-4.272.328-2.208 1.426-3.868 2.442-3.716 1.024.148 1.586 2.062 1.25 4.27" data-paper-data="{&quot;origPos&quot;:null}"/><path fill="#333433" d="M43.452 111.91c1.778 1.095 3.068 3.413 1.546 5.24-1.15 1.285-2.838.307-4.124-.233-1.424-.678-3.052-1.134-4.334-2.016-.836-.584-1.808-1.276-2.368-2.142-.178-.268-.262-.584-.19-.848h9.47zm-20.24 0c-1.769 1.095-3.067 3.413-1.543 5.24 1.156 1.285 2.834.307 4.122-.233 1.424-.678 3.048-1.134 4.334-2.016.832-.584 1.806-1.276 2.366-2.142.18-.268.26-.584.192-.848h-9.472z"/><path fill="#226380" d="m45.59 86.118-1.942 25.858h-9.806l-.364-18.7h-.292l-.368 18.7h-9.806L21.08 86.118z"/><path fill="#565657" d="M14.307 56.594s2.376-1.098 10.49-3.512c2.244-1.08 6.794-1.342 6.794-1.342l1.718.058h.152l1.726-.02s5.156.206 7.202 1.464v.012c7.956 3.062 10.284 8.054 10.284 8.054-.822 3.212-5.388 3.212-5.388 3.212l-.452-.648c1.986 9.776 2.238 22.24 2.238 22.24h-31.36s.424-15.022 2.996-25.002l-5.05 1.956s-2.17-3.762-1.35-6.472"/><path fill="#e63744" d="M44.385 53.481c2.424 7.7 6.606 28.322 4.712 32.89-1.948 2.148-14.342.086-15.566-.116-1.218.202-13.628 2.264-15.57.116-1.892-4.568 2.286-25.19 4.714-32.89 1.368-1.176 6.508-1.546 6.508-1.546l4.348 5.756 4.348-5.756s5.132.37 6.506 1.546"/><path fill="#ba3b4b" d="M42.634 61.265h3.354v3.61h-3.354zm0 7.16h3.354v3.42h-3.354zm0 6.962h3.354v3.542h-3.354zm0 7.094h3.354v3.356h-3.354zm-7.096-21.216h3.62v3.61h-3.62zm0 7.16h3.62v3.42h-3.62zm0 6.962h3.62v3.542h-3.62zm0 7.094h3.62v3.356h-3.62zm-6.956-21.216h3.42v3.61h-3.42zm0 7.16h3.42v3.42h-3.42zm0 6.962h3.42v3.542h-3.42zm0 7.094h3.42v3.356h-3.42zm-7.098-21.216h3.61v3.61h-3.61zm0 7.16h3.61v3.42h-3.61zm0 6.962h3.61v3.542h-3.61zm0 7.094h3.61v3.356h-3.61zm28.056.001v1.878c-.136.836-.228 1.518-.43 2.012-1.946 2.146-14.356.094-15.578-.112-1.22.206-13.63 2.266-15.57.12a4.65 4.65 0 0 1-.182-.542h.164v-3.356h-.46a41.53 41.53 0 0 1 .184-3.552h.276v-2.488c.712-6.018 2.186-13.344 3.54-18.66v.004h3.61V54.43h-2.71c.094-.322.194-.648.29-.948 1.37-1.176 6.51-1.548 6.51-1.548l1.882 2.496h-2.484v3.356h3.42V55.68l1.542 2.012 1.996-2.628v2.722h3.618V54.43h-3.17l1.892-2.496s5.132.372 6.506 1.548c.088.3.188.626.286.948h-2.036v3.355h2.938c1.856 7.288 3.962 18.378 3.996 24.696h-.03z"/><path fill="#343434" d="M20.64 61.266c.26-1.164.537-2.324.83-3.48h.015v3.48zm7.942-6.835h-3.488v-1.902c1.228-.292 2.706-.462 3.488-.54zm-3.516 3.35h3.5v3.5h-3.5zm6.946 0h3.502v3.5h-3.502zm10.623-3.351H39.16v-2.374c.962.116 2.384.324 3.476.648zm-3.477 3.351h3.498v3.5h-3.498zm6.83 1.741c.137.568.293 1.162.43 1.744h-.43v-1.744m-26.82 8.902c.212-1.186.442-2.369.687-3.548h1.63v3.548zm5.898-3.547h3.5v3.543h-3.5zm6.946 0h3.502v3.543h-3.502zm7.146 0h3.498v3.543h-3.498zm8.042-.002c.234 1.164.47 2.324.688 3.548H45.99v-3.548h1.21M21.484 75.389h-3.426c.152-1.158.33-2.384.52-3.544h2.907v3.545zm3.582-3.568h3.5v3.546h-3.5zm6.946 0h3.502v3.546h-3.502zm7.146 0h3.498v3.546h-3.498zm9.317.023c.194 1.178.368 2.36.522 3.544H45.99v-3.544h2.486m-30.543 7.121h3.538v3.495h-3.538zm7.134 0h3.5v3.495h-3.5zm6.946 0h3.502v3.495h-3.502zm7.146 0h3.498v3.495h-3.498zm10.381 3.517h-3.55V78.93h3.4c.048.584.084 1.098.15 1.602zm-31.595 3.354h3.542v1.48c-1.678-.082-2.986-.358-3.516-.944-.008-.036-.026-.062-.026-.096zm10.638 1.114c-1.16.134-2.323.237-3.488.308v-1.422h3.488v1.114m3.42-1.113h3.538v.726c-1.028-.142-1.75-.27-1.996-.308-.216.034-.774.128-1.542.238zm10.633 1.456a61.022 61.022 0 0 1-3.476-.274v-1.184h3.476v1.458m6.64-1.457a3.664 3.664 0 0 1-.184.542c-.493.54-1.614.802-3.103.91v-1.452z"/><path fill="#9b1826" d="m47.108 77.709-7.426-.642v3.664a3.618 3.618 0 0 0 3.628 3.624h.174a3.627 3.627 0 0 0 3.624-3.624V77.71zm-27.61 0 7.43-.642v3.664a3.628 3.628 0 0 1-3.625 3.624h-.182a3.622 3.622 0 0 1-3.624-3.624V77.71z"/><path fill="#343434" d="m33.532 57.691.164-.212v28.8c-.07-.014-.12-.02-.164-.024-.04.004-.092.01-.16.024v-28.8z"/><path fill="#9e6d3f" d="M56.555 79.633c.246 2.312-.86 4.328-2.476 4.5-1.052.11-2.066-.594-2.702-1.738-.592.492-1.186.692-1.608.464-.79-.414-.69-2.146.208-3.852a6.413 6.413 0 0 1 1.186-1.628c.04-.079.082-.157.126-.234l4.378.006c.466.67.776 1.506.888 2.482M33.543 55.707l3.764-4.03c-1.128-.116-1.944-.152-1.944-.152l-1.738.072h-.134l-1.738-.094s-.9.04-2.108.18l3.898 4.025zm22.145-24.433c1.156.734 1.908 2.002 1.908 3.434 0 2.276-1.912 4.132-4.294 4.132-.07 0-.136 0-.206-.008-3.846 6.894-11.2 11.56-19.656 11.56s-15.826-4.674-19.666-11.578a4.118 4.118 0 0 1-.476.026c-2.37 0-4.3-1.856-4.3-4.132 0-1.536.88-2.882 2.174-3.59a23.294 23.294 0 0 1-.226-3.228c0-12.424 10.07-22.502 22.494-22.502 12.426 0 22.502 10.078 22.502 22.502a23.69 23.69 0 0 1-.254 3.384" data-paper-data="{&quot;origPos&quot;:null}"/><path fill="#343434" d="M26.937 27.846c-.772-.174-.908-1.201-3.386-.74-.779.18-2.417 1.156-2.732 1.808-.316.652-.088-2.392 2.457-3.522 1.835-.675 2.457-.642 3.977-.642s1.987.907 1.766 1.65c0 0-.503 1.803-2.082 1.446zm13.905 0c.772-.174.908-1.201 3.386-.74.78.18 2.417 1.156 2.732 1.808.316.652.087-2.392-2.457-3.522-1.835-.675-2.457-.642-3.977-.642s-1.987.907-1.766 1.65c0 0 .503 1.803 2.082 1.446zM24.708 36.75c-1.105 0-2-1.343-2-3s.895-3 2-3 2 1.343 2 3-.895 3-2 3zm18 0c-1.105 0-2-1.343-2-3s.895-3 2-3 2 1.343 2 3-.895 3-2 3z"/><path fill="#eeac6c" d="M33.728 36.819c-1.125.153-3.02 1.834-3.02 1.834s.207-1.009.503-1.299c.8-1.156 2.487-1.604 2.487-1.604s2.173.703 2.65 1.588c.443.824.34 1.238.34 1.238s-2.12-1.871-2.96-1.756z"/><path fill="#9b1826" d="M26.908 40.446s6.897 3.208 13.172-.397c0 0-1.39 5.47-5.95 5.561-4.115.122-4.984-1.492-5.477-1.956-.492-.463-1.42-1.772-1.745-3.208" data-paper-data="{&quot;origPos&quot;:null}"/><path fill="#fff" d="M24.888 33.118c0 1.394-.833 2.532-1.869 2.532-1.03 0-1.862-1.138-1.862-2.532 0-1.394.832-2.52 1.862-2.52 1.036 0 1.868 1.126 1.868 2.52m20.06 0c0 1.394-.839 2.532-1.873 2.532-1.024 0-1.858-1.138-1.858-2.532 0-1.394.834-2.52 1.858-2.52 1.034 0 1.872 1.126 1.872 2.52"/><path fill="#343434" d="M24.176 33.817c0 .868-.518 1.566-1.156 1.566-.634 0-1.156-.698-1.156-1.566 0-.86.522-1.558 1.156-1.558.638 0 1.156.698 1.156 1.558m20.062 0c0 .868-.52 1.566-1.163 1.566-.634 0-1.152-.698-1.152-1.566 0-.86.518-1.558 1.152-1.558.644 0 1.164.698 1.164 1.558"/><path fill="#333433" d="M56.83 25.215c.042 2.648-.888 8.364-2.69 11.766 0 0-4.422-12.516-8.07-14.498-4.448-2.428-16.194 1.064-20.176-2.068-.668-.53-.582-1.706-.582-1.706s-.768 1.502-1.136 1.92c-1.926 2.196-6.93 5.376-9.306 7.086-1.906 1.368-1.998 1.352-1.574 9.266 0 0-3.5-7.2-3.312-12.01.054-1.39.722-4.458 1.816-7.58C15.76 9.445 23.972 3.985 33.446 3.985c10.886 0 20.092 7.202 23.116 17.104a41.34 41.34 0 0 1 .268 4.126"/><path fill="#9e6d3f" d="M31.68 53.225c-1.042 0-1.894-2.256-1.894-3.29h7.478c0 1.034-.85 3.29-1.9 3.29H31.68" data-paper-data="{&quot;origPos&quot;:null}"/><path fill="#eeac6c" d="M30.59 52.528c-.422-.634-.718-1.532-.79-2.172 1.184.188 2.404.298 3.646.298a22.17 22.17 0 0 0 3.804-.328l-.012.014-6.648 2.188"/><path fill="#343434" d="M49.056 30.469c.388 1.386 1.126 4.928-.192 6.704-2.054 2.756-11.62-.93-13.758-3.622-.76-.964-.508-2.372-.252-3.098h-2.848c.256.726.514 2.146-.252 3.112-2.132 2.694-11.706 6.35-13.754 3.596-1.332-1.778-.59-5.306-.194-6.692l-1.84-1.334h34.902z"/><path fill="#515151" d="M21.362 30.487a.595.595 0 0 1-.182.822l-2.054 1.324a.587.587 0 0 1-.816-.176l-.004-.008a.579.579 0 0 1 .178-.812l2.058-1.332a.6.6 0 0 1 .82.176zm-.842 2.908c0 .36-.292.66-.666.66a.658.658 0 0 1-.654-.66c0-.37.29-.664.654-.664.374 0 .666.294.666.664"/><path fill="#7f4a1a" d="M10.573 21.778s8.112-7.262 22.724-7.262c12.036 0 23.192 7.262 23.192 7.262 0 11.618-6.09 8.93-11.528 6.91-11.664-4.324-11.664-4.324-23.668-.16-5.206 1.802-10.72 4.204-10.72-6.75"/><path fill="#ad6921" d="M10.512 21.806C8.166 19.452 16.004 0 33.726 0 50.908 0 59.02 19.27 56.488 21.805c-23.874-6.188-45.976 0-45.976 0"/></g></svg>