<svg xmlns="http://www.w3.org/2000/svg" width="65.404" height="118.267"><g fill-rule="evenodd" stroke-miterlimit="10" data-paper-data="{&quot;isPaintingLayer&quot;:true}" style="mix-blend-mode:normal"><path fill="#9b1826" d="M32.448 12.083C36.93-8.925 61.224.368 64.628 17.863c2.283 11.726-4.168 21.097-5.845 28.23-1.038 4.435-2.355 13.61 2.397 18.088-13.965-2.457-12.987-17.838-12.78-23.095.3-7.552-15.286-27.972-15.952-29.002"/><path fill="#e63744" d="M21.58 59.249c4.592-4.32 22.554-2.741 26.83 2.425 7.906 9.556 3.96 43.787 6.767 51.615-3.467 1.13-6.543-.84-10.884-.83-4.706.013-9.951.282-14.763.529-3.082.16-5.755-.38-8.226-.31-2.418.07-4.65.754-5.992.602 2.213-8.3-3.18-45.14 6.268-54.031"/><path fill="#ffdb80" d="M43.622 112.947c1.623 1.008 2.803 3.072 1.413 4.748-1.051 1.18-2.598.248-3.773-.25-1.298-.622-2.782-1.056-3.961-1.866-.758-.535-1.648-1.112-2.163-1.91-.16-.244-.232-.486-.176-.722h-.004l.013-11.478 9.103.205-.446 11.273h-.006m-9.841 0c.057.236-.018.478-.178.722-.513.798-1.405 1.375-2.165 1.91-1.175.81-2.66 1.244-3.957 1.867-1.175.497-2.722 1.429-3.775.249-1.392-1.676-.21-3.74 1.413-4.748h-.006l-.446-11.294 9.104-.116.008 11.41z" data-paper-data="{&quot;origPos&quot;:null}"/><path fill="#884b13" d="M33.844 112.93c.059.239-.066.48-.226.727-.515.794-1.451 1.375-2.208 1.91-.763.524-1.653.89-2.54 1.252-.111.047-.223.093-.333.137-.367.147-.73.305-1.087.474-1.174.499-2.722 1.43-3.773.25-.017-.023-.22-.273-.268-.381.98.43 3.036-.132 4.994-1.01-.27-1.038-3.493-1.518-5.138-1.27.181-.442.44-.85.762-1.202 4.552-.534 5.52 1.644 5.607 1.876 1.87-.98 3.392-2.107 3.413-2.762 0 0 .552-.773.787-.665l.01.664"/><path fill="#884b13" d="M33.779 111.704s-6.602 1.39-8.716 0c-.237.2-.172 1.027.048 1.244 1.574 1.522 8.735 0 8.735 0zm1.143 1.169-.004-.64c.222-.1.726.64.726.64.02.653 1.564 1.832 3.423 2.81.093-.227 1.056-2.408 5.614-1.87.324.36.592.77.76 1.203-1.644-.252-4.864.23-5.138 1.268 1.96.878 4.014 1.442 4.993 1.012a2.759 2.759 0 0 1-.266.375c-1.05 1.185-2.598.25-3.772-.246-.359-.168-.721-.326-1.087-.474-.111-.046-.224-.092-.333-.14-.886-.361-1.778-.73-2.54-1.251-.762-.537-1.652-1.116-2.163-1.912-.16-.244-.272-.541-.213-.775"/><path fill="#884b13" d="M34.91 112.948s7.163 1.522 8.736 0c.226-.217.287-1.044.048-1.244-1.897 1.51-8.735 0-8.735 0zm-1.111-1.265.069 1.244s-7.164 1.52-8.737 0c-.222-.217-.284-1.042-.046-1.244 2.11 1.392 8.715 0 8.715 0z"/><path fill="#884b13" d="M34.98 111.683s6.84 1.512 8.736 0c.235.202.174 1.027-.05 1.244-1.576 1.52-8.733 0-8.733 0l.046-1.244z"/><path fill="#653310" d="M26.494 101.784c-.637.64-2.96.64-3.597 0v-13.28h3.597z"/><path fill="#86522d" d="M25.257 100.36c-.2.199-.922.199-1.12 0V88.505h1.12z"/><path fill="#653310" d="M31.859 101.784c-.634.64-2.96.64-3.597 0v-13.28h3.597z"/><path fill="#86522d" d="M30.62 100.36c-.197.199-.92.199-1.12 0V88.505h1.12z"/><path fill="#653310" d="M41.412 101.784c-.637.64-2.96.64-3.597 0v-13.28h3.597z"/><path fill="#86522d" d="M40.173 100.36c-.2.199-.92.199-1.12 0V88.505h1.12z"/><path fill="#653310" d="M46.542 101.784c-.637.64-2.96.64-3.597 0v-13.28h3.597z"/><path fill="#86522d" d="M45.305 100.36c-.201.199-.924.199-1.12 0V88.505h1.12z"/><path fill="#884b13" d="M23.664 102.495c-.64.64-2.96.64-3.6 0v-13.28h3.6z"/><path fill="#ad642c" d="M22.425 101.072c-.197.2-.921.2-1.12 0V89.215h1.12z"/><path fill="#884b13" d="M29.737 102.495c-.637.64-2.96.64-3.597 0v-13.28h3.597z"/><path fill="#ad642c" d="M28.498 101.072c-.2.2-.92.2-1.12 0V89.215h1.12z"/><path fill="#884b13" d="M34.867 102.495c-.637.64-2.96.64-3.597 0v-13.28h3.597z"/><path fill="#ad642c" d="M33.63 101.072c-.201.2-.922.2-1.12 0V89.215h1.12z"/><path fill="#884b13" d="M38.169 102.495c-.637.64-2.96.64-3.597 0v-13.28h3.597z"/><path fill="#ad642c" d="M36.93 101.072c-.2.2-.92.2-1.12 0V89.215h1.12z"/><path fill="#884b13" d="M44.184 102.495c-.638.64-2.962.64-3.6 0v-13.28h3.6v13.28z"/><path fill="#ad642c" d="M42.945 101.072c-.2.2-.923.2-1.12 0V89.215h1.12z"/><path fill="#884b13" d="M48.783 102.495c-.637.64-2.963.64-3.597 0v-13.28h3.597z"/><path fill="#ad642c" d="M47.546 101.072c-.201.2-.926.2-1.12 0V89.215h1.12z"/><path fill="#ffdb80" d="M50.275 64.033c3.308 4.25 4.596 17.03 4.596 17.03s-.02-.018-.025-.055c.425.616.714 1.42.808 2.32.226 2.139-.798 3.995-2.274 4.155-.967.104-1.892-.547-2.48-1.604-.551.455-1.094.636-1.481.43-.727-.388-.643-1.98.193-3.558a6.07 6.07 0 0 1 1.084-1.5c.034-.067.065-.13.1-.19 0 0-1.436-9.232-2.972-11.418-.77-1.09-1.263-1.707-1.44-2.191-.14-.39-.294-1.135-.357-1.415-.494-2.192-3.18-7.135-3.18-7.135s5.816 3.06 7.428 5.13M5.59 49.798c1.083-.461 2.384-.038 3.435.98.475-.72 1.042-1.123 1.564-1.022.975.193 1.436 2.07 1.024 4.2a7.31 7.31 0 0 1-.737 2.122c-.04.265-.1.52-.185.755h.002l4.958 5.86 10.522-3.79s-1.786 2.853-2.23 3.895c-.323.758-.945 3.16-.945 3.16s-7.686 3.14-9.865 2.345c-2.7-.981-5.79-9.813-5.79-9.813-1.162-.417-2.282-1.53-2.93-3.07-1.012-2.4-.484-4.915 1.178-5.622" data-paper-data="{&quot;origPos&quot;:null}"/><path fill="#d18f1c" d="m6.918 58.657 4.206-2.224 2.398 2.98s-3.76 3.294-5.136 2.804c-.903-.32-1.468-3.56-1.468-3.56M55.15 80.914h-4.776l-.35-2.425s3.838-1.524 4.8-.78c.638.49.326 3.205.326 3.205"/><path fill="#d8bda0" d="M23.21 59.73c.99-.314 2.123-.663 3.413-1.05 2.052-.994 6.212-1.194 6.212-1.194l1.58.08h.135l1.583-.055s4.713.175 6.587 1.333v.002c.998.383 1.969.834 2.906 1.35-.44 2.16.582 6.035 1.013 7.652.07.467.15.785.15.785 1.816 8.996 1.944 20.598 1.944 20.598l-28.6-.116s.278-13.84 2.625-23.023c0 0 .846-3.39.452-6.362"/><path fill="#ffdb80" d="M37.48 57.597c.165.018.343.04.53.06 0 0-.566 3.762-3.564 3.762-2.758 0-3.438-3.773-3.438-3.773l.49-.048c-.268-.598-.431-1.276-.431-1.703h6.844c0 .427-.163 1.105-.431 1.703" data-paper-data="{&quot;origPos&quot;:null}"/><path fill="#eeac6c" d="M31.802 58.167a4.99 4.99 0 0 1-.72-2.004 20.4 20.4 0 0 0 6.814-.027l-.01.015-6.084 2.016"/><path fill="#d18f1c" d="M22.776 66.047c3.14-.261 3.415-7.215 3.415-7.215s0 .005-.008.015c.999-.664 2.92-1.013 4.445-1.192 0 0 .209 7.05 3.804 7.059 3.6.008 3.878-7.063 3.878-7.063 1.507.187 3.42.543 4.45 1.194l.005.01c.02 7.307 4.073 9.37 3.87 8.96 1.957 9.072 2.12 21.415 2.12 21.415s-4.072-.011-5.778.356c-1.826.393-4.454 2.1-8.354 2.1-3.613 0-6.296-1.726-8.053-2.1-1.888-.405-6.53-.356-6.53-.356s.398-14.008 2.736-23.182"/><path fill="#b5771c" d="M21.885 78.412c-.113.487-.553.88-1.076.897a1.065 1.065 0 0 0 1.066 1c.567 0 1.028-.434 1.065-1a1.167 1.167 0 0 1-1.055-.897m1.097-1.067c-.116.497-.544.86-1.053.894a1.067 1.067 0 0 0 2.132 0c-.526-.012-.966-.406-1.08-.894m1.124 1.067c-.114.487-.551.88-1.08.897a1.067 1.067 0 0 0 1.069 1c.565 0 1.028-.434 1.064-1a1.162 1.162 0 0 1-1.053-.897m1.097-1.067c-.118.497-.546.86-1.056.894a1.07 1.07 0 0 0 2.134 0c-.526-.012-.963-.406-1.078-.894m1.12 1.067c-.113.487-.553.88-1.08.897a1.07 1.07 0 0 0 2.135 0 1.17 1.17 0 0 1-1.055-.897m1.099-1.067a1.162 1.162 0 0 1-1.057.894 1.069 1.069 0 0 0 2.133 0 1.152 1.152 0 0 1-1.076-.894m1.12 1.067c-.113.487-.55.88-1.078.897a1.068 1.068 0 0 0 2.133 0 1.165 1.165 0 0 1-1.055-.897m1.097-1.067c-.118.497-.546.86-1.055.894a1.069 1.069 0 1 0 2.134 0c-.526-.012-.964-.406-1.08-.894m1.12 1.067c-.112.487-.55.88-1.077.897a1.066 1.066 0 0 0 1.066 1c.568 0 1.03-.434 1.068-1a1.167 1.167 0 0 1-1.056-.897m1.098-1.067a1.161 1.161 0 0 1-1.056.894 1.069 1.069 0 0 0 2.134 0c-.528-.012-.963-.406-1.078-.894m1.12 1.067c-.113.487-.551.88-1.08.897a1.068 1.068 0 0 0 1.069 1c.566 0 1.028-.434 1.068-1-.515-.027-.942-.417-1.057-.897m1.099-1.067c-.118.499-.549.862-1.06.894a1.077 1.077 0 0 0 1.07 1.005 1.072 1.072 0 0 0 1.068-1.005c-.528-.012-.963-.406-1.078-.894m1.12 1.067c-.115.487-.551.88-1.078.897.038.566.502 1 1.068 1 .563 0 1.028-.434 1.065-1a1.167 1.167 0 0 1-1.055-.897m1.097-1.067c-.117.497-.546.86-1.055.894a1.07 1.07 0 0 0 2.134 0c-.526-.012-.964-.406-1.08-.894m1.12 1.067c-.114.487-.551.88-1.077.897a1.068 1.068 0 1 0 2.134 0 1.167 1.167 0 0 1-1.056-.897m1.098-1.067a1.16 1.16 0 0 1-1.054.894 1.069 1.069 0 1 0 2.134 0c-.53-.012-.965-.406-1.08-.894m1.12 1.067c-.113.487-.551.88-1.077.897a1.068 1.068 0 0 0 2.134 0 1.17 1.17 0 0 1-1.057-.897m1.099-1.067c-.117.497-.546.86-1.055.894a1.07 1.07 0 0 0 1.067 1.005 1.075 1.075 0 0 0 1.068-1.005c-.527-.012-.967-.406-1.08-.894m1.12 1.067c-.116.487-.553.88-1.076.897.033.562.5 1 1.063 1 .568 0 1.03-.434 1.068-1a1.17 1.17 0 0 1-1.055-.897m1.099-1.067c-.117.497-.546.86-1.055.894a1.067 1.067 0 1 0 2.13 0 1.149 1.149 0 0 1-1.074-.894m1.117 1.067c-.111.487-.55.88-1.076.897a1.065 1.065 0 0 0 1.066 1c.566 0 1.028-.434 1.066-1a1.17 1.17 0 0 1-1.056-.897m1.1-1.067c-.114.48-.541.869-1.056.894a1.069 1.069 0 0 0 2.132 0c-.524-.012-.963-.406-1.076-.894m1.12 1.067c-.113.487-.551.88-1.076.897.033.562.5 1 1.063 1 .57 0 1.028-.434 1.068-1a1.167 1.167 0 0 1-1.055-.897m1.055 3.029c-.517-.025-.942-.416-1.055-.892-.113.482-.551.88-1.076.892a1.063 1.063 0 0 0 1.063 1.003 1.066 1.066 0 0 0 1.068-1.002m1.12 1.067a1.155 1.155 0 0 1-1.076-.895c-.113.478-.542.87-1.057.893.037.568.5 1.004 1.067 1.004.566 0 1.026-.434 1.066-1.002m0 2.137a1.16 1.16 0 0 1-1.076-.9c-.113.483-.542.872-1.057.895a1.07 1.07 0 0 0 2.133.005m0 2.134a1.16 1.16 0 0 1-1.076-.896c-.12.496-.548.858-1.057.894.037.567.5 1 1.067 1 .566 0 1.026-.433 1.066-.998m-2.188 2.066a1.066 1.066 0 0 0 1.068-1.002 1.167 1.167 0 0 1-1.055-.893c-.113.484-.551.883-1.076.893a1.063 1.063 0 0 0 1.063 1.002m-2.163-2.068a1.066 1.066 0 0 0 1.066 1c.567 0 1.026-.433 1.066-.998-.524-.016-.963-.412-1.076-.896a1.17 1.17 0 0 1-1.056.894m-.054 2.068a1.065 1.065 0 0 0 1.066-1.002 1.169 1.169 0 0 1-1.056-.893c-.111.484-.55.883-1.076.893a1.065 1.065 0 0 0 1.066 1.002m-2.163-2.068c.033.562.5 1.001 1.064 1 .567 0 1.027-.433 1.067-.998a1.161 1.161 0 0 1-1.076-.896 1.168 1.168 0 0 1-1.055.894m-.057 2.068a1.066 1.066 0 0 0 1.068-1.002c-.515-.026-.942-.417-1.055-.893-.116.484-.553.883-1.076.893a1.063 1.063 0 0 0 1.063 1.002m-1.095 1.067c.564 0 1.031-.44 1.068-1.002a1.16 1.16 0 0 1-1.08-.895c-.118.497-.546.86-1.055.895a1.067 1.067 0 0 0 1.067 1.002m-1.12-1.067c.564 0 1.03-.44 1.066-1.002a1.17 1.17 0 0 1-1.057-.893c-.113.484-.551.883-1.077.893a1.067 1.067 0 0 0 1.068 1.002m-1.1 1.067c.565 0 1.033-.439 1.069-1.002a1.16 1.16 0 0 1-1.08-.895c-.111.478-.54.87-1.054.895a1.065 1.065 0 0 0 1.066 1.002m-1.12 1.07c.565 0 1.033-.44 1.066-1.005a1.16 1.16 0 0 1-1.056-.894c-.115.486-.552.88-1.078.894a1.07 1.07 0 0 0 1.068 1.005m-2.165-2.072a1.069 1.069 0 1 0 2.134 0 1.162 1.162 0 0 1-1.08-.895c-.117.497-.545.86-1.054.895m-.052 2.072c.565 0 1.031-.441 1.065-1.005a1.16 1.16 0 0 1-1.055-.894c-.115.486-.551.88-1.078.894a1.07 1.07 0 0 0 1.068 1.005m-2.17-2.072a1.073 1.073 0 0 0 1.07 1.002c.564 0 1.032-.439 1.068-1.002a1.159 1.159 0 0 1-1.078-.895 1.166 1.166 0 0 1-1.06.895m-.05 2.072a1.07 1.07 0 0 0 1.068-1.005c-.515-.024-.942-.414-1.057-.894a1.16 1.16 0 0 1-1.08.894 1.07 1.07 0 0 0 1.069 1.005M30.8 88.91a1.066 1.066 0 0 0 1.068 1.002 1.065 1.065 0 0 0 1.066-1.002 1.159 1.159 0 0 1-1.078-.895 1.163 1.163 0 0 1-1.056.895m-.054 2.072a1.067 1.067 0 0 0 1.068-1.005 1.16 1.16 0 0 1-1.056-.894 1.16 1.16 0 0 1-1.078.894c.033.564.5 1.005 1.066 1.005m-2.163-2.072a1.065 1.065 0 0 0 1.066 1.002c.568 0 1.028-.434 1.068-1.002a1.162 1.162 0 0 1-1.08-.895c-.112.478-.54.87-1.054.895m-.054-.065c.564 0 1.031-.439 1.067-1.002a1.165 1.165 0 0 1-1.055-.893c-.113.484-.55.883-1.078.893a1.067 1.067 0 0 0 1.066 1.002m-2.165-2.068c.035.562.503 1 1.067 1 .566 0 1.029-.433 1.066-.998a1.162 1.162 0 0 1-1.076-.896c-.12.497-.547.86-1.057.894m-.055 2.068a1.066 1.066 0 0 0 1.068-1.002c-.515-.026-.942-.417-1.055-.893-.113.484-.553.883-1.078.893.035.562.501 1 1.065 1.002m-2.163-2.068c.042.567.498 1 1.068 1 .566 0 1.026-.433 1.066-.998-.526-.016-.963-.412-1.078-.896a1.168 1.168 0 0 1-1.056.894m-.052 2.068a1.062 1.062 0 0 0 1.064-1.002 1.161 1.161 0 0 1-1.053-.893c-.114.484-.551.883-1.08.893a1.067 1.067 0 0 0 1.069 1.002m-2.165-2.068c.038.567.5 1 1.068 1a1.063 1.063 0 0 0 1.064-.998 1.168 1.168 0 0 1-1.08-.896c-.116.496-.543.859-1.052.894m-.054 2.068a1.064 1.064 0 0 0 1.065-1.002 1.167 1.167 0 0 1-1.055-.893c-.113.484-.553.883-1.076.893a1.065 1.065 0 0 0 1.066 1.002m-1.066-3.133c.035.562.502 1 1.066.998.567 0 1.028-.434 1.065-1-.517-.025-.942-.415-1.055-.897-.113.486-.553.882-1.076.899m0-2.137a1.067 1.067 0 0 0 2.13-.002c-.516-.023-.941-.413-1.054-.895-.113.489-.553.882-1.076.897m2.188-2.2c.565 0 1.026-.433 1.064-1a1.169 1.169 0 0 1-1.08-.897 1.166 1.166 0 0 1-1.052.897c.038.567.5 1 1.068 1m2.16.065a1.16 1.16 0 0 1-1.052-.892c-.114.482-.551.88-1.08.892a1.067 1.067 0 0 0 2.132 0m.057-.065c.566 0 1.026-.433 1.066-1-.526-.017-.963-.412-1.078-.897a1.17 1.17 0 0 1-1.056.897c.042.567.498 1 1.068 1m2.163.065c-.515-.025-.942-.416-1.055-.892-.113.482-.553.88-1.08.892a1.07 1.07 0 0 0 2.135 0m.054-.065c.566 0 1.029-.433 1.066-1a1.163 1.163 0 0 1-1.076-.897 1.17 1.17 0 0 1-1.057.897c.035.562.503 1 1.067 1m2.165.065a1.163 1.163 0 0 1-1.055-.892c-.113.482-.55.88-1.078.892a1.069 1.069 0 0 0 2.133 0m.053-.065c.568 0 1.028-.433 1.068-1-.526-.017-.964-.412-1.08-.897-.112.478-.54.87-1.054.897a1.065 1.065 0 0 0 1.066 1m2.165.065a1.165 1.165 0 0 1-1.056-.892c-.113.482-.55.88-1.078.892a1.067 1.067 0 0 0 1.066 1.003 1.066 1.066 0 0 0 1.068-1.003m.054-.065c.566 0 1.028-.433 1.066-1-.528-.017-.963-.412-1.078-.897a1.168 1.168 0 0 1-1.056.897 1.065 1.065 0 0 0 1.068 1m2.165.065c-.515-.025-.942-.416-1.057-.892-.113.482-.551.88-1.08.892a1.069 1.069 0 0 0 2.137 0m.052-.065c.566 0 1.028-.433 1.068-1-.528-.017-.963-.412-1.078-.897a1.17 1.17 0 0 1-1.06.897c.038.562.506 1 1.07 1m2.165.065a1.165 1.165 0 0 1-1.055-.892c-.115.482-.551.88-1.078.892a1.067 1.067 0 0 0 2.133 0m.055-.065c.563 0 1.028-.433 1.066-1-.526-.017-.964-.412-1.08-.897a1.17 1.17 0 0 1-1.054.897 1.068 1.068 0 0 0 1.068 1m2.163.065a1.165 1.165 0 0 1-1.056-.892c-.115.482-.552.88-1.078.892a1.069 1.069 0 1 0 2.134 0m.054-.065c.565 0 1.028-.433 1.068-1a1.168 1.168 0 0 1-1.08-.897c-.118.497-.545.86-1.054.897a1.065 1.065 0 0 0 1.066 1m2.165.065a1.167 1.167 0 0 1-1.057-.892c-.113.482-.551.88-1.077.892a1.068 1.068 0 0 0 2.134 0m.054-.065a1.07 1.07 0 0 0 1.068-1 1.169 1.169 0 0 1-1.08-.897 1.17 1.17 0 0 1-1.055.897 1.067 1.067 0 0 0 1.067 1m2.163.065c-.515-.025-.942-.416-1.055-.892-.116.482-.553.88-1.076.892a1.063 1.063 0 0 0 1.063 1.003 1.066 1.066 0 0 0 1.068-1.003m.053-.065c.567 0 1.027-.433 1.067-1a1.162 1.162 0 0 1-1.076-.897 1.17 1.17 0 0 1-1.055.897c.033.562.5 1.001 1.064 1m2.165.065c-.516-.025-.943-.416-1.056-.892-.111.482-.55.88-1.076.892.032.564.5 1.004 1.066 1.003a1.065 1.065 0 0 0 1.066-1.003m-1.012-1.065a1.066 1.066 0 0 0 1.066 1c.567 0 1.026-.433 1.066-1-.524-.017-.963-.412-1.076-.897-.114.478-.541.87-1.056.897m1.066 3.135a1.065 1.065 0 0 0 1.066-1.002c-.524-.015-.963-.41-1.076-.895-.114.478-.541.87-1.056.893a1.068 1.068 0 0 0 1.066 1.004m1.097 1.069a1.07 1.07 0 0 0 1.068-1.006c-.517-.023-.942-.413-1.055-.895a1.16 1.16 0 0 1-1.076.897 1.065 1.065 0 0 0 1.063 1.005m.013.233c-.113.486-.551.882-1.076.899.034.561.5.999 1.063.998.57 0 1.028-.434 1.068-1-.517-.025-.942-.415-1.055-.897m-2.176-.173a1.068 1.068 0 0 0 2.132.005 1.166 1.166 0 0 1-1.076-.9c-.114.483-.541.872-1.056.895m-.044.173a1.164 1.164 0 0 1-1.076.899c.035.562.502 1 1.066.998.566 0 1.028-.434 1.066-1-.516-.025-.943-.415-1.056-.897m-2.173-.172a1.067 1.067 0 1 0 2.13.004 1.16 1.16 0 0 1-1.075-.9c-.113.483-.538.872-1.055.895m-1.12 1.072c.034.561.5.999 1.063.998.568 0 1.03-.434 1.068-1-.515-.025-.942-.415-1.055-.897-.116.486-.553.882-1.076.899m-.044.17a1.168 1.168 0 0 1-1.055.895 1.07 1.07 0 0 0 2.135.002 1.169 1.169 0 0 1-1.08-.897m-2.176-.17c.038.564.5.998 1.068.998.564 0 1.026-.434 1.066-1a1.165 1.165 0 0 1-1.057-.897 1.17 1.17 0 0 1-1.077.9m-1.097 1.064a1.065 1.065 0 0 0 1.066 1c.565 0 1.028-.433 1.068-.998-.53-.016-.965-.412-1.08-.896a1.166 1.166 0 0 1-1.054.894m-.044.173c-.115.484-.552.883-1.078.893a1.069 1.069 0 1 0 2.134 0 1.167 1.167 0 0 1-1.056-.893m-2.175-.173a1.068 1.068 0 1 0 2.134.002c-.526-.016-.964-.412-1.08-.896a1.168 1.168 0 0 1-1.054.894m-.042.173c-.115.484-.551.883-1.078.893a1.067 1.067 0 0 0 1.068 1.002c.564 0 1.03-.44 1.065-1.002a1.167 1.167 0 0 1-1.055-.893m-2.18-.173c.038.562.506 1 1.07 1 .566 0 1.028-.433 1.068-.998-.528-.016-.963-.412-1.078-.896-.12.498-.55.86-1.06.894m-.04.173c-.112.484-.55.883-1.078.893a1.069 1.069 0 0 0 2.136 0c-.515-.026-.942-.417-1.058-.893m-2.175-.173a1.065 1.065 0 0 0 1.068 1c.566 0 1.028-.433 1.066-.998-.528-.016-.963-.412-1.078-.896-.118.497-.547.86-1.056.894m-.042.173c-.113.484-.55.883-1.078.893a1.067 1.067 0 0 0 1.066 1.002 1.066 1.066 0 0 0 1.068-1.002 1.167 1.167 0 0 1-1.056-.893m-1.12-1.067a1.17 1.17 0 0 1-1.055.894 1.065 1.065 0 0 0 1.066 1c.568 0 1.028-.433 1.068-.998-.526-.016-.964-.412-1.08-.896m-1.096-1.07a1.167 1.167 0 0 1-1.078.899 1.068 1.068 0 0 0 2.133-.002 1.16 1.16 0 0 1-1.055-.897m-2.177-.173a1.068 1.068 0 0 0 2.133.005 1.162 1.162 0 0 1-1.076-.9 1.158 1.158 0 0 1-1.057.895m-.042.173c-.12.506-.56.873-1.08.899a1.069 1.069 0 1 0 2.135-.002c-.515-.025-.942-.415-1.055-.897m-2.176-.173a1.07 1.07 0 0 0 2.134.005c-.526-.017-.963-.411-1.078-.9-.113.483-.538.872-1.056.895m-.041.173c-.12.506-.56.873-1.08.899.037.562.505 1 1.069.998.565 0 1.028-.434 1.064-1a1.157 1.157 0 0 1-1.053-.897m-.044-.168a1.167 1.167 0 0 1-1.08-.9 1.154 1.154 0 0 1-1.052.895 1.066 1.066 0 1 0 2.132.005m-1.064-1.135a1.063 1.063 0 0 0 1.064-1.002 1.163 1.163 0 0 1-1.08-.895c-.11.478-.535.87-1.052.893a1.068 1.068 0 0 0 1.068 1.004m2.16.063a1.153 1.153 0 0 1-1.052-.895 1.16 1.16 0 0 1-1.08.897 1.069 1.069 0 0 0 1.069 1.004c.565 0 1.031-.442 1.063-1.006m.057-.063c.566 0 1.026-.434 1.066-1.002-.526-.015-.963-.41-1.078-.895-.113.478-.538.87-1.056.893a1.069 1.069 0 0 0 1.068 1.004m2.163.063c-.515-.023-.942-.413-1.055-.895a1.162 1.162 0 0 1-1.078.897 1.071 1.071 0 0 0 1.065 1.004 1.07 1.07 0 0 0 1.068-1.006m.054-.063a1.065 1.065 0 0 0 1.066-1.002 1.158 1.158 0 0 1-1.076-.895c-.113.478-.538.87-1.057.893a1.07 1.07 0 0 0 1.067 1.004m2.165.063a1.154 1.154 0 0 1-1.054-.895 1.16 1.16 0 0 1-1.08.897 1.068 1.068 0 1 0 2.134-.002m.053-.063c.568 0 1.028-.434 1.068-1.002-.526-.015-.964-.41-1.08-.895-.112.478-.54.87-1.054.893.033.564.5 1.004 1.066 1.004m2.165.063a1.158 1.158 0 0 1-1.056-.895 1.16 1.16 0 0 1-1.078.897 1.07 1.07 0 0 0 2.134-.002m.054-.063a1.065 1.065 0 0 0 1.066-1.002c-.528-.015-.963-.41-1.078-.895a1.159 1.159 0 0 1-1.056.893 1.067 1.067 0 0 0 1.068 1.004m2.165.063c-.515-.023-.942-.413-1.057-.895a1.16 1.16 0 0 1-1.08.897 1.07 1.07 0 0 0 2.137-.002m.052-.063c.564 0 1.032-.439 1.068-1.002-.528-.015-.963-.41-1.078-.895a1.162 1.162 0 0 1-1.06.893 1.075 1.075 0 0 0 1.07 1.004m2.165.063a1.157 1.157 0 0 1-1.054-.895c-.116.489-.552.882-1.08.897a1.069 1.069 0 0 0 2.134-.002m.055-.063c.564 0 1.031-.439 1.066-1.002-.526-.015-.964-.41-1.08-.895-.11.478-.54.87-1.054.893a1.07 1.07 0 0 0 1.068 1.004m2.163.063a1.158 1.158 0 0 1-1.056-.895c-.115.489-.552.882-1.078.897a1.069 1.069 0 0 0 2.134-.002m.054-.063c.564 0 1.032-.439 1.068-1.002a1.163 1.163 0 0 1-1.08-.895c-.111.478-.54.87-1.054.893.033.564.5 1.004 1.066 1.004m-1.066 1.13a1.069 1.069 0 0 0 2.134.005 1.167 1.167 0 0 1-1.08-.9 1.156 1.156 0 0 1-1.054.895m-.044.173c-.115.486-.552.882-1.078.899.037.562.504.999 1.068.998.566 0 1.028-.434 1.066-1a1.163 1.163 0 0 1-1.056-.897m-2.175-.173a1.07 1.07 0 0 0 2.134.005c-.526-.017-.964-.411-1.08-.9a1.158 1.158 0 0 1-1.054.895m-.042.173c-.115.486-.551.882-1.078.899.038.564.502.998 1.068.998.563 0 1.028-.434 1.065-1a1.162 1.162 0 0 1-1.055-.897m-2.18-.173a1.077 1.077 0 0 0 1.07 1.007c.564-.001 1.03-.44 1.068-1.002-.528-.017-.963-.411-1.078-.9-.117.5-.548.865-1.06.895m-.04.173c-.118.506-.558.873-1.078.899.037.562.504.999 1.068.998.566 0 1.028-.434 1.068-1-.515-.025-.942-.415-1.058-.897M30.8 84.64a1.068 1.068 0 0 0 2.134.005c-.528-.017-.963-.411-1.078-.9a1.156 1.156 0 0 1-1.056.895m-1.151 1.007a1.07 1.07 0 0 0 1.068-1.002c-.526-.017-.964-.411-1.08-.9-.112.483-.54.872-1.054.895.032.565.5 1.006 1.066 1.007m1.109-.834a1.167 1.167 0 0 1-1.078.899c.036.562.502.999 1.066.998.568 0 1.03-.434 1.068-1a1.161 1.161 0 0 1-1.055-.897m9.928-1.24c-.517-.023-.944-.413-1.057-.895a1.16 1.16 0 0 1-1.077.897 1.067 1.067 0 1 0 2.134-.002m.054-.063c.564 0 1.031-.44 1.068-1.002a1.164 1.164 0 0 1-1.08-.895c-.111.478-.54.87-1.055.893a1.069 1.069 0 0 0 1.067 1.004m1.068 1.135a1.167 1.167 0 0 1-1.08-.9 1.158 1.158 0 0 1-1.055.895 1.07 1.07 0 0 0 1.067 1.007 1.075 1.075 0 0 0 1.068-1.002m1.095-1.072c-.515-.023-.942-.413-1.055-.895-.116.489-.553.882-1.076.897a1.065 1.065 0 0 0 1.063 1.004 1.07 1.07 0 0 0 1.068-1.006m1.162-.895a1.157 1.157 0 0 1-1.075.897 1.067 1.067 0 1 0 2.13-.002c-.515-.023-.942-.413-1.055-.895m-1.11.832c.568 0 1.028-.434 1.068-1.002a1.157 1.157 0 0 1-1.076-.895c-.113.478-.538.87-1.055.893a1.065 1.065 0 0 0 1.063 1.004m-22.147-2.07c.032.564.5 1.004 1.066 1.003a1.064 1.064 0 0 0 1.065-1.003c-.517-.025-.942-.416-1.055-.892-.113.482-.553.88-1.076.892m1.034-3.201a1.15 1.15 0 0 1-.98-.63l.012-.122a1.069 1.069 0 0 0 2.07-.367h.077c.009.585.486 1.055 1.072 1.055.584 0 1.06-.47 1.068-1.055h.08a1.07 1.07 0 0 0 2.137 0h.08a1.071 1.071 0 1 0 2.142 0h.075a1.071 1.071 0 1 0 2.142 0h.077a1.07 1.07 0 0 0 1.07 1.055 1.077 1.077 0 0 0 1.074-1.055h.074a1.071 1.071 0 1 0 2.142 0h.075a1.071 1.071 0 1 0 2.142 0h.077a1.07 1.07 0 0 0 2.138 0h.08a1.07 1.07 0 0 0 2.14 0h.079a1.072 1.072 0 0 0 2.142 0h.077a1.07 1.07 0 0 0 2.14 0h.077c.006.442.284.835.7.988.004.023.004.046.008.07a1.178 1.178 0 0 1-.745-.834c-.12.497-.547.86-1.057.894a1.068 1.068 0 0 0 1.865.647l.006.075a1.13 1.13 0 0 1-.774.348c.034.492.399.899.885.987.002.019.002.043.009.063a1.162 1.162 0 0 1-.934-.88c-.12.497-.547.86-1.057.898.037.566.5 1 1.067 1 .417 0 .777-.24.953-.59.004.038.008.07.008.11-.2.326-.55.53-.931.544.034.553.486.987 1.04 1 .004.106.013.209.017.312-.142.47-.566.8-1.057.823a1.07 1.07 0 0 0 1.065 1.004c.038 0 .065-.002.097-.003l.004.06-.046.004c.006.1.028.199.063.293.002.055.006.112.006.169a1.11 1.11 0 0 1-.11-.29c-.119.507-.56.874-1.08.9a1.068 1.068 0 0 0 1.259.98.682.682 0 0 1 .004.066.852.852 0 0 1-.143.019c.012.176.067.346.16.497.004.036.004.072.004.108a1.167 1.167 0 0 1-.203-.432c-.113.484-.553.883-1.08.893a1.068 1.068 0 0 0 1.325.97c0 .023 0 .047.002.067a1.243 1.243 0 0 1-.207.03c.007.11.032.219.074.322h-.07c-.017-.05-.034-.1-.044-.15a2.933 2.933 0 0 1-.048.15h-.065c.038-.101.059-.208.069-.322a1.152 1.152 0 0 1-1.076-.895c-.113.478-.542.87-1.057.895.008.125.039.247.09.362l-.065.002a.94.94 0 0 1-.067-.191c-.017.07-.04.134-.067.2-.025 0-.046 0-.07.002.053-.119.084-.246.093-.375a1.159 1.159 0 0 1-1.076-.895c-.114.478-.541.87-1.056.895.01.175.063.345.155.495l-.065.006a1.174 1.174 0 0 1-.134-.328 1.079 1.079 0 0 1-.153.357c-.023.003-.05.007-.077.009.11-.16.175-.346.188-.54a1.154 1.154 0 0 1-1.076-.894c-.113.478-.538.87-1.055.895.019.342.203.655.494.838-.027.008-.046.015-.071.02a1.163 1.163 0 0 1-.467-.685c-.116.486-.553.88-1.076.894a.98.98 0 0 0 .077.335l-.061.023a1.427 1.427 0 0 1-.06-.185 1.019 1.019 0 0 1-.088.242c-.027.01-.054.024-.086.034.073-.135.122-.287.132-.45-.517-.023-.944-.413-1.057-.893a1.16 1.16 0 0 1-1.077.894c.027.411.286.772.668.929-.028.006-.058.017-.088.025a1.183 1.183 0 0 1-.623-.781 1.165 1.165 0 0 1-1.054.897c.007.11.032.219.074.322l-.065.013a1.753 1.753 0 0 1-.053-.165 1.443 1.443 0 0 1-.06.19c-.028.004-.053.01-.074.015.05-.116.086-.245.093-.375a1.17 1.17 0 0 1-1.08-.897 1.168 1.168 0 0 1-1.054.897c.015.223.099.436.24.61a.762.762 0 0 1-.068.005 1.156 1.156 0 0 1-.214-.445 1.17 1.17 0 0 1-.228.463h-.075c.153-.177.245-.4.26-.633a1.166 1.166 0 0 1-1.077-.897c-.11.48-.542.869-1.06.897.016.198.084.388.199.55l-.075-.007a1.212 1.212 0 0 1-.163-.372 1.11 1.11 0 0 1-.137.33c-.016-.004-.04-.006-.06-.013a1.11 1.11 0 0 0 .155-.488 1.166 1.166 0 0 1-1.078-.897 1.165 1.165 0 0 1-1.056.896c.005.01.005.02.005.03-.03-.008-.06-.02-.088-.027v-.002h-.013c-.192-.061-.383-.127-.572-.19a1.174 1.174 0 0 1-.494-.707 1.2 1.2 0 0 1-.217.45.453.453 0 0 1-.057-.023c.138-.171.219-.381.232-.6a1.16 1.16 0 0 1-1.055-.895 1.183 1.183 0 0 1-.825.86l-.117-.045c.486-.075.865-.477.898-.987a1.155 1.155 0 0 1-1.076-.895c-.113.478-.538.87-1.057.895.017.266.133.517.326.703-.037-.008-.067-.017-.102-.023a1.203 1.203 0 0 1-.266-.507 1.192 1.192 0 0 1-.197.424c-.021-.003-.044-.005-.07-.01a1.07 1.07 0 0 0 .225-.587 1.16 1.16 0 0 1-1.078-.895c-.113.478-.538.87-1.056.894.008.146.048.29.116.42a.897.897 0 0 0-.07-.004.887.887 0 0 1-.087-.242 1.413 1.413 0 0 1-.082.23c-.023 0-.044-.003-.067-.003.062-.125.097-.261.105-.4a1.16 1.16 0 0 1-1.08-.895c-.115.497-.543.86-1.052.895a1.1 1.1 0 0 0 .075.335h-.067c-.02-.055-.04-.106-.052-.162-.012.054-.031.105-.046.157-.025-.002-.051-.002-.071-.002a.991.991 0 0 0 .075-.328 1.16 1.16 0 0 1-1.078-.895 1.175 1.175 0 0 1-.71.819c.002-.021.002-.042.002-.065a1.07 1.07 0 0 0 .666-.926 1.079 1.079 0 0 1-.618-.23c0-.023.005-.044.005-.067.182.145.414.23.668.23.563 0 1.025-.432 1.065-.997-.525-.016-.965-.412-1.078-.896-.077.33-.308.62-.611.775 0-.024.002-.047.004-.07a1.07 1.07 0 0 0 .565-.878 1.14 1.14 0 0 1-.511-.155c0-.022.004-.045.004-.07.168.105.363.16.562.162a1.071 1.071 0 0 0 1.065-1.002 1.167 1.167 0 0 1-1.078-.9 1.171 1.171 0 0 1-.484.702c0-.028.005-.05.005-.076.257-.188.417-.48.437-.798a1.055 1.055 0 0 1-.375-.086c0-.022.001-.044.005-.065a1.068 1.068 0 0 0 1.49-.914 1.163 1.163 0 0 1-1.078-.895 1.16 1.16 0 0 1-.32.566l.004-.09c.163-.179.26-.408.274-.65a.94.94 0 0 1-.218-.032l.007-.065a1.068 1.068 0 0 0 1.33-.967c-.524-.016-.964-.412-1.077-.896a1.23 1.23 0 0 1-.117.3c.004-.062.01-.124.016-.185.032-.093.052-.189.059-.286a.081.081 0 0 1-.031-.006l.006-.062c.025 0 .052.003.08.003a1.071 1.071 0 0 0 1.065-1.005"/><path fill="#9b1826" d="M27.937 61.317c9.845 1.006 8.124-2.373 10.232-4.166 1.194-1.015 10.735 2.263 10.24 4.524-7.091 11.554-13.864.95-20.262 1.274-.203-.358-.434-1.29-.21-1.632m.433-.64c.403-.808.116-3.526-.78-3.526-1.623 0-5.89.503-6.01 2.097-.094 1.3 4.592 2.427 4.592 2.427s1.93-.456 2.199-.998"/><path fill="#9f6a13" d="M30.403 62.47a2.843 2.843 0 0 1-2.837 2.85 2.844 2.844 0 0 1-2.84-2.85 2.845 2.845 0 0 1 2.84-2.854 2.844 2.844 0 0 1 2.837 2.854"/><path fill="#d18f1c" d="M26.886 60.854a.46.46 0 1 1-.92 0 .46.46 0 0 1 .92 0m1.947-.177a.46.46 0 1 1-.92 0 .46.46 0 0 1 .919 0m1.18 1.54a.462.462 0 0 1-.922 0c0-.256.207-.465.46-.465s.463.209.463.465m-.945 1.958a.465.465 0 0 1-.463.465.463.463 0 0 1 .002-.925.46.46 0 0 1 .46.46m-2.121 0a.465.465 0 0 1-.463.465.465.465 0 0 1 0-.928c.255 0 .463.206.463.463M26 62.573a.462.462 0 0 1-.46.465.462.462 0 0 1-.46-.465c0-.255.206-.465.46-.465.255 0 .46.21.46.465"/><path fill="#b5771c" d="M28.322 62.454a.778.778 0 0 1-.775.78.779.779 0 0 1 0-1.56c.427 0 .775.35.775.78"/><path fill="#d18f1c" d="M28.007 62.454a.46.46 0 1 1-.92 0 .46.46 0 0 1 .92 0"/><path fill="#ffdb80" d="M54.766 38.848c1.055.68-.01 6.962-2.18 6.962-.065 0-.128 0-.186-.002-3.522 6.339-10.256 10.627-17.99 10.627-7.74 0-14.484-4.3-17.996-10.646a4.236 4.236 0 0 1-.435.02c-2.171 0-3.13-6.452-1.943-7.102-.14-.971-.21-1.964-.21-2.972 0-11.432 9.217-20.7 20.584-20.7 11.369 0 20.584 9.268 20.584 20.699 0 1.059-.078 2.099-.228 3.114" data-paper-data="{&quot;origPos&quot;:null}"/><path fill="#f6b90c" d="M22.14 37.466c1.68-1.044 4.15-1.705 4.15-1.705.294-.545.032-1.482-.356-1.535-1.23-.177-3.793 3.24-3.793 3.24m23.829 0c-1.682-1.044-4.15-1.705-4.15-1.705-.296-.545-.032-1.482.355-1.535 1.232-.177 3.794 3.24 3.794 3.24"/><path fill="#f6b90c" d="M55.814 33.035c.034 2.43-.814 7.69-2.462 10.827 0 0-4.047-11.52-7.382-13.345-4.077-2.23-14.825.983-18.465-1.907-.607-.478-.536-1.565-.536-1.565s-.697 1.383-1.035 1.769c-1.765 2.02-6.342 4.947-8.513 6.516-1.75 1.26-1.83 1.246-1.442 8.532 0 0-3.212-6.627-3.034-11.052.05-1.277.666-4.104 1.666-6.977C18.234 18.52 25.74 13.5 34.414 13.5c9.966 0 18.39 6.626 21.155 15.734.138 1.263.22 2.531.245 3.802"/><path fill="#d18f1c" d="M56.853 34.22c.137 6.514-.894 16.88-14.392 21.676-.943-2.783-.143-5.842.006-8.24 10.444-7.663 4.31-15.11-8.012-10.912-12.304-4.198-18.464 3.249-8.02 10.912.149 2.398.942 5.457 0 8.24C12.937 51.1 11.91 40.734 12.047 34.22 9.853 25.127 18.364 8.8 34.454 8.8c16.095 0 24.909 17.066 22.399 25.42"/><path fill="#9f6a13" d="M49.637 21.909c2.814 3.223 8.939 5.714 5.936 16.078-1.42 4.9-7.142-7.835-10.473-9.305-2.435-1.076-10.647-1.49-10.647-1.49s-8.197.414-10.634 1.49c-3.33 1.469-9.044 14.206-10.464 9.305-3.002-10.364 3.124-12.855 5.938-16.078.969-1.112.839-4.227 2.627-5.284 6.118-3.62 10.616 3.749 12.533 1.478 1.948 2.272 6.428-5.098 12.546-1.478 1.788 1.057 1.67 4.172 2.638 5.285"/><path fill="#b5771c" d="M46 27.803c1.589 1.697 1.373 6.417.555 8.642-1.61-2.09-3.252-3.221-4.788-3.844l-.51 2.453-.28-2.733a9.693 9.693 0 0 0-.827-.214l-.42 2.242-.281-2.373c-2.641-.396-4.613.197-4.938-1.343-.244 1.608-2.173.819-4.978 1.31l-.29 2.406-.42-2.255a9.56 9.56 0 0 0-.825.238l-.277 2.722-.504-2.417c-1.501.648-3.154 1.794-4.864 3.808-1.151-2.612-1.05-6.962.557-8.642 2.207-2.307 7.55-3.688 11.6-3.663 3.877.02 9.423 1.457 11.49 3.663"/><path fill="#7a4e11" d="M38.24 26.54s-.42-.062-.081-.212l-1.33-1.105-1.568.518-.534 1.276.986.815 1.749-.668zm-7.53 0s.39-.12.08-.212l1.33-1.105 1.567.518.536 1.276-.988.815-1.746-.668-.78-.623z"/><path fill="#9f6a13" d="M35.662 27.446c.603.212 2.577-.906 2.577-.906s-2.01 3.2-3.762 3.584c-1.76-.384-3.767-3.584-3.767-3.584s1.975 1.118 2.578.906c.415-.143.45-.765.435-1.008-.042-.811-.712-.975-1.235-.95-.396.023-.254.594-.204.684.1.194.438-.04.6.084.23.175.21.499.03.672-.381.36-1.626-.105-2.011-.46-.364-.334-.446-1.534.004-1.987.628-.635 3.57-.572 3.57-.572s2.94-.063 3.57.572c.45.453.364 1.653 0 1.987-.385.355-1.631.82-2.013.46-.181-.172-.2-.497.03-.672.165-.124.5.11.6-.084.049-.091.194-.661-.204-.685-.524-.024-1.202.12-1.238.95-.008.244.023.866.44 1.009"/><path fill="#9f6a13" d="M34.468 30.118s0-.092-.004-.25c0-.162-.004-.39-.01-.665 0-.137 0-.285-.003-.445-.002-.155-.002-.322-.002-.494-.005-.716-.005-1.431 0-2.146 0-.172 0-.34.002-.497.002-.157.002-.305.002-.444.007-.276.01-.503.01-.663.005-.158.005-.25.005-.25l.004.25.009.663c0 .14.002.287.004.444l.002.497c.002.34.002.708.002 1.072 0 .366 0 .733-.002 1.074l-.002.494c-.002.16-.004.308-.004.445l-.01.665-.003.25"/><path fill="#b5771c" d="M30.123 22.8c-.687-.31-1.61-.07-2.182 0-.72.09-1.864-.355-1.874-1.62-.031-.567 1.133-1.522 1.696-1.497 1.533.066 1.98 2.37 2.36 3.118"/><path fill="#b5771c" d="M29.827 21.18a1.86 1.86 0 0 1-1.856 1.864 1.859 1.859 0 0 1-1.85-1.865c0-1.027.829-1.863 1.85-1.863a1.86 1.86 0 0 1 1.856 1.863"/><path fill="#d18f1c" d="M29.687 21.18c0 .953-.768 1.723-1.714 1.723-.947 0-1.715-.77-1.715-1.724 0-.951.768-1.722 1.715-1.722.946 0 1.714.77 1.714 1.722"/><path fill="#b5771c" d="M29.475 21.18c0 .833-.674 1.509-1.503 1.509-.827 0-1.5-.676-1.5-1.51 0-.831.673-1.507 1.5-1.507.829 0 1.503.676 1.503 1.507"/><path fill="#9f6a13" d="M28.698 21.18c0 .4-.322.73-.727.73a.726.726 0 0 1-.72-.73.724.724 0 1 1 1.447 0"/><path fill="#d18f1c" d="M28.647 21.18a.674.674 0 1 1-1.348 0 .675.675 0 0 1 1.348 0"/><path fill="#9f6a13" d="M30.123 22.8c-.38-.747-.827-3.051-2.36-3.117-.563-.025-1.727.93-1.698 1.498.013 1.264 1.156 1.709 1.876 1.62.572-.071 1.495-.31 2.182 0zm-4.503.603v-4.305h4.752v4.305h-4.753z"/><path fill="#7a4e11" d="M27.74 19.713c-.32 0-.862.318-1.257.737-.262.276-.398.535-.386.729.013 1.176.997 1.602 1.659 1.602.058 0 .123-.002.182-.01.102-.014.215-.032.339-.05a6.24 6.24 0 0 1 1.01-.105c.3 0 .556.04.776.125a6.331 6.331 0 0 1-.22-.562c-.352-.963-.886-2.417-2.08-2.466h-.022zm2.45 3.152-.077-.036a2.023 2.023 0 0 0-.827-.154c-.347 0-.695.057-1 .106-.113.019-.227.035-.34.05-.471.05-.943-.085-1.317-.375-.268-.212-.586-.604-.592-1.275-.013-.21.13-.485.4-.773.345-.366.919-.756 1.304-.756h.019c1.24.05 1.78 1.529 2.14 2.508.094.252.173.473.25.63z"/><path fill="#7a4e11" d="m26.175 20.865-.027.03-.013.014c-.004.006-.008.012-.017.019l-.044.042a.556.556 0 0 1-.054.044c-.02.02-.042.034-.063.05-.02.015-.044.03-.07.047-.02.017-.047.032-.07.046l-.076.042-.073.038c-.023.013-.05.02-.07.034l-.062.027a3.637 3.637 0 0 1-.134.053s.053-.021.13-.061c.017-.01.04-.02.063-.032a.555.555 0 0 0 .063-.038c.025-.012.046-.03.069-.044.027-.012.048-.03.073-.044a.834.834 0 0 1 .07-.05c.02-.017.043-.034.062-.051l.059-.05c.016-.017.033-.032.048-.05.012-.014.027-.026.035-.04a.054.054 0 0 0 .02-.018.09.09 0 0 1 .012-.015.255.255 0 0 1 .02-.033z"/><path fill="#b5771c" d="M38.874 22.8c.38-.746.83-3.051 2.358-3.117.565-.025 1.73.93 1.698 1.497-.013 1.265-1.154 1.71-1.874 1.62-.574-.07-1.497-.31-2.182 0"/><path fill="#b5771c" d="M39.17 21.179a1.859 1.859 0 0 1 1.854-1.863 1.86 1.86 0 0 1 1.855 1.863 1.861 1.861 0 0 1-1.855 1.865 1.86 1.86 0 0 1-1.854-1.864"/><path fill="#d18f1c" d="M39.308 21.179c0-.952.768-1.722 1.714-1.722a1.72 1.72 0 0 1 1.717 1.722 1.72 1.72 0 0 1-1.717 1.724c-.946 0-1.714-.77-1.714-1.723"/><path fill="#b5771c" d="M39.526 21.179a1.5 1.5 0 0 1 1.497-1.507c.83 0 1.5.676 1.5 1.507 0 .834-.67 1.51-1.5 1.51a1.5 1.5 0 0 1-1.497-1.51"/><path fill="#9f6a13" d="M40.299 21.179a.726.726 0 1 1 1.453.002.728.728 0 0 1-.728.729.728.728 0 0 1-.724-.73"/><path fill="#d18f1c" d="M40.35 21.18a.674.674 0 1 1 1.347 0 .674.674 0 0 1-1.347 0"/><path fill="#9f6a13" d="M41.056 22.8c.72.09 1.86-.355 1.874-1.62.032-.567-1.133-1.522-1.698-1.497-1.528.066-1.978 2.37-2.358 3.118.685-.31 1.608-.071 2.182 0zm-2.431-3.702h4.753v4.305h-4.753z"/><path fill="#7a4e11" d="M41.234 19.713c-1.194.049-1.725 1.503-2.08 2.466-.08.22-.15.414-.22.562.25-.09.513-.132.778-.125.35 0 .7.055 1.013.106.117.017.233.035.333.048.06.009.12.01.182.01.66 0 1.646-.425 1.66-1.601.013-.194-.127-.453-.385-.73-.398-.418-.938-.736-1.26-.736zm-2.39 3.076c.078-.156.162-.377.252-.63.36-.978.9-2.456 2.136-2.507h.017c.39 0 .965.39 1.312.756.27.288.413.564.398.773-.004.67-.324 1.063-.59 1.275-.374.289-.845.423-1.315.375a6.744 6.744 0 0 1-.341-.05c-.308-.05-.656-.106-1.001-.106-.33 0-.6.053-.827.154l-.078.036.038-.076z"/><path fill="#7a4e11" d="m42.82 20.865.047-.04s.01.01.027.033c.002.005.006.009.01.015.02.018.037.038.055.059.014.017.03.032.048.049l.056.05.065.05.072.05a.435.435 0 0 0 .068.045c.022.016.045.03.07.044.025.015.046.028.067.038.019.012.042.022.06.032.078.04.128.06.128.06l-.132-.052c-.02-.008-.042-.017-.062-.027-.022-.013-.047-.021-.07-.034l-.073-.038c-.027-.014-.048-.027-.073-.042a.655.655 0 0 1-.075-.046c-.022-.017-.05-.032-.07-.047-.02-.016-.044-.03-.06-.05a.272.272 0 0 1-.055-.044c-.014-.015-.031-.03-.044-.042l-.017-.02a.762.762 0 0 1-.042-.043z"/><path fill="#9f6a13" d="M56.477 28.426c-.023-.092-.155-.195-.283-.292-.163-.125-.333-.257-.38-.445-.051-.187.037-.387.118-.578.063-.14.132-.3.105-.386-.027-.092-.165-.183-.301-.271-.172-.114-.348-.232-.41-.417-.061-.188.01-.39.079-.585.05-.144.109-.308.075-.394-.031-.09-.178-.17-.316-.25-.18-.1-.364-.203-.438-.382-.077-.18-.02-.391.036-.593.038-.146.086-.312.046-.394-.038-.088-.193-.158-.335-.225-.188-.09-.381-.177-.47-.35-.087-.177-.045-.387-.007-.591.029-.15.063-.318.019-.398-.05-.084-.204-.143-.352-.198-.195-.074-.394-.148-.496-.312-.1-.168-.078-.38-.053-.59.013-.15.034-.321-.017-.4-.052-.077-.213-.123-.366-.166-.2-.058-.4-.117-.517-.271-.115-.16-.11-.375-.103-.585.007-.15.01-.325-.046-.396-.06-.074-.222-.105-.38-.137-.202-.04-.41-.082-.537-.227-.125-.148-.138-.362-.146-.57-.01-.155-.02-.325-.082-.392-.067-.07-.237-.09-.39-.106-.205-.023-.416-.048-.554-.183-.138-.137-.168-.35-.195-.556-.023-.151-.044-.324-.113-.385-.07-.063-.243-.067-.396-.072-.203-.006-.416-.012-.565-.138-.15-.123-.197-.333-.24-.535-.034-.15-.07-.32-.145-.375-.074-.057-.25-.048-.4-.042-.205.01-.42.025-.576-.088-.16-.112-.222-.316-.283-.516-.046-.146-.096-.31-.173-.36-.078-.053-.25-.028-.4-.01-.206.029-.417.058-.587-.041-.165-.097-.245-.3-.32-.49-.057-.141-.124-.303-.205-.348-.082-.044-.25-.004-.4.026-.2.046-.408.09-.584.006-.174-.086-.268-.28-.358-.467-.07-.135-.147-.291-.23-.33-.086-.035-.252.014-.396.06-.2.057-.404.118-.587.048-.177-.07-.288-.254-.393-.433-.078-.133-.163-.28-.251-.312-.088-.031-.25.032-.392.087-.195.077-.391.153-.576.094-.188-.054-.308-.231-.431-.402-.086-.126-.184-.267-.272-.29-.092-.024-.25.05-.385.115-.187.089-.38.18-.57.14-.19-.043-.327-.21-.46-.371-.095-.118-.2-.253-.292-.268-.092-.018-.245.07-.374.144-.18.103-.365.21-.557.18-.193-.03-.342-.182-.482-.332-.107-.114-.226-.24-.316-.246-.094-.013-.237.084-.362.168-.172.116-.348.236-.545.223-.192-.017-.351-.16-.502-.3-.115-.102-.243-.22-.337-.222-.09-.004-.224.103-.348.196-.161.128-.33.263-.525.263-.193 0-.36-.135-.526-.263-.117-.093-.255-.2-.347-.196-.09.002-.22.12-.333.22-.151.142-.31.285-.503.302-.197.013-.375-.107-.544-.223-.126-.084-.268-.18-.362-.168-.095.006-.21.132-.315.242-.142.154-.29.307-.483.337-.193.03-.38-.078-.56-.181-.13-.076-.282-.162-.372-.144-.092.015-.2.15-.293.268-.132.162-.268.328-.46.37-.19.042-.384-.05-.57-.14-.136-.064-.291-.138-.381-.114-.088.023-.19.164-.274.29-.122.17-.245.348-.432.402-.184.06-.383-.02-.578-.094-.14-.055-.301-.118-.387-.09-.09.033-.176.182-.255.315-.103.179-.214.362-.396.433-.182.07-.385.009-.582-.048-.147-.046-.31-.095-.396-.06-.084.039-.163.195-.23.33-.09.187-.185.38-.36.467-.176.082-.384.04-.585-.01-.148-.026-.316-.066-.397-.022-.084.045-.151.207-.206.348-.075.19-.152.393-.32.49-.17.1-.38.07-.588.042-.15-.02-.32-.044-.398.007-.078.05-.13.216-.174.362-.06.2-.125.404-.282.516-.16.11-.375.098-.578.088-.151-.008-.325-.015-.4.04-.074.057-.11.225-.143.377-.042.202-.092.412-.24.535-.15.126-.363.132-.568.136-.153.007-.324.01-.393.074-.07.06-.095.234-.114.385-.03.205-.056.42-.196.556-.14.135-.352.16-.555.18-.153.018-.325.039-.388.106-.062.068-.073.24-.081.394-.01.206-.023.423-.147.57-.127.146-.335.188-.538.228-.157.03-.32.063-.38.137-.055.07-.051.244-.047.396.006.208.015.425-.1.583-.118.156-.32.215-.518.273-.155.043-.314.089-.368.167-.05.078-.03.246-.015.4.025.208.046.42-.054.587-.1.166-.302.24-.494.312-.151.057-.306.116-.352.2-.044.078-.013.248.017.396.04.206.08.416-.007.59-.088.176-.282.264-.47.353-.143.067-.296.137-.334.225-.04.082.009.248.046.394.055.202.11.412.036.593-.073.18-.26.282-.44.383-.14.078-.282.16-.316.249-.035.086.023.25.076.394.069.195.142.397.08.585-.064.185-.242.303-.413.417-.134.088-.273.179-.298.27-.027.088.042.248.105.387.082.19.17.39.117.578-.048.188-.217.32-.38.445-.128.097-.258.2-.281.292l-.287-.063c.044-.198.218-.332.39-.465.123-.095.25-.192.276-.282.02-.093-.044-.242-.107-.388-.086-.193-.172-.395-.115-.59.054-.19.24-.313.418-.433.13-.086.262-.174.294-.26.03-.091-.026-.245-.078-.394-.07-.2-.144-.41-.073-.594.07-.192.264-.301.448-.406.136-.076.274-.156.312-.238.038-.09-.006-.247-.05-.402-.055-.203-.111-.415-.03-.598.088-.186.287-.278.482-.37.14-.066.287-.134.329-.214.04-.086.008-.246-.02-.4-.041-.21-.08-.427.017-.602.099-.176.306-.256.505-.33.145-.053.297-.112.346-.19.048-.08.029-.242.012-.398-.023-.212-.048-.433.065-.597.11-.17.322-.232.532-.29.148-.045.3-.087.36-.161.05-.076.046-.24.042-.398-.004-.212-.015-.436.113-.591.126-.156.343-.203.553-.243.15-.031.312-.06.368-.132.065-.072.07-.234.08-.392.01-.214.023-.433.16-.58.137-.146.359-.173.568-.197.155-.016.316-.035.38-.1.07-.064.094-.228.112-.382.028-.21.059-.431.208-.564.15-.137.372-.145.584-.15.157-.008.318-.012.387-.07.073-.058.109-.218.14-.374.046-.206.095-.423.254-.543.16-.124.38-.113.594-.1.155.008.317.016.392-.037.075-.054.128-.21.17-.36.062-.204.13-.414.297-.524.17-.11.387-.082.599-.052.155.023.314.044.393-.003.082-.048.145-.2.2-.347.079-.198.16-.404.338-.5.178-.091.392-.045.6-.001.152.034.313.07.395.027.084-.037.157-.185.226-.326.09-.194.19-.391.373-.474.188-.08.393-.016.599.049.148.042.305.09.39.055.089-.034.17-.173.254-.306.107-.187.218-.377.407-.442.19-.067.395.013.594.093.147.052.295.11.388.086.087-.03.18-.162.268-.29.123-.175.25-.356.443-.405.195-.054.392.04.587.13.138.068.287.14.377.12.092-.02.19-.15.29-.27.137-.165.277-.333.474-.373.197-.036.385.076.57.18.137.079.28.159.372.146.092-.017.203-.133.31-.246.146-.156.297-.314.498-.337.2-.021.38.1.557.217.13.09.262.179.358.172.092-.004.214-.113.329-.22.159-.142.318-.291.52-.302.202-.006.374.13.54.26.123.1.253.199.343.199.092 0 .224-.1.345-.198.17-.13.34-.267.54-.26.2.01.365.16.52.3.115.108.238.217.328.22.094.008.228-.081.358-.171.176-.116.358-.24.56-.217.198.023.35.18.498.337.106.113.217.23.312.246.09.013.23-.067.366-.145.186-.105.377-.217.572-.181.199.04.339.21.475.374.098.12.199.249.289.27.092.019.24-.053.379-.118.192-.09.39-.187.586-.133.193.049.322.23.442.405.09.13.182.263.272.29.088.025.24-.031.387-.086.195-.08.4-.16.593-.093.188.065.3.257.408.442.082.133.163.272.25.308.087.033.24-.013.393-.057.2-.063.412-.126.597-.046.184.082.282.277.374.47.07.142.143.29.227.327.08.043.24.007.393-.027.21-.044.423-.088.6.002.179.097.26.303.34.5.055.149.115.298.195.346.084.047.243.026.396.005.21-.028.43-.06.599.05.17.11.234.322.299.524.042.15.094.306.17.36.073.053.238.047.39.038.215-.012.432-.025.594.1.16.12.207.336.253.545.033.153.07.313.142.374.07.057.233.06.386.068.215.006.435.012.584.15.15.134.18.353.205.563.023.156.044.32.113.386.065.06.228.082.38.099.21.023.434.048.573.195.136.148.148.367.157.58.006.16.014.32.08.39.058.072.217.102.37.133.21.04.425.087.55.245.128.155.12.379.116.59-.005.16-.013.323.044.397.054.074.209.118.358.162.207.057.416.12.53.289.115.166.087.385.064.597-.016.156-.035.32.013.398.05.078.2.137.345.19.2.076.406.154.507.33.096.175.057.394.015.602-.032.154-.057.314-.017.4.042.08.186.15.329.215.194.09.393.183.477.369.086.183.025.395-.03.598-.04.155-.085.313-.05.402.038.082.178.162.312.238.189.105.38.214.453.406.069.185-.005.394-.076.594-.054.149-.107.303-.075.393.027.087.159.175.29.26.179.12.363.243.422.435.054.194-.032.396-.117.59-.061.145-.128.294-.105.387.02.09.153.187.276.282.168.133.344.267.39.465z"/><path fill="#b5771c" d="M22.6 33.753c-.016-.248-.215-.905-.46-.88-.107 1.924-1.066 3.43-1.918 4.223-1.298 1.21-3.37.998-4.25 2.086-.475.586-1.444 1.77-1.424 4.07.628-2.488 1.48-3.187 1.964-3.606 1.474-1.272 2.745-.7 4.253-2.107.764-.72 1.888-2.27 1.835-3.786m-7.29 11.32c2.334-4.122 4.248-1.436 5.856-5.562-1.782 2.623-5.247.709-5.855 5.562m5.466-3.01c.804 1.933-2.923 3.71-1.845 5.844.375.739 2.234 2.958 3.208-.734.83 4.833-2.913 4.856-4.843 1.54-3.16-5.42 2.192-2.94 3.48-6.65"/><path fill="#b5771c" d="M21.368 47.838a.419.419 0 0 1-.415.42.418.418 0 0 1-.416-.42.416.416 0 1 1 .83 0m1.238 1.435c-.465 2.838-2.565 2.24-2.565 2.24s2.79 1.436 2.565-2.24m23.738-15.52c-.052 1.516 1.072 3.066 1.84 3.786 1.506 1.408 2.773.835 4.25 2.107.487.419 1.333 1.118 1.963 3.606.025-2.3-.95-3.484-1.422-4.07-.88-1.088-2.952-.875-4.252-2.086-.852-.793-1.807-2.3-1.916-4.223-.245-.025-.446.632-.463.88m7.287 11.32c-.606-4.853-4.07-2.94-5.851-5.562 1.608 4.126 3.52 1.44 5.852 5.562m-5.464-3.01c1.288 3.71 6.642 1.23 3.48 6.65-1.932 3.316-5.674 3.293-4.84-1.54.97 3.692 2.832 1.473 3.207.734 1.076-2.134-2.653-3.911-1.847-5.844"/><path fill="#b5771c" d="M47.574 47.838a.418.418 0 1 0 .835.003.418.418 0 0 0-.835-.002m-1.233 1.434c.465 2.838 2.563 2.24 2.563 2.24s-2.79 1.436-2.563-2.24"/><path fill="#9f6a13" d="M54.408 67.082c6.072 0 10.996 11.459 10.996 25.593 0 14.133-4.924 25.592-10.996 25.592-.806 0-1.594-.203-2.352-.583 1.816-4.084 1.303-8.303-1.327-9.77-1.457-.81-3.283-.618-5.044.347-1.428-4.316-2.274-9.722-2.274-15.586 0-14.134 4.925-25.593 10.997-25.593"/><path fill="#724a10" d="M53.21 117.195c.397.122.8.183 1.197.183 1.108 0 2.408-.166 3.662-1.402 1.336-1.314 2.772-3.493 3.656-5.558 2.03-4.724 3.147-11.023 3.147-17.741s-1.116-13.021-3.147-17.745c-.884-2.064-2.32-4.245-3.656-5.558-1.254-1.236-2.554-1.402-3.662-1.402-1.244 0-2.477.59-3.664 1.757-1.227 1.207-2.334 2.956-3.3 5.203-2.03 4.724-3.15 11.027-3.15 17.745 0 5.179.669 10.14 1.93 14.347.848-.335 1.683-.507 2.48-.507.89 0 1.716.208 2.455.623 1.513.84 2.506 2.463 2.778 4.56.226 1.705-.027 3.602-.726 5.495m1.197.303a4.19 4.19 0 0 1-1.292-.21l-.058-.017.023-.06c.707-1.892.963-3.793.74-5.496-.271-2.06-1.237-3.647-2.721-4.476a4.874 4.874 0 0 0-2.395-.604c-.802 0-1.644.177-2.496.524l-.06.025-.02-.063c-1.275-4.232-1.95-9.227-1.95-14.444 0-6.737 1.12-13.053 3.154-17.792.972-2.26 2.092-4.02 3.33-5.242 1.205-1.185 2.468-1.79 3.745-1.79 1.13 0 2.458.173 3.744 1.434 1.346 1.327 2.79 3.522 3.683 5.598 2.037 4.74 3.157 11.055 3.157 17.792 0 6.732-1.12 13.05-3.157 17.79-.892 2.073-2.337 4.27-3.683 5.595-1.286 1.265-2.613 1.436-3.744 1.436"/><path fill="#724a10" d="M53.676 116.948c.243.049.49.074.733.074 1.034 0 2.248-.152 3.412-1.3 1.307-1.283 2.71-3.422 3.579-5.445 2.012-4.68 3.12-10.93 3.12-17.6 0-6.672-1.11-12.925-3.12-17.605-.87-2.023-2.272-4.16-3.58-5.446-1.163-1.143-2.377-1.3-3.411-1.3-1.15 0-2.301.559-3.415 1.656-1.196 1.177-2.28 2.888-3.227 5.09-2.01 4.68-3.12 10.933-3.12 17.605 0 4.99.627 9.79 1.807 13.882a6.91 6.91 0 0 1 2.25-.396c.948 0 1.83.22 2.625.663 1.616.9 2.667 2.617 2.958 4.827.218 1.647.004 3.472-.611 5.295m.733.194c-.273 0-.551-.034-.825-.093l-.065-.014.023-.062c.628-1.825.846-3.66.628-5.303-.285-2.174-1.317-3.86-2.898-4.74a5.192 5.192 0 0 0-2.57-.65c-.732 0-1.496.138-2.266.413l-.06.02-.016-.06c-1.195-4.12-1.828-8.951-1.828-13.976 0-6.687 1.112-12.958 3.128-17.65.953-2.218 2.046-3.942 3.25-5.127 1.139-1.122 2.316-1.69 3.499-1.69 1.057 0 2.3.157 3.496 1.334 1.315 1.295 2.73 3.444 3.6 5.482 2.02 4.693 3.134 10.964 3.134 17.65 0 6.685-1.112 12.954-3.133 17.65-.87 2.035-2.286 4.189-3.6 5.483-1.196 1.175-2.44 1.333-3.497 1.333"/><path fill="#724a10" d="M57.51 81.819c-1.294 0-2.23 2.176-2.584 2.997-.898 2.089-1.39 4.878-1.39 7.86 0 2.24.278 4.393.812 6.227.848 2.854 2.079 4.627 3.22 4.627.844 0 1.947-.518 2.448-2.983.125-.615.284-1.25.454-1.928.44-1.771.942-3.78.942-5.944 0-2.875-.737-5.513-1.33-7.635l-.064-.232c-.716-2.56-1.64-2.947-2.45-2.987-.02-.002-.036-.002-.06-.002m.06 21.83c-1.212 0-2.46-1.763-3.331-4.713-.536-1.846-.82-4.01-.82-6.26 0-2.996.495-5.803 1.4-7.908.364-.84 1.32-3.07 2.692-3.07.023 0 .044 0 .065.003.85.042 1.822.442 2.557 3.073l.065.234c.594 2.126 1.333 4.777 1.333 7.667 0 2.177-.502 4.192-.946 5.97-.165.638-.316 1.28-.452 1.925-.515 2.545-1.675 3.08-2.563 3.08"/><path fill="#724a10" d="M63.77 92.988c-.088 4.988-3.308 8.977-5.722 8.935-2.41-.04-3.562-4.107-3.476-9.095.088-4.987 1.378-9.01 3.79-8.968 2.412.044 5.494 4.14 5.408 9.128"/><path fill="#d0d0d0" d="M2.577 49.648C7.257 34.243.402 30.433.065 25.292-.161 21.879.05 16.352 3.3 12.005c3.67 5.584 5.69 21.836 5.514 34.813-.006.769-1.032 2.707-1.032 2.707s-4.034 1.148-5.205.123"/><path fill="#b5b4b4" d="M4.137 49.837c.329.004.846.166 1.347.322.502.16.975.307 1.222.29a.31.31 0 0 0 .044-.004c.27-.507.49-.983.56-1.215-.401-5.697-1.136-16.294-1.937-22.98-.43-3.6-.894-6.517-1.384-8.66-.16-.726-.351-1.443-.574-2.151-1.545 3.343-1.667 7.132-1.5 9.73.08 1.16.644 2.348 1.366 3.857 1.784 3.75 4.233 8.884 1.692 18.94l-.005.018c-.1.432-.385 1.446-.83 1.853m2.572.67c-.257.02-.737-.13-1.245-.29-.536-.168-1.091-.34-1.397-.32l-.115.01.082-.06c.483-.362.795-1.528.879-1.876l.004-.02c2.534-10.034.09-15.161-1.694-18.9-.72-1.513-1.29-2.707-1.365-3.878-.171-2.62-.046-6.452 1.535-9.827l.03-.067.022.07c.205.622.406 1.372.6 2.227.489 2.147.956 5.063 1.387 8.667.8 6.69 1.54 17.293 1.933 22.987v.013c-.07.234-.293.724-.572 1.244l-.004.009-.015.002a.33.33 0 0 1-.065.008"/><path fill="#f7b90b" d="M9.71 56.99s.095 1.4-.338 1.66c-1.564.933-7.268.697-7.19-1.13.015-.406.786-.771 1.616-.116.963.768 4.016.418 4.029-.282.029-1.362.563-4.461-.377-5.44-.8-.834-4.483-.474-4.48 1.086-.03.609-1.018.556-1.173.084-.245-.747-.731-2.541-.218-3.134.812-.941 3.289-.96 5.196-.817 1.23-.255 1.452-2.331 2.22-2.202l.172 2.484.544 7.808"/><path fill="#ffdb80" d="M11.666 53.965c-.41 2.126-1.537 3.693-2.515 3.5-.976-.19-1.434-2.064-1.022-4.19.409-2.127 1.533-3.693 2.51-3.5.979.19 1.437 2.066 1.027 4.19" data-paper-data="{&quot;origPos&quot;:null}"/><path fill="#724a10" d="M30.388 36.485s-.448 1.623-1.851 1.302c-.686-.157-.807-1.082-3.01-.667-.692.163-2.148 1.04-2.43 1.627-.28.587-.076-2.152 2.185-3.17 1.632-.607 2.185-.577 3.536-.577 1.35 0 1.766.816 1.57 1.485m8.658 0s.447 1.623 1.85 1.302c.687-.157.808-1.082 3.01-.667.693.163 2.149 1.04 2.429 1.627.28.587.078-2.152-2.184-3.17C42.52 34.97 41.967 35 40.616 35c-1.35 0-1.767.816-1.57 1.485"/><path fill="#653310" d="M28.333 43.1c0 1.49-.796 2.7-1.778 2.7s-1.777-1.21-1.777-2.7c0-1.491.795-2.7 1.777-2.7.982 0 1.778 1.209 1.778 2.7m16 0c0 1.49-.795 2.7-1.777 2.7-.983 0-1.778-1.21-1.778-2.7 0-1.491.795-2.7 1.778-2.7.982 0 1.777 1.209 1.777 2.7"/><path fill="#eeac6c" d="M31.889 45.712s.184-.908.447-1.168c.71-1.041 2.21-1.444 2.21-1.444s1.932.632 2.356 1.43c.393.74.303 1.114.303 1.114s-1.886-1.684-2.632-1.582c-1 .138-2.684 1.65-2.684 1.65zM28.51 48.226s6.133 2.888 11.71-.356c0 0-1.236 4.922-5.29 5.005-3.657.11-4.43-1.343-4.867-1.76-.44-.418-1.264-1.596-1.553-2.89"/></g></svg>