<svg xmlns="http://www.w3.org/2000/svg" width="104.644" height="119.749"><g fill-rule="evenodd" stroke-miterlimit="10" data-paper-data="{&quot;isPaintingLayer&quot;:true}" style="mix-blend-mode:normal"><path fill="#f5bab6" d="M44.392 62.725c2.122 9.47-4.604 25.032-11.54 25.66-58.6 5.317-14.455-44.28 11.54-25.66"/><path fill="#ec7fa9" d="M44.255 61.81c.393 9.698-21.71 8.058-28.645 7.423C-9.451 66.938 3.1 51.055 3.45 40.05c.544-16.877 14.19-27.59 26.42-12.287 9.18 11.485 10.448 29.975 14.384 34.048"/><path fill="#f5bab6" d="M14.67 23.774c4.206-3.705 12.068 1.484 12.796 7.501 2.033 16.798-36.802 13.65-12.796-7.5"/><path fill="#ec7fa9" d="M15.477 26.51c2.852-2.513 8.186 1.007 8.68 5.09 1.379 11.395-24.965 9.26-8.68-5.09"/><path fill="#f5bab6" d="M16.464 29.863c1.196-1.054 3.432.422 3.639 2.133.578 4.778-10.466 3.882-3.64-2.133"/><path fill="#ec898c" d="M14.972 78.222c1.216 2.47-2.218 5.56-5.145 5.15-8.171-1.147-1.8-19.246 5.145-5.15"/><path fill="#ec7fa9" d="M13.58 78.262c.826 1.674-1.504 3.772-3.49 3.493-5.542-.778-1.22-13.055 3.49-3.493"/><path fill="#ec898c" d="M11.877 78.31c.346.702-.63 1.581-1.463 1.464-2.324-.326-.512-5.473 1.463-1.464"/><path fill="#f5bab6" d="M60.252 62.725c25.996-18.62 70.14 30.977 11.54 25.66-6.936-.628-13.662-16.19-11.54-25.66"/><path fill="#ec7fa9" d="M60.39 61.81c3.935-4.073 5.203-22.563 14.383-34.048 12.23-15.303 25.877-4.59 26.42 12.287.353 11.005 12.903 26.888-12.158 29.184-6.936.635-29.037 2.274-28.645-7.423"/><path fill="#f5bab6" d="M89.974 23.774c24.006 21.151-14.83 24.3-12.796 7.501.728-6.017 8.59-11.206 12.796-7.5"/><path fill="#ec7fa9" d="M89.168 26.51c16.285 14.35-10.06 16.485-8.68 5.09.494-4.083 5.827-7.603 8.68-5.09"/><path fill="#f5bab6" d="M88.18 29.863c6.828 6.015-4.217 6.911-3.64 2.133.209-1.71 2.444-3.187 3.64-2.133"/><path fill="#ec898c" d="M89.672 78.222c6.944-14.096 13.316 4.003 5.146 5.15-2.927.41-6.362-2.68-5.146-5.15"/><path fill="#ec7fa9" d="M91.063 78.262c4.71-9.562 9.034 2.715 3.49 3.493-1.985.28-4.315-1.819-3.49-3.493"/><path fill="#ec898c" d="M92.767 78.31c1.974-4.009 3.787 1.138 1.464 1.464-.834.117-1.81-.762-1.464-1.464"/><path fill="#ffdc83" d="M41.636 54.29c.006-.004 11.748 1.796 16.524.054 2.383-.869 1.47 2.266-1.377 5.562-2.212 2.561-1.626 6.802-8.752 3.665-2.297-1.012-6.265-5.175-6.302-7.809 0-.007-.608-1.127-.093-1.472M67.86 50.675c2.592-.992 13.804-7.167 16.06-9.397.688-.68 1.42-2.746 1.98-3.292.397-.637.767-1.282.924-1.958.4-1.733.785-1.443 1.2-.94.244.293-.07 2.026-.26 3.12.87-.305 3.006-1.988 5.42-2.66 1.028.56-3.356 2.933-2.916 2.844 1.17-.238 3.704-2.06 4.55-1.637 1.233.618-3.5 1.756-4.17 2.893-.002.004 4.203-1.777 4.448-.813.02.084-.124.201-.578.39-.64.263-3.044 1.318-3.484 1.503.878-.102 1.562-.193 2.394-.096 2.064.24-1.97 1.122-2.422 1.215-1.477.308-4.15 1.38-5.363 2.358-4.94 5.79-16.633 11.25-20.774 14.633-3.794 3.1-2.29.675-2.482-5.008-.06-1.738 3.193-2.282 5.472-3.154" data-paper-data="{&quot;origPos&quot;:null}"/><path fill="#ffdc83" d="M72.604 39.51c-.11 19.053-43.14 24.2-42.926-2.586.163-20.506 43.076-23.51 42.926 2.585" data-paper-data="{&quot;origPos&quot;:null}"/><path fill="#fefefe" d="M38.056 36.342c2.788-.11 3.77 3.255 2.664 5.055-1.131 1.84-4.4 2.09-5.751-.702-1.353-2.793 2.005-4.31 3.087-4.353"/><path fill="#210001" d="M41.187 39.795c.004.018-.985-1.5-1.05-1.566-2.36-2.366-5.646 1.686-7.478-.77-.645-.864.323 1.011 1.8-.107 1.677-1.268 4.506-1.88 5.96.073.726.971.618 1.664.768 2.37"/><path fill="#231916" d="M37.642 37.417c2.002-.078 2.707 2.337 1.913 3.63-.813 1.321-3.16 1.5-4.13-.505-.971-2.005 1.44-3.095 2.217-3.125"/><path fill="#fefefe" d="M61.917 35.41c1.082-.04 4.547 1.21 3.414 4.1-1.133 2.89-4.41 2.895-5.68 1.148-1.241-1.708-.522-5.139 2.266-5.247"/><path fill="#231916" d="M61.696 36.754c.747-.028 3.138.835 2.356 2.83-.783 1.993-3.044 1.997-3.92.791-.857-1.178-.36-3.545 1.564-3.62"/><path fill="#210001" d="M58.876 39.067c.035-.65.074-1.2.583-2.167 1.02-1.94 3.387-1.84 5.052-.95 1.469.785 2.067-1.017 1.615-.159-1.286 2.44-4.77-.697-6.535 1.737-.05.067-.716 1.555-.715 1.54"/><path fill="#f1c28c" d="M51.375 39.067c4.153-.3 4.436 3.956 1.404 5.49-1.755.89 1.358-.367.88-3.162-.476-2.798-3.27-2.256-2.284-2.328"/><path fill="#77531d" d="M40.876 31.94c-1.798-1.36-4.262-1.262-5.454.86-.215.382.115.636 1.216-.02.936-.557 2.324-.846 3.398-.637.298.058.648.39.912.102-.025-.155.083-.188-.072-.305m17.903-.837c1.687-1.496 4.152-1.59 5.504.433.243.365-.066.642-1.214.075-.976-.483-2.383-.663-3.437-.37-.292.08-.616.44-.901.172.012-.157-.097-.18.048-.31" data-paper-data="{&quot;origPos&quot;:null}"/><path fill="#fefefe" d="M38.538 38.725c.777-.03 1.05.907.742 1.41-.315.512-1.225.581-1.602-.197-.378-.779.558-1.202.86-1.214m23.132-.577c.778-.03 1.05.907.743 1.41-.315.513-1.226.582-1.603-.196-.377-.779.559-1.202.86-1.214"/><path fill="#ee8785" d="M55.269 46.823c-.134-.037-.053 1.48-.69 2.815-1.482 3.107-7.07 2.565-7.425-1.775-.023-.282 9.476-.672 8.115-1.04"/><path fill="#d76b6c" d="M53.038 50.916c-.408.29-1.012.684-1.65.7-.626.014-1.22-.259-1.69-.53.475-1.365 2.948-1.574 3.34-.17"/><path fill="#ec7fa9" d="M64.562 44.606c.012 1.65-3.338.987-3.408.475-.25-1.81 3.4-1.512 3.408-.476m-24.24.946c.013 1.651-3.336.987-3.407.476-.25-1.812 3.4-1.512 3.408-.476"/><path fill="#77531d" d="M68.315 48.905c.262-3.988-.025-22.12-4.865-24.36.078 1.427.094 1.267.792 3.78-6.505.982-24.471 2.734-29.132 1.654.36-1.737.597-3.74 1.593-5.125-5.9 9.344-4.618 17.725-.313 26.535-.768-.074-2.134 1.34-3.684 1.151-1.032-.125-2.106-1.888-3.29-1.878-.897.008-2.194 1.4-2.956 1.135-1.317-.46-.705-1.966-1.17-3.356-.272-.82-1.891-1.488-1.885-2.18.015-1.556 2.204-1.58 2.025-2.334-.204-.862-1.768-1.563-1.763-2.355.008-1.065 1.348-1.612 1.284-2.73-.062-1.086-1.965-2.49-1.764-3.602.218-1.21 2.042-1.824 2.42-3.004C28.91 21.952 36.592 12.6 48.14 11.923c11.89-.695 21.389 6.795 26.303 16.56.44.873 2.045.23 2.498 1.79.507 1.752-.64 2.59-.368 3.461.225.715 1.719.235 2.327 1.856.692 1.842-1.29 2.28-1.14 3.272.11.742 2.06.436 2.432 1.904.337 1.336-2.072 2.172-2.084 3.09-.006.492.332 1.745-1.315 2.716-1.67.985-2.848-1.25-3.256-.302-1.262 2.934-3.523 2.675-5.223 2.634" data-paper-data="{&quot;origPos&quot;:null}"/><path fill="#fefefe" d="M48.779 48.533c-.434-.008-1.044.007-1.108-.799-.002-.023 5.9-.635 7.037-.596-.163.36-.45.803-.46.825-.21.474-4.877.58-5.468.57"/><path fill="#1ca9e2" d="M31.176 35.37c-1.434-3.579-.266-8.259.009-9.296 3.564-13.48 21.356-14.988 31.213-8.84 6.549 4.084 7.144 16.616 6.65 14.824-3.45-12.53-17.612-18.759-28.691-12.629-4.387 2.427-8.891 11.754-9.181 15.94"/><path fill="#1ca9e2" d="M38.85 18.778c-.727-8.64-.018-6.65-2.393-14.345-.383-1.243 2.427-3.602 3.172 12.884.017.377-.765 1.633-.78 1.461m19.918-1.34c.338-8.714-.28-6.633 1.744-14.625.327-1.29-2.58-3.264-2.586 13.271 0 .38.835 1.527.842 1.353"/><path fill="#1ca9e2" d="M35.466 1.476c-.772.077-2.293 3.582 2.355 3.366.864-5.415-2.21-3.38-2.355-3.366m25.97-1.2c.776.004 2.52 3.357-2.13 3.572C58.096-1.472 61.29.273 61.439.275"/><path fill="#ffdc83" d="M35.41 53.055c2.279.872 5.532 1.416 5.472 3.154-.192 5.682 1.312 8.108-2.482 5.008-4.141-3.384-15.835-8.843-20.774-14.634v.001c-1.213-.978-3.886-2.05-5.363-2.358-.452-.094-4.486-.976-2.422-1.216.832-.097 1.516-.006 2.394.096-.44-.185-2.844-1.24-3.484-1.503-.454-.188-.598-.306-.578-.39.245-.964 4.45.817 4.449.813-.671-1.136-5.404-2.274-4.17-2.892.846-.424 3.378 1.4 4.549 1.636.44.09-3.944-2.284-2.917-2.844 2.415.673 4.55 2.356 5.42 2.66-.19-1.093-.503-2.827-.26-3.12.416-.503.8-.793 1.2.94.158.676.528 1.321.925 1.958.56.546 1.292 2.612 1.98 3.292 2.256 2.23 13.468 8.406 16.06 9.4M47.575 89.92c-1.008-1.395-5.93-.299-7.522.27-4.595 1.64 1.282 17.926 2.735 22.04 3.842 10.883 6.96 2.782 6.128.922-2.36-5.266-.537-22.119-1.341-23.23m8.649-.506c.959-1.43 5.915-.509 7.527.003 4.648 1.476-.655 17.96-1.963 22.123-3.46 11.013-6.86 3.027-6.092 1.14 2.174-5.347-.237-22.126.528-23.267" data-paper-data="{&quot;origPos&quot;:null}"/><path fill="#1ca9e2" d="M51.763 114.91c2.915 5.777-7.23 3.812-7.245 3.825.01 1.284.582.385-1.178 1.014-.3-.843-.294-6.915.14-5.738.15.412.31.661.8 1.048 2.43 1.922 4.912-5.247 7.483-.15"/><path fill="#1ca9e2" d="M53.094 113.007c3-4.854 4.854 2.503 7.442.8.52-.342.7-.576.887-.973.534-1.135.014 4.914-.355 5.728-1.7-.779-1.208.165-1.087-1.113-.015-.014-10.29 1.06-6.887-4.442"/><path fill="#63c4ef" d="M58.267 53.991c1.81-.494 7.959-3.705 10.737-3.818 2.083-.085 1.455 4.591 2.042 5.763 1.43 2.851-5.352 1.76-6.474 7.388-.151.755.624 1.84-2.303 3.626 9.126 5.918 9.093 24.406 8.9 26.743-.744.121-1.15 4.753-2.144 4.867-.977.111-2.54-4.295-3.71-4.199-1.744.143-2.685 5.226-4.73 5.313-1.208.052-3.451-4.87-4.721-4.845-1.255.024-2.923 5.027-4.207 5.021-1.304-.007-2.224-5.024-3.525-5.068-1.853-.062-4.164 5.497-5.933 5.345-1.695-.146-2.855-6-4.388-6.242-2.003-.316-4.597 4.368-6.161 3.862-1.178-.382-1.441-5.908-2.278-6.412.732-2.026-.711-19.082 10.603-24.3-2.161-1.403-1.991-4.375-2.056-4.503-.477-.94-6.045-1.704-6.497-2.59-.272-.532.678-6.278 2.6-8.51.834-.969 3.09.825 5.187 1.651.419.165 2.116 1.301 4.7 1.501.836 1.391 1.48 6.67 5.53 7.434 5.812 1.097 6.968-2.547 8.828-8.027"/><path fill="#1ca9e2" d="M43.896 54.593c-.13.113 2.786 7.174 6.622 7.33 5.419.22 6.213-5.487 8.083-7.836 2.23 1.445.277 10.03-4.033 10.62-3.315.453-2.986-3.204-3.294-1.807-.363 1.642-1.56 1.784-2.786 1.842-4.792.228-7.144-7.918-4.592-10.15M38.54 67.564c5.28 6.626 23.544 4.151 24.312.032-.332-.256-.351-.269-.935-.674-4.283 3.731-21.825 2.085-22.293.085z"/></g></svg>