<svg version="1.1" xmlns="http://www.w3.org/2000/svg" xmlns:xlink="http://www.w3.org/1999/xlink" width="64.33196" height="119.75018" viewBox="0,0,64.33196,119.75018"><g transform="translate(-207.31406,-120.00069)"><g data-paper-data="{&quot;isPaintingLayer&quot;:true}" fill-rule="evenodd" stroke="none" stroke-width="1" stroke-linecap="butt" stroke-linejoin="miter" stroke-miterlimit="10" stroke-dasharray="" stroke-dashoffset="0" style="mix-blend-mode: normal"><path d="M256.865,195.376c2.655,3.371 3.669,13.523 3.669,13.523v-0.041c0.343,0.495 0.584,1.13 0.656,1.841c0.178,1.7 -0.635,3.178 -1.82,3.303c-0.778,0.08 -1.516,-0.436 -1.989,-1.274c-0.444,0.36 -0.88,0.506 -1.189,0.34c-0.585,-0.304 -0.51,-1.574 0.152,-2.827c0.253,-0.482 0.567,-0.885 0.878,-1.189c0.024,-0.051 0.049,-0.101 0.079,-0.153c0,0 -1.156,-7.332 -2.392,-9.065c-0.608,-0.871 -1.01,-1.356 -1.15,-1.743c-0.113,-0.312 -0.234,-0.9 -0.289,-1.125c-0.397,-1.738 -2.563,-5.665 -2.563,-5.665c0,0 4.667,2.431 5.958,4.075M221.015,184.07c0.87,-0.37 1.914,-0.03 2.757,0.78c0.382,-0.573 0.834,-0.891 1.254,-0.814c0.783,0.154 1.156,1.644 0.825,3.333c-0.10917,0.58995 -0.30922,1.15939 -0.593,1.688c-0.029,0.21 -0.084,0.415 -0.151,0.602l3.988,4.65l8.442,-3.008c0,0 -1.434,2.268 -1.792,3.091c-0.255,0.607 -0.756,2.512 -0.756,2.512c0,0 -6.167,2.495 -7.917,1.865c-2.166,-0.777 -4.645,-7.794 -4.645,-7.794v-0.003c-0.933,-0.326 -1.84,-1.215 -2.355,-2.433c-0.808,-1.91 -0.389,-3.909 0.943,-4.469" data-paper-data="{&quot;origPos&quot;:null}" fill="#c0906a"/><path d="M257.129,208.571c0,0 -1.492,-8.333 -2.842,-8.977c1.146,7.03 1.548,15.672 1.548,15.672h-23.03c0,0 0.315,-10.882 2.007,-18.167c-0.426,0.19 -6,2.504 -7.677,1.902c-2.161,-0.782 -5.351,-7.635 -5.351,-7.635l3.452,-1.695l4.016,4.543l7.653,-2.883c1.505,-0.985 6.09,-1.14 6.09,-1.14l1.27,0.037h0.106l1.27,-0.037c0,0 4.564,0.145 6.087,1.121c0.611,0.341 4.012,2.24 5.182,3.736c2.66,3.371 3.815,13.528 3.815,13.528l-3.595,-0.006" fill="#eeeeed"/><path d="M257.131,208.571c0,0 -0.103,-0.555 -0.27,-1.395h3.678c0.127,0.865 0.186,1.4 0.186,1.4l-3.595,-0.006M260.037,204.191c0.097,0.493 0.174,0.963 0.256,1.403l-3.728,0.2c-0.102,-0.445 -0.215,-0.92 -0.328,-1.4l3.8,-0.203M259.407,201.309c0.11931,0.4582 0.22701,0.91935 0.323,1.383l-3.81,0.515c-0.134,-0.48 -0.271,-0.947 -0.417,-1.375l3.904,-0.524M258.566,198.402c0.15411,0.45194 0.2988,0.90704 0.434,1.365l-4.075,0.63c-0.211,-0.414 -0.425,-0.704 -0.638,-0.802c0.051,0.29 0.092,0.583 0.141,0.878l-0.66,0.102l-0.223,-1.395l5.02,-0.777M257.05,195.228c0.27547,0.39207 0.51701,0.8069 0.722,1.24l-4.891,1.918l-0.521,-1.32l4.69,-1.838M254.428,192.959c0.467,0.315 0.934,0.655 1.354,0.995l-4.938,1.933l-0.523,-1.313l4.107,-1.615M222.417,192.645c-0.364,-0.707 -0.593,-1.195 -0.628,-1.27l0.798,-0.404l2.65,-1.3l0.945,1.064l-3.765,1.91M223.908,195.317c-0.258,-0.41 -0.492,-0.825 -0.72,-1.223l4.119,-2.083l0.963,1.095l-4.362,2.211M230.519,193.74l1.516,-0.577l-0.76,5.24c-0.504,0.157 -1.007,0.304 -1.498,0.415zM232.87,192.849l1.377,-0.52l0.458,4.816c-0.45339,0.19194 -0.91118,0.37333 -1.373,0.544zM230.289,193.824l-3.56,4.965c-0.478,-0.31 -0.99,-0.855 -1.5,-1.507l3.64,-3.505l0.385,0.437z" fill="#e63744"/><path d="M229.463,209.82c3.37,-1.627 26.415,-1.18 29.365,0v3.248l-29.365,-0.179v-3.068z" fill="#54aab4"/><path d="M252.249,191.411c1.777,5.625 4.851,20.698 3.464,24.028c-1.425,1.569 -10.534,0.07 -11.427,-0.08c-0.892,0.15 -10.009,1.649 -11.435,0.08c-1.388,-3.33 1.675,-18.403 3.452,-24.028c1.006,-0.86 4.786,-1.135 4.786,-1.135l3.197,4.212l3.19,-4.212c0,0 3.768,0.275 4.774,1.135" fill="#e63744"/><path d="M250.974,197.099h2.46v2.64h-2.46zM250.974,202.33h2.46v2.5h-2.46zM250.974,207.42h2.46v2.59h-2.46zM250.974,212.602h2.46v2.455h-2.46zM245.76,197.1h2.653v2.64h-2.653zM245.76,202.331h2.653v2.5h-2.653zM245.76,207.421h2.653v2.59h-2.653zM245.76,212.603h2.653v2.455h-2.653zM240.647,197.1h2.508v2.64h-2.508zM240.647,202.331h2.508v2.5h-2.508zM240.647,207.421h2.508v2.59h-2.508zM240.647,212.603h2.508v2.455h-2.508zM235.44,197.1h2.651v2.64h-2.651zM235.44,202.331h2.651v2.5h-2.651zM235.44,207.421h2.651v2.59h-2.651zM235.44,212.603h2.651v2.455h-2.651zM256.036,212.602v1.375c-0.091,0.607 -0.158,1.108 -0.309,1.468c-1.427,1.57 -10.547,0.072 -11.44,-0.081c-0.894,0.153 -10.011,1.657 -11.437,0.087c-0.05,-0.121 -0.09,-0.254 -0.132,-0.394h0.115v-2.455h-0.335c0.00979,-0.86533 0.05283,-1.72997 0.129,-2.592h0.206v-1.816c0.52,-4.404 1.614,-9.754 2.607,-13.64h2.651v-2.45h-2c0.079,-0.232 0.146,-0.473 0.213,-0.693c1.005,-0.859 4.784,-1.129 4.784,-1.129l1.387,1.822h-1.828v2.45h2.508v-1.535l1.136,1.468l1.47,-1.917v1.985h2.653v-2.45h-2.318l1.38,-1.822c0,0 3.769,0.27 4.775,1.128c0.071,0.216 0.14,0.462 0.21,0.694h-1.488v2.45h2.16c1.357,5.323 2.903,13.433 2.933,18.048h-0.03z" fill="#cb67a4"/><path d="M235.44,197.099h-0.628c0.206,-0.893 0.412,-1.743 0.618,-2.544h0.01v2.545zM240.647,192.104h-2.554v-1.387c0.897,-0.216 1.986,-0.34 2.554,-0.401zM238.07,194.554h2.566v2.556h-2.566zM243.172,194.554h2.574v2.556h-2.574zM250.973,190.84v1.265h-2.557v-1.732c0.71,0.083 1.75,0.232 2.557,0.468zM248.416,194.554h2.571v2.556h-2.571zM253.434,195.828c0.095,0.412 0.212,0.849 0.311,1.272h-0.311v-1.272M235.44,202.332h-1.708c0.15735,-0.86671 0.32871,-1.73083 0.514,-2.592h1.194v2.59zM238.07,199.74h2.566v2.587h-2.566zM243.172,199.74h2.574v2.587h-2.574zM248.416,199.74h2.571v2.587h-2.571zM254.316,199.74c0.1815,0.86136 0.35152,1.72511 0.51,2.591h-1.392v-2.591h0.883M232.918,207.422c0.11372,-0.866 0.24141,-1.73012 0.383,-2.592h2.139v2.592zM238.07,204.814h2.566v2.586h-2.566zM243.172,204.814h2.574v2.586h-2.574zM248.416,204.814h2.571v2.586h-2.571zM255.256,204.831c0.14649,0.86078 0.27419,1.72465 0.383,2.591h-2.206v-2.592h1.823M232.821,210.03h2.61v2.557h-2.611zM238.07,210.03h2.566v2.557h-2.566zM243.172,210.03h2.574v2.557h-2.574zM248.416,210.03h2.571v2.557h-2.571zM256.036,212.602h-2.603v-2.59h2.503c0.03,0.423 0.055,0.796 0.1,1.166zM232.833,215.058h2.608v1.073c-1.238,-0.062 -2.189,-0.255 -2.581,-0.692c-0.009,-0.018 -0.027,-0.038 -0.027,-0.063zM240.647,215.871c-0.804,0.091 -1.704,0.173 -2.554,0.225v-1.039h2.554v0.813M243.155,215.057h2.608v0.527c-0.757,-0.104 -1.287,-0.195 -1.473,-0.224c-0.154,0.025 -0.565,0.09 -1.135,0.175zM250.973,216.12c-0.854,-0.04 -1.707,-0.115 -2.557,-0.2v-0.864h2.557v1.064M255.844,215.057c-0.0403,0.13281 -0.086,0.26392 -0.137,0.393c-0.353,0.397 -1.185,0.587 -2.273,0.665v-1.058z" fill="#68b54f"/><path d="M244.286,194.487l0.122,-0.153v21.047l-0.122,-0.022l-0.117,0.022v-21.047z" fill="#437231"/><path d="M258.815,209.84c3.506,3.244 -3.613,21.094 -7.097,24.315c-1.32,1.217 -7.199,0 -7.199,0l-0.278,-13.663h-0.206l-0.275,13.663c0,0 -5.879,1.217 -7.199,0c-3.492,-3.221 -10.25,-20.735 -7.105,-24.315c4.544,2.584 24.917,2.584 29.36,0" fill="#6cc5d8"/><path d="M236.565,214.181l2.107,-23.588l-1.136,0.263l-2.83,22.991zM252.089,214.181l-2.389,-23.625l1.273,0.285l2.93,22.862z" fill="#0771b7"/><path d="M236.883,214.601c0,0.84776 -0.68724,1.535 -1.535,1.535c-0.84776,0 -1.535,-0.68724 -1.535,-1.535c0,-0.845 0.682,-1.525 1.536,-1.525c0.842,0 1.534,0.68 1.534,1.525M254.88,214.601c0,0.845 -0.685,1.53 -1.535,1.53c-0.85,0 -1.537,-0.685 -1.537,-1.53c0,-0.845 0.686,-1.525 1.537,-1.525c0.85,0 1.535,0.68 1.535,1.525" fill="#f7b90b"/><path d="M253.661,234.11c0,0 -2.424,-2.019 -4.481,0h-4.666c-0.061,0.245 0.018,0.56 0.184,0.815c0.544,0.833 1.486,1.498 2.291,2.06c1.24,0.841 2.806,1.281 4.178,1.933c1.243,0.518 2.876,1.458 3.984,0.225c1.47,-1.757 0.222,-3.978 -1.49,-5.033M234.606,234.11c0,0 2.431,-2.019 4.479,0h4.67c0.06,0.245 -0.021,0.56 -0.191,0.815c-0.544,0.833 -1.482,1.498 -2.28,2.06c-1.245,0.841 -2.81,1.281 -4.185,1.933c-1.237,0.518 -2.875,1.458 -3.985,0.225c-1.473,-1.757 -0.225,-3.978 1.492,-5.033" fill="#e63744"/><path d="M261.19,210.715c0.178,1.689 -0.635,3.161 -1.815,3.288c-0.773,0.08 -1.511,-0.437 -1.984,-1.27c-0.44,0.36 -0.872,0.505 -1.184,0.34c-0.576,-0.31 -0.512,-1.569 0.154,-2.817c0.258,-0.48 0.56,-0.885 0.87,-1.19c0.03,-0.052 0.07,-0.125 0.098,-0.172l3.21,0.005c0.36839,0.53987 0.5925,1.16504 0.651,1.816M244.296,193.229l2.752,-2.943c-0.814,-0.083 -1.421,-0.108 -1.421,-0.108l-1.27,0.041h-0.113l-1.261,-0.063c0,0 -0.672,0.031 -1.547,0.134l2.86,2.94z" data-paper-data="{&quot;origPos&quot;:null}" fill="#c0906a"/><path d="M242.932,191.225c-0.775,0 -1.397,-1.648 -1.397,-2.401h5.494c0,0.753 -0.623,2.401 -1.397,2.401h-2.7" data-paper-data="{&quot;origPos&quot;:null}" fill="#c0906a"/><path d="M242.127,190.718c-0.311,-0.47 -0.529,-1.122 -0.581,-1.59c0.88455,0.1425 1.77904,0.2144 2.675,0.215c0.953,0 1.887,-0.087 2.797,-0.237l-0.011,0.012l-4.88,1.6" fill="#eeac6c"/><path d="M260.556,175.373c0.842,0.54 1.405,1.465 1.405,2.515c0,1.661 -1.419,3.015 -3.154,3.015c-0.05,0 -0.1,0 -0.15,-0.005c-2.92922,5.22189 -8.45264,8.45218 -14.44,8.445c-5.9908,0.00815 -11.51642,-3.22801 -14.44,-8.457c-0.12,0.012 -0.231,0.017 -0.353,0.017c-1.742,0 -3.152,-1.354 -3.152,-3.015c0,-1.13 0.643,-2.11 1.598,-2.629c-0.112,-0.77 -0.172,-1.56 -0.172,-2.358c0,-9.08 7.396,-16.442 16.52,-16.442c9.127,0 16.52,7.362 16.52,16.442c0,0.84 -0.062,1.663 -0.182,2.472z" fill="#eeeeed"/><path d="M234,175.602c0,-2.537 1.105,-4.602 2.467,-4.602c1.367,0 2.464,2.065 2.464,4.602c0,2.54 -1.097,4.6 -2.464,4.6c-1.361,0 -2.467,-2.06 -2.467,-4.6" fill="#6cc5d8"/><path d="M238.538,175.7c0,1.491 -0.792,2.7 -1.769,2.7c-0.977,0 -1.769,-1.209 -1.769,-2.7c0,-1.491 0.792,-2.7 1.77,-2.7c0.976,0 1.768,1.209 1.768,2.7M254.538,175.7c0,1.491 -0.791,2.7 -1.769,2.7c-0.977,0 -1.769,-1.209 -1.769,-2.7c0,-1.491 0.792,-2.7 1.77,-2.7c0.977,0 1.768,1.209 1.768,2.7" fill="#2c2c2d"/><path d="M238.484,181.226c0,0 6.104,2.888 11.654,-0.356c0,0 -1.23,4.922 -5.263,5.005c-3.641,0.11 -4.409,-1.343 -4.845,-1.76c-0.437,-0.418 -1.258,-1.596 -1.546,-2.889" fill="#e2a86e"/><path d="M244.195,188.597c-7.07,0 -9.739,-6.138 -7.73,-7.603c1.898,-1.019 4.821,1.22 7.711,1.2c2.803,-0.017 5.518,-2.219 7.714,-1.2c1.795,1.723 -0.615,7.603 -7.695,7.603" fill="#cb67a4"/><path d="M244.195,187.832c-5.523,0 -5.523,-5.458 -5.523,-5.458c5.512,1.743 11.052,0 11.052,0c0,0 0,5.458 -5.529,5.458" fill="#eeac6c"/><path d="M247.358,179.25c0,0.926 -1.37,1.67 -3.055,1.67c-1.69,0 -3.058,-0.744 -3.058,-1.67c0,-0.919 1.368,-1.669 3.058,-1.669c1.685,0 3.055,0.75 3.055,1.669" fill="#e63744"/><path d="M244.195,180.49c-0.68,0 -1.486,-0.18 -2.297,-0.759l0.19,-0.264c2.179,1.546 4.326,0.013 4.35,0l0.2,0.264c-0.03,0.014 -0.604,0.429 -1.472,0.644c-0.31804,0.07626 -0.64394,0.11486 -0.971,0.115" fill="#c12636"/><path d="M271.646,166.191c0.00144,1.17677 -0.71855,2.23414 -1.814,2.664c0.479,0.513 0.774,1.198 0.774,1.955c-0.00358,1.39362 -1.0055,2.58429 -2.378,2.826c0.33,0.464 0.53,1.034 0.53,1.654c-0.00364,1.23381 -0.79279,2.32823 -1.96228,2.72138c-1.1695,0.39315 -2.45951,-0.00232 -3.20772,-0.98338c-0.282,0.088 -0.578,0.138 -0.885,0.138c-1.41052,-0.00325 -2.61591,-1.01694 -2.861,-2.406h-0.028c-1.11734,0.00175 -2.13559,-0.64073 -2.615,-1.65c-0.87433,0.28819 -1.8338,0.14026 -2.58071,-0.39792c-0.74691,-0.53817 -1.19093,-1.40149 -1.19429,-2.32208v-0.042c-1.11951,0.16906 -2.23434,-0.33281 -2.85,-1.283c-0.532,0.603 -1.306,0.983 -2.175,0.983c-0.728,0 -1.392,-0.265 -1.898,-0.708c0.38216,1.32288 -0.22208,2.73165 -1.44394,3.36655c-1.22187,0.63489 -2.72197,0.31956 -3.58479,-0.75356c-0.86282,-1.07312 -0.84871,-2.60594 0.03374,-3.66299c-0.515,0.48 -1.206,0.77 -1.965,0.77c-0.537,0 -1.043,-0.145 -1.477,-0.405c-0.46007,1.04874 -1.49779,1.72524 -2.643,1.723c-0.146,0 -0.292,-0.01 -0.433,-0.03v0.042c-0.00132,0.76204 -0.30566,1.49227 -0.8459,2.02971c-0.54025,0.53744 -1.27206,0.83795 -2.0341,0.83529c-0.315,0 -0.617,-0.05 -0.897,-0.145c-0.47718,1.00799 -1.49276,1.65052 -2.608,1.65h-0.041c-0.13998,0.82628 -0.63187,1.55106 -1.34805,1.98629c-0.71618,0.43523 -1.58605,0.53803 -2.38395,0.28171c-0.54507,0.71243 -1.39097,1.13021 -2.288,1.13c-1.58704,0.00276 -2.87614,-1.28096 -2.88,-2.868c-0.0019,-0.5923 0.18091,-1.17047 0.523,-1.654c-1.37067,-0.24412 -2.37046,-1.43377 -2.375,-2.826c0.00017,-0.72654 0.27732,-1.42568 0.775,-1.955c-1.14772,-0.01125 -2.17788,-0.70662 -2.61751,-1.76686c-0.43963,-1.06025 -0.20382,-2.28055 0.59917,-3.10067c0.80299,-0.82012 2.01805,-1.08163 3.08734,-0.66446c0.321,0 0.638,0.055 0.931,0.155c0.293,-1.273 1.439,-2.228 2.803,-2.228h0.013v-0.004c0.00159,-0.76275 0.30632,-1.49359 0.84708,-2.03153c0.54075,-0.53794 1.27317,-0.83886 2.03592,-0.83647c0.26255,-0.00119 0.52401,0.03381 0.777,0.104c0.22161,-0.7726 0.75558,-1.41766 1.47319,-1.77969c0.7176,-0.36203 1.55373,-0.40817 2.30681,-0.12731c-0.02355,-0.77718 0.26901,-1.5307 0.81084,-2.08837c0.54183,-0.55766 1.28662,-0.8718 2.06416,-0.87063c0.54194,-0.00076 1.07305,0.15178 1.532,0.44c0.95094,-1.2615 2.73921,-1.52442 4.013,-0.59c0.45783,-1.05381 1.49804,-1.73484 2.647,-1.733c0.90185,-0.00402 1.75306,0.4164 2.298,1.135c0.528,-0.69 1.36,-1.135 2.298,-1.135c1.15029,-0.00135 2.19201,0.67913 2.653,1.733c0.471,-0.35 1.064,-0.56 1.706,-0.56c0.90521,0.00234 1.75725,0.42781 2.303,1.15c0.444,-0.278 0.971,-0.44 1.534,-0.44c1.58769,-0.00222 2.87749,1.28132 2.883,2.869c0,0.028 0,0.058 -0.007,0.09c0.75345,-0.27874 1.58886,-0.23176 2.3063,0.12971c0.71744,0.36147 1.25235,1.0049 1.4767,1.77629c0.24,-0.07 0.502,-0.103 0.77,-0.103c0.76335,-0.00346 1.49669,0.29702 2.03816,0.83511c0.54146,0.53809 0.84652,1.26953 0.84784,2.03289v0.004h0.01c1.34027,0.001 2.50399,0.92336 2.811,2.228c0.87753,-0.30227 1.84701,-0.16216 2.60305,0.37619c0.75604,0.53836 1.20556,1.40868 1.20695,2.33681" fill="#f08314"/><path d="M244.177,156.347c0,0 1.176,-8.545 2.991,-10.633c2.454,-2.828 16.069,2.392 15.982,6.123c-0.062,2.762 -4.96,9.889 -4.96,9.889c0,0 -8.231,-1.515 -14.013,-5.379" fill="#68b54f"/><path d="M244.357,155.169c3.767,-0.013 10.944,2.71 14.582,5.427l-0.748,1.13c0,0 -8.231,-1.515 -14.014,-5.379l0.18,-1.177" fill="#e63744"/><path d="M260.062,161.624c0.112,0.162 -0.089,1.125 -0.508,1.315c-0.395,0.179 -1.332,0.055 -1.747,-0.065c-3.654,-1.038 -10.768,-3.798 -14.194,-5.44c-0.38,-0.185 -1.185,-0.691 -1.285,-1.1c-0.125,-0.543 0.322,-1.27 0.513,-1.315c0.41,-0.103 0.948,0.86 1.295,1.105c3.179,2.254 10.443,5.049 14.212,5.447c0.422,0.05 1.479,-0.307 1.714,0.053" fill="#68b54f"/><path d="M245.604,157.573c0.76239,-0.00212 1.49435,0.29897 2.03457,0.83694c0.54022,0.53797 0.84437,1.26866 0.84543,2.03106c-0.00132,0.7624 -0.30573,1.49298 -0.84614,2.03077c-0.54041,0.53778 -1.27247,0.83863 -2.03486,0.83623c-1.02435,0.00255 -1.97307,-0.53882 -2.492,-1.422c-0.077,0.009 -0.169,0.009 -0.252,0.009c-0.76256,0.00266 -1.49482,-0.29827 -2.03516,-0.83635c-0.54034,-0.53808 -0.84432,-1.26909 -0.84484,-2.03165c0.00079,-0.76256 0.30503,-1.49346 0.84555,-2.03135c0.54052,-0.5379 1.27289,-0.83857 2.03545,-0.83565c1.02591,0.00039 1.97472,0.54463 2.493,1.43c0.076,-0.012 0.168,-0.017 0.25,-0.017M257.585,162.475c1.58854,-0.00498 2.88049,1.27846 2.886,2.867c-0.00238,0.76294 -0.30781,1.49367 -0.84907,2.03136c-0.54126,0.5377 -1.27399,0.83829 -2.03693,0.83564c-0.99487,0.00194 -1.92018,-0.51006 -2.447,-1.354c-0.278,0.086 -0.57,0.13 -0.87,0.13c-1.58736,0.00166 -2.87614,-1.28264 -2.88,-2.87c0.00661,-1.58564 1.29535,-2.86677 2.881,-2.864c0.99653,-0.00135 1.92304,0.5122 2.45,1.358c0.273,-0.085 0.565,-0.134 0.866,-0.134" fill="#f08314"/><path d="M262.052,153.022h-1.12c0,0 -0.841,-3.861 0,-4.691c0.194,-0.2 0.94,-0.22 1.12,0c0.742,0.908 0,4.691 0,4.691" fill="#e63744"/><path d="M261.89,153.083l-1.033,0.433c0,0 -2.281,-3.232 -1.84,-4.322c0.106,-0.258 0.783,-0.565 1.03,-0.433c1.04,0.553 1.843,4.322 1.843,4.322" fill="#e63744"/><path d="M261.118,152.814c0,0 1.069,-3.7 2.146,-4.178c0.253,-0.11 0.905,0.246 0.995,0.508c0.363,1.117 -2.147,4.178 -2.147,4.178l-0.994,-0.508M261.861,153.976c0,0 -0.452,3.828 -1.436,4.474c-0.237,0.146 -0.943,-0.092 -1.07,-0.342c-0.539,-1.042 1.434,-4.472 1.434,-4.472l1.071,0.34" fill="#e63744"/><path d="M262.162,153.641c0,0 1.526,3.541 0.998,4.587c-0.125,0.25 -0.857,0.39 -1.095,0.24c-0.988,-0.634 -0.997,-4.586 -0.997,-4.586l1.094,-0.242" fill="#e63744"/><path d="M261.99,154.06l-0.162,-1.104c0,0 3.723,-1.367 4.671,-0.669c0.22,0.17 0.347,0.9 0.156,1.105c-0.796,0.859 -4.665,0.669 -4.665,0.669" fill="#e63744"/><path d="M261.907,153.911l-0.58,-0.955c0,0 2.893,-2.707 4.037,-2.425c0.271,0.063 0.675,0.688 0.57,0.952c-0.4,1.103 -4.027,2.428 -4.027,2.428" fill="#e63744"/><path d="M262.061,153.112c0,0 3.835,0.523 4.458,1.52c0.151,0.233 -0.111,0.928 -0.361,1.052c-1.056,0.515 -4.459,-1.517 -4.459,-1.517l0.361,-1.055" fill="#e63744"/><path d="M262.029,153.421c0,0 3.195,2.18 3.305,3.342c0.03,0.281 -0.511,0.785 -0.794,0.785c-1.181,-0.009 -3.313,-3.347 -3.313,-3.347l0.803,-0.78M261.063,153.957c0,0 -3.867,0.19 -4.667,-0.669c-0.187,-0.205 -0.068,-0.94 0.157,-1.105c0.944,-0.705 4.67,0.669 4.67,0.669l-0.16,1.105" fill="#e63744"/><path d="M261.148,153.802c0,0 -3.635,-1.325 -4.037,-2.423c-0.101,-0.265 0.305,-0.889 0.578,-0.955c1.142,-0.279 4.035,2.428 4.035,2.428l-0.576,0.95" fill="#e63744"/><path d="M260.986,153.006l0.362,1.05c0,0 -3.397,2.038 -4.46,1.524c-0.252,-0.124 -0.51,-0.819 -0.36,-1.055c0.627,-0.994 4.458,-1.519 4.458,-1.519" fill="#e63744"/><path d="M261.022,153.317l0.797,0.78c0,0 -2.127,3.338 -3.308,3.347c-0.283,0 -0.83,-0.505 -0.8,-0.785c0.117,-1.17 3.31,-3.342 3.31,-3.342" fill="#e63744"/><path d="M263.019,153.537c0,1.043 -0.698,1.893 -1.561,1.893c-0.864,0 -1.566,-0.85 -1.566,-1.893c0,-1.044 0.702,-1.894 1.566,-1.894c0.863,0 1.561,0.85 1.561,1.894" fill="#f7b90b"/><path d="M242.86,156.255c-1.34961,-0.00144 -2.50618,0.96468 -2.745,2.293h-0.196c0.2442,-1.43381 1.48655,-2.48269 2.941,-2.483c1.03648,0.00352 1.99783,0.54147 2.543,1.423c0.069,-0.005 0.141,-0.012 0.201,-0.012c1.6411,-0.00277 2.97449,1.32391 2.98,2.965c0,0.224 -0.03,0.439 -0.076,0.649h-0.192c0.05,-0.205 0.077,-0.425 0.077,-0.649c-0.00716,-1.53476 -1.25423,-2.77467 -2.789,-2.773c-0.078,0 -0.156,0.005 -0.248,0.015l-0.054,0.005l-0.035,-0.055c-0.5025,-0.85236 -1.41755,-1.37622 -2.407,-1.378M254.268,161.346c-0.83406,-0.00065 -1.62451,0.37256 -2.154,1.017h-0.235c0.55835,-0.75968 1.4452,-1.20793 2.388,-1.207c1.00476,-0.00642 1.94345,0.49988 2.49,1.343c0.271,-0.08 0.549,-0.12 0.827,-0.12c1.643,0 2.982,1.33 2.982,2.962c0.00184,0.64546 -0.21059,1.27328 -0.604,1.785h-0.24c0.407,-0.485 0.652,-1.103 0.652,-1.785c-0.00456,-0.88541 -0.42971,-1.71594 -1.14532,-2.23735c-0.71561,-0.52141 -1.63646,-0.67162 -2.48068,-0.40465l-0.07,0.02l-0.042,-0.06c-0.511,-0.823 -1.393,-1.313 -2.368,-1.313" fill="#bb6416"/><path d="M244.277,191.925c0,0 -5.313,6.66 -7.616,5.925c-2.084,-0.665 -2.205,-7.39 -0.451,-8.698c1.7,-1.275 8.067,2.773 8.067,2.773" fill="#f7b90b"/><path d="M244.264,191.925c0,0 6.36,-4.048 8.066,-2.773c1.744,1.308 1.637,8.033 -0.45,8.698c-2.303,0.735 -7.616,-5.925 -7.616,-5.925" fill="#f7b90b"/><path d="M245.183,192.284c0,0.69 -0.395,1.254 -0.886,1.254c-0.49,0 -0.885,-0.564 -0.885,-1.254c0,-0.694 0.394,-1.259 0.885,-1.259c0.49,0 0.886,0.565 0.886,1.258" data-paper-data="{&quot;origPos&quot;:null}" fill="#f7b90b"/><path d="M236.448,193.665c0.906,0 1.64,0.729 1.64,1.629c0,0.898 -0.734,1.626 -1.64,1.626c-0.32,0 -0.616,-0.091 -0.873,-0.248c-0.273,-0.612 -0.445,-1.39 -0.527,-2.218c0.281,-0.477 0.805,-0.789 1.4,-0.789M236.21,189.152c0.38,-0.285 0.998,-0.303 1.72,-0.162c0.102,0.212 0.157,0.449 0.157,0.692c0.00013,0.66421 -0.40182,1.2624 -1.01683,1.51328c-0.61501,0.25088 -1.32068,0.10451 -1.78517,-0.37028c0.204,-0.755 0.511,-1.361 0.925,-1.673M240.521,191.59c0.903,0 1.637,0.73 1.637,1.629c0,0.9 -0.734,1.63 -1.637,1.63c-0.903,0 -1.636,-0.73 -1.636,-1.63c0,-0.899 0.733,-1.629 1.636,-1.629M248.885,191.569c0,0.9 -0.732,1.631 -1.637,1.631c-0.51842,0.00014 -1.00618,-0.24559 -1.3146,-0.66228c-0.30842,-0.41669 -0.40096,-0.95496 -0.2494,-1.45072c0.6763,-0.381 1.36572,-0.73822 2.067,-1.071c0.658,0.215 1.134,0.83 1.134,1.553M250.231,194.323c0.906,0 1.638,0.728 1.638,1.63c-0.00277,0.86461 -0.67784,1.5778 -1.541,1.628c-0.523,-0.261 -1.082,-0.645 -1.645,-1.095c-0.17084,-0.49928 -0.09004,-1.05034 0.21694,-1.47956c0.30698,-0.42922 0.80236,-0.68377 1.33006,-0.68344M253.406,191.527c-0.136,0.763 -0.803,1.343 -1.613,1.343c-0.903,0 -1.637,-0.73 -1.637,-1.63c0,-0.9 0.734,-1.627 1.637,-1.627c0.47976,-0.00062 0.93618,0.20697 1.251,0.569c0.16739,0.43443 0.28873,0.88524 0.362,1.345" fill="#f08314"/><path d="M222.824,189.896l-5.628,-43.366l0.543,-0.07l5.633,43.365z" fill="#684516"/><path d="M223.908,189.963l-0.549,-0.055l4.293,-43.51l0.55,0.056z" fill="#684516"/><path d="M223.087,190.021l-2.315,-43.658l0.548,-0.025l2.32,43.658z" fill="#684516"/><path d="M226.557,141.65c0.547,3.649 -1.303,11.522 -4.968,12.065c-3.662,0.544 -7.749,-6.44 -8.3,-10.086c-0.546,-3.645 1.98,-7.044 5.643,-7.589c3.665,-0.543 7.077,1.969 7.625,5.61" fill="#f08314"/><path d="M220.375,135.658c1.198,3.484 0.796,11.563 -2.71,12.751c-3.51,1.19 -8.789,-4.948 -9.99,-8.436c-1.196,-3.492 0.677,-7.284 4.188,-8.479c3.504,-1.188 7.315,0.675 8.512,4.164" fill="#68b54f"/><path d="M229.931,125.64c0.359,3.453 -1.72,10.774 -5.192,11.131c-3.47,0.36 -7.013,-6.385 -7.375,-9.838c-0.355,-3.453 2.164,-6.545 5.633,-6.898c3.477,-0.36 6.58,2.154 6.934,5.604" fill="#db3f3f"/><path d="M236.028,131.299c-0.932,3.35 -5.538,9.423 -8.901,8.5c-3.364,-0.919 -4.206,-8.489 -3.28,-11.835c0.928,-3.344 4.402,-5.31 7.769,-4.389c3.363,0.919 5.343,4.377 4.412,7.724" fill="#0771b7"/><path d="M236.098,140.008c-0.8,3.602 -5.362,10.292 -8.983,9.492c-3.615,-0.795 -4.921,-8.777 -4.117,-12.375c0.802,-3.602 4.385,-5.875 8.003,-5.075c3.615,0.793 5.896,4.36 5.097,7.958" fill="#db3f3e"/><path d="M228.1,132.088c0,3.57 -2.902,10.837 -6.488,10.837c-3.583,0 -6.494,-7.267 -6.494,-10.837c0,-3.566 2.911,-6.458 6.494,-6.458c3.586,0 6.487,2.891 6.487,6.458" fill="#f7b90b"/><path d="M225.9,187.16c-0.242,1.606 -1.043,2.826 -1.791,2.716c-0.75,-0.113 -1.163,-1.508 -0.92,-3.123c0.241,-1.612 1.044,-2.827 1.797,-2.717c0.742,0.109 1.158,1.509 0.915,3.124" data-paper-data="{&quot;origPos&quot;:null}" fill="none"/></g></g></svg>