<svg xmlns="http://www.w3.org/2000/svg" width="64.332" height="119.75"><g fill-rule="evenodd" stroke-miterlimit="10" data-paper-data="{&quot;isPaintingLayer&quot;:true}" style="mix-blend-mode:normal"><path fill="#c0906a" d="M49.55 75.375c2.656 3.371 3.67 13.523 3.67 13.523v-.04c.343.494.584 1.13.656 1.84.178 1.7-.635 3.178-1.82 3.303-.778.08-1.516-.436-1.99-1.274-.443.36-.88.506-1.188.34-.585-.304-.51-1.574.152-2.827.253-.482.567-.885.878-1.189.024-.05.049-.1.079-.153 0 0-1.156-7.332-2.392-9.065-.608-.87-1.01-1.356-1.15-1.743-.113-.312-.234-.9-.29-1.125-.396-1.738-2.562-5.665-2.562-5.665s4.667 2.431 5.958 4.075M13.7 64.07c.87-.37 1.914-.03 2.757.78.382-.573.834-.89 1.254-.814.783.154 1.156 1.644.825 3.333a5.8 5.8 0 0 1-.593 1.688c-.03.21-.084.415-.151.602l3.988 4.65 8.442-3.008s-1.434 2.268-1.792 3.091c-.255.607-.756 2.512-.756 2.512s-6.167 2.495-7.917 1.865c-2.166-.777-4.645-7.794-4.645-7.794v-.003c-.933-.326-1.84-1.215-2.355-2.433-.808-1.91-.39-3.909.943-4.469" data-paper-data="{&quot;origPos&quot;:null}"/><path fill="#eeeeed" d="M49.815 88.57s-1.492-8.333-2.842-8.977c1.146 7.03 1.548 15.672 1.548 15.672H25.49s.315-10.882 2.007-18.167c-.426.19-6 2.504-7.677 1.902-2.161-.782-5.351-7.635-5.351-7.635l3.452-1.695 4.016 4.543 7.653-2.883c1.505-.985 6.09-1.14 6.09-1.14l1.27.037h.106l1.27-.037s4.564.145 6.087 1.121c.61.341 4.012 2.24 5.182 3.736 2.66 3.371 3.815 13.528 3.815 13.528l-3.595-.006"/><path fill="#e63744" d="M49.817 88.57s-.103-.555-.27-1.395h3.678c.127.865.186 1.4.186 1.4l-3.595-.006m2.907-4.379c.097.493.174.963.256 1.403l-3.728.2c-.102-.445-.215-.92-.328-1.4l3.8-.203m-.63-2.882c.12.459.227.92.323 1.383l-3.81.515c-.134-.48-.271-.947-.417-1.375l3.904-.524m-.841-2.906c.154.452.299.907.434 1.365l-4.075.63c-.211-.414-.425-.704-.638-.802.05.29.092.583.14.878l-.66.102-.222-1.395 5.02-.777m-1.515-3.175c.275.392.517.807.722 1.24l-4.891 1.918-.521-1.32 4.69-1.838m-2.622-2.269c.467.315.934.655 1.354.995l-4.938 1.933-.523-1.313 4.107-1.615m-32.011-.314a38.848 38.848 0 0 1-.628-1.27l.798-.404 2.65-1.3.945 1.064-3.765 1.91m1.49 2.672c-.257-.41-.491-.825-.72-1.223l4.12-2.083.963 1.095-4.362 2.211m6.61-1.577 1.517-.577-.76 5.24c-.504.157-1.007.304-1.498.415zm2.352-.89 1.377-.52.458 4.815a31.78 31.78 0 0 1-1.373.544zm-2.581.974-3.56 4.965c-.478-.31-.99-.855-1.5-1.507l3.64-3.505.385.437z"/><path fill="#54aab4" d="M22.149 89.82c3.37-1.628 26.415-1.18 29.365 0v3.247l-29.365-.179V89.82z"/><path fill="#e63744" d="M44.935 71.41c1.777 5.625 4.85 20.698 3.464 24.028-1.425 1.57-10.534.07-11.427-.08-.892.15-10.01 1.65-11.435.08-1.388-3.33 1.675-18.403 3.452-24.028 1.006-.86 4.786-1.135 4.786-1.135l3.197 4.212 3.19-4.212s3.768.275 4.774 1.135"/><path fill="#cb67a4" d="M43.66 77.098h2.46v2.64h-2.46zm0 5.231h2.46v2.5h-2.46zm0 5.09h2.46v2.59h-2.46zm0 5.182h2.46v2.455h-2.46zM38.446 77.1h2.653v2.64h-2.653zm0 5.231h2.653v2.5h-2.653zm0 5.09h2.653v2.59h-2.653zm0 5.182h2.653v2.455h-2.653zM33.333 77.1h2.508v2.64h-2.508zm0 5.231h2.508v2.5h-2.508zm0 5.09h2.508v2.59h-2.508zm0 5.182h2.508v2.455h-2.508zM28.126 77.1h2.65v2.64h-2.65zm0 5.231h2.65v2.5h-2.65zm0 5.09h2.65v2.59h-2.65zm0 5.182h2.65v2.455h-2.65zm20.596 0v1.374c-.091.607-.158 1.108-.31 1.468-1.426 1.57-10.546.072-11.44-.08-.893.152-10.01 1.656-11.436.086a4.224 4.224 0 0 1-.132-.394h.115v-2.455h-.335c.01-.865.053-1.73.129-2.592h.206v-1.816c.52-4.404 1.614-9.754 2.607-13.64h2.65v-2.45h-2c.08-.232.147-.473.214-.693 1.005-.859 4.784-1.129 4.784-1.129l1.387 1.822h-1.828v2.45h2.508v-1.535l1.136 1.468 1.47-1.917v1.985H41.1v-2.45h-2.318l1.38-1.822s3.769.27 4.775 1.128c.07.216.14.462.21.694h-1.488v2.45h2.16c1.357 5.323 2.903 13.433 2.933 18.048h-.03z"/><path fill="#68b54f" d="M28.126 77.098h-.628c.206-.893.412-1.743.618-2.544h.01V77.1zm5.207-4.995h-2.554v-1.387c.897-.216 1.986-.34 2.554-.4zm-2.577 2.45h2.566v2.556h-2.566zm5.102 0h2.574v2.556h-2.574zm7.8-3.714v1.265h-2.556v-1.732c.71.083 1.75.232 2.557.468zm-2.556 3.714h2.57v2.556h-2.57zm5.018 1.274c.095.412.212.85.31 1.272h-.31v-1.272m-17.994 6.504h-1.708c.157-.866.329-1.73.514-2.592h1.194v2.59zm2.63-2.592h2.566v2.587h-2.566zm5.102 0h2.574v2.587h-2.574zm5.244 0h2.57v2.587h-2.57zm5.9 0c.181.862.351 1.725.51 2.591H46.12v-2.59h.883m-21.4 7.681c.115-.866.242-1.73.384-2.592h2.139v2.592zm5.153-2.608h2.566V87.4h-2.566zm5.102 0h2.574V87.4h-2.574zm5.244 0h2.57V87.4h-2.57zm6.84.017c.146.861.274 1.725.383 2.591h-2.206V84.83h1.823m-22.435 5.2h2.61v2.557h-2.611zm5.249 0h2.566v2.557h-2.566zm5.102 0h2.574v2.557h-2.574zm5.244 0h2.57v2.557h-2.57zm7.62 2.572h-2.603v-2.59h2.503c.03.423.055.796.1 1.166zm-23.203 2.456h2.608v1.073c-1.238-.062-2.19-.255-2.581-.692-.01-.018-.027-.038-.027-.063zm7.814.813c-.804.091-1.704.173-2.554.225v-1.039h2.554v.813m2.508-.813h2.608v.527c-.757-.104-1.287-.195-1.473-.224-.154.025-.565.09-1.135.175zm7.818 1.063a48.548 48.548 0 0 1-2.557-.2v-.864h2.557v1.064m4.87-1.063c-.04.133-.085.264-.136.393-.353.397-1.185.587-2.273.665v-1.058z"/><path fill="#437231" d="m36.972 74.486.122-.153V95.38l-.122-.022-.117.022V74.333z"/><path fill="#6cc5d8" d="M51.5 89.84c3.507 3.243-3.612 21.093-7.096 24.314-1.32 1.217-7.2 0-7.2 0l-.277-13.663h-.206l-.275 13.663s-5.88 1.217-7.2 0c-3.491-3.22-10.25-20.735-7.104-24.315 4.544 2.584 24.917 2.584 29.36 0"/><path fill="#0771b7" d="m29.25 94.18 2.108-23.588-1.136.263-2.83 22.991zm15.525 0-2.39-23.625 1.274.285 2.93 22.862z"/><path fill="#f7b90b" d="M29.569 94.6a1.535 1.535 0 1 1-3.07 0c0-.845.682-1.525 1.536-1.525.842 0 1.534.68 1.534 1.525m17.997 0c0 .845-.685 1.53-1.535 1.53-.85 0-1.537-.685-1.537-1.53s.686-1.525 1.537-1.525c.85 0 1.535.68 1.535 1.525"/><path fill="#e63744" d="M46.347 114.11s-2.424-2.02-4.481 0H37.2c-.061.244.018.56.184.814.544.833 1.486 1.498 2.29 2.06 1.24.841 2.807 1.281 4.179 1.933 1.243.518 2.876 1.458 3.984.225 1.47-1.757.222-3.978-1.49-5.033m-19.055 0s2.43-2.019 4.479 0h4.67c.06.245-.021.56-.191.815-.544.833-1.482 1.498-2.28 2.06-1.245.841-2.81 1.281-4.185 1.933-1.237.518-2.875 1.458-3.985.225-1.473-1.757-.225-3.978 1.492-5.033"/><path fill="#c0906a" d="M53.876 90.714c.178 1.69-.635 3.161-1.815 3.288-.773.08-1.511-.437-1.984-1.27-.44.36-.872.505-1.184.34-.576-.31-.512-1.569.154-2.817.258-.48.56-.885.87-1.19.03-.052.07-.125.098-.172l3.21.005a3.83 3.83 0 0 1 .65 1.816M36.983 73.228l2.752-2.943c-.814-.083-1.421-.108-1.421-.108l-1.27.041h-.113l-1.261-.063s-.672.031-1.547.134l2.86 2.94z" data-paper-data="{&quot;origPos&quot;:null}"/><path fill="#c0906a" d="M35.618 71.224c-.775 0-1.397-1.648-1.397-2.4h5.494c0 .752-.623 2.4-1.397 2.4h-2.7" data-paper-data="{&quot;origPos&quot;:null}"/><path fill="#eeac6c" d="M34.813 70.717a3.977 3.977 0 0 1-.581-1.59 16.89 16.89 0 0 0 2.675.215c.953 0 1.887-.087 2.797-.237l-.011.012-4.88 1.6"/><path fill="#eeeeed" d="M53.242 55.372c.842.54 1.405 1.465 1.405 2.515 0 1.661-1.42 3.015-3.154 3.015-.05 0-.1 0-.15-.005a16.534 16.534 0 0 1-14.44 8.445 16.518 16.518 0 0 1-14.44-8.457c-.12.012-.231.017-.353.017-1.742 0-3.152-1.354-3.152-3.015 0-1.13.643-2.11 1.598-2.629-.112-.77-.172-1.56-.172-2.358 0-9.08 7.396-16.442 16.52-16.442 9.127 0 16.52 7.362 16.52 16.442 0 .84-.062 1.663-.182 2.472z"/><path fill="#6cc5d8" d="M26.686 55.601c0-2.537 1.105-4.602 2.467-4.602 1.367 0 2.464 2.065 2.464 4.602 0 2.54-1.097 4.6-2.464 4.6-1.361 0-2.467-2.06-2.467-4.6"/><path fill="#2c2c2d" d="M31.224 55.7c0 1.49-.792 2.7-1.77 2.7-.976 0-1.768-1.21-1.768-2.7 0-1.492.792-2.7 1.77-2.7.976 0 1.768 1.208 1.768 2.7m16 0c0 1.49-.791 2.7-1.77 2.7-.976 0-1.768-1.21-1.768-2.7 0-1.492.792-2.7 1.77-2.7.977 0 1.768 1.208 1.768 2.7"/><path fill="#e2a86e" d="M31.17 61.225s6.104 2.888 11.654-.356c0 0-1.23 4.922-5.263 5.005-3.641.11-4.41-1.343-4.845-1.76-.437-.418-1.258-1.596-1.546-2.889"/><path fill="#cb67a4" d="M36.88 68.596c-7.07 0-9.738-6.138-7.73-7.603 1.899-1.019 4.822 1.22 7.712 1.2 2.803-.017 5.518-2.219 7.714-1.2 1.795 1.723-.615 7.603-7.695 7.603"/><path fill="#eeac6c" d="M36.88 67.831c-5.522 0-5.522-5.458-5.522-5.458 5.512 1.743 11.052 0 11.052 0s0 5.458-5.53 5.458"/><path fill="#e63744" d="M40.044 59.25c0 .925-1.37 1.67-3.055 1.67-1.69 0-3.058-.745-3.058-1.67 0-.92 1.368-1.67 3.058-1.67 1.685 0 3.055.75 3.055 1.67"/><path fill="#c12636" d="M36.88 60.49c-.68 0-1.485-.18-2.296-.76l.19-.264c2.179 1.546 4.326.013 4.35 0l.2.264c-.03.014-.604.43-1.472.644a4.172 4.172 0 0 1-.971.115"/><path fill="#f08314" d="M64.332 46.19a2.858 2.858 0 0 1-1.814 2.664c.479.513.774 1.198.774 1.955a2.877 2.877 0 0 1-2.378 2.826c.33.464.53 1.034.53 1.654a2.88 2.88 0 0 1-5.17 1.738 2.912 2.912 0 0 1-3.746-2.268H52.5a2.89 2.89 0 0 1-2.615-1.65 2.875 2.875 0 0 1-3.775-2.72v-.042a2.883 2.883 0 0 1-2.85-1.283 2.887 2.887 0 0 1-2.175.983 2.868 2.868 0 0 1-1.898-.708 2.89 2.89 0 1 1-4.995-1.05 2.87 2.87 0 0 1-1.965.77 2.864 2.864 0 0 1-1.477-.405 2.88 2.88 0 0 1-2.643 1.723c-.146 0-.292-.01-.433-.03v.042a2.87 2.87 0 0 1-2.88 2.865c-.315 0-.617-.05-.897-.145a2.884 2.884 0 0 1-2.608 1.65h-.041a2.889 2.889 0 0 1-3.732 2.268 2.88 2.88 0 0 1-2.288 1.13 2.875 2.875 0 0 1-2.88-2.868c-.002-.592.18-1.17.523-1.654a2.88 2.88 0 0 1-2.375-2.826c0-.726.277-1.425.775-1.955a2.864 2.864 0 1 1 1.069-5.532c.321 0 .638.055.931.155a2.881 2.881 0 0 1 2.803-2.228h.013v-.004a2.874 2.874 0 0 1 2.883-2.868c.263 0 .524.034.777.104a2.884 2.884 0 0 1 3.78-1.907 2.872 2.872 0 0 1 2.875-2.959c.542 0 1.073.152 1.532.44a2.887 2.887 0 0 1 4.013-.59 2.881 2.881 0 0 1 2.647-1.733 2.868 2.868 0 0 1 2.298 1.135 2.886 2.886 0 0 1 2.298-1.135 2.892 2.892 0 0 1 2.653 1.733 2.856 2.856 0 0 1 1.706-.56 2.896 2.896 0 0 1 2.303 1.15c.444-.278.971-.44 1.534-.44a2.879 2.879 0 0 1 2.883 2.87c0 .027 0 .057-.007.09a2.894 2.894 0 0 1 3.783 1.905c.24-.07.502-.103.77-.103a2.873 2.873 0 0 1 2.886 2.868v.004h.01a2.89 2.89 0 0 1 2.811 2.228 2.874 2.874 0 0 1 3.81 2.713"/><path fill="#68b54f" d="M36.863 36.346s1.176-8.545 2.99-10.633c2.455-2.828 16.07 2.392 15.983 6.123-.062 2.762-4.96 9.89-4.96 9.89s-8.231-1.516-14.013-5.38"/><path fill="#e63744" d="M37.043 35.168c3.767-.013 10.944 2.71 14.582 5.427l-.748 1.13s-8.231-1.515-14.014-5.379l.18-1.177"/><path fill="#68b54f" d="M52.748 41.623c.112.162-.09 1.125-.508 1.315-.395.18-1.332.055-1.747-.065-3.654-1.038-10.768-3.798-14.194-5.44-.38-.185-1.185-.69-1.285-1.1-.125-.543.322-1.27.513-1.315.41-.103.948.86 1.295 1.105 3.179 2.254 10.443 5.05 14.212 5.447.422.05 1.479-.307 1.714.053"/><path fill="#f08314" d="M38.29 37.572a2.872 2.872 0 0 1 2.88 2.868 2.872 2.872 0 0 1-2.881 2.867 2.882 2.882 0 0 1-2.492-1.422c-.077.01-.17.01-.252.01a2.87 2.87 0 0 1-2.88-2.869 2.87 2.87 0 0 1 2.88-2.867 2.89 2.89 0 0 1 2.494 1.43c.076-.012.168-.017.25-.017m11.982 4.902a2.877 2.877 0 0 1 2.886 2.867 2.876 2.876 0 0 1-2.886 2.867 2.878 2.878 0 0 1-2.447-1.354c-.278.086-.57.13-.87.13a2.877 2.877 0 0 1-2.88-2.87 2.876 2.876 0 0 1 2.88-2.864 2.882 2.882 0 0 1 2.45 1.358c.274-.085.566-.134.867-.134"/><path fill="#e63744" d="M54.738 33.021h-1.12s-.841-3.86 0-4.69c.194-.2.94-.22 1.12 0 .742.907 0 4.69 0 4.69"/><path fill="#e63744" d="m54.576 33.082-1.033.433s-2.281-3.232-1.84-4.322c.106-.258.783-.565 1.03-.433 1.04.553 1.843 4.322 1.843 4.322"/><path fill="#e63744" d="M53.804 32.813s1.069-3.7 2.146-4.178c.253-.11.905.246.995.508.363 1.117-2.147 4.178-2.147 4.178l-.994-.508m.743 1.162s-.452 3.828-1.436 4.474c-.237.146-.943-.092-1.07-.342-.54-1.042 1.434-4.472 1.434-4.472l1.07.34"/><path fill="#e63744" d="M54.848 33.64s1.526 3.541.998 4.587c-.125.25-.857.39-1.095.24-.988-.634-.997-4.586-.997-4.586l1.094-.242"/><path fill="#e63744" d="m54.676 34.06-.162-1.105s3.723-1.367 4.67-.669c.22.17.348.9.157 1.105-.796.86-4.665.67-4.665.67"/><path fill="#e63744" d="m54.593 33.91-.58-.955s2.893-2.707 4.037-2.425c.27.063.675.688.57.952-.4 1.103-4.027 2.428-4.027 2.428"/><path fill="#e63744" d="M54.747 33.111s3.835.523 4.458 1.52c.15.233-.111.928-.361 1.052-1.056.515-4.46-1.517-4.46-1.517l.362-1.055"/><path fill="#e63744" d="M54.715 33.42s3.195 2.18 3.305 3.342c.03.281-.511.785-.794.785-1.181-.009-3.313-3.347-3.313-3.347l.803-.78m-.967.536s-3.867.19-4.667-.669c-.187-.205-.068-.94.157-1.105.944-.705 4.67.67 4.67.67l-.16 1.104"/><path fill="#e63744" d="M53.834 33.801s-3.635-1.325-4.037-2.423c-.101-.265.305-.889.578-.955 1.142-.279 4.035 2.428 4.035 2.428l-.576.95"/><path fill="#e63744" d="m53.672 33.005.362 1.05s-3.397 2.038-4.46 1.524c-.252-.124-.51-.819-.36-1.055.627-.994 4.458-1.519 4.458-1.519"/><path fill="#e63744" d="m53.708 33.316.797.78s-2.127 3.338-3.308 3.347c-.283 0-.83-.505-.8-.785.117-1.17 3.31-3.342 3.31-3.342"/><path fill="#f7b90b" d="M55.705 33.536c0 1.043-.698 1.893-1.561 1.893-.864 0-1.566-.85-1.566-1.893 0-1.044.702-1.894 1.566-1.894.863 0 1.56.85 1.56 1.894"/><path fill="#bb6416" d="M35.546 36.254a2.786 2.786 0 0 0-2.745 2.293h-.196a2.984 2.984 0 0 1 2.94-2.483 3.002 3.002 0 0 1 2.544 1.423c.069-.005.14-.012.2-.012a2.975 2.975 0 0 1 2.98 2.965c0 .224-.03.44-.075.65h-.192c.05-.206.077-.426.077-.65a2.786 2.786 0 0 0-2.79-2.773 2.25 2.25 0 0 0-.247.015l-.054.005-.035-.055a2.8 2.8 0 0 0-2.407-1.378m11.408 5.091c-.834 0-1.625.373-2.154 1.017h-.235a2.96 2.96 0 0 1 2.388-1.207 2.945 2.945 0 0 1 2.49 1.343c.27-.08.549-.12.827-.12 1.643 0 2.982 1.33 2.982 2.962a2.915 2.915 0 0 1-.604 1.785h-.24a2.76 2.76 0 0 0-.493-4.022 2.786 2.786 0 0 0-2.481-.405l-.07.02-.042-.06a2.764 2.764 0 0 0-2.368-1.313"/><path fill="#f7b90b" d="M36.963 71.924s-5.313 6.66-7.616 5.925c-2.084-.665-2.205-7.39-.451-8.698 1.7-1.275 8.067 2.773 8.067 2.773"/><path fill="#f7b90b" d="M36.95 71.924s6.36-4.048 8.066-2.773c1.744 1.308 1.637 8.033-.45 8.698-2.303.735-7.616-5.925-7.616-5.925"/><path fill="#f7b90b" d="M37.869 72.283c0 .69-.395 1.254-.886 1.254-.49 0-.885-.564-.885-1.254 0-.694.394-1.259.885-1.259.49 0 .886.565.886 1.258" data-paper-data="{&quot;origPos&quot;:null}"/><path fill="#f08314" d="M29.134 73.664c.906 0 1.64.73 1.64 1.63 0 .897-.734 1.625-1.64 1.625-.32 0-.616-.09-.873-.248-.273-.612-.445-1.39-.527-2.218a1.617 1.617 0 0 1 1.4-.789m-.238-4.513c.38-.285.998-.303 1.72-.162.102.212.157.45.157.692a1.634 1.634 0 0 1-2.802 1.143c.204-.755.51-1.36.925-1.673m4.31 2.438c.904 0 1.638.73 1.638 1.63 0 .9-.734 1.63-1.637 1.63s-1.636-.73-1.636-1.63c0-.9.733-1.63 1.636-1.63m8.364-.02c0 .9-.732 1.63-1.637 1.63a1.635 1.635 0 0 1-1.564-2.113 33.275 33.275 0 0 1 2.067-1.07c.658.214 1.134.83 1.134 1.552m1.346 2.754c.906 0 1.638.728 1.638 1.63a1.636 1.636 0 0 1-1.541 1.628c-.523-.26-1.082-.645-1.645-1.095a1.634 1.634 0 0 1 1.547-2.163m3.176-2.796a1.634 1.634 0 0 1-1.613 1.343c-.903 0-1.637-.73-1.637-1.63 0-.9.734-1.627 1.637-1.627.48 0 .936.207 1.25.57.168.434.29.885.363 1.344"/><path fill="#684516" d="M15.51 69.895 9.882 26.53l.543-.07 5.633 43.365z"/><path fill="#684516" d="m16.594 69.962-.55-.055 4.294-43.51.55.056z"/><path fill="#684516" d="m15.773 70.02-2.315-43.658.548-.025 2.32 43.658z"/><path fill="#f08314" d="M19.243 21.65c.547 3.648-1.303 11.521-4.968 12.064-3.662.544-7.75-6.44-8.3-10.086-.546-3.645 1.98-7.044 5.643-7.589 3.665-.543 7.077 1.97 7.625 5.61"/><path fill="#68b54f" d="M13.06 15.657c1.199 3.484.797 11.563-2.71 12.751-3.51 1.19-8.788-4.948-9.99-8.436-1.195-3.492.678-7.284 4.189-8.479 3.504-1.188 7.315.675 8.512 4.164"/><path fill="#db3f3f" d="M22.617 5.64c.359 3.452-1.72 10.773-5.192 11.13-3.47.36-7.013-6.385-7.375-9.838C9.695 3.48 12.214.387 15.683.034c3.477-.36 6.58 2.154 6.934 5.604"/><path fill="#0771b7" d="M28.714 11.298c-.932 3.35-5.538 9.423-8.901 8.5-3.364-.919-4.206-8.489-3.28-11.835.928-3.344 4.402-5.31 7.769-4.389 3.363.92 5.343 4.377 4.412 7.724"/><path fill="#db3f3e" d="M28.784 20.007c-.8 3.602-5.362 10.292-8.983 9.492-3.615-.795-4.921-8.777-4.117-12.375.802-3.602 4.385-5.875 8.003-5.075 3.615.793 5.896 4.36 5.097 7.958"/><path fill="#f7b90b" d="M20.786 12.087c0 3.57-2.902 10.837-6.488 10.837-3.583 0-6.494-7.267-6.494-10.837 0-3.566 2.91-6.458 6.494-6.458 3.586 0 6.487 2.891 6.487 6.458"/><path fill="none" d="M18.586 67.16c-.242 1.605-1.043 2.825-1.791 2.715-.75-.113-1.163-1.508-.92-3.123.24-1.612 1.044-2.827 1.797-2.717.742.11 1.158 1.51.915 3.124" data-paper-data="{&quot;origPos&quot;:null}"/></g></svg>