<svg xmlns="http://www.w3.org/2000/svg" width="65.87" height="116.208"><g fill-rule="evenodd" stroke-miterlimit="10" data-paper-data="{&quot;isPaintingLayer&quot;:true}" style="mix-blend-mode:normal"><path fill="#eeeeed" d="m18.502 59.129-1.713 41.34H.539c6.53-11.989 17.962-41.34 17.962-41.34zm-1.126 38.36.089-1.042 22.742.29.03 1.04z"/><path fill="#a5d8e5" d="M17.826 101.813H16.79l2.201-54.893h1.034z"/><path fill="#dbdbdb" d="M47.863 106.711s-31.855 2.815-45.401 0C.826 106.371 0 100.467 0 100.467s29.2-1.033 40.006 0c2.494.24 4.608 4.095 7.857 6.244"/><path fill="#eeeeed" d="M20.031 46.922c17.767 5.064 20.178 49.817 20.178 49.817H18.043z"/><path fill="#ffd466" d="M41.45 110.455c.062.246-.021.517-.192.784-.554.857-1.518 1.487-2.34 2.062-1.274.876-2.881 1.346-4.284 2.018-1.272.539-2.943 1.547-4.083.27-1.506-1.814-.226-4.037 1.53-5.134h-.009l-.447-11.343h9.826v11.343m10.648 0c1.758 1.089 3.034 3.32 1.529 5.134-1.139 1.277-2.81.269-4.084-.269-1.405-.673-3.01-1.143-4.282-2.019-.822-.575-1.786-1.205-2.343-2.062-.171-.267-.251-.528-.191-.784h-.002V99.112h9.825l-.446 11.343h-.006" data-paper-data="{&quot;origPos&quot;:null}"/><path fill="#333433" d="M41.451 110.436a.68.68 0 0 1 .02.195 1.17 1.17 0 0 1-.213.602c-.554.859-1.518 1.497-2.34 2.079-.132.091-.268.137-.41.267h-.004c-1.196.7-2.611 1.143-3.87 1.743-1.272.538-2.942 1.537-4.082.257-1.408-1.694-.383-3.727 1.187-4.904l.02-.015c.1-.078.205-.15.313-.217 2.957.66 9.379-.007 9.379-.007m12.206 1.462c.764 1.116.978 2.486-.017 3.683-1.139 1.277-2.825.28-4.096-.259-1.257-.6-2.673-1.043-3.87-1.743h-.003c-.032-.066-.057-.045-.09-.064-.109-.068-.212-.143-.318-.215-.823-.578-1.784-1.211-2.34-2.073-.173-.267-.249-.54-.185-.79 0 0 7.416 1.316 9.368.005.01.005.024.02.04.03.023.015.05.027.072.045.35.233.671.507.957.816.037.04.076.08.111.12a.77.77 0 0 1 .047.056c.046.052.09.106.132.161.01.011.023.021.029.029.043.058.095.118.133.178.007.007-.032.015.03.022"/><path fill="#ffd466" d="M64.887 78.543c.244 2.306-.856 4.318-2.456 4.488-1.042.112-2.046-.592-2.68-1.733-.59.491-1.175.686-1.6.462-.783-.416-.69-2.139.21-3.846.343-.648.753-1.206 1.175-1.616.033-.072.07-.14.109-.21 0 0-1.553-9.972-3.213-12.332-.832-1.178-1.88-2.11-2.07-2.636v-.006c1.298 9.879-.153 23.617-.153 23.617H29.968s-1.696-15.133-.076-25.045v.01s-8.609 3.474-10.968 2.617c-2.914-1.064-6.259-10.604-6.259-10.604h.003c-1.255-.447-2.469-1.65-3.172-3.312-1.092-2.59-.523-5.31 1.274-6.076 1.172-.497 2.575-.04 3.715 1.06.513-.778 1.125-1.213 1.69-1.103 1.055.207 1.551 2.237 1.106 4.531-.169.88-.451 1.669-.793 2.296a4.75 4.75 0 0 1-.204.816l5.366 6.324 11.308-4.07c1.296-.905 4.143-1.315 5.863-1.485-.289-.643-.466-1.339-.466-1.85h7.402c0 .511-.177 1.221-.472 1.867 1.753.165 4.571.575 5.821 1.485.659.35 6.316 3.401 7.956 5.506 3.573 4.588 4.943 18.398 4.943 18.398l-.006-.064c.462.668.785 1.538.888 2.511" data-paper-data="{&quot;origPos&quot;:null}"/><path fill="#333433" d="M59.062 57.697c2.883 3.704 4.335 13.414 4.785 17.024-1.308.18-2.881.494-4.278.894-.332-2.004-1.696-9.807-3.135-11.858-.057-.073-.107-.145-.16-.217-.008-.013-.017-.021-.025-.036-.02-.022-.036-.05-.056-.07-.008-.015-.02-.027-.03-.039-.017-.023-.033-.046-.052-.069l-.014-.016c-.021-.031-.046-.056-.066-.085l-.015-.019c-.7-.884-1.436-1.586-1.633-2.03-.005-.02-.013-.034-.02-.05v-.002c.038.302.077.606.11.915.006.068.016.132.023.2.002.011.002.021.002.034.008.058.014.12.02.18v.001a.08.08 0 0 1 .004.03c.002.004.002.01.004.02l.013.154a.06.06 0 0 1 .004.024l.002.003c.005.071.011.142.019.213l.006.082c.004.052.012.108.016.16l.006.072c.007.05.011.104.015.154.002.029.004.058.008.084l.012.143.009.104.01.155v.013a4.245 4.245 0 0 1 .021.231c0 .01 0 .021.004.03v.053c.006.051.01.103.012.155a.64.64 0 0 0 .009.075l.01.166.002.024.002.036c0 .006 0 .012.002.018l.012.164.002.062.002.016.009.164a.904.904 0 0 1 .004.077v.004c.004.052.01.107.012.163l.004.069v.004l.008.17.002.01v.018c0 .015.005.029.005.046l.008.17.004.074c.004.058.008.116.01.172.002.027.002.052.002.075l.009.165c0 .025.004.054.006.079.002.058.004.116.004.174l.002.031v.037c.006.058.006.118.01.178 0 .019 0 .035.002.054l.006.195c0 .014 0 .031.003.047.002.069.006.133.006.199 0 .013 0 .029.004.043.002.067.002.135.006.203v.033l.004.216c0 .004-.002.008 0 .014 0 .077.085 3.689.043 4.112v.255c0 .045 0 .086-.004.13v.122c-.002.04-.002.08-.002.12l-.002.12c0 .033 0 .07-.002.106v.132c-.002.038-.002.07-.002.108l-.002.058v.076l-.002.102c-.004.047-.004.095-.004.142v.067c-.004.062-.004.12-.006.18 0 .025 0 .05-.002.075 0 .053-.001.107-.003.16l-.002.07v.07c-.002.041-.004.078-.004.118v.036c-.004.036-.004.07-.006.1 0 .034 0 .064-.002.094v.02a143.667 143.667 0 0 1-.201 4.685c-.197 3.389-.44 5.68-.44 5.68s-1.393 10.117-1.657 14.403l-.234 6.107-9.576.614V99.12c.066-1.663-.513-7.343-.513-7.343h-.282s-.54 6.063-.479 7.343v6.721l-9.598-.701-.247-6.02c-.227-5.053-1.663-14.403-1.663-14.403s-.105-.9-.235-2.415c-.14-1.689-.354-4.112-.416-6.859v-.002c0-.07-.01-.139-.01-.209 0-.015-.007-.029-.009-.039a83.65 83.65 0 0 1-.039-1.1l-.014-.526-.004-.053c0-.06-.002-.125-.005-.185l-.002-.051-.006-.17c0-.023-.004-.048-.006-.075 0-.058-.012-.118-.015-.178 0-.016-.02-.029-.02-.043 0-.006.021-.011.021-.015-.002-.06.016-.126.016-.186v-.006a5.765 5.765 0 0 1-.006-.278c0-.066-.004-.132-.004-.2v-.048c0-.069-.004-.133-.004-.199v-.01c-.039-2.768.014-5.687.241-8.428v-.016c.008-.073.012-.141.018-.209 0-.007.002-.009.002-.013v-.016c.009-.071.015-.137.019-.207 0-.009 0-.021.004-.034.004-.064.01-.132.017-.202v-.007c0-.004 0-.008.004-.01v-.014a6.9 6.9 0 0 1 .02-.205l.003-.027.02-.207c.002-.009.005-.016.005-.026.025-.267.055-.534.09-.8v-.013c.047-.387.097-.768.152-1.143.002-.012.004-.016.004-.026.029-.189.056-.348.087-.543-.091 0-8.62 3.457-10.967 2.6-2.373-.863-5.036-7.374-5.936-9.75 1.18-.882 2.586-1.609 3.647-2.244l5.016 5.916 6.513-2.347.006-.002 4.789-1.723.126-.08c.013-.011.029-.019.043-.029.029-.017.056-.036.089-.052l.06-.033.08-.044c.022-.01.047-.025.074-.037.022-.013.047-.025.072-.037.027-.01.055-.025.085-.04a.99.99 0 0 0 .068-.031l.096-.041c.024-.008.042-.019.064-.027.037-.015.07-.029.105-.041.023-.009.042-.017.062-.023a1.273 1.273 0 0 1 .171-.064 2.64 2.64 0 0 1 .126-.043l.047-.02c.048-.011.091-.028.138-.041.128-.066.267-.108.41-.124.056-.015.112-.031.178-.046l.012-.006.177-.043c.007 0 .011-.002.017-.004.062-.015.123-.032.185-.046.002-.002.006-.002.006-.002l.194-.044h.004a17.193 17.193 0 0 1 1.041-.202 8.66 8.66 0 0 1 .307-.052l.016-.002.009.006a29.705 29.705 0 0 1 1.801-.228c-.289-.644-.464-1.333-.464-1.845h7.4c0 .512-.178 1.212-.473 1.86.542.05 1.082.115 1.62.194l.004-.002c.623.088 1.242.206 1.855.352.027.011.052.015.082.025.346.084.688.185 1.025.302.237.083.47.18.696.29.01.002.021.01.033.015.035.018.076.039.111.06.021.01.042.02.062.033.027.013.053.028.078.043.03.017.054.033.08.05l.05.031c.043.027.083.055.126.085.008.006.018.01.03.018v.003a.2.2 0 0 1 .04.016c0 .002.002.002.006.004.013.006.027.017.043.023.002.002.007.004.009.008a.31.31 0 0 1 .045.023l.012.007a.21.21 0 0 0 .044.02c.004.002.008.008.012.01.021.009.039.021.062.033.006.002.01.007.014.009.02.008.033.018.05.027l.026.012c.017.011.035.019.05.031.011.002.014.006.021.008.026.015.049.03.073.04.01.006.02.01.03.014.018.013.037.023.052.033.01.004.02.01.03.016.026.012.05.025.074.04.005.002.008.006.015.008.03.017.057.034.087.05l.03.014.068.04c.008.004.021.01.031.019l.095.053c.008.003.012.007.02.009a.96.96 0 0 0 .082.047c.011.007.028.013.04.023a.713.713 0 0 1 .076.044l.029.016.107.06c.013.006.021.015.033.019.029.014.054.031.08.047.014.009.031.015.044.025.029.017.057.031.087.05.01.004.018.01.03.017l.115.066c.015.006.025.016.04.022.031.017.057.036.086.05.014.01.029.018.044.025l.103.06a.14.14 0 0 0 .022.015c.041.022.083.049.126.072a.728.728 0 0 0 .042.025c.028.019.061.037.09.054.014.01.029.016.043.024.042.028.086.055.13.08.006.003.012.008.021.01.039.022.074.05.115.07l.043.027c.033.021.066.039.1.058.011.01.026.017.04.027.045.028.09.055.136.081l.029.02c.035.021.072.042.107.066a.614.614 0 0 1 .049.029c.036.021.073.042.11.067.008.006.021.012.031.02l.14.085c.012.01.027.02.042.025.034.023.063.044.1.065.017.012.033.02.05.03.039.025.077.05.115.077.01.002.02.007.029.014l.138.088.047.03c.031.023.069.042.099.065.017.012.033.021.05.031l.14.093.012.006c.058.039.117.077.177.114.035.026.07.05.107.074l.04.023c.047.033.092.066.144.095a.071.071 0 0 0 .025.019c.039.029.075.052.115.08.017.009.029.021.043.03.039.023.076.049.112.076.01.009.023.015.033.023l.138.093c.012.011.024.017.037.027l.105.074.043.03.122.087.018.014c.046.029.089.064.136.097l.035.025c.037.027.068.052.103.075l.042.031.131.097c.833.625 1.552 1.249 1.988 1.809"/><path fill="#616160" d="M32.682 95.529c-.923-13.88-3.688-14.794-1.716-35.04-.694 21.16 3.62 25.908 1.716 35.04m18.838 0c.92-13.88 3.686-14.794 1.714-35.04.695 21.16-3.62 25.908-1.714 35.04"/><path fill="#ffd466" d="M63.98 30.186c1.14.735 1.89 1.994 1.89 3.418 0 2.267-1.902 4.105-4.249 4.105-.068 0-.134 0-.202-.004-3.802 6.846-11.086 11.48-19.446 11.48-8.368 0-15.655-4.64-19.458-11.5a4.55 4.55 0 0 1-.47.024c-2.345 0-4.248-1.838-4.248-4.105 0-1.53.866-2.86 2.15-3.57a22.43 22.43 0 0 1-.227-3.208c0-12.348 9.961-22.36 22.253-22.36 12.291 0 22.254 10.012 22.254 22.36 0 1.143-.084 2.265-.247 3.36" data-paper-data="{&quot;origPos&quot;:null}"/><path fill="#f7b90b" d="M28.709 28.938s2.769-3.689 4.1-3.499c.42.06.702 1.064.385 1.66 0 0-2.67.712-4.486 1.839m25.758 0s-2.769-3.689-4.1-3.499c-.42.06-.703 1.064-.385 1.66 0 0 2.67.712 4.487 1.839"/><path fill="#80591f" d="M65.111 24.154c.037 2.627-.88 8.306-2.66 11.693 0 0-4.377-12.442-7.983-14.415-4.406-2.408-16.021 1.064-19.963-2.06-.654-.517-.579-1.691-.579-1.691s-.753 1.497-1.117 1.913c-1.91 2.182-6.858 5.341-9.205 7.036-1.89 1.362-1.976 1.348-1.558 9.216 0 0-3.472-7.16-3.28-11.94.055-1.377.717-4.432 1.8-7.535 3.918-7.896 12.035-13.32 21.41-13.32 10.773 0 19.879 7.156 22.869 16.996.153 1.364.241 2.735.266 4.107" data-paper-data="{&quot;origPos&quot;:null}"/><path fill="#dbdbdb" d="M19.321 21.609s8.011-7.204 22.444-7.204c11.879 0 22.891 7.204 22.891 7.204 0 11.514-6 8.854-11.383 6.85-11.508-4.291-11.508-4.291-23.361-.165-5.141 1.79-10.591 4.177-10.591-6.685"/><path fill="#6cc5d8" d="m22.781 29.721-2.102-9.159a28.786 28.786 0 0 1 2.625-1.623l2.147 10.735c-.959.187-1.863.24-2.67.045zm35.373.329 2.168-10.83c.901.44 1.79.905 2.666 1.393l-2.188 9.53c-.808.159-1.704.096-2.646-.094z"/><path fill="#eeeeed" d="M19.228 21.631C16.91 19.302 24.647 0 42.15 0c16.967 0 24.973 19.114 22.469 21.631-23.567-6.138-45.391 0-45.391 0M51.5 52.405l.01.004c.266 3.778 1.83 7.364 2.948 9.492.003.046.011.093.015.136.006.071.016.135.023.203.002.011.002.021.002.034.008.06.015.12.02.18.004.01.004.018.004.028l.004.023.013.153a.066.066 0 0 1 .004.025l.002.002.002.054c.004.053.01.106.017.158l.006.082c.004.054.012.108.016.162l.006.072c.007.05.011.103.015.153l.02.226.007.106.012.153v.012a.605.605 0 0 0 .009.064c.004.055.008.11.01.164l.002.004c0 .011 0 .021.004.032v.051c.006.052.01.105.012.157.002.023.004.05.009.075l.01.165.002.025.002.034c0 .006 0 .014.002.02l.01.164.002.06c0 .004.003.01.003.016l.01.164c.002.026.004.052.004.076v.005c.004.053.01.109.012.163l.004.07v.005l.008.17.002.01v.016c0 .015.005.031.005.048l.008.17.004.074c.004.057.008.115.01.172.002.027.002.05.002.075.004.053.006.109.009.163 0 .027.004.056.004.079l.006.174.002.033v.035c.006.06.006.12.01.178 0 .019 0 .037.002.056l.006.194c0 .013 0 .029.003.048.002.066.006.13.006.199 0 .012 0 .027.004.041.002.066.002.136.006.206v.03c.002.075.002.145.005.218 0 .004-.003.008 0 .015 0 .076.084 3.688.04 4.11v.256c0 .045 0 .086-.004.13v.242l-.002.118c0 .035 0 .072-.002.105v.135c-.002.035-.002.07-.002.105l-.002.06v.077l-.002.101c-.004.048-.004.096-.004.143v.065c-.004.064-.004.122-.006.18 0 .024 0 .049-.002.074 0 .056 0 .11-.003.162l-.002.07v.07c-.002.04-.004.079-.004.116v.039c0 .036-.004.067-.006.1 0 .034 0 .062-.002.094v.02a149.125 149.125 0 0 1-.201 4.683c-.04.679-.081 1.316-.12 1.896-5.146 3.821-18.76 3.48-24.909.081a91.434 91.434 0 0 1-.313-5.569v-.003c0-.07-.008-.138-.008-.21 0-.013-.007-.028-.009-.038a85.261 85.261 0 0 1-.039-1.099l-.014-.526-.004-.056a3.83 3.83 0 0 0-.005-.183l-.002-.05-.008-.17c0-.025-.002-.048-.004-.075 0-.058-.012-.12-.015-.178 0-.016-.02-.031-.02-.045 0-.007.021-.009.021-.013-.002-.062.016-.126.016-.186v-.006c-.002-.019-.002-.036-.002-.052a5.583 5.583 0 0 1-.004-.226c0-.066-.004-.133-.004-.203v-.046c0-.067-.004-.134-.004-.2v-.01c-.039-2.768.014-5.687.241-8.426v-.019c.008-.07.012-.138.018-.207l.002-.012v-.016c.008-.07.013-.14.017-.21.002-.008.002-.018.006-.031.005-.068.01-.135.017-.203v-.008c0-.004 0-.008.004-.01v-.015c.006-.067.012-.135.02-.202l.003-.03.02-.205c.002-.008.005-.016.005-.024.005-.071.012-.143.02-.214l.037-.316c1.356-1.89 2.975-5.046 3.208-9.496l.136-.05c.04-.028.082-.055.124-.08l.045-.03c.029-.018.056-.037.089-.051.018-.011.039-.024.06-.034.026-.014.053-.031.08-.045.022-.008.047-.023.072-.035.024-.013.049-.025.074-.04a.96.96 0 0 0 .085-.037.99.99 0 0 0 .068-.031l.096-.041c.021-.009.042-.019.064-.027.037-.014.07-.031.105-.044a.72.72 0 0 1 .062-.02c.037-.017.076-.031.114-.046.018-.006.037-.012.057-.021.041-.012.081-.027.126-.041l.047-.019c.046-.014.091-.031.138-.041.062-.024.126-.044.19-.06a.156.156 0 0 1 .037-.013l.157-.043.026-.008c.056-.016.112-.033.178-.046l.012-.006c.06-.014.118-.03.177-.046.007 0 .011-.002.017-.004l.185-.043c.002-.002.006-.002.006-.002.065-.014.13-.03.194-.046h.004a18.035 18.035 0 0 1 1.038-.201c.949 1.673 3.578 6.008 5.35 6.066 1.84.06 4.826-4.161 6.003-5.939.242.048.484.1.725.155.027.01.052.017.082.027.346.084.688.185 1.025.302.237.083.47.179.696.288.01.004.021.012.033.016l.111.058c.02.01.04.023.06.036a.863.863 0 0 1 .08.041c.03.017.054.035.08.051a.387.387 0 0 0 .05.03c.043.029.083.058.126.085.008.006.018.01.03.018v.002a.22.22 0 0 1 .04.019c0 .002.002.002.006.004.013.006.027.017.043.022.002.003.007.005.009.01.015.005.028.012.045.02l.01.006a.31.31 0 0 0 .046.023c.004.002.008.008.012.01.021.008.039.021.062.033l.014.006c.02.009.033.019.05.027.008.006.017.01.026.015"/><path fill="#333433" d="M39.454 77.627a73.37 73.37 0 0 1-3.932-.302c.031-.28.048-.42.076-.698a56.212 56.212 0 0 0 1.94-1.71c.282-.269.482-.503.603-.697a1.21 1.21 0 0 0 .198-.549.796.796 0 0 0-.132-.542c-.105-.14-.266-.216-.49-.234-.235-.019-.425.05-.567.207-.144.16-.23.366-.255.625a31.85 31.85 0 0 1-1.072-.11l-.006-.02c.03-.453.25-.872.606-1.154.36-.296.812-.418 1.36-.376.548.043.964.209 1.252.509.291.296.43.68.406 1.155-.014.32-.115.61-.305.867-.193.257-.519.609-.993 1.046-.404.397-.61.594-1.024.987l.004.019c.79.068 1.579.116 2.368.151-.017.331-.023.497-.037.826m3.461-3.478c-.004-.345-.076-.61-.212-.8a.642.642 0 0 0-.557-.28.64.64 0 0 0-.556.28c-.134.188-.204.455-.208.8a319.49 319.49 0 0 1-.023 1.69c-.004.352.062.623.2.814.136.19.338.287.596.287.23.01.45-.098.583-.287.138-.19.202-.46.198-.814l-.021-1.69m1.158 1.566c.017.627-.142 1.126-.495 1.497-.35.364-.828.552-1.423.552-.604 0-1.086-.19-1.437-.554-.352-.369-.515-.868-.496-1.5.022-.59.03-.887.051-1.477.02-.628.204-1.114.548-1.468.338-.354.78-.526 1.325-.526.546 0 .983.172 1.327.526.342.356.53.842.55 1.47.02.59.027.886.05 1.48m4.845 1.599a78.446 78.446 0 0 1-3.93.308l-.033-.704c.567-.65 1.117-1.31 1.655-1.985.237-.31.398-.574.488-.787a1.18 1.18 0 0 0 .116-.571c-.021-.22-.093-.391-.219-.514-.12-.122-.292-.173-.517-.159-.237.023-.412.118-.532.296-.117.18-.169.396-.154.656-.427.027-.643.04-1.074.058l-.006-.02c-.042-.453.11-.902.418-1.236.311-.346.74-.536 1.286-.578.548-.043.985.058 1.317.307.334.25.53.608.579 1.08.033.321-.025.621-.173.905-.149.281-.42.679-.818 1.184-.338.457-.513.683-.862 1.134a.051.051 0 0 0 .009.02 65.254 65.254 0 0 0 2.36-.214l.09.82"/><path fill="#664514" d="M35.131 32.999c0 1.657-.895 3-2 3s-2-1.343-2-3 .895-3 2-3 2 1.343 2 3m18 0c0 1.657-.895 3-2 3s-2-1.343-2-3 .895-3 2-3 2 1.343 2 3" data-paper-data="{&quot;origPos&quot;:null}"/><path fill="#eeac6c" d="M42.151 36.068c-1.125.153-3.02 1.834-3.02 1.834s.207-1.009.503-1.299c.8-1.156 2.487-1.604 2.487-1.604s2.173.703 2.65 1.588c.443.824.34 1.238.34 1.238s-2.121-1.871-2.96-1.756zM35.331 39.695s6.897 3.208 13.172-.397c0 0-1.39 5.47-5.95 5.561-4.115.122-4.984-1.492-5.477-1.956-.492-.463-1.42-1.772-1.745-3.208"/></g></svg>