<svg xmlns="http://www.w3.org/2000/svg" width="62.979" height="116.488"><g fill-rule="evenodd" stroke-miterlimit="10" data-paper-data="{&quot;isPaintingLayer&quot;:true}" style="mix-blend-mode:normal"><path fill="#362512" d="M0 47.942c8.21 12.82 19.163 2.122 15.435-9.207-2.704-8.229 11.976 2.674 11.976 2.674s-8.597 23.848-16.053 24.204C3.9 65.966-.026 54.296 0 47.943" data-paper-data="{&quot;origPos&quot;:null}"/><path fill="#9b713b" d="M6.312 75.112c-.002.008-.002.014-.002.02 0-.006 0-.012.002-.02m54.786-34.801c1.848.789 2.434 3.592 1.31 6.264-.72 1.712-1.972 2.955-3.262 3.416 0 0-3.443 9.835-6.443 10.932-2.412.881-11.196-2.661-11.286-2.697 1.665 10.218-.078 25.808-.078 25.808l-1.71 14.865-.454 11.645h-.01c1.807 1.127 3.121 3.432 1.575 5.3-1.172 1.319-2.893.288-4.202-.27-1.446-.691-3.1-1.18-4.41-2.08-.845-.596-1.837-1.247-2.41-2.134-.176-.274-.259-.551-.196-.817h.015V98.906l-.528-7.629h-.287l-.5 7.629v11.637h-.015c.062.266-.022.54-.198.815-.57.889-1.565 1.543-2.408 2.138-1.31.9-2.962 1.385-4.412 2.077-1.307.557-3.03 1.592-4.2.274-1.545-1.871-.235-4.176 1.575-5.304h-.004l-.46-11.644-1.712-14.861s-1.492-14.155-.153-24.338c-.203.542-1.275 1.5-2.133 2.713-1.705 2.434-3.304 12.718-3.304 12.718.04.069.076.14.11.211a6.815 6.815 0 0 1 1.21 1.67c.926 1.757 1.022 3.532.212 3.962-.43.232-1.032.03-1.64-.476-.657 1.177-1.683 1.899-2.76 1.785-1.646-.176-2.779-2.246-2.527-4.626.104-1.001.436-1.896.911-2.586l-.002.04c.064-.645 1.494-14.325 5.088-18.945 1.686-2.168 7.51-5.312 8.186-5.674 1.29-.939 4.186-1.359 5.99-1.526-.303-.668-.488-1.39-.488-1.922h7.617c0 .532-.178 1.241-.477 1.905 1.772.174 4.704.587 6.034 1.522l3.077 1.11c6.033 1.834 8.565 3.087 8.565 3.087l5.518-6.522v.002a4.526 4.526 0 0 1-.206-.842c-.354-.645-.645-1.462-.82-2.368-.46-2.368.05-4.457 1.14-4.672.582-.113 1.208.335 1.738 1.138 1.171-1.136 2.617-1.605 3.824-1.092" data-paper-data="{&quot;origPos&quot;:null}"/><path fill="#9b713b" d="M8.998 78.681c-.979-1.819-1.096-3.66-.262-4.116.835-.456 2.306.647 3.283 2.464.984 1.815 1.101 3.66.266 4.114-.834.457-2.306-.645-3.287-2.461m45.304-34.09c-.334-2.266.234-4.232 1.278-4.386 1.037-.157 2.154 1.556 2.491 3.818.334 2.268-.236 4.23-1.276 4.385-1.039.156-2.158-1.55-2.493-3.817" data-paper-data="{&quot;origPos&quot;:null}"/><path fill="#0771b7" d="M41.335 84.079c-.675.287-9.13 3.952-12.272 7.262a.094.094 0 0 1-.047.03l-.006-.098h-.288l-.008.098c-.017-.01-.032-.017-.045-.03-3.687-3.713-11.914-7.127-12.276-7.277l-.004-.026s-1.493-14.155-.153-24.338c-.203.54-1.278 1.5-2.134 2.713-1.5 2.14-2.918 10.354-3.238 12.298-1.87-.643-3.698.203-4.528.175.206-1.907 1.67-14.355 5.062-18.72 1.687-2.168 7.512-5.312 8.19-5.674.814-.594 2.275-.979 3.693-1.228a54.124 54.124 0 0 1 1.692-.238c.2-.022.402-.042.603-.06.353 2.068 6.29 2.13 6.653-.017 1.771.174 4.703.587 6.034 1.522 0 0 2.31.833 3.076 1.107 6.033 1.837 8.563 3.09 8.563 3.09l5.342-6.315c.004.005.006.005.006.007 1.058 1.159 2.388 1.879 3.658 2.282-.826 2.209-3.673 9.356-6.204 10.281-2.412.881-11.196-2.661-11.286-2.697 1.663 10.221-.079 25.808-.079 25.808z"/><path fill="#6cc5d8" d="M7.048 69.783c.136-.815.283-1.629.443-2.44l6.252-4.299c-.332.682-.657 1.618-.96 2.672l-5.735 4.067m-.61 4.211c.073-.605.18-1.427.322-2.387l5.467-3.768c-.206.855-.396 1.73-.566 2.555l-5.224 3.6m47.818-24.467 2.121 6.872a25.768 25.768 0 0 1-1.203 2.066l-2.178-7.446zm-.069 10.249c-.492.562-.992.967-1.482 1.147l-.023.006-2.153-7.001 1.367-1.613 2.291 7.461"/><path fill="#eeac6c" d="M25.877 49.458c-.435-.662-.738-1.58-.808-2.244 2.522.416 5.097.407 7.616-.026l-.015.013-6.793 2.257"/><path fill="#9b713b" d="M51.693 27.973c1.177.76 1.952 2.06 1.952 3.53 0 2.347-1.963 4.25-4.386 4.25-.07 0-.136-.002-.206-.006-3.926 7.081-11.444 11.871-20.075 11.871-8.635 0-16.163-4.798-20.085-11.893a4.538 4.538 0 0 1-.483.029c-2.423 0-4.388-1.904-4.388-4.25 0-1.582.894-2.96 2.22-3.69a23.282 23.282 0 0 1-.236-3.317c0-12.77 10.288-23.122 22.972-23.122 12.687 0 22.975 10.352 22.975 23.122 0 1.181-.09 2.342-.26 3.475" data-paper-data="{&quot;origPos&quot;:null}"/><path fill="#362512" d="M24.271 22.972s-.503 1.803-2.082 1.446c-.772-.174-.908-1.201-3.386-.74-.779.18-2.417 1.156-2.732 1.808-.316.652-.088-2.392 2.457-3.522 1.835-.675 2.457-.642 3.977-.642s1.987.907 1.766 1.65m9.741 0s.503 1.803 2.082 1.446c.772-.174.908-1.201 3.386-.74.78.18 2.417 1.156 2.732 1.808.316.652.087-2.392-2.457-3.522-1.835-.675-2.457-.642-3.977-.642s-1.987.907-1.766 1.65M21.96 30.322c0 1.657-.895 3-2 3s-2-1.343-2-3 .895-3 2-3 2 1.343 2 3m18 0c0 1.657-.895 3-2 3s-2-1.343-2-3 .895-3 2-3 2 1.343 2 3" data-paper-data="{&quot;origPos&quot;:null}"/><path fill="#eeac6c" d="M28.98 33.391c-1.125.153-3.02 1.834-3.02 1.834s.207-1.009.503-1.299c.8-1.156 2.487-1.604 2.487-1.604s2.173.703 2.65 1.588c.443.824.34 1.238.34 1.238s-2.12-1.871-2.96-1.756zM22.16 37.018s6.897 3.208 13.172-.397c0 0-1.39 5.47-5.95 5.561-4.115.122-4.984-1.492-5.477-1.956-.492-.463-1.42-1.772-1.745-3.208"/><path fill="#362512" d="M5.195 21.712c.015-1.203.105-2.664.273-4.226C8.538 7.362 17.89 0 28.95 0c9.632 0 17.97 5.582 21.99 13.706 1.112 3.19 1.793 6.336 1.85 7.75.197 4.92-1.219 6.551-1.219 6.551s-4.118-5.736-8.989-9.182c-3.83-2.702-7.238 2.526-11.786-1.956a297.804 297.804 0 0 1-1.927-1.944s-1.247 1.412-1.918 1.944c-4.045 3.214-6.302-.435-10.826 2.042-3.703 2.03-9.77 9.26-9.77 9.26s-1.197-3.757-1.16-6.46" data-paper-data="{&quot;origPos&quot;:null}"/></g></svg>