<svg xmlns="http://www.w3.org/2000/svg" width="120" height="120"><g fill="none" fill-rule="evenodd"><path fill="#743121" d="M9.917 102.966h63.055l14.722-11.882-81.233 2.998z"/><path fill="#743121" d="M47.078 95.309c-.56 0-1.02-.458-1.02-1.018v-60.12c0-.56.46-1.019 1.02-1.019s1.017.459 1.017 1.018v60.121a1.02 1.02 0 0 1-1.017 1.018"/><path fill="#743121" d="M5.466 85.44c0-.56.458-1.018 1.018-1.018h40.024c.56 0 1.018.459 1.018 1.018 0 .56-.458 1.019-1.018 1.019H6.484c-.56 0-1.018-.459-1.018-1.019"/><path fill="#FF5337" d="M9.917 102.966h63.055l6.142-4.957H7.99l1.928 4.957"/><path fill="#743121" d="m85.005 93.255 29.88-2.64-27.19.47zM49.65 86.973h26.28l-26.28-53.82zm29.464-4.664 34.475 6.94S74.565 49.2 54.2 35.32c0 0 23.206 28.33 24.914 46.988m-34.934.342V18.312S19.87 48.007 5.975 82.65H44.18z"/></g></svg>