<svg xmlns="http://www.w3.org/2000/svg" width="120" height="120"><g fill="none" fill-rule="evenodd"><path stroke="#AE8C71" stroke-linecap="round" stroke-linejoin="round" stroke-width="3.556" d="M60 39s1.33-16.255 15-17"/><path fill="#FCC47B" d="M83.163 65.531C81.45 59.245 80.09 37 61.012 37c-19.08 0-20.486 22.245-22.198 28.531C37.102 71.818 29 80.523 29 91.887S35.329 118 61.012 118C86.694 118 93 103.251 93 91.887c0-11.364-8.126-20.07-9.837-26.356"/><path stroke="#FFA242" stroke-width="3.556" d="M83.163 65.531C81.45 59.245 80.09 37 61.012 37c-19.08 0-20.486 22.245-22.198 28.531C37.102 71.818 29 80.523 29 91.887S35.329 118 61.012 118C86.694 118 93 103.251 93 91.887c0-11.364-8.126-20.07-9.837-26.356z"/><path fill="#00BB46" d="M33.222 4S29 33.442 57.392 31.945C66.604 15.228 33.223 4 33.223 4"/><path stroke="#008E0F" stroke-linecap="round" stroke-linejoin="round" stroke-width="3.556" d="M33.222 4S29 33.442 57.392 31.945C66.604 15.228 33.223 4 33.223 4z"/><path fill="#FCC47B" d="M50.685 50.617c-2.381 10.136-2.789 20.137-8.595 29.401-3.018 4.815-4.56 10.818-3.484 16.594 1.042 5.602 6.428 10.377 12.08 11.538"/><path stroke="#FFA242" stroke-linecap="round" stroke-linejoin="round" stroke-width="3.556" d="M50.685 50.617c-2.381 10.136-2.789 20.137-8.595 29.401-3.018 4.815-4.56 10.818-3.484 16.594 1.042 5.602 6.428 10.377 12.08 11.538"/></g></svg>