<svg version="1.1" xmlns="http://www.w3.org/2000/svg" xmlns:xlink="http://www.w3.org/1999/xlink" width="71.37097" height="111.69636" viewBox="0,0,71.37097,111.69636"><g transform="translate(-203.75703,-124.001)"><g data-paper-data="{&quot;isPaintingLayer&quot;:true}" fill-rule="evenodd" stroke="none" stroke-width="1" stroke-linecap="butt" stroke-linejoin="miter" stroke-miterlimit="10" stroke-dasharray="" stroke-dashoffset="0" style="mix-blend-mode: normal"><path d="M256.246,203.31c-0.06,-0.027 -0.6,-0.268 -0.718,-0.552c-0.03226,-0.07188 -0.03226,-0.15412 0,-0.226c0.046,-0.118 0.24,-0.112 0.543,-0.097c0.156,0.013 0.418,0.023 0.495,-0.015c-0.036,-0.06 -0.172,-0.192 -0.262,-0.285c-0.261,-0.252 -0.428,-0.416 -0.364,-0.56c0.053,-0.13 0.266,-0.121 0.583,-0.104c0.146,0 0.377,0.015 0.457,-0.01c-0.038,-0.074 -0.192,-0.216 -0.279,-0.3c-0.254,-0.247 -0.408,-0.402 -0.351,-0.539c0.059,-0.137 0.279,-0.12 0.592,-0.118c0.139,0.006 0.362,0.014 0.44,-0.01c-0.08492,-0.10846 -0.17857,-0.2098 -0.28,-0.303c-0.266,-0.243 -0.41,-0.393 -0.35,-0.53c0.061,-0.13 0.253,-0.13 0.594,-0.115c0.14,0.007 0.363,0.011 0.438,-0.015c-0.032,-0.069 -0.184,-0.213 -0.286,-0.302c-0.262,-0.247 -0.406,-0.39 -0.345,-0.528c0.053,-0.13 0.252,-0.13 0.607,-0.114c0.129,0 0.347,0.006 0.425,-0.02c-0.036,-0.065 -0.196,-0.208 -0.283,-0.299c-0.262,-0.247 -0.404,-0.389 -0.353,-0.53c0.051,-0.127 0.254,-0.127 0.6,-0.117c0.142,0.006 0.36,0.013 0.432,-0.017c-0.034,-0.069 -0.184,-0.213 -0.29,-0.3c-0.262,-0.249 -0.402,-0.393 -0.35,-0.522c0.048,-0.139 0.255,-0.139 0.606,-0.13c0.131,0.004 0.351,0.014 0.43,-0.013c-0.04,-0.07 -0.193,-0.214 -0.293,-0.307c-0.264,-0.237 -0.406,-0.382 -0.357,-0.518c0.053,-0.131 0.264,-0.135 0.61,-0.131c0.13,0.01 0.354,0.01 0.432,-0.017c-0.08941,-0.10939 -0.18921,-0.20986 -0.298,-0.3c-0.262,-0.24 -0.406,-0.384 -0.351,-0.517c0.051,-0.129 0.252,-0.138 0.605,-0.129c0.133,0 0.355,0.004 0.43,-0.023c-0.04,-0.068 -0.2,-0.214 -0.297,-0.303c-0.262,-0.241 -0.41,-0.376 -0.357,-0.513c0.052,-0.13 0.256,-0.137 0.6,-0.13c0.135,0 0.355,0 0.43,-0.025c-0.09022,-0.10829 -0.18886,-0.20927 -0.295,-0.302c-0.264,-0.238 -0.406,-0.382 -0.351,-0.511c0.05,-0.135 0.254,-0.14 0.601,-0.135c0.137,0 0.351,0 0.429,-0.026c-0.04,-0.065 -0.2,-0.205 -0.3,-0.296c-0.264,-0.243 -0.41,-0.378 -0.357,-0.513c0.055,-0.131 0.249,-0.139 0.604,-0.139c0.134,0 0.349,0 0.423,-0.024c-0.034,-0.065 -0.197,-0.21 -0.294,-0.3c-0.264,-0.234 -0.406,-0.38 -0.357,-0.513c0.048,-0.13 0.245,-0.133 0.602,-0.133c0.138,0 0.345,0 0.425,-0.03c-0.038,-0.07 -0.196,-0.213 -0.302,-0.296c-0.26,-0.237 -0.416,-0.378 -0.363,-0.516c0.056,-0.128 0.255,-0.137 0.613,-0.137c0.13,0 0.348,-0.004 0.42,-0.032c-0.036,-0.065 -0.201,-0.205 -0.304,-0.297c-0.26,-0.231 -0.412,-0.372 -0.366,-0.506c0.055,-0.13 0.264,-0.145 0.615,-0.145c0.127,0 0.35,0 0.423,-0.02c-0.042,-0.075 -0.205,-0.219 -0.304,-0.3c-0.265,-0.234 -0.413,-0.373 -0.368,-0.507c0.053,-0.139 0.254,-0.143 0.607,-0.15c0.131,0 0.351,0 0.425,-0.027c-0.04,-0.072 -0.203,-0.212 -0.305,-0.298c-0.266,-0.23 -0.416,-0.368 -0.364,-0.509c0.047,-0.127 0.244,-0.138 0.595,-0.146c0.139,0 0.351,0 0.43,-0.032c-0.037,-0.068 -0.21,-0.209 -0.304,-0.294c-0.27,-0.234 -0.422,-0.367 -0.37,-0.494c0.05,-0.142 0.244,-0.152 0.603,-0.157c0.133,0 0.35,-0.008 0.425,-0.035c-0.044,-0.072 -0.203,-0.207 -0.311,-0.292c-0.262,-0.235 -0.42,-0.37 -0.368,-0.497c0.05,-0.137 0.246,-0.152 0.597,-0.16c0.145,-0.004 0.351,-0.011 0.427,-0.038c-0.038,-0.062 -0.207,-0.207 -0.309,-0.29c-0.27,-0.23 -0.414,-0.367 -0.372,-0.501c0.044,-0.13 0.254,-0.143 0.605,-0.158c0.13,0 0.351,-0.004 0.422,-0.036c-0.04,-0.066 -0.203,-0.201 -0.306,-0.292c-0.27,-0.226 -0.429,-0.357 -0.377,-0.496c0.037,-0.135 0.248,-0.148 0.595,-0.161c0.133,0 0.355,-0.011 0.431,-0.038c-0.09518,-0.1061 -0.19995,-0.20318 -0.313,-0.29c-0.271,-0.22 -0.427,-0.357 -0.383,-0.5c0.047,-0.133 0.256,-0.144 0.607,-0.16c0.13,-0.005 0.345,-0.009 0.417,-0.035c-0.043,-0.072 -0.21,-0.21 -0.313,-0.29c-0.275,-0.225 -0.421,-0.36 -0.383,-0.496c0.053,-0.137 0.25,-0.148 0.601,-0.165c0.137,-0.006 0.35,-0.017 0.43,-0.044c-0.046,-0.07 -0.215,-0.2 -0.32,-0.285c-0.273,-0.226 -0.425,-0.353 -0.383,-0.493c0.044,-0.139 0.247,-0.15 0.598,-0.171c0.137,-0.002 0.347,-0.017 0.425,-0.042c-0.04,-0.072 -0.21,-0.201 -0.315,-0.283c-0.279,-0.224 -0.435,-0.353 -0.389,-0.49c0.046,-0.136 0.245,-0.155 0.6,-0.174c0.132,-0.008 0.347,-0.021 0.417,-0.051c-0.036,-0.067 -0.205,-0.205 -0.313,-0.283c-0.28,-0.219 -0.436,-0.35 -0.387,-0.482c0.038,-0.14 0.24,-0.16 0.59,-0.177c0.137,-0.011 0.351,-0.027 0.42,-0.055c-0.033,-0.068 -0.206,-0.197 -0.32,-0.283c-0.275,-0.214 -0.432,-0.345 -0.39,-0.482c0.047,-0.137 0.244,-0.154 0.595,-0.182c0.1428,-0.00191 0.28497,-0.01935 0.424,-0.052c-0.05,-0.07 -0.215,-0.199 -0.321,-0.279c-0.283,-0.21 -0.438,-0.341 -0.397,-0.482c0.04,-0.133 0.241,-0.16 0.594,-0.186c0.13,-0.005 0.347,-0.023 0.423,-0.055c-0.049,-0.066 -0.222,-0.195 -0.326,-0.273c-0.283,-0.215 -0.435,-0.338 -0.397,-0.482c0.038,-0.137 0.234,-0.156 0.592,-0.19c0.14093,-0.00655 0.28091,-0.02664 0.418,-0.06c-0.044,-0.07 -0.216,-0.19 -0.325,-0.272c-0.28,-0.213 -0.44,-0.336 -0.398,-0.475c0.03,-0.139 0.233,-0.161 0.582,-0.197c0.135,-0.016 0.351,-0.03 0.425,-0.063c-0.047,-0.066 -0.225,-0.19 -0.335,-0.27c-0.285,-0.205 -0.439,-0.328 -0.403,-0.472c0.042,-0.135 0.238,-0.164 0.587,-0.202c0.136,-0.013 0.35,-0.032 0.42,-0.064c-0.045,-0.063 -0.217,-0.19 -0.33,-0.264c-0.286,-0.21 -0.445,-0.336 -0.417,-0.47c0.042,-0.134 0.24,-0.166 0.592,-0.204c0.137,-0.017 0.344,-0.045 0.422,-0.074c-0.055,-0.068 -0.226,-0.186 -0.336,-0.268c-0.289,-0.199 -0.452,-0.318 -0.42,-0.459c0.036,-0.138 0.236,-0.17 0.589,-0.213c0.127,-0.013 0.349,-0.041 0.411,-0.08c-0.045,-0.056 -0.218,-0.178 -0.334,-0.26c-0.288,-0.195 -0.455,-0.318 -0.417,-0.453c0.027,-0.135 0.235,-0.173 0.584,-0.222c0.13,-0.02 0.338,-0.044 0.418,-0.078c-0.055,-0.064 -0.237,-0.184 -0.347,-0.256c-0.29,-0.196 -0.46,-0.313 -0.425,-0.448c0.028,-0.144 0.222,-0.179 0.576,-0.237c0.137,-0.02 0.348,-0.044 0.41,-0.082c-0.042,-0.065 -0.222,-0.182 -0.34,-0.254c-0.292,-0.188 -0.459,-0.304 -0.436,-0.443c0.036,-0.14 0.237,-0.18 0.585,-0.24c0.129,-0.018 0.335,-0.048 0.411,-0.088c-0.049,-0.057 -0.235,-0.177 -0.349,-0.247c-0.296,-0.18 -0.463,-0.296 -0.44,-0.437c0.03,-0.14 0.224,-0.186 0.57,-0.243c0.132,-0.028 0.339,-0.068 0.419,-0.106c-0.052,-0.059 -0.241,-0.17 -0.36,-0.241c-0.3,-0.175 -0.47,-0.283 -0.445,-0.427c0.027,-0.137 0.222,-0.188 0.571,-0.254c0.13,-0.023 0.338,-0.07 0.404,-0.11c-0.10803,-0.08907 -0.22538,-0.16619 -0.35,-0.23c-0.314,-0.18 -0.48,-0.28 -0.454,-0.418c0.011,-0.144 0.21,-0.195 0.554,-0.273c0.13,-0.027 0.34,-0.07 0.41,-0.118c-0.11499,-0.08706 -0.23985,-0.16023 -0.372,-0.218c-0.3,-0.173 -0.475,-0.272 -0.456,-0.41c0.016,-0.145 0.211,-0.203 0.558,-0.285c0.13,-0.032 0.327,-0.085 0.4,-0.13c-0.058,-0.052 -0.254,-0.15 -0.373,-0.216c-0.311,-0.155 -0.49,-0.254 -0.476,-0.389c0.017,-0.148 0.208,-0.21 0.56,-0.305c0.119,-0.034 0.322,-0.091 0.386,-0.135c-0.05,-0.059 -0.252,-0.152 -0.377,-0.21c-0.31,-0.14 -0.494,-0.232 -0.484,-0.377c0.004,-0.14 0.2,-0.205 0.535,-0.315c0.133,-0.038 0.326,-0.106 0.39,-0.15c-0.06,-0.057 -0.257,-0.142 -0.38,-0.193c-0.325,-0.13 -0.509,-0.217 -0.5,-0.352c0,-0.15 0.19,-0.22 0.518,-0.35c0.128,-0.044 0.323,-0.118 0.388,-0.17c-0.065,-0.045 -0.27,-0.12 -0.397,-0.17c-0.33,-0.113 -0.518,-0.183 -0.526,-0.321c0,-0.15 0.184,-0.232 0.507,-0.378c0.114,-0.051 0.31,-0.135 0.376,-0.196c-0.07,-0.041 -0.281,-0.1 -0.414,-0.14c-0.328,-0.09 -0.516,-0.148 -0.53,-0.294c-0.016,-0.14 0.156,-0.24 0.471,-0.407c0.116,-0.064 0.298,-0.16 0.359,-0.22c-0.078,-0.04 -0.287,-0.078 -0.421,-0.106c-0.348,-0.063 -0.534,-0.1 -0.566,-0.24c-0.023,-0.142 0.14,-0.257 0.429,-0.459c0.129,-0.085 0.324,-0.222 0.342,-0.273v0.02l0.178,-0.054c0.038,0.154 -0.15,0.28 -0.42,0.457c-0.104,0.078 -0.294,0.207 -0.335,0.274c0.066,0.036 0.271,0.077 0.404,0.096c0.322,0.063 0.556,0.101 0.582,0.257c0.014,0.15 -0.18,0.258 -0.466,0.412c-0.116,0.066 -0.32,0.165 -0.37,0.226c0.066,0.045 0.265,0.102 0.4,0.132c0.307,0.093 0.54,0.158 0.552,0.316c0.01,0.148 -0.207,0.24 -0.487,0.368c-0.135,0.053 -0.336,0.144 -0.395,0.195c0.066,0.05 0.26,0.124 0.395,0.17c0.303,0.102 0.521,0.19 0.525,0.335c0,0.15 -0.218,0.238 -0.514,0.348c-0.133,0.045 -0.34,0.12 -0.391,0.172c0.051,0.054 0.245,0.131 0.38,0.185c0.292,0.129 0.514,0.21 0.5,0.366c0,0.152 -0.22,0.22 -0.533,0.319c-0.121,0.036 -0.334,0.112 -0.393,0.156c0.06,0.05 0.253,0.144 0.37,0.199c0.323,0.154 0.507,0.243 0.492,0.385c-0.015,0.15 -0.23,0.213 -0.539,0.3c-0.129,0.038 -0.341,0.099 -0.406,0.139c0.051,0.059 0.245,0.157 0.364,0.218c0.323,0.16 0.496,0.258 0.477,0.4c-0.012,0.149 -0.232,0.204 -0.543,0.278c-0.13934,0.03204 -0.27581,0.07552 -0.408,0.13c0.051,0.06 0.239,0.162 0.355,0.227c0.313,0.174 0.49,0.27 0.47,0.412c-0.015,0.148 -0.25,0.2 -0.563,0.275c-0.127,0.024 -0.334,0.072 -0.404,0.114c0.049,0.055 0.239,0.165 0.354,0.233c0.304,0.173 0.479,0.28 0.456,0.422c-0.027,0.15 -0.249,0.193 -0.558,0.254c-0.137,0.03 -0.355,0.068 -0.417,0.108c0.053,0.065 0.235,0.177 0.352,0.24c0.295,0.185 0.471,0.292 0.448,0.434c-0.028,0.144 -0.231,0.182 -0.573,0.25c-0.133,0.016 -0.343,0.054 -0.415,0.094c0.05,0.066 0.235,0.178 0.347,0.248c0.294,0.19 0.469,0.296 0.438,0.443c-0.028,0.14 -0.22,0.178 -0.569,0.233c-0.13,0.025 -0.355,0.055 -0.417,0.095c0.053,0.057 0.23,0.177 0.34,0.249c0.295,0.197 0.466,0.31 0.436,0.446c-0.029,0.142 -0.228,0.173 -0.581,0.23c-0.133,0.019 -0.342,0.05 -0.414,0.089c0.05,0.062 0.226,0.18 0.334,0.252c0.302,0.201 0.465,0.317 0.433,0.456c-0.03,0.144 -0.232,0.176 -0.58,0.222c-0.137,0.017 -0.346,0.04 -0.422,0.083c0.053,0.065 0.228,0.18 0.336,0.26c0.3,0.198 0.457,0.318 0.429,0.458c-0.038,0.135 -0.234,0.167 -0.583,0.209c-0.134,0.017 -0.353,0.045 -0.423,0.078c0.046,0.064 0.23,0.188 0.332,0.265c0.29,0.204 0.456,0.327 0.416,0.462c-0.034,0.138 -0.237,0.169 -0.583,0.205c-0.13,0.017 -0.355,0.041 -0.42,0.074c0.043,0.064 0.225,0.197 0.325,0.271c0.289,0.201 0.456,0.323 0.418,0.467c-0.04,0.135 -0.234,0.165 -0.583,0.203c-0.138,0.012 -0.353,0.03 -0.429,0.065c0.054,0.063 0.219,0.193 0.329,0.271c0.288,0.207 0.45,0.33 0.411,0.465c-0.038,0.147 -0.24,0.164 -0.592,0.196c-0.136,0.017 -0.349,0.034 -0.419,0.074c0.044,0.065 0.216,0.188 0.325,0.27c0.28,0.21 0.44,0.336 0.4,0.476c-0.04,0.135 -0.235,0.16 -0.586,0.186c-0.139,0.011 -0.35,0.034 -0.43,0.065c0.05,0.068 0.227,0.195 0.323,0.273c0.293,0.213 0.446,0.347 0.406,0.48c-0.038,0.137 -0.242,0.158 -0.597,0.182c-0.131,0.016 -0.348,0.027 -0.412,0.06c0.04,0.07 0.205,0.2 0.311,0.278c0.285,0.213 0.438,0.346 0.399,0.479c-0.036,0.134 -0.243,0.163 -0.592,0.182c-0.135,0.015 -0.351,0.027 -0.427,0.059c0.05,0.062 0.216,0.193 0.32,0.283c0.285,0.21 0.442,0.341 0.395,0.48c-0.046,0.142 -0.24,0.15 -0.596,0.178c-0.134,0.008 -0.353,0.017 -0.423,0.05c0.042,0.066 0.207,0.203 0.317,0.28c0.279,0.223 0.436,0.354 0.389,0.487c-0.044,0.136 -0.245,0.157 -0.594,0.178c-0.135,0.004 -0.351,0.013 -0.421,0.048c0.04,0.066 0.209,0.203 0.31,0.284c0.284,0.224 0.428,0.351 0.388,0.49c-0.042,0.139 -0.245,0.148 -0.596,0.17c-0.14397,0.00203 -0.28749,0.01642 -0.429,0.043c0.046,0.074 0.219,0.21 0.317,0.296c0.283,0.214 0.431,0.347 0.384,0.486c-0.04,0.135 -0.245,0.148 -0.596,0.167c-0.137,0.007 -0.35,0.01 -0.427,0.042c0.045,0.068 0.207,0.205 0.311,0.288c0.273,0.228 0.429,0.355 0.381,0.496c-0.043,0.132 -0.246,0.148 -0.6,0.159c-0.13,0.006 -0.344,0.015 -0.417,0.046c0.042,0.066 0.21,0.203 0.312,0.292c0.27,0.222 0.413,0.359 0.375,0.493c-0.05,0.135 -0.246,0.152 -0.601,0.156c-0.139,0.008 -0.353,0.012 -0.42,0.044c0.037,0.062 0.205,0.205 0.31,0.294c0.271,0.228 0.413,0.359 0.375,0.494c-0.05,0.134 -0.25,0.15 -0.609,0.157c-0.13,0.004 -0.35,0.008 -0.417,0.036c0.04,0.07 0.207,0.207 0.304,0.298c0.269,0.222 0.425,0.357 0.371,0.496c-0.043,0.134 -0.246,0.148 -0.593,0.155c-0.147,0 -0.353,0.006 -0.43,0.036c0.039,0.067 0.204,0.211 0.31,0.293c0.264,0.23 0.416,0.364 0.364,0.503c-0.045,0.133 -0.244,0.14 -0.597,0.144c-0.135,0.011 -0.351,0.011 -0.43,0.042c0.04,0.066 0.21,0.207 0.314,0.292c0.258,0.232 0.414,0.367 0.358,0.5c-0.049,0.138 -0.242,0.15 -0.597,0.157c-0.139,0 -0.355,0 -0.425,0.032c0.043,0.065 0.2,0.207 0.301,0.298c0.27,0.226 0.412,0.361 0.367,0.498c-0.042,0.14 -0.253,0.144 -0.604,0.148c-0.133,0 -0.347,0 -0.427,0.028c0.04,0.07 0.213,0.21 0.31,0.3c0.26,0.23 0.413,0.368 0.366,0.503c-0.053,0.137 -0.256,0.143 -0.607,0.143c-0.14,0 -0.351,0.007 -0.431,0.034c0.038,0.062 0.207,0.207 0.313,0.3c0.262,0.233 0.406,0.366 0.355,0.507c-0.046,0.134 -0.254,0.142 -0.602,0.142c-0.138,0 -0.354,0 -0.428,0.025c0.041,0.07 0.199,0.214 0.297,0.301c0.272,0.24 0.416,0.374 0.365,0.507c-0.053,0.131 -0.249,0.137 -0.607,0.137c-0.133,0 -0.348,0 -0.422,0.025c0.034,0.072 0.198,0.216 0.302,0.307c0.258,0.232 0.4,0.372 0.35,0.509c-0.046,0.135 -0.244,0.138 -0.61,0.135c-0.129,0 -0.345,0 -0.417,0.026c0.04,0.069 0.195,0.213 0.301,0.302c0.256,0.235 0.4,0.376 0.359,0.51c-0.059,0.135 -0.254,0.143 -0.62,0.135c-0.128,0 -0.34,0 -0.414,0.025c0.036,0.067 0.193,0.213 0.296,0.304c0.262,0.233 0.404,0.38 0.355,0.507c-0.055,0.138 -0.255,0.138 -0.615,0.138c-0.13,0 -0.344,-0.007 -0.42,0.017c0.04,0.073 0.204,0.217 0.297,0.304c0.258,0.241 0.404,0.384 0.352,0.516c-0.05,0.137 -0.25,0.137 -0.609,0.128c-0.136,0 -0.345,-0.008 -0.423,0.02c0.038,0.07 0.194,0.22 0.298,0.312c0.262,0.23 0.404,0.374 0.353,0.509c-0.053,0.132 -0.258,0.14 -0.618,0.129c-0.133,0 -0.34,-0.012 -0.422,0.017c0.038,0.07 0.196,0.22 0.3,0.31c0.258,0.242 0.402,0.379 0.347,0.514c-0.055,0.13 -0.258,0.136 -0.613,0.13c-0.134,-0.007 -0.347,-0.015 -0.425,0.016c0.04,0.068 0.196,0.216 0.302,0.307c0.258,0.241 0.395,0.384 0.344,0.511c-0.06,0.14 -0.264,0.14 -0.615,0.127c-0.13,0 -0.346,-0.007 -0.42,0.013c0.037,0.073 0.196,0.228 0.295,0.317c0.254,0.238 0.396,0.384 0.341,0.513c-0.051,0.127 -0.258,0.135 -0.62,0.12c-0.131,-0.004 -0.34,-0.01 -0.414,0.015c0.036,0.07 0.195,0.222 0.3,0.323c0.227,0.212 0.393,0.366 0.332,0.5c-0.051,0.137 -0.256,0.137 -0.623,0.126c-0.129,0 -0.335,-0.01 -0.411,0.011c0.034,0.07 0.2,0.226 0.298,0.327c0.233,0.212 0.394,0.37 0.335,0.507c-0.05,0.13 -0.273,0.127 -0.62,0.115c-0.129,0 -0.34,-0.007 -0.42,0.012c0.044,0.07 0.204,0.228 0.302,0.326c0.226,0.219 0.387,0.374 0.332,0.505c-0.064,0.135 -0.278,0.135 -0.64,0.126c-0.134,-0.008 -0.33,-0.016 -0.397,0.003c0.03,0.078 0.208,0.25 0.309,0.346c0.226,0.214 0.372,0.355 0.32,0.484c-0.068,0.156 -0.354,0.148 -0.686,0.131c-0.122,-0.004 -0.312,-0.019 -0.37,0c-0.00695,0.02102 -0.0044,0.04402 0.007,0.063c0.069,0.172 0.412,0.372 0.617,0.455z" fill="#21221f"/><path d="M252.581,230.197c1.684,1.043 2.906,3.175 1.464,4.91c-1.086,1.22 -2.7,0.252 -3.916,-0.26c-1.347,-0.646 -2.886,-1.092 -4.104,-1.929c-0.786,-0.55 -1.715,-1.148 -2.253,-1.97c-0.157,-0.255 -0.23,-0.501 -0.18,-0.75h8.988M242.372,230.198c0.053,0.233 -0.029,0.495 -0.186,0.75c-0.534,0.822 -1.461,1.42 -2.245,1.97c-1.218,0.837 -2.759,1.283 -4.11,1.929c-1.216,0.512 -2.823,1.48 -3.912,0.26c-1.444,-1.735 -0.222,-3.859 1.466,-4.909h-0.007h8.994" fill="#ad6921"/><path d="M254.592,205.671l-1.842,24.55h-9.3l-0.351,-17.746h-0.271l-0.352,17.746h-9.3l-1.836,-24.549z" fill="#0b4768"/><path d="M226.73821,179.782c1.67,-2.144 7.71,-5.295 7.71,-5.295c0,0 -2.79,5.097 -3.3,7.364c-0.066,0.284 -0.229,1.055 -0.371,1.458c-0.184,0.501 -0.702,1.136 -1.488,2.266c-1.598,2.252 -3.093,11.783 -3.093,11.783c0.03822,0.06236 0.07359,0.12643 0.106,0.192c0.45002,0.45977 0.82978,0.98341 1.127,1.554c0.862,1.629 0.95,3.272 0.2,3.672c-0.406,0.216 -0.964,0.026 -1.533,-0.439c-0.609,1.088 -1.573,1.756 -2.579,1.656c-1.533,-0.166 -2.6,-2.085 -2.368,-4.29c0.108,-0.93 0.406,-1.76 0.846,-2.4c0,0.035 -0.027,0.065 -0.027,0.065v-0.01c0,0 1.336,-13.193 4.77,-17.576M273.10521,165.08c1.724,0.735 2.271,3.332 1.218,5.81c-0.666,1.585 -1.835,2.737 -3.032,3.168c0,0 -3.22,9.116 -6.006,10.131c-2.271,0.824 -10.246,-2.424 -10.246,-2.424c0,0 -0.639,-2.481 -0.975,-3.263c-0.454,-1.071 -2.319,-4.015 -2.319,-4.015l10.92,3.905l5.144,-6.048c-0.082,-0.241 -0.148,-0.505 -0.196,-0.779c-0.32,-0.598 -0.592,-1.357 -0.762,-2.192c-0.427,-2.196 0.053,-4.136 1.064,-4.332c0.547,-0.105 1.133,0.309 1.619,1.055c1.098,-1.055 2.443,-1.484 3.571,-1.016" data-paper-data="{&quot;origPos&quot;:null}" fill="#775a4d"/><path d="M266.551,169.081c-0.313,-2.096 0.222,-3.916 1.182,-4.056c0.969,-0.149 2.009,1.431 2.319,3.531c0.311,2.095 -0.215,3.906 -1.182,4.05c-0.969,0.15 -2.009,-1.437 -2.319,-3.525" fill="#fddfbb"/><path d="M260.995,177.594c0.776,2.57 -1.294,6.158 -1.294,6.158l-4.656,-1.851c2.43,9.48 2.72,23.77 2.72,23.77h-29.78c0,0 0.241,-11.856 2.123,-21.14l-0.421,0.59c0,0 -4.345,0 -5.107,-3.049c0,0 2.198,-4.738 9.75,-7.65c1.947,-1.196 6.837,-1.374 6.837,-1.374l1.641,0.058h0.135l1.644,-0.087c0,0 4.315,0.207 6.45,1.235c7.705,2.287 9.958,3.34 9.958,3.34" fill="#f7b90b"/><path d="M251.478,174.398c0,0 0.286,7.185 3.546,7.453c2.427,9.472 2.714,23.755 2.714,23.755h0.007l0.06,1.893c0,0 -8.471,1.088 -11,0c-1.355,-0.575 -4.07,-2.18 -4.07,-2.18c0,0 -2.974,1.614 -4.399,2.18c-2.402,0.981 -10.39,0 -10.39,0l0.04,-1.906c0,0 0.252,-12.552 2.286,-21.91c-0.207,0.419 3.992,-1.711 4.017,-9.258v-0.002c1.066,-0.678 3.057,-1.048 4.618,-1.238c0,0 0.287,14.401 4.019,14.395c3.732,-0.013 3.947,-14.395 3.947,-14.395c1.58,0.19 3.578,0.545 4.618,1.238c-0.005,-0.017 -0.013,-0.025 -0.013,-0.025" fill="#7b7b3e"/><path d="M236.351,188.113c0,0.62 -0.5,1.13 -1.127,1.13c-0.62418,-0.00055 -1.13035,-0.50582 -1.132,-1.13v-5.453c0.01817,-0.61072 0.51851,-1.09639 1.1295,-1.09639c0.61099,0 1.11133,0.48566 1.1295,1.09639v5.452z" fill="#565541"/><path d="M235.115,185.691c-0.345,0 -0.719,-0.07 -1.058,-0.284l0.064,-0.105c0.943,0.596 2.194,0.008 2.207,0l0.053,0.112c-0.042,0.01 -0.6,0.277 -1.266,0.277M235.406,184.622c-0.00079,0.05083 -0.02181,0.09926 -0.05841,0.13455c-0.0366,0.03529 -0.08576,0.05453 -0.13659,0.05345c-0.10383,0 -0.188,-0.08417 -0.188,-0.188c-0.00001,-0.10416 0.08385,-0.1889 0.188,-0.19c0.106,0 0.195,0.083 0.195,0.19" fill="#393828"/><path d="M238.987,188.113c0,0.62 -0.506,1.13 -1.135,1.13c-0.63,0 -1.136,-0.51 -1.136,-1.13v-5.453c0.00106,-0.30004 0.1214,-0.58735 0.3345,-0.79857c0.2131,-0.21122 0.50146,-0.32902 0.8015,-0.32743c0.29987,-0.00133 0.58797,0.11659 0.80085,0.32778c0.21288,0.2112 0.33309,0.49835 0.33415,0.79822v5.452z" fill="#565541"/><path d="M237.748,185.691c-0.344,0 -0.72,-0.07 -1.057,-0.284l0.066,-0.105c0.936,0.596 2.188,0.008 2.203,0l0.055,0.112c-0.042,0.01 -0.6,0.277 -1.267,0.277M238.036,184.622c-0.00106,0.10261 -0.0834,0.18585 -0.186,0.188c-0.051,0.00134 -0.10042,-0.01778 -0.13724,-0.05309c-0.03682,-0.03532 -0.05798,-0.08389 -0.05876,-0.13491c0,-0.107 0.09,-0.19 0.196,-0.19c0.10337,0.00218 0.18602,0.08661 0.186,0.19" fill="#393828"/><path d="M249.145,188.113c0,0.62 -0.507,1.13 -1.136,1.13c-0.30056,0.00133 -0.58927,-0.11714 -0.80226,-0.3292c-0.213,-0.21206 -0.33274,-0.50024 -0.33274,-0.8008v-5.453c0,-0.621 0.503,-1.126 1.135,-1.126c0.63,0 1.136,0.505 1.136,1.126v5.452z" fill="#565541"/><path d="M247.896,185.691c-0.36837,0.00756 -0.73113,-0.09103 -1.045,-0.284l0.06,-0.105c0.934,0.596 2.192,0.008 2.203,0l0.053,0.112c-0.036,0.01 -0.592,0.277 -1.27,0.277M248.184,184.622c0,0.106 -0.077,0.188 -0.18,0.188c-0.05091,0.00134 -0.10022,-0.01781 -0.13688,-0.05315c-0.03666,-0.03534 -0.0576,-0.08393 -0.05812,-0.13485c0,-0.107 0.087,-0.19 0.195,-0.19c0.103,0 0.18,0.083 0.18,0.19" fill="#393828"/><path d="M251.773,188.113c-0.02552,0.60724 -0.52523,1.08639 -1.133,1.08639c-0.60777,0 -1.10748,-0.47915 -1.133,-1.08639v-5.453c0,-0.621 0.505,-1.126 1.127,-1.126c0.30056,-0.0024 0.58969,0.11505 0.80344,0.32636c0.21375,0.21131 0.33451,0.49907 0.33556,0.79964v5.452z" fill="#565541"/><path d="M250.53,185.691c-0.341,0 -0.713,-0.07 -1.057,-0.284l0.067,-0.105c0.943,0.596 2.191,0.008 2.205,0l0.05,0.112c-0.031,0.01 -0.593,0.277 -1.265,0.277M250.818,184.622c0.00164,0.04965 -0.01708,0.09781 -0.05183,0.13331c-0.03475,0.0355 -0.0825,0.05526 -0.13217,0.05469c-0.05062,0.00165 -0.09971,-0.01753 -0.1358,-0.05306c-0.0361,-0.03553 -0.05605,-0.0843 -0.0552,-0.13494c0,-0.107 0.08,-0.19 0.191,-0.19c0.107,0 0.184,0.083 0.184,0.19" fill="#393828"/><path d="M240.07,191.408h5.82v1.22h-5.82zM240.07,195.322h5.82v1.226h-5.82zM240.07,199.299h5.82v1.226h-5.82z" fill="#565541"/><path d="M227.41,201.677h31.02v4.04h-31.02z" fill="#21221f"/><path d="M231.424,209.313c-0.688,0.68 -3.846,0 -3.846,0v-8.495h3.846c0,0 1.497,6.995 0,8.495M254.24,209.313c0.686,0.68 3.868,0 3.868,0v-8.495h-3.879c0,0 -1.487,6.995 0.012,8.495M236.756,209.313c-0.683,0.68 -3.24,0.746 -3.838,0c-1.338,-1.65 0,-8.495 0,-8.495h3.838c0,0 1.5,6.995 0,8.495M242.145,209.313c-0.68,0.68 -3.24,0.746 -3.845,0c-1.332,-1.65 0,-8.495 0,-8.495h3.845c0,0 1.499,6.995 0,8.495M247.42,209.313c-0.673,0.68 -3.233,0.746 -3.84,0c-1.338,-1.65 0,-8.495 0,-8.495h3.84c0,0 1.501,6.995 0,8.495M252.7,209.313c-0.674,0.68 -3.236,0.746 -3.843,0c-1.336,-1.65 0,-8.495 0,-8.495h3.842c0,0 1.503,6.995 0,8.495" fill="#333433"/><path d="M241.191,174.367c-0.998,0 -1.806,-2.142 -1.806,-3.123h7.1c0,0.981 -0.814,3.123 -1.808,3.123h-3.486" data-paper-data="{&quot;origPos&quot;:null}" fill="#775a4d"/><path d="M240.232,173.708c-0.4,-0.615 -0.765,-1.456 -0.83,-2.071c1.125,0.189 2.28,0.279 3.45,0.279c1.21311,0.00063 2.4241,-0.1014 3.62,-0.305l-0.011,0.011l-6.23,2.086" fill="#eeac6c"/><path d="M229.663,185.406c-1.015,1.012 -5.292,-0.558 -5.817,-1.893c-0.465,-1.182 0.759,-2.934 1.62,-3.117c1.294,-0.279 3.797,0.45 4.599,1.504c0.518,0.698 0.866,2.234 -0.402,3.506M262.985,178.69c0.74,1.228 -0.482,5.108 -1.818,5.632c-1.174,0.469 -3.115,-0.442 -3.36,-1.304c-0.425,-1.499 0.702,-5.057 2.026,-5.879c0.74,-0.467 2.135,-0.122 3.152,1.551" fill="#d69d0b"/><path d="M231.468,143.278c0,0 -4.454,16.29 -18.01,17.153c-2.918,0.179 -10.36,-6.913 -9.654,-9.755c1.116,-4.448 16.912,-7.085 16.912,-7.085z" fill="#426883"/><path d="M263.97,153.78c1.096,0.697 1.818,1.9 1.818,3.265c0,2.162 -1.828,3.924 -4.07,3.924c-0.067,0 -0.131,0 -0.2,-0.008c-3.65,6.548 -10.641,10.974 -18.667,10.974c-8.03,0 -15.022,-4.438 -18.672,-10.993c-0.15,0.014 -0.302,0.027 -0.454,0.027c-2.252,0 -4.077,-1.762 -4.077,-3.924c0,-1.462 0.827,-2.739 2.06,-3.413c-0.144,-1.004 -0.217,-2.027 -0.217,-3.066c0,-11.803 9.57,-21.375 21.36,-21.375c11.793,0 21.358,9.572 21.358,21.375c0,1.094 -0.082,2.159 -0.239,3.214" data-paper-data="{&quot;origPos&quot;:null}" fill="#775a4d"/><path d="M238.311,148.65c0,0 -0.503,1.803 -2.082,1.446c-0.772,-0.174 -0.908,-1.201 -3.386,-0.74c-0.779,0.18 -2.417,1.156 -2.732,1.808c-0.316,0.652 -0.088,-2.392 2.457,-3.522c1.835,-0.675 2.457,-0.642 3.977,-0.642c1.52,0 1.987,0.907 1.766,1.65M248.052,148.65c0,0 0.503,1.803 2.082,1.446c0.772,-0.174 0.908,-1.201 3.386,-0.74c0.779,0.18 2.417,1.156 2.732,1.808c0.316,0.652 0.087,-2.392 -2.457,-3.522c-1.835,-0.675 -2.457,-0.642 -3.977,-0.642c-1.52,0 -1.987,0.907 -1.766,1.65" data-paper-data="{&quot;origPos&quot;:null}" fill="#353233"/><path d="M236,156c0,1.657 -0.895,3 -2,3c-1.105,0 -2,-1.343 -2,-3c0,-1.657 0.895,-3 2,-3c1.105,0 2,1.343 2,3M254,156c0,1.657 -0.895,3 -2,3c-1.105,0 -2,-1.343 -2,-3c0,-1.657 0.895,-3 2,-3c1.105,0 2,1.343 2,3" data-paper-data="{&quot;origPos&quot;:null}" fill="#353233"/><path d="M243.02,159.069c-1.125,0.153 -3.02,1.834 -3.02,1.834c0,0 0.207,-1.009 0.503,-1.299c0.8,-1.156 2.487,-1.604 2.487,-1.604c0,0 2.173,0.703 2.65,1.588c0.443,0.824 0.34,1.238 0.34,1.238c0,0 -2.121,-1.871 -2.96,-1.756z" fill="#eeac6c"/><path d="M236.2,162.696c0,0 6.897,3.208 13.172,-0.397c0,0 -1.39,5.47 -5.95,5.561c-4.115,0.122 -4.984,-1.492 -5.477,-1.956c-0.492,-0.463 -1.42,-1.772 -1.745,-3.208" data-paper-data="{&quot;origPos&quot;:null}" fill="#aa4d4d"/><path d="M253.773,155.283c0,1.325 -0.79,2.404 -1.776,2.404c-0.972,0 -1.767,-1.079 -1.767,-2.404c0,-1.32 0.795,-2.395 1.767,-2.395c0.987,0 1.776,1.074 1.776,2.395" fill="#ffffff"/><path d="M253.101,155.945c0,0.824 -0.493,1.487 -1.104,1.487c-0.6,0 -1.091,-0.663 -1.091,-1.487c0,-0.816 0.491,-1.477 1.09,-1.477c0.612,0 1.105,0.661 1.105,1.477" fill="#343434"/><path d="M265.06,147.776c0.034,2.513 -0.842,7.944 -2.558,11.184c0,0 -4.2,-11.898 -7.656,-13.778c-4.229,-2.302 -15.38,1.012 -19.158,-1.974c-0.632,-0.491 -0.554,-1.615 -0.554,-1.615c0,0 -0.727,1.425 -1.078,1.83c-1.825,2.08 -6.578,5.1 -8.831,6.723c-1.817,1.303 -1.899,1.291 -1.5,8.814c0,0 -3.329,-6.849 -3.144,-11.42c0.049,-1.312 0.688,-4.233 1.722,-7.2c3.763,-7.548 11.55,-12.73 20.548,-12.73c10.341,0 19.081,6.838 21.951,16.238c0.14887,1.30445 0.23497,2.61529 0.258,3.928" data-paper-data="{&quot;origPos&quot;:null}" fill="#353233"/><path d="M221.095,144.696c-2.222,-2.228 5.216,-20.695 22.031,-20.695c16.305,0 23.997,18.285 21.591,20.695c-22.646,-5.873 -43.622,0 -43.622,0" fill="#6a97c0"/><path d="M221.095,144.696c0,0 -9.72,6.701 -13.434,6.456c-0.946,-0.068 -2.038,-1.334 -3.686,-0.936c2.024,-4.167 16.741,-6.625 16.741,-6.625l1.912,0.727z" fill="#5a85a7"/><path d="M251.647,140.282c0,-3.487 2.829,-5.822 6.316,-5.205c3.501,0.617 6.334,3.947 6.334,7.436l-12.65,-2.23zM260.872,142.805c0,0.16016 -0.12984,0.29 -0.29,0.29c-0.16016,0 -0.29,-0.12984 -0.29,-0.29c0,-0.161 0.134,-0.292 0.293,-0.292c0.156,0 0.287,0.131 0.287,0.292M262.154,143.052c-0.0011,0.15662 -0.12838,0.283 -0.285,0.283c-0.11662,0.0008 -0.22213,-0.06905 -0.26694,-0.17672c-0.04481,-0.10767 -0.02001,-0.23175 0.06275,-0.31393c0.08276,-0.08217 0.20701,-0.1061 0.31436,-0.06053c0.10735,0.04557 0.17646,0.15157 0.17483,0.26818M263.504,143.295c0.00053,0.07602 -0.02923,0.14913 -0.0827,0.20317c-0.05348,0.05404 -0.12627,0.08456 -0.2023,0.08483c-0.16251,0.00281 -0.2971,-0.12554 -0.302,-0.288c0,-0.156 0.14,-0.285 0.302,-0.285c0.156,0 0.285,0.13 0.285,0.285" fill="#426883"/><path d="M261.259,149.392h9.85v4.89h-9.85z" fill="#696969"/><path d="M270.558,149.392h0.184v2.447h-0.184zM270.192,149.392h0.18v2.447h-0.18zM269.824,149.392h0.178v2.447h-0.178zM269.46,149.392h0.182v2.447h-0.182zM269.086,149.392h0.188v2.447h-0.188zM268.721,149.392h0.185v2.447h-0.185zM268.357,149.392h0.18v2.447h-0.18zM267.993,149.392h0.182v2.447h-0.182z" fill="#515151"/><path d="M265.723,155.633h-3.55v-6.37c0,-0.981 0.799,-1.773 1.773,-1.773h0.015c0.97598,0.00386 1.76466,0.79701 1.763,1.773v6.371z" fill="#333433"/><path d="M260.652,176.209c0,-0.44 1.465,-0.788 3.285,-0.788c1.825,0 3.292,0.348 3.292,0.788c0,0.437 -1.467,0.788 -3.292,0.788c-1.82,0 -3.285,-0.351 -3.285,-0.787" fill="#515151"/><path d="M259.728,175.951c-0.349,-0.129 -1.227,-0.856 -1.227,-0.856h11.073c0,0 -0.861,0.744 -1.216,0.856c-2.06,0.65 -6.607,0.752 -8.63,0" fill="#21221f"/><path d="M256.305,175.095c0,0 -3.28,-16.813 0,-20.87c2.457,-3.05 12.891,-2.77 15.656,0c3.688,3.689 0,20.87 0,20.87h-15.656" fill="#515151"/><path d="M274.292,172.526c-1.008,1.465 -2.94,0.919 -2.94,0.919v-1.958c0,0 1.388,0.242 2.862,-0.941c0.38,0.311 0.355,1.58 0.078,1.98" fill="#333433"/><path d="M255.934,173.627c-1.732,-1.732 -1.536,-7.89 0,-9.792c2.492,-3.08 13.046,-2.802 15.846,0c1.732,1.737 1.905,8.256 0,9.792c-3.08,2.49 -13.043,2.806 -15.846,0" fill="#21221f"/><path d="M256.469,173.297c-1.62,-1.617 -1.436,-7.366 0,-9.142c2.33,-2.882 12.17,-2.622 14.79,0c1.617,1.615 1.78,7.703 0,9.142c-2.878,2.323 -12.181,2.618 -14.79,0" fill="#333433"/><path d="M258.742,168.955c0.00275,2.85973 2.31828,5.17839 5.178,5.185c2.86083,-0.00551 5.17815,-2.32417 5.182,-5.185c-0.00441,-2.86011 -2.32189,-5.17759 -5.182,-5.182c-2.85946,0.00441 -5.1758,2.32253 -5.178,5.182M258.677,168.955c0,-2.89425 2.34625,-5.2405 5.2405,-5.2405c2.89425,0 5.2405,2.34625 5.2405,5.2405c0,2.894 -2.344,5.24114 -5.238,5.245c-2.89504,-0.00331 -5.2408,-2.34996 -5.243,-5.245" fill="#21221f"/><path d="M259.341,168.955c-0.04259,-1.66368 0.82063,-3.21954 2.25474,-4.06392c1.43411,-0.84438 3.2134,-0.84438 4.64751,0c1.43411,0.84438 2.29733,2.40024 2.25474,4.06392c0.00106,1.21458 -0.48089,2.37973 -1.33963,3.23866c-0.85874,0.85893 -2.02379,1.34114 -3.23837,1.34034c-1.21467,0.0008 -2.37982,-0.48138 -3.23872,-1.34028c-0.8589,-0.8589 -1.34107,-2.02405 -1.34028,-3.23872" fill="#21221f"/><path d="M267.174,170.798c0.47,-1.344 -0.101,-4.687 -2.683,-5.131c3.487,-0.05 4.007,3.288 2.683,5.131" fill="#eeeeed"/><path d="M254.032,155.265h12.243c1.21,0 2.208,0.988 2.208,2.208c-0.00714,1.21469 -0.99329,2.19592 -2.208,2.197h-12.243z" fill="#333433"/><path d="M263.969,157.143c0,-0.30928 0.25072,-0.56 0.56,-0.56c0.14807,-0.00001 0.29,0.05915 0.39422,0.16432c0.10423,0.10517 0.16211,0.24762 0.16078,0.39568c0.00107,0.14744 -0.05689,0.28918 -0.16096,0.39362c-0.10407,0.10445 -0.2456,0.16292 -0.39304,0.16238c-0.312,0 -0.56,-0.249 -0.56,-0.556M262.075,157.143c0,-0.30817 0.24983,-0.558 0.558,-0.558c0.30817,0 0.558,0.24983 0.558,0.558c0,0.307 -0.248,0.556 -0.558,0.556c-0.311,0 -0.558,-0.249 -0.558,-0.556" fill="#e63744"/><path d="M260.12,157.143c-0.0008,-0.14842 0.05767,-0.29102 0.16243,-0.39615c0.10476,-0.10514 0.24715,-0.16411 0.39557,-0.16385c0.30817,0 0.558,0.24983 0.558,0.558c0,0.30817 -0.24983,0.558 -0.558,0.558c-0.313,0 -0.558,-0.249 -0.558,-0.556" fill="#6a97c0"/><path d="M258.216,157.143c0.00219,-0.30915 0.25285,-0.55891 0.562,-0.56c0.30738,0.00221 0.55509,0.25259 0.55399,0.55998c-0.0011,0.30739 -0.2506,0.556 -0.55799,0.556c-0.30739,0 -0.5569,-0.2486 -0.558,-0.55599" fill="#009244"/><path d="M247.94,155.778c-0.00053,-0.86327 0.3421,-1.69135 0.95243,-2.30187c0.61033,-0.61052 1.4383,-0.9534 2.30157,-0.95313c1.79772,0.0011 3.25524,1.45729 3.258,3.255c-0.00221,1.79811 -1.45989,3.2549 -3.258,3.256c-0.86336,0 -1.69133,-0.34311 -2.30163,-0.95378c-0.6103,-0.61068 -0.9529,-1.43886 -0.95237,-2.30222" fill="#515151"/><path d="M255.692,155.293l-0.01,4.404h-1.65l-0.865,-1.223c-1.169,0.158 -2.499,0.378 -3.105,-0.085c-1.764,-1.365 -1.569,-4.078 0,-5.148c0.932,-0.636 3.403,-0.242 4.507,-0.008c0.10628,0.022 0.20309,0.07652 0.277,0.156h0.004l0.007,0.034c0.004,0.013 0.004,0.036 0.019,0.053zM268.811,158.346c0,-1.74405 1.41295,-3.15834 3.157,-3.16c1.74499,0.00055 3.15945,1.41501 3.16,3.16c0.0008,0.83805 -0.33197,1.64197 -0.92484,2.23428c-0.59287,0.59231 -1.3971,0.92432 -2.23516,0.92272c-0.83771,0.00106 -1.64142,-0.33118 -2.23386,-0.92343c-0.59244,-0.59225 -0.92493,-1.39586 -0.92414,-2.23357" fill="#333433"/><path d="M269.965,158.346c0.00083,-1.10623 0.89827,-2.00233 2.0045,-2.0015c1.10623,0.00083 2.00233,0.89827 2.0015,2.0045c-0.00083,1.10623 -0.89827,2.00233 -2.0045,2.0015c-1.10623,-0.00083 -2.00233,-0.89827 -2.0015,-2.0045" fill="#21221f"/></g></g></svg>