<svg xmlns="http://www.w3.org/2000/svg" xmlns:xlink="http://www.w3.org/1999/xlink" width="120" height="120"><defs><path id="a" d="M0 .066h35.162v15.472H0z"/><path id="c" d="M.335.215h35.256v35.181H.335z"/><path id="e" d="M0 .642h35.162v15.473H0z"/><path id="g" d="M.684.418H63.97v18.538H.684z"/><path id="i" d="M30.909.136C14.134.136.537 13.704.537 30.443c0 16.738 13.597 30.308 30.372 30.308H56.31c16.775 0 30.372-13.57 30.372-30.308C86.682 13.703 73.085.136 56.31.136h-25.4z"/><path id="k" d="M30.909.136C14.134.136.537 13.704.537 30.443c0 16.738 13.597 30.308 30.372 30.308H56.31c16.775 0 30.372-13.57 30.372-30.308C86.682 13.703 73.085.136 56.31.136h-25.4z"/><path id="m" d="M30.909.136C14.134.136.537 13.704.537 30.443c0 16.738 13.597 30.308 30.372 30.308H56.31c16.775 0 30.372-13.57 30.372-30.308C86.682 13.703 73.085.136 56.31.136h-25.4z"/><path id="o" d="M30.909.136C14.134.136.537 13.704.537 30.443c0 16.738 13.597 30.308 30.372 30.308H56.31c16.775 0 30.372-13.57 30.372-30.308C86.682 13.703 73.085.136 56.31.136h-25.4z"/><path id="q" d="M30.909.136C14.134.136.537 13.704.537 30.443c0 16.738 13.597 30.308 30.372 30.308H56.31c16.775 0 30.372-13.57 30.372-30.308C86.682 13.703 73.085.136 56.31.136h-25.4z"/><path id="s" d="M30.909.136C14.134.136.537 13.704.537 30.443c0 16.738 13.597 30.308 30.372 30.308H56.31c16.775 0 30.372-13.57 30.372-30.308C86.682 13.703 73.085.136 56.31.136h-25.4z"/><path id="u" d="M30.909.136C14.134.136.537 13.704.537 30.443c0 16.738 13.597 30.308 30.372 30.308H56.31c16.775 0 30.372-13.57 30.372-30.308C86.682 13.703 73.085.136 56.31.136h-25.4z"/><path id="w" d="M30.909.136C14.134.136.537 13.704.537 30.443c0 16.738 13.597 30.308 30.372 30.308H56.31c16.775 0 30.372-13.57 30.372-30.308C86.682 13.703 73.085.136 56.31.136h-25.4z"/><path id="y" d="M30.909.136C14.134.136.537 13.704.537 30.443c0 16.738 13.597 30.308 30.372 30.308H56.31c16.775 0 30.372-13.57 30.372-30.308C86.682 13.703 73.085.136 56.31.136h-25.4z"/><path id="A" d="M30.909.136C14.134.136.537 13.704.537 30.443c0 16.738 13.597 30.308 30.372 30.308H56.31c16.775 0 30.372-13.57 30.372-30.308C86.682 13.703 73.085.136 56.31.136h-25.4z"/><path id="C" d="M30.909.136C14.134.136.537 13.704.537 30.443c0 16.738 13.597 30.308 30.372 30.308H56.31c16.775 0 30.372-13.57 30.372-30.308C86.682 13.703 73.085.136 56.31.136h-25.4z"/><path id="E" d="M30.909.136C14.134.136.537 13.704.537 30.443c0 16.738 13.597 30.308 30.372 30.308H56.31c16.775 0 30.372-13.57 30.372-30.308C86.682 13.703 73.085.136 56.31.136h-25.4z"/><path id="G" d="M30.909.136C14.134.136.537 13.704.537 30.443c0 16.738 13.597 30.308 30.372 30.308H56.31c16.775 0 30.372-13.57 30.372-30.308C86.682 13.703 73.085.136 56.31.136h-25.4z"/><path id="I" d="M30.909.136C14.134.136.537 13.704.537 30.443c0 16.738 13.597 30.308 30.372 30.308H56.31c16.775 0 30.372-13.57 30.372-30.308C86.682 13.703 73.085.136 56.31.136h-25.4z"/><path id="K" d="M30.909.136C14.134.136.537 13.704.537 30.443c0 16.738 13.597 30.308 30.372 30.308H56.31c16.775 0 30.372-13.57 30.372-30.308C86.682 13.703 73.085.136 56.31.136h-25.4z"/><path id="M" d="M30.909.136C14.134.136.537 13.704.537 30.443c0 16.738 13.597 30.308 30.372 30.308H56.31c16.775 0 30.372-13.57 30.372-30.308C86.682 13.703 73.085.136 56.31.136h-25.4z"/><path id="O" d="M30.909.136C14.134.136.537 13.704.537 30.443c0 16.738 13.597 30.308 30.372 30.308H56.31c16.775 0 30.372-13.57 30.372-30.308C86.682 13.703 73.085.136 56.31.136h-25.4z"/><path id="Q" d="M30.909.136C14.134.136.537 13.704.537 30.443c0 16.738 13.597 30.308 30.372 30.308H56.31c16.775 0 30.372-13.57 30.372-30.308C86.682 13.703 73.085.136 56.31.136h-25.4z"/><path id="S" d="M30.909.136C14.134.136.537 13.704.537 30.443c0 16.738 13.597 30.308 30.372 30.308H56.31c16.775 0 30.372-13.57 30.372-30.308C86.682 13.703 73.085.136 56.31.136h-25.4z"/><path id="U" d="M30.909.136C14.134.136.537 13.704.537 30.443c0 16.738 13.597 30.308 30.372 30.308H56.31c16.775 0 30.372-13.57 30.372-30.308C86.682 13.703 73.085.136 56.31.136h-25.4z"/><path id="W" d="M30.909.136C14.134.136.537 13.704.537 30.443c0 16.738 13.597 30.308 30.372 30.308H56.31c16.775 0 30.372-13.57 30.372-30.308C86.682 13.703 73.085.136 56.31.136h-25.4z"/><path id="Y" d="M30.909.136C14.134.136.537 13.704.537 30.443c0 16.738 13.597 30.308 30.372 30.308H56.31c16.775 0 30.372-13.57 30.372-30.308C86.682 13.703 73.085.136 56.31.136h-25.4z"/><path id="aa" d="M30.909.136C14.134.136.537 13.704.537 30.443c0 16.738 13.597 30.308 30.372 30.308H56.31c16.775 0 30.372-13.57 30.372-30.308C86.682 13.703 73.085.136 56.31.136h-25.4z"/><path id="ac" d="M30.909.136C14.134.136.537 13.704.537 30.443c0 16.738 13.597 30.308 30.372 30.308H56.31c16.775 0 30.372-13.57 30.372-30.308C86.682 13.703 73.085.136 56.31.136h-25.4z"/><path id="ae" d="M30.909.136C14.134.136.537 13.704.537 30.443c0 16.738 13.597 30.308 30.372 30.308H56.31c16.775 0 30.372-13.57 30.372-30.308C86.682 13.703 73.085.136 56.31.136h-25.4z"/><path id="ag" d="M30.909.136C14.134.136.537 13.704.537 30.443c0 16.738 13.597 30.308 30.372 30.308H56.31c16.775 0 30.372-13.57 30.372-30.308C86.682 13.703 73.085.136 56.31.136h-25.4z"/><path id="ai" d="M30.909.136C14.134.136.537 13.704.537 30.443c0 16.738 13.597 30.308 30.372 30.308H56.31c16.775 0 30.372-13.57 30.372-30.308C86.682 13.703 73.085.136 56.31.136h-25.4z"/><path id="ak" d="M30.909.136C14.134.136.537 13.704.537 30.443c0 16.738 13.597 30.308 30.372 30.308H56.31c16.775 0 30.372-13.57 30.372-30.308C86.682 13.703 73.085.136 56.31.136h-25.4z"/><path id="am" d="M30.909.136C14.134.136.537 13.704.537 30.443c0 16.738 13.597 30.308 30.372 30.308H56.31c16.775 0 30.372-13.57 30.372-30.308C86.682 13.703 73.085.136 56.31.136h-25.4z"/><path id="ao" d="M30.909.136C14.134.136.537 13.704.537 30.443c0 16.738 13.597 30.308 30.372 30.308H56.31c16.775 0 30.372-13.57 30.372-30.308C86.682 13.703 73.085.136 56.31.136h-25.4z"/><path id="aq" d="M30.909.136C14.134.136.537 13.704.537 30.443c0 16.738 13.597 30.308 30.372 30.308H56.31c16.775 0 30.372-13.57 30.372-30.308C86.682 13.703 73.085.136 56.31.136h-25.4z"/><path id="as" d="M30.909.136C14.134.136.537 13.704.537 30.443c0 16.738 13.597 30.308 30.372 30.308H56.31c16.775 0 30.372-13.57 30.372-30.308C86.682 13.703 73.085.136 56.31.136h-25.4z"/><path id="au" d="M30.909.136C14.134.136.537 13.704.537 30.443c0 16.738 13.597 30.308 30.372 30.308H56.31c16.775 0 30.372-13.57 30.372-30.308C86.682 13.703 73.085.136 56.31.136h-25.4z"/><path id="aw" d="M30.909.136C14.134.136.537 13.704.537 30.443c0 16.738 13.597 30.308 30.372 30.308H56.31c16.775 0 30.372-13.57 30.372-30.308C86.682 13.703 73.085.136 56.31.136h-25.4z"/><path id="ay" d="M30.909.136C14.134.136.537 13.704.537 30.443c0 16.738 13.597 30.308 30.372 30.308H56.31c16.775 0 30.372-13.57 30.372-30.308C86.682 13.703 73.085.136 56.31.136h-25.4z"/><path id="aA" d="M30.909.136C14.134.136.537 13.704.537 30.443c0 16.738 13.597 30.308 30.372 30.308H56.31c16.775 0 30.372-13.57 30.372-30.308C86.682 13.703 73.085.136 56.31.136h-25.4z"/><path id="aC" d="M30.909.136C14.134.136.537 13.704.537 30.443c0 16.738 13.597 30.308 30.372 30.308H56.31c16.775 0 30.372-13.57 30.372-30.308C86.682 13.703 73.085.136 56.31.136h-25.4z"/><path id="aE" d="M30.909.136C14.134.136.537 13.704.537 30.443c0 16.738 13.597 30.308 30.372 30.308H56.31c16.775 0 30.372-13.57 30.372-30.308C86.682 13.703 73.085.136 56.31.136h-25.4z"/><path id="aG" d="M30.909.136C14.134.136.537 13.704.537 30.443c0 16.738 13.597 30.308 30.372 30.308H56.31c16.775 0 30.372-13.57 30.372-30.308C86.682 13.703 73.085.136 56.31.136h-25.4z"/><path id="aI" d="M30.909.136C14.134.136.537 13.704.537 30.443c0 16.738 13.597 30.308 30.372 30.308H56.31c16.775 0 30.372-13.57 30.372-30.308C86.682 13.703 73.085.136 56.31.136h-25.4z"/><path id="aK" d="M30.909.136C14.134.136.537 13.704.537 30.443c0 16.738 13.597 30.308 30.372 30.308H56.31c16.775 0 30.372-13.57 30.372-30.308C86.682 13.703 73.085.136 56.31.136h-25.4z"/><path id="aM" d="M30.909.136C14.134.136.537 13.704.537 30.443c0 16.738 13.597 30.308 30.372 30.308H56.31c16.775 0 30.372-13.57 30.372-30.308C86.682 13.703 73.085.136 56.31.136h-25.4z"/><path id="aO" d="M30.909.136C14.134.136.537 13.704.537 30.443c0 16.738 13.597 30.308 30.372 30.308H56.31c16.775 0 30.372-13.57 30.372-30.308C86.682 13.703 73.085.136 56.31.136h-25.4z"/><path id="aQ" d="M30.909.136C14.134.136.537 13.704.537 30.443c0 16.738 13.597 30.308 30.372 30.308H56.31c16.775 0 30.372-13.57 30.372-30.308C86.682 13.703 73.085.136 56.31.136h-25.4z"/><path id="aS" d="M30.909.136C14.134.136.537 13.704.537 30.443c0 16.738 13.597 30.308 30.372 30.308H56.31c16.775 0 30.372-13.57 30.372-30.308C86.682 13.703 73.085.136 56.31.136h-25.4z"/><path id="aU" d="M30.909.136C14.134.136.537 13.704.537 30.443c0 16.738 13.597 30.308 30.372 30.308H56.31c16.775 0 30.372-13.57 30.372-30.308C86.682 13.703 73.085.136 56.31.136h-25.4z"/><path id="aW" d="M30.909.136C14.134.136.537 13.704.537 30.443c0 16.738 13.597 30.308 30.372 30.308H56.31c16.775 0 30.372-13.57 30.372-30.308C86.682 13.703 73.085.136 56.31.136h-25.4z"/><path id="aY" d="M30.909.136C14.134.136.537 13.704.537 30.443c0 16.738 13.597 30.308 30.372 30.308H56.31c16.775 0 30.372-13.57 30.372-30.308C86.682 13.703 73.085.136 56.31.136h-25.4z"/><path id="ba" d="M30.909.136C14.134.136.537 13.704.537 30.443c0 16.738 13.597 30.308 30.372 30.308H56.31c16.775 0 30.372-13.57 30.372-30.308C86.682 13.703 73.085.136 56.31.136h-25.4z"/><path id="bc" d="M30.909.136C14.134.136.537 13.704.537 30.443c0 16.738 13.597 30.308 30.372 30.308H56.31c16.775 0 30.372-13.57 30.372-30.308C86.682 13.703 73.085.136 56.31.136h-25.4z"/><path id="be" d="M30.909.136C14.134.136.537 13.704.537 30.443c0 16.738 13.597 30.308 30.372 30.308H56.31c16.775 0 30.372-13.57 30.372-30.308C86.682 13.703 73.085.136 56.31.136h-25.4z"/><path id="bg" d="M30.909.136C14.134.136.537 13.704.537 30.443c0 16.738 13.597 30.308 30.372 30.308H56.31c16.775 0 30.372-13.57 30.372-30.308C86.682 13.703 73.085.136 56.31.136h-25.4z"/><path id="bi" d="M30.909.136C14.134.136.537 13.704.537 30.443c0 16.738 13.597 30.308 30.372 30.308H56.31c16.775 0 30.372-13.57 30.372-30.308C86.682 13.703 73.085.136 56.31.136h-25.4z"/><path id="bk" d="M30.909.136C14.134.136.537 13.704.537 30.443c0 16.738 13.597 30.308 30.372 30.308H56.31c16.775 0 30.372-13.57 30.372-30.308C86.682 13.703 73.085.136 56.31.136h-25.4z"/><path id="bm" d="M30.909.136C14.134.136.537 13.704.537 30.443c0 16.738 13.597 30.308 30.372 30.308H56.31c16.775 0 30.372-13.57 30.372-30.308C86.682 13.703 73.085.136 56.31.136h-25.4z"/><path id="bo" d="M30.909.136C14.134.136.537 13.704.537 30.443c0 16.738 13.597 30.308 30.372 30.308H56.31c16.775 0 30.372-13.57 30.372-30.308C86.682 13.703 73.085.136 56.31.136h-25.4z"/><path id="bq" d="M30.909.136C14.134.136.537 13.704.537 30.443c0 16.738 13.597 30.308 30.372 30.308H56.31c16.775 0 30.372-13.57 30.372-30.308C86.682 13.703 73.085.136 56.31.136h-25.4z"/><path id="bs" d="M30.909.136C14.134.136.537 13.704.537 30.443c0 16.738 13.597 30.308 30.372 30.308H56.31c16.775 0 30.372-13.57 30.372-30.308C86.682 13.703 73.085.136 56.31.136h-25.4z"/><path id="bu" d="M30.909.136C14.134.136.537 13.704.537 30.443c0 16.738 13.597 30.308 30.372 30.308H56.31c16.775 0 30.372-13.57 30.372-30.308C86.682 13.703 73.085.136 56.31.136h-25.4z"/><path id="bw" d="M30.909.136C14.134.136.537 13.704.537 30.443c0 16.738 13.597 30.308 30.372 30.308H56.31c16.775 0 30.372-13.57 30.372-30.308C86.682 13.703 73.085.136 56.31.136h-25.4z"/><path id="by" d="M30.909.136C14.134.136.537 13.704.537 30.443c0 16.738 13.597 30.308 30.372 30.308H56.31c16.775 0 30.372-13.57 30.372-30.308C86.682 13.703 73.085.136 56.31.136h-25.4z"/><path id="bA" d="M30.909.136C14.134.136.537 13.704.537 30.443c0 16.738 13.597 30.308 30.372 30.308H56.31c16.775 0 30.372-13.57 30.372-30.308C86.682 13.703 73.085.136 56.31.136h-25.4z"/><path id="bC" d="M30.909.136C14.134.136.537 13.704.537 30.443c0 16.738 13.597 30.308 30.372 30.308H56.31c16.775 0 30.372-13.57 30.372-30.308C86.682 13.703 73.085.136 56.31.136h-25.4z"/><path id="bE" d="M30.909.136C14.134.136.537 13.704.537 30.443c0 16.738 13.597 30.308 30.372 30.308H56.31c16.775 0 30.372-13.57 30.372-30.308C86.682 13.703 73.085.136 56.31.136h-25.4z"/></defs><g fill="none" fill-rule="evenodd"><path fill="#B8BD00" d="M90.791 72.603c0 19.447-15.769 35.182-35.256 35.182l35.256-35.182z"/><g transform="translate(0 67.87)"><mask id="b" fill="#fff"><use xlink:href="#a"/></mask><path fill="#B8BD00" d="M35.162.066C29.062 13.373 13.335 19.216 0 13.13L35.162.066z" mask="url(#b)"/></g><g transform="translate(55.2 13.584)"><mask id="d" fill="#fff"><use xlink:href="#c"/></mask><path fill="#B8BD00" d="M35.591 35.396C35.591 15.95 19.822.214.335.214l35.256 35.182z" mask="url(#d)"/></g><g transform="translate(0 37.533)"><mask id="f" fill="#fff"><use xlink:href="#e"/></mask><path fill="#B8BD00" d="M35.162 16.115C29.062 2.808 13.335-3.035 0 3.052l35.162 13.063z" mask="url(#f)"/></g><g transform="translate(56 51.105)"><mask id="h" fill="#fff"><use xlink:href="#g"/></mask><path fill="#B8BD00" d="M54.681.418H.684v18.538h53.997c5.13 0 9.289-4.15 9.289-9.269 0-5.12-4.159-9.27-9.289-9.27" mask="url(#h)"/></g><path fill="#000" d="M114.76 65.258a1.915 1.915 0 0 0-1.917-1.913 1.915 1.915 0 1 0 0 3.827c1.06 0 1.918-.857 1.918-1.914m-.001-7.999a1.915 1.915 0 0 0-1.917-1.914 1.915 1.915 0 0 0 0 3.827c1.06 0 1.918-.856 1.918-1.913"/><g transform="translate(17.6 30.348)"><mask id="j" fill="#fff"><use xlink:href="#i"/></mask><path fill="#9D3501" d="M75.417 4.072h-9.67l-4.834 8.357 4.834 8.356h9.67l4.834-8.356z" mask="url(#j)"/></g><g transform="translate(17.6 30.348)"><mask id="l" fill="#fff"><use xlink:href="#k"/></mask><path fill="#8F2C01" d="M89.92-4.285h-9.669l-4.834 8.357 4.834 8.356h9.67l4.834-8.356z" mask="url(#l)"/></g><g transform="translate(17.6 30.348)"><mask id="n" fill="#fff"><use xlink:href="#m"/></mask><path fill="#9D3501" d="M75.417-12.64h-9.67l-4.834 8.356 4.834 8.356h9.67l4.834-8.356z" mask="url(#n)"/></g><g transform="translate(17.6 30.348)"><mask id="p" fill="#fff"><use xlink:href="#o"/></mask><path fill="#9D3501" d="M75.417 20.785h-9.67l-4.834 8.356 4.834 8.356h9.67l4.834-8.356z" mask="url(#p)"/></g><g transform="translate(17.6 30.348)"><mask id="r" fill="#fff"><use xlink:href="#q"/></mask><path fill="#B24006" d="M89.92 12.428h-9.669l-4.834 8.356 4.834 8.357h9.67l4.834-8.357z" mask="url(#r)"/></g><g transform="translate(17.6 30.348)"><mask id="t" fill="#fff"><use xlink:href="#s"/></mask><path fill="#9D3501" d="M75.417 4.072h-9.67l-4.834 8.357 4.834 8.356h9.67l4.834-8.356z" mask="url(#t)"/></g><g transform="translate(17.6 30.348)"><mask id="v" fill="#fff"><use xlink:href="#u"/></mask><path fill="#9D3501" d="M75.417 37.497h-9.67l-4.834 8.356 4.834 8.357h9.67l4.834-8.357z" mask="url(#v)"/></g><g transform="translate(17.6 30.348)"><mask id="x" fill="#fff"><use xlink:href="#w"/></mask><path fill="#9D3501" d="M89.92 29.14h-9.669l-4.834 8.357 4.834 8.356h9.67l4.834-8.356z" mask="url(#x)"/></g><g transform="translate(17.6 30.348)"><mask id="z" fill="#fff"><use xlink:href="#y"/></mask><path fill="#9D3501" d="M75.417 20.785h-9.67l-4.834 8.356 4.834 8.356h9.67l4.834-8.356z" mask="url(#z)"/></g><g transform="translate(17.6 30.348)"><mask id="B" fill="#fff"><use xlink:href="#A"/></mask><path fill="#9D3501" d="M75.417 54.21h-9.67l-4.834 8.356 4.834 8.356h9.67l4.834-8.356z" mask="url(#B)"/></g><g transform="translate(17.6 30.348)"><mask id="D" fill="#fff"><use xlink:href="#C"/></mask><path fill="#8F2C01" d="M89.92 45.853h-9.669l-4.834 8.357 4.834 8.356h9.67l4.834-8.356z" mask="url(#D)"/></g><g transform="translate(17.6 30.348)"><mask id="F" fill="#fff"><use xlink:href="#E"/></mask><path fill="#9D3501" d="M75.417 37.497h-9.67l-4.834 8.356 4.834 8.357h9.67l4.834-8.357z" mask="url(#F)"/></g><g transform="translate(17.6 30.348)"><mask id="H" fill="#fff"><use xlink:href="#G"/></mask><path fill="#9D3501" d="M75.417 4.072h-9.67l-4.834 8.357 4.834 8.356h9.67l4.834-8.356z" mask="url(#H)"/></g><g transform="translate(17.6 30.348)"><mask id="J" fill="#fff"><use xlink:href="#I"/></mask><path fill="#9D3501" d="M46.41 4.072h-9.671l-4.834 8.357 4.834 8.356h9.67l4.834-8.356z" mask="url(#J)"/></g><g transform="translate(17.6 30.348)"><mask id="L" fill="#fff"><use xlink:href="#K"/></mask><path fill="#B24006" d="M75.417-12.64h-9.67l-4.834 8.356 4.834 8.356h9.67l4.834-8.356z" mask="url(#L)"/></g><g transform="translate(17.6 30.348)"><mask id="N" fill="#fff"><use xlink:href="#M"/></mask><path fill="#8F2C01" d="M60.913-4.285h-9.67l-4.834 8.357 4.834 8.356h9.67l4.834-8.356z" mask="url(#N)"/></g><g transform="translate(17.6 30.348)"><mask id="P" fill="#fff"><use xlink:href="#O"/></mask><path fill="#9D3501" d="M46.41-12.64h-9.671l-4.834 8.356 4.834 8.356h9.67l4.834-8.356z" mask="url(#P)"/></g><g transform="translate(17.6 30.348)"><mask id="R" fill="#fff"><use xlink:href="#Q"/></mask><path fill="#9D3501" d="M75.417 20.785h-9.67l-4.834 8.356 4.834 8.356h9.67l4.834-8.356z" mask="url(#R)"/></g><g transform="translate(17.6 30.348)"><mask id="T" fill="#fff"><use xlink:href="#S"/></mask><path fill="#9D3501" d="M46.41 20.785h-9.671l-4.834 8.356 4.834 8.356h9.67l4.834-8.356z" mask="url(#T)"/></g><g transform="translate(17.6 30.348)"><mask id="V" fill="#fff"><use xlink:href="#U"/></mask><path fill="#9D3501" d="M75.417 4.072h-9.67l-4.834 8.357 4.834 8.356h9.67l4.834-8.356z" mask="url(#V)"/></g><g transform="translate(17.6 30.348)"><mask id="X" fill="#fff"><use xlink:href="#W"/></mask><path fill="#B24006" d="M60.913 12.428h-9.67l-4.834 8.356 4.834 8.357h9.67l4.834-8.357z" mask="url(#X)"/></g><g transform="translate(17.6 30.348)"><mask id="Z" fill="#fff"><use xlink:href="#Y"/></mask><path fill="#9D3501" d="M46.41 4.072h-9.671l-4.834 8.357 4.834 8.356h9.67l4.834-8.356z" mask="url(#Z)"/></g><g transform="translate(17.6 30.348)"><mask id="ab" fill="#fff"><use xlink:href="#aa"/></mask><path fill="#9D3501" d="M75.417 37.497h-9.67l-4.834 8.356 4.834 8.357h9.67l4.834-8.357z" mask="url(#ab)"/></g><g transform="translate(17.6 30.348)"><mask id="ad" fill="#fff"><use xlink:href="#ac"/></mask><path fill="#9D3501" d="M46.41 37.497h-9.671l-4.834 8.356 4.834 8.357h9.67l4.834-8.357z" mask="url(#ad)"/></g><g transform="translate(17.6 30.348)"><mask id="af" fill="#fff"><use xlink:href="#ae"/></mask><path fill="#8F2C01" d="M75.417 20.785h-9.67l-4.834 8.356 4.834 8.356h9.67l4.834-8.356z" mask="url(#af)"/></g><g transform="translate(17.6 30.348)"><mask id="ah" fill="#fff"><use xlink:href="#ag"/></mask><path fill="#9D3501" d="M60.913 29.14h-9.67l-4.834 8.357 4.834 8.356h9.67l4.834-8.356z" mask="url(#ah)"/></g><g transform="translate(17.6 30.348)"><mask id="aj" fill="#fff"><use xlink:href="#ai"/></mask><path fill="#9D3501" d="M46.41 20.785h-9.671l-4.834 8.356 4.834 8.356h9.67l4.834-8.356z" mask="url(#aj)"/></g><g transform="translate(17.6 30.348)"><mask id="al" fill="#fff"><use xlink:href="#ak"/></mask><path fill="#9D3501" d="M75.417 54.21h-9.67l-4.834 8.356 4.834 8.356h9.67l4.834-8.356z" mask="url(#al)"/></g><g transform="translate(17.6 30.348)"><mask id="an" fill="#fff"><use xlink:href="#am"/></mask><path fill="#9D3501" d="M46.41 54.21h-9.671l-4.834 8.356 4.834 8.356h9.67l4.834-8.356z" mask="url(#an)"/></g><g transform="translate(17.6 30.348)"><mask id="ap" fill="#fff"><use xlink:href="#ao"/></mask><path fill="#B24006" d="M75.417 37.497h-9.67l-4.834 8.356 4.834 8.357h9.67l4.834-8.357z" mask="url(#ap)"/></g><g transform="translate(17.6 30.348)"><mask id="ar" fill="#fff"><use xlink:href="#aq"/></mask><path fill="#8F2C01" d="M60.913 45.853h-9.67l-4.834 8.357 4.834 8.356h9.67l4.834-8.356z" mask="url(#ar)"/></g><g transform="translate(17.6 30.348)"><mask id="at" fill="#fff"><use xlink:href="#as"/></mask><path fill="#9D3501" d="M46.41 37.497h-9.671l-4.834 8.356 4.834 8.357h9.67l4.834-8.357z" mask="url(#at)"/></g><g transform="translate(17.6 30.348)"><mask id="av" fill="#fff"><use xlink:href="#au"/></mask><path fill="#9D3501" d="M46.41 4.072h-9.671l-4.834 8.357 4.834 8.356h9.67l4.834-8.356z" mask="url(#av)"/></g><g transform="translate(17.6 30.348)"><mask id="ax" fill="#fff"><use xlink:href="#aw"/></mask><path fill="#9D3501" d="M17.4 4.072H7.733l-4.835 8.357 4.835 8.356H17.4l4.834-8.356z" mask="url(#ax)"/></g><g transform="translate(17.6 30.348)"><mask id="az" fill="#fff"><use xlink:href="#ay"/></mask><path fill="#B24006" d="M46.41-12.64h-9.671l-4.834 8.356 4.834 8.356h9.67l4.834-8.356z" mask="url(#az)"/></g><g transform="translate(17.6 30.348)"><mask id="aB" fill="#fff"><use xlink:href="#aA"/></mask><path fill="#8F2C01" d="M31.905-4.285h-9.67L17.4 4.072l4.835 8.356h9.67l4.834-8.356z" mask="url(#aB)"/></g><g transform="translate(17.6 30.348)"><mask id="aD" fill="#fff"><use xlink:href="#aC"/></mask><path fill="#9D3501" d="M17.4-12.64H7.733L2.897-4.284l4.835 8.356H17.4l4.834-8.356z" mask="url(#aD)"/></g><g transform="translate(17.6 30.348)"><mask id="aF" fill="#fff"><use xlink:href="#aE"/></mask><path fill="#9D3501" d="M46.41 20.785h-9.671l-4.834 8.356 4.834 8.356h9.67l4.834-8.356z" mask="url(#aF)"/></g><g transform="translate(17.6 30.348)"><mask id="aH" fill="#fff"><use xlink:href="#aG"/></mask><path fill="#9D3501" d="M17.4 20.785H7.733L2.897 29.14l4.835 8.356H17.4l4.834-8.356z" mask="url(#aH)"/></g><g transform="translate(17.6 30.348)"><mask id="aJ" fill="#fff"><use xlink:href="#aI"/></mask><path fill="#9D3501" d="M46.41 4.072h-9.671l-4.834 8.357 4.834 8.356h9.67l4.834-8.356z" mask="url(#aJ)"/></g><g transform="translate(17.6 30.348)"><mask id="aL" fill="#fff"><use xlink:href="#aK"/></mask><path fill="#B24006" d="M31.905 12.428h-9.67L17.4 20.784l4.835 8.357h9.67l4.834-8.357z" mask="url(#aL)"/></g><g transform="translate(17.6 30.348)"><mask id="aN" fill="#fff"><use xlink:href="#aM"/></mask><path fill="#9D3501" d="M17.4 4.072H7.733l-4.835 8.357 4.835 8.356H17.4l4.834-8.356z" mask="url(#aN)"/></g><g transform="translate(17.6 30.348)"><mask id="aP" fill="#fff"><use xlink:href="#aO"/></mask><path fill="#9D3501" d="M46.41 37.497h-9.671l-4.834 8.356 4.834 8.357h9.67l4.834-8.357z" mask="url(#aP)"/></g><g transform="translate(17.6 30.348)"><mask id="aR" fill="#fff"><use xlink:href="#aQ"/></mask><path fill="#9D3501" d="M17.4 37.497H7.733l-4.835 8.356 4.835 8.357H17.4l4.834-8.357z" mask="url(#aR)"/></g><g transform="translate(17.6 30.348)"><mask id="aT" fill="#fff"><use xlink:href="#aS"/></mask><path fill="#8F2C01" d="M46.41 20.785h-9.671l-4.834 8.356 4.834 8.356h9.67l4.834-8.356z" mask="url(#aT)"/></g><g transform="translate(17.6 30.348)"><mask id="aV" fill="#fff"><use xlink:href="#aU"/></mask><path fill="#9D3501" d="M31.905 29.14h-9.67L17.4 37.498l4.835 8.356h9.67l4.834-8.356z" mask="url(#aV)"/></g><g transform="translate(17.6 30.348)"><mask id="aX" fill="#fff"><use xlink:href="#aW"/></mask><path fill="#9D3501" d="M17.4 20.785H7.733L2.897 29.14l4.835 8.356H17.4l4.834-8.356z" mask="url(#aX)"/></g><g transform="translate(17.6 30.348)"><mask id="aZ" fill="#fff"><use xlink:href="#aY"/></mask><path fill="#9D3501" d="M46.41 54.21h-9.671l-4.834 8.356 4.834 8.356h9.67l4.834-8.356z" mask="url(#aZ)"/></g><g transform="translate(17.6 30.348)"><mask id="bb" fill="#fff"><use xlink:href="#ba"/></mask><path fill="#9D3501" d="M17.4 54.21H7.733l-4.835 8.356 4.835 8.356H17.4l4.834-8.356z" mask="url(#bb)"/></g><g transform="translate(17.6 30.348)"><mask id="bd" fill="#fff"><use xlink:href="#bc"/></mask><path fill="#B24006" d="M46.41 37.497h-9.671l-4.834 8.356 4.834 8.357h9.67l4.834-8.357z" mask="url(#bd)"/></g><g transform="translate(17.6 30.348)"><mask id="bf" fill="#fff"><use xlink:href="#be"/></mask><path fill="#8F2C01" d="M31.905 45.853h-9.67L17.4 54.21l4.835 8.356h9.67l4.834-8.356z" mask="url(#bf)"/></g><g transform="translate(17.6 30.348)"><mask id="bh" fill="#fff"><use xlink:href="#bg"/></mask><path fill="#9D3501" d="M17.4 37.497H7.733l-4.835 8.356 4.835 8.357H17.4l4.834-8.357z" mask="url(#bh)"/></g><g transform="translate(17.6 30.348)"><mask id="bj" fill="#fff"><use xlink:href="#bi"/></mask><path fill="#9D3501" d="M17.4 4.072H7.733l-4.835 8.357 4.835 8.356H17.4l4.834-8.356z" mask="url(#bj)"/></g><g transform="translate(17.6 30.348)"><mask id="bl" fill="#fff"><use xlink:href="#bk"/></mask><path fill="#B24006" d="M17.4-12.64H7.733L2.897-4.284l4.835 8.356H17.4l4.834-8.356z" mask="url(#bl)"/></g><g transform="translate(17.6 30.348)"><mask id="bn" fill="#fff"><use xlink:href="#bm"/></mask><path fill="#8F2C01" d="M2.897-4.285h-9.67l-4.834 8.357 4.834 8.356h9.67l4.834-8.356z" mask="url(#bn)"/></g><g transform="translate(17.6 30.348)"><mask id="bp" fill="#fff"><use xlink:href="#bo"/></mask><path fill="#9D3501" d="M17.4 20.785H7.733L2.897 29.14l4.835 8.356H17.4l4.834-8.356z" mask="url(#bp)"/></g><g transform="translate(17.6 30.348)"><mask id="br" fill="#fff"><use xlink:href="#bq"/></mask><path fill="#9D3501" d="M17.4 4.072H7.733l-4.835 8.357 4.835 8.356H17.4l4.834-8.356z" mask="url(#br)"/></g><g transform="translate(17.6 30.348)"><mask id="bt" fill="#fff"><use xlink:href="#bs"/></mask><path fill="#B24006" d="M2.897 12.428h-9.67l-4.834 8.356 4.834 8.357h9.67l4.834-8.357z" mask="url(#bt)"/></g><g transform="translate(17.6 30.348)"><mask id="bv" fill="#fff"><use xlink:href="#bu"/></mask><path fill="#9D3501" d="M17.4 37.497H7.733l-4.835 8.356 4.835 8.357H17.4l4.834-8.357z" mask="url(#bv)"/></g><g transform="translate(17.6 30.348)"><mask id="bx" fill="#fff"><use xlink:href="#bw"/></mask><path fill="#8F2C01" d="M17.4 20.785H7.733L2.897 29.14l4.835 8.356H17.4l4.834-8.356z" mask="url(#bx)"/></g><g transform="translate(17.6 30.348)"><mask id="bz" fill="#fff"><use xlink:href="#by"/></mask><path fill="#9D3501" d="M2.897 29.14h-9.67l-4.834 8.357 4.834 8.356h9.67l4.834-8.356z" mask="url(#bz)"/></g><g transform="translate(17.6 30.348)"><mask id="bB" fill="#fff"><use xlink:href="#bA"/></mask><path fill="#9D3501" d="M17.4 54.21H7.733l-4.835 8.356 4.835 8.356H17.4l4.834-8.356z" mask="url(#bB)"/></g><g transform="translate(17.6 30.348)"><mask id="bD" fill="#fff"><use xlink:href="#bC"/></mask><path fill="#B24006" d="M17.4 37.497H7.733l-4.835 8.356 4.835 8.357H17.4l4.834-8.357z" mask="url(#bD)"/></g><g transform="translate(17.6 30.348)"><mask id="bF" fill="#fff"><use xlink:href="#bE"/></mask><path fill="#8F2C01" d="M2.897 45.853h-9.67l-4.834 8.357 4.834 8.356h9.67l4.834-8.356z" mask="url(#bF)"/></g></g></svg>