<svg xmlns="http://www.w3.org/2000/svg" width="59.3" height="118.168"><g fill-rule="evenodd" stroke-miterlimit="10" data-paper-data="{&quot;isPaintingLayer&quot;:true}" style="mix-blend-mode:normal"><path fill="#343434" d="m26.358 113.21-.507 3.19h-.61l-.136-.86c-1.187.728-2.613 1.154-3.877 1.758-1.24.521-2.871 1.505-3.982.268-1.468-1.759 1.184-4.085 2.896-5.145l5.846.173c.052.203.355.406.366.61z"/><path fill="#9e703f" d="M17.884 115.372s.435-1.882 2.395-2.82h5.812s-4.104 4.1-8.207 2.82" data-paper-data="{&quot;origPos&quot;:null}"/><path fill="#343434" d="M33.933 112.421c1.714 1.061 4.365 3.386 2.899 5.145-1.11 1.241-2.737.261-3.977-.266-1.265-.598-2.696-1.033-3.88-1.76l-.134.858h-.612l-.51-3.19.008-.003c.012-.205.315-.408.362-.61l5.844-.174"/><path fill="#9e703f" d="M36.196 115.372c-4.104 1.28-8.21-2.82-8.21-2.82h5.816c1.958 1.02 2.395 2.82 2.395 2.82" data-paper-data="{&quot;origPos&quot;:null}"/><path fill="#9e703f" d="m38.856 87.74-4.948 24.891H28.05l-.874-18.047H26.9l-.875 18.047H20.17l-4.947-24.89h14.862z" data-paper-data="{&quot;origPos&quot;:null}"/><path fill="#343434" d="m38.856 87.74-1.188 15.82-21.256.016-1.188-15.836h14.862z"/><path fill="#343434" d="M15.225 82.948h23.444v5.306H15.226z"/><path fill="#3a290f" d="M.001 54.362c7.772 12.05 18.136 1.995 14.612-8.66-2.56-7.737 11.332 2.516 11.332 2.516s-8.135 22.42-15.19 22.751C3.695 71.303-.022 60.332 0 54.362" data-paper-data="{&quot;origPos&quot;:null}"/><path fill="#9e703f" d="M4.875 81.685c.238-2.239 1.694-3.925 3.254-3.756.834.09 1.53.69 1.96 1.578.46.464.847.993 1.15 1.57.873 1.652.967 3.322.202 3.732-.41.214-.982.025-1.563-.453-.615 1.108-1.591 1.79-2.61 1.682-1.555-.163-2.632-2.115-2.393-4.353m47.37-35.187c.55-.11 1.147.313 1.65 1.066 1.11-1.066 2.48-1.51 3.62-1.025 1.752.74 2.309 3.378 1.245 5.892-1.063 2.514-3.348 3.948-5.1 3.208-.941-.4-1.534-1.34-1.717-2.522-.336-.61-.612-1.373-.777-2.226-.43-2.227.05-4.197 1.08-4.393" data-paper-data="{&quot;origPos&quot;:null}"/><path fill="#0771b7" d="M56.602 56.17s-4.196 8.798-7.037 9.827c-2.045.74-8.676-1.776-10.116-2.34 1.476 5.761.5 12.247.64 17.903.102 3.791 1.503 6.437 1.503 6.437H31.09c-3.182-.425-4.136-4.328-4.136-4.328s-.86 3.985-4.467 4.328H12.61s1.383-2.65 1.46-6.434c.104-5.118-.974-10.583.217-16.05-.225.435-.585 1-1.17 1.832-1.62 2.288-2.847 11.961-2.847 11.961l-4.54.005s1.335-13.394 4.823-17.844c1.697-2.172 7.822-5.379 7.822-5.379a.05.05 0 0 0-.004.01c1.956-1.237 6.974-1.453 6.974-1.453l1.665.072h.145l1.669-.057s5.118.181 7.03 1.448c-.007-.012-.007-.02-.007-.02l11.062 4.023 5.148-6.18z"/><path fill="#f7b90b" d="M36.274 67.29a.567.567 0 1 1-1.133.004.567.567 0 0 1 1.133-.004"/><path fill="#f7b90b" d="M35.32 66.3c-.098.197-.318.6-.175 1.002-1.6 0-2.9-.24-2.906-1.002h3.082m.768 0c.1.205.323.6.177 1.002 1.603 0 2.9-.238 2.903-1.002h-3.08m14.946-11.138.73-.877 4.54 2.482c-.135.264-.31.606-.511.995l-4.758-2.6zm-.45.536 4.885 2.668c-.175.332-.357.66-.545.984l-5.07-2.778.73-.875zm-44.412 20.2c.05-.31.109-.684.174-1.12h4.625c-.066.436-.13.81-.19 1.12h-4.61m-.252 1.805c.043-.31.092-.68.15-1.117h4.6c-.065.437-.126.807-.177 1.117H5.92"/><path fill="#fff" d="m27.617 72.153-.502.752-.714-1.039-1.834-4.163-2.133-12.778c1.564-.229 2.912-.28 2.912-.28l1.665.073h.145l1.669-.057c1.062.04 2.12.137 3.172.29l-2.403 12.75-1.978 4.452z"/><path fill="#e63744" d="M25.02 64.62c-1.01-3.709 1.024-6.996 1.024-6.996a8.877 8.877 0 0 1-.83-.783l1.87-1.623 2.07 1.623s-.404.46-.892.783c0 0 1.924 3.7.893 7.001-.45 1.43-.893 5.914-.893 5.914l-1.16 2.335-1.168-2.205s-.512-4.572-.913-6.05"/><path fill="#fff" d="M27.088 54.804c0 1.196-3.363 3.698-3.363 3.698l-.025-.063c-.222.195-.466.305-.77.252-.5-.083-.362-.329-.608-.687-.275-.36-.523-.458-.663-.956-.16-.635-.163-1.314-.112-1.955 1.908-.35 3.798-.407 3.798-.407l1.667.118h.076"/><path fill="#666767" d="M21.573 55.098c-.053.76-.02 1.392.12 1.931.09.337.238.492.412.673.076.083.16.171.244.278.082.124.124.232.159.326.07.187.114.3.425.352.27.046.506-.03.746-.242l.02-.017.027.047c.272-.203 3.282-2.445 3.333-3.642h-.047l-1.67-.102s-1.887.055-3.77.396m1.509 3.633a.84.84 0 0 1-.156-.012c-.348-.057-.405-.204-.478-.39a.982.982 0 0 0-.148-.308c-.084-.112-.163-.193-.238-.277-.18-.183-.33-.349-.43-.697-.138-.555-.176-1.202-.117-1.977l.006-.026h.018c1.252-.22 2.516-.36 3.786-.417l1.688.09h.106c0 1.246-3.238 3.664-3.376 3.764l-.02.018-.022-.02c-.202.17-.4.252-.62.252"/><path fill="#fff" d="M32.238 57.256c-.3.824-.795 1.21-1.651 1.21l-.074.033s-3.367-2.498-3.367-3.696h.01l1.67-.1s1.824.013 3.704.34c.21.677-.065 1.605-.292 2.213"/><path fill="#666767" d="M27.176 54.748c.054 1.191 3.14 3.524 3.344 3.678l.06-.008c.843-.002 1.33-.354 1.634-1.175.343-.926.443-1.658.29-2.174a30.353 30.353 0 0 0-3.662-.38l-1.665.06zm3.328 3.744-.008-.01c-.14-.1-3.376-2.519-3.376-3.765h.035l1.667-.072c.02 0 1.856.05 3.715.37h.018l.006.015c.163.535.067 1.287-.292 2.24-.307.833-.826 1.205-1.682 1.205z"/><path fill="#0b4768" d="M27.135 72.912c-3.94-2.586-6.333-11.49-6.333-11.49l1.063-2.05-2.092-.536-.514-3.174c1.109-.418 2.58-.674 3.8-.828.939 5.198 4.076 18.08 4.076 18.08"/><path fill="#0b4768" d="M27.092 72.913s3.135-12.88 4.077-18.079c1.218.154 2.694.41 3.802.828l-.52 3.174-2.09.535 1.067 2.051s-2.392 8.904-6.336 11.49"/><path fill="#f7b90b" d="M27.815 75.944a.604.604 0 0 1-1.206 0 .603.603 0 1 1 1.206 0m0 2.673a.603.603 0 1 1-1.206 0 .603.603 0 0 1 1.206 0m0 2.734a.607.607 0 0 1-.604.604.605.605 0 0 1-.602-.604.604.604 0 0 1 1.206 0"/><path fill="#9e703f" d="M48.453 35.154c1.104.712 1.83 1.926 1.83 3.303 0 2.19-1.846 3.971-4.128 3.971-.063 0-.126-.005-.19-.005-3.701 6.623-10.776 11.1-18.901 11.1-8.14 0-15.22-4.485-18.914-11.122a4.383 4.383 0 0 1-.46.027c-2.281 0-4.133-1.78-4.133-3.97 0-1.485.846-2.773 2.094-3.46a22.04 22.04 0 0 1-.217-3.1c0-11.942 9.684-21.622 21.63-21.622s21.63 9.681 21.63 21.622c0 1.107-.085 2.19-.241 3.256" data-paper-data="{&quot;origPos&quot;:null}"/><path fill="#3a290f" d="M21.035 30.994c-.772-.174-.908-1.2-3.386-.74-.78.18-2.417 1.156-2.732 1.808-.316.652-.088-2.392 2.457-3.522 1.835-.675 2.457-.642 3.977-.642s1.987.907 1.766 1.65c0 0-.503 1.803-2.082 1.446zm13.905 0c.772-.174.908-1.2 3.386-.74.779.18 2.417 1.156 2.732 1.808.316.652.087-2.392-2.457-3.522-1.835-.675-2.457-.642-3.977-.642s-1.987.907-1.766 1.65c0 0 .503 1.803 2.082 1.446zM20.806 36.898c0 1.657-.895 3-2 3s-2-1.343-2-3 .895-3 2-3 2 1.343 2 3m18 0c0 1.657-.895 3-2 3s-2-1.343-2-3 .895-3 2-3 2 1.343 2 3" data-paper-data="{&quot;origPos&quot;:null}"/><path fill="#eeac6c" d="M27.826 39.967c-1.125.153-3.02 1.834-3.02 1.834s.207-1.009.503-1.299c.8-1.156 2.487-1.604 2.487-1.604s2.173.703 2.65 1.588c.443.824.34 1.238.34 1.238s-2.121-1.87-2.96-1.756zM21.006 43.594s6.897 3.208 13.172-.397c0 0-1.39 5.47-5.95 5.561-4.115.122-4.984-1.492-5.477-1.956-.492-.463-1.42-1.772-1.745-3.208"/><path fill="#3a290f" d="M49.548 29.08c.034 2.541-1.096 6.074-1.096 6.074s-5.742-6.799-9.25-8.707c-4.284-2.328-6.416 1.105-10.246-1.918-.636-.502-1.816-1.826-1.816-1.826s-1.44 1.454-1.822 1.826c-4.306 4.211-7.531-.706-11.154 1.841-4.61 3.236-8.51 8.628-8.51 8.628s-1.34-1.532-1.153-6.157c.053-1.33.696-4.285 1.753-7.292C10.06 13.916 17.946 8.67 27.063 8.67c10.47 0 19.323 6.925 22.228 16.436a43.45 43.45 0 0 1 .257 3.974" data-paper-data="{&quot;origPos&quot;:null}"/><path fill="#9e703f" d="M25.374 56.114c-1.015 0-1.83-2.122-1.83-3.132h7.192c0 1.01-.816 3.132-1.83 3.132h-3.532" data-paper-data="{&quot;origPos&quot;:null}"/><path fill="#eeac6c" d="M24.316 55.334c-.41-.613-.69-1.473-.756-2.093 1.137.19 2.31.283 3.503.283 1.247 0 2.47-.109 3.66-.309l-.01.014-6.397 2.105"/><path fill="#0771b7" d="M22.3.291c2.786.984 7.017 9.5 7.017 9.5L7.455 20.358S3.138 11.645 4.364 8.96C6.43 4.426 17.604-1.372 22.3.291"/><path fill="#f7b90b" d="M18.063 12.268a.847.847 0 1 1-1.553.674.847.847 0 0 1 1.553-.675"/><path fill="#f7b90b" d="m16.168 11.475-4.225 1.833c.46 1.04 2.385.6 4.58-.354-.438-.458-.371-1.146-.355-1.479m1.05-.454 4.224-1.832c.452 1.053-1.19 2.152-3.383 3.1-.04-.635-.582-1.052-.84-1.268"/><path fill="#04476b" d="M5.92 10.213s-.028-.01-.032-.028c-.002-.015.006-.033.026-.035 4.065-.923 14.26-4.873 15.547-8.357 0-.017.02-.025.04-.02.013.006.023.026.019.042-.712 1.918-3.998 3.842-6.633 5.115-3.353 1.623-6.917 2.817-8.961 3.283z"/></g></svg>