<svg version="1.1" xmlns="http://www.w3.org/2000/svg" xmlns:xlink="http://www.w3.org/1999/xlink" width="93.11267" height="117.66997" viewBox="0,0,93.11267,117.66997"><g transform="translate(-193.90997,-121.633)"><g data-paper-data="{&quot;isPaintingLayer&quot;:true}" fill-rule="evenodd" stroke="none" stroke-width="1" stroke-linecap="butt" stroke-linejoin="miter" stroke-miterlimit="10" stroke-dasharray="" stroke-dashoffset="0" style="mix-blend-mode: normal"><path d="M251.635,178.277c1.427,-3.058 4.806,-7.35 4.931,-11.29c0.236,-7.393 1.624,-10.69 2.754,-14.086c0.162,-0.484 1.33,-0.571 2.65,-0.181l0.01,0.004c1.319,0.388 2.271,1.112 2.132,1.598l-7.75,26.562c-0.147,0.491 -1.336,0.573 -2.657,0.183l-0.006,-0.004c-1.324,-0.389 -2.514,-1.829 -2.064,-2.785" fill="#81461d"/><path d="M263.924,178.823l-3.754,9.837l-6.334,-1.677l-0.04,-5.1l5.326,-16.665l3.195,3.87z" fill="#b75f22"/><path d="M285.114,169.13c3.62,4.736 3.18,17.517 -11.096,15.78c-19.168,-2.33 -14.832,-27.402 -13.852,-31.12c1.019,-3.853 6.545,-4.882 8.978,-0.074c2.43,4.809 5.447,8.253 6.798,9c1.354,0.737 6.889,3.415 9.172,6.415" fill="#b75f22"/><path d="M266.348,179.661c-0.055,-7.128 5.321,-12.947 12.016,-13c2.202,-0.018 4.287,0.59 6.073,1.683c0.249,0.252 0.476,0.515 0.676,0.787c3.623,4.735 3.183,17.516 -11.096,15.779c-3.007,-0.364 -5.438,-1.289 -7.394,-2.602c-0.17566,-0.87158 -0.26774,-1.75793 -0.275,-2.647" fill="#f4d2b2"/><path d="M266.403,157.608c-0.121,-0.874 0.302,-1.649 0.945,-1.737c0.634,-0.087 1.252,0.543 1.367,1.417c0.115,0.873 -0.307,1.654 -0.945,1.74c-0.635,0.09 -1.248,-0.545 -1.367,-1.42" fill="#ffffff"/><path d="M266.902,157.982c0.075,0.54 0.453,0.934 0.85,0.875c0.396,-0.05 0.657,-0.532 0.584,-1.071c-0.076,-0.54 -0.455,-0.93 -0.854,-0.878c-0.392,0.055 -0.649,0.537 -0.58,1.074M269.15,155.262c-1.233,-0.554 -2.97,-0.769 -2.97,-0.769c-0.244,-0.35 -0.154,-1.008 0.105,-1.08c0.82,-0.236 2.865,1.849 2.865,1.849" fill="#81461d"/><path d="M261.664,158.231c-0.121,-0.874 0.304,-1.649 0.944,-1.742c0.641,-0.082 1.254,0.554 1.371,1.422c0.117,0.871 -0.303,1.653 -0.945,1.743c-0.637,0.086 -1.249,-0.554 -1.37,-1.424" fill="#ffffff"/><path d="M262.165,158.603c0.074,0.543 0.453,0.932 0.85,0.886c0.396,-0.053 0.657,-0.539 0.584,-1.08c-0.075,-0.541 -0.453,-0.93 -0.853,-0.88c-0.393,0.057 -0.654,0.535 -0.58,1.074M260.704,156.395c1.044,-0.87 2.659,-1.544 2.659,-1.544c0.142,-0.4 -0.117,-1.01 -0.386,-1.014c-0.85,-0.002 -2.273,2.558 -2.273,2.558M278.44,172.404c0,0 3.42,-0.04 3.641,-0.964c0.163,-0.653 0,-0.98 -0.636,-1.301c-0.835,-0.43 -3.006,2.265 -3.006,2.265M277.78,172.402c0,0 -3.421,0.059 -3.67,-0.857c-0.183,-0.646 -0.029,-0.977 0.59,-1.32c0.83,-0.45 3.08,2.177 3.08,2.177M278.185,183.816c-4.554,0.036 -4.59,-4.522 -4.59,-4.522c0,0 4.575,3.036 9.106,-0.075c0,0 0.035,4.557 -4.516,4.597" fill="#81461d"/><path d="M271.227,151.22c-1.02894,1.02955 -2.42644,1.60554 -3.882,1.6c0.00784,-1.46438 0.5962,-2.86585 1.636,-3.897c1.02616,-1.03272 2.42416,-1.60994 3.88,-1.602c-0.00525,1.46509 -0.59314,2.86791 -1.634,3.899" fill="#b75f22"/><path d="M270.77,150.747c-0.60725,0.6089 -1.43306,0.94924 -2.293,0.945c0.006,-0.833 0.327,-1.67 0.96,-2.303c0.60898,-0.60682 1.43532,-0.94492 2.295,-0.939c-0.00558,0.86249 -0.35129,1.68794 -0.962,2.297" fill="#81461d"/><path d="M257.407,152.309c-1.12198,-0.93657 -1.82505,-2.28119 -1.954,-3.737c1.44915,-0.1323 2.89089,0.32151 4.003,1.26c1.11994,0.94125 1.82144,2.2878 1.951,3.745c-1.44941,0.13228 -2.89107,-0.32436 -4,-1.267" fill="#b75f22"/><path d="M257.827,151.802c-0.66283,-0.55307 -1.07839,-1.34713 -1.155,-2.207c0.85637,-0.08068 1.70906,0.18757 2.365,0.744c0.65845,0.55741 1.07382,1.34942 1.158,2.208c-0.85729,0.07916 -1.71046,-0.18925 -2.368,-0.745M267.894,150.426c0.07,0.364 -0.09,0.724 -0.39,0.914c0.1647,0.14356 0.27635,0.33833 0.317,0.553c0.10291,0.47094 -0.14272,0.94869 -0.5856,1.13903c-0.44289,0.19033 -0.95854,0.03974 -1.2294,-0.35903c-0.21999,0.06584 -0.45735,0.03874 -0.65684,-0.07499c-0.19949,-0.11373 -0.34373,-0.30417 -0.39916,-0.52701c-0.253,-0.005 -0.495,-0.11 -0.676,-0.28c-0.19544,0.32523 -0.51959,0.55235 -0.892,0.625c-0.206,0.04 -0.411,0.036 -0.601,-0.017c-0.16276,0.24404 -0.4155,0.41374 -0.703,0.472c-0.2911,0.05945 -0.59388,-0.00061 -0.84025,-0.16667c-0.24637,-0.16606 -0.41564,-0.42419 -0.46975,-0.71633c-0.128,-0.61 0.267,-1.204 0.87,-1.33l0.175,-0.019c0.14968,-0.47167 0.54309,-0.82528 1.028,-0.924c0.19469,-0.04341 0.3969,-0.03999 0.59,0.01c-0.07363,-0.40595 0.18705,-0.79741 0.59,-0.886c0.19674,-0.03996 0.4013,0.0003 0.56822,0.11183c0.16693,0.11153 0.2824,0.28511 0.32078,0.48217c0.013,0.031 0.013,0.056 0.015,0.086c0.09989,-0.07983 0.21813,-0.13345 0.344,-0.156c0.45866,-0.08856 0.90229,0.21137 0.991,0.67c0,0.004 0,0.023 0.004,0.038c0.04088,-0.02749 0.08528,-0.04935 0.132,-0.065c0.12577,-0.13646 0.29061,-0.23076 0.472,-0.27c0.47342,-0.09063 0.93139,0.21736 1.026,0.69M254.541,227.287c-0.471,-6.602 -0.853,-19.857 -1.331,-26.459c-0.07068,-0.97222 0.65631,-1.81934 1.628,-1.897l0.367,-0.027c0.46659,-0.0324 0.92692,0.12203 1.27956,0.42928c0.35264,0.30725 0.56865,0.74209 0.60044,1.20872c0.478,6.602 2,19.774 2.477,26.377c0.069,0.978 -1.231,1.865 -2.195,1.938l-0.372,0.026c-0.968,0.071 -2.381,-0.617 -2.454,-1.596M224.079,226.898c0.129,-6.621 0.966,-19.851 1.093,-26.471c0.00709,-0.46839 0.20041,-0.91467 0.53723,-1.24023c0.33682,-0.32556 0.78941,-0.5036 1.25777,-0.49477l0.371,0.004c0.46788,0.01049 0.91242,0.20648 1.23576,0.54482c0.32334,0.33834 0.49897,0.79131 0.48824,1.25918c-0.133,6.626 0.175,19.88 0.042,26.499c-0.021,0.979 -1.392,1.746 -2.365,1.727l-0.367,-0.008c-0.975,-0.02 -2.316,-0.845 -2.293,-1.82M219.153,188.99c0,0 -0.612,-2.613 -1.202,-3.24c-7.939,-8.413 -12.05,-0.122 -10.986,2.561c4.152,10.508 -2.318,12.9 -2.318,12.9c4.668,1.497 8.684,-2.855 9.27,-5.499c0.61,-2.716 0.207,-8.223 3.072,-7.612c0.776,0.163 1.006,3.06 1.006,3.06z" fill="#81461d"/><path d="M216.758,190.556c-0.052,-6.423 4.155,-7.606 7.74,-6.796c3.49,0.792 5.854,2.113 8.946,2.013c5.596,-0.181 16.227,-4.777 20.81,-4.544c5.239,0.27 6.025,4.171 5.917,8.978c-0.32,14.49 -11.883,20.404 -23.873,20.5c-11.99,0.095 -19.471,-11.141 -19.54,-20.151" fill="#b75f22"/><path d="M247.966,233.459c-0.052,-6.617 0.416,-19.866 0.366,-26.489c-0.00587,-0.46723 0.17419,-0.91763 0.50054,-1.25205c0.32635,-0.33441 0.77223,-0.52542 1.23946,-0.53095l0.372,-0.004c0.97256,-0.00223 1.7643,0.78147 1.772,1.754c0.052,6.624 0.726,19.864 0.776,26.484c0.008,0.979 -1.34,1.79 -2.312,1.8l-0.374,0.002c-0.97,0.008 -2.331,-0.784 -2.34,-1.764M218.319,232.521c-0.05,-6.623 0.359,-26.421 0.307,-33.038c-0.007,-0.983 0.777,-1.802 1.747,-1.81l0.371,-0.002c0.966,-0.009 1.761,0.796 1.77,1.778c0.05,6.62 0.778,26.41 0.83,33.03c0.008,0.985 -1.344,1.794 -2.312,1.8l-0.371,0.004c-0.971,0.008 -2.334,-0.779 -2.342,-1.762" fill="#b75f22"/><path d="M252.98,232.157c0.006,0.438 0.01,0.868 0.012,1.266c0.009,0.976 -1.341,1.787 -2.314,1.797l-0.371,0.003c-0.97,0.008 -2.332,-0.784 -2.34,-1.765c-0.004,-0.4 -0.006,-0.831 -0.006,-1.278c1.219,0.245 3.276,0.506 5.019,-0.023M223.33,231.201c0.007,0.466 0.013,0.895 0.015,1.278c0.009,0.985 -1.346,1.794 -2.314,1.8l-0.37,0.004c-0.97,0.009 -2.333,-0.779 -2.341,-1.762c-0.002,-0.377 -0.002,-0.808 -0.006,-1.271c1.245,0.246 3.293,0.494 5.017,-0.049M229.125,225.68c-0.009,0.467 -0.015,0.907 -0.021,1.32c-0.02,0.978 -1.392,1.744 -2.365,1.725l-0.367,-0.008c-0.975,-0.017 -2.316,-0.844 -2.293,-1.819c0.004,-0.419 0.02,-0.86 0.03,-1.324c1.12,0.25 3.2,0.577 5.016,0.105M259.467,225.737c0.038,0.41 0.063,0.812 0.096,1.183c0.069,0.977 -1.231,1.863 -2.198,1.937l-0.371,0.025c-0.966,0.071 -2.38,-0.617 -2.452,-1.596c-0.027,-0.436 -0.06,-0.893 -0.088,-1.373c1.125,0.186 3.229,0.394 5.013,-0.176" fill="#373737"/><path d="M214.778,181.363c-1.513,0.612 27.443,0.343 25.958,-0.232c2.683,10.179 3.107,25.539 3.107,25.539h0.008c0,0 0.693,14.926 -1.771,15.83l-9.896,-13.698c-3.349,-0.365 -4.384,-4.548 -4.384,-4.548c0,0 -0.866,4.2 -4.656,4.62l-9.02,13.85c-2.381,-0.817 -2.05,-15.785 -2.05,-15.785c0,0 0.186,-15.36 2.703,-25.575" fill="#333433"/><path d="M240.328,206.724l-1.824,17.15l-9.671,0.077l-0.716,-9.815l-0.288,0.002l-0.563,9.823l-9.667,0.08l-2.096,-17.117z" fill="#eeeeed"/><path d="M238.361,233.237c1.809,1.105 3.137,3.376 1.609,5.252c-1.154,1.322 -2.876,0.289 -4.178,-0.25c-1.448,-0.68 -3.095,-1.152 -4.405,-2.038c-0.845,-0.59 -1.841,-1.219 -2.415,-2.095c-0.177,-0.271 -0.263,-0.526 -0.204,-0.794h0.008l-0.092,-11.595l10.053,-0.082l-0.366,11.602h-0.01M227.459,233.321c0.067,0.196 -0.015,0.522 -0.185,0.798c-0.562,0.886 -1.547,1.53 -2.38,2.13c-1.298,0.91 -2.936,1.411 -4.37,2.114c-1.302,0.564 -3.007,1.622 -4.18,0.312c-1.557,-1.851 -0.269,-4.137 1.52,-5.276h-0.007l-0.546,-11.594l10.071,-0.08l0.09,11.596z" fill="#343434"/><path d="M236.902,206.75l-17.138,0.137l8.396,-4.985z" fill="#d0d0d0"/><path d="M201.29,163.389c1.08,0.204 1.604,2.288 1.17,4.646c-0.169,0.908 -0.451,1.72 -0.794,2.366c-0.183,1.253 -0.805,2.262 -1.79,2.693c-1.834,0.8 -4.238,-0.714 -5.376,-3.36c-1.139,-2.659 -0.58,-5.457 1.255,-6.253c1.195,-0.526 2.637,-0.061 3.81,1.058c0.518,-0.81 1.146,-1.255 1.725,-1.15M251.247,200.27c0.27,2.362 -0.834,4.429 -2.47,4.615c-1.062,0.126 -2.089,-0.588 -2.747,-1.752c-0.605,0.512 -1.195,0.71 -1.627,0.488c-0.806,-0.418 -0.723,-2.187 0.183,-3.942c0.30927,-0.61304 0.70909,-1.17602 1.186,-1.67c0.0402,-0.08045 0.08255,-0.15982 0.127,-0.238l4.431,-0.027c0.478,0.673 0.803,1.528 0.918,2.526" fill="#eeeeed"/><path d="M196.799,173.676l4.746,-2.41l5.464,6.505l11.584,-4.352l-0.01,0.02c1.999,-1.36 7.371,-1.602 7.371,-1.602l1.757,0.044l0.149,-0.002l1.75,-0.084c0,0 5.272,0.186 7.332,1.486v-0.009c0,0 6.459,3.348 8.258,5.63c3.702,4.686 5.215,18.874 5.215,18.874l-4.766,0.031c0,0 -1.371,-10.242 -3.087,-12.648c-0.628,-0.878 -1.006,-1.47 -1.246,-1.937c2.256,10.071 2.632,23.578 2.632,23.578l0.052,2.05l-11.09,0.09c-3.8,-0.365 -4.727,-4.545 -4.727,-4.545c0,0 -0.977,4.132 -4.31,4.616l-11.753,0.095l0.048,-2.042h0.012c0,0 0.182,-15.377 2.694,-25.597c-1.51,0.614 -8.46,3.336 -10.61,2.57c-2.992,-1.07 -7.464,-10.36 -7.464,-10.36z" fill="#333433"/><path d="M228.388,190.268l-0.52,0.8l-0.76,-1.088l-1.958,-4.403l-2.35,-13.524c1.645,-0.261 3.053,-0.334 3.053,-0.334l1.758,0.048l0.144,-0.002l1.755,-0.057c0,0 1.569,0.044 3.335,0.297l-2.417,13.53l-2.039,4.733z" fill="#ffffff"/><path d="M229.954,181.763c0.04,1.612 -0.905,6.391 -0.905,6.391l-1.18,2.889l-1.252,-3.009c0,0 -0.968,-4.654 -0.981,-6.234c-0.006,-1.503 0.883,-5.945 0.883,-5.945c-0.507,-0.339 -0.95,-2.261 -0.95,-2.261l2.152,-1.737l1.975,1.703c0,0 -0.389,1.885 -0.85,2.278c0,0 1.075,4.413 1.108,5.925" fill="#d0d0d0"/><path d="M227.688,171.804c0.008,1.313 -3.504,3.985 -3.504,3.985l-0.025,-0.021c-0.23,0.204 -0.49,0.332 -0.81,0.272c-0.522,-0.085 -0.38,-0.346 -0.643,-0.727c-0.288,-0.374 -0.553,-0.486 -0.703,-1.01c-0.174,-0.676 -0.184,-1.402 -0.134,-2.084c2.004,-0.386 3.984,-0.483 3.984,-0.483l1.758,0.068h0.077" fill="#ffffff"/><path d="M221.894,172.244c-0.048,0.81 -0.007,1.475 0.146,2.048c0.098,0.358 0.252,0.52 0.434,0.714c0.081,0.086 0.173,0.174 0.26,0.286c0.09,0.135 0.136,0.248 0.168,0.345c0.077,0.196 0.127,0.316 0.455,0.369c0.28,0.05 0.53,-0.034 0.782,-0.261l0.015,-0.021l0.035,0.025c0.282,-0.217 3.423,-2.672 3.471,-3.916h-0.05l-1.755,-0.072c-0.017,0.005 -1.983,0.106 -3.961,0.483M223.511,176.086c-0.052,0 -0.108,-0.002 -0.165,-0.01c-0.37,-0.06 -0.428,-0.218 -0.503,-0.411c-0.03873,-0.11618 -0.09253,-0.22679 -0.16,-0.329c-0.09,-0.111 -0.176,-0.2 -0.253,-0.29c-0.19,-0.192 -0.346,-0.367 -0.457,-0.737c-0.148,-0.583 -0.194,-1.268 -0.138,-2.09l0.004,-0.028l0.021,-0.002c1.31954,-0.24526 2.65315,-0.40758 3.993,-0.486l1.757,0.063l0.115,-0.002v0.037c0.008,1.314 -3.377,3.906 -3.519,4.015l-0.02,0.013l-0.024,-0.017c-0.215,0.183 -0.423,0.272 -0.65,0.274" fill="#666767"/><path d="M233.119,174.441c-0.311,0.876 -0.828,1.272 -1.726,1.278l-0.077,0.013c0,0 -3.562,-2.617 -3.57,-3.931h0.01l1.755,-0.082c0,0 1.914,0.042 3.896,0.377c0.223,0.718 -0.058,1.705 -0.287,2.345" fill="#ffffff"/><path d="M227.78,171.83c0.062,1.26 3.324,3.708 3.54,3.872l0.068,-0.013c0.885,-0.01 1.392,-0.387 1.701,-1.258c0.357,-0.984 0.457,-1.758 0.292,-2.304c-1.28097,-0.20761 -2.57398,-0.33254 -3.871,-0.374l-1.73,0.078zM231.303,175.767l-0.005,-0.006c-0.15,-0.112 -3.573,-2.644 -3.583,-3.958v-0.036l0.04,-0.002l1.753,-0.073c0.019,0 1.947,0.044 3.904,0.37h0.02l0.008,0.017c0.175,0.566 0.075,1.362 -0.29,2.375c-0.318,0.892 -0.856,1.292 -1.758,1.303l-0.09,0.01z" fill="#666767"/><path d="M227.89,191.083c-4.157,-2.708 -6.749,-12.13 -6.749,-12.13l1.097,-2.18l-2.204,-0.55l-0.563,-3.356c1.16,-0.454 2.707,-0.741 3.982,-0.911c1.033,5.495 4.437,19.126 4.437,19.126" fill="#4f4f4f"/><path d="M227.845,191.082c0,0 3.182,-13.682 4.13,-19.196c1.28,0.152 2.834,0.41 3.999,0.847l-0.514,3.367l-2.195,0.583l1.14,2.162c0,0 -2.447,9.463 -6.56,12.236" fill="#4f4f4f"/><path d="M228.627,194.287c0.00187,0.16876 -0.06353,0.33132 -0.18173,0.45178c-0.11821,0.12046 -0.2795,0.1889 -0.44827,0.19022c-0.1682,0.00135 -0.32989,-0.06494 -0.44874,-0.18397c-0.11885,-0.11903 -0.18488,-0.28083 -0.18326,-0.44903c-0.00321,-0.1674 0.06077,-0.32912 0.17765,-0.449c0.11688,-0.11989 0.27692,-0.18796 0.44435,-0.189c0.16857,-0.00187 0.33093,0.06359 0.45107,0.18185c0.12014,0.11826 0.18814,0.27957 0.18893,0.44815M228.65,197.122c0.00133,0.16841 -0.0643,0.33046 -0.18245,0.45048c-0.11815,0.12002 -0.27914,0.1882 -0.44755,0.18952c-0.16777,0.00134 -0.3291,-0.06451 -0.44801,-0.18286c-0.11891,-0.11835 -0.18553,-0.27936 -0.18499,-0.44714c-0.00321,-0.16787 0.06062,-0.3301 0.17736,-0.45078c0.11674,-0.12068 0.27676,-0.18986 0.44464,-0.19222c0.35075,-0.00002 0.63616,0.28227 0.64,0.633M228.672,200.017c0.00445,0.3527 -0.27731,0.64252 -0.63,0.648c-0.16849,0.00001 -0.33,-0.06727 -0.44867,-0.18687c-0.11867,-0.11961 -0.18466,-0.28165 -0.18333,-0.45013c-0.0024,-0.16717 0.06185,-0.32842 0.17855,-0.44813c0.11671,-0.11971 0.27627,-0.18803 0.44345,-0.18987c0.35,-0.002 0.638,0.28 0.64,0.627" fill="#f6b90c"/><path d="M250.119,150.866c1.173,0.749 1.955,2.035 1.965,3.5c0.02,2.331 -1.913,4.235 -4.32,4.255c-0.064,0 -0.133,-0.002 -0.2,-0.004c-3.84,7.069 -11.263,11.894 -19.82,11.962c-8.566,0.069 -16.072,-4.644 -20.022,-11.664c-0.158,0.022 -0.315,0.028 -0.482,0.03c-2.402,0.021 -4.364,-1.853 -4.382,-4.183c-0.013,-1.577 0.866,-2.962 2.174,-3.692c-0.165,-1.076 -0.252,-2.178 -0.261,-3.3c-0.1,-12.69 10.024,-23.066 22.611,-23.168c12.585,-0.101 22.868,10.112 22.967,22.804c0.01,1.18 -0.07,2.33 -0.23,3.46" data-paper-data="{&quot;origPos&quot;:null}" fill="#be936c"/><path d="M223.311,146.65c0,0 -0.503,1.803 -2.082,1.446c-0.772,-0.174 -0.908,-1.201 -3.386,-0.74c-0.779,0.18 -2.417,1.156 -2.732,1.808c-0.316,0.652 -0.088,-2.392 2.457,-3.522c1.835,-0.675 2.457,-0.642 3.977,-0.642c1.52,0 1.987,0.907 1.766,1.65M233.052,146.65c0,0 0.503,1.803 2.082,1.446c0.772,-0.174 0.908,-1.201 3.386,-0.74c0.779,0.18 2.417,1.156 2.732,1.808c0.316,0.652 0.087,-2.392 -2.457,-3.522c-1.835,-0.675 -2.457,-0.642 -3.977,-0.642c-1.52,0 -1.987,0.907 -1.766,1.65" data-paper-data="{&quot;origPos&quot;:null}" fill="#81461d"/><path d="M220.73851,154c0,1.657 -0.895,3 -2,3c-1.105,0 -2,-1.343 -2,-3c0,-1.657 0.895,-3 2,-3c1.105,0 2,1.343 2,3M238.73851,154c0,1.657 -0.895,3 -2,3c-1.105,0 -2,-1.343 -2,-3c0,-1.657 0.895,-3 2,-3c1.105,0 2,1.343 2,3" data-paper-data="{&quot;origPos&quot;:null}" fill="#6d3b18"/><path d="M228.02,157.069c-1.125,0.153 -3.02,1.834 -3.02,1.834c0,0 0.207,-1.009 0.503,-1.299c0.8,-1.156 2.487,-1.604 2.487,-1.604c0,0 2.173,0.703 2.65,1.588c0.443,0.824 0.34,1.238 0.34,1.238c0,0 -2.121,-1.871 -2.96,-1.756z" fill="#eeac6c"/><path d="M221.2,160.696c0,0 6.897,3.208 13.172,-0.397c0,0 -1.39,5.47 -5.95,5.561c-4.115,0.122 -4.984,-1.492 -5.477,-1.956c-0.492,-0.463 -1.42,-1.772 -1.745,-3.208" fill="#eeac6c"/><path d="M251.23,144.403c0.056,2.702 -0.835,8.55 -2.63,12.05c0,0 -4.581,-12.762 -8.292,-14.76c-4.535,-2.438 -16.397,1.225 -20.452,-1.95c-0.674,-0.534 -0.61,-1.734 -0.61,-1.734c0,0 -0.759,1.543 -1.13,1.97c-1.935,2.259 -6.981,5.548 -9.367,7.312c-1.928,1.417 -2.011,1.402 -1.525,9.492c0,0 -3.611,-7.336 -3.456,-12.25c0.048,-1.417 0.705,-4.558 1.788,-7.764c3.947,-8.15 12.215,-13.798 21.813,-13.874c11.031,-0.088 20.416,7.198 23.556,17.29c0.16674,1.4002 0.26852,2.80738 0.305,4.217" data-paper-data="{&quot;origPos&quot;:null}" fill="#81461d"/><path d="M225.984,173.228c-1.058,0.007 -1.945,-2.288 -1.953,-3.341l7.578,-0.061c0.008,1.053 -0.835,3.362 -1.904,3.369l-3.721,0.033" data-paper-data="{&quot;origPos&quot;:null}" fill="#be936c"/><path d="M224.935,172.505c-0.433,-0.653 -0.808,-1.541 -0.883,-2.198c2.50183,0.39278 5.05178,0.36371 7.544,-0.086l-0.011,0.012l-6.65,2.272" fill="#eeac6c"/><path d="M255.711,144.135l-55.983,0.449l-0.023,-2.701l55.983,-0.451z" fill="#1d1d1d"/><path d="M251.243,141.466l-47.161,0.38l-0.158,-19.834l47.165,-0.379z" fill="#333433"/></g></g></svg>