<svg xmlns="http://www.w3.org/2000/svg" width="117.695" height="99.979"><g fill-rule="evenodd" stroke-miterlimit="10" data-paper-data="{&quot;isPaintingLayer&quot;:true}" style="mix-blend-mode:normal"><path fill="#fefefe" d="M79.223 37.795a1.594 1.594 0 1 1-.067 3.187 1.594 1.594 0 0 1 .067-3.187"/><path fill="#b4b5b5" d="M.107 77.894c.088-.4.354-.753.72-1.093-.411.723 3.234.59 7.246-.383 4.04-.975 1.837-2.215 1.837-2.215v-.014c2.204.178 2.204 2.11 2.204 2.11-4.408 1.478-2.82 5.288-2.82 5.288C.476 81.216-.377 79.99.107 77.894"/><path fill="#c8c9c9" d="M.828 76.8c.015 0 .015-.014.015-.014 1.632-1.417 5.495-2.287 8.082-2.583.327-.041.657-.046.986-.015v.015s2.203 1.24-1.837 2.215c-4.012.974-7.658 1.106-7.246.383"/><path fill="#ceeafa" d="M37.056 86.782c-1.44 2.377-4.026 4.429-8.656 3.425-9.553-2.096-19.105-8.62-19.105-8.62s-1.59-3.81 2.82-5.288l2.69-.855s-2.558-38.727 29.204-37.65c-.456 9.05 1.498 15.532 3.41 18.795.027.06.042.103.087.149 6.203 12.977 19.12 15.028 29.144 16.12.337.046.69.076 1.03.106 5.23.368 10.553-.578 14.388-1.552.487 1.787 2.367 9.434 1.617 16.33 0 0-1.352 2.702-6.011 1.847l-5.748-7.385s-5.143 1.109-10.17 1.729c0 0 0 6.024-1.72 8.857 0 0-4.408 2.955-8.817 1.226 0 0-4.16-4.06-7.583-9.714l-.618-.99s-8.937-.487-14.213-1.963c0 0-.221 2.893-1.75 5.433"/><path fill="#b8daec" d="M38.805 81.349c5.276 1.476 14.213 1.963 14.213 1.963l.619.99s-.972 5.122-16.58 2.48c1.528-2.54 1.748-5.433 1.748-5.433"/><path fill="#b18247" d="M44.009 37.795c.132-2.603.441-5.193.925-7.753C47.389 16.754 57.794 13.8 57.794 13.8 59.75 5.918 75.183-6.381 98.578 3.955c23.4 10.335 18.74 31.86 18.74 31.86-.175-.441-.368-.87-.587-1.27-2.424-4.812-6.393-6.6-6.393-6.6 1.35 2.954.25 6.157.25 6.157-8.701-10.215-21.444-9.595-21.444-9.595 2.455 1.963 2.572 5.535 2.572 5.535-13.961-7.011-25.47-2.346-25.47-2.346-1.72 1.725-3.307 4.93-4.042 9.595-.735 4.68-3.057 5.67-3.791 1.359-.735-4.31-5.277-7.87-8.82-1.965-3.555 5.907 4.044 10.574 4.044 10.574l-.413.633-5.717 8.845c-.045-.044-.06-.088-.088-.148-1.911-3.263-3.865-9.744-3.41-18.794"/><path fill="#e9c9a1" stroke="#e9c9a1" stroke-width=".5" d="M53.386 47.996s14.079-1.844 20.692 4.682c6.51 6.42 4.6 17.392 3.6 20.286-.338-.03-.691-.058-1.03-.106-10.021-1.092-22.94-3.143-29.141-16.12l5.715-8.846z" data-paper-data="{&quot;origPos&quot;:null}"/><path fill="#e9c9a1" stroke="#e9c9a1" stroke-width=".5" d="M100.047 34.709c3.794-2.452 7.35-.976 7.35-.976-4.66-3.822-7.35.976-7.35.976m-.116 6.156c0 2.583 2.073 4.68 4.644 4.68 2.572 0 4.66-2.097 4.66-4.68 0-2.584-2.088-4.68-4.66-4.68-2.571 0-4.644 2.096-4.644 4.68m-9.686 25.1c5.32.104 6.969-1.95 7.379-2.614 1.277.074 2.557-.102 3.645-.59 3.556-1.595 3.924-6.644.984-8.86-1-.752-2.293-1.02-3.587-1.046-.174-.546-1.602-4.133-6.584-4.24-5.378-.117-8.818 3.694-9.053 8.24-.248 4.563.853 8.99 7.216 9.11m-8.45-31.256s-1.338-4.55-6.848-1.714c0 0 4.04-.738 6.848 1.714m-8.32 6.156c0 2.583 2.073 4.68 4.646 4.68 2.57 0 4.66-2.097 4.66-4.68 0-2.584-2.09-4.68-4.66-4.68-2.573 0-4.646 2.096-4.646 4.68m18.593 30.548c-3.835.973-9.156 1.92-14.39 1.55 1-2.893 2.91-13.865-3.6-20.286-6.613-6.526-20.692-4.68-20.692-4.68l-.164-.105.413-.633s-7.6-4.666-4.043-10.573c3.542-5.905 8.084-2.347 8.82 1.965.734 4.31 3.056 3.32 3.79-1.36.735-4.665 2.324-7.87 4.043-9.595 0 0 11.509-4.666 25.469 2.347 0 0-.116-3.574-2.572-5.537 0 0 12.745-.621 21.445 9.597 0 0 1.102-3.205-.25-6.157 0 0 3.968 1.786 6.392 6.6-.264.915-.998 3.588-.998 5.698 0 1.214.338 4.224.456 7.516h-.09c-.131 0-12.637 1.83-12.373 20.066-1.72.708-3.705 1.342-5.998 1.83 0 0-2.248.885-5.658 1.756" data-paper-data="{&quot;origPos&quot;:null}"/><path fill="#e9c9a1" d="M61.219 94.017c4.409 1.729 8.817-1.227 8.817-1.227s4.41 1.478 2.94 2.452c-1.47.989-3.306.134-4.41 1.846-1.1 1.727-3.791 3.204-6.113 2.834-2.336-.37-4.542-3.07-1.233-5.905" data-paper-data="{&quot;origPos&quot;:null}"/><path fill="#3f3a3a" d="M77.635 39.389a1.595 1.595 0 1 0 3.19 0 1.595 1.595 0 0 0-3.19 0m.486-3.204c2.572 0 4.66 2.096 4.66 4.68 0 2.583-2.088 4.68-4.66 4.68-2.574 0-4.644-2.097-4.644-4.68 0-2.584 2.07-4.68 4.644-4.68"/><path fill="#b18247" d="M74.946 32.995c5.51-2.834 6.85 1.714 6.85 1.714-2.81-2.452-6.85-1.714-6.85-1.714"/><path fill="#ceeafa" d="M83.029 56.855c.237-4.547 3.674-8.357 9.053-8.24 4.982.106 6.409 3.693 6.586 4.239-2.514-.06-4.984.81-4.984.81-3.924.977-4.408 3.929-2.938 6.395 1.014 1.699 3.983 3.116 6.877 3.292-.41.665-2.058 2.718-7.378 2.614-6.363-.118-7.464-4.547-7.216-9.11"/><path fill="#e9c9a1" d="M87.674 89.588c4.658.855 6.01-1.845 6.01-1.845 4.41-1.108 5.996 1.845 3.424 4.178-2.572 2.347-4.291.738-5.878.132-1.586-.62-3.556 1.478-4.408.856-.854-.62.852-3.32.852-3.32" data-paper-data="{&quot;origPos&quot;:null}"/><path fill="#ceeafa" d="M98.667 52.853c1.294.03 2.588.297 3.587 1.05 2.938 2.214 2.572 7.264-.986 8.858-1.086.488-2.365.664-3.645.59-2.895-.176-5.864-1.592-6.878-3.292-1.47-2.466-.984-5.418 2.94-6.394 0 0 2.469-.87 4.982-.811"/><path fill="#3f3a3a" d="M103.972 39.27a1.588 1.588 0 0 0 3.175 0c0-.885-.707-1.61-1.587-1.61-.881 0-1.588.725-1.588 1.61m.603-3.086c2.572 0 4.66 2.098 4.66 4.682 0 2.582-2.088 4.68-4.66 4.68s-4.644-2.098-4.644-4.68c0-2.584 2.072-4.682 4.644-4.682"/><path fill="#b18247" d="M107.398 33.733s-3.557-1.476-7.35.976c0 0 2.69-4.8 7.35-.976"/><path fill="#e9c9a1" stroke="#e9c9a1" stroke-width=".5" d="M116.097 47.76h.09c.148 3.764-.016 7.914-1.324 10.084-1.926 3.204-4.702 7.263-11.14 9.98-.265-18.233 12.243-20.065 12.375-20.065z" data-paper-data="{&quot;origPos&quot;:null}"/><path fill="#fefefe" d="M105.56 37.66c.88 0 1.588.725 1.588 1.61a1.588 1.588 0 0 1-3.175 0c0-.885.705-1.61 1.587-1.61"/><path fill="#da974c" d="M66.858 13.92C83.127 11.34 90.768 5.545 93.73 2.1a52.284 52.284 0 0 1 4.849 1.855c7.286 3.218 11.85 7.522 14.68 11.922-16.796 4.626-46.4-1.955-46.4-1.955"/><path fill="#c4a178" stroke="#c4a178" stroke-width=".5" d="M110.932 30.086a7.358 7.358 0 0 0-.595-2.14s2.377 1.08 4.574 3.795zm-.345 4.016s-10.807-6.791-20.053-7.97a5.967 5.967 0 0 0-1.392-1.626s12.745-.62 21.445 9.596" data-paper-data="{&quot;origPos&quot;:null}"/><path fill="#c2ddec" d="M83.029 56.855c.237-4.547 3.674-8.357 9.053-8.24 4.982.106 6.409 3.693 6.586 4.239-1.564-.038-3.107.287-4.053.534-3.47-5.216-8.953-1.876-10.365 2.858-1.47 4.92 4.163 6.643 4.652 1.967.22-2.085 1.46-3.14 2.768-3.67-1.994 1.34-2.083 3.57-.924 5.516 1.014 1.7 3.983 3.116 6.877 3.292-.41.665-2.057 2.718-7.378 2.613-6.363-.117-7.464-4.546-7.216-9.11"/><path fill="#fefefe" d="M102.376 56.737c0 1.23-2.205 2.462-4.165 2.214-1.958-.246-4.9-1.476-4.9-2.46 0-.985 2.205-2.215 5.144-2.215 2.94 0 3.92 2.46 3.92 2.46"/><path fill="#b8daec" d="M72.98 76.422c-9.554-.492-21.8-5.411-28.66-15.256-6.67-9.573-11.5-18.647-21.001-15.286 4.349-4.948 10.877-8.42 20.69-8.085-.456 9.05 1.498 15.53 3.408 18.794.03.06.044.104.09.148 6.2 12.979 19.12 15.03 29.143 16.12.338.048.69.076 1.029.107 5.233.37 10.553-.578 14.39-1.551v.007c-3.085 1.567-11.468 5.393-19.088 5.002"/><path fill="#a7c7d7" d="M51.548 64.303c-4.443-4.936-17.438-20.424-7.578-26.421-.804.49.534 8.445.696 9.518.477 3.19 1.304 6.339 2.68 9.26 2.932 6.22 8.15 10.619 14.53 12.98 3.78 1.403 7.933 2.364 11.929 2.88-8.214-.37-16.977-2.35-22.257-8.217"/></g></svg>