<svg version="1.1" xmlns="http://www.w3.org/2000/svg" xmlns:xlink="http://www.w3.org/1999/xlink" width="105.319" height="116.08918" viewBox="0,0,105.319,116.08918"><g transform="translate(-187.2226,-122.44918)"><g data-paper-data="{&quot;isPaintingLayer&quot;:true}" fill-rule="evenodd" stroke="none" stroke-width="1" stroke-linecap="butt" stroke-linejoin="miter" stroke-miterlimit="10" stroke-dasharray="" stroke-dashoffset="0" style="mix-blend-mode: normal"><path d="M204.166,214.629c-8.361,-4.332 -13.701,-8.924 -16.868,-21.62c-0.466,-1.868 1.35,-1.743 2.106,-1.448c6.521,2.547 10.692,-6.024 14.507,-9.688c4.003,-3.843 8.492,-4.035 13.726,-3.411c3.283,0.392 6.225,0.458 9.38,-0.675c2.732,-0.98 5.272,-2.429 8.012,-3.389c4.128,-1.45 8.668,-1.689 12.323,1.01c0.375,0.276 0.503,0.628 0.473,0.97c2.697,3.867 2.319,9.145 -0.42,12.937c-3.326,4.602 -8.692,6.184 -13.982,7.174c-3.252,0.609 -6.78,1.206 -9.22,3.664c-2.102,2.116 -3.17,5.055 -4.92,7.441c-3.203,4.372 -8.312,6.914 -13.652,7.199c-0.201,0.012 -0.379,-0.019 -0.535,-0.078c-0.274,0.095 -0.592,0.089 -0.93,-0.087" fill="#c93a27"/><path d="M266.181,212.171c0.762,-0.131 1.576,0.181 1.792,1.004c2.087,7.967 3.806,16.616 -1.574,23.673c-0.717,0.942 -2.122,0.329 -2.44,-0.611c-2.29444,-6.76722 -4.3286,-13.61992 -6.098,-20.543c-0.09525,-0.34114 -0.05736,-0.70573 0.106,-1.02c-0.028,-0.584 0.275,-1.137 1.032,-1.267l7.182,-1.237" data-paper-data="{&quot;origPos&quot;:null}" fill="#9e743c"/><path d="M269.309,223.566c1.032,-0.295 1.727,0.658 1.718,1.545c0.006,0.025 0.016,0.044 0.021,0.069c0.821,3.87 -0.053,8.873 -3.36,11.425c-4.694,3.622 -6.928,-4.841 -7.637,-7.958c-0.058,-0.253 -0.05,-0.484 0.002,-0.693c-0.045,-0.195 -0.054,-0.395 -0.026,-0.59c-0.044,-0.6 0.218,-1.2 0.913,-1.4l8.37,-2.398" data-paper-data="{&quot;origPos&quot;:null}" fill="#401f0f"/><path d="M244.602,211.758c0.713,0.191 1.321,0.983 1.083,1.754c-2.181,7.074 -4.363,14.147 -6.543,21.221c-0.348,1.125 -1.996,1.633 -2.644,0.44c-3.76,-6.915 -4.729,-14.849 -2.628,-22.456c0.009,-0.033 0.024,-0.058 0.034,-0.09c-0.366,-0.857 0.015,-2.051 1.207,-2.061c3.20318,-0.03652 6.39634,0.36452 9.491,1.192" data-paper-data="{&quot;origPos&quot;:null}" fill="#9e743c"/><path d="M243.355,226.141c-0.626,2.674 -0.967,5.73 -2.055,8.258c-0.754,1.748 -2.3,3.195 -4.322,2.9c-2.128,-0.311 -3.322,-2.173 -4.049,-4.028c-0.967,-2.461 -1.743,-5.029 -1.897,-7.681c-0.02791,-0.32391 0.06114,-0.64709 0.251,-0.911c0.175,-0.469 0.561,-0.847 1.1,-0.913c0.176,-0.089 0.381,-0.147 0.626,-0.147c3.10361,-0.00924 6.2023,0.2477 9.262,0.768c0.775,0.131 1.256,1.02 1.084,1.753" fill="#401f0f"/><path d="M228.296,219.085c-0.824,-0.081 -1.246,-0.951 -1.181,-1.688c0.288,-3.258 0.823,-10.848 2.486,-13.658c0.487,-0.825 1.425,-0.901 2.09,-0.562c0.178,-0.053 0.373,-0.078 0.588,-0.058c6.699,0.629 13.39,0.605 20.085,-0.041c0.404,-0.159 0.879,-0.089 1.27,0.151c0.009,-0.001 0.015,-0.005 0.025,-0.005l19.244,-1.897c1.083,-0.107 1.613,0.691 1.513,1.533c0.004,0.014 0.003,-0.048 0.006,-0.033c0.761,3.429 1.942,11.42 2.702,14.85c0.171,0.772 -0.599,1.507 -1.303,1.577c-6.659,0.66 -13.32,1.313 -19.979,1.973c-0.62,0.061 -1.285,-0.333 -1.497,-0.934c-0.63585,-1.80613 -1.15361,-3.65169 -1.55,-5.525l-2.057,5.481c-0.312,0.833 -1.066,0.99 -1.706,0.746c-0.19,0.064 -0.404,0.092 -0.64,0.068l-20.096,-1.978" fill="#c93a27"/><path d="M240.414,181.066c-0.01153,-0.21553 0.03255,-0.43041 0.128,-0.624v-0.01c-0.014,-0.062 -0.028,-0.125 -0.03,-0.186c-0.015,-0.621 0.457,-1.367 1.155,-1.342c0.041,0.002 0.076,0.007 0.116,0.01c0.1669,-0.09095 0.353,-0.14099 0.543,-0.146l14.965,-0.549c0.737,-0.026 1.17,0.493 1.27,1.064c0.2151,0.20893 0.3406,0.49328 0.35,0.793c0.319,5.248 -3.37,9.988 -8.733,10.274c-5.348,0.285 -9.558,-4.028 -9.764,-9.284M212.37,198.143c-2.664,-1.398 -3.511,-4.543 -2.491,-7.305c1.084,-2.932 3.934,-5.091 6.453,-6.728c5.937,-3.854 13.093,-5.049 19.993,-3.831c0.588,0.104 0.908,0.45 1.016,0.87c0.49111,0.42966 0.75889,1.06024 0.727,1.712c0.362,1.175 4.288,5.801 -6.085,6.108c-7.136,0.212 -12.64,4.099 -17.777,9.01c-0.513,0.491 -1.242,0.475 -1.836,0.164M290.765,173.167c2.179,1.9 2.276,5.025 0.715,7.375c-1.657,2.495 -4.793,3.875 -7.505,4.839c-6.39,2.272 -13.334,1.79 -19.508,-0.888c-0.526,-0.228 -0.747,-0.623 -0.756,-1.04c-0.36328,-0.51015 -0.4741,-1.15812 -0.301,-1.76c-0.079,-1.178 -1.637,-3.68 -0.693,-4.328c0.096,-0.103 5.842,-0.232 7.718,-0.015c6.805,0.786 12.703,-1.003 18.58,-4.44c0.587,-0.343 1.264,-0.166 1.75,0.257" data-paper-data="{&quot;origPos&quot;:null}" fill="#9e743c"/><path d="M228.526,189.99l-3.2,-8.806c-0.25,-0.687 0.124,-1.678 0.882,-1.865c3.357,-0.83 6.74,-1.323 10.197,-1.43c0.423,-0.013 0.76,0.128 1.007,0.352c0.252,-0.237 0.59,-0.372 0.966,-0.305l3.717,0.664c0.218,0.04 0.394,0.125 0.54,0.237c0.408,0.11 0.749,0.428 0.804,0.987c0.363,3.692 3.6,-1.185 7.411,-1.369c3.942,-0.19 6.193,4.19 5.908,0.312c-0.036,-0.497 0.216,-1.13 0.74,-1.292l2.829,-0.877c0.411,-0.316 0.964,-0.401 1.354,-0.133c0.30927,-0.2867 0.72617,-0.42785 1.146,-0.388l7.313,0.57c0.87,-0.199 2.046,0.465 1.951,1.676l-0.692,8.855c-0.04,0.501 1.137,8.884 2.507,12.71c0.268,0.75 -0.153,1.584 -0.97,1.697c-14.42689,1.97614 -29.02327,2.40959 -43.542,1.293c-0.721,-0.055 -1.033,-0.6 -1.013,-1.16c-0.153,-0.22 -0.221,-0.509 -0.135,-0.865c0.798,-3.307 0.44,-10.42 0.28,-10.862" fill="#c3cddd"/><path d="M222.524,171.727c-4.801,-7.82 -3.028,-17.585 -3.121,-26.28c-0.008,-0.749 0.454,-1.229 1.008,-1.419c0.052,-0.652 0.463,-1.3 1.266,-1.445c17.045,-3.072 34.264,-5.032 51.497,-4.516c0.259,0.007 0.593,2.477 0.787,2.581c0.756,0.102 1.44,0.71 1.229,1.677c-1.718,7.876 1.519,15.886 -0.205,23.754c-1.54,7.031 -7.292,11.866 -13.91,13.968c-7.031,2.232 -15.238,2.336 -22.488,1.14c-6.299,-1.037 -12.593,-3.807 -16.063,-9.46" data-paper-data="{&quot;origPos&quot;:null}" fill="#9e743c"/><path d="M246.57,169.132c2.376,3.825 7.614,3.99 9.924,-0.053c0.925,-1.62 3.536,-0.345 2.602,1.29c-3.324,5.822 -11.314,6.217 -14.92,0.413c-0.99,-1.593 1.402,-3.246 2.393,-1.65" fill="#050000"/><path d="M230.937,158.319c0.97,-2.33 3.31,-3.631 5.682,-3.616c0.271,-0.177 0.619,-0.25 1.038,-0.141c3.215,0.836 5.54,4.127 4.727,7.501c-0.798,3.32 -4.657,5.404 -7.845,4.294c-3.113,-1.084 -4.886,-4.959 -3.602,-8.038" fill="#fafcf8"/><path d="M235.203,156.877c0.158,-0.156 0.361,-0.286 0.625,-0.369c2.729,-0.856 5.822,1.577 4.97,4.538c-0.809,2.808 -4.399,3.86 -6.393,1.62c-1.537,-1.728 -1.21,-4.826 0.798,-5.79" fill="#401f0f"/><path d="M238.093,158.731c2.541,-0.183 2.749,2.73 0.207,2.913c-1.525,0.11 -1.732,-2.803 -0.207,-2.913M260.44,154.8c2.114,-3.314 6.522,-3.604 9.5,-1.361c0.404,0.304 0.554,0.686 0.537,1.061c1.343,1.608 1.91,3.814 1.12,5.986c-1.298,3.565 -5.378,5.28 -8.76,3.533c-3.386,-1.748 -4.441,-6.015 -2.397,-9.22" fill="#fafcf8"/><path d="M264.379,154.622c0.41956,-0.28289 0.89492,-0.47249 1.394,-0.556c0.252,-0.13 0.557,-0.183 0.912,-0.114c0.31,0.06 0.612,0.152 0.9,0.267c0.349,0.12 0.673,0.296 0.966,0.514c1.556,1.058 2.438,2.947 1.722,4.921c-0.909,2.508 -3.963,3.02 -5.967,1.504c-2.083,-1.575 -2.145,-5.045 0.073,-6.536" fill="#401f0f"/><path d="M267.56,156.408c2.542,-0.183 2.75,2.73 0.208,2.913c-1.525,0.11 -1.732,-2.803 -0.207,-2.913" fill="#fafcf8"/><path d="M214.793,153.222c-0.556,-0.256 -0.96,-0.812 -0.799,-1.595c3.07,-14.931 4.015,-26.359 31.19,-28.927c24.28,-2.295 33.128,11.538 34.116,25.998c0.117,1.705 -3.279,2.062 -3.833,2.025c-4.555,-0.301 -11.075,-2.343 -17.883,-9.191c-9.622,10.445 -30.741,15.212 -42.097,12.33c-0.364,-0.092 -0.566,-0.382 -0.694,-0.642" data-paper-data="{&quot;origPos&quot;:null}" fill="#401f0f"/><path d="M249.763,163.214c0.762,0.144 3.124,0.729 3.398,-0.511c0.132,-0.597 -0.685,-1.104 -1.066,-1.435c-1.239,-1.08 -2.22,-2.146 -2.013,-3.913c0.22,-1.864 3.064,-1.287 2.845,0.574c-0.062,0.523 1.543,1.532 1.874,1.874c0.82,0.851 1.415,1.91 1.265,3.138c-0.419,3.427 -4.26,3.631 -6.871,3.138c-1.833,-0.346 -1.27,-3.212 0.568,-2.865" data-paper-data="{&quot;origPos&quot;:null}" fill="#9e6417"/><path d="M227.886,206.914c-1.311,0.013 -0.685,-5.956 -0.252,-7.125c0.163,-0.44 0.758,-0.819 1.226,-0.814c14.68098,0.18005 29.35864,-0.56912 43.945,-2.243c0.621,-0.071 1.058,0.196 1.301,0.593c0.11895,0.08763 0.22181,0.19522 0.304,0.318c0.717,1.14 1.708,3.891 0.843,5.846c-0.69,1.561 -9.543,1.709 -13.405,1.985c-10.641,0.763 -23.032,1.332 -33.962,1.44" fill="#401f0f"/><path d="M253.355,204.567l0.093,0.001c1.249,0.121 2.752,-0.278 4.002,-0.405l3.03,-0.307l-0.117,-5.683c-2.406,0.084 -4.79,0.331 -7.16,0.744l0.034,1.261l2.715,-0.219c1.861,-0.15 2.07,2.763 0.207,2.913l-2.794,0.225c0.01777,0.28688 0.00873,0.5748 -0.027,0.86l0.017,0.61M251.507,207.161c-1.023,-0.688 -1.022,-1.887 -1.062,-2.995c-0.077,-2.118 -0.113,-4.238 -0.17,-6.357c-0.023,-0.864 0.542,-1.4 1.343,-1.56c3.13722,-0.63309 6.32593,-0.97687 9.526,-1.027c0.13666,-0.001 0.27285,0.01615 0.405,0.051c0.513,-0.053 1.049,0.129 1.329,0.605l0.166,0.28c0.21368,0.36642 0.28084,0.80011 0.188,1.214c0.003,0.037 0.014,0.067 0.015,0.107l0.156,7.591c0.016,0.807 -0.529,1.478 -1.343,1.56l-6.403,0.649c-1.248,0.126 -3.005,0.654 -4.15,-0.118" fill="#dd8d00"/><path d="M217.788,232.294c-0.161,0.276 -0.363,0.45 -0.583,0.55c-0.056,0.409 -0.317,0.775 -0.858,0.948l-14.617,4.666c-0.944,0.302 -2.23,-0.261 -2.044,-1.458l2.077,-13.332c0.023,-0.149 0.068,-0.28 0.123,-0.402c-0.01516,-0.42127 0.15127,-0.82878 0.457,-1.119l27.787,-27.43c0.15791,-0.16067 0.35352,-0.27928 0.569,-0.345c0.54,-0.593 1.536,-0.817 2.225,-0.038l4.238,4.799c0.15967,0.17579 0.27158,0.38961 0.325,0.621c0.526,0.436 0.78,1.185 0.26,1.9c-7.17643,9.86265 -13.83832,20.08963 -19.959,30.64" fill="#c3cddd"/><path d="M208.918,230.23c-1.21,1.41 -3.588,-0.264 -2.367,-1.688l27.952,-32.572c1.21,-1.41 3.588,0.265 2.367,1.689l-27.952,32.571" fill="#7b97c2"/><path d="M244.057,197.334c0.579,0.635 0.305,1.508 -0.205,2.056l-3.966,4.264c-0.572,0.616 -1.547,0.286 -2.04,-0.206l-9.428,-9.41c-0.408,-0.408 -0.474,-0.866 -0.333,-1.266c-0.149,-0.387 -0.131,-0.842 0.179,-1.287c1.541,-2.206 3.77,-4.302 6.591,-2.93c0.845,0.411 1.615,1.064 2.345,1.766l6.137,-5.612c0.606,-0.555 1.528,-0.345 2.04,0.207c0.869,0.937 1.737,1.874 2.607,2.81c0.44,0.477 0.396,1.259 0.06,1.77c-1.52825,2.32315 -3.46367,4.35105 -5.713,5.986c0.58,0.612 1.157,1.228 1.727,1.852" fill="#dd8d00"/></g></g></svg>