<svg xmlns="http://www.w3.org/2000/svg" width="56.242" height="116.254"><g fill-rule="evenodd" stroke-miterlimit="10" data-paper-data="{&quot;isPaintingLayer&quot;:true}" style="mix-blend-mode:normal"><path fill="#ffdea3" d="m43.759 57.757 5.27-6.18a4.12 4.12 0 0 1-.198-.793c-.339-.617-.616-1.387-.783-2.245-.437-2.238.049-4.224 1.089-4.425.555-.109 1.153.32 1.66 1.078 1.117-1.07 2.498-1.518 3.65-1.034 1.761.746 2.323 3.404 1.25 5.932-.693 1.621-1.882 2.795-3.116 3.232l.002.006s-3.285 9.312-6.145 10.35c-2.318.834-10.482-2.478-10.482-2.478s-.662-2.533-1.001-3.334c-.468-1.097-2.371-4.106-2.371-4.106zm-36.753 1.41C3.494 63.653 2.148 77.11 2.155 77.071c-.453.652-.77 1.5-.87 2.45-.24 2.256.841 4.215 2.408 4.381 1.03.11 2.01-.574 2.635-1.689.584.48 1.158.67 1.57.45.773-.406.681-2.088-.208-3.755a6.223 6.223 0 0 0-1.154-1.578c-.03-.07-.068-.135-.103-.2 0 0 1.528-9.736 3.158-12.042.815-1.152 1.341-1.798 1.53-2.31.146-.41.307-1.2.38-1.493.52-2.308 3.382-7.525 3.382-7.525s-6.166 3.227-7.877 5.407m6.903 51.45h-.004l-.442-11.012h9.646v11.011h.002c.061.251-.015.5-.186.757-.546.838-1.494 1.447-2.3 2.014-1.249.853-2.828 1.31-4.21 1.966-1.247.524-2.89 1.516-4.007.27-1.477-1.77-.225-3.944 1.501-5.007m10.454 0v-11.01h9.657l-.437 11.01h-.007c1.724 1.063 2.978 3.236 1.501 5.005-1.116 1.248-2.762.258-4.014-.266-1.377-.659-2.957-1.117-4.206-1.97-.807-.565-1.755-1.172-2.3-2.01-.17-.259-.246-.508-.187-.759z" data-paper-data="{&quot;origPos&quot;:null}"/><path fill="#e7c59f" d="M13.841 110.62h-.005 9.217-.006c.059.25-.083.493-.251.755-.542.837-1.434 1.46-2.24 2.024-1.248.856-2.828 1.314-4.209 1.968-1.248.526-2.89 1.51-4.008.264-1.477-1.77-.227-3.947 1.502-5.01"/><path fill="#181818" d="M15.164 110.981c3.483.706 6.376-.444 7.856-.424.236.103-.02.563-.187.827-.545.838-1.496 1.51-2.3 2.078-1.25.85-2.828 1.291-4.209 1.95-1.25.524-2.895 1.473-4.012.227-1.014-1.218-.74-2.66.09-3.788.378-.51 1.14-1.202 2.762-.87"/><path fill="#e7c59f" d="M33.52 110.62c1.724 1.064 2.979 3.24 1.499 5.011-1.119 1.246-2.76.262-4.007-.264-1.381-.654-2.959-1.112-4.209-1.968-.809-.564-1.696-1.187-2.242-2.024-.168-.262-.31-.505-.246-.755h-.01 9.22-.005"/><path fill="#181818" d="M32.193 110.981c1.623-.332 2.384.36 2.764.87.83 1.128 1.104 2.57.09 3.788-1.12 1.246-2.765.297-4.015-.227-1.378-.659-2.956-1.1-4.204-1.95-.808-.568-1.755-1.24-2.303-2.078-.166-.264-.422-.724-.188-.827 1.484-.02 4.375 1.13 7.856.424"/><path fill="#2c2c2d" d="m35.586 85.59-1.88 25.09h-9.527l-.36-18.146h-.278l-.365 18.146h-9.525l-1.88-25.09z"/><path fill="#181818" d="M39 81.396c-.057 3.5 0 22.962 0 22.962s-2.065.907-4.187.755l-.085-.755s-1.64-.18-2.567 0l-.105.755c-11.802 1.627-23.513-.755-23.513-.755s-.024-19.462-.065-22.962c5.275 1.043 25.448 1.115 30.522 0"/><path fill="#f6b90c" d="M10.582 85.31c.097 0 .177-.08.177-.18a.178.178 0 0 0-.177-.174.177.177 0 1 0 0 .353m.487-.656c.083.085.031.275-.107.475.138.203.19.393.107.476-.083.08-.273.03-.476-.11-.201.14-.393.19-.477.11-.082-.083-.034-.273.11-.476-.144-.2-.192-.39-.109-.476.083-.08.276-.03.476.11.203-.14.393-.19.476-.109m-.487 6.453a.177.177 0 0 0 .177-.175.177.177 0 0 0-.177-.174.175.175 0 0 0-.175.174c0 .097.078.175.175.175m.487-.655c.083.083.031.277-.107.476.138.203.19.393.107.473-.083.083-.273.033-.476-.107-.201.14-.393.19-.477.107-.082-.08-.034-.27.11-.473-.144-.199-.192-.393-.109-.476.083-.083.276-.033.476.107.203-.14.393-.19.476-.107m-.487 6.454a.176.176 0 1 0 .002-.352.176.176 0 0 0-.002.352m.487-.656c.083.083.031.275-.107.475.138.203.19.393.107.475-.083.084-.273.031-.476-.11-.201.141-.393.194-.477.111-.082-.083-.034-.273.11-.476-.144-.2-.192-.392-.109-.476.083-.08.276-.032.476.11.203-.142.393-.19.476-.109m6.735-10.573a.178.178 0 0 0 .177-.179.176.176 0 0 0-.177-.175.175.175 0 0 0-.177.174.178.178 0 0 0 .177.18m.485-.659c.083.083.033.272-.107.477.139.2.19.391.107.472-.081.085-.273.035-.475-.105-.203.14-.393.19-.478.105-.08-.08-.03-.273.11-.472-.14-.205-.19-.394-.11-.477.085-.079.275-.03.478.111.202-.142.394-.19.475-.112m-.485 6.458c.097 0 .177-.08.177-.18a.174.174 0 0 0-.177-.172.173.173 0 0 0-.177.172.177.177 0 0 0 .177.18m.485-.657c.083.08.033.273-.107.473.139.205.19.395.107.477-.081.082-.273.034-.475-.11-.203.144-.393.191-.478.111-.08-.083-.03-.273.11-.478-.14-.2-.19-.393-.11-.474.085-.08.275-.032.478.11.202-.142.394-.19.475-.109m-.485 6.453a.177.177 0 0 0 .177-.175.177.177 0 1 0-.354 0c.001.097.08.175.177.175m.485-.655c.083.081.033.271-.107.474.139.2.19.395.107.476-.081.08-.273.032-.475-.11-.203.142-.393.19-.478.11-.08-.08-.03-.276.11-.476-.14-.204-.19-.394-.11-.474.085-.083.275-.033.478.11.202-.143.394-.193.475-.11m7.628-10.939a.176.176 0 0 0 .175-.179.175.175 0 0 0-.175-.175.179.179 0 0 0-.177.174.18.18 0 0 0 .176.18m.486-.659c.083.083.031.272-.107.477.137.2.19.391.107.472-.083.085-.274.035-.474-.105-.201.14-.396.19-.474.105-.085-.08-.035-.273.105-.472-.14-.205-.191-.394-.105-.477.078-.079.273-.03.474.111.201-.142.391-.19.474-.112m-.485 6.458c.098 0 .175-.08.175-.18a.172.172 0 0 0-.175-.172.176.176 0 0 0-.177.172.18.18 0 0 0 .176.18m.486-.657c.083.08.031.273-.107.473.137.205.19.395.107.477-.083.082-.274.034-.474-.11-.201.144-.396.191-.474.111-.085-.083-.035-.273.105-.478-.14-.2-.191-.393-.105-.474.078-.08.273-.032.474.11.201-.142.391-.19.474-.109m-.485 6.453a.175.175 0 0 0 .175-.175.175.175 0 0 0-.175-.177.18.18 0 0 0-.177.177.18.18 0 0 0 .176.175m.486-.655c.083.081.031.271-.107.474.137.2.19.395.107.476-.083.08-.274.032-.474-.11-.201.142-.396.19-.474.11-.085-.08-.035-.276.105-.476-.14-.204-.191-.394-.105-.474.078-.083.273-.033.474.11.201-.143.391-.193.474-.11m7.443-11.092a.176.176 0 0 0 .161-.183.176.176 0 0 0-.188-.166.17.17 0 0 0-.161.188.173.173 0 0 0 .188.161m.439-.685c.085.08.05.271-.077.482.031.035.055.075.077.11l-.1.403a.888.888 0 0 1-.32-.122c-.192.155-.38.216-.467.137-.09-.074-.051-.272.077-.48-.152-.192-.217-.377-.14-.467.078-.087.272-.052.48.075.192-.15.38-.216.47-.138"/><path fill="#d09b16" d="M33.92 96.886a.184.184 0 0 0-.15.2.176.176 0 0 0 .194.153zm.079.534c-.181.166-.367.238-.459.168-.092-.072-.07-.269.048-.485-.166-.183-.238-.364-.166-.456.07-.096.269-.067.485.046z"/><path fill="#f6b90c" d="M36.713 85.31c.094 0 .172-.08.172-.18a.175.175 0 0 0-.172-.174.177.177 0 1 0 0 .353m.485-.656c.083.085.03.275-.11.475.14.203.193.393.11.476-.084.08-.274.03-.474-.11-.204.14-.396.19-.479.11-.08-.083-.033-.273.11-.476-.143-.2-.19-.39-.11-.476.083-.08.275-.03.479.11.201-.14.391-.19.474-.109m-.485 6.453a.175.175 0 1 0-.004-.35.175.175 0 0 0 .004.35m.485-.655c.083.083.03.277-.11.476.14.203.193.393.11.473-.084.083-.274.033-.474-.107-.204.14-.396.19-.479.107-.08-.08-.033-.27.11-.473-.143-.199-.19-.393-.11-.476.083-.083.275-.033.479.107.201-.14.391-.19.474-.107m-.485 6.454a.175.175 0 0 0-.003-.35.175.175 0 0 0-.122.3.176.176 0 0 0 .125.05m.485-.656c.083.083.03.275-.11.475.14.203.193.393.11.475-.084.084-.274.031-.474-.11-.204.141-.396.194-.479.111-.08-.083-.033-.273.11-.476-.143-.2-.19-.392-.11-.476.083-.08.275-.032.479.11.201-.142.391-.19.474-.109m-23.123-7.837a.176.176 0 0 0 .177-.176.179.179 0 0 0-.177-.177.18.18 0 0 0-.177.177.176.176 0 0 0 .178.176m.485-.654c.083.083.032.273-.11.473.142.203.193.396.11.476-.081.083-.274.033-.477-.107-.201.14-.393.19-.477.107-.08-.08-.032-.273.11-.476-.142-.2-.19-.39-.109-.474.083-.08.276-.032.476.11.203-.142.396-.189.477-.109m-.486 6.452a.177.177 0 1 0 0-.353.18.18 0 0 0-.177.18c.001.098.08.176.178.175m.485-.655c.083.083.032.275-.11.473.142.204.193.393.11.474-.081.08-.274.035-.477-.11-.201.145-.393.19-.477.11-.08-.08-.032-.27.11-.474-.142-.198-.19-.39-.109-.473.083-.083.276-.035.476.107.203-.142.396-.19.477-.107m7.314-4.833a.177.177 0 1 0-.125-.05.176.176 0 0 0 .126.05m.484-.657c.081.081.033.273-.107.478.14.2.188.39.107.474-.081.08-.273.03-.478-.11-.199.14-.389.19-.475.11-.08-.084-.032-.274.11-.474-.142-.205-.19-.397-.109-.479.084-.08.274-.032.474.11.205-.142.398-.189.478-.109m-.485 6.454a.179.179 0 0 0 .177-.177.175.175 0 0 0-.176-.173.176.176 0 0 0 0 .351m.484-.655c.081.08.033.273-.107.473.14.201.188.391.107.476-.081.08-.273.032-.478-.11-.199.142-.389.19-.475.11-.08-.086-.032-.276.11-.476-.142-.2-.19-.393-.109-.474.084-.08.274-.032.474.11.205-.142.398-.19.478-.109m8.186-5.294a.176.176 0 0 0 0-.35.176.176 0 0 0 0 .35m.485-.654c.08.081.032.273-.11.476.142.2.19.39.109.473-.08.08-.27.03-.476-.11-.201.14-.393.19-.476.11-.081-.083-.033-.273.111-.473-.144-.203-.192-.396-.111-.476.083-.083.276-.033.476.107.206-.14.396-.19.476-.107m-.485 6.451a.176.176 0 0 0 .175-.177.173.173 0 0 0-.175-.172.174.174 0 0 0-.125.298.176.176 0 0 0 .126.051m.485-.657c.08.085.032.275-.11.478.142.201.19.391.109.473-.08.086-.27.031-.476-.106-.201.137-.393.192-.476.106-.081-.083-.033-.273.111-.473-.144-.203-.192-.393-.111-.477.083-.082.276-.03.476.11.206-.139.396-.19.476-.11M8.531 98.446c8.105.918 16.155 1.048 24.195.528.306-.436 1.407-.094 1.407-.094 1.617-.122 3.415-.292 4.853-.748.003 3.397.013 6.225.013 6.225s-2.065.907-4.186.755l-.086-.755s-1.641-.18-2.567 0l-.103.755c-11.804 1.627-23.513-.756-23.513-.756l-.013-5.91"/><path fill="#2c2c2d" d="m34.032 98.884-.599-5.496-.612 5.58-.192.016 1.86-17 .196-.064-1.16 10.613h.002l.695 6.34z"/><path fill="#d09b16" d="m34.72 105.122-.687-6.236.188-.013.684 6.23zm-2.57 0 .673-6.153-.192.015-.669 6.12z"/><path fill="#2c2c2d" d="m6.747 76.58-4.763.001s1.536-13.477 5.05-17.963c1.553-1.98 6.05-4.514 6.863-4.96 2.01-1.297 8.046-1.49 8.046-1.49l1.685.05h.14l1.682-.049s6.06.211 8.057 1.516l10.126 3.956 5.315-6.162 4.573 2.252s-4.222 8.85-7.084 9.888c-2.222.803-8.874-1.829-9.44-2.08 1.44 6.214 1.831 14.326 1.925 19.33l.009.778H8.471c.007-.37.018-.672.027-1.086.107-4.187.421-10.399 1.359-15.928-.078.117-.16.231-.243.343C7.986 67.278 6.747 76.58 6.747 76.58"/><path fill="#181818" d="M28.796 63.75h6.018v6.82l-2.966.563-3.052-.563zm-4.784 9.743-.046.04-.064-.037-1.274-.847-.043-.03V54.802h.192v17.72l1.18.787 1.222-.735z"/><path fill="#2c2c2d" d="M20.674 54.48c-.131-.038-.227-.134-.321-.212l-.12-.103a1.693 1.693 0 0 1-.106-.118c-.51-.63 0-3.253 0-3.253 2.387.4 4.823.401 7.21.005 0 0 .574 2.677 0 3.248-.223.22-.523.482-.936.554-1.411.245-4.357.293-5.727-.122"/><path fill="#181818" d="M19.901 52.67s0 .042-.006.116a3.072 3.072 0 0 0-.003.327c.003.142.016.31.062.5.045.188.135.39.305.548.084.076.184.144.3.196.116.054.234.11.365.144.26.076.548.118.845.148.298.033.61.044.925.055.319.004.638.002.961-.007.324-.006.647-.017.962-.037.317-.02.627-.035.93-.057.302-.024.597-.045.868-.074.26-.037.498-.15.675-.296.162-.14.29-.315.372-.513.07-.18.105-.35.118-.487.013-.14.015-.25.015-.327l-.002-.113s.002.037.01.113c.01.076.016.188.012.332a1.73 1.73 0 0 1-.09.506c-.061.19-.179.4-.365.57-.188.17-.435.303-.727.353-.6.081-1.201.14-1.805.175-.317.02-.643.034-.966.043-.326.01-.65.01-.973-.002a9.96 9.96 0 0 1-.937-.07 4.76 4.76 0 0 1-.87-.179 2.152 2.152 0 0 1-.382-.166 1.399 1.399 0 0 1-.317-.233 1.134 1.134 0 0 1-.205-.3 1.502 1.502 0 0 1-.092-.307 2.798 2.798 0 0 1-.03-.515c.004-.142.019-.253.028-.327l.017-.116"/><path fill="#f6b90c" d="M23.529 58.55a.427.427 0 0 1 .854 0 .428.428 0 0 1-.854 0m0-4.883a.427.427 0 0 1 .854 0 .428.428 0 0 1-.854 0m0-1.31a.424.424 0 0 1 .426-.426c.238 0 .428.185.428.425a.428.428 0 0 1-.854 0m0 12.201a.427.427 0 0 1 .854 0 .428.428 0 0 1-.854 0m0 6.005a.428.428 0 1 1 .856.008.428.428 0 0 1-.856-.008M8.446 79.58c10.231.48 20.478.48 30.709 0v3.57a326.267 326.267 0 0 1-30.709 0z"/><path fill="#ffdea3" d="M45.445 32.528c1.123.722 1.862 1.948 1.862 3.34 0 2.22-1.873 4.02-4.183 4.02-.065 0-.131-.003-.197-.007-3.741 6.698-10.91 11.225-19.135 11.225-8.236 0-15.41-4.538-19.149-11.248a3.88 3.88 0 0 1-.461.03c-2.308 0-4.182-1.8-4.182-4.02 0-1.494.852-2.797 2.115-3.49a22.084 22.084 0 0 1-.223-3.138c0-12.076 9.805-21.864 21.9-21.864 12.095 0 21.898 9.788 21.898 21.864 0 1.118-.083 2.217-.245 3.288" data-paper-data="{&quot;origPos&quot;:null}"/><path fill="#2c2c2d" d="M18.886 27.604s-.48 1.695-1.992 1.36c-.738-.164-.868-1.13-3.238-.697-.745.17-2.312 1.087-2.614 1.7-.302.613-.084-2.248 2.35-3.312 1.756-.633 2.351-.603 3.805-.603 1.453 0 1.901.853 1.69 1.552m10.099 0s.48 1.695 1.992 1.36c.738-.164.868-1.13 3.238-.697.745.17 2.312 1.087 2.614 1.7.302.613.084-2.248-2.35-3.312-1.756-.633-2.351-.603-3.805-.603-1.453 0-1.901.853-1.69 1.552m-12.049 7.448c0 1.657-.895 3-2 3s-2-1.343-2-3 .895-3 2-3 2 1.343 2 3m18 0c0 1.657-.895 3-2 3s-2-1.343-2-3 .895-3 2-3 2 1.343 2 3"/><path fill="#683918" d="M20.936 38.052s.207-1.042.504-1.342c.801-1.195 2.491-1.658 2.491-1.658s2.175.727 2.654 1.641c.443.852.341 1.28.341 1.28s-2.125-1.934-2.965-1.816c-1.127.158-3.025 1.895-3.025 1.895zM17.136 40.748s6.898 3.208 13.173-.397c0 0-1.39 5.47-5.95 5.561-4.115.122-4.984-1.492-5.477-1.956-.493-.463-1.421-1.772-1.747-3.208"/><path fill="#2c2c2d" d="M46.561 26.392c.035 2.565-.866 8.123-2.618 11.435 0 0-4.309-12.17-7.858-14.097-4.335-2.356-15.766 1.038-19.64-2.016-.642-.504-.572-1.654-.572-1.654s-.74 1.464-1.1 1.872c-1.879 2.134-6.748 5.221-9.055 6.881-1.86 1.336-1.947 1.318-1.537 9.014 0 0-3.413-7.002-3.223-11.678.05-1.346.706-4.335 1.77-7.37C6.581 11.06 14.567 5.754 23.797 5.754c10.601 0 19.497 7 22.44 16.618.009 1.53.309 2.876.324 4.02"/><path fill="#343434" d="m44.692 2.802 1.874 23.34H.946L2.828 2.804c20.93-6.31 41.864 0 41.864 0z"/><path fill="#f6b90c" d="M4.306 4.584a.48.48 0 0 0 .354-.443c0-.196-.159-.318-.354-.275a.484.484 0 0 0-.354.445c0 .201.157.32.354.273m.975-1.564c.166.131.067.543-.214 1.017.281.344.38.711.214.914-.166.207-.551.198-.953.006-.407.384-.791.585-.957.458-.164-.126-.064-.538.218-1.02-.282-.337-.382-.7-.218-.91.166-.212.551-.208.957-.02.402-.385.787-.572.953-.445m1.979.902a.454.454 0 0 0 .354-.427c0-.199-.158-.326-.354-.286a.457.457 0 0 0-.354.432c0 .194.157.323.354.281m.981-1.527c.166.138.067.546-.219 1.01.286.353.385.723.219.923-.166.201-.555.175-.96-.028-.406.37-.795.551-.961.421-.166-.13-.066-.543.216-1.015-.282-.347-.382-.71-.216-.918.166-.203.555-.183.961.017.405-.368.794-.545.959-.41m1.99.98a.437.437 0 0 0 .356-.416c0-.2-.157-.33-.356-.3a.444.444 0 0 0-.358.416c0 .2.161.332.358.3m.983-1.493c.169.141.068.545-.216 1.001.284.362.385.737.216.932-.163.194-.557.152-.963-.066-.409.354-.796.524-.966.39-.166-.14-.066-.547.22-1.007-.286-.358-.386-.729-.22-.93.17-.193.557-.163.966.057.406-.356.8-.519.963-.377m2 1.05a.414.414 0 0 0 .359-.402.313.313 0 0 0-.359-.314.424.424 0 0 0-.358.406.305.305 0 0 0 .358.31m.99-1.453c.166.15.066.547-.218.99.284.378.384.753.218.94-.168.19-.559.134-.968-.1-.412.34-.802.493-.972.35-.167-.14-.066-.546.223-.996-.289-.368-.389-.742-.223-.934.17-.19.559-.144.972.09.407-.343.8-.487.968-.34m2.006 1.123a.4.4 0 0 0 .359-.39.322.322 0 0 0-.359-.325.401.401 0 0 0-.358.392.318.318 0 0 0 .358.323m.99-1.416c.169.153.068.548-.22.982.288.39.389.77.22.95-.168.18-.559.113-.972-.136-.41.322-.802.46-.97.312-.17-.15-.068-.548.22-.989-.288-.379-.39-.756-.22-.94.168-.19.56-.126.97.122.412-.322.804-.456.972-.3M31.233 2.6c.201.016.362-.128.358-.322a.4.4 0 0 0-.358-.393.322.322 0 0 0-.359.325.404.404 0 0 0 .359.39m.992-1.234c.168.183.067.56-.219.94.286.441.387.838.218.988-.168.148-.559.011-.97-.312-.413.25-.802.316-.974.136-.168-.182-.067-.563.223-.95-.291-.434-.391-.829-.223-.98.172-.156.561-.023.975.3.41-.249.801-.312.97-.122m2.004 1.563a.31.31 0 0 0 .358-.312.425.425 0 0 0-.358-.404.31.31 0 0 0-.359.312.418.418 0 0 0 .359.404m.987-1.2c.169.192.066.565-.218.936.284.447.387.855.218.992-.168.146-.559-.007-.965-.347-.413.234-.803.288-.973.1-.168-.19-.067-.562.223-.94-.291-.442-.391-.842-.223-.992.171-.147.56-.003.973.34.406-.233.797-.279.965-.089m1.996 1.638c.196.031.356-.1.356-.297a.446.446 0 0 0-.356-.42c-.197-.03-.358.102-.358.301a.442.442 0 0 0 .358.416m.985-1.165c.164.201.064.572-.218.93.282.46.382.866.218 1.006-.166.135-.557-.035-.963-.389-.411.218-.798.258-.968.066-.169-.195-.068-.57.22-.932-.286-.456-.386-.86-.22-1 .17-.144.557.02.968.376.406-.22.797-.253.963-.057m1.985 1.712c.197.041.357-.085.357-.284a.454.454 0 0 0-.357-.427c-.196-.042-.354.085-.354.283a.453.453 0 0 0 .354.428m.977-1.126c.169.207.07.572-.214.92.284.47.383.883.214 1.013-.165.131-.55-.052-.955-.42-.406.202-.795.228-.963.027-.166-.2-.066-.569.218-.922-.284-.465-.384-.873-.218-1.01.168-.136.557.04.963.41.405-.203.789-.22.955-.018m1.977 1.785c.194.048.352-.072.352-.27a.485.485 0 0 0-.352-.445c-.192-.046-.354.076-.354.273.01.209.153.386.354.442m.972-1.088c.166.21.066.574-.216.91.282.481.382.894.216 1.021-.164.126-.548-.075-.95-.459-.409.192-.791.201-.957-.006-.169-.203-.068-.57.218-.914-.286-.474-.387-.887-.218-1.017.166-.129.548.061.957.445.402-.188.786-.192.95.02M19.21 2.38a.38.38 0 0 0 .36-.374c0-.196-.16-.35-.36-.34a.384.384 0 0 0-.359.38.33.33 0 0 0 .359.334m.996-1.377c.168.157.067.55-.223.973.291.395.391.781.223.955-.172.178-.561.095-.974-.17-.415.308-.805.435-.975.28-.17-.157-.067-.552.223-.982-.291-.39-.393-.772-.223-.95.17-.18.559-.106.975.16.408-.31.802-.43.974-.266m2.013 1.268a.368.368 0 0 0 .36-.362.356.356 0 0 0-.36-.353.37.37 0 0 0-.363.366.35.35 0 0 0 .363.35m.992-1.345c.168.168.07.557-.219.967.289.408.387.794.219.964-.168.17-.562.073-.975-.207-.411.297-.806.406-.974.244-.171-.166-.068-.556.222-.973-.29-.4-.392-.785-.222-.958.168-.172.564-.085.974.194.413-.294.807-.397.975-.23m2.016 1.343a.351.351 0 0 0 .359-.35.367.367 0 0 0-.615-.266.35.35 0 0 0-.106.252c.003.2.163.361.362.365M26.22.964c.168.173.067.557-.219.958.286.417.387.807.219.973-.169.162-.562.053-.975-.244-.415.28-.805.377-.975.207-.17-.17-.07-.556.223-.964-.293-.41-.393-.799-.223-.966.171-.167.56-.064.975.23.413-.279.806-.366.975-.194m2.012 1.416a.333.333 0 0 0 .358-.336.38.38 0 0 0-.358-.378.334.334 0 0 0-.36.34c.003.2.16.363.36.374m.994-1.272c.169.18.068.561-.223.951.291.43.392.825.223.982-.168.155-.562.028-.972-.279-.415.264-.807.347-.977.17-.168-.175-.07-.56.22-.956-.29-.423-.388-.816-.22-.973.171-.164.562-.044.977.266.411-.266.804-.34.972-.16M1.036 25.015h45.441l.041.504H.996z"/></g></svg>