<svg version="1.1" xmlns="http://www.w3.org/2000/svg" xmlns:xlink="http://www.w3.org/1999/xlink" width="83.4357" height="119.64229" viewBox="0,0,83.4357,119.64229"><g transform="translate(-198.978,-120.00146)"><g data-paper-data="{&quot;isPaintingLayer&quot;:true}" fill-rule="evenodd" stroke="none" stroke-width="1" stroke-linecap="butt" stroke-linejoin="miter" stroke-miterlimit="10" stroke-dasharray="" stroke-dashoffset="0" style="mix-blend-mode: normal"><path d="M247.451,234.127c-0.059,0.24 0.017,0.547 0.181,0.797c0.525,0.813 1.44,1.468 2.22,2.016c1.205,0.822 2.731,1.25 4.065,1.887c1.205,0.51 2.793,1.429 3.873,0.22c1.425,-1.715 0.218,-3.89 -1.451,-4.92zM246.237,234.127c0.054,0.24 -0.02,0.547 -0.183,0.797c-0.528,0.813 -1.441,1.468 -2.219,2.016c-1.207,0.822 -2.733,1.25 -4.067,1.887c-1.205,0.51 -2.794,1.429 -3.873,0.22c-1.427,-1.715 -0.216,-3.89 1.45,-4.92z" fill="#eeeeed"/><path d="M258.343,209.889l-1.813,24.298h-9.204l-0.35,-17.574h-0.264l-0.351,17.574h-9.204l-1.814,-24.297z" fill="#2356a3"/><path d="M263.109,184.32c3.393,4.342 4.692,17.394 4.692,17.394c0,0 0,-0.02 -0.004,-0.057c0.438,0.63 0.745,1.453 0.841,2.374c0.231,2.182 -0.815,4.078 -2.332,4.241c-0.99,0.103 -1.94,-0.558 -2.541,-1.638c-0.56,0.465 -1.116,0.65 -1.517,0.438c-0.741,-0.397 -0.656,-2.024 0.196,-3.634c0.29209,-0.56435 0.6684,-1.08094 1.116,-1.532c0.035,-0.068 0.065,-0.131 0.105,-0.194c0,0 -1.478,-9.428 -3.052,-11.658c-0.786,-1.117 -1.294,-1.743 -1.473,-2.238c-0.15,-0.397 -0.307,-1.161 -0.366,-1.447c-0.508,-2.238 -3.276,-7.285 -3.276,-7.285c0,0 5.959,3.127 7.61,5.236M217.29,169.785c1.112,-0.471 2.446,-0.037 3.525,1c0.488,-0.734 1.068,-1.146 1.604,-1.044c1.003,0.199 1.474,2.114 1.05,4.288c-0.13889,0.7575 -0.39282,1.48929 -0.753,2.17c-0.042,0.271 -0.107,0.53 -0.194,0.77l5.089,5.981l10.795,-3.866c0,0 -1.835,2.913 -2.289,3.975c-0.329,0.777 -0.97,3.23 -0.97,3.23c0,0 -7.883,3.206 -10.117,2.397c-2.768,-1.006 -5.941,-10.025 -5.941,-10.025c-1.19,-0.424 -2.343,-1.563 -3.006,-3.134c-1.037,-2.45 -0.497,-5.018 1.208,-5.742" data-paper-data="{&quot;origPos&quot;:null}" fill="#7a5c4e"/><path d="M228.39,170.948c0,0.321 -6.584,1.12 -14.705,1.12c-8.125,0 -14.707,-0.799 -14.707,-1.12c0,-0.32 6.582,-0.582 14.707,-0.582c8.121,0 14.705,0.262 14.705,0.582" fill="#d0d0d0"/><path d="M206.906,169.959c0.0128,0.4126 -0.19983,0.79951 -0.55498,1.00991c-0.35516,0.2104 -0.79664,0.21098 -1.15236,0.00153c-0.35572,-0.20946 -0.56936,-0.5958 -0.55766,-1.00844c0.01737,-0.6124 0.5184,-1.10006 1.13104,-1.10088c0.61265,-0.00081 1.11496,0.48552 1.13396,1.09788" fill="#814915"/><path d="M208.356,171.04c-0.28603,0.09058 -0.59635,0.06368 -0.86253,-0.07476c-0.26618,-0.13844 -0.46639,-0.37705 -0.55647,-0.66324c-0.18899,-0.59668 0.14072,-1.23374 0.737,-1.424c0.59006,-0.16721 1.20614,0.16501 1.39064,0.74989c0.1845,0.58488 -0.12944,1.21047 -0.70864,1.41211" fill="#482c15"/><path d="M208.377,170.276c0.102,0.037 0.183,0 0.266,-0.046c-0.025,-0.094 -0.052,-0.176 -0.155,-0.224c-0.104,-0.049 -0.191,-0.009 -0.281,0.041c0.03,0.094 0.061,0.183 0.17,0.229M207.854,170.054c0.105,0.048 0.191,0.01 0.281,-0.04c-0.03,-0.096 -0.063,-0.183 -0.17,-0.227c-0.107,-0.039 -0.185,-0.002 -0.268,0.047c0.024,0.093 0.054,0.176 0.157,0.22M207.331,169.868c0.113,0.044 0.203,-0.004 0.298,-0.063c-0.024,-0.105 -0.05,-0.205 -0.165,-0.255c-0.115,-0.053 -0.207,-0.003 -0.305,0.045c-0.005,0.005 -0.007,0.007 -0.013,0.009c0.002,0.004 0.006,0.011 0.006,0.014c0.029,0.106 0.059,0.204 0.179,0.25M208.852,170.571c-0.133,-0.06 -0.168,-0.177 -0.194,-0.28c-0.085,0.048 -0.181,0.085 -0.303,0.04c-0.128,-0.053 -0.17,-0.156 -0.205,-0.256c-0.092,0.046 -0.196,0.092 -0.322,0.035c-0.118,-0.054 -0.162,-0.15 -0.188,-0.244c-0.093,0.057 -0.2,0.113 -0.335,0.061c-0.149,-0.055 -0.186,-0.178 -0.223,-0.288v-0.003c-0.05059,0.02554 -0.10633,0.03922 -0.163,0.04c0.00695,-0.01995 0.01263,-0.04033 0.017,-0.061c0.048,-0.00445 0.09477,-0.01767 0.138,-0.039c-0.01139,-0.04806 -0.03479,-0.09244 -0.068,-0.129l0.032,-0.057c0.04105,0.04517 0.07176,0.09875 0.09,0.157l0.002,-0.004c0.103,-0.052 0.216,-0.113 0.36,-0.05c0.13,0.057 0.166,0.174 0.19,0.281c0.087,-0.05 0.185,-0.089 0.305,-0.043c0.128,0.048 0.17,0.157 0.205,0.254c0.092,-0.045 0.196,-0.09 0.322,-0.03c0.118,0.048 0.157,0.147 0.183,0.24c0.094,-0.054 0.196,-0.109 0.334,-0.056c0.03321,0.01263 0.064,0.0309 0.091,0.054c-0.002,0.024 -0.009,0.044 -0.013,0.066c-0.02733,-0.02904 -0.06081,-0.05159 -0.098,-0.066c-0.116,-0.046 -0.203,0.009 -0.296,0.066c0.026,0.107 0.05,0.205 0.163,0.255c0.03415,0.01557 0.07151,0.02277 0.109,0.021c-0.013,0.02 -0.02,0.04 -0.037,0.06c-0.03317,-0.00226 -0.06567,-0.01038 -0.096,-0.024" fill="#fddeba"/><path d="M211.387,169.959c0.00083,0.62601 -0.50599,1.13417 -1.132,1.135c-0.62601,0.00083 -1.13417,-0.50599 -1.135,-1.132c-0.00083,-0.62601 0.50599,-1.13417 1.132,-1.135c0.62601,-0.00083 1.13417,0.50599 1.135,1.132" fill="#814915"/><path d="M212.572,171.088c-0.62353,0.04335 -1.16415,-0.42697 -1.2075,-1.0505c-0.04335,-0.62353 0.42697,-1.16415 1.0505,-1.2075c0.29946,-0.02168 0.59517,0.07713 0.82144,0.27448c0.22627,0.19735 0.36435,0.47689 0.38356,0.77652c0.02117,0.29905 -0.07737,0.59425 -0.27393,0.82063c-0.19655,0.22637 -0.47501,0.36536 -0.77407,0.38637" fill="#f0c0da"/><path d="M213.621,169.897c0.0371,0.61728 -0.43098,1.14879 -1.048,1.19c-0.617,0.043 -1.155,-0.415 -1.205,-1.03l2.253,-0.159" fill="#482c15"/><path d="M214.475,171.063c-0.60799,-0.14402 -0.98524,-0.75236 -0.844,-1.361c0.06779,-0.29227 0.24904,-0.54558 0.50378,-0.70409c0.25474,-0.15851 0.56206,-0.2092 0.85422,-0.14091c0.58052,0.16667 0.92854,0.75908 0.79149,1.3473c-0.13705,0.58821 -0.71109,0.96579 -1.30549,0.8587" fill="#482c15"/><path d="M215.306,169.615l0.079,-0.338l0.22,0.216zM214.771,169.448l0.211,-0.085l-0.212,-0.227zM214.15,169.757l0.244,-0.076l-0.27,-0.236zM214.286,169.297l0.244,-0.1l0.015,0.198zM214.852,170.004l0.211,-0.186l0.136,0.268zM215.354,169.886l0.166,-0.02l0.013,0.216zM214.293,170.247l0.303,0.074l-0.072,-0.317zM213.982,170.154l-0.052,-0.21l0.185,0.076zM214.238,170.837l-0.063,-0.225l0.264,0.108zM214.778,170.859l0.02,-0.31l0.192,0.221zM215.355,170.679l-0.075,-0.267l0.21,0.092zM215.097,169.156l-0.026,-0.094l0.083,0.053z" fill="#ce8f64"/><path d="M218.104,169.959c0,0.62408 -0.50592,1.13 -1.13,1.13c-0.62408,0 -1.13,-0.50592 -1.13,-1.13c0,-0.62408 0.50592,-1.13 1.13,-1.13c0.62408,0 1.13,0.50592 1.13,1.13" fill="#814915"/><path d="M220.343,169.959c0,0.626 -0.506,1.134 -1.133,1.134c-0.61291,-0.01821 -1.10033,-0.52032 -1.10033,-1.1335c0,-0.61318 0.48742,-1.11529 1.10033,-1.1335c0.627,0 1.133,0.509 1.133,1.133" fill="#482c15"/><path d="M219.36,168.819c0.031,0.004 0.061,0.011 0.091,0.017l-1.318,0.794c0.0084,-0.02978 0.0191,-0.05887 0.032,-0.087zM220.01,169.133c0.01654,0.01476 0.03255,0.0301 0.048,0.046l-1.9,1.147l-0.02,-0.061zM218.559,170.861l1.783,-1.078c0.002,0.022 0.004,0.044 0.004,0.065l-1.732,1.05c-0.01851,-0.01192 -0.03653,-0.0246 -0.054,-0.038zM220.291,170.309c-0.011,0.031 -0.022,0.064 -0.034,0.094l-1.11,0.67c-0.035,-0.004 -0.068,-0.006 -0.1,-0.013z" fill="#fddeba"/><path d="M222.584,169.959c0,0.62463 -0.50637,1.131 -1.131,1.131c-0.62463,0 -1.131,-0.50637 -1.131,-1.131c0,-0.62463 0.50637,-1.131 1.131,-1.131c0.62463,0 1.131,0.50637 1.131,1.131" fill="#814915"/><path d="M207.996,168.02c0,0.62463 -0.50637,1.131 -1.131,1.131c-0.62463,0 -1.131,-0.50637 -1.131,-1.131c0,-0.62463 0.50637,-1.131 1.131,-1.131c0.62463,0 1.131,0.50637 1.131,1.131" fill="#482c15"/><path d="M210.237,168.02c0,0.627 -0.51,1.135 -1.133,1.135c-0.45875,0.0004 -0.87256,-0.27563 -1.04839,-0.69934c-0.17584,-0.42371 -0.07906,-0.91163 0.24518,-1.23616c0.32424,-0.32453 0.81207,-0.42173 1.23594,-0.24627c0.42387,0.17546 0.70027,0.58902 0.70027,1.04777" fill="#814915"/><path d="M209.994,168.67l-0.766,-0.5l0.01,0.034l-0.03,-0.026l0.237,0.89l-0.331,-0.855l-0.009,0.037l-0.011,-0.037l-0.331,0.855l0.235,-0.89l-0.03,0.026l0.013,-0.035l-0.767,0.5l0.715,-0.582l-0.046,0.004l0.035,-0.022l-0.918,-0.048l0.918,-0.052l-0.035,-0.02h0.046l-0.715,-0.578l0.767,0.497l-0.013,-0.037l0.03,0.029l-0.235,-0.89l0.332,0.857l0.01,-0.04l0.009,0.04l0.331,-0.857l-0.237,0.89l0.03,-0.029l-0.011,0.037l0.767,-0.497l-0.712,0.578h0.041l-0.033,0.02l0.918,0.052l-0.918,0.048l0.033,0.022l-0.041,-0.004z" fill="#482c15"/><path d="M212.472,168.02c0,0.62408 -0.50592,1.13 -1.13,1.13c-0.62408,0 -1.13,-0.50592 -1.13,-1.13c0,-0.62408 0.50592,-1.13 1.13,-1.13c0.62408,0 1.13,0.50592 1.13,1.13" fill="#ce8f64"/><path d="M212.17,168.02l-0.155,0.219l-0.002,0.266l-0.255,0.087l-0.16,0.214l-0.256,-0.08l-0.253,0.08l-0.157,-0.214l-0.257,-0.087l-0.002,-0.266l-0.155,-0.218l0.155,-0.218l0.002,-0.269l0.257,-0.085l0.157,-0.216l0.253,0.08l0.257,-0.08l0.159,0.216l0.255,0.085l0.002,0.269z" fill="#fddeba"/><path d="M214.715,168.02c0,0.627 -0.507,1.135 -1.133,1.135c-0.6248,-0.00165 -1.13011,-0.5092 -1.129,-1.134c-0.01747,-0.41541 0.19419,-0.80697 0.55132,-1.01988c0.35713,-0.21291 0.80223,-0.21291 1.15936,0c0.35713,0.21291 0.56879,0.60447 0.55132,1.01988" fill="#814915"/><path d="M216.952,168.02c0.00133,0.30056 -0.11714,0.58927 -0.3292,0.80226c-0.21206,0.213 -0.50024,0.33274 -0.8008,0.33274c-0.30023,-0.00053 -0.58794,-0.1203 -0.79986,-0.33297c-0.21192,-0.21267 -0.33067,-0.50081 -0.33014,-0.80103c0.02548,-0.6056 0.52386,-1.08345 1.13,-1.08345c0.60614,0 1.10452,0.47785 1.13,1.08345" fill="#ce8f64"/><path d="M216.187,167.418c0.206,0 0.3,0.303 0.4,0.628c0.063,0.207 0.131,0.421 0.227,0.524c-0.013,0.017 -0.024,0.035 -0.036,0.052c-0.108,-0.107 -0.178,-0.329 -0.25,-0.561c-0.087,-0.286 -0.178,-0.584 -0.342,-0.584c-0.166,0 -0.257,0.298 -0.346,0.584c-0.099,0.323 -0.192,0.629 -0.404,0.629c-0.207,0 -0.298,-0.306 -0.401,-0.629c-0.067,-0.214 -0.133,-0.436 -0.233,-0.532c0.01052,-0.01771 0.01987,-0.03608 0.028,-0.055c0.12,0.101 0.19,0.33 0.264,0.572c0.09,0.286 0.182,0.583 0.342,0.583c0.164,0 0.255,-0.297 0.345,-0.583c0.1,-0.325 0.195,-0.628 0.405,-0.628" fill="#fddeba"/><path d="M219.194,168.02c0.01226,0.41263 -0.20087,0.79927 -0.55631,1.0092c-0.35544,0.20994 -0.79694,0.20994 -1.15238,0c-0.35544,-0.20994 -0.56857,-0.59658 -0.55631,-1.0092c-0.01226,-0.41263 0.20087,-0.79927 0.55631,-1.0092c0.35544,-0.20994 0.79694,-0.20994 1.15238,0c0.35544,0.20994 0.56857,0.59658 0.55631,1.0092" fill="#814915"/><path d="M221.433,168.02c0,0.627 -0.504,1.135 -1.131,1.135c-0.30023,-0.00053 -0.58794,-0.1203 -0.79986,-0.33297c-0.21192,-0.21267 -0.33067,-0.50081 -0.33014,-0.80103c0.02548,-0.6056 0.52386,-1.08345 1.13,-1.08345c0.60614,0 1.10452,0.47785 1.13,1.08345" fill="#814915"/><path d="M221.386,168.02l-0.397,0.223l0.192,0.415l-0.455,-0.053l-0.09,0.45l-0.333,-0.308l-0.336,0.308l-0.09,-0.45l-0.453,0.053l0.192,-0.415l-0.399,-0.222l0.4,-0.225l-0.193,-0.412l0.454,0.048l0.09,-0.445l0.335,0.307l0.333,-0.307l0.09,0.445l0.455,-0.048l-0.192,0.412z" fill="#482c15"/><path d="M220.613,168.02c0,0.17121 -0.13879,0.31 -0.31,0.31c-0.17121,0 -0.31,-0.13879 -0.31,-0.31c0,-0.17148 0.13902,-0.3105 0.3105,-0.3105c0.17148,0 0.3105,0.13902 0.3105,0.3105" fill="#f0c0da"/><path d="M209.086,166.082c0.01226,0.41263 -0.20087,0.79927 -0.55631,1.0092c-0.35544,0.20994 -0.79694,0.20994 -1.15238,0c-0.35544,-0.20994 -0.56857,-0.59658 -0.55631,-1.0092c0.0182,-0.61236 0.51987,-1.09934 1.1325,-1.09934c0.61263,0 1.1143,0.48698 1.1325,1.09934" fill="#814915"/><path d="M208.592,166.139l0.057,-0.296l-0.227,-0.175l-0.253,0.382l0.423,0.09zM208.579,166.198l-0.445,-0.094l-0.228,0.347l0.568,0.293zM208.066,166.094l-0.35,-0.077l-0.079,0.299l0.214,0.109zM207.818,166.475l-0.196,-0.1l-0.176,0.668zM207.583,166.288l0.072,-0.284l-0.423,-0.085l-0.098,0.137zM207.274,165.867l0.398,0.08l0.186,-0.711l-0.09,-0.072zM207.912,165.273l-0.183,0.686l0.373,0.08l0.27,-0.408l-0.46,-0.357zM209.074,166.24l-0.007,0.061l-0.427,-0.09l-0.111,0.565l0.22,0.11c-0.01403,0.01714 -0.03095,0.03169 -0.05,0.043l-0.183,-0.094l-0.05,0.258l-0.067,0.03l0.06,-0.316l-0.588,-0.303l-0.397,0.602c-0.03,-0.013 -0.064,-0.033 -0.094,-0.05l0.186,-0.709l-0.467,-0.24l-0.224,0.316c-0.007,-0.022 -0.013,-0.05 -0.02,-0.076l0.192,-0.269l-0.22,-0.111l0.008,-0.061l0.249,0.124l0.087,-0.124l-0.322,-0.068c0.006,-0.017 0.01,-0.041 0.017,-0.057l0.34,0.07l0.516,-0.722l-0.146,-0.113c0.02159,-0.01031 0.04446,-0.01771 0.068,-0.022l0.111,0.083l0.087,-0.122c0.02626,-0.00271 0.05261,-0.00438 0.079,-0.005l-0.116,0.164l0.072,0.056l0.057,-0.22h0.063l-0.067,0.259l0.477,0.37l0.25,-0.387c0.016,0.014 0.031,0.031 0.048,0.044l-0.25,0.378l0.207,0.163l0.098,-0.493c0.015,0.02 0.035,0.039 0.052,0.057l-0.093,0.48l0.368,0.281c-0.002,0.026 -0.005,0.05 -0.005,0.074l-0.377,-0.292l-0.056,0.268z" fill="#fddeba"/><path d="M211.325,166.082c0,0.62519 -0.50681,1.132 -1.132,1.132c-0.62519,0 -1.132,-0.50681 -1.132,-1.132c0,-0.62519 0.50681,-1.132 1.132,-1.132c0.62519,0 1.132,0.50681 1.132,1.132" fill="#814915"/><path d="M209.727,165.601h-0.343l0.157,-0.264zM209.689,166.16l-0.133,-0.186l-0.172,0.26zM210.131,166.696l-0.132,-0.22l-0.166,0.319zM209.651,166.668l-0.153,-0.218l0.19,-0.057zM210.212,165.958l-0.23,-0.17l0.23,-0.188zM209.983,165.496l-0.057,-0.16l0.204,-0.063zM210.576,166.448v-0.316l-0.29,0.142zM210.552,166.766l-0.192,0.1l0.035,-0.198zM211.158,166.365l-0.202,0.11l0.045,-0.279zM211.058,165.829l-0.305,0.055l0.17,-0.236zM210.753,165.31l-0.246,0.134l0.045,-0.227zM209.33,165.907l-0.088,0.05l0.033,-0.097z" fill="#fddeba"/><path d="M213.566,166.082c-0.00055,0.62574 -0.50826,1.13255 -1.134,1.132c-0.62574,-0.00055 -1.13255,-0.50826 -1.132,-1.134c0.00055,-0.62574 0.50826,-1.13255 1.134,-1.132c0.62574,0.00055 1.13255,0.50826 1.132,1.134" fill="#814915"/><path d="M215.094,165.03c0.38241,0.14591 0.65627,0.48688 0.71624,0.89176c0.05997,0.40488 -0.10328,0.8106 -0.42697,1.0611c-0.32369,0.2505 -0.75739,0.30676 -1.13428,0.14714c-0.56835,-0.24071 -0.83911,-0.89234 -0.60871,-1.46494c0.2304,-0.5726 0.87704,-0.85509 1.45371,-0.63506" fill="#814915"/><path d="M213.63,165.643c0.24033,-0.56739 0.89062,-0.83799 1.46251,-0.60858c0.57189,0.22941 0.8549,0.8744 0.63649,1.45058l-2.099,-0.842" fill="#482c15"/><path d="M209.74,161.14c0.58675,-0.21539 1.23721,0.08414 1.455,0.67c0.10484,0.28175 0.09309,0.59366 -0.03265,0.86673c-0.12574,0.27306 -0.35511,0.48477 -0.63735,0.58827c-0.28147,0.10478 -0.59311,0.09298 -0.86585,-0.03279c-0.27274,-0.12577 -0.48407,-0.35511 -0.58715,-0.63721c-0.10499,-0.28137 -0.09367,-0.59295 0.03148,-0.86595c0.12515,-0.273 0.35382,-0.48495 0.63552,-0.58905" fill="#fddeba"/><path d="M209.067,162.578c-0.205,-0.583 0.093,-1.222 0.673,-1.438c0.57941,-0.21322 1.22288,0.07671 1.447,0.652l-2.12,0.786" fill="#482c15"/><path d="M218.044,166.082c0,0.624 -0.508,1.132 -1.13,1.132c-0.45803,0.00081 -0.87141,-0.27448 -1.04726,-0.69741c-0.17584,-0.42293 -0.07949,-0.91016 0.2441,-1.23432c0.32359,-0.32416 0.81064,-0.42138 1.23389,-0.24629c0.42325,0.17509 0.69926,0.58799 0.69927,1.04602" fill="#814915"/><path d="M217.872,166.082l-0.275,0.222l0.092,0.343l-0.353,0.017l-0.127,0.332l-0.294,-0.194l-0.3,0.194l-0.123,-0.332l-0.357,-0.017l0.096,-0.343l-0.28,-0.222l0.28,-0.223l-0.096,-0.345l0.357,-0.015l0.122,-0.331l0.301,0.194l0.294,-0.194l0.127,0.331l0.353,0.015l-0.092,0.345z" fill="#482c15"/><path d="M217.361,166.082l-0.218,0.231l-0.229,0.218l-0.233,-0.218l-0.22,-0.231l0.22,-0.234l0.233,-0.218l0.23,0.218z" fill="#ce8f64"/><path d="M219.402,164.975c0.608,0.14 0.992,0.748 0.854,1.36c-0.13918,0.60972 -0.74628,0.99118 -1.356,0.852c-0.60972,-0.13918 -0.99118,-0.74628 -0.852,-1.356c0.14,-0.612 0.746,-0.994 1.354,-0.856" fill="#fddeba"/><path d="M219.077,165.348l-0.225,0.185l0.32,0.332l0.177,-0.393zM219.916,165.724l-0.51,-0.23l-0.19,0.419l0.286,0.299l0.414,-0.489zM219.465,166.26l-0.28,-0.288l-0.147,0.329l0.27,0.142l0.156,-0.183zM219.976,166.792l-0.47,-0.488l-0.142,0.168l0.613,0.32zM219.268,166.491l-0.255,-0.132l-0.177,0.39l0.11,0.126zM218.218,166.058l0.571,0.64l0.17,-0.37l-0.654,-0.343l-0.087,0.072zM218.982,166.274l0.16,-0.35l-0.336,-0.353l-0.451,0.373zM219.376,165.416l0.18,-0.393c0.01839,0.0071 0.03641,0.01511 0.054,0.024l-0.178,0.393l0.522,0.233l0.16,-0.188c0.009,0.02 0.022,0.037 0.033,0.057l-0.135,0.159l0.237,0.105c0.007,0.026 0.013,0.048 0.018,0.074l-0.297,-0.132l-0.425,0.51l0.499,0.52c-0.02238,0.02869 -0.04714,0.05545 -0.074,0.08l-0.647,-0.338l-0.336,0.401l0.257,0.29c-0.026,0.002 -0.052,0.002 -0.078,0.002l-0.22,-0.246l-0.157,0.188c-0.022,-0.007 -0.037,-0.016 -0.059,-0.024l0.176,-0.21l-0.1,-0.113l-0.137,0.296c-0.017,-0.008 -0.035,-0.019 -0.055,-0.026l0.149,-0.318l-0.593,-0.666l-0.14,0.118c-0.004,-0.024 -0.004,-0.048 -0.006,-0.072l0.107,-0.089l-0.1,-0.114c0.00228,-0.02612 0.00561,-0.05215 0.01,-0.078l0.137,0.152l0.07,-0.056l-0.205,-0.107c0.005,-0.007 0.005,-0.013 0.005,-0.018c0.004,-0.017 0.006,-0.028 0.013,-0.043l0.237,0.124l0.465,-0.382l-0.318,-0.332c0.01742,-0.01128 0.03412,-0.02364 0.05,-0.037l0.316,0.33l0.202,-0.168l-0.455,-0.205c0.019,-0.011 0.041,-0.025 0.063,-0.035l0.444,0.196l0.36,-0.295c0.024,0.003 0.046,0.012 0.07,0.02l-0.368,0.303l0.248,0.11z" fill="#482c15"/><path d="M210.173,164.14c0,0.62408 -0.50592,1.13 -1.13,1.13c-0.62408,0 -1.13,-0.50592 -1.13,-1.13c0,-0.623 0.506,-1.132 1.13,-1.132c0.625,0 1.13,0.509 1.13,1.133" fill="#814915"/><path d="M212.415,164.14c0.0008,0.30039 -0.11804,0.58873 -0.33026,0.80132c-0.21222,0.21259 -0.50035,0.33194 -0.80074,0.33168c-0.45794,0.0004 -0.87102,-0.27514 -1.04654,-0.69811c-0.17553,-0.42297 -0.07893,-0.91002 0.24475,-1.23398c0.32367,-0.32396 0.81064,-0.42099 1.23376,-0.24584c0.42312,0.17515 0.69903,0.58798 0.69903,1.04593" fill="#482c15"/><path d="M210.156,164.219c-0.004,-0.025 -0.004,-0.046 -0.004,-0.07l1.704,0.968c-0.021,0.013 -0.043,0.022 -0.063,0.037l-1.637,-0.936M212.351,163.774c0.011,0.022 0.016,0.048 0.026,0.074l-1.628,-0.706c0.02413,-0.01216 0.04883,-0.02317 0.074,-0.033l1.527,0.665M210.625,163.221l0.05,-0.035l1.277,1.868c-0.01589,0.01214 -0.03259,0.02316 -0.05,0.033l-1.277,-1.866" fill="#fddeba"/><path d="M214.654,164.14c0,0.63 -0.504,1.133 -1.131,1.133c-0.45794,0.0004 -0.87102,-0.27514 -1.04654,-0.69811c-0.17553,-0.42297 -0.07893,-0.91002 0.24475,-1.23398c0.32367,-0.32396 0.81064,-0.42099 1.23376,-0.24584c0.42312,0.17515 0.69903,0.58798 0.69903,1.04593" fill="#814915"/><path d="M213.932,163.888c0.068,-0.085 0.059,-0.174 0.039,-0.266c-0.098,-0.004 -0.183,-0.002 -0.261,0.082c-0.076,0.088 -0.065,0.18 -0.048,0.28c0.105,0 0.198,-0.004 0.27,-0.096M213.566,164.329c0.076,-0.09 0.066,-0.182 0.048,-0.282c-0.1,-0.002 -0.196,0.002 -0.27,0.092c-0.068,0.086 -0.059,0.175 -0.035,0.266c0.094,0.009 0.183,0.005 0.257,-0.077M213.233,164.767c0.076,-0.096 0.052,-0.196 0.024,-0.301c-0.105,-0.008 -0.207,-0.017 -0.29,0.079c-0.086,0.093 -0.066,0.194 -0.046,0.303v0.015h0.015c0.114,0.003 0.218,0.003 0.297,-0.096M214.357,163.526c-0.098,0.111 -0.215,0.107 -0.324,0.1c0.019,0.096 0.028,0.203 -0.055,0.302c-0.087,0.109 -0.198,0.12 -0.303,0.12c0.02,0.1 0.028,0.215 -0.065,0.32c-0.086,0.096 -0.188,0.107 -0.286,0.103c0.022,0.104 0.046,0.227 -0.048,0.34c-0.096,0.12 -0.224,0.12 -0.34,0.12h-0.002c0.01004,0.05686 0.00557,0.11533 -0.013,0.17c-0.01751,-0.01041 -0.03423,-0.02211 -0.05,-0.035c0.00971,-0.0465 0.00971,-0.0945 0,-0.141c-0.04849,-0.00205 -0.09687,0.00613 -0.142,0.024c-0.015,-0.011 -0.026,-0.029 -0.041,-0.046c0.0536,-0.02608 0.11239,-0.03975 0.172,-0.04v-0.004c-0.02,-0.111 -0.046,-0.238 0.059,-0.356c0.096,-0.109 0.217,-0.109 0.327,-0.1c-0.02,-0.096 -0.028,-0.198 0.052,-0.301c0.087,-0.109 0.201,-0.118 0.303,-0.118c-0.017,-0.102 -0.026,-0.216 0.068,-0.321c0.082,-0.096 0.191,-0.104 0.287,-0.098c-0.026,-0.106 -0.048,-0.224 0.042,-0.336c0.02278,-0.02988 0.05178,-0.05445 0.085,-0.072c0.014,0.011 0.037,0.024 0.054,0.037c-0.0354,0.01348 -0.0665,0.03628 -0.09,0.066c-0.076,0.098 -0.054,0.201 -0.03,0.305c0.111,0.007 0.214,0.011 0.294,-0.08c0.02662,-0.02766 0.04558,-0.06178 0.055,-0.099c0.016,0.02 0.031,0.035 0.046,0.055c-0.01252,0.0317 -0.03121,0.06059 -0.055,0.085" fill="#fddeba"/><path d="M216.03,163.041c0.60807,0.14912 0.98012,0.76293 0.831,1.371c-0.14912,0.60807 -0.76293,0.98012 -1.371,0.831c-0.60583,-0.15296 -0.9747,-0.76612 -0.826,-1.373c0.148,-0.604 0.76,-0.977 1.367,-0.829" fill="#814915"/><path d="M216.029,163.064l0.575,1.285l-1.105,0.87l-0.58,-1.285z" fill="#482c15"/><path d="M219.134,164.14c0,0.62463 -0.50637,1.131 -1.131,1.131c-0.62463,0 -1.131,-0.50637 -1.131,-1.131c-0.01747,-0.41541 0.19419,-0.80697 0.55132,-1.01988c0.35713,-0.21291 0.80223,-0.21291 1.15936,0c0.35713,0.21291 0.56879,0.60447 0.55132,1.01988M213.504,162.203c0.01297,0.41259 -0.19948,0.79959 -0.55455,1.01014c-0.35506,0.21055 -0.79654,0.21133 -1.15234,0.00204c-0.3558,-0.20929 -0.56962,-0.59554 -0.55811,-1.00817c0.01709,-0.61242 0.5179,-1.10032 1.13056,-1.1014c0.61266,-0.00108 1.11519,0.48505 1.13444,1.0974" fill="#814915"/><path d="M215.743,162.203c0,0.62463 -0.50637,1.131 -1.131,1.131c-0.62463,0 -1.131,-0.50637 -1.131,-1.131c0,-0.628 0.504,-1.13 1.131,-1.13c0.628,0 1.131,0.502 1.131,1.13" fill="#ce8f64"/><path d="M214.15,161.719h-0.347l0.157,-0.262zM214.108,162.282l-0.133,-0.185l-0.173,0.257zM214.552,162.819l-0.133,-0.22l-0.168,0.319zM214.07,162.791l-0.155,-0.218l0.192,-0.059zM214.63,162.079l-0.228,-0.168l0.228,-0.191zM214.401,161.613l-0.057,-0.156l0.207,-0.06zM214.995,162.571v-0.316l-0.29,0.142zM214.97,162.889l-0.191,0.098l0.032,-0.197zM215.577,162.487l-0.203,0.112l0.046,-0.28zM215.476,161.95l-0.305,0.055l0.172,-0.235zM215.171,161.433l-0.246,0.133l0.045,-0.227zM213.748,162.03l-0.087,0.048l0.033,-0.093zM217.985,162.203" fill="#482c15"/><path d="M216.512,163.283c-0.022,-0.006 -0.044,-0.017 -0.065,-0.023l-0.273,-1.96c0.01734,-0.01612 0.03647,-0.03021 0.057,-0.042l0.281,2.025M215.92,162.846c-0.018,-0.026 -0.035,-0.052 -0.048,-0.08l0.192,-1.375c0.02192,-0.02326 0.04603,-0.04436 0.072,-0.063l-0.216,1.518M217.351,163.22c-0.01951,0.01075 -0.03992,0.01978 -0.061,0.027l-0.288,-2.08l-0.323,2.153c-0.019,-0.002 -0.039,-0.004 -0.06,-0.008l0.336,-2.237c0.03335,0.00419 0.06668,0.00853 0.1,0.013zM217.584,163.066c-0.024,0.017 -0.045,0.037 -0.067,0.052l0.224,-1.61l0.055,0.068l-0.212,1.49" fill="#814915"/><path d="M213.979,161.27c-0.5556,0.28581 -1.23769,0.0671 -1.5235,-0.4885c-0.28581,-0.5556 -0.0671,-1.23769 0.4885,-1.5235c0.5556,-0.28581 1.23769,-0.0671 1.5235,0.4885c0.28581,0.5556 0.0671,1.23769 -0.4885,1.5235" fill="#482c15"/><path d="M214.164,160.31c0.096,0.186 -0.133,0.41 -0.375,0.646c-0.154,0.15 -0.314,0.31 -0.362,0.44c-0.023,0 -0.041,-0.002 -0.063,-0.004c0.046,-0.146 0.21,-0.31 0.384,-0.48c0.214,-0.21 0.436,-0.428 0.364,-0.574c-0.078,-0.147 -0.384,-0.092 -0.678,-0.037c-0.333,0.057 -0.647,0.111 -0.741,-0.072c-0.099,-0.188 0.133,-0.412 0.371,-0.645c0.163,-0.156 0.326,-0.32 0.366,-0.45c0.024,-0.002 0.045,-0.002 0.067,-0.002c-0.037,0.15 -0.211,0.318 -0.39,0.495c-0.213,0.209 -0.436,0.424 -0.362,0.574c0.076,0.146 0.38,0.091 0.676,0.037c0.333,-0.059 0.647,-0.112 0.743,0.072" fill="#fddeba"/><path d="M216.833,160.264c0,0.624 -0.505,1.134 -1.131,1.134c-0.60724,-0.02552 -1.08639,-0.52523 -1.08639,-1.133c0,-0.60777 0.47915,-1.10748 1.08639,-1.133c0.626,0 1.131,0.508 1.131,1.132" fill="#482c15"/><path d="M216.682,160.264c0.00055,0.54179 -0.43821,0.98145 -0.98,0.982c-0.54179,0.00055 -0.98145,-0.43821 -0.982,-0.98c-0.00055,-0.54179 0.43821,-0.98145 0.98,-0.982c0.54179,-0.00055 0.98145,0.43821 0.982,0.98" fill="#fddeba"/><path d="M216.503,160.264c0,0.44238 -0.35862,0.801 -0.801,0.801c-0.44238,0 -0.801,-0.35862 -0.801,-0.801c0,-0.443 0.36,-0.805 0.802,-0.805c0.443,0 0.8,0.362 0.8,0.805" fill="#814915"/><path d="M216.071,160.264c0.00055,0.20435 -0.16465,0.37045 -0.369,0.371c-0.20435,0.00055 -0.37045,-0.16465 -0.371,-0.369c-0.00055,-0.20435 0.16465,-0.37045 0.369,-0.371c0.20435,-0.00055 0.37045,0.16465 0.371,0.369" fill="#482c15"/><path d="M213.443,158.325c0,0.62408 -0.50592,1.13 -1.13,1.13c-0.62408,0 -1.13,-0.50592 -1.13,-1.13c0,-0.62408 0.50592,-1.13 1.13,-1.13c0.62408,0 1.13,0.50592 1.13,1.13" fill="#fddeba"/><path d="M211.617,157.858c0.017,0.064 -0.005,0.12 -0.044,0.131c-0.037,0.007 -0.078,-0.035 -0.092,-0.096c-0.015,-0.063 0,-0.12 0.04,-0.126c0.039,-0.011 0.08,0.03 0.096,0.091M212.793,158.41c-0.006,0.077 -0.05,0.133 -0.095,0.129c-0.046,-0.007 -0.077,-0.072 -0.068,-0.144c0.007,-0.076 0.05,-0.129 0.096,-0.124c0.048,0.002 0.076,0.067 0.067,0.14M211.534,158.433c-0.038,0.034 -0.081,0.045 -0.105,0.026c-0.022,-0.024 -0.011,-0.07 0.026,-0.105c0.033,-0.035 0.08,-0.046 0.105,-0.024c0.021,0.02 0.01,0.065 -0.026,0.103M212.023,158.786c-0.007,0.072 -0.046,0.127 -0.09,0.125c-0.045,-0.005 -0.073,-0.064 -0.07,-0.133c0.007,-0.072 0.045,-0.13 0.09,-0.123c0.044,0.003 0.074,0.06 0.07,0.131M212.319,157.603c-0.03,0.063 -0.085,0.1 -0.127,0.083c-0.039,-0.018 -0.048,-0.083 -0.017,-0.15c0.028,-0.064 0.085,-0.1 0.124,-0.082c0.04,0.018 0.05,0.085 0.02,0.149M212.598,158.004c0.024,0.048 0.02,0.099 -0.011,0.114c-0.03,0.013 -0.072,-0.015 -0.096,-0.061c-0.024,-0.046 -0.02,-0.098 0.013,-0.114c0.028,-0.013 0.07,0.013 0.094,0.061M212.238,159.139c-0.015,0.052 -0.052,0.085 -0.083,0.076c-0.035,-0.01 -0.046,-0.059 -0.033,-0.113c0.018,-0.05 0.057,-0.083 0.085,-0.072c0.035,0.009 0.048,0.059 0.03,0.109M212.049,158.102c0,0.046 -0.027,0.085 -0.057,0.085c-0.028,0 -0.055,-0.039 -0.052,-0.087c0,-0.05 0.026,-0.09 0.058,-0.09c0.027,0 0.053,0.042 0.05,0.092M213.015,158.889c0,0.05 -0.024,0.087 -0.052,0.087c-0.03,0 -0.057,-0.042 -0.055,-0.09c0.002,-0.048 0.028,-0.087 0.059,-0.087c0.028,0 0.05,0.042 0.048,0.09M211.925,157.752c-0.015,0.046 -0.048,0.078 -0.076,0.07c-0.028,-0.01 -0.042,-0.055 -0.028,-0.1c0.015,-0.047 0.05,-0.077 0.076,-0.068c0.028,0.006 0.041,0.052 0.028,0.098M213.015,157.929c-0.007,0.046 -0.037,0.083 -0.068,0.076c-0.028,-0.004 -0.045,-0.048 -0.037,-0.094c0.009,-0.048 0.037,-0.085 0.068,-0.08c0.03,0.006 0.048,0.048 0.037,0.098M212.562,158.905c0.024,0.067 0.006,0.13 -0.033,0.144c-0.04,0.01 -0.092,-0.03 -0.111,-0.096c-0.022,-0.066 -0.005,-0.131 0.032,-0.142c0.042,-0.013 0.092,0.03 0.112,0.094M212.234,158.568c0.01,0.035 0.002,0.065 -0.022,0.074c-0.02,0.007 -0.044,-0.015 -0.054,-0.048c-0.011,-0.037 -0.003,-0.067 0.017,-0.074c0.02,-0.009 0.046,0.015 0.059,0.048M211.627,158.75c0.01,0.034 0.002,0.069 -0.017,0.073c-0.022,0.007 -0.046,-0.015 -0.06,-0.048c-0.01,-0.035 -0.001,-0.067 0.02,-0.074c0.018,-0.006 0.044,0.013 0.057,0.048M212.776,157.6c0.014,0.032 0.003,0.067 -0.02,0.074c-0.019,0.004 -0.043,-0.018 -0.054,-0.053c-0.008,-0.03 -0.004,-0.065 0.016,-0.07c0.021,-0.008 0.045,0.016 0.058,0.048M213.14,158.325c0.011,0.033 0.003,0.068 -0.017,0.076c-0.024,0.005 -0.046,-0.017 -0.059,-0.05c-0.01,-0.035 -0.002,-0.068 0.018,-0.074c0.02,-0.007 0.045,0.015 0.058,0.048M213.26,157.988c-0.013,0.035 -0.044,0.055 -0.064,0.044c-0.02,-0.007 -0.021,-0.04 -0.008,-0.074c0.015,-0.03 0.041,-0.05 0.063,-0.044c0.017,0.009 0.022,0.042 0.009,0.074" fill="#f0c0da"/><path d="M214.532,156.385c0.0133,0.4122 -0.19863,0.79902 -0.55318,1.00969c-0.35455,0.21066 -0.79562,0.21183 -1.15129,0.00305c-0.35567,-0.20878 -0.56964,-0.59447 -0.55853,-1.00674c0.0165,-0.61192 0.51645,-1.09987 1.12859,-1.10149c0.61214,-0.00162 1.11467,0.48367 1.13441,1.09549" fill="#814915"/><path d="M215.635,158.657c-0.185,0.596 -0.82,0.934 -1.415,0.749c-0.28686,-0.08737 -0.52701,-0.28554 -0.66724,-0.5506c-0.14023,-0.26506 -0.16893,-0.5751 -0.07976,-0.8614c0.179,-0.6 0.813,-0.936 1.408,-0.753c0.601,0.186 0.937,0.816 0.754,1.416" fill="#482c15"/><path d="M215.614,158.649l-1.317,0.508l-0.808,-1.156l1.316,-0.506zM212.357,160.264c0,0.624 -0.51,1.134 -1.135,1.134c-0.624,0 -1.134,-0.51 -1.134,-1.134c0,-0.62684 0.50816,-1.135 1.135,-1.135c0.62684,0 1.135,0.50816 1.135,1.135" fill="#814915"/><path d="M212.31,160.264l-0.4,0.225l0.191,0.414l-0.453,-0.054l-0.09,0.451l-0.335,-0.312l-0.336,0.312l-0.09,-0.451l-0.453,0.054l0.192,-0.414l-0.4,-0.225l0.4,-0.225l-0.192,-0.417l0.454,0.055l0.09,-0.45l0.335,0.313l0.335,-0.312l0.09,0.449l0.453,-0.055l-0.192,0.417z" fill="#482c15"/><path d="M211.535,160.264c0,0.17231 -0.13969,0.312 -0.312,0.312c-0.17231,0 -0.312,-0.13969 -0.312,-0.312c0,-0.17231 0.13969,-0.312 0.312,-0.312c0.17231,0 0.312,0.13969 0.312,0.312" fill="#fddeba"/><path d="M223.536,173.752c-0.312,2.077 -1.337,3.642 -2.291,3.498c-0.957,-0.142 -1.484,-1.94 -1.175,-4.015c0.307,-2.073 1.334,-3.64 2.295,-3.495c0.953,0.146 1.482,1.94 1.17,4.012" data-paper-data="{&quot;origPos&quot;:null}" fill="#7a5c4e"/><path d="M263.269,201.276c0,0 -1.197,-9 -2.77,-11.232c-0.083,-0.117 -0.16,-0.226 -0.232,-0.331c1.537,9.124 1.35,20.171 1.35,20.171v2.105h-29.439v-2.103c0,0 -0.29,-13.809 1.875,-23.173c-0.543,0.246 -6.973,2.793 -9.117,2.011c-2.764,-1.001 -6.844,-9.576 -6.844,-9.576l4.419,-2.175l5.13,5.963l9.783,-3.831c1.929,-1.257 7.783,-1.464 7.783,-1.464l1.624,0.048h0.135l1.626,-0.048c0,0 5.83,0.187 7.772,1.444c0.782,0.428 5.131,2.88 6.628,4.8c3.396,4.34 4.873,17.396 4.873,17.396l-4.596,-0.005" fill="#eeeeed"/><path d="M241.586,177.958v34.03h0.125v-34.047c-0.042,0.006 -0.083,0.01 -0.125,0.017M252.06,177.93v34.06h0.122v-34.044c-0.04,-0.007 -0.08,-0.009 -0.122,-0.015M243.826,185.169c0,0.35098 -0.28452,0.6355 -0.6355,0.6355c-0.35098,0 -0.6355,-0.28452 -0.6355,-0.6355c0.01891,-0.33687 0.2976,-0.60035 0.635,-0.60035c0.3374,0 0.61609,0.26348 0.635,0.60035M243.826,189.473c-0.01354,0.34118 -0.29406,0.61079 -0.6355,0.61079c-0.34144,0 -0.62196,-0.26961 -0.6355,-0.61079c-0.01321,-0.23537 0.10484,-0.45874 0.30676,-0.5804c0.20192,-0.12166 0.45457,-0.12166 0.65648,0c0.20192,0.12166 0.31997,0.34503 0.30676,0.5804M243.826,193.774c0.00055,0.35153 -0.28397,0.63695 -0.6355,0.6375c-0.35153,0.00055 -0.63695,-0.28397 -0.6375,-0.6355c-0.00055,-0.35153 0.28397,-0.63695 0.6355,-0.6375c0.35153,-0.00055 0.63695,0.28397 0.6375,0.6355M243.826,198.076c0,0.35098 -0.28452,0.6355 -0.6355,0.6355c-0.35098,0 -0.6355,-0.28452 -0.6355,-0.6355c-0.01321,-0.23537 0.10484,-0.45874 0.30676,-0.5804c0.20192,-0.12166 0.45457,-0.12166 0.65648,0c0.20192,0.12166 0.31997,0.34503 0.30676,0.5804M243.826,202.377c0,0.35098 -0.28452,0.6355 -0.6355,0.6355c-0.35098,0 -0.6355,-0.28452 -0.6355,-0.6355c0.01891,-0.33687 0.2976,-0.60035 0.635,-0.60035c0.3374,0 0.61609,0.26348 0.635,0.60035M251.27,189.473c0,0.35 -0.287,0.635 -0.633,0.635c-0.35181,0 -0.637,-0.28519 -0.637,-0.637c0,-0.35181 0.28519,-0.637 0.637,-0.637c0.346,0 0.634,0.284 0.634,0.64M251.27,193.774c-0.00054,0.35002 -0.28299,0.63426 -0.633,0.637c-0.35181,0 -0.637,-0.28519 -0.637,-0.637c0,-0.35181 0.28519,-0.637 0.637,-0.637c0.346,0 0.634,0.284 0.634,0.637M251.27,202.377" fill="#c6c5c6"/><path d="M255.875,220.51c-2.856,3.537 -14.956,3.214 -18.169,0c-2.099,-2.103 0,-11.897 0,-11.897h18.169c0,0 1.865,9.58 0,11.897" fill="#264775"/><path d="M232.179,209.881c0,-0.087 -0.028,-1.453 0,-3.576h29.423c0.039,2.143 0.015,3.513 0.015,3.576h-29.438" fill="#264775"/><path d="M250.081,177.591c0.17,0.019 0.353,0.039 0.547,0.063l-3.83,2.21l-3.36,-2.225c0.176,-0.016 0.344,-0.035 0.501,-0.049c-0.272,-0.612 -0.442,-1.306 -0.442,-1.74h7.026c0,0.434 -0.167,1.128 -0.442,1.74" data-paper-data="{&quot;origPos&quot;:null}" fill="#7a5c4e"/><path d="M244.252,178.174c-0.4,-0.606 -0.676,-1.444 -0.74,-2.05c2.31862,0.37468 4.683,0.36658 6.999,-0.024l-0.013,0.013l-6.247,2.061" fill="#eeac6c"/><path d="M249.943,179.669c-1.324,0.401 -4.17,0.351 -5.534,0.116c-0.399,-0.07 -0.687,-0.325 -0.9,-0.537c-0.556,-0.554 0,-3.146 0,-3.146c1.127,0.187 3.232,1.208 3.465,3.495c0.209,-2.297 2.358,-3.31 3.496,-3.497c0,0 0.495,2.537 0,3.148c-0.032,0.039 -0.065,0.074 -0.102,0.113l-0.112,0.098c-0.091,0.075 -0.187,0.17 -0.313,0.21" fill="#eeeeed"/><path d="M246.914,179.605c-0.242,-1.575 -1.157,-2.426 -1.88,-2.862c-0.79,-0.476 -1.524,-0.579 -1.53,-0.583l0.012,-0.118c0.033,0.007 0.772,0.107 1.576,0.594c0.75,0.451 1.69,1.328 1.944,2.952z" fill="#c6c5c6"/><path d="M247.035,179.603l-0.122,-0.01c0.307,-2.927 3.513,-3.548 3.546,-3.553l0.022,0.118c-0.033,0.007 -3.147,0.613 -3.446,3.445" data-paper-data="{&quot;origPos&quot;:null}" fill="#c6c5c6"/><path d="M243.283,178.62c0,0 0.007,0.033 0.017,0.096c0.03167,0.23137 0.1348,0.44708 0.295,0.617c0.06,0.057 0.126,0.11 0.202,0.16c0.079,0.045 0.164,0.091 0.258,0.126c0.372,0.146 0.845,0.212 1.349,0.247c0.255,0.02 0.516,0.026 0.782,0.035c0.266,0.002 0.536,0.002 0.809,0.002c0.268,0 0.54,0 0.806,-0.009c0.266,-0.007 0.53,-0.015 0.783,-0.033c0.252,-0.02 0.496,-0.043 0.723,-0.085c0.225,-0.043 0.44,-0.096 0.623,-0.174c0.16973,-0.06852 0.32307,-0.17212 0.45,-0.304c0.15325,-0.17557 0.25072,-0.3928 0.28,-0.624l0.01,-0.072c0,-0.017 0.006,-0.026 0.006,-0.026c0,0 -0.007,0.009 -0.007,0.026c0,0.016 0,0.04 -0.004,0.072c-0.00625,0.0926 -0.02302,0.18419 -0.05,0.273c-0.041,0.13981 -0.11008,0.26978 -0.203,0.382c-0.12481,0.14356 -0.27939,0.25822 -0.453,0.336c-0.20311,0.09267 -0.41715,0.1592 -0.637,0.198c-0.24098,0.04979 -0.48476,0.08485 -0.73,0.105c-0.253,0.02 -0.518,0.035 -0.787,0.044c-0.54084,0.01822 -1.08212,0.01889 -1.623,0.002c-0.268,-0.004 -0.53,-0.017 -0.783,-0.04c-0.24631,-0.01993 -0.49134,-0.05332 -0.734,-0.1c-0.21851,-0.04039 -0.43207,-0.10408 -0.637,-0.19c-0.09058,-0.04071 -0.17727,-0.08958 -0.259,-0.146c-0.07666,-0.04741 -0.14577,-0.10606 -0.205,-0.174c-0.09739,-0.10889 -0.17157,-0.23649 -0.218,-0.375c-0.037,-0.114 -0.046,-0.21 -0.054,-0.273l-0.009,-0.096" fill="#c6c5c6"/><path d="M245.535,177.643c-0.6,-0.079 -1.24,-0.256 -1.853,-0.404c-0.046,0.301 -0.096,0.58 -0.144,0.84c0.6,0.4 1.227,0.744 1.818,0.842c0.059,-0.432 0.118,-0.862 0.179,-1.278M243.637,177.185c0.645,0.144 1.327,0.327 1.959,0.405c-0.066,0.456 -0.129,0.923 -0.194,1.399c-0.621,-0.085 -1.29,-0.467 -1.925,-0.908c0.053,-0.275 0.105,-0.574 0.16,-0.896" fill="#c8930f"/><path d="M244.758,178.741c0.052,-0.395 0.109,-0.803 0.166,-1.211c0.20205,0.04458 0.40549,0.0826 0.61,0.114c-0.061,0.416 -0.118,0.844 -0.179,1.278c-0.194,-0.033 -0.394,-0.094 -0.597,-0.181" fill="#e63744"/><path d="M244.147,178.439l0.155,-1.054c0.20588,0.05269 0.41294,0.1007 0.621,0.144l-0.166,1.213c-0.203,-0.085 -0.405,-0.185 -0.61,-0.303" fill="#f6b90c"/><path d="M243.538,178.078c0.05218,-0.27832 0.10052,-0.55735 0.145,-0.837c0.204,0.045 0.411,0.098 0.62,0.144c-0.054,0.364 -0.104,0.72 -0.157,1.053c-0.202,-0.109 -0.408,-0.23 -0.608,-0.36" fill="#232323"/><path d="M248.525,178.921c0.59,-0.098 1.218,-0.443 1.818,-0.842c-0.05168,-0.27925 -0.09902,-0.55928 -0.142,-0.84c-0.612,0.148 -1.253,0.325 -1.852,0.404l0.176,1.278M250.404,178.081c-0.632,0.441 -1.301,0.823 -1.925,0.908c-0.065,-0.476 -0.126,-0.943 -0.194,-1.399c0.635,-0.078 1.317,-0.26 1.962,-0.405c0.052,0.325 0.104,0.621 0.157,0.896" fill="#c8930f"/><path d="M249.125,178.741c-0.19178,0.08389 -0.39286,0.14465 -0.599,0.181c-0.061,-0.434 -0.118,-0.862 -0.177,-1.278c0.199,-0.03 0.401,-0.068 0.608,-0.114c0.055,0.408 0.114,0.816 0.168,1.211" fill="#232323"/><path d="M249.734,178.439c-0.19616,0.11357 -0.39922,0.21476 -0.608,0.303c-0.057,-0.395 -0.113,-0.803 -0.168,-1.213c0.205,-0.042 0.414,-0.092 0.621,-0.144l0.155,1.054" fill="#f6b90c"/><path d="M250.343,178.078c-0.203,0.13 -0.406,0.251 -0.608,0.36c-0.053,-0.333 -0.103,-0.689 -0.157,-1.053c0.209,-0.046 0.416,-0.099 0.623,-0.144c0.046,0.299 0.094,0.578 0.142,0.837" fill="#e63744"/><path d="M267.823,158.602c1.084,0.694 1.796,1.881 1.796,3.229c0,2.145 -1.807,3.882 -4.03,3.882c-0.069,0 -0.128,0 -0.191,-0.003c-3.612,6.473 -10.521,10.853 -18.452,10.853c-7.942,0 -14.855,-4.388 -18.462,-10.874c-0.146,0.014 -0.297,0.024 -0.445,0.024c-2.227,0 -4.032,-1.737 -4.032,-3.882c0,-1.446 0.819,-2.708 2.038,-3.375c-0.14,-0.991 -0.216,-2.005 -0.216,-3.035c0,-11.673 9.455,-21.138 21.117,-21.138c11.66,0 21.115,9.465 21.115,21.138c0,1.082 -0.081,2.142 -0.238,3.181" data-paper-data="{&quot;origPos&quot;:null}" fill="#7a5c4e"/><path d="M241.95,153.552c0,0 -0.48,1.695 -1.992,1.36c-0.738,-0.164 -0.868,-1.13 -3.238,-0.697c-0.745,0.17 -2.312,1.087 -2.614,1.7c-0.302,0.613 -0.084,-2.248 2.35,-3.312c1.756,-0.634 2.351,-0.603 3.805,-0.603c1.453,0 1.901,0.853 1.69,1.552M252.05,153.552c0,0 0.48,1.695 1.992,1.36c0.738,-0.164 0.868,-1.13 3.238,-0.697c0.745,0.17 2.312,1.087 2.614,1.7c0.302,0.613 0.084,-2.248 -2.35,-3.312c-1.756,-0.634 -2.351,-0.603 -3.805,-0.603c-1.453,0 -1.901,0.853 -1.69,1.552" data-paper-data="{&quot;origPos&quot;:null}" fill="#3b2711"/><path d="M240,161c0,1.657 -0.895,3 -2,3c-1.105,0 -2,-1.343 -2,-3c0,-1.657 0.895,-3 2,-3c1.105,0 2,1.343 2,3M258,161c0,1.657 -0.895,3 -2,3c-1.105,0 -2,-1.343 -2,-3c0,-1.657 0.895,-3 2,-3c1.105,0 2,1.343 2,3" data-paper-data="{&quot;origPos&quot;:null}" fill="#3b2711"/><path d="M244,164c0,0 0.207,-1.042 0.504,-1.342c0.801,-1.195 2.491,-1.658 2.491,-1.658c0,0 2.175,0.727 2.654,1.641c0.443,0.852 0.341,1.28 0.341,1.28c0,0 -2.125,-1.934 -2.965,-1.816c-1.127,0.158 -3.025,1.895 -3.025,1.895z" fill="#e2a86e"/><path d="M240.2,166.696c0,0 6.897,3.208 13.172,-0.397c0,0 -1.39,5.47 -5.95,5.561c-4.115,0.122 -4.984,-1.492 -5.477,-1.956c-0.492,-0.463 -1.42,-1.772 -1.745,-3.208" fill="#e2a86e"/><path d="M268.898,152.667c0.036,2.483 -0.832,7.855 -2.524,11.055c0,0 -4.151,-11.762 -7.573,-13.627c-4.18,-2.278 -15.202,1.006 -18.94,-1.947c-0.619,-0.49 -0.549,-1.6 -0.549,-1.6c0,0 -0.715,1.413 -1.062,1.81c-1.813,2.062 -6.505,5.047 -8.733,6.652c-1.794,1.29 -1.876,1.275 -1.478,8.712c0,0 -3.295,-6.768 -3.112,-11.288c0.052,-1.301 0.682,-4.187 1.707,-7.126c3.716,-7.465 11.418,-12.595 20.317,-12.595c10.219,0 18.861,6.772 21.697,16.07c0.14459,1.28999 0.22802,2.58611 0.25,3.884" data-paper-data="{&quot;origPos&quot;:null}" fill="#3b2711"/><path d="M215.997,137.194c0,-3.34 6.261,-9.49 12.07,-8.69c1.116,-2.795 9.552,-8.049 15.76,-8.446c10.694,-0.687 23.305,5.11 23.575,5.254c23.301,12.353 15.742,28.608 2.435,20.42l-0.864,8.45c-4.923,-2.04 -23.647,-8.555 -44.053,0.045l-0.879,-8.441c-4.66,-1.001 -8.044,-3.624 -8.044,-8.592" fill="#eeeeed"/><path d="M265.397,152.87c-1.33315,-0.4302 -2.6806,-0.81476 -4.04,-1.153v-8.82c3.192,1.217 4.238,1.937 4.238,1.937l-0.198,8.035zM257.109,150.82c-1.38056,-0.24284 -2.76905,-0.43828 -4.163,-0.586v-9.578c3.14,0.558 4.235,0.907 4.235,0.907l-0.072,9.258zM244.117,149.948l-0.07,-9.475c0,0 1.114,-0.223 4.235,-0.181v9.628c-1.38823,-0.03949 -2.77742,-0.03015 -4.165,0.028M235.763,150.928l-0.07,-8.943c0,0 1.09,-0.347 4.235,-0.908v9.203c-1.362,0.16 -2.755,0.371 -4.165,0.648M232.124,151.765c-1.36297,0.36204 -2.71162,0.77601 -4.043,1.241l-0.194,-7.806c0,0 1.026,-0.72 4.237,-1.942z" fill="#2356a3"/></g></g></svg>