<svg xmlns="http://www.w3.org/2000/svg" width="120" height="120"><g fill="none"><g transform="translate(25)"><path fill="#595E80" d="M60.297 114.444H9.658c-5.272 0-9.57-4.31-9.57-9.6V9.956c0-5.29 4.298-9.6 9.57-9.6h50.64c5.272 0 9.57 4.31 9.57 9.6v94.933a9.535 9.535 0 0 1-9.57 9.555z"/><ellipse cx="35" cy="32.889" fill="#323E50" rx="14.975" ry="15.022"/><ellipse cx="35" cy="82.311" fill="#323E50" rx="21.089" ry="21.156"/><ellipse cx="35" cy="82.311" fill="#F6F4D6" rx="10.899" ry="10.933"/><ellipse cx="35" cy="32.889" fill="#F6F4D6" rx="7.975" ry="8"/><ellipse cx="24.101" cy="70.356" fill="#F6F4D6" rx="1.595" ry="1.6"/><ellipse cx="45.899" cy="70.356" fill="#F6F4D6" rx="1.595" ry="1.6"/><ellipse cx="24.101" cy="94.844" fill="#F6F4D6" rx="1.595" ry="1.6"/><ellipse cx="45.899" cy="94.844" fill="#F6F4D6" rx="1.595" ry="1.6"/></g><g fill="#323E50"><g transform="translate(30.76 5.778)"><ellipse cx="2.88" cy="3.067" rx="2.88" ry="2.889"/><ellipse cx="55.601" cy="3.067" rx="2.88" ry="2.889"/></g><g transform="translate(30.76 103.111)"><ellipse cx="2.88" cy="2.889" rx="2.88" ry="2.889"/><ellipse cx="55.601" cy="2.889" rx="2.88" ry="2.889"/></g></g><path fill="#323E50" d="M40.86 119.644h-4.075a1.662 1.662 0 0 1-1.595-1.244l-1.02-3.911h9.305l-1.02 3.911a1.662 1.662 0 0 1-1.594 1.244zm42.355 0H79.14a1.662 1.662 0 0 1-1.595-1.244l-1.019-3.911h9.304l-1.02 3.911a1.662 1.662 0 0 1-1.595 1.244z"/></g></svg>