<svg version="1.1" xmlns="http://www.w3.org/2000/svg" xmlns:xlink="http://www.w3.org/1999/xlink" width="87.87671" height="116.63593" viewBox="0,0,87.87671,116.63593"><g transform="translate(-195.31629,-121)"><g data-paper-data="{&quot;isPaintingLayer&quot;:true}" fill-rule="evenodd" stroke="none" stroke-width="1" stroke-linecap="butt" stroke-linejoin="miter" stroke-miterlimit="10" stroke-dasharray="" stroke-dashoffset="0" style="mix-blend-mode: normal"><path d="M236.649,169.626l-3.129,14.18l-0.222,-28.548z" fill="#d7d6d6"/><path d="M223.087,209.113c0.89075,-0.13038 1.78606,0.20569 2.371,0.89c-0.36323,0.8219 -1.12371,1.39915 -2.013,1.528c-0.82063,0.12072 -1.64973,-0.15626 -2.233,-0.746c-0.392,6.534 -1.185,16.581 -2.487,20.825l-0.272,-0.082c0.839,-2.72 1.463,-7.841 1.903,-12.885c-0.58637,0.58953 -1.41706,0.86693 -2.24,0.748c-0.88931,-0.12737 -1.65016,-0.70415 -2.013,-1.526c0.58396,-0.68441 1.47895,-1.02026 2.369,-0.889c0.81056,0.11496 1.5191,0.60623 1.911,1.325c0.59,-6.85 0.852,-13.45 0.858,-13.565l0.281,0.01c-0.001,0.067 -0.093,2.343 -0.281,5.58c0.40447,-0.65843 1.08104,-1.10264 1.846,-1.212" fill="#009244"/><path d="M221.099,202.428c-0.061,0.134 -0.147,0.254 -0.249,0.359c0.28456,0.22738 0.45759,0.56616 0.475,0.93c0.098,-0.204 0.25,-0.373 0.44,-0.498c-0.137,-0.197 -0.22,-0.435 -0.226,-0.69c-0.155,-0.007 -0.304,-0.041 -0.44,-0.101M219.132,202.881c-0.291,-0.236 -0.476,-0.588 -0.476,-0.99c0.00125,-0.42737 0.21588,-0.82588 0.57203,-1.06211c0.35615,-0.23623 0.80676,-0.27896 1.20097,-0.11389c0.205,-0.433 0.649,-0.73 1.166,-0.73c0.69332,-0.00287 1.26081,0.55082 1.275,1.244c0.688,0.029 1.232,0.587 1.232,1.272c0,0.443 -0.23,0.831 -0.569,1.061c0.142,0.206 0.223,0.45 0.223,0.72c-0.00212,0.35605 -0.15267,0.69507 -0.41539,0.93539c-0.26272,0.24032 -0.61378,0.36015 -0.96861,0.33061c-0.197,0.456 -0.654,0.776 -1.181,0.776c-0.70614,0.00055 -1.27935,-0.57086 -1.281,-1.277v-0.005c-0.48954,-0.04613 -0.90838,-0.37091 -1.07494,-0.83355c-0.16656,-0.46264 -0.05086,-0.97987 0.29694,-1.32745" fill="#e63744"/><path d="M219.825,202.598c-0.30163,-0.38348 -0.31806,-0.91878 -0.04053,-1.32004c0.27754,-0.40126 0.78421,-0.57474 1.24945,-0.42781c0.46524,0.14694 0.78036,0.57997 0.77708,1.06785c0.32879,-0.07523 0.67396,0.00284 0.93837,0.21223c0.26442,0.2094 0.41951,0.52749 0.42163,0.86477c0,0.575 -0.45,1.055 -1.019,1.102v0.012c-0.0022,0.61147 -0.49852,1.106 -1.11,1.106c-0.61187,0.00056 -1.1088,-0.49414 -1.111,-1.106c0,-0.267 0.096,-0.508 0.253,-0.699c-0.22823,-0.20836 -0.35848,-0.50297 -0.359,-0.812" fill="#a21927"/><path d="M220.308,203.181c0,-0.609 0.494,-1.104 1.11,-1.104c0.61,0 1.11,0.495 1.11,1.104c0,0.609 -0.5,1.104 -1.11,1.104c-0.616,0 -1.11,-0.494 -1.11,-1.104" fill="#e63744"/><path d="M227.797,208.668c0.87367,-0.22046 1.79925,0.02568 2.448,0.651c-0.28041,0.85256 -0.97905,1.50135 -1.85,1.718c-0.835,0.208 -1.678,-0.013 -2.298,-0.516c0.268,6.536 0.496,16.614 -0.37,20.966l-0.281,-0.055c0.557,-2.792 0.661,-7.946 0.591,-13.01c-0.52238,0.64555 -1.32042,1.00448 -2.15,0.967c-0.89783,-0.0417 -1.71196,-0.53969 -2.158,-1.32c0.49067,-0.70504 1.29557,-1.12503 2.15455,-1.12423c0.85898,0.0008 1.66309,0.42228 2.15245,1.12823c-0.108,-6.868 -0.514,-13.461 -0.519,-13.577l0.281,-0.015c0.11033,1.85914 0.20433,3.71921 0.282,5.58c0.33678,-0.6965 0.96604,-1.20701 1.717,-1.393" fill="#009244"/><path d="M225.144,202.217c-0.048,0.137 -0.119,0.266 -0.209,0.378c0.30473,0.19855 0.50971,0.51822 0.563,0.878c0.08054,-0.20964 0.21426,-0.3947 0.388,-0.537c-0.158,-0.183 -0.261,-0.413 -0.29,-0.67c-0.159,0.01 -0.31,-0.008 -0.452,-0.049M223.233,202.862c-0.31,-0.204 -0.531,-0.541 -0.569,-0.937c-0.03542,-0.33717 0.06544,-0.67451 0.28012,-0.9369c0.21468,-0.26239 0.52537,-0.42805 0.86288,-0.4601c0.175,-0.019 0.341,0 0.5,0.05c0.16267,-0.47009 0.5848,-0.80193 1.08,-0.849c0.69271,-0.07118 1.31541,0.42404 1.402,1.115c0.68369,-0.0414 1.2795,0.46113 1.354,1.142c0.042,0.442 -0.144,0.851 -0.464,1.115c0.16685,0.19445 0.27046,0.43515 0.297,0.69c0.06512,0.70222 -0.44746,1.32588 -1.149,1.398c-0.032,0 -0.067,0 -0.101,0.004c0.05681,0.52038 -0.20797,1.02315 -0.66921,1.27071c-0.46124,0.24755 -1.02658,0.19032 -1.42885,-0.14466c-0.40227,-0.33497 -0.5609,-0.88061 -0.40094,-1.37905v-0.006c-0.65346,-0.00272 -1.20081,-0.49543 -1.272,-1.145c-0.032,-0.349 0.075,-0.677 0.278,-0.927" fill="#e63744"/><path d="M223.891,202.51c-0.05802,-0.60956 0.38854,-1.15097 0.998,-1.21c0.3403,-0.03367 0.67713,0.0914 0.913,0.339c0.57588,-0.12235 1.14621,0.22957 1.29516,0.79914c0.14895,0.56958 -0.17611,1.15563 -0.73816,1.33086c0.004,0.005 0.004,0.007 0.004,0.014c0.05861,0.60883 -0.38721,1.14999 -0.996,1.209c-0.60798,0.05954 -1.15084,-0.38081 -1.218,-0.988c-0.02279,-0.25464 0.04136,-0.5095 0.182,-0.723c-0.24766,-0.18405 -0.40716,-0.46319 -0.44,-0.77" fill="#a21927"/><path d="M224.433,203.042c-0.02978,-0.2925 0.05878,-0.58475 0.24591,-0.81152c0.18713,-0.22677 0.45725,-0.36919 0.75009,-0.39548c0.60569,-0.06295 1.14797,0.37643 1.212,0.982c0.0476,0.60139 -0.39385,1.1307 -0.99401,1.19186c-0.60017,0.06116 -1.1393,-0.36822 -1.21399,-0.96686" fill="#e63744"/><path d="M219.498,211.744c0.83583,-0.33575 1.7856,-0.21788 2.514,0.312c-0.15805,0.8837 -0.76228,1.62262 -1.597,1.953c-0.76828,0.30881 -1.63744,0.23536 -2.343,-0.198c0.741,4.105 1.66,9.632 2.167,14.253l-0.268,0.184c-0.22,-2.08 -0.53,-4.352 -0.875,-6.602c-0.4294,0.70999 -1.17069,1.17363 -1.997,1.249c-0.89663,0.08189 -1.7729,-0.30023 -2.323,-1.013c0.40788,-0.80161 1.19922,-1.33723 2.095,-1.418c0.81751,-0.07594 1.62335,0.23573 2.177,0.842c-1.05,-6.795 -2.357,-13.272 -2.38,-13.384l0.278,-0.056c0.36529,1.82685 0.71431,3.65693 1.047,5.49c0.23641,-0.73474 0.7882,-1.32576 1.505,-1.612" fill="#009244"/><path d="M215.988,205.712c-0.03,0.143 -0.082,0.279 -0.157,0.403c0.32957,0.15599 0.57643,0.44581 0.678,0.796c0.04996,-0.21951 0.15688,-0.42197 0.31,-0.587c-0.18,-0.16 -0.313,-0.374 -0.383,-0.62c-0.151,0.028 -0.302,0.03 -0.448,0.008M214.182,206.61c-0.337,-0.158 -0.601,-0.463 -0.698,-0.849c-0.16166,-0.68666 0.26137,-1.37503 0.947,-1.541c0.16407,-0.03758 0.33386,-0.04301 0.5,-0.016c0.096,-0.472 0.46,-0.868 0.956,-0.988c0.67742,-0.1654 1.3626,0.24188 1.541,0.916c0.67229,-0.13676 1.33262,0.28168 1.496,0.948c0.105,0.43 -0.025,0.863 -0.303,1.163c0.35081,0.31727 0.49679,0.80289 0.37906,1.261c-0.11773,0.45811 -0.47975,0.81318 -0.94006,0.922c-0.031,0.009 -0.067,0.015 -0.101,0.021c-0.083,0.487 -0.447,0.904 -0.964,1.027c-0.68544,0.16509 -1.37533,-0.25519 -1.543,-0.94v-0.008c-0.48665,0.07069 -0.97042,-0.14569 -1.24211,-0.55559c-0.27169,-0.40989 -0.28256,-0.93973 -0.02789,-1.36041" fill="#e63744"/><path d="M214.788,206.174c-0.06848,-0.28553 -0.0205,-0.58658 0.13335,-0.83668c0.15385,-0.2501 0.40092,-0.42868 0.68665,-0.49632c0.344,-0.083 0.69,0.004 0.95,0.208c0.30196,-0.14959 0.65549,-0.15405 0.96113,-0.01212c0.30563,0.14193 0.53033,0.41491 0.61087,0.74212c0.13711,0.55855 -0.18003,1.12825 -0.727,1.306c0.006,0.004 0.006,0.008 0.006,0.014c0.07019,0.28576 0.02296,0.58773 -0.13114,0.83842c-0.15409,0.25068 -0.4022,0.42918 -0.68886,0.49558c-0.59411,0.14276 -1.19222,-0.22012 -1.34,-0.813c-0.05944,-0.24917 -0.03119,-0.51122 0.08,-0.742c-0.27132,-0.14814 -0.4677,-0.40369 -0.541,-0.704" fill="#a21927"/><path d="M215.393,206.629c-0.06958,-0.28548 -0.02206,-0.58693 0.13199,-0.83715c0.15404,-0.25022 0.40179,-0.42841 0.68801,-0.49485c0.59523,-0.14342 1.19475,0.21996 1.343,0.814c0.12449,0.58944 -0.24304,1.17082 -0.8289,1.31119c-0.58586,0.14037 -1.17696,-0.21133 -1.3331,-0.79319" fill="#e63744"/><path d="M231.485,211.72c0.88269,-0.18215 1.79699,0.10272 2.42,0.754c-0.3195,0.83758 -1.04277,1.45537 -1.92,1.64c-0.81354,0.1664 -1.65786,-0.06165 -2.277,-0.615c-0.006,4.526 -0.098,10.742 -0.502,15.572h-0.288c0.202,-2.348 0.325,-5.022 0.4,-7.681c-0.5487,0.62439 -1.362,0.95008 -2.19,0.877c-0.89568,-0.07499 -1.68944,-0.60643 -2.1,-1.406c0.52001,-0.68316 1.34164,-1.06832 2.19939,-1.03103c0.85775,0.03729 1.64285,0.49231 2.10161,1.21803c0.184,-6.871 0.055,-13.476 0.052,-13.59l0.281,-0.007c0.006,0.068 0.046,2.341 0.046,5.587c0.36783,-0.68089 1.01866,-1.16361 1.777,-1.318" fill="#009244"/><path d="M229.105,205.162c-0.05223,0.13649 -0.12956,0.26199 -0.228,0.37c0.29803,0.20999 0.49,0.5392 0.526,0.902c0.094,-0.206 0.232,-0.389 0.414,-0.523c-0.149,-0.185 -0.245,-0.421 -0.264,-0.68c-0.15222,0.00341 -0.30386,-0.01994 -0.448,-0.069M227.171,205.728c-0.307,-0.215 -0.51,-0.56 -0.535,-0.962c-0.03863,-0.70451 0.50055,-1.30724 1.205,-1.347c0.17031,-0.00649 0.34038,0.0179 0.502,0.072c-0.04327,-0.52684 0.24178,-1.02609 0.71747,-1.25663c0.47569,-0.23054 1.04417,-0.14494 1.43089,0.21545c0.38672,0.36039 0.51212,0.92144 0.31563,1.41218c0.68531,-0.0141 1.25932,0.51576 1.3,1.2c0.02639,0.42573 -0.1644,0.83591 -0.507,1.09c0.15799,0.20167 0.2514,0.44635 0.268,0.702c0.01963,0.33851 -0.0965,0.67089 -0.32267,0.92352c-0.22617,0.25263 -0.54372,0.40468 -0.88233,0.42248c-0.036,0.004 -0.069,0.004 -0.101,0.004c-0.17715,0.48003 -0.62127,0.80998 -1.132,0.841c-0.708,0.042 -1.314,-0.497 -1.354,-1.197v-0.005c-0.649,-0.03 -1.185,-0.543 -1.225,-1.2c-0.01785,-0.33522 0.09713,-0.66397 0.32,-0.915" fill="#e63744"/><path d="M227.844,205.402c-0.01661,-0.2932 0.0845,-0.58091 0.28088,-0.79926c0.19639,-0.21835 0.4718,-0.34928 0.76512,-0.36374c0.352,-0.024 0.681,0.126 0.9,0.373c0.32287,-0.09435 0.67113,-0.0365 0.94616,0.15716c0.27503,0.19367 0.44686,0.50206 0.46684,0.83784c0.03573,0.57351 -0.37676,1.07757 -0.946,1.156v0.015c0.03354,0.61076 -0.43335,1.13355 -1.044,1.169c-0.61063,0.03587 -1.135,-0.42944 -1.172,-1.04c-0.01591,-0.25433 0.05846,-0.50612 0.21,-0.711c-0.24124,-0.19569 -0.38897,-0.48389 -0.407,-0.794" fill="#a21927"/><path d="M228.356,205.961c-0.03127,-0.61163 0.43663,-1.134 1.048,-1.17c0.60972,-0.03647 1.13395,0.42738 1.172,1.037c0.01663,0.29361 -0.08436,0.58174 -0.28064,0.80073c-0.19628,0.21899 -0.47169,0.35079 -0.76536,0.36627c-0.6094,0.03879 -1.13493,-0.42362 -1.174,-1.033" fill="#e63744"/><path d="M232.6,206.422c0.88112,-0.1817 1.79388,0.10103 2.418,0.749c-0.31545,0.8416 -1.04216,1.46136 -1.923,1.64c-0.81175,0.17057 -1.65617,-0.05641 -2.273,-0.611c-0.01,6.543 -0.204,16.623 -1.25,20.936l-0.278,-0.065c0.673,-2.766 0.99,-7.918 1.138,-12.978c-0.55067,0.62262 -1.36394,0.94726 -2.192,0.875c-0.8954,-0.07421 -1.68922,-0.60494 -2.1,-1.404c0.51799,-0.68563 1.33976,-1.07302 2.19828,-1.03628c0.85852,0.03674 1.64419,0.49291 2.10172,1.22028c0.187,-6.87 0.055,-13.473 0.055,-13.587l0.282,-0.008c0,0.07 0.045,2.342 0.045,5.59c0.36695,-0.68264 1.01849,-1.16672 1.778,-1.321" fill="#009244"/><path d="M230.219,199.863c-0.05324,0.13599 -0.13047,0.26131 -0.228,0.37c0.29729,0.21111 0.48987,0.53949 0.529,0.902c0.08843,-0.20533 0.2291,-0.38393 0.408,-0.518c-0.148,-0.196 -0.242,-0.424 -0.265,-0.681c-0.157,0.002 -0.304,-0.023 -0.443,-0.073M228.281,200.431c-0.43703,-0.31526 -0.62845,-0.87137 -0.47804,-1.38883c0.15041,-0.51745 0.61011,-0.88431 1.14804,-0.91617c0.16956,-0.01173 0.33973,0.01141 0.5,0.068c0.178,-0.449 0.603,-0.773 1.117,-0.803c0.69498,-0.04263 1.29656,0.47809 1.354,1.172c0.68452,-0.01203 1.25732,0.51671 1.3,1.2c0.02547,0.42589 -0.16462,0.8361 -0.506,1.092c0.28793,0.37503 0.34449,0.87867 0.14692,1.30822c-0.19758,0.42955 -0.61679,0.71435 -1.08892,0.73978c-0.033,0.004 -0.067,0.004 -0.1,0.004c-0.17701,0.47971 -0.62064,0.80959 -1.131,0.841c-0.70553,0.0433 -1.3126,-0.49348 -1.356,-1.199v-0.008c-0.48919,-0.02088 -0.92313,-0.32027 -1.11631,-0.77018c-0.19319,-0.44991 -0.11143,-0.97073 0.21031,-1.33982" fill="#e63744"/><path d="M228.959,200.105c-0.01717,-0.29337 0.08355,-0.58145 0.27978,-0.80022c0.19623,-0.21876 0.47171,-0.35009 0.76522,-0.36478c0.33975,-0.02024 0.67001,0.11651 0.896,0.371c0.079,-0.02 0.161,-0.036 0.244,-0.038c0.60939,-0.03821 1.13445,0.42464 1.173,1.034c0.033,0.58 -0.38,1.079 -0.95,1.159c0,0.006 0.004,0.013 0.004,0.015c0.01636,0.29284 -0.08437,0.58018 -0.28001,0.7987c-0.19564,0.21852 -0.47013,0.3503 -0.76299,0.3663c-0.29337,0.01888 -0.58216,-0.07992 -0.80249,-0.27454c-0.22033,-0.19462 -0.35402,-0.46901 -0.37151,-0.76246c-0.01587,-0.25387 0.05812,-0.50522 0.209,-0.71c-0.23914,-0.19703 -0.38551,-0.4847 -0.404,-0.794" fill="#a21927"/><path d="M229.471,200.659c-0.03238,-0.60963 0.43448,-1.1306 1.044,-1.165c0.60889,-0.0359 1.1316,0.42861 1.1675,1.0375c0.0359,0.60889 -0.42861,1.1316 -1.0375,1.1675c-0.61119,0.03645 -1.13647,-0.42888 -1.174,-1.04" fill="#e63744"/><path d="M237.667,208.804c0.88034,-0.182 1.7925,0.1004 2.416,0.748c-0.31425,0.84127 -1.03995,1.46114 -1.92,1.64c-0.81153,0.16852 -1.65489,-0.05781 -2.273,-0.61c-0.009,6.547 -0.203,16.623 -1.254,20.935l-0.277,-0.062c0.673,-2.766 0.993,-7.916 1.14,-12.978c-0.57227,0.64888 -1.42797,0.97341 -2.2866,0.8672c-0.85863,-0.1062 -1.60948,-0.62945 -2.0064,-1.3982c0.54568,-0.71544 1.41958,-1.10183 2.316,-1.024c0.81575,0.06843 1.55144,0.51762 1.985,1.212c0.188,-6.873 0.056,-13.475 0.056,-13.591l0.281,-0.008c0,0.069 0.046,2.343 0.046,5.589c0.36674,-0.68221 1.01794,-1.16594 1.777,-1.32" fill="#009244"/><path d="M235.287,202.246c-0.056,0.137 -0.134,0.265 -0.228,0.369c0.29846,0.21093 0.4913,0.54047 0.529,0.904c0.087,-0.203 0.227,-0.386 0.407,-0.52c-0.147,-0.191 -0.245,-0.424 -0.26,-0.68c-0.161,0.001 -0.31,-0.023 -0.448,-0.073M233.347,202.813c-0.52074,-0.36908 -0.688,-1.06653 -0.39129,-1.63165c0.29671,-0.56511 0.9658,-0.82345 1.56529,-0.60435c0.18213,-0.46266 0.61749,-0.77648 1.114,-0.803c0.69498,-0.04263 1.29656,0.47809 1.354,1.172c0.68416,-0.01206 1.25681,0.5161 1.3,1.199c0.02558,0.42641 -0.16493,0.83712 -0.507,1.093c0.15851,0.20067 0.25076,0.44562 0.264,0.701c0.01994,0.35582 -0.10983,0.70376 -0.3579,0.95962c-0.24807,0.25586 -0.59184,0.39632 -0.9481,0.38738c-0.17482,0.48134 -0.61971,0.81215 -1.131,0.841c-0.705,0.044 -1.314,-0.493 -1.354,-1.195v-0.006c-0.48954,-0.02158 -0.92356,-0.32138 -1.11702,-0.77159c-0.19346,-0.45021 -0.11225,-0.97141 0.20902,-1.34141" fill="#e63744"/><path d="M234.023,202.488c-0.03293,-0.6102 0.43482,-1.13166 1.045,-1.165c0.354,-0.023 0.682,0.127 0.9,0.371c0.079,-0.02 0.161,-0.034 0.243,-0.038c0.29298,-0.01918 0.58157,0.07892 0.80216,0.27269c0.22059,0.19377 0.35508,0.4673 0.37384,0.76031c0.03191,0.57376 -0.37937,1.07702 -0.948,1.16v0.015c0.01636,0.29284 -0.08437,0.58018 -0.28001,0.7987c-0.19564,0.21852 -0.47013,0.3503 -0.76299,0.3663c-0.42715,0.02759 -0.83169,-0.19445 -1.0378,-0.5696c-0.20611,-0.37515 -0.17656,-0.83567 0.0758,-1.1814c-0.24353,-0.19256 -0.3931,-0.48006 -0.411,-0.79" fill="#a21927"/><path d="M234.539,203.042c-0.03127,-0.60887 0.43439,-1.129 1.043,-1.165c0.61119,-0.03594 1.13684,0.42808 1.177,1.039c0.01579,0.29386 -0.08608,0.58192 -0.28311,0.80052c-0.19702,0.2186 -0.47298,0.34975 -0.76689,0.36448c-0.61,0.036 -1.132,-0.429 -1.17,-1.039" fill="#e63744"/><path d="M242.973,212.444c0.88195,-0.18237 1.79576,0.10083 2.42,0.75c-0.30565,0.80768 -0.98913,1.41327 -1.82774,1.61942c-0.83861,0.20616 -1.72497,-0.01351 -2.37026,-0.58742c-0.007,4.802 -0.112,11.507 -0.582,16.44l-0.287,0.023c0.245,-2.547 0.395,-5.575 0.479,-8.57c-0.529,0.597 -1.329,0.949 -2.189,0.873c-0.89531,-0.07518 -1.689,-0.60557 -2.101,-1.404c0.51879,-0.68368 1.33964,-1.0698 2.19711,-1.0335c0.85747,0.0363 1.64274,0.49041 2.10189,1.2155c0.188,-6.868 0.056,-13.473 0.056,-13.587l0.281,-0.006c0,0.068 0.044,2.341 0.044,5.588c0.36608,-0.68297 1.01752,-1.16724 1.777,-1.321" fill="#009244"/><path d="M240.594,205.889c-0.0561,0.13243 -0.13159,0.25578 -0.224,0.366c0.29571,0.21346 0.48604,0.54317 0.523,0.906c0.09,-0.208 0.231,-0.385 0.411,-0.518c-0.149,-0.194 -0.246,-0.432 -0.266,-0.687c-0.154,0.006 -0.304,-0.021 -0.444,-0.066M238.654,206.453c-0.302,-0.214 -0.505,-0.562 -0.532,-0.962c-0.02313,-0.42745 0.16879,-0.83821 0.51149,-1.09474c0.3427,-0.25653 0.7909,-0.32491 1.19451,-0.18226c0.18374,-0.46223 0.62112,-0.77403 1.118,-0.797c0.69185,-0.04318 1.29108,0.47514 1.348,1.166c0.6847,-0.01109 1.25779,0.51671 1.303,1.2c0.023,0.444 -0.179,0.847 -0.506,1.094c0.28829,0.37465 0.34503,0.87828 0.14733,1.30769c-0.1977,0.42941 -0.61724,0.71375 -1.08933,0.73831c-0.033,0.004 -0.067,0.004 -0.1,0.004c-0.17539,0.48262 -0.62222,0.81371 -1.135,0.841c-0.703,0.044 -1.312,-0.495 -1.352,-1.199v-0.005c-0.649,-0.03 -1.184,-0.54 -1.224,-1.2c-0.017,-0.344 0.106,-0.666 0.316,-0.911" fill="#e63744"/><path d="M239.33,206.13c-0.035,-0.61 0.43,-1.13 1.045,-1.172c0.355,-0.017 0.678,0.13 0.9,0.38c0.07878,-0.02583 0.16109,-0.03933 0.244,-0.04c0.29271,-0.01862 0.58081,0.0799 0.80084,0.27385c0.22002,0.19395 0.35391,0.46742 0.37216,0.76015c0.02987,0.5738 -0.38157,1.07619 -0.95,1.16c0,0.001 0,0.007 0.004,0.01c0.03412,0.61077 -0.43233,1.13403 -1.043,1.17c-0.42638,0.02547 -0.82937,-0.19663 -1.03553,-0.57072c-0.20616,-0.37409 -0.17872,-0.83341 0.07053,-1.18028c-0.23899,-0.19591 -0.3866,-0.48172 -0.408,-0.79" fill="#a21927"/><path d="M239.846,206.685c-0.01692,-0.29328 0.08354,-0.58124 0.27921,-0.80036c0.19567,-0.21912 0.47047,-0.35139 0.76379,-0.36764c0.29373,-0.01832 0.58266,0.08108 0.80295,0.27623c0.22029,0.19515 0.35381,0.46998 0.37105,0.76377c0.01635,0.29264 -0.08444,0.57976 -0.28013,0.79796c-0.19569,0.2182 -0.47018,0.34955 -0.76287,0.36504c-0.29304,0.01889 -0.58155,-0.07964 -0.80182,-0.27383c-0.22027,-0.19419 -0.35419,-0.46807 -0.37218,-0.76117" fill="#e63744"/><path d="M247.143,212.998c0.89218,0.09968 1.67038,0.65122 2.06,1.46c-0.5383,0.67446 -1.37469,1.03992 -2.23531,0.97673c-0.86062,-0.06319 -1.63466,-0.54689 -2.06869,-1.29273c-1.61,4.852 -4.003,11.712 -6.09,16.282l-0.26,-0.106c1.135,-2.482 2.359,-5.647 3.5,-8.799c-0.71701,0.42268 -1.59211,0.47983 -2.358,0.154c-0.857,-0.363 -1.42,-1.134 -1.55,-1.986c0.70451,-0.4919 1.60599,-0.60554 2.41054,-0.30386c0.80454,0.30168 1.40906,0.98002 1.61646,1.81386c2.332,-6.474 4.278,-12.79 4.308,-12.9l0.272,0.082c-0.55241,1.78105 -1.12177,3.55679 -1.708,5.327c0.544,-0.514 1.303,-0.798 2.103,-0.708" fill="#009244"/><path d="M246.937,206.03c-0.09199,0.11439 -0.20502,0.21011 -0.333,0.282c0.21783,0.29352 0.29805,0.66691 0.22,1.024c0.152,-0.169 0.337,-0.299 0.552,-0.371c-0.083,-0.227 -0.097,-0.477 -0.037,-0.727c-0.149,-0.046 -0.285,-0.118 -0.402,-0.208M244.916,205.97c-0.22,-0.298 -0.306,-0.689 -0.2,-1.078c0.18353,-0.68061 0.88246,-1.08504 1.564,-0.905c0.16481,0.04313 0.31967,0.11784 0.456,0.22c0.12081,-0.51581 0.54667,-0.90404 1.07142,-0.97675c0.52475,-0.07271 1.04013,0.18509 1.29664,0.64861c0.25651,0.46352 0.20124,1.03713 -0.13906,1.44314c0.52821,0.16235 0.89135,0.64694 0.89887,1.19948c0.00753,0.55254 -0.34228,1.04684 -0.86587,1.22352c0.0879,0.24069 0.09908,0.5027 0.032,0.75c-0.18449,0.67993 -0.8824,1.08422 -1.564,0.906c-0.033,-0.006 -0.069,-0.019 -0.098,-0.029c-0.31822,0.40197 -0.84401,0.57776 -1.34,0.448c-0.684,-0.181 -1.092,-0.877 -0.912,-1.557l0.001,-0.005c-0.45893,-0.17223 -0.77821,-0.59266 -0.82089,-1.08098c-0.04269,-0.48832 0.1988,-0.95778 0.62089,-1.20702" fill="#e63744"/><path d="M245.662,205.87c0.16281,-0.58922 0.76835,-0.93874 1.36,-0.785c0.346,0.09 0.606,0.333 0.738,0.637c0.08,0.004 0.161,0.012 0.243,0.03c0.57526,0.14907 0.9296,0.72642 0.80205,1.30683c-0.12755,0.58041 -0.69129,0.95601 -1.27605,0.85017l-0.002,0.013c-0.15919,0.59123 -0.7657,0.94317 -1.358,0.788c-0.28478,-0.07344 -0.5283,-0.25786 -0.67617,-0.51208c-0.14787,-0.25422 -0.18779,-0.55707 -0.11083,-0.84092c0.065,-0.251 0.216,-0.466 0.42,-0.61c-0.16686,-0.25967 -0.21761,-0.57726 -0.14,-0.876" fill="#a21927"/><path d="M245.976,206.556c0.1623,-0.58998 0.76939,-0.93925 1.361,-0.783c0.59019,0.15555 0.94313,0.75944 0.789,1.35c-0.16095,0.59115 -0.76871,0.94169 -1.361,0.785c-0.59082,-0.15599 -0.94381,-0.76087 -0.789,-1.352" fill="#e63744"/><path d="M252.424,208.672c0.89544,-0.06987 1.76436,0.32328 2.303,1.042c-0.41608,0.79786 -1.21472,1.32424 -2.112,1.392c-0.86,0.066 -1.655,-0.288 -2.175,-0.889c-0.829,6.492 -2.285,16.465 -3.866,20.617l-0.265,-0.1c1.017,-2.659 1.977,-7.731 2.752,-12.737c-0.597,0.534 -1.436,0.784 -2.282,0.604c-0.912,-0.198 -1.61,-0.845 -1.91,-1.658c0.62872,-0.64336 1.54309,-0.91997 2.423,-0.733c0.80237,0.16898 1.47761,0.70739 1.821,1.452c1.043,-6.8 1.745,-13.362 1.755,-13.48l0.28,0.03c-0.007,0.065 -0.247,2.33 -0.653,5.552c0.44881,-0.63253 1.15569,-1.03269 1.929,-1.092" fill="#009244"/><path d="M250.883,201.871c-0.07167,0.12786 -0.16429,0.24279 -0.274,0.34c0.27088,0.24452 0.42138,0.5952 0.412,0.96c0.11351,-0.19534 0.27671,-0.35715 0.473,-0.469c-0.125,-0.206 -0.192,-0.449 -0.177,-0.706c-0.157,-0.015 -0.302,-0.059 -0.434,-0.126M248.889,202.192c-0.2836,-0.25908 -0.4347,-0.6326 -0.411,-1.016c0.0507,-0.7045 0.66128,-1.23552 1.366,-1.188c0.17032,0.0105 0.33687,0.05468 0.49,0.13c0.29033,-0.51525 0.89526,-0.76528 1.46465,-0.60537c0.56939,0.1599 0.95571,0.68831 0.93535,1.27937c0.68143,0.07057 1.18505,0.6674 1.14,1.351c-0.028,0.441 -0.28,0.813 -0.638,1.014c0.2388,0.40914 0.23231,0.91667 -0.01688,1.31957c-0.24919,0.4029 -0.70039,0.63537 -1.17312,0.60443c-0.033,-0.003 -0.068,-0.005 -0.1,-0.013c-0.23582,0.45516 -0.71843,0.72786 -1.23,0.695c-0.33815,-0.02131 -0.65389,-0.17644 -0.87739,-0.4311c-0.2235,-0.25465 -0.33636,-0.58785 -0.31361,-0.9259v-0.006c-0.48448,-0.07975 -0.8798,-0.43122 -1.0157,-0.90303c-0.1359,-0.47181 0.01188,-0.97972 0.3797,-1.30497" fill="#e63744"/><path d="M249.602,201.953c0.01997,-0.29254 0.15571,-0.56507 0.37717,-0.75725c0.22146,-0.19219 0.51039,-0.28818 0.80283,-0.26675c0.356,0.02 0.66,0.207 0.846,0.48c0.078,-0.012 0.163,-0.016 0.247,-0.012c0.60925,0.03961 1.07165,0.56462 1.034,1.174c-0.04028,0.57436 -0.51233,1.02298 -1.088,1.034v0.015c-0.02023,0.29244 -0.15604,0.56481 -0.37744,0.75694c-0.2214,0.19213 -0.51018,0.28823 -0.80256,0.26706c-0.29281,-0.01826 -0.56638,-0.15211 -0.76048,-0.3721c-0.19411,-0.21999 -0.29286,-0.50809 -0.27452,-0.8009c0.017,-0.268 0.128,-0.504 0.3,-0.681c-0.21555,-0.2232 -0.32607,-0.5275 -0.304,-0.837" fill="#a21927"/><path d="M250.041,202.57c0.02,-0.29339 0.15581,-0.5668 0.37751,-0.75999c0.22171,-0.19319 0.51112,-0.29033 0.80449,-0.27001c0.29318,0.018 0.56715,0.15188 0.7615,0.37212c0.19435,0.22024 0.29311,0.50874 0.2745,0.80188c-0.01999,0.29323 -0.15587,0.56645 -0.37764,0.75933c-0.22177,0.19288 -0.51119,0.28955 -0.80436,0.26867c-0.29281,-0.01801 -0.56647,-0.15161 -0.76076,-0.37141c-0.19429,-0.2198 -0.2933,-0.50778 -0.27524,-0.80059" fill="#e63744"/><path d="M257.446,211.294c0.87807,-0.19653 1.79565,0.06984 2.432,0.706c-0.28976,0.81314 -0.96215,1.4309 -1.79688,1.65088c-0.83473,0.21998 -1.72424,0.01384 -2.37712,-0.55088c0.078,4.758 0.086,11.381 -0.289,16.307l-0.286,0.048c0.198,-2.52 0.286,-5.505 0.322,-8.455c-0.56105,0.65892 -1.4112,0.99842 -2.2718,0.90722c-0.8606,-0.0912 -1.62071,-0.60134 -2.0312,-1.36322c0.50669,-0.694 1.32188,-1.09491 2.18087,-1.07255c0.85899,0.02236 1.65223,0.46514 2.12213,1.18455c0.069,-6.871 -0.174,-13.473 -0.182,-13.589l0.285,-0.01c0,0.067 0.082,2.339 0.142,5.584c0.35441,-0.68655 0.99561,-1.18009 1.75,-1.347" fill="#009244"/><path d="M254.952,204.776c-0.048,0.137 -0.123,0.264 -0.217,0.373c0.29893,0.20813 0.49611,0.53278 0.543,0.894c0.08389,-0.20768 0.22204,-0.389 0.4,-0.525c-0.152,-0.19 -0.251,-0.419 -0.274,-0.677c-0.157,0.003 -0.309,-0.018 -0.452,-0.065M253.025,205.375c-0.4433,-0.30822 -0.64462,-0.86209 -0.50271,-1.38303c0.14191,-0.52094 0.59633,-0.89617 1.13471,-0.93697c0.17004,-0.00908 0.34029,0.01364 0.502,0.067c0.169,-0.452 0.592,-0.786 1.099,-0.822c0.69421,-0.05584 1.30585,0.45319 1.377,1.146c0.55111,-0.01915 1.05208,0.31817 1.2416,0.83602c0.18953,0.51785 0.02467,1.09886 -0.4086,1.43998c0.16243,0.1992 0.25951,0.44363 0.278,0.7c0.04987,0.70348 -0.47869,1.31477 -1.182,1.367c-0.036,0.003 -0.067,0.003 -0.101,0.003c-0.163,0.466 -0.592,0.819 -1.119,0.856c-0.706,0.054 -1.321,-0.47 -1.376,-1.17v-0.005c-0.647,-0.018 -1.191,-0.52 -1.237,-1.178c-0.02816,-0.33325 0.07765,-0.66397 0.294,-0.919" fill="#e63744"/><path d="M253.699,205.04c-0.03597,-0.47219 0.23213,-0.91505 0.66719,-1.10208c0.43506,-0.18704 0.9409,-0.0769 1.25881,0.27408c0.32203,-0.09943 0.6718,-0.04716 0.9507,0.14208c0.27889,0.18924 0.4567,0.49494 0.4833,0.83092c0.04564,0.57321 -0.35792,1.08485 -0.926,1.174l0.002,0.015c0.02174,0.29275 -0.07391,0.58213 -0.26584,0.80426c-0.19193,0.22213 -0.46435,0.35876 -0.75716,0.37974c-0.61,0.04775 -1.1436,-0.40713 -1.193,-1.017c-0.0174,-0.25504 0.05203,-0.50845 0.197,-0.719c-0.2425,-0.19066 -0.3938,-0.47439 -0.417,-0.782" fill="#a21927"/><path d="M254.221,205.586c-0.04243,-0.61024 0.416,-1.14016 1.026,-1.186c0.60757,-0.04486 1.13756,0.40879 1.187,1.016c0.04694,0.61138 -0.41062,1.14506 -1.022,1.192c-0.61138,0.04694 -1.14506,-0.41062 -1.192,-1.022" fill="#e63744"/><path d="M261.854,208.971c0.87806,-0.19614 1.79546,0.07017 2.432,0.706c-0.29878,0.8482 -1.01407,1.4822 -1.892,1.677c-0.839,0.187 -1.675,-0.052 -2.277,-0.573c0.102,6.545 0.083,16.622 -0.894,20.952l-0.278,-0.063c0.627,-2.773 0.858,-7.928 0.914,-12.993c-0.53994,0.63268 -1.34707,0.97303 -2.177,0.918c-0.89726,-0.0613 -1.69944,-0.58109 -2.122,-1.375c0.52876,-0.72566 1.3945,-1.12715 2.29,-1.062c0.81782,0.05535 1.56265,0.49011 2.013,1.175c0.066,-6.871 -0.18,-13.473 -0.184,-13.587l0.283,-0.014c0.002,0.073 0.088,2.341 0.144,5.586c0.35299,-0.68711 0.99374,-1.18123 1.748,-1.348" fill="#009244"/><path d="M259.365,202.457c-0.053,0.134 -0.13,0.262 -0.222,0.37c0.30232,0.20554 0.50074,0.532 0.544,0.895c0.08535,-0.20741 0.22236,-0.38952 0.398,-0.529c-0.151,-0.191 -0.249,-0.419 -0.274,-0.676c-0.155,0.006 -0.308,-0.017 -0.446,-0.061M257.437,203.054c-0.305,-0.21 -0.521,-0.554 -0.552,-0.95c-0.02584,-0.33811 0.0845,-0.67253 0.30647,-0.92888c0.22198,-0.25635 0.53719,-0.41336 0.87553,-0.43612c0.16896,-0.01561 0.33931,0.00449 0.5,0.059c0.17745,-0.46491 0.60773,-0.78529 1.104,-0.822c0.69353,-0.05562 1.30342,0.45544 1.37,1.148c0.68466,-0.02524 1.2678,0.4931 1.323,1.176c0.034,0.44 -0.165,0.847 -0.489,1.1c0.16158,0.1995 0.25917,0.44312 0.28,0.699c0.04931,0.70274 -0.47851,1.31324 -1.181,1.366c-0.039,0.002 -0.069,0.006 -0.104,0.006c-0.19781,0.57624 -0.77361,0.9339 -1.37784,0.85586c-0.60423,-0.07804 -1.07025,-0.57027 -1.11516,-1.17786c-0.48982,-0.0122 -0.92917,-0.30444 -1.12975,-0.75148c-0.20058,-0.44704 -0.12679,-0.96952 0.18975,-1.34352" fill="#e63744"/><path d="M258.107,202.718c-0.04302,-0.6086 0.41364,-1.13766 1.022,-1.184c0.34138,-0.02778 0.67647,0.1036 0.908,0.356c0.08,-0.02 0.155,-0.038 0.24,-0.042c0.29326,-0.02375 0.58392,0.07011 0.80791,0.26089c0.22398,0.19078 0.36289,0.46281 0.38609,0.75611c0.04027,0.57215 -0.36352,1.08014 -0.93,1.17l0.001,0.015c0.02312,0.29258 -0.07163,0.58227 -0.26319,0.80462c-0.19156,0.22236 -0.46403,0.35894 -0.75681,0.37938c-0.42667,0.03489 -0.83516,-0.17959 -1.04871,-0.55062c-0.21355,-0.37103 -0.1938,-0.83198 0.05071,-1.18338c-0.24212,-0.19099 -0.39332,-0.47453 -0.417,-0.782" fill="#a21927"/><path d="M258.632,203.263c-0.02145,-0.59676 0.43226,-1.10393 1.02772,-1.1488c0.59546,-0.04487 1.12005,0.38856 1.18828,0.9818c0.02145,0.59676 -0.43226,1.10393 -1.02772,1.1488c-0.59546,0.04487 -1.12005,-0.38856 -1.18828,-0.9818" fill="#e63744"/><path d="M267.021,210.881c0.89519,-0.09318 1.77515,0.28179 2.328,0.992c-0.38488,0.77229 -1.12511,1.30578 -1.97949,1.42664c-0.85438,0.12086 -1.71353,-0.18639 -2.29751,-0.82164c-0.523,5.105 -1.383,12.354 -2.446,17.266l-0.266,-0.101c0.576,-2.668 1.092,-6.026 1.522,-9.356c-0.60683,0.56794 -1.4487,0.81139 -2.265,0.655c-0.88413,-0.16384 -1.62126,-0.77206 -1.95,-1.609c0.58558,-0.62912 1.44248,-0.93102 2.29308,-0.80791c0.85061,0.12311 1.58674,0.65558 1.96992,1.42491c0.877,-6.819 1.419,-13.4 1.427,-13.518l0.281,0.022c-0.005,0.069 -0.189,2.336 -0.518,5.567c0.4326,-0.64332 1.12879,-1.06103 1.9,-1.14" fill="#009244"/><path d="M265.315,204.123c-0.068,0.13 -0.156,0.244 -0.266,0.343c0.27692,0.23888 0.4364,0.58628 0.437,0.952c0.10853,-0.19768 0.26762,-0.36299 0.461,-0.479c-0.13,-0.203 -0.199,-0.446 -0.193,-0.7c-0.161,-0.013 -0.304,-0.055 -0.439,-0.116M263.329,204.489c-0.28,-0.244 -0.447,-0.607 -0.43,-1.009c0.03296,-0.70417 0.62867,-1.24939 1.333,-1.22c0.16922,0.00893 0.33504,0.05106 0.488,0.124c0.23147,-0.44056 0.69572,-0.70868 1.193,-0.689c0.69579,0.02817 1.24118,0.60779 1.227,1.304c0.55197,0.04121 1.01369,0.43517 1.14125,0.97378c0.12757,0.53861 -0.1084,1.09781 -0.58325,1.38222c0.13699,0.21689 0.20369,0.47078 0.191,0.727c-0.03242,0.70402 -0.62785,1.24938 -1.332,1.22c-0.037,-0.002 -0.07,-0.006 -0.1,-0.007c-0.219,0.443 -0.682,0.743 -1.212,0.72c-0.33904,-0.013 -0.65899,-0.16029 -0.88934,-0.4094c-0.23035,-0.24911 -0.35219,-0.57959 -0.33866,-0.9186v-0.004c-0.64687,-0.09358 -1.11911,-0.65984 -1.095,-1.313c0.01712,-0.33534 0.16333,-0.65104 0.408,-0.881" fill="#e63744"/><path d="M264.038,204.235c0.01296,-0.29309 0.14204,-0.56896 0.35875,-0.76672c0.2167,-0.19775 0.50321,-0.30112 0.79625,-0.28728c0.358,0.015 0.666,0.192 0.86,0.46c0.078,-0.015 0.157,-0.019 0.243,-0.015c0.60807,0 1.101,0.49293 1.101,1.101c0,0.60807 -0.49293,1.101 -1.101,1.101v0.015c-0.01193,0.29326 -0.14035,0.56965 -0.35679,0.76789c-0.21644,0.19824 -0.50303,0.30194 -0.79621,0.28811c-0.42812,-0.01432 -0.80924,-0.27522 -0.97748,-0.66916c-0.16825,-0.39394 -0.0932,-0.84966 0.19248,-1.16884c-0.219,-0.21748 -0.33532,-0.51774 -0.32,-0.826" fill="#a21927"/><path d="M264.491,204.839c0.02808,-0.61061 0.54535,-1.08313 1.156,-1.056c0.29377,0.01118 0.571,0.13885 0.77045,0.35482c0.19945,0.21597 0.30472,0.50246 0.29255,0.79618c-0.01348,0.29353 -0.1431,0.56965 -0.36031,0.76754c-0.21721,0.19789 -0.50418,0.3013 -0.79769,0.28746c-0.612,-0.025 -1.086,-0.54 -1.062,-1.15" fill="#e63744"/><path d="M265.409,207.073c0.89443,-0.09252 1.77365,0.281 2.328,0.989c-0.40023,0.8043 -1.18438,1.34769 -2.078,1.44c-0.82461,0.08441 -1.64052,-0.22638 -2.2,-0.838c-0.668,6.513 -1.884,16.516 -3.36,20.705l-0.272,-0.093c0.95,-2.685 1.79,-7.777 2.443,-12.799c-0.6077,0.56568 -1.44827,0.80849 -2.264,0.654c-0.88528,-0.16205 -1.62331,-0.77139 -1.95,-1.61c0.58464,-0.6302 1.44149,-0.93309 2.2923,-0.81032c0.85081,0.12277 1.58707,0.65555 1.9697,1.42532c0.881,-6.813 1.415,-13.399 1.428,-13.513l0.28,0.019c-0.005,0.071 -0.189,2.336 -0.517,5.567c0.43155,-0.64378 1.12864,-1.06056 1.9,-1.136" fill="#009244"/><path d="M263.705,200.31c-0.07,0.131 -0.16,0.248 -0.268,0.348c0.27,0.232 0.435,0.57 0.435,0.95c0.10987,-0.19663 0.26823,-0.36187 0.46,-0.48c-0.127,-0.202 -0.198,-0.444 -0.19,-0.706c-0.157,-0.01 -0.307,-0.048 -0.437,-0.112M261.718,200.679c-0.282,-0.244 -0.448,-0.607 -0.436,-1.009c0.02045,-0.4277 0.25292,-0.81702 0.61976,-1.03788c0.36684,-0.22086 0.81967,-0.24417 1.20724,-0.06212c0.221,-0.425 0.68,-0.705 1.19,-0.685c0.69595,0.02498 1.2431,0.60375 1.229,1.3c0.68134,0.05575 1.19748,0.63893 1.17,1.322c-0.017,0.442 -0.256,0.819 -0.612,1.033c0.13738,0.21799 0.20538,0.47254 0.195,0.73c-0.03296,0.70528 -0.62957,1.25139 -1.335,1.222l-0.105,-0.014c-0.22119,0.46185 -0.69636,0.74743 -1.208,0.726c-0.3387,-0.0109 -0.65894,-0.15692 -0.88928,-0.40548c-0.23034,-0.24856 -0.35159,-0.57898 -0.33672,-0.91752v-0.008c-0.64742,-0.09409 -1.11969,-0.66124 -1.095,-1.315c0.01555,-0.33473 0.16123,-0.65014 0.406,-0.879" fill="#e63744"/><path d="M262.426,200.422c0.01322,-0.29299 0.14238,-0.56871 0.35903,-0.76641c0.21664,-0.1977 0.503,-0.30116 0.79597,-0.28759c0.352,0.017 0.663,0.194 0.856,0.462c0.078,-0.013 0.165,-0.02 0.247,-0.019c0.61001,0.02812 1.08391,0.5417 1.063,1.152c-0.02794,0.57393 -0.4889,1.03185 -1.063,1.056v0.015c-0.01272,0.29298 -0.14137,0.5689 -0.35764,0.76697c-0.21626,0.19807 -0.50239,0.30205 -0.79536,0.28903c-0.42688,-0.01771 -0.80554,-0.27928 -0.9732,-0.67226c-0.16766,-0.39298 -0.09443,-0.84734 0.1882,-1.16774c-0.22018,-0.21753 -0.33667,-0.51893 -0.32,-0.828" fill="#a21927"/><path d="M262.877,201.029c0.02915,-0.61188 0.54806,-1.08471 1.16,-1.057c0.40284,0.0046 0.77126,0.22807 0.96147,0.58321c0.19021,0.35514 0.17207,0.78565 -0.04734,1.12353c-0.21941,0.33788 -0.60533,0.52957 -1.00713,0.50026c-0.61203,-0.02331 -1.08951,-0.53794 -1.067,-1.15" fill="#e63744"/><path d="M271.516,212.97c0.89501,-0.09303 1.77491,0.281 2.329,0.99c-0.39782,0.80622 -1.18337,1.35021 -2.078,1.439c-0.82373,0.0838 -1.63883,-0.22519 -2.2,-0.834c-0.448,4.393 -1.151,10.381 -2.014,15.095l-0.278,-0.054c0.42951,-2.40025 0.79796,-4.81103 1.105,-7.23c-0.60824,0.56683 -1.45043,0.80943 -2.267,0.653c-0.88503,-0.16259 -1.62282,-0.77174 -1.95,-1.61c0.61459,-0.65862 1.52398,-0.95609 2.409,-0.788c0.8035,0.15377 1.48918,0.67377 1.854,1.406c0.877,-6.817 1.419,-13.4 1.43,-13.514l0.28,0.021c-0.008,0.066 -0.192,2.331 -0.52,5.563c0.43283,-0.64259 1.12914,-1.05928 1.9,-1.137" fill="#009244"/><path d="M269.811,206.211c-0.067,0.127 -0.157,0.244 -0.266,0.344c0.27,0.23 0.436,0.573 0.436,0.95c0.10978,-0.19616 0.26819,-0.36077 0.46,-0.478c-0.128,-0.202 -0.197,-0.447 -0.191,-0.702c-0.157,-0.012 -0.305,-0.052 -0.439,-0.115M267.827,206.576c-0.283,-0.244 -0.45,-0.607 -0.433,-1.005c0.03136,-0.70551 0.62738,-1.25279 1.333,-1.224c0.17007,0.0103 0.33682,0.05165 0.492,0.122c0.22916,-0.44084 0.6937,-0.70824 1.19,-0.685c0.69619,0.02552 1.24278,0.60552 1.227,1.302c0.68334,0.05373 1.20191,0.63812 1.174,1.323c-0.017,0.441 -0.261,0.818 -0.613,1.033c0.13673,0.21708 0.20406,0.47068 0.193,0.727c-0.01818,0.35578 -0.18336,0.68802 -0.45604,0.91727c-0.27268,0.22925 -0.62835,0.33492 -0.98196,0.29173c-0.218,0.447 -0.685,0.745 -1.212,0.725c-0.706,-0.029 -1.256,-0.625 -1.225,-1.325v-0.008c-0.64743,-0.09359 -1.12011,-0.66029 -1.096,-1.314c0.018,-0.349 0.171,-0.657 0.408,-0.88" fill="#e63744"/><path d="M268.532,206.324c0.02808,-0.61101 0.54597,-1.08369 1.157,-1.056c0.358,0.015 0.664,0.196 0.86,0.462c0.583,-0.03159 1.08929,0.39741 1.15383,0.97769c0.06453,0.58028 -0.33513,1.11004 -0.91083,1.20731v0.015c-0.01164,0.29417 -0.14051,0.57145 -0.35786,0.77001c-0.21735,0.19857 -0.50512,0.30191 -0.79914,0.28699c-0.29262,-0.01092 -0.56883,-0.13795 -0.76756,-0.35301c-0.19873,-0.21506 -0.30361,-0.50042 -0.29144,-0.79299c0.00889,-0.25548 0.10729,-0.49972 0.278,-0.69c-0.21881,-0.21815 -0.33569,-0.51833 -0.322,-0.827" fill="#a21927"/><path d="M268.988,206.925c0.01321,-0.29336 0.14265,-0.56939 0.35973,-0.76714c0.21708,-0.19776 0.50395,-0.30097 0.79727,-0.28686c0.40623,-0.0007 0.78008,0.22154 0.97355,0.57874c0.19347,0.3572 0.17534,0.79175 -0.04719,1.1316c-0.22254,0.33985 -0.6136,0.53019 -1.01836,0.49567c-0.29412,-0.01118 -0.5717,-0.13893 -0.7715,-0.35505c-0.1998,-0.21612 -0.3054,-0.50286 -0.2935,-0.79695" fill="#e63744"/><path d="M271.042,206.838c0.89511,-0.09183 1.77476,0.28192 2.33,0.99c-0.38428,0.77266 -1.1244,1.30654 -1.97884,1.42743c-0.85444,0.12089 -1.71361,-0.18671 -2.29716,-0.82243c-0.67,6.511 -1.888,16.514 -3.365,20.701l-0.27,-0.092c0.95,-2.68 1.791,-7.772 2.444,-12.8c-0.584,0.548 -1.417,0.816 -2.267,0.656c-0.88315,-0.16329 -1.61916,-0.77147 -1.946,-1.608c0.61144,-0.66099 1.5207,-0.95967 2.405,-0.79c0.80484,0.14898 1.49169,0.67006 1.852,1.405c0.885,-6.819 1.421,-13.401 1.428,-13.515l0.284,0.019c-0.008,0.069 -0.19,2.337 -0.52,5.567c0.42,-0.618 1.098,-1.052 1.9,-1.138" fill="#009244"/><path d="M269.336,200.079c-0.067,0.128 -0.155,0.243 -0.262,0.343c0.266,0.235 0.434,0.575 0.434,0.955c0.10649,-0.19962 0.26557,-0.36631 0.46,-0.482c-0.13,-0.203 -0.197,-0.445 -0.194,-0.7c-0.158,-0.013 -0.304,-0.056 -0.438,-0.116M267.354,200.448c-0.40509,-0.35745 -0.54069,-0.93153 -0.33834,-1.43245c0.20235,-0.50092 0.69864,-0.81975 1.23834,-0.79555c0.16926,0.00692 0.33561,0.0463 0.49,0.116c0.23012,-0.43943 0.69342,-0.70634 1.189,-0.685c0.69555,0.02816 1.24108,0.60701 1.228,1.303c0.55084,0.04269 1.01113,0.43609 1.13911,0.97355c0.12798,0.53746 -0.10562,1.09609 -0.57811,1.38245c0.13479,0.21792 0.20195,0.47092 0.193,0.727c-0.03509,0.70358 -0.6301,1.24774 -1.334,1.22c-0.033,-0.001 -0.071,-0.005 -0.104,-0.007c-0.218,0.443 -0.682,0.746 -1.212,0.721c-0.706,-0.03 -1.254,-0.625 -1.223,-1.325v-0.007c-0.64782,-0.09363 -1.12063,-0.66091 -1.096,-1.315c0.014,-0.349 0.168,-0.657 0.408,-0.875" fill="#e63744"/><path d="M268.057,200.192c0.01297,-0.29343 0.14212,-0.56966 0.35898,-0.76776c0.21686,-0.1981 0.50361,-0.3018 0.79702,-0.28824c0.359,0.013 0.665,0.194 0.86,0.463c0.33098,-0.06177 0.67208,0.03059 0.92668,0.25093c0.25459,0.22034 0.39495,0.54465 0.38132,0.88107c-0.02665,0.574 -0.48878,1.03178 -1.063,1.053v0.015c-0.01271,0.2937 -0.14172,0.57027 -0.35858,0.76875c-0.21686,0.19847 -0.50375,0.30254 -0.79742,0.28925c-0.42803,-0.01553 -0.80837,-0.27744 -0.97554,-0.67178c-0.16717,-0.39434 -0.09093,-0.84981 0.19554,-1.16822c-0.221,-0.21609 -0.33924,-0.51624 -0.325,-0.825" fill="#a21927"/><path d="M268.515,200.795c0.03024,-0.60964 0.54503,-1.08165 1.155,-1.059c0.61082,0.02543 1.08538,0.54118 1.06,1.152c-0.01168,0.2929 -0.13957,0.56907 -0.35539,0.76743c-0.21582,0.19836 -0.50177,0.30257 -0.79461,0.28957c-0.29431,-0.0096 -0.57253,-0.13659 -0.77261,-0.35264c-0.20008,-0.21605 -0.30537,-0.50319 -0.29239,-0.79736" fill="#e63744"/><path d="M276.702,208.125c0.89486,-0.09206 1.77432,0.28178 2.329,0.99c-0.39783,0.80566 -1.18209,1.35003 -2.076,1.441c-0.82457,0.08267 -1.64005,-0.22693 -2.202,-0.836c-0.671,6.509 -1.887,16.512 -3.365,20.705l-0.264,-0.093c0.946,-2.687 1.785,-7.777 2.442,-12.8c-0.6342,0.58781 -1.51758,0.82484 -2.36085,0.63347c-0.84327,-0.19137 -1.53781,-0.7865 -1.85615,-1.59047c0.61336,-0.65674 1.51948,-0.95501 2.403,-0.791c0.80617,0.1532 1.49411,0.67499 1.859,1.41c0.879,-6.819 1.419,-13.403 1.429,-13.519l0.282,0.025c-0.006,0.069 -0.192,2.33 -0.52,5.563c0.43193,-0.6437 1.12865,-1.061 1.9,-1.138" fill="#009244"/><path d="M274.998,201.366c-0.06781,0.12908 -0.15786,0.2452 -0.266,0.343c0.266,0.233 0.434,0.576 0.434,0.953c0.11,-0.2 0.269,-0.362 0.46,-0.482c-0.126,-0.201 -0.197,-0.443 -0.191,-0.7c-0.157,-0.013 -0.303,-0.053 -0.437,-0.114M273.013,201.735c-0.40653,-0.35706 -0.54294,-0.9321 -0.34008,-1.43371c0.20285,-0.50161 0.70063,-0.82019 1.24108,-0.79429c0.16892,0.00702 0.33492,0.0464 0.489,0.116c0.23071,-0.43972 0.69493,-0.70632 1.191,-0.684c0.69437,0.02711 1.23915,0.60525 1.225,1.3c0.68364,0.05371 1.20281,0.63778 1.176,1.323c-0.017,0.44 -0.26,0.822 -0.615,1.036c0.13609,0.21732 0.20304,0.47082 0.192,0.727c-0.03294,0.7047 -0.63024,1.24966 -1.335,1.218c-0.034,0 -0.069,-0.006 -0.101,-0.008c-0.217,0.447 -0.684,0.746 -1.212,0.723c-0.33886,-0.01249 -0.65881,-0.15934 -0.88921,-0.40813c-0.2304,-0.24879 -0.3523,-0.57906 -0.33879,-0.91787v-0.008c-0.64672,-0.09284 -1.11816,-0.66021 -1.091,-1.313c0.015,-0.346 0.168,-0.659 0.408,-0.875" fill="#e63744"/><path d="M273.716,201.48c0.02331,-0.4726 0.34263,-0.87891 0.79634,-1.01327c0.4537,-0.13436 0.94277,0.03256 1.21966,0.41627c0.08138,-0.0153 0.16441,-0.02001 0.247,-0.014c0.61,0.023 1.084,0.54 1.06,1.148c-0.02736,0.57303 -0.48687,1.03081 -1.06,1.056v0.016c-0.02861,0.61047 -0.54651,1.08227 -1.157,1.054c-0.29314,-0.01119 -0.5698,-0.13848 -0.76901,-0.35382c-0.19921,-0.21534 -0.30462,-0.50106 -0.29299,-0.79418c0.01,-0.264 0.118,-0.504 0.281,-0.687c-0.21819,-0.21917 -0.33585,-0.51893 -0.325,-0.828" fill="#a21927"/><path d="M274.172,202.083c0.02863,-0.6105 0.54538,-1.083 1.156,-1.057c0.61092,0.02331 1.08752,0.53705 1.065,1.148c-0.027,0.609 -0.548,1.083 -1.158,1.059c-0.61094,-0.02437 -1.08666,-0.53903 -1.063,-1.15" fill="#e63744"/><path d="M278.731,213.394c0.89724,0.06118 1.69997,0.57946 2.125,1.372c-0.5112,0.69536 -1.33186,1.09463 -2.19449,1.06766c-0.86263,-0.02697 -1.65674,-0.47672 -2.12351,-1.20266c-1.179,4.155 -2.856,9.764 -4.486,14.217l-0.277,-0.062c0.79689,-2.20346 1.54375,-4.4247 2.24,-6.662c-0.69809,0.45134 -1.56876,0.54519 -2.347,0.253c-0.84245,-0.31143 -1.4632,-1.0374 -1.64,-1.918c0.71678,-0.54501 1.66354,-0.68291 2.506,-0.365c0.76683,0.28474 1.35407,0.91499 1.584,1.7c2.047,-6.567 3.719,-12.958 3.751,-13.07l0.27,0.072c-0.47444,1.80209 -0.96646,3.59951 -1.476,5.392c0.5371,-0.55882 1.29493,-0.84978 2.068,-0.794" fill="#009244"/><path d="M278.224,206.441c-0.088,0.116 -0.197,0.216 -0.32,0.296c0.23158,0.28182 0.32839,0.65079 0.265,1.01c0.14266,-0.17521 0.3279,-0.31088 0.538,-0.394c-0.092,-0.221 -0.123,-0.473 -0.069,-0.723c-0.154,-0.04 -0.289,-0.103 -0.414,-0.189M276.206,206.464c-0.232,-0.291 -0.335,-0.678 -0.25,-1.069c0.09412,-0.4173 0.38988,-0.76032 0.78878,-0.91483c0.39891,-0.15451 0.84856,-0.1002 1.19922,0.14483c0.09913,-0.52097 0.50879,-0.92712 1.03059,-1.02177c0.5218,-0.09465 1.04801,0.14174 1.32381,0.5947c0.2758,0.45296 0.24424,1.02897 -0.0794,1.44908c0.66268,0.16997 1.07252,0.83331 0.928,1.502c-0.09335,0.41835 -0.38991,0.7622 -0.79,0.916c0.09667,0.23629 0.12036,0.49612 0.068,0.746c-0.07905,0.34781 -0.29901,0.64717 -0.60731,0.82654c-0.3083,0.17937 -0.67725,0.22264 -1.01869,0.11946c-0.29819,0.41761 -0.81696,0.61677 -1.318,0.506c-0.33156,-0.06948 -0.62153,-0.26873 -0.80526,-0.55334c-0.18373,-0.28461 -0.24593,-0.6309 -0.17274,-0.96166c0,-0.002 0,-0.007 0.003,-0.007c-0.618,-0.199 -0.994,-0.838 -0.854,-1.48c0.07552,-0.32693 0.27387,-0.61229 0.554,-0.797" fill="#e63744"/><path d="M276.943,206.333c0.10743,-0.45997 0.49258,-0.80265 0.96193,-0.85584c0.46935,-0.0532 0.92142,0.19458 1.12907,0.61884c0.57244,0.0774 0.98796,0.5837 0.95222,1.16024c-0.03574,0.57654 -0.51061,1.02764 -1.08822,1.03376l-0.002,0.017c-0.13622,0.59632 -0.72742,0.97156 -1.325,0.841c-0.41642,-0.09198 -0.74275,-0.41539 -0.83847,-0.83097c-0.09572,-0.41558 0.05624,-0.84915 0.39047,-1.11403c-0.17942,-0.2519 -0.24473,-0.56759 -0.18,-0.87" fill="#a21927"/><path d="M277.289,207.006c0.13383,-0.59706 0.72558,-0.97323 1.323,-0.841c0.28719,0.06065 0.53832,0.23336 0.6977,0.47985c0.15938,0.24648 0.21384,0.54637 0.1513,0.83315c-0.06379,0.28777 -0.23943,0.53836 -0.48817,0.6965c-0.24875,0.15814 -0.55018,0.21085 -0.83783,0.1465c-0.59622,-0.13014 -0.97436,-0.71861 -0.845,-1.315" fill="#e63744"/><path d="M217.537,232.592c-2.335,-0.39 -4.089,-1.959 -4.089,-3.833c0,-0.718 0.257,-1.386 0.7,-1.966c-0.443,-0.577 -0.7,-1.249 -0.7,-1.963c0,-1.104 0.608,-2.101 1.578,-2.814c-0.312,-0.509 -0.488,-1.068 -0.488,-1.662c0,-2.171 2.336,-3.928 5.212,-3.928c1.475,0 2.802,0.46 3.748,1.2c0.946,-1.002 2.497,-1.66 4.253,-1.66c0.6371,-0.00164 1.27106,0.08931 1.882,0.27c0.904,-0.568 2.062,-0.908 3.328,-0.908c2.258,0 4.176,1.083 4.903,2.598c0.913,-0.594 2.098,-0.954 3.4,-0.954c0.79959,-0.00184 1.59285,0.14184 2.341,0.424c0.956,-0.873 2.404,-1.431 4.02,-1.431c1.712,0 3.231,0.626 4.182,1.589c0.793,-0.369 1.728,-0.582 2.726,-0.582c1.074,0 2.075,0.246 2.91,0.672c0.875,-1.241 2.606,-2.086 4.6,-2.086c1.84,0 3.456,0.719 4.387,1.802c0.905,-0.582 2.085,-0.934 3.373,-0.934c0.88268,-0.00495 1.75712,0.16994 2.57,0.514c0.916,-0.605 2.113,-0.975 3.426,-0.975c2.595,0 4.745,1.435 5.142,3.304c1.359,0.71 2.252,1.892 2.252,3.232c0,0.763 -0.292,1.473 -0.793,2.076c-0.016,0.739 -0.299,1.424 -0.783,2.007c0.974,0.711 1.576,1.707 1.576,2.81c0,1.321 -0.865,2.484 -2.185,3.198h-7.865c-0.268,-0.116 -0.515,-0.253 -0.75,-0.406c-0.295,0.16 -0.619,0.294 -0.952,0.406h-4.124c-0.02,-0.008 -0.041,-0.012 -0.06,-0.02c-0.021,0.008 -0.042,0.012 -0.06,0.02h-4.124c-0.203,-0.067 -0.402,-0.141 -0.586,-0.223c-0.146,0.082 -0.295,0.156 -0.452,0.223h-5.314c-0.255,-0.116 -0.496,-0.246 -0.718,-0.39c-0.289,0.154 -0.599,0.285 -0.925,0.39h-4.125c-0.308,-0.101 -0.601,-0.223 -0.875,-0.36c-0.18,0.13 -0.373,0.248 -0.58,0.36h-6.055c-0.425,-0.23 -0.804,-0.506 -1.122,-0.822c-0.318,0.316 -0.697,0.592 -1.122,0.822h-6.053c-0.18,-0.098 -0.345,-0.198 -0.506,-0.308c-0.243,0.118 -0.501,0.222 -0.767,0.308h-4.125c-0.40459,-0.12771 -0.79289,-0.30222 -1.157,-0.52c-0.237,0.196 -0.495,0.368 -0.785,0.52h-6.051c-0.214,-0.116 -0.419,-0.242 -0.607,-0.383c-0.43779,0.17752 -0.89391,0.30597 -1.36,0.383h-2.251" fill="#009244"/><path d="M222.193,222.34c0,0.76 -0.617,1.376 -1.384,1.376c-0.76121,0.00111 -1.37934,-0.61479 -1.381,-1.376c0,-0.76 0.618,-1.374 1.38,-1.374c0.768,0 1.385,0.614 1.385,1.374M226.314,228.83c0,0.46889 -0.38011,0.849 -0.849,0.849c-0.46889,0 -0.849,-0.38011 -0.849,-0.849c0,-0.464 0.381,-0.843 0.85,-0.843c0.467,0 0.848,0.379 0.848,0.843M230.07,222.139c0,0.34104 -0.27646,0.6175 -0.6175,0.6175c-0.34104,0 -0.6175,-0.27646 -0.6175,-0.6175c0,-0.343 0.277,-0.615 0.618,-0.615c0.343,0 0.617,0.272 0.617,0.615M239.341,227.979c0,0.16327 -0.06513,0.3198 -0.18096,0.43488c-0.11583,0.11508 -0.27277,0.17919 -0.43604,0.17812c-0.33029,-0.01332 -0.59119,-0.28495 -0.59119,-0.6155c0,-0.33055 0.2609,-0.60218 0.59119,-0.6155c0.343,0 0.617,0.275 0.617,0.618M275.455,224.366c-0.01334,0.33137 -0.28586,0.59315 -0.6175,0.59315c-0.33164,0 -0.60416,-0.26177 -0.6175,-0.59315c0,-0.341 0.277,-0.613 0.618,-0.613c0.34,0 0.617,0.272 0.617,0.613M241.185,225.258c-0.00079,0.231 -0.09352,0.45217 -0.2577,0.61466c-0.16418,0.16249 -0.3863,0.25293 -0.6173,0.25134c-0.47971,0.00111 -0.8698,-0.38629 -0.872,-0.866c0,-0.48 0.393,-0.868 0.872,-0.868c0.23126,-0.00133 0.45353,0.08947 0.61771,0.25234c0.16418,0.16287 0.25676,0.3844 0.25729,0.61566M255.12,227.36c0,0.48214 -0.39086,0.873 -0.873,0.873c-0.48214,0 -0.873,-0.39086 -0.873,-0.873c0,-0.475 0.392,-0.865 0.875,-0.865c0.47932,-0.00056 0.8688,0.38668 0.871,0.866M265.057,220.68c0,0.48132 -0.39018,0.8715 -0.8715,0.8715c-0.48132,0 -0.8715,-0.39018 -0.8715,-0.8715c0,-0.48132 0.39018,-0.8715 0.8715,-0.8715c0.48132,0 0.8715,0.39018 0.8715,0.8715M272.377,228.663c0,0.69 -0.563,1.252 -1.26,1.252c-0.695,0 -1.26,-0.561 -1.26,-1.252c0,-0.691 0.565,-1.253 1.26,-1.253c0.697,0 1.26,0.562 1.26,1.253" fill="#035b2b"/><path d="M227,232.592h-0.424v-16.29c0,-2.539 -2.082,-4.606 -4.634,-4.606h-0.244c-2.554,0 -4.636,2.067 -4.636,4.606v16.29h-0.423v-16.29c0,-2.773 2.267,-5.026 5.06,-5.026h0.243c2.79,0 5.059,2.253 5.059,5.026v16.29z" fill="#82a74e"/><path d="M232.213,232.592h-0.43v-16.29c0,-2.539 -2.075,-4.606 -4.632,-4.606h-0.243c-2.554,0 -4.632,2.067 -4.632,4.606v16.29h-0.423v-16.29c0,-2.773 2.267,-5.026 5.055,-5.026h0.243c2.79,0 5.062,2.253 5.062,5.026z" fill="#82a74e"/><path d="M236.936,232.592h-0.421v-16.29c0,-2.539 -2.08,-4.606 -4.638,-4.606h-0.243c-2.557,0 -4.632,2.067 -4.632,4.606v16.29h-0.425v-16.29c0,-2.773 2.269,-5.026 5.057,-5.026h0.243c2.792,0 5.06,2.253 5.06,5.026v16.29z" fill="#82a74e"/><path d="M242.15,232.592h-0.427v-16.29c0,-2.539 -2.08,-4.606 -4.632,-4.606h-0.243c-2.557,0 -4.635,2.067 -4.635,4.606v16.29h-0.428v-16.29c0,-2.773 2.27,-5.026 5.063,-5.026h0.243c2.788,0 5.059,2.253 5.059,5.026z" fill="#82a74e"/><path d="M246.873,232.592h-0.423v-16.29c0,-2.539 -2.08,-4.606 -4.634,-4.606h-0.243c-2.558,0 -4.636,2.067 -4.636,4.606v16.29h-0.421v-16.29c0,-2.773 2.267,-5.026 5.057,-5.026h0.243c2.79,0 5.057,2.253 5.057,5.026z" fill="#82a74e"/><path d="M252.083,232.592h-0.423v-16.29c0,-2.539 -2.08,-4.606 -4.634,-4.606h-0.243c-2.555,0 -4.632,2.067 -4.632,4.606v16.29h-0.427v-16.29c0,-2.773 2.269,-5.026 5.059,-5.026h0.243c2.79,0 5.057,2.253 5.057,5.026z" fill="#82a74e"/><path d="M256.81,232.592h-0.423v-16.29c0,-2.539 -2.08,-4.606 -4.634,-4.606h-0.247c-2.554,0 -4.632,2.067 -4.632,4.606v16.29h-0.423v-16.29c0,-2.773 2.273,-5.026 5.055,-5.026h0.247c2.789,0 5.058,2.253 5.058,5.026v16.29z" fill="#82a74e"/><path d="M262.022,232.592h-0.425v-16.29c0,-2.539 -2.075,-4.606 -4.634,-4.606h-0.243c-2.554,0 -4.636,2.067 -4.636,4.606v16.29h-0.423v-16.29c0,-2.773 2.267,-5.026 5.06,-5.026h0.242c2.79,0 5.06,2.253 5.06,5.026v16.29z" fill="#82a74e"/><path d="M266.75,232.592h-0.423v-16.29c0,-2.539 -2.084,-4.606 -4.636,-4.606h-0.246c-2.554,0 -4.634,2.067 -4.634,4.606v16.29h-0.423v-16.29c0,-2.773 2.267,-5.026 5.057,-5.026h0.246c2.786,0 5.059,2.253 5.059,5.026z" fill="#82a74e"/><path d="M271.958,232.592h-0.421v-16.29c0,-2.539 -2.08,-4.606 -4.638,-4.606h-0.242c-2.554,0 -4.634,2.067 -4.634,4.606v16.29h-0.425v-16.29c0,-2.773 2.27,-5.026 5.06,-5.026h0.24c2.793,0 5.06,2.253 5.06,5.026z" fill="#82a74e"/><path d="M276.685,232.592h-0.427v-16.29c0,-2.539 -2.076,-4.606 -4.634,-4.606h-0.243c-2.555,0 -4.63,2.067 -4.63,4.606v16.29h-0.424v-16.29c0,-2.773 2.268,-5.026 5.054,-5.026h0.243c2.79,0 5.061,2.253 5.061,5.026z" fill="#82a74e"/><path d="M281.897,232.592h-0.425v-16.29c0,-2.539 -2.08,-4.606 -4.638,-4.606h-0.24c-2.554,0 -4.635,2.067 -4.635,4.606v16.29h-0.422v-16.29c0,-2.773 2.268,-5.026 5.058,-5.026h0.239c2.79,0 5.063,2.253 5.063,5.026z" fill="#82a74e"/><path d="M260.857,232.231c1.672,1.022 2.884,3.12 1.452,4.822c-1.078,1.2 -2.668,0.256 -3.875,-0.25c-1.337,-0.632 -2.866,-1.074 -4.07,-1.895c-0.781,-0.547 -1.697,-1.131 -2.223,-1.94c-0.165,-0.249 -0.245,-0.495 -0.182,-0.737h0.004l-0.303,-10.597h10.172l-0.967,10.597h-0.008M250.744,232.231c0.059,0.234 -0.019,0.488 -0.184,0.736c-0.526,0.81 -1.442,1.394 -2.225,1.94c-1.208,0.822 -2.73,1.264 -4.065,1.895c-1.208,0.507 -2.798,1.451 -3.876,0.25c-1.43,-1.701 -0.216,-3.791 1.452,-4.821h-0.006l-0.972,-10.597h10.19l-0.306,10.597z" fill="#f7b90b"/><path d="M221.755,168.185c1.115,-0.47 2.45,-0.04 3.532,0.996c0.488,-0.733 1.064,-1.142 1.604,-1.038c1.006,0.193 1.473,2.098 1.053,4.258c-0.1406,0.75336 -0.39484,1.481 -0.754,2.158c-0.04215,0.26074 -0.10672,0.51736 -0.193,0.767l5.091,5.944l10.806,-3.847c0,0 -1.84,2.899 -2.288,3.955c-0.334,0.771 -0.97,3.207 -0.97,3.207c0,0 -7.894,3.19 -10.135,2.381c-2.765,-0.995 -5.944,-9.961 -5.944,-9.961h0.002c-1.19,-0.423 -2.345,-1.551 -3.008,-3.116c-1.04,-2.432 -0.502,-4.984 1.204,-5.704" data-paper-data="{&quot;origPos&quot;:null}" fill="#ffd781"/><path d="M225.843,168.718c2.139,6.366 -4.331,18.765 -4.331,18.765c0,0 -0.084,-0.241 -0.228,-0.671c0.372,-0.72 5.94,-11.646 4.004,-17.402l-0.002,0.002c-1.231,-3.661 -4.262,-6.098 -6.721,-5.281c-2.233,0.742 -3.38,3.631 -2.955,5.81c-0.019,-0.062 -0.036,-0.115 -0.055,-0.165c-0.797,-2.37 0.471,-5.893 3.048,-6.753c2.648,-0.877 5.898,1.713 7.237,5.695z" fill="#dda20c"/><path d="M207.406,165.641l6.78,-1.723l9.383,24.826l-12.424,3.152z" fill="#f6b90c"/><path d="M210.97,190.647l-9.826,-14.261l-2.49,-0.265l3.65,-3.121l-0.025,2.526l7.71,8.258z" fill="#f6b90c"/><path d="M200.822,174.949c-1.013,0.856 -1.999,1.357 -2.202,1.115c-0.207,-0.236 0.452,-1.125 1.463,-1.98c1.017,-0.856 2,-1.355 2.202,-1.117c0.205,0.238 -0.452,1.127 -1.463,1.982M214.552,163.985c0.03138,0.12204 0.01255,0.25158 -0.05228,0.35963c-0.06483,0.10806 -0.17027,0.18563 -0.29272,0.21537l-6.466,1.64c-0.12174,0.03194 -0.25119,0.01416 -0.3598,-0.04943c-0.10861,-0.06359 -0.18748,-0.16777 -0.2192,-0.28957l-0.003,-0.017c-0.03206,-0.12178 -0.01391,-0.25134 0.05038,-0.35962c0.06429,-0.10828 0.16935,-0.18624 0.29162,-0.21638l6.467,-1.645c0.25458,-0.06339 0.51289,0.08937 0.58,0.343z" fill="#dda20c"/><path d="M198.675,177.424c0.238,0.583 0.985,1.533 1,1.553c0.209,0.234 0.3,0.545 0.3,0.883c0,0.73 -0.595,1.32 -1.33,1.32c-0.735,0 -1.331,-0.59 -1.331,-1.32c0,-0.338 0.09,-0.649 0.302,-0.883c0.012,-0.019 0.809,-0.982 1.06,-1.553M196.177,180.675c0.15,0.367 0.628,0.975 0.636,0.986c0.136,0.148 0.192,0.344 0.192,0.561c-0.0011,0.46463 -0.37837,0.84055 -0.843,0.84c-0.467,0 -0.845,-0.375 -0.845,-0.84c-0.00848,-0.2041 0.05924,-0.40406 0.19,-0.561c0.008,-0.011 0.513,-0.626 0.67,-0.986" fill="#6a97c0"/><path d="M228.024,172.116c-0.307,2.056 -1.335,3.614 -2.296,3.472c-0.956,-0.141 -1.48,-1.927 -1.172,-3.988c0.31,-2.06 1.336,-3.618 2.296,-3.477c0.955,0.145 1.482,1.928 1.172,3.993M267.623,182.63c3.397,4.317 4.7,17.287 4.7,17.287c0,0 -0.005,-0.019 -0.006,-0.057c0.438,0.626 0.744,1.445 0.84,2.356c0.23,2.17 -0.814,4.062 -2.332,4.218c-0.994,0.106 -1.942,-0.554 -2.543,-1.625c-0.563,0.458 -1.12,0.643 -1.519,0.433c-0.745,-0.395 -0.658,-2.011 0.196,-3.614c0.2936,-0.55981 0.66982,-1.07222 1.116,-1.52c0.034,-0.067 0.067,-0.132 0.103,-0.195c0,0 -1.474,-9.367 -3.05,-11.584c-0.79,-1.108 -1.296,-1.732 -1.476,-2.225c-0.148,-0.396 -0.307,-1.154 -0.372,-1.44c-0.507,-2.222 -3.272,-7.24 -3.272,-7.24c0,0 5.963,3.105 7.615,5.206" data-paper-data="{&quot;origPos&quot;:null}" fill="#ffd781"/><path d="M233.493,180.482c0,0 2.243,-1.028 9.854,-3.285c2.116,-1.005 6.383,-1.245 6.383,-1.245l1.627,0.053h0.136l1.63,-0.024c0,0 4.835,0.19 6.763,1.368v0.01c7.468,2.86 9.66,7.521 9.66,7.521c-0.767,3.003 -5.064,3.005 -5.064,3.005l-0.42,-0.61c1.864,9.131 2.098,20.767 2.098,20.767h-29.467c0,0 0.284,-14.026 2.693,-23.343l-4.62,1.824c0,0 -2.044,-3.514 -1.273,-6.041" fill="#82a74e"/><path d="M265.853,201.643c0.255,3.749 0.305,6.393 0.305,6.393c0,3.803 -4.328,13.591 -4.328,13.591h-10.218l-0.138,-6.92h-0.266l-0.14,6.918l-10.217,0.007c0,0 -4.16,-9.77 -4.16,-13.59c0.05749,-2.13635 0.16152,-4.27119 0.312,-6.403c4.977,-3.972 7.085,-12.407 7.085,-12.407v-12.335c0.726,-0.239 1.513,-0.422 2.362,-0.555v12.892h9.939v-12.91c0.789,0.125 1.635,0.296 2.361,0.532v12.362c0,0 2.118,8.452 7.104,12.426" fill="#0771b7"/><path d="M264.674,207.614c-2.937,0 -6.618,-1.15 -7.962,-3.348c-0.019,-0.026 -0.009,-0.066 0.021,-0.086c0.0297,-0.0155 0.06634,-0.00547 0.084,0.023c1.323,2.164 4.952,3.293 7.857,3.293c0.01626,-0.00027 0.03194,0.00607 0.04343,0.01757c0.0115,0.0115 0.01784,0.02717 0.01757,0.04343c0,0.032 -0.027,0.057 -0.061,0.057M238.04,207.614c2.939,0 6.612,-1.15 7.96,-3.348c0.019,-0.026 0.009,-0.066 -0.017,-0.086c-0.029,-0.015 -0.068,-0.007 -0.083,0.023c-1.325,2.164 -4.954,3.293 -7.86,3.293c-0.01609,0 -0.0315,0.00646 -0.04278,0.01793c-0.01128,0.01147 -0.01748,0.02699 -0.01722,0.04307c0,0.032 0.025,0.057 0.06,0.057" fill="#0b4768"/><path d="M256.388,194.053v4.876c0,2.661 -2.17,4.82 -4.85,4.82h-0.24c-2.679,0 -4.846,-2.159 -4.846,-4.82v-4.876z" fill="#0c6084"/><path d="M255.004,176.122c-1.047,-0.11 -1.82,-0.17 -1.82,-0.17l-1.628,-0.011h-0.138l-1.628,-0.019c0,0 -0.848,0.106 -1.978,0.241l3.664,4.96zM272.343,157.067c1.084,0.693 1.796,1.875 1.796,3.213c0,2.131 -1.803,3.854 -4.033,3.854h-0.195c-3.74978,6.67404 -10.81471,10.79939 -18.47,10.785c-7.66229,0.01015 -14.73125,-4.12336 -18.48,-10.806c-0.147,0.015 -0.292,0.021 -0.442,0.021c-2.235,0 -4.037,-1.723 -4.037,-3.854c0,-1.439 0.82,-2.692 2.04,-3.356c-0.142,-0.984 -0.217,-1.993 -0.217,-3.015c0,-11.604 9.462,-21.007 21.137,-21.007c11.678,0 21.138,9.403 21.138,21.007c0,1.074 -0.08,2.128 -0.237,3.158" data-paper-data="{&quot;origPos&quot;:null}" fill="#ffd781"/><path d="M245.229,152.096c-0.772,-0.174 -0.908,-1.201 -3.386,-0.74c-0.779,0.18 -2.417,1.156 -2.732,1.808c-0.316,0.652 -0.088,-2.392 2.457,-3.522c1.835,-0.675 2.457,-0.642 3.977,-0.642c1.52,0 1.987,0.907 1.766,1.65c0,0 -0.503,1.803 -2.082,1.446zM259.134,152.096c0.772,-0.174 0.908,-1.201 3.386,-0.74c0.779,0.18 2.417,1.156 2.732,1.808c0.316,0.652 0.087,-2.392 -2.457,-3.522c-1.835,-0.675 -2.457,-0.642 -3.977,-0.642c-1.52,0 -1.987,0.907 -1.766,1.65c0,0 0.503,1.803 2.082,1.446zM245,158c0,1.657 -0.895,3 -2,3c-1.105,0 -2,-1.343 -2,-3c0,-1.657 0.895,-3 2,-3c1.105,0 2,1.343 2,3M263,158c0,1.657 -0.895,3 -2,3c-1.105,0 -2,-1.343 -2,-3c0,-1.657 0.895,-3 2,-3c1.105,0 2,1.343 2,3" fill="#343434"/><path d="M252.02,161.069c-1.125,0.153 -3.02,1.834 -3.02,1.834c0,0 0.207,-1.009 0.503,-1.299c0.8,-1.156 2.487,-1.604 2.487,-1.604c0,0 2.173,0.703 2.65,1.588c0.443,0.824 0.34,1.238 0.34,1.238c0,0 -2.121,-1.871 -2.96,-1.756z" fill="#eeac6c"/><path d="M245.2,164.696c0,0 6.897,3.208 13.172,-0.397c0,0 -1.39,5.47 -5.95,5.561c-4.115,0.122 -4.984,-1.492 -5.477,-1.956c-0.492,-0.463 -1.42,-1.772 -1.745,-3.208" fill="#eeac6c"/><path d="M273.42,151.169c0.034,2.47 -0.835,7.809 -2.526,10.991c0,0 -4.159,-11.694 -7.582,-13.546c-4.189,-2.265 -15.22,1 -18.96,-1.935c-0.624,-0.485 -0.55,-1.589 -0.55,-1.589c0,0 -0.718,1.406 -1.062,1.796c-1.814,2.05 -6.514,5.017 -8.744,6.612c-1.794,1.281 -1.876,1.266 -1.476,8.662c0,0 -3.3,-6.724 -3.116,-11.22c0.048,-1.292 0.68,-4.162 1.708,-7.084c3.86423,-7.68308 11.73489,-12.52624 20.335,-12.513c10.229,0 18.884,6.726 21.723,15.968c0.14249,1.28148 0.22591,2.56885 0.25,3.858" fill="#333433"/><path d="M249.798,177.328c-0.988,0 -1.791,-2.107 -1.791,-3.07h7.03c0,0.963 -0.798,3.07 -1.786,3.07h-3.453" data-paper-data="{&quot;origPos&quot;:null}" fill="#ffd781"/><path d="M248.766,176.679c-0.39327,-0.61558 -0.64689,-1.30987 -0.743,-2.034c2.32009,0.3735 4.68564,0.36505 7.003,-0.025l-0.014,0.013l-6.246,2.047" fill="#eeac6c"/><path d="M224.811,143.967c0,-1.415 17.933,-10.765 27.025,-10.765c11.386,0 26.027,9.7 26.027,10.8c0,1.096 -17.864,-0.206 -26.027,-0.217c-8.167,-0.006 -27.025,2.542 -27.025,0.182" fill="#ce8f64"/><path d="M261.564,122.72c0,1.111 -4.21,4.002 -9.41,4.002c-5.195,0 -9.41,-2.891 -9.41,-4.002c0.001,-1.118 4.216,-1.72 9.411,-1.72c5.2,0 9.41,0.601 9.41,1.719" fill="#814915"/><path d="M268.801,138.014c-2.96,3.643 -30.6,3.325 -33.932,0.014l7.876,-15.342c1.433,0.666 2.917,0.91 4.136,1.566c5.2,2.813 5.2,2.813 9.925,0.185c1.385,-0.771 3.116,-0.977 4.786,-1.751l7.21,15.328z" fill="#ce8f64"/><path d="M268.801,138.014c-2.96,3.643 -30.6,3.325 -33.932,0.014l2.128,-4.138c11.354,2.56 18.482,2.56 29.864,0l1.94,4.124" fill="#82a74e"/></g></g></svg>