<svg version="1.1" xmlns="http://www.w3.org/2000/svg" xmlns:xlink="http://www.w3.org/1999/xlink" width="60.488" height="115.26085" viewBox="0,0,60.488,115.26085"><g transform="translate(-210.36917,-122.39282)"><g data-paper-data="{&quot;isPaintingLayer&quot;:true}" fill-rule="evenodd" stroke="none" stroke-linecap="butt" stroke-linejoin="miter" stroke-miterlimit="10" stroke-dasharray="" stroke-dashoffset="0" style="mix-blend-mode: normal"><path d="M270.638,162.436c0.263,0.217 0.279,2.322 0.103,2.94c-0.026,0.092 -0.055,0.188 -0.085,0.285c-0.002,0.011 0,0.021 -0.002,0.031c-0.059,0.388 -1.489,9.555 -3.657,15.058c-0.784,1.989 -2.084,5.287 -5.114,6.024c-0.262,0.063 -0.521,0.101 -0.785,0.101c-1.303,0 -2.757,-0.912 -5.535,-4.113c0.592,-0.261 1.357,-0.667 2.29,-1.298c1.115,-0.754 1.827,-1.34 2.275,-1.758c0.345,0.385 0.665,0.729 0.945,1.015c0.357,-0.66 0.702,-1.535 0.869,-1.96c1.849,-4.692 3.183,-12.87 3.332,-13.812c0.00967,-0.34667 0.04645,-0.69206 0.11,-1.033c0.123,-0.679 0.373,-1.558 0.708,-2.254c0.257,-0.534 0.894,-0.473 0.942,0.107c0.029,0.345 -0.027,0.742 -0.041,0.974c0.011,-0.005 0.023,-0.008 0.035,-0.012c0.372,-1.225 0.47,-1.997 1.056,-1.86c0.441,0.103 0.534,0.627 0.5,1.76l0.047,0.012c0.112,-0.581 0.325,-1.163 0.755,-1.106c0.432,0.056 0.477,1.134 0.439,1.746c0.014,0.014 0.025,0.031 0.039,0.044c0.261,-0.948 0.516,-1.104 0.774,-0.89" data-paper-data="{&quot;origPos&quot;:null}" fill="#bd9168" stroke-width="1"/><path d="M223.602,151.962c0.015,2.392 -1.054,3.636 -4.009,3.254c-2.955,-0.381 -5.738,-3.967 -5.448,-6.348c0.46,-3.787 5.034,-4.525 7.176,-2.206c1.863,2.017 2.263,2.668 2.28,5.3" data-paper-data="{&quot;origPos&quot;:null}" fill="#bd9168" stroke-width="1"/><path d="M221.322,146.662c1.862,2.017 2.262,2.669 2.28,5.3c0.012,1.873 -0.645,3.037 -2.348,3.274c-0.295,-0.278 -0.63,-0.529 -0.993,-0.768c-1.292,-0.849 -2.533,-1.672 -3.625,-2.785c-1.533,-1.566 -2.486,-3.878 -0.196,-5.318c0.9,-0.564 1.957,-0.787 3.026,-0.833c0.70908,0.20213 1.35013,0.59264 1.855,1.13M251.213,151.962c0.017,-2.632 0.418,-3.283 2.28,-5.3c2.143,-2.319 6.717,-1.581 7.177,2.206c0.289,2.381 -2.494,5.967 -5.448,6.348c-2.955,0.382 -4.025,-0.862 -4.009,-3.254" data-paper-data="{&quot;origPos&quot;:null}" fill="#bd9168" stroke-width="1"/><path d="M256.186,153.449c-0.34,0.473 -0.58,1.09 -0.72,1.72c-0.082,0.015 -0.163,0.037 -0.244,0.047c-2.955,0.383 -4.025,-0.862 -4.009,-3.254c0.017,-2.631 0.418,-3.284 2.28,-5.3c1.589,-1.719 4.512,-1.754 6.105,-0.115c-0.011,1.641 -0.268,3.272 -1.154,4.635c-0.605,0.932 -1.63,1.391 -2.258,2.266" data-paper-data="{&quot;origPos&quot;:null}" fill="#bd9168" stroke-width="1"/><path d="M233.714,231.59c0.087,0.961 0.45,4.281 -0.001,4.874c-0.451,0.594 -1.553,0.919 -3.637,1.048c-2.083,0.129 -5.953,0.279 -6.517,-0.095c-0.562,-0.373 -2.155,-1.6 0.909,-2.45c0.608,-0.169 1.436,-0.481 1.695,-1.214c0.243,-0.688 -0.108,-2.014 0.635,-2.283c2.229,-0.808 6.836,-0.774 6.916,0.12" fill="#28355d" stroke-width="1"/><path d="M224.998,235.442c0.19,-0.023 2.047,0.371 1.86,0.073c-0.102,-0.163 0.006,-0.34 0.163,-0.403c1.07,-0.421 2.22,-0.781 3.34,-0.746c1.184,0.038 2.373,0.023 3.561,-0.005c-0.038,-1.081 -0.161,-2.26 -0.208,-2.77c-0.08,-0.895 -4.687,-0.93 -6.916,-0.122c-0.742,0.27 -0.392,1.597 -0.635,2.284c-0.259,0.734 -1.087,1.045 -1.695,1.214c-0.817,0.226 -1.295,0.48 -1.558,0.736c0.698,-0.026 1.392,-0.18 2.088,-0.261M241.1,231.59c0.082,-0.894 4.687,-0.928 6.916,-0.12c0.743,0.269 0.392,1.595 0.635,2.283c0.26,0.733 1.088,1.045 1.695,1.214c3.064,0.85 1.472,2.077 0.91,2.45c-0.564,0.374 -4.435,0.224 -6.518,0.095c-2.083,-0.129 -3.186,-0.454 -3.636,-1.048c-0.451,-0.593 -0.088,-3.913 -0.002,-4.874" fill="#28355d" stroke-width="1"/><path d="M243.096,234.613c-0.686,0.094 -1.482,0.324 -2.216,0.294c0.004,-1.201 0.166,-2.717 0.22,-3.317c0.082,-0.894 4.687,-0.929 6.916,-0.12c0.743,0.269 0.392,1.596 0.635,2.283c0.26,0.733 1.088,1.046 1.695,1.213c2.524,0.7 1.889,1.656 1.272,2.18c-0.23,-0.263 -0.491,-0.496 -0.784,-0.693c-0.282,-0.189 -0.574,-0.342 -0.901,-0.43c-0.244,-0.066 -0.635,0.015 -0.83,-0.078c-0.325,-0.157 -0.417,-0.597 -0.742,-0.787c-0.091,-0.054 -1.112,0.111 -1.071,-0.602c0.009,-0.15 -0.132,-0.272 -0.272,-0.274c-1.31,-0.018 -2.625,0.154 -3.922,0.331" fill="#28355d" stroke-width="1"/><path d="M249.686,233.82l-9.35,0.089l-0.002,-0.15l-0.202,-24.687h-5.45l-0.202,24.838l-9.35,-0.09l0.303,-32.12h22.717l1.232,0.09z" fill="#18717c" stroke-width="1"/><path d="M229.343,206.156c-1.22,-0.121 -2.696,0.021 -3.95,-0.288l0.039,-4.168h22.718l1.232,0.09l0.304,32.03l-0.74,0.007c0.098,-2.37 -0.15,-4.751 -0.34,-7.114c-0.066,-0.833 -0.019,-2.139 -0.491,-2.875c-0.138,-0.215 -0.484,-0.349 -0.59,-0.535c-0.407,-0.708 0.476,-1.072 0.947,-1.369c0.195,-0.125 0.166,-0.437 -0.065,-0.5c-1.44,-0.396 0.16,-2.222 -0.04,-3.206c-0.395,-1.938 -0.462,-3.545 -0.215,-5.513c0.242,-1.923 0.435,-4.345 -1.711,-5.221c-1.412,-0.577 -3.246,-0.599 -4.748,-0.727c-2.039,-0.175 -4.074,-0.181 -6.117,-0.218c-2.083,-0.037 -4.161,-0.187 -6.233,-0.393M234.216,219.755c0.13945,-0.16831 0.26708,-0.34607 0.382,-0.532l-0.12,14.686l-0.75,-0.001c0.024,-1.522 0.138,-3.045 -0.08,-4.555c-0.098,-0.681 -0.23,-1.307 -0.59,-1.891c-0.222,-0.361 -0.062,-0.697 -0.215,-1.097c-0.322,-0.839 0.086,-1.127 0.476,-1.703c0.129,-0.191 -0.049,-0.389 -0.235,-0.411c-0.425,-0.052 -0.846,-0.107 -1.265,-0.179c0.635,-0.525 1.84,-1.275 1.2,-2.015c-0.086,-0.098 -1.093,-0.132 -0.933,-0.77c0.159,-0.638 1.703,-1.019 2.13,-1.532" fill="#18717c" stroke-width="1"/><path d="M241.165,229.463c0.023,1.503 0.106,2.979 0.386,4.435l-1.215,0.011l-0.002,-0.15l-0.121,-14.792c0.197,0.068 1.465,0.811 1.677,1.636c0.112,0.44 -1.162,0.297 -1.01,0.684c0.133,0.337 1.619,1.193 1.418,1.687c-0.432,1.059 -1.615,-0.188 -1.352,0.579c0.12,0.351 0.647,0.615 0.93,0.797c0.176,0.106 0.83,0.22 0.64,0.585c-0.191,0.365 -0.619,0.418 -0.829,0.618c-1.049,0.997 -0.542,2.63 -0.522,3.91" fill="#18717c" stroke-width="1"/><path d="M255.404,150.769c0,9.985 -8.058,12.727 -17.996,12.727c-9.94,0 -17.997,-2.742 -17.997,-12.727c0,-9.985 1.646,-21.413 17.997,-21.413c16.35,0 17.996,11.428 17.996,21.413" data-paper-data="{&quot;origPos&quot;:null}" fill="#bd9168" stroke-width="1"/><path d="M219.635,152.022c-0.057,-0.002 -0.117,-0.013 -0.174,-0.019c-0.03,-0.401 -0.05,-0.808 -0.05,-1.234c0,-9.985 1.645,-21.413 17.997,-21.413c14.578,0 17.464,9.086 17.918,18.133c-0.23858,-0.58382 -0.56024,-1.13013 -0.955,-1.622c-1.75,-2.125 -6.16,-0.194 -7.345,-2.827c-0.058,-0.128 -0.26,-0.174 -0.372,-0.098c-1.17,0.799 -2.376,-0.132 -3.63,0.15c-0.978,0.22 -1.554,0.524 -2.56,0.37c-0.674,-0.104 -1.372,-0.261 -2.012,-0.506c-3.122,-1.196 -5.583,-4.574 -5.822,-7.894c-0.021,-0.29 -0.468,-0.393 -0.535,-0.073c-1.155,5.518 -5.265,9.628 -10.702,10.935c-0.144,0.034 -0.227,0.197 -0.191,0.336c0.313,1.178 0.729,2.435 0.523,3.665c-0.188,1.113 -0.86,2.136 -2.09,2.097" data-paper-data="{&quot;origPos&quot;:null}" fill="#bd9168" stroke-width="1"/><path d="M230.32,146.325c0,0.948 -0.766,1.717 -1.71,1.717c-0.944,0 -1.709,-0.769 -1.709,-1.717c0,-0.948 0.765,-1.717 1.71,-1.717c0.943,0 1.708,0.769 1.708,1.717M247.914,146.325c0,0.948 -0.765,1.717 -1.71,1.717c-0.45422,-0.00106 -0.88941,-0.18258 -1.20975,-0.50461c-0.32034,-0.32203 -0.49958,-0.75816 -0.49825,-1.21239c0,-0.948 0.764,-1.717 1.708,-1.717c0.945,0 1.71,0.769 1.71,1.717" fill="#000000" stroke-width="1"/><path d="M239.374,149.322c-0.23353,-0.00037 -0.44585,-0.13556 -0.545,-0.347c-0.26814,-0.54204 -0.8154,-0.89006 -1.42,-0.903h-0.003c-0.584,0 -1.169,0.37 -1.421,0.9c-0.0684,0.14481 -0.19168,0.25639 -0.34257,0.31007c-0.15089,0.05367 -0.31694,0.04501 -0.46143,-0.02407c-0.30144,-0.14529 -0.42881,-0.50685 -0.285,-0.809c0.46878,-0.96191 1.44002,-1.57715 2.51,-1.59h0.003c1.07155,0.01416 2.04319,0.63237 2.51,1.597c0.08785,0.18743 0.0743,0.40668 -0.03595,0.58187c-0.11025,0.17519 -0.30206,0.28225 -0.50905,0.28413M237.326,156.01c-4.452,0 -6.089,-4.534 -6.105,-4.582c-0.11062,-0.31533 0.05491,-0.6607 0.37,-0.772c0.1509,-0.053 0.31669,-0.04377 0.46077,0.02564c0.14409,0.06942 0.25463,0.19332 0.30723,0.34436c0.06,0.173 1.489,4.086 5.441,3.753c3.328,-0.282 4.646,-3.728 4.66,-3.763c0.11708,-0.31204 0.46496,-0.47008 0.777,-0.353c0.31204,0.11708 0.47008,0.46496 0.353,0.777c-0.064,0.171 -1.608,4.201 -5.689,4.546c-0.19124,0.0163 -0.38307,0.02464 -0.575,0.025" fill="#ff9d4d" stroke-width="1"/><path d="M216.265,137.03483c1.509,-7.348 6.033,-10.302 10.636,-12.12c4.603,-1.818 5.351,0 6.481,0.228c3.217,-3.988 9.35,-2.955 16.967,0c7.615,2.954 8.52,15.68 8.52,18.37c0,2.688 -0.755,8.295 -1.885,8.213c-1.132,-0.081 -1.819,-6.289 -2.262,-6.981c-0.445,-0.692 -1.132,-0.286 -3.51,-0.664c-2.377,-0.38 -4.182,-1.97 -4.182,-1.97c0,0 -0.453,0.303 -1.433,0.379c-0.98,0.075 -2.186,-0.455 -2.186,-0.455c-2.338,0.682 -3.318,0.682 -6.409,-1.212c-3.092,-1.893 -5.212,-8.333 -5.212,-8.333c0,0 -1.047,5.152 -4.063,8.182c-3.016,3.03 -7.389,4.807 -7.389,4.807c0,0 0.376,2.541 0,4.889c-0.378,2.348 -1.475,2.722 -2.64,1.358c-1.165,-1.363 -2.397,-9.992 -1.433,-14.69" data-paper-data="{&quot;origPos&quot;:null}" fill="#700000" stroke-width="1"/><path d="M230.316,124.703c-0.526,-0.269 -1.082,-0.41 -1.65,-0.496c3.055,-0.746 3.75,0.604 4.716,0.798c1.638,-2.03 4.035,-2.753 6.995,-2.59c-0.326,0.018 -0.652,0.042 -0.977,0.084c-1.093,0.143 -2.377,0.472 -3.059,1.426c-0.305,0.426 -0.392,0.898 -0.472,1.408c-0.028,0.18 0.004,0.672 -0.102,0.807c-0.382,0.491 -0.923,-0.084 -1.31,-0.391c-0.133,-0.105 -0.335,-0.114 -0.428,0.055c-0.94,1.708 -2.687,-0.577 -3.712,-1.101M256.1,146.357c0.184,1.345 0.633,3.485 1.673,4.317c-0.234,0.582 -0.5,0.936 -0.79,0.915c-1.131,-0.081 -1.818,-6.289 -2.261,-6.981c-0.445,-0.693 -1.131,-0.286 -3.51,-0.664c-2.377,-0.38 -4.181,-1.97 -4.181,-1.97c0,0 -0.453,0.303 -1.433,0.379c-0.981,0.075 -2.187,-0.455 -2.187,-0.455c-2.338,0.682 -3.318,0.682 -6.41,-1.212c-3.091,-1.894 -5.211,-8.332 -5.211,-8.332c0,0 -1.047,5.15 -4.063,8.18c-3.016,3.031 -7.389,4.808 -7.389,4.808c0,0 0.376,2.54 0,4.889c-0.377,2.348 -1.475,2.722 -2.64,1.358c-0.13,-0.153 -0.262,-0.403 -0.392,-0.723c0.296,0.314 0.657,0.504 1.082,0.403c1.404,-0.336 0.922,-2.773 0.852,-3.7c-0.072,-0.929 -0.307,-2.061 0.385,-2.72c0.644,-0.613 1.491,-0.713 2.054,-1.486c1.027,-1.413 0.76,-3.336 1.627,-4.806c0.367,1.071 0.997,3.274 2.091,2.36c0.713,-0.597 1.013,-1.992 1.21,-2.854c0.297,-1.306 0.442,-2.978 1.486,-3.929c0.278,0.698 0.197,1.455 0.18,2.205c-0.006,0.265 0.382,0.38 0.508,0.138c1.092,-2.112 1.089,-4.59 2.22,-6.678c1.43,1.04 1.662,3.427 2.611,4.863c1.277,1.93 2.741,3.715 4.6,5.105c0.208,0.156 0.44,-0.101 0.4,-0.309c-0.129,-0.659 -0.278,-1.31 -0.368,-1.972c0.607,0.715 1.131,1.512 1.757,2.208c0.407,0.453 1.153,1.371 1.871,1.182c0.91,-0.238 0.473,-1.401 0.617,-2.033c0.377,-1.647 1.38,0.351 1.667,0.833c0.283,0.475 0.559,0.969 0.99,1.325c0.164,0.135 0.485,0.066 0.465,-0.194c-0.163,-2.133 -0.299,-4.264 -0.279,-6.404c0.921,1.212 1.825,2.437 2.748,3.647c0.916,1.2 2.011,2.296 2.533,3.742c0.11,0.303 0.495,0.23 0.535,-0.073c0.362,-2.741 -0.461,-5.489 -0.008,-8.214c2.068,1.944 3.395,4.415 4.108,7.175c0.483,1.872 0.592,3.773 0.852,5.677" fill="#700000" stroke-width="1"/><path d="M253.448,168.843c3.98,4.115 7.378,10.097 7.378,10.097c0,0 -0.505,0.856 -2.972,2.524c-2.468,1.669 -3.765,1.763 -3.765,1.763c0,0 -1.74,-2.065 -3.58,-4.145l1.79,24.428c0.055,0.765 -0.547,1.415 -1.309,1.415h-27.166c-0.36548,-0.00119 -0.71401,-0.15431 -0.9621,-0.4227c-0.24809,-0.26839 -0.37339,-0.62785 -0.3459,-0.9923l1.654,-22.567c-1.281,1.683 -2.306,3.074 -2.306,3.074c0,0 -1.3,0 -3.882,-1.485c-2.581,-1.485 -3.146,-2.301 -3.146,-2.301c0,0 2.959,-6.213 6.632,-10.607c3.285,-3.929 9.186,-3.805 10.398,-3.735c0.542,-0.104 1.102,-0.159 1.672,-0.159h7.738c0.51877,0.00122 1.03644,0.04807 1.547,0.14c1.235,-0.16 7.079,-0.693 10.625,2.973" fill="#ffffdd" stroke-width="1"/><path d="M224.828,149.817c0.01171,0.18399 -0.0798,0.35925 -0.23747,0.45479c-0.15767,0.09554 -0.35538,0.09554 -0.51306,0c-0.15767,-0.09554 -0.24918,-0.2708 -0.23747,-0.45479c-0.01171,-0.18399 0.0798,-0.35925 0.23747,-0.45479c0.15767,-0.09554 0.35538,-0.09554 0.51306,0c0.15767,0.09554 0.24918,0.2708 0.23747,0.45479M227.868,151.228c0.0158,0.22211 -0.09374,0.43445 -0.28389,0.55032c-0.19015,0.11587 -0.42908,0.11587 -0.61923,0c-0.19015,-0.11587 -0.29969,-0.32821 -0.28389,-0.55032c0,-0.33 0.266,-0.597 0.593,-0.597c0.329,0 0.594,0.267 0.594,0.597M225.267,152.378c0.00053,0.24824 -0.09757,0.48653 -0.27273,0.66244c-0.17516,0.17591 -0.41302,0.27503 -0.66127,0.27556c-0.51655,-0.00165 -0.93411,-0.42145 -0.933,-0.938c0,-0.518 0.418,-0.938 0.933,-0.938c0.516,0 0.934,0.42 0.934,0.938M249.485,149.32c0,0.442 -0.356,0.8 -0.796,0.8c-0.21173,-0.00026 -0.41464,-0.08476 -0.56398,-0.23485c-0.14934,-0.15009 -0.23282,-0.35343 -0.23202,-0.56515c0,-0.44 0.357,-0.799 0.796,-0.799c0.44,0 0.796,0.358 0.796,0.8M246.804,151.824c0.01729,0.26705 -0.11537,0.52155 -0.34418,0.66031c-0.22882,0.13877 -0.51582,0.13877 -0.74463,0c-0.22882,-0.13877 -0.36147,-0.39327 -0.34418,-0.66031c-0.01729,-0.26705 0.11537,-0.52155 0.34418,-0.66031c0.22882,-0.13877 0.51582,-0.13877 0.74463,0c0.22882,0.13877 0.36147,0.39327 0.34418,0.66031M250.314,152.052c0.0008,0.22048 -0.08616,0.43221 -0.24169,0.58849c-0.15553,0.15628 -0.36684,0.24425 -0.58731,0.24451c-0.22057,-0.00026 -0.43198,-0.08821 -0.58767,-0.24445c-0.15568,-0.15625 -0.24286,-0.36798 -0.24233,-0.58855c0,-0.46 0.372,-0.833 0.83,-0.833c0.458,0 0.83,0.373 0.83,0.833" fill="#ff9d4d" stroke-width="1"/><path d="M237.825,169.503c-3.44,0.027 -6.935,-0.333 -10.285,-1.13c-1.087,-0.259 -2.243,-0.547 -3.379,-0.915c1.18,-0.64 2.427,-1.028 3.578,-1.26c3.006,0.648 6.051,1.012 9.126,1.02c3.497,0.008 6.818,-0.355 9.948,-1.352c1.338,0.157 2.827,0.509 4.223,1.22c-3.993,1.992 -9.125,2.384 -13.211,2.417" fill="#3397e4" stroke-width="1"/><path d="M255.574,171.263c-6.13,2.155 -12.71,3.062 -19.19,2.913c-4.984,-0.113 -11.466,-0.48 -16.308,-2.761c0.42196,-0.57993 0.86149,-1.14686 1.318,-1.7c1.608,0.414 3.204,0.905 4.826,1.228c3.34813,0.6706 6.74989,1.03809 10.164,1.098c5.992,0.099 11.854,-0.81 17.475,-2.765c0.59412,0.64262 1.16612,1.30534 1.715,1.987" fill="#3397e4" stroke-width="1"/><path d="M258.428,175.135c-6.605,2.783 -14.205,4.01 -21.32,4.06c-6.385,0.045 -13.89,-0.632 -19.9,-3.367c0.258,-0.442 0.534,-0.899 0.824,-1.366c2.598,0.474 5.161,1.184 7.768,1.603c3.582,0.575 7.2,0.914 10.83,0.888c7.164,-0.052 13.632,-1.861 20.401,-3.795c0.478,0.6503 0.94342,1.30976 1.396,1.978" fill="#3397e4" stroke-width="1"/><path d="M239.311,184.286c-4.524,0.134 -10.434,0.816 -14.734,-0.976c-0.187,-0.078 -0.375,-0.153 -0.564,-0.228l0.157,-2.138c-0.478,0.626 -0.919,1.212 -1.285,1.7c-2.62,-0.988 -5.234,-1.865 -7.437,-3.63c0.237,-0.458 0.537,-1.023 0.891,-1.663c1.103,0.694 2.173,1.453 3.338,2.037c1.808,0.903 3.856,1.199 5.629,1.94c3.674,1.536 8.907,0.84 12.787,0.768c4.163,-0.077 8.144,-0.538 12.15,-1.578c0.123,-0.031 0.244,-0.056 0.364,-0.085l0.173,2.344c-3.789,0.618 -7.52,1.392 -11.47,1.509M251.525,180.24c1.435,-0.272 2.815,-0.458 4.248,-1.252c1.32,-0.733 2.372,-1.692 3.422,-2.694c0.45796,0.70408 0.90238,1.41688 1.333,2.138c-1.825,1.986 -4.64,3.269 -7.21,3.886c-0.463,-0.541 -1.093,-1.276 -1.793,-2.078M235.254,189.359c-3.672,0.092 -7.758,0.329 -11.354,-0.608l-0.297,-0.075l0.146,-1.988c0.344,0.073 0.687,0.144 1.025,0.214c3.367,0.7 7.067,0.459 10.48,0.353c4.237,-0.131 8.485,-0.433 12.686,-1.009c0.997,-0.136 2.034,-0.25 3.064,-0.398l0.153,2.078c-0.835,0.144 -1.67,0.27 -2.492,0.39c-4.433,0.651 -8.936,0.93 -13.411,1.044M237.225,193.984c-4.588,0.038 -9.346,-0.017 -13.966,-0.622l0.14,-1.898c4.605,0.122 9.211,0.44 13.826,0.337c4.786,-0.107 9.428,-0.75 14.116,-1.367l0.19,2.602c-4.696,0.845 -9.699,0.909 -14.306,0.948M237.674,198.567c-3.031,0.047 -6.058,-0.09 -9.081,-0.314c-1.836,-0.137 -3.787,-0.204 -5.653,-0.534l0.12,-1.63c1.845,0.017 3.707,0.264 5.534,0.372c2.68685,0.16394 5.37816,0.24398 8.07,0.24c5.134,-0.02 10.06,-0.67 15.004,-1.79l0.146,1.994c-4.594,1.184 -9.446,1.589 -14.14,1.662M239.122,203.285c-3.892,-0.041 -7.854,-0.077 -11.736,-0.357c-1.573,-0.114 -3.212,-0.267 -4.78,-0.639l0.114,-1.553c5.536,0.91 11.264,0.83 16.854,0.85c3.134,0.01 6.268,-0.204 9.339,-0.858c1.043,-0.223 2.078,-0.563 3.115,-0.903l0.135,1.839c-1.293,0.347 -2.601,0.613 -3.795,0.857c-3.045,0.625 -6.143,0.797 -9.246,0.764" fill="#3397e4" stroke-width="1"/><path d="M240.413,165.731h0.912c-0.07,0.761 -0.242,1.505 -0.663,2.149c-0.769,1.175 -2.21,1.745 -3.573,1.687c-2.653,-0.115 -3.187,-1.863 -3.367,-3.836h0.679v-2.33c0.978,0.064 1.982,0.094 3.006,0.094c1.00275,0.00084 2.00526,-0.03051 3.006,-0.094v2.329z" data-paper-data="{&quot;origPos&quot;:null}" fill="#bd9168" stroke-width="1"/><path d="M241.276,165.731h0.049c-0.07,0.761 -0.241,1.505 -0.663,2.149c-0.769,1.175 -2.21,1.745 -3.572,1.688c-0.159,-0.008 -0.308,-0.02 -0.452,-0.04c1.071,-0.435 1.614,-1.368 2.007,-2.58c0.268,-0.824 1.888,-2.072 0.308,-2.659c-1.387,-0.515 -3.316,0.747 -4.552,-0.214v-0.674c0.978,0.064 1.982,0.094 3.006,0.094c1.00275,0.00084 2.00526,-0.03051 3.006,-0.094v2.329h0.863M259.543,181.882c-0.913,0.638 -1.805,1.879 -1.903,3.086c-0.72749,-0.70177 -1.42064,-1.43829 -2.077,-2.207c0.592,-0.26 1.357,-0.666 2.29,-1.297c1.115,-0.754 1.827,-1.34 2.275,-1.758c0.30689,0.34578 0.62232,0.68389 0.946,1.014c0.356,-0.66 0.701,-1.534 0.868,-1.96c0.728,-1.847 1.376,-4.236 1.903,-6.51c-0.062,0.535 -0.122,1.071 -0.187,1.605c-0.15482,1.30239 -0.34991,2.59968 -0.585,3.89c-0.156,0.833 -0.658,1.561 -0.692,2.538c-0.034,0.977 0.324,1.547 0.002,1.772c-0.376,0.263 -0.921,-0.572 -1.264,-0.369c-0.23,0.137 -0.248,0.294 -0.32,0.532c-0.028,0.092 0.014,0.706 -0.06,0.75c-0.636,0.378 -0.735,-0.632 -0.796,-0.922c-0.034,-0.164 -0.26,-0.262 -0.4,-0.164M220.922,183.84c-2.688,6.435 -3.904,12.447 -4.968,18.78c0.00557,0.42068 -0.03162,0.84084 -0.111,1.254c-0.123,0.679 -0.374,1.559 -0.709,2.254c-0.257,0.535 -0.894,0.474 -0.942,-0.107c-0.034,-0.403 0.052,-0.889 0.046,-1.083l-0.003,0.002c-0.405,1.297 -0.488,2.121 -1.092,1.98c-0.455,-0.106 -0.54,-0.661 -0.497,-1.861l-0.032,-0.008c-0.107,0.61 -0.32,1.262 -0.774,1.203c-0.454,-0.06 -0.48,-1.247 -0.433,-1.837c-0.008,-0.008 -0.018,-0.013 -0.028,-0.021c-0.266,1.008 -0.527,1.175 -0.792,0.958c-0.262,-0.216 -0.277,-2.321 -0.102,-2.94c0.017,-0.061 0.038,-0.127 0.057,-0.191c0.006,-0.089 0.003,-0.177 0.018,-0.267c1.121,-6.707 2.454,-13.395 5.529,-20.631c0.60984,0.43459 1.24168,0.83746 1.893,1.207c1.313,0.755 2.292,1.125 2.94,1.308" data-paper-data="{&quot;origPos&quot;:null}" fill="#bd9168" stroke-width="1"/><path d="M218.11883,182.532c1.313,0.755 2.292,1.126 2.939,1.308c-2.687,6.435 -3.903,12.447 -4.967,18.78c0.008,0.357 -0.024,0.768 -0.112,1.254c-0.122,0.679 -0.373,1.559 -0.708,2.254c-0.257,0.536 0.353,-8.759 1.103,-11.824c0.612,-2.499 1.466,-5.086 1.722,-7.653c0.09,-0.896 -0.018,-1.751 -0.567,-2.488c-0.51,-0.687 -1.178,-1.174 -1.743,-1.77c0.143,-0.355 0.288,-0.71 0.44,-1.067c0.61,0.43405 1.24183,0.83658 1.893,1.206" data-paper-data="{&quot;origPos&quot;:null}" fill="#bd9168" stroke-width="0"/></g></g></svg>