<svg xmlns="http://www.w3.org/2000/svg" width="60.488" height="115.261"><g fill-rule="evenodd" stroke-miterlimit="10" data-paper-data="{&quot;isPaintingLayer&quot;:true}" style="mix-blend-mode:normal"><path fill="#bd9168" d="M60.269 40.043c.263.217.279 2.322.103 2.94-.026.092-.055.188-.085.285-.002.011 0 .021-.002.031-.06.388-1.49 9.555-3.657 15.058-.784 1.99-2.084 5.287-5.114 6.024a3.34 3.34 0 0 1-.785.101c-1.303 0-2.757-.912-5.535-4.113.592-.26 1.357-.667 2.29-1.298 1.115-.754 1.827-1.34 2.275-1.758.345.385.665.73.945 1.015.357-.66.702-1.535.869-1.96 1.849-4.692 3.183-12.87 3.332-13.812a6.65 6.65 0 0 1 .11-1.033c.123-.679.373-1.558.708-2.254.257-.534.894-.473.942.107.029.345-.027.742-.041.974.01-.005.023-.008.035-.012.372-1.225.47-1.997 1.056-1.86.44.103.534.627.5 1.76l.047.012c.112-.58.325-1.163.755-1.106.432.056.477 1.134.439 1.746.014.014.025.031.039.044.26-.948.516-1.104.774-.89M13.233 29.57c.015 2.391-1.054 3.635-4.01 3.253-2.954-.38-5.737-3.967-5.447-6.348.46-3.787 5.034-4.525 7.176-2.206 1.863 2.017 2.263 2.668 2.28 5.3" data-paper-data="{&quot;origPos&quot;:null}"/><path fill="#bd9168" d="M10.953 24.27c1.862 2.016 2.262 2.668 2.28 5.3.012 1.872-.645 3.036-2.348 3.273a7.262 7.262 0 0 0-.993-.768c-1.292-.849-2.533-1.672-3.625-2.785-1.533-1.566-2.486-3.878-.196-5.318.9-.564 1.957-.787 3.026-.833a4.08 4.08 0 0 1 1.855 1.13m29.892 5.3c.017-2.632.418-3.283 2.28-5.3 2.143-2.319 6.717-1.58 7.177 2.206.289 2.381-2.494 5.967-5.448 6.348-2.955.382-4.025-.862-4.01-3.254" data-paper-data="{&quot;origPos&quot;:null}"/><path fill="#bd9168" d="M45.817 31.056c-.34.473-.58 1.09-.72 1.72-.082.015-.163.037-.244.047-2.955.383-4.025-.862-4.01-3.254.018-2.63.419-3.284 2.28-5.3 1.59-1.719 4.513-1.754 6.106-.115-.011 1.641-.268 3.272-1.154 4.635-.605.932-1.63 1.391-2.258 2.266" data-paper-data="{&quot;origPos&quot;:null}"/><path fill="#28355d" d="M23.345 109.197c.087.961.45 4.281-.001 4.874-.451.594-1.553.92-3.637 1.048-2.083.13-5.953.28-6.517-.095-.562-.373-2.155-1.6.909-2.45.608-.169 1.436-.48 1.695-1.214.243-.688-.108-2.014.635-2.283 2.229-.808 6.836-.774 6.916.12"/><path fill="#28355d" d="M14.629 113.05c.19-.024 2.047.37 1.86.072-.102-.163.006-.34.163-.403 1.07-.42 2.22-.78 3.34-.746 1.184.038 2.373.023 3.56-.005-.037-1.08-.16-2.26-.207-2.77-.08-.895-4.687-.93-6.916-.122-.742.27-.392 1.597-.635 2.284-.26.734-1.087 1.045-1.695 1.214-.817.226-1.295.48-1.558.736.698-.026 1.392-.18 2.088-.26m16.102-3.853c.082-.894 4.687-.928 6.916-.12.743.27.392 1.595.635 2.283.26.733 1.088 1.045 1.695 1.214 3.064.85 1.472 2.077.91 2.45-.564.374-4.435.224-6.518.095s-3.186-.454-3.636-1.048c-.451-.593-.088-3.913-.002-4.874"/><path fill="#28355d" d="M32.727 112.22c-.686.094-1.482.324-2.216.294.004-1.2.166-2.717.22-3.317.082-.894 4.687-.929 6.916-.12.743.27.392 1.596.635 2.283.26.733 1.088 1.046 1.695 1.213 2.524.7 1.889 1.656 1.272 2.18a4.02 4.02 0 0 0-.784-.693 3.026 3.026 0 0 0-.901-.43c-.244-.066-.635.015-.83-.078-.325-.157-.417-.597-.742-.787-.091-.054-1.112.111-1.071-.602.009-.15-.132-.272-.272-.274-1.31-.018-2.625.154-3.922.331"/><path fill="#18717c" d="m39.317 111.427-9.35.09-.002-.15-.202-24.688h-5.45l-.202 24.838-9.35-.09.303-32.12H37.78l1.232.09z"/><path fill="#18717c" d="M18.974 83.763c-1.22-.12-2.696.021-3.95-.288l.039-4.168H37.78l1.232.09.304 32.03-.74.007c.098-2.37-.15-4.75-.34-7.114-.066-.833-.02-2.139-.491-2.875-.138-.215-.484-.349-.59-.535-.407-.708.476-1.072.947-1.369.195-.125.166-.437-.065-.5-1.44-.396.16-2.222-.04-3.206-.395-1.938-.462-3.545-.215-5.513.242-1.923.435-4.345-1.711-5.22-1.412-.578-3.246-.6-4.748-.728-2.04-.175-4.074-.18-6.117-.218-2.083-.037-4.161-.187-6.233-.393m4.873 13.6a4.74 4.74 0 0 0 .382-.533l-.12 14.686h-.75c.024-1.523.138-3.046-.08-4.556-.098-.68-.23-1.307-.59-1.89-.222-.362-.062-.698-.215-1.098-.322-.839.086-1.127.476-1.703.129-.19-.05-.389-.235-.41a26.36 26.36 0 0 1-1.265-.18c.635-.525 1.84-1.275 1.2-2.015-.086-.098-1.093-.132-.933-.77.159-.638 1.703-1.019 2.13-1.532"/><path fill="#18717c" d="M30.796 107.07c.023 1.503.106 2.98.386 4.435l-1.215.011-.002-.15-.121-14.792c.197.068 1.465.811 1.677 1.636.112.44-1.162.297-1.01.684.133.337 1.619 1.193 1.418 1.687-.432 1.06-1.615-.188-1.352.58.12.35.647.614.93.796.176.106.83.22.64.585-.191.365-.62.418-.83.618-1.048.997-.541 2.63-.521 3.91"/><path fill="#bd9168" d="M45.035 28.376c0 9.985-8.058 12.727-17.996 12.727-9.94 0-17.997-2.742-17.997-12.727S10.688 6.963 27.039 6.963c16.35 0 17.996 11.428 17.996 21.413" data-paper-data="{&quot;origPos&quot;:null}"/><path fill="#bd9168" d="M9.266 29.63c-.057-.003-.117-.014-.174-.02a16.41 16.41 0 0 1-.05-1.234c0-9.985 1.645-21.413 17.997-21.413 14.578 0 17.464 9.086 17.918 18.133a6.55 6.55 0 0 0-.955-1.622c-1.75-2.125-6.16-.194-7.345-2.827-.058-.128-.26-.174-.372-.098-1.17.8-2.376-.132-3.63.15-.978.22-1.554.524-2.56.37-.674-.104-1.372-.26-2.012-.506-3.122-1.196-5.583-4.574-5.822-7.894-.021-.29-.468-.393-.535-.073-1.155 5.518-5.265 9.628-10.702 10.935-.144.034-.227.197-.191.336.313 1.178.729 2.435.523 3.665-.188 1.113-.86 2.136-2.09 2.097" data-paper-data="{&quot;origPos&quot;:null}"/><path d="M19.95 23.932c0 .948-.765 1.717-1.71 1.717a1.713 1.713 0 0 1-1.708-1.717c0-.948.765-1.717 1.71-1.717.943 0 1.708.77 1.708 1.717m17.595 0c0 .948-.765 1.717-1.71 1.717a1.712 1.712 0 0 1-1.708-1.717c0-.948.764-1.717 1.708-1.717.945 0 1.71.77 1.71 1.717"/><path fill="#ff9d4d" d="M29.005 26.93a.603.603 0 0 1-.545-.348 1.623 1.623 0 0 0-1.42-.903h-.003c-.584 0-1.17.37-1.421.9a.602.602 0 0 1-.804.286.608.608 0 0 1-.285-.809 2.83 2.83 0 0 1 2.51-1.59h.003a2.83 2.83 0 0 1 2.51 1.597.608.608 0 0 1-.545.866m-2.048 6.688c-4.452 0-6.09-4.534-6.105-4.582a.606.606 0 0 1 .83-.746c.145.07.255.193.308.344.06.173 1.489 4.086 5.44 3.753 3.329-.282 4.647-3.728 4.66-3.763a.603.603 0 0 1 1.13.424c-.063.171-1.607 4.201-5.688 4.546a6.924 6.924 0 0 1-.575.025"/><path fill="#700000" d="M5.896 14.642C7.405 7.294 11.929 4.34 16.532 2.522c4.603-1.818 5.35 0 6.48.228 3.218-3.988 9.35-2.955 16.968 0 7.615 2.954 8.52 15.68 8.52 18.37 0 2.688-.755 8.295-1.885 8.213-1.132-.081-1.82-6.289-2.262-6.981-.445-.692-1.132-.286-3.51-.664-2.377-.38-4.182-1.97-4.182-1.97s-.453.303-1.433.379c-.98.075-2.186-.455-2.186-.455-2.338.682-3.318.682-6.41-1.212-3.091-1.893-5.211-8.333-5.211-8.333s-1.047 5.152-4.063 8.182c-3.016 3.03-7.39 4.807-7.39 4.807s.377 2.541 0 4.889c-.377 2.348-1.474 2.722-2.64 1.358-1.164-1.363-2.396-9.992-1.432-14.69" data-paper-data="{&quot;origPos&quot;:null}"/><path fill="#700000" d="M19.947 2.31c-.526-.269-1.082-.41-1.65-.496 3.055-.746 3.75.604 4.716.798C24.65.582 27.048-.14 30.008.022c-.326.018-.652.042-.977.084-1.093.143-2.377.472-3.06 1.426-.304.426-.391.898-.471 1.408-.028.18.004.672-.102.807-.382.491-.923-.084-1.31-.39-.133-.106-.335-.115-.428.054-.94 1.708-2.687-.577-3.712-1.1M45.73 23.963c.184 1.345.633 3.485 1.673 4.317-.234.582-.5.936-.79.915-1.131-.08-1.818-6.289-2.261-6.98-.445-.694-1.131-.287-3.51-.665-2.377-.38-4.181-1.97-4.181-1.97s-.453.303-1.433.38c-.981.074-2.187-.456-2.187-.456-2.338.682-3.318.682-6.41-1.212C23.54 16.4 21.42 9.961 21.42 9.961s-1.047 5.15-4.063 8.18c-3.016 3.031-7.39 4.808-7.39 4.808s.377 2.54 0 4.89c-.376 2.347-1.474 2.721-2.64 1.357-.13-.153-.261-.403-.391-.723.296.314.657.504 1.082.403 1.404-.336.922-2.773.852-3.7-.072-.929-.307-2.06.385-2.72.644-.613 1.49-.713 2.054-1.486 1.027-1.413.76-3.336 1.627-4.806.367 1.071.997 3.274 2.09 2.36.714-.597 1.014-1.992 1.21-2.854.298-1.306.443-2.978 1.487-3.929.278.698.197 1.455.18 2.205-.006.265.382.38.508.138 1.092-2.112 1.089-4.59 2.22-6.678 1.43 1.04 1.662 3.427 2.61 4.863 1.278 1.93 2.742 3.715 4.6 5.105.209.156.44-.1.4-.309-.128-.659-.277-1.31-.367-1.972.607.715 1.13 1.512 1.757 2.208.407.453 1.153 1.371 1.87 1.182.91-.238.474-1.4.618-2.033.377-1.647 1.38.351 1.667.833.283.475.559.97.99 1.325.164.135.485.066.465-.194-.163-2.133-.3-4.264-.28-6.404.922 1.212 1.826 2.437 2.749 3.647.916 1.2 2.01 2.296 2.533 3.742.11.303.495.23.535-.073.362-2.74-.461-5.489-.008-8.214 2.068 1.944 3.395 4.415 4.108 7.175.483 1.872.592 3.773.852 5.677"/><path fill="#ffd" d="M43.079 46.45c3.98 4.115 7.378 10.097 7.378 10.097s-.505.856-2.972 2.524c-2.468 1.67-3.765 1.763-3.765 1.763s-1.74-2.065-3.58-4.145l1.79 24.428a1.316 1.316 0 0 1-1.31 1.415H13.456a1.316 1.316 0 0 1-1.308-1.415L13.8 58.55a276.302 276.302 0 0 0-2.306 3.074s-1.3 0-3.882-1.485c-2.581-1.485-3.146-2.3-3.146-2.3s2.959-6.214 6.632-10.608c3.285-3.929 9.186-3.805 10.398-3.735a8.875 8.875 0 0 1 1.672-.159h7.738a8.847 8.847 0 0 1 1.547.14c1.235-.16 7.079-.693 10.625 2.973"/><path fill="#ff9d4d" d="M14.459 27.424a.495.495 0 1 1-.988 0 .495.495 0 1 1 .988 0m3.04 1.411a.595.595 0 1 1-1.187 0c0-.33.266-.597.593-.597.329 0 .594.267.594.597m-2.601 1.15a.936.936 0 0 1-.934.938.936.936 0 0 1-.933-.938c0-.518.418-.938.933-.938.516 0 .934.42.934.938m24.218-3.058a.798.798 0 0 1-1.36.565.799.799 0 0 1 .564-1.364c.44 0 .796.358.796.8m-2.681 2.503a.718.718 0 1 1-1.433 0 .718.718 0 1 1 1.433 0m3.51.228a.83.83 0 1 1-1.66 0c0-.46.373-.833.83-.833.459 0 .83.373.83.833"/><path fill="#3397e4" d="M27.456 47.11c-3.44.027-6.935-.333-10.285-1.13-1.087-.259-2.243-.547-3.38-.915 1.18-.64 2.428-1.028 3.579-1.26 3.006.648 6.05 1.012 9.126 1.02 3.497.008 6.818-.355 9.948-1.352 1.338.157 2.827.51 4.223 1.22-3.993 1.992-9.125 2.384-13.211 2.417"/><path fill="#3397e4" d="M45.205 48.87c-6.13 2.155-12.71 3.062-19.19 2.913-4.984-.113-11.466-.48-16.308-2.76.422-.58.861-1.148 1.318-1.7 1.608.413 3.204.904 4.826 1.227 3.348.67 6.75 1.038 10.164 1.098 5.992.1 11.854-.81 17.475-2.765a38.442 38.442 0 0 1 1.715 1.987"/><path fill="#3397e4" d="M48.059 52.742c-6.605 2.783-14.205 4.01-21.32 4.06-6.385.045-13.89-.632-19.9-3.367.258-.442.534-.899.824-1.366 2.598.474 5.16 1.184 7.768 1.603 3.582.575 7.2.914 10.83.888 7.164-.052 13.632-1.86 20.4-3.795.479.65.944 1.31 1.397 1.978"/><path fill="#3397e4" d="M28.942 61.893c-4.524.134-10.434.816-14.734-.976a34.938 34.938 0 0 0-.564-.228l.157-2.138c-.478.626-.92 1.212-1.285 1.7-2.62-.988-5.234-1.865-7.437-3.63.237-.458.537-1.023.89-1.663 1.104.694 2.174 1.453 3.339 2.037 1.808.903 3.856 1.2 5.629 1.94 3.674 1.536 8.907.84 12.787.768 4.163-.077 8.144-.538 12.15-1.578.123-.03.244-.056.364-.085l.173 2.344c-3.79.618-7.52 1.392-11.47 1.51m12.215-4.047c1.435-.272 2.815-.458 4.248-1.252 1.32-.733 2.372-1.692 3.422-2.694.458.704.902 1.417 1.333 2.138-1.825 1.986-4.64 3.27-7.21 3.886a278.538 278.538 0 0 0-1.793-2.078m-16.271 9.12c-3.672.091-7.758.328-11.354-.609l-.297-.075.146-1.988c.344.073.687.144 1.025.214 3.367.7 7.067.46 10.48.353 4.237-.13 8.485-.433 12.686-1.009.997-.136 2.034-.25 3.064-.398l.153 2.078c-.835.144-1.67.27-2.492.39-4.433.651-8.936.93-13.411 1.044m1.97 4.624c-4.587.038-9.345-.017-13.965-.622l.14-1.898c4.605.122 9.21.44 13.826.337 4.786-.107 9.428-.75 14.116-1.367l.19 2.602c-4.696.845-9.7.91-14.306.948m.449 4.583c-3.031.047-6.058-.09-9.081-.314-1.836-.137-3.787-.204-5.653-.534l.12-1.63c1.845.017 3.707.264 5.534.372 2.687.164 5.378.244 8.07.24 5.134-.02 10.06-.67 15.004-1.79l.146 1.994c-4.594 1.184-9.446 1.59-14.14 1.662m1.448 4.718c-3.892-.04-7.854-.077-11.736-.357-1.573-.114-3.212-.267-4.78-.639l.114-1.553c5.536.91 11.264.83 16.854.85 3.134.01 6.268-.204 9.339-.858 1.043-.223 2.078-.563 3.115-.903l.135 1.84c-1.293.346-2.601.612-3.795.856-3.045.625-6.143.797-9.246.764"/><path fill="#bd9168" d="M30.044 43.338h.912c-.07.761-.242 1.505-.663 2.15-.77 1.174-2.21 1.744-3.573 1.686-2.653-.115-3.187-1.863-3.367-3.836h.679v-2.33c.978.064 1.982.094 3.006.094 1.003.001 2.005-.03 3.006-.094v2.33z" data-paper-data="{&quot;origPos&quot;:null}"/><path fill="#bd9168" d="M30.907 43.338h.049c-.07.761-.241 1.505-.663 2.15-.77 1.174-2.21 1.744-3.572 1.687a5.17 5.17 0 0 1-.452-.04c1.07-.435 1.614-1.368 2.007-2.58.268-.824 1.888-2.072.308-2.659-1.387-.515-3.316.747-4.552-.214v-.674c.978.064 1.982.094 3.006.094 1.003.001 2.005-.03 3.006-.094v2.33h.863m18.267 16.151c-.913.638-1.805 1.88-1.903 3.086a31.363 31.363 0 0 1-2.077-2.207c.592-.26 1.357-.666 2.29-1.297 1.115-.754 1.827-1.34 2.275-1.758.307.346.622.684.946 1.014.356-.66.7-1.534.868-1.96.728-1.847 1.376-4.236 1.903-6.51-.062.535-.122 1.071-.187 1.605a63.56 63.56 0 0 1-.585 3.89c-.156.833-.658 1.561-.692 2.538-.034.977.324 1.547.002 1.772-.376.263-.921-.572-1.264-.369-.23.137-.248.294-.32.532-.028.092.014.706-.06.75-.636.378-.735-.632-.796-.922-.034-.164-.26-.262-.4-.164m-38.621 1.958c-2.688 6.435-3.904 12.447-4.968 18.78.005.42-.032.841-.111 1.254-.123.68-.374 1.56-.71 2.254-.256.535-.893.474-.941-.107-.034-.403.052-.889.046-1.083l-.003.002c-.405 1.297-.488 2.121-1.092 1.98-.455-.106-.54-.66-.497-1.86l-.032-.009c-.107.61-.32 1.262-.774 1.203-.454-.06-.48-1.247-.433-1.837-.008-.008-.018-.013-.028-.02-.266 1.007-.527 1.174-.792.957-.262-.216-.277-2.32-.102-2.94l.057-.19c.006-.09.003-.178.018-.268 1.12-6.707 2.454-13.395 5.529-20.63.61.434 1.242.837 1.893 1.206 1.313.755 2.292 1.125 2.94 1.308" data-paper-data="{&quot;origPos&quot;:null}"/><path fill="#bd9168" d="M7.75 60.14c1.313.754 2.292 1.125 2.939 1.307-2.687 6.435-3.903 12.447-4.967 18.78.008.357-.024.768-.112 1.254-.122.68-.373 1.56-.708 2.254-.257.536.353-8.759 1.103-11.824.612-2.499 1.466-5.086 1.722-7.653.09-.896-.018-1.75-.567-2.488-.51-.687-1.178-1.174-1.743-1.77.143-.355.288-.71.44-1.067.61.434 1.241.837 1.893 1.206" data-paper-data="{&quot;origPos&quot;:null}"/></g></svg>