<svg version="1.1" xmlns="http://www.w3.org/2000/svg" xmlns:xlink="http://www.w3.org/1999/xlink" width="70.64764" height="118.0893" viewBox="0,0,70.64764,118.0893"><g transform="translate(-205.0425,-121.5833)"><g data-paper-data="{&quot;isPaintingLayer&quot;:true}" fill-rule="evenodd" stroke="none" stroke-width="1" stroke-linecap="butt" stroke-linejoin="miter" stroke-miterlimit="10" stroke-dasharray="" stroke-dashoffset="0" style="mix-blend-mode: normal"><path d="M274.885,201.226c0.264,2.332 -0.824,4.372 -2.442,4.56c-1.054,0.122 -2.067,-0.583 -2.721,-1.732c-0.594,0.505 -1.184,0.704 -1.614,0.48c-0.791,-0.413 -0.709,-2.153 0.185,-3.888c0.30474,-0.60825 0.7029,-1.165 1.18,-1.65c0.027,-0.07 0.068,-0.137 0.103,-0.21c0,0 -1.642,-10.077 -3.337,-12.45c-0.577,-0.809 -1.027,-1.376 -1.29,-1.825c2.205,9.912 2.547,23.139 2.547,23.139l-31.335,0.25c0,0 0.183,-15.22 2.685,-25.28c-1.384,0.567 -8.36,3.323 -10.51,2.553c-2.95,-1.049 -6.41,-10.675 -6.41,-10.675c-1.266,-0.446 -2.503,-1.654 -3.223,-3.33c-1.123,-2.611 -0.573,-5.367 1.237,-6.155c1.178,-0.513 2.603,-0.064 3.758,1.039c0.514,-0.791 1.131,-1.233 1.698,-1.126c1.073,0.201 1.589,2.245 1.157,4.575c-0.1411,0.81316 -0.40583,1.59994 -0.785,2.333c-0.043,0.288 -0.109,0.563 -0.199,0.826l5.471,6.36l11.635,-4.298c2.114,-1.242 7.08,-1.509 7.08,-1.509l1.729,0.106l0.146,-0.002l1.718,-0.097c0,0 4.983,0.115 7.098,1.305h-0.018c0,0 6.61,3.412 8.388,5.654c3.526,4.46 5.055,17.63 5.152,18.53v-0.014c0.472,0.67 0.807,1.549 0.916,2.532z" data-paper-data="{&quot;origPos&quot;:null}" fill="#795b4c"/><path d="M226.852,162.095c0.048,6.064 -4.791,11.017 -10.816,11.067c-6.025,0.045 -10.946,-4.827 -10.993,-10.891c-0.05,-6.062 4.794,-11.017 10.818,-11.067c6.025,-0.048 10.946,4.831 10.991,10.891" fill="#f6b90c"/><path d="M216.037,173.161c-0.57245,0.00592 -1.1444,-0.03555 -1.71,-0.124l0.318,-0.122l0.491,-0.213l0.613,-0.294l0.637,-0.32l0.633,-0.34l0.55,-0.29l0.453,-0.27l0.401,-0.23l0.422,-0.25l0.419,-0.255l0.306,-0.19l0.173,-0.143l0.284,-0.046l0.402,-0.06l0.42,-0.051l0.44,-0.03l0.378,-0.026l0.358,-0.02l0.326,-0.04l0.327,-0.002l0.36,-0.002l0.351,0.008l-0.306,0.418l-0.288,0.356l-0.226,0.281c-1.8726,1.44491 -4.16682,2.23693 -6.532,2.255M215.862,151.205c0.946,-0.006 1.866,0.105 2.746,0.33l0.607,0.45l0.84,0.689l0.726,0.635l0.561,0.542l0.498,0.511l0.415,0.428l0.403,0.439l0.361,0.453l0.243,0.296l-4.197,0.03l-0.638,-0.51l-0.437,-0.296l-0.975,-0.608l-0.744,-0.391l-0.6,-0.331l-0.78,-0.342l-0.795,-0.325l-0.797,-0.29l-0.765,-0.214l-0.477,-0.129l-0.532,-0.116l-0.465,-0.088c1.4897,-0.75242 3.13311,-1.15044 4.802,-1.163M207.287,168.821l-0.103,-13.163v-0.012c0.09,-0.12 0.185,-0.238 0.277,-0.362l0.019,-0.004l0.35,-0.002l0.7,-0.035l0.637,0.016l0.833,0.023l0.658,0.047l0.13,16.521l0.012,0.004c-1.378,-0.749 -2.603,-1.783 -3.513,-3.033" fill="#0771b7"/><path d="M223.741,169.837l-1.112,0.015l-1.213,0.064l-1.284,0.132l-0.833,0.13l-1.605,0.295l-1.094,0.242l-1.007,0.283l-1.034,0.319l-0.228,-1.04l-0.179,-1.033l-0.17,-1.082l-0.163,-0.962l-0.064,-0.675l-0.055,-0.753l12.6,-0.101c-0.53362,1.5612 -1.40771,2.98421 -2.559,4.166M226.72,160.489l-13.094,0.105l0.045,-0.639l0.07,-0.633l0.05,-0.422l0.168,-0.979l0.156,-0.784l0.138,-0.583l0.146,-0.518l10.529,-0.084v0.002c0.9319,1.35542 1.5452,2.90405 1.794,4.53z" fill="#0771b7"/><path d="M226.72,160.473h0.002c0.08,0.531 0.126,1.071 0.13,1.622c0.0116,1.21275 -0.17763,2.41905 -0.56,3.57l-0.01,0.01l-12.563,0.098l-0.048,-0.49l-0.078,-0.937l-0.008,-1.163l-0.012,-1.322l0.063,-1.283zM207.152,155.682l0.105,13.123h-0.004c-1.42196,-1.88233 -2.19718,-4.17398 -2.21,-6.533c-0.02253,-2.36609 0.71692,-4.67663 2.109,-6.59" fill="#eeeeed"/><path d="M223.77,169.827c-0.021,0.029 -0.044,0.044 -0.06,0.064c-0.095,-0.002 -0.19,0 -0.285,-0.004c-0.127,0.17 -0.386,0.501 -0.76,0.94c-0.08553,0.06943 -0.17324,0.13613 -0.263,0.2c0.475,-0.542 0.8,-0.96 0.942,-1.14l-0.315,-0.001c-1.33,0.01 -2.103,0.07 -3.256,0.25c0,0 -1.944,1.307 -4.152,2.371c-0.374,0.182 -0.785,0.366 -1.229,0.544c-0.043,-0.006 -0.087,-0.013 -0.13,-0.023c0.481,-0.187 0.929,-0.385 1.328,-0.577c1.949,-0.942 3.797,-2.059 4.092,-2.297c-2.965,0.385 -5.14,1.196 -5.14,1.196c-0.167,0.06 -1.501,0.48 -3.304,0.735l-0.105,-0.052c1.814,-0.244 3.172,-0.673 3.38,-0.737c-0.062,-0.281 -0.567,-2.458 -0.835,-5.284c-0.238,-2.464 -0.335,-5.892 0.403,-8.894c0.082,-0.362 0.171,-0.716 0.272,-1.076c-0.333,-0.088 -1.813,-0.47 -3.692,-0.658l0.131,16.473c-0.022,-0.008 -0.045,-0.021 -0.065,-0.031l-0.13,-16.452c-0.645,-0.06 -1.336,-0.096 -2.035,-0.092c-0.37772,0.00336 -0.75525,0.0187 -1.132,0.046c0.018,-0.021 0.031,-0.048 0.051,-0.068c0.349,-0.025 0.707,-0.044 1.082,-0.048c3.002,-0.024 5.742,0.756 5.87,0.786l4.575,-0.033c-0.367,-0.291 -1.687,-1.273 -3.566,-2.153c-1.17,-0.553 -2.705,-1.13 -4.434,-1.42c0.035,-0.016 0.064,-0.031 0.099,-0.045c1.702,0.292 3.211,0.858 4.368,1.402c1.28835,0.60578 2.50799,1.34803 3.638,2.214l4.097,-0.035c-0.38,-0.466 -2.307,-2.74 -4.707,-4.42c0.061,0.013 0.121,0.032 0.183,0.05c0.59762,0.42291 1.17055,0.87965 1.716,1.368c1.03689,0.92651 2.0023,1.93004 2.888,3.002l1.612,-0.012l0.043,0.066l-10.49,0.085c-0.115,0.345 -0.22,0.701 -0.312,1.063c-0.241,1.113 -0.384,2.264 -0.458,3.41l13.03,-0.104c0.00595,0.02152 0.00931,0.04368 0.01,0.066l-13.04,0.104c-0.116,1.779 -0.052,3.544 0.081,5.116l12.54,-0.103c-0.006,0.025 -0.013,0.046 -0.019,0.066l-12.516,0.102c0.257,2.96 0.752,5.192 0.822,5.492c0.399,-0.14 4.22,-1.423 8.437,-1.46c0.254,-0.002 0.499,0.002 0.74,0.008M207.128,155.724c0.018,-0.024 0.039,-0.06 0.06,-0.084l0.105,13.226c-0.023,-0.031 -0.042,-0.062 -0.06,-0.084l-0.105,-13.058" fill="#727371"/><path d="M226.589,169.252c0.315,-2.219 -0.26,-4.136 -1.28,-4.279c-1.015,-0.145 -2.095,1.537 -2.405,3.755c-0.313,2.218 0.261,4.132 1.281,4.283c1.019,0.138 2.096,-1.539 2.405,-3.759M251.395,233.806c0.061,0.252 -0.019,0.522 -0.19,0.792c-0.546,0.871 -1.512,1.508 -2.33,2.096c-1.277,0.893 -2.88,1.376 -4.288,2.063c-1.273,0.554 -2.944,1.578 -4.099,0.303c-1.529,-1.814 -0.261,-4.063 1.494,-5.18h-0.008l-2.088,-23.056c0,0 4.292,-1.322 5.685,-0.942c1.933,0.522 6.175,5.129 6.175,5.129l-0.351,18.795M262.086,233.719c1.776,1.09 3.079,3.316 1.583,5.158c-1.135,1.29 -2.824,0.296 -4.103,-0.24c-1.421,-0.666 -3.036,-1.12 -4.321,-1.992c-0.824,-0.576 -1.802,-1.199 -2.37,-2.06c-0.172,-0.268 -0.259,-0.527 -0.195,-0.79h-0.002l-0.654,-18.785c0,0 4.228,-4.712 6.173,-5.26c1.369,-0.385 5.624,0.881 5.624,0.881l-1.727,23.088h-0.008" data-paper-data="{&quot;origPos&quot;:null}" fill="#795b4c"/><path d="M248.68,207.782l3.15,-0.025l2.894,-0.02l9.33,-0.08l-0.826,13.426l-11.182,0.091l-0.015,-6.291l-0.285,0.002l0.078,6.29l-11.18,0.093l-1.04,-13.414z" fill="#343434"/><path d="M240.644,221.268l-1.04,-13.413l1.394,0.045l1.243,13.352zM262.817,207.688l1.237,-0.01l-0.808,13.404l-1.547,0.015z" fill="#b52836"/><path d="M249.988,175.004c-1.051,0.008 -1.918,-2.255 -1.927,-3.288l7.466,-0.06c0.008,1.033 -0.822,3.309 -1.87,3.317l-3.669,0.031" data-paper-data="{&quot;origPos&quot;:null}" fill="#795b4c"/><path d="M248.886,174.169c-0.43,-0.641 -0.732,-1.533 -0.804,-2.185c1.20233,0.19145 2.41858,0.28176 3.636,0.27c1.2735,-0.00834 2.5439,-0.12678 3.797,-0.354l-0.013,0.018l-6.616,2.252" fill="#eeac6c"/><path d="M242.549,175.251c0.026,-0.336 0.03,-0.53 0.03,-0.53c0,0 0.004,-0.019 0,0c0.11945,-0.07748 0.2437,-0.14729 0.372,-0.209c1.147,-0.596 2.979,-0.929 4.459,-1.116c0,0 0.32,11.063 4.238,11.045c3.928,-0.019 4.146,-11.123 4.146,-11.123c1.645,0.196 3.735,0.565 4.86,1.272l0.006,0.013c0.068,6.047 2.637,8.789 3.772,9.563c0.128,0.082 0.386,0.262 0.438,0.21c0.065,0.139 0.145,0.214 0.168,0.334c2.146,9.854 2.512,22.812 2.512,22.812l0.051,2.015l-31.4,0.253l-0.007,-2.003c0,0 0.247,-15.112 2.72,-25.157c2.872,-0.262 3.507,-5.648 3.634,-7.38" fill="#e63744"/><path d="M252.206,196.368l-1.13,0.009l-0.036,-4.705l-1.171,0.008l-0.007,-0.873l2.298,-0.22zM251.644,185.838c-4.046,0.022 -5.02,-8.998 -5.242,-12.302c0.345,-0.054 0.687,-0.1 1.007,-0.14c0,0 0.32,11.064 4.239,11.045c3.928,-0.02 4.148,-11.123 4.148,-11.123c0.314,0.044 0.647,0.085 0.985,0.141c-0.19,3.308 -1.086,12.36 -5.137,12.379M239.158,209.768h-0.062l0.905,-27.554h0.065zM265.64,209.554l-1.892,-25.928l0.066,-0.004l1.883,25.932z" fill="#eeeeed"/><path d="M229.09,153.241c-0.18096,-1.12474 -0.27457,-2.26181 -0.28,-3.401c-0.1,-12.474 9.868,-22.67 22.263,-22.767c12.395,-0.1 22.529,9.935 22.627,22.409c0.00827,1.08621 -0.0609,2.17163 -0.207,3.248c1.297,0.706 2.185,2.038 2.197,3.59c0.019,2.29 -1.887,4.163 -4.25,4.183c-0.1596,0.00084 -0.31915,-0.0065 -0.478,-0.022c-3.778,6.96 -11.09,11.708 -19.53,11.774c-8.431,0.068 -15.815,-4.556 -19.704,-11.441c-0.07,0 -0.134,0.006 -0.201,0.008c-2.37,0.019 -4.303,-1.825 -4.32,-4.113c-0.011,-1.442 0.735,-2.72 1.884,-3.468" data-paper-data="{&quot;origPos&quot;:null}" fill="#795b4c"/><path d="M245.229,149.096c-0.772,-0.174 -0.908,-1.201 -3.386,-0.74c-0.779,0.18 -2.417,1.156 -2.732,1.808c-0.316,0.652 -0.088,-2.392 2.457,-3.522c1.835,-0.675 2.457,-0.642 3.977,-0.642c1.52,0 1.987,0.907 1.766,1.65c0,0 -0.503,1.803 -2.082,1.446zM259.134,149.096c0.772,-0.174 0.908,-1.201 3.386,-0.74c0.779,0.18 2.417,1.156 2.732,1.808c0.316,0.652 0.087,-2.392 -2.457,-3.522c-1.835,-0.675 -2.457,-0.642 -3.977,-0.642c-1.52,0 -1.987,0.907 -1.766,1.65c0,0 0.503,1.803 2.082,1.446zM245,155c0,1.657 -0.895,3 -2,3c-1.105,0 -2,-1.343 -2,-3c0,-1.657 0.895,-3 2,-3c1.105,0 2,1.343 2,3M263,155c0,1.657 -0.895,3 -2,3c-1.105,0 -2,-1.343 -2,-3c0,-1.657 0.895,-3 2,-3c1.105,0 2,1.343 2,3" fill="#343434"/><path d="M252.02,158.069c-1.125,0.153 -3.02,1.834 -3.02,1.834c0,0 0.207,-1.009 0.503,-1.299c0.8,-1.156 2.487,-1.604 2.487,-1.604c0,0 2.173,0.703 2.65,1.588c0.443,0.824 0.34,1.238 0.34,1.238c0,0 -2.121,-1.871 -2.96,-1.756z" fill="#eeac6c"/><path d="M245.2,161.696c0,0 6.897,3.208 13.172,-0.397c0,0 -1.39,5.47 -5.95,5.561c-4.115,0.122 -4.984,-1.492 -5.477,-1.956c-0.492,-0.463 -1.42,-1.772 -1.745,-3.208" fill="#eeac6c"/><path d="M274.643,146.533c0.056,2.655 -0.82,8.403 -2.588,11.837c0,0 -4.518,-12.534 -8.168,-14.501c-4.463,-2.396 -16.153,1.204 -20.149,-1.923c-0.666,-0.515 -0.594,-1.7 -0.594,-1.7c0,0 -0.75,1.516 -1.118,1.938c-1.906,2.22 -6.87,5.456 -9.224,7.183c-1.893,1.395 -1.983,1.377 -1.5,9.33c0,0 -3.556,-7.206 -3.4,-12.039c0.039,-1.393 0.689,-4.486 1.755,-7.629c3.89,-8.011 12.028,-13.558 21.483,-13.634c10.867,-0.088 20.11,7.069 23.202,16.992c0.16247,1.37677 0.26257,2.76018 0.3,4.146" fill="#343434"/><path d="M228.444,143.649c0,0 8.04,-7.366 22.626,-7.48c12.004,-0.095 23.182,7.112 23.182,7.112c0.093,11.655 -5.987,9.015 -11.443,7.03c-11.661,-4.253 -11.661,-4.253 -23.61,0.02c-5.178,1.852 -10.668,4.314 -10.755,-6.683" fill="#075983"/><path d="M232.009,151.832l-2.192,-9.254c0.84723,-0.60111 1.72507,-1.15786 2.63,-1.668l2.257,10.855c-0.964,0.196 -1.883,0.261 -2.694,0.068zM269.854,140.896c0.91505,0.43815 1.81773,0.90166 2.707,1.39l-2.13,9.662c-0.82,0.172 -1.722,0.116 -2.678,-0.07z" fill="#eeeeed"/><path d="M228.388,143.668c-2.364,-2.336 5.302,-21.941 22.992,-22.084c17.142,-0.134 25.384,19.151 22.872,21.716c-23.861,-6.022 -45.864,0.368 -45.864,0.368" fill="#0771b7"/></g></g></svg>