<svg version="1.1" xmlns="http://www.w3.org/2000/svg" xmlns:xlink="http://www.w3.org/1999/xlink" width="73.339" height="116.955" viewBox="0,0,73.339,116.955"><g transform="translate(-203.066,-121.807)"><g data-paper-data="{&quot;isPaintingLayer&quot;:true}" fill-rule="evenodd" stroke="none" stroke-width="1" stroke-linecap="butt" stroke-linejoin="miter" stroke-miterlimit="10" stroke-dasharray="" stroke-dashoffset="0" style="mix-blend-mode: normal"><path d="M247.412,232.826c1.81,1.121 3.12,3.394 1.574,5.261c-1.17,1.315 -2.891,0.269 -4.199,-0.289c-1.445,-0.69 -3.096,-1.18 -4.405,-2.08c-0.847,-0.595 -1.838,-1.222 -2.408,-2.107c-0.177,-0.271 -0.26,-0.521 -0.198,-0.785h-0.134l-0.38,-19.13h-0.288l-0.38,19.13h-0.134c0.065,0.264 -0.019,0.514 -0.195,0.785c-0.571,0.885 -1.561,1.512 -2.409,2.107c-1.308,0.9 -2.96,1.39 -4.404,2.081c-1.309,0.557 -3.029,1.603 -4.199,0.287c-1.549,-1.866 -0.237,-4.14 1.573,-5.26h-0.205l-1.967,-26.386h24.931l-1.97,26.386h-0.203" fill="#343434"/><path d="M210.417,166.128c1.124,2.664 0.537,5.464 -1.31,6.25c-1.846,0.786 -4.254,-0.738 -5.379,-3.404c-1.122,-2.666 -0.534,-5.465 1.31,-6.25c1.848,-0.787 4.252,0.737 5.379,3.404M263.882,166.128c-1.124,2.664 -0.54,5.464 1.308,6.25c1.848,0.786 4.254,-0.738 5.378,-3.404c1.122,-2.666 0.535,-5.465 -1.31,-6.25c-1.846,-0.787 -4.254,0.737 -5.376,3.404" data-paper-data="{&quot;origPos&quot;:null}" fill="#ffe297"/><path d="M246.396,172.79l11.675,4.268l5.429,-6.557l4.79,2.371c0,0 -4.423,9.334 -7.419,10.426c-2.423,0.883 -10.968,-2.609 -10.968,-2.609c0,0 -0.695,-2.669 -1.053,-3.516c-0.49,-1.154 -2.454,-4.382 -2.454,-4.382" fill="#ffffff"/><path d="M248.266,175.327c-0.564,-0.463 -0.664,-1.243 -1.056,-1.716l0.084,-0.492l1.33,0.487l-0.358,1.72zM249.625,178.824c0,0 -0.385,-1.176 -0.774,-1.65l0.554,-3.285l1.275,0.468zM251.359,181.252c-0.611,-0.226 -1.067,-0.406 -1.299,-0.497l1.42,-6.106l1.533,0.56zM253.84,182.121c-0.461,-0.148 -0.91,-0.302 -1.323,-0.448l1.602,-6.06l1.54,0.561l-1.82,5.947zM258.25,176.84l-1.096,6.224c-0.45601,-0.10601 -0.90947,-0.22271 -1.36,-0.35l0.842,-6.18l1.435,0.525l0.179,-0.218zM258.576,176.45l1.268,-1.534l2.258,7.574c-0.42,0.377 -0.828,0.658 -1.213,0.802l-2.313,-6.843zM264.425,179.682l-4.316,-5.084l1.084,-1.312l4.056,5.138c-0.26723,0.42416 -0.54194,0.84356 -0.824,1.258M266.805,175.753l-5.199,-2.961l1.081,-1.308l4.806,2.976c-0.2,0.384 -0.432,0.823 -0.688,1.293" fill="#1679af"/><path d="M227.901,172.791c0,0 -1.965,3.228 -2.452,4.382c-0.36,0.847 -1.052,3.516 -1.052,3.516c0,0 -8.546,3.492 -10.969,2.609c-2.999,-1.092 -7.419,-10.426 -7.419,-10.426l4.788,-2.371l5.428,6.557l11.675,-4.268" fill="#ffffff"/><path d="M246.825,173.166c5.75,6.108 6.295,33.273 6.295,33.273h-31.909c0,0 0.542,-27.129 6.295,-33.237c1.549,-1.644 7.825,-1.942 7.825,-1.942l1.762,0.087h0.145l1.762,-0.058c0,0 6.275,0.23 7.825,1.877" fill="#ffffff"/><path d="M252.918,201.558c0.034,0.593 0.063,1.188 0.089,1.716h-31.682c0.024,-0.528 0.053,-1.123 0.086,-1.716h31.507M221.525,199.711c0.038,-0.593 0.074,-1.121 0.122,-1.716h31.037c0.043,0.596 0.086,1.123 0.121,1.716h-31.28M221.795,196.151c0.04509,-0.57257 0.09676,-1.14461 0.155,-1.716h30.429c0.057,0.528 0.107,1.121 0.157,1.716h-30.741M222.126,192.72c0.062,-0.593 0.129,-1.188 0.199,-1.716h29.683c0.07134,0.5713 0.13668,1.14333 0.196,1.716h-30.078M222.537,189.354c0.076,-0.593 0.157,-1.186 0.246,-1.716h28.764c0.09223,0.57049 0.17424,1.14258 0.246,1.716h-29.256M223.091,185.728c0.09466,-0.57404 0.20068,-1.14616 0.318,-1.716h27.514c0.11587,0.57013 0.22188,1.14221 0.318,1.716h-28.15M226.075,175.289c-0.016,0.015 -0.028,0.027 -0.043,0.038l-0.36,-1.72l1.332,-0.487l0.083,0.492c-0.07742,0.09711 -0.14508,0.20162 -0.202,0.312c0.06501,-0.09138 0.13237,-0.18108 0.202,-0.269h20.162c0.373,0.463 0.726,1.058 1.053,1.715h-22.27l0.043,-0.08" fill="#1679af"/><path d="M224.798,178.47c-0.079,0.209 -0.127,0.353 -0.127,0.353l-1.055,-4.467l1.275,-0.465l0.554,3.261h23.63c0.21446,0.5654 0.41024,1.13771 0.587,1.716h-24.991c0.041,-0.134 0.084,-0.264 0.127,-0.398" fill="#1679af"/><path d="M224.127,180.797c-0.249,0.101 -0.664,0.259 -1.189,0.453l-1.654,-6.04l1.53,-0.562l1.398,6h25.953c0.036,0.132 0.07,0.243 0.1,0.375c0.005,0.019 0.01,0.016 0.015,0.033c0.033,0.132 0.064,0.267 0.095,0.399v0.007c0.07118,0.29169 0.13818,0.58439 0.201,0.878c0.002,0.002 0.002,0.022 0.002,0.022h-26.823v-0.019c0.066,-0.293 0.13,-0.6 0.2,-0.888l0.002,-0.007c0.03087,-0.12695 0.06287,-0.25362 0.096,-0.38c0.004,-0.021 0.009,-0.028 0.014,-0.048c0.019,-0.079 0.04,-0.151 0.06,-0.223M220.18,175.612l1.602,6.06c-0.415,0.147 -0.86,0.298 -1.325,0.45l-1.819,-5.948l1.542,-0.561zM217.661,176.534l0.842,6.18c-0.458,0.129 -0.916,0.246 -1.36,0.35l-1.096,-6.224l0.179,0.219zM212.196,182.489l2.258,-7.571l1.27,1.53l-2.313,6.842c-0.387,-0.143 -0.795,-0.424 -1.215,-0.8zM214.189,174.598l-4.318,5.083c-0.279,-0.41 -0.554,-0.835 -0.819,-1.257l4.048,-5.139zM212.693,172.791l-5.2,2.962c-0.258,-0.471 -0.49,-0.91 -0.69,-1.294l4.805,-2.976z" fill="#1679af"/><path d="M254.11,197.644c2.175,-0.315 0,8.861 0,8.861h-31.219c-0.021,0.727 -0.088,1.462 -0.171,2.152c-0.387,3.738 -1.917,7.258 -2.937,10.788c-1.024,-0.405 -1.723,0.411 -2.745,0.615c-0.064,-0.341 -0.064,-0.816 -0.064,-1.224c0,-3.055 -0.636,-6.384 -0.256,-9.307c0.256,-1.834 0.896,-3.598 1.468,-5.364c0.227,-0.72 1.101,-4.464 2.402,-3.963c2.487,0.007 16.349,-0.077 33.522,-2.558" fill="#e63744"/><path d="M208.972,212.534c1.902,0.575 3.215,2.318 3.215,4.375v17.231c0,2.529 -2.038,4.622 -4.554,4.622h-0.012c-2.516,0 -4.555,-2.092 -4.555,-4.622v-17.232c0,-2.153 1.508,-3.96 3.478,-4.445v-56.023h-0.341c-0.463,0 -0.84,-0.401 -0.84,-0.866v-0.03c0.00076,-0.22073 0.09015,-0.4319 0.2481,-0.58609c0.15795,-0.15419 0.37122,-0.23847 0.5919,-0.23391h2.848c0.22094,-0.00484 0.43452,0.07949 0.59256,0.23395c0.15804,0.15447 0.24723,0.36606 0.24744,0.58705v0.028c0,0.467 -0.375,0.867 -0.84,0.867h-0.079v56.094" fill="#ad6922"/><path d="M264.549,167.923c-0.703,-1.874 2.979,-6.394 4.967,-6.262l6.889,11.458l-11.856,-5.196" fill="#d38014"/><path d="M270.28,162.95l6.124,10.168l-10.539,-4.61c-0.621,-1.663 2.652,-5.671 4.416,-5.558z" fill="#fabf68"/><path d="M269.656,167.562c0,0.782 -0.546,1.418 -1.217,1.418c-0.67,0 -1.215,-0.636 -1.215,-1.418c0,-0.782 0.544,-1.418 1.215,-1.418c0.67,0 1.217,0.636 1.217,1.418" fill="#d38014"/><path d="M269.656,163.944l0.258,1.126l-0.706,0.367l-0.13,-0.727zM271.229,168.957l0.258,1.128l-0.707,0.365l-0.128,-0.727z" fill="#e52f2c"/><path d="M270.432,166.493c0,0 0.22,-0.257 0.664,-0.35c0.447,-0.089 0.807,1.418 0.807,1.418c0,0 -0.578,0.451 -0.609,0.06c-0.031,-0.391 -0.862,-1.128 -0.862,-1.128" fill="#4ba534"/><path d="M274.018,171.092c-0.671,0 -1.218,-0.636 -1.218,-1.419c0,-0.588 0.306,-1.089 0.743,-1.305l1.365,2.268c-0.222,0.278 -0.54,0.456 -0.89,0.456" fill="#d38014"/><path d="M211.737,167.342c0.458,-2.362 -0.051,-4.452 -1.139,-4.664c-1.089,-0.211 -2.337,1.532 -2.793,3.896c-0.458,2.364 0.05,4.449 1.136,4.665c1.089,0.211 2.34,-1.533 2.796,-3.897M262.561,167.342c-0.457,-2.362 0.052,-4.452 1.14,-4.664c1.086,-0.211 2.337,1.532 2.793,3.896c0.458,2.364 -0.052,4.449 -1.138,4.665c-1.086,0.211 -2.34,-1.533 -2.796,-3.897M259.76,150.481c1.175,0.758 1.945,2.049 1.945,3.518c0,2.333 -1.954,4.227 -4.37,4.227c-0.067,0 -0.136,-0.003 -0.205,-0.005c-3.91,7.046 -11.403,11.813 -20,11.813c-8.607,0 -16.105,-4.776 -20.01,-11.835c-0.16,0.017 -0.323,0.027 -0.485,0.027c-2.413,0 -4.368,-1.894 -4.368,-4.227c0,-1.574 0.89,-2.949 2.208,-3.674c-0.153,-1.08 -0.232,-2.184 -0.232,-3.303c0,-12.708 10.248,-23.013 22.888,-23.013c12.639,0 22.887,10.305 22.887,23.013c0.00016,1.15748 -0.08608,2.31336 -0.258,3.458" data-paper-data="{&quot;origPos&quot;:null}" fill="#ffe297"/><path d="M231.229,147.096c-0.772,-0.174 -0.908,-1.201 -3.386,-0.74c-0.779,0.18 -2.417,1.156 -2.732,1.808c-0.316,0.652 -0.088,-2.392 2.457,-3.522c1.835,-0.675 2.457,-0.642 3.977,-0.642c1.52,0 1.987,0.907 1.766,1.65c0,0 -0.503,1.803 -2.082,1.446zM245.134,147.096c0.772,-0.174 0.908,-1.201 3.386,-0.74c0.779,0.18 2.417,1.156 2.732,1.808c0.316,0.652 0.087,-2.392 -2.457,-3.522c-1.835,-0.675 -2.457,-0.642 -3.977,-0.642c-1.52,0 -1.987,0.907 -1.766,1.65c0,0 0.503,1.803 2.082,1.446z" data-paper-data="{&quot;origPos&quot;:null}" fill="#ad6922"/><path d="M231,153c0,1.657 -0.895,3 -2,3c-1.105,0 -2,-1.343 -2,-3c0,-1.657 0.895,-3 2,-3c1.105,0 2,1.343 2,3M249,153c0,1.657 -0.895,3 -2,3c-1.105,0 -2,-1.343 -2,-3c0,-1.657 0.895,-3 2,-3c1.105,0 2,1.343 2,3" data-paper-data="{&quot;origPos&quot;:null}" fill="#794b19"/><path d="M238.02,156.069c-1.125,0.153 -3.02,1.834 -3.02,1.834c0,0 0.207,-1.009 0.503,-1.299c0.8,-1.156 2.487,-1.604 2.487,-1.604c0,0 2.173,0.703 2.65,1.588c0.443,0.824 0.34,1.238 0.34,1.238c0,0 -2.121,-1.871 -2.96,-1.756z" fill="#eeac6c"/><path d="M231.2,159.696c0,0 6.897,3.208 13.172,-0.397c0,0 -1.39,5.47 -5.95,5.561c-4.115,0.122 -4.984,-1.492 -5.477,-1.956c-0.492,-0.463 -1.42,-1.772 -1.745,-3.208" fill="#eeac6c"/><path d="M260.926,144.025c0.035,2.702 -0.902,8.548 -2.735,12.033c0,0 -4.5,-12.806 -8.21,-14.836c-4.531,-2.477 -16.478,1.094 -20.531,-2.12c-0.671,-0.53 -0.597,-1.737 -0.597,-1.737c0,0 -0.773,1.535 -1.148,1.965c-1.962,2.244 -7.052,5.496 -9.467,7.243c-1.941,1.405 -2.032,1.388 -1.605,9.485c0,0 -3.568,-7.368 -3.37,-12.288c0.057,-1.416 0.74,-4.562 1.852,-7.757c4.027,-8.128 12.375,-13.711 22.019,-13.711c11.08,0 20.445,7.368 23.52,17.492c0.15793,1.40487 0.2487,2.81648 0.272,4.23" data-paper-data="{&quot;origPos&quot;:null}" fill="#80501e"/><path d="M235.349,172.798c-1.069,0 -1.939,-2.244 -1.939,-3.298h7.613c0,1.054 -0.867,3.298 -1.938,3.298h-3.736" data-paper-data="{&quot;origPos&quot;:null}" fill="#ffe297"/><path d="M234.23,171.964c-0.433,-0.658 -0.733,-1.572 -0.803,-2.232c2.51054,0.41313 5.07246,0.404 7.58,-0.027l-0.012,0.015l-6.765,2.244" fill="#eeac6c"/><path d="M242.885,171.654c0.903,0.878 1.236,1.668 0.036,2.923c-0.482,0.502 -1.757,0.456 -2.647,0.389c0.0713,0.38959 0.10645,0.78494 0.105,1.181c0,1.893 -0.769,3.427 -1.753,3.427c-0.918,0 0,-0.07 0,-1.966c0,-0.624 -0.1,-1.372 -0.2,-2.09c-1.045,0.437 -1.215,0.504 -2.821,0.497c-1.743,-0.01 -3.896,-1.57 -5.034,-2.813c-0.777,-0.868 -0.777,-1.411 0.3,-1.898c0.837,-0.382 1.599,-1.572 2.557,-1.572c-0.048,2.361 2.461,3.511 4.793,3.727c0.014,-0.451 0.124,-0.737 0.406,-0.737c0.303,0 0.585,0.146 0.828,0.398c0.674,-0.933 1.599,-2.155 1.354,-3.338c0.334,0.096 1.799,1.601 2.076,1.872" fill="#e63744"/><path d="M267.233,135.924v1.584h-60.167v-1.584h7.152v-14.117h45.797v14.117z" fill="#fabf68"/><path d="M269.629,149.035c0.638,0.923 1.416,1.917 2.332,2.63c-2.191,-0.499 -4.592,2.128 -6.077,3.338c-1.062,-1.845 -2.335,-3.621 -2.829,-5.685c-0.424,-2.06 -0.424,-4.193 -0.424,-6.255c0,-1.829 0.26,-3.705 -0.16,-5.51c-0.19,-0.807 -0.526,-1.649 -1.24,-2.124c-0.286,-0.192 -0.756,-0.281 -1.215,-0.416v0.91h-45.796v-4.35h45.795v1.35c0.79,-0.076 1.738,0.245 2.263,0.414c1.347,0.438 2.702,1.242 3.25,2.62c1.766,4.265 1.415,9.167 4.1,13.077" fill="#e63744"/></g></g></svg>