<svg xmlns="http://www.w3.org/2000/svg" width="65.735" height="117.331"><g fill-rule="evenodd" stroke-miterlimit="10" data-paper-data="{&quot;isPaintingLayer&quot;:true}" style="mix-blend-mode:normal"><path fill="#4f2a11" d="M51.215 111.406c1.818 1.13 3.143 3.404 1.583 5.288-1.179 1.324-2.91.26-4.227-.3-1.453-.696-3.116-1.188-4.433-2.098-.852-.6-1.85-1.22-2.424-2.11-.176-.275-.262-.578-.197-.78zm-20.718 0c-1.822 1.13-3.14 3.404-1.583 5.288 1.176 1.324 2.908.26 4.225-.3 1.45-.696 3.12-1.188 4.432-2.098.85-.6 1.85-1.22 2.425-2.11.176-.275.262-.578.2-.78h-9.7z"/><path fill="#545c32" d="m53.401 84.651-1.98 26.754H41.382l-.38-19.253h-.294l-.383 19.253H30.287l-1.976-26.754z"/><path fill="#9e733f" d="M8.443 40.755c1.21-.516 2.66-.046 3.831 1.086.536-.8 1.175-1.244 1.763-1.132 1.091.206 1.606 2.257 1.15 4.575a8.005 8.005 0 0 1-.796 2.263c-.149 1.366-.798 2.475-1.86 2.928-1.854.787-4.277-.745-5.405-3.427-1.133-2.684-.54-5.501 1.317-6.293" data-paper-data="{&quot;origPos&quot;:null}"/><path fill="#eeeeed" d="m14.237 48.584 5.463 6.598 11.746-4.29c1.993-1.386 7.516-1.506 7.516-1.506l1.77.137h.148l1.776-.164s5.414.212 7.454 1.564a.642.642 0 0 0-.005-.025s6.501 3.414 8.306 5.728c3.704 4.756 5.122 19.055 5.122 19.055l-4.82-.007s-1.305-10.332-3.022-12.772c-.54-.766-.96-1.276-1.245-1.718 2.152 10.141 2.416 23.632 2.416 23.632l.006 14.105H24.752V84.816s.31-15.527 2.923-25.809c-1.428.566-8.597 3.29-10.79 2.49-3.02-1.098-7.47-10.509-7.47-10.509z"/><path fill="#e1f1f8" d="M20.615 58.654a.9.9 0 0 1-.708 1.448H.892A.895.895 0 0 1 0 59.201a.876.876 0 0 1 .191-.551v-.007l7.89-9.738v-8.39h4.636v8.427l7.898 9.708v.004"/><path fill="#2baae2" d="M13.644 39.951a.564.564 0 0 1-.565.564H7.581a.562.562 0 0 1-.56-.564c0-.314.252-.57.56-.57h5.498c.314 0 .565.256.565.57"/><path fill="#66b22e" d="M6.08 51.376h8.62l5.915 7.274v.004a.9.9 0 0 1-.708 1.448H.892A.895.895 0 0 1 0 59.201a.864.864 0 0 1 .19-.551v-.006z"/><path fill="#a0c971" d="M8.85 55.844a1.067 1.067 0 1 1-2.136-.003c0-.59.48-1.07 1.07-1.07a1.07 1.07 0 0 1 1.066 1.073m.711-1.863a.355.355 0 1 1-.71-.006.355.355 0 0 1 .71.006m1.712-.796a.439.439 0 1 1-.876-.002.439.439 0 0 1 .876.002m-.094 2.233c0 .234-.19.423-.423.425a.426.426 0 0 1 0-.85c.234 0 .423.19.423.425"/><path fill="#66b22e" d="M11.221 48.494a1.01 1.01 0 1 1-2.018 0 1.01 1.01 0 1 1 2.018 0m.94-2.056a.491.491 0 1 1-.983 0 .491.491 0 0 1 .982 0m-2.519-4.281c0 .122-.1.221-.218.221a.22.22 0 0 1-.22-.22.22.22 0 0 1 .22-.222c.117 0 .218.1.218.221"/><path fill="#549632" d="M14.83 36.372c0 .74-.596 1.347-1.336 1.347a1.342 1.342 0 0 1-1.333-1.347c0-.746.596-1.346 1.333-1.346.74 0 1.336.6 1.336 1.346m-2.903-3.098a.547.547 0 1 1-1.093.044.547.547 0 0 1 1.093-.044m2.43-.771a.218.218 0 0 1-.215.22.22.22 0 0 1 0-.44c.115 0 .214.098.214.22"/><path fill="#9e733f" d="M15.278 45.105c.337-2.282-.236-4.256-1.285-4.416-1.045-.154-2.172 1.566-2.509 3.846-.339 2.278.234 4.255 1.284 4.413 1.044.155 2.17-1.565 2.51-3.843m49.16 33.173c.256 2.393-.883 4.475-2.542 4.648-1.078.118-2.112-.61-2.77-1.796-.613.51-1.222.714-1.654.48-.812-.433-.716-2.214.216-3.981.358-.673.78-1.248 1.217-1.676a3.11 3.11 0 0 1 .131-.246l4.496.009c.475.692.804 1.555.906 2.562" data-paper-data="{&quot;origPos&quot;:null}"/><path fill="#9cd5f5" d="m40.177 67.846-2.103-4.758-2.544-13.613c1.78-.271 3.367-.33 3.367-.33l1.77.048h.152l1.771-.065s1.424.065 3.09.312l-2.265 13.648-1.947 4.45-.76 1.104-.532-.796z"/><path fill="#0771b7" d="M38.517 59.239c.024-1.521 1.083-5.997 1.083-5.997-.473-.392-.877-2.295-.877-2.295l1.985-1.732 2.192 1.732s-.43 1.948-.944 2.295c0 0 .94 4.486.944 6.006.008 1.598-.944 6.308-.944 6.308l-1.248 3.05-1.22-2.911s-.993-4.821-.97-6.455"/><path fill="#9cd5f5" d="M40.732 49.329h.086l1.774-.133s2.001.056 4.03.431c.054.686.048 1.406-.124 2.09-.142.525-.41.636-.699 1.02-.264.38-.12.642-.647.73-.318.06-.584-.063-.814-.267l-.028.07s-3.578-2.618-3.578-3.942"/><path fill="#666767" d="m42.593 49.211-1.776.118h-.048c.057 1.236 3.177 3.61 3.528 3.872l.025-.057.036.03c.255.224.51.309.794.258.328-.057.372-.175.45-.375.041-.123.098-.24.17-.347.091-.118.18-.208.261-.295.18-.191.335-.355.438-.711.14-.58-.87-2.22-1.326-2.278a33.243 33.243 0 0 0-2.552-.215m1.755 4.042-.026.049-.025-.021c-.15-.11-3.58-2.661-3.58-3.99v-.036h.096l1.778-.11c.015 0 1.147.04 2.56.213.47.062 1.527 1.771 1.38 2.36-.1.377-.266.544-.45.744-.092.09-.177.187-.253.29-.088.12-.13.234-.166.33-.075.203-.134.356-.5.415-.056.01-.113.016-.17.017-.224 0-.433-.084-.644-.26"/><path fill="#d0d0d0" d="M40.691 68.654s3.327-13.754 4.326-19.31c1.296.162 2.856.44 4.033.89l-.545 3.388-2.223.569 1.132 2.193s-2.543 9.508-6.723 12.27"/><path fill="#9cd5f5" d="M35.267 51.933c-.239-.646-.534-1.636-.308-2.362 1.995-.35 3.936-.36 3.936-.36l1.772.118h.012c0 1.324-3.574 3.94-3.574 3.94l-.082-.04c-.906 0-1.434-.416-1.756-1.296"/><path fill="#666767" d="M38.896 49.229c-.015 0-1.152.015-2.565.175-.433.05-1.403 1.527-1.034 2.516.324.89.844 1.268 1.725 1.268l.076.027c.242-.183 3.492-2.627 3.544-3.893l-1.746-.092zm-1.88 4.028c-.898-.004-1.453-.406-1.78-1.314-.377-1.012.647-2.553 1.085-2.602a28.792 28.792 0 0 1 2.575-.179l1.771.095h.05v.034c0 1.328-3.448 3.88-3.592 3.99l-.017.01z"/><path fill="#d0d0d0" d="M40.732 68.654c-4.184-2.762-6.724-12.27-6.724-12.27l1.13-2.193-2.224-.569-.544-3.388c1.177-.45 2.738-.728 4.037-.89.996 5.556 4.325 19.31 4.325 19.31"/><path fill="#4f4f4f" d="M39.968 71.89a.642.642 0 0 1 .642-.64c.353 0 .633.288.633.64a.639.639 0 0 1-.633.646.645.645 0 0 1-.643-.647m.001 6.574a.64.64 0 0 1 .642-.64c.353 0 .633.286.633.64a.635.635 0 0 1-.633.644.641.641 0 0 1-.643-.644m.001 6.375a.641.641 0 0 1 1.092-.453c.12.12.185.284.183.453a.635.635 0 0 1-1.088.455.64.64 0 0 1-.188-.454"/><path fill="#b2b2b2" d="M52.115 68.459a.252.252 0 0 1-.247.254h-.03a.253.253 0 0 1-.25-.254v-5.47a.25.25 0 0 1 .25-.25h.03a.25.25 0 0 1 .247.25z"/><path fill="#0771b7" d="M51.868 60.083a.316.316 0 0 1 .314.315v2.422a.315.315 0 0 1-.314.313h-.03a.314.314 0 0 1-.316-.313v-2.076h-.067v1.728c0 .034-.03.065-.063.065h-.004c-.03 0-.065-.031-.065-.065v-2.124a.069.069 0 0 1 .065-.067h.004c.032 0 .063.029.063.067h.073a.314.314 0 0 1 .31-.265h.03"/><path fill="#d0d0d0" d="M46.632 63.333h5.877v8.103h-5.877z"/><path fill="#878888" d="M46.703 64.861h5.806v.068h-5.806z"/><path fill="#9e733f" d="M38.74 50.852c-1.078 0-1.95-2.324-1.95-3.386h7.66c0 1.062-.87 3.386-1.947 3.386H38.74" data-paper-data="{&quot;origPos&quot;:null}"/><path fill="#eeac6c" d="M37.612 49.986a5.542 5.542 0 0 1-.806-2.242 23.291 23.291 0 0 0 7.628-.025l-.013.01-6.809 2.257"/><path fill="#9e733f" d="M17.93 28.366a23.272 23.272 0 0 1-.26-3.48c0-12.792 10.312-23.16 23.038-23.16 12.722 0 23.033 10.368 23.033 23.16 0 1.128-.08 2.236-.234 3.324 1.33.729 2.228 2.114 2.228 3.697 0 2.35-1.97 4.25-4.402 4.25a4.58 4.58 0 0 1-.485-.023c-3.934 7.105-11.478 11.915-20.14 11.915-8.655 0-16.194-4.798-20.132-11.892-.072.002-.139.002-.208.002-2.428 0-4.399-1.901-4.399-4.25 0-1.479.783-2.78 1.96-3.542" data-paper-data="{&quot;origPos&quot;:null}"/><path fill="#4f2a11" d="M34.496 25.365c-.772-.174-.908-1.201-3.386-.74-.779.18-2.417 1.156-2.732 1.808-.316.652-.088-2.392 2.457-3.522 1.835-.675 2.457-.642 3.977-.642s1.987.907 1.766 1.65c0 0-.503 1.803-2.082 1.446zm13.905 0c.772-.174.908-1.201 3.386-.74.78.18 2.417 1.156 2.732 1.808.316.652.087-2.392-2.457-3.522-1.835-.675-2.457-.642-3.977-.642s-1.987.907-1.766 1.65c0 0 .503 1.803 2.082 1.446z" data-paper-data="{&quot;origPos&quot;:null}"/><path fill="#343434" d="M34.267 31.269c0 1.657-.895 3-2 3s-2-1.343-2-3 .895-3 2-3 2 1.343 2 3m18 0c0 1.657-.895 3-2 3s-2-1.343-2-3 .895-3 2-3 2 1.343 2 3"/><path fill="#eeac6c" d="M41.287 34.338c-1.125.153-3.02 1.834-3.02 1.834s.207-1.009.503-1.299c.8-1.156 2.487-1.604 2.487-1.604s2.173.703 2.65 1.588c.443.824.34 1.238.34 1.238s-2.12-1.871-2.96-1.756zM34.467 37.965s6.897 3.208 13.172-.397c0 0-1.39 5.47-5.95 5.561-4.115.122-4.984-1.492-5.477-1.956-.492-.463-1.42-1.772-1.745-3.208"/><path fill="#4f2a11" d="M64.735 21.867c.037 2.718-.907 8.602-2.749 12.114 0 0-4.535-12.895-8.27-14.937-4.555-2.492-16.585 1.108-20.66-2.13-.678-.535-.596-1.752-.596-1.752s-.783 1.547-1.162 1.979c-1.977 2.261-7.094 5.533-9.525 7.288-1.958 1.417-2.05 1.4-1.614 9.552 0 0-3.597-7.421-3.396-12.369.056-1.429.745-4.593 1.865-7.81C22.678 5.625 31.082 0 40.788 0c11.15 0 20.58 7.421 23.67 17.61.161 1.414.254 2.834.277 4.257" data-paper-data="{&quot;origPos&quot;:null}"/><path fill="#80bfdc" d="M58.482 34.646c1.516-2.048 1.44-6.605.22-7.73-6.618-6.09-28.724-5.446-35.87 0-1.32 1.005-1.3 5.668.22 7.719 2.355 3.18 13.337-1.032 15.784-4.14.88-1.115 2.98-1.13 3.857-.018 2.448 3.11 13.427 7.355 15.79 4.17m2.043-8.91c1.427 1.314 1.515 7.836-.256 10.232-2.757 3.718-14.39.158-17.252-3.478-1.022-1.297-3.476-1.278-4.5.017-2.864 3.64-14.499 7.158-17.248 3.442-1.778-2.4-1.799-9.04-.26-10.213 8.35-6.362 31.792-7.113 39.516 0"/><path fill="#b5e0f3" d="M26.914 26.929a.68.68 0 0 1-.2.941l-2.367 1.535a.677.677 0 0 1-.938-.204l-.004-.007a.684.684 0 0 1 .205-.943l2.364-1.53a.675.675 0 0 1 .938.2zm-.965 3.351a.76.76 0 1 1-1.52 0 .761.761 0 1 1 1.52 0"/></g></svg>