<svg version="1.1" xmlns="http://www.w3.org/2000/svg" xmlns:xlink="http://www.w3.org/1999/xlink" width="65.73506" height="117.33063" viewBox="0,0,65.73506,117.33063"><g transform="translate(-207.73293,-121.731)"><g data-paper-data="{&quot;isPaintingLayer&quot;:true}" fill-rule="evenodd" stroke="none" stroke-width="1" stroke-linecap="butt" stroke-linejoin="miter" stroke-miterlimit="10" stroke-dasharray="" stroke-dashoffset="0" style="mix-blend-mode: normal"><path d="M258.948,233.137c1.818,1.13 3.143,3.404 1.583,5.288c-1.179,1.324 -2.91,0.26 -4.227,-0.3c-1.453,-0.696 -3.116,-1.188 -4.433,-2.098c-0.852,-0.6 -1.85,-1.22 -2.424,-2.11c-0.176,-0.275 -0.262,-0.578 -0.197,-0.78zM238.23,233.137c-1.822,1.13 -3.141,3.404 -1.583,5.288c1.176,1.324 2.908,0.26 4.225,-0.3c1.45,-0.696 3.12,-1.188 4.432,-2.098c0.85,-0.6 1.85,-1.22 2.425,-2.11c0.176,-0.275 0.262,-0.578 0.2,-0.78h-9.7z" fill="#4f2a11"/><path d="M261.134,206.382l-1.98,26.754h-10.039l-0.381,-19.253h-0.293l-0.383,19.253h-10.038l-1.976,-26.754z" fill="#545c32"/><path d="M216.176,162.486c1.21,-0.516 2.659,-0.046 3.831,1.086c0.536,-0.8 1.175,-1.244 1.763,-1.132c1.091,0.206 1.606,2.257 1.15,4.575c-0.15016,0.79003 -0.4185,1.55293 -0.796,2.263c-0.149,1.366 -0.798,2.475 -1.86,2.928c-1.854,0.787 -4.277,-0.745 -5.405,-3.427c-1.133,-2.684 -0.54,-5.501 1.317,-6.293" data-paper-data="{&quot;origPos&quot;:null}" fill="#9e733f"/><path d="M221.97,170.315l5.463,6.598l11.746,-4.29c1.993,-1.386 7.516,-1.506 7.516,-1.506l1.77,0.137h0.148l1.776,-0.164c0,0 5.414,0.212 7.454,1.564c-0.0015,-0.00837 -0.00317,-0.0167 -0.005,-0.025c0,0 6.501,3.414 8.306,5.728c3.704,4.756 5.122,19.055 5.122,19.055l-4.82,-0.007c0,0 -1.305,-10.332 -3.022,-12.772c-0.54,-0.766 -0.96,-1.276 -1.245,-1.718c2.152,10.141 2.416,23.632 2.416,23.632l0.006,14.105h-32.116v-14.105c0,0 0.31,-15.527 2.923,-25.809c-1.428,0.566 -8.597,3.29 -10.79,2.49c-3.02,-1.098 -7.47,-10.509 -7.47,-10.509z" fill="#eeeeed"/><path d="M228.348,180.385c0.20803,0.271 0.24468,0.63643 0.09461,0.94335c-0.15007,0.30692 -0.46098,0.50241 -0.80261,0.50465h-19.015c-0.492,0 -0.892,-0.401 -0.892,-0.901c-0.00113,-0.20009 0.06627,-0.39454 0.191,-0.551v-0.007l7.89,-9.738v-8.39h4.636v8.427l7.898,9.708v0.004" fill="#e1f1f8"/><path d="M221.377,161.682c0,0.14976 -0.05956,0.29336 -0.16555,0.39916c-0.10599,0.1058 -0.2497,0.1651 -0.39945,0.16484h-5.498c-0.14905,-0.00053 -0.29179,-0.06025 -0.39681,-0.16602c-0.10502,-0.10577 -0.16372,-0.24893 -0.16319,-0.39798c0,-0.314 0.252,-0.57 0.56,-0.57h5.498c0.314,0 0.565,0.256 0.565,0.57" fill="#2baae2"/><path d="M213.813,173.107h8.62l5.915,7.274v0.004c0.20803,0.271 0.24468,0.63643 0.09461,0.94335c-0.15007,0.30692 -0.46098,0.50241 -0.80261,0.50465h-19.015c-0.492,0 -0.892,-0.401 -0.892,-0.901c-0.0024,-0.20013 0.06476,-0.39488 0.19,-0.551v-0.006z" fill="#66b22e"/><path d="M216.583,177.575c0,0.589 -0.478,1.067 -1.066,1.067c-0.59094,0 -1.07,-0.47906 -1.07,-1.07c0,-0.59094 0.47906,-1.07 1.07,-1.07c0.59055,0.00221 1.06766,0.48244 1.066,1.073M217.294,175.712c-0.00166,0.19527 -0.16072,0.35254 -0.35599,0.35199c-0.19528,-0.00055 -0.35344,-0.15872 -0.35399,-0.35399c-0.00055,-0.19528 0.15672,-0.35433 0.35199,-0.35599c0.197,0 0.358,0.158 0.358,0.358M219.006,174.916c-0.0011,0.24145 -0.19655,0.4369 -0.438,0.438c-0.24245,0 -0.439,-0.19655 -0.439,-0.439c0,-0.24245 0.19655,-0.439 0.439,-0.439c0.243,0 0.438,0.196 0.438,0.44M218.912,177.149c-0.00054,0.23372 -0.18929,0.42335 -0.423,0.425c-0.22343,-0.01534 -0.39683,-0.20105 -0.39683,-0.425c0,-0.22395 0.1734,-0.40966 0.39683,-0.425c0.234,0 0.423,0.19 0.423,0.425" fill="#a0c971"/><path d="M218.954,170.225c0.01653,0.3712 -0.17209,0.7215 -0.49108,0.91203c-0.31899,0.19054 -0.71684,0.19054 -1.03584,0c-0.31899,-0.19054 -0.50761,-0.54083 -0.49108,-0.91203c-0.01653,-0.3712 0.17209,-0.7215 0.49108,-0.91203c0.31899,-0.19054 0.71684,-0.19054 1.03584,0c0.31899,0.19054 0.50761,0.54083 0.49108,0.91203M219.893,168.169c0,0.27117 -0.21983,0.491 -0.491,0.491c-0.27117,0 -0.491,-0.21983 -0.491,-0.491c0,-0.27117 0.21983,-0.491 0.491,-0.491c0.27117,0 0.491,0.21983 0.491,0.491M217.374,163.888c0,0.122 -0.1,0.221 -0.218,0.221c-0.1215,0 -0.22,-0.0985 -0.22,-0.22c-0.00053,-0.05869 0.02241,-0.11517 0.06373,-0.15686c0.04132,-0.04169 0.09758,-0.06514 0.15627,-0.06514c0.117,0 0.218,0.1 0.218,0.221" fill="#66b22e"/><path d="M222.563,158.103c0,0.74 -0.596,1.347 -1.336,1.347c-0.7396,-0.00495 -1.33577,-0.60739 -1.333,-1.347c0,-0.746 0.596,-1.346 1.333,-1.346c0.74,0 1.336,0.6 1.336,1.346M219.66,155.005c0.00802,0.20083 -0.09474,0.38989 -0.26764,0.49238c-0.1729,0.10249 -0.38808,0.1019 -0.56042,-0.00154c-0.17234,-0.10344 -0.27406,-0.29305 -0.26494,-0.49384c0.0133,-0.29272 0.25491,-0.52297 0.54794,-0.52216c0.29302,0.0008 0.53337,0.23237 0.54506,0.52516M222.089,154.234c0.00112,0.11963 -0.09438,0.21781 -0.214,0.22c-0.1215,0 -0.22,-0.0985 -0.22,-0.22c0,-0.1215 0.0985,-0.22 0.22,-0.22c0.115,0 0.214,0.098 0.214,0.22" fill="#549632"/><path d="M223.011,166.836c0.337,-2.282 -0.236,-4.256 -1.285,-4.416c-1.045,-0.154 -2.172,1.566 -2.509,3.846c-0.339,2.278 0.234,4.255 1.284,4.413c1.044,0.155 2.17,-1.565 2.51,-3.843M272.171,200.009c0.256,2.393 -0.883,4.475 -2.542,4.648c-1.078,0.118 -2.112,-0.61 -2.77,-1.796c-0.613,0.51 -1.222,0.714 -1.654,0.48c-0.812,-0.433 -0.716,-2.214 0.216,-3.981c0.358,-0.673 0.779,-1.248 1.217,-1.676c0.03997,-0.08392 0.08368,-0.166 0.131,-0.246l4.496,0.009c0.475,0.692 0.804,1.555 0.906,2.562" data-paper-data="{&quot;origPos&quot;:null}" fill="#9e733f"/><path d="M247.91,189.577l-2.103,-4.758l-2.544,-13.613c1.78,-0.271 3.367,-0.33 3.367,-0.33l1.77,0.048h0.152l1.771,-0.065c0,0 1.424,0.065 3.089,0.312l-2.264,13.648l-1.947,4.45l-0.76,1.104l-0.532,-0.796z" fill="#9cd5f5"/><path d="M246.25,180.97c0.024,-1.521 1.083,-5.997 1.083,-5.997c-0.473,-0.392 -0.877,-2.295 -0.877,-2.295l1.985,-1.732l2.192,1.732c0,0 -0.43,1.948 -0.944,2.295c0,0 0.94,4.486 0.944,6.006c0.008,1.598 -0.944,6.308 -0.944,6.308l-1.248,3.05l-1.22,-2.911c0,0 -0.993,-4.821 -0.97,-6.455" fill="#0771b7"/><path d="M248.465,171.06h0.086l1.774,-0.133c0,0 2.001,0.056 4.03,0.431c0.054,0.686 0.048,1.406 -0.124,2.09c-0.142,0.525 -0.41,0.636 -0.699,1.02c-0.264,0.38 -0.12,0.642 -0.647,0.73c-0.318,0.06 -0.584,-0.063 -0.814,-0.267l-0.028,0.07c0,0 -3.578,-2.618 -3.578,-3.942" fill="#9cd5f5"/><path d="M250.326,170.942l-1.776,0.118h-0.048c0.057,1.236 3.177,3.61 3.528,3.872l0.025,-0.057l0.036,0.03c0.255,0.224 0.509,0.309 0.794,0.258c0.328,-0.057 0.372,-0.175 0.45,-0.375c0.04093,-0.12273 0.09811,-0.23944 0.17,-0.347c0.091,-0.118 0.18,-0.208 0.261,-0.295c0.18,-0.191 0.335,-0.355 0.438,-0.711c0.14,-0.58 -0.87,-2.22 -1.326,-2.278c-0.84759,-0.10442 -1.69889,-0.17614 -2.552,-0.215M252.081,174.984l-0.026,0.049l-0.025,-0.021c-0.15,-0.11 -3.58,-2.661 -3.58,-3.99v-0.036h0.096l1.778,-0.11c0.015,0 1.147,0.04 2.56,0.213c0.47,0.062 1.527,1.771 1.38,2.36c-0.1,0.377 -0.266,0.544 -0.45,0.744c-0.09201,0.08969 -0.17662,0.18668 -0.253,0.29c-0.088,0.12 -0.13,0.234 -0.166,0.33c-0.075,0.203 -0.134,0.356 -0.5,0.415c-0.05615,0.01001 -0.11298,0.0157 -0.17,0.017c-0.224,0 -0.433,-0.084 -0.644,-0.26" fill="#666767"/><path d="M248.424,190.385c0,0 3.327,-13.754 4.326,-19.31c1.296,0.162 2.856,0.44 4.033,0.89l-0.545,3.388l-2.223,0.569l1.132,2.193c0,0 -2.543,9.508 -6.723,12.27" fill="#d0d0d0"/><path d="M243,173.664c-0.239,-0.646 -0.534,-1.636 -0.308,-2.362c1.995,-0.35 3.936,-0.36 3.936,-0.36l1.772,0.118h0.012c0,1.324 -3.574,3.94 -3.574,3.94l-0.082,-0.04c-0.906,0 -1.434,-0.416 -1.756,-1.296" fill="#9cd5f5"/><path d="M246.629,170.96c-0.015,0 -1.152,0.015 -2.565,0.175c-0.433,0.05 -1.403,1.527 -1.034,2.516c0.324,0.89 0.844,1.268 1.725,1.268l0.076,0.027c0.242,-0.183 3.492,-2.627 3.544,-3.893l-1.746,-0.092zM244.749,174.988c-0.898,-0.004 -1.453,-0.406 -1.78,-1.314c-0.377,-1.012 0.647,-2.553 1.085,-2.602c0.85523,-0.09813 1.71442,-0.15786 2.575,-0.179l1.771,0.095h0.049v0.034c0,1.328 -3.447,3.88 -3.591,3.99l-0.017,0.01z" fill="#666767"/><path d="M248.465,190.385c-4.184,-2.762 -6.724,-12.27 -6.724,-12.27l1.13,-2.193l-2.224,-0.569l-0.544,-3.388c1.177,-0.45 2.738,-0.728 4.037,-0.89c0.996,5.556 4.325,19.31 4.325,19.31" fill="#d0d0d0"/><path d="M247.701,193.621c0.0011,-0.35379 0.28821,-0.64 0.642,-0.64c0.353,0 0.633,0.288 0.633,0.64c0,0.356 -0.281,0.646 -0.633,0.646c-0.356,0 -0.643,-0.29 -0.643,-0.647M247.701,200.194c0,-0.17009 0.0677,-0.33318 0.18816,-0.45326c0.12046,-0.12008 0.28376,-0.18727 0.45384,-0.18674c0.353,0 0.633,0.286 0.633,0.64c0.00241,0.16962 -0.06316,0.33315 -0.18207,0.45413c-0.11891,0.12098 -0.28129,0.18935 -0.45093,0.18987c-0.356,0 -0.643,-0.286 -0.643,-0.644M247.701,206.569c-0.00027,-0.17035 0.06729,-0.3338 0.18774,-0.45426c0.12046,-0.12046 0.28391,-0.18801 0.45426,-0.18774c0.16929,0.00052 0.33135,0.06862 0.45021,0.18916c0.11886,0.12055 0.18466,0.28356 0.18279,0.45284c0.00187,0.16928 -0.06393,0.33229 -0.18279,0.45284c-0.11886,0.12055 -0.28092,0.18864 -0.45021,0.18916c-0.17043,0.0008 -0.33414,-0.06641 -0.45484,-0.18674c-0.1207,-0.12033 -0.18842,-0.28383 -0.18816,-0.45426" fill="#4f4f4f"/><path d="M259.848,190.19c0.00112,0.13802 -0.109,0.25127 -0.247,0.254h-0.03c-0.13895,-0.00165 -0.25056,-0.11505 -0.25,-0.254v-5.47c0,-0.13807 0.11193,-0.25 0.25,-0.25h0.03c0.1369,0.00164 0.24701,0.11309 0.247,0.25z" fill="#b2b2b2"/><path d="M259.601,181.814c0.17335,0.0011 0.31345,0.14165 0.314,0.315v2.422c-0.0011,0.1728 -0.1412,0.31245 -0.314,0.313h-0.03c-0.176,0 -0.316,-0.141 -0.316,-0.313v-2.076h-0.067v1.728c0,0.034 -0.031,0.065 -0.063,0.065h-0.004c-0.031,0 -0.065,-0.031 -0.065,-0.065v-2.124c0.00098,-0.03582 0.02922,-0.06494 0.065,-0.067h0.004c0.032,0 0.063,0.029 0.063,0.067h0.073c0.0241,-0.15255 0.15556,-0.26492 0.31,-0.265h0.029" fill="#0771b7"/><path d="M254.365,185.064h5.877v8.103h-5.877z" fill="#d0d0d0"/><path d="M254.436,186.592h5.806v0.068h-5.806z" fill="#878888"/><path d="M246.472,172.583c-1.077,0 -1.949,-2.324 -1.949,-3.386h7.66c0,1.062 -0.871,3.386 -1.947,3.386h-3.764" data-paper-data="{&quot;origPos&quot;:null}" fill="#9e733f"/><path d="M245.345,171.717c-0.433,-0.657 -0.736,-1.575 -0.806,-2.242c1.23267,0.20241 2.47982,0.30374 3.729,0.303c1.30657,0.00022 2.61083,-0.1095 3.899,-0.328l-0.013,0.01l-6.809,2.257" fill="#eeac6c"/><path d="M225.663,150.097c-0.17364,-1.15186 -0.26055,-2.31513 -0.26,-3.48c0,-12.792 10.312,-23.16 23.038,-23.16c12.722,0 23.033,10.368 23.033,23.16c0,1.128 -0.08,2.236 -0.234,3.324c1.33,0.729 2.228,2.114 2.228,3.697c0,2.35 -1.97,4.25 -4.402,4.25c-0.16196,0.00091 -0.32385,-0.00676 -0.485,-0.023c-3.934,7.105 -11.478,11.915 -20.141,11.915c-8.654,0 -16.193,-4.798 -20.131,-11.892c-0.072,0.002 -0.139,0.002 -0.208,0.002c-2.428,0 -4.399,-1.901 -4.399,-4.25c0,-1.479 0.783,-2.78 1.96,-3.542" data-paper-data="{&quot;origPos&quot;:null}" fill="#9e733f"/><path d="M242.229,147.096c-0.772,-0.174 -0.908,-1.201 -3.386,-0.74c-0.779,0.18 -2.417,1.156 -2.732,1.808c-0.316,0.652 -0.088,-2.392 2.457,-3.522c1.835,-0.675 2.457,-0.642 3.977,-0.642c1.52,0 1.987,0.907 1.766,1.65c0,0 -0.503,1.803 -2.082,1.446zM256.134,147.096c0.772,-0.174 0.908,-1.201 3.386,-0.74c0.779,0.18 2.417,1.156 2.732,1.808c0.316,0.652 0.087,-2.392 -2.457,-3.522c-1.835,-0.675 -2.457,-0.642 -3.977,-0.642c-1.52,0 -1.987,0.907 -1.766,1.65c0,0 0.503,1.803 2.082,1.446z" data-paper-data="{&quot;origPos&quot;:null}" fill="#4f2a11"/><path d="M242,153c0,1.657 -0.895,3 -2,3c-1.105,0 -2,-1.343 -2,-3c0,-1.657 0.895,-3 2,-3c1.105,0 2,1.343 2,3M260,153c0,1.657 -0.895,3 -2,3c-1.105,0 -2,-1.343 -2,-3c0,-1.657 0.895,-3 2,-3c1.105,0 2,1.343 2,3" fill="#343434"/><path d="M249.02,156.069c-1.125,0.153 -3.02,1.834 -3.02,1.834c0,0 0.207,-1.009 0.503,-1.299c0.8,-1.156 2.487,-1.604 2.487,-1.604c0,0 2.173,0.703 2.65,1.588c0.443,0.824 0.34,1.238 0.34,1.238c0,0 -2.121,-1.871 -2.96,-1.756z" fill="#eeac6c"/><path d="M242.2,159.696c0,0 6.897,3.208 13.172,-0.397c0,0 -1.39,5.47 -5.95,5.561c-4.115,0.122 -4.984,-1.492 -5.477,-1.956c-0.492,-0.463 -1.42,-1.772 -1.745,-3.208" fill="#eeac6c"/><path d="M272.468,143.598c0.037,2.718 -0.907,8.602 -2.749,12.114c0,0 -4.535,-12.895 -8.27,-14.937c-4.555,-2.492 -16.585,1.108 -20.66,-2.13c-0.678,-0.535 -0.596,-1.752 -0.596,-1.752c0,0 -0.783,1.547 -1.162,1.979c-1.977,2.261 -7.094,5.533 -9.525,7.288c-1.958,1.417 -2.05,1.4 -1.614,9.552c0,0 -3.597,-7.421 -3.396,-12.369c0.056,-1.429 0.745,-4.593 1.865,-7.81c4.05,-8.177 12.454,-13.802 22.16,-13.802c11.15,0 20.579,7.421 23.67,17.61c0.16127,1.41367 0.25372,2.83435 0.277,4.257" data-paper-data="{&quot;origPos&quot;:null}" fill="#4f2a11"/><path d="M266.215,156.377c1.516,-2.048 1.44,-6.605 0.22,-7.73c-6.618,-6.09 -28.724,-5.446 -35.87,0c-1.321,1.005 -1.3,5.668 0.22,7.719c2.355,3.18 13.337,-1.032 15.784,-4.14c0.88,-1.115 2.98,-1.13 3.857,-0.018c2.448,3.11 13.427,7.355 15.789,4.17M268.259,147.468c1.427,1.314 1.515,7.836 -0.256,10.232c-2.757,3.718 -14.39,0.158 -17.252,-3.478c-1.022,-1.297 -3.476,-1.278 -4.5,0.017c-2.864,3.64 -14.499,7.158 -17.248,3.442c-1.778,-2.4 -1.799,-9.04 -0.26,-10.213c8.35,-6.362 31.792,-7.113 39.516,0" fill="#80bfdc"/><path d="M234.647,148.66c0.09833,0.15129 0.1325,0.33545 0.09499,0.51194c-0.03751,0.17649 -0.14363,0.33084 -0.29499,0.42906l-2.367,1.535c-0.1513,0.09781 -0.33536,0.13127 -0.51141,0.09299c-0.17605,-0.03829 -0.32958,-0.14517 -0.42659,-0.29699l-0.004,-0.007c-0.20284,-0.31718 -0.11122,-0.73866 0.205,-0.943l2.364,-1.53c0.15066,-0.09872 0.33453,-0.13312 0.5107,-0.09556c0.17616,0.03756 0.33001,0.14398 0.4273,0.29556zM233.682,152.011c0,0.41974 -0.34026,0.76 -0.76,0.76c-0.41974,0 -0.76,-0.34026 -0.76,-0.76c-0.01441,-0.28082 0.12721,-0.54671 0.36829,-0.69145c0.24108,-0.14474 0.54233,-0.14474 0.78341,0c0.24108,0.14474 0.3827,0.41062 0.36829,0.69145" fill="#b5e0f3"/></g></g></svg>