<svg xmlns="http://www.w3.org/2000/svg" xmlns:xlink="http://www.w3.org/1999/xlink" width="120" height="120"><defs><path id="a" d="M0 67.92h119.008V0H0z"/></defs><g fill="none" fill-rule="evenodd" transform="translate(0 26)"><path fill="#625F70" d="M12.835 24.269c0 .04-3.689 8.408-12.275 13.216L0 36.483c8.182-4.565 11.753-12.577 11.753-12.577l1.082.363z"/><mask id="b" fill="#fff"><use xlink:href="#a"/></mask><path fill="#D5D4DA" d="M11.792 53.824h15.08V23.907h-15.08z" mask="url(#b)"/><path fill="#BCBAC5" d="M11.15 25.99h16.367v-7.768H11.15z" mask="url(#b)"/><path fill="#818090" d="M11.631 18.222h15.404v-2.003H11.63z" mask="url(#b)"/><path fill="#BCBAC5" d="M11.631 16.22h15.404v-4.084H11.63z" mask="url(#b)"/><path fill="#625F74" d="M11.631 9.091h7.14l.642-2.124.442 2.124h7.18v3.044h-5.737L19.255 7.85l-1.888 4.285h-5.736z" mask="url(#b)"/><path fill="#625D73" d="M14.802 31.678h2.167v-4.245h-2.167z" mask="url(#b)"/><path fill="#625D71" d="M18.25 31.678h2.166v-4.245h-2.165z" mask="url(#b)"/><path fill="#635E72" d="M21.74 31.678h2.167v-4.245h-2.166z" mask="url(#b)"/><path fill="#635F70" d="M14.802 41.849h2.167v-4.245h-2.167z" mask="url(#b)"/><path fill="#625D71" d="M18.25 41.849h2.166v-4.245h-2.165zm3.49 0h2.167v-4.245h-2.166z" mask="url(#b)"/><path fill="#635E72" d="M14.802 51.98h2.167v-4.203h-2.167z" mask="url(#b)"/><path fill="#625E6F" d="M18.25 51.98h2.166v-4.203h-2.165z" mask="url(#b)"/><path fill="#625D71" d="M21.74 51.98h2.167v-4.203h-2.166z" mask="url(#b)"/><path fill="#797888" d="M10.47 65.556h17.769V53.824h-17.77z" mask="url(#b)"/><path fill="#504B5F" d="M10.47 67.92h17.769v-2.364h-17.77z" mask="url(#b)"/><path fill="#625D71" d="M18.452 16.22h1.764v-3.006h-1.764z" mask="url(#b)"/><path fill="#073046" d="m13.437 4.767-1.806 7.369 3.37.038z" mask="url(#b)"/><path fill="#063144" d="m25.511 4.767-1.805 7.369 3.368.038z" mask="url(#b)"/><path fill="#073046" d="m19.333 0-3.37 12.136h1.445l1.847-4.287 2.083 4.287h1.365z" mask="url(#b)"/><path fill="#625F70" d="M.443 56.827H10.47v-2.442H.443zm1.361-2.442H2.97v-18.42H1.804zm3.651 0h1.163V32.439H5.455zm3.651 0h1.162v-25.95H9.106z" mask="url(#b)"/><path fill="#BCBAC5" d="M17.407 12.136H21.3l-1.443-3.044v-.04l-.601-1.203-.403.921-.08.322h-.04l-1.325 3.044zm2.449-3.044v-.04.04z" mask="url(#b)"/><path fill="#625F70" d="M106.172 24.269c0 .04 3.65 8.408 12.275 13.216l.56-1.002c-8.22-4.565-11.752-12.577-11.752-12.577l-1.083.363z" mask="url(#b)"/><path fill="#D5D4DA" d="M92.135 53.824h15.081V23.907h-15.08z" mask="url(#b)"/><path fill="#BCBAC5" d="M91.452 25.99h16.406v-7.768H91.452z" mask="url(#b)"/><path fill="#818090" d="M91.973 18.222h15.361v-2.003H91.973z" mask="url(#b)"/><path fill="#BCBAC5" d="M91.973 16.22h15.361v-4.084H91.973z" mask="url(#b)"/><path fill="#625F74" d="M107.334 9.091h-7.097l-.682-2.124-.401 2.124h-7.18v3.044h5.694l2.046-4.285 1.926 4.285h5.694z" mask="url(#b)"/><path fill="#625D73" d="M102 31.678h2.166v-4.245H102z" mask="url(#b)"/><path fill="#625D71" d="M98.55 31.678h2.167v-4.245H98.55z" mask="url(#b)"/><path fill="#635E72" d="M95.102 31.678h2.165v-4.245h-2.165z" mask="url(#b)"/><path fill="#635F70" d="M102 41.849h2.166v-4.245H102z" mask="url(#b)"/><path fill="#625D71" d="M98.55 41.849h2.167v-4.245H98.55zm-3.448 0h2.165v-4.245h-2.165z" mask="url(#b)"/><path fill="#635E72" d="M102 51.98h2.166v-4.203H102z" mask="url(#b)"/><path fill="#625E6F" d="M98.55 51.98h2.167v-4.203H98.55z" mask="url(#b)"/><path fill="#625D71" d="M95.102 51.98h2.165v-4.203h-2.165z" mask="url(#b)"/><path fill="#797888" d="M90.73 65.556h17.81V53.824H90.73z" mask="url(#b)"/><path fill="#504B5F" d="M90.73 67.92h17.81v-2.364H90.73z" mask="url(#b)"/><path fill="#625D71" d="M98.794 16.22h1.723v-3.006h-1.723z" mask="url(#b)"/><path fill="#073046" d="m105.57 4.767 1.765 7.369-3.368.038z" mask="url(#b)"/><path fill="#063144" d="m93.497 4.767 1.765 7.369-3.367.038z" mask="url(#b)"/><path fill="#073046" d="m99.674 0 3.329 12.136h-1.441l-1.848-4.287-2.085 4.287h-1.323z" mask="url(#b)"/><path fill="#625F70" d="M108.54 56.827h10.026v-2.442H108.54zm7.5-2.442h1.122v-18.42h-1.122zm-3.69 0h1.161V32.439h-1.162zm-3.61 0h1.162v-25.95h-1.163z" mask="url(#b)"/><path fill="#BCBAC5" d="M101.562 12.136h-3.894l1.485-3.044h-.039l.039-.04.561-1.203.403.921.12.322h.04l1.285 3.044zm-2.409-3.044v-.04.04z" mask="url(#b)"/><path fill="#224A63" d="M27.516 24.63h63.936v-5.328H27.516z" mask="url(#b)"/><path fill="#DCF2FF" d="M27.516 23.668h14.96v-3.323h-14.96zm49.016 0h14.92v-3.323h-14.92zm-31.248 0h28.68v-3.323h-28.68z" mask="url(#b)"/><path fill="#E6E6E6" d="M57.117 24.148h4.733V17.14h-4.733z" mask="url(#b)"/><path fill="#224A63" d="M49.376 24.148h.36v-9.492h-.36zm19.934 0h.361v-9.492h-.36zM28.238 56.627l29.12-7.61v5.327l-29.12 7.61z" mask="url(#b)"/><path fill="#DCF2FF" d="m28.238 57.628 6.819-1.761v3.362l-6.819 1.761zm22.3-5.808 6.82-1.801v3.362l-6.82 1.764zM36.3 55.505l13.077-3.404v3.363L36.3 58.87z" mask="url(#b)"/><path fill="#224A63" d="m57.358 54.344-29.12 11.853v-1.241l28.559-11.414zm33.372 2.283-29.08-7.61v5.327l29.08 7.61z" mask="url(#b)"/><path fill="#DCF2FF" d="m90.73 57.628-6.779-1.761v3.362l6.779 1.761zM68.428 51.82l-6.778-1.801v3.362l6.778 1.764zm14.24 3.685-13.037-3.404v3.363l13.037 3.406z" mask="url(#b)"/><path fill="#224A63" d="m61.65 54.344 29.08 11.853v-1.241L62.211 53.542z" mask="url(#b)"/></g></svg>