<svg version="1.1" xmlns="http://www.w3.org/2000/svg" xmlns:xlink="http://www.w3.org/1999/xlink" width="82.17862" height="117.73035" viewBox="0,0,82.17862,117.73035"><g transform="translate(-199.65326,-121.10946)"><g data-paper-data="{&quot;isPaintingLayer&quot;:true}" fill-rule="evenodd" stroke-linecap="butt" stroke-linejoin="miter" stroke-miterlimit="10" stroke-dasharray="" stroke-dashoffset="0" style="mix-blend-mode: normal"><path d="M221.05801,233.252c-0.542,0.448 -0.772,1.519 0.912,1.254c1.729,-0.3 4.613,-1.3 4.613,-1.3c1.361,0.93 0.288,4.819 0.288,4.819c-0.864,0.355 -1.522,0.067 -1.522,0.067l-0.497,-1.08c0,0 -0.217,0.438 -1.372,1.15c-1.153,0.725 -5.41,1.219 -5.918,-0.425c-0.459,-1.553 3.036,-4.163 3.496,-4.485" fill="#f29700" stroke="none" stroke-width="1"/><path d="M246.57501,233.205c0,0 2.883,1.002 4.613,1.3c1.684,0.266 1.454,-0.806 0.912,-1.254c0.463,0.323 3.957,2.933 3.482,4.487c-0.506,1.645 -4.751,1.151 -5.905,0.425c-1.154,-0.712 -1.374,-1.149 -1.374,-1.149l-0.505,1.079c0,0 -0.647,0.287 -1.513,-0.068c0,0 -1.082,-3.889 0.29,-4.819" fill="#f29700" stroke="none" stroke-width="1"/><path d="M218.02401,219.452c0.023,-0.965 2.238,-0.599 2.55,-0.54c-0.046,-0.483 -0.221,-2.633 0.715,-2.623c0.98,0.023 0.611,2.244 0.553,2.554c0.485,-0.058 2.641,-0.218 2.62,0.713c-0.023,0.966 -2.238,0.598 -2.549,0.539c0.022,0.301 0.103,1.208 -0.059,1.876c-0.451,-0.139 -0.888,-0.276 -1.315,-0.414c-0.01281,-0.46629 0.0217,-0.93267 0.103,-1.392c-0.483,0.057 -2.641,0.218 -2.618,-0.713M255.93001,219.992c-0.116,0.046 -0.232,0.092 -0.358,0.139l-0.036,-0.104c-0.483,0.045 -2.64,0.219 -2.618,-0.713c0.023,-0.977 2.24,-0.609 2.55,-0.552c-0.046,-0.484 -0.219,-2.633 0.715,-2.61c0.981,0.024 0.612,2.23 0.554,2.542c0.311,-0.024 1.339,-0.115 2.007,0.09l0.011,0.012c-0.93216,0.42075 -1.87409,0.81953 -2.825,1.196M262.07701,210.827c0.012,-0.965 2.238,-0.598 2.55,-0.54c-0.023,-0.265 -0.093,-0.99 0,-1.61c0.784,2.024 1.221,3.898 0.681,5.428l-0.059,-0.023c-0.98,-0.011 -0.611,-2.231 -0.553,-2.541c-0.484,0.056 -2.643,0.216 -2.618,-0.714M254.29101,201.272c0.012,-0.967 2.238,-0.599 2.55,-0.553c-0.046,-0.471 -0.219,-2.622 0.714,-2.61c0.97,0.022 0.6,2.23 0.555,2.554c0.473,-0.059 2.629,-0.231 2.617,0.7c-0.022,0.978 -2.248,0.609 -2.56,0.552c0.058,0.483 0.232,2.634 -0.704,2.61c-0.98,-0.023 -0.611,-2.231 -0.552,-2.541c-0.485,0.045 -2.644,0.219 -2.62,-0.712M245.55901,210.333c0.024,-0.978 2.251,-0.609 2.561,-0.553c-0.047,-0.482 -0.219,-2.633 0.703,-2.609c0.98,0.012 0.613,2.231 0.554,2.542c0.485,-0.047 2.642,-0.22 2.63,0.713c-0.022,0.965 -2.25,0.596 -2.56,0.55c0.045,0.472 0.219,2.623 -0.715,2.612c-0.97,-0.025 -0.601,-2.231 -0.543,-2.555c-0.484,0.059 -2.642,0.231 -2.63,-0.7M235.17901,218.808c0.023,-0.966 2.25,-0.598 2.56,-0.553c-0.046,-0.471 -0.219,-2.621 0.703,-2.608c0.981,0.021 0.612,2.23 0.553,2.553c0.485,-0.058 2.642,-0.232 2.63,0.7c-0.022,0.978 -2.248,0.609 -2.56,0.551c0.046,0.484 0.219,2.635 -0.715,2.61c-0.97,-0.022 -0.6,-2.229 -0.542,-2.54c-0.484,0.047 -2.642,0.219 -2.63,-0.713M227.25201,209.609c0.024,-0.967 2.238,-0.599 2.55,-0.553c-0.046,-0.471 -0.22,-2.622 0.714,-2.609c0.981,0.022 0.611,2.229 0.555,2.553c0.485,-0.059 2.641,-0.231 2.619,0.7c-0.023,0.978 -2.238,0.609 -2.55,0.552c0.047,0.484 0.22,2.634 -0.715,2.61c-0.98,-0.023 -0.61,-2.231 -0.554,-2.541c-0.485,0.047 -2.642,0.219 -2.618,-0.712M220.11201,198.752c0.023,-0.965 2.238,-0.598 2.56,-0.54c-0.056,-0.482 -0.229,-2.633 0.705,-2.621c0.98,0.021 0.611,2.242 0.553,2.553c0.486,-0.058 2.642,-0.218 2.62,0.712c-0.024,0.966 -2.239,0.598 -2.551,0.54c0.048,0.483 0.221,2.634 -0.714,2.611c-0.969,-0.011 -0.613,-2.231 -0.553,-2.541c-0.474,0.057 -2.644,0.217 -2.619,-0.713M216.39701,189.013c0.463,-1.277 1.199,-2.427 1.813,-3.243c0.16,0.689 -0.012,1.678 -0.048,1.874c0.486,-0.046 2.643,-0.217 2.62,0.713c-0.023,0.977 -2.237,0.61 -2.551,0.552c0.048,0.483 0.219,2.633 -0.715,2.611c-0.968,-0.023 -0.611,-2.231 -0.553,-2.541c-0.104,0.01 -0.324,0.021 -0.566,0.034M228.40601,190.059c0.023,-0.967 2.238,-0.599 2.549,-0.553c-0.024,-0.298 -0.116,-1.298 0.08,-1.965l0.036,-0.025c0.34281,0.38304 0.7805,0.66897 1.269,0.829v0.011c-0.011,0.495 -0.093,0.955 -0.115,1.095c0.484,-0.058 2.642,-0.232 2.618,0.7c-0.022,0.978 -2.238,0.609 -2.55,0.551c0.047,0.484 0.22,2.635 -0.715,2.61c-0.98,-0.022 -0.61,-2.229 -0.554,-2.54c-0.485,0.046 -2.641,0.218 -2.618,-0.712M236.86301,199.455c0.022,-0.979 2.248,-0.61 2.56,-0.554c-0.046,-0.482 -0.22,-2.632 0.703,-2.608c0.981,0.021 0.611,2.229 0.555,2.541c0.483,-0.046 2.64,-0.219 2.628,0.714c-0.022,0.963 -2.248,0.595 -2.56,0.55c0.047,0.483 0.22,2.622 -0.704,2.611c-0.981,-0.024 -0.61,-2.232 -0.554,-2.554c-0.484,0.057 -2.64,0.23 -2.629,-0.7M246.88601,192.186c0.046,-0.977 2.261,-0.552 2.573,-0.482c-0.035,-0.483 -0.162,-2.646 0.772,-2.599c0.98,0.046 0.554,2.242 0.485,2.552c0.484,-0.034 2.652,-0.148 2.606,0.782c-0.045,0.965 -2.25,0.553 -2.56,0.483c0.034,0.482 0.149,2.633 -0.784,2.6c-0.97,-0.046 -0.554,-2.255 -0.485,-2.566c-0.485,0.036 -2.641,0.161 -2.607,-0.77" fill="#fefefe" stroke="none" stroke-width="1"/><path d="M256.91001,201.984c-0.058,0.311 -0.427,2.518 0.554,2.541c0.934,0.023 0.761,-2.127 0.703,-2.61c0.312,0.058 2.537,0.426 2.562,-0.552c0.01,-0.932 -2.146,-0.759 -2.62,-0.702c0.047,-0.322 0.417,-2.53 -0.553,-2.552c-0.935,-0.012 -0.761,2.139 -0.715,2.61c-0.312,-0.047 -2.538,-0.414 -2.55,0.553c-0.023,0.931 2.134,0.757 2.619,0.712M249.49301,192.957c-0.069,0.31 -0.485,2.519 0.485,2.565c0.933,0.034 0.818,-2.117 0.784,-2.6c0.311,0.069 2.515,0.483 2.561,-0.483c0.045,-0.931 -2.123,-0.817 -2.607,-0.781c0.069,-0.311 0.495,-2.507 -0.485,-2.553c-0.934,-0.047 -0.807,2.116 -0.772,2.599c-0.313,-0.07 -2.527,-0.495 -2.573,0.482c-0.034,0.931 2.122,0.805 2.607,0.771M248.18801,211.034c-0.056,0.322 -0.425,2.53 0.544,2.554c0.934,0.01 0.761,-2.141 0.715,-2.611c0.31,0.046 2.538,0.415 2.56,-0.552c0.012,-0.933 -2.145,-0.759 -2.63,-0.713c0.059,-0.311 0.426,-2.53 -0.554,-2.542c-0.923,-0.022 -0.749,2.128 -0.703,2.61c-0.311,-0.056 -2.537,-0.425 -2.562,0.554c-0.01,0.93 2.147,0.757 2.63,0.7M239.49101,200.155c-0.056,0.322 -0.426,2.53 0.554,2.554c0.924,0.012 0.751,-2.128 0.704,-2.611c0.312,0.046 2.538,0.414 2.56,-0.551c0.012,-0.933 -2.145,-0.76 -2.628,-0.713c0.055,-0.312 0.425,-2.52 -0.555,-2.542c-0.923,-0.023 -0.749,2.127 -0.703,2.61c-0.311,-0.057 -2.538,-0.425 -2.561,0.553c-0.011,0.931 2.145,0.757 2.629,0.7M237.80801,219.521c-0.058,0.311 -0.428,2.519 0.542,2.542c0.933,0.022 0.761,-2.128 0.715,-2.61c0.312,0.056 2.538,0.425 2.56,-0.554c0.013,-0.93 -2.145,-0.757 -2.63,-0.7c0.059,-0.323 0.428,-2.53 -0.553,-2.553c-0.922,-0.013 -0.75,2.138 -0.703,2.61c-0.311,-0.046 -2.538,-0.414 -2.561,0.552c-0.012,0.931 2.145,0.759 2.63,0.713M229.87001,210.321c-0.056,0.311 -0.426,2.519 0.555,2.541c0.934,0.023 0.762,-2.127 0.714,-2.61c0.313,0.058 2.528,0.427 2.55,-0.552c0.022,-0.931 -2.133,-0.758 -2.618,-0.701c0.056,-0.322 0.426,-2.53 -0.554,-2.552c-0.934,-0.012 -0.762,2.139 -0.714,2.609c-0.312,-0.046 -2.528,-0.414 -2.55,0.553c-0.023,0.932 2.133,0.758 2.617,0.712M222.73101,199.466c-0.06,0.31 -0.415,2.53 0.555,2.542c0.933,0.021 0.76,-2.129 0.713,-2.612c0.311,0.059 2.526,0.425 2.551,-0.54c0.022,-0.931 -2.135,-0.77 -2.62,-0.713c0.058,-0.31 0.427,-2.53 -0.552,-2.553c-0.936,-0.01 -0.763,2.139 -0.706,2.623c-0.323,-0.059 -2.537,-0.427 -2.56,0.54c-0.023,0.931 2.146,0.77 2.619,0.713M241.17601,223.787c-1.94029,0.23876 -3.89309,0.36165 -5.848,0.368c-1.165,0 -2.32,-0.057 -3.45,-0.15c-3.61,-0.332 -7.048,-1.114 -10.024,-2.034c0.162,-0.667 0.082,-1.576 0.057,-1.876c0.314,0.06 2.528,0.426 2.55,-0.54c0.022,-0.931 -2.133,-0.77 -2.618,-0.713c0.057,-0.311 0.426,-2.53 -0.554,-2.553c-0.935,-0.011 -0.761,2.14 -0.715,2.624c-0.312,-0.06 -2.528,-0.427 -2.549,0.54c-0.024,0.93 2.134,0.77 2.616,0.713c-0.0797,0.45884 -0.11386,0.92444 -0.102,1.39c-1.222,-0.413 -2.364,-0.827 -3.38,-1.242c-3.645,-1.46 -5.917,-2.782 -5.917,-2.782c0,0 -4.223,-1.128 -0.831,-5.175c0.451,0.587 1.176,0.977 2.284,1.012c5.041,0.138 4.037,-3.588 4.464,-4.738c0.427,-1.15 3.172,-2.162 3.034,-3.887c-0.15,-1.725 -3.76,-0.713 -3.76,-0.713l-0.139,-2.875l1.291,-6.475c0,0 -2.155,-2.012 -1.43,-4.887c0.06989,-0.26388 0.15063,-0.52477 0.242,-0.782c0.243,-0.011 0.463,-0.022 0.566,-0.034c-0.057,0.31 -0.415,2.519 0.553,2.542c0.936,0.022 0.762,-2.127 0.716,-2.61c0.312,0.056 2.527,0.423 2.55,-0.554c0.022,-0.93 -2.135,-0.758 -2.62,-0.713c0.036,-0.195 0.207,-1.184 0.047,-1.874c0.612,-0.794 1.108,-1.287 1.108,-1.287c0.3,-1.875 -0.277,-4.75 -0.277,-4.75l0.023,-0.092c0.75209,0.1519 1.51677,0.23292 2.284,0.242c0.484,0 1.257,-0.184 2.214,-0.231c-1.16276,0.44667 -1.93199,1.56141 -1.937,2.807c0.00017,1.04477 0.53944,2.0155 1.42641,2.56762c0.88697,0.55212 1.99606,0.60746 2.93359,0.14638c0.42079,1.21959 1.56986,2.0372 2.86,2.035c0.60297,0.00495 1.19218,-0.18014 1.684,-0.529c0.13154,0.30844 0.31523,0.59192 0.543,0.838l-0.036,0.025c-0.196,0.667 -0.104,1.666 -0.079,1.966c-0.312,-0.047 -2.527,-0.415 -2.55,0.552c-0.022,0.931 2.133,0.759 2.618,0.713c-0.056,0.312 -0.426,2.518 0.554,2.542c0.935,0.023 0.762,-2.128 0.715,-2.612c0.312,0.058 2.528,0.427 2.55,-0.552c0.024,-0.93 -2.134,-0.757 -2.618,-0.7c0.022,-0.138 0.104,-0.599 0.115,-1.094v-0.011c1.04343,0.35541 2.19763,0.11306 3.01,-0.632l0.023,-0.012c0.56372,0.85918 1.5214,1.37766 2.549,1.38c1.1997,0.00033 2.28631,-0.70812 2.77,-1.806c0.43568,0.23492 0.92302,0.35761 1.418,0.357c1.1677,0.00035 2.23169,-0.67033 2.735,-1.724c0.391,0.195 0.842,0.298 1.302,0.298c1.62456,-0.00301 2.95766,-1.28671 3.022,-2.91c0.15,0.024 0.29,0.036 0.44,0.036c1.66773,-0.00495 3.01816,-1.35627 3.022,-3.024c0,-0.76 -0.278,-1.46 -0.75,-1.99v-0.045c0.518,-0.024 1.095,-0.047 1.718,-0.092c0.011,-0.013 0.023,0 0.035,0c0.173,0.021 0.485,0.092 0.935,0.228c-0.221,0.76 -0.819,3.22 -0.347,6.072c0,0 4.465,2.301 4.315,5.889c-0.138,1.437 -1.868,2.437 -1.868,2.437l0.01,0.012c0.208,0.298 3.506,5.186 5.468,10.062c0.785,1.943 1.776,3.933 2.48,5.796c-0.093,0.621 -0.023,1.344 0,1.61c-0.312,-0.057 -2.538,-0.425 -2.549,0.54c-0.023,0.931 2.134,0.77 2.618,0.713c-0.057,0.31 -0.427,2.53 0.553,2.542l0.058,0.023c-0.242,0.701 -0.703,1.322 -1.43,1.85c-1.084,0.782 -2.849,1.795 -5.121,2.84l-0.013,-0.01c-0.668,-0.207 -1.695,-0.115 -2.007,-0.093c0.058,-0.309 0.428,-2.517 -0.552,-2.54c-0.936,-0.024 -0.763,2.127 -0.717,2.61c-0.31,-0.058 -2.525,-0.425 -2.55,0.552c-0.02,0.932 2.135,0.759 2.62,0.713l0.034,0.103c-4.037,1.565 -9.042,3.002 -14.395,3.656" fill="#f29700" stroke="none" stroke-width="1"/><path d="M210.41201,212.357c-1.651,-2.093 0.114,-6.75 0.114,-6.75c0,0 -5.628,-5.462 -5.19,-14.226c0.416,-8.222 9.805,-12.143 10.981,-12.603h0.012c0.87639,0.38892 1.79386,0.67775 2.735,0.861l-0.025,0.093c0,0 0.577,2.875 0.278,4.749c-0.39453,0.40671 -0.7642,0.83683 -1.107,1.288c-0.613,0.817 -1.351,1.967 -1.813,3.245c-0.091,0.252 -0.171,0.516 -0.241,0.78c-0.727,2.875 1.43,4.888 1.43,4.888l-1.731,1l0.439,5.474l0.138,2.875c0,0 3.61,-1.012 3.762,0.713c0.137,1.725 -2.608,2.737 -3.034,3.887c-0.428,1.149 0.576,4.876 -4.465,4.737c-1.107,-0.034 -1.833,-0.425 -2.283,-1.011M247.05901,156.584c0.0011,1.75155 1.42045,3.17135 3.172,3.173c1.75116,-0.00221 3.1699,-1.42184 3.171,-3.173c0,-0.116 -0.021,-0.231 -0.034,-0.359l2.147,-0.62l-2.528,-0.552c-0.068,-0.126 -0.148,-0.241 -0.241,-0.355l1.257,-1.748l-2.157,0.931c-0.48955,-0.28979 -1.04713,-0.44471 -1.616,-0.449c-1.74532,-0.00387 -3.16393,1.40669 -3.17,3.152M245.90601,151.984c0.668,0.391 1.914,-0.276 1.914,-0.276c1.638,-2.024 4.326,-1.829 4.326,-1.829c-4.706,-1.621 -6.92,1.725 -6.24,2.105M232.22401,167.806c0.508,0.139 0.727,0.576 1.235,2.3c0.497,1.726 0.138,4.6 3.887,4.6c3.749,0 3.968,-3.243 4.257,-4.393c0.288,-1.149 1.003,-1.655 1.73,-2.012c1.004,-0.425 0.426,-1 -0.069,-1c-0.508,0 -0.877,0 -2.03,-0.725c-1.153,-0.712 -2.308,-0.424 -2.735,0.08c-0.427,0.496 -0.864,0.426 -1.58,0c-0.726,-0.436 -1.638,-0.597 -2.606,-0.08c-0.786,0.439 -1.293,0.357 -1.293,0.357c-1.66,0 -1.292,0.725 -0.796,0.873M226.87101,151.708c0,0 1.247,0.666 1.915,0.276c0.68,-0.381 -1.533,-3.726 -6.24,-2.105c0,0 2.687,-0.195 4.325,1.829M221.32301,156.226c-0.011,0.127 -0.034,0.242 -0.034,0.358c0.00165,1.75171 1.42129,3.17135 3.173,3.173c1.75116,-0.00221 3.1699,-1.42184 3.171,-3.173c-0.00607,-1.74587 -1.42513,-3.15687 -3.171,-3.153c-0.56927,0.00465 -1.12717,0.15991 -1.617,0.45l-2.156,-0.931l1.258,1.748c-0.093,0.115 -0.174,0.229 -0.243,0.355l-2.527,0.553l2.146,0.62M246.62001,179.812c-0.991,0.459 -1.867,0.931 -2.504,1.219c-0.15638,0.07402 -0.30983,0.15408 -0.46,0.24c-0.841,0.472 -2.283,1.335 -4.199,1.876c-1.12644,0.30961 -2.29211,0.45279 -3.46,0.425c-1.292,-0.012 -2.7,-0.253 -4.21,-0.828c-1.13093,-0.43653 -2.21069,-0.99553 -3.22,-1.667c-0.104,-0.058 -0.194,-0.127 -0.3,-0.197c-1.35,-0.884 -2.641,-1.183 -3.748,-1.242c3.092,-14.683 -9.62,-18.903 -10.866,-19.283c0.126,-0.322 0.196,-0.668 0.196,-1.036c-0.00132,-0.76382 -0.30602,-1.49584 -0.84707,-2.035c-0.54104,-0.53917 -1.27411,-0.84132 -2.03793,-0.84c-0.80138,-0.00351 -1.56723,0.33041 -2.11,0.92c-0.403,-0.483 -2.225,-2.875 -1.615,-5.726c0.08858,-0.42405 0.22409,-0.83692 0.404,-1.231c1.591,-3.6 6.921,-2.3 6.921,-2.3c1.292,-3.3 8.074,-8.336 8.074,-8.336c8.94,7.91 24.363,6.185 29.277,5.61c4.891,-0.574 8.652,1.864 8.652,1.864c0,0 4.452,-1.484 6.182,1.427c0.06136,0.09533 0.11583,0.19491 0.163,0.298c1.579,3.311 -0.44,6.463 -0.44,6.463l-0.126,0.264c-0.519,-0.516 -1.235,-0.839 -2.043,-0.839c-1.58902,-0.00111 -2.87869,1.28498 -2.882,2.874c-0.00648,1.12685 0.65388,2.15094 1.683,2.61l-0.023,0.058c0,0 -12.759,3.013 -13.404,17.963l0.069,0.24c-1.062,0.278 -2.145,0.75 -3.126,1.21" data-paper-data="{&quot;origPos&quot;:null}" fill="#9b723c" stroke="#aa8559" stroke-width="0.5"/><path d="M208.85501,157.365c0.517,-0.563 1.268,-0.92 2.11,-0.92c1.58996,-0.00166 2.88069,1.28504 2.884,2.875c0,0.369 -0.069,0.713 -0.195,1.035c-0.418,1.07 -1.466,1.84 -2.689,1.84c-0.76413,0.00293 -1.49792,-0.29878 -2.03899,-0.83835c-0.54107,-0.53957 -0.84482,-1.27252 -0.84401,-2.03665c-0.00526,-0.727 0.27145,-1.42774 0.772,-1.955" fill="#f8f074" stroke="none" stroke-width="1"/><path d="M216.329,178.778h-0.013c-1.786,-0.805 -3.61,-2.151 -4.786,-4.44c-1.384,-2.62 -1.915,-6.485 -0.565,-12.143c1.18898,-0.0027 2.25524,-0.73258 2.688,-1.84c1.246,0.38 13.958,4.6 10.866,19.286c-0.335,-0.024 -0.656,-0.012 -0.946,0l-0.011,0.01c-0.957,0.046 -1.732,0.23 -2.216,0.23c-0.76688,-0.00846 -1.53126,-0.08915 -2.283,-0.241c-0.94039,-0.18461 -1.85712,-0.47409 -2.733,-0.863zM220.539,221.557c0.43696,0.14162 0.87497,0.27995 1.314,0.415c2.977,0.918 6.414,1.7 10.024,2.033l-0.011,0.093c-1.014,3.162 -5.283,9.107 -5.283,9.107c0,0 -2.884,1.002 -4.614,1.3c-1.684,0.266 -1.453,-0.806 -0.911,-1.254l0.046,-0.046c0.576,-0.424 0.289,-1.437 -0.438,-2.3c-2.999,-4.635 -3.461,-10.027 -3.507,-10.59c1.11412,0.44736 2.24129,0.86155 3.38,1.242" data-paper-data="{&quot;origPos&quot;:null}" fill="#9b723c" stroke="#9b723c" stroke-width="0.5"/><path d="M225.03701,157.457c0.69237,-0.00109 1.25415,-0.56064 1.258,-1.253c-0.00211,-0.33152 -0.13584,-0.64863 -0.37177,-0.88155c-0.23592,-0.23292 -0.55471,-0.36258 -0.88623,-0.36045c-0.33025,-0.0016 -0.6475,0.12861 -0.8814,0.36176c-0.2339,0.23315 -0.36513,0.54998 -0.3646,0.88024c-0.00166,0.68997 0.55603,1.25079 1.246,1.253zM221.70301,155.054c0.07,-0.126 0.151,-0.242 0.244,-0.356l-1.258,-1.749l2.157,0.932c0.48916,-0.28997 1.04638,-0.44523 1.615,-0.45c1.753,0 3.173,1.416 3.173,3.152c-0.0011,1.7521 -1.4209,3.17235 -3.173,3.174c-1.75194,-0.00166 -3.17145,-1.42206 -3.172,-3.174c0,-0.116 0.023,-0.229 0.035,-0.356l-2.146,-0.622z" fill="#3f3a3a" stroke="none" stroke-width="1"/><path d="M224.51901,179.64c1.107,0.057 2.398,0.358 3.748,1.242c0.105,0.068 0.197,0.138 0.301,0.195l-0.081,0.116c-1.51984,0.17612 -2.66847,1.46 -2.675,2.99c-0.00157,0.33724 0.05666,0.67209 0.172,0.989c-0.93748,0.46168 -2.04689,0.40662 -2.93406,-0.14562c-0.88716,-0.55224 -1.42633,-1.52338 -1.42594,-2.56838c0.00444,-1.24577 0.77388,-2.36079 1.937,-2.807l0.013,-0.011c0.31477,-0.01718 0.63023,-0.01718 0.945,0" fill="#f8f074" stroke="none" stroke-width="1"/><path d="M222.54601,149.879c4.707,-1.622 6.92,1.725 6.24,2.105c-0.668,0.391 -1.915,-0.277 -1.915,-0.277c-1.638,-2.023 -4.325,-1.828 -4.325,-1.828" data-paper-data="{&quot;origPos&quot;:null}" fill="#49230a" stroke="none" stroke-width="1"/><path d="M225.03801,154.962c0.68958,-0.00332 1.25159,0.55242 1.256,1.242c0,0.689 -0.565,1.253 -1.256,1.253c-0.68997,-0.00221 -1.24766,-0.56303 -1.246,-1.253c-0.00054,-0.33026 0.13069,-0.64708 0.3646,-0.88024c0.2339,-0.23315 0.55115,-0.36336 0.8814,-0.36176" fill="#fefefe" stroke="none" stroke-width="1"/><path d="M225.98401,185.172c-0.116,-0.31 -0.173,-0.644 -0.173,-0.99c0,-1.54 1.176,-2.816 2.676,-2.99l0.08,-0.114c1.00866,0.67224 2.08814,1.2316 3.219,1.668l-0.058,0.16c-0.9008,0.54628 -1.45182,1.5225 -1.454,2.576c0.00107,0.41184 0.0872,0.81901 0.253,1.196c-0.483,0.344 -1.061,0.53 -1.683,0.53c-1.29041,0.00205 -2.43955,-0.81601 -2.86,-2.036" fill="#f8f074" stroke="none" stroke-width="1"/><path d="M230.52801,186.678c-0.16,-0.368 -0.253,-0.77 -0.253,-1.195c0.00219,-1.05325 0.55225,-2.02948 1.452,-2.577l0.058,-0.162c1.512,0.576 2.92,0.818 4.212,0.829v0.161c-0.69694,0.57052 -1.10286,1.42233 -1.107,2.323c0.0008,0.58318 0.16839,1.15396 0.483,1.645l-0.022,0.011c-0.81237,0.74506 -1.96657,0.98741 -3.01,0.632c-0.497,-0.161 -0.926,-0.449 -1.27,-0.829c-0.22,-0.241 -0.414,-0.528 -0.543,-0.838" fill="#f8f074" stroke="none" stroke-width="1"/><path d="M234.03601,168.013c0.31536,0.3945 0.5151,0.86875 0.577,1.37c0.068,0.794 0.576,3.094 2.663,3.23c2.089,0.151 2.665,-1.931 2.954,-2.656c0.289,-0.724 1.222,-1.793 1.222,-1.793c0,0 -1.581,-0.219 -2.525,0.218c-0.934,0.426 -2.158,0.357 -3.023,-0.15c-0.865,-0.507 -1.868,-0.219 -1.868,-0.219M233.02001,166.932c0,0 0.508,0.082 1.293,-0.356c0.969,-0.516 1.879,-0.357 2.607,0.081c0.714,0.425 1.153,0.494 1.579,0c0.428,-0.505 1.581,-0.793 2.734,-0.081c1.155,0.726 1.524,0.726 2.03,0.726c0.497,0 1.074,0.574 0.07,1c-0.728,0.356 -1.441,0.861 -1.731,2.011c-0.287,1.15 -0.506,4.394 -4.256,4.394c-3.749,0 -3.39,-2.876 -3.888,-4.6c-0.508,-1.724 -0.727,-2.162 -1.233,-2.3c-0.498,-0.15 -0.865,-0.874 0.795,-0.874" fill="#c30f23" stroke="none" stroke-width="1"/><path d="M235.90401,168.232c0.866,0.506 2.09,0.576 3.023,0.15c0.945,-0.438 2.525,-0.218 2.525,-0.218c0,0 -0.933,1.069 -1.222,1.794c-0.289,0.725 -0.865,2.806 -2.954,2.655c-2.087,-0.137 -2.595,-2.437 -2.664,-3.23c-0.08,-0.794 -0.576,-1.369 -0.576,-1.369c0,0 1.003,-0.288 1.868,0.218" fill="#5c0000" stroke="none" stroke-width="1"/><path d="M234.89001,186.057c0.00408,-0.90118 0.41042,-1.75345 1.108,-2.324v-0.16c1.278,0.035 2.431,-0.15 3.46,-0.425v0.012c-0.243,0.424 -0.382,0.93 -0.382,1.46c0.00201,1.11721 0.62527,2.14057 1.617,2.655c-0.48389,1.0977 -1.57037,1.80607 -2.77,1.806c-1.02774,-0.0018 -1.98566,-0.5204 -2.549,-1.38c-0.301,-0.472 -0.484,-1.034 -0.484,-1.644" fill="#f8f074" stroke="none" stroke-width="1"/><path d="M240.69201,187.276c-0.99157,-0.51511 -1.61469,-1.53862 -1.617,-2.656c-0.00086,-0.51149 0.13074,-1.01448 0.382,-1.46v-0.013c1.916,-0.539 3.358,-1.402 4.199,-1.874l0.058,0.115c-0.381,0.495 -0.6,1.116 -0.6,1.794c0.00124,1.16697 0.67535,2.22858 1.731,2.726c-0.3562,0.74455 -1.00081,1.3115 -1.78474,1.56973c-0.78393,0.25823 -1.63929,0.18537 -2.36826,-0.20173" fill="#f8f074" stroke="none" stroke-width="1"/><path d="M244.84501,185.908c-1.028,-0.484 -1.73,-1.53 -1.73,-2.726c-0.00443,-0.64766 0.20586,-1.27853 0.598,-1.794l-0.057,-0.116c0.15068,-0.08623 0.30481,-0.1663 0.462,-0.24c0.635,-0.288 1.51,-0.759 2.503,-1.218c-0.036,0.159 -0.047,0.321 -0.047,0.493c0.00262,1.50254 1.10771,2.77542 2.595,2.989c-0.06435,1.62367 -1.39805,2.90752 -3.023,2.91c-0.46,0 -0.91,-0.103 -1.302,-0.298" fill="#f8f074" stroke="none" stroke-width="1"/><path d="M241.17501,223.787c5.353,-0.655 10.36,-2.092 14.397,-3.657c0.126,-0.045 0.242,-0.092 0.358,-0.138c-0.104,1.312 -0.681,6.659 -3.437,10.913c-0.729,0.863 -1.016,1.875 -0.44,2.3l0.046,0.046c0.542,0.448 0.773,1.519 -0.911,1.254c-1.73,-0.298 -4.613,-1.3 -4.613,-1.3c0,0 -4.28,-6.198 -5.4,-9.418" data-paper-data="{&quot;origPos&quot;:null}" fill="#9b723c" stroke="none" stroke-width="1"/><path d="M252.14601,149.879c0,0 -2.688,-0.195 -4.326,1.828c0,0 -1.246,0.667 -1.914,0.277c-0.68,-0.381 1.534,-3.727 6.24,-2.105" data-paper-data="{&quot;origPos&quot;:null}" fill="#49230a" stroke="none" stroke-width="1"/><path d="M249.17001,183.297c-1.48806,-0.21319 -2.5938,-1.48675 -2.596,-2.99c-0.00237,-0.16584 0.01305,-0.33145 0.046,-0.494c0.982,-0.46 2.065,-0.932 3.126,-1.208c0.56357,-0.16639 1.14372,-0.27035 1.73,-0.31c0.127,-0.012 0.266,-0.012 0.404,-0.022v0.044c0.473,0.53 0.75,1.231 0.75,1.99c-0.00329,1.66774 -1.35327,3.0195 -3.021,3.025c-0.151,0 -0.289,-0.012 -0.439,-0.036" fill="#f8f074" stroke="none" stroke-width="1"/><path d="M249.36601,156.009c-0.00166,0.68997 0.55603,1.25079 1.246,1.253c0.68997,-0.00221 1.24766,-0.56303 1.246,-1.253c0,-0.68815 -0.55785,-1.246 -1.246,-1.246c-0.68815,0 -1.246,0.55785 -1.246,1.246M250.23101,153.432c0.56815,0.00396 1.12509,0.15855 1.614,0.448l2.159,-0.93l-1.259,1.748c0.09233,0.11088 0.17371,0.23044 0.243,0.357l2.526,0.551l-2.145,0.62c0.011,0.127 0.034,0.242 0.034,0.357c-0.00055,1.75194 -1.42006,3.17234 -3.172,3.174c-1.75155,-0.00221 -3.17045,-1.42245 -3.171,-3.174c0.00662,-1.74532 1.42568,-3.15543 3.171,-3.151" fill="#3f3a3a" stroke="none" stroke-width="1"/><path d="M264.50909,171.38692c-0.461,0.908 -1.084,1.804 -1.88,2.69c-3.391,3.381 -6.703,4.117 -9.239,4.347c-0.013,0 -0.024,-0.012 -0.034,0c-0.623,0.046 -1.2,0.069 -1.72,0.093c-0.137,0.011 -0.277,0.011 -0.404,0.021c-0.58621,0.04026 -1.16629,0.1442 -1.73,0.31l-0.069,-0.241c0.646,-14.949 13.404,-17.961 13.404,-17.961l0.023,-0.059c0.369,0.173 0.773,0.266 1.199,0.266c0.28939,0.00023 0.5772,-0.04257 0.854,-0.127c0.474,1.206 2.031,5.945 -0.403,10.66" data-paper-data="{&quot;origPos&quot;:null}" fill="#9b723c" stroke="#9b723c" stroke-width="0.5"/><path d="M250.61101,154.767c0.693,0 1.246,0.562 1.246,1.242c0.00166,0.68997 -0.55603,1.25079 -1.246,1.253c-0.68997,-0.00221 -1.24766,-0.56303 -1.246,-1.253c0,-0.679 0.554,-1.242 1.246,-1.242" fill="#fefefe" stroke="none" stroke-width="1"/><path d="M254.56901,178.409c1.291,0.404 3.725,1.427 7.001,4.048c0,0 5.34,1.012 9.227,3.025c0,0 5.192,-4.175 9.806,-1.15c1.441,1.3 1.88,4.174 -0.15,5.174c-2.008,1.002 -4.464,1.151 -4.037,2.589c0.438,1.436 -1.004,5.175 -4.314,-0.575c0,0 -8.941,5.738 -15.423,1.298l-0.012,-0.01c0,0 1.731,-1.001 1.87,-2.439c0.149,-3.587 -4.315,-5.887 -4.315,-5.887c-0.473,-2.852 0.127,-5.314 0.347,-6.072" data-paper-data="{&quot;origPos&quot;:null}" fill="#9b723c" stroke="none" stroke-width="1"/><path d="M265.15701,160.482c-0.265,0.08 -0.553,0.127 -0.853,0.127c-0.427,0 -0.83,-0.093 -1.2,-0.265c-0.991,-0.438 -1.684,-1.438 -1.684,-2.61c0.00106,-0.76382 0.30551,-1.49594 0.84636,-2.0353c0.54086,-0.53935 1.27382,-0.84176 2.03764,-0.8407c0.76431,-0.00266 1.4982,0.29924 2.0394,0.83894c0.5412,0.5397 0.84514,1.27275 0.8446,2.03706c0.00312,1.26367 -0.82205,2.38015 -2.031,2.748" fill="#f8f074" stroke="none" stroke-width="1"/><path d="M204.62101,153.432c0.36189,-0.68566 0.61844,-1.42192 0.761,-2.184c0.67,-3.623 -1.038,-7.326 1.972,-14.64c3.61,-8.773 14.27,-8.475 14.27,-8.475c0,0 6.92,-9.348 21.917,-6.475c14.995,2.876 21.34,12.364 22.355,18.113c0.634,3.588 0.922,6.175 1.972,8.349c0.624,1.299 1.522,2.448 2.93,3.588c3.75,3.013 6.77,7.751 4.037,14.513c-2.502,6.196 -9.009,5.14 -10.081,4.921c2.434,-4.715 0.876,-9.454 0.403,-10.66c1.2093,-0.36796 2.03456,-1.48496 2.031,-2.749c0.00112,-0.76331 -0.30188,-1.49563 -0.842,-2.035l0.127,-0.264c0,0 2.019,-3.151 0.438,-6.463c-0.04685,-0.10306 -0.10099,-0.20264 -0.162,-0.298c-1.73,-2.91 -6.183,-1.426 -6.183,-1.426c0,0 -3.76,-2.439 -8.65,-1.864c-4.916,0.575 -20.337,2.3 -29.278,-5.612c0,0 -6.783,5.037 -8.074,8.337c0,0 -5.33,-1.3 -6.922,2.3c-0.17985,0.39392 -0.3147,0.80686 -0.402,1.231c-0.612,2.851 1.21,5.243 1.614,5.726c-0.50097,0.5274 -0.77773,1.22862 -0.772,1.956c-0.00054,0.76388 0.30316,1.49652 0.84395,2.036c0.5408,0.53948 1.27417,0.84139 2.03805,0.839c-1.349,5.657 -0.818,9.521 0.567,12.142l-0.14,0.07c-5.155,1.426 -10.232,-2.99 -11.43,-7.636c-1.408,-5.52 2.341,-8.889 4.66,-13.34" data-paper-data="{&quot;origPos&quot;:null}" fill="#643318" stroke="none" stroke-width="1"/><path d="M258.78501,146.367c1.118,0.453 1.781,0.878 1.781,0.878c0,0 4.452,-1.483 6.183,1.427c0.058,0.092 0.116,0.195 0.162,0.3c1.58,3.31 -0.438,6.462 -0.438,6.462l-0.127,0.264c-0.54172,-0.54126 -1.27723,-0.84367 -2.043,-0.84c-1.59019,-0.00166 -2.88079,1.28581 -2.883,2.876c0,1.172 0.693,2.172 1.684,2.61l-0.023,0.058c0,0 -1.215,0.29 -2.912,1.123c1.857,-5.663 0.987,-11.02 -1.384,-15.158M250.06201,174.992c-0.20737,1.11325 -0.33635,2.23969 -0.386,3.371l0.07,0.241c-1.061,0.277 -2.146,0.749 -3.126,1.21c-0.991,0.459 -1.868,0.93 -2.503,1.218c-0.15664,0.07349 -0.31011,0.15356 -0.46,0.24c-0.842,0.473 -2.284,1.335 -4.2,1.875c-1.12629,0.31047 -2.29204,0.454 -3.46,0.426c-1.292,-0.011 -2.7,-0.253 -4.211,-0.829c-1.028,-0.39 -2.1,-0.93 -3.218,-1.667c-0.104,-0.057 -0.196,-0.127 -0.302,-0.195c-1.349,-0.885 -2.64,-1.185 -3.748,-1.242c0.25348,-1.1905 0.40767,-2.39999 0.461,-3.616c7.17,4.094 17.503,4.55 25.083,-1.032M207.24001,151.64c0.08804,-0.42427 0.22286,-0.83746 0.402,-1.232c1.592,-3.6 6.922,-2.3 6.922,-2.3c1.292,-3.3 8.074,-8.337 8.074,-8.337c8.94,7.912 24.363,6.186 29.277,5.612c1.26081,-0.14446 2.53582,-0.10708 3.786,0.111c-2.555,0.513 -6.321,1.254 -8.55,1.608c-3.604,0.575 -17.303,1.869 -25.234,-3.881c0,0 -5.7,7.379 -5.437,18.333c-1.399,-0.738 -2.502,-1.1 -2.827,-1.198c0.127,-0.322 0.195,-0.667 0.195,-1.035c-0.00221,-1.59019 -1.29281,-2.87766 -2.883,-2.876c-0.841,0 -1.592,0.356 -2.11,0.92c-0.405,-0.483 -2.226,-2.875 -1.615,-5.726" data-paper-data="{&quot;origPos&quot;:null}" fill="#815f32" stroke="none" stroke-width="1"/><path d="M234.94301,163.297c-0.087,0 -0.174,-0.027 -0.25,-0.08c-0.09419,-0.06566 -0.15805,-0.16641 -0.17723,-0.27961c-0.01918,-0.1132 0.00793,-0.22937 0.07523,-0.32239c1.032,-1.446 2.153,-2.188 3.318,-2.12c1.83,0.06 3.023,1.968 3.073,2.05c0.05989,0.09718 0.07868,0.21419 0.05224,0.32523c-0.02645,0.11105 -0.09597,0.20702 -0.19324,0.26677c-0.20341,0.12288 -0.46772,0.06069 -0.595,-0.14c-0.01,-0.017 -1.006,-1.597 -2.37,-1.64c-0.852,-0.043 -1.729,0.563 -2.58,1.759c-0.08213,0.11363 -0.2138,0.18095 -0.354,0.181" data-paper-data="{&quot;origPos&quot;:null}" fill="#fac899" stroke="none" stroke-width="1"/><path d="M239.43601,166.939c0,-0.199 0.324,-0.359 0.722,-0.359c0.398,0 0.722,0.159 0.722,0.358c0,0.2 -0.324,0.36 -0.722,0.36c-0.398,0 -0.722,-0.16 -0.722,-0.359" fill="#fefefe" stroke="none" stroke-width="1"/><path d="M204.62101,153.432c0.36189,-0.68566 0.61844,-1.42192 0.761,-2.184c0.67,-3.623 -1.633,-6.59 0.242,-11.765c0.932,-2.567 0.865,-2.443 3.028,-5.175c-2.308,4.888 0,9.056 2.162,9.919c4.852,1.935 11.536,-5.75 11.536,-5.75c6.2,7.474 26.819,6.038 37.922,4.169c4.767,-0.802 5.224,-3.804 4.198,-6.967c0.733,1.465 1.21,2.866 1.426,4.092c0.634,3.588 0.922,6.175 1.972,8.349c0.624,1.299 1.522,2.448 2.93,3.588c3.75,3.013 6.77,7.751 4.037,14.513c-2.502,6.196 -9.009,5.14 -10.081,4.921c2.434,-4.715 0.876,-9.454 0.403,-10.66c1.2093,-0.36796 2.03456,-1.48496 2.031,-2.749c0.00112,-0.76331 -0.30188,-1.49563 -0.842,-2.035l0.127,-0.264c0,0 2.019,-3.151 0.438,-6.463c-0.04685,-0.10306 -0.10099,-0.20264 -0.162,-0.298c-1.73,-2.91 -6.183,-1.426 -6.183,-1.426c0,0 -3.76,-2.439 -8.65,-1.864c-4.916,0.575 -20.337,2.3 -29.278,-5.612c0,0 -6.783,5.037 -8.074,8.337c0,0 -5.33,-1.3 -6.922,2.3c-0.17985,0.39392 -0.3147,0.80686 -0.402,1.231c-0.612,2.851 1.21,5.243 1.614,5.726c-0.50097,0.5274 -0.77773,1.22862 -0.772,1.956c-0.00054,0.76388 0.30316,1.49652 0.84395,2.036c0.5408,0.53948 1.27417,0.84139 2.03805,0.839c-1.349,5.657 -0.818,9.521 0.567,12.142l-0.14,0.07c-5.155,1.426 -10.232,-2.99 -11.43,-7.636c-1.408,-5.52 2.341,-8.889 4.66,-13.34" data-paper-data="{&quot;origPos&quot;:null}" fill="#4b2612" stroke="none" stroke-width="1"/><path d="M228.69501,131.29c13.883,5.004 24.99,-0.004 29.822,-2.94c3.382,2.799 5.486,5.957 6.583,8.728c-24.096,7.137 -36.405,-5.788 -36.405,-5.788M224.22401,132.583c-8.978,4.52 -13.13,2.54 -15.436,1.466c1.54,-2.146 3.563,-3.519 5.557,-4.388c3.098,2.92 9.879,2.922 9.879,2.922" data-paper-data="{&quot;origPos&quot;:null}" fill="#7c3814" stroke="none" stroke-width="1"/><path d="M254.22201,184.482c-0.472,-2.853 0.127,-5.313 0.346,-6.073c0.228,0.071 0.504,0.171 0.8,0.286c0.5,1.435 1.182,3.638 1.444,5.637c0.433,3.306 5.912,7.474 14.563,5.03c0,0 8.023,0.526 10.424,-2.55c0.105,1.081 -0.257,2.159 -1.346,2.694c-2.007,1.002 -4.464,1.15 -4.037,2.588c0.438,1.438 -1.004,5.176 -4.315,-0.574c0,0 -8.94,5.737 -15.421,1.299l-0.012,-0.011c0,0 1.73,-1.002 1.869,-2.438c0.15,-3.59 -4.315,-5.888 -4.315,-5.888M214.56401,203.45c-1.442,-4.311 -2.451,-11.5 0.29,-15.38c1.9,-2.694 2.827,-6.563 3.218,-8.68c0.338,0.095 0.68,0.19 0.991,0.25l-0.023,0.092c0,0 0.577,2.875 0.277,4.75c0,0 -0.496,0.493 -1.108,1.287c-0.612,0.817 -1.349,1.967 -1.812,3.244c-0.092,0.253 -0.17,0.517 -0.242,0.78c-0.725,2.876 1.43,4.888 1.43,4.888l-1.729,1.001l0.438,5.474l0.139,2.875c0,0 3.61,-1.012 3.76,0.713c0.138,1.725 -2.607,2.737 -3.034,3.887c-0.427,1.15 0.577,4.876 -4.464,4.737c5.341,-0.286 3.311,-5.605 1.87,-9.918" data-paper-data="{&quot;origPos&quot;:null}" fill="#815f32" stroke="none" stroke-width="1"/><path d="M245.99801,183.278c0.558,-1.187 -0.303,-2.263 -0.817,-2.764c0.437,-0.22 0.921,-0.461 1.439,-0.7c-0.03282,0.16223 -0.04824,0.3275 -0.046,0.493c0.0017,1.50308 1.10712,2.77677 2.595,2.99c-0.06434,1.62329 -1.39744,2.90699 -3.022,2.91c-0.461,0 -0.912,-0.104 -1.302,-0.3c-0.93469,-0.44106 -1.5782,-1.33028 -1.705,-2.356c0.77,0.788 2.346,0.813 2.858,-0.273" fill="#f5d748" stroke="none" stroke-width="1"/><path d="M246.57401,180.307c0,-0.173 0.012,-0.334 0.046,-0.494c-0.0264,0.16546 -0.04177,0.3325 -0.046,0.5zM250.51601,181.075c-0.193,-1.628 -1.924,-1.917 -1.924,-1.917c0,0 -0.028,-0.062 -0.076,-0.152c0.409,-0.152 0.821,-0.294 1.23,-0.401c0.56338,-0.16721 1.14362,-0.27119 1.73,-0.31c0.126,-0.011 0.266,-0.011 0.404,-0.022v0.044c0.472,0.53 0.75,1.23 0.75,1.99c-0.0033,1.66796 -1.35404,3.0196 -3.022,3.024c-0.15,0 -0.288,-0.01 -0.439,-0.035c-1.00914,-0.14785 -1.87519,-0.79569 -2.302,-1.722c0.94,1.496 3.799,0.778 3.649,-0.499M240.19501,186.273c0.975,0 1.766,-0.788 1.766,-1.761c0,-0.858 -0.616,-1.57 -1.43,-1.727c1.378,-0.513 2.45,-1.135 3.125,-1.511l0.058,0.115c-0.38,0.494 -0.6,1.115 -0.6,1.793c0,1.196 0.704,2.243 1.73,2.725c-0.50201,1.05462 -1.56599,1.72633 -2.734,1.726c-0.49498,0.00061 -0.98232,-0.12208 -1.418,-0.357c-0.49845,-0.26246 -0.91293,-0.65996 -1.196,-1.147c0.214,0.092 0.45,0.144 0.699,0.144" fill="#f5d748" stroke="none" stroke-width="1"/><path d="M235.94001,187.566c0.934,0 1.694,-0.756 1.694,-1.689c0,-0.932 -0.76,-1.688 -1.694,-1.688c-0.149,0 -0.291,0.025 -0.431,0.06c0.144,-0.189 0.305,-0.364 0.488,-0.515v-0.16c1.28,0.034 2.433,-0.15 3.461,-0.427v0.013c-0.25181,0.4453 -0.38346,0.94844 -0.382,1.46c0.00192,1.11695 0.62421,2.14034 1.615,2.656c-0.48411,1.09647 -1.56941,1.8042 -2.768,1.805c-1.02814,-0.00128 -1.98659,-0.51997 -2.55,-1.38c-0.06068,-0.10021 -0.11641,-0.20333 -0.167,-0.309c0.224,0.108 0.47,0.174 0.734,0.174" fill="#f5d748" stroke="none" stroke-width="1"/><path d="M231.57801,186.776c0.876,0 1.586,-0.708 1.586,-1.581c0,-0.874 -0.71,-1.581 -1.586,-1.581c-0.286,0 -0.552,0.081 -0.784,0.214c0.2402,-0.37157 0.55861,-0.68622 0.933,-0.922l0.059,-0.161c1.512,0.576 2.92,0.817 4.211,0.828v0.161c-0.69721,0.57074 -1.10316,1.42298 -1.107,2.324c0,0.609 0.183,1.17 0.484,1.643l-0.025,0.012c-0.81215,0.74391 -1.96514,0.98616 -3.008,0.632c-0.48875,-0.15959 -0.92679,-0.44518 -1.27,-0.828c-0.22803,-0.24626 -0.41174,-0.53011 -0.543,-0.839c-0.06134,-0.14843 -0.11051,-0.3016 -0.147,-0.458c0.29794,0.35219 0.73569,0.55552 1.197,0.556" fill="#f5d748" stroke="none" stroke-width="1"/><path d="M227.68501,185.626c0.916,0 1.659,-0.74 1.659,-1.653c0,-0.913 -0.743,-1.654 -1.659,-1.654c-0.916,0 -1.658,0.741 -1.658,1.654c0,0.913 0.742,1.653 1.658,1.653M228.48701,181.193l0.08,-0.115c1.00902,0.67168 2.08885,1.23037 3.22,1.666l-0.06,0.161c-0.90043,0.54699 -1.45099,1.52345 -1.453,2.577c0,0.425 0.093,0.828 0.253,1.196c-0.49142,0.34891 -1.08033,0.53401 -1.683,0.529c-1.28979,0.00204 -2.43861,-0.81499 -2.86,-2.034c-0.11612,-0.31707 -0.17471,-0.65233 -0.173,-0.99c0.00704,-1.53016 1.15598,-2.81392 2.676,-2.99" fill="#f5d748" stroke="none" stroke-width="1"/><path d="M221.81001,181.436c-0.07028,0.19097 -0.10748,0.39253 -0.11,0.596c0.00079,0.47739 0.1912,0.93491 0.52933,1.27191c0.33813,0.337 0.79628,0.52588 1.27367,0.52509c0.99372,0.00111 1.80034,-0.80328 1.802,-1.797c-0.00147,-0.83924 -0.58302,-1.56597 -1.40152,-1.7514c-0.8185,-0.18543 -1.65647,0.21972 -2.01948,0.9764c0.32451,-0.73589 0.92759,-1.31307 1.677,-1.605l0.013,-0.013c0.288,-0.01 0.61,-0.021 0.945,0c1.33856,0.06799 2.63373,0.49718 3.748,1.242c0.105,0.07 0.197,0.139 0.301,0.197l-0.081,0.114c-1.51962,0.17654 -2.66802,1.46018 -2.675,2.99c0,0.346 0.056,0.68 0.171,0.99c-0.93769,0.46116 -2.04698,0.40572 -2.93401,-0.14664c-0.88703,-0.55236 -1.42617,-1.52341 -1.42599,-2.56836c0.001,-0.359 0.07,-0.701 0.187,-1.021" fill="#f5d748" stroke="none" stroke-width="1"/><path d="M247.44001,180.21c0,-0.47773 0.38727,-0.865 0.865,-0.865c0.47773,0 0.865,0.38727 0.865,0.865c0,0.47773 -0.38727,0.865 -0.865,0.865c-0.47773,0 -0.865,-0.38727 -0.865,-0.865M243.49801,182.703c0,-0.47773 0.38727,-0.865 0.865,-0.865c0.47773,0 0.865,0.38727 0.865,0.865c0,0.47773 -0.38727,0.865 -0.865,0.865c-0.47773,0 -0.865,-0.38727 -0.865,-0.865M239.36501,184.332c0,-0.47773 0.38727,-0.865 0.865,-0.865c0.47773,0 0.865,0.38727 0.865,0.865c0,0.478 -0.3875,0.8655 -0.8655,0.8655c-0.478,0 -0.8655,-0.3875 -0.8655,-0.8655M235.42401,185.577c0,-0.47773 0.38727,-0.865 0.865,-0.865c0.47773,0 0.865,0.38727 0.865,0.865c0,0.47773 -0.38727,0.865 -0.865,0.865c-0.47773,0 -0.865,-0.38727 -0.865,-0.865M230.32801,185.29c0,-0.47773 0.38727,-0.865 0.865,-0.865c0.47773,0 0.865,0.38727 0.865,0.865c0,0.47773 -0.38727,0.865 -0.865,0.865c-0.47773,0 -0.865,-0.38727 -0.865,-0.865M226.38801,183.95c0,-0.47773 0.38727,-0.865 0.865,-0.865c0.47773,0 0.865,0.38727 0.865,0.865c0,0.47773 -0.38727,0.865 -0.865,0.865c-0.47773,0 -0.865,-0.38727 -0.865,-0.865M222.25301,181.744c0,-0.47773 0.38727,-0.865 0.865,-0.865c0.47773,0 0.865,0.38727 0.865,0.865c0,0.47773 -0.38727,0.865 -0.865,0.865c-0.47773,0 -0.865,-0.38727 -0.865,-0.865" fill="#fefefe" stroke="none" stroke-width="1"/><path d="M261.90701,156.138c-0.014,1.422 1.088,3.018 3.22,2.032c1.326,-0.614 1.53,-1.507 1.397,-2.256c0.61455,0.73657 0.81875,1.73225 0.54374,2.65126c-0.27502,0.91901 -0.9926,1.63884 -1.91074,1.91674c-0.264,0.08 -0.553,0.126 -0.854,0.126c-0.426,0 -0.83,-0.092 -1.199,-0.264c-1.02877,-0.45947 -1.68897,-1.4833 -1.683,-2.61c0,-0.591 0.179,-1.14 0.486,-1.596M208.33901,158.144c0.03,1.54 2.097,3.459 3.822,2.23c1.596,-1.136 0.25,-3.046 -0.385,-3.798c1.22357,0.35278 2.06764,1.47059 2.072,2.744c0,0.368 -0.069,0.714 -0.195,1.036c-0.43381,1.10703 -1.50001,1.8366 -2.689,1.84c-0.76422,0.00266 -1.498,-0.29927 -2.03905,-0.839c-0.54104,-0.53973 -0.84475,-1.27278 -0.84395,-2.037c0,-0.42 0.097,-0.817 0.258,-1.176" fill="#f5d748" stroke="none" stroke-width="1"/><path d="M209.18001,158.267c0,-0.582 0.473,-1.054 1.058,-1.054c0.584,0 1.057,0.472 1.057,1.054c0,0.581 -0.473,1.053 -1.057,1.053c-0.585,0 -1.058,-0.472 -1.058,-1.053M263.10801,156.83c0,-0.53019 0.42981,-0.96 0.96,-0.96c0.35307,-0.01613 0.68644,0.16305 0.86779,0.46641c0.18135,0.30336 0.18135,0.68183 0,0.98519c-0.18135,0.30336 -0.51473,0.48253 -0.86779,0.46641c-0.531,0 -0.961,-0.429 -0.961,-0.958" fill="#fefefe" stroke="none" stroke-width="1"/><path d="M230.91501,188.74c-0.451,-0.342 -0.875,-0.829 -1.21,-1.533c0,0 -2.452,1.294 -5.048,-1.724c0.46029,-0.00084 0.91426,-0.10723 1.327,-0.311c0.42079,1.21959 1.56986,2.0372 2.86,2.035c0.622,0 1.2,-0.184 1.684,-0.53c0.128,0.312 0.323,0.598 0.543,0.84l-0.036,0.024c-0.104,0.357 -0.126,0.81 -0.12,1.199M234.17401,189.363c0,0 -0.154,0.042 -0.4,0.076c-0.41587,-0.04509 -0.83506,-0.05078 -1.252,-0.017c-0.09559,-0.01537 -0.19036,-0.0354 -0.284,-0.06c0.03,-0.188 0.09,-0.578 0.102,-1.005v-0.012c1.04348,0.35451 2.19722,0.11226 3.01,-0.632l0.023,-0.012c0.55344,0.8411 1.48632,1.35487 2.493,1.373c-0.909,0.583 -2.356,1.177 -3.692,0.289M216.43201,204.031l-0.137,-2.875l1.29,-6.475c0,0 2.89,1.87 8.082,-0.287c0,0 -0.97,0.464 -2.183,1.232c-0.036,-0.008 -0.064,-0.035 -0.106,-0.035c-0.283,-0.004 -0.452,0.198 -0.568,0.48c-1.698,1.163 -3.607,2.823 -4.065,4.649c-0.332,1.327 -0.407,2.308 -0.377,3.02c-0.957,0.02 -1.936,0.291 -1.936,0.291M239.64001,188.542c0.45883,-0.31869 0.82217,-0.75636 1.051,-1.266c0.427,0.23 0.912,0.356 1.418,0.356c0.248,0 0.486,-0.037 0.718,-0.092c-0.415,0.535 -1.35,1.285 -3.187,1.002M221.63401,182.337c-0.68728,-0.41131 -1.51298,-0.52333 -2.285,-0.31c-0.1,-1.244 -0.309,-2.295 -0.309,-2.295l0.023,-0.092c0.75177,0.15152 1.51615,0.23187 2.283,0.24c0.484,0 1.259,-0.183 2.216,-0.229c-1.11956,0.43235 -1.87656,1.48696 -1.928,2.686M221.84301,218.842c0.021,-0.112 0.081,-0.48 0.105,-0.9c3.844,1.272 9.747,2.824 15.768,3.175c0.048,0.503 0.21,0.934 0.634,0.946c0.405,0.009 0.595,-0.395 0.685,-0.89c4.19,0.117 8.366,-0.398 11.865,-2.054c9.674,-4.582 10.625,-10.376 7.788,-17.13c0.757,0.083 2.022,0.11 2.04,-0.626c0.012,-0.931 -2.146,-0.759 -2.618,-0.701c0.046,-0.323 0.415,-2.53 -0.555,-2.553c-0.273,-0.003 -0.445,0.189 -0.558,0.46c-0.109,-0.193 -0.217,-0.387 -0.329,-0.58c-0.933,-1.046 -3.01,-2.82 -5.973,-3.396c0.02399,-0.11902 0.04202,-0.23917 0.054,-0.36c2.18,-0.277 5.422,-1.044 7.574,-3.155c-0.492,1.043 -1.655,1.73 -1.655,1.73l0.012,0.011c0.207,0.298 3.505,5.186 5.466,10.062c0.785,1.944 1.777,3.933 2.48,5.796c-0.092,0.621 -0.022,1.345 0,1.61c-0.311,-0.059 -2.536,-0.425 -2.549,0.54c-0.023,0.932 2.135,0.77 2.618,0.713c-0.057,0.31 -0.426,2.53 0.554,2.542l0.058,0.023c-0.243,0.701 -0.703,1.322 -1.43,1.85c-1.084,0.782 -2.85,1.795 -5.122,2.84l-0.011,-0.01c-0.67,-0.206 -1.695,-0.115 -2.007,-0.092c0.057,-0.31 0.426,-2.518 -0.554,-2.542c-0.934,-0.023 -0.762,2.128 -0.716,2.611c-0.31,-0.058 -2.525,-0.425 -2.548,0.552c-0.023,0.932 2.133,0.76 2.618,0.714l0.034,0.102c-4.036,1.565 -9.043,3.002 -14.396,3.657c-1.94029,0.23876 -3.89309,0.36165 -5.848,0.368c-1.164,0 -2.319,-0.057 -3.449,-0.15c-3.61,-0.332 -7.047,-1.115 -10.024,-2.034c0.162,-0.667 0.081,-1.576 0.059,-1.875c0.311,0.058 2.526,0.425 2.549,-0.54c0.021,-0.932 -2.135,-0.77 -2.62,-0.714M210.41201,212.357c0.45,0.586 1.176,0.977 2.283,1.011c5.041,0.139 4.037,-3.588 4.465,-4.737c0.3,-0.81 1.748,-1.552 2.53,-2.523c0.328,0.506 0.466,1.274 -0.224,2.373c-1.442,2.3 -4.181,6.613 -1.586,7.906c0.448,0.223 1.387,0.615 2.68,1.078c-0.03937,0.48174 -0.03502,0.96605 0.013,1.447c-0.312,-0.059 -2.526,-0.425 -2.55,0.54c-0.02,0.932 2.135,0.77 2.619,0.713c-0.033,0.16 -0.126,0.793 -0.103,1.391c-1.13891,-0.37989 -2.26609,-0.79408 -3.38,-1.242c-3.644,-1.46 -5.918,-2.783 -5.918,-2.783c0,0 -4.221,-1.128 -0.83,-5.174M243.66501,187.198c0.509,-0.306 0.925,-0.75 1.18,-1.29c0.39,0.195 0.84,0.298 1.302,0.298c1.14823,-0.00436 2.19528,-0.6576 2.704,-1.687c-0.15,0.775 -1.014,3.654 -5.186,2.68M254.08901,183.348c-0.815,0.876 -2.41,1.862 -5.158,0.998c0.138,-0.326 0.225,-0.678 0.239,-1.05c0.15,0.024 0.288,0.036 0.438,0.036c1.66812,-0.00495 3.01871,-1.35688 3.022,-3.025c0,-0.759 -0.277,-1.46 -0.75,-1.99v-0.044c0.52,-0.024 1.097,-0.047 1.719,-0.092c0.011,-0.013 0.023,0 0.036,0c0.171,0.021 0.483,0.092 0.934,0.228c-0.19,0.656 -0.66,2.587 -0.48,4.94M248.44901,194.394c0,0 0.345,0.004 0.898,-0.028c0.001,0.023 0.005,0.043 0.005,0.064c-0.298,-0.017 -0.589,-0.047 -0.903,-0.036" fill="#e18000" stroke="none" stroke-width="1"/><path d="M255.57201,220.13c0.127,-0.047 0.242,-0.092 0.357,-0.138c-0.038,0.486 -0.142,1.53 -0.398,2.865c-0.714,-0.421 -1.96,-0.717 -3.861,0.287c-3.23,1.704 -8.132,10.69 0.814,10.915c-0.037,0.334 -0.374,0.59 -1.296,0.446c-1.73,-0.298 -4.613,-1.3 -4.613,-1.3c0,0 -4.28,-6.198 -5.4,-9.418c5.354,-0.655 10.36,-2.092 14.397,-3.657M224.36801,224.294c-2.176,-1.627 -4.846,-1.473 -6.753,-1.032c-0.21399,-0.97207 -0.3663,-1.9567 -0.456,-2.948c1.016,0.415 2.158,0.829 3.38,1.242c0.426,0.139 0.865,0.277 1.314,0.415c2.977,0.92 6.413,1.702 10.024,2.034l-0.01,0.093c-1.016,3.162 -5.284,9.107 -5.284,9.107c0,0 -2.883,1.001 -4.614,1.3c-0.94,0.148 -1.27,-0.122 -1.297,-0.466c6.598,-0.407 7.475,-6.919 3.696,-9.745" data-paper-data="{&quot;origPos&quot;:null}" fill="#815f32" stroke="none" stroke-width="1"/><path d="M246.57501,233.206c0,0 1.162,0.402 2.452,0.773c0.51,1.277 1.847,3.923 4.18,3.923c1.396,0 2.091,-0.655 2.078,-1.506c0.279,0.478 0.419,0.945 0.298,1.34c-0.506,1.645 -4.751,1.152 -5.905,0.426c-1.155,-0.712 -1.374,-1.15 -1.374,-1.15l-0.506,1.082c0,0 -0.647,0.287 -1.512,-0.068c0,0 -1.083,-3.89 0.289,-4.82" fill="#e18000" stroke="none" stroke-width="1"/><path d="M217.93001,236.3c-0.219,0.563 -0.108,1.078 0.67,1.41c2.05,0.874 4.203,-2.125 5.119,-3.615c1.444,-0.398 2.864,-0.89 2.864,-0.89c1.361,0.93 0.288,4.82 0.288,4.82c-0.864,0.355 -1.522,0.068 -1.522,0.068l-0.496,-1.08c0,0 -0.218,0.437 -1.372,1.149c-1.154,0.726 -5.41,1.22 -5.919,-0.425c-0.124,-0.424 0.047,-0.924 0.368,-1.437" fill="#e18000" stroke="none" stroke-width="1"/></g></g></svg>