<svg xmlns="http://www.w3.org/2000/svg" width="120" height="120"><g fill="none"><path fill="#F1CD73" d="m109.814 24.96-7.462-7.461-7.463-7.462c-.823-.824-2.218-.278-2.241.893C92.312 19.503 85 29.41 85 29.41L15.948 98.462c-.871.87-.345 2.392.876 2.518l5.134.556a3.533 3.533 0 0 0 2.914-1.018l65.593-65.593.025.025s9.908-7.362 18.48-7.648c1.121-.123 1.667-1.518.844-2.341z"/><path fill="#90A0C0" d="m82.906 29.258 1.073 1.073-1.07 1.07-1.073-1.073z"/><path fill="#E69724" d="m83.403 27.813-.1-.1a.67.67 0 0 0-.947-.001l-2.066 2.065a.67.67 0 0 0 .002.947l.1.1a.67.67 0 0 0 .947.001l2.065-2.065a.693.693 0 0 0-.001-.947z"/><path fill="#90A0C0" d="m79.025 33.14 1.073 1.073-1.07 1.07-1.073-1.074z"/><path fill="#E69724" d="m79.52 31.695-.1-.1a.67.67 0 0 0-.946-.002l-2.065 2.066a.67.67 0 0 0 .001.947l.1.1a.67.67 0 0 0 .947 0l2.065-2.064a.693.693 0 0 0-.001-.947z"/><path fill="#90A0C0" d="m75.143 37.021 1.073 1.074-1.07 1.07-1.073-1.074z"/><path fill="#E69724" d="m75.639 35.576-.1-.1a.67.67 0 0 0-.947 0l-2.065 2.064a.67.67 0 0 0 .001.947l.1.1a.67.67 0 0 0 .947.002l2.065-2.066a.67.67 0 0 0-.001-.947z"/><path fill="#90A0C0" d="m71.26 40.903 1.074 1.074-1.07 1.07-1.073-1.074z"/><path fill="#E69724" d="m71.782 39.433-.1-.1a.67.67 0 0 0-.947 0l-2.065 2.064a.67.67 0 0 0 .001.947l.1.1a.67.67 0 0 0 .947.002l2.065-2.066a.693.693 0 0 0-.001-.947z"/><path fill="#90A0C0" d="m52.822 59.342 1.074 1.073-1.07 1.07-1.074-1.073z"/><path fill="#E69724" d="m53.318 57.897-.1-.1a.67.67 0 0 0-.946-.001l-2.066 2.065a.67.67 0 0 0 .002.947l.1.1a.67.67 0 0 0 .946.001l2.066-2.065a.67.67 0 0 0-.002-.947z"/><path fill="#90A0C0" d="m48.99 63.173 1.074 1.074-1.07 1.07-1.074-1.074z"/><path fill="#E69724" d="m49.486 61.729-.1-.1a.67.67 0 0 0-.947-.001l-2.065 2.065a.67.67 0 0 0 .002.947l.1.1a.67.67 0 0 0 .946.001l2.066-2.065a.693.693 0 0 0-.002-.947z"/><path fill="#90A0C0" d="m45.133 67.03 1.073 1.074-1.07 1.07-1.073-1.073z"/><path fill="#E69724" d="m45.654 65.561-.1-.1a.67.67 0 0 0-.947-.001l-2.065 2.065a.67.67 0 0 0 .001.947l.1.1a.67.67 0 0 0 .947.001l2.066-2.065a.693.693 0 0 0-.002-.947z"/><path fill="#90A0C0" d="m41.301 70.863 1.074 1.073-1.07 1.07-1.074-1.074z"/><path fill="#E69724" d="m41.797 69.418-.1-.1a.67.67 0 0 0-.947-.001l-2.065 2.065a.67.67 0 0 0 .002.947l.1.1a.67.67 0 0 0 .946.001l2.066-2.065a.693.693 0 0 0-.002-.947z"/><path fill="#90A0C0" d="m37.469 74.695 1.073 1.073-1.07 1.07-1.073-1.073z"/><path fill="#E69724" d="m37.965 73.25-.1-.1a.67.67 0 0 0-.947-.001l-2.065 2.065a.67.67 0 0 0 .001.947l.1.1a.67.67 0 0 0 .947.001l2.066-2.065a.693.693 0 0 0-.002-.947z"/><path fill="#90A0C0" d="m33.612 78.552 1.074 1.073-1.07 1.07-1.074-1.073z"/><path fill="#E69724" d="m34.108 77.107-.1-.1a.67.67 0 0 0-.947-.001l-2.065 2.065a.67.67 0 0 0 .002.947l.1.1a.67.67 0 0 0 .946.001l2.066-2.065a.67.67 0 0 0-.002-.947z"/><path fill="#1B1F28" d="M15.898 98.462c-.87.87-.345 2.391.876 2.518l5.134.556a3.533 3.533 0 0 0 2.915-1.018l.597-.597-5.49-5.49-4.032 4.03z"/><path fill="#A38F4B" d="m27.611 98.828-6.588-6.589a1.451 1.451 0 0 0-2.044-.003 1.451 1.451 0 0 0 .003 2.044l6.589 6.588a1.451 1.451 0 0 0 2.043.003c.547-.597.546-1.494-.003-2.043zm82.203-73.868-7.462-7.461-7.463-7.462c-.823-.824-2.218-.278-2.241.893a17.232 17.232 0 0 1-.147 1.595l14.85 14.85a17.232 17.232 0 0 1 1.594-.148c1.146-.048 1.692-1.443.869-2.266z"/></g></svg>