<svg xmlns="http://www.w3.org/2000/svg" width="77.539" height="118.621"><g fill-rule="evenodd" stroke-miterlimit="10" data-paper-data="{&quot;isPaintingLayer&quot;:true}" style="mix-blend-mode:normal"><path fill="#fefefe" d="M29.34 35.602a1.2 1.2 0 0 1 1.204-1.196c.668 0 1.214.538 1.214 1.196 0 .656-.546 1.184-1.214 1.184a1.19 1.19 0 0 1-1.203-1.184m21.662-2.1a1.21 1.21 0 0 1-1.216-1.196c0-.655.548-1.183 1.216-1.183a1.19 1.19 0 0 1 1.202 1.183 1.2 1.2 0 0 1-1.202 1.196"/><path fill="#3f3a3a" d="M30.173 33.126c1.695 0 3.073 1.356 3.073 3.026 0 1.668-1.378 3.013-3.073 3.013-1.697 0-3.063-1.345-3.063-3.013 0-1.67 1.366-3.026 3.063-3.026m.37 3.66c.669 0 1.215-.528 1.215-1.184 0-.658-.546-1.196-1.214-1.196a1.2 1.2 0 0 0-1.203 1.196 1.19 1.19 0 0 0 1.203 1.184m19.243-4.48c.007.665.55 1.2 1.216 1.197a1.2 1.2 0 0 0 1.202-1.197 1.19 1.19 0 0 0-1.202-1.183c-.668 0-1.216.527-1.216 1.183m-2.231.55c0-1.67 1.378-3.026 3.075-3.026 1.695 0 3.063 1.357 3.063 3.026 0 1.669-1.368 3.015-3.063 3.015-1.697 0-3.075-1.345-3.075-3.015"/><path fill="#75594c" stroke="#75594c" stroke-width=".5" d="M24.845 47.587c1.466 1.928 2.57 4.78 2.91 8.97v.022c-2.44.237-5.35 0-8.83-1.574a7.52 7.52 0 0 1-1.847-1.292c-2.691-2.52-3.303-6.718-3.348-9.69.317-.086 7.067-1.82 11.115 3.564m30.63-4.47c2.1-3.898 5.47-5.587 5.47-5.587 1.16 3.907 1.413 8.033-.185 10.52-1.575 2.466-3.664 3.52-5.36 3.95a8.98 8.98 0 0 1-1.412.26l-.011-.096c-.514-3.813.286-6.796 1.499-9.047" data-paper-data="{&quot;origPos&quot;:null}"/><path fill="#877359" d="M24.265 111.88c3.216 1.518 7.396 0 7.396 0s3.489 2.886 2.515 5.223c-.983 2.327-6.422 1.917-9.352-.83-2.922-2.745-.56-4.39-.56-4.39M47.14 106.94c3.348.549 6.422-.678 6.422-.678s4.037 2.056 3.764 3.972c-.286 1.928-4.606 1.788-7.112 1.648-2.515-.13-4.332-1.367-3.074-4.942"/><path fill="#628baa" d="M49.13 94.609c3.197-.13 6.073-.676 8.61-1.496-.11.539-1.498 7.732-4.18 13.149 0 0-3.072 1.228-6.42.678l-2.232-6.591-7.11 1.787s-3.491 7.14-6.138 9.746c0 0-4.18 1.517-7.395 0 0 0-9.77-12.825-8.545-25.412.055.097.11.194.175.29 0 0 11.444 11.124 31.53 8.098v-.204a28.89 28.89 0 0 0 1.706-.045"/><path fill="#626c82" d="M47.424 94.653v.205c-20.086 3.025-31.53-8.098-31.53-8.098-.066-.096-.12-.193-.174-.29-.963-1.724.043-3.694.043-3.694C27.95 91.52 38.737 94.609 47.425 94.653z"/><path fill="#ced2a6" d="M51.604 85.393a1.099 1.099 0 0 1 0 2.197 1.113 1.113 0 0 1-1.117-1.1c0-.612.505-1.097 1.117-1.097m2.374-12.632c.61 0 1.116.486 1.116 1.099 0 .603-.505 1.098-1.116 1.098a1.113 1.113 0 0 1-1.117-1.098c0-.613.505-1.1 1.117-1.1M48.114 62.33c.623 0 1.116.483 1.116 1.097 0 .604-.493 1.097-1.116 1.097a1.11 1.11 0 0 1-1.116-1.097c0-.614.503-1.097 1.116-1.097m-3.206-6.322-4.036 5.083-6.564-3.845.01-.063c2.702.259 6.4.139 10.568-1.218zm5.438 1.519-5.438-1.52-.022-.042v-.01c2.386-.764 4.913-1.94 7.505-3.694z"/><path fill="#868d69" d="M63.735 55.189s-1.716 3.725-.47 6.977c-2.845-3.305-6.727-7.29-10.875-9.906 0 0 .635.086 1.598 0a8.81 8.81 0 0 0 1.412-.258c.864.603 4.988 3.316 8.335 3.187"/><path fill="#9ba37a" d="m44.908 56.007 5.437 1.518 2.046-5.265c4.147 2.616 8.03 6.6 10.875 9.906 2.758 3.22 4.518 5.794 4.518 5.794s4.879 7.269 2.089 15.504c-1.137 3.383-5.426 7.464-12.132 9.65-2.538.818-5.415 1.365-8.61 1.495 1.236-.795 8.632-6.06 8.895-16.495.274-11.393-13.118-22.108-13.118-22.108z"/><path fill="#9ba37a" d="M48.114 62.329c-.613 0-1.116.483-1.116 1.097.007.61.505 1.1 1.116 1.097.623 0 1.116-.493 1.116-1.097 0-.614-.493-1.097-1.116-1.097M52.72 86.49a1.1 1.1 0 0 0-1.117-1.1c-.612 0-1.115.486-1.115 1.1.006.61.504 1.101 1.115 1.1.624 0 1.117-.497 1.117-1.1m5.305-8.377c-.262 10.435-7.658 15.699-8.895 16.495-.557.034-1.125.044-1.705.044-8.687-.044-19.474-3.133-31.66-11.877l.24-2.015c1.839 1.326 4.365 2.48 7.845 3.253.699 3.705 6.836 4.125 8.51 1.506 1.674-2.605-.7-5.35-.7-5.35s2.374-.677 1.674-2.336c-.7-1.636-4.605.548-4.605.548-6.27-2.465-3.623-6.578-3.623-6.578l-13.52-1.981-.57-.086c.7-10.435 7.91-14.732 7.91-14.732 3.479 1.574 6.389 1.81 8.829 1.574a17.752 17.752 0 0 0 1.957-.292s1.74.646 4.607.894l-.012.064 6.564 3.845 4.038-5.083s13.39 10.713 13.116 22.107m-4.048-5.352c-.611 0-1.115.486-1.115 1.098.007.61.505 1.099 1.115 1.097.612 0 1.117-.494 1.117-1.097 0-.612-.505-1.098-1.117-1.098"/><path fill="#75594c" d="M16.005 80.762c-6.258-4.478-4.43-10.886-4.43-10.886l.01-.054 13.522 1.982s-2.647 4.112 3.62 6.579c0 0 3.908-2.186 4.606-.55.7 1.66-1.673 2.338-1.673 2.338s2.374 2.744.7 5.35c-1.674 2.618-7.811 2.198-8.51-1.507-3.48-.774-6.007-1.926-7.845-3.252m47.73-25.573c3.775-.141 5.307-2.476 5.022-5.352 0 0-4.463-1.788-3.347-4.124.427-1.24 2.373-.55 2.373-.55s-.415-4.532 4.88-4.532c5.305 0 6.422 6.46 2.658 10.165 0 0 3.764 15.096-7.538 17.164 0 0-1.761-2.574-4.518-5.794-1.246-3.252.47-6.977.47-6.977" data-paper-data="{&quot;origPos&quot;:null}"/><path fill="#ece0ac" d="M51.46 27.18c.93 0 1.303-.365 1.303-1 0-.647-.832-1.013-3.162-.83-2.32.184-3.72 1.099-4.55 2.014-.832.916 0 1.465 1.488.734 1.488-.734 4.922-.917 4.922-.917m-.831 2.649c-1.695 0-3.075 1.357-3.075 3.027 0 1.669 1.38 3.013 3.075 3.013 1.696 0 3.064-1.344 3.064-3.013 0-1.67-1.368-3.027-3.063-3.027m4.266 10.186c-2.888 3.533-6.783.797-7.615-.203-2.134-2.38-5.294-.635-5.294-.635-4.464-2.113-6.236 3.295-9.114 4.295-2.888 1.002-7.252-.28-7.252-.28s.437 2.326 2.023 4.222l-2.8.172c-4.05-5.384-10.798-3.65-11.115-3.564-.044-2.025.176-3.48.176-3.48-5.208-1.28-5.766-5.857-4.465-8.054 1.302-2.195 5.393-1.28 5.393-1.28l.93 3.294c2.232 4.944 3.533-.55 3.533-.55l1.303-6.04c6.88-1.28 7.253-7.688 7.253-7.688 8.369 2.013 13.204-3.66 13.204-3.66 3.523 5.49 12.45 4.942 12.45 4.942 1.674 2.379 2.23 6.773 2.23 6.773.52.455.992.96 1.412 1.508 1.523 1.948 2.922 4.782 3.798 7.743 0 0-3.37 1.688-5.471 5.587l-1.597-.484c.69-1.294.985-2.455 1.018-2.618m-22.58-9.648c1.64.237 2.264-.548 1.17-1.15-1.083-.615-2.703-1.046-4.967-.498-2.264.539-2.942 1.154-2.735 1.757.208.613.679.838 1.554.56 0 0 3.326-.905 4.978-.668m-2.145 2.757c-1.695 0-3.062 1.356-3.062 3.026 0 1.668 1.367 3.013 3.062 3.013 1.695 0 3.075-1.345 3.075-3.013 0-1.67-1.38-3.026-3.075-3.026"/><path fill="#75594c" stroke="#75594c" stroke-width=".5" d="M33.247 49.783c6.323-.365 8.642-6.126 8.642-6.126 6.958 5.427 10.448 1.873 11.99-1.023.69-1.294.985-2.455 1.018-2.618-2.89 3.533-6.783.797-7.614-.203-2.134-2.38-5.295-.635-5.295-.635-4.465-2.113-6.237 3.295-9.114 4.295-2.887 1.002-7.253-.28-7.253-.28s.439 2.326 2.024 4.222c1.16 1.377 2.933 2.518 5.602 2.368M50.63 29.83c-1.696 0-3.075 1.357-3.075 3.027 0 1.669 1.379 3.013 3.075 3.013 1.695 0 3.063-1.344 3.063-3.013 0-1.67-1.368-3.027-3.063-3.027m-1.03-4.48c-2.318.183-3.72 1.099-4.55 2.014-.832.916 0 1.465 1.488.734 1.488-.734 4.922-.917 4.922-.917.93 0 1.303-.366 1.303-1.001 0-.647-.832-1.013-3.163-.83M27.109 36.153c0 1.668 1.368 3.013 3.064 3.013 1.695 0 3.074-1.345 3.074-3.013 0-1.67-1.38-3.026-3.074-3.026-1.696 0-3.064 1.356-3.064 3.026m6.378-6.934c-1.082-.615-2.703-1.046-4.966-.498-2.265.54-2.943 1.154-2.737 1.756.209.614.68.84 1.554.56 0 0 3.326-.904 4.979-.667 1.64.236 2.264-.55 1.17-1.151m-24.045 3.27c1.302-2.195 5.393-1.28 5.393-1.28l.929 3.294c2.23 4.945 3.534-.548 3.534-.548l1.303-6.04c6.88-1.281 7.252-7.69 7.252-7.69 8.369 2.014 13.205-3.66 13.205-3.66 3.522 5.492 12.45 4.943 12.45 4.943 1.673 2.38 2.23 6.773 2.23 6.773.47.41.953.916 1.412 1.508 1.52 1.948 2.922 4.782 3.797 7.743 0 0-3.37 1.688-5.47 5.587-1.214 2.25-2.014 5.233-1.5 9.045l.012.097c-.963.086-1.598 0-1.598 0-2.592 1.755-5.12 2.929-7.505 3.693v.01c-4.168 1.358-7.865 1.478-10.568 1.218-2.865-.248-4.606-.894-4.606-.894-.611.129-1.268.227-1.957.292v-.022c-.34-4.19-1.444-7.042-2.91-8.97-4.048-5.384-10.798-3.65-11.115-3.564-.044-2.025.175-3.48.175-3.48-5.207-1.28-5.766-5.857-4.463-8.054" data-paper-data="{&quot;origPos&quot;:null}"/><path fill="#46340f" d="M53.879 42.634c-1.543 2.896-5.032 6.449-11.99 1.022 0 0-2.32 5.76-8.642 6.126-2.671.15-4.442-.99-5.601-2.367-1.587-1.896-2.025-4.222-2.025-4.222s4.366 1.28 7.253.28c2.878-1 4.65-6.407 9.114-4.295 0 0 3.16-1.745 5.294.635.833 1 4.727 3.737 7.615.204-.033.162-.328 1.324-1.018 2.617m-7.34-14.536c-1.488.73-2.32.182-1.488-.734.83-.914 2.23-1.832 4.55-2.014 2.33-.182 3.162.182 3.162.83 0 .634-.372 1-1.302 1 0 0-3.434.184-4.922.918m-19.2 2.939c-.875.279-1.346.052-1.554-.56-.207-.604.47-1.217 2.735-1.756 2.264-.55 3.884-.118 4.967.496 1.094.602.47 1.387-1.171 1.152-1.651-.236-4.977.669-4.977.669" data-paper-data="{&quot;origPos&quot;:null}"/><path fill="#46340f" d="M13.466 44.023c.045 2.97.657 7.17 3.347 9.69l-.01.012c-9.113-1.831-8.926-8.97-8.926-8.97C.251 41.092 3.6 32.857 3.6 32.857s-5.393-4.394-2.976-12.45c2.461-8.193 9.486-9.152 9.486-9.152s.93-6.955 9.67-9.884c9.79-3.285 15.435.366 15.435.366 13.193-2.745 15.983 7.505 15.983 7.505s5.208 1.282 7.068 6.772c2.351 8.26-.755 12.935-1.379 13.774a10.632 10.632 0 0 0-1.412-1.508s-.557-4.394-2.23-6.773c0 0-8.928.548-12.45-4.942 0 0-4.835 5.673-13.205 3.66 0 0-.37 6.408-7.252 7.688l-1.303 6.04s-1.303 5.494-3.534.55l-.929-3.294s-4.09-.915-5.393 1.28c-1.3 2.197-.744 6.774 4.463 8.055 0 0-.219 1.453-.175 3.478" data-paper-data="{&quot;origPos&quot;:null}"/><path fill="#5c463c" d="M68.79 62.618c5.333 0 5.88-8.478 5.197-11.304 0 0 3.295-5.651 2.478-8.962 1.708 2.175 1.403 5.937-1.144 8.443 0 0 3.763 15.097-7.537 17.165 0 0-1.761-2.574-4.518-5.795-.985-2.567-.123-5.422.284-6.514.262 2.37 1.28 6.967 5.24 6.967m-57.215 7.258.01-.054 13.522 1.983s-.592.933-.545 2.177c-1.436-.793-3.49-1.472-5.957-.998-4.924.942-1.506 8.478 5.879 9.42 0 0 3.585 4.916 8.4.354.157.847.087 1.813-.523 2.764-1.675 2.618-7.811 2.198-8.51-1.508-3.48-.774-6.007-1.926-7.846-3.252-6.257-4.48-4.43-10.886-4.43-10.886" data-paper-data="{&quot;origPos&quot;:null}"/><path fill="#36280c" d="M56.157 12.11a10.341 10.341 0 0 1 2.37 3.904c2.354 8.26-.753 12.935-1.377 13.774-.46-.593-.94-1.098-1.411-1.507 0 0-.56-4.395-2.232-6.774 0 0-8.927.548-12.45-4.942 17.75 6.055 17.056-.22 15.1-4.455M.887 20.408c2.462-8.193 9.484-9.152 9.484-9.152-5.087 7.86-.793 14.75 7.55 13.945 8.34-.81 9.435-7.268 9.435-7.268 6.29 1.614 13.7-1.37 13.7-1.37s-4.834 5.675-13.203 3.662c0 0-.372 6.407-7.253 7.687l-1.303 6.042s-1.301 5.492-3.533.549l-.93-3.294s-4.091-.916-5.392 1.28c-1.302 2.197-.744 6.773 4.464 8.055 0 0-.22 1.453-.176 3.48.044 2.97.657 7.17 3.348 9.69l-.011.01c-9.114-1.83-8.927-8.97-8.927-8.97-7.626-3.661-4.278-11.897-4.278-11.897s-5.393-4.393-2.975-12.45" data-paper-data="{&quot;origPos&quot;:null}"/><path fill="#6d5017" d="M33.509 9.316c8.24 1.55 14.026-.724 16.91-2.356.77 1.288 1.042 2.282 1.042 2.282s2.346.585 4.45 2.624c-11.704 5.733-22.402-2.55-22.402-2.55M26.398 8.24c-6.29 4.576-13.472 4.434-16.118 3.03l.09-.015s.365-2.713 2.768-5.464c2.184 4.873 13.26 2.45 13.26 2.45" data-paper-data="{&quot;origPos&quot;:null}"/><path fill="#36280c" d="M40.483 42.698c.685-1.75 2.326-.672 2.326-.672 7.807 4.61 10.937.564 11.987-1.631-.23.775-.536 1.526-.916 2.24-1.543 2.895-5.034 6.449-11.99 1.022 0 0-2.32 5.76-8.643 6.126-2.67.15-4.442-.99-5.602-2.367-1.586-1.897-2.023-4.223-2.023-4.223 5.376 6.553 14.177 1.255 14.86-.495" data-paper-data="{&quot;origPos&quot;:null}"/><path fill="#868d69" d="M31.66 80.17s.123-.037.3-.108c.066.274.134.55.205.833-.27-.452-.505-.725-.505-.725m-7.81 3.844c.7 3.706 6.836 4.126 8.51 1.508.35-.538.552-1.16.586-1.8 1.39 4.484 3.746 9.102 8.905 10.393.28.069.558.143.836.217-7.76-.98-16.862-4.337-26.922-11.556l.24-2.014c1.839 1.326 4.366 2.478 7.845 3.252m-4.923-29.01c3.478 1.574 6.388 1.81 8.828 1.574.657-.06 1.31-.157 1.957-.29 0 0 1.74.645 4.606.894l-.01.062 6.563 3.845 3.029-3.812-3.28 5.88s-8.34-4.98-10.94-5.25c-2.6-.27-12.855-.807-17.366 7.268 0 0-2.052 3.77 13.264 6.193 0 0 1.64-8.75 3.145-8.345 1.504.403.684 8.345 2.188 12.92.135.413.265.893.396 1.404-1.248.295-2.58 1.035-2.58 1.035-6.267-2.465-3.62-6.577-3.62-6.577l-13.522-1.983-.57-.085c.7-10.434 7.91-14.732 7.91-14.732m25.983 1 5.437 1.52 2.036-4.866-.957 5.787-2.6-.27S61.954 65.04 60.313 80.52c-1.371 12.93 6.797 9.138 10.083.949a15.67 15.67 0 0 1-.522 1.996c-1.137 3.382-5.426 7.463-12.131 9.649-2.54.818-5.416 1.365-8.61 1.495 1.235-.796 8.63-6.06 8.894-16.495.274-11.393-13.118-22.107-13.118-22.107"/><path fill="#547893" d="M15.72 86.47c.056.098.109.194.176.29 0 0 1.118 1.087 3.268 2.488-.004.009-.01.014-.014.02-4.24 7.943 5.608 22.75 5.608 22.75 8.203-.406 12.17-9.56 11.214-9.56-.958 0-2.6.137-.685-1.074 1.914-1.212.41-2.693-1.64-2.693-2.052 0 .409-1.077 3.554-1.48 2.207-.284-2.254-1.63-5.678-2.824 4.442.996 9.767 1.395 15.9.472v-.206c.58 0 1.15-.01 1.709-.044 3.194-.13 6.07-.677 8.61-1.495-.11.539-1.5 7.73-4.18 13.148 0 0-3.074 1.227-6.422.679l-2.231-6.592-7.112 1.787s-3.49 7.14-6.136 9.746c0 0-4.18 1.518-7.396 0 0 0-9.77-12.826-8.544-25.412"/><path fill="#6c5c46" d="M47.14 106.94c.653.107 1.294.145 1.904.14-.131 1.51.16 3.967 3.61 3.59 2.522-.275 4.11-.852 4.34-1.643.249.394.389.803.33 1.207-.284 1.928-4.604 1.788-7.11 1.648-2.515-.13-4.332-1.367-3.074-4.942M24.265 111.883c.605.279 1.247.47 1.907.566.352 1.02 1.346 2.883 4.056 3.74 3.829 1.213 5.328-.673 1.433-4.306 0 0 3.49 2.885 2.515 5.22-.983 2.329-6.421 1.919-9.352-.828-2.922-2.745-.56-4.392-.56-4.392"/></g></svg>