<svg version="1.1" xmlns="http://www.w3.org/2000/svg" xmlns:xlink="http://www.w3.org/1999/xlink" width="53.02147" height="108.00035" viewBox="0,0,53.02147,108.00035"><g transform="translate(-213.48,-125.99965)"><g data-paper-data="{&quot;isPaintingLayer&quot;:true}" fill-rule="evenodd" stroke-miterlimit="10" stroke-dasharray="" stroke-dashoffset="0" style="mix-blend-mode: normal"><path d="M265.338,161.152c0.58348,1.12515 0.95595,2.34765 1.099,3.607c0.961,8.601 -8.931,18.984 -22.396,20.488l-3.904,0.436c-13.464,1.503 -25.404,-6.44 -26.364,-15.042c-0.143,-1.269 1.009,-8.688 0.727,-11.181l-0.005,-0.045l-0.472,-4.216c-1.623,-14.543 7.975,-27.551 21.44,-29.057c13.465,-1.503 25.697,9.067 27.322,23.61l0.471,4.216l0.005,0.045c0.274,2.493 0.943,4.929 2.077,7.137" fill="#000000" stroke="none" stroke-width="1" stroke-linecap="butt" stroke-linejoin="miter"/><path d="M261.784,234h-48.304v-32.977c0,-13.563 10.489,-24.559 23.428,-24.559h0.606c13.457,0 24.27,11.335 24.27,25.318z" fill="#fcb212" stroke="none" stroke-width="1" stroke-linecap="butt" stroke-linejoin="miter"/><path d="M233.401,183.351h8.307v11.815l-4.076,4.459l-4.232,-4.459z" fill="#ffffff" stroke="none" stroke-width="1" stroke-linecap="butt" stroke-linejoin="miter"/><path d="M244.245,188.314c0.394,2.98 -0.107,6.385 -1.083,7.368l-5.53,4.28l5.509,-21.258z" fill="#fcb212" stroke="none" stroke-width="1" stroke-linecap="butt" stroke-linejoin="miter"/><path d="M232.123,178.704l5.51,21.258l-5.53,-4.28c-0.977,-0.983 -1.478,-4.388 -1.083,-7.368z" fill="#fcb212" stroke="none" stroke-width="1" stroke-linecap="butt" stroke-linejoin="miter"/><path d="M237.632,186.327c-4.1946,0 -7.595,-3.4004 -7.595,-7.595c0,-4.1946 3.4004,-7.595 7.595,-7.595c4.1946,0 7.595,3.4004 7.595,7.595c0,4.194 -3.4,7.595 -7.595,7.595" fill="#ffffff" stroke="none" stroke-width="1" stroke-linecap="butt" stroke-linejoin="miter"/><path d="M237.621,182.781c-2.71032,-0.0023 -4.93832,-2.13819 -5.055,-4.846l-0.391,-9.115c-0.05773,-1.34178 0.42002,-2.65151 1.32811,-3.64099c0.90809,-0.98948 2.1721,-1.57762 3.51389,-1.63501c2.794,-0.129 5.156,2.048 5.276,4.842l0.391,9.115c0.0592,1.37998 -0.44797,2.72424 -1.40396,3.7212c-0.95599,0.99696 -2.27779,1.56007 -3.65904,1.5588" data-paper-data="{&quot;origPos&quot;:null}" fill="#ffdf8d" stroke="none" stroke-width="1" stroke-linecap="butt" stroke-linejoin="miter"/><path d="M244.245,179.486c0.18848,0.45244 0.17858,0.96319 -0.02728,1.40799c-0.20586,0.4448 -0.58883,0.78289 -1.05572,0.93201l-5.53,1.36l5.509,-6.752z" fill="#ffffff" stroke="none" stroke-width="1" stroke-linecap="butt" stroke-linejoin="miter"/><path d="M232.123,176.434l5.51,6.752l-5.53,-1.36c-0.4669,-0.14912 -0.84986,-0.48721 -1.05572,-0.93201c-0.20586,-0.4448 -0.21576,-0.95555 -0.02728,-1.40799z" fill="#ffffff" stroke="none" stroke-width="1" stroke-linecap="butt" stroke-linejoin="miter"/><path d="M236.272,131.282c10.554,0 19.11,9.068 19.11,20.253v3.243c0,11.186 -8.556,20.254 -19.11,20.254c-10.554,0 -19.11,-9.068 -19.11,-20.254v-3.243c0,-11.185 8.556,-20.253 19.11,-20.253" data-paper-data="{&quot;origPos&quot;:null}" fill="#ffdf8d" stroke="none" stroke-width="1" stroke-linecap="butt" stroke-linejoin="miter"/><path d="M227.346,151.69c0,1.61 -1.156,2.914 -2.582,2.914c-1.426,0 -2.584,-1.304 -2.584,-2.914c0,-1.609 1.157,-2.913 2.583,-2.913c1.426,0 2.582,1.304 2.582,2.913M244.62,151.69c0,1.61 -1.156,2.914 -2.582,2.914c-1.427,0 -2.583,-1.304 -2.583,-2.913c0,-1.609 1.156,-2.913 2.583,-2.913c1.426,0 2.582,1.304 2.582,2.913" fill="#000000" stroke="none" stroke-width="1" stroke-linecap="butt" stroke-linejoin="miter"/><path d="M226.795,160.091c0,2.23703 -1.81347,4.0505 -4.0505,4.0505c-2.23703,0 -4.0505,-1.81347 -4.0505,-4.0505c0,-2.23703 1.81347,-4.0505 4.0505,-4.0505c2.23703,0 4.0505,1.81347 4.0505,4.0505M248.122,160.091c0,2.23703 -1.81347,4.0505 -4.0505,4.0505c-2.23703,0 -4.0505,-1.81347 -4.0505,-4.0505c0,-2.23703 1.81347,-4.0505 4.0505,-4.0505c2.23703,0 4.0505,1.81347 4.0505,4.0505" fill="#fe937a" stroke="none" stroke-width="1" stroke-linecap="butt" stroke-linejoin="miter"/><path d="M236.786,161.009c0.467,0 0.846,0.453 0.846,1.013c0,2.792 -1.898,5.064 -4.231,5.064c-2.334,0 -4.232,-2.272 -4.232,-5.064c0,-0.559 0.379,-1.012 0.847,-1.012h6.77" fill="#40220f" stroke="none" stroke-width="1" stroke-linecap="butt" stroke-linejoin="miter"/><path d="M253.153,133.01c5.008,4.462 8.164,10.96 8.164,18.196v1.27h-8.164v-19.466" fill="#000000" stroke="none" stroke-width="1" stroke-linecap="butt" stroke-linejoin="miter"/><path d="M260.619,155.44c0,3.07623 -2.49377,5.57 -5.57,5.57h-1.093c-3.07623,0 -5.57,-2.49377 -5.57,-5.57c0,-3.07623 2.49377,-5.57 5.57,-5.57h1.093c3.07623,0 5.57,2.49377 5.57,5.57" data-paper-data="{&quot;origPos&quot;:null}" fill="#ffdf8d" stroke="none" stroke-width="1" stroke-linecap="butt" stroke-linejoin="miter"/><path d="M258.52,155.44c-0.00055,1.51082 -1.22518,2.73545 -2.736,2.736h-0.536c-1.49094,-0.0285 -2.68469,-1.24529 -2.68469,-2.7365c0,-1.49121 1.19375,-2.708 2.68469,-2.7365h0.536c1.51121,0 2.73645,1.22479 2.737,2.736" fill="#fe937a" stroke="none" stroke-width="1" stroke-linecap="butt" stroke-linejoin="miter"/><path d="M233.4,158.246l-1.47,-1.364c-0.55669,-0.51619 -0.70142,-1.33998 -0.354,-2.015l1.124,-2.183c0.366,-0.71 0.528,-1.508 0.468,-2.305l-0.03,-0.408" fill="none" stroke="#fe937a" stroke-width="1.758" stroke-linecap="round" stroke-linejoin="round"/><path d="M215.469,146.467c2.132,-9.645 9.465,-17.164 18.941,-18.254c4.219,-0.485 8.313,0.367 11.935,2.247c-1.629,7.467 -7.292,13.294 -14.62,14.137z" fill="#000000" stroke="none" stroke-width="1" stroke-linecap="butt" stroke-linejoin="miter"/><path d="M242.75,126.73c4.73812,1.33588 8.99127,4.00803 12.251,7.697c0.873,1.943 1.353,4.047 1.353,6.246c0,3.367 -1.119,6.515 -3.063,9.197c-6.159,-1.959 -10.539,-6.948 -10.539,-12.796v-10.344" fill="#000000" stroke="none" stroke-width="1" stroke-linecap="butt" stroke-linejoin="miter"/><path d="M233.401,167.086c-0.824,0 -1.593,-0.284 -2.244,-0.773c0.18378,-1.39314 1.07674,-2.59138 2.3592,-3.16575c1.28246,-0.57438 2.77103,-0.44275 3.9328,0.34775c-0.529,2.076 -2.143,3.591 -4.049,3.591" fill="#ff6d02" stroke="none" stroke-width="1" stroke-linecap="butt" stroke-linejoin="miter"/></g></g></svg>