<svg xmlns="http://www.w3.org/2000/svg" xmlns:xlink="http://www.w3.org/1999/xlink" width="120" height="120"><defs><path id="a" d="M0 .998h120v31.103H0z"/><path id="c" d="M.128.998h46.339v31.103H.127z"/><path id="e" d="M0 .998h36.127v31.103H0z"/><path id="g" d="M.467.998H38v31.103H.467z"/></defs><g fill="none" fill-rule="evenodd"><path fill="#FF3A04" d="M120 37.103c-.119 5.362-60.015 76.899-60.015 76.899S23.091 72.25 0 37.102h120z"/><g transform="translate(0 5.002)"><mask id="b" fill="#fff"><use xlink:href="#a"/></mask><path fill="#FF7D33" d="M95.105.997h-70.21L0 32.101h120z" mask="url(#b)"/></g><g transform="translate(36 5.002)"><mask id="d" fill="#fff"><use xlink:href="#c"/></mask><path fill="#FFF" d="M.128 32.1 24 .998 46.467 32.1z" mask="url(#d)" opacity=".3"/></g><path fill="#FFF" d="m36.128 37.103 23.857 76.899 22.482-76.9z" opacity=".3"/><g transform="translate(0 5.002)"><mask id="f" fill="#fff"><use xlink:href="#e"/></mask><path fill="#FFF" d="m24.895.997 11.232 31.104H0z" mask="url(#f)" opacity=".3"/></g><g transform="translate(82 5.002)"><mask id="h" fill="#fff"><use xlink:href="#g"/></mask><path fill="#FFF" d="M13.104.997.467 32.101H38z" mask="url(#h)" opacity=".3"/></g></g></svg>