<svg version="1.1" xmlns="http://www.w3.org/2000/svg" xmlns:xlink="http://www.w3.org/1999/xlink" width="76.7897" height="118.87266" viewBox="0,0,76.7897,118.87266"><g transform="translate(-202,-120.47216)"><g data-paper-data="{&quot;isPaintingLayer&quot;:true}" fill-rule="evenodd" stroke-linecap="butt" stroke-linejoin="miter" stroke-miterlimit="10" stroke-dasharray="" stroke-dashoffset="0" style="mix-blend-mode: normal"><path d="M230.8,137.535c0.384,-2.893 -7.205,2.699 -7.205,2.699c-2.917,1.932 -2.917,8.879 -1.354,9.458c1.554,0.578 3.304,-1.552 3.304,-1.552c0,0 4.868,-7.71 5.254,-10.605M235.667,146.983c0,-1.7 -1.402,-3.08 -3.118,-3.08c-1.716,0 -3.117,1.38 -3.117,3.08c0,1.714 1.401,3.09 3.117,3.09c1.716,0 3.118,-1.376 3.118,-3.09M236.834,126.34c-6.817,-0.198 -11.965,6.367 -11.965,6.367c7.295,-5.789 11.965,-6.367 11.965,-6.367M252.008,139.456c0,-1.7 -1.4,-3.08 -3.115,-3.08c-1.716,0 -3.117,1.38 -3.117,3.08c0,1.714 1.4,3.092 3.117,3.092c1.716,0 3.115,-1.378 3.115,-3.092M251.028,135.022c2.336,1.158 4.484,1.355 3.504,-0.775c-0.97,-2.118 -1.355,-3.276 -3.305,-3.276c0,0 -7.973,-0.961 -8.37,0.961c-0.384,1.933 5.838,1.933 8.171,3.09M261.536,140.812c0.49,0.172 0.944,0.37 1.365,0.59c-0.129,0.244 -1.494,3.137 -1.448,8.3c-0.642,0.08 -1.307,-0.046 -1.856,-0.59c-1.75,-1.736 -4.867,-4.25 -8.569,-2.894c-3.688,1.343 -4.47,4.433 -4.47,4.433c0,0 -4.868,-1.932 -8.557,1.737c-2.475,2.455 -0.257,7.397 -1.063,11.567l-0.08,-0.026c-10.356,-7.268 -23.442,-0.915 -24.645,-0.3c-0.243,-1.343 -0.291,-2.175 -0.291,-2.175c-5.312,0 -7.47,-2.213 -7.926,-4.643c-0.327,-1.736 0.222,-3.59 1.12,-4.806c2.136,-2.893 6.62,-1.354 8.557,-0.195c1.95,1.157 4.087,2.118 5.066,0.195c0.97,-1.933 -0.979,-7.72 -1.166,-10.998c-0.2,-3.286 -3.702,-4.827 -2.92,-7.918c2.92,-7.525 13.425,-9.644 13.425,-9.644c9.643,-2.083 16.203,0.036 20.558,3.115c5.755,4.063 7.646,9.817 7.646,9.817c1.167,1.54 2.533,3.473 5.254,4.434M236.54,128.796c0.095,-0.025 0.187,-0.036 0.293,-0.047c0,0 -0.094,0.011 -0.293,0.047M236.518,128.796c-5.382,0.66 -8.628,4.433 -8.826,4.677c4.973,-3.682 7.903,-4.492 8.826,-4.677M254.858,183.31c0.606,-0.392 1.388,-0.752 2.37,-1.018c1.085,-0.289 2.428,-0.451 4.062,-0.382c0,0 -0.28,2.027 -2.182,3.613c0,0 -0.585,0.58 -1.016,2.465c0,0 -1.903,-3.473 -5.254,-2.465c0,0 0.244,-0.66 1.027,-1.425c0.27,-0.254 0.595,-0.532 0.993,-0.787" data-paper-data="{&quot;origPos&quot;:null}" fill="#795b4c" stroke="none" stroke-width="1"/><path d="M271.213,226.922c0,0 5.556,2.016 5.253,4.051c-0.28,2.016 -7.144,1.436 -9.62,1.008c-2.485,-0.428 -1.75,-3.473 -1.75,-3.473c0,0 3.642,0.15 6.117,-1.586M235.912,234.008c0,0 1.307,1.019 -0.585,3.033c-1.903,2.037 -9.781,3.193 -10.657,1.457c-0.876,-1.734 3.653,-4.78 3.653,-4.78c0,0 3.502,1.448 7.589,0.29" fill="#303830" stroke="none" stroke-width="1"/><path d="M267.57,212.15l6.992,-2.813c-0.874,11.957 -3.35,17.585 -3.35,17.585c-2.474,1.736 -6.117,1.586 -6.117,1.586c-2.777,-1.447 -8.171,-7.953 -8.171,-7.953c-4.53,1.875 -9.34,0.716 -9.34,0.716c-4.236,8.974 -11.672,12.736 -11.672,12.736c-4.086,1.158 -7.588,-0.29 -7.588,-0.29c-3.654,-7.954 -4.67,-21.706 -4.67,-21.706l0.06,-0.116c4.552,2.164 15.77,6.01 35.24,3.878c0,0 3.807,-5.06 4.238,-11.577c0,0 3.07,3.184 4.378,7.954M252.314,184.04c-2.02,0.058 -3.713,0.625 -3.713,0.625c-1.505,0.382 -2.439,1.333 -2.847,2.34l-0.072,-0.026c-8.114,-1.167 -8.37,-5.601 -8.335,-6.506c5.243,-1.816 7.659,-5.892 7.659,-5.892c0,0 0.361,0.025 0.968,0.025v0.07c0,0 3.444,2.418 6.34,9.365" fill="#666642" stroke="none" stroke-width="1"/><path d="M221.273,199.565c-2.23,-1.817 -4.087,-3.82 -5.357,-5.788c-5.99,-9.262 0.676,-19.589 0.676,-19.589l0.14,-0.105c2.067,2.64 5.008,5 9.2,6.288c4.727,1.445 8.51,1.12 11.415,0.102c-0.033,0.904 0.222,5.339 8.335,6.507l0.071,0.025c-0.654,1.63 0.035,3.449 1.832,3.449c2.919,0 5.254,-4.931 5.254,-4.931c3.35,-1.008 5.252,2.465 5.252,2.465c0,0 -0.291,1.042 -0.874,2.617c-0.43772,1.19632 -0.92481,2.37399 -1.46,3.53c-1.085,2.385 -2.557,5.047 -4.39,7.166c-8.382,9.24 -21.83,5.002 -30.094,-1.736" fill="#666642" stroke="none" stroke-width="1"/><path d="M259.399,202.75l-3.21,9.7c0,0 -22.028,0.857 -35.173,-5.209c0,0 -0.7,-4.897 0.257,-7.676c8.265,6.738 21.712,10.976 30.094,1.736c1.833,-2.119 3.305,-4.78 4.39,-7.166l0.14,0.07c0,0 3.058,5.65 3.502,8.544M272.1,183.254c-1.588,3.739 -5.114,6.887 -11.067,7.373c-1.12207,0.0971 -2.25026,0.10112 -3.373,0.012c-0.14861,-0.00094 -0.29698,-0.01231 -0.444,-0.034c0.584,-1.575 0.876,-2.617 0.876,-2.617c0.431,-1.886 1.016,-2.465 1.016,-2.465c1.901,-1.586 2.182,-3.612 2.182,-3.612c-1.634,-0.07 -2.977,0.092 -4.062,0.381l-0.023,-0.091c-0.946,-4.829 -4.274,-7.666 -4.752,-8.059c2.65,-0.428 5.394,-1.272 7.144,-2.849c2.078,-1.886 3.292,-3.76 3.968,-5.186l0.06,0.035c0,0 7.156,1.874 9.058,8.683c0.723,2.581 0.595,5.662 -0.583,8.429" fill="#666642" stroke="none" stroke-width="1"/><path d="M278.158,203.27c-0.01,0 -0.01,0.011 -0.01,0.023l-0.071,0.175c-2.043,1.736 -8.616,3.773 -8.616,3.773c-1.167,-3.196 -4.365,-5.36 -4.365,-5.36c-0.42,-4.296 -3.782,-10.721 -4.064,-11.253c5.954,-0.487 9.48,-3.636 11.068,-7.375c8.884,10.363 6.526,18.663 6.058,20.017" fill="#666642" stroke="none" stroke-width="1"/><path d="M274.563,209.336l-6.992,2.813c-1.309,-4.77 -4.378,-7.954 -4.378,-7.954c0,0 -2.626,-11.287 -5.545,-13.465l0.012,-0.09c1.12276,0.08878 2.25095,0.08444 3.373,-0.013c0.28,0.533 3.644,6.958 4.063,11.254c0,0 3.198,2.164 4.366,5.36c0,0 6.572,-2.037 8.615,-3.774l0.07,-0.175c-0.444,2.501 -1.237,5.107 -1.237,5.107z" fill="#74934f" stroke="none" stroke-width="1"/><path d="M257.648,190.731c2.919,2.178 5.545,13.465 5.545,13.465c-0.433,6.518 -4.237,11.577 -4.237,11.577c-19.472,2.131 -30.69,-1.714 -35.243,-3.877c-1.623,-0.776 -2.393,-1.332 -2.393,-1.332l-0.305,-3.323c13.145,6.067 35.174,5.21 35.174,5.21l3.21,-9.702c-0.443,-2.895 -3.501,-8.543 -3.501,-8.543l-0.14,-0.071c0.53448,-1.15605 1.02089,-2.33373 1.458,-3.53c0.151,0.022 0.304,0.035 0.443,0.035zM257.205,182.2l0.023,0.092c-0.982,0.267 -1.764,0.626 -2.37,1.018c-1.564,-5.626 -4.587,-8.299 -5.253,-8.821c0.95438,-0.06911 1.90484,-0.18458 2.848,-0.346c0.478,0.392 3.806,3.229 4.752,8.057" fill="#74934f" stroke="none" stroke-width="1"/><path d="M254.858,183.31c-0.35476,0.23125 -0.6872,0.49506 -0.993,0.788l-0.011,-0.013c-0.51144,-0.05414 -1.02627,-0.06918 -1.54,-0.045c-2.896,-6.946 -6.34,-9.365 -6.34,-9.365v-0.07c0.829,0.011 2.124,0 3.631,-0.117c0.666,0.522 3.69,3.197 5.253,8.823" fill="#74934f" stroke="none" stroke-width="1"/><path d="M236.519,128.795c-0.923,0.186 -3.853,0.996 -8.825,4.678c0.198,-0.244 3.443,-4.018 8.825,-4.678M224.868,132.708c0,0 5.148,-6.565 11.967,-6.367c0,0 -4.671,0.578 -11.967,6.367" data-paper-data="{&quot;origPos&quot;:null}" fill="#b87e48" stroke="none" stroke-width="1"/><path d="M268.738,150.455c1.552,8.3 -4.285,13.128 -4.285,13.128c-1.599,-3.959 -2.427,-7.432 -2.777,-10.394l-0.036,-0.046c1.214,-0.915 2.207,-2.41 2.628,-4.806c0,0 -1.378,1.192 -2.815,1.365c-0.047,-5.162 1.32,-8.056 1.448,-8.3c3.572,1.784 5.078,4.979 5.837,9.053M237.347,180.473c-2.907,1.019 -6.69,1.343 -11.417,-0.102c-4.19,-1.287 -7.132,-3.648 -9.198,-6.288c-2.895,-3.714 -4.062,-7.953 -4.519,-10.453c1.204,-0.615 14.29,-6.969 24.645,0.3l0.08,0.025c-0.397,2.072 -1.552,3.947 -4.388,5.22c0,0 5.592,0.985 8.79,-0.915c1.342,1.725 2.567,3.81 3.666,6.322c0,0 -2.416,4.075 -7.659,5.891" data-paper-data="{&quot;origPos&quot;:null}" fill="#795b4c" stroke="#795b4c" stroke-width="0.5"/><path d="M232.936,144.863c0.61639,0.03139 1.10005,0.54031 1.10005,1.1575c0,0.61719 -0.48366,1.12611 -1.10005,1.1575c-0.643,0 -1.17,-0.52 -1.17,-1.155c0,-0.637 0.527,-1.16 1.17,-1.16M249.278,137.34c0.654,0 1.168,0.52 1.168,1.157c0,0.636 -0.514,1.157 -1.168,1.157c-0.64086,0.00057 -1.16205,-0.51616 -1.167,-1.157c0,-0.637 0.525,-1.158 1.167,-1.158" fill="#fefefe" stroke="none" stroke-width="1"/><path d="M250.445,138.497c0,-0.637 -0.514,-1.158 -1.167,-1.158c-0.642,0 -1.168,0.521 -1.168,1.158c0,0.637 0.526,1.157 1.168,1.157c0.653,0 1.167,-0.52 1.167,-1.157M248.893,136.377c1.716,0 3.116,1.38 3.116,3.08c0,1.714 -1.4,3.092 -3.116,3.092c-1.716,0 -3.117,-1.378 -3.117,-3.092c0,-1.7 1.4,-3.08 3.117,-3.08M234.102,146.022c0.00001,-0.30887 -0.12317,-0.60498 -0.34223,-0.82273c-0.21906,-0.21774 -0.51591,-0.33914 -0.82477,-0.33727c-0.642,0 -1.167,0.523 -1.167,1.16c0,0.637 0.525,1.158 1.167,1.158c0.653,0 1.167,-0.521 1.167,-1.158M232.55,143.902c1.716,0 3.116,1.38 3.116,3.08c0,1.714 -1.4,3.091 -3.116,3.091c-1.716,0 -3.117,-1.377 -3.117,-3.091c0,-1.7 1.401,-3.08 3.117,-3.08" fill="#3f3a3a" stroke="none" stroke-width="1"/><path d="M241.34,168.26c-3.198,1.9 -8.79,0.915 -8.79,0.915c2.836,-1.273 3.991,-3.148 4.389,-5.22c0.805,-4.17 -1.413,-9.11 1.062,-11.566c3.69,-3.67 8.557,-1.737 8.557,-1.737c0,0 0.782,-3.09 4.47,-4.434c3.702,-1.355 6.819,1.158 8.57,2.894c0.548,0.544 1.213,0.672 1.855,0.59c1.436,-0.173 2.814,-1.364 2.814,-1.364c-0.42,2.395 -1.412,3.89 -2.627,4.805c-2.217,1.677 -5.137,1.422 -6.525,1.18c-2.137,-0.393 -3.502,1.156 -3.69,2.697c-0.197,1.54 -2.73,1.933 -5.252,1.933c-2.534,0 -2.148,2.696 -2.732,6.367c-0.245,1.39 -1.04,2.34 -2.101,2.94M254.531,134.247c0.98,2.13 -1.167,1.934 -3.502,0.776c-2.335,-1.157 -8.556,-1.157 -8.171,-3.09c0.396,-1.922 8.37,-0.961 8.37,-0.961c1.949,0 2.334,1.158 3.303,3.275" fill="#9f9fa0" stroke="none" stroke-width="1"/><path d="M249.605,174.489c-1.20832,0.09308 -2.4202,0.13211 -3.632,0.117c-0.606,0 -0.968,-0.025 -0.968,-0.025c-1.097,-2.51 -2.322,-4.597 -3.665,-6.32c1.062,-0.602 1.856,-1.55 2.1,-2.942c0.585,-3.669 0.2,-6.366 2.733,-6.366c2.521,0 5.054,-0.394 5.252,-1.934c0.187,-1.54 1.554,-3.09 3.69,-2.697c1.39,0.242 4.307,0.499 6.525,-1.18l0.036,0.047c0.35,2.963 1.178,6.436 2.777,10.395c0,0 -0.01,0 0,0.01c-0.023,0.116 -0.198,1.1 -0.887,2.514c-0.676,1.423 -1.89,3.298 -3.97,5.186c-1.75,1.576 -4.493,2.42 -7.144,2.848c-0.94285,0.16151 -1.89296,0.27731 -2.847,0.347" data-paper-data="{&quot;origPos&quot;:null}" fill="#795b4c" stroke="none" stroke-width="1"/><path d="M252.314,184.04c0.51375,-0.02453 1.02863,-0.00915 1.54,0.046l0.01,0.012c-0.78,0.765 -1.026,1.425 -1.026,1.425c0,0 -2.334,4.93 -5.253,4.93c-1.798,0 -2.487,-1.817 -1.831,-3.448c0.408,-1.007 1.342,-1.958 2.847,-2.34c0,0 1.693,-0.567 3.713,-0.624" data-paper-data="{&quot;origPos&quot;:null}" fill="#795b4c" stroke="none" stroke-width="0"/><path d="M216.79,124.986c18.655,-10.755 31.345,1.019 31.881,1.529l-0.035,0.046c-4.354,-3.08 -10.914,-5.198 -20.557,-3.114c0,0 -10.507,2.117 -13.424,9.643c-0.784,3.09 2.719,4.631 2.917,7.919c0.188,3.277 2.138,9.064 1.168,10.998c-0.981,1.923 -3.117,0.961 -5.067,-0.197c-1.937,-1.157 -6.42,-2.697 -8.557,0.197c-0.899,1.216 -1.446,3.069 -1.12,4.805c0.455,2.43 2.615,4.642 7.927,4.642c0,0 0.046,0.833 0.291,2.176c0.455,2.501 1.624,6.738 4.518,10.454l-0.14,0.104c-8.801,-4.48 -12.222,-11.415 -13.588,-17.145c-0.876,-3.636 -0.922,-6.795 -1.004,-8.509c0,-14.286 14.79,-23.548 14.79,-23.548" fill="#9f9fa0" stroke="none" stroke-width="1"/><path d="M223.596,140.233c0,0 7.589,-5.592 7.204,-2.698c-0.387,2.896 -5.254,10.606 -5.254,10.606c0,0 -1.75,2.129 -3.304,1.552c-1.564,-0.58 -1.564,-7.526 1.354,-9.46" fill="#9f9fa0" stroke="none" stroke-width="1"/><path d="M222.123,149.614c0.037,3.705 -0.163,7.651 -0.083,11.076c-5.174,0.659 -9.186,2.613 -9.827,2.94c-0.243,-1.344 -0.29,-2.176 -0.29,-2.176c-5.313,0 -7.472,-2.212 -7.926,-4.642c-0.328,-1.735 0.22,-3.59 1.12,-4.805c2.136,-2.894 6.619,-1.354 8.556,-0.197c1.95,1.158 4.087,2.119 5.067,0.197c0.97,-1.934 -0.98,-7.721 -1.167,-10.999c-0.199,-3.287 -3.702,-4.828 -2.919,-7.918c2.919,-7.526 13.425,-9.643 13.425,-9.643l0.112,-0.022c-3.718,1.368 -7.57,3.589 -9.455,7.16c-0.973,2.316 -1.169,3.859 1.557,8.489c0.657,1.12 1.085,2.546 1.362,4.162c-0.783,2.6 -0.5,5.778 0.468,6.378M243.448,171.466c6.518,-0.142 16.174,-1.892 20.074,-10.395c0.28651,0.84643 0.5973,1.68444 0.932,2.513c0,0 -0.011,0 0,0.011c-0.023,0.116 -0.199,1.099 -0.888,2.512c-0.677,1.425 -1.891,3.3 -3.968,5.186c-1.751,1.576 -4.495,2.42 -7.145,2.85c-0.94316,0.16142 -1.89362,0.27689 -2.848,0.346c-1.507,0.117 -2.801,0.128 -3.631,0.117c-0.606,0 -0.968,-0.024 -0.968,-0.024c-0.4656,-1.06468 -0.98562,-2.10471 -1.558,-3.116" data-paper-data="{&quot;origPos&quot;:null}" fill="#5f483c" stroke="none" stroke-width="1"/><path d="M222.238,124.025c11.243,-4.906 20.826,-0.748 24.636,1.42c-4.305,-2.433 -10.373,-3.819 -18.795,-1.999c0,0 -10.507,2.119 -13.424,9.644c-0.783,3.091 2.719,4.632 2.917,7.918c0.188,3.277 2.137,9.066 1.168,10.999c-0.981,1.923 -3.117,0.962 -5.067,-0.196c-1.937,-1.159 -6.42,-2.699 -8.557,0.196c-0.898,1.215 -1.446,3.07 -1.12,4.804c0.455,2.432 2.615,4.644 7.926,4.644c0,0 0.047,0.831 0.292,2.175c0.456,2.5 1.624,6.739 4.518,10.453l-0.14,0.105c-8.801,-4.481 -12.222,-11.415 -13.588,-17.146c-0.876,-3.634 -0.922,-6.795 -1.004,-8.508c0,-4.162 1.26,-7.894 3.039,-11.097c-0.449,2.31 -0.397,4.668 1.439,5.306c3.892,1.35 1.168,-12.351 15.76,-18.718M248.594,126.442c0.02611,0.02386 0.05178,0.0482 0.077,0.073l-0.035,0.046l-0.042,-0.119" fill="#888889" stroke="none" stroke-width="1"/><path d="M248.636,126.56c-0.537,-0.38 -1.11,-0.745 -1.717,-1.09c1.107,0.634 1.717,1.09 1.717,1.09M230.623,136.855c0.149,0.13 0.222,0.34 0.176,0.68c-0.386,2.895 -5.254,10.605 -5.254,10.605c0,0 -1.75,2.13 -3.304,1.553c-0.784,-0.291 -1.172,-2.179 -1.002,-4.23c0.201,1.087 0.83,2.077 2.702,0.56c3.03,-2.46 7.096,-7.623 6.682,-9.168M254.531,134.247c0.981,2.13 -1.167,1.934 -3.502,0.776c-2.301,-1.142 -8.371,-1.16 -8.171,-3.015c0.374,0.249 1.012,0.461 2.095,0.555c3.356,0.291 9.485,2.749 7.442,-0.433c-0.286,-0.447 -0.64,-0.824 -1.036,-1.147c1.826,0.054 2.228,1.2 3.172,3.264M258.815,152.1c2.61,0.621 4.542,-2.085 5.433,-3.679c-0.428,2.345 -1.409,3.818 -2.608,4.722c-2.218,1.677 -5.136,1.422 -6.525,1.18c-2.136,-0.393 -3.502,1.157 -3.69,2.697c-0.198,1.539 -2.731,1.933 -5.253,1.933c-2.532,0 -2.147,2.697 -2.731,6.367c-0.244,1.39 -1.039,2.34 -2.1,2.94c-3.2,1.9 -8.793,0.915 -8.793,0.915c2.837,-1.273 3.994,-3.148 4.39,-5.22c0.341,-1.764 0.141,-3.662 -0.015,-5.454c1.463,4.234 0.295,8.358 0.295,8.358c2.482,-1.011 4.379,-4.05 4.669,-7.67c0.292,-3.616 2.337,-4.628 3.65,-4.34c1.313,0.29 3.211,0.144 4.522,-1.881c1.314,-2.026 5.109,-1.737 8.756,-0.868" fill="#888889" stroke="none" stroke-width="1"/><path d="M223.211,193.486c5.119,5.194 22.293,12.85 30.599,4.382c-0.724,1.211 -1.538,2.389 -2.442,3.433c-8.383,9.24 -21.829,5.002 -30.096,-1.736c-2.228,-1.818 -4.085,-3.82 -5.357,-5.788c-5.989,-9.262 0.677,-19.589 0.677,-19.589l0.14,-0.105c2.067,2.64 5.008,5.001 9.199,6.288c4.095,1.253 7.477,1.174 10.2,0.47c-1.209,1.139 -3.966,2.241 -10.294,1.069c-3.795,-0.579 -9.047,5.066 -2.626,11.576" fill="#595a3a" stroke="none" stroke-width="1"/><path d="M244.953,177.858c-1.401,0.832 -3.584,6.452 1.917,7.672c-0.49025,0.38987 -0.87411,0.89722 -1.116,1.475l-0.072,-0.026c-8.114,-1.167 -8.37,-5.602 -8.336,-6.506c5.244,-1.816 7.66,-5.891 7.66,-5.891c0,0 0.361,0.023 0.968,0.023v0.07c0,0 1.205,0.854 2.785,2.977c-1.109,-0.188 -2.856,-0.36 -3.806,0.206M254.83,176.757c-1.074,-1.508 -2.125,-2.407 -2.378,-2.614c2.65,-0.429 5.395,-1.274 7.145,-2.849c2.079,-1.887 3.293,-3.762 3.97,-5.187l0.057,0.035c0,0 6.312,1.656 8.656,7.497c-0.69,-1.219 -1.505,-2.271 -2.375,-3.016c-4.232,-3.619 -6.858,1.447 -6.712,3.762c0.292,5.644 -1.903,7.524 -1.903,7.524l-0.869,-0.29c1.75,-10.128 -5.837,-5.498 -5.837,-5.498zM259.453,185.191c-0.649,2.435 2.731,4.698 7.879,3.505c-1.693,1.014 -3.763,1.725 -6.299,1.931c-1.05,0.094 -2.171,0.103 -3.374,0.012c-0.139,0 -0.292,-0.012 -0.443,-0.034c0.583,-1.575 0.875,-2.617 0.875,-2.617c0.433,-1.885 1.017,-2.465 1.017,-2.465c0.128,-0.108 0.231,-0.222 0.345,-0.332M257.25,196.898c0.879,1.857 1.906,4.267 2.149,5.851l-3.21,9.702c0,0 -22.028,0.856 -35.174,-5.21c0,0 -0.7,-4.896 0.257,-7.676c8.266,6.738 21.713,10.976 30.096,1.736c1.832,-2.119 3.304,-4.781 4.389,-7.166l0.14,0.07c0.30228,0.5677 0.59565,1.14011 0.88,1.717c-3.804,17.43 -26.257,8.367 -25.833,11.603c0.439,3.327 18.095,2.894 22.91,2.314c3.556,-0.427 3.611,-8.659 3.396,-12.941" fill="#595a3a" stroke="none" stroke-width="1"/><path d="M256.509,195.387c-0.88,2.948 -4.32,11.229 -15.11,11.104c3.642,-0.446 7.102,-2.029 9.968,-5.189c1.833,-2.12 3.305,-4.782 4.39,-7.167l0.14,0.071c0,0 0.252,0.467 0.612,1.181M223.503,203.423c-0.699,1.647 -0.134,4.071 2.88,5.807c-1.889,-0.562 -3.7,-1.221 -5.368,-1.989c0,0 -0.7,-4.896 0.257,-7.675c2.826,2.302 6.257,4.312 9.882,5.592c-6.429,-1.447 -7.068,-3.109 -7.651,-1.735" fill="#47482c" stroke="none" stroke-width="1"/><path d="M270.587,190.498c-1.497,1.874 -6.309,2.862 -8.086,3.17c-0.729,-1.624 -1.353,-2.824 -1.468,-3.04c5.954,-0.487 9.48,-3.634 11.068,-7.374c2.461,2.872 4.038,5.575 5.053,8.028c-1.817,-2.898 -4.997,-2.752 -6.567,-0.784M278.386,195.188c0.902,4.326 0.036,7.316 -0.228,8.082c-0.011,0 -0.011,0.012 -0.011,0.022l-0.07,0.175c-2.043,1.737 -8.616,3.774 -8.616,3.774c-1.167,-3.196 -4.365,-5.36 -4.365,-5.36c-0.115,-1.165 -0.447,-2.486 -0.875,-3.806c2.82,3.792 6.797,6.237 9.478,5.735c3.074,-0.576 5.077,-4.535 4.687,-8.622" fill="#595a3a" stroke="none" stroke-width="1"/><path d="M270.197,188.085c-2.935,3.476 -7.429,3.361 -8.81,3.233c-0.181,-0.36 -0.308,-0.604 -0.354,-0.691c5.954,-0.486 9.479,-3.634 11.068,-7.373c1.579,1.843 2.791,3.615 3.727,5.297c-2.307,-2.824 -4.144,-2.104 -5.63,-0.466" fill="#47482c" stroke="none" stroke-width="1"/><path d="M247.004,175.591c-0.631,-0.632 -1.03,-0.916 -1.03,-0.916v-0.07c0.829,0.011 2.124,0 3.631,-0.117c0.664,0.523 3.689,3.196 5.253,8.823c-0.018,0.011 -0.031,0.023 -0.048,0.035c-3.778,-8.787 -6.919,-8.164 -7.806,-7.755M257.648,190.731c2.919,2.178 5.545,13.465 5.545,13.465c-0.433,6.517 -4.237,11.577 -4.237,11.577c-19.472,2.131 -30.69,-1.714 -35.243,-3.877c-1.623,-0.776 -2.393,-1.332 -2.393,-1.332c14.937,7.043 34.967,5.112 36.717,4.726c1.752,-0.384 4.28,-8.876 4.378,-11.191c0.098,-2.316 -3.017,-9.743 -4.085,-11.479c-0.781,-1.268 -1.664,0.952 -2.086,2.247c-0.21,-0.411 -0.347,-0.661 -0.347,-0.661l-0.14,-0.072c0.53481,-1.15604 1.02156,-2.33371 1.459,-3.53c0.14625,0.02285 0.29398,0.03488 0.442,0.036l-0.01,0.091" fill="#627d42" stroke="none" stroke-width="1"/><path d="M258.544,191.685c-0.293,-0.4 -0.593,-0.726 -0.895,-0.954l0.01,-0.093c1.12335,0.08978 2.2522,0.08644 3.375,-0.01c0.056,0.106 0.236,0.454 0.49,0.964c-1.082,-0.127 -2.217,-0.021 -2.98,0.093M278.146,203.3c-0.444,2.498 -1.236,5.098 -1.236,5.098l-2.348,0.937l-6.991,2.815c-1.308,-4.77 -4.378,-7.954 -4.378,-7.954c2.432,1.159 4.767,7.043 4.767,7.043l8.074,-3.087l2.036,-4.679l0.007,-0.006l0.051,-0.127zM253.341,174.968c-0.986,0.022 -2.387,0.112 -2.761,0.428c-0.445,-0.465 -0.796,-0.766 -0.975,-0.908c0.95439,-0.06849 1.90486,-0.18363 2.848,-0.345c0.128,0.104 0.458,0.385 0.888,0.825" fill="#627d42" stroke="none" stroke-width="1"/><path d="M253.865,184.098c-0.783,0.764 -1.027,1.426 -1.027,1.426c0,0 -2.335,4.93 -5.255,4.93c-1.356,0 -2.08,-1.039 -2.07,-2.25c0.289,0.394 0.725,0.715 1.24,0.942c1.751,0.77 3.696,-2.509 5.155,-3.86c0.688,-0.637 -0.302,-0.926 -1.564,-1.038c0.574,-0.102 1.25,-0.187 1.97,-0.207c0.51372,-0.02486 1.0286,-0.00982 1.54,0.045z" data-paper-data="{&quot;origPos&quot;:null}" fill="#5f483c" stroke="none" stroke-width="1"/><path d="M258.306,182.071c0.9866,-0.15503 1.98645,-0.20898 2.984,-0.161c0,0 -0.281,2.027 -2.183,3.613c0,0 -0.584,0.579 -1.016,2.465c0,0 -1.903,-3.473 -5.254,-2.465c1.126,-1.789 4.616,-0.044 6.466,-1.779c0.995,-0.938 0.068,-1.422 -0.997,-1.673" data-paper-data="{&quot;origPos&quot;:null}" fill="#5f483c" stroke="none" stroke-width="1"/><path d="M274.563,209.337c-0.875,11.957 -3.35,17.585 -3.35,17.585c-2.475,1.736 -6.118,1.586 -6.118,1.586c-2.777,-1.447 -8.171,-7.953 -8.171,-7.953c-4.529,1.876 -9.339,0.716 -9.339,0.716c-4.237,8.974 -11.673,12.736 -11.673,12.736c-4.086,1.158 -7.588,-0.29 -7.588,-0.29c-3.654,-7.954 -4.67,-21.706 -4.67,-21.706l0.059,-0.116c0.44837,0.21096 0.90149,0.41167 1.359,0.602c0.731,9.782 3.048,21.693 7.283,21.51c4.476,-0.19 10.117,-9.841 11.48,-11.192c1.363,-1.35 3.696,-2.7 0,-2.894c-3.697,-0.192 -3.697,-2.12 0.194,-2.314c3.891,-0.195 1.167,-0.772 1.167,-0.772c-3.235,0 -6.395,-0.57 -9.221,-1.355c5.78,0.938 13.371,1.344 22.98,0.293c0,0 3.806,-5.059 4.237,-11.577c0,0 3.071,3.184 4.378,7.954z" fill="#595a3a" stroke="none" stroke-width="1"/><path d="M274.563,209.337c-0.875,11.957 -3.35,17.585 -3.35,17.585c-0.712,0.499 -1.522,0.839 -2.312,1.075c0.781,-0.607 1.33,-1.015 1.588,-1.129c1.751,-0.772 1.947,-7.331 1.167,-9.647c-0.779,-2.316 -3.503,-0.966 -3.89,-0.386c-0.39,0.577 -3.698,-4.632 -5.643,-0.388c-1.393,3.042 -13.067,2.124 -19.579,1.356c0.488,-0.11041 0.98507,-0.17601 1.485,-0.196c3.891,-0.195 1.167,-0.772 1.167,-0.772c-3.213,0 -6.349,-0.566 -9.161,-1.342c-0.00366,-0.00182 -0.00676,-0.00458 -0.009,-0.008c5.774,0.934 13.348,1.337 22.929,0.288c0,0 3.806,-5.059 4.237,-11.577c0,0 3.071,3.184 4.378,7.954z" fill="#47482c" stroke="none" stroke-width="1"/><path d="M235.912,234.008c0,0 1.307,1.019 -0.585,3.033c-1.903,2.037 -9.781,3.193 -10.657,1.457c-0.877,-1.734 3.653,-4.781 3.653,-4.781c-4.81,4.342 -2.582,4.535 1.503,3.956c2.625,-0.372 3.641,-2.096 4.033,-3.282c0.657,-0.065 1.345,-0.184 2.053,-0.383M272.892,227.637c1.608,0.766 3.767,2.045 3.574,3.335c-0.28,2.017 -7.144,1.438 -9.62,1.01c-2.485,-0.43 -1.75,-3.473 -1.75,-3.473c0,0 0.281,0.009 0.727,-0.01c0.568,1.027 1.94,2.141 5.25,2.035c5.062,-0.163 4.421,-1.607 1.819,-2.897M271.593,227.068c-0.126,-0.047 -0.25,-0.098 -0.38,-0.145c0,0 0.15,0.054 0.38,0.146" fill="#22221c" stroke="none" stroke-width="1"/></g></g></svg>