<svg xmlns="http://www.w3.org/2000/svg" width="480" height="360" style="background:#fff"><defs><linearGradient id="a" x1="50%" x2="50%" y1="100%" y2="0%"><stop offset="0%" stop-color="#C7E86C"/><stop offset="100%" stop-color="#BCDE5E"/></linearGradient></defs><g fill="none" transform="translate(-81.886 -5)"><path fill="#FFCBB0" d="M78.766 64.488h487.349V430H78.766z"/><path fill="#FFF" d="M78.766 64.488h487.349V430H78.766z"/><path fill="#9FB82B" d="M78.766 0h487.349v430H78.766z"/><circle cx="68.058" cy="187.039" r="68.058" fill="#C4D955"/><circle cx="120.766" cy="247.363" r="50.567" fill="#AFC346"/><circle cx="572.659" cy="171.215" r="50.567" fill="#C4D955"/><circle cx="540.296" cy="226.422" r="50.567" fill="#AFC346"/><path fill="#93A531" d="m488.072 223.715 9.67 19.34A3.065 3.065 0 0 1 495 247.49h-19.34a3.065 3.065 0 0 1-2.74-4.436l9.669-19.339a3.065 3.065 0 0 1 5.483 0z"/><path fill="#AFC346" d="m467.965 227.275 8.257 16.515a2.618 2.618 0 0 1-2.34 3.789h-16.516a2.618 2.618 0 0 1-2.341-3.789l8.257-16.515a2.618 2.618 0 0 1 4.683 0zm-278.655.238 8.257 16.515a2.618 2.618 0 0 1-2.341 3.789h-16.515a2.618 2.618 0 0 1-2.342-3.789l8.258-16.515a2.618 2.618 0 0 1 4.683 0z"/><path fill="#93A531" d="m472.963 230.53 6.633 13.263a2.618 2.618 0 0 1-2.342 3.789H463.99a2.618 2.618 0 0 1-2.341-3.789l6.632-13.264a2.618 2.618 0 0 1 4.682 0z"/><path fill="#AFC346" d="m455.472 233.7 5.045 10.09a2.618 2.618 0 0 1-2.341 3.789h-10.09a2.618 2.618 0 0 1-2.342-3.789l5.045-10.09a2.618 2.618 0 0 1 4.683 0z"/><path fill="#93A531" d="m176.816 233.938 5.046 10.09a2.618 2.618 0 0 1-2.342 3.789h-10.09a2.618 2.618 0 0 1-2.341-3.789l5.045-10.09a2.618 2.618 0 0 1 4.682 0z"/><path fill="url(#a)" d="M78.766 247.244h487.349v118.982H78.766z"/></g></svg>