<svg xmlns="http://www.w3.org/2000/svg" width="102.58" height="112.452"><g fill-rule="evenodd" stroke-miterlimit="10" data-paper-data="{&quot;isPaintingLayer&quot;:true}" style="mix-blend-mode:normal"><path fill="#75564a" d="M41.85 43.649c.008-.004 13.32 1.817 17.173-.788 2.164-1.462 1.434 3.15-1.51 6.507-2.287 2.608-1.68 6.925-9.05 3.73-2.375-1.03-6.477-5.268-6.515-7.95 0-.007-.63-1.148-.097-1.5" data-paper-data="{&quot;origPos&quot;:null}"/><path fill="#98d3d8" d="M43.902 54.99c4.123 6.114-48.37-8.932-43.594-28.043C6.43 2.447 36.94 47.327 43.262 54.04z"/><path fill="#58bdc1" d="M31.372 39.415c4.006 4.422 9.902 10.633 12.566 15.851 1.279 2.503-7.386 1.233-16.596-2.589-1.491-.62 7.03.86 8.002-2.008 1.148-3.384-4.66-12.014-3.972-11.254"/><path fill="#f5bab6" d="m42.659 56.076.82.395c5.27 2.54-36.552 13.008-40.994-1.898-5.695-19.11 33.165-.575 40.175 1.503z"/><path fill="#ee8785" d="M43.38 56.47c2.548 1.228-5.905 4.308-15.822 5.48-1.606.188 6.639-2.312 6.056-5.282-.688-3.505-9.987-7.567-9.01-7.242 7.8 2.594 15.25 5.848 17.957 6.65z"/><path fill="#c7e6ea" d="M33.024 47.728c.425.076 1.165 1.664.174 2.008-2.723.944-2.082-1.71-1.296-1.926.216-.06.874-.127 1.122-.082m-4.072-1.344c1.877-.25 2.505 2.517-.008 1.955-.426-.095-1.457-1.76.008-1.955m-2.94-1.935c1.878-.25 2.506 2.517-.007 1.955-.426-.095-1.457-1.76.008-1.955m-1.586-1.697c.32.058.877 1.254.13 1.513-2.051.711-1.57-1.287-.976-1.45.163-.046.659-.096.846-.062m-3.622-2.294c1.878-.25 2.506 2.517-.007 1.955-.426-.095-1.457-1.76.007-1.955m-1.585-1.697c.319.058.877 1.254.13 1.513-2.052.712-1.57-1.287-.977-1.45.163-.045.66-.096.847-.062m-2.503-1.856c.32.057.878 1.253.13 1.512-2.051.711-1.568-1.287-.976-1.45.163-.046.66-.096.846-.062m-2.665-2.444c.32.058.878 1.254.13 1.513-2.051.71-1.57-1.288-.976-1.451.163-.045.659-.096.846-.062m-2.567-2.737c.32.058.877 1.254.13 1.513-2.051.71-1.568-1.288-.976-1.45.163-.046.659-.097.846-.063m-2.468-2.444c.32.058.877 1.254.13 1.513-2.051.711-1.57-1.287-.976-1.45.163-.046.659-.096.846-.062m-2.271-2.737c.32.057.877 1.253.13 1.512-2.051.711-1.568-1.287-.976-1.45.163-.046.66-.096.846-.062"/><path fill="#f8d2cf" d="M30.138 55.034c.31-.125 1.46.607.957 1.24-1.382 1.737-2.078-.26-1.656-.725.117-.128.518-.442.7-.515m-3.225.798c1.12-.936 2.694.613.816 1.28-.32.114-1.691-.55-.816-1.28m-2.733-.054c1.12-.936 2.694.613.817 1.28-.32.113-1.692-.55-.817-1.28m-1.748-.456c.233-.094 1.1.46.72.935-1.04 1.31-1.565-.195-1.247-.546.088-.096.39-.333.527-.388m-3.328-.008c1.12-.936 2.694.613.816 1.28-.32.113-1.691-.55-.816-1.28m-1.748-.455c.232-.094 1.099.457.72.934-1.041 1.309-1.565-.196-1.247-.546.087-.096.39-.333.527-.388m-2.414-.183c.233-.094 1.1.458.72.935-1.041 1.308-1.565-.196-1.247-.547.088-.096.39-.333.527-.388m-2.768-.499c.233-.094 1.1.458.72.935-1.041 1.308-1.564-.196-1.247-.546.089-.097.39-.334.527-.389m-2.825-.73c.232-.095 1.099.457.72.933-1.041 1.31-1.565-.195-1.247-.546.087-.096.39-.333.526-.388m-2.64-.58c.235-.095 1.1.458.723.934-1.041 1.309-1.566-.196-1.248-.546.088-.097.39-.333.527-.388m-2.633-.853c.234-.095 1.1.458.72.934-1.04 1.309-1.564-.196-1.246-.546.087-.097.39-.333.526-.388"/><path fill="#98d3d8" d="M59.319 53.317c6.32-6.713 36.832-51.593 42.954-27.092 4.776 19.111-47.717 34.158-43.595 28.043l.64-.95z"/><path fill="#58bdc1" d="M71.209 38.692c.688-.758-5.12 7.87-3.973 11.255.973 2.869 9.494 1.389 8.003 2.008-9.211 3.822-17.875 5.093-16.597 2.59 2.665-5.219 8.56-11.43 12.567-15.852"/><path fill="#f5bab6" d="M59.92 55.355c7.01-2.079 45.87-20.613 40.176-1.503-4.443 14.905-46.266 4.437-40.994 1.897l.819-.394z"/><path fill="#ee8785" d="M60.02 55.354c2.705-.802 10.156-4.056 17.957-6.65.976-.324-8.323 3.737-9.01 7.242-.584 2.97 7.662 5.47 6.056 5.282-9.917-1.172-18.37-4.252-15.823-5.479z"/><path fill="#c7e6ea" d="M69.556 47.006c.248-.044.906.022 1.123.082.785.217 1.426 2.87-1.296 1.926-.991-.344-.251-1.93.173-2.008m4.073-1.343c1.465.195.433 1.859.008 1.955-2.514.561-1.885-2.206-.008-1.956m2.939-1.935c1.464.195.433 1.86.008 1.955-2.514.562-1.885-2.205-.008-1.955m1.586-1.696c.187-.034.683.016.846.062.592.163 1.074 2.162-.976 1.45-.747-.259-.19-1.455.13-1.512m3.62-2.294c1.466.196.434 1.86.009 1.955-2.514.562-1.885-2.205-.008-1.955m1.586-1.696c.187-.033.683.017.846.062.593.163 1.075 2.161-.976 1.451-.747-.259-.19-1.455.13-1.512m2.502-1.857c.187-.034.683.017.846.062.593.163 1.075 2.162-.976 1.45-.748-.259-.19-1.455.13-1.512m2.666-2.444c.186-.033.683.017.846.062.592.163 1.074 2.162-.976 1.451-.748-.259-.19-1.455.13-1.512m2.567-2.738c.187-.033.683.017.845.062.593.163 1.075 2.162-.975 1.451-.748-.259-.19-1.455.13-1.513m2.468-2.443c.187-.034.683.016.846.062.592.163 1.074 2.161-.976 1.45-.748-.259-.19-1.455.13-1.512m2.27-2.737c.187-.034.684.016.847.061.592.164 1.074 2.163-.976 1.452-.748-.26-.19-1.456.13-1.513"/><path fill="#f8d2cf" d="M72.442 54.312c.18.073.583.388.699.516.422.464-.273 2.461-1.655.724-.504-.632.646-1.365.956-1.24m3.225.799c.874.73-.498 1.393-.816 1.28-1.878-.668-.305-2.216.816-1.28m2.732-.055c.875.73-.498 1.394-.816 1.28-1.878-.667-.305-2.216.817-1.28m1.748-.455c.136.055.439.292.527.39.317.35-.207 1.853-1.247.544-.38-.477.487-1.028.72-.934m3.328-.008c.874.73-.498 1.394-.816 1.28-1.878-.667-.305-2.216.816-1.28m1.748-.455c.137.055.439.292.527.388.318.351-.206 1.856-1.247.546-.38-.476.487-1.028.72-.934m2.414-.182c.137.055.439.291.527.388.317.35-.207 1.855-1.247.546-.38-.477.487-1.029.72-.934m2.768-.5c.136.056.438.293.526.389.318.351-.206 1.854-1.247.546-.38-.477.487-1.029.72-.935m2.826-.731c.137.055.439.292.527.389.318.35-.206 1.854-1.247.546-.38-.477.487-1.029.72-.935m2.639-.58c.136.055.439.292.526.388.319.351-.206 1.856-1.247.546-.38-.476.487-1.028.72-.934m2.633-.853c.137.055.439.291.527.388.318.35-.207 1.856-1.247.546-.38-.476.487-1.028.72-.934"/><path fill="#75564a" d="M69.943 39.702c-2.356.887-5.72 1.441-5.66 3.211.2 5.786-1.355 8.256 2.568 5.1 5.028-4.046 21.789-12.045 24.195-19.255.514-1.538-1.088-2.62-1.966-4.09-.033-.056-1.482 3.938-2.335 4.97-2.06 2.489-13.65 8.874-16.802 10.064M33.512 53.228c2.357-.888 5.72-1.442 5.659-3.212-.198-5.786 1.357-8.256-2.566-5.098-4.282 3.445-16.374 9.003-21.48 14.9v-.001c-1.256.995-4.018 2.088-5.546 2.401-.466.095-4.638.993-2.504 1.238.86.098 1.568.006 2.476-.098-.456.188-2.942 1.262-3.603 1.531-.47.191-.62.311-.598.396.254.982 4.602-.832 4.6-.828-.694 1.157-5.587 2.316-4.311 2.946.874.431 3.493-1.425 4.703-1.667.456-.091-4.078 2.326-3.016 2.896 2.498-.684 4.705-2.398 5.605-2.708-.197 1.113-.52 2.878-.27 3.176.43.513.828.808 1.243-.957.162-.688.545-1.345.955-1.993.577-.556 1.336-2.66 2.047-3.352 2.333-2.27 13.926-8.56 16.606-9.57m3.685 30.561c.503-1.684 5.675-2.317 7.422-2.317 5.04 0 4.918 17.64 4.918 22.086 0 11.758-5.827 5.053-5.655 2.983.487-5.862-7.085-21.409-6.685-22.752m19.425 1.207c-.138-1.751 4.465-4.171 6.098-4.789 4.707-1.781 10.954 14.74 12.557 18.893 4.24 10.983-3.62 6.779-4.205 4.785-1.66-5.648-14.34-17.493-14.45-18.889" data-paper-data="{&quot;origPos&quot;:null}"/><path fill="#75564a" d="M27.638 29.32C26.442 2.775 70.9 4.129 71.885 24.986 73.174 52.23 28.51 48.703 27.638 29.32" data-paper-data="{&quot;origPos&quot;:null}"/><path fill="#fefefe" d="M63.206 24.726c1.12 0 4.65 1.411 3.363 4.307-1.285 2.894-4.671 2.77-5.913.942-1.215-1.788-.335-5.249 2.55-5.249"/><path fill="#210001" d="M60.005 27.05c.23-.62.436-1.147 1.23-1.933 1.599-1.58 3.906-.77 5.282.6 1.213 1.205 2.35-.368 1.644.331-2.01 1.986-4.501-2.116-6.984-.28-.068.05-1.178 1.297-1.172 1.281"/><path fill="#231916" d="M64.506 25.887c.676 0 2.806.852 2.029 2.598-.775 1.746-2.817 1.671-3.567.57-.733-1.08-.202-3.168 1.538-3.168"/><path fill="#fefefe" d="M38.516 24.726c2.885 0 3.765 3.461 2.55 5.25-1.241 1.827-4.628 1.951-5.913-.943-1.287-2.896 2.243-4.307 3.363-4.307"/><path fill="#231916" d="M39.915 25.887c1.74 0 2.272 2.088 1.539 3.167-.75 1.102-2.792 1.177-3.567-.569-.777-1.746 1.353-2.598 2.028-2.598"/><path fill="#210001" d="M41.762 27.05c.006.015-1.104-1.232-1.172-1.282-2.483-1.836-4.974 2.266-6.984.28-.706-.699.43.874 1.644-.332 1.376-1.369 3.683-2.179 5.28-.599.796.786 1 1.312 1.232 1.932"/><path fill="#f1c28c" d="M49.554 28.028c1.02.033-1.887-.407-2.27 2.458-.38 2.864 2.888 4.018 1.038 3.184-3.193-1.441-3.07-5.782 1.232-5.642"/><path fill="#35250d" d="M61.056 20.219c1.803-1.456 4.354-1.453 5.67.659.236.38-.094.65-1.258.027-.99-.53-2.435-.769-3.536-.514-.306.071-.654.424-.94.141.02-.16-.091-.188.064-.313m-19.47 0c-1.803-1.456-4.353-1.453-5.67.659-.235.38.095.65 1.259.027.989-.53 2.435-.769 3.535-.514.306.071.655.424.94.141-.02-.16.092-.188-.064-.313" data-paper-data="{&quot;origPos&quot;:null}"/><path fill="#fefefe" d="M65.467 26.421c.313 0 1.296.393.938 1.2-.358.807-1.302.773-1.648.263-.34-.498-.094-1.463.71-1.463m-25.01-.017c.313 0 1.298.393.938 1.2-.358.807-1.302.772-1.648.263-.34-.498-.093-1.464.71-1.464"/><path fill="#ee8785" d="M45.768 37.41c1.778-.153 1.416.746 3.193-.58.966-.72.806 1.134 1.747-.013.58-.707.54.453 1.663.772.655.186 2.56-.11 1.7.17-.188.06-1.582.543-1.59.55-2.138 2.27-3.803 1.053-4.93-.16-.224-.24-1.628-.753-1.783-.74"/><path fill="#d76b6c" d="M49.269 38.025c.738.15 1.069.187 1.788-.08-.212.313-1.018.666-1.788.08"/><path fill="#f5bab6" d="M36.15 34.186c-.033-1.054 3.726-1.504 3.54.349-.052.523-3.487 1.331-3.54-.349m25.08 0c-.032-1.054 3.726-1.504 3.54.349-.051.523-3.486 1.331-3.54-.349"/><path fill="#35250d" d="M27.755 30.558C17.357-2.545 79.403-6.485 71.55 30.061c-.18.837-.353-4.327-3.065-8.399-2.97-4.459-8.492-7.86-8.492-6.77 0 .371 1.239 1.376 1.804 2.666-1.536-.78-2.673-1.604-3.225-1.304-.431.234.445.547 1.988 1.868-1.332-.368-7.53-3.148-6.11-2.145.766.542 3.59 3.044 2.57 3.046-2.94-1.201-5.598-2.884-7.06-2.971-10.304-.614-19.696 3.337-22.206 14.506" data-paper-data="{&quot;origPos&quot;:null}"/><path fill="#35250d" d="M33.449 13.397c-1.471-.516-.083-2.118-2.505-4.619-1.137-1.172-4.725-.41-5.856.634-1.46 1.346.923 11.451-.768 14.444-7.316 12.954-15.534-.9-13.673.61 1.23.996 8.59.076 8.59-2.003-.08-.006-1.53.39-2.146.39-.634 0-4.72-.365-4.617-1.66 3.393.86 4.24-1.768 4.418-2.038.289-.437.742-4.338-.814-7.73-2.06-4.484 2.18-9.99 5.924-10.28 7.712-.596 13.677 11.12 11.659 12.267zm30.787-1.123c1.47-.517.083-2.119 2.505-4.62 1.136-1.172 4.724-.41 5.856.634 1.459 1.346-.923 11.452.768 14.445 7.316 12.953 15.534-.9 13.672.61-1.23.996-8.59.075-8.59-2.004.082-.006 1.53.39 2.147.39.634 0 4.72-.364 4.617-1.66-3.393.861-4.24-1.768-4.418-2.037-.29-.438-.743-4.339.814-7.73 2.059-4.484-2.18-9.99-5.924-10.28-7.712-.597-13.677 11.12-11.66 12.266z" data-paper-data="{&quot;origPos&quot;:null}"/><path fill="#ec7fa9" d="M43.645 43.949c1.924 5.579 3.108 9.176 9.118 8.059 4.19-.78 4.533-8.533 6.679-8.946 6.707-1.29 4.419-6.709 5.073 7.758.458 10.125 5.42 21.293 8.998 31.038-8.3 4.922-34.626 3.785-43.218 2.402-.64-7.653 8.22-23.177 8.22-40.39 0-2.108 1.887-.793 5.13.079"/><path fill="#b7589d" d="M73.074 80.674c.206.554.47 1.05.473 1.458-1.73 3-37.183 4.582-43.44 2.586.16-.938.09-1.672.26-2.382 3.835 2.328 36.624 1.07 42.707-1.662"/><path fill="#75564a" d="M89.678 24.083c2.745 0 3.833 2.646 2.645 4.755-1.056 1.875-3.276 2.369-3.464 1.482-.045-.213.457-.585.299-.765-.134-.153-1.145.104-1.323-.42-.063-.189.246-.493.17-.683-.128-.318-.74-.33-.813-.684-.107-.508.53-.57.553-.766.044-.378-.975-.518-.8-.892.305-.649 1.453-1.855 2.733-2.027" data-paper-data="{&quot;origPos&quot;:null}"/><path fill="#a171ae" d="M41.712 109.202c.752-5.77 5.635.257 7.343-2.42.343-.538.413-.832.42-1.278.017-1.278 2.11 4.546 2.11 5.457-1.932 0-1.066.666-1.498-.57-.02-.006-9.228 5.353-8.375-1.19"/><path fill="#a171ae" d="M69.174 105.801c.763 6.553 8.398-.843 8.418-.842.72 1.096-.283.656 1.592.196-.221-.884-3.67-6.038-3.375-4.794.102.435.106.738-.097 1.342-1.006 3.004-7.212-1.682-6.538 4.098m-25.53-61.852c-.134.126 2.882 7.96 6.849 8.133 5.603.244 6.424-6.088 8.357-8.694 2.306 1.603.287 11.126-4.17 11.781-3.428.504-3.087-3.553-3.406-2.003-.375 1.821-1.613 1.979-2.88 2.043-4.955.254-7.387-8.784-4.75-11.26" data-paper-data="{&quot;origPos&quot;:null}"/></g></svg>