<svg version="1.1" xmlns="http://www.w3.org/2000/svg" xmlns:xlink="http://www.w3.org/1999/xlink" width="88.20027" height="118.7308" viewBox="0,0,88.20027,118.7308"><g transform="translate(-196.00068,-120.10315)"><g data-paper-data="{&quot;isPaintingLayer&quot;:true}" fill-rule="evenodd" stroke="none" stroke-width="1" stroke-linecap="butt" stroke-linejoin="miter" stroke-miterlimit="10" stroke-dasharray="" stroke-dashoffset="0" style="mix-blend-mode: normal"><path d="M238.048,184.488c8.556,0.631 16.589,-1.034 23.108,-4.321c2.665,7.927 4.22,16.386 4.22,23.306c0,18.798 -11.451,18.512 -25.569,18.512c-14.119,0 -25.568,0.286 -25.568,-18.512c0,-7.32 1.736,-16.359 4.688,-24.666c5.438,3.106 11.986,5.155 19.121,5.681" fill="#ff83af"/><path d="M210.753,155.014c-0.299,4.077 -3.837,7.143 -7.908,6.842c-4.067,-0.3 -7.124,-3.85 -6.824,-7.93c0.299,-4.077 3.837,-7.143 7.908,-6.841c4.068,0.3 7.125,3.849 6.824,7.929" data-paper-data="{&quot;origPos&quot;:null}" fill="#e9c9a1"/><path d="M207.868,154.095c-0.17963,2.47706 -2.33287,4.33978 -4.81,4.161c-1.19036,-0.08846 -2.29675,-0.64643 -3.07551,-1.55105c-0.77876,-0.90461 -1.16602,-2.08167 -1.07649,-3.27195c0.18017,-2.4768 2.33306,-4.33921 4.81,-4.161c2.47785,0.18635 4.33617,2.34499 4.152,4.823" fill="#cf967e"/><path d="M284.18,160.42c-0.298,4.08 -3.84,7.146 -7.908,6.844c-4.07,-0.3 -7.125,-3.849 -6.825,-7.929c0.297,-4.077 3.84,-7.143 7.907,-6.841c4.07,0.296 7.124,3.849 6.827,7.926" data-paper-data="{&quot;origPos&quot;:null}" fill="#e9c9a1"/><path d="M281.292,159.503c-0.08551,1.18937 -0.64001,2.29606 -1.5415,3.07659c-0.90149,0.78053 -2.07613,1.17097 -3.2655,1.08541c-2.475,-0.18 -4.334,-2.34 -4.154,-4.823c0.18174,-2.4778 2.33594,-4.34025 4.814,-4.162c2.47638,0.18789 4.33238,2.34643 4.147,4.823" fill="#cf967e"/><path d="M273.917,150.726c-1.133,15.472 -17.194,26.902 -35.869,25.526c-18.678,-1.377 -32.898,-15.037 -31.765,-30.507c1.135,-15.476 17.194,-26.903 35.87,-25.53c18.677,1.376 32.896,15.036 31.764,30.511" fill="#d66c00"/><path d="M206.71,151.673c1.137,-15.473 17.1,-26.911 35.669,-25.545c16.633,1.226 29.697,12.317 31.417,25.743c-1.818,14.886 -17.535,25.725 -35.748,24.382c-16.055,-1.182 -28.808,-11.446 -31.355,-24.133c0.008,-0.15 0.008,-0.297 0.018,-0.447" fill="#ba5e00"/><path d="M276.812,159.173c-1.133,15.475 -18.49,26.809 -38.764,25.315c-20.279,-1.494 -35.794,-15.25 -34.661,-30.724c1.132,-15.474 18.489,-26.805 38.767,-25.314c20.273,1.494 35.793,15.246 34.658,30.722" data-paper-data="{&quot;origPos&quot;:null}" fill="#e9c9a1"/><path d="M244.459,136.877c0.158,1.98 -5.79,4.08 -13.29,4.685c-7.495,0.604 -13.705,-0.511 -13.863,-2.494c-0.16,-1.98 5.79,-4.079 13.287,-4.685c7.5,-0.604 13.703,0.511 13.866,2.494" data-paper-data="{&quot;origPos&quot;:null}" fill="#e8dac9"/><path d="M254.18,130.922c-0.896,3.521 -6.799,5.895 -13.741,5.381c-6.541,-0.48 -11.79,-3.36 -12.69,-6.712c4.485,-1.085 9.354,-1.513 14.404,-1.139c4.09968,0.29449 8.14309,1.12489 12.027,2.47" fill="#e3ac94"/><path d="M252.464,130.128c-0.235,3.176 -5.575,5.37 -11.93,4.902c-6.358,-0.47 -11.322,-3.423 -11.09,-6.597c0.233,-3.176 5.573,-5.37 11.93,-4.9c6.357,0.469 11.32,3.421 11.09,6.595" fill="#d66c00"/><path d="M245.43,179.182c-0.125,1.667 -2.732,2.83 -5.83,2.604c-3.095,-0.227 -5.509,-1.763 -5.386,-3.43c0.123,-1.665 2.73,-2.834 5.827,-2.605c3.098,0.228 5.508,1.766 5.389,3.43" data-paper-data="{&quot;origPos&quot;:null}" fill="#e8dac9"/><path d="M229.53,168.602c-2.518,-4.426 1.403,-6.842 4.28,-5.199c2.877,1.643 5.149,2.38 6.569,2.396c1.421,0.012 3.708,-0.677 6.614,-2.266c2.91,-1.587 6.78,0.91 4.18,5.28c-2.603,4.373 -10.866,4.227 -10.866,4.227c0,0 -8.258,-0.015 -10.777,-4.438" fill="#bf4545"/><path d="M248.199,165.36c0.078,0.967 -2.459,1.37 -3.069,0.595c-0.225,-0.289 -0.276,-0.82 -0.255,-1.371c0.662,-0.294 1.371,-0.643 2.118,-1.05c0.141,-0.079 0.285,-0.142 0.433,-0.202c0.354,0.691 0.73,1.526 0.773,2.028" fill="#ffffff"/><path d="M240.341,169.825c0,0 4.312,0.009 7.656,1.683c-3.377,1.608 -7.69,1.532 -7.69,1.532c0,0 -4.312,-0.009 -7.654,-1.683c3.374,-1.608 7.687,-1.532 7.687,-1.532" fill="#ff5c5c"/><path d="M240.793,159.323c-5.038,-0.372 -3.563,-3.237 -3.563,-3.237c0,0 -0.287,1.941 3.635,2.231c3.926,0.287 3.926,-1.674 3.926,-1.674c0,0 1.038,3.05 -3.998,2.68" fill="#e3ac94"/><path d="M211.248,154.167c2.934,0.217 5.171,2.314 4.996,4.684c-0.173,2.368 -2.691,4.117 -5.625,3.9c-2.934,-0.217 -5.17,-2.314 -4.997,-4.684c0.176,-2.371 2.692,-4.117 5.626,-3.9M268.941,158.416c2.935,0.216 5.17,2.314 4.995,4.684c-0.173,2.37 -2.691,4.117 -5.625,3.9c-2.933,-0.217 -5.168,-2.314 -4.995,-4.684c0.173,-2.368 2.692,-4.117 5.625,-3.9" fill="#ffa6a6"/><path d="M231.488,153.422l-0.019,0.054c-0.138,0.432 -0.506,0.76 -0.953,0.85c-12.839,2.696 -17.407,-1.894 -17.407,-1.894c-0.847,-2.06 0.204,-4.527 0.204,-4.527c0,0 1.38,-3.5 5.725,-4.754c1.71661,-0.50146 3.51033,-0.68547 5.293,-0.543c5.271,0.429 8.775,5.763 7.157,10.814" data-paper-data="{&quot;origPos&quot;:null}" fill="#e8dac9"/><path d="M227.223,150.741c-0.078,3.363 -2.233,6.04 -4.814,5.98c-2.576,-0.06 -4.606,-2.834 -4.528,-6.197c0.078,-3.361 2.23,-6.038 4.809,-5.978c2.583,0.06 4.611,2.832 4.533,6.195" fill="#87623e"/><path d="M225.625,150.706c-0.05,2.213 -1.47,3.974 -3.165,3.933c-1.699,-0.037 -3.037,-1.863 -2.985,-4.075c0.05,-2.214 1.47,-3.979 3.17,-3.936c1.699,0.039 3.032,1.863 2.982,4.077" fill="#61462d"/><path d="M222.88,148.83c-0.287,1.485 -1.442,2.506 -2.58,2.286c-1.136,-0.218 -1.83,-1.598 -1.545,-3.086c0.289,-1.48 1.441,-2.505 2.578,-2.283c1.139,0.22 1.831,1.598 1.547,3.083" fill="#ffffff"/><path d="M225.533,153.1c-0.198,1.024 -0.993,1.73 -1.777,1.58c-0.786,-0.152 -1.263,-1.105 -1.065,-2.13c0.195,-1.02 0.99,-1.727 1.777,-1.578c0.785,0.15 1.26,1.106 1.065,2.128" fill="#ffffff"/><path d="M248.612,153.434c-1.145,-5.193 2.86,-10.174 8.163,-10.099c1.77793,0.02964 3.53598,0.37922 5.19,1.032c4.209,1.654 5.256,5.271 5.256,5.271c0,0 0.819,2.554 -0.218,4.53c0,0 -4.972,4.136 -17.506,0.258c-0.43682,-0.13348 -0.76876,-0.4906 -0.87,-0.936c-0.006,-0.021 -0.009,-0.038 -0.015,-0.056" data-paper-data="{&quot;origPos&quot;:null}" fill="#e8dac9"/><path d="M253.111,151.165c0.233,-3.358 2.512,-5.929 5.085,-5.748c2.572,0.183 4.468,3.049 4.235,6.403c-0.237,3.352 -2.512,5.928 -5.087,5.745c-2.573,-0.18 -4.47,-3.046 -4.233,-6.4" fill="#87623e"/><path d="M254.702,151.276c0.155,-2.21 1.654,-3.9 3.347,-3.783c1.697,0.12 2.945,2.005 2.788,4.215c-0.153,2.206 -1.653,3.9 -3.348,3.783c-1.693,-0.123 -2.94,-2.005 -2.787,-4.215" fill="#61462d"/><path d="M254.313,149.398c0.224,-1.494 1.333,-2.566 2.481,-2.392c1.145,0.172 1.893,1.521 1.672,3.014c-0.225,1.493 -1.333,2.565 -2.482,2.395c-1.145,-0.171 -1.894,-1.523 -1.672,-3.017" fill="#ffffff"/><path d="M258.448,152.902c0.194,-1.025 0.992,-1.731 1.777,-1.577c0.781,0.152 1.262,1.104 1.064,2.126c-0.198,1.024 -0.992,1.731 -1.777,1.578c-0.787,-0.151 -1.262,-1.106 -1.064,-2.127" fill="#ffffff"/><path d="M239.807,201.58c9.797,0 18.705,-0.376 25.351,-2.794c0.14024,1.55812 0.21297,3.12159 0.218,4.686c0,18.798 -11.451,18.514 -25.569,18.514c-14.119,0 -25.568,0.284 -25.568,-18.514c0.0033,-1.56434 0.07436,-3.12781 0.213,-4.686c6.651,2.418 15.558,2.794 25.355,2.794" fill="#e06a94"/><path d="M239.807,217.382c13.277,0 24.186,-1.44 25.446,-17.239c0.07,1.139 0.123,2.26 0.123,3.33c0,18.798 -11.451,18.512 -25.569,18.512c-14.119,0 -25.568,0.286 -25.568,-18.512c0.00546,-1.11103 0.04648,-2.2216 0.123,-3.33c1.257,15.799 12.168,17.239 25.445,17.239" fill="#cc5c84"/><path d="M239.806,220.191c13.883,0 25.17,0.265 25.55,-17.584c0.006,0.289 0.02,0.583 0.02,0.866c0,18.798 -11.451,18.512 -25.569,18.512c-14.119,0 -25.568,0.286 -25.568,-18.512c0,-0.283 0.012,-0.577 0.018,-0.866c0.381,17.849 11.669,17.584 25.55,17.584" fill="#bf4772"/><path d="M210.774,205.78c1.11997,-0.82036 2.27613,-1.59013 3.465,-2.307c0,0 12.034,-0.536 20.377,18.401c0,0 -6.183,2.825 -15.123,3.954c-6.118,0.775 -11.838,-1.29 -13.316,-7.292c-1.178,-4.793 0.618,-9.843 4.597,-12.756" fill="#cc5c84"/><path d="M219.493,223.178c6.778,-0.856 12.364,-2.191 14.478,-3.026c0.355,0.709 0.305,0.949 0.645,1.722c0,0 -6.183,2.821 -15.123,3.955c-6.118,0.775 -11.838,-1.289 -13.316,-7.293c-0.34059,-1.39289 -0.43468,-2.83466 -0.278,-4.26c0.05657,0.54228 0.14945,1.08015 0.278,1.61c1.478,6.002 7.198,8.068 13.316,7.292" fill="#bf4772"/><path d="M206.983,210.387c15.178,5.637 19.52,12.947 19.52,12.947c0.79,5.668 -6.605,8.597 -10.795,8.096c-3.132,-0.375 -8.676,-4.495 -9.692,-9.445c-1.593,-7.752 0.967,-11.598 0.967,-11.598" fill="#cc5c84"/><path d="M231.185,226.156c-0.915,2.461 -2.657,5.754 -5.977,9.426c-7.069,7.822 -12.485,-0.486 -11.535,-3.918c0.95,-3.434 6.941,-4.322 10.883,-9.017c0.123,-0.149 0.244,-0.287 0.365,-0.419c2.75,-2.932 7.664,0.166 6.264,3.928" fill="#91415e"/><path d="M268.77,205.78c3.977,2.913 5.773,7.963 4.596,12.756c-1.478,6.002 -7.2,8.067 -13.318,7.292c-8.938,-1.129 -15.122,-3.954 -15.122,-3.954c8.344,-18.937 20.378,-18.401 20.378,-18.401c1.18872,0.71761 2.34518,1.48736 3.466,2.307" fill="#cc5c84"/><path d="M273.365,215.885c0.12855,-0.52985 0.22143,-1.06772 0.278,-1.61c0.153,1.403 0.073,2.843 -0.278,4.261c-1.478,6.003 -7.198,8.068 -13.316,7.293c-8.94,-1.133 -15.122,-3.954 -15.122,-3.954c0.339,-0.773 0.457,-1.034 0.812,-1.743c2.115,0.836 7.53,2.19 14.31,3.046c6.118,0.775 11.838,-1.289 13.316,-7.292" fill="#bf4772"/><path d="M272.559,210.387c0,0 2.56,3.846 0.968,11.598c-1.017,4.95 -6.558,9.07 -9.693,9.445c-4.19,0.501 -12.456,-1.17 -11.664,-6.834c0,0 5.211,-8.572 20.389,-14.21" fill="#cc5c84"/><path d="M248.357,226.156c-1.4,-3.762 3.514,-6.86 6.264,-3.928c0.123,0.132 0.242,0.27 0.365,0.419c3.942,4.695 9.936,5.583 10.883,9.017c0.951,3.432 -4.463,11.74 -11.535,3.918c-3.32,-3.672 -5.062,-6.965 -5.977,-9.426" fill="#91415e"/><path d="M221.546,183.701c4.995,3.72 8.988,6.315 8.988,6.315l0.347,8.439c0,0 -0.16,0.549 -11.239,-2.194c0,0 -2.261,-0.285 -6.521,-2.849c-6.985,-4.203 -7.108,-15.591 -0.304,-18.936c2.0342,1.77541 4.25484,3.32513 6.623,4.622c-0.12,1.522 0.182,3.172 2.106,4.602" fill="#ff83af"/><path d="M221.553,195.435c5.4,1.337 5.209,0.851 9.26,1.367l0.069,1.652c0,0 -5.374,0.332 -11.364,-1.89c0,0 -2.138,-0.588 -6.398,-3.151c-6.131,-3.691 -6.971,-12.906 -2.487,-17.371c-3.035,4.787 -1.791,12.542 3.707,15.85c4.26,2.563 7.212,3.543 7.212,3.543" fill="#e06a94"/><path d="M263.81,178.689c6.159,4.451 4.097,15.671 -3.509,18.618c-4.633,1.794 -9.073,2.016 -9.073,2.016c-11.382,0.806 -10.87,-0.366 -10.87,-0.366l1.783,-8.254c0,0 4.598,-1.837 10.153,-4.646c1.991,-1.007 3.082,-2.362 3.655,-3.718c2.75017,-0.91487 5.38744,-2.1394 7.861,-3.65" fill="#ff83af"/><path d="M238.048,186.991c-10.952,-0.804 -20.51,-5.192 -26.812,-11.494c0.48602,-0.39995 1.01652,-0.74255 1.581,-1.021c1.866,1.641 3.971,3.117 6.266,4.414c5.409,3.057 11.893,5.075 18.965,5.598c6.529,0.482 12.756,-0.378 18.234,-2.272c0.69938,-0.23992 1.39167,-0.50003 2.076,-0.78c0.533,-0.217 1.062,-0.442 1.574,-0.68c0.147,-0.066 0.288,-0.139 0.43,-0.206c1.18164,-0.55815 2.33261,-1.17904 3.448,-1.86c0.58671,0.42074 1.11411,0.91854 1.568,1.48c-7.089,4.917 -16.813,7.597 -27.33,6.821M250.285,197.619c-7.676,0.539 -7.7,-0.195 -9.578,-0.28l-0.348,1.617c0,0 -0.513,1.172 10.87,0.366c0,0 4.439,-0.221 9.072,-2.015c6.668,-2.585 9.07,-11.52 5.413,-16.687c2.173,5.236 -0.376,12.664 -6.357,14.98c-4.63,1.795 -9.072,2.02 -9.072,2.02" fill="#e06a94"/><path d="M235.818,207.989l-6.56,-1.662c-1.90972,-0.49267 -3.0644,-2.43366 -2.586,-4.347l4.054,-16.08c0.482,-1.912 2.434,-3.08 4.337,-2.597l6.56,1.665c1.90958,0.49324 3.06523,2.43286 2.59,4.347l-4.054,16.079c-0.48585,1.9125 -2.42658,3.0722 -4.341,2.594" fill="#cceff7"/><path d="M235.623,205.414l-4.973,-1.262c-1.49348,-0.38427 -2.39666,-1.90208 -2.022,-3.398l3.239,-12.843c0.37891,-1.49475 1.89437,-2.40242 3.391,-2.031l4.975,1.261c1.49367,0.38659 2.39627,1.9052 2.022,3.402l-3.24,12.843c-0.37881,1.49509 -1.8957,2.402 -3.392,2.028" fill="#ffffff"/><path d="M241.78,189.987l-9.23,-2.34c-1.17434,-0.30416 -1.88399,-1.49807 -1.59,-2.675l0.423,-1.677c0.677,-2.686 3.425,-4.333 6.107,-3.651l3.735,0.948c2.681,0.678 4.321,3.434 3.645,6.123l-0.427,1.677c-0.29732,1.17451 -1.4883,1.88758 -2.664,1.595" fill="#89c6d6"/><path d="M238.344,184.137c-0.95649,-0.24586 -1.53471,-1.2182 -1.294,-2.176l1.153,-4.567c0.24231,-0.95517 1.21037,-1.53547 2.167,-1.299c0.95399,0.24874 1.5313,1.2176 1.296,2.175l-1.15,4.568c-0.24414,0.9562 -1.21407,1.53628 -2.172,1.299" fill="#89c6d6"/><path d="M243.963,191.129c-0.45676,0.83526 -1.50278,1.14415 -2.34,0.691c-0.83206,-0.46087 -1.13948,-1.50473 -0.69,-2.343l0.697,-1.284c0.45554,-0.83497 1.50099,-1.14364 2.337,-0.69c0.833,0.453 1.146,1.507 0.693,2.343l-0.697,1.283" fill="#ffc2a6"/><path d="M241.102,199.497c-3.264,0.085 -5.977,-2.5 -6.059,-5.775c-0.08789,-3.26917 2.49084,-5.99072 5.76,-6.079c3.267,-0.081 5.978,2.506 6.062,5.776c0.083,3.275 -2.496,5.997 -5.763,6.078M228.331,190.976c0.30727,0.90143 1.28468,1.38567 2.188,1.084c0.90179,-0.30843 1.38426,-1.28813 1.079,-2.191l-0.463,-1.385c-0.307,-0.898 -1.29,-1.385 -2.19,-1.08c-0.89929,0.3106 -1.38002,1.28813 -1.077,2.19l0.462,1.382" data-paper-data="{&quot;origPos&quot;:null}" fill="#e9c9a1"/><path d="M229.725,199.714c-3.20564,-0.64699 -5.28238,-3.76704 -4.642,-6.974c0.30428,-1.54084 1.20879,-2.89745 2.51416,-3.77083c1.30537,-0.87338 2.90447,-1.19183 4.44484,-0.88517c3.2,0.643 5.277,3.766 4.638,6.979c-0.64,3.209 -3.755,5.294 -6.955,4.65" data-paper-data="{&quot;origPos&quot;:null}" fill="#e9c9a1"/></g></g></svg>