<svg version="1.1" xmlns="http://www.w3.org/2000/svg" xmlns:xlink="http://www.w3.org/1999/xlink" width="77.33815" height="116.93438" viewBox="0,0,77.33815,116.93438"><g transform="translate(-200.99985,-121)"><g data-paper-data="{&quot;isPaintingLayer&quot;:true}" fill-rule="evenodd" stroke="none" stroke-width="1" stroke-linecap="butt" stroke-linejoin="miter" stroke-miterlimit="10" stroke-dasharray="" stroke-dashoffset="0" style="mix-blend-mode: normal"><path d="M201,169.005c8.229,12.834 19.214,2.124 15.48,-9.222c-2.714,-8.236 12.01,2.678 12.01,2.678c0,0 -8.622,23.877 -16.1,24.233c-7.48,0.356 -11.418,-11.328 -11.39,-17.69" data-paper-data="{&quot;origPos&quot;:null}" fill="#6f4832"/><path d="M228.531,227.778l0.197,4.044h0.021c0.064,0.266 -0.021,0.56 -0.203,0.84c-0.591,0.911 -1.611,1.589 -2.481,2.2c-0.14152,0.09602 -0.28592,0.18773 -0.433,0.275h-7.725v-2.594c0.28,-0.261 0.589,-0.519 0.908,-0.721h-0.007l0.237,-4.044h9.487z" fill="#eeeeed"/><path d="M228.563,228.435h-9.556l0.01,-0.2h9.538zM228.584,228.833h-9.6l0.009,-0.2h9.58z" fill="#e63744"/><path d="M241.659,233.372v1.764h-8.438c-0.147,-0.086 -0.292,-0.182 -0.431,-0.279c-0.871,-0.613 -1.896,-1.283 -2.483,-2.195c-0.182,-0.281 -0.269,-0.575 -0.203,-0.841h0.011l0.196,-4.042h9.495l0.235,4.043h-0.006c0.63811,0.40505 1.19027,0.93172 1.625,1.55z" fill="#eeeeed"/><path d="M230.29,228.234h9.544l0.01,0.2h-9.563zM230.27,228.632h9.585l0.013,0.2h-9.608z" fill="#e63744"/><path d="M218.808,231.809c0,0 0.194,-1.915 1.802,-1.995c1.661,-0.084 2.923,1.652 2.923,1.652l-4.701,0.356z" fill="#6e6e6d"/><path d="M219.433,231.64l-0.02,-0.007c0,0 0.137,-1.319 1.239,-1.375c1.142,-0.054 2.01,1.139 2.01,1.139l-3.23,0.243z" fill="#e63744"/><path d="M218.832,231.822c0,0 1.93,-1.212 6.27,0c1.751,0.206 2.294,-1.427 3.116,-1.79c0.411,-0.18 0.531,0 0.531,0v1.79c0.064,0.266 -0.021,0.558 -0.203,0.838c-0.591,0.913 -1.611,1.586 -2.481,2.2c-1.351,0.927 -3.053,1.422 -4.541,2.134c-1.35,0.571 -3.122,1.638 -4.33,0.28c-1.593,-1.921 -0.241,-4.259 1.621,-5.452h-0.007v-0.009l0.024,0.009" fill="#e63744"/><path d="M228.414,232.849c-0.6,0.82 -1.54,1.441 -2.35,2.01c-0.565,0.388 -1.195,0.704 -1.845,0.985l-0.175,-0.359c1.926,-0.564 4.155,-2.834 4.155,-2.834l0.216,0.198M218.832,231.822c0,0 1.464,-0.918 4.701,-0.356c-0.952,0.708 -2.544,1.748 -3.674,1.755c-1.446,0.008 -1.484,-0.663 -1.198,-1.3c0.051,-0.035 0.102,-0.041 0.154,-0.105h-0.007v-0.007l0.024,0.013" fill="#343434"/><path d="M218.763,233.062c2.551,0 4.778,1.024 5.976,2.547c-1.048,0.502 -2.182,0.892 -3.215,1.385c-1.35,0.572 -3.122,1.638 -4.328,0.28c-1.108,-1.337 -0.79,-2.875 0.128,-4.087c0.006,-0.005 0.01,-0.011 0.015,-0.017c0.47135,-0.07112 0.94732,-0.10722 1.424,-0.108" fill="#343434"/><path d="M228.694,230.232c0.01774,0.00011 0.03545,0.00144 0.053,0.004v1.586c0.067,0.266 -0.019,0.558 -0.2,0.838c-0.118,0.183 -0.252,0.352 -0.399,0.517c-0.13,-0.311 -0.21,-0.738 -0.21,-1.203c0,-0.963 0.34,-1.742 0.756,-1.742" fill="#eeeeed"/><path d="M217.72,232.758c-0.017,0 -0.03,-0.008 -0.034,-0.025c-0.004,-0.017 0.009,-0.035 0.024,-0.039c0.023,-0.004 2.126,-0.521 4.823,-0.015c0.02,0.004 0.032,0.022 0.03,0.039c-0.00478,0.0178 -0.02164,0.0296 -0.04,0.028c-2.685,-0.505 -4.775,0.006 -4.796,0.012zM218.273,232.247c-0.015,0 -0.026,-0.006 -0.03,-0.021c-0.006,-0.02 0.002,-0.037 0.021,-0.04c0.02,-0.007 1.971,-0.653 4.685,-0.035c0.019,0.004 0.03,0.023 0.025,0.04c-0.002,0.018 -0.021,0.03 -0.038,0.026c-2.697,-0.615 -4.631,0.024 -4.65,0.03z" fill="#c12636"/><path d="M240.018,231.822l-4.7,-0.356c0,0 1.263,-1.736 2.924,-1.652c1.608,0.08 1.802,1.995 1.802,1.995z" fill="#6e6e6d"/><path d="M239.42,231.64l-3.23,-0.243c0,0 0.866,-1.193 2.009,-1.139c1.103,0.056 1.238,1.375 1.238,1.375z" fill="#e63744"/><path d="M240.018,231.822l0.026,-0.009v0.009h-0.009c1.862,1.193 3.216,3.531 1.621,5.452c-1.206,1.358 -2.979,0.291 -4.33,-0.28c-1.49,-0.712 -3.19,-1.207 -4.54,-2.134c-0.868,-0.614 -1.891,-1.287 -2.48,-2.2c-0.182,-0.28 -0.27,-0.572 -0.203,-0.838v-1.79c0,0 0.12,-0.18 0.531,0c0.82,0.363 1.365,1.996 3.116,1.79c4.336,-1.212 6.268,0 6.268,0" fill="#e63744"/><path d="M230.435,232.849l0.216,-0.198c0,0 2.229,2.27 4.155,2.834l-0.175,0.359c-0.65,-0.281 -1.277,-0.597 -1.843,-0.985c-0.81,-0.569 -1.75,-1.19 -2.353,-2.01M240.018,231.822l0.026,-0.013v0.007h-0.009c0.052,0.064 0.105,0.07 0.154,0.105c0.288,0.637 0.25,1.308 -1.198,1.3c-1.127,-0.007 -2.72,-1.047 -3.672,-1.755c3.235,-0.562 4.7,0.356 4.7,0.356" fill="#343434"/><path d="M240.087,233.062c0.489,0 0.965,0.039 1.424,0.108c0.00518,0.00497 0.00956,0.0107 0.013,0.017c0.92,1.212 1.24,2.75 0.13,4.087c-1.204,1.358 -2.976,0.292 -4.328,-0.28c-1.03,-0.493 -2.165,-0.883 -3.213,-1.385c1.198,-1.523 3.425,-2.547 5.974,-2.547" fill="#343434"/><path d="M230.156,230.232c0.418,0 0.758,0.779 0.758,1.742c0,0.465 -0.081,0.892 -0.211,1.203c-0.14602,-0.16163 -0.27909,-0.3345 -0.398,-0.517c-0.181,-0.28 -0.269,-0.572 -0.2,-0.838v-1.586c0.01655,-0.00252 0.03326,-0.00385 0.05,-0.004" fill="#eeeeed"/><path d="M241.123,232.758c-0.021,-0.006 -2.109,-0.517 -4.795,-0.012c-0.017,0.002 -0.034,-0.011 -0.039,-0.028c-0.00241,-0.01869 0.01041,-0.03592 0.029,-0.039c2.698,-0.506 4.801,0.011 4.82,0.015c0.019,0.004 0.032,0.022 0.028,0.039c-0.006,0.017 -0.017,0.025 -0.034,0.025zM240.566,232.247c-0.019,-0.006 -1.955,-0.645 -4.65,-0.03c-0.017,0.004 -0.036,-0.008 -0.038,-0.026c-0.00448,-0.01737 0.00574,-0.03513 0.023,-0.04c2.712,-0.618 4.667,0.028 4.687,0.035c0.019,0.003 0.025,0.02 0.021,0.04c-0.004,0.015 -0.017,0.021 -0.032,0.021z" fill="#c12636"/><path d="M240.362,219.733l-0.597,8.02h-9.43l-0.158,-8.02h-1.503l-0.158,8.02h-9.431l-0.597,-8.02z" data-paper-data="{&quot;origPos&quot;:null}" fill="#c0936a"/><path d="M241.97,205.215c0,0 2.528,8.249 0.344,17.499c-1.997,1.86 -12.54,0 -12.54,0l-0.205,-10.142h-0.288l-0.203,10.142c0,0 -10.543,1.86 -12.537,0c-2.078,-7.782 0.341,-17.499 0.341,-17.499h25.088" fill="#c12636"/><path d="M218.287,205.23c-0.224,4.444 -0.59,13.519 -0.13,18.144c-0.474,-0.086 -0.886,-0.212 -1.206,-0.371c-0.523,-4.598 -0.047,-13.461 0.239,-17.773h1.098M240.612,205.23h1.1c0.286,4.312 0.759,13.143 0.239,17.75c-0.316,0.169 -0.726,0.291 -1.206,0.38c0.463,-4.629 0.094,-13.687 -0.132,-18.13z" fill="#343434"/><path d="M261.665,161.259c1.855,0.789 2.447,3.604 1.315,6.288c-0.726,1.719 -1.981,2.963 -3.28,3.429h0.001c0,0 -3.463,9.878 -6.478,10.978c-2.44,0.888 -11.04,-2.622 -11.04,-2.622c2.626,10.266 3.213,25.898 3.213,25.898h-32.11c0,0 0.527,-13.8 2.556,-23.862v-0.002c-0.274,0.489 -0.758,1.12 -1.44,2.085c-1.714,2.438 -3.323,12.764 -3.323,12.764c0.04006,0.06954 0.07677,0.14095 0.11,0.214c0.48797,0.49447 0.89889,1.05944 1.219,1.676c0.927,1.763 1.023,3.544 0.212,3.978c-0.434,0.231 -1.042,0.03 -1.655,-0.479c-0.66,1.18 -1.695,1.905 -2.775,1.792c-1.653,-0.176 -2.798,-2.255 -2.55,-4.643c0.107,-0.987 0.42,-1.871 0.882,-2.56c0.066,-0.652 1.528,-14.381 5.137,-19.021c1.766,-2.266 8.051,-5.594 8.306,-5.729c0.00357,-0.00158 0.00693,-0.00359 0.01,-0.006c0.041,-0.032 0.098,-0.036 0.145,-0.056v0.002c2.099,-1.3 7.375,-1.487 7.375,-1.487l1.772,0.066h0.147l1.77,-0.1c0,0 4.655,0.219 6.95,1.33c0.171,0.05 0.346,0.17 0.496,0.244l11.777,4.24l5.548,-6.554v0.002c-0.095,-0.264 -0.163,-0.549 -0.21,-0.845c-0.354,-0.65 -0.647,-1.467 -0.822,-2.377c-0.463,-2.375 0.051,-4.478 1.145,-4.69c0.585,-0.117 1.219,0.334 1.75,1.143c1.179,-1.139 2.631,-1.613 3.846,-1.096" data-paper-data="{&quot;origPos&quot;:null}" fill="#c0936a"/><path d="M238.611,171.351c0.00865,0.18192 0.02132,0.36364 0.038,0.545c0.145,1.772 0.837,7.28 3.784,7.524c2.62,10.264 2.993,25.726 2.993,25.726l0.007,2.056h-32.196l0.038,-2.064c0,0 0.265,-13.272 2.388,-23.375c0.025,-0.125 0.102,-0.204 0.17,-0.345c0.051,0.053 0.316,-0.129 0.444,-0.217c1.16,-0.802 3.775,-3.626 3.794,-9.82l0.005,-0.015c1.148,-0.729 3.29,-1.124 4.975,-1.332c0,0 0.313,11.356 4.34,11.343c4.021,-0.009 4.256,-11.341 4.256,-11.341c1.522,0.18 3.401,0.509 4.582,1.107c0.143,0.073 0.261,0.128 0.381,0.208c-0.008,-0.01 0,0 0,0" fill="#e63744"/><path d="M229.405,182.812c-4.153,0.008 -5.148,-9.247 -5.368,-12.637c0.348,-0.056 0.69,-0.101 1.015,-0.141c0,0 0.311,11.355 4.338,11.342c4.023,-0.008 4.256,-11.34 4.256,-11.34c0.333,0.038 0.679,0.083 1.033,0.137c-0.199,3.385 -1.127,12.626 -5.274,12.639" fill="#343434"/><path d="M227.51,171.311c-1.075,0 -1.945,-2.319 -1.945,-3.38h7.654c0,1.061 -0.871,3.38 -1.945,3.38h-3.764" data-paper-data="{&quot;origPos&quot;:null}" fill="#c0936a"/><path d="M226.476,170.597c-0.434,-0.66 -0.822,-1.577 -0.895,-2.24c1.213,0.197 2.46,0.305 3.73,0.305c1.30442,-0.00072 2.60642,-0.11212 3.892,-0.333l-0.01,0.013l-6.717,2.255" fill="#eeac6c"/><path d="M206.54,149.008c-0.17265,-1.15194 -0.25889,-2.31519 -0.258,-3.48c0,-12.784 10.315,-23.15 23.04,-23.15c12.721,0 23.036,10.366 23.036,23.15c0.00016,1.11223 -0.07904,2.22305 -0.237,3.324c1.33,0.731 2.229,2.11 2.229,3.694c0,2.347 -1.973,4.252 -4.403,4.252c-0.162,0 -0.324,-0.008 -0.484,-0.027c-3.935,7.103 -11.481,11.909 -20.141,11.909c-8.658,0 -16.197,-4.797 -20.134,-11.888c-0.07,0.004 -0.137,0.006 -0.208,0.006c-2.427,0 -4.398,-1.905 -4.398,-4.252c0,-1.476 0.775,-2.776 1.958,-3.538" data-paper-data="{&quot;origPos&quot;:null}" fill="#c0936a"/><path d="M225.311,143.65c0,0 -0.503,1.803 -2.082,1.446c-0.772,-0.174 -0.908,-1.201 -3.386,-0.74c-0.779,0.18 -2.417,1.156 -2.732,1.808c-0.316,0.652 -0.088,-2.392 2.457,-3.522c1.835,-0.675 2.457,-0.642 3.977,-0.642c1.52,0 1.987,0.907 1.766,1.65M235.052,143.65c0,0 0.503,1.803 2.082,1.446c0.772,-0.174 0.908,-1.201 3.386,-0.74c0.779,0.18 2.417,1.156 2.732,1.808c0.316,0.652 0.087,-2.392 -2.457,-3.522c-1.835,-0.675 -2.457,-0.642 -3.977,-0.642c-1.52,0 -1.987,0.907 -1.766,1.65" data-paper-data="{&quot;origPos&quot;:null}" fill="#6f4832"/><path d="M222.69336,151c0,1.657 -0.895,3 -2,3c-1.105,0 -2,-1.343 -2,-3c0,-1.657 0.895,-3 2,-3c1.105,0 2,1.343 2,3M240.69336,151c0,1.657 -0.895,3 -2,3c-1.105,0 -2,-1.343 -2,-3c0,-1.657 0.895,-3 2,-3c1.105,0 2,1.343 2,3" data-paper-data="{&quot;origPos&quot;:null}" fill="#694027"/><path d="M230.02,154.069c-1.125,0.153 -3.02,1.834 -3.02,1.834c0,0 0.207,-1.009 0.503,-1.299c0.8,-1.156 2.487,-1.604 2.487,-1.604c0,0 2.173,0.703 2.65,1.588c0.443,0.824 0.34,1.238 0.34,1.238c0,0 -2.121,-1.871 -2.96,-1.756z" fill="#eeac6c"/><path d="M223.2,157.696c0,0 6.897,3.208 13.172,-0.397c0,0 -1.39,5.47 -5.95,5.561c-4.115,0.122 -4.984,-1.492 -5.477,-1.956c-0.492,-0.463 -1.42,-1.772 -1.745,-3.208" data-paper-data="{&quot;origPos&quot;:null}" fill="#a33d47"/><path d="M253.171,142.739c0.039,2.706 -1.164,6.469 -1.164,6.469c0,0 -6.085,-7.241 -9.8,-9.273c-4.535,-2.48 -6.795,1.174 -10.855,-2.042c-0.672,-0.536 -1.924,-1.948 -1.924,-1.948c0,0 -1.528,1.549 -1.93,1.947c-4.562,4.485 -7.98,-0.75 -11.82,1.96c-4.885,3.45 -9.016,9.191 -9.016,9.191c0,0 -1.42,-1.631 -1.222,-6.557c0.056,-1.418 0.739,-4.565 1.856,-7.762c4.031,-8.136 12.392,-13.724 22.052,-13.724c11.091,0 20.472,7.376 23.55,17.506c0.15842,1.40618 0.24952,2.81912 0.273,4.234" data-paper-data="{&quot;origPos&quot;:null}" fill="#6f4832"/><path d="M278.338,147.468c0,7.973 -6.43,14.437 -14.367,14.437c-7.936,0 -14.37,-6.464 -14.37,-14.437c0,-7.974 6.434,-14.437 14.37,-14.437c7.936,0 14.367,6.463 14.367,14.437" fill="#f08314"/><path d="M265.139,159.56c4.704,0 8.904,-2.178 11.658,-5.583c-2.365,4.705 -7.221,7.93 -12.825,7.93c-7.939,0 -14.369,-6.467 -14.369,-14.44c-0.00131,-1.34241 0.18379,-2.6785 0.55,-3.97c-0.019,0.321 -0.033,0.645 -0.033,0.973c0,8.336 6.724,15.09 15.02,15.09" fill="#c86a14"/><path d="M264.422,133.037c3.87963,0.12167 7.54353,1.81359 10.152,4.688c-0.22,3.111 -2.798,5.565 -5.95,5.565c-3.297,0 -5.967,-2.684 -5.967,-5.997c-0.00375,-1.59747 0.63182,-3.13003 1.765,-4.256" fill="#f2933d"/><path d="M276.255,139.974c0.03,0.05 0.058,0.099 0.09,0.15c-2.06529,0.14123 -4.12444,0.36105 -6.173,0.659c0.056,2.147 1.495,3.33 3.16,4.694c1.19,0.978 2.541,2.088 3.54,3.718c0.40226,0.65545 0.72361,1.35723 0.957,2.09c-0.022,0.086 -0.045,0.169 -0.069,0.253c-0.892,-2.956 -2.792,-4.516 -4.526,-5.941c-1.689,-1.386 -3.149,-2.585 -3.211,-4.791c-1.11925,0.16589 -2.23426,0.35928 -3.344,0.58c0.434,2.984 0.451,6.264 0.047,9.796c-0.468,4.085 -1.428,7.859 -2.321,10.716c-0.053,0 -0.109,0.005 -0.163,0.005c0.893,-2.853 1.863,-6.643 2.33,-10.743c0.342,-2.98 0.436,-6.354 -0.064,-9.742c-1.99458,0.40053 -3.96774,0.90116 -5.912,1.5c1.076,2.323 -1.017,4.904 -3.437,7.888c-1.491,1.837 -3.081,3.798 -4.188,5.948c-0.034,-0.039 -0.07,-0.082 -0.1,-0.123l0.002,-0.004c1.117,-2.163 2.738,-4.158 4.166,-5.919c2.393,-2.95 4.467,-5.503 3.408,-7.743c-3.707,1.165 -7.516,2.817 -10.832,5.147c-0.002,-0.067 -0.004,-0.133 -0.004,-0.198c1.58808,-1.10236 3.26754,-2.06687 5.02,-2.883c1.86274,-0.86487 3.78138,-1.60386 5.743,-2.212c-0.606,-1.114 -2.073,-2.073 -4.26,-2.774c-1.214,-0.389 -2.568,-0.667 -3.93,-0.835c0.034,-0.047 0.068,-0.096 0.098,-0.144c1.379,0.176 2.716,0.457 3.882,0.835c1.565,0.5 3.584,1.403 4.357,2.873c1.96038,-0.605 3.9507,-1.10834 5.963,-1.508c-0.428,-2.817 -1.274,-5.634 -2.73,-8.233c0.066,-0.002 0.13,-0.002 0.196,-0.002c0.80401,1.4489 1.44364,2.98308 1.907,4.574c0.35004,1.18918 0.61603,2.4015 0.796,3.628c0.284,-0.055 0.571,-0.113 0.858,-0.165c0.83423,-0.15361 1.67101,-0.29297 2.51,-0.418c-0.007,-1.757 0.597,-3.671 1.656,-5.37c0.04215,0.02624 0.08383,0.05324 0.125,0.081c-1.1,1.755 -1.63,3.65 -1.63,5.267c2.01869,-0.29462 4.04781,-0.51278 6.083,-0.654" fill="#000001"/></g></g></svg>