<svg xmlns="http://www.w3.org/2000/svg" width="120" height="120"><g fill="none"><path fill="#EFA733" d="m1.204 72.608 15.594-15.594 47.303 47.303-15.594 15.594z"/><path fill="#CC861F" d="m16.805 57.054 6.525-.873 41.58 41.535-.826 6.616z"/><path fill="#6D1B2A" d="m28.981 55.032-5.697 1.103L64.91 97.716l1.148-5.56z"/><path fill="#9E2D3D" d="m29.532 52.551-.55 2.481 16.677 16.725 3.676 3.675L66.06 92.157l2.527-.643.552-2.436-16.724-16.724-3.676-3.676-16.724-16.724z"/><path fill="#9E2D3D" d="m32.61 49.473-.55 2.481 16.678 16.724 3.676 3.676 16.724 16.724 2.527-.643.551-2.435-16.724-16.724-3.676-3.676-16.724-16.724z"/><path fill="#9E2D3D" d="m35.69 46.395-.552 2.48 16.678 16.68 3.676 3.72L72.216 86l2.527-.643.552-2.435L58.57 66.197l-3.675-3.675-16.679-16.725z"/><path fill="#9E2D3D" d="m38.768 43.316-.552 2.481 16.679 16.679 3.675 3.721 16.725 16.725 2.527-.644.551-2.435L61.649 63.12l-3.676-3.722L41.295 42.72zm3.078-3.078-.551 2.48 16.678 16.68 3.722 3.72 16.724 16.725L80.9 79.2l.551-2.435L64.727 60.04l-3.676-3.722L44.373 39.64z"/><path fill="#9E2D3D" d="m44.924 37.16-.551 2.48 16.678 16.68 3.722 3.722 16.724 16.724 2.481-.643.552-2.436-16.68-16.725-3.721-3.721L47.45 36.562zm3.079-3.079-.552 2.481L64.13 53.241l3.721 3.721 16.725 16.724 2.48-.643.552-2.435-16.724-16.724-3.676-3.722L50.53 33.484z"/><path fill="#9E2D3D" d="m51.081 31.003-.551 2.48 16.678 16.68 3.722 3.72 16.724 16.725 2.481-.643.551-2.435-16.678-16.725-3.722-3.721-16.678-16.679z"/><path fill="#6D1B2A" d="m32.61 49.473-.55 2.481 37.078 37.124 2.435-.597zm3.125-3.078h-.046l-.551 2.48L72.216 86l2.481-.643zm3.079-3.079h-.046l-.552 2.481 37.079 37.125 2.527-.644zm3.032-3.032-.551 2.435 37.124 37.124 2.39-.597zm3.078-3.124-.551 2.48 37.124 37.125 2.39-.597zm3.125-3.079h-.046l-.552 2.481 37.125 37.124 2.435-.643zm3.124-3.078h-.092l-.551 2.48 37.124 37.125 2.481-.643z"/><path fill="#9E2D3D" d="m54.16 27.924-.552 2.435 16.724 16.725 3.676 3.675 16.724 16.725 2.527-.598.552-2.48L77.086 47.68l-3.675-3.676L56.686 27.28z"/><path fill="#9E2D3D" d="m57.238 24.846-.552 2.435 16.725 16.724 3.675 3.676 16.725 16.724 2.527-.597.551-2.481-16.724-16.724-3.676-3.676-16.724-16.724z"/><path fill="#6D1B2A" d="M54.205 27.924h-.046l-.55 2.435 37.123 37.125 2.482-.598zm3.125-3.078h-.092l-.552 2.435 37.125 37.124 2.48-.597z"/><path fill="#EFA733" d="m61.74 12.027 9.282-9.281c2.205-2.205 5.743-2.205 7.902 0L118.3 42.122c2.205 2.205 2.205 5.743 0 7.902l-9.235 9.327L61.74 12.027z"/><path fill="#CC861F" d="m61.786 12.073-.918 6.524 41.58 41.581 6.617-.827z"/><path fill="#6D1B2A" d="m59.765 24.249 1.057-5.698 41.627 41.627-5.56 1.149z"/><path fill="#FFC14E" d="m79.338 13.727.689-.69c.551-.55.551-1.47 0-2.067l-2.435-2.435c-.551-.551-1.47-.551-2.068 0l-.689.69c-.551.55-.551 1.47 0 2.067l2.435 2.435c.598.551 1.516.551 2.068 0zm7.994 8.041.782-.782c.55-.55.505-1.47-.046-2.067l-2.39-2.39c-.597-.597-1.516-.597-2.067-.045l-.781.78c-.552.552-.506 1.471.046 2.068l2.389 2.39c.597.597 1.516.597 2.067.046zm8.041 8.04.781-.781c.551-.551.505-1.47-.046-2.068l-2.39-2.389c-.596-.597-1.515-.597-2.067-.046l-.78.781c-.552.552-.506 1.47.045 2.068l2.39 2.39c.597.55 1.516.596 2.067.045zm8.041 8.041.78-.781c.552-.552.506-1.47-.045-2.068l-2.39-2.39c-.597-.596-1.516-.596-2.067-.045l-.781.78c-.552.552-.506 1.471.046 2.069l2.389 2.389c.597.551 1.516.597 2.068.046zm8.04 7.994.69-.689c.55-.551.55-1.47 0-2.068l-2.436-2.435c-.551-.551-1.47-.551-2.067 0l-.69.69c-.551.55-.551 1.47 0 2.067l2.435 2.435c.598.552 1.517.552 2.068 0z"/><path fill="#FFF" d="m16.274 63.93 41.228 41.229-11.143 11.143L5.13 75.074z"/><path fill="#EFA733" d="m18.362 66.078.708.707L7.926 77.928l-.707-.707zm-8.319 13.964L21.186 68.9l.707.707L10.75 80.75zm2.798 2.814 11.143-11.143.708.707-11.144 11.143zm2.863 2.814 11.143-11.144.707.707-11.143 11.144zm2.798 2.812L29.646 77.34l.707.707L19.21 89.189zm2.799 2.814 11.143-11.143.707.707-11.143 11.143zm2.798 2.814 11.143-11.144.707.707-11.143 11.144zm2.863 2.813 11.143-11.144.707.708L27.67 97.63zm2.799 2.813 11.143-11.143.707.707-11.143 11.143zm2.798 2.814 11.143-11.144.707.707-11.143 11.143zm2.798 2.813L46.5 94.219l.707.707-11.143 11.144zm2.831 2.78L49.33 97l.707.707-11.143 11.143zm2.831 2.847 11.143-11.144.707.707-11.143 11.143zm13.917-8.34.707.707L44.5 114.5l-.707-.707z"/><path fill="#EFA733" d="m1.177 72.582.715-.715 47.303 47.303-.714.715z"/><path fill="#CC861F" d="m17.794 65.454 1.754 1.755-7.797 7.797-1.754-1.754zm5.621 5.581 1.754 1.754-7.797 7.797-1.754-1.754zm5.662 5.646 1.754 1.755-7.797 7.797-1.754-1.754zm5.556 5.581 1.754 1.754-7.797 7.797-1.755-1.754zm5.75 5.721 1.754 1.754-7.797 7.798-1.754-1.755zm5.63 5.679 1.754 1.754-7.797 7.797-1.754-1.754zm5.62 5.58 1.755 1.754-7.798 7.797-1.754-1.754z"/></g></svg>