<svg xmlns="http://www.w3.org/2000/svg" width="76.79" height="118.873"><g fill-rule="evenodd" stroke-miterlimit="10" data-paper-data="{&quot;isPaintingLayer&quot;:true}" style="mix-blend-mode:normal"><path fill="#303830" d="M69.213 106.45s5.556 2.016 5.253 4.05c-.28 2.017-7.144 1.437-9.62 1.009-2.485-.428-1.75-3.473-1.75-3.473s3.642.15 6.117-1.586m-35.301 7.086s1.307 1.019-.585 3.033c-1.903 2.037-9.781 3.193-10.657 1.457-.876-1.734 3.653-4.78 3.653-4.78s3.502 1.448 7.589.29"/><path fill="#666642" d="m65.57 91.678 6.992-2.813c-.874 11.957-3.35 17.585-3.35 17.585-2.474 1.736-6.117 1.586-6.117 1.586-2.777-1.447-8.171-7.953-8.171-7.953-4.53 1.875-9.34.716-9.34.716-4.236 8.974-11.672 12.736-11.672 12.736-4.086 1.158-7.588-.29-7.588-.29-3.654-7.954-4.67-21.706-4.67-21.706l.06-.116c4.552 2.164 15.77 6.01 35.24 3.878 0 0 3.807-5.06 4.238-11.577 0 0 3.07 3.184 4.378 7.954m-15.256-28.11c-2.02.058-3.713.625-3.713.625-1.505.382-2.439 1.333-2.847 2.34l-.072-.026c-8.114-1.167-8.37-5.601-8.335-6.506 5.243-1.816 7.659-5.892 7.659-5.892s.361.025.968.025v.07s3.444 2.418 6.34 9.365"/><path fill="#666642" d="M19.273 79.093c-2.23-1.817-4.087-3.82-5.357-5.788-5.99-9.262.676-19.59.676-19.59l.14-.104c2.067 2.64 5.008 5 9.2 6.288 4.727 1.445 8.51 1.12 11.415.102-.033.904.222 5.339 8.335 6.507l.071.025c-.654 1.63.035 3.449 1.832 3.449 2.919 0 5.254-4.931 5.254-4.931 3.35-1.008 5.252 2.465 5.252 2.465s-.291 1.042-.874 2.617a46.136 46.136 0 0 1-1.46 3.53c-1.085 2.385-2.557 5.047-4.39 7.166-8.382 9.24-21.83 5.002-30.094-1.736"/><path fill="#666642" d="m57.399 82.278-3.21 9.7s-22.028.857-35.173-5.21c0 0-.7-4.896.257-7.675 8.265 6.738 21.712 10.976 30.094 1.736 1.833-2.12 3.305-4.78 4.39-7.166l.14.07s3.058 5.65 3.502 8.544M70.1 62.782c-1.588 3.739-5.114 6.887-11.067 7.373a20.4 20.4 0 0 1-3.373.012 3.18 3.18 0 0 1-.444-.034c.584-1.575.876-2.617.876-2.617.431-1.886 1.016-2.465 1.016-2.465 1.901-1.586 2.182-3.612 2.182-3.612-1.634-.07-2.977.092-4.062.38l-.023-.09c-.946-4.83-4.274-7.666-4.752-8.06 2.65-.427 5.394-1.271 7.144-2.848 2.078-1.886 3.292-3.76 3.968-5.186l.06.035s7.156 1.874 9.058 8.683c.723 2.58.595 5.662-.583 8.429"/><path fill="#666642" d="M76.158 82.798c-.01 0-.01.01-.01.023l-.071.175c-2.043 1.736-8.616 3.773-8.616 3.773-1.167-3.196-4.365-5.36-4.365-5.36-.42-4.296-3.782-10.721-4.064-11.253 5.954-.487 9.48-3.636 11.068-7.375 8.884 10.363 6.526 18.663 6.058 20.017"/><path fill="#74934f" d="m72.563 88.864-6.992 2.813c-1.309-4.77-4.378-7.954-4.378-7.954s-2.626-11.287-5.545-13.465l.012-.09a20.4 20.4 0 0 0 3.373-.013c.28.533 3.644 6.958 4.063 11.254 0 0 3.198 2.164 4.366 5.36 0 0 6.572-2.037 8.615-3.774l.07-.175c-.444 2.5-1.237 5.107-1.237 5.107z"/><path fill="#74934f" d="M55.648 70.259c2.919 2.178 5.545 13.465 5.545 13.465-.433 6.518-4.237 11.577-4.237 11.577-19.472 2.13-30.69-1.714-35.243-3.877-1.623-.776-2.393-1.332-2.393-1.332l-.305-3.323c13.145 6.067 35.174 5.21 35.174 5.21l3.21-9.702c-.443-2.895-3.501-8.543-3.501-8.543l-.14-.071a46.173 46.173 0 0 0 1.458-3.53c.151.022.304.035.443.035zm-.443-8.531.023.092c-.982.267-1.764.626-2.37 1.018-1.564-5.626-4.587-8.3-5.253-8.821.954-.07 1.905-.185 2.848-.346.478.392 3.806 3.229 4.752 8.057"/><path fill="#74934f" d="M52.858 62.838a6.816 6.816 0 0 0-.993.788l-.011-.013a10.113 10.113 0 0 0-1.54-.045c-2.896-6.946-6.34-9.365-6.34-9.365v-.07c.829.01 2.124 0 3.631-.117.666.522 3.69 3.197 5.253 8.823"/><path fill="#ebd18e" d="M34.519 8.323c-.923.186-3.853.996-8.825 4.678.198-.244 3.443-4.018 8.825-4.678m-11.651 3.913s5.148-6.565 11.967-6.367c0 0-4.671.578-11.967 6.367"/><path fill="#9e6d3e" stroke="#9e6d3e" stroke-width=".5" d="M66.738 29.983c1.552 8.3-4.285 13.128-4.285 13.128-1.599-3.96-2.427-7.432-2.777-10.394l-.036-.046c1.214-.915 2.207-2.41 2.628-4.806 0 0-1.378 1.192-2.815 1.365-.047-5.162 1.32-8.056 1.448-8.3 3.572 1.784 5.078 4.979 5.837 9.053M35.347 60c-2.907 1.019-6.69 1.343-11.417-.102-4.19-1.287-7.132-3.648-9.198-6.288-2.895-3.714-4.062-7.953-4.519-10.453 1.204-.615 14.29-6.97 24.645.3l.08.025c-.397 2.072-1.552 3.947-4.388 5.22 0 0 5.592.985 8.79-.915 1.342 1.725 2.567 3.81 3.666 6.322 0 0-2.416 4.075-7.659 5.89" data-paper-data="{&quot;origPos&quot;:null}"/><path fill="#fefefe" d="M30.936 24.39a1.159 1.159 0 0 1 0 2.316c-.643 0-1.17-.52-1.17-1.155 0-.637.527-1.16 1.17-1.16m16.342-7.523c.654 0 1.168.52 1.168 1.157 0 .636-.514 1.157-1.168 1.157-.64 0-1.162-.516-1.167-1.157 0-.637.525-1.158 1.167-1.158"/><path fill="#3f3a3a" d="M48.445 18.025c0-.637-.514-1.158-1.167-1.158-.642 0-1.168.52-1.168 1.158 0 .637.526 1.157 1.168 1.157.653 0 1.167-.52 1.167-1.157m-1.552-2.12c1.716 0 3.116 1.38 3.116 3.08 0 1.714-1.4 3.092-3.116 3.092-1.716 0-3.117-1.378-3.117-3.092 0-1.7 1.4-3.08 3.117-3.08M32.102 25.55a1.16 1.16 0 0 0-1.167-1.16c-.642 0-1.167.523-1.167 1.16 0 .637.525 1.158 1.167 1.158.653 0 1.167-.521 1.167-1.158m-1.552-2.12c1.716 0 3.116 1.38 3.116 3.08 0 1.714-1.4 3.09-3.116 3.09-1.716 0-3.117-1.376-3.117-3.09 0-1.7 1.401-3.08 3.117-3.08"/><path fill="#9f9fa0" d="M39.34 47.788c-3.198 1.9-8.79.915-8.79.915 2.836-1.273 3.991-3.148 4.389-5.22.805-4.17-1.413-9.11 1.062-11.566 3.69-3.67 8.557-1.737 8.557-1.737s.782-3.09 4.47-4.434c3.702-1.355 6.819 1.158 8.57 2.894.548.544 1.213.672 1.855.59 1.436-.173 2.814-1.364 2.814-1.364-.42 2.395-1.412 3.89-2.627 4.805-2.217 1.677-5.137 1.422-6.525 1.18-2.137-.393-3.502 1.156-3.69 2.697-.197 1.54-2.73 1.933-5.252 1.933-2.534 0-2.148 2.696-2.732 6.367-.245 1.39-1.04 2.34-2.101 2.94m13.191-34.013c.98 2.13-1.167 1.934-3.502.776-2.335-1.157-8.556-1.157-8.171-3.09.396-1.922 8.37-.961 8.37-.961 1.949 0 2.334 1.158 3.303 3.275"/><path fill="#9e6d3e" d="M47.605 54.017c-1.208.093-2.42.132-3.632.117-.606 0-.968-.025-.968-.025-1.097-2.51-2.322-4.597-3.665-6.32 1.062-.602 1.856-1.55 2.1-2.942.585-3.67.2-6.366 2.733-6.366 2.521 0 5.054-.394 5.252-1.934.187-1.54 1.554-3.09 3.69-2.697 1.39.242 4.307.499 6.525-1.18l.036.047c.35 2.963 1.178 6.436 2.777 10.395 0 0-.01 0 0 .01-.023.116-.198 1.1-.887 2.514-.676 1.423-1.89 3.298-3.97 5.186-1.75 1.576-4.493 2.42-7.144 2.848a29.66 29.66 0 0 1-2.847.347" data-paper-data="{&quot;origPos&quot;:null}"/><path fill="#9e6d3e" d="M28.8 17.063c.384-2.893-7.205 2.699-7.205 2.699-2.917 1.932-2.917 8.879-1.354 9.458 1.554.578 3.304-1.552 3.304-1.552s4.868-7.71 5.254-10.605m4.868 9.448c0-1.7-1.402-3.08-3.118-3.08s-3.117 1.38-3.117 3.08c0 1.714 1.401 3.09 3.117 3.09s3.118-1.376 3.118-3.09m1.167-20.643c-6.817-.198-11.965 6.367-11.965 6.367 7.295-5.79 11.965-6.367 11.965-6.367m15.174 13.116c0-1.7-1.4-3.08-3.115-3.08-1.716 0-3.117 1.38-3.117 3.08 0 1.714 1.4 3.092 3.117 3.092 1.716 0 3.115-1.378 3.115-3.092m-.98-4.434c2.336 1.158 4.484 1.355 3.504-.775-.97-2.118-1.355-3.276-3.305-3.276 0 0-7.973-.961-8.37.96-.384 1.934 5.838 1.934 8.171 3.09m10.508 5.79c.49.173.944.37 1.365.59-.129.245-1.494 3.138-1.448 8.3-.642.08-1.307-.045-1.856-.59-1.75-1.735-4.867-4.25-8.569-2.893-3.688 1.343-4.47 4.433-4.47 4.433s-4.868-1.932-8.557 1.737c-2.475 2.455-.257 7.397-1.063 11.567l-.08-.026c-10.356-7.268-23.442-.915-24.645-.3-.243-1.343-.291-2.175-.291-2.175-5.312 0-7.47-2.213-7.926-4.643-.327-1.736.222-3.59 1.12-4.806 2.136-2.893 6.62-1.354 8.557-.195 1.95 1.157 4.087 2.118 5.066.195.97-1.933-.979-7.72-1.166-10.998-.2-3.286-3.702-4.827-2.92-7.918 2.92-7.525 13.425-9.644 13.425-9.644 9.643-2.083 16.203.036 20.558 3.115 5.755 4.063 7.646 9.817 7.646 9.817 1.167 1.54 2.533 3.473 5.254 4.434M34.54 8.324c.095-.025.187-.036.293-.047 0 0-.094.01-.293.047m-.022 0c-5.382.66-8.628 4.433-8.826 4.677 4.973-3.682 7.903-4.492 8.826-4.677m18.34 54.514c.606-.392 1.388-.752 2.37-1.018 1.085-.29 2.428-.451 4.062-.382 0 0-.28 2.027-2.182 3.613 0 0-.585.58-1.016 2.465 0 0-1.903-3.473-5.254-2.465 0 0 .244-.66 1.027-1.425.27-.254.595-.532.993-.787" data-paper-data="{&quot;origPos&quot;:null}"/><path fill="#9e6d3e" d="M50.314 63.568a9.94 9.94 0 0 1 1.54.046l.01.012c-.78.765-1.026 1.425-1.026 1.425s-2.334 4.93-5.253 4.93c-1.798 0-2.487-1.817-1.831-3.448.408-1.007 1.342-1.958 2.847-2.34 0 0 1.693-.567 3.713-.624" data-paper-data="{&quot;origPos&quot;:null}"/><path fill="#9f9fa0" d="M14.79 4.514C33.445-6.241 46.135 5.533 46.671 6.043l-.035.046C42.282 3.009 35.722.89 26.079 2.975c0 0-10.507 2.117-13.424 9.643-.784 3.09 2.719 4.63 2.917 7.919.188 3.277 2.138 9.064 1.168 10.998-.981 1.923-3.117.96-5.067-.197-1.937-1.157-6.42-2.697-8.557.197-.899 1.216-1.446 3.069-1.12 4.805.455 2.43 2.615 4.642 7.927 4.642 0 0 .046.833.291 2.176.455 2.5 1.624 6.738 4.518 10.454l-.14.104C5.791 49.236 2.37 42.3 1.004 36.57.128 32.935.082 29.776 0 28.06 0 13.777 14.79 4.515 14.79 4.515"/><path fill="#9f9fa0" d="M21.596 19.76s7.589-5.591 7.204-2.697c-.387 2.896-5.254 10.606-5.254 10.606s-1.75 2.129-3.304 1.552c-1.564-.58-1.564-7.526 1.354-9.46"/><path fill="#865c34" d="M20.123 29.142c.037 3.705-.163 7.65-.083 11.076-5.174.659-9.186 2.613-9.827 2.94-.243-1.344-.29-2.176-.29-2.176-5.313 0-7.472-2.212-7.926-4.642-.328-1.735.22-3.59 1.12-4.805 2.136-2.894 6.619-1.354 8.556-.197 1.95 1.158 4.087 2.119 5.067.197.97-1.934-.98-7.721-1.167-11-.199-3.286-3.702-4.827-2.919-7.917 2.919-7.526 13.425-9.643 13.425-9.643l.112-.022c-3.718 1.368-7.57 3.589-9.455 7.16-.973 2.316-1.169 3.859 1.557 8.489.657 1.12 1.085 2.546 1.362 4.162-.783 2.6-.5 5.778.468 6.378m21.325 21.852c6.518-.142 16.174-1.892 20.074-10.395a46.6 46.6 0 0 0 .932 2.513s-.011 0 0 .01c-.023.117-.199 1.1-.888 2.513-.677 1.425-1.891 3.3-3.968 5.186-1.751 1.576-4.495 2.42-7.145 2.85-.943.161-1.894.277-2.848.346-1.507.117-2.801.128-3.631.117-.606 0-.968-.024-.968-.024a33.91 33.91 0 0 0-1.558-3.116" data-paper-data="{&quot;origPos&quot;:null}"/><path fill="#888889" d="M20.238 3.553c11.243-4.906 20.826-.748 24.636 1.42-4.305-2.433-10.373-3.82-18.795-2 0 0-10.507 2.12-13.424 9.645-.783 3.09 2.719 4.632 2.917 7.918.188 3.277 2.137 9.066 1.168 10.999-.981 1.923-3.117.962-5.067-.196-1.937-1.16-6.42-2.7-8.557.196-.898 1.215-1.446 3.07-1.12 4.804.455 2.432 2.615 4.644 7.926 4.644 0 0 .047.83.292 2.175.456 2.5 1.624 6.739 4.518 10.453l-.14.105C5.791 49.235 2.37 42.3 1.004 36.57.128 32.936.082 29.775 0 28.062c0-4.162 1.26-7.894 3.039-11.097-.449 2.31-.397 4.668 1.439 5.306C8.37 23.62 5.646 9.92 20.238 3.553M46.594 5.97a2.9 2.9 0 0 1 .077.073l-.035.046-.042-.12"/><path fill="#888889" d="M28.623 16.383c.149.13.222.34.176.68-.386 2.895-5.254 10.605-5.254 10.605s-1.75 2.13-3.304 1.553c-.784-.291-1.172-2.18-1.002-4.23.201 1.087.83 2.077 2.702.56 3.03-2.46 7.096-7.623 6.682-9.168m23.908-2.608c.981 2.13-1.167 1.934-3.502.776-2.301-1.142-8.371-1.16-8.171-3.015.374.249 1.012.46 2.095.555 3.356.29 9.485 2.749 7.442-.433a4.864 4.864 0 0 0-1.036-1.147c1.826.054 2.228 1.2 3.172 3.264m4.284 17.853c2.61.62 4.542-2.085 5.433-3.68-.428 2.346-1.409 3.819-2.608 4.723-2.218 1.677-5.136 1.422-6.525 1.18-2.136-.393-3.502 1.157-3.69 2.697-.198 1.539-2.731 1.933-5.253 1.933-2.532 0-2.147 2.697-2.731 6.367-.244 1.39-1.039 2.34-2.1 2.94-3.2 1.9-8.793.915-8.793.915 2.837-1.273 3.994-3.148 4.39-5.22.341-1.764.141-3.662-.015-5.454 1.463 4.234.295 8.358.295 8.358 2.482-1.011 4.379-4.05 4.669-7.67.292-3.616 2.337-4.628 3.65-4.34 1.313.29 3.211.144 4.522-1.881 1.314-2.026 5.109-1.737 8.756-.868"/><path fill="#595a3a" d="M21.211 73.014c5.119 5.194 22.293 12.85 30.599 4.382-.724 1.21-1.538 2.389-2.442 3.433-8.383 9.24-21.829 5.002-30.096-1.736-2.228-1.818-4.085-3.82-5.357-5.788-5.989-9.262.677-19.59.677-19.59l.14-.104c2.067 2.64 5.008 5 9.199 6.288 4.095 1.253 7.477 1.174 10.2.47-1.209 1.139-3.966 2.24-10.294 1.069-3.795-.58-9.047 5.066-2.626 11.576"/><path fill="#595a3a" d="M42.953 57.386c-1.401.832-3.584 6.452 1.917 7.672a3.72 3.72 0 0 0-1.116 1.475l-.072-.026c-8.114-1.167-8.37-5.602-8.336-6.506 5.244-1.816 7.66-5.891 7.66-5.891s.361.023.968.023v.07s1.205.854 2.785 2.977c-1.109-.188-2.856-.36-3.806.206m9.877-1.101c-1.074-1.508-2.125-2.407-2.378-2.614 2.65-.43 5.395-1.274 7.145-2.85 2.079-1.886 3.293-3.761 3.97-5.186l.057.035s6.312 1.656 8.656 7.497c-.69-1.22-1.505-2.271-2.375-3.016-4.232-3.62-6.858 1.447-6.712 3.762.292 5.644-1.903 7.524-1.903 7.524l-.869-.29c1.75-10.128-5.837-5.498-5.837-5.498zm4.623 8.434c-.649 2.435 2.731 4.698 7.879 3.505-1.693 1.014-3.763 1.725-6.299 1.93-1.05.095-2.171.104-3.374.013-.139 0-.292-.012-.443-.034.583-1.575.875-2.617.875-2.617.433-1.885 1.017-2.465 1.017-2.465.128-.108.231-.222.345-.332M55.25 76.426c.879 1.857 1.906 4.267 2.149 5.85l-3.21 9.703s-22.028.856-35.174-5.21c0 0-.7-4.896.257-7.676 8.266 6.738 21.713 10.976 30.096 1.736 1.832-2.12 3.304-4.781 4.389-7.166l.14.07c.302.568.596 1.14.88 1.717-3.804 17.43-26.257 8.367-25.833 11.603.439 3.327 18.095 2.894 22.91 2.314 3.556-.427 3.611-8.66 3.396-12.941"/><path fill="#47482c" d="M54.509 74.915c-.88 2.948-4.32 11.229-15.11 11.104 3.642-.446 7.102-2.03 9.968-5.19 1.833-2.12 3.305-4.781 4.39-7.166l.14.07s.252.468.612 1.182M21.503 82.95c-.699 1.647-.134 4.07 2.88 5.807-1.889-.562-3.7-1.221-5.368-1.99 0 0-.7-4.895.257-7.674 2.826 2.302 6.257 4.312 9.882 5.592-6.429-1.447-7.068-3.11-7.651-1.735"/><path fill="#595a3a" d="M68.587 70.026c-1.497 1.874-6.309 2.862-8.086 3.17a56.572 56.572 0 0 0-1.468-3.04c5.954-.487 9.48-3.634 11.068-7.374 2.461 2.872 4.038 5.575 5.053 8.028-1.817-2.898-4.997-2.752-6.567-.784m7.799 4.69c.902 4.326.036 7.316-.228 8.082-.011 0-.011.012-.011.022l-.07.175c-2.043 1.737-8.616 3.774-8.616 3.774-1.167-3.196-4.365-5.36-4.365-5.36-.115-1.165-.447-2.486-.875-3.806 2.82 3.792 6.797 6.237 9.478 5.735 3.074-.576 5.077-4.535 4.687-8.622"/><path fill="#47482c" d="M68.197 67.613c-2.935 3.476-7.429 3.36-8.81 3.233a42.45 42.45 0 0 0-.354-.691c5.954-.486 9.479-3.634 11.068-7.373 1.579 1.843 2.791 3.615 3.727 5.297-2.307-2.824-4.144-2.104-5.63-.466"/><path fill="#627d42" d="M45.004 55.119c-.631-.632-1.03-.916-1.03-.916v-.07c.829.01 2.124 0 3.631-.117.664.523 3.689 3.196 5.253 8.823-.018.01-.031.023-.048.035-3.778-8.787-6.919-8.164-7.806-7.755m10.644 15.14c2.919 2.178 5.545 13.465 5.545 13.465C60.76 90.24 56.956 95.3 56.956 95.3c-19.472 2.13-30.69-1.714-35.243-3.877-1.623-.776-2.393-1.332-2.393-1.332 14.937 7.043 34.967 5.112 36.717 4.726 1.752-.384 4.28-8.876 4.378-11.191.098-2.316-3.017-9.743-4.085-11.48-.781-1.267-1.664.953-2.086 2.248-.21-.411-.347-.661-.347-.661l-.14-.072a46.177 46.177 0 0 0 1.459-3.53c.146.023.294.035.442.036l-.01.09"/><path fill="#627d42" d="M56.544 71.213c-.293-.4-.593-.726-.895-.954l.01-.093c1.123.09 2.252.086 3.375-.01.056.106.236.454.49.964-1.082-.127-2.217-.021-2.98.093m19.602 11.615c-.444 2.498-1.236 5.098-1.236 5.098l-2.348.937-6.991 2.815c-1.308-4.77-4.378-7.954-4.378-7.954 2.432 1.159 4.767 7.043 4.767 7.043l8.074-3.087L76.07 83l.007-.005.051-.127zM51.341 54.496c-.986.022-2.387.112-2.761.428a10.167 10.167 0 0 0-.975-.908 29.34 29.34 0 0 0 2.848-.345c.128.104.458.385.888.825"/><path fill="#865c34" d="M51.865 63.626c-.783.764-1.027 1.426-1.027 1.426s-2.335 4.93-5.255 4.93c-1.356 0-2.08-1.04-2.07-2.25.289.394.725.715 1.24.942 1.751.77 3.696-2.51 5.155-3.86.688-.637-.302-.926-1.564-1.038.574-.102 1.25-.187 1.97-.207a9.94 9.94 0 0 1 1.54.045z" data-paper-data="{&quot;origPos&quot;:null}"/><path fill="#865c34" d="M56.306 61.599a14.68 14.68 0 0 1 2.984-.161s-.281 2.027-2.183 3.613c0 0-.584.579-1.016 2.465 0 0-1.903-3.473-5.254-2.465 1.126-1.79 4.616-.044 6.466-1.78.995-.937.068-1.421-.997-1.672" data-paper-data="{&quot;origPos&quot;:null}"/><path fill="#595a3a" d="M72.563 88.865c-.875 11.957-3.35 17.585-3.35 17.585-2.475 1.736-6.118 1.586-6.118 1.586-2.777-1.447-8.171-7.953-8.171-7.953-4.529 1.876-9.339.716-9.339.716-4.237 8.974-11.673 12.736-11.673 12.736-4.086 1.158-7.588-.29-7.588-.29-3.654-7.954-4.67-21.706-4.67-21.706l.059-.116c.448.21.901.412 1.359.602.731 9.782 3.048 21.693 7.283 21.51 4.476-.19 10.117-9.841 11.48-11.192 1.363-1.35 3.696-2.7 0-2.894-3.697-.192-3.697-2.12.194-2.314 3.891-.195 1.167-.772 1.167-.772-3.235 0-6.395-.57-9.221-1.355 5.78.938 13.371 1.344 22.98.293 0 0 3.806-5.06 4.237-11.577 0 0 3.071 3.184 4.378 7.954z"/><path fill="#47482c" d="M72.563 88.865c-.875 11.957-3.35 17.585-3.35 17.585-.712.499-1.522.839-2.312 1.075.781-.607 1.33-1.015 1.588-1.13 1.751-.771 1.947-7.33 1.167-9.646-.779-2.316-3.503-.966-3.89-.386-.39.577-3.698-4.632-5.643-.388-1.393 3.042-13.067 2.124-19.579 1.356.488-.11.985-.176 1.485-.196 3.891-.195 1.167-.772 1.167-.772-3.213 0-6.349-.566-9.161-1.342a.023.023 0 0 1-.009-.008c5.774.934 13.348 1.337 22.929.288 0 0 3.806-5.06 4.237-11.577 0 0 3.071 3.184 4.378 7.954z"/><path fill="#22221c" d="M33.912 113.536s1.307 1.019-.585 3.033c-1.903 2.037-9.781 3.193-10.657 1.457-.877-1.734 3.653-4.781 3.653-4.781-4.81 4.342-2.582 4.535 1.503 3.956 2.625-.372 3.641-2.096 4.033-3.282a11.895 11.895 0 0 0 2.053-.383m36.98-6.371c1.608.766 3.767 2.045 3.574 3.335-.28 2.017-7.144 1.438-9.62 1.01-2.485-.43-1.75-3.473-1.75-3.473s.281.009.727-.01c.568 1.027 1.94 2.14 5.25 2.035 5.062-.163 4.421-1.607 1.819-2.897m-1.299-.57c-.126-.046-.25-.097-.38-.144 0 0 .15.054.38.146"/></g></svg>