<svg xmlns="http://www.w3.org/2000/svg" width="120" height="120"><g fill="none" fill-rule="evenodd"><path fill="#E5E6E3" d="M92.507 118.885H27.119a9.266 9.266 0 0 1-9.265-9.266V10.228A9.266 9.266 0 0 1 27.119.962h65.388a9.266 9.266 0 0 1 9.266 9.266v99.391a9.266 9.266 0 0 1-9.266 9.266"/><path fill="#1E517C" d="M25.347 1.644a6.82 6.82 0 0 0-6.811 6.812V111.39a6.82 6.82 0 0 0 6.811 6.812h68.932a6.82 6.82 0 0 0 6.812-6.812V8.456a6.82 6.82 0 0 0-6.812-6.812H25.347zm68.932 117.923H25.347c-4.508 0-8.175-3.668-8.175-8.176V8.456c0-4.508 3.667-8.176 8.175-8.176h68.932c4.509 0 8.176 3.668 8.176 8.176V111.39c0 4.508-3.667 8.176-8.176 8.176z"/><path fill="#AB2531" d="M37.21 55.274H26.307a1.15 1.15 0 0 1-1.15-1.15V43.222c0-.635.515-1.15 1.15-1.15H37.21c.636 0 1.15.515 1.15 1.15v10.902a1.15 1.15 0 0 1-1.15 1.15"/><path fill="#1E4F7A" d="M55.912 55.274H45.011a1.15 1.15 0 0 1-1.15-1.15V43.222c0-.635.515-1.15 1.15-1.15h10.901c.636 0 1.15.515 1.15 1.15v10.902a1.15 1.15 0 0 1-1.15 1.15m18.704 0H63.714a1.15 1.15 0 0 1-1.15-1.15V43.222c0-.635.515-1.15 1.15-1.15h10.902c.635 0 1.15.515 1.15 1.15v10.902a1.15 1.15 0 0 1-1.15 1.15m18.702 0h-10.9a1.15 1.15 0 0 1-1.151-1.15V43.222c0-.635.515-1.15 1.15-1.15h10.901a1.15 1.15 0 0 1 1.151 1.15v10.902a1.15 1.15 0 0 1-1.15 1.15M37.21 72.877H26.307a1.15 1.15 0 0 1-1.15-1.15V60.825c0-.635.515-1.15 1.15-1.15H37.21c.636 0 1.15.515 1.15 1.15v10.902a1.15 1.15 0 0 1-1.15 1.15m18.702 0H45.011a1.15 1.15 0 0 1-1.15-1.15V60.825c0-.635.515-1.15 1.15-1.15h10.901c.636 0 1.15.515 1.15 1.15v10.902a1.15 1.15 0 0 1-1.15 1.15m18.704 0H63.714a1.15 1.15 0 0 1-1.15-1.15V60.825c0-.635.515-1.15 1.15-1.15h10.902c.635 0 1.15.515 1.15 1.15v10.902a1.15 1.15 0 0 1-1.15 1.15m18.702 0h-10.9a1.15 1.15 0 0 1-1.151-1.15V60.825c0-.635.515-1.15 1.15-1.15h10.901a1.15 1.15 0 0 1 1.151 1.15v10.902a1.15 1.15 0 0 1-1.15 1.15M37.21 90.48H26.307a1.15 1.15 0 0 1-1.15-1.15V78.429a1.15 1.15 0 0 1 1.15-1.151H37.21c.636 0 1.15.515 1.15 1.15V89.33a1.15 1.15 0 0 1-1.15 1.15m18.702 0H45.011a1.15 1.15 0 0 1-1.15-1.15V78.429a1.15 1.15 0 0 1 1.15-1.151h10.901c.636 0 1.15.515 1.15 1.15V89.33a1.15 1.15 0 0 1-1.15 1.15m18.704 0H63.714a1.15 1.15 0 0 1-1.15-1.15V78.429a1.15 1.15 0 0 1 1.15-1.151h10.902c.635 0 1.15.515 1.15 1.15V89.33a1.15 1.15 0 0 1-1.15 1.15"/><path fill="#AB2531" d="M92.97 77.278H82.766c-.827 0-1.498.67-1.498 1.498v27.809c0 .827.67 1.498 1.498 1.498h10.206c.827 0 1.498-.67 1.498-1.498V78.776c0-.827-.67-1.498-1.498-1.498"/><path fill="#1E4F7A" d="M37.21 108.083H26.307a1.15 1.15 0 0 1-1.15-1.15V96.031a1.15 1.15 0 0 1 1.15-1.151H37.21c.636 0 1.15.515 1.15 1.15v10.901a1.15 1.15 0 0 1-1.15 1.151m18.702.001H45.011a1.15 1.15 0 0 1-1.15-1.15V96.031a1.15 1.15 0 0 1 1.15-1.151h10.901c.636 0 1.15.515 1.15 1.15v10.901a1.15 1.15 0 0 1-1.15 1.151m18.704.001H63.714a1.15 1.15 0 0 1-1.15-1.15V96.031a1.15 1.15 0 0 1 1.15-1.151h10.902c.635 0 1.15.515 1.15 1.15v10.901a1.15 1.15 0 0 1-1.15 1.151"/><path fill="#515251" d="M25.157 29.53H94.47V11.763H25.157z"/></g></svg>