<svg xmlns="http://www.w3.org/2000/svg" width="70.632" height="115.932"><g fill-rule="evenodd" stroke-miterlimit="10" data-paper-data="{&quot;isPaintingLayer&quot;:true}" style="mix-blend-mode:normal"><path fill="#bd9168" d="M46.554 109.859c.061.248-.019.519-.187.788-.554.882-1.531 1.524-2.352 2.114-1.28.894-2.904 1.385-4.32 2.078-1.277.555-2.96 1.592-4.122.309-1.541-1.828-.266-4.091 1.51-5.215h-.013l-.543-11.487 9.937-.08.09 11.493m10.766-.088c1.786 1.085 3.091 3.338 1.586 5.19-1.136 1.303-2.837.29-4.129-.24-1.43-.672-3.057-1.136-4.347-2.01-.837-.578-1.814-1.205-2.386-2.078-.175-.267-.257-.527-.2-.787l-.09-11.49 9.932-.08-.36 11.496h-.006" data-paper-data="{&quot;origPos&quot;:null}"/><path fill="#333433" d="M59.247 83.693s-1.33 10.255-1.56 14.62l-9.934.08c.047-1.71-.564-7.453-.564-7.453l-.286.003s-.491 6.14-.44 7.46l-9.936.077c-.269-5.118-1.792-14.588-1.792-14.588l9.348-.08 2.907-.02 3.162-.027z"/><path fill="#eeeeed" d="M46.53 109.839h.023c.062.25-.017.53-.185.8-.556.878-1.533 1.532-2.354 2.122a4.412 4.412 0 0 1-.411.265l-7.365.062-.02-2.48a5.11 5.11 0 0 1 .864-.694h-.012l-.186-3.863 9.616-.076z"/><path fill="#61c6f1" d="m46.501 106.42.002.192-9.59.075-.006-.192zm.004.382v.192l-9.568.074-.01-.19z"/><path fill="#eeeeed" d="m58.876 111.214.015 1.69-8.044.066c-.144-.08-.283-.176-.415-.258-.839-.587-1.817-1.217-2.388-2.087-.175-.267-.26-.542-.2-.797h.012l-.031-3.863 9.624-.08-.124 3.868h-.006a5.49 5.49 0 0 1 1.557 1.462z"/><path fill="#61c6f1" d="m47.827 106.409 9.605-.08-.006.194-9.596.076zm.004.383 9.589-.08-.004.193-9.585.077z"/><path fill="#e63744" d="M37.092 109.915s1.833-1.174 5.98-.048c1.67.176 2.176-1.382 2.96-1.734.391-.176.508-.005.508-.005l.015 1.712c.059.25-.018.53-.188.8-.555.875-1.53 1.529-2.353 2.122-1.28.894-2.903 1.38-4.318 2.072-1.277.559-2.962 1.59-4.125.3-1.538-1.824-.263-4.066 1.51-5.22h-.012v-.007l.023.008"/><path fill="#333433" d="M46.24 110.825c-.563.784-1.458 1.383-2.225 1.938-.539.374-1.134.679-1.757.952l-.168-.34c1.836-.553 3.94-2.743 3.94-2.743l.21.193"/><path fill="#9b1d2b" d="M37.031 111.097c2.436-.02 4.569.943 5.725 2.39-.999.49-2.079.869-3.061 1.348-1.277.558-2.962 1.587-4.124.3-1.068-1.27-.775-2.74.095-3.907.004-.006.008-.006.01-.016a8.503 8.503 0 0 1 1.355-.114"/><path fill="#e63744" d="M46.488 108.32c-.398.002-.718.745-.712 1.664.006.452.086.85.216 1.153.136-.157.265-.322.374-.498.169-.27.25-.55.187-.8l-.012-1.52zm10.819 1.433.019-.008v.008h-.006c1.785 1.122 3.092 3.344 1.586 5.196-1.136 1.305-2.839.303-4.129-.236-1.43-.668-3.057-1.128-4.347-2.001-.837-.582-1.816-1.218-2.386-2.087-.175-.267-.263-.542-.201-.797l-.013-1.71s.111-.176.512-.004c.782.34 1.31 1.89 2.985 1.685 4.123-1.193 5.98-.046 5.98-.046"/><path fill="#333433" d="m48.17 110.809.2-.193s2.144 2.153 3.987 2.677l-.164.342c-.624-.265-1.222-.555-1.761-.924-.778-.544-1.681-1.126-2.261-1.902"/><path fill="#9b1d2b" d="M57.382 110.936a8.63 8.63 0 0 1 1.356.09c.004.009.012.009.012.02.893 1.149 1.207 2.614.156 3.902-1.137 1.304-2.839.304-4.13-.234-.988-.462-2.072-.826-3.078-1.298 1.125-1.466 3.248-2.461 5.684-2.48"/><path fill="#e63744" d="M47.882 108.31c.397-.006.728.733.732 1.652.004.453-.064.85-.185 1.155a3.52 3.52 0 0 1-.385-.493c-.175-.267-.263-.542-.201-.797l-.01-1.517z"/><path fill="#bd9168" d="M69.998 77.339c.263 2.344-.833 4.383-2.45 4.567-1.057.122-2.072-.58-2.724-1.73-.596.5-1.185.705-1.615.48-.798-.417-.711-2.164.18-3.9a6.767 6.767 0 0 1 1.18-1.646c.035-.071.068-.144.107-.214 0 0-1.652-10.084-3.347-12.46-.854-1.19-1.92-2.128-2.11-2.66v-.002c1.384 9.997.026 23.918.026 23.918l-24.51.199s-1.833-15.312-.28-25.372v.015s-8.679 3.587-11.068 2.736c-2.956-1.054-6.414-10.684-6.414-10.684-1.274-.445-2.51-1.654-3.234-3.331-1.123-2.618-.568-5.376 1.239-6.167 1.18-.514 2.61-.056 3.766 1.046.519-.793 1.132-1.24 1.702-1.132 1.071.2 1.588 2.252 1.158 4.58-.165.89-.445 1.692-.788 2.33a4.88 4.88 0 0 1-.196.833l5.472 6.36 11.405-4.218c1.3-.925 4.178-1.368 5.917-1.546-.295-.652-.48-1.352-.486-1.867l7.483-.06c.005.515-.17 1.23-.46 1.89 1.774.149 4.624.546 5.894 1.455.673.352 6.418 3.397 8.093 5.515 3.651 4.617 5.147 18.599 5.147 18.599l-.002-.063c.462.673.802 1.547.915 2.528" data-paper-data="{&quot;origPos&quot;:null}"/><path fill="#e63744" d="M63.937 56.275c1.251 1.58 1.884 2.985 2.656 5.823-1.804.153-2.528.802-4.618 1.582 0 0-.435-.942-.647-1.245-.853-1.192-1.915-2.12-2.11-2.654.037.309.08.613.115.926.01.069.019.138.025.207.004.008.004.018.004.025.002.062.014.126.021.188v.004c0 .016.002.032.006.048.006.058.008.118.018.174v.012c0 .019.004.033.006.05.008.055.015.11.019.165.002.025.002.052.008.075.004.056.01.108.012.17.005.02.013.043.013.068.002.052.008.106.012.157.008.028.01.058.01.087l.015.152c0 .03.004.06.01.09l.012.166c.003.025.007.052.007.07.004.06.006.11.012.172.008.009.008.02.008.033a2.25 2.25 0 0 0 .019.212c0 .024 0 .05.004.076.004.054.01.11.01.168.004.018.004.029.004.04a.237.237 0 0 1 .002.036c.009.06.009.114.013.166.002.027.002.049.002.079.007.058.013.116.016.174v.02c.002.019.002.04.002.056.006.054.015.114.015.164.004.029.004.054.006.074 0 .056.008.116.012.174v.027c0 .01.006.029.006.048.002.06.002.116.009.174 0 .027.006.047.006.07.002.06.002.118.008.18 0 .023.006.048.006.075 0 .056.004.11.006.17 0 .022.003.04.003.07.005.058.005.12.01.178 0 .01.004.023.004.037v.033c.002.06.006.12.012.18v.054c.006.073.008.13.008.203v.043c.006.069.013.137.013.203v.044c.006.062.01.203.01.203.026.103.105 3.283.086 3.707-.004.062 0 .118.002.174l.002.054v.018c0 .06-.002.115 0 .17 0 .027-.004.053-.004.083 0 .046 0 .093-.004.143l.002.108v.143l.002.093v.128c-.002.04-.002.079 0 .118v.133c0 .037-.004.078-.004.11l.002.115v.132a.403.403 0 0 0-.006.11v.058c0 .025-.004.05-.004.079 0 .035 0 .075.002.102 0 .049 0 .094-.002.144v.083c.002.042.002.09.002.135-.004.006-.004.016-.004.03v.08c-.006.053-.004.107-.004.16v.07l-.002.076.002.114c-.004.016-.004.027-.004.04v.1c0 .032-.004.069-.004.096l.002.023c-.12 5.857-.573 10.557-.573 10.557l-24.51.197s-.494-4.117-.724-9.444c0-.075-.019-.145-.025-.217 0-.01-.01-.025-.01-.04-.005-.056-.005-.116-.015-.172v-.022c0-.017 0-.035-.002-.052v-.054c-.004-.041-.004-.087-.008-.128-.002-.023-.008-.046-.008-.062v-.002c0-.058 0-.112-.004-.164 0-.025.004-.05 0-.077-.002-.06-.002-.122-.006-.19v-.052c-.002-.043-.007-.091-.007-.141a43.334 43.334 0 0 1-.022-.525v-.054a2.907 2.907 0 0 1-.007-.19v-.05c-.003-.063-.003-.125-.01-.193v-.054c0-.06 0-.122-.006-.18v-.054c-.002-.064-.002-.132-.002-.194v-.015c0-.008-.004-.022-.004-.035-.004-.064-.004-.13-.004-.197 0-.012 0-.031-.006-.041-.002-.066-.002-.133-.002-.203v-.043c0-.07-.007-.137-.007-.21v-.01c-.059-2.803-.032-5.755.179-8.535v-.02c.003-.067.013-.135.017-.212v-.01c0-.004 0-.013.007-.018 0-.071.005-.142.01-.21v-.03c.01-.071.014-.138.02-.206v-.033c.006-.071.016-.141.021-.21.004-.007.004-.016.004-.027.01-.067.01-.138.02-.21 0-.007 0-.013.004-.023.002-.066.013-.147.015-.22.08-.793.18-1.584.3-2.372-.049.027-3.221 1.327-6.243 2.174 0-.002-1.578-3.23.154-6.442l9.131-3.38c.636-.448 1.642-.782 2.71-1.03.341-.081.685-.143 1.035-.205 0 0 .006 0 .008-.004a3.72 3.72 0 0 1 .337-.062l5.158 3.974 4.85-4.072.342.048s.008-.004.014 0c.339.052.689.116 1.033.178.6.141 1.194.306 1.781.495.422.159.796.343 1.08.553.675.35 6.421 3.397 8.093 5.515m-46.48-4.428c-.307-.772-.484-1.261-.484-1.261-1.274-.445-2.51-1.653-3.234-3.333a7.148 7.148 0 0 1-.452-1.47l.788-.873-.128-.315 1.033-.975-.109-.174 1.434-.952.228.213 1.894-.83h.029c.1.08.196.166.288.256.033-.05.062-.097.089-.14l2.886 1.552.025.04a8.752 8.752 0 0 1-.14 1.997c-.165.889-.445 1.69-.788 2.33a4.994 4.994 0 0 1-.196.833l.938 1.09-4.101 2.012"/><path fill="#b52836" d="m14.15 45.13 1.028 2.094-1.158-1.83zm1.002-1.163 1.19 2.198-1.295-1.935zm1.558-.744.314-.002.749 2.012zm1.861-.576-.22 1.575-.012-1.46z"/><path fill="#e63744" d="M68.73 72.163c.134.749.353 2.647.353 2.647.968.739 1.054 3.176.89 4.048l-.333.21.024.312-1.157.54.04.18-1.491.412-.134-.245-1.862.176-.065.005a2.242 2.242 0 0 1-.169-.272c-.041.025-.041.029-.078.062l-1.918-2.03c.26-1.162 1.282-2.801 1.846-3.32-.093-.208-.375-2.09-.375-2.09l4.429-.635"/><path fill="#bd9168" d="m46.738 54.59-3.846-5.192c1.172-.147 2.053-.273 2.053-.273l1.689.008h.144l1.688-.002s.805.062 1.897.164z" data-paper-data="{&quot;origPos&quot;:null}"/><path fill="#e63744" d="M46.307 54.077s-2.121.582-2.02 1.468c.096.896-3.249-5.532-3.08-5.834.163-.308 1.535-1.257 1.535-1.257z"/><path fill="#9b1d2b" d="M42.735 48.497c-.194.133-1.352.954-1.504 1.232-.035.076.255.828 1.004 2.323.893 1.796 1.843 3.463 2.02 3.546 0-.01 0-.02-.004-.044-.093-.848 1.699-1.41 2.003-1.5l-3.52-5.557zm-.317 4.064c-.321-.623-1.348-2.67-1.236-2.87.164-.306 1.489-1.23 1.54-1.26l.03-.027 3.601 5.693-.039.008c-.02.004-2.092.588-1.997 1.439.004.054.002.087-.021.106-.006.01-.025.018-.039.018-.27-.04-1.771-2.983-1.84-3.107z"/><path fill="#e63744" d="M50.619 48.392s1.382.926 1.555 1.23c.171.303-3.071 6.782-2.987 5.883.089-.886-2.043-1.434-2.043-1.434z"/><path fill="#9b1d2b" d="M47.193 54.043c.308.087 2.106.623 2.028 1.472-.004.022-.004.037-.004.04.177-.084 1.1-1.765 1.968-3.574.722-1.51 1.004-2.265.963-2.34-.152-.275-1.325-1.076-1.514-1.206zm2.026 1.585c-.015 0-.029-.008-.043-.018-.017-.017-.025-.054-.021-.104.084-.85-1.997-1.403-2.02-1.407l-.04-.007 3.516-5.75.027.026c.056.03 1.39.932 1.562 1.234.109.199-.883 2.263-1.196 2.89-.057.128-1.524 3.093-1.785 3.136z"/><path fill="#eeeeed" d="M46.835 60.71h-.13l-.049-6.142h.132z"/><path fill="#eeac6c" d="M43.756 49.955a5.52 5.52 0 0 1-.81-2.19 22.98 22.98 0 0 0 3.65.269c1.276-.01 2.549-.13 3.804-.36l-.015.014-6.63 2.267"/><path fill="#bd9168" d="M68.694 28.612c1.156.735 1.926 2.002 1.938 3.445.019 2.296-1.891 4.178-4.267 4.194-.065 0-.132-.004-.202-.004-3.792 6.968-11.116 11.72-19.57 11.788-8.462.068-15.872-4.578-19.77-11.492-.158.012-.319.029-.477.029-2.372.019-4.312-1.83-4.33-4.124-.011-1.552.855-2.908 2.147-3.635a23.12 23.12 0 0 1-.255-3.248c-.099-12.512 9.897-22.731 22.326-22.832 12.43-.1 22.584 9.962 22.682 22.472a23.226 23.226 0 0 1-.222 3.407" data-paper-data="{&quot;origPos&quot;:null}"/><path fill="#f6b90c" d="M42.311 24.075s-.503 1.803-2.082 1.446c-.772-.174-.908-1.201-3.386-.74-.779.18-2.417 1.156-2.732 1.808-.316.652-.088-2.392 2.457-3.522 1.835-.675 2.457-.642 3.977-.642s1.987.907 1.766 1.65m9.741 0s.503 1.803 2.082 1.446c.772-.174.908-1.201 3.386-.74.779.18 2.417 1.156 2.732 1.808.316.652.087-2.392-2.457-3.522-1.835-.675-2.457-.642-3.977-.642s-1.987.907-1.766 1.65"/><path fill="#6172bb" d="M40 31.425c0 1.657-.895 3-2 3s-2-1.343-2-3 .895-3 2-3 2 1.343 2 3m18 0c0 1.657-.895 3-2 3s-2-1.343-2-3 .895-3 2-3 2 1.343 2 3"/><path fill="#eeac6c" d="M47.02 34.494c-1.125.153-3.02 1.834-3.02 1.834s.207-1.01.503-1.3c.8-1.155 2.487-1.603 2.487-1.603s2.173.703 2.65 1.588c.443.824.34 1.238.34 1.238s-2.121-1.871-2.96-1.756z"/><path fill="#8d2229" d="M40.2 38.12s6.897 3.209 13.172-.396c0 0-1.39 5.47-5.95 5.56-4.115.123-4.984-1.491-5.477-1.955-.492-.463-1.42-1.772-1.745-3.208" data-paper-data="{&quot;origPos&quot;:null}"/><path fill="#fff" d="M37.895 30.458c.013 1.408-.816 2.55-1.845 2.557-1.033.008-1.874-1.122-1.886-2.528-.01-1.406.812-2.548 1.843-2.557 1.032-.006 1.878 1.122 1.888 2.528m20.063-.163c.013 1.407-.818 2.55-1.847 2.56-1.03.008-1.878-1.122-1.888-2.528-.01-1.405.816-2.548 1.847-2.556 1.028-.01 1.878 1.12 1.888 2.523"/><path fill="#1679af" d="M37.188 31.165c.008.868-.502 1.578-1.144 1.582-.635.006-1.16-.695-1.168-1.563-.006-.87.506-1.575 1.146-1.584.638-.004 1.16.698 1.166 1.566m20.065-.161c.009.868-.506 1.578-1.145 1.582-.64.004-1.16-.695-1.169-1.563-.008-.87.504-1.577 1.146-1.583.636-.004 1.16.695 1.168 1.565"/><path fill="#f7b90b" d="M33.014 27.387c1.824-1.157 4.521-1.902 4.521-1.902.317-.603.025-1.617-.403-1.681-1.347-.18-4.118 3.583-4.118 3.583m26.051-.21c-1.847-1.126-4.556-1.83-4.556-1.83-.327-.597-.046-1.615.382-1.685 1.338-.203 4.174 3.515 4.174 3.515"/><path fill="#333433" d="M69.785 22.247c.056 2.656-.814 8.42-2.594 11.864 0 0-4.524-12.574-8.185-14.534-4.479-2.406-16.196 1.204-20.206-1.93-.664-.516-.6-1.706-.6-1.706s-.753 1.522-1.116 1.946c-1.914 2.222-6.889 5.466-9.25 7.206-1.901 1.396-1.989 1.379-1.506 9.347 0 0-3.561-7.223-3.408-12.071.045-1.393.693-4.492 1.76-7.645 3.898-8.03 12.061-13.593 21.547-13.67 10.892-.087 20.158 7.09 23.26 17.035.165 1.38.264 2.767.298 4.157" data-paper-data="{&quot;origPos&quot;:null}"/><path fill="#333433" d="m22.34 26.39.642-2.475 1.95.783s-.588 17.675 21.66 23.337C25.494 48.305 22.34 26.39 22.34 26.39z"/><path fill="#333433" d="M70.4 26.005s-2.806 21.964-23.908 22.032c22.16-6.022 21.293-23.682 21.293-23.682l1.938-.811z"/><path fill="#333433" d="m24.5 21.635 44.37.485 1.55 3.883c-3.59 4.87-18.019-1.596-24.04-1.546-6.025.049-20.52 6.86-24.04 1.933z"/><path fill="#343434" d="M24.461 16.505 28.8 8.524s6.424-5.325 8.905-6.542c.858-.418 2.773-.787 3.722-.89 2.606-.271 7.907-.232 10.48.257.869.167 2.572.66 3.354 1.062 2.403 1.236 8.889 6.142 8.889 6.142l3.732 7.604-6.384 5.169-31.116.248-5.92-5.07z"/><path fill="#e63744" d="M64.415 18.06c1.315-.583 2.224-1.414 2.028-1.864-.197-.451-1.419-.344-2.74.234-1.312.584-2.221 1.427-2.03 1.877.197.45 1.423.338 2.742-.246m-3.6-3.167c1.193-1.15 3.979-6.573 2.37-6.205-4.95 1.143-6.562 5.387-10.44 8.927-1.58 1.437 6.531-1.238 8.07-2.722m-14.404 2.7c2.829-.055 4.777-2.636 6.151-5.801-1.18-1.176-2.539-1.19-3.37-1.043-.89 2.43-1.886 4.293-2.89 4.26-.948-.033-1.828-1.87-2.588-4.242-.891-.102-2.244.029-3.361 1.343 1.296 3.09 3.203 5.546 6.058 5.484m-14.406-2.47c1.563 1.458 9.715 4.004 8.115 2.592-3.939-3.48-5.612-7.694-10.585-8.758-1.61-.342 1.256 5.036 2.47 6.166m-1.234 3.429c.187-.451-.733-1.28-2.058-1.843-1.324-.56-2.548-.644-2.742-.194-.191.456.73 1.273 2.06 1.836 1.322.56 2.55.654 2.74.2m24.677-17.01c8.255 3.019 14.861 10.65 14.972 24.46-2.596-4.03-13.526.044-17.99-2.516-.228-.126-.596-.726-.886-.816-1.224-.364-3.753.855-5.028.863-1.28.01-3.82-1.138-5.042-.78-.303.085-.718.698-.936.83-4.493 2.67-15.431-1.461-18.198 2.806-.109-13.53 6.515-21.783 15.375-24.93.265 1.545.663 4.16 1.375 6.843 1.603.082 2.929-.837 3.583-1.39-.658-2.76-1.14-5.415-1.38-6.422A26.74 26.74 0 0 1 46.22 0a27.72 27.72 0 0 1 5.908.588c-.342 1.07-.949 3.633-1.712 6.306.663.53 1.927 1.354 3.427 1.298.772-2.58 1.261-5.091 1.605-6.65"/><path fill="#717171" d="M23.481 17.109s-1.037 2.877-.788 3.816c.508 1.914 1.626 1.835 7.676 1.79-4.571-1.091-6.888-5.606-6.888-5.606m45.695-.363s1.089 2.858.856 3.8c-.479 1.923-1.598 1.86-7.644 1.91 4.548-1.163 6.788-5.711 6.788-5.711"/><path fill="#c6c5c6" d="m70.329 26.474-8.496 1.37c.393 1.364 1.146 4.838-.131 6.595-1.985 2.725-11.35-.821-13.452-3.451-.757-.94-.815-3.041-1.67-3.028-.859.012-.875 2.109-1.609 3.064-2.059 2.666-11.374 6.334-13.399 3.64-1.308-1.734-.61-5.203-.24-6.572l-8.788-1.236 47.786-.383z"/><path fill="#dcdcdc" d="M34.82 29.162c.174.27.1.629-.167.807l-2.004 1.317a.576.576 0 0 1-.8-.168v-.002a.581.581 0 0 1 .167-.803l2-1.32a.575.575 0 0 1 .8.169zm-.802 2.863a.645.645 0 0 1-1.29.008.642.642 0 0 1 1.098-.466.648.648 0 0 1 .192.458"/><path fill="#b52836" d="m70.328 26.45-8.494 1.379c.009.03.042.085.019.08-5.791-1.161-15.013.119-15.013.119a.501.501 0 0 0-.512.004s-8.649-1.3-15.013.122c-.019.006.014-.05.016-.068l-8.788-1.253z"/><path fill="#c6c5c6" d="m13.65 102.599-2.833.022-.004-.57 2.832-.02z"/><path fill="#7a797a" d="m12.665 97.282.942-.006.043 5.323-1.134.01z"/><path fill="#565657" d="M11.761 102.425a1.07 1.07 0 0 1-1.06 1.082l-2.515.02a1.076 1.076 0 1 1-.019-2.15l2.518-.02a1.073 1.073 0 0 1 1.076 1.068"/><path fill="#c6c5c6" d="m20.116 92.35 2.83-.022.005.567-2.83.02z"/><path fill="#7a797a" d="m21.103 97.664-.944.007-.045-5.452 1.136-.01z"/><path fill="#565657" d="M26.661 92.486a1.072 1.072 0 0 1-1.059 1.085l-2.516.02a1.076 1.076 0 1 1-.016-2.152l2.516-.02a1.072 1.072 0 0 1 1.075 1.067"/><path fill="#d7d6d6" d="M16.757 72.577c4.82 4.633 5.23 24.822 5.23 24.822l-1.159.01s-.52-19.874-4.052-22.58a.326.326 0 0 1-.103-.111.38.38 0 0 1-.095.113c-3.49 2.76-3.7 22.64-3.7 22.64l-1.157.01s.093-20.192 4.839-24.902c.037-.032.068-.042.094-.042.038 0 .075.014.103.04"/><path fill="#d7d6d6" d="m14.429 97.494 1.824 7.682-.12-15.518zm4.599-.038-1.705 7.71-.122-15.516z"/><path fill="#c6c5c6" d="M21.98 97.445a.336.336 0 0 1-.33.338l-9.587.079a.34.34 0 0 1-.341-.334v-.018a.335.335 0 0 1 .337-.342l9.586-.08a.335.335 0 0 1 .336.339v.019z"/><path fill="#d7d6d6" d="m17.37 79.574-1.574.012-.094-11.715 1.576-.014z"/><path fill="#333433" d="M18.09 114.727a1.195 1.195 0 0 1-2.39.02l-.28-35.28a1.197 1.197 0 0 1 1.184-1.215c.662-.004 1.2.528 1.203 1.197l.282 35.278z"/><path fill="#d7d6d6" d="M32.887 67.733s-12.606-1.74-16.313 1.27c-4.17-2.947-16.35-1.007-16.35-1.007L.211 66.41l32.662-.263z"/><path fill="#333433" d="M1.65 73.533C.504 70.956.687 63.83.687 63.83a.332.332 0 0 0-.333-.333h-.02a.34.34 0 0 0-.334.34c.062 7.748.829 7.26.957 9.7.01.193.152.34.339.338h.023c.185-.002.407-.168.331-.342m29.915-.24c1.099-2.596.805-9.716.805-9.716a.333.333 0 0 1 .333-.337h.018a.336.336 0 0 1 .34.33c.059 7.75-.712 7.274-.805 9.717-.01.194-.148.34-.333.343h-.018c-.188 0-.418-.161-.34-.337"/></g></svg>