<svg version="1.1" xmlns="http://www.w3.org/2000/svg" xmlns:xlink="http://www.w3.org/1999/xlink" width="61.81302" height="116.34139" viewBox="0,0,61.81302,116.34139"><g transform="translate(-209.08289,-121.787)"><g data-paper-data="{&quot;isPaintingLayer&quot;:true}" fill-rule="evenodd" stroke="none" stroke-width="1" stroke-linecap="butt" stroke-linejoin="miter" stroke-miterlimit="10" stroke-dasharray="" stroke-dashoffset="0" style="mix-blend-mode: normal"><path d="M209.083,169.72c8.21,12.82 19.164,2.122 15.438,-9.21c-2.706,-8.228 11.974,2.675 11.974,2.675c0,0 -8.595,23.848 -16.053,24.202c-7.456,0.358 -11.384,-11.313 -11.359,-17.666" data-paper-data="{&quot;origPos&quot;:null}" fill="#362512"/><path d="M237.507,232.21l-0.509,-19.214c0,0 4.3,-4.75 6.272,-5.301c1.42,-0.396 5.817,0.913 5.817,0.913l-1.948,23.601h-0.009c1.806,1.125 3.115,3.416 1.574,5.282c-1.171,1.314 -2.89,0.277 -4.194,-0.276c-1.446,-0.692 -3.094,-1.179 -4.4,-2.079c-0.844,-0.591 -1.834,-1.238 -2.403,-2.123c-0.179,-0.275 -0.262,-0.55 -0.2,-0.804M226.573,232.21h-0.006l-1.947,-23.603c0,0 4.334,-1.327 5.737,-0.943c1.993,0.55 6.351,5.331 6.351,5.331l-0.51,19.213c0.061,0.264 -0.022,0.53 -0.2,0.804c-0.57,0.885 -1.561,1.532 -2.404,2.123c-1.306,0.9 -2.958,1.387 -4.401,2.079c-1.305,0.553 -3.021,1.59 -4.192,0.276c-1.544,-1.866 -0.234,-4.161 1.571,-5.282M213.439,199.372c0.104,-0.999 0.436,-1.89 0.911,-2.58c-0.004,0.04 -0.004,0.062 -0.004,0.062c0,0 1.405,-14.207 5.078,-18.93c1.682,-2.162 7.492,-5.3 8.171,-5.664c1.282,-0.934 4.177,-1.354 5.974,-1.526c-0.3,-0.666 -0.483,-1.392 -0.483,-1.92h7.598c0,0.528 -0.176,1.241 -0.475,1.903c1.768,0.174 4.342,0.759 6.02,1.526c0.742,0.34 2.303,0.834 3.071,1.108c2.317,0.812 8.544,3.084 8.544,3.084l5.51,-6.51c-0.09681,-0.27234 -0.16583,-0.55377 -0.206,-0.84c-0.354,-0.648 -0.645,-1.456 -0.82,-2.36c-0.456,-2.366 0.053,-4.45 1.137,-4.665c0.581,-0.111 1.207,0.334 1.737,1.136c1.169,-1.13 2.61,-1.6 3.815,-1.089c1.846,0.787 2.43,3.585 1.31,6.249c-0.722,1.71 -1.97,2.948 -3.26,3.411h0.002c0,0 -3.434,9.815 -6.425,10.907c-2.423,0.883 -11.265,-2.69 -11.265,-2.69v-0.014c1.66,10.2 -0.079,25.772 -0.079,25.772h-24.896c0,0 -1.489,-14.134 -0.154,-24.298v0.007c-0.196,0.54 -1.275,1.498 -2.127,2.71c-1.705,2.426 -3.3,12.689 -3.3,12.689c0.039,0.068 0.075,0.14 0.109,0.214c0.432,0.424 0.854,0.996 1.205,1.663c0.928,1.757 1.024,3.527 0.22,3.957c-0.43,0.23 -1.035,0.03 -1.642,-0.475c-0.654,1.174 -1.682,1.896 -2.753,1.78c-1.644,-0.175 -2.772,-2.24 -2.523,-4.617" data-paper-data="{&quot;origPos&quot;:null}" fill="#795a4c"/><path d="M233.899,171.343c-0.43,-0.658 -0.727,-1.569 -0.8,-2.229c2.50843,0.4113 5.06791,0.40116 7.573,-0.03l-0.015,0.015l-6.757,2.244" fill="#eeac6c"/><path d="M249.566,181.245c1.546,6.66 -0.045,26.79 -0.48,27.364c-4.94,-0.075 -12.088,4.387 -12.088,4.387h-0.29c0,0 -6.94,-4.59 -12.088,-4.386c-0.434,-0.575 -1.852,-19.65 -0.507,-26.015c0,0 6.4,-3.872 7.148,-11.558c0.79,-0.197 1.539,-0.221 1.539,-0.221c0,0 0.3,5.893 4.196,5.893c4.03,0 4.126,-5.88 4.126,-5.88c0,0 0.941,0.096 1.689,0.323c0.38,7.719 6.755,10.093 6.755,10.093" fill="#0771b7"/><path d="M236.996,176.708c1.124,0 1.944,-0.456 2.538,-1.116l-3.039,9.021l-9.408,24.208c-0.845,-0.162 -1.675,-0.244 -2.465,-0.212c-0.356,-0.467 -1.361,-13.211 -0.996,-21.362l9.77,-13.592c0.553,1.506 1.605,3.053 3.6,3.053" fill="#2aa73f"/><path d="M228.073,209.041c-0.784,-0.201 -1.568,-0.344 -2.33,-0.404l12.233,-32.06c3.068,-0.865 3.147,-5.75 3.147,-5.75c0,0 0.334,0.035 0.762,0.11l-13.813,38.104" fill="#eeeeed"/><path d="M214.493,150.02054c-0.17102,-1.15077 -0.25692,-2.31259 -0.257,-3.476c0,-12.77 10.285,-23.122 22.972,-23.122c12.687,0 22.972,10.353 22.972,23.122c0,1.125 -0.08,2.235 -0.234,3.317c1.326,0.73 2.22,2.108 2.22,3.69c0,2.346 -1.965,4.25 -4.388,4.25c-0.161,0 -0.325,-0.011 -0.483,-0.026c-3.924,7.092 -11.45,11.89 -20.087,11.89c-8.63,0 -16.147,-4.79 -20.073,-11.87c-0.06862,0.00317 -0.13731,0.00483 -0.206,0.005c-2.423,0 -4.386,-1.903 -4.386,-4.25c0,-1.471 0.77,-2.77 1.95,-3.53" data-paper-data="{&quot;origPos&quot;:null}" fill="#795a4c"/><path d="M233.311,144.65c0,0 -0.503,1.803 -2.082,1.446c-0.772,-0.174 -0.908,-1.201 -3.386,-0.74c-0.779,0.18 -2.417,1.156 -2.732,1.808c-0.316,0.652 -0.088,-2.392 2.457,-3.522c1.835,-0.675 2.457,-0.642 3.977,-0.642c1.52,0 1.987,0.907 1.766,1.65M243.052,144.65c0,0 0.503,1.803 2.082,1.446c0.772,-0.174 0.908,-1.201 3.386,-0.74c0.779,0.18 2.417,1.156 2.732,1.808c0.316,0.652 0.087,-2.392 -2.457,-3.522c-1.835,-0.675 -2.457,-0.642 -3.977,-0.642c-1.52,0 -1.987,0.907 -1.766,1.65" data-paper-data="{&quot;origPos&quot;:null}" fill="#362512"/><path d="M231,152c0,1.657 -0.895,3 -2,3c-1.105,0 -2,-1.343 -2,-3c0,-1.657 0.895,-3 2,-3c1.105,0 2,1.343 2,3M249,152c0,1.657 -0.895,3 -2,3c-1.105,0 -2,-1.343 -2,-3c0,-1.657 0.895,-3 2,-3c1.105,0 2,1.343 2,3" data-paper-data="{&quot;origPos&quot;:null}" fill="#362512"/><path d="M238.02,155.069c-1.125,0.153 -3.02,1.834 -3.02,1.834c0,0 0.207,-1.009 0.503,-1.299c0.8,-1.156 2.487,-1.604 2.487,-1.604c0,0 2.173,0.703 2.65,1.588c0.443,0.824 0.34,1.238 0.34,1.238c0,0 -2.121,-1.871 -2.96,-1.756z" fill="#eeac6c"/><path d="M231.2,158.696c0,0 6.897,3.208 13.172,-0.397c0,0 -1.39,5.47 -5.95,5.561c-4.115,0.122 -4.984,-1.492 -5.477,-1.956c-0.492,-0.463 -1.42,-1.772 -1.745,-3.208" fill="#eeac6c"/><path d="M260.993,143.5c0.034,2.702 -1.16,6.459 -1.16,6.459c0,0 -6.068,-7.23 -9.773,-9.259c-4.524,-2.478 -6.781,1.172 -10.824,-2.043c-0.67,-0.531 -1.92,-1.941 -1.92,-1.941c0,0 -1.522,1.545 -1.927,1.941c-4.547,4.481 -7.954,-0.745 -11.786,1.957c-4.871,3.448 -8.987,9.182 -8.987,9.182c0,0 -1.418,-1.631 -1.222,-6.551c0.058,-1.414 0.741,-4.558 1.852,-7.75c4.022,-8.124 12.355,-13.708 21.989,-13.708c11.06,0 20.413,7.365 23.483,17.488c0.15768,1.40326 0.24944,2.81314 0.275,4.225" data-paper-data="{&quot;origPos&quot;:null}" fill="#362512"/></g></g></svg>