<svg version="1.1" xmlns="http://www.w3.org/2000/svg" xmlns:xlink="http://www.w3.org/1999/xlink" width="66.25713" height="116.49463" viewBox="0,0,66.25713,116.49463"><g transform="translate(-207.21987,-122.50097)"><g data-paper-data="{&quot;isPaintingLayer&quot;:true}" fill-rule="evenodd" stroke="none" stroke-width="1" stroke-linecap="butt" stroke-linejoin="miter" stroke-miterlimit="10" stroke-dasharray="" stroke-dashoffset="0" style="mix-blend-mode: normal"><path d="M207.22,170.503c8.312,12.834 19.406,2.127 15.633,-9.22c-2.739,-8.235 12.129,2.681 12.129,2.681c0,0 -8.705,23.872 -16.256,24.23c-7.554,0.355 -11.532,-11.327 -11.506,-17.69" data-paper-data="{&quot;origPos&quot;:null}" fill="#6d4731"/><path d="M214.487,204.709c-1.675,-0.177 -2.824,-2.258 -2.57,-4.65c0.107,-1.004 0.444,-1.906 0.927,-2.596c-0.002,0.002 -0.002,0.009 -0.002,0.011c0.097,-0.923 1.544,-14.414 5.158,-19.007c1.82,-2.315 8.604,-5.855 8.604,-5.855h0.015c2.183,-1.24 7.354,-1.422 7.354,-1.422l1.8,0.077h0.146l1.792,-0.109c0,0 5.151,0.244 7.349,1.497v0.006l12.081,4.306l5.609,-6.554c-0.095,-0.264 -0.164,-0.547 -0.212,-0.845c-0.358,-0.65 -0.655,-1.47 -0.832,-2.377c-0.466,-2.38 0.054,-4.482 1.158,-4.695c0.593,-0.113 1.228,0.337 1.768,1.144c1.188,-1.139 2.659,-1.616 3.883,-1.099c1.878,0.79 2.478,3.609 1.335,6.293c-0.733,1.721 -2.003,2.969 -3.318,3.431c0,0 -3.495,9.884 -6.545,10.985c-2.216,0.797 -9.466,-1.949 -10.904,-2.51c2.674,10.27 2.987,25.86 2.987,25.86h-32.45c0,0 0.256,-13.55 2.453,-23.718v-0.008c-0.265,0.461 -0.729,1.043 -1.322,1.881c-1.734,2.44 -3.357,12.768 -3.357,12.768c0.041,0.071 0.08,0.137 0.116,0.212c0.49234,0.49335 0.90615,1.05926 1.227,1.678c0.945,1.766 1.042,3.547 0.222,3.982c-0.44,0.23 -1.052,0.028 -1.673,-0.478c-0.662,1.181 -1.708,1.907 -2.799,1.791z" data-paper-data="{&quot;origPos&quot;:null}" fill="#be9269"/><path d="M266.28,173.352h0.533v54.162h-0.533z" fill="#c6c5c6"/><path d="M260.496,166.721c0.145,3.195 2.793,5.74 6.038,5.74c3.247,0 5.897,-2.545 6.042,-5.739h-12.08M259.595,166.447c-0.00022,-0.26232 0.0148,-0.52443 0.045,-0.785h13.792c0.028,0.257 0.045,0.519 0.045,0.785c0,3.812 -3.109,6.904 -6.943,6.904c-3.834,0 -6.938,-3.092 -6.938,-6.904" fill="#727371"/><path d="M260.551,165.662h11.993v1.06h-11.993z" fill="#b52836"/><path d="M272.806,232.334c0,3.364 -2.742,6.097 -6.128,6.097c-3.383,0 -6.128,-2.733 -6.128,-6.097c0,-3.366 2.745,-6.097 6.128,-6.097c3.386,0 6.128,2.73 6.128,6.097" fill="#e63744"/><path d="M271.155,228.169c1.06231,1.12605 1.65341,2.61594 1.652,4.164c0,3.366 -2.745,6.098 -6.128,6.098c-2.16255,0.00124 -4.16613,-1.1358 -5.274,-2.993c1.15981,1.23514 2.77969,1.93429 4.474,1.931c3.383,0 6.128,-2.73 6.128,-6.1c0.00077,-1.09126 -0.29362,-2.16241 -0.852,-3.1" fill="#b52836"/><path d="M264.878,226.506c1.242,0.306 2.16,1.42 2.16,2.75c-0.00441,1.56992 -1.28008,2.83932 -2.85,2.836c-1.53683,0.00356 -2.79868,-1.21403 -2.85,-2.75c0.7741,-1.3633 2.04081,-2.37846 3.54,-2.837" fill="#eb6474"/><path d="M261.623,166.873c-0.341,-2.27 0.235,-4.236 1.291,-4.39c1.055,-0.157 2.183,1.555 2.528,3.821c0.338,2.272 -0.244,4.237 -1.294,4.392c-1.055,0.157 -2.185,-1.556 -2.525,-3.823" data-paper-data="{&quot;origPos&quot;:null}" fill="#be9269"/><path d="M219.622,206.601c0.013,-0.663 0.27,-11.965 2.014,-21.495c0.041,-0.208 0.067,-0.397 0.11,-0.603c3.582,-3.984 4.045,-7.679 4.884,-11.888c0.973,-0.551 2.536,-0.89 3.968,-1.099c0,0 0,6.342 5.175,6.342c4.892,0 4.66,-6.43 4.66,-6.43c1.59,0.215 3.505,0.59 4.629,1.236c0.886,2.646 1.807,8.157 4.567,10.397c2.113,9.867 2.425,22.808 2.443,23.54z" fill="#82a74d"/><path d="M244.594,177.696v1.856c0,0.99 -0.804,1.791 -1.796,1.791h-0.004c-0.4758,0.0008 -0.93242,-0.18745 -1.26943,-0.52333c-0.33701,-0.33588 -0.52677,-0.79187 -0.52757,-1.26767v-1.856z" fill="#f6b90c"/><path d="M249.591,183.03v23.57h-2.133v-26.545c0.565,1.197 1.255,2.248 2.132,2.975zM224.009,181.381c-0.60331,1.06368 -1.31835,2.05999 -2.133,2.972v22.248h2.133v-25.22M225.74,188.17h20.187v12.463h-20.187z" fill="#eeeeed"/><path d="M225.74,188.172h20.187v2.518h-20.187zM225.74,199.043h20.187v1.59h-20.187z" fill="#99588c"/><path d="M233.71613,233.076h-8.593l-0.023,-4.235l-0.35,-7.898l-0.625,-3.048h10.792v3.048l-0.237,7.898zM246.04313,233.076h-9.26l-0.305,-4.235l-0.227,-7.898v-3.048h10.792l-0.627,3.048l-0.347,7.898z" data-paper-data="{&quot;origPos&quot;:null}" fill="#be9269"/><path d="M248.499,206.557l-1.123,11.534h-10.974l-0.411,-4.242h-0.296l-0.416,4.242h-10.977l-1.119,-11.534h15.926z" fill="#343434"/><path d="M235.14,232.885h0.021c0.065,0.266 -0.021,0.559 -0.207,0.839c-0.595,0.912 -1.628,1.588 -2.505,2.202c-0.143,0.096 -0.29,0.186 -0.44,0.274h-7.799v-2.594c0.284,-0.261 0.593,-0.521 0.918,-0.721h-0.006l0.237,-4.044h9.581z" fill="#eeeeed"/><path d="M234.97,229.498h-9.651l0.011,-0.202h9.633zM234.99,229.896h-9.694l0.013,-0.2h9.673z" fill="#e63744"/><path d="M248.2,234.433v1.766h-8.523c-0.148,-0.088 -0.295,-0.184 -0.437,-0.281c-0.88,-0.611 -1.915,-1.281 -2.508,-2.193c-0.184,-0.283 -0.27,-0.575 -0.204,-0.841h0.01l0.2,-4.042h9.589l0.235,4.042h-0.006c0.64493,0.40232 1.20342,0.92887 1.643,1.549z" fill="#eeeeed"/><path d="M236.715,229.295h9.638l0.009,0.202h-9.658zM236.696,229.695h9.68l0.01,0.2h-9.699z" fill="#e63744"/><path d="M225.117,232.87c0,0 0.199,-1.915 1.82,-1.995c1.68,-0.082 2.952,1.654 2.952,1.654l-4.743,0.356z" fill="#6e6e6d"/><path d="M225.733,232.694c0,0 0.136,-1.317 1.248,-1.373c1.156,-0.056 2.034,1.137 2.034,1.137l-3.265,0.245z" fill="#d2771a"/><path d="M225.146,232.885c0,0 1.949,-1.212 6.33,0c1.768,0.206 2.316,-1.427 3.148,-1.791c0.412,-0.183 0.537,0 0.537,0v1.791c0.065,0.266 -0.021,0.558 -0.207,0.838c-0.595,0.913 -1.628,1.586 -2.505,2.2c-1.363,0.927 -3.082,1.42 -4.587,2.134c-1.36,0.571 -3.152,1.633 -4.37,0.28c-1.614,-1.921 -0.244,-4.259 1.636,-5.452h-0.006l-0.004,-0.009l0.028,0.009" fill="#f29221"/><path d="M234.821,233.912c-0.604,0.82 -1.559,1.44 -2.374,2.01c-0.569,0.386 -1.205,0.701 -1.861,0.984l-0.176,-0.36c1.942,-0.562 4.196,-2.832 4.196,-2.832l0.215,0.198M225.146,232.885c0,0 1.477,-0.92 4.743,-0.356c-0.959,0.708 -2.566,1.746 -3.706,1.755c-1.464,0.01 -1.501,-0.663 -1.21,-1.3c0.047,-0.037 0.104,-0.041 0.155,-0.105h-0.006l-0.004,-0.009l0.028,0.015" fill="#343434"/><path d="M225.074,234.125c2.575,0 4.826,1.024 6.033,2.547c-1.056,0.502 -2.204,0.892 -3.245,1.385c-1.361,0.572 -3.152,1.634 -4.369,0.28c-1.12,-1.337 -0.8,-2.875 0.13,-4.087c0.004,-0.005 0.008,-0.013 0.013,-0.017c0.47592,-0.07226 0.95663,-0.10837 1.438,-0.108" fill="#343434"/><path d="M235.106,231.295c0.01807,0.00027 0.03609,0.0016 0.054,0.004v1.586c0.066,0.266 -0.02,0.558 -0.205,0.838c-0.119,0.181 -0.255,0.352 -0.403,0.515c-0.132,-0.311 -0.212,-0.736 -0.212,-1.203c0,-0.961 0.343,-1.74 0.766,-1.74" fill="#eeeeed"/><path d="M224.02,233.822c-0.0155,0.00065 -0.02894,-0.01062 -0.031,-0.026c-0.00275,-0.00839 -0.00167,-0.01755 0.00296,-0.02506c0.00463,-0.00752 0.01232,-0.01261 0.02104,-0.01394c0.021,-0.006 2.145,-0.521 4.87,-0.015c0.018,0.002 0.033,0.022 0.027,0.037c-0.003,0.019 -0.018,0.03 -0.04,0.027c-2.708,-0.504 -4.819,0.01 -4.842,0.013c0,0.003 -0.005,0.003 -0.009,0.003M224.581,233.31c-0.0144,0 -0.02756,-0.00813 -0.034,-0.021c-0.005,-0.02 0.006,-0.037 0.023,-0.041c0.018,-0.009 1.993,-0.654 4.733,-0.034c0.016,0.004 0.028,0.023 0.026,0.04c-0.004,0.018 -0.023,0.03 -0.038,0.024c-2.724,-0.614 -4.677,0.024 -4.699,0.03c-0.004,0.002 -0.009,0.002 -0.01,0.002" fill="#d2771a"/><path d="M246.54,232.885l-4.748,-0.356c0,0 1.276,-1.736 2.954,-1.654c1.623,0.08 1.822,1.995 1.822,1.995z" fill="#6e6e6d"/><path d="M245.935,232.703l-3.264,-0.245c0,0 0.877,-1.193 2.033,-1.137c1.113,0.056 1.249,1.373 1.249,1.373z" fill="#d2771a"/><path d="M246.54,232.885l0.028,-0.009l-0.005,0.009h-0.006c1.88,1.193 3.245,3.531 1.636,5.452c-1.218,1.353 -3.01,0.291 -4.37,-0.28c-1.505,-0.714 -3.224,-1.207 -4.584,-2.134c-0.88,-0.614 -1.913,-1.287 -2.508,-2.2c-0.183,-0.28 -0.272,-0.572 -0.207,-0.838v-1.791c0,0 0.12,-0.183 0.539,0c0.83,0.364 1.378,1.997 3.148,1.791c4.38,-1.212 6.329,0 6.329,0" fill="#f29221"/><path d="M236.864,233.912l0.216,-0.198c0,0 2.25,2.27 4.196,2.832l-0.177,0.36c-0.656,-0.283 -1.292,-0.598 -1.859,-0.984c-0.82,-0.57 -1.77,-1.19 -2.376,-2.01M246.54,232.885l0.028,-0.015l-0.005,0.009h-0.006c0.052,0.064 0.103,0.068 0.155,0.105c0.291,0.637 0.255,1.31 -1.21,1.3c-1.138,-0.009 -2.744,-1.047 -3.71,-1.755c3.268,-0.564 4.748,0.356 4.748,0.356" fill="#343434"/><path d="M246.611,234.125c0.494,0 0.975,0.037 1.436,0.108c0.005,0.004 0.011,0.012 0.015,0.017c0.93,1.212 1.251,2.75 0.13,4.087c-1.216,1.354 -3.008,0.292 -4.369,-0.28c-1.041,-0.493 -2.188,-0.883 -3.25,-1.385c1.213,-1.523 3.464,-2.547 6.038,-2.547" fill="#343434"/><path d="M236.58,231.295c0.422,0 0.765,0.779 0.765,1.74c0,0.467 -0.082,0.892 -0.213,1.203c-0.14637,-0.16139 -0.28041,-0.33354 -0.401,-0.515c-0.184,-0.28 -0.272,-0.572 -0.205,-0.838v-1.586c0.0179,-0.00249 0.03593,-0.00383 0.054,-0.004" fill="#eeeeed"/><path d="M247.666,233.822c-0.004,0 -0.008,0 -0.011,-0.003c-0.021,-0.003 -2.132,-0.517 -4.84,-0.013c-0.018,0.003 -0.037,-0.008 -0.043,-0.027c0,-0.015 0.01,-0.035 0.03,-0.037c2.725,-0.506 4.849,0.009 4.871,0.015c0.00823,0.00212 0.01527,0.00742 0.01959,0.01474c0.00431,0.00732 0.00554,0.01604 0.00341,0.02426c-0.00202,0.01499 -0.01487,0.02614 -0.03,0.026M247.103,233.31c-0.00344,0.00006 -0.00685,-0.00063 -0.01,-0.002c-0.021,-0.006 -1.975,-0.644 -4.698,-0.03c-0.018,0.006 -0.035,-0.006 -0.039,-0.024c-0.004,-0.017 0.009,-0.036 0.026,-0.04c2.74,-0.62 4.711,0.025 4.733,0.034c0.017,0.004 0.028,0.021 0.023,0.041c-0.00644,0.01288 -0.0196,0.02101 -0.034,0.021" fill="#d2771a"/><path d="M237.485,173.014h-3.797c-1.087,0 -1.967,-2.322 -1.967,-3.382h7.728c0,1.06 -0.88,3.382 -1.964,3.382" data-paper-data="{&quot;origPos&quot;:null}" fill="#be9269"/><path d="M232.549,172.152c-0.435,-0.66 -0.744,-1.579 -0.815,-2.242c1.227,0.2 2.485,0.303 3.765,0.303c1.343,0 2.657,-0.112 3.933,-0.333l-0.011,0.015l-6.871,2.257" fill="#eeac6c"/><path d="M212.817,150.51c-0.17441,-1.15178 -0.26166,-2.31508 -0.261,-3.48c0,-12.788 10.415,-23.15 23.264,-23.15c12.85,0 23.266,10.362 23.266,23.15c0,1.128 -0.08,2.235 -0.238,3.323c1.344,0.73 2.25,2.11 2.25,3.692c0,2.35 -1.99,4.254 -4.445,4.254c-0.16272,-0.0006 -0.32529,-0.00995 -0.487,-0.028c-4.12258,7.36359 -11.90693,11.91996 -20.346,11.909c-8.42875,0.01067 -16.20488,-4.53567 -20.33,-11.886c-0.07,0.002 -0.137,0.006 -0.209,0.006c-2.451,0 -4.444,-1.905 -4.444,-4.254c0,-1.474 0.787,-2.774 1.98,-3.536" data-paper-data="{&quot;origPos&quot;:null}" fill="#be9269"/><path d="M232.311,145.65c0,0 -0.503,1.803 -2.082,1.446c-0.772,-0.174 -0.908,-1.201 -3.386,-0.74c-0.779,0.18 -2.417,1.156 -2.732,1.808c-0.316,0.652 -0.088,-2.392 2.457,-3.522c1.835,-0.675 2.457,-0.642 3.977,-0.642c1.52,0 1.987,0.907 1.766,1.65M242.052,145.65c0,0 0.503,1.803 2.082,1.446c0.772,-0.174 0.908,-1.201 3.386,-0.74c0.779,0.18 2.417,1.156 2.732,1.808c0.316,0.652 0.087,-2.392 -2.457,-3.522c-1.835,-0.675 -2.457,-0.642 -3.977,-0.642c-1.52,0 -1.987,0.907 -1.766,1.65" data-paper-data="{&quot;origPos&quot;:null}" fill="#6d4731"/><path d="M229.74113,153c0,1.657 -0.895,3 -2,3c-1.105,0 -2,-1.343 -2,-3c0,-1.657 0.895,-3 2,-3c1.105,0 2,1.343 2,3M247.74113,153c0,1.657 -0.895,3 -2,3c-1.105,0 -2,-1.343 -2,-3c0,-1.657 0.895,-3 2,-3c1.105,0 2,1.343 2,3" data-paper-data="{&quot;origPos&quot;:null}" fill="#6d4b19"/><path d="M237.02,156.069c-1.125,0.153 -3.02,1.834 -3.02,1.834c0,0 0.207,-1.009 0.503,-1.299c0.8,-1.156 2.487,-1.604 2.487,-1.604c0,0 2.173,0.703 2.65,1.588c0.443,0.824 0.34,1.238 0.34,1.238c0,0 -2.121,-1.871 -2.96,-1.756z" fill="#eeac6c"/><path d="M230.2,159.696c0,0 6.897,3.208 13.172,-0.397c0,0 -1.39,5.47 -5.95,5.561c-4.115,0.122 -4.984,-1.492 -5.477,-1.956c-0.492,-0.463 -1.42,-1.772 -1.745,-3.208" data-paper-data="{&quot;origPos&quot;:null}" fill="#a53b46"/><path d="M259.909,144.24c0.036,2.708 -1.175,6.467 -1.175,6.467c0,0 -6.146,-7.241 -9.893,-9.273c-4.587,-2.478 -6.867,1.176 -10.967,-2.04c-0.677,-0.534 -1.945,-1.948 -1.945,-1.948c-0.64788,0.65012 -1.29688,1.29912 -1.947,1.947c-4.607,4.487 -8.06,-0.748 -11.937,1.96c-4.933,3.45 -9.106,9.191 -9.106,9.191c0,0 -1.433,-1.633 -1.233,-6.557c0.056,-1.42 0.748,-4.565 1.873,-7.762c4.22391,-8.42423 12.84615,-13.73774 22.27,-13.724c11.201,0 20.677,7.373 23.784,17.506c0.15789,1.40593 0.25,2.81847 0.276,4.233" data-paper-data="{&quot;origPos&quot;:null}" fill="#6d4731"/></g></g></svg>