<svg xmlns="http://www.w3.org/2000/svg" width="66.257" height="116.495"><g fill-rule="evenodd" stroke-miterlimit="10" data-paper-data="{&quot;isPaintingLayer&quot;:true}" style="mix-blend-mode:normal"><path fill="#6d4731" d="M0 48.002c8.312 12.834 19.406 2.127 15.633-9.22-2.739-8.235 12.13 2.681 12.13 2.681s-8.706 23.872-16.257 24.23C3.952 66.048-.026 54.366 0 48.003" data-paper-data="{&quot;origPos&quot;:null}"/><path fill="#be9269" d="M7.267 82.208c-1.675-.177-2.824-2.258-2.57-4.65.107-1.004.444-1.906.927-2.596-.002.002-.002.009-.002.011.097-.923 1.544-14.414 5.158-19.007 1.82-2.315 8.604-5.855 8.604-5.855h.015c2.183-1.24 7.354-1.422 7.354-1.422l1.8.077h.146l1.792-.109s5.151.244 7.35 1.497v.006l12.08 4.306 5.61-6.554a4.706 4.706 0 0 1-.213-.845c-.358-.65-.655-1.47-.832-2.377-.466-2.38.054-4.482 1.158-4.695.593-.113 1.228.337 1.768 1.144 1.188-1.139 2.66-1.616 3.883-1.099 1.878.79 2.478 3.609 1.335 6.293-.733 1.721-2.003 2.969-3.318 3.431 0 0-3.495 9.884-6.545 10.985-2.216.797-9.466-1.949-10.904-2.51 2.674 10.27 2.987 25.86 2.987 25.86H12.4s.256-13.55 2.453-23.718v-.008c-.265.461-.729 1.043-1.322 1.881-1.734 2.44-3.357 12.768-3.357 12.768.041.071.08.137.116.212a6.82 6.82 0 0 1 1.227 1.678c.945 1.766 1.042 3.547.222 3.982-.44.23-1.052.028-1.673-.478-.662 1.181-1.708 1.907-2.799 1.791z" data-paper-data="{&quot;origPos&quot;:null}"/><path fill="#c6c5c6" d="M59.06 50.851h.533v54.162h-.533z"/><path fill="#727371" d="M53.276 44.22c.145 3.195 2.793 5.74 6.038 5.74 3.247 0 5.897-2.545 6.042-5.739h-12.08m-.9-.275c-.001-.262.014-.524.044-.785h13.792c.028.257.045.519.045.785 0 3.812-3.109 6.904-6.943 6.904-3.834 0-6.938-3.092-6.938-6.904"/><path fill="#b52836" d="M53.331 43.161h11.993v1.06H53.331z"/><path fill="#e63744" d="M65.586 109.833c0 3.364-2.742 6.097-6.128 6.097-3.383 0-6.128-2.733-6.128-6.097 0-3.366 2.745-6.097 6.128-6.097 3.386 0 6.128 2.73 6.128 6.097"/><path fill="#b52836" d="M63.935 105.668a6.06 6.06 0 0 1 1.652 4.164c0 3.366-2.745 6.098-6.128 6.098a6.137 6.137 0 0 1-5.274-2.993 6.121 6.121 0 0 0 4.474 1.931c3.383 0 6.128-2.73 6.128-6.1a6.05 6.05 0 0 0-.852-3.1"/><path fill="#eb6474" d="M57.658 104.005a2.834 2.834 0 0 1 2.16 2.75 2.844 2.844 0 0 1-2.85 2.836 2.845 2.845 0 0 1-2.85-2.75 6.134 6.134 0 0 1 3.54-2.837"/><path fill="#be9269" d="M54.403 44.372c-.34-2.27.235-4.236 1.291-4.39 1.055-.157 2.183 1.555 2.528 3.821.338 2.272-.244 4.237-1.294 4.392-1.055.157-2.185-1.556-2.525-3.823" data-paper-data="{&quot;origPos&quot;:null}"/><path fill="#82a74d" d="M12.402 84.1c.013-.663.27-11.965 2.014-21.495.041-.208.067-.397.11-.603 3.582-3.984 4.045-7.679 4.884-11.888.973-.551 2.536-.89 3.968-1.099 0 0 0 6.342 5.175 6.342 4.892 0 4.66-6.43 4.66-6.43 1.59.215 3.505.59 4.63 1.236.885 2.646 1.806 8.157 4.566 10.397 2.113 9.867 2.425 22.808 2.443 23.54z"/><path fill="#f6b90c" d="M37.374 55.195v1.856c0 .99-.804 1.791-1.796 1.791h-.004a1.794 1.794 0 0 1-1.797-1.791v-1.856z"/><path fill="#eeeeed" d="M42.371 60.529v23.57h-2.133V57.554c.565 1.197 1.255 2.248 2.132 2.975zM16.79 58.88a17.197 17.197 0 0 1-2.133 2.972V84.1h2.133V58.88m1.731 6.789h20.187v12.463H18.52z"/><path fill="#99588c" d="M18.52 65.671h20.187v2.518H18.52zm0 10.871h20.187v1.59H18.52z"/><path fill="#be9269" d="M26.496 110.575h-8.593l-.023-4.235-.35-7.898-.625-3.048h10.792v3.048l-.237 7.898zm12.327 0h-9.26l-.305-4.235-.227-7.898v-3.048h10.792l-.627 3.048-.347 7.898z" data-paper-data="{&quot;origPos&quot;:null}"/><path fill="#343434" d="M41.28 84.056 40.155 95.59H29.182l-.41-4.242h-.297l-.416 4.242H17.082l-1.119-11.534H31.89z"/><path fill="#eeeeed" d="M27.92 110.384h.021c.065.266-.02.559-.207.839-.595.912-1.628 1.588-2.505 2.202-.143.096-.29.186-.44.274H16.99v-2.594a6.21 6.21 0 0 1 .918-.721h-.006l.237-4.044h9.581z"/><path fill="#e63744" d="M27.75 106.997H18.1l.01-.202h9.633zm.02.398h-9.694l.013-.2h9.673z"/><path fill="#eeeeed" d="M40.98 111.932v1.766h-8.523a8.322 8.322 0 0 1-.437-.281c-.88-.611-1.915-1.281-2.508-2.193-.184-.283-.27-.575-.204-.841h.01l.2-4.042h9.59l.234 4.042h-.006a5.734 5.734 0 0 1 1.643 1.549z"/><path fill="#e63744" d="M29.495 106.794h9.638l.01.202h-9.659zm-.019.4h9.68l.01.2h-9.699z"/><path fill="#6e6e6d" d="M17.897 110.369s.2-1.915 1.82-1.995c1.68-.082 2.952 1.654 2.952 1.654l-4.743.356z"/><path fill="#d2771a" d="M18.513 110.193s.136-1.317 1.248-1.373c1.156-.056 2.034 1.137 2.034 1.137l-3.265.245z"/><path fill="#f29221" d="M17.926 110.384s1.95-1.212 6.33 0c1.768.206 2.316-1.427 3.148-1.791.412-.183.537 0 .537 0v1.791c.065.266-.02.558-.207.838-.595.913-1.628 1.586-2.505 2.2-1.363.927-3.082 1.42-4.587 2.134-1.36.571-3.152 1.633-4.37.28-1.614-1.921-.244-4.259 1.636-5.452h-.006l-.004-.009.028.009"/><path fill="#343434" d="M27.601 111.411c-.604.82-1.559 1.44-2.374 2.01-.569.386-1.205.701-1.86.984l-.177-.36c1.942-.562 4.196-2.832 4.196-2.832l.215.198m-9.675-1.027s1.477-.92 4.743-.356c-.959.708-2.566 1.746-3.706 1.755-1.464.01-1.5-.663-1.21-1.3.047-.037.104-.041.155-.105h-.006l-.004-.009.028.015"/><path fill="#343434" d="M17.854 111.624c2.575 0 4.826 1.024 6.033 2.547-1.056.502-2.204.892-3.245 1.385-1.36.572-3.152 1.634-4.369.28-1.12-1.337-.8-2.875.13-4.087.004-.005.008-.013.013-.017a9.53 9.53 0 0 1 1.438-.108"/><path fill="#eeeeed" d="M27.886 108.794c.018 0 .036.002.054.004v1.586c.066.266-.02.558-.205.838a4.207 4.207 0 0 1-.403.515c-.132-.311-.212-.736-.212-1.203 0-.961.343-1.74.766-1.74"/><path fill="#d2771a" d="M16.8 111.321a.03.03 0 0 1-.03-.026.03.03 0 0 1 .023-.039c.021-.006 2.145-.521 4.87-.015.018.002.033.022.027.037-.003.019-.018.03-.04.027-2.708-.504-4.819.01-4.842.013 0 .003-.005.003-.009.003m.562-.512a.038.038 0 0 1-.034-.021c-.005-.02.006-.037.023-.041.018-.009 1.993-.654 4.733-.034.016.004.028.023.026.04-.004.018-.023.03-.038.024-2.724-.614-4.677.024-4.699.03-.004.002-.009.002-.01.002"/><path fill="#6e6e6d" d="m39.32 110.384-4.748-.356s1.276-1.736 2.954-1.654c1.623.08 1.822 1.995 1.822 1.995z"/><path fill="#d2771a" d="m38.715 110.202-3.264-.245s.877-1.193 2.033-1.137c1.113.056 1.25 1.373 1.25 1.373z"/><path fill="#f29221" d="m39.32 110.384.028-.009-.005.009h-.006c1.88 1.193 3.245 3.531 1.636 5.452-1.218 1.353-3.01.291-4.37-.28-1.505-.714-3.224-1.207-4.584-2.134-.88-.614-1.913-1.287-2.508-2.2-.183-.28-.272-.572-.207-.838v-1.791s.12-.183.54 0c.83.364 1.377 1.997 3.147 1.791 4.38-1.212 6.33 0 6.33 0"/><path fill="#343434" d="m29.644 111.411.216-.198s2.25 2.27 4.196 2.832l-.177.36c-.656-.283-1.292-.598-1.859-.984-.82-.57-1.77-1.19-2.376-2.01m9.676-1.027.028-.015-.005.009h-.006c.052.064.103.068.155.105.291.637.255 1.31-1.21 1.3-1.138-.009-2.744-1.047-3.71-1.755 3.268-.564 4.748.356 4.748.356"/><path fill="#343434" d="M39.391 111.624c.494 0 .975.037 1.436.108.005.004.011.012.015.017.93 1.212 1.251 2.75.13 4.087-1.216 1.354-3.008.292-4.369-.28-1.04-.493-2.188-.883-3.25-1.385 1.213-1.523 3.464-2.547 6.038-2.547"/><path fill="#eeeeed" d="M29.36 108.794c.422 0 .765.779.765 1.74 0 .467-.082.892-.213 1.203a4.353 4.353 0 0 1-.4-.515c-.185-.28-.273-.572-.206-.838v-1.586a.42.42 0 0 1 .054-.004"/><path fill="#d2771a" d="M40.446 111.321c-.004 0-.008 0-.01-.003-.022-.003-2.133-.517-4.84-.013a.039.039 0 0 1-.044-.027c0-.015.01-.035.03-.037 2.725-.506 4.85.009 4.871.015a.032.032 0 0 1 .023.039.03.03 0 0 1-.03.026m-.563-.512c-.003 0-.007 0-.01-.002-.02-.006-1.975-.644-4.698-.03-.018.006-.035-.006-.039-.024-.004-.017.01-.036.026-.04 2.74-.62 4.711.025 4.733.034.017.004.028.021.023.041a.038.038 0 0 1-.034.021"/><path fill="#be9269" d="M30.265 50.513h-3.797c-1.087 0-1.967-2.322-1.967-3.382h7.728c0 1.06-.88 3.382-1.964 3.382" data-paper-data="{&quot;origPos&quot;:null}"/><path fill="#eeac6c" d="M25.33 49.651c-.436-.66-.745-1.579-.816-2.242 1.227.2 2.485.303 3.765.303 1.343 0 2.657-.112 3.933-.333l-.01.015-6.872 2.257"/><path fill="#be9269" d="M5.597 28.009a23.156 23.156 0 0 1-.26-3.48c0-12.788 10.414-23.15 23.263-23.15 12.85 0 23.266 10.362 23.266 23.15 0 1.128-.08 2.235-.238 3.323 1.344.73 2.25 2.11 2.25 3.692 0 2.35-1.99 4.254-4.445 4.254-.163 0-.325-.01-.487-.028A23.283 23.283 0 0 1 28.6 47.679 23.279 23.279 0 0 1 8.27 35.793c-.07.002-.137.006-.209.006-2.45 0-4.444-1.905-4.444-4.254 0-1.474.787-2.774 1.98-3.536" data-paper-data="{&quot;origPos&quot;:null}"/><path fill="#6d4731" d="M25.091 23.149s-.503 1.803-2.082 1.446c-.772-.174-.908-1.201-3.386-.74-.779.18-2.417 1.156-2.732 1.808-.316.652-.088-2.392 2.457-3.522 1.835-.675 2.457-.642 3.977-.642s1.987.907 1.766 1.65m9.741 0s.503 1.803 2.082 1.446c.772-.174.908-1.201 3.386-.74.78.18 2.417 1.156 2.732 1.808.316.652.087-2.392-2.457-3.522-1.835-.675-2.457-.642-3.977-.642s-1.987.907-1.766 1.65" data-paper-data="{&quot;origPos&quot;:null}"/><path fill="#6d4b19" d="M22.521 30.499c0 1.657-.895 3-2 3s-2-1.343-2-3 .895-3 2-3 2 1.343 2 3m18 0c0 1.657-.895 3-2 3s-2-1.343-2-3 .895-3 2-3 2 1.343 2 3" data-paper-data="{&quot;origPos&quot;:null}"/><path fill="#eeac6c" d="M29.8 33.568c-1.125.153-3.02 1.834-3.02 1.834s.207-1.009.503-1.299c.8-1.156 2.487-1.604 2.487-1.604s2.173.703 2.65 1.588c.443.824.34 1.238.34 1.238s-2.12-1.871-2.96-1.756z"/><path fill="#a53b46" d="M22.98 37.195s6.897 3.208 13.172-.397c0 0-1.39 5.47-5.95 5.561-4.115.122-4.984-1.492-5.477-1.956-.492-.463-1.42-1.772-1.745-3.208" data-paper-data="{&quot;origPos&quot;:null}"/><path fill="#6d4731" d="M52.69 21.739c.035 2.708-1.176 6.467-1.176 6.467s-6.146-7.241-9.893-9.273c-4.587-2.478-6.867 1.176-10.967-2.04-.677-.534-1.945-1.948-1.945-1.948-.648.65-1.297 1.3-1.947 1.947-4.607 4.487-8.06-.748-11.937 1.96-4.933 3.45-9.106 9.191-9.106 9.191s-1.433-1.633-1.233-6.557c.056-1.42.748-4.565 1.873-7.762A24.872 24.872 0 0 1 28.63 0C39.83 0 49.306 7.373 52.413 17.506c.158 1.406.25 2.819.276 4.233" data-paper-data="{&quot;origPos&quot;:null}"/></g></svg>