<svg xmlns="http://www.w3.org/2000/svg" width="59.802" height="117.891"><g fill-rule="evenodd" stroke-miterlimit="10" data-paper-data="{&quot;isPaintingLayer&quot;:true}" style="mix-blend-mode:normal"><path fill="#9a7859" d="M37.882 85.156 36.6 102.334l-11.043-.002-.195-9.753h-.29l-.197 9.753-11.038.002-1.28-17.178z"/><path fill="#131313" d="m24.879 102.333-.323 9.56c.066.256-.02.536-.197.813-.58.898-1.587 1.554-2.447 2.154-1.326.911-3.003 1.402-4.471 2.104-1.328.56-3.073 1.614-4.26.28-1.573-1.891-.241-4.211 1.597-5.351l-.924-9.56h11.024z"/><path fill="#3d3d3d" d="m13.859 102.323 11.02.01s.186 2.765.013 3.78c-2.338 1.314-8.711 1.551-11.538 0 .265-.955.504-3.791.504-3.791z"/><path fill="#131313" d="M35.67 111.892c1.836 1.142 3.168 3.46 1.596 5.352-1.185 1.332-2.934.28-4.258-.278-1.468-.705-3.144-1.194-4.473-2.107-.857-.6-1.867-1.255-2.444-2.151-.18-.278-.264-.56-.2-.816l-.323-9.56h11.021l-.92 9.56"/><path fill="#3d3d3d" d="M36.583 102.322s.24 2.836.505 3.791c-2.828 1.551-9.2 1.314-11.539 0-.172-1.015.016-3.78.016-3.78l11.018-.01z"/><path fill="#9e743c" d="M57.896 40.907c1.873.796 2.466 3.631 1.328 6.334-1.14 2.7-3.583 4.244-5.456 3.446-1.005-.429-1.645-1.444-1.84-2.711-.358-.655-.653-1.475-.828-2.391-.467-2.395.053-4.509 1.154-4.725.591-.115 1.231.338 1.764 1.15 1.189-1.147 2.655-1.625 3.878-1.103M1.436 78.682c-.255 2.409.894 4.502 2.562 4.68 1.089.118 2.134-.614 2.798-1.805.616.511 1.232.716 1.67.483.817-.439.72-2.232-.219-4.009a6.91 6.91 0 0 0-1.227-1.689c-.46-.954-1.204-1.6-2.104-1.696-1.669-.178-3.228 1.631-3.48 4.036" data-paper-data="{&quot;origPos&quot;:null}"/><path fill="#10513d" d="M10.129 52.958c.099-.12.617.022.617.022l.919.767s-1.058 1.202-1.481.96c-.115-.931-.193-1.349-.055-1.749m27.97-2.087c-.328-.055-.846 1.023-.846 1.023l1.417.533s-.292-1.24-.571-1.555m1.604 9.537c-.383.076-.936-1.282-.936-1.282l.937-.189s.263.869 0 1.471"/><path fill="#248b74" d="M25.319 47.459s7.217-1.265 6.685 2.58c-.303 1.647-6.685 0-6.685 0s-6.386 1.647-6.69 0c-.53-3.845 6.69-2.58 6.69-2.58"/><path fill="#eeeeed" d="m7.309 75.656-5.058.004s.093-.838.29-2.176C-.475 70.718 4.78 60.109 7.61 56.478c1.654-2.118 6.434-4.822 7.294-5.298 2.139-1.384 8.551-1.593 8.551-1.593l1.792.053h.146l1.789-.053s6.306.453 8.562 1.617c3.32.118 10.76 4.225 10.76 4.225s2.378-6.309 4.318-5.033c.334-.387 1.326-1.545 1.326-1.545l4.862 2.402s-.336.705-.883 1.751c2.407 3.212-4.435 8.005-6.647 8.81-2.359.857-9.43-1.947-10.027-2.223L10.61 62.9l-.252.367c-1.276 1.809-.65 9.862-2.788 10.626-.092.587-.179 1.175-.261 1.763"/><path fill="#248b74" d="M18.631 50.04c.875-.922 1.523-.91 1.982-.253l4.685 11.044 4.858-11.024c.534-.689 1.506-.196 1.847.231 1.523.238 3.457.484 5.392.507 0 0-.755 6.813 2.31 9.864 2.203 10.298 1.709 24.747 1.709 24.747L9.03 85.154s-.195-12.01 1.357-21.936c3.14-5.207.118-10.076.385-10.742 1.469-.896 6.353-2.196 7.859-2.436"/><path fill="#f6b90c" d="M26.084 65.335a.767.767 0 1 1-.765-.769.77.77 0 0 1 .766.77m-.001 3.743a.768.768 0 1 1-1.534 0 .768.768 0 1 1 1.535 0m-.001 3.745a.77.77 0 0 1-.765.77.77.77 0 0 1-.769-.77.768.768 0 0 1 1.534 0m0 3.741a.768.768 0 1 1-1.534.078.768.768 0 0 1 1.534-.078"/><path fill="#0b5441" d="M18.698 50.032s.007.007.009.03l.009.086c.009.074.017.185.022.322.007.283-.005.68-.027 1.156-.022.473-.05 1.027-.022 1.616.016.297.047.6.104.902.062.304.157.606.308.875.075.14.166.267.268.383.05.053.108.108.166.16.013.008.029.022.044.035.018.011.03.022.047.031.03.02.062.038.097.056.133.064.286.098.432.118.153.02.299.026.447.033.297.007.583.007.855.033.27.027.527.08.748.174.222.09.403.22.539.357.139.136.234.274.307.394.071.12.113.22.144.286l.042.107s-.015-.038-.046-.107a2.47 2.47 0 0 0-.149-.28 1.87 1.87 0 0 0-.31-.389 1.613 1.613 0 0 0-.54-.342 2.39 2.39 0 0 0-.74-.16c-.27-.02-.553-.015-.85-.018a4.597 4.597 0 0 1-.456-.026 1.49 1.49 0 0 1-.454-.118.857.857 0 0 1-.16-.091c-.012-.013-.028-.022-.046-.036a2.506 2.506 0 0 1-.175-.169 2.228 2.228 0 0 1-.28-.388c-.16-.28-.26-.592-.326-.9a6.212 6.212 0 0 1-.118-.914c-.022-.542-.02-1.084.007-1.626.015-.478.024-.872.013-1.145a2.82 2.82 0 0 0-.035-.398l-.002-.029.128-.017zm13.386.02s0 .006-.007.028l-.01.08c-.008.073-.02.18-.021.316-.014.275-.005.668.013 1.146.015.474.04 1.031.006 1.627-.02.298-.05.607-.12.913a3.05 3.05 0 0 1-.325.9c-.117.211-.27.4-.454.556-.017.013-.035.024-.046.038a.346.346 0 0 0-.051.033c-.04.02-.075.042-.11.058-.146.062-.3.101-.457.117-.15.018-.303.023-.454.025-.294.002-.58-.002-.85.018-.253.016-.501.07-.737.162a1.61 1.61 0 0 0-.54.34c-.142.133-.24.271-.313.391a2.62 2.62 0 0 0-.148.28c-.033.069-.045.104-.045.104s.012-.035.043-.104c.03-.069.073-.167.146-.287.068-.12.168-.26.305-.395a1.68 1.68 0 0 1 .538-.358 2.53 2.53 0 0 1 .749-.171c.27-.027.558-.027.852-.033.15-.007.3-.014.448-.036.15-.018.298-.053.434-.116.033-.017.064-.035.095-.055.02-.011.03-.022.048-.031.014-.014.031-.027.043-.038a2.28 2.28 0 0 0 .168-.158c.102-.118.195-.244.27-.382a3.02 3.02 0 0 0 .303-.876c.062-.302.091-.606.107-.902.028-.589 0-1.144-.02-1.618a16.428 16.428 0 0 1-.027-1.153 3.31 3.31 0 0 1 .022-.324c.002-.038.007-.067.007-.087l.002-.027.135.018z"/><path fill="#248b74" d="M41.414 85.156s.297 2.852.011 6.185c-1.407.475-6.025 1.769-11.377 1.875-1.528.032-4.714-8.506-4.714-8.506s-3.065 8.54-4.548 8.513c-5.518-.102-10.327-1.398-11.767-1.882-.286-3.385.011-6.187.011-6.187l15.889-1.042a.232.232 0 0 0-.01-.047l.312.025.314-.025s-.006.016-.011.047l15.89 1.044"/><path fill="#0e7157" d="M10.358 63.267c2.061-4.666 1.36-8.326-.23-10.309.119-.348.597-.755 1.47-.246 1.136.662 2.661 6.37-1.24 10.555m29.346-2.858c-2.715-3.935-2.724-7.429-1.606-9.538-.168-.3-.684-.589-1.395.034-.932.809-1.322 6.335 3 9.504"/><path fill="#683918" d="M41.462 81.114c.006 2.205-.034 3.69-.045 4l-32.386-.006c-.004-.314-.022-1.789.013-3.994h32.418"/><path fill="#f7b90b" d="M29.376 85.609c-1.366 1.371-6.231 1.22-7.732 0-1.008-.82-.92-4.296 0-5.218 1.368-1.369 6.514-1.507 7.732 0 .813 1.016.917 4.296 0 5.218"/><path fill="#683918" d="M28.004 84.674c-.887.888-4.038.79-5.014 0-.658-.532-.594-2.785 0-3.383.885-.889 4.227-.98 5.015 0 .527.656.596 2.783 0 3.383"/><path fill="#d69d0b" d="M29.074 83.048a.23.23 0 0 1-.231.231h-1.53a.228.228 0 0 1-.226-.231v-.018c0-.125.1-.228.226-.23h1.53c.126 0 .23.104.23.23v.018z"/><path fill="#9e743c" d="M28.734 49.682c.204.01.408.027.611.052l-4.048 7.89-3.928-7.901c.193-.023.534-.045.581-.05-.295-.666-.47-1.416-.47-1.886h7.73c0 .475-.18 1.225-.476 1.895" data-paper-data="{&quot;origPos&quot;:null}"/><path fill="#eeac6c" d="M22.309 50.352a5.669 5.669 0 0 1-.817-2.265 23.16 23.16 0 0 0 3.767.307c1.342 0 2.655-.116 3.935-.331l-.014.013-6.871 2.276"/><path fill="#9e743c" d="M48.243 28.57c1.191.769 1.975 2.078 1.975 3.565 0 2.364-1.987 4.286-4.437 4.286-.071 0-.142-.004-.209-.006-3.974 7.147-11.585 11.977-20.318 11.977-8.74 0-16.355-4.841-20.327-11.996a4.828 4.828 0 0 1-.489.026C1.986 36.422 0 34.5 0 32.136c0-1.598.904-2.987 2.246-3.724a23.714 23.714 0 0 1-.24-3.35c0-12.886 10.41-23.33 23.248-23.33 12.84 0 23.25 10.444 23.25 23.33 0 1.194-.088 2.365-.261 3.51" data-paper-data="{&quot;origPos&quot;:null}"/><path fill="#523914" d="M20.985 22.702s-.503 1.803-2.082 1.446c-.772-.174-.908-1.201-3.386-.74-.779.18-2.417 1.156-2.732 1.808-.316.652-.088-2.392 2.457-3.522 1.835-.675 2.457-.642 3.977-.642s1.987.907 1.766 1.65m9.741 0s.503 1.803 2.082 1.446c.772-.174.908-1.201 3.386-.74.779.18 2.417 1.156 2.732 1.808.316.652.087-2.392-2.457-3.522-1.835-.675-2.457-.642-3.977-.642s-1.987.907-1.766 1.65M18.674 30.052c0 1.657-.895 3-2 3s-2-1.343-2-3 .895-3 2-3 2 1.343 2 3m18 0c0 1.657-.895 3-2 3s-2-1.343-2-3 .895-3 2-3 2 1.343 2 3" data-paper-data="{&quot;origPos&quot;:null}"/><path fill="#eeac6c" d="M25.694 33.121c-1.125.153-3.02 1.834-3.02 1.834s.207-1.009.503-1.299c.8-1.156 2.487-1.604 2.487-1.604s2.173.703 2.65 1.588c.443.824.34 1.238.34 1.238s-2.121-1.871-2.96-1.756zM18.874 36.748s6.897 3.208 13.172-.397c0 0-1.39 5.47-5.95 5.561-4.115.122-4.984-1.492-5.477-1.956-.492-.463-1.42-1.772-1.745-3.208"/><path fill="#523914" d="M49.429 22.023c.036 2.74-.919 8.666-2.784 12.202 0 0-4.568-12.987-8.334-15.043-4.606-2.513-16.742 1.112-20.852-2.15-.687-.54-.609-1.767-.609-1.767s-.786 1.564-1.169 2c-1.991 2.275-7.161 5.573-9.615 7.342C4.093 26.029 4 26.014 4.439 34.225c0 0-3.625-7.471-3.426-12.46.058-1.438.753-4.625 1.88-7.865C6.983 5.66 15.466 0 25.259 0c11.255 0 20.77 7.469 23.889 17.736.159 1.424.252 2.854.28 4.286" data-paper-data="{&quot;origPos&quot;:null}"/></g></svg>