<svg version="1.1" xmlns="http://www.w3.org/2000/svg" xmlns:xlink="http://www.w3.org/1999/xlink" width="75.00923" height="118.73268" viewBox="0,0,75.00923,118.73268"><g transform="translate(-203.175,-120.804)"><g data-paper-data="{&quot;isPaintingLayer&quot;:true}" fill-rule="evenodd" stroke="none" stroke-width="1" stroke-linecap="butt" stroke-linejoin="miter" stroke-miterlimit="10" stroke-dasharray="" stroke-dashoffset="0" style="mix-blend-mode: normal"><path d="M226.675,233.697v0.633l-19.212,2.251h-0.006l-4.26,-2.064l0.015,-0.002l-0.037,-0.022v-0.645l6.063,-0.04l13.165,-1.542l2.971,1.44z" fill="#35190f"/><path d="M207.456,235.934l-4.26,-2.066l19.209,-2.251l4.26,2.068z" fill="#542811"/><path d="M219.924,232.677l-0.924,-0.445l3.075,-0.363l0.924,0.448z" fill="#75380f"/><path d="M219.386,232.185c0.764,0.418 2.704,0.168 3.446,0.05l0.166,0.083l-3.074,0.36l-0.924,-0.448l0.386,-0.045" fill="#8d5015"/><path d="M221.24,233.314l-0.922,-0.448l3.075,-0.357l0.921,0.442z" fill="#75380f"/><path d="M220.702,232.824c0.764,0.418 2.704,0.165 3.445,0.05l0.167,0.078l-3.074,0.362l-0.922,-0.447l0.384,-0.043" fill="#8d5015"/><path d="M222.556,233.953l-0.924,-0.447l3.075,-0.363l0.923,0.448z" fill="#75380f"/><path d="M222.018,233.459c0.764,0.42 2.704,0.17 3.445,0.05l0.167,0.083l-3.074,0.362l-0.924,-0.449l0.386,-0.046" fill="#8d5015"/><path d="M216.251,233.11l-0.924,-0.452l3.075,-0.358l0.924,0.447z" fill="#75380f"/><path d="M215.713,232.615c0.764,0.419 2.704,0.17 3.446,0.05l0.166,0.083l-3.074,0.362l-0.924,-0.452l0.386,-0.043" fill="#8d5015"/><path d="M217.567,233.746l-0.924,-0.45l3.075,-0.357l0.923,0.445z" fill="#75380f"/><path d="M217.031,233.254c0.762,0.419 2.702,0.166 3.446,0.051l0.166,0.08l-3.076,0.363l-0.924,-0.45l0.388,-0.044" fill="#8d5015"/><path d="M218.883,234.383l-0.924,-0.447l3.074,-0.362l0.924,0.447z" fill="#75380f"/><path d="M218.347,233.889c0.762,0.421 2.701,0.17 3.445,0.05l0.167,0.083l-3.076,0.363l-0.924,-0.45l0.388,-0.046" fill="#8d5015"/><path d="M212.578,233.54l-0.924,-0.452l3.075,-0.358l0.921,0.447z" fill="#75380f"/><path d="M212.038,233.045c0.764,0.421 2.705,0.17 3.445,0.05l0.167,0.083l-3.072,0.363l-0.924,-0.452l0.384,-0.044" fill="#8d5015"/><path d="M213.894,234.175l-0.924,-0.448l3.074,-0.358l0.922,0.448z" fill="#75380f"/><path d="M213.354,233.685c0.764,0.416 2.705,0.165 3.445,0.048l0.167,0.085l-3.072,0.357l-0.924,-0.447l0.384,-0.043" fill="#8d5015"/><path d="M215.21,234.814l-0.922,-0.448l3.072,-0.362l0.922,0.452z" fill="#75380f"/><path d="M214.67,234.32c0.763,0.42 2.705,0.17 3.445,0.05l0.167,0.085l-3.073,0.36l-0.921,-0.45l0.382,-0.045" fill="#8d5015"/><path d="M208.903,233.97l-0.922,-0.45l3.072,-0.36l0.926,0.448z" fill="#75380f"/><path d="M208.365,233.476c0.765,0.42 2.705,0.166 3.445,0.05l0.169,0.083l-3.076,0.362l-0.922,-0.449l0.384,-0.046" fill="#8d5015"/><path d="M210.219,234.605l-0.922,-0.447l3.072,-0.363l0.926,0.452z" fill="#75380f"/><path d="M209.681,234.115c0.763,0.416 2.705,0.166 3.445,0.048l0.169,0.085l-3.077,0.358l-0.921,-0.448l0.383,-0.043" fill="#8d5015"/><path d="M211.534,235.244l-0.921,-0.447l3.072,-0.362l0.926,0.451z" fill="#75380f"/><path d="M210.997,234.752c0.765,0.419 2.705,0.168 3.444,0.05l0.17,0.085l-3.077,0.358l-0.921,-0.447l0.384,-0.046" fill="#8d5015"/><path d="M205.23,234.4l-0.924,-0.45l3.076,-0.36l0.922,0.448z" fill="#75380f"/><path d="M204.69,233.909c0.766,0.418 2.705,0.165 3.447,0.05l0.167,0.08l-3.074,0.363l-0.924,-0.45l0.384,-0.044" fill="#8d5015"/><path d="M206.546,235.035l-0.924,-0.445l3.074,-0.36l0.924,0.447z" fill="#75380f"/><path d="M206.006,234.543c0.765,0.421 2.703,0.168 3.447,0.05l0.167,0.085l-3.075,0.358l-0.923,-0.447l0.384,-0.046" fill="#8d5015"/><path d="M207.861,235.675l-0.923,-0.446l3.076,-0.362l0.922,0.45z" fill="#75380f"/><path d="M207.321,235.183c0.766,0.418 2.706,0.167 3.448,0.05l0.167,0.085l-3.075,0.357l-0.924,-0.447l0.384,-0.046" fill="#8d5015"/><path d="M265.556,233.77c0.046,0.063 0.094,0.227 0.074,0.303c-0.443,0.208 -0.994,1.361 -1.511,1.418c-0.11,0.013 -0.35,-0.111 -0.38,-0.218c-0.058,-0.185 0.401,-0.508 0.37,-0.705c-0.037,-0.198 -0.552,-0.352 -0.592,-0.552c-0.033,-0.174 0.351,-0.475 0.314,-0.652c-0.033,-0.14 -0.455,-0.22 -0.437,-0.36c0.011,-0.092 0.239,-0.155 0.334,-0.155c0.531,-0.009 1.228,0.807 1.828,0.921" fill="#f08314"/><path d="M264.664,233.297c0.301,0.209 0.606,0.416 0.891,0.473c0.046,0.063 0.094,0.225 0.074,0.301c-0.243,0.116 -0.522,0.517 -0.805,0.862c-0.114,0.046 -0.206,0.057 -0.268,0.004c-0.123,-0.109 0.314,-0.43 0.29,-0.595c-0.022,-0.142 -0.443,-0.273 -0.41,-0.417c0.039,-0.146 0.544,-0.037 0.575,-0.185c0.033,-0.136 -0.481,-0.256 -0.415,-0.38c0.01586,-0.02733 0.03954,-0.04927 0.068,-0.063" fill="#d2751e"/><path d="M269.409,233.096c0.526,-0.312 0.901,-1.318 1.404,-1.488c0.086,-0.028 0.325,-0.046 0.366,0.03c0.066,0.13 -0.305,0.35 -0.285,0.49c0.022,0.18 0.485,0.329 0.516,0.51c0.033,0.199 -0.402,0.517 -0.369,0.714c0.04,0.2 0.58,0.342 0.593,0.543c0.004,0.109 -0.174,0.31 -0.281,0.331c-0.507,0.118 -1.42,-0.776 -1.907,-0.822c-0.048,-0.066 -0.057,-0.231 -0.037,-0.308" fill="#f08314"/><path d="M270.086,232.35c0.03139,-0.00072 0.0616,0.01202 0.083,0.035c0.105,0.094 -0.336,0.38 -0.259,0.498c0.08,0.126 0.518,-0.144 0.604,-0.022c0.083,0.12 -0.268,0.388 -0.244,0.535c0.037,0.161 0.555,0.314 0.478,0.458c-0.04,0.07 -0.133,0.091 -0.252,0.087c-0.388,-0.229 -0.783,-0.51 -1.051,-0.539c-0.046,-0.063 -0.055,-0.229 -0.037,-0.305c0.25,-0.15 0.465,-0.452 0.678,-0.746" fill="#d2751e"/><path d="M265.337,234.072c-0.077,-0.436 0.74,-1.287 2.056,-1.518c1.218,-0.214 2.256,0.364 2.324,0.75c0.048,0.266 -0.788,0.92 -2.111,1.152c-1.273,0.225 -2.203,-0.009 -2.27,-0.384" fill="#0771b7"/><path d="M269.717,233.305c0.046,0.264 -0.788,0.92 -2.111,1.15c-0.608,0.109 -1.137,0.111 -1.531,0.044c3.12,-0.269 3,-1.314 2.69,-1.872c0.544,0.163 0.911,0.451 0.952,0.678" fill="#176691"/><path d="M267.066,232.973c0.029,0.065 -0.162,0.218 -0.428,0.334c-0.263,0.124 -0.502,0.168 -0.533,0.104c-0.028,-0.063 0.163,-0.213 0.428,-0.331c0.266,-0.125 0.505,-0.17 0.533,-0.107" fill="#6daed2"/><path d="M272.302,235.752c0.019,0.06 0.015,0.2 -0.022,0.25c-0.397,0.048 -1.126,0.785 -1.539,0.7c-0.087,-0.021 -0.237,-0.18 -0.234,-0.27c0.008,-0.162 0.447,-0.284 0.472,-0.447c0.026,-0.162 -0.334,-0.417 -0.31,-0.576c0.02,-0.149 0.397,-0.28 0.413,-0.424c0.01,-0.111 -0.29,-0.286 -0.24,-0.39c0.033,-0.068 0.226,-0.057 0.299,-0.033c0.408,0.133 0.731,0.947 1.161,1.189" fill="#228e37"/><path d="M271.742,235.155c0.176,0.237 0.354,0.482 0.56,0.595c0.02,0.063 0.015,0.201 -0.022,0.253c-0.217,0.024 -0.537,0.26 -0.847,0.452c-0.101,0.009 -0.177,-0.009 -0.207,-0.07c-0.067,-0.113 0.356,-0.247 0.38,-0.377c0.02,-0.118 -0.272,-0.332 -0.206,-0.432c0.068,-0.103 0.428,0.115 0.492,0.011c0.059,-0.101 -0.299,-0.325 -0.216,-0.404c0.01789,-0.01701 0.04134,-0.02696 0.066,-0.028" fill="#287332"/><path d="M275.445,236.246c0.49,-0.105 1.045,-0.78 1.475,-0.78c0.075,0 0.263,0.046 0.272,0.12c0.02,0.114 -0.325,0.19 -0.347,0.302c-0.028,0.144 0.288,0.38 0.264,0.523c-0.03,0.162 -0.448,0.297 -0.474,0.46c-0.024,0.158 0.353,0.41 0.311,0.568c-0.024,0.085 -0.217,0.19 -0.305,0.183c-0.419,-0.043 -0.886,-0.97 -1.25,-1.132c-0.02,-0.061 0.022,-0.196 0.054,-0.244" fill="#228e37"/><path d="M276.163,235.845c0.02276,0.01042 0.04267,0.02621 0.058,0.046c0.054,0.102 -0.358,0.21 -0.334,0.32c0.03,0.118 0.439,0.022 0.47,0.14c0.032,0.116 -0.312,0.23 -0.325,0.347c-0.018,0.135 0.344,0.386 0.243,0.476c-0.048,0.048 -0.125,0.039 -0.217,0.004c-0.237,-0.281 -0.47,-0.598 -0.67,-0.687c-0.017,-0.061 0.025,-0.197 0.058,-0.245c0.23,-0.052 0.478,-0.227 0.717,-0.401" fill="#287332"/><path d="M272.055,235.926c0.055,-0.358 0.91,-0.796 1.984,-0.626c0.994,0.15 1.64,0.868 1.589,1.182c-0.035,0.218 -0.852,0.502 -1.93,0.336c-1.041,-0.163 -1.689,-0.584 -1.643,-0.892" fill="#f6b90c"/><path d="M275.628,236.482c-0.036,0.22 -0.852,0.502 -1.929,0.336c-0.494,-0.079 -0.907,-0.213 -1.19,-0.373c2.473,0.613 2.658,-0.22 2.568,-0.729c0.373,0.266 0.581,0.585 0.551,0.766" fill="#dca61b"/><path d="M273.675,235.538c0.005,0.055 -0.18,0.12 -0.414,0.14c-0.237,0.026 -0.433,-0.002 -0.444,-0.057c-0.002,-0.057 0.185,-0.124 0.422,-0.146c0.237,-0.024 0.432,0.004 0.436,0.063" fill="#f9d477"/><path d="M264.568,236.416c0.028,0.102 0.022,0.331 -0.038,0.421c-0.665,0.074 -1.878,1.309 -2.567,1.161c-0.145,-0.031 -0.397,-0.295 -0.389,-0.445c0.012,-0.274 0.742,-0.476 0.782,-0.744c0.043,-0.269 -0.553,-0.696 -0.512,-0.965c0.033,-0.244 0.658,-0.46 0.688,-0.702c0.023,-0.193 -0.486,-0.483 -0.4,-0.653c0.055,-0.114 0.379,-0.094 0.498,-0.054c0.682,0.221 1.218,1.573 1.938,1.981" fill="#f08314"/><path d="M263.633,235.421c0.295,0.399 0.593,0.803 0.935,0.995c0.026,0.102 0.022,0.331 -0.037,0.421c-0.366,0.039 -0.893,0.432 -1.416,0.751c-0.164,0.013 -0.289,-0.016 -0.344,-0.112c-0.108,-0.194 0.592,-0.412 0.634,-0.63c0.03,-0.199 -0.452,-0.554 -0.34,-0.72c0.112,-0.17 0.711,0.19 0.818,0.015c0.096,-0.164 -0.502,-0.542 -0.364,-0.672c0.03089,-0.02934 0.07142,-0.04641 0.114,-0.048" fill="#d2751e"/><path d="M269.81,237.234c0.814,-0.166 1.735,-1.292 2.455,-1.296c0.127,0 0.439,0.08 0.459,0.205c0.028,0.188 -0.547,0.312 -0.584,0.5c-0.048,0.24 0.48,0.635 0.439,0.877c-0.044,0.268 -0.746,0.49 -0.786,0.76c-0.044,0.268 0.588,0.69 0.516,0.948c-0.037,0.144 -0.36,0.321 -0.51,0.308c-0.7,-0.07 -1.478,-1.617 -2.084,-1.89c-0.028,-0.1 0.035,-0.322 0.094,-0.412" fill="#f08314"/><path d="M271.007,236.574c0.04,0.017 0.073,0.043 0.093,0.08c0.09,0.166 -0.597,0.34 -0.553,0.528c0.048,0.199 0.73,0.04 0.78,0.236c0.053,0.192 -0.513,0.382 -0.541,0.578c-0.033,0.22 0.568,0.644 0.408,0.794c-0.081,0.077 -0.213,0.064 -0.364,0.005c-0.395,-0.46 -0.782,-0.997 -1.115,-1.148c-0.029,-0.102 0.035,-0.323 0.094,-0.412c0.386,-0.079 0.795,-0.371 1.198,-0.661" fill="#d2751e"/><path d="M264.156,236.708c0.09,-0.594 1.514,-1.331 3.31,-1.047c1.652,0.257 2.73,1.45 2.644,1.976c-0.055,0.36 -1.416,0.84 -3.215,0.557c-1.736,-0.269 -2.822,-0.973 -2.739,-1.486" fill="#e42328"/><path d="M270.109,237.637c-0.054,0.36 -1.415,0.84 -3.214,0.556c-0.83,-0.128 -1.508,-0.355 -1.986,-0.615c4.125,1.015 4.433,-0.371 4.283,-1.221c0.621,0.442 0.966,0.974 0.918,1.28" fill="#c92f36"/><path d="M266.856,236.058c0.014,0.094 -0.3,0.2 -0.695,0.24c-0.39,0.04 -0.72,-0.006 -0.727,-0.1c-0.008,-0.094 0.299,-0.203 0.694,-0.242c0.395,-0.038 0.72,0.006 0.728,0.102" fill="#ec6f78"/><path d="M239.201,230.618c0.064,0.266 -0.022,0.594 -0.196,0.866c-0.577,0.882 -1.575,1.587 -2.422,2.18c-1.317,0.895 -2.978,1.357 -4.435,2.047c-1.312,0.547 -3.046,1.544 -4.222,0.237c-1.558,-1.854 -0.238,-4.213 1.582,-5.33zM240.523,230.618c-0.062,0.266 0.022,0.594 0.202,0.866c0.57,0.882 1.569,1.587 2.42,2.18c1.317,0.895 2.978,1.357 4.433,2.047c1.314,0.547 3.044,1.544 4.222,0.237c1.556,-1.854 0.235,-4.213 -1.584,-5.33z" fill="#563723"/><path d="M250.69585,164.535c0.099,0.334 0.253,0.561 0.463,0.679c-0.417,0.715 -0.783,2.629 -0.463,3.715c0.106,0.352 0.27,0.583 0.494,0.69c0.018,0.009 0.035,0.013 0.052,0.022c-0.05,0.082 -0.091,0.157 -0.12,0.222c-0.309,0.749 -0.38,2.739 0.114,3.779c0.159,0.332 0.358,0.537 0.599,0.609c0.03456,0.00947 0.07017,0.01451 0.106,0.015c0.011,0 0.017,0 0.021,-0.002c-0.039,0.914 0.523,2.705 1.256,3.5c0.25,0.27 0.507,0.412 0.752,0.412h0.007c0.114,0 0.235,-0.058 0.349,-0.168c0.393,1.111 1.769,2.976 2.754,2.976c0.06925,0.00104 0.13819,-0.00944 0.204,-0.031c0.128,-0.032 0.23,-0.141 0.318,-0.308c0.007,0.012 0.02,0.027 0.027,0.04c0.511,0.777 2.385,2.068 3.473,2.068c0.20237,0.00827 0.40167,-0.05159 0.566,-0.17c0.07985,-0.07013 0.13346,-0.16535 0.152,-0.27c0.619,0.325 1.777,0.571 2.703,0.571c0.608,0 1.387,-0.098 1.633,-0.582c0.073,-0.144 0.046,-0.349 -0.07,-0.596c-0.264,-0.534 -0.909,-1.134 -1.304,-1.213c-0.12,-0.024 -0.248,-0.035 -0.388,-0.035c-0.211,0 -0.443,0.029 -0.678,0.062c-0.34,-0.435 -0.779,-0.965 -1.062,-1.14c-0.567,-0.355 -1.833,-0.645 -2.827,-0.65c-0.041,-0.098 -0.083,-0.187 -0.127,-0.25c-0.406,-0.614 -1.647,-1.543 -2.697,-1.91c-0.00259,-0.05046 -0.00928,-0.10062 -0.02,-0.15c-0.16,-0.784 -1.097,-2.276 -2.012,-2.939c-0.024,-0.818 -0.426,-2.119 -0.972,-2.937c0.04815,-0.07296 0.08997,-0.14991 0.125,-0.23c0.309,-0.745 0.382,-2.735 -0.115,-3.78c-0.036,-0.079 -0.078,-0.149 -0.12,-0.214c0.077,-0.083 0.143,-0.161 0.183,-0.229c0.42,-0.692 0.807,-2.651 0.48,-3.753c-0.099,-0.334 -0.255,-0.56 -0.463,-0.67c0.415,-0.72 0.783,-2.633 0.463,-3.722c-0.103,-0.349 -0.272,-0.582 -0.496,-0.691c-0.05684,-0.02679 -0.11919,-0.0398 -0.182,-0.038c-0.555,0 -1.519,0.93 -1.613,1.438c-0.059,0.328 -0.022,0.676 0.048,1.056c-0.434,0.345 -0.961,0.792 -1.133,1.076c-0.423,0.689 -0.805,2.646 -0.48,3.748M229.32985,164.535c-0.098,0.334 -0.254,0.561 -0.458,0.679c0.412,0.715 0.778,2.629 0.458,3.715c-0.105,0.352 -0.27,0.583 -0.496,0.69c-0.015,0.009 -0.035,0.013 -0.052,0.022c0.04568,0.07131 0.08677,0.14546 0.123,0.222c0.307,0.749 0.379,2.739 -0.115,3.779c-0.158,0.332 -0.359,0.537 -0.598,0.609c-0.0437,0.01141 -0.08893,0.0158 -0.134,0.013c0.046,0.914 -0.516,2.705 -1.249,3.5c-0.252,0.27 -0.505,0.412 -0.752,0.412h-0.01c-0.114,0 -0.23,-0.058 -0.344,-0.168c-0.396,1.111 -1.771,2.976 -2.756,2.976c-0.07088,0.00096 -0.14145,-0.00951 -0.209,-0.031c-0.121,-0.032 -0.226,-0.141 -0.314,-0.308c-0.0093,0.01251 -0.01734,0.02591 -0.024,0.04c-0.513,0.777 -2.388,2.068 -3.478,2.068c-0.233,0 -0.426,-0.06 -0.566,-0.17c-0.07,-0.059 -0.121,-0.15 -0.149,-0.27c-0.619,0.325 -1.78,0.571 -2.704,0.571c-0.608,0 -1.389,-0.098 -1.632,-0.582c-0.075,-0.144 -0.049,-0.349 0.07,-0.596c0.263,-0.534 0.908,-1.134 1.303,-1.213c0.121,-0.024 0.246,-0.035 0.386,-0.035c0.22879,0.00544 0.45697,0.02616 0.683,0.062c0.338,-0.435 0.777,-0.965 1.06,-1.14c0.568,-0.355 1.834,-0.645 2.826,-0.65c0.04,-0.098 0.085,-0.187 0.125,-0.25c0.404,-0.614 1.655,-1.543 2.699,-1.91c0.00367,-0.05035 0.01035,-0.10044 0.02,-0.15c0.16,-0.784 1.095,-2.276 2.013,-2.939c0.024,-0.818 0.423,-2.119 0.972,-2.937c-0.055,-0.085 -0.097,-0.161 -0.125,-0.23c-0.308,-0.745 -0.382,-2.735 0.111,-3.78c0.03563,-0.07429 0.07674,-0.14582 0.123,-0.214c-0.076,-0.083 -0.138,-0.161 -0.182,-0.229c-0.423,-0.692 -0.805,-2.651 -0.483,-3.753c0.101,-0.334 0.257,-0.56 0.463,-0.67c-0.414,-0.72 -0.783,-2.633 -0.463,-3.722c0.108,-0.349 0.273,-0.582 0.499,-0.691c0.05611,-0.02684 0.11783,-0.03987 0.18,-0.038c0.557,0 1.52,0.93 1.612,1.438c0.064,0.328 0.022,0.676 -0.046,1.056c0.433,0.345 0.957,0.792 1.133,1.076c0.423,0.689 0.805,2.646 0.48,3.748" data-paper-data="{&quot;origPos&quot;:null}" fill="#81561f"/><path d="M273.183,161.075c1.856,0.781 2.446,3.567 1.318,6.219c-0.726,1.701 -1.983,2.93 -3.28,3.39v0.004c0,0 -3.461,9.768 -6.476,10.853c-2.438,0.879 -11.034,-2.595 -11.034,-2.595c0,0 -0.695,-2.657 -1.055,-3.497c-0.496,-1.149 -2.494,-4.309 -2.494,-4.309l11.77,4.193l5.543,-6.48c-0.092,-0.259 -0.16,-0.543 -0.204,-0.831c-0.358,-0.644 -0.648,-1.454 -0.825,-2.354c-0.461,-2.35 0.05,-4.427 1.145,-4.639c0.586,-0.111 1.218,0.332 1.749,1.128c1.176,-1.126 2.631,-1.592 3.843,-1.082M221.246,176.748c1.8,-2.288 8.3,-5.672 8.3,-5.672c0,0 -3.022,5.47 -3.568,7.894c-0.07,0.308 -0.202,0.927 -0.358,1.358c-0.197,0.538 -0.792,1.419 -1.654,2.63c-1.717,2.415 -3.323,12.622 -3.323,12.622c0.038,0.07 0.075,0.137 0.108,0.214c0.48834,0.48573 0.89823,1.04439 1.215,1.656c0.933,1.743 1.032,3.51 0.22,3.933c-0.437,0.229 -1.043,0.031 -1.655,-0.471c-0.658,1.165 -1.691,1.885 -2.771,1.774c-1.657,-0.175 -2.792,-2.232 -2.542,-4.595c0.108,-0.995 0.444,-1.885 0.916,-2.57l-0.005,0.063c0,0 1.416,-14.136 5.118,-18.836" data-paper-data="{&quot;origPos&quot;:null}" fill="#be9269"/><path d="M223.842,200.34c-0.011,-5.558 1.417,-18.747 1.637,-19.65c-0.917,1.121 1.499,-8.267 1.52,-8.28c1.074,-0.964 3.391,-1.842 4.646,-2.106c0,0 19.533,0.845 20.92,1.654v0.005c0,0 1.977,7.398 1.238,7.064c0.774,1.17 2.018,17.86 2.082,21.258c0.645,1.974 3.864,24.412 3.864,31.017c-5.24,4.636 -35.725,4.738 -40.292,-0.007c0,-6.316 3.652,-28.772 4.385,-30.956" fill="#0771b7"/><path d="M223.915,197.616c0.294,-6.281 1.376,-16.147 1.564,-16.926c-0.917,1.121 -3.735,13.224 -3.928,14.893c-1.571,0.822 -4.733,0.776 -6.212,0c0.153,-4.547 3.937,-16.364 5.416,-18.35c1.264,-1.695 4.184,-3.724 6.173,-4.784c0.024,-0.013 0.05,-0.026 0.072,-0.04c1.073,-0.964 3.39,-1.839 4.643,-2.105c2.706,-0.654 6.358,-0.796 6.358,-0.796l1.76,0.026h0.149l1.773,-0.026c0,0 3.373,0.129 6.02,0.711c1.288,0.218 3.475,0.93 4.862,1.739v0.004l9.331,3.227c1.96,-2.1 3.606,-4.671 4.946,-6.704c2.004,0.253 4.661,1.344 5.653,2.952c-1.696,4.245 -5.18,10.226 -7.349,10.79c-2.528,0.658 -10.604,-2.866 -11.343,-3.2c0.645,0.978 1.62,12.733 1.96,18.59c-5.456,1.886 -25.296,2.284 -31.848,0" fill="#eeeeed"/><path d="M255.878,199.121c-10.59519,1.88638 -21.43981,1.89213 -32.037,0.017c0.0109,-0.7967 0.03558,-1.59315 0.074,-2.389c10.52934,1.90574 21.3155,1.90337 31.844,-0.007c0.059,0.984 0.099,1.805 0.119,2.378" fill="#563723"/><path d="M232.937,169.887c-2.026,-0.085 -5.642,1.737 -6.546,2.477c-1.28,2.223 0.237,6.947 -1.28,10.171c-0.469,4.364 -1.183,13.126 -1.834,17.468c4.357,0.495 6.17,2.797 11.837,-0.026c0,0 0.456,-2.365 1.325,-3.607c0.018,-5.286 0.081,-11.358 0.218,-14.271c-6.373,-5.012 -3.72,-12.212 -3.72,-12.212M246.722,169.888c0.858,-0.037 2.001,0.269 3.103,0.69c1.498,0.576 2.94,1.023 3.458,1.451c1.282,2.225 0.026,7.099 1.262,10.507c0.474,4.364 1.183,13.126 1.834,17.468c-3.138,0.652 -5.657,3.583 -11.834,-0.026c0,0 -0.505,-2.267 -1.328,-3.607c-0.015,-5.286 -0.081,-11.358 -0.217,-14.271c5.63,-5.013 3.72,-12.213 3.72,-12.213" fill="#9b1826"/><path d="M225.11,182.535c0.74,-2.293 -0.13,-7.972 0.61,-9.741c0.534,-0.41 0.714,-0.52 1.03,-0.69c-0.819,1.523 -0.073,10.988 -1.64,10.431M236.944,181.741l0.189,0.144l-0.016,0.235c-0.164,3.476 -0.208,11.123 -0.217,14.252l-0.002,0.142l-0.079,0.118c-0.805,1.152 -1.249,3.412 -1.253,3.434l-0.042,0.222l-0.202,0.103c-1.959,0.973 -3.609,1.427 -5.194,1.427c-1.343,0 -2.48,-0.319 -3.685,-0.659c-0.982,-0.279 -2.016,-0.558 -3.24,-0.698l0.144,-0.928c0.367,0.052 0.457,0.072 0.457,0.072c1.082,0.162 1.998,0.419 2.888,0.668c1.143,0.327 2.22,0.624 3.436,0.624c1.385,0 2.844,-0.388 4.578,-1.231c0.138,-0.617 0.56,-2.338 1.27,-3.434c0.011,-3.146 0.055,-10.383 0.209,-13.92c-3.274,-2.666 -4.117,-5.908 -4.238,-8.171c-0.06912,-1.26606 0.05291,-2.53531 0.362,-3.765c0.04196,-0.16921 0.10939,-0.33106 0.2,-0.48c0.342,-0.057 0.915,0.004 0.915,0.004l-0.055,0.146c-0.004,0.015 -0.634,1.768 -0.5,4.078c0.18,3.068 1.552,5.631 4.075,7.616zM252.746,171.707c0.429,0.166 1.03,0.532 1.03,0.532c0.93,2.304 0.125,7.432 0.764,10.233c-1.64,1.239 -0.687,-9.251 -1.793,-10.765M256.473,200.455c-0.713,0.148 -1.402,0.425 -2.137,0.72c-1.207,0.482 -2.575,1.036 -4.266,1.036h-0.004c-1.765,0 -3.65,-0.604 -5.76,-1.833l-0.17,-0.105l-0.044,-0.194c-0.005,-0.024 -0.5,-2.212 -1.269,-3.471l-0.067,-0.109v-0.127c-0.012,-3.126 -0.055,-10.776 -0.22,-14.252l-0.009,-0.22l0.165,-0.141c2.24,-1.999 3.526,-4.587 3.816,-7.689c0.217,-2.317 -0.23,-4.05 -0.237,-4.067l-0.04,-0.153l0.94,0.046c0.05526,0.1534 0.09545,0.31181 0.12,0.473c0.21158,1.25119 0.25797,2.52474 0.138,3.788c-0.21,2.252 -1.07,5.477 -3.96,8.137c0.158,3.538 0.2,10.81 0.21,13.95c0.681,1.169 1.129,2.864 1.269,3.438c1.889,1.08 3.568,1.613 5.122,1.613c1.511,0 2.734,-0.5 3.921,-0.976c0.632,-0.251 1.233,-0.495 1.87,-0.665c0,0 0.243,-0.08 0.452,-0.12z" fill="#cb991e"/><path d="M239.845,188.1l3.063,-1.955l-3.063,-1.955l-3.064,1.955zM242.902,190.205l-3.057,-1.946l-3.057,1.946l3.057,1.689l3.056,-1.689zM239.845,192.046l-3.125,1.726l3.125,1.333l3.125,-1.333zM239.845,195.252l-3.07,1.315h6.14zM239.845,184.03l2.975,-1.898h-5.951zM243.079,186.099l-0.028,0.046l0.028,0.045l-3.114,1.988l3.114,1.988l-0.028,0.046l0.026,0.05l-3.094,1.706l3.094,1.715l-0.05,0.085l0.044,0.102l-3.06,1.31l3.06,1.311l-0.033,0.076h0.007v0.133h-6.4v-0.133h0.003l-0.03,-0.077l3.06,-1.31l-3.059,-1.31l0.042,-0.102l-0.049,-0.085l3.097,-1.715l-3.097,-1.706l0.029,-0.05l-0.033,-0.046l3.114,-1.988l-3.114,-1.988l0.028,-0.045l-0.028,-0.046l3.114,-1.99l-3.114,-1.99l0.037,-0.052v-0.068h6.399v0.068l0.035,0.052l-3.114,1.99z" fill="#cb991e"/><path d="M241.654,198.057c0.194,-0.261 0.299,-0.552 0.255,-0.687c-0.101,-0.31 -1.077,-0.548 -1.793,-0.648c0.02302,0.06181 0.02373,0.12972 0.002,0.192c0.275,0.694 0.714,1.53 1.032,1.538l0.011,0.09v-0.09c0.09,0 0.32,-0.159 0.493,-0.395M238.49,198.668c0.336,-0.004 0.799,-0.818 1.11,-1.546c-0.103,-0.062 -0.175,-0.173 -0.175,-0.3c0,-0.01 0.004,-0.019 0.004,-0.028c-0.755,0.12 -1.654,0.354 -1.757,0.666c-0.053,0.152 0.057,0.48 0.272,0.778c0.188,0.26 0.447,0.43 0.537,0.43v0.09l0.009,-0.09M242.076,197.313c0.077,0.24 -0.103,0.613 -0.285,0.856c-0.082,0.111 -0.363,0.471 -0.643,0.471h-0.007c-0.45,0 -0.904,-0.947 -1.146,-1.542l-0.018,0.01c0.012,0.039 0.027,0.083 0.04,0.129c0.02463,0.08102 0.04236,0.16399 0.053,0.248c0.015,0.088 0.031,0.182 0.057,0.28c0.01224,0.04936 0.02693,0.09809 0.044,0.146c0.015,0.05 0.037,0.099 0.059,0.149l0.029,0.076c0.017,0.027 0.028,0.052 0.044,0.077c0.026,0.052 0.05,0.104 0.083,0.15c0.05783,0.10115 0.12694,0.19542 0.206,0.281c0.077,0.092 0.158,0.186 0.215,0.293c0.03323,0.04865 0.06202,0.10019 0.086,0.154c0.026,0.055 0.054,0.105 0.074,0.16c0.02,0.05 0.045,0.1 0.06,0.153c0.01835,0.05057 0.03436,0.10196 0.048,0.154c0.027,0.099 0.042,0.197 0.057,0.284c0.01032,0.08185 0.02704,0.16276 0.05,0.242c0.025,0.067 0.038,0.127 0.06,0.177c0.039,0.098 0.064,0.151 0.064,0.151c0,0 -0.027,-0.053 -0.068,-0.149c-0.027,-0.048 -0.047,-0.107 -0.073,-0.174c-0.022,-0.072 -0.046,-0.151 -0.064,-0.242c-0.017,-0.088 -0.037,-0.182 -0.065,-0.28c-0.015,-0.046 -0.035,-0.098 -0.055,-0.144c-0.018,-0.048 -0.042,-0.103 -0.066,-0.153c-0.022,-0.052 -0.049,-0.096 -0.079,-0.15c-0.029,-0.046 -0.055,-0.098 -0.09,-0.144c-0.061,-0.098 -0.143,-0.188 -0.224,-0.273c-0.038,-0.047 -0.081,-0.089 -0.118,-0.137l-0.058,-0.072l-0.05,-0.077c-0.042,-0.05 -0.068,-0.102 -0.094,-0.152c-0.016,-0.027 -0.029,-0.053 -0.044,-0.077c-0.015,-0.026 -0.024,-0.052 -0.04,-0.08c-0.024,-0.051 -0.05,-0.099 -0.07,-0.153c-0.017,-0.05 -0.037,-0.103 -0.057,-0.155c-0.028,-0.103 -0.05,-0.201 -0.068,-0.285c-0.017,-0.084 -0.037,-0.154 -0.053,-0.22c0.00243,0.05402 0.01048,0.10764 0.024,0.16c0.025,0.103 0.058,0.231 0.06,0.373c0.008,0.068 0,0.138 -0.002,0.212v0.03l-0.003,0.016v0.013l-0.008,0.056c-0.005,0.038 -0.009,0.07 -0.016,0.11c-0.015,0.08 -0.03,0.162 -0.057,0.242c-0.026,0.078 -0.066,0.153 -0.092,0.231c-0.059,0.148 -0.086,0.314 -0.097,0.48c-0.01571,0.17347 -0.0015,0.34834 0.042,0.517c0.04533,0.17448 0.06155,0.35524 0.048,0.535c0,0.043 -0.011,0.089 -0.013,0.132c-0.008,0.044 -0.008,0.084 -0.022,0.13c-0.01,0.041 -0.017,0.085 -0.03,0.126c-0.014,0.042 -0.025,0.08 -0.042,0.12c-0.029,0.081 -0.062,0.155 -0.085,0.232c-0.027,0.071 -0.045,0.15 -0.06,0.22c-0.02,0.148 -0.033,0.295 -0.024,0.425c0.002,0.133 0.033,0.253 0.057,0.358c0.02206,0.09072 0.0338,0.18364 0.035,0.277c0.007,0.079 0,0.138 0,0.179l-0.002,0.065v-0.065c-0.002,-0.041 0.004,-0.1 -0.004,-0.179c-0.003,-0.078 -0.02,-0.17 -0.049,-0.275c-0.024,-0.102 -0.061,-0.222 -0.066,-0.36c-0.0093,-0.14345 -0.00461,-0.28746 0.014,-0.43c0.015,-0.076 0.026,-0.157 0.051,-0.234c0.023,-0.075 0.054,-0.154 0.08,-0.23c0.016,-0.038 0.024,-0.078 0.04,-0.118c0.009,-0.039 0.012,-0.083 0.022,-0.122c0.011,-0.04 0.011,-0.083 0.015,-0.127c0.002,-0.041 0.009,-0.085 0.009,-0.126c0.008,-0.173 -0.012,-0.348 -0.062,-0.518c-0.022,-0.082 -0.042,-0.172 -0.052,-0.264c-0.002,-0.045 -0.007,-0.093 -0.009,-0.14l0.002,-0.13c0.007,-0.179 0.028,-0.356 0.088,-0.519c0.026,-0.083 0.059,-0.155 0.081,-0.229c0.024,-0.075 0.035,-0.146 0.048,-0.216c0.00172,-0.03743 0.00472,-0.07478 0.009,-0.112l0.007,-0.056v-0.051c0,-0.067 0.006,-0.133 -0.005,-0.2c-0.006,-0.123 -0.037,-0.233 -0.063,-0.343c-0.018,-0.059 -0.028,-0.113 -0.038,-0.172c-0.285,0.639 -0.746,1.496 -1.198,1.496h-0.002c-0.206,0 -0.463,-0.17 -0.693,-0.486c-0.196,-0.273 -0.398,-0.674 -0.308,-0.934c0.156,-0.476 1.376,-0.706 2.013,-0.796c0.06592,-0.07989 0.16344,-0.12701 0.267,-0.129c0.06349,0.00147 0.12551,0.01939 0.18,0.052c0.334,0.04 1.945,0.26 2.116,0.792" fill="#cb991e"/><path d="M241.753,173.105c-0.485,-0.773 1.172,-2.36 2.324,-3.38c0.255,0.026 0.707,0.068 1.227,0.068c1.163,-0.284 4.382,0.257 5.964,1.29v0.07c0.02,2.604 -5.12,6.036 -9.515,1.952M228.494,171.153c1.675,-1.305 4.347,-1.645 6.31,-1.36c0.342,0.036 0.688,-0.012 1.009,-0.047c1.154,1.021 2.782,2.594 2.306,3.36c-4.273,3.966 -9.357,0.613 -9.625,-1.953" fill="#eeeeed"/><path d="M232.937,174.865c0,0 0.09,0.013 0.243,0.026c0.077,0.013 0.171,0.018 0.277,0.02c0.055,0.004 0.112,0.004 0.173,0.004c0.062,0 0.125,0.007 0.191,0.004c0.066,-0.004 0.136,-0.006 0.204,-0.008c0.23322,-0.00714 0.4654,-0.03424 0.694,-0.081c0.164,-0.028 0.33,-0.063 0.5,-0.107c0.081,-0.024 0.167,-0.05 0.248,-0.076c0.083,-0.029 0.167,-0.055 0.252,-0.088c0.081,-0.028 0.163,-0.056 0.248,-0.096l0.12,-0.045l0.117,-0.055c0.29935,-0.13618 0.58962,-0.29151 0.869,-0.465c0.30099,-0.19111 0.58926,-0.40155 0.863,-0.63c0.116,-0.098 0.182,-0.164 0.182,-0.164c0,0 -0.062,0.068 -0.176,0.175c-0.15615,0.14502 -0.31971,0.28187 -0.49,0.41c-0.214,0.16 -0.473,0.336 -0.76,0.497c-0.18702,0.10763 -0.38075,0.20316 -0.58,0.286l-0.123,0.057c-0.083,0.03 -0.167,0.063 -0.25,0.094c-0.081,0.028 -0.167,0.054 -0.25,0.085c-0.086,0.024 -0.171,0.05 -0.257,0.072c-0.169,0.046 -0.336,0.08 -0.505,0.111c-0.15732,0.02308 -0.31542,0.04042 -0.474,0.052c-0.079,0.005 -0.153,0.007 -0.226,0.014h-0.206c-0.06343,-0.00108 -0.12681,-0.00441 -0.19,-0.01c-0.062,-0.001 -0.122,-0.001 -0.176,-0.01c-0.09147,-0.01113 -0.18316,-0.02047 -0.275,-0.028c-0.156,-0.031 -0.243,-0.044 -0.243,-0.044M241.753,173.105c0,0 0.055,0.057 0.16,0.148c0.24513,0.21277 0.50475,0.40825 0.777,0.585c0.114,0.076 0.237,0.148 0.364,0.227c0.13,0.078 0.266,0.153 0.408,0.22c0.14,0.072 0.286,0.14 0.435,0.2c0.072,0.031 0.145,0.062 0.222,0.09c0.074,0.029 0.149,0.055 0.223,0.083c0.28151,0.09739 0.57001,0.17327 0.863,0.227l0.2,0.035l0.186,0.026c0.057,0.011 0.116,0.013 0.171,0.018c0.055,0.004 0.108,0.01 0.156,0.015c0.099,0.002 0.182,0.009 0.252,0.009c0.14,0.004 0.224,0.004 0.224,0.004l-0.224,0.009c-0.07,0.004 -0.153,0 -0.254,0c-0.11013,-0.00329 -0.22016,-0.0093 -0.33,-0.018c-0.06,-0.008 -0.122,-0.013 -0.186,-0.02l-0.202,-0.03c-0.14391,-0.02376 -0.28671,-0.05379 -0.428,-0.09c-0.15076,-0.0355 -0.2999,-0.07754 -0.447,-0.126c-0.077,-0.026 -0.15,-0.052 -0.23,-0.078c-0.075,-0.035 -0.148,-0.06 -0.222,-0.092c-0.29079,-0.1254 -0.57306,-0.26971 -0.845,-0.432c-0.23729,-0.14108 -0.4645,-0.29846 -0.68,-0.471c-0.2131,-0.16228 -0.41153,-0.34298 -0.593,-0.54" fill="#a5a4a3"/><path d="M239.953,173.28c-4.077,0 -5.59,-2.322 -5.15,-3.487c1.12975,-0.13728 2.26419,-0.23268 3.401,-0.286l1.762,0.026h0.147l1.773,-0.026c0,0 1.578,0.061 3.417,0.286c0.303,1.13 -1.27,3.487 -5.35,3.487" data-paper-data="{&quot;origPos&quot;:null}" fill="#be9269"/><path d="M238.056,171.07c-1.075,0 -1.946,-2.295 -1.946,-3.347h7.658c0,1.052 -0.875,3.347 -1.95,3.347h-3.762" data-paper-data="{&quot;origPos&quot;:null}" fill="#be9269"/><path d="M236.931,170.201c-0.432,-0.655 -0.733,-1.562 -0.801,-2.219c2.52406,0.40805 5.09801,0.39859 7.619,-0.028l-0.008,0.015l-6.81,2.231" fill="#eeac6c"/><path d="M217.006,148.836c-0.17608,-1.13885 -0.26368,-2.28962 -0.262,-3.442c0,-12.644 10.308,-22.892 23.022,-22.892c12.715,0 23.022,10.248 23.022,22.892c0,1.112 -0.079,2.208 -0.232,3.281c1.327,0.722 2.225,2.088 2.225,3.657c0,2.319 -1.966,4.202 -4.396,4.202c-0.166,0 -0.329,-0.011 -0.489,-0.026c-4.08179,7.28123 -11.78271,11.7851 -20.13,11.773c-8.33878,0.01076 -16.03275,-4.48447 -20.118,-11.754c-0.06724,0.00459 -0.13461,0.00692 -0.202,0.007c-2.43,0 -4.396,-1.883 -4.396,-4.202c0,-1.458 0.777,-2.743 1.956,-3.496" data-paper-data="{&quot;origPos&quot;:null}" fill="#be9269"/><path d="M235.311,144.65c0,0 -0.503,1.803 -2.082,1.446c-0.772,-0.174 -0.908,-1.201 -3.386,-0.74c-0.779,0.18 -2.417,1.156 -2.732,1.808c-0.316,0.652 -0.088,-2.392 2.457,-3.522c1.835,-0.675 2.457,-0.642 3.977,-0.642c1.52,0 1.987,0.907 1.766,1.65M245.052,144.65c0,0 0.503,1.803 2.082,1.446c0.772,-0.174 0.908,-1.201 3.386,-0.74c0.779,0.18 2.417,1.156 2.732,1.808c0.316,0.652 0.087,-2.392 -2.457,-3.522c-1.835,-0.675 -2.457,-0.642 -3.977,-0.642c-1.52,0 -1.987,0.907 -1.766,1.65" data-paper-data="{&quot;origPos&quot;:null}" fill="#81561f"/><path d="M233,152c0,1.657 -0.895,3 -2,3c-1.105,0 -2,-1.343 -2,-3c0,-1.657 0.895,-3 2,-3c1.105,0 2,1.343 2,3M251,152c0,1.657 -0.895,3 -2,3c-1.105,0 -2,-1.343 -2,-3c0,-1.657 0.895,-3 2,-3c1.105,0 2,1.343 2,3" data-paper-data="{&quot;origPos&quot;:null}" fill="#81561f"/><path d="M240.02,155.069c-1.125,0.153 -3.02,1.834 -3.02,1.834c0,0 0.207,-1.009 0.503,-1.299c0.8,-1.156 2.487,-1.604 2.487,-1.604c0,0 2.173,0.703 2.65,1.588c0.443,0.824 0.34,1.238 0.34,1.238c0,0 -2.121,-1.871 -2.96,-1.756z" fill="#eeac6c"/><path d="M233.2,158.696c0,0 6.897,3.208 13.172,-0.397c0,0 -1.39,5.47 -5.95,5.561c-4.115,0.122 -4.984,-1.492 -5.477,-1.956c-0.492,-0.463 -1.42,-1.772 -1.745,-3.208" fill="#eeac6c"/><path d="M263.787,142.406c0.04,2.692 -1.167,6.43 -1.167,6.43c0,0 -6.112,-7.198 -9.844,-9.214c-4.556,-2.465 -6.829,1.165 -10.902,-2.031c-0.678,-0.533 -1.935,-1.936 -1.935,-1.936c0,0 -1.533,1.539 -1.94,1.935c-4.578,4.458 -8.013,-0.745 -11.87,1.95c-4.907,3.425 -9.059,9.13 -9.059,9.13c0,0 -1.424,-1.619 -1.229,-6.515c0.064,-1.407 0.746,-4.536 1.868,-7.713c4.05,-8.083 12.446,-13.638 22.146,-13.638c11.145,0 20.568,7.326 23.658,17.4c0.1586,1.39547 0.25004,2.79775 0.274,4.202" data-paper-data="{&quot;origPos&quot;:null}" fill="#81561f"/><path d="M225.158,211.594c0,0 -6.18,-12.72 -8.783,-16.606c-0.73,-1.095 -2.027,-2.293 -4.007,-1.261c-1.365,0.715 -2.05,2.083 -1.128,3.824c-0.265,0.306 -1.167,0.932 -1.476,0.67c-1.354,-2.566 -0.255,-5.123 1.729,-6.157c2.98,-1.56 5.179,0.716 6.078,2.077c2.594,3.912 8.875,16.776 8.875,16.776c-0.114,0.345 -0.942,0.788 -1.288,0.677" fill="#eeeeed"/><path d="M225.367,208.734c0.277,0.554 0.51,1.028 0.69,1.389l-1.91,-0.59c-0.206,-0.419 -0.438,-0.884 -0.691,-1.392l1.912,0.593M223.885,205.777c0.248,0.484 0.482,0.951 0.704,1.394l-1.918,-0.593c-0.226,-0.452 -0.461,-0.917 -0.706,-1.392l1.92,0.591M224.915,211.091l1.016,0.316c-0.274,0.148 -0.59,0.244 -0.774,0.186c0,0 -0.086,-0.182 -0.242,-0.503zM222.374,202.811c0.241,0.469 0.482,0.938 0.716,1.398l-1.93,-0.597c-0.236,-0.462 -0.478,-0.934 -0.726,-1.402l1.94,0.6M219.607,200.634c-0.257,-0.483 -0.509,-0.954 -0.761,-1.41l1.966,0.606c0.248,0.463 0.496,0.932 0.744,1.403l-1.949,-0.6M219.179,196.824c0.25,0.449 0.513,0.925 0.781,1.42l-1.993,-0.615c-0.292,-0.52 -0.573,-1.002 -0.836,-1.436l2.048,0.631M216.041,194.535c-0.309,-0.377 -0.689,-0.724 -1.145,-0.951l2.504,0.308c0.05917,0.08115 0.11619,0.16384 0.171,0.248c0.204,0.306 0.434,0.67 0.676,1.076l-2.206,-0.681M213.322,191.544c0.95,-0.046 1.781,0.285 2.473,0.755l-1.982,1.034c-0.395,0 -0.825,0.098 -1.297,0.321l0.806,-2.11M211.44,194.433c-0.226,0.251 -0.397,0.537 -0.502,0.851l-1.497,-0.897c0.29885,-0.80255 0.8297,-1.49805 1.525,-1.998l0.474,2.044M210.949,196.853c0.07514,0.24134 0.17291,0.47504 0.292,0.698c-0.265,0.306 -1.167,0.932 -1.477,0.67c-0.375,-0.711 -0.564,-1.423 -0.596,-2.103l1.782,0.735" fill="#e42328"/><path d="M218.33,196.185c0,0 1.562,0.038 2.495,-0.312c0.334,0.366 0.735,0.89 1.174,1.632c0.977,1.658 0.974,3.447 0.193,3.874c-0.783,0.425 -2.17,-0.593 -3.096,-2.275c-0.597,-1.078 -0.858,-2.165 -0.766,-2.919" data-paper-data="{&quot;origPos&quot;:null}" fill="#be9269"/><path d="M269.484,171.32c-0.237,0.17 -0.988,0.054 -1.157,-0.18l2.381,-14.99l1.159,0.183l-2.383,14.986z" fill="#e9b18b"/><path d="M278.107,152.81c-0.535,3.362 -3.706,5.658 -7.09,5.13c-3.382,-0.537 -5.693,-3.692 -5.155,-7.054c0.533,-3.362 3.706,-5.655 7.088,-5.123c3.382,0.53 5.693,3.685 5.157,7.047" fill="#f08314"/><path d="M271.982,151.87c5.214,-2.578 0.968,-6.102 0.968,-6.102c0,0 1.843,3.417 -0.968,6.102M271.016,157.939c-4.165,-4.048 0.968,-6.103 0.968,-6.103c0,0 -2.811,2.686 -0.968,6.103" fill="#f6b90c"/><path d="M272,151.853c-2.702,-2.794 -6.138,-0.962 -6.138,-0.962c0,0 3.55,-4.224 6.137,0.962M278.103,152.812c-3.434,1.835 -6.136,-0.962 -6.136,-0.962c0,0 2.065,5.103 6.136,0.962" fill="#f6b90c"/><path d="M271.993,151.864c0.08,-3.875 -3.654,-4.996 -3.654,-4.996c0,0 5.515,-0.491 3.654,4.996M275.628,156.835c-3.733,-1.121 -3.654,-4.996 -3.654,-4.996c0,0 -2.168,5.061 3.654,4.996" fill="#f6b90c"/><path d="M271.997,151.843c-5.519,-1.848 -5.025,3.632 -5.025,3.632c0,0 1.128,-3.711 5.025,-3.632M276.995,148.229c0.066,5.789 -5.023,3.633 -5.023,3.633c0,0 3.895,0.076 5.023,-3.632" fill="#f6b90c"/><path d="M266.344,165.255c-0.336,-2.245 0.235,-4.193 1.277,-4.346c1.047,-0.155 2.164,1.541 2.504,3.784c0.319,2.145 -0.186,4.012 -1.141,4.315c0,0 -0.66,-0.214 -1.128,-0.336c-0.687,-0.604 -1.282,-1.883 -1.512,-3.417" data-paper-data="{&quot;origPos&quot;:null}" fill="#be9269"/></g></g></svg>