<svg version="1.1" xmlns="http://www.w3.org/2000/svg" xmlns:xlink="http://www.w3.org/1999/xlink" width="52.05" height="108" viewBox="0,0,52.05,108"><g transform="translate(-215,-132)"><g data-paper-data="{&quot;isPaintingLayer&quot;:true}" fill-rule="evenodd" stroke-miterlimit="10" stroke-dasharray="" stroke-dashoffset="0" style="mix-blend-mode: normal"><path d="M215,207.733c0,-14.003 11.352,-25.355 25.355,-25.355c14.003,0 25.355,11.352 25.355,25.355v32.267h-50.71z" fill="#3a934d" stroke="none" stroke-width="1" stroke-linecap="butt" stroke-linejoin="miter"/><path d="M240.355,192.256c-4.20123,0 -7.607,-3.40577 -7.607,-7.607c0,-4.20123 3.40577,-7.607 7.607,-7.607c4.20123,0 7.607,3.40577 7.607,7.607c0,4.20123 -3.40577,7.607 -7.607,7.607" fill="#ffffff" stroke="none" stroke-width="1" stroke-linecap="butt" stroke-linejoin="miter"/><path d="M240.366,188.705c-1.3832,0.00099 -2.70677,-0.56307 -3.66404,-1.56151c-0.95727,-0.99843 -1.46515,-2.34456 -1.40596,-3.72649l0.392,-9.129c0.12,-2.798 2.485,-4.978 5.283,-4.848c1.34383,0.05713 2.60987,0.64589 3.51949,1.63672c0.90962,0.99082 1.38823,2.30249 1.33051,3.64629l-0.392,9.128c-0.11618,2.71245 -2.34806,4.85221 -5.063,4.854" data-paper-data="{&quot;origPos&quot;:null}" fill="#bf8546" stroke="none" stroke-width="1" stroke-linecap="butt" stroke-linejoin="miter"/><path d="M262.447,161.222c0,11.202 -9.082,20.284 -20.284,20.284c-11.203,0 -20.284,-9.082 -20.284,-20.284v-7.307c0,-11.203 9.081,-20.285 20.284,-20.285h20.284z" data-paper-data="{&quot;origPos&quot;:null}" fill="#212121" stroke="none" stroke-width="1" stroke-linecap="butt" stroke-linejoin="miter"/><path d="M215.305,162.337c0,-3.08065 2.49735,-5.578 5.578,-5.578h9.128c3.08065,0 5.578,2.49735 5.578,5.578c0,3.08065 -2.49735,5.578 -5.578,5.578h-9.128c-3.08065,0 -5.578,-2.49735 -5.578,-5.578" data-paper-data="{&quot;origPos&quot;:null}" fill="#bf8546" stroke="none" stroke-width="1" stroke-linecap="butt" stroke-linejoin="miter"/><path d="M217.838,162.337c0,-1.63311 1.32389,-2.957 2.957,-2.957h4.838c1.63311,0 2.957,1.32389 2.957,2.957c0,1.63311 -1.32389,2.957 -2.957,2.957h-4.838c-1.63311,0 -2.957,-1.3239 -2.957,-2.957" data-paper-data="{&quot;origPos&quot;:null}" fill="#9e6b5c" stroke="none" stroke-width="1" stroke-linecap="butt" stroke-linejoin="miter"/><path d="M267.05,162.337c0,1.47955 -0.58782,2.89849 -1.63411,3.9446c-1.04629,1.04611 -2.46534,1.63367 -3.94489,1.6334h-9.128c-3.08065,0 -5.578,-2.49735 -5.578,-5.578c0,-3.08065 2.49735,-5.578 5.578,-5.578h9.128c3.08065,0 5.578,2.49735 5.578,5.578" data-paper-data="{&quot;origPos&quot;:null}" fill="#bf8546" stroke="none" stroke-width="1" stroke-linecap="butt" stroke-linejoin="miter"/><path d="M264.515,162.337c0,1.63271 -1.32328,2.95645 -2.956,2.957h-4.839c-1.63311,0 -2.957,-1.3239 -2.957,-2.957c0,-1.63311 1.3239,-2.957 2.957,-2.957h4.838c1.63272,0.00055 2.956,1.32429 2.956,2.957" data-paper-data="{&quot;origPos&quot;:null}" fill="#9e6b5c" stroke="none" stroke-width="1" stroke-linecap="butt" stroke-linejoin="miter"/><path d="M242.163,133.631c11.202,0 20.284,9.081 20.284,20.284v7.307c0,11.202 -9.082,20.284 -20.284,20.284c-11.203,0 -20.284,-9.082 -20.284,-20.284v-7.307c0,-11.203 9.081,-20.285 20.284,-20.285" data-paper-data="{&quot;origPos&quot;:null}" fill="#be9569" stroke="none" stroke-width="1" stroke-linecap="butt" stroke-linejoin="miter"/><path d="M232.496,162.54c0,2.24062 -1.81638,4.057 -4.057,4.057c-2.24062,0 -4.057,-1.81638 -4.057,-4.057c0,-2.24062 1.81638,-4.057 4.057,-4.057c2.24062,0 4.057,1.81638 4.057,4.057M259.943,162.54c0.02299,1.46443 -0.7451,2.82756 -2.00964,3.5665c-1.26454,0.73893 -2.82918,0.73893 -4.09372,0c-1.26454,-0.73893 -2.03263,-2.10207 -2.00964,-3.5665c0.03478,-2.21551 1.84071,-3.9933 4.0565,-3.9933c2.21578,0 4.02171,1.77779 4.0565,3.9933" fill="#feac94" stroke="none" stroke-width="1" stroke-linecap="butt" stroke-linejoin="miter"/><path d="M247.934,166.996c0,1.4 -2.536,2.1 -5.072,2.1c-2.535,0 -5.07,-0.7 -5.07,-2.1" fill="none" stroke="#212121" stroke-width="2.028" stroke-linecap="round" stroke-linejoin="round"/><path d="M242.863,162.111v-6.66" data-paper-data="{&quot;origPos&quot;:null}" fill="#bf8546" stroke="#bf8546" stroke-width="3.043" stroke-linecap="round" stroke-linejoin="round"/><path d="M236.8,155.214c0,2.11 -1.158,3.822 -2.587,3.822c-1.428,0 -2.586,-1.711 -2.586,-3.822c0,-2.111 1.158,-3.823 2.586,-3.823c1.429,0 2.586,1.712 2.586,3.823M254.099,155.214c0,2.11 -1.158,3.822 -2.586,3.822c-1.429,0 -2.587,-1.711 -2.587,-3.822c0,-2.111 1.158,-3.823 2.587,-3.823c1.428,0 2.586,1.712 2.586,3.823" data-paper-data="{&quot;origPos&quot;:null}" fill="#212121" stroke="none" stroke-width="1" stroke-linecap="butt" stroke-linejoin="miter"/><path d="M262.357,132c1.87,0 3.206,1.833 2.61,3.606c-1.505,4.474 -5.734,7.696 -10.715,7.696h-23.764c-1.536,-0.004 -2.796,1.21 -2.796,2.746v3.249c0,4.68172 -3.79528,8.477 -8.477,8.477v-14.472c0,-6.242 5.06,-11.302 11.302,-11.302h3.393z" data-paper-data="{&quot;origPos&quot;:null}" fill="#212121" stroke="none" stroke-width="1" stroke-linecap="butt" stroke-linejoin="miter"/></g></g></svg>