<svg xmlns="http://www.w3.org/2000/svg" width="73.71" height="108"><g fill-rule="evenodd" stroke-miterlimit="10" data-paper-data="{&quot;isPaintingLayer&quot;:true}" style="mix-blend-mode:normal"><path fill="#467854" d="M59.446 108h-42.67V81.63c0-10.227 8.29-18.517 18.516-18.517h5.637c10.227 0 18.517 8.29 18.517 18.517z"/><path fill="#467854" d="M61.932 85.656h-14.22a5.542 5.542 0 0 1-.646-11.046h-.102a5.542 5.542 0 0 1 0-11.083h14.968c6.495 0 11.778 4.964 11.778 11.065 0 6.1-5.283 11.064-11.778 11.064"/><path fill="none" stroke="#736357" stroke-linecap="round" stroke-linejoin="round" stroke-width="1.108" d="m51.769 73.433 9.256-2.204"/><path fill="#467854" d="M11.41 87.765a11.97 11.97 0 0 1-5.776-1.467C2.886 84.788.926 82.22.257 79.255-1.086 73.305 2.974 67.3 9.309 65.87l13.87-3.133a5.541 5.541 0 0 1 3.066 10.632l.098-.022a5.542 5.542 0 1 1 2.44 10.81l-14.6 3.298c-.921.207-1.852.31-2.773.31"/><path fill="#e7a675" d="M46.146 65.053a8.035 8.035 0 1 1-16.07 0 8.035 8.035 0 0 1 16.07 0"/><path fill="#b48552" d="M46.146 65.053a8.035 8.035 0 1 1-16.07 0 8.035 8.035 0 0 1 16.07 0" data-paper-data="{&quot;origPos&quot;:null}"/><path fill="#9c6f3f" d="M37.834 66.992c-15.303 0-27.708-12.405-27.708-27.707v-5.542c0-15.303 12.405-27.708 27.708-27.708 15.302 0 27.708 12.405 27.708 27.708v5.542c0 15.302-12.406 27.707-27.708 27.707" data-paper-data="{&quot;origPos&quot;:null}"/><path fill="#f18445" d="M29.52 53.416a6.373 6.373 0 1 1-12.744.16 6.373 6.373 0 0 1 12.745-.16m29.37 0a6.373 6.373 0 1 1-12.745 0 6.373 6.373 0 0 1 12.746 0"/><path fill="#333" d="M37.834 6.33A11.777 11.777 0 0 1 45.96.049c1.239-.257 2.402.7 2.402 1.965 0 5.816-4.714 10.53-10.53 10.53-5.814 0-10.528-4.714-10.528-10.53 0-1.347 1.082-2.24 2.402-1.964a11.776 11.776 0 0 1 8.127 6.28"/><path fill="#9c6f3f" d="M4.584 43.553v-1.887a5.664 5.664 0 0 1 11.328 0v1.887a5.664 5.664 0 0 1-11.328 0m55.172 0v-1.887a5.664 5.664 0 0 1 11.327 0v1.887a5.664 5.664 0 0 1-11.327 0" data-paper-data="{&quot;origPos&quot;:null}"/><path fill="#666" d="M55.068 11.335C61.447 16.33 65.54 24.03 65.54 32.677v5.453c0 1.07-.07 2.125-.19 3.163-4.49-1.121-8.172-6.183-9.65-12.943a8.497 8.497 0 0 1-4.19 1.102 8.465 8.465 0 0 1-6.694-3.26c-1.543 1.979-3.964-9.074-6.694-9.074-2.731 0-5.151 11.054-6.694 9.074a8.465 8.465 0 0 1-6.694 3.26 8.497 8.497 0 0 1-4.191-1.102c-1.54 7.04-5.47 12.247-10.21 13.07a27.081 27.081 0 0 1-.207-3.29v-5.453c0-6.19 2.099-11.895 5.629-16.472 5.389-6.222 13.407-10.17 22.367-10.17a29.552 29.552 0 0 1 16.948 5.3"/><path fill="none" stroke="#f18445" stroke-linecap="round" stroke-linejoin="round" stroke-width="1.662" d="M66.927 42.333a2.77 2.77 0 0 0-2.771 2.77M8.74 42.333a2.77 2.77 0 0 1 2.77 2.77"/><path fill="#9c6f3f" d="M59.169 79.938a7.893 7.893 0 1 1-15.787 0 7.893 7.893 0 0 1 15.787 0" data-paper-data="{&quot;origPos&quot;:null}"/><path fill="#42210b" d="M47.532 45.519h-1.663c0-4.43-3.605-8.035-8.035-8.035s-8.035 3.604-8.035 8.035h-1.663c0-5.347 4.35-9.698 9.698-9.698 5.347 0 9.698 4.35 9.698 9.698"/><path fill="#5b8ff7" d="M36.31 41.917a8.867 8.867 0 1 1-17.733 0 8.867 8.867 0 0 1 17.733 0"/><path fill="#feffff" d="M27.166 51.059a8.843 8.843 0 0 1-6.77-3.148l12.488-12.487a8.843 8.843 0 0 1 3.149 6.77l-8.867 8.866"/><path fill="#42210b" d="M27.443 33.882c-4.43 0-8.035 3.604-8.035 8.035 0 4.43 3.605 8.035 8.035 8.035s8.036-3.605 8.036-8.035-3.605-8.035-8.036-8.035m0 17.733c-5.347 0-9.697-4.35-9.697-9.698 0-5.347 4.35-9.698 9.697-9.698 5.348 0 9.698 4.35 9.698 9.698 0 5.347-4.35 9.698-9.698 9.698"/><path fill="none" stroke="#42210b" stroke-width="1.662" d="M57.09 42.194a8.867 8.867 0 1 1-17.732 0 8.867 8.867 0 0 1 17.733 0z"/><path fill="#5b8ff7" d="M57.09 42.194a8.867 8.867 0 1 1-17.732 0 8.867 8.867 0 0 1 17.733 0"/><path fill="#feffff" d="M48.224 51.059a8.843 8.843 0 0 1-6.77-3.148l12.488-12.487a8.843 8.843 0 0 1 3.149 6.77l-8.867 8.866"/><path fill="#42210b" d="M48.224 34.159c-4.43 0-8.035 3.604-8.035 8.035 0 4.43 3.605 8.035 8.035 8.035s8.036-3.605 8.036-8.035-3.605-8.035-8.036-8.035m0 17.733c-5.347 0-9.697-4.35-9.697-9.698 0-5.347 4.35-9.698 9.697-9.698 5.348 0 9.698 4.35 9.698 9.698 0 5.347-4.35 9.698-9.698 9.698"/><path fill="#42210b" d="M60.139 43.302h-3.325a1.385 1.385 0 0 1 0-2.77h3.325a1.385 1.385 0 0 1 0 2.77m-41.285.278h-3.325a1.386 1.386 0 0 1 0-2.771h3.325a1.385 1.385 0 0 1 0 2.77"/><path fill="none" stroke="#42210b" stroke-linecap="round" stroke-width="2.771" d="M40.605 53.139a2.771 2.771 0 0 1-5.542 0"/><path fill="#333" d="M67.415 32.08h-5.78c-.415 0-.802-.21-1.028-.557l-.214-.33a1.226 1.226 0 0 0-2.146.165c-.197.44-.635.723-1.117.723H44.396a1.226 1.226 0 0 1-1.204-.995l-.535-2.788c-.25-1.3-2.095-1.337-2.397-.05l-.68 2.888c-.13.553-.624.945-1.193.945H8.253a1.23 1.23 0 0 1-1.23-1.19C6.614 18.214 18.29 6.036 37.834 6.036c19.544 0 31.22 12.177 30.81 24.857a1.23 1.23 0 0 1-1.228 1.188z"/><path fill="#9c6f3f" d="M52.242 78.14h-9.42a2.77 2.77 0 1 1 0-5.54h9.42a2.77 2.77 0 1 1 0 5.54" data-paper-data="{&quot;origPos&quot;:null}"/><path fill="#666" d="m37.727 67.292-.148 7.154a4.458 4.458 0 0 1-4.548 4.365l-16.971-.35a4.458 4.458 0 0 1-4.366-4.548l.148-7.153a4.458 4.458 0 0 1 4.548-4.365l16.97.349a4.458 4.458 0 0 1 4.367 4.548"/><path fill="#ccc" d="m37.52 68.357-.147 7.153a4.458 4.458 0 0 1-4.548 4.365l-16.971-.35a4.458 4.458 0 0 1-4.366-4.547l.148-7.154a4.458 4.458 0 0 1 4.548-4.365l16.97.35a4.458 4.458 0 0 1 4.366 4.548" data-paper-data="{&quot;origPos&quot;:null}"/><path fill="#666" d="M16.032 65.053a1.304 1.304 0 1 1-.004 2.608 1.304 1.304 0 0 1 .004-2.608m2.27.403a.778.778 0 1 1 .014 1.556.778.778 0 0 1-.013-1.556"/><path fill="#9c6f3f" d="M23.149 79.938a7.893 7.893 0 1 1-15.787 0 7.893 7.893 0 0 1 15.787 0" data-paper-data="{&quot;origPos&quot;:null}"/><path fill="#fff" d="M10.298 62.005a1.49 1.49 0 1 1 0-2.981 1.49 1.49 0 0 1 0 2.98"/><path fill="none" stroke="#fff" stroke-linecap="round" stroke-width="1.491" d="M6.572 60.515a3.726 3.726 0 0 1 3.726-3.727m-6.335 3.727a6.335 6.335 0 0 1 6.335-6.335"/></g></svg>