<svg xmlns="http://www.w3.org/2000/svg" width="113.06" height="118.233"><g fill-rule="evenodd" stroke-miterlimit="10" data-paper-data="{&quot;isPaintingLayer&quot;:true}" style="mix-blend-mode:normal"><path fill="#cceff7" d="M36.147 54.933c8.79 8.665.704 17.162.704 17.162-13.47.538-24.085-15.147-24.085-15.147-4.652-6.495-9.282-12.752-9.282-12.752l10.035-5.955s5.12 6.964 10.72 11.51c8.22 6.672 11.907 5.182 11.907 5.182"/><path fill="#add8e3" d="M14.216 58.876c4.42 4.493 11.363 9.984 19.485 10.852a5.258 5.258 0 0 0 5.111-2.572 15.983 15.983 0 0 0 1.422-3.14c-.158 4.686-3.385 8.078-3.385 8.078-10.515.418-19.29-9.048-22.633-13.218"/><path fill="#cceff7" d="M79.5 55.559s2.5-.743 11.561-6.216c5.593-3.38 11.206-11.775 11.206-11.775l8.99 3.333s-4.165 7.975-8.293 14.819c0 0-9.342 16.471-22.81 17.003 0 0-8.735-7.83-.655-17.163"/><path fill="#ffc2a6" d="m103.036 36.976-1.527-.105a1.81 1.81 0 1 1 .254-3.612l1.524.105a1.81 1.81 0 1 1-.252 3.612"/><path fill="#74584c" d="M112.041 39.162a6.207 6.207 0 0 1-8.62 1.675 6.208 6.208 0 0 1-1.678-8.62 6.211 6.211 0 0 1 10.298 6.945" data-paper-data="{&quot;origPos&quot;:null}"/><path fill="#add8e3" d="M84.047 69.617c7.631-1.615 13.783-7.318 17.65-11.898 0 .002-.002.002-.002.002-.033.046-.067.098-.1.143-.088.137-.184.27-.284.415l-.045.063c-3.275 4.67-11.038 13.985-21.113 14.382 0 0-4.387-3.942-4.06-9.56.425 1.492 1.095 2.8 1.782 3.862 1.325 2.05 3.785 3.096 6.171 2.591"/><path fill="#cceff7" d="M85.511 84.629c0 19.693-12.02 19.393-26.85 19.393-14.833 0-26.854.3-26.854-19.393 0-19.692 12.021-51.259 26.853-51.259 14.83 0 26.852 31.567 26.852 51.259"/><path fill="#add8e3" d="M91.061 49.342c2.04-1.23 4.08-3.13 5.852-5.045C93.398 58.525 76.41 68.472 56.81 67.03c-14.21-1.041-26.187-7.808-32.235-17.011 7.98 6.355 11.572 4.913 11.572 4.913.508.5.985 1.03 1.428 1.588C42.493 43.862 50.11 33.37 58.66 33.37c8.355 0 15.821 10.027 20.746 22.3.032-.036.06-.073.094-.111 0 0 2.5-.743 11.561-6.217m-22.509 30.38c0-5.464-4.43-9.894-9.894-9.894-5.465 0-9.89 4.43-9.89 9.893 0 5.464 4.425 9.894 9.89 9.894 5.464 0 9.894-4.43 9.894-9.893"/><path fill="#cceff7" d="M58.66 82.645c10.29 0 19.644-.389 26.627-2.924.147 1.697.224 3.34.224 4.907 0 19.695-12.022 19.395-26.852 19.395s-26.85.3-26.85-19.395c.003-1.638.076-3.275.22-4.907 6.985 2.535 16.34 2.924 26.63 2.924"/><path fill="#add8e3" d="M58.66 99.201c13.942 0 25.402-1.509 26.722-18.059.08 1.16.123 2.324.13 3.487 0 19.693-12.023 19.393-26.853 19.393-14.83 0-26.852.3-26.852-19.393.007-1.163.049-2.326.127-3.487 1.322 16.55 12.78 18.059 26.725 18.059"/><path fill="#add8e3" d="M89.052 87.047c4.178 3.049 6.065 8.342 4.826 13.364-1.55 6.288-7.56 8.453-13.983 7.641-9.392-1.186-15.885-4.141-15.885-4.141 8.763-19.839 21.402-19.282 21.402-19.282a49.8 49.8 0 0 1 3.64 2.418"/><path fill="#add8e3" d="M93.45 92.871s2.976 5.263 1.081 15.282c-.617 3.26-5.007 6.71-8.298 7.101-4.404.525-9.76-1.19-8.93-7.127 0 0 .206-9.348 16.146-15.256"/><path fill="#788d91" d="M80.712 116.779c-3.982-1.364-3.22-7.413.988-7.698.187-.01.382-.018.582-.022 6.431-.08 11.136-4.36 14.551-2.848 3.414 1.508 6.54 11.424-4.506 11.972-5.187.258-9.012-.514-11.615-1.404"/><path fill="#684638" d="M28.145 33.126a7.756 7.756 0 0 1-8.305 7.17 7.757 7.757 0 1 1 8.305-7.17" data-paper-data="{&quot;origPos&quot;:null}"/><path fill="#552510" d="M25.113 32.905a4.72 4.72 0 1 1-9.413-.693 4.72 4.72 0 0 1 9.413.693" data-paper-data="{&quot;origPos&quot;:null}"/><path fill="#684638" d="M105.264 38.793a7.76 7.76 0 0 1-8.307 7.168 7.758 7.758 0 1 1 1.14-15.473c4.272.311 7.48 4.031 7.167 8.305" data-paper-data="{&quot;origPos&quot;:null}"/><path fill="#552510" d="M102.23 38.306a4.718 4.718 0 1 1-9.424-.473 4.718 4.718 0 0 1 9.424.474" data-paper-data="{&quot;origPos&quot;:null}"/><path fill="#87623e" d="M32.82 19.622s-9.529-7.703-16.974-3.89c0 0 7.853-9.175 17.78.678z"/><path fill="#87623e" d="M31.778 15.845C29.803 1.997 41.853 1.182 41.853 1.182c-7.505 3.694-7.015 15.935-7.015 15.935z"/><path fill="#87623e" d="M33.006 18.113S22.863 11.037 27.208 0c0 0 .08 9.518 10.347 13.958l-4.548 4.155z"/><path fill="#61462d" d="M35.974 8.912a24.614 24.614 0 0 0-.847 3.793c.78.472 1.59.89 2.427 1.253l-2.724 2.489c0 .425.007.67.007.67l-.51-.212-1.072.98-.436 1.737s-2.745-2.217-6.439-3.687c2.924-2.998 6.192-5.373 9.594-7.023"/><path fill="#74584c" d="M97.525 38.488C96.335 54.696 78.106 66.57 56.81 65.005 35.515 63.438 19.216 49.032 20.406 32.82 21.6 16.613 39.83 4.74 61.123 6.303 82.418 7.87 98.718 22.276 97.525 38.488" data-paper-data="{&quot;origPos&quot;:null}"/><path fill="#a07d6f" d="M63.826 55.123c-.13 1.747-2.87 2.969-6.124 2.73-3.252-.24-5.785-1.85-5.655-3.594.128-1.745 2.868-2.965 6.12-2.729 3.253.239 5.785 1.849 5.658 3.593m3.713-44.75c.168 2.076-6.08 4.271-13.955 4.906-7.875.635-14.393-.533-14.562-2.61-.166-2.075 6.08-4.275 13.957-4.908 7.873-.634 14.392.535 14.56 2.611" data-paper-data="{&quot;origPos&quot;:null}"/><path fill="none" stroke="#ce9d88" stroke-linecap="round" stroke-linejoin="round" stroke-width="1.341" d="M67.63 24.939c1.84-2.26 4.987-3.632 8.452-3.377 5.258.385 9.252 4.37 8.92 8.895m-33.078-6.673c-1.49-2.503-4.405-4.322-7.868-4.575-5.258-.387-9.792 2.97-10.123 7.496" data-paper-data="{&quot;origPos&quot;:null}"/><path fill="#bf4545" d="M42.85 42.662c-3.206-6.554 2.632-9.657 6.607-7.042 3.975 2.617 7.165 3.872 9.197 4.022 2.035.148 5.373-.63 9.688-2.634 4.315-2.006 9.637 1.917 5.507 7.93-4.129 6.012-15.955 5.052-15.955 5.052s-11.84-.777-15.045-7.328"/><path fill="#fff" d="M69.9 39.73c.03 1.39-3.647 1.73-4.449.565-.298-.431-.323-1.193-.24-1.98a41.685 41.685 0 0 0 3.13-1.306c.21-.097.422-.179.637-.249.443 1.02.908 2.247.922 2.97"/><path fill="#ff5c5c" d="M58.233 45.394s6.182.406 10.82 3.105C64.07 50.49 57.895 49.99 57.895 49.99s-6.182-.406-10.822-3.105c4.983-1.993 11.16-1.491 11.16-1.491"/><path fill="#e3ac94" d="M59.447 28.856c5.29.389 3.743 3.389 3.743 3.389s.3-2.034-3.82-2.339c-4.123-.3-4.123 1.757-4.123 1.757s-1.09-3.195 4.2-2.807"/><path fill="#e3ac94" d="M56.866 30.971c.315-.233.693-.261.845-.06.151.204.02.56-.297.794-.315.236-.695.265-.845.061-.153-.205-.018-.558.297-.795m4.827.356c.277.278.355.648.175.83-.178.177-.55.097-.827-.183-.276-.279-.356-.65-.176-.83.18-.177.55-.097.828.183"/><path fill="#ffa6a6" d="M29.001 28.669c3.08.225 5.43 2.424 5.247 4.907-.182 2.483-2.829 4.313-5.907 4.087-3.082-.229-5.43-2.424-5.248-4.907.181-2.483 2.825-4.313 5.908-4.087m60.593 4.452c3.081.225 5.431 2.423 5.246 4.905-.18 2.483-2.827 4.313-5.907 4.088-3.08-.228-5.429-2.425-5.248-4.908.182-2.482 2.827-4.312 5.91-4.085"/><path fill="#add8e3" d="M28.166 87.047a49.49 49.49 0 0 1 3.642-2.418s12.636-.557 21.4 19.282c0 0-6.494 2.955-15.884 4.141-6.425.812-12.435-1.353-13.985-7.641-1.24-5.022.65-10.315 4.827-13.364"/><path fill="#add8e3" d="M23.768 92.871c15.94 5.908 16.147 15.256 16.147 15.256.832 5.937-4.527 7.652-8.928 7.127-3.295-.391-7.682-3.841-8.299-7.101-1.896-10.019 1.08-15.282 1.08-15.282"/><path fill="#788d91" d="M36.504 116.779c-2.6.89-6.428 1.662-11.613 1.404-11.045-.548-7.92-10.464-4.507-11.972 3.415-1.512 8.122 2.768 14.552 2.848.202.004.395.012.582.022 4.208.285 4.968 6.334.986 7.698"/><path fill="#74584c" d="M14.21 36.775a1.817 1.817 0 0 1-2.53.392 1.817 1.817 0 0 1-.39-2.532l1.848-2.521a1.818 1.818 0 0 1 2.533-.389c.804.593.977 1.723.387 2.529l-1.849 2.521" data-paper-data="{&quot;origPos&quot;:null}"/><path fill="#ffc2a6" d="M4.58 43.008a6.212 6.212 0 1 1 6.753-10.428 6.212 6.212 0 0 1-6.752 10.429"/><path fill="#74584c" d="M10.84 43.122c-3.087 1.575-6.902.34-8.476-2.747l-1.678-3.29c-1.577-3.084-.342-6.9 2.747-8.473 3.085-1.577 6.898-.342 8.475 2.745l1.678 3.291c1.577 3.085.34 6.9-2.746 8.474" data-paper-data="{&quot;origPos&quot;:null}"/></g></svg>