<svg version="1.1" xmlns="http://www.w3.org/2000/svg" xmlns:xlink="http://www.w3.org/1999/xlink" width="59.80226" height="117.89081" viewBox="0,0,59.80226,117.89081"><g transform="translate(-209.326,-120.948)"><g data-paper-data="{&quot;isPaintingLayer&quot;:true}" fill-rule="evenodd" stroke="none" stroke-width="1" stroke-linecap="butt" stroke-linejoin="miter" stroke-miterlimit="10" stroke-dasharray="" stroke-dashoffset="0" style="mix-blend-mode: normal"><path d="M247.208,206.104l-1.282,17.178l-11.043,-0.002l-0.195,-9.753h-0.29l-0.197,9.753l-11.038,0.002l-1.28,-17.178z" fill="#9a7859"/><path d="M234.205,223.281l-0.323,9.56c0.066,0.256 -0.02,0.536 -0.197,0.813c-0.58,0.898 -1.587,1.554 -2.447,2.154c-1.326,0.911 -3.003,1.402 -4.471,2.104c-1.328,0.56 -3.073,1.614 -4.26,0.28c-1.573,-1.891 -0.241,-4.211 1.597,-5.351l-0.924,-9.56h11.024z" fill="#131313"/><path d="M223.185,223.271l11.02,0.01c0,0 0.186,2.765 0.013,3.78c-2.338,1.314 -8.711,1.551 -11.538,0c0.265,-0.955 0.504,-3.791 0.504,-3.791z" fill="#3d3d3d"/><path d="M244.996,232.84c1.836,1.142 3.168,3.46 1.596,5.352c-1.185,1.332 -2.934,0.28 -4.258,-0.278c-1.468,-0.705 -3.144,-1.194 -4.473,-2.107c-0.857,-0.6 -1.867,-1.255 -2.444,-2.151c-0.18,-0.278 -0.264,-0.56 -0.2,-0.816l-0.323,-9.56h11.021l-0.92,9.56" fill="#131313"/><path d="M245.909,223.27c0,0 0.24,2.836 0.505,3.791c-2.828,1.551 -9.2,1.314 -11.539,0c-0.172,-1.015 0.016,-3.78 0.016,-3.78l11.018,-0.01z" fill="#3d3d3d"/><path d="M267.222,161.855c1.873,0.796 2.466,3.631 1.328,6.334c-1.14,2.7 -3.583,4.244 -5.456,3.446c-1.005,-0.429 -1.645,-1.444 -1.84,-2.711c-0.358,-0.655 -0.653,-1.475 -0.828,-2.391c-0.467,-2.395 0.053,-4.509 1.154,-4.725c0.591,-0.115 1.231,0.338 1.764,1.15c1.189,-1.147 2.655,-1.625 3.878,-1.103M210.762,199.63c-0.255,2.409 0.894,4.502 2.562,4.68c1.089,0.118 2.134,-0.614 2.798,-1.805c0.616,0.511 1.232,0.716 1.67,0.483c0.817,-0.439 0.72,-2.232 -0.219,-4.009c-0.3211,-0.62189 -0.73482,-1.19139 -1.227,-1.689c-0.46,-0.954 -1.204,-1.6 -2.104,-1.696c-1.669,-0.178 -3.228,1.631 -3.48,4.036" data-paper-data="{&quot;origPos&quot;:null}" fill="#77584c"/><path d="M219.455,173.906c0.099,-0.12 0.617,0.022 0.617,0.022l0.919,0.767c0,0 -1.058,1.202 -1.481,0.96c-0.115,-0.931 -0.193,-1.349 -0.055,-1.749M247.425,171.819c-0.328,-0.055 -0.846,1.023 -0.846,1.023l1.417,0.533c0,0 -0.292,-1.24 -0.571,-1.555M249.029,181.357c-0.383,0.076 -0.936,-1.282 -0.936,-1.282l0.937,-0.189c0,0 0.263,0.869 0,1.471" fill="#10513d"/><path d="M234.645,168.407c0,0 7.217,-1.265 6.685,2.58c-0.303,1.647 -6.685,0 -6.685,0c0,0 -6.386,1.647 -6.69,0c-0.53,-3.845 6.69,-2.58 6.69,-2.58" fill="#248b74"/><path d="M216.635,196.604l-5.058,0.004c0,0 0.093,-0.838 0.29,-2.176c-3.016,-2.766 2.239,-13.375 5.069,-17.006c1.654,-2.118 6.434,-4.822 7.294,-5.298c2.139,-1.384 8.551,-1.593 8.551,-1.593l1.792,0.053h0.146l1.789,-0.053c0,0 6.306,0.453 8.562,1.617c3.32,0.118 10.76,4.225 10.76,4.225c0,0 2.378,-6.309 4.318,-5.033c0.334,-0.387 1.326,-1.545 1.326,-1.545l4.862,2.402c0,0 -0.336,0.705 -0.883,1.751c2.407,3.212 -4.435,8.005 -6.647,8.81c-2.359,0.857 -9.43,-1.947 -10.027,-2.223l-28.843,3.309l-0.252,0.367c-1.276,1.809 -0.65,9.862 -2.788,10.626c-0.09169,0.58696 -0.17869,1.17465 -0.261,1.763" fill="#eeeeed"/><path d="M227.957,170.988c0.875,-0.922 1.523,-0.91 1.982,-0.253l4.685,11.044l4.858,-11.024c0.534,-0.689 1.506,-0.196 1.847,0.231c1.523,0.238 3.457,0.484 5.392,0.507c0,0 -0.755,6.813 2.31,9.864c2.203,10.298 1.709,24.747 1.709,24.747l-32.384,-0.002c0,0 -0.195,-12.01 1.357,-21.936c3.14,-5.207 0.118,-10.076 0.385,-10.742c1.469,-0.896 6.353,-2.196 7.859,-2.436" fill="#248b74"/><path d="M235.41,186.283c0,0.4236 -0.3434,0.767 -0.767,0.767c-0.4236,0 -0.767,-0.3434 -0.767,-0.767c0.00055,-0.42448 0.34452,-0.76845 0.769,-0.769c0.4237,0.0022 0.76601,0.3463 0.766,0.77M235.41,190.027c0.01447,0.28337 -0.12847,0.55163 -0.37174,0.69766c-0.24327,0.14603 -0.54724,0.14603 -0.79052,0c-0.24327,-0.14603 -0.38622,-0.41429 -0.37174,-0.69766c-0.01014,-0.28081 0.13389,-0.54474 0.37553,-0.68815c0.24164,-0.14341 0.54231,-0.14341 0.78394,0c0.24164,0.14341 0.38567,0.40734 0.37553,0.68815M235.41,193.772c0.00001,0.42331 -0.34169,0.76725 -0.765,0.77c-0.42487,-0.00055 -0.769,-0.34513 -0.769,-0.77c0.02086,-0.40839 0.35807,-0.72882 0.767,-0.72882c0.40893,0 0.74614,0.32043 0.767,0.72882M235.41,197.513c0.01447,0.28337 -0.12847,0.55163 -0.37174,0.69766c-0.24327,0.14603 -0.54724,0.14603 -0.79052,0c-0.24327,-0.14603 -0.38622,-0.41429 -0.37174,-0.69766c0.02086,-0.40839 0.35807,-0.72882 0.767,-0.72882c0.40893,0 0.74614,0.32043 0.767,0.72882" fill="#f6b90c"/><path d="M228.024,170.98c0,0 0.007,0.007 0.009,0.03l0.009,0.086c0.009,0.074 0.017,0.185 0.022,0.322c0.007,0.283 -0.005,0.68 -0.027,1.156c-0.022,0.473 -0.05,1.027 -0.022,1.616c0.016,0.297 0.047,0.6 0.104,0.902c0.062,0.304 0.157,0.606 0.308,0.875c0.075,0.14 0.166,0.267 0.268,0.383c0.05,0.053 0.108,0.108 0.166,0.16c0.013,0.008 0.029,0.022 0.044,0.035c0.018,0.011 0.03,0.022 0.047,0.031c0.03,0.02 0.062,0.038 0.097,0.056c0.133,0.064 0.286,0.098 0.432,0.118c0.153,0.02 0.299,0.026 0.447,0.033c0.297,0.007 0.583,0.007 0.855,0.033c0.27,0.027 0.527,0.08 0.748,0.174c0.222,0.09 0.403,0.22 0.539,0.357c0.139,0.136 0.234,0.274 0.307,0.394c0.071,0.12 0.113,0.22 0.144,0.286l0.042,0.107c0,0 -0.015,-0.038 -0.046,-0.107c-0.04362,-0.09643 -0.09339,-0.18996 -0.149,-0.28c-0.08555,-0.14289 -0.18981,-0.27372 -0.31,-0.389c-0.15538,-0.14888 -0.33899,-0.26516 -0.54,-0.342c-0.2366,-0.09231 -0.4864,-0.14632 -0.74,-0.16c-0.27,-0.02 -0.553,-0.015 -0.85,-0.018c-0.15234,-0.00111 -0.30452,-0.00978 -0.456,-0.026c-0.15661,-0.01512 -0.30985,-0.05494 -0.454,-0.118c-0.05645,-0.0245 -0.11009,-0.05501 -0.16,-0.091c-0.012,-0.013 -0.028,-0.022 -0.046,-0.036c-0.06104,-0.05347 -0.11944,-0.10987 -0.175,-0.169c-0.10699,-0.11891 -0.20087,-0.24899 -0.28,-0.388c-0.16,-0.28 -0.26,-0.592 -0.326,-0.9c-0.06191,-0.30133 -0.10135,-0.60683 -0.118,-0.914c-0.02233,-0.54183 -0.01999,-1.08439 0.007,-1.626c0.015,-0.478 0.024,-0.872 0.013,-1.145c-0.00224,-0.13333 -0.01394,-0.26633 -0.035,-0.398l-0.002,-0.029l0.128,-0.017zM241.41,171c0,0 0,0.006 -0.007,0.028l-0.01,0.08c-0.008,0.073 -0.02,0.18 -0.021,0.316c-0.014,0.275 -0.005,0.668 0.013,1.146c0.015,0.474 0.04,1.031 0.006,1.627c-0.02,0.298 -0.05,0.607 -0.12,0.913c-0.06032,0.31523 -0.17,0.61896 -0.325,0.9c-0.11693,0.21095 -0.27069,0.39926 -0.454,0.556c-0.017,0.013 -0.035,0.024 -0.046,0.038c-0.01793,0.00948 -0.035,0.02053 -0.051,0.033c-0.04,0.02 -0.075,0.042 -0.11,0.058c-0.14566,0.06154 -0.29969,0.10097 -0.457,0.117c-0.15,0.018 -0.303,0.023 -0.454,0.025c-0.294,0.002 -0.58,-0.002 -0.85,0.018c-0.25255,0.01571 -0.50115,0.07036 -0.737,0.162c-0.20088,0.07617 -0.38449,0.19177 -0.54,0.34c-0.142,0.133 -0.24,0.271 -0.313,0.391c-0.05493,0.09026 -0.10436,0.18377 -0.148,0.28c-0.033,0.069 -0.045,0.104 -0.045,0.104c0,0 0.012,-0.035 0.043,-0.104c0.03,-0.069 0.073,-0.167 0.146,-0.287c0.068,-0.12 0.168,-0.26 0.305,-0.395c0.15448,-0.15302 0.33719,-0.27461 0.538,-0.358c0.23951,-0.0948 0.49208,-0.15246 0.749,-0.171c0.27,-0.027 0.558,-0.027 0.852,-0.033c0.15,-0.007 0.3,-0.014 0.448,-0.036c0.15,-0.018 0.298,-0.053 0.434,-0.116c0.033,-0.017 0.064,-0.035 0.095,-0.055c0.02,-0.011 0.03,-0.022 0.048,-0.031c0.014,-0.014 0.031,-0.027 0.043,-0.038c0.05863,-0.0498 0.1147,-0.10253 0.168,-0.158c0.102,-0.118 0.195,-0.244 0.27,-0.382c0.14548,-0.27467 0.24768,-0.57015 0.303,-0.876c0.062,-0.302 0.091,-0.606 0.107,-0.902c0.028,-0.589 0,-1.144 -0.02,-1.618c-0.02249,-0.3839 -0.0315,-0.76847 -0.027,-1.153c0.00203,-0.10829 0.00937,-0.21643 0.022,-0.324c0.002,-0.038 0.007,-0.067 0.007,-0.087l0.002,-0.027l0.135,0.018z" fill="#0b5441"/><path d="M250.74,206.104c0,0 0.297,2.852 0.011,6.185c-1.407,0.475 -6.025,1.769 -11.377,1.875c-1.528,0.032 -4.714,-8.506 -4.714,-8.506c0,0 -3.065,8.54 -4.548,8.513c-5.518,-0.102 -10.327,-1.398 -11.767,-1.882c-0.286,-3.385 0.011,-6.187 0.011,-6.187l15.889,-1.042c-0.004,-0.031 -0.01,-0.047 -0.01,-0.047l0.312,0.025l0.314,-0.025c0,0 -0.006,0.016 -0.011,0.047l15.89,1.044" fill="#248b74"/><path d="M219.684,184.215c2.061,-4.666 1.36,-8.326 -0.23,-10.309c0.119,-0.348 0.597,-0.755 1.47,-0.246c1.136,0.662 2.661,6.37 -1.24,10.555M249.03,181.357c-2.715,-3.935 -2.724,-7.429 -1.606,-9.538c-0.168,-0.3 -0.684,-0.589 -1.395,0.034c-0.932,0.809 -1.322,6.335 3,9.504" fill="#0e7157"/><path d="M250.788,202.062c0.006,2.205 -0.034,3.69 -0.045,4l-32.386,-0.006c-0.004,-0.314 -0.022,-1.789 0.013,-3.994h32.418" fill="#683918"/><path d="M238.702,206.557c-1.366,1.371 -6.231,1.22 -7.732,0c-1.008,-0.82 -0.92,-4.296 0,-5.218c1.368,-1.369 6.514,-1.507 7.732,0c0.813,1.016 0.917,4.296 0,5.218" fill="#f7b90b"/><path d="M237.33,205.622c-0.887,0.888 -4.038,0.79 -5.014,0c-0.658,-0.532 -0.594,-2.785 0,-3.383c0.885,-0.889 4.227,-0.98 5.015,0c0.527,0.656 0.596,2.783 0,3.383" fill="#683918"/><path d="M238.4,203.996c0.00027,0.06135 -0.02398,0.12026 -0.06736,0.16364c-0.04338,0.04338 -0.10229,0.06763 -0.16364,0.06736h-1.53c-0.06065,-0.00053 -0.11858,-0.02519 -0.16099,-0.06854c-0.04241,-0.04335 -0.06581,-0.10181 -0.06501,-0.16246v-0.018c-0.00002,-0.12548 0.10054,-0.22782 0.226,-0.23h1.53c0.126,0 0.23,0.104 0.23,0.23v0.018z" fill="#d69d0b"/><path d="M238.06,170.63c0.20422,0.01006 0.40802,0.02741 0.611,0.052l-4.048,7.89l-3.928,-7.901c0.193,-0.023 0.534,-0.045 0.581,-0.05c-0.295,-0.666 -0.47,-1.416 -0.47,-1.886h7.73c0,0.475 -0.18,1.225 -0.476,1.895" data-paper-data="{&quot;origPos&quot;:null}" fill="#77584c"/><path d="M231.635,171.3c-0.438,-0.667 -0.744,-1.595 -0.817,-2.265c1.24521,0.20479 2.50507,0.30747 3.767,0.307c1.342,0 2.655,-0.116 3.935,-0.331l-0.014,0.013l-6.871,2.276" fill="#eeac6c"/><path d="M257.569,149.518c1.191,0.769 1.975,2.078 1.975,3.565c0,2.364 -1.987,4.286 -4.437,4.286c-0.071,0 -0.142,-0.004 -0.209,-0.006c-3.974,7.147 -11.585,11.977 -20.318,11.977c-8.74,0 -16.355,-4.841 -20.327,-11.996c-0.157,0.016 -0.321,0.026 -0.489,0.026c-2.452,0 -4.438,-1.922 -4.438,-4.286c0,-1.598 0.904,-2.987 2.246,-3.724c-0.156,-1.094 -0.24,-2.212 -0.24,-3.35c0,-12.886 10.41,-23.33 23.248,-23.33c12.84,0 23.25,10.444 23.25,23.33c0,1.194 -0.088,2.365 -0.261,3.51" data-paper-data="{&quot;origPos&quot;:null}" fill="#77584c"/><path d="M230.311,143.65c0,0 -0.503,1.803 -2.082,1.446c-0.772,-0.174 -0.908,-1.201 -3.386,-0.74c-0.779,0.18 -2.417,1.156 -2.732,1.808c-0.316,0.652 -0.088,-2.392 2.457,-3.522c1.835,-0.675 2.457,-0.642 3.977,-0.642c1.52,0 1.987,0.907 1.766,1.65M240.052,143.65c0,0 0.503,1.803 2.082,1.446c0.772,-0.174 0.908,-1.201 3.386,-0.74c0.779,0.18 2.417,1.156 2.732,1.808c0.316,0.652 0.087,-2.392 -2.457,-3.522c-1.835,-0.675 -2.457,-0.642 -3.977,-0.642c-1.52,0 -1.987,0.907 -1.766,1.65" data-paper-data="{&quot;origPos&quot;:null}" fill="#3a280e"/><path d="M228,151c0,1.657 -0.895,3 -2,3c-1.105,0 -2,-1.343 -2,-3c0,-1.657 0.895,-3 2,-3c1.105,0 2,1.343 2,3M246,151c0,1.657 -0.895,3 -2,3c-1.105,0 -2,-1.343 -2,-3c0,-1.657 0.895,-3 2,-3c1.105,0 2,1.343 2,3" data-paper-data="{&quot;origPos&quot;:null}" fill="#3a280e"/><path d="M235.02,154.069c-1.125,0.153 -3.02,1.834 -3.02,1.834c0,0 0.207,-1.009 0.503,-1.299c0.8,-1.156 2.487,-1.604 2.487,-1.604c0,0 2.173,0.703 2.65,1.588c0.443,0.824 0.34,1.238 0.34,1.238c0,0 -2.121,-1.871 -2.96,-1.756z" fill="#eeac6c"/><path d="M228.2,157.696c0,0 6.897,3.208 13.172,-0.397c0,0 -1.39,5.47 -5.95,5.561c-4.115,0.122 -4.984,-1.492 -5.477,-1.956c-0.492,-0.463 -1.42,-1.772 -1.745,-3.208" fill="#eeac6c"/><path d="M258.755,142.971c0.036,2.74 -0.919,8.666 -2.784,12.202c0,0 -4.568,-12.987 -8.334,-15.043c-4.606,-2.513 -16.742,1.112 -20.852,-2.15c-0.687,-0.54 -0.609,-1.767 -0.609,-1.767c0,0 -0.786,1.564 -1.169,2c-1.991,2.275 -7.161,5.573 -9.615,7.342c-1.973,1.422 -2.066,1.407 -1.627,9.618c0,0 -3.625,-7.471 -3.426,-12.46c0.058,-1.438 0.753,-4.625 1.88,-7.865c4.09,-8.24 12.573,-13.9 22.366,-13.9c11.255,0 20.77,7.469 23.889,17.736c0.15898,1.42362 0.25241,2.8538 0.28,4.286" data-paper-data="{&quot;origPos&quot;:null}" fill="#3a280e"/></g></g></svg>