<svg xmlns="http://www.w3.org/2000/svg" width="120" height="120"><g fill="none" fill-rule="evenodd"><path fill="#00BB46" d="M22 6.503s5.896 30.077 36.93 19.425C60.48 4.937 35.965 2.743 22 6.503"/><path stroke="#008E0F" stroke-linecap="round" stroke-linejoin="round" stroke-width="3.934" d="M22 6.503s5.896 30.077 36.93 19.425C60.48 4.937 35.965 2.743 22 6.503z"/><path stroke="#AE8C71" stroke-linecap="round" stroke-linejoin="round" stroke-width="3.934" d="M64.224 34.266S52.068 28.1 69 12.064"/><path fill="#FF7A2B" d="M20 72.202C20 96.324 37.913 115 59.332 115 80.75 115 101 97.101 101 73.757c0-23.345-19.958-39.49-40.5-39.49-20.543 0-40.5 19.258-40.5 37.935"/><path stroke="#EB510D" stroke-width="3.934" d="M20 72.202C20 96.324 37.913 115 59.332 115 80.75 115 101 97.101 101 73.757c0-23.345-19.958-39.49-40.5-39.49-20.543 0-40.5 19.258-40.5 37.935z"/><path fill="#EB510D" d="M82 55.963c0 1.95-1.567 3.532-3.5 3.532S75 57.914 75 55.963c0-1.95 1.567-3.532 3.5-3.532s3.5 1.582 3.5 3.532M91 71.1c0 1.95-1.567 3.533-3.5 3.533S84 73.05 84 71.101c0-1.95 1.567-3.532 3.5-3.532S91 69.15 91 71.1M79 81.697c0 2.23-1.79 4.037-4 4.037-2.208 0-4-1.807-4-4.037s1.792-4.036 4-4.036c2.21 0 4 1.807 4 4.036m-7-14.129a2.01 2.01 0 0 1-2 2.02c-1.105 0-2-.904-2-2.02a2.01 2.01 0 0 1 2-2.018c1.105 0 2 .904 2 2.018"/></g></svg>