<svg version="1.1" xmlns="http://www.w3.org/2000/svg" xmlns:xlink="http://www.w3.org/1999/xlink" width="60.19173" height="118.73208" viewBox="0,0,60.19173,118.73208"><g transform="translate(-209,-119.999)"><g data-paper-data="{&quot;isPaintingLayer&quot;:true}" fill-rule="evenodd" stroke="none" stroke-width="1" stroke-linecap="butt" stroke-linejoin="miter" stroke-miterlimit="10" stroke-dasharray="" stroke-dashoffset="0" style="mix-blend-mode: normal"><path d="M224.029,232.707h-0.005l-4.14,-26.843h29.19l-4.024,26.842h-0.007c1.843,1.14 3.18,3.478 1.604,5.374c-1.193,1.342 -2.95,0.283 -4.285,-0.28c-1.475,-0.703 -3.162,-1.198 -4.496,-2.113c-0.866,-0.605 -1.873,-1.26 -2.458,-2.162c-0.18,-0.279 -0.263,-0.549 -0.2,-0.819h0.003v-11.81h-0.002l-0.022,-3.956l-1.357,-0.026l0.038,3.982h0.005v11.81h-0.005c0.062,0.27 -0.021,0.54 -0.203,0.819c-0.583,0.902 -1.595,1.558 -2.458,2.164c-1.335,0.913 -3.023,1.408 -4.494,2.11c-1.337,0.564 -3.092,1.623 -4.287,0.281c-1.578,-1.896 -0.24,-4.234 1.604,-5.374" fill="#9e561a"/><path d="M267.275,161.362c1.884,0.802 2.48,3.647 1.334,6.362c-0.733,1.736 -2.009,2.997 -3.328,3.467l0.002,0.002c0,0 -3.511,9.988 -6.568,11.102c-2.476,0.898 -11.198,-2.657 -11.198,-2.657c0,0 -0.704,-2.713 -1.067,-3.574c-0.505,-1.176 -2.705,-4.448 -2.705,-4.448l12.11,4.33l5.631,-6.627c-0.445,-1.245 -0.374,-2.897 0.303,-4.498c1.146,-2.71 3.603,-4.26 5.486,-3.46" data-paper-data="{&quot;origPos&quot;:null}" fill="#ffdb80"/><path d="M216.587,177.46c1.828,-2.34 8.464,-5.786 8.464,-5.786c0,0 -3.104,5.577 -3.666,8.057c-0.069,0.317 -0.246,1.159 -0.404,1.599c-0.199,0.551 -0.764,1.245 -1.632,2.481c-1.743,2.469 -3.373,12.909 -3.373,12.909c0.038,0.073 0.077,0.145 0.113,0.218c0.44,0.431 0.87,1.014 1.234,1.695c0.94,1.784 1.041,3.587 0.215,4.024c-0.438,0.236 -1.051,0.03 -1.674,-0.484c-0.669,1.198 -1.716,1.931 -2.813,1.816c-1.678,-0.179 -2.833,-2.283 -2.576,-4.7c0.102,-1.016 0.447,-1.929 0.93,-2.627c-0.007,0.04 -0.008,0.062 -0.008,0.062c0,0 1.438,-14.456 5.19,-19.264" data-paper-data="{&quot;origPos&quot;:null}" fill="#ffdb80"/><path d="M214.197,200.163c-1.012,-1.83 -1.146,-3.695 -0.304,-4.162c0.845,-0.469 2.348,0.634 3.363,2.464c1.007,1.83 1.144,3.694 0.297,4.164c-0.842,0.465 -2.343,-0.636 -3.356,-2.466M260.44,166.061c-0.469,-2.404 0.051,-4.53 1.161,-4.746c1.109,-0.219 2.386,1.56 2.852,3.964c0.467,2.404 -0.052,4.528 -1.163,4.746c-1.11,0.215 -2.384,-1.562 -2.85,-3.964" data-paper-data="{&quot;origPos&quot;:null}" fill="#ffdb80"/><path d="M250.234,195.627c0,0 3.614,9.288 3.607,16.668c0,0.917 -0.28,4.785 -1.144,5.097c-0.677,0.251 -2.18,-0.859 -2.463,-1.527c-1.336,-3.223 0,-13.963 0,-13.963z" fill="#f1c863"/><path d="M218.161,203.045h32.678v29.833h-32.678z" fill="#1e396d"/><path d="M218.161,232.91h32.678v-2.55h-32.678zM218.161,225.528h32.678v-1.88h-32.678zM218.161,222.371h32.678v-1.877h-32.678zM216.374,196.235l-5.154,0.004c0,0 0.878,-7.436 2.755,-13.412c0.747,-2.36 1.642,-4.494 2.703,-5.854c1.66,-2.124 6.467,-4.841 7.333,-5.321c2.148,-1.389 8.596,-1.599 8.596,-1.599l1.8,0.056h0.15l1.798,-0.056c0,0 6.474,0.23 8.608,1.627l10.826,4.105l5.336,-6.685l5.223,2.627c0,0 -4.581,9.63 -7.636,10.74c-2.376,0.866 -9.45,-1.9 -10.02,-2.3c1.543,6.67 1.955,15.303 2.054,20.666c0.006,0.133 0.006,0.367 0.012,0.568c0,0.107 -32.539,0.002 -32.539,0.002l0.026,-0.893c0.109,-4.498 0.45,-11.158 1.45,-17.087l-0.255,0.368c-0.263,0.37 -0.517,0.913 -0.755,1.562c-1.357,3.682 -2.31,10.882 -2.31,10.882" fill="#eeeeed"/><path d="M218.161,196.67h32.678v6.375h-32.678z" fill="#f1c863"/><path d="M246.687,194.925h-1.14l-4.754,-24.63l2.277,0.47zM222.047,203.111h-1.071l2.678,-31.543l2.412,-0.872z" fill="#b5b4b4"/><path d="M258.296,211.136l-36.683,10.509l-6.918,-18.212l35.964,-12.405z" fill="#2c2c2d"/><path d="M220.907,201.289l24.37,-8.406l7.532,19.827l-24.862,7.12z" fill="#bc1718"/><path d="M242.499,193.84l0.235,-0.082l7.479,19.693l-0.24,0.073zM223.392,200.432l0.235,-0.081l7.097,18.683l-0.24,0.069z" fill="#f7b90b"/><path d="M223.628,200.351l18.871,-6.51l7.475,19.683l-19.25,5.51z" fill="#2c2c2d"/><path d="M227.77,198.922l10.588,-3.651l7.39,19.461l-10.798,3.092z" fill="#bc1718"/><path d="M238.357,195.27l0.295,-0.103l7.399,19.479l-0.303,0.086zM227.476,199.025l0.294,-0.103l7.18,18.903l-0.303,0.085z" fill="#f7b90b"/><path d="M219.828,206.535c0,0 -0.724,-3.275 0.18,-3.677c10.185,-4.545 29.422,-8.998 29.422,-8.998c0,0 -22.445,5.893 -28.335,10.176c-0.587,0.424 -1.267,2.499 -1.267,2.499M246.635,213.292c5.595,-1.714 8.541,-3.214 7.087,-8.773c3.006,5.505 0.684,7.736 -7.087,8.773" fill="#d0d0d0"/><path d="M221.163,211.599l7.3,2.13c-0.221,-0.486 -0.447,-0.996 -0.672,-1.524c-0.80205,-1.83031 -1.53721,-3.6892 -2.204,-5.573l-4.423,4.967zM229.071,214.094c0.73634,1.6028 1.51326,3.18664 2.33,4.75c-0.10515,0.09867 -0.25205,0.13941 -0.393,0.109c-0.80715,-1.54283 -1.57341,-3.10671 -2.298,-4.69l-4.608,4.834l4.898,0.431l-1.102,0.317l-4.214,-0.382l-2.877,0.772l-0.108,-0.384l2.87,-0.776l4.735,-4.973l-7.732,-2.256l-2.403,0.76l-0.12,-0.388l2.706,-0.85l0.02,0.066l4.565,-5.134l-7.37,-1.878l-2.765,1.01l-0.141,-0.384l2.782,-1.007l2.941,-2.713l0.909,-0.31l-3.331,3.092l6.966,1.774c-0.65,-1.935 -1.206,-3.928 -1.446,-5.623c0.056,-0.133 0.292,-0.143 0.392,-0.135c0.233,1.747 0.818,3.823 1.5,5.829l27.118,-8.895l0.124,0.384l-27.112,8.89c0.67964,1.9313 1.43015,3.83692 2.25,5.713c0.24347,0.56037 0.49081,1.11905 0.742,1.676l27.205,-8.233l0.111,0.385l-27.145,8.218z" fill="#eeeeed"/><path d="M221.874,222.342c-0.261,0.082 -0.558,-0.077 -0.665,-0.353l-6.966,-18.347c-0.107,-0.277 0.02,-0.57 0.282,-0.652l0.007,-0.002c0.26,-0.081 0.56,0.075 0.667,0.352l6.967,18.347c0.103,0.278 -0.023,0.57 -0.286,0.653zM258.335,211.409c-0.228,0.072 -0.494,-0.065 -0.583,-0.311l-7.547,-19.858c-0.092,-0.244 0.019,-0.501 0.25,-0.574c0.235,-0.073 0.686,-0.05 0.782,0.195l7.54,19.858c0.095,0.242 -0.213,0.617 -0.442,0.69" fill="#b98c6a"/><path d="M237.86,170.029l0.605,0.066l-4.047,5.533l-3.906,-5.544l0.556,-0.055c-0.306,-0.679 -0.492,-1.449 -0.492,-1.929h7.774c0,0.48 -0.186,1.249 -0.49,1.929" data-paper-data="{&quot;origPos&quot;:null}" fill="#ffdb80"/><path d="M231.411,170.674c-0.441,-0.67 -0.749,-1.6 -0.817,-2.27c2.56541,0.41537 5.18167,0.40591 7.744,-0.028l-0.018,0.013l-6.91,2.284" fill="#683918"/><path d="M234.153,175.696h0.406v13.03h-0.406zM233.129,173.871l-3.512,-5.428c0,0 -1.322,1.183 -1.45,1.528c-0.135,0.341 4.259,6.645 4.032,5.728c-0.229,-0.922 0.93,-1.829 0.93,-1.829zM235.735,173.871l3.517,-5.428c0,0 1.319,1.183 1.447,1.528c0.132,0.341 -4.261,6.645 -4.032,5.728c0.224,-0.922 -0.932,-1.829 -0.932,-1.829z" fill="#dcdcdc"/><path d="M257.473,148.85c1.199,0.77 1.988,2.086 1.988,3.58c0,2.372 -1.996,4.298 -4.461,4.298c-0.071,0 -0.144,-0.002 -0.21,-0.004c-3.996,7.17 -11.641,12.019 -20.411,12.019c-8.786,0 -16.436,-4.858 -20.426,-12.043c-0.163,0.018 -0.329,0.028 -0.493,0.028c-2.463,0 -4.46,-1.926 -4.46,-4.298c0,-1.602 0.91,-3 2.258,-3.739c-0.157,-1.098 -0.24,-2.218 -0.24,-3.358c0,-12.93 10.454,-23.415 23.361,-23.415c12.894,0 23.354,10.485 23.354,23.415c0,1.193 -0.087,2.37 -0.26,3.517" data-paper-data="{&quot;origPos&quot;:null}" fill="#ffdb80"/><path d="M258.542,142.098c0.036,2.747 -0.921,8.7 -2.79,12.247c0,0 -4.594,-13.031 -8.381,-15.094c-4.624,-2.525 -16.817,1.11 -20.951,-2.159c-0.687,-0.544 -0.608,-1.77 -0.608,-1.77c0,0 -0.795,1.565 -1.171,2c-2.008,2.289 -7.199,5.593 -9.666,7.371c-1.982,1.428 -2.071,1.41 -1.633,9.652c0,0 -3.644,-7.498 -3.444,-12.506c0.057,-1.44 0.759,-4.639 1.894,-7.892c4.108,-8.265 12.628,-13.947 22.474,-13.948c11.305,0 20.86,7.496 24.002,17.799c0.15772,1.42833 0.24915,2.8632 0.274,4.3" fill="#2c2c2d"/><path d="M229.95,144.552c0,0 -0.48,1.695 -1.992,1.36c-0.738,-0.164 -0.868,-1.13 -3.238,-0.697c-0.745,0.17 -2.312,1.087 -2.614,1.7c-0.302,0.613 -0.084,-2.248 2.35,-3.312c1.756,-0.634 2.351,-0.603 3.805,-0.603c1.453,0 1.901,0.853 1.69,1.552M240.05,144.552c0,0 0.48,1.695 1.992,1.36c0.738,-0.164 0.868,-1.13 3.238,-0.697c0.745,0.17 2.312,1.087 2.614,1.7c0.302,0.613 0.084,-2.248 -2.35,-3.312c-1.756,-0.634 -2.351,-0.603 -3.805,-0.603c-1.453,0 -1.901,0.853 -1.69,1.552M228,152c0,1.657 -0.895,3 -2,3c-1.105,0 -2,-1.343 -2,-3c0,-1.657 0.895,-3 2,-3c1.105,0 2,1.343 2,3M246,152c0,1.657 -0.895,3 -2,3c-1.105,0 -2,-1.343 -2,-3c0,-1.657 0.895,-3 2,-3c1.105,0 2,1.343 2,3" fill="#2c2c2d"/><path d="M232,155c0,0 0.207,-1.042 0.504,-1.342c0.801,-1.195 2.491,-1.658 2.491,-1.658c0,0 2.175,0.727 2.654,1.641c0.443,0.852 0.341,1.28 0.341,1.28c0,0 -2.125,-1.934 -2.965,-1.816c-1.127,0.158 -3.025,1.895 -3.025,1.895z" fill="#683918"/><path d="M228.2,157.696c0,0 6.897,3.208 13.172,-0.397c0,0 -1.39,5.47 -5.95,5.561c-4.115,0.122 -4.984,-1.492 -5.477,-1.956c-0.492,-0.463 -1.42,-1.772 -1.745,-3.208" fill="#683918"/></g></g></svg>