<svg xmlns="http://www.w3.org/2000/svg" width="89.452" height="108"><g fill-rule="evenodd" stroke-miterlimit="10" data-paper-data="{&quot;isPaintingLayer&quot;:true}" style="mix-blend-mode:normal"><path fill="#6f2d1c" d="M15.07 36.895v-5.93c0-16.372 13.273-29.645 29.647-29.645s29.647 13.273 29.647 29.647v5.93"/><path fill="#f98e65" d="M17.86 31.909a6.208 6.208 0 1 1 0 12.417h-1.24a6.209 6.209 0 0 1 0-12.416h1.24m54-.001a6.208 6.208 0 1 1 0 12.417h-1.24a6.209 6.209 0 0 1 0-12.416h1.24" data-paper-data="{&quot;origPos&quot;:null}"/><path fill="none" stroke="#ff5400" stroke-width="13.235" d="M81.912 32.547v7.326c0 10.225-8.29 18.514-18.514 18.514H26.022c-10.224 0-18.513-8.29-18.513-18.514v-7.326"/><path fill="#467854" d="m21.513 108 5.208-23.726h36.52L68.45 108H49.165l-1.998-9.098h-4.37L40.799 108z"/><path fill="#f7c353" d="M64.305 88.412H25.129V64.829l19.588-13.476 19.588 13.476z"/><path fill="#be9968" d="M44.717 61.941c-14.62 0-26.47-11.851-26.47-26.47v-5.295c0-14.619 11.85-26.47 26.47-26.47s26.47 11.851 26.47 26.47v5.295c0 14.619-11.85 26.47-26.47 26.47" data-paper-data="{&quot;origPos&quot;:null}"/><path fill="#42210b" d="M43.063 36.99a3.088 3.088 0 1 1-6.176 0 3.088 3.088 0 0 1 6.176 0m9.883 6.314a8.03 8.03 0 0 1-16.06 0"/><path fill="#ff5400" d="M44.916 45.422a8.011 8.011 0 0 1 6.222 2.955 8.012 8.012 0 0 1-6.222 2.956 8.012 8.012 0 0 1-6.221-2.956 8.011 8.011 0 0 1 6.222-2.955"/><path fill="#42210b" d="M52.946 36.99a3.089 3.089 0 1 1-6.177 0 3.089 3.089 0 0 1 6.177 0"/><path fill="#f98e65" d="M34.776 42.023a5.65 5.65 0 1 1-11.3 0 5.65 5.65 0 0 1 11.3 0m31.58 0a5.65 5.65 0 1 1-11.3 0 5.65 5.65 0 0 1 11.3 0"/><path fill="#4b1e13" d="m71.716 30.389-.402-.301c.09.888.137 1.788.137 2.699v3.743c-4.888 0-9.044-5.14-10.585-12.313a7.732 7.732 0 0 1-10-2.014 7.733 7.733 0 0 1-12.297 0 7.732 7.732 0 0 1-10 2.014c-1.543 7.172-5.7 12.312-10.587 12.312v-3.743c0-.893.045-1.786.135-2.675l-.4.277c0-14.912 12.088-27 27-27s27 12.088 27 27z" data-paper-data="{&quot;origPos&quot;:null}"/><path fill="#6f2d1c" d="M19.969 15.882h-4.9a2.647 2.647 0 1 1 0-5.294h4.9a3.046 3.046 0 0 0 3.042-3.042V2.647a2.647 2.647 0 1 1 5.294 0v4.9c0 4.596-3.74 8.335-8.336 8.335"/><path fill="#be9968" d="M89.452 36.191a7.54 7.54 0 1 1-15.081 0 7.54 7.54 0 0 1 15.08 0M15.082 29.838a7.541 7.541 0 1 1-15.082 0 7.541 7.541 0 0 1 15.082 0" data-paper-data="{&quot;origPos&quot;:null}"/></g></svg>