<svg xmlns="http://www.w3.org/2000/svg" width="120" height="120"><g fill="none" fill-rule="evenodd"><path d="M0 0h120v120H0z"/><path fill="#EA7A78" fill-rule="nonzero" d="M86 33.33A26.83 26.83 0 0 0 78.14 36a28.65 28.65 0 0 0-.27-7.75C75.56 14.73 64.23 5.44 52.57 7.53S33.34 22.31 35.65 35.86a28.26 28.26 0 0 0 3 8.73 26.22 26.22 0 0 0-12-.61C13.38 46.36 4.3 58 6.34 69.9 8.38 81.8 20.77 89.59 34 87.22a26.5 26.5 0 0 0 11.13-4.77 28.48 28.48 0 0 0 .07 9.26c2.32 13.56 13.65 22.85 25.31 20.76 11.66-2.09 19.23-14.78 16.91-28.33a28.47 28.47 0 0 0-2.32-7.38 26.63 26.63 0 0 0 8.28-.19c13.24-2.37 22.32-14 20.27-25.92C111.6 38.73 99.23 31 86 33.33zM54.47 66.61a19.84 19.84 0 0 0-1.77-10.37 18.61 18.61 0 0 0 12.75-1 19.66 19.66 0 0 0 1.36 7.93 18.6 18.6 0 0 0-4.69.23 18.92 18.92 0 0 0-7.65 3.21z"/><path stroke="#E1655C" stroke-width="2.711" d="M86 33.33A26.83 26.83 0 0 0 78.14 36a28.65 28.65 0 0 0-.27-7.75C75.56 14.73 64.23 5.44 52.57 7.53S33.34 22.31 35.65 35.86a28.26 28.26 0 0 0 3 8.73 26.22 26.22 0 0 0-12-.61C13.38 46.36 4.3 58 6.34 69.9 8.38 81.8 20.77 89.59 34 87.22a26.5 26.5 0 0 0 11.13-4.77 28.48 28.48 0 0 0 .07 9.26c2.32 13.56 13.65 22.85 25.31 20.76 11.66-2.09 19.23-14.78 16.91-28.33a28.47 28.47 0 0 0-2.32-7.38 26.63 26.63 0 0 0 8.28-.19c13.24-2.37 22.32-14 20.27-25.92C111.6 38.73 99.23 31 86 33.33zM54.47 66.61a19.84 19.84 0 0 0-1.77-10.37 18.61 18.61 0 0 0 12.75-1 19.66 19.66 0 0 0 1.36 7.93 18.6 18.6 0 0 0-4.69.23 18.92 18.92 0 0 0-7.65 3.21z"/><path stroke="#EFA05A" stroke-linecap="round" stroke-linejoin="round" stroke-width="2.259" d="m56.39 31.22 2.15 20.5m7.6-20.06-4.71 20.05"/><path stroke="#EFA05A" stroke-linecap="round" stroke-linejoin="round" stroke-width="1.781" d="M74.12 42.01 64.06 54.59"/><path stroke="#EFA05A" stroke-linecap="round" stroke-linejoin="round" stroke-width="2.259" d="m85.1 46.22-17.86 9.54m20.2-3.78-19.43 5.45m20.3 7.08-19.87-3.38m18.4 9.29L68.09 62.9m12.26 17.97L66.31 66.09m5.53 20.85-7.97-18.93m-9.34 21.02 4.24-20.16"/><path stroke="#EFA05A" stroke-linecap="round" stroke-linejoin="round" stroke-width="1.781" d="m47.9 79.55 8.9-13.47"/><path stroke="#EFA05A" stroke-linecap="round" stroke-linejoin="round" stroke-width="2.259" d="m38.75 79.89 15.22-13.5m-21.65 1.3 19.58-4.82m-20.46-.84 20.12-.83"/><path stroke="#EFA05A" stroke-linecap="round" stroke-linejoin="round" stroke-width="1.781" d="m42.7 45.57 12.1 10.52"/><path stroke="#EFA05A" stroke-linecap="round" stroke-linejoin="round" stroke-width="2.259" d="m33.22 49.98 18.71 7.63m-4.36-23.72 8.39 18.75"/><path fill="#3F1711" fill-rule="nonzero" d="M74.07 57.75c1.42 7.873-3.755 15.424-11.61 16.94A14.32 14.32 0 0 1 45.93 62.8c-1.42-7.873 3.755-15.424 11.61-16.94a14.32 14.32 0 0 1 16.53 11.89z"/></g></svg>