<svg xmlns="http://www.w3.org/2000/svg" width="120" height="120"><g fill="none" fill-rule="evenodd"><path fill="#4F5F6D" d="m64.142 68.051-6.312-4.26 19.237-28.505 6.312 4.26L64.142 68.05"/><path fill="#E87E37" d="m64.816 69.831-8.647-5.835a1.833 1.833 0 0 1 2.05-3.04l8.648 5.837a1.833 1.833 0 0 1-2.05 3.038"/><path fill="#E87E37" d="M32.136 110.15a6.562 6.562 0 0 1-1.592-9.36l27.244-37.956 8.63 5.825-25.007 39.465a6.562 6.562 0 0 1-9.275 2.027"/><path fill="#92A2AD" d="m65.697 7.793-1.55 2.296a4.68 4.68 0 0 0 1.528 6.663l10.376 6.03a4.12 4.12 0 0 1 1.602 5.43l-1.5 2.95a4.763 4.763 0 0 0 1.581 6.108l5.727 3.865a4.763 4.763 0 0 0 6.026-.572l2.83-2.818c1.322-1.315 3.563-.788 4.16.978l6.724 19.885a1.722 1.722 0 0 0 3.355-.612l-.736-20.934a12.141 12.141 0 0 0-3.549-8.158L89.738 16.37a4.368 4.368 0 0 0-2.898-1.275 6.973 6.973 0 0 1-3.565-1.167l-11.1-7.411a4.68 4.68 0 0 0-6.478 1.275"/></g></svg>