<svg xmlns="http://www.w3.org/2000/svg" width="120" height="120"><g fill="none" fill-rule="evenodd"><path fill="#272D2E" d="M88 104.742A7.258 7.258 0 0 1 80.742 112H39.258A7.258 7.258 0 0 1 32 104.742V15.258A7.257 7.257 0 0 1 39.258 8h41.484A7.257 7.257 0 0 1 88 15.258v89.484"/><path fill="#A9D6C4" d="M38 89h44V24H38z"/><path fill="#9BA09E" d="M68 17.178A2.822 2.822 0 0 1 65.179 20H52.821A2.822 2.822 0 0 1 50 17.178v-.356A2.822 2.822 0 0 1 52.821 14h12.358A2.822 2.822 0 0 1 68 16.822v.356m-1.097 84.273a6.452 6.452 0 1 1-12.905 0 6.452 6.452 0 0 1 12.905 0"/></g></svg>