<svg xmlns="http://www.w3.org/2000/svg" width="120" height="120"><g fill="none" fill-rule="evenodd"><path fill="#004E66" d="M107.857 59.929c0 26.47-21.459 47.928-47.928 47.928C33.458 107.857 12 86.4 12 59.93S33.458 12 59.929 12c26.47 0 47.928 21.458 47.928 47.929"/><path fill="#004E66" d="M59.929 12C33.459 12 12 33.458 12 59.929c0 26.47 21.458 47.928 47.929 47.928V12z"/><path fill="#FF5F2E" d="M91.368 60.084c0 17.278-14.006 31.284-31.284 31.284S28.8 77.362 28.8 60.084 42.806 28.8 60.084 28.8s31.284 14.006 31.284 31.284"/><path fill="#E1EEF6" d="M80.78 60.19c0 11.703-9.487 21.19-21.19 21.19-11.703 0-21.19-9.487-21.19-21.19C38.4 48.487 47.887 39 59.59 39c11.703 0 21.19 9.487 21.19 21.19"/><path fill="#004E66" d="M65.453 60.026a5.426 5.426 0 1 1-10.853 0 5.426 5.426 0 0 1 10.853 0"/></g></svg>