<svg version="1.1" xmlns="http://www.w3.org/2000/svg" xmlns:xlink="http://www.w3.org/1999/xlink" width="52.58997" height="117.61852" viewBox="0,0,52.58997,117.61852"><g transform="translate(-214.11155,-121.18603)"><g data-paper-data="{&quot;isPaintingLayer&quot;:true}" fill-rule="evenodd" stroke="none" stroke-width="1" stroke-linecap="butt" stroke-linejoin="miter" stroke-miterlimit="10" stroke-dasharray="" stroke-dashoffset="0" style="mix-blend-mode: normal"><path d="M257.69,126.796c8.236,8.745 4.942,15.726 4.642,21.716c-0.299,5.989 -3.893,12.342 -0.15,16.844c0,0 -4.21,6.372 -23.51,-3.225c-19.3,9.597 -23.51,3.225 -23.51,3.225c3.744,-4.502 0.15,-10.855 -0.15,-16.844c-0.299,-5.99 -3.594,-12.971 4.643,-21.716c9.659,-10.256 19.018,-3.313 19.018,-3.313c0,0 9.357,-6.943 19.017,3.313" data-paper-data="{&quot;origPos&quot;:null}" fill="#35250d"/><path d="M225.741,165.171c0.633,-1.232 1.384,-2.399 2.016,-3.629c-0.192,1.742 -0.541,3.457 -0.968,5.157c-0.738,0.176 -1.432,0.318 -2.085,0.426c0.436,-0.642 0.763,-1.423 1.036,-1.955M240.431,162.981c0.283,-0.466 0.594,-0.9 0.83,-1.264c0.425,-0.652 0.885,-1.295 1.27,-1.977c0.022,1.377 -0.068,2.759 -0.112,4.137c-0.644,-0.28 -1.302,-0.574 -1.987,-0.896M245.232,160.542c0.447,1.599 0.734,3.248 1.084,4.872c-0.412,-0.146 -0.833,-0.301 -1.264,-0.466c-0.089,-1.466 0.006,-2.941 0.18,-4.406M251.163,166.476c0.084,0.138 0.176,0.271 0.262,0.408c-0.61047,-0.13045 -1.21736,-0.27717 -1.82,-0.44c-0.546,-1.523 -0.861,-3.156 -0.939,-4.738c0.935,1.529 1.56,3.237 2.497,4.77M256.222,166.496c0.212,0.311 0.442,0.603 0.672,0.897c-0.772,0.043 -1.644,0.03 -2.633,-0.065c-0.339,-0.773 -0.52,-1.648 -0.729,-2.415c-0.375,-1.383 -0.736,-2.74 -0.857,-4.153c1.134,1.936 2.297,3.891 3.547,5.736M255.355,146.87l0.183,-0.137c0.179,-0.135 0.126,-0.379 -0.008,-0.477c0.392,-1.256 1.212,-2.511 2.288,-3.225c1.604,-1.066 3.184,-0.235 4.174,1.205c0.26446,0.38748 0.48799,0.80137 0.667,1.235c-0.146,1.042 -0.277,2.055 -0.326,3.041c-0.058,1.152 -0.238,2.317 -0.463,3.481c-0.239,0.33 -0.509,0.644 -0.809,0.938c-0.918,0.894 -2.397,2.041 -3.754,1.976c-1.392,-0.067 -1.739,-1.17 -1.962,-2.355c-0.335,-1.795 -0.345,-3.853 0.01,-5.682M259.89,166.091c0.16148,0.18849 0.33271,0.36841 0.513,0.539c-0.54743,0.23848 -1.11863,0.41815 -1.704,0.536c-0.92,-1.854 -1.674,-3.769 -1.999,-5.81c0.955,1.639 1.994,3.332 3.19,4.735M228.794,165.252c1.152,-1.89 1.978,-4.14 3.46,-5.81c-0.108,2.154 -0.73,4.206 -1.672,6.131c-0.82213,0.28418 -1.65249,0.54396 -2.49,0.779c0.24121,-0.3618 0.47493,-0.72855 0.701,-1.1M216.02,166.127c1.093,-1.621 3.57,-5.458 3.89,-7.394c0.301,2.13 -1.149,6.655 -1.833,8.293c-0.931,-0.254 -1.6,-0.592 -2.057,-0.899M226.512,146.197c-0.463,2.677 -2.517,5.28 -5.451,5.11c-3.075,-0.176 -6.076,-3.855 -3.956,-6.703c2.3,-3.088 7.154,-0.277 9.407,1.593M233.877,163.229c0.629,-1.671 0.754,-3.918 2,-5.282c0.85,1.519 0.79,3.326 0.99,5.056c-1.17777,0.55277 -2.37056,1.07297 -3.577,1.56c0.217,-0.43 0.415,-0.873 0.588,-1.333" data-paper-data="{&quot;origPos&quot;:null}" fill="#35250d"/><path d="M216.974,193.267c0,0 4.411,-19.78 8.059,-24.146c3.648,-4.366 8.752,-3.696 8.752,-3.696c0,0 -1.193,7.987 -2.687,9.342c-1.494,1.355 -8.044,22.262 -8.044,22.262c0,0 -0.692,0 -3.255,-1.476c-2.563,-1.476 -2.825,-2.286 -2.825,-2.286" fill="#28355d"/><path d="M228.092,170.673c-1.722,2.048 -3.138,4.408 -3.295,7.055c-0.097,1.634 0.53,3.355 0.251,4.96c-0.115,0.664 -0.43,0.794 -0.882,1.196c-1.309,1.163 -0.07,2.362 0.552,3.51c0.14,0.255 -0.131,0.477 -0.37,0.371c-0.362,-0.16 -1.355,-0.87 -1.73,-0.78c-1.406,0.338 0.096,1.778 0.38,2.165c0.395,0.542 0.685,1.149 0.299,1.766c-0.297,0.475 -0.97,-0.058 -1.008,0.996c-0.014,0.416 0.263,0.897 0.303,1.328c0.107,1.158 -0.233,2.316 -0.63,3.432c0.823,0.357 1.092,0.357 1.092,0.357c0,0 6.55,-20.907 8.044,-22.262c1.493,-1.355 2.686,-9.342 2.686,-9.342c0,0 -3.17,2.249 -5.692,5.248M266.526,175.028c1.231,3.455 -4.386,13.495 -5.265,10.66c-1.397,-4.51 -4.692,-4.71 -4.692,-4.71c0,0 2.884,-3.166 2.78,-3.942c-0.216,-1.63 -3.127,-2.614 -6.316,-2.572c-3.105,0.04 -2.919,0.58 -3.665,-0.003c-0.714,-0.56 -4.444,-1.835 -5.205,-3.749c-0.928,-2.338 1.177,-5.324 1.177,-5.324c0,0 5.013,0.3 10.502,1.995c7.107,2.195 9.452,4.19 10.684,7.645" fill="#28355d"/><path d="M258.167,181.516c-0.893,-0.49 -1.597,-0.538 -1.597,-0.538c0,0 2.883,-3.166 2.78,-3.942c-0.217,-1.629 -3.128,-2.614 -6.317,-2.572c-3.105,0.04 -2.919,0.581 -3.665,-0.003c-0.715,-0.559 -4.445,-1.835 -5.205,-3.749c-0.928,-2.338 1.177,-5.324 1.177,-5.324c0,0 3.139,0.191 7.165,1.108l0.012,0.013c0.484,0.652 0.805,1.51 1.01,2.29c0.239,0.908 -0.03,2.245 0.583,3.03c0.725,0.927 2.25,0.99 3.297,1.157c0.746,0.118 1.475,0.254 2.178,0.541c1.064,0.434 1.067,0.969 0.63,1.994c-0.098,0.23 0.062,0.433 0.306,0.399c0.499,-0.068 0.998,-0.157 1.502,-0.187c0.444,-0.026 1.64,-0.15 0.86,0.597c-0.666,0.636 -1.975,0.562 -2.75,1.087c-0.184,0.124 -0.175,0.439 0.064,0.497c0.671,0.163 1.255,0.384 1.755,0.822c-1.351,0.463 -3.132,0.032 -3.699,1.71c-0.11576,0.34426 -0.14529,0.71167 -0.086,1.07" fill="#28355d"/><path d="M231.794,234.31c0.315,0.798 0.597,2.545 0.228,3.345c-0.62,1.344 -2.808,1.082 -3.984,1.124c-0.933,0.034 -8.858,0.299 -7.003,-2.064c0.356,-0.453 0.969,-0.582 1.506,-0.699c1.109,-0.244 2.245,-0.402 3.34,-0.712l0.317,-0.088c0.132,-0.455 0.51,-0.961 0.8,-1.264c0.424,-0.443 0.802,-0.378 1.38,-0.403c1.113,-0.048 2.876,-0.609 3.416,0.761" fill="#3f2b1c"/><path d="M222.617,236.775c-0.65704,0.1526 -1.26022,0.48098 -1.745,0.95c-0.182,-0.268 -0.16,-0.598 0.163,-1.01c0.356,-0.452 0.969,-0.582 1.506,-0.699c1.11,-0.243 2.245,-0.403 3.34,-0.712l0.316,-0.088c0.132,-0.454 0.511,-0.961 0.802,-1.264c0.423,-0.443 0.801,-0.378 1.378,-0.403c1.114,-0.049 2.877,-0.609 3.417,0.761c0.168,0.424 0.322,1.114 0.378,1.789c-1.323,-0.172 -2.639,-0.421 -3.973,-0.479c-0.949,-0.041 -0.912,-0.033 -1.47,0.532c-1.062,1.081 -2.742,0.293 -4.112,0.623M245.393,237.655c-0.369,-0.801 -0.088,-2.547 0.227,-3.345c0.541,-1.369 2.304,-0.809 3.416,-0.761c0.579,0.025 0.956,-0.041 1.38,0.403c0.291,0.303 0.669,0.809 0.801,1.263l0.316,0.09c1.095,0.308 2.231,0.468 3.341,0.71c0.536,0.118 1.149,0.247 1.505,0.7c1.855,2.363 -6.07,2.098 -7.003,2.064c-1.175,-0.043 -3.364,0.221 -3.983,-1.124" fill="#3f2b1c"/><path d="M256.379,236.715c0.41,0.522 0.341,0.915 -0.023,1.212c-0.149,-0.45 -0.464,-0.825 -0.975,-1.053c-0.497,-0.223 -1.042,-0.196 -1.575,-0.253c-0.467,-0.05 -0.917,-0.134 -1.379,-0.196c-0.724,-0.097 -0.736,-0.152 -1.384,-0.568c-0.711,-0.458 -1.506,-0.186 -2.286,0.031c-1.184,0.331 -2.351,0.288 -3.526,0.385c0.041,-0.727 0.208,-1.503 0.388,-1.963c0.542,-1.369 2.304,-0.809 3.417,-0.761c0.578,0.025 0.956,-0.04 1.38,0.403c0.29,0.303 0.669,0.809 0.8,1.263l0.316,0.09c1.096,0.308 2.232,0.468 3.342,0.71c0.536,0.118 1.15,0.247 1.505,0.7" fill="#3f2b1c"/><path d="M241.672,208.149h-3.198l-4.351,27.636l-9.17,-1.46l6.215,-39.48l19.026,-0.158l2.318,40.097l-9.27,0.542z" fill="#819ea8"/><path d="M241.338,205.442c-2.437,0.029 -7.3,0.245 -11.837,-0.01l1.667,-10.587l19.025,-0.158l2.318,40.097l-0.878,0.052c-0.048,-0.606 -0.115,-1.208 -0.215,-1.81c-0.206,-1.234 -0.618,-2.451 -0.648,-3.704c-0.013,-0.602 0.054,-1.213 -0.267,-1.753c-0.561,-0.944 -1.5,-0.683 -0.893,-2.326c0.175,-0.473 0.647,-0.896 0.655,-1.44c0.009,-0.723 -0.536,-1.251 -0.398,-2.083c0.138,-0.84 0.47,-1.63 0.572,-2.49c0.103,-0.871 0.089,-1.751 0.116,-2.627c0.079,-2.652 0.319,-5.67 -1.016,-8.078c-1.611,-2.907 -5.242,-3.12 -8.201,-3.084" fill="#819ea8"/><path d="M243.877,229.598c0.161,1.892 0.324,3.782 0.613,5.655l-1.248,0.072l-0.975,-16.863c0.046,0.066 0.085,0.135 0.133,0.2c0.501,0.677 0.65,1.114 0.563,1.896c-0.036,0.326 -0.118,0.61 -0.058,0.95c0.129,0.743 0.66,1.191 1.05,1.793c0.721,1.115 -0.295,1.867 -0.407,2.967c-0.11,1.076 0.239,2.262 0.329,3.33M237.015,216.489c0.062,-0.062 0.116,-0.129 0.176,-0.192l-3.068,19.487l-1.273,-0.202c0.38,-2.715 0.977,-5.428 1.409,-8.105c0.199,-1.235 0.387,-2.299 0.013,-3.489c-0.177,-0.563 -0.429,-0.228 0.026,-0.993c0.069,-0.119 0.149,-0.257 0.245,-0.362c0.185,-0.203 0.402,-0.224 0.482,-0.504c0.276,-0.97 -1.148,-0.758 -1.448,-1.244c-0.264,-0.427 -0.258,-0.056 0.134,-0.442c0.25,-0.247 0.699,-0.402 0.994,-0.597c0.324,-0.215 0.629,-0.445 0.831,-0.788c0.313,-0.534 0.019,-0.311 0.124,-0.707c0.26,-0.982 0.669,-1.173 1.355,-1.862" fill="#819ea8"/><path d="M225.816,150.668c0.016,2.378 -1.046,3.614 -3.98,3.235c-2.934,-0.38 -5.698,-3.943 -5.41,-6.31c0.456,-3.763 4.998,-4.497 7.126,-2.192c1.85,2.004 2.247,2.652 2.264,5.267" data-paper-data="{&quot;origPos&quot;:null}" fill="#75564a"/><path d="M219.55,147.292c-0.093,-1.466 0.037,-2.533 1.076,-3.192c1.086,0.044 2.162,0.473 2.926,1.301c1.849,2.004 2.247,2.652 2.264,5.267c0.016,2.378 -1.046,3.614 -3.98,3.235c-0.399,-0.052 -0.794,-0.166 -1.179,-0.325c-0.183,-0.256 -0.353,-0.522 -0.497,-0.805c-0.861,-1.686 -0.494,-3.653 -0.61,-5.481M253.233,150.668c0.018,-2.615 0.415,-3.263 2.265,-5.267c2.127,-2.305 6.67,-1.571 7.125,2.192c0.288,2.367 -2.475,5.93 -5.41,6.31c-2.933,0.379 -3.995,-0.857 -3.98,-3.235" data-paper-data="{&quot;origPos&quot;:null}" fill="#75564a"/><path d="M257.107,153.913c-2.851,0.334 -3.889,-0.898 -3.874,-3.246c0.018,-2.614 0.414,-3.262 2.264,-5.266c0.979,-1.059 2.465,-1.468 3.833,-1.245c0.707,0.827 0.465,2.075 0.135,3.199c-0.136,0.463 -0.316,0.92 -0.406,1.395c-0.167,0.882 -0.015,1.768 -0.285,2.639c-0.311,1.009 -0.912,1.836 -1.667,2.524" data-paper-data="{&quot;origPos&quot;:null}" fill="#75564a"/><path d="M257.395,149.483c0,9.923 -8.001,12.648 -17.87,12.648c-9.87,0 -17.87,-2.725 -17.87,-12.648c0,-9.924 1.634,-21.28 17.87,-21.28c16.236,0 17.87,11.356 17.87,21.28" data-paper-data="{&quot;origPos&quot;:null}" fill="#75564a"/><path d="M225.781,158.781c-2.576,-1.96 -4.126,-4.932 -4.126,-9.299c0,-9.923 1.634,-21.28 17.87,-21.28c16.236,0 17.87,11.357 17.87,21.281c0,2.782 -0.63,4.998 -1.753,6.747c-0.646,-1.259 -1.148,-2.594 -1.568,-3.764c-0.65,-1.816 -0.928,-3.682 -0.704,-5.608c0.123,-1.066 0.377,-2.07 0.79,-3.06c0.2,-0.48 0.466,-0.974 0.494,-1.504c0.043,-0.84 -0.466,-1.205 -1.188,-1.497c-0.549,-0.222 -1.137,-0.314 -1.692,-0.512c-0.946,-0.338 -1.852,-0.852 -2.758,-1.285c-1.717,-0.823 -3.537,-1.637 -5.077,-2.772c-1.495,-1.102 -1.756,-2.597 -1.968,-4.344c-0.03,-0.251 -0.357,-0.392 -0.504,-0.137c-0.881,1.523 -1.727,3.092 -2.824,4.475c-1.175,1.481 -2.647,2.543 -4.194,3.6c-1.69534,1.16316 -3.45406,2.23115 -5.268,3.199c-1.196,0.638 -2.454,1.088 -2.856,2.505c-0.356,1.258 -0.057,2.661 -0.037,3.945c0.019,1.144 0.065,2.289 0.066,3.434c0.003,1.553 0.121,4.061 -0.574,5.875" data-paper-data="{&quot;origPos&quot;:null}" fill="#75564a"/><path d="M232.486,145.066c0,0.942 -0.76,1.707 -1.697,1.707c-0.4514,-0.00132 -0.88378,-0.18191 -1.20203,-0.50204c-0.31825,-0.32013 -0.49629,-0.75356 -0.49497,-1.20496c0,-0.942 0.76,-1.707 1.697,-1.707c0.938,0 1.697,0.765 1.697,1.707M249.957,145.066c0,0.942 -0.76,1.707 -1.697,1.707c-0.4514,-0.00132 -0.88378,-0.18191 -1.20203,-0.50204c-0.31825,-0.32013 -0.49629,-0.75356 -0.49497,-1.20496c0,-0.942 0.76,-1.707 1.697,-1.707c0.938,0 1.697,0.765 1.697,1.707" data-paper-data="{&quot;origPos&quot;:null}" fill="#5f4217"/><path d="M239.456,154.42c-2.695,0 -5.261,-1.782 -6.184,-4.34c-0.05477,-0.14998 -0.04772,-0.31558 0.0196,-0.46036c0.06733,-0.14478 0.18941,-0.25688 0.3394,-0.31164c0.14943,-0.05428 0.31433,-0.04682 0.45826,0.02073c0.14392,0.06755 0.25502,0.18964 0.30874,0.33927c0.772,2.14 3.064,3.67 5.32,3.54c2.26,-0.12 4.374,-1.878 4.915,-4.088c0.07953,-0.32115 0.40435,-0.51703 0.7255,-0.4375c0.32115,0.07953 0.51703,0.40435 0.4375,0.7255c-0.673,2.75 -3.203,4.854 -6.015,5.004c-0.10824,0.00571 -0.21661,0.00871 -0.325,0.009" fill="#ffab66"/><path d="M239.842,143.813c0.296,-0.25 0.793,0.071 0.563,0.436c-0.206,0.323 -0.367,0.836 -0.17,1.213c0.196,0.375 0.526,0.383 0.866,0.49c0.299,0.094 0.551,0.107 0.729,0.409c0.419,0.71 -0.487,1.789 -0.783,2.396c-0.273,0.561 -1.126,0.066 -0.836,-0.491c0.118,-0.227 0.627,-0.928 0.588,-1.174c-0.039,-0.243 0.121,-0.1 -0.272,-0.217c-0.382,-0.113 -0.734,-0.365 -0.97,-0.685c-0.574,-0.778 -0.438,-1.767 0.285,-2.377" fill="#ffab66"/><path d="M224.263,144.323c0,0 1.453,7.511 0.933,13.11c-0.521,5.597 -3.329,9.88 -3.329,9.88c0,0 -4.159,-28.32 3.95,-35.246c5.756,-4.918 18.546,-6.023 26.183,-1.958c7.637,4.066 6.439,14.687 5.939,18.402c-0.5,3.715 1.398,13.62 1.398,13.62c-2.395,-0.803 -3.144,-3.813 -4.342,-10.59c-1.198,-6.777 0.898,-10.892 0.898,-10.892c0,0 -0.149,0.751 -5.936,-2.259c-5.786,-3.012 -8.5,-8.282 -8.5,-8.282c0,0 -1.886,3.915 -6.378,7.529c-4.493,3.613 -10.816,6.685 -10.816,6.685" data-paper-data="{&quot;origPos&quot;:null}" fill="#35250d"/><path d="M241.034,130.377c0.011,0.16 0.011,0.32 0.011,0.48c-0.771,1.306 -2.661,4.121 -5.967,6.78c-0.57529,0.46134 -1.16387,0.90586 -1.765,1.333c0.50824,-0.5952 1.00961,-1.19624 1.504,-1.803c1.824,-2.246 3.473,-5.574 6.217,-6.79M243.603,132.229c0.49938,0.84467 0.98611,1.69677 1.46,2.556c-1.22564,-1.20824 -2.30658,-2.55496 -3.221,-4.013c0.021,-0.386 0.055,-0.767 0.103,-1.14c0.701,0.714 1.162,1.763 1.658,2.597M246.66,131.241c1.351,2.204 2.166,4.677 3.146,7.064c-0.646,-0.344 -1.257,-0.714 -1.826,-1.104c-0.908,-1.852 -1.46,-3.985 -1.32,-5.96M251.371,134.047c1.047,1.914 1.962,3.988 2.377,6.137c-0.362,-0.146 -0.788,-0.33 -1.284,-0.558c-0.233,-0.674 -0.357,-1.449 -0.457,-1.879c-0.293,-1.245 -0.555,-2.448 -0.637,-3.7M224.996,143.952c-0.463,0.238 -0.733,0.37 -0.733,0.37c0,0 1.452,7.511 0.932,13.11c-0.52,5.598 -3.328,9.88 -3.328,9.88c0,0 -0.023,-0.151 -0.06,-0.428c1.71,-4.46 2.24,-9.258 1.91,-14.035c-0.153,-2.224 -0.488,-4.444 -0.501,-6.677c-0.008,-1.33 -0.144,-4.01 1.03,-5.03c0.352,0.93 0.638,1.838 0.75,2.81M258.16,160.015c0.24842,0.67385 0.53078,1.33469 0.846,1.98c-2.134,-0.97 -2.871,-4.003 -4.011,-10.454c-1.052,-5.95 0.429,-9.834 0.808,-10.694c0.26131,-0.25637 0.57237,-0.45648 0.914,-0.588c0.076,1.209 -0.498,2.4 -0.745,3.566c-0.233,1.105 -0.3,2.225 -0.3,3.353c0,2.26 0.254,4.528 0.702,6.743c0.418,2.068 1.04,4.123 1.786,6.095M228.799,138.973c0.568,-1.347 1.125,-2.78 2.115,-3.865c-0.523,2.462 -1.534,4.751 -2.583,7.028c-0.495,0.285 -0.963,0.547 -1.395,0.785c0.643,-1.305 1.296,-2.604 1.863,-3.948" data-paper-data="{&quot;origPos&quot;:null}" fill="#35250d"/><path d="M243.349,165.213c4.562,0 8.371,3.496 8.786,8.063l2.022,27.624c0.13,1.763 -1.259,3.266 -3.017,3.266h-23.266c-1.758,0 -3.147,-1.503 -3.017,-3.266l2.022,-27.623c0.416,-4.567 4.225,-8.063 8.786,-8.063h7.684" fill="#28355d"/><path d="M231.884,150.027c0,0.836 -1.073,1.514 -2.396,1.514c-1.323,0 -2.396,-0.678 -2.396,-1.514c0,-0.837 1.073,-1.515 2.396,-1.515c1.323,0 2.396,0.678 2.396,1.515M252.353,150.027c0,0.836 -1.072,1.514 -2.396,1.514c-1.323,0 -2.396,-0.678 -2.396,-1.514c0,-0.837 1.073,-1.515 2.396,-1.515c1.324,0 2.396,0.678 2.396,1.515" fill="#ffa3be"/><path d="M257.059,181.068c0.882,0.226 2.756,1.02 3.89,3.76c-2.28,2.639 -5.44,5.897 -7.01,7.366c-0.048,0.047 -0.106,0.08 -0.158,0.122l-0.046,0.065c-0.38,0.512 -2.042,1.772 -2.37,1.694c-0.33,-0.077 -0.356,-0.385 0.27,-1.202l-0.04,-0.004c-0.438,0.396 -1.373,1.079 -1.691,0.757c-0.323,-0.326 0.065,-0.891 0.481,-1.346l-0.024,-0.02c-0.92,0.763 -1.408,1.033 -1.767,0.737c-0.477,-0.396 0.125,-0.961 0.903,-2.073c-0.154,0.107 -0.49,0.477 -0.831,0.697c-0.485,0.313 -0.917,-0.155 -0.653,-0.682c0.344,-0.685 0.882,-1.415 1.342,-1.923c0.398,-0.441 0.76,-0.749 1.098,-0.968c1.702,-1.615 4.666,-4.721 6.606,-6.98" data-paper-data="{&quot;origPos&quot;:null}" fill="#75564a"/><path d="M251.084,188.709c-1.071,0.911 -2.233,1.735 -3.051,2.847c-0.111,-0.147 -0.142,-0.374 -0.02,-0.617c0.344,-0.685 0.882,-1.415 1.342,-1.924c0.398,-0.441 0.76,-0.747 1.098,-0.967c1.702,-1.615 4.667,-4.721 6.606,-6.98c0.882,0.226 2.756,1.02 3.89,3.76c-0.249,0.288 -0.51,0.584 -0.777,0.884c-1.143,-1.869 -2.298,-4.206 -4.41,-1.809c-0.607,0.691 -1.091,1.491 -1.723,2.16c-0.901,0.952 -1.958,1.799 -2.955,2.647M222.419,196.856c-0.75263,2.26314 -1.53202,4.5173 -2.338,6.762c-0.02,0.056 -0.049,0.106 -0.072,0.16l-0.04,0.173c-0.153,0.62 -1.202,2.427 -1.534,2.482c-0.322,0.055 -0.467,-0.196 -0.24,-1.112l-0.061,0.016c-0.277,0.548 -0.829,1.412 -1.22,1.25c-0.39,-0.161 -0.298,-0.747 -0.117,-1.294c-0.019,-0.005 -0.036,-0.009 -0.053,-0.015c-0.517,0.971 -0.853,1.366 -1.279,1.237c-0.569,-0.172 -0.281,-0.879 0,-2.108l-0.028,-0.031c-0.103,0.21 -0.246,0.568 -0.435,0.843c-0.326,0.477 -0.906,0.213 -0.864,-0.376c0.054,-0.765 0.27,-1.648 0.498,-2.295c0.128,-0.37435 0.29001,-0.7362 0.484,-1.081c0.87884,-2.45316 1.72458,-4.91805 2.537,-7.394c0.418,0.373 1.08,0.869 2.142,1.48c1.311,0.755 2.13,1.123 2.62,1.303" data-paper-data="{&quot;origPos&quot;:null}" fill="#75564a"/><path d="M219.799,195.553c1.311,0.756 2.13,1.123 2.62,1.303c-0.75263,2.26314 -1.53202,4.5173 -2.338,6.762c-0.021,0.057 -0.049,0.106 -0.073,0.16c-0.013,0.058 -0.026,0.117 -0.04,0.172c-0.152,0.621 -1.201,2.428 -1.532,2.484c-0.167,0.028 -0.284,-0.028 -0.33,-0.209c1.129,-2.14 2.169,-4.358 2.439,-6.752c0.096,-0.844 -0.014,-1.512 -0.664,-2.08c-0.515,-0.449 -1.162,-0.742 -1.695,-1.173c-0.345,-0.28 -0.651,-0.591 -0.935,-0.921c0.137,-0.411 0.276,-0.824 0.406,-1.226c0.418,0.374 1.08,0.869 2.142,1.48M243.349,165.214c0.26207,0.00019 0.52401,0.01221 0.785,0.036c-0.362,0.761 -0.794,1.496 -1.152,2.199c-0.823,1.614 -1.537,3.282 -2.633,4.737c-0.242,0.323 -0.594,0.937 -0.97,1.113c-0.485,0.226 -0.639,-0.108 -1.021,-0.508c-0.73098,-0.77942 -1.38129,-1.63075 -1.941,-2.541c-0.96,-1.536 -1.71,-3.188 -2.298,-4.898c0.503,-0.089 1.019,-0.137 1.547,-0.137h0.06v-3.24c1.225,0.106 2.494,0.156 3.798,0.156c0.736,0 1.46,-0.018 2.172,-0.05v3.133z" data-paper-data="{&quot;origPos&quot;:null}" fill="#75564a"/><path d="M243.08762,165.214c0.26174,0.00021 0.52334,0.01222 0.784,0.036c-0.361,0.761 -0.793,1.496 -1.151,2.199c-0.823,1.614 -1.537,3.282 -2.633,4.737c-0.242,0.323 -0.595,0.937 -0.97,1.113c-0.193,0.09 -0.334,0.089 -0.458,0.032c1.3,-1.795 2.157,-4.104 2.33,-5.688c0.057,-0.511 0.068,-1.075 -0.434,-1.354c-0.167,-0.093 -0.388,-0.035 -0.552,-0.112c-0.52,-0.245 -0.43,-0.617 -0.45,-1.117c-0.015,-0.373 0.072,-0.624 -0.153,-0.96c-0.819,-1.216 -2.577,-0.439 -3.937,-0.62v-1.505c1.26384,0.1065 2.53168,0.15854 3.8,0.156c0.72362,-0.0004 1.44713,-0.01707 2.17,-0.05v3.133h1.654" data-paper-data="{&quot;origPos&quot;:null}" fill="#75564a"/></g></g></svg>