<svg xmlns="http://www.w3.org/2000/svg" width="52.59" height="117.619"><g fill-rule="evenodd" stroke-miterlimit="10" data-paper-data="{&quot;isPaintingLayer&quot;:true}" style="mix-blend-mode:normal"><path fill="#35250d" d="M43.578 5.61c8.236 8.745 4.942 15.726 4.642 21.716-.299 5.989-3.893 12.342-.15 16.844 0 0-4.21 6.372-23.51-3.225C5.26 50.542 1.05 44.17 1.05 44.17c3.744-4.502.15-10.855-.15-16.844-.299-5.99-3.594-12.971 4.643-21.716 9.66-10.256 19.018-3.313 19.018-3.313s9.357-6.943 19.017 3.313" data-paper-data="{&quot;origPos&quot;:null}"/><path fill="#35250d" d="M11.63 43.985c.632-1.232 1.383-2.399 2.015-3.629-.192 1.742-.54 3.457-.968 5.157-.738.176-1.432.318-2.085.426.436-.642.763-1.423 1.036-1.955m14.691-2.189c.283-.466.594-.9.83-1.264.425-.652.885-1.295 1.27-1.977.022 1.377-.068 2.759-.112 4.137a73.865 73.865 0 0 1-1.987-.896m4.8-2.439c.447 1.599.734 3.248 1.084 4.872a53.743 53.743 0 0 1-1.264-.466c-.089-1.466.006-2.941.18-4.406m5.931 5.934c.084.138.176.271.262.408-.61-.13-1.217-.277-1.82-.44a16.615 16.615 0 0 1-.939-4.738c.935 1.529 1.56 3.237 2.497 4.77m5.06.02c.211.311.441.603.671.897-.772.043-1.644.03-2.633-.065-.339-.773-.52-1.648-.729-2.415-.375-1.383-.736-2.74-.857-4.153 1.134 1.936 2.297 3.891 3.547 5.736m-.867-19.626.183-.137c.18-.135.126-.379-.008-.477.392-1.256 1.212-2.511 2.288-3.225 1.604-1.066 3.184-.235 4.174 1.205.265.387.488.801.667 1.235-.146 1.042-.277 2.055-.326 3.041-.058 1.152-.238 2.317-.463 3.481a7.35 7.35 0 0 1-.809.938c-.918.894-2.397 2.041-3.754 1.976-1.392-.067-1.739-1.17-1.962-2.355-.335-1.795-.345-3.853.01-5.682m4.535 19.221c.162.188.333.368.513.539a8.435 8.435 0 0 1-1.704.536c-.92-1.854-1.674-3.769-1.999-5.81.955 1.639 1.994 3.332 3.19 4.735m-31.096-.839c1.152-1.89 1.978-4.14 3.46-5.81-.108 2.154-.73 4.206-1.672 6.131-.822.284-1.652.544-2.49.779.242-.362.475-.729.701-1.1m-12.773.875c1.093-1.621 3.57-5.458 3.89-7.394.301 2.13-1.149 6.655-1.833 8.293-.93-.254-1.6-.592-2.057-.899M12.4 25.011c-.463 2.677-2.517 5.28-5.45 5.11-3.076-.176-6.077-3.855-3.957-6.703 2.3-3.088 7.154-.277 9.407 1.593m7.365 17.032c.63-1.671.754-3.918 2-5.282.85 1.519.79 3.326.99 5.056a70.791 70.791 0 0 1-3.577 1.56c.217-.43.415-.873.588-1.333" data-paper-data="{&quot;origPos&quot;:null}"/><path fill="#28355d" d="M2.862 72.081s4.411-19.78 8.06-24.146c3.647-4.366 8.751-3.696 8.751-3.696s-1.193 7.987-2.687 9.342c-1.494 1.355-8.044 22.262-8.044 22.262s-.692 0-3.255-1.476c-2.563-1.476-2.825-2.286-2.825-2.286"/><path fill="#28355d" d="M13.98 49.487c-1.722 2.048-3.138 4.408-3.295 7.055-.097 1.634.53 3.355.251 4.96-.115.664-.43.794-.882 1.196-1.309 1.163-.07 2.362.552 3.51.14.255-.13.477-.37.371-.362-.16-1.355-.87-1.73-.78-1.406.338.096 1.778.38 2.165.395.542.685 1.149.3 1.766-.298.475-.97-.058-1.009.996-.014.416.263.897.303 1.328.107 1.158-.233 2.316-.63 3.432.823.357 1.092.357 1.092.357s6.55-20.907 8.044-22.262c1.493-1.355 2.686-9.342 2.686-9.342s-3.17 2.249-5.692 5.248m38.434 4.355c1.231 3.455-4.386 13.495-5.265 10.66-1.397-4.51-4.692-4.71-4.692-4.71s2.884-3.166 2.78-3.942c-.216-1.63-3.127-2.614-6.316-2.572-3.105.04-2.919.58-3.665-.003-.714-.56-4.444-1.835-5.205-3.749-.928-2.338 1.177-5.324 1.177-5.324s5.013.3 10.502 1.995c7.107 2.195 9.452 4.19 10.684 7.645"/><path fill="#28355d" d="M44.055 60.33c-.893-.49-1.597-.538-1.597-.538s2.883-3.166 2.78-3.942c-.217-1.629-3.128-2.614-6.317-2.572-3.105.04-2.919.581-3.665-.003-.715-.559-4.445-1.835-5.205-3.749-.928-2.338 1.177-5.324 1.177-5.324s3.14.191 7.165 1.108l.012.013c.484.652.805 1.51 1.01 2.29.24.908-.03 2.245.583 3.03.725.927 2.25.99 3.297 1.157.746.118 1.475.254 2.178.541 1.064.434 1.067.969.63 1.994-.098.23.062.433.306.399.5-.068.998-.157 1.502-.187.444-.026 1.64-.15.86.597-.666.636-1.975.562-2.75 1.087-.184.124-.175.439.064.497.671.163 1.255.384 1.755.822-1.35.463-3.132.032-3.699 1.71a2.22 2.22 0 0 0-.086 1.07"/><path fill="#3f2b1c" d="M17.682 113.124c.315.798.597 2.545.228 3.345-.62 1.344-2.808 1.082-3.984 1.124-.933.034-8.858.299-7.003-2.064.356-.453.97-.582 1.506-.699 1.11-.244 2.245-.402 3.34-.712l.317-.088c.132-.455.51-.961.8-1.264.424-.443.802-.378 1.38-.403 1.113-.048 2.876-.609 3.416.761"/><path fill="#3f2b1c" d="M8.505 115.589a3.72 3.72 0 0 0-1.745.95c-.182-.268-.16-.598.163-1.01.356-.452.97-.582 1.506-.699 1.11-.243 2.245-.403 3.34-.712l.316-.088c.132-.454.511-.961.802-1.264.423-.443.801-.378 1.378-.403 1.114-.049 2.877-.609 3.417.761.168.424.322 1.114.378 1.789-1.323-.172-2.639-.421-3.973-.479-.949-.041-.912-.033-1.47.532-1.062 1.081-2.742.293-4.112.623m22.776.88c-.369-.801-.088-2.547.227-3.345.541-1.369 2.304-.809 3.416-.761.58.025.956-.041 1.38.403.291.303.67.809.801 1.263l.316.09c1.095.308 2.231.468 3.341.71.536.118 1.15.247 1.505.7 1.855 2.363-6.07 2.098-7.003 2.064-1.175-.043-3.364.221-3.983-1.124"/><path fill="#3f2b1c" d="M42.267 115.529c.41.522.341.915-.023 1.212-.149-.45-.464-.825-.975-1.053-.497-.223-1.042-.196-1.575-.253-.467-.05-.917-.134-1.379-.196-.724-.097-.736-.152-1.384-.568-.71-.458-1.506-.186-2.286.031-1.184.331-2.35.288-3.526.385.041-.727.208-1.503.388-1.963.542-1.369 2.304-.809 3.417-.761.578.025.956-.04 1.38.403.29.303.67.809.8 1.263l.316.09c1.096.308 2.232.468 3.342.71.536.118 1.15.247 1.505.7"/><path fill="#819ea8" d="M27.56 86.963h-3.198l-4.35 27.636-9.17-1.46 6.214-39.48 19.026-.158 2.318 40.097-9.27.542z"/><path fill="#819ea8" d="M27.226 84.256c-2.437.029-7.3.245-11.837-.01l1.667-10.587 19.025-.158 2.318 40.097-.878.052a21.262 21.262 0 0 0-.215-1.81c-.206-1.234-.618-2.451-.648-3.704-.013-.602.054-1.213-.267-1.753-.56-.944-1.5-.683-.893-2.326.175-.473.647-.896.655-1.44.01-.723-.536-1.251-.398-2.083.138-.84.47-1.63.572-2.49.103-.871.09-1.751.116-2.627.08-2.652.32-5.67-1.016-8.078-1.61-2.907-5.242-3.12-8.2-3.084"/><path fill="#819ea8" d="M29.765 108.412c.161 1.892.324 3.782.613 5.655l-1.248.072-.975-16.863c.046.066.085.135.133.2.501.677.65 1.114.563 1.896-.036.326-.118.61-.058.95.13.743.66 1.191 1.05 1.793.721 1.115-.295 1.867-.407 2.967-.11 1.076.24 2.262.33 3.33m-6.863-13.109c.062-.062.116-.129.176-.192l-3.068 19.487-1.273-.202c.38-2.715.977-5.428 1.41-8.105.198-1.235.386-2.299.012-3.489-.177-.563-.429-.228.026-.993.07-.119.15-.257.245-.362.185-.203.402-.224.482-.504.276-.97-1.148-.758-1.448-1.244-.264-.427-.258-.056.134-.442.25-.247.7-.402.994-.597.324-.215.63-.445.831-.788.313-.534.02-.311.124-.707.26-.982.67-1.173 1.355-1.862"/><path fill="#75564a" d="M11.704 29.482c.016 2.378-1.046 3.614-3.98 3.235-2.934-.38-5.698-3.943-5.41-6.31.456-3.763 4.998-4.497 7.126-2.192 1.85 2.004 2.247 2.652 2.264 5.267" data-paper-data="{&quot;origPos&quot;:null}"/><path fill="#75564a" d="M5.438 26.106c-.093-1.466.037-2.533 1.076-3.192 1.086.044 2.162.473 2.926 1.301 1.85 2.004 2.247 2.652 2.264 5.267.016 2.378-1.046 3.614-3.98 3.235a4.685 4.685 0 0 1-1.179-.325 6.307 6.307 0 0 1-.497-.805c-.86-1.686-.494-3.653-.61-5.481m33.683 3.376c.018-2.615.415-3.263 2.265-5.267 2.127-2.305 6.67-1.571 7.125 2.192.288 2.367-2.475 5.93-5.41 6.31-2.933.379-3.995-.857-3.98-3.235" data-paper-data="{&quot;origPos&quot;:null}"/><path fill="#75564a" d="M42.995 32.727c-2.85.334-3.889-.898-3.874-3.246.018-2.614.414-3.262 2.264-5.266.98-1.059 2.465-1.468 3.833-1.245.707.827.465 2.075.135 3.199-.136.463-.316.92-.406 1.395-.167.882-.015 1.768-.285 2.639-.31 1.009-.912 1.836-1.667 2.524" data-paper-data="{&quot;origPos&quot;:null}"/><path fill="#75564a" d="M43.283 28.297c0 9.923-8 12.648-17.87 12.648-9.87 0-17.87-2.725-17.87-12.648 0-9.924 1.634-21.28 17.87-21.28s17.87 11.356 17.87 21.28" data-paper-data="{&quot;origPos&quot;:null}"/><path fill="#75564a" d="M11.67 37.595c-2.577-1.96-4.127-4.932-4.127-9.299 0-9.923 1.634-21.28 17.87-21.28s17.87 11.357 17.87 21.281c0 2.782-.63 4.998-1.753 6.747-.646-1.259-1.148-2.594-1.568-3.764-.65-1.816-.928-3.682-.704-5.608.123-1.066.377-2.07.79-3.06.2-.48.466-.974.494-1.504.043-.84-.466-1.205-1.188-1.497-.549-.222-1.137-.314-1.692-.512-.946-.338-1.852-.852-2.758-1.285-1.717-.823-3.537-1.637-5.077-2.772-1.495-1.102-1.756-2.597-1.968-4.344-.03-.251-.357-.392-.504-.137-.88 1.523-1.727 3.092-2.824 4.475-1.175 1.481-2.647 2.543-4.194 3.6a55.456 55.456 0 0 1-5.268 3.199c-1.196.638-2.454 1.088-2.856 2.505-.356 1.258-.057 2.661-.037 3.945.02 1.144.065 2.289.066 3.434.003 1.553.121 4.061-.574 5.875" data-paper-data="{&quot;origPos&quot;:null}"/><path fill="#5f4217" d="M18.374 23.88c0 .942-.76 1.707-1.697 1.707a1.702 1.702 0 0 1-1.697-1.707c0-.942.76-1.707 1.697-1.707.938 0 1.697.765 1.697 1.707m17.471 0c0 .942-.76 1.707-1.697 1.707a1.702 1.702 0 0 1-1.697-1.707c0-.942.76-1.707 1.697-1.707.938 0 1.697.765 1.697 1.707" data-paper-data="{&quot;origPos&quot;:null}"/><path fill="#ffab66" d="M25.344 33.234c-2.695 0-5.26-1.782-6.184-4.34a.602.602 0 0 1 .818-.751c.144.067.255.19.308.339.772 2.14 3.064 3.67 5.32 3.54 2.26-.12 4.374-1.878 4.915-4.088a.6.6 0 0 1 1.163.288c-.673 2.75-3.203 4.854-6.015 5.004a6.5 6.5 0 0 1-.325.009"/><path fill="#ffab66" d="M25.73 22.627c.296-.25.793.071.563.436-.206.323-.367.836-.17 1.213.196.375.526.383.866.49.3.094.551.107.73.409.418.71-.488 1.789-.784 2.396-.273.561-1.126.066-.836-.491.118-.227.627-.928.588-1.174-.039-.243.121-.1-.272-.217a1.903 1.903 0 0 1-.97-.685c-.574-.778-.438-1.767.285-2.377"/><path fill="#35250d" d="M10.151 23.137s1.453 7.511.933 13.11c-.52 5.597-3.329 9.88-3.329 9.88s-4.159-28.32 3.95-35.246c5.756-4.918 18.546-6.023 26.183-1.958 7.637 4.066 6.44 14.687 5.94 18.402-.5 3.715 1.397 13.62 1.397 13.62-2.395-.803-3.144-3.813-4.342-10.59-1.198-6.777.898-10.892.898-10.892s-.149.751-5.936-2.259c-5.786-3.012-8.5-8.282-8.5-8.282s-1.886 3.915-6.378 7.529c-4.493 3.613-10.816 6.685-10.816 6.685" data-paper-data="{&quot;origPos&quot;:null}"/><path fill="#35250d" d="M26.922 9.191c.011.16.011.32.011.48-.77 1.306-2.66 4.121-5.967 6.78-.575.461-1.163.906-1.765 1.333.509-.595 1.01-1.196 1.504-1.803 1.824-2.246 3.473-5.574 6.217-6.79m2.57 1.852c.499.845.986 1.697 1.46 2.556a22.192 22.192 0 0 1-3.222-4.013c.021-.386.055-.767.103-1.14.701.714 1.162 1.763 1.658 2.597m3.057-.988c1.351 2.204 2.166 4.677 3.146 7.064a19.173 19.173 0 0 1-1.826-1.104c-.908-1.852-1.46-3.985-1.32-5.96m4.711 2.806c1.047 1.914 1.962 3.988 2.377 6.137a29.77 29.77 0 0 1-1.284-.558c-.233-.674-.357-1.449-.457-1.879-.293-1.245-.555-2.448-.637-3.7m-26.374 9.905c-.463.238-.733.37-.733.37s1.452 7.511.932 13.11c-.52 5.598-3.328 9.88-3.328 9.88s-.023-.151-.06-.428c1.71-4.46 2.24-9.258 1.91-14.035-.153-2.224-.488-4.444-.5-6.677-.009-1.33-.145-4.01 1.03-5.03.351.93.637 1.838.75 2.81m33.163 16.063c.249.674.531 1.335.846 1.98-2.134-.97-2.87-4.003-4.01-10.454-1.053-5.95.428-9.834.807-10.694a2.68 2.68 0 0 1 .914-.588c.076 1.209-.498 2.4-.745 3.566-.233 1.105-.3 2.225-.3 3.353 0 2.26.254 4.528.702 6.743.418 2.068 1.04 4.123 1.786 6.095m-29.36-21.043c.567-1.347 1.124-2.78 2.114-3.865-.523 2.462-1.534 4.751-2.583 7.028-.495.285-.963.547-1.395.785.643-1.305 1.296-2.604 1.863-3.948" data-paper-data="{&quot;origPos&quot;:null}"/><path fill="#28355d" d="M29.237 44.027c4.562 0 8.371 3.496 8.786 8.063l2.022 27.624c.13 1.763-1.259 3.266-3.017 3.266H13.762c-1.758 0-3.147-1.503-3.017-3.266l2.022-27.623c.416-4.567 4.225-8.063 8.786-8.063h7.684"/><path fill="#ffa3be" d="M17.772 28.841c0 .836-1.073 1.514-2.396 1.514s-2.396-.678-2.396-1.514c0-.837 1.073-1.515 2.396-1.515s2.396.678 2.396 1.515m20.47 0c0 .836-1.073 1.514-2.397 1.514-1.323 0-2.396-.678-2.396-1.514 0-.837 1.073-1.515 2.396-1.515 1.324 0 2.396.678 2.396 1.515"/><path fill="#75564a" d="M42.947 59.882c.882.226 2.756 1.02 3.89 3.76-2.28 2.639-5.44 5.897-7.01 7.366-.048.047-.106.08-.158.122l-.046.065c-.38.512-2.042 1.772-2.37 1.694-.33-.077-.356-.385.27-1.202l-.04-.004c-.438.396-1.373 1.079-1.69.757-.324-.326.064-.891.48-1.346l-.024-.02c-.92.763-1.408 1.033-1.767.737-.477-.396.125-.961.903-2.073-.154.107-.49.477-.83.697-.486.313-.918-.155-.654-.682.344-.685.882-1.415 1.342-1.923.398-.441.76-.749 1.098-.968 1.702-1.615 4.666-4.721 6.606-6.98" data-paper-data="{&quot;origPos&quot;:null}"/><path fill="#75564a" d="M36.972 67.523c-1.07.911-2.233 1.735-3.05 2.847-.112-.147-.143-.374-.02-.617.343-.685.881-1.415 1.341-1.924.398-.441.76-.747 1.098-.967 1.702-1.615 4.667-4.721 6.606-6.98.882.226 2.756 1.02 3.89 3.76-.249.288-.51.584-.777.884-1.143-1.869-2.298-4.206-4.41-1.809-.607.691-1.09 1.491-1.723 2.16-.9.952-1.958 1.799-2.955 2.647M8.307 75.67a302.306 302.306 0 0 1-2.338 6.762c-.02.056-.049.106-.072.16l-.04.173c-.153.62-1.202 2.427-1.534 2.482-.322.055-.467-.196-.24-1.112l-.06.016c-.278.548-.83 1.412-1.22 1.25-.39-.161-.299-.747-.118-1.294-.019-.005-.036-.009-.053-.015-.517.971-.853 1.366-1.279 1.237-.569-.172-.28-.879 0-2.108l-.028-.031c-.103.21-.246.568-.435.843-.326.477-.906.213-.864-.376.054-.765.27-1.648.498-2.295a6.48 6.48 0 0 1 .484-1.081 290.086 290.086 0 0 0 2.537-7.394c.418.373 1.08.869 2.142 1.48 1.311.755 2.13 1.123 2.62 1.303" data-paper-data="{&quot;origPos&quot;:null}"/><path fill="#75564a" d="M5.687 74.367c1.311.756 2.13 1.123 2.62 1.303a302.306 302.306 0 0 1-2.338 6.762c-.02.057-.049.106-.073.16-.013.058-.026.117-.04.172-.152.621-1.2 2.428-1.532 2.484-.167.028-.284-.028-.33-.209 1.13-2.14 2.17-4.358 2.44-6.752.095-.844-.015-1.512-.665-2.08-.515-.449-1.162-.742-1.695-1.173a7.335 7.335 0 0 1-.935-.921c.137-.411.276-.824.406-1.226.418.374 1.08.869 2.142 1.48m23.55-30.339c.263 0 .524.012.785.036-.362.761-.794 1.496-1.152 2.199-.823 1.614-1.537 3.282-2.633 4.737-.242.323-.594.937-.97 1.113-.485.226-.639-.108-1.02-.508a15.853 15.853 0 0 1-1.942-2.541c-.96-1.536-1.71-3.188-2.298-4.898a8.865 8.865 0 0 1 1.547-.137h.06v-3.24c1.225.106 2.494.156 3.798.156.736 0 1.46-.018 2.172-.05v3.133z" data-paper-data="{&quot;origPos&quot;:null}"/><path fill="#75564a" d="M28.976 44.028c.262 0 .523.012.784.036-.36.761-.793 1.496-1.15 2.199-.824 1.614-1.538 3.282-2.634 4.737-.242.323-.595.937-.97 1.113-.193.09-.334.089-.458.032 1.3-1.795 2.157-4.104 2.33-5.688.057-.511.068-1.075-.434-1.354-.167-.093-.388-.035-.552-.112-.52-.245-.43-.617-.45-1.117-.015-.373.072-.624-.153-.96-.819-1.216-2.577-.439-3.937-.62v-1.505a44.2 44.2 0 0 0 3.8.156c.724 0 1.447-.017 2.17-.05v3.133h1.654" data-paper-data="{&quot;origPos&quot;:null}"/></g></svg>