<svg xmlns="http://www.w3.org/2000/svg" width="58.88" height="117.127"><g fill-rule="evenodd" stroke-miterlimit="10" data-paper-data="{&quot;isPaintingLayer&quot;:true}" style="mix-blend-mode:normal"><path fill="#2c2c2d" d="M25.797 52.831s-1.692 4.415-6.962 5.273c-1.188.196-2.646-4.016-2.646-4.016s-1.424 1.37-2.19 1.28c-1.536-.186-2.648-4.026-2.648-4.026s-.99.882-1.396.784c-1.572-.368-4.042-3.898-4.034-5.512.028-2.908 5.502-4.726 7.048-9.268 5.3.274 12.828 15.486 12.828 15.486M39.004 52.831s7.53-15.212 12.832-15.486c1.544 4.542 7.02 6.36 7.044 9.268.014 1.614-2.458 5.144-4.03 5.512-.408.098-1.4-.784-1.4-.784s-1.112 3.84-2.644 4.026c-.766.09-2.196-1.28-2.196-1.28s-1.452 4.212-2.644 4.016c-5.27-.858-6.962-5.272-6.962-5.272"/><path fill="#30a7df" d="M42.21 17.231c-2.091-3.552-6.117-5.556-10.141-5.538-4.03-.018-8.052 1.986-10.144 5.538a60.625 60.625 0 0 0-1.586-.908c2.344-4.102 7.036-6.464 11.73-6.438 4.692-.026 9.382 2.336 11.724 6.438-.534.296-1.062.6-1.582.908"/><path fill="#30a7df" d="M32.053 8.138c1.068 0 1.296 1.434 1.222 2.022-.068.588-.392 2.022-1.22 2.022-.772 0-1.288-1.308-1.376-1.888-.094-.63.27-2.156 1.374-2.156"/><path fill="#30a7df" d="M32.068 9.432c.06.174.076.656-.092.728-6.59 2.822-21.5-2.736-15.875-9.574 2.778-3.38 12.298 8.958 15.968 8.846"/><path fill="#3394ba" d="M16.816 3.095C18.403.67 26.593 9.203 28.779 9.39c0 0-.192-.006-.254 0-2.38.242-12.518-4.458-11.708-6.28.002-.008 0-.014 0-.014"/><path fill="#21799b" d="m16.816 3.097.025-.032c.006-.01.018-.024.026-.04.014-.014.026-.036.046-.052.018-.018.036-.04.058-.064.022-.022.052-.042.082-.064a.888.888 0 0 1 .226-.122c.182-.072.424-.086.694-.052.268.034.562.124.874.246.306.124.63.282.962.466.332.18.678.39 1.024.616.692.448 1.414.966 2.12 1.49.71.528 1.406 1.066 2.066 1.566.658.498 1.272.962 1.818 1.336.272.186.524.354.756.492.228.138.436.25.61.328.176.08.322.128.418.152.052.016.09.02.118.022l.04.006-.04-.004a.74.74 0 0 1-.118-.018c-.1-.02-.25-.064-.426-.142-.356-.15-.838-.422-1.388-.794a44.173 44.173 0 0 1-1.838-1.314c-.662-.498-1.362-1.03-2.07-1.558a45.179 45.179 0 0 0-2.113-1.498 23.248 23.248 0 0 0-1.01-.622 8.943 8.943 0 0 0-.952-.474 3.863 3.863 0 0 0-.856-.262c-.266-.042-.504-.032-.686.032a.94.94 0 0 0-.368.238c-.02.016-.03.038-.046.052-.01.016-.02.028-.026.04a.466.466 0 0 1-.026.03"/><path fill="#30a7df" d="M32.117 9.432c3.672.112 13.19-12.226 15.968-8.846 5.626 6.838-9.282 12.396-15.874 9.574-.17-.072-.156-.554-.094-.728"/><path fill="#3394ba" d="M47.37 3.095s-.003.006 0 .014c.809 1.822-9.327 6.522-11.707 6.28-.064-.006-.254 0-.254 0C37.595 9.203 45.785.67 47.37 3.095"/><path fill="#21799b" d="M47.37 3.097s-.01-.008-.025-.03c-.006-.012-.018-.024-.028-.04-.014-.014-.026-.036-.046-.052a.91.91 0 0 0-.368-.238c-.182-.064-.42-.074-.682-.032a3.86 3.86 0 0 0-.86.262c-.304.124-.62.288-.948.474-.33.186-.668.4-1.014.622-.718.479-1.42.978-2.108 1.498-.71.528-1.412 1.06-2.072 1.558-.33.248-.654.486-.96.706-.308.222-.604.428-.88.608-.55.372-1.032.644-1.386.794a2.177 2.177 0 0 1-.428.142.724.724 0 0 1-.116.018l-.04.004c.052-.008.104-.017.156-.028.1-.024.244-.072.418-.152.178-.078.382-.19.614-.328.228-.138.482-.306.754-.492.546-.374 1.158-.838 1.816-1.336.662-.5 1.36-1.038 2.066-1.566A42.245 42.245 0 0 1 43.353 4a14.81 14.81 0 0 1 1.026-.616c.332-.184.654-.342.964-.466.31-.122.602-.212.87-.246.27-.034.514-.02.694.052.081.03.157.07.226.122.03.022.06.042.08.064.024.024.042.046.062.064.02.016.03.038.044.052l.026.04c.016.024.026.032.026.032"/><path fill="#4f2a11" d="m31.465 112.338-.492 3.08h-.588l-.132-.832c-1.148.706-2.528 1.122-3.748 1.702-1.196.504-2.772 1.454-3.842.254-1.418-1.696 1.142-3.944 2.798-4.966l5.646.166c.046.198.336.39.35.592z"/><path fill="#775c4d" d="M23.276 114.427s.418-1.816 2.312-2.726h5.62s-3.968 3.964-7.932 2.726" data-paper-data="{&quot;origPos&quot;:null}"/><path fill="#4f2a11" d="M38.78 111.576c1.657 1.024 4.217 3.27 2.799 4.97-1.07 1.198-2.646.252-3.842-.254-1.22-.58-2.604-.998-3.748-1.704l-.13.832h-.59l-.494-3.082.008-.004c.014-.2.306-.394.352-.592l5.646-.166"/><path fill="#775c4d" d="M40.967 114.427c-3.966 1.238-7.932-2.726-7.932-2.726h5.62c1.892.992 2.312 2.726 2.312 2.726" data-paper-data="{&quot;origPos&quot;:null}"/><path fill="#775c4d" d="m43.535 87.728-4.776 24.054h-5.66l-.846-17.44h-.264l-.844 17.44h-5.66l-4.78-24.054h14.36zM1.724 47.893c-1.696.716-2.228 3.27-1.202 5.7.66 1.558 1.808 2.688 2.992 3.108l-.002.002s3.152 8.954 5.902 9.948c2.218.808 9.972-2.3 9.972-2.3s1.267-.28 1.773-2.706c.45-1.054 1.546-4.522 1.546-4.522l-10.726 3.84-5.056-5.94c.087-.248.151-.503.19-.764.359-.675.612-1.401.75-2.154.422-2.156-.048-4.06-1.04-4.254-.536-.104-1.112.304-1.596 1.034-1.074-1.032-2.396-1.46-3.502-.992M49.059 62.26c-1.126-1.436-4.266-3.348-6.126-4.408-.852-.486-1.582-.86-1.582-.86l-3.652 9.206s6.5-.252 7.372-.656c.178.492.726 1.3 1.51 2.41 1.562 2.212 3.028 11.57 3.028 11.57-.036.064-.07.128-.102.196a6.1 6.1 0 0 0-1.106 1.518c-.85 1.6-.936 3.216-.196 3.608.396.21.948.024 1.502-.434.602 1.07 1.544 1.728 2.528 1.624 1.508-.158 2.544-2.044 2.318-4.21-.098-.912-.402-1.728-.838-2.356.004.04.008.06.008.06s-1.294-12.957-4.664-17.267" data-paper-data="{&quot;origPos&quot;:null}"/><path fill="#775c4d" d="M36.014 74.04H28.69l-9.696-9.81 1.55-6.356 2.102-.748c1.874-1.278 7.788-1.492 7.788-1.492l1.616.036h.134l1.606-.036s5.836.202 7.738 1.462l-.006-.012z" data-paper-data="{&quot;origPos&quot;:null}"/><path fill="#a2b128" d="M14.854 92.124c.334.432 2.26-.04 2.26-.04l4.366-4.138-3.988-4.094s-6.118 3.828-2.638 8.272m34.529 0c-.34.432-2.262-.04-2.262-.04l-4.368-4.138 3.992-4.094s6.116 3.828 2.638 8.272"/><path fill="#b6cd39" d="M46.69 83.886c.672 2 6.518 18.41 6.406 26.09-4.162 4.35-36.758 4.256-41.534.002-.99-6.004 5.336-24.334 5.93-26.144.054-3.114.228-7.738.736-12.31.036-.342.788-6.268 1.16-7.174-.23-.546-.15-1.286.05-2.104.352-1.434 24.926-1.36 25.26 0 .316 1.302.556 2.522.372 3.296.394.884.86 5.64.898 5.982.504 4.602.674 9.246.722 12.362"/><path fill="#147633" d="M46.69 83.886c.338 1-7.098.18-14.57.142-7.444-.038-14.926.708-14.628-.194.054-3.114.228-7.738.736-12.31.036-.342.788-6.268 1.16-7.174-.23-.546-.15-1.286.05-2.104.352-1.434 24.926-1.36 25.26 0 .316 1.302.556 2.522.372 3.296.394.884.86 5.64.898 5.982.504 4.602.674 9.246.722 12.362"/><path fill="#919f2a" d="M18.73 112.695s-1.241-10.564 3.1-19.32c-3.77 9.106-2.225 18.828-2.225 18.828s3.334.858 10.83.982c-8.184.814-11.704-.49-11.704-.49m26.578 0s1.238-10.564-3.1-19.32c3.768 9.106 2.226 18.828 2.226 18.828s-3.052.908-10.834.998c8.24.716 11.708-.506 11.708-.506"/><path fill="#a2b128" d="M32.274 83.855c-6.214 14.062-14.818 6.618-17.148 7.358 1.086-3.484 1.05-5.166 2.366-7.36 2.442-1.652 11.868-2.186 14.782.002"/><path fill="#a2b128" d="M31.957 83.855c2.92-2.188 12.346-1.654 14.788-.002 1.314 2.194 1.276 3.876 2.364 7.36-2.332-.74-10.934 6.704-17.152-7.358"/><path fill="#b6cd39" d="M42.376 57.541s1.347-5.878 3.765-4.968c4.312 1.626 6.206 14.912-.66 14.908 0 0-.932-5.132-2.548-9.63-.19-.102-.558-.31-.558-.31m-20.015-.313s-.212-4.912-2.784-4.654c-4.45.444-8.224 15.79-.794 14.908 0 0 1.098-5.438 2.714-9.936.248-.106.864-.318.864-.318"/><path fill="#775c4d" d="M30.449 57.055c-.98 0-1.776-2.104-1.776-3.07h6.978c0 .966-.794 3.07-1.774 3.07h-3.428" data-paper-data="{&quot;origPos&quot;:null}"/><path fill="#eeac6c" d="M29.424 56.257c-.392-.6-.67-1.432-.734-2.034 2.302.375 4.65.367 6.95-.024l-.012.014-6.204 2.044" data-paper-data="{&quot;origPos&quot;:null}"/><path fill="#775c4d" d="M52.834 36.672c1.074.69 1.784 1.87 1.784 3.206 0 2.128-1.796 3.852-4.008 3.852-.064 0-.126-.002-.186-.004-3.588 6.426-10.454 10.772-18.334 10.772-7.892 0-14.764-4.354-18.348-10.79a5.503 5.503 0 0 1-.446.022c-2.214 0-4.006-1.724-4.006-3.852 0-1.44.818-2.692 2.028-3.354a21.61 21.61 0 0 1-.212-3.01c0-11.586 9.394-20.982 20.984-20.982 11.586 0 20.982 9.396 20.982 20.982a21.34 21.34 0 0 1-.238 3.158" data-paper-data="{&quot;origPos&quot;:null}"/><path fill="#333433" d="M27.597 31.761s-.503 1.803-2.082 1.446c-.772-.174-.908-1.2-3.386-.74-.78.18-2.417 1.156-2.732 1.808-.316.652-.088-2.392 2.457-3.522 1.835-.675 2.457-.642 3.977-.642s1.987.907 1.766 1.65m9.74 0s.504 1.803 2.083 1.446c.772-.174.908-1.2 3.386-.74.779.18 2.417 1.156 2.732 1.808.316.652.087-2.392-2.457-3.522-1.835-.675-2.457-.642-3.977-.642s-1.987.907-1.766 1.65m-12.052 7.35c0 1.657-.895 3-2 3s-2-1.343-2-3 .895-3 2-3 2 1.343 2 3m18 0c0 1.657-.895 3-2 3s-2-1.343-2-3 .895-3 2-3 2 1.343 2 3"/><path fill="#eeac6c" d="M32.306 42.18c-1.125.153-3.02 1.834-3.02 1.834s.207-1.009.503-1.299c.8-1.156 2.487-1.604 2.487-1.604s2.173.703 2.65 1.588c.443.824.34 1.238.34 1.238s-2.121-1.87-2.96-1.756zM25.486 45.807s6.897 3.208 13.172-.397c0 0-1.39 5.47-5.95 5.561-4.115.122-4.984-1.492-5.477-1.956-.492-.463-1.42-1.772-1.745-3.208"/><path fill="#2c2c2d" d="M53.903 30.781c.03 2.464-1.066 5.892-1.066 5.892s-5.574-6.596-8.972-8.446c-4.156-2.258-6.228 1.07-9.938-1.862-.616-.488-1.764-1.774-1.764-1.774s-1.396 1.412-1.77 1.774c-4.172 4.086-7.302-.684-10.816 1.788-4.474 3.14-8.254 8.37-8.254 8.37s-1.302-1.488-1.12-5.972c.052-1.294.68-4.16 1.7-7.074 3.692-7.41 11.346-12.5 20.188-12.5 10.152 0 18.74 6.718 21.558 15.95a42.61 42.61 0 0 1 .254 3.854"/></g></svg>