<svg version="1.1" xmlns="http://www.w3.org/2000/svg" xmlns:xlink="http://www.w3.org/1999/xlink" width="58.87983" height="117.12735" viewBox="0,0,58.87983,117.12735"><g transform="translate(-210.71424,-120.88853)"><g data-paper-data="{&quot;isPaintingLayer&quot;:true}" fill-rule="evenodd" stroke="none" stroke-width="1" stroke-linecap="butt" stroke-linejoin="miter" stroke-miterlimit="10" stroke-dasharray="" stroke-dashoffset="0" style="mix-blend-mode: normal"><path d="M236.511,173.72c0,0 -1.692,4.415 -6.962,5.273c-1.188,0.196 -2.646,-4.016 -2.646,-4.016c0,0 -1.424,1.37 -2.19,1.28c-1.536,-0.186 -2.648,-4.026 -2.648,-4.026c0,0 -0.99,0.882 -1.396,0.784c-1.572,-0.368 -4.042,-3.898 -4.034,-5.512c0.028,-2.908 5.502,-4.726 7.048,-9.268c5.3,0.274 12.828,15.486 12.828,15.486" fill="#2c2c2d"/><path d="M249.718,173.72c0,0 7.53,-15.212 12.832,-15.486c1.544,4.542 7.02,6.36 7.044,9.268c0.014,1.614 -2.458,5.144 -4.03,5.512c-0.408,0.098 -1.4,-0.784 -1.4,-0.784c0,0 -1.112,3.84 -2.644,4.026c-0.766,0.09 -2.196,-1.28 -2.196,-1.28c0,0 -1.452,4.212 -2.644,4.016c-5.27,-0.858 -6.962,-5.272 -6.962,-5.272" fill="#2c2c2d"/><path d="M252.925,138.12c-2.092,-3.552 -6.118,-5.556 -10.142,-5.538c-4.03,-0.018 -8.052,1.986 -10.144,5.538c-0.52408,-0.31062 -1.0528,-0.61332 -1.586,-0.908c2.344,-4.102 7.036,-6.464 11.73,-6.438c4.692,-0.026 9.382,2.336 11.724,6.438c-0.534,0.296 -1.062,0.6 -1.582,0.908" fill="#30a7df"/><path d="M242.767,129.027c1.068,0 1.296,1.434 1.222,2.022c-0.068,0.588 -0.392,2.022 -1.22,2.022c-0.772,0 -1.288,-1.308 -1.376,-1.888c-0.094,-0.63 0.27,-2.156 1.374,-2.156" fill="#30a7df"/><path d="M242.782,130.321c0.06,0.174 0.076,0.656 -0.092,0.728c-6.59,2.822 -21.5,-2.736 -15.875,-9.574c2.778,-3.38 12.298,8.958 15.968,8.846" fill="#30a7df"/><path d="M227.53,123.984c1.587,-2.426 9.777,6.108 11.963,6.294c0,0 -0.192,-0.006 -0.254,0c-2.38,0.242 -12.518,-4.458 -11.708,-6.28c0.002,-0.008 0,-0.014 0,-0.014" fill="#3394ba"/><path d="M227.53,123.986l0.025,-0.032c0.006,-0.01 0.018,-0.024 0.026,-0.04c0.014,-0.014 0.026,-0.036 0.046,-0.052c0.018,-0.018 0.036,-0.04 0.058,-0.064c0.022,-0.022 0.052,-0.042 0.082,-0.064c0.06903,-0.05141 0.14515,-0.0925 0.226,-0.122c0.182,-0.072 0.424,-0.086 0.694,-0.052c0.268,0.034 0.562,0.124 0.874,0.246c0.306,0.124 0.63,0.282 0.962,0.466c0.332,0.18 0.678,0.39 1.024,0.616c0.692,0.448 1.414,0.966 2.12,1.49c0.71,0.528 1.406,1.066 2.066,1.566c0.658,0.498 1.272,0.962 1.818,1.336c0.272,0.186 0.524,0.354 0.756,0.492c0.228,0.138 0.436,0.25 0.61,0.328c0.176,0.08 0.322,0.128 0.418,0.152c0.052,0.016 0.09,0.02 0.118,0.022l0.04,0.006l-0.04,-0.004c-0.03976,-0.00281 -0.07922,-0.00883 -0.118,-0.018c-0.1,-0.02 -0.25,-0.064 -0.426,-0.142c-0.356,-0.15 -0.838,-0.422 -1.388,-0.794c-0.62377,-0.42226 -1.23664,-0.8604 -1.838,-1.314c-0.662,-0.498 -1.362,-1.03 -2.07,-1.558c-0.68987,-0.51942 -1.3945,-1.01897 -2.113,-1.498c-0.33132,-0.21589 -0.6681,-0.42329 -1.01,-0.622c-0.30765,-0.17674 -0.62554,-0.33503 -0.952,-0.474c-0.27421,-0.12021 -0.56148,-0.20813 -0.856,-0.262c-0.266,-0.042 -0.504,-0.032 -0.686,0.032c-0.1397,0.04923 -0.2658,0.13078 -0.368,0.238c-0.02,0.016 -0.03,0.038 -0.046,0.052c-0.01,0.016 -0.02,0.028 -0.026,0.04c-0.00824,0.01036 -0.01691,0.02038 -0.026,0.03" fill="#21799b"/><path d="M242.831,130.321c3.672,0.112 13.19,-12.226 15.968,-8.846c5.626,6.838 -9.282,12.396 -15.874,9.574c-0.17,-0.072 -0.156,-0.554 -0.094,-0.728" fill="#30a7df"/><path d="M258.085,123.984c0,0 -0.004,0.006 0,0.014c0.808,1.822 -9.328,6.522 -11.708,6.28c-0.064,-0.006 -0.254,0 -0.254,0c2.186,-0.186 10.376,-8.72 11.962,-6.294" fill="#3394ba"/><path d="M258.085,123.986c0,0 -0.01,-0.008 -0.026,-0.03c-0.006,-0.012 -0.018,-0.024 -0.028,-0.04c-0.014,-0.014 -0.026,-0.036 -0.046,-0.052c-0.10145,-0.10813 -0.22778,-0.18983 -0.368,-0.238c-0.182,-0.064 -0.42,-0.074 -0.682,-0.032c-0.29589,0.05354 -0.58452,0.14146 -0.86,0.262c-0.304,0.124 -0.62,0.288 -0.948,0.474c-0.33,0.186 -0.668,0.4 -1.014,0.622c-0.7175,0.47813 -1.42048,0.97769 -2.108,1.498c-0.71,0.528 -1.412,1.06 -2.072,1.558c-0.33,0.248 -0.654,0.486 -0.96,0.706c-0.308,0.222 -0.604,0.428 -0.88,0.608c-0.55,0.372 -1.032,0.644 -1.386,0.794c-0.178,0.078 -0.328,0.122 -0.428,0.142c-0.03812,0.00913 -0.07691,0.01515 -0.116,0.018l-0.04,0.004c0.05217,-0.00835 0.10418,-0.01769 0.156,-0.028c0.1,-0.024 0.244,-0.072 0.418,-0.152c0.178,-0.078 0.382,-0.19 0.614,-0.328c0.228,-0.138 0.482,-0.306 0.754,-0.492c0.546,-0.374 1.158,-0.838 1.816,-1.336c0.662,-0.5 1.36,-1.038 2.066,-1.566c0.71,-0.524 1.426,-1.042 2.12,-1.49c0.348,-0.226 0.692,-0.436 1.026,-0.616c0.332,-0.184 0.654,-0.342 0.964,-0.466c0.31,-0.122 0.602,-0.212 0.87,-0.246c0.27,-0.034 0.514,-0.02 0.694,0.052c0.08125,0.0286 0.15751,0.06977 0.226,0.122c0.03,0.022 0.06,0.042 0.08,0.064c0.024,0.024 0.042,0.046 0.062,0.064c0.02,0.016 0.03,0.038 0.044,0.052l0.026,0.04c0.016,0.024 0.026,0.032 0.026,0.032" fill="#21799b"/><path d="M242.179,233.227l-0.492,3.08h-0.588l-0.132,-0.832c-1.148,0.706 -2.528,1.122 -3.748,1.702c-1.196,0.504 -2.772,1.454 -3.842,0.254c-1.418,-1.696 1.142,-3.944 2.798,-4.966l5.646,0.166c0.046,0.198 0.336,0.39 0.35,0.592z" fill="#4f2a11"/><path d="M233.99,235.316c0,0 0.418,-1.816 2.312,-2.726h5.62c0,0 -3.968,3.964 -7.932,2.726" data-paper-data="{&quot;origPos&quot;:null}" fill="#775c4d"/><path d="M249.495,232.465c1.656,1.024 4.216,3.27 2.798,4.97c-1.07,1.198 -2.646,0.252 -3.842,-0.254c-1.22,-0.58 -2.604,-0.998 -3.748,-1.704l-0.13,0.832h-0.59l-0.494,-3.082l0.008,-0.004c0.014,-0.2 0.306,-0.394 0.352,-0.592l5.646,-0.166" fill="#4f2a11"/><path d="M251.681,235.316c-3.966,1.238 -7.932,-2.726 -7.932,-2.726h5.62c1.892,0.992 2.312,2.726 2.312,2.726" data-paper-data="{&quot;origPos&quot;:null}" fill="#775c4d"/><path d="M254.249,208.617l-4.776,24.054h-5.66l-0.846,-17.44h-0.264l-0.844,17.44h-5.66l-4.78,-24.054h14.36zM212.438,168.782c-1.696,0.716 -2.228,3.27 -1.202,5.7c0.66,1.558 1.808,2.688 2.992,3.108l-0.002,0.002c0,0 3.152,8.954 5.902,9.948c2.218,0.808 9.972,-2.3 9.972,-2.3c0,0 1.267,-0.28 1.773,-2.706c0.45,-1.054 1.546,-4.522 1.546,-4.522l-10.726,3.84l-5.056,-5.94c0.08766,-0.24799 0.15129,-0.50384 0.19,-0.764c0.35921,-0.67519 0.61218,-1.40172 0.75,-2.154c0.422,-2.156 -0.048,-4.06 -1.04,-4.254c-0.536,-0.104 -1.112,0.304 -1.596,1.034c-1.074,-1.032 -2.396,-1.46 -3.502,-0.992M259.773,183.149c-1.126,-1.436 -4.266,-3.348 -6.126,-4.408c-0.852,-0.486 -1.582,-0.86 -1.582,-0.86l-3.652,9.206c0,0 6.5,-0.252 7.372,-0.656c0.178,0.492 0.726,1.3 1.51,2.41c1.562,2.212 3.028,11.57 3.028,11.57c-0.036,0.064 -0.07,0.128 -0.102,0.196c-0.44482,0.44587 -0.81791,0.95794 -1.106,1.518c-0.85,1.6 -0.936,3.216 -0.196,3.608c0.396,0.21 0.948,0.024 1.502,-0.434c0.602,1.07 1.544,1.728 2.528,1.624c1.508,-0.158 2.544,-2.044 2.318,-4.21c-0.098,-0.912 -0.402,-1.728 -0.838,-2.356c0.004,0.04 0.008,0.06 0.008,0.06c0,0 -1.294,-12.957 -4.664,-17.267" data-paper-data="{&quot;origPos&quot;:null}" fill="#775c4d"/><path d="M246.728,194.929h-7.324l-9.696,-9.81l1.55,-6.356l2.102,-0.748c1.874,-1.278 7.788,-1.492 7.788,-1.492l1.616,0.036h0.134l1.606,-0.036c0,0 5.836,0.202 7.738,1.462l-0.006,-0.012z" data-paper-data="{&quot;origPos&quot;:null}" fill="#775c4d"/><path d="M225.568,213.013c0.334,0.432 2.26,-0.04 2.26,-0.04l4.366,-4.138l-3.988,-4.094c0,0 -6.118,3.828 -2.638,8.272M260.097,213.013c-0.34,0.432 -2.262,-0.04 -2.262,-0.04l-4.368,-4.138l3.992,-4.094c0,0 6.116,3.828 2.638,8.272" fill="#a2b128"/><path d="M257.404,204.775c0.672,2 6.518,18.41 6.406,26.09c-4.162,4.35 -36.758,4.256 -41.534,0.002c-0.99,-6.004 5.336,-24.334 5.93,-26.144c0.054,-3.114 0.228,-7.738 0.736,-12.31c0.036,-0.342 0.788,-6.268 1.16,-7.174c-0.23,-0.546 -0.15,-1.286 0.05,-2.104c0.352,-1.434 24.926,-1.36 25.26,0c0.316,1.302 0.556,2.522 0.372,3.296c0.394,0.884 0.86,5.64 0.898,5.982c0.504,4.602 0.674,9.246 0.722,12.362" fill="#b6cd39"/><path d="M257.404,204.775c0.338,1 -7.098,0.18 -14.57,0.142c-7.444,-0.038 -14.926,0.708 -14.628,-0.194c0.054,-3.114 0.228,-7.738 0.736,-12.31c0.036,-0.342 0.788,-6.268 1.16,-7.174c-0.23,-0.546 -0.15,-1.286 0.05,-2.104c0.352,-1.434 24.926,-1.36 25.26,0c0.316,1.302 0.556,2.522 0.372,3.296c0.394,0.884 0.86,5.64 0.898,5.982c0.504,4.602 0.674,9.246 0.722,12.362" fill="#147633"/><path d="M229.445,233.584c0,0 -1.242,-10.564 3.1,-19.32c-3.77,9.106 -2.226,18.828 -2.226,18.828c0,0 3.334,0.858 10.83,0.982c-8.184,0.814 -11.704,-0.49 -11.704,-0.49M256.023,233.584c0,0 1.238,-10.564 -3.1,-19.32c3.768,9.106 2.226,18.828 2.226,18.828c0,0 -3.052,0.908 -10.834,0.998c8.24,0.716 11.708,-0.506 11.708,-0.506" fill="#919f2a"/><path d="M242.988,204.744c-6.214,14.062 -14.818,6.618 -17.148,7.358c1.086,-3.484 1.05,-5.166 2.366,-7.36c2.442,-1.652 11.868,-2.186 14.782,0.002" fill="#a2b128"/><path d="M242.671,204.744c2.92,-2.188 12.346,-1.654 14.788,-0.002c1.314,2.194 1.276,3.876 2.364,7.36c-2.332,-0.74 -10.934,6.704 -17.152,-7.358" fill="#a2b128"/><path d="M253.09,178.43c0,0 1.347,-5.878 3.765,-4.968c4.312,1.626 6.206,14.912 -0.66,14.908c0,0 -0.932,-5.132 -2.548,-9.63c-0.19,-0.102 -0.558,-0.31 -0.558,-0.31M233.074,178.117c0,0 -0.212,-4.912 -2.784,-4.654c-4.45,0.444 -8.224,15.79 -0.794,14.908c0,0 1.098,-5.438 2.714,-9.936c0.248,-0.106 0.864,-0.318 0.864,-0.318" fill="#b6cd39"/><path d="M241.163,177.944c-0.98,0 -1.776,-2.104 -1.776,-3.07h6.978c0,0.966 -0.794,3.07 -1.774,3.07h-3.428" data-paper-data="{&quot;origPos&quot;:null}" fill="#775c4d"/><path d="M240.138,177.146c-0.392,-0.6 -0.67,-1.432 -0.734,-2.034c2.30222,0.37427 4.65042,0.36616 6.95,-0.024l-0.012,0.014l-6.204,2.044" data-paper-data="{&quot;origPos&quot;:null}" fill="#eeac6c"/><path d="M263.548,157.561c1.074,0.69 1.784,1.87 1.784,3.206c0,2.128 -1.796,3.852 -4.008,3.852c-0.064,0 -0.126,-0.002 -0.186,-0.004c-3.588,6.426 -10.454,10.772 -18.334,10.772c-7.892,0 -14.764,-4.354 -18.348,-10.79c-0.148,0.012 -0.296,0.022 -0.446,0.022c-2.214,0 -4.006,-1.724 -4.006,-3.852c0,-1.44 0.818,-2.692 2.028,-3.354c-0.138,-0.982 -0.212,-1.986 -0.212,-3.01c0,-11.586 9.394,-20.982 20.984,-20.982c11.586,0 20.982,9.396 20.982,20.982c-0.00101,1.05711 -0.08056,2.11268 -0.238,3.158" data-paper-data="{&quot;origPos&quot;:null}" fill="#775c4d"/><path d="M238.311,152.65c0,0 -0.503,1.803 -2.082,1.446c-0.772,-0.174 -0.908,-1.201 -3.386,-0.74c-0.779,0.18 -2.417,1.156 -2.732,1.808c-0.316,0.652 -0.088,-2.392 2.457,-3.522c1.835,-0.675 2.457,-0.642 3.977,-0.642c1.52,0 1.987,0.907 1.766,1.65M248.052,152.65c0,0 0.503,1.803 2.082,1.446c0.772,-0.174 0.908,-1.201 3.386,-0.74c0.779,0.18 2.417,1.156 2.732,1.808c0.316,0.652 0.087,-2.392 -2.457,-3.522c-1.835,-0.675 -2.457,-0.642 -3.977,-0.642c-1.52,0 -1.987,0.907 -1.766,1.65M236,160c0,1.657 -0.895,3 -2,3c-1.105,0 -2,-1.343 -2,-3c0,-1.657 0.895,-3 2,-3c1.105,0 2,1.343 2,3M254,160c0,1.657 -0.895,3 -2,3c-1.105,0 -2,-1.343 -2,-3c0,-1.657 0.895,-3 2,-3c1.105,0 2,1.343 2,3" fill="#333433"/><path d="M243.02,163.069c-1.125,0.153 -3.02,1.834 -3.02,1.834c0,0 0.207,-1.009 0.503,-1.299c0.8,-1.156 2.487,-1.604 2.487,-1.604c0,0 2.173,0.703 2.65,1.588c0.443,0.824 0.34,1.238 0.34,1.238c0,0 -2.121,-1.871 -2.96,-1.756z" fill="#eeac6c"/><path d="M236.2,166.696c0,0 6.897,3.208 13.172,-0.397c0,0 -1.39,5.47 -5.95,5.561c-4.115,0.122 -4.984,-1.492 -5.477,-1.956c-0.492,-0.463 -1.42,-1.772 -1.745,-3.208" fill="#eeac6c"/><path d="M264.617,151.67c0.03,2.464 -1.066,5.892 -1.066,5.892c0,0 -5.574,-6.596 -8.972,-8.446c-4.156,-2.258 -6.228,1.07 -9.938,-1.862c-0.616,-0.488 -1.764,-1.774 -1.764,-1.774c0,0 -1.396,1.412 -1.77,1.774c-4.172,4.086 -7.302,-0.684 -10.816,1.788c-4.474,3.14 -8.254,8.37 -8.254,8.37c0,0 -1.302,-1.488 -1.12,-5.972c0.052,-1.294 0.68,-4.16 1.7,-7.074c3.692,-7.41 11.346,-12.5 20.188,-12.5c10.152,0 18.74,6.718 21.558,15.95c0.14288,1.28017 0.22763,2.56615 0.254,3.854" fill="#2c2c2d"/></g></g></svg>