<svg version="1.1" xmlns="http://www.w3.org/2000/svg" xmlns:xlink="http://www.w3.org/1999/xlink" width="58.69175" height="118.64788" viewBox="0,0,58.69175,118.64788"><g transform="translate(-211,-120)"><g data-paper-data="{&quot;isPaintingLayer&quot;:true}" fill-rule="evenodd" stroke-linecap="butt" stroke-linejoin="miter" stroke-miterlimit="10" stroke-dasharray="" stroke-dashoffset="0" style="mix-blend-mode: normal"><path d="M267.87,165.52c1.789,0.752 2.356,3.442 1.271,6.012c-0.699,1.639 -1.903,2.831 -3.15,3.273c0,0 -3.325,9.449 -6.22,10.497c-2.348,0.85 -10.602,-2.508 -10.602,-2.508c0,0 -0.675,-2.567 -1.019,-3.381c-0.474,-1.108 -2.393,-4.163 -2.393,-4.163l11.306,4.048l5.33,-6.261c-0.089,-0.248 -0.153,-0.523 -0.203,-0.805c-0.344,-0.626 -0.621,-1.404 -0.783,-2.276c-0.446,-2.27 0.042,-4.273 1.098,-4.481c0.56,-0.108 1.164,0.324 1.683,1.094c1.127,-1.09 2.519,-1.547 3.682,-1.049" data-paper-data="{&quot;origPos&quot;:null}" fill="#77584c" stroke="none" stroke-width="1"/><path d="M226.971,232.874c-1.748,1.074 -3.018,3.354 -1.526,5.152c1.137,1.26 2.797,0.303 4.062,-0.234c1.386,-0.671 2.993,-1.114 4.253,-1.98c0.822,-0.572 1.772,-1.253 2.33,-2.106c0.17,-0.26 0.255,-0.585 0.192,-0.832h-9.31zM246.863,232.874c1.752,1.074 3.017,3.354 1.52,5.152c-1.127,1.26 -2.792,0.303 -4.053,-0.234c-1.396,-0.671 -3,-1.114 -4.264,-1.98c-0.818,-0.572 -1.77,-1.253 -2.32,-2.106c-0.18,-0.26 -0.26,-0.585 -0.193,-0.832z" fill="#333433" stroke="none" stroke-width="1"/><path d="M248.958,207.503l-1.9,25.433h-9.636l-0.37,-18.394h-0.277l-0.366,18.394h-9.639l-1.903,-25.433z" fill="#333433" stroke="none" stroke-width="1"/><path d="M219.60934,180.737c1.735,-2.213 7.975,-5.487 7.975,-5.487c0,0 -2.902,5.286 -3.432,7.629c-0.069,0.301 -0.23,1.096 -0.381,1.513c-0.19,0.523 -0.722,1.174 -1.55,2.343c-1.646,2.333 -3.19,12.204 -3.19,12.204c0.04044,0.06471 0.07555,0.1326 0.105,0.203c0.46992,0.4704 0.86456,1.0104 1.17,1.601c0.888,1.69 0.983,3.396 0.2,3.807c-0.411,0.223 -0.993,0.029 -1.586,-0.457c-0.63,1.13 -1.624,1.82 -2.66,1.716c-1.587,-0.168 -2.681,-2.156 -2.443,-4.448c0.101,-0.96 0.425,-1.814 0.883,-2.479c-0.005,0.042 -0.005,0.057 -0.005,0.057c0,0 1.362,-13.66 4.914,-18.202" data-paper-data="{&quot;origPos&quot;:null}" fill="#77584c" stroke="none" stroke-width="1"/><path d="M219.71,198.498h-4.826c0,0 1.56,-13.664 5.11,-18.204c1.569,-2.01 6.131,-4.58 6.95,-5.028c2.029,-1.313 8.135,-1.515 8.135,-1.515l1.708,0.055h0.141l1.7,-0.055c0,0 6.133,0.214 8.155,1.544l10.248,4.003l5.375,-6.24l4.628,2.274c0,0 -4.268,8.977 -7.169,10.027c-2.25,0.81 -8.981,-1.849 -9.55,-2.11c2.272,9.808 1.959,24.261 1.959,24.261h-30.835c0,0 -0.195,-11.565 1.41,-21.124c-0.07561,0.11897 -0.15567,0.23505 -0.24,0.348c-1.648,2.335 -2.899,11.764 -2.899,11.764" data-paper-data="{&quot;origPos&quot;:null}" fill="#eeeeed" stroke="#eeeeed" stroke-width="0.5"/><path d="M221.438,207.51c0,0 -0.02,-1.124 0,-2.96h30.85c0.016,1.836 -0.014,2.96 -0.014,2.96h-30.836" fill="#884e2d" stroke="none" stroke-width="1"/><path d="M239.655,207.906c-0.954,0.954 -4.346,0.848 -5.396,0c-0.708,-0.573 -0.638,-2.988 0,-3.632c0.953,-0.954 4.55,-1.046 5.396,0c0.572,0.707 0.641,2.99 0,3.632" fill="#f7b90b" stroke="none" stroke-width="1"/><path d="M238.7,207.255c-0.621,0.62 -2.822,0.55 -3.5,0c-0.46,-0.372 -0.415,-1.94 0,-2.357c0.62,-0.616 2.954,-0.677 3.5,0c0.372,0.458 0.412,1.938 0,2.357" fill="#884e2d" stroke="none" stroke-width="1"/><path d="M239.484,206.103c0,0.085 -0.075,0.163 -0.155,0.163h-1.084c-0.088,0 -0.153,-0.078 -0.153,-0.163c0,-0.089 0.065,-0.153 0.153,-0.153h1.084c0.08,0 0.155,0.064 0.155,0.153" fill="#d69d0b" stroke="none" stroke-width="1"/><path d="M236.839,178.07666l-3.691,-3.96c1.097,-0.124 1.912,-0.148 1.912,-0.148l1.698,0.059h0.14l1.706,-0.085c0,0 0.885,0.038 2.068,0.18l-3.832,3.954zM258.673,154.07666c1.13,0.724 1.884,1.97 1.884,3.376c0,2.245 -1.896,4.068 -4.225,4.068c-0.066,0 -0.139,-0.006 -0.196,-0.006c-3.788,6.777 -11.026,11.357 -19.337,11.357c-8.323,0 -15.562,-4.586 -19.338,-11.376c-0.153,0.019 -0.311,0.025 -0.466,0.025c-2.34,0 -4.234,-1.823 -4.234,-4.067c0,-1.512 0.873,-2.832 2.143,-3.53c-0.149,-1.041 -0.22,-2.101 -0.22,-3.176c0,-12.22 9.896,-22.13 22.115,-22.13c12.221,0 22.119,9.911 22.119,22.131c0.00202,1.11391 -0.07988,2.22639 -0.245,3.328" data-paper-data="{&quot;origPos&quot;:null}" fill="#77584c" stroke="none" stroke-width="1"/><path d="M232.619,148.65c0.229,-0.743 -0.256,-1.65 -1.832,-1.65c-1.576,0 -2.221,-0.033 -4.124,0.642c-2.638,1.13 -2.876,4.174 -2.548,3.522c0.327,-0.652 2.026,-1.628 2.834,-1.808c2.57,-0.461 2.71,0.566 3.51,0.74c1.638,0.357 2.16,-1.446 2.16,-1.446M242.72,148.65c-0.229,-0.743 0.256,-1.65 1.832,-1.65c1.576,0 2.221,-0.033 4.125,0.642c2.638,1.13 2.875,4.174 2.548,3.522c-0.328,-0.652 -2.026,-1.628 -2.835,-1.808c-2.569,-0.461 -2.71,0.566 -3.51,0.74c-1.638,0.357 -2.16,-1.446 -2.16,-1.446" data-paper-data="{&quot;origPos&quot;:null}" fill="#333433" stroke="none" stroke-width="1"/><path d="M230.222,156c0,1.657 -0.928,3 -2.074,3c-1.146,0 -2.074,-1.343 -2.074,-3c0,-1.657 0.928,-3 2.074,-3c1.146,0 2.074,1.343 2.074,3M248.889,156c0,1.657 -0.928,3 -2.074,3c-1.146,0 -2.074,-1.343 -2.074,-3c0,-1.657 0.928,-3 2.074,-3c1.146,0 2.074,1.343 2.074,3" fill="#333433" stroke="none" stroke-width="1"/><path d="M237.501,157.069c-1.167,0.153 -3.132,1.834 -3.132,1.834c0,0 0.215,-1.009 0.522,-1.299c0.829,-1.156 2.579,-1.604 2.579,-1.604c0,0 2.254,0.703 2.749,1.588c0.459,0.824 0.353,1.238 0.353,1.238c0,0 -2.2,-1.871 -3.07,-1.756z" fill="#eeac6c" stroke="none" stroke-width="1"/><path d="M230.429,161.696c0,0 7.153,3.208 13.662,-0.397c0,0 -1.443,5.47 -6.171,5.561c-4.268,0.122 -5.168,-1.492 -5.68,-1.956c-0.511,-0.463 -1.474,-1.772 -1.811,-3.208" data-paper-data="{&quot;origPos&quot;:null}" fill="#9c4646" stroke="none" stroke-width="1"/><path d="M259.798,147.602c0.031,2.601 -0.865,8.223 -2.643,11.57c0,0 -4.356,-12.313 -7.934,-14.263c-4.378,-2.386 -15.93,1.051 -19.845,-2.048c-0.642,-0.505 -0.577,-1.67 -0.577,-1.67c0,0 -0.749,1.485 -1.107,1.897c-1.908,2.157 -6.816,5.286 -9.151,6.967c-1.884,1.344 -1.961,1.33 -1.548,9.117c0,0 -3.453,-7.088 -3.262,-11.816c0.051,-1.363 0.713,-4.381 1.793,-7.455c3.894,-7.816 11.958,-13.187 21.276,-13.187c10.72,0 19.761,7.079 22.732,16.824c0.15118,1.34985 0.23994,2.70596 0.266,4.064" data-paper-data="{&quot;origPos&quot;:null}" fill="#333433" stroke="none" stroke-width="1"/><path d="M235.08,175.148c-1.036,0 -1.868,-2.219 -1.868,-3.236h7.351c0,1.017 -0.837,3.236 -1.872,3.236h-3.611" data-paper-data="{&quot;origPos&quot;:null}" fill="#77584c" stroke="none" stroke-width="1"/><path d="M234.064,174.446c-0.415,-0.632 -0.773,-1.488 -0.843,-2.12c1.164,0.189 2.36,0.282 3.578,0.282c1.25663,0.00047 2.51106,-0.10491 3.75,-0.315l-0.01,0.02l-6.475,2.132" data-paper-data="{&quot;origPos&quot;:null}" fill="#eeac6c" stroke="none" stroke-width="1"/><path d="M239.521,196.967c0.023,1.554 -2.612,2.599 -2.612,2.599c0,0 -2.606,-1.076 -2.606,-2.595c0.004,-1.452 1.408,-16.078 1.408,-16.078c-0.482,-0.326 -0.903,-2.191 -0.903,-2.191l1.092,-0.87l1.856,-0.057l1.165,0.966c0,0 -0.494,1.772 -0.944,2.152c0,0 1.523,14.613 1.543,16.074" fill="#333433" stroke="none" stroke-width="1"/><path d="M236.893,177.809c0,0 -2.043,0.846 -1.829,1.72c0.217,0.867 -3.947,-5.084 -3.817,-5.409c0.118,-0.33 1.369,-1.447 1.369,-1.447z" fill="#eeeeed" stroke="none" stroke-width="1"/><path d="M232.616,172.724c-0.173,0.155 -1.237,1.117 -1.341,1.404c-0.028,0.087 0.354,0.793 1.292,2.178c1.127,1.674 2.283,3.207 2.472,3.274c0,-0.006 0,-0.026 -0.006,-0.048c-0.208,-0.824 1.522,-1.613 1.806,-1.737zM235.051,179.643c-0.266,0 -2.165,-2.743 -2.244,-2.859c-0.393,-0.572 -1.672,-2.469 -1.59,-2.675c0.127,-0.33 1.336,-1.415 1.38,-1.46l0.02,-0.02l4.334,5.184l-0.042,0.02c-0.02,0.012 -2.02,0.855 -1.817,1.688c0.018,0.053 0.018,0.09 0,0.108c-0.012,0.006 -0.027,0.014 -0.041,0.014z" fill="#565657" stroke="none" stroke-width="1"/><path d="M241.104,172.673c0,0 1.244,1.117 1.368,1.447c0.122,0.325 -4.035,6.276 -3.815,5.409c0.214,-0.874 -1.829,-1.72 -1.829,-1.72z" fill="#eeeeed" stroke="none" stroke-width="1"/><path d="M236.874,177.795c0.295,0.123 2.016,0.912 1.807,1.739v0.047c0.187,-0.067 1.346,-1.592 2.469,-3.27c0.932,-1.389 1.323,-2.097 1.298,-2.181c-0.118,-0.288 -1.173,-1.252 -1.346,-1.407zM238.67,179.642c-0.0151,-0.00027 -0.02976,-0.00516 -0.042,-0.014c-0.01,-0.026 -0.01,-0.053 0,-0.108c0.2,-0.83 -1.8,-1.676 -1.809,-1.686l-0.045,-0.022l4.32,-5.183l0.022,0.02c0.053,0.047 1.265,1.129 1.385,1.459c0.08,0.207 -1.202,2.113 -1.597,2.691c-0.085,0.114 -1.965,2.843 -2.234,2.843z" fill="#565657" stroke="none" stroke-width="1"/><path d="M212.882,152.346c0.152,-0.046 0.305,-0.066 0.504,-0.066v6.186c-1.34,0 -2.386,-1.383 -2.386,-3.093c0,-0.751 0.2,-1.443 0.55,-1.985v-11.425h1.332v10.384" fill="#3e898e" stroke="none" stroke-width="1"/><path d="M217.519,162.191c-2.915,0 -5.222,-3.053 -5.222,-6.818c0,-3.763 2.307,-6.81 5.222,-6.81v13.627z" fill="#53abb6" stroke="none" stroke-width="1"/><path d="M218.458,162.332c0.0008,0.23487 -0.09221,0.46034 -0.25839,0.62632c-0.16617,0.16599 -0.39175,0.25875 -0.62661,0.25768h-0.012c-0.2338,0.00055 -0.45805,-0.09269 -0.62252,-0.25886c-0.16447,-0.16617 -0.25542,-0.39136 -0.25248,-0.62514v-13.78c0,-0.482 0.387,-0.877 0.875,-0.877h0.012c0.487,0 0.885,0.395 0.885,0.877z" fill="#333433" stroke="none" stroke-width="1"/><path d="M262.279,153.424c0.325,0.539 0.522,1.208 0.522,1.948c0,1.709 -1.035,3.094 -2.363,3.094v-6.187c0.17257,0.00226 0.34408,0.02748 0.51,0.075v-10.39h1.332v11.46" fill="#3e898e" stroke="none" stroke-width="1"/><path d="M256.27,162.19v-13.627c2.915,0 5.23,3.047 5.23,6.81c0,3.765 -2.315,6.818 -5.23,6.818z" fill="#53abb6" stroke="none" stroke-width="1"/><path d="M257.075,162.332c0.00269,0.23475 -0.08916,0.46071 -0.25488,0.62699c-0.16572,0.16628 -0.39137,0.25891 -0.62612,0.25701h-0.02c-0.23355,-0.00026 -0.45733,-0.09376 -0.62162,-0.25975c-0.1643,-0.16599 -0.25551,-0.39071 -0.25338,-0.62425v-13.78c0,-0.482 0.393,-0.877 0.875,-0.877h0.02c0.493,0 0.88,0.395 0.88,0.877v13.78z" fill="#333433" stroke="none" stroke-width="1"/><path d="M262.708,155.813c0.13117,0.0361 0.21343,0.16598 0.19,0.3c-0.554,2.522 -1.776,4.735 -3.63,6.577c-1.477,1.465 -3.365,2.702 -5.595,3.672c-2.877,1.242 -5.619,1.722 -6.789,1.883c-0.201,0.545 -1.31,0.963 -2.647,0.963c-1.489,0 -2.693,-0.512 -2.693,-1.15c0,-0.635 1.203,-1.155 2.693,-1.155c1.221,0 2.255,0.359 2.581,0.837c1.134,-0.154 3.83,-0.616 6.67,-1.852c4.944,-2.151 7.949,-5.472 8.913,-9.881c0.03228,-0.13767 0.16867,-0.2243 0.307,-0.195M236.909,120c14.266,0 25.828,11.57 25.828,25.835c0,0 -0.242,1.108 -1.359,1.108c-1.075,0 -1.385,-1.108 -1.385,-1.108c0,-12.755 -10.338,-21.124 -23.085,-21.124c-12.745,0 -23.09,8.369 -23.09,21.124c0,0 -0.228,1.108 -1.355,1.108c-1.076,0 -1.386,-1.108 -1.386,-1.108c0,-14.265 11.565,-25.835 25.832,-25.835" fill="#333433" stroke="none" stroke-width="1"/></g></g></svg>