<svg version="1.1" xmlns="http://www.w3.org/2000/svg" xmlns:xlink="http://www.w3.org/1999/xlink" width="55.56" height="116.57826" viewBox="0,0,55.56,116.57826"><g transform="translate(-212.251,-122.084)"><g data-paper-data="{&quot;isPaintingLayer&quot;:true}" fill-rule="evenodd" stroke-miterlimit="10" stroke-dasharray="" stroke-dashoffset="0" style="mix-blend-mode: normal"><path d="M267.811,222.69c0,0 -12.735,4.939 -28.462,4.939c-14.799,0 -27.098,-4.939 -27.098,-4.939c0,-31.404 12.438,-56.862 27.78,-56.862c15.343,0 27.78,25.458 27.78,56.862" fill="#e53935" stroke="none" stroke-width="1" stroke-linecap="butt" stroke-linejoin="miter"/><path d="M230.765,213.361h6.63l-1.386,18.42c-0.128,1.698 -4.529,5.71 -4.529,5.71c-2.648,-1.586 -0.49,-6.586 -0.49,-6.586l-0.225,-17.545z" data-paper-data="{&quot;origPos&quot;:null}" fill="#77584c" stroke="none" stroke-width="1" stroke-linecap="butt" stroke-linejoin="miter"/><path d="M236.767,233.649c0.301,0.307 0.468,0.643 0.468,0.993c0,2.426 -1.903,3.26 -5.426,3.86c-3.138,0.534 -5.61,-0.335 -5.61,-1.594c0,-1.058 1.858,-3.214 4.301,-4.492v-6.99h6.266v8.224" fill="#757575" stroke="none" stroke-width="1" stroke-linecap="butt" stroke-linejoin="miter"/><path d="M230.401,236.335c-0.876,0.492 -1.855,0.415 -2.184,-0.17c-0.33,-0.587 0.112,-1.461 0.989,-1.953c0.876,-0.492 1.855,-0.416 2.185,0.17c0.33,0.587 -0.113,1.46 -0.99,1.953" fill="#bdbdbd" stroke="none" stroke-width="1" stroke-linecap="butt" stroke-linejoin="miter"/><path d="M249.118,213.36l-0.225,17.545c0,0 2.158,5 -0.49,6.586c0,0 -4.401,-4.012 -4.529,-5.71l-1.386,-18.42h6.63z" data-paper-data="{&quot;origPos&quot;:null}" fill="#77584c" stroke="none" stroke-width="1" stroke-linecap="butt" stroke-linejoin="miter"/><path d="M242.951,233.65v-8.224h6.268v6.99c2.443,1.278 4.301,3.434 4.301,4.492c0,1.259 -2.472,2.128 -5.61,1.594c-3.524,-0.6 -5.426,-1.434 -5.426,-3.86c0,-0.35 0.166,-0.686 0.467,-0.993" fill="#757575" stroke="none" stroke-width="1" stroke-linecap="butt" stroke-linejoin="miter"/><path d="M249.317,236.335c-0.877,-0.493 -1.32,-1.366 -0.99,-1.953c0.33,-0.586 1.308,-0.662 2.184,-0.17c0.877,0.492 1.32,1.366 0.99,1.953c-0.33,0.585 -1.308,0.662 -2.184,0.17" fill="#bdbdbd" stroke="none" stroke-width="1" stroke-linecap="butt" stroke-linejoin="miter"/><path d="M251.98,167.684c7.849,9.242 5.991,26.759 5.911,29.379c-0.095,3.092 -3.51,6.239 -3.51,6.239c-0.809,-1.503 -0.716,-3.501 -0.457,-5.03c-0.501,0.349 -0.934,0.485 -1.131,0.31c-0.32,-0.286 0.107,-1.286 0.954,-2.233c0.328,-0.365 0.669,-0.667 0.984,-0.887c-0.345,-9.526 -2.725,-15.626 -4.083,-19.946l-1.297,17.017c0,0 -7.309,1.68 -9.41,1.68c-2.1,0 -9.41,-1.68 -9.41,-1.68l-1.296,-17.017c-1.358,4.32 -3.738,10.419 -4.083,19.946c0.36033,0.25732 0.69013,0.55492 0.983,0.887c0.848,0.947 1.275,1.947 0.955,2.232c-0.197,0.176 -0.631,0.04 -1.131,-0.31c0.259,1.53 0.352,3.528 -0.456,5.03c0,0 -3.417,-3.146 -3.51,-6.238c-0.08,-2.619 -1.94,-20.137 5.91,-29.378l8.594,-1.71v-5.827h6.889v5.826l8.594,1.71" data-paper-data="{&quot;origPos&quot;:null}" fill="#77584c" stroke="none" stroke-width="1" stroke-linecap="butt" stroke-linejoin="miter"/><path d="M251.979,167.684c6.457,7.602 7.208,20.802 6.92,26.705h-5.231c-0.476,-8.914 -1.714,-14.717 -3.02,-18.873l-1.297,17.017c0,0 -4.56,1.68 -9.41,1.68c-4.357,0 -9.41,-1.68 -9.41,-1.68l-1.296,-17.017c-1.306,4.156 -2.544,9.959 -3.02,18.873h-5.045c-0.287,-5.903 0.277,-19.103 6.733,-26.705l5.952,-1.183c1.612,1.582 3.746,2.547 6.086,2.547c2.341,0 4.475,-0.965 6.087,-2.547l5.952,1.183" fill="#0288d1" stroke="none" stroke-width="1" stroke-linecap="butt" stroke-linejoin="miter"/><path d="M251.979,167.684c6.457,7.602 7.208,20.802 6.92,26.705h-5.231c-0.476,-8.914 -1.714,-14.717 -3.02,-18.873l-1.297,17.017c0,0 -4.56,1.68 -9.41,1.68c-4.357,0 -9.41,-1.68 -9.41,-1.68l-1.296,-17.017c-1.306,4.156 -2.544,9.959 -3.02,18.873h-5.045c-0.287,-5.903 0.277,-19.103 6.733,-26.705l5.952,-1.183c1.612,1.582 3.746,2.547 6.086,2.547c2.341,0 4.475,-0.965 6.087,-2.547l5.952,1.183" fill="#0288d1" stroke="none" stroke-width="1" stroke-linecap="butt" stroke-linejoin="miter"/><path d="M239.935,191.938c4.211,0 8.216,-1.181 9.586,-1.63l-0.17,2.225c0,0 -4.56,1.68 -9.41,1.68c-4.357,0 -9.41,-1.679 -9.41,-1.679l-0.17,-2.236c1.454,0.44 5.761,1.64 9.574,1.64M225.188,169.788c1.658,-2.535 4.561,-3.783 5.873,-3.083c1.313,0.701 0.699,2.808 -0.731,5.478c-1.429,2.672 -1.024,6.287 -2.337,5.587c-1.313,-0.701 -5.152,-4.393 -2.805,-7.982M254.695,169.788c-1.658,-2.535 -4.561,-3.783 -5.873,-3.083c-1.314,0.701 -0.7,2.808 0.73,5.478c1.43,2.672 1.025,6.287 2.338,5.587c1.313,-0.701 5.151,-4.393 2.805,-7.982" fill="#fdd835" stroke="none" stroke-width="1" stroke-linecap="butt" stroke-linejoin="miter"/><path d="M249.386,192.534c0,0 4.926,11.22 2.218,23.2c0,0 -7.947,1.18 -10.227,0c0,0 -0.969,-3.568 -1.418,-9.096c-0.45,5.528 -1.418,9.095 -1.418,9.095c-2.281,1.182 -10.227,0 -10.227,0c-2.708,-11.979 2.218,-23.2 2.218,-23.2c0,0 5.052,1.35 9.5,1.35c4.253,0 9.354,-1.35 9.354,-1.35" fill="#689f38" stroke="none" stroke-width="1" stroke-linecap="butt" stroke-linejoin="miter"/><path d="M258.403,147.867c0,8.805 -8.266,15.63 -18.462,15.63c-10.196,0 -18.461,-6.825 -18.461,-15.63c0,-8.806 8.265,-17.51 18.461,-17.51c10.196,0 18.462,8.704 18.462,17.51" data-paper-data="{&quot;origPos&quot;:null}" fill="#77584c" stroke="none" stroke-width="1" stroke-linecap="butt" stroke-linejoin="miter"/><path d="M231.545,150.25c-0.02082,-0.84155 -0.70872,-1.51308 -1.55053,-1.51362c-0.84181,-0.00054 -1.53057,0.6701 -1.55247,1.51162c-0.01467,0.56368 0.27753,1.09096 0.76327,1.37733c0.48574,0.28637 1.08858,0.28676 1.57468,0.00101c0.48611,-0.28574 0.77899,-0.81265 0.76505,-1.37635M248.338,150.25c-0.00081,-0.62782 0.3767,-1.19428 0.95646,-1.43519c0.57976,-0.24091 1.24755,-0.1088 1.69191,0.3347c0.44436,0.4435 0.57776,1.11104 0.33797,1.69126c-0.23979,0.58022 -0.80552,0.95883 -1.43334,0.95923c-0.858,0 -1.553,-0.694 -1.553,-1.55" data-paper-data="{&quot;origPos&quot;:null}" fill="#3a280e" stroke="none" stroke-width="1" stroke-linecap="butt" stroke-linejoin="miter"/><path d="M243.386,157.774c-0.689,1.622 -1.972,2.715 -3.445,2.715c-1.472,0 -2.755,-1.093 -3.444,-2.715" fill="none" stroke="#ef5350" stroke-width="1.016" stroke-linecap="round" stroke-linejoin="round"/><path d="M227.22,154.186c2.73342,-0.00166 4.95079,2.21258 4.953,4.946c0,0.967 -0.283,1.866 -0.763,2.628c-3.197,-1.391 -5.843,-3.548 -7.597,-6.211c0.91797,-0.87581 2.13826,-1.36399 3.407,-1.363M256.07,155.548c-1.755,2.663 -4.401,4.821 -7.597,6.213c-0.481,-0.763 -0.763,-1.662 -0.763,-2.63c0.00203,-1.97826 1.18173,-3.76535 3.00003,-4.54465c1.8183,-0.7793 3.92599,-0.40115 5.35997,0.96165" fill="#ffccbc" stroke="none" stroke-width="1" stroke-linecap="butt" stroke-linejoin="miter"/><path d="M258.403,147.867c0,1.315 -0.432,-3.252 -3.812,-4.855c-2.144,-1.018 -2.996,3.065 -2.996,3.065c0,0 -1.665,-3.743 -3.257,-5.596c-2.285,-2.659 -4.27,-3.253 -4.27,-3.253c0,0 -4.528,7.977 -11.895,5.7c-7.87,-2.434 -10.693,8.405 -10.693,4.939c0,-8.806 5.459,-19.197 18.461,-19.197c13.017,0 18.462,10.391 18.462,19.197" data-paper-data="{&quot;origPos&quot;:null}" fill="#3a280e" stroke="none" stroke-width="1" stroke-linecap="butt" stroke-linejoin="miter"/><path d="M250.78,135.144l-8.84,-2.682l-0.676,-10.314l3.744,5.022l4.916,-5.086l0.817,6.826l6.345,-1.962zM244.659,173.377c-0.00055,0.6528 -0.5302,1.18155 -1.183,1.181c-0.6528,-0.00055 -1.18155,-0.5302 -1.181,-1.183c0.00055,-0.6528 0.5302,-1.18155 1.183,-1.181c0.6528,0.00055 1.18155,0.5302 1.181,1.183M244.659,177.858c-0.00055,0.65308 -0.53042,1.18205 -1.1835,1.1815c-0.65308,-0.00055 -1.18205,-0.53042 -1.1815,-1.1835c0.00055,-0.65308 0.53042,-1.18205 1.1835,-1.1815c0.65308,0.00055 1.18205,0.53042 1.1815,1.1835M244.659,182.34c-0.00055,0.6528 -0.5302,1.18155 -1.183,1.181c-0.6528,-0.00055 -1.18155,-0.5302 -1.181,-1.183c0.00055,-0.6528 0.5302,-1.18155 1.183,-1.181c0.6528,0.00055 1.18155,0.5302 1.181,1.183M244.659,186.821c-0.00028,0.6528 -0.5297,1.18178 -1.1825,1.1815c-0.6528,-0.00028 -1.18178,-0.5297 -1.1815,-1.1825c0.00028,-0.6528 0.5297,-1.18178 1.1825,-1.1815c0.6528,0.00028 1.18178,0.5297 1.1815,1.1825M237.77,173.377c0.01215,0.43031 -0.21061,0.83321 -0.5815,1.05174c-0.37089,0.21853 -0.83126,0.21814 -1.20179,-0.00102c-0.37052,-0.21916 -0.5926,-0.62243 -0.57972,-1.05272c0.01913,-0.63913 0.54305,-1.14718 1.18247,-1.14664c0.63942,0.00054 1.16248,0.50947 1.18053,1.14864M237.77,177.858c-0.00055,0.6528 -0.5302,1.18155 -1.183,1.181c-0.6528,-0.00055 -1.18155,-0.5302 -1.181,-1.183c0.00055,-0.6528 0.5302,-1.18155 1.183,-1.181c0.6528,0.00055 1.18155,0.5302 1.181,1.183M237.77,182.34c0.01215,0.43031 -0.21061,0.83321 -0.5815,1.05174c-0.37089,0.21853 -0.83126,0.21814 -1.20179,-0.00102c-0.37052,-0.21916 -0.5926,-0.62243 -0.57972,-1.05272c0.01913,-0.63913 0.54305,-1.14718 1.18247,-1.14664c0.63942,0.00054 1.16248,0.50947 1.18053,1.14864M237.77,186.821c0.01234,0.43031 -0.21025,0.8333 -0.58105,1.05199c-0.3708,0.21869 -0.83118,0.2185 -1.20179,-0.00051c-0.37062,-0.219 -0.59286,-0.62218 -0.58016,-1.05248c0.01886,-0.63914 0.54257,-1.1474 1.18199,-1.14713c0.63942,0.00027 1.16269,0.50897 1.18101,1.14813" fill="#fdd835" stroke="none" stroke-width="1" stroke-linecap="butt" stroke-linejoin="miter"/></g></g></svg>