<svg version="1.1" xmlns="http://www.w3.org/2000/svg" xmlns:xlink="http://www.w3.org/1999/xlink" width="116.24878" height="115.30647" viewBox="0,0,116.24878,115.30647"><g transform="translate(-182.43304,-122.44964)"><g data-paper-data="{&quot;isPaintingLayer&quot;:true}" fill-rule="evenodd" stroke="none" stroke-width="1" stroke-linecap="butt" stroke-linejoin="miter" stroke-miterlimit="10" stroke-dasharray="" stroke-dashoffset="0" style="mix-blend-mode: normal"><path d="M257.09501,215.35601c1.427,7.532 2.46,15.672 -3.059,21.86c-0.735,0.825 -2.014,0.163 -2.25,-0.731c-1.70032,-6.43152 -3.15141,-12.92638 -4.35,-19.47c-0.067,-0.374 0.01,-0.688 0.168,-0.94c0.013,-0.543 0.334,-1.036 1.054,-1.106l6.823,-0.666c0.723,-0.07 1.466,0.274 1.614,1.053" data-paper-data="{&quot;origPos&quot;:null}" fill="#9e743c"/><path d="M259.164,226.63501c0.004,0.023 0.012,0.041 0.016,0.065c0.511,3.646 -0.645,8.23 -3.918,10.376c-4.648,3.046 -6.18,-4.956 -6.636,-7.896c-0.03534,-0.21517 -0.01853,-0.43567 0.049,-0.643c-0.02945,-0.18195 -0.02471,-0.3678 0.014,-0.548c0,-0.56 0.285,-1.1 0.952,-1.239l8.014,-1.664c0.988,-0.205 1.576,0.726 1.509,1.55" fill="#401f0f"/><path d="M236.15501,214.17401l-7.56,19.252c-0.4,1.02 -1.98,1.382 -2.51,0.231c-3.066,-6.668 -3.446,-14.094 -0.965,-21.012c0.01,-0.03 0.026,-0.052 0.038,-0.08c-0.286,-0.82 0.15,-1.903 1.27,-1.833c3.036,0.19 5.951,0.758 8.828,1.742c0.657,0.225 1.174,1 0.9,1.7" data-paper-data="{&quot;origPos&quot;:null}" fill="#9e743c"/><path d="M230.64301,233.26001c-0.823,1.572 -2.372,2.811 -4.25,2.402c-1.976,-0.431 -2.972,-2.239 -3.531,-4.009c-0.741,-2.349 -1.3,-4.783 -1.266,-7.254c0.005,-0.35 0.118,-0.624 0.295,-0.828c0.197,-0.424 0.585,-0.749 1.095,-0.774c0.17,-0.07 0.367,-0.11 0.597,-0.095c2.922,0.2 5.796,0.647 8.642,1.334c0.718,0.173 1.11,1.031 0.9,1.7c-0.767,2.44 -1.292,5.252 -2.482,7.524" fill="#401f0f"/><path d="M218.08301,210.92801c0.52963,-2.9461 1.72915,-5.73109 3.506,-8.14c0.528,-0.72 1.413,-0.71 2.007,-0.339c0.18343,-0.03661 0.37218,-0.03763 0.556,-0.003c6.20607,1.1558 12.50728,1.72397 18.82,1.697c0.393,-0.112 0.833,-0.006 1.178,0.25c0.01,0 0.016,-0.003 0.024,-0.003l18.193,-0.095c1.025,-0.005 1.452,0.78 1.286,1.551c0.002,0.013 0.007,-0.043 0.008,-0.03c0.418,3.242 0.835,6.45 1.252,9.692c0.094,0.73 -0.69,1.345 -1.357,1.349c-6.296,0.036 -12.593,0.064 -18.89,0.101c-0.585,0.003 -1.173,-0.42 -1.32,-0.995c-0.44038,-1.72703 -0.76676,-3.48115 -0.977,-5.251c-0.8,1.633 -1.6,3.266 -2.398,4.9c-0.365,0.744 -1.086,0.825 -1.662,0.542c-0.19931,0.04658 -0.40627,0.04999 -0.607,0.01l-18.657,-3.57c-0.765,-0.146 -1.087,-0.988 -0.962,-1.666" fill="#984705"/><path d="M233.53901,183.14501l0.001,-0.01c-0.01077,-0.05702 -0.0158,-0.11498 -0.015,-0.173c0.026,-0.578 0.52,-1.238 1.173,-1.169c0.038,0.004 0.072,0.012 0.108,0.017c0.147,-0.067 0.318,-0.106 0.52,-0.099l14.08,0.495c0.695,0.024 1.066,0.534 1.122,1.072c0.168,0.184 0.279,0.434 0.275,0.759c-0.051,4.89 -3.83,9.041 -8.883,8.947c-5.037,-0.094 -8.7,-4.378 -8.542,-9.268c0.00313,-0.20064 0.05827,-0.39704 0.16,-0.57M204.06701,190.73601c1.213,-2.648 4.032,-4.46 6.506,-5.81c5.829,-3.178 12.625,-3.807 19.02,-2.215c0.545,0.136 0.821,0.479 0.895,0.875c0.42,0.419 0.647,1.028 0.567,1.638c0.262,1.115 3.636,5.67 -6.119,5.26c-6.71,-0.282 -12.136,2.956 -17.285,7.168c-0.515,0.421 -1.198,0.358 -1.734,0.03c-2.408,-1.476 -2.993,-4.452 -1.85,-6.946M281.33901,186.65201c-1.723,2.204 -4.758,3.274 -7.368,3.987c-6.149,1.68 -12.634,0.766 -18.248,-2.132c-0.478,-0.247 -0.66,-0.628 -0.64,-1.015c-0.30725,-0.4963 -0.36849,-1.10654 -0.166,-1.654c0.005,-1.098 -1.29,-3.524 -0.36,-4.062c0.096,-0.089 5.497,0.176 7.245,0.503c6.333,1.185 11.988,-0.08 17.733,-2.875c0.574,-0.279 1.198,-0.07 1.625,0.356c1.918,1.91 1.801,4.816 0.179,6.892" data-paper-data="{&quot;origPos&quot;:null}" fill="#9e743c"/><path d="M221.62401,191.20001l-2.415,-8.387c-0.19,-0.653 0.228,-1.548 0.952,-1.67c3.207,-0.546 6.414,-0.776 9.666,-0.644c0.398,0.017 0.704,0.17 0.921,0.395c0.25627,-0.21769 0.60128,-0.29949 0.928,-0.22l3.444,0.867c0.202,0.05 0.361,0.141 0.49,0.254c0.376,0.131 0.674,0.448 0.689,0.97c0.094,3.45 3.459,-0.857 7.047,-0.772c3.712,0.087 5.533,4.303 5.525,0.685c-0.001,-0.464 0.277,-1.034 0.78,-1.15l2.714,-0.624c0.406,-0.266 0.931,-0.308 1.28,-0.033c0.31078,-0.24437 0.70987,-0.34706 1.1,-0.283l6.826,1.02c0.83,-0.127 1.89,0.568 1.72,1.685l-1.243,8.17c-0.07,0.463 0.474,8.32 1.503,11.961c0.202,0.714 -0.249,1.46 -1.024,1.51c-13.678,0.87 -27.394,0.287 -40.951,-1.718c-0.672,-0.1 -0.929,-0.626 -0.872,-1.146c-0.13,-0.213 -0.174,-0.485 -0.07,-0.81c0.97,-3.015 1.111,-9.638 0.99,-10.06" fill="#984705"/><path d="M216.04001,149.25801c0.042,-0.696 0.508,-1.11 1.041,-1.25c0.092,-0.6 0.52,-1.175 1.284,-1.255c16.203,-1.709 32.493,-2.373 48.632,-0.74c0.243,0.024 0.392,2.338 0.567,2.449c0.702,0.144 1.303,0.754 1.04,1.637c-2.139,7.193 0.365,14.843 -1.78,22.027c-1.915,6.421 -7.637,10.522 -13.988,12.028c-6.749,1.6 -14.457,1.146 -21.182,-0.448c-5.841,-1.385 -11.564,-4.377 -14.442,-9.854c-3.983,-7.578 -1.666,-16.52 -1.173,-24.594" data-paper-data="{&quot;origPos&quot;:null}" fill="#9e743c"/><path d="M239.95201,173.05401c1.975,3.709 6.88,4.214 9.317,0.617c0.977,-1.442 3.342,-0.083 2.357,1.371c-3.51,5.179 -11.034,5.01 -14.03,-0.616c-0.823,-1.544 1.532,-2.919 2.356,-1.372" fill="#050000"/><path d="M226.00401,161.97401c1.067,-2.096 3.35,-3.147 5.574,-2.974c0.266,-0.146 0.597,-0.191 0.984,-0.062c2.96,0.991 4.922,4.2 3.935,7.277c-0.972,3.027 -4.732,4.702 -7.65,3.458c-2.85,-1.214 -4.254,-4.928 -2.843,-7.7" fill="#fafcf8"/><path d="M230.10401,160.92201c0.159,-0.134 0.358,-0.241 0.61,-0.3c2.619,-0.612 5.36,1.853 4.361,4.543c-0.945,2.55 -4.386,3.288 -6.107,1.074c-1.326,-1.706 -0.812,-4.558 1.136,-5.317" fill="#401f0f"/><path d="M232.57701,162.83601c2.397,0 2.397,2.717 0,2.717c-1.439,0 -1.439,-2.717 0,-2.717M253.92801,160.68601c2.205,-2.933 6.363,-2.907 9.007,-0.627c0.359,0.31 0.474,0.675 0.433,1.021c1.153,1.582 1.537,3.667 0.65,5.63c-1.455,3.22 -5.399,4.537 -8.458,2.69c-3.06,-1.849 -3.764,-5.878 -1.632,-8.714" fill="#fafcf8"/><path d="M257.63601,160.78501c0.41409,-0.23452 0.87317,-0.37869 1.347,-0.423c0.244,-0.104 0.534,-0.132 0.862,-0.044c0.289,0.077 0.565,0.182 0.828,0.308c0.318,0.135 0.61,0.32 0.871,0.541c1.39,1.087 2.092,2.898 1.288,4.682c-1.02,2.266 -3.921,2.537 -5.701,0.996c-1.85,-1.602 -1.676,-4.826 0.505,-6.06" fill="#401f0f"/><path d="M260.38801,162.655c2.398,0 2.398,2.717 0,2.717c-1.438,0 -1.438,-2.717 0,-2.717" fill="#fafcf8"/><path d="M213.84301,158.09001c3.524,-12.398 5.023,-21.974 28.347,-22.484c20.84,-0.456 27.542,11.743 27.507,23.991c-0.004,1.444 -2.92,1.538 -3.39,1.473c-3.866,-0.53 -9.3,-2.648 -14.689,-8.835c-8.837,8.218 -27.132,10.95 -36.639,7.83c-0.304,-0.1 -0.459,-0.356 -0.553,-0.583c-0.458,-0.25 -0.768,-0.742 -0.583,-1.393" fill="#401f0f"/><path d="M243.34501,168.03425c0.706,0.185 2.883,0.885 3.223,-0.247c0.164,-0.545 -0.57,-1.07 -0.903,-1.403c-1.092,-1.085 -1.942,-2.14 -1.629,-3.765c0.331,-1.715 2.962,-0.989 2.632,0.722c-0.093,0.482 1.346,1.525 1.633,1.865c0.714,0.845 1.2,1.867 0.978,2.997c-0.622,3.151 -4.242,3.083 -6.66,2.45c-1.696,-0.443 -0.977,-3.065 0.726,-2.62" data-paper-data="{&quot;origPos&quot;:null}" fill="#9e6417"/><path d="M281.56001,134.44001c-0.136,-0.36 -0.083,-0.776 0.289,-1.158l10.03,-10.324c0.65,-0.667 1.963,-0.779 2.34,0.284c1.4,3.946 2.8,7.891 4.198,11.836c0.048,0.133 0.068,0.26 0.078,0.385c0.182,0.31 0.25,0.693 0.118,1.12l-10.83,34.817c-0.072,0.23 -0.183,0.404 -0.318,0.536c-0.184,0.725 -0.91,1.352 -1.825,1.02l-5.64,-2.039c-0.20931,-0.07315 -0.39653,-0.19843 -0.544,-0.364c-0.63,-0.123 -1.172,-0.623 -1.06,-1.44c1.56362,-11.26225 2.53994,-22.59825 2.925,-33.962c0.01,-0.298 0.101,-0.53 0.238,-0.71" fill="#c3cddd"/><path d="M289.58001,132.89001c0.376,-1.691 3.089,-1.379 2.71,0.33l-8.684,39.101c-0.376,1.692 -3.089,1.38 -2.71,-0.329l8.685,-39.101" fill="#7b97c2"/><path d="M274.34701,173.68301l1.39,-5.255c0.2,-0.76 1.155,-0.923 1.78,-0.74l11.983,3.508c0.52,0.151 0.778,0.498 0.839,0.888c0.295,0.25 0.482,0.63 0.422,1.132c-0.295,2.493 -1.21,5.2 -4.156,5.333c-0.882,0.04 -1.81,-0.153 -2.724,-0.403l-2.59,7.324c-0.256,0.724 -1.112,0.963 -1.781,0.74l-3.406,-1.142c-0.577,-0.193 -0.887,-0.854 -0.835,-1.421c0.23453,-2.58563 0.93658,-5.10719 2.072,-7.442c-0.7529,-0.24257 -1.50359,-0.49192 -2.252,-0.748c-0.76,-0.262 -0.92,-1.099 -0.742,-1.774" fill="#dd8d00"/><path d="M192.45701,179.05601c6.104,-3.567 13.91,-1.806 17.819,3.662c4.236,3.85 6.805,9.347 6.215,15.26c-0.763,7.646 -6.627,13.935 -14.446,14.536c-8.224,0.632 -14.714,-6.047 -16.874,-13.458c-2.183,-7.492 0.342,-15.942 7.286,-20" fill="#c3cddd"/><path d="M202.90401,204.03001c0.38987,-3.91006 1.94426,-7.61312 4.462,-10.63c-3.7442,-1.31986 -7.18864,-3.37095 -10.133,-6.034c-0.28612,4.06422 -1.36113,8.0338 -3.165,11.687c3.25875,1.02895 6.26782,2.72454 8.836,4.979M190.90901,199.21801c2.436,-4.363 3.655,-9.021 3.678,-14.014c0.002,-0.347 0.114,-0.623 0.288,-0.832c0.109,-1.016 1.405,-1.844 2.293,-0.88c3.56,3.857 7.945,6.547 13.017,7.946c0.98,0.27 1.34,1.553 0.601,2.27c-3.733,3.631 -5.546,8.413 -5.215,13.592c0.09,1.425 -1.708,1.681 -2.435,0.785c-0.013,-0.014 -0.027,-0.022 -0.04,-0.037c-3.087,-3.435 -6.876,-5.721 -11.371,-6.834c-0.873,-0.216 -1.234,-1.248 -0.816,-1.996" fill="#7b97c2"/><path d="M195.74301,210.27301c8.362,3.004 16.975,-2.714 18.896,-10.979c1.98,-8.517 -3.153,-16.44 -10.67,-20.125c-6.985,-2.003 -15.08,1.546 -17.721,8.51c-3.074,8.106 0.967,19.531 9.495,22.594M185.92001,182.69001c4.155,-5.51 11.371,-7.776 17.928,-6.305c0.253,-0.04 0.525,-0.012 0.805,0.113c0.147,0.066 0.288,0.142 0.432,0.21c0.728,0.22 1.445,0.485 2.144,0.8c0.404,0.183 0.616,0.469 0.684,0.782c5.619,3.67 9.602,9.68 9.869,16.53c0.303,7.794 -4.23,15.34 -11.734,17.967c-16.948,5.933 -30.186,-16.765 -20.128,-30.097" fill="#7b97c2"/><path d="M220.13201,200.23101c0.182,-0.397 0.766,-0.71 1.205,-0.673c13.76582,1.15083 27.59015,1.43939 41.392,0.864c0.589,-0.024 0.98,0.253 1.182,0.637c0.096,0.088 0.193,0.184 0.263,0.315c0.597,1.107 1.344,3.725 0.402,5.482c-0.753,1.402 -9.072,0.946 -12.714,0.944c-10.038,-0.006 -21.705,-0.308 -31.97,-0.94c-1.232,-0.076 -0.245,-5.574 0.24,-6.629" fill="#401f0f"/><path d="M239.72301,206.39601c1.164,0.195 2.601,-0.074 3.783,-0.108l2.864,-0.081l0.271,-5.282c-2.25881,-0.08432 -4.52075,-0.01415 -6.77,0.21l-0.053,1.173l2.563,-0.021c1.756,-0.015 1.758,2.702 0,2.717l-2.637,0.022c-0.01,0.283 -0.03,0.559 -0.083,0.795l-0.026,0.567l0.088,0.008M236.93201,205.82101c0.068,-1.97 0.176,-3.94 0.265,-5.909c0.036,-0.804 0.601,-1.262 1.364,-1.358c2.98761,-0.37757 6.00336,-0.48266 9.01,-0.314c0.137,0.007 0.26,0.036 0.376,0.073c0.485,-0.013 0.976,0.19 1.208,0.65l0.136,0.273c0.176,0.35 0.21,0.771 0.095,1.139c0,0.034 0.01,0.063 0.007,0.099l-0.361,7.054c-0.039,0.75 -0.595,1.337 -1.365,1.358l-6.053,0.173c-1.179,0.034 -2.863,0.406 -3.887,-0.387c-0.913,-0.708 -0.832,-1.82 -0.795,-2.851" fill="#dd8d00"/><path d="M236.89601,124.63401c14.833,-1.593 31.998,7.208 33.726,21.87c0.5,4.237 -3.137,1.178 -3.797,1.12c-17.93414,-1.60118 -36.00918,0.22255 -53.262,5.374c-0.914,0.274 -1.826,-0.473 -1.836,-1.392c-0.161,-14.947 10.16,-25.36 25.17,-26.972" fill="#c3cddd"/><path d="M244.61601,133.59101c0.283,-0.201 0.654,-0.29 1.092,-0.174c8.42014,2.24082 16.59796,5.30909 24.414,9.16c0.518,0.254 0.712,0.68 0.689,1.107c0.006,0.041 0.018,0.08 0.022,0.124l0.734,9.443c0.056,0.733 -0.672,1.357 -1.365,1.358c-19.18895,0.0285 -38.33575,1.79775 -57.205,5.286c-0.884,0.164 -1.697,-0.372 -1.727,-1.31l-0.272,-8.245c-0.033,-1.002 22.036,-13.685 33.618,-16.749" fill="#7b97c2"/><path d="M267.25501,144.08501c0.814,0 1.271,0.627 1.365,1.358l0.552,4.347c0.092,0.729 -0.694,1.358 -1.365,1.358c-0.814,0 -1.271,-0.627 -1.364,-1.358l-0.553,-4.347c-0.092,-0.729 0.694,-1.358 1.365,-1.358M263.075,143.55001l0.576,6.247c0.16,1.74 -2.57,1.73 -2.729,0l-0.576,-6.246c-0.16,-1.74 2.57,-1.73 2.729,0M255.76801,140.55601l1.14,8.688c0.228,1.728 -2.504,1.712 -2.729,0l-1.14,-8.688c-0.227,-1.728 2.504,-1.712 2.729,0M249.73201,138.38401c0.008,3.524 0.27,7.02 0.828,10.5c0.273,1.711 -2.356,2.447 -2.633,0.722c-0.60144,-3.71069 -0.91039,-7.46291 -0.924,-11.222c-0.003,-1.748 2.725,-1.75 2.73,0M242.60201,139.47201l0.222,10.869c0.036,1.749 -2.693,1.749 -2.73,0l-0.221,-10.869c-0.036,-1.749 2.693,-1.748 2.729,0M235.45401,142.66601v9.547c0,1.432 -2.877,1.432 -2.877,0v-9.547c0,-1.91 2.877,-1.91 2.877,0M226.17101,146.26001c0.06,-1.744 2.79,-1.752 2.73,0l-0.216,6.25c-0.06,1.744 -2.788,1.752 -2.728,0zM222.50701,148.39401v6.206c0,1.432 -2.397,1.432 -2.397,0v-6.206c0,-1.909 2.397,-1.909 2.397,0M215.15201,150.334c0.79,0 1.302,0.624 1.365,1.358l0.256,2.99c0.062,0.732 -0.672,1.358 -1.365,1.358c-0.79,0 -1.302,-0.624 -1.365,-1.358l-0.255,-2.99c-0.063,-0.732 0.672,-1.358 1.364,-1.358" fill="#c3cddd"/></g></g></svg>