<svg xmlns="http://www.w3.org/2000/svg" width="59.366" height="118.948"><g fill-rule="evenodd" stroke-miterlimit="10" data-paper-data="{&quot;isPaintingLayer&quot;:true}" style="mix-blend-mode:normal"><path fill="#ffdc83" d="M57.584 47.184c1.749.742 2.306 3.382 1.242 5.898-.685 1.615-1.868 2.784-3.094 3.219v.003s-3.264 9.264-6.108 10.293c-2.3.838-10.41-2.46-10.41-2.46s-.658-2.521-1-3.316c-.463-1.094-2.35-4.086-2.35-4.086l11.102 3.974 5.234-6.144a4.267 4.267 0 0 1-.197-.79 7.76 7.76 0 0 1-.775-2.23c-.435-2.232.049-4.203 1.078-4.402.553-.108 1.149.313 1.649 1.068 1.112-1.067 2.486-1.51 3.629-1.027" data-paper-data="{&quot;origPos&quot;:null}"/><path fill="#333433" d="M17.414 113.282c-1.714 1.056-2.96 3.293-1.491 5.054 1.108 1.24 2.743.295 3.982-.226 1.372-.654 2.944-1.092 4.182-1.942.803-.56 1.745-1.23 2.286-2.066.168-.261.246-.57.185-.82zm19.537 0c1.716 1.056 2.962 3.293 1.494 5.054-1.11 1.24-2.745.295-3.987-.226-1.371-.654-2.936-1.092-4.18-1.942-.802-.56-1.74-1.23-2.284-2.066-.169-.261-.246-.57-.185-.82z"/><path fill="#0b4768" d="m39.011 88.383-1.866 24.96H27.68l-.362-18.052h-.273l-.36 18.052h-9.467l-1.868-24.96z"/><path fill="#ffdc83" d="M10.45 62.115c1.699-2.171 7.83-5.378 7.83-5.378s-2.849 5.184-3.367 7.485c-.067.293-.228 1.075-.377 1.485-.19.508-.707 1.153-1.52 2.3-1.62 2.29-3.134 11.975-3.134 11.975.036.066.07.133.102.202.463.46.852.99 1.152 1.57.875 1.656.963 3.329.2 3.734-.409.214-.982.027-1.563-.45-.617 1.11-1.593 1.79-2.613 1.685-1.562-.167-2.634-2.118-2.394-4.361.096-.942.413-1.788.865-2.438-.007.044-.007.06-.007.06s1.338-13.41 4.826-17.87" data-paper-data="{&quot;origPos&quot;:null}"/><path fill="#0771b7" d="m10.287 79.545-4.73.006s1.523-13.412 5.015-17.87c1.54-1.97 6.012-4.487 6.819-4.932 1.993-1.288 7.995-1.483 7.995-1.483l1.67.05h.14l1.67-.05s6.022.213 8.007 1.507l10.061 3.934 5.278-6.125 4.545 2.232s-4.197 8.81-7.04 9.838c-2.204.8-8.816-1.815-9.379-2.065 2.23 9.62 1.927 23.805 1.927 23.805l-30.28-.004s-.193-11.347 1.386-20.723c-.071.109-.154.223-.235.343-1.623 2.29-2.849 11.537-2.849 11.537"/><path fill="#f6b90c" d="M32.43 62.795c1.253.724 2.192 0 2.192 0s1.072.738 2.19 0c0 6.492-2.19 5.658-2.19 5.658s-2.192.878-2.192-5.658"/><path fill="#333433" d="M11.985 88.388s-.02-1.1.002-2.897h30.289c.01 1.798-.01 2.9-.01 2.9l-30.28-.003"/><path fill="#f7b90b" d="M29.874 88.784c-.936.935-4.268.834-5.297 0-.699-.563-.63-2.935 0-3.564.939-.937 4.467-1.03 5.297 0 .561.69.632 2.933 0 3.564"/><path fill="#333433" d="M28.938 88.142c-.612.608-2.768.54-3.441 0-.449-.362-.408-1.904 0-2.31.612-.605 2.898-.668 3.441 0 .364.45.406 1.903 0 2.31"/><path fill="#d69d0b" d="M29.703 87.015a.151.151 0 0 1-.154.153h-1.058a.155.155 0 0 1-.158-.153c0-.087.071-.158.158-.158h1.058c.087 0 .154.07.154.158"/><path fill="#ffdc83" d="M23.485 55.36c1.081-.112 1.87-.14 1.87-.14l1.677.06h.138l1.673-.09s.873.038 2.03.176l-3.76 3.883zm25.059-19.664c1.118.714 1.85 1.932 1.85 3.319 0 2.2-1.857 3.988-4.152 3.988-.063 0-.126-.002-.193-.008-3.707 6.652-10.822 11.152-18.98 11.152-8.167 0-15.282-4.507-18.99-11.172a3.904 3.904 0 0 1-.46.028c-2.29 0-4.148-1.787-4.148-3.988 0-1.487.845-2.784 2.102-3.466a21.996 21.996 0 0 1-.222-3.118c0-11.994 9.722-21.718 21.718-21.718 11.997 0 21.721 9.724 21.721 21.718a21.3 21.3 0 0 1-.246 3.266" data-paper-data="{&quot;origPos&quot;:null}"/><path fill="#343434" d="M20.625 31.823c-.772-.174-.908-1.201-3.386-.74-.779.18-2.417 1.156-2.732 1.808-.316.652-.088-2.392 2.457-3.522 1.835-.675 2.457-.642 3.977-.642s1.987.907 1.766 1.65c0 0-.503 1.803-2.082 1.446zm13.905 0c.772-.174.908-1.201 3.386-.74.779.18 2.417 1.156 2.732 1.808.316.652.087-2.392-2.457-3.522-1.835-.675-2.457-.642-3.977-.642s-1.987.907-1.766 1.65c0 0 .503 1.803 2.082 1.446zm-14.134 5.904c0 1.657-.895 3-2 3s-2-1.343-2-3 .895-3 2-3 2 1.343 2 3m18 0c0 1.657-.895 3-2 3s-2-1.343-2-3 .895-3 2-3 2 1.343 2 3"/><path fill="#eeac6c" d="M27.416 40.796c-1.125.153-3.02 1.834-3.02 1.834s.207-1.01.503-1.3c.8-1.155 2.487-1.603 2.487-1.603s2.173.703 2.65 1.588c.443.824.34 1.238.34 1.238s-2.121-1.871-2.96-1.756zM20.596 44.423s6.897 3.208 13.172-.397c0 0-1.39 5.47-5.95 5.56-4.115.123-4.984-1.491-5.477-1.955-.492-.463-1.42-1.772-1.745-3.208"/><path fill="#ad6921" d="M14.123 34.247c1.77-1.097 4.38-1.785 4.38-1.785.309-.577.033-1.558-.378-1.615-1.303-.187-4.002 3.4-4.002 3.4m25.144 0c-1.775-1.097-4.386-1.785-4.386-1.785-.307-.577-.028-1.558.378-1.615 1.302-.187 4.008 3.4 4.008 3.4"/><path fill="#814f19" d="M49.651 29.6c.035 2.55-.858 8.068-2.595 11.355 0 0-4.272-12.082-7.788-13.998-4.304-2.337-15.644 1.035-19.487-2-.639-.503-.565-1.644-.565-1.644s-.738 1.452-1.09 1.862c-1.867 2.116-6.692 5.185-8.986 6.83-1.844 1.326-1.929 1.312-1.52 8.95 0 0-3.388-6.952-3.2-11.592.054-1.34.701-4.304 1.76-7.324 3.821-7.666 11.742-12.935 20.894-12.935 10.512 0 19.402 6.95 22.32 16.507.15 1.325.235 2.656.257 3.99" data-paper-data="{&quot;origPos&quot;:null}"/><path fill="#ffdc83" d="M25.377 56.638c-1.017 0-1.837-2.177-1.837-3.177h7.221c0 1-.822 3.177-1.836 3.177h-3.548" data-paper-data="{&quot;origPos&quot;:null}"/><path fill="#eeac6c" d="M24.382 55.945c-.411-.62-.758-1.462-.826-2.083 2.383.389 4.814.38 7.194-.026l-.014.014-6.354 2.095"/><path fill="#0b4768" d="m40.387 59.368-7.086-2.561c-.663-.24-1.149-.854-.993-1.265v-.002c.145-.41.87-.462 1.533-.224l7.085 2.563-.539 1.49z"/><path fill="#f6b90c" d="m40.417 59.297-.05.144-7.092-2.565c-.708-.257-1.204-.903-1.041-1.357.101-.27.399-.42.839-.42.27.004.538.054.792.148l7.09 2.56-.053.139-7.086-2.56a2.234 2.234 0 0 0-.743-.14c-.37 0-.626.119-.699.32-.132.37.336.948.95 1.17l7.092 2.56z"/><path fill="#f6b90c" d="M33.902 56.035a.322.322 0 0 1-.327.325.32.32 0 0 1-.323-.325.325.325 0 1 1 .65 0m6.341 2.434c-.06.17-.49.175-.956.006-.465-.163-.79-.44-.726-.612.06-.173.486-.173.952-.008.46.168.791.44.73.614"/><path fill="#0b4768" d="m14.344 59.369-.542-1.49 7.086-2.563c.665-.238 1.387-.186 1.537.224v.002c.148.41-.332 1.025-.996 1.265l-7.085 2.56z"/><path fill="#f6b90c" d="m14.315 59.297 7.09-2.561c.613-.222 1.082-.8.948-1.17-.069-.201-.323-.32-.695-.32-.234 0-.498.05-.744.14l-7.085 2.56-.054-.138 7.09-2.561c.266-.095.541-.148.793-.148.437 0 .738.15.837.42.165.454-.335 1.1-1.037 1.357l-7.096 2.565z"/><path fill="#f6b90c" d="M20.827 56.035a.33.33 0 0 1 .323-.326.327.327 0 0 1 .231.556.327.327 0 0 1-.554-.23m-6.339 2.434c-.059-.173.265-.446.732-.614.464-.165.887-.165.952.008.059.173-.268.449-.73.612-.468.169-.895.164-.954-.006"/><path fill="#0b4768" d="M29.742 78.043c.025 1.528-2.562 2.558-2.562 2.558s-2.568-1.057-2.566-2.552c.006-1.428 1.393-15.781 1.393-15.781-.488-.32-.896-2.15-.896-2.15l1.068-.848 1.83-.057 1.15.948s-.492 1.743-.935 2.107c0 0 1.496 14.345 1.518 15.775"/><path fill="#0771b7" d="M27.165 59.24s-2.01.838-1.803 1.69c.215.857-3.87-4.986-3.744-5.306.123-.32 1.345-1.415 1.345-1.415l4.202 5.03z"/><path fill="#094767" d="M22.96 54.252c-.173.156-1.206 1.1-1.314 1.383-.036.085.346.777 1.267 2.137 1.106 1.644 2.241 3.153 2.43 3.21 0-.008-.004-.022-.008-.045-.2-.81 1.488-1.584 1.777-1.71zm2.393 6.793c-.266 0-2.12-2.69-2.2-2.805-.388-.565-1.641-2.422-1.564-2.63.12-.321 1.306-1.38 1.351-1.427l.028-.021 4.246 5.09-.041.019c-.016.006-1.98.836-1.779 1.654.014.05.01.085-.004.102a.045.045 0 0 1-.037.018z"/><path fill="#0771b7" d="m27.094 59.239 4.197-5.03s1.228 1.096 1.348 1.415c.121.32-3.956 6.163-3.749 5.307.214-.853-1.796-1.691-1.796-1.691z"/><path fill="#094767" d="M27.142 59.227c.29.125 1.98.9 1.78 1.71-.006.024-.01.038-.01.046.185-.06 1.325-1.564 2.433-3.203.919-1.365 1.296-2.06 1.265-2.144-.106-.285-1.145-1.228-1.318-1.383l-4.15 4.975zm1.763 1.819s-.03-.004-.038-.018c-.015-.02-.02-.053-.006-.104.203-.82-1.76-1.65-1.78-1.655l-.044-.016 4.25-5.09.024.02c.051.048 1.234 1.107 1.358 1.427.08.209-1.185 2.076-1.576 2.644-.077.11-1.925 2.792-2.188 2.792z"/><path fill="#0b4768" d="M4.983 28.035s7.834-7.01 21.95-7.01c11.618 0 22.383 7.01 22.383 7.01-4.299 10.47-40.372 10.353-44.333 0"/><path fill="#0771b7" d="M4.982 28.035 0 20.689s5.315-3.56 7.16-10.646C17.009 8.303 21.622-.173 26.932.003c5.412.182 8.93 8.544 20.207 10.04 1.516 6.218 7.16 10.646 7.16 10.646l-4.983 7.346c-17.239-7.471-23.097-12.553-44.333 0z"/><path fill="#333433" d="M4.92 21.106c29.028-10.36 44.398.568 44.398.568v6.382c-24.97-11.162-44.39 0-44.39 0z"/><path fill="#f6b90c" d="M6.119 28.035c0 1.106-.502 2-1.118 2-.616 0-1.117-.894-1.117-2 0-1.106.501-2.005 1.117-2.005s1.118.9 1.118 2.005m44.332 0c0 1.106-.504 2-1.118 2-.62 0-1.12-.894-1.12-2 0-1.106.5-2.005 1.12-2.005.614 0 1.118.9 1.118 2.005M22.806 4.22c2.43 1.397 4.239 0 4.239 0s2.076 1.424 4.24 0c0 12.557-4.24 10.936-4.24 10.936s-4.239 1.705-4.239-10.936"/></g></svg>