<svg xmlns="http://www.w3.org/2000/svg" width="104.523" height="119.374"><g fill-rule="evenodd" stroke-miterlimit="10" data-paper-data="{&quot;isPaintingLayer&quot;:true}" style="mix-blend-mode:normal"><path fill="#e9c9a1" d="M31.334 51.957C41.365 49.889 43.5 59.389 43.5 59.389c-5.843 9.544-21.555 9.636-21.555 9.636-6.627.214-15.253-2.496-15.253-2.496l2.08-5.733s10.275 1.528 13.803-1.472c6.691-5.697 8.76-7.367 8.76-7.367" data-paper-data="{&quot;origPos&quot;:null}"/><path fill="#fab596" d="M23.942 68.911c5.138-.978 12.127-3.234 16.472-8.44a4.365 4.365 0 0 0 .581-4.712 13.418 13.418 0 0 0-1.508-2.434c3.157 2.274 4.01 6.065 4.01 6.065-4.559 7.451-15.135 9.141-19.555 9.522"/><path fill="#e9c9a1" d="M7.646 60.454a1.504 1.504 0 0 1-2 .72 1.508 1.508 0 0 1-.717-2l.54-1.147a1.504 1.504 0 0 1 2-.72 1.507 1.507 0 0 1 .72 2.001l-.543 1.147" data-paper-data="{&quot;origPos&quot;:null}"/><path fill="#e9c9a1" d="M5.58 67.865a5.156 5.156 0 0 0 4.707-5.567 5.154 5.154 0 0 0-10.272.858 5.155 5.155 0 0 0 5.565 4.709m62.695-16.954s2.66.017 11.44.3c4.628.146 11.7-6.974 11.7-6.974l5.39 2.86S91.566 54.44 86.25 58.403c0 0-12.347 9.727-22.86 5.906 0 0-4.25-8.763 4.884-13.398" data-paper-data="{&quot;origPos&quot;:null}"/><path fill="#fab596" d="M67.358 63.142c6.37 1.155 12.882-1.295 17.29-3.6h-.002c-.037.027-.08.054-.12.08l-.347.228c-.018.01-.038.025-.056.035-3.982 2.559-12.868 7.28-20.733 4.424 0 0-2.13-4.407-.117-8.624a12.016 12.016 0 0 0 .16 3.527c.372 1.992 1.932 3.57 3.924 3.93"/><path fill="#e9c9a1" d="m92.97 41.705-.928-.864a1.511 1.511 0 0 1-.077-2.126 1.51 1.51 0 0 1 2.125-.076l.928.867a1.503 1.503 0 0 1-2.047 2.2" data-paper-data="{&quot;origPos&quot;:null}"/><path fill="#668085" d="M93.256 58.198a2.517 2.517 0 0 0 .75-4.977 2.517 2.517 0 1 0-.75 4.977m1.054-6.99a4.553 4.553 0 0 1 2.022 8.16 4.546 4.546 0 0 1-6.36-.959 4.55 4.55 0 0 1 4.34-7.201"/><path fill="#546a6e" d="M93.256 58.198a2.517 2.517 0 0 0 .75-4.977 2.517 2.517 0 1 0-.75 4.977m.9-5.97a3.52 3.52 0 1 1-1.05 6.961 3.52 3.52 0 0 1 1.05-6.961"/><path fill="#788d91" d="M94.023 53.108a1.934 1.934 0 0 1-1.62-2.197l3.27-21.688a1.93 1.93 0 0 1 2.194-1.618 1.933 1.933 0 0 1 1.621 2.193l-3.27 21.688a1.935 1.935 0 0 1-2.195 1.622"/><path fill="#668085" d="M97.867 27.604a1.933 1.933 0 0 1 1.62 2.194l-3.27 21.688a1.934 1.934 0 0 1-2.193 1.621 1.907 1.907 0 0 1-.87-.375 1.927 1.927 0 0 0 1.255-1.518l3.27-21.688a1.93 1.93 0 0 0-.752-1.822c.3-.113.624-.147.94-.1"/><path fill="#cceff7" d="M104.45 28.82a6.689 6.689 0 1 1-13.229-1.996 6.689 6.689 0 0 1 13.228 1.995"/><path fill="#a5cfd9" d="M103.913 25.034a6.689 6.689 0 0 1-7.075 9.405c-3.304-.498-5.669-3.335-5.684-6.577a6.675 6.675 0 0 0 5.08 3.83 6.688 6.688 0 0 0 7.611-5.619c.053-.349.07-.695.068-1.039"/><path fill="#fff" d="M99.195 26.176a2.933 2.933 0 0 1-3.335 2.462 2.933 2.933 0 0 1 .875-5.798c1.6.243 2.701 1.736 2.46 3.336"/><path fill="#e9c9a1" d="M97.641 47.815a5.155 5.155 0 0 1-3.02-9.857 5.154 5.154 0 0 1 6.063 7.347 5.151 5.151 0 0 1-3.043 2.51M72.195 75.24c0 16.346-9.975 17.758-22.282 17.758-12.304 0-22.28-1.412-22.28-17.758 0-16.347 9.976-42.553 22.28-42.553 12.307 0 22.282 26.206 22.282 42.553" data-paper-data="{&quot;origPos&quot;:null}"/><path fill="#d6a28c" d="m50.487 71.165.011.183c-.008.1.024.257.024.417 0 .158.023.338.008.507.036.177-.025.349.015.522-.005.171-.02.344-.004.513.007.169-.03.349-.01.502 0 .316-.044.607-.044.607s-.24-.09-.539-.35c-.16-.121-.259-.32-.358-.541-.036-.113-.119-.225-.119-.353l-.033-.385c-.004-.524.231-1.01.503-1.274.272-.275.546-.348.546-.348"/><path fill="#cceff7" d="M49.913 73.591c8.54 0 16.302-.324 22.096-2.425.123 1.408.187 2.771.187 4.074 0 16.345-9.977 17.757-22.283 17.757-12.304 0-22.282-1.412-22.282-17.757.005-1.36.067-2.72.187-4.074 5.795 2.101 13.558 2.424 22.095 2.424"/><path fill="#add8e3" d="M27.632 75.24c.005-1.36.067-2.72.187-4.075 3.134 1.137 6.845 1.75 10.941 2.076.626.562.796 1.326.296 2.442-.98 2.195-7.414 1.146-11.406 0l-.01-.04c0-.14-.008-.263-.008-.403m44.563 0c0 .152-.007.294-.01.446-4.092 1.146-10.689 2.192-11.695-.003-.504-1.101-.34-1.856.28-2.416 4.213-.322 8.028-.938 11.238-2.102.123 1.409.187 2.771.187 4.075"/><path fill="#cea97d" d="M25.3 38.38a6.438 6.438 0 1 1-12.645 2.42A6.438 6.438 0 1 1 25.3 38.38" data-paper-data="{&quot;origPos&quot;:null}"/><path fill="#cf967e" d="M22.822 38.854a3.915 3.915 0 1 1-7.69 1.469 3.915 3.915 0 0 1 7.69-1.469"/><path fill="#cea97d" d="M88.32 26.32a6.439 6.439 0 1 1-12.648 2.418A6.439 6.439 0 0 1 88.32 26.32" data-paper-data="{&quot;origPos&quot;:null}"/><path fill="#cf967e" d="M85.843 26.795a3.916 3.916 0 1 1-7.67 1.58 3.916 3.916 0 0 1 7.67-1.58"/><path fill="#d66c00" d="M32.953 14.392s1.83-5.233 9.745-7.732C50.613 4.164 49.913 0 49.913 0s9.75 2.28 10.28 9.348c.527 7.066-27.24 5.044-27.24 5.044"/><path fill="#ba5e00" d="M45.9 7.86c4.834-.924 9.57-.967 13.948-.27.184.57.3 1.16.345 1.757.527 7.067-27.239 5.046-27.239 5.046s.408-1.14 1.631-2.607C37.98 10.004 41.788 8.647 45.9 7.86"/><path fill="#e9c9a1" d="M81.996 27.53c2.533 13.254-9.519 26.695-26.922 30.026-17.4 3.33-33.562-4.715-36.097-17.965-2.533-13.253 9.52-26.695 26.922-30.025 17.404-3.331 33.565 4.712 36.097 17.965" data-paper-data="{&quot;origPos&quot;:null}"/><path fill="#e3ac94" d="M55.074 57.555c5.982-1.144 11.332-3.483 15.674-6.598.914.019 2.11.05 3.66.093-4.717 4.118-11.003 7.238-18.214 8.618-10.679 2.044-20.884-.2-27.764-5.298.335-.284.628-.526.9-.752 6.78 4.12 16.07 5.79 25.744 3.937"/><path fill="#ffd1bd" d="M58.626 48.336c.272 1.424-1.66 2.994-4.319 3.505-2.657.509-5.034-.235-5.306-1.666-.273-1.425 1.66-2.995 4.32-3.504 2.657-.508 5.034.237 5.305 1.665m-6.654-36.68c.581 1.63-3.953 4.737-10.128 6.942-6.173 2.202-11.649 2.668-12.229 1.038-.58-1.627 3.953-4.735 10.126-6.94 6.175-2.201 11.65-2.667 12.23-1.04"/><path fill="none" stroke="#a37c6b" stroke-linecap="round" stroke-linejoin="round" stroke-width="1.108" d="M27.59 28.594c2.38-5.287 10.833-6.508 14.192-1.534m28.155-6.568c-4.036-3.917-11.933-2.19-13.622 3.297"/><path fill="#bf4545" d="M36.252 43.068c-4.697-4.718.297-8.811 4.82-7.612 4.52 1.199 7.95 1.453 9.98 1.063 2.032-.388 5.126-1.889 8.886-4.674 3.761-2.783 9.913-.824 7.286 5.296-2.628 6.118-14.465 8.3-14.465 8.3s-11.808 2.341-16.507-2.373"/><path fill="#e3ac94" d="M49.465 28.218c4.325-.83 3.73 1.91 3.73 1.91s-.197-1.696-3.565-1.052c-3.367.646-2.925 2.298-2.925 2.298s-1.563-2.327 2.76-3.157"/><path fill="#e3ac94" d="M47.851 30.469c.204-.257.5-.36.667-.229.165.13.134.443-.068.7-.203.256-.5.36-.666.229-.164-.128-.135-.44.067-.7m3.946-.755c.282.166.426.443.32.626-.106.183-.42.197-.702.034-.283-.165-.427-.445-.32-.628.104-.182.42-.196.702-.032"/><path fill="#ffa6a6" d="M25.027 34.622c2.518-.483 4.872.775 5.26 2.805.39 2.03-1.337 4.066-3.855 4.548-2.517.479-4.87-.777-5.26-2.804-.389-2.03 1.337-4.066 3.854-4.549m49.516-9.476c2.517-.483 4.873.775 5.261 2.805.39 2.03-1.338 4.066-3.855 4.548-2.518.482-4.873-.774-5.262-2.804-.388-2.03 1.338-4.066 3.856-4.549"/><path fill="#e9c9a1" d="M27.911 79.186s6.683-.103 15.066 13.55c0 0-.092 1.393-4.942 10.402 0 0-2.058 6.623-6.245 11.807 0 0-.747 4.311-4.123 2.755-3.943-1.823-7.69-2.041-8.286-4.165-.594-2.122 1.691-1.242 1.691-1.242s-2.11-.385-1.245-1.09c.863-.707 3.61.234 3.61.234s-2.006-6.56.033-13.643c0 0 .513-11.454 4.44-18.608" data-paper-data="{&quot;origPos&quot;:null}"/><path fill="#fab596" d="M40.194 88.602a58.43 58.43 0 0 1 2.782 4.134s-.02.306-.54 1.559c-.069.169-.148.351-.238.554-.425.965-.873 1.92-1.344 2.863a175.746 175.746 0 0 1-2.819 5.426s-.223.695-.647 1.805l-.108.272c.045-.13.316-.867.06-.275a53.249 53.249 0 0 1-1.145 2.471c-.015.034-.032.063-.047.096-.168.338-.342.678-.522 1.018-.096.184-.624 1.487-.724 1.67a38.747 38.747 0 0 1-1.277 2.17 28.137 28.137 0 0 1-1.833 2.58v.002c0 .006-.006.017-.01.046a2.941 2.941 0 0 1-.03.132l-.002.005a6.16 6.16 0 0 1-.236.768 4.918 4.918 0 0 1-.52 1.008c-.05.074-.103.145-.162.212-.013.017-.026.037-.04.054a2.698 2.698 0 0 1-.39.38l-.055.044c-.26.206-.568.343-.895.4-.025.006-.049.009-.074.014a2.255 2.255 0 0 1-.652.002c-.027-.002-.058-.007-.087-.01a2.802 2.802 0 0 1-.369-.078 4.222 4.222 0 0 1-.602-.226 16.887 16.887 0 0 0-.714-.314l-.205-.083-.008-.005c-.168-.068-.334-.133-.5-.198a39.805 39.805 0 0 0-1.728-.614l-.28-.095-.282-.09c-.483-.161-.943-.31-1.374-.46l-.046-.017a13.245 13.245 0 0 1-1.48-.605c-.017-.009-.032-.017-.05-.024a4.711 4.711 0 0 1-.806-.508l-.049-.04a2.713 2.713 0 0 1-.2-.183l-.044-.046a2.192 2.192 0 0 1-.328-.434c1.301.431 2.808.896 4.345 1.606 3.375 1.558 4.121-2.75 4.121-2.75 4.187-5.187 6.247-11.809 6.247-11.809 2.05-3.107 4.558-8.447 5.907-12.427"/><path fill="#e9c9a1" d="M71.167 83.241c1.095 8.086-3.143 18.96-3.143 18.96-.64 7.345-4.27 12.744-4.27 12.744s2.901.108 3.453 1.078c.554.97-1.554.569-1.554.569s2.451 0 1.132 1.77c-1.318 1.767-4.893.621-9.228.902-3.71.24-2.859-4.05-2.859-4.05-2.042-6.347-1.585-13.264-1.585-13.264-1.288-10.151-.308-8.985-.308-8.985 12.73-9.724 18.362-9.724 18.362-9.724" data-paper-data="{&quot;origPos&quot;:null}"/><path fill="#fab596" d="M53.113 101.95c-1.289-10.151-.308-8.984-.308-8.984a96.575 96.575 0 0 1 4.57-3.296c-.687 3.723-1.035 6.97-.005 11.66 0 0-.458 6.919 1.584 13.263 0 0-.85 4.293 2.86 4.053 1.688-.112 3.26-.006 4.631.062-1.2.984-3.536.605-6.425.524-.052 0-.1-.003-.152-.003-.18-.006-.36-.009-.54-.009-.076-.002-.15-.002-.225-.002-.177 0-.357.002-.538.005l-.23.006c-.259.006-.518.017-.777.035-.214.014-.429.012-.643-.006-.594-.054-1.04-.247-1.37-.526a2.154 2.154 0 0 1-.295-.301 2.8 2.8 0 0 1-.514-1.103 4.837 4.837 0 0 1-.12-1.127c0-.455.052-.815.074-.94l.01-.047a28.162 28.162 0 0 1-.788-3.068c-.163-.825-.3-1.656-.41-2.49-.027-.203-.053-1.607-.075-1.81-.046-.38-.087-.76-.122-1.14l-.01-.107a50.819 50.819 0 0 1-.18-2.716c-.033-.851-.045.787-.045.143-.003-.692.011-1.384.043-2.076"/><path fill="#cceff7" d="M27.632 75.24s-.674-2.702.28-5.045c0 0 2.99.893 5.724 1.387 3.32.603 5.7 1.221 4.597 3.658-.912 2.016-6.893 1.052-10.6 0"/><path fill="#788d91" d="M37.441 74.417a1.196 1.196 0 1 1-2.392.001 1.196 1.196 0 0 1 2.392-.002"/><path fill="#cceff7" d="M72.213 75.24c-3.709 1.052-9.688 2.016-10.6 0-1.1-2.437 1.275-3.055 4.597-3.658 2.735-.494 5.724-1.387 5.724-1.387.954 2.343.28 5.045.28 5.045"/><path fill="#788d91" d="M62.403 74.417c0-.663.537-1.196 1.197-1.196a1.197 1.197 0 1 1-1.197 1.196"/></g></svg>