<svg xmlns="http://www.w3.org/2000/svg" width="75.919" height="116.486"><g fill-rule="evenodd" stroke-miterlimit="10" data-paper-data="{&quot;isPaintingLayer&quot;:true}" style="mix-blend-mode:normal"><path d="M0 48.002c8.231 12.834 19.219 2.126 15.48-9.221-2.714-8.234 12.01 2.678 12.01 2.678s-8.62 23.876-16.099 24.235C3.911 66.048-.025 54.366.001 48.002" data-paper-data="{&quot;origPos&quot;:null}"/><path fill="#7a5c4e" d="M60.697 40.041c1.86.789 2.449 3.608 1.318 6.293-.726 1.72-1.984 2.966-3.284 3.43h.002s-3.463 9.884-6.48 10.98c-2.445.893-11.048-2.621-11.048-2.621s-2.62-2.732-2.98-3.58c-.495-1.166-.755-4.38-.755-4.38l11.96 4.304 5.554-6.557h.002a4.52 4.52 0 0 1-.209-.843c-.355-.65-.649-1.47-.825-2.377-.463-2.379.052-4.482 1.147-4.694.585-.116 1.219.334 1.751 1.141 1.178-1.141 2.635-1.613 3.847-1.097" data-paper-data="{&quot;origPos&quot;:null}"/><path fill="#f6b90c" d="M53.554 37.109c0-6.207 5.007-11.238 11.182-11.238 6.179 0 11.183 5.031 11.183 11.238 0 6.205-5.004 11.236-11.183 11.236-6.175 0-11.182-5.031-11.182-11.235"/><path fill="#0771b7" d="M64.736 48.346a11.082 11.082 0 0 1-6.717-2.255l-.237-.288-.297-.362-.32-.423.36-.011h.703l.335.039.368.013.388.026.453.03.433.047.415.058.292.043.173.143.316.198.435.255.43.253.414.23.468.272.568.294.646.343.656.32.634.296.5.214.333.13h.002c-.572.087-1.157.135-1.751.135m0-22.475a11.08 11.08 0 0 1 4.93 1.15l-.478.096-.542.127-.487.129-.779.232-.82.297-.812.34-.801.358-.61.343-.758.404-.995.635-.448.304-.645.528-4.309.009.25-.309.371-.468.404-.452.423-.44.51-.53.572-.56.735-.657.858-.71.617-.466a11.21 11.21 0 0 1 2.814-.36m8.931 17.964c-.923 1.282-2.17 2.356-3.577 3.132l.015-.004V30.05l.677-.051.846-.034.655-.022.722.027.361.01h.013c.098.12.194.24.288.364v13.491"/><path fill="#0771b7" d="M56.809 45.008a11.313 11.313 0 0 1-2.654-4.243H67.07l-.051.768-.062.697-.154.982-.168 1.11-.178 1.062-.224 1.068-1.061-.326-1.038-.277-1.12-.244-1.649-.284-.86-.13-1.318-.125-1.242-.056-1.136-.002m-3.132-9.547-.002-.003c.244-1.666.86-3.256 1.802-4.651l.005-.002h10.79l.156.526.145.6.166.796.18 1.004.058.429.072.65.052.65H53.677z"/><path fill="#727371" d="M56.775 45c.25-.009.502-.013.758-.013 4.33 0 8.255 1.283 8.665 1.425.07-.314.563-2.599.798-5.634H54.162c-.009-.024-.013-.043-.021-.067h12.86c.123-1.605.17-3.413.044-5.235H53.673a.908.908 0 0 1 .008-.07h13.36a23.253 23.253 0 0 0-.502-3.485c-.093-.367-.2-.73-.322-1.09H55.46l.043-.064h1.652a27.581 27.581 0 0 1 2.938-3.098c.51-.46 1.1-.95 1.749-1.416.06-.017.124-.034.19-.05-2.455 1.736-4.41 4.09-4.793 4.564h4.202c.258-.21 1.659-1.309 3.713-2.291 1.182-.569 2.722-1.161 4.466-1.479.03.018.066.035.098.052-1.77.31-3.337.912-4.535 1.484a20.452 20.452 0 0 0-3.64 2.234h4.693c.128-.037 2.94-.852 6.017-.852.38 0 .75.015 1.106.037.02.023.038.049.058.073-.387-.027-.776-.04-1.164-.041-.722 0-1.429.043-2.088.114v16.835a.972.972 0 0 1-.064.036V30.104a24.316 24.316 0 0 0-3.782.708c.11.363.203.732.286 1.103.786 3.06.716 6.57.492 9.099a42.93 42.93 0 0 1-.818 5.408 20.84 20.84 0 0 0 3.474.732c-.035.02-.073.034-.11.051a21.043 21.043 0 0 1-3.394-.723s-2.236-.813-5.276-1.182c.303.238 2.21 1.371 4.208 2.315.417.195.876.393 1.369.582-.043.006-.085.015-.13.021-.455-.176-.882-.36-1.266-.543-2.274-1.075-4.275-2.39-4.275-2.39-1.187-.182-1.98-.234-3.346-.234l-.318.002c.141.187.485.616.972 1.163-.092-.066-.18-.133-.27-.201-.386-.442-.653-.79-.783-.96l-.295.011a1.787 1.787 0 0 0-.064-.066m16.954-14.572v13.364c-.023.026-.045.058-.066.088V30.34c.021.03.043.058.066.088"/><path fill="#7a5c4e" d="M53.869 44.432c-.335-2.269.235-4.235 1.278-4.389 1.043-.157 2.164 1.553 2.5 3.82.336 2.27-.236 4.236-1.28 4.392-1.04.157-2.163-1.555-2.498-3.823M10.684 55.966c1.802-2.315 8.536-5.855 8.536-5.855s.663 4.733.11 7.183c-.069.315-4.471 2.858-4.603 3.072-.287.459-.731 1.045-1.32 1.882C11.69 64.69 10.08 75.02 10.08 75.02c.04.07.077.14.113.212a6.886 6.886 0 0 1 1.215 1.68c.931 1.764 1.027 3.546.214 3.981-.433.23-1.043.029-1.653-.48-.66 1.18-1.693 1.91-2.776 1.794-1.656-.176-2.797-2.257-2.543-4.649.107-1.006.442-1.906.919-2.596l-.007.062S6.98 60.72 10.684 55.966" data-paper-data="{&quot;origPos&quot;:null}"/><path fill="#6cc5d8" d="M12.273 84.07h.009s.269-13.537 2.442-23.705c3.083-4.224 3.664-6.046 4.499-10.255 2.163-1.238 7.274-1.405 7.274-1.405l1.773.086h.151l1.774-.123s5.112.239 7.275 1.494c.88 2.647 1.62 4.988 3.982 8.058 2.647 10.272 2.961 25.85 2.961 25.85h.034z"/><path fill="#0771b7" d="M37.469 50.162c.88 2.646 1.621 4.986 3.982 8.059.092.356.18.72.267 1.09 0-.003-.002-.003-.002-.003-2.925-1.587-5.229-9.354-5.306-9.616.395.14.756.294 1.06.47m-22.918 11.04c.058-.284.115-.562.173-.837 3.081-4.222 3.664-6.046 4.499-10.255.245-.138.5-.256.764-.354 0 .002-.745 8.103-5.436 11.446"/><path fill="#7a5c4e" d="M27.682 110.574h-9.698l-.371-12.132-.62-3.049h10.69v3.049zm11.02 0h-9.7V95.393h10.686l-.621 3.049z" data-paper-data="{&quot;origPos&quot;:null}"/><path fill="#eeeeed" d="m27.723 100.482-.064 10.092h-9.674l-.389-9.74zm11.355.609-.376 9.483h-9.723v-9.74z"/><path fill="#6cc5d8" d="M28.996 103.547v-.663h9.932l-.023.663zm-11.216 0-.03-.663h9.965l-.009.663z"/><path fill="#0771b7" d="M40.879 84.054 39.762 95.59H28.894l-.41-4.242h-.29l-.41 4.242H16.912l-1.106-11.536h15.766z"/><path fill="#dbdbdb" d="M17.125 99.656c0-1.476-.06-2.673 1.407-2.673h7.875c1.469 0 1.671 1.197 1.671 2.673v.021c0 1.479-.202 2.676-1.671 2.676h-7.875c-1.467 0-1.407-1.197-1.407-2.676z" data-paper-data="{&quot;origPos&quot;:null}"/><path fill="#afafaf" d="M27.457 98.427c-.568-.758-6.128-1.348-8.566-.728-.664.168-1.027.413-1.072.713l-.066-.009c.051-.333.427-.59 1.123-.768 1.315-.335 3.442-.303 4.994-.159 1.465.133 3.299.455 3.64.91l-.053.041m-5.807 3.461c-1.016 0-2.028-.073-2.774-.262-.696-.176-1.073-.435-1.123-.768l.067-.009c.044.301.405.545 1.071.713 2.439.62 7.999.028 8.567-.728l.052.037c-.34.461-2.175.781-3.64.914-.672.06-1.447.103-2.22.103"/><path fill="#dbdbdb" d="M39.559 99.677c0 1.479.06 2.676-1.41 2.676h-7.874c-1.467 0-1.667-1.197-1.667-2.676v-.021c0-1.476.2-2.673 1.667-2.673h7.875c1.469 0 1.409 1.197 1.409 2.673z"/><path fill="#afafaf" d="m29.225 98.427-.051-.041c.341-.455 2.173-.777 3.64-.91 1.552-.144 3.677-.176 4.994.159.696.178 1.07.435 1.121.768l-.064.009c-.047-.3-.408-.545-1.074-.713-2.44-.62-7.998-.03-8.566.728m5.809 3.461a25.38 25.38 0 0 1-2.22-.103c-1.467-.133-3.3-.453-3.64-.914l.05-.037c.568.756 6.126 1.348 8.567.728.668-.168 1.027-.412 1.074-.713l.064.009c-.05.333-.425.592-1.121.768-.748.189-1.755.262-2.774.262"/><path fill="#0771b7" d="M28.089 51.206c-4.563 0-4.298-2.279-4.298-2.279a114.96 114.96 0 0 0 2.598-.313l1.768-.008h.152l1.77-.024s.924.116 2.154.262c0 0 .44 2.362-4.144 2.362"/><path fill="#7a5c4e" d="M29.967 50.512h-3.762c-1.074 0-1.945-2.321-1.945-3.383h7.655c0 1.062-.872 3.383-1.948 3.383" data-paper-data="{&quot;origPos&quot;:null}"/><path fill="#eeac6c" d="M25.08 49.649c-.431-.659-.735-1.577-.805-2.24 2.524.415 5.1.405 7.62-.03l-.01.015-6.805 2.256"/><path fill="#7a5c4e" d="M5.54 28.008a23.966 23.966 0 0 1-.256-3.48c0-12.787 10.313-23.15 23.038-23.15 12.724 0 23.038 10.363 23.038 23.15a23.68 23.68 0 0 1-.237 3.321c1.33.732 2.227 2.111 2.227 3.695 0 2.349-1.968 4.252-4.4 4.252-.162 0-.325-.009-.485-.026-3.935 7.104-11.478 11.905-20.143 11.905-8.656 0-16.195-4.792-20.132-11.883a6.517 6.517 0 0 1-.205.004c-2.432 0-4.403-1.903-4.403-4.252 0-1.474.78-2.774 1.958-3.536" data-paper-data="{&quot;origPos&quot;:null}"/><path d="M24.293 22.93s-.503 1.803-2.082 1.446c-.772-.174-.908-1.201-3.386-.74-.779.18-2.417 1.156-2.732 1.808-.316.652-.088-2.392 2.457-3.522 1.835-.675 2.457-.642 3.977-.642s1.987.907 1.766 1.65m9.741 0s.503 1.803 2.082 1.446c.772-.174.908-1.201 3.386-.74.779.18 2.417 1.156 2.732 1.808.316.652.087-2.392-2.457-3.522-1.835-.675-2.457-.642-3.977-.642s-1.987.907-1.766 1.65M21.982 30.28c0 1.657-.895 3-2 3s-2-1.343-2-3 .895-3 2-3 2 1.343 2 3m18 0c0 1.657-.895 3-2 3s-2-1.343-2-3 .895-3 2-3 2 1.343 2 3" data-paper-data="{&quot;origPos&quot;:null}"/><path fill="#eeac6c" d="M29.002 33.349c-1.125.153-3.02 1.834-3.02 1.834s.207-1.009.503-1.299c.8-1.156 2.487-1.604 2.487-1.604s2.173.703 2.65 1.588c.443.824.34 1.238.34 1.238s-2.121-1.871-2.96-1.756zM22.182 36.976s6.897 3.208 13.172-.397c0 0-1.39 5.47-5.95 5.561-4.115.122-4.984-1.492-5.477-1.956-.492-.463-1.42-1.772-1.745-3.208"/><path d="M52.176 21.74c.036 2.706-1.164 6.467-1.164 6.467s-6.087-7.241-9.8-9.273c-4.54-2.48-6.801 1.174-10.858-2.04-.672-.537-1.926-1.948-1.926-1.948s-1.524 1.546-1.93 1.948c-4.558 4.484-7.979-.752-11.82 1.958-4.884 3.45-9.014 9.189-9.014 9.189s-1.418-1.63-1.222-6.554c.058-1.42.739-4.565 1.855-7.762C10.331 5.59 18.69 0 28.347 0c11.095 0 20.475 7.373 23.555 17.506.154 1.407.246 2.82.274 4.234" data-paper-data="{&quot;origPos&quot;:null}"/><path fill="#0771b7" d="m38.662 110.514.024-.011v.01h-.011c1.821 1.166 3.145 3.448 1.586 5.328-1.18 1.326-2.912.285-4.23-.275-1.456-.693-3.121-1.178-4.44-2.083-.85-.6-1.85-1.26-2.424-2.152-.18-.275-.262-.558-.198-.817l-.003-1.751s.118-.178.521 0c.803.356 1.335 1.95 3.05 1.75 4.235-1.186 6.125 0 6.125 0"/><path fill="#eeeeed" d="M38.729 111.725a9.2 9.2 0 0 1 1.392.105c.004.006.006.013.01.017.906 1.187 1.216 2.688.13 3.995-1.18 1.324-2.911.285-4.23-.275-1.009-.48-2.119-.862-3.142-1.353 1.168-1.487 3.346-2.49 5.84-2.49"/><path fill="#0771b7" d="M18.018 110.513s1.887-1.186 6.125 0c1.713.2 2.247-1.394 3.048-1.75.403-.178.52 0 .52 0v1.751c.064.259-.021.542-.201.817-.572.892-1.573 1.552-2.425 2.152-1.317.905-2.981 1.39-4.439 2.083-1.318.56-3.048 1.601-4.228.275-1.56-1.88-.237-4.162 1.583-5.328h-.007v-.01l.024.011"/><path fill="#eeeeed" d="M17.947 111.724c2.496 0 4.674 1.003 5.844 2.49-1.025.491-2.135.873-3.143 1.353-1.32.56-3.051 1.599-4.23.275-1.087-1.307-.775-2.808.128-3.995l.013-.017a9.12 9.12 0 0 1 1.388-.105"/></g></svg>