<svg xmlns="http://www.w3.org/2000/svg" width="59.874" height="118.255"><g fill-rule="evenodd" stroke-miterlimit="10" data-paper-data="{&quot;isPaintingLayer&quot;:true}" style="mix-blend-mode:normal"><path fill="#333433" d="M42.305 112.532c1.732 1.066 2.98 3.32 1.501 5.107-1.117 1.25-2.766.297-4.017-.235-1.385-.662-2.97-1.1-4.22-1.96-.8-.565-1.756-1.239-2.3-2.085-.168-.262-.249-.58-.188-.827zM31.82 112.532c.06.246-.018.565-.184.826-.547.847-1.5 1.521-2.313 2.086-1.249.86-2.826 1.298-4.205 1.96-1.25.532-2.899 1.485-4.019.235-1.478-1.787-.227-4.041 1.505-5.107z"/><path fill="#dda20c" d="m44.38 87.383-1.885 25.206h-9.534l-.374-18.227h-.273l-.368 18.227h-9.542l-1.876-25.206z"/><path fill="#fcdc88" d="M1.8 45.768c1.154-.493 2.542-.04 3.661 1.043.504-.766 1.105-1.193 1.658-1.089 1.042.208 1.53 2.195 1.094 4.447-.174.862-.45 1.638-.782 2.254a5.47 5.47 0 0 1-.2.8l5.267 6.205L23.7 55.414s-1.904 3.028-2.374 4.126c-.338.81-.998 3.353-.998 3.353s-8.18 3.327-10.5 2.485C6.964 64.343 3.66 54.983 3.66 54.983l.008-.007c-1.227-.435-2.432-1.62-3.118-3.247-1.082-2.549-.513-5.213 1.25-5.96" data-paper-data="{&quot;origPos&quot;:null}"/><path fill="#fcdc88" d="M8.295 49.868c-.32 2.153-1.386 3.78-2.384 3.628-.99-.148-1.54-2.016-1.21-4.16.317-2.154 1.38-3.78 2.376-3.633.991.155 1.536 2.016 1.218 4.165m41.022 10.985c3.527 4.5 4.874 18.044 4.874 18.044s0-.02-.007-.059c.453.659.771 1.508.871 2.459.24 2.267-.84 4.24-2.418 4.407-1.028.105-2.006-.582-2.634-1.702-.584.48-1.165.675-1.575.454-.775-.406-.682-2.1.21-3.772a6.3 6.3 0 0 1 1.156-1.586c.028-.07.072-.136.103-.201 0 0-1.53-9.785-3.164-12.096-.817-1.163-1.342-1.81-1.527-2.328-.148-.412-.318-1.2-.386-1.499-.52-2.321-3.396-7.56-3.396-7.56s6.185 3.244 7.893 5.44" data-paper-data="{&quot;origPos&quot;:null}"/><path fill="#f7b90b" d="M49.492 78.457s-1.246-9.345-2.876-11.658c-.085-.12-.166-.233-.24-.34 1.6 9.468 1.4 20.928 1.4 20.928H17.246s-.308-14.321 1.932-24.048c-.553.26-7.224 2.898-9.446 2.093-2.863-1.039-7.094-9.936-7.094-9.936l4.575-2.256 5.327 6.187 10.143-3.971c1.994-1.313 8.065-1.527 8.065-1.527l1.693.053h.137l1.69-.053s6.044.199 8.062 1.499c.81.446 5.317 2.991 6.871 4.986 3.523 4.498 5.056 18.043 5.056 18.043h-4.766"/><path fill="#333433" d="M38.83 66.149h.44v.436h-.44z"/><path fill="#eeeeed" d="M38.83 66.585h.44v.439h-.44zm.44-.436h.44v.436h-.44z"/><path fill="#333433" d="M39.27 66.585h.44v.439h-.44zm.44-.436h.438v.436h-.438z"/><path fill="#eeeeed" d="M39.71 66.585h.438v.439h-.438zm.438-.436h.438v.436h-.438z"/><path fill="#333433" d="M40.148 66.585h.438v.439h-.438zm.438-.436h.44v.436h-.44z"/><path fill="#eeeeed" d="M40.586 66.585h.44v.439h-.44zm.44-.436h.438v.436h-.438z"/><path fill="#333433" d="M41.026 66.585h.438v.439h-.438zm.44-.436h.438v.436h-.438z"/><path fill="#eeeeed" d="M41.466 66.585h.438v.439h-.438zm.438-.436h.44v.436h-.44z"/><path fill="#333433" d="M41.904 66.585h.44v.439h-.44zm.44-.436h.442v.436h-.442z"/><path fill="#eeeeed" d="M42.344 66.585h.442v.439h-.442z"/><path fill="#333433" d="M38.816 63.44h1v.3h-.336v1.77h-.333v-1.77h-.33zm1.346 1.419h.32l-.163-1.052zm.743.652h-.333l-.054-.37h-.4l-.05.37h-.3l.333-2.07h.471zm1.238-2.071-.344 1.009.37 1.063h-.344l-.268-.818-.266.818h-.305l.362-1.063-.342-1.008h.342l.238.766.25-.766zm.188 2.072h.32v-2.071h-.32zm5.444 21.875H17.246s-.02-1.113-.006-2.93h30.535c.02 1.817 0 2.93 0 2.93"/><path fill="#f7b90b" d="M29.738 87.781c-.637-.633-.565-2.897 0-3.596.836-1.043 4.402-.949 5.344 0 .634.637.7 3.031 0 3.596-1.044.842-4.397.947-5.344 0"/><path fill="#333433" d="M30.684 87.138c-.41-.415-.37-1.883 0-2.333.543-.676 2.857-.615 3.47 0 .406.41.45 1.962 0 2.333-.674.543-2.862.62-3.47 0"/><path fill="#d69d0b" d="M33.552 85.995c0-.084.069-.152.153-.152h1.072a.15.15 0 0 1 .154.152.158.158 0 0 1-.154.162h-1.072c-.08 0-.153-.074-.153-.162"/><path fill="#fcdc88" d="M36.183 54.028a34.16 34.16 0 0 0-1.894-.146l-1.686.057h-.137l-1.688-.083s-.88.039-2.05.177l3.792 3.923zm17.875-19.863c1.123.72 1.86 1.954 1.86 3.353 0 2.219-1.874 4.025-4.175 4.025-.07 0-.135 0-.2-.006-3.745 6.72-10.915 11.267-19.143 11.267-8.233 0-15.4-4.554-19.14-11.287a3.65 3.65 0 0 1-.465.026c-2.31 0-4.18-1.806-4.18-4.025 0-1.505.85-2.812 2.113-3.504a22.726 22.726 0 0 1-.223-3.148c0-12.112 9.802-21.934 21.895-21.934 12.1 0 21.906 9.823 21.906 21.933 0 1.12-.092 2.22-.249 3.3" data-paper-data="{&quot;origPos&quot;:null}"/><path fill="#ad6921" d="M26.228 31.095c-.772-.174-.908-1.201-3.386-.74-.779.18-2.417 1.156-2.732 1.808-.316.652-.088-2.392 2.457-3.522 1.835-.675 2.457-.642 3.977-.642s1.987.907 1.766 1.65c0 0-.503 1.803-2.082 1.446zm13.905 0c.772-.174.908-1.201 3.386-.74.78.18 2.417 1.156 2.732 1.808.316.652.087-2.392-2.457-3.522-1.835-.675-2.457-.642-3.977-.642s-1.987.907-1.766 1.65c0 0 .503 1.803 2.082 1.446z"/><path fill="#343434" d="M26 36.999c0 1.657-.896 3-2 3-1.106 0-2-1.343-2-3s.894-3 2-3c1.104 0 2 1.343 2 3m18 0c0 1.657-.896 3-2 3-1.106 0-2-1.343-2-3s.894-3 2-3c1.104 0 2 1.343 2 3"/><path fill="#eeac6c" d="M33.02 40.068c-1.126.153-3.02 1.834-3.02 1.834s.206-1.009.502-1.299c.8-1.156 2.487-1.604 2.487-1.604s2.173.703 2.65 1.588c.443.824.34 1.238.34 1.238s-2.12-1.871-2.96-1.756zM26.2 43.695s6.896 3.208 13.171-.397c0 0-1.39 5.47-5.95 5.561-4.115.122-4.984-1.492-5.477-1.956-.492-.463-1.42-1.772-1.745-3.208"/><path fill="#ad6921" d="M19.35 32.701s2.722-3.622 4.04-3.434c.412.058.691 1.044.37 1.634 0 0-2.622.691-4.41 1.8m25.35 0s-2.73-3.622-4.034-3.434c-.412.058-.69 1.044-.386 1.634 0 0 2.638.691 4.42 1.8"/><path fill="#ad6921" d="M55.176 28.007c.035 2.579-.862 8.149-2.62 11.47 0 0-4.312-12.205-7.856-14.139-4.338-2.365-15.775 1.044-19.647-2.016-.64-.514-.575-1.66-.575-1.66s-.73 1.466-1.09 1.87c-1.88 2.14-6.748 5.243-9.064 6.908-1.856 1.333-1.946 1.32-1.53 9.037 0 0-3.422-7.026-3.228-11.71.052-1.353.71-4.346 1.78-7.393 3.843-7.745 11.83-13.07 21.06-13.07 10.601 0 19.561 7.025 22.505 16.671.165 1.492.252 2.886.265 4.032"/><path fill="#fcdc88" d="M30.696 55.314c-1.025 0-1.85-2.2-1.85-3.206h7.28c0 1.006-.825 3.206-1.847 3.206h-3.584" data-paper-data="{&quot;origPos&quot;:null}"/><path fill="#eeac6c" d="M29.697 54.615c-.41-.626-.77-1.473-.838-2.106 1.16.195 2.344.295 3.546.295a22.478 22.478 0 0 0 3.708-.317l-.01.016-6.406 2.112"/><path fill="#333433" d="M29.872 76.938c.022-1.444 1.531-15.932 1.531-15.932-.455-.37-.945-2.131-.945-2.131l1.157-.96 1.85.059 1.075.861s-.41 1.846-.9 2.171c0 0 1.397 14.499 1.397 15.939.011 1.505-2.58 2.572-2.58 2.572s-2.614-1.039-2.585-2.579"/><path fill="#f7b90b" d="M36.705 52.864s1.235 1.104 1.361 1.431c.125.321-3.987 6.221-3.775 5.361.207-.869-1.826-1.707-1.826-1.707z"/><path fill="#dda20c" d="M32.52 57.934c.292.127 1.998.908 1.798 1.726-.009.029-.009.042-.009.046.18-.068 1.342-1.584 2.451-3.247.926-1.372 1.311-2.07 1.277-2.16-.114-.283-1.148-1.234-1.323-1.392zm1.748 1.82c-.026-.022-.026-.052-.01-.11.208-.824-1.779-1.664-1.799-1.67l-.039-.013 4.281-5.147.026.028c.053.041 1.242 1.115 1.37 1.44.081.205-1.19 2.084-1.583 2.653-.079.118-1.946 2.832-2.214 2.832 0 0-.028-.006-.032-.013z"/><path fill="#f7b90b" d="M32.55 57.949s-2.032.838-1.819 1.707c.207.86-3.908-5.04-3.782-5.361.127-.327 1.366-1.431 1.366-1.431l4.233 5.085z"/><path fill="#dda20c" d="m28.31 52.908 4.183 5.027c-.294.124-1.996.908-1.797 1.726.013.026.013.039.013.046-.186-.068-1.33-1.578-2.446-3.24-.93-1.379-1.314-2.077-1.28-2.167.105-.284 1.151-1.237 1.327-1.391zm.198 4.04c.08.114 1.942 2.82 2.207 2.82.015 0 .03-.004.042-.013.013-.027.022-.055.004-.109-.205-.825 1.77-1.665 1.8-1.674l.04-.013-4.287-5.145-.03.029c-.05.039-1.233 1.112-1.368 1.44-.083.205 1.198 2.092 1.592 2.666zM10.13 26.426s7.91-7.076 22.137-7.076c11.714 0 22.566 7.076 22.566 7.076-4.33 10.58-40.709 10.45-44.703 0"/><path fill="#f7b90b" d="M10.075 19.429s-5.189-1.866-4.963-3.753C6.032 7.896 26.907-.001 32.268 0c5.211 0 26.435 7.839 27.594 15.675.292 2.001-5.03 4.324-5.03 4.324l-44.757-.57"/><path fill="#343434" d="M10.075 26.448v-7.02C39.336 8.962 54.832 20 54.832 20v6.447c-25.176-11.273-44.757 0-44.757 0z"/><path fill="#eeeeed" d="M16.894 23.688c-.018.006-.029.006-.035.013.006-.007.017-.007.035-.013m2.183-.613v-.007zm.344-.094c0 .008-.004.008-.004.008s.004 0 .004-.008m.332-.079h.013zm-5.957 1.86h.01zm2.725-.963h.013zm26.116-1.291c-.028-.007-.046-.014-.068-.014.022 0 .04.007.068.014m5.735 1.478s-.013 0-.017-.004c.004.004.017.004.017.004m6.472 2.461c-.387-.172-.777-.338-1.165-.504.39.164.778.332 1.165.504m-29.632-4.566c-.015.007-.02.007-.02.007s.005 0 .02-.007m20.301 1.287c-.028-.007-.04-.013-.07-.013.03 0 .042.006.07.013m-31.866 1.651c-.017.009-.03.009-.043.016.013-.006.026-.006.043-.016m14.48-3.236c-.026.004-.052.004-.076.004.024 0 .05 0 .076-.004m-17.769 4.72a.047.047 0 0 0-.03.01c.008-.006.031-.011.031-.011m3.105-1.417c-.013.009-.017.016-.035.022.018-.006.022-.012.035-.022m-3.389 1.562s.011 0 .015-.006c-.004.006-.015.006-.015.006m.364-.194c0 .006-.017.006-.022.016.005-.009.022-.009.022-.016m-.349.188.017-.007zm.455-.238c-.017.006-.02.01-.02.01s.003-.004.02-.011m-.415.218-.013.006.013-.007zm.11-.06c-.016.008-.023.015-.023.015l.022-.016m.923-.466c-.02.007-.032.016-.045.022.013-.006.024-.015.045-.022m-.138.066-.043.022.043-.022m.28-.132c-.014.005-.03.015-.03.015a.132.132 0 0 1 .03-.015m-.66.32c-.014.006-.018.012-.036.022.018-.009.022-.016.035-.022m.107-.053c-.013.004-.022.015-.035.021.013-.006.022-.017.034-.021m-.459.24c-.015.007-.022.007-.028.013.006-.006.013-.006.028-.013m34.504-3.312c-.505-.127-1.013-.262-1.505-.369V21.03c.518.099 1.017.209 1.505.319zm-14.503-1.574h.007c-.515.059-1.018.059-1.51.092v-1.439a77.267 77.267 0 0 1 1.503-.08zm11.612.911h.008c-.51-.089-1.01-.177-1.51-.257v-1.567c.51.072 1.012.151 1.502.238zm5.778 1.417c-.503-.155-1.01-.294-1.51-.436h.007v-1.652c.518.133 1.023.273 1.503.415zm4.274-.203c.506.206 1.008.422 1.506.648v1.632a64.255 64.255 0 0 0-1.506-.607v-1.673m-27.434-1.592c-.623.09-1.244.191-1.863.305.116-.026.238-.045.353-.067v-1.458c.502-.083 1.006-.16 1.51-.227zm26.048 1.058v1.688a79.651 79.651 0 0 0-1.5-.519V22.53c.53.172 1.035.344 1.5.51zm-13.06-2.836c.515.045 1.018.1 1.506.15V21.9a58.11 58.11 0 0 0-1.506-.179v-1.519m-23.16 2.631a50.904 50.904 0 0 1 1.505-.453v1.64c-.548.181-1.05.36-1.52.533h.015v-1.72m5.774-1.527a68.283 68.283 0 0 1 1.51-.299v1.473c-.518.106-1.026.222-1.51.331v-1.505m-10.048 3.479v1.663-2.112zm26.051-4.692v1.48c-.525 0-1.05-.052-1.57-.072v-1.486c.524.02 1.047.046 1.57.079zm-24.664 3.721c.504-.188 1.007-.36 1.504-.535v1.816c-.586.237-1.09.466-1.504.66v-1.941m20.205-3.828c.515-.007 1.013-.007 1.51-.007v1.47c-.512-.009-1.01-.016-1.51-.009v-1.453m-5.77.373c.506-.057 1.005-.114 1.51-.15v1.43c-.518.046-1.015.12-1.51.182v-1.463m-7.152 1.263v1.54c-.504.13-1.005.273-1.503.425v-1.593c.503-.135.997-.251 1.503-.373zm24.543-3.295c.503.1 1.005.206 1.505.319v1.636a65.005 65.005 0 0 0-1.505-.34v-1.615m-8.73-1.01c.53.017 1.053.046 1.57.077v1.503a56.232 56.232 0 0 0-1.572-.1v-1.48m-21.589 5.069c-.505.211-1.006.432-1.504.661v-1.94c.504-.186 1.004-.36 1.504-.526zM37.51 17.5c.503.042 1.005.093 1.506.155v1.539a44.543 44.543 0 0 0-1.506-.173V17.5m2.89.334c.512.076 1.015.155 1.503.235v1.592c-.503-.1-1.009-.188-1.503-.26v-1.568m5.778 1.147c.518.139 1.026.275 1.503.419v1.675a51.726 51.726 0 0 0-1.503-.433v-1.66m2.891.838c.53.173 1.037.35 1.5.52v1.688a48.896 48.896 0 0 0-1.499-.522v-1.684m2.886 1.045c.506.207 1.008.423 1.506.648v1.632a250.07 250.07 0 0 0-1.506-.604zm-26.058-3.21c.506-.061 1.005-.107 1.51-.155v1.44c-.504.04-1.008.091-1.51.153v-1.438m-15.822 5.59v-1.618zm12.935-5.185a57.22 57.22 0 0 1 1.51-.232v1.444c-.518.077-1.02.16-1.51.25v-1.462m-2.887.541a58.404 58.404 0 0 1 1.51-.301v1.481c-.518.106-1.026.212-1.51.326v-1.506m-2.882.693c.503-.134.997-.26 1.503-.382v1.54c-.527.144-1.024.282-1.503.428v-1.586m14.426-2.012a43.533 43.533 0 0 1 1.51 0v1.464c-.512-.011-1.01-.011-1.51-.011v-1.453m-2.88.111a63.99 63.99 0 0 1 1.503-.072v1.44c-.513.02-1.009.042-1.503.072v-1.44M14.35 20.128a54.12 54.12 0 0 1 1.506-.452v1.641c-.54.176-1.037.36-1.506.532v-1.721m-.472-1.967c.115-.035.233-.067.355-.107-.122.039-.239.072-.355.107m20.68-3.232a44.816 44.816 0 0 0-1.373 0 51.9 51.9 0 0 1 3.636.067c-.227-.017-.458-.022-.693-.032v1.097a61.353 61.353 0 0 0-1.57-.1v-1.032m-17.919 2.439c.083-.028.162-.046.238-.067-.077.021-.155.038-.237.068m8.12-1.727c.128-.022.251-.032.388-.052-.138.02-.259.031-.388.052m.585-.087c.165-.022.334-.045.495-.065-.16.019-.329.043-.495.065m-15.269 4v-.126zm20.24-4.513c.455-.035.901-.051 1.34-.072-.439.022-.885.037-1.34.072m7.194-.006c-.217-.013-.437-.029-.664-.039 11.847.63 18 5.003 18 5.003s-.467-.332-1.384-.816v1.138a63.982 63.982 0 0 0-1.505-.613v-1.274a38.126 38.126 0 0 0-1.388-.587v1.347c-.5-.182-1.01-.354-1.499-.52V17.29c-.44-.155-.9-.301-1.388-.448v1.399c-.505-.152-1.01-.292-1.503-.432v-1.395a37.416 37.416 0 0 0-1.383-.34v1.382c-.508-.129-1.013-.238-1.508-.347v-1.347c-.45-.078-.906-.161-1.383-.24v1.307a71.17 71.17 0 0 0-1.506-.26v-1.26c-.45-.053-.91-.107-1.383-.147v1.207a75.15 75.15 0 0 0-1.506-.181zm-9.326.18c.172-.022.344-.032.518-.052-.174.02-.346.03-.518.052m-.694.073c.174-.022.362-.04.53-.06-.168.02-.356.038-.53.06m-8.744 2.339c-.503.133-1.005.275-1.503.426v-.847a61.168 61.168 0 0 1 1.503-.378v.8m2.89-.683c-.52.11-1.029.223-1.51.336v-.774c.51-.104 1.008-.212 1.51-.314v.752m11.543-1.031a69.47 69.47 0 0 0-1.51-.006v-.94c.52-.02 1.017-.033 1.51-.04v.986M15.95 17.556c.12-.035.226-.061.336-.094-.109.033-.216.059-.336.094m5.98-1.42c.11-.021.216-.043.32-.06-.104.017-.21.039-.32.061m-6.073 2.35c-.54.181-1.039.36-1.506.534V18.02a59.808 59.808 0 0 1 1.506-.436v.903m11.552-2.378c-.518.046-1.017.1-1.51.159v-.785c.514-.066 1.01-.133 1.51-.188v.814m2.883-.172c-.513.013-1.01.041-1.503.071v-.85c.511-.051 1.01-.086 1.503-.116v.895m-5.77.511c-.505.07-1.008.15-1.51.238v-.749c.51-.093 1.011-.175 1.51-.255v.766m-4.955.187c.148-.035.3-.065.442-.1-.143.035-.294.065-.442.1m-.65.156c.14-.035.281-.07.411-.105-.13.035-.272.07-.412.105m-5.948 2.77c-.589.238-1.09.467-1.504.661v-1.274c.504-.173 1.004-.34 1.504-.5v1.113m9.531-3.532c.144-.027.294-.051.44-.08-.146.029-.296.053-.44.08"/><path fill="#eeeeed" d="M36.126 18.896c.462.032.924.074 1.384.127v1.18a48.599 48.599 0 0 0-1.384-.109v-1.198M37.51 17.5a33.59 33.59 0 0 0-1.383-.106V16.06c.46.033.92.083 1.383.127V17.5m-.663-2.503h-.026z"/><path fill="#343434" d="M36.126 20.093c.467.035.933.066 1.384.11v1.518a37.27 37.27 0 0 1-1.384-.148v-1.479m0-2.7c.462.026.924.062 1.384.107v1.521a32.936 32.936 0 0 0-1.384-.127v-1.501m0-2.431c.236.013.467.017.693.034h.026c.222.011.444.024.665.038v1.154c-.464-.046-.924-.094-1.384-.129z"/><path fill="#eeeeed" d="M39.016 19.194c.462.061.923.13 1.383.208v1.132c-.45-.059-.91-.118-1.383-.181v-1.159m1.383-1.361a38.908 38.908 0 0 0-1.384-.177v-1.287c.46.06.917.128 1.384.2v1.264"/><path fill="#343434" d="M39.016 20.354c.473.06.933.122 1.383.18v1.569a43.54 43.54 0 0 0-1.383-.203v-1.547m0-2.697c.473.052.933.111 1.383.177v1.568a40.936 40.936 0 0 0-1.383-.207v-1.538m1.383-1.087a94.337 94.337 0 0 0-1.384-.201v-1.204c.473.037.933.094 1.384.144z"/><path fill="#eeeeed" d="M41.903 19.661c.457.087.917.181 1.385.281v1.087c-.45-.087-.91-.172-1.385-.255v-1.113m1.385 2.981c-.22-.046-.438-.094-.652-.136.214.042.432.09.652.136m-.719-.147c-.227-.046-.436-.094-.658-.135.222.041.431.089.658.135m.72-4.168a38.602 38.602 0 0 0-1.387-.257v-1.242c.463.089.925.182 1.386.279v1.22"/><path fill="#343434" d="M43.288 22.641c-.22-.046-.438-.093-.652-.133-.027-.006-.045-.013-.067-.013-.227-.047-.436-.094-.658-.137h-.009v-1.584c.463.08.925.166 1.386.255zm-1.385-4.572c.463.078.925.164 1.385.258v1.614c-.468-.1-.928-.192-1.385-.282v-1.59m1.385-.961c-.469-.1-.928-.194-1.386-.279v-1.305c.48.078.935.159 1.386.238z"/><path fill="#eeeeed" d="M46.177 18.981a41.725 41.725 0 0 0-1.384-.334v-1.191c.463.11.925.228 1.384.354v1.171m-1.383 1.3a49.8 49.8 0 0 1 1.384.36v1.047a60.177 60.177 0 0 0-1.384-.34v-1.067m1.377 3.06"/><path fill="#343434" d="m46.177 23.341-.007.009c-.22-.064-.444-.116-.657-.177-.027-.004-.04 0-.07-.004-.212-.064-.427-.149-.65-.149v-1.671c.463.106.924.219 1.384.338zm-1.383-4.694c.463.105.924.216 1.384.334v1.66a47.087 47.087 0 0 0-1.384-.36v-1.634m1.383-.837a39.061 39.061 0 0 0-1.384-.354v-1.38c.464.103.925.216 1.384.338z"/><path fill="#eeeeed" d="M48.355 23.982c-.222-.067-.446-.14-.675-.207.23.067.453.139.675.207m.713-4.161c-.44-.138-.906-.282-1.387-.42v-1.16c.464.14.927.284 1.388.434v1.146m-1.388 1.253c.46.135.918.282 1.388.432v1.023c-.44-.142-.906-.288-1.388-.425v-1.03"/><path fill="#343434" d="M47.681 22.103c.482.137.948.283 1.388.425v1.68c-.237-.072-.47-.15-.697-.222 0 0-.01 0-.015-.005-.223-.067-.449-.139-.676-.205v-1.673m0-2.702c.482.137.948.281 1.388.419v1.686c-.47-.15-.928-.298-1.388-.432v-1.673m1.387-2.112v1.386c-.47-.155-.927-.295-1.387-.433v-1.4c.488.147.948.293 1.388.447z"/><path fill="#eeeeed" d="M51.955 20.867c-.429-.166-.88-.346-1.387-.526v-1.147c.465.167.927.339 1.387.517v1.156m-1.387 1.159c.466.162.93.334 1.388.515v1.032a58.786 58.786 0 0 0-1.387-.532v-1.015"/><path fill="#343434" d="M50.568 23.04c.465.172.928.35 1.388.533v1.674c-.464-.18-.924-.352-1.387-.52V23.04m0-1.014v-1.684c.505.179.956.36 1.387.525v1.674a35.99 35.99 0 0 0-1.387-.515zm1.386-2.316a48.614 48.614 0 0 0-1.387-.514v-1.35c.507.201.967.402 1.387.59z"/><path fill="#eeeeed" d="M53.462 20.321c.463.192.925.39 1.383.594v5.532-1.54s-.48-.272-1.383-.687v-1.073c.451.194.941.392 1.383.6v-1.545s-.48-.277-1.383-.687zm0 5.532c.063.028.143.06.21.09-.067-.03-.147-.062-.21-.09"/><path fill="#343434" d="M53.462 24.221c.902.412 1.383.685 1.383.685v1.542a47.11 47.11 0 0 0-1.174-.505c-.066-.03-.146-.062-.209-.09v-1.632m1.382-.473c-.442-.21-.933-.408-1.383-.6v-1.632c.902.41 1.383.687 1.383.687v1.545m-1.382-4.565c.917.484 1.383.816 1.383.816v.915a67.761 67.761 0 0 0-1.383-.594v-1.136"/><path fill="#eeeeed" d="M10.118 26.425c0 .01-.007.01-.007.01l.007-.009m.091-.051c-.013.006-.013.01-.026.01.013 0 .013-.004.026-.01m-.068.038s-.004 0-.01.007c.006-.007.01-.007.01-.007m.841-.432c-.042.019-.079.041-.122.058.043-.017.08-.038.122-.058m.134-.067-.092.046.092-.046m.347-.159c-.05.026-.107.046-.16.072.053-.026.11-.046.16-.072m0-6.808c-.46.152-.918.317-1.388.482.47-.165.927-.329 1.387-.482m-1.044 7.321c-.022.013-.042.018-.059.035.017-.017.037-.022.06-.034m1.043-2.454c-.468.168-.917.338-1.387.522v-1.09.5s.483-.281 1.387-.7zm0-2.708c-.468.166-.917.341-1.387.522v-2.076 1.36s.483-.272 1.387-.692zm-.946 5.106c-.027.013-.053.028-.077.041.024-.013.05-.028.077-.041m-.254.134-.02.013.02-.013m.454-.232c-.024.011-.055.026-.072.032.017-.006.048-.022.072-.032m-.387.198-.04.022.04-.022"/><path fill="#343434" d="M10.075 24.336c.471-.184.92-.354 1.387-.522v1.94c-.05.026-.106.046-.16.074l-.04.013a.62.62 0 0 1-.1.052c-.022.007-.032.016-.046.022a.89.89 0 0 0-.09.044c-.016.006-.032.015-.045.021l-.12.06a.846.846 0 0 1-.11.054c-.014.005-.022.013-.035.02l-.072.033c-.013.006-.018.013-.035.021l-.064.034-.03.01-.076.041c0 .007-.017.007-.022.016-.022.013-.039.017-.072.033l-.017.01c-.01.007-.024.013-.037.022-.015.007-.022.007-.029.013-.01.007-.023.013-.023.013l-.029.016c-.013.004-.013.008-.026.008a.095.095 0 0 1-.044.029s-.004 0-.01.006l-.012.006c-.006.01-.01.01-.01.01l-.018.006c-.004.007-.015.007-.015.007v-2.112m1.387-1.289c-.904.419-1.387.7-1.387.7v-2.119c.47-.178.92-.353 1.387-.521v1.94m0-2.826c-.904.419-1.387.692-1.387.692v-1.484c.47-.165.927-.329 1.387-.482v1.274"/><path fill="#eeeeed" d="M12.967 25.094c.148-.059.307-.128.464-.187-.157.059-.316.128-.464.187m1.368-.541c-.186.065-.356.142-.53.21.174-.068.344-.145.53-.21m-.539.209c-.046.017-.098.039-.148.056.05-.017.102-.039.148-.056m-.19.072c-.043.018-.093.04-.14.05.047-.01.097-.032.14-.05m.743-4.706c-.463.146-.919.292-1.383.453v-1.02c.414-.173.88-.354 1.383-.54v1.107m-1.382 2.258c.457-.19.918-.369 1.383-.537v.984c-.464.142-.919.295-1.383.446v-.893m.576-4.116c.115-.035.223-.066.333-.11-.11.044-.218.075-.333.109m-.576.18c.08-.029.165-.053.25-.079-.078.026-.17.05-.25.079"/><path fill="#343434" d="M14.35 24.552h-.015c-.186.066-.356.145-.53.21h-.009l-.148.057c-.017.009-.03.009-.043.015a.722.722 0 0 1-.14.05c-.013.009-.017.016-.035.022-.157.061-.314.128-.464.188v-1.815c.464-.151.92-.306 1.383-.446zm-1.383-3.971c.463-.161.92-.307 1.383-.453v1.721c-.506.183-.972.364-1.383.537v-1.805m1.382-1.561c-.502.186-.969.367-1.382.54v-1.113c.08-.026.171-.052.25-.078.11-.033.213-.068.326-.1.113-.031.225-.068.334-.11.115-.033.235-.068.355-.105a.512.512 0 0 0 .117-.035v1.003"/><path fill="#eeeeed" d="M15.856 21.316c.438-.141.89-.288 1.385-.436v1.115c-.468.124-.917.254-1.385.384v-1.063m0 2.704c.213-.072.438-.144.666-.222-.228.078-.453.15-.666.222m1.385-4.725c-.469.122-.918.244-1.386.382v-1.19c.438-.146.89-.294 1.386-.432v1.24m-.956-1.833c.116-.034.236-.061.353-.094-.117.033-.237.059-.353.094m-.429.122c.033-.007.063-.022.093-.029-.03.007-.06.022-.093.029m1.385-.378c-.122.035-.24.061-.364.094.124-.033.242-.059.364-.094m0 6.382c-.122.035-.24.065-.347.1.107-.035.225-.065.347-.1"/><path fill="#343434" d="M15.856 22.38c.468-.133.917-.26 1.385-.387v1.596a5.482 5.482 0 0 0-.346.1c-.018.006-.028.006-.035.011-.115.032-.222.068-.325.098h-.013c-.228.078-.453.15-.666.222v-1.641m0-2.703c.468-.135.917-.26 1.385-.382v1.586c-.496.149-.947.295-1.385.436v-1.64m1.385-1.622c-.497.138-.948.288-1.386.432v-.903c.033-.006.065-.022.094-.028l.337-.092c.113-.035.236-.063.353-.093.083-.029.162-.049.238-.07.124-.031.242-.059.364-.094v.848"/><path fill="#eeeeed" d="M20.124 18.602c-.46.1-.92.207-1.38.312v-1.285c.434-.122.904-.235 1.38-.345v1.318m0 4.21c-.116.029-.236.055-.358.09.122-.035.242-.061.357-.09m-.795-6.126c.08-.017.161-.032.237-.05-.077.018-.157.033-.237.05m-.584 3.768c.434-.118.905-.232 1.38-.345v1.198c-.459.1-.919.198-1.379.314v-1.167m1.008 2.448c-.115.026-.222.052-.33.078.108-.026.215-.052.33-.078m.37-6.394"/><path fill="#343434" d="M18.744 21.621c.46-.116.92-.216 1.38-.316v1.507c-.116.029-.238.055-.358.09h-.013c-.115.026-.22.052-.33.079 0 .008-.014.008-.014.008-.107.024-.22.05-.334.079v.006c-.112.027-.228.053-.33.087v-1.54m0-2.708c.46-.105.92-.212 1.38-.312v1.508c-.476.114-.947.227-1.38.344v-1.54m1.38-1.63c-.477.111-.947.225-1.38.345v-.798c.055-.016.112-.03.17-.04.141-.032.28-.07.413-.102.081-.018.161-.033.238-.053.15-.033.298-.065.442-.1.04-.006.076-.016.115-.026v.774"/><path fill="#eeeeed" d="M21.634 19.782c.442-.093.902-.18 1.377-.26v1.24c-.457.072-.913.153-1.377.247v-1.227m1.376-1.721c-.46.074-.918.154-1.376.24v-1.355c.442-.083.901-.173 1.376-.26v1.375m-1.376-1.867c.096-.019.2-.041.296-.056-.096.015-.2.036-.296.056m.617-.119c.081-.02.168-.033.246-.046-.078.013-.166.026-.246.046m-.617 6.404"/><path fill="#343434" d="M23.01 22.22c-.115.022-.235.041-.353.065-.341.063-.682.128-1.023.195v-1.473c.457-.092.916-.173 1.376-.245zm-1.376-3.918c.464-.088.92-.166 1.377-.24v1.461c-.475.079-.935.166-1.377.26v-1.481m1.376-1.616c-.475.088-.934.177-1.376.26v-.753c.096-.017.2-.039.296-.057l.32-.06c.081-.02.17-.033.248-.048.171-.028.342-.059.512-.092v.75"/><path fill="#eeeeed" d="M25.178 21.887c-.22.035-.447.059-.657.094.211-.034.438-.059.658-.094m-.658-2.613c.453-.058.907-.127 1.377-.18v1.266c-.46.054-.917.109-1.377.174v-1.261m1.376 2.527c-.233.029-.459.053-.684.08.224-.027.451-.051.684-.08m-.75-6.211c.065-.013.135-.022.198-.035-.063.013-.133.022-.199.035m.751 2.067c-.459.052-.916.112-1.376.172v-1.38c.453-.066.906-.127 1.376-.18v1.388m0-2.173a.219.219 0 0 0-.045.006s.024-.006.045-.006"/><path fill="#343434" d="M25.897 21.822c-.233 0-.459.043-.684.072-.015.006-.035-.007-.035-.007-.22.034-.447.061-.657.094v-1.447c.46-.065.916-.12 1.376-.175zm-1.376-3.993c.46-.061.917-.12 1.377-.173v1.438c-.47.052-.924.122-1.377.179v-1.444m1.376-1.561c-.46.051-.92.111-1.377.18v-.766l.24-.039c.126-.022.251-.033.386-.055.068-.011.135-.02.198-.033.166-.021.333-.045.508-.065a.203.203 0 0 1 .045-.007v.786"/><path fill="#eeeeed" d="M28.787 15.157c-.029.006-.059.006-.085.006a.425.425 0 0 0 .085-.006m-1.379 6.483c.207-.019.416-.034.643-.052-.227.018-.436.032-.643.052m.611-6.411c.054-.006.11-.006.163-.013-.054.007-.109.007-.163.013m-.61.066c.025 0 .054-.006.08-.006-.026 0-.055.006-.08.006m1.378 6.245c-.218.016-.443.026-.66.044.217-.018.442-.028.66-.044m0-4.146c-.46.035-.92.067-1.38.107v-1.392c.46-.038.92-.072 1.38-.1v1.385m-1.379 1.547c.46-.042.92-.078 1.38-.107v1.267c-.46.027-.92.068-1.38.107v-1.267"/><path fill="#343434" d="M27.408 20.209c.46-.04.92-.081 1.38-.107v1.437c-.219.016-.443.027-.66.044-.027.004-.053.004-.077.004-.227.02-.436.033-.643.052v-1.43m0-2.709c.46-.039.92-.072 1.38-.106v1.44c-.474.028-.925.069-1.38.106V17.5m1.38-1.491c-.474.028-.925.061-1.38.1v-.813c.026 0 .056-.007.08-.007.175-.022.362-.039.53-.059.056-.006.11-.006.165-.013.172-.022.344-.033.52-.055a.425.425 0 0 0 .084-.006v.853"/><path fill="#eeeeed" d="M31.667 21.44c-.46 0-.917.015-1.37.029.453-.014.91-.029 1.37-.029m-1.376-2.678c.46-.016.917-.022 1.377-.026v1.252c-.45.004-.91.02-1.377.033v-1.259m1.363-3.793h.013zm-1.343.073h-.02zm1.356 2.241c-.459.006-.917.019-1.376.039v-1.385c.46-.015.916-.028 1.376-.028v1.374"/><path fill="#343434" d="M30.291 20.021c.466-.013.926-.028 1.376-.035v1.453c-.46 0-.917.009-1.37.009h-.006v-1.427m0-2.699c.466-.022.926-.033 1.377-.04v1.453c-.46.005-.917.011-1.377.027v-1.44m1.376-1.413c-.459 0-.916.013-1.376.028v-.894h.023c.456-.035.902-.053 1.34-.074h.013v.94"/><path fill="#eeeeed" d="M33.177 18.747c.46.006.914.028 1.38.048v1.22a68.005 68.005 0 0 0-1.379-.035v-1.233m0 2.702c.46.013.913.024 1.38.05-.467-.026-.92-.037-1.38-.05m.006-6.52h-.006zm1.373 2.388c-.454-.022-.913-.028-1.38-.035v-1.368c.46.013.913.029 1.38.046v1.357"/><path fill="#343434" d="M33.177 19.981c.46.007.92.018 1.38.034v1.484c-.466-.026-.919-.037-1.379-.05v-1.468m0-2.697c.46.004.92.016 1.38.035v1.476c-.467-.019-.92-.041-1.38-.048v-1.464m1.38-1.322c-.468-.018-.92-.033-1.38-.046v-1.006h.006c.466 0 .926.013 1.372.02v1.03"/><path fill="#f7b90b" d="M34.25 18.314c0 1.5-.804 2.721-1.795 2.721-.998 0-1.804-1.222-1.804-2.72 0-1.5.806-2.72 1.804-2.72.991 0 1.795 1.22 1.795 2.72"/></g></svg>