<svg xmlns="http://www.w3.org/2000/svg" width="57.917" height="114.545"><g fill-rule="evenodd" stroke-miterlimit="10" data-paper-data="{&quot;isPaintingLayer&quot;:true}" style="mix-blend-mode:normal"><path fill="#e7c5a0" d="M33.568 108.68c.064.25-.016.519-.188.784-.546.865-1.508 1.499-2.325 2.083-1.267.879-2.876 1.364-4.279 2.047-1.272.546-2.94 1.567-4.086.3-1.525-1.8-.269-4.03 1.487-5.14h-.004l-.54-11.318 9.846-.078.09 11.323m10.671-.087c1.77 1.079 3.071 3.294 1.573 5.116-1.128 1.284-2.813.29-4.093-.236-1.413-.66-3.026-1.12-4.31-1.98-.827-.571-1.803-1.187-2.358-2.043-.176-.262-.262-.521-.202-.78l-.09-11.324 9.85-.078-.36 11.325h-.01" data-paper-data="{&quot;origPos&quot;:null}"/><path fill="#343434" d="M33.85 108.718h.018c.07.248-.01.524-.181.788-.55.866-1.511 1.506-2.33 2.09a4.973 4.973 0 0 1-.406.26l-7.305.06-.023-2.442a5.48 5.48 0 0 1 .858-.683h-.006l-.186-3.808 9.534-.074z"/><path fill="#5a5a5a" d="m33.823 105.346.005.184-9.51.077-.008-.184zm.006.376v.186l-9.488.077-.01-.188z"/><path fill="#343434" d="m46.095 110.079.012 1.66-7.977.062c-.143-.077-.276-.17-.412-.26-.83-.566-1.802-1.191-2.365-2.048-.176-.261-.263-.535-.194-.787h.007l-.03-3.81 9.538-.074-.122 3.809h-.01c.611.372 1.14.864 1.553 1.447z"/><path fill="#5a5a5a" d="m35.138 105.335 9.52-.076-.001.186-9.517.074zm.004.374 9.507-.074-.007.186-9.5.076z"/><path fill="#e63744" d="M24.498 108.79s1.82-1.157 5.924-.045c1.657.176 2.16-1.366 2.932-1.71.39-.178.502-.007.502-.007l.013 1.69c.068.249-.013.519-.184.789-.547.866-1.51 1.505-2.33 2.086-1.266.887-2.868 1.365-4.275 2.05-1.27.547-2.94 1.559-4.09.292-1.521-1.793-.261-4.008 1.492-5.144h-.006l-.002-.01.025.01"/><path fill="#333433" d="M33.568 109.683c-.562.78-1.446 1.37-2.212 1.91-.533.37-1.123.67-1.733.944l-.172-.338c1.82-.546 3.906-2.695 3.906-2.695l.212.178"/><path fill="#9b1d2b" d="M24.444 109.955c2.404-.02 4.523.927 5.666 2.356-.986.482-2.058.857-3.03 1.33-1.271.55-2.938 1.56-4.088.295-1.066-1.252-.774-2.701.09-3.851.005-.006.007-.006.009-.016.447-.071.9-.11 1.353-.114"/><path fill="#e63744" d="M33.813 107.22c-.396.002-.714.737-.708 1.64.002.442.085.842.215 1.138.13-.157.26-.32.364-.493.172-.267.255-.538.185-.787l-.013-1.496-.043-.002m10.712 1.413.03-.01-.003.008h-.01c1.775 1.105 3.07 3.306 1.578 5.12-1.133 1.285-2.816.299-4.094-.226-1.42-.663-3.031-1.116-4.308-1.984-.83-.565-1.802-1.192-2.367-2.05-.176-.264-.262-.533-.192-.786l-.02-1.685s.115-.174.508-.004c.776.335 1.302 1.867 2.953 1.662 4.092-1.173 5.925-.045 5.925-.045"/><path fill="#333433" d="m35.478 109.666.202-.182s2.125 2.12 3.954 2.635l-.167.342c-.615-.265-1.213-.56-1.75-.92-.77-.527-1.664-1.103-2.24-1.875"/><path fill="#9b1d2b" d="M44.602 109.795c.468-.002.915.03 1.35.09 0 .01.01.01.01.02.883 1.137 1.195 2.577.159 3.847-1.134 1.283-2.816.3-4.095-.226-.983-.464-2.056-.82-3.058-1.286 1.122-1.447 3.226-2.424 5.634-2.445"/><path fill="#e63744" d="M35.19 107.207c.396-.001.729.73.735 1.63.004.443-.07.845-.196 1.14a3.498 3.498 0 0 1-.377-.484c-.176-.265-.263-.534-.195-.787l-.014-1.496.048-.002"/><path fill="#e7c5a0" d="M57.629 75.749c.27 2.353-.843 4.412-2.48 4.602-1.077.118-2.102-.585-2.76-1.745-.606.5-1.208.708-1.634.484-.815-.417-.734-2.182.18-3.927a6.63 6.63 0 0 1 1.189-1.666c.033-.072.07-.142.11-.21 0 0-1.678-10.176-3.395-12.566-.861-1.202-1.947-2.142-2.145-2.675v-.01c1.413 10.078.037 24.118.037 24.118l-24.857.196s-1.862-15.44-.283-25.57l.006.006s-8.805 3.623-11.228 2.764c-2.996-1.062-6.503-10.778-6.503-10.778-1.293-.45-2.545-1.664-3.271-3.36-1.146-2.63-.586-5.415 1.25-6.21 1.194-.522 2.64-.064 3.814 1.05.526-.795 1.15-1.245 1.73-1.135 1.087.196 1.603 2.269 1.173 4.616-.171.897-.457 1.706-.8 2.35a4.594 4.594 0 0 1-.198.832l5.55 6.418s5.096-4.803 8.508-3.128c.765-.284 3.054-1.124 3.054-1.124 1.32-.934 4.237-1.375 6.002-1.563-.304-.654-.491-1.358-.494-1.884l7.59-.06c.004.528-.172 1.244-.472 1.91 1.8.154 4.69.55 5.98 1.466.68.357 6.507 3.427 8.203 5.557 3.706 4.66 5.222 18.75 5.222 18.75s0-.024-.006-.065c.474.679.815 1.565.928 2.557" data-paper-data="{&quot;origPos&quot;:null}"/><path fill="#eeac6c" d="M31.02 48.134a5.56 5.56 0 0 1-.818-2.2c2.508.378 5.061.348 7.56-.09l-.02.01-6.722 2.28m-3.321 13.202c1.572-.012 3.533-.27 5.91-.772l-.028-.122c-5.082 1.074-8.266 1.029-9.722-.143-.648-.52-.967-1.248-.975-2.273l-.13.003c.012 1.022.347 1.823 1.024 2.37.803.643 2.096.954 3.92.938m13.07-.104c-1.575.012-3.543-.213-5.924-.68l.024-.121c5.096.994 8.28.898 9.718-.296.638-.532.944-1.267.936-2.29h.125c.007 1.023-.31 1.828-.98 2.387-.788.656-2.078.986-3.898 1m-6.57-4.824h-.125l.023 2.873h.128zm-16.93-1.162c1.56-.01 3.49-.373 4.988-1.768l-.09-.087c-1.693 1.58-3.98 1.802-5.6 1.712a12.534 12.534 0 0 1-3.14-.588l-.044.12c.015.008 1.4.492 3.178.592.235.015.472.021.708.019m36.01 8.052-.124.035-1.602-5.167v-.038c.008-.026.394-1.428.458-2.87.044.064.084.131.12.2a14.237 14.237 0 0 1-.45 2.687z"/><path fill="#e63744" d="M47.27 60.396c1.035 7.277 1.343 14.622.857 19.41-.18 1.789-.524 2.882-.524 2.882s-2.166 10.324-2.394 14.6l-9.848.08c.044-1.661-.56-7.337-.56-7.337l-.276.002s-.492 6.066-.445 7.344l-9.846.08c-.267-5.044-2.474-14.564-2.474-14.564s-.335-1.083-.504-2.867c-.5-5.245-.63-12.305.28-20.255 2.845-.257 3.767-9.204 3.897-10.91.024-.328.03-.528.03-.528a3.03 3.03 0 0 1 .374-.2c1.136-.586 2.95-.92 4.42-1.104 0 0 .314 10.91 4.206 10.894 3.892-.025 4.11-10.96 4.11-10.96 1.632.184 3.704.55 4.824 1.246l.002.008c.068 5.969 1.966 12.229 3.871 12.18M25.467 48.333h-.004zm0 0c0-.006 0-.004 0 0" data-paper-data="{&quot;origPos&quot;:null}"/><path fill="#0771b7" d="m26.355 97.465-4.976-14.84 3.563 14.853zm16.283-.13 4.74-14.917-3.333 14.907zM26.17 47.848c-.217.084-.429.18-.635.286-.137.067-.26.123-.372.2 0 0-.007.198-.031.527-.13 1.706-.872 9.54-3.718 9.792-.147.596-.058.422-.174 1.062 2.555-.41 5.49-8.827 4.93-11.866m20.894 13.246c-.052-.274-.037-.43-.095-.698-1.457-.18-3.803-6.21-3.871-12.18l-.002-.007a5.667 5.667 0 0 0-1.122-.51c-.585 3.363 2.458 13.76 5.09 13.395M34.159 59.3c-4.01.022-4.983-8.87-5.198-12.132.34-.054.674-.101.997-.14 0 0 .313 10.91 4.204 10.893 3.894-.025 4.11-10.96 4.11-10.96.314.035.645.073.982.129-.184 3.266-1.08 12.185-5.096 12.21"/><path fill="#e7c5a0" d="M11.689 27.453a22.986 22.986 0 0 1-.28-3.34C11.314 11.805 21.204 1.75 33.495 1.65c12.298-.098 22.35 9.802 22.449 22.105a22.13 22.13 0 0 1-.21 3.198c1.296.694 2.17 2.01 2.183 3.536.019 2.259-1.868 4.108-4.216 4.128-.162 0-.32-.008-.474-.025-3.745 6.865-11.003 11.548-19.378 11.616-8.36.066-15.683-4.488-19.543-11.284-.065 0-.133.006-.2.006-2.345.018-4.267-1.8-4.282-4.058-.012-1.416.73-2.674 1.864-3.42" data-paper-data="{&quot;origPos&quot;:null}"/><path fill="#7c5a38" d="M26.618 23.163c-.772-.174-.908-1.201-3.386-.74-.78.18-2.417 1.156-2.732 1.808-.316.652-.088-2.392 2.457-3.522 1.835-.675 2.457-.642 3.977-.642s1.987.907 1.766 1.65c0 0-.503 1.803-2.082 1.446zm13.905 0c.772-.174.908-1.201 3.386-.74.779.18 2.417 1.156 2.732 1.808.316.652.087-2.392-2.457-3.522-1.835-.675-2.457-.642-3.977-.642s-1.987.907-1.766 1.65c0 0 .503 1.803 2.082 1.446zm-14.134 5.904c0 1.657-.895 3-2 3s-2-1.343-2-3 .895-3 2-3 2 1.343 2 3m18 0c0 1.657-.895 3-2 3s-2-1.343-2-3 .895-3 2-3 2 1.343 2 3" data-paper-data="{&quot;origPos&quot;:null}"/><path fill="#eeac6c" d="M33.409 32.136c-1.125.153-3.02 1.834-3.02 1.834s.207-1.01.503-1.3c.8-1.155 2.487-1.603 2.487-1.603s2.173.703 2.65 1.588c.443.824.34 1.238.34 1.238s-2.121-1.871-2.96-1.756zM26.589 35.763s6.897 3.208 13.172-.397c0 0-1.39 5.47-5.95 5.56-4.115.123-4.984-1.491-5.477-1.955-.492-.463-1.42-1.772-1.745-3.208"/><path fill="#e6c74e" d="M56.874 20.84c.058 2.625-.811 8.286-2.567 11.675 0 0-4.475-12.367-8.098-14.301-4.432-2.36-16.024 1.19-19.984-1.89-.662-.511-.596-1.678-.596-1.678s-.743 1.494-1.11 1.912c-1.886 2.189-6.81 5.375-9.146 7.085-1.88 1.374-1.968 1.358-1.49 9.193 0 0-3.527-7.105-3.372-11.87.04-1.373.683-4.416 1.744-7.52C16.107 5.547 24.185.079 33.567.002c10.772-.085 19.942 6.972 23.012 16.748.162 1.358.26 2.723.295 4.09" data-paper-data="{&quot;origPos&quot;:null}"/></g></svg>