<svg version="1.1" xmlns="http://www.w3.org/2000/svg" xmlns:xlink="http://www.w3.org/1999/xlink" width="65.46728" height="116.55727" viewBox="0,0,65.46728,116.55727"><g transform="translate(-207.68872,-121.90879)"><g data-paper-data="{&quot;isPaintingLayer&quot;:true}" fill-rule="evenodd" stroke="none" stroke-width="1" stroke-linecap="butt" stroke-linejoin="miter" stroke-miterlimit="10" stroke-dasharray="" stroke-dashoffset="0" style="mix-blend-mode: normal"><path d="M250.548,232.882c-0.062,0.245 0.017,0.554 0.187,0.812c0.536,0.821 1.469,1.483 2.265,2.039c1.227,0.831 2.781,1.265 4.144,1.908c1.229,0.515 2.845,1.445 3.944,0.22c1.458,-1.736 0.224,-3.934 -1.476,-4.979zM240.24,232.882h9.073c0.061,0.245 -0.021,0.554 -0.184,0.812c-0.538,0.821 -1.475,1.483 -2.265,2.039c-1.232,0.831 -2.789,1.265 -4.15,1.908c-1.231,0.515 -2.854,1.445 -3.951,0.22c-1.451,-1.736 -0.224,-3.934 1.478,-4.979z" fill="#333433"/><path d="M261.651,208.337l-1.843,24.61h-9.388l-0.348,-17.804h-0.278l-0.36,17.804h-9.378l-1.86,-24.61z" fill="#565657"/><path d="M268.406,233.482l0.437,0.83l-0.374,-0.157l-0.22,0.22l-0.208,-0.227l-0.27,0.227l-0.307,-0.219l-0.363,0.07l0.643,-0.744z" fill="#864e1a"/><path d="M270.047,231.835c-0.00441,1.04817 -0.85682,1.89477 -1.905,1.892h-0.013c-0.5046,0.00319 -0.98975,-0.19448 -1.34844,-0.54941c-0.35869,-0.35493 -0.56145,-0.83798 -0.56356,-1.34259v-7.133c0,-1.047 0.853,-1.9 1.912,-1.9h0.013c1.047,0 1.905,0.853 1.905,1.9z" fill="#c87d36"/><path d="M269.858,221.28c0,1.049 -0.85,1.89 -1.905,1.89h-0.011c-0.50332,0.00347 -0.9872,-0.19419 -1.34414,-0.54907c-0.35694,-0.35488 -0.55741,-0.83759 -0.55686,-1.34093v-7.137c-0.00054,-0.50334 0.19972,-0.98611 0.55639,-1.34127c0.35667,-0.35517 0.84027,-0.55339 1.34361,-0.55073h0.012c1.055,0 1.905,0.845 1.905,1.892z" fill="#c87d36"/><path d="M267.744,202.253l-0.643,-0.76l0.363,0.062l0.307,-0.227l0.27,0.227l0.208,-0.227l0.22,0.227l0.374,-0.148l-0.437,0.846z" fill="#864e1a"/><path d="M270.047,211.028c-0.0033,1.04992 -0.85507,1.89945 -1.905,1.9h-0.013c-1.059,0 -1.912,-0.851 -1.912,-1.9v-7.13c0.00158,-0.50487 0.20414,-0.98832 0.56292,-1.34353c0.35877,-0.35521 0.84423,-0.55293 1.34908,-0.54947h0.013c1.04856,-0.00277 1.90114,0.84444 1.905,1.893z" fill="#c87d36"/><path d="M266.521,182.44c3.456,4.4 4.774,17.62 4.774,17.62v-0.058c0.445,0.637 0.76,1.467 0.862,2.396c0.23,2.211 -0.829,4.134 -2.378,4.294c-1.007,0.116 -1.977,-0.558 -2.592,-1.65c-0.576,0.468 -1.135,0.658 -1.544,0.441c-0.757,-0.402 -0.674,-2.048 0.199,-3.679c0.29765,-0.57095 0.6796,-1.09382 1.133,-1.551c0.038,-0.072 0.065,-0.135 0.107,-0.202c0,0 -1.5,-9.54 -3.107,-11.8c-0.804,-1.13 -1.328,-1.77 -1.514,-2.274c-0.14,-0.4 -0.299,-1.165 -0.367,-1.458c-0.525,-2.269 -3.337,-7.38 -3.337,-7.38c0,0 6.074,3.16 7.764,5.302M219.795,167.72c1.13,-0.475 2.49,-0.04 3.59,1.013c0.499,-0.742 1.09,-1.157 1.636,-1.053c1.02,0.196 1.505,2.14 1.072,4.338c-0.163,0.84 -0.436,1.597 -0.771,2.198c-0.03539,0.26703 -0.10254,0.52888 -0.2,0.78l5.202,6.058l11.001,-3.916c0,0 -1.868,2.95 -2.335,4.027c-0.332,0.782 -0.99,3.266 -0.99,3.266c0,0 -8.032,3.256 -10.318,2.426c-2.822,-1.012 -6.052,-10.147 -6.052,-10.147c-1.22,-0.43 -2.393,-1.583 -3.073,-3.178c-1.047,-2.476 -0.497,-5.074 1.237,-5.81" data-paper-data="{&quot;origPos&quot;:null}" fill="#fcdc88"/><path d="M266.674,199.609c0,0 -1.211,-9.115 -2.823,-11.37c-0.081,-0.122 -0.159,-0.227 -0.236,-0.339c1.57,9.242 1.377,20.427 1.377,20.427v2.134h-30.014v-2.124c0,0 -0.299,-13.985 1.91,-23.476c-0.563,0.255 -7.113,2.832 -9.296,2.042c-2.819,-1.017 -6.981,-9.699 -6.981,-9.699l4.506,-2.208l5.226,6.047l9.976,-3.877c1.979,-1.283 7.944,-1.494 7.944,-1.494l1.648,0.055h0.145l1.654,-0.055c0,0 5.95,0.19 7.924,1.465c0.802,0.438 5.237,2.924 6.767,4.862c3.457,4.398 4.967,17.62 4.967,17.62l-4.694,-0.01" fill="#9b1826"/><path d="M223.784,177.993c-2.898,-1.958 -2.616,-13.671 -2.616,-13.671l1.952,-0.371l2.623,13.669c-0.239,0.436 -1.545,0.651 -1.959,0.373" fill="#864e1a"/><path d="M218.66672,148.70126c0.18404,-0.27005 0.25255,-0.60244 0.19028,-0.92326c-0.13208,-0.6663 -0.77494,-1.1029 -1.443,-0.98c-0.66881,0.12737 -1.10983,0.77016 -0.988,1.44c0.0624,0.32228 0.25044,0.60649 0.52265,0.78996c0.2722,0.18347 0.60621,0.25112 0.92835,0.18804c0.32136,-0.05937 0.60568,-0.24469 0.78972,-0.51474zM219.91,144.431l3.987,20.829l-10.653,2.762c-4.699,-2.503 -7.264,-17.893 -4.267,-22.266z" fill="#eeeeed"/><path d="M210.757,145.541c-1.847,6.348 0.004,16.8 3.658,22.18l-1.171,0.3c-4.7,-2.501 -7.263,-17.89 -4.267,-22.266z" fill="#d0d0d0"/><path d="M226.155,171.739c-0.31,2.1 -1.357,3.69 -2.33,3.538c-0.976,-0.145 -1.518,-1.962 -1.2,-4.058c0.31,-2.101 1.361,-3.688 2.345,-3.548c0.972,0.153 1.503,1.967 1.185,4.068" data-paper-data="{&quot;origPos&quot;:null}" fill="#fcdc88"/><path d="M264.135,191.656c0.756,6.314 0.892,15.374 0.892,15.374v12.032h-30.062v-10.968c0,-1.439 -0.076,-9.071 0.794,-16.492c1.915,-0.331 5.922,-1.307 6.982,-3.715v-11.577c0.77634,-0.15839 1.55861,-0.28615 2.345,-0.383v9.567h10.063v-9.54c0.78976,0.09415 1.57414,0.22899 2.35,0.404v11.529c0.959,2.688 4.834,3.519 6.637,3.769" fill="#eeeeed"/><path d="M234.965,207.526h30.062v0.794h-30.062v-0.227z" fill="#d0d0d0"/><path d="M250.137,179.652l3.59,-3.84c-1.066,-0.11 -1.859,-0.14 -1.859,-0.14l-1.652,0.06h-0.14l-1.655,-0.089c0,0 -0.86,0.043 -2.014,0.18l3.731,3.83zM271.327,156.393c1.101,0.707 1.829,1.902 1.829,3.27c0,2.174 -1.848,3.93 -4.112,3.93h-0.196c-3.82076,6.80116 -11.02012,11.00503 -18.821,10.99c-7.80338,0.01043 -15.00139,-4.20285 -18.813,-11.012c-0.15287,0.01518 -0.30638,0.02286 -0.46,0.023c-2.27,0 -4.112,-1.757 -4.112,-3.93c0,-1.468 0.841,-2.739 2.079,-3.415c-0.14,-1.005 -0.218,-2.034 -0.218,-3.077c0,-11.824 9.638,-21.404 21.524,-21.404c11.901,0 21.538,9.581 21.538,21.404c-0.00119,1.07835 -0.08073,2.15518 -0.238,3.222" data-paper-data="{&quot;origPos&quot;:null}" fill="#fcdc88"/><path d="M272.425,150.387c0.029,2.51 -0.854,7.952 -2.579,11.197c0,0 -4.236,-11.918 -7.721,-13.806c-4.27,-2.305 -15.503,1.022 -19.32,-1.97c-0.628,-0.495 -0.561,-1.622 -0.561,-1.622c0,0 -0.723,1.431 -1.072,1.837c-1.851,2.088 -6.638,5.116 -8.915,6.732c-1.824,1.309 -1.912,1.294 -1.504,8.828c0,0 -3.364,-6.857 -3.178,-11.43c0.058,-1.321 0.703,-4.25 1.75,-7.223c3.9308,-7.83178 11.95115,-12.7685 20.714,-12.75c10.421,0 19.235,6.85 22.122,16.269c0.14951,1.30782 0.23761,2.62193 0.264,3.938" fill="#333433"/><path d="M248.355,177.04c-1.008,0 -1.82,-2.151 -1.82,-3.13h7.16c0,0.979 -0.816,3.13 -1.817,3.13h-3.524" data-paper-data="{&quot;origPos&quot;:null}" fill="#fcdc88"/><path d="M247.309,176.378c-0.404,-0.613 -0.695,-1.464 -0.758,-2.079c2.36268,0.3852 4.77274,0.37777 7.133,-0.022l-0.016,0.013l-6.358,2.088" fill="#eeac6c"/><path d="M236.08,139.468c0,0 1.232,-12.338 4.565,-13.868l1.207,0.495c0,0 1.882,-2.947 3.235,-4.05c1.36,-1.108 10.99,4.908 10.99,4.908l1.133,-0.743c3.37,1.115 4.913,13.259 4.913,13.259c0,0 -11.294,2.311 -15.115,2.204c-2.787,-0.07 -10.928,-2.203 -10.928,-2.203" fill="#eeeeed"/><path d="M257.23,126.238l-8.928,5.529l8.886,-5.582z" fill="#b7b7b6"/><path d="M250.88,130.15l-10.25,-4.524l0.03,-0.053l10.285,4.541z" fill="#b7b7b6"/><path d="M255.08,135.538c0.213,1.08 -2.2,2.448 -5.377,3.04c-3.18,0.597 -5.915,0.21 -6.126,-0.87c-0.208,-1.083 2.208,-2.442 5.383,-3.041c3.182,-0.596 5.914,-0.206 6.12,0.871" fill="#6cc5d8"/><path d="M252.999,137.473c0.21,0.092 0.341,0.272 0.28,0.417c-0.053,0.137 -0.279,0.175 -0.501,0.082c-0.11474,-0.04554 -0.20967,-0.1302 -0.268,-0.239c-0.387,0.012 -0.974,0.13 -0.974,0.13l-0.42,-0.028l-0.065,-0.526l0.484,-0.07c0,0 0.557,0.064 0.952,0.034c0.0481,-0.13729 0.15472,-0.2461 0.291,-0.297c0.222,-0.087 0.448,-0.049 0.502,0.087c0.06,0.134 -0.072,0.319 -0.28,0.41" fill="#ffffff"/><path d="M246.195,134.057c3.802,0 4.108,3.182 5.34,3.182l-0.275,0.153l0.276,0.163l-0.276,0.137l0.276,0.172c-0.668,-0.061 -1.666,1.63 -5.341,1.63z" fill="#ad6921"/><path d="M247.455,136.778c0,1.502 -0.574,2.718 -1.275,2.718c-0.704,0 -1.271,-1.216 -1.271,-2.718c0,-1.503 0.567,-2.721 1.271,-2.721c0.7,0 1.275,1.218 1.275,2.721" fill="#fddfbb"/><path d="M247.333,136.778c0,1.365 -0.518,2.469 -1.154,2.469c-0.64,0 -1.156,-1.104 -1.156,-2.469c0,-1.368 0.517,-2.474 1.156,-2.474c0.636,0 1.154,1.106 1.154,2.474" fill="#c12636"/><path d="M246.393,136.778c0,0.253 -0.094,0.46 -0.212,0.46c-0.119,0 -0.222,-0.207 -0.222,-0.46c0,-0.255 0.103,-0.46 0.222,-0.46c0.118,0 0.212,0.205 0.212,0.46" fill="#fddfbb"/><path d="M246.287,136.778c0,0.128 -0.046,0.24 -0.108,0.24c-0.065,0 -0.116,-0.112 -0.116,-0.24c0,-0.13 0.051,-0.242 0.116,-0.242c0.062,0 0.108,0.113 0.108,0.242" fill="#343434"/><path d="M245.311,150.65c0,0 -0.503,1.803 -2.082,1.446c-0.772,-0.174 -0.908,-1.201 -3.386,-0.74c-0.779,0.18 -2.417,1.156 -2.732,1.808c-0.316,0.652 -0.088,-2.392 2.457,-3.522c1.835,-0.675 2.457,-0.642 3.977,-0.642c1.52,0 1.987,0.907 1.766,1.65M255.052,150.65c0,0 0.503,1.803 2.082,1.446c0.772,-0.174 0.908,-1.201 3.386,-0.74c0.779,0.18 2.417,1.156 2.732,1.808c0.316,0.652 0.087,-2.392 -2.457,-3.522c-1.835,-0.675 -2.457,-0.642 -3.977,-0.642c-1.52,0 -1.987,0.907 -1.766,1.65M243,158c0,1.657 -0.895,3 -2,3c-1.105,0 -2,-1.343 -2,-3c0,-1.657 0.895,-3 2,-3c1.105,0 2,1.343 2,3M261,158c0,1.657 -0.895,3 -2,3c-1.105,0 -2,-1.343 -2,-3c0,-1.657 0.895,-3 2,-3c1.105,0 2,1.343 2,3" fill="#333433"/><path d="M250.02,161.069c-1.125,0.153 -3.02,1.834 -3.02,1.834c0,0 0.207,-1.009 0.503,-1.299c0.8,-1.156 2.487,-1.604 2.487,-1.604c0,0 2.173,0.703 2.65,1.588c0.443,0.824 0.34,1.238 0.34,1.238c0,0 -2.121,-1.871 -2.96,-1.756z" fill="#eeac6c"/><path d="M243.2,164.696c0,0 6.897,3.208 13.172,-0.397c0,0 -1.39,5.47 -5.95,5.561c-4.115,0.122 -4.984,-1.492 -5.477,-1.956c-0.492,-0.463 -1.42,-1.772 -1.745,-3.208" fill="#eeac6c"/></g></g></svg>