<svg xmlns="http://www.w3.org/2000/svg" width="62.213" height="118.669"><g fill-rule="evenodd" stroke-miterlimit="10" data-paper-data="{&quot;isPaintingLayer&quot;:true}" style="mix-blend-mode:normal"><path fill="#000001" d="M16.124 112.637h9.806c.066.265-.022.6-.2.875-.581.887-1.593 1.6-2.451 2.2-1.33.899-3.01 1.37-4.48 2.066-1.332.556-3.081 1.56-4.274.24-1.576-1.875-.237-4.254 1.6-5.381zM37.07 112.637c1.84 1.127 3.176 3.506 1.602 5.38-1.19 1.32-2.942.317-4.271-.24-1.472-.695-3.15-1.166-4.485-2.065-.86-.6-1.87-1.313-2.45-2.2-.18-.275-.262-.61-.198-.875z"/><path fill="#bc1718" d="m39.26 86.102-2.19 26.534h-9.8l-.543-19.181h-.294l-.503 19.18h-9.806l-2.228-26.533z"/><path fill="#804e18" d="M37.29 45.904c-.332-1.117.057-3.092.483-3.788.176-.282.71-.74 1.145-1.085-.066-.386-.107-.74-.047-1.07.097-.51 1.069-1.45 1.633-1.45.07 0 .13.014.182.04.226.109.399.344.503.697.322 1.099-.047 3.03-.467 3.755.21.115.367.344.467.68.33 1.115-.06 3.092-.488 3.786a1.6 1.6 0 0 1-.183.235c.043.066.083.137.126.217.5 1.05.426 3.06.11 3.816a1.194 1.194 0 0 1-.124.23c.554.83.955 2.14.986 2.965.924.673 1.87 2.18 2.036 2.972.008.05.013.1.014.15 1.06.37 2.323 1.31 2.73 1.928.04.066.086.155.129.256 1.002 0 2.287.294 2.86.652.283.179.728.715 1.072 1.155.24-.037.472-.065.688-.065.142 0 .27.01.39.035.4.08 1.053.69 1.319 1.226.12.25.147.456.073.6-.25.49-1.038.593-1.654.593-.932 0-2.105-.252-2.731-.577a.49.49 0 0 1-.154.27.927.927 0 0 1-.574.17c-1.1 0-2.996-1.301-3.515-2.087-.01-.012-.017-.028-.024-.042-.09.167-.197.277-.317.315a.658.658 0 0 1-.211.033c-1 0-2.39-1.887-2.788-3.01-.116.11-.237.172-.348.172h-.01c-.254 0-.507-.146-.763-.416-.74-.802-1.31-2.614-1.264-3.537l-.023.003a.355.355 0 0 1-.112-.017c-.24-.07-.443-.277-.604-.614-.5-1.047-.427-3.06-.114-3.814.026-.066.07-.141.12-.228a.128.128 0 0 1-.051-.02c-.23-.107-.396-.343-.5-.695-.327-1.102.045-3.031.467-3.756-.211-.117-.368-.343-.467-.68m-21.614 0c.332-1.117-.057-3.092-.486-3.788-.173-.282-.708-.74-1.142-1.085.066-.386.106-.74.047-1.07-.095-.51-1.07-1.45-1.63-1.45a.422.422 0 0 0-.188.04c-.225.109-.396.344-.498.697-.324 1.099.045 3.03.467 3.755-.21.115-.37.344-.467.68-.332 1.115.057 3.092.486 3.786.04.07.105.15.185.235-.047.066-.083.137-.125.217-.5 1.05-.427 3.06-.117 3.816.029.068.07.146.128.23-.552.83-.955 2.14-.983 2.965-.925.673-1.873 2.18-2.036 2.972-.012.043-.015.097-.02.15-1.057.37-2.32 1.31-2.728 1.928-.04.066-.083.155-.128.256-1.005 0-2.285.294-2.86.652-.283.179-.728.715-1.072 1.155a4.518 4.518 0 0 0-.69-.065c-.14 0-.268.01-.386.035-.403.08-1.058.69-1.318 1.226-.121.25-.147.456-.074.6.25.49 1.036.593 1.655.593.93 0 2.105-.252 2.73-.577.03.12.079.212.152.27.145.11.337.17.57.17 1.106 0 3-1.301 3.519-2.087l.026-.042c.09.167.197.277.318.315.068.024.14.033.21.033.996 0 2.385-1.887 2.784-3.01.118.11.237.172.35.172h.012c.25 0 .505-.146.759-.416.742-.802 1.315-2.614 1.268-3.537l.02.003a.37.37 0 0 0 .115-.017c.24-.07.44-.277.604-.614.5-1.047.427-3.06.112-3.814a1.682 1.682 0 0 0-.121-.228.108.108 0 0 0 .052-.02c.23-.107.398-.343.5-.695.327-1.102-.047-3.031-.464-3.756.21-.117.367-.343.464-.68" data-paper-data="{&quot;origPos&quot;:null}"/><path fill="#ffdd85" d="M60.3 42.407c1.88.788 2.477 3.6 1.332 6.28-.732 1.717-2.002 2.962-3.318 3.426h.003s-3.5 9.86-6.55 10.96c-2.468.887-11.16-2.62-11.16-2.62s-.704-2.682-1.07-3.532c-.5-1.161-2.521-4.35-2.521-4.35l11.903 4.233 5.608-6.541a4.913 4.913 0 0 1-.208-.842c-.36-.652-.657-1.471-.832-2.372-.467-2.38.05-4.478 1.157-4.69.592-.112 1.232.335 1.768 1.142 1.195-1.137 2.662-1.612 3.887-1.094M7.769 58.237c1.82-2.311 8.393-5.73 8.393-5.73s-3.053 5.52-3.61 7.967c-.07.315-.2.94-.36 1.377-.197.544-.806 1.434-1.673 2.654-1.736 2.438-3.362 12.748-3.362 12.748.038.068.074.14.112.215.44.425.87 1 1.23 1.67.94 1.764 1.038 3.546.218 3.976-.438.23-1.05.03-1.671-.477-.666 1.18-1.71 1.905-2.804 1.79-1.674-.174-2.826-2.254-2.57-4.64.107-1.007.444-1.901.925-2.593l-.005.064s1.434-14.273 5.177-19.022" data-paper-data="{&quot;origPos&quot;:null}"/><path fill="#663977" d="M10.394 82.058c-.01-5.612 1.434-18.93 1.657-19.845-.93 1.136 1.514-8.346 1.538-8.358 1.08-.976 3.428-1.86 4.696-2.13 0 0 19.757.857 21.16 1.67v.004s2.005 7.473 1.254 7.139c.782 1.178 2.04 18.033 2.105 21.466.654 1.992 3.909 24.654 3.909 31.32-5.303 4.684-36.14 4.788-40.754-.005 0-6.38 3.693-29.057 4.435-31.261"/><path fill="#3e1f51" d="M26.21 114.105a81.315 81.315 0 0 1-20.188-2.541c.06-.94.138-1.879.233-2.816a78.647 78.647 0 0 0 40.198-.076c.08.941.147 1.884.2 2.828a81.41 81.41 0 0 1-20.443 2.605m0-9.037a135.74 135.74 0 0 1-19.37-1.388c.114-.9.235-1.824.363-2.76a133.256 133.256 0 0 0 38.426-.057c.112.937.218 1.86.322 2.767a136.433 136.433 0 0 1-19.741 1.438m0-9.076c-6.068 0-12.134-.245-18.182-.735.144-.934.289-1.861.433-2.755 12.004.957 24.067.941 36.07-.047.126.899.252 1.822.379 2.762-6.207.515-12.453.775-18.7.775m0-8.507c-5.626 0-11.256-.108-16.855-.315.16-.924.33-1.847.51-2.767 11.112.404 22.319.395 33.424-.026.135.78.29 1.713.455 2.765-5.842.229-11.688.343-17.534.343"/><path fill="#e1e1e1" d="M13.794 79.176H38.76s3.376 15.605 3.369 27.5c-5.86 2.78-26.221 2.208-31.94 0 .309-12.264 3.604-27.5 3.604-27.5"/><path fill="#bc1718" d="M10.227 105.61a90.67 90.67 0 0 0 31.896.05c.002.112.005.223.005.336a91.627 91.627 0 0 1-15.813 1.379 91.87 91.87 0 0 1-16.102-1.426l.014-.34m3.815-1.058.46.517c.08.095.08.224 0 .297a.197.197 0 0 1-.152.04.242.242 0 0 1-.147-.08c-.152-.172-.306-.346-.457-.52-.152.132-.306.26-.458.393a.195.195 0 0 1-.152.04.272.272 0 0 1-.147-.082c-.083-.097-.083-.23 0-.3.152-.13.306-.258.46-.39-.154-.172-.308-.35-.46-.522-.083-.094-.083-.226 0-.3.083-.065.214-.046.299.048l.458.52.457-.393c.085-.07.216-.054.299.04.08.092.08.224 0 .294-.154.137-.308.267-.46.397m-2.056-.305c.152.177.306.35.455.53.083.094.083.225 0 .294a.164.164 0 0 1-.144.037.234.234 0 0 1-.152-.084 39.347 39.347 0 0 1-.455-.53l-.458.38a.192.192 0 0 1-.151.037.25.25 0 0 1-.145-.087c-.085-.094-.085-.23 0-.294.15-.13.304-.255.455-.38-.151-.176-.305-.355-.455-.533-.085-.1-.085-.23 0-.3.083-.065.214-.042.296.053.152.178.306.354.458.534l.455-.386c.083-.068.213-.044.296.046.083.097.083.23 0 .3-.15.127-.303.253-.455.383"/><path fill="#bc1718" d="M18.174 105.017c.152.165.306.335.46.497.083.089.083.22 0 .296a.186.186 0 0 1-.15.047.22.22 0 0 1-.15-.075l-.46-.496c-.151.138-.305.275-.46.41a.188.188 0 0 1-.15.048.217.217 0 0 1-.145-.075c-.083-.092-.083-.221 0-.296.149-.134.303-.276.458-.41a65.626 65.626 0 0 1-.458-.503c-.083-.09-.083-.224 0-.294.08-.076.216-.064.296.026.154.17.308.336.46.5l.46-.413a.216.216 0 0 1 .299.025c.083.087.083.222 0 .297l-.46.416m-2.067-.21c.15.17.308.34.46.509.082.09.082.222 0 .297a.208.208 0 0 1-.15.042.232.232 0 0 1-.15-.078 29.3 29.3 0 0 1-.457-.51c-.151.139-.308.27-.461.405a.18.18 0 0 1-.15.044.236.236 0 0 1-.145-.08c-.083-.094-.083-.226 0-.296.152-.134.304-.27.455-.4l-.455-.515c-.083-.09-.083-.224 0-.294.08-.071.214-.057.294.037.154.17.31.339.462.508.152-.132.307-.268.457-.402.086-.075.217-.06.3.03.082.09.082.227 0 .3-.152.134-.31.268-.46.404m6.199.483.463.475a.208.208 0 0 1 0 .297.202.202 0 0 1-.15.056.223.223 0 0 1-.152-.071c-.154-.157-.306-.317-.457-.475-.154.148-.311.292-.463.435a.215.215 0 0 1-.151.054.24.24 0 0 1-.15-.07c-.083-.085-.083-.221 0-.296.152-.144.308-.288.463-.433-.155-.16-.311-.32-.462-.48-.084-.087-.084-.22 0-.297a.215.215 0 0 1 .3.017c.153.157.309.32.463.477.15-.141.303-.29.458-.435a.212.212 0 0 1 .3.012.208.208 0 0 1 0 .296l-.462.437m-2.072-.112.46.485c.085.086.085.22 0 .296a.193.193 0 0 1-.147.052.201.201 0 0 1-.152-.071c-.152-.162-.308-.324-.46-.487-.151.143-.305.28-.46.423a.208.208 0 0 1-.151.05.221.221 0 0 1-.147-.073c-.083-.086-.083-.221 0-.296.15-.14.306-.28.46-.423-.154-.16-.31-.325-.46-.49-.083-.09-.083-.22 0-.296.083-.076.215-.064.298.023.155.165.309.327.46.489.154-.14.307-.282.46-.425.085-.078.216-.07.299.018.085.087.085.219 0 .297-.152.143-.308.285-.46.428m6.222.195c.154.15.31.304.462.455a.205.205 0 0 1 0 .294.203.203 0 0 1-.147.066.22.22 0 0 1-.153-.064 39.54 39.54 0 0 0-.46-.454l-.462.454a.202.202 0 0 1-.15.064.229.229 0 0 1-.152-.066.214.214 0 0 1 0-.294c.155-.15.309-.302.462-.455a19.822 19.822 0 0 0-.461-.456.22.22 0 0 1 0-.3.216.216 0 0 1 .3.003c.154.153.31.306.463.46.154-.154.31-.307.46-.46a.217.217 0 0 1 .3-.002.21.21 0 0 1 0 .299c-.152.148-.308.303-.462.456m-2.074-.015c.154.155.31.31.462.46a.21.21 0 0 1 0 .3.214.214 0 0 1-.301-.005c-.15-.156-.308-.313-.46-.466-.151.15-.308.294-.461.445a.204.204 0 0 1-.15.056.25.25 0 0 1-.152-.066.214.214 0 0 1 0-.294c.157-.151.31-.296.462-.448l-.461-.47a.214.214 0 0 1 0-.294.215.215 0 0 1 .3.01l.463.468c.15-.148.31-.297.46-.445a.21.21 0 0 1 .3.005.205.205 0 0 1 0 .294l-.462.449m6.225-.094c.15.146.308.289.46.433.083.077.083.209 0 .297a.235.235 0 0 1-.147.07.212.212 0 0 1-.152-.056l-.46-.433c-.154.157-.308.317-.46.475a.225.225 0 0 1-.154.068.195.195 0 0 1-.144-.054.208.208 0 0 1 0-.296c.15-.16.303-.318.46-.476a39.38 39.38 0 0 1-.46-.437.21.21 0 0 1 0-.3.214.214 0 0 1 .298-.011c.152.148.306.294.46.438.154-.158.309-.32.459-.478.086-.085.217-.094.3-.016.083.077.083.209 0 .296-.152.158-.31.32-.46.48m-2.075.078.46.445a.205.205 0 0 1 0 .294.205.205 0 0 1-.146.068.21.21 0 0 1-.152-.058c-.152-.15-.306-.294-.46-.443-.154.153-.308.31-.46.467a.218.218 0 0 1-.154.06.198.198 0 0 1-.145-.056.21.21 0 0 1 0-.3c.152-.15.304-.307.458-.46l-.458-.452a.205.205 0 0 1 0-.294.211.211 0 0 1 .299-.005c.152.15.306.297.46.447.154-.155.309-.313.459-.467.086-.086.219-.09.3-.01a.205.205 0 0 1 0 .294c-.152.157-.306.315-.46.47m6.218-.38c.149.138.305.274.46.41.082.073.082.207 0 .297a.24.24 0 0 1-.15.075.186.186 0 0 1-.15-.046c-.151-.135-.305-.276-.46-.41-.153.165-.307.329-.46.496a.231.231 0 0 1-.148.073.187.187 0 0 1-.15-.047c-.083-.076-.083-.21 0-.296.152-.167.308-.332.46-.5-.152-.133-.308-.274-.46-.41-.083-.08-.083-.21 0-.3.083-.086.216-.101.299-.026.152.142.306.276.46.416l.46-.5c.085-.09.215-.104.298-.034.083.076.083.21 0 .3-.154.167-.31.333-.46.503m-2.07.173c.152.143.309.282.46.423.084.075.084.21 0 .297a.232.232 0 0 1-.148.073.202.202 0 0 1-.15-.053c-.152-.14-.306-.28-.462-.42-.152.16-.306.322-.458.487a.246.246 0 0 1-.151.07.195.195 0 0 1-.147-.052c-.083-.077-.083-.21 0-.296.15-.162.308-.325.46-.485l-.46-.428a.208.208 0 0 1 0-.296c.08-.085.215-.097.298-.022.152.146.306.287.458.429.156-.165.31-.327.462-.49.085-.087.216-.1.298-.023.084.075.084.206 0 .296l-.46.49m6.188-.667.455.388c.086.07.086.203 0 .299a.233.233 0 0 1-.144.083.2.2 0 0 1-.152-.038c-.152-.134-.306-.263-.457-.393-.152.172-.307.346-.457.518a.22.22 0 0 1-.15.08.185.185 0 0 1-.147-.04c-.083-.071-.083-.203 0-.297.149-.172.306-.343.457-.517-.151-.132-.307-.262-.457-.396-.083-.073-.083-.204 0-.296.078-.094.213-.111.296-.038l.458.393c.15-.176.305-.348.457-.522.083-.094.214-.113.296-.048.086.074.086.208 0 .3-.151.176-.303.35-.455.524m-2.062.27.46.4c.083.072.083.206 0 .298a.254.254 0 0 1-.15.08.194.194 0 0 1-.151-.043c-.152-.136-.304-.268-.455-.404-.152.17-.31.34-.462.508a.22.22 0 0 1-.15.08.186.186 0 0 1-.145-.045c-.085-.073-.085-.206 0-.296.15-.17.304-.337.456-.508l-.456-.405c-.085-.073-.085-.207 0-.3.08-.088.214-.103.294-.03l.463.405c.15-.172.303-.341.455-.51.085-.095.215-.108.3-.038.084.07.084.204 0 .294l-.46.516m4.12-.592c.153.125.304.251.454.38.085.065.085.2 0 .294a.235.235 0 0 1-.147.087.182.182 0 0 1-.15-.036c-.15-.127-.303-.254-.455-.381-.151.18-.303.356-.454.53a.232.232 0 0 1-.15.084.16.16 0 0 1-.147-.037c-.085-.07-.085-.2 0-.294.152-.18.306-.353.458-.53-.152-.13-.306-.253-.458-.383-.085-.071-.085-.203 0-.3.08-.091.21-.114.296-.046l.455.386c.152-.18.306-.356.456-.534.087-.095.218-.12.296-.053.085.07.085.2 0 .3-.15.179-.301.357-.453.534"/><path fill="#e63744" d="m14.042 102.28.46.52c.08.092.08.225 0 .295a.199.199 0 0 1-.152.042.242.242 0 0 1-.147-.082c-.152-.172-.306-.344-.457-.52-.152.134-.306.263-.458.39a.187.187 0 0 1-.152.043.268.268 0 0 1-.147-.083c-.083-.094-.083-.227 0-.297.152-.13.306-.258.46-.39.097-.082.199-.17.297-.256.096.113.196.226.296.338"/><path fill="#e63744" d="m14.042 101.419.46.52c.08.094.08.224 0 .297a.197.197 0 0 1-.152.04.242.242 0 0 1-.147-.08c-.152-.175-.306-.346-.457-.52l-.458.388a.18.18 0 0 1-.152.042.239.239 0 0 1-.147-.085c-.083-.091-.083-.224 0-.294l.46-.39c.097-.083.199-.167.297-.254l.296.337m-2.056.555c.152.179.306.353.455.532.083.094.083.224 0 .294a.18.18 0 0 1-.144.038.236.236 0 0 1-.152-.085c-.152-.177-.305-.353-.455-.532-.152.13-.306.257-.458.384a.192.192 0 0 1-.151.035.25.25 0 0 1-.145-.087c-.085-.097-.085-.228 0-.297.15-.127.304-.251.455-.378.099-.08.197-.163.299-.247.097.113.194.228.296.343"/><path fill="#e63744" d="M11.986 101.113c.152.179.306.353.455.532.083.094.083.224 0 .294a.189.189 0 0 1-.144.038.239.239 0 0 1-.152-.084 74.99 74.99 0 0 1-.455-.53l-.458.38a.202.202 0 0 1-.151.036.25.25 0 0 1-.145-.087c-.085-.094-.085-.23 0-.294.15-.13.304-.254.455-.381.099-.08.197-.162.299-.247.097.115.195.23.296.343m6.188 1.636c.152.166.305.33.46.495.083.09.083.223 0 .298a.194.194 0 0 1-.15.047.23.23 0 0 1-.15-.074c-.153-.166-.307-.33-.46-.5-.151.14-.305.276-.46.414a.188.188 0 0 1-.15.047.222.222 0 0 1-.145-.077c-.083-.09-.083-.22 0-.294.149-.14.303-.273.458-.413.1-.088.198-.178.298-.27.097.108.202.219.299.328"/><path fill="#e63744" d="M18.174 101.888c.152.164.306.332.46.494.083.092.083.223 0 .296a.196.196 0 0 1-.15.05.23.23 0 0 1-.15-.076 43.503 43.503 0 0 1-.46-.496l-.46.412a.197.197 0 0 1-.15.047.212.212 0 0 1-.145-.078c-.083-.09-.083-.22 0-.296.149-.137.303-.273.458-.41l.298-.268c.097.105.202.215.299.325m-2.067.65c.15.172.308.34.46.508.082.092.082.224 0 .297a.199.199 0 0 1-.15.044.232.232 0 0 1-.15-.078 39.068 39.068 0 0 1-.457-.51c-.151.134-.308.273-.461.402a.18.18 0 0 1-.15.045.236.236 0 0 1-.145-.08c-.083-.092-.083-.224 0-.294.152-.136.304-.27.456-.4.099-.09.199-.177.3-.264.097.11.197.222.297.33"/><path fill="#e63744" d="m16.107 101.679.46.505c.082.092.082.224 0 .297a.199.199 0 0 1-.15.045.25.25 0 0 1-.15-.078c-.151-.167-.305-.336-.457-.511-.151.137-.308.27-.461.403a.18.18 0 0 1-.15.047.24.24 0 0 1-.145-.083c-.083-.091-.083-.224 0-.294.152-.134.304-.27.456-.4.099-.087.198-.176.3-.263.097.11.197.22.297.332m6.199 1.344.463.475a.205.205 0 0 1 0 .294.204.204 0 0 1-.15.059.234.234 0 0 1-.152-.071c-.154-.157-.306-.317-.457-.475-.154.144-.311.29-.463.435a.213.213 0 0 1-.151.052.229.229 0 0 1-.15-.07.205.205 0 0 1 0-.294c.152-.146.308-.288.463-.433.097-.095.199-.19.3-.282.097.1.2.206.297.31"/><path fill="#e63744" d="M22.306 102.16c.154.159.308.319.463.476a.205.205 0 0 1-.15.353.223.223 0 0 1-.152-.07c-.154-.158-.306-.318-.457-.475-.154.145-.311.289-.463.435a.213.213 0 0 1-.151.052.227.227 0 0 1-.15-.07c-.083-.085-.083-.22 0-.295.152-.146.308-.287.463-.433.097-.094.199-.188.3-.282.097.103.2.207.297.31m-2.072.749c.152.16.308.322.46.485.085.086.085.22 0 .296a.193.193 0 0 1-.148.052.216.216 0 0 1-.15-.073c-.153-.16-.31-.32-.46-.484-.152.14-.306.282-.46.42a.21.21 0 0 1-.3-.021c-.082-.087-.082-.223 0-.298.152-.137.307-.28.46-.422l.299-.273c.099.104.199.21.299.318"/><path fill="#e63744" d="M20.234 102.046c.152.163.308.327.46.487.085.085.085.222 0 .297a.193.193 0 0 1-.147.052.222.222 0 0 1-.152-.073c-.152-.16-.308-.323-.46-.485l-.46.423a.208.208 0 0 1-.151.05.226.226 0 0 1-.147-.073c-.083-.09-.083-.224 0-.296l.46-.424c.099-.09.198-.183.298-.273l.299.315m6.222 1.06c.154.15.31.3.462.45a.208.208 0 0 1 0 .298.2.2 0 0 1-.147.063.218.218 0 0 1-.153-.061l-.46-.456c-.152.153-.31.306-.462.457a.2.2 0 0 1-.15.06.225.225 0 0 1-.152-.063.217.217 0 0 1 0-.297c.157-.151.31-.301.462-.451l.302-.297c.099.099.2.195.298.297"/><path fill="#e63744" d="m26.456 102.244.462.452a.208.208 0 0 1 0 .296.2.2 0 0 1-.147.064.218.218 0 0 1-.153-.062l-.46-.456c-.152.153-.31.306-.462.456a.2.2 0 0 1-.15.062.226.226 0 0 1-.152-.064.217.217 0 0 1 0-.296c.157-.15.31-.302.462-.452.105-.101.202-.198.302-.3.099.102.2.199.298.3m-2.074.843.463.464a.21.21 0 0 1 0 .298.214.214 0 0 1-.15.059.22.22 0 0 1-.152-.068c-.15-.153-.308-.308-.46-.464-.151.149-.308.297-.461.445a.195.195 0 0 1-.15.057.253.253 0 0 1-.152-.064.217.217 0 0 1 0-.296c.157-.151.31-.295.463-.445.1-.094.2-.193.3-.287l.299.3"/><path fill="#e63744" d="m24.382 102.225.463.464a.208.208 0 0 1 0 .296.207.207 0 0 1-.15.062.225.225 0 0 1-.152-.064c-.15-.155-.308-.313-.46-.468-.151.15-.308.296-.461.445a.187.187 0 0 1-.15.056.247.247 0 0 1-.152-.064.216.216 0 0 1 0-.296c.157-.148.31-.295.463-.445.1-.094.2-.193.3-.286.1.099.2.199.299.3m6.225.77c.15.146.308.287.46.433.083.078.083.207 0 .295a.213.213 0 0 1-.3.016c-.151-.143-.305-.292-.46-.433l-.46.475a.236.236 0 0 1-.153.068.187.187 0 0 1-.145-.056.205.205 0 0 1 0-.294c.152-.16.304-.318.46-.476.099-.103.199-.21.299-.31l.299.282"/><path fill="#e63744" d="M30.607 102.134c.15.146.308.287.46.433.083.077.083.206 0 .296a.21.21 0 0 1-.147.068.206.206 0 0 1-.152-.054l-.46-.433-.46.476a.225.225 0 0 1-.154.068.205.205 0 0 1-.145-.351c.152-.16.304-.317.46-.476l.299-.31.299.283m-2.075.939c.155.149.309.295.46.443a.208.208 0 0 1 0 .296.203.203 0 0 1-.146.066.207.207 0 0 1-.152-.056 38.498 38.498 0 0 0-.46-.445l-.46.463a.213.213 0 0 1-.154.066.198.198 0 0 1-.145-.056.21.21 0 0 1 0-.3c.152-.152.304-.31.458-.462.1-.102.199-.202.3-.302.1.094.2.193.3.287"/><path fill="#e63744" d="m28.532 102.212.46.442a.208.208 0 0 1 0 .297.212.212 0 0 1-.146.065.196.196 0 0 1-.152-.056l-.46-.445-.46.469a.218.218 0 0 1-.154.06.19.19 0 0 1-.145-.058.208.208 0 0 1 0-.297c.152-.153.304-.31.458-.464.1-.1.199-.201.3-.3.1.094.2.193.3.287m6.218.48c.149.139.305.272.46.412.082.073.082.206 0 .296a.253.253 0 0 1-.15.076.194.194 0 0 1-.15-.048l-.46-.412c-.153.168-.307.332-.46.5a.243.243 0 0 1-.148.073.186.186 0 0 1-.15-.05c-.083-.073-.083-.21 0-.296.152-.165.308-.33.46-.497l.299-.322.298.268"/><path fill="#e63744" d="M34.75 101.83c.15.139.306.273.46.412.083.074.083.207 0 .294a.244.244 0 0 1-.15.078.194.194 0 0 1-.148-.047 44.822 44.822 0 0 0-.46-.41c-.154.165-.308.33-.46.497a.243.243 0 0 1-.15.073.182.182 0 0 1-.15-.05c-.082-.073-.082-.206 0-.296.153-.165.309-.33.46-.497l.3-.32.298.266m-2.07 1.037.46.42c.084.076.084.213 0 .3a.232.232 0 0 1-.148.073.192.192 0 0 1-.15-.055c-.152-.136-.306-.28-.462-.418l-.458.484a.249.249 0 0 1-.151.073.195.195 0 0 1-.148-.052.208.208 0 0 1 0-.296c.152-.165.309-.325.46-.485l.297-.317c.101.09.201.18.3.273"/><path fill="#e63744" d="m32.68 102.005.46.423c.084.073.084.207 0 .297a.232.232 0 0 1-.148.073.2.2 0 0 1-.15-.052c-.152-.141-.306-.285-.462-.421-.152.16-.306.322-.458.485a.249.249 0 0 1-.151.073.195.195 0 0 1-.21-.2c0-.056.022-.11.062-.15.152-.161.309-.323.46-.486.1-.105.2-.21.297-.315.102.089.2.183.3.273m6.188.193c.152.132.304.259.455.39.086.069.086.203 0 .297a.223.223 0 0 1-.144.082.2.2 0 0 1-.152-.037c-.152-.133-.306-.262-.457-.393-.152.174-.307.346-.457.517a.223.223 0 0 1-.15.083.184.184 0 0 1-.147-.043c-.083-.068-.083-.202 0-.294.149-.172.306-.346.457-.52.097-.113.197-.223.297-.336.099.084.198.172.298.254"/><path fill="#e63744" d="m38.868 101.337.455.39c.086.07.086.202 0 .294a.226.226 0 0 1-.144.085.184.184 0 0 1-.152-.04l-.457-.39c-.152.173-.307.345-.457.519a.23.23 0 0 1-.15.08.185.185 0 0 1-.147-.04c-.083-.071-.083-.202 0-.296.149-.172.306-.35.457-.52.097-.111.197-.226.297-.335.099.085.198.17.298.252m-2.062 1.135c.152.132.308.264.46.4.083.07.083.203 0 .294a.254.254 0 0 1-.15.08.193.193 0 0 1-.151-.042c-.152-.132-.304-.271-.455-.402-.152.169-.31.34-.462.508a.23.23 0 0 1-.15.08.173.173 0 0 1-.145-.047c-.085-.071-.085-.205 0-.297.15-.167.304-.334.456-.508l.3-.326c.097.086.197.17.297.26"/><path fill="#e63744" d="M36.806 101.61c.154.132.307.266.46.4.083.07.083.202 0 .294a.258.258 0 0 1-.15.082.198.198 0 0 1-.151-.045l-.455-.402c-.152.172-.31.34-.462.508a.23.23 0 0 1-.15.08.18.18 0 0 1-.145-.047c-.085-.073-.085-.204 0-.296l.456-.506.3-.33.297.262m4.12.269c.152.127.303.25.453.378.085.069.085.2 0 .297a.235.235 0 0 1-.147.087.191.191 0 0 1-.15-.035c-.15-.127-.303-.254-.455-.384-.151.179-.303.355-.454.532a.232.232 0 0 1-.15.085.17.17 0 0 1-.147-.038c-.085-.071-.085-.2 0-.294.152-.18.306-.353.458-.532.097-.115.196-.231.293-.343.1.084.199.167.299.247"/><path fill="#e63744" d="M40.926 101.017c.152.127.303.25.453.38.085.065.085.2 0 .295a.235.235 0 0 1-.147.087.201.201 0 0 1-.15-.035l-.455-.382c-.151.177-.303.356-.454.53a.232.232 0 0 1-.15.085.187.187 0 0 1-.147-.038c-.085-.07-.085-.2 0-.294.152-.18.306-.352.458-.532.097-.115.196-.228.293-.341.1.083.199.165.299.245"/><path fill="#bc1718" d="M10.616 99.827a146.008 146.008 0 0 0 31.213-.02l.043.533a147.195 147.195 0 0 1-31.306.016c.02-.176.033-.355.05-.53"/><path fill="#eeeeed" d="M10.468 79.31c.294-6.344 1.39-16.31 1.583-17.097-.931 1.137-3.783 13.353-3.975 15.043-1.586.83-4.788.785-6.284 0 .157-4.59 3.985-16.525 5.476-18.53 1.282-1.713 4.236-3.76 6.246-4.835.026-.014.052-.024.073-.035 1.08-.977 3.43-1.86 4.698-2.13 2.736-.663 6.433-.802 6.433-.802l1.778.023h.15l1.792-.023s3.413.127 6.09.72c1.303.216 3.514.939 4.918 1.753v.002l9.434 3.264c1.986-2.127 3.652-4.72 5.006-6.775 2.029.257 4.717 1.358 5.72 2.984-1.714 4.285-5.241 10.325-7.436 10.896-2.556.664-10.721-2.896-11.47-3.23.65.983 1.635 12.856 1.98 18.772z"/><path fill="#8b549c" d="M19.593 51.304c-2.045-.082-5.708 1.755-6.625 2.5-1.292 2.248.24 7.02-1.292 10.274-.477 4.41-1.195 13.257-1.852 17.64 4.405.5 6.237 2.826 11.968-.023 0 0 .467-2.391 1.342-3.645.019-5.337.083-11.473.223-14.412-6.45-5.061-3.764-12.334-3.764-12.334m13.943 0c.864-.035 2.023.273 3.14.7 1.514.58 2.972 1.032 3.5 1.464 1.293 2.248.022 7.17 1.274 10.61.476 4.41 1.194 13.257 1.853 17.64-3.174.654-5.724 3.619-11.97-.023 0 0-.512-2.292-1.342-3.645-.02-5.337-.08-11.473-.222-14.412 5.693-5.061 3.766-12.334 3.766-12.334"/><path fill="#cb991e" d="M11.677 64.077c.746-2.313-.134-8.05.62-9.834.534-.417.71-.528 1.039-.7-.83 1.54-.076 11.099-1.66 10.534m12.157-.655-.012.24c-.165 3.508-.208 11.23-.22 14.39v.146l-.083.118c-.811 1.16-1.26 3.442-1.263 3.465l-.045.226-.204.104c-1.98.98-3.648 1.44-5.255 1.44-1.357 0-2.511-.325-3.727-.666-.993-.278-2.04-.562-3.273-.706l.14-.932c.374.047.462.073.462.073 1.095.16 2.025.42 2.925.674 1.154.324 2.24.63 3.473.63 1.4 0 2.88-.396 4.634-1.247.137-.621.564-2.36 1.282-3.47.014-3.175.055-10.483.213-14.055-3.316-2.692-4.164-5.964-4.292-8.254-.088-1.658.17-3.035.37-3.798.042-.17.11-.334.2-.484.349-.06.928.004.928.004l-.052.143c-.008.02-.645 1.784-.508 4.12.178 3.1 1.567 5.685 4.12 7.69zM39.63 53.145c.434.166 1.04.536 1.04.536.942 2.324.126 7.504.776 10.334-1.66 1.25-.695-9.34-1.816-10.87m3.77 29.029c-.724.147-1.42.43-2.164.727-1.216.489-2.603 1.045-4.314 1.045-1.79 0-3.698-.605-5.824-1.85l-.178-.104-.045-.197c-.005-.021-.505-2.234-1.282-3.504l-.07-.11v-.127c-.01-3.16-.054-10.883-.22-14.394l-.012-.22.169-.146c2.27-2.02 3.567-4.633 3.864-7.763.215-2.343-.235-4.09-.24-4.108l-.047-.158.95.05s.083.188.123.477a14.66 14.66 0 0 1 .143 3.824c-.211 2.278-1.084 5.53-4.006 8.22.156 3.57.2 10.912.21 14.088.688 1.18 1.14 2.89 1.283 3.473 1.912 1.087 3.608 1.623 5.182 1.623 1.526 0 2.768-.5 3.968-.98.637-.257 1.246-.504 1.89-.673 0 0 .248-.08.456-.12z"/><path fill="#cb991e" d="m26.58 69.698 3.096-1.974-3.096-1.976-3.098 1.976zm-.001.157-3.09 1.97 3.09 1.708 3.092-1.708zm3.163 5.567-3.162-1.74-3.16 1.74 3.16 1.356 3.162-1.355zm-3.162 1.497-3.108 1.33h6.213zm0-11.33 3.008-1.92h-6.016zm.123.08 3.15 2.005-.028.05.028.047-3.15 2.007 3.15 2.007-.028.047.024.047-3.132 1.727 3.132 1.727-.05.09.045.103-3.093 1.325 3.093 1.32-.034.078h.01v.13h-6.481v-.13h.01l-.033-.078 3.093-1.32-3.093-1.325.045-.103-.05-.09 3.13-1.727-3.13-1.727.024-.047-.03-.047 3.15-2.007-3.15-2.007.03-.047-.03-.05 3.15-2.004-3.15-2.01.035-.056v-.064h6.48v.064l.033.056-3.15 2.009z"/><path fill="#cb991e" d="M28.408 79.756c.196-.267.305-.558.26-.7-.101-.312-1.09-.551-1.813-.651.02.063.02.131.002.195.278.699.72 1.544 1.045 1.55l.01.09v-.09c.088 0 .325-.157.496-.395m-3.198.617c.34-.003.804-.826 1.124-1.563a.351.351 0 0 1-.173-.303l.002-.026c-.768.118-1.676.353-1.783.668-.052.158.06.488.278.788.192.262.453.436.54.436v.09l.012-.09m3.627-1.367c.078.24-.107.616-.285.86-.085.11-.372.474-.654.474h-.007c-.455 0-.915-.953-1.16-1.555-.004.004-.01.009-.016.01.013.044.027.087.043.13.02.082.038.166.052.25.013.095.032.19.057.282.01.052.026.099.04.149.019.05.043.1.065.15a.717.717 0 0 0 .03.076l.04.077c.024.054.052.106.083.156.055.096.135.19.209.282.08.092.154.19.22.294.034.052.058.106.088.158.026.054.052.106.074.16.019.05.045.103.06.155l.05.155c.023.096.04.194.053.292.012.09.033.17.052.24.026.066.038.132.062.179.043.099.063.155.063.155l-.07-.153c-.024-.047-.045-.108-.07-.177a1.484 1.484 0 0 1-.063-.24 2.628 2.628 0 0 0-.123-.433c-.02-.05-.045-.1-.067-.15-.023-.052-.052-.101-.08-.153-.03-.047-.057-.098-.093-.148-.06-.098-.142-.186-.22-.278a2.64 2.64 0 0 1-.125-.134l-.06-.073-.05-.08c-.037-.05-.067-.101-.097-.153-.014-.023-.026-.051-.043-.075-.016-.028-.023-.054-.038-.082-.021-.052-.051-.1-.071-.156-.02-.051-.04-.104-.057-.154-.033-.102-.05-.203-.071-.29a1.32 1.32 0 0 0-.054-.217c.005.053.015.106.028.158.022.102.055.23.057.372.008.073-.002.146-.002.218v.048l-.005.014-.002.05-.017.117c-.016.08-.034.162-.064.24-.024.082-.06.16-.087.235a1.624 1.624 0 0 0-.1.489c-.015.174 0 .35.045.518.042.176.057.358.043.539 0 .049-.01.092-.012.136-.005.043-.005.085-.02.13-.011.042-.016.087-.03.127-.017.042-.026.085-.04.125-.031.08-.067.152-.093.23a1.917 1.917 0 0 0-.085.654c.009.12.029.24.06.358a1.8 1.8 0 0 1 .039.28c.005.082-.004.143-.002.186l-.002.063v-.063c-.003-.043.005-.104-.005-.184a1.727 1.727 0 0 0-.046-.277c-.028-.106-.063-.223-.07-.363a2.27 2.27 0 0 1 .012-.435c.014-.078.03-.158.054-.235.023-.078.055-.158.083-.236a.966.966 0 0 0 .036-.117c.009-.04.016-.083.023-.123.01-.04.012-.084.014-.127.005-.047.015-.084.01-.131a1.5 1.5 0 0 0-.057-.515 1.505 1.505 0 0 1-.064-.41v-.132a1.77 1.77 0 0 1 .088-.53c.028-.082.062-.157.085-.23.022-.073.033-.146.047-.216.005-.04.005-.078.01-.116l.005-.054v-.013s.002-.008 0-.01l.002-.03c-.002-.067.005-.135-.005-.201-.007-.125-.042-.235-.064-.343-.016-.064-.03-.118-.035-.175-.29.643-.76 1.509-1.216 1.509h-.005c-.206 0-.467-.174-.697-.492-.2-.275-.398-.678-.31-.944.159-.477 1.389-.712 2.034-.802a.364.364 0 0 1 .273-.13c.063.002.126.02.18.055.336.037 1.967.259 2.14.8"/><path fill="#bc1718" d="M31.077 50.7a.782.782 0 0 1 .545.743.785.785 0 0 1-.792.782h-.012a.778.778 0 0 1 .285 1.306.789.789 0 0 1-.58.215.78.78 0 0 1 .3.61.788.788 0 0 1-1.128.708.77.77 0 0 1 .126.419.788.788 0 0 1-.79.783.84.84 0 0 1-.308-.06c.02.067.03.137.03.207a.788.788 0 0 1-.791.78.798.798 0 0 1-.685-.392.786.786 0 0 1-.784.859.788.788 0 0 1-.785-.86.791.791 0 0 1-1.308.087.786.786 0 0 1-.136-.681.786.786 0 0 1-.972-1.142.787.787 0 0 1-1.125-.707c0-.238.109-.463.296-.61l-.04.002a.782.782 0 0 1-.256-1.525h-.012a.785.785 0 0 1-.79-.781.785.785 0 0 1 .546-.743.783.783 0 0 1 1.03.743.793.793 0 0 1-.528.744s.005-.005.009-.005a.786.786 0 0 1 .79.784c0 .239-.111.464-.3.61h.046a.783.783 0 0 1 .785.78.744.744 0 0 1-.123.419.786.786 0 0 1 1.097.915.78.78 0 0 1 .308-.058.782.782 0 0 1 .787.78c0 .024 0 .05-.002.074a.794.794 0 0 1 1.37 0 .782.782 0 0 1 .782-.854.79.79 0 0 1 .308.058.788.788 0 0 1 1.095-.915.782.782 0 0 1 .666-1.198h.043a.782.782 0 1 1 .49-1.395l.02.005a.788.788 0 0 1-.538-.744.784.784 0 0 1 1.03-.743"/><path fill="#bc1718" d="M32.732 52.402a.762.762 0 0 1 .517.72.761.761 0 0 1-.73.758.759.759 0 1 1-.306 1.459h-.038a.764.764 0 0 1-.6 1.374.76.76 0 0 1 .206.518.766.766 0 0 1-1.036.71c.149.143.234.34.235.548 0 .422-.346.76-.766.76a.774.774 0 0 1-.445-.136.736.736 0 0 1 .142.435.768.768 0 0 1-.77.763.779.779 0 0 1-.588-.273.764.764 0 0 1-.744.936.763.763 0 0 1-.6-.286.768.768 0 1 1-1.474 0 .764.764 0 0 1-1.342-.65.79.79 0 0 1-.593.273.767.767 0 0 1-.766-.763.768.768 0 0 1 .14-.435.756.756 0 0 1-.438.136.763.763 0 0 1-.536-1.308.765.765 0 0 1-1.033-.71c0-.186.067-.366.192-.504a.764.764 0 0 1-.524-1.388.761.761 0 0 1-.277-1.46.76.76 0 0 1-.235-1.467.758.758 0 0 1-.4-1.288.764.764 0 0 1 1.082 0 .764.764 0 0 1 .225.54.753.753 0 0 1-.49.708.764.764 0 0 1 .626.75.765.765 0 0 1-.46.699.757.757 0 0 1 .725.758.756.756 0 0 1-.334.63c.41.015.735.352.735.763a.749.749 0 0 1-.192.5l.095-.001a.763.763 0 0 1 .768.76.75.75 0 0 1-.235.543.84.84 0 0 1 .268-.045.761.761 0 0 1 .765.76.746.746 0 0 1-.14.436.78.78 0 0 1 .44-.137.765.765 0 0 1 .75.934.766.766 0 0 1 1.323.278.772.772 0 0 1 1.197 0 .77.77 0 0 1 1.325-.278.762.762 0 0 1 .745-.934.766.766 0 0 1 .443.137.747.747 0 0 1 .086-.977.764.764 0 0 1 .544-.22c.09.001.179.016.264.046a.744.744 0 0 1-.233-.543.762.762 0 0 1 .768-.76c.058 0 .116.005.173.016a.744.744 0 0 1-.206-.515.767.767 0 0 1 .766-.765l.04.002a.75.75 0 0 1-.341-.63.761.761 0 0 1 .73-.757.768.768 0 0 1-.465-.7.766.766 0 0 1 .586-.738.76.76 0 0 1-.515-.72.767.767 0 0 1 1.534 0 .763.763 0 0 1-.583.738"/><path fill="#ffdd85" d="M24.77 52.5c-1.084 0-1.964-2.32-1.964-3.38h7.742c0 1.06-.882 3.38-1.975 3.38H24.77" data-paper-data="{&quot;origPos&quot;:null}"/><path fill="#eeac6c" d="M23.634 51.62c-.435-.657-.74-1.577-.815-2.237a23.65 23.65 0 0 0 7.713-.03l-.014.014-6.884 2.254"/><path fill="#eeeeed" d="m22.54 50.038.476.05.837.538.372-.056.694-.516.437-.098.51.25.523.38.34.019.547-.322.606-.325.522.094.348.353.572.223.523-.14.275-.325.342-.165.223.056s.38 1.772 0 2.153c-1.444 1.429-6.71 1.429-8.147 0-.384-.383 0-2.17 0-2.17"/><path fill="#9f9e9e" d="M29.327 50.85c-.377 0-.574-.191-.747-.358-.168-.165-.31-.304-.61-.304-.298 0-.442.139-.608.304-.171.167-.368.357-.75.357-.381 0-.575-.19-.75-.357-.164-.165-.311-.304-.608-.304-.296 0-.438.139-.606.304-.171.167-.37.357-.75.357s-.578-.19-.748-.357c-.17-.165-.311-.304-.61-.304v-.2c.382 0 .576.193.752.36.163.16.31.304.607.304.296 0 .44-.144.606-.304.176-.167.37-.36.75-.36s.578.193.75.36c.167.16.309.304.608.304.298 0 .443-.144.609-.304.175-.167.37-.36.749-.36.38 0 .576.193.747.36.165.16.31.304.609.304.3 0 .443-.144.61-.304.17-.167.369-.36.748-.36v.2c-.3 0-.443.139-.61.304-.172.167-.367.357-.748.357"/><path fill="#eeeeed" d="M29.327 50.716c-.377 0-.574-.188-.747-.36-.168-.163-.31-.301-.61-.301-.298 0-.442.138-.608.3-.171.173-.368.36-.75.36-.381 0-.575-.187-.75-.36-.164-.162-.311-.3-.608-.3-.296 0-.438.138-.606.3-.171.173-.37.36-.75.36s-.578-.187-.748-.36c-.17-.162-.311-.3-.61-.3v-.198c.382 0 .576.188.752.358.163.162.31.303.607.303.296 0 .44-.141.606-.303.176-.17.37-.358.75-.358s.578.188.75.358c.167.162.309.303.608.303.298 0 .443-.141.609-.303.175-.17.37-.358.749-.358.38 0 .576.188.747.358.165.162.31.303.609.303.3 0 .443-.141.61-.303.17-.17.369-.358.748-.358v.198c-.3 0-.443.138-.61.3-.172.173-.367.36-.748.36"/><path fill="#9f9e9e" d="M22.387 51.106s0 .043-.005.12c0 .08-.002.196.005.344.004.075.01.155.02.242.013.087.027.184.058.278.02.045.04.099.078.132.04.033.088.068.133.103.047.035.095.066.147.1.047.03.107.06.159.09.223.118.479.224.756.309.277.087.576.158.886.212a11.09 11.09 0 0 0 1.982.17c.676 0 1.356-.053 1.98-.168.312-.054.61-.122.888-.21.277-.086.536-.188.759-.305a2.74 2.74 0 0 0 .44-.29.289.289 0 0 0 .079-.131 1.23 1.23 0 0 0 .066-.276c.008-.081.014-.163.017-.244.012-.144.007-.262.004-.34 0-.082-.002-.122-.002-.122s.002.04.01.123c0 .077.004.195 0 .339 0 .073-.008.157-.015.244a1.09 1.09 0 0 1-.054.287.372.372 0 0 1-.083.137c-.048.038-.088.073-.135.108a2.33 2.33 0 0 1-.31.198c-.451.244-1.025.426-1.655.54-.628.119-1.31.173-1.99.175a11.17 11.17 0 0 1-1.99-.176 7.348 7.348 0 0 1-.891-.224c-.28-.09-.536-.2-.761-.322a.973.973 0 0 1-.157-.1.934.934 0 0 1-.151-.098c-.043-.038-.09-.07-.13-.11a.322.322 0 0 1-.081-.144c-.031-.097-.04-.195-.053-.282a5.084 5.084 0 0 1-.011-.59l.007-.12"/><path fill="#ffdd85" d="M3.477 30.045a23.025 23.025 0 0 1-.263-3.475c0-12.765 10.425-23.118 23.287-23.118 12.86 0 23.286 10.353 23.286 23.118 0 1.124-.08 2.23-.237 3.313 1.346.729 2.257 2.11 2.257 3.694 0 2.343-1.992 4.244-4.45 4.244-.168 0-.331-.01-.495-.028A23.31 23.31 0 0 1 26.5 49.685 23.313 23.313 0 0 1 6.15 37.817a5.757 5.757 0 0 1-.204.004c-2.456 0-4.447-1.9-4.447-4.244 0-1.47.782-2.77 1.977-3.532" data-paper-data="{&quot;origPos&quot;:null}"/><path fill="#804e18" d="M50.797 23.557c.037 2.715-1.18 6.489-1.18 6.489s-6.18-7.263-9.954-9.303c-4.615-2.49-6.912 1.179-11.032-2.05-.685-.536-1.958-1.952-1.958-1.952s-1.548 1.55-1.96 1.952c-4.632 4.502-8.106-.755-12.006 1.968-4.966 3.456-9.161 9.22-9.161 9.22s-1.444-1.637-1.242-6.578c.056-1.423.753-4.583 1.886-7.793A25.025 25.025 0 0 1 26.593 1.737c11.27 0 20.797 7.398 23.926 17.572.161 1.41.254 2.828.278 4.247" data-paper-data="{&quot;origPos&quot;:null}"/><path fill="#bc1718" d="M3.632 1.913s24.088-4.304 45.928 0l1.333 19.548H2.298z"/><path fill="#cb991e" d="M3.512 3.67c20.738-2.783 41.27-.583 46.17.024l1.074 15.713H2.438L3.512 3.67"/><path fill="#8b549c" d="M2.875 17.74a840.798 840.798 0 0 0 4.293-4.362c1.44 1.459 2.885 2.93 4.333 4.405-2.875-.015-5.75-.026-8.626-.043m6.405-6.732c1.456 1.47 2.91 2.955 4.369 4.442 1.434-1.478 2.875-2.962 4.312-4.445a980.942 980.942 0 0 0-4.37-4.454c-1.433 1.492-2.874 2.974-4.31 4.457m4.368 6.776c-2.208-2.26-4.424-4.513-6.647-6.757C9.2 8.77 11.397 6.5 13.592 4.217c2.219 2.243 4.43 4.504 6.646 6.777a2023.086 2023.086 0 0 1-6.59 6.79"/><path fill="#8b549c" d="m13.632 13.377 2.307-2.38a748.128 748.128 0 0 0-2.333-2.371c-.765.795-1.533 1.589-2.301 2.379.775.788 1.552 1.579 2.327 2.372M3.466 4.36c2.676-.07 5.354-.136 8.03-.186-1.44 1.495-2.884 2.988-4.33 4.478a797.444 797.444 0 0 0-3.738-3.73l.037-.562m-.606 8.883c.699-.713 1.4-1.428 2.1-2.146-.61-.612-1.221-1.22-1.828-1.826l.145-2.158c1.323 1.309 2.64 2.633 3.963 3.963-1.513 1.55-3.03 3.097-4.55 4.64zm47.752 4.066.029.47c-2.728-.012-5.454-.024-8.182-.038a1081.92 1081.92 0 0 1 4.29-4.365 1024.49 1024.49 0 0 0 3.863 3.932zm-.662-9.658.147 2.155-1.235 1.24 1.423 1.456.165 2.473a1582.28 1582.28 0 0 1-3.87-3.95c1.128-1.132 2.247-2.257 3.37-3.375zm-.14-2.057a749.905 749.905 0 0 0-3.062 3.059 1526.677 1526.677 0 0 1-4.29-4.437c2.423.025 4.846.056 7.266.1z"/><path fill="#8b549c" d="M35.86 10.95c1.454 1.504 2.91 3.002 4.365 4.499a846.5 846.5 0 0 1 4.317-4.39c-1.456-1.5-2.911-3-4.367-4.507-1.438 1.46-2.88 2.928-4.314 4.398m4.364 6.833c-2.218-2.27-4.428-4.553-6.646-6.84 2.197-2.256 4.4-4.501 6.596-6.725 2.208 2.292 4.422 4.58 6.64 6.862-2.206 2.225-4.403 4.46-6.59 6.703"/><path fill="#8b549c" d="M40.21 13.377c-.777-.803-1.552-1.6-2.33-2.403.774-.783 1.539-1.567 2.31-2.348.772.802 1.55 1.602 2.325 2.4-.768.78-1.538 1.565-2.304 2.35M29.225 17.74c1.43-1.473 2.858-2.948 4.29-4.42 1.446 1.493 2.885 2.98 4.33 4.463-2.874-.015-5.747-.026-8.62-.043m0-13.635c1.43 1.48 2.858 2.958 4.29 4.435 1.446-1.477 2.887-2.952 4.33-4.42a957.044 957.044 0 0 0-8.62-.015m-6.597 6.83 4.366 4.5c1.436-1.484 2.875-2.967 4.314-4.447-1.456-1.5-2.91-3.004-4.364-4.506-1.44 1.483-2.879 2.968-4.316 4.454m4.366 6.848c-2.217-2.283-4.428-4.565-6.647-6.84 2.2-2.271 4.397-4.544 6.597-6.81 2.212 2.285 4.428 4.577 6.642 6.859-2.2 2.259-4.395 4.525-6.592 6.79"/><path fill="#8b549c" d="M26.977 13.35c-.775-.8-1.552-1.6-2.325-2.403.768-.79 1.533-1.584 2.304-2.377l2.328 2.4-2.307 2.38M15.99 17.74c1.432-1.468 2.86-2.94 4.293-4.42l4.33 4.463c-2.872-.015-5.745-.026-8.623-.043m0-13.58c1.434 1.456 2.865 2.916 4.293 4.38 1.443-1.49 2.884-2.984 4.33-4.476-2.875.02-5.748.05-8.623.096"/><path fill="#804e18" d="M22.31 25.65s-.502 1.803-2.081 1.446c-.772-.174-.908-1.201-3.386-.74-.78.18-2.417 1.156-2.732 1.808-.316.652-.088-2.392 2.457-3.522 1.835-.675 2.457-.642 3.977-.642s1.987.907 1.766 1.65m9.74 0s.504 1.803 2.083 1.446c.772-.174.908-1.201 3.386-.74.779.18 2.417 1.156 2.732 1.808.316.652.087-2.392-2.457-3.522-1.835-.675-2.457-.642-3.977-.642s-1.987.907-1.766 1.65" data-paper-data="{&quot;origPos&quot;:null}"/><path fill="#613b12" d="M20 33c0 1.657-.895 3-2 3s-2-1.343-2-3 .895-3 2-3 2 1.343 2 3m18 0c0 1.657-.895 3-2 3s-2-1.343-2-3 .895-3 2-3 2 1.343 2 3" data-paper-data="{&quot;origPos&quot;:null}"/><path fill="#eeac6c" d="M27.02 34.069c-1.125.153-3.02 1.834-3.02 1.834s.207-1.01.503-1.3C25.303 33.449 26.99 33 26.99 33s2.173.703 2.65 1.588c.443.824.34 1.238.34 1.238s-2.121-1.871-2.96-1.756zM20.2 38.696s6.897 3.208 13.172-.397c0 0-1.39 5.47-5.95 5.56-4.115.123-4.984-1.491-5.477-1.955-.492-.463-1.42-1.772-1.745-3.208"/></g></svg>