<svg version="1.1" xmlns="http://www.w3.org/2000/svg" xmlns:xlink="http://www.w3.org/1999/xlink" width="59.27121" height="116.14678" viewBox="0,0,59.27121,116.14678"><g transform="translate(-213.55881,-121.52709)"><g data-paper-data="{&quot;isPaintingLayer&quot;:true}" fill-rule="evenodd" stroke="none" stroke-width="1" stroke-linecap="butt" stroke-linejoin="miter" stroke-miterlimit="10" stroke-dasharray="" stroke-dashoffset="0" style="mix-blend-mode: normal"><path d="M214.09502,172.35102c-1.057,-2.497 -0.503,-5.121 1.237,-5.854c1.134,-0.482 2.496,-0.04 3.6,1.018c0.498,-0.752 1.091,-1.17 1.638,-1.062c1.026,0.199 1.505,2.156 1.075,4.37c-0.165,0.846 -0.439,1.605 -0.773,2.211c-0.03967,0.26771 -0.10635,0.53072 -0.199,0.785l5.2,6.1c0,0 2.386,-1.172 8.068,-2.887l2.895,-1.038c1.256,-0.872 4.016,-1.275 5.686,-1.438c-0.281,-0.621 -0.45,-1.298 -0.45,-1.794h7.171c0,0.496 -0.173,1.184 -0.456,1.808c1.696,0.159 4.429,0.56 5.639,1.434c0.64,0.343 6.12,3.286 7.712,5.313c3.383,4.319 4.787,17.695 4.787,17.68c0.444,0.644 0.76,1.484 0.86,2.42c0.236,2.224 -0.829,4.163 -2.38,4.327c-1.014,0.104 -1.983,-0.571 -2.6,-1.67c-0.572,0.472 -1.142,0.661 -1.545,0.446c-0.765,-0.403 -0.672,-2.065 0.202,-3.709c0.332,-0.625 0.726,-1.162 1.136,-1.558c0.032,-0.07 0.065,-0.135 0.106,-0.2c0,0 -1.509,-9.619 -3.113,-11.891c-0.809,-1.138 -1.822,-2.033 -2.009,-2.539c1.258,9.521 -0.147,22.763 -0.147,22.763l-1.61,13.91l-0.43,10.907h-0.006c-2.915,0.61 -8.191,0.403 -9.081,0h0.002v-10.915l-0.489,-7.102h-0.27l-0.479,7.102v10.915h-0.004c-2.143,0.61 -9.091,0 -9.091,0l-0.438,-10.907l-1.618,-13.908v-0.002c0,0 -1.631,-14.581 -0.064,-24.138c-0.083,0.036 -8.354,3.344 -10.628,2.52c-2.824,-1.021 -6.062,-10.221 -6.062,-10.221h0.004c-1.218,-0.434 -2.394,-1.593 -3.076,-3.197" data-paper-data="{&quot;origPos&quot;:null}" fill="#f5d9b5"/><path d="M242.84102,175.14902c-0.407,-0.614 -0.687,-1.516 -0.757,-2.13c1.138,0.183 2.306,0.325 3.495,0.325c1.22398,0.00085 2.44579,-0.1032 3.652,-0.311l-0.016,0.014l-6.374,2.102" fill="#e2a86e"/><path d="M247.04602,232.14602c-0.06,0.249 -0.169,0.482 0,0.739c0.54,0.83 0.857,1.418 1.655,1.973c1.236,0.847 2.795,1.302 4.157,1.955c1.24,0.519 2.862,1.498 3.966,0.263c1.702,-1.043 1.504,-3.762 1.097,-3.463c-2.665,1.943 -2.718,-0.72 -2.581,-1.467zM244.42102,232.14602c0.06,0.249 0.167,0.482 0,0.739c-0.541,0.83 -0.859,1.418 -1.657,1.973c-1.235,0.847 -2.793,1.302 -4.157,1.955c-1.239,0.519 -2.862,1.498 -3.967,0.263c-1.7,-1.043 -1.501,-3.762 -1.093,-3.463c2.662,1.943 2.713,-0.72 2.577,-1.467z" fill="#f6b90c"/><path d="M229.00502,211.47602c0.197,-1.402 0.688,-2.753 1.13,-4.104c0.175,-0.551 0.844,-3.416 1.846,-3.03c0.244,-0.416 0.688,-0.799 1.698,-0.013c1.22,3.03 0.071,4.836 0.071,4.836c-0.01676,0.54626 -0.06149,1.09131 -0.134,1.633c-0.291,2.859 -1.472,5.556 -2.256,8.26c-0.786,-0.313 -1.325,0.311 -2.109,0.466c-0.049,-0.258 -0.049,-0.622 -0.049,-0.934c0,-2.337 -0.494,-4.88 -0.197,-7.114" fill="#a51c24"/><path d="M233.96102,207.26602c4.829,-3.363 19.015,-3.756 23.545,0c0.334,10.19 7.009,18.467 -1.861,24.83c-1.911,1.372 -9.148,1.506 -9.415,0c-0.497,-2.779 -0.361,-12.135 -0.361,-12.135h-0.27c0,0 0.151,9.36 -0.364,12.135c-0.271,1.481 -7.518,1.394 -9.415,0c-8.675,-6.363 -3.072,-14.562 -1.86,-24.83" fill="#f9e9c4"/><path d="M257.49002,209.14502c-4.702,2.45 -19.298,2.208 -23.632,0c-1.227,-0.622 -1.35,-5.761 0,-5.49c4.334,0.866 18.169,0.866 23.633,0c1.356,-0.219 1.221,4.857 0,5.49" fill="#bc1718"/><path d="M241.46402,174.46802c-3.164,7.76 3.953,22.815 0,32.817c-4.332,-2.29 -8.97,-1.693 -10.705,-4.33c2.525,-5.345 1.672,-10.848 2.34,-16.965c2.628,-0.729 2.092,-6.865 1.615,-9.605c2.045,-0.853 4.87,-1.907 6.75,-1.917M256.61802,176.82202c-1.83,8.477 1.454,9.607 1.454,9.607c0.608,5.434 -0.348,12.514 2.54,16.548c-1.757,2.842 -6.679,2.627 -10.441,4.309c-3.597,-6.115 2.99,-24.161 0,-32.818c2.099,0.271 3.976,0.877 6.447,2.354" fill="#8279b6"/><path d="M240.87702,189.27402c0.9,6.03 1.832,12.262 0.316,17.037l-0.074,0.224l-0.2,-0.122c-0.848,-0.511 -2.24,-0.818 -3.71,-1.14c-2.374,-0.522 -5.027,-1.106 -6.254,-2.74c0.05834,-0.13443 0.11534,-0.26944 0.171,-0.405c1.071,1.663 3.766,2.254 6.158,2.783c1.396,0.305 2.716,0.596 3.622,1.07c1.394,-4.667 0.482,-10.758 -0.397,-16.652c-0.864,-5.794 -1.684,-11.285 -0.147,-14.762c0.147,-0.02 0.298,-0.043 0.438,-0.059c-1.623,3.359 -0.798,8.905 0.077,14.766M260.342,202.58002c-1.356,1.394 -3.814,2.036 -6.024,2.614c-1.419,0.372 -2.758,0.722 -3.587,1.219l-0.217,0.132l-0.06,-0.246c-1.09,-4.508 -0.315,-10.303 0.43,-15.908c0.822,-6.156 1.601,-11.983 -0.029,-15.82c0.144,0.024 0.289,0.051 0.434,0.077c1.545,3.929 0.778,9.701 -0.035,15.792c-0.729,5.473 -1.484,11.124 -0.492,15.531c0.871,-0.46 2.134,-0.789 3.464,-1.137c2.203,-0.576 4.656,-1.215 5.922,-2.588c0.064,0.114 0.127,0.224 0.194,0.334" fill="#f6b90c"/><path d="M258.96602,136.06501l-13.709,-4.529c0,0 2.116,-8.744 5.006,-9.812c2.354,-0.871 9.42,1.302 10.531,3.485c1.372,2.68 -1.828,10.856 -1.828,10.856" fill="#e63744"/><path d="M266.92402,154.85402c1.107,0.712 1.836,1.922 1.836,3.302c0,2.189 -1.85,3.967 -4.124,3.967c-0.067,0 -0.13,-0.002 -0.195,-0.006c-3.697,6.616 -10.77,11.09 -18.89,11.09c-8.122,0 -15.205,-4.484 -18.898,-11.11c-0.146,0.016 -0.301,0.026 -0.453,0.026c-2.28,0 -4.127,-1.778 -4.127,-3.968c0,-1.478 0.843,-2.766 2.085,-3.45c-0.145,-1.01 -0.218,-2.046 -0.218,-3.1c0,-11.926 9.676,-21.598 21.611,-21.598c11.937,0 21.613,9.672 21.613,21.597c0,1.107 -0.08,2.192 -0.24,3.25" data-paper-data="{&quot;origPos&quot;:null}" fill="#f5d9b5"/><path d="M241.31102,149.65002c0,0 -0.503,1.803 -2.082,1.446c-0.772,-0.174 -0.908,-1.201 -3.386,-0.74c-0.779,0.18 -2.417,1.156 -2.732,1.808c-0.316,0.652 -0.088,-2.392 2.457,-3.522c1.835,-0.675 2.457,-0.642 3.977,-0.642c1.52,0 1.987,0.907 1.766,1.65M251.05202,149.65002c0,0 0.503,1.803 2.082,1.446c0.772,-0.174 0.908,-1.201 3.386,-0.74c0.779,0.18 2.417,1.156 2.732,1.808c0.316,0.652 0.087,-2.392 -2.457,-3.522c-1.835,-0.675 -2.457,-0.642 -3.977,-0.642c-1.52,0 -1.987,0.907 -1.766,1.65M239.00002,157c0,1.657 -0.895,3 -2,3c-1.105,0 -2,-1.343 -2,-3c0,-1.657 0.895,-3 2,-3c1.105,0 2,1.343 2,3M257.00002,157c0,1.657 -0.895,3 -2,3c-1.105,0 -2,-1.343 -2,-3c0,-1.657 0.895,-3 2,-3c1.105,0 2,1.343 2,3l15.83,1.128" fill="#343434"/><path d="M246.02002,160.06902c-1.125,0.153 -3.02,1.834 -3.02,1.834c0,0 0.207,-1.009 0.503,-1.299c0.8,-1.156 2.487,-1.604 2.487,-1.604c0,0 2.173,0.703 2.65,1.588c0.443,0.824 0.34,1.238 0.34,1.238c0,0 -2.121,-1.871 -2.96,-1.756z" fill="#683918"/><path d="M239.20002,163.69601c0,0 6.897,3.208 13.172,-0.397c0,0 -1.39,5.47 -5.95,5.561c-4.115,0.122 -4.984,-1.492 -5.477,-1.956c-0.492,-0.463 -1.42,-1.772 -1.745,-3.208" fill="#683918"/><path d="M268.02302,148.79101c0.037,2.537 -0.853,8.026 -2.585,11.3c0,0 -4.248,-12.022 -7.748,-13.929c-4.283,-2.327 -15.567,1.028 -19.39,-1.987c-0.635,-0.505 -0.562,-1.636 -0.562,-1.636c0,0 -0.731,1.445 -1.087,1.847c-1.851,2.108 -6.659,5.16 -8.939,6.798c-1.832,1.317 -1.918,1.302 -1.512,8.907c0,0 -3.37,-6.92 -3.185,-11.536c0.052,-1.333 0.697,-4.285 1.75,-7.281c3.8,-7.632 11.684,-12.87 20.79,-12.87c10.466,0 19.309,6.913 22.21,16.42c0.163,1.467 0.246,2.837 0.258,3.967" data-paper-data="{&quot;origPos&quot;:null}" fill="#3d3c3a"/></g></g></svg>