<svg xmlns="http://www.w3.org/2000/svg" width="61.813" height="116.341"><g fill-rule="evenodd" stroke-miterlimit="10" data-paper-data="{&quot;isPaintingLayer&quot;:true}" style="mix-blend-mode:normal"><path fill="#7d552a" d="M0 47.933c8.21 12.82 19.164 2.122 15.438-9.21-2.706-8.228 11.974 2.675 11.974 2.675S18.817 65.246 11.36 65.6C3.903 65.958-.025 54.287 0 47.934" data-paper-data="{&quot;origPos&quot;:null}"/><path fill="#ffdb80" d="m28.424 110.423-.509-19.214s4.3-4.75 6.272-5.301c1.42-.396 5.817.913 5.817.913l-1.948 23.601h-.009c1.806 1.125 3.115 3.416 1.574 5.282-1.17 1.314-2.89.277-4.194-.276-1.446-.692-3.094-1.179-4.4-2.079-.844-.591-1.834-1.238-2.403-2.123-.179-.275-.262-.55-.2-.804m-10.934.001h-.006L15.537 86.82s4.334-1.327 5.737-.943c1.993.55 6.351 5.331 6.351 5.331l-.51 19.213c.061.264-.022.53-.2.804-.57.885-1.56 1.532-2.404 2.123-1.306.9-2.958 1.387-4.4 2.079-1.306.553-3.022 1.59-4.193.276-1.544-1.866-.234-4.161 1.571-5.282M4.356 77.585c.104-.999.436-1.89.911-2.58-.004.04-.004.062-.004.062s1.405-14.207 5.078-18.93c1.682-2.162 7.492-5.3 8.171-5.664 1.282-.934 4.177-1.354 5.974-1.526-.3-.666-.483-1.392-.483-1.92h7.598c0 .528-.176 1.241-.475 1.903 1.768.174 4.342.759 6.02 1.526.742.34 2.303.834 3.071 1.108 2.317.812 8.544 3.084 8.544 3.084l5.51-6.51a4.287 4.287 0 0 1-.206-.84c-.354-.648-.645-1.456-.82-2.36-.456-2.366.053-4.45 1.137-4.665.581-.111 1.207.334 1.737 1.136 1.17-1.13 2.61-1.6 3.815-1.089 1.846.787 2.43 3.585 1.31 6.249-.722 1.71-1.97 2.948-3.26 3.411h.002s-3.434 9.815-6.425 10.907c-2.423.883-11.265-2.69-11.265-2.69v-.014c1.66 10.2-.079 25.772-.079 25.772H15.321s-1.489-14.134-.154-24.298v.007c-.196.54-1.275 1.498-2.127 2.71-1.705 2.426-3.3 12.689-3.3 12.689.04.068.075.14.11.214.431.424.853.996 1.204 1.663.928 1.757 1.024 3.527.22 3.957-.43.23-1.035.03-1.642-.475-.654 1.174-1.682 1.896-2.753 1.78-1.644-.175-2.772-2.24-2.523-4.617" data-paper-data="{&quot;origPos&quot;:null}"/><path fill="#eeac6c" d="M24.816 49.556c-.43-.658-.727-1.569-.8-2.229a22.85 22.85 0 0 0 7.573-.03l-.015.015-6.757 2.244"/><path fill="#0771b7" d="M40.483 59.458c1.546 6.66-.045 26.79-.48 27.364-4.94-.075-12.088 4.387-12.088 4.387h-.29s-6.94-4.59-12.088-4.386c-.434-.575-1.852-19.65-.507-26.015 0 0 6.4-3.872 7.148-11.558a8.276 8.276 0 0 1 1.54-.221s.3 5.893 4.195 5.893c4.03 0 4.126-5.88 4.126-5.88s.941.096 1.69.323c.38 7.719 6.754 10.093 6.754 10.093"/><path fill="#2aa73f" d="M27.913 54.921c1.124 0 1.944-.456 2.538-1.116l-3.039 9.021-9.408 24.208c-.845-.162-1.675-.244-2.465-.212-.356-.467-1.36-13.211-.996-21.362l9.77-13.592c.553 1.506 1.605 3.053 3.6 3.053"/><path fill="#eeeeed" d="M18.99 87.254a13.813 13.813 0 0 0-2.33-.404l12.233-32.06c3.068-.865 3.147-5.75 3.147-5.75s.334.035.762.11L18.99 87.254"/><path fill="#ffdb80" d="M5.41 27.975a23.657 23.657 0 0 1-.257-3.476c0-12.77 10.285-23.122 22.972-23.122 12.687 0 22.972 10.353 22.972 23.122 0 1.125-.08 2.235-.234 3.317 1.326.73 2.22 2.108 2.22 3.69 0 2.346-1.965 4.25-4.388 4.25-.16 0-.325-.011-.483-.026-3.924 7.092-11.45 11.89-20.087 11.89-8.63 0-16.147-4.79-20.073-11.87a4.717 4.717 0 0 1-.206.005c-2.423 0-4.386-1.903-4.386-4.25 0-1.471.77-2.77 1.95-3.53" data-paper-data="{&quot;origPos&quot;:null}"/><path fill="#7d552a" d="M24.228 22.863s-.503 1.803-2.082 1.446c-.772-.174-.908-1.201-3.386-.74-.779.18-2.417 1.156-2.732 1.808-.316.652-.088-2.392 2.457-3.522 1.835-.675 2.457-.642 3.977-.642s1.987.907 1.766 1.65m9.741 0s.503 1.803 2.082 1.446c.772-.174.908-1.201 3.386-.74.78.18 2.417 1.156 2.732 1.808.316.652.087-2.392-2.457-3.522-1.835-.675-2.457-.642-3.977-.642s-1.987.907-1.766 1.65M21.917 30.213c0 1.657-.895 3-2 3s-2-1.343-2-3 .895-3 2-3 2 1.343 2 3m18 0c0 1.657-.895 3-2 3s-2-1.343-2-3 .895-3 2-3 2 1.343 2 3" data-paper-data="{&quot;origPos&quot;:null}"/><path fill="#eeac6c" d="M28.937 33.282c-1.125.153-3.02 1.834-3.02 1.834s.207-1.009.503-1.299c.8-1.156 2.487-1.604 2.487-1.604s2.173.703 2.65 1.588c.443.824.34 1.238.34 1.238s-2.12-1.871-2.96-1.756zM22.117 36.909s6.897 3.208 13.172-.397c0 0-1.39 5.47-5.95 5.561-4.115.122-4.984-1.492-5.477-1.956-.492-.463-1.42-1.772-1.745-3.208"/><path fill="#7d552a" d="M51.91 21.713c.034 2.702-1.16 6.459-1.16 6.459s-6.068-7.23-9.773-9.259c-4.524-2.478-6.78 1.172-10.824-2.043-.67-.531-1.92-1.941-1.92-1.941s-1.522 1.545-1.927 1.941c-4.547 4.481-7.954-.745-11.786 1.957-4.87 3.448-8.987 9.182-8.987 9.182s-1.418-1.631-1.222-6.551c.058-1.414.741-4.558 1.852-7.75C10.185 5.584 18.518 0 28.153 0c11.06 0 20.412 7.365 23.482 17.488.158 1.403.25 2.813.275 4.225" data-paper-data="{&quot;origPos&quot;:null}"/></g></svg>