<?xml version="1.0" encoding="UTF-8"?>
<svg width="480px" height="360px" viewBox="0 0 480 360" version="1.1" xmlns="http://www.w3.org/2000/svg" xmlns:xlink="http://www.w3.org/1999/xlink">
    <!-- Generator: Sketch 63.1 (92452) - https://sketch.com -->
    <title>网格02</title>
    <desc>Created with Sketch.</desc>
    <g id="网格02" stroke="none" stroke-width="1" fill="none" fill-rule="evenodd">
        <rect fill="#FFFFFF" x="0" y="0" width="480" height="360"></rect>
        <g id="编组">
            <polygon id="直线-2" fill="#FF974C" fill-rule="nonzero" points="480 179.333333 480 180.666667 0 180.666667 0 179.333333"></polygon>
            <path d="M41.3333333,0 L41.333,79.852 L140.666,79.852 L140.666667,0 L141.333333,0 L141.333,79.852 L341.333,79.852 L341.333333,0 L342,0 L342,79.852 L441.333,79.852 L441.333333,0 L442,0 L442,79.852 L480,79.8521257 L480,80.5187924 L442,80.518 L442,279.333 L480,279.333333 L480,280 L442,280 L442,360 L441.333333,360 L441.333,280 L342,280 L342,360 L341.333333,360 L341.333,280 L141.333,280 L141.333333,360 L140.666667,360 L140.666,280 L41.333,280 L41.3333333,360 L40.6666667,360 L40.666,280 L0,280 L0,279.333333 L40.666,279.333 L40.666,80.518 L0,80.5187924 L0,79.8521257 L40.666,79.852 L40.6666667,0 L41.3333333,0 Z M441.333,279.333 L441.333,80.518 L342,80.518 L342,279.333 L441.333,279.333 Z M341.333,80.518 L141.333,80.518 L141.333,279.333 L341.333,279.333 L341.333,80.518 Z M140.666,80.518 L41.333,80.518 L41.333,279.333 L140.666,279.333 L140.666,80.518 Z" id="形状结合" fill="#D7D8E5" fill-rule="nonzero"></path>
            <polygon id="直线-2" fill="#2E20C7" fill-rule="nonzero" points="240.666667 0 240.666667 360 239.333333 360 239.333333 0"></polygon>
            <circle id="椭圆形" fill="#7B7A97" cx="240" cy="180" r="4"></circle>
            <path d="M2.96059473e-16,184.333333 C2.209139,184.333333 4,182.542472 4,180.333333 C4,178.124194 2.209139,176.333333 2.96059473e-16,176.333333 L2.96059473e-16,184.333333 Z" id="椭圆形备份-3" fill="#7B7A97"></path>
            <path d="M240,4 C242.209139,4 244,2.209139 244,2.96059473e-16 L236,2.96059473e-16 C236,2.209139 237.790861,4 240,4 Z" id="椭圆形备份-2" fill="#7B7A97"></path>
            <path d="M480,184 L480,176 C477.790861,176 476,177.790861 476,180 C476,182.209139 477.790861,184 480,184 Z" id="椭圆形备份" fill="#7B7A97"></path>
            <path d="M232.766667,15.3333333 L232.766667,11.6133333 L235.726667,5.52 L234.113333,5.52 L232.966667,8.12 C232.673333,8.85333333 232.353333,9.53333333 232.033333,10.28 L231.98,10.28 C231.646667,9.53333333 231.366667,8.85333333 231.06,8.12 L229.926667,5.52 L228.273333,5.52 L231.22,11.6133333 L231.22,15.3333333 L232.766667,15.3333333 Z" id="Y" fill="#2E20C7" fill-rule="nonzero"></path>
            <g id="(X:0,Y:180)" transform="translate(246.000000, 4.000000)" fill-rule="nonzero">
                <path d="M1.57866667,10.912 L2.34666667,10.5706667 C1.42933333,9.04533333 1.00266667,7.24266667 1.00266667,5.45066667 C1.00266667,3.66933333 1.42933333,1.86666667 2.34666667,0.330666667 L1.57866667,-2.13162821e-14 C0.586666667,1.61066667 0,3.34933333 0,5.45066667 C0,7.57333333 0.586666667,9.29066667 1.57866667,10.912 Z" id="(" fill="#787A89"></path>
                <path d="M4.32,8.78933333 L5.32266667,6.83733333 C5.51466667,6.44266667 5.70666667,6.03733333 5.93066667,5.55733333 L5.97333333,5.55733333 C6.21866667,6.03733333 6.42133333,6.44266667 6.624,6.83733333 L7.65866667,8.78933333 L9.03466667,8.78933333 L6.77333333,4.8 L8.88533333,0.938666667 L7.584,0.938666667 L6.656,2.77333333 C6.47466667,3.136 6.32533333,3.488 6.12266667,3.95733333 L6.06933333,3.95733333 C5.83466667,3.488 5.664,3.136 5.472,2.77333333 L4.52266667,0.938666667 L3.14666667,0.938666667 L5.25866667,4.736 L3.008,8.78933333 L4.32,8.78933333 Z M10.784,4.736 C11.2426667,4.736 11.6053333,4.37333333 11.6053333,3.88266667 C11.6053333,3.38133333 11.2426667,3.008 10.784,3.008 C10.3253333,3.008 9.96266667,3.38133333 9.96266667,3.88266667 C9.96266667,4.37333333 10.3253333,4.736 10.784,4.736 Z M10.784,8.928 C11.2426667,8.928 11.6053333,8.576 11.6053333,8.07466667 C11.6053333,7.57333333 11.2426667,7.2 10.784,7.2 C10.3253333,7.2 9.96266667,7.57333333 9.96266667,8.07466667 C9.96266667,8.576 10.3253333,8.928 10.784,8.928 Z M15.4133333,8.928 C16.9493333,8.928 17.952,7.56266667 17.952,4.832 C17.952,2.12266667 16.9493333,0.789333333 15.4133333,0.789333333 C13.8666667,0.789333333 12.8746667,2.112 12.8746667,4.832 C12.8746667,7.56266667 13.8666667,8.928 15.4133333,8.928 Z M15.4133333,7.95733333 C14.6133333,7.95733333 14.048,7.104 14.048,4.832 C14.048,2.58133333 14.6133333,1.76 15.4133333,1.76 C16.2133333,1.76 16.7786667,2.58133333 16.7786667,4.832 C16.7786667,7.104 16.2133333,7.95733333 15.4133333,7.95733333 Z" id="X:0" fill="#ED5210"></path>
                <path d="M19.296,10.9226667 C20.3946667,10.5066667 21.0453333,9.64266667 21.0453333,8.52266667 C21.0453333,7.70133333 20.6933333,7.2 20.096,7.2 C19.6266667,7.2 19.2426667,7.50933333 19.2426667,7.98933333 C19.2426667,8.50133333 19.6266667,8.77866667 20.064,8.77866667 C20.1066667,8.77866667 20.1386667,8.77866667 20.1813333,8.768 C20.1706667,9.39733333 19.744,9.93066667 19.0186667,10.2293333 L19.296,10.9226667 Z" id="," fill="#787A89"></path>
                <path d="M25.1946667,8.78933333 L25.1946667,5.81333333 L27.5626667,0.938666667 L26.272,0.938666667 L25.3546667,3.01866667 C25.12,3.60533333 24.864,4.14933333 24.608,4.74666667 L24.5653333,4.74666667 C24.2986667,4.14933333 24.0746667,3.60533333 23.8293333,3.01866667 L22.9226667,0.938666667 L21.6,0.938666667 L23.9573333,5.81333333 L23.9573333,8.78933333 L25.1946667,8.78933333 Z M29.12,4.736 C29.5786667,4.736 29.9413333,4.37333333 29.9413333,3.88266667 C29.9413333,3.38133333 29.5786667,3.008 29.12,3.008 C28.6613333,3.008 28.2986667,3.38133333 28.2986667,3.88266667 C28.2986667,4.37333333 28.6613333,4.736 29.12,4.736 Z M29.12,8.928 C29.5786667,8.928 29.9413333,8.576 29.9413333,8.07466667 C29.9413333,7.57333333 29.5786667,7.2 29.12,7.2 C28.6613333,7.2 28.2986667,7.57333333 28.2986667,8.07466667 C28.2986667,8.576 28.6613333,8.928 29.12,8.928 Z M36.1066667,8.78933333 L36.1066667,7.776 L34.5706667,7.776 L34.5706667,0.938666667 L33.6426667,0.938666667 C33.1946667,1.216 32.672,1.39733333 31.936,1.536 L31.936,2.31466667 L33.344,2.31466667 L33.344,7.776 L31.6266667,7.776 L31.6266667,8.78933333 L36.1066667,8.78933333 Z M39.84,8.928 C41.3546667,8.928 42.3786667,8.032 42.3786667,6.86933333 C42.3786667,5.80266667 41.76,5.19466667 41.056,4.78933333 L41.056,4.736 C41.5466667,4.37333333 42.0906667,3.69066667 42.0906667,2.89066667 C42.0906667,1.664 41.2373333,0.810666667 39.872,0.810666667 C38.5813333,0.810666667 37.632,1.61066667 37.632,2.83733333 C37.632,3.66933333 38.1013333,4.256 38.688,4.672 L38.688,4.72533333 C37.9626667,5.10933333 37.28,5.80266667 37.28,6.83733333 C37.28,8.05333333 38.368,8.928 39.84,8.928 Z M40.352,4.42666667 C39.4773333,4.08533333 38.7306667,3.69066667 38.7306667,2.83733333 C38.7306667,2.13333333 39.2106667,1.696 39.8506667,1.696 C40.6186667,1.696 41.056,2.24 41.056,2.96533333 C41.056,3.488 40.8213333,3.98933333 40.352,4.42666667 Z M39.8613333,8.04266667 C39.0186667,8.04266667 38.368,7.49866667 38.368,6.72 C38.368,6.03733333 38.7413333,5.45066667 39.2853333,5.07733333 C40.352,5.51466667 41.216,5.87733333 41.216,6.83733333 C41.216,7.57333333 40.6613333,8.04266667 39.8613333,8.04266667 Z M45.9093333,8.928 C47.4453333,8.928 48.448,7.56266667 48.448,4.832 C48.448,2.12266667 47.4453333,0.789333333 45.9093333,0.789333333 C44.3626667,0.789333333 43.3706667,2.112 43.3706667,4.832 C43.3706667,7.56266667 44.3626667,8.928 45.9093333,8.928 Z M45.9093333,7.95733333 C45.1093333,7.95733333 44.544,7.104 44.544,4.832 C44.544,2.58133333 45.1093333,1.76 45.9093333,1.76 C46.7093333,1.76 47.2746667,2.58133333 47.2746667,4.832 C47.2746667,7.104 46.7093333,7.95733333 45.9093333,7.95733333 Z" id="Y:180" fill="#2E20C7"></path>
                <path d="M50.208,10.912 C51.2106667,9.29066667 51.7973333,7.57333333 51.7973333,5.45066667 C51.7973333,3.34933333 51.2106667,1.61066667 50.208,-2.13162821e-14 L49.44,0.330666667 C50.3573333,1.86666667 50.784,3.66933333 50.784,5.45066667 C50.784,7.24266667 50.3573333,9.04533333 49.44,10.5706667 L50.208,10.912 Z" id=")" fill="#787A89"></path>
            </g>
            <g id="(X:0,Y:0)" transform="translate(247.186667, 162.544000)" fill-rule="nonzero">
                <path d="M1.57866667,10.912 L2.34666667,10.5706667 C1.42933333,9.04533333 1.00266667,7.24266667 1.00266667,5.45066667 C1.00266667,3.66933333 1.42933333,1.86666667 2.34666667,0.330666667 L1.57866667,-2.84217094e-14 C0.586666667,1.61066667 -1.89478063e-14,3.34933333 -1.89478063e-14,5.45066667 C-1.89478063e-14,7.57333333 0.586666667,9.29066667 1.57866667,10.912 Z" id="(" fill="#787A89"></path>
                <path d="M4.32,8.78933333 L5.32266667,6.83733333 C5.51466667,6.44266667 5.70666667,6.03733333 5.93066667,5.55733333 L5.97333333,5.55733333 C6.21866667,6.03733333 6.42133333,6.44266667 6.624,6.83733333 L7.65866667,8.78933333 L9.03466667,8.78933333 L6.77333333,4.8 L8.88533333,0.938666667 L7.584,0.938666667 L6.656,2.77333333 C6.47466667,3.136 6.32533333,3.488 6.12266667,3.95733333 L6.06933333,3.95733333 C5.83466667,3.488 5.664,3.136 5.472,2.77333333 L4.52266667,0.938666667 L3.14666667,0.938666667 L5.25866667,4.736 L3.008,8.78933333 L4.32,8.78933333 Z M10.784,4.736 C11.2426667,4.736 11.6053333,4.37333333 11.6053333,3.88266667 C11.6053333,3.38133333 11.2426667,3.008 10.784,3.008 C10.3253333,3.008 9.96266667,3.38133333 9.96266667,3.88266667 C9.96266667,4.37333333 10.3253333,4.736 10.784,4.736 Z M10.784,8.928 C11.2426667,8.928 11.6053333,8.576 11.6053333,8.07466667 C11.6053333,7.57333333 11.2426667,7.2 10.784,7.2 C10.3253333,7.2 9.96266667,7.57333333 9.96266667,8.07466667 C9.96266667,8.576 10.3253333,8.928 10.784,8.928 Z M15.4133333,8.928 C16.9493333,8.928 17.952,7.56266667 17.952,4.832 C17.952,2.12266667 16.9493333,0.789333333 15.4133333,0.789333333 C13.8666667,0.789333333 12.8746667,2.112 12.8746667,4.832 C12.8746667,7.56266667 13.8666667,8.928 15.4133333,8.928 Z M15.4133333,7.95733333 C14.6133333,7.95733333 14.048,7.104 14.048,4.832 C14.048,2.58133333 14.6133333,1.76 15.4133333,1.76 C16.2133333,1.76 16.7786667,2.58133333 16.7786667,4.832 C16.7786667,7.104 16.2133333,7.95733333 15.4133333,7.95733333 Z" id="X:0" fill="#ED5210"></path>
                <path d="M19.296,10.9226667 C20.3946667,10.5066667 21.0453333,9.64266667 21.0453333,8.52266667 C21.0453333,7.70133333 20.6933333,7.2 20.096,7.2 C19.6266667,7.2 19.2426667,7.50933333 19.2426667,7.98933333 C19.2426667,8.50133333 19.6266667,8.77866667 20.064,8.77866667 C20.1066667,8.77866667 20.1386667,8.77866667 20.1813333,8.768 C20.1706667,9.39733333 19.744,9.93066667 19.0186667,10.2293333 L19.296,10.9226667 Z" id="," fill="#787A89"></path>
                <path d="M25.1946667,8.78933333 L25.1946667,5.81333333 L27.5626667,0.938666667 L26.272,0.938666667 L25.3546667,3.01866667 C25.12,3.60533333 24.864,4.14933333 24.608,4.74666667 L24.5653333,4.74666667 C24.2986667,4.14933333 24.0746667,3.60533333 23.8293333,3.01866667 L22.9226667,0.938666667 L21.6,0.938666667 L23.9573333,5.81333333 L23.9573333,8.78933333 L25.1946667,8.78933333 Z M29.12,4.736 C29.5786667,4.736 29.9413333,4.37333333 29.9413333,3.88266667 C29.9413333,3.38133333 29.5786667,3.008 29.12,3.008 C28.6613333,3.008 28.2986667,3.38133333 28.2986667,3.88266667 C28.2986667,4.37333333 28.6613333,4.736 29.12,4.736 Z M29.12,8.928 C29.5786667,8.928 29.9413333,8.576 29.9413333,8.07466667 C29.9413333,7.57333333 29.5786667,7.2 29.12,7.2 C28.6613333,7.2 28.2986667,7.57333333 28.2986667,8.07466667 C28.2986667,8.576 28.6613333,8.928 29.12,8.928 Z M33.7493333,8.928 C35.2853333,8.928 36.288,7.56266667 36.288,4.832 C36.288,2.12266667 35.2853333,0.789333333 33.7493333,0.789333333 C32.2026667,0.789333333 31.2106667,2.112 31.2106667,4.832 C31.2106667,7.56266667 32.2026667,8.928 33.7493333,8.928 Z M33.7493333,7.95733333 C32.9493333,7.95733333 32.384,7.104 32.384,4.832 C32.384,2.58133333 32.9493333,1.76 33.7493333,1.76 C34.5493333,1.76 35.1146667,2.58133333 35.1146667,4.832 C35.1146667,7.104 34.5493333,7.95733333 33.7493333,7.95733333 Z" id="Y:0" fill="#2E20C7"></path>
                <path d="M38.048,10.912 C39.0506667,9.29066667 39.6373333,7.57333333 39.6373333,5.45066667 C39.6373333,3.34933333 39.0506667,1.61066667 38.048,-2.84217094e-14 L37.28,0.330666667 C38.1973333,1.86666667 38.624,3.66933333 38.624,5.45066667 C38.624,7.24266667 38.1973333,9.04533333 37.28,10.5706667 L38.048,10.912 Z" id=")" fill="#787A89"></path>
            </g>
            <g id="(X:240,Y:0)" transform="translate(424.666667, 162.544000)" fill-rule="nonzero">
                <path d="M1.57866667,10.912 L2.34666667,10.5706667 C1.42933333,9.04533333 1.00266667,7.24266667 1.00266667,5.45066667 C1.00266667,3.66933333 1.42933333,1.86666667 2.34666667,0.330666667 L1.57866667,-2.84217094e-14 C0.586666667,1.61066667 1.5158245e-13,3.34933333 1.5158245e-13,5.45066667 C1.5158245e-13,7.57333333 0.586666667,9.29066667 1.57866667,10.912 Z" id="(" fill="#787A89"></path>
                <path d="M4.32,8.78933333 L5.32266667,6.83733333 C5.51466667,6.44266667 5.70666667,6.03733333 5.93066667,5.55733333 L5.97333333,5.55733333 C6.21866667,6.03733333 6.42133333,6.44266667 6.624,6.83733333 L7.65866667,8.78933333 L9.03466667,8.78933333 L6.77333333,4.8 L8.88533333,0.938666667 L7.584,0.938666667 L6.656,2.77333333 C6.47466667,3.136 6.32533333,3.488 6.12266667,3.95733333 L6.06933333,3.95733333 C5.83466667,3.488 5.664,3.136 5.472,2.77333333 L4.52266667,0.938666667 L3.14666667,0.938666667 L5.25866667,4.736 L3.008,8.78933333 L4.32,8.78933333 Z M10.784,4.736 C11.2426667,4.736 11.6053333,4.37333333 11.6053333,3.88266667 C11.6053333,3.38133333 11.2426667,3.008 10.784,3.008 C10.3253333,3.008 9.96266667,3.38133333 9.96266667,3.88266667 C9.96266667,4.37333333 10.3253333,4.736 10.784,4.736 Z M10.784,8.928 C11.2426667,8.928 11.6053333,8.576 11.6053333,8.07466667 C11.6053333,7.57333333 11.2426667,7.2 10.784,7.2 C10.3253333,7.2 9.96266667,7.57333333 9.96266667,8.07466667 C9.96266667,8.576 10.3253333,8.928 10.784,8.928 Z M17.9093333,8.78933333 L17.9093333,7.744 L15.9466667,7.744 C15.5626667,7.744 15.072,7.776 14.6666667,7.81866667 C16.3306667,6.22933333 17.536,4.66133333 17.536,3.14666667 C17.536,1.728 16.608,0.789333333 15.168,0.789333333 C14.144,0.789333333 13.4506667,1.23733333 12.7786667,1.96266667 L13.472,2.64533333 C13.888,2.16533333 14.4,1.77066667 15.0186667,1.77066667 C15.8933333,1.77066667 16.352,2.35733333 16.352,3.21066667 C16.352,4.50133333 15.1573333,6.02666667 12.8426667,8.07466667 L12.8426667,8.78933333 L17.9093333,8.78933333 Z M23.2106667,8.78933333 L23.2106667,6.67733333 L24.2133333,6.67733333 L24.2133333,5.728 L23.2106667,5.728 L23.2106667,0.938666667 L21.792,0.938666667 L18.6666667,5.856 L18.6666667,6.67733333 L22.0586667,6.67733333 L22.0586667,8.78933333 L23.2106667,8.78933333 Z M22.0586667,5.728 L19.904,5.728 L21.4506667,3.36 C21.6746667,2.95466667 21.888,2.54933333 22.08,2.15466667 L22.1226667,2.15466667 C22.1013333,2.58133333 22.0586667,3.24266667 22.0586667,3.66933333 L22.0586667,5.728 Z M27.5733333,8.928 C29.1093333,8.928 30.112,7.56266667 30.112,4.832 C30.112,2.12266667 29.1093333,0.789333333 27.5733333,0.789333333 C26.0266667,0.789333333 25.0346667,2.112 25.0346667,4.832 C25.0346667,7.56266667 26.0266667,8.928 27.5733333,8.928 Z M27.5733333,7.95733333 C26.7733333,7.95733333 26.208,7.104 26.208,4.832 C26.208,2.58133333 26.7733333,1.76 27.5733333,1.76 C28.3733333,1.76 28.9386667,2.58133333 28.9386667,4.832 C28.9386667,7.104 28.3733333,7.95733333 27.5733333,7.95733333 Z" id="X:240" fill="#ED5210"></path>
                <path d="M31.456,10.9226667 C32.5546667,10.5066667 33.2053333,9.64266667 33.2053333,8.52266667 C33.2053333,7.70133333 32.8533333,7.2 32.256,7.2 C31.7866667,7.2 31.4026667,7.50933333 31.4026667,7.98933333 C31.4026667,8.50133333 31.7866667,8.77866667 32.224,8.77866667 C32.2666667,8.77866667 32.2986667,8.77866667 32.3413333,8.768 C32.3306667,9.39733333 31.904,9.93066667 31.1786667,10.2293333 L31.456,10.9226667 Z" id="," fill="#787A89"></path>
                <path d="M37.3546667,8.78933333 L37.3546667,5.81333333 L39.7226667,0.938666667 L38.432,0.938666667 L37.5146667,3.01866667 C37.28,3.60533333 37.024,4.14933333 36.768,4.74666667 L36.7253333,4.74666667 C36.4586667,4.14933333 36.2346667,3.60533333 35.9893333,3.01866667 L35.0826667,0.938666667 L33.76,0.938666667 L36.1173333,5.81333333 L36.1173333,8.78933333 L37.3546667,8.78933333 Z M41.28,4.736 C41.7386667,4.736 42.1013333,4.37333333 42.1013333,3.88266667 C42.1013333,3.38133333 41.7386667,3.008 41.28,3.008 C40.8213333,3.008 40.4586667,3.38133333 40.4586667,3.88266667 C40.4586667,4.37333333 40.8213333,4.736 41.28,4.736 Z M41.28,8.928 C41.7386667,8.928 42.1013333,8.576 42.1013333,8.07466667 C42.1013333,7.57333333 41.7386667,7.2 41.28,7.2 C40.8213333,7.2 40.4586667,7.57333333 40.4586667,8.07466667 C40.4586667,8.576 40.8213333,8.928 41.28,8.928 Z M45.9093333,8.928 C47.4453333,8.928 48.448,7.56266667 48.448,4.832 C48.448,2.12266667 47.4453333,0.789333333 45.9093333,0.789333333 C44.3626667,0.789333333 43.3706667,2.112 43.3706667,4.832 C43.3706667,7.56266667 44.3626667,8.928 45.9093333,8.928 Z M45.9093333,7.95733333 C45.1093333,7.95733333 44.544,7.104 44.544,4.832 C44.544,2.58133333 45.1093333,1.76 45.9093333,1.76 C46.7093333,1.76 47.2746667,2.58133333 47.2746667,4.832 C47.2746667,7.104 46.7093333,7.95733333 45.9093333,7.95733333 Z" id="Y:0" fill="#2E20C7"></path>
                <path d="M50.208,10.912 C51.2106667,9.29066667 51.7973333,7.57333333 51.7973333,5.45066667 C51.7973333,3.34933333 51.2106667,1.61066667 50.208,-2.84217094e-14 L49.44,0.330666667 C50.3573333,1.86666667 50.784,3.66933333 50.784,5.45066667 C50.784,7.24266667 50.3573333,9.04533333 49.44,10.5706667 L50.208,10.912 Z" id=")" fill="#787A89"></path>
            </g>
            <g id="(X:0,Y:-180)" transform="translate(246.000000, 344.666667)" fill-rule="nonzero">
                <path d="M1.57866667,10.912 L2.34666667,10.5706667 C1.42933333,9.04533333 1.00266667,7.24266667 1.00266667,5.45066667 C1.00266667,3.66933333 1.42933333,1.86666667 2.34666667,0.330666667 L1.57866667,0 C0.586666667,1.61066667 -1.70530257e-13,3.34933333 -1.70530257e-13,5.45066667 C-1.70530257e-13,7.57333333 0.586666667,9.29066667 1.57866667,10.912 Z" id="(" fill="#787A89"></path>
                <path d="M4.32,8.78933333 L5.32266667,6.83733333 C5.51466667,6.44266667 5.70666667,6.03733333 5.93066667,5.55733333 L5.97333333,5.55733333 C6.21866667,6.03733333 6.42133333,6.44266667 6.624,6.83733333 L7.65866667,8.78933333 L9.03466667,8.78933333 L6.77333333,4.8 L8.88533333,0.938666667 L7.584,0.938666667 L6.656,2.77333333 C6.47466667,3.136 6.32533333,3.488 6.12266667,3.95733333 L6.06933333,3.95733333 C5.83466667,3.488 5.664,3.136 5.472,2.77333333 L4.52266667,0.938666667 L3.14666667,0.938666667 L5.25866667,4.736 L3.008,8.78933333 L4.32,8.78933333 Z M10.784,4.736 C11.2426667,4.736 11.6053333,4.37333333 11.6053333,3.88266667 C11.6053333,3.38133333 11.2426667,3.008 10.784,3.008 C10.3253333,3.008 9.96266667,3.38133333 9.96266667,3.88266667 C9.96266667,4.37333333 10.3253333,4.736 10.784,4.736 Z M10.784,8.928 C11.2426667,8.928 11.6053333,8.576 11.6053333,8.07466667 C11.6053333,7.57333333 11.2426667,7.2 10.784,7.2 C10.3253333,7.2 9.96266667,7.57333333 9.96266667,8.07466667 C9.96266667,8.576 10.3253333,8.928 10.784,8.928 Z M15.4133333,8.928 C16.9493333,8.928 17.952,7.56266667 17.952,4.832 C17.952,2.12266667 16.9493333,0.789333333 15.4133333,0.789333333 C13.8666667,0.789333333 12.8746667,2.112 12.8746667,4.832 C12.8746667,7.56266667 13.8666667,8.928 15.4133333,8.928 Z M15.4133333,7.95733333 C14.6133333,7.95733333 14.048,7.104 14.048,4.832 C14.048,2.58133333 14.6133333,1.76 15.4133333,1.76 C16.2133333,1.76 16.7786667,2.58133333 16.7786667,4.832 C16.7786667,7.104 16.2133333,7.95733333 15.4133333,7.95733333 Z" id="X:0" fill="#ED5210"></path>
                <path d="M19.296,10.9226667 C20.3946667,10.5066667 21.0453333,9.64266667 21.0453333,8.52266667 C21.0453333,7.70133333 20.6933333,7.2 20.096,7.2 C19.6266667,7.2 19.2426667,7.50933333 19.2426667,7.98933333 C19.2426667,8.50133333 19.6266667,8.77866667 20.064,8.77866667 C20.1066667,8.77866667 20.1386667,8.77866667 20.1813333,8.768 C20.1706667,9.39733333 19.744,9.93066667 19.0186667,10.2293333 L19.296,10.9226667 Z" id="," fill="#787A89"></path>
                <path d="M25.1946667,8.78933333 L25.1946667,5.81333333 L27.5626667,0.938666667 L26.272,0.938666667 L25.3546667,3.01866667 C25.12,3.60533333 24.864,4.14933333 24.608,4.74666667 L24.5653333,4.74666667 C24.2986667,4.14933333 24.0746667,3.60533333 23.8293333,3.01866667 L22.9226667,0.938666667 L21.6,0.938666667 L23.9573333,5.81333333 L23.9573333,8.78933333 L25.1946667,8.78933333 Z M29.12,4.736 C29.5786667,4.736 29.9413333,4.37333333 29.9413333,3.88266667 C29.9413333,3.38133333 29.5786667,3.008 29.12,3.008 C28.6613333,3.008 28.2986667,3.38133333 28.2986667,3.88266667 C28.2986667,4.37333333 28.6613333,4.736 29.12,4.736 Z M29.12,8.928 C29.5786667,8.928 29.9413333,8.576 29.9413333,8.07466667 C29.9413333,7.57333333 29.5786667,7.2 29.12,7.2 C28.6613333,7.2 28.2986667,7.57333333 28.2986667,8.07466667 C28.2986667,8.576 28.6613333,8.928 29.12,8.928 Z M34.0266667,6.22933333 L34.0266667,5.32266667 L31.2106667,5.32266667 L31.2106667,6.22933333 L34.0266667,6.22933333 Z M39.9146667,8.78933333 L39.9146667,7.776 L38.3786667,7.776 L38.3786667,0.938666667 L37.4506667,0.938666667 C37.0026667,1.216 36.48,1.39733333 35.744,1.536 L35.744,2.31466667 L37.152,2.31466667 L37.152,7.776 L35.4346667,7.776 L35.4346667,8.78933333 L39.9146667,8.78933333 Z M43.648,8.928 C45.1626667,8.928 46.1866667,8.032 46.1866667,6.86933333 C46.1866667,5.80266667 45.568,5.19466667 44.864,4.78933333 L44.864,4.736 C45.3546667,4.37333333 45.8986667,3.69066667 45.8986667,2.89066667 C45.8986667,1.664 45.0453333,0.810666667 43.68,0.810666667 C42.3893333,0.810666667 41.44,1.61066667 41.44,2.83733333 C41.44,3.66933333 41.9093333,4.256 42.496,4.672 L42.496,4.72533333 C41.7706667,5.10933333 41.088,5.80266667 41.088,6.83733333 C41.088,8.05333333 42.176,8.928 43.648,8.928 Z M44.16,4.42666667 C43.2853333,4.08533333 42.5386667,3.69066667 42.5386667,2.83733333 C42.5386667,2.13333333 43.0186667,1.696 43.6586667,1.696 C44.4266667,1.696 44.864,2.24 44.864,2.96533333 C44.864,3.488 44.6293333,3.98933333 44.16,4.42666667 Z M43.6693333,8.04266667 C42.8266667,8.04266667 42.176,7.49866667 42.176,6.72 C42.176,6.03733333 42.5493333,5.45066667 43.0933333,5.07733333 C44.16,5.51466667 45.024,5.87733333 45.024,6.83733333 C45.024,7.57333333 44.4693333,8.04266667 43.6693333,8.04266667 Z M49.7173333,8.928 C51.2533333,8.928 52.256,7.56266667 52.256,4.832 C52.256,2.12266667 51.2533333,0.789333333 49.7173333,0.789333333 C48.1706667,0.789333333 47.1786667,2.112 47.1786667,4.832 C47.1786667,7.56266667 48.1706667,8.928 49.7173333,8.928 Z M49.7173333,7.95733333 C48.9173333,7.95733333 48.352,7.104 48.352,4.832 C48.352,2.58133333 48.9173333,1.76 49.7173333,1.76 C50.5173333,1.76 51.0826667,2.58133333 51.0826667,4.832 C51.0826667,7.104 50.5173333,7.95733333 49.7173333,7.95733333 Z" id="Y:-180" fill="#2E20C7"></path>
                <path d="M54.016,10.912 C55.0186667,9.29066667 55.6053333,7.57333333 55.6053333,5.45066667 C55.6053333,3.34933333 55.0186667,1.61066667 54.016,0 L53.248,0.330666667 C54.1653333,1.86666667 54.592,3.66933333 54.592,5.45066667 C54.592,7.24266667 54.1653333,9.04533333 53.248,10.5706667 L54.016,10.912 Z" id=")" fill="#787A89"></path>
            </g>
            <g id="(X:240,Y:0)备份" transform="translate(4.000000, 162.544000)" fill-rule="nonzero">
                <path d="M1.57866667,10.912 L2.34666667,10.5706667 C1.42933333,9.04533333 1.00266667,7.24266667 1.00266667,5.45066667 C1.00266667,3.66933333 1.42933333,1.86666667 2.34666667,0.330666667 L1.57866667,0 C0.586666667,1.61066667 0,3.34933333 0,5.45066667 C0,7.57333333 0.586666667,9.29066667 1.57866667,10.912 Z" id="(" fill="#787A89"></path>
                <path d="M4.584,9.456 L5.58666667,7.504 C5.77866667,7.10933333 5.97066667,6.704 6.19466667,6.224 L6.23733333,6.224 C6.48266667,6.704 6.68533333,7.10933333 6.888,7.504 L7.92266667,9.456 L9.29866667,9.456 L7.03733333,5.46666667 L9.14933333,1.60533333 L7.848,1.60533333 L6.92,3.44 C6.73866667,3.80266667 6.58933333,4.15466667 6.38666667,4.624 L6.33333333,4.624 C6.09866667,4.15466667 5.928,3.80266667 5.736,3.44 L4.78666667,1.60533333 L3.41066667,1.60533333 L5.52266667,5.40266667 L3.272,9.456 L4.584,9.456 Z M11.048,5.40266667 C11.5066667,5.40266667 11.8693333,5.04 11.8693333,4.54933333 C11.8693333,4.048 11.5066667,3.67466667 11.048,3.67466667 C10.5893333,3.67466667 10.2266667,4.048 10.2266667,4.54933333 C10.2266667,5.04 10.5893333,5.40266667 11.048,5.40266667 Z M11.048,9.59466667 C11.5066667,9.59466667 11.8693333,9.24266667 11.8693333,8.74133333 C11.8693333,8.24 11.5066667,7.86666667 11.048,7.86666667 C10.5893333,7.86666667 10.2266667,8.24 10.2266667,8.74133333 C10.2266667,9.24266667 10.5893333,9.59466667 11.048,9.59466667 Z M15.9546667,6.896 L15.9546667,5.98933333 L13.1386667,5.98933333 L13.1386667,6.896 L15.9546667,6.896 Z M21.9813333,9.456 L21.9813333,8.41066667 L20.0186667,8.41066667 C19.6346667,8.41066667 19.144,8.44266667 18.7386667,8.48533333 C20.4026667,6.896 21.608,5.328 21.608,3.81333333 C21.608,2.39466667 20.68,1.456 19.24,1.456 C18.216,1.456 17.5226667,1.904 16.8506667,2.62933333 L17.544,3.312 C17.96,2.832 18.472,2.43733333 19.0906667,2.43733333 C19.9653333,2.43733333 20.424,3.024 20.424,3.87733333 C20.424,5.168 19.2293333,6.69333333 16.9146667,8.74133333 L16.9146667,9.456 L21.9813333,9.456 Z M27.2826667,9.456 L27.2826667,7.344 L28.2853333,7.344 L28.2853333,6.39466667 L27.2826667,6.39466667 L27.2826667,1.60533333 L25.864,1.60533333 L22.7386667,6.52266667 L22.7386667,7.344 L26.1306667,7.344 L26.1306667,9.456 L27.2826667,9.456 Z M26.1306667,6.39466667 L23.976,6.39466667 L25.5226667,4.02666667 C25.7466667,3.62133333 25.96,3.216 26.152,2.82133333 L26.1946667,2.82133333 C26.1733333,3.248 26.1306667,3.90933333 26.1306667,4.336 L26.1306667,6.39466667 Z M31.6453333,9.59466667 C33.1813333,9.59466667 34.184,8.22933333 34.184,5.49866667 C34.184,2.78933333 33.1813333,1.456 31.6453333,1.456 C30.0986667,1.456 29.1066667,2.77866667 29.1066667,5.49866667 C29.1066667,8.22933333 30.0986667,9.59466667 31.6453333,9.59466667 Z M31.6453333,8.624 C30.8453333,8.624 30.28,7.77066667 30.28,5.49866667 C30.28,3.248 30.8453333,2.42666667 31.6453333,2.42666667 C32.4453333,2.42666667 33.0106667,3.248 33.0106667,5.49866667 C33.0106667,7.77066667 32.4453333,8.624 31.6453333,8.624 Z" id="X:-240" fill="#ED5210"></path>
                <path d="M36.7893333,10.9226667 C37.888,10.5066667 38.5386667,9.64266667 38.5386667,8.52266667 C38.5386667,7.70133333 38.1866667,7.2 37.5893333,7.2 C37.12,7.2 36.736,7.50933333 36.736,7.98933333 C36.736,8.50133333 37.12,8.77866667 37.5573333,8.77866667 C37.6,8.77866667 37.632,8.77866667 37.6746667,8.768 C37.664,9.39733333 37.2373333,9.93066667 36.512,10.2293333 L36.7893333,10.9226667 Z" id="," fill="#787A89"></path>
                <path d="M42.688,8.78933333 L42.688,5.81333333 L45.056,0.938666667 L43.7653333,0.938666667 L42.848,3.01866667 C42.6133333,3.60533333 42.3573333,4.14933333 42.1013333,4.74666667 L42.0586667,4.74666667 C41.792,4.14933333 41.568,3.60533333 41.3226667,3.01866667 L40.416,0.938666667 L39.0933333,0.938666667 L41.4506667,5.81333333 L41.4506667,8.78933333 L42.688,8.78933333 Z M46.6133333,4.736 C47.072,4.736 47.4346667,4.37333333 47.4346667,3.88266667 C47.4346667,3.38133333 47.072,3.008 46.6133333,3.008 C46.1546667,3.008 45.792,3.38133333 45.792,3.88266667 C45.792,4.37333333 46.1546667,4.736 46.6133333,4.736 Z M46.6133333,8.928 C47.072,8.928 47.4346667,8.576 47.4346667,8.07466667 C47.4346667,7.57333333 47.072,7.2 46.6133333,7.2 C46.1546667,7.2 45.792,7.57333333 45.792,8.07466667 C45.792,8.576 46.1546667,8.928 46.6133333,8.928 Z M51.2426667,8.928 C52.7786667,8.928 53.7813333,7.56266667 53.7813333,4.832 C53.7813333,2.12266667 52.7786667,0.789333333 51.2426667,0.789333333 C49.696,0.789333333 48.704,2.112 48.704,4.832 C48.704,7.56266667 49.696,8.928 51.2426667,8.928 Z M51.2426667,7.95733333 C50.4426667,7.95733333 49.8773333,7.104 49.8773333,4.832 C49.8773333,2.58133333 50.4426667,1.76 51.2426667,1.76 C52.0426667,1.76 52.608,2.58133333 52.608,4.832 C52.608,7.104 52.0426667,7.95733333 51.2426667,7.95733333 Z" id="Y:0" fill="#2E20C7"></path>
                <path d="M55.5413333,10.912 C56.544,9.29066667 57.1306667,7.57333333 57.1306667,5.45066667 C57.1306667,3.34933333 56.544,1.61066667 55.5413333,0 L54.7733333,0.330666667 C55.6906667,1.86666667 56.1173333,3.66933333 56.1173333,5.45066667 C56.1173333,7.24266667 55.6906667,9.04533333 54.7733333,10.5706667 L55.5413333,10.912 Z" id=")" fill="#787A89"></path>
            </g>
            <path d="M244,360 C244,357.790861 242.209139,356 240,356 C237.790861,356 236,357.790861 236,360 L244,360 Z" id="椭圆形备份-4" fill="#7B7A97"></path>
        </g>
        <path d="M120.293333,193.44 L120.293333,192.533333 L117.477333,192.533333 L117.477333,193.44 L120.293333,193.44 Z M126.181333,196 L126.181333,194.986667 L124.645333,194.986667 L124.645333,188.149333 L123.717333,188.149333 C123.269333,188.426667 122.746667,188.608 122.010667,188.746667 L122.010667,189.525333 L123.418667,189.525333 L123.418667,194.986667 L121.701333,194.986667 L121.701333,196 L126.181333,196 Z M129.904,196.138667 C131.44,196.138667 132.442667,194.773333 132.442667,192.042667 C132.442667,189.333333 131.44,188 129.904,188 C128.357333,188 127.365333,189.322667 127.365333,192.042667 C127.365333,194.773333 128.357333,196.138667 129.904,196.138667 Z M129.904,195.168 C129.104,195.168 128.538667,194.314667 128.538667,192.042667 C128.538667,189.792 129.104,188.970667 129.904,188.970667 C130.704,188.970667 131.269333,189.792 131.269333,192.042667 C131.269333,194.314667 130.704,195.168 129.904,195.168 Z M135.984,196.138667 C137.52,196.138667 138.522667,194.773333 138.522667,192.042667 C138.522667,189.333333 137.52,188 135.984,188 C134.437333,188 133.445333,189.322667 133.445333,192.042667 C133.445333,194.773333 134.437333,196.138667 135.984,196.138667 Z M135.984,195.168 C135.184,195.168 134.618667,194.314667 134.618667,192.042667 C134.618667,189.792 135.184,188.970667 135.984,188.970667 C136.784,188.970667 137.349333,189.792 137.349333,192.042667 C137.349333,194.314667 136.784,195.168 135.984,195.168 Z" id="-100" fill="#ED5210" fill-rule="nonzero" opacity="0.403836" transform="translate(128.000000, 192.069333) rotate(-30.000000) translate(-128.000000, -192.069333) "></path>
        <path d="M324.277333,196 L324.277333,194.986667 L322.741333,194.986667 L322.741333,188.149333 L321.813333,188.149333 C321.365333,188.426667 320.842667,188.608 320.106667,188.746667 L320.106667,189.525333 L321.514667,189.525333 L321.514667,194.986667 L319.797333,194.986667 L319.797333,196 L324.277333,196 Z M328,196.138667 C329.536,196.138667 330.538667,194.773333 330.538667,192.042667 C330.538667,189.333333 329.536,188 328,188 C326.453333,188 325.461333,189.322667 325.461333,192.042667 C325.461333,194.773333 326.453333,196.138667 328,196.138667 Z M328,195.168 C327.2,195.168 326.634667,194.314667 326.634667,192.042667 C326.634667,189.792 327.2,188.970667 328,188.970667 C328.8,188.970667 329.365333,189.792 329.365333,192.042667 C329.365333,194.314667 328.8,195.168 328,195.168 Z M334.08,196.138667 C335.616,196.138667 336.618667,194.773333 336.618667,192.042667 C336.618667,189.333333 335.616,188 334.08,188 C332.533333,188 331.541333,189.322667 331.541333,192.042667 C331.541333,194.773333 332.533333,196.138667 334.08,196.138667 Z M334.08,195.168 C333.28,195.168 332.714667,194.314667 332.714667,192.042667 C332.714667,189.792 333.28,188.970667 334.08,188.970667 C334.88,188.970667 335.445333,189.792 335.445333,192.042667 C335.445333,194.314667 334.88,195.168 334.08,195.168 Z" id="100" fill="#ED5210" fill-rule="nonzero" opacity="0.403836" transform="translate(328.208000, 192.069333) rotate(-30.000000) translate(-328.208000, -192.069333) "></path>
        <path d="M223.610667,95.3333333 L223.610667,94.32 L222.074667,94.32 L222.074667,87.4826667 L221.146667,87.4826667 C220.698667,87.76 220.176,87.9413333 219.44,88.08 L219.44,88.8586667 L220.848,88.8586667 L220.848,94.32 L219.130667,94.32 L219.130667,95.3333333 L223.610667,95.3333333 Z M227.333333,95.472 C228.869333,95.472 229.872,94.1066667 229.872,91.376 C229.872,88.6666667 228.869333,87.3333333 227.333333,87.3333333 C225.786667,87.3333333 224.794667,88.656 224.794667,91.376 C224.794667,94.1066667 225.786667,95.472 227.333333,95.472 Z M227.333333,94.5013333 C226.533333,94.5013333 225.968,93.648 225.968,91.376 C225.968,89.1253333 226.533333,88.304 227.333333,88.304 C228.133333,88.304 228.698667,89.1253333 228.698667,91.376 C228.698667,93.648 228.133333,94.5013333 227.333333,94.5013333 Z M233.413333,95.472 C234.949333,95.472 235.952,94.1066667 235.952,91.376 C235.952,88.6666667 234.949333,87.3333333 233.413333,87.3333333 C231.866667,87.3333333 230.874667,88.656 230.874667,91.376 C230.874667,94.1066667 231.866667,95.472 233.413333,95.472 Z M233.413333,94.5013333 C232.613333,94.5013333 232.048,93.648 232.048,91.376 C232.048,89.1253333 232.613333,88.304 233.413333,88.304 C234.213333,88.304 234.778667,89.1253333 234.778667,91.376 C234.778667,93.648 234.213333,94.5013333 233.413333,94.5013333 Z" id="100" fill="#2E20C7" fill-rule="nonzero" opacity="0.403836" transform="translate(227.541333, 91.402667) rotate(-30.000000) translate(-227.541333, -91.402667) "></path>
        <path d="M217.626667,293.44 L217.626667,292.533333 L214.810667,292.533333 L214.810667,293.44 L217.626667,293.44 Z M223.514667,296 L223.514667,294.986667 L221.978667,294.986667 L221.978667,288.149333 L221.050667,288.149333 C220.602667,288.426667 220.08,288.608 219.344,288.746667 L219.344,289.525333 L220.752,289.525333 L220.752,294.986667 L219.034667,294.986667 L219.034667,296 L223.514667,296 Z M227.237333,296.138667 C228.773333,296.138667 229.776,294.773333 229.776,292.042667 C229.776,289.333333 228.773333,288 227.237333,288 C225.690667,288 224.698667,289.322667 224.698667,292.042667 C224.698667,294.773333 225.690667,296.138667 227.237333,296.138667 Z M227.237333,295.168 C226.437333,295.168 225.872,294.314667 225.872,292.042667 C225.872,289.792 226.437333,288.970667 227.237333,288.970667 C228.037333,288.970667 228.602667,289.792 228.602667,292.042667 C228.602667,294.314667 228.037333,295.168 227.237333,295.168 Z M233.317333,296.138667 C234.853333,296.138667 235.856,294.773333 235.856,292.042667 C235.856,289.333333 234.853333,288 233.317333,288 C231.770667,288 230.778667,289.322667 230.778667,292.042667 C230.778667,294.773333 231.770667,296.138667 233.317333,296.138667 Z M233.317333,295.168 C232.517333,295.168 231.952,294.314667 231.952,292.042667 C231.952,289.792 232.517333,288.970667 233.317333,288.970667 C234.117333,288.970667 234.682667,289.792 234.682667,292.042667 C234.682667,294.314667 234.117333,295.168 233.317333,295.168 Z" id="-100" fill="#2E20C7" fill-rule="nonzero" opacity="0.403836" transform="translate(225.333333, 292.069333) rotate(-30.000000) translate(-225.333333, -292.069333) "></path>
        <path d="M424.416,196 L424.416,194.954667 L422.453333,194.954667 C422.069333,194.954667 421.578667,194.986667 421.173333,195.029333 C422.837333,193.44 424.042667,191.872 424.042667,190.357333 C424.042667,188.938667 423.114667,188 421.674667,188 C420.650667,188 419.957333,188.448 419.285333,189.173333 L419.978667,189.856 C420.394667,189.376 420.906667,188.981333 421.525333,188.981333 C422.4,188.981333 422.858667,189.568 422.858667,190.421333 C422.858667,191.712 421.664,193.237333 419.349333,195.285333 L419.349333,196 L424.416,196 Z M428,196.138667 C429.536,196.138667 430.538667,194.773333 430.538667,192.042667 C430.538667,189.333333 429.536,188 428,188 C426.453333,188 425.461333,189.322667 425.461333,192.042667 C425.461333,194.773333 426.453333,196.138667 428,196.138667 Z M428,195.168 C427.2,195.168 426.634667,194.314667 426.634667,192.042667 C426.634667,189.792 427.2,188.970667 428,188.970667 C428.8,188.970667 429.365333,189.792 429.365333,192.042667 C429.365333,194.314667 428.8,195.168 428,195.168 Z M434.08,196.138667 C435.616,196.138667 436.618667,194.773333 436.618667,192.042667 C436.618667,189.333333 435.616,188 434.08,188 C432.533333,188 431.541333,189.322667 431.541333,192.042667 C431.541333,194.773333 432.533333,196.138667 434.08,196.138667 Z M434.08,195.168 C433.28,195.168 432.714667,194.314667 432.714667,192.042667 C432.714667,189.792 433.28,188.970667 434.08,188.970667 C434.88,188.970667 435.445333,189.792 435.445333,192.042667 C435.445333,194.314667 434.88,195.168 434.08,195.168 Z" id="200" fill="#ED5210" fill-rule="nonzero" opacity="0.403836" transform="translate(427.952000, 192.069333) rotate(-30.000000) translate(-427.952000, -192.069333) "></path>
        <path d="M19.6266667,193.44 L19.6266667,192.533333 L16.8106667,192.533333 L16.8106667,193.44 L19.6266667,193.44 Z M25.6533333,196 L25.6533333,194.954667 L23.6906667,194.954667 C23.3066667,194.954667 22.816,194.986667 22.4106667,195.029333 C24.0746667,193.44 25.28,191.872 25.28,190.357333 C25.28,188.938667 24.352,188 22.912,188 C21.888,188 21.1946667,188.448 20.5226667,189.173333 L21.216,189.856 C21.632,189.376 22.144,188.981333 22.7626667,188.981333 C23.6373333,188.981333 24.096,189.568 24.096,190.421333 C24.096,191.712 22.9013333,193.237333 20.5866667,195.285333 L20.5866667,196 L25.6533333,196 Z M29.2373333,196.138667 C30.7733333,196.138667 31.776,194.773333 31.776,192.042667 C31.776,189.333333 30.7733333,188 29.2373333,188 C27.6906667,188 26.6986667,189.322667 26.6986667,192.042667 C26.6986667,194.773333 27.6906667,196.138667 29.2373333,196.138667 Z M29.2373333,195.168 C28.4373333,195.168 27.872,194.314667 27.872,192.042667 C27.872,189.792 28.4373333,188.970667 29.2373333,188.970667 C30.0373333,188.970667 30.6026667,189.792 30.6026667,192.042667 C30.6026667,194.314667 30.0373333,195.168 29.2373333,195.168 Z M35.3173333,196.138667 C36.8533333,196.138667 37.856,194.773333 37.856,192.042667 C37.856,189.333333 36.8533333,188 35.3173333,188 C33.7706667,188 32.7786667,189.322667 32.7786667,192.042667 C32.7786667,194.773333 33.7706667,196.138667 35.3173333,196.138667 Z M35.3173333,195.168 C34.5173333,195.168 33.952,194.314667 33.952,192.042667 C33.952,189.792 34.5173333,188.970667 35.3173333,188.970667 C36.1173333,188.970667 36.6826667,189.792 36.6826667,192.042667 C36.6826667,194.314667 36.1173333,195.168 35.3173333,195.168 Z" id="-200" fill="#ED5210" fill-rule="nonzero" opacity="0.403836" transform="translate(27.333333, 192.069333) rotate(-30.000000) translate(-27.333333, -192.069333) "></path>
    </g>
</svg>