<svg xmlns="http://www.w3.org/2000/svg" width="480" height="360"><g fill="none" fill-rule="evenodd"><path fill="#FFF" d="M0 0h480v360H0z"/><path fill="#FF974C" fill-rule="nonzero" d="M480 179.333v1.334H0v-1.334z"/><path fill="#D7D8E5" fill-rule="nonzero" d="M41.333 0v79.852h99.333V0h.667v79.852h200V0H342v79.852h99.333V0H442v79.852h38v.667l-38-.001v198.815h38V280h-38v80h-.667v-80H342v80h-.667v-80h-200v80h-.666l-.001-80H41.333v80h-.666l-.001-80H0v-.667h40.666V80.518H0v-.666h40.666V0h.667Zm400 279.333V80.518H342v198.815h99.333Zm-100-198.815h-200v198.815h200V80.518Zm-200.667 0H41.333v198.815h99.333V80.518Z"/><path fill="#2E20C7" fill-rule="nonzero" d="M240.667 0v360h-1.334V0z"/><circle cx="240" cy="180" r="4" fill="#7B7A97"/><path fill="#7B7A97" d="M0 184.333a4 4 0 1 0 0-8v8ZM240 4a4 4 0 0 0 4-4h-8a4 4 0 0 0 4 4ZM480 184v-8a4 4 0 1 0 0 8Z"/><path fill="#2E20C7" fill-rule="nonzero" d="M232.767 15.333v-3.72l2.96-6.093h-1.614l-1.146 2.6c-.294.733-.614 1.413-.934 2.16h-.053c-.333-.747-.613-1.427-.92-2.16l-1.133-2.6h-1.654l2.947 6.093v3.72h1.547Z"/><g fill-rule="nonzero"><path fill="#787A89" d="m247.579 14.912.768-.341c-.918-1.526-1.344-3.328-1.344-5.12 0-1.782.426-3.584 1.344-5.12L247.579 4C246.587 5.61 246 7.35 246 9.45c0 2.123.587 3.84 1.579 5.462Z"/><path fill="#ED5210" d="m250.32 12.79 1.003-1.953c.192-.394.384-.8.608-1.28h.042c.246.48.448.886.651 1.28l1.035 1.952h1.376L252.773 8.8l2.112-3.861h-1.301l-.928 1.834c-.181.363-.33.715-.533 1.184h-.054c-.234-.469-.405-.821-.597-1.184l-.95-1.834h-1.375l2.112 3.797-2.251 4.053h1.312Zm6.464-4.054c.459 0 .821-.363.821-.853 0-.502-.362-.875-.821-.875-.459 0-.821.373-.821.875 0 .49.362.853.821.853Zm0 4.192c.459 0 .821-.352.821-.853 0-.502-.362-.875-.821-.875-.459 0-.821.373-.821.875 0 .501.362.853.821.853Zm4.63 0c1.535 0 2.538-1.365 2.538-4.096 0-2.71-1.003-4.043-2.539-4.043-1.546 0-2.538 1.323-2.538 4.043 0 2.73.992 4.096 2.538 4.096Zm0-.97c-.8 0-1.366-.854-1.366-3.126 0-2.25.565-3.072 1.365-3.072s1.366.821 1.366 3.072c0 2.272-.566 3.125-1.366 3.125Z"/><path fill="#787A89" d="M265.296 14.923c1.099-.416 1.75-1.28 1.75-2.4 0-.822-.353-1.323-.95-1.323-.47 0-.853.31-.853.79 0 .511.384.789.821.789.043 0 .075 0 .117-.011-.01.63-.437 1.163-1.162 1.461l.277.694Z"/><path fill="#2E20C7" d="M271.195 12.79V9.812l2.368-4.874h-1.291l-.917 2.08c-.235.586-.491 1.13-.747 1.728h-.043c-.266-.598-.49-1.142-.736-1.728l-.906-2.08H267.6l2.357 4.874v2.976h1.238Zm3.925-4.054c.459 0 .821-.363.821-.853 0-.502-.362-.875-.821-.875-.459 0-.821.373-.821.875 0 .49.362.853.821.853Zm0 4.192c.459 0 .821-.352.821-.853 0-.502-.362-.875-.821-.875-.459 0-.821.373-.821.875 0 .501.362.853.821.853Zm6.987-.139v-1.013h-1.536V4.939h-.928c-.448.277-.971.458-1.707.597v.779h1.408v5.461h-1.717v1.013h4.48Zm3.733.139c1.515 0 2.539-.896 2.539-2.059 0-1.066-.619-1.674-1.323-2.08v-.053c.49-.363 1.035-1.045 1.035-1.845 0-1.227-.854-2.08-2.219-2.08-1.29 0-2.24.8-2.24 2.026 0 .832.47 1.419 1.056 1.835v.053c-.725.384-1.408 1.078-1.408 2.112 0 1.216 1.088 2.091 2.56 2.091Zm.512-4.501c-.875-.342-1.621-.736-1.621-1.59 0-.704.48-1.141 1.12-1.141.768 0 1.205.544 1.205 1.27 0 .522-.235 1.023-.704 1.46Zm-.49 3.616c-.843 0-1.494-.544-1.494-1.323 0-.683.373-1.27.917-1.643 1.067.438 1.931.8 1.931 1.76 0 .736-.555 1.206-1.355 1.206Zm6.047.885c1.536 0 2.539-1.365 2.539-4.096 0-2.71-1.003-4.043-2.539-4.043-1.546 0-2.538 1.323-2.538 4.043 0 2.73.992 4.096 2.538 4.096Zm0-.97c-.8 0-1.365-.854-1.365-3.126 0-2.25.565-3.072 1.365-3.072s1.366.821 1.366 3.072c0 2.272-.566 3.125-1.366 3.125Z"/><path fill="#787A89" d="M296.208 14.912c1.003-1.621 1.59-3.339 1.59-5.461 0-2.102-.587-3.84-1.59-5.451l-.768.33c.917 1.537 1.344 3.34 1.344 5.12 0 1.793-.427 3.595-1.344 5.12l.768.342Z"/></g><g fill-rule="nonzero"><path fill="#787A89" d="m248.765 173.456.768-.341c-.917-1.526-1.344-3.328-1.344-5.12 0-1.782.427-3.584 1.344-5.12l-.768-.331c-.992 1.61-1.578 3.35-1.578 5.45 0 2.123.586 3.84 1.578 5.462Z"/><path fill="#ED5210" d="m251.507 171.333 1.002-1.952c.192-.394.384-.8.608-1.28h.043c.245.48.448.886.65 1.28l1.035 1.952h1.376l-2.261-3.989 2.112-3.861h-1.301l-.928 1.834c-.182.363-.331.715-.534 1.184h-.053c-.235-.469-.405-.821-.597-1.184l-.95-1.834h-1.376l2.112 3.797-2.25 4.053h1.312Zm6.464-4.053c.458 0 .821-.363.821-.853 0-.502-.363-.875-.821-.875-.459 0-.822.373-.822.875 0 .49.363.853.822.853Zm0 4.192c.458 0 .821-.352.821-.853 0-.502-.363-.875-.821-.875-.459 0-.822.373-.822.875 0 .501.363.853.822.853Zm4.629 0c1.536 0 2.539-1.365 2.539-4.096 0-2.71-1.003-4.043-2.539-4.043-1.547 0-2.539 1.323-2.539 4.043 0 2.73.992 4.096 2.539 4.096Zm0-.97c-.8 0-1.365-.854-1.365-3.126 0-2.25.565-3.072 1.365-3.072s1.365.821 1.365 3.072c0 2.272-.565 3.125-1.365 3.125Z"/><path fill="#787A89" d="M266.483 173.467c1.098-.416 1.749-1.28 1.749-2.4 0-.822-.352-1.323-.95-1.323-.469 0-.853.31-.853.79 0 .511.384.789.822.789.042 0 .074 0 .117-.011-.01.63-.437 1.163-1.163 1.461l.278.694Z"/><path fill="#2E20C7" d="M272.381 171.333v-2.976l2.368-4.874h-1.29l-.918 2.08c-.234.586-.49 1.13-.746 1.728h-.043c-.267-.598-.49-1.142-.736-1.728l-.907-2.08h-1.322l2.357 4.874v2.976h1.237Zm3.926-4.053c.458 0 .821-.363.821-.853 0-.502-.363-.875-.821-.875-.459 0-.822.373-.822.875 0 .49.363.853.822.853Zm0 4.192c.458 0 .821-.352.821-.853 0-.502-.363-.875-.821-.875-.459 0-.822.373-.822.875 0 .501.363.853.822.853Zm4.629 0c1.536 0 2.539-1.365 2.539-4.096 0-2.71-1.003-4.043-2.539-4.043-1.547 0-2.539 1.323-2.539 4.043 0 2.73.992 4.096 2.539 4.096Zm0-.97c-.8 0-1.365-.854-1.365-3.126 0-2.25.565-3.072 1.365-3.072s1.365.821 1.365 3.072c0 2.272-.565 3.125-1.365 3.125Z"/><path fill="#787A89" d="M285.235 173.456c1.002-1.621 1.589-3.339 1.589-5.461 0-2.102-.587-3.84-1.59-5.451l-.767.33c.917 1.537 1.344 3.34 1.344 5.12 0 1.793-.427 3.595-1.344 5.12l.768.342Z"/></g><g fill-rule="nonzero"><path fill="#787A89" d="m426.245 173.456.768-.341c-.917-1.526-1.344-3.328-1.344-5.12 0-1.782.427-3.584 1.344-5.12l-.768-.331c-.992 1.61-1.578 3.35-1.578 5.45 0 2.123.586 3.84 1.578 5.462Z"/><path fill="#ED5210" d="m428.987 171.333 1.002-1.952c.192-.394.384-.8.608-1.28h.043c.245.48.448.886.65 1.28l1.035 1.952h1.376l-2.261-3.989 2.112-3.861h-1.301l-.928 1.834c-.182.363-.331.715-.534 1.184h-.053c-.235-.469-.405-.821-.597-1.184l-.95-1.834h-1.376l2.112 3.797-2.25 4.053h1.312Zm6.464-4.053c.458 0 .821-.363.821-.853 0-.502-.363-.875-.821-.875-.459 0-.822.373-.822.875 0 .49.363.853.822.853Zm0 4.192c.458 0 .821-.352.821-.853 0-.502-.363-.875-.821-.875-.459 0-.822.373-.822.875 0 .501.363.853.822.853Zm7.125-.139v-1.045h-1.963c-.384 0-.874.032-1.28.075 1.664-1.59 2.87-3.158 2.87-4.672 0-1.419-.928-2.358-2.368-2.358-1.024 0-1.718.448-2.39 1.174l.694.682c.416-.48.928-.874 1.546-.874.875 0 1.334.586 1.334 1.44 0 1.29-1.195 2.816-3.51 4.864v.714h5.067Zm5.301 0v-2.112h1.003v-.949h-1.003v-4.79h-1.418l-3.126 4.918v.821h3.392v2.112h1.152Zm-1.152-3.061h-2.154l1.546-2.368c.224-.405.438-.81.63-1.205h.042c-.021.426-.064 1.088-.064 1.514v2.059Zm5.515 3.2c1.536 0 2.539-1.365 2.539-4.096 0-2.71-1.003-4.043-2.539-4.043-1.547 0-2.539 1.323-2.539 4.043 0 2.73.992 4.096 2.539 4.096Zm0-.97c-.8 0-1.365-.854-1.365-3.126 0-2.25.565-3.072 1.365-3.072s1.365.821 1.365 3.072c0 2.272-.565 3.125-1.365 3.125Z"/><path fill="#787A89" d="M456.123 173.467c1.098-.416 1.749-1.28 1.749-2.4 0-.822-.352-1.323-.95-1.323-.469 0-.853.31-.853.79 0 .511.384.789.822.789.042 0 .074 0 .117-.011-.01.63-.437 1.163-1.163 1.461l.278.694Z"/><path fill="#2E20C7" d="M462.021 171.333v-2.976l2.368-4.874h-1.29l-.918 2.08c-.234.586-.49 1.13-.746 1.728h-.043c-.267-.598-.49-1.142-.736-1.728l-.907-2.08h-1.322l2.357 4.874v2.976h1.237Zm3.926-4.053c.458 0 .821-.363.821-.853 0-.502-.363-.875-.821-.875-.459 0-.822.373-.822.875 0 .49.363.853.822.853Zm0 4.192c.458 0 .821-.352.821-.853 0-.502-.363-.875-.821-.875-.459 0-.822.373-.822.875 0 .501.363.853.822.853Zm4.629 0c1.536 0 2.539-1.365 2.539-4.096 0-2.71-1.003-4.043-2.539-4.043-1.547 0-2.539 1.323-2.539 4.043 0 2.73.992 4.096 2.539 4.096Zm0-.97c-.8 0-1.365-.854-1.365-3.126 0-2.25.565-3.072 1.365-3.072s1.365.821 1.365 3.072c0 2.272-.565 3.125-1.365 3.125Z"/><path fill="#787A89" d="M474.875 173.456c1.002-1.621 1.589-3.339 1.589-5.461 0-2.102-.587-3.84-1.59-5.451l-.767.33c.917 1.537 1.344 3.34 1.344 5.12 0 1.793-.427 3.595-1.344 5.12l.768.342Z"/></g><g fill-rule="nonzero"><path fill="#787A89" d="m247.579 355.579.768-.342c-.918-1.525-1.344-3.328-1.344-5.12 0-1.781.426-3.584 1.344-5.12l-.768-.33c-.992 1.61-1.579 3.349-1.579 5.45 0 2.123.587 3.84 1.579 5.462Z"/><path fill="#ED5210" d="m250.32 353.456 1.003-1.952c.192-.395.384-.8.608-1.28h.042c.246.48.448.885.651 1.28l1.035 1.952h1.376l-2.262-3.99 2.112-3.86h-1.301l-.928 1.834c-.181.363-.33.715-.533 1.184h-.054c-.234-.47-.405-.821-.597-1.184l-.95-1.835h-1.375l2.112 3.798-2.251 4.053h1.312Zm6.464-4.053c.459 0 .821-.363.821-.854 0-.501-.362-.874-.821-.874-.459 0-.821.373-.821.874 0 .491.362.854.821.854Zm0 4.192c.459 0 .821-.352.821-.854 0-.501-.362-.874-.821-.874-.459 0-.821.373-.821.874 0 .502.362.854.821.854Zm4.63 0c1.535 0 2.538-1.366 2.538-4.096 0-2.71-1.003-4.043-2.539-4.043-1.546 0-2.538 1.323-2.538 4.043 0 2.73.992 4.096 2.538 4.096Zm0-.971c-.8 0-1.366-.853-1.366-3.125 0-2.251.565-3.072 1.365-3.072s1.366.821 1.366 3.072c0 2.272-.566 3.125-1.366 3.125Z"/><path fill="#787A89" d="M265.296 355.59c1.099-.417 1.75-1.28 1.75-2.4 0-.822-.353-1.323-.95-1.323-.47 0-.853.309-.853.789 0 .512.384.79.821.79.043 0 .075 0 .117-.011-.01.629-.437 1.162-1.162 1.461l.277.693Z"/><path fill="#2E20C7" d="M271.195 353.456v-2.976l2.368-4.875h-1.291l-.917 2.08c-.235.587-.491 1.131-.747 1.728h-.043c-.266-.597-.49-1.141-.736-1.728l-.906-2.08H267.6l2.357 4.875v2.976h1.238Zm3.925-4.053c.459 0 .821-.363.821-.854 0-.501-.362-.874-.821-.874-.459 0-.821.373-.821.874 0 .491.362.854.821.854Zm0 4.192c.459 0 .821-.352.821-.854 0-.501-.362-.874-.821-.874-.459 0-.821.373-.821.874 0 .502.362.854.821.854Zm4.907-2.699v-.907h-2.816v.907h2.816Zm5.888 2.56v-1.013h-1.536v-6.838h-.928c-.448.278-.971.459-1.707.598v.778h1.408v5.462h-1.717v1.013h4.48Zm3.733.139c1.515 0 2.539-.896 2.539-2.059 0-1.067-.619-1.675-1.323-2.08v-.053c.49-.363 1.035-1.046 1.035-1.846 0-1.226-.854-2.08-2.219-2.08-1.29 0-2.24.8-2.24 2.027 0 .832.47 1.419 1.056 1.835v.053c-.725.384-1.408 1.077-1.408 2.112 0 1.216 1.088 2.09 2.56 2.09Zm.512-4.502c-.875-.341-1.621-.736-1.621-1.589 0-.704.48-1.141 1.12-1.141.768 0 1.205.544 1.205 1.269 0 .523-.235 1.024-.704 1.461Zm-.49 3.616c-.843 0-1.494-.544-1.494-1.322 0-.683.373-1.27.917-1.643 1.067.437 1.931.8 1.931 1.76 0 .736-.555 1.205-1.355 1.205Zm6.047.886c1.536 0 2.539-1.366 2.539-4.096 0-2.71-1.003-4.043-2.539-4.043-1.546 0-2.538 1.323-2.538 4.043 0 2.73.992 4.096 2.538 4.096Zm0-.971c-.8 0-1.365-.853-1.365-3.125 0-2.251.565-3.072 1.365-3.072s1.366.821 1.366 3.072c0 2.272-.566 3.125-1.366 3.125Z"/><path fill="#787A89" d="M300.016 355.579c1.003-1.622 1.59-3.339 1.59-5.462 0-2.101-.587-3.84-1.59-5.45l-.768.33c.917 1.536 1.344 3.339 1.344 5.12 0 1.792-.427 3.595-1.344 5.12l.768.342Z"/></g><g fill-rule="nonzero"><path fill="#787A89" d="m5.579 173.456.768-.341c-.918-1.526-1.344-3.328-1.344-5.12 0-1.782.426-3.584 1.344-5.12l-.768-.331c-.992 1.61-1.579 3.35-1.579 5.45 0 2.123.587 3.84 1.579 5.462Z"/><path fill="#ED5210" d="m8.584 172 1.003-1.952c.192-.395.384-.8.608-1.28h.042c.246.48.448.885.651 1.28L11.923 172h1.376l-2.262-3.99 2.112-3.86h-1.301l-.928 1.834c-.181.363-.33.715-.533 1.184h-.054c-.234-.47-.405-.821-.597-1.184l-.95-1.835H7.412l2.112 3.798L7.272 172h1.312Zm6.464-4.053c.459 0 .821-.363.821-.854 0-.501-.362-.874-.821-.874-.459 0-.821.373-.821.874 0 .491.362.854.821.854Zm0 4.192c.459 0 .821-.352.821-.854 0-.501-.362-.874-.821-.874-.459 0-.821.373-.821.874 0 .502.362.854.821.854Zm4.907-2.699v-.907h-2.816v.907h2.816ZM25.98 172v-1.045H24.02c-.384 0-.875.032-1.28.074 1.664-1.589 2.869-3.157 2.869-4.672 0-1.418-.928-2.357-2.368-2.357-1.024 0-1.717.448-2.39 1.173l.694.683c.416-.48.928-.875 1.547-.875.874 0 1.333.587 1.333 1.44 0 1.291-1.195 2.816-3.51 4.864V172h5.067Zm5.302 0v-2.112h1.002v-.95h-1.002v-4.789h-1.419l-3.125 4.918v.821h3.392V172h1.152Zm-1.152-3.061h-2.155l1.547-2.368c.224-.406.437-.811.629-1.206h.043c-.022.427-.064 1.088-.064 1.515v2.059Zm5.514 3.2c1.536 0 2.539-1.366 2.539-4.096 0-2.71-1.003-4.043-2.539-4.043-1.546 0-2.538 1.323-2.538 4.043 0 2.73.992 4.096 2.538 4.096Zm0-.971c-.8 0-1.365-.853-1.365-3.125 0-2.251.565-3.072 1.365-3.072s1.366.821 1.366 3.072c0 2.272-.566 3.125-1.366 3.125Z"/><path fill="#787A89" d="M40.79 173.467c1.098-.416 1.749-1.28 1.749-2.4 0-.822-.352-1.323-.95-1.323-.469 0-.853.31-.853.79 0 .511.384.789.821.789.043 0 .075 0 .118-.011-.011.63-.438 1.163-1.163 1.461l.277.694Z"/><path fill="#2E20C7" d="M46.688 171.333v-2.976l2.368-4.874h-1.29l-.918 2.08c-.235.586-.49 1.13-.747 1.728h-.042c-.267-.598-.491-1.142-.736-1.728l-.907-2.08h-1.323l2.358 4.874v2.976h1.237Zm3.925-4.053c.459 0 .822-.363.822-.853 0-.502-.363-.875-.822-.875-.458 0-.821.373-.821.875 0 .49.363.853.821.853Zm0 4.192c.459 0 .822-.352.822-.853 0-.502-.363-.875-.822-.875-.458 0-.821.373-.821.875 0 .501.363.853.821.853Zm4.63 0c1.536 0 2.538-1.365 2.538-4.096 0-2.71-1.002-4.043-2.538-4.043-1.547 0-2.539 1.323-2.539 4.043 0 2.73.992 4.096 2.539 4.096Zm0-.97c-.8 0-1.366-.854-1.366-3.126 0-2.25.566-3.072 1.366-3.072.8 0 1.365.821 1.365 3.072 0 2.272-.565 3.125-1.365 3.125Z"/><path fill="#787A89" d="M59.541 173.456c1.003-1.621 1.59-3.339 1.59-5.461 0-2.102-.587-3.84-1.59-5.451l-.768.33c.918 1.537 1.344 3.34 1.344 5.12 0 1.793-.426 3.595-1.344 5.12l.768.342Z"/></g><path fill="#7B7A97" d="M244 360a4 4 0 1 0-8 0h8Z"/><path fill="#ED5210" fill-rule="nonzero" d="m122.011 197.11-.453-.785-2.439 1.408.453.785 2.44-1.408Zm6.38-.727-.507-.878-1.33.768-3.42-5.921-.803.464c-.25.464-.611.882-1.18 1.37l.39.675 1.22-.704 2.73 4.73-1.487.858.507.878 3.88-2.24Zm3.293-1.742c1.33-.768 1.515-2.451.15-4.816-1.355-2.346-2.89-3-4.22-2.232-1.34.774-1.537 2.415-.177 4.77 1.365 2.365 2.907 3.052 4.247 2.278Zm-.486-.84c-.693.4-1.609-.056-2.745-2.024-1.125-1.95-1.046-2.943-.353-3.343.692-.4 1.593.028 2.718 1.978 1.136 1.967 1.073 2.989.38 3.389Zm5.751-2.2c1.33-.768 1.516-2.451.15-4.816-1.354-2.346-2.89-3-4.22-2.232-1.339.774-1.537 2.415-.177 4.77 1.366 2.365 2.908 3.052 4.247 2.278Zm-.485-.84c-.693.4-1.61-.056-2.745-2.024-1.126-1.95-1.047-2.943-.354-3.343.693-.4 1.593.028 2.718 1.978 1.136 1.967 1.074 2.989.38 3.389ZM326.77 197.439l-.507-.878-1.33.768-3.42-5.921-.803.464c-.25.464-.611.882-1.18 1.37l.39.675 1.22-.704 2.73 4.73-1.487.858.506.878 3.88-2.24Zm3.293-1.742c1.33-.768 1.515-2.451.15-4.816-1.355-2.346-2.89-3-4.22-2.232-1.34.774-1.537 2.415-.177 4.77 1.365 2.365 2.907 3.052 4.247 2.278Zm-.486-.84c-.693.4-1.609-.056-2.745-2.024-1.125-1.95-1.046-2.943-.353-3.343.692-.4 1.593.028 2.718 1.978 1.136 1.967 1.073 2.989.38 3.389Zm5.751-2.2c1.33-.768 1.516-2.451.15-4.816-1.354-2.346-2.89-3-4.22-2.232-1.339.774-1.537 2.415-.177 4.77 1.366 2.365 2.908 3.052 4.247 2.278Zm-.485-.84c-.693.4-1.61-.056-2.745-2.024-1.126-1.95-1.047-2.943-.354-3.343.693-.4 1.593.028 2.718 1.978 1.136 1.967 1.073 2.989.38 3.389Z" opacity=".404"/><path fill="#2E20C7" fill-rule="nonzero" d="m226.103 96.772-.507-.878-1.33.768-3.419-5.92-.804.463c-.249.464-.61.883-1.179 1.37l.39.675 1.219-.704 2.73 4.73-1.487.858.507.878 3.88-2.24Zm3.293-1.741c1.33-.768 1.516-2.452.15-4.817-1.354-2.346-2.89-3-4.22-2.231-1.339.773-1.537 2.414-.177 4.77 1.366 2.365 2.907 3.051 4.247 2.278Zm-.485-.84c-.693.4-1.61-.057-2.746-2.025-1.125-1.949-1.046-2.943-.353-3.343.693-.4 1.593.029 2.718 1.978 1.136 1.968 1.073 2.99.38 3.39Zm5.75-2.2c1.33-.768 1.516-2.452.15-4.817-1.354-2.346-2.889-3-4.219-2.231-1.34.773-1.537 2.414-.177 4.77 1.365 2.365 2.907 3.051 4.246 2.278Zm-.485-.84c-.693.4-1.61-.057-2.745-2.025-1.125-1.949-1.047-2.943-.354-3.343.693-.4 1.593.029 2.719 1.978 1.136 1.968 1.073 2.99.38 3.39ZM219.344 297.11l-.453-.785-2.439 1.408.454.785 2.438-1.408Zm6.38-.727-.507-.878-1.33.768-3.419-5.921-.804.464c-.249.464-.61.882-1.179 1.37l.39.675 1.219-.704 2.73 4.73-1.487.858.507.878 3.88-2.24Zm3.293-1.742c1.33-.768 1.516-2.451.15-4.816-1.354-2.346-2.89-3-4.22-2.232-1.339.774-1.537 2.415-.177 4.77 1.366 2.365 2.907 3.052 4.247 2.278Zm-.485-.84c-.693.4-1.61-.056-2.746-2.024-1.125-1.95-1.046-2.943-.353-3.343.693-.4 1.593.028 2.718 1.978 1.136 1.967 1.073 2.989.38 3.389Zm5.75-2.2c1.33-.768 1.516-2.451.15-4.816-1.354-2.346-2.889-3-4.219-2.232-1.34.774-1.537 2.415-.177 4.77 1.365 2.365 2.907 3.052 4.246 2.278Zm-.485-.84c-.693.4-1.61-.056-2.745-2.024-1.125-1.95-1.046-2.943-.354-3.343.693-.4 1.593.028 2.719 1.978 1.136 1.967 1.073 2.989.38 3.389Z" opacity=".404"/><path fill="#ED5210" fill-rule="nonzero" d="m426.855 197.241-.523-.905-1.7.981c-.332.192-.74.465-1.07.705.646-2.208.906-4.169.148-5.48-.709-1.23-1.982-1.578-3.229-.858-.887.512-1.263 1.247-1.483 2.21l.942.245c.12-.623.367-1.221.902-1.53.758-.438 1.448-.16 1.875.58.645 1.118.373 3.036-.607 5.967l.357.619 4.388-2.534Zm3.173-1.672c1.33-.768 1.516-2.451.15-4.816-1.354-2.346-2.889-3-4.22-2.232-1.339.774-1.536 2.415-.176 4.77 1.365 2.365 2.907 3.052 4.246 2.278Zm-.485-.84c-.693.4-1.61-.056-2.745-2.024-1.126-1.95-1.047-2.943-.354-3.343.693-.4 1.593.028 2.719 1.978 1.136 1.967 1.073 2.989.38 3.389Zm5.75-2.2c1.33-.768 1.517-2.451.151-4.816-1.354-2.346-2.89-3-4.22-2.232-1.34.774-1.537 2.415-.177 4.77 1.365 2.365 2.907 3.052 4.247 2.278Zm-.485-.84c-.692.4-1.609-.056-2.745-2.024-1.125-1.95-1.046-2.943-.353-3.343.692-.4 1.593.028 2.718 1.978 1.136 1.967 1.073 2.989.38 3.389ZM21.344 197.11l-.453-.785-2.439 1.408.454.785 2.438-1.408Zm6.5-.797-.523-.905-1.7.981c-.332.192-.741.465-1.07.705.646-2.208.905-4.169.148-5.48-.71-1.23-1.982-1.578-3.23-.858-.886.512-1.263 1.246-1.482 2.21l.942.245c.12-.623.366-1.221.902-1.53.758-.438 1.448-.16 1.875.58.645 1.118.373 3.036-.607 5.967l.357.619 4.388-2.534Zm3.173-1.672c1.33-.768 1.516-2.451.15-4.816-1.354-2.346-2.89-3-4.22-2.232-1.339.774-1.537 2.415-.177 4.77 1.366 2.365 2.907 3.052 4.247 2.278Zm-.485-.84c-.693.4-1.61-.056-2.746-2.024-1.125-1.95-1.046-2.943-.353-3.343.693-.4 1.593.028 2.718 1.978 1.136 1.967 1.073 2.989.38 3.389Zm5.75-2.2c1.33-.768 1.516-2.451.15-4.816-1.354-2.346-2.889-3-4.219-2.232-1.34.774-1.537 2.415-.177 4.77 1.365 2.365 2.907 3.052 4.246 2.278Zm-.485-.84c-.693.4-1.61-.056-2.745-2.024-1.125-1.95-1.046-2.943-.354-3.343.693-.4 1.593.028 2.719 1.978 1.136 1.967 1.073 2.989.38 3.389Z" opacity=".404"/></g></svg>