<svg version="1.1" xmlns="http://www.w3.org/2000/svg" xmlns:xlink="http://www.w3.org/1999/xlink" width="78.74129" height="112.17997" viewBox="0,0,78.74129,112.17997"><g transform="translate(-201.02271,-124.57924)"><g data-paper-data="{&quot;isPaintingLayer&quot;:true}" fill-rule="evenodd" stroke="none" stroke-width="1" stroke-linecap="butt" stroke-linejoin="miter" stroke-miterlimit="10" stroke-dasharray="" stroke-dashoffset="0" style="mix-blend-mode: normal"><path d="M201.02371,170.883c8.095,12.263 18.677,1.893 14.96,-8.97c-2.698,-7.886 11.682,2.48 11.682,2.48c0,0 -8.183,22.99 -15.445,23.387c-7.26,0.398 -11.174,-10.79 -11.198,-16.896" data-paper-data="{&quot;origPos&quot;:null}" fill="#363335"/><path d="M229.52871,230.78l0.07,-3.86l-0.846,-14.602c0,0 4.15,-4.593 6.068,-5.139c1.381,-0.395 5.674,0.832 5.674,0.832l-1.676,18.835l-0.04,3.862h-0.01c1.767,1.066 3.063,3.26 1.571,5.065c-1.127,1.279 -2.81,0.29 -4.086,-0.234c-1.408,-0.65 -3.022,-1.102 -4.302,-1.959c-0.821,-0.565 -1.728,-1.242 -2.29,-2.083c-0.178,-0.266 -0.194,-0.471 -0.133,-0.717M218.74671,230.865l-0.09,-3.86l-1.99,-18.806c0,0 4.21,-1.314 5.583,-0.952c1.942,0.51 6.221,5.074 6.221,5.074l-0.6,14.612l-0.068,3.86h-0.007c0.07,0.255 0.306,0.51 0.138,0.776c-0.547,0.856 -1.51,1.484 -2.322,2.06c-1.27,0.877 -2.871,1.355 -4.269,2.028c-1.269,0.546 -2.931,1.558 -4.081,0.3c-1.521,-1.786 -0.261,-3.995 1.485,-5.092" data-paper-data="{&quot;origPos&quot;:null}" fill="#75584d"/><path d="M240.929,205.248c0,0 0.23,2.207 -0.185,2.763c-4.82,-0.031 -11.742,4.308 -11.742,4.308l-0.282,0.002c0,0 -6.792,-4.357 -11.803,-4.122c-0.428,-0.55 -0.234,-2.758 -0.234,-2.758z" fill="#e63744"/><path d="M219.991,208.516c1.399,0.322 2.815,0.845 4.079,1.386c-1.534,-1.435 -4.07,-3.505 -4.94,-4.453l-2.449,0.02c0,0 -0.036,0.394 -0.042,0.906c0.832,0.474 2.171,1.256 3.352,2.141M240.989,206.183c-0.019,-0.512 -0.06,-0.906 -0.06,-0.906l-2.44,0.02c-0.894,0.959 -3.551,3.235 -5.04,4.697c1.273,-0.57 2.691,-1.136 4.101,-1.509c1.193,-0.946 2.583,-1.797 3.438,-2.302M228.34,230.809h0.02c0.067,0.26 -0.016,0.537 -0.194,0.812c-0.562,0.88 -1.546,1.54 -2.387,2.13c-0.139,0.094 -0.277,0.186 -0.419,0.266l-7.501,0.058l-0.018,-2.483c0.26597,-0.26412 0.55853,-0.50003 0.873,-0.704h-0.009l0.2,-3.883l9.214,-0.072z" fill="#eeeeed"/><path d="M228.155,227.56l-9.28,0.074l0.012,-0.188l9.258,-0.074z" fill="#0771b7"/><path d="M240.927,233.895l-8.197,0.063c-0.14,-0.079 -0.285,-0.17 -0.42,-0.262c-0.851,-0.586 -1.852,-1.216 -2.428,-2.09c-0.18,-0.273 -0.266,-0.548 -0.203,-0.805l0.007,-0.002l0.162,-3.878l9.221,-0.074l0.261,3.878h-0.009c0.62191,0.38458 1.16298,0.88659 1.593,1.478z" fill="#eeeeed"/><path d="M229.831,227.359l9.266,-0.074l0.01,0.188l-9.287,0.074z" fill="#0771b7"/><path d="M218.732,230.886l-0.027,-0.01c0,0 0.176,-1.845 1.737,-1.927c1.613,-0.096 2.849,1.558 2.849,1.558l-4.559,0.38z" fill="#6e6e6d"/><path d="M219.296,230.701c0,0 0.12,-1.263 1.193,-1.328c1.109,-0.065 1.957,1.073 1.957,1.073l-3.132,0.264z" fill="#b52c39"/><path d="M218.732,230.887c0,0 1.868,-1.178 6.086,-0.047c1.701,0.185 2.218,-1.388 3.008,-1.742c0.403,-0.176 0.52,-0.004 0.52,-0.004l0.014,1.716c0.067,0.258 -0.018,0.535 -0.194,0.81c-0.562,0.881 -1.545,1.531 -2.387,2.128c-1.305,0.903 -2.954,1.39 -4.396,2.09c-1.301,0.554 -3.02,1.594 -4.197,0.297c-1.566,-1.833 -0.267,-4.084 1.529,-5.248h-0.01v-0.007l0.027,0.007" fill="#e63744"/><path d="M228.046,231.799c-0.576,0.791 -1.485,1.397 -2.268,1.949c-0.546,0.379 -1.154,0.682 -1.782,0.959l-0.175,-0.34c1.867,-0.561 4.014,-2.753 4.014,-2.753l0.211,0.186M218.732,230.886c0,0 1.415,-0.891 4.559,-0.38c-0.918,0.691 -2.453,1.704 -3.553,1.72c-1.406,0.02 -1.445,-0.631 -1.166,-1.236c0.045,-0.036 0.097,-0.047 0.143,-0.106h-0.01v-0.008l0.027,0.011" fill="#343434"/><path d="M218.675,232.079c2.477,-0.02 4.644,0.945 5.823,2.4c-1.015,0.488 -2.115,0.872 -3.116,1.359c-1.301,0.555 -3.02,1.595 -4.197,0.295c-1.089,-1.269 -0.794,-2.749 0.093,-3.925c0.004,-0.002 0.009,-0.007 0.013,-0.018c0.45819,-0.06914 0.92065,-0.10623 1.384,-0.111" fill="#343434"/><path d="M228.297,229.284c0.018,0 0.036,0.005 0.052,0.005l0.011,1.522c0.067,0.257 -0.016,0.534 -0.194,0.809c-0.103,0.172 -0.231,0.338 -0.38,0.499c-0.126,-0.298 -0.202,-0.709 -0.207,-1.155c-0.007,-0.926 0.311,-1.675 0.718,-1.68M217.657,231.796h0.01c0.022,-0.008 2.043,-0.511 4.657,-0.05c0.018,0.004 0.036,-0.007 0.036,-0.03c0.003,-0.017 -0.006,-0.031 -0.024,-0.033c-2.626,-0.465 -4.665,0.047 -4.683,0.051c-0.02,0.003 -0.031,0.018 -0.027,0.036c0.007,0.018 0.018,0.027 0.032,0.027zM218.196,231.301c0.004,0 0.004,0 0.007,-0.004c0.018,-0.002 1.899,-0.628 4.515,-0.058c0.019,0.004 0.034,-0.009 0.039,-0.027c0.007,-0.018 -0.007,-0.036 -0.023,-0.036c-2.644,-0.574 -4.531,0.058 -4.55,0.063c-0.017,0.009 -0.03,0.024 -0.02,0.04c0.002,0.016 0.016,0.022 0.032,0.022" fill="#eeeeed"/><path d="M239.305,230.725l-4.567,-0.31c0,0 1.208,-1.673 2.824,-1.601c1.566,0.056 1.768,1.9 1.768,1.9z" fill="#6e6e6d"/><path d="M238.725,230.557l-3.143,-0.217c0,0 0.835,-1.149 1.946,-1.102c1.069,0.047 1.21,1.31 1.21,1.31z" fill="#b52c39"/><path d="M239.305,230.725l0.025,-0.007v0.007h-0.009c1.814,1.136 3.15,3.366 1.611,5.222c-1.154,1.314 -2.885,0.304 -4.2,-0.233c-1.45,-0.673 -3.108,-1.135 -4.429,-2.018c-0.843,-0.586 -1.847,-1.218 -2.423,-2.088c-0.18,-0.275 -0.266,-0.55 -0.207,-0.807l-0.014,-1.714c0,0 0.117,-0.177 0.52,-0.005c0.801,0.34 1.339,1.902 3.035,1.69c4.208,-1.198 6.091,-0.047 6.091,-0.047" fill="#e63744"/><path d="M230.008,231.784l0.205,-0.188c0,0 2.185,2.16 4.057,2.689l-0.171,0.342c-0.628,-0.268 -1.238,-0.561 -1.796,-0.932c-0.785,-0.539 -1.71,-1.129 -2.295,-1.911M239.305,230.725l0.025,-0.011v0.009h-0.009c0.052,0.056 0.106,0.065 0.15,0.1c0.284,0.602 0.255,1.252 -1.151,1.252c-1.096,0.002 -2.65,-0.983 -3.582,-1.66c3.136,-0.562 4.567,0.31 4.567,0.31" fill="#343434"/><path d="M239.382,231.915c0.46188,-0.00285 0.92339,0.02723 1.381,0.09c0.00389,0.00627 0.0086,0.01198 0.014,0.017c0.904,1.16 1.228,2.638 0.153,3.925c-1.152,1.315 -2.882,0.302 -4.199,-0.232c-1.005,-0.47 -2.108,-0.836 -3.127,-1.308c1.143,-1.475 3.3,-2.472 5.778,-2.492" fill="#343434"/><path d="M229.714,229.273c0.41,-0.002 0.743,0.743 0.752,1.668c0.004,0.447 -0.07,0.858 -0.198,1.158c-0.13954,-0.15621 -0.26977,-0.32049 -0.39,-0.492c-0.177,-0.273 -0.263,-0.548 -0.207,-0.805l-0.009,-1.522c0.016,-0.002 0.034,-0.007 0.052,-0.007M240.393,231.618c0.01547,0.00008 0.02846,-0.01161 0.03,-0.027c0.006,-0.018 -0.005,-0.033 -0.023,-0.036c-0.023,-0.004 -2.068,-0.485 -4.683,0.023c-0.018,0.002 -0.031,0.015 -0.027,0.033c0.005,0.023 0.023,0.036 0.04,0.03c2.604,-0.506 4.636,-0.032 4.654,-0.023zM239.852,231.131c0.014,0 0.027,-0.007 0.032,-0.022c0.004,-0.016 -0.005,-0.032 -0.023,-0.04c-0.018,-0.005 -1.924,-0.609 -4.554,0.008c-0.00821,-0.00007 -0.01587,0.00407 -0.02033,0.01096c-0.00446,0.00689 -0.00509,0.01558 -0.00167,0.02304c0.006,0.018 0.022,0.031 0.036,0.027c2.614,-0.61 4.502,-0.014 4.52,-0.011c0.002,0.004 0.007,0.004 0.011,0.004" fill="#eeeeed"/><path d="M205.957,199.407c0.095,-0.963 0.412,-1.826 0.867,-2.488c-0.005,0.04 -0.005,0.058 -0.005,0.058c0,0 1.258,-13.666 4.8,-18.23c1.624,-2.097 7.256,-5.16 7.913,-5.513c1.242,-0.908 4.056,-1.334 5.805,-1.513c-0.295,-0.637 -0.48,-1.333 -0.484,-1.84l7.402,-0.058c0.003,0.505 -0.164,1.194 -0.45,1.835c1.72,0.15 4.575,0.534 5.875,1.424c0,0 2.252,0.773 3,1.033c1.919,0.505 8.345,2.901 8.345,2.901l5.314,-6.303c-0.09634,-0.25836 -0.16669,-0.52569 -0.21,-0.798c-0.38368,-0.70978 -0.6581,-1.47336 -0.814,-2.265c-0.46,-2.269 0.016,-4.28 1.074,-4.495c0.56,-0.116 1.179,0.315 1.696,1.08c1.127,-1.098 2.531,-1.565 3.71,-1.082c1.8,0.749 2.392,3.429 1.319,6.002c-0.689,1.647 -1.89,2.852 -3.141,3.303c0,0 -3.27,9.46 -6.176,10.533c-2.352,0.872 -10.992,-2.497 -10.992,-2.497v-0.013c1.7,9.79 0.124,24.767 0.124,24.767l-24.246,0.192c0,0 -1.561,-13.573 -0.337,-23.354v0.009c-0.19,0.52 -1.229,1.45 -2.05,2.626c-1.64,2.34 -3.116,12.218 -3.116,12.218c0.04,0.07 0.074,0.132 0.108,0.208c0.427,0.403 0.839,0.95 1.188,1.585c0.91,1.68 1.021,3.389 0.238,3.804c-0.414,0.224 -1.006,0.032 -1.602,-0.444c-0.625,1.135 -1.622,1.833 -2.664,1.732c-1.602,-0.154 -2.718,-2.135 -2.49,-4.417" data-paper-data="{&quot;origPos&quot;:null}" fill="#75584d"/><path d="M225.665,172.304c-0.421,-0.625 -0.718,-1.502 -0.796,-2.135c1.19453,0.18248 2.40164,0.27008 3.61,0.262c1.26132,-0.011 2.5196,-0.12606 3.762,-0.344l-0.016,0.007l-6.56,2.21" fill="#eeac6c"/><path d="M235.5,172.228c0.713,9.383 5.784,11.95 5.784,11.95v0.002c0.228,2.501 0.313,5.154 0.31,7.698l-25.71,0.204v-0.003c-0.022,-2.325 0.018,-4.739 0.178,-7.045l0.018,-0.054c0,0 5.832,-2.534 5.994,-12.724v-0.01c0.764,-0.184 1.564,-0.311 2.284,-0.41h0.11c0,0 -1.136,9.113 4.14,9.073c6.174,-0.05 5.092,-9.026 5.092,-9.03c0.60413,0.09391 1.20455,0.21032 1.8,0.349" data-paper-data="{&quot;origPos&quot;:null}" fill="#0771b7"/><path d="M217.469,184.055c0.256,-0.215 0.535,-0.474 0.825,-0.778l0.07,8.816l-0.832,0.006l-0.063,-8.044M239.043,182.21c0.298,0.351 0.584,0.653 0.84,0.901l0.07,8.811l-0.833,0.008l-0.076,-9.72" fill="#eeeeed"/><path d="M206.498,151.643c-0.17263,-1.10421 -0.2652,-2.21944 -0.277,-3.337c-0.097,-12.274 9.837,-22.304 22.192,-22.4c12.355,-0.099 22.453,9.77 22.552,22.046c0.00715,1.06684 -0.06136,2.13285 -0.205,3.19c1.298,0.695 2.18,2.01 2.191,3.532c0.018,2.258 -1.88,4.097 -4.239,4.117c-0.15763,-0.00039 -0.31514,-0.0084 -0.472,-0.024c-3.91165,7.10502 -11.36151,11.53736 -19.472,11.585c-8.09914,0.07465 -15.60813,-4.22735 -19.64,-11.252c-0.063,0.004 -0.133,0.004 -0.196,0.006c-2.36,0.018 -4.286,-1.792 -4.304,-4.05c-0.011,-1.415 0.734,-2.673 1.87,-3.413" data-paper-data="{&quot;origPos&quot;:null}" fill="#75584d"/><path d="M224.311,145.65c0,0 -0.503,1.803 -2.082,1.446c-0.772,-0.174 -0.908,-1.201 -3.386,-0.74c-0.779,0.18 -2.417,1.156 -2.732,1.808c-0.316,0.652 -0.088,-2.392 2.457,-3.522c1.835,-0.675 2.457,-0.642 3.977,-0.642c1.52,0 1.987,0.907 1.766,1.65M234.052,145.65c0,0 0.503,1.803 2.082,1.446c0.772,-0.174 0.908,-1.201 3.386,-0.74c0.779,0.18 2.417,1.156 2.732,1.808c0.316,0.652 0.087,-2.392 -2.457,-3.522c-1.835,-0.675 -2.457,-0.642 -3.977,-0.642c-1.52,0 -1.987,0.907 -1.766,1.65M222,153c0,1.657 -0.895,3 -2,3c-1.105,0 -2,-1.343 -2,-3c0,-1.657 0.895,-3 2,-3c1.105,0 2,1.343 2,3M240,153c0,1.657 -0.895,3 -2,3c-1.105,0 -2,-1.343 -2,-3c0,-1.657 0.895,-3 2,-3c1.105,0 2,1.343 2,3" data-paper-data="{&quot;origPos&quot;:null}" fill="#363335"/><path d="M229.02,156.069c-1.125,0.153 -3.02,1.834 -3.02,1.834c0,0 0.207,-1.009 0.503,-1.299c0.8,-1.156 2.487,-1.604 2.487,-1.604c0,0 2.173,0.703 2.65,1.588c0.443,0.824 0.34,1.238 0.34,1.238c0,0 -2.121,-1.871 -2.96,-1.756z" fill="#eeac6c"/><path d="M222.2,159.696c0,0 6.897,3.208 13.172,-0.397c0,0 -1.39,5.47 -5.95,5.561c-4.115,0.122 -4.984,-1.492 -5.477,-1.956c-0.492,-0.463 -1.42,-1.772 -1.745,-3.208" data-paper-data="{&quot;origPos&quot;:null}" fill="#ac363e"/><path d="M251.735,145.269c0.056,2.594 -1.078,6.22 -1.078,6.22c0,0 -5.967,-6.905 -9.591,-8.83c-4.422,-2.345 -6.59,1.178 -10.56,-1.88c-0.657,-0.503 -1.881,-1.851 -1.881,-1.851c0,0 -1.469,1.494 -1.86,1.882c-4.392,4.344 -7.756,-0.654 -11.46,1.976c-4.72,3.347 -8.687,8.888 -8.687,8.888c0,0 -1.393,-1.551 -1.235,-6.286c0.041,-1.361 0.681,-4.388 1.741,-7.468c4.0069,-8.11885 12.2524,-13.28148 21.306,-13.34c10.776,-0.085 19.94,6.925 23.005,16.63c0.16268,1.34797 0.26279,2.70276 0.3,4.06" data-paper-data="{&quot;origPos&quot;:null}" fill="#363335"/><path d="M270.645,137.93c-1.908,2.253 -3.202,4.28 -3.877,6.078c-0.675,1.792 -1.008,3.846 -0.99,6.167l0.018,2.083l-3.413,0.027l-0.018,-2.086c-0.018,-2.349 0.4,-4.504 1.255,-6.446c0.85,-1.95 2.097,-3.876 3.744,-5.796l-8.685,0.067l-0.022,-2.609l11.965,-0.094zM275.703,146.448l0.05,-0.003l1.28,-2.678l2.576,-0.02l-2.516,4.171l2.671,4.23l-2.572,0.02l-1.41,-2.781l-1.357,2.8l-2.583,0.023l2.603,-4.271l-2.594,-4.131l2.565,-0.02z" fill="#c6c5c6"/></g></g></svg>