<svg version="1.1" xmlns="http://www.w3.org/2000/svg" xmlns:xlink="http://www.w3.org/1999/xlink" width="59.8737" height="118.25491" viewBox="0,0,59.8737,118.25491"><g transform="translate(-210.00089,-120.001)"><g data-paper-data="{&quot;isPaintingLayer&quot;:true}" fill-rule="evenodd" stroke="none" stroke-width="1" stroke-linecap="butt" stroke-linejoin="miter" stroke-miterlimit="10" stroke-dasharray="" stroke-dashoffset="0" style="mix-blend-mode: normal"><path d="M252.306,232.533c1.732,1.066 2.98,3.32 1.501,5.107c-1.117,1.25 -2.766,0.297 -4.017,-0.235c-1.385,-0.662 -2.97,-1.1 -4.22,-1.96c-0.801,-0.565 -1.756,-1.239 -2.3,-2.085c-0.168,-0.262 -0.249,-0.58 -0.188,-0.827z" fill="#333433"/><path d="M241.82,232.533c0.061,0.246 -0.017,0.565 -0.183,0.826c-0.547,0.847 -1.501,1.521 -2.313,2.086c-1.249,0.86 -2.826,1.298 -4.205,1.96c-1.25,0.532 -2.899,1.485 -4.019,0.235c-1.478,-1.787 -0.227,-4.041 1.505,-5.107z" fill="#333433"/><path d="M254.38,207.384l-1.884,25.206h-9.534l-0.374,-18.227h-0.273l-0.368,18.227h-9.542l-1.876,-25.206z" fill="#dda20c"/><path d="M211.8,165.769c1.155,-0.493 2.543,-0.04 3.662,1.043c0.504,-0.766 1.105,-1.193 1.658,-1.089c1.042,0.208 1.53,2.195 1.094,4.447c-0.174,0.862 -0.451,1.638 -0.782,2.254c-0.04644,0.27132 -0.1133,0.53875 -0.2,0.8l5.267,6.205l11.202,-4.014c0,0 -1.904,3.028 -2.374,4.126c-0.338,0.81 -0.998,3.353 -0.998,3.353c0,0 -8.18,3.327 -10.5,2.485c-2.864,-1.035 -6.169,-10.395 -6.169,-10.395l0.008,-0.007c-1.227,-0.435 -2.432,-1.62 -3.118,-3.247c-1.082,-2.549 -0.513,-5.213 1.25,-5.96" data-paper-data="{&quot;origPos&quot;:null}" fill="#be9969"/><path d="M218.296,169.869c-0.32,2.153 -1.386,3.78 -2.384,3.628c-0.991,-0.148 -1.54,-2.016 -1.211,-4.16c0.318,-2.154 1.381,-3.78 2.377,-3.633c0.991,0.155 1.536,2.016 1.218,4.165M259.318,180.854c3.527,4.5 4.874,18.044 4.874,18.044c0,0 0,-0.02 -0.007,-0.059c0.453,0.659 0.771,1.508 0.871,2.459c0.24,2.267 -0.84,4.24 -2.418,4.407c-1.028,0.105 -2.006,-0.582 -2.634,-1.702c-0.584,0.48 -1.165,0.675 -1.575,0.454c-0.775,-0.406 -0.682,-2.1 0.21,-3.772c0.30012,-0.58581 0.69018,-1.12097 1.156,-1.586c0.028,-0.07 0.072,-0.136 0.103,-0.201c0,0 -1.53,-9.785 -3.164,-12.096c-0.817,-1.163 -1.342,-1.81 -1.527,-2.328c-0.148,-0.412 -0.318,-1.2 -0.386,-1.499c-0.52,-2.321 -3.396,-7.56 -3.396,-7.56c0,0 6.185,3.244 7.893,5.44" data-paper-data="{&quot;origPos&quot;:null}" fill="#be9969"/><path d="M259.493,198.458c0,0 -1.246,-9.345 -2.876,-11.658c-0.085,-0.12 -0.166,-0.233 -0.24,-0.34c1.599,9.468 1.399,20.928 1.399,20.928h-30.528c0,0 -0.308,-14.321 1.932,-24.048c-0.553,0.26 -7.224,2.898 -9.446,2.093c-2.863,-1.039 -7.094,-9.936 -7.094,-9.936l4.575,-2.256l5.327,6.187l10.143,-3.971c1.994,-1.313 8.065,-1.527 8.065,-1.527l1.693,0.053h0.137l1.689,-0.053c0,0 6.045,0.199 8.063,1.499c0.81,0.446 5.317,2.991 6.871,4.986c3.523,4.498 5.056,18.043 5.056,18.043h-4.766" fill="#f7b90b"/><path d="M248.83,186.15h0.44v0.436h-0.44z" fill="#333433"/><path d="M248.83,186.586h0.44v0.439h-0.44zM249.271,186.15h0.44v0.436h-0.441z" fill="#eeeeed"/><path d="M249.271,186.586h0.44v0.439h-0.441zM249.711,186.15h0.438v0.436h-0.438z" fill="#333433"/><path d="M249.711,186.586h0.438v0.439h-0.438zM250.149,186.15h0.438v0.436h-0.438z" fill="#eeeeed"/><path d="M250.149,186.586h0.438v0.439h-0.438zM250.587,186.15h0.44v0.436h-0.44z" fill="#333433"/><path d="M250.587,186.586h0.44v0.439h-0.44zM251.027,186.15h0.438v0.436h-0.438z" fill="#eeeeed"/><path d="M251.027,186.586h0.438v0.439h-0.438zM251.467,186.15h0.438v0.436h-0.438z" fill="#333433"/><path d="M251.467,186.586h0.438v0.439h-0.438zM251.905,186.15h0.44v0.436h-0.44z" fill="#eeeeed"/><path d="M251.905,186.586h0.44v0.439h-0.44zM252.345,186.15h0.442v0.436h-0.442z" fill="#333433"/><path d="M252.345,186.586h0.442v0.439h-0.442z" fill="#eeeeed"/><path d="M248.817,183.441h1v0.3h-0.336v1.77h-0.333v-1.77h-0.331zM250.163,184.86h0.319l-0.162,-1.052zM250.906,185.512h-0.333l-0.054,-0.37h-0.4l-0.051,0.37h-0.299l0.333,-2.07h0.471zM252.144,183.441l-0.344,1.009l0.37,1.063h-0.344l-0.268,-0.818l-0.266,0.818h-0.305l0.362,-1.063l-0.342,-1.008h0.342l0.238,0.766l0.25,-0.766zM252.332,185.513h0.32v-2.071h-0.32zM257.776,207.388h-30.529c0,0 -0.02,-1.113 -0.006,-2.93h30.535c0.02,1.817 0,2.93 0,2.93" fill="#333433"/><path d="M239.739,207.782c-0.637,-0.633 -0.565,-2.897 0,-3.596c0.836,-1.043 4.402,-0.949 5.344,0c0.634,0.637 0.699,3.031 0,3.596c-1.044,0.842 -4.397,0.947 -5.344,0" fill="#f7b90b"/><path d="M240.685,207.139c-0.411,-0.415 -0.37,-1.883 0,-2.333c0.543,-0.676 2.857,-0.615 3.469,0c0.407,0.41 0.45,1.962 0,2.333c-0.673,0.543 -2.861,0.62 -3.469,0" fill="#333433"/><path d="M243.553,205.996c0.00055,-0.08411 0.06889,-0.152 0.153,-0.152h1.072c0.04082,-0.00109 0.08032,0.0145 0.10938,0.04319c0.02906,0.02869 0.04517,0.06798 0.04462,0.10881c0.00107,0.04191 -0.01455,0.08253 -0.04343,0.11291c-0.02888,0.03038 -0.06866,0.04804 -0.11057,0.04909h-1.072c-0.081,0 -0.153,-0.074 -0.153,-0.162" fill="#d69d0b"/><path d="M246.184,174.029c-1.094,-0.113 -1.894,-0.146 -1.894,-0.146l-1.686,0.057h-0.137l-1.688,-0.083c0,0 -0.88,0.039 -2.05,0.177l3.792,3.923zM264.059,154.166c1.123,0.72 1.86,1.954 1.86,3.353c0,2.219 -1.874,4.025 -4.175,4.025c-0.07,0 -0.135,0 -0.2,-0.006c-3.745,6.72 -10.915,11.267 -19.143,11.267c-8.233,0 -15.401,-4.554 -19.141,-11.287c-0.161,0.02 -0.307,0.026 -0.464,0.026c-2.311,0 -4.181,-1.806 -4.181,-4.025c0,-1.505 0.85,-2.812 2.114,-3.504c-0.144,-1.03 -0.223,-2.081 -0.223,-3.148c0,-12.112 9.802,-21.934 21.895,-21.934c12.1,0 21.906,9.823 21.906,21.933c0,1.12 -0.092,2.22 -0.249,3.3" data-paper-data="{&quot;origPos&quot;:null}" fill="#be9969"/><g><path d="M236.229,151.096c-0.772,-0.174 -0.908,-1.201 -3.386,-0.74c-0.779,0.18 -2.417,1.156 -2.732,1.808c-0.316,0.652 -0.088,-2.392 2.457,-3.522c1.835,-0.675 2.457,-0.642 3.977,-0.642c1.52,0 1.987,0.907 1.766,1.65c0,0 -0.503,1.803 -2.082,1.446zM250.134,151.096c0.772,-0.174 0.908,-1.201 3.386,-0.74c0.779,0.18 2.417,1.156 2.732,1.808c0.316,0.652 0.087,-2.392 -2.457,-3.522c-1.835,-0.675 -2.457,-0.642 -3.977,-0.642c-1.52,0 -1.987,0.907 -1.766,1.65c0,0 0.503,1.803 2.082,1.446z" fill="#ad6921"/><path d="M236,157c0,1.657 -0.895,3 -2,3c-1.105,0 -2,-1.343 -2,-3c0,-1.657 0.895,-3 2,-3c1.105,0 2,1.343 2,3M254,157c0,1.657 -0.895,3 -2,3c-1.105,0 -2,-1.343 -2,-3c0,-1.657 0.895,-3 2,-3c1.105,0 2,1.343 2,3" fill="#343434"/><path d="M243.02,160.069c-1.125,0.153 -3.02,1.834 -3.02,1.834c0,0 0.207,-1.009 0.503,-1.299c0.8,-1.156 2.487,-1.604 2.487,-1.604c0,0 2.173,0.703 2.65,1.588c0.443,0.824 0.34,1.238 0.34,1.238c0,0 -2.121,-1.871 -2.96,-1.756z" fill="#eeac6c"/><g fill="#eeac6c"><path d="M236.2,163.696c0,0 6.897,3.208 13.172,-0.397c0,0 -1.39,5.47 -5.95,5.561c-4.115,0.122 -4.984,-1.492 -5.477,-1.956c-0.492,-0.463 -1.42,-1.772 -1.745,-3.208"/></g></g><path d="M229.35,152.702c0,0 2.723,-3.622 4.04,-3.434c0.413,0.058 0.692,1.044 0.37,1.634c0,0 -2.621,0.691 -4.41,1.8M254.701,152.702c0,0 -2.731,-3.622 -4.034,-3.434c-0.412,0.058 -0.691,1.044 -0.386,1.634c0,0 2.638,0.691 4.42,1.8" fill="#ad6921"/><path d="M265.177,148.008c0.035,2.579 -0.862,8.149 -2.62,11.47c0,0 -4.312,-12.205 -7.856,-14.139c-4.338,-2.365 -15.775,1.044 -19.647,-2.016c-0.64,-0.514 -0.575,-1.66 -0.575,-1.66c0,0 -0.73,1.466 -1.091,1.87c-1.88,2.14 -6.747,5.243 -9.063,6.908c-1.856,1.333 -1.946,1.32 -1.53,9.037c0,0 -3.422,-7.026 -3.228,-11.71c0.052,-1.353 0.71,-4.346 1.78,-7.393c3.843,-7.745 11.83,-13.07 21.06,-13.07c10.601,0 19.561,7.025 22.505,16.671c0.165,1.492 0.252,2.886 0.265,4.032" data-paper-data="{&quot;origPos&quot;:null}" fill="#3d250c"/><path d="M240.697,175.315c-1.025,0 -1.85,-2.2 -1.85,-3.206h7.28c0,1.006 -0.825,3.206 -1.847,3.206h-3.584" data-paper-data="{&quot;origPos&quot;:null}" fill="#be9969"/><path d="M239.698,174.616c-0.411,-0.626 -0.771,-1.473 -0.838,-2.106c1.159,0.195 2.344,0.295 3.546,0.295c1.24264,-0.00299 2.48289,-0.10902 3.708,-0.317l-0.011,0.016l-6.405,2.112" fill="#eeac6c"/><path d="M239.873,196.939c0.022,-1.444 1.531,-15.932 1.531,-15.932c-0.455,-0.37 -0.945,-2.131 -0.945,-2.131l1.157,-0.96l1.85,0.059l1.075,0.861c0,0 -0.41,1.846 -0.901,2.171c0,0 1.398,14.499 1.398,15.939c0.011,1.505 -2.581,2.572 -2.581,2.572c0,0 -2.613,-1.039 -2.584,-2.579" fill="#333433"/><path d="M246.706,172.865c0,0 1.235,1.104 1.361,1.431c0.125,0.321 -3.987,6.221 -3.775,5.361c0.207,-0.869 -1.826,-1.707 -1.826,-1.707z" fill="#f7b90b"/><path d="M242.521,177.935c0.292,0.127 1.998,0.908 1.798,1.726c-0.009,0.029 -0.009,0.042 -0.009,0.046c0.179,-0.068 1.342,-1.584 2.451,-3.247c0.926,-1.372 1.311,-2.07 1.277,-2.16c-0.114,-0.283 -1.148,-1.234 -1.323,-1.392zM244.269,179.755c-0.026,-0.022 -0.026,-0.052 -0.011,-0.11c0.209,-0.824 -1.778,-1.664 -1.798,-1.67l-0.039,-0.013l4.281,-5.147l0.026,0.028c0.053,0.041 1.242,1.115 1.37,1.44c0.081,0.205 -1.191,2.084 -1.583,2.653c-0.079,0.118 -1.946,2.832 -2.214,2.832c0,0 -0.028,-0.006 -0.032,-0.013z" fill="#dda20c"/><path d="M242.55,177.95c0,0 -2.031,0.838 -1.818,1.707c0.207,0.86 -3.908,-5.04 -3.782,-5.361c0.127,-0.327 1.366,-1.431 1.366,-1.431l4.233,5.085z" fill="#f7b90b"/><path d="M238.311,172.909l4.183,5.027c-0.294,0.124 -1.996,0.908 -1.797,1.726c0.013,0.026 0.013,0.039 0.013,0.046c-0.186,-0.068 -1.331,-1.578 -2.446,-3.24c-0.931,-1.379 -1.314,-2.077 -1.28,-2.167c0.105,-0.284 1.151,-1.237 1.327,-1.391zM238.509,176.949c0.079,0.114 1.942,2.82 2.207,2.82c0.01511,0.00085 0.03002,-0.00376 0.042,-0.013c0.013,-0.027 0.022,-0.055 0.004,-0.109c-0.205,-0.825 1.769,-1.665 1.799,-1.674l0.04,-0.013l-4.286,-5.145l-0.03,0.029c-0.05,0.039 -1.233,1.112 -1.368,1.44c-0.083,0.205 1.198,2.092 1.592,2.666zM220.131,146.427c0,0 7.909,-7.076 22.137,-7.076c11.714,0 22.566,7.076 22.566,7.076c-4.331,10.58 -40.709,10.45 -44.703,0" fill="#dda20c"/><path d="M220.076,139.43c0,0 -5.189,-1.866 -4.963,-3.753c0.92,-7.78 21.795,-15.677 27.156,-15.676c5.211,0 26.435,7.839 27.594,15.675c0.292,2.001 -5.03,4.324 -5.03,4.324l-44.757,-0.57" fill="#f7b90b"/><path d="M220.076,146.449v-7.02c29.261,-10.466 44.757,0.572 44.757,0.572v6.447c-25.176,-11.273 -44.757,0 -44.757,0z" fill="#343434"/><path d="M226.895,143.689c-0.018,0.006 -0.029,0.006 -0.035,0.013c0.006,-0.007 0.017,-0.007 0.035,-0.013M229.078,143.076v-0.007zM229.422,142.982c0,0.008 -0.004,0.008 -0.004,0.008c0,0 0.004,0 0.004,-0.008M229.754,142.903h0.013zM223.797,144.763h0.009zM226.522,143.8h0.013zM252.638,142.509c-0.028,-0.007 -0.046,-0.014 -0.068,-0.014c0.022,0 0.039,0.007 0.068,0.014M258.373,143.987c0,0 -0.013,0 -0.017,-0.004c0.004,0.004 0.017,0.004 0.017,0.004M264.845,146.448c-0.387,-0.172 -0.777,-0.338 -1.165,-0.504c0.38986,0.16445 0.77821,0.33246 1.165,0.504M235.213,141.882c-0.015,0.007 -0.021,0.007 -0.021,0.007c0,0 0.006,0 0.021,-0.007M255.514,143.169c-0.028,-0.007 -0.041,-0.013 -0.07,-0.013c0.029,0 0.042,0.006 0.07,0.013M223.648,144.82c-0.017,0.009 -0.03,0.009 -0.043,0.016c0.013,-0.006 0.026,-0.006 0.043,-0.016M238.128,141.584c-0.026,0.004 -0.052,0.004 -0.076,0.004c0.024,0 0.05,0 0.076,-0.004M220.359,146.304c-0.01085,-0.00023 -0.02146,0.0033 -0.03,0.01c0.008,-0.006 0.031,-0.011 0.031,-0.011M223.465,144.886c-0.013,0.009 -0.017,0.016 -0.035,0.022c0.018,-0.006 0.022,-0.012 0.035,-0.022M220.076,146.448c0,0 0.011,0 0.015,-0.006c-0.004,0.006 -0.015,0.006 -0.015,0.006M220.44,146.254c0,0.006 -0.017,0.006 -0.022,0.016c0.005,-0.009 0.022,-0.009 0.022,-0.016M220.091,146.442l0.017,-0.007zM220.546,146.204c-0.017,0.006 -0.021,0.01 -0.021,0.01c0,0 0.004,-0.004 0.021,-0.011M220.131,146.421l-0.013,0.006l0.013,-0.007zM220.24,146.361c-0.015,0.008 -0.022,0.015 -0.022,0.015l0.022,-0.016M221.163,145.894c-0.021,0.007 -0.032,0.016 -0.045,0.022c0.013,-0.006 0.024,-0.015 0.045,-0.022M221.025,145.96l-0.043,0.022l0.043,-0.022M221.304,145.828c-0.013,0.005 -0.029,0.015 -0.029,0.015c0.00901,-0.00618 0.01875,-0.01122 0.029,-0.015M220.644,146.148c-0.013,0.006 -0.017,0.012 -0.035,0.022c0.018,-0.009 0.022,-0.016 0.035,-0.022M220.751,146.095c-0.013,0.004 -0.022,0.015 -0.035,0.021c0.013,-0.006 0.022,-0.017 0.034,-0.021M220.291,146.335c-0.015,0.007 -0.022,0.007 -0.028,0.013c0.006,-0.006 0.013,-0.006 0.028,-0.013M254.795,143.023c-0.505,-0.127 -1.013,-0.262 -1.505,-0.369v-1.623c0.518,0.099 1.017,0.209 1.505,0.319zM240.292,141.449h0.007c-0.515,0.059 -1.018,0.059 -1.51,0.092v-1.439c0.505,-0.032 1.002,-0.058 1.503,-0.08zM251.904,142.36h0.008c-0.511,-0.089 -1.011,-0.177 -1.511,-0.257v-1.567c0.511,0.072 1.013,0.151 1.503,0.238zM257.682,143.777c-0.503,-0.155 -1.01,-0.294 -1.51,-0.436h0.007v-1.652c0.518,0.133 1.023,0.273 1.503,0.415zM261.956,143.574c0.5061,0.20635 1.00819,0.42239 1.506,0.648v1.632c-0.508,-0.214 -1.016,-0.415 -1.506,-0.607v-1.673M234.522,141.982c-0.6229,0.08967 -1.24402,0.19136 -1.863,0.305c0.116,-0.026 0.238,-0.045 0.353,-0.067v-1.458c0.50213,-0.08345 1.00553,-0.15913 1.51,-0.227zM260.57,143.04v1.688c-0.502,-0.181 -1.012,-0.354 -1.5,-0.519v-1.678c0.53,0.172 1.035,0.344 1.5,0.51zM247.51,140.204c0.515,0.045 1.018,0.1 1.506,0.15v1.547c-0.506,-0.068 -1.006,-0.125 -1.506,-0.179v-1.519M224.35,142.834c0.505,-0.159 1.007,-0.313 1.505,-0.453v1.64c-0.548,0.181 -1.05,0.36 -1.52,0.533h0.015v-1.72M230.124,141.307c0.504,-0.105 1.002,-0.205 1.51,-0.299v1.473c-0.518,0.106 -1.026,0.222 -1.51,0.331v-1.505M220.076,144.786v1.663v-2.112zM246.127,140.094v1.48c-0.525,0 -1.05,-0.052 -1.57,-0.072v-1.486c0.52366,0.01937 1.04704,0.04571 1.57,0.079zM221.463,143.815c0.504,-0.188 1.007,-0.36 1.504,-0.535v1.816c-0.586,0.237 -1.09,0.466 -1.504,0.66v-1.941M241.668,139.987c0.515,-0.007 1.013,-0.007 1.51,-0.007v1.47c-0.512,-0.009 -1.01,-0.016 -1.51,-0.009v-1.453M235.898,140.361c0.506,-0.057 1.005,-0.114 1.51,-0.15v1.43c-0.518,0.046 -1.015,0.12 -1.51,0.182v-1.463M228.746,141.623v1.54c-0.50397,0.13093 -1.00509,0.27263 -1.503,0.425v-1.593c0.503,-0.135 0.997,-0.251 1.503,-0.373zM253.289,138.328c0.50301,0.09989 1.00472,0.20623 1.505,0.319v1.636c-0.505,-0.122 -1.011,-0.233 -1.505,-0.34v-1.615M244.558,137.318c0.53,0.017 1.054,0.046 1.57,0.077v1.503c-0.52317,-0.04066 -1.04689,-0.074 -1.571,-0.1v-1.48M222.968,142.387c-0.50517,0.21149 -1.00658,0.43186 -1.504,0.661v-1.94c0.504,-0.186 1.004,-0.36 1.504,-0.526zM247.51,137.501c0.50298,0.04169 1.00508,0.09336 1.506,0.155v1.539c-0.506,-0.066 -1.006,-0.125 -1.506,-0.173v-1.521M250.4,137.835c0.512,0.076 1.015,0.155 1.503,0.235v1.592c-0.503,-0.1 -1.009,-0.188 -1.503,-0.26v-1.568M256.178,138.981c0.518,0.139 1.026,0.275 1.503,0.419v1.675c-0.503,-0.151 -1.009,-0.301 -1.503,-0.433v-1.66M259.069,139.82c0.529,0.173 1.037,0.35 1.499,0.52v1.688c-0.501,-0.184 -1.008,-0.36 -1.498,-0.522v-1.684M261.956,140.867c0.50571,0.20728 1.00778,0.42331 1.506,0.648v1.632c-0.508,-0.205 -1.016,-0.41 -1.506,-0.604zM235.898,137.657c0.506,-0.061 1.005,-0.107 1.51,-0.155v1.44c-0.50438,0.04007 -1.00783,0.09108 -1.51,0.153v-1.438M220.076,143.247v-1.618zM233.011,138.062c0.50228,-0.08405 1.00566,-0.16139 1.51,-0.232v1.444c-0.518,0.077 -1.02,0.16 -1.51,0.25v-1.462M230.124,138.603c0.504,-0.107 1.002,-0.207 1.51,-0.301v1.481c-0.518,0.106 -1.026,0.212 -1.51,0.326v-1.506M227.242,139.296c0.503,-0.134 0.997,-0.26 1.503,-0.382v1.54c-0.527,0.144 -1.024,0.282 -1.503,0.428v-1.586M241.668,137.284c0.5033,-0.00873 1.0067,-0.00873 1.51,0v1.464c-0.512,-0.011 -1.01,-0.011 -1.51,-0.011v-1.453M238.788,137.395c0.505,-0.032 1.002,-0.052 1.503,-0.072v1.44c-0.513,0.02 -1.009,0.042 -1.503,0.072v-1.44M224.35,140.129c0.506,-0.162 1.007,-0.308 1.506,-0.452v1.641c-0.54,0.176 -1.037,0.36 -1.506,0.532v-1.721M223.878,138.162c0.115,-0.035 0.233,-0.067 0.355,-0.107c-0.122,0.039 -0.239,0.072 -0.355,0.107M244.557,134.93c-0.446,-0.007 -0.906,-0.007 -1.372,0c1.21241,-0.02015 2.42515,0.0022 3.636,0.067c-0.227,-0.017 -0.458,-0.022 -0.693,-0.032v1.097c-0.527,-0.04 -1.052,-0.074 -1.571,-0.1v-1.032M226.639,137.369c0.083,-0.028 0.162,-0.046 0.238,-0.067c-0.077,0.021 -0.155,0.038 -0.237,0.068M234.76,135.643c0.128,-0.022 0.251,-0.032 0.388,-0.052c-0.138,0.02 -0.259,0.031 -0.388,0.052M235.345,135.556c0.165,-0.022 0.334,-0.045 0.495,-0.065c-0.161,0.019 -0.329,0.043 -0.495,0.065M220.076,139.556v-0.126zM240.315,135.043c0.456,-0.035 0.902,-0.051 1.34,-0.072c-0.438,0.022 -0.884,0.037 -1.34,0.072M247.51,135.037c-0.217,-0.013 -0.437,-0.029 -0.664,-0.039c11.847,0.63 17.999,5.003 17.999,5.003c0,0 -0.466,-0.332 -1.383,-0.816v1.138c-0.508,-0.213 -1.017,-0.423 -1.505,-0.613v-1.274c-0.423,-0.187 -0.881,-0.386 -1.388,-0.587v1.347c-0.501,-0.182 -1.011,-0.354 -1.499,-0.52v-1.385c-0.44,-0.155 -0.9,-0.301 -1.388,-0.448v1.399c-0.505,-0.152 -1.011,-0.292 -1.503,-0.432v-1.395c-0.444,-0.117 -0.904,-0.233 -1.383,-0.34v1.382c-0.508,-0.129 -1.013,-0.238 -1.508,-0.347v-1.347c-0.451,-0.078 -0.906,-0.161 -1.383,-0.24v1.307c-0.506,-0.093 -1.011,-0.18 -1.506,-0.26v-1.26c-0.451,-0.053 -0.91,-0.107 -1.383,-0.147v1.207c-0.506,-0.065 -1.006,-0.127 -1.506,-0.181zM238.184,135.217c0.172,-0.022 0.344,-0.032 0.518,-0.052c-0.174,0.02 -0.346,0.03 -0.518,0.052M237.49,135.29c0.174,-0.022 0.362,-0.04 0.53,-0.06c-0.168,0.02 -0.356,0.038 -0.53,0.06M228.746,137.629c-0.5036,0.13265 -1.00469,0.27467 -1.503,0.426v-0.847c0.503,-0.133 1.002,-0.259 1.503,-0.378v0.8M231.635,136.947c-0.519,0.11 -1.028,0.223 -1.51,0.336v-0.774c0.51,-0.104 1.009,-0.212 1.51,-0.314v0.752M243.179,135.916c-0.512,-0.006 -1.013,-0.011 -1.51,-0.006v-0.94c0.519,-0.02 1.017,-0.033 1.51,-0.04v0.986M225.95,137.557c0.12,-0.035 0.226,-0.061 0.336,-0.094c-0.109,0.033 -0.216,0.059 -0.336,0.094M231.93,136.137c0.11,-0.021 0.216,-0.043 0.32,-0.06c-0.104,0.017 -0.21,0.039 -0.32,0.061M225.857,138.488c-0.541,0.181 -1.039,0.36 -1.506,0.534v-1.001c0.506,-0.153 1.006,-0.299 1.506,-0.436v0.903M237.409,136.11c-0.518,0.046 -1.017,0.1 -1.51,0.159v-0.785c0.514,-0.066 1.009,-0.133 1.51,-0.188v0.814M240.292,135.938c-0.513,0.013 -1.011,0.041 -1.503,0.071v-0.85c0.511,-0.051 1.01,-0.086 1.503,-0.116v0.895M234.522,136.449c-0.50467,0.0706 -1.00808,0.14994 -1.51,0.238v-0.749c0.51,-0.093 1.011,-0.175 1.51,-0.255v0.766M229.567,136.636c0.148,-0.035 0.299,-0.065 0.442,-0.1c-0.143,0.035 -0.294,0.065 -0.442,0.1M228.916,136.792c0.14,-0.035 0.282,-0.07 0.412,-0.105c-0.131,0.035 -0.272,0.07 -0.412,0.105M222.968,139.562c-0.589,0.238 -1.09,0.467 -1.504,0.661v-1.274c0.504,-0.173 1.004,-0.34 1.504,-0.5v1.113M232.499,136.03c0.144,-0.027 0.294,-0.051 0.44,-0.08c-0.146,0.029 -0.296,0.053 -0.44,0.08" fill="#eeeeed"/><path d="M246.127,138.897c0.46225,0.0317 0.9237,0.07404 1.384,0.127v1.18c-0.451,-0.044 -0.917,-0.077 -1.384,-0.109v-1.198M247.51,137.501c-0.451,-0.046 -0.917,-0.078 -1.383,-0.106v-1.334c0.46,0.033 0.919,0.083 1.383,0.127v1.313M246.847,134.998h-0.026z" fill="#eeeeed"/><path d="M246.127,140.094c0.467,0.035 0.933,0.066 1.384,0.11v1.518c-0.464,-0.043 -0.924,-0.088 -1.384,-0.148v-1.479M246.127,137.395c0.462,0.02639 0.92343,0.06207 1.384,0.107v1.521c-0.464,-0.053 -0.924,-0.094 -1.384,-0.127v-1.501M246.127,134.964c0.236,0.013 0.467,0.017 0.693,0.034h0.026c0.22174,0.01133 0.44341,0.024 0.665,0.038v1.154c-0.464,-0.046 -0.924,-0.094 -1.384,-0.129z" fill="#343434"/><path d="M249.017,139.195c0.46218,0.06127 0.92325,0.13062 1.383,0.208v1.132c-0.451,-0.059 -0.911,-0.118 -1.383,-0.181v-1.159M250.4,137.834c-0.451,-0.066 -0.911,-0.125 -1.384,-0.177v-1.287c0.46,0.06 0.917,0.128 1.384,0.2v1.264" fill="#eeeeed"/><path d="M249.017,140.355c0.473,0.06 0.933,0.122 1.383,0.18v1.569c-0.466,-0.076 -0.923,-0.143 -1.383,-0.203v-1.547M249.017,137.657c0.473,0.052 0.933,0.111 1.383,0.177v1.568c-0.466,-0.078 -0.923,-0.146 -1.383,-0.207v-1.538M250.4,136.57c-0.467,-0.072 -0.924,-0.137 -1.384,-0.201v-1.204c0.473,0.037 0.933,0.094 1.384,0.144z" fill="#343434"/><path d="M251.904,139.662c0.457,0.087 0.917,0.181 1.385,0.281v1.087c-0.451,-0.087 -0.91,-0.172 -1.385,-0.255v-1.113M253.289,142.643c-0.22,-0.046 -0.438,-0.094 -0.652,-0.136c0.214,0.042 0.432,0.09 0.652,0.136M252.57,142.496c-0.227,-0.046 -0.436,-0.094 -0.658,-0.135c0.222,0.041 0.431,0.089 0.658,0.135M253.289,138.328c-0.451,-0.091 -0.911,-0.179 -1.386,-0.257v-1.242c0.46283,0.08881 0.92485,0.18181 1.386,0.279v1.22" fill="#eeeeed"/><path d="M253.289,142.642c-0.22,-0.046 -0.438,-0.093 -0.652,-0.133c-0.027,-0.006 -0.045,-0.013 -0.067,-0.013c-0.227,-0.047 -0.436,-0.094 -0.658,-0.137h-0.009v-1.584c0.46277,0.08075 0.92479,0.16575 1.386,0.255zM251.904,138.07c0.46321,0.07752 0.92495,0.16353 1.385,0.258v1.614c-0.468,-0.1 -0.928,-0.192 -1.385,-0.282v-1.59M253.289,137.109c-0.469,-0.1 -0.928,-0.194 -1.386,-0.279v-1.305c0.48,0.078 0.935,0.159 1.386,0.238z" fill="#343434"/><path d="M256.178,138.982c-0.442,-0.114 -0.902,-0.227 -1.384,-0.334v-1.191c0.46327,0.11031 0.92466,0.22833 1.384,0.354v1.171M254.795,140.282c0.46303,0.11337 0.92441,0.23338 1.384,0.36v1.047c-0.443,-0.115 -0.902,-0.227 -1.384,-0.34v-1.067M256.172,143.342" fill="#eeeeed"/><path d="M256.178,143.342l-0.007,0.009c-0.22,-0.064 -0.444,-0.116 -0.657,-0.177c-0.027,-0.004 -0.04,0 -0.07,-0.004c-0.212,-0.064 -0.427,-0.149 -0.65,-0.149v-1.671c0.46292,0.10607 0.9243,0.21875 1.384,0.338zM254.795,138.648c0.46289,0.10479 0.92427,0.21613 1.384,0.334v1.66c-0.464,-0.129 -0.924,-0.247 -1.384,-0.36v-1.634M256.178,137.811c-0.464,-0.129 -0.924,-0.244 -1.384,-0.354v-1.38c0.46365,0.10297 0.92508,0.21566 1.384,0.338z" fill="#343434"/><path d="M258.356,143.983c-0.222,-0.067 -0.446,-0.14 -0.675,-0.207c0.229,0.067 0.453,0.139 0.675,0.207M259.069,139.822c-0.44,-0.138 -0.906,-0.282 -1.387,-0.42v-1.16c0.46434,0.13926 0.92704,0.28393 1.388,0.434v1.146M257.682,141.075c0.46,0.135 0.918,0.282 1.388,0.432v1.023c-0.44,-0.142 -0.906,-0.288 -1.388,-0.425v-1.03" fill="#eeeeed"/><path d="M257.682,142.104c0.482,0.137 0.948,0.283 1.388,0.425v1.68c-0.237,-0.072 -0.471,-0.15 -0.697,-0.222c0,0 -0.011,0 -0.015,-0.005c-0.223,-0.067 -0.449,-0.139 -0.676,-0.205v-1.673M257.682,139.402c0.482,0.137 0.948,0.281 1.388,0.419v1.686c-0.471,-0.15 -0.928,-0.298 -1.388,-0.432v-1.673M259.069,137.29v1.386c-0.47,-0.155 -0.927,-0.295 -1.387,-0.433v-1.4c0.488,0.147 0.948,0.293 1.388,0.447z" fill="#343434"/><path d="M261.956,140.868c-0.429,-0.166 -0.88,-0.346 -1.387,-0.526v-1.147c0.46446,0.16659 0.92682,0.33893 1.387,0.517v1.156M260.569,142.027c0.46618,0.16206 0.92894,0.33376 1.388,0.515v1.032c-0.431,-0.172 -0.882,-0.345 -1.387,-0.532v-1.015" fill="#eeeeed"/><path d="M260.569,143.041c0.46485,0.17192 0.92755,0.3496 1.388,0.533v1.674c-0.464,-0.18 -0.924,-0.352 -1.387,-0.52v-1.687M260.569,142.027v-1.684c0.506,0.179 0.957,0.36 1.388,0.525v1.674c-0.464,-0.183 -0.924,-0.354 -1.387,-0.515zM261.956,139.711c-0.464,-0.181 -0.923,-0.349 -1.387,-0.514v-1.35c0.507,0.201 0.967,0.402 1.387,0.59z" fill="#343434"/><path d="M263.463,140.322c0.46336,0.19246 0.92439,0.39048 1.383,0.594v5.532v-1.54c0,0 -0.481,-0.272 -1.383,-0.687v-1.073c0.451,0.194 0.941,0.392 1.383,0.6v-1.545c0,0 -0.481,-0.277 -1.383,-0.687zM263.462,145.854c0.064,0.028 0.144,0.06 0.21,0.09c-0.066,-0.03 -0.146,-0.062 -0.209,-0.09" fill="#eeeeed"/><path d="M263.463,144.222c0.902,0.412 1.383,0.685 1.383,0.685v1.542c-0.388,-0.175 -0.78,-0.34 -1.174,-0.505c-0.066,-0.03 -0.146,-0.062 -0.209,-0.09v-1.632M264.845,143.749c-0.442,-0.21 -0.933,-0.408 -1.383,-0.6v-1.632c0.902,0.41 1.383,0.687 1.383,0.687v1.545M263.463,139.184c0.917,0.484 1.383,0.816 1.383,0.816v0.915c-0.466,-0.207 -0.933,-0.406 -1.383,-0.594v-1.136" fill="#343434"/><path d="M220.119,146.426c0,0.01 -0.007,0.01 -0.007,0.01l0.007,-0.009M220.21,146.376c-0.013,0.006 -0.013,0.01 -0.026,0.01c0.013,0 0.013,-0.004 0.026,-0.01M220.142,146.414c0,0 -0.004,0 -0.01,0.007c0.006,-0.007 0.01,-0.007 0.01,-0.007M220.983,145.982c-0.042,0.019 -0.079,0.041 -0.122,0.058c0.043,-0.017 0.08,-0.038 0.122,-0.058M221.117,145.915l-0.092,0.046l0.092,-0.046M221.464,145.756c-0.05,0.026 -0.107,0.046 -0.16,0.072c0.053,-0.026 0.109,-0.046 0.159,-0.072M221.463,138.948c-0.459,0.152 -0.917,0.317 -1.387,0.482c0.47,-0.165 0.927,-0.329 1.387,-0.482M220.419,146.269c-0.022,0.013 -0.042,0.018 -0.059,0.035c0.017,-0.017 0.037,-0.022 0.059,-0.034M221.463,143.816c-0.468,0.168 -0.917,0.338 -1.387,0.522v-1.09v0.5c0,0 0.483,-0.281 1.387,-0.7zM221.463,141.108c-0.468,0.166 -0.917,0.341 -1.387,0.522v-2.076v1.36c0,0 0.483,-0.272 1.387,-0.692zM220.517,146.214c-0.027,0.013 -0.053,0.028 -0.077,0.041c0.024,-0.013 0.05,-0.028 0.077,-0.041M220.263,146.348l-0.02,0.013l0.02,-0.013M220.717,146.116c-0.024,0.011 -0.055,0.026 -0.072,0.032c0.017,-0.006 0.048,-0.022 0.072,-0.032M220.33,146.314l-0.04,0.022l0.04,-0.022" fill="#eeeeed"/><path d="M220.076,144.337c0.471,-0.184 0.919,-0.354 1.387,-0.522v1.94c-0.051,0.026 -0.106,0.046 -0.16,0.074l-0.04,0.013c-0.03169,0.02033 -0.06516,0.03774 -0.1,0.052c-0.022,0.007 -0.032,0.016 -0.046,0.022c-0.03114,0.01293 -0.06152,0.02762 -0.091,0.044c-0.015,0.006 -0.031,0.015 -0.044,0.021c-0.041,0.02 -0.078,0.04 -0.121,0.06c-0.03531,0.02064 -0.07208,0.03868 -0.11,0.054c-0.013,0.005 -0.021,0.013 -0.034,0.02l-0.072,0.033c-0.013,0.006 -0.018,0.013 -0.035,0.021l-0.064,0.034l-0.03,0.01l-0.076,0.041c0,0.007 -0.017,0.007 -0.022,0.016c-0.022,0.013 -0.039,0.017 -0.072,0.033l-0.017,0.01c-0.011,0.007 -0.024,0.013 -0.037,0.022c-0.015,0.007 -0.022,0.007 -0.029,0.013c-0.01,0.007 -0.023,0.013 -0.023,0.013l-0.029,0.016c-0.013,0.004 -0.013,0.008 -0.026,0.008c-0.01164,0.01362 -0.02689,0.02368 -0.044,0.029c0,0 -0.004,0 -0.01,0.006l-0.012,0.006c-0.006,0.01 -0.01,0.01 -0.01,0.01l-0.018,0.006c-0.004,0.007 -0.015,0.007 -0.015,0.007v-2.112M221.463,143.048c-0.904,0.419 -1.387,0.7 -1.387,0.7v-2.119c0.47,-0.178 0.919,-0.353 1.387,-0.521v1.94M221.463,140.222c-0.904,0.419 -1.387,0.692 -1.387,0.692v-1.484c0.47,-0.165 0.927,-0.329 1.387,-0.482v1.274" fill="#343434"/><path d="M222.968,145.095c0.148,-0.059 0.307,-0.128 0.464,-0.187c-0.157,0.059 -0.316,0.128 -0.464,0.187M224.336,144.554c-0.186,0.065 -0.356,0.142 -0.53,0.21c0.174,-0.068 0.344,-0.145 0.529,-0.21M223.797,144.763c-0.046,0.017 -0.098,0.039 -0.148,0.056c0.05,-0.017 0.102,-0.039 0.148,-0.056M223.606,144.835c-0.042,0.018 -0.092,0.04 -0.14,0.05c0.048,-0.01 0.098,-0.032 0.14,-0.05M224.35,140.129c-0.463,0.146 -0.919,0.292 -1.383,0.453v-1.02c0.414,-0.173 0.88,-0.354 1.383,-0.54v1.107M222.968,142.387c0.45673,-0.18981 0.91786,-0.36886 1.383,-0.537v0.984c-0.464,0.142 -0.919,0.295 -1.383,0.446v-0.893M223.544,138.271c0.115,-0.035 0.223,-0.066 0.333,-0.11c-0.111,0.044 -0.218,0.075 -0.333,0.109M222.968,138.45c0.08,-0.029 0.165,-0.053 0.25,-0.079c-0.078,0.026 -0.17,0.05 -0.25,0.079" fill="#eeeeed"/><path d="M224.35,144.553h-0.014c-0.186,0.066 -0.356,0.145 -0.53,0.21h-0.009l-0.148,0.057c-0.017,0.009 -0.031,0.009 -0.043,0.015c-0.04,0.018 -0.092,0.04 -0.14,0.05c-0.013,0.009 -0.017,0.016 -0.035,0.022c-0.157,0.061 -0.314,0.128 -0.464,0.188v-1.815c0.464,-0.151 0.919,-0.306 1.383,-0.446zM222.968,140.582c0.463,-0.161 0.919,-0.307 1.383,-0.453v1.721c-0.506,0.183 -0.972,0.364 -1.383,0.537v-1.805M224.35,139.021c-0.502,0.186 -0.969,0.367 -1.382,0.54v-1.113c0.08,-0.026 0.171,-0.052 0.25,-0.078c0.109,-0.033 0.213,-0.068 0.326,-0.1c0.11301,-0.03137 0.22447,-0.06808 0.334,-0.11c0.115,-0.033 0.235,-0.068 0.355,-0.105c0.04026,-0.00696 0.07954,-0.01871 0.117,-0.035v1.003" fill="#343434"/><path d="M225.857,141.317c0.438,-0.141 0.889,-0.288 1.385,-0.436v1.115c-0.468,0.124 -0.917,0.254 -1.385,0.384v-1.063M225.857,144.021c0.213,-0.072 0.438,-0.144 0.666,-0.222c-0.228,0.078 -0.453,0.15 -0.666,0.222M227.242,139.296c-0.469,0.122 -0.918,0.244 -1.386,0.382v-1.19c0.438,-0.146 0.889,-0.294 1.386,-0.432v1.24M226.286,137.463c0.116,-0.034 0.236,-0.061 0.353,-0.094c-0.117,0.033 -0.237,0.059 -0.353,0.094M225.857,137.585c0.033,-0.007 0.063,-0.022 0.093,-0.029c-0.03,0.007 -0.061,0.022 -0.093,0.029M227.242,137.207c-0.122,0.035 -0.24,0.061 -0.364,0.094c0.124,-0.033 0.242,-0.059 0.364,-0.094M227.242,143.589c-0.122,0.035 -0.24,0.065 -0.347,0.1c0.107,-0.035 0.225,-0.065 0.347,-0.1" fill="#eeeeed"/><path d="M225.857,142.381c0.468,-0.133 0.917,-0.26 1.385,-0.387v1.596c-0.122,0.032 -0.242,0.065 -0.346,0.1c-0.018,0.006 -0.028,0.006 -0.035,0.011c-0.115,0.032 -0.222,0.068 -0.325,0.098h-0.013c-0.228,0.078 -0.453,0.15 -0.666,0.222v-1.641M225.857,139.677c0.468,-0.135 0.917,-0.26 1.385,-0.382v1.586c-0.496,0.149 -0.947,0.295 -1.385,0.436v-1.64M227.242,138.055c-0.497,0.138 -0.948,0.288 -1.386,0.432v-0.903c0.033,-0.006 0.065,-0.022 0.094,-0.028l0.337,-0.092c0.113,-0.035 0.236,-0.063 0.353,-0.093c0.083,-0.029 0.162,-0.049 0.238,-0.07c0.124,-0.031 0.242,-0.059 0.364,-0.094v0.848" fill="#343434"/><path d="M230.125,138.603c-0.46,0.1 -0.92,0.207 -1.38,0.312v-1.285c0.434,-0.122 0.904,-0.235 1.379,-0.345v1.318M230.124,142.813c-0.115,0.029 -0.235,0.055 -0.357,0.09c0.122,-0.035 0.242,-0.061 0.357,-0.09M229.329,136.687c0.08,-0.017 0.161,-0.032 0.237,-0.05c-0.077,0.018 -0.157,0.033 -0.237,0.05M228.745,140.455c0.434,-0.118 0.905,-0.232 1.38,-0.345v1.198c-0.459,0.1 -0.919,0.198 -1.379,0.314v-1.167M229.754,142.903c-0.115,0.026 -0.222,0.052 -0.33,0.078c0.108,-0.026 0.215,-0.052 0.33,-0.078M230.124,136.509" fill="#eeeeed"/><path d="M228.745,141.622c0.46,-0.116 0.92,-0.216 1.38,-0.316v1.507c-0.116,0.029 -0.238,0.055 -0.358,0.09h-0.013c-0.115,0.026 -0.221,0.052 -0.331,0.079c0,0.008 -0.013,0.008 -0.013,0.008c-0.107,0.024 -0.22,0.05 -0.334,0.079v0.006c-0.112,0.027 -0.228,0.053 -0.33,0.087v-1.54M228.745,138.914c0.46,-0.105 0.92,-0.212 1.38,-0.312v1.508c-0.475,0.114 -0.946,0.227 -1.379,0.344v-1.54M230.125,137.284c-0.476,0.111 -0.946,0.225 -1.38,0.345v-0.798c0.05591,-0.01636 0.11266,-0.02971 0.17,-0.04c0.142,-0.032 0.281,-0.07 0.414,-0.102c0.081,-0.018 0.161,-0.033 0.238,-0.053c0.15,-0.033 0.298,-0.065 0.442,-0.1c0.039,-0.006 0.076,-0.016 0.115,-0.026v0.774" fill="#343434"/><path d="M231.635,139.783c0.442,-0.093 0.902,-0.18 1.377,-0.26v1.24c-0.457,0.072 -0.913,0.153 -1.377,0.247v-1.227M233.011,138.062c-0.45966,0.0742 -0.91836,0.15421 -1.376,0.24v-1.355c0.442,-0.083 0.901,-0.173 1.376,-0.26v1.375M231.635,136.195c0.096,-0.019 0.2,-0.041 0.296,-0.056c-0.096,0.015 -0.2,0.036 -0.296,0.056M232.252,136.076c0.081,-0.02 0.168,-0.033 0.246,-0.046c-0.078,0.013 -0.166,0.026 -0.246,0.046M231.635,142.48" fill="#eeeeed"/><path d="M233.011,142.221c-0.115,0.022 -0.235,0.041 -0.353,0.065c-0.34141,0.06284 -0.68242,0.12784 -1.023,0.195v-1.473c0.45682,-0.09172 0.9156,-0.1734 1.376,-0.245zM231.635,138.303c0.464,-0.088 0.919,-0.166 1.377,-0.24v1.461c-0.475,0.079 -0.935,0.166 -1.377,0.26v-1.481M233.011,136.687c-0.475,0.088 -0.934,0.177 -1.376,0.26v-0.753c0.096,-0.017 0.2,-0.039 0.296,-0.057l0.32,-0.06c0.081,-0.02 0.17,-0.033 0.248,-0.048c0.17108,-0.02831 0.34176,-0.05898 0.512,-0.092v0.75" fill="#343434"/><path d="M235.179,141.888c-0.22,0.035 -0.447,0.059 -0.657,0.094c0.211,-0.034 0.438,-0.059 0.658,-0.094M234.522,139.275c0.453,-0.058 0.907,-0.127 1.377,-0.18v1.266c-0.46,0.054 -0.917,0.109 -1.377,0.174v-1.261M235.898,141.801c-0.233,0.029 -0.459,0.053 -0.684,0.08c0.224,-0.027 0.451,-0.051 0.684,-0.08M235.147,135.59c0.066,-0.013 0.136,-0.022 0.199,-0.035c-0.063,0.013 -0.133,0.022 -0.199,0.035M235.898,137.657c-0.459,0.052 -0.916,0.112 -1.376,0.172v-1.38c0.453,-0.066 0.906,-0.127 1.376,-0.18v1.388M235.898,135.484c-0.021,0 -0.045,0.006 -0.045,0.006c0,0 0.024,-0.006 0.045,-0.006" fill="#eeeeed"/><path d="M235.898,141.823c-0.233,0 -0.459,0.043 -0.684,0.072c-0.015,0.006 -0.035,-0.007 -0.035,-0.007c-0.22,0.034 -0.447,0.061 -0.657,0.094v-1.447c0.459,-0.065 0.916,-0.12 1.376,-0.175zM234.522,137.83c0.46,-0.061 0.917,-0.12 1.377,-0.173v1.438c-0.471,0.052 -0.924,0.122 -1.377,0.179v-1.444M235.898,136.269c-0.46009,0.05137 -0.91917,0.11138 -1.377,0.18v-0.766l0.24,-0.039c0.126,-0.022 0.251,-0.033 0.386,-0.055c0.068,-0.011 0.135,-0.02 0.198,-0.033c0.166,-0.021 0.333,-0.045 0.508,-0.065c0.01469,-0.00401 0.02978,-0.00636 0.045,-0.007v0.786" fill="#343434"/><path d="M238.788,135.158c-0.029,0.006 -0.059,0.006 -0.085,0.006c0.02846,0.00085 0.05694,-0.00116 0.085,-0.006M237.409,141.641c0.207,-0.019 0.416,-0.034 0.643,-0.052c-0.227,0.018 -0.436,0.032 -0.643,0.052M238.02,135.23c0.054,-0.006 0.109,-0.006 0.163,-0.013c-0.054,0.007 -0.109,0.007 -0.163,0.013M237.409,135.296c0.026,0 0.055,-0.006 0.08,-0.006c-0.025,0 -0.054,0.006 -0.08,0.006M238.788,141.541c-0.218,0.016 -0.443,0.026 -0.66,0.044c0.217,-0.018 0.442,-0.028 0.66,-0.044M238.788,137.395c-0.46,0.035 -0.92,0.067 -1.38,0.107v-1.392c0.45963,-0.03831 0.91965,-0.07165 1.38,-0.1v1.385M237.409,138.942c0.45946,-0.04236 0.91951,-0.07803 1.38,-0.107v1.267c-0.46,0.027 -0.92,0.068 -1.38,0.107v-1.267" fill="#eeeeed"/><path d="M237.409,140.21c0.459,-0.04 0.919,-0.081 1.379,-0.107v1.437c-0.218,0.016 -0.442,0.027 -0.66,0.044c-0.026,0.004 -0.052,0.004 -0.076,0.004c-0.227,0.02 -0.436,0.033 -0.643,0.052v-1.43M237.409,137.501c0.46,-0.039 0.92,-0.072 1.38,-0.106v1.44c-0.474,0.028 -0.925,0.069 -1.38,0.106v-1.44M238.788,136.01c-0.473,0.028 -0.924,0.061 -1.379,0.1v-0.813c0.026,0 0.056,-0.007 0.08,-0.007c0.175,-0.022 0.362,-0.039 0.53,-0.059c0.056,-0.006 0.109,-0.006 0.165,-0.013c0.172,-0.022 0.344,-0.033 0.519,-0.055c0.02846,0.00085 0.05694,-0.00116 0.085,-0.006v0.853" fill="#343434"/><path d="M241.668,141.441c-0.46,0 -0.917,0.015 -1.37,0.029c0.453,-0.014 0.91,-0.029 1.37,-0.029M240.292,138.763c0.459,-0.016 0.917,-0.022 1.377,-0.026v1.252c-0.451,0.004 -0.911,0.02 -1.377,0.033v-1.259M241.655,134.97h0.013zM240.312,135.043h-0.02zM241.668,137.284c-0.45885,0.0056 -0.91757,0.0186 -1.376,0.039v-1.385c0.459,-0.015 0.916,-0.028 1.376,-0.028v1.374" fill="#eeeeed"/><path d="M240.292,140.022c0.466,-0.013 0.926,-0.028 1.376,-0.035v1.453c-0.46,0 -0.917,0.009 -1.37,0.009h-0.006v-1.427M240.292,137.323c0.466,-0.022 0.926,-0.033 1.377,-0.04v1.453c-0.46,0.005 -0.917,0.011 -1.377,0.027v-1.44M241.668,135.91c-0.459,0 -0.916,0.013 -1.376,0.028v-0.894h0.023c0.456,-0.035 0.902,-0.053 1.34,-0.074h0.013v0.94" fill="#343434"/><path d="M243.178,138.748c0.46,0.006 0.914,0.028 1.38,0.048v1.22c-0.453,-0.015 -0.913,-0.029 -1.379,-0.035v-1.233M243.178,141.45c0.46,0.013 0.914,0.024 1.38,0.05c-0.466,-0.026 -0.919,-0.037 -1.379,-0.05M243.185,134.93h-0.006zM244.558,137.318c-0.454,-0.022 -0.913,-0.028 -1.38,-0.035v-1.368c0.46,0.013 0.913,0.029 1.379,0.046v1.357" fill="#eeeeed"/><path d="M243.178,139.982c0.4601,0.0068 0.92012,0.01813 1.38,0.034v1.484c-0.466,-0.026 -0.919,-0.037 -1.379,-0.05v-1.468M243.178,137.285c0.46016,0.00386 0.92023,0.01553 1.38,0.035v1.476c-0.466,-0.019 -0.919,-0.041 -1.379,-0.048v-1.464M244.558,135.962c-0.467,-0.018 -0.92,-0.033 -1.38,-0.046v-1.006h0.007c0.466,0 0.926,0.013 1.372,0.02v1.03" fill="#343434"/><path d="M244.251,138.315c0,1.5 -0.804,2.721 -1.795,2.721c-0.998,0 -1.804,-1.222 -1.804,-2.72c0,-1.5 0.806,-2.72 1.804,-2.72c0.991,0 1.795,1.22 1.795,2.72" fill="#f7b90b"/></g></g></svg>