<svg xmlns="http://www.w3.org/2000/svg" width="88.2" height="118.731"><g fill-rule="evenodd" stroke-miterlimit="10" data-paper-data="{&quot;isPaintingLayer&quot;:true}" style="mix-blend-mode:normal"><path fill="#ff83af" d="M42.047 64.385c8.556.63 16.59-1.034 23.108-4.321 2.665 7.927 4.22 16.386 4.22 23.306 0 18.798-11.45 18.512-25.569 18.512s-25.568.286-25.568-18.512c0-7.32 1.736-16.36 4.688-24.666 5.438 3.106 11.986 5.155 19.121 5.68"/><path fill="#9e6d3f" d="M14.752 34.91c-.299 4.078-3.837 7.144-7.908 6.843-4.067-.3-7.124-3.85-6.824-7.93.3-4.077 3.837-7.143 7.908-6.841 4.068.3 7.125 3.849 6.824 7.929" data-paper-data="{&quot;origPos&quot;:null}"/><path fill="#64370d" d="M11.867 33.992a4.498 4.498 0 0 1-4.81 4.16 4.498 4.498 0 0 1-4.152-4.822 4.499 4.499 0 0 1 4.81-4.161 4.502 4.502 0 0 1 4.152 4.823" data-paper-data="{&quot;origPos&quot;:null}"/><path fill="#9e6d3f" d="M88.18 40.317c-.299 4.08-3.84 7.146-7.909 6.844-4.07-.3-7.125-3.85-6.825-7.93.297-4.076 3.84-7.142 7.907-6.84 4.07.296 7.124 3.849 6.827 7.926" data-paper-data="{&quot;origPos&quot;:null}"/><path fill="#64370d" d="M85.291 39.4a4.496 4.496 0 0 1-4.807 4.162c-2.475-.18-4.334-2.34-4.154-4.823a4.503 4.503 0 0 1 4.814-4.162 4.5 4.5 0 0 1 4.147 4.823" data-paper-data="{&quot;origPos&quot;:null}"/><path fill="#d66c00" d="M77.916 30.623c-1.133 15.472-17.194 26.902-35.869 25.526C23.37 54.772 9.15 41.112 10.282 25.642 11.417 10.166 27.476-1.261 46.152.112c18.677 1.376 32.896 15.036 31.764 30.51"/><path fill="#ba5e00" d="M10.71 31.57c1.136-15.473 17.1-26.911 35.668-25.545C63.011 7.25 76.075 18.342 77.795 31.768 75.977 46.654 60.26 57.493 42.047 56.15 25.992 54.968 13.24 44.704 10.692 32.017c.008-.15.008-.297.018-.447"/><path fill="#9e6d3f" d="M80.811 39.07c-1.133 15.475-18.49 26.809-38.764 25.315C21.768 62.89 6.253 49.135 7.387 33.66 8.517 18.187 25.874 6.856 46.152 8.347 66.426 9.84 81.946 23.593 80.811 39.069" data-paper-data="{&quot;origPos&quot;:null}"/><path fill="#9e8772" d="M48.458 16.774c.158 1.98-5.79 4.08-13.29 4.685-7.495.604-13.705-.511-13.863-2.494-.16-1.98 5.79-4.08 13.287-4.685 7.5-.604 13.703.51 13.866 2.494" data-paper-data="{&quot;origPos&quot;:null}"/><path fill="#e3ac94" d="M58.18 10.819c-.897 3.52-6.8 5.895-13.742 5.38-6.54-.48-11.79-3.36-12.69-6.711 4.485-1.085 9.354-1.513 14.404-1.14 4.1.295 8.143 1.126 12.027 2.47"/><path fill="#d66c00" d="M56.463 10.025c-.235 3.176-5.575 5.37-11.93 4.902-6.358-.47-11.322-3.423-11.09-6.597.233-3.176 5.573-5.37 11.93-4.9 6.357.469 11.32 3.42 11.09 6.595"/><path fill="#9e8772" d="M49.43 59.079c-.126 1.667-2.733 2.83-5.83 2.604-3.096-.227-5.51-1.763-5.387-3.43.123-1.665 2.73-2.834 5.827-2.605 3.098.228 5.508 1.766 5.39 3.43" data-paper-data="{&quot;origPos&quot;:null}"/><path fill="#bf4545" d="M33.53 48.499c-2.519-4.426 1.402-6.842 4.28-5.2 2.876 1.644 5.148 2.38 6.568 2.397 1.421.012 3.708-.677 6.614-2.266 2.91-1.587 6.78.91 4.18 5.28-2.603 4.373-10.866 4.227-10.866 4.227s-8.258-.015-10.777-4.438"/><path fill="#fff" d="M52.198 45.257c.078.967-2.459 1.37-3.069.595-.225-.29-.276-.82-.255-1.371a29.306 29.306 0 0 0 2.118-1.05c.141-.08.285-.142.433-.202.354.69.73 1.526.773 2.028"/><path fill="#ff5c5c" d="M44.34 49.722s4.312.009 7.656 1.683c-3.377 1.608-7.69 1.532-7.69 1.532s-4.312-.01-7.654-1.683c3.374-1.608 7.687-1.532 7.687-1.532"/><path fill="#e3ac94" d="M44.792 39.22c-5.038-.372-3.563-3.237-3.563-3.237s-.287 1.94 3.635 2.23c3.926.288 3.926-1.673 3.926-1.673s1.038 3.05-3.998 2.68"/><path fill="#ffa6a6" d="M15.247 34.064c2.934.217 5.171 2.314 4.996 4.684-.173 2.368-2.69 4.117-5.625 3.9-2.934-.217-5.17-2.314-4.997-4.684.176-2.371 2.692-4.117 5.626-3.9m57.693 4.249c2.935.216 5.17 2.314 4.995 4.684-.173 2.37-2.69 4.117-5.625 3.9-2.933-.217-5.168-2.314-4.995-4.684.173-2.368 2.692-4.117 5.625-3.9"/><path fill="#9e8772" d="m35.487 33.319-.019.054c-.138.432-.506.76-.953.85-12.839 2.696-17.407-1.894-17.407-1.894-.847-2.06.204-4.527.204-4.527s1.38-3.5 5.725-4.754a14.7 14.7 0 0 1 5.293-.543c5.271.429 8.775 5.763 7.157 10.814" data-paper-data="{&quot;origPos&quot;:null}"/><path fill="#87623e" d="M31.222 30.638c-.078 3.363-2.233 6.04-4.814 5.98-2.576-.06-4.606-2.834-4.528-6.197.078-3.361 2.23-6.038 4.81-5.978 2.582.06 4.61 2.832 4.532 6.195" data-paper-data="{&quot;origPos&quot;:null}"/><path fill="#61462d" d="M29.624 30.603c-.05 2.213-1.47 3.974-3.165 3.933-1.699-.037-3.037-1.863-2.985-4.075.05-2.214 1.47-3.98 3.17-3.936 1.7.039 3.032 1.863 2.982 4.077"/><path fill="#fff" d="M26.88 28.727c-.288 1.485-1.443 2.506-2.58 2.286-1.137-.218-1.83-1.598-1.546-3.086.29-1.48 1.441-2.505 2.578-2.283 1.14.22 1.831 1.598 1.547 3.083M29.532 32.997c-.198 1.024-.993 1.73-1.777 1.58-.786-.152-1.263-1.105-1.065-2.13.195-1.02.99-1.727 1.777-1.578.785.15 1.26 1.106 1.065 2.128"/><path fill="#9e8772" d="M52.611 33.33c-1.145-5.192 2.86-10.173 8.163-10.098 1.778.03 3.536.38 5.19 1.032 4.21 1.654 5.256 5.27 5.256 5.27s.82 2.555-.218 4.53c0 0-4.972 4.137-17.506.259a1.274 1.274 0 0 1-.87-.936c-.006-.021-.009-.038-.015-.056" data-paper-data="{&quot;origPos&quot;:null}"/><path fill="#87623e" d="M57.11 31.062c.233-3.358 2.512-5.93 5.085-5.748 2.572.183 4.468 3.049 4.235 6.403-.237 3.352-2.512 5.928-5.087 5.745-2.573-.18-4.47-3.046-4.233-6.4"/><path fill="#61462d" d="M58.701 31.173c.155-2.21 1.654-3.9 3.347-3.783 1.697.12 2.945 2.005 2.788 4.215-.153 2.206-1.653 3.9-3.348 3.783-1.693-.123-2.94-2.005-2.787-4.215"/><path fill="#fff" d="M58.312 29.295c.224-1.494 1.333-2.566 2.481-2.392 1.145.172 1.893 1.52 1.672 3.014-.225 1.493-1.333 2.565-2.482 2.395-1.145-.171-1.894-1.523-1.672-3.017M62.447 32.799c.194-1.025.992-1.731 1.777-1.577.781.152 1.262 1.104 1.064 2.126-.198 1.024-.992 1.73-1.777 1.578-.787-.151-1.262-1.106-1.064-2.127"/><path fill="#e06a94" d="M43.806 81.477c9.797 0 18.705-.376 25.351-2.794.14 1.558.213 3.121.218 4.686 0 18.798-11.45 18.514-25.569 18.514s-25.568.284-25.568-18.514c.004-1.564.075-3.128.213-4.686 6.651 2.418 15.558 2.794 25.355 2.794"/><path fill="#cc5c84" d="M43.806 97.279c13.277 0 24.186-1.44 25.446-17.24.07 1.14.123 2.26.123 3.33 0 18.799-11.45 18.513-25.569 18.513s-25.568.286-25.568-18.512c.006-1.111.047-2.222.123-3.33 1.257 15.799 12.168 17.239 25.445 17.239"/><path fill="#bf4772" d="M43.805 100.088c13.883 0 25.17.265 25.55-17.584.006.289.02.583.02.866 0 18.798-11.45 18.512-25.569 18.512s-25.568.286-25.568-18.512c0-.283.012-.577.018-.866.381 17.849 11.67 17.584 25.55 17.584"/><path fill="#cc5c84" d="M14.773 85.677c1.12-.82 2.276-1.59 3.465-2.307 0 0 12.034-.536 20.377 18.4 0 0-6.183 2.826-15.123 3.955-6.118.775-11.838-1.29-13.316-7.292-1.178-4.793.618-9.843 4.597-12.756"/><path fill="#bf4772" d="M23.492 103.075c6.778-.856 12.364-2.191 14.478-3.026.355.709.305.949.645 1.722 0 0-6.183 2.82-15.123 3.955-6.118.775-11.838-1.29-13.316-7.293a12.284 12.284 0 0 1-.278-4.26c.057.542.15 1.08.278 1.61 1.478 6.002 7.198 8.068 13.316 7.292"/><path fill="#cc5c84" d="M10.982 90.284c15.178 5.637 19.52 12.947 19.52 12.947.79 5.668-6.605 8.597-10.795 8.096-3.132-.375-8.676-4.495-9.692-9.445-1.593-7.752.967-11.598.967-11.598"/><path fill="#91415e" d="M35.184 106.053c-.915 2.46-2.657 5.754-5.977 9.426-7.069 7.822-12.485-.486-11.535-3.918.95-3.434 6.941-4.322 10.883-9.017.123-.15.244-.287.365-.42 2.75-2.931 7.664.167 6.264 3.929"/><path fill="#cc5c84" d="M72.77 85.677c3.976 2.913 5.772 7.963 4.595 12.756-1.478 6.002-7.2 8.067-13.318 7.292-8.938-1.13-15.122-3.954-15.122-3.954C57.27 82.834 69.303 83.37 69.303 83.37a47.172 47.172 0 0 1 3.466 2.307"/><path fill="#bf4772" d="M77.364 95.782c.129-.53.222-1.068.278-1.61a12.202 12.202 0 0 1-.278 4.26c-1.478 6.004-7.198 8.069-13.316 7.294-8.94-1.133-15.122-3.954-15.122-3.954.34-.773.457-1.034.812-1.743 2.115.836 7.53 2.19 14.31 3.046 6.118.775 11.838-1.29 13.316-7.292"/><path fill="#cc5c84" d="M76.558 90.284s2.56 3.846.968 11.598c-1.017 4.95-6.558 9.07-9.693 9.445-4.19.5-12.456-1.17-11.664-6.834 0 0 5.211-8.572 20.39-14.21"/><path fill="#91415e" d="M52.356 106.053c-1.4-3.762 3.514-6.86 6.264-3.928.123.132.242.27.365.419 3.942 4.695 9.936 5.583 10.883 9.017.951 3.432-4.463 11.74-11.535 3.918-3.32-3.672-5.062-6.965-5.977-9.426"/><path fill="#ff83af" d="M25.545 63.598c4.995 3.72 8.988 6.315 8.988 6.315l.347 8.439s-.16.549-11.239-2.194c0 0-2.26-.285-6.52-2.85-6.986-4.202-7.109-15.59-.305-18.935a37.368 37.368 0 0 0 6.623 4.622c-.12 1.522.182 3.172 2.106 4.602"/><path fill="#e06a94" d="M25.552 75.332c5.4 1.337 5.21.85 9.26 1.367l.07 1.652s-5.375.332-11.365-1.89c0 0-2.138-.588-6.398-3.151-6.13-3.691-6.97-12.906-2.487-17.371-3.035 4.787-1.79 12.542 3.707 15.85 4.26 2.563 7.212 3.543 7.212 3.543"/><path fill="#ff83af" d="M67.81 58.586c6.158 4.45 4.096 15.67-3.51 18.618-4.633 1.794-9.073 2.016-9.073 2.016-11.382.806-10.87-.366-10.87-.366L46.14 70.6s4.598-1.837 10.153-4.646c1.991-1.007 3.082-2.362 3.655-3.718a38.245 38.245 0 0 0 7.861-3.65"/><path fill="#e06a94" d="M42.047 66.888c-10.952-.804-20.51-5.192-26.812-11.494a8.19 8.19 0 0 1 1.581-1.021c1.866 1.64 3.971 3.117 6.266 4.414 5.41 3.057 11.893 5.075 18.965 5.598 6.53.482 12.756-.378 18.234-2.272.7-.24 1.392-.5 2.076-.78a35.502 35.502 0 0 0 1.574-.68c.147-.066.288-.14.43-.206a36.69 36.69 0 0 0 3.448-1.86c.587.42 1.114.918 1.568 1.48-7.089 4.917-16.813 7.597-27.33 6.82m12.237 10.629c-7.676.539-7.7-.195-9.578-.28l-.348 1.617s-.513 1.172 10.87.366c0 0 4.44-.221 9.072-2.015 6.668-2.585 9.07-11.52 5.413-16.687 2.173 5.236-.376 12.664-6.357 14.98-4.63 1.795-9.072 2.02-9.072 2.02"/><path fill="#cceff7" d="m39.817 87.886-6.56-1.662a3.59 3.59 0 0 1-2.586-4.347l4.054-16.08c.482-1.912 2.434-3.08 4.337-2.597l6.56 1.665a3.595 3.595 0 0 1 2.59 4.347L44.158 85.29a3.583 3.583 0 0 1-4.34 2.594"/><path fill="#fff" d="M39.622 85.31 34.65 84.05a2.805 2.805 0 0 1-2.022-3.398l3.24-12.843a2.802 2.802 0 0 1 3.39-2.031l4.975 1.26a2.81 2.81 0 0 1 2.022 3.403l-3.24 12.843a2.799 2.799 0 0 1-3.392 2.028"/><path fill="#89c6d6" d="m45.78 69.884-9.23-2.34a2.21 2.21 0 0 1-1.59-2.675l.422-1.677c.677-2.686 3.425-4.333 6.107-3.651l3.735.948c2.681.678 4.321 3.434 3.645 6.123l-.427 1.677a2.2 2.2 0 0 1-2.664 1.595"/><path fill="#89c6d6" d="M42.343 64.034a1.795 1.795 0 0 1-1.294-2.176l1.153-4.567a1.792 1.792 0 0 1 2.167-1.3 1.803 1.803 0 0 1 1.296 2.176l-1.15 4.568a1.796 1.796 0 0 1-2.172 1.299"/><path fill="#ffc2a6" d="M47.962 71.026a1.729 1.729 0 0 1-2.34.69 1.739 1.739 0 0 1-.69-2.342l.697-1.284a1.725 1.725 0 0 1 2.337-.69 1.735 1.735 0 0 1 .693 2.343l-.697 1.283"/><path fill="#9e6d3f" d="M45.101 79.394c-3.264.085-5.977-2.5-6.059-5.775a5.922 5.922 0 0 1 5.76-6.08c3.267-.08 5.978 2.507 6.062 5.777.083 3.275-2.496 5.997-5.763 6.078m-12.77-8.521a1.732 1.732 0 0 0 2.187 1.084 1.73 1.73 0 0 0 1.08-2.191l-.464-1.385a1.733 1.733 0 0 0-2.19-1.08c-.899.31-1.38 1.288-1.077 2.19l.462 1.382" data-paper-data="{&quot;origPos&quot;:null}"/><path fill="#9e6d3f" d="M33.724 79.61a5.93 5.93 0 0 1-4.642-6.973 5.916 5.916 0 0 1 6.96-4.656c3.2.643 5.276 3.766 4.637 6.979-.64 3.209-3.755 5.294-6.955 4.65" data-paper-data="{&quot;origPos&quot;:null}"/></g></svg>