<svg xmlns="http://www.w3.org/2000/svg" xmlns:xlink="http://www.w3.org/1999/xlink" width="120" height="120"><defs><path id="a" d="M0 119.625h94.862V.111H0z"/></defs><g fill="none" fill-rule="evenodd"><path fill="#353535" d="M72.496 113.96h.94V25.468h-.94zm8.098 0h.942V25.468h-.942z"/><path fill="#353535" d="M73.168 34.836h7.673v-.764h-7.673zm0 8.693h7.673v-.764h-7.673zm0 8.693h7.673v-.764h-7.673zm0 8.693h7.673v-.764h-7.673zm0 8.692h7.673v-.763h-7.673zm0 8.693h7.673v-.763h-7.673zm0 8.693h7.673v-.763h-7.673zm0 8.693h7.673v-.764h-7.673zm0 8.693h7.673v-.764h-7.673zm0 8.693h7.673v-.764h-7.673z"/><path fill="#353535" d="m73.455 34.339-.466-.422 7.489-8.327.466.42z"/><path fill="#353535" d="m80.478 34.339.465-.422-7.487-8.327-.466.42zm-7.023 8.864-.466-.421 7.489-8.328.466.421z"/><path fill="#353535" d="m80.478 43.203.465-.421-7.487-8.328-.466.421z"/><path fill="#353535" d="m73.455 51.895-.466-.42 7.489-8.328.466.421z"/><path fill="#353535" d="m80.478 51.895.465-.42-7.487-8.328-.466.421z"/><path fill="#353535" d="m73.455 60.589-.466-.422 7.489-8.327.466.42z"/><path fill="#353535" d="m80.478 60.589.465-.422-7.487-8.327-.466.42z"/><path fill="#353535" d="m73.455 69.281-.466-.42 7.489-8.328.466.42z"/><path fill="#353535" d="m80.478 69.281.465-.42-7.487-8.328-.466.42z"/><path fill="#353535" d="m73.455 77.974-.466-.421 7.489-8.327.466.42z"/><path fill="#353535" d="m80.478 77.974.465-.421-7.487-8.327-.466.42z"/><path fill="#353535" d="m73.455 86.667-.466-.421 7.489-8.328.466.422z"/><path fill="#353535" d="m80.478 86.667.465-.421-7.487-8.328-.466.422z"/><path fill="#353535" d="m73.455 95.36-.466-.421 7.489-8.328.466.421z"/><path fill="#353535" d="m80.478 95.36.465-.421-7.487-8.328-.466.421z"/><path fill="#353535" d="m73.455 104.053-.466-.421 7.489-8.328.466.421z"/><path fill="#353535" d="m80.478 104.053.465-.421-7.487-8.328-.466.421z"/><path fill="#353535" d="m73.455 112.746-.466-.421 7.489-8.328.466.421z"/><path fill="#353535" d="m80.478 112.746.465-.421-7.487-8.328-.466.421zM23.657 19.141h81.995v-.77H23.657z"/><path fill="#353535" d="m43.771 18.474.384.667L75.364 1.075 74.98.408zm-31.739 6.609.384.666L24.076 19l-.385-.667z"/><path fill="#353535" d="m74.897.375-.437.632 26.017 18.106.438-.633L74.898.375zm-.66.759.486.067-2.395 17.612-.487-.067z"/><path fill="#353535" d="m75.642 1.134-.486.067 2.396 17.612.486-.067zM12 25.769h91.838v-.77H12z"/><path fill="#353535" d="M94.428 25.2h.622v-6.279h-.622zm-7.077 0h.622v-6.279h-.622zm-7.077 0h.622v-6.279h-.622zm-7.077 0h.621v-6.279h-.621zm-7.077 0h.621v-6.279h-.621zm6.291-8.465h5.064v-.624H72.41zM59.043 25.2h.621v-6.279h-.621zm-7.078 0h.622v-6.279h-.622zm-7.077 0h.622v-6.279h-.622zm-7.077 0h.622v-6.279h-.622zm-7.077 0h.622v-6.279h-.622z"/><path fill="#353535" d="m94.833 19.156.343-.381 6.78 6.128-.343.382z"/><path fill="#353535" d="m94.833 24.903.343.382 6.78-6.129-.343-.381zm-7.216-5.747.342-.381 6.78 6.128-.343.382z"/><path fill="#353535" d="m87.617 24.903.342.382 6.78-6.129-.343-.381z"/><path fill="#353535" d="m80.54 19.156.342-.381 6.78 6.128-.343.382z"/><path fill="#353535" d="m80.54 24.903.342.382 6.78-6.129-.343-.381z"/><path fill="#353535" d="m73.462 19.156.343-.381 6.78 6.128-.343.382z"/><path fill="#353535" d="m73.462 24.903.343.382 6.78-6.129-.343-.381z"/><path fill="#353535" d="m66.385 19.156.343-.381 6.78 6.128-.343.382z"/><path fill="#353535" d="m66.385 24.903.343.382 6.78-6.129-.343-.381z"/><path fill="#353535" d="m59.308 19.156.343-.381 6.78 6.128-.343.382z"/><path fill="#353535" d="m59.308 24.903.343.382 6.78-6.129-.343-.381z"/><path fill="#353535" d="m52.23 19.156.344-.381 6.78 6.128-.343.382z"/><path fill="#353535" d="m52.23 24.903.344.382 6.78-6.129-.343-.381z"/><path fill="#353535" d="m45.154 19.156.343-.381 6.78 6.128-.344.382z"/><path fill="#353535" d="m45.154 24.903.343.382 6.78-6.129-.344-.381z"/><path fill="#353535" d="m38.077 19.156.342-.381 6.78 6.128-.343.382z"/><path fill="#353535" d="m38.077 24.903.342.382 6.78-6.129-.343-.381z"/><path fill="#353535" d="m31 19.156.342-.381 6.78 6.128-.343.382z"/><path fill="#353535" d="m31 24.903.342.382 6.78-6.129-.343-.381zm-7.343.297h.622v-6.279h-.622z"/><path fill="#353535" d="m23.922 19.156.343-.381 6.78 6.128-.343.382z"/><path fill="#353535" d="m23.922 24.903.343.382 6.78-6.129-.343-.381zm20.131 40.87-.436-.029 2.728-40.607.436.03zm-1.882 0 .436-.029-2.728-40.607-.436.03z"/><g transform="translate(12 .264)"><path fill="#DB9233" d="M34.271 75.338c-.342.877-1.074 1.285-1.947 1.475-.955.207-1.83.012-2.566-.666-.694-.639-1.095-1.447-1.325-2.349a.215.215 0 0 1 .294-.246c.016.007.03.017.043.029.268.248.522.513.774.778.366.386.74.737 1.314.79.799.075 1.397-.442 1.407-1.244a.863.863 0 0 0-.347-.723c-.28-.22-.58-.414-.859-.634-.64-.505-.836-1.215-.472-1.83a.74.74 0 0 1 .236-.237c.185-.116.772-.23.899.288l.008.036c.076.395.32.577.66.757.624.33 1.262.662 1.695 1.265.254.352.384.733.388.989.03.621-.045 1.121-.202 1.522"/><path fill="#2D2929" d="M31.051 65.22h1.993v1.894l-.992 3.677H30.05l-.992-3.677v-1.893z"/><mask id="b" fill="#fff"><use xlink:href="#a"/></mask><path fill="#2D2929" d="M87.94 30.439h4.738V18.702H87.94z" mask="url(#b)"/><path fill="#2D2929" d="M90.494 22.251h4.368v-7.143h-4.368z" mask="url(#b)"/><path fill="#DB9233" d="M54.508 119.625H76.24v-5.93H54.508z" mask="url(#b)"/><path fill="#2D2929" d="M25.316 24.735h11.551v-2.938H25.316z" mask="url(#b)"/></g></g></svg>