<svg version="1.1" xmlns="http://www.w3.org/2000/svg" xmlns:xlink="http://www.w3.org/1999/xlink" width="71.674" height="115.32901" viewBox="0,0,71.674,115.32901"><g transform="translate(-204,-122.39)"><g data-paper-data="{&quot;isPaintingLayer&quot;:true}" fill-rule="evenodd" stroke="none" stroke-width="1" stroke-linecap="butt" stroke-linejoin="miter" stroke-miterlimit="10" stroke-dasharray="" stroke-dashoffset="0" style="mix-blend-mode: normal"><path d="M240.013,182.218v0.005l-0.176,-0.002l-0.177,0.002v-0.005c-20.82,-0.118 -35.66,-10.595 -35.66,-10.595c3.564,-6.323 10.852,-22.955 10.852,-22.955l24.809,-3.57v-0.047l0.176,0.024l0.176,-0.024v0.046l25.651,3.57c0,0 6.446,16.634 10.01,22.957c0,0 -14.839,10.476 -35.661,10.596z" data-paper-data="{&quot;origPos&quot;:null}" fill="#6b483a"/><path d="M208.44,173.99371l3.687,1.804c0,0 4.252,-13.774 3.69,-14.023c-0.563,-0.248 -7.378,12.219 -7.378,12.219zM220.411,178.93471c0,0 1.736,-10.356 0.892,-10.15c-0.844,0.205 -4.8,8.817 -4.8,8.817zM267.208,175.79771c0,0 -4.252,-13.774 -3.69,-14.023c0.563,-0.248 7.378,12.219 7.378,12.219zM258.924,178.93471c0,0 -1.736,-10.356 -0.892,-10.15c0.844,0.205 4.8,8.817 4.8,8.817z" data-paper-data="{&quot;origPos&quot;:null}" fill="#55382b"/><path d="M238.602,209.561c0.376,2.417 -0.001,11.343 -0.001,11.343c1.322,2.639 -2.25,14.32 -2.25,14.32h-3.001c0,0 -1.125,-12.832 -1.125,-14.505c0,-1.675 -1.688,-11.158 -1.688,-11.158z" data-paper-data="{&quot;origPos&quot;:null}" fill="#9e753f"/><path d="M236.608,232.32c0,0 2.05,2.039 1.802,5.133l-13.003,-0.057c0,0 -0.047,-2.668 3.956,-3.132l3.128,-1.96z" fill="#e55590"/><path d="M231.808,232.731l0.317,-0.199l1.015,0.563c0.195,0.109 0.008,0.381 -0.187,0.272l-1.145,-0.637zM231.548,232.895l1.108,0.615c0.194,0.106 0.007,0.379 -0.186,0.273l-1.24,-0.69zM231.984,234.196c-0.444,-0.247 -0.887,-0.494 -1.332,-0.74l0.318,-0.198c0.402,0.22 0.801,0.444 1.202,0.665c0.194,0.108 0.007,0.38 -0.188,0.273M231.499,234.608l-1.423,-0.79l0.317,-0.2l1.294,0.718c0.194,0.109 0.008,0.381 -0.187,0.273M231.016,235.023l-1.518,-0.844l0.318,-0.198l1.387,0.77c0.193,0.108 0.007,0.379 -0.187,0.272M225.405,237.663c-0.14138,-0.00964 -0.25081,-0.12768 -0.24975,-0.26938c0.00106,-0.1417 0.11225,-0.25809 0.25375,-0.26562l13.001,0.058c0.38,0.003 0.377,0.535 -0.001,0.533c-4.334,-0.017 -8.669,-0.036 -13.004,-0.056M232.489,232.571c-0.379,-0.002 -0.376,-0.537 0.002,-0.535l4.118,0.018c0.13849,0.01251 0.24441,0.12886 0.24389,0.26792c-0.00052,0.13905 -0.10731,0.25461 -0.24589,0.26608l-4.117,-0.018" fill="#ffffff"/><path d="M250.4,209.561c0,0 -1.687,9.483 -1.687,11.158c0,1.673 -1.126,14.505 -1.126,14.505h-3.001c0,0 -3.571,-11.681 -2.25,-14.32c0,0 -0.376,-8.926 -0.001,-11.343h8.066z" data-paper-data="{&quot;origPos&quot;:null}" fill="#9e753f"/><path d="M244.301,232.32l4.118,-0.016l3.127,1.96c4.004,0.464 3.956,3.132 3.956,3.132l-13.002,0.057c-0.249,-3.094 1.8,-5.133 1.8,-5.133z" fill="#e55590"/><path d="M249.102,232.73l-1.145,0.637c-0.195,0.109 -0.383,-0.163 -0.188,-0.272l1.015,-0.563l0.318,0.199zM249.68,233.093c-0.414,0.229 -0.827,0.459 -1.24,0.69c-0.194,0.106 -0.381,-0.167 -0.186,-0.273l1.107,-0.615l0.318,0.198zM248.925,234.196c-0.194,0.107 -0.382,-0.165 -0.187,-0.273c0.4,-0.221 0.8,-0.445 1.201,-0.665l0.318,0.198l-1.332,0.74M249.41,234.609c-0.195,0.108 -0.382,-0.164 -0.188,-0.273l1.295,-0.718l0.317,0.2l-1.424,0.79M249.894,235.023c-0.194,0.107 -0.381,-0.164 -0.188,-0.272l1.388,-0.77l0.318,0.198l-1.518,0.844M255.504,237.663c-4.334,0.02 -8.67,0.039 -13.004,0.056c-0.378,0.002 -0.38,-0.53 -0.001,-0.533l13.002,-0.058c0.14147,0.00782 0.25241,0.12441 0.2532,0.26609c0.00079,0.14168 -0.10883,0.2595 -0.2502,0.26891M248.42,232.57l-4.118,0.018c-0.379,0.002 -0.382,-0.533 -0.002,-0.534l4.118,-0.018c0.379,-0.002 0.382,0.533 0.002,0.535" fill="#ffffff"/><path d="M250.557,202.849c0,0 2.826,4.202 3.014,9.222c0,0 -6.705,1.814 -12.755,0l-0.475,-4.043l-0.474,4.043c-6.049,1.814 -12.755,0 -12.755,0c0.188,-5.021 3.013,-9.222 3.013,-9.222l10.216,1.123l10.216,-1.122" fill="#8cd2ed"/><path d="M250.557,202.849c0,0 0.766,1.145 1.527,2.945c-3.295,0.543 -4.651,-1.638 -5.067,-2.556l3.54,-0.388M230.222,202.849c0,0 -0.765,1.145 -1.526,2.945c3.295,0.543 4.65,-1.638 5.067,-2.556l-3.541,-0.388" fill="#7cc6dd"/><path d="M228.03729,178.693c1.359,-2.337 5.006,-0.23 3.644,2.112c-4.021,6.91 -5.893,15.401 -5.224,23.36c0,0 2.161,0.794 1.738,1.352c-0.422,0.558 -1.738,0 -1.738,0c0,0 0.869,2.65 0.494,3.068c-0.373,0.419 -3.398,1.047 -3.82,0.419c-0.421,-0.627 -0.84,-4.297 -0.84,-4.297c-0.879,-8.808 1.294,-18.364 5.746,-26.014M275.17529,167.951c-0.09,0.749 -1.895,3.562 -1.895,3.562c-1.3503,2.33136 -2.78594,4.61223 -4.304,6.838c-1.81,2.642 -3.892,6.267 -6.96,7.637c-2.66,1.188 -6.462,-1.317 -8.68,-2.537c-2.48925,-1.36756 -4.92755,-2.82587 -7.31,-4.372c-2.255,-1.464 -0.288,-5.17 1.993,-3.69c2.04842,1.33503 4.14057,2.60173 6.273,3.798c1.25,0.699 5.478,3.497 6.482,2.707c3.788,-2.984 6.318,-8.214 8.702,-12.404c0,0 -1.123,-1.994 -0.436,-2.147c0.686,-0.152 1.322,1.119 1.322,1.119c0,0 1.074,-2.575 1.633,-2.652c0.558,-0.078 3.27,1.392 3.18,2.14" data-paper-data="{&quot;origPos&quot;:null}" fill="#9e753f"/><path d="M247.458,181.78c0,0 1.371,15.042 4.935,20.9c0,0 -3.939,1.86 -12.556,1.86c-8.616,0 -12.204,-1.86 -12.204,-1.86c3.565,-5.858 4.936,-20.9 4.936,-20.9l-2.033,1.421l-3.84,-4.01c3.841,-6.032 10.082,-5.196 10.082,-5.196c0.713,2.129 3.235,2.092 3.235,2.092c0,0 2.521,0.037 3.236,-2.092c0,0 5.486,-1.72 10.081,4.51l-2.813,3.72z" fill="#ef8bb1"/><path d="M240.013,124.73829c0,0 24.9,-2.232 21.945,29.987c0,0 -0.562,8.228 -7.174,11.018c-6.612,2.79 -11.536,4.463 -11.536,8.508c0,0 -0.046,2.278 -3.235,2.278c-3.189,0 -3.235,-2.278 -3.235,-2.278c0,-4.045 -4.924,-5.718 -11.536,-8.508c-6.612,-2.789 -7.174,-11.018 -7.174,-11.018c-2.955,-32.218 21.945,-29.987 21.945,-29.987" data-paper-data="{&quot;origPos&quot;:null}" fill="#9e753f"/><path d="M214.93,145.403c1.687,-1.488 3.662,2.228 3.662,2.228h0.001c-0.06637,1.53617 -0.0577,3.07467 0.026,4.61l-0.027,0.043c-2.808,-0.744 -5.35,-5.393 -3.663,-6.88M265.586,145.403c-1.688,-1.488 -3.663,2.228 -3.663,2.228c0.06588,1.53618 0.05721,3.07466 -0.026,4.61l0.026,0.043c2.809,-0.744 5.35,-5.393 3.663,-6.88" data-paper-data="{&quot;origPos&quot;:null}" fill="#9e753f"/><path d="M252.955,152.237c0,1.258 -0.65,2.278 -1.453,2.278c-0.803,0 -1.454,-1.02 -1.454,-2.278c0,-1.257 0.65,-2.278 1.454,-2.278c0.802,0 1.453,1.02 1.453,2.278M229.603,152.237c0,1.258 -0.65,2.278 -1.454,2.278c-0.802,0 -1.453,-1.02 -1.453,-2.278c0,-1.257 0.65,-2.278 1.453,-2.278c0.803,0 1.454,1.02 1.454,2.278" fill="#2b2629"/><path d="M237.575,155.817c0,0 2.626,1.488 4.501,0c0,0 -1.125,3.069 -4.501,0" fill="#efb1a0"/><path d="M233.73,158.607c0,0 0.21,0.104 0.582,0.262c0.182,0.086 0.413,0.17 0.667,0.281c0.258,0.105 0.554,0.208 0.868,0.33c0.325,0.101 0.665,0.232 1.036,0.33c0.185,0.051 0.372,0.11 0.566,0.158c0.197,0.037 0.394,0.087 0.596,0.133c0.4,0.11 0.828,0.12 1.248,0.202l0.643,0.037l0.323,0.02l0.321,-0.021l0.644,-0.022c0.212,-0.019 0.42,-0.07 0.628,-0.101c0.204,-0.048 0.42,-0.049 0.616,-0.118l0.588,-0.177c0.398,-0.092 0.739,-0.292 1.088,-0.434c0.355,-0.135 0.652,-0.335 0.937,-0.509l0.414,-0.248c0.13062,-0.06615 0.25282,-0.14773 0.364,-0.243c0.214,-0.172 0.41,-0.315 0.572,-0.437c0.324,-0.239 0.522,-0.373 0.522,-0.373c0,0 -0.123,0.193 -0.36,0.527c-0.12,0.165 -0.264,0.37 -0.442,0.596c-0.161,0.245 -0.423,0.44 -0.68,0.69c-0.261,0.243 -0.541,0.521 -0.909,0.72c-0.357,0.21 -0.71,0.49 -1.152,0.629c-0.426,0.168 -0.864,0.37 -1.347,0.434c-0.238,0.044 -0.477,0.106 -0.72,0.134l-0.734,0.047l-0.368,0.011l-0.365,-0.03l-0.722,-0.064c-0.236,-0.038 -0.467,-0.093 -0.694,-0.144c-0.22555,-0.04374 -0.44776,-0.10322 -0.665,-0.178c-0.215,-0.07 -0.427,-0.134 -0.63,-0.21c-0.2,-0.08 -0.39,-0.17 -0.578,-0.252c-0.38,-0.153 -0.708,-0.361 -1.017,-0.532c-1.22,-0.732 -1.84,-1.448 -1.84,-1.448" fill="#ef8bb1"/><path d="M228.15,158.886c0,1.737 -1.732,3.145 -3.87,3.145c-2.137,0 -3.87,-1.408 -3.87,-3.145c0,-1.738 1.733,-3.146 3.87,-3.146c2.138,0 3.87,1.408 3.87,3.146M259.24,158.886c0,1.737 -1.731,3.145 -3.87,3.145c-2.136,0 -3.868,-1.408 -3.868,-3.145c0,-1.738 1.732,-3.146 3.869,-3.146c2.138,0 3.87,1.408 3.87,3.146" fill="#f4af9f"/><path d="M217.829,148.668c-0.221,-2.139 -2.9,-3.265 -2.9,-3.265c0,0 1.029,-23.013 25.459,-23.013c24.432,0 23.959,22.662 23.959,22.662c0,0 -1.306,0.835 -1.642,1.722c-0.337,0.888 -0.504,2.36 -0.504,2.36c-8.425,-2.597 -7.558,-10.146 -7.558,-10.146c-0.703,4.183 0,8.367 0,8.367c-10.551,-1.952 -12.004,-9.623 -12.004,-9.623c-1.313,6.974 4.877,9.902 4.877,9.902c-15.287,2.511 -15.24,-10.46 -15.24,-10.46c-3.236,7.392 -9.847,9.345 -9.847,9.345c3.094,-3.906 3.657,-8.369 3.657,-8.369c-3.376,6.974 -8.256,10.518 -8.256,10.518" data-paper-data="{&quot;origPos&quot;:null}" fill="#55382b"/><path d="M241.142,145.825c0,0 -6.883,-4.462 -7.413,-12.204c0,0 -2.966,5.596 -6.945,7.742c0,0 0.73,-3.28 0,-7.086c0,0 -3.018,5.25 -5.25,7.742c-2.23,2.494 -5.057,1.837 -3.71,-2.296c1.347,-4.134 5.278,-12.663 13.9,-14.631c8.624,-1.969 17.252,-1.182 21.606,1.706c4.356,2.886 9.815,12.466 8.872,15.484c-0.943,3.018 -5.972,0.739 -7.428,-6.52c0,0 -3.505,4.317 -1.82,9.29c0,0 -9.165,-3.689 -9.96,-12.087c0,0 -5.294,7.348 -1.852,12.86" data-paper-data="{&quot;origPos&quot;:null}" fill="#6b483a"/></g></g></svg>