<svg xmlns="http://www.w3.org/2000/svg" width="71.674" height="115.329"><g fill-rule="evenodd" stroke-miterlimit="10" data-paper-data="{&quot;isPaintingLayer&quot;:true}" style="mix-blend-mode:normal"><path fill="#6b483a" d="M36.013 59.828v.005l-.176-.002-.177.002v-.005C14.84 59.71 0 49.233 0 49.233c3.564-6.323 10.852-22.955 10.852-22.955l24.809-3.57v-.047l.176.024.176-.024v.046l25.651 3.57s6.446 16.634 10.01 22.957c0 0-14.839 10.476-35.661 10.596z" data-paper-data="{&quot;origPos&quot;:null}"/><path fill="#55382b" d="m4.44 51.604 3.687 1.804s4.252-13.774 3.69-14.023c-.563-.248-7.378 12.219-7.378 12.219zm11.971 4.94s1.736-10.355.892-10.15c-.844.206-4.8 8.818-4.8 8.818zm46.797-3.136s-4.252-13.774-3.69-14.023c.563-.248 7.378 12.219 7.378 12.219zm-8.284 3.137s-1.736-10.356-.892-10.15c.844.205 4.8 8.817 4.8 8.817z" data-paper-data="{&quot;origPos&quot;:null}"/><path fill="#9e753f" d="M34.602 87.171c.376 2.417-.001 11.343-.001 11.343 1.322 2.639-2.25 14.32-2.25 14.32H29.35s-1.125-12.832-1.125-14.505c0-1.675-1.688-11.158-1.688-11.158z" data-paper-data="{&quot;origPos&quot;:null}"/><path fill="#e55590" d="M32.608 109.93s2.05 2.039 1.802 5.133l-13.003-.057s-.047-2.668 3.956-3.132l3.128-1.96z"/><path fill="#fff" d="m27.808 110.341.317-.199 1.015.563c.195.109.008.381-.187.272l-1.145-.637zm-.26.164 1.108.615c.194.106.007.379-.186.273l-1.24-.69zm.436 1.301c-.444-.247-.887-.494-1.332-.74l.318-.198c.402.22.801.444 1.202.665.194.108.007.38-.188.273m-.485.412-1.423-.79.317-.2 1.294.718c.194.109.008.381-.187.273m-.484.414-1.518-.844.318-.198 1.387.77c.193.108.007.379-.187.272m-5.611 2.64a.268.268 0 0 1 .004-.535l13.001.058c.38.003.377.535-.001.533-4.334-.017-8.669-.036-13.004-.056m7.084-5.092c-.379-.002-.376-.537.002-.535l4.118.018a.268.268 0 0 1-.002.534l-4.117-.018"/><path fill="#9e753f" d="M46.4 87.171s-1.687 9.483-1.687 11.158c0 1.673-1.126 14.505-1.126 14.505h-3.001s-3.571-11.681-2.25-14.32c0 0-.376-8.926-.001-11.343h8.066z" data-paper-data="{&quot;origPos&quot;:null}"/><path fill="#e55590" d="m40.301 109.93 4.118-.016 3.127 1.96c4.004.464 3.956 3.132 3.956 3.132l-13.002.057c-.249-3.094 1.8-5.133 1.8-5.133z"/><path fill="#fff" d="m45.102 110.34-1.145.637c-.195.109-.383-.163-.188-.272l1.015-.563.318.199zm.578.363c-.414.229-.827.459-1.24.69-.194.106-.381-.167-.186-.273l1.107-.615.318.198zm-.755 1.103c-.194.107-.382-.165-.187-.273.4-.221.8-.445 1.201-.665l.318.198-1.332.74m.485.413c-.195.108-.382-.164-.188-.273l1.295-.718.317.2-1.424.79m.484.415c-.194.107-.381-.164-.188-.272l1.388-.77.318.198-1.518.844m5.61 2.64c-4.334.02-8.67.039-13.004.056-.378.002-.38-.53-.001-.533l13.002-.058a.268.268 0 0 1 .003.535m-7.084-5.093-4.118.018c-.379.002-.382-.533-.002-.534l4.118-.018c.379-.002.382.533.002.535"/><path fill="#8cd2ed" d="M46.557 80.459s2.826 4.202 3.014 9.222c0 0-6.705 1.814-12.755 0l-.475-4.043-.474 4.043c-6.049 1.814-12.755 0-12.755 0 .188-5.021 3.013-9.222 3.013-9.222l10.216 1.123 10.216-1.122"/><path fill="#7cc6dd" d="M46.557 80.459s.766 1.145 1.527 2.945c-3.295.543-4.651-1.638-5.067-2.556l3.54-.388m-20.335-.001s-.765 1.145-1.526 2.945c3.295.543 4.65-1.638 5.067-2.556l-3.541-.388"/><path fill="#9e753f" d="M24.037 56.303c1.36-2.337 5.006-.23 3.644 2.112-4.02 6.91-5.893 15.401-5.224 23.36 0 0 2.161.794 1.738 1.352-.422.558-1.738 0-1.738 0s.87 2.65.494 3.068c-.373.419-3.398 1.047-3.82.419-.42-.627-.84-4.297-.84-4.297-.879-8.808 1.294-18.364 5.746-26.014m47.138-10.742c-.09.749-1.895 3.562-1.895 3.562a109.817 109.817 0 0 1-4.304 6.838c-1.81 2.642-3.892 6.267-6.96 7.637-2.66 1.188-6.462-1.317-8.68-2.537a116.266 116.266 0 0 1-7.31-4.372c-2.255-1.464-.288-5.17 1.993-3.69a110.536 110.536 0 0 0 6.273 3.798c1.25.699 5.478 3.497 6.482 2.707 3.788-2.984 6.318-8.214 8.702-12.404 0 0-1.123-1.994-.436-2.147.686-.152 1.322 1.119 1.322 1.119s1.074-2.575 1.633-2.652c.558-.078 3.27 1.392 3.18 2.14" data-paper-data="{&quot;origPos&quot;:null}"/><path fill="#ef8bb1" d="M43.458 59.39s1.371 15.042 4.935 20.9c0 0-3.939 1.86-12.556 1.86-8.616 0-12.204-1.86-12.204-1.86 3.565-5.858 4.936-20.9 4.936-20.9l-2.033 1.421-3.84-4.01c3.841-6.032 10.082-5.196 10.082-5.196.713 2.129 3.235 2.092 3.235 2.092s2.521.037 3.236-2.092c0 0 5.486-1.72 10.081 4.51l-2.813 3.72z"/><path fill="#9e753f" d="M36.013 2.348s24.9-2.232 21.945 29.987c0 0-.562 8.228-7.174 11.018-6.612 2.79-11.536 4.463-11.536 8.508 0 0-.046 2.278-3.235 2.278s-3.235-2.278-3.235-2.278c0-4.045-4.924-5.718-11.536-8.508-6.612-2.789-7.174-11.018-7.174-11.018C11.113.117 36.013 2.348 36.013 2.348" data-paper-data="{&quot;origPos&quot;:null}"/><path fill="#9e753f" d="M10.93 23.013c1.687-1.488 3.662 2.228 3.662 2.228h.001a47.234 47.234 0 0 0 .026 4.61l-.027.043c-2.808-.744-5.35-5.393-3.663-6.88m50.657-.001c-1.688-1.488-3.663 2.228-3.663 2.228a47.544 47.544 0 0 1-.026 4.61l.026.043c2.809-.744 5.35-5.393 3.663-6.88" data-paper-data="{&quot;origPos&quot;:null}"/><path fill="#2b2629" d="M48.955 29.847c0 1.258-.65 2.278-1.453 2.278s-1.454-1.02-1.454-2.278c0-1.257.65-2.278 1.454-2.278.802 0 1.453 1.02 1.453 2.278m-23.352 0c0 1.258-.65 2.278-1.454 2.278-.802 0-1.453-1.02-1.453-2.278 0-1.257.65-2.278 1.453-2.278s1.454 1.02 1.454 2.278"/><path fill="#efb1a0" d="M33.575 33.427s2.626 1.488 4.501 0c0 0-1.125 3.069-4.501 0"/><path fill="#ef8bb1" d="M29.73 36.217s.21.104.582.262c.182.086.413.17.667.281.258.105.554.208.868.33.325.101.665.232 1.036.33.185.051.372.11.566.158.197.037.394.087.596.133.4.11.828.12 1.248.202l.643.037.323.02.321-.021.644-.022c.212-.019.42-.07.628-.101.204-.048.42-.049.616-.118l.588-.177c.398-.092.739-.292 1.088-.434.355-.135.652-.335.937-.509l.414-.248a1.83 1.83 0 0 0 .364-.243c.214-.172.41-.315.572-.437.324-.239.522-.373.522-.373s-.123.193-.36.527c-.12.165-.264.37-.442.596-.161.245-.423.44-.68.69-.261.243-.541.521-.909.72-.357.21-.71.49-1.152.629-.426.168-.864.37-1.347.434-.238.044-.477.106-.72.134l-.734.047-.368.011-.365-.03-.722-.064c-.236-.038-.467-.093-.694-.144a4.922 4.922 0 0 1-.665-.178c-.215-.07-.427-.134-.63-.21-.2-.08-.39-.17-.578-.252-.38-.153-.708-.361-1.017-.532-1.22-.732-1.84-1.448-1.84-1.448"/><path fill="#f4af9f" d="M24.15 36.496c0 1.737-1.732 3.145-3.87 3.145-2.137 0-3.87-1.408-3.87-3.145 0-1.738 1.733-3.146 3.87-3.146 2.138 0 3.87 1.408 3.87 3.146m31.09 0c0 1.737-1.731 3.145-3.87 3.145-2.136 0-3.868-1.408-3.868-3.145 0-1.738 1.732-3.146 3.869-3.146 2.138 0 3.87 1.408 3.87 3.146"/><path fill="#55382b" d="M13.829 26.278c-.221-2.139-2.9-3.265-2.9-3.265S11.958 0 36.388 0C60.82 0 60.347 22.662 60.347 22.662s-1.306.835-1.642 1.722c-.337.888-.504 2.36-.504 2.36-8.425-2.597-7.558-10.146-7.558-10.146-.703 4.183 0 8.367 0 8.367-10.551-1.952-12.004-9.623-12.004-9.623-1.313 6.974 4.877 9.902 4.877 9.902-15.287 2.511-15.24-10.46-15.24-10.46-3.236 7.392-9.847 9.345-9.847 9.345 3.094-3.906 3.657-8.369 3.657-8.369-3.376 6.974-8.256 10.518-8.256 10.518" data-paper-data="{&quot;origPos&quot;:null}"/><path fill="#6b483a" d="M37.142 23.435s-6.883-4.462-7.413-12.204c0 0-2.966 5.596-6.945 7.742 0 0 .73-3.28 0-7.086 0 0-3.018 5.25-5.25 7.742-2.23 2.494-5.057 1.837-3.71-2.296 1.347-4.134 5.278-12.663 13.9-14.631C36.348.733 44.976 1.52 49.33 4.408c4.356 2.886 9.815 12.466 8.872 15.484-.943 3.018-5.972.739-7.428-6.52 0 0-3.505 4.317-1.82 9.29 0 0-9.165-3.689-9.96-12.087 0 0-5.294 7.348-1.852 12.86" data-paper-data="{&quot;origPos&quot;:null}"/></g></svg>