<svg xmlns="http://www.w3.org/2000/svg" width="59.706" height="118.261"><g fill-rule="evenodd" stroke-miterlimit="10" data-paper-data="{&quot;isPaintingLayer&quot;:true}" style="mix-blend-mode:normal"><path fill="#f7dbbb" d="M14.908 112.244h-.005 9.772-.011c.063.266-.083.524-.263.8-.579.9-1.517 1.563-2.376 2.17-1.321.91-2.995 1.399-4.455 2.099-1.326.563-3.067 1.614-4.253.283-1.566-1.891-.236-4.216 1.59-5.353" data-paper-data="{&quot;origPos&quot;:null}"/><path fill="#0771b7" d="M16.314 112.629c2.286 3.011 6.757-.476 8.323-.453.252.109-.018.605-.198.879-.579.898-1.584 1.618-2.439 2.223-1.323.908-2.997 1.379-4.46 2.083-1.323.559-3.064 1.576-4.25.242-1.076-1.299-.786-2.841.094-4.044.403-.552 1.402-.058 2.93-.93"/><path fill="#f7b90b" d="M16.178 113.039c1.03 2.317 4.784.758 7.024-.173.722-.298 1.264-.522 1.534-.54a.343.343 0 0 1-.01.131c-.253.027-.802.256-1.47.534-1.393.575-3.357 1.393-4.923 1.393-.983 0-1.811-.322-2.243-1.22-.371.224-.986.314-1.577.4-.617.091-1.274.175-1.402.416.056-.094.115-.19.175-.28.284-.134.72-.197 1.204-.267.619-.091 1.253-.183 1.589-.426l.065-.045.034.077"/><path fill="#f7dbbb" d="M35.765 112.243c1.826 1.137 3.158 3.462 1.59 5.353-1.184 1.331-2.925.28-4.25-.283-1.46-.7-3.135-1.189-4.46-2.099-.854-.607-1.798-1.27-2.374-2.17-.177-.276-.328-.534-.261-.8h-.011 9.77-.005" data-paper-data="{&quot;origPos&quot;:null}"/><path fill="#0771b7" d="M34.36 112.629c1.526.872 2.527.378 2.925.93.882 1.203 1.175 2.745.097 4.044-1.184 1.334-2.927.317-4.253-.242-1.46-.704-3.134-1.175-4.455-2.083-.86-.605-1.86-1.325-2.44-2.223-.179-.274-.45-.77-.199-.879 1.568-.023 6.037 3.464 8.325.453"/><path fill="#f7b90b" d="m34.494 113.039.034-.077.067.045c.331.243.97.335 1.582.426.488.07.927.133 1.206.267.063.09.124.186.178.28-.126-.241-.783-.325-1.402-.416-.592-.086-1.208-.176-1.575-.4-.436.898-1.262 1.22-2.243 1.22-1.568 0-3.53-.818-4.923-1.393-.67-.278-1.22-.507-1.472-.534-.009-.047-.015-.095-.009-.131.27.018.81.242 1.533.54 2.243.931 5.996 2.49 7.024.173"/><path fill="#0b4768" d="M14.908 112.244h-.005c-5.105-4.405-4.113-26.736-4.113-26.736h28.958s1.1 22.327-3.99 26.735c0 .002-.006 0-.006 0-2.441 0-5.49 1.112-9.758 0-.855-2.565.009-11.762.009-11.762h-1.337.009s.875 8.96 0 11.762c-3.908 1.112-9.767 0-9.767 0" data-paper-data="{&quot;origPos&quot;:null}"/><path fill="#f7dbbb" d="M57.807 41.191c1.865.797 2.457 3.632 1.323 6.335-.731 1.73-1.996 2.986-3.303 3.453l.002.004s-3.481 9.949-6.511 11.054c-2.457.894-11.106-2.644-11.106-2.644s-.704-2.704-1.067-3.56c-.492-1.173-2.682-4.428-2.682-4.428l12.018 4.31 5.581-6.6c-.44-1.24-.37-2.882.3-4.478 1.139-2.701 3.573-4.243 5.445-3.446M7.526 57.222c1.815-2.327 8.396-5.762 8.396-5.762s-3.08 5.556-3.634 8.024c-.072.315-.245 1.155-.403 1.594-.195.549-.756 1.236-1.617 2.469-1.728 2.46-3.348 12.86-3.348 12.86.038.07.078.14.112.212.442.433.864 1.01 1.222 1.689.938 1.78 1.038 3.573.218 4.008-.436.235-1.046.032-1.663-.48-.662 1.189-1.701 1.92-2.792 1.805-1.663-.178-2.808-2.271-2.554-4.678.108-1.017.446-1.922.923-2.62-.007.043-.007.066-.007.066s1.427-14.397 5.148-19.187" data-paper-data="{&quot;origPos&quot;:null}"/><path fill="#f7dbbb" d="M5.156 79.831c-1.001-1.823-1.138-3.675-.301-4.146.837-.464 2.329.634 3.332 2.459 1.004 1.82 1.139 3.675.299 4.143-.837.467-2.328-.633-3.33-2.456M51.024 45.87c-.461-2.394.052-4.511 1.154-4.728 1.099-.213 2.365 1.555 2.829 3.949.463 2.395-.054 4.512-1.153 4.727-1.1.213-2.366-1.553-2.83-3.948" data-paper-data="{&quot;origPos&quot;:null}"/><path fill="#2baae2" d="m51.705 48.899 5.18 2.615s-4.543 9.593-7.574 10.696c-2.353.858-9.371-1.895-9.937-2.288 1.525 6.64 1.939 15.236 2.04 20.58 0 .065.884 15.752 1.404 20.712-6.815 2.787-27.844 2.095-35.069 0 .722-5.048 1.416-20.821 1.422-21.038.108-4.474.446-11.11 1.436-17.013-.079.117-.162.24-.252.367-.263.369-.509.908-.75 1.555-1.343 3.664-2.29 10.834-2.29 10.834l-5.114.006s.873-7.403 2.736-13.36c.736-2.348 1.627-4.474 2.68-5.83 1.648-2.117 6.417-4.823 7.278-5.296 2.129-1.386 8.526-1.598 8.526-1.598l1.782.045h.148l1.783-.045s6.423.237 8.54 1.625l10.735 4.092 5.297-6.659z"/><path fill="#f7dbbb" d="M28.629 49.824c.188.018.389.043.6.068l-4.203 2.436-3.684-2.452c.194-.018.377-.038.55-.052-.302-.677-.486-1.44-.486-1.922h7.705c0 .482-.18 1.245-.484 1.922" data-paper-data="{&quot;origPos&quot;:null}"/><path fill="#e2a86e" d="M22.231 50.465c-.434-.665-.74-1.596-.81-2.262 2.545.414 5.14.405 7.682-.027l-.016.014-6.856 2.275"/><path fill="#0b4768" d="M12.596 91.993c-.072.065-.324.065-.396 0-.214-.19-.342-.944-.135-1.14.122-.11.542-.11.666 0 .207.196.079.95-.135 1.14"/><path fill="#0771b7" d="M12.678 92.266c0 .15-.12.272-.27.274a.275.275 0 0 1 0-.548c.146 0 .27.122.27.274"/><path fill="#0b4768" d="M12.678 92.8c0 .15-.12.273-.27.276a.276.276 0 0 1-.275-.276.273.273 0 0 1 .545 0"/><path fill="#0771b7" d="M12.93 97.139c-.092.218-.942.218-1.064 0 .018-1.451.4-4.078.4-4.078h.266s.434 2.71.398 4.078"/><path fill="#0b4768" d="M13.726 92.26c-.072.066-.327.066-.399 0-.211-.19-.342-.944-.132-1.138.121-.114.542-.114.666 0 .207.194.076.948-.135 1.138"/><path fill="#0771b7" d="M13.806 92.534a.272.272 0 1 1-.544 0 .272.272 0 0 1 .544 0"/><path fill="#0b4768" d="M13.806 93.067a.274.274 0 0 1-.27.277.275.275 0 1 1 0-.55c.15 0 .27.122.27.273"/><path fill="#0771b7" d="M14.06 97.407c-.095.217-.943.217-1.065 0 .018-1.452.4-4.078.4-4.078h.266s.435 2.71.399 4.078"/><path fill="#0b4768" d="M14.921 91.791c-.072.067-.324.067-.396 0-.214-.19-.342-.942-.133-1.135.12-.113.542-.113.664 0 .21.193.079.944-.135 1.135"/><path fill="#0771b7" d="M15.002 92.067a.274.274 0 1 1-.548-.006.274.274 0 0 1 .548.006"/><path fill="#0b4768" d="M15.002 92.601a.272.272 0 1 1-.544 0 .272.272 0 0 1 .544 0"/><path fill="#0771b7" d="M15.255 96.937c-.092.217-.943.217-1.064 0 .018-1.45.398-4.078.398-4.078h.265s.437 2.712.401 4.078"/><path fill="#0b4768" d="M17.18 90.387c-.072.068-.327.068-.399 0-.211-.19-.342-.941-.132-1.136.121-.111.542-.111.666 0 .207.195.076.946-.135 1.136"/><path fill="#0771b7" d="M17.259 90.663c0 .15-.122.274-.272.274a.274.274 0 0 1-.27-.274c0-.152.121-.276.27-.276.15 0 .272.124.272.276"/><path fill="#0b4768" d="M17.259 91.198a.272.272 0 0 1-.542 0c0-.152.121-.276.27-.276.15 0 .272.124.272.276"/><path fill="#0771b7" d="M17.514 95.534c-.095.217-.943.217-1.064 0 .018-1.45.4-4.078.4-4.078h.263s.437 2.71.4 4.078"/><path fill="#0b4768" d="M16.118 90.723c-.076.063-.326.063-.398 0-.214-.19-.342-.942-.133-1.137.122-.113.543-.113.666 0 .205.195.077.946-.135 1.137"/><path fill="#0771b7" d="M16.196 90.998c0 .15-.12.274-.27.274a.272.272 0 0 1 0-.544c.15 0 .27.12.27.27"/><path fill="#0b4768" d="M16.196 91.53c0 .151-.12.276-.27.276a.273.273 0 0 1-.27-.276c0-.15.118-.274.27-.274.15 0 .27.124.27.274"/><path fill="#0771b7" d="M16.45 95.869c-.092.215-.945.215-1.062 0 .016-1.45.396-4.078.396-4.078h.266s.436 2.71.4 4.078"/><path fill="#0b4768" d="M18.443 90.053c-.076.068-.326.068-.4 0-.21-.188-.34-.942-.13-1.135.12-.113.541-.113.66 0 .21.193.084.947-.13 1.135"/><path fill="#0771b7" d="M18.52 90.329a.27.27 0 1 1-.54 0c0-.152.12-.276.27-.276.15 0 .27.124.27.276"/><path fill="#0b4768" d="M18.52 90.863c0 .15-.12.274-.27.274a.272.272 0 0 1-.27-.274c0-.152.12-.276.27-.276.15 0 .27.124.27.276"/><path fill="#0771b7" d="M18.775 95.199c-.095.217-.94.217-1.064 0 .015-1.45.4-4.078.4-4.078h.263s.44 2.715.4 4.078m3.231-44.901c-5.22 2.145-2.313 32.745-3.303 39.1-3.53.052-2.718.765-3.303 1.456-.551.652-3.634.824-3.4 0 1.953-6.913-2.394-34.363 3.062-40.062.624-.65 2.491-1.508 3.819-1.404.641-.844 3.546-.489 3.546-.489s-.057 1.252-.421 1.4"/><path fill="#0b4768" d="M15.853 89.251s.009-.05.022-.147c.005-.05.02-.111.025-.181.006-.082.014-.164.025-.245.009-.09.013-.194.02-.303.011-.111.011-.231.018-.358.004-.129.004-.265.004-.407v-.453c-.004-.34-.015-.68-.031-1.02-.018-.36-.04-.737-.063-1.131a142.92 142.92 0 0 0-.185-2.464c-.065-.84-.13-1.68-.186-2.465a51.716 51.716 0 0 1-.124-2.609l.002-.41c.002-.128.007-.246.01-.36.001-.108.006-.21.01-.303.014-.183.025-.328.034-.428a2.48 2.48 0 0 0 .018-.15s-.002.053-.009.15c-.009.1-.011.245-.018.428v.304c0 .113.002.23.007.36.002.255.016.545.031.86.018.315.039.654.063 1.014.027.363.059.74.09 1.135.066.788.133 1.625.2 2.463.068.84.129 1.678.172 2.466.04.79.058 1.526.051 2.16 0 .158-.002.308-.009.453-.006.144-.013.28-.02.407-.011.13-.016.25-.025.36-.015.113-.022.213-.036.304-.018.141-.04.283-.065.423l-.031.147m3.032-39.863s-.03.022-.081.07c-.054.045-.133.11-.225.199-.045.045-.1.097-.151.154-.027.027-.059.054-.086.086a1.19 1.19 0 0 0-.083.1 1.006 1.006 0 0 0-.092.101c-.032.039-.063.075-.092.114l-.194.253c-.063.09-.126.186-.191.283-.065.104-.128.21-.191.315-.063.114-.125.229-.185.344-.125.247-.241.498-.349.752-.027.066-.05.131-.076.2-.027.065-.052.133-.079.2-.047.139-.101.272-.142.417-.024.068-.045.14-.067.209l-.063.212c-.162.556-.296 1.12-.401 1.689-.05.272-.096.537-.13.788-.04.252-.072.492-.097.709-.027.222-.047.426-.067.602-.016.184-.027.342-.034.467-.023.262-.027.41-.027.41s-.005-.148 0-.41c.004-.258.013-.632.052-1.076l.031-.346c.011-.118.027-.242.04-.37.032-.25.066-.52.12-.794.092-.577.22-1.147.385-1.707l.067-.213c.02-.072.043-.143.065-.213.045-.142.097-.28.147-.419.051-.138.11-.27.164-.403.054-.133.12-.262.175-.39.061-.121.124-.246.187-.364a9.86 9.86 0 0 1 .4-.656c.075-.098.14-.19.205-.281.07-.088.14-.17.203-.247.066-.07.131-.142.196-.213.033-.031.063-.063.092-.095.031-.03.063-.054.092-.083.05-.05.102-.097.155-.143.102-.086.187-.145.239-.186.056-.043.088-.065.088-.065m19.019 42.605c.075.065.324.065.396 0 .214-.19.345-.944.133-1.14-.12-.11-.542-.11-.661 0-.21.196-.081.95.132 1.14"/><path fill="#0771b7" d="M37.825 92.266a.272.272 0 0 1 .27-.274.273.273 0 0 1 .272.274.272.272 0 0 1-.271.274.271.271 0 0 1-.27-.274"/><path fill="#0b4768" d="M37.826 92.8a.27.27 0 0 1 .27-.272.275.275 0 0 1 0 .548.273.273 0 0 1-.27-.276"/><path fill="#0771b7" d="M37.571 97.139c-.037-1.368.4-4.078.4-4.078h.266s.38 2.627.4 4.078c-.124.218-.97.218-1.067 0"/><path fill="#0b4768" d="M36.775 92.26c-.214-.19-.34-.944-.135-1.138.124-.114.545-.114.665 0 .21.194.08.948-.13 1.138-.076.066-.326.066-.4 0"/><path fill="#0771b7" d="M36.696 92.533a.273.273 0 0 1 .272-.274.272.272 0 0 1 .27.274.272.272 0 0 1-.542.001"/><path fill="#0b4768" d="M36.696 93.067a.273.273 0 0 1 .272-.274.272.272 0 0 1 .27.274.274.274 0 0 1-.27.277.275.275 0 0 1-.272-.277"/><path fill="#0771b7" d="M36.441 97.407c-.036-1.368.4-4.078.4-4.078h.266s.385 2.626.4 4.078c-.123.217-.969.217-1.066 0"/><path fill="#0b4768" d="M35.58 91.791c-.214-.191-.343-.942-.133-1.135.124-.113.542-.113.661 0 .21.193.081.945-.13 1.135-.074.067-.324.067-.398 0"/><path fill="#0771b7" d="M35.5 92.067c0-.15.12-.273.27-.276.152 0 .275.124.275.276a.275.275 0 0 1-.275.271.274.274 0 0 1-.27-.271"/><path fill="#0b4768" d="M35.5 92.601c0-.15.12-.272.27-.274a.275.275 0 0 1 0 .548.274.274 0 0 1-.27-.274"/><path fill="#0771b7" d="M35.25 96.937c-.04-1.366.396-4.078.396-4.078h.266s.382 2.628.4 4.078c-.122.217-.972.217-1.062 0"/><path fill="#0b4768" d="M33.321 90.387c-.214-.19-.34-.941-.135-1.136.124-.111.545-.111.665 0 .21.195.08.946-.13 1.136-.074.068-.326.068-.4 0"/><path fill="#0771b7" d="M33.242 90.663c0-.15.121-.274.272-.276.15.002.271.125.27.276a.274.274 0 0 1-.27.274.275.275 0 0 1-.272-.274"/><path fill="#0b4768" d="M33.242 91.198c0-.15.121-.274.272-.276a.274.274 0 1 1 0 .548.273.273 0 0 1-.272-.272"/><path fill="#0771b7" d="M32.987 95.534c-.036-1.368.4-4.078.4-4.078h.266s.385 2.628.4 4.078c-.123.217-.969.217-1.067 0"/><path fill="#0b4768" d="M34.382 90.723c-.213-.191-.34-.942-.133-1.137.122-.113.542-.113.664 0 .214.195.081.947-.131 1.137-.074.063-.324.063-.4 0"/><path fill="#0771b7" d="M34.305 90.998c0-.151.122-.275.273-.276a.276.276 0 0 1 0 .55.275.275 0 0 1-.272-.274"/><path fill="#0b4768" d="M34.305 91.53a.276.276 0 0 1 .273-.274.276.276 0 0 1 0 .55.276.276 0 0 1-.272-.276"/><path fill="#0771b7" d="M34.053 95.869c-.041-1.368.398-4.078.398-4.078h.264s.384 2.628.4 4.078c-.12.215-.97.215-1.062 0"/><path fill="#0b4768" d="M32.06 90.053c-.212-.188-.342-.942-.135-1.135.123-.113.544-.113.666 0 .209.193.081.947-.133 1.135-.077.068-.324.068-.398 0"/><path fill="#0771b7" d="M31.981 90.329c0-.151.12-.274.272-.276a.275.275 0 0 1 0 .548.27.27 0 0 1-.272-.272"/><path fill="#0b4768" d="M31.981 90.863c0-.151.12-.274.272-.276a.275.275 0 0 1 0 .55.273.273 0 0 1-.272-.274"/><path fill="#0771b7" d="M31.728 95.199c-.041-1.363.398-4.078.398-4.078h.268s.378 2.628.396 4.078c-.12.217-.97.217-1.062 0m-3.248-44.9c-.362-.148-.42-1.4-.42-1.4s2.906-.355 3.546.489c1.327-.104 3.199.754 3.82 1.404 5.456 5.699 1.112 33.149 3.062 40.062.232.824-2.846.652-3.398 0-.584-.691.228-1.404-3.3-1.456-.992-6.355 1.91-36.955-3.31-39.1"/><path fill="#0b4768" d="m34.635 89.251-.03-.147c-.018-.097-.045-.24-.067-.423-.011-.091-.023-.19-.034-.304-.009-.11-.013-.23-.027-.36a10.47 10.47 0 0 1-.018-.407c-.02-.871-.005-1.743.043-2.613.043-.788.103-1.626.166-2.466.07-.838.138-1.675.205-2.463.032-.394.06-.772.088-1.135.027-.36.047-.7.065-1.014.016-.315.027-.605.032-.86.002-.13.002-.247.006-.36 0-.109-.004-.21-.004-.304-.005-.183-.007-.328-.016-.428a4.88 4.88 0 0 1-.009-.15l.018.15c.011.1.02.245.034.428.004.093.011.195.013.304.003.113.005.23.01.36v.41c-.005.142-.007.296-.01.452-.023.72-.06 1.438-.112 2.156l-.187 2.465c-.07.838-.135 1.676-.184 2.464-.023.394-.05.772-.063 1.132-.018.36-.027.704-.032 1.019 0 .158 0 .305-.002.453.002.142.002.278.007.407.006.127.006.247.015.358.01.109.014.213.023.303s.018.175.022.245c.007.07.018.131.027.18l.02.148m-3.029-39.863s.03.022.083.065c.056.041.142.1.239.186.047.04.1.088.16.143.026.029.06.054.087.083.032.032.06.064.092.095l.1.102c.03.034.067.068.098.111.063.077.135.159.203.247l.205.28c.07.1.137.207.202.313l.198.344c.063.118.128.243.19.365.055.127.116.256.17.39.059.133.115.264.164.402.05.138.104.277.149.42.025.07.047.14.067.212l.066.213c.085.285.157.575.222.863.068.285.12.568.165.844.05.274.087.543.117.795l.045.369c.009.12.02.235.029.346.034.444.045.818.052 1.076.004.262 0 .41 0 .41s-.007-.148-.027-.41a16.27 16.27 0 0 0-.104-1.069 22.32 22.32 0 0 0-.4-2.335c-.07-.282-.14-.568-.225-.85l-.063-.213-.068-.209c-.045-.145-.097-.278-.146-.416-.023-.068-.052-.136-.074-.202a2.765 2.765 0 0 1-.077-.2c-.056-.133-.117-.26-.17-.386-.062-.123-.12-.247-.179-.365-.06-.115-.121-.23-.184-.344-.068-.106-.128-.213-.191-.315l-.196-.283a9.234 9.234 0 0 0-.19-.253 1.44 1.44 0 0 0-.096-.114 2.204 2.204 0 0 0-.088-.101c-.027-.037-.058-.068-.083-.1a1.411 1.411 0 0 0-.088-.086 3.806 3.806 0 0 0-.148-.154c-.092-.088-.173-.154-.225-.2-.052-.047-.081-.07-.081-.07"/><path fill="#0d8ebc" d="M24.7 52.122h.995v50.93H24.7z"/><path fill="#0d8ebc" d="M28.478 52.113c-1.453.443-4.574.391-6.073.128-.436-.076-.756-.357-.99-.59-.607-.614 0-3.469 0-3.469 1.24.203 3.548 1.333 3.807 3.853.227-2.53 2.588-3.651 3.834-3.86 0 0 .542 2.803 0 3.476a1.441 1.441 0 0 1-.112.124l-.124.109c-.102.086-.205.19-.342.229"/><path fill="#0b4768" d="M25.156 52.048c-.268-1.738-1.272-2.68-2.064-3.16-.866-.526-1.676-.639-1.685-.641l.02-.134c.032.007.842.118 1.726.657.821.496 1.859 1.465 2.135 3.256z"/><path fill="#0b4768" d="m25.287 52.043-.132-.014c.34-3.224 3.854-3.912 3.89-3.917l.022.13c-.033.006-3.453.676-3.78 3.8"/><path fill="#0b4768" d="M21.17 50.957s.005.039.018.109c.011.068.03.17.076.29.046.12.124.262.248.39.145.138.315.245.502.316.414.16.931.233 1.485.272.274.018.562.03.857.036.29.005.587.005.887.005.581 0 1.163-.016 1.743-.05.266-.017.531-.048.794-.093.248-.043.482-.104.684-.192.2-.089.37-.2.491-.331.12-.134.191-.276.234-.399a1.64 1.64 0 0 0 .085-.374c.005-.015.005-.026.005-.026s0 .011-.005.027c0 .02 0 .045-.002.08-.009.07-.02.173-.06.303a1.202 1.202 0 0 1-.219.42c-.119.146-.29.275-.497.37-.207.1-.446.167-.698.222-.254.05-.522.088-.8.113-.284.022-.572.038-.865.047-.294.01-.594.014-.89.014-.3 0-.597 0-.89-.007-.288-.01-.576-.026-.863-.05-.27-.02-.54-.057-.806-.108a3.313 3.313 0 0 1-.697-.209 1.564 1.564 0 0 1-.286-.158 1.212 1.212 0 0 1-.466-.61c-.036-.124-.047-.23-.056-.298a2.515 2.515 0 0 1-.009-.109"/><path fill="#f7dbbb" d="M48.084 28.733c1.186.767 1.967 2.076 1.967 3.561 0 2.366-1.982 4.284-4.424 4.284-.069 0-.139-.002-.207-.007-3.962 7.141-11.542 11.973-20.25 11.973-8.712 0-16.299-4.84-20.256-11.992a4.879 4.879 0 0 1-.486.027C1.984 36.579 0 34.661 0 32.295c0-1.596.904-2.986 2.241-3.722a23.68 23.68 0 0 1-.237-3.346c0-12.877 10.373-23.314 23.166-23.314 12.801 0 23.173 10.437 23.173 23.314 0 1.193-.09 2.361-.259 3.507" data-paper-data="{&quot;origPos&quot;:null}"/><path fill="#2c2c2d" d="M20.171 25.498s-.463 1.61-1.916 1.292c-.71-.156-.835-1.074-3.114-.662-.716.161-2.223 1.033-2.513 1.615-.29.583-.08-2.136 2.26-3.146 1.688-.602 2.26-.573 3.658-.573 1.398 0 1.828.81 1.625 1.474m9.71 0s.463 1.61 1.916 1.292c.71-.156.835-1.074 3.114-.662.716.161 2.223 1.033 2.513 1.615.29.583.08-2.136-2.26-3.146-1.688-.602-2.26-.573-3.658-.573-1.398 0-1.828.81-1.625 1.474m-11.585 7.076c0 1.574-.862 2.85-1.924 2.85-1.062 0-1.923-1.276-1.923-2.85s.86-2.85 1.923-2.85c1.062 0 1.923 1.276 1.923 2.85m17.308 0c0 1.574-.86 2.85-1.923 2.85-1.063 0-1.923-1.276-1.923-2.85s.86-2.85 1.923-2.85c1.062 0 1.923 1.276 1.923 2.85"/><path fill="#e2a86e" d="M22.141 35.424s.2-.99.485-1.275c.77-1.135 2.395-1.575 2.395-1.575s2.092.69 2.552 1.56c.427.808.327 1.215.327 1.215s-2.042-1.837-2.85-1.725c-1.084.15-2.909 1.8-2.909 1.8zM18.488 37.985s6.633 3.049 12.667-.377c0 0-1.338 5.196-5.721 5.283-3.958.116-4.792-1.417-5.268-1.857-.473-.441-1.365-1.684-1.679-3.05"/><path fill="#2c2c2d" d="M49.147 22.01c.036 2.735-.916 8.66-2.768 12.192 0 0-4.558-12.978-8.316-15.031-4.585-2.514-16.679 1.109-20.781-2.147-.679-.539-.606-1.766-.606-1.766s-.78 1.56-1.16 1.997c-1.991 2.273-7.142 5.568-9.583 7.336-1.966 1.424-2.059 1.406-1.624 9.611 0 0-3.612-7.465-3.414-12.45.055-1.436.75-4.621 1.875-7.857C6.847 5.658 15.298 0 25.06 0c11.214 0 20.696 7.464 23.806 17.724.16 1.424.253 2.854.28 4.286"/></g></svg>