<svg version="1.1" xmlns="http://www.w3.org/2000/svg" xmlns:xlink="http://www.w3.org/1999/xlink" width="66.17717" height="117.32402" viewBox="0,0,66.17717,117.32402"><g transform="translate(-207.10083,-121.49297)"><g data-paper-data="{&quot;isPaintingLayer&quot;:true}" fill-rule="evenodd" stroke="none" stroke-width="1" stroke-linecap="butt" stroke-linejoin="miter" stroke-miterlimit="10" stroke-dasharray="" stroke-dashoffset="0" style="mix-blend-mode: normal"><path d="M273.19,161.471c0.055,0.186 0.088,0.286 0.088,0.286l-0.11,-0.276c-0.021,-0.048 -0.036,-0.099 -0.065,-0.155l-0.084,-0.175c-0.033,-0.063 -0.064,-0.135 -0.104,-0.204c-0.038,-0.071 -0.084,-0.145 -0.13,-0.221c-0.025,-0.042 -0.05,-0.078 -0.077,-0.12c-0.007,-0.009 -0.019,-0.024 -0.026,-0.036c0.176,0.412 0.258,1.012 0.227,2.103c-1.13,2.469 -2.926,3.331 -4.53,2.469c0.893,4.097 -3.109,4.344 -4.442,3.352c0.748,3.187 -3.627,4.181 -4.85,2.223c-1.031,5.52 -7.148,1.983 -7.148,1.983l-9.832,1.291v0.076l-0.293,-0.036l-0.294,0.036v-0.076l-9.83,-1.291c0,0 -6.119,3.537 -7.149,-1.983c-1.221,1.957 -5.601,0.964 -4.848,-2.223c-1.335,0.992 -5.337,0.745 -4.444,-3.352c-1.601,0.862 -3.4,0 -4.529,-2.469c-0.032,-1.091 0.049,-1.691 0.228,-2.103c-0.012,0.012 -0.021,0.027 -0.029,0.037c-0.027,0.041 -0.054,0.077 -0.075,0.12c-0.05,0.075 -0.09,0.15 -0.134,0.22c-0.04,0.069 -0.069,0.141 -0.102,0.204c-0.026,0.063 -0.059,0.124 -0.084,0.175c-0.024,0.055 -0.044,0.107 -0.064,0.155c-0.074,0.179 -0.11,0.276 -0.11,0.276c0,0 0.03,-0.099 0.09,-0.286c0.019,-0.046 0.033,-0.099 0.053,-0.158c0.025,-0.053 0.045,-0.116 0.073,-0.181c0.027,-0.067 0.052,-0.139 0.09,-0.215c0.037,-0.071 0.073,-0.151 0.113,-0.235c0.022,-0.04 0.045,-0.083 0.07,-0.123c0.026,-0.04 0.05,-0.084 0.08,-0.128c0.048,-0.089 0.115,-0.177 0.178,-0.269l0.05,-0.068c0.019,-0.023 0.033,-0.046 0.056,-0.069c0.034,-0.043 0.07,-0.091 0.11,-0.137c0.0811,-0.09596 0.16446,-0.18999 0.25,-0.282c0.174,-0.188 0.366,-0.381 0.548,-0.596c0.179,-0.212 0.339,-0.455 0.489,-0.722c0.063,-0.137 0.138,-0.272 0.192,-0.418l0.088,-0.22c0.027,-0.078 0.05,-0.16 0.074,-0.24c0.10348,-0.32049 0.17876,-0.64941 0.225,-0.983c0.044,-0.342 0.044,-0.687 -0.004,-1.042c-0.039,-0.356 -0.134,-0.722 -0.209,-1.123c-0.07667,-0.42047 -0.09552,-0.84943 -0.056,-1.275c0.014,-0.216 0.06,-0.44 0.098,-0.656c0.027,-0.1 0.048,-0.197 0.075,-0.3l0.017,-0.072l0.01,-0.037l0.002,-0.012l0.005,-0.02l0.008,-0.021l0.05,-0.158c0.12846,-0.43049 0.31268,-0.84232 0.548,-1.225c0.056,-0.101 0.125,-0.194 0.19,-0.285c0.067,-0.101 0.142,-0.185 0.214,-0.275l0.054,-0.067l0.054,-0.06l0.115,-0.124c0.07072,-0.0811 0.14341,-0.16046 0.218,-0.238c0.288,-0.303 0.535,-0.585 0.723,-0.895c0.096,-0.153 0.172,-0.324 0.251,-0.484l0.096,-0.244l0.011,-0.032l0.01,-0.037l0.025,-0.074l0.046,-0.149l0.048,-0.144l0.028,-0.122c0.023,-0.088 0.043,-0.179 0.068,-0.268c0.026,-0.18 0.065,-0.357 0.075,-0.53c0.026,-0.349 0.005,-0.676 -0.06,-1.025c-0.06,-0.349 -0.163,-0.739 -0.215,-1.171c-0.04888,-0.4267 -0.0472,-0.85769 0.005,-1.284c0.024,-0.107 0.04,-0.212 0.06,-0.32c0.00762,-0.05223 0.01663,-0.10424 0.027,-0.156c0.012,-0.042 0.021,-0.086 0.033,-0.128c0.019,-0.085 0.042,-0.17 0.063,-0.255l0.006,-0.029l0.006,-0.017v-0.006l0.01,-0.034l0.02,-0.069c0.014,-0.043 0.031,-0.091 0.044,-0.135c0.028,-0.089 0.058,-0.181 0.088,-0.268c0.033,-0.09 0.069,-0.178 0.104,-0.265c0.069,-0.174 0.157,-0.343 0.24,-0.507c0.043,-0.084 0.097,-0.162 0.143,-0.24c0.048,-0.078 0.094,-0.158 0.15,-0.23c0.052,-0.073 0.101,-0.145 0.157,-0.214c0.0503,-0.06867 0.10404,-0.13475 0.161,-0.198c0.052,-0.068 0.102,-0.122 0.157,-0.183c0.04811,-0.05602 0.09884,-0.10975 0.152,-0.161l0.266,-0.29l0.115,-0.128c0.038,-0.042 0.075,-0.082 0.105,-0.12l0.093,-0.112c0.01,-0.021 0.026,-0.038 0.04,-0.055c0.011,-0.017 0.028,-0.038 0.038,-0.056c0.052,-0.072 0.103,-0.139 0.137,-0.207c0.024,-0.036 0.041,-0.067 0.06,-0.099c0.01996,-0.03155 0.03734,-0.06466 0.052,-0.099c0.03,-0.063 0.061,-0.128 0.09,-0.185c0.031,-0.059 0.046,-0.11 0.065,-0.16c0.02,-0.05 0.036,-0.093 0.056,-0.137c0.01539,-0.04912 0.03006,-0.09846 0.044,-0.148c0.064,-0.19 0.094,-0.29 0.094,-0.29l1.834,0.653c0,0 -0.036,0.099 -0.111,0.282c-0.019,0.044 -0.038,0.092 -0.067,0.152l-0.102,0.227c-0.042,0.078 -0.078,0.171 -0.13,0.255c-0.05,0.086 -0.1,0.177 -0.157,0.273c-0.06371,0.09874 -0.12905,0.19642 -0.196,0.293c-0.065,0.105 -0.151,0.2 -0.235,0.305c-0.02,0.025 -0.044,0.051 -0.067,0.078c-0.019,0.025 -0.045,0.047 -0.069,0.075l-0.138,0.15c-0.05,0.053 -0.1,0.097 -0.15,0.144c-0.048,0.05 -0.105,0.103 -0.15,0.147c-0.051,0.046 -0.113,0.091 -0.16,0.141c5.813,-2.345 22.162,-4.013 23.104,-4.112v-0.006l0.03,0.002l0.036,-0.002v0.006c1.007,0.099 17.311,1.767 23.127,4.112c-0.054,-0.05 -0.096,-0.095 -0.148,-0.141c-0.049,-0.044 -0.098,-0.097 -0.149,-0.147c-0.048,-0.047 -0.098,-0.091 -0.142,-0.145c-0.054,-0.049 -0.102,-0.098 -0.148,-0.15c-0.02025,-0.02648 -0.04266,-0.05123 -0.067,-0.074c-0.01936,-0.02728 -0.0404,-0.05333 -0.063,-0.078c-0.084,-0.105 -0.169,-0.2 -0.234,-0.305c-0.036,-0.049 -0.073,-0.103 -0.105,-0.149c-0.035,-0.049 -0.068,-0.094 -0.092,-0.144l-0.158,-0.273c-0.049,-0.084 -0.086,-0.177 -0.126,-0.255c-0.04,-0.082 -0.075,-0.157 -0.107,-0.227c-0.027,-0.061 -0.043,-0.108 -0.066,-0.152l-0.111,-0.282l1.835,-0.654c0,0 0.03,0.102 0.09,0.29c0.017,0.042 0.034,0.099 0.053,0.149c0.014,0.044 0.034,0.087 0.054,0.137c0.019,0.05 0.031,0.101 0.063,0.16c0.02888,0.06188 0.05821,0.12355 0.088,0.185c0.01507,0.03401 0.0328,0.06677 0.053,0.098c0.01869,0.0341 0.0387,0.06746 0.06,0.1c0.036,0.068 0.089,0.135 0.136,0.207c0.01096,0.02 0.02404,0.03878 0.039,0.056c0.013,0.017 0.027,0.034 0.04,0.055c0.035,0.038 0.059,0.076 0.092,0.112c0.033,0.038 0.069,0.078 0.104,0.12l0.115,0.128c0.088,0.093 0.18,0.189 0.27,0.289l0.153,0.162c0.05,0.061 0.103,0.115 0.153,0.183c0.054,0.063 0.112,0.13 0.167,0.198l0.155,0.214c0.053,0.07404 0.10206,0.15081 0.147,0.23c0.049,0.078 0.099,0.156 0.14,0.24c0.083,0.164 0.173,0.333 0.24,0.507c0.035,0.087 0.073,0.175 0.11,0.265l0.084,0.268c0.017,0.044 0.031,0.092 0.044,0.135l0.019,0.069l0.012,0.034l0.002,0.006l0.006,0.017l0.005,0.029c0.02337,0.08432 0.04406,0.16936 0.062,0.255l0.036,0.128c0.007,0.053 0.017,0.104 0.027,0.156c0.017,0.108 0.036,0.213 0.055,0.32c0.05,0.411 0.058,0.855 0.008,1.284c-0.054,0.431 -0.158,0.822 -0.218,1.171c-0.06534,0.33718 -0.08418,0.68171 -0.056,1.024c0.01,0.174 0.046,0.351 0.075,0.53c0.025,0.089 0.042,0.181 0.067,0.269l0.031,0.122l0.043,0.144l0.05,0.149l0.02,0.074l0.013,0.037l0.011,0.032c0.033,0.082 0.064,0.162 0.1,0.244c0.075,0.16 0.152,0.331 0.25,0.484c0.187,0.31 0.429,0.592 0.72,0.895l0.222,0.238l0.11,0.124l0.055,0.061l0.054,0.066c0.071,0.09 0.146,0.174 0.212,0.275c0.066,0.091 0.135,0.185 0.19,0.285c0.238,0.38139 0.42271,0.79355 0.549,1.225l0.051,0.159l0.006,0.02l0.006,0.019v0.013l0.012,0.037l0.02,0.072c0.02209,0.1002 0.04642,0.19989 0.073,0.299c0.039,0.217 0.083,0.44 0.099,0.657c0.04,0.433 0.014,0.871 -0.06,1.275c-0.069,0.401 -0.163,0.767 -0.207,1.123c-0.04509,0.34575 -0.0471,0.69575 -0.006,1.042c0.04992,0.33291 0.12514,0.66153 0.225,0.983c0.026,0.08 0.05,0.162 0.08,0.24c0.026,0.076 0.057,0.149 0.084,0.219c0.054,0.147 0.13,0.282 0.197,0.419c0.13585,0.25797 0.29985,0.50012 0.489,0.722c0.183,0.216 0.368,0.408 0.543,0.596c0.08552,0.09204 0.16888,0.18607 0.25,0.282c0.037,0.046 0.08,0.094 0.11,0.137c0.02006,0.02158 0.03844,0.04464 0.055,0.069c0.02,0.023 0.032,0.046 0.052,0.068c0.063,0.092 0.129,0.179 0.182,0.269l0.074,0.128c0.028,0.04 0.047,0.083 0.07,0.123c0.044,0.085 0.079,0.165 0.117,0.235c0.034,0.076 0.059,0.148 0.086,0.215c0.025,0.065 0.054,0.128 0.075,0.181c0.021,0.059 0.036,0.112 0.054,0.158" data-paper-data="{&quot;origPos&quot;:null}" fill="#332115"/><path d="M241.183,233.501l0.005,0.002l-0.547,3.42h-0.66l-0.144,-0.923c-1.28,0.782 -2.819,1.24 -4.184,1.885c-1.338,0.558 -3.094,1.614 -4.29,0.286c-1.581,-1.888 1.277,-4.377 3.125,-5.51l6.3,0.182c0.051,0.221 0.375,0.435 0.395,0.657z" fill="#0f0f0f"/><path d="M249.355,232.66c1.845,1.134 4.705,3.627 3.125,5.514c-1.197,1.328 -2.954,0.276 -4.29,-0.284c-1.365,-0.643 -2.906,-1.106 -4.183,-1.891l-0.145,0.925h-0.659l-0.55,-3.42l0.01,-0.004c0.014,-0.223 0.338,-0.437 0.39,-0.657l6.302,-0.183" fill="#0f0f0f"/><path d="M254.662,206.206l-5.336,26.684h-6.316l-0.94,-19.347h-0.3l-0.941,19.347h-6.315l-5.334,-26.684h16.027z" fill="#fddfbb"/><path d="M242.476,224.635c2.014,0.972 8.502,0 8.502,0l-1.64,8.227c2.004,1.027 2.459,2.962 2.459,2.962c-4.22,1.306 -8.378,-2.543 -8.76,-2.909h-0.026z" fill="#f5bcd7"/><path d="M242.64,227.177c1.505,0.033 5.143,0.065 7.89,-0.286l-0.219,1.101c-1.941,0.221 -4.193,0.273 -5.878,0.273c-0.69,0 -1.282,-0.01 -1.725,-0.017l-0.067,-1.07zM242.824,230.05c1.487,0.028 4.571,0.045 7.124,-0.222l-0.224,1.095c-1.794,0.168 -3.772,0.212 -5.292,0.212c-0.594,0 -1.12,-0.006 -1.537,-0.014l-0.07,-1.07zM247.758,235.74c-0.65658,-0.20671 -1.29156,-0.47664 -1.896,-0.806c1.287,-0.122 3.312,-0.471 4.656,-1.223c0.284,0.274 0.508,0.56 0.684,0.834c-1.014,0.611 -2.313,0.977 -3.444,1.194" fill="#d50f15"/><path d="M240.829,232.915h-0.027c-0.381,0.366 -4.538,4.215 -8.757,2.909c0,0 0.453,-1.935 2.457,-2.962l-1.638,-8.227c0,0 6.486,0.972 8.504,0z" fill="#f5bcd7"/><path d="M241.203,227.178l-0.071,1.07c-0.442,0.007 -1.033,0.017 -1.725,0.017c-1.684,0 -3.937,-0.052 -5.878,-0.273l-0.219,-1.101c2.749,0.351 6.387,0.319 7.893,0.286zM241.016,230.051l-0.068,1.07c-0.42,0.008 -0.94,0.014 -1.54,0.014c-1.518,0 -3.498,-0.044 -5.292,-0.212l-0.217,-1.095c2.546,0.267 5.633,0.25 7.117,0.222zM236.084,235.739c-1.133,-0.217 -2.432,-0.583 -3.446,-1.194c0.178,-0.274 0.402,-0.56 0.686,-0.834c1.342,0.752 3.371,1.101 4.654,1.223c-0.575,0.31 -1.214,0.594 -1.894,0.806" fill="#d50f15"/><path d="M233.402,233.468l0.061,-0.032c0.04,-0.02 0.1,-0.052 0.178,-0.086c0.075,-0.036 0.173,-0.072 0.286,-0.116c0.05936,-0.02096 0.11939,-0.03997 0.18,-0.057c0.063,-0.021 0.132,-0.042 0.207,-0.06c0.07,-0.013 0.146,-0.034 0.222,-0.047c0.075,-0.013 0.16,-0.029 0.244,-0.042c0.084,-0.011 0.172,-0.017 0.259,-0.03c0.088,-0.008 0.18,-0.008 0.27,-0.012c0.188,-0.006 0.376,0 0.573,0.012c0.096,0.013 0.195,0.022 0.29,0.034c0.1,0.017 0.195,0.028 0.293,0.05c0.37858,0.06879 0.74917,0.17602 1.106,0.32c0.174,0.066 0.335,0.14 0.486,0.218c0.146,0.077 0.282,0.155 0.407,0.229c0.249,0.152 0.442,0.3 0.569,0.413c0.07,0.054 0.117,0.103 0.15,0.132l0.05,0.051l-0.25,-0.093c-0.08,-0.029 -0.176,-0.06 -0.284,-0.097c-0.11,-0.037 -0.231,-0.082 -0.368,-0.126c-0.30059,-0.10204 -0.60404,-0.19541 -0.91,-0.28c-0.086,-0.021 -0.17,-0.044 -0.257,-0.067c-0.088,-0.02 -0.174,-0.047 -0.266,-0.064c-0.086,-0.021 -0.173,-0.04 -0.263,-0.061c-0.08897,-0.01916 -0.17832,-0.0365 -0.268,-0.052c-0.18,-0.038 -0.364,-0.063 -0.539,-0.091l-0.27,-0.03l-0.259,-0.026l-0.255,-0.019c-0.082,-0.003 -0.163,-0.01 -0.243,-0.011c-0.079,-0.002 -0.157,-0.002 -0.232,-0.006c-0.073,0 -0.148,0.004 -0.218,0.004c-0.07,-0.004 -0.135,0.002 -0.198,0.002c-0.065,0.002 -0.13,0.006 -0.186,0.006c-0.113,0.01 -0.214,0.011 -0.297,0.017c-0.06646,0.0074 -0.13317,0.0124 -0.2,0.015l-0.068,0.002M250.438,233.468l-0.069,-0.002c-0.06517,-0.00244 -0.13022,-0.00745 -0.195,-0.015c-0.088,-0.006 -0.186,-0.008 -0.301,-0.017c-0.06,0 -0.117,-0.004 -0.184,-0.006c-0.063,0 -0.132,-0.006 -0.201,-0.002c-0.07,0 -0.144,-0.004 -0.219,-0.004c-0.073,0.004 -0.15,0.004 -0.23,0.006c-0.08,0.002 -0.16,0.008 -0.243,0.011c-0.083,0.006 -0.169,0.012 -0.253,0.02c-0.085,0.007 -0.173,0.017 -0.263,0.024l-0.264,0.03c-0.179,0.03 -0.36,0.054 -0.54,0.092c-0.09074,0.01513 -0.1811,0.03247 -0.271,0.052l-0.267,0.06c-0.088,0.018 -0.176,0.044 -0.258,0.065l-0.259,0.067c-0.30687,0.08371 -0.61103,0.17709 -0.912,0.28c-0.135,0.044 -0.257,0.09 -0.366,0.126c-0.11,0.038 -0.206,0.068 -0.282,0.097l-0.25,0.093c0,0 0.014,-0.019 0.047,-0.051c0.034,-0.029 0.08,-0.078 0.15,-0.132c0.128,-0.112 0.32,-0.26 0.566,-0.413c0.127,-0.074 0.263,-0.152 0.413,-0.229c0.15712,-0.08128 0.31833,-0.15437 0.483,-0.219c0.17473,-0.07044 0.35296,-0.13186 0.534,-0.184c0.188,-0.056 0.382,-0.1 0.571,-0.136c0.098,-0.02 0.196,-0.032 0.294,-0.05c0.094,-0.01 0.193,-0.02 0.291,-0.033c0.196,-0.012 0.383,-0.018 0.57,-0.012c0.093,0.004 0.187,0.004 0.271,0.012c0.087,0.013 0.175,0.019 0.261,0.03c0.083,0.013 0.163,0.029 0.242,0.042c0.078,0.013 0.151,0.034 0.226,0.048c0.073,0.017 0.14,0.038 0.203,0.059c0.065,0.019 0.125,0.036 0.182,0.057c0.111,0.044 0.209,0.08 0.284,0.116c0.078,0.034 0.138,0.067 0.18,0.086c0.038,0.022 0.06,0.032 0.06,0.032" fill="#0f0f0f"/><path d="M207.682,168.68472c-1.146,-2.69 -0.544,-5.517 1.338,-6.31c1.232,-0.517 2.71,-0.043 3.902,1.1c0.541,-0.81 1.183,-1.261 1.777,-1.145c1.108,0.213 1.631,2.322 1.163,4.709c-0.177,0.91 -0.475,1.729 -0.837,2.383c-0.044,0.296 -0.115,0.582 -0.209,0.846l5.631,6.57c0,0 2.582,-1.262 8.738,-3.11l3.138,-1.118c1.361,-0.939 4.352,-1.373 6.158,-1.547c-0.303,-0.672 -0.485,-1.401 -0.485,-1.935h7.772c0,0.534 -0.188,1.276 -0.498,1.949c1.84,0.169 4.799,0.604 6.112,1.545c0.692,0.369 6.635,3.539 8.355,5.723c3.668,4.656 5.192,19.069 5.19,19.049c0.483,0.696 0.822,1.6 0.932,2.61c0.253,2.397 -0.9,4.484 -2.58,4.663c-1.098,0.113 -2.149,-0.615 -2.816,-1.802c-0.621,0.511 -1.232,0.715 -1.677,0.482c-0.824,-0.434 -0.724,-2.224 0.219,-3.996c0.362,-0.674 0.792,-1.251 1.232,-1.68c0.04,-0.074 0.079,-0.145 0.115,-0.217c0,0 -1.629,-10.36 -3.373,-12.81c-0.872,-1.227 -1.971,-2.19 -2.174,-2.737c1.363,10.261 -0.163,24.528 -0.163,24.528l-25.476,0.002v-0.002c0,0 -1.769,-15.71 -0.073,-26.01c-0.09,0.04 -9.051,3.604 -11.511,2.717c-3.063,-1.099 -6.57,-11.014 -6.57,-11.014c-1.317,-0.466 -2.588,-1.716 -3.33,-3.444" data-paper-data="{&quot;origPos&quot;:null}" fill="#795b4f"/><path d="M255.447,200.024c4.032,4.502 9.722,22.482 9.722,22.482c0,0 -23.008,8.844 -46.02,0c0,0 4.074,-16.329 9.104,-22.489c-0.601,-6.582 0.211,-15.237 -0.607,-16.09c0,0 -2.091,-2.188 -3.484,-1.808c-0.7356,0.20245 -1.47581,0.38784 -2.22,0.556c0.393,-2.283 0.111,-4.56 -1.28,-6.262c2.83,-1.471 6.796,-2.334 10.084,-3.739c2.82,-1.21 5.136,-1.882 7.15,-1.945c1.005,-0.033 4.023,-0.219 4.023,-0.219c0,0 2.904,0.265 3.876,0.285c4.508,0.231 7.281,2.177 10.116,3.977c4.027,2.555 5.29,4.618 6.283,8.34c-2.825,0.247 -5.183,1.527 -5.183,1.527l-0.64,-0.762l-0.015,0.13c-1.399,0.682 -0.033,9.366 -0.909,16.017" fill="#7dcdf4"/><path d="M228.67,202.449c-0.00491,0.10729 -0.05245,0.20818 -0.13205,0.28027c-0.0796,0.07209 -0.1847,0.10943 -0.29194,0.10372c-0.10754,-0.00337 -0.20924,-0.0497 -0.28235,-0.12864c-0.07311,-0.07894 -0.11153,-0.18388 -0.10665,-0.29136c0.01132,-0.22314 0.20081,-0.3952 0.424,-0.385c0.224,0.01 0.399,0.198 0.389,0.42M234.32,202.622c-0.00761,0.22419 -0.19477,0.40017 -0.419,0.394c-0.10795,-0.0021 -0.21065,-0.04701 -0.28548,-0.12484c-0.07483,-0.07783 -0.11567,-0.18221 -0.11352,-0.29016c0.01956,-0.21522 0.20281,-0.3783 0.41884,-0.37275c0.21603,0.00555 0.39066,0.17782 0.39916,0.39375M239.633,202.705c-0.00051,0.10802 -0.04447,0.2113 -0.12197,0.28655c-0.07751,0.07525 -0.18204,0.11614 -0.29003,0.11345c-0.10703,0.00109 -0.20997,-0.04108 -0.28547,-0.11695c-0.0755,-0.07587 -0.11716,-0.17902 -0.11553,-0.28605c0,-0.225 0.188,-0.404 0.406,-0.402c0.23,0 0.409,0.182 0.407,0.405M244.947,202.7c0.0019,0.10763 -0.03988,0.21146 -0.11581,0.28777c-0.07593,0.07631 -0.17954,0.11861 -0.28718,0.11723c-0.22202,0.00165 -0.40335,-0.17698 -0.405,-0.399c-0.00165,-0.22202 0.17698,-0.40335 0.399,-0.405c0.10748,-0.00188 0.21123,0.03938 0.28808,0.11454c0.07685,0.07516 0.1204,0.17797 0.12092,0.28546M250.262,202.601c0.00241,0.10786 -0.0382,0.21224 -0.11288,0.2901c-0.07468,0.07786 -0.17727,0.1228 -0.28512,0.1249c-0.22342,0.00453 -0.40932,-0.1707 -0.418,-0.394c-0.00553,-0.22533 0.17267,-0.41248 0.398,-0.418c0.22533,-0.00553 0.41248,0.17267 0.418,0.398M255.574,202.413c0.0046,0.10751 -0.03388,0.2124 -0.10691,0.29143c-0.07303,0.07903 -0.17456,0.12567 -0.28209,0.12957c-0.10742,0.00599 -0.21277,-0.03123 -0.2926,-0.10335c-0.07982,-0.07212 -0.1275,-0.17318 -0.13241,-0.28065c-0.00984,-0.14762 0.06099,-0.289 0.18514,-0.36948c0.12414,-0.08049 0.28212,-0.08746 0.41287,-0.01824c0.13075,0.06922 0.21379,0.20381 0.21699,0.35172M227.96,207.463c-0.00867,0.10745 -0.05971,0.20704 -0.14186,0.27682c-0.08216,0.06978 -0.1887,0.10403 -0.29614,0.09518c-0.22382,-0.01603 -0.39316,-0.209 -0.38,-0.433c0.02064,-0.22313 0.21659,-0.38835 0.44,-0.371c0.227,0.015 0.396,0.21 0.379,0.432M234.29,207.776c-0.00465,0.10765 -0.05221,0.20896 -0.13206,0.2813c-0.07986,0.07234 -0.18535,0.10968 -0.29293,0.1037c-0.10781,-0.00255 -0.21001,-0.04864 -0.28329,-0.12777c-0.07328,-0.07913 -0.11141,-0.18454 -0.10571,-0.29223c0.01496,-0.2209 0.20337,-0.38956 0.42458,-0.38006c0.2212,0.0095 0.39446,0.19369 0.39042,0.41506M239.625,207.93c-0.00546,0.22361 -0.19035,0.40091 -0.414,0.397c-0.10846,-0.00025 -0.21229,-0.04399 -0.28823,-0.12144c-0.07594,-0.07745 -0.11765,-0.18212 -0.11577,-0.29056c0.01847,-0.21492 0.20033,-0.37877 0.41601,-0.37482c0.21568,0.00395 0.39141,0.17437 0.40199,0.38982M244.962,207.915c0.00442,0.22644 -0.17556,0.41358 -0.402,0.418c-0.22644,0.00442 -0.41358,-0.17556 -0.418,-0.402c-0.00442,-0.22644 0.17557,-0.41358 0.402,-0.418c0.22644,-0.00442 0.41358,0.17556 0.418,0.402M250.294,207.742c0.00674,0.22406 -0.16897,0.41139 -0.393,0.419c-0.10772,0.00572 -0.21328,-0.03167 -0.29339,-0.1039c-0.08011,-0.07223 -0.12819,-0.17337 -0.13362,-0.2811c-0.00681,-0.22292 0.16624,-0.4102 0.389,-0.421c0.22502,-0.00971 0.41652,0.16224 0.431,0.387M256.559,207.402c0.0137,0.22401 -0.15608,0.41702 -0.38,0.432c-0.22359,0.01791 -0.41987,-0.1476 -0.44,-0.371c-0.00851,-0.10703 0.02646,-0.21298 0.09703,-0.29389c0.07057,-0.08092 0.17077,-0.12999 0.27797,-0.13611c0.22492,-0.02027 0.42388,0.14516 0.445,0.37M228.923,212.343c-0.01081,0.10733 -0.06419,0.20585 -0.1482,0.27351c-0.08401,0.06766 -0.19164,0.09882 -0.2988,0.0865c-0.10798,-0.00936 -0.20769,-0.0616 -0.27685,-0.14505c-0.06916,-0.08345 -0.10199,-0.19112 -0.09115,-0.29896c0.02715,-0.22368 0.22896,-0.38406 0.453,-0.36c0.10721,0.01008 0.20591,0.06275 0.27396,0.14621c0.06805,0.08346 0.09977,0.19074 0.08804,0.29779M234.263,212.763c-0.02623,0.21648 -0.21695,0.37478 -0.43456,0.3607c-0.2176,-0.01408 -0.38634,-0.19565 -0.38444,-0.4137c0.01654,-0.22356 0.21033,-0.3919 0.434,-0.377c0.22356,0.01551 0.3942,0.20609 0.385,0.43M239.616,212.963c-0.0034,0.10849 -0.04977,0.21119 -0.12893,0.28546c-0.07915,0.07428 -0.18459,0.11405 -0.29308,0.11054c-0.10786,-0.00158 -0.21066,-0.04602 -0.2857,-0.1235c-0.07504,-0.07748 -0.11617,-0.18165 -0.1143,-0.2895c0.00868,-0.2241 0.1958,-0.39964 0.42,-0.394c0.22369,0.00437 0.40259,0.18726 0.402,0.411M224.017,211.706c-0.01549,0.10708 -0.07338,0.20343 -0.16065,0.26737c-0.08727,0.06394 -0.19658,0.09012 -0.30335,0.07263c-0.22274,-0.03103 -0.37864,-0.23607 -0.349,-0.459c0.03923,-0.21894 0.2434,-0.36856 0.464,-0.34c0.10723,0.01441 0.20432,0.07091 0.2698,0.15703c0.06548,0.08613 0.09398,0.19478 0.0792,0.30196M244.973,212.945c0.00334,0.22606 -0.17695,0.41216 -0.403,0.416c-0.10873,0.00322 -0.21424,-0.0371 -0.2931,-0.11202c-0.07887,-0.07492 -0.12454,-0.17823 -0.12689,-0.28698c-0.0008,-0.10821 0.04142,-0.2123 0.11737,-0.28938c0.07595,-0.07708 0.17942,-0.12082 0.28763,-0.12162c0.22342,-0.00453 0.40932,0.1707 0.418,0.394M250.326,212.71c0.01135,0.22542 -0.16163,0.41762 -0.387,0.43c-0.22367,0.01544 -0.41752,-0.15333 -0.433,-0.377c-0.01463,-0.22644 0.15706,-0.42186 0.3835,-0.4365c0.22644,-0.01463 0.42186,0.15706 0.4365,0.3835M255.657,212.259c0.01145,0.107 -0.02038,0.21412 -0.08837,0.29752c-0.06799,0.0834 -0.16653,0.13614 -0.27363,0.14648c-0.10787,0.01265 -0.21633,-0.01824 -0.30136,-0.0858c-0.08503,-0.06757 -0.1396,-0.16626 -0.15164,-0.2742c-0.02147,-0.22366 0.14236,-0.42239 0.366,-0.444c0.22323,-0.02397 0.42387,0.1369 0.449,0.36M260.961,211.588c0.01711,0.10703 -0.00995,0.21642 -0.07499,0.30313c-0.06504,0.08671 -0.16248,0.14332 -0.27002,0.15687c-0.22316,0.03354 -0.43162,-0.11913 -0.467,-0.342c-0.02403,-0.22244 0.13094,-0.42452 0.352,-0.459c0.22,-0.032 0.428,0.12 0.46,0.341M228.851,217.355c-0.03251,0.22262 -0.23799,0.37774 -0.461,0.348c-0.10834,-0.01323 -0.20694,-0.06911 -0.27395,-0.15527c-0.06701,-0.08615 -0.0969,-0.19547 -0.08305,-0.30373c0.03591,-0.22134 0.24187,-0.37358 0.464,-0.343c0.226,0.03 0.387,0.233 0.354,0.454M234.209,217.917c-0.00884,0.10799 -0.0608,0.20788 -0.14415,0.27712c-0.08335,0.06924 -0.19107,0.10199 -0.29886,0.09088c-0.10838,-0.00556 -0.20985,-0.05492 -0.28113,-0.13676c-0.07128,-0.08184 -0.10624,-0.18912 -0.09687,-0.29724c0.00989,-0.1081 0.06234,-0.20783 0.14581,-0.27723c0.08347,-0.0694 0.1911,-0.10277 0.29919,-0.09277c0.10779,0.00767 0.20807,0.05799 0.27865,0.13983c0.07057,0.08184 0.10561,0.18843 0.09735,0.29618M239.597,218.187c-0.00814,0.22555 -0.19744,0.40187 -0.423,0.394c-0.10891,-0.00131 -0.21278,-0.04611 -0.28848,-0.12444c-0.07569,-0.07833 -0.11693,-0.18367 -0.11452,-0.29256c0.01081,-0.22412 0.19976,-0.39792 0.424,-0.39c0.23,0.004 0.408,0.19 0.402,0.413M225.024,217.175c-0.04659,0.22049 -0.26205,0.36234 -0.483,0.318c-0.10619,-0.01943 -0.20027,-0.08035 -0.26144,-0.1693c-0.06117,-0.08894 -0.08441,-0.19859 -0.06456,-0.3047c0.04851,-0.21845 0.26078,-0.35967 0.481,-0.32c0.22,0.044 0.368,0.255 0.328,0.476M244.995,218.165c0.00241,0.10872 -0.03869,0.21392 -0.11417,0.29221c-0.07548,0.07829 -0.17909,0.12321 -0.28784,0.12479c-0.10856,0.00432 -0.21437,-0.03484 -0.29396,-0.1088c-0.07959,-0.07396 -0.1264,-0.17661 -0.13004,-0.2852c-0.00391,-0.22513 0.17489,-0.41108 0.4,-0.416c0.10867,-0.0046 0.21469,0.03427 0.29463,0.10802c0.07994,0.07375 0.12722,0.17629 0.13137,0.28498M250.38,217.851c0.00881,0.10761 -0.02593,0.21424 -0.09642,0.29602c-0.07049,0.08177 -0.17085,0.13184 -0.27858,0.13898c-0.10837,0.01088 -0.21661,-0.02181 -0.30085,-0.09085c-0.08424,-0.06904 -0.13754,-0.16876 -0.14815,-0.27715c-0.01491,-0.22441 0.15374,-0.41894 0.378,-0.436c0.22511,-0.02029 0.42436,0.14501 0.446,0.37M255.735,217.245c0.0266,0.22344 -0.131,0.4269 -0.354,0.457c-0.10784,0.01601 -0.21762,-0.01159 -0.30507,-0.07671c-0.08745,-0.06511 -0.14536,-0.16238 -0.16093,-0.27029c-0.02658,-0.22269 0.1307,-0.4254 0.353,-0.455c0.22289,-0.02844 0.42868,0.12359 0.467,0.345M259.621,216.352c0.02396,0.21427 -0.12055,0.41107 -0.33218,0.45235c-0.21163,0.04128 -0.4195,-0.08678 -0.47782,-0.29435c-0.02396,-0.21427 0.12055,-0.41107 0.33218,-0.45235c0.21163,-0.04128 0.4195,0.08678 0.47782,0.29435M227.021,223.014c-0.01879,0.10717 -0.0794,0.20248 -0.16849,0.26494c-0.08909,0.06246 -0.19935,0.08695 -0.30651,0.06806c-0.10706,-0.0165 -0.20315,-0.07489 -0.26711,-0.1623c-0.06396,-0.08741 -0.09054,-0.19667 -0.07388,-0.3037c0.04253,-0.21999 0.25165,-0.36677 0.473,-0.332c0.228,0.04 0.381,0.246 0.343,0.465M233.129,224.27c-0.02662,0.22594 -0.23096,0.3878 -0.457,0.362c-0.22424,-0.02011 -0.39007,-0.21767 -0.371,-0.442c0.02515,-0.22486 0.22694,-0.38737 0.452,-0.364c0.22547,0.02066 0.39276,0.21821 0.376,0.444M239.584,224.647c-0.01186,0.22771 -0.20521,0.4032 -0.433,0.393c-0.22638,-0.00706 -0.40574,-0.19351 -0.404,-0.42c0.0155,-0.22662 0.20799,-0.40008 0.435,-0.392c0.226,0.01 0.408,0.196 0.402,0.42M221.578,221.453c-0.05514,0.21858 -0.27571,0.35226 -0.495,0.3c-0.10613,-0.02268 -0.19872,-0.08702 -0.257,-0.17857c-0.05828,-0.09155 -0.07737,-0.20266 -0.053,-0.30842c0.05462,-0.2173 0.27427,-0.34989 0.492,-0.297c0.10618,0.02179 0.19914,0.08535 0.258,0.17636c0.05886,0.09101 0.07868,0.20187 0.055,0.30764M245.014,224.62c0.00269,0.10875 -0.03796,0.21411 -0.11298,0.29288c-0.07502,0.07877 -0.17827,0.1245 -0.28702,0.12712c-0.22701,0.00854 -0.41909,-0.1662 -0.432,-0.393c0.00634,-0.2203 0.18302,-0.39764 0.4033,-0.40479c0.22028,-0.00715 0.40809,0.15836 0.4287,0.37779M251.47,224.189c0.01964,0.22526 -0.14678,0.4239 -0.372,0.444c-0.22654,0.02303 -0.43034,-0.13823 -0.46,-0.364c-0.01786,-0.2254 0.1497,-0.4229 0.375,-0.442c0.22539,-0.02356 0.42834,0.1372 0.457,0.362M258.038,222.947c0.01781,0.10753 -0.00824,0.21771 -0.07234,0.30587c-0.0641,0.08816 -0.16088,0.14692 -0.26866,0.16313c-0.2235,0.03698 -0.43536,-0.11213 -0.476,-0.335c-0.01572,-0.10716 0.0118,-0.21617 0.07651,-0.30302c0.06471,-0.08685 0.1613,-0.1444 0.26848,-0.15998c0.2206,-0.03538 0.42949,0.11066 0.472,0.33M263.623,221.04c0.02351,0.10557 0.00403,0.21616 -0.05413,0.30734c-0.05816,0.09118 -0.15023,0.15547 -0.25587,0.17866c-0.22087,0.05333 -0.44323,-0.08223 -0.497,-0.303c-0.0478,-0.21911 0.09021,-0.43574 0.309,-0.485c0.22048,-0.0494 0.44052,0.08449 0.498,0.303" fill="#9d87be"/><path d="M255.462,199.92c-9.052,0.811 -18.16,0.823 -27.214,0.04c-0.052,-0.591 -0.095,-1.2 -0.13,-1.817c9.159,0.807 18.368,0.79 27.52,-0.05c-0.042,0.617 -0.103,1.231 -0.176,1.827" fill="#46aad3"/><path d="M222.615,182.515c0.469,-0.445 0.605,-5.617 -1.365,-6.39c0.666,-0.312 1.378,-0.598 2.126,-0.868c1.943,0.653 1.815,2.655 1.815,3.798c0,1.392 -0.305,2.354 -0.699,3.023c-0.11138,-0.00185 -0.22246,0.01196 -0.33,0.041c-0.572,0.157 -1.097,0.29 -1.547,0.397M261.942,182.226c-0.862,-0.51 -4.297,0.736 -5.07,2.252l-0.5,-0.6l1.16,-2.596l3.651,-1.079c0.30009,0.65571 0.55372,1.33172 0.759,2.023" fill="#7bbfdb"/><path d="M252.625,172.769c-0.156,6.354 3.731,11.196 3.731,11.196c2.678,-2.179 5.434,-2.217 5.434,-2.217c2.228,-0.686 -1.687,-8.187 -4.692,-9.315c-2.699,-1.013 -4.473,0.336 -4.473,0.336M231.313,172.435c-0.253,4.903 -0.999,9.545 -3.74,11.48c-0.019,0.033 -0.086,0.05 -0.086,0.05c-2.072,0.244 -2.672,-1.268 -4.057,-1.663c-0.263,-3.735 -1.187,-6.611 -1.187,-6.611c1.026,-2.562 4.248,-4.339 6.132,-4.525c2.867,-0.287 2.938,1.27 2.938,1.27" fill="#7dcdf4"/><path d="M256.462,183.922c0,0 -0.039,-0.04 -0.096,-0.11c-0.03681,-0.04143 -0.07216,-0.08412 -0.106,-0.128c-0.044,-0.048 -0.08,-0.11 -0.132,-0.172c-0.046,-0.062 -0.1,-0.13 -0.15,-0.205c-0.051,-0.07 -0.105,-0.153 -0.16,-0.235c-0.06,-0.08 -0.11,-0.167 -0.165,-0.255c-0.054,-0.087 -0.11,-0.175 -0.165,-0.268c-0.056,-0.094 -0.105,-0.183 -0.16,-0.273c-0.05176,-0.08748 -0.10144,-0.17618 -0.149,-0.266c-0.09015,-0.15705 -0.17551,-0.31679 -0.256,-0.479c-0.075,-0.14 -0.135,-0.259 -0.177,-0.34l-0.065,-0.13c0,0 0.02,0.046 0.061,0.13c0.037,0.085 0.092,0.205 0.16,0.352c0.07,0.14 0.147,0.31 0.241,0.486c0.042,0.087 0.088,0.18 0.136,0.274c0.05,0.091 0.098,0.185 0.151,0.276c0.048,0.097 0.102,0.187 0.156,0.28c0.051,0.088 0.101,0.18 0.153,0.265c0.054,0.084 0.105,0.164 0.15,0.242c0.053,0.078 0.105,0.146 0.147,0.213c0.046,0.069 0.088,0.131 0.13,0.181l0.096,0.13c0.062,0.076 0.092,0.118 0.092,0.118zM227.528,184.018l0.119,-0.09c0.035,-0.028 0.08,-0.065 0.132,-0.103c0.027,-0.019 0.054,-0.038 0.083,-0.064c0.028,-0.025 0.06,-0.05 0.09,-0.079c0.06,-0.057 0.126,-0.116 0.195,-0.177c0.07,-0.064 0.134,-0.139 0.205,-0.211l0.108,-0.114c0.036,-0.037 0.067,-0.078 0.101,-0.118c0.071,-0.082 0.14,-0.166 0.211,-0.25c0.067,-0.084 0.13,-0.171 0.194,-0.255c0.063,-0.086 0.122,-0.174 0.18,-0.254c0.055,-0.085 0.113,-0.167 0.163,-0.245c0.046,-0.078 0.096,-0.155 0.138,-0.221l0.113,-0.189c0.036,-0.055 0.061,-0.105 0.086,-0.146c0.02459,-0.0429 0.04959,-0.08558 0.075,-0.128c0,0 -0.029,0.044 -0.079,0.126c-0.027,0.04 -0.06,0.085 -0.094,0.14c-0.032,0.058 -0.07,0.119 -0.12,0.187c-0.043,0.067 -0.096,0.137 -0.144,0.214c-0.052,0.078 -0.117,0.154 -0.175,0.234c-0.06,0.082 -0.116,0.166 -0.187,0.247c-0.06849,0.08172 -0.13583,0.1644 -0.202,0.248c-0.072,0.08 -0.147,0.16 -0.216,0.238c-0.037,0.038 -0.07,0.078 -0.108,0.114c-0.04,0.039 -0.07,0.073 -0.109,0.107c-0.075,0.07 -0.14,0.14 -0.209,0.2c-0.069,0.06 -0.138,0.113 -0.197,0.166l-0.088,0.072c-0.03,0.025 -0.06,0.04 -0.085,0.061c-0.053,0.038 -0.1,0.069 -0.138,0.097c-0.08,0.057 -0.122,0.084 -0.122,0.084zM231.376,172.438c0,0 -0.013,0.393 -0.053,0.978c-0.021,0.293 -0.044,0.634 -0.075,1c-0.02,0.182 -0.038,0.371 -0.057,0.562c-0.03618,0.38773 -0.08186,0.77451 -0.137,1.16c-0.02,0.192 -0.051,0.38 -0.078,0.56c-0.029,0.182 -0.061,0.356 -0.09,0.521c-0.029,0.166 -0.063,0.322 -0.094,0.467c-0.025,0.143 -0.063,0.272 -0.09,0.389c-0.01039,0.05469 -0.02375,0.10877 -0.04,0.162c-0.012,0.05 -0.03,0.095 -0.04,0.137c-0.05,0.162 -0.077,0.257 -0.077,0.257c0,0 0.025,-0.095 0.072,-0.261c0.01113,-0.04599 0.02347,-0.09167 0.037,-0.137c0.011,-0.048 0.023,-0.103 0.038,-0.16c0.023,-0.118 0.06,-0.248 0.08,-0.393c0.028,-0.144 0.058,-0.299 0.085,-0.466c0.021,-0.166 0.054,-0.34 0.077,-0.522c0.019,-0.183 0.05,-0.368 0.069,-0.56c0.019,-0.19 0.042,-0.385 0.057,-0.58c0.023,-0.194 0.037,-0.388 0.05,-0.578c0.02,-0.193 0.03,-0.385 0.042,-0.566c0.025,-0.366 0.044,-0.705 0.056,-0.998c0.027,-0.585 0.034,-0.977 0.034,-0.977zM252.694,172.776l-0.006,0.053c-0.002,0.038 -0.004,0.092 -0.011,0.16c-0.004,0.067 -0.01,0.15 -0.012,0.248c-0.004,0.095 -0.004,0.202 -0.004,0.32c0,0.118 0.004,0.246 0.006,0.38c0.006,0.134 0.01,0.277 0.021,0.424l0.012,0.223c0.005,0.076 0.015,0.154 0.023,0.23c0.01,0.156 0.028,0.31 0.046,0.465c0.019,0.156 0.046,0.314 0.063,0.468c0.025,0.153 0.055,0.303 0.08,0.448c0.027,0.147 0.062,0.286 0.087,0.42c0.024,0.132 0.055,0.254 0.086,0.369c0.029,0.114 0.052,0.22 0.078,0.314c0.03,0.093 0.05,0.173 0.067,0.238l0.062,0.208l-0.067,-0.206c-0.02356,-0.07978 -0.04857,-0.15912 -0.075,-0.238l-0.088,-0.31c-0.03,-0.115 -0.063,-0.239 -0.094,-0.37c-0.033,-0.134 -0.067,-0.27 -0.098,-0.415c-0.02826,-0.15021 -0.05759,-0.30022 -0.088,-0.45c-0.023,-0.152 -0.056,-0.307 -0.077,-0.463c-0.02,-0.158 -0.048,-0.314 -0.065,-0.47c-0.008,-0.076 -0.015,-0.155 -0.027,-0.229c-0.00736,-0.07557 -0.0137,-0.15125 -0.019,-0.227c-0.015,-0.148 -0.019,-0.289 -0.029,-0.426c-0.007,-0.135 -0.015,-0.263 -0.019,-0.383c-0.002,-0.118 -0.004,-0.227 -0.002,-0.324c-0.002,-0.095 0.002,-0.179 0.002,-0.25c0.004,-0.07 0.01,-0.123 0.01,-0.161c0.00074,-0.01911 0.00275,-0.03816 0.006,-0.057z" fill="#44a6cc"/><path d="M241.958,174.425c-2.976,3.447 -6.838,1.234 -7.611,-3.075c1.294,-0.375 2.465,-0.588 3.548,-0.623c0.08,-0.001 0.174,-0.005 0.28,-0.011z" fill="#eeeeed"/><path d="M249.549,171.454c-0.822,4.249 -4.621,6.649 -7.592,2.971l3.708,-3.632l0.13,0.001c1.27446,0.06099 2.53612,0.28275 3.755,0.66" fill="#eeeeed"/><path d="M241.88428,174.68872c-4.05,0 -5.673,-2.41 -5.463,-3.593c0.418,-0.059 0.821,-0.095 1.213,-0.106c1.007,-0.033 4.025,-0.219 4.025,-0.219c0,0 2.902,0.265 3.874,0.285c0.54039,0.0272 1.07908,0.08159 1.614,0.163c0.36,1.205 -1.202,3.47 -5.263,3.47" data-paper-data="{&quot;origPos&quot;:null}" fill="#795b4f"/><path d="M239.957,172.208c-1.093,0 -1.98,-2.293 -1.98,-3.393h7.793c0,1.099 -0.888,3.393 -1.98,3.393h-3.833" data-paper-data="{&quot;origPos&quot;:null}" fill="#795b4f"/><path d="M238.796,171.34c-0.456,-0.629 -0.761,-1.582 -0.805,-2.282c1.2559,0.20506 2.52647,0.30706 3.799,0.305c1.32952,0.00015 2.65677,-0.11024 3.968,-0.33l-0.01,0.014l-6.952,2.293" fill="#eeac6c"/><path d="M265.15,149.681c1.204,0.764 1.995,2.074 1.995,3.56c0,2.362 -2.007,4.278 -4.477,4.278c-0.075,0 -0.143,-0.002 -0.213,-0.004c-4.005,7.133 -11.675,11.959 -20.485,11.959c-8.49781,0.01367 -16.33865,-4.56912 -20.497,-11.98c-0.159,0.013 -0.326,0.025 -0.492,0.025c-2.475,0 -4.478,-1.916 -4.478,-4.278c0,-1.595 0.915,-2.983 2.266,-3.718c-0.157,-1.094 -0.244,-2.212 -0.244,-3.345c0,-12.869 10.5,-23.297 23.445,-23.297c12.947,0 23.443,10.428 23.443,23.297c0,1.188 -0.086,2.36 -0.263,3.502" data-paper-data="{&quot;origPos&quot;:null}" fill="#795b4f"/><path d="M217.698,143.372c0.019,-1.211 0.105,-2.69 0.28,-4.259c3.133,-10.2 12.68,-17.62 23.966,-17.62c9.49029,-0.0145 18.17531,5.33089 22.438,13.81c1.135,3.218 1.83,6.385 1.89,7.81c0.2,4.958 -1.244,6.6 -1.244,6.6c0,0 -4.203,-5.779 -9.179,-9.25c-3.906,-2.727 -7.381,2.543 -12.023,-1.97c-0.412,-0.403 -1.965,-1.959 -1.965,-1.959c0,0 -1.274,1.423 -1.96,1.958c-4.125,3.24 -6.431,-0.44 -11.048,2.057c-3.776,2.042 -9.585,8.816 -10.084,8.974c-0.3,-1.01 -1.102,-3.936 -1.071,-6.15" data-paper-data="{&quot;origPos&quot;:null}" fill="#332115"/><path d="M242.16,125.249c6.04,0 15.626,3.731 17.781,10.105c-3.228,-3.478 -11.134,-6.642 -17.78,-6.642c-6.616,0 -14.555,3.164 -17.78,6.642c2.671,-6.455 11.751,-10.105 17.781,-10.105" fill="#5cb24f"/><path d="M248.306,123.281c1.736,0.55 1.833,6.146 0.376,7.236c-1.131,0.844 -4.69,-1.099 -6.124,-1.943c-0.131,0.236 -0.339,0.383 -0.571,0.383c-0.236,0 -0.448,-0.156 -0.583,-0.402c-1.406,0.829 -5.021,2.812 -6.158,1.962c-1.454,-1.089 -1.357,-6.686 0.376,-7.236c1.47,-0.468 4.41,2.667 5.704,4.162c0.124,-0.339 0.371,-0.573 0.661,-0.573c0.279,0 0.521,0.215 0.649,0.537c1.312,-1.515 4.214,-4.591 5.67,-4.126" fill="#3a9936"/><path d="M237.311,144.65c0,0 -0.503,1.803 -2.082,1.446c-0.772,-0.174 -0.908,-1.201 -3.386,-0.74c-0.779,0.18 -2.417,1.156 -2.732,1.808c-0.316,0.652 -0.088,-2.392 2.457,-3.522c1.835,-0.675 2.457,-0.642 3.977,-0.642c1.52,0 1.987,0.907 1.766,1.65M247.052,144.65c0,0 0.503,1.803 2.082,1.446c0.772,-0.174 0.908,-1.201 3.386,-0.74c0.779,0.18 2.417,1.156 2.732,1.808c0.316,0.652 0.087,-2.392 -2.457,-3.522c-1.835,-0.675 -2.457,-0.642 -3.977,-0.642c-1.52,0 -1.987,0.907 -1.766,1.65" data-paper-data="{&quot;origPos&quot;:null}" fill="#332115"/><path d="M235.26072,152c0,1.657 -0.895,3 -2,3c-1.105,0 -2,-1.343 -2,-3c0,-1.657 0.895,-3 2,-3c1.105,0 2,1.343 2,3M253.26072,152c0,1.657 -0.895,3 -2,3c-1.105,0 -2,-1.343 -2,-3c0,-1.657 0.895,-3 2,-3c1.105,0 2,1.343 2,3" data-paper-data="{&quot;origPos&quot;:null}" fill="#332115"/><path d="M242.02,155.069c-1.125,0.153 -3.02,1.834 -3.02,1.834c0,0 0.207,-1.009 0.503,-1.299c0.8,-1.156 2.487,-1.604 2.487,-1.604c0,0 2.173,0.703 2.65,1.588c0.443,0.824 0.34,1.238 0.34,1.238c0,0 -2.121,-1.871 -2.96,-1.756z" fill="#eeac6c"/><path d="M235.2,158.696c0,0 6.897,3.208 13.172,-0.397c0,0 -1.39,5.47 -5.95,5.561c-4.115,0.122 -4.984,-1.492 -5.477,-1.956c-0.492,-0.463 -1.42,-1.772 -1.745,-3.208" fill="#eeac6c"/></g></g></svg>