<svg xmlns="http://www.w3.org/2000/svg" width="120" height="120"><g fill="none" fill-rule="evenodd"><path fill="#11897D" d="m62.838 21.437-2.504 33.169-2.504-33.17zm-8.264 13.397 5.467 23.35-8.91-22.265z"/><path fill="#00AEEF" d="m49.567 18.911 1.678 11.328-5.121-10.243zm22.753.506-7.601 24.048 2.716-25.076z"/><path fill="#11897D" d="m71.149.967-.773 15.816 5.659-14.789zm-36.53 30.087 21.678 25.224L31.08 34.594zm3.628 15.318L58.62 59.017l-22.04-9.443z"/><path fill="#00AEEF" d="m23.45 38.655 9.195 6.822-10.862-3.62zm16.447-15.738 11.625 22.384-15.806-19.654zM30.205 7.971l6.455 14.46L26.025 10.7zm-8.741 49.842 33.16 2.504-33.16 2.504z"/><path fill="#11897D" d="m34.858 66.078 23.344-5.468-22.259 8.914z"/><path fill="#00AEEF" d="m18.939 71.086 11.325-1.679-10.239 5.125z"/><path fill="#11897D" d="m19.445 48.326 24.043 7.607-25.07-2.72zM1 49.5l15.812.77-14.786-5.657z"/><path fill="#00AEEF" d="m31.08 86.039 25.218-21.683-21.679 25.223z"/><path fill="#11897D" d="m46.393 82.411 12.64-20.382-9.438 22.05z"/><path fill="#00AEEF" d="m38.677 97.212 6.822-9.2-3.62 10.867z"/><path fill="#11897D" d="m22.945 80.76 22.377-11.63-19.647 15.81zM8.003 90.453l14.456-6.456-11.727 10.638zm49.828 8.743 2.504-33.168 2.501 33.17zM66.095 85.8l-5.469-23.353 8.912 22.269z"/><path fill="#00AEEF" d="m71.102 101.722-1.679-11.329 5.122 10.245z"/><path fill="#11897D" d="m48.349 101.218 7.602-24.052-2.717 25.078z"/><path fill="#00AEEF" d="m44.635 118.643 4.886 1.024.77-15.816zM86.049 89.58 64.37 64.353 89.589 86.04z"/><path fill="#11897D" d="M82.421 74.262 62.047 61.616 84.09 71.06z"/><path fill="#00AEEF" d="m97.218 81.98-9.194-6.824 10.862 3.62z"/><path fill="#11897D" d="m80.773 97.714-11.627-22.38 15.806 19.652zm9.691 14.946-6.456-14.459 10.635 11.731z"/><path fill="#00AEEF" d="m99.203 62.82-33.16-2.503 33.16-2.504z"/><path fill="#11897D" d="m85.81 54.556-23.345 5.469 22.261-8.914z"/><path fill="#00AEEF" d="m101.73 49.546-11.326 1.679 10.24-5.122z"/><path fill="#11897D" d="M101.224 72.305 77.18 64.702l25.07 2.716zm17.419 3.715 1.024-4.889-15.811-.769z"/><path fill="#00AEEF" d="M89.588 34.595 64.37 56.278l21.68-25.223z"/><path fill="#11897D" d="m74.275 38.223-12.641 20.38 9.44-22.05zm7.717-14.8-6.823 9.197 3.62-10.864zm15.731 16.452L75.346 51.503l19.648-15.81z"/><path fill="#00AEEF" d="m112.665 30.178-14.455 6.46 11.725-10.64z"/></g></svg>