<svg xmlns="http://www.w3.org/2000/svg" width="86.351" height="118.781"><g fill-rule="evenodd" stroke-miterlimit="10" data-paper-data="{&quot;isPaintingLayer&quot;:true}" style="mix-blend-mode:normal"><path fill="#add8e3" d="M41.165 67.105c8.382.617 16.243-1.011 22.625-4.231 2.609 7.763 4.133 16.047 4.133 22.829 0 18.412-11.21 18.13-25.034 18.13-13.824 0-25.03.282-25.03-18.131 0-7.17 1.699-16.024 4.59-24.16 5.326 3.04 11.732 5.047 18.716 5.563"/><path fill="#94c7d4" d="M21.33 85.732a44.716 44.716 0 0 1 3.396-2.26s11.78-.523 19.95 18.025c0 0-6.056 2.767-14.808 3.875-5.99.759-11.59-1.266-13.036-7.144-1.155-4.697.605-9.647 4.498-12.496"/><path fill="#94c7d4" d="M18.135 89.602c15.793 1.27 13.633 15.494 13.633 15.494-4.652 6.49-9.017 7.666-13.1 8.31-3.054.484-9.621-1.206-9.241-4.286 1.134-9.205 8.708-19.518 8.708-19.518m49.386 4.97c2.98 3.803 3.926 6.627 1.545 10.83-2.98 5.266-8.92 5.69-14.48 3.328-6.373-2.707-10.193-10.685-11.543-13.995a2.46 2.46 0 0 1 .589-2.712c4.989-4.744 11.133-2.886 15.939-2.186 2.595.38 6.2 2.517 7.83 4.578.038.053.082.106.12.158"/><path fill="#94c7d4" d="M68.228 95.515s5.396 6.106 6.53 15.312c.38 3.078-6.186 4.767-9.242 4.284-4.081-.644-6.418-1.571-12.371-7.108 0 0-.71-11.218 15.083-12.488"/><path fill="#add8e3" d="M42.889 83.845c9.59 0 18.31-.365 24.82-2.735a53.13 53.13 0 0 1 .213 4.59c0 18.416-11.21 18.133-25.033 18.133-13.824 0-25.03.283-25.03-18.132.005-1.533.074-3.064.209-4.591 6.509 2.37 15.229 2.735 24.82 2.735"/><path fill="#94c7d4" d="M24.904 82.953c-.738 4.222-.318 8.62-.318 8.62l-5.237 3.653c-.962-2.428-1.49-5.537-1.49-9.524 0-7.228 1.726-16.162 4.658-24.355 2.836 1.32 5.78 4.094 6.105 9.912 0 0-2.012 1.944-3.718 11.694"/><path fill="#cceff7" d="M52.11 81.11c0 5.109-4.13 9.252-9.222 9.252-5.09 0-9.22-4.143-9.22-9.252 0-5.107 4.13-9.25 9.22-9.25 5.093 0 9.222 4.143 9.222 9.25"/><path fill="#94c7d4" d="M60.419 93.79s-.061-5.16-.605-9.41c-1.26-9.817-3.177-11.857-3.177-11.857.625-6.161 4.05-8.748 7.094-9.826 2.647 7.812 4.192 16.172 4.192 23.004 0 4.972-.827 8.57-2.29 11.188z"/><path fill="#94c7d4" d="M42.889 99.326c12.998 0 23.679-1.411 24.908-16.886.073 1.114.125 2.212.125 3.262 0 18.412-11.21 18.132-25.033 18.132-13.824 0-25.03.28-25.03-18.132a52.57 52.57 0 0 1 .118-3.262c1.232 15.476 11.913 16.886 24.912 16.886"/><path fill="#7eb4c2" d="M48.017 101.519c.825.758 1.67 1.494 2.534 2.207-2.416.116-4.99.108-7.663.108-4.235 0-8.226.024-11.721-.47a26.308 26.308 0 0 0 1.772-2.085c3.05.28 6.415.268 9.949.268 1.76 0 3.476.003 5.129-.028"/><path fill="#7eb4c2" d="M74.758 110.827c.379 3.078-6.186 4.767-9.242 4.284-4.081-.644-6.418-1.571-12.371-7.107v-.01c-2.674-1.551-4.83-4.001-6.491-6.457.458-.005.91-.012 1.36-.022 2.4 2.196 4.202 3.605 5.787 4.543 5.47 4.995 7.788 5.889 11.715 6.508 2.637.418 7.889-.788 9.029-3.104.082.453.153.908.213 1.365"/><path fill="#788d91" d="M67.136 118.365c-3.851-.743-3.935-6.443-.088-7.255.17-.037.35-.068.534-.1 5.924-.911 9.713-5.487 13.06-4.536 3.347.952 7.522 9.723-2.603 11.674-4.752.915-8.385.702-10.903.217"/><path fill="#7eb4c2" d="m42.889 101.546 1.678-.001c-.74.325-5.696 2.417-12.798 3.55-4.652 6.492-9.02 7.667-13.1 8.31-3.056.485-9.622-1.205-9.242-4.285.069-.57.172-1.144.287-1.72 1.295 2.217 6.375 3.36 8.955 2.952 3.268-.515 6.72-1.378 10.353-5.03 1.117-.872 2.25-1.984 3.405-3.395a62.613 62.613 0 0 0 2.606-.5c2.47.127 5.109.12 7.856.12"/><path fill="#788d91" d="M18.799 116.304c-2.533.393-6.172.47-10.887-.623-10.044-2.332-5.543-10.94-2.162-11.765 3.378-.825 6.994 3.892 12.88 5.025.177.035.354.075.53.12 3.815.956 3.514 6.645-.36 7.243"/><path fill="#add8e3" d="M56.683 72.86c-1.09-11.492 9.777-12.724 9.777-12.724 9.939 7.706 8.134 25.32 8.134 25.32-.737 5.273-3.177 10.01-3.177 10.01l-7.707-3.127s-.243-4.414-1.605-8.474c-3.143-9.383-5.422-11.005-5.422-11.005"/><path fill="#ffc2a6" d="M63.974 93.205c.794.49 1.043 1.53.558 2.328a1.686 1.686 0 0 1-2.318.56l-1.217-.744a1.701 1.701 0 0 1-.56-2.327 1.69 1.69 0 0 1 2.32-.564l1.217.747"/><path fill="#e7c8a0" d="M71.994 96.424c-.08 3.205-2.737 5.74-5.932 5.66-3.195-.082-5.723-2.745-5.641-5.952.08-3.207 2.735-5.741 5.932-5.66 3.196.079 5.723 2.744 5.64 5.952" data-paper-data="{&quot;origPos&quot;:null}"/><path fill="#94c7d4" d="M67.737 64.614c-1.541-1.678-3.976-2.213-6.087-1.371-1.095.438-2.312 1.07-3.441 1.977 2.789-4.46 8.25-5.083 8.25-5.083 7.438 5.763 8.3 17.07 8.263 22.402v.075c0 .16-.003.315-.006.468-.004.053-.004.11-.004.163v.002c-.46-5.587-2.053-13.264-6.975-18.633"/><path fill="#add8e3" d="M28.86 70.755S26.468 72.2 22.636 81.32c-1.66 3.948-2.23 8.333-2.23 8.333l-8.563 3.454s-1.436-5.82-1.78-11.132c0 0-.493-17.7 9.997-24.64 0 0 10.744 2.04 8.802 13.419"/><path fill="#ffc2a6" d="m20.08 90.499 1.268-.655a1.692 1.692 0 0 1 2.272.736 1.7 1.7 0 0 1-.733 2.278l-1.266.652a1.69 1.69 0 0 1-1.541-3.011"/><path fill="#e7c8a0" d="M11.842 93.107c.158-3.205 2.877-5.67 6.068-5.513 3.196.157 5.657 2.884 5.495 6.088-.157 3.205-2.873 5.672-6.068 5.513-3.196-.158-5.654-2.884-5.495-6.088" data-paper-data="{&quot;origPos&quot;:null}"/><path fill="#94c7d4" d="M18.45 61.705c-5.307 4.986-7.464 12.523-8.338 18.06v-.003c.004-.052.006-.11.006-.165.013-.148.02-.303.03-.465l.003-.075c.362-5.32 2.063-16.53 9.908-21.723 0 0 5.398 1.03 7.85 5.687-1.06-.99-2.225-1.71-3.283-2.23-2.046-.998-4.516-.645-6.176.915"/><path fill="#c7ac89" d="M14.448 37.542c-.293 3.996-3.76 6.998-7.743 6.703-3.985-.293-6.977-3.77-6.685-7.767.294-3.995 3.76-6.996 7.743-6.702 3.985.293 6.976 3.77 6.685 7.766" data-paper-data="{&quot;origPos&quot;:null}"/><path fill="#cf967e" d="M11.62 37.334a4.404 4.404 0 0 1-4.71 4.077 4.405 4.405 0 0 1-4.061-4.724 4.4 4.4 0 0 1 4.709-4.077 4.407 4.407 0 0 1 4.062 4.724"/><path fill="#c7ac89" d="M86.33 42.84c-.29 3.996-3.755 6.996-7.74 6.703-3.983-.293-6.976-3.77-6.684-7.766.294-3.997 3.76-6.997 7.743-6.704 3.985.294 6.976 3.77 6.682 7.767" data-paper-data="{&quot;origPos&quot;:null}"/><path fill="#cf967e" d="M83.506 42.63a4.405 4.405 0 0 1-4.71 4.078 4.406 4.406 0 0 1-4.061-4.723 4.397 4.397 0 0 1 8.77.646"/><path fill="#d66c00" d="M33.507 16.378s11.922-2.202 10.96-7.957c-.961-5.755 7.546-3.034 5.149 3.379 0 0 3.387-2.79 3.053-7.875-.334-5.085 5.45-5.233 6.38-.42.932 4.812-3.356 10.42-3.356 10.42s3.19-.054 4.87-4.176c1.679-4.12 6.187-1.75 2.507 4.38-3.678 6.128-15.09 9.79-15.09 9.79l-14.473-7.54z"/><path fill="#ba5e00" d="M33.507 16.378s9.178-1.697 10.778-6.003c.46.022.925.04 1.393.076 1.404.106 2.803.274 4.193.504a7.179 7.179 0 0 1-.255.846s.316-.262.739-.762c2.114.366 4.199.882 6.24 1.543-.513.833-.901 1.343-.901 1.343s1.086-.025 2.324-.857a42 42 0 0 1 4.47 1.92C58.32 20.597 47.98 23.92 47.98 23.92z"/><path fill="#e7c8a0" d="M79.119 42.308c-1.108 15.157-18.103 26.26-37.954 24.798C21.315 65.64 6.123 52.168 7.233 37.01c1.11-15.16 18.103-26.26 37.953-24.796 19.85 1.46 35.044 14.936 33.933 30.092" data-paper-data="{&quot;origPos&quot;:null}"/><path fill="#94c7d4" d="M67.29 60.856a16.97 16.97 0 0 1 1.548 1.556c-7.006 5.23-16.917 8.133-27.672 7.34-9.696-.714-18.27-4.3-24.388-9.54.457-.516.945-1.006 1.46-1.466 5.986 4.594 13.983 7.699 22.928 8.36 9.984.732 19.243-1.712 26.124-6.25"/><path fill="#e3ac94" d="M46.912 45.686c1.487-.673 4.315.764 3.836 3.597-.404 2.397-3.046 3.223-5.256 3.493a4.07 4.07 0 0 1-2.773 1.09 4.092 4.092 0 0 1-3.15-1.481c-2.194-.562-4.88-1.767-4.933-4.29-.06-2.873 2.946-3.88 4.32-2.995.592.385 1.214.722 1.86 1.009a4.079 4.079 0 0 1 4.243.266 13.561 13.561 0 0 0 1.853-.69"/><path fill="#e8d5bb" d="M47.704 58.11c-.118 1.634-2.673 2.775-5.707 2.552-3.031-.224-5.393-1.728-5.27-3.362.118-1.631 2.672-2.774 5.706-2.55 3.033.224 5.39 1.73 5.27 3.36m3.464-41.845c.155 1.942-5.668 3.996-13.01 4.59-7.34.592-13.417-.5-13.574-2.443-.155-1.941 5.67-3.995 13.012-4.59 7.339-.591 13.416.5 13.572 2.443" data-paper-data="{&quot;origPos&quot;:null}"/><path fill="none" stroke="#a37c6b" stroke-linecap="round" stroke-linejoin="round" stroke-width="1.253" d="M67.446 38.565c.309-4.233-3.414-7.956-8.315-8.318-3.232-.238-6.165 1.045-7.88 3.156m-31.408 1.654c.31-4.234 4.534-7.37 9.434-7.01 3.23.238 5.947 1.936 7.337 4.279"/><path fill="#cceff7" d="M34.636 47.2c-.061-2.873 2.945-3.878 4.32-2.995 1.544.995 2.947 1.522 3.88 1.59.939.07 2.404-.246 4.076-1.003 1.486-.674 4.316.763 3.836 3.596-.713 4.219-8.36 3.579-8.36 3.579s-7.661-.486-7.752-4.766"/><path fill="#91cad9" d="M46.82 48.858a4.11 4.11 0 0 1-4.102 4.115 4.106 4.106 0 0 1-4.098-4.115 4.106 4.106 0 0 1 4.098-4.114 4.11 4.11 0 0 1 4.103 4.114"/><path fill="none" stroke="#788d91" stroke-linecap="round" stroke-linejoin="round" stroke-width="1.41" d="M45.055 48.156a2.34 2.34 0 0 1-2.336 2.344 2.34 2.34 0 0 1-2.337-2.344"/><path fill="#e3ac94" d="M43.623 37.068c4.934.363 3.493 3.17 3.493 3.17s.279-1.903-3.563-2.187c-3.842-.282-3.845 1.642-3.845 1.642s-1.015-2.988 3.915-2.625"/><path fill="#e3ac94" d="M41.217 39.046c.294-.22.646-.245.789-.055.14.19.019.522-.276.742-.294.22-.647.245-.79.056-.14-.192-.017-.522.277-.743m4.5.332c.258.26.33.607.163.776-.166.165-.51.09-.771-.172-.257-.26-.33-.608-.162-.775.166-.166.512-.09.77.17"/><path fill="#ffa6a6" d="M15.244 36.892c2.87.212 5.06 2.266 4.89 4.588-.17 2.322-2.634 4.034-5.506 3.822-2.872-.212-5.062-2.266-4.892-4.588.169-2.322 2.637-4.034 5.507-3.822m56.485 4.164c2.87.21 5.06 2.266 4.89 4.586-.173 2.323-2.636 4.035-5.506 3.823-2.875-.212-5.065-2.266-4.895-4.59.169-2.32 2.636-4.031 5.51-3.82"/></g></svg>