<svg version="1.1" xmlns="http://www.w3.org/2000/svg" xmlns:xlink="http://www.w3.org/1999/xlink" width="70.63214" height="115.93195" viewBox="0,0,70.63214,115.93195"><g transform="translate(-204,-121.5751)"><g data-paper-data="{&quot;isPaintingLayer&quot;:true}" fill-rule="evenodd" stroke="none" stroke-width="1" stroke-linecap="butt" stroke-linejoin="miter" stroke-miterlimit="10" stroke-dasharray="" stroke-dashoffset="0" style="mix-blend-mode: normal"><path d="M250.554,231.434c0.061,0.248 -0.019,0.519 -0.187,0.788c-0.554,0.882 -1.531,1.524 -2.352,2.114c-1.28,0.894 -2.904,1.385 -4.32,2.078c-1.277,0.555 -2.96,1.592 -4.122,0.309c-1.541,-1.828 -0.266,-4.091 1.51,-5.215h-0.013l-0.543,-11.487l9.937,-0.079l0.09,11.492M261.32,231.346c1.786,1.085 3.091,3.338 1.586,5.19c-1.136,1.303 -2.837,0.29 -4.129,-0.24c-1.43,-0.672 -3.057,-1.136 -4.347,-2.01c-0.837,-0.578 -1.814,-1.205 -2.386,-2.078c-0.175,-0.267 -0.257,-0.527 -0.2,-0.787l-0.09,-11.49l9.932,-0.08l-0.36,11.496h-0.006" data-paper-data="{&quot;origPos&quot;:null}" fill="#7a5e50"/><path d="M263.247,205.268c0,0 -1.33,10.255 -1.56,14.62l-9.934,0.08c0.047,-1.71 -0.564,-7.453 -0.564,-7.453l-0.286,0.003c0,0 -0.491,6.141 -0.44,7.46l-9.936,0.077c-0.269,-5.118 -1.792,-14.588 -1.792,-14.588l9.348,-0.08l2.907,-0.02l3.162,-0.027z" fill="#333433"/><path d="M250.53,231.414h0.023c0.062,0.251 -0.017,0.53 -0.185,0.8c-0.556,0.878 -1.533,1.532 -2.354,2.122c-0.133,0.097 -0.271,0.185 -0.411,0.265l-7.365,0.062l-0.02,-2.48c0.26199,-0.26197 0.55169,-0.49467 0.864,-0.694h-0.012l-0.186,-3.863l9.616,-0.076z" fill="#eeeeed"/><path d="M250.501,227.995l0.002,0.192l-9.59,0.075l-0.006,-0.192zM250.505,228.377v0.192l-9.568,0.074l-0.01,-0.19z" fill="#61c6f1"/><path d="M262.876,232.789l0.015,1.69l-8.044,0.066c-0.144,-0.08 -0.283,-0.176 -0.415,-0.258c-0.839,-0.587 -1.817,-1.217 -2.388,-2.087c-0.175,-0.267 -0.26,-0.542 -0.2,-0.797h0.012l-0.031,-3.863l9.624,-0.079l-0.124,3.867h-0.006c0.6097,0.38071 1.13871,0.87744 1.557,1.462z" fill="#eeeeed"/><path d="M251.827,227.984l9.605,-0.079l-0.006,0.193l-9.596,0.076zM251.831,228.367l9.589,-0.08l-0.004,0.193l-9.585,0.077z" fill="#61c6f1"/><path d="M241.092,231.49c0,0 1.833,-1.174 5.98,-0.048c1.67,0.176 2.176,-1.382 2.96,-1.734c0.391,-0.176 0.508,-0.005 0.508,-0.005l0.015,1.712c0.059,0.251 -0.018,0.53 -0.188,0.8c-0.555,0.875 -1.53,1.529 -2.353,2.122c-1.28,0.894 -2.903,1.38 -4.318,2.072c-1.277,0.559 -2.962,1.59 -4.125,0.3c-1.538,-1.824 -0.263,-4.066 1.51,-5.219h-0.012v-0.008l0.023,0.008" fill="#e63744"/><path d="M250.24,232.4c-0.563,0.784 -1.458,1.383 -2.225,1.938c-0.539,0.374 -1.134,0.679 -1.757,0.952l-0.168,-0.34c1.836,-0.553 3.94,-2.743 3.94,-2.743l0.21,0.193" fill="#333433"/><path d="M241.031,232.672c2.436,-0.02 4.569,0.943 5.725,2.39c-0.999,0.49 -2.079,0.869 -3.061,1.348c-1.277,0.558 -2.962,1.587 -4.124,0.3c-1.068,-1.269 -0.775,-2.739 0.095,-3.907c0.004,-0.006 0.008,-0.006 0.01,-0.016c0.438,-0.073 0.895,-0.112 1.355,-0.114" fill="#9b1d2b"/><path d="M250.488,229.895c-0.398,0.002 -0.718,0.745 -0.712,1.664c0.006,0.452 0.086,0.851 0.216,1.153c0.136,-0.157 0.265,-0.322 0.374,-0.498c0.169,-0.27 0.25,-0.549 0.187,-0.8l-0.012,-1.519zM261.307,231.328l0.019,-0.008v0.008h-0.006c1.785,1.122 3.092,3.344 1.586,5.196c-1.136,1.305 -2.839,0.303 -4.129,-0.236c-1.43,-0.668 -3.057,-1.128 -4.347,-2.001c-0.837,-0.582 -1.816,-1.218 -2.386,-2.087c-0.175,-0.267 -0.263,-0.542 -0.201,-0.797l-0.013,-1.71c0,0 0.111,-0.176 0.512,-0.004c0.782,0.34 1.31,1.89 2.985,1.685c4.123,-1.193 5.98,-0.046 5.98,-0.046" fill="#e63744"/><path d="M252.17,232.384l0.2,-0.193c0,0 2.144,2.153 3.987,2.677l-0.164,0.342c-0.624,-0.265 -1.222,-0.555 -1.761,-0.924c-0.778,-0.544 -1.681,-1.126 -2.261,-1.902" fill="#333433"/><path d="M261.382,232.511c0.45369,-0.00536 0.90709,0.02507 1.356,0.091c0.004,0.008 0.012,0.008 0.012,0.019c0.893,1.149 1.207,2.614 0.156,3.902c-1.137,1.304 -2.839,0.304 -4.13,-0.234c-0.988,-0.462 -2.072,-0.826 -3.078,-1.298c1.125,-1.466 3.248,-2.461 5.684,-2.48" fill="#9b1d2b"/><path d="M251.882,229.885c0.397,-0.006 0.728,0.733 0.732,1.652c0.004,0.453 -0.064,0.85 -0.185,1.155c-0.14271,-0.15259 -0.27155,-0.31757 -0.385,-0.493c-0.175,-0.267 -0.263,-0.542 -0.201,-0.797l-0.01,-1.517z" fill="#e63744"/><path d="M273.998,198.914c0.263,2.344 -0.833,4.383 -2.45,4.567c-1.057,0.122 -2.072,-0.579 -2.724,-1.729c-0.596,0.5 -1.185,0.704 -1.615,0.48c-0.798,-0.418 -0.711,-2.165 0.18,-3.9c0.30845,-0.60511 0.70624,-1.16033 1.18,-1.647c0.035,-0.071 0.068,-0.144 0.107,-0.214c0,0 -1.652,-10.084 -3.347,-12.46c-0.854,-1.19 -1.92,-2.128 -2.11,-2.66v-0.002c1.384,9.997 0.026,23.918 0.026,23.918l-24.51,0.199c0,0 -1.833,-15.312 -0.28,-25.372v0.015c0,0 -8.679,3.587 -11.068,2.736c-2.956,-1.054 -6.414,-10.684 -6.414,-10.684c-1.274,-0.445 -2.51,-1.654 -3.234,-3.331c-1.123,-2.618 -0.568,-5.376 1.239,-6.167c1.18,-0.514 2.61,-0.056 3.766,1.046c0.519,-0.793 1.132,-1.24 1.702,-1.132c1.071,0.2 1.588,2.252 1.158,4.58c-0.165,0.89 -0.445,1.692 -0.788,2.33c-0.046,0.296 -0.107,0.573 -0.196,0.833l5.472,6.36l11.405,-4.218c1.3,-0.925 4.178,-1.368 5.917,-1.546c-0.295,-0.652 -0.48,-1.352 -0.486,-1.867l7.483,-0.06c0.005,0.515 -0.17,1.231 -0.46,1.89c1.774,0.149 4.624,0.546 5.894,1.455c0.673,0.352 6.418,3.397 8.093,5.515c3.651,4.617 5.147,18.599 5.147,18.599l-0.002,-0.063c0.462,0.673 0.802,1.547 0.915,2.528" data-paper-data="{&quot;origPos&quot;:null}" fill="#7a5e50"/><path d="M267.937,177.85c1.251,1.581 1.884,2.985 2.656,5.823c-1.804,0.153 -2.528,0.802 -4.618,1.582c0,0 -0.435,-0.942 -0.647,-1.245c-0.853,-1.192 -1.915,-2.12 -2.11,-2.654c0.037,0.309 0.08,0.613 0.115,0.926c0.01036,0.06874 0.0187,0.13777 0.025,0.207c0.004,0.008 0.004,0.018 0.004,0.025c0.002,0.062 0.014,0.126 0.021,0.188v0.004c-0.00034,0.01621 0.00168,0.03238 0.006,0.048c0.006,0.058 0.008,0.118 0.018,0.174v0.012c0,0.019 0.004,0.033 0.006,0.05c0.00846,0.05473 0.0148,0.10978 0.019,0.165c0.002,0.025 0.002,0.052 0.008,0.075c0.004,0.056 0.01,0.108 0.012,0.17c0.005,0.02 0.013,0.043 0.013,0.068c0.002,0.052 0.008,0.106 0.012,0.157c0.0075,0.02837 0.01087,0.05767 0.01,0.087l0.015,0.152c0.00089,0.03022 0.00423,0.06032 0.01,0.09c0.00377,0.05535 0.00777,0.11068 0.012,0.166c0.003,0.025 0.007,0.052 0.007,0.07c0.004,0.06 0.006,0.11 0.012,0.172c0.008,0.009 0.008,0.021 0.008,0.033c0,0.017 0,0.029 0.004,0.046c0.00295,0.0555 0.00795,0.11087 0.015,0.166c0,0.024 0,0.051 0.004,0.076c0.004,0.054 0.01,0.11 0.01,0.168c0.004,0.018 0.004,0.029 0.004,0.041c0.002,0.013 0.002,0.027 0.002,0.035c0.009,0.06 0.009,0.114 0.013,0.166c0.002,0.027 0.002,0.049 0.002,0.079c0.00747,0.05778 0.01281,0.11582 0.016,0.174v0.02c0.002,0.019 0.002,0.04 0.002,0.056c0.006,0.054 0.015,0.114 0.015,0.164c0.004,0.029 0.004,0.054 0.006,0.074c0,0.056 0.008,0.116 0.012,0.174v0.027c0,0.01 0.006,0.029 0.006,0.048c0.002,0.06 0.002,0.116 0.009,0.174c0,0.027 0.006,0.047 0.006,0.07c0.002,0.06 0.002,0.118 0.008,0.18c0,0.023 0.006,0.048 0.006,0.075c0,0.056 0.004,0.111 0.006,0.17c0,0.022 0.003,0.04 0.003,0.07c0.005,0.058 0.005,0.12 0.01,0.178c0,0.01 0.004,0.023 0.004,0.037v0.033c0.00188,0.06012 0.00589,0.12016 0.012,0.18v0.054c0.006,0.073 0.008,0.131 0.008,0.203v0.043c0.006,0.069 0.013,0.137 0.013,0.203v0.044c0.006,0.062 0.01,0.203 0.01,0.203c0.026,0.103 0.105,3.283 0.086,3.707c-0.004,0.062 0,0.118 0.002,0.174l0.002,0.054v0.018c0,0.06 -0.002,0.115 0,0.17c0,0.027 -0.004,0.053 -0.004,0.083c0,0.046 0,0.093 -0.004,0.143l0.002,0.108v0.143l0.002,0.093v0.128c-0.00206,0.03931 -0.00206,0.07869 0,0.118v0.133c0,0.037 -0.004,0.078 -0.004,0.111l0.002,0.114v0.132c-0.00703,0.03622 -0.00904,0.07323 -0.006,0.11v0.058c0,0.025 -0.004,0.05 -0.004,0.079c0,0.035 0,0.075 0.002,0.102c0,0.049 0,0.094 -0.002,0.144v0.083c0.002,0.042 0.002,0.091 0.002,0.135c-0.004,0.006 -0.004,0.016 -0.004,0.03v0.08c-0.006,0.053 -0.004,0.107 -0.004,0.161v0.07l-0.002,0.075l0.002,0.114c-0.004,0.016 -0.004,0.027 -0.004,0.041v0.1c0,0.031 -0.004,0.068 -0.004,0.095l0.002,0.023c-0.12,5.857 -0.573,10.557 -0.573,10.557l-24.51,0.197c0,0 -0.494,-4.117 -0.724,-9.444c0,-0.075 -0.019,-0.145 -0.025,-0.217c0,-0.009 -0.01,-0.025 -0.01,-0.04c-0.005,-0.056 -0.005,-0.116 -0.015,-0.172v-0.022c0.00037,-0.01736 -0.0003,-0.03472 -0.002,-0.052v-0.054c-0.004,-0.041 -0.004,-0.087 -0.008,-0.128c-0.002,-0.023 -0.008,-0.046 -0.008,-0.062v-0.002c0,-0.058 0,-0.112 -0.004,-0.164c0,-0.025 0.004,-0.05 0,-0.077c-0.002,-0.06 -0.002,-0.122 -0.006,-0.19v-0.052c-0.002,-0.043 -0.007,-0.091 -0.007,-0.141c-0.008,-0.171 -0.016,-0.351 -0.022,-0.525v-0.054c-0.004,-0.06 -0.007,-0.126 -0.007,-0.19v-0.05c-0.003,-0.063 -0.003,-0.125 -0.01,-0.193v-0.054c0,-0.06 0,-0.122 -0.006,-0.18v-0.054c-0.002,-0.064 -0.002,-0.132 -0.002,-0.194v-0.015c0,-0.008 -0.004,-0.022 -0.004,-0.035c-0.004,-0.064 -0.004,-0.13 -0.004,-0.197c0,-0.012 0,-0.031 -0.006,-0.041c-0.002,-0.066 -0.002,-0.133 -0.002,-0.203v-0.043c0,-0.07 -0.007,-0.137 -0.007,-0.21v-0.01c-0.059,-2.803 -0.032,-5.755 0.179,-8.535v-0.019c0.003,-0.068 0.013,-0.136 0.017,-0.213v-0.01c0,-0.004 0,-0.013 0.007,-0.018c0,-0.071 0.005,-0.142 0.01,-0.21v-0.029c0.01,-0.072 0.014,-0.139 0.02,-0.207v-0.033c0.006,-0.071 0.016,-0.141 0.021,-0.209c0.004,-0.008 0.004,-0.017 0.004,-0.028c0.01,-0.067 0.01,-0.138 0.02,-0.21c0,-0.007 0,-0.013 0.004,-0.023c0.002,-0.066 0.013,-0.147 0.015,-0.22c0.07959,-0.79311 0.17962,-1.58404 0.3,-2.372c-0.049,0.027 -3.221,1.327 -6.243,2.174c0,-0.002 -1.578,-3.23 0.154,-6.442l9.131,-3.38c0.636,-0.448 1.642,-0.782 2.71,-1.03c0.341,-0.081 0.685,-0.143 1.035,-0.205c0,0 0.006,0 0.008,-0.004c0.11132,-0.02583 0.22377,-0.04652 0.337,-0.062l5.158,3.974l4.85,-4.072l0.342,0.048c0,0 0.008,-0.004 0.014,0c0.339,0.052 0.689,0.116 1.033,0.178c0.59998,0.14137 1.19412,0.3065 1.781,0.495c0.422,0.159 0.796,0.343 1.08,0.553c0.675,0.351 6.421,3.397 8.093,5.515M221.457,173.422c-0.307,-0.772 -0.484,-1.261 -0.484,-1.261c-1.274,-0.445 -2.51,-1.653 -3.234,-3.333c-0.21,-0.488 -0.358,-0.983 -0.452,-1.47l0.788,-0.873l-0.128,-0.315l1.033,-0.975l-0.109,-0.174l1.434,-0.952l0.228,0.213l1.894,-0.83h0.029c0.10037,0.08029 0.1965,0.16574 0.288,0.256c0.033,-0.049 0.062,-0.097 0.089,-0.14l2.886,1.552l0.025,0.04c0.02987,0.66883 -0.01711,1.33888 -0.14,1.997c-0.165,0.889 -0.445,1.69 -0.788,2.33c-0.046,0.293 -0.107,0.571 -0.196,0.833l0.938,1.09l-4.101,2.012" fill="#e63744"/><path d="M218.15,166.706l1.028,2.093l-1.158,-1.83zM219.152,165.542l1.19,2.198l-1.295,-1.935zM220.71,164.798l0.314,-0.002l0.749,2.012zM222.571,164.222l-0.22,1.575l-0.012,-1.46z" fill="#b52836"/><path d="M272.73,193.738c0.134,0.749 0.353,2.647 0.353,2.647c0.968,0.739 1.054,3.176 0.89,4.048l-0.333,0.211l0.024,0.311l-1.157,0.54l0.04,0.18l-1.491,0.412l-0.134,-0.245l-1.862,0.176l-0.065,0.005c-0.066,-0.094 -0.116,-0.17 -0.169,-0.272c-0.041,0.025 -0.041,0.029 -0.078,0.062l-1.918,-2.03c0.26,-1.162 1.282,-2.801 1.846,-3.319c-0.093,-0.209 -0.375,-2.091 -0.375,-2.091l4.429,-0.635" fill="#e63744"/><path d="M250.738,176.165l-3.846,-5.192c1.172,-0.147 2.053,-0.273 2.053,-0.273l1.689,0.008h0.144l1.688,-0.002c0,0 0.805,0.062 1.897,0.164z" data-paper-data="{&quot;origPos&quot;:null}" fill="#7a5e50"/><path d="M250.307,175.652c0,0 -2.121,0.582 -2.02,1.468c0.096,0.896 -3.249,-5.532 -3.08,-5.834c0.163,-0.308 1.535,-1.257 1.535,-1.257z" fill="#e63744"/><path d="M246.735,170.072c-0.194,0.133 -1.352,0.954 -1.504,1.232c-0.035,0.076 0.255,0.828 1.004,2.323c0.893,1.796 1.843,3.463 2.02,3.546c0,-0.009 0,-0.02 -0.004,-0.044c-0.093,-0.848 1.699,-1.41 2.003,-1.5l-3.52,-5.557zM246.418,174.136c-0.321,-0.623 -1.348,-2.67 -1.236,-2.87c0.164,-0.306 1.489,-1.23 1.54,-1.26l0.03,-0.027l3.601,5.693l-0.039,0.008c-0.02,0.004 -2.092,0.588 -1.997,1.439c0.004,0.054 0.002,0.087 -0.021,0.106c-0.006,0.01 -0.025,0.018 -0.039,0.018c-0.27,-0.04 -1.771,-2.983 -1.84,-3.107z" fill="#9b1d2b"/><path d="M254.619,169.967c0,0 1.382,0.926 1.555,1.23c0.171,0.303 -3.071,6.782 -2.987,5.883c0.089,-0.886 -2.043,-1.434 -2.043,-1.434z" fill="#e63744"/><path d="M251.193,175.618c0.308,0.087 2.106,0.623 2.028,1.472c-0.004,0.022 -0.004,0.037 -0.004,0.04c0.177,-0.084 1.1,-1.765 1.968,-3.574c0.722,-1.51 1.004,-2.265 0.963,-2.34c-0.152,-0.275 -1.325,-1.076 -1.514,-1.206zM253.219,177.203c-0.015,0 -0.029,-0.008 -0.043,-0.018c-0.017,-0.017 -0.025,-0.054 -0.021,-0.104c0.084,-0.85 -1.997,-1.403 -2.02,-1.407l-0.04,-0.007l3.516,-5.749l0.027,0.025c0.056,0.03 1.39,0.932 1.562,1.234c0.109,0.199 -0.883,2.263 -1.196,2.89c-0.057,0.128 -1.524,3.093 -1.785,3.136z" fill="#9b1d2b"/><path d="M250.835,182.285h-0.13l-0.049,-6.142h0.132z" fill="#eeeeed"/><path d="M247.756,171.53c-0.42294,-0.66359 -0.69911,-1.40994 -0.81,-2.189c1.20761,0.18623 2.42814,0.27585 3.65,0.268c1.27598,-0.00973 2.54873,-0.12985 3.804,-0.359l-0.015,0.013l-6.63,2.267" fill="#eeac6c"/><path d="M272.694,150.187c1.156,0.735 1.926,2.002 1.938,3.445c0.019,2.296 -1.891,4.178 -4.267,4.194c-0.065,0 -0.132,-0.004 -0.202,-0.004c-3.792,6.968 -11.116,11.721 -19.57,11.788c-8.462,0.068 -15.872,-4.578 -19.77,-11.492c-0.158,0.012 -0.319,0.029 -0.477,0.029c-2.372,0.019 -4.312,-1.83 -4.33,-4.124c-0.011,-1.552 0.855,-2.908 2.147,-3.635c-0.16127,-1.07532 -0.24648,-2.16068 -0.255,-3.248c-0.099,-12.512 9.897,-22.731 22.326,-22.832c12.43,-0.099 22.584,9.962 22.682,22.472c0.008,1.155 -0.065,2.296 -0.222,3.407" data-paper-data="{&quot;origPos&quot;:null}" fill="#7a5e50"/><path d="M246.311,145.65c0,0 -0.503,1.803 -2.082,1.446c-0.772,-0.174 -0.908,-1.201 -3.386,-0.74c-0.779,0.18 -2.417,1.156 -2.732,1.808c-0.316,0.652 -0.088,-2.392 2.457,-3.522c1.835,-0.675 2.457,-0.642 3.977,-0.642c1.52,0 1.987,0.907 1.766,1.65M256.052,145.65c0,0 0.503,1.803 2.082,1.446c0.772,-0.174 0.908,-1.201 3.386,-0.74c0.779,0.18 2.417,1.156 2.732,1.808c0.316,0.652 0.087,-2.392 -2.457,-3.522c-1.835,-0.675 -2.457,-0.642 -3.977,-0.642c-1.52,0 -1.987,0.907 -1.766,1.65" fill="#f6b90c"/><path d="M244,153c0,1.657 -0.895,3 -2,3c-1.105,0 -2,-1.343 -2,-3c0,-1.657 0.895,-3 2,-3c1.105,0 2,1.343 2,3M262,153c0,1.657 -0.895,3 -2,3c-1.105,0 -2,-1.343 -2,-3c0,-1.657 0.895,-3 2,-3c1.105,0 2,1.343 2,3" fill="#6172bb"/><path d="M251.02,156.069c-1.125,0.153 -3.02,1.834 -3.02,1.834c0,0 0.207,-1.009 0.503,-1.299c0.8,-1.156 2.487,-1.604 2.487,-1.604c0,0 2.173,0.703 2.65,1.588c0.443,0.824 0.34,1.238 0.34,1.238c0,0 -2.121,-1.871 -2.96,-1.756z" fill="#eeac6c"/><path d="M244.2,159.696c0,0 6.897,3.208 13.172,-0.397c0,0 -1.39,5.47 -5.95,5.561c-4.115,0.122 -4.984,-1.492 -5.477,-1.956c-0.492,-0.463 -1.42,-1.772 -1.745,-3.208" data-paper-data="{&quot;origPos&quot;:null}" fill="#8d2229"/><path d="M241.895,152.033c0.013,1.408 -0.816,2.55 -1.845,2.557c-1.033,0.008 -1.874,-1.122 -1.886,-2.528c-0.01,-1.406 0.812,-2.548 1.843,-2.557c1.032,-0.006 1.878,1.122 1.888,2.528M261.958,151.87c0.013,1.407 -0.818,2.55 -1.847,2.56c-1.03,0.008 -1.878,-1.122 -1.888,-2.528c-0.01,-1.405 0.816,-2.548 1.847,-2.556c1.028,-0.01 1.878,1.12 1.888,2.523" fill="#ffffff"/><path d="M241.188,152.74c0.008,0.868 -0.502,1.578 -1.144,1.582c-0.635,0.006 -1.16,-0.695 -1.168,-1.563c-0.006,-0.87 0.506,-1.575 1.146,-1.584c0.638,-0.004 1.16,0.698 1.166,1.566M261.253,152.58c0.009,0.868 -0.506,1.578 -1.145,1.582c-0.64,0.004 -1.16,-0.695 -1.169,-1.563c-0.008,-0.87 0.504,-1.577 1.146,-1.583c0.636,-0.004 1.16,0.695 1.168,1.565" fill="#1679af"/><path d="M237.014,148.962c1.824,-1.157 4.521,-1.902 4.521,-1.902c0.317,-0.603 0.025,-1.617 -0.403,-1.681c-1.347,-0.18 -4.118,3.583 -4.118,3.583M263.065,148.752c-1.847,-1.126 -4.556,-1.83 -4.556,-1.83c-0.327,-0.597 -0.046,-1.615 0.382,-1.685c1.338,-0.203 4.174,3.515 4.174,3.515" fill="#f7b90b"/><path d="M273.785,143.822c0.056,2.656 -0.814,8.421 -2.594,11.864c0,0 -4.524,-12.574 -8.185,-14.534c-4.479,-2.406 -16.196,1.204 -20.206,-1.93c-0.664,-0.516 -0.6,-1.706 -0.6,-1.706c0,0 -0.753,1.522 -1.116,1.946c-1.914,2.222 -6.889,5.466 -9.25,7.206c-1.901,1.396 -1.989,1.379 -1.506,9.347c0,0 -3.561,-7.223 -3.408,-12.071c0.045,-1.393 0.693,-4.492 1.76,-7.645c3.898,-8.03 12.061,-13.593 21.547,-13.669c10.892,-0.088 20.158,7.09 23.26,17.034c0.16484,1.38019 0.26428,2.76741 0.298,4.157" data-paper-data="{&quot;origPos&quot;:null}" fill="#333433"/><path d="M226.34,147.966l0.642,-2.476l1.95,0.783c0,0 -0.588,17.675 21.66,23.337c-21.098,0.27 -24.252,-21.645 -24.252,-21.645z" fill="#333433"/><path d="M274.4,147.58c0,0 -2.806,21.964 -23.908,22.032c22.16,-6.022 21.293,-23.682 21.293,-23.682l1.938,-0.811z" fill="#333433"/><path d="M228.5,143.21l44.37,0.485l1.55,3.883c-3.59,4.871 -18.019,-1.596 -24.04,-1.546c-6.025,0.049 -20.52,6.86 -24.04,1.933z" fill="#333433"/><path d="M228.461,138.08l4.339,-7.981c0,0 6.424,-5.325 8.905,-6.542c0.858,-0.418 2.773,-0.787 3.722,-0.89c2.606,-0.271 7.907,-0.232 10.48,0.257c0.869,0.167 2.572,0.66 3.354,1.062c2.403,1.236 8.889,6.142 8.889,6.142l3.732,7.604l-6.384,5.169l-31.116,0.248l-5.92,-5.07z" fill="#343434"/><path d="M268.415,139.636c1.315,-0.584 2.224,-1.415 2.028,-1.865c-0.197,-0.451 -1.419,-0.344 -2.74,0.234c-1.312,0.584 -2.221,1.427 -2.03,1.877c0.197,0.45 1.423,0.338 2.742,-0.246M264.815,136.469c1.193,-1.149 3.979,-6.573 2.37,-6.205c-4.95,1.143 -6.562,5.387 -10.44,8.927c-1.58,1.437 6.531,-1.238 8.07,-2.722M250.411,139.17c2.829,-0.056 4.777,-2.637 6.151,-5.802c-1.18,-1.176 -2.539,-1.189 -3.37,-1.043c-0.89,2.43 -1.886,4.293 -2.89,4.26c-0.948,-0.033 -1.828,-1.87 -2.588,-4.242c-0.891,-0.102 -2.244,0.029 -3.361,1.343c1.296,3.091 3.203,5.546 6.058,5.484M236.005,136.701c1.563,1.457 9.715,4.003 8.115,2.591c-3.939,-3.479 -5.612,-7.694 -10.585,-8.758c-1.61,-0.342 1.256,5.036 2.47,6.166M234.771,140.129c0.187,-0.451 -0.733,-1.28 -2.058,-1.843c-1.324,-0.559 -2.548,-0.644 -2.742,-0.194c-0.191,0.456 0.73,1.273 2.06,1.836c1.322,0.561 2.55,0.654 2.74,0.201M259.448,123.119c8.255,3.018 14.861,10.65 14.972,24.46c-2.596,-4.03 -13.526,0.043 -17.99,-2.517c-0.228,-0.126 -0.596,-0.726 -0.886,-0.816c-1.224,-0.364 -3.753,0.855 -5.028,0.863c-1.28,0.011 -3.82,-1.138 -5.042,-0.78c-0.303,0.085 -0.718,0.698 -0.936,0.83c-4.493,2.671 -15.431,-1.461 -18.198,2.806c-0.109,-13.53 6.515,-21.783 15.375,-24.93c0.265,1.545 0.663,4.161 1.375,6.843c1.603,0.082 2.929,-0.837 3.583,-1.39c-0.658,-2.759 -1.14,-5.415 -1.38,-6.422c1.62364,-0.31536 3.27305,-0.4794 4.927,-0.49c1.9847,-0.01607 3.9654,0.18106 5.908,0.588c-0.342,1.07 -0.949,3.633 -1.712,6.306c0.663,0.53 1.927,1.354 3.427,1.298c0.772,-2.579 1.261,-5.091 1.605,-6.649" fill="#e63744"/><path d="M227.481,138.684c0,0 -1.037,2.877 -0.788,3.816c0.508,1.914 1.626,1.835 7.676,1.79c-4.571,-1.091 -6.888,-5.606 -6.888,-5.606M273.176,138.321c0,0 1.089,2.858 0.856,3.8c-0.479,1.923 -1.598,1.861 -7.644,1.911c4.548,-1.164 6.788,-5.712 6.788,-5.712" fill="#717171"/><path d="M274.329,148.049l-8.496,1.37c0.393,1.364 1.146,4.838 -0.131,6.595c-1.985,2.725 -11.35,-0.821 -13.452,-3.451c-0.757,-0.94 -0.815,-3.041 -1.67,-3.028c-0.859,0.012 -0.875,2.109 -1.609,3.064c-2.059,2.666 -11.374,6.334 -13.399,3.641c-1.308,-1.735 -0.61,-5.204 -0.24,-6.573l-8.788,-1.236l47.786,-0.383z" fill="#c6c5c6"/><path d="M238.82,150.737c0.17425,0.26943 0.09987,0.62886 -0.167,0.807l-2.004,1.317c-0.12821,0.08435 -0.28478,0.11405 -0.43497,0.08251c-0.15019,-0.03154 -0.28159,-0.12171 -0.36503,-0.25051v-0.002c-0.17502,-0.26797 -0.10034,-0.62702 0.167,-0.803l2,-1.319c0.12813,-0.08462 0.28478,-0.11448 0.43505,-0.08292c0.15027,0.03156 0.28168,0.12191 0.36495,0.25092zM238.018,153.6c0.00221,0.35622 -0.28478,0.64679 -0.641,0.649c-0.35622,0.00221 -0.64679,-0.28478 -0.649,-0.641c-0.00321,-0.17165 0.06246,-0.33743 0.18234,-0.46032c0.11988,-0.12289 0.28399,-0.19264 0.45566,-0.19368c0.17221,-0.00106 0.33775,0.06646 0.46009,0.18767c0.12233,0.12121 0.19139,0.28612 0.19191,0.45833" fill="#dcdcdc"/><path d="M274.328,148.025l-8.494,1.379c0.009,0.031 0.042,0.085 0.019,0.081c-5.791,-1.162 -15.013,0.118 -15.013,0.118c-0.15851,-0.09256 -0.35495,-0.09103 -0.512,0.004c0,0 -8.649,-1.3 -15.013,0.122c-0.019,0.006 0.014,-0.05 0.016,-0.068l-8.788,-1.253z" fill="#b52836"/><path d="M217.65,224.174l-2.833,0.022l-0.004,-0.569l2.832,-0.02z" fill="#c6c5c6"/><path d="M216.665,218.857l0.942,-0.006l0.043,5.323l-1.134,0.01z" fill="#7a797a"/><path d="M215.761,224c0.0032,0.28413 -0.10675,0.55786 -0.3056,0.76084c-0.19885,0.20298 -0.47027,0.31852 -0.7544,0.32116l-2.515,0.021c-0.39474,0.02016 -0.76876,-0.17771 -0.97417,-0.5154c-0.20541,-0.33768 -0.20915,-0.76081 -0.00974,-1.10207c0.19941,-0.34126 0.56988,-0.54572 0.96491,-0.53253l2.518,-0.021c0.59182,-0.00166 1.07324,0.47618 1.076,1.068" fill="#565657"/><path d="M224.116,213.926l2.83,-0.023l0.005,0.567l-2.83,0.021z" fill="#c6c5c6"/><path d="M225.103,219.239l-0.944,0.007l-0.045,-5.452l1.136,-0.01z" fill="#7a797a"/><path d="M230.661,214.061c0.00347,0.28432 -0.10616,0.55837 -0.30477,0.76185c-0.19861,0.20348 -0.46992,0.31972 -0.75423,0.32315l-2.516,0.02c-0.59426,0.00442 -1.07958,-0.47374 -1.084,-1.068c-0.00442,-0.59426 0.47374,-1.07958 1.068,-1.084l2.516,-0.02c0.59127,-0.00166 1.07224,0.47573 1.075,1.067" fill="#565657"/><path d="M220.757,194.152c4.82,4.633 5.23,24.822 5.23,24.822l-1.159,0.01c0,0 -0.52,-19.874 -4.052,-22.58c-0.041,-0.028 -0.073,-0.06 -0.103,-0.111c-0.02398,0.04351 -0.05625,0.08191 -0.095,0.113c-3.49,2.76 -3.7,22.64 -3.7,22.64l-1.157,0.01c0,0 0.093,-20.192 4.839,-24.902c0.037,-0.032 0.068,-0.042 0.094,-0.042c0.03823,-0.00057 0.07517,0.01378 0.103,0.04" fill="#d7d6d6"/><path d="M218.429,219.069l1.824,7.682l-0.12,-15.518zM223.028,219.031l-1.705,7.71l-0.122,-15.516z" fill="#d7d6d6"/><path d="M225.98,219.02c0.00112,0.18403 -0.146,0.33472 -0.33,0.338l-9.587,0.079c-0.18585,0.00058 -0.33772,-0.14818 -0.341,-0.334v-0.018c-0.00189,-0.0904 0.03284,-0.17773 0.09631,-0.24214c0.06347,-0.06441 0.15027,-0.10042 0.24069,-0.09986l9.586,-0.079c0.08954,-0.00027 0.17547,0.03532 0.2386,0.09882c0.06313,0.0635 0.09821,0.14964 0.0974,0.23918v0.019z" fill="#c6c5c6"/><path d="M221.37,201.149l-1.574,0.012l-0.094,-11.715l1.576,-0.014z" fill="#d7d6d6"/><path d="M222.09,236.302c0.00552,0.65998 -0.52502,1.19948 -1.185,1.205c-0.65998,0.00552 -1.19948,-0.52502 -1.205,-1.185l-0.28,-35.28c-0.00481,-0.31833 0.1174,-0.62546 0.33959,-0.85347c0.22219,-0.22801 0.52606,-0.35811 0.84441,-0.36153c0.662,-0.004 1.2,0.528 1.203,1.197l0.282,35.278z" fill="#333433"/><path d="M236.887,189.308c0,0 -12.606,-1.74 -16.313,1.271c-4.17,-2.948 -16.35,-1.008 -16.35,-1.008l-0.013,-1.586l32.662,-0.263z" fill="#d7d6d6"/><path d="M205.65,195.108c-1.146,-2.577 -0.963,-9.703 -0.963,-9.703c0,-0.186 -0.15,-0.333 -0.333,-0.333h-0.02c-0.18543,0.00327 -0.33403,0.15454 -0.334,0.34c0.062,7.748 0.829,7.26 0.957,9.7c0.01,0.193 0.152,0.34 0.339,0.338h0.023c0.185,-0.002 0.407,-0.168 0.331,-0.342M235.565,194.868c1.099,-2.596 0.805,-9.716 0.805,-9.716c-0.00107,-0.08901 0.03354,-0.17474 0.09611,-0.23806c0.06257,-0.06332 0.14788,-0.09895 0.23689,-0.09894h0.018c0.18519,-0.00223 0.33726,0.14582 0.34,0.331c0.059,7.749 -0.712,7.273 -0.805,9.716c-0.01,0.194 -0.148,0.341 -0.333,0.343h-0.018c-0.188,0 -0.418,-0.161 -0.34,-0.337" fill="#333433"/></g></g></svg>