<svg version="1.1" xmlns="http://www.w3.org/2000/svg" xmlns:xlink="http://www.w3.org/1999/xlink" width="89.5135" height="119.8731" viewBox="0,0,89.5135,119.8731"><g transform="translate(-190.3885,-120)"><g data-paper-data="{&quot;isPaintingLayer&quot;:true}" fill-rule="evenodd" stroke-miterlimit="10" stroke-dasharray="" stroke-dashoffset="0" style="mix-blend-mode: normal"><path d="M278.557,204.67c1.461,3.017 -0.237,7.751 -0.237,7.751c-1.53,-1.038 -2.444,-3.005 -2.962,-4.603c-0.306,0.586 -0.654,0.935 -0.93,0.865c-0.451,-0.115 -0.543,-1.29 -0.204,-2.623c0.13,-0.516 0.306,-0.976 0.498,-1.345c-3.558,-6.25 -7.226,-10.407 -10.3,-13.528l0.82,-7.114c7.805,7.19 12.342,18.587 13.315,20.596" data-paper-data="{&quot;origPos&quot;:null}" fill="#79594c" stroke="none" stroke-width="1" stroke-linecap="butt" stroke-linejoin="miter"/><path d="M257.922,172.779c0,0 13.922,6.893 21.98,27.433c0,0 -2.716,4.252 -10.848,8.374c-8.132,4.124 0,-0.99 0,-0.99c0,0 -13.22,-19.843 -11.132,-34.817" fill="#3949ab" stroke="none" stroke-width="1" stroke-linecap="butt" stroke-linejoin="miter"/><path d="M214.142,176.72c2.686,8.782 -0.336,30.598 -0.336,30.598c-2.518,-9.135 0.336,-30.598 0.336,-30.598" fill="#283593" stroke="none" stroke-width="1" stroke-linecap="butt" stroke-linejoin="miter"/><path d="M209.242,182.79c-3.315,-0.503 -6.257,-4.583 -6.257,-4.583c1.722,-0.673 3.861,-0.313 5.472,0.165c-0.31,-0.584 -0.4,-1.068 -0.186,-1.256c0.35,-0.307 1.37,0.282 2.278,1.316c0.35,0.399 0.631,0.805 0.827,1.172c7.166,0.605 12.67,-0.065 16.984,-0.83l5.401,4.702c-10.346,2.363 -22.311,-0.35 -24.519,-0.685" data-paper-data="{&quot;origPos&quot;:null}" fill="#79594c" stroke="none" stroke-width="1" stroke-linecap="butt" stroke-linejoin="miter"/><path d="M214.142,176.72c9.756,4.068 23.904,-3.41 23.904,-3.41l6.822,8.596c0,0 -16.948,1.204 -18.683,8.696c-3.312,14.298 -12.379,16.716 -12.379,16.716c0,0 3.022,-21.816 0.336,-30.598" fill="#3949ab" stroke="none" stroke-width="1" stroke-linecap="butt" stroke-linejoin="miter"/><path d="M257.046,216.785l-0.205,16.009c0,0 1.967,4.563 -0.447,6.01c0,0 -4.012,-3.66 -4.128,-5.21l-1.263,-16.81h6.043z" fill="#ffe094" stroke="none" stroke-width="1" stroke-linecap="butt" stroke-linejoin="miter"/><path d="M251.575,235.299v-7.504h5.713v6.378c2.226,1.166 3.92,3.134 3.92,4.1c0,1.148 -2.253,1.941 -5.112,1.454c-3.213,-0.547 -4.946,-1.308 -4.946,-3.523c0,-0.318 0.151,-0.626 0.425,-0.905" fill="#757575" stroke="none" stroke-width="1" stroke-linecap="butt" stroke-linejoin="miter"/><path d="M257.377,237.749c-0.799,-0.449 -1.203,-1.247 -0.901,-1.782c0.3,-0.535 1.192,-0.604 1.99,-0.155c0.799,0.449 1.203,1.247 0.903,1.782c-0.302,0.535 -1.192,0.605 -1.992,0.155" fill="#bdbdbd" stroke="none" stroke-width="1" stroke-linecap="butt" stroke-linejoin="miter"/><path d="M240.318,216.784h6.043l-1.264,16.81c-0.116,1.55 -4.128,5.21 -4.128,5.21c-2.413,-1.447 -0.446,-6.01 -0.446,-6.01l-0.205,-16.009z" fill="#ffe094" stroke="none" stroke-width="1" stroke-linecap="butt" stroke-linejoin="miter"/><path d="M245.938,235.299c0.275,0.279 0.426,0.587 0.426,0.905c0,2.215 -1.734,2.976 -4.946,3.523c-2.859,0.487 -5.112,-0.306 -5.112,-1.454c0,-0.966 1.693,-2.934 3.92,-4.1v-6.378h5.712v7.504" fill="#757575" stroke="none" stroke-width="1" stroke-linecap="butt" stroke-linejoin="miter"/><path d="M240.137,237.749c-0.8,0.45 -1.69,0.38 -1.992,-0.155c-0.3,-0.535 0.104,-1.333 0.902,-1.782c0.8,-0.449 1.69,-0.38 1.991,0.155c0.301,0.535 -0.103,1.333 -0.901,1.782" fill="#bdbdbd" stroke="none" stroke-width="1" stroke-linecap="butt" stroke-linejoin="miter"/><path d="M262.103,153.608c0,0 5.935,-3.81 9.717,-0.101c0,0 -1.366,0.925 -2,2.925c0,0 4.128,2.62 4.618,5.187c0,0 -4.941,-2.31 -5.47,-0.498c0,0 2.24,2.172 2.257,6.247c0,0 -6.727,-4.18 -7.044,-2.857c0,0 3.138,2.863 3.933,7.366l-10.483,-5.537l-8.358,-1.744l2.492,-11.935zM233.708,153.608c0,0 -5.935,-3.81 -9.717,-0.101c0,0 1.366,0.925 2,2.925c0,0 -4.128,2.62 -4.617,5.187c0,0 4.94,-2.31 5.47,-0.498c0,0 -2.24,2.172 -2.258,6.247c0,0 6.728,-4.18 7.044,-2.857c0,0 -3.137,2.863 -3.933,7.366l10.483,-5.537l8.358,-1.744l-2.491,-11.935z" fill="#cfd8dc" stroke="none" stroke-width="1" stroke-linecap="butt" stroke-linejoin="miter"/><path d="M223.28,227.397c0,-32.392 11.336,-58.65 25.32,-58.65c13.984,0 25.32,26.258 25.32,58.65c0,0 -11.21,5.094 -24.699,5.094c-14.333,0 -25.941,-5.094 -25.941,-5.094" fill="#5c6bc0" stroke="none" stroke-width="1" stroke-linecap="butt" stroke-linejoin="miter"/><path d="M200.286,168.653c0.00106,0.57446 -0.22612,1.12581 -0.63158,1.53277c-0.40545,0.40695 -0.95596,0.63617 -1.53042,0.63723c-1.49465,0.00276 -2.70869,-1.20635 -2.712,-2.701c-0.00186,-0.8974 0.35292,-1.75877 0.98626,-2.39455c0.63334,-0.63578 1.49334,-0.99386 2.39074,-0.99545c2.33539,-0.00442 4.23248,1.88462 4.238,4.22c0.00292,1.40237 -0.55144,2.74845 -1.5411,3.74205c-0.98966,0.9936 -2.33353,1.5533 -3.7359,1.55595c-1.75299,0.00372 -3.43564,-0.68916 -4.67773,-1.92618c-1.24208,-1.23702 -1.94183,-2.91683 -1.94527,-4.66982c-0.00398,-2.19095 0.86255,-4.29375 2.40898,-5.84581c1.54643,-1.55205 3.64607,-2.42622 5.83702,-2.43019c5.704,-0.011 10.337,4.602 10.348,10.305v48.617" data-paper-data="{&quot;origPos&quot;:null}" fill="none" stroke="#8d6e63" stroke-width="1.477" stroke-linecap="round" stroke-linejoin="round"/><path d="M231.855,159.706c0,-8.036 7.533,-15.978 16.826,-15.978c9.294,0 16.828,7.942 16.828,15.978c0,8.035 -7.534,14.263 -16.828,14.263c-9.293,0 -16.826,-6.228 -16.826,-14.263" data-paper-data="{&quot;origPos&quot;:null}" fill="#79594c" stroke="none" stroke-width="1" stroke-linecap="butt" stroke-linejoin="miter"/><path d="M256.335,161.88c0,-0.78148 0.63352,-1.415 1.415,-1.415c0.78148,0 1.415,0.63352 1.415,1.415c0,0.78148 -0.63352,1.415 -1.415,1.415c-0.78148,0 -1.415,-0.63352 -1.415,-1.415M241.029,161.88c0,-0.78148 -0.63352,-1.415 -1.415,-1.415c-0.78148,0 -1.415,0.63352 -1.415,1.415c0,0.78148 0.63352,1.415 1.415,1.415c0.78148,0 1.415,-0.63352 1.415,-1.415" fill="#5d4037" stroke="none" stroke-width="1" stroke-linecap="butt" stroke-linejoin="miter"/><path d="M263.98,153.24c0,0 -11.476,-5.104 -30.505,0l3.837,-18.491l-6.91,-5.842l-9.044,4.718l-7.918,-0.899l-3.264,-6.234l5.169,3.538l4.27,-0.674l12.22,-9.356l18.879,4.814l13.265,28.425z" fill="#5c6bc0" stroke="none" stroke-width="1" stroke-linecap="butt" stroke-linejoin="miter"/><path d="M236.982,171.673c5.632,-6.738 11.193,-6.935 15.346,-5.448c3.858,1.382 6.84,4.502 8.249,8.349l1.372,3.747c-2.816,-0.918 -3.755,-2.368 -3.755,-2.368c1.033,3.379 4.6,7.789 4.6,7.789c0,0 1.501,0.188 -0.469,-0.094c-1.972,-0.28 -5.82,-3.94 -5.82,-3.94c0.093,2.72 5.913,6.85 5.913,6.85c-1.783,0.845 -5.538,-0.478 -5.538,-0.478c0.751,1.962 7.603,4.138 7.603,4.138c-0.563,1.313 -4.318,0.375 -4.318,0.375c3.473,3.285 8.072,0.563 8.072,0.563c-0.188,3.191 -0.938,3.003 -0.938,3.003c1.877,0.563 8.165,-4.663 8.165,-4.663c-0.281,3.875 -3.66,5.815 -3.66,5.815c1.783,0.495 4.317,-1.152 4.317,-1.152c-1.219,4.035 -6.288,5.724 -6.288,5.724c1.502,0.47 3.754,0 3.754,0c-1.501,4.411 -8.071,3.097 -8.071,3.097c1.501,1.971 3.66,2.816 3.66,2.816c-4.036,0.75 -9.292,-2.722 -9.292,-2.722c0.845,0.376 1.502,4.223 1.502,4.223c-3.473,0.376 -8.166,-4.41 -8.166,-4.41c0,0 -1.314,-2.628 -0.75,-0.094c0.562,2.533 0.75,3.19 0.75,3.19c-5.538,-2.252 -9.668,-8.445 -9.668,-8.445c-0.375,0.844 0,3.753 0,3.753c-3.567,-2.815 -4.74,-13.631 -4.74,-13.631c0,0 -0.48,0.271 -0.938,0.751c-0.657,0.688 -1.174,2.182 -1.174,2.182c-1.313,-4.692 1.033,-12.272 1.033,-12.272c-1.314,-0.073 -3.004,2.231 -3.004,2.231c-0.938,-4.129 2.253,-8.879 2.253,-8.879" fill="#cfd8dc" stroke="none" stroke-width="1" stroke-linecap="butt" stroke-linejoin="miter"/><path d="M251.82,169.754c-0.627,1.48 -1.796,2.477 -3.138,2.477c-1.343,0 -2.512,-0.998 -3.14,-2.477" fill="none" stroke="#ef5350" stroke-width="1.016" stroke-linecap="round" stroke-linejoin="round"/><path d="M242.508,157.698h-6.203M260.515,157.698h-6.202" fill="none" stroke="#cfd8dc" stroke-width="2.215" stroke-linecap="butt" stroke-linejoin="miter"/><path d="M255.439,145.313l1.75,0.255l-1.266,1.234l0.298,1.744l-1.565,-0.823l-1.566,0.823l0.299,-1.744l-1.266,-1.234l1.75,-0.255l0.783,-1.585zM247.345,135.579l1.277,0.185l-0.924,0.9l0.218,1.27l-1.141,-0.6l-1.142,0.6l0.218,-1.27l-0.923,-0.9l1.276,-0.185l0.571,-1.157zM241.651,147.441l1.392,0.203l-1.007,0.982l0.238,1.386l-1.245,-0.655l-1.246,0.655l0.238,-1.386l-1.007,-0.982l1.392,-0.203l0.623,-1.261zM238.829,127.649l1.75,0.255l-1.266,1.235l0.299,1.743l-1.566,-0.823l-1.566,0.823l0.299,-1.743l-1.266,-1.235l1.75,-0.255l0.783,-1.585zM234.346,193.254l1.96,0.284l-1.418,1.382l0.334,1.95l-1.752,-0.92l-1.752,0.92l0.335,-1.95l-1.418,-1.382l1.96,-0.284l0.875,-1.774zM244.815,206.675l1.96,0.284l-1.417,1.382l0.334,1.95l-1.752,-0.921l-1.752,0.921l0.334,-1.95l-1.418,-1.382l1.96,-0.284l0.876,-1.775zM232.477,210.635l1.393,0.203l-1.008,0.982l0.238,1.386l-1.245,-0.655l-1.245,0.655l0.237,-1.386l-1.007,-0.982l1.392,-0.203l0.623,-1.261zM229.895,220.076l1.96,0.285l-1.418,1.381l0.335,1.95l-1.752,-0.92l-1.752,0.921l0.334,-1.952l-1.418,-1.38l1.96,-0.285l0.876,-1.775zM241.651,225.734l1.392,0.202l-1.007,0.982l0.238,1.386l-1.245,-0.655l-1.246,0.655l0.238,-1.386l-1.007,-0.982l1.392,-0.203l0.623,-1.26zM258.625,225.468l1.96,0.284l-1.418,1.382l0.335,1.951l-1.752,-0.922l-1.752,0.921l0.334,-1.95l-1.417,-1.382l1.958,-0.284l0.877,-1.775zM252.495,217.592l1.508,0.219l-1.091,1.064l0.258,1.502l-1.349,-0.71l-1.349,0.71l0.258,-1.502l-1.092,-1.063l1.509,-0.22l0.673,-1.366zM263.549,209.093l1.96,0.284l-1.418,1.382l0.335,1.95l-1.752,-0.92l-1.752,0.92l0.334,-1.95l-1.418,-1.382l1.96,-0.284l0.876,-1.775zM269.728,217.592l1.508,0.219l-1.091,1.064l0.258,1.502l-1.349,-0.71l-1.349,0.71l0.257,-1.502l-1.091,-1.063l1.508,-0.22l0.675,-1.366z" fill="#fdd835" stroke="none" stroke-width="1" stroke-linecap="butt" stroke-linejoin="miter"/></g></g></svg>