<svg xmlns="http://www.w3.org/2000/svg" width="77.338" height="116.934"><g fill-rule="evenodd" stroke-miterlimit="10" data-paper-data="{&quot;isPaintingLayer&quot;:true}" style="mix-blend-mode:normal"><path fill="#353233" d="M0 48.005c8.23 12.834 19.214 2.124 15.48-9.222-2.714-8.236 12.01 2.678 12.01 2.678s-8.622 23.877-16.1 24.233C3.91 66.05-.028 54.366 0 48.004" data-paper-data="{&quot;origPos&quot;:null}"/><path fill="#eeeeed" d="m27.531 106.778.197 4.044h.021c.064.266-.02.56-.203.84-.59.911-1.61 1.589-2.48 2.2a8.462 8.462 0 0 1-.434.275h-7.725v-2.594c.28-.261.59-.519.908-.721h-.007l.237-4.044h9.487z"/><path fill="#e63744" d="M27.563 107.435h-9.556l.01-.2h9.538zm.021.398h-9.6l.01-.2h9.58z"/><path fill="#eeeeed" d="M40.66 112.372v1.764H32.22a6.472 6.472 0 0 1-.43-.279c-.872-.613-1.897-1.283-2.484-2.195-.182-.281-.269-.575-.203-.841h.011l.196-4.042h9.495l.235 4.043h-.006a5.76 5.76 0 0 1 1.625 1.55z"/><path fill="#e63744" d="M29.29 107.234h9.544l.01.2h-9.563zm-.02.398h9.585l.013.2H29.26z"/><path fill="#6e6e6d" d="M17.808 110.809s.194-1.915 1.802-1.995c1.661-.084 2.923 1.652 2.923 1.652l-4.7.356z"/><path fill="#e63744" d="m18.433 110.64-.02-.007s.137-1.319 1.24-1.375c1.141-.054 2.01 1.139 2.01 1.139l-3.23.243z"/><path fill="#e63744" d="M17.832 110.822s1.93-1.212 6.27 0c1.751.206 2.294-1.427 3.116-1.79.411-.18.531 0 .531 0v1.79c.064.266-.02.558-.203.838-.59.913-1.61 1.586-2.48 2.2-1.352.927-3.054 1.422-4.542 2.134-1.35.571-3.122 1.638-4.33.28-1.593-1.921-.24-4.259 1.621-5.452h-.007v-.009l.024.009"/><path fill="#343434" d="M27.414 111.849c-.6.82-1.54 1.441-2.35 2.01-.565.388-1.195.704-1.845.985l-.175-.359c1.926-.564 4.155-2.834 4.155-2.834l.216.198m-9.583-1.027s1.464-.918 4.701-.356c-.952.708-2.544 1.748-3.674 1.755-1.446.008-1.484-.663-1.198-1.3.051-.035.102-.041.154-.105h-.007v-.007l.024.013"/><path fill="#343434" d="M17.763 112.062c2.551 0 4.778 1.024 5.976 2.547-1.048.502-2.182.892-3.215 1.385-1.35.572-3.122 1.638-4.328.28-1.108-1.337-.79-2.875.128-4.087.006-.005.01-.011.015-.017a9.65 9.65 0 0 1 1.424-.108"/><path fill="#eeeeed" d="M27.694 109.232c.018 0 .036.001.053.004v1.586c.067.266-.019.558-.2.838a4.193 4.193 0 0 1-.399.517c-.13-.311-.21-.738-.21-1.203 0-.963.34-1.742.756-1.742"/><path fill="#c12636" d="M16.72 111.758c-.017 0-.03-.008-.034-.025-.004-.017.01-.035.024-.039.023-.004 2.126-.521 4.823-.015.02.004.032.022.03.039a.038.038 0 0 1-.04.028c-2.685-.505-4.775.006-4.796.012zm.553-.511c-.015 0-.026-.006-.03-.021-.006-.02.002-.037.021-.04.02-.007 1.971-.653 4.685-.035.02.004.03.023.025.04-.002.018-.02.03-.038.026-2.697-.615-4.63.024-4.65.03z"/><path fill="#6e6e6d" d="m39.018 110.822-4.7-.356s1.263-1.736 2.924-1.652c1.608.08 1.802 1.995 1.802 1.995z"/><path fill="#e63744" d="m38.42 110.64-3.23-.243s.866-1.193 2.01-1.139c1.102.056 1.237 1.375 1.237 1.375z"/><path fill="#e63744" d="m39.018 110.822.026-.009v.009h-.009c1.862 1.193 3.216 3.531 1.621 5.452-1.206 1.358-2.979.291-4.33-.28-1.49-.712-3.19-1.207-4.54-2.134-.868-.614-1.89-1.287-2.48-2.2-.182-.28-.27-.572-.203-.838v-1.79s.12-.18.531 0c.82.363 1.365 1.996 3.116 1.79 4.336-1.212 6.268 0 6.268 0"/><path fill="#343434" d="m29.435 111.849.216-.198s2.23 2.27 4.155 2.834l-.175.359c-.65-.281-1.277-.597-1.843-.985-.81-.569-1.75-1.19-2.353-2.01m9.583-1.027.026-.013v.007h-.009c.052.064.105.07.154.105.288.637.25 1.308-1.198 1.3-1.127-.007-2.72-1.047-3.672-1.755 3.235-.562 4.7.356 4.7.356"/><path fill="#343434" d="M39.087 112.062c.49 0 .965.039 1.424.108a.07.07 0 0 1 .013.017c.92 1.212 1.24 2.75.13 4.087-1.204 1.358-2.976.292-4.328-.28-1.03-.493-2.165-.883-3.213-1.385 1.198-1.523 3.425-2.547 5.974-2.547"/><path fill="#eeeeed" d="M29.156 109.232c.418 0 .758.779.758 1.742 0 .465-.08.892-.21 1.203a4.154 4.154 0 0 1-.399-.517c-.18-.28-.269-.572-.2-.838v-1.586a.353.353 0 0 1 .05-.004"/><path fill="#c12636" d="M40.123 111.758c-.02-.006-2.109-.517-4.795-.012-.017.002-.034-.011-.039-.028a.035.035 0 0 1 .03-.039c2.697-.506 4.8.011 4.82.015.018.004.031.022.027.039-.006.017-.017.025-.034.025zm-.557-.511c-.019-.006-1.955-.645-4.65-.03-.017.004-.036-.008-.038-.026a.033.033 0 0 1 .023-.04c2.712-.618 4.667.028 4.687.035.02.003.025.02.021.04-.004.015-.017.021-.032.021z"/><path fill="#755a4d" d="m39.362 98.733-.597 8.02h-9.43l-.158-8.02h-1.503l-.158 8.02h-9.43l-.598-8.02z" data-paper-data="{&quot;origPos&quot;:null}"/><path fill="#c12636" d="M40.97 84.522s2.528 8.249.344 17.499c-1.997 1.86-12.54 0-12.54 0l-.205-10.142h-.288l-.203 10.142s-10.543 1.86-12.537 0c-2.078-7.782.341-17.5.341-17.5H40.97" data-paper-data="{&quot;origPos&quot;:null}"/><path fill="#343434" d="M17.287 84.23c-.224 4.444-.59 13.519-.13 18.144-.474-.086-.886-.212-1.206-.371-.523-4.598-.047-13.461.24-17.773h1.097m22.324 0h1.1c.286 4.312.76 13.143.24 17.75-.317.169-.727.291-1.207.38.463-4.629.094-13.687-.132-18.13z"/><path fill="#755a4d" d="M60.665 40.259c1.855.789 2.447 3.604 1.315 6.288-.726 1.719-1.98 2.963-3.28 3.429h.001s-3.463 9.878-6.478 10.978c-2.44.888-11.04-2.622-11.04-2.622 2.626 10.266 3.213 25.898 3.213 25.898h-32.11s.527-13.8 2.556-23.862v-.002c-.274.489-.758 1.12-1.44 2.085-1.714 2.438-3.323 12.764-3.323 12.764.04.07.077.14.11.214.488.494.899 1.06 1.22 1.676.926 1.763 1.022 3.544.211 3.978-.434.231-1.042.03-1.655-.479-.66 1.18-1.695 1.905-2.775 1.792-1.653-.176-2.798-2.255-2.55-4.643.107-.987.42-1.871.882-2.56.066-.652 1.528-14.381 5.137-19.021 1.766-2.266 8.051-5.594 8.306-5.729a.047.047 0 0 0 .01-.006c.041-.032.098-.036.145-.056v.002c2.1-1.3 7.375-1.487 7.375-1.487l1.772.066h.147l1.77-.1s4.655.219 6.95 1.33c.171.05.346.17.496.244l11.777 4.24 5.548-6.554v.002a4.663 4.663 0 0 1-.21-.845c-.354-.65-.647-1.467-.822-2.377-.463-2.375.051-4.478 1.145-4.69.585-.117 1.22.334 1.75 1.143 1.18-1.139 2.631-1.613 3.846-1.096" data-paper-data="{&quot;origPos&quot;:null}"/><path fill="#e63744" d="M37.611 50.351c.009.182.021.364.038.545.145 1.772.837 7.28 3.784 7.524 2.62 10.264 2.993 25.726 2.993 25.726l.007 2.056H12.237l.038-2.064s.265-13.272 2.388-23.375c.025-.125.102-.204.17-.345.051.053.316-.129.444-.217 1.16-.802 3.775-3.626 3.794-9.82l.005-.015c1.148-.729 3.29-1.124 4.975-1.332 0 0 .313 11.356 4.34 11.343 4.021-.009 4.256-11.341 4.256-11.341 1.522.18 3.401.509 4.582 1.107.143.073.261.128.381.208-.008-.01 0 0 0 0"/><path fill="#343434" d="M28.405 61.812c-4.153.008-5.148-9.247-5.368-12.637.348-.056.69-.101 1.015-.141 0 0 .311 11.355 4.338 11.342 4.023-.008 4.256-11.34 4.256-11.34.333.038.68.083 1.033.137-.199 3.385-1.127 12.626-5.274 12.639"/><path fill="#755a4d" d="M26.51 50.311c-1.075 0-1.945-2.319-1.945-3.38h7.654c0 1.061-.87 3.38-1.945 3.38H26.51" data-paper-data="{&quot;origPos&quot;:null}"/><path fill="#eeac6c" d="M25.476 49.597c-.434-.66-.822-1.577-.895-2.24 1.213.197 2.46.305 3.73.305a23.06 23.06 0 0 0 3.892-.333l-.01.013-6.717 2.255"/><path fill="#755a4d" d="M5.54 28.008a23.358 23.358 0 0 1-.258-3.48c0-12.784 10.315-23.15 23.04-23.15 12.721 0 23.036 10.366 23.036 23.15 0 1.112-.079 2.223-.237 3.324 1.33.731 2.23 2.11 2.23 3.694 0 2.347-1.974 4.252-4.404 4.252-.162 0-.324-.008-.484-.027-3.935 7.103-11.48 11.909-20.14 11.909-8.659 0-16.198-4.797-20.135-11.888-.07.004-.137.006-.208.006-2.427 0-4.398-1.905-4.398-4.252 0-1.476.775-2.776 1.958-3.538" data-paper-data="{&quot;origPos&quot;:null}"/><path fill="#353233" d="M24.311 22.65s-.503 1.803-2.082 1.446c-.772-.174-.908-1.201-3.386-.74-.779.18-2.417 1.156-2.732 1.808-.316.652-.088-2.392 2.457-3.522 1.835-.675 2.457-.642 3.977-.642s1.987.907 1.766 1.65m9.741 0s.503 1.803 2.082 1.446c.772-.174.908-1.201 3.386-.74.78.18 2.417 1.156 2.732 1.808.316.652.087-2.392-2.457-3.522-1.835-.675-2.457-.642-3.977-.642s-1.987.907-1.766 1.65M21.694 30c0 1.657-.895 3-2 3s-2-1.343-2-3 .895-3 2-3 2 1.343 2 3m18 0c0 1.657-.895 3-2 3s-2-1.343-2-3 .895-3 2-3 2 1.343 2 3" data-paper-data="{&quot;origPos&quot;:null}"/><path fill="#eeac6c" d="M29.02 33.069c-1.125.153-3.02 1.834-3.02 1.834s.207-1.009.503-1.299C27.303 32.448 28.99 32 28.99 32s2.173.703 2.65 1.588c.443.824.34 1.238.34 1.238s-2.12-1.871-2.96-1.756z"/><path fill="#a33d47" d="M22.2 36.696s6.897 3.208 13.172-.397c0 0-1.39 5.47-5.95 5.561-4.115.122-4.984-1.492-5.477-1.956-.492-.463-1.42-1.772-1.745-3.208" data-paper-data="{&quot;origPos&quot;:null}"/><path fill="#353233" d="M52.171 21.739c.04 2.706-1.164 6.469-1.164 6.469s-6.085-7.241-9.8-9.273c-4.535-2.48-6.795 1.174-10.855-2.042-.672-.536-1.924-1.948-1.924-1.948s-1.528 1.549-1.93 1.947c-4.562 4.485-7.98-.75-11.82 1.96-4.885 3.45-9.016 9.191-9.016 9.191s-1.42-1.631-1.222-6.557c.056-1.418.74-4.565 1.856-7.762C10.327 5.588 18.688 0 28.348 0 39.44 0 48.82 7.376 51.898 17.506a44.4 44.4 0 0 1 .273 4.234" data-paper-data="{&quot;origPos&quot;:null}"/><path fill="#f08314" d="M77.338 26.468c0 7.973-6.43 14.437-14.367 14.437-7.936 0-14.37-6.464-14.37-14.437 0-7.974 6.434-14.437 14.37-14.437 7.936 0 14.367 6.463 14.367 14.437"/><path fill="#c86a14" d="M64.14 38.56c4.703 0 8.903-2.178 11.657-5.583-2.365 4.705-7.22 7.93-12.825 7.93-7.939 0-14.369-6.467-14.369-14.44a14.501 14.501 0 0 1 .55-3.97c-.019.321-.033.645-.033.973 0 8.336 6.724 15.09 15.02 15.09"/><path fill="#f2933d" d="M63.422 12.037a14.315 14.315 0 0 1 10.152 4.688c-.22 3.111-2.798 5.565-5.95 5.565-3.297 0-5.967-2.684-5.967-5.997a5.98 5.98 0 0 1 1.765-4.256"/><path fill="#000001" d="M75.255 18.974c.03.05.058.099.09.15a81.539 81.539 0 0 0-6.173.659c.056 2.147 1.495 3.33 3.16 4.694 1.19.978 2.541 2.088 3.54 3.718.402.655.724 1.357.957 2.09a9.335 9.335 0 0 1-.069.253c-.892-2.956-2.792-4.516-4.526-5.941-1.689-1.386-3.149-2.585-3.21-4.791-1.12.166-2.235.36-3.345.58.434 2.984.451 6.264.047 9.796-.468 4.085-1.428 7.859-2.32 10.716-.054 0-.11.005-.164.005.893-2.853 1.863-6.643 2.33-10.743.342-2.98.436-6.354-.064-9.742-1.994.4-3.968.901-5.912 1.5 1.076 2.323-1.017 4.904-3.437 7.888-1.49 1.837-3.08 3.798-4.188 5.948a1.92 1.92 0 0 1-.1-.123l.002-.004c1.117-2.163 2.738-4.158 4.166-5.919 2.393-2.95 4.467-5.503 3.408-7.743-3.707 1.165-7.516 2.817-10.832 5.147-.002-.067-.004-.133-.004-.198a33.905 33.905 0 0 1 5.02-2.883 45.942 45.942 0 0 1 5.743-2.212c-.606-1.114-2.073-2.073-4.26-2.774-1.214-.389-2.568-.667-3.93-.835.034-.047.068-.096.098-.144 1.38.176 2.716.457 3.882.835 1.565.5 3.584 1.403 4.357 2.873a59.579 59.579 0 0 1 5.963-1.508c-.428-2.817-1.274-5.634-2.73-8.233.066-.002.13-.002.196-.002a22.25 22.25 0 0 1 1.907 4.574c.35 1.19.616 2.401.796 3.628.284-.055.571-.113.858-.165a74.496 74.496 0 0 1 2.51-.418c-.007-1.757.597-3.671 1.656-5.37.042.026.084.053.125.081-1.1 1.755-1.63 3.65-1.63 5.267a80.898 80.898 0 0 1 6.083-.654"/></g></svg>