<svg xmlns="http://www.w3.org/2000/svg" width="56.536" height="113.059"><g fill-rule="evenodd" stroke-miterlimit="10" data-paper-data="{&quot;isPaintingLayer&quot;:true}" style="mix-blend-mode:normal"><path fill="#616160" d="M24.753 50.023a1.231 1.231 0 0 1-2.462 0v-8.398a1.231 1.231 0 1 1 2.463 0v8.398z"/><path fill="#f7b90b" d="M17.995 84.603V51.802a4.91 4.91 0 0 1 4.913-4.907h1.233a4.908 4.908 0 0 1 4.904 4.907v32.801z"/><path fill="#616160" d="M17.996 62.593h11.05v4.233h-11.05zm0 11.343h11.05v4.23h-11.05zm-.309-32.438h3.2v1.348h-3.2z"/><path fill="#c6c5c6" d="M23.987 42.878a2.491 2.491 0 0 1-4.248 1.758 2.48 2.48 0 0 1-.727-1.758 2.48 2.48 0 0 1 2.484-2.483 2.491 2.491 0 0 1 2.491 2.483"/><path fill="#616160" d="M40.453 41.625c0-.675.558-1.228 1.24-1.228.675 0 1.221.553 1.221 1.228v8.398c0 .675-.546 1.228-1.222 1.228a1.238 1.238 0 0 1-1.239-1.228z"/><path fill="#f7b90b" d="M36.16 84.603V51.802a4.91 4.91 0 0 1 4.915-4.907h1.23a4.907 4.907 0 0 1 4.902 4.907v32.801z"/><path fill="#616160" d="M36.158 62.593h11.048v4.233H36.158zm0 11.343h11.048v4.23H36.158zm8.17-32.438h3.192v1.348h-3.193z"/><path fill="#c6c5c6" d="M41.232 42.878a2.484 2.484 0 1 1 4.968 0 2.484 2.484 0 0 1-4.968 0"/><path fill="#333433" d="M54.205 71.614v-.005zm-4.3 0s-1.53-9.78-3.168-12.088c-.815-1.158-1.85-2.083-2.043-2.6 1.277 9.691-.15 23.139-.15 23.139l-1.63 14.103-.443 11.162h-.005c1.732 1.043 2.986 3.254 1.503 5.028-1.12 1.256-2.769.261-4.023-.264-1.382-.66-2.963-1.118-4.225-1.978-.807-.564-1.759-1.183-2.307-2.023-.168-.26-.246-.521-.184-.763h-.01V94.172l-.485-7.175h-.282l-.459 7.171v11.162h-.03c.063.242-.019.503-.187.763-.546.841-1.496 1.459-2.31 2.023-1.254.86-2.836 1.318-4.224 1.978-1.248.524-2.9 1.519-4.017.264-1.483-1.778-.229-3.985 1.501-5.028h-.007l-.43-11.158v-.004l-1.637-14.102h-.004s-1.677-14.816-.08-24.53c-.087.032-8.496 3.419-10.806 2.577C6.89 57.078 3.59 47.72 3.59 47.72v-.007c-1.238-.436 3.654-1.982 3.564-1.742l5.29 6.205 11.152-3.992c1.273-.892 4.085-1.289 5.775-1.454-.278-.626-.455-1.301-.455-1.8h7.301c0 .499-.179 1.185-.472 1.82 1.73.16 4.504.546 5.737 1.439.652.345 6.236 3.335 7.85 5.4 3.405 4.345 4.771 17.107 4.866 17.987v-.005c.451.646-4.333.116-4.293.043z"/><path fill="#0771b7" d="M8.64 110.281c3.62 4.016 13.04 2.495 13.04 2.495s11.151-4.184 10.401-7.117c-.564-2.2-4.634 2.106-9.354-.33-7.512-.696-14.086 4.952-14.086 4.952m47.895 0c-3.603 4.016-13.036 2.495-13.036 2.495s-11.149-4.184-10.397-7.117c.56-2.2 4.648 2.106 9.356-.33 7.52-.696 14.077 4.952 14.077 4.952"/><path fill="#61c6f1" d="M22.85 80.1h-1.638l2.705 14.073zm19.49 0h1.643l-2.705 14.073z"/><path fill="#434344" d="M44.892 75.899c-.165 2.536-.35 4.166-.35 4.166H20.65s-.189-1.629-.373-4.166z"/><path fill="#616160" d="M25.673 79.976a1.997 1.997 0 1 1-3.995 0v-3.68c0-1.1.9-1.997 2-1.997 1.095 0 1.995.897 1.995 1.996v3.68zm5.156 0a1.993 1.993 0 0 1-1.996 1.988 1.997 1.997 0 0 1-2.003-1.989v-3.679a2 2 0 0 1 4 0zm7.544 0a1.995 1.995 0 1 1-3.99-.001v-3.679c0-1.099.892-1.996 2-1.996 1.09 0 1.99.897 1.99 1.996zm5.152 0a1.99 1.99 0 0 1-1.989 1.988 1.992 1.992 0 0 1-1.998-1.989v-3.679c0-1.099.893-1.996 1.998-1.996 1.097 0 1.99.897 1.99 1.996v3.68z"/><path fill="#bd9168" d="M1.762 38.62c1.122-.473 2.468-.04 3.568 1.012.495-.738 1.088-1.156 1.627-1.052 1.02.196 1.488 2.14 1.06 4.338-.158.835-.428 1.592-.754 2.189-.178 1.165-.774 2.101-1.705 2.49-1.726.73-3.974-.688-5.022-3.167-1.053-2.474-.509-5.074 1.225-5.81m53.2 35.402c-.239-2.208-1.674-3.868-3.212-3.705-.83.082-1.515.68-1.94 1.552a6.45 6.45 0 0 0-1.13 1.546c-.864 1.633-.957 3.286-.198 3.681.402.213.967.025 1.536-.443.615 1.092 1.572 1.761 2.58 1.66 1.537-.163 2.585-2.087 2.363-4.291" data-paper-data="{&quot;origPos&quot;:null}"/><path fill="#616160" d="M28.25 46.862c.521 4.809-5.476 14.426-8.365 18.748a85.991 85.991 0 0 1 .077-3.712c2.545-4.153 5.68-10.056 6.22-14.676a22.37 22.37 0 0 1 2.067-.36m16.864 14.88c.068 1.255.105 2.511.112 3.768-2.916-4.361-8.812-13.85-8.306-18.629.698.087 1.39.207 2.077.358.538 4.558 3.595 10.367 6.116 14.503"/><path fill="#bd9168" d="M54.178 26.849c1.125.719 1.865 1.957 1.865 3.355 0 2.22-1.875 4.02-4.19 4.02-.065 0-.13 0-.195-.006-3.753 6.715-10.93 11.258-19.176 11.258-8.25 0-15.437-4.55-19.18-11.276a3.917 3.917 0 0 1-.47.025c-2.315 0-4.19-1.8-4.19-4.02 0-1.501.861-2.809 2.12-3.507a23.101 23.101 0 0 1-.22-3.142c0-12.115 9.824-21.93 21.938-21.93 12.122 0 21.943 9.815 21.943 21.93 0 1.114-.084 2.221-.246 3.294" data-paper-data="{&quot;origPos&quot;:null}"/><path fill="#462a0d" d="M28.343 20.146s-.503 1.803-2.082 1.446c-.772-.174-.908-1.201-3.386-.74-.779.18-2.417 1.156-2.732 1.808-.316.652-.088-2.392 2.457-3.522 1.835-.675 2.457-.642 3.977-.642s1.987.907 1.766 1.65m9.741 0s.503 1.803 2.082 1.446c.772-.174.908-1.201 3.386-.74.78.18 2.417 1.156 2.732 1.808.316.652.087-2.392-2.457-3.522-1.835-.675-2.457-.642-3.977-.642s-1.987.907-1.766 1.65M26.032 27.496c0 1.657-.895 3-2 3s-2-1.343-2-3 .895-3 2-3 2 1.343 2 3m18 0c0 1.657-.895 3-2 3s-2-1.343-2-3 .895-3 2-3 2 1.343 2 3" data-paper-data="{&quot;origPos&quot;:null}"/><path fill="#eeac6c" d="M33.052 30.565c-1.125.153-3.02 1.834-3.02 1.834s.207-1.009.503-1.299c.8-1.156 2.487-1.604 2.487-1.604s2.173.703 2.65 1.588c.443.824.34 1.238.34 1.238s-2.12-1.871-2.96-1.756z"/><path fill="#b15050" d="M26.232 34.192s6.897 3.208 13.172-.397c0 0-1.39 5.47-5.95 5.561-4.115.122-4.984-1.492-5.477-1.956-.492-.463-1.42-1.772-1.745-3.208" data-paper-data="{&quot;origPos&quot;:null}"/><path fill="#f7b90b" d="M55.296 20.698c.032 2.573-.866 8.146-2.623 11.46 0 0-4.318-12.204-7.873-14.13-4.348-2.36-15.795 1.04-19.678-2.024-.645-.507-.57-1.656-.57-1.656s-.75 1.472-1.1 1.877c-1.889 2.137-6.765 5.235-9.085 6.895-1.86 1.343-1.943 1.32-1.536 9.039 0 0-3.422-7.013-3.228-11.709.055-1.344.703-4.339 1.773-7.384C15.236 5.32 23.24 0 32.486 0 43.11 0 52.092 7.026 55.03 16.666c.151 1.34.24 2.685.267 4.032"/><path fill="#333433" d="M32.545 44.013c9.388 0 16.995-5.9 16.995-13.18 0-7.278-7.607-13.182-16.995-13.182-9.389 0-17.002 5.904-17.002 13.182 0 7.28 7.613 13.18 17.002 13.18m21.911-16.971c.967.74 1.587 1.879 1.587 3.16 0 2.222-1.876 4.022-4.19 4.022-.066 0-.132 0-.196-.005-3.753 6.714-10.93 11.257-19.177 11.257-8.249 0-15.435-4.55-19.177-11.275a3.915 3.915 0 0 1-.47.024c-2.316 0-4.193-1.801-4.193-4.022 0-1.478.828-2.767 2.057-3.468-.649-2.058-1.172-4.365-1.094-6.285.057-1.345.702-4.34 1.772-7.382C15.235 5.319 23.24 0 32.486 0 43.11 0 52.093 7.024 55.03 16.666c.151 1.339.24 2.684.267 4.031.017 1.462-.267 3.91-.84 6.346"/><path fill="#b96316" d="M47.544 41.495c-2.733-2.666-11.153.433-14.874-3.402v4.817s8.386-2.67 14.85-.063c.31.13.26-1.114.024-1.352m-29.885 0c2.725-2.666 11.138.433 14.885-3.402v4.817s-8.393-2.67-14.858-.063c-.313.13-.275-1.114-.027-1.352"/><path fill="#565657" d="M37.775 40.506a5.13 5.13 0 0 1-5.13 5.13c-2.83 0-5.136-2.3-5.136-5.13a5.137 5.137 0 0 1 5.135-5.132 5.13 5.13 0 0 1 5.13 5.133"/><path fill="#333433" d="M35.06 40.506a2.415 2.415 0 0 1-4.83-.001 2.413 2.413 0 0 1 2.412-2.413 2.413 2.413 0 0 1 2.417 2.415"/><path fill="#c6c5c6" d="M49.023 31.983c1.405-1.883 1.336-6.078.202-7.113-6.12-5.607-26.607-5.018-33.227 0-1.22.923-1.203 5.215.204 7.1 2.186 2.93 12.358-.949 14.626-3.807.815-1.029 2.76-1.043 3.57-.023 2.271 2.869 12.442 6.777 14.625 3.843m1.896-8.204c1.317 1.209 1.402 7.215-.236 9.419-2.553 3.423-13.327.152-15.98-3.198-.947-1.193-3.226-1.176-4.177.022-2.644 3.34-13.428 6.584-15.974 3.165-1.643-2.21-1.667-8.32-.234-9.408 7.725-5.851 29.443-6.545 36.601 0"/><path fill="#eeeeed" d="M19.783 24.878a.621.621 0 0 1-.188.869l-2.185 1.41a.628.628 0 0 1-.87-.184l-.006-.011a.623.623 0 0 1 .19-.867l2.182-1.415a.637.637 0 0 1 .873.19zm-.9 3.09a.701.701 0 0 1-.7.698.702.702 0 0 1 0-1.402.7.7 0 0 1 .7.704"/></g></svg>