<svg xmlns="http://www.w3.org/2000/svg" width="51.072" height="112.939"><g fill-rule="evenodd" stroke-miterlimit="10" data-paper-data="{&quot;isPaintingLayer&quot;:true}" style="mix-blend-mode:normal"><path fill="#ffdc83" d="M49.382 36.071c1.018.661 1.69 1.786 1.69 3.064 0 2.034-1.706 3.682-3.806 3.682-.06 0-.117-.002-.177-.004-3.406 6.138-9.934 10.291-17.426 10.291-7.5 0-14.032-4.161-17.437-10.312a3.768 3.768 0 0 1-.424.025c-2.105 0-3.809-1.648-3.809-3.682 0-1.372.78-2.572 1.93-3.204a20.355 20.355 0 0 1-.203-2.875c0-11.071 8.93-20.047 19.943-20.047 11.013 0 19.941 8.976 19.941 20.047.001 1.01-.073 2.017-.223 3.015" data-paper-data="{&quot;origPos&quot;:null}"/><path fill="#804e19" d="M23.23 30.321c-.773-.174-.909-1.201-3.387-.74-.779.18-2.417 1.156-2.732 1.808-.316.652-.088-2.392 2.457-3.522 1.835-.675 2.457-.642 3.977-.642s1.987.907 1.766 1.65c0 0-.503 1.803-2.082 1.446zm13.904 0c.772-.174.908-1.201 3.386-.74.78.18 2.417 1.156 2.732 1.808.316.652.087-2.392-2.457-3.522-1.835-.675-2.457-.642-3.977-.642s-1.987.907-1.766 1.65c0 0 .503 1.803 2.082 1.446zM23 36.225c0 1.657-.895 3-2 3s-2-1.343-2-3 .895-3 2-3 2 1.343 2 3m18 0c0 1.657-.895 3-2 3s-2-1.343-2-3 .895-3 2-3 2 1.343 2 3" data-paper-data="{&quot;origPos&quot;:null}"/><path fill="#eeac6c" d="M30.02 39.294c-1.125.153-3.02 1.834-3.02 1.834s.207-1.009.503-1.299c.8-1.156 2.487-1.604 2.487-1.604s2.173.703 2.65 1.588c.443.824.34 1.238.34 1.238s-2.12-1.871-2.96-1.756zM23.2 42.921s6.897 3.208 13.172-.397c0 0-1.39 5.47-5.95 5.561-4.115.122-4.984-1.492-5.477-1.956-.492-.463-1.42-1.772-1.745-3.208"/><path fill="#804e19" d="M50.395 30.444c.031 2.354-.79 7.45-2.386 10.486 0 0-3.923-11.16-7.153-12.926-3.948-2.16-14.36.953-17.89-1.847-.585-.464-.52-1.518-.52-1.518s-.674 1.341-1 1.715c-1.71 1.957-6.145 4.79-8.25 6.31-1.69 1.221-1.77 1.209-1.395 8.266 0 0-3.112-6.422-2.94-10.706.05-1.236.647-3.975 1.617-6.76 3.506-7.08 10.78-11.943 19.183-11.943 9.654 0 17.816 6.417 20.497 15.239.135 1.224.214 2.453.237 3.684" data-paper-data="{&quot;origPos&quot;:null}"/><path fill="#343434" d="M8.82 29.768V4.556C8.82 2.02 10.885 0 13.413 0h32.414a4.535 4.535 0 0 1 4.553 4.556v25.212z"/><path fill="#e63744" d="m29.715 21.321.936 1.907 2.094.307-1.514 1.485.356 2.095-1.872-.99-1.872.99.355-2.096-1.514-1.484 2.095-.307z"/><path fill="#343434" d="m19.887 99.591-1.103-14.768h21.724l-1.1 14.768h-9.466l-.169-8.447h-.252l-.168 8.447z"/><path fill="#515151" d="m29.317 100.706-.24 7.075c.052.222-.018.455-.172.695-.497.769-1.365 1.333-2.099 1.853-1.14.783-2.577 1.208-3.84 1.81-1.14.481-2.638 1.392-3.658.245-1.346-1.625-.204-3.611 1.372-4.594l-.615-6.359h-.364a1.834 1.834 0 0 1-1.83-1.84c0-1.016.82-1.838 1.83-1.838h8.176a1.826 1.826 0 0 1 1.44 2.952z"/><path fill="#515151" d="m39.232 101.431-.613 6.358c1.572.985 2.718 2.965 1.37 4.59-1.019 1.145-2.518.24-3.658-.245-1.26-.602-2.7-1.023-3.84-1.807-.734-.518-1.602-1.078-2.099-1.848-.154-.238-.227-.473-.17-.696l-.25-7.245a1.82 1.82 0 0 1-.268-.955c0-1.017.82-1.83 1.83-1.83h8.174a1.834 1.834 0 0 1 1.83 1.838c0 1.016-.819 1.84-1.83 1.84z"/><path fill="#e63744" d="M45.15 76.621s-1.129-8.94-2.616-11.056l-.217-.314c1.45 8.653 1.273 19.533 1.273 19.533l.006 4.138-8.43 4.655-5.008-11.668-6.112 11.668-8.247-4.688-.01-4.103s-.22-13.44 1.824-22.324c-.514.234-6.645 2.994-8.665 2.256-2.613-.951-6.467-9.083-6.467-9.083l4.175-2.064 4.732 5.713 9.352-3.689c1.821-1.198 7.35-1.394 7.35-1.394l1.533.048h.131l1.535-.048s5.506.179 7.34 1.371c.74.41 4.843 2.734 6.26 4.554 3.206 4.115 4.434 16.5 4.434 16.5l-4.173-.005"/><path fill="#ffdc83" d="M1.64 46.736c1.05-.447 2.305-.038 3.33.95.46-.701 1.005-1.088 1.511-.992.948.186 1.393 2.005.994 4.067a7.24 7.24 0 0 1-.71 2.053c-.17 1.092-.719 1.966-1.582 2.332-1.608.686-3.707-.642-4.686-2.965-.98-2.323-.466-4.761 1.142-5.445m48.473 32.485c-.218-2.07-1.558-3.624-2.99-3.471-.772.082-1.409.64-1.806 1.46-.377.37-.745.865-1.053 1.448-.807 1.531-.89 3.074-.185 3.448.375.203.9.025 1.43-.414.571 1.023 1.466 1.652 2.402 1.552 1.433-.15 2.42-1.955 2.202-4.023" data-paper-data="{&quot;origPos&quot;:null}"/><path fill="#f7b90b" d="m37.622 92.218-2.455 1.354-14.12-32.944.074-.043-.077-.12 6.196-4.138c-.357-.136-.65-.307-.85-.506-.525-.526 0-2.986 0-2.986 1.065.178 2.16.268 3.271.268 1.126 0 2.228-.092 3.303-.272 0 0 .468 2.407 0 2.99-.03.034-.062.069-.097.105l.01.016-.116.078a1.9 1.9 0 0 1-.293.198l-7.99 5.334z"/><path fill="#343434" d="M43.571 81.03c.045 2.298.02 3.79.02 3.79H15.79s-.025-1.492.017-3.79h27.766"/><path fill="#f7b90b" d="M3.98 58.515c-1.67-.743-1.499-2.88-1.499-2.88l4.175-2.066s2.317 1.764 2.142 2.586c-.28 1.318-3.592 2.904-4.817 2.36m44.917 14.852c1.466 1.267.42 3.236.424 3.293h-.915l-3.257-.021s-1.548-1.73-.49-3.272c.598-.878 3.435-.694 4.238 0"/></g></svg>