<svg xmlns="http://www.w3.org/2000/svg" width="120" height="120"><g fill="none" fill-rule="evenodd"><path fill="#FCAE04" d="M17.632 111.366H120V9H17.632z"/><path fill="#FCDA04" d="M0 111.366h102.368V9H0z"/><path fill="#FCAE04" d="M26.839 28.17a7.668 7.668 0 1 1-15.336 0 7.669 7.669 0 1 1 15.336 0m0 64.025a7.67 7.67 0 0 1-7.668 7.669 7.67 7.67 0 0 1 0-15.337 7.67 7.67 0 0 1 7.668 7.668M90.865 28.17a7.668 7.668 0 1 1-15.336 0 7.669 7.669 0 1 1 15.336 0m0 64.025a7.67 7.67 0 0 1-7.668 7.669 7.67 7.67 0 0 1 0-15.337 7.67 7.67 0 0 1 7.668 7.668"/></g></svg>