<svg xmlns="http://www.w3.org/2000/svg" width="108.555" height="117.122"><g fill-rule="evenodd" stroke-miterlimit="10" data-paper-data="{&quot;isPaintingLayer&quot;:true}" style="mix-blend-mode:normal"><path fill="#333433" d="M20.962 47.749c7.984 12.449 18.632 2.063 15.01-8.945-2.63-7.988 11.644 2.598 11.644 2.598s-8.357 23.16-15.61 23.505c-7.25.346-11.07-10.988-11.044-17.158" data-paper-data="{&quot;origPos&quot;:null}"/><path fill="#77574b" d="M48.232 110.674V99.296h9.847l-.446 11.378h-.009c1.761 1.1 3.044 3.332 1.533 5.15-1.139 1.283-2.818.27-4.092-.27-1.409-.674-3.02-1.146-4.295-2.025-.824-.577-1.792-1.207-2.346-2.069-.172-.267-.253-.537-.192-.786m-10.396 0h-.006l-.449-11.378h9.848v11.378h-.002c.063.26-.017.52-.19.786-.556.862-1.525 1.492-2.348 2.07-1.275.878-2.885 1.35-4.293 2.024-1.277.54-2.954 1.553-4.092.27-1.51-1.818-.23-4.056 1.532-5.15" data-paper-data="{&quot;origPos&quot;:null}"/><path fill="#333433" d="M57.61 111.34s-1.828-1.148-5.926 0c-1.657.194-2.17-1.35-2.947-1.692-.392-.173-.505 0-.505 0v1.692c-.06.251.02.529.193.793.555.863 1.524 1.501 2.345 2.081 1.277.877 2.887 1.347 4.295 2.019 1.277.539 2.952 1.549 4.092.266 1.51-1.819.23-4.029-1.532-5.159h.008v-.008l-.023.008m-19.76 0s1.828-1.148 5.928 0c1.658.194 2.172-1.35 2.947-1.692.392-.173.507 0 .507 0l-.002 1.692c.061.251-.019.529-.19.793-.56.863-1.526 1.501-2.348 2.081-1.277.877-2.885 1.347-4.295 2.019-1.277.539-2.952 1.549-4.094.266-1.509-1.819-.23-4.029 1.534-5.159h-.01v-.008l.023.008"/><path fill="#77574b" d="M25.188 77.41c.105-.997.44-1.888.91-2.575l-.006.065s1.406-14.168 5.07-18.88c1.682-2.158 7.486-5.291 8.16-5.651 1.282-.932 4.17-1.353 5.97-1.524l6.627-.015c1.765.173 4.687.595 6.011 1.522L61 51.458c2.88.92 5.725 1.945 8.53 3.072l5.5-6.49a4.737 4.737 0 0 1-.207-.836c-.352-.647-.64-1.454-.817-2.356-.457-2.356.052-4.438 1.138-4.648.58-.114 1.205.33 1.731 1.131 1.168-1.13 2.608-1.601 3.811-1.09 1.84.787 2.425 3.577 1.306 6.234-.719 1.706-1.964 2.941-3.25 3.403 0 0-3.432 9.787-6.419 10.879-2.417.88-11.246-2.687-11.246-2.687v-.012C62.735 68.228 61 83.761 61 83.761H36.14s-1.49-14.1-.157-24.233v.007c-.195.535-1.27 1.494-2.122 2.703-1.702 2.42-3.297 12.656-3.297 12.656.038.067.078.139.111.21a6.8 6.8 0 0 1 1.203 1.66c.927 1.75 1.021 3.52.216 3.947-.43.23-1.03.028-1.639-.474-.652 1.17-1.675 1.89-2.748 1.779-1.64-.175-2.767-2.238-2.518-4.606" data-paper-data="{&quot;origPos&quot;:null}"/><path fill="#333433" d="M30.157 56.423c1.684-2.156 7.486-5.291 8.163-5.651 1.28-.932 4.17-1.36 5.965-1.528l6.628-.017c1.765.173 4.69.596 6.014 1.528l3.067 1.104c2.88.92 5.727 1.946 8.533 3.074l5.482-6.469 3.972 1.718c-.084.038-.163.067-.245.099 0 0-3.43 9.787-6.416 10.879-2.407.876-11.16-2.649-11.246-2.683.784 4.803.807 10.8.616 15.79l-26.18.351c-.16-4.566-.14-10.038.466-14.678-.197.537-1.27 1.492-2.12 2.701-1.447 2.059-2.818 9.758-3.19 12.024h-4.512c.33-2.81 1.805-14.131 5.003-18.242"/><path fill="#77574b" d="M49.624 51.785H45.93c-1.055 0-1.91-2.28-1.91-3.32h7.515c0 1.04-.855 3.32-1.91 3.32" data-paper-data="{&quot;origPos&quot;:null}"/><path fill="#eeac6c" d="M44.81 50.694a5.537 5.537 0 0 1-.79-2.2c1.19.194 2.414.297 3.66.297a22.4 22.4 0 0 0 3.822-.327l-.012.017-6.68 2.213"/><path fill="#e63744" d="M34.418 59.818c.023-.12.1-.196.164-.335.052.052.308-.125.43-.207 1.12-.778 3.65-3.51 3.67-9.51l.006-.008c1.11-.708 3.186-1.091 4.815-1.294 0 0 .3 10.991 4.198 10.983 3.887-.01 4.115-10.98 4.115-10.98 1.472.172 3.29.495 4.431 1.072.14.07.256.126.371.202 0 0 .01.198.036.527.143 1.715.813 7.046 3.662 7.282 1.893 7.409 1.226 18.729.77 23.999-.158 1.797-.483 2.884-.483 2.884s-2.136 9.586-2.362 14.655h-9.848c.04-1.283-.499-7.377-.499-7.377h-.283s-.555 5.71-.496 7.377h-9.85c-.265-4.298-2.51-14.655-2.51-14.655s-.358-1.093-.555-2.887c-.522-4.806-1.28-14.606.218-21.728"/><path fill="#eeeeed" d="M56.658 50.571c-.539 3.054 2.56 9.761 5.117 10.148a29.073 29.073 0 0 0-.409-1.862c-2.849-.238-3.522-5.567-3.662-7.283-.03-.33-.038-.526-.038-.526-.113-.078-.23-.133-.368-.203a5.919 5.919 0 0 0-.64-.274M35.635 61.963c2.64.343 6.158-8.024 5.544-11.392-.39.129-.764.302-1.115.517l-.007.01c-.016 5.998-2.546 8.73-3.67 9.508-.12.084-.377.259-.43.206-.063.141-.14.217-.163.335-.057.268-.11.542-.159.816m13.581-1.132c-4.02.011-4.983-8.949-5.197-12.232.338-.05.667-.099.983-.135 0 0 .3 10.992 4.2 10.982 3.887-.01 4.114-10.98 4.114-10.98.333.039.666.083.997.133-.188 3.275-1.09 12.222-5.097 12.232"/><path fill="#77574b" d="M27.05 30.048a22.735 22.735 0 0 1-.249-3.378c0-12.403 10-22.456 22.337-22.456 12.336 0 22.337 10.053 22.337 22.456 0 1.096-.078 2.17-.229 3.222 1.29.708 2.16 2.048 2.16 3.584 0 2.278-1.91 4.126-4.264 4.126-.162 0-.319-.008-.474-.025-3.815 6.888-11.13 11.549-19.53 11.549-8.393 0-15.702-4.653-19.517-11.53a3.386 3.386 0 0 1-.204.006c-2.356 0-4.263-1.848-4.263-4.126 0-1.43.752-2.69 1.897-3.428" data-paper-data="{&quot;origPos&quot;:null}"/><path fill="#e74b1d" d="M44.311 23.65s-.503 1.803-2.082 1.446c-.772-.174-.908-1.201-3.386-.74-.779.18-2.417 1.156-2.732 1.808-.316.652-.088-2.392 2.457-3.522 1.835-.675 2.457-.642 3.977-.642s1.987.907 1.766 1.65m9.741 0s.503 1.803 2.082 1.446c.772-.174.908-1.201 3.386-.74.78.18 2.417 1.156 2.732 1.808.316.652.087-2.392-2.457-3.522-1.835-.675-2.457-.642-3.977-.642s-1.987.907-1.766 1.65"/><path fill="#333433" d="M42 31c0 1.657-.895 3-2 3s-2-1.343-2-3 .895-3 2-3 2 1.343 2 3m18 0c0 1.657-.895 3-2 3s-2-1.343-2-3 .895-3 2-3 2 1.343 2 3" data-paper-data="{&quot;origPos&quot;:null}"/><path fill="#eeac6c" d="M49.02 34.069c-1.125.153-3.02 1.834-3.02 1.834s.207-1.009.503-1.299C47.303 33.448 48.99 33 48.99 33s2.173.703 2.65 1.588c.443.824.34 1.238.34 1.238s-2.12-1.871-2.96-1.756zM42.2 37.696s6.897 3.208 13.172-.397c0 0-1.39 5.47-5.95 5.561-4.115.122-4.984-1.492-5.477-1.956-.492-.463-1.42-1.772-1.745-3.208"/><path fill="#ad6921" d="M61.236 26.7c-1.823-1.131-4.502-1.847-4.502-1.847-.32-.595-.036-1.608.386-1.667 1.337-.192 4.116 3.514 4.116 3.514m-25.6 0c1.82-1.131 4.501-1.847 4.501-1.847.32-.595.036-1.608-.383-1.667-1.34-.192-4.12 3.514-4.12 3.514"/><path fill="#ad6921" d="M71.452 23.193c.038 2.623-1.125 6.273-1.125 6.273s-5.9-7.023-9.5-8.991c-4.402-2.411-6.597 1.136-10.529-1.981-.652-.52-1.866-1.892-1.866-1.892s-1.48 1.5-1.876 1.892c-4.418 4.347-7.732-.729-11.457 1.899-4.738 3.344-8.743 8.911-8.743 8.911s-1.375-1.58-1.183-6.355c.055-1.378.72-4.431 1.797-7.533C30.883 7.525 38.99 2.107 48.35 2.107c10.757 0 19.852 7.15 22.84 16.984a43.65 43.65 0 0 1 .261 4.102"/><path fill="#333433" d="m25.154 25.661.66-2.482 1.96.805s-.736 17.752 21.6 23.618c-21.223.108-24.22-21.942-24.22-21.942z"/><path fill="#333433" d="M72.435 25.66s-3 22.05-24.223 21.942c22.338-5.866 21.6-23.618 21.6-23.618l1.96-.805.663 2.482z"/><path fill="#dbdbdb" d="M58.652 1.621c8.282 3.101 14.866 10.824 14.866 24.7-3.647 4.86-18.112-1.75-24.168-1.75-6.066 0-20.698 6.729-24.196 1.749 0-13.593 6.726-21.836 15.66-24.923C43.79.37 47.694 0 49.382 0c1.995 0 7.516.914 9.27 1.62"/><path fill="#333433" d="M31.638 17.496c.354 1.64.168 3.07-.413 3.199-.583.126-1.344-1.098-1.698-2.737-.356-1.64-.17-3.073.411-3.199.585-.126 1.344 1.1 1.7 2.737m-4.194 6.321c.354 1.638.168 3.073-.413 3.201-.582.124-1.34-1.1-1.696-2.737-.356-1.64-.17-3.072.41-3.2.584-.125 1.343 1.097 1.7 2.736m37.715-6.321c-.352 1.64-.17 3.07.413 3.199.583.126 1.341-1.098 1.698-2.737.352-1.64.17-3.073-.413-3.199-.585-.126-1.342 1.1-1.698 2.737m4.195 6.321c-.357 1.638-.172 3.073.41 3.201.583.124 1.344-1.1 1.698-2.737.355-1.64.172-3.072-.41-3.2-.585-.125-1.342 1.097-1.698 2.736"/><path fill="#c6c5c6" d="m81.03 40.036 1.413 1.942-57.97 42.639-1.415-1.945z"/><path fill="#ef8214" d="M81.07 42.434c-.557-.227-1.43-1.342-1.416-1.945 6.98-7.231 8.11-16.012 14.43-18.26 6.314-2.244 13.954-1.237 14.447 3.127.59 5.255-9.886 13.108-14.772 15.068-2.983 1.195-7.106-.24-12.69 2.01"/><path fill="#cb6f1a" d="m82.82 41.546-1.07-1.47c7.016-5.16 22.253-14.79 22.253-14.79S90.151 36.627 82.82 41.547z"/><path fill="#f3ab6c" d="m82.26 41.547-.51-.7 21.693-15.561s-13.85 11.34-21.184 16.26"/><path fill="#cb6f1a" d="m21.458 83.637-.497-.683 3.92-2.883.497.683z"/><path fill="#ef8214" d="M26.536 81.456c-4.077 4.319-4.572 7.866-6.743 10.177-3.562 3.783-14.16 11.47-18.189 10.378-3.34-.906-1.084-7.289 3.284-12.21 4.371-4.925 11.957-4.839 20.64-9.73.494.055 1.046.905 1.008 1.385"/><path fill="#cb6f1a" d="M25.925 83.226c-6.946 5.449-21.733 15.5-21.733 15.5s13.97-11.395 20.972-16.547z"/><path fill="#f3ab6c" d="M25.925 82.676c-6.946 5.449-21.732 15.5-21.732 15.5l21.37-15.997.362.497"/><path fill="#ef8214" d="M78.254 44.25c.251.502.335.891.192.999-.146.103-.488-.095-.888-.49zm.247-1.606-.69.508c-.242-.496-.326-.877-.184-.982.143-.102.48.09.874.474"/><path fill="#ef8214" d="M78.97 44.419a7.13 7.13 0 0 1-.777-.91 7.186 7.186 0 0 1-.635-1.035l.34-.331c.177.314.404.729.67 1.091.26.356.57.721.822.96zM30.044 80.071c.25.504.338.894.193 1.001-.147.106-.486-.094-.89-.486zm-1.85-1.605-.692.506c-.24-.496-.325-.875-.182-.98.142-.103.48.09.874.474"/><path fill="#ef8214" d="M28.663 80.242a7.308 7.308 0 0 1-.774-.912 6.855 6.855 0 0 1-.639-1.037l.34-.329c.18.316.41.727.672 1.092.262.358.57.72.822.956z"/><path fill="#77574b" d="M73.46 44.359c-.33-2.23.232-4.16 1.257-4.314 1.025-.153 2.124 1.53 2.455 3.755.331 2.23-.23 4.16-1.256 4.314-1.023.151-2.123-1.525-2.456-3.755M30.116 80.048c-.956-1.867-1.03-3.74-.174-4.182l.863-.009c.797.285 1.74 1.254 2.42 2.588.954 1.867 1.031 3.742.171 4.184-.859.443-2.326-.714-3.28-2.581" data-paper-data="{&quot;origPos&quot;:null}"/></g></svg>