<svg xmlns="http://www.w3.org/2000/svg" width="76.192" height="120"><g fill-rule="evenodd" stroke-miterlimit="10" data-paper-data="{&quot;isPaintingLayer&quot;:true}" style="mix-blend-mode:normal"><path fill="#a0764c" d="M38.852 63.197c-9.073 0-17.637-3.031-24.115-8.537-6.7-5.693-10.39-13.33-10.39-21.5h9.507c0 11.321 11.214 20.532 24.998 20.532zM63.74 81.607c-.563-4.938-3.315-9.552-7.75-12.992-4.661-3.616-10.748-5.608-17.138-5.608v-9.505c8.49 0 16.645 2.7 22.964 7.602 6.475 5.023 10.513 11.921 11.37 19.425zm-30.32 37.728L20.52 118.04l3.493-25.798 11.26.983z" data-paper-data="{&quot;origPos&quot;:null}"/><path fill="#a0764c" d="M33.181 119.335 20.28 118.04l3.493-25.798 11.261.983zm10.795-.015-1.88-26.652 11.228-.954 3.556 26.342z" data-paper-data="{&quot;origPos&quot;:null}"/><path fill="#fff" d="m55.297 104.665 1.822 13.376-12.901 1.294-1.053-14.67zm-32.967 0-1.81 13.376 12.902 1.294 1.04-14.67z"/><path fill="#534741" d="M33.366 110.516h-.91c-.387 0-.762.165-1.052.46-1.02 1.042-2.792 1.741-4.78 1.741-2.268 0-4.136-.91-4.877-2.2-2.863.015-5.511 2.605-5.936 5.917l-.256 1.993c-.064.5.236.908.672.908h16.462c.413 0 .764-.369.804-.842l.6-7.093c.04-.479-.293-.884-.727-.884m10.735 0h.91c.387 0 .762.165 1.052.46 1.02 1.042 2.792 1.741 4.779 1.741 2.269 0 4.137-.91 4.878-2.2 2.863.015 5.512 2.605 5.936 5.917l.256 1.993c.064.5-.236.908-.671.908H44.779c-.413 0-.765-.369-.805-.842l-.601-7.093c-.04-.479.294-.884.728-.884"/><path fill="#fff" d="m33.543 117.897-.05.596c-.04.473-.391.842-.804.842H16.227c-.436 0-.736-.408-.672-.908l.068-.53zm10.38 0 .05.596c.04.473.393.842.806.842H61.24c.435 0 .735-.408.67-.908l-.067-.53z"/><path fill="#e6e6e6" d="M37.776 93.684H22.71l.76-13.344h16.674z"/><path fill="#e6e6e6" d="M54.994 93.684H39.929L37.56 80.34h16.293z"/><path fill="#ecba97" d="M31.628 50.08a7.225 7.225 0 1 1 14.447 0 7.225 7.225 0 0 1-14.446 0"/><path fill="#e3544f" d="M56.268 83.624a1.46 1.46 0 0 1-1.45 1.632h-32.67c-.476 0-.842-.508-.775-1.076l3.21-27.08a1.46 1.46 0 0 1 1.45-1.288h25.64c.74 0 1.364.554 1.45 1.289z"/><path fill="#e3544f" d="M55.812 68.946a.473.473 0 0 1-.298-.106c-4.553-3.455-10.47-5.357-16.662-5.357-2.132 0-3.445-.923-4.17-1.697a5.447 5.447 0 0 1-1.445-3.692c0-1.347.496-2.59 1.395-3.5 1.013-1.026 2.472-1.568 4.22-1.568 7.216 0 14.13 1.888 19.997 5.459.184.112.27.334.209.54-1.064 3.598-2.664 9.044-2.774 9.51a.476.476 0 0 1-.472.411"/><path fill="#e3544f" d="M38.852 52.551c7.304 0 14.304 1.912 20.244 5.528a.95.95 0 0 1 .418 1.081c-1.041 3.52-2.613 8.867-2.763 9.463a.951.951 0 0 1-1.53.592c-4.47-3.39-10.281-5.257-16.37-5.257-3.954 0-6.09-3.021-6.09-5.864 0-1.473.545-2.835 1.533-3.835 1.104-1.118 2.68-1.708 4.558-1.708m0 .951c-7.16 0-6.54 9.505 0 9.505s12.5 2.074 16.96 5.463c-.012-.102 2.79-9.579 2.79-9.579-5.75-3.501-12.59-5.389-19.75-5.389"/><path fill="#e3544f" d="M38.835 63.433c-7.21-.003-14.118-1.89-19.98-5.458a.476.476 0 0 1-.21-.54c.93-3.18 2.693-9.221 2.783-9.552a.475.475 0 0 1 .755-.27c4.549 3.456 10.462 5.36 16.652 5.364.263 0 .475.213.475.475v9.506a.476.476 0 0 1-.475.475z"/><path fill="#e3544f" d="M21.892 47.038a.95.95 0 0 1 .59.206c4.466 3.388 10.273 5.254 16.353 5.258a.95.95 0 0 1 .95.95v9.506a.95.95 0 0 1-.951.95c-7.296-.003-14.29-1.914-20.226-5.527a.95.95 0 0 1-.418-1.079c1.07-3.664 2.68-9.188 2.779-9.54a.951.951 0 0 1 .923-.724m0 .95c-.01.061-2.79 9.58-2.79 9.58 5.746 3.498 12.58 5.387 19.733 5.39v-9.506c-6.533-.003-12.488-2.077-16.943-5.463m0-.001" data-paper-data="{&quot;origPos&quot;:null}"/><path fill="#e3544f" d="M38.849 59.635c-2.31 0-4.494-.617-6.15-1.737-1.688-1.143-2.638-2.68-2.675-4.328-.03-1.273.492-2.5 1.505-3.547 1.613-1.667 4.3-2.68 7.188-2.712h.138c2.31 0 4.495.616 6.15 1.736 1.689 1.143 2.64 2.68 2.676 4.328.029 1.273-.492 2.5-1.505 3.547-1.613 1.668-4.3 2.681-7.19 2.712h-.136"/><path fill="#fff" d="M38.855 47.026c2.367 0 4.608.634 6.31 1.785 1.767 1.196 2.762 2.815 2.8 4.558.032 1.351-.517 2.648-1.585 3.751-1.664 1.722-4.427 2.768-7.39 2.8h-.14c-2.367 0-4.608-.634-6.31-1.786-1.767-1.196-2.762-2.814-2.802-4.558-.03-1.351.518-2.648 1.586-3.751 1.664-1.721 4.427-2.767 7.39-2.799h.14m0 .57-.134.001c-4.718.05-8.484 2.721-8.411 5.966.072 3.215 3.883 5.786 8.54 5.786h.135c4.719-.05 8.485-2.722 8.412-5.967-.072-3.214-3.883-5.786-8.541-5.786"/><path fill="#a0764c" d="M38.85 57.823c-1.907 0-3.711-.51-5.08-1.434-1.4-.948-2.188-2.225-2.22-3.596-.022-1.059.41-2.079 1.25-2.949 1.335-1.379 3.556-2.217 5.94-2.242h.114c1.908 0 3.712.509 5.08 1.434 1.4.948 2.188 2.225 2.22 3.595.023 1.06-.41 2.08-1.251 2.95-1.334 1.378-3.554 2.216-5.94 2.242h-.113" data-paper-data="{&quot;origPos&quot;:null}"/><path fill="#fff" d="M38.855 47.316c1.963 0 3.824.527 5.238 1.484 1.479 1.001 2.312 2.359 2.345 3.825.026 1.137-.434 2.228-1.331 3.153-1.385 1.433-3.68 2.304-6.14 2.33l-.117.001c-1.964 0-3.824-.528-5.238-1.484-1.48-1.001-2.313-2.36-2.345-3.825-.026-1.138.434-2.228 1.33-3.154 1.385-1.433 3.68-2.303 6.14-2.33h.118m-.001.571h-.11c-3.875.041-6.967 2.235-6.907 4.9.059 2.639 3.188 4.751 7.014 4.751h.11c3.875-.042 6.967-2.235 6.907-4.9-.06-2.64-3.19-4.752-7.013-4.752"/><path fill="#42210b" d="M39.46 2.19a25.198 25.198 0 0 1 13.972 4.383l.032-3.1a2.261 2.261 0 1 1 4.522.048l-.044 4.184a2.601 2.601 0 0 0 2.57 2.626l4.184.044a2.26 2.26 0 1 1-.048 4.521l-3.523-.037a25.198 25.198 0 0 1 3.387 12.919l-.053 5.064-50.64-.535.054-5.064c.148-13.984 11.603-25.2 25.587-25.052"/><path fill="#42210b" d="m14.396 31.742 49.498.523.047-4.493a24.72 24.72 0 0 0-3.31-12.627l-.502-.868 4.526.048a1.694 1.694 0 0 0 1.707-1.672 1.677 1.677 0 0 0-.482-1.2 1.678 1.678 0 0 0-1.19-.507l-4.184-.045A3.173 3.173 0 0 1 57.37 7.7l.044-4.184a1.68 1.68 0 0 0-.482-1.2 1.68 1.68 0 0 0-1.19-.508h-.018c-.924 0-1.68.747-1.69 1.672l-.044 4.166-.881-.6a24.636 24.636 0 0 0-13.656-4.283l.006-.571-.006.57h-.268c-6.512 0-12.65 2.502-17.31 7.065a24.588 24.588 0 0 0-7.432 17.423l-.048 4.493zm50.628 1.677-51.781-.547.06-5.635c.072-6.916 2.834-13.389 7.775-18.227 4.875-4.773 11.296-7.392 18.107-7.392l.28.002a25.772 25.772 0 0 1 13.407 3.907l.022-2.06a2.835 2.835 0 0 1 2.83-2.802h.03a2.82 2.82 0 0 1 1.995.851c.529.54.816 1.255.808 2.01l-.045 4.185a2.03 2.03 0 0 0 2.007 2.049l4.184.044c.757.008 1.465.31 1.994.85.529.54.816 1.255.808 2.011a2.835 2.835 0 0 1-2.831 2.802h-.03l-2.545-.027c2 3.791 3.03 8.038 2.984 12.344l-.06 5.635z"/><path fill="#c0956a" d="M62.386 30.162a5.303 5.303 0 0 1 .11 10.604l-1.06.012a5.325 5.325 0 0 1-.792-.058c-3.001 8.832-11.313 15.231-21.17 15.335-9.918.105-18.406-6.196-21.545-15.05a5.3 5.3 0 0 1-1.55.249l-1.06.011a5.303 5.303 0 1 1-.112-10.605l1.06-.011c.112-.001.22.007.33.013l-.016-1.496C16.449 16.68 26.463 6.452 38.949 6.32c12.486-.132 22.714 9.883 22.846 22.368l.015 1.48.576-.006" data-paper-data="{&quot;origPos&quot;:null}"/><path fill="#42210b" d="m32.69 40.052 12.303-.13a1.882 1.882 0 0 1 1.82 2.419 8.315 8.315 0 0 1-15.894.168 1.882 1.882 0 0 1 1.77-2.457z"/><path fill="#e3544f" d="M38.864 44.271c2.598-.028 4.928-.95 6.472.9a8.292 8.292 0 0 1-6.407 3.127 8.293 8.293 0 0 1-6.471-2.991c1.504-1.883 3.809-1.009 6.406-1.037"/><path fill="#fff" d="M38.949 41.808c2.457-.026 4.65-.268 6.154-1.887l-12.367.131c1.54 1.586 3.756 1.782 6.213 1.756m-1.633-9.834c.039 3.726-2.35 6.226-5.334 6.257-2.985.032-5.437-2.416-5.476-6.143-.04-3.727 2.348-6.226 5.333-6.258 2.985-.031 5.437 2.417 5.477 6.144m13.883 0c.04 3.726-2.348 6.226-5.333 6.257-2.986.032-5.437-2.416-5.477-6.143-.04-3.727 2.349-6.226 5.334-6.258 2.985-.031 5.437 2.417 5.476 6.144"/><path fill="#42210b" d="M36.08 32.098c.03 2.737-1.724 4.402-3.916 4.425-2.192.023-3.992-1.604-4.021-4.34-.03-2.737 1.724-4.402 3.916-4.426 2.192-.023 3.992 1.605 4.02 4.341m13.483 0c.029 2.737-1.724 4.402-3.916 4.425-2.192.023-3.993-1.604-4.022-4.34-.028-2.737 1.725-4.402 3.917-4.426 2.192-.023 3.992 1.605 4.02 4.341"/><path fill="#ecba97" d="M30.193 41.267a4.826 4.826 0 0 1-9.651.15 4.826 4.826 0 0 1 9.65-.15m26.97-.417a4.826 4.826 0 1 1-9.647.277 4.826 4.826 0 0 1 9.648-.277"/><path fill="#42210b" d="M62.719 25.85c.088.79.138 1.585.147 2.381l.034 3.303c-4.314.046-8.03-4.451-9.457-10.767a6.825 6.825 0 0 1-8.844-1.684 6.825 6.825 0 0 1-10.853.115 6.824 6.824 0 0 1-8.806 1.87c-1.294 6.345-4.915 10.919-9.23 10.965l-.034-3.303c-.008-.788.023-1.577.094-2.362l-.35.248c-.14-13.16 10.417-23.941 23.577-24.08 13.16-.139 23.94 10.416 24.08 23.576z"/><path fill="#42210b" d="m16.449 25.188-.11 1.23a23.39 23.39 0 0 0-.092 2.305l.029 2.703c3.68-.423 6.893-4.533 8.104-10.472l.157-.766.682.382c.955.535 2.036.81 3.122.8a6.228 6.228 0 0 0 4.948-2.515l.447-.595.459.586a6.228 6.228 0 0 0 4.932 2.41h.068a6.229 6.229 0 0 0 4.947-2.516l.447-.595.46.586a6.228 6.228 0 0 0 5 2.41 6.266 6.266 0 0 0 3.104-.866l.674-.396.172.762c1.337 5.912 4.636 9.953 8.324 10.299l-.028-2.703a23.43 23.43 0 0 0-.143-2.324l-.143-1.292.456.334c-.733-12.197-10.89-21.85-23.212-21.85l-.25.001a23.106 23.106 0 0 0-16.373 6.986c-4.088 4.174-6.416 9.61-6.625 15.41zm-1.302 7.422-.042-3.874c-.004-.4.003-.804.019-1.211l-.263.186-.011-1.09a24.241 24.241 0 0 1 6.964-17.328 24.24 24.24 0 0 1 17.439-7.33c13.335 0 24.253 10.776 24.395 24.143l.012 1.141-.265-.194c.023.394.037.785.04 1.172l.042 3.874-.57.006h-.07c-4.28 0-8.144-4.176-9.778-10.495a7.402 7.402 0 0 1-3 .673 7.347 7.347 0 0 1-5.451-2.315 7.347 7.347 0 0 1-5.401 2.43 7.356 7.356 0 0 1-5.452-2.315 7.348 7.348 0 0 1-5.402 2.43 7.398 7.398 0 0 1-3.012-.61c-1.508 6.386-5.317 10.655-9.624 10.7z"/><path fill="#fff" d="M63.937 19.662a25.85 25.85 0 0 1 1.118 5.703H13.448a25.89 25.89 0 0 1 1.13-5.703h49.359"/><path fill="#e3544f" d="M64.48 21.658c.131.566.243 1.136.335 1.71h-51.12c.093-.574.205-1.144.336-1.71h50.45"/><path fill="#42210b" d="M44.678 17.182a6.824 6.824 0 0 1-10.854.115"/><path fill="none" stroke="#42210b" stroke-width="1.142" d="M44.678 17.182a6.824 6.824 0 0 1-10.854.115"/><path fill="#42210b" d="M36.234 19.083a6.824 6.824 0 0 1-10.853.115"/><path fill="none" stroke="#42210b" stroke-width="1.142" d="M36.234 19.083a6.824 6.824 0 0 1-10.853.115"/><path fill="#42210b" d="M55.055 19.083a6.824 6.824 0 0 1-10.853.115"/><path fill="none" stroke="#42210b" stroke-width="1.142" d="M55.055 19.083a6.824 6.824 0 0 1-10.853.115"/><path fill="#fff" d="M36.063 30.533a1.49 1.49 0 1 1-2.978.11 1.49 1.49 0 0 1 2.978-.11m13.56 0a1.49 1.49 0 1 1-2.977.11 1.49 1.49 0 0 1 2.978-.11"/><path fill="#a0764c" d="M10.929 23.857c1.225-.367 2.453.583 2.73 2.057l.669 3.868c.66 3.508-1.521 5.716-4.482 6.603-2.962.887-5.998.241-7.374-3.053L.904 29.735c-.578-1.385-.075-2.853 1.15-3.22 1.226-.367 2.624.532 3.102 1.946-.478-1.414-1.112-3.286.955-4.036 2.067-.748 2.919 1.318 3.297 2.762-.38-1.444.295-2.963 1.52-3.33" data-paper-data="{&quot;origPos&quot;:null}"/><path fill="none" stroke="#a0764c" stroke-width="9.506" d="M14.513 48.23c-3.555-4.168-5.652-9.29-5.652-14.83" data-paper-data="{&quot;origPos&quot;:null}"/><path fill="#a0764c" d="M14.07 32.607a2.424 2.424 0 0 1-1.39-4.645l2.262-.678a2.425 2.425 0 0 1 1.392 4.645l-2.263.678m55.954 45.73c.119-1.254 1.529-2.147 3.149-1.994 1.62.153 2.459 1.258 2.34 2.513-.118 1.254-1.15 2.183-2.77 2.03-1.62-.153-2.837-1.294-2.72-2.549" data-paper-data="{&quot;origPos&quot;:null}"/><path fill="#9d6345" d="M74.099 75.694c-1.81 6.089-8.212 9.559-14.3 7.75-6.09-1.81-9.56-8.213-7.75-14.302 1.809-6.09 8.212-9.559 14.3-7.75 6.09 1.81 9.56 8.213 7.75 14.302"/><path fill="#603813" d="M67.364 69.845a11.89 11.89 0 0 1-3.232-.452l-.782 2.63 10.869 3.23c-.037.147-.077.294-.12.44-.03.099-.062.194-.094.29l-10.872-3.23-1.303 4.385a11.84 11.84 0 0 1 6.74 5.383c-.223.122-.452.233-.682.34a11.081 11.081 0 0 0-6.274-4.993l-1.67 5.615c-.048-.014-.097-.025-.145-.04-.197-.058-.39-.121-.58-.188l1.66-5.59a11.074 11.074 0 0 0-2.572-.306 11.122 11.122 0 0 0-4.968 1.178 11.573 11.573 0 0 1-.39-.662 11.787 11.787 0 0 1 8.148-.943l1.306-4.396-10.434-3.1c.027-.098.05-.196.08-.294.043-.147.092-.291.14-.435l10.43 3.099.787-2.643a11.86 11.86 0 0 1-6.825-6.237c.212-.145.429-.282.649-.412a11.104 11.104 0 0 0 6.393 5.917l2.139-7.196c.197.047.393.1.588.157.049.015.097.032.145.048l-2.146 7.221c3.064.864 6.351.372 9.028-1.352.114.23.221.464.32.702a11.914 11.914 0 0 1-6.333 1.834"/><path fill="#a0764c" d="M71.096 75.873s1.439 2.05 1.456 2.077l.003-.003c1.733 2.461.528 4.914-1.89 6.616-2.418 1.703-5.134 2.009-6.866-.451l.004-.003c-.02-.025-1.465-2.071-1.465-2.071a1.785 1.785 0 1 1 2.92-2.055 1.785 1.785 0 0 1 2.918-2.055 1.785 1.785 0 1 1 2.92-2.055" data-paper-data="{&quot;origPos&quot;:null}"/><text xml:space="preserve" fill="#fff" font-family="PingFangSC-Semibold, PingFang SC" font-size="13.688" font-weight="500" style="mix-blend-mode:normal" transform="translate(1.999 16.426)"><tspan x="0" dy="0">11</tspan></text><path fill="#e6e6e6" d="M42.627 85.663c-1.018.67-2.425 1.083-3.98 1.083-1.294 0-2.488-.288-3.44-.771"/><path fill="none" stroke="#e6e6e6" stroke-linecap="round" stroke-width=".951" d="M42.627 85.663c-1.018.67-2.425 1.083-3.98 1.083-1.294 0-2.488-.288-3.44-.771"/><path fill="#e3544f" d="m27.963 93.712-1.075-.056.736-14.205 1.074.056zm-2.368 0-1.074-.056.735-14.205 1.075.056zm27.553.023L51.792 79.53l1.07-.102 1.357 14.205zm-2.368 0L49.424 79.53l1.07-.102 1.357 14.205z"/><path fill="#1a1a1a" d="M18.51 44.033a23.48 23.48 0 0 1-.998-2.233c-.168.034-.338.06-.508.08.452.75.956 1.47 1.506 2.153zM55.725 0h.037a3.474 3.474 0 0 1 2.463 1.051c.65.661 1.01 1.555.998 2.483l-.044 4.184a1.363 1.363 0 0 0 1.347 1.376l4.184.045a3.476 3.476 0 0 1 2.462 1.05 3.473 3.473 0 0 1 .998 2.484 3.509 3.509 0 0 1-3.496 3.46h-.038l-1.454-.016a26.61 26.61 0 0 1 1.948 5.391l.005.022c.068.3.132.6.19.903l.006.034c.046.24.088.477.126.706l.005.03.01.06c.108.68.19 1.362.247 2.048a.665.665 0 0 1-.037.28c.052.732.075 1.466.068 2.2l-.03 2.688a5.992 5.992 0 0 1 2.69 4.922 5.929 5.929 0 0 1-1.703 4.238 5.93 5.93 0 0 1-4.202 1.793l-1.06.011h-.05a6.05 6.05 0 0 1-.297-.008c-1.88 5.132-5.567 9.49-10.3 12.212a37.91 37.91 0 0 1 8.645 3.863c.553.337.852.973.759 1.614.568.379 1.124.775 1.669 1.186a12.137 12.137 0 0 1 4.773.478l.05.016a12.186 12.186 0 0 1 7.427 6.519l.06.132.006.013.008.019c.04.088.079.177.117.266v.002l.002.006a12.193 12.193 0 0 1 .357 8.339c1.044.56 1.62 1.608 1.507 2.818-.123 1.301-1.022 2.282-2.296 2.565-.362 1.324-1.333 2.568-2.834 3.624-1.353.954-2.74 1.457-4.01 1.457-1.488 0-2.771-.684-3.72-1.981a12.197 12.197 0 0 1-3.562-.462l-.014-.004-.01-.002-.036-.01a12.085 12.085 0 0 1-2.847-1.233l.08.674a2.127 2.127 0 0 1-1.93 2.368l.658 7.713a.665.665 0 0 1-.663.722h-.403l2.105 15.597c2.837.519 5.206 3.175 5.62 6.404l.256 1.993c.013.1.017.201.013.3-.03.598-.391 1.102-.92 1.283-.146.05-.284.074-.424.074H44.779a1.547 1.547 0 0 1-.255-.027l-.24.023a.666.666 0 0 1-.732-.63l-.007-.095a1.66 1.66 0 0 1-.234-.722l-.601-7.093a1.525 1.525 0 0 1 .209-.916l-.418-5.828a.68.68 0 0 1 .007-.152l-.72-10.21h-1.86a.667.667 0 0 1-.655-.55l-.421-2.373-.421 2.373a.665.665 0 0 1-.655.549H35.86l-.735 10.363-.436 6.146c.061.193.084.396.067.598l-.601 7.092c-.005.06-.014.112-.023.154l-.048.68a.665.665 0 0 1-.73.615l-.356-.036a1.33 1.33 0 0 1-.247.036l-.064.003H16.227c-.107 0-.212-.012-.314-.038-.584-.142-.998-.672-1.03-1.32-.005-.1-.001-.2.012-.3l.068-.53.187-1.462a7.903 7.903 0 0 1 2.16-4.496c1.038-1.063 2.313-1.739 3.638-1.939l.723-5.34 1.384-10.226h-.345a.666.666 0 0 1-.664-.703l.44-7.725h-.337a1.37 1.37 0 0 1-1.032-.477 1.712 1.712 0 0 1-.405-1.342l2.674-22.554a37.576 37.576 0 0 1-5.124-2.599 1.618 1.618 0 0 1-.775-1.384 34.749 34.749 0 0 1-3.18-2.398c-4.745-4.032-8.072-9.102-9.62-14.662l-.006-.022a26.297 26.297 0 0 1-.405-1.657l-.012-.054-.02-.09-.075-.386-.002-.012a29.161 29.161 0 0 1-.175-1.027l-.01-.06-.036-.252c-.026-.18-.048-.36-.07-.54l-.006-.055-.012-.093c-.856-.644-1.528-1.538-1.998-2.663L.294 30l-.002-.008c-.388-.927-.39-1.926-.003-2.742a2.537 2.537 0 0 1 2.33-1.483 2.99 2.99 0 0 1 1.398.358c.072-1.105.717-1.908 1.868-2.325a3.102 3.102 0 0 1 1.057-.199c.635 0 1.41.235 2.08 1.112.36-.715.959-1.267 1.716-1.493.237-.071.48-.107.724-.107a2.603 2.603 0 0 1 1.463.461 26.263 26.263 0 0 1 2.259-7.448 26.511 26.511 0 0 1 5.429-7.592A26.402 26.402 0 0 1 39.185.953a26.515 26.515 0 0 1 13.033 3.413l.01-.906A3.508 3.508 0 0 1 55.724 0zM18.364 44.908l.005-.004a19.883 19.883 0 0 1-2.478-3.645l.49-.005a5.297 5.297 0 0 0 1.548-.249 22.57 22.57 0 0 0 3.393 6.224.952.952 0 0 0-.252.284h-.001l-.02.044a22.272 22.272 0 0 1-2.685-2.649zM52.893 3.467l-.022 2.059a25.771 25.771 0 0 0-13.686-3.908c-6.811 0-13.232 2.619-18.107 7.392-4.44 4.347-7.118 10.013-7.67 16.134-.4-.832-1.143-1.366-1.946-1.366-.181 0-.361.027-.534.08-1.225.366-1.898 1.885-1.52 3.33-.323-1.234-.991-2.922-2.467-2.922-.252 0-.528.05-.83.16-2.067.749-1.433 2.621-.955 4.035-.406-1.2-1.473-2.028-2.536-2.028-.19 0-.38.026-.566.081-1.225.368-1.728 1.836-1.15 3.22l1.568 3.599c.488 1.169 1.187 2.004 2.017 2.555l.024.238.024.201c.02.176.043.352.067.527l.046.305c.05.335.107.668.17 1l.076.388.03.14c.115.543.247 1.083.396 1.618l.005.022c1.507 5.408 4.72 10.347 9.41 14.333 1.1.934 2.26 1.797 3.47 2.584l-.017.058a.95.95 0 0 0 .418 1.079 36.868 36.868 0 0 0 5.498 2.742L21.373 84.18c-.067.568.299 1.076.776 1.076h1.04l-.48 8.428h1.108l-1.487 10.98-.793 5.86c-2.781.137-5.312 2.68-5.726 5.91l-.188 1.463-.068.53a1.03 1.03 0 0 0-.007.183c.017.354.224.633.522.706a.665.665 0 0 0 .157.019h16.46l.016-.002a.7.7 0 0 0 .232-.048l.486.05.052-.724c.008-.038.016-.078.02-.118l.6-7.093a.88.88 0 0 0-.077-.443l.445-6.293.78-10.98h2.535l1.076-6.066 1.076 6.066h2.48l.774 10.98h-.017l.436 6.073a.848.848 0 0 0-.228.663l.6 7.093a.992.992 0 0 0 .223.548l.02.278.002.016.354-.036c.057.018.117.03.177.032.01.001.02.004.03.004h16.46a.645.645 0 0 0 .21-.039c.27-.092.454-.354.47-.686.003-.059 0-.12-.007-.183l-.256-1.993c-.405-3.162-2.84-5.665-5.551-5.897L53.83 93.684h1.164l-.72-8.428h.544a1.46 1.46 0 0 0 1.45-1.632l-.252-2.124a11.443 11.443 0 0 0 3.782 1.944l.117.03.03.01a11.5 11.5 0 0 0 3.713.422l.145.203-.004.003c.88 1.251 2.017 1.787 3.238 1.787 1.18 0 2.44-.499 3.628-1.336 1.435-1.01 2.443-2.285 2.663-3.67 1.282-.094 2.083-.941 2.187-2.037.1-1.07-.497-2.029-1.68-2.384a11.452 11.452 0 0 0-.14-8.462 11.47 11.47 0 0 0-7.201-6.57c-.048-.016-.094-.033-.144-.048l-.02-.005A11.476 11.476 0 0 0 61.68 61a34.11 34.11 0 0 0-2.242-1.581l.077-.259a.95.95 0 0 0-.418-1.081 37.49 37.49 0 0 0-10.081-4.244A22.684 22.684 0 0 0 60.645 40.72c.245.035.495.057.75.057h.044l1.06-.01a5.303 5.303 0 0 0 2.553-9.918l.032-3.064c.009-.81-.021-1.617-.088-2.42h.06a25.949 25.949 0 0 0-.243-1.996h.003a26.758 26.758 0 0 0-.156-.871 25.993 25.993 0 0 0-.174-.82l-.005-.02a25.54 25.54 0 0 0-.543-1.996h-.073a25.796 25.796 0 0 0-1.766-4.222l2.545.027h.03a2.835 2.835 0 0 0 2.83-2.801 2.814 2.814 0 0 0-.807-2.012 2.816 2.816 0 0 0-1.994-.85l-4.184-.044a2.03 2.03 0 0 1-2.007-2.049l.045-4.185a2.81 2.81 0 0 0-.81-2.01 2.815 2.815 0 0 0-1.992-.851h-.03a2.835 2.835 0 0 0-2.832 2.802z" data-paper-data="{&quot;origPos&quot;:null}"/></g></svg>