<svg version="1.1" xmlns="http://www.w3.org/2000/svg" xmlns:xlink="http://www.w3.org/1999/xlink" width="112.18597" height="119.34017" viewBox="0,0,112.18597,119.34017"><g transform="translate(-184.00028,-120)"><g data-paper-data="{&quot;isPaintingLayer&quot;:true}" fill-rule="evenodd" stroke-miterlimit="10" stroke-dasharray="" stroke-dashoffset="0" style="mix-blend-mode: normal"><path d="M266.919,212.713c0,19.527 -11.885,21.214 -26.547,21.214c-14.662,0 -26.547,-1.687 -26.547,-21.214c0,-19.526 11.885,-50.824 26.547,-50.824c14.662,0 26.547,31.298 26.547,50.824" data-paper-data="{&quot;origPos&quot;:null}" fill="#be9268" stroke="none" stroke-width="1" stroke-linecap="butt" stroke-linejoin="miter"/><path d="M240.372,190.842c7.865,0 15.173,-1.815 21.252,-4.924c0.5347,1.44711 1.03253,2.90758 1.493,4.38c-5.956,2.927 -13.04,4.63 -20.65,4.63c-9.186,0 -17.612,-2.473 -24.202,-6.596c0.27295,-0.81111 0.55866,-1.61788 0.857,-2.42c6.076,3.111 13.383,4.93 21.25,4.93" data-paper-data="{&quot;origPos&quot;:null}" fill="#da9e83" stroke="none" stroke-width="1" stroke-linecap="butt" stroke-linejoin="miter"/><path d="M241.055,207.847l0.013,0.218c-0.01,0.12 0.028,0.307 0.028,0.499c0,0.188 0.029,0.403 0.01,0.605c0.044,0.211 -0.03,0.416 0.019,0.623c-0.007,0.205 -0.024,0.412 -0.005,0.613c0.008,0.202 -0.037,0.417 -0.014,0.6c0,0.377 -0.051,0.725 -0.051,0.725c0,0 -0.288,-0.108 -0.642,-0.418c-0.192,-0.145 -0.309,-0.382 -0.427,-0.647c-0.043,-0.135 -0.14,-0.268 -0.14,-0.422l-0.04,-0.46c-0.006,-0.624 0.277,-1.203 0.6,-1.521c0.323,-0.329 0.649,-0.415 0.649,-0.415" fill="#d6a28c" stroke="none" stroke-width="1" stroke-linecap="butt" stroke-linejoin="miter"/><path d="M240.372,210.746c10.173,0 19.422,-0.387 26.324,-2.899c0.14495,1.61832 0.21902,3.24221 0.222,4.867c0,19.525 -11.885,21.212 -26.546,21.212c-14.662,0 -26.547,-1.687 -26.547,-21.212c0.00336,-1.62481 0.07776,-3.24869 0.223,-4.867c6.901,2.512 16.15,2.899 26.324,2.899" fill="#cceff7" stroke="none" stroke-width="1" stroke-linecap="butt" stroke-linejoin="miter"/><path d="M240.372,227.162c13.786,0 25.114,-1.497 26.418,-17.907c0.077,1.183 0.128,2.345 0.128,3.458c0,19.527 -11.885,21.214 -26.546,21.214c-14.662,0 -26.547,-1.687 -26.547,-21.214c0.00575,-1.15374 0.04844,-2.30699 0.128,-3.458c1.304,16.41 12.633,17.907 26.419,17.907" fill="#add8e3" stroke="none" stroke-width="1" stroke-linecap="butt" stroke-linejoin="miter"/><path d="M213.825,212.714c0.0035,-1.62476 0.07723,-3.24861 0.221,-4.867c3.732,1.357 8.157,2.09 13.036,2.482c0.745,0.67 0.948,1.583 0.353,2.915c-1.167,2.621 -8.834,1.37 -13.589,0l-0.013,-0.049c-0.001,-0.163 -0.008,-0.316 -0.008,-0.482M266.919,212.713c0,0.184 -0.009,0.354 -0.01,0.534c-4.878,1.368 -12.738,2.618 -13.936,-0.003c-0.6,-1.315 -0.405,-2.219 0.333,-2.885c5.021,-0.385 9.566,-1.12 13.39,-2.512c0.148,1.682 0.223,3.312 0.223,4.866" fill="#add8e3" stroke="none" stroke-width="1" stroke-linecap="butt" stroke-linejoin="miter"/><path d="M215.399,210.746c0,0 12.083,1.588 20.726,23.113c-12.641,-0.44 -22.3,-3.547 -22.3,-21.145c0,-0.275 0.015,-0.565 0.019,-0.843c0.51059,-0.38558 1.02904,-0.76066 1.555,-1.125M266.918,212.713c0,17.372 -9.41,20.622 -21.81,21.127c8.646,-21.503 20.794,-23.095 20.794,-23.095c0.337,0.233 0.666,0.47 0.987,0.707c0.011,0.421 0.03,0.851 0.03,1.261" fill="#add8e3" stroke="none" stroke-width="1" stroke-linecap="butt" stroke-linejoin="miter"/><path d="M209.819,161.662c0,4.248 -3.433,7.692 -7.67,7.692c-4.237,0 -7.67,-3.444 -7.67,-7.692c0,-4.248 3.433,-7.692 7.67,-7.692c4.237,0 7.67,3.444 7.67,7.692" fill="#e3ac94" stroke="none" stroke-width="1" stroke-linecap="butt" stroke-linejoin="miter"/><path d="M206.814,161.662c0.00332,2.57989 -2.08512,4.67414 -4.665,4.678c-2.57988,-0.00386 -4.66832,-2.09811 -4.665,-4.678c-0.00332,-2.57989 2.08512,-4.67414 4.665,-4.678c2.57988,0.00386 4.66832,2.09811 4.665,4.678" fill="#cf967e" stroke="none" stroke-width="1" stroke-linecap="butt" stroke-linejoin="miter"/><path d="M286.265,161.662c0,4.248 -3.433,7.692 -7.67,7.692c-4.237,0 -7.67,-3.444 -7.67,-7.692c0,-4.248 3.433,-7.692 7.67,-7.692c4.237,0 7.67,3.444 7.67,7.692" fill="#e3ac94" stroke="none" stroke-width="1" stroke-linecap="butt" stroke-linejoin="miter"/><path d="M283.26,161.662c0.00332,2.57989 -2.08512,4.67414 -4.665,4.678c-2.57988,-0.00386 -4.66832,-2.09811 -4.665,-4.678c-0.00332,-2.57989 2.08512,-4.67414 4.665,-4.678c2.57988,0.00386 4.66832,2.09811 4.665,4.678" fill="#cf967e" stroke="none" stroke-width="1" stroke-linecap="butt" stroke-linejoin="miter"/><path d="M252.104,140.124c0,0 2.713,-14.432 -5.512,-20.124c0,0 14.101,3.076 9.349,19.148l-3.837,0.975z" fill="#c18041" stroke="none" stroke-width="1" stroke-linecap="butt" stroke-linejoin="miter"/><path d="M255.49,136.879c13.453,-9.945 21.132,2.31 21.132,2.31c-8.132,-5.825 -20.742,1.64 -20.742,1.64z" fill="#c18041" stroke="none" stroke-width="1" stroke-linecap="butt" stroke-linejoin="miter"/><path d="M253.797,139.463c0,0 1.707,-14.723 15.78,-16.405c0,0 -9.97,5.489 -8.832,18.847z" fill="#c18041" stroke="none" stroke-width="1" stroke-linecap="butt" stroke-linejoin="miter"/><path d="M265.163,137.37c-1.52224,0.30081 -3.01801,0.72282 -4.473,1.262c-0.05666,1.09095 -0.03862,2.18451 0.054,3.273l-4.16,-1.462c-0.449,0.235 -0.703,0.385 -0.703,0.385l-0.067,-0.655l-1.638,-0.576l-2.072,0.526c0,0 0.779,-4.16 0.232,-8.891c4.814,1.383 9.162,3.486 12.827,6.138" fill="#ad733a" stroke="none" stroke-width="1" stroke-linecap="butt" stroke-linejoin="miter"/><path d="M278.28204,161.662c0,16.117 -17.113,29.18 -38.222,29.18c-21.112,0 -38.224,-13.063 -38.224,-29.18c0,-16.117 17.112,-29.18 38.224,-29.18c21.109,0 38.222,13.063 38.222,29.18" data-paper-data="{&quot;origPos&quot;:null}" fill="#be9268" stroke="none" stroke-width="1" stroke-linecap="butt" stroke-linejoin="miter"/><path d="M246.591,180.822c0,1.735 -2.614,3.143 -5.838,3.143c-3.225,0 -5.837,-1.408 -5.837,-3.143c0,-1.736 2.612,-3.143 5.837,-3.143c3.224,0 5.838,1.407 5.838,3.143M247.01,136.299c0.315,2.042 -5.686,4.668 -13.403,5.868c-7.72,1.197 -14.23,0.515 -14.546,-1.526c-0.315,-2.04 5.685,-4.667 13.404,-5.867c7.717,-1.198 14.23,-0.515 14.546,1.525" data-paper-data="{&quot;origPos&quot;:null}" fill="#bfab98" stroke="none" stroke-width="1" stroke-linecap="butt" stroke-linejoin="miter"/><path d="M232.215,154.893c0,-4.502 -4.225,-8.15 -9.437,-8.15c-3.435,0 -6.44,1.585 -8.09,3.952M248.529,154.893c0,-4.502 4.224,-8.15 9.437,-8.15c3.433,0 6.44,1.585 8.09,3.952" fill="none" stroke="#a37c6b" stroke-width="1.323" stroke-linecap="round" stroke-linejoin="round"/><path d="M261.809,170.357c5.072,7.516 -2.645,11.718 -8.378,8.953c-5.732,-2.763 -10.245,-3.98 -13.058,-3.98c-2.814,0 -7.329,1.217 -13.06,3.98c-5.732,2.765 -13.449,-1.437 -8.379,-8.953c5.07,-7.52 21.438,-7.407 21.438,-7.407c0,0 16.368,-0.113 21.438,7.407" fill="#bf4545" stroke="none" stroke-width="1" stroke-linecap="butt" stroke-linejoin="miter"/><path d="M227.312,179.31c-0.84563,0.40636 -1.75185,0.67218 -2.683,0.787c0.169,-0.509 0.378,-1.037 0.64,-1.589c2.085,-4.388 6.879,-6.416 10.51,-7.346c3.0138,-0.76831 6.1722,-0.76831 9.186,0c3.633,0.93 8.425,2.958 10.509,7.346c0.2453,0.51635 0.45935,1.04697 0.641,1.589c-0.93115,-0.11482 -1.83737,-0.38064 -2.683,-0.787c-5.732,-2.763 -10.247,-3.98 -13.06,-3.98c-2.813,0 -7.329,1.217 -13.06,3.98" fill="#ff5c5c" stroke="none" stroke-width="1" stroke-linecap="butt" stroke-linejoin="miter"/><path d="M250.623,167.619c-0.671,-0.638 -0.007,-2.187 0.631,-3.33c1.407,0.35 2.822,0.788 4.167,1.345c0.352,0.758 0.57,1.567 0.33,2.34c-0.176,0.567 -4.008,0.71 -5.128,-0.355M245.664,165.764c-0.486,-0.464 -0.008,-1.585 0.456,-2.415c0.869,0.108 1.794,0.248 2.753,0.428c0.397,0.695 0.758,1.493 0.525,2.245c-0.129,0.412 -2.918,0.516 -3.734,-0.258" fill="#ffffff" stroke="none" stroke-width="1" stroke-linecap="butt" stroke-linejoin="miter"/><path d="M240.372,155.165c5.244,0 3.936,3.081 3.936,3.081c0,0 0.148,-2.035 -3.936,-2.035c-4.085,0 -3.937,2.035 -3.937,2.035c0,0 -1.308,-3.081 3.937,-3.081" fill="#e3ac94" stroke="none" stroke-width="1" stroke-linecap="butt" stroke-linejoin="miter"/><path d="M237.979,157.445c0.294,-0.257 0.664,-0.312 0.831,-0.12c0.163,0.188 0.058,0.55 -0.236,0.807c-0.294,0.254 -0.665,0.309 -0.83,0.118c-0.165,-0.188 -0.058,-0.55 0.235,-0.805M242.764,157.445c0.295,0.255 0.399,0.617 0.235,0.805c-0.165,0.191 -0.535,0.136 -0.829,-0.119c-0.295,-0.256 -0.399,-0.618 -0.235,-0.806c0.165,-0.192 0.537,-0.137 0.829,0.12" fill="#e3ac94" stroke="none" stroke-width="1" stroke-linecap="butt" stroke-linejoin="miter"/><path d="M210.339,157.191c3.054,0 5.53,2.002 5.53,4.472c0,2.468 -2.476,4.47 -5.53,4.47c-3.053,0 -5.53,-2.002 -5.53,-4.47c0,-2.47 2.477,-4.472 5.53,-4.472M270.404,157.191c3.053,0 5.529,2.002 5.529,4.472c0,2.468 -2.476,4.47 -5.529,4.47c-3.052,0 -5.528,-2.002 -5.528,-4.47c0,-2.47 2.476,-4.472 5.528,-4.472" fill="#ffa6a6" stroke="none" stroke-width="1" stroke-linecap="butt" stroke-linejoin="miter"/><path d="M202.216,163.345c-0.04327,-0.5603 -0.06562,-1.12203 -0.067,-1.684c0.00203,-0.62095 0.03073,-1.24152 0.086,-1.86c0.03947,-0.48601 0.09483,-0.97061 0.166,-1.453c0.031,-0.213 0.069,-0.426 0.105,-0.638c0.046,-0.245 0.089,-0.492 0.14,-0.735l0.045,-0.195l0.03,-0.128c0.122,-0.527 0.258,-1.05 0.416,-1.567l0.001,-0.007c0.15579,-0.51801 0.3299,-1.03033 0.522,-1.536l0.012,-0.032c0.13894,-0.36677 0.28732,-0.72989 0.445,-1.089c2.97563,0.27801 5.31923,2.65749 5.552,5.637c0.6298,0.41752 0.93113,1.18443 0.754,1.919c-0.16793,0.6736 -0.70923,1.18998 -1.39,1.326c-0.50818,1.01971 -1.28954,1.87827 -2.257,2.48c0.322,3.37 1.542,10.434 4.201,13.897c1.5197,1.97736 2.98754,3.99404 4.402,6.048c-7.171,-4.735 -12.016,-11.468 -13.032,-19.073l-0.005,-0.047c-0.054,-0.418 -0.093,-0.84 -0.126,-1.263M278.512,159.825c0.013,0.16 0.028,0.32 0.038,0.48c0.027,0.451 0.045,0.901 0.045,1.358c0,0.452 -0.018,0.9 -0.045,1.345c-0.03088,0.5255 -0.07957,1.0498 -0.146,1.572c-0.003,0.028 -0.005,0.058 -0.01,0.086c-1.045,7.795 -6.11,14.682 -13.587,19.432c2.29696,-2.54256 4.3453,-5.29913 6.117,-8.232c2.957,-4.895 2.684,-8.613 3.07,-11.728c-1.12322,-0.60224 -2.03067,-1.53976 -2.596,-2.682c-0.66,-0.133 -1.223,-0.63 -1.393,-1.328c-0.1757,-0.73413 0.12587,-1.49984 0.755,-1.917c0.03407,-0.417 0.11046,-0.82946 0.228,-1.231c0.74048,-2.55334 3.03895,-4.34095 5.696,-4.43c0.145,0.335 0.279,0.673 0.407,1.013l0.06,0.16c0.12235,0.32963 0.23804,0.6617 0.347,0.996l0.029,0.095c0.1947,0.62105 0.36351,1.24993 0.506,1.885c0.02,0.094 0.045,0.187 0.065,0.28l0.01,0.04c0.049,0.229 0.087,0.459 0.129,0.687c0.04,0.225 0.079,0.45 0.11,0.677c0.03,0.198 0.057,0.398 0.08,0.598c0.014,0.1 0.02,0.2 0.03,0.302c0.02,0.18 0.04,0.362 0.055,0.542" fill-opacity="0.2" fill="#000000" stroke="none" stroke-width="1" stroke-linecap="butt" stroke-linejoin="miter"/><path d="M213.825,212.713c0,0 12.493,1.43 21.16,21.1c0,0 -12.102,5.525 -27.098,4.449c0,0 -9.49,1.938 -17.319,0.613c0,0 -4.91,1.747 -5.264,-2.681c-0.412,-5.177 -2.375,-9.209 -0.518,-11.069c1.857,-1.863 2.276,1.035 2.276,1.035c0,0 -0.832,-2.425 0.406,-1.936c1.238,0.486 1.862,3.898 1.862,3.898c0,0 5.742,-5.22 14.285,-7.243c0,0 4.048,-4.457 10.21,-8.166" data-paper-data="{&quot;origPos&quot;:null}" fill="#be9268" stroke="none" stroke-width="1" stroke-linecap="butt" stroke-linejoin="miter"/><path d="M266.918,212.715c6.163,3.708 9.653,8.165 9.653,8.165c8.542,2.023 14.283,7.243 14.283,7.243c0,0 0.627,-3.412 1.865,-3.898c1.238,-0.488 0.405,1.937 0.405,1.937c0,0 0.419,-2.899 2.277,-1.036c1.856,1.86 -0.106,5.892 -0.519,11.069c-0.354,4.428 -5.264,2.682 -5.264,2.682c-7.829,1.325 -17.319,-0.614 -17.319,-0.614c-14.996,1.077 -26.616,-4.445 -26.616,-4.445c8.665,-19.668 21.235,-21.105 21.235,-21.105" data-paper-data="{&quot;origPos&quot;:null}" fill="#be9268" stroke="none" stroke-width="1" stroke-linecap="butt" stroke-linejoin="miter"/><path d="M207.888,233.124c11.26,0.806 20.888,-2.107 24.986,-3.609c0.76268,1.4031 1.46662,2.83734 2.11,4.299c0,0 -12.101,5.525 -27.096,4.448c0,0 -9.491,1.938 -17.319,0.613c0,0 -4.911,1.747 -5.265,-2.681c-0.38,-4.784 -2.082,-8.589 -0.87,-10.607c0.315,1.608 0.71,3.45 0.87,5.467c0.354,4.428 5.264,2.681 5.264,2.681c7.83,1.325 17.32,-0.611 17.32,-0.611M294.882,231.053c0.161,-2.016 0.555,-3.856 0.87,-5.466c1.21,2.02 -0.49,5.823 -0.87,10.606c-0.352,4.429 -5.264,2.682 -5.264,2.682c-7.829,1.325 -17.319,-0.613 -17.319,-0.613c-14.996,1.076 -26.615,-4.445 -26.615,-4.445c0.64041,-1.453 1.34,-2.87919 2.097,-4.275c3.998,1.508 13.314,4.385 24.517,3.581c0,0 9.491,1.937 17.32,0.614c0,0 4.912,1.745 5.264,-2.684" data-paper-data="{&quot;origPos&quot;:null}" fill="#da9e83" stroke="none" stroke-width="1" stroke-linecap="butt" stroke-linejoin="miter"/><path d="M260.262,186.65c0,0 2.44,-2.026 10.673,-8.506c4.34,-3.417 5.348,-15.362 5.348,-15.362l7.107,-1.523c0,0 0.84,10.743 -0.984,18.453c0,0 -3.832,18.379 -16.356,22.949c0,0 -10.582,-4.754 -5.788,-16.01" data-paper-data="{&quot;origPos&quot;:null}" fill="#be9268" stroke="none" stroke-width="1" stroke-linecap="butt" stroke-linejoin="miter"/><path d="M268.781,198.553c6.7,-3.835 10.771,-11.076 13.033,-16.568v0.002c-0.017,0.051 -0.033,0.11 -0.05,0.165c-0.045,0.155 -0.091,0.31 -0.143,0.475l-0.023,0.073c-1.677,5.402 -6.18,16.543 -15.548,19.962c0,0 -5.317,-2.395 -6.703,-7.8c0.851,1.281 1.876,2.313 2.843,3.108c1.865,1.535 4.495,1.782 6.59,0.583" data-paper-data="{&quot;origPos&quot;:null}" fill="#da9e83" stroke="none" stroke-width="1" stroke-linecap="butt" stroke-linejoin="miter"/><path d="M275.795,160.933l-1.468,0.36c-0.96106,0.23116 -1.92838,-0.35727 -2.165,-1.317c-0.2329,-0.9617 0.35323,-1.93128 1.313,-2.172l1.469,-0.36c0.96097,-0.23058 1.9279,0.35762 2.165,1.317c0.23225,0.96191 -0.35418,1.93126 -1.314,2.172" fill="#ffc2a6" stroke="none" stroke-width="1" stroke-linecap="butt" stroke-linejoin="miter"/><path d="M284.933,160.274c0.949,-3.267 -0.92,-6.685 -4.176,-7.637c-3.257,-0.952 -6.664,0.925 -7.614,4.19c-0.949,3.265 0.921,6.682 4.176,7.637c1.56533,0.45552 3.24756,0.26982 4.67583,-0.51617c1.42828,-0.78599 2.48534,-2.10772 2.93817,-3.67383M220.596,186.651c4.794,11.256 -5.79,16.01 -5.79,16.01c-12.523,-4.57 -16.355,-22.949 -16.355,-22.949c-1.821,-7.71 -0.704,-18.453 -0.704,-18.453l7.185,1.072c0,0 0.65,12.396 4.992,15.813c8.231,6.48 10.672,8.506 10.672,8.506" data-paper-data="{&quot;origPos&quot;:null}" fill="#be9268" stroke="none" stroke-width="1" stroke-linecap="butt" stroke-linejoin="miter"/><path d="M199.055,182.025c2.362,5.785 6.654,13.433 13.76,17.282c1.80025,0.98298 4.01108,0.81041 5.637,-0.44c0.9094,-0.6896 1.74128,-1.47588 2.481,-2.345c-1.903,4.238 -6.126,6.14 -6.126,6.14c-9.777,-3.567 -14.256,-15.552 -15.751,-20.637" data-paper-data="{&quot;origPos&quot;:null}" fill="#da9e83" stroke="none" stroke-width="1" stroke-linecap="butt" stroke-linejoin="miter"/><path d="M205.063,160.933c-0.95977,-0.24072 -1.5459,-1.2103 -1.313,-2.172c0.23616,-0.95959 1.20318,-1.54812 2.164,-1.317l1.469,0.36c0.95977,0.24072 1.5459,1.2103 1.313,2.172c-0.23662,0.95973 -1.20394,1.54816 -2.165,1.317l-1.468,-0.36" fill="#ffc2a6" stroke="none" stroke-width="1" stroke-linecap="butt" stroke-linejoin="miter"/><path d="M195.61204,160.274c-0.949,-3.267 0.921,-6.685 4.176,-7.637c3.256,-0.952 6.663,0.925 7.613,4.19c0.95253,3.26123 -0.91615,6.67775 -4.176,7.635c-3.256,0.952 -6.664,-0.923 -7.613,-4.188" data-paper-data="{&quot;origPos&quot;:null}" fill="#be9268" stroke="none" stroke-width="1" stroke-linecap="butt" stroke-linejoin="miter"/><path d="M269.941,147.98c7.19,-1.51 10.045,2.837 13.783,-0.335c2.341,-1.988 0.892,-7.521 -5.635,-6.041c-5.28,1.196 -8.148,6.376 -8.148,6.376M210.489,147.98c-7.19,-1.51 -10.045,2.837 -13.782,-0.335c-2.344,-1.988 -0.895,-7.521 5.635,-6.041c5.278,1.196 8.148,6.376 8.148,6.376" fill="#cceff7" stroke="none" stroke-width="1" stroke-linecap="butt" stroke-linejoin="miter"/><path d="M283.725,145.552c0.4207,-0.36374 0.72936,-0.83956 0.89,-1.372c0.384,1.269 0.06,2.659 -0.891,3.465c-3.738,3.172 -6.593,-1.175 -13.782,0.335c0,0 0.6,-1.075 1.743,-2.356c5.936,-0.557 8.619,2.831 12.039,-0.072M196.706,145.552c3.418,2.903 6.102,-0.485 12.038,0.072c1.144,1.281 1.744,2.356 1.744,2.356c-7.188,-1.51 -10.045,2.837 -13.782,-0.335c-0.951,-0.806 -1.277,-2.196 -0.893,-3.465c0.16227,0.53242 0.47186,1.00807 0.893,1.372" fill="#abdfeb" stroke="none" stroke-width="1" stroke-linecap="butt" stroke-linejoin="miter"/><path d="M213.825,212.713c0,0 -0.804,-3.226 0.334,-6.024c0,0 3.56,1.066 6.82,1.658c3.956,0.72 6.786,1.457 5.475,4.367c-1.085,2.408 -8.21,1.258 -12.63,0" fill="#cceff7" stroke="none" stroke-width="1" stroke-linecap="butt" stroke-linejoin="miter"/><path d="M225.512,211.73c-0.02871,0.76624 -0.65822,1.37261 -1.425,1.37261c-0.76678,0 -1.39629,-0.60636 -1.425,-1.37261c0,-0.78701 0.63799,-1.425 1.425,-1.425c0.78701,0 1.425,0.63799 1.425,1.425" fill="#788d91" stroke="none" stroke-width="1" stroke-linecap="butt" stroke-linejoin="miter"/><path d="M266.942,212.714c-4.42,1.258 -11.545,2.408 -12.63,0c-1.313,-2.91 1.519,-3.647 5.475,-4.367c3.26,-0.592 6.82,-1.658 6.82,-1.658c1.139,2.798 0.334,6.024 0.334,6.024" fill="#cceff7" stroke="none" stroke-width="1" stroke-linecap="butt" stroke-linejoin="miter"/><path d="M255.253,211.73c0,-0.78701 0.63799,-1.425 1.425,-1.425c0.78701,0 1.425,0.63799 1.425,1.425c-0.02871,0.76624 -0.65822,1.37261 -1.425,1.37261c-0.76678,0 -1.39629,-0.60636 -1.425,-1.37261" fill="#788d91" stroke="none" stroke-width="1" stroke-linecap="butt" stroke-linejoin="miter"/></g></g></svg>