<svg xmlns="http://www.w3.org/2000/svg" width="112.186" height="119.34"><g fill-rule="evenodd" stroke-miterlimit="10" data-paper-data="{&quot;isPaintingLayer&quot;:true}" style="mix-blend-mode:normal"><path fill="#be9268" d="M82.919 92.713c0 19.527-11.885 21.214-26.547 21.214s-26.547-1.687-26.547-21.214c0-19.526 11.885-50.824 26.547-50.824s26.547 31.298 26.547 50.824" data-paper-data="{&quot;origPos&quot;:null}"/><path fill="#da9e83" d="M56.372 70.842c7.865 0 15.173-1.815 21.252-4.924a91.028 91.028 0 0 1 1.493 4.38c-5.956 2.927-13.04 4.63-20.65 4.63-9.186 0-17.612-2.473-24.202-6.596.273-.811.558-1.618.857-2.42 6.076 3.111 13.383 4.93 21.25 4.93" data-paper-data="{&quot;origPos&quot;:null}"/><path fill="#d6a28c" d="m57.055 87.847.013.218c-.01.12.028.307.028.499 0 .188.029.403.01.605.044.211-.03.416.019.623-.007.205-.024.412-.005.613.008.202-.037.417-.014.6 0 .377-.051.725-.051.725s-.288-.108-.642-.418c-.192-.145-.31-.382-.427-.647-.043-.135-.14-.268-.14-.422l-.04-.46c-.006-.624.277-1.203.6-1.521.323-.329.649-.415.649-.415"/><path fill="#cceff7" d="M56.372 90.746c10.173 0 19.422-.387 26.324-2.899.145 1.618.219 3.242.222 4.867 0 19.525-11.885 21.212-26.546 21.212-14.662 0-26.547-1.687-26.547-21.212.003-1.625.077-3.249.223-4.867 6.9 2.512 16.15 2.899 26.324 2.899"/><path fill="#add8e3" d="M56.372 107.162c13.786 0 25.114-1.497 26.418-17.907.077 1.183.128 2.345.128 3.458 0 19.527-11.885 21.214-26.546 21.214-14.662 0-26.547-1.687-26.547-21.214.005-1.154.048-2.307.128-3.458 1.304 16.41 12.633 17.907 26.419 17.907"/><path fill="#add8e3" d="M29.825 92.714c.003-1.625.077-3.249.22-4.867 3.733 1.357 8.158 2.09 13.037 2.482.745.67.948 1.583.353 2.915-1.167 2.621-8.834 1.37-13.59 0l-.012-.049c-.001-.163-.008-.316-.008-.482m53.094 0c0 .184-.01.354-.01.534-4.878 1.368-12.738 2.618-13.936-.003-.6-1.315-.405-2.219.333-2.885 5.02-.385 9.566-1.12 13.39-2.512.148 1.682.223 3.312.223 4.866"/><path fill="#add8e3" d="M31.399 90.746s12.083 1.588 20.726 23.113c-12.641-.44-22.3-3.547-22.3-21.145 0-.275.015-.565.019-.843.51-.386 1.029-.76 1.555-1.125m51.519 1.967c0 17.372-9.41 20.622-21.81 21.127 8.646-21.503 20.794-23.095 20.794-23.095.337.233.666.47.987.707.01.421.03.851.03 1.261"/><path fill="#e3ac94" d="M25.819 41.662c0 4.248-3.433 7.692-7.67 7.692s-7.67-3.444-7.67-7.692 3.433-7.692 7.67-7.692 7.67 3.444 7.67 7.692"/><path fill="#cf967e" d="M22.814 41.662a4.672 4.672 0 0 1-4.665 4.678 4.672 4.672 0 0 1-4.665-4.678 4.672 4.672 0 0 1 4.665-4.678 4.672 4.672 0 0 1 4.665 4.678"/><path fill="#e3ac94" d="M102.265 41.662c0 4.248-3.433 7.692-7.67 7.692s-7.67-3.444-7.67-7.692 3.433-7.692 7.67-7.692 7.67 3.444 7.67 7.692"/><path fill="#cf967e" d="M99.26 41.662a4.672 4.672 0 0 1-4.665 4.678 4.672 4.672 0 0 1-4.665-4.678 4.672 4.672 0 0 1 4.665-4.678 4.672 4.672 0 0 1 4.665 4.678"/><path fill="#c18041" d="M68.104 20.124S70.817 5.692 62.592 0c0 0 14.1 3.076 9.349 19.148l-3.837.975z"/><path fill="#c18041" d="M71.49 16.879c13.453-9.945 21.132 2.31 21.132 2.31-8.132-5.825-20.742 1.64-20.742 1.64z"/><path fill="#c18041" d="M69.797 19.463S71.504 4.74 85.577 3.058c0 0-9.97 5.489-8.832 18.847z"/><path fill="#ad733a" d="M81.163 17.37c-1.523.3-3.018.723-4.473 1.262a23.952 23.952 0 0 0 .054 3.273l-4.16-1.462c-.45.235-.703.385-.703.385l-.067-.655-1.638-.576-2.072.526s.779-4.16.232-8.891c4.814 1.383 9.162 3.486 12.827 6.138"/><path fill="#be9268" d="M94.282 41.662c0 16.117-17.113 29.18-38.222 29.18-21.112 0-38.224-13.063-38.224-29.18 0-16.117 17.112-29.18 38.224-29.18 21.109 0 38.222 13.063 38.222 29.18" data-paper-data="{&quot;origPos&quot;:null}"/><path fill="#bfab98" d="M62.59 60.822c0 1.735-2.613 3.143-5.837 3.143-3.225 0-5.837-1.408-5.837-3.143 0-1.736 2.612-3.143 5.837-3.143 3.224 0 5.838 1.407 5.838 3.143m.419-44.523c.315 2.042-5.686 4.668-13.403 5.868-7.72 1.197-14.23.515-14.546-1.526-.315-2.04 5.685-4.667 13.404-5.867 7.717-1.198 14.23-.515 14.546 1.525" data-paper-data="{&quot;origPos&quot;:null}"/><path fill="none" stroke="#a37c6b" stroke-linecap="round" stroke-linejoin="round" stroke-width="1.323" d="M48.215 34.893c0-4.502-4.225-8.15-9.437-8.15-3.435 0-6.44 1.585-8.09 3.952m33.84 4.198c0-4.502 4.225-8.15 9.438-8.15 3.433 0 6.44 1.585 8.09 3.952"/><path fill="#bf4545" d="M77.809 50.357c5.072 7.516-2.645 11.718-8.378 8.953-5.732-2.763-10.245-3.98-13.058-3.98-2.814 0-7.33 1.217-13.06 3.98-5.732 2.765-13.45-1.437-8.38-8.953 5.07-7.52 21.439-7.407 21.439-7.407s16.368-.113 21.438 7.407"/><path fill="#ff5c5c" d="M43.312 59.31a8.634 8.634 0 0 1-2.683.787c.169-.509.378-1.037.64-1.589 2.085-4.388 6.879-6.416 10.51-7.346a18.593 18.593 0 0 1 9.186 0c3.633.93 8.425 2.958 10.509 7.346.245.516.46 1.047.64 1.589a8.634 8.634 0 0 1-2.682-.787c-5.732-2.763-10.247-3.98-13.06-3.98-2.813 0-7.33 1.217-13.06 3.98"/><path fill="#fff" d="M66.623 47.619c-.671-.638-.007-2.187.63-3.33 1.408.35 2.823.788 4.168 1.345.352.758.57 1.567.33 2.34-.176.567-4.008.71-5.128-.355m-4.96-1.855c-.485-.464-.007-1.585.457-2.415.869.108 1.794.248 2.753.428.397.695.758 1.493.525 2.245-.13.412-2.918.516-3.734-.258"/><path fill="#e3ac94" d="M56.372 35.165c5.244 0 3.936 3.081 3.936 3.081s.148-2.035-3.936-2.035c-4.085 0-3.937 2.035-3.937 2.035s-1.308-3.081 3.937-3.081"/><path fill="#e3ac94" d="M53.979 37.445c.294-.257.664-.312.83-.12.164.188.059.55-.235.807-.294.254-.665.309-.83.118-.165-.188-.058-.55.235-.805m4.785 0c.295.255.399.617.235.805-.165.191-.535.136-.83-.119-.294-.256-.398-.618-.234-.806.165-.192.537-.137.829.12"/><path fill="#ffa6a6" d="M26.339 37.191c3.054 0 5.53 2.002 5.53 4.472 0 2.468-2.476 4.47-5.53 4.47-3.053 0-5.53-2.002-5.53-4.47 0-2.47 2.477-4.472 5.53-4.472m60.065 0c3.053 0 5.529 2.002 5.529 4.472 0 2.468-2.476 4.47-5.53 4.47-3.051 0-5.527-2.002-5.527-4.47 0-2.47 2.476-4.472 5.528-4.472"/><path fill-opacity=".2" d="M18.216 43.345a22.592 22.592 0 0 1-.067-1.684c.002-.621.03-1.242.086-1.86.04-.486.095-.97.166-1.453.03-.213.069-.426.105-.638.046-.245.089-.492.14-.735l.045-.195.03-.128c.122-.527.258-1.05.416-1.567v-.007c.157-.518.33-1.03.523-1.536l.012-.032c.139-.367.287-.73.445-1.089a6.142 6.142 0 0 1 5.552 5.637c.63.418.93 1.184.754 1.919a1.795 1.795 0 0 1-1.39 1.326 6.152 6.152 0 0 1-2.257 2.48c.322 3.37 1.542 10.434 4.2 13.897a143.319 143.319 0 0 1 4.403 6.048c-7.171-4.735-12.016-11.468-13.032-19.073l-.005-.047c-.054-.418-.093-.84-.126-1.263m76.296-3.52c.013.16.028.32.038.48.027.451.045.901.045 1.358 0 .452-.018.9-.045 1.345-.031.525-.08 1.05-.146 1.572-.003.028-.005.058-.01.086-1.045 7.795-6.11 14.682-13.587 19.432a53.7 53.7 0 0 0 6.117-8.232c2.957-4.895 2.684-8.613 3.07-11.728a6.127 6.127 0 0 1-2.596-2.682 1.793 1.793 0 0 1-1.393-1.328c-.176-.734.126-1.5.755-1.917.034-.417.11-.83.228-1.231a6.145 6.145 0 0 1 5.696-4.43c.145.335.279.673.407 1.013l.06.16c.122.33.238.662.347.996l.029.095c.194.621.363 1.25.506 1.885.02.094.045.187.065.28l.01.04c.049.229.087.459.129.687.04.225.079.45.11.677.03.198.057.398.08.598.014.1.02.2.03.302.02.18.04.362.055.542"/><path fill="#be9268" d="M29.825 92.713s12.493 1.43 21.16 21.1c0 0-12.102 5.525-27.098 4.449 0 0-9.49 1.938-17.32.613 0 0-4.91 1.747-5.263-2.681-.412-5.177-2.375-9.209-.518-11.069 1.857-1.863 2.276 1.035 2.276 1.035s-.832-2.425.406-1.936c1.238.486 1.862 3.898 1.862 3.898s5.742-5.22 14.285-7.243c0 0 4.048-4.457 10.21-8.166M82.918 92.715c6.163 3.708 9.653 8.165 9.653 8.165 8.542 2.023 14.283 7.243 14.283 7.243s.627-3.412 1.865-3.898c1.238-.488.405 1.937.405 1.937s.419-2.899 2.277-1.036c1.856 1.86-.106 5.892-.52 11.069-.353 4.428-5.263 2.682-5.263 2.682-7.83 1.325-17.32-.614-17.32-.614-14.995 1.077-26.615-4.445-26.615-4.445 8.665-19.668 21.235-21.105 21.235-21.105" data-paper-data="{&quot;origPos&quot;:null}"/><path fill="#da9e83" d="M23.888 113.124c11.26.806 20.888-2.107 24.986-3.609a57.547 57.547 0 0 1 2.11 4.299s-12.101 5.525-27.096 4.448c0 0-9.491 1.938-17.32.613 0 0-4.91 1.747-5.264-2.681-.38-4.784-2.082-8.589-.87-10.607.315 1.608.71 3.45.87 5.467.354 4.428 5.264 2.681 5.264 2.681 7.83 1.325 17.32-.611 17.32-.611m86.994-2.071c.16-2.016.555-3.856.87-5.466 1.21 2.02-.49 5.823-.87 10.606-.352 4.429-5.264 2.682-5.264 2.682-7.83 1.325-17.32-.613-17.32-.613-14.995 1.076-26.614-4.445-26.614-4.445.64-1.453 1.34-2.88 2.097-4.275 3.998 1.508 13.314 4.385 24.517 3.581 0 0 9.49 1.937 17.32.614 0 0 4.912 1.745 5.264-2.684" data-paper-data="{&quot;origPos&quot;:null}"/><path fill="#be9268" d="M76.262 66.65s2.44-2.026 10.673-8.506c4.34-3.417 5.348-15.362 5.348-15.362l7.107-1.523s.84 10.743-.984 18.453c0 0-3.832 18.379-16.356 22.949 0 0-10.582-4.754-5.788-16.01" data-paper-data="{&quot;origPos&quot;:null}"/><path fill="#da9e83" d="M84.78 78.553c6.7-3.835 10.772-11.076 13.034-16.568v.002c-.017.051-.033.11-.05.165-.045.155-.091.31-.143.475l-.023.073c-1.677 5.402-6.18 16.543-15.548 19.962 0 0-5.317-2.395-6.703-7.8.85 1.281 1.876 2.313 2.843 3.108 1.865 1.535 4.495 1.782 6.59.583" data-paper-data="{&quot;origPos&quot;:null}"/><path fill="#ffc2a6" d="m91.795 40.933-1.468.36a1.797 1.797 0 0 1-2.165-1.317 1.802 1.802 0 0 1 1.313-2.172l1.469-.36a1.798 1.798 0 0 1 2.165 1.317 1.803 1.803 0 0 1-1.314 2.172"/><path fill="#be9268" d="M100.933 40.274c.949-3.267-.92-6.685-4.176-7.637-3.257-.952-6.664.925-7.614 4.19-.95 3.265.92 6.682 4.176 7.637a6.14 6.14 0 0 0 7.614-4.19M36.596 66.651c4.794 11.256-5.79 16.01-5.79 16.01-12.523-4.57-16.355-22.949-16.355-22.949-1.821-7.71-.704-18.453-.704-18.453l7.185 1.072s.65 12.396 4.992 15.813c8.23 6.48 10.672 8.506 10.672 8.506" data-paper-data="{&quot;origPos&quot;:null}"/><path fill="#da9e83" d="M15.055 62.025c2.362 5.785 6.654 13.433 13.76 17.282 1.8.983 4.01.81 5.637-.44.91-.69 1.741-1.476 2.48-2.345-1.902 4.238-6.125 6.14-6.125 6.14C21.03 79.095 16.55 67.11 15.056 62.025" data-paper-data="{&quot;origPos&quot;:null}"/><path fill="#ffc2a6" d="M21.063 40.933a1.802 1.802 0 0 1-1.313-2.172 1.796 1.796 0 0 1 2.164-1.317l1.469.36c.96.24 1.546 1.21 1.313 2.172a1.797 1.797 0 0 1-2.165 1.317l-1.468-.36"/><path fill="#be9268" d="M11.612 40.274c-.95-3.267.92-6.685 4.176-7.637 3.256-.952 6.663.925 7.613 4.19a6.158 6.158 0 0 1-4.176 7.635c-3.256.952-6.664-.923-7.613-4.188" data-paper-data="{&quot;origPos&quot;:null}"/><path fill="#cceff7" d="M85.94 27.98c7.19-1.51 10.046 2.837 13.784-.335 2.34-1.988.892-7.521-5.635-6.041-5.28 1.196-8.148 6.376-8.148 6.376m-59.452 0c-7.19-1.51-10.045 2.837-13.782-.335-2.344-1.988-.895-7.521 5.635-6.041C23.62 22.8 26.49 27.98 26.49 27.98"/><path fill="#abdfeb" d="M99.725 25.552c.42-.364.73-.84.89-1.372.384 1.269.06 2.659-.891 3.465-3.738 3.172-6.593-1.175-13.782.335 0 0 .6-1.075 1.743-2.356 5.936-.557 8.619 2.831 12.039-.072m-87.018 0c3.418 2.903 6.102-.485 12.038.072 1.144 1.281 1.744 2.356 1.744 2.356-7.188-1.51-10.045 2.837-13.782-.335-.951-.806-1.277-2.196-.893-3.465a2.95 2.95 0 0 0 .893 1.372"/><path fill="#cceff7" d="M29.825 92.713s-.804-3.226.334-6.024c0 0 3.56 1.066 6.82 1.658 3.956.72 6.786 1.457 5.475 4.367-1.085 2.408-8.21 1.258-12.63 0"/><path fill="#788d91" d="M41.512 91.73a1.426 1.426 0 0 1-2.85 0 1.425 1.425 0 1 1 2.85 0"/><path fill="#cceff7" d="M82.942 92.714c-4.42 1.258-11.545 2.408-12.63 0-1.313-2.91 1.519-3.647 5.475-4.367 3.26-.592 6.82-1.658 6.82-1.658 1.139 2.798.334 6.024.334 6.024"/><path fill="#788d91" d="M71.253 91.73a1.425 1.425 0 1 1 2.85 0 1.426 1.426 0 0 1-2.85 0"/></g></svg>