<svg version="1.1" xmlns="http://www.w3.org/2000/svg" xmlns:xlink="http://www.w3.org/1999/xlink" width="56.24165" height="116.25396" viewBox="0,0,56.24165,116.25396"><g transform="translate(-212.064,-121.94755)"><g data-paper-data="{&quot;isPaintingLayer&quot;:true}" fill-rule="evenodd" stroke="none" stroke-width="1" stroke-linecap="butt" stroke-linejoin="miter" stroke-miterlimit="10" stroke-dasharray="" stroke-dashoffset="0" style="mix-blend-mode: normal"><path d="M255.823,179.705l5.27,-6.18c-0.09212,-0.25712 -0.15845,-0.52276 -0.198,-0.793c-0.339,-0.617 -0.616,-1.387 -0.783,-2.245c-0.437,-2.238 0.049,-4.224 1.089,-4.425c0.555,-0.109 1.153,0.319 1.66,1.078c1.117,-1.071 2.498,-1.518 3.65,-1.034c1.761,0.746 2.323,3.404 1.25,5.932c-0.693,1.621 -1.882,2.795 -3.116,3.232l0.002,0.006c0,0 -3.285,9.312 -6.145,10.349c-2.318,0.835 -10.482,-2.477 -10.482,-2.477c0,0 -0.662,-2.533 -1.001,-3.334c-0.468,-1.097 -2.371,-4.106 -2.371,-4.106zM219.07,181.115c-3.512,4.486 -4.858,17.943 -4.851,17.904c-0.453,0.652 -0.77,1.5 -0.87,2.45c-0.24,2.256 0.841,4.215 2.408,4.381c1.03,0.11 2.01,-0.574 2.635,-1.689c0.584,0.48 1.158,0.67 1.57,0.45c0.773,-0.406 0.681,-2.088 -0.208,-3.755c-0.29913,-0.58351 -0.6886,-1.11608 -1.154,-1.578c-0.03,-0.07 -0.068,-0.135 -0.103,-0.2c0,0 1.528,-9.736 3.158,-12.042c0.815,-1.152 1.341,-1.798 1.53,-2.31c0.146,-0.41 0.307,-1.2 0.38,-1.493c0.52,-2.308 3.382,-7.525 3.382,-7.525c0,0 -6.166,3.227 -7.877,5.407M225.973,232.564h-0.004l-0.442,-11.011h9.646v11.011h0.002c0.061,0.251 -0.015,0.5 -0.186,0.757c-0.546,0.838 -1.494,1.447 -2.3,2.014c-1.249,0.853 -2.828,1.31 -4.21,1.966c-1.247,0.524 -2.89,1.516 -4.007,0.27c-1.477,-1.771 -0.225,-3.944 1.501,-5.007M236.427,232.564v-11.011h9.657l-0.437,11.011h-0.007c1.724,1.063 2.978,3.236 1.501,5.005c-1.116,1.248 -2.762,0.258 -4.014,-0.266c-1.377,-0.659 -2.957,-1.117 -4.206,-1.97c-0.807,-0.565 -1.755,-1.172 -2.3,-2.01c-0.17,-0.259 -0.246,-0.508 -0.187,-0.759z" data-paper-data="{&quot;origPos&quot;:null}" fill="#9b703f"/><path d="M225.905,232.568h-0.005h9.217h-0.006c0.059,0.25 -0.083,0.493 -0.251,0.755c-0.542,0.837 -1.434,1.46 -2.24,2.024c-1.248,0.856 -2.828,1.314 -4.209,1.968c-1.248,0.526 -2.89,1.51 -4.008,0.264c-1.477,-1.771 -0.227,-3.947 1.502,-5.011" fill="#e7c59f"/><path d="M227.228,232.929c3.483,0.706 6.376,-0.444 7.856,-0.424c0.236,0.103 -0.02,0.563 -0.187,0.827c-0.545,0.838 -1.496,1.51 -2.3,2.078c-1.25,0.85 -2.828,1.291 -4.209,1.95c-1.25,0.524 -2.895,1.473 -4.012,0.227c-1.014,-1.218 -0.74,-2.66 0.09,-3.788c0.378,-0.51 1.14,-1.202 2.762,-0.87" fill="#181818"/><path d="M245.584,232.568c1.724,1.064 2.979,3.24 1.499,5.011c-1.119,1.246 -2.76,0.262 -4.007,-0.264c-1.381,-0.654 -2.959,-1.112 -4.209,-1.968c-0.809,-0.564 -1.696,-1.187 -2.242,-2.024c-0.168,-0.262 -0.31,-0.505 -0.246,-0.755h-0.01h9.22h-0.005" fill="#e7c59f"/><path d="M244.257,232.929c1.623,-0.332 2.384,0.36 2.764,0.87c0.83,1.128 1.104,2.57 0.09,3.788c-1.12,1.246 -2.765,0.297 -4.015,-0.227c-1.378,-0.659 -2.956,-1.1 -4.204,-1.95c-0.808,-0.568 -1.755,-1.24 -2.303,-2.078c-0.166,-0.264 -0.422,-0.724 -0.188,-0.827c1.484,-0.02 4.375,1.13 7.856,0.424" fill="#181818"/><path d="M247.65,207.537l-1.88,25.091h-9.527l-0.36,-18.146h-0.278l-0.365,18.146h-9.525l-1.88,-25.09z" fill="#2c2c2d"/><path d="M251.064,203.344c-0.057,3.5 0,22.962 0,22.962c0,0 -2.065,0.907 -4.187,0.755l-0.085,-0.755c0,0 -1.64,-0.181 -2.567,0l-0.105,0.755c-11.802,1.627 -23.513,-0.755 -23.513,-0.755c0,0 -0.024,-19.462 -0.065,-22.962c5.275,1.043 25.448,1.115 30.522,0" fill="#181818"/><path d="M222.646,207.258c0.097,0 0.177,-0.08 0.177,-0.18c0,-0.094 -0.081,-0.174 -0.177,-0.174c-0.06623,-0.00499 -0.12968,0.02752 -0.16432,0.08419c-0.03464,0.05667 -0.03464,0.12796 0,0.18463c0.03464,0.05667 0.09809,0.08918 0.16432,0.08419M223.133,206.601c0.083,0.085 0.031,0.275 -0.107,0.475c0.138,0.203 0.19,0.393 0.107,0.476c-0.083,0.08 -0.273,0.03 -0.476,-0.11c-0.201,0.14 -0.393,0.19 -0.477,0.11c-0.082,-0.083 -0.034,-0.273 0.11,-0.476c-0.144,-0.201 -0.192,-0.39 -0.109,-0.476c0.083,-0.08 0.276,-0.03 0.476,0.11c0.203,-0.14 0.393,-0.19 0.476,-0.109M222.646,213.054c0.097,0 0.177,-0.079 0.177,-0.175c0,-0.096 -0.081,-0.174 -0.177,-0.174c-0.096,0 -0.175,0.078 -0.175,0.174c0,0.09665 0.07835,0.175 0.175,0.175M223.133,212.399c0.083,0.083 0.031,0.277 -0.107,0.476c0.138,0.203 0.19,0.393 0.107,0.473c-0.083,0.083 -0.273,0.033 -0.476,-0.107c-0.201,0.14 -0.393,0.19 -0.477,0.107c-0.082,-0.081 -0.034,-0.27 0.11,-0.473c-0.144,-0.199 -0.192,-0.393 -0.109,-0.476c0.083,-0.083 0.276,-0.033 0.476,0.107c0.203,-0.14 0.393,-0.19 0.476,-0.107M222.646,218.853c0.097,0 0.177,-0.078 0.177,-0.176c0,-0.0972 -0.0788,-0.176 -0.176,-0.176c-0.0972,0 -0.176,0.0788 -0.176,0.176c0,0.09681 0.07819,0.17545 0.175,0.176M223.133,218.197c0.083,0.083 0.031,0.275 -0.107,0.475c0.138,0.203 0.19,0.393 0.107,0.475c-0.083,0.084 -0.273,0.031 -0.476,-0.11c-0.201,0.141 -0.393,0.194 -0.477,0.111c-0.082,-0.083 -0.034,-0.273 0.11,-0.476c-0.144,-0.2 -0.192,-0.392 -0.109,-0.476c0.083,-0.08 0.276,-0.032 0.476,0.11c0.203,-0.142 0.393,-0.19 0.476,-0.109M229.868,207.624c0.04721,-0.00026 0.09238,-0.01927 0.12557,-0.05284c0.03319,-0.03357 0.05169,-0.07895 0.05143,-0.12616c0,-0.096 -0.079,-0.175 -0.177,-0.175c-0.099,0 -0.177,0.079 -0.177,0.174c-0.00053,0.04738 0.01785,0.09302 0.05107,0.12681c0.03322,0.03379 0.07855,0.05293 0.12593,0.05319M230.353,206.965c0.083,0.083 0.033,0.272 -0.107,0.477c0.139,0.199 0.19,0.391 0.107,0.472c-0.081,0.085 -0.273,0.035 -0.475,-0.105c-0.203,0.14 -0.393,0.19 -0.478,0.105c-0.08,-0.081 -0.03,-0.273 0.11,-0.472c-0.14,-0.205 -0.19,-0.394 -0.11,-0.477c0.085,-0.079 0.275,-0.031 0.478,0.111c0.202,-0.142 0.394,-0.19 0.475,-0.112M229.868,213.422c0.097,0 0.177,-0.08 0.177,-0.18c0,-0.096 -0.079,-0.172 -0.177,-0.172c-0.099,0 -0.177,0.076 -0.177,0.172c-0.00053,0.04729 0.01788,0.09283 0.05113,0.12645c0.03325,0.03363 0.07858,0.05255 0.12587,0.05255M230.353,212.765c0.083,0.08 0.033,0.273 -0.107,0.473c0.139,0.205 0.19,0.395 0.107,0.477c-0.081,0.082 -0.273,0.034 -0.475,-0.11c-0.203,0.144 -0.393,0.191 -0.478,0.111c-0.08,-0.083 -0.03,-0.273 0.11,-0.478c-0.14,-0.201 -0.19,-0.393 -0.11,-0.474c0.085,-0.08 0.275,-0.032 0.478,0.11c0.202,-0.142 0.394,-0.19 0.475,-0.109M229.868,219.218c0.09698,0.00001 0.1759,-0.07803 0.177,-0.175c0,-0.09775 -0.07925,-0.177 -0.177,-0.177c-0.09775,0 -0.177,0.07925 -0.177,0.177c0.0011,0.09697 0.08002,0.17501 0.177,0.175M230.353,218.563c0.083,0.081 0.033,0.271 -0.107,0.474c0.139,0.2 0.19,0.395 0.107,0.476c-0.081,0.08 -0.273,0.032 -0.475,-0.11c-0.203,0.142 -0.393,0.19 -0.478,0.109c-0.08,-0.08 -0.03,-0.275 0.11,-0.475c-0.14,-0.204 -0.19,-0.394 -0.11,-0.474c0.085,-0.083 0.275,-0.033 0.478,0.11c0.202,-0.143 0.394,-0.193 0.475,-0.11M237.981,207.624c0.04703,-0.00026 0.092,-0.01933 0.12487,-0.05296c0.03288,-0.03363 0.05093,-0.07902 0.05013,-0.12604c0,-0.096 -0.077,-0.175 -0.175,-0.175c-0.094,0 -0.177,0.079 -0.177,0.174c-0.00002,0.09787 0.07815,0.17783 0.176,0.18M238.466,206.965c0.083,0.083 0.031,0.272 -0.107,0.477c0.137,0.199 0.19,0.391 0.107,0.472c-0.083,0.085 -0.274,0.035 -0.474,-0.105c-0.201,0.14 -0.396,0.19 -0.474,0.105c-0.085,-0.081 -0.035,-0.273 0.105,-0.472c-0.14,-0.205 -0.191,-0.394 -0.105,-0.477c0.078,-0.079 0.273,-0.031 0.474,0.111c0.201,-0.142 0.391,-0.19 0.474,-0.112M237.981,213.422c0.098,0 0.175,-0.08 0.175,-0.18c0,-0.096 -0.077,-0.172 -0.175,-0.172c-0.094,0 -0.177,0.076 -0.177,0.172c0.00052,0.09748 0.07854,0.17684 0.176,0.179M238.466,212.765c0.083,0.08 0.031,0.273 -0.107,0.473c0.137,0.205 0.19,0.395 0.107,0.477c-0.083,0.082 -0.274,0.034 -0.474,-0.11c-0.201,0.144 -0.396,0.191 -0.474,0.111c-0.085,-0.083 -0.035,-0.273 0.105,-0.478c-0.14,-0.201 -0.191,-0.393 -0.105,-0.474c0.078,-0.08 0.273,-0.032 0.474,0.11c0.201,-0.142 0.391,-0.19 0.474,-0.109M237.981,219.218c0.09665,0 0.175,-0.07835 0.175,-0.175c0,-0.098 -0.077,-0.177 -0.175,-0.177c-0.09708,0.0016 -0.1754,0.07992 -0.177,0.177c0.00264,0.09592 0.08007,0.1729 0.176,0.175M238.466,218.563c0.083,0.081 0.031,0.271 -0.107,0.474c0.137,0.2 0.19,0.395 0.107,0.476c-0.083,0.08 -0.274,0.032 -0.474,-0.11c-0.201,0.142 -0.396,0.19 -0.474,0.109c-0.085,-0.08 -0.035,-0.275 0.105,-0.475c-0.14,-0.204 -0.191,-0.394 -0.105,-0.474c0.078,-0.083 0.273,-0.033 0.474,0.11c0.201,-0.143 0.391,-0.193 0.474,-0.11M245.909,207.471c0.09406,-0.00796 0.16509,-0.0887 0.161,-0.183c-0.00256,-0.04708 -0.02391,-0.09115 -0.05925,-0.12236c-0.03534,-0.0312 -0.08172,-0.04693 -0.12875,-0.04364c-0.0468,0.00221 -0.09062,0.02364 -0.1211,0.05923c-0.03048,0.03559 -0.04492,0.08218 -0.0399,0.12877c0.00305,0.04649 0.02472,0.08978 0.0601,0.12008c0.03539,0.0303 0.0815,0.04505 0.1279,0.04092M246.348,206.786c0.085,0.079 0.05,0.271 -0.077,0.482c0.031,0.035 0.055,0.075 0.077,0.109l-0.1,0.404c-0.09,-0.011 -0.204,-0.054 -0.32,-0.122c-0.192,0.155 -0.38,0.216 -0.467,0.137c-0.09,-0.074 -0.051,-0.272 0.077,-0.48c-0.152,-0.192 -0.217,-0.377 -0.14,-0.467c0.078,-0.087 0.272,-0.052 0.48,0.075c0.192,-0.151 0.38,-0.216 0.47,-0.138" fill="#f6b90c"/><path d="M245.984,218.834c-0.09457,0.01725 -0.15992,0.10439 -0.15,0.2c0.01199,0.09545 0.09839,0.16359 0.194,0.153zM246.063,219.368c-0.181,0.166 -0.367,0.238 -0.459,0.168c-0.092,-0.072 -0.07,-0.269 0.048,-0.485c-0.166,-0.183 -0.238,-0.364 -0.166,-0.456c0.07,-0.096 0.269,-0.067 0.485,0.046z" fill="#d09b16"/><path d="M248.777,207.258c0.094,0 0.172,-0.08 0.172,-0.18c0,-0.094 -0.078,-0.174 -0.172,-0.174c-0.06623,-0.00499 -0.12968,0.02752 -0.16432,0.08419c-0.03464,0.05667 -0.03464,0.12796 0,0.18463c0.03464,0.05667 0.09809,0.08918 0.16432,0.08419M249.262,206.601c0.083,0.085 0.03,0.275 -0.11,0.475c0.14,0.203 0.193,0.393 0.11,0.476c-0.084,0.08 -0.274,0.03 -0.474,-0.11c-0.204,0.14 -0.396,0.19 -0.479,0.11c-0.08,-0.083 -0.033,-0.273 0.11,-0.476c-0.143,-0.201 -0.19,-0.39 -0.11,-0.476c0.083,-0.08 0.275,-0.03 0.479,0.11c0.201,-0.14 0.391,-0.19 0.474,-0.109M248.777,213.054c0.09638,-0.0011 0.17373,-0.07993 0.17299,-0.17632c-0.00073,-0.09639 -0.07927,-0.17403 -0.17565,-0.17367c-0.09639,0.00036 -0.17433,0.0786 -0.17434,0.17499c0.00026,0.04668 0.01906,0.09134 0.05226,0.12416c0.03319,0.03282 0.07807,0.05111 0.12474,0.05084M249.262,212.399c0.083,0.083 0.03,0.277 -0.11,0.476c0.14,0.203 0.193,0.393 0.11,0.473c-0.084,0.083 -0.274,0.033 -0.474,-0.107c-0.204,0.14 -0.396,0.19 -0.479,0.107c-0.08,-0.081 -0.033,-0.27 0.11,-0.473c-0.143,-0.199 -0.19,-0.393 -0.11,-0.476c0.083,-0.083 0.275,-0.033 0.479,0.107c0.201,-0.14 0.391,-0.19 0.474,-0.107M248.777,218.853c0.09587,-0.00164 0.17256,-0.08012 0.172,-0.176c0,-0.09637 -0.07813,-0.1745 -0.1745,-0.1745c-0.09637,0 -0.1745,0.07813 -0.1745,0.1745c0,0.04685 0.01868,0.09177 0.0519,0.12481c0.03322,0.03304 0.07825,0.05146 0.1251,0.05119M249.262,218.197c0.083,0.083 0.03,0.275 -0.11,0.475c0.14,0.203 0.193,0.393 0.11,0.475c-0.084,0.084 -0.274,0.031 -0.474,-0.11c-0.204,0.141 -0.396,0.194 -0.479,0.111c-0.08,-0.083 -0.033,-0.273 0.11,-0.476c-0.143,-0.2 -0.19,-0.392 -0.11,-0.476c0.083,-0.08 0.275,-0.032 0.479,0.11c0.201,-0.142 0.391,-0.19 0.474,-0.109M226.139,210.36c0.04685,0.00027 0.09187,-0.01816 0.1251,-0.05119c0.03322,-0.03304 0.0519,-0.07795 0.0519,-0.12481c0,-0.094 -0.078,-0.177 -0.177,-0.177c-0.09708,0.0016 -0.1754,0.07992 -0.177,0.177c0,0.04703 0.01881,0.0921 0.05225,0.12516c0.03344,0.03306 0.07872,0.05137 0.12575,0.05084M226.625,209.706c0.083,0.083 0.032,0.273 -0.11,0.473c0.142,0.203 0.193,0.396 0.11,0.476c-0.081,0.083 -0.274,0.033 -0.477,-0.107c-0.201,0.14 -0.393,0.19 -0.477,0.107c-0.08,-0.081 -0.032,-0.273 0.11,-0.476c-0.142,-0.2 -0.19,-0.39 -0.109,-0.474c0.083,-0.08 0.276,-0.032 0.476,0.11c0.203,-0.142 0.396,-0.189 0.477,-0.109M226.139,216.158c0.06623,0.00499 0.12968,-0.02752 0.16432,-0.08419c0.03464,-0.05667 0.03464,-0.12796 0,-0.18463c-0.03464,-0.05667 -0.09809,-0.08918 -0.16432,-0.08419c-0.097,0 -0.177,0.082 -0.177,0.18c0.0011,0.09736 0.08063,0.17556 0.178,0.175M226.625,215.505c0.083,0.083 0.032,0.275 -0.11,0.473c0.142,0.204 0.193,0.393 0.11,0.474c-0.081,0.08 -0.274,0.035 -0.477,-0.11c-0.201,0.145 -0.393,0.19 -0.477,0.11c-0.08,-0.081 -0.032,-0.271 0.11,-0.474c-0.142,-0.198 -0.19,-0.39 -0.109,-0.473c0.083,-0.083 0.276,-0.035 0.476,0.107c0.203,-0.142 0.396,-0.19 0.477,-0.107M233.939,210.672c0.09775,0 0.177,-0.07925 0.177,-0.177c0,-0.09775 -0.07925,-0.177 -0.177,-0.177c-0.09775,0 -0.177,0.07925 -0.177,0.177c-0.00027,0.0472 0.01843,0.09253 0.0519,0.12581c0.03347,0.03328 0.07891,0.05172 0.1261,0.05119M234.424,210.015c0.081,0.081 0.033,0.273 -0.107,0.478c0.14,0.2 0.188,0.39 0.107,0.474c-0.081,0.08 -0.273,0.03 -0.478,-0.11c-0.199,0.139 -0.389,0.189 -0.475,0.109c-0.08,-0.083 -0.032,-0.273 0.11,-0.473c-0.142,-0.205 -0.19,-0.397 -0.109,-0.479c0.084,-0.08 0.274,-0.032 0.474,0.11c0.205,-0.142 0.398,-0.189 0.478,-0.109M233.939,216.469c0.097,0 0.177,-0.081 0.177,-0.177c-0.0011,-0.09626 -0.07974,-0.17356 -0.176,-0.173c-0.0918,0.00693 -0.16274,0.08344 -0.16274,0.1755c0,0.09206 0.07094,0.16857 0.16274,0.1755M234.424,215.815c0.081,0.08 0.033,0.273 -0.107,0.473c0.14,0.201 0.188,0.391 0.107,0.476c-0.081,0.08 -0.273,0.032 -0.478,-0.11c-0.199,0.142 -0.389,0.19 -0.475,0.11c-0.08,-0.086 -0.032,-0.276 0.11,-0.476c-0.142,-0.201 -0.19,-0.393 -0.109,-0.474c0.084,-0.08 0.274,-0.032 0.474,0.11c0.205,-0.142 0.398,-0.19 0.478,-0.109M242.61,210.521c0.0918,-0.00693 0.16274,-0.08344 0.16274,-0.1755c0,-0.09206 -0.07094,-0.16857 -0.16274,-0.1755c-0.09693,0 -0.1755,0.07857 -0.1755,0.1755c0,0.09693 0.07857,0.1755 0.1755,0.1755M243.095,209.867c0.08,0.081 0.032,0.273 -0.11,0.476c0.142,0.2 0.19,0.39 0.109,0.473c-0.08,0.08 -0.27,0.03 -0.476,-0.11c-0.201,0.14 -0.393,0.19 -0.476,0.11c-0.081,-0.083 -0.033,-0.273 0.111,-0.473c-0.144,-0.203 -0.192,-0.396 -0.111,-0.476c0.083,-0.083 0.276,-0.033 0.476,0.107c0.206,-0.14 0.396,-0.19 0.476,-0.107M242.609,216.318c0.04668,-0.00026 0.09134,-0.01906 0.12416,-0.05226c0.03282,-0.03319 0.05111,-0.07807 0.05084,-0.12474c0,-0.096 -0.078,-0.172 -0.175,-0.172c-0.098,0 -0.177,0.076 -0.177,0.172c-0.00027,0.0472 0.01843,0.09253 0.0519,0.12581c0.03347,0.03328 0.07891,0.05172 0.1261,0.05119M243.095,215.661c0.08,0.085 0.032,0.275 -0.11,0.478c0.142,0.201 0.19,0.391 0.109,0.473c-0.08,0.086 -0.27,0.031 -0.476,-0.106c-0.201,0.137 -0.393,0.192 -0.476,0.106c-0.081,-0.083 -0.033,-0.273 0.111,-0.473c-0.144,-0.203 -0.192,-0.393 -0.111,-0.477c0.083,-0.082 0.276,-0.03 0.476,0.11c0.206,-0.139 0.396,-0.191 0.476,-0.111M220.595,220.395c8.105,0.918 16.155,1.048 24.195,0.528c0.306,-0.436 1.407,-0.094 1.407,-0.094c1.617,-0.122 3.415,-0.292 4.853,-0.748c0.003,3.397 0.013,6.225 0.013,6.225c0,0 -2.065,0.907 -4.186,0.755l-0.086,-0.755c0,0 -1.641,-0.181 -2.567,0l-0.103,0.755c-11.804,1.627 -23.513,-0.756 -23.513,-0.756l-0.013,-5.91" fill="#f6b90c"/><path d="M246.096,220.832l-0.599,-5.496l-0.612,5.579l-0.192,0.017l1.86,-17l0.196,-0.064l-1.16,10.613h0.002l0.695,6.34z" fill="#2c2c2d"/><path d="M246.784,227.07l-0.687,-6.236l0.188,-0.013l0.684,6.23zM244.214,227.07l0.673,-6.153l-0.192,0.015l-0.669,6.12z" fill="#d09b16"/><path d="M218.811,198.527l-4.763,0.002c0,0 1.536,-13.477 5.05,-17.963c1.553,-1.981 6.05,-4.514 6.863,-4.96c2.01,-1.297 8.046,-1.49 8.046,-1.49l1.685,0.049h0.14l1.682,-0.048c0,0 6.06,0.211 8.057,1.516l10.126,3.956l5.315,-6.162l4.573,2.252c0,0 -4.222,8.85 -7.084,9.888c-2.222,0.803 -8.874,-1.829 -9.44,-2.08c1.44,6.214 1.831,14.326 1.925,19.33l0.009,0.778h-30.46c0.007,-0.37 0.018,-0.672 0.027,-1.086c0.107,-4.187 0.421,-10.399 1.359,-15.928c-0.07837,0.11617 -0.15939,0.23054 -0.243,0.343c-1.628,2.302 -2.867,11.603 -2.867,11.603" fill="#2c2c2d"/><path d="M240.86,185.698h6.018v6.82l-2.966,0.563l-3.052,-0.563zM236.076,195.441l-0.046,0.04l-0.064,-0.037l-1.274,-0.847l-0.043,-0.03v-17.817h0.192v17.72l1.18,0.787l1.222,-0.735z" fill="#181818"/><path d="M232.738,176.427c-0.131,-0.037 -0.227,-0.133 -0.321,-0.211l-0.12,-0.103c-0.03716,-0.03766 -0.07253,-0.07703 -0.106,-0.118c-0.51,-0.63 0,-3.253 0,-3.253c2.38661,0.39923 4.82283,0.40092 7.21,0.005c0,0 0.574,2.677 0,3.248c-0.223,0.22 -0.523,0.482 -0.936,0.554c-1.411,0.245 -4.357,0.293 -5.727,-0.122" fill="#2c2c2d"/><path d="M231.965,174.618c0,0 0,0.042 -0.006,0.116c-0.0068,0.10887 -0.0078,0.21802 -0.003,0.327c0.003,0.142 0.016,0.31 0.062,0.5c0.045,0.188 0.135,0.39 0.305,0.548c0.084,0.076 0.184,0.144 0.3,0.196c0.116,0.054 0.234,0.109 0.365,0.144c0.26,0.076 0.548,0.118 0.845,0.148c0.298,0.033 0.61,0.044 0.925,0.055c0.319,0.004 0.638,0.002 0.961,-0.007c0.324,-0.006 0.647,-0.017 0.962,-0.037c0.317,-0.02 0.627,-0.035 0.93,-0.057c0.302,-0.024 0.597,-0.045 0.868,-0.074c0.26,-0.037 0.498,-0.15 0.675,-0.296c0.16184,-0.14008 0.28915,-0.31564 0.372,-0.513c0.07,-0.18 0.105,-0.35 0.118,-0.487c0.013,-0.14 0.015,-0.25 0.015,-0.327l-0.002,-0.113c0,0 0.002,0.037 0.01,0.113c0.01,0.076 0.016,0.188 0.012,0.332c-0.00464,0.17221 -0.03497,0.34276 -0.09,0.506c-0.061,0.19 -0.179,0.4 -0.365,0.57c-0.188,0.17 -0.435,0.303 -0.727,0.353c-0.59929,0.08068 -1.20137,0.13906 -1.805,0.175c-0.317,0.019 -0.643,0.034 -0.966,0.043c-0.326,0.009 -0.65,0.009 -0.973,-0.002c-0.31326,-0.00858 -0.62594,-0.03194 -0.937,-0.07c-0.29495,-0.03242 -0.58621,-0.09235 -0.87,-0.179c-0.1324,-0.04285 -0.26033,-0.09845 -0.382,-0.166c-0.11611,-0.06235 -0.22284,-0.14079 -0.317,-0.233c-0.0841,-0.08863 -0.15333,-0.19028 -0.205,-0.301c-0.04146,-0.09844 -0.0723,-0.20102 -0.092,-0.306c-0.02584,-0.17038 -0.03588,-0.34278 -0.03,-0.515c0.004,-0.142 0.019,-0.253 0.028,-0.327l0.017,-0.116" fill="#181818"/><path d="M235.593,180.497c0,-0.23583 0.19117,-0.427 0.427,-0.427c0.23583,0 0.427,0.19117 0.427,0.427c-0.01537,0.2245 -0.20197,0.39876 -0.427,0.39876c-0.22503,0 -0.41163,-0.17426 -0.427,-0.39876M235.593,175.615c0,-0.23583 0.19117,-0.427 0.427,-0.427c0.23583,0 0.427,0.19117 0.427,0.427c-0.01537,0.2245 -0.20197,0.39876 -0.427,0.39876c-0.22503,0 -0.41163,-0.17426 -0.427,-0.39876M235.593,174.304c-0.00027,-0.11297 0.04456,-0.22138 0.12454,-0.30117c0.07998,-0.07979 0.18849,-0.12436 0.30146,-0.12383c0.238,0 0.428,0.185 0.428,0.425c-0.01537,0.2245 -0.20197,0.39876 -0.427,0.39876c-0.22503,0 -0.41163,-0.17426 -0.427,-0.39876M235.593,186.505c0,-0.23583 0.19117,-0.427 0.427,-0.427c0.23583,0 0.427,0.19117 0.427,0.427c-0.01537,0.2245 -0.20197,0.39876 -0.427,0.39876c-0.22503,0 -0.41163,-0.17426 -0.427,-0.39876M235.593,192.51c0.00221,-0.2361 0.1952,-0.42582 0.43131,-0.42398c0.23611,0.00184 0.42613,0.19453 0.42466,0.43064c-0.00147,0.23611 -0.19386,0.42643 -0.42997,0.42534c-0.234,0 -0.426,-0.192 -0.426,-0.432M220.51,201.527c10.231,0.48 20.478,0.48 30.709,0v3.57c-10.231,0.482 -20.478,0.482 -30.709,0z" fill="#f6b90c"/><path d="M257.509,154.476c1.123,0.722 1.862,1.948 1.862,3.34c0,2.219 -1.873,4.019 -4.183,4.019c-0.065,0 -0.131,-0.002 -0.197,-0.006c-3.741,6.698 -10.91,11.225 -19.135,11.225c-8.236,0 -15.41,-4.538 -19.149,-11.248c-0.149,0.018 -0.306,0.03 -0.461,0.03c-2.308,0 -4.182,-1.8 -4.182,-4.02c0,-1.494 0.852,-2.797 2.115,-3.491c-0.147,-1.025 -0.223,-2.072 -0.223,-3.137c0,-12.076 9.805,-21.864 21.9,-21.864c12.095,0 21.898,9.788 21.898,21.864c0,1.118 -0.083,2.217 -0.245,3.288" data-paper-data="{&quot;origPos&quot;:null}" fill="#9b703f"/><g><path d="M230.95,149.552c0,0 -0.48,1.695 -1.992,1.36c-0.738,-0.164 -0.868,-1.13 -3.238,-0.697c-0.745,0.17 -2.312,1.087 -2.614,1.7c-0.302,0.613 -0.084,-2.248 2.35,-3.312c1.756,-0.633 2.351,-0.603 3.805,-0.603c1.453,0 1.901,0.853 1.69,1.552M241.05,149.552c0,0 0.48,1.695 1.992,1.36c0.738,-0.164 0.868,-1.13 3.238,-0.697c0.745,0.17 2.312,1.087 2.614,1.7c0.302,0.613 0.084,-2.248 -2.35,-3.312c-1.756,-0.633 -2.351,-0.603 -3.805,-0.603c-1.453,0 -1.901,0.853 -1.69,1.552M229,157c0,1.657 -0.895,3 -2,3c-1.105,0 -2,-1.343 -2,-3c0,-1.657 0.895,-3 2,-3c1.105,0 2,1.343 2,3M247,157c0,1.657 -0.895,3 -2,3c-1.105,0 -2,-1.343 -2,-3c0,-1.657 0.895,-3 2,-3c1.105,0 2,1.343 2,3" fill="#2c2c2d"/><path d="M233,160c0,0 0.207,-1.042 0.504,-1.342c0.801,-1.195 2.491,-1.658 2.491,-1.658c0,0 2.175,0.727 2.654,1.641c0.443,0.852 0.341,1.28 0.341,1.28c0,0 -2.125,-1.934 -2.965,-1.816c-1.127,0.158 -3.025,1.895 -3.025,1.895z" fill="#683918"/><path d="M229.2,162.696c0,0 6.898,3.208 13.173,-0.397c0,0 -1.39,5.47 -5.95,5.561c-4.115,0.122 -4.984,-1.492 -5.477,-1.956c-0.493,-0.463 -1.421,-1.772 -1.747,-3.208" fill="#683918"/></g><path d="M258.625,148.34c0.035,2.565 -0.866,8.123 -2.618,11.435c0,0 -4.309,-12.171 -7.858,-14.097c-4.335,-2.356 -15.766,1.038 -19.64,-2.016c-0.642,-0.504 -0.572,-1.654 -0.572,-1.654c0,0 -0.74,1.464 -1.1,1.872c-1.879,2.134 -6.748,5.221 -9.055,6.881c-1.86,1.336 -1.947,1.318 -1.537,9.014c0,0 -3.413,-7.002 -3.223,-11.678c0.05,-1.346 0.706,-4.335 1.77,-7.37c3.853,-7.721 11.839,-13.025 21.069,-13.025c10.601,0 19.497,6.999 22.44,16.618c0.009,1.53 0.309,2.876 0.324,4.02" fill="#2c2c2d"/><path d="M256.756,124.75l1.874,23.34h-45.62l1.882,-23.338c20.93,-6.31 41.864,0 41.864,0z" fill="#343434"/><path d="M216.37,126.532c0.20194,-0.05473 0.34516,-0.23396 0.354,-0.443c0,-0.196 -0.159,-0.318 -0.354,-0.275c-0.197,0.048 -0.354,0.249 -0.354,0.445c0,0.201 0.157,0.319 0.354,0.273M217.345,124.968c0.166,0.131 0.067,0.543 -0.214,1.017c0.281,0.344 0.38,0.711 0.214,0.914c-0.166,0.207 -0.551,0.198 -0.953,0.006c-0.407,0.384 -0.791,0.585 -0.957,0.458c-0.164,-0.126 -0.064,-0.538 0.218,-1.02c-0.282,-0.337 -0.382,-0.701 -0.218,-0.91c0.166,-0.212 0.551,-0.208 0.957,-0.02c0.402,-0.385 0.787,-0.572 0.953,-0.445M219.324,125.87c0.196,-0.037 0.354,-0.231 0.354,-0.427c0,-0.199 -0.158,-0.326 -0.354,-0.286c-0.197,0.039 -0.354,0.233 -0.354,0.432c0,0.194 0.157,0.323 0.354,0.281M220.305,124.343c0.166,0.138 0.067,0.546 -0.219,1.01c0.286,0.353 0.385,0.723 0.219,0.923c-0.166,0.201 -0.555,0.175 -0.96,-0.028c-0.406,0.369 -0.795,0.551 -0.961,0.421c-0.166,-0.131 -0.066,-0.543 0.216,-1.015c-0.282,-0.347 -0.382,-0.711 -0.216,-0.918c0.166,-0.203 0.555,-0.183 0.961,0.017c0.405,-0.368 0.794,-0.545 0.959,-0.41M222.294,125.322c0.20124,-0.03784 0.34922,-0.21035 0.356,-0.415c0,-0.201 -0.157,-0.331 -0.356,-0.301c-0.197,0.035 -0.358,0.221 -0.358,0.417c0,0.199 0.161,0.332 0.358,0.299M223.277,123.83c0.169,0.141 0.068,0.545 -0.216,1.001c0.284,0.362 0.385,0.737 0.216,0.932c-0.163,0.194 -0.557,0.152 -0.963,-0.066c-0.409,0.354 -0.796,0.524 -0.966,0.389c-0.166,-0.14 -0.066,-0.546 0.22,-1.006c-0.286,-0.358 -0.386,-0.729 -0.22,-0.93c0.17,-0.193 0.557,-0.163 0.966,0.057c0.406,-0.356 0.8,-0.519 0.963,-0.377M225.277,124.88c0.20245,-0.02709 0.35488,-0.19779 0.359,-0.402c0.00129,-0.09181 -0.03779,-0.17955 -0.1069,-0.24c-0.06911,-0.06045 -0.16128,-0.0875 -0.2521,-0.074c-0.198,0.028 -0.358,0.209 -0.358,0.406c-0.00291,0.09184 0.03573,0.18009 0.10519,0.24024c0.06946,0.06015 0.16233,0.08578 0.25281,0.06976M226.267,123.427c0.166,0.15 0.066,0.547 -0.218,0.99c0.284,0.378 0.384,0.753 0.218,0.94c-0.168,0.19 -0.559,0.134 -0.968,-0.1c-0.412,0.34 -0.802,0.493 -0.972,0.349c-0.167,-0.139 -0.066,-0.545 0.223,-0.995c-0.289,-0.368 -0.389,-0.742 -0.223,-0.934c0.17,-0.19 0.559,-0.144 0.972,0.09c0.407,-0.343 0.8,-0.487 0.968,-0.34M228.273,124.55c0.20099,-0.02067 0.35501,-0.18799 0.359,-0.39c0.00148,-0.09273 -0.0371,-0.1816 -0.10586,-0.24385c-0.06876,-0.06224 -0.16101,-0.09182 -0.25314,-0.08115c-0.201,0.019 -0.358,0.196 -0.358,0.392c-0.0022,0.09262 0.03611,0.18158 0.10489,0.24364c0.06878,0.06206 0.16121,0.09104 0.25311,0.07936M229.263,123.134c0.169,0.153 0.068,0.548 -0.22,0.982c0.288,0.389 0.389,0.769 0.22,0.949c-0.168,0.181 -0.559,0.114 -0.972,-0.135c-0.41,0.322 -0.802,0.46 -0.97,0.312c-0.17,-0.151 -0.068,-0.548 0.22,-0.989c-0.288,-0.379 -0.39,-0.756 -0.22,-0.94c0.168,-0.19 0.56,-0.126 0.97,0.122c0.412,-0.322 0.804,-0.456 0.972,-0.301M243.297,124.548c0.201,0.016 0.362,-0.128 0.358,-0.322c-0.00243,-0.20282 -0.15628,-0.37172 -0.358,-0.393c-0.197,-0.018 -0.359,0.126 -0.359,0.325c0.00573,0.20131 0.15885,0.36765 0.359,0.39M244.289,123.314c0.168,0.183 0.067,0.56 -0.219,0.94c0.286,0.441 0.387,0.838 0.218,0.988c-0.168,0.148 -0.559,0.011 -0.97,-0.312c-0.413,0.249 -0.802,0.316 -0.974,0.136c-0.168,-0.182 -0.067,-0.563 0.223,-0.95c-0.291,-0.434 -0.391,-0.829 -0.223,-0.981c0.172,-0.155 0.561,-0.022 0.975,0.301c0.41,-0.249 0.801,-0.312 0.97,-0.122M246.293,124.877c0.09051,0.0142 0.18266,-0.01236 0.25173,-0.07255c0.06907,-0.06019 0.10797,-0.14785 0.10627,-0.23945c0,-0.194 -0.162,-0.378 -0.358,-0.404c-0.09066,-0.01453 -0.1831,0.01188 -0.25241,0.07211c-0.0693,0.06023 -0.10834,0.14809 -0.10659,0.23989c0.00481,0.20432 0.15666,0.37521 0.359,0.404M247.28,123.677c0.169,0.192 0.066,0.565 -0.218,0.936c0.284,0.447 0.387,0.855 0.218,0.992c-0.168,0.146 -0.559,-0.007 -0.965,-0.347c-0.413,0.234 -0.803,0.288 -0.973,0.1c-0.168,-0.19 -0.067,-0.562 0.223,-0.94c-0.291,-0.442 -0.391,-0.842 -0.223,-0.992c0.171,-0.147 0.56,-0.003 0.973,0.34c0.406,-0.233 0.797,-0.279 0.965,-0.089M249.276,125.315c0.196,0.031 0.356,-0.1 0.356,-0.297c-0.00778,-0.20528 -0.15477,-0.37869 -0.356,-0.42c-0.197,-0.031 -0.358,0.102 -0.358,0.301c0.00836,0.20493 0.1566,0.37719 0.358,0.416M250.261,124.15c0.164,0.201 0.064,0.572 -0.218,0.93c0.282,0.46 0.382,0.866 0.218,1.006c-0.166,0.135 -0.557,-0.035 -0.963,-0.389c-0.411,0.218 -0.798,0.258 -0.968,0.066c-0.169,-0.195 -0.068,-0.57 0.22,-0.932c-0.286,-0.456 -0.386,-0.86 -0.22,-1.001c0.17,-0.143 0.557,0.021 0.968,0.377c0.406,-0.22 0.797,-0.253 0.963,-0.057M252.246,125.862c0.197,0.041 0.357,-0.085 0.357,-0.284c-0.00757,-0.20714 -0.15448,-0.38285 -0.357,-0.427c-0.196,-0.042 -0.354,0.085 -0.354,0.283c0.00644,0.20676 0.15212,0.38289 0.354,0.428M253.223,124.736c0.169,0.207 0.07,0.572 -0.214,0.919c0.284,0.471 0.383,0.884 0.214,1.014c-0.165,0.131 -0.55,-0.052 -0.955,-0.421c-0.406,0.203 -0.795,0.229 -0.963,0.028c-0.166,-0.2 -0.066,-0.569 0.218,-0.922c-0.284,-0.465 -0.384,-0.873 -0.218,-1.01c0.168,-0.136 0.557,0.04 0.963,0.41c0.405,-0.203 0.789,-0.221 0.955,-0.018M255.2,126.521c0.194,0.048 0.352,-0.072 0.352,-0.27c0,-0.199 -0.158,-0.395 -0.352,-0.445c-0.192,-0.046 -0.354,0.076 -0.354,0.273c0.01081,0.20808 0.15331,0.386 0.354,0.442M256.172,125.433c0.166,0.21 0.066,0.574 -0.216,0.91c0.282,0.481 0.382,0.894 0.216,1.021c-0.164,0.126 -0.548,-0.075 -0.95,-0.459c-0.409,0.192 -0.791,0.201 -0.957,-0.006c-0.169,-0.203 -0.068,-0.57 0.218,-0.914c-0.286,-0.474 -0.387,-0.887 -0.218,-1.017c0.166,-0.129 0.548,0.061 0.957,0.445c0.402,-0.188 0.786,-0.192 0.95,0.02M231.274,124.328c0.19972,-0.01051 0.35712,-0.17402 0.36,-0.374c0,-0.196 -0.16,-0.35 -0.36,-0.34c-0.199,0.011 -0.359,0.181 -0.359,0.38c-0.0015,0.09348 0.03673,0.1832 0.10518,0.24689c0.06845,0.06368 0.1607,0.09534 0.25382,0.08711M232.27,122.951c0.168,0.157 0.067,0.55 -0.223,0.973c0.291,0.395 0.391,0.781 0.223,0.955c-0.172,0.178 -0.561,0.095 -0.974,-0.17c-0.415,0.308 -0.805,0.435 -0.975,0.28c-0.17,-0.157 -0.067,-0.552 0.223,-0.982c-0.291,-0.391 -0.393,-0.772 -0.223,-0.951c0.17,-0.179 0.559,-0.105 0.975,0.161c0.408,-0.31 0.802,-0.43 0.974,-0.266M234.283,124.219c0.1978,-0.00428 0.35682,-0.16418 0.36,-0.362c-0.00079,-0.09459 -0.0392,-0.18498 -0.10674,-0.25121c-0.06754,-0.06623 -0.15867,-0.10285 -0.25326,-0.10179c-0.20006,0.00377 -0.36087,0.16592 -0.363,0.366c-0.00007,0.09512 0.03859,0.18617 0.10707,0.2522c0.06848,0.06602 0.16088,0.10133 0.25593,0.0978M235.275,122.875c0.168,0.168 0.07,0.557 -0.219,0.967c0.289,0.408 0.387,0.794 0.219,0.964c-0.168,0.17 -0.562,0.073 -0.975,-0.207c-0.411,0.297 -0.806,0.406 -0.974,0.244c-0.171,-0.166 -0.068,-0.556 0.222,-0.973c-0.29,-0.401 -0.392,-0.785 -0.222,-0.958c0.168,-0.172 0.564,-0.085 0.974,0.194c0.413,-0.294 0.807,-0.397 0.975,-0.231M237.291,124.219c0.09447,0.00215 0.18582,-0.03387 0.25338,-0.09993c0.06757,-0.06606 0.10564,-0.15657 0.10562,-0.25107c-0.00158,-0.19844 -0.1606,-0.35968 -0.359,-0.364c-0.09506,-0.00326 -0.18736,0.03231 -0.25564,0.09852c-0.06829,0.06621 -0.10669,0.15737 -0.10636,0.25248c0.00265,0.19931 0.16271,0.36071 0.362,0.365M238.284,122.912c0.168,0.173 0.067,0.557 -0.219,0.958c0.286,0.417 0.387,0.807 0.219,0.973c-0.169,0.162 -0.562,0.053 -0.975,-0.244c-0.415,0.279 -0.805,0.377 -0.975,0.207c-0.17,-0.17 -0.07,-0.556 0.223,-0.964c-0.293,-0.41 -0.393,-0.799 -0.223,-0.966c0.171,-0.167 0.56,-0.064 0.975,0.23c0.413,-0.279 0.806,-0.366 0.975,-0.194M240.296,124.328c0.09309,0.00701 0.18484,-0.02537 0.25291,-0.08925c0.06807,-0.06388 0.10619,-0.15341 0.10509,-0.24675c-0.00072,-0.2008 -0.15754,-0.36638 -0.358,-0.378c-0.2,-0.013 -0.36,0.14 -0.36,0.339c0.00285,0.20016 0.16012,0.36399 0.36,0.375M241.29,123.056c0.169,0.179 0.068,0.561 -0.223,0.951c0.291,0.43 0.392,0.825 0.223,0.982c-0.168,0.155 -0.562,0.028 -0.972,-0.279c-0.415,0.264 -0.807,0.347 -0.977,0.17c-0.168,-0.175 -0.07,-0.561 0.22,-0.956c-0.29,-0.423 -0.388,-0.816 -0.22,-0.973c0.171,-0.164 0.562,-0.044 0.977,0.266c0.411,-0.266 0.804,-0.341 0.972,-0.161M213.1,146.964h45.441l0.041,0.504h-45.522z" fill="#f6b90c"/></g></g></svg>