<svg version="1.1" xmlns="http://www.w3.org/2000/svg" xmlns:xlink="http://www.w3.org/1999/xlink" width="84.14" height="114.2733" viewBox="0,0,84.14,114.2733"><g transform="translate(-198.754,-122.88322)"><g data-paper-data="{&quot;isPaintingLayer&quot;:true}" fill-rule="evenodd" stroke="none" stroke-width="1" stroke-linecap="butt" stroke-linejoin="miter" stroke-miterlimit="10" stroke-dasharray="" stroke-dashoffset="0" style="mix-blend-mode: normal"><path d="M282.894,230.483l-83.893,0.665l-0.246,-30.731l83.897,-0.665z" fill="#f7d170"/><path d="M282.662,201.178l-83.895,0.67l-0.013,-1.43l83.897,-0.665zM282.894,230.483l-83.893,0.665l-0.014,-1.423l83.897,-0.667z" fill="#ea5a26"/><path d="M203.845,220.676l0.037,4.736l0.974,-0.009l-0.035,-4.737zM210.053,218.808l0.056,6.552l0.972,-0.004l-0.052,-6.556zM216.297,220.576l0.037,4.737l0.97,-0.006l-0.04,-4.738zM222.521,220.527l0.04,4.737l0.963,-0.01l-0.035,-4.735zM228.726,218.66l0.052,6.553l0.975,-0.006l-0.052,-6.554zM234.966,220.428l0.037,4.736l0.967,-0.007l-0.037,-4.74zM241.189,220.38l0.037,4.735l0.975,-0.006l-0.037,-4.74zM247.402,218.512l0.048,6.554l0.975,-0.01l-0.051,-6.552zM253.64,220.281l0.037,4.737l0.976,-0.01l-0.037,-4.737zM259.865,220.229l0.037,4.737l0.97,-0.008l-0.038,-4.735zM266.071,218.365l0.054,6.551l0.976,-0.006l-0.054,-6.554zM272.313,220.132l0.035,4.735l0.974,-0.008l-0.038,-4.737zM278.538,220.082l0.039,4.735l0.972,-0.008l-0.038,-4.736zM207.686,211.867l0.499,-5.224l5.205,-0.044l0.013,1.502l-3.673,0.029l-0.24,2.18c0.172,-0.127 0.396,-0.23 0.66,-0.322c0.262,-0.083 0.55,-0.132 0.86,-0.147c0.868,-0.01 1.544,0.247 2.024,0.793c0.479,0.545 0.73,1.31 0.735,2.302c0.009,0.915 -0.248,1.665 -0.76,2.255c-0.51,0.59 -1.303,0.891 -2.363,0.897c-0.86,0.007 -1.595,-0.21 -2.21,-0.664c-0.616,-0.452 -0.916,-1.07 -0.9,-1.871l0.013,-0.031l1.804,-0.095c0.002,0.391 0.12,0.694 0.356,0.911c0.239,0.213 0.545,0.32 0.922,0.315c0.446,-0.002 0.769,-0.15 0.972,-0.443c0.2,-0.29 0.294,-0.707 0.292,-1.245c-0.006,-0.537 -0.118,-0.968 -0.344,-1.285c-0.222,-0.314 -0.551,-0.474 -0.988,-0.47c-0.358,0.002 -0.634,0.077 -0.825,0.205c-0.18509,0.13622 -0.32315,0.32671 -0.395,0.545zM229.357,211.135c-0.338,0.004 -0.624,0.056 -0.856,0.165c-0.24,0.116 -0.422,0.265 -0.557,0.458l0.004,0.503c0.008,0.713 0.145,1.268 0.412,1.664c0.266,0.393 0.611,0.582 1.04,0.578c0.392,-0.002 0.7,-0.166 0.926,-0.495c0.23,-0.332 0.344,-0.742 0.342,-1.235c-0.008,-0.514 -0.126,-0.915 -0.358,-1.208c-0.237,-0.292 -0.558,-0.432 -0.953,-0.43M229.715,206.341c0.33982,-0.00764 0.67946,0.02153 1.013,0.087c0.31,0.067 0.615,0.16 0.916,0.288l-0.317,1.372c-0.25691,-0.08881 -0.51908,-0.16162 -0.785,-0.218c-0.26514,-0.0487 -0.53447,-0.07081 -0.804,-0.066c-0.51622,-0.00888 -1.00575,0.22883 -1.318,0.64c-0.329,0.42 -0.493,1.007 -0.486,1.752l0.002,0.299c0.25228,-0.24642 0.55155,-0.43958 0.88,-0.568c0.36711,-0.14606 0.75891,-0.22007 1.154,-0.218c0.797,-0.006 1.423,0.276 1.877,0.837c0.453,0.562 0.685,1.3 0.694,2.21c0.008,0.939 -0.286,1.697 -0.86,2.287c-0.576,0.59 -1.332,0.889 -2.266,0.895c-0.974,0.01 -1.771,-0.319 -2.389,-0.975c-0.623,-0.663 -0.932,-1.573 -0.94,-2.735l-0.017,-1.949c-0.008,-1.185 0.334,-2.14 1.017,-2.856c0.686,-0.717 1.564,-1.075 2.63,-1.082M267.567,208.677c-0.002,-0.369 -0.102,-0.655 -0.294,-0.872c-0.1898,-0.21431 -0.46597,-0.33183 -0.752,-0.32c-0.346,0.005 -0.632,0.115 -0.837,0.324c-0.207,0.215 -0.31,0.505 -0.307,0.884c0.005,0.375 0.11,0.688 0.33,0.916c0.217,0.232 0.495,0.348 0.85,0.346c0.2864,0.00665 0.55889,-0.12328 0.734,-0.35c0.187,-0.236 0.278,-0.54 0.276,-0.928M267.911,212.803c-0.006,-0.412 -0.137,-0.75 -0.396,-1.017c-0.2514,-0.25789 -0.59897,-0.39923 -0.959,-0.39c-0.42,0.005 -0.766,0.141 -1.044,0.407c-0.275,0.271 -0.41,0.61 -0.406,1.023c0.002,0.425 0.143,0.766 0.419,1.015c0.28,0.249 0.633,0.37 1.064,0.367c0.383,-0.002 0.7,-0.13 0.951,-0.384c0.249,-0.252 0.37,-0.596 0.37,-1.02M269.43,208.577c0.007,0.46 -0.109,0.873 -0.347,1.227c-0.24453,0.36584 -0.58304,0.6591 -0.98,0.849c0.512,0.203 0.92,0.501 1.216,0.889c0.303,0.387 0.458,0.834 0.464,1.34c0.005,0.866 -0.292,1.537 -0.888,2.024c-0.595,0.484 -1.357,0.73 -2.295,0.737c-0.98,0.01 -1.786,-0.224 -2.418,-0.7c-0.63,-0.477 -0.948,-1.144 -0.957,-2.01c-0.00821,-0.4879 0.15293,-0.96356 0.456,-1.346c0.304,-0.391 0.725,-0.698 1.253,-0.907c-0.41748,-0.17818 -0.77843,-0.46688 -1.044,-0.835c-0.25358,-0.35577 -0.38705,-0.78315 -0.381,-1.22c-0.008,-0.822 0.267,-1.454 0.82,-1.9c0.555,-0.447 1.287,-0.67 2.182,-0.679c0.855,-0.006 1.555,0.207 2.104,0.646c0.539,0.438 0.81,1.065 0.814,1.885M251.131,207.74c-1.044,1.247 -1.752,2.366 -2.127,3.354c-0.367,0.994 -0.551,2.127 -0.543,3.403l0.012,1.158l-1.874,0.015l-0.007,-1.156c-0.012,-1.293 0.218,-2.482 0.69,-3.561c0.466,-1.073 1.148,-2.138 2.047,-3.196l-4.762,0.037l-0.01,-1.442l6.566,-0.051l0.008,1.44z" fill="#343434"/><path d="M271.98633,203.379c-1.062,0.116 -2.084,-0.586 -2.734,-1.736c-0.601,0.503 -1.199,0.706 -1.628,0.482c-0.8,-0.418 -0.719,-2.166 0.18,-3.896c0.35,-0.665 0.765,-1.228 1.189,-1.648c0.031,-0.073 0.071,-0.144 0.106,-0.21c0,0 -1.657,-10.094 -3.37,-12.468c-0.579,-0.815 -1.034,-1.373 -1.299,-1.825v0.01c2.225,9.924 2.573,23.174 2.573,23.174l-31.576,0.25c0,0 0.187,-15.25 2.71,-25.313c-1.398,0.562 -8.435,3.302 -10.595,2.536c-2.975,-1.051 -6.457,-10.688 -6.457,-10.688c-1.276,-0.44 -2.524,-1.656 -3.254,-3.33c-1.133,-2.618 -0.57,-5.377 1.249,-6.17c1.189,-0.512 2.625,-0.056 3.787,1.05c0.52,-0.798 1.135,-1.243 1.713,-1.135c1.082,0.201 1.603,2.256 1.162,4.586c-0.164,0.888 -0.448,1.69 -0.785,2.328c-0.04435,0.28074 -0.11294,0.5571 -0.205,0.826l5.512,6.37l11.726,-4.31c2.127,-1.241 7.136,-1.523 7.136,-1.523l1.744,0.089l0.143,-0.002l1.753,-0.083c0,0 5.029,0.137 7.167,1.334h0.012c0,0 6.631,3.406 8.425,5.659c3.542,4.468 5.06,17.643 5.162,18.546v-0.008c0.468,0.673 0.812,1.551 0.922,2.535c0.267,2.337 -0.841,4.379 -2.468,4.57z" data-paper-data="{&quot;origPos&quot;:null}" fill="#e9c7a1"/><path d="M267.302,205.263l-31.575,0.25c0.011,-0.713 0.214,-13.369 2.192,-23.038c2.674,-2.211 3.525,-7.609 4.371,-10.204c1.083,-0.638 2.948,-1.019 4.488,-1.248c0,0 -0.178,6.29 4.589,6.25c5.033,-0.039 4.983,-6.237 4.983,-6.237c1.399,0.193 2.921,0.514 3.87,1.04c0.845,4.115 1.303,7.699 4.82,11.565c0.052,0.197 0.095,0.414 0.135,0.615c1.773,9.311 2.107,20.36 2.127,21.006z" fill="#e63744"/><path d="M256.329,177.078l0.014,1.819c0.02922,0.95186 0.81341,1.70606 1.76568,1.69818c0.95227,-0.00788 1.72386,-0.77497 1.73732,-1.72718l-0.013,-1.817zM237.96,182.447c0.82,-0.705 1.51,-1.764 2.049,-2.93l0.207,25.959l-2.074,0.019l-0.182,-23.049c0,0 0,0.03 0,0M262.84,180.634c0.59637,1.03349 1.301,2.0006 2.102,2.885l0.172,21.758l-2.078,0.019l-0.196,-24.662" fill="#0771b7"/><path d="M261.302,199.477l-19.637,0.155l-0.102,-12.192l19.642,-0.156z" fill="#eeeeed"/><path d="M261.225,189.753l-19.639,0.155l-0.023,-2.467l19.642,-0.155zM261.302,199.477l-19.637,0.155l-0.017,-1.555l19.642,-0.156z" fill="#99588c"/><path d="M252.573,227.134l-0.29,-7.724l-0.025,-2.98l10.5,-0.08l-0.586,2.982l-0.276,7.73l0.007,4.14l-8.363,0.066zM241.493,227.223l-0.406,-7.725l-0.626,-2.97l10.498,-0.086l0.027,2.98l-0.163,7.728l-0.259,4.143l-9.019,0.07z" data-paper-data="{&quot;origPos&quot;:null}" fill="#e9c7a1"/><path d="M248.343,205.371l3.176,-0.026l2.919,-0.021l9.402,-0.077l-0.997,11.294l-10.69,0.085l-0.435,-4.147l-0.288,0.002l-0.369,4.153l-10.676,0.085l-1.18,-11.275z" fill="#343434"/><path d="M252.573,227.133l9.324,-0.072l0.265,3.95h-0.015c0.317,0.195 0.624,0.443 0.897,0.698l0.019,2.538l-7.586,0.058c-0.14484,-0.08298 -0.28692,-0.17069 -0.426,-0.263c-0.86,-0.593 -1.873,-1.25 -2.457,-2.132c-0.176,-0.275 -0.263,-0.563 -0.2,-0.82h0.016z" fill="#eeeeed"/><path d="M252.555,227.579l9.37,-0.075l0.016,0.201l-9.398,0.075z" fill="#6cc5d8"/><path d="M239.714,232.705c0.41916,-0.60907 0.95647,-1.12767 1.58,-1.525h-0.002l0.2,-3.956l9.329,-0.075l0.23,3.952h0.008c0.068,0.26 -0.019,0.545 -0.195,0.823c-0.57,0.895 -1.57,1.56 -2.425,2.164c-0.13,0.098 -0.276,0.189 -0.419,0.278l-8.294,0.066z" fill="#eeeeed"/><path d="M250.858,227.793l-9.4,0.073l0.01,-0.201l9.38,-0.073z" fill="#6cc5d8"/><path d="M262.138,231.011l-4.626,-0.306c0,0 1.222,-1.711 2.863,-1.643c1.576,0.066 1.787,1.937 1.787,1.937z" fill="#6e6e6d"/><path d="M261.543,230.84l-3.178,-0.216c0,0 0.845,-1.17 1.968,-1.125c1.088,0.044 1.228,1.33 1.228,1.33l-0.018,0.01z" fill="#343434"/><path d="M262.138,231.011l0.024,-0.01v0.01h-0.014c1.84,1.154 3.19,3.429 1.638,5.324c-1.174,1.33 -2.924,0.307 -4.256,-0.247c-1.467,-0.683 -3.145,-1.153 -4.479,-2.046c-0.86,-0.593 -1.872,-1.25 -2.457,-2.132c-0.176,-0.275 -0.263,-0.563 -0.2,-0.82l-0.015,-1.752c0,0 0.112,-0.178 0.522,-0.007c0.808,0.353 1.35,1.943 3.068,1.728c4.259,-1.216 6.169,-0.048 6.169,-0.048" fill="#b52c39"/><path d="M252.723,232.09l0.213,-0.197c0,0 2.21,2.208 4.1,2.742l-0.162,0.355c-0.63619,-0.25864 -1.24656,-0.57671 -1.823,-0.95c-0.8,-0.548 -1.727,-1.15 -2.328,-1.95M262.138,231.011l0.024,-0.012v0.002h-0.014c0.056,0.07 0.11,0.07 0.153,0.108c0.288,0.621 0.257,1.282 -1.164,1.282c-1.108,-0.002 -2.682,-1.005 -3.625,-1.686c3.176,-0.58 4.626,0.306 4.626,0.306" fill="#343434"/><path d="M262.21,232.223c0.481,-0.004 0.95,0.033 1.399,0.1c0.006,0 0.012,0.006 0.014,0.012c0.918,1.179 1.24,2.68 0.164,4c-1.175,1.33 -2.925,0.307 -4.257,-0.247c-1.02,-0.466 -2.131,-0.843 -3.167,-1.325c1.16,-1.498 3.341,-2.52 5.847,-2.54" fill="#343434"/><path d="M252.426,229.535c0.414,-0.002 0.756,0.758 0.762,1.696c0.006,0.456 -0.07,0.87 -0.201,1.179c-0.14337,-0.15718 -0.27505,-0.32462 -0.394,-0.501c-0.176,-0.274 -0.263,-0.562 -0.2,-0.819l-0.013,-1.55c0.019,-0.005 0.03,-0.005 0.046,-0.005" fill="#eeeeed"/><path d="M263.227,231.92c-0.022,-0.002 -2.075,-0.491 -4.71,0.025c-0.018,0 -0.037,-0.007 -0.041,-0.025c-0.00332,-0.01858 0.00789,-0.03668 0.026,-0.042c2.65,-0.518 4.722,-0.027 4.74,-0.025c0.01711,0.00885 0.02761,0.02675 0.027,0.046c-0.00628,0.01256 -0.01897,0.02063 -0.033,0.021zM262.675,231.426c-0.018,-0.012 -1.926,-0.619 -4.576,0.006c-0.012,0.003 -0.029,-0.008 -0.033,-0.027c0,-0.018 0.004,-0.031 0.023,-0.037c2.662,-0.632 4.59,-0.012 4.609,-0.006c0.017,0 0.027,0.023 0.019,0.041c-0.002,0.011 -0.017,0.023 -0.029,0.023z" fill="#b52c39"/><path d="M241.312,231.179l-0.025,-0.014c0,0 0.179,-1.875 1.759,-1.966c1.633,-0.091 2.883,1.595 2.883,1.595l-4.617,0.386z" fill="#6e6e6d"/><path d="M241.901,230.997l-0.019,-0.01c0,0 0.126,-1.291 1.21,-1.353c1.118,-0.062 1.982,1.096 1.982,1.096l-3.174,0.267z" fill="#343434"/><path d="M241.312,231.179c0,0 1.892,-1.201 6.162,-0.047c1.722,0.182 2.244,-1.413 3.05,-1.78c0.402,-0.182 0.522,-0.004 0.522,-0.004l0.012,1.753c0.068,0.259 -0.019,0.547 -0.195,0.822c-0.567,0.895 -1.568,1.564 -2.421,2.168c-1.313,0.918 -2.981,1.416 -4.439,2.12c-1.325,0.574 -3.064,1.626 -4.255,0.317c-1.587,-1.871 -0.273,-4.172 1.545,-5.349h-0.002l-0.004,-0.012l0.025,0.013" fill="#b52c39"/><path d="M250.739,232.106c-0.582,0.808 -1.505,1.425 -2.295,1.986c-0.549,0.383 -1.167,0.698 -1.805,0.982l-0.174,-0.356c1.889,-0.562 4.062,-2.805 4.062,-2.805l0.212,0.193M241.312,231.179c0,0 1.437,-0.911 4.617,-0.385c-0.93,0.698 -2.486,1.726 -3.596,1.746c-1.419,0.021 -1.464,-0.638 -1.183,-1.265c0.046,-0.038 0.1,-0.038 0.143,-0.108h-0.002l-0.004,-0.002l0.025,0.015" fill="#343434"/><path d="M241.253,232.391c2.509,-0.021 4.704,0.965 5.894,2.444c-1.024,0.502 -2.14,0.896 -3.145,1.376c-1.325,0.573 -3.061,1.626 -4.255,0.317c-1.102,-1.307 -0.802,-2.811 0.098,-4.004c0,-0.005 0.014,-0.013 0.014,-0.013c0.46071,-0.07725 0.92687,-0.11738 1.394,-0.12" fill="#343434"/><path d="M250.993,229.547c0.019,0 0.036,0 0.052,0.004l0.013,1.549c0.068,0.259 -0.019,0.547 -0.193,0.823c-0.112,0.178 -0.24,0.346 -0.385,0.507c-0.127,-0.306 -0.212,-0.716 -0.217,-1.174c-0.007,-0.939 0.318,-1.705 0.73,-1.709" fill="#eeeeed"/><path d="M240.224,232.104c0,0 -0.025,-0.015 -0.03,-0.02c-0.006,-0.02 0.011,-0.034 0.023,-0.046c0.023,-0.002 2.086,-0.527 4.744,-0.05c0.01,0.004 0.027,0.023 0.025,0.041c0,0.017 -0.02,0.025 -0.02,0.025c-2.66,-0.476 -4.71,0.046 -4.73,0.05zM240.774,231.602c-0.017,0 -0.035,-0.012 -0.035,-0.023c-0.007,-0.018 0,-0.041 0.018,-0.041c0.019,-0.008 1.935,-0.659 4.61,-0.068c0.01468,0.00478 0.02333,0.01993 0.02,0.035c-0.006,0.018 -0.019,0.03 -0.042,0.029c-2.653,-0.58 -4.55,0.056 -4.57,0.068z" fill="#b52c39"/><path d="M249.664,172.55c-1.06,0.011 -1.938,-2.249 -1.945,-3.293l7.524,-0.058c0.008,1.042 -0.831,3.314 -1.885,3.322l-3.694,0.029" data-paper-data="{&quot;origPos&quot;:null}" fill="#e9c7a1"/><path d="M248.548,171.716c-0.429,-0.635 -0.733,-1.538 -0.807,-2.18c1.21436,0.1858 2.44153,0.27508 3.67,0.267c1.28024,-0.01074 2.55721,-0.13084 3.817,-0.359l-0.012,0.013l-6.668,2.26" fill="#eeac6c"/><path d="M228.598,150.764c-0.18076,-1.12348 -0.2757,-2.2591 -0.284,-3.397c-0.099,-12.497 9.95,-22.703 22.446,-22.798c12.491,-0.1 22.695,9.94 22.794,22.44c0.0094,1.08451 -0.05911,2.1683 -0.205,3.243c1.312,0.7 2.2,2.047 2.217,3.594c0.018,2.297 -1.902,4.168 -4.288,4.189c-0.16031,0.00139 -0.32056,-0.00629 -0.48,-0.023c-3.81,6.968 -11.178,11.724 -19.68,11.792c-8.496,0.069 -15.937,-4.56 -19.86,-11.455c-0.064,0.003 -0.133,0.003 -0.201,0.003c-2.39,0.02 -4.333,-1.821 -4.35,-4.114c-0.017,-1.446 0.737,-2.72 1.891,-3.474" data-paper-data="{&quot;origPos&quot;:null}" fill="#e9c7a1"/><path d="M246.311,145.65c0,0 -0.503,1.803 -2.082,1.446c-0.772,-0.174 -0.908,-1.201 -3.386,-0.74c-0.779,0.18 -2.417,1.156 -2.732,1.808c-0.316,0.652 -0.088,-2.392 2.457,-3.522c1.835,-0.675 2.457,-0.642 3.977,-0.642c1.52,0 1.987,0.907 1.766,1.65M256.052,145.65c0,0 0.503,1.803 2.082,1.446c0.772,-0.174 0.908,-1.201 3.386,-0.74c0.779,0.18 2.417,1.156 2.732,1.808c0.316,0.652 0.087,-2.392 -2.457,-3.522c-1.835,-0.675 -2.457,-0.642 -3.977,-0.642c-1.52,0 -1.987,0.907 -1.766,1.65" data-paper-data="{&quot;origPos&quot;:null}" fill="#eeac6c"/><path d="M243.70033,153c0,1.657 -0.895,3 -2,3c-1.105,0 -2,-1.343 -2,-3c0,-1.657 0.895,-3 2,-3c1.105,0 2,1.343 2,3M261.70033,153c0,1.657 -0.895,3 -2,3c-1.105,0 -2,-1.343 -2,-3c0,-1.657 0.895,-3 2,-3c1.105,0 2,1.343 2,3" data-paper-data="{&quot;origPos&quot;:null}" fill="#80591f"/><path d="M251.02,156.069c-1.125,0.153 -3.02,1.834 -3.02,1.834c0,0 0.207,-1.009 0.503,-1.299c0.8,-1.156 2.487,-1.604 2.487,-1.604c0,0 2.173,0.703 2.65,1.588c0.443,0.824 0.34,1.238 0.34,1.238c0,0 -2.121,-1.871 -2.96,-1.756z" fill="#eeac6c"/><path d="M244.2,159.696c0,0 6.897,3.208 13.172,-0.397c0,0 -1.39,5.47 -5.95,5.561c-4.115,0.122 -4.984,-1.492 -5.477,-1.956c-0.492,-0.463 -1.42,-1.772 -1.745,-3.208" fill="#eeac6c"/><path d="M274.505,144.05c0.06,2.653 -0.824,8.408 -2.608,11.851c0,0 -4.548,-12.557 -8.231,-14.517c-4.497,-2.402 -16.278,1.199 -20.3,-1.922c-0.669,-0.524 -0.605,-1.709 -0.605,-1.709c0,0 -0.753,1.518 -1.123,1.941c-1.92,2.227 -6.927,5.458 -9.299,7.198c-1.909,1.394 -1.996,1.38 -1.508,9.334c0,0 -3.587,-7.215 -3.426,-12.048c0.044,-1.395 0.692,-4.49 1.765,-7.645c3.923,-8.017 12.124,-13.574 21.659,-13.649c10.947,-0.087 20.259,7.084 23.374,17.009c0.16644,1.3801 0.26722,2.76733 0.302,4.157" data-paper-data="{&quot;origPos&quot;:null}" fill="#e6cd4e"/></g></g></svg>