<svg xmlns="http://www.w3.org/2000/svg" width="53.844" height="116.838"><g fill-rule="evenodd" stroke-miterlimit="10" data-paper-data="{&quot;isPaintingLayer&quot;:true}" style="mix-blend-mode:normal"><path fill="#463113" d="M43.772 12.063c0 6.663-5.4 12.065-12.055 12.065-6.659 0-12.052-5.402-12.052-12.065C19.665 5.403 25.058 0 31.717 0c6.656 0 12.055 5.402 12.055 12.063" data-paper-data="{&quot;origPos&quot;:null}"/><path fill="#30a7df" d="M44.52 19.47c-2.666-4.535-7.798-7.09-12.926-7.063-5.132-.027-10.264 2.528-12.928 7.063a77.223 77.223 0 0 0-2.02-1.161c2.983-5.233 8.967-8.245 14.948-8.21 5.98-.035 11.962 2.977 14.943 8.21-.682.378-1.356.767-2.016 1.16"/><path fill="#b3dff5" d="m31.01 112.04-.487 3.03h-.578l-.129-.819c-1.125.694-2.482 1.102-3.68 1.674-1.178.496-2.729 1.429-3.78.25-1.392-1.668 1.128-3.879 2.752-4.886l5.548.163c.05.197.33.384.344.584z"/><path fill="#f2f1f1" d="M25.132 111.379c-1.293.803-2.863 2.18-3.068 3.449-.08.476.041.91.36 1.292.322.362.715.537 1.2.537.655 0 1.38-.324 2.013-.612.164-.074.315-.14.462-.2.45-.217.934-.411 1.4-.604.776-.311 1.574-.634 2.272-1.065l.114-.066.136.873h.428l.462-2.915v-.028c-.004-.077-.08-.17-.155-.264a1.076 1.076 0 0 1-.165-.238zm-1.51 5.455c-.536 0-.972-.195-1.332-.598a1.736 1.736 0 0 1-.403-1.438c.28-1.72 2.693-3.287 3.173-3.584l.023-.012 5.645.163.014.067c.016.07.084.152.151.234.08.097.161.197.187.31l.026.011-.508 3.173h-.729l-.118-.765c-.682.403-1.444.712-2.185 1.013a23.07 23.07 0 0 0-1.396.598c-.15.061-.299.13-.458.203-.654.293-1.395.625-2.09.625z"/><path fill="#795a4c" d="M22.96 114.094s.412-1.787 2.272-2.682h5.521s-3.898 3.897-7.793 2.682" data-paper-data="{&quot;origPos&quot;:null}"/><path fill="#b3dff5" d="M38.198 111.288c1.626 1.008 4.141 3.22 2.748 4.89-1.05 1.18-2.599.247-3.776-.25-1.199-.573-2.555-.984-3.683-1.677l-.126.819h-.58l-.485-3.03.008-.004c.015-.2.298-.387.347-.584l5.547-.163"/><path fill="#f2f1f1" d="m33.42 114.109.116.067c.696.43 1.502.757 2.277 1.072.465.19.945.384 1.397.602.144.059.293.128.454.197.637.289 1.36.615 2.017.615a1.54 1.54 0 0 0 1.203-.542c.31-.355.44-.83.357-1.293-.206-1.267-1.777-2.644-3.068-3.448l-5.46.159a.901.901 0 0 1-.163.238c-.075.094-.152.187-.157.264l-.002.027.465 2.915h.43l.135-.873zm6.26 2.729c-.693 0-1.436-.333-2.089-.628-.159-.07-.306-.14-.454-.197-.45-.216-.93-.41-1.39-.6-.742-.3-1.505-.613-2.19-1.017l-.12.764h-.73l-.509-3.174.027-.011c.026-.113.107-.21.187-.307.067-.083.136-.166.15-.234l.017-.07 5.641-.163.022.012c1.33.823 2.958 2.255 3.174 3.587a1.72 1.72 0 0 1-.399 1.436c-.36.405-.8.602-1.336.602z"/><path fill="#795a4c" d="M40.606 114.094c-3.898 1.215-7.791-2.682-7.791-2.682h5.517c1.86.976 2.274 2.682 2.274 2.682" data-paper-data="{&quot;origPos&quot;:null}"/><path fill="#795a4c" d="m42.87 87.832-4.695 23.66h-5.56l-.833-17.152h-.258l-.83 17.152H25.13l-4.696-23.66h14.11zM1.78 48.651C.117 49.353-.41 51.868.6 54.258c.65 1.532 1.774 2.642 2.938 3.057 0 0 3.097 8.809 5.8 9.787 2.182.792 9.8-2.263 9.8-2.263s1.244-.277 1.741-2.661c.441-1.037 1.522-4.45 1.522-4.45l-10.54 3.777-4.97-5.843c.085-.244.147-.495.186-.75.352-.665.6-1.38.736-2.12.414-2.12-.046-3.992-1.024-4.182-.525-.105-1.093.299-1.567 1.015-1.054-1.014-2.354-1.434-3.444-.974m46.52 14.132c-1.104-1.415-4.19-3.293-6.02-4.338-.837-.476-1.553-.846-1.553-.846l-3.59 9.057s6.387-.248 7.244-.645c.177.484.714 1.279 1.486 2.371 1.535 2.173 2.972 11.38 2.972 11.38-.032.061-.065.123-.096.193-.392.38-.773.89-1.089 1.49-.835 1.575-.922 3.166-.195 3.55.39.206.934.025 1.48-.428.59 1.053 1.515 1.702 2.485 1.6 1.482-.157 2.502-2.013 2.274-4.143-.097-.895-.393-1.698-.82-2.315l.004.057s-1.266-12.746-4.582-16.983" data-paper-data="{&quot;origPos&quot;:null}"/><path fill="#c0e4f4" d="M1.778 48.532c1.09-.46 2.33-.096 3.383.919.48-.72 1.223-1.063 1.745-.96.977.19 1.44 2.181 1.025 4.302a7.345 7.345 0 0 1-.736 2.119c-.04.255-.103.507-.188.751l4.91 5.664 1.906-.705s2.027 5.711-.847 6.392c-1.502.356-2.95.48-3.7.206-2.7-.981-5.856-9.904-5.856-9.904-1.164-.416-2.288-1.527-2.937-3.06-1.012-2.39-.365-5.022 1.295-5.724m48.6 18.124c1.91 5.421 2.62 13.11 2.62 13.11s0-.02-.005-.058c.427.618.725 1.42.822 2.316.226 2.132-.912 4.103-2.394 4.263-.97.098-1.895-.545-2.483-1.6-.548.453-1.15.634-1.539.427-.729-.384-.7-2.152.132-3.728.318-.6.7-1.052 1.09-1.432.031-.065.065-.13.1-.193 0 0-1.438-9.086-2.977-11.262 1.89-.502 3.283-1.09 4.633-1.843"/><path fill="#795a4c" d="M35.476 74.368h-7.194l-8.007-15.899 2.066-.735c1.84-1.26 7.651-1.47 7.651-1.47l1.588.037h.136l1.574-.037s5.74.198 7.607 1.44l-.004-.012z" data-paper-data="{&quot;origPos&quot;:null}"/><path fill="#c0e4f4" d="M14.683 92.157c.332.426 2.223-.04 2.223-.04l4.291-4.07-3.924-4.027s-6.008 3.766-2.59 8.136m33.934.001c-.334.426-2.223-.04-2.223-.04l-4.293-4.07 3.923-4.027s6.013 3.766 2.593 8.136"/><path fill="#7dcdf4" d="M45.972 84.053c.66 1.968 6.404 18.109 6.292 25.663-4.09 4.28-36.12 4.186-40.816.004-.973-5.908 5.245-23.937 5.825-25.716.058-3.067.228-7.613.728-12.112.035-.335.772-6.163 1.138-7.055-.624-1.48 1.076-4.414 1.136-6.37.396-.237.866-.463 1.366-.67 1.008 6.205 2.364 8.886 9.981 8.886 7.445 0 8.825-2.733 10.397-8.574.458.247.865.514 1.158.79.193 2.161 1.572 5.555 1.201 7.111.387.87.845 5.548.884 5.882.496 4.527.66 9.096.71 12.162"/><path fill="#30a7df" d="M18.491 112.39S17.274 102 21.538 93.386c-3.703 8.957-2.188 18.52-2.188 18.52s3.278.844 10.645.964c-8.043.802-11.504-.48-11.504-.48m26.122 0S45.83 102 41.566 93.386c3.703 8.957 2.188 18.52 2.188 18.52s-3 .895-10.645.981c8.094.705 11.504-.497 11.504-.497"/><path fill="#c0e4f4" d="M31.804 84.022c-6.108 13.832-14.562 6.51-16.852 7.238 1.065-3.427 1.03-5.081 2.321-7.24 2.402-1.624 11.666-2.15 14.531.002"/><path fill="#c0e4f4" d="M31.492 84.022c2.87-2.152 12.131-1.626 14.533-.002 1.291 2.159 1.258 3.813 2.325 7.24-2.292-.728-10.75 6.594-16.858-7.238m10.24-25.881c.18.103.362.204.544.303 1.588 4.424 2.506 9.474 2.506 9.474 2.287.189 5.39-14.787 2.227-15.477-2.48-.544-5.277 5.7-5.277 5.7m-19.673-.309s-.605.209-.848.313c-1.587 4.423-2.67 9.773-2.67 9.773-2.282.191-5.387-14.788-2.225-15.478 2.48-.543 5.744 5.392 5.744 5.392"/><path fill="#795a4c" d="M30.01 57.661c-.963 0-1.746-2.069-1.746-3.018h6.86c0 .948-.782 3.018-1.745 3.018H30.01" data-paper-data="{&quot;origPos&quot;:null}"/><path fill="#eeac6c" d="M29.002 56.877c-.387-.59-.659-1.408-.719-2 2.261.368 4.568.36 6.826-.024l-.012.014-6.095 2.01" data-paper-data="{&quot;origPos&quot;:null}"/><path fill="#30a7df" d="M34.116 57.261a16.25 16.25 0 0 1-4.844 0c-.345-.375-.63-.967-.805-1.532 2.124.476 4.33.476 6.454 0v.004c-.177.561-.46 1.153-.805 1.528" data-paper-data="{&quot;origPos&quot;:null}"/><path fill="#3699c0" d="M28.47 55.733c.967.213 1.953.33 2.943.35l-2.41.794a4.68 4.68 0 0 1-.533-1.145"/><path fill="#795a4c" d="M52.01 37.872c1.052.68 1.75 1.842 1.75 3.156 0 2.09-1.763 3.787-3.939 3.787-.06 0-.12-.002-.18-.004-3.527 6.32-10.273 10.597-18.02 10.597-7.755 0-14.508-4.285-18.032-10.615a4.448 4.448 0 0 1-.439.022c-2.174 0-3.935-1.696-3.935-3.788 0-1.418.805-2.647 1.995-3.3a20.874 20.874 0 0 1-.208-2.96c0-11.395 9.228-20.637 20.618-20.637 11.39 0 20.623 9.242 20.623 20.638 0 1.056-.083 2.094-.234 3.104" data-paper-data="{&quot;origPos&quot;:null}"/><path fill="#463113" d="M27.421 31.684s-.503 1.803-2.082 1.446c-.772-.174-.908-1.201-3.386-.74-.779.18-2.417 1.156-2.732 1.808-.316.652-.088-2.392 2.457-3.522 1.835-.675 2.457-.642 3.977-.642s1.987.907 1.766 1.65m9.741 0s.503 1.803 2.082 1.446c.772-.174.908-1.201 3.386-.74.78.18 2.417 1.156 2.732 1.808.316.652.087-2.392-2.457-3.522-1.835-.675-2.457-.642-3.977-.642s-1.987.907-1.766 1.65M25.11 39.034c0 1.657-.895 3-2 3s-2-1.343-2-3 .895-3 2-3 2 1.343 2 3m18 0c0 1.657-.895 3-2 3s-2-1.343-2-3 .895-3 2-3 2 1.343 2 3" data-paper-data="{&quot;origPos&quot;:null}"/><path fill="#eeac6c" d="M32.13 42.103c-1.125.153-3.02 1.834-3.02 1.834s.207-1.009.503-1.299c.8-1.156 2.487-1.604 2.487-1.604s2.173.703 2.65 1.588c.443.824.34 1.238.34 1.238s-2.12-1.871-2.96-1.756zM25.31 45.73s6.897 3.208 13.172-.397c0 0-1.39 5.47-5.95 5.561-4.115.122-4.984-1.492-5.477-1.956-.492-.463-1.42-1.772-1.745-3.208"/><path fill="#eeeeed" d="M13.431 45.201c0 1-.467 1.812-1.043 1.812-.574 0-1.042-.813-1.042-1.812 0-1 .468-1.81 1.042-1.81.576 0 1.043.81 1.043 1.81m38.48 0c0 1-.464 1.812-1.04 1.812-.578 0-1.046-.813-1.046-1.812 0-1 .468-1.81 1.046-1.81.576 0 1.04.81 1.04 1.81"/><path fill="#463113" d="M53.057 31.818c.033 2.424-1.048 5.794-1.048 5.794s-5.472-6.486-8.815-8.306c-4.083-2.221-6.119 1.053-9.765-1.831-.607-.478-1.734-1.745-1.734-1.745s-1.372 1.389-1.737 1.745c-4.104 4.021-7.178-.675-10.632 1.758-4.396 3.089-8.11 8.233-8.11 8.233s-1.279-1.464-1.104-5.874c.051-1.273.668-4.092 1.671-6.958 3.628-7.288 11.15-12.295 19.838-12.295 9.983 0 18.421 6.608 21.188 15.689.143 1.259.226 2.523.248 3.79" data-paper-data="{&quot;origPos&quot;:null}"/></g></svg>