<svg xmlns="http://www.w3.org/2000/svg" width="120" height="120"><g fill="none" transform="translate(8 27)"><path fill="#7A172B" d="M.092 46.3v3.834c0 1.294 1.017 2.403 2.31 2.496l97.734 7.624c1.478.092 2.725-1.017 2.725-2.495v-3.836c0-1.293-1.016-2.402-2.309-2.495L2.817 43.804C1.34 43.712.092 44.867.092 46.3zm0-25.46v-3.836c0-1.294 1.017-2.403 2.31-2.495l97.734-7.624c1.478-.093 2.725 1.016 2.725 2.495v3.835c0 1.294-1.016 2.403-2.309 2.495L2.817 23.334C1.34 23.427.092 22.272.092 20.84z"/><path fill="#9E2D3D" d="M18.383 14.555v37.936c0 3.743-3.048 6.792-6.79 6.792-3.741 0-6.79-3.05-6.79-6.792V14.555c0-3.743 3.049-6.792 6.79-6.792 3.742 0 6.79 3.05 6.79 6.792z"/><path fill="#EFA733" d="M31.916 13.308v40.384c0 3.743-3.048 6.793-6.79 6.793-3.74 0-6.79-3.05-6.79-6.793V13.308c0-3.743 3.05-6.793 6.79-6.793 3.742.046 6.79 3.05 6.79 6.793z"/><path fill="#9E2D3D" d="M45.45 12.106V54.94c0 3.743-3.05 6.792-6.79 6.792-3.742 0-6.79-3.05-6.79-6.792V12.106c0-3.743 3.048-6.792 6.79-6.792 3.74 0 6.79 3.05 6.79 6.792z"/><path fill="#EFA733" d="M58.983 10.859V56.14c0 3.743-3.049 6.793-6.79 6.793s-6.79-3.05-6.79-6.793V10.86c0-3.743 3.049-6.793 6.79-6.793 3.741.046 6.79 3.05 6.79 6.793z"/><path fill="#9E2D3D" d="M72.562 9.657V57.39c0 3.743-3.049 6.792-6.79 6.792s-6.79-3.05-6.79-6.792V9.657c0-3.743 3.049-6.792 6.79-6.792s6.79 3.05 6.79 6.792z"/><path fill="#EFA733" d="M85.402 8.41v50.18c0 3.743-3.048 6.793-6.79 6.793-3.74 0-6.79-3.05-6.79-6.793V8.41c0-3.743 3.05-6.793 6.79-6.793 3.788.046 6.79 3.05 6.79 6.793z"/><path fill="#9E2D3D" d="M98.289 7.208v52.63c0 3.743-3.049 6.792-6.79 6.792s-6.79-3.05-6.79-6.792V7.208c0-3.742 3.049-6.792 6.79-6.792s6.79 3.05 6.79 6.792z"/><circle cx="11.593" cy="55.263" r="1.386" fill="#7A172B"/><circle cx="25.404" cy="56.881" r="1.386" fill="#7A172B"/><circle cx="39.168" cy="58.452" r="1.386" fill="#7A172B"/><circle cx="52.424" cy="58.914" r="1.386" fill="#7A172B"/><circle cx="65.818" cy="60.392" r="1.386" fill="#7A172B"/><circle cx="78.613" cy="61.224" r="1.386" fill="#7A172B"/><circle cx="91.314" cy="62.472" r="1.386" fill="#7A172B"/><circle cx="25.404" cy="12.199" r="1.386" fill="#7A172B"/><circle cx="39.168" cy="10.581" r="1.386" fill="#7A172B"/><circle cx="52.424" cy="10.166" r="1.386" fill="#7A172B"/><circle cx="65.818" cy="8.641" r="1.386" fill="#7A172B"/><circle cx="78.613" cy="7.855" r="1.386" fill="#7A172B"/><circle cx="91.314" cy="6.561" r="1.386" fill="#7A172B"/><circle cx="11.593" cy="11.829" r="1.386" fill="#7A172B"/></g></svg>