<svg xmlns="http://www.w3.org/2000/svg" xmlns:xlink="http://www.w3.org/1999/xlink" width="100" height="100"><defs><path id="a" d="M.971.042a.8.8 0 0 0-.8.799l-.03 14.592 12.119.826.002-.8.03-14.593a.8.8 0 0 0-.797-.802L.973.042H.971z"/><path id="c" d="M1.504.002C.764.002.164.61.163 1.36a1.352 1.352 0 0 0 1.339 1.364 1.352 1.352 0 0 0 1.345-1.358A1.352 1.352 0 0 0 1.507.002h-.003z"/><path id="e" d="M1.428.17C.688.17.088.777.086 1.528a1.352 1.352 0 0 0 1.339 1.365A1.352 1.352 0 0 0 2.77 1.534 1.352 1.352 0 0 0 1.43.17h-.002z"/><path id="g" d="M1.35.157C.61.157.01.765.01 1.517A1.352 1.352 0 0 0 1.348 2.88a1.352 1.352 0 0 0 1.345-1.36A1.351 1.351 0 0 0 1.353.157h-.002z"/><path id="i" d="M1.484.074C.744.074.144.682.142 1.432a1.352 1.352 0 0 0 1.34 1.365 1.352 1.352 0 0 0 1.344-1.359A1.352 1.352 0 0 0 1.487.074h-.003z"/><path id="k" d="M1.407.062C.667.062.067.67.065 1.421a1.352 1.352 0 0 0 1.34 1.364 1.352 1.352 0 0 0 1.344-1.359A1.352 1.352 0 0 0 1.41.062h-.003z"/><path id="m" d="M1.51.05C.77.05.17.657.169 1.409a1.352 1.352 0 0 0 1.34 1.364 1.352 1.352 0 0 0 1.344-1.359A1.352 1.352 0 0 0 1.511.05z"/><path id="o" d="M.04.805.028 7.212a.8.8 0 0 0 .798.802l30.595.066a.8.8 0 0 0 .801-.8l.014-6.407a.8.8 0 0 0-.798-.802L.842.005H.841a.801.801 0 0 0-.8.8z"/><path id="q" d="M.88.05a.8.8 0 0 0-.8.798L.073 4.212a.8.8 0 0 0 .799.803l28.35.06a.8.8 0 0 0 .802-.799l.008-3.364a.8.8 0 0 0-.8-.802L.882.05z"/><path id="s" d="M13.626.012C6.166.012.108 6.088.092 13.597c-.016 7.52 6.03 13.628 13.506 13.644 7.474.016 13.547-6.066 13.563-13.586C27.177 6.136 21.131.028 13.656.012h-.03z"/><path id="u" d="M.133 12.6C.12 19.545 5.7 25.186 12.6 25.2c6.9.015 12.505-5.602 12.52-12.547C25.135 5.71 19.554.068 12.654.053h-.027C5.739.053.148 5.665.133 12.6z"/><path id="w" d="M6.56.02A6.409 6.409 0 0 0 .15 6.415a6.41 6.41 0 0 0 6.398 6.42A6.408 6.408 0 0 0 6.575.02H6.56z"/><path id="y" d="M6.56.02A6.409 6.409 0 0 0 .15 6.415a6.41 6.41 0 0 0 6.398 6.42A6.408 6.408 0 0 0 6.575.02H6.56z"/><path id="A" d="M2.997.124a2.873 2.873 0 1 0 .006 0h-.006z"/><path id="C" d="M1.705.118A2.168 2.168 0 0 0 .18 2.778a2.168 2.168 0 0 0 2.644 1.551A2.168 2.168 0 0 0 4.35 1.67 2.176 2.176 0 0 0 2.255.047c-.181 0-.366.023-.55.072z"/><path id="E" d="M.473.082a.401.401 0 0 0-.284.49l.823 3.096a.4.4 0 1 0 .774-.205L.963.367a.399.399 0 0 0-.49-.285z"/><path id="G" d="M13.565.11C6.105.11.047 6.185.031 13.694c-.016 7.519 6.03 13.628 13.506 13.643 7.474.016 13.547-6.066 13.563-13.585C27.116 6.233 21.07.125 13.595.109h-.03z"/><path id="I" d="M12.565.15C5.678.152.087 5.764.073 12.699c-.015 6.944 5.566 12.585 12.466 12.6 6.9.015 12.505-5.603 12.52-12.547.015-6.944-5.567-12.586-12.466-12.6h-.028z"/><path id="K" d="M6.5.118A6.409 6.409 0 0 0 .09 6.51a6.409 6.409 0 0 0 6.397 6.42 6.409 6.409 0 0 0 6.423-6.39A6.41 6.41 0 0 0 6.514.118H6.5z"/><path id="M" d="M6.5.118A6.409 6.409 0 0 0 .09 6.51a6.409 6.409 0 0 0 6.397 6.42 6.409 6.409 0 0 0 6.423-6.39A6.41 6.41 0 0 0 6.514.118H6.5z"/><path id="O" d="M2.936.042a2.873 2.873 0 0 0-.006 5.745A2.873 2.873 0 1 0 2.942.042h-.006z"/><path id="Q" d="M2.194.143a2.14 2.14 0 0 0-.55.072A2.168 2.168 0 0 0 .12 2.875a2.167 2.167 0 0 0 2.644 1.552 2.168 2.168 0 0 0 1.525-2.66A2.176 2.176 0 0 0 2.195.143z"/><path id="S" d="M.413.18a.401.401 0 0 0-.285.49l.823 3.096a.401.401 0 0 0 .774-.206L.902.464A.4.4 0 0 0 .412.18z"/><path id="U" d="M22.88.06.757 4.28a.859.859 0 0 0-.682.943l.367 2.78a.86.86 0 0 0 .904.735L17.94 7.504c.442-.033.97.256 1.179.646l5.282 9.823 5.655-1.07L23.95.66a.992.992 0 0 0-.908-.615.856.856 0 0 0-.16.015z"/><path id="W" d="M.978.085a.8.8 0 0 0-.8.8L.143 17.062c0 .442.358.801.8.803l4.005.008a.802.802 0 0 0 .802-.8L5.784.897a.801.801 0 0 0-.798-.803L.98.085H.978z"/><path id="Y" d="m26.875.793-7.428 11.451c-.24.371-.776.565-1.2.431L2.325 7.652a.815.815 0 0 0-1.016.52L.105 11.805a.933.933 0 0 0 .471 1.105l20.563 9.813c.4.19.883.023 1.079-.373L33.196.187 28.11.13h-.01c-.44 0-.987.295-1.226.663z"/><path id="aa" d="M28.101.096c-.44 0-.985.294-1.224.663l-7.428 11.45c-.24.372-.777.565-1.2.432L2.327 7.618a.814.814 0 0 0-1.016.52L.107 11.77c-.14.42.072.915.471 1.106l20.563 9.812c.4.191.882.024 1.079-.372L33.197.153 28.112.096h-.01z"/><path id="ac" d="M15.546.03h.033l44.686.094c8.493.019 15.363 6.918 15.345 15.41-.019 8.492-6.918 15.362-15.41 15.344l-44.686-.096C7.02 30.764.15 23.865.169 15.372.187 6.893 7.068.03 15.546.03zm-.054 27.68 44.582.095h.027c6.872 0 12.45-5.562 12.465-12.438.014-6.884-5.556-12.476-12.439-12.491l-44.582-.095C8.661 2.766 3.07 8.333 3.054 15.219c-.015 6.884 5.555 12.476 12.438 12.491z"/><path id="ae" d="M1.511.027a1.362 1.362 0 1 0 .003 0h-.003z"/><path id="ag" d="M.884.092c-.441 0-.8.358-.801.8L.048 17.068c0 .443.359.802.8.803l11.21.024a.801.801 0 0 0 .804-.8L12.897.92a.802.802 0 0 0-.8-.803L.887.092H.883z"/><path id="ai" d="M.044.952.01 17.128a.802.802 0 0 0 .8.804l11.21.024a.802.802 0 0 0 .804-.8L12.858.979a.801.801 0 0 0-.8-.803L.848.152H.847a.802.802 0 0 0-.803.8z"/><path id="ak" d="M1.512.12a1.362 1.362 0 1 0 .003 0h-.003z"/><path id="am" d="M1.445.005a1.362 1.362 0 1 0 .004 0h-.004z"/><path id="ao" d="M1.813.058a1.762 1.762 0 1 0 .004 0h-.004z"/><path id="aq" d="M1.536.052a1.361 1.361 0 1 0 .004 0h-.004z"/><path id="as" d="M1.449.071a1.361 1.361 0 1 0 .003 0h-.003z"/><path id="au" d="m.033.712-.005 2.24c0 .354.285.642.64.643l1.44.003a.643.643 0 0 0 .643-.64l.005-2.24a.642.642 0 0 0-.64-.644L.675.071H.674a.643.643 0 0 0-.641.64z"/><path id="aw" d="M.15.65.144 2.89a.642.642 0 0 0 .64.644l1.44.002a.643.643 0 0 0 .642-.64l.005-2.24a.641.641 0 0 0-.64-.643L.792.009A.643.643 0 0 0 .148.65z"/><path id="ay" d="M.068.67.063 2.91a.641.641 0 0 0 .64.644l1.44.003a.642.642 0 0 0 .643-.64L2.79.676a.641.641 0 0 0-.64-.644L.71.03a.643.643 0 0 0-.642.64z"/><path id="aA" d="M.184.79.18 3.027a.641.641 0 0 0 .64.644l1.44.003a.642.642 0 0 0 .642-.64l.005-2.24a.642.642 0 0 0-.64-.644L.827.148A.643.643 0 0 0 .183.79z"/><path id="aC" d="M.103.65.098 2.89c0 .354.285.642.64.643l1.44.003a.643.643 0 0 0 .643-.641l.005-2.24a.642.642 0 0 0-.64-.643L.746.009H.745a.642.642 0 0 0-.642.64z"/><path id="aE" d="m.04.748-.005 2.24a.641.641 0 0 0 .64.643l1.44.003a.642.642 0 0 0 .643-.64l.005-2.24a.641.641 0 0 0-.64-.644L.682.107A.642.642 0 0 0 .04.748z"/><path id="aG" d="m.086.702-.004 2.24a.641.641 0 0 0 .64.643l1.44.003a.642.642 0 0 0 .642-.641L2.81.707a.641.641 0 0 0-.64-.643L.729.06A.643.643 0 0 0 .085.7z"/><path id="aI" d="M.023.82.018 3.06c0 .354.285.642.64.643l1.44.003a.642.642 0 0 0 .643-.641l.005-2.24a.641.641 0 0 0-.64-.643L.666.18H.665a.642.642 0 0 0-.642.64z"/><path id="aK" d="M.122.66.117 2.9a.64.64 0 0 0 .64.643l1.44.004a.643.643 0 0 0 .642-.641l.006-2.24a.642.642 0 0 0-.641-.643L.764.02a.643.643 0 0 0-.642.64z"/><path id="aM" d="M.058.78.053 3.017c0 .355.286.643.64.644l1.44.003a.642.642 0 0 0 .643-.64l.005-2.24a.642.642 0 0 0-.64-.644L.7.138A.643.643 0 0 0 .057.78z"/><path id="aO" d="M2.016.082.594.304a.643.643 0 0 0-.535.734L.405 3.25a.64.64 0 0 0 .733.535l1.421-.222a.643.643 0 0 0 .536-.733L2.749.617a.64.64 0 0 0-.733-.535z"/><path id="aQ" d="M.14.692.135 2.93c0 .354.285.642.64.643l1.44.003a.642.642 0 0 0 .643-.64l.005-2.24a.641.641 0 0 0-.64-.643L.783.05A.643.643 0 0 0 .14.692z"/><path id="aS" d="M.077.81.072 3.05a.64.64 0 0 0 .64.643l1.44.003a.643.643 0 0 0 .643-.641L2.8.815a.641.641 0 0 0-.64-.643L.72.169a.642.642 0 0 0-.642.64z"/><path id="aU" d="M.175.65.17 2.89a.64.64 0 0 0 .64.643l1.44.004a.642.642 0 0 0 .643-.642L2.898.656a.641.641 0 0 0-.64-.643L.818.01H.817a.643.643 0 0 0-.642.64z"/><path id="aW" d="M.112.769.107 3.008c0 .355.285.643.64.644l1.44.003a.643.643 0 0 0 .643-.641l.005-2.24a.641.641 0 0 0-.64-.643L.754.128a.643.643 0 0 0-.643.64z"/><path id="aY" d="M1.725.176.43.804a.643.643 0 0 0-.297.858l.978 2.015a.64.64 0 0 0 .857.298l1.295-.628a.642.642 0 0 0 .297-.858L2.583.474a.641.641 0 0 0-.858-.298z"/><path id="ba" d="m.508.593-.472 1.36c-.115.335.063.7.397.816l2.116.734a.64.64 0 0 0 .817-.396l.472-1.36A.643.643 0 0 0 3.44.931L1.325.197a.64.64 0 0 0-.817.396z"/><path id="bc" d="M1.07.333.182 1.465a.643.643 0 0 0 .109.902l1.761 1.382a.64.64 0 0 0 .902-.109l.889-1.132a.642.642 0 0 0-.11-.9L1.973.224a.64.64 0 0 0-.902.108z"/><path id="be" d="M.111.652.058 2.09a.642.642 0 0 0 .618.665l2.238.083a.641.641 0 0 0 .665-.617L3.632.782a.643.643 0 0 0-.617-.665L.777.034H.753A.641.641 0 0 0 .11.652z"/><path id="bg" d="m.102.815-.003 1.44a.643.643 0 0 0 .64.643l2.24.004a.641.641 0 0 0 .643-.64l.003-1.44a.642.642 0 0 0-.64-.643L.744.175a.641.641 0 0 0-.642.64z"/><path id="bi" d="M2.758.18.546.528a.641.641 0 0 0-.536.733l.223 1.422c.054.35.383.59.733.535l2.212-.346a.641.641 0 0 0 .536-.733L3.492.716a.643.643 0 0 0-.734-.535z"/><path id="bk" d="M2.415.241.4 1.22a.64.64 0 0 0-.298.857L.73 3.371c.155.32.54.452.858.297l2.015-.977a.641.641 0 0 0 .298-.858L3.273.538a.642.642 0 0 0-.858-.297z"/><path id="bm" d="M.886.535.152 2.65a.642.642 0 0 0 .396.818l1.36.471c.335.116.7-.062.817-.396l.733-2.116A.641.641 0 0 0 3.062.61L1.702.138a.643.643 0 0 0-.816.396z"/><path id="bo" d="M1.648.392.266 2.154a.641.641 0 0 0 .108.902l1.132.888c.28.219.684.17.902-.109L3.79 2.074a.64.64 0 0 0-.108-.902L2.55.283a.64.64 0 0 0-.902.11z"/><path id="bq" d="M.18.778.097 3.015a.642.642 0 0 0 .618.666l1.438.053a.643.643 0 0 0 .665-.618L2.9.878a.641.641 0 0 0-.618-.665L.845.16H.82a.643.643 0 0 0-.64.618z"/><path id="bs" d="M.806.408.172 1.7a.642.642 0 0 0 .294.86l2.011.986a.643.643 0 0 0 .86-.294L3.97 1.96a.642.642 0 0 0-.294-.86L1.666.115a.64.64 0 0 0-.86.293z"/><path id="bu" d="M1.959.176.597.642a.641.641 0 0 0-.4.815l.725 2.119c.114.335.48.515.815.4L3.1 3.511a.642.642 0 0 0 .4-.816L2.773.576a.643.643 0 0 0-.815-.4z"/><path id="bw" d="M1.39.186.253 1.07a.641.641 0 0 0-.113.9l1.376 1.77c.217.279.621.33.9.112l1.137-.883a.641.641 0 0 0 .112-.901L2.29.299a.642.642 0 0 0-.9-.113z"/><path id="by" d="M2.097.1.658.149a.641.641 0 0 0-.62.663L.111 3.05a.643.643 0 0 0 .663.62l1.439-.046a.642.642 0 0 0 .62-.663L2.76.72A.643.643 0 0 0 2.097.1z"/><path id="bA" d="m.575.614-.47 2.19a.643.643 0 0 0 .492.763l1.407.302a.641.641 0 0 0 .763-.493l.47-2.19a.643.643 0 0 0-.493-.762L1.337.12a.639.639 0 0 0-.762.493z"/><path id="bC" d="M2.18.12.3 1.337a.643.643 0 0 0-.191.888L.89 3.432c.193.3.59.383.888.191l1.88-1.215a.643.643 0 0 0 .191-.889L3.07.311A.64.64 0 0 0 2.18.12z"/><path id="bE" d="M1.684.308.182 1.969a.642.642 0 0 0 .045.907l1.068.965a.64.64 0 0 0 .906-.046l1.503-1.66a.642.642 0 0 0-.046-.907L2.591.262a.641.641 0 0 0-.907.046z"/><path id="bG" d="M2.66.06.504.673a.643.643 0 0 0-.442.793L.457 2.85a.641.641 0 0 0 .793.442l2.154-.613a.642.642 0 0 0 .442-.793L3.452.502A.64.64 0 0 0 2.66.06z"/><path id="bI" d="M.014.681.01 2.921a.64.64 0 0 0 .64.643l1.44.003a.643.643 0 0 0 .643-.64l.005-2.24a.641.641 0 0 0-.64-.644L.656.04a.642.642 0 0 0-.642.641z"/><path id="bK" d="M.13.8.127 3.038a.642.642 0 0 0 .64.644l1.44.002a.643.643 0 0 0 .643-.64l.005-2.24a.641.641 0 0 0-.641-.643L.774.159H.773a.642.642 0 0 0-.642.64z"/><path id="bM" d="M.049.82.044 3.06c0 .354.285.642.64.643l1.44.003a.642.642 0 0 0 .643-.64l.005-2.24a.641.641 0 0 0-.64-.644L.692.18H.691a.643.643 0 0 0-.642.64z"/><path id="bO" d="M.166.759.16 2.998c0 .354.285.642.64.643l1.44.003a.642.642 0 0 0 .643-.64l.005-2.24a.64.64 0 0 0-.64-.643L.808.118a.642.642 0 0 0-.642.64z"/></defs><g fill="none" fill-rule="evenodd"><path fill="#2599D8" d="m55.134 57.393 3.966 3.982 14.797-14.734-3.965-3.983z"/><path fill="#0D6FA0" d="m38.083 91.443 34.117.073.016-8.009-34.116-.072z"/><g transform="translate(54.769 55.214)"><mask id="b" fill="#fff"><use xlink:href="#a"/></mask><path fill="#3EBBFF" d="M21.271 8.416 6.248-6.67-8.44 7.952 6.585 23.041z" mask="url(#b)"/></g><path fill="#30B7FA" d="m19.674 86.599 69.354.148.031-14.736-69.354-.148z"/><path fill="#0D6FA0" d="m19.685 81.313 61.666.132.008-3.845-61.666-.132z"/><path fill="#39B7FB" d="m44.017 12.887 27.615 26.25 2.286-2.153-27.615-26.25zm-2.257 6.88 27.137 25.772 2.284-2.15-27.137-25.773z"/><g transform="translate(59.088 73.39)"><mask id="d" fill="#fff"><use xlink:href="#c"/></mask><path fill="#0D6FA0" d="m-.643 3.52 4.286.01.01-4.325-4.287-.009z" mask="url(#d)"/></g><g transform="translate(53.51 73.21)"><mask id="f" fill="#fff"><use xlink:href="#e"/></mask><path fill="#0D6FA0" d="m-.72 3.689 4.286.009.01-4.325-4.287-.009z" mask="url(#f)"/></g><g transform="translate(47.93 73.21)"><mask id="h" fill="#fff"><use xlink:href="#g"/></mask><path fill="#0D6FA0" d="m-.797 3.677 4.286.009.01-4.325-4.287-.009z" mask="url(#h)"/></g><g transform="translate(59.088 82.928)"><mask id="j" fill="#fff"><use xlink:href="#i"/></mask><path fill="#0D6FA0" d="m-.663 3.593 4.285.01.01-4.325-4.286-.01z" mask="url(#j)"/></g><g transform="translate(53.51 82.928)"><mask id="l" fill="#fff"><use xlink:href="#k"/></mask><path fill="#0D6FA0" d="m-.74 3.581 4.285.01.01-4.325-4.286-.01z" mask="url(#l)"/></g><g transform="translate(47.75 82.928)"><mask id="n" fill="#fff"><use xlink:href="#m"/></mask><path fill="#0D6FA0" d="m-.637 3.57 4.285.008.01-4.324-4.286-.01z" mask="url(#n)"/></g><g transform="translate(41.632 59.893)"><mask id="p" fill="#fff"><use xlink:href="#o"/></mask><path fill="#D3D3D3" d="m-.777 8.812 33.796.072.02-9.61L-.757-.8z" mask="url(#p)"/></g><g transform="translate(42.712 60.973)"><mask id="r" fill="#fff"><use xlink:href="#q"/></mask><path fill="#F7F7F7" d="m-.732 5.812 31.554.067.014-6.567L-.718-.755z" mask="url(#r)"/></g><path fill="#0D6FA0" d="m41.648 72.07 32.195.069.017-8.009-32.195-.069z"/><g transform="translate(18.957 65.472)"><mask id="t" fill="#fff"><use xlink:href="#s"/></mask><path fill="#CFCFCF" d="m-.74 28.011 28.671.061.062-28.83L-.677-.82z" mask="url(#t)"/></g><g transform="translate(20.037 66.551)"><mask id="v" fill="#fff"><use xlink:href="#u"/></mask><path fill="#F3F3F3" d="m-.696 25.973 26.588.057.057-26.75L-.639-.775z" mask="url(#v)"/></g><g transform="translate(25.616 72.67)"><mask id="x" fill="#fff"><use xlink:href="#w"/></mask><path fill="#C6C6C6" d="m-.665 13.62 14.422.03.03-14.415-14.422-.03z" mask="url(#x)"/></g><g transform="translate(25.616 72.67)"><mask id="z" fill="#fff"><use xlink:href="#y"/></mask><path fill="#C6C6C6" d="m-.665 13.62 14.422.03.03-14.415-14.422-.03z" mask="url(#z)"/></g><g transform="translate(29.035 76.09)"><mask id="B" fill="#fff"><use xlink:href="#A"/></mask><path fill="#848484" d="m-.686 6.663 7.35.015.016-7.347-7.35-.015z" mask="url(#B)"/></g><g transform="translate(29.755 76.99)"><mask id="D" fill="#fff"><use xlink:href="#C"/></mask><path fill="#FFF" d="M4.358-1.416-1.359.104.17 5.862l5.718-1.519z" mask="url(#D)"/></g><g transform="translate(31.014 77.17)"><mask id="F" fill="#fff"><use xlink:href="#E"/></mask><path fill="#C9C9C9" d="m1.429-1-2.322.617 1.44 5.418 2.321-.617z" mask="url(#F)"/></g><g transform="translate(64.667 65.472)"><mask id="H" fill="#fff"><use xlink:href="#G"/></mask><path fill="#CFCFCF" d="m-.8 28.109 28.67.061.062-28.831-28.67-.061z" mask="url(#H)"/></g><g transform="translate(65.746 66.551)"><mask id="J" fill="#fff"><use xlink:href="#I"/></mask><path fill="#F3F3F3" d="m-.757 26.07 26.588.057.057-26.749L-.7-.679z" mask="url(#J)"/></g><g transform="translate(71.325 72.67)"><mask id="L" fill="#fff"><use xlink:href="#K"/></mask><path fill="#C6C6C6" d="m-.726 13.717 14.422.031.031-14.416-14.423-.03z" mask="url(#L)"/></g><g transform="translate(71.325 72.67)"><mask id="N" fill="#fff"><use xlink:href="#M"/></mask><path fill="#C6C6C6" d="m-.726 13.717 14.422.031.031-14.416-14.423-.03z" mask="url(#N)"/></g><g transform="translate(74.744 76.27)"><mask id="P" fill="#fff"><use xlink:href="#O"/></mask><path fill="#848484" d="m-.747 6.58 7.35.016.016-7.347-7.35-.016z" mask="url(#P)"/></g><g transform="translate(75.464 76.99)"><mask id="R" fill="#fff"><use xlink:href="#Q"/></mask><path fill="#FFF" d="M4.297-1.318-1.42.2.11 5.96l5.718-1.52z" mask="url(#R)"/></g><g transform="translate(76.724 77.17)"><mask id="T" fill="#fff"><use xlink:href="#S"/></mask><path fill="#C9C9C9" d="m1.368-.903-2.322.617 1.44 5.418 2.321-.617z" mask="url(#T)"/></g><path fill="#3F3F3F" d="m34.06 25.603 12.813.028.017-8.009-12.814-.027z"/><g transform="translate(8.34 3.745)"><mask id="V" fill="#fff"><use xlink:href="#U"/></mask><path fill="#606060" d="m-.763 18.72 31.615.067.041-19.526L-.72-.806z" mask="url(#V)"/></g><g transform="translate(68.626 30.56)"><mask id="X" fill="#fff"><use xlink:href="#W"/></mask><path fill="#3EBBFF" d="m-.66 18.662 7.207.015.041-19.38L-.619-.72z" mask="url(#X)"/></g><g transform="translate(6 20.301)"><mask id="Z" fill="#fff"><use xlink:href="#Y"/></mask><path fill="#3F3F3F" d="m-.763 23.555 34.71.074.051-24.287L-.71-.733z" mask="url(#Z)"/></g><g transform="translate(6 19.582)"><mask id="ab" fill="#fff"><use xlink:href="#aa"/></mask><path fill="#555" d="m-.761 23.52 34.71.075L34-.693-.71-.767z" mask="url(#ab)"/></g><g transform="translate(16.798 63.852)"><mask id="ad" fill="#fff"><use xlink:href="#ac"/></mask><path fill="#4A4A4A" d="m-.666 31.548 77.042.165.069-32.355L-.597-.806z" mask="url(#ad)"/></g><g transform="translate(70.065 44.236)"><mask id="af" fill="#fff"><use xlink:href="#ae"/></mask><path fill="#F6F6F6" d="m-.656 3.546 4.325.01.01-4.325-4.325-.01z" mask="url(#af)"/></g><g transform="translate(37.853 9.504)"><mask id="ah" fill="#fff"><use xlink:href="#ag"/></mask><path fill="#3CA0D7" d="m-.756 18.669 14.416.03L13.7-.68-.714-.712z" mask="url(#ah)"/></g><g transform="translate(38.213 8.964)"><mask id="aj" fill="#fff"><use xlink:href="#ai"/></mask><path fill="#3EBBFF" d="m-.794 18.729 14.415.03.042-19.38L-.753-.652z" mask="url(#aj)"/></g><g transform="translate(59.628 56.294)"><mask id="al" fill="#fff"><use xlink:href="#ak"/></mask><path fill="#F6F6F6" d="m-.655 3.64 4.325.01.009-4.326-4.325-.009z" mask="url(#al)"/></g><g transform="translate(44.871 22.101)"><mask id="an" fill="#fff"><use xlink:href="#am"/></mask><path fill="#F6F6F6" d="m-.721 3.524 4.324.01.01-4.326L-.712-.8z" mask="url(#an)"/></g><g transform="translate(24.536 34.338)"><mask id="ap" fill="#fff"><use xlink:href="#ao"/></mask><path fill="#F6F6F6" d="m-.755 4.377 5.125.011.011-5.126-5.125-.01z" mask="url(#ap)"/></g><g transform="translate(70.065 32.359)"><mask id="ar" fill="#fff"><use xlink:href="#aq"/></mask><path fill="#F6F6F6" d="m-.63 3.571 4.324.01.01-4.325-4.325-.01z" mask="url(#ar)"/></g><g transform="translate(45.051 11.303)"><mask id="at" fill="#fff"><use xlink:href="#as"/></mask><path fill="#F6F6F6" d="m-.718 3.59 4.325.01.009-4.325-4.325-.01z" mask="url(#at)"/></g><g transform="translate(70.785 62.772)"><mask id="av" fill="#fff"><use xlink:href="#au"/></mask><path fill="#4A4A4A" d="m-.776 4.393 4.324.009.011-5.126-4.324-.009z" mask="url(#av)"/></g><g transform="translate(70.605 92.466)"><mask id="ax" fill="#fff"><use xlink:href="#aw"/></mask><path fill="#4A4A4A" d="m-.66 4.33 4.325.01.011-5.125-4.324-.01z" mask="url(#ax)"/></g><g transform="translate(51.53 62.772)"><mask id="az" fill="#fff"><use xlink:href="#ay"/></mask><path fill="#4A4A4A" d="m-.741 4.352 4.325.009.01-5.126L-.73-.774z" mask="url(#az)"/></g><g transform="translate(51.35 92.286)"><mask id="aB" fill="#fff"><use xlink:href="#aA"/></mask><path fill="#4A4A4A" d="m-.624 4.47 4.324.01.011-5.127-4.324-.009z" mask="url(#aB)"/></g><g transform="translate(32.274 62.592)"><mask id="aD" fill="#fff"><use xlink:href="#aC"/></mask><path fill="#4A4A4A" d="m-.705 4.33 4.324.01.011-5.126-4.324-.01z" mask="url(#aD)"/></g><g transform="translate(32.274 92.286)"><mask id="aF" fill="#fff"><use xlink:href="#aE"/></mask><path fill="#4A4A4A" d="m-.77 4.429 4.326.01.01-5.126-4.324-.01z" mask="url(#aF)"/></g><g transform="translate(65.926 62.772)"><mask id="aH" fill="#fff"><use xlink:href="#aG"/></mask><path fill="#4A4A4A" d="m-.722 4.382 4.324.01.011-5.126L-.71-.743z" mask="url(#aH)"/></g><g transform="translate(65.926 92.286)"><mask id="aJ" fill="#fff"><use xlink:href="#aI"/></mask><path fill="#4A4A4A" d="m-.786 4.5 4.325.01.011-5.126-4.324-.009z" mask="url(#aJ)"/></g><g transform="translate(46.67 62.772)"><mask id="aL" fill="#fff"><use xlink:href="#aK"/></mask><path fill="#4A4A4A" d="m-.687 4.341 4.324.01.011-5.126-4.324-.01z" mask="url(#aL)"/></g><g transform="translate(46.67 92.286)"><mask id="aN" fill="#fff"><use xlink:href="#aM"/></mask><path fill="#4A4A4A" d="m-.75 4.46 4.324.009.011-5.126-4.324-.009z" mask="url(#aN)"/></g><g transform="translate(27.415 62.772)"><mask id="aP" fill="#fff"><use xlink:href="#aO"/></mask><path fill="#4A4A4A" d="m3.318-.932-4.273.667.79 5.064 4.274-.667z" mask="url(#aP)"/></g><g transform="translate(61.067 62.772)"><mask id="aR" fill="#fff"><use xlink:href="#aQ"/></mask><path fill="#4A4A4A" d="m-.669 4.372 4.325.01.011-5.126-4.325-.01z" mask="url(#aR)"/></g><g transform="translate(61.067 92.286)"><mask id="aT" fill="#fff"><use xlink:href="#aS"/></mask><path fill="#4A4A4A" d="m-.732 4.49 4.325.01.01-5.126L-.72-.635z" mask="url(#aT)"/></g><g transform="translate(41.812 62.772)"><mask id="aV" fill="#fff"><use xlink:href="#aU"/></mask><path fill="#4A4A4A" d="m-.633 4.331 4.324.01.011-5.126-4.324-.01z" mask="url(#aV)"/></g><g transform="translate(41.812 92.286)"><mask id="aX" fill="#fff"><use xlink:href="#aW"/></mask><path fill="#4A4A4A" d="m-.697 4.45 4.325.009.01-5.126-4.324-.01z" mask="url(#aX)"/></g><g transform="translate(22.916 64.032)"><mask id="aZ" fill="#fff"><use xlink:href="#aY"/></mask><path fill="#4A4A4A" d="M2.674-1.174-1.217.713 1.02 5.325l3.89-1.888z" mask="url(#aZ)"/></g><g transform="translate(16.618 71.23)"><mask id="bb" fill="#fff"><use xlink:href="#ba"/></mask><path fill="#4A4A4A" d="m.224-1.033-1.417 4.086 4.843 1.68L5.067.645z" mask="url(#bb)"/></g><g transform="translate(19.317 66.911)"><mask id="bd" fill="#fff"><use xlink:href="#bc"/></mask><path fill="#4A4A4A" d="m1.331-1.296-2.67 3.402L2.693 5.27l2.67-3.402z" mask="url(#bd)"/></g><g transform="translate(15.718 76.81)"><mask id="bf" fill="#fff"><use xlink:href="#be"/></mask><path fill="#4A4A4A" d="m-.636-.82-.16 4.322 5.122.19.16-4.322z" mask="url(#bf)"/></g><g transform="translate(90.22 79.689)"><mask id="bh" fill="#fff"><use xlink:href="#bg"/></mask><path fill="#4A4A4A" d="m-.705 3.695 5.125.011.01-4.324L-.697-.63z" mask="url(#bh)"/></g><g transform="translate(90.04 74.11)"><mask id="bj" fill="#fff"><use xlink:href="#bi"/></mask><path fill="#4A4A4A" d="M4.728 3.44 4.06-.833l-5.065.791.668 4.273z" mask="url(#bj)"/></g><g transform="translate(88.241 69.79)"><mask id="bl" fill="#fff"><use xlink:href="#bk"/></mask><path fill="#4A4A4A" d="M5.251 2.782 3.364-1.11l-4.612 2.237L.64 5.018z" mask="url(#bl)"/></g><g transform="translate(81.403 63.492)"><mask id="bn" fill="#fff"><use xlink:href="#bm"/></mask><path fill="#4A4A4A" d="M4.687.326.602-1.091l-1.68 4.843 4.086 1.416z" mask="url(#bn)"/></g><g transform="translate(85.362 66.191)"><mask id="bp" fill="#fff"><use xlink:href="#bo"/></mask><path fill="#4A4A4A" d="M5.311 1.433 1.91-1.237l-3.164 4.032 3.402 2.67z" mask="url(#bp)"/></g><g transform="translate(76.544 62.592)"><mask id="br" fill="#fff"><use xlink:href="#bq"/></mask><path fill="#4A4A4A" d="m3.755-.534-4.322-.16-.19 5.122 4.322.16z" mask="url(#br)"/></g><g transform="translate(88.781 84.548)"><mask id="bt" fill="#fff"><use xlink:href="#bs"/></mask><path fill="#4A4A4A" d="M5.324 1.017 3.42 4.9l-4.602-2.257L.722-1.24z" mask="url(#bt)"/></g><g transform="translate(81.943 90.486)"><mask id="bv" fill="#fff"><use xlink:href="#bu"/></mask><path fill="#4A4A4A" d="m4.723 3.801-4.092 1.4L-1.027.35l4.092-1.4z" mask="url(#bv)"/></g><g transform="translate(86.082 87.787)"><mask id="bx" fill="#fff"><use xlink:href="#bw"/></mask><path fill="#4A4A4A" d="M5.183 2.714 1.77 5.369l-3.147-4.046 3.413-2.655z" mask="url(#bx)"/></g><g transform="translate(76.544 92.286)"><mask id="bz" fill="#fff"><use xlink:href="#by"/></mask><path fill="#4A4A4A" d="m3.68 4.376-4.322.141-.167-5.122 4.322-.142z" mask="url(#bz)"/></g><g transform="translate(26.875 91.566)"><mask id="bB" fill="#fff"><use xlink:href="#bA"/></mask><path fill="#4A4A4A" d="m3.247 4.955-4.229-.908L.095-.965l4.228.908z" mask="url(#bB)"/></g><g transform="translate(18.237 85.987)"><mask id="bD" fill="#fff"><use xlink:href="#bC"/></mask><path fill="#4A4A4A" d="m1 5.079-2.347-3.632 4.304-2.783 2.348 3.632z" mask="url(#bD)"/></g><g transform="translate(22.016 89.406)"><mask id="bF" fill="#fff"><use xlink:href="#bE"/></mask><path fill="#4A4A4A" d="m1.828 5.403-3.208-2.9L2.058-1.3l3.207 2.9z" mask="url(#bF)"/></g><g transform="translate(16.078 82.208)"><mask id="bH" fill="#fff"><use xlink:href="#bG"/></mask><path fill="#4A4A4A" d="M.081 4.457-1.102.297l4.93-1.402 1.183 4.16z" mask="url(#bH)"/></g><g transform="translate(56.389 62.772)"><mask id="bJ" fill="#fff"><use xlink:href="#bI"/></mask><path fill="#4A4A4A" d="m-.795 4.362 4.325.01.01-5.126-4.324-.01z" mask="url(#bJ)"/></g><g transform="translate(56.209 92.286)"><mask id="bL" fill="#fff"><use xlink:href="#bK"/></mask><path fill="#4A4A4A" d="m3.657-.636-4.324-.01-.011 5.126 4.324.01z" mask="url(#bL)"/></g><g transform="translate(37.133 62.592)"><mask id="bN" fill="#fff"><use xlink:href="#bM"/></mask><path fill="#4A4A4A" d="m-.76 4.5 4.325.01.011-5.126-4.325-.009z" mask="url(#bN)"/></g><g transform="translate(36.953 92.286)"><mask id="bP" fill="#fff"><use xlink:href="#bO"/></mask><path fill="#4A4A4A" d="m3.693-.677-4.325-.01-.011 5.126 4.325.01z" mask="url(#bP)"/></g><path fill="#FC5841" d="m7.4 27.624 15.058 8.433 2.401-3.727-16.94-5.315z"/><path fill="#E83C3C" d="m7.4 27.624 14.978 8.51 2.481-3.804-.284-.09-2.59 2.341-14.378-7.2z"/><path fill="#FC5841" d="m10.136 12.24.276.752 17.732.895-.958-4.328z"/><path fill="#E83C3C" d="m10.136 12.24.11.3 15.984-1.76 1.618 3.094.297.015-1.006-4.43z"/></g></svg>