<svg version="1.1" xmlns="http://www.w3.org/2000/svg" xmlns:xlink="http://www.w3.org/1999/xlink" width="65.72817" height="119.76549" viewBox="0,0,65.72817,119.76549"><g transform="translate(-206.99983,-119.99975)"><g data-paper-data="{&quot;isPaintingLayer&quot;:true}" fill-rule="evenodd" stroke="none" stroke-width="1" stroke-linecap="butt" stroke-linejoin="miter" stroke-miterlimit="10" stroke-dasharray="" stroke-dashoffset="0" style="mix-blend-mode: normal"><path d="M253.781,234.098h-9.319c-0.061,0.264 0.015,0.49 0.195,0.762c0.548,0.844 1.507,1.444 2.331,2.018c1.259,0.863 2.852,1.333 4.256,2.003c1.264,0.529 2.929,1.538 4.06,0.275c1.498,-1.798 0.225,-4.008 -1.524,-5.058zM242.154,234.098c0.071,0.264 -0.014,0.49 -0.187,0.762c-0.556,0.844 -1.514,1.444 -2.332,2.018c-1.267,0.863 -2.86,1.333 -4.26,2.003c-1.269,0.529 -2.93,1.538 -4.069,0.275c-1.492,-1.798 -0.219,-4.008 1.523,-5.058z" fill="#333433"/><path d="M241.568,208.942h2.079c0.50809,-0.72379 0.88545,-1.53099 1.115,-2.385c0,0 0.272,1.252 1.118,2.385h10.85l-1.902,25.369h-9.65l-0.364,-18.392h-0.282l-0.365,18.392h-9.646l-1.903,-25.37h8.95z" fill="#4f4f4f"/><path d="M265.461,202.526c0.24,2.278 -0.85,4.267 -2.436,4.434c-1.042,0.114 -2.039,-0.582 -2.672,-1.712c-0.587,0.485 -1.173,0.679 -1.586,0.455c-0.783,-0.405 -0.69,-2.107 0.205,-3.795c0.348,-0.647 0.748,-1.191 1.164,-1.601c0.446,-0.901 1.155,-1.523 2.008,-1.607c1.59,-0.166 3.08,1.546 3.316,3.826M218.138,165.404c1.051,0.2 1.551,2.203 1.108,4.477c-0.171,0.867 -0.456,1.651 -0.796,2.267c-0.191,1.203 -0.796,2.165 -1.75,2.57c-1.789,0.76 -4.123,-0.707 -5.204,-3.267c-1.09,-2.563 -0.525,-5.248 1.267,-6.008c1.168,-0.49 2.561,-0.039 3.693,1.047c0.512,-0.772 1.117,-1.195 1.682,-1.086" data-paper-data="{&quot;origPos&quot;:null}" fill="#bd9468"/><path d="M212.913,175.395l4.631,-2.28l5.251,6.295l11.3,-4.098c0,0 -0.006,0.004 -0.006,0.01c1.943,-1.289 7.163,-1.481 7.163,-1.481l1.712,0.053h0.144l1.703,-0.067c0,0 5.119,0.23 7.118,1.485v-0.004c0,0 6.242,3.267 7.97,5.477c3.557,4.543 4.915,18.183 4.915,18.183h-4.625c0,0 -1.253,-9.857 -2.901,-12.187c-0.602,-0.85 -0.967,-1.423 -1.192,-1.873c2.105,9.699 2.367,22.672 2.367,22.672l0.037,1.97h-10.783c-3.675,-0.355 -4.547,-4.417 -4.547,-4.417c0,0 -0.972,3.977 -4.22,4.417h-11.425l0.07,-1.918h0.004c0,0 0.294,-14.794 2.814,-24.6c-1.474,0.582 -8.236,3.133 -10.322,2.38c-2.899,-1.047 -7.179,-10.017 -7.179,-10.017z" fill="#343434"/><path d="M242.995,192.934l-2.012,-4.536l-2.454,-12.988c1.717,-0.263 3.234,-0.314 3.234,-0.314l1.713,0.05h0.143l1.705,-0.064c0,0 1.366,0.061 2.962,0.295l-2.17,13.021l-1.874,4.25l-0.727,1.048z" fill="#ffffff"/><path d="M242.471,184.654c0.024,-1.451 1.038,-5.724 1.038,-5.724c-0.453,-0.372 -0.845,-2.192 -0.845,-2.192l1.912,-1.656l2.104,1.656c0,0 -0.418,1.863 -0.908,2.192c0,0 0.902,4.284 0.908,5.728c0.01,1.529 -0.908,6.022 -0.908,6.022l-1.196,2.913l-1.175,-2.78c0,0 -0.952,-4.6 -0.93,-6.159" fill="#e63744"/><path d="M244.441,175.198h0.081l1.703,-0.116c0,0 1.925,0.067 3.872,0.425c0.047,0.653 0.047,1.345 -0.115,1.989c-0.147,0.513 -0.398,0.614 -0.673,0.983c-0.255,0.366 -0.123,0.61 -0.621,0.699c-0.308,0.057 -0.566,-0.061 -0.788,-0.254l-0.028,0.053c0,0 -3.43,-2.561 -3.43,-3.779" fill="#ffffff"/><path d="M246.262,175.155l-1.703,0.092h-0.053c0.06,1.218 3.126,3.512 3.403,3.718l0.032,-0.04l0.018,0.025c0.242,0.212 0.48,0.295 0.758,0.245c0.316,-0.057 0.361,-0.167 0.438,-0.364c0.027,-0.092 0.079,-0.2 0.163,-0.328c0.085,-0.112 0.166,-0.197 0.243,-0.281c0.177,-0.183 0.327,-0.345 0.427,-0.687c0.138,-0.553 0.174,-1.196 0.11,-1.971c-1.26833,-0.22038 -2.54975,-0.35734 -3.836,-0.41M247.937,179.014l-0.028,0.014l-0.017,-0.014c-0.136,-0.102 -3.45,-2.563 -3.45,-3.832v-0.021h0.106l1.714,-0.079c0.016,0 1.95,0.073 3.88,0.429l0.022,0.008v0.02c0.063,0.794 0.025,1.45 -0.118,2.018c-0.097,0.352 -0.255,0.513 -0.432,0.704c-0.079,0.09 -0.16,0.173 -0.24,0.28c-0.091,0.117 -0.12,0.224 -0.16,0.32c-0.071,0.189 -0.122,0.334 -0.489,0.395c-0.053,0.004 -0.104,0.012 -0.161,0.012c-0.23324,-0.00411 -0.45666,-0.09462 -0.627,-0.254" fill="#666767"/><path d="M238.899,177.69c-0.231,-0.62 -0.505,-1.56 -0.294,-2.254c1.24932,-0.2076 2.51186,-0.3259 3.778,-0.354l1.712,0.092h0.012c0,1.218 -3.439,3.781 -3.439,3.781l-0.077,-0.035c-0.877,0 -1.381,-0.391 -1.692,-1.23" fill="#ffffff"/><path d="M242.424,175.133c-0.021,0.008 -1.872,0.063 -3.766,0.394c-0.147,0.52 -0.055,1.268 0.308,2.207c0.303,0.846 0.8,1.202 1.66,1.202l0.068,0.01c0.209,-0.162 3.352,-2.534 3.407,-3.75zM240.625,178.993c-0.877,0 -1.409,-0.376 -1.724,-1.23c-0.363,-0.968 -0.455,-1.735 -0.298,-2.28l0.016,-0.013l0.016,-0.004c1.25367,-0.21009 2.51967,-0.33836 3.79,-0.384l1.702,0.065h0.027v0.023c0,1.267 -3.3,3.73 -3.44,3.83l-0.008,0.014l-0.08,-0.021z" fill="#666767"/><path d="M244.441,193.509c0,0 3.202,-13.127 4.16,-18.427c1.238,0.155 2.75,0.419 3.88,0.848l-0.524,3.236l-2.14,0.539l1.086,2.095c0,0 -2.442,9.07 -6.462,11.709" fill="#1d1d1d"/><path d="M244.591,193.509c-4.012,-2.639 -6.458,-11.709 -6.458,-11.709l1.08,-2.095l-2.128,-0.539l-0.526,-3.236c1.133,-0.429 2.633,-0.693 3.884,-0.848c0.954,5.3 4.147,18.427 4.147,18.427M242.471,195.366c0,-0.16266 0.06475,-0.31863 0.17996,-0.43346c0.11521,-0.11483 0.27138,-0.17907 0.43404,-0.17854c0.33748,0.00164 0.61081,0.27452 0.613,0.612c0.00107,0.163 -0.06314,0.31964 -0.1783,0.43499c-0.11516,0.11535 -0.2717,0.17981 -0.4347,0.17901c-0.342,0 -0.615,-0.266 -0.615,-0.614M242.471,199.302c-0.00055,-0.33855 0.27345,-0.61345 0.612,-0.614c0.33855,-0.00055 0.61345,0.27345 0.614,0.612c0.00055,0.33855 -0.27345,0.61345 -0.612,0.614c-0.342,0 -0.615,-0.272 -0.615,-0.612M242.471,201.268c0.01329,-0.3292 0.28403,-0.58923 0.6135,-0.58923c0.32947,0 0.60021,0.26003 0.6135,0.58923c-0.00272,0.33742 -0.27558,0.61028 -0.613,0.613c-0.342,0 -0.615,-0.279 -0.615,-0.613" fill="#1d1d1d"/><path d="M252.324,205.739l2.45,-16.887l1.48,0.211l-2.464,16.894z" fill="#eeeeed"/><path d="M256.826,188.856l-2.452,16.899l-0.08,-0.01l2.459,-16.893z" fill="#0b4768"/><path d="M256.827,188.858l-2.46,16.895l-0.073,-0.016l2.456,-16.885z" fill="#e63744"/><path d="M230.65,200.383c-0.013,-0.045 0.014,-0.1 0.068,-0.108l6.372,-1.586c0.0483,-0.00529 0.09372,0.02388 0.109,0.07c0.012,0.046 -0.02,0.1 -0.065,0.115l-6.377,1.576c-0.055,0.016 -0.102,-0.018 -0.106,-0.067" fill="#9d9d9d"/><path d="M232.887,199.977c0.019,0.095 0.126,0.156 0.222,0.13c0.09547,-0.02274 0.15452,-0.11847 0.132,-0.214l-0.266,-1.065c-0.01041,-0.04684 -0.03938,-0.08745 -0.08029,-0.11252c-0.04091,-0.02507 -0.09025,-0.03246 -0.13671,-0.02048c-0.04801,0.00956 -0.08981,0.03879 -0.11528,0.0806c-0.02546,0.0418 -0.03225,0.09236 -0.01872,0.1394zM234.597,199.138c-0.01917,-0.075 -0.00712,-0.15456 0.0334,-0.22052c0.04052,-0.06596 0.10604,-0.11267 0.1816,-0.12948l0.354,-0.09c0.15452,-0.03785 0.31068,0.05585 0.35,0.21c0.01859,0.07497 0.00629,0.15426 -0.03413,0.22007c-0.04043,0.06581 -0.10559,0.11263 -0.18087,0.12993l-0.353,0.09c-0.1545,0.03619 -0.30984,-0.05675 -0.351,-0.21M230.654,201.101c-0.03216,-0.15344 0.06008,-0.30556 0.211,-0.348l0.357,-0.088c0.15452,-0.03785 0.31068,0.05585 0.35,0.21c0.03113,0.15327 -0.06071,0.30473 -0.211,0.348l-0.354,0.088c-0.158,0.04 -0.32,-0.056 -0.353,-0.21" fill="#1d1d1d"/><path d="M234.596,193.151c-0.03385,-0.15861 0.06448,-0.31541 0.222,-0.354c0.07617,-0.01953 0.157,-0.00751 0.22419,0.03333c0.06719,0.04084 0.11508,0.10706 0.13281,0.18367c0.01946,0.07764 0.00677,0.15985 -0.03522,0.22799c-0.04198,0.06815 -0.10969,0.11647 -0.18778,0.13401c-0.16001,0.03376 -0.31783,-0.06598 -0.356,-0.225" fill="#343434"/><path d="M234.693,193.29l-0.105,-0.503l0.197,0.216l0.057,0.287l-0.069,0.05z" fill="#1d1d1d"/><path d="M228.862,195.325l-0.109,-0.018l-0.077,-0.553l0.214,0.478z" fill="#9d9d9d"/><path d="M234.602,202.532l0.422,1.014l-0.008,-8.719l-0.146,-2.04h-0.282zM233.475,203.369l0.106,1.103l-4.083,-7.715l-0.822,-1.873l0.244,-0.13z" fill="#cccbcb"/><path d="M228.686,195.129c-0.02091,-0.07708 -0.0099,-0.15934 0.03055,-0.2282c0.04045,-0.06886 0.10694,-0.11853 0.18445,-0.1378c0.15883,-0.03698 0.31906,0.05582 0.366,0.212c0.03606,0.16131 -0.06208,0.32222 -0.222,0.364c-0.15697,0.04003 -0.31696,-0.05356 -0.359,-0.21" fill="#1d1d1d"/><path d="M233.878,206.088l0.325,1.287c0.02325,0.09472 0.11769,0.15369 0.213,0.133h0.008c0.04747,-0.0113 0.08806,-0.04191 0.11199,-0.08444c0.02392,-0.04253 0.029,-0.09312 0.01401,-0.13956l-0.311,-1.29c0.32199,-0.16777 0.48916,-0.53258 0.406,-0.886l-0.477,-1.892c-0.05068,-0.20261 -0.18011,-0.37663 -0.35959,-0.48345c-0.17947,-0.10682 -0.39415,-0.13761 -0.59641,-0.08555c-0.20258,0.05048 -0.37666,0.17966 -0.48365,0.35893c-0.107,0.17927 -0.13808,0.39381 -0.08635,0.59607l0.465,1.89c0.09044,0.3512 0.40734,0.59649 0.77,0.596M257.672,201.285v2.975c0,1.969 -1.6,3.562 -3.571,3.562h-0.18c-0.9455,0.0008 -1.85258,-0.37404 -2.52171,-1.04204c-0.66913,-0.668 -1.04549,-1.57446 -1.04629,-2.51996v-3.604l7.319,0.63z" fill="#343434"/><path d="M250.422,200.729v3.571c0,1.95 1.59,3.531 3.537,3.531h0.181c0.93639,0 1.83441,-0.37205 2.49644,-1.03427c0.66203,-0.66222 1.03382,-1.56035 1.03356,-2.49673v-2.945l-7.248,-0.627zM254.14,207.899h-0.18c-1.98835,-0.00054 -3.60149,-1.60965 -3.607,-3.598v-3.645l0.041,0.008l7.345,0.635v3.002c-0.00495,1.98546 -1.61354,3.5936 -3.599,3.598z" fill="#000001"/><path d="M230.648,201.286l7.32,-0.63v3.604c-0.00132,0.9469 -0.37909,1.85441 -1.05005,2.52256c-0.67096,0.66815 -1.58006,1.0421 -2.52695,1.03944h-0.175c-1.96883,0.00111 -3.56624,-1.59317 -3.569,-3.562v-2.975z" fill="#343434"/><path d="M230.714,201.356v2.945c0.00165,1.94943 1.58157,3.52935 3.531,3.531h0.178c1.95142,0 3.53459,-1.57959 3.539,-3.531v-3.572zM234.423,207.899h-0.178c-1.98575,-0.0033 -3.5947,-1.61225 -3.598,-3.598v-3.002l0.03,-0.004l7.352,-0.64v3.646c-0.00331,1.98887 -1.61713,3.59911 -3.606,3.598z" fill="#000001"/><path d="M217.243,135.738l-0.437,7.088l-8.927,-4.334l-0.879,-1.869z" fill="#9e9e9f"/><path d="M217.646,136.724c0.066,0.754 -2.266,1.568 -5.204,1.808c-2.941,0.251 -5.376,-0.157 -5.441,-0.909c-0.061,-0.757 2.27,-1.562 5.215,-1.814c2.936,-0.245 5.361,0.162 5.43,0.915" fill="#d0d0d0"/><path d="M226.217,202.643c0,0.006 0.008,0.006 0.008,0.006h-0.008c0.012,0.735 -2.642,2.544 -6.065,2.824c-3.433,0.29 -6.359,-1.046 -6.468,-1.774v-0.02c-0.00713,-0.04562 -0.0016,-0.09232 0.016,-0.135c0.262,-2.097 3.084,-25.076 2.36,-32.963c-0.819,-8.963 -9.06,-34.843 -9.06,-34.843c2.495,1.904 7.847,2.835 11.668,0.545c0,0 -2.075,25.686 -1.092,34.172c0.916,7.889 7.926,29.957 8.598,32.032c0.02302,0.04497 0.03759,0.09377 0.043,0.144v0.012" fill="#eeeeed"/><path d="M218.616,169.457c-0.323,2.172 -1.403,3.805 -2.416,3.655c-0.995,-0.147 -1.549,-2.028 -1.225,-4.2c0.327,-2.173 1.4,-3.806 2.406,-3.657c1.007,0.144 1.558,2.029 1.235,4.202" data-paper-data="{&quot;origPos&quot;:null}" fill="#bd9468"/><path d="M264.147,211.7c0,-0.671 0.315,-1.208 0.7,-1.208c0.394,0 0.697,0.537 0.697,1.208c0,0.665 -0.303,1.206 -0.697,1.206c-0.385,0 -0.7,-0.541 -0.7,-1.206M262.176,201.089c-0.00164,-0.11551 0.04359,-0.22675 0.12537,-0.30834c0.08178,-0.08159 0.19313,-0.12656 0.30863,-0.12466c0.11598,-0.00133 0.22771,0.0436 0.31047,0.12486c0.08276,0.08126 0.12974,0.19215 0.13053,0.30814v4.975c-0.00437,0.24027 -0.2007,0.43259 -0.441,0.432c-0.244,0 -0.434,-0.196 -0.434,-0.432z" fill="#0b4768"/><path d="M259.032,209.288c-0.00221,-1.50498 1.21602,-2.72679 2.721,-2.729c1.50498,-0.00221 2.72679,1.21602 2.729,2.721l0.784,17.551c0,1.505 -1.223,2.747 -2.723,2.747h-1.571c-1.51253,-0.00715 -2.73537,-1.23445 -2.737,-2.747z" fill="#6a97c0"/><path d="M260.909,209.012c0,-1.353 0.852,-2.455 2.196,-2.455c1.367,0 2.201,1.102 2.201,2.455l0.711,15.783c0,1.352 -0.845,2.47 -2.193,2.47h-1.417c-1.36,0 -2.201,-1.118 -2.201,-2.47z" fill="#0b4768"/><path d="M270.587,152.8l-0.528,-0.579l0.254,-0.746l2.4,0.201z" fill="#f6a965"/><path d="M252.829,155.251l18.595,-3.768c0.337,-0.067 -0.056,0.303 0.013,0.646l0.012,0.076c0.074,0.338 0.582,0.531 0.234,0.598l-18.58,3.762c-0.337,0.076 -0.676,-0.154 -0.751,-0.498l-0.016,-0.073c-0.067,-0.34146 0.1533,-0.67324 0.494,-0.744z" fill="#be723f"/><path d="M272.12,151.851c-0.0764,-0.10937 -0.10593,-0.24475 -0.082,-0.376l0.69,0.061l-0.609,0.315z" fill="#303030"/><path d="M253.03,156.092c0.045,0.211 0.045,0.43 0.045,0.63c-0.319,0.041 -0.658,-0.173 -0.725,-0.498l-0.014,-0.07c-0.069,-0.325 0.152,-0.648 0.455,-0.744c0.091,0.21 0.194,0.435 0.239,0.682" fill="#f39611"/><path d="M264.774,153.293c1.135,0.728 1.873,1.973 1.873,3.38c0,2.242 -1.881,4.058 -4.22,4.058c-0.059,0 -0.13,-0.008 -0.197,-0.008c-3.788,6.777 -11.028,11.349 -19.344,11.349c-8.329,0 -15.575,-4.589 -19.365,-11.366c-0.148,0.013 -0.305,0.026 -0.468,0.026c-2.332,0 -4.23,-1.817 -4.23,-4.06c0,-1.514 0.87,-2.834 2.15,-3.53c-0.149,-1.039 -0.222,-2.092 -0.222,-3.17c0,-12.21 9.908,-22.103 22.135,-22.103c12.232,0 22.142,9.893 22.142,22.104c0,1.13 -0.093,2.24 -0.254,3.32" data-paper-data="{&quot;origPos&quot;:null}" fill="#bd9468"/><path d="M230.647,152.974c1.807,-1.108 4.467,-1.816 4.467,-1.816c0.316,-0.586 0.03,-1.584 -0.388,-1.643c-1.326,-0.187 -4.079,3.459 -4.079,3.459M256.927,152.974c-1.813,-1.108 -4.467,-1.816 -4.467,-1.816c-0.318,-0.586 -0.036,-1.584 0.386,-1.643c1.326,-0.187 4.081,3.459 4.081,3.459" fill="#f7b90b"/><path d="M266.906,148.729c0.035,2.595 -0.87,8.211 -2.645,11.56c0,0 -4.353,-12.298 -7.939,-14.249c-4.387,-2.38 -15.947,1.052 -19.86,-2.038c-0.65,-0.51 -0.577,-1.666 -0.577,-1.666c0,0 -0.751,1.475 -1.116,1.888c-1.898,2.156 -6.814,5.276 -9.158,6.952c-1.875,1.353 -1.968,1.338 -1.55,9.113c0,0 -3.449,-7.075 -3.26,-11.8c0.052,-1.363 0.716,-4.382 1.79,-7.452c3.896,-7.809 11.973,-13.168 21.302,-13.168c10.714,0 19.773,7.074 22.756,16.798c0.14667,1.34978 0.23243,2.70549 0.257,4.063" data-paper-data="{&quot;origPos&quot;:null}" fill="#815a20"/><path d="M242.37,176.335c-1.034,0 -1.87,-2.18 -1.87,-3.22h7.352c0,1.04 -0.829,3.22 -1.868,3.22h-3.614" data-paper-data="{&quot;origPos&quot;:null}" fill="#bd9468"/><path d="M241.272,175.28c-0.415,-0.635 -0.705,-1.506 -0.772,-2.14c1.163,0.191 2.365,0.285 3.585,0.285c1.278,0 2.532,-0.11 3.742,-0.31l-0.015,0.014l-6.54,2.151" fill="#eeac6c"/><path d="M253.186,160.31c5.236,0 5.82,-4.14 5.82,-7.06c0,-0.698 -11.646,-0.698 -11.646,0c0,2.92 0.993,7.06 5.827,7.06zM241.464,153.25c0,-0.698 -11.635,-0.698 -11.635,0c0,2.92 0.587,7.06 5.823,7.06c4.828,0 5.812,-4.14 5.812,-7.06zM266.061,154.783l-5.28,-0.579c-0.327,3.484 -1.809,7.36 -7.595,7.36c-4.894,0 -6.804,-3.256 -7.43,-6.486c-0.858,-1.23 -1.76,-1.194 -2.688,0.073c-0.643,3.204 -2.56,6.413 -7.427,6.413c-5.778,0 -7.272,-3.876 -7.603,-7.36l-5.273,0.579l5.171,-2.532v-0.016c0,-1.013 15.41,-1.013 15.41,0v0.07h2.148v-0.07c0,-1.013 15.36,-1.013 15.36,0v0.004l5.206,2.544z" fill="#6a97c0"/><path d="M218.824,146.225c0,0 7.894,-10.487 23.716,-10.487c13.027,0 24.212,10.487 24.212,10.487c-6.627,8.081 -42.953,8.006 -47.928,0" fill="#b96316"/><path d="M218.824,145.883c0,-13.252 10.725,-23.916 23.958,-23.916c13.244,0 23.97,10.664 23.97,23.916z" fill="#f08314"/><path d="M247.362,143.033h-9.215l-1.587,-21.697c2.506,-1.816 10.397,-1.747 12.385,0l-1.582,21.697zM224.735,129.128l6.149,13.713l-2.93,-16.94c0,0 -3.016,2.11 -3.219,3.227M262.413,129.128l-6.148,13.712l2.935,-16.939c0,0 3.009,2.11 3.212,3.227" fill="#b96316"/><path d="M237,156c0,1.657 -0.895,3 -2,3c-1.105,0 -2,-1.343 -2,-3c0,-1.657 0.895,-3 2,-3c1.105,0 2,1.343 2,3M255,156c0,1.657 -0.895,3 -2,3c-1.105,0 -2,-1.343 -2,-3c0,-1.657 0.895,-3 2,-3c1.105,0 2,1.343 2,3" data-paper-data="{&quot;origPos&quot;:null}" fill="#704f1c"/><path d="M244.02,159.069c-1.125,0.153 -3.02,1.834 -3.02,1.834c0,0 0.207,-1.009 0.503,-1.299c0.8,-1.156 2.487,-1.604 2.487,-1.604c0,0 2.173,0.703 2.65,1.588c0.443,0.824 0.34,1.238 0.34,1.238c0,0 -2.121,-1.871 -2.96,-1.756z" fill="#eeac6c"/><path d="M237.2,162.696c0,0 6.897,3.208 13.172,-0.397c0,0 -1.39,5.47 -5.95,5.561c-4.115,0.122 -4.984,-1.492 -5.477,-1.956c-0.492,-0.463 -1.42,-1.772 -1.745,-3.208" data-paper-data="{&quot;origPos&quot;:null}" fill="#a5513c"/></g></g></svg>