<svg version="1.1" xmlns="http://www.w3.org/2000/svg" xmlns:xlink="http://www.w3.org/1999/xlink" width="58.73323" height="116.56717" viewBox="0,0,58.73323,116.56717"><g transform="translate(-210.785,-121.082)"><g data-paper-data="{&quot;isPaintingLayer&quot;:true}" fill-rule="evenodd" stroke="none" stroke-width="1" stroke-linecap="butt" stroke-linejoin="miter" stroke-miterlimit="10" stroke-dasharray="" stroke-dashoffset="0" style="mix-blend-mode: normal"><path d="M235.915,231.723l-0.514,-19.238c0,0 4.328,-4.752 6.313,-5.303c1.427,-0.402 5.854,0.911 5.854,0.911l-1.96,23.63h-0.005c1.815,1.129 3.133,3.42 1.577,5.287c-1.174,1.317 -2.906,0.279 -4.22,-0.277c-1.452,-0.69 -3.11,-1.178 -4.426,-2.077c-0.851,-0.596 -1.847,-1.242 -2.422,-2.128c-0.178,-0.272 -0.261,-0.55 -0.197,-0.805M224.908,231.723h-0.004l-1.961,-23.63c0,0 4.365,-1.33 5.773,-0.941c2.01,0.549 6.394,5.333 6.394,5.333l-0.514,19.238c0.062,0.262 -0.022,0.533 -0.197,0.805c-0.577,0.886 -1.575,1.532 -2.424,2.128c-1.314,0.9 -2.974,1.386 -4.43,2.077c-1.313,0.556 -3.038,1.594 -4.216,0.277c-1.556,-1.867 -0.238,-4.167 1.579,-5.287M211.689,198.848c0.107,-1.002 0.441,-1.896 0.92,-2.585l-0.01,0.064c0,0 1.417,-14.224 5.113,-18.953c1.693,-2.167 7.543,-5.31 8.225,-5.67c1.292,-0.938 4.202,-1.36 6.015,-1.528c-0.305,-0.671 -0.489,-1.398 -0.489,-1.926h7.65c0,0.528 -0.178,1.244 -0.48,1.91c1.779,0.173 4.367,0.759 6.06,1.527c0.75,0.337 2.32,0.832 3.09,1.107c2.334,0.813 8.602,3.087 8.602,3.087l5.543,-6.518c-0.09566,-0.27247 -0.16531,-0.55339 -0.208,-0.839c-0.355,-0.648 -0.65,-1.46 -0.825,-2.364c-0.458,-2.366 0.054,-4.456 1.147,-4.668c0.585,-0.116 1.215,0.332 1.748,1.135c1.175,-1.133 2.625,-1.605 3.84,-1.092c1.854,0.789 2.443,3.589 1.316,6.258c-0.726,1.712 -1.982,2.952 -3.279,3.413h0.003c0,0 -3.46,9.83 -6.468,10.925c-2.438,0.884 -11.34,-2.695 -11.34,-2.695v-0.015c1.672,10.213 -0.075,25.801 -0.075,25.801h-25.062c0,0 -1.5,-14.151 -0.157,-24.327v0.009c-0.197,0.538 -1.277,1.497 -2.14,2.714c-1.713,2.428 -3.322,12.703 -3.322,12.703c0.043,0.069 0.077,0.142 0.114,0.214c0.437,0.427 0.859,0.998 1.212,1.667c0.933,1.758 1.029,3.532 0.217,3.961c-0.433,0.23 -1.04,0.03 -1.65,-0.478c-0.658,1.177 -1.69,1.9 -2.769,1.785c-1.656,-0.174 -2.79,-2.245 -2.541,-4.622" data-paper-data="{&quot;origPos&quot;:null}" fill="#9e703f"/><path d="M232.282,170.784c-0.428,-0.66 -0.733,-1.571 -0.803,-2.23c2.52349,0.41173 5.09783,0.40159 7.618,-0.03l-0.015,0.015l-6.8,2.244" fill="#eeac6c"/><path d="M248.05,180.696c1.558,6.672 -0.045,26.824 -0.482,27.4c-4.973,-0.076 -12.167,4.389 -12.167,4.389h-0.291c0,0 -6.986,-4.592 -12.168,-4.39c-0.435,-0.573 -1.864,-19.676 -0.512,-26.046c0,0 4.507,-5.12 7.2,-11.57c0.791,-0.2 1.545,-0.221 1.545,-0.221c0,0 1.297,2.716 4.226,2.716c2.88,0 4.153,-2.705 4.153,-2.705c0,0 0.945,0.094 1.695,0.326c0.613,4.256 6.801,10.1 6.801,10.1" fill="#333433"/><path d="M212.75,149.176c-0.17362,-1.15186 -0.26054,-2.31513 -0.26,-3.48c0,-12.787 10.355,-23.15 23.122,-23.15c12.77,0 23.126,10.363 23.126,23.15c0,1.126 -0.086,2.235 -0.24,3.321c1.335,0.732 2.235,2.111 2.235,3.697c0,2.347 -1.976,4.25 -4.415,4.25c-0.167,0 -0.328,-0.009 -0.49,-0.026c-3.95,7.104 -11.518,11.907 -20.216,11.907c-8.685,0 -16.25,-4.795 -20.205,-11.885c-0.06797,0.00241 -0.13598,0.00374 -0.204,0.004c-2.443,0 -4.418,-1.903 -4.418,-4.25c0,-1.476 0.78,-2.777 1.965,-3.538" data-paper-data="{&quot;origPos&quot;:null}" fill="#9e703f"/><path d="M231.311,145.65c0,0 -0.503,1.803 -2.082,1.446c-0.772,-0.174 -0.908,-1.201 -3.386,-0.74c-0.779,0.18 -2.417,1.156 -2.732,1.808c-0.316,0.652 -0.088,-2.392 2.457,-3.522c1.835,-0.675 2.457,-0.642 3.977,-0.642c1.52,0 1.987,0.907 1.766,1.65M241.052,145.65c0,0 0.503,1.803 2.082,1.446c0.772,-0.174 0.908,-1.201 3.386,-0.74c0.779,0.18 2.417,1.156 2.732,1.808c0.316,0.652 0.087,-2.392 -2.457,-3.522c-1.835,-0.675 -2.457,-0.642 -3.977,-0.642c-1.52,0 -1.987,0.907 -1.766,1.65" data-paper-data="{&quot;origPos&quot;:null}" fill="#3a290f"/><path d="M236.02,156.069c-1.125,0.153 -3.02,1.834 -3.02,1.834c0,0 0.207,-1.009 0.503,-1.299c0.8,-1.156 2.487,-1.604 2.487,-1.604c0,0 2.173,0.703 2.65,1.588c0.443,0.824 0.34,1.238 0.34,1.238c0,0 -2.121,-1.871 -2.96,-1.756z" fill="#eeac6c"/><path d="M229.2,159.696c0,0 6.897,3.208 13.172,-0.397c0,0 -1.39,5.47 -5.95,5.561c-4.115,0.122 -4.984,-1.492 -5.477,-1.956c-0.492,-0.463 -1.42,-1.772 -1.745,-3.208" fill="#eeac6c"/><path d="M244.403,150.812c0,-1.435 0.861,-2.598 1.918,-2.598c1.06,0 1.92,1.163 1.92,2.598c0,1.435 -0.86,2.598 -1.92,2.598c-1.057,0 -1.918,-1.163 -1.918,-2.598M223.793,150.812c0,-1.435 0.857,-2.598 1.92,-2.598c1.056,0 1.913,1.163 1.913,2.598c0,1.435 -0.857,2.598 -1.913,2.598c-1.063,0 -1.92,-1.163 -1.92,-2.598" fill="#ffffff"/><path d="M245.133,151.529c0,-0.889 0.534,-1.609 1.187,-1.609c0.658,0 1.188,0.721 1.188,1.608c0,0.889 -0.53,1.61 -1.188,1.61c-0.653,0 -1.187,-0.721 -1.187,-1.609M224.522,151.529c0,-0.889 0.53,-1.609 1.19,-1.609c0.654,0 1.185,0.721 1.185,1.608c0,0.889 -0.531,1.61 -1.184,1.61c-0.66,0 -1.19,-0.721 -1.19,-1.609" fill="#2aa73f"/><path d="M259.551,142.907c0.035,2.706 -1.167,6.467 -1.167,6.467c0,0 -6.108,-7.239 -9.834,-9.273c-4.554,-2.48 -6.825,1.176 -10.896,-2.04c-0.673,-0.535 -1.933,-1.948 -1.933,-1.948c0,0 -1.528,1.551 -1.937,1.948c-4.578,4.484 -8.008,-0.749 -11.863,1.958c-4.903,3.45 -9.05,9.192 -9.05,9.192c0,0 -1.422,-1.633 -1.221,-6.557c0.051,-1.42 0.741,-4.565 1.858,-7.762c4.048,-8.135 12.435,-13.725 22.131,-13.725c11.135,0 20.548,7.374 23.636,17.507c0.15846,1.40588 0.25056,2.81845 0.276,4.233" fill="#ad6920"/><path d="M259.604,146.203c-23.852,-4.529 -23.852,-4.529 -47.782,-0.007c-0.233,-1.192 -0.368,-2.368 -0.326,-3.434c0.058,-1.431 0.75,-4.607 1.88,-7.833c4.084,-8.211 12.551,-13.847 22.333,-13.847c11.235,0 20.734,7.44 23.852,17.665c0.16173,1.41864 0.25384,2.84435 0.276,4.272c0.013,0.822 -0.068,1.935 -0.233,3.184" fill="#333433"/><path d="M218.983,150.024l-0.13,0.425c0,0 -6.544,-5.958 -7.253,-8.698c-0.005,-0.868 0.37,-1.954 0.37,-1.954c0.842,3.313 7.014,10.227 7.014,10.227z" fill="#eeeeed"/><path d="M218.983,150.024l-0.13,0.425c0,0 -4.847,-3.338 -6.632,-3.463c0,0 -0.444,-0.448 -0.489,-1.268c2.887,-0.049 7.252,4.306 7.252,4.306z" fill="#eeeeed"/><path d="M230.803,151.206c0,1.59 -2.824,2.88 -6.309,2.88c-3.486,0 -6.31,-1.887 -6.31,-3.476c0,-1.592 2.824,-2.285 6.31,-2.285c3.485,0 6.309,1.291 6.309,2.881" fill="#5c5c5c"/><path d="M229.926,151.512c0,1.309 -2.04,2.373 -4.56,2.373c-2.516,0 -4.558,-1.064 -4.558,-2.373c0,-1.31 2.042,-2.373 4.558,-2.373c2.52,0 4.56,1.062 4.56,2.373" fill="#333433"/><path d="M252.485,150.024c0,0 6.334,-6.964 7.176,-10.279c0,0 0.15,1.208 0.14,2.075c-0.706,2.742 -7.183,8.63 -7.183,8.63z" fill="#eeeeed"/><path d="M252.485,150.024c0,0 4.292,-4.355 7.183,-4.306c0,0.895 -0.47,1.273 -0.47,1.273c-1.785,0.126 -6.58,3.458 -6.58,3.458z" fill="#eeeeed"/><path d="M240.668,151.206c0,-1.59 2.822,-2.881 6.31,-2.881c3.482,0 6.309,0.693 6.309,2.285c0,1.589 -2.827,3.476 -6.309,3.476c-3.488,0 -6.31,-1.29 -6.31,-2.88" fill="#5c5c5c"/><path d="M241.542,151.512c0,-1.311 2.045,-2.373 4.562,-2.373c2.518,0 4.558,1.063 4.558,2.373c0,1.309 -2.04,2.373 -4.558,2.373c-2.518,0 -4.562,-1.064 -4.562,-2.373" fill="#333433"/><path d="M231.175,151.395c0,0.33 -0.28,0.6 -0.625,0.6c-0.33781,0.00614 -0.61689,-0.26221 -0.624,-0.6c0.00288,-0.16232 0.07036,-0.3168 0.18747,-0.42922c0.11712,-0.11243 0.27422,-0.17353 0.43653,-0.16978c0.345,0 0.625,0.266 0.625,0.599M241.57,151.395c0,0.33 -0.283,0.6 -0.624,0.6c-0.33781,0.00614 -0.61689,-0.26221 -0.624,-0.6c0.00288,-0.16232 0.07036,-0.3168 0.18747,-0.42922c0.11712,-0.11243 0.27422,-0.17353 0.43653,-0.16978c0.34,0 0.623,0.266 0.623,0.599" fill="#eeeeed"/><path d="M240.98,151.508c0,0 -5.46,-0.434 -10.4,0v-0.462c5.17,-0.753 10.4,0 10.4,0z" fill="#eeeeed"/></g></g></svg>