<svg version="1.1" xmlns="http://www.w3.org/2000/svg" xmlns:xlink="http://www.w3.org/1999/xlink" width="57.59507" height="119.21549" viewBox="0,0,57.59507,119.21549"><g transform="translate(-211.438,-120.27)"><g data-paper-data="{&quot;isPaintingLayer&quot;:true}" fill-rule="evenodd" stroke="none" stroke-width="1" stroke-linecap="butt" stroke-linejoin="miter" stroke-miterlimit="10" stroke-dasharray="" stroke-dashoffset="0" style="mix-blend-mode: normal"><path d="M247.206,233.871h-8.904c-0.057,0.25 0.021,0.558 0.18,0.815c0.531,0.826 1.448,1.487 2.228,2.045c1.21,0.842 2.735,1.277 4.07,1.923c1.209,0.515 2.8,1.456 3.881,0.226c1.429,-1.745 0.217,-3.96 -1.455,-5.01zM228.183,233.871h8.904c0.06,0.25 -0.018,0.558 -0.18,0.815c-0.528,0.826 -1.445,1.487 -2.225,2.045c-1.21,0.842 -2.738,1.277 -4.07,1.923c-1.209,0.515 -2.802,1.456 -3.881,0.226c-1.431,-1.745 -0.219,-3.96 1.452,-5.01z" fill="#2c2c2d"/><path d="M247.207,233.872h-8.906l-0.005,-6.796h9.186z" fill="#eeeeed"/><path d="M238.3,229.128l-0.002,-1.604h9.167l-0.065,1.604z" fill="#dfaa22"/><path d="M238.3,230.359v-1.232h9.101l-0.052,1.233z" fill="#2356a3"/><path d="M237.088,233.872h-8.904l-0.274,-6.796h9.178z" fill="#eeeeed"/><path d="M228.04,230.359l-0.047,-1.232h9.097v1.233z" fill="#2356a3"/><path d="M227.993,229.128l-0.065,-1.604h9.162v1.604z" fill="#dfaa22"/><path d="M234.54,209.163h14.49c0,0 2.27,15.284 -1.018,18.439c-1.857,1.79 -10.231,-0.003 -10.231,-0.003l-0.139,-11.595h-0.263l-0.136,11.598c0,0 -8.366,1.782 -10.226,-0.003c-3.288,-3.158 -1.023,-18.436 -1.023,-18.436z" fill="#2c2c2d"/><path d="M225.894,209.893c0,0 1.264,10.042 0.525,17.51c-0.039,0.398 -1.235,-0.287 -1.455,-0.619c-0.136,-0.212 0,-1.017 0,-1.017c0,0 -1.257,-0.268 -1.317,-0.635c-0.665,-4.012 0.91,-15.222 0.91,-15.222z" fill="#dfaa22"/><path d="M224.906,225.766l-0.089,-9.297l0.21,9.295z" fill="#8e6713"/><path d="M267.297,168.418c1.706,0.733 2.246,3.349 1.209,5.84c-0.666,1.598 -1.817,2.757 -3.011,3.187h0.003c0,0 -3.182,9.175 -5.95,10.197c-2.241,0.826 -10.139,-2.437 -10.139,-2.437c0,0 -0.638,-2.494 -0.97,-3.283c-0.451,-1.081 -2.29,-4.045 -2.29,-4.045l10.81,3.934l5.096,-6.085c-0.086,-0.247 -0.146,-0.507 -0.191,-0.783c-0.327,-0.606 -0.595,-1.365 -0.757,-2.21c-0.423,-2.21 0.047,-4.158 1.053,-4.36c0.538,-0.107 1.117,0.316 1.606,1.062c1.084,-1.057 2.416,-1.497 3.531,-1.017" data-paper-data="{&quot;origPos&quot;:null}" fill="#fcdb97"/><path d="M221.409,183.203c1.653,-2.148 7.621,-5.328 7.621,-5.328c0,0 -2.771,5.136 -3.277,7.412c-0.063,0.292 -0.222,1.068 -0.369,1.472c-0.18,0.501 -0.689,1.141 -1.478,2.276c-1.575,2.27 -3.053,11.86 -3.053,11.86c0.036,0.064 0.068,0.13 0.102,0.196c0.44803,0.4599 0.82456,0.9844 1.117,1.556c0.854,1.642 0.943,3.296 0.199,3.7c-0.4,0.215 -0.959,0.029 -1.52,-0.446c-0.604,1.099 -1.554,1.774 -2.547,1.668c-1.52,-0.168 -2.565,-2.096 -2.335,-4.316c0.099,-0.937 0.408,-1.771 0.844,-2.414l-0.005,0.058c0,0 1.301,-13.278 4.701,-17.694" data-paper-data="{&quot;origPos&quot;:null}" fill="#fcdb97"/><path d="M221.205,200.587h-4.607c0,0 1.316,-13.48 4.881,-17.81c1.567,-1.901 5.859,-4.445 6.64,-4.886c1.948,-1.275 7.786,-1.469 7.786,-1.469l1.627,0.05h0.136l1.627,-0.05c0,0 5.86,0.21 7.794,1.495l9.867,3.87l5.018,-6.098l4.474,2.268c0,0 -4.84,9.003 -6.854,9.744c-2.144,0.791 -8.582,-1.798 -9.128,-2.05c2.167,9.531 1.875,23.577 1.875,23.577l-29.483,-0.003c0,0 -0.185,-11.238 1.35,-20.523c-0.07,0.11 -0.146,0.22 -0.23,0.338c-1.159,1.667 -2.773,11.547 -2.773,11.547" fill="#eeeeed"/><path d="M248.792,178.584c0.073,0.947 0.499,5.63 1.674,7.067c2.168,9.531 1.901,23.577 1.901,23.577v0.898l-12.61,0.924l-1.82,-1.788l-1.815,1.788l-13.279,-0.925v-0.9c0,0 -0.172,-11.236 1.366,-20.52c1.021,-2.09 1.397,-7.803 1.483,-9.317c1.124,-0.74 2.093,-1.306 2.427,-1.495c1.946,-1.274 7.786,-1.463 7.786,-1.463l1.627,0.056h0.136l1.627,-0.056c0,0 5.861,0.204 7.794,1.487z" fill="#2356a3"/><path d="M252.366,209.197v0.929l-12.608,0.922l-1.82,-1.787l-1.818,1.787l-13.279,-0.922v-0.943l13.279,0.895l1.395,-1.413v-28.605h0.786v28.537l1.457,1.482zM225.691,179.388l0.74,-0.476c-0.118,7.444 -1.21,10.358 -2.416,11.042c0.054,-0.355 0.136,-0.9 0.196,-1.25c1.018,-2.088 1.397,-7.803 1.48,-9.316M250.466,185.651c0.07053,0.31278 0.13853,0.62612 0.204,0.94l0.031,0.159c-1.69,-0.873 -2.458,-2.496 -2.873,-8.535c0.003,-0.003 0.005,-0.005 0.005,-0.008l0.959,0.377c0.073,0.948 0.499,5.63 1.674,7.066" fill="#f6b90c"/><path d="M241.24,197.485l-3.257,-3.262l-3.254,3.262l3.254,3.317zM237.983,201.118l-3.246,3.452l3.246,3.394l3.247,-3.394zM237.983,193.801l3.38,-3.311l-3.38,-3.203l-3.38,3.203zM237.983,186.87l3.228,-3.152l-3.228,-2.922l-3.228,2.922zM241.843,197.482l-3.416,3.481l3.393,3.61l-3.644,3.808l-0.193,-0.191l-0.191,0.191l-3.646,-3.808l3.396,-3.609l-3.417,-3.482l3.466,-3.468l-3.601,-3.53l3.596,-3.407l-3.458,-3.37l3.704,-3.352l0.151,0.17l0.154,-0.17l3.704,3.352l-3.459,3.37l3.6,3.407l-3.602,3.53z" fill="#f6b90c"/><path d="M237.973,180.516c-4.55,0 -4.55,-3.925 -4.55,-3.925c1.403,-0.17 2.46,-0.154 2.46,-0.154l2.025,0.111h0.167l2.019,-0.074c0,0 0.966,0.034 2.27,0.172c0,0 0.041,3.87 -4.391,3.87" fill="#f6b90c"/><path d="M218.302,190.584c0.13936,-0.57869 0.29173,-1.15417 0.457,-1.726l4.796,1.08c-0.173,0.47 -0.35,1.055 -0.525,1.71l-4.728,-1.064M256.501,181.608l-1.259,5.691c-0.578,-0.157 -1.153,-0.33 -1.693,-0.508l1.293,-5.831l1.658,0.648z" fill="#2da9e0"/><path d="M258.773,157.115c1.084,0.712 1.797,1.917 1.797,3.285c0,2.186 -1.807,3.952 -4.035,3.952c-0.065,0 -0.131,-0.003 -0.193,-0.003c-3.612,6.583 -10.536,11.037 -18.479,11.037c-7.953,0 -14.877,-4.462 -18.489,-11.058c-0.149,0.016 -0.296,0.024 -0.447,0.024c-2.231,0 -4.041,-1.766 -4.041,-3.952c0,-1.469 0.826,-2.751 2.043,-3.434c-0.14226,-1.02153 -0.21443,-2.05161 -0.216,-3.083c0,-11.873 9.47,-21.503 21.15,-21.503c11.68,0 21.148,9.629 21.148,21.503c0,1.099 -0.081,2.18 -0.238,3.232" data-paper-data="{&quot;origPos&quot;:null}" fill="#fcdb97"/><path d="M233.563,151.78c0,0 -0.457,1.65 -1.89,1.323c-0.701,-0.16 -0.824,-1.1 -3.074,-0.678c-0.707,0.165 -2.194,1.058 -2.48,1.654c-0.287,0.597 -0.08,-2.187 2.23,-3.222c1.666,-0.617 2.23,-0.586 3.61,-0.586c1.38,0 1.805,0.83 1.604,1.509M243.146,151.78c0,0 0.457,1.65 1.89,1.323c0.701,-0.16 0.825,-1.1 3.074,-0.678c0.707,0.165 2.194,1.058 2.48,1.654c0.287,0.597 0.08,-2.187 -2.23,-3.222c-1.666,-0.617 -2.23,-0.586 -3.61,-0.586c-1.38,0 -1.804,0.83 -1.604,1.509M231.712,159.027c0,1.612 -0.85,2.919 -1.898,2.919c-1.048,0 -1.898,-1.307 -1.898,-2.919c0,-1.612 0.85,-2.919 1.898,-2.919c1.048,0 1.898,1.307 1.898,2.919M248.793,159.027c0,1.612 -0.85,2.919 -1.898,2.919c-1.048,0 -1.898,-1.307 -1.898,-2.919c0,-1.612 0.85,-2.919 1.898,-2.919c1.049,0 1.898,1.307 1.898,2.919" fill="#2c2c2d"/><path d="M235.508,161.946c0,0 0.196,-1.014 0.478,-1.306c0.76,-1.163 2.364,-1.613 2.364,-1.613c0,0 2.065,0.707 2.518,1.597c0.421,0.828 0.324,1.245 0.324,1.245c0,0 -2.017,-1.881 -2.814,-1.767c-1.07,0.154 -2.87,1.844 -2.87,1.844z" fill="#683918"/><path d="M231.902,164.569c0,0 6.544,3.123 12.5,-0.386c0,0 -1.32,5.321 -5.646,5.41c-3.905,0.12 -4.73,-1.451 -5.197,-1.902c-0.468,-0.45 -1.349,-1.724 -1.658,-3.122" fill="#683918"/><path d="M259.85,151.08c0.034,2.526 -0.833,7.991 -2.528,11.247c0,0 -4.159,-11.967 -7.586,-13.863c-4.189,-2.316 -15.226,1.019 -18.97,-1.981c-0.62,-0.499 -0.55,-1.628 -0.55,-1.628c0,0 -0.716,1.44 -1.063,1.84c-1.81,2.098 -6.514,5.137 -8.747,6.765c-1.792,1.317 -1.876,1.298 -1.479,8.867c0,0 -3.301,-6.883 -3.118,-11.483c0.052,-1.326 0.684,-4.26 1.713,-7.248c3.722,-7.595 11.434,-12.813 20.344,-12.813c10.238,0 18.889,6.883 21.73,16.348c0.14703,1.31158 0.23179,2.62939 0.254,3.949" fill="#2c2c2d"/><path d="M237.957,179.686c-3.661,0 -3.661,-3.155 -3.661,-3.155c1.128,-0.14 1.977,-0.128 1.977,-0.128l1.63,0.09h0.135l1.628,-0.06c0,0 0.773,0.029 1.825,0.138c0,0 0.032,3.115 -3.534,3.115" data-paper-data="{&quot;origPos&quot;:null}" fill="#fcdb97"/><path d="M236.215,177.852c-0.987,0 -1.788,-2.156 -1.788,-3.144h7.03c0,0.988 -0.799,3.144 -1.786,3.144h-3.456" data-paper-data="{&quot;origPos&quot;:null}" fill="#fcdb97"/><path d="M235.249,177.167c-0.397,-0.613 -0.742,-1.447 -0.807,-2.06c2.32017,0.38164 4.68784,0.37251 7.005,-0.027l-0.016,0.013l-6.182,2.074" fill="#683918"/><path d="M211.438,135.703c0,-1.45 19.647,-2.873 26.25,-2.942c7.005,-0.075 27.795,2.531 27.795,3.654c0,1.121 -14.388,8.902 -28.098,8.902c-13.822,0 -25.947,-7.2 -25.947,-9.614" fill="#f9d6b3"/><path d="M246.635,122.026c0,1.142 -4.213,4.1 -9.413,4.1c-5.2,0 -9.416,-2.958 -9.416,-4.1c0,-1.14 4.215,-1.756 9.416,-1.756c5.2,0 9.413,0.616 9.413,1.756" fill="#e1b38d"/><path d="M249.326,137.685c-2.962,3.726 -20.853,3.402 -24.189,0.016l2.67,-15.704c1.436,0.678 2.917,0.927 4.134,1.6c5.206,2.878 5.206,2.878 9.933,0.19c1.384,-0.788 3.119,-0.998 4.785,-1.79z" fill="#f9d6b3"/><path d="M249.326,137.685c-2.962,3.726 -20.853,3.402 -24.188,0.016l0.72,-4.239c11.362,2.619 11.362,2.619 22.752,0l0.716,4.223" fill="#2356a3"/></g></g></svg>