<svg xmlns="http://www.w3.org/2000/svg" width="53.021" height="108"><g fill-rule="evenodd" stroke-miterlimit="10" data-paper-data="{&quot;isPaintingLayer&quot;:true}" style="mix-blend-mode:normal"><path d="M51.858 35.152a10.38 10.38 0 0 1 1.099 3.607c.961 8.601-8.931 18.984-22.396 20.488l-3.904.436C13.193 61.186 1.253 53.243.293 44.641c-.143-1.269 1.009-8.688.727-11.18l-.005-.046L.543 29.2C-1.08 14.656 8.518 1.65 21.983.142 35.448-1.36 47.68 9.21 49.305 23.752l.471 4.216.005.045c.274 2.493.943 4.93 2.077 7.137"/><path fill="#fcb212" d="M48.304 108H0V75.023C0 61.46 10.489 50.464 23.428 50.464h.606c13.457 0 24.27 11.335 24.27 25.318z"/><path fill="#fff" d="M19.921 57.351h8.307v11.815l-4.076 4.46-4.232-4.46z"/><path fill="#fcb212" d="M30.765 62.314c.394 2.98-.107 6.385-1.083 7.368l-5.53 4.28 5.509-21.258z"/><path fill="#fcb212" d="m18.643 52.704 5.51 21.258-5.53-4.28c-.977-.983-1.478-4.388-1.083-7.368z"/><path fill="#fff" d="M24.152 60.327a7.595 7.595 0 1 1 0-15.19 7.595 7.595 0 0 1 0 15.19"/><path fill="#9c733e" d="M24.141 56.781a5.064 5.064 0 0 1-5.055-4.846l-.391-9.115a5.063 5.063 0 0 1 4.842-5.276c2.794-.129 5.156 2.048 5.276 4.842l.391 9.115a5.063 5.063 0 0 1-5.063 5.28" data-paper-data="{&quot;origPos&quot;:null}"/><path fill="#fff" d="M30.765 53.486a1.75 1.75 0 0 1-1.083 2.34l-5.53 1.36 5.509-6.752z"/><path fill="#fff" d="m18.643 50.434 5.51 6.752-5.53-1.36a1.75 1.75 0 0 1-1.083-2.34z"/><path fill="#9c733e" d="M22.792 5.282c10.554 0 19.11 9.068 19.11 20.253v3.243c0 11.186-8.556 20.254-19.11 20.254s-19.11-9.068-19.11-20.254v-3.243c0-11.185 8.556-20.253 19.11-20.253" data-paper-data="{&quot;origPos&quot;:null}"/><path d="M13.866 25.69c0 1.61-1.156 2.914-2.582 2.914S8.7 27.3 8.7 25.69c0-1.609 1.157-2.913 2.583-2.913 1.426 0 2.582 1.304 2.582 2.913m17.275 0c0 1.61-1.156 2.914-2.582 2.914-1.427 0-2.583-1.304-2.583-2.913 0-1.609 1.156-2.913 2.583-2.913 1.426 0 2.582 1.304 2.582 2.913"/><path fill="#fe937a" d="M13.315 34.091a4.05 4.05 0 1 1-8.101 0 4.05 4.05 0 0 1 8.101 0m21.327 0a4.05 4.05 0 1 1-8.101 0 4.05 4.05 0 0 1 8.101 0"/><path fill="#40220f" d="M23.306 35.01c.467 0 .846.452.846 1.012 0 2.792-1.898 5.064-4.231 5.064-2.334 0-4.232-2.272-4.232-5.064 0-.559.379-1.012.847-1.012h6.77"/><path d="M39.673 7.01c5.008 4.462 8.164 10.96 8.164 18.196v1.27h-8.164V7.01"/><path fill="#9c733e" d="M47.139 29.44a5.57 5.57 0 0 1-5.57 5.57h-1.093a5.57 5.57 0 1 1 0-11.14h1.093a5.57 5.57 0 0 1 5.57 5.57" data-paper-data="{&quot;origPos&quot;:null}"/><path fill="#855c26" d="M45.04 29.44a2.737 2.737 0 0 1-2.736 2.736h-.536a2.737 2.737 0 0 1 0-5.473h.536a2.737 2.737 0 0 1 2.737 2.736" data-paper-data="{&quot;origPos&quot;:null}"/><path fill="none" stroke="#855c26" stroke-linecap="round" stroke-linejoin="round" stroke-width="1.758" d="m19.92 32.246-1.47-1.364a1.692 1.692 0 0 1-.354-2.015l1.124-2.183c.366-.71.528-1.508.468-2.305l-.03-.408" data-paper-data="{&quot;origPos&quot;:null}"/><path d="M1.989 20.467C4.121 10.822 11.454 3.303 20.93 2.213c4.219-.485 8.313.367 11.935 2.247-1.629 7.467-7.292 13.294-14.62 14.137z"/><path d="M29.27.73a25.63 25.63 0 0 1 12.251 7.697 15.173 15.173 0 0 1 1.353 6.246c0 3.367-1.119 6.515-3.063 9.197-6.159-1.959-10.539-6.948-10.539-12.796V.73"/><path fill="#ff6d02" d="M19.921 41.086c-.824 0-1.593-.284-2.244-.773a4.049 4.049 0 0 1 6.292-2.818c-.529 2.076-2.143 3.591-4.049 3.591"/></g></svg>