<svg version="1.1" xmlns="http://www.w3.org/2000/svg" xmlns:xlink="http://www.w3.org/1999/xlink" width="74.63704" height="118.46944" viewBox="0,0,74.63704,118.46944"><g transform="translate(-202.41096,-121.35732)"><g data-paper-data="{&quot;isPaintingLayer&quot;:true}" fill-rule="evenodd" stroke="none" stroke-width="1" stroke-linecap="butt" stroke-linejoin="miter" stroke-miterlimit="10" stroke-dasharray="" stroke-dashoffset="0" style="mix-blend-mode: normal"><path d="M228.17,222.79l0.522,0.932l-21.625,11.914c0,0 -2.385,0.288 -2.28,0.04z" fill="#785c44"/><path d="M205.449,223.688l0.522,-0.93l23.28,12.912c0.068,0.254 -2.216,0 -2.216,0z" fill="#785c44"/><path d="M216.889,229.667c-0.175,-0.114 -0.278,-0.28 -0.22,-0.376c0.065,-0.088 0.262,-0.068 0.44,0.046c0.175,0.12 0.265,0.288 0.215,0.38c-0.063,0.094 -0.26,0.07 -0.436,-0.05" fill="#68503a"/><path d="M202.625,222.812c0,0 -0.17,-1.396 0.05,-1.674c1.741,-2.204 9.402,0.61 9.402,0.61l-0.064,1.68l-9.388,-0.616" fill="#343434"/><path d="M203.428,221.747l0.012,-0.07l6.936,0.876l-0.012,0.062z" fill="#ffffff"/><path d="M204.129,221.116c-0.511,-0.876 -0.004,-4.514 -0.004,-4.514h0.796v4.514c-0.134,0.198 -0.665,0.22 -0.792,0" fill="#785c44"/><path d="M202.625,217.587c-0.3,-0.068 -0.17,-1.392 0.05,-1.676c1.741,-2.2 9.402,0.612 9.402,0.612l-0.064,1.222c0,0 -7.496,0.28 -9.388,-0.158" fill="#785c44"/><path d="M227.697,222.812c0,0 -0.238,-1.396 0.068,-1.674c2.452,-2.204 13.257,0.61 13.257,0.61l-0.084,1.68l-13.241,-0.616" fill="#474747"/><path d="M229.814,221.116c-0.717,-0.876 0,-4.514 0,-4.514h1.106v4.514c-0.188,0.198 -0.934,0.22 -1.106,0" fill="#785c44"/><path d="M227.697,217.587c-0.424,-0.068 -0.238,-1.392 0.068,-1.676c2.452,-2.2 13.257,0.612 13.257,0.612l-0.084,1.222c0,0 -10.571,0.28 -13.241,-0.158" fill="#785c44"/><path d="M206.747,222.15l5.213,0.724c0.134,-0.432 0.527,-0.76 0.993,-0.724c6.75,0.568 20.389,0.47 27.374,0c0.585,-0.036 1.06,0.464 1.06,1.032c0,0.522 -0.404,0.964 -0.927,1.024l0.201,0.004c0,0 -9.28,2.068 -20.322,2.068c-13.78,0 -13.505,-2.85 -17.714,-3.466z" fill="#343434"/><path d="M240.662,198.036c0.208,-0.268 1.122,-0.238 1.37,0v24.632h-1.37zM211.26,198.036c0.213,-0.268 1.125,-0.238 1.37,0v24.632h-1.37z" fill="#8f7355"/><path d="M211.005,199.19h31.29v10.195h-31.29z" fill="#343434"/><path d="M216.31,202.105c0.012,0.002 0.02,0.052 0.025,0.128l-0.004,0.006l0.004,0.034v1.336l-0.004,0.222h0.004c0.17,-0.018 0.275,-0.04 0.334,-0.064c0.04344,-0.00434 0.08559,-0.01726 0.124,-0.038c0.05648,-0.02132 0.11074,-0.04812 0.162,-0.08c0.172,-0.074 0.322,-0.204 0.468,-0.384c0.075,-0.082 0.142,-0.218 0.202,-0.39c0,-0.068 0,-0.116 0.01,-0.142c0,-0.22 -0.05,-0.378 -0.176,-0.464c-0.057,-0.074 -0.176,-0.132 -0.348,-0.172c0,-0.018 -0.122,-0.028 -0.387,-0.056c-0.278,0.014 -0.414,0.034 -0.414,0.064zM216.75,201.229l0.36,0.004l0.35,0.048c0,0.014 0.038,0.03 0.153,0.046c0,0.004 0.03,0.016 0.106,0.038c0,0.006 0.036,0.02 0.113,0.028c0,0.012 0.069,0.046 0.209,0.102c0.002,0.014 0.048,0.04 0.123,0.088c0,0.016 0.012,0.028 0.051,0.034c0,0.014 0.018,0.034 0.077,0.068c0.144,0.172 0.219,0.308 0.24,0.402c0.015,0.01 0.036,0.08 0.058,0.214l0.008,0.212c0,0.118 -0.014,0.246 -0.043,0.376c-0.05979,0.18695 -0.14277,0.36568 -0.247,0.532c-0.032,0.06086 -0.06984,0.11847 -0.113,0.172c0,0.026 -0.128,0.164 -0.377,0.404c-0.08,0.084 -0.174,0.15 -0.264,0.212c0,0.014 -0.042,0.042 -0.12,0.076c0,0.012 -0.015,0.028 -0.06,0.034c0,0.01 -0.047,0.048 -0.154,0.098c-0.038,0.012 -0.063,0.022 -0.063,0.038c-0.02,0 -0.046,0.014 -0.103,0.038l-0.195,0.078c-0.06098,0.02419 -0.12485,0.04032 -0.19,0.048c0,0.016 -0.071,0.036 -0.209,0.048c0,0.016 -0.026,0.022 -0.105,0.022h-0.576c-0.194,-0.006 -0.287,-0.034 -0.287,-0.07c0.012,-0.236 0.026,-0.436 0.026,-0.59v-0.834l-0.014,-0.952l-0.012,-0.004l-0.32,0.082l-0.134,0.034c0,0.016 -0.004,0.02 -0.03,0.03l-0.031,-0.03c0.02,-0.112 0.03,-0.188 0.03,-0.248v-0.13l-0.034,-0.394c0.049,-0.042 0.089,-0.056 0.128,-0.056c0,-0.01 0.038,-0.032 0.113,-0.048c0,-0.006 0.034,-0.016 0.107,-0.034c0.013,-0.01 0.102,-0.032 0.254,-0.068c0.06135,-0.02694 0.12708,-0.04253 0.194,-0.046c0,-0.012 0.055,-0.028 0.177,-0.028c0.018,-0.022 0.083,-0.036 0.21,-0.036c0.06756,-0.01882 0.13697,-0.03022 0.207,-0.034zM219.88,201.187l0.043,0.026c-0.043,0.556 -0.055,1.02 -0.055,1.39l0.006,0.628c0.022,0.482 0.049,0.794 0.075,0.942c0,0.112 0.022,0.282 0.069,0.522c0,0.022 -0.095,0.028 -0.288,0.042c0,0.004 -0.087,0.02 -0.27,0.024c-0.012,0.026 -0.07,0.028 -0.166,0.028c-0.0584,0.02865 -0.12134,0.04692 -0.186,0.054c0,0.01 -0.008,0.014 -0.03,0.014l-0.027,-0.026v-0.206c0,-0.258 0.014,-0.408 0.018,-0.456l-0.004,-0.028l0.004,-0.464l-0.018,-1.336l-0.026,-0.388h0.014l-0.014,-0.01c0,-0.298 -0.016,-0.476 -0.03,-0.544c0.04522,-0.0242 0.09427,-0.04044 0.145,-0.048c0.223,-0.062 0.381,-0.088 0.462,-0.102c0.025,-0.016 0.108,-0.024 0.254,-0.042zM221.475,201.985v0.22c0,0.126 0.014,0.252 0.037,0.384l-0.009,0.026l0.013,0.086l-0.004,0.032l0.018,0.018h0.008l0.158,-0.04c0.05704,-0.00018 0.11348,-0.01174 0.166,-0.034c0.014,0 0.108,-0.03 0.251,-0.078c0.15,-0.062 0.268,-0.142 0.347,-0.214c0.063,-0.07 0.087,-0.132 0.087,-0.19l0.01,-0.028v-0.058c-0.02165,-0.05595 -0.06052,-0.10358 -0.111,-0.136c-0.037,-0.03 -0.138,-0.054 -0.322,-0.074c-0.367,0.028 -0.566,0.054 -0.566,0.074c-0.042,0 -0.073,0.004 -0.083,0.012zM222.057,201.195c0.25,0 0.447,0.012 0.57,0.046c0.04,0 0.094,0.008 0.177,0.034c0.04512,0.0062 0.0886,0.02114 0.128,0.044c0.06582,0.0137 0.12876,0.03874 0.186,0.074c0.10846,0.05268 0.20508,0.12685 0.284,0.218c0.08,0.104 0.128,0.192 0.128,0.258c0.014,0 0.02,0.058 0.02,0.16c0,0.046 -0.006,0.12 -0.036,0.24c-0.03792,0.12695 -0.10158,0.24473 -0.187,0.346c-0.09025,0.11761 -0.1998,0.21905 -0.324,0.3c-0.08425,0.07044 -0.17952,0.12653 -0.282,0.166c-0.069,0.04 -0.182,0.08 -0.33,0.126v0.016c0.055,0.07 0.193,0.198 0.428,0.412c0.03,0.028 0.099,0.088 0.23,0.188c0.05,0.054 0.191,0.164 0.428,0.332v0.038c-0.04987,0.05075 -0.09078,0.10958 -0.121,0.174l-0.288,0.328l-0.065,0.066h-0.016c-0.258,-0.196 -0.649,-0.544 -1.163,-1.038l-0.252,-0.266l-0.014,0.004v1.126l-0.028,0.032h-0.847l-0.01,-0.026l0.024,-1.136c-0.004,-0.43 -0.014,-0.698 -0.024,-0.802v-0.37l-0.02,-0.012h-0.017c-0.014,0.026 -0.059,0.042 -0.138,0.058c0,0.006 -0.032,0.016 -0.117,0.032c0,0.012 -0.018,0.022 -0.035,0.022l-0.018,-0.022v-0.09c0,-0.124 -0.018,-0.346 -0.06,-0.674c0.04783,-0.02985 0.10126,-0.04958 0.157,-0.058c0.04423,-0.02679 0.09306,-0.04511 0.144,-0.054l0.241,-0.082l0.114,-0.034c0,-0.006 0.045,-0.02 0.154,-0.036c0.01,-0.008 0.12,-0.04 0.328,-0.078l0.316,-0.058zM226.236,201.187l0.014,0.02v0.026l-0.036,0.11c-0.04888,0.15894 -0.08138,0.32245 -0.097,0.488l-0.03,0.018h-0.483l-0.723,0.056l-0.005,0.03c0.023,0.144 0.023,0.298 0.023,0.44v0.012c0,0.056 0.012,0.086 0.02,0.086h0.004l0.195,-0.03h0.097l0.474,-0.026c0.069,0.008 0.103,0.022 0.103,0.04v0.016l-0.034,0.13c-0.028,0.098 -0.06,0.258 -0.085,0.494v0.04c0,0.024 -0.014,0.046 -0.03,0.052l-0.098,-0.01h-0.344c-0.177,0 -0.278,0.01 -0.29,0.032l0.008,0.382v0.23c0,0.008 0.004,0.016 0.022,0.016l0.373,-0.026l0.012,0.006c0,-0.012 0.333,-0.02 0.981,-0.02l0.02,0.032l-0.034,0.41c0,0.152 0.01,0.29 0.034,0.394l-0.024,0.01h-0.063l-0.11,-0.008v0.008h-0.013c-0.18505,-0.02358 -0.37146,-0.03494 -0.558,-0.034h-0.218c-0.276,0 -0.513,0.008 -0.702,0.026l-0.004,-0.002h-0.006l-0.431,0.032c-0.04249,0.01715 -0.08826,0.02466 -0.134,0.022h-0.067l-0.02,-0.022c0.03163,-0.17659 0.05266,-0.3549 0.063,-0.534l0.04,-0.878l-0.04,-0.004l-0.154,0.034c-0.029,-0.006 -0.043,-0.012 -0.043,-0.03v-0.086c0.00288,-0.13963 -0.0038,-0.27929 -0.02,-0.418l0.008,-0.006l-0.008,-0.04v-0.05l0.02,-0.024h0.03c0.132,-0.024 0.19,-0.032 0.19,-0.05l-0.054,-0.526l-0.012,-0.014h-0.07l-0.208,0.056l-0.016,-0.05v-0.244l-0.036,-0.404c0.016,-0.034 0.123,-0.056 0.322,-0.064c0.10752,-0.02018 0.21661,-0.03089 0.326,-0.032c0.14636,-0.02838 0.29493,-0.04378 0.444,-0.046l0.17,-0.024h0.12c0.304,-0.034 0.69,-0.046 1.187,-0.046M228.63,201.17c0.08,0 0.116,0.016 0.116,0.054l0.043,0.214v0.016h-0.013l0.013,0.148v0.016c-0.013,0.28 -0.025,0.444 -0.067,0.49c-0.07,-0.004 -0.167,-0.012 -0.29,-0.012c-0.17,0 -0.28,0.012 -0.35,0.04c-0.084,0.03 -0.17,0.062 -0.27,0.124c-0.158,0.124 -0.27,0.23 -0.312,0.328c0,0 -0.008,0.026 -0.04,0.082c-0.015,0 -0.015,0.02 -0.015,0.062c-0.026,0 -0.053,0.088 -0.081,0.268v0.162c0.028,0.136 0.055,0.218 0.067,0.248c0.07195,0.15492 0.19475,0.28055 0.348,0.356c0.07941,0.04487 0.16726,0.07279 0.258,0.082c0,0.012 0.032,0.012 0.087,0.012h0.132c0.188,-0.022 0.312,-0.048 0.366,-0.076l0.167,-0.072c0.05638,-0.02924 0.10743,-0.06778 0.151,-0.114h0.01c0.035,0 0.06,0.082 0.074,0.25c0.042,0.218 0.07,0.422 0.08,0.62c-0.05839,0.04217 -0.12323,0.07459 -0.192,0.096c-0.03305,0.02083 -0.06915,0.03635 -0.107,0.046c-0.012,0.016 -0.04,0.024 -0.114,0.026c0,0.018 -0.052,0.03 -0.164,0.052c-0.07657,0.02441 -0.15666,0.0359 -0.237,0.034c0,0.006 -0.055,0.014 -0.138,0.03v-0.012l-0.016,0.012h-0.122c-0.13097,0.00111 -0.26159,-0.01366 -0.389,-0.044c-0.04649,-0.00173 -0.09198,-0.01405 -0.133,-0.036c-0.11343,-0.02838 -0.22268,-0.07141 -0.325,-0.128l-0.143,-0.096c0,-0.016 -0.039,-0.056 -0.12,-0.118c-0.164,-0.19 -0.245,-0.312 -0.245,-0.362c-0.043,-0.048 -0.097,-0.178 -0.15,-0.376l-0.03,-0.284c0,-0.098 0.01,-0.254 0.046,-0.48c0.01,0 0.02,-0.05 0.037,-0.138c0.012,0 0.026,-0.034 0.04,-0.108c0.03445,-0.05424 0.05789,-0.11472 0.069,-0.178c0.012,0 0.028,-0.028 0.057,-0.09c0.083,-0.166 0.19,-0.312 0.328,-0.448c0.205,-0.206 0.336,-0.31 0.375,-0.324c0,-0.014 0.042,-0.04 0.128,-0.076c0,-0.012 0.016,-0.02 0.054,-0.032c0.138,-0.084 0.247,-0.132 0.347,-0.16c0,-0.012 0.028,-0.018 0.08,-0.018c0.021,-0.016 0.128,-0.044 0.299,-0.078z" fill="#eeeeed"/><path d="M231.444,201.178l0.004,0.008l0.08,-0.008h0.17c0.016,0 0.03,0.018 0.03,0.034c-0.04636,0.15752 -0.07882,0.31881 -0.097,0.482c-0.016,0 -0.024,0.082 -0.029,0.234l-0.062,0.066h-0.081l-0.365,0.046c0,0.014 -0.065,0.03 -0.197,0.036c-0.063,0.02 -0.099,0.032 -0.099,0.05l0.01,0.01v0.006c-0.03669,0.11838 -0.05292,0.24216 -0.048,0.366c-0.017,0.066 -0.045,0.354 -0.07,0.846c-0.03,0.412 -0.046,0.848 -0.046,1.304c-0.08188,0.04428 -0.17394,0.06635 -0.267,0.064c-0.07659,0.02302 -0.15603,0.03514 -0.236,0.036c-0.022,0.016 -0.117,0.032 -0.283,0.038c-0.0527,0.01572 -0.10708,0.02512 -0.162,0.028l-0.019,-0.028l0.057,-0.364c0.012,-0.086 0.025,-0.162 0.025,-0.238c0.03162,-0.13903 0.04573,-0.28147 0.042,-0.424c0.03235,-0.1041 0.04556,-0.21319 0.039,-0.322c0.042,-0.414 0.075,-0.708 0.075,-0.874l0.012,-0.202l-0.008,-0.026l0.022,-0.152l-0.004,-0.012h-0.01c0,0.022 -0.087,0.03 -0.25,0.046c-0.022,0.016 -0.085,0.024 -0.208,0.024c-0.07449,0.03425 -0.15506,0.05329 -0.237,0.056l-0.335,0.092h-0.038l-0.01,-0.016v-0.012c0.02,-0.064 0.03,-0.144 0.036,-0.256c0.02147,-0.10142 0.03451,-0.20443 0.039,-0.308c0.024,-0.068 0.028,-0.176 0.028,-0.336c0.032,-0.038 0.114,-0.068 0.255,-0.068c0.11679,-0.02434 0.2357,-0.03706 0.355,-0.038c0,-0.016 0.115,-0.03 0.353,-0.04c0.07,-0.016 0.22,-0.036 0.43,-0.044c0.023,-0.016 0.161,-0.024 0.415,-0.034c0.048,-0.014 0.214,-0.024 0.49,-0.036zM232.689,202.894v0.234c0.022,0.156 0.049,0.26 0.077,0.318c0,0.012 0.03,0.068 0.077,0.154c0.09,0.096 0.158,0.158 0.199,0.18c0.06543,0.03875 0.13996,0.05945 0.216,0.06l0.09,0.008c0.08496,0.00581 0.17013,-0.00787 0.249,-0.04c0.022,0 0.067,-0.028 0.152,-0.092c0.08313,-0.06613 0.1536,-0.14676 0.208,-0.238c0.05227,-0.08306 0.09203,-0.17336 0.118,-0.268c0.034,-0.09 0.065,-0.226 0.091,-0.406v-0.378c-0.02111,-0.11436 -0.0495,-0.22726 -0.085,-0.338h-0.028c-0.05217,0.04441 -0.11678,0.07165 -0.185,0.078c-0.07706,-0.08472 -0.18082,-0.14048 -0.294,-0.158h-0.253c-0.07788,0.0265 -0.15374,0.05858 -0.227,0.096c-0.17,0.14 -0.26,0.242 -0.26,0.3c-0.05024,0.07703 -0.08647,0.16235 -0.107,0.252c-0.024,0.11 -0.038,0.192 -0.038,0.238zM233.491,201.178c0.201,0 0.367,0.03 0.483,0.086c0.0259,0.00053 0.05031,0.01219 0.067,0.032c0.02,0 0.056,0.022 0.12,0.07h0.005l0.203,-0.064l0.117,-0.038c0.014,0 0.039,-0.016 0.091,-0.036l0.114,-0.05c0.069,0.096 0.124,0.26 0.178,0.488c0.057,0.172 0.083,0.308 0.09,0.404c0.024,0 0.032,0.078 0.036,0.244c0.008,0 0.016,0.058 0.018,0.164l-0.002,0.008l0.002,0.04v0.014l-0.03,0.416l-0.045,0.284c-0.012,0 -0.022,0.054 -0.04,0.156c-0.015,0 -0.029,0.032 -0.035,0.112c-0.02,0 -0.034,0.032 -0.034,0.102c-0.014,0 -0.027,0.032 -0.045,0.092l-0.075,0.146c-0.09783,0.16981 -0.21168,0.32987 -0.34,0.478c-0.11489,0.1044 -0.24258,0.19378 -0.38,0.266c-0.0788,0.04612 -0.16361,0.08112 -0.252,0.104c0,0.012 -0.053,0.02 -0.167,0.026c0,0.014 -0.04,0.018 -0.127,0.036v-0.006l-0.053,0.006h-0.095l-0.106,-0.006l-0.026,0.006c-0.07786,-0.03171 -0.16094,-0.04867 -0.245,-0.05c0,-0.01 -0.04,-0.02 -0.136,-0.042c0,-0.012 -0.03,-0.028 -0.101,-0.04c0,-0.016 -0.022,-0.022 -0.065,-0.03c0,-0.01 -0.045,-0.038 -0.136,-0.078c-0.1245,-0.09381 -0.23495,-0.20494 -0.328,-0.33c-0.04355,-0.06597 -0.08136,-0.13556 -0.113,-0.208c-0.009,0 -0.02,-0.032 -0.035,-0.08c0,0 -0.026,-0.052 -0.057,-0.154c-0.024,-0.098 -0.048,-0.172 -0.048,-0.228c-0.023,0 -0.035,-0.152 -0.047,-0.452c0.012,-0.23 0.024,-0.388 0.059,-0.476l0.079,-0.26c0.13124,-0.37061 0.37847,-0.68902 0.705,-0.908c0.14,-0.092 0.278,-0.154 0.415,-0.194l0.138,-0.042zM236.318,201.985l0.01,0.078v0.142c0,0.126 0.012,0.252 0.033,0.384l-0.006,0.026l0.012,0.086l-0.006,0.032l0.018,0.018h0.01l0.158,-0.04c0.05631,-0.00097 0.11194,-0.0125 0.164,-0.034c0.018,0 0.1,-0.03 0.253,-0.078c0.152,-0.062 0.272,-0.142 0.345,-0.214c0.057,-0.07 0.087,-0.132 0.087,-0.19l0.008,-0.028v-0.058c-0.01965,-0.05592 -0.05728,-0.10375 -0.107,-0.136c-0.037,-0.03 -0.142,-0.054 -0.32,-0.074c-0.375,0.028 -0.566,0.054 -0.566,0.074c-0.03149,-0.00221 -0.0631,0.00187 -0.093,0.012zM236.906,201.195c0.249,0 0.448,0.012 0.567,0.046c0.047,0 0.1,0.008 0.18,0.034c0.04374,0.0067 0.08582,0.02163 0.124,0.044c0.018,0 0.083,0.016 0.186,0.074c0.10986,0.05417 0.20884,0.12806 0.292,0.218c0.08,0.104 0.124,0.192 0.124,0.258c0.01,0 0.018,0.058 0.022,0.16c-0.00507,0.08131 -0.01916,0.1618 -0.042,0.24c-0.03625,0.12826 -0.10123,0.24658 -0.19,0.346c-0.08681,0.11821 -0.19419,0.21983 -0.317,0.3c-0.07,0.058 -0.158,0.112 -0.28,0.166c-0.10628,0.05433 -0.21832,0.09659 -0.334,0.126v0.016c0.059,0.07 0.199,0.198 0.432,0.412c0.024,0.028 0.099,0.088 0.229,0.188c0.044,0.054 0.194,0.164 0.427,0.332v0.038c-0.04847,0.05234 -0.08983,0.11084 -0.123,0.174l-0.282,0.328l-0.077,0.066h-0.004c-0.257,-0.196 -0.649,-0.544 -1.167,-1.038l-0.25,-0.266l-0.012,0.004v1.126l-0.032,0.032h-0.841l-0.022,-0.026l0.032,-1.136c-0.00131,-0.26762 -0.01198,-0.53512 -0.032,-0.802l0.008,-0.008v-0.004l-0.008,-0.306v-0.052l-0.012,-0.012h-0.025c-0.01,0.026 -0.052,0.042 -0.132,0.058c0,0.006 -0.03,0.016 -0.115,0.032c0,0.012 -0.012,0.022 -0.034,0.022l-0.019,-0.022v-0.09c0,-0.124 -0.014,-0.346 -0.056,-0.674c0.04741,-0.03141 0.10153,-0.05128 0.158,-0.058c0.04027,-0.02672 0.0855,-0.04508 0.133,-0.054l0.25,-0.082l0.105,-0.034c0,-0.006 0.049,-0.02 0.154,-0.036c0.016,-0.008 0.124,-0.04 0.334,-0.078l0.32,-0.058z" fill="#eeeeed"/><path d="M226.596,205.707l0.34,0.674l0.748,0.104l-0.54,0.526l0.12,0.738l-0.668,-0.35l-0.67,0.35l0.121,-0.738l-0.537,-0.526l0.746,-0.104zM223.984,205.707l0.33,0.674l0.754,0.104l-0.545,0.526l0.128,0.738l-0.667,-0.35l-0.677,0.35l0.128,-0.738l-0.547,-0.526l0.758,-0.104zM229.143,205.707l0.338,0.674l0.748,0.104l-0.539,0.526l0.124,0.738l-0.671,-0.35l-0.673,0.35l0.128,-0.738l-0.541,-0.526l0.748,-0.104z" fill="#f7b90b"/><path d="M212.887,199.97h0.067v8.513h-0.067zM240.328,199.97h0.07v8.513h-0.07z" fill="#ffffff"/><path d="M240.705,222.66l0.665,1.184l-27.445,15.114c0,0 -3.013,0.37 -2.88,0.054z" fill="#8f7355"/><path d="M211.876,223.796l0.662,-1.176l29.532,16.38c0.087,0.328 -2.79,0 -2.79,0z" fill="#8f7355"/><path d="M226.394,231.392c-0.229,-0.152 -0.348,-0.364 -0.277,-0.482c0.083,-0.114 0.33,-0.086 0.555,0.062c0.217,0.152 0.344,0.364 0.27,0.482c-0.073,0.116 -0.327,0.088 -0.548,-0.062" fill="#68503a"/><path d="M270.02,180.95c3.67,4.62 5.067,18.515 5.067,18.515c0,0 0,-0.02 -0.008,-0.062c0.472,0.67 0.807,1.546 0.91,2.524c0.247,2.324 -0.875,4.342 -2.517,4.51c-1.07,0.118 -2.095,-0.594 -2.747,-1.74c-0.608,0.496 -1.208,0.688 -1.636,0.468c-0.802,-0.424 -0.705,-2.154 0.211,-3.87c0.359,-0.654 0.77,-1.214 1.208,-1.634c0.034,-0.07 0.075,-0.138 0.113,-0.206c0,0 -1.594,-10.026 -3.292,-12.408c-0.851,-1.18 -1.403,-1.85 -1.591,-2.376c-0.158,-0.424 -0.336,-1.238 -0.405,-1.54c-0.541,-2.38 -3.534,-7.754 -3.534,-7.754c0,0 6.44,3.324 8.22,5.574M220.56,165.48c1.209,-0.502 2.65,-0.042 3.812,1.066c0.527,-0.788 1.147,-1.224 1.729,-1.108c1.078,0.206 1.588,2.25 1.139,4.558c-0.185,0.884 -0.475,1.678 -0.817,2.312c-0.05,0.292 -0.12,0.562 -0.209,0.822l5.483,6.366l11.662,-4.118c0,0 -1.988,3.094 -2.478,4.232c-0.35,0.82 -1.038,3.432 -1.038,3.432c0,0 -8.518,3.418 -10.928,2.55c-2.988,-1.066 -6.41,-10.664 -6.41,-10.664h0.003c-1.283,-0.448 -2.529,-1.658 -3.25,-3.336c-1.119,-2.608 -0.533,-5.338 1.303,-6.112" data-paper-data="{&quot;origPos&quot;:null}" fill="#fcda82"/><path d="M264.879,208.163l-1.96,25.862h-9.933l-0.385,-18.706h-0.284l-0.378,18.706h-9.931l-1.956,-25.862z" fill="#565657"/><path d="M270.188,198.992c0,0 -1.287,-9.576 -2.985,-11.948c-0.091,-0.128 -0.172,-0.24 -0.247,-0.356c1.655,9.712 1.453,21.468 1.453,21.468v3.216c0,0 -11.98,1.96 -15.234,0c-0.337,-0.194 -0.724,-1.354 -0.724,-1.354c0,0 -0.344,1.16 -0.664,1.354c-3.216,1.982 -15.157,0 -15.157,0v-3.21c0,0 -0.312,-14.7 2.026,-24.668c-0.587,0.268 -7.528,2.974 -9.841,2.146c-2.985,-1.066 -7.38,-10.194 -7.38,-10.194l4.765,-2.316l5.536,6.344l10.56,-4.074c2.079,-1.34 8.393,-1.558 8.393,-1.558l1.762,0.044h0.142l1.757,-0.044c0,0 6.293,0.196 8.393,1.536c0.845,0.458 5.528,3.062 7.149,5.106c3.666,4.624 5.262,18.514 5.262,18.514l-4.966,-0.006" fill="#8f7355"/><path d="M243.345,208.537c0,0 -3.927,0.834 -4.772,0c-1.502,-1.484 0,-8.382 0,-8.382h4.772zM261.705,208.537c0,0 3.914,0.834 4.761,0c1.504,-1.484 -0.008,-8.382 -0.008,-8.382h-4.753zM252.554,210.08h-0.127v-12.502l0.127,0.514z" fill="#634c35"/><path d="M262.718,233.956c1.8,1.092 3.098,3.41 1.564,5.238c-1.165,1.282 -2.881,0.308 -4.186,-0.236c-1.439,-0.676 -3.084,-1.134 -4.387,-2.01c-0.841,-0.588 -1.83,-1.278 -2.4,-2.146c-0.174,-0.264 -0.257,-0.584 -0.192,-0.846h9.6zM242.213,233.956c-1.803,1.092 -3.11,3.41 -1.562,5.238c1.16,1.282 2.871,0.308 4.172,-0.236c1.44,-0.676 3.086,-1.134 4.383,-2.01c0.847,-0.588 1.838,-1.278 2.407,-2.146c0.174,-0.264 0.257,-0.584 0.193,-0.846z" fill="#4f2a11"/><path d="M252.554,198.09l-3.683,-22.184h7.541z" fill="#4b3521"/><path d="M248.308,178.162c-2.837,-0.344 -4.586,0.004 -4.586,0.004c-0.615,-0.87412 -1.2522,-1.7324 -1.911,-2.574l0.484,-0.186c1.474,-0.952 5.054,-1.33 7.03,-1.478c1.341,3.118 3.23,24.17 3.23,24.17c0,0 -3.686,-13.256 -8.063,-17.092c0,0 1.22,-2.004 3.816,-2.844" fill="#634c35"/><path d="M256.8,178.162c2.599,0.84 3.818,2.844 3.818,2.844c-4.386,3.836 -8.064,17.092 -8.064,17.092c0,0 1.769,-21.16 3.367,-24.164c1.974,0.146 5.423,0.52 6.892,1.472l0.474,0.186c-1.159,1.496 -1.903,2.574 -1.903,2.574c0,0 -1.752,-0.348 -4.583,-0.004" fill="#634c35"/><path d="M250.797,175.268c-1.063,0 -1.927,-2.256 -1.927,-3.29h7.579c0,1.034 -0.868,3.29 -1.923,3.29h-3.729" fill="#fddfbb"/><path d="M249.749,174.551c-0.424,-0.636 -0.789,-1.51 -0.856,-2.152c1.196,0.19 2.426,0.29 3.682,0.29c1.29263,0.00205 2.58315,-0.10433 3.858,-0.318l-0.016,0.014l-6.668,2.166" fill="#eeac6c"/><path d="M255.847,174.115c0,0 7.759,4.324 8.918,6.874c0.853,1.904 -0.565,8.29 -0.565,8.29c0,0 -3.255,1.774 -5.21,3.628c-2.434,-1.258 0.057,-8.252 -0.867,-10.802c-0.752,-2.078 -5.058,-7.252 -5.058,-7.252z" fill="#7a1421"/><path d="M257.79,176.03c0,0 -7.939,2.182 -10.147,0c-0.748,-0.738 -1.178,-4.17 -1.178,-4.17c0,0 10.292,-2.18 12.497,0c0.75,0.73 -1.172,4.17 -1.172,4.17" fill="#9b1826"/><path d="M275.109,153.578c1.169,0.744 1.939,2.002 1.939,3.436c0,2.284 -1.947,4.132 -4.356,4.132h-0.203c-3.899,6.884 -11.353,11.544 -19.915,11.544c-8.577,0 -16.042,-4.668 -19.934,-11.564c-0.155,0.014 -0.317,0.02 -0.475,0.02c-2.407,0 -4.354,-1.848 -4.354,-4.132c0,-1.536 0.89,-2.88 2.2,-3.592c-0.153,-1.056 -0.233,-2.13 -0.233,-3.228c0,-12.422 10.206,-22.494 22.796,-22.494c12.588,0 22.788,10.072 22.788,22.494c0,1.154 -0.081,2.282 -0.252,3.384" data-paper-data="{&quot;origPos&quot;:null}" fill="#fcda82"/><path d="M246.229,150.096c-0.772,-0.174 -0.908,-1.201 -3.386,-0.74c-0.779,0.18 -2.417,1.156 -2.732,1.808c-0.316,0.652 -0.088,-2.392 2.457,-3.522c1.835,-0.675 2.457,-0.642 3.977,-0.642c1.52,0 1.987,0.907 1.766,1.65c0,0 -0.503,1.803 -2.082,1.446zM260.134,150.096c0.772,-0.174 0.908,-1.201 3.386,-0.74c0.779,0.18 2.417,1.156 2.732,1.808c0.316,0.652 0.087,-2.392 -2.457,-3.522c-1.835,-0.675 -2.457,-0.642 -3.977,-0.642c-1.52,0 -1.987,0.907 -1.766,1.65c0,0 0.503,1.803 2.082,1.446z" fill="#ad6921"/><path d="M244,159c-1.105,0 -2,-1.343 -2,-3c0,-1.657 0.895,-3 2,-3c1.105,0 2,1.343 2,3c0,1.657 -0.895,3 -2,3zM262,159c-1.105,0 -2,-1.343 -2,-3c0,-1.657 0.895,-3 2,-3c1.105,0 2,1.343 2,3c0,1.657 -0.895,3 -2,3z" fill="#343434"/><path d="M253.02,159.069c-1.125,0.153 -3.02,1.834 -3.02,1.834c0,0 0.207,-1.009 0.503,-1.299c0.8,-1.156 2.487,-1.604 2.487,-1.604c0,0 2.173,0.703 2.65,1.588c0.443,0.824 0.34,1.238 0.34,1.238c0,0 -2.121,-1.871 -2.96,-1.756z" fill="#eeac6c"/><path d="M246.2,162.696c0,0 6.897,3.208 13.172,-0.397c0,0 -1.39,5.47 -5.95,5.561c-4.115,0.122 -4.984,-1.492 -5.477,-1.956c-0.492,-0.463 -1.42,-1.772 -1.745,-3.208" fill="#eeac6c"/><path d="M243.905,155.171c0,1.386 -0.849,2.522 -1.886,2.522c-1.04,0 -1.897,-1.136 -1.897,-2.522c0,-1.396 0.857,-2.532 1.897,-2.532c1.037,0 1.886,1.136 1.886,2.532M264.23,155.171c0,1.386 -0.847,2.522 -1.897,2.522c-1.042,0 -1.89,-1.136 -1.89,-2.522c0,-1.396 0.848,-2.532 1.89,-2.532c1.05,0 1.897,1.136 1.897,2.532" fill="#ffffff"/><path d="M243.183,155.866c0,0.862 -0.52,1.562 -1.163,1.562c-0.65,0 -1.176,-0.7 -1.176,-1.562c0,-0.87 0.525,-1.564 1.176,-1.564c0.644,0 1.163,0.694 1.163,1.564M263.503,155.866c0,0.862 -0.524,1.562 -1.169,1.562c-0.642,0 -1.171,-0.7 -1.171,-1.562c0,-0.87 0.529,-1.564 1.171,-1.564c0.645,0 1.17,0.694 1.17,1.564" fill="#343434"/><path d="M276.272,147.258c0.034,2.646 -0.9,8.364 -2.72,11.766c0,0 -4.49,-12.516 -8.18,-14.498c-4.509,-2.43 -16.411,1.072 -20.441,-2.07c-0.673,-0.522 -0.597,-1.704 -0.597,-1.704c0,0 -0.777,1.504 -1.15,1.918c-1.956,2.196 -7.02,5.376 -9.42,7.088c-1.939,1.368 -2.027,1.352 -1.599,9.266c0,0 -3.556,-7.198 -3.36,-12.01c0.055,-1.382 0.736,-4.454 1.84,-7.58c4.018,-7.946 12.332,-13.402 21.931,-13.402c11.035,0 20.366,7.2 23.424,17.1c0.15157,1.37061 0.24166,2.74732 0.27,4.126" fill="#ad6921"/><path d="M224.315,173.499c0,0 -2.367,-0.894 -2.523,-1.624c-0.616,-2.866 6.486,-9.834 6.486,-9.834l2.519,1.62z" fill="#565657"/><path d="M228.2,164.058c0,0 -2.57,6.12 -4.534,6.466c-0.346,0.064 -0.943,-0.376 -1.43,-0.782c1.015,-2.184 3.388,-4.908 4.837,-6.456z" fill="#d0d0d0"/><path d="M209.843,144.9c7.784,2.146 12.075,12.546 26.069,16.404c0.673,0.182 -0.503,4.346 -1.181,4.162c-14.724,-4.062 -23.58,3.392 -31.056,1.326z" fill="#565657"/><path d="M209.84,156.687c-1.71,6.042 -4.477,10.57 -6.164,10.104c-1.698,-0.464 -1.684,-5.748 0.026,-11.798c1.71,-6.056 4.476,-10.576 6.162,-10.106c1.706,0.466 1.686,5.75 -0.024,11.8" fill="#343434"/><path d="M227.305,169.705c-0.333,2.208 -1.44,3.872 -2.479,3.718c-1.027,-0.148 -1.6,-2.062 -1.262,-4.274c0.332,-2.2 1.445,-3.866 2.474,-3.716c1.036,0.156 1.601,2.064 1.267,4.272" data-paper-data="{&quot;origPos&quot;:null}" fill="#fcda82"/><path d="M268.334,152.893c0.395,1.388 1.143,4.938 -0.198,6.714c-2.079,2.754 -11.771,-0.93 -13.937,-3.624c-0.77,-0.966 -0.517,-2.372 -0.252,-3.096h-2.885c0.253,0.724 0.515,2.146 -0.259,3.104c-2.162,2.7 -11.858,6.358 -13.937,3.602c-1.342,-1.776 -0.594,-5.306 -0.193,-6.694l-1.867,-1.332h35.36z" fill="#226380"/><path d="M240.274,152.922c0.08529,0.13162 0.11447,0.29186 0.08105,0.44509c-0.03343,0.15324 -0.12669,0.28677 -0.25905,0.37091l-2.09,1.332c-0.27619,0.17537 -0.64222,0.09393 -0.818,-0.182l-0.01,-0.008c-0.08789,-0.13044 -0.11798,-0.2914 -0.08314,-0.44478c0.03484,-0.15338 0.13152,-0.28555 0.26714,-0.36522l2.081,-1.336c0.27935,-0.17447 0.64676,-0.09567 0.83,0.178v0.01zM239.423,155.828c0,0.362 -0.3,0.656 -0.67,0.656c-0.36451,0 -0.66,-0.29549 -0.66,-0.66c0,-0.36451 0.29549,-0.66 0.66,-0.66c0.37,0 0.67,0.294 0.67,0.664" fill="#1a4e60"/><path d="M267.797,126.15c2.428,5.72 -5.159,14.302 -16.936,19.16c-11.79,4.862 -23.302,4.164 -25.73,-1.558c-2.176,-5.128 3.716,-12.556 13.455,-17.54c-0.696,-0.4 -1.431,-0.714 -2.166,-0.954c-1.254,-0.408 -2.578,-0.66 -3.903,-0.622c-0.128,0.008 -0.128,-0.186 0,-0.188c1.374,-0.048 2.755,0.22 4.045,0.656c0.76948,0.25785 1.51172,0.59078 2.216,0.994c1.062,-0.532 2.16,-1.038 3.305,-1.508c11.781,-4.86 23.294,-4.16 25.714,1.56" fill="#7d3362"/></g></g></svg>