<svg xmlns="http://www.w3.org/2000/svg" width="120" height="120"><g fill="none" transform="rotate(45 8.094 38.5)"><path fill="#FD653F" d="M115.416 33.843H4.603A4.44 4.44 0 0 1 .157 29.4V4.6A4.44 4.44 0 0 1 4.603.157h110.833a4.44 4.44 0 0 1 4.446 4.442V29.4a4.469 4.469 0 0 1-4.466 4.442z"/><path fill="#E05A38" d="M115.416 31.877H4.603a4.44 4.44 0 0 1-4.446-4.441V29.4a4.44 4.44 0 0 0 4.446 4.442h110.833a4.44 4.44 0 0 0 4.446-4.442v-1.965a4.469 4.469 0 0 1-4.466 4.441z"/><path fill="#FFF" d="M3.993 15.015h4.111V30.07h-4.11zm4.682 0h4.111V30.07h-4.11zm4.682 0h4.111V30.07h-4.11zm4.683 0h4.11V30.07h-4.11zm4.681 0h4.111V30.07h-4.11zm4.682 0h4.111V30.07h-4.11zm4.682 0h4.111V30.07h-4.11zm4.682 0h4.111V30.07h-4.11z"/><path fill="#575757" d="M6.964 15.015h2.793v9.296H6.964zm4.701 0h2.793v9.296h-2.793zm4.702 0h2.793v9.296h-2.793zm4.683 0h2.792v9.296H21.05zm4.7 0h2.793v9.296H25.75zm4.702 0h2.793v9.296h-2.793zm4.682 0h2.793v9.296h-2.793z"/><path fill="#FFF" d="M41.567 15.015h4.111V30.07h-4.11zm4.683 0h4.11V30.07h-4.11zm4.681 0h4.111V30.07h-4.11zm4.682 0h4.111V30.07h-4.11zm4.682 0h4.111V30.07h-4.11zm4.682 0h4.111V30.07h-4.11zm4.701 0h4.111V30.07h-4.11zm4.682 0h4.111V30.07h-4.11z"/><path fill="#575757" d="M44.557 15.015h2.793v9.296h-2.793zm4.683 0h2.792v9.296H49.24zm4.701 0h2.793v9.296h-2.793zm4.701 0h2.793v9.296h-2.793zm4.682 0h2.793v9.296h-2.793zm4.702 0h2.793v9.296h-2.793zm4.682 0h2.793v9.296h-2.793z"/><path fill="#FFF" d="M79.141 15.015h4.111V30.07h-4.111zm4.682 0h4.111V30.07h-4.111zm4.682 0h4.111V30.07h-4.111zm4.682 0h4.111V30.07h-4.111zm4.682 0h4.111V30.07h-4.111zm4.702 0h4.111V30.07h-4.111zm4.681 0h4.111V30.07h-4.111zm4.682 0h4.111V30.07h-4.111z"/><path fill="#575757" d="M82.131 15.015h2.793v9.296h-2.793zm4.682 0h2.793v9.296h-2.793zm4.702 0h2.793v9.296h-2.793zm4.701 0h2.793v9.296h-2.793zm4.682 0h2.793v9.296h-2.793zm4.702 0h2.793v9.296H105.6zm4.702 0h2.793v9.296h-2.793z"/><path fill="#9C3E27" d="M20.223 10.16H7.613a3.642 3.642 0 0 1-3.64-3.635 3.642 3.642 0 0 1 3.64-3.636h12.61a3.642 3.642 0 0 1 3.64 3.636 3.642 3.642 0 0 1-3.64 3.636z"/><circle cx="29.469" cy="6.525" r="1" fill="#9C3E27"/><circle cx="35.134" cy="6.525" r="1" fill="#9C3E27"/><circle cx="40.82" cy="6.525" r="1" fill="#9C3E27"/><circle cx="46.505" cy="6.525" r="1" fill="#9C3E27"/><circle cx="52.17" cy="6.525" r="1" fill="#9C3E27"/><circle cx="57.856" cy="6.525" r="1" fill="#9C3E27"/><circle cx="63.541" cy="6.525" r="1" fill="#9C3E27"/><circle cx="69.226" cy="6.525" r="1" fill="#9C3E27"/><circle cx="74.892" cy="6.525" r="1" fill="#9C3E27"/><circle cx="80.577" cy="6.525" r="1" fill="#9C3E27"/><circle cx="86.813" cy="3.872" r="1" fill="#9C3E27"/><circle cx="86.813" cy="8.628" r="1" fill="#9C3E27"/><circle cx="92.616" cy="3.872" r="1" fill="#9C3E27"/><circle cx="92.616" cy="8.628" r="1" fill="#9C3E27"/><circle cx="98.42" cy="3.872" r="1" fill="#9C3E27"/><circle cx="98.42" cy="8.628" r="1" fill="#9C3E27"/><circle cx="104.203" cy="3.872" r="1" fill="#9C3E27"/><circle cx="104.203" cy="8.628" r="1" fill="#9C3E27"/><circle cx="110.007" cy="3.872" r="1" fill="#9C3E27"/><circle cx="110.007" cy="8.628" r="1" fill="#9C3E27"/></g></svg>