<svg version="1.1" xmlns="http://www.w3.org/2000/svg" xmlns:xlink="http://www.w3.org/1999/xlink" width="54.57149" height="118.18224" viewBox="0,0,54.57149,118.18224"><g transform="translate(-213.1192,-119.99999)"><g data-paper-data="{&quot;isPaintingLayer&quot;:true}" fill-rule="evenodd" stroke="none" stroke-width="1" stroke-linecap="butt" stroke-linejoin="miter" stroke-miterlimit="10" stroke-dasharray="" stroke-dashoffset="0" style="mix-blend-mode: normal"><path d="M217.205,170.64c1.074,-0.467 2.367,-0.058 3.412,0.941c0.467,-0.716 1.025,-1.117 1.54,-1.02c0.971,0.18 1.44,2.035 1.051,4.139c-0.1302,0.73514 -0.37128,1.44625 -0.715,2.109c-0.03473,0.254 -0.09469,0.5039 -0.179,0.746l4.958,5.756l10.388,-3.83c0,0 -1.749,2.835 -2.175,3.868c-0.311,0.754 -0.909,3.139 -0.909,3.139c0,0 -7.586,3.165 -9.753,2.396c-2.677,-0.95 -5.809,-9.662 -5.809,-9.662c-1.15,-0.397 -2.275,-1.496 -2.925,-3.011c-1.023,-2.368 -0.52,-4.858 1.116,-5.57" fill="#afafaf"/><path d="M224.852,172.982c0.18,2.368 -2.456,2.494 -5.687,2.74c-3.237,0.243 -5.862,0.51 -6.037,-1.859c-0.176,-2.368 2.307,-4.483 5.546,-4.728c3.237,-0.24 6.003,1.48 6.178,3.847" fill="#dbdbdb"/><path d="M215.03,120.434l4.223,49.19l-1.113,0.082z" fill="#afafaf"/><path d="M215.453,120.386c0.00967,0.111 -0.02549,0.22126 -0.09763,0.30617c-0.07214,0.08492 -0.17527,0.13743 -0.28637,0.14583c-0.11014,0.00738 -0.21864,-0.02975 -0.30117,-0.10307c-0.08253,-0.07332 -0.13218,-0.17669 -0.13783,-0.28693c-0.01785,-0.22816 0.15194,-0.42789 0.38,-0.447c0.1098,-0.0077 0.21816,0.02854 0.30124,0.10075c0.08308,0.0722 0.13407,0.17445 0.14176,0.28425" fill="#afafaf"/><path d="M255.36,232.693c1.615,0.984 2.802,3.084 1.44,4.755c-1.034,1.181 -2.572,0.298 -3.743,-0.184c-1.293,-0.606 -2.766,-1.01 -3.939,-1.8c-0.757,-0.52 -1.644,-1.147 -2.157,-1.935c-0.157,-0.242 -0.236,-0.532 -0.183,-0.767l8.583,-0.07zM237.024,232.84c-1.598,1.01 -2.753,3.126 -1.36,4.776c1.052,1.162 2.575,0.255 3.734,-0.242c1.283,-0.628 2.752,-1.052 3.911,-1.862c0.75,-0.532 1.628,-1.174 2.128,-1.969c0.16,-0.244 0.228,-0.538 0.172,-0.772l-8.585,0.07z" fill="#eeeeed"/><path d="M257.107,209.2l-1.56,23.547l-8.888,0.073l-0.47,-17.018l-0.258,0.004l-0.203,17.02l-8.882,0.072l-1.941,-23.52z" fill="#eeeeed"/><path d="M261.55,184.366c3.307,4.174 4.662,16.807 4.662,16.807l-0.007,-0.054c0.43,0.607 0.732,1.404 0.829,2.293c0.242,2.11 -0.75,3.958 -2.214,4.123c-0.954,0.11 -1.876,-0.523 -2.464,-1.567c-0.54,0.459 -1.075,0.637 -1.462,0.438c-0.722,-0.375 -0.647,-1.953 0.16,-3.523c0.27695,-0.54827 0.63685,-1.05051 1.067,-1.489c0.03,-0.067 0.065,-0.133 0.093,-0.189c0,0 -1.491,-9.124 -3.031,-11.269c-0.77,-1.078 -1.262,-1.68 -1.438,-2.16c-0.142,-0.382 -0.3,-1.12 -0.367,-1.397c-0.508,-2.161 -3.215,-7.029 -3.215,-7.029c0,0 5.776,2.983 7.387,5.016" data-paper-data="{&quot;origPos&quot;:null}" fill="#c0976a"/><path d="M261.833,200.793c0,0 -1.226,-8.708 -2.76,-10.855c-0.08,-0.114 -0.155,-0.22 -0.228,-0.32c1.554,8.829 1.464,19.588 1.464,19.588l-28.418,0.229c0,0 -0.389,-13.435 1.631,-22.517c-0.526,0.242 -6.714,2.754 -8.786,2.023c-2.675,-0.958 -6.677,-9.227 -6.677,-9.227l4.244,-2.143l4.999,5.739l9.412,-3.788c1.85,-1.233 7.502,-1.48 7.502,-1.48l1.566,0.034h0.139l1.563,-0.06c0,0 5.629,0.142 7.51,1.336c0.762,0.415 4.977,2.753 6.439,4.605c3.311,4.174 4.841,16.81 4.841,16.81l-4.44,0.026" fill="#eeeeed"/><path d="M265.866,159.45c1.051,0.67 0.043,6.891 -2.1,6.91c-0.067,0 -0.128,0 -0.188,-0.004c-3.433,6.3 -10.07,10.594 -17.73,10.654c-7.662,0.058 -14.372,-4.131 -17.902,-10.388c-0.14285,0.01555 -0.28633,0.02456 -0.43,0.027c-2.151,0.017 -3.148,-6.357 -1.979,-7.019c-0.144,-0.956 -0.222,-1.93 -0.23,-2.93c-0.09,-11.31 8.964,-20.546 20.22,-20.634c11.256,-0.092 20.455,9.001 20.543,20.308c0.007,1.046 -0.064,2.076 -0.204,3.076" fill="#fddfbb"/><path d="M245.812,175.132c-6.815,0.052 -6.871,-6.743 -6.871,-6.743c6.825,2.117 13.632,-0.107 13.632,-0.107c0,0 0.054,6.795 -6.761,6.85M245.738,165.988c0.446,-0.005 0.851,-0.071 1.192,-0.155c1.074,-0.274 1.779,-0.793 1.804,-0.818l-0.243,-0.328c-0.022,0.021 -2.664,1.958 -5.365,0.045l-0.235,0.328c1.007,0.718 2.001,0.936 2.847,0.928" fill="#eeac6c"/><path d="M237.976,161.122c0.013,1.27 -0.741,2.303 -1.675,2.312c-0.933,0.006 -1.697,-1.016 -1.708,-2.285c-0.007,-1.266 0.738,-2.303 1.67,-2.309c0.934,-0.009 1.703,1.015 1.713,2.282M256.146,160.978c0.011,1.268 -0.74,2.301 -1.674,2.307c-0.935,0.01 -1.7,-1.013 -1.708,-2.28c-0.011,-1.268 0.735,-2.305 1.672,-2.31c0.932,-0.008 1.701,1.016 1.71,2.283" fill="#ffffff"/><path d="M237.334,161.761c0.007,0.79 -0.452,1.43 -1.034,1.435c-0.575,0.003 -1.053,-0.627 -1.059,-1.416c-0.007,-0.786 0.458,-1.425 1.036,-1.43c0.58,-0.008 1.051,0.63 1.057,1.411M255.507,161.617c0.005,0.79 -0.46,1.428 -1.038,1.432c-0.575,0.006 -1.053,-0.624 -1.059,-1.413c-0.007,-0.786 0.461,-1.427 1.038,-1.431c0.577,-0.006 1.051,0.628 1.059,1.412" fill="#343434"/><path d="M233.553,158.345c1.652,-1.048 4.096,-1.717 4.096,-1.717c0.287,-0.548 0.018,-1.466 -0.366,-1.517c-1.221,-0.163 -3.73,3.234 -3.73,3.234M257.147,158.156c-1.672,-1.02 -4.127,-1.652 -4.127,-1.652c-0.293,-0.544 -0.041,-1.464 0.347,-1.52c1.217,-0.184 3.78,3.172 3.78,3.172" fill="#ad6921"/><path d="M266.86,153.699c0.05,2.404 -0.745,7.615 -2.35,10.729c0,0 -4.097,-11.366 -7.417,-13.14c-4.054,-2.179 -14.672,1.087 -18.298,-1.744c-0.602,-0.469 -0.54,-1.542 -0.54,-1.542c0,0 -0.686,1.37 -1.016,1.76c-1.732,2.012 -6.24,4.937 -8.375,6.508c-1.723,1.265 -1.805,1.25 -1.365,8.452c0,0 -3.229,-6.53 -3.087,-10.907c0.037,-1.265 0.625,-4.065 1.594,-6.915c3.532,-7.261 10.924,-12.286 19.512,-12.356c9.865,-0.078 18.258,6.411 21.069,15.392c0.14918,1.24977 0.24028,2.50579 0.273,3.764" fill="#ad6921"/><path d="M244.281,179.372c-0.954,0.007 -1.742,-2.04 -1.749,-2.98l6.78,-0.054c0.005,0.939 -0.747,2.998 -1.699,3.005l-3.332,0.028" fill="#fddfbb"/><path d="M243.282,178.745c-0.39,-0.577 -0.661,-1.395 -0.732,-1.976c1.076,0.167 2.179,0.25 3.306,0.24c1.15542,-0.01089 2.30798,-0.11691 3.446,-0.317l-0.011,0.008l-6.009,2.045" fill="#eeac6c"/><path d="M258.708,184.566c-4.406,5.57 -19.485,5.183 -24.538,0.195c-1.894,-1.879 -2.01,-10.67 -2.01,-10.67l28.336,-0.227c0,0 -0.13,8.608 -1.788,10.702" fill="#dbdbdb"/><path d="M267.689,155.45c0.144,18.365 -9.434,24.073 -22.241,24.176c-12.806,0.1 -21.551,-7.067 -21.684,-23.826c-0.106,-13.472 8.5,-23.66 21.308,-23.762c12.804,-0.103 22.492,7.572 22.617,23.412" fill="#afafaf"/><path d="M262.534,157.223c0.142,17.85 -7.338,23.383 -17.349,23.462c-10.007,0.077 -16.858,-6.9 -16.987,-23.186c-0.12,-15.192 6.61,-22.97 16.621,-23.052c10.011,-0.08 17.595,7.392 17.715,22.776" fill="#d0d0d0"/><path d="M260.148,137.075h-0.06l0.295,37.555h0.06zM260.422,142.351h-0.057l0.255,32.276h0.058zM260.658,142.348h-0.062l0.254,32.277h0.063zM260.888,142.347h-0.052l0.222,28.112h0.052zM261.125,142.345h-0.058l0.222,28.114l0.058,-0.002zM261.36,142.34h-0.063l0.222,28.116h0.063zM261.59,142.34h-0.058l0.222,28.116l0.058,-0.002zM261.827,142.339h-0.06l0.223,28.115h0.06zM262.06,142.336h-0.056l0.222,28.116h0.056zM262.292,142.334h-0.058l0.222,28.116h0.058zM262.525,142.331h-0.058l0.222,28.118h0.058zM262.76,142.331h-0.056l0.222,28.116h0.056zM262.997,142.329l-0.063,0.002l0.222,28.111h0.064zM263.228,142.326l-0.058,0.004l0.221,28.111h0.059zM263.464,142.324l-0.06,0.002l0.222,28.114h0.06zM263.693,142.325h-0.056l0.223,28.112h0.057zM263.927,142.321h-0.06l0.224,28.114h0.059zM254.51,133.886h-0.053l0.35,44.312h0.054zM254.747,133.884h-0.061l0.35,44.192h0.06zM255.005,137.116h-0.056l0.325,40.905l0.056,-0.001zM255.24,137.113h-0.063l0.322,40.787l0.066,-0.002zM255.472,137.112h-0.058l0.321,40.61l0.058,-0.002zM255.707,137.107h-0.06l0.319,40.613h0.06zM255.936,137.107h-0.054l0.32,40.318h0.054zM256.174,137.105l-0.059,0.002l0.32,40.316h0.055zM256.409,137.104l-0.06,0.002l0.319,40.314h0.06zM256.642,137.101l-0.058,0.003l0.318,39.96h0.058zM256.874,137.102h-0.058l0.315,39.96h0.059zM257.106,137.1h-0.056l0.313,39.313h0.054zM257.344,137.099h-0.058l0.31,39.313h0.058zM257.574,137.097h-0.054l0.311,39.313h0.053zM257.811,137.094h-0.058l0.31,39.315h0.057zM258.044,137.089h-0.06l0.312,39.317h0.06zM258.279,137.089h-0.058l0.312,39.317l0.056,-0.004zM258.511,137.087h-0.058l0.295,37.556l0.06,-0.003zM258.744,137.085h-0.058l0.297,37.555h0.058zM258.982,137.083h-0.06l0.296,37.554h0.058zM259.211,137.082h-0.056l0.297,37.554h0.056zM259.446,137.08l-0.06,0.002l0.295,37.553h0.062zM259.681,137.077l-0.057,0.002l0.294,37.553h0.06zM259.915,137.076l-0.058,0.001l0.297,37.553h0.058zM230.249,139.832h-0.056l0.256,32.398h0.058zM230.487,139.831l-0.06,0.002l0.257,32.393h0.06zM230.718,139.828l-0.058,0.004l0.256,32.392h0.058zM230.953,139.825l-0.062,0.002l0.28,35.035h0.059zM231.188,139.825h-0.06l0.28,35.034h0.058zM231.42,139.825h-0.06l0.28,35.032h0.057zM231.653,139.823h-0.06l0.28,35.032h0.057zM231.89,139.82h-0.064l0.28,35.034h0.06zM232.121,139.817h-0.058l0.28,35.034h0.057zM232.354,139.816h-0.062l0.29,36.33l0.06,-0.002zM232.589,139.815h-0.06l0.29,36.328h0.06zM232.797,136.466h-0.056l0.313,39.677l0.056,-0.004zM233.028,136.462h-0.056l0.315,39.677h0.056zM233.263,136.46h-0.058l0.314,39.677h0.058zM233.498,136.457l-0.056,0.003l0.319,40.5h0.059zM233.734,136.457h-0.06l0.32,40.5h0.06zM233.963,136.454l-0.057,0.002l0.32,40.5h0.058zM234.198,136.454h-0.057l0.32,40.5h0.059zM234.433,136.453h-0.058l0.325,40.97h0.058zM234.665,136.45h-0.052l0.324,40.97h0.053zM234.9,136.449h-0.058l0.327,41.201h0.058zM235.133,136.448h-0.058l0.329,41.314h0.058zM235.365,136.444h-0.058l0.328,41.436h0.058zM235.6,136.442h-0.056l0.328,41.672l0.06,-0.002zM245.111,134.448h0.052l0.366,46.228h-0.052zM245.34,134.446c0.021,0.004 0.04,0.004 0.06,0.004l0.367,46.226h-0.06zM245.999,180.668l-0.056,0.002l-0.365,-46.22c0.016,0.007 0.036,0.007 0.056,0.01zM245.811,134.464h0.058l0.366,46.193l-0.058,0.002zM246.408,180.649l-0.366,-46.175c0.02,0.005 0.038,0.005 0.06,0.005l0.366,46.163c-0.02,0 -0.037,0.008 -0.06,0.008zM246.279,134.49c0.017,-0.002 0.036,0.002 0.056,0.002l0.366,46.138h-0.056zM246.876,180.615l-0.366,-46.107c0.019,0 0.04,-0.003 0.06,0.002l0.367,46.104c-0.021,0 -0.04,0 -0.06,0.002zM246.75,134.529c0.019,0 0.035,0 0.05,0.003l0.364,46.062h-0.05zM246.981,134.552c0.01959,0.00022 0.03908,0.00291 0.058,0.008l0.362,46.01c-0.018,0.005 -0.039,0.005 -0.056,0.005zM247.215,134.574c0.018,0.008 0.038,0.008 0.058,0.01l0.362,45.962c-0.019,0 -0.038,0.006 -0.058,0.006zM247.814,180.526l-0.364,-45.92c0.017,0.002 0.033,0.002 0.058,0.008l0.362,45.903c-0.01819,0.00562 -0.03699,0.00898 -0.056,0.01zM247.681,134.639c0.01868,0.00637 0.03826,0.00975 0.058,0.01l0.362,45.846l-0.058,0.002zM247.917,134.676c0.016,0 0.039,0.008 0.056,0.01l0.362,45.772c-0.019,0 -0.036,0.008 -0.058,0.009zM248.512,180.433l-0.362,-45.718c0.015,0.008 0.04,0.008 0.06,0.013l0.362,45.698c-0.02022,0.00056 -0.04034,0.00324 -0.06,0.008zM248.385,134.76c0.01901,0.00102 0.03781,0.00438 0.056,0.01l0.36,45.617c-0.016,0.007 -0.039,0.007 -0.054,0.007zM248.617,134.804c0.01963,0.00565 0.0397,0.00967 0.06,0.012l0.36,45.527c-0.02,0.007 -0.038,0.007 -0.06,0.013zM248.854,134.856c0.018,0 0.037,0.007 0.057,0.01l0.359,45.437c-0.019,0.008 -0.036,0.01 -0.056,0.013zM249.448,180.27l-0.356,-45.36c0.011,0.002 0.031,0.01 0.058,0.01l0.355,45.34c-0.022,0.002 -0.043,0.008 -0.058,0.01zM249.318,134.966c0.02009,0.00142 0.03974,0.0065 0.058,0.015l0.359,45.229c-0.019,0.003 -0.038,0.005 -0.058,0.013zM249.914,180.171l-0.359,-45.145c0.02,0.004 0.04,0.008 0.06,0.014l0.355,45.114c-0.019,0.006 -0.037,0.009 -0.056,0.016zM249.791,135.09c0.015,0.007 0.038,0.011 0.058,0.017l0.356,44.992c-0.018,0.007 -0.041,0.007 -0.058,0.015zM250.381,180.058l-0.355,-44.902c0.014,0.007 0.035,0.018 0.054,0.02l0.353,44.867c-0.015,0.004 -0.038,0.005 -0.053,0.015zM250.257,135.233c0.02006,0.00278 0.03961,0.00851 0.058,0.017l0.355,44.728c-0.01946,0.00654 -0.03958,0.0109 -0.06,0.013zM250.494,135.305c0.017,0.012 0.038,0.012 0.06,0.02l0.353,44.585c-0.02,0.007 -0.041,0.01 -0.06,0.017zM250.73,135.386c0.01767,0.00903 0.03568,0.01737 0.054,0.025l0.351,44.43c-0.01742,0.00829 -0.03594,0.01402 -0.055,0.017zM250.959,135.473c0.02039,0.00662 0.04041,0.0143 0.06,0.023l0.351,44.271c-0.02,0.008 -0.04,0.016 -0.06,0.018zM251.548,179.708l-0.35,-44.149c0.017,0.009 0.037,0.016 0.054,0.026l0.347,44.106c-0.01777,0.00424 -0.03516,0.00993 -0.052,0.017zM251.425,135.653c0.02,0.009 0.048,0.017 0.06,0.029l0.35,43.923c-0.015,0.008 -0.04,0.015 -0.06,0.023zM252.011,179.542l-0.35,-43.795c0.021,0.014 0.042,0.02 0.062,0.03l0.343,43.742c-0.019,0.012 -0.037,0.017 -0.056,0.023zM251.9,135.857c0.017,0.008 0.04,0.015 0.06,0.025l0.343,43.551c-0.02041,0.00298 -0.04009,0.00977 -0.058,0.02zM252.129,135.962c0.02025,0.00807 0.04026,0.01674 0.06,0.026l0.344,43.348c-0.019,0.008 -0.034,0.019 -0.056,0.024zM252.366,136.073c0.021,0.009 0.04,0.017 0.06,0.032l0.34,43.13c-0.01806,0.01103 -0.03758,0.01945 -0.058,0.025zM252.601,136.191c0.01866,0.01197 0.03884,0.02139 0.06,0.028l0.34,42.913c-0.02,0.008 -0.038,0.018 -0.058,0.028zM252.837,136.316c0.01947,0.00842 0.0382,0.01845 0.056,0.03l0.336,42.68c-0.01615,0.01086 -0.03362,0.0196 -0.052,0.026zM253.068,136.441c0.021,0.015 0.044,0.023 0.06,0.033l0.336,42.433c-0.0172,0.01411 -0.03641,0.02557 -0.057,0.034zM253.642,178.819l-0.334,-42.241c0.018,0.007 0.039,0.02 0.06,0.03l0.33,42.18c-0.01739,0.01276 -0.03618,0.02349 -0.056,0.032zM253.539,136.716c0.022,0.009 0.043,0.024 0.062,0.033l0.332,41.918l-0.06,0.028zM254.104,178.566l-0.33,-41.71c0.025,0.015 0.039,0.03 0.059,0.042l0.33,41.634c-0.01773,0.01386 -0.03724,0.0253 -0.058,0.034zM254.008,137.013c0.02234,0.01041 0.04292,0.02424 0.061,0.041l0.329,41.342c-0.02,0.009 -0.038,0.028 -0.06,0.032zM254.245,137.168c0.01864,0.01525 0.038,0.02959 0.058,0.043l0.324,41.042c-0.016,0.009 -0.036,0.025 -0.056,0.035zM237.647,136.113c0.012,-0.008 0.032,-0.017 0.052,-0.028l0.342,43.176c-0.019,-0.014 -0.04,-0.022 -0.053,-0.032zM237.874,136.001c0.01922,-0.0115 0.03927,-0.02152 0.06,-0.03l0.342,43.393c-0.01837,-0.0112 -0.0378,-0.02058 -0.058,-0.028zM238.109,135.888c0.021,-0.005 0.04,-0.019 0.06,-0.025l0.344,43.607c-0.018,-0.015 -0.038,-0.02 -0.058,-0.033zM238.692,179.538l-0.349,-43.76c0.017,-0.009 0.035,-0.016 0.058,-0.026l0.345,43.808c-0.02,-0.006 -0.039,-0.017 -0.054,-0.023zM238.572,135.682c0.01873,-0.01064 0.03896,-0.0184 0.06,-0.023l0.347,43.993c-0.018,-0.007 -0.037,-0.014 -0.057,-0.024zM238.81,135.583l0.056,-0.024l0.351,44.178c-0.019,-0.009 -0.038,-0.017 -0.058,-0.022zM239.043,135.486c0.015,-0.005 0.037,-0.01 0.059,-0.02l0.35,44.356l-0.06,-0.022zM239.276,135.402c0.015,-0.009 0.036,-0.009 0.054,-0.02l0.353,44.516c-0.016,-0.008 -0.037,-0.015 -0.056,-0.018zM239.858,179.956l-0.35,-44.639c0.018,-0.007 0.035,-0.015 0.058,-0.016l0.353,44.671c-0.021,-0.006 -0.038,-0.009 -0.06,-0.016zM239.743,135.244c0.0196,-0.00697 0.03895,-0.01464 0.058,-0.023l0.352,44.822c-0.018,-0.004 -0.039,-0.013 -0.057,-0.02zM240.331,180.09l-0.355,-44.921c0.013,-0.009 0.036,-0.013 0.058,-0.019l0.355,44.957c-0.019,-0.007 -0.045,-0.013 -0.059,-0.017zM240.562,180.152l-0.354,-45.055c0.01936,-0.00306 0.0382,-0.00878 0.056,-0.017l0.356,45.088c-0.018,-0.009 -0.038,-0.009 -0.058,-0.017zM240.799,180.209l-0.358,-45.181c0.017,0 0.037,-0.008 0.054,-0.01l0.358,45.208c-0.014,-0.006 -0.035,-0.015 -0.053,-0.016zM240.672,134.972c0.0201,-0.00732 0.04087,-0.01268 0.062,-0.016l0.357,45.322c-0.017,-0.006 -0.043,-0.011 -0.062,-0.011zM240.906,134.911c0.01957,-0.00322 0.03893,-0.00756 0.058,-0.013l0.358,45.428c-0.018,-0.002 -0.038,-0.01 -0.058,-0.012zM241.14,134.857c0.018,-0.008 0.04,-0.008 0.06,-0.013l0.36,45.528c-0.02,0 -0.04,-0.007 -0.06,-0.007zM241.371,134.808c0.022,-0.008 0.044,-0.008 0.056,-0.015l0.362,45.625c-0.01817,-0.0057 -0.03698,-0.00906 -0.056,-0.01zM241.604,134.756c0.019,-0.002 0.04,-0.004 0.06,-0.01l0.362,45.71c-0.019,0 -0.04,-0.008 -0.06,-0.008zM241.839,134.717c0.017,-0.006 0.038,-0.006 0.058,-0.011l0.362,45.785c-0.019,-0.001 -0.039,-0.007 -0.056,-0.007zM242.072,134.677c0.021,-0.009 0.038,-0.009 0.058,-0.009l0.362,45.855c-0.018,0 -0.035,-0.008 -0.058,-0.008zM242.306,134.641c0.018,-0.006 0.035,-0.006 0.058,-0.01l0.36,45.919c-0.018,0 -0.036,-0.002 -0.058,-0.006zM242.541,134.605c0.018,-0.002 0.038,-0.002 0.058,-0.005l0.362,45.98c-0.018,-0.005 -0.038,-0.005 -0.058,-0.005zM242.774,134.575c0.019,0 0.036,-0.006 0.06,-0.006l0.364,46.035c-0.023,0.002 -0.04,-0.008 -0.06,-0.008zM243.006,134.55c0.024,-0.004 0.039,-0.008 0.056,-0.008l0.365,46.082c-0.018,-0.004 -0.031,-0.004 -0.057,-0.006zM243.239,134.528c0.017,0 0.04,-0.008 0.06,-0.013l0.366,46.123h-0.06zM243.842,180.653l-0.366,-46.145c0.017,0 0.035,-0.006 0.054,-0.008l0.368,46.152h-0.056zM244.075,180.661l-0.366,-46.17c0.017,-0.002 0.036,-0.008 0.054,-0.008l0.366,46.185c-0.01836,0.00104 -0.03673,-0.00168 -0.054,-0.008zM243.941,134.473h0.056l0.367,46.2h-0.057zM244.174,134.463h0.058l0.366,46.215h-0.058zM244.409,134.452h0.06l0.366,46.23h-0.06zM245.008,180.682l-0.366,-46.23c0.018,-0.002 0.038,-0.002 0.058,-0.002l0.364,46.23h-0.057zM244.875,134.447h0.06l0.367,46.235h-0.06zM236.107,178.158l-0.327,-40.898c0.02,-0.014 0.043,-0.024 0.06,-0.04l0.325,40.975c-0.017,-0.017 -0.039,-0.025 -0.058,-0.035zM236.016,137.099c0.01693,-0.01532 0.03498,-0.02936 0.054,-0.042l0.326,41.292c-0.014,-0.008 -0.037,-0.019 -0.054,-0.034zM236.246,136.939c0.018,-0.013 0.04,-0.029 0.06,-0.037l0.33,41.597c-0.021,-0.011 -0.042,-0.019 -0.06,-0.036zM236.479,136.78c0.02127,-0.007 0.04074,-0.01861 0.057,-0.034l0.333,41.895c-0.019,-0.008 -0.04,-0.023 -0.06,-0.034zM236.713,136.64c0.023,-0.016 0.036,-0.026 0.06,-0.036l0.333,42.176c-0.021,-0.017 -0.038,-0.024 -0.06,-0.04zM237.281,178.872l-0.338,-42.37c0.02127,-0.01131 0.04137,-0.02471 0.06,-0.04l0.336,42.442c-0.01988,-0.00928 -0.03924,-0.01963 -0.058,-0.031zM237.174,136.364c0.025,-0.011 0.045,-0.018 0.06,-0.033l0.338,42.697l-0.06,-0.032zM237.41,136.242c0.0187,-0.01378 0.03923,-0.02489 0.061,-0.033l0.34,42.937c-0.02,-0.012 -0.04,-0.017 -0.06,-0.032zM227.233,142.558h-0.057l0.214,27.057h0.058zM227.471,142.558l-0.06,0.001l0.214,27.053h0.058zM227.706,142.557l-0.064,0.001l0.215,27.052h0.063zM227.937,142.553l-0.06,0.004l0.217,27.05h0.056zM228.171,142.553h-0.06l0.214,27.053h0.06zM228.407,142.553h-0.06l0.235,29.69h0.06zM228.635,142.552h-0.054l0.233,29.688h0.056zM228.872,142.55h-0.06l0.235,29.691l0.06,-0.002zM229.085,139.841h-0.058l0.256,32.397h0.057zM229.318,139.84h-0.062l0.258,32.398l0.062,-0.002zM229.549,139.84h-0.057l0.257,32.396h0.056zM229.785,139.837h-0.058l0.257,32.396h0.058zM230.02,139.835h-0.06l0.257,32.396h0.06z" fill="#afafaf"/><path d="M245.072,132.038c12.804,-0.103 22.492,7.571 22.617,23.411c0.11,13.703 -5.192,20.359 -13.209,22.9c4.992,-3.066 8.146,-9.471 8.053,-21.126c-0.12,-15.384 -7.702,-22.856 -17.714,-22.776c-10.01,0.081 -16.741,7.862 -16.62,23.052c0.082,10.511 2.968,17.152 7.695,20.511c-7.413,-2.952 -12.033,-10.068 -12.13,-22.21c-0.106,-13.47 8.501,-23.66 21.308,-23.762" fill="#afafaf"/></g></g></svg>