<svg xmlns="http://www.w3.org/2000/svg" width="52.378" height="108"><g fill-rule="evenodd" stroke-miterlimit="10" data-paper-data="{&quot;isPaintingLayer&quot;:true}" style="mix-blend-mode:normal"><path fill="#e56c1a" d="M0 74.673c0-14.464 11.725-26.191 26.189-26.191s26.189 11.726 26.189 26.19V108H0z"/><path fill="#e56c1a" d="M26.22 69.96c-2.84.005-5.622-.79-8.03-2.295-4.293-2.682-7.15-7.45-7.15-12.885 0-8.384 6.796-15.18 15.18-15.18S41.4 46.396 41.4 54.78s-6.796 15.18-15.18 15.18"/><path fill="#f2bd7c" d="M26.22 62.64a7.86 7.86 0 1 1 0-15.72 7.86 7.86 0 0 1 0 15.72" data-paper-data="{&quot;origPos&quot;:null}"/><path fill="#f3d7b4" stroke="#f3d7b4" stroke-linecap="round" stroke-linejoin="round" stroke-width="10.476" d="m26.16 53.76.36-9.48" data-paper-data="{&quot;origPos&quot;:null}"/><path fill="#f3d7b4" d="M36.839 8.76c5.9 0 10.682 4.782 10.682 10.682V29.7c0 11.565-9.375 20.94-20.94 20.94-11.565 0-20.94-9.375-20.94-20.94v-4.607a7.853 7.853 0 0 0 7.853-7.852v-.596c0-4.309 3.458-7.862 7.766-7.885h15.578" data-paper-data="{&quot;origPos&quot;:null}"/><path fill="#f3d7b4" d="M38.279 9.6c5.9 0 10.682 4.782 10.682 10.682V30.54c0 11.565-9.375 20.94-20.94 20.94-11.565 0-20.94-9.375-20.94-20.94v-4.607a7.852 7.852 0 0 0 7.852-7.852v-.596c0-4.309 3.459-7.862 7.767-7.885h15.578" data-paper-data="{&quot;origPos&quot;:null}"/><path fill="#212121" d="M38.13 0c5.981 0 10.83 4.848 10.83 10.828v11.047c0-6.101-4.947-11.047-11.049-11.047H21.796c-4.456.025-8.033 3.699-8.033 8.155v.616A8.122 8.122 0 0 1 5.64 27.72V10.828c0-.172.005-.342.013-.512.002-.054.007-.107.01-.161.018-.29.047-.579.088-.866l.024-.167c.021-.133.045-.266.071-.398.006-.03.011-.062.018-.092.033-.162.07-.322.11-.48.011-.045.024-.088.036-.133.031-.115.063-.229.097-.342l.053-.166c.034-.103.068-.206.104-.308l.059-.163c.04-.11.084-.22.13-.328.016-.042.032-.084.05-.125.063-.148.128-.293.198-.438.015-.032.032-.063.048-.095.055-.113.111-.224.171-.334l.082-.149c.133-.239.274-.472.425-.7l.088-.133c.089-.13.18-.259.274-.385l.028-.036c.086-.115.176-.228.266-.339l.107-.126c.173-.205.354-.404.542-.596l.122-.125c.087-.086.176-.17.266-.254l.08-.074c.116-.105.234-.207.354-.307l.122-.098c.21-.17.425-.33.647-.483.051-.035.101-.071.153-.105.091-.06.183-.12.276-.177l.129-.081c.134-.08.27-.158.406-.233l.123-.064c.101-.054.202-.106.305-.156.056-.028.112-.054.168-.08.244-.114.492-.22.744-.315l.163-.062A10.83 10.83 0 0 1 16.47 0h21.66"/><path fill="#f3d7b4" d="M.36 31.68a5.76 5.76 0 1 1 11.52 0 5.76 5.76 0 0 1-11.52 0" data-paper-data="{&quot;origPos&quot;:null}"/><path fill="#f2bd7c" d="M2.88 31.462c0-1.536 1.236-2.782 2.76-2.782 1.524 0 2.76 1.246 2.76 2.782v.556c0 1.536-1.236 2.782-2.76 2.782-1.524 0-2.76-1.246-2.76-2.782v-.556" data-paper-data="{&quot;origPos&quot;:null}"/><path fill="#f3d7b4" d="M5.64 20.88h8.76a7.59 7.59 0 0 1-.568 1.08H5.64zm0-2.16h9.24a7.14 7.14 0 0 1-.181 1.08H5.64z" data-paper-data="{&quot;origPos&quot;:null}"/><path fill="#f2bd7c" d="M19.08 34.08a4.2 4.2 0 1 1-8.4 0 4.2 4.2 0 0 1 8.4 0m27.96 0a4.2 4.2 0 1 1-8.4 0 4.2 4.2 0 0 1 8.4 0" data-paper-data="{&quot;origPos&quot;:null}"/><path fill="#212121" d="M24 24.36c0 2.187-1.209 3.96-2.7 3.96s-2.7-1.773-2.7-3.96c0-2.187 1.209-3.96 2.7-3.96s2.7 1.773 2.7 3.96m17.76 0c0 2.187-1.209 3.96-2.7 3.96s-2.7-1.773-2.7-3.96c0-2.187 1.209-3.96 2.7-3.96s2.7 1.773 2.7 3.96"/><path fill="none" stroke="#212121" stroke-linecap="round" stroke-linejoin="round" stroke-width="2.095" d="M35.04 35.52c0 2.916-2.337 5.28-5.22 5.28-2.883 0-5.22-2.364-5.22-5.28"/><path fill="none" stroke="#f2bd7c" stroke-linecap="round" stroke-linejoin="round" stroke-width="2.095" d="M29.88 20.4v6.695L31 28.186a3 3 0 0 1 0 4.324l-1.12 1.09" data-paper-data="{&quot;origPos&quot;:null}"/><path fill="#fff" d="M31.43 86.43V65.86"/><path fill="none" stroke="#fff" stroke-linecap="round" stroke-linejoin="round" stroke-width="2.095" d="M31.43 86.43V65.86"/><path fill="#fff" d="M20.948 86.43V65.86"/><path fill="none" stroke="#fff" stroke-linecap="round" stroke-linejoin="round" stroke-width="2.095" d="M20.948 86.43V65.86"/></g></svg>