<svg version="1.1" xmlns="http://www.w3.org/2000/svg" xmlns:xlink="http://www.w3.org/1999/xlink" width="59.29987" height="118.16803" viewBox="0,0,59.29987,118.16803"><g transform="translate(-210.19409,-120.10155)"><g data-paper-data="{&quot;isPaintingLayer&quot;:true}" fill-rule="evenodd" stroke="none" stroke-width="1" stroke-linecap="butt" stroke-linejoin="miter" stroke-miterlimit="10" stroke-dasharray="" stroke-dashoffset="0" style="mix-blend-mode: normal"><path d="M236.552,233.311l-0.507,3.19h-0.61l-0.136,-0.86c-1.187,0.729 -2.613,1.155 -3.877,1.759c-1.239,0.521 -2.871,1.505 -3.982,0.268c-1.468,-1.759 1.184,-4.085 2.896,-5.145l5.846,0.173c0.052,0.203 0.355,0.406 0.366,0.61z" fill="#343434"/><path d="M228.078,235.474c0,0 0.435,-1.882 2.395,-2.82h5.812c0,0 -4.104,4.099 -8.207,2.82" data-paper-data="{&quot;origPos&quot;:null}" fill="#795b4d"/><path d="M244.127,232.523c1.714,1.061 4.365,3.386 2.899,5.145c-1.11,1.241 -2.737,0.261 -3.977,-0.266c-1.265,-0.598 -2.696,-1.033 -3.88,-1.761l-0.134,0.859h-0.612l-0.51,-3.19l0.008,-0.003c0.012,-0.205 0.315,-0.408 0.362,-0.61l5.844,-0.174" fill="#343434"/><path d="M246.39,235.474c-4.104,1.279 -8.209,-2.82 -8.209,-2.82h5.815c1.958,1.02 2.395,2.82 2.395,2.82" data-paper-data="{&quot;origPos&quot;:null}" fill="#795b4d"/><path d="M249.05,207.842l-4.948,24.891h-5.858l-0.874,-18.047h-0.276l-0.875,18.047h-5.854l-4.947,-24.891h14.862z" data-paper-data="{&quot;origPos&quot;:null}" fill="#795b4d"/><path d="M249.05,207.842l-1.188,15.82l-21.256,0.016l-1.188,-15.836h14.862z" fill="#343434"/><path d="M225.419,203.05h23.444v5.306h-23.443z" fill="#343434"/><path d="M210.19518,174.46382c7.772,12.05 18.136,1.995 14.612,-8.66c-2.56,-7.737 11.332,2.516 11.332,2.516c0,0 -8.135,22.419 -15.191,22.751c-7.058,0.334 -10.775,-10.637 -10.754,-16.607" data-paper-data="{&quot;origPos&quot;:null}" fill="#3a290f"/><path d="M215.069,201.787c0.238,-2.239 1.694,-3.925 3.254,-3.756c0.834,0.09 1.531,0.69 1.96,1.578c0.45937,0.46315 0.84699,0.99232 1.15,1.57c0.873,1.652 0.967,3.322 0.202,3.732c-0.41,0.214 -0.982,0.025 -1.563,-0.453c-0.615,1.108 -1.591,1.79 -2.61,1.682c-1.555,-0.163 -2.632,-2.115 -2.393,-4.353M262.44,166.6c0.55,-0.11 1.146,0.313 1.65,1.066c1.11,-1.066 2.479,-1.51 3.62,-1.025c1.751,0.74 2.308,3.378 1.244,5.892c-1.063,2.514 -3.348,3.948 -5.099,3.208c-0.942,-0.4 -1.535,-1.341 -1.718,-2.522c-0.336,-0.61 -0.612,-1.373 -0.777,-2.226c-0.43,-2.227 0.051,-4.197 1.08,-4.393" data-paper-data="{&quot;origPos&quot;:null}" fill="#795b4d"/><path d="M266.796,176.271c0,0 -4.196,8.799 -7.037,9.828c-2.045,0.74 -8.676,-1.776 -10.116,-2.341c1.476,5.762 0.5,12.248 0.641,17.904c0.101,3.791 1.502,6.437 1.502,6.437h-10.502c-3.182,-0.425 -4.136,-4.328 -4.136,-4.328c0,0 -0.86,3.985 -4.467,4.328h-9.876c0,0 1.383,-2.65 1.46,-6.434c0.104,-5.118 -0.974,-10.583 0.217,-16.05c-0.225,0.435 -0.585,1 -1.17,1.832c-1.619,2.288 -2.847,11.961 -2.847,11.961l-4.54,0.005c0,0 1.335,-13.394 4.823,-17.844c1.697,-2.172 7.822,-5.379 7.822,-5.379c-0.00169,0.00318 -0.00303,0.00653 -0.004,0.01c1.956,-1.237 6.974,-1.453 6.974,-1.453l1.665,0.072h0.145l1.669,-0.057c0,0 5.118,0.181 7.031,1.448c-0.008,-0.012 -0.008,-0.02 -0.008,-0.02l11.062,4.023l5.148,-6.181z" fill="#0771b7"/><path d="M246.468,187.392c0.0011,0.31287 -0.25163,0.5674 -0.5645,0.5685c-0.31287,0.0011 -0.5674,-0.25163 -0.5685,-0.5645c-0.0011,-0.31287 0.25163,-0.5674 0.5645,-0.5685c0.31287,-0.0011 0.5674,0.25163 0.5685,0.5645" fill="#f7b90b"/><path d="M245.515,186.402c-0.099,0.197 -0.319,0.6 -0.176,1.002c-1.599,0 -2.9,-0.24 -2.906,-1.002h3.082M246.283,186.402c0.101,0.205 0.323,0.6 0.177,1.002c1.603,0 2.901,-0.238 2.903,-1.002h-3.08M261.229,175.264l0.73,-0.877l4.54,2.482c-0.135,0.264 -0.309,0.606 -0.511,0.995l-4.758,-2.6zM260.78,175.8l4.884,2.668c-0.17493,0.33169 -0.35663,0.65976 -0.545,0.984l-5.069,-2.778l0.73,-0.875zM216.367,196c0.05,-0.311 0.109,-0.684 0.174,-1.121h4.625c-0.066,0.437 -0.13,0.811 -0.19,1.121h-4.609M216.114,197.805c0.043,-0.311 0.092,-0.68 0.15,-1.117h4.6c-0.065,0.437 -0.126,0.807 -0.177,1.117h-4.573" fill="#f7b90b"/><path d="M237.811,192.255l-0.502,0.752l-0.714,-1.039l-1.834,-4.163l-2.133,-12.778c1.564,-0.229 2.912,-0.28 2.912,-0.28l1.665,0.073h0.145l1.669,-0.057c1.06175,0.04005 2.12059,0.13685 3.172,0.29l-2.403,12.75l-1.978,4.452z" fill="#ffffff"/><path d="M235.215,184.722c-1.01,-3.709 1.023,-6.996 1.023,-6.996c-0.29317,-0.24293 -0.57041,-0.50447 -0.83,-0.783l1.871,-1.623l2.07,1.623c0,0 -0.405,0.46 -0.893,0.783c0,0 1.924,3.7 0.893,7.001c-0.449,1.429 -0.893,5.914 -0.893,5.914l-1.16,2.335l-1.168,-2.205c0,0 -0.512,-4.572 -0.913,-6.05" fill="#e63744"/><path d="M237.282,174.906c0,1.196 -3.363,3.698 -3.363,3.698l-0.025,-0.063c-0.222,0.195 -0.466,0.305 -0.769,0.252c-0.5,-0.083 -0.363,-0.329 -0.609,-0.687c-0.275,-0.36 -0.523,-0.458 -0.663,-0.956c-0.159,-0.635 -0.163,-1.314 -0.112,-1.955c1.908,-0.35 3.798,-0.407 3.798,-0.407l1.667,0.118h0.076" fill="#ffffff"/><path d="M231.767,175.2c-0.053,0.76 -0.02,1.392 0.12,1.931c0.09,0.337 0.238,0.492 0.412,0.673c0.076,0.083 0.161,0.171 0.244,0.278c0.082,0.124 0.124,0.232 0.159,0.326c0.07,0.187 0.114,0.3 0.425,0.352c0.27,0.046 0.506,-0.031 0.746,-0.242l0.021,-0.017l0.026,0.047c0.272,-0.203 3.282,-2.445 3.333,-3.642h-0.047l-1.67,-0.102c0,0 -1.887,0.055 -3.769,0.396M233.275,178.833c-0.05226,0.00086 -0.10449,-0.00316 -0.156,-0.012c-0.348,-0.057 -0.405,-0.204 -0.478,-0.391c-0.03106,-0.11018 -0.08115,-0.21408 -0.148,-0.307c-0.084,-0.112 -0.163,-0.193 -0.238,-0.277c-0.18,-0.183 -0.33,-0.349 -0.43,-0.697c-0.138,-0.555 -0.176,-1.202 -0.117,-1.977l0.006,-0.026l0.018,-0.001c1.25169,-0.22026 2.51634,-0.35922 3.786,-0.416l1.688,0.09h0.106c0,1.246 -3.238,3.664 -3.376,3.764l-0.02,0.018l-0.022,-0.02c-0.202,0.17 -0.4,0.252 -0.62,0.252" fill="#666767"/><path d="M242.432,177.358c-0.299,0.824 -0.795,1.21 -1.651,1.21l-0.074,0.033c0,0 -3.367,-2.498 -3.367,-3.696h0.01l1.67,-0.1c0,0 1.824,0.013 3.704,0.34c0.21,0.677 -0.065,1.605 -0.292,2.213" fill="#ffffff"/><path d="M237.37,174.85c0.054,1.191 3.141,3.524 3.344,3.678l0.061,-0.008c0.842,-0.002 1.33,-0.354 1.633,-1.175c0.343,-0.926 0.443,-1.658 0.29,-2.174c-1.21183,-0.20098 -2.43475,-0.32822 -3.662,-0.381l-1.665,0.06zM240.698,178.594l-0.008,-0.011c-0.14,-0.099 -3.376,-2.518 -3.376,-3.764h0.035l1.667,-0.072c0.02,0 1.856,0.049 3.715,0.37h0.018l0.006,0.015c0.163,0.535 0.067,1.287 -0.292,2.239c-0.307,0.834 -0.826,1.206 -1.682,1.206z" fill="#666767"/><path d="M237.329,193.014c-3.94,-2.586 -6.333,-11.49 -6.333,-11.49l1.063,-2.051l-2.092,-0.535l-0.514,-3.174c1.109,-0.418 2.58,-0.674 3.8,-0.828c0.939,5.198 4.076,18.079 4.076,18.079" fill="#0b4768"/><path d="M237.286,193.015c0,0 3.135,-12.881 4.077,-18.079c1.218,0.154 2.694,0.41 3.802,0.828l-0.52,3.174l-2.09,0.535l1.067,2.051c0,0 -2.392,8.904 -6.336,11.49" fill="#0b4768"/><path d="M238.009,196.046c-0.01841,0.31955 -0.28292,0.56926 -0.603,0.56926c-0.32008,0 -0.58459,-0.2497 -0.603,-0.56926c0,-0.33303 0.26997,-0.603 0.603,-0.603c0.33303,0 0.603,0.26997 0.603,0.603M238.009,198.719c0,0.33303 -0.26997,0.603 -0.603,0.603c-0.33303,0 -0.603,-0.26997 -0.603,-0.603c0,-0.33303 0.26997,-0.603 0.603,-0.603c0.33303,0 0.603,0.26997 0.603,0.603M238.009,201.453c-0.00164,0.3329 -0.2711,0.60236 -0.604,0.604c-0.33257,-0.00165 -0.60145,-0.27143 -0.602,-0.604c0.01841,-0.31955 0.28292,-0.56926 0.603,-0.56926c0.32008,0 0.58459,0.2497 0.603,0.56926" fill="#f7b90b"/><path d="M258.647,155.256c1.104,0.712 1.83,1.926 1.83,3.303c0,2.189 -1.846,3.971 -4.128,3.971c-0.063,0 -0.126,-0.005 -0.189,-0.005c-3.702,6.623 -10.777,11.1 -18.902,11.1c-8.139,0 -15.219,-4.485 -18.914,-11.122c-0.152,0.016 -0.305,0.027 -0.459,0.027c-2.282,0 -4.134,-1.781 -4.134,-3.971c0,-1.484 0.846,-2.772 2.094,-3.459c-0.144,-1.015 -0.217,-2.048 -0.217,-3.1c0,-11.942 9.684,-21.622 21.63,-21.622c11.946,0 21.631,9.681 21.631,21.622c0,1.107 -0.086,2.189 -0.242,3.256" data-paper-data="{&quot;origPos&quot;:null}" fill="#795b4d"/><path d="M231.229,151.096c-0.772,-0.174 -0.908,-1.201 -3.386,-0.74c-0.779,0.18 -2.417,1.156 -2.732,1.808c-0.316,0.652 -0.088,-2.392 2.457,-3.522c1.835,-0.675 2.457,-0.642 3.977,-0.642c1.52,0 1.987,0.907 1.766,1.65c0,0 -0.503,1.803 -2.082,1.446zM245.134,151.096c0.772,-0.174 0.908,-1.201 3.386,-0.74c0.779,0.18 2.417,1.156 2.732,1.808c0.316,0.652 0.087,-2.392 -2.457,-3.522c-1.835,-0.675 -2.457,-0.642 -3.977,-0.642c-1.52,0 -1.987,0.907 -1.766,1.65c0,0 0.503,1.803 2.082,1.446z" data-paper-data="{&quot;origPos&quot;:null}" fill="#3a290f"/><path d="M231,157c0,1.657 -0.895,3 -2,3c-1.105,0 -2,-1.343 -2,-3c0,-1.657 0.895,-3 2,-3c1.105,0 2,1.343 2,3M249,157c0,1.657 -0.895,3 -2,3c-1.105,0 -2,-1.343 -2,-3c0,-1.657 0.895,-3 2,-3c1.105,0 2,1.343 2,3" data-paper-data="{&quot;origPos&quot;:null}" fill="#3a290f"/><path d="M238.02,160.069c-1.125,0.153 -3.02,1.834 -3.02,1.834c0,0 0.207,-1.009 0.503,-1.299c0.8,-1.156 2.487,-1.604 2.487,-1.604c0,0 2.173,0.703 2.65,1.588c0.443,0.824 0.34,1.238 0.34,1.238c0,0 -2.121,-1.871 -2.96,-1.756z" fill="#eeac6c"/><path d="M231.2,163.696c0,0 6.897,3.208 13.172,-0.397c0,0 -1.39,5.47 -5.95,5.561c-4.115,0.122 -4.984,-1.492 -5.477,-1.956c-0.492,-0.463 -1.42,-1.772 -1.745,-3.208" fill="#eeac6c"/><path d="M259.742,149.181c0.034,2.542 -1.096,6.075 -1.096,6.075c0,0 -5.742,-6.799 -9.25,-8.707c-4.284,-2.328 -6.416,1.105 -10.246,-1.918c-0.636,-0.502 -1.816,-1.826 -1.816,-1.826c0,0 -1.439,1.454 -1.822,1.826c-4.306,4.211 -7.531,-0.706 -11.154,1.841c-4.61,3.236 -8.51,8.628 -8.51,8.628c0,0 -1.34,-1.532 -1.153,-6.157c0.053,-1.33 0.696,-4.285 1.753,-7.292c3.806,-7.633 11.692,-12.88 20.809,-12.88c10.47,0 19.323,6.925 22.228,16.436c0.14636,1.32004 0.23211,2.6461 0.257,3.974" data-paper-data="{&quot;origPos&quot;:null}" fill="#3a290f"/><path d="M235.568,176.216c-1.015,0 -1.83,-2.122 -1.83,-3.132h7.192c0,1.009 -0.816,3.132 -1.83,3.132h-3.532" data-paper-data="{&quot;origPos&quot;:null}" fill="#795b4d"/><path d="M234.51,175.436c-0.41,-0.613 -0.689,-1.473 -0.756,-2.093c1.137,0.189 2.31,0.283 3.503,0.283c1.247,0 2.47,-0.109 3.66,-0.309l-0.01,0.014l-6.397,2.105" fill="#eeac6c"/><path d="M232.494,120.393c2.786,0.984 7.017,9.5 7.017,9.5l-21.862,10.567c0,0 -4.317,-8.713 -3.091,-11.398c2.066,-4.534 13.24,-10.332 17.936,-8.669" fill="#0771b7"/><path d="M228.257,132.37c0.13322,0.2796 0.10321,0.60961 -0.07825,0.8606c-0.18146,0.25098 -0.48545,0.38291 -0.79271,0.34404c-0.30726,-0.03888 -0.56881,-0.24236 -0.68204,-0.53063c-0.1711,-0.42554 0.02759,-0.90995 0.44822,-1.09278c0.42063,-0.18283 0.91037,0.00237 1.10478,0.41778" fill="#f7b90b"/><path d="M226.362,131.577l-4.225,1.833c0.46,1.04 2.385,0.599 4.58,-0.354c-0.438,-0.458 -0.371,-1.146 -0.355,-1.479M227.413,131.123l4.223,-1.832c0.452,1.053 -1.189,2.152 -3.383,3.099c-0.04,-0.634 -0.582,-1.051 -0.84,-1.267" fill="#f7b90b"/><path d="M216.114,130.315c0,0 -0.028,-0.01 -0.032,-0.028c-0.002,-0.015 0.006,-0.033 0.026,-0.035c4.065,-0.923 14.26,-4.873 15.547,-8.357c0,-0.017 0.02,-0.025 0.04,-0.02c0.013,0.006 0.023,0.026 0.019,0.042c-0.712,1.918 -3.998,3.842 -6.633,5.115c-3.353,1.623 -6.917,2.817 -8.961,3.283z" fill="#04476b"/></g></g></svg>