<svg xmlns="http://www.w3.org/2000/svg" width="65.588" height="113.249"><g fill-rule="evenodd" stroke-miterlimit="10" data-paper-data="{&quot;isPaintingLayer&quot;:true}" style="mix-blend-mode:normal"><path fill="#4f2a11" d="M31.706 107.536c.063.194-.02.483-.188.749-.557.861-1.525 1.453-2.35 2.029-1.274.877-2.887 1.36-4.298 2.035-1.273.538-2.952 1.563-4.093.283-1.506-1.813-.23-4.006 1.535-5.096zm10.679 0h-9.393c-.064.194.02.483.19.749.557.861 1.527 1.453 2.347 2.029 1.278.877 2.888 1.36 4.298 2.035 1.275.538 2.954 1.563 4.093.283 1.509-1.813.23-4.006-1.534-5.096z"/><path fill="#545c32" d="m44.503 81.69-1.92 25.846H32.86l-.368-18.599h-.284l-.373 18.599H22.11L20.195 81.69z"/><path fill="#311a0b" d="M63.031 56.921c.536.112 1.578 1.265 1.328 1.755-.471.944-3.251.535-4.258-.019a.522.522 0 0 1-.152.287c-.849.682-3.338-.962-3.933-1.88a.434.434 0 0 1-.052-.092c-.082.179-.189.308-.319.346-.969.299-2.512-1.801-2.899-2.953-.112.114-.232.184-.349.184-1.083.018-2.025-2.772-1.95-3.875a.311.311 0 0 1-.156-.012c-1.042-.318-1.096-3.303-.678-4.313a1.33 1.33 0 0 1 .142-.254.265.265 0 0 1-.091-.027c-.981-.476-.571-3.429-.004-4.363-.977-.476-.566-3.433.004-4.361.166-.283.698-.733 1.122-1.073-.071-.382-.112-.736-.052-1.058.095-.543 1.23-1.606 1.723-1.367.977.476.569 3.427.002 4.361.975.482.565 3.435-.002 4.368a2.084 2.084 0 0 1-.193.24c.61.893.589 3.117.242 3.96a1.14 1.14 0 0 1-.125.228c.55.828.94 2.153.96 2.94.895.651 1.827 2.141 1.981 2.91.01.054.017.11.02.165 1.032.352 2.264 1.285 2.66 1.895.054.083.098.171.132.264 1.027-.002 2.252.298 2.789.635.275.176.713.713 1.05 1.146.382-.061.733-.096 1.058-.036M14.738 41.706c.567.934.977 3.885-.002 4.363a.328.328 0 0 1-.087.025c.053.08.1.166.138.254.414 1.012.363 3.997-.678 4.312a.3.3 0 0 1-.155.013c.076 1.103-.869 3.893-1.953 3.876-.115 0-.237-.071-.351-.183-.382 1.15-1.927 3.25-2.894 2.953-.137-.039-.237-.166-.32-.346a.64.64 0 0 1-.055.092c-.595.916-3.078 2.562-3.926 1.88a.475.475 0 0 1-.157-.288c-1.011.555-3.786.964-4.261.02-.246-.491.796-1.643 1.334-1.755.318-.061.672-.025 1.057.035.333-.434.768-.969 1.048-1.144.538-.34 1.766-.639 2.79-.635.033-.094.077-.183.131-.266.393-.611 1.627-1.541 2.66-1.893.003-.055.008-.11.017-.165.156-.77 1.086-2.26 1.986-2.91.024-.79.411-2.112.96-2.941-.057-.081-.1-.16-.126-.23-.349-.842-.368-3.067.241-3.96a1.575 1.575 0 0 1-.193-.238c-.564-.932-.98-3.885-.002-4.369-.562-.935-.978-3.885.002-4.36.492-.238 1.624.825 1.724 1.368.059.322.015.676-.055 1.056.431.34.959.792 1.125 1.073.567.93.979 3.885.002 4.363" data-paper-data="{&quot;origPos&quot;:null}"/><path fill="#755a4d" d="M63.753 39.286c1.803.764 2.374 3.484 1.279 6.077-1.094 2.595-3.442 4.072-5.242 3.309-1.031-.433-1.66-1.504-1.803-2.822a7.843 7.843 0 0 1-.763-2.188c-.45-2.237.052-4.217 1.106-4.418.575-.11 1.192.322 1.71 1.092 1.137-1.092 2.542-1.546 3.713-1.05" data-paper-data="{&quot;origPos&quot;:null}"/><path fill="#eeeeed" d="m58.14 46.85 4.669 2.32s-4.311 9.091-7.234 10.153c-2.126.772-9.068-1.86-10.452-2.407 2.53 9.935 2.828 24.932 2.828 24.932v13.63H16.837l.004-13.63s.257-13.035 2.343-22.826c-.28.426-.685.914-1.206 1.654-1.661 2.362-2.93 12.34-2.93 12.34l-4.666.006s1.375-13.81 4.96-18.406c1.744-2.233 8.042-5.533 8.042-5.533v.028c1.976-1.308 7.22-1.508 7.22-1.508l1.72.163h.144l1.718-.138s5.35.116 7.279 1.447l11.382 4.147 5.293-6.372z"/><path fill="#d6843b" d="m27.313 102.894-17.063 3.433-5.492-27.41 17.067-3.438z"/><path fill="#e1e1e1" d="m25.754 100.653-14.93 3.01-4.782-23.896 14.929-3.004z"/><path fill="#b2b2b2" d="m12.627 77.197 1.616-.322c-.095-.38-.512-.614-.948-.527-.433.086-.725.464-.668.849zm5.092-1.022.35 1.763-8.531 1.715-.35-1.762 3.006-.605c-.101-.6.352-1.19 1.026-1.322.674-.139 1.315.232 1.455.824z"/><path fill="#6e6e6d" d="m16.49 80.149-8.841 1.78-.087-.44 8.842-1.777zm-4.276 1.778-4.387.885-.092-.442 4.39-.883zm8.405-.712-12.606 2.54-.09-.442 12.609-2.537zm-.123 1.007L8.2 84.698l-.09-.44 12.298-2.475zm.494.818L8.376 85.575l-.086-.437 12.61-2.54z"/><path fill="#755a4d" d="M9.747 75.78c.108-.97.424-1.807.885-2.476l4.351-.008c.04.07.098.166.13.24.428.415.832.97 1.182 1.616.9 1.705.993 3.433.207 3.85-.423.224-1.01.024-1.602-.466-.64 1.146-1.64 1.846-2.686 1.736-1.606-.167-2.709-2.182-2.467-4.492" data-paper-data="{&quot;origPos&quot;:null}"/><path fill="#91c78f" d="m32.49 66.223-.734-1.067-1.881-4.298-2.2-13.18a33.63 33.63 0 0 1 2.995-.3l1.716.068h.146l1.716-.05s1.537.053 3.26.313l-2.47 13.145-2.027 4.599z"/><path fill="#d0d0d0" d="M32.51 66.234c-4.051-2.668-6.514-11.854-6.514-11.854l1.097-2.116-2.16-.552-.522-3.27c1.139-.434 2.65-.698 3.91-.855.966 5.36 4.19 18.647 4.19 18.647"/><path fill="#d0d0d0" d="M32.468 66.234s3.224-13.287 4.19-18.647c1.26.157 2.774.421 3.91.855l-.527 3.27-2.152.552 1.098 2.116s-2.47 9.186-6.52 11.854"/><path fill="#4f4f4f" d="M33.207 81.867a.618.618 0 1 1-1.234 0 .618.618 0 1 1 1.234 0m0-6.159a.617.617 0 1 1-1.234 0 .617.617 0 0 1 1.234 0m0-6.347a.617.617 0 1 1-1.234 0 .618.618 0 1 1 1.234 0"/><path fill="#b2b2b2" d="M43.58 66.062c0 .128-.11.238-.241.238h-.026a.243.243 0 0 1-.246-.239v-5.29c0-.133.108-.243.246-.243h.026c.132 0 .242.11.242.242v5.291z"/><path fill="#0771b7" d="M43.313 57.965c.169 0 .33.124.33.295v2.34c0 .166-.161.316-.33.316h-.03c-.168 0-.278-.151-.278-.316v-1.998h-.065v1.66c0 .036-.053.076-.09.076-.034 0-.036-.041-.036-.076v-2.051c0-.035.002-.053.036-.053.037 0 .09.018.09.053v.008h.04c.029-.126.15-.254.303-.254h.03"/><path fill="#d0d0d0" d="M38.268 61.104h5.695v7.824h-5.695z"/><path fill="#878888" d="M38.333 62.585h5.63v.059h-5.63z"/><path fill="#4f4f4f" d="M23.593 62.053c.004.246-.974.474-.974 0-.01-14.944 7.01-15.532 7.01-15.532l-.266.778s-5.873 1.2-5.77 14.753"/><path fill="#b2b2b2" d="M25.078 63.412a1.971 1.971 0 0 1-1.973 1.975 1.976 1.976 0 0 1 0-3.952c1.09 0 1.973.886 1.973 1.976"/><path fill="#4f4f4f" d="M39.94 54.119a2.73 2.73 0 0 1 2.254 2.697c0 .083-.003.165-.008.248h-.83a1.913 1.913 0 0 0-1.89-2.16 1.914 1.914 0 0 0-1.893 2.16h-.83a2.74 2.74 0 0 1 2.235-2.945c.104-5.716-3.798-6.821-3.798-6.821l-.26-.776s4.873 1.032 5.02 7.597"/><path fill="#b2b2b2" d="M36.874 57.065h.57c.352 7.759 4.152 7.495 4.152 7.495v.575c-4.54.064-4.723-8.07-4.723-8.07z"/><path fill="#908f90" d="M42.02 64.842c0 .17-.202.306-.45.306-.25 0-.453-.136-.453-.307 0-.169.203-.311.453-.311.248 0 .45.142.45.311"/><path fill="#b2b2b2" d="M42.084 57.065s-.104 8.134-4.645 8.07v-.575s3.723.264 4.074-7.495h.57z"/><path fill="#908f90" d="M36.937 64.841c0-.169.199-.311.453-.311.247 0 .446.142.446.311 0 .171-.2.307-.446.307-.254 0-.454-.136-.454-.306"/><path fill="#755a4d" d="M54.087 27.649c1.14.74 1.892 1.992 1.892 3.418 0 2.27-1.908 4.11-4.263 4.11-.067 0-.13-.002-.195-.007-3.819 6.85-11.12 11.487-19.505 11.487-8.396 0-15.7-4.643-19.514-11.505a4.662 4.662 0 0 1-.475.025c-2.353 0-4.263-1.84-4.263-4.11 0-1.532.873-2.867 2.16-3.58a22.51 22.51 0 0 1-.23-3.2c0-12.36 9.998-22.374 22.322-22.374 12.327 0 22.317 10.014 22.317 22.374 0 1.144-.082 2.267-.246 3.362" data-paper-data="{&quot;origPos&quot;:null}"/><path fill="#311a0b" d="M26.415 24.388c-.772-.174-.908-1.201-3.386-.74-.78.18-2.417 1.156-2.732 1.808-.316.652-.088-2.392 2.457-3.522 1.835-.675 2.457-.642 3.977-.642s1.987.907 1.766 1.65c0 0-.503 1.803-2.082 1.446zm13.905 0c.772-.174.908-1.201 3.386-.74.779.18 2.417 1.156 2.732 1.808.316.652.087-2.392-2.457-3.522-1.835-.675-2.457-.642-3.977-.642s-1.987.907-1.766 1.65c0 0 .503 1.803 2.082 1.446zM26.186 30.292c0 1.657-.895 3-2 3s-2-1.343-2-3 .895-3 2-3 2 1.343 2 3m18 0c0 1.657-.895 3-2 3s-2-1.343-2-3 .895-3 2-3 2 1.343 2 3" data-paper-data="{&quot;origPos&quot;:null}"/><path fill="#eeac6c" d="M33.206 33.361c-1.125.153-3.02 1.834-3.02 1.834s.207-1.009.503-1.299c.8-1.156 2.487-1.604 2.487-1.604s2.173.703 2.65 1.588c.443.824.34 1.238.34 1.238s-2.121-1.871-2.96-1.756z"/><path fill="#b9482b" d="M26.386 36.988s6.897 3.208 13.172-.397c0 0-1.39 5.47-5.95 5.561-4.115.122-4.984-1.492-5.477-1.956-.492-.463-1.42-1.772-1.745-3.208" data-paper-data="{&quot;origPos&quot;:null}"/><path fill="#755a4d" d="M30.775 49.083c-1.044 0-1.89-2.194-1.89-3.24h7.426c0 1.046-.842 3.24-1.888 3.24h-3.648" data-paper-data="{&quot;origPos&quot;:null}"/><path fill="#eeac6c" d="M29.688 48.278c-.424-.635-.72-1.524-.781-2.167 2.448.4 4.945.39 7.39-.026l-.014.01-6.595 2.183"/><path fill="#311a0b" d="M55.72 21.119c.034 2.625-1.13 6.278-1.13 6.278s-5.928-7.031-9.544-9.003c-4.42-2.41-6.622 1.141-10.572-1.987-.656-.517-1.874-1.89-1.874-1.89s-1.484 1.506-1.88 1.89c-4.442 4.357-7.774-.728-11.508 1.905-4.757 3.346-8.781 8.924-8.781 8.924s-1.383-1.581-1.19-6.368c.053-1.375.719-4.432 1.808-7.538C14.977 5.43 23.114 0 32.519 0c10.807 0 19.939 7.162 22.936 17.008.164 1.52.25 2.941.264 4.111" data-paper-data="{&quot;origPos&quot;:null}"/></g></svg>