<svg xmlns="http://www.w3.org/2000/svg" xmlns:xlink="http://www.w3.org/1999/xlink" width="120" height="120"><defs><path id="a" d="M0 16.78h73.9V100H0z"/><path id="c" d="M0 16.78h73.9v83.218H0z"/></defs><g fill="none" fill-rule="evenodd"><g transform="translate(20 3.222)"><mask id="b" fill="#fff"><use xlink:href="#a"/></mask><path fill="#FEDE3D" d="M12.054 100s-40.06-83.22 25.86-83.22S59.034 100 59.034 100h-46.98z" mask="url(#b)"/></g><path fill="#FCEEB6" d="M42.406 103.222s-17.08-44.5 14.56-44.5c31.62 0 10.44 44.5 10.44 44.5h-25z"/><g transform="translate(20 3.222)"><mask id="d" fill="#fff"><use xlink:href="#c"/></mask><path fill="#EFC822" d="M37.914 16.778c-65.92 0-25.86 83.22-25.86 83.22s-17.94-72.04 24.9-72.04 22.08 72.04 22.08 72.04 44.8-83.22-21.12-83.22" mask="url(#d)"/></g></g></svg>