<svg xmlns="http://www.w3.org/2000/svg" width="112.982" height="118.23"><g fill-rule="evenodd" stroke-miterlimit="10" data-paper-data="{&quot;isPaintingLayer&quot;:true}" style="mix-blend-mode:normal"><path fill="#e7c5a0" stroke="#e7c5a0" stroke-width=".5" d="M56.897 80.48s6.887-2.064 7.577.47c.688 2.518-2.411.797-2.068 3.315.346 2.534 2.177 7.01-2.41 8.73-4.601 1.72-6.778-.922-6.199-3.91-10.91 1.845-18.253-4.005-18.253-4.005s7.343-7.917 17.22-10.215zm49.373-36.028c.262-.178 3.844-2.602 5.607 1.158 1.845 3.894 1.378 8.494-8.265 9.18 0 0-4.642 7.352-12.165 12.61.745-4.293-.813-13.132-1.02-14.22a18.636 18.636 0 0 0 3.926-4.844h.014c1.81-.38 3.63-.715 5.457-1.005 0 0 2.411-6.54 5.853-5.742 1.847.55.718 2.63.593 2.863m-24.067-10.89a3.786 3.786 0 0 0 3.79 3.786 3.785 3.785 0 0 0 3.787-3.785c0-.152-.027-.29-.041-.426l2.563-.745-3.017-.66c-.084-.153-.165-.302-.275-.442l1.488-2.091-2.563 1.128a3.765 3.765 0 0 0-1.942-.55 3.786 3.786 0 0 0-3.79 3.786m2.522 23.059s-.358.99-1.638 2.327c-1.007 1.045-2.592 2.284-5.03 3.414-3.1 1.432-7.577 2.656-13.996 3.028 0 0 6.268-11.632-5.676-16.23-11.944-4.584-19.976 2.823-19.976 2.823-8.431-3.622-5.855-12.227-.689-12.75 5.167-.51 4.299 5.507 6.723 5.507 2.397 0 5.152-16.685 5.152-16.685s.358 3.277 3.968 3.097c3.609-.18 4.477-9.127 4.477-9.127s7.577 6.194 10.331 5.686c2.647-.497.677-4.173.525-4.46 17.661 7.214 13.459-1.653 13.267-2.066.356.138 6.116 2.588 9.16 2.493-.151.48-.275 1.597.979 3 .909.992 2.673 4.266 3.623 8.302-1.198.44-11.683 4.86-11.2 21.642m2.218-29.104c-.359-.372-4.01-3.827-5.483 1.748 1.956-2.766 5.123-1.858 5.483-1.748M64.86 33.658c-2.935-5.066-5.594-.536-5.76-.232.235-.152 3.114-1.955 5.76.233m-4.244 1.679a3.96 3.96 0 0 0-1.735 1.033l-2.77-.413 1.985 1.624c-.07.167-.111.33-.152.497l-2.756 1.43 2.672.04c.028.153.042.292.084.429a3.77 3.77 0 0 0 4.642 2.67c2.011-.537 3.21-2.615 2.674-4.638a3.81 3.81 0 0 0-4.644-2.672m16.257 4.806c1.28-.262 2.397.688 2.41.702.22.177.54.153.73-.055a.51.51 0 0 0-.055-.732c-.054-.054-1.515-1.277-3.292-.934-1.254.262-2.315 1.252-3.128 2.932a.507.507 0 0 0 .234.688.446.446 0 0 0 .222.056.538.538 0 0 0 .468-.29c.675-1.377 1.486-2.175 2.411-2.367m5.193 15.032c1.239-2.421 1.378-5.96.426-8.535l-13.086 3.896c-.44.138 1.115 4.627 1.28 4.957 2.536 5.176 8.859 4.557 11.38-.318" data-paper-data="{&quot;origPos&quot;:null}"/><path fill="#cb4e88" d="M99.479 82.436s2.879-5.052 5.056-3.896c2.176 1.143 1.611 5.038.688 8.137-.922 3.097-1.488 5.974-8.375 4.13 3.209-2.52 2.632-8.371 2.632-8.371m-51.772 32.352s.068 2.078-3.817 3.016c.4-.398 1.999-2.41-.55-6.568-2.742-4.501-5.373-7.308-7.7-6.263.675-.456 1.515-.717 2.535-.743 7.466-.222 9.532 10.558 9.532 10.558"/><path fill="#eb77aa" d="M33.96 107.174c.316-.92.854-1.666 1.611-2.16.027-.015.04-.027.07-.041 2.327-1.047 4.958 1.763 7.7 6.263 2.549 4.159.95 6.168.55 6.568-1.018.232-2.327.4-3.994.425-4.133.055-5.276-2.643-6.076-6.65-.33-1.665-.302-3.177.139-4.405M20.775 26.706a4.448 4.448 0 0 1 1.309-5.933 4.77 4.77 0 0 0 3.238 1.253c.886-.001 1.754-.25 2.506-.717a4.443 4.443 0 0 1 1.282 3.14c0 2.464-2.011 4.46-4.477 4.46-.482 0-.938-.07-1.378-.22a4.445 4.445 0 0 1-2.48-1.983"/><path fill="#eb77aa" d="M27.828 21.31a4.75 4.75 0 0 1-2.506.717 4.765 4.765 0 0 1-3.238-1.255 4.768 4.768 0 0 1-1.584-3.564c0-.82.209-1.625.607-2.34a4.84 4.84 0 0 1 4.215-2.48 4.783 4.783 0 0 1 4.146 2.38v.016c.441.717.675 1.544.675 2.425a4.751 4.751 0 0 1-2.315 4.1"/><path fill="#fefefe" d="M62.738 39.66a1.487 1.487 0 0 1-1.833-1.044 1.507 1.507 0 0 1 1.063-1.832 1.497 1.497 0 0 1 1.83 1.047c.208.797-.26 1.625-1.06 1.83"/><path fill="#3f3a3a" d="M86.461 34.36a1.49 1.49 0 0 0 1.488-1.486 1.49 1.49 0 0 0-1.488-1.486c-.827 0-1.502.662-1.502 1.486a1.493 1.493 0 0 0 1.501 1.487m-.468-4.585a3.751 3.751 0 0 1 1.943.552l2.563-1.13-1.488 2.093c.105.139.197.286.275.442l3.017.66-2.562.743c.013.137.04.275.04.427a3.785 3.785 0 0 1-3.788 3.785 3.787 3.787 0 1 1 0-7.572"/><path fill="#fefefe" d="M84.959 32.874a1.494 1.494 0 0 1 2.988 0 1.49 1.49 0 0 1-1.486 1.487c-.827 0-1.502-.66-1.502-1.487"/><path fill="#3f3a3a" d="M63.799 37.83a1.494 1.494 0 0 0-1.833-1.044 1.502 1.502 0 0 0-1.06 1.83 1.484 1.484 0 0 0 1.832 1.044c.799-.204 1.267-1.032 1.061-1.83m1.46.18c.537 2.023-.663 4.1-2.673 4.638a3.772 3.772 0 0 1-4.643-2.67c-.041-.138-.054-.277-.082-.427l-2.673-.041 2.755-1.432c.038-.169.09-.334.152-.495l-1.983-1.624 2.768.412a3.967 3.967 0 0 1 1.737-1.033 3.81 3.81 0 0 1 4.642 2.672"/><path fill="#cd7c41" d="M73.538 42.056c.813-1.678 1.873-2.67 3.128-2.931 1.777-.344 3.236.879 3.293.936a.51.51 0 0 1 .054.73.536.536 0 0 1-.731.055c-.011-.014-1.129-.965-2.411-.702-.922.19-1.734.992-2.41 2.368a.536.536 0 0 1-.469.289.44.44 0 0 1-.22-.056.506.506 0 0 1-.234-.69" data-paper-data="{&quot;origPos&quot;:null}"/><path fill="#e50113" d="m69.406 50.537 13.087-3.895c.95 2.573.813 6.113-.427 8.535-2.522 4.875-8.845 5.493-11.379.316-.166-.33-1.722-4.817-1.281-4.957z"/><path fill="#e7c5a0" stroke="#e7c5a0" stroke-width=".5" d="M63.302 65.722c-1.253.51-3.981 1.487-7.576 1.914a28.495 28.495 0 0 1-5.484.152c-4.669-.304-10.043-1.804-15.277-5.837 4.132-3.263 3.444-9.968 3.444-9.968s8.032-7.406 19.976-2.822c11.944 4.598 5.675 16.23 5.675 16.23s-.261.125-.758.33m21.423-9.1c-.482-16.78 10.001-21.2 11.2-21.64.855 3.635 1.032 7.9-.688 11.66a20.257 20.257 0 0 1-.87 1.695h-.013a18.667 18.667 0 0 1-3.926 4.844c-2.948 2.617-5.703 3.442-5.703 3.442" data-paper-data="{&quot;origPos&quot;:null}"/><path fill="#cd7c41" d="M86.942 27.519c-.357-.11-3.526-1.02-5.482 1.747 1.474-5.575 5.125-2.12 5.482-1.747m-22.082 6.14c-2.647-2.187-5.525-.386-5.76-.232.166-.306 2.825-4.835 5.76.232"/><path fill="#c16c36" d="M0 18.419c13.267-9.636 21.024-3.606 21.024-3.606l.082.055a4.79 4.79 0 0 0-.607 2.34 4.768 4.768 0 0 0 1.585 3.565 4.45 4.45 0 0 0-1.309 5.933C4.479 34.899 0 18.419 0 18.419"/><path fill="#cd7c41" d="M82.162 21.185c.193.413 4.396 9.28-13.267 2.067.152.288 2.122 3.964-.523 4.46-2.755.509-10.333-5.685-10.333-5.685s-.866 8.946-4.476 9.126c-3.61.18-3.967-3.097-3.967-3.097s-2.756 16.686-5.153 16.686c-2.424 0-1.556-6.017-6.723-5.507-5.166.523-7.743 9.128.689 12.748 0 0 .688 6.705-3.443 9.967 0 0-1.847-.593-4.078-2.863-3.749-3.785-8.582-12.238-7.632-30.398.441.152.895.22 1.377.22 2.465 0 4.478-1.996 4.478-4.461a4.444 4.444 0 0 0-1.283-3.14 4.751 4.751 0 0 0 2.315-4.1c0-.88-.233-1.707-.675-2.424v-.015c.277-.562 4.175-7.915 22.552-12.87 8.955-2.918 25.486-2.066 26.506-.166 1.046 1.887-2.399 3.085-2.399 3.085s5.843-.331 11.533 5.175c5.687 5.508 7.066 11.523 5.165 13.246-.332.287-.855.425-1.503.44-3.044.095-8.801-2.354-9.16-2.493"/><path fill="#fefefe" d="M60.685 75.209a1.153 1.153 0 0 1-1.157-1.144c0-.634.523-1.156 1.157-1.156.633 0 1.143.522 1.143 1.156a1.14 1.14 0 0 1-1.143 1.144m20.32-7.12a1.14 1.14 0 0 1 1.143-1.141 1.14 1.14 0 0 1 1.144 1.142c0 .633-.511 1.157-1.144 1.157a1.152 1.152 0 0 1-1.143-1.157"/><path fill="#a97db5" d="m84.794 69.357-.152.606-.083-.027-3.787 1.72-2.179-2.987c.166-.952.18-1.873.125-2.712-.109-1.681-.523-3.042-.661-3.594 2.438-1.13 4.023-2.368 5.028-3.414l.096.083c3.335 5.164 1.613 10.324 1.613 10.324zm-1.502-1.267a1.14 1.14 0 0 0-1.143-1.142c-.635 0-1.145.51-1.145 1.142a1.154 1.154 0 0 0 1.145 1.157c.633 0 1.143-.524 1.143-1.157zm-19.893 1.267c.139 1.32.455 2.836 1.075 4.24l-1.613 3.677-5.51-1.033s-.936-2.257-1.391-4.915c-.22-1.17-.331-2.423-.22-3.58l-.014-.11c3.596-.426 6.323-1.404 7.576-1.914-.042.469-.11 1.888.098 3.634m-2.716 5.853c.635 0 1.145-.51 1.145-1.143 0-.634-.511-1.156-1.145-1.156-.633 0-1.156.522-1.156 1.156 0 .633.523 1.143 1.156 1.143"/><path fill="#a97db5" d="M99.479 82.436s.578 5.85-2.631 8.37c0 0-10.113 5.396-21.243 3.91 0 0-5.056 4.928-12.288 6.54 0 0-7.343 8.823-15.609 13.533 0 0-2.066-10.781-9.533-10.56-1.019.027-1.859.288-2.535.744-.028.014-.042.026-.07.04-.756.495-1.294 1.24-1.61 2.16-6.378-10.653-5.594-25.412-5.347-28.427 2.55 4.17 6.93 6.333 6.93 6.333s7.344 5.85 18.254 4.007c-.579 2.988 1.599 5.629 6.199 3.908 4.587-1.721 2.755-6.194 2.41-8.728-.343-2.518 2.756-.797 2.068-3.317-.689-2.532-7.578-.468-7.578-.468l-4.133-5.615 3.197-3.54c.455 2.658 1.391 4.915 1.391 4.915l5.511 1.033 1.612-3.676c-.619-1.405-.937-2.92-1.075-4.241 7.384.193 14.438-2.988 15.318-3.401.055.84.043 1.763-.123 2.713l2.177 2.986 3.788-1.72.083.028-.317 1.226s9.422 2.409 15.155 11.247"/><path fill="#efee87" d="M83.086 58.949c1.28-1.337 1.638-2.327 1.638-2.327s2.756-.825 5.703-3.441c.207 1.087 1.765 9.926 1.02 14.22-2.149 1.502-4.546 2.838-7.122 3.788l.317-1.226.152-.606s1.721-5.163-1.612-10.324l-.096-.084m-19.025 6.443c6.419-.373 10.896-1.597 13.996-3.03.138.552.551 1.914.661 3.594-.882.414-7.934 3.593-15.319 3.4-.207-1.747-.138-3.165-.097-3.634.498-.206.758-.33.758-.33"/><path fill="#e5e481" d="M55.74 67.745c-.11 1.158 0 2.41.22 3.58l-3.197 3.54-2.52-7.076c1.828.125 3.664.074 5.483-.153z"/><path fill="#efee87" d="M28.614 78.732c-.55-.922-1.033-1.94-1.336-3.07-3.128-9.251 2.52-15.488 3.609-16.575 2.233 2.27 4.078 2.863 4.078 2.863 5.235 4.033 10.608 5.535 15.277 5.839l2.522 7.075c-9.877 2.299-17.22 10.216-17.22 10.216s-4.38-2.163-6.93-6.333v-.015"/><path fill="#ceab85" d="M69.516 24.735c-.23-.75-.562-1.372-.62-1.484 3.98 1.627 6.843 2.43 8.898 2.704-1.71.335-4.511.387-8.278-1.22m13.2-1.565c-.082-.981-.497-1.86-.555-1.985.236.092 2.799 1.177 5.392 1.885-1.304.273-2.928.378-4.837.1" data-paper-data="{&quot;origPos&quot;:null}"/><path fill="#c16c36" d="M23.255 28.69c.44.152.895.22 1.377.22 2.467 0 4.478-1.998 4.478-4.461a4.44 4.44 0 0 0-1.281-3.14 4.752 4.752 0 0 0 2.315-4.101c0-.881-.234-1.708-.677-2.438.237-.483 3.151-5.962 15.574-10.64-4.92 1.854-10.225 10-9.827 15.163.227 2.952 2.399 6.122 4.9 7.66 1.93 1.19 5.554 1.293 6.561-1.421 2.295-6.196 6.199-.688 7.577-2.294 1.378-1.606-.46-4.361 4.59-3.673 5.052.688 7.808 5.05 6.2 2.525-1.607-2.526 1.149-2.525 7.349-.46 6.198 2.067 7.805.46 6.428-1.606-1.377-2.064 1.149-1.835 1.149-1.835 9 1.757 11.512-.448 11.566-3.398 2.327 3.834 2.641 7.224 1.292 8.447-.332.289-.855.425-1.502.44-3.045.096-8.804-2.354-9.163-2.492.193.413 4.396 9.28-13.265 2.066.15.287 2.12 3.963-.524 4.46-2.754.508-10.332-5.686-10.332-5.686s-.868 8.948-4.478 9.127c-3.61.18-3.967-3.097-3.967-3.097S46.841 44.74 44.442 44.74c-2.424 0-1.555-6.017-6.721-5.507-5.167.523-7.743 9.128.689 12.75 0 0 .688 6.704-3.445 9.965 0 0-1.845-.59-4.078-2.861-3.747-3.786-8.582-12.24-7.632-30.398"/><path fill="#e98e45" d="M48.052 9.699c17.009.298 25.87-3.375 29.991-5.983-.769.699-1.915 1.1-1.915 1.1s5.842-.33 11.53 5.177a25.023 25.023 0 0 1 3.083 3.594c-22.075 3.786-42.689-3.888-42.689-3.888"/><path fill="#ceab85" d="M91.01 56.826c1.206 1.93 3.211 3.108 6.408.14 6.428-5.966 6.428-3.671 9.872-5.737 1.672-1.002 3.989-2.6 5.016-4.555 1.25 3.627.082 7.49-8.694 8.117 0 0-4.642 7.352-12.165 12.61.476-2.742.012-7.327-.438-10.574M35.543 85.079s5.571-6 13.531-9.07c-2.447 2.434-5.123 5.786-3.777 7.803 2.295 3.442 9.873 1.375 11.25 4.59.776 1.808 3.81 1.433 6.437-.88.254 2.13-.044 4.368-2.988 5.473-4.6 1.72-6.778-.922-6.199-3.91-10.91 1.845-18.254-4.006-18.254-4.006" data-paper-data="{&quot;origPos&quot;:null}"/><path fill="#e5e481" d="M30.887 59.087c2.233 2.27 4.078 2.863 4.078 2.863a28.945 28.945 0 0 0 4.802 2.996c-4.22.029-7.787.992-7.787 4.18 0 7.803 1.148 11.704 19.976 5.739.255-.082.48-.16.723-.24l.085.24c-9.877 2.297-17.221 10.214-17.221 10.214s-4.38-2.162-6.928-6.333v-.014c-.55-.923-1.034-1.941-1.338-3.07-3.127-9.252 2.522-15.487 3.61-16.575m40.13 5.453c2.896-.568 5.215-1.333 7.04-2.178.137.553.55 1.914.66 3.595-.129.06-.407.187-.786.348-2.237-.54-5.136-1.257-6.914-1.765m-7.167 4.816c-.15 0-.299.005-.45 0-.208-1.746-.14-3.165-.098-3.634.497-.205.758-.33.758-.33 1.68-.1 3.22-.255 4.642-.46-1.866.945-3.777 3.085-4.851 4.425m20.874-12.735s.632-.195 1.6-.67c-1.078 1.545-2.075 3.194-2.41 4.39-.215-.433-.45-.872-.733-1.31l-.096-.083c1.28-1.337 1.639-2.327 1.639-2.327m.069 12.734s1.106-3.33-.186-7.316c1.619.354 5.258-.89 6.626-3.464.355 3 .608 6.549.213 8.826-2.15 1.5-4.545 2.836-7.122 3.787l.317-1.226.152-.606z"/><path fill="#976fa1" d="m62.99 76.978.905 3.163s.014.033.019.04c-1.81-1.26-7.017.3-7.017.3l-4.134-5.617 3.198-3.54a25.685 25.685 0 0 0 1.39 4.918l5.51 1.03.13-.294zm16.518-4.18-2.066-2.295s1.148-2.523-2.526-1.835c-2.99.56-9.021 2.184-11.162 2.77a15.913 15.913 0 0 1-.355-2.082c7.384.193 14.438-2.986 15.318-3.4.057.84.043 1.76-.123 2.712l2.177 2.988 3.788-1.721.083.029-.302 1.168z"/><path fill="#976fa1" d="M28.614 78.746c2.55 4.17 6.93 6.333 6.93 6.333s7.343 5.85 18.252 4.007c-.577 2.987 1.6 5.63 6.2 3.909 4.588-1.721 2.754-6.195 2.411-8.728-.29-2.133 1.877-1.237 2.134-2.435.28.938.497 2.114.272 3.127-.459 2.064 2.754 11.93 7.807 9.407 5.05-2.523 27.313-1.835 26.86-11.93 0 0 .577 5.85-2.633 8.37 0 0-10.11 5.397-21.242 3.91 0 0-5.057 4.929-12.288 6.539 0 0-7.343 8.825-15.608 13.534 0 0-2.068-10.78-9.534-10.56-1.02.027-1.86.289-2.534.744-.029.012-.042.026-.07.04-.757.495-1.295 1.239-1.61 2.16-6.38-10.653-5.594-25.413-5.347-28.426"/><path fill="#876290" d="M62.58 85.248c-.07-.35-.132-.68-.173-.981-.292-2.133 1.877-1.236 2.134-2.435.066.22.127.454.18.694-.806.776-1.68 1.76-2.14 2.722M77.85 94.92a28.47 28.47 0 0 1-2.245-.206c.524-.302 1.307-.185 2.245.206M28.614 78.746c2.55 4.17 6.93 6.333 6.93 6.333s7.343 5.85 18.252 4.007c-.577 2.987 1.6 5.63 6.2 3.909a5.35 5.35 0 0 0 1.637-.945c-.761 1.592-2.166 2.897-4.627 3.004-5.28.23-20.664-8.49-21.812-2.523-.667 3.47-.551 8.56.516 12.4-.023.017-.047.027-.069.042-.029.012-.042.026-.07.04-.757.495-1.295 1.239-1.61 2.16-6.38-10.653-5.594-25.413-5.347-28.426m35.97 20.209c4.592 0 8.036-2.514 11.02-4.24 0 0-5.056 4.928-12.286 6.54 0 0-7.345 8.824-15.61 13.533 0 0-.64-3.318-2.481-6.234 6.564-3.146 16.007-9.6 19.357-9.6"/><path fill="#cf6997" d="M21.106 14.867c.078-.14.17-.27.259-.4-.57 2.255.117 5.097 4.128 4.985 3.554-.1 4.218-2.4 4.142-4.35a4.61 4.61 0 0 1 .508 2.106 4.751 4.751 0 0 1-2.315 4.1 4.774 4.774 0 0 1-5.744-.535 4.768 4.768 0 0 1-1.584-3.565c0-.841.22-1.652.606-2.34"/><path fill="#fefefe" d="M23.083 14.633c0-.761.964-1.376 2.152-1.376 1.189 0 2.154.616 2.154 1.376 0 .76-.965 1.376-2.154 1.376-1.188 0-2.152-.615-2.152-1.376"/><path fill="#cf6997" d="M22.084 20.773s-3.134 5.39 2.032 6.25c3.426.57 4.425-2.184 4.71-4.108.175.48.285.992.285 1.534 0 2.464-2.013 4.46-4.478 4.46-.482 0-.936-.067-1.377-.22a4.443 4.443 0 0 1-2.48-1.983 4.448 4.448 0 0 1 1.309-5.933m5.575.626c.055-.032.115-.056.168-.09.026.026.044.058.07.085a6.003 6.003 0 0 1-.237.005"/><path fill="#fefefe" d="M22.911 23.927c0-.666.808-1.207 1.807-1.207 1 0 1.809.54 1.809 1.207 0 .664-.809 1.204-1.809 1.204-.998 0-1.808-.541-1.808-1.205"/></g></svg>