<svg xmlns="http://www.w3.org/2000/svg" width="105.319" height="116.089"><g fill-rule="evenodd" stroke-miterlimit="10" data-paper-data="{&quot;isPaintingLayer&quot;:true}" style="mix-blend-mode:normal"><path fill="#c93a27" d="M16.943 92.18c-8.36-4.332-13.7-8.924-16.868-21.62-.466-1.868 1.35-1.743 2.106-1.448 6.521 2.547 10.692-6.024 14.507-9.688 4.003-3.843 8.492-4.035 13.726-3.411 3.283.392 6.225.458 9.38-.675 2.732-.98 5.272-2.43 8.012-3.39 4.128-1.45 8.668-1.688 12.323 1.01.375.277.503.629.473.97 2.697 3.868 2.32 9.146-.42 12.938-3.326 4.602-8.692 6.184-13.982 7.174-3.252.609-6.78 1.206-9.22 3.664-2.102 2.116-3.17 5.055-4.92 7.44-3.203 4.373-8.312 6.915-13.652 7.2a1.281 1.281 0 0 1-.535-.078c-.274.095-.592.089-.93-.087"/><path fill="#ffdb80" d="M78.958 89.722c.762-.131 1.576.18 1.792 1.004 2.087 7.967 3.806 16.616-1.574 23.673-.717.942-2.122.329-2.44-.611a279.582 279.582 0 0 1-6.098-20.543 1.397 1.397 0 0 1 .106-1.02c-.028-.584.275-1.137 1.032-1.267l7.182-1.237" data-paper-data="{&quot;origPos&quot;:null}"/><path fill="#401f0f" d="M82.086 101.117c1.032-.295 1.727.658 1.718 1.545.006.025.016.044.021.069.821 3.87-.053 8.873-3.36 11.425-4.694 3.622-6.928-4.841-7.637-7.958a1.471 1.471 0 0 1 .002-.693 1.608 1.608 0 0 1-.026-.59c-.044-.6.218-1.2.913-1.4l8.37-2.398" data-paper-data="{&quot;origPos&quot;:null}"/><path fill="#ffdb80" d="M57.38 89.309c.712.19 1.32.983 1.082 1.754-2.18 7.074-4.363 14.147-6.543 21.22-.348 1.126-1.996 1.634-2.644.44-3.76-6.914-4.729-14.848-2.628-22.455.01-.033.024-.058.034-.09-.366-.857.015-2.051 1.207-2.061a35.189 35.189 0 0 1 9.491 1.192" data-paper-data="{&quot;origPos&quot;:null}"/><path fill="#401f0f" d="M56.132 103.692c-.626 2.674-.967 5.73-2.055 8.258-.754 1.748-2.3 3.195-4.322 2.9-2.128-.311-3.322-2.173-4.049-4.028-.967-2.461-1.743-5.03-1.897-7.681a1.36 1.36 0 0 1 .251-.911c.175-.47.561-.847 1.1-.913.176-.09.381-.147.626-.147 3.104-.01 6.203.248 9.262.768.775.13 1.256 1.02 1.084 1.753"/><path fill="#c93a27" d="M41.073 96.636c-.824-.081-1.246-.951-1.18-1.688.287-3.258.822-10.848 2.485-13.658.487-.825 1.425-.901 2.09-.562.178-.053.373-.078.588-.058 6.7.629 13.39.605 20.085-.041.404-.16.88-.09 1.27.15.01 0 .015-.004.025-.004l19.244-1.897c1.083-.107 1.613.69 1.513 1.533.004.014.003-.048.006-.033.761 3.429 1.942 11.42 2.702 14.85.171.772-.599 1.507-1.303 1.577-6.659.66-13.32 1.313-19.979 1.973-.62.06-1.285-.333-1.497-.934a44.18 44.18 0 0 1-1.55-5.525l-2.057 5.48c-.312.834-1.066.99-1.706.747a1.51 1.51 0 0 1-.64.068l-20.096-1.978"/><path fill="#ffdb80" d="M53.191 58.617c-.011-.216.033-.43.128-.624v-.01a1.014 1.014 0 0 1-.03-.186c-.015-.621.457-1.367 1.155-1.342.041.002.076.007.116.01.167-.091.353-.141.543-.146l14.965-.55c.737-.025 1.17.494 1.27 1.065.215.209.341.493.35.793.32 5.248-3.37 9.988-8.733 10.274-5.348.285-9.558-4.028-9.764-9.284M25.147 75.694c-2.664-1.398-3.51-4.543-2.49-7.305 1.083-2.932 3.933-5.091 6.452-6.728 5.937-3.854 13.093-5.05 19.993-3.831.588.104.908.45 1.016.87.492.43.76 1.06.727 1.712.362 1.175 4.288 5.8-6.085 6.108-7.136.212-12.64 4.099-17.777 9.01-.513.49-1.242.475-1.836.164m78.395-24.976c2.18 1.9 2.276 5.025.715 7.375-1.657 2.495-4.793 3.875-7.505 4.839-6.39 2.272-13.334 1.79-19.508-.888-.526-.228-.747-.623-.756-1.04a2.055 2.055 0 0 1-.3-1.76c-.08-1.178-1.638-3.68-.694-4.328.096-.103 5.842-.232 7.718-.015 6.805.786 12.703-1.003 18.58-4.44.587-.343 1.264-.166 1.75.257" data-paper-data="{&quot;origPos&quot;:null}"/><path fill="#c3cddd" d="m41.303 67.54-3.2-8.805c-.25-.687.124-1.678.882-1.865 3.357-.83 6.74-1.323 10.197-1.43.423-.013.76.128 1.007.352.252-.237.59-.372.966-.305l3.717.664c.218.04.394.125.54.237.408.11.75.428.804.987.363 3.692 3.6-1.185 7.411-1.37 3.942-.19 6.193 4.19 5.908.313-.036-.497.216-1.13.74-1.292l2.83-.877c.41-.316.963-.401 1.353-.133a1.48 1.48 0 0 1 1.146-.388l7.313.57c.87-.2 2.046.465 1.951 1.676l-.692 8.855c-.04.5 1.137 8.884 2.507 12.71.268.75-.153 1.584-.97 1.697a205.01 205.01 0 0 1-43.542 1.293c-.72-.055-1.033-.6-1.013-1.16-.153-.22-.22-.51-.135-.865.798-3.307.44-10.42.28-10.862"/><path fill="#ffdb80" d="M35.301 49.278c-4.8-7.82-3.028-17.585-3.12-26.28-.009-.75.453-1.23 1.007-1.42.052-.651.463-1.3 1.266-1.444 17.045-3.072 34.264-5.032 51.497-4.516.26.007.593 2.477.787 2.58.756.103 1.44.71 1.23 1.678-1.719 7.876 1.518 15.886-.206 23.754-1.54 7.03-7.292 11.866-13.91 13.968-7.03 2.232-15.238 2.336-22.488 1.14-6.299-1.037-12.593-3.807-16.063-9.46" data-paper-data="{&quot;origPos&quot;:null}"/><path fill="#050000" d="M59.347 46.683c2.376 3.825 7.614 3.99 9.924-.053.925-1.62 3.536-.345 2.602 1.29-3.324 5.822-11.314 6.217-14.92.413-.99-1.593 1.402-3.246 2.393-1.65"/><path fill="#fafcf8" d="M43.714 35.87c.97-2.33 3.31-3.631 5.682-3.616.271-.177.62-.25 1.038-.141 3.215.836 5.54 4.127 4.727 7.5-.798 3.32-4.657 5.405-7.845 4.295-3.113-1.084-4.886-4.96-3.602-8.038"/><path fill="#401f0f" d="M47.98 34.428c.158-.156.361-.286.625-.37 2.73-.855 5.822 1.578 4.97 4.539-.809 2.808-4.399 3.86-6.393 1.62-1.537-1.728-1.21-4.826.798-5.79"/><path fill="#fafcf8" d="M50.87 36.282c2.541-.183 2.75 2.73.207 2.913-1.525.11-1.732-2.803-.207-2.913m22.347-3.931c2.114-3.314 6.522-3.604 9.5-1.361.404.304.554.686.537 1.06 1.343 1.609 1.91 3.815 1.12 5.987-1.298 3.565-5.378 5.28-8.76 3.533-3.386-1.748-4.44-6.015-2.397-9.22"/><path fill="#401f0f" d="M77.156 32.173c.42-.283.895-.473 1.394-.556.252-.13.557-.183.912-.114.31.06.612.152.9.267.35.12.673.296.966.514 1.556 1.058 2.438 2.947 1.722 4.92-.909 2.509-3.963 3.02-5.967 1.505-2.083-1.575-2.145-5.045.073-6.536"/><path fill="#fafcf8" d="M80.337 33.959c2.542-.183 2.75 2.73.208 2.913-1.525.11-1.732-2.803-.207-2.913"/><path fill="#401f0f" d="M27.57 30.773c-.556-.256-.96-.812-.799-1.595 3.07-14.931 4.015-26.36 31.19-28.927 24.28-2.295 33.128 11.538 34.116 25.998.117 1.705-3.279 2.062-3.833 2.025-4.555-.301-11.075-2.343-17.883-9.191-9.622 10.445-30.74 15.212-42.097 12.33-.364-.092-.566-.382-.694-.642" data-paper-data="{&quot;origPos&quot;:null}"/><path fill="#ffc941" d="M62.54 40.765c.762.144 3.124.729 3.398-.511.132-.597-.685-1.104-1.066-1.435-1.239-1.08-2.22-2.146-2.013-3.913.22-1.864 3.064-1.287 2.845.574-.062.523 1.543 1.532 1.874 1.874.82.85 1.415 1.91 1.265 3.138-.419 3.427-4.26 3.63-6.87 3.138-1.834-.346-1.27-3.212.567-2.865" data-paper-data="{&quot;origPos&quot;:null}"/><path fill="#401f0f" d="M40.663 84.465c-1.31.013-.685-5.956-.252-7.125.163-.44.758-.82 1.226-.814a348.02 348.02 0 0 0 43.945-2.243c.621-.071 1.058.196 1.301.593.12.087.222.195.304.318.717 1.14 1.708 3.89.843 5.846-.69 1.56-9.543 1.709-13.405 1.985-10.64.763-23.032 1.332-33.962 1.44"/><path fill="#dd8d00" d="M66.132 82.118h.093c1.25.122 2.752-.277 4.002-.404l3.03-.307-.117-5.683c-2.406.084-4.79.33-7.16.744l.034 1.26 2.715-.218c1.861-.15 2.07 2.763.207 2.913l-2.794.225a4.62 4.62 0 0 1-.027.86l.017.61m-1.848 2.594c-1.023-.688-1.022-1.887-1.062-2.995-.077-2.118-.113-4.238-.17-6.357-.023-.864.542-1.4 1.343-1.56a52.298 52.298 0 0 1 9.526-1.027c.137-.001.273.016.405.05.513-.052 1.05.13 1.33.606l.165.28c.214.366.281.8.188 1.214.003.037.014.067.015.107l.156 7.59c.016.808-.529 1.479-1.343 1.56l-6.403.65c-1.248.126-3.005.654-4.15-.118"/><path fill="#c3cddd" d="M30.565 109.845c-.16.276-.363.45-.583.55-.056.409-.317.775-.858.948l-14.617 4.666c-.944.302-2.23-.261-2.044-1.458l2.077-13.332c.023-.15.068-.28.123-.402a1.47 1.47 0 0 1 .457-1.12l27.787-27.43c.158-.16.354-.278.57-.344.54-.593 1.535-.817 2.224-.038l4.238 4.799c.16.176.272.39.325.62.526.437.78 1.186.26 1.9a353.989 353.989 0 0 0-19.959 30.64"/><path fill="#7b97c2" d="M21.695 107.78c-1.21 1.41-3.588-.263-2.367-1.687L47.28 73.52c1.21-1.41 3.588.265 2.367 1.689l-27.952 32.57"/><path fill="#dd8d00" d="M56.834 74.885c.58.635.305 1.508-.205 2.056l-3.966 4.264c-.572.616-1.547.286-2.04-.206l-9.428-9.41c-.408-.408-.474-.866-.333-1.266-.149-.387-.13-.842.18-1.287 1.54-2.206 3.77-4.302 6.59-2.93.845.41 1.615 1.064 2.345 1.766l6.137-5.612c.606-.555 1.528-.345 2.04.207.87.937 1.737 1.874 2.607 2.81.44.477.396 1.259.06 1.77a23.084 23.084 0 0 1-5.713 5.986c.58.612 1.157 1.228 1.727 1.852"/></g></svg>