<svg xmlns="http://www.w3.org/2000/svg" xmlns:xlink="http://www.w3.org/1999/xlink" width="100" height="100"><defs><path id="a" d="M.085.1h10.632v10.636H.085V.1z"/></defs><g fill="none" fill-rule="evenodd"><path stroke="#9E4090" stroke-width="1.694" d="M8.837 56.518c-.504-8.48 17.51-16.45 40.237-17.803 22.727-1.354 41.559 4.424 42.063 12.903"/><path fill="#9E4090" d="m49.346 27.827-3.214.19-.813-13.658 3.215-.191z"/><g transform="translate(41.272 4.58)"><mask id="b" fill="#fff"><use xlink:href="#a"/></mask><path fill="#BA5F9E" d="M10.707 5.102a5.317 5.317 0 0 1-10.613.632 5.317 5.317 0 0 1 10.613-.632" mask="url(#b)"/></g><path fill="#EB7600" d="m78.334 61.293-1.504-25.28c-.342-5.756-5.283-10.143-11.035-9.8l-25.27 1.504c-5.752.342-10.137 5.285-9.795 11.04l1.504 25.281c.342 5.755 5.283 10.143 11.035 9.8l25.27-1.504c5.752-.343 10.137-5.286 9.795-11.04"/><path stroke="#FFF" stroke-linecap="round" stroke-linejoin="round" stroke-width="3.6" d="m74.057 60.037-.876-14.722"/><path fill="#F09539" d="M86.709 69.056a2.282 2.282 0 0 0 .375-2.134 14.236 14.236 0 0 0-11.417-9.605l-.792-.118a2.282 2.282 0 1 0-.672 4.517l.792.118a9.664 9.664 0 0 1 7.756 6.525 2.282 2.282 0 0 0 3.958.697"/><path fill="#9E4090" d="m48.84 72.354 3.214-.192.812 13.66-3.214.19z"/><path fill="#BA5F9E" d="M46.206 90.498a5.317 5.317 0 0 1 10.613-.632 5.316 5.316 0 0 1-10.613.632"/><path fill="#EB7600" d="M17.64 73.61a2.282 2.282 0 0 1-.66-2.063 14.238 14.238 0 0 1 10.015-11.06l.769-.223a2.283 2.283 0 0 1 1.276 4.385l-.77.224a9.665 9.665 0 0 0-6.803 7.513 2.283 2.283 0 0 1-3.828 1.225"/><path fill="#F09539" d="m69.352 61.828-1.504-25.281c-.342-5.755-5.283-10.142-11.035-9.8l-25.27 1.505c-5.752.342-10.137 5.285-9.795 11.04l1.504 25.281c.342 5.755 5.283 10.142 11.035 9.8l25.27-1.505c5.752-.342 10.137-5.285 9.795-11.04"/><path fill="#FFF" d="M34.016 69.814a5.876 5.876 0 0 1-6.207-5.512L26.305 39.02a5.877 5.877 0 0 1 5.51-6.21l25.27-1.505a5.877 5.877 0 0 1 6.207 5.512L64.795 62.1a5.878 5.878 0 0 1-5.51 6.21l-25.269 1.505z"/><path fill="#3C3736" d="M56.936 47.446c.205 1.23-1.065.643-2.47.878-1.407.235-2.417 1.203-2.623-.028-.205-1.23.768-2.418 2.175-2.653 1.406-.235 2.712.572 2.918 1.803m-18.042 1.622c-.042 1.246-1.17.419-2.595.37-1.425-.047-2.607.702-2.565-.545.042-1.247 1.231-2.219 2.656-2.17 1.425.047 2.546 1.097 2.504 2.345"/><path fill="#F09539" d="m48.975 43.326.808-2.524 3.45 2.747zm-7.826.271-1.326-2.295-2.788 3.417z"/><path fill="#F7D3CA" d="m30.056 50.493-3.058.182.587 9.859 3.058-.182c2.71-.162 4.795-2.512 4.634-5.223-.162-2.71-2.51-4.797-5.22-4.636M60.929 48.7l3.058-.181.587 9.858-3.058.182c-2.71.161-5.06-1.925-5.22-4.636a4.951 4.951 0 0 1 4.633-5.222"/><path fill="#D84241" d="m62.528 52.455-1.582 1.783-.594-.527 1.582-1.783a.398.398 0 0 1 .594.527"/><path fill="#D84241" d="m59.69 52.061 1.752 1.556-.496.622-1.782-1.583a.398.398 0 0 1 .527-.594"/><path fill="#D84241" d="m60.622 55.486-.11-1.86.793-.038.11 1.85a.398.398 0 0 1-.373.42.398.398 0 0 1-.42-.372M29.03 53.504l2.262-.135.058.962-2.263.135c-.192.01-.362-.196-.378-.46-.016-.265.128-.49.32-.502m2.446 2.884-2.278.135.057.962 2.278-.136c.192-.011.336-.237.32-.501-.015-.265-.185-.472-.377-.46"/><path fill="#D84241" d="m31.588 54.18-1.363 2.06-.552-.625 1.387-2.097c.127-.192.35-.2.495-.018.145.182.16.488.033.68"/><path fill="#D84241" d="m28.974 56.673 1.362-2.06.552.625-1.387 2.097c-.127.192-.35.2-.495.018a.619.619 0 0 1-.032-.68"/><path fill="#F7D3CA" d="m49.558 34.825-.182-3.06-9.854.587.182 3.06c.162 2.71 2.51 4.796 5.22 4.635 2.71-.161 4.796-2.511 4.634-5.222"/><path stroke="#D84241" stroke-linecap="round" stroke-width=".795" d="M42.522 50.578s-.27 2.977 3.125 2.775m2.773-3.126s.622 2.924-2.773 3.126"/><path stroke="#9E4090" stroke-width="1.694" d="M91.137 51.618c.505 8.48-17.51 16.45-40.236 17.804-22.727 1.353-41.56-4.424-42.064-12.904"/><path fill="#E1B88B" d="m77.104 35.651-55.868 3.327-.281-4.737 55.867-3.327z"/><path fill="#A2886D" d="m77.104 35.651-8.623.514-.281-4.737 8.622-.514z"/><path fill="#B71228" d="m39.277 38.036 4.755-.284-2.66-4.595z"/><path fill="#B71228" d="m44.032 37.752 4.755-.283-2.66-4.595zm4.755-.282 4.755-.284-2.66-4.595zm4.755-.284 4.755-.283-2.659-4.596zm-33.286 1.982 4.755-.283-2.659-4.596zm4.755-.283 4.756-.283-2.66-4.596zm4.756-.283 4.755-.283-2.66-4.596zm4.755-.283 4.755-.283-2.66-4.596z"/><path fill="#B71228" d="m58.297 36.903 4.756-.283-2.66-4.596z"/><path fill="#B71228" d="m63.052 36.62 4.756-.283-2.66-4.596z"/><path fill="#521D23" d="m67.808 36.337 4.755-.283-2.66-4.596zm6.85-5.162-2.095 4.879 4.755-.284z"/><path fill="#741E27" d="m68.481 36.164-.073-1.226-.6 1.399 4.755-.283-.074-.128z"/><path fill="#807261" d="M76.822 30.014c-.018 0-.036 0-.053.002L20.9 33.342a.9.9 0 0 0-.845.952l.282 4.737a.9.9 0 0 0 .952.845l55.867-3.326a.9.9 0 0 0 .845-.952l-.282-4.737a.9.9 0 0 0-.898-.847m0 .9.282 4.737-55.868 3.327-.281-4.737 55.867-3.327"/><path stroke="#9E4090" stroke-width="1.694" d="M47.23 18.192c15.975-.95 29.781 12.674 30.838 30.432C79.124 66.382 67.03 81.549 51.056 82.5"/><path fill="#FFFFE7" d="M60.673 29.868c-1.348 2.851-3.047 4.051-4.664 3.737-2.433-.472-3.757-4.192-2.429-11.04 1.329-6.848 4.807-14.23 7.24-13.758 2.432.473 2.897 8.62 1.57 15.469-.31 1.599-.692 2.985-1.124 4.166l-2.667 1.76 2.074-.334z"/><path fill="#E1B88B" d="m58.68 19.539-2.704-4.848a37.233 37.233 0 0 0-.978 2.571l3.009 5.394 5.043-3.688c.054-.915.075-1.812.065-2.673L58.68 19.54z"/></g></svg>