<svg xmlns="http://www.w3.org/2000/svg" width="71.748" height="112.721"><g fill-rule="evenodd" stroke-miterlimit="10" data-paper-data="{&quot;isPaintingLayer&quot;:true}" style="mix-blend-mode:normal"><path fill="#725648" d="M52.606 46.87c.72 3.01 5.915 16.296 8.05 19.11.652.859 2.827 1.966 3.348 2.663.646.53 1.305 1.03 2.028 1.302 1.855.692 1.48 1.074.864 1.464-.36.226-2.227-.37-3.406-.737.21 1.007 1.759 3.609 2.15 6.377-.765 1.055-2.751-4.134-2.716-3.634.093 1.329 1.738 4.39 1.148 5.266-.86 1.275-1.432-4.121-2.59-5.027-.004-.002 1.353 4.905.254 5.037-.095.012-.205-.167-.346-.695-.198-.745-1.015-3.556-1.156-4.07-.014.986-.013 1.756-.24 2.663-.564 2.247-.953-2.34-.992-2.854-.125-1.677-.923-4.786-1.827-6.27-5.567-6.17-22.59-28.565-7.26-27.1 1.927.184 2.057 3.86 2.69 6.505m-7.04 38.023c.386 1.304-6.92 16.399-6.448 22.089.166 2.01-5.454 8.52-5.454-2.896 0-4.316-.12-21.443 4.742-21.443 1.686 0 6.675.615 7.16 2.25m-18.737 1.172c-.106 1.356-12.34 12.856-13.94 18.338-.563 1.936-8.146 6.018-4.055-4.646 1.546-4.03 7.572-20.07 12.113-18.34 1.575.6 6.014 2.948 5.882 4.648" data-paper-data="{&quot;origPos&quot;:null}"/><path fill="#210001" d="M41.21 109.566c-.725-5.603-5.436.25-7.083-2.35-.331-.521-.4-.807-.404-1.241-.017-1.24-2.036 4.414-2.036 5.299 1.864 0 1.028.646 1.445-.553.019-.007 8.9 5.196 8.078-1.155m-26.49-3.303c.65-5.612-5.336-1.061-6.307-3.978-.195-.587-.192-.88-.093-1.303.284-1.208-3.042 3.796-3.256 4.655 1.81.447.842.874 1.537-.19.02-.002 7.383 7.179 8.12.817M51.623 42c5.27 9.874-3.694 49.868-11.128 58.106-2.947 3.267-3.407 4.075-9.932 2.576-.161-.777-1.707-3.29-1.707-7.81 0-15.523-5.583-2.48-11.772 3.374-2.703 2.555-1.603 3.78-8.364-2.83-1.903-1.86 16.664-48.586 22.56-52.28 5.094-3.19 15.502-7.707 19.912-2.161.322.405.257.7.43 1.025"/><path fill="#231916" d="M30.669 102.575c2.159.495 3.535.705 4.59.705 2.21 0 3.04-.923 4.86-2.946l.282-.312c3.47-3.846 7.608-15.252 10.297-28.38 2.225-10.867 3.607-24.345.812-29.582a1.717 1.717 0 0 1-.142-.405c-.05-.193-.097-.376-.276-.6-1.354-1.704-3.395-2.567-6.068-2.567-4.484 0-10.004 2.457-13.676 4.757C26.012 46.587 9.55 86.867 8.74 94.383c-.078.714.022.897.069.942 3.523 3.445 4.988 4.843 5.85 4.843.452 0 .807-.391 1.344-.984.277-.304.59-.65.993-1.03 1.678-1.587 3.34-3.742 4.805-5.642 2.112-2.737 3.935-5.101 5.245-5.101 1.34 0 1.938 2.3 1.938 7.46 0 3.482.92 5.754 1.413 6.975.127.313.223.55.272.73m4.59.959c-1.088 0-2.501-.22-4.725-.73l-.08-.018-.016-.08c-.034-.163-.141-.43-.278-.766-.5-1.237-1.432-3.54-1.432-7.07 0-4.85-.55-7.206-1.682-7.206-1.184 0-2.972 2.318-5.043 5-1.471 1.91-3.14 4.072-4.83 5.673-.34.326-.667.665-.98 1.017-.584.643-.97 1.067-1.534 1.067-.952 0-2.293-1.263-6.03-4.915-.165-.162-.21-.528-.144-1.151.815-7.54 17.36-47.965 22.727-51.327 3.702-2.318 9.274-4.795 13.812-4.795 2.754 0 4.863.895 6.268 2.662.213.268.27.496.323.696.03.12.06.235.12.349 2.827 5.297 1.447 18.84-.788 29.75-2.696 13.17-6.86 24.624-10.356 28.5l-.282.313c-1.815 2.018-2.726 3.03-5.05 3.03"/><path fill="#d40311" d="M52.027 36.926c-2.322 6.37-41.132 47-42.835 46.385-20.617-7.46-5.082-59.572 31.933-53.975 3.778.572 11.79 5.15 10.902 7.59"/><path fill="#e62a10" d="M52.709 37.188c-.001 6.777-22.564 58.168-24.374 58.168C6.4 95.356 3.152 41.09 39.86 33.762c3.747-.748 12.847.83 12.847 3.426"/><path fill="#725648" d="M36.41 53.339c.842-2.37 2.592-5.282 1.192-6.39-11.15-8.801-9.23 17.076-8.02 24.644h-.001c-.046 1.6-.993 4.41-1.741 5.775-.228.417-2.238 4.168-.668 2.708.633-.59 1.019-1.187 1.527-1.944-.15.469-.933 3.056-1.153 3.733-.157.48-.163.673-.083.712.92.448 2.338-4.036 2.34-4.032.442 1.28-1.832 5.75-.522 5.192.897-.383 1.163-3.58 1.76-4.657.225-.405-.848 4.61.278 4.177 1.089-2.343 1.199-5.135 1.543-6.02.729.874 1.878 2.27 2.27 2.274.673.006 1.157-.103.067-1.567-.424-.572-.683-1.29-.916-2.024-.053-.801-1.181-2.746-1.255-3.738-.237-3.25 2.425-16.15 3.383-18.843m-7.923-24.163c-1.16-25.913 41.959-24.59 42.916-4.23 1.25 26.594-42.07 23.15-42.916 4.23" data-paper-data="{&quot;origPos&quot;:null}"/><path fill="#fefefe" d="M62.986 24.692c1.086 0 4.509 1.378 3.262 4.204-1.247 2.826-4.532 2.704-5.737.92-1.178-1.745-.324-5.123 2.475-5.123"/><path fill="#210001" d="M59.88 26.96c.225-.606.424-1.12 1.195-1.886 1.55-1.542 3.787-.752 5.122.584 1.176 1.178 2.28-.357 1.594.325-1.95 1.938-4.366-2.066-6.774-.274-.066.05-1.142 1.267-1.137 1.25"/><path fill="#231916" d="M62.004 26.725c.655 0 2.72.83 1.968 2.536-.753 1.705-2.734 1.63-3.46.555-.711-1.053-.196-3.091 1.492-3.091"/><path fill="#fefefe" d="M39.039 24.693c2.797 0 3.652 3.378 2.473 5.123-1.204 1.784-4.49 1.906-5.736-.92-1.248-2.826 2.176-4.204 3.262-4.204"/><path fill="#231916" d="M37.809 26.545c1.688 0 2.203 2.038 1.492 3.09-.727 1.077-2.708 1.15-3.46-.553-.753-1.706 1.313-2.537 1.968-2.537"/><path fill="#210001" d="M42.187 26.96c.005.016-1.071-1.201-1.137-1.251-2.408-1.792-4.825 2.212-6.773.274-.687-.682.417.853 1.593-.325 1.335-1.336 3.573-2.126 5.122-.584.772.767.97 1.28 1.195 1.886"/><path fill="#f1c28c" d="M49.744 27.915c.99.033-1.83-.396-2.2 2.4-.37 2.795 2.799 3.922 1.006 3.108-3.098-1.407-2.98-5.645 1.194-5.507"/><path fill="#210001" d="M60.925 20.682c-.131.142-.02.155-.015.31.31.236.597-.154.88-.264 1.02-.398 2.443-.366 3.467.01 1.204.442 1.483.135 1.203-.2-1.558-1.86-4.007-1.511-5.535.144m-19.023.41c.108.16-.004.156-.032.31-.344.185-.567-.244-.83-.395-.947-.55-2.357-.736-3.427-.52-1.258.252-1.486-.094-1.158-.382 1.825-1.6 4.192-.882 5.447.988"/><path fill="#fefefe" d="M61.588 27.665c.303 0 1.258.384.91 1.172-.348.788-1.263.754-1.6.256-.327-.486-.09-1.428.69-1.428m-24.426.409c.303 0 1.257.384.91 1.172-.348.787-1.263.753-1.6.257-.328-.487-.09-1.43.69-1.43"/><path fill="#d76b6c" d="M36.744 33.927c-.032-1.03 3.613-1.468 3.434.34-.051.51-3.383 1.3-3.434-.34m24.325 0c-.031-1.03 3.614-1.468 3.434.34-.05.51-3.382 1.3-3.433-.34"/><path fill="#210001" d="M28.602 30.385C18.516-1.93 78.695-5.776 71.08 29.9c-.175.818-.344-4.224-2.974-8.2-2.88-4.351-7.437-7.315-8.235-6.608-12.928 11.45-26.067-8.005-31.27 15.293"/><path fill="#210001" d="M36.43 13.374c-1.426-.504-1.533-3.133-4.736-4.25-4.954-1.727-6.11 14.16-6.424 14.72-7.096 12.644-15.067-.88-13.26.594 1.192.973 8.33.074 8.33-1.955-.08-.006-1.485.382-2.082.382-.615 0-4.578-.357-4.478-1.623 3.292.842 4.113-1.725 4.285-1.988.28-.427.72-4.235-.79-7.545C15.279 7.33 21.258.333 24.889.05c11.018-.858 12.02 9.358 11.542 13.323"/><path fill="#ee8785" d="M57.09 36.526c-.686 1.219-7.943 6.762-13.25-.358-.298-.402 3.185-.026 6.709.139 2.919.137 6.819-.274 6.542.219" data-paper-data="{&quot;origPos&quot;:null}"/><path fill="#d76b6c" d="M52.744 39.2c-.73.258-1.804.6-2.852.523-1.028-.075-1.941-.462-2.652-.831 1.074-1.425 5.167-1.291 5.504.308"/><path fill="#fefefe" d="M46.577 37.056c-.71-.073-1.71-.146-1.64-1.04.003-.025 9.814.078 11.664.288-.344.37-.93.909-.95.932-.251.275-4.795.366-5.103-.93-.158 1.176-3.42.806-3.97.75"/><path fill="#210001" d="M29.692 40.02c.777 0 .702 1.234.597 1.528-1.074 3.01-4.931-1.527-.597-1.527m-8.662 8.358c.778 0 .702 1.234.598 1.527-1.075 3.01-4.931-1.527-.598-1.527m4.213 10.688c.778 0 .703 1.233.598 1.526-1.074 3.01-4.931-1.526-.598-1.526m-8.426 2.862c.777 0 .702 1.234.597 1.527-1.074 3.01-4.93-1.527-.597-1.527m2.656 10.3c.777 0 .702 1.234.597 1.527-1.074 3.01-4.931-1.526-.597-1.526m3.089 11.367c.778 0 .702 1.234.598 1.527-1.075 3.01-4.932-1.527-.598-1.527"/><path fill="#231916" d="M25.626 33.685c.778 0 .703 1.234.598 1.527-1.074 3.009-4.931-1.527-.598-1.527m-9.316 7.004c.778 0 .703 1.234.598 1.527-1.074 3.01-4.931-1.527-.598-1.527m-5.813 9.026c.777 0 .702 1.234.597 1.527-1.074 3.01-4.931-1.527-.597-1.527M6.666 62.388c.778 0 .703-1.234.598-1.527-1.074-3.01-4.931 1.527-.598 1.527m-.1 10.935c.778 0 .703-1.234.598-1.527-1.074-3.01-4.931 1.527-.598 1.527"/><path fill="#d40311" d="M29.446 50.297c-3.407.537 5.96-12.862 9.637-3.36.868 2.243-.45 5.107-1.108 5.107-.035 0-4.254-2.421-8.53-1.747"/></g></svg>