<svg xmlns="http://www.w3.org/2000/svg" width="73.158" height="119.516"><g fill-rule="evenodd" stroke-miterlimit="10" data-paper-data="{&quot;isPaintingLayer&quot;:true}" style="mix-blend-mode:normal"><path fill="#6f4731" d="M0 49.248c8.392 13.167 19.59 2.182 15.78-9.46-2.765-8.448 12.242 2.751 12.242 2.751s-8.789 24.492-16.41 24.86C3.986 67.762-.028 55.775 0 49.249" data-paper-data="{&quot;origPos&quot;:null}"/><path fill="#9e743f" d="M5.67 76.953h.002zm-.93 2.619c.11-1.032.451-1.957.937-2.665v.013c.098-.949 1.558-14.79 5.201-19.502 1.837-2.375 8.69-6.007 8.69-6.007h.014c2.202-1.27 7.422-1.46 7.422-1.46l1.815.08h.152l1.81-.112s5.194.253 7.414 1.538v.005l12.193 4.417 5.66-6.724a5.02 5.02 0 0 1-.21-.867c-.364-.667-.662-1.508-.84-2.437-.472-2.443.052-4.598 1.168-4.818.6-.117 1.241.345 1.787 1.173 1.202-1.169 2.684-1.658 3.92-1.125 1.896.81 2.5 3.7 1.343 6.454-.737 1.765-2.02 3.046-3.347 3.522h.002s-3.53 10.137-6.606 11.267c-2.239.819-9.557-1.999-11.008-2.575 2.698 10.537 3.014 26.532 3.014 26.532H12.52s.257-13.903 2.475-24.333v-.009c-.27.473-.736 1.072-1.336 1.93-1.75 2.505-3.389 13.099-3.389 13.099.041.075.083.141.118.22a7.037 7.037 0 0 1 1.24 1.719c.952 1.812 1.052 3.641.222 4.088-.442.233-1.062.027-1.687-.493-.67 1.215-1.723 1.959-2.827 1.84-1.69-.18-2.853-2.318-2.596-4.77z" data-paper-data="{&quot;origPos&quot;:null}"/><path fill="#b52836" d="M73.157 40.564c0 5.66-4.537 10.249-10.135 10.249-5.6 0-10.138-4.59-10.138-10.249 0-5.663 4.538-10.25 10.138-10.25 5.598 0 10.136 4.587 10.136 10.25"/><path fill="#e63744" d="M70.85 40.564c0 4.372-3.505 7.918-7.83 7.918-4.322 0-7.826-3.546-7.826-7.918 0-4.371 3.504-7.92 7.827-7.92 4.324 0 7.83 3.549 7.83 7.92"/><path fill="#eeeeed" d="M65.464 40.564c0 1.363-1.095 2.468-2.442 2.468-1.35 0-2.445-1.105-2.445-2.468 0-1.364 1.095-2.472 2.445-2.472 1.347 0 2.442 1.108 2.442 2.472"/><path fill="#343434" d="M63.583 40.564a.561.561 0 1 1-1.123 0 .562.562 0 0 1 1.123 0"/><path fill="#23784c" d="M12.521 86.282c.013-.68.272-12.276 2.03-22.051.044-.216.066-.41.111-.619 3.618-4.09 4.083-7.877 4.932-12.196.982-.566 2.557-.913 4.007-1.127 0 0-.002 6.504 5.217 6.504 4.945 0 4.705-6.594 4.705-6.594 1.611.22 3.537.603 4.673 1.265.897 2.717 1.824 8.371 4.61 10.667 2.135 10.123 2.45 23.402 2.464 24.15H12.52z"/><path fill="#f6b90c" d="M37.724 56.628v1.904a1.826 1.826 0 0 1-1.815 1.838 1.826 1.826 0 0 1-1.815-1.838v-1.904z"/><path fill="#eeeeed" d="M42.768 86.282h-2.152V59.048c.57 1.228 1.266 2.306 2.152 3.052zM16.944 60.408a17.212 17.212 0 0 1-2.153 3.048v22.826h2.153V60.408m1.75 6.966h20.378V80.16H18.694z"/><path fill="#99588c" d="M18.694 67.375h20.378v2.58H18.694zm0 11.153h20.378v1.632H18.694z"/><path fill="#9e743f" d="M27.01 113.444h-8.676l-.024-4.345-.354-8.102-.632-3.128H28.22v3.128l-.242 8.102zm12.44 0h-9.348l-.307-4.345-.23-8.102v-3.128h10.892l-.633 3.128-.35 8.102z" data-paper-data="{&quot;origPos&quot;:null}"/><path fill="#e63744" d="m41.668 86.238-1.136 11.833H29.456l-.418-4.352h-.296l-.42 4.352h-11.08l-1.13-11.833h16.073z"/><path fill="#eeeeed" d="M28.181 113.248h.02c.065.273-.019.573-.206.863-.6.936-1.642 1.626-2.53 2.256a9.931 9.931 0 0 1-.44.282h-7.876v-2.661c.287-.269.601-.535.927-.739h-.008l.243-4.15h9.668z"/><path fill="#0771b7" d="M28.011 109.772h-9.74l.01-.206h9.721zm.02.408h-9.784l.01-.202h9.765z"/><path fill="#eeeeed" d="M41.361 114.837v1.812h-8.599a7.302 7.302 0 0 1-.442-.288c-.889-.628-1.933-1.315-2.529-2.25-.185-.291-.274-.59-.207-.863h.01l.203-4.15h9.677l.24 4.15h-.009a5.792 5.792 0 0 1 1.656 1.59z"/><path fill="#0771b7" d="M29.771 109.566h9.73l.01.207h-9.749zm-.019.412h9.77l.013.202h-9.792z"/><path fill="#6e6e6d" d="m18.094 113.249-.026-.016s.198-1.965 1.836-2.047c1.696-.083 2.98 1.697 2.98 1.697l-4.79.365z"/><path fill="#0771b7" d="M18.686 113.052s.137-1.352 1.26-1.407c1.17-.057 2.05 1.165 2.05 1.165l-3.293.251z"/><path fill="#0771b7" d="M18.094 113.249s1.968-1.244 6.388 0c1.787.211 2.34-1.464 3.177-1.838.422-.187.542 0 .542 0v1.838c.065.273-.019.572-.207.86-.6.936-1.64 1.627-2.528 2.257-1.374.95-3.113 1.457-4.63 2.19-1.373.583-3.182 1.672-4.412.286-1.626-1.97-.248-4.369 1.652-5.593h-.008v-.009l.026.008"/><path fill="#343434" d="M27.862 114.302c-.614.841-1.574 1.477-2.398 2.063-.577.396-1.215.72-1.879 1.01l-.18-.37c1.963-.579 4.237-2.906 4.237-2.906l.22.203m-9.768-1.053s1.493-.945 4.79-.365c-.97.726-2.592 1.791-3.744 1.8-1.477.011-1.516-.68-1.22-1.334.052-.037.106-.042.156-.107h-.008v-.01l.026.015"/><path fill="#343434" d="M18.021 114.522c2.602 0 4.872 1.05 6.092 2.61-1.068.514-2.224.915-3.277 1.424-1.374.584-3.182 1.673-4.41.284-1.132-1.369-.807-2.948.133-4.193.004-.003.008-.011.012-.018.47-.07.952-.108 1.45-.108"/><path fill="#eeeeed" d="m28.147 111.617.052.002v1.63c.068.272-.017.572-.204.86-.12.185-.255.361-.405.528-.13-.319-.216-.755-.216-1.237 0-.984.346-1.782.773-1.782"/><path fill="#145c83" d="M16.96 114.21a.035.035 0 0 1-.036-.027c-.005-.018.008-.035.026-.042.022-.004 2.163-.532 4.92-.013.016.002.03.022.025.037-.005.02-.022.031-.042.03-2.733-.52-4.866.008-4.886.012a.016.016 0 0 1-.008.003m.565-.526c-.013 0-.028-.009-.033-.02-.006-.02.005-.04.022-.044.022-.009 2.011-.669 4.777-.033.02.005.03.022.026.04-.004.02-.024.033-.039.026-2.746-.63-4.723.022-4.742.031h-.01"/><path fill="#6e6e6d" d="m39.688 113.248-4.788-.365s1.284-1.78 2.977-1.697c1.641.082 1.837 2.047 1.837 2.047l-.026.016z"/><path fill="#0771b7" d="m39.08 113.061-3.295-.251s.884-1.222 2.05-1.165c1.126.055 1.263 1.407 1.263 1.407z"/><path fill="#0771b7" d="m39.688 113.248.026-.008v.009h-.008c1.897 1.224 3.28 3.623 1.654 5.593-1.232 1.386-3.04.297-4.414-.286-1.517-.733-3.254-1.24-4.627-2.19-.888-.63-1.93-1.321-2.532-2.257-.185-.288-.274-.587-.209-.86v-1.838s.124-.187.545 0c.837.374 1.39 2.049 3.175 1.838 4.423-1.244 6.39 0 6.39 0"/><path fill="#343434" d="m29.922 114.302.22-.203s2.274 2.327 4.233 2.906l-.179.37c-.66-.29-1.3-.614-1.876-1.01-.827-.586-1.787-1.222-2.398-2.063m9.766-1.054.026-.015v.01h-.008c.052.065.106.07.156.107.294.654.255 1.345-1.219 1.334-1.15-.009-2.772-1.074-3.743-1.8 3.295-.58 4.788.365 4.788.365"/><path fill="#343434" d="M39.76 114.521c.5 0 .982.038 1.45.108.004.007.01.015.015.018.94 1.245 1.265 2.824.133 4.193-1.23 1.389-3.038.3-4.412-.284-1.05-.509-2.209-.91-3.275-1.424 1.218-1.56 3.49-2.61 6.09-2.61"/><path fill="#eeeeed" d="M29.635 111.618c.426 0 .772.798.772 1.782 0 .482-.082.918-.215 1.237a4.238 4.238 0 0 1-.405-.528c-.185-.288-.274-.588-.207-.86v-1.63l.055-.002"/><path fill="#145c83" d="M40.824 114.21c-.003 0-.007 0-.01-.003-.02-.004-2.15-.532-4.885-.012-.02.001-.038-.01-.04-.03a.03.03 0 0 1 .026-.037c2.751-.519 4.895.009 4.917.013.02.007.03.024.026.042-.007.017-.017.027-.035.027m-.566-.526h-.01c-.02-.009-1.994-.661-4.742-.031-.016.007-.033-.006-.037-.026-.007-.018.006-.035.026-.04 2.766-.636 4.755.024 4.777.033.017.004.026.024.02.044-.004.011-.018.02-.034.02"/><path fill="#9e743f" d="M29.607 52.136h-3.833c-1.095 0-1.983-2.382-1.983-3.47h7.803c0 1.088-.888 3.47-1.987 3.47" data-paper-data="{&quot;origPos&quot;:null}"/><path fill="#eeac6c" d="M25.566 50.94c-.439-.678-.748-1.62-.82-2.3 1.236.202 2.505.31 3.798.31a22.93 22.93 0 0 0 3.972-.341l-.013.016-6.936 2.315"/><path fill="#9e743f" d="M5.65 28.735a24.437 24.437 0 0 1-.264-3.57c0-13.119 10.514-23.75 23.484-23.75 12.97 0 23.482 10.631 23.482 23.75 0 1.158-.08 2.294-.238 3.407 1.354.751 2.268 2.169 2.268 3.79 0 2.411-2.009 4.366-4.483 4.366-.17 0-.333-.011-.494-.029C45.391 43.987 37.7 48.915 28.87 48.915c-8.82 0-16.507-4.92-20.52-12.194-.072.002-.14.007-.21.007-2.478 0-4.487-1.955-4.487-4.365 0-1.515.79-2.846 1.996-3.628" data-paper-data="{&quot;origPos&quot;:null}"/><path fill="#6f4731" d="M53.184 22.304c.034 2.776-1.186 6.634-1.186 6.634s-6.205-7.429-9.99-9.513c-4.628-2.543-6.932 1.206-11.068-2.093-.683-.549-1.96-1.999-1.96-1.999s-1.557 1.587-1.97 1.998c-4.649 4.603-8.132-.768-12.049 2.01-4.98 3.537-9.187 9.43-9.187 9.43s-1.449-1.675-1.249-6.727c.058-1.459.757-4.684 1.893-7.964C10.53 5.734 19.048 0 28.894 0c11.307 0 20.87 7.565 24.011 17.961.16 1.443.253 2.892.28 4.343" data-paper-data="{&quot;origPos&quot;:null}"/><path fill="#6f4731" d="M24.33 22.979c.234-.789-.26-1.752-1.867-1.752s-2.264-.035-4.204.682c-2.69 1.2-2.932 4.432-2.598 3.74.334-.693 2.065-1.729 2.89-1.92 2.618-.49 2.762.601 3.578.786 1.67.379 2.201-1.536 2.201-1.536m10.298 0c-.234-.789.26-1.752 1.867-1.752 1.606 0 2.264-.035 4.204.682 2.69 1.2 2.932 4.432 2.598 3.74-.334-.693-2.066-1.729-2.889-1.92-2.619-.49-2.763.601-3.579.786-1.67.379-2.202-1.536-2.202-1.536" data-paper-data="{&quot;origPos&quot;:null}"/><path fill="#664514" d="M21.887 30.784c0 1.76-.947 3.186-2.114 3.186-1.168 0-2.115-1.426-2.115-3.186s.947-3.185 2.115-3.185c1.167 0 2.114 1.426 2.114 3.185m19.03 0c0 1.76-.948 3.186-2.116 3.186-1.168 0-2.114-1.426-2.114-3.186s.946-3.185 2.114-3.185 2.115 1.426 2.115 3.185" data-paper-data="{&quot;origPos&quot;:null}"/><path fill="#eeac6c" d="M29.308 34.044c-1.189.162-3.192 1.947-3.192 1.947s.218-1.071.531-1.379c.846-1.228 2.63-1.704 2.63-1.704s2.296.747 2.8 1.687c.47.875.36 1.315.36 1.315s-2.242-1.987-3.13-1.866z"/><path fill="#b54b55" d="M22.097 37.896s7.294 3.405 13.93-.423c0 0-1.472 5.808-6.29 5.905-4.352.13-5.27-1.584-5.79-2.077-.524-.491-1.505-1.881-1.85-3.406" data-paper-data="{&quot;origPos&quot;:null}"/></g></svg>