<svg xmlns="http://www.w3.org/2000/svg" width="110.337" height="118.511"><g fill-rule="evenodd" stroke-miterlimit="10" data-paper-data="{&quot;isPaintingLayer&quot;:true}" style="mix-blend-mode:normal"><path fill="#d28d15" d="M31.266 108.103c-.047.828-1.255 1.43-2.085 1.37l-.322-.019c-.823-.053-1.94-.803-1.888-1.633.365-5.614 1.574-7.78 1.94-13.393a1.512 1.512 0 0 1 1.603-1.41l.314.025a1.502 1.502 0 0 1 1.4 1.598c-.363 5.614-.596 7.845-.962 13.461m26.081-.539c.022.83-1.124 1.538-1.951 1.562l-.324.011c-.825.024-2.002-.62-2.026-1.45-.163-5.628.012-7.857-.147-13.483a1.502 1.502 0 0 1 1.46-1.542l.326-.012a1.496 1.496 0 0 1 1.538 1.462c.157 5.624.963 7.831 1.124 13.452"/><path fill="#f7ab0e" d="M63.364 85.666c0 7.66-6.324 17.254-16.593 17.254-10.265 0-20.2-4.947-20.573-17.254-.125-4.08.525-7.4 5.01-7.665 3.913-.232 13.05 3.602 17.838 3.72 2.65.063 4.665-1.074 7.652-1.768 3.055-.716 6.667.254 6.667 5.713"/><path fill="#f7ab0e" d="M36.944 113.297c0 .834-1.169 1.517-2 1.517h-.315c-.835 0-1.992-.683-1.992-1.517 0-5.622.491-7.84.491-13.468 0-.83.666-1.502 1.501-1.502h.315c.831 0 1.503.672 1.503 1.502 0 5.627.497 7.846.497 13.468m25.365-.995c0 .832-1.16 1.51-1.99 1.51h-.324c-.826 0-1.99-.678-1.99-1.51 0-5.624.49-13.414.49-19.04 0-.833.674-1.523 1.5-1.523h.324c.83 0 1.503.69 1.503 1.522 0 5.627.487 13.417.487 19.041"/><path fill="#b75f22" d="M31.489 53.282c0 4.44-2.012 8.038-4.506 8.038-2.491 0-4.505-3.598-4.505-8.038 0-4.434 2.014-8.032 4.505-8.032 2.494 0 4.506 3.598 4.506 8.032"/><path fill="#b75f22" d="M24.938 53.7c1.132 4.287-.057 8.326-2.66 9.016-2.602.687-5.632-2.235-6.762-6.52-1.132-4.296.057-8.334 2.664-9.023 2.602-.684 5.63 2.233 6.758 6.526m3.619-.682c-1.751 4.078-1.162 8.248 1.312 9.31 2.472 1.065 5.895-1.38 7.646-5.457 1.748-4.078 1.157-8.246-1.313-9.306-2.476-1.069-5.899 1.377-7.645 5.453"/><path fill="#b75f22" d="M32.54 57.45c3.348-2.909 7.494-3.615 9.257-1.58 1.764 2.033.483 6.044-2.863 8.957-3.354 2.908-7.492 3.614-9.261 1.58-1.764-2.038-.481-6.045 2.867-8.958"/><path fill="#b75f22" d="M33.692 64.491c5.042-1.847 10.042-.86 11.16 2.21 1.124 3.068-2.053 7.048-7.104 8.895-5.047 1.851-10.043.86-11.16-2.207-1.118-3.067 2.062-7.052 7.104-8.898"/><path fill="#b75f22" d="M35.365 71.763c5.134 1.58 8.513 5.386 7.563 8.512-.963 3.122-5.903 4.371-11.033 2.79-5.135-1.58-8.524-5.387-7.563-8.512.962-3.123 5.898-4.374 11.032-2.79"/><path fill="#b75f22" d="M34.152 78.978c3.25 4.277 3.781 9.354 1.188 11.33-2.599 1.981-7.338.112-10.59-4.165-3.255-4.279-3.792-9.35-1.195-11.327 2.598-1.98 7.337-.118 10.597 4.162"/><path fill="#b75f22" d="M28.369 84.092c.357 5.36-1.997 9.89-5.247 10.102-3.259.217-6.181-3.96-6.535-9.323-.362-5.366 1.992-9.888 5.248-10.108 3.256-.212 6.176 3.963 6.534 9.33"/><path fill="#b75f22" d="M19.853 85.95c-2.81 4.588-7.329 6.93-10.116 5.223-2.786-1.703-2.768-6.804.03-11.392 2.802-4.588 7.331-6.92 10.117-5.225 2.781 1.706 2.771 6.807-.031 11.394"/><path fill="#b75f22" d="M14.894 83.036C9.79 84.706 4.83 83.54 3.816 80.43c-1.002-3.098 2.311-6.97 7.422-8.638 5.101-1.664 10.062-.503 11.072 2.607 1.016 3.1-2.306 6.97-7.416 8.638"/><path fill="#b75f22" d="M12.124 76.884c-5.302-.865-9.178-4.174-8.658-7.4.526-3.222 5.246-5.134 10.546-4.274 5.307.863 9.176 4.175 8.652 7.4-.52 3.22-5.241 5.136-10.54 4.274"/><path fill="#b75f22" d="M13.041 68.372c-4.703-2.597-7.233-7.023-5.653-9.883 1.577-2.855 6.669-3.069 11.367-.472 4.702 2.602 7.231 7.028 5.653 9.885-1.574 2.856-6.659 3.067-11.367.47"/><path fill="#f7ab0e" d="M24.268 55.581c.582 1.574.167 3.185-.941 3.59-1.102.414-2.47-.537-3.052-2.11-.583-1.574-.167-3.18.94-3.59 1.102-.408 2.47.537 3.053 2.11"/><path fill="#f4d2b2" d="M23.608 55.821c.387 1.057.106 2.137-.627 2.412-.739.274-1.658-.358-2.045-1.412-.397-1.057-.114-2.137.62-2.412.745-.274 1.665.358 2.052 1.412"/><path fill="#b75f22" d="M25.458 57.68c.271.725.025 1.5-.547 1.83l.004.014-2.648.992-.01-.01-.006.004c-.764.285-1.635-.169-1.939-1.019-.321-.844.043-1.759.811-2.042.609-.22 1.295.026 1.708.578-.008-.594.307-1.125.837-1.32.693-.259 1.497.177 1.79.972"/><path fill="#f7ab0e" d="M31.903 56.664c.627-1.553 2.022-2.456 3.115-2.02 1.088.441 1.467 2.062.837 3.618-.633 1.558-2.022 2.465-3.119 2.024-1.082-.442-1.458-2.063-.832-3.62"/><path fill="#f4d2b2" d="M32.556 56.932c.416-1.043 1.35-1.65 2.088-1.356.733.294.981 1.377.556 2.43-.42 1.043-1.357 1.648-2.086 1.347-.731-.293-.977-1.38-.558-2.42"/><path fill="#b75f22" d="M30.652 58.732c.318-.787 1.13-1.2 1.827-.923.517.213.814.756.8 1.346.42-.537 1.106-.773 1.72-.525.754.306 1.092 1.225.754 2.063-.338.832-1.224 1.263-1.979.96v-.006l-.006.006-2.629-1.06.01-.018c-.562-.348-.784-1.127-.497-1.843"/><path fill="#f7ab0e" d="M9.871 73.207c1.945-2.56 6.659-4.87 7.81-5.508 1.153-.64 3.71-3.592 5.763-7.69 2.047-4.105 6.785-3.26 7.677 0 .873 3.156 4.748 24.424-11.636 26.528-12.214 1.576-12.674-9.28-9.614-13.33"/><path fill="#f4d2b2" d="M26.01 82.021c0 .774-.074 1.527-.224 2.255-1.66 1.131-3.731 1.934-6.301 2.262-12.214 1.576-12.674-9.28-9.615-13.33.183-.233.377-.458.58-.674a9.91 9.91 0 0 1 5.19-1.466c5.73 0 10.37 4.904 10.37 10.953"/><path fill="#fff" d="M25.809 63.295c-.092.741-.611 1.284-1.16 1.213-.548-.065-.911-.724-.817-1.467.093-.746.613-1.285 1.165-1.216.543.073.912.726.812 1.47"/><path fill="#ad6922" d="M25.385 63.617c.059-.458-.163-.865-.505-.907-.334-.047-.66.291-.72.75-.058.456.168.863.51.913.341.04.656-.296.714-.756m-1.939-2.297s1.742-1.783 2.442-1.588c.22.06.304.618.094.915 0 0-1.485.193-2.537.673"/><path fill="#fff" d="M29.877 63.794c-.096.74-.621 1.285-1.17 1.216-.542-.07-.91-.73-.819-1.476.1-.735.62-1.282 1.168-1.213.548.07.911.731.82 1.473"/><path fill="#ad6922" d="M29.451 64.113c-.061.46-.381.797-.717.755-.344-.04-.572-.456-.515-.907.057-.462.383-.796.727-.755.334.041.564.45.505.907m1.239-1.887c-.905-.73-2.29-1.29-2.29-1.29-.126-.342.092-.862.322-.868.729-.008 1.968 2.158 1.968 2.158M15.906 85.637c3.896 0 3.896-3.868 3.896-3.868s-3.896 2.603-7.785 0c0 0 0 3.868 3.889 3.868M13.59 72.69c.878-1.23 5.552-.917 5.99.525.33 1.082-2.346 3.053-3.477 2.915-1.06-.122-3.13-2.575-2.513-3.44"/><path fill="#774414" d="M12.404 76.567a21.067 21.067 0 0 0-7.715-2.04c-2.014-.135-3.334.077-3.346.077l-.012-.088s1.344-.213 3.368-.077c1.863.128 4.726.584 7.744 2.054l-.04.074zm-1.186.576a21.254 21.254 0 0 0-7.872-1.26c-2.014.067-3.306.407-3.318.407L0 76.207c.014-.006 1.315-.346 3.346-.413 2.69-.08 5.372.35 7.903 1.267l-.031.083zm.368 1.04a21.179 21.179 0 0 0-7.92-.883c-2.014.163-3.286.564-3.301.57l-.028-.082c.01-.006 1.297-.413 3.315-.57a21.116 21.116 0 0 1 7.958.882zm8.831.083-.037-.077a21.2 21.2 0 0 1 7.74-2.046c2.023-.136 3.355.07 3.37.075l-.015.084c-.01 0-1.338-.21-3.35-.07-2.676.18-5.292.87-7.708 2.034m1.19.584-.038-.083a21.22 21.22 0 0 1 7.907-1.269c2.026.067 3.329.41 3.344.41l-.025.086c-.01-.006-1.307-.346-3.319-.413-1.86-.053-4.741.112-7.87 1.27m-.372 1.036-.031-.083a21.346 21.346 0 0 1 7.964-.89c2.018.166 3.305.568 3.32.572l-.035.084c-.01-.006-1.281-.407-3.297-.568-1.861-.146-4.736-.118-7.92.885"/><path fill="#f7ab0e" d="M68.039 97.14c-.51 0-.941-.177-1.26-.525-.673-.726-.846-2.187-.508-4.334.086-.578.251-1.23.418-1.933.409-1.643.87-3.514.452-4.688-.548-1.539-2.432-1.84-3.816-2.064-.407-.065-.758-.116-1.033-.198l.202-.667c.222.063.552.116.943.183.715.11 1.613.251 2.419.6.984.42 1.635 1.06 1.937 1.912.482 1.373 0 3.348-.422 5.093-.171.68-.33 1.322-.415 1.87-.292 1.873-.176 3.207.33 3.754.22.23.513.333.908.297l.053.695c-.063.005-.135.005-.208.005"/><path fill="#ad6922" d="M72.117 97.79c-3.702.834-3.893.202-4.135-.093-.135-.173-.176-1.11.063-1.35 1.35-1.37 4.072 1.443 4.072 1.443"/><path fill="#b75f22" d="M30.491 58.368c.428.115.745.556.745 1.08 0 .613-.431 1.11-.959 1.11-.399 0-.741-.287-.888-.694-.163.31-.47.523-.813.523-.48 0-.881-.425-.94-.968a.903.903 0 0 1-.673.313c-.386 0-.716-.269-.87-.653a.887.887 0 0 1-.695.344c-.531 0-.953-.493-.953-1.105 0-.614.423-1.11.953-1.11.172.002.34.055.483.152.13-.44.488-.758.914-.758.322 0 .611.18.784.47.175-.29.458-.47.782-.47.395 0 .729.268.879.663a.878.878 0 0 1 .3-.057c.525 0 .951.496.951 1.11v.051"/><path fill="#6d1319" d="M33.502 114.986c-3.535 4.906-20.12 4.49-24.173 0l1.674-16.299h20.832z"/><path fill="#e63744" d="M31.811 98.693c0 1.015-4.655 1.84-10.406 1.84s-10.414-.825-10.414-1.84c0-1.015 4.663-1.836 10.414-1.836 5.751 0 10.406.82 10.406 1.836"/><path fill="#477747" d="M13.098 117.197c-1.625-.567-2.951-1.302-3.768-2.21l3.538-15.24.23 17.45m3.914-16.837 2.116 18.033c-2.188-.186-4.287-.588-6.03-1.196zm9.165 17.863c-2.236.316-4.69.37-7.048.171l3.622-17.862 3.426 17.691m5.288-1.563c-1.401.755-3.252 1.273-5.288 1.563l1.47-18.06zm-.946-17.076 2.982 15.401c-.469.653-1.165 1.21-2.035 1.674z"/><path fill="#1b1b1b" d="M66.853 112.703h-8.152c-.061.225.008.5.165.73.481.75 1.32 1.346 2.035 1.85 1.109.757 2.51 1.152 3.73 1.737 1.108.468 2.562 1.308 3.558.203 1.313-1.579.193-3.577-1.335-4.52zm-9.272 0c.061.225-.012.5-.165.73-.484.75-1.325 1.346-2.038 1.85-1.105.757-2.509 1.152-3.735 1.737-1.109.468-2.563 1.308-3.557.203-1.308-1.579-.194-3.577 1.336-4.52z"/><path fill="#6d1319" d="M48.107 87.788h20.59l3 10.102c0 5.718-12.548 10.928-12.548 10.928l-1.18-8.886-.88 8.886s-12.414-4.44-12.414-10.928z"/><path fill="#333433" d="m68.695 90.455-1.666 22.302h-8.445l-.32-16.127h-.25l-.314 16.127h-8.447l-1.675-22.302z"/><path fill="#ffde88" d="M30.754 53.641c1.02-.433 2.238-.036 3.228.92.448-.68.984-1.056 1.474-.96.923.182 1.353 1.946.962 3.931a6.52 6.52 0 0 1-.687 1.993 4.1 4.1 0 0 1-.177.708l4.67 5.498 9.91-3.558s-1.684 2.68-2.1 3.65c-.306.715-.893 2.965-.893 2.965s-7.235 2.943-9.288 2.2c-2.54-.919-5.45-9.197-5.45-9.197-1.095-.39-2.15-1.442-2.762-2.878-.95-2.249-.453-4.61 1.113-5.272" data-paper-data="{&quot;origPos&quot;:null}"/><path fill="#683a15" d="M27.812 60.824c1.047-1.588 24.245-25.098 35.143-26.317 11.797-1.322 38.015 29.08 45.419 19.796 7.11-8.906-25.438-41.009-34.451-34.043-14.873 11.485 32.615 57.86 21.364 72.92-1.59 2.115-10.272-2.578-10.272-2.578s8.812 4.076 10.019 2.225c10.284-15.677-36.536-61.785-21.771-73.324 9.916-7.747 43.5 25.105 35.989 35.21-7.129 9.591-34.272-19.872-46.11-18.302-10.601 1.41-33.48 26.53-33.48 26.53-1.614.334-1.85-2.117-1.85-2.117"/><path fill="#ffde88" d="M36.754 57.266c-.285 1.906-1.226 3.344-2.098 3.21-.883-.13-1.364-1.776-1.083-3.68.283-1.906 1.228-3.342 2.11-3.209.875.13 1.358 1.783 1.071 3.68" data-paper-data="{&quot;origPos&quot;:null}"/><path fill="#343434" d="m52.903 62.947 5.219-.313.024-5.425c-8.098 1.367-8.778 3.727-8.472 5.82 2.235-1.492 3.23-.082 3.23-.082zm5.761-.313-.012-5.425c8.093 1.367 8.779 3.727 8.463 5.82-2.23-1.492-3.226-.082-3.226-.082z"/><path fill="#fff" d="M66.874 62.186c.72.393 3.657 23.823 3.657 23.823l-24.797.004 3.757-23.805c1.778-1.16 7.146-1.35 7.146-1.35l1.49.05h.121l1.5-.05s5.348.178 7.126 1.328"/><path fill="#d0d0d0" d="M58.299 66.013a.51.51 0 1 0 0 1.02.514.514 0 0 0 .515-.509.512.512 0 0 0-.515-.51m0 1.08a.568.568 0 0 1-.56-.57.564.564 0 0 1 .961-.4.56.56 0 0 1 .165.4.563.563 0 0 1-.566.57m0 2.258a.51.51 0 1 0 .01 1.02.51.51 0 0 0-.01-1.02m0 1.078a.566.566 0 0 1 0-1.13.56.56 0 0 1 .566.563.561.561 0 0 1-.566.567"/><path fill="#f7b90b" d="M66.874 62.186c.72.393 3.651 9.852 3.586 9.76 1.409 8.373 1.236 18.513 1.236 18.513l-10.477 4.67-2.995-4.67-3 4.67-10.543-4.67s-.271-12.67 1.721-21.268c-.503.225 3.089-6.983 3.089-6.983l8.714 12.726 8.669-12.748"/><path fill="#cd960b" d="M58.874 82.377a.635.635 0 1 1-.634-.635.63.63 0 0 1 .635.635m-.001 4.78a.638.638 0 0 1-.634.645.637.637 0 0 1-.635-.646.63.63 0 0 1 .635-.635c.352 0 .635.281.635.635m-.001-9.56a.635.635 0 0 1-1.269 0c0-.355.281-.644.635-.644a.64.64 0 0 1 .635.643"/><path fill="#1b1b1b" d="M33.951 32.33c10.166 6.704 42.106 6.704 48.556 0 0 0 3.77 6.704-10.65 14.577-6.197 3.386-21.863 3.024-28.245 0-13.609-6.45-9.661-14.577-9.661-14.577"/><path fill="#ffde88" d="M77.257 43.375c.999.635 1.653 1.73 1.653 2.964 0 1.965-1.656 3.563-3.706 3.563-.057 0-.116 0-.171-.006-3.313 5.945-9.655 9.968-16.933 9.968-7.292 0-13.642-4.029-16.952-9.986a3.032 3.032 0 0 1-.406.024c-2.044 0-3.708-1.598-3.708-3.563 0-1.324.764-2.486 1.874-3.098a19.887 19.887 0 0 1-.192-2.784c0-10.718 8.677-19.408 19.384-19.408 10.698 0 19.376 8.691 19.376 19.408 0 .992-.069 1.962-.219 2.918" data-paper-data="{&quot;origPos&quot;:null}"/><path fill="#343434" d="M51.624 43.853c0 1.657-.895 3-2 3s-2-1.343-2-3 .895-3 2-3 2 1.343 2 3m18 0c0 1.657-.895 3-2 3s-2-1.343-2-3 .895-3 2-3 2 1.343 2 3"/><path fill="#eeac6c" d="M58.644 46.922c-1.125.153-3.02 1.834-3.02 1.834s.207-1.009.503-1.299c.8-1.156 2.487-1.604 2.487-1.604s2.173.703 2.65 1.588c.443.824.34 1.238.34 1.238s-2.121-1.87-2.96-1.756zM51.824 50.55s6.897 3.207 13.172-.398c0 0-1.39 5.47-5.95 5.561-4.115.122-4.984-1.492-5.477-1.956-.492-.463-1.42-1.772-1.745-3.208"/><path fill="#ad6921" d="M78.248 37.924c.031 2.282-.767 7.214-2.315 10.15 0 0-3.816-10.796-6.954-12.506-3.837-2.095-13.952.92-17.382-1.785-.571-.456-.504-1.47-.504-1.47s-.665 1.297-.98 1.655c-1.661 1.892-5.97 4.637-8.01 6.112-1.651 1.181-1.725 1.165-1.362 7.994 0 0-3.02-6.21-2.855-10.36.046-1.199.626-3.844 1.566-6.539C42.867 24.323 49.937 19.61 58.1 19.61c9.382 0 17.316 6.216 19.92 14.754.128 1.183.204 2.37.228 3.56"/><path fill="#ffde88" d="M56.585 62.084c-.9 0-1.638-1.945-1.638-2.837h6.445c0 .892-.737 2.837-1.639 2.837h-3.168" data-paper-data="{&quot;origPos&quot;:null}"/><path fill="#eeac6c" d="M55.695 61.466c-.363-.553-.67-1.303-.735-1.855 1.024.161 2.065.254 3.14.254 1.118 0 2.215-.097 3.278-.28l-.01.011-5.673 1.87"/><path fill="#ffde88" d="M77.369 82.93c.008.012.008.018.008.018s0-.006-.008-.018m0-.037c.402.586.685 1.341.774 2.185.21 1.997-.749 3.744-2.14 3.89-.906.094-1.778-.512-2.33-1.503-.52.424-1.024.596-1.39.401-.687-.362-.603-1.857.177-3.339a6.01 6.01 0 0 1 1.022-1.402c.033-.06.061-.12.096-.178 0 0-.025-.147-.063-.4h3.818c.026.198.036.336.036.383v-.037" data-paper-data="{&quot;origPos&quot;:null}"/><path fill="#e63744" d="M53.446 61.136c2.981 17.747 3.794 24.524-.601 30.86-1.432 2.08-8.164 5.9-8.164 5.9v-7.438s-.271-12.67 1.721-21.267c-.503.225-6.401 2.56-8.371 1.845-2.536-.92-6.283-8.79-6.283-8.79l4.057-1.994 4.706 5.473 8.98-3.518c.833-.545 2.465-.877 3.955-1.072M73.212 82.56s-1.096-8.268-2.536-10.314c-.081-.106-.15-.208-.214-.3 1.406 8.374 1.236 18.515 1.236 18.515v7.438s-6.469-3.84-7.796-5.9c-4.175-6.468-2.658-11.679-.61-30.82 1.385.2 2.817.513 3.581 1.01.722.392 4.714 2.645 6.09 4.41 3.112 3.98 4.478 15.967 4.478 15.967l-4.229-.006"/><path fill="#cd960b" d="m71.209 63.84-4.429-.97-.943.93c2.482.666 4.091 3.203 5.384 2.483.534-.299-.012-2.445-.012-2.445zm-21.138-1.696.944.932c-2.478.665-4.095 3.207-5.39 2.482-.531-.294.013-2.44.013-2.44z"/><path fill="#f6b90c" d="m66.05 62.621 3.82 1.386c.592.214 1.234.166 1.37-.2l.006-.007c.129-.362-.309-.913-.897-1.126l-4.1-1.487zm-14.617-.258L46.98 63.46c-.617.148-1.251.036-1.341-.342v-.006c-.097-.376.39-.879 1-1.026l4.65-1.15z"/><path fill="#343434" d="M51.092 59.573c-1.462 1.096-1.582 2.316-1.417 3.457l3.228 2.197.851-2.19s.458-1.85 1.022-2.049zm14.606 0c1.458 1.096 1.59 2.316 1.417 3.457l-3.227 2.197-.754-2.522s-.523-1.206-1.554-1.723z"/><path fill="#cd960b" d="M55.283 84.383c.636-5.774-7.404-19.23-7.404-19.23l5.826-2.449h.006c2.765 16.587 3.393 23.144-.865 29.293-1.44 2.08-8.173 5.9-8.173 5.9v-.822c7.884-4.446 10.103-8.19 10.61-12.692m6.539 0c.519 4.408 2.356 8.247 9.889 12.757h.018v.758s-6.492-3.84-7.812-5.9c-4.074-6.292-2.755-11.398-.788-29.294h.006l5.108 2.455s-6.951 14.658-6.421 19.224"/><path fill="#343434" d="M67.58 65.446s-4.759 10.196-6.327 16.222c.072-4.245.875-9.899 1.842-18.634h.005l4.48 2.412m-13.825-2.41h.01c1.401 8.432 2.238 14.247 2.143 18.74-1.32-6.01-7.138-16.336-7.138-16.336z"/><path fill="#f7b90b" d="M54.488 84.657a.641.641 0 0 0-.642-.64.638.638 0 0 0-.637.64.634.634 0 0 0 .637.638.638.638 0 0 0 .642-.638m9.054 0a.635.635 0 0 0-1.27 0 .631.631 0 0 0 .633.638.633.633 0 0 0 .636-.638m9.671-2.098s-.414-3.096-1.061-5.975c.92-.145 3.1-.446 4.29-.17.682 3.342 1 6.151 1 6.151l-4.229-.006"/><path fill="#343434" d="M73.212 82.56s-.375-2.873-.99-5.65c.977-.158 3.148-.449 4.288-.142.631 3.185.931 5.797.931 5.797l-4.229-.006"/><path fill="#f7b90b" d="M35.377 68.49c-1.897-2.613-3.63-6.245-3.63-6.245l4.06-1.993 4.336 5.037c-.623.53-3.257 2.75-4.767 3.2"/><path fill="#343434" d="M35.181 68.218c-1.82-2.589-3.433-5.972-3.433-5.972l4.057-1.995 4.116 4.788c-.685.585-3.275 2.75-4.74 3.18"/><path fill="#fff" d="M57.098 62.882c-.495-.03-.943.033-1.285-.024-.366-.059-.639-.293-.824-.49-.343-.342-.224-1.51-.117-2.252l2.226.205zm2.051-2.553 2.332-.209c.099.732.199 1.875-.108 2.25a.442.442 0 0 1-.094.097l-.098.097c-.085.07-.173.151-.289.186-.44.136-1.061.211-1.743.25z"/><path fill="#cd960b" d="M59.266 62.246H57.04v-1.843a51.908 51.908 0 0 1-2.174-.177c.007-.069.01-.136.02-.193 1.071.118 2.315.213 2.315.213v1.833h1.894l-.006-1.827s1.293-.109 2.38-.23c.012.062.021.13.035.201-.745.076-1.49.136-2.238.18z" data-paper-data="{&quot;origPos&quot;:null}"/><path fill="#e63744" d="M58.205 62.858s-2.607 3.29-3.733 2.926c-1.026-.327-1.085-3.65-.226-4.3.839-.632 3.96 1.374 3.96 1.374"/><path fill="#e63744" d="M58.199 62.858s3.126-2.006 3.965-1.374c.861.65.802 3.973-.22 4.3-1.135.364-3.745-2.926-3.745-2.926"/><path fill="#e63744" d="M58.652 63.03c0 .348-.189.623-.434.623-.234 0-.436-.275-.436-.624 0-.342.202-.62.436-.62.245 0 .434.278.434.62"/><path fill="#343434" d="M38.485 34.351 35.722 5.246c6.985-6.995 38.078-6.995 45.058 0l-2.779 29.12s-21.645 4.047-39.517-.015z"/><path fill="#e63744" d="M38.18 31.122c9.223-3.592 28.647-3.634 40.167-.362l-.344 3.604s-21.648 4.05-39.519-.012l-.304-3.23"/><path fill="#343434" d="M82.507 32.33c.413.3.835 2.872 0 3.728-.813.818-3.204 1.401-4.352 1.503-9.96.895-30.047.818-40.012 0-1.113-.089-3.568-.578-4.193-1.503-.837-1.224-.422-3.428 0-3.728.916-.649 3.146 1.228 4.235 1.503 9.936 2.56 30.422 2.565 40.045 0 1.097-.289 3.347-2.158 4.277-1.503"/></g></svg>