<svg version="1.1" xmlns="http://www.w3.org/2000/svg" xmlns:xlink="http://www.w3.org/1999/xlink" width="75.49972" height="117.71819" viewBox="0,0,75.49972,117.71819"><g transform="translate(-202.79528,-120.21)"><g data-paper-data="{&quot;isPaintingLayer&quot;:true}" fill-rule="evenodd" stroke="none" stroke-width="1" stroke-linecap="butt" stroke-linejoin="miter" stroke-miterlimit="10" stroke-dasharray="" stroke-dashoffset="0" style="mix-blend-mode: normal"><path d="M277.268,198.742c0.254,2.405 -0.898,4.489 -2.574,4.667c-1.099,0.115 -2.144,-0.613 -2.81,-1.8c-0.62,0.509 -1.237,0.713 -1.674,0.482c-0.822,-0.435 -0.724,-2.227 0.219,-3.998c0.32148,-0.61965 0.73445,-1.18734 1.225,-1.684c0.039,-0.073 0.079,-0.142 0.119,-0.216c0,0 -1.63,-10.377 -3.37,-12.826c-0.867,-1.231 -1.966,-2.203 -2.168,-2.744v-0.01c1.361,10.283 -0.157,24.569 -0.157,24.569h-25.41c0,0 -1.778,-15.744 -0.08,-26.058v0.014c0,0 -9.028,3.615 -11.494,2.722c-3.054,-1.104 -6.56,-11.029 -6.56,-11.029c-1.312,-0.469 -2.587,-1.717 -3.325,-3.447c-1.143,-2.7 -0.543,-5.524 1.34,-6.315c1.228,-0.522 2.701,-0.045 3.893,1.095c0.535,-0.813 1.179,-1.26 1.77,-1.146c1.107,0.215 1.624,2.326 1.161,4.718c-0.179,0.911 -0.475,1.728 -0.836,2.388c-0.045,0.294 -0.116,0.578 -0.21,0.847l5.619,6.582l11.856,-4.24c1.359,-0.94 4.341,-1.366 6.144,-1.54c-0.303,-0.669 -0.486,-1.391 -0.486,-1.924h7.753c0,0.533 -0.18,1.264 -0.488,1.94c1.83,0.169 4.787,0.598 6.097,1.542c0.691,0.365 6.62,3.54 8.34,5.727c3.746,4.775 5.181,19.14 5.181,19.14c-0.00055,-0.02211 -0.00256,-0.04416 -0.006,-0.066c0.483,0.695 0.822,1.601 0.931,2.61" data-paper-data="{&quot;origPos&quot;:null}" fill="#9e703f"/><path d="M250.29,170.405c-0.437,-0.669 -0.74,-1.587 -0.811,-2.256c1.228,0.198 2.489,0.306 3.773,0.306c1.32384,-0.00112 2.64532,-0.11149 3.951,-0.33l-0.013,0.01l-6.9,2.27" fill="#eeac6c"/><path d="M252.703,231.944c0.063,0.258 -0.022,0.533 -0.2,0.812c-0.581,0.9 -1.595,1.548 -2.458,2.15c-1.33,0.909 -3.015,1.398 -4.484,2.098c-1.335,0.562 -3.093,1.607 -4.285,0.28c-1.576,-1.889 -0.234,-4.2 1.604,-5.34h-0.006l-0.466,-11.804h10.296v11.803M263.862,231.943c1.845,1.131 3.182,3.451 1.604,5.34c-1.192,1.327 -2.948,0.282 -4.281,-0.28c-1.468,-0.7 -3.155,-1.188 -4.488,-2.098c-0.862,-0.601 -1.872,-1.251 -2.452,-2.151c-0.184,-0.278 -0.27,-0.544 -0.2,-0.811h-0.005v-11.804h10.294l-0.463,11.804h-0.009" data-paper-data="{&quot;origPos&quot;:null}" fill="#9e703f"/><path d="M266.076,205.182l-1.132,14.936h-11.274l-0.152,-7.605h-0.292l-0.154,7.605h-11.28l-1.124,-14.936h15.979z" fill="#1679af"/><path d="M244.146,220.117h-1.738l-1.138,-14.935h1.74zM262.597,220.117h1.737l1.14,-14.935h-1.734z" fill="#61c6f1"/><path d="M223.195,123.736c11.851,9.973 19.999,31.671 19.883,56.787c-0.118,25.122 -6.137,56.666 -20.401,56.602c-14.267,-0.06 -19.996,-31.669 -19.88,-56.785c0.111,-25.116 8.463,-46.74 20.398,-56.603" fill="#f08314"/><path d="M223.21,123.884c11.84,9.969 19.984,31.629 19.868,56.707c-0.118,25.082 -6.133,56.582 -20.388,56.536l0.52,-113.243" fill="#e63744"/><path d="M276.31,148.695c1.199,0.767 1.985,2.067 1.985,3.556c0,2.356 -1.992,4.269 -4.454,4.269h-0.21c-4.13151,7.376 -11.92873,11.94118 -20.383,11.934c-8.768,0 -16.405,-4.828 -20.39,-11.966c-0.161,0.02 -0.328,0.031 -0.493,0.031c-2.46,0 -4.457,-1.913 -4.457,-4.269c0,-1.598 0.909,-2.984 2.256,-3.716c-0.157,-1.09 -0.237,-2.204 -0.237,-3.34c0,-12.844 10.439,-23.26 23.32,-23.26c12.89,0 23.327,10.416 23.327,23.26c0,1.192 -0.087,2.36 -0.264,3.5" data-paper-data="{&quot;origPos&quot;:null}" fill="#9e703f"/><path d="M248.311,143.65c0,0 -0.503,1.803 -2.082,1.446c-0.772,-0.174 -0.908,-1.201 -3.386,-0.74c-0.779,0.18 -2.417,1.156 -2.732,1.808c-0.316,0.652 -0.088,-2.392 2.457,-3.522c1.835,-0.675 2.457,-0.642 3.977,-0.642c1.52,0 1.987,0.907 1.766,1.65M258.052,143.65c0,0 0.503,1.803 2.082,1.446c0.772,-0.174 0.908,-1.201 3.386,-0.74c0.779,0.18 2.417,1.156 2.732,1.808c0.316,0.652 0.087,-2.392 -2.457,-3.522c-1.835,-0.675 -2.457,-0.642 -3.977,-0.642c-1.52,0 -1.987,0.907 -1.766,1.65" data-paper-data="{&quot;origPos&quot;:null}" fill="#3a290f"/><path d="M246,151c0,1.657 -0.895,3 -2,3c-1.105,0 -2,-1.343 -2,-3c0,-1.657 0.895,-3 2,-3c1.105,0 2,1.343 2,3M264,151c0,1.657 -0.895,3 -2,3c-1.105,0 -2,-1.343 -2,-3c0,-1.657 0.895,-3 2,-3c1.105,0 2,1.343 2,3" data-paper-data="{&quot;origPos&quot;:null}" fill="#3a290f"/><path d="M253.02,154.069c-1.125,0.153 -3.02,1.834 -3.02,1.834c0,0 0.207,-1.009 0.503,-1.299c0.8,-1.156 2.487,-1.604 2.487,-1.604c0,0 2.173,0.703 2.65,1.588c0.443,0.824 0.34,1.238 0.34,1.238c0,0 -2.121,-1.871 -2.96,-1.756z" fill="#eeac6c"/><path d="M246.2,157.696c0,0 6.897,3.208 13.172,-0.397c0,0 -1.39,5.47 -5.95,5.561c-4.115,0.122 -4.984,-1.492 -5.477,-1.956c-0.492,-0.463 -1.42,-1.772 -1.745,-3.208" fill="#eeac6c"/><path d="M277.499,142.166c0.038,2.728 -0.918,8.64 -2.788,12.164c0,0 -4.586,-12.948 -8.366,-14.998c-4.618,-2.504 -16.792,1.105 -20.92,-2.144c-0.686,-0.538 -0.608,-1.758 -0.608,-1.758c0,0 -0.794,1.56 -1.172,1.991c-2.002,2.267 -7.188,5.553 -9.65,7.32c-1.977,1.418 -2.07,1.402 -1.629,9.589c0,0 -3.642,-7.449 -3.439,-12.422c0.056,-1.434 0.753,-4.612 1.89,-7.842c4.103,-8.214 12.609,-13.856 22.435,-13.856c11.292,0 20.84,7.442 23.97,17.678c0.16075,1.42074 0.25319,2.84839 0.277,4.278" data-paper-data="{&quot;origPos&quot;:null}" fill="#3a290f"/></g></g></svg>