<svg version="1.1" xmlns="http://www.w3.org/2000/svg" xmlns:xlink="http://www.w3.org/1999/xlink" width="107.455" height="114.61127" viewBox="0,0,107.455,114.61127"><g transform="translate(-186.384,-123.0522)"><g data-paper-data="{&quot;isPaintingLayer&quot;:true}" fill-rule="evenodd" stroke="none" stroke-width="1" stroke-linecap="butt" stroke-linejoin="miter" stroke-miterlimit="10" stroke-dasharray="" stroke-dashoffset="0" style="mix-blend-mode: normal"><path d="M239.431,231.798c0.066,0.247 -0.017,0.518 -0.187,0.785c-0.548,0.864 -1.514,1.498 -2.337,2.074c-1.275,0.891 -2.883,1.373 -4.293,2.053c-1.275,0.549 -2.948,1.57 -4.108,0.3c-1.526,-1.796 -0.261,-4.029 1.499,-5.137h-0.01l-0.537,-11.329l9.887,-0.076l0.09,11.33h-0.005M250.144,231.713c1.778,1.075 3.08,3.294 1.585,5.115c-1.138,1.288 -2.829,0.29 -4.115,-0.238c-1.414,-0.659 -3.04,-1.115 -4.322,-1.982c-0.833,-0.566 -1.811,-1.184 -2.373,-2.04c-0.177,-0.26 -0.26,-0.523 -0.2,-0.78h-0.004l-0.092,-11.333l9.887,-0.076l-0.36,11.334h-0.006" data-paper-data="{&quot;origPos&quot;:null}" fill="#9e733f"/><path d="M239.422,231.831h0.014c0.062,0.246 -0.019,0.524 -0.183,0.796c-0.55,0.863 -1.52,1.505 -2.34,2.083c-0.137,0.098 -0.274,0.185 -0.414,0.266l-7.327,0.058l-0.021,-2.443c0.26218,-0.25608 0.54965,-0.48492 0.858,-0.683h-0.011l-0.18,-3.812l9.57,-0.076z" fill="#eeeeed"/><path d="M239.393,228.463v0.184l-9.545,0.075l-0.008,-0.184zM239.397,228.839v0.18l-9.533,0.075l-0.006,-0.18z" fill="#61c6f1"/><path d="M251.718,234.855l-8.01,0.063c-0.139,-0.076 -0.279,-0.172 -0.416,-0.256c-0.826,-0.573 -1.811,-1.194 -2.372,-2.05c-0.172,-0.267 -0.257,-0.543 -0.196,-0.789h0.01l-0.032,-3.814l9.575,-0.076l-0.123,3.815h-0.004c0.60843,0.37545 1.13657,0.86756 1.554,1.448z" fill="#eeeeed"/><path d="M240.707,228.45l9.556,-0.074l-0.004,0.184l-9.552,0.077zM240.709,228.826l9.541,-0.074l-0.006,0.18l-9.534,0.075z" fill="#61c6f1"/><path d="M230.022,231.908c0,0 1.825,-1.165 5.95,-0.046c1.666,0.176 2.166,-1.365 2.943,-1.713c0.395,-0.176 0.509,-0.004 0.509,-0.004l0.013,1.686c0.06,0.246 -0.021,0.524 -0.186,0.795c-0.548,0.86 -1.518,1.506 -2.34,2.086c-1.275,0.883 -2.885,1.363 -4.297,2.045c-1.271,0.546 -2.949,1.566 -4.106,0.296c-1.527,-1.798 -0.258,-4.012 1.501,-5.145h-0.01v-0.01l0.023,0.01" fill="#e63744"/><path d="M239.125,232.802c-0.565,0.774 -1.452,1.367 -2.212,1.91c-0.536,0.368 -1.136,0.671 -1.743,0.944l-0.17,-0.337c1.819,-0.545 3.917,-2.702 3.917,-2.702l0.208,0.185" fill="#333433"/><path d="M229.968,233.073c2.423,-0.019 4.541,0.927 5.69,2.357c-0.991,0.478 -2.069,0.856 -3.045,1.326c-1.271,0.548 -2.949,1.566 -4.106,0.298c-1.057,-1.251 -0.772,-2.705 0.098,-3.849c0.002,-0.01 0.006,-0.012 0.014,-0.016c0.432,-0.076 0.885,-0.112 1.348,-0.116" fill="#9b1d2b"/><path d="M239.37,230.33c-0.395,0.002 -0.712,0.741 -0.706,1.649c0.004,0.443 0.079,0.84 0.21,1.13c0.13834,-0.15131 0.26472,-0.31313 0.378,-0.484c0.164,-0.27 0.247,-0.547 0.185,-0.794l-0.013,-1.493c-0.01738,-0.00584 -0.03567,-0.00855 -0.054,-0.008M250.134,231.748l0.02,-0.01v0.01h-0.008c1.778,1.106 3.078,3.3 1.583,5.125c-1.136,1.286 -2.829,0.292 -4.108,-0.237c-1.423,-0.66 -3.043,-1.112 -4.328,-1.974c-0.833,-0.567 -1.812,-1.199 -2.374,-2.05c-0.177,-0.268 -0.258,-0.543 -0.196,-0.79l-0.014,-1.684c0,0 0.112,-0.176 0.502,-0.006c0.783,0.334 1.311,1.866 2.973,1.661c4.108,-1.178 5.95,-0.045 5.95,-0.045" fill="#e63744"/><path d="M241.045,232.786l0.202,-0.185c0,0 2.13,2.12 3.967,2.637l-0.169,0.338c-0.614,-0.261 -1.215,-0.553 -1.752,-0.914c-0.771,-0.534 -1.677,-1.11 -2.248,-1.876" fill="#333433"/><path d="M250.21,232.913c0.46,-0.006 0.913,0.027 1.35,0.093c0.003,0.004 0.01,0.006 0.012,0.019c0.884,1.129 1.196,2.579 0.155,3.846c-1.134,1.287 -2.826,0.295 -4.106,-0.234c-0.99,-0.453 -2.066,-0.812 -3.067,-1.278c1.127,-1.448 3.233,-2.427 5.655,-2.446" fill="#9b1d2b"/><path d="M240.755,230.32c0.401,-0.005 0.731,0.73 0.738,1.636c0.004,0.443 -0.073,0.841 -0.193,1.137c-0.13957,-0.15006 -0.26666,-0.31126 -0.38,-0.482c-0.18,-0.266 -0.258,-0.541 -0.198,-0.788l-0.012,-1.495c0.016,-0.004 0.027,-0.008 0.045,-0.008" fill="#e63744"/><path d="M263.28,198.84c0.272,2.364 -0.843,4.423 -2.489,4.61c-1.077,0.122 -2.11,-0.588 -2.77,-1.748c-0.606,0.507 -1.211,0.71 -1.643,0.49c-0.812,-0.426 -0.729,-2.187 0.183,-3.936c0.31504,-0.61053 0.71801,-1.17151 1.196,-1.665c0.036,-0.068 0.071,-0.139 0.113,-0.211c0,0 -1.688,-10.18 -3.414,-12.573c-0.862,-1.2 -1.95,-2.148 -2.152,-2.68v-0.004c1.417,10.079 0.04,24.132 0.04,24.132l-24.954,0.197c0,0 -1.867,-15.455 -0.283,-25.593v0.015c0,0 -8.831,3.618 -11.267,2.765c-3.007,-1.063 -6.525,-10.784 -6.525,-10.784c-1.295,-0.449 -2.557,-1.671 -3.29,-3.364c-1.15,-2.634 -0.582,-5.419 1.26,-6.214c1.202,-0.52 2.652,-0.066 3.832,1.046c0.519,-0.793 1.148,-1.243 1.728,-1.135c1.092,0.199 1.618,2.268 1.182,4.621c-0.17,0.901 -0.453,1.703 -0.804,2.349c-0.044,0.292 -0.112,0.574 -0.201,0.839v-0.008l5.57,6.421c0,0 5.12,-4.801 8.54,-3.126l3.07,-1.128c1.327,-0.928 4.253,-1.372 6.025,-1.56c-0.306,-0.653 -0.49,-1.359 -0.496,-1.887l7.616,-0.058c0.006,0.526 -0.171,1.247 -0.463,1.912c1.798,0.151 4.702,0.544 5.994,1.464c0.685,0.358 6.534,3.428 8.237,5.566c3.713,4.661 5.24,18.757 5.24,18.757c-0.00069,-0.0221 -0.0027,-0.04414 -0.006,-0.066c0.48,0.683 0.818,1.566 0.93,2.556" data-paper-data="{&quot;origPos&quot;:null}" fill="#9e733f"/><path d="M236.575,171.215c-0.444,-0.648 -0.745,-1.551 -0.822,-2.2c1.22958,0.18095 2.47121,0.26754 3.714,0.259c1.29763,-0.00774 2.59227,-0.1255 3.87,-0.352l-0.01,0.013l-6.752,2.28M211.514,176.978c-1.285,-2.612 -2.201,-5.125 -2.201,-5.125l-0.013,-0.01l3.809,-2.125c-0.027,0.1 -0.056,0.189 -0.087,0.28v-0.009l3.321,3.83l-4.829,3.159M261.401,190.105c0.37283,1.96422 0.67768,3.94073 0.914,5.926l-4.466,0.245c-0.34078,-1.97859 -0.73325,-3.94793 -1.177,-5.906l4.728,-0.265M233.233,184.422c1.58,-0.014 3.551,-0.265 5.933,-0.77l-0.023,-0.122c-5.105,1.077 -8.295,1.029 -9.761,-0.147c-0.648,-0.518 -0.966,-1.245 -0.976,-2.273h-0.125c0.008,1.028 0.34,1.827 1.02,2.376c0.804,0.642 2.1,0.949 3.932,0.936M246.357,184.317c-1.58,0.015 -3.555,-0.207 -5.945,-0.675l0.02,-0.125c5.122,1 8.312,0.904 9.759,-0.3c0.64,-0.527 0.945,-1.259 0.937,-2.287h0.132c0.005,1.028 -0.319,1.834 -0.99,2.389c-0.789,0.656 -2.085,0.984 -3.913,0.998M239.769,179.494l-0.133,0.003l0.025,2.87l0.131,-0.002zM222.765,178.334c1.562,-0.013 3.506,-0.375 5.007,-1.769l-0.087,-0.093c-1.705,1.586 -3.996,1.802 -5.618,1.713c-1.767,-0.095 -3.144,-0.576 -3.156,-0.585l-0.04,0.123c0.012,0.002 1.401,0.493 3.181,0.59c0.23729,0.01663 0.47515,0.02364 0.713,0.021M258.915,186.386l-0.122,0.04l-1.607,-5.176v-0.04c0.003,-0.025 0.394,-1.423 0.46,-2.868c0.044,0.063 0.079,0.131 0.123,0.2c-0.085,1.301 -0.409,2.506 -0.459,2.686z" fill="#eeac6c"/><path d="M253.055,181.269c1.559,7.084 0.88,16.847 0.388,21.638c-0.176,1.785 -0.521,2.875 -0.521,2.875c0,0 -2.179,10.336 -2.414,14.616l-9.883,0.077c0.047,-1.66 -0.56,-7.335 -0.56,-7.335l-0.28,0.002c0,0 -0.496,6.067 -0.44,7.345l-9.886,0.077c-0.264,-5.046 -2.49,-14.572 -2.49,-14.572c0,0 -0.334,-1.082 -0.504,-2.87c-0.502,-5.247 -1.258,-16.507 0.58,-23.902c2.858,-0.255 3.485,-5.572 3.62,-7.285c0.021,-0.327 0.03,-0.52 0.03,-0.52c0.116,-0.081 0.232,-0.133 0.37,-0.203c1.14,-0.595 2.96,-0.918 4.44,-1.102c0,0 0.313,10.918 4.218,10.896c3.913,-0.023 4.128,-10.966 4.128,-10.966c1.635,0.184 3.723,0.551 4.84,1.247l0.006,0.012c0.069,5.966 2.628,8.671 3.76,9.436c0.124,0.082 0.382,0.252 0.434,0.2c0.06,0.137 0.143,0.218 0.164,0.334" fill="#0771b7"/><path d="M230.695,171.415v-0.004zM230.695,171.411c0.002,-0.004 0.002,-0.004 0,0" fill="#e63744"/><path d="M231.707,170.928c-0.23,0.089 -0.45,0.186 -0.644,0.284c-0.137,0.07 -0.253,0.122 -0.367,0.203c0,0 -0.009,0.192 -0.031,0.52c-0.133,1.713 -0.763,7.03 -3.62,7.285c-0.15076,0.61445 -0.28249,1.23341 -0.395,1.856c2.565,-0.404 5.62,-7.111 5.057,-10.148M253.223,182.08c-0.05,-0.274 -0.11,-0.545 -0.168,-0.812c-0.021,-0.114 -0.104,-0.195 -0.164,-0.334c-0.052,0.054 -0.31,-0.116 -0.434,-0.198c-1.132,-0.767 -3.691,-3.47 -3.76,-9.438l-0.006,-0.012c-0.35429,-0.21153 -0.73222,-0.38069 -1.126,-0.504c-0.585,3.364 3.012,11.66 5.658,11.298M239.72,182.388c-4.022,0.022 -4.998,-8.883 -5.216,-12.141c0.33208,-0.05442 0.66552,-0.1001 1,-0.137c0,0 0.314,10.919 4.219,10.896c3.913,-0.023 4.129,-10.966 4.129,-10.966c0.316,0.035 0.648,0.074 0.986,0.124c-0.193,3.273 -1.082,12.199 -5.117,12.224" fill="#f6b90c"/><path d="M217.167,150.519c-0.1767,-1.10649 -0.2713,-2.22455 -0.283,-3.345c-0.097,-12.31 9.833,-22.374 22.176,-22.474c12.34,-0.098 22.428,9.808 22.526,22.116c0.00817,1.06979 -0.05967,2.13882 -0.203,3.199c1.296,0.7 2.178,2.02 2.19,3.542c0.02,2.264 -1.881,4.112 -4.236,4.13c-0.15763,0.00088 -0.3152,-0.0068 -0.472,-0.023c-3.89392,7.11543 -11.33698,11.56297 -19.448,11.621c-8.393,0.066 -15.745,-4.493 -19.619,-11.29c-0.072,0.003 -0.137,0.007 -0.205,0.007c-2.358,0.02 -4.28,-1.8 -4.297,-4.064c-0.01,-1.413 0.73,-2.674 1.87,-3.42" data-paper-data="{&quot;origPos&quot;:null}" fill="#9e733f"/><path d="M233.229,147.096c-0.772,-0.174 -0.908,-1.201 -3.386,-0.74c-0.779,0.18 -2.417,1.156 -2.732,1.808c-0.316,0.652 -0.088,-2.392 2.457,-3.522c1.835,-0.675 2.457,-0.642 3.977,-0.642c1.52,0 1.987,0.907 1.766,1.65c0,0 -0.503,1.803 -2.082,1.446zM247.134,147.096c0.772,-0.174 0.908,-1.201 3.386,-0.74c0.779,0.18 2.417,1.156 2.732,1.808c0.316,0.652 0.087,-2.392 -2.457,-3.522c-1.835,-0.675 -2.457,-0.642 -3.977,-0.642c-1.52,0 -1.987,0.907 -1.766,1.65c0,0 0.503,1.803 2.082,1.446zM233,153c0,1.657 -0.895,3 -2,3c-1.105,0 -2,-1.343 -2,-3c0,-1.657 0.895,-3 2,-3c1.105,0 2,1.343 2,3M251,153c0,1.657 -0.895,3 -2,3c-1.105,0 -2,-1.343 -2,-3c0,-1.657 0.895,-3 2,-3c1.105,0 2,1.343 2,3" fill="#343434"/><path d="M240.02,156.069c-1.125,0.153 -3.02,1.834 -3.02,1.834c0,0 0.207,-1.009 0.503,-1.299c0.8,-1.156 2.487,-1.604 2.487,-1.604c0,0 2.173,0.703 2.65,1.588c0.443,0.824 0.34,1.238 0.34,1.238c0,0 -2.121,-1.871 -2.96,-1.756z" fill="#eeac6c"/><path d="M233.2,159.696c0,0 6.897,3.208 13.172,-0.397c0,0 -1.39,5.47 -5.95,5.561c-4.115,0.122 -4.984,-1.492 -5.477,-1.956c-0.492,-0.463 -1.42,-1.772 -1.745,-3.208" fill="#eeac6c"/><path d="M262.531,143.905c0.052,2.62 -0.822,8.285 -2.582,11.68c0,0 -4.496,-12.373 -8.131,-14.311c-4.445,-2.362 -16.083,1.192 -20.063,-1.888c-0.663,-0.517 -0.597,-1.68 -0.597,-1.68c0,0 -0.749,1.492 -1.11,1.91c-1.899,2.186 -6.84,5.382 -9.185,7.089c-1.887,1.377 -1.973,1.363 -1.493,9.204c0,0 -3.541,-7.114 -3.387,-11.88c0.045,-1.372 0.689,-4.425 1.753,-7.532c4.00276,-8.17628 12.28771,-13.38328 21.391,-13.444c10.818,-0.087 20.018,6.975 23.1,16.758c0.15972,1.35935 0.26081,2.72495 0.303,4.093" fill="#343434"/><path d="M293.839,222.892l-107.439,0.851l-0.016,-1.844l107.437,-0.855z" fill="#b5b4b4"/><path d="M193.654,223.021l1.816,7.57l-0.125,-15.301zM206.492,222.918l-1.695,7.6l-0.12,-15.303z" fill="#d7d6d6"/><path d="M198.42,236.435l-2.947,0.023l-0.216,-27.03l2.947,-0.025z" fill="#33ad72"/><path d="M201.622,236.409l-2.953,0.024l-0.214,-27.032l2.951,-0.023zM204.886,236.382l-2.943,0.025l-0.216,-27.03l2.943,-0.025z" fill="#b52836"/><path d="M275.615,214.653l0.124,15.301l-1.813,-7.573z" fill="#d7d6d6"/><path d="M278.69,235.796l-2.948,0.024l-0.216,-27.03l2.95,-0.022zM281.892,235.771l-2.943,0.025l-0.216,-27.032l2.943,-0.025z" fill="#b52836"/><path d="M285.16,235.745l-2.95,0.025l-0.213,-27.032l2.949,-0.023z" fill="#33ad72"/></g></g></svg>