<svg version="1.1" xmlns="http://www.w3.org/2000/svg" xmlns:xlink="http://www.w3.org/1999/xlink" width="66.83503" height="119.9995" viewBox="0,0,66.83503,119.9995"><g transform="translate(-206.64019,-120)"><g data-paper-data="{&quot;isPaintingLayer&quot;:true}" fill-rule="evenodd" stroke-miterlimit="10" stroke-dasharray="" stroke-dashoffset="0" style="mix-blend-mode: normal"><path d="M272.79,159.088c0,38.021 -65.438,38.215 -65.438,0c0,-21.213 14.649,-38.409 32.72,-38.409c18.07,0 32.718,17.196 32.718,38.409" fill="#42210b" stroke="none" stroke-width="1" stroke-linecap="butt" stroke-linejoin="miter"/><path d="M259.255,164.065c-1.83,3.457 -1.946,9.645 0.938,11.555c2.885,1.91 7.678,-1.18 9.507,-4.638c1.83,-3.457 0.975,-7.808 -1.91,-9.718c-2.884,-1.91 -6.706,-0.656 -8.535,2.801M221.663,164.065c1.83,3.457 1.946,9.645 -0.939,11.555c-2.885,1.91 -7.678,-1.18 -9.507,-4.638c-1.83,-3.457 -0.974,-7.808 1.91,-9.718c2.885,-1.91 6.706,-0.656 8.536,2.801" data-paper-data="{&quot;origPos&quot;:null}" fill="#775b4e" stroke="none" stroke-width="1" stroke-linecap="butt" stroke-linejoin="miter"/><path d="M215.645,190.775c-0.152,-0.661 -3.658,-16.342 0.422,-29.681l5.565,1.702c-3.63,11.87 -0.348,26.534 -0.314,26.68zM265.03,190.775l-5.672,-1.298c0.033,-0.146 3.304,-14.85 -0.314,-26.681l5.564,-1.702c4.08,13.339 0.574,29.02 0.423,29.68M253.772,180.567c-0.46731,0.69868 -0.81695,1.46922 -1.035,2.281c-0.23922,0.89033 -0.32711,1.81453 -0.26,2.734c0.07276,1.00977 0.32468,1.99853 0.744,2.92c0.46583,1.02553 1.13462,1.94605 1.966,2.706l0.167,0.153c0.47442,0.43315 0.66529,1.09609 0.49383,1.7152c-0.17146,0.61911 -0.67617,1.08941 -1.30583,1.2168c-1.495,0.302 -3.132,0.315 -4.78,0.037c-1.648,-0.276 -3.307,-0.838 -4.893,-1.654c-3.177,-1.63 -6.049,-4.289 -8.18,-7.66l-2.987,-4.724c-3.535,-5.592 -1.868,-12.99 3.724,-16.525c5.592,-3.536 12.99,-1.868 16.525,3.723c2.613,4.133 2.375,9.26 -0.18,13.077" fill="#42210b" stroke="none" stroke-width="1" stroke-linecap="butt" stroke-linejoin="miter"/><path d="M243.727,185.017c-2.131,3.37 -5.004,6.03 -8.18,7.659c-1.586,0.816 -3.245,1.378 -4.894,1.654c-1.647,0.278 -3.284,0.265 -4.779,-0.037c-0.62983,-0.12709 -1.13482,-0.59728 -1.3065,-1.21644c-0.17168,-0.61916 0.01907,-1.28227 0.4935,-1.71556l0.168,-0.153c0.83109,-0.76037 1.49953,-1.68122 1.965,-2.707c0.41981,-0.92094 0.67176,-1.90947 0.744,-2.919c0.06751,-0.91941 -0.02004,-1.84362 -0.259,-2.734c-0.21821,-0.81141 -0.56784,-1.5816 -1.035,-2.28c-3.687,-5.493 -2.224,-12.935 3.269,-16.622c5.493,-3.687 12.934,-2.223 16.621,3.269c2.725,4.06 2.637,9.183 0.188,13.07z" fill="#42210b" stroke="none" stroke-width="1" stroke-linecap="butt" stroke-linejoin="miter"/><path d="M272.681,214.859c0,26.673 3.836,23.763 -32.623,23.763c-36.46,0 -32.624,3.298 -32.624,-23.763c0,-13.124 14.606,-21.436 32.624,-21.436c18.017,0 32.623,8.312 32.623,21.436" fill="#e6e6e6" stroke="none" stroke-width="1" stroke-linecap="butt" stroke-linejoin="miter"/><path d="M224.05,207.539l-9.748,-9.417c5.624,-8.673 15.233,-4.424 26.144,-4.424v0.768c10.589,-0.188 19.878,-4.034 25.368,4.432l-9.749,9.417l3.843,4.783l-13.79,26.223c-1.87,-0.453 -3.885,-0.699 -6.06,-0.699c-1.80948,-0.00346 -3.61467,0.17612 -5.388,0.536l-14.464,-26.837z" fill="#b3b3b3" stroke="none" stroke-width="1" stroke-linecap="butt" stroke-linejoin="miter"/><path d="M226.531,195.281c4.164,-0.962 8.733,-1.47 13.527,-1.47c4.913,0 9.59,0.534 13.837,1.543l-10.957,43.273c-1.80232,-0.00762 -3.60467,-0.00762 -5.407,0l-11.001,-43.346" fill="#ffffff" stroke="none" stroke-width="1" stroke-linecap="butt" stroke-linejoin="miter"/><path d="M247.108,188.917c-0.11,0.818 0.198,4.929 0,6.402c-0.5128,3.81077 -4.01773,6.4843 -7.8285,5.9715c-3.81077,-0.5128 -6.4843,-4.01774 -5.9715,-7.8285c0.11,-0.817 -0.199,-4.928 0,-6.401c0.51252,-3.81077 4.01723,-6.48452 7.828,-5.972c3.81077,0.51252 6.48452,4.01723 5.972,7.828" data-paper-data="{&quot;origPos&quot;:null}" fill="#644d42" stroke="none" stroke-width="1" stroke-linecap="butt" stroke-linejoin="miter"/><path d="M216.8,166.881c-4.512,-21.959 6.19,-37.8 23.408,-37.8c17.216,0 27.92,15.841 23.408,37.8c-0.029,0.14 -0.705,1.872 -1.03,3.468c-0.283,1.393 -0.932,6.06 -0.956,6.166c-1.344,5.941 -5.458,9.425 -9.654,11.523c-2.672,1.337 -7.505,2.951 -10.06,3.323c-1.13316,0.16449 -2.28423,0.16314 -3.417,-0.004c-2.557,-0.377 -7.395,-2.002 -10.068,-3.345c-4.208,-2.114 -8.335,-5.62 -9.668,-11.597c-0.02,-0.088 -0.66,-4.711 -0.934,-6.066c-0.324,-1.594 -1.005,-3.347 -1.03,-3.468" data-paper-data="{&quot;origPos&quot;:null}" fill="#775b4e" stroke="none" stroke-width="1" stroke-linecap="butt" stroke-linejoin="miter"/><path d="M245.255,177.195c-1.488,0.904 -3.21,2.208 -5.048,2.208c-1.837,0 -3.559,-1.304 -5.047,-2.208" fill="none" stroke="#c1272d" stroke-width="1.358" stroke-linecap="round" stroke-linejoin="round"/><path d="M225.005,164.132c0,-3.214 1.78,-4.656 3.976,-4.656c2.197,0 3.977,1.442 3.977,4.656c0,3.214 -1.78,5.431 -3.977,5.431c-2.196,0 -3.976,-2.217 -3.976,-5.431M247.845,164.132c0,-3.214 1.78,-4.656 3.977,-4.656c2.196,0 3.976,1.442 3.976,4.656c0,3.214 -1.78,5.431 -3.976,5.431c-2.197,0 -3.977,-2.217 -3.977,-5.431" fill="#ffffff" stroke="none" stroke-width="1" stroke-linecap="butt" stroke-linejoin="miter"/><path d="M225.684,164.158c0,-2.991 1.657,-4.332 3.701,-4.332c2.044,0 3.701,1.342 3.701,4.332c0,2.992 -1.657,5.056 -3.702,5.056c-2.043,0 -3.7,-2.064 -3.7,-5.056" fill="#42210b" stroke="none" stroke-width="1" stroke-linecap="butt" stroke-linejoin="miter"/><path d="M228.515,162.444c0.01475,0.59863 -0.29619,1.15821 -0.8123,1.46187c-0.51612,0.30365 -1.15627,0.30365 -1.67239,0c-0.51612,-0.30365 -0.82705,-0.86324 -0.81231,-1.46187c0.02203,-0.89463 0.7536,-1.6084 1.6485,-1.6084c0.8949,0 1.62646,0.71376 1.6485,1.6084" fill="#ffffff" stroke="none" stroke-width="1" stroke-linecap="butt" stroke-linejoin="miter"/><path d="M247.717,164.158c0,-2.991 1.657,-4.332 3.702,-4.332c2.043,0 3.7,1.342 3.7,4.332c0,2.992 -1.657,5.056 -3.701,5.056c-2.044,0 -3.701,-2.064 -3.701,-5.056" fill="#42210b" stroke="none" stroke-width="1" stroke-linecap="butt" stroke-linejoin="miter"/><path d="M221.722,155.864c0.87,-0.92 1.938,-1.646 3.092,-2.165c1.155,-0.52 2.395,-0.827 3.647,-0.972c1.2583,-0.14131 2.52981,-0.11442 3.781,0.08c0.63,0.102 1.255,0.25 1.868,0.45c0.61715,0.20364 1.21541,0.46061 1.788,0.768c0.25549,0.13962 0.41569,0.40633 0.41892,0.69747c0.00323,0.29114 -0.151,0.56134 -0.40333,0.7066c-0.25233,0.14526 -0.56345,0.14294 -0.81359,-0.00607l-0.005,-0.003c-0.47523,-0.28808 -0.97441,-0.53466 -1.492,-0.737c-0.52687,-0.20187 -1.06847,-0.36301 -1.62,-0.482c-1.12275,-0.23542 -2.27182,-0.3205 -3.417,-0.253c-1.145,0.072 -2.285,0.29 -3.353,0.705c-1.07242,0.40759 -2.05508,1.02035 -2.893,1.804l-0.002,0.002c-0.16431,0.16458 -0.43092,0.16481 -0.5955,0.0005c-0.16458,-0.16431 -0.16481,-0.43092 -0.0005,-0.5955" fill="#754c24" stroke="none" stroke-width="1" stroke-linecap="butt" stroke-linejoin="miter"/><path d="M251.018,162.444c0,0.91072 -0.73828,1.649 -1.649,1.649c-0.91072,0 -1.649,-0.73828 -1.649,-1.649c0,-0.91072 0.73828,-1.649 1.649,-1.649c0.91072,0 1.649,0.73828 1.649,1.649" fill="#ffffff" stroke="none" stroke-width="1" stroke-linecap="butt" stroke-linejoin="miter"/><path d="M245.065,153.868c1.13476,-0.55886 2.35251,-0.93033 3.606,-1.1c1.2282,-0.16813 2.47314,-0.17451 3.703,-0.019c0.613,0.074 1.22,0.193 1.817,0.359c0.596,0.164 1.18,0.371 1.744,0.628c1.13123,0.51451 2.15412,1.23977 3.014,2.137c0.14977,0.16098 0.14548,0.41156 -0.00973,0.56731c-0.15521,0.15574 -0.40578,0.16091 -0.56727,0.0117l-0.004,-0.003c-0.82231,-0.76717 -1.78305,-1.3709 -2.831,-1.779c-0.52413,-0.20239 -1.06349,-0.3629 -1.613,-0.48c-0.54961,-0.11994 -1.10756,-0.19783 -1.669,-0.233c-1.12112,-0.07853 -2.24769,-0.00995 -3.351,0.204c-1.08089,0.2065 -2.12109,0.58713 -3.08,1.127c-0.39157,0.21069 -0.87981,0.06407 -1.0905,-0.3275c-0.21069,-0.39157 -0.06407,-0.87981 0.3275,-1.0905z" fill="#754c24" stroke="none" stroke-width="1" stroke-linecap="butt" stroke-linejoin="miter"/><path d="M247.192,159.737c0.81092,-0.34486 1.66926,-0.56535 2.546,-0.654c0.859,-0.089 1.707,-0.07 2.547,0.041c0.84454,0.10811 1.66984,0.33363 2.452,0.67c0.78,0.343 1.514,0.816 2.12,1.426c0.18207,0.18626 0.18784,0.48203 0.01315,0.67524c-0.17469,0.19321 -0.46954,0.2172 -0.67315,0.05476l-0.007,-0.005c-0.56256,-0.45065 -1.20418,-0.79248 -1.892,-1.008c-0.69339,-0.21726 -1.41362,-0.33708 -2.14,-0.356c-0.72539,-0.02399 -1.45109,0.03778 -2.162,0.184c-0.68325,0.13878 -1.34166,0.37983 -1.953,0.715c-0.31346,0.18131 -0.70172,0.17334 -1.00747,-0.02068c-0.30575,-0.19402 -0.4783,-0.54192 -0.44773,-0.90275c0.03056,-0.36083 0.25917,-0.67475 0.59321,-0.81457zM232.76,161.48c-0.61166,-0.33525 -1.27041,-0.5763 -1.954,-0.715c-0.71057,-0.14626 -1.43594,-0.20803 -2.161,-0.184c-0.72639,0.01886 -1.44663,0.13868 -2.14,0.356c-0.68782,0.21552 -1.32944,0.55735 -1.892,1.008l-0.005,0.004c-0.20158,0.18308 -0.51342,0.16808 -0.6965,-0.0335c-0.18308,-0.20158 -0.16808,-0.51342 0.0335,-0.6965c0.61186,-0.60275 1.33084,-1.08602 2.12,-1.425c0.78261,-0.33608 1.6082,-0.56158 2.453,-0.67c0.84411,-0.11378 1.69873,-0.1272 2.546,-0.04c0.87668,0.08838 1.73501,0.30853 2.546,0.653l0.01,0.004c0.32294,0.14647 0.54036,0.45733 0.56715,0.81092c0.02679,0.35359 -0.14129,0.69367 -0.43847,0.88713c-0.29718,0.19347 -0.67619,0.20954 -0.98868,0.04195M241.148,129.155c-0.91204,-0.20841 -1.85593,-0.23729 -2.779,-0.085c-0.97239,0.1642 -1.90302,0.5179 -2.739,1.041c-0.89801,0.5645 -1.68529,1.2884 -2.323,2.136c-0.6842,0.90954 -1.21706,1.92359 -1.578,3.003c-0.38351,1.1435 -0.605,2.33507 -0.658,3.54c-0.057,1.22 0.054,2.461 0.346,3.673c0.299,1.207 0.773,2.39 1.445,3.465c0.67327,1.09468 1.54565,2.05355 2.572,2.827l0.011,0.007c0.28087,0.21008 0.35513,0.5997 0.17126,0.89837c-0.18388,0.29868 -0.5652,0.40781 -0.87926,0.25163c-0.66613,-0.33067 -1.2996,-0.72341 -1.892,-1.173c-0.59589,-0.4563 -1.15037,-0.96427 -1.657,-1.518c-1.02328,-1.1255 -1.86228,-2.40562 -2.486,-3.793c-0.63121,-1.40844 -1.05947,-2.89928 -1.272,-4.428c-0.10874,-0.77197 -0.16521,-1.55042 -0.169,-2.33c-0.006,-0.783 0.043,-1.575 0.149,-2.369c0.215,-1.585 0.67,-3.182 1.406,-4.692c0.75153,-1.5505 1.77584,-2.95317 3.024,-4.141c1.30491,-1.23811 2.83661,-2.21261 4.511,-2.87c1.72342,-0.67224 3.56025,-1.00599 5.41,-0.983l0.264,0.002c1.45773,0.01736 2.77812,0.86397 3.40225,2.18145c0.62413,1.31748 0.44287,2.87546 -0.46705,4.01446c-0.90992,1.139 -2.38941,1.65986 -3.8122,1.34209" fill="#42210b" stroke="none" stroke-width="1" stroke-linecap="butt" stroke-linejoin="miter"/><path d="M240.103,123.395c7.946,0 31.926,28.604 26.286,28.496c-4.957,-0.095 -15.044,-1.733 -20.062,-1.824c-5.627,-0.102 -12.017,-4.272 -14.827,-10.448c-3.609,-7.93 -0.27,-16.224 8.603,-16.224" fill="#42210b" stroke="none" stroke-width="1" stroke-linecap="butt" stroke-linejoin="miter"/><path d="M209.454,145.522c3.537,-10.994 11.245,-19.584 20.86,-23.105c1.262,1.468 2.102,3.24 2.35,5.21c0.379,2.994 -3.823,12.985 -10.21,19.584c-5.155,5.328 -5.762,23.336 -6.107,20.606c-0.393,-3.113 -5.123,-13.588 -6.893,-22.295M270.567,145.522c-3.536,-10.994 -11.244,-19.584 -20.86,-23.105c-1.261,1.468 -2.102,3.24 -2.35,5.21c-0.379,2.994 3.824,12.985 10.21,19.584c5.156,5.328 5.762,23.336 6.107,20.606c0.393,-3.113 5.123,-13.588 6.893,-22.295" fill="#42210b" stroke="none" stroke-width="1" stroke-linecap="butt" stroke-linejoin="miter"/><path d="M249.707,122.416c9.616,3.522 17.324,12.112 20.86,23.106c-1.77,8.707 -6.5,19.182 -6.893,22.295c-0.112,0.893 -0.253,-0.431 -0.572,-2.804c-1.128,-8.403 -8.198,-14.758 -16.675,-14.944l-0.1,-0.002c-5.627,-0.102 -12.017,-4.272 -14.827,-10.448c-3.609,-7.93 -0.27,-16.224 8.603,-16.224c1.798,0 4.419,1.468 7.331,3.734c0.319,-1.771 1.119,-3.369 2.274,-4.713" fill="#42210b" stroke="none" stroke-width="1" stroke-linecap="butt" stroke-linejoin="miter"/><path d="M239.092,170.912c-0.78225,-0.78206 -1.22173,-1.84287 -1.22173,-2.949c0,-1.10613 0.43948,-2.16694 1.22173,-2.949" fill="none" stroke="#f15a24" stroke-width="1.164" stroke-linecap="round" stroke-linejoin="round"/><path d="M229.829,201.226c0,-5.397 4.647,-3.944 10.378,-3.944c5.733,0 10.38,-1.246 10.38,3.944c0,5.19 -4.647,3.944 -10.379,3.944c-5.732,0 -10.379,1.453 -10.379,-3.944" fill="#ffffff" stroke="none" stroke-width="1" stroke-linecap="butt" stroke-linejoin="miter"/><path d="M251.406,195.373l-8.737,7.721l-2.696,-5.518l8.736,-7.722z" fill="#f2f2f2" stroke="none" stroke-width="1" stroke-linecap="butt" stroke-linejoin="miter"/><path d="M231.707,189.854l8.736,7.722l-2.697,5.518l-8.736,-7.721z" fill="#f2f2f2" stroke="none" stroke-width="1" stroke-linecap="butt" stroke-linejoin="miter"/><path d="M251.07,171.794c0.0108,0.31876 -0.1531,0.61803 -0.4275,0.78061c-0.27439,0.16258 -0.61561,0.16258 -0.89,0c-0.27439,-0.16258 -0.4383,-0.46185 -0.4275,-0.78061c0,-0.48215 0.39086,-0.873 0.873,-0.873c0.48215,0 0.873,0.39086 0.873,0.873M253.399,173.734c0,0.48215 -0.39085,0.873 -0.873,0.873c-0.48215,0 -0.873,-0.39085 -0.873,-0.873c0,-0.48215 0.39086,-0.873 0.873,-0.873c0.48215,0 0.873,0.39086 0.873,0.873M255.144,171.794c0.0108,0.31876 -0.15311,0.61803 -0.4275,0.78061c-0.27439,0.16258 -0.6156,0.16258 -0.89,0c-0.27439,-0.16258 -0.4383,-0.46185 -0.4275,-0.78061c0.01593,-0.47037 0.40186,-0.84346 0.8725,-0.84346c0.47064,0 0.85657,0.37309 0.8725,0.84346M227.017,171.794c0,0.48215 -0.39085,0.873 -0.873,0.873c-0.48215,0 -0.873,-0.39085 -0.873,-0.873c0,-0.48215 0.39086,-0.873 0.873,-0.873c0.48215,0 0.873,0.39086 0.873,0.873M229.344,173.734c0.0108,0.31876 -0.1531,0.61803 -0.4275,0.78061c-0.27439,0.16258 -0.61561,0.16258 -0.89,0c-0.27439,-0.16258 -0.4383,-0.46185 -0.4275,-0.78061c0.01593,-0.47037 0.40186,-0.84346 0.8725,-0.84346c0.47064,0 0.85657,0.37309 0.8725,0.84346M231.478,171.794c0,0.48215 -0.39086,0.873 -0.873,0.873c-0.48215,0 -0.873,-0.39085 -0.873,-0.873c0,-0.48215 0.39085,-0.873 0.873,-0.873c0.48215,0 0.873,0.39086 0.873,0.873" fill="#c69c6d" stroke="none" stroke-width="1" stroke-linecap="butt" stroke-linejoin="miter"/><path d="M240.07,120c4.524,0 8.91,1.04 13.04,3.09c3.977,1.975 7.55,4.801 10.613,8.398c6.285,7.378 9.746,17.18 9.746,27.6c0,3.581 -0.575,6.968 -1.71,10.066c-1.03942,2.84038 -2.56705,5.47735 -4.514,7.792c-0.128,7.669 -1.493,13.723 -1.553,13.98c-0.03985,0.1755 -0.14776,0.32801 -0.3,0.424c-0.15283,0.09555 -0.33722,0.12683 -0.513,0.087l-5.673,-1.299c-0.36431,-0.0839 -0.59256,-0.44616 -0.511,-0.811c0.007,-0.027 0.539,-2.403 0.94,-6.028c-0.321,0.188 -0.644,0.371 -0.967,0.546c-1.334,1.532 -3.005,2.887 -4.973,4.035c0.42692,1.07788 1.0938,2.04433 1.95,2.826l0.167,0.154c0.55212,0.50072 0.83691,1.23174 0.769,1.974c4.462,0.378 7.508,2.157 9.802,5.694c0.17644,0.2727 0.13539,0.63211 -0.098,0.858l-0.726,0.702c5.107,3.919 7.801,9.01 7.801,14.77c0.0039,2.30014 0.02624,4.60021 0.067,6.9c0.124,8.011 0.193,12.423 -2.244,14.898c-2.307,2.343 -6.54,2.739 -15.16,2.739c-1.871,0 -3.901,-0.019 -6.251,-0.04c-0.927,-0.008 -1.891,-0.017 -2.893,-0.024l-0.161,0.306c-0.14549,0.2743 -0.45789,0.41571 -0.76,0.344c-1.93283,-0.45936 -3.91335,-0.68762 -5.9,-0.68c-1.76374,-0.00248 -3.52325,0.1724 -5.252,0.522c-0.29342,0.05916 -0.591,-0.0805 -0.733,-0.344l-0.082,-0.15c-1.605,0.014 -3.098,0.03 -4.545,0.047c-2.459,0.027 -4.584,0.051 -6.512,0.051c-7.74,0 -11.813,-0.395 -14.024,-2.64c-2.413,-2.45 -2.345,-6.884 -2.222,-14.934c0.031,-2.059 0.067,-4.393 0.067,-6.995c0,-5.94 2.849,-11.15 8.253,-15.11l-1.178,-1.138c-0.23408,-0.22545 -0.27559,-0.58517 -0.099,-0.858c2.355,-3.63 5.508,-5.41 10.17,-5.722c0.11398,-0.45049 0.35814,-0.85743 0.702,-1.17l0.168,-0.153c0.8613,-0.78661 1.53079,-1.76022 1.957,-2.846c-1.79,-1.046 -3.336,-2.264 -4.603,-3.626c-0.35,-0.179 -0.7,-0.366 -1.046,-0.56c0.396,3.417 0.895,5.626 0.9,5.65c0.08345,0.3653 -0.1448,0.72915 -0.51,0.813l-5.673,1.298c-0.3652,0.08286 -0.72866,-0.14514 -0.813,-0.51c-0.056,-0.242 -1.345,-5.951 -1.538,-13.293c-2.10899,-2.35289 -3.77119,-5.07069 -4.905,-8.02c-1.239,-3.222 -1.867,-6.763 -1.867,-10.525c0,-4.737 0.718,-9.371 2.135,-13.774l0.002,-0.007c0.111,-0.345 0.227,-0.692 0.343,-1.022l0.004,-0.012c0.593,-1.6947 1.29376,-3.34974 2.098,-4.955l0.014,-0.028c0.156,-0.31 0.316,-0.619 0.476,-0.917l0.01,-0.02c0.65806,-1.22928 1.38005,-2.42324 2.163,-3.577l0.015,-0.022l0.011,-0.016c0.177,-0.259 0.361,-0.523 0.548,-0.783l0.062,-0.086c0.18098,-0.25023 0.365,-0.49824 0.552,-0.744l0.02,-0.027l0.03,-0.041c0.61464,-0.806 1.26184,-1.58665 1.94,-2.34l0.02,-0.021c0.2,-0.223 0.414,-0.453 0.635,-0.685l0.07,-0.073l0.041,-0.043c0.187,-0.195 0.378,-0.39 0.567,-0.578l0.138,-0.137c0.187,-0.185 0.383,-0.373 0.58,-0.559l0.047,-0.044l0.073,-0.07c0.73415,-0.68542 1.49823,-1.33805 2.29,-1.956l0.056,-0.043c0.207,-0.161 0.411,-0.316 0.605,-0.46l0.155,-0.114l0.048,-0.035c0.45031,-0.32892 0.90913,-0.64603 1.376,-0.951l0.07,-0.046l0.122,-0.08c0.248,-0.16 0.496,-0.315 0.736,-0.46l0.016,-0.01l0.036,-0.023c0.272,-0.164 0.551,-0.327 0.83,-0.484l0.063,-0.034l0.033,-0.019c0.239,-0.133 0.48,-0.264 0.715,-0.387l0.158,-0.081l0.075,-0.038c0.47609,-0.24439 0.95825,-0.47679 1.446,-0.697l0.048,-0.021l0.224,-0.1c0.191,-0.084 0.395,-0.17 0.623,-0.264l0.08,-0.033l0.15,-0.062c0.303,-0.122 0.582,-0.229 0.846,-0.326c0.003,-0.001 0.009,-0.004 0.013,-0.004c3.222,-1.181 6.583,-1.779 9.99,-1.779M240.07,120.68c-3.32917,-0.00021 -6.63222,0.58748 -9.757,1.736l-0.006,0.003c-0.28,0.102 -0.557,0.21 -0.833,0.32c-0.075,0.03 -0.15,0.063 -0.224,0.093c-0.205,0.084 -0.408,0.17 -0.61,0.257l-0.266,0.12c-0.4774,0.21418 -0.9489,0.44127 -1.414,0.681c-0.076,0.038 -0.152,0.076 -0.227,0.116c-0.235,0.123 -0.468,0.249 -0.699,0.379c-0.032,0.018 -0.064,0.034 -0.094,0.052c-0.273,0.154 -0.544,0.311 -0.812,0.474l-0.05,0.03c-0.243,0.147 -0.483,0.298 -0.723,0.452c-0.063,0.04 -0.125,0.082 -0.187,0.123c-0.4573,0.29863 -0.90679,0.60907 -1.348,0.931l-0.198,0.147c-0.2,0.147 -0.397,0.297 -0.593,0.45l-0.139,0.107c-0.499,0.393 -0.988,0.8 -1.468,1.223l-0.013,0.012c-0.229,0.202 -0.455,0.408 -0.679,0.618l-0.118,0.111c-0.192,0.181 -0.382,0.363 -0.57,0.548l-0.134,0.134c-0.187,0.188 -0.373,0.376 -0.557,0.568l-0.11,0.114c-0.21,0.221 -0.417,0.445 -0.622,0.672l-0.02,0.021c-0.66562,0.73914 -1.30081,1.5051 -1.904,2.296l-0.05,0.067c-0.3938,0.51884 -0.77426,1.04769 -1.141,1.586l-0.026,0.037c-0.76948,1.13394 -1.47879,2.30756 -2.125,3.516l-0.009,0.016c-0.159,0.299 -0.316,0.601 -0.469,0.905l-0.014,0.026c-0.79157,1.57952 -1.48099,3.2082 -2.064,4.876l-0.001,0.003c-0.118,0.338 -0.232,0.677 -0.343,1.019v0.003c-1.357,4.219 -2.102,8.79 -2.102,13.566c0,7.617 2.602,13.707 6.766,18.277c0.167,7.34 1.437,13.018 1.527,13.41l5.673,-1.298c-0.015,-0.065 -0.65,-2.903 -1.057,-7.068c0.74222,0.45636 1.50286,0.88205 2.28,1.276c1.48,1.615 3.224,2.876 5.017,3.866c-0.44023,1.40306 -1.24373,2.66473 -2.329,3.657l-0.168,0.153c-0.36877,0.3365 -0.57099,0.8181 -0.553,1.317c-4.088,0.164 -7.582,1.396 -10.207,5.444l1.767,1.706c-5.359,3.684 -8.633,8.818 -8.633,15.031c0,21.758 -2.48,23.89 15.5,23.89c3.15,0 6.929,-0.066 11.46,-0.103l0.275,0.512c1.703,-0.348 3.496,-0.536 5.387,-0.536c2.04062,-0.00898 4.07502,0.22568 6.06,0.699l0.354,-0.673c3.667,0.028 6.829,0.067 9.552,0.067c19.245,0 16.658,-1.96 16.658,-23.856c0,-6.032 -3.086,-11.045 -8.169,-14.704l1.302,-1.258c-2.608,-4.02 -6.072,-5.263 -10.125,-5.44c0.382,-0.676 0.263,-1.55 -0.335,-2.096l-0.168,-0.153c-1.07984,-0.98749 -1.88067,-2.24186 -2.322,-3.637c1.94,-1.07 3.82,-2.455 5.372,-4.265c0.758,-0.406 1.496,-0.843 2.212,-1.306c-0.403,4.387 -1.075,7.411 -1.09,7.477l5.672,1.298c0.093,-0.404 1.439,-6.421 1.54,-14.083c3.844,-4.494 6.22,-10.362 6.22,-17.604c0,-21.213 -14.649,-38.409 -32.719,-38.409" fill="#1a1a1a" stroke="none" stroke-width="1" stroke-linecap="butt" stroke-linejoin="miter"/></g></g></svg>