<svg xmlns="http://www.w3.org/2000/svg" width="66.835" height="119.999"><g fill-rule="evenodd" stroke-miterlimit="10" data-paper-data="{&quot;isPaintingLayer&quot;:true}" style="mix-blend-mode:normal"><path fill="#42210b" d="M66.15 39.088c0 38.021-65.438 38.215-65.438 0C.712 17.875 15.36.679 33.432.679c18.07 0 32.718 17.196 32.718 38.409"/><path fill="#775b4e" d="M52.615 44.065c-1.83 3.457-1.946 9.645.938 11.555 2.885 1.91 7.678-1.18 9.507-4.638 1.83-3.457.975-7.808-1.91-9.718-2.884-1.91-6.706-.656-8.535 2.801m-37.592 0c1.83 3.457 1.946 9.645-.94 11.555-2.884 1.91-7.677-1.18-9.506-4.638-1.83-3.457-.974-7.808 1.91-9.718 2.885-1.91 6.706-.656 8.536 2.801" data-paper-data="{&quot;origPos&quot;:null}"/><path fill="#42210b" d="M9.005 70.775c-.152-.661-3.658-16.342.422-29.681l5.565 1.702c-3.63 11.87-.348 26.534-.314 26.68zm49.385 0-5.672-1.298c.033-.146 3.304-14.85-.314-26.681l5.564-1.702c4.08 13.339.574 29.02.423 29.68M47.13 60.567a7.692 7.692 0 0 0-1.034 2.281 8.228 8.228 0 0 0-.26 2.734 8.53 8.53 0 0 0 .744 2.92 8.338 8.338 0 0 0 1.966 2.706l.167.153a1.706 1.706 0 0 1-.812 2.932c-1.495.302-3.132.315-4.78.037-1.648-.276-3.307-.838-4.893-1.654-3.177-1.63-6.05-4.289-8.18-7.66l-2.987-4.724c-3.535-5.592-1.868-12.99 3.724-16.525 5.592-3.536 12.99-1.868 16.525 3.723 2.613 4.133 2.375 9.26-.18 13.077"/><path fill="#42210b" d="M37.087 65.017c-2.131 3.37-5.004 6.03-8.18 7.659-1.586.816-3.245 1.378-4.894 1.654-1.647.278-3.284.265-4.78-.037a1.706 1.706 0 0 1-.812-2.932l.168-.153a8.34 8.34 0 0 0 1.965-2.707 8.5 8.5 0 0 0 .744-2.919 8.224 8.224 0 0 0-.26-2.734 7.695 7.695 0 0 0-1.034-2.28c-3.687-5.493-2.224-12.935 3.269-16.622 5.493-3.687 12.934-2.223 16.62 3.269 2.726 4.06 2.638 9.183.189 13.07z"/><path fill="#e6e6e6" d="M66.04 94.859c0 26.673 3.837 23.763-32.622 23.763-36.46 0-32.624 3.298-32.624-23.763 0-13.124 14.606-21.436 32.624-21.436 18.017 0 32.623 8.312 32.623 21.436"/><path fill="#b3b3b3" d="m17.41 87.539-9.748-9.417c5.624-8.673 15.233-4.424 26.144-4.424v.768c10.589-.188 19.878-4.034 25.368 4.432l-9.75 9.417 3.844 4.783-13.79 26.223a25.644 25.644 0 0 0-6.06-.699 26.833 26.833 0 0 0-5.388.536L13.566 92.321z"/><path fill="#fff" d="M19.89 75.281c4.165-.962 8.734-1.47 13.528-1.47 4.913 0 9.59.534 13.837 1.543l-10.957 43.273a639.453 639.453 0 0 0-5.407 0L19.89 75.281"/><path fill="#644d42" d="M40.468 68.917c-.11.818.198 4.929 0 6.402a6.962 6.962 0 1 1-13.8-1.857c.11-.817-.2-4.928 0-6.401a6.962 6.962 0 1 1 13.8 1.856" data-paper-data="{&quot;origPos&quot;:null}"/><path fill="#775b4e" d="M10.16 46.881c-4.512-21.959 6.19-37.8 23.408-37.8 17.216 0 27.92 15.841 23.408 37.8-.03.14-.705 1.872-1.03 3.468-.283 1.393-.932 6.06-.956 6.166-1.344 5.941-5.458 9.425-9.654 11.523-2.672 1.337-7.505 2.951-10.06 3.323a11.798 11.798 0 0 1-3.417-.004c-2.557-.377-7.395-2.002-10.068-3.345-4.208-2.114-8.335-5.62-9.668-11.597-.02-.088-.66-4.711-.934-6.066-.324-1.594-1.005-3.347-1.03-3.468" data-paper-data="{&quot;origPos&quot;:null}"/><path fill="none" stroke="#c1272d" stroke-linecap="round" stroke-linejoin="round" stroke-width="1.358" d="M38.615 57.195c-1.488.904-3.21 2.208-5.048 2.208-1.837 0-3.56-1.304-5.047-2.208"/><path fill="#fff" d="M18.365 44.132c0-3.214 1.78-4.656 3.976-4.656 2.197 0 3.977 1.442 3.977 4.656 0 3.214-1.78 5.431-3.977 5.431-2.196 0-3.976-2.217-3.976-5.431m22.84 0c0-3.214 1.78-4.656 3.977-4.656 2.196 0 3.976 1.442 3.976 4.656 0 3.214-1.78 5.431-3.976 5.431-2.197 0-3.977-2.217-3.977-5.431"/><path fill="#42210b" d="M19.044 44.158c0-2.991 1.657-4.332 3.7-4.332 2.045 0 3.702 1.342 3.702 4.332 0 2.992-1.657 5.056-3.702 5.056-2.043 0-3.7-2.064-3.7-5.056"/><path fill="#fff" d="M21.875 42.444a1.649 1.649 0 1 1-3.297.081 1.649 1.649 0 0 1 3.297-.081"/><path fill="#42210b" d="M41.077 44.158c0-2.991 1.657-4.332 3.702-4.332 2.043 0 3.7 1.342 3.7 4.332 0 2.992-1.657 5.056-3.701 5.056s-3.701-2.064-3.701-5.056"/><path fill="#754c24" d="M15.082 35.864c.87-.92 1.938-1.646 3.092-2.165 1.155-.52 2.395-.827 3.647-.972a14.26 14.26 0 0 1 3.78.08c.63.102 1.256.25 1.869.45a11.2 11.2 0 0 1 1.788.768.805.805 0 1 1-.798 1.398l-.005-.003a9.67 9.67 0 0 0-1.492-.737 11.028 11.028 0 0 0-1.62-.482 12.94 12.94 0 0 0-3.417-.253c-1.145.072-2.285.29-3.353.705a8.826 8.826 0 0 0-2.893 1.804l-.002.002a.421.421 0 1 1-.596-.595"/><path fill="#fff" d="M44.378 42.444a1.649 1.649 0 1 1-3.298 0 1.649 1.649 0 0 1 3.298 0"/><path fill="#754c24" d="M38.425 33.868a11.72 11.72 0 0 1 3.606-1.1 14.184 14.184 0 0 1 3.703-.019c.613.074 1.22.193 1.817.359.596.164 1.18.371 1.744.628a9.787 9.787 0 0 1 3.014 2.137.409.409 0 0 1-.577.579l-.004-.003a8.867 8.867 0 0 0-2.831-1.779 10.626 10.626 0 0 0-1.613-.48c-.55-.12-1.108-.198-1.67-.233a12.876 12.876 0 0 0-3.35.204c-1.081.207-2.121.587-3.08 1.127a.805.805 0 0 1-.763-1.418z"/><path fill="#42210b" d="M40.552 39.737a8.757 8.757 0 0 1 2.546-.654c.859-.089 1.707-.07 2.547.041.844.108 1.67.334 2.452.67.78.343 1.514.816 2.12 1.426a.493.493 0 0 1-.66.73l-.007-.005a5.8 5.8 0 0 0-1.892-1.008 7.84 7.84 0 0 0-2.14-.356 9.219 9.219 0 0 0-2.162.184 6.933 6.933 0 0 0-1.953.715.972.972 0 1 1-.862-1.738zM26.12 41.48a6.934 6.934 0 0 0-1.954-.715 9.206 9.206 0 0 0-2.161-.184 7.835 7.835 0 0 0-2.14.356 5.8 5.8 0 0 0-1.892 1.008l-.005.004a.493.493 0 0 1-.663-.73 6.903 6.903 0 0 1 2.12-1.425 9.177 9.177 0 0 1 2.453-.67 10.79 10.79 0 0 1 2.546-.04 8.76 8.76 0 0 1 2.546.653l.01.004a.971.971 0 1 1-.86 1.74m8.388-32.326a7.208 7.208 0 0 0-2.78-.085 7.526 7.526 0 0 0-2.738 1.041 8.704 8.704 0 0 0-2.323 2.136 10.573 10.573 0 0 0-1.578 3.003 12.918 12.918 0 0 0-.658 3.54c-.057 1.22.054 2.461.346 3.673.299 1.207.773 2.39 1.445 3.465a10.29 10.29 0 0 0 2.572 2.827l.01.007a.678.678 0 0 1-.707 1.15c-.666-.33-1.3-.723-1.892-1.173a12.764 12.764 0 0 1-1.657-1.518 14.44 14.44 0 0 1-2.486-3.793A16.323 16.323 0 0 1 20.79 19a17.308 17.308 0 0 1-.02-4.699c.215-1.585.67-3.182 1.406-4.692A14.367 14.367 0 0 1 25.2 5.468a13.973 13.973 0 0 1 4.51-2.87 14.395 14.395 0 0 1 5.41-.983l.265.002a3.815 3.815 0 1 1-.877 7.538"/><path fill="#42210b" d="M33.463 3.395c7.946 0 31.926 28.604 26.286 28.496-4.957-.095-15.044-1.733-20.062-1.824-5.627-.102-12.017-4.272-14.827-10.448-3.61-7.93-.27-16.224 8.603-16.224"/><path fill="#42210b" d="M2.814 25.522C6.35 14.528 14.059 5.938 23.674 2.417c1.262 1.468 2.102 3.24 2.35 5.21.379 2.994-3.823 12.985-10.21 19.584-5.155 5.328-5.762 23.336-6.107 20.606-.393-3.113-5.123-13.588-6.893-22.295m61.113 0C60.39 14.528 52.683 5.938 43.067 2.417c-1.261 1.468-2.102 3.24-2.35 5.21-.38 2.994 3.824 12.985 10.21 19.584 5.156 5.328 5.762 23.336 6.107 20.606.393-3.113 5.123-13.588 6.893-22.295"/><path fill="#42210b" d="M43.067 2.416c9.616 3.522 17.324 12.112 20.86 23.106-1.77 8.707-6.5 19.182-6.893 22.295-.112.893-.253-.431-.572-2.804-1.128-8.403-8.198-14.758-16.675-14.944l-.1-.002c-5.627-.102-12.017-4.272-14.827-10.448-3.61-7.93-.27-16.224 8.603-16.224 1.798 0 4.419 1.468 7.33 3.734.32-1.771 1.12-3.369 2.275-4.713"/><path fill="none" stroke="#f15a24" stroke-linecap="round" stroke-linejoin="round" stroke-width="1.164" d="M32.452 50.912a4.17 4.17 0 0 1 0-5.898"/><path fill="#fff" d="M23.189 81.226c0-5.397 4.647-3.944 10.378-3.944 5.733 0 10.38-1.246 10.38 3.944 0 5.19-4.647 3.944-10.38 3.944-5.731 0-10.378 1.453-10.378-3.944"/><path fill="#f2f2f2" d="m44.766 75.373-8.737 7.721-2.696-5.518 8.736-7.722z"/><path fill="#f2f2f2" d="m25.067 69.854 8.736 7.722-2.697 5.518-8.736-7.721z"/><path fill="#c69c6d" d="M44.43 51.794a.873.873 0 1 1-1.745 0 .873.873 0 1 1 1.746 0m2.328 1.94a.873.873 0 1 1-1.746 0 .873.873 0 0 1 1.746 0m1.745-1.94a.873.873 0 1 1-1.745.06.873.873 0 0 1 1.745-.06m-28.127 0a.873.873 0 1 1-1.746 0 .873.873 0 0 1 1.746 0m2.327 1.94a.873.873 0 1 1-1.745.06.873.873 0 0 1 1.745-.06m2.134-1.94a.873.873 0 1 1-1.746 0 .873.873 0 0 1 1.746 0"/><path fill="#1a1a1a" d="M33.43 0c4.524 0 8.91 1.04 13.04 3.09 3.977 1.975 7.55 4.801 10.613 8.398 6.285 7.378 9.746 17.18 9.746 27.6 0 3.581-.575 6.968-1.71 10.066a25.97 25.97 0 0 1-4.514 7.792c-.128 7.669-1.493 13.723-1.553 13.98a.679.679 0 0 1-.813.511l-5.673-1.299a.68.68 0 0 1-.511-.811c.007-.027.539-2.403.94-6.028-.321.188-.644.371-.967.546-1.334 1.532-3.005 2.887-4.973 4.035a7.632 7.632 0 0 0 1.95 2.826l.167.154c.552.5.837 1.232.769 1.974 4.462.378 7.508 2.157 9.802 5.694a.68.68 0 0 1-.098.858l-.726.702c5.107 3.919 7.8 9.01 7.8 14.77.005 2.3.027 4.6.068 6.9.124 8.011.193 12.423-2.244 14.898-2.307 2.343-6.54 2.739-15.16 2.739-1.871 0-3.901-.019-6.251-.04-.927-.008-1.891-.017-2.893-.024l-.161.306a.682.682 0 0 1-.76.344 25.1 25.1 0 0 0-5.9-.68 26.31 26.31 0 0 0-5.252.522.68.68 0 0 1-.733-.344l-.082-.15c-1.605.014-3.098.03-4.545.047-2.46.027-4.584.051-6.512.051-7.74 0-11.813-.395-14.024-2.64-2.413-2.45-2.345-6.884-2.222-14.934.03-2.059.067-4.393.067-6.995 0-5.94 2.849-11.15 8.253-15.11L7.19 78.61a.679.679 0 0 1-.1-.858c2.356-3.63 5.509-5.41 10.17-5.722.115-.45.359-.857.703-1.17l.168-.153a7.63 7.63 0 0 0 1.957-2.846c-1.79-1.046-3.336-2.264-4.603-3.626-.35-.179-.7-.366-1.046-.56.396 3.417.895 5.626.9 5.65a.679.679 0 0 1-.51.813l-5.673 1.298a.68.68 0 0 1-.813-.51c-.056-.242-1.345-5.951-1.538-13.293a25.986 25.986 0 0 1-4.905-8.02C.66 46.391.033 42.85.033 39.088c0-4.737.718-9.371 2.135-13.774l.002-.007c.11-.345.227-.692.343-1.022l.004-.012a42.116 42.116 0 0 1 2.098-4.955l.014-.028c.156-.31.316-.619.476-.917l.01-.02a39.935 39.935 0 0 1 2.163-3.577l.015-.022.01-.016c.178-.259.362-.523.549-.783l.062-.086c.18-.25.365-.498.552-.744l.02-.027.03-.041a37.344 37.344 0 0 1 1.94-2.34l.02-.021c.2-.223.414-.453.635-.685l.07-.073.04-.043c.188-.195.379-.39.568-.578l.138-.137c.187-.185.383-.373.58-.559l.047-.044.073-.07a34.092 34.092 0 0 1 2.29-1.956l.056-.043c.207-.161.41-.316.605-.46l.155-.114.048-.035c.45-.329.909-.646 1.376-.951l.07-.046.122-.08c.248-.16.496-.315.736-.46l.016-.01.036-.023c.272-.164.55-.327.83-.484l.063-.034.033-.019c.239-.133.48-.264.715-.387l.158-.081.075-.038a32 32 0 0 1 1.446-.697l.048-.021.224-.1c.19-.084.395-.17.623-.264l.08-.033.15-.062c.303-.122.582-.229.846-.326.003-.001.009-.004.013-.004A28.942 28.942 0 0 1 33.43 0m-.001.68c-3.33 0-6.632.587-9.757 1.736l-.006.003c-.28.102-.557.21-.833.32-.075.03-.15.063-.224.093-.205.084-.408.17-.61.257l-.266.12a28.96 28.96 0 0 0-1.641.797c-.235.123-.468.249-.7.379-.031.018-.063.034-.093.052a28.63 28.63 0 0 0-.812.474l-.05.03c-.243.147-.483.298-.723.452-.063.04-.125.082-.187.123a31.6 31.6 0 0 0-1.348.931l-.198.147c-.2.147-.397.297-.593.45l-.14.107c-.498.393-.987.8-1.467 1.223l-.013.012c-.23.202-.455.408-.68.618l-.117.111c-.192.181-.382.363-.57.548l-.134.134c-.187.188-.373.376-.557.568l-.11.114c-.21.221-.417.445-.622.672l-.02.021c-.666.74-1.301 1.505-1.904 2.296l-.05.067a38.175 38.175 0 0 0-1.141 1.586l-.026.037a39.087 39.087 0 0 0-2.125 3.516l-.01.016c-.158.299-.315.601-.468.905l-.014.026a41.306 41.306 0 0 0-2.064 4.876l-.001.003c-.118.338-.232.677-.343 1.019v.003A44.295 44.295 0 0 0 .71 39.088c0 7.617 2.602 13.707 6.766 18.277.167 7.34 1.437 13.018 1.527 13.41l5.673-1.298c-.015-.065-.65-2.903-1.057-7.068.742.456 1.503.882 2.28 1.276 1.48 1.615 3.224 2.876 5.017 3.866a8.337 8.337 0 0 1-2.33 3.657l-.167.153a1.7 1.7 0 0 0-.553 1.317c-4.088.164-7.582 1.396-10.207 5.444l1.767 1.706C4.067 83.512.794 88.646.794 94.859c0 21.758-2.48 23.89 15.5 23.89 3.15 0 6.929-.066 11.46-.103l.275.512a26.828 26.828 0 0 1 5.387-.536 25.64 25.64 0 0 1 6.06.699l.354-.673c3.667.028 6.829.067 9.552.067 19.245 0 16.658-1.96 16.658-23.856 0-6.032-3.086-11.045-8.17-14.704l1.303-1.258c-2.608-4.02-6.072-5.263-10.125-5.44a1.705 1.705 0 0 0-.335-2.096l-.168-.153a8.335 8.335 0 0 1-2.322-3.637c1.94-1.07 3.82-2.455 5.372-4.265A31.24 31.24 0 0 0 53.807 62c-.403 4.387-1.075 7.411-1.09 7.477l5.672 1.298c.093-.404 1.439-6.421 1.54-14.083 3.844-4.494 6.22-10.362 6.22-17.604 0-21.213-14.65-38.409-32.72-38.409"/></g></svg>