<svg xmlns="http://www.w3.org/2000/svg" width="120" height="120"><g fill="none" transform="matrix(-1 0 0 1 120 33)"><path fill="#70CFFF" d="M48.348 10.861v24.996h67.175l3.802-3.784c.41-.41.593-.982.47-1.555l-2.943-14.584a1.615 1.615 0 0 0-.246-.614l-2.78-4.56a1.698 1.698 0 0 0-1.472-.82H53.213c-.593 0-1.063-.47-1.063-1.063V6.873c0-.941-.777-1.718-1.717-1.718H35.836a.711.711 0 0 0-.715.715v1.085c0 .347.245.654.593.715l11.734 2.087c.511.123.9.573.9 1.104z"/><path fill="#18B1FF" d="M41.826 11.884H33.71c-1.37 0-2.616.777-3.21 2.025l-3.536 7.302a2.482 2.482 0 0 1-1.86 1.37c-3.884.574-15.455 2.435-20.075 5.033-1.043.572-1.738 1.636-1.901 2.802L1.86 39.232v5.195h9.159l3.536-6.688a3.465 3.465 0 0 1 3.046-1.841l25.697-.082v-22.48a1.488 1.488 0 0 0-1.472-1.452z"/><path fill="#1598DB" d="m33.629 45.777-3.741-9.122c-2.433-5.175-6.031-5.237-6.031-5.237-12.49 2.312-12.716 3.477-13.288 4.275-.43.593-.736 2.414-.88 3.293h4.13c.287-.572.757-1.452 1.043-1.8.47-.572 1.267-1.002 1.267-1.002h8.627a2.852 2.852 0 0 1 3.087 1.78l3.332 7.568a1.925 1.925 0 0 0 1.82 1.166.66.66 0 0 0 .634-.92z"/><path fill="#34373E" d="M.164 39.866v3.682c0 .49.388.88.879.88h9.955l2.883-5.442H1.063c-.511.02-.9.41-.9.88z"/><path fill="#052738" d="m31.175 45.552-3.332-7.568a2.9 2.9 0 0 0-3.087-1.78H16.13s-.797.41-1.267 1.003c-.266.327-.736 1.207-1.043 1.8h.02l-2.882 5.44s15.149-1.942 20.71 1.8a2.498 2.498 0 0 1-.492-.695zm-1.696-9.695 4.17 10.002 10.692-4.643h71.182v-5.36z"/><path fill="#8D8A94" d="M45.486 13.664h-1.759V.982c0-.491.389-.88.88-.88.49 0 .879.389.879.88v12.682zm.47 2.659h2.392v19.534h-2.392z"/><path fill="#33BAFF" d="M32.995 15.116 29.58 22.93a1.177 1.177 0 0 0-.102.531v9.491c0 .47.388.86.858.86h11.469c.43 0 .777-.348.777-.778v-17.55a.96.96 0 0 0-.961-.961h-7.769a1.04 1.04 0 0 0-.858.593z"/><path fill="#70CFFF" d="m33.894 15.934-2.432 6.341a.35.35 0 0 0 .327.47h2.453c.143 0 .286-.04.43-.102l1.9-.961c.205-.102.43-.164.655-.164l3.761-.04a.48.48 0 0 0 .47-.492v-4.888a.55.55 0 0 0-.552-.553h-6.521a.677.677 0 0 0-.49.39z"/><path fill="#8D8A94" d="M59.203 45.716H47.53a1.575 1.575 0 0 1-1.574-1.575v-5.625c0-.86.695-1.575 1.574-1.575h11.673c.858 0 1.574.695 1.574 1.575v5.625c0 .859-.716 1.575-1.574 1.575z"/><path fill="#76B9DB" d="M57.424 31.439h-2.392c-.96 0-1.717-.778-1.717-1.719V15.811c0-.961.777-1.718 1.717-1.718h2.392c.961 0 1.717.777 1.717 1.718v13.91c0 .94-.756 1.718-1.717 1.718zm8.852 0h-2.392c-.96 0-1.717-.778-1.717-1.719V15.811c0-.961.777-1.718 1.717-1.718h2.392c.96 0 1.717.777 1.717 1.718v13.91c.02.94-.756 1.718-1.717 1.718zm8.852 0h-2.392c-.96 0-1.717-.778-1.717-1.719V15.811c0-.961.777-1.718 1.717-1.718h2.392c.96 0 1.717.777 1.717 1.718v13.91c.02.94-.756 1.718-1.717 1.718zm8.852 0h-2.392a1.715 1.715 0 0 1-1.717-1.719V15.811c0-.961.776-1.718 1.717-1.718h2.392c.96 0 1.717.777 1.717 1.718v13.91c.02.94-.757 1.718-1.717 1.718zm8.851 0H90.44a1.716 1.716 0 0 1-1.718-1.719V15.811c0-.961.777-1.718 1.718-1.718h2.391c.961 0 1.718.777 1.718 1.718v13.91c.02.94-.757 1.718-1.718 1.718zm8.873 0h-2.392a1.715 1.715 0 0 1-1.717-1.719V15.811c0-.961.776-1.718 1.717-1.718h2.392c.96 0 1.717.777 1.717 1.718v13.91c0 .94-.777 1.718-1.717 1.718zm8.851 0h-2.391a1.716 1.716 0 0 1-1.718-1.719V15.811c0-.961.777-1.718 1.718-1.718h2.391c.961 0 1.718.777 1.718 1.718v13.91c0 .94-.777 1.718-1.718 1.718z"/><ellipse cx="20.974" cy="45.266" fill="#514B5A" rx="8.668" ry="8.673"/><ellipse cx="20.974" cy="45.266" fill="#70CFFF" rx="5.601" ry="5.605"/><ellipse cx="20.974" cy="45.266" fill="#18B1FF" rx="2.842" ry="2.843"/><ellipse cx="70.835" cy="45.266" fill="#514B5A" rx="8.668" ry="8.673"/><ellipse cx="70.835" cy="45.266" fill="#70CFFF" rx="5.601" ry="5.605"/><ellipse cx="70.835" cy="45.266" fill="#18B1FF" rx="2.842" ry="2.843"/><ellipse cx="89.356" cy="45.266" fill="#514B5A" rx="8.668" ry="8.673"/><ellipse cx="89.356" cy="45.266" fill="#70CFFF" rx="5.601" ry="5.605"/><ellipse cx="89.356" cy="45.266" fill="#18B1FF" rx="2.842" ry="2.843"/><ellipse cx="107.877" cy="45.266" fill="#514B5A" rx="8.668" ry="8.673"/><ellipse cx="107.877" cy="45.266" fill="#70CFFF" rx="5.601" ry="5.605"/><ellipse cx="107.877" cy="45.266" fill="#18B1FF" rx="2.842" ry="2.843"/><ellipse cx="48.756" cy="39.436" fill="#635D6B" rx="1.288" ry="1.289"/><path fill="#DCDBDE" d="M44.606 36.94a1.64 1.64 0 0 1-1.635-1.635V11.782c0-.9.736-1.637 1.635-1.637.9 0 1.636.737 1.636 1.637v23.523c0 .9-.716 1.636-1.636 1.636z"/></g></svg>