<svg version="1.1" xmlns="http://www.w3.org/2000/svg" xmlns:xlink="http://www.w3.org/1999/xlink" width="108.55507" height="117.12213" viewBox="0,0,108.55507,117.12213"><g transform="translate(-185.99985,-121)"><g data-paper-data="{&quot;isPaintingLayer&quot;:true}" fill-rule="evenodd" stroke="none" stroke-width="1" stroke-linecap="butt" stroke-linejoin="miter" stroke-miterlimit="10" stroke-dasharray="" stroke-dashoffset="0" style="mix-blend-mode: normal"><path d="M206.962,168.749c7.984,12.449 18.632,2.063 15.01,-8.945c-2.63,-7.988 11.644,2.598 11.644,2.598c0,0 -8.357,23.16 -15.61,23.505c-7.25,0.346 -11.07,-10.988 -11.044,-17.158" data-paper-data="{&quot;origPos&quot;:null}" fill="#333433"/><path d="M234.232,231.67427v-11.378h9.847l-0.446,11.378h-0.009c1.761,1.1 3.044,3.332 1.533,5.15c-1.139,1.283 -2.818,0.27 -4.092,-0.27c-1.409,-0.674 -3.02,-1.146 -4.295,-2.025c-0.824,-0.577 -1.792,-1.207 -2.346,-2.069c-0.172,-0.267 -0.253,-0.537 -0.192,-0.786M223.836,231.67427h-0.006l-0.449,-11.378h9.848v11.378h-0.002c0.063,0.26 -0.017,0.519 -0.19,0.786c-0.556,0.862 -1.525,1.492 -2.348,2.07c-1.275,0.878 -2.885,1.35 -4.293,2.024c-1.277,0.54 -2.954,1.553 -4.092,0.27c-1.511,-1.818 -0.23,-4.056 1.532,-5.15" data-paper-data="{&quot;origPos&quot;:null}" fill="#9e703e"/><path d="M243.61,232.34c0,0 -1.828,-1.148 -5.926,0c-1.657,0.194 -2.171,-1.35 -2.947,-1.692c-0.392,-0.173 -0.505,0 -0.505,0v1.692c-0.061,0.251 0.019,0.529 0.193,0.793c0.555,0.863 1.524,1.501 2.345,2.081c1.277,0.877 2.887,1.347 4.295,2.019c1.277,0.539 2.952,1.549 4.092,0.266c1.509,-1.819 0.23,-4.029 -1.532,-5.159h0.008v-0.008l-0.023,0.008M223.85,232.34c0,0 1.828,-1.148 5.928,0c1.658,0.194 2.172,-1.35 2.947,-1.692c0.392,-0.173 0.507,0 0.507,0l-0.002,1.692c0.061,0.251 -0.019,0.529 -0.19,0.793c-0.56,0.863 -1.526,1.501 -2.348,2.081c-1.277,0.877 -2.885,1.347 -4.295,2.019c-1.277,0.539 -2.952,1.549 -4.094,0.266c-1.509,-1.819 -0.231,-4.029 1.534,-5.159h-0.01v-0.008l0.023,0.008" fill="#333433"/><path d="M211.188,198.41c0.105,-0.997 0.439,-1.888 0.91,-2.575l-0.006,0.065c0,0 1.406,-14.168 5.07,-18.88c1.682,-2.158 7.486,-5.291 8.16,-5.651c1.282,-0.932 4.17,-1.353 5.969,-1.524l6.628,-0.015c1.765,0.173 4.687,0.595 6.011,1.522l3.07,1.106c2.87958,0.92043 5.72478,1.9451 8.53,3.072l5.5,-6.49c-0.09424,-0.2718 -0.16353,-0.55163 -0.207,-0.836c-0.352,-0.647 -0.641,-1.454 -0.817,-2.356c-0.457,-2.356 0.052,-4.438 1.138,-4.648c0.579,-0.114 1.205,0.33 1.731,1.131c1.168,-1.13 2.608,-1.601 3.811,-1.09c1.84,0.787 2.425,3.577 1.306,6.234c-0.719,1.706 -1.964,2.941 -3.251,3.403c0,0 -3.431,9.787 -6.418,10.879c-2.417,0.88 -11.246,-2.687 -11.246,-2.687v-0.012c1.658,10.17 -0.078,25.703 -0.078,25.703h-24.859c0,0 -1.49,-14.1 -0.157,-24.233v0.007c-0.195,0.535 -1.27,1.494 -2.122,2.703c-1.702,2.42 -3.297,12.656 -3.297,12.656c0.038,0.067 0.078,0.139 0.111,0.21c0.48259,0.48936 0.88819,1.04905 1.203,1.66c0.927,1.75 1.021,3.52 0.216,3.947c-0.43,0.23 -1.031,0.028 -1.639,-0.474c-0.652,1.17 -1.675,1.89 -2.748,1.779c-1.641,-0.175 -2.767,-2.238 -2.518,-4.606" data-paper-data="{&quot;origPos&quot;:null}" fill="#9e703e"/><path d="M216.157,177.423c1.684,-2.156 7.486,-5.291 8.163,-5.651c1.28,-0.932 4.169,-1.36 5.965,-1.528l6.628,-0.017c1.765,0.173 4.69,0.596 6.014,1.528l3.067,1.104c2.88071,0.92072 5.72693,1.94607 8.533,3.074l5.482,-6.469l3.972,1.718c-0.084,0.038 -0.163,0.067 -0.245,0.099c0,0 -3.43,9.787 -6.416,10.879c-2.407,0.876 -11.16,-2.649 -11.246,-2.683c0.784,4.803 0.807,10.8 0.616,15.79l-26.181,0.351c-0.16,-4.566 -0.14,-10.038 0.467,-14.678c-0.197,0.537 -1.27,1.492 -2.12,2.701c-1.447,2.059 -2.818,9.758 -3.191,12.024h-4.511c0.329,-2.81 1.805,-14.131 5.003,-18.242" fill="#333433"/><path d="M235.624,172.785h-3.694c-1.055,0 -1.91,-2.28 -1.91,-3.32h7.515c0,1.04 -0.855,3.32 -1.91,3.32" data-paper-data="{&quot;origPos&quot;:null}" fill="#9e703e"/><path d="M230.809,171.694c-0.423,-0.65 -0.72,-1.55 -0.79,-2.2c1.19,0.194 2.415,0.297 3.66,0.297c1.28134,0.00054 2.56036,-0.10886 3.823,-0.327l-0.012,0.017l-6.68,2.213" fill="#eeac6c"/><path d="M220.418,180.818c0.023,-0.12 0.1,-0.196 0.164,-0.335c0.052,0.052 0.308,-0.125 0.43,-0.207c1.12,-0.778 3.65,-3.51 3.67,-9.51l0.006,-0.008c1.109,-0.708 3.186,-1.091 4.815,-1.294c0,0 0.3,10.991 4.198,10.983c3.887,-0.01 4.115,-10.98 4.115,-10.98c1.472,0.172 3.29,0.495 4.431,1.072c0.139,0.07 0.256,0.126 0.371,0.202c0,0 0.009,0.198 0.036,0.527c0.143,1.715 0.813,7.046 3.662,7.282c1.893,7.409 1.226,18.729 0.77,23.999c-0.158,1.797 -0.483,2.884 -0.483,2.884c0,0 -2.136,9.586 -2.362,14.655h-9.848c0.04,-1.283 -0.499,-7.377 -0.499,-7.377h-0.283c0,0 -0.555,5.71 -0.496,7.377h-9.85c-0.265,-4.298 -2.511,-14.655 -2.511,-14.655c0,0 -0.357,-1.093 -0.554,-2.887c-0.522,-4.806 -1.28,-14.606 0.218,-21.728" fill="#e63744"/><path d="M242.658,171.571c-0.539,3.054 2.559,9.761 5.117,10.148c-0.12,-0.642 -0.256,-1.264 -0.409,-1.862c-2.849,-0.238 -3.522,-5.567 -3.662,-7.283c-0.03,-0.33 -0.038,-0.526 -0.038,-0.526c-0.113,-0.078 -0.231,-0.133 -0.368,-0.203c-0.196,-0.099 -0.412,-0.191 -0.64,-0.274M221.635,182.963c2.639,0.343 6.158,-8.024 5.544,-11.392c-0.3903,0.1289 -0.76444,0.30238 -1.115,0.517l-0.007,0.01c-0.016,5.998 -2.546,8.73 -3.67,9.508c-0.121,0.084 -0.377,0.259 -0.43,0.206c-0.063,0.141 -0.14,0.217 -0.163,0.335c-0.057,0.268 -0.111,0.542 -0.159,0.816M235.216,181.831c-4.021,0.011 -4.983,-8.949 -5.197,-12.232c0.338,-0.05 0.667,-0.099 0.983,-0.135c0,0 0.3,10.992 4.199,10.982c3.888,-0.01 4.115,-10.98 4.115,-10.98c0.33304,0.03889 0.66541,0.08323 0.997,0.133c-0.188,3.275 -1.09,12.222 -5.097,12.232" fill="#eeeeed"/><path d="M213.05,151.048c-0.16688,-1.11824 -0.25011,-2.24738 -0.249,-3.378c0,-12.403 10,-22.456 22.337,-22.456c12.336,0 22.337,10.053 22.337,22.456c0,1.096 -0.078,2.17 -0.229,3.222c1.29,0.708 2.16,2.048 2.16,3.584c0,2.278 -1.91,4.126 -4.264,4.126c-0.162,0 -0.319,-0.008 -0.474,-0.025c-3.815,6.888 -11.13,11.549 -19.53,11.549c-8.393,0 -15.702,-4.653 -19.517,-11.53c-0.06792,0.00405 -0.13596,0.00605 -0.204,0.006c-2.356,0 -4.263,-1.848 -4.263,-4.126c0,-1.43 0.752,-2.69 1.897,-3.428" data-paper-data="{&quot;origPos&quot;:null}" fill="#9e703e"/><path d="M230.311,144.65c0,0 -0.503,1.803 -2.082,1.446c-0.772,-0.174 -0.908,-1.201 -3.386,-0.74c-0.779,0.18 -2.417,1.156 -2.732,1.808c-0.316,0.652 -0.088,-2.392 2.457,-3.522c1.835,-0.675 2.457,-0.642 3.977,-0.642c1.52,0 1.987,0.907 1.766,1.65M240.052,144.65c0,0 0.503,1.803 2.082,1.446c0.772,-0.174 0.908,-1.201 3.386,-0.74c0.779,0.18 2.417,1.156 2.732,1.808c0.316,0.652 0.087,-2.392 -2.457,-3.522c-1.835,-0.675 -2.457,-0.642 -3.977,-0.642c-1.52,0 -1.987,0.907 -1.766,1.65" fill="#e74b1d"/><path d="M228,152c0,1.657 -0.895,3 -2,3c-1.105,0 -2,-1.343 -2,-3c0,-1.657 0.895,-3 2,-3c1.105,0 2,1.343 2,3M246,152c0,1.657 -0.895,3 -2,3c-1.105,0 -2,-1.343 -2,-3c0,-1.657 0.895,-3 2,-3c1.105,0 2,1.343 2,3" data-paper-data="{&quot;origPos&quot;:null}" fill="#333433"/><path d="M235.02,155.069c-1.125,0.153 -3.02,1.834 -3.02,1.834c0,0 0.207,-1.009 0.503,-1.299c0.8,-1.156 2.487,-1.604 2.487,-1.604c0,0 2.173,0.703 2.65,1.588c0.443,0.824 0.34,1.238 0.34,1.238c0,0 -2.121,-1.871 -2.96,-1.756z" fill="#eeac6c"/><path d="M228.2,158.696c0,0 6.897,3.208 13.172,-0.397c0,0 -1.39,5.47 -5.95,5.561c-4.115,0.122 -4.984,-1.492 -5.477,-1.956c-0.492,-0.463 -1.42,-1.772 -1.745,-3.208" fill="#eeac6c"/><path d="M247.236,147.7c-1.823,-1.131 -4.502,-1.847 -4.502,-1.847c-0.32,-0.595 -0.036,-1.608 0.386,-1.667c1.337,-0.192 4.116,3.514 4.116,3.514M221.635,147.7c1.821,-1.131 4.502,-1.847 4.502,-1.847c0.32,-0.595 0.036,-1.608 -0.383,-1.667c-1.34,-0.192 -4.12,3.514 -4.12,3.514" fill="#ad6921"/><path d="M257.452,144.193c0.038,2.623 -1.125,6.273 -1.125,6.273c0,0 -5.901,-7.023 -9.5,-8.991c-4.402,-2.411 -6.597,1.136 -10.529,-1.981c-0.652,-0.52 -1.866,-1.892 -1.866,-1.892c0,0 -1.48,1.5 -1.876,1.892c-4.418,4.347 -7.732,-0.729 -11.457,1.899c-4.738,3.344 -8.743,8.911 -8.743,8.911c0,0 -1.375,-1.58 -1.183,-6.355c0.055,-1.378 0.719,-4.431 1.797,-7.533c3.913,-7.891 12.02,-13.309 21.38,-13.309c10.757,0 19.852,7.15 22.839,16.984c0.1517,1.36246 0.23913,2.73131 0.262,4.102" fill="#ad6921"/><path d="M211.154,146.661l0.66,-2.482l1.96,0.805c0,0 -0.736,17.752 21.6,23.618c-21.223,0.108 -24.22,-21.942 -24.22,-21.942z" fill="#333433"/><path d="M258.435,146.66c0,0 -3,22.05 -24.223,21.942c22.338,-5.866 21.6,-23.618 21.6,-23.618l1.96,-0.805l0.663,2.482z" fill="#333433"/><path d="M244.652,122.621c8.282,3.101 14.866,10.824 14.866,24.7c-3.647,4.86 -18.112,-1.75 -24.168,-1.75c-6.066,0 -20.698,6.729 -24.196,1.749c0,-13.593 6.726,-21.836 15.66,-24.923c2.975,-1.027 6.88,-1.397 8.568,-1.397c1.995,0 7.516,0.914 9.27,1.62" fill="#dbdbdb"/><path d="M217.638,138.496c0.354,1.64 0.168,3.07 -0.413,3.199c-0.583,0.126 -1.344,-1.098 -1.698,-2.737c-0.356,-1.64 -0.17,-3.073 0.411,-3.199c0.585,-0.126 1.344,1.1 1.7,2.737M213.444,144.817c0.354,1.638 0.168,3.073 -0.413,3.201c-0.582,0.124 -1.34,-1.1 -1.696,-2.737c-0.356,-1.64 -0.171,-3.072 0.41,-3.2c0.584,-0.125 1.343,1.097 1.7,2.736M251.16,138.496c-0.352,1.64 -0.17,3.07 0.413,3.199c0.583,0.126 1.341,-1.098 1.698,-2.737c0.352,-1.64 0.17,-3.073 -0.413,-3.199c-0.585,-0.126 -1.342,1.1 -1.698,2.737M255.355,144.817c-0.357,1.638 -0.172,3.073 0.41,3.201c0.583,0.124 1.344,-1.1 1.698,-2.737c0.355,-1.64 0.172,-3.072 -0.41,-3.2c-0.585,-0.125 -1.342,1.097 -1.698,2.736" fill="#333433"/><path d="M267.029,161.036l1.414,1.942l-57.97,42.639l-1.415,-1.945z" fill="#c6c5c6"/><path d="M267.069,163.434c-0.556,-0.227 -1.43,-1.342 -1.415,-1.945c6.98,-7.231 8.11,-16.012 14.43,-18.26c6.314,-2.244 13.954,-1.237 14.447,3.127c0.59,5.255 -9.886,13.108 -14.772,15.068c-2.983,1.195 -7.106,-0.24 -12.69,2.01" fill="#ef8214"/><path d="M268.819,162.546l-1.069,-1.47c7.016,-5.16 22.253,-14.79 22.253,-14.79c0,0 -13.852,11.341 -21.184,16.261z" fill="#cb6f1a"/><path d="M268.26,162.547l-0.51,-0.7l21.693,-15.561c0,0 -13.851,11.34 -21.184,16.26" fill="#f3ab6c"/><path d="M207.458,204.637l-0.497,-0.683l3.92,-2.883l0.497,0.683z" fill="#cb6f1a"/><path d="M212.536,202.456c-4.077,4.319 -4.572,7.866 -6.743,10.177c-3.562,3.783 -14.16,11.47 -18.189,10.378c-3.341,-0.906 -1.084,-7.289 3.284,-12.21c4.371,-4.925 11.957,-4.839 20.64,-9.73c0.494,0.055 1.046,0.905 1.008,1.385" fill="#ef8214"/><path d="M211.925,204.226c-6.946,5.449 -21.733,15.5 -21.733,15.5c0,0 13.97,-11.395 20.972,-16.547z" fill="#cb6f1a"/><path d="M211.925,203.676c-6.946,5.449 -21.732,15.5 -21.732,15.5l21.37,-15.997l0.362,0.497" fill="#f3ab6c"/><path d="M264.254,165.25c0.251,0.502 0.335,0.891 0.192,0.999c-0.146,0.103 -0.488,-0.095 -0.888,-0.49zM264.501,163.644l-0.69,0.508c-0.242,-0.496 -0.326,-0.877 -0.184,-0.982c0.143,-0.102 0.48,0.09 0.874,0.474" fill="#ef8214"/><path d="M264.97,165.419c-0.28404,-0.28103 -0.54396,-0.58543 -0.777,-0.91c-0.24049,-0.32647 -0.45291,-0.6727 -0.635,-1.035l0.34,-0.331c0.177,0.314 0.404,0.729 0.67,1.091c0.26,0.356 0.57,0.721 0.822,0.96zM216.044,201.071c0.25,0.504 0.338,0.894 0.193,1.001c-0.147,0.106 -0.486,-0.094 -0.89,-0.486zM214.194,199.466l-0.692,0.506c-0.241,-0.496 -0.325,-0.875 -0.182,-0.98c0.142,-0.103 0.48,0.09 0.874,0.474" fill="#ef8214"/><path d="M214.663,201.242c-0.28249,-0.28234 -0.54135,-0.58736 -0.774,-0.912c-0.24335,-0.32602 -0.45719,-0.67306 -0.639,-1.037l0.34,-0.329c0.18,0.316 0.41,0.727 0.672,1.092c0.262,0.358 0.57,0.72 0.822,0.956z" fill="#ef8214"/><path d="M259.459,165.359c-0.329,-2.23 0.233,-4.16 1.258,-4.314c1.025,-0.153 2.124,1.53 2.455,3.755c0.331,2.23 -0.231,4.16 -1.256,4.314c-1.023,0.151 -2.123,-1.525 -2.456,-3.755M216.116,201.048c-0.956,-1.867 -1.031,-3.74 -0.174,-4.182l0.863,-0.009c0.797,0.285 1.739,1.254 2.42,2.588c0.954,1.867 1.031,3.742 0.171,4.184c-0.859,0.443 -2.326,-0.714 -3.28,-2.581" data-paper-data="{&quot;origPos&quot;:null}" fill="#9e703e"/></g></g></svg>