<svg xmlns="http://www.w3.org/2000/svg" xmlns:xlink="http://www.w3.org/1999/xlink" width="120" height="120"><defs><path id="a" d="M0 75.333h119.796V.51H0z"/></defs><g fill="none" fill-rule="evenodd"><path fill="#DFDEDC" d="M22.046 22.667 1 51.905l26.873 16.007 11.812-20.128zm77.704 0L82.113 47.784l11.81 20.128 26.874-16.006z"/><g transform="translate(1 22.158)"><path fill="#9E9D97" d="M103.83 57.526C102.943 34.15 83.62 15.47 59.897 15.47c-23.72 0-43.045 18.681-43.931 42.056h87.862z"/><mask id="b" fill="#fff"><use xlink:href="#a"/></mask><path fill="#FFB726" d="M9.768 75.111h97.877v-18H9.768z" mask="url(#b)"/><path fill="#FFB726" d="m50.456 69.778-2.404-59.334h24.037l-2.402 59.334z" mask="url(#b)"/><path fill="#A62F4B" d="M24.142 66.039c0 2.742-2.236 4.965-4.995 4.965-2.757 0-4.992-2.223-4.992-4.965 0-2.743 2.235-4.966 4.992-4.966 2.759 0 4.995 2.223 4.995 4.966" mask="url(#b)"/><path fill="#DD3E64" d="M22.247 66.039a3.09 3.09 0 0 1-3.1 3.082 3.09 3.09 0 0 1-3.098-3.082 3.09 3.09 0 0 1 3.098-3.083 3.09 3.09 0 0 1 3.1 3.083" mask="url(#b)"/><path fill="#A62F4B" d="M40.127 66.039c0 2.742-2.235 4.965-4.994 4.965-2.758 0-4.993-2.223-4.993-4.965 0-2.743 2.235-4.966 4.993-4.966 2.759 0 4.994 2.223 4.994 4.966" mask="url(#b)"/><path fill="#DD3E64" d="M38.233 66.039a3.091 3.091 0 0 1-3.1 3.082 3.09 3.09 0 0 1-3.098-3.082 3.09 3.09 0 0 1 3.098-3.083c1.712 0 3.1 1.38 3.1 3.083" mask="url(#b)"/><path fill="#A62F4B" d="M56.112 66.039c0 2.742-2.236 4.965-4.993 4.965-2.759 0-4.994-2.223-4.994-4.965 0-2.743 2.235-4.966 4.994-4.966 2.757 0 4.993 2.223 4.993 4.966" mask="url(#b)"/><path fill="#DD3E64" d="M54.219 66.039a3.091 3.091 0 0 1-3.1 3.082c-1.712 0-3.1-1.38-3.1-3.082a3.091 3.091 0 0 1 3.1-3.083c1.712 0 3.1 1.38 3.1 3.083" mask="url(#b)"/><path fill="#A62F4B" d="M72.097 66.039c0 2.742-2.236 4.965-4.993 4.965-2.758 0-4.993-2.223-4.993-4.965 0-2.743 2.235-4.966 4.993-4.966 2.757 0 4.993 2.223 4.993 4.966" mask="url(#b)"/><path fill="#DD3E64" d="M70.203 66.039a3.091 3.091 0 0 1-3.1 3.082 3.09 3.09 0 0 1-3.098-3.082 3.09 3.09 0 0 1 3.099-3.083c1.712 0 3.1 1.38 3.1 3.083" mask="url(#b)"/><path fill="#A62F4B" d="M88.082 66.039c0 2.742-2.235 4.965-4.994 4.965-2.757 0-4.992-2.223-4.992-4.965 0-2.743 2.235-4.966 4.992-4.966 2.76 0 4.994 2.223 4.994 4.966" mask="url(#b)"/><path fill="#DD3E64" d="M86.189 66.039a3.091 3.091 0 0 1-3.1 3.082c-1.712 0-3.1-1.38-3.1-3.082a3.091 3.091 0 0 1 3.1-3.083c1.712 0 3.1 1.38 3.1 3.083" mask="url(#b)"/><path fill="#A62F4B" d="M104.067 66.039c0 2.742-2.235 4.965-4.993 4.965-2.758 0-4.993-2.223-4.993-4.965 0-2.743 2.235-4.966 4.993-4.966 2.758 0 4.993 2.223 4.993 4.966" mask="url(#b)"/><path fill="#DD3E64" d="M102.173 66.039a3.091 3.091 0 0 1-3.1 3.082 3.09 3.09 0 0 1-3.098-3.082 3.09 3.09 0 0 1 3.099-3.083c1.712 0 3.1 1.38 3.1 3.083" mask="url(#b)"/><g mask="url(#b)"><path fill="#DFDEDC" d="m19.147 11.869 10.378 10.32"/><path stroke="#CCC" stroke-width="1.341" d="m19.147 11.869 10.378 10.32"/></g><g mask="url(#b)"><path fill="#DFDEDC" d="m13.614 19.882 11.83 8.638"/><path stroke="#CCC" stroke-width="1.341" d="m13.614 19.882 11.83 8.638"/></g><g mask="url(#b)"><path fill="#DFDEDC" d="m9.56 27.738 12.727 7.269"/><path stroke="#CCC" stroke-width="1.341" d="m9.56 27.738 12.727 7.269"/></g><g mask="url(#b)"><path fill="#DFDEDC" d="m101.464 11.869-10.377 10.32"/><path stroke="#CCC" stroke-width="1.341" d="m101.464 11.869-10.377 10.32"/></g><g mask="url(#b)"><path fill="#DFDEDC" d="m106.998 19.882-11.83 8.638"/><path stroke="#CCC" stroke-width="1.341" d="m106.998 19.882-11.83 8.638"/></g><g mask="url(#b)"><path fill="#DFDEDC" d="m111.052 27.738-12.728 7.269"/><path stroke="#CCC" stroke-width="1.341" d="m111.052 27.738-12.728 7.269"/></g><path fill="#FAFCFB" d="M10.158 56.617v18.717h49.466V11.266H48.052l.237 5.757a43.865 43.865 0 0 0-11.951 5.262L21.046.509 0 29.748l19.702 11.735a43.326 43.326 0 0 0-3.678 15.134h-5.866z" mask="url(#b)" opacity=".316"/></g></g></svg>