<svg xmlns="http://www.w3.org/2000/svg" width="62.705" height="118.708"><g fill-rule="evenodd" stroke-miterlimit="10" data-paper-data="{&quot;isPaintingLayer&quot;:true}" style="mix-blend-mode:normal"><path fill="#994c34" d="M0 113.921h10.354v3.808H0z"/><path fill="#6b2c1e" d="M12.192 112.213v3.806l-1.837 1.71v-3.806z"/><path fill="#af5a41" d="m12.193 112.213-1.838 1.71H0l1.842-1.71z"/><path fill="#6b2c1e" d="M2.931 113.438c0 .108-.335.189-.737.189-.398 0-.729-.08-.729-.189 0-.102.331-.181.73-.181.401 0 .736.079.736.181m2.284 0c0 .108-.332.189-.734.189-.405 0-.726-.08-.726-.189 0-.102.32-.181.726-.181.402 0 .733.079.733.181m2.48 0c0 .108-.331.189-.735.189-.404 0-.727-.08-.727-.189 0-.102.323-.181.727-.181.404 0 .735.079.735.181m2.348 0c0 .108-.329.189-.736.189-.402 0-.733-.08-.733-.189 0-.102.33-.181.733-.181.407 0 .736.079.736.181m-6.221-.692c0 .1-.328.181-.732.181-.408 0-.737-.08-.737-.18 0-.11.329-.188.737-.188.404 0 .733.077.733.187m2.283 0c0 .1-.331.181-.735.181-.404 0-.727-.08-.727-.18 0-.11.323-.188.727-.188.404 0 .735.077.735.187m2.473 0c0 .1-.33.181-.73.181-.406 0-.73-.08-.73-.18 0-.11.324-.188.73-.188.4 0 .73.077.73.187m2.355 0c0 .1-.323.181-.735.181-.396 0-.725-.08-.725-.18 0-.11.33-.188.725-.188.412 0 .735.077.735.187"/><path fill="#994c34" d="M10.515 113.921h10.356v3.808H10.515z"/><path fill="#6b2c1e" d="m22.718 116.02-1.847 1.71v-3.807l1.847-1.712z"/><path fill="#af5a41" d="M12.359 112.212h10.359l-1.848 1.71H10.515z"/><path fill="#6b2c1e" d="M13.453 113.438c0 .108-.324.189-.73.189-.403 0-.732-.08-.732-.189 0-.102.329-.181.733-.181.405 0 .729.079.729.181m2.285 0c0 .108-.33.189-.735.189-.4 0-.733-.08-.733-.189 0-.102.333-.181.733-.181.406 0 .735.079.735.181m2.481 0c0 .108-.33.189-.736.189-.402 0-.733-.08-.733-.189 0-.102.33-.181.733-.181.405 0 .736.079.736.181m2.339 0c0 .108-.325.189-.727.189-.403 0-.726-.08-.726-.189 0-.102.323-.181.726-.181.402 0 .727.079.727.181m-6.219-.692c0 .1-.325.181-.728.181-.406 0-.735-.08-.735-.18 0-.11.329-.188.734-.188.404 0 .73.077.73.187m2.286 0c0 .1-.326.181-.73.181-.406 0-.739-.08-.739-.18 0-.11.333-.188.739-.188.404 0 .73.077.73.187m2.478 0c0 .1-.33.181-.735.181-.404 0-.732-.08-.732-.18 0-.11.328-.188.732-.188.404 0 .735.077.735.187m2.343 0c0 .1-.32.181-.727.181-.402 0-.727-.08-.727-.18 0-.11.325-.188.727-.188.408 0 .727.077.727.187"/><path fill="#994c34" d="M5.113 110.116h10.353v3.806H5.113z"/><path fill="#6b2c1e" d="m17.311 112.212-1.845 1.71v-3.805l1.845-1.71z"/><path fill="#af5a41" d="M6.96 108.409h10.35l-1.843 1.707H5.114z"/><path fill="#6b2c1e" d="M8.047 109.63c0 .106-.32.193-.726.193-.404 0-.735-.087-.735-.193 0-.1.33-.18.735-.18.405 0 .726.08.726.18m2.293 0c0 .106-.33.193-.734.193-.396 0-.735-.087-.735-.193 0-.1.339-.18.735-.18.403 0 .734.08.734.18m2.475 0c0 .106-.328.193-.732.193-.404 0-.735-.087-.735-.193 0-.1.331-.18.735-.18.404 0 .733.08.733.18m2.341 0c0 .106-.32.193-.723.193-.408 0-.727-.087-.727-.193 0-.1.32-.18.727-.18.404 0 .723.08.723.18m-6.215-.691c0 .1-.325.183-.727.183-.406 0-.733-.083-.733-.183 0-.108.327-.19.733-.19.402 0 .727.082.727.19m2.287 0c0 .1-.333.183-.73.183-.405 0-.741-.083-.741-.183 0-.108.336-.19.74-.19.398 0 .73.082.73.19m2.478 0c0 .1-.33.183-.736.183-.402 0-.733-.083-.733-.183 0-.108.33-.19.733-.19.406 0 .736.082.736.19m2.343 0c0 .1-.325.183-.73.183-.402 0-.727-.083-.727-.183 0-.108.325-.19.727-.19.405 0 .73.082.73.19"/><path fill="#ffd988" d="M7.659 45.58c1.158-.491 2.559-.04 3.69 1.05.511-.776 1.122-1.207 1.685-1.095 1.058.207 1.548 2.218 1.103 4.482-.171.875-.445 1.658-.794 2.272-.041.293-.11.56-.202.808h.003l5.342 6.27 11.326-4.058s-1.924 3.055-2.399 4.164c-.35.813-1.022 3.382-1.022 3.382s-8.271 3.354-10.619 2.51c-2.903-1.052-6.228-10.491-6.228-10.491-1.253-.44-2.462-1.643-3.158-3.28-1.08-2.567-.52-5.26 1.273-6.013" data-paper-data="{&quot;origPos&quot;:null}"/><path fill="#684516" d="M48.626 112.931h-9.328c-.061.261.02.573.195.833.551.855 1.511 1.533 2.328 2.11 1.265.865 2.863 1.316 4.263 1.983 1.266.53 2.928 1.49 4.061.23 1.501-1.798.229-4.078-1.519-5.157zm-19.935 0h9.336c.067.261-.021.573-.191.833-.551.855-1.516 1.533-2.324 2.11-1.27.865-2.87 1.316-4.274 1.983-1.271.53-2.936 1.49-4.066.23-1.497-1.798-.224-4.078 1.519-5.157z"/><path fill="#0771b7" d="m50.731 87.56-1.905 25.437h-9.658l-.364-18.394h-.284l-.366 18.394h-9.651L26.59 87.56z"/><path fill="#ffd988" d="M55.735 60.798C59.292 65.338 60.653 79 60.653 79s-.004-.021-.004-.06c.455.668.782 1.528.882 2.49.24 2.278-.856 4.267-2.444 4.436-1.034.108-2.035-.584-2.665-1.714-.593.484-1.168.681-1.59.457-.78-.41-.693-2.117.201-3.805.341-.64.755-1.19 1.172-1.603.032-.069.065-.136.11-.2 0 0-1.553-9.872-3.2-12.207-.83-1.169-1.36-1.822-1.556-2.345-.146-.411-.311-1.21-.378-1.507-.538-2.347-3.433-7.633-3.433-7.633s6.25 3.276 7.989 5.489" data-paper-data="{&quot;origPos&quot;:null}"/><path fill="#e63744" d="M19.955 58.533s2.349-1.084 10.326-3.459c2.224-1.064 6.695-1.312 6.695-1.312l1.71.057h.136l1.706-.031s5.074.202 7.09 1.448v.007c7.832 3.012 10.123 7.922 10.123 7.922-.804 3.16-5.307 3.168-5.307 3.168l-.437-.646c1.952 9.612 2.204 21.874 2.204 21.874H23.305s.299-14.774 2.83-24.584l-4.841 1.916s-2.147-3.695-1.34-6.36"/><path fill="#f08314" d="M49.43 55.317c2.387 7.57 6.508 27.861 4.647 32.345-1.919 2.12-14.125.094-15.332-.104-1.2.198-13.416 2.224-15.34.104-1.864-4.484 2.255-24.775 4.642-32.345 1.348-1.157 6.41-1.529 6.41-1.529l4.288 5.672 4.276-5.672s5.062.372 6.409 1.529"/><path fill="#eeeeed" d="M54.524 82.97c.035 1.11.016 2.097-.069 2.916H23.023a22.573 22.573 0 0 1-.068-2.916H30.9V54.274a32.387 32.387 0 0 1 2.92-.424v29.118h9.847v-29.12c.981.096 1.957.24 2.923.434V82.97h7.934"/><path fill="#a55516" d="m38.745 59.46.155-.209v28.33a1.392 1.392 0 0 0-.155-.023 1.34 1.34 0 0 0-.156.023v-28.33z"/><path fill="#ffd988" d="M60.673 33.873c1.141.724 1.888 1.972 1.888 3.378 0 2.241-1.902 4.067-4.23 4.067-.069 0-.136 0-.203-.01-3.783 6.782-11.034 11.37-19.362 11.37-8.324 0-15.58-4.595-19.36-11.388a4.486 4.486 0 0 1-.473.027c-2.341 0-4.231-1.826-4.231-4.066 0-1.509.865-2.833 2.14-3.531a22.821 22.821 0 0 1-.226-3.173c0-12.223 9.92-22.133 22.15-22.133 12.242 0 22.165 9.911 22.165 22.133a22.4 22.4 0 0 1-.258 3.326" data-paper-data="{&quot;origPos&quot;:null}"/><path fill="#523415" d="M31.844 30.096c-.772-.174-.908-1.201-3.386-.74-.779.18-2.417 1.156-2.732 1.808-.316.652-.088-2.392 2.457-3.522C30.018 26.967 30.64 27 32.16 27s1.987.907 1.766 1.65c0 0-.503 1.803-2.082 1.446zm13.905 0c.772-.174.908-1.201 3.386-.74.779.18 2.417 1.156 2.732 1.808.316.652.087-2.392-2.457-3.522-1.835-.675-2.457-.642-3.977-.642s-1.987.907-1.766 1.65c0 0 .503 1.803 2.082 1.446z" data-paper-data="{&quot;origPos&quot;:null}"/><path fill="#343434" d="M29.615 39c-1.105 0-2-1.343-2-3s.895-3 2-3 2 1.343 2 3-.895 3-2 3zm18 0c-1.105 0-2-1.343-2-3s.895-3 2-3 2 1.343 2 3-.895 3-2 3z"/><path fill="#eeac6c" d="M38.635 39.069c-1.125.153-3.02 1.834-3.02 1.834s.207-1.009.503-1.299c.8-1.156 2.487-1.604 2.487-1.604s2.173.703 2.65 1.588c.443.824.34 1.238.34 1.238s-2.121-1.871-2.96-1.756zM31.815 42.696s6.897 3.208 13.172-.397c0 0-1.39 5.47-5.95 5.561-4.115.122-4.984-1.492-5.477-1.956-.492-.463-1.42-1.772-1.745-3.208"/><path fill="#805221" d="M61.808 27.657c.032 2.604-.876 8.227-2.651 11.573 0 0-4.353-12.311-7.946-14.259-4.39-2.39-15.952 1.047-19.878-2.036-.646-.519-.574-1.676-.574-1.676s-.748 1.477-1.11 1.887c-1.895 2.16-6.829 5.288-9.169 6.97-1.869 1.347-1.968 1.33-1.548 9.113 0 0-3.455-7.08-3.268-11.81.061-1.368.719-4.385 1.796-7.458 3.893-7.816 11.978-13.186 21.32-13.186 10.722 0 19.784 7.083 22.752 16.823a40.97 40.97 0 0 1 .276 4.059" data-paper-data="{&quot;origPos&quot;:null}"/><path fill="#ffd988" d="M37.043 55.209c-1.04 0-1.873-2.221-1.873-3.236h7.368c0 1.015-.839 3.237-1.873 3.237h-3.622" data-paper-data="{&quot;origPos&quot;:null}"/><path fill="#eeac6c" d="M35.966 54.523a5.203 5.203 0 0 1-.78-2.136c1.172.183 2.369.291 3.595.291a22.02 22.02 0 0 0 3.74-.321l-.012.012-6.544 2.154" data-paper-data="{&quot;origPos&quot;:null}"/><path fill="#dda20c" d="M14.791 25.824S22.69 15.327 38.51 15.327c13.02 0 24.194 10.497 24.194 10.497-6.622 8.07-42.925 8-47.913 0"/><path fill="#f6b90c" d="M14.791 25.824c0-13.261 10.74-23.925 23.964-23.925 13.23 0 23.95 10.664 23.95 23.925H14.79z"/><path fill="#dda20c" d="M42.908 23.034h-9.205L32.116 1.34c2.5-1.824 10.386-1.749 12.38 0zM20.535 9.287l6.136 13.72L23.744 6.06s-3.009 2.104-3.209 3.227m36.305 0-6.142 13.72L53.623 6.06s3.012 2.103 3.217 3.226"/></g></svg>