<svg version="1.1" xmlns="http://www.w3.org/2000/svg" xmlns:xlink="http://www.w3.org/1999/xlink" width="75.919" height="116.48583" viewBox="0,0,75.919,116.48583"><g transform="translate(-203.018,-121.72)"><g data-paper-data="{&quot;isPaintingLayer&quot;:true}" fill-rule="evenodd" stroke="none" stroke-width="1" stroke-linecap="butt" stroke-linejoin="miter" stroke-miterlimit="10" stroke-dasharray="" stroke-dashoffset="0" style="mix-blend-mode: normal"><path d="M203.01801,169.722c8.231,12.834 19.219,2.126 15.48,-9.221c-2.714,-8.234 12.01,2.678 12.01,2.678c0,0 -8.62,23.876 -16.099,24.235c-7.48,0.354 -11.416,-11.328 -11.39,-17.692" data-paper-data="{&quot;origPos&quot;:null}" fill="#000000"/><path d="M263.71501,161.761c1.86,0.789 2.449,3.608 1.318,6.293c-0.726,1.72 -1.984,2.966 -3.284,3.43h0.002c0,0 -3.463,9.884 -6.48,10.98c-2.445,0.893 -11.048,-2.621 -11.048,-2.621c0,0 -2.62,-2.732 -2.98,-3.58c-0.495,-1.166 -0.755,-4.38 -0.755,-4.38l11.96,4.304l5.554,-6.557h0.002c-0.096,-0.262 -0.162,-0.547 -0.209,-0.843c-0.355,-0.65 -0.649,-1.47 -0.825,-2.377c-0.463,-2.379 0.052,-4.482 1.147,-4.694c0.585,-0.116 1.219,0.334 1.751,1.141c1.178,-1.141 2.635,-1.613 3.847,-1.097" data-paper-data="{&quot;origPos&quot;:null}" fill="#be9969"/><path d="M256.57201,158.829c0,-6.207 5.007,-11.238 11.182,-11.238c6.179,0 11.183,5.031 11.183,11.238c0,6.205 -5.004,11.236 -11.183,11.236c-6.175,0 -11.182,-5.031 -11.182,-11.235" fill="#f6b90c"/><path d="M267.75401,170.066c-2.42544,0.00364 -4.7851,-0.78853 -6.717,-2.255l-0.237,-0.288l-0.297,-0.362l-0.32,-0.423l0.36,-0.011h0.703l0.335,0.039l0.368,0.013l0.388,0.026l0.453,0.03l0.433,0.047l0.415,0.058l0.292,0.043l0.173,0.143l0.316,0.198l0.435,0.255l0.43,0.253l0.414,0.23l0.468,0.272l0.568,0.294l0.646,0.343l0.656,0.32l0.634,0.296l0.5,0.214l0.333,0.13h0.002c-0.572,0.087 -1.157,0.135 -1.751,0.135M267.75401,147.591c1.71006,-0.00224 3.39743,0.39136 4.93,1.15l-0.478,0.096l-0.542,0.127l-0.487,0.129l-0.779,0.232l-0.82,0.297l-0.812,0.34l-0.801,0.358l-0.61,0.343l-0.758,0.404l-0.995,0.635l-0.448,0.304l-0.645,0.528l-4.309,0.009l0.25,-0.309l0.371,-0.468l0.404,-0.452l0.423,-0.44l0.51,-0.53l0.572,-0.56l0.735,-0.657l0.858,-0.71l0.617,-0.466c0.899,-0.233 1.843,-0.36 2.814,-0.36M276.68501,165.555c-0.923,1.282 -2.17,2.356 -3.577,3.132l0.015,-0.004v-16.913l0.677,-0.051l0.846,-0.034l0.655,-0.022l0.722,0.027l0.361,0.01h0.013c0.098,0.12 0.194,0.24 0.288,0.364v13.491" fill="#0771b7"/><path d="M259.82701,166.728c-1.19033,-1.19846 -2.09719,-2.64827 -2.654,-4.243h12.915l-0.051,0.768l-0.062,0.697l-0.154,0.982l-0.168,1.11l-0.178,1.062l-0.224,1.068l-1.061,-0.326l-1.038,-0.277l-1.12,-0.244l-1.649,-0.284l-0.86,-0.13l-1.318,-0.125l-1.242,-0.056l-1.136,-0.002M256.695,157.181l-0.002,-0.003c0.24356,-1.66604 0.85949,-3.25577 1.802,-4.651l0.005,-0.002h10.79l0.156,0.526l0.145,0.6l0.166,0.796l0.18,1.004l0.058,0.429l0.072,0.65l0.052,0.65h-13.424z" fill="#0771b7"/><path d="M259.79301,166.72c0.25,-0.009 0.502,-0.013 0.758,-0.013c4.33,0 8.255,1.283 8.665,1.425c0.07,-0.314 0.563,-2.599 0.798,-5.634h-12.834c-0.009,-0.024 -0.013,-0.043 -0.021,-0.067h12.86c0.123,-1.605 0.17,-3.413 0.044,-5.235h-13.372c0.00176,-0.02343 0.00443,-0.04678 0.008,-0.07h13.36c-0.07902,-1.17268 -0.24683,-2.33769 -0.502,-3.485c-0.0933,-0.36733 -0.20071,-0.73094 -0.322,-1.09h-10.757l0.043,-0.064h1.652c0.89781,-1.10703 1.88009,-2.1428 2.938,-3.098c0.51,-0.46 1.1,-0.95 1.749,-1.416c0.06,-0.017 0.124,-0.034 0.19,-0.05c-2.455,1.736 -4.41,4.09 -4.793,4.564h4.202c0.258,-0.21 1.659,-1.309 3.713,-2.291c1.182,-0.569 2.722,-1.161 4.466,-1.479c0.03,0.018 0.066,0.035 0.098,0.052c-1.77,0.31 -3.337,0.912 -4.535,1.484c-1.28797,0.61559 -2.50796,1.36434 -3.64,2.234h4.693c0.128,-0.037 2.94,-0.852 6.017,-0.852c0.38,0 0.75,0.015 1.106,0.037c0.02,0.023 0.038,0.049 0.058,0.073c-0.38741,-0.02709 -0.77564,-0.04076 -1.164,-0.041c-0.722,0 -1.429,0.043 -2.088,0.114v16.835c-0.02087,0.0128 -0.04222,0.02481 -0.064,0.036v-16.865c-1.27739,0.13573 -2.54201,0.37247 -3.782,0.708c0.11,0.363 0.203,0.732 0.286,1.103c0.786,3.06 0.716,6.57 0.492,9.099c-0.15744,1.81822 -0.43066,3.62455 -0.818,5.408c1.13507,0.34237 2.29729,0.58726 3.474,0.732c-0.035,0.02 -0.073,0.034 -0.11,0.051c-1.14931,-0.14715 -2.2845,-0.38897 -3.394,-0.723c0,0 -2.236,-0.813 -5.276,-1.182c0.303,0.238 2.21,1.371 4.208,2.315c0.417,0.195 0.876,0.393 1.369,0.582c-0.043,0.006 -0.085,0.015 -0.13,0.021c-0.455,-0.176 -0.882,-0.36 -1.266,-0.543c-2.274,-1.075 -4.275,-2.39 -4.275,-2.39c-1.187,-0.182 -1.98,-0.234 -3.346,-0.234l-0.318,0.002c0.141,0.187 0.485,0.616 0.972,1.163c-0.092,-0.066 -0.18,-0.133 -0.27,-0.201c-0.386,-0.442 -0.653,-0.79 -0.783,-0.96l-0.295,0.011c-0.02076,-0.02254 -0.0421,-0.04455 -0.064,-0.066M276.74701,152.148v13.364c-0.023,0.026 -0.045,0.058 -0.066,0.088v-13.54c0.021,0.03 0.043,0.058 0.066,0.088" fill="#727371"/><path d="M256.88701,166.152c-0.335,-2.269 0.235,-4.235 1.278,-4.389c1.043,-0.157 2.164,1.553 2.5,3.82c0.336,2.27 -0.236,4.236 -1.28,4.392c-1.04,0.157 -2.163,-1.555 -2.498,-3.823M213.70201,177.686c1.802,-2.315 8.536,-5.855 8.536,-5.855c0,0 0.663,4.733 0.11,7.183c-0.069,0.315 -4.471,2.858 -4.603,3.072c-0.287,0.459 -0.731,1.045 -1.32,1.882c-1.717,2.442 -3.327,12.772 -3.327,12.772c0.03945,0.0697 0.07713,0.14039 0.113,0.212c0.48747,0.49547 0.89711,1.06189 1.215,1.68c0.931,1.764 1.027,3.546 0.214,3.981c-0.433,0.23 -1.043,0.029 -1.653,-0.48c-0.66,1.18 -1.693,1.91 -2.776,1.794c-1.656,-0.176 -2.797,-2.257 -2.543,-4.649c0.107,-1.006 0.442,-1.906 0.919,-2.596l-0.007,0.062c0,0 1.418,-14.304 5.122,-19.058" data-paper-data="{&quot;origPos&quot;:null}" fill="#be9969"/><path d="M215.29101,205.79h0.009c0,0 0.269,-13.537 2.442,-23.705c3.083,-4.224 3.664,-6.046 4.499,-10.255c2.163,-1.238 7.274,-1.405 7.274,-1.405l1.773,0.086h0.151l1.774,-0.123c0,0 5.112,0.239 7.275,1.494c0.88,2.647 1.62,4.988 3.982,8.058c2.647,10.272 2.961,25.85 2.961,25.85h0.034z" fill="#6cc5d8"/><path d="M240.48701,171.882c0.88,2.646 1.621,4.986 3.982,8.059c0.092,0.356 0.18,0.72 0.267,1.09c0,-0.003 -0.002,-0.003 -0.002,-0.003c-2.925,-1.587 -5.229,-9.354 -5.306,-9.616c0.395,0.14 0.756,0.294 1.06,0.47M217.57001,182.922c0.058,-0.284 0.115,-0.562 0.173,-0.837c3.081,-4.222 3.664,-6.046 4.499,-10.255c0.24493,-0.13796 0.5004,-0.25633 0.764,-0.354c0,0.002 -0.745,8.103 -5.436,11.446" fill="#0771b7"/><path d="M230.70001,232.294h-9.698l-0.371,-12.132l-0.62,-3.049h10.69v3.049zM241.72001,232.294h-9.7v-15.181h10.686l-0.621,3.049z" data-paper-data="{&quot;origPos&quot;:null}" fill="#be9969"/><path d="M230.74101,222.202l-0.064,10.092h-9.674l-0.389,-9.74zM242.09601,222.811l-0.376,9.483h-9.723v-9.74z" fill="#eeeeed"/><path d="M232.01401,225.267v-0.663h9.932l-0.023,0.663zM220.79801,225.267l-0.03,-0.663h9.965l-0.009,0.663z" fill="#6cc5d8"/><path d="M243.89701,205.774l-1.117,11.536h-10.868l-0.41,-4.242h-0.29l-0.41,4.242h-10.872l-1.106,-11.536h15.766z" fill="#0771b7"/><path d="M220.14301,221.376c0,-1.476 -0.06,-2.673 1.407,-2.673h7.875c1.469,0 1.671,1.197 1.671,2.673v0.021c0,1.479 -0.202,2.676 -1.671,2.676h-7.875c-1.467,0 -1.407,-1.197 -1.407,-2.676z" fill="#dbdbdb"/><path d="M230.47501,220.147c-0.568,-0.758 -6.128,-1.348 -8.566,-0.728c-0.664,0.168 -1.027,0.413 -1.072,0.713l-0.066,-0.009c0.051,-0.333 0.427,-0.59 1.123,-0.768c1.315,-0.335 3.442,-0.303 4.994,-0.159c1.465,0.133 3.299,0.455 3.64,0.91l-0.053,0.041M224.66801,223.608c-1.016,0 -2.028,-0.073 -2.774,-0.262c-0.696,-0.176 -1.073,-0.435 -1.123,-0.768l0.067,-0.009c0.044,0.301 0.405,0.545 1.071,0.713c2.439,0.62 7.999,0.028 8.567,-0.728l0.052,0.037c-0.34,0.461 -2.175,0.781 -3.64,0.914c-0.672,0.06 -1.447,0.103 -2.22,0.103" fill="#afafaf"/><path d="M242.57701,221.397c0,1.479 0.06,2.676 -1.41,2.676h-7.874c-1.467,0 -1.667,-1.197 -1.667,-2.676v-0.021c0,-1.476 0.2,-2.673 1.667,-2.673h7.875c1.469,0 1.409,1.197 1.409,2.673z" fill="#dbdbdb"/><path d="M232.24301,220.147l-0.051,-0.041c0.341,-0.455 2.173,-0.777 3.64,-0.91c1.552,-0.144 3.677,-0.176 4.994,0.159c0.696,0.178 1.07,0.435 1.121,0.768l-0.064,0.009c-0.047,-0.3 -0.408,-0.545 -1.074,-0.713c-2.44,-0.62 -7.998,-0.03 -8.566,0.728M238.05201,223.608c-0.74115,-0.0019 -1.48186,-0.03627 -2.22,-0.103c-1.467,-0.133 -3.3,-0.453 -3.64,-0.914l0.05,-0.037c0.568,0.756 6.126,1.348 8.567,0.728c0.668,-0.168 1.027,-0.412 1.074,-0.713l0.064,0.009c-0.05,0.333 -0.425,0.592 -1.121,0.768c-0.748,0.189 -1.755,0.262 -2.774,0.262" fill="#afafaf"/><path d="M231.10701,172.926c-4.563,0 -4.298,-2.279 -4.298,-2.279c1.144,-0.12 2.598,-0.313 2.598,-0.313l1.768,-0.008h0.152l1.77,-0.024c0,0 0.924,0.116 2.154,0.262c0,0 0.44,2.362 -4.144,2.362" fill="#0771b7"/><path d="M232.98501,172.232h-3.762c-1.074,0 -1.945,-2.321 -1.945,-3.383h7.655c0,1.062 -0.872,3.383 -1.948,3.383" data-paper-data="{&quot;origPos&quot;:null}" fill="#be9969"/><path d="M228.09801,171.369c-0.431,-0.659 -0.735,-1.577 -0.805,-2.24c2.52392,0.41475 5.09942,0.40461 7.62,-0.03l-0.01,0.015l-6.805,2.256" fill="#eeac6c"/><path d="M208.55801,149.728c-0.16978,-1.15224 -0.25534,-2.31532 -0.256,-3.48c0,-12.787 10.313,-23.15 23.038,-23.15c12.724,0 23.038,10.363 23.038,23.15c-0.00098,1.11119 -0.08018,2.22093 -0.237,3.321c1.33,0.732 2.227,2.111 2.227,3.695c0,2.349 -1.968,4.252 -4.4,4.252c-0.162,0 -0.325,-0.009 -0.485,-0.026c-3.935,7.104 -11.478,11.905 -20.143,11.905c-8.656,0 -16.195,-4.792 -20.132,-11.883c-0.06831,0.00241 -0.13665,0.00374 -0.205,0.004c-2.432,0 -4.403,-1.903 -4.403,-4.252c0,-1.474 0.78,-2.774 1.958,-3.536" data-paper-data="{&quot;origPos&quot;:null}" fill="#be9969"/><path d="M227.31101,144.65c0,0 -0.503,1.803 -2.082,1.446c-0.772,-0.174 -0.908,-1.201 -3.386,-0.74c-0.779,0.18 -2.417,1.156 -2.732,1.808c-0.316,0.652 -0.088,-2.392 2.457,-3.522c1.835,-0.675 2.457,-0.642 3.977,-0.642c1.52,0 1.987,0.907 1.766,1.65M237.05201,144.65c0,0 0.503,1.803 2.082,1.446c0.772,-0.174 0.908,-1.201 3.386,-0.74c0.779,0.18 2.417,1.156 2.732,1.808c0.316,0.652 0.087,-2.392 -2.457,-3.522c-1.835,-0.675 -2.457,-0.642 -3.977,-0.642c-1.52,0 -1.987,0.907 -1.766,1.65" data-paper-data="{&quot;origPos&quot;:null}" fill="#000000"/><path d="M225.00001,152c0,1.657 -0.895,3 -2,3c-1.105,0 -2,-1.343 -2,-3c0,-1.657 0.895,-3 2,-3c1.105,0 2,1.343 2,3M243.00001,152c0,1.657 -0.895,3 -2,3c-1.105,0 -2,-1.343 -2,-3c0,-1.657 0.895,-3 2,-3c1.105,0 2,1.343 2,3" data-paper-data="{&quot;origPos&quot;:null}" fill="#000000"/><path d="M232.02001,155.069c-1.125,0.153 -3.02,1.834 -3.02,1.834c0,0 0.207,-1.009 0.503,-1.299c0.8,-1.156 2.487,-1.604 2.487,-1.604c0,0 2.173,0.703 2.65,1.588c0.443,0.824 0.34,1.238 0.34,1.238c0,0 -2.121,-1.871 -2.96,-1.756z" fill="#eeac6c"/><path d="M225.20001,158.696c0,0 6.897,3.208 13.172,-0.397c0,0 -1.39,5.47 -5.95,5.561c-4.115,0.122 -4.984,-1.492 -5.477,-1.956c-0.492,-0.463 -1.42,-1.772 -1.745,-3.208" fill="#eeac6c"/><path d="M255.19401,143.46c0.036,2.706 -1.164,6.467 -1.164,6.467c0,0 -6.087,-7.241 -9.8,-9.273c-4.54,-2.48 -6.801,1.174 -10.858,-2.04c-0.672,-0.537 -1.926,-1.948 -1.926,-1.948c0,0 -1.524,1.546 -1.93,1.948c-4.558,4.484 -7.979,-0.752 -11.82,1.958c-4.884,3.45 -9.014,9.189 -9.014,9.189c0,0 -1.418,-1.63 -1.222,-6.554c0.058,-1.42 0.739,-4.565 1.855,-7.762c4.034,-8.135 12.393,-13.725 22.05,-13.725c11.095,0 20.475,7.373 23.555,17.506c0.15448,1.40654 0.24591,2.81928 0.274,4.234" data-paper-data="{&quot;origPos&quot;:null}" fill="#000000"/><path d="M241.68001,232.234l0.024,-0.011v0.01h-0.011c1.821,1.166 3.145,3.448 1.586,5.328c-1.18,1.326 -2.912,0.285 -4.23,-0.275c-1.456,-0.693 -3.121,-1.178 -4.44,-2.083c-0.85,-0.6 -1.85,-1.26 -2.424,-2.152c-0.18,-0.275 -0.262,-0.558 -0.198,-0.817l-0.003,-1.751c0,0 0.118,-0.178 0.521,0c0.803,0.356 1.335,1.95 3.05,1.75c4.235,-1.186 6.125,0 6.125,0" fill="#0771b7"/><path d="M241.74701,233.445c0.46599,-0.0003 0.93133,0.0348 1.392,0.105c0.004,0.006 0.006,0.013 0.01,0.017c0.906,1.187 1.216,2.688 0.13,3.995c-1.18,1.324 -2.911,0.285 -4.23,-0.275c-1.009,-0.48 -2.119,-0.862 -3.142,-1.353c1.168,-1.487 3.346,-2.49 5.84,-2.49" fill="#eeeeed"/><path d="M221.03601,232.233c0,0 1.887,-1.186 6.125,0c1.713,0.2 2.247,-1.394 3.048,-1.75c0.403,-0.178 0.52,0 0.52,0v1.751c0.064,0.259 -0.021,0.542 -0.201,0.817c-0.572,0.892 -1.573,1.552 -2.425,2.152c-1.317,0.905 -2.981,1.39 -4.439,2.083c-1.318,0.56 -3.048,1.601 -4.228,0.275c-1.56,-1.88 -0.237,-4.162 1.583,-5.328h-0.007v-0.01l0.024,0.011" fill="#0771b7"/><path d="M220.96501,233.444c2.496,0 4.674,1.003 5.844,2.49c-1.025,0.491 -2.135,0.873 -3.143,1.353c-1.32,0.56 -3.051,1.599 -4.23,0.275c-1.087,-1.307 -0.775,-2.808 0.128,-3.995l0.013,-0.017c0.448,-0.069 0.912,-0.105 1.388,-0.105" fill="#eeeeed"/></g></g></svg>