<svg version="1.1" xmlns="http://www.w3.org/2000/svg" xmlns:xlink="http://www.w3.org/1999/xlink" width="57.02923" height="119.19571" viewBox="0,0,57.02923,119.19571"><g transform="translate(-211.00078,-119.99978)"><g data-paper-data="{&quot;isPaintingLayer&quot;:true}" fill-rule="evenodd" stroke="none" stroke-width="1" stroke-linecap="butt" stroke-linejoin="miter" stroke-miterlimit="10" stroke-dasharray="" stroke-dashoffset="0" style="mix-blend-mode: normal"><path d="M235.123,175.489c0,0 -1.938,3.068 -2.412,4.186c-0.347,0.817 -1.024,3.396 -1.024,3.396c0,0 -8.323,3.376 -10.683,2.523c-2.921,-1.057 -6.275,-10.547 -6.275,-10.547l0.005,-0.002c-1.259,-0.444 -2.475,-1.644 -3.175,-3.294c-1.098,-2.579 -0.526,-5.283 1.275,-6.043c1.172,-0.496 2.579,-0.041 3.72,1.054c0.513,-0.778 1.125,-1.208 1.693,-1.1c1.057,0.206 1.557,2.226 1.107,4.51c-0.168,0.873 -0.449,1.658 -0.792,2.283c-0.04477,0.2765 -0.1137,0.54854 -0.206,0.813h0.002l5.369,6.294zM261.207,181c-1.747,-2.22 -8.035,-5.511 -8.035,-5.511c0,0 2.921,5.315 3.451,7.67c0.073,0.301 0.236,1.101 0.39,1.519c0.189,0.521 0.729,1.182 1.56,2.357c1.66,2.346 3.22,12.265 3.22,12.265c-0.04,0.068 -0.073,0.138 -0.11,0.206c-0.422,0.41 -0.832,0.965 -1.177,1.612c-0.901,1.694 -0.994,3.408 -0.207,3.823c0.42,0.223 1.008,0.029 1.6,-0.46c0.635,1.136 1.638,1.834 2.682,1.725c1.603,-0.17 2.707,-2.167 2.463,-4.467c-0.105,-0.965 -0.43,-1.83 -0.89,-2.493c0.004,0.038 -1.367,-13.675 -4.947,-18.245M254.169,233.426c1.758,1.085 3.04,3.297 1.532,5.099c-1.14,1.273 -2.817,0.261 -4.09,-0.274c-1.407,-0.665 -3.018,-1.135 -4.29,-2.005c-0.825,-0.576 -1.791,-1.192 -2.35,-2.05c-0.17,-0.263 -0.251,-0.514 -0.19,-0.77h0.004v-11.22h9.835l-0.447,11.22h-0.004M243.5,233.426c0.062,0.256 -0.018,0.51 -0.19,0.775c-0.556,0.854 -1.523,1.469 -2.346,2.044c-1.276,0.87 -2.882,1.341 -4.292,2.008c-1.268,0.535 -2.95,1.545 -4.086,0.273c-1.509,-1.803 -0.228,-4.015 1.532,-5.1h-0.01l-0.447,-11.22h9.846v11.22z" data-paper-data="{&quot;origPos&quot;:null}" fill="#ffe299"/><path d="M234.807,238.087c0.882,-0.224 1.854,-0.577 2.812,-1.003c-0.141,-0.525 -0.992,-0.922 -2.04,-1.159c-0.341,0.568 -0.638,1.522 -0.772,2.162M243.515,233.472c0.061,0.255 -0.075,0.514 -0.245,0.781c-0.558,0.853 -1.573,1.478 -2.394,2.053c-0.826,0.564 -1.793,0.958 -2.753,1.347l-0.364,0.149c-0.39687,0.15968 -0.78935,0.33007 -1.177,0.511c-1.271,0.535 -2.95,1.535 -4.09,0.268c-0.015,-0.025 -0.233,-0.295 -0.288,-0.41c0.495,0.217 1.244,0.199 2.12,0.025c0.059,-0.802 0.272,-1.791 0.551,-2.407c-1.001,-0.156 -2.069,-0.184 -2.827,-0.069c0.19403,-0.47625 0.47288,-0.91333 0.823,-1.29c4.941,-0.579 5.984,1.764 6.084,2.013c2.019,-1.053 3.669,-2.269 3.699,-2.97c0,0 0.595,-0.829 0.847,-0.716l0.013,0.716" fill="#7f4712"/><path d="M250.614,237.079c0.8753,0.39591 1.78044,0.72225 2.707,0.976c-0.133,-0.637 -0.424,-1.556 -0.753,-2.117c-1.008,0.244 -1.815,0.627 -1.954,1.141M253.81,238.168c0.916,0.195 1.703,0.222 2.22,-0.003c-0.054,0.116 -0.27,0.385 -0.29,0.41c-1.139,1.271 -2.813,0.268 -4.09,-0.266c-0.50591,-0.23663 -1.01952,-0.45641 -1.54,-0.659c-0.959,-0.392 -1.924,-0.786 -2.752,-1.35c-0.822,-0.573 -1.788,-1.2 -2.346,-2.054c-0.17,-0.265 -0.293,-0.579 -0.23,-0.835v-0.686c0.236,-0.109 0.783,0.686 0.783,0.686c0.027,0.699 1.693,1.972 3.715,3.023c0.097,-0.247 1.144,-2.591 6.081,-2.013c0.35004,0.37844 0.62976,0.8163 0.826,1.293c-0.785,-0.118 -1.897,-0.084 -2.922,0.086c0.272,0.606 0.485,1.575 0.544,2.368" fill="#7f4712"/><path d="M256.347,207.924l-1.918,25.567h-9.712l-0.37,-18.49h-0.281l-0.373,18.489h-9.712l-1.917,-25.566zM261.471,198.739c0,0 -1.264,-9.474 -2.928,-11.82l-0.242,-0.35c0.953,5.633 1.279,11.964 1.386,16.231c0.011,0.419 0.018,0.727 0.025,1.105h-31.059c0,-0.181 0.005,-0.604 0.012,-0.794c0.092,-5.097 0.49,-13.363 1.96,-19.698c-0.574,0.26 -7.364,2.941 -9.621,2.121c-2.921,-1.057 -7.23,-10.077 -7.23,-10.077l4.667,-2.29l5.417,6.274l10.327,-4.03c2.035,-1.329 8.215,-1.544 8.215,-1.544l1.718,0.052h0.141l1.717,-0.053c0,0 6.154,0.202 8.204,1.52c0.826,0.455 5.414,3.034 7,5.054c3.58,4.57 5.147,18.303 5.147,18.303l-4.857,-0.004" fill="#e8cb2f"/><path d="M255.201,192.618l-3.113,0.578l-3.02,-0.578v-6.946h6.132z" fill="#d9bf27"/><path d="M228.582,203.65c5.172,1.134 25.747,1.064 31.123,0c-0.041,3.57 -0.063,23.402 -0.063,23.402l-23.98,0.765l-0.104,-0.765h-6.976c0,0 0.057,-19.832 0,-23.402" fill="#222a1d"/><path d="M232.966,204.165v22.886h-2.623l1.296,-0.299l-1.936,-0.446l1.936,-0.448l-1.936,-0.444l1.936,-0.448l-1.936,-0.446l1.936,-0.446l-1.936,-0.444l1.936,-0.449l-1.936,-0.446l1.936,-0.446l-1.936,-0.446l1.936,-0.448l-1.936,-0.446l1.936,-0.446l-1.936,-0.446l1.936,-0.446l-1.936,-0.446l1.936,-0.444l-1.936,-0.451l1.936,-0.446l-1.936,-0.446l1.936,-0.443l-1.936,-0.449l1.936,-0.446l-1.936,-0.446l1.936,-0.446l-1.936,-0.448l1.936,-0.446l-1.936,-0.446l1.936,-0.446l-1.936,-0.446l1.936,-0.446l-1.936,-0.444l1.936,-0.448l-1.936,-0.446l1.936,-0.449l-1.936,-0.443l1.936,-0.449l-1.936,-0.446l1.936,-0.446l-1.936,-0.446l1.936,-0.446l-1.936,-0.448l1.936,-0.446l-1.936,-0.446l1.936,-0.446l-1.936,-0.446l1.936,-0.444l-1.936,-0.448l3.143,-0.725z" fill="#7f7f4e"/><path d="M231.865,204.883l-0.313,0.446l0.313,0.446l-0.313,0.446l0.313,0.446l-0.313,0.444l0.313,0.448l-0.313,0.449l0.313,0.446l-0.313,0.446l0.313,0.446l-0.313,0.446l0.313,0.446l-0.313,0.446l0.313,0.448l-0.313,0.446l0.313,0.446l-0.313,0.446l0.313,0.446l-0.313,0.446l0.313,0.444l-0.313,0.448l0.313,0.446l-0.313,0.449l0.313,0.446l-0.313,0.446l0.313,0.446l-0.313,0.446l0.313,0.446l-0.313,0.446l0.313,0.446l-0.313,0.448l0.313,0.446l-0.313,0.446l0.313,0.446l-0.313,0.446l0.313,0.446l-0.313,0.446l0.313,0.447l-0.313,0.448l0.313,0.446l-0.313,0.446l0.313,0.446l-0.313,0.446l0.313,0.446l-0.313,0.446l0.313,0.446l-0.313,0.446l0.313,0.448l-0.313,0.446l0.209,0.299h-0.08l-0.195,-0.28l0.023,-0.019l-0.023,-0.02l0.302,-0.426l-0.302,-0.428l0.023,-0.02l-0.023,-0.016l0.302,-0.43l-0.302,-0.428l0.023,-0.018l-0.023,-0.018l0.302,-0.428l-0.302,-0.428l0.023,-0.018l-0.023,-0.018l0.302,-0.428l-0.302,-0.428l0.023,-0.018l-0.023,-0.02l0.302,-0.426l-0.302,-0.43l0.023,-0.016l-0.023,-0.018l0.302,-0.43l-0.302,-0.428l0.023,-0.019l-0.023,-0.02l0.302,-0.426l-0.302,-0.427l0.023,-0.019l-0.023,-0.018l0.302,-0.428l-0.302,-0.426l0.023,-0.02l-0.023,-0.018l0.302,-0.428l-0.302,-0.43l0.023,-0.016l-0.023,-0.018l0.302,-0.43l-0.302,-0.426l0.023,-0.02l-0.023,-0.018l0.302,-0.428l-0.302,-0.428l0.023,-0.018l-0.023,-0.018l0.302,-0.428l-0.302,-0.426l0.023,-0.02l-0.023,-0.018l0.302,-0.428l-0.302,-0.43l0.023,-0.017l-0.023,-0.02l0.302,-0.428l-0.302,-0.426l0.023,-0.02l-0.023,-0.016l0.302,-0.432l-0.302,-0.426l0.023,-0.018l-0.023,-0.02l0.302,-0.426l-0.302,-0.428l0.023,-0.018l-0.023,-0.018l0.302,-0.428l-0.302,-0.43l0.023,-0.016l-0.023,-0.02l0.302,-0.426l-0.302,-0.43l0.023,-0.018l-0.023,-0.016l0.302,-0.43l-0.302,-0.428l0.023,-0.019l-0.023,-0.02l0.302,-0.425l-0.302,-0.428l0.023,-0.018l-0.023,-0.018l0.302,-0.429l-0.302,-0.43l0.023,-0.016l-0.023,-0.02l0.302,-0.428l-0.302,-0.428l0.023,-0.02l-0.023,-0.014l0.302,-0.43l-0.302,-0.428l0.023,-0.018l-0.023,-0.02l0.302,-0.426l-0.302,-0.428l0.023,-0.018l-0.023,-0.018l0.302,-0.428l-0.302,-0.428l0.052,-0.036zM232.795,204.154l0.079,0.006l-0.233,0.277l0.376,0.446l-0.376,0.448l0.376,0.444l-0.376,0.446l0.376,0.446l-0.376,0.446l0.376,0.446l-0.376,0.448l0.376,0.446l-0.376,0.446l0.376,0.446l-0.376,0.446l0.376,0.449l-0.376,0.443l0.376,0.449l-0.376,0.446l0.376,0.448l-0.376,0.444l0.376,0.446l-0.376,0.446l0.376,0.446l-0.376,0.446l0.376,0.446l-0.376,0.448l0.376,0.446l-0.376,0.446l0.376,0.446l-0.376,0.449l0.376,0.443l-0.376,0.446l0.376,0.447l-0.376,0.45l0.376,0.444l-0.376,0.446l0.376,0.446l-0.376,0.446l0.376,0.446l-0.376,0.446l0.376,0.446l-0.376,0.448l0.376,0.446l-0.376,0.446l0.376,0.449l-0.376,0.444l0.376,0.446l-0.376,0.446l0.376,0.448l-0.376,0.444l0.376,0.448l-0.376,0.446l0.254,0.299h-0.084l-0.238,-0.279l0.025,-0.02l-0.025,-0.02l0.363,-0.426l-0.363,-0.426l0.025,-0.022l-0.025,-0.018l0.363,-0.426l-0.363,-0.428l0.025,-0.02l-0.025,-0.019l0.363,-0.427l-0.363,-0.424l0.025,-0.023l-0.025,-0.02l0.363,-0.423l-0.363,-0.429l0.025,-0.02l-0.025,-0.02l0.363,-0.426l-0.363,-0.426l0.025,-0.02l-0.025,-0.02l0.363,-0.428l-0.363,-0.426l0.025,-0.02l-0.025,-0.02l0.363,-0.426l-0.363,-0.426l0.025,-0.02l-0.025,-0.02l0.363,-0.426l-0.363,-0.423l0.025,-0.023l-0.025,-0.023l0.363,-0.423l-0.363,-0.428l0.025,-0.016l-0.025,-0.023l0.363,-0.428l-0.363,-0.423l0.025,-0.023l-0.025,-0.018l0.363,-0.428l-0.363,-0.425l0.025,-0.018l-0.025,-0.023l0.363,-0.426l-0.363,-0.423l0.025,-0.023l-0.025,-0.02l0.363,-0.426l-0.363,-0.428l0.025,-0.018l-0.025,-0.02l0.363,-0.428l-0.363,-0.423l0.025,-0.023l-0.025,-0.018l0.363,-0.428l-0.363,-0.426l0.025,-0.021l-0.025,-0.02l0.363,-0.425l-0.363,-0.424l0.025,-0.023l-0.025,-0.02l0.363,-0.423l-0.363,-0.43l0.025,-0.019l-0.025,-0.02l0.363,-0.425l-0.363,-0.426l0.025,-0.023l-0.025,-0.018l0.363,-0.425l-0.363,-0.429l0.025,-0.02l-0.025,-0.022l0.363,-0.424l-0.363,-0.426l0.025,-0.02l-0.025,-0.02l0.363,-0.426l-0.363,-0.428l0.025,-0.018l-0.025,-0.023l0.363,-0.425l-0.363,-0.426l0.025,-0.02l-0.025,-0.018l0.363,-0.428l-0.363,-0.424l0.025,-0.022l-0.025,-0.023l0.363,-0.423l-0.363,-0.426l0.025,-0.018l-0.025,-0.023l0.363,-0.425l-0.363,-0.427l0.025,-0.02l-0.025,-0.02l0.222,-0.262M230.509,204.604l0.345,0.28l-0.345,0.279l-0.039,-0.05l0.284,-0.229l-0.284,-0.231zM230.509,205.496l0.345,0.28l-0.345,0.28l-0.039,-0.052l0.284,-0.229l-0.284,-0.231zM230.509,206.388l0.345,0.281l-0.345,0.278l-0.039,-0.049l0.284,-0.23l-0.284,-0.23zM230.509,207.281l0.345,0.279l-0.345,0.283l-0.039,-0.052l0.284,-0.232l-0.284,-0.23zM230.509,208.175l0.345,0.28l-0.345,0.279l-0.039,-0.05l0.284,-0.229l-0.284,-0.231zM230.509,209.068l0.345,0.278l-0.345,0.279l-0.039,-0.05l0.284,-0.229l-0.284,-0.231zM230.509,209.959l0.345,0.281l-0.345,0.278l-0.039,-0.049l0.284,-0.23l-0.284,-0.23zM230.509,210.852l0.345,0.281l-0.345,0.278l-0.039,-0.05l0.284,-0.228l-0.284,-0.233zM230.509,211.746l0.345,0.28l-0.345,0.279l-0.039,-0.05l0.284,-0.229l-0.284,-0.231zM230.509,212.639l0.345,0.278l-0.345,0.279l-0.039,-0.05l0.284,-0.229l-0.284,-0.231zM230.509,213.529l0.345,0.28l-0.345,0.28l-0.039,-0.05l0.284,-0.231l-0.284,-0.231zM230.509,214.423l0.345,0.279l-0.345,0.28l-0.039,-0.05l0.284,-0.23l-0.284,-0.232zM230.509,215.316l0.345,0.279l-0.345,0.28l-0.039,-0.051l0.284,-0.23l-0.284,-0.23zM230.509,216.209l0.345,0.278l-0.345,0.28l-0.039,-0.05l0.284,-0.23l-0.284,-0.23zM230.509,217.1l0.345,0.28l-0.345,0.28l-0.039,-0.052l0.284,-0.229l-0.284,-0.231zM230.509,217.992l0.345,0.281l-0.345,0.28l-0.039,-0.052l0.284,-0.229l-0.284,-0.231zM230.509,218.885l0.345,0.281l-0.345,0.28l-0.039,-0.051l0.284,-0.23l-0.284,-0.23zM230.509,219.778l0.345,0.28l-0.345,0.28l-0.039,-0.05l0.284,-0.23l-0.284,-0.23zM230.509,220.671l0.345,0.279l-0.345,0.281l-0.039,-0.052l0.284,-0.23l-0.284,-0.23zM230.509,221.563l0.345,0.281l-0.345,0.28l-0.039,-0.05l0.284,-0.231l-0.284,-0.231zM230.509,222.458l0.345,0.279l-0.345,0.28l-0.039,-0.051l0.284,-0.23l-0.284,-0.23zM230.509,223.349l0.345,0.28l-0.345,0.28l-0.039,-0.05l0.284,-0.23l-0.284,-0.23zM230.509,224.242l0.345,0.278l-0.345,0.28l-0.039,-0.05l0.284,-0.23l-0.284,-0.23zM230.509,225.134l0.345,0.281l-0.345,0.28l-0.039,-0.05l0.284,-0.231l-0.284,-0.233zM230.509,226.029l0.345,0.279l-0.345,0.278l-0.039,-0.049l0.284,-0.23l-0.284,-0.23zM230.509,226.92l0.165,0.131h-0.104l-0.1,-0.083z" fill="#222a1d"/><path d="M233.411,204.196v22.856h-0.193v-22.87c0.064,0.007 0.129,0.009 0.192,0.014zM236.287,205.33l-1.407,0.43l-1.407,-0.43l1.407,-0.5zM236.287,206.286l-1.407,0.432l-1.407,-0.432l1.407,-0.496zM236.288,204.371l-1.407,0.435l-1.407,-0.435l0.417,-0.145c0.76357,0.04484 1.52762,0.08117 2.292,0.109zM236.287,208.198l-1.407,0.433l-1.407,-0.433l1.407,-0.496zM236.287,209.153l-1.407,0.435l-1.407,-0.435l1.407,-0.495zM236.287,207.243l-1.407,0.43l-1.407,-0.43l1.407,-0.498zM236.287,210.111l-1.407,0.432l-1.407,-0.432l1.407,-0.498zM236.287,211.066l-1.407,0.435l-1.407,-0.435l1.407,-0.496zM236.287,212.981l-1.407,0.432l-1.407,-0.432l1.407,-0.496zM236.287,213.938l-1.407,0.43l-1.407,-0.43l1.407,-0.498zM236.287,212.025l-1.407,0.43l-1.407,-0.43l1.407,-0.5zM236.287,214.894l-1.407,0.43l-1.407,-0.43l1.407,-0.499zM236.287,215.849l-1.407,0.434l-1.407,-0.434l1.407,-0.496zM236.287,217.761l-1.407,0.433l-1.407,-0.433l1.407,-0.496zM236.287,218.721l-1.407,0.43l-1.407,-0.431l1.407,-0.5zM236.287,216.806l-1.407,0.432l-1.407,-0.432l1.407,-0.498zM236.287,219.676l-1.407,0.43l-1.407,-0.43l1.407,-0.496zM236.287,220.631l-1.407,0.433l-1.407,-0.433l1.407,-0.496zM236.287,222.544l-1.407,0.435l-1.407,-0.435l1.407,-0.496zM236.287,223.501l-1.407,0.433l-1.407,-0.433l1.407,-0.498zM236.287,221.589l-1.407,0.43l-1.407,-0.43l1.407,-0.499zM236.287,224.456l-1.407,0.433l-1.407,-0.433l1.407,-0.496zM236.287,225.414l-1.407,0.432l-1.407,-0.432l1.407,-0.496zM235.504,227.052h-1.25l0.626,-0.222zM235.623,227.53l-0.059,-0.46l0.723,0.256zM236.287,226.371l-1.407,0.43l-1.407,-0.43l1.407,-0.498z" fill="#7f7f4e"/><path d="M259.705,203.65c-0.041,3.57 -0.064,23.402 -0.064,23.402l-23.979,0.765l-0.036,-0.272l-2.617,-23.377c8.04,0.555 22.346,0.342 26.696,-0.518" fill="#222a1d"/><path d="M235.567,227.825l-2.585,-23.642l0.198,0.064l2.58,23.556z" fill="#9cbe85"/><path d="M242.676,227.592l-2.818,0.089l-0.447,-0.1l1.94,-0.448l-1.94,-0.446l1.94,-0.446l-1.94,-0.446l1.94,-0.446l-1.94,-0.446l1.94,-0.446l-1.94,-0.449l1.94,-0.446l-1.94,-0.446l1.94,-0.446l-1.94,-0.446l1.94,-0.446l-1.94,-0.446l1.94,-0.446l-1.94,-0.448l1.94,-0.446l-1.94,-0.446l1.94,-0.446l-1.94,-0.446l1.94,-0.446l-1.94,-0.446l1.94,-0.447l-1.94,-0.448l1.94,-0.446l-1.94,-0.446l1.94,-0.446l-1.94,-0.446l1.94,-0.446l-1.94,-0.446l1.94,-0.446l-1.94,-0.448l1.94,-0.446l-1.94,-0.446l1.94,-0.447l-1.94,-0.446l1.94,-0.446l-1.94,-0.446l1.94,-0.448l-1.94,-0.444l1.94,-0.45l-1.94,-0.444l1.94,-0.446l-1.94,-0.446l1.94,-0.446l-1.94,-0.446l1.94,-0.446l-1.936,-0.449l1.936,-0.446l-1.935,-0.446l3.26,-0.751v22.926z" fill="#7f7f4e"/><path d="M241.458,227.631l0.036,-0.05l-0.297,-0.43l0.023,-0.019l-0.023,-0.02l0.297,-0.425l-0.297,-0.426l0.023,-0.02l-0.023,-0.018l0.297,-0.428l-0.297,-0.428l0.023,-0.019l-0.023,-0.02l0.297,-0.426l-0.297,-0.43l0.023,-0.015l-0.023,-0.019l0.297,-0.43l-0.297,-0.428l0.023,-0.018l-0.023,-0.02l0.297,-0.426l-0.297,-0.428l0.023,-0.018l-0.023,-0.018l0.297,-0.428l-0.297,-0.428l0.023,-0.018l-0.023,-0.018l0.297,-0.428l-0.297,-0.43l0.023,-0.016l-0.023,-0.018l0.297,-0.43l-0.297,-0.426l0.023,-0.02l-0.023,-0.018l0.297,-0.428l-0.297,-0.428l0.023,-0.018l-0.023,-0.018l0.297,-0.428l-0.297,-0.428l0.023,-0.018l-0.023,-0.019l0.297,-0.428l-0.297,-0.43l0.023,-0.016l-0.023,-0.018l0.297,-0.43l-0.297,-0.426l0.023,-0.02l-0.023,-0.016l0.297,-0.43l-0.297,-0.428l0.023,-0.018l-0.023,-0.02l0.297,-0.426l-0.297,-0.426l0.023,-0.02l-0.023,-0.018l0.297,-0.428l-0.297,-0.43l0.023,-0.016l-0.023,-0.02l0.297,-0.428l-0.297,-0.428l0.023,-0.018l-0.023,-0.016l0.297,-0.43l-0.297,-0.428l0.023,-0.019l-0.023,-0.02l0.297,-0.426l-0.297,-0.427l0.023,-0.019l-0.023,-0.018l0.297,-0.428l-0.297,-0.43l0.023,-0.018l-0.023,-0.018l0.297,-0.426l-0.297,-0.43l0.023,-0.018l-0.023,-0.018l0.297,-0.428l-0.297,-0.428l0.023,-0.018l-0.023,-0.02l0.297,-0.426l-0.297,-0.428l0.023,-0.018l-0.023,-0.018l0.297,-0.428l-0.297,-0.43l0.023,-0.016l-0.023,-0.019l0.297,-0.43l-0.297,-0.427l0.023,-0.019l-0.023,-0.018l0.297,-0.428l-0.297,-0.425l0.05,-0.039l0.327,0.464l-0.314,0.446l0.314,0.446l-0.314,0.449l0.314,0.446l-0.314,0.446l0.314,0.446l-0.314,0.446l0.314,0.446l-0.314,0.446l0.314,0.448l-0.314,0.444l0.314,0.448l-0.314,0.446l0.314,0.446l-0.314,0.446l0.314,0.447l-0.314,0.446l0.314,0.446l-0.314,0.448l0.314,0.446l-0.314,0.446l0.314,0.446l-0.314,0.446l0.314,0.446l-0.314,0.446l0.314,0.446l-0.314,0.448l0.314,0.447l-0.314,0.446l0.314,0.446l-0.314,0.446l0.314,0.446l-0.314,0.446l0.314,0.446l-0.314,0.448l0.314,0.446l-0.314,0.446l0.314,0.446l-0.314,0.446l0.314,0.446l-0.314,0.446l0.314,0.446l-0.314,0.449l0.314,0.446l-0.314,0.446l0.314,0.446l-0.314,0.446l0.314,0.446l-0.314,0.446l0.314,0.448l-0.037,0.048zM242.63,227.593l0.016,-0.011l-0.363,-0.428l0.02,-0.021l-0.02,-0.02l0.363,-0.425l-0.363,-0.426l0.02,-0.023l-0.02,-0.018l0.363,-0.425l-0.363,-0.428l0.02,-0.018l-0.02,-0.023l0.363,-0.423l-0.363,-0.429l0.02,-0.02l-0.02,-0.02l0.363,-0.426l-0.363,-0.428l0.02,-0.018l-0.02,-0.02l0.363,-0.428l-0.363,-0.424l0.02,-0.023l-0.02,-0.02l0.363,-0.423l-0.363,-0.426l0.02,-0.02l-0.02,-0.023l0.363,-0.425l-0.363,-0.426l0.02,-0.018l-0.02,-0.023l0.363,-0.425l-0.363,-0.426l0.02,-0.02l-0.02,-0.019l0.363,-0.43l-0.363,-0.423l0.02,-0.02l-0.02,-0.023l0.363,-0.424l-0.363,-0.425l0.02,-0.023l-0.02,-0.018l0.363,-0.428l-0.363,-0.426l0.02,-0.018l-0.02,-0.022l0.363,-0.426l-0.363,-0.426l0.02,-0.022l-0.02,-0.018l0.363,-0.428l-0.363,-0.424l0.02,-0.02l-0.02,-0.023l0.363,-0.423l-0.363,-0.426l0.02,-0.022l-0.02,-0.018l0.363,-0.426l-0.363,-0.428l0.02,-0.018l-0.02,-0.023l0.363,-0.425l-0.363,-0.426l0.02,-0.023l-0.02,-0.018l0.363,-0.426l-0.363,-0.427l0.02,-0.019l-0.02,-0.022l0.363,-0.426l-0.363,-0.426l0.02,-0.02l-0.02,-0.02l0.363,-0.424l-0.363,-0.43l0.02,-0.018l-0.02,-0.02l0.363,-0.426l-0.363,-0.426l0.02,-0.022l-0.02,-0.018l0.363,-0.426l-0.363,-0.426l0.02,-0.02l-0.02,-0.023l0.363,-0.425l-0.363,-0.424l0.02,-0.02l-0.02,-0.023l0.363,-0.423l-0.363,-0.429l0.02,-0.02l-0.02,-0.02l0.363,-0.428l-0.363,-0.424l0.02,-0.02l-0.02,-0.02l0.363,-0.426l-0.363,-0.425l0.02,-0.023l-0.02,-0.018l0.277,-0.326h0.081l-0.292,0.344l0.376,0.448l-0.376,0.446l0.376,0.444l-0.376,0.448l0.376,0.449l-0.376,0.446l0.376,0.444l-0.376,0.448l0.376,0.446l-0.376,0.444l0.376,0.448l-0.376,0.446l0.376,0.448l-0.376,0.444l0.376,0.446l-0.376,0.448l0.376,0.446l-0.376,0.444l0.376,0.449l-0.376,0.448l0.376,0.446l-0.376,0.444l0.376,0.448l-0.376,0.446l0.376,0.444l-0.376,0.446l0.376,0.448l-0.376,0.448l0.376,0.444l-0.376,0.446l0.376,0.448l-0.376,0.447l0.376,0.443l-0.376,0.449l0.376,0.446l-0.376,0.448l0.376,0.444l-0.376,0.448l0.376,0.446l-0.376,0.444l0.376,0.446l-0.376,0.448l0.376,0.446l-0.376,0.446l0.376,0.449l-0.376,0.446l0.376,0.446l-0.376,0.443l0.376,0.449l-0.376,0.446l0.376,0.448l-0.005,0.009zM240.22,204.984l0.345,0.281l-0.346,0.278l-0.04,-0.049l0.281,-0.23l-0.281,-0.23zM240.22,205.877l0.345,0.279l-0.346,0.283l-0.04,-0.052l0.281,-0.232l-0.281,-0.23zM240.22,206.768l0.345,0.283l-0.346,0.279l-0.04,-0.05l0.281,-0.229l-0.281,-0.231zM240.22,207.663l0.345,0.28l-0.346,0.28l-0.04,-0.052l0.281,-0.229l-0.281,-0.231zM240.22,208.555l0.345,0.281l-0.346,0.278l-0.04,-0.049l0.281,-0.23l-0.281,-0.23zM240.22,209.448l0.345,0.281l-0.346,0.281l-0.04,-0.053l0.281,-0.228l-0.281,-0.233zM240.22,210.342l0.345,0.28l-0.346,0.279l-0.04,-0.05l0.281,-0.229l-0.281,-0.231zM240.22,211.235l0.345,0.278l-0.346,0.279l-0.04,-0.05l0.281,-0.229l-0.281,-0.231zM240.22,212.126l0.345,0.28l-0.346,0.279l-0.04,-0.05l0.281,-0.229l-0.281,-0.231zM240.22,213.019l0.345,0.279l-0.346,0.28l-0.04,-0.05l0.281,-0.231l-0.281,-0.23zM240.22,213.913l0.345,0.28l-0.346,0.279l-0.04,-0.05l0.281,-0.229l-0.281,-0.233zM240.22,214.805l0.345,0.278l-0.346,0.28l-0.04,-0.05l0.281,-0.23l-0.281,-0.23zM240.22,215.696l0.345,0.28l-0.346,0.28l-0.04,-0.052l0.281,-0.229l-0.281,-0.231zM240.22,216.589l0.345,0.28l-0.346,0.28l-0.04,-0.052l0.281,-0.229l-0.281,-0.231zM240.22,217.483l0.345,0.279l-0.346,0.28l-0.04,-0.052l0.281,-0.228l-0.281,-0.232zM240.22,218.376l0.345,0.278l-0.346,0.28l-0.04,-0.05l0.281,-0.23l-0.281,-0.23zM240.22,219.267l0.345,0.279l-0.346,0.281l-0.04,-0.052l0.281,-0.23l-0.281,-0.23zM240.22,220.159l0.345,0.28l-0.346,0.279l-0.04,-0.048l0.281,-0.231l-0.281,-0.231zM240.22,221.054l0.345,0.279l-0.346,0.28l-0.04,-0.051l0.281,-0.23l-0.281,-0.23zM240.22,221.945l0.345,0.28l-0.346,0.28l-0.04,-0.05l0.281,-0.23l-0.281,-0.23zM240.22,222.838l0.345,0.279l-0.346,0.281l-0.04,-0.052l0.281,-0.23l-0.281,-0.23zM240.22,223.729l0.345,0.282l-0.346,0.28l-0.04,-0.05l0.281,-0.231l-0.281,-0.23zM240.22,224.623l0.345,0.28l-0.346,0.279l-0.04,-0.05l0.281,-0.229l-0.281,-0.231zM240.22,225.516l0.345,0.28l-0.346,0.28l-0.04,-0.05l0.281,-0.23l-0.281,-0.23zM240.22,226.409l0.345,0.278l-0.346,0.28l-0.04,-0.05l0.281,-0.23l-0.281,-0.23zM240.358,227.666l0.102,-0.084l-0.281,-0.235l0.041,-0.048l0.345,0.283l-0.105,0.082z" fill="#222a1d"/><path d="M249.769,205.263l-1.934,0.446l1.934,0.446l-1.934,0.449l1.934,0.446l-1.934,0.446l1.934,0.446l-1.934,0.446l1.934,0.446l-1.934,0.444l1.934,0.45l-1.934,0.444l1.934,0.448l-1.934,0.446l1.934,0.446l-1.934,0.446l1.934,0.447l-1.934,0.446l1.934,0.446l-1.934,0.448l1.934,0.446l-1.934,0.446l1.934,0.446l-1.934,0.446l1.934,0.444l-1.934,0.448l1.934,0.446l-1.934,0.448l1.934,0.447l-1.934,0.446l1.934,0.446l-1.934,0.446l1.934,0.446l-1.934,0.446l1.934,0.446l-1.934,0.448l1.934,0.446l-1.934,0.446l1.934,0.446l-1.934,0.446l1.934,0.446l-1.934,0.446l1.934,0.446l-1.934,0.449l1.934,0.446l-1.934,0.446l1.934,0.446l-1.938,0.446l1.938,0.446l-1.938,0.446l1.118,0.257l-2.437,0.08v-22.958z" fill="#7f7f4e"/><path d="M247.985,204.838l-0.297,0.425l0.297,0.428l-0.023,0.018l0.023,0.019l-0.297,0.428l0.297,0.43l-0.023,0.018l0.023,0.016l-0.297,0.43l0.297,0.428l-0.023,0.018l0.023,0.018l-0.297,0.428l0.297,0.426l-0.023,0.02l0.023,0.018l-0.297,0.428l0.297,0.428l-0.023,0.018l0.023,0.018l-0.297,0.43l0.297,0.426l-0.023,0.018l0.023,0.018l-0.297,0.43l0.297,0.428l-0.023,0.018l0.023,0.019l-0.297,0.427l0.297,0.426l-0.023,0.02l0.023,0.019l-0.297,0.428l0.297,0.43l-0.023,0.016l0.023,0.018l-0.297,0.428l0.297,0.428l-0.023,0.02l0.023,0.016l-0.297,0.43l0.297,0.428l-0.023,0.018l0.023,0.02l-0.297,0.426l0.297,0.426l-0.023,0.02l0.023,0.018l-0.297,0.428l0.297,0.43l-0.023,0.017l0.023,0.02l-0.297,0.425l0.297,0.43l-0.023,0.018l0.023,0.017l-0.297,0.43l0.297,0.427l-0.023,0.019l0.023,0.018l-0.297,0.428l0.297,0.428l-0.023,0.018l0.023,0.018l-0.297,0.428l0.297,0.428l-0.023,0.018l0.023,0.02l-0.297,0.426l0.297,0.43l-0.023,0.018l0.023,0.016l-0.297,0.43l0.297,0.428l-0.023,0.018l0.023,0.018l-0.297,0.428l0.297,0.428l-0.023,0.018l0.023,0.018l-0.297,0.428l0.297,0.426l-0.023,0.02l0.023,0.018l-0.297,0.428l0.297,0.43l-0.023,0.019l0.023,0.016l-0.297,0.43l0.297,0.426l-0.023,0.02l0.023,0.018l-0.297,0.428l0.297,0.428l-0.023,0.018l0.023,0.02l-0.297,0.426l0.297,0.426l-0.023,0.02l0.023,0.018l-0.193,0.278l-0.082,0.003l0.212,-0.299l-0.314,-0.446l0.314,-0.446l-0.314,-0.446l0.314,-0.446l-0.314,-0.446l0.314,-0.446l-0.314,-0.449l0.314,-0.446l-0.314,-0.446l0.314,-0.446l-0.314,-0.446l0.314,-0.446l-0.314,-0.446l0.314,-0.446l-0.314,-0.448l0.314,-0.446l-0.314,-0.446l0.314,-0.446l-0.314,-0.446l0.314,-0.446l-0.314,-0.446l0.314,-0.447l-0.314,-0.448l0.314,-0.446l-0.314,-0.446l0.314,-0.446l-0.314,-0.446l0.314,-0.446l-0.314,-0.446l0.314,-0.446l-0.314,-0.448l0.314,-0.446l-0.314,-0.446l0.314,-0.447l-0.314,-0.446l0.314,-0.446l-0.314,-0.446l0.314,-0.448l-0.314,-0.444l0.314,-0.448l-0.314,-0.446l0.314,-0.446l-0.314,-0.446l0.314,-0.446l-0.314,-0.446l0.314,-0.446l-0.314,-0.449l0.314,-0.446l-0.314,-0.446l0.325,-0.463zM246.525,204.459c0.03,-0.002 0.059,-0.002 0.086,-0.002l0.286,0.34l-0.023,0.02l0.023,0.023l-0.36,0.423l0.36,0.428l-0.023,0.02l0.023,0.018l-0.36,0.426l0.36,0.426l-0.023,0.023l0.023,0.02l-0.36,0.425l0.36,0.426l-0.023,0.023l0.023,0.018l-0.36,0.425l0.36,0.424l-0.023,0.022l0.023,0.023l-0.36,0.424l0.36,0.427l-0.023,0.019l0.023,0.02l-0.36,0.428l0.36,0.424l-0.023,0.02l0.023,0.02l-0.36,0.428l0.36,0.426l-0.023,0.02l0.023,0.02l-0.36,0.426l0.36,0.426l-0.023,0.02l0.023,0.02l-0.36,0.428l0.36,0.426l-0.023,0.018l0.023,0.023l-0.36,0.423l0.36,0.428l-0.023,0.02l0.023,0.019l-0.36,0.43l0.36,0.424l-0.023,0.02l0.023,0.022l-0.36,0.424l0.36,0.426l-0.023,0.02l0.023,0.02l-0.36,0.426l0.36,0.426l-0.023,0.02l0.023,0.022l-0.36,0.424l0.36,0.428l-0.023,0.022l0.023,0.016l-0.36,0.428l0.36,0.426l-0.023,0.02l0.023,0.023l-0.36,0.423l0.36,0.426l-0.023,0.022l0.023,0.019l-0.36,0.425l0.36,0.428l-0.023,0.018l0.023,0.023l-0.36,0.423l0.36,0.428l-0.023,0.023l0.023,0.016l-0.36,0.428l0.36,0.423l-0.023,0.023l0.023,0.022l-0.36,0.424l0.36,0.426l-0.023,0.02l0.023,0.022l-0.36,0.424l0.36,0.428l-0.023,0.018l0.023,0.02l-0.36,0.428l0.36,0.426l-0.023,0.021l0.023,0.02l-0.36,0.425l0.36,0.426l-0.023,0.02l0.023,0.019l-0.36,0.43l0.36,0.423l-0.023,0.02l0.023,0.023l-0.36,0.423l0.36,0.428l-0.023,0.019l0.023,0.02l-0.263,0.314l-0.084,0.003l0.281,-0.338l-0.374,-0.446l0.374,-0.446l-0.374,-0.443l0.374,-0.449l-0.374,-0.446l0.374,-0.446l-0.374,-0.446l0.374,-0.448l-0.374,-0.446l0.374,-0.446l-0.374,-0.446l0.374,-0.446l-0.374,-0.446l0.374,-0.445l-0.374,-0.45l0.374,-0.446l-0.374,-0.446l0.374,-0.444l-0.374,-0.448l0.374,-0.446l-0.374,-0.446l0.374,-0.444l-0.374,-0.45l0.374,-0.446l-0.374,-0.446l0.374,-0.446l-0.374,-0.446l0.374,-0.446l-0.374,-0.444l0.374,-0.449l-0.374,-0.448l0.374,-0.446l-0.374,-0.444l0.374,-0.448l-0.374,-0.446l0.374,-0.446l-0.374,-0.446l0.374,-0.448l-0.374,-0.444l0.374,-0.448l-0.374,-0.446l0.374,-0.447l-0.374,-0.446l0.374,-0.443l-0.374,-0.449l0.374,-0.446l-0.374,-0.448l0.374,-0.444l-0.374,-0.448l0.374,-0.446zM248.962,204.984l-0.342,0.281l0.343,0.278l0.04,-0.049l-0.284,-0.23l0.284,-0.23zM248.962,205.877l-0.342,0.279l0.343,0.283l0.04,-0.052l-0.284,-0.232l0.284,-0.23zM248.962,206.768l-0.342,0.283l0.343,0.279l0.04,-0.05l-0.284,-0.229l0.284,-0.231zM248.962,207.663l-0.342,0.28l0.343,0.28l0.04,-0.052l-0.284,-0.229l0.284,-0.231zM248.962,208.555l-0.342,0.281l0.343,0.278l0.04,-0.049l-0.284,-0.23l0.284,-0.23zM248.962,209.448l-0.342,0.281l0.343,0.281l0.04,-0.053l-0.284,-0.228l0.284,-0.233zM248.962,210.342l-0.342,0.28l0.343,0.279l0.04,-0.05l-0.284,-0.229l0.284,-0.231zM248.962,211.235l-0.342,0.278l0.343,0.279l0.04,-0.05l-0.284,-0.229l0.284,-0.231zM248.962,212.126l-0.342,0.28l0.343,0.279l0.04,-0.05l-0.284,-0.229l0.284,-0.231zM248.962,213.019l-0.342,0.279l0.343,0.28l0.04,-0.05l-0.284,-0.231l0.284,-0.23zM248.962,213.913l-0.342,0.28l0.343,0.279l0.04,-0.05l-0.284,-0.229l0.284,-0.233zM248.962,214.805l-0.342,0.278l0.343,0.28l0.04,-0.05l-0.284,-0.23l0.284,-0.23zM248.962,215.696l-0.342,0.28l0.343,0.28l0.04,-0.052l-0.284,-0.229l0.284,-0.231zM248.962,216.589l-0.342,0.28l0.343,0.28l0.04,-0.052l-0.284,-0.229l0.284,-0.231zM248.962,217.483l-0.342,0.279l0.343,0.28l0.04,-0.052l-0.284,-0.228l0.284,-0.232zM248.962,218.376l-0.342,0.278l0.343,0.28l0.04,-0.05l-0.284,-0.23l0.284,-0.23zM248.962,219.267l-0.342,0.279l0.343,0.281l0.04,-0.052l-0.284,-0.23l0.284,-0.23zM248.962,220.159l-0.342,0.28l0.343,0.279l0.04,-0.048l-0.284,-0.231l0.284,-0.231zM248.962,221.054l-0.342,0.279l0.343,0.28l0.04,-0.051l-0.284,-0.23l0.284,-0.23zM248.962,221.945l-0.342,0.28l0.343,0.28l0.04,-0.05l-0.284,-0.23l0.284,-0.23zM248.962,222.838l-0.342,0.279l0.343,0.281l0.04,-0.052l-0.284,-0.23l0.284,-0.23zM248.962,223.729l-0.342,0.282l0.343,0.28l0.04,-0.05l-0.284,-0.231l0.284,-0.23zM248.962,224.623l-0.342,0.28l0.343,0.279l0.04,-0.05l-0.284,-0.229l0.284,-0.231zM248.962,225.516l-0.342,0.28l0.343,0.28l0.04,-0.05l-0.284,-0.23l0.284,-0.23zM248.962,226.409l-0.342,0.278l0.343,0.28l0.04,-0.05l-0.284,-0.23l0.284,-0.23zM248.964,227.299l0.038,0.05l-0.05,0.043l-0.106,0.005z" fill="#222a1d"/><path d="M242.93,204.48h0.193v23.08h-0.193zM246.065,204.478h0.188v23l-0.188,0.007zM245.993,205.711l-1.407,0.432l-1.404,-0.432l1.404,-0.496zM245.993,206.668l-1.407,0.43l-1.404,-0.43l1.404,-0.498zM243.976,204.474c0.404,0 0.81,-0.002 1.214,-0.004l0.803,0.283l-1.407,0.432l-1.404,-0.432zM245.993,208.581l-1.407,0.43l-1.404,-0.43l1.404,-0.498zM245.993,209.536l-1.407,0.433l-1.404,-0.433l1.404,-0.498zM245.993,207.623l-1.407,0.433l-1.404,-0.433l1.404,-0.496zM245.993,210.491l-1.407,0.435l-1.404,-0.435l1.404,-0.496zM245.993,211.449l-1.407,0.432l-1.404,-0.432l1.404,-0.499zM245.993,213.363l-1.407,0.43l-1.404,-0.43l1.404,-0.498zM245.993,214.318l-1.407,0.43l-1.404,-0.43l1.404,-0.495zM245.993,212.406l-1.407,0.432l-1.404,-0.432l1.404,-0.496zM245.993,215.274l-1.407,0.432l-1.404,-0.432l1.404,-0.496zM245.993,216.231l-1.407,0.433l-1.404,-0.433l1.404,-0.498zM245.993,218.144l-1.407,0.432l-1.404,-0.432l1.404,-0.498zM245.993,219.101l-1.407,0.43l-1.404,-0.43l1.404,-0.496zM245.993,217.186l-1.407,0.433l-1.404,-0.433l1.404,-0.496zM245.993,220.058l-1.407,0.43l-1.404,-0.43l1.404,-0.498zM245.993,221.014l-1.407,0.43l-1.404,-0.43l1.404,-0.498zM245.993,222.926l-1.407,0.433l-1.404,-0.433l1.404,-0.498zM245.993,223.882l-1.407,0.432l-1.404,-0.432l1.404,-0.496zM245.993,221.969l-1.407,0.432l-1.404,-0.432l1.404,-0.496zM245.993,224.839l-1.407,0.432l-1.404,-0.432l1.404,-0.499zM245.993,225.796l-1.407,0.43l-1.404,-0.43l1.404,-0.496zM243.591,227.561l0.996,-0.351l0.833,0.295zM245.993,226.752l-1.407,0.432l-1.404,-0.432l1.404,-0.496zM259.701,203.849c-0.036,4.046 -0.06,23.203 -0.06,23.203l-2.016,0.062l-1.023,-0.236l1.938,-0.446l-1.938,-0.446l1.938,-0.446l-1.938,-0.448l1.938,-0.446l-1.938,-0.444l1.938,-0.446l-1.938,-0.448l1.938,-0.449l-1.938,-0.444l1.938,-0.448l-1.938,-0.446l1.938,-0.444l-1.938,-0.446l1.938,-0.448l-1.938,-0.446l1.938,-0.444l-1.938,-0.446l1.938,-0.45l-1.938,-0.446l1.938,-0.444l-1.938,-0.446l1.938,-0.449l-1.938,-0.446l1.938,-0.444l-1.938,-0.45l1.938,-0.446l-1.938,-0.444l1.938,-0.446l-1.938,-0.448l1.938,-0.446l-1.938,-0.444l1.938,-0.446l-1.938,-0.45l1.938,-0.447l-1.938,-0.443l1.938,-0.449l-1.938,-0.446l1.938,-0.446l-1.938,-0.443l1.938,-0.449l-1.938,-0.446l1.938,-0.446l-1.938,-0.446l1.938,-0.448l-1.938,-0.446l1.938,-0.444l-1.938,-0.446l1.938,-0.451l-1.938,-0.446z" fill="#7f7f4e"/><path d="M258.764,204.56l-0.313,0.447l0.313,0.45l-0.313,0.446l0.313,0.444l-0.313,0.446l0.313,0.448l-0.313,0.446l0.313,0.446l-0.313,0.446l0.313,0.448l-0.313,0.444l0.313,0.446l-0.313,0.448l0.313,0.446l-0.313,0.444l0.313,0.447l-0.313,0.45l0.313,0.446l-0.313,0.444l0.313,0.446l-0.313,0.448l0.313,0.446l-0.313,0.444l0.313,0.448l-0.313,0.448l0.313,0.444l-0.313,0.446l0.313,0.449l-0.313,0.446l0.313,0.443l-0.313,0.447l0.313,0.45l-0.313,0.446l0.313,0.444l-0.313,0.446l0.313,0.448l-0.313,0.446l0.313,0.444l-0.313,0.448l0.313,0.446l-0.313,0.444l0.313,0.448l-0.313,0.449l0.313,0.446l-0.313,0.443l0.313,0.446l-0.313,0.449l0.313,0.446l-0.313,0.446l0.313,0.448l-0.145,0.202l-0.08,0.004l0.146,-0.206l-0.3,-0.43l0.027,-0.018l-0.027,-0.018l0.3,-0.428l-0.3,-0.428l0.027,-0.018l-0.027,-0.019l0.3,-0.43l-0.3,-0.426l0.027,-0.02l-0.027,-0.018l0.3,-0.426l-0.3,-0.43l0.027,-0.016l-0.027,-0.02l0.3,-0.428l-0.3,-0.428l0.027,-0.02l-0.027,-0.016l0.3,-0.428l-0.3,-0.43l0.027,-0.016l-0.027,-0.016l0.3,-0.432l-0.3,-0.426l0.027,-0.018l-0.027,-0.02l0.3,-0.426l-0.3,-0.428l0.027,-0.02l-0.027,-0.016l0.3,-0.43l-0.3,-0.428l0.027,-0.016l-0.027,-0.02l0.3,-0.427l-0.3,-0.43l0.027,-0.02l-0.027,-0.016l0.3,-0.43l-0.3,-0.425l0.027,-0.019l-0.027,-0.02l0.3,-0.425l-0.3,-0.429l0.027,-0.02l-0.027,-0.016l0.3,-0.43l-0.3,-0.428l0.027,-0.016l-0.027,-0.02l0.3,-0.428l-0.3,-0.428l0.027,-0.02l-0.027,-0.018l0.3,-0.426l-0.3,-0.428l0.027,-0.018l-0.027,-0.02l0.3,-0.428l-0.3,-0.426l0.027,-0.02l-0.027,-0.018l0.3,-0.426l-0.3,-0.433l0.027,-0.014l-0.027,-0.02l0.3,-0.43l-0.3,-0.426l0.027,-0.02l-0.027,-0.018l0.3,-0.426l-0.3,-0.43l0.027,-0.016l-0.027,-0.02l0.3,-0.428l-0.3,-0.426l0.027,-0.02l-0.027,-0.018l0.3,-0.426l-0.3,-0.432l0.027,-0.016l-0.027,-0.016l0.3,-0.43l-0.3,-0.428l0.027,-0.018l-0.027,-0.02l0.3,-0.426l-0.3,-0.428l0.027,-0.02l-0.027,-0.016l0.3,-0.43l-0.3,-0.426l0.027,-0.019l-0.027,-0.02l0.3,-0.426l-0.3,-0.43l0.027,-0.02l-0.027,-0.013l0.3,-0.433l-0.3,-0.426l0.052,-0.036zM259.671,211.101l-0.136,0.154l0.134,0.156v0.1l-0.198,-0.234l0.025,-0.022l-0.025,-0.016l0.2,-0.236zM259.675,209.31l-0.14,0.161l0.138,0.163v0.095l-0.202,-0.236l0.025,-0.023l-0.025,-0.02l0.205,-0.24zM259.669,211.997l-0.134,0.153l0.134,0.152c0,0.032 0,0.066 -0.002,0.097l-0.196,-0.23l0.025,-0.019l-0.025,-0.02l0.198,-0.233zM259.673,210.205l-0.138,0.159l0.138,0.158v0.1l-0.202,-0.238l0.025,-0.02l-0.025,-0.023l0.202,-0.235zM259.665,212.891l-0.13,0.15l0.13,0.152v0.097l-0.193,-0.226l0.025,-0.023l-0.025,-0.017l0.193,-0.23zM259.665,213.787l-0.13,0.147l0.13,0.15v0.097l-0.193,-0.226l0.025,-0.021l-0.025,-0.02l0.193,-0.226zM259.677,208.414l-0.14,0.166l0.141,0.16v0.102l-0.207,-0.242l0.025,-0.02l-0.025,-0.023l0.207,-0.242zM259.662,214.681l-0.127,0.145l0.127,0.146c-0.002,0.035 -0.002,0.066 -0.002,0.1l-0.188,-0.224l0.025,-0.022l-0.025,-0.016l0.19,-0.227zM259.691,205.723l-0.154,0.18l0.15,0.174v0.1l-0.216,-0.254l0.025,-0.02l-0.025,-0.023l0.22,-0.258zM259.702,203.924l-0.165,0.192l0.161,0.19v0.095l-0.227,-0.265l0.025,-0.02l-0.025,-0.02l0.231,-0.272zM259.682,207.516l-0.145,0.17l0.143,0.168v0.1l-0.209,-0.248l0.025,-0.02l-0.024,-0.022l0.21,-0.247zM259.687,206.619l-0.15,0.174l0.145,0.172v0.098l-0.211,-0.247l0.025,-0.023l-0.025,-0.022l0.216,-0.249zM259.698,204.726c0,0.034 0,0.064 -0.003,0.098l-0.158,0.183l0.154,0.183v0.098l-0.22,-0.258l0.025,-0.023l-0.025,-0.018l0.227,-0.263M259.647,224.425c0,0.032 0,0.063 -0.005,0.097l-0.106,0.125l0.106,0.124v0.098l-0.17,-0.202l0.025,-0.021l-0.025,-0.02l0.175,-0.201M259.646,223.629l-0.11,0.127l0.111,0.122v0.1l-0.175,-0.202l0.025,-0.02l-0.025,-0.023l0.175,-0.203zM259.646,222.733l-0.11,0.127l0.111,0.129v0.098l-0.175,-0.207l0.025,-0.02l-0.025,-0.018l0.175,-0.206zM259.66,215.578l-0.125,0.143l0.125,0.14v0.1l-0.188,-0.222l0.025,-0.018l-0.025,-0.02l0.188,-0.222zM259.642,225.418l-0.106,0.122l0.106,0.12v0.1l-0.17,-0.202l0.025,-0.018l-0.025,-0.022l0.17,-0.2zM259.64,226.311l-0.104,0.122l0.104,0.12v0.098l-0.168,-0.2l0.025,-0.018l-0.025,-0.02l0.168,-0.199zM259.651,221.74c-0.004,0.034 -0.004,0.066 -0.004,0.1l-0.112,0.129l0.112,0.127v0.1l-0.175,-0.207l0.025,-0.02l-0.026,-0.022l0.18,-0.207M259.656,217.367l-0.12,0.138l0.12,0.138v0.1l-0.184,-0.218l0.025,-0.02l-0.025,-0.02l0.184,-0.218zM259.651,220.945l-0.116,0.133l0.117,0.129v0.099l-0.18,-0.21l0.025,-0.018l-0.026,-0.022l0.18,-0.209zM259.656,218.263l-0.12,0.135l0.12,0.136v0.098l-0.184,-0.214l0.025,-0.02l-0.025,-0.018l0.184,-0.217zM259.66,216.474l-0.125,0.138l0.125,0.14c-0.002,0.034 -0.002,0.066 -0.002,0.103l-0.186,-0.22l0.025,-0.023l-0.025,-0.018l0.188,-0.22zM259.651,220.051l-0.116,0.135l0.117,0.13v0.097l-0.18,-0.21l0.025,-0.018l-0.026,-0.02l0.18,-0.213zM259.651,219.156l-0.116,0.136l0.117,0.133v0.1l-0.18,-0.215l0.025,-0.019l-0.026,-0.02l0.18,-0.215zM257.41,204.283l0.345,0.279l-0.346,0.283l-0.04,-0.053l0.281,-0.23l-0.281,-0.232zM257.41,205.178l0.345,0.279l-0.346,0.279l-0.04,-0.05l0.281,-0.229l-0.281,-0.231zM257.41,206.069l0.345,0.279l-0.346,0.281l-0.04,-0.052l0.281,-0.23l-0.281,-0.23zM257.41,206.961l0.345,0.28l-0.346,0.279l-0.04,-0.05l0.281,-0.229l-0.281,-0.231zM257.41,207.854l0.345,0.281l-0.346,0.28l-0.04,-0.052l0.281,-0.228l-0.281,-0.234zM257.41,208.747l0.345,0.28l-0.346,0.28l-0.04,-0.05l0.281,-0.23l-0.281,-0.23zM257.41,209.64l0.345,0.279l-0.346,0.281l-0.04,-0.052l0.281,-0.23l-0.281,-0.23zM257.41,210.532l0.345,0.28l-0.346,0.279l-0.04,-0.05l0.281,-0.229l-0.281,-0.231zM257.41,211.425l0.345,0.278l-0.346,0.279l-0.04,-0.048l0.281,-0.231l-0.281,-0.231zM257.41,212.318l0.345,0.28l-0.346,0.28l-0.04,-0.05l0.281,-0.23l-0.281,-0.23zM257.41,213.211l0.345,0.278l-0.346,0.28l-0.04,-0.05l0.281,-0.23l-0.281,-0.23zM257.41,214.103l0.345,0.28l-0.346,0.279l-0.04,-0.05l0.281,-0.229l-0.281,-0.233zM257.41,214.995l0.345,0.28l-0.346,0.28l-0.04,-0.052l0.281,-0.229l-0.281,-0.231zM257.41,215.887l0.345,0.281l-0.346,0.28l-0.04,-0.05l0.281,-0.23l-0.281,-0.234zM257.41,216.782l0.345,0.278l-0.346,0.28l-0.04,-0.05l0.281,-0.23l-0.281,-0.23zM257.41,217.673l0.345,0.279l-0.346,0.28l-0.04,-0.052l0.281,-0.228l-0.281,-0.232zM257.41,218.567l0.345,0.28l-0.346,0.279l-0.04,-0.049l0.281,-0.23l-0.281,-0.233zM257.41,219.459l0.345,0.28l-0.346,0.28l-0.04,-0.052l0.281,-0.229l-0.281,-0.231zM257.41,220.351l0.345,0.281l-0.346,0.278l-0.04,-0.05l0.281,-0.228l-0.281,-0.232zM257.41,221.244l0.345,0.279l-0.346,0.28l-0.04,-0.051l0.281,-0.23l-0.281,-0.23zM257.41,222.136l0.345,0.28l-0.346,0.281l-0.04,-0.05l0.281,-0.232l-0.281,-0.23zM257.41,223.03l0.345,0.28l-0.346,0.28l-0.04,-0.052l0.281,-0.229l-0.281,-0.231zM257.41,223.922l0.345,0.28l-0.346,0.28l-0.04,-0.05l0.281,-0.23l-0.281,-0.23zM257.41,224.815l0.345,0.279l-0.346,0.278l-0.04,-0.049l0.281,-0.23l-0.281,-0.23zM257.41,225.707l0.345,0.28l-0.346,0.281l-0.04,-0.052l0.281,-0.23l-0.281,-0.23zM257.41,226.602l0.345,0.278l-0.346,0.279l-0.04,-0.05l0.281,-0.229l-0.281,-0.23z" fill="#222a1d"/><path d="M228.428,201.8h31.312v3.633h-31.312z" fill="#7f7f4e"/><path d="M233.985,201.8v3.633h-1.6l-1.643,-0.376l1.938,-0.446l-1.938,-0.446l1.938,-0.446l-1.938,-0.449l1.938,-0.443l-1.938,-0.446l1.938,-0.449l-0.572,-0.131z" fill="#222a1d"/><path d="M232.683,201.802l-0.09,0.13l0.313,0.449l-0.313,0.446l0.313,0.443l-0.313,0.449l0.313,0.446l-0.313,0.446l0.313,0.446l-0.265,0.376h-0.082l0.27,-0.376l-0.302,-0.428l0.027,-0.019l-0.027,-0.02l0.302,-0.425l-0.302,-0.428l0.027,-0.018l-0.027,-0.019l0.302,-0.43l-0.302,-0.425l0.027,-0.019l-0.027,-0.02l0.302,-0.426l-0.302,-0.43l0.027,-0.018l-0.027,-0.015l0.079,-0.116zM233.792,201.802l-0.114,0.13l0.38,0.449l-0.38,0.446l0.38,0.443l-0.38,0.449l0.38,0.446l-0.38,0.446l0.379,0.446l-0.317,0.376h-0.082l0.318,-0.376l-0.363,-0.426l0.025,-0.02l-0.025,-0.023l0.363,-0.423l-0.363,-0.426l0.025,-0.021l-0.025,-0.02l0.363,-0.428l-0.363,-0.425l0.025,-0.018l-0.025,-0.023l0.363,-0.423l-0.363,-0.429l0.025,-0.02l-0.025,-0.018l0.095,-0.113zM231.553,202.101l0.345,0.28l-0.345,0.279l-0.043,-0.05l0.283,-0.229l-0.283,-0.233zM231.553,202.993l0.345,0.28l-0.345,0.28l-0.043,-0.05l0.283,-0.231l-0.283,-0.231zM231.553,203.887l0.345,0.278l-0.345,0.28l-0.043,-0.05l0.283,-0.23l-0.283,-0.23zM231.553,204.779l0.345,0.28l-0.345,0.281l-0.043,-0.052l0.283,-0.229l-0.283,-0.233z" fill="#7f7f4e"/><path d="M239.737,201.802l-0.57,0.13l1.933,0.449l-1.933,0.446l1.933,0.443l-1.933,0.449l1.933,0.446l-1.933,0.446l1.933,0.446l-1.638,0.376h-1.642v-3.632z" fill="#222a1d"/><path d="M239.162,201.8h0.076l0.08,0.116l-0.023,0.016l0.023,0.02l-0.302,0.428l0.302,0.428l-0.023,0.02l0.023,0.016l-0.302,0.428l0.302,0.428l-0.023,0.018l0.023,0.02l-0.302,0.426l0.302,0.428l-0.023,0.02l0.023,0.016l-0.302,0.43l0.269,0.376h-0.08l-0.266,-0.376l0.316,-0.446l-0.316,-0.448l0.316,-0.446l-0.316,-0.446l0.316,-0.444l-0.316,-0.448l0.316,-0.449zM238.051,201.8h0.084l0.095,0.113l-0.022,0.018l0.022,0.023l-0.36,0.426l0.36,0.425l-0.022,0.023l0.022,0.016l-0.36,0.428l0.36,0.426l-0.022,0.02l0.022,0.023l-0.36,0.423l0.36,0.426l-0.022,0.022l0.022,0.018l-0.36,0.428l0.324,0.376h-0.086l-0.32,-0.376l0.377,-0.446l-0.377,-0.448l0.377,-0.446l-0.377,-0.446l0.377,-0.444l-0.377,-0.448l0.377,-0.449zM240.295,202.101l-0.342,0.28l0.343,0.279l0.04,-0.05l-0.283,-0.229l0.283,-0.233zM240.295,202.993l-0.342,0.28l0.343,0.28l0.04,-0.05l-0.283,-0.231l0.283,-0.231zM240.295,203.887l-0.342,0.278l0.343,0.28l0.04,-0.05l-0.283,-0.23l0.283,-0.23zM240.295,204.779l-0.342,0.28l0.343,0.281l0.04,-0.052l-0.283,-0.229l0.283,-0.233z" fill="#7f7f4e"/><path d="M234.239,201.8h0.193v3.633h-0.192zM237.373,201.8h0.19v3.633h-0.19zM235.429,201.8h0.983l0.914,0.324l-1.407,0.432l-1.407,-0.432zM237.326,203.08l-1.406,0.434l-1.407,-0.434l1.407,-0.496zM237.326,204.039l-1.406,0.43l-1.407,-0.43l1.407,-0.498zM237.326,204.994l-1.406,0.43l-1.407,-0.43l1.407,-0.495zM250.198,201.8v3.633h-1.6l-1.645,-0.376l1.94,-0.446l-1.94,-0.446l1.94,-0.446l-1.94,-0.449l1.94,-0.443l-1.94,-0.446l1.94,-0.449l-0.575,-0.131z" fill="#222a1d"/><path d="M248.894,201.802l-0.091,0.13l0.313,0.449l-0.313,0.446l0.313,0.443l-0.313,0.449l0.313,0.446l-0.313,0.446l0.313,0.446l-0.265,0.376h-0.079l0.267,-0.376l-0.301,-0.428l0.027,-0.019l-0.027,-0.02l0.301,-0.425l-0.301,-0.428l0.027,-0.018l-0.027,-0.019l0.301,-0.43l-0.301,-0.425l0.027,-0.019l-0.027,-0.02l0.301,-0.426l-0.301,-0.43l0.027,-0.018l-0.028,-0.015l0.08,-0.116zM250.002,201.802l-0.111,0.13l0.377,0.449l-0.377,0.446l0.377,0.443l-0.377,0.449l0.377,0.446l-0.377,0.446l0.377,0.446l-0.316,0.376h-0.083l0.317,-0.376l-0.361,-0.426l0.028,-0.02l-0.027,-0.023l0.36,-0.423l-0.361,-0.426l0.028,-0.021l-0.027,-0.02l0.36,-0.428l-0.361,-0.425l0.028,-0.018l-0.027,-0.023l0.36,-0.423l-0.361,-0.429l0.028,-0.02l-0.028,-0.018l0.093,-0.113zM247.763,202.101l0.345,0.28l-0.345,0.279l-0.043,-0.05l0.284,-0.229l-0.284,-0.233zM247.763,202.993l0.345,0.28l-0.345,0.28l-0.043,-0.05l0.284,-0.231l-0.284,-0.231zM247.763,203.887l0.345,0.278l-0.345,0.28l-0.043,-0.05l0.284,-0.23l-0.284,-0.23zM247.763,204.779l0.345,0.28l-0.345,0.281l-0.043,-0.052l0.284,-0.229l-0.284,-0.233z" fill="#7f7f4e"/><path d="M255.951,201.802l-0.571,0.13l1.93,0.449l-1.93,0.446l1.93,0.443l-1.93,0.449l1.93,0.446l-1.93,0.446l1.93,0.446l-1.638,0.376h-1.641v-3.632z" fill="#222a1d"/><path d="M255.372,201.8h0.077l0.08,0.116l-0.023,0.016l0.023,0.02l-0.3,0.428l0.3,0.428l-0.023,0.02l0.023,0.016l-0.3,0.428l0.3,0.428l-0.023,0.018l0.023,0.02l-0.3,0.426l0.3,0.428l-0.023,0.02l0.023,0.016l-0.3,0.43l0.266,0.376h-0.075l-0.268,-0.376l0.315,-0.446l-0.315,-0.448l0.315,-0.446l-0.315,-0.446l0.315,-0.444l-0.315,-0.448l0.315,-0.449zM254.264,201.8h0.081l0.096,0.113l-0.023,0.018l0.023,0.023l-0.357,0.426l0.357,0.425l-0.023,0.023l0.023,0.016l-0.357,0.428l0.357,0.426l-0.023,0.02l0.023,0.023l-0.357,0.423l0.357,0.426l-0.023,0.022l0.023,0.018l-0.357,0.428l0.32,0.376h-0.084l-0.322,-0.376l0.377,-0.446l-0.377,-0.448l0.377,-0.446l-0.377,-0.446l0.377,-0.444l-0.377,-0.448l0.377,-0.449zM256.506,202.101l-0.343,0.28l0.343,0.279l0.041,-0.05l-0.284,-0.229l0.284,-0.233zM256.506,202.993l-0.343,0.28l0.343,0.28l0.041,-0.05l-0.284,-0.231l0.284,-0.231zM256.506,203.887l-0.343,0.278l0.343,0.28l0.041,-0.05l-0.284,-0.23l0.284,-0.23zM256.506,204.779l-0.343,0.28l0.343,0.281l0.041,-0.052l-0.284,-0.229l0.284,-0.233z" fill="#7f7f4e"/><path d="M250.453,201.8h0.19v3.633h-0.19zM253.585,201.8h0.19v3.633h-0.191zM251.642,201.8h0.982l0.913,0.324l-1.405,0.432l-1.407,-0.432zM253.537,203.08l-1.405,0.434l-1.407,-0.434l1.407,-0.496zM253.537,204.039l-1.405,0.43l-1.407,-0.43l1.407,-0.498zM253.537,204.994l-1.405,0.43l-1.407,-0.43l1.407,-0.495z" fill="#222a1d"/><path d="M247.271,176.223c-1.399,0.424 -4.4,0.371 -5.84,0.125c-0.422,-0.075 -0.732,-0.342 -0.95,-0.564c-0.59,-0.586 0,-3.31 0,-3.31c2.43139,0.40086 4.91216,0.39917 7.343,-0.005c0,0 0.524,2.67 0,3.315c-0.03093,0.04155 -0.06576,0.08007 -0.104,0.115l-0.118,0.107c-0.098,0.079 -0.198,0.177 -0.332,0.217" fill="#d9bf27"/><path d="M242.676,175.406h2.494v20.848h-2.494z" fill="#d9bf27"/><path d="M244.356,180.37c0.00083,0.24024 -0.19325,0.43567 -0.4335,0.4365c-0.24024,0.00083 -0.43567,-0.19326 -0.4365,-0.4335c-0.0011,-0.24024 0.19276,-0.43589 0.433,-0.437c0.24024,-0.0011 0.43589,0.19276 0.437,0.433M244.356,175.398c-0.00081,0.17612 -0.10775,0.33436 -0.27085,0.40082c-0.1631,0.06646 -0.35018,0.02801 -0.47385,-0.09739c-0.12367,-0.12539 -0.15953,-0.31299 -0.09083,-0.47516c0.0687,-0.16216 0.22842,-0.2669 0.40453,-0.26528c0.238,0 0.431,0.197 0.431,0.437M244.356,174.056c0.00107,0.11518 -0.04381,0.22605 -0.1247,0.30806c-0.08088,0.08201 -0.19111,0.12841 -0.3063,0.12894c-0.17612,0.00162 -0.33583,-0.10312 -0.40453,-0.26529c-0.0687,-0.16216 -0.03285,-0.34976 0.09083,-0.47516c0.12367,-0.12539 0.31076,-0.16384 0.47385,-0.09738c0.1631,0.06646 0.27004,0.22471 0.27085,0.40082M244.356,186.492c0,0.24 -0.193,0.434 -0.431,0.434c-0.11563,0.00053 -0.22674,-0.04489 -0.30889,-0.12628c-0.08214,-0.08139 -0.12859,-0.19208 -0.12912,-0.30772c0,-0.24 0.195,-0.435 0.438,-0.435c0.238,0 0.431,0.195 0.431,0.435M244.356,192.612c0,0.24 -0.193,0.434 -0.431,0.434c-0.11563,0.00053 -0.22674,-0.04489 -0.30889,-0.12628c-0.08214,-0.08139 -0.12859,-0.19208 -0.12912,-0.30772c0,-0.24024 0.19476,-0.435 0.435,-0.435c0.24024,0 0.435,0.19476 0.435,0.435" fill="#eeeeed"/><path d="M266.131,153.854c1.149,0.735 1.899,1.985 1.899,3.405c0,2.259 -1.911,4.093 -4.261,4.093c-0.068,0 -0.139,-0.002 -0.205,-0.006c-3.816,6.824 -11.123,11.438 -19.51,11.438c-8.399,0 -15.71,-4.626 -19.527,-11.456c-0.154,0.015 -0.311,0.024 -0.47,0.024c-2.355,0 -4.264,-1.833 -4.264,-4.093c0,-1.524 0.872,-2.853 2.158,-3.557c-0.149,-1.044 -0.228,-2.11 -0.228,-3.198c0,-12.305 9.997,-22.28 22.33,-22.28c12.332,0 22.33,9.975 22.33,22.28c0,1.138 -0.084,2.26 -0.252,3.35" data-paper-data="{&quot;origPos&quot;:null}" fill="#ffe299"/><path d="M267.268,147.601c0.036,2.617 -0.881,8.275 -2.669,11.651c0,0 -4.391,-12.398 -8.008,-14.362c-4.423,-2.402 -16.077,1.057 -20.031,-2.053c-0.653,-0.517 -0.58,-1.687 -0.58,-1.687c0,0 -0.756,1.492 -1.124,1.904c-1.915,2.178 -6.878,5.326 -9.235,7.017c-1.893,1.356 -1.984,1.343 -1.564,9.181c0,0 -3.483,-7.132 -3.288,-11.896c0.052,-1.374 0.717,-4.417 1.806,-7.51c3.928,-7.868 12.075,-13.275 21.48,-13.275c10.81,0 19.95,7.13 22.95,16.936c0.15249,1.3594 0.24025,2.72527 0.263,4.093" fill="#2c2c2d"/><path d="M267.279,147.35h-46.521l1.915,-23.784c21.776,-8.024 42.689,0 42.689,0z" fill="#343434"/><path d="M239.645,149.474c0,0 -0.463,1.61 -1.916,1.292c-0.71,-0.156 -0.835,-1.074 -3.114,-0.662c-0.716,0.161 -2.223,1.033 -2.513,1.615c-0.29,0.583 -0.08,-2.136 2.26,-3.146c1.688,-0.602 2.26,-0.573 3.658,-0.573c1.398,0 1.828,0.81 1.625,1.474M249.355,149.474c0,0 0.463,1.61 1.916,1.292c0.71,-0.156 0.835,-1.074 3.114,-0.662c0.716,0.161 2.223,1.033 2.513,1.615c0.29,0.583 0.08,-2.136 -2.26,-3.146c-1.688,-0.602 -2.26,-0.573 -3.658,-0.573c-1.398,0 -1.828,0.81 -1.625,1.474M237.77,156.55c0,1.574 -0.862,2.85 -1.924,2.85c-1.062,0 -1.923,-1.276 -1.923,-2.85c0,-1.574 0.86,-2.85 1.923,-2.85c1.062,0 1.923,1.276 1.923,2.85M255.077,156.55c0,1.574 -0.86,2.85 -1.923,2.85c-1.063,0 -1.923,-1.276 -1.923,-2.85c0,-1.574 0.86,-2.85 1.923,-2.85c1.062,0 1.923,1.276 1.923,2.85" fill="#2c2c2d"/><path d="M241.615,159.4c0,0 0.2,-0.99 0.485,-1.275c0.77,-1.135 2.395,-1.575 2.395,-1.575c0,0 2.092,0.69 2.552,1.56c0.427,0.808 0.327,1.215 0.327,1.215c0,0 -2.042,-1.837 -2.85,-1.725c-1.084,0.15 -2.909,1.8 -2.909,1.8z" fill="#e2a86e"/><path d="M237.962,161.961c0,0 6.633,3.049 12.667,-0.377c0,0 -1.338,5.196 -5.721,5.283c-3.958,0.116 -4.792,-1.417 -5.268,-1.857c-0.473,-0.441 -1.365,-1.684 -1.679,-3.05" fill="#e2a86e"/></g></g></svg>