<svg version="1.1" xmlns="http://www.w3.org/2000/svg" xmlns:xlink="http://www.w3.org/1999/xlink" width="67.18126" height="116.22072" viewBox="0,0,67.18126,116.22072"><g transform="translate(-205.99986,-121.975)"><g data-paper-data="{&quot;isPaintingLayer&quot;:true}" fill-rule="evenodd" stroke="none" stroke-width="1" stroke-linecap="butt" stroke-linejoin="miter" stroke-miterlimit="10" stroke-dasharray="" stroke-dashoffset="0" style="mix-blend-mode: normal"><path d="M229.289,232.689c-1.675,1.1 -2.892,3.174 -1.455,4.91c1.083,1.22 2.678,0.26 3.889,-0.256c1.34,-0.642 2.87,-1.09 4.085,-1.926c0.785,-0.554 1.702,-1.154 2.234,-1.979c0.163,-0.253 0.24,-0.505 0.18,-0.75h-8.933zM248.74,232.689c1.677,1.04 2.894,3.174 1.457,4.91c-1.08,1.22 -2.678,0.26 -3.89,-0.256c-1.341,-0.642 -2.872,-1.09 -4.082,-1.926c-0.784,-0.554 -1.706,-1.154 -2.237,-1.979c-0.164,-0.253 -0.24,-0.505 -0.18,-0.75h8.932z" data-paper-data="{&quot;origPos&quot;:null}" fill="#ffdd85"/><path d="M238.223,232.689c0.058,0.244 -0.019,0.497 -0.182,0.75c-0.328,0.511 -0.809,0.94 -1.311,1.32c0,0 0.005,0 0.005,0.004c-0.21,0.157 -0.423,0.307 -0.63,0.457c0,-0.007 -0.002,-0.007 -0.002,-0.007l-0.292,0.207c-0.40348,0.27287 -0.82817,0.51297 -1.27,0.718v0.002c-0.297,0.143 -0.602,0.223 -0.907,0.408c-0.329,0.122 -0.659,0.261 -0.985,0.4c-0.071,0.028 -0.145,0.052 -0.22,0.082l-0.057,0.023c-0.058,0.028 -0.114,0.051 -0.17,0.074c-0.04,0.019 -0.08,0.036 -0.12,0.053c-0.035,0.019 -0.077,0.036 -0.117,0.056c-0.081,0.034 -0.161,0.072 -0.241,0.11c-0.045,0.019 -0.09,0.04 -0.14,0.059c-0.016,0.008 -0.031,0.017 -0.048,0.023c-0.031,0.015 -0.062,0.028 -0.094,0.042c-0.025,0.007 -0.046,0.022 -0.068,0.032v0.002c-1.157,0.518 -2.558,1.206 -3.54,0.099c-0.578,-0.697 -0.728,-1.457 -0.59,-2.185c0.04667,-0.02122 0.09403,-0.0409 0.142,-0.059c0.019,0 0.021,0.006 0.016,0.01c0.88,-0.499 2.558,-0.166 3.38,0.135c0.552,0.192 1.15,0.499 1.524,0.874c0.259,-0.131 0.541,-0.272 0.837,-0.432c-0.103,-0.148 -0.204,-0.295 -0.31,-0.408c-0.908,-0.885 -2.256,-1.299 -3.486,-1.326c-0.272,0 -1.085,-0.015 -1.644,0.06c0.10233,-0.16751 0.21593,-0.32788 0.34,-0.48c0.74404,-0.16986 1.5076,-0.23848 2.27,-0.204c1.234,0.03 2.58,0.887 3.544,1.623c0.08597,0.06804 0.16778,0.14117 0.245,0.219c0.47,-0.257 0.945,-0.528 1.382,-0.795c-2.49,-2.457 -6.522,-1.702 -6.522,-1.702c0.109,-0.122 0.218,-0.122 0.329,-0.244h5.091c1.282,0.611 2.073,1.299 2.083,1.308c0.623,-0.434 1.061,-0.83 1.141,-1.12c0.02,-0.064 0.034,-0.129 0.05,-0.187h0.567" fill="#b16b1a"/><path d="M239.807,232.69h0.568c0.019,0.058 0.033,0.123 0.052,0.187c0.078,0.29 0.519,0.686 1.144,1.12c0.008,-0.009 0.799,-0.697 2.078,-1.308h5.096c0.107,0.06 0.199,0.116 0.34,0.236c0,0 -4.045,-0.745 -6.533,1.712c0.437,0.267 0.91,0.536 1.38,0.798c0.083,-0.089 0.169,-0.163 0.244,-0.224c0.966,-0.736 2.313,-1.593 3.542,-1.623c0.76266,-0.03161 1.52618,0.03697 2.271,0.204c0.125,0.154 0.24,0.316 0.343,0.48c-0.558,-0.075 -1.374,-0.06 -1.646,-0.06c-1.231,0.027 -2.576,0.441 -3.485,1.326c-0.109,0.113 -0.21,0.26 -0.312,0.408c0.295,0.16 0.58,0.301 0.839,0.432c0.374,-0.375 0.972,-0.682 1.522,-0.874c0.826,-0.301 2.5,-0.634 3.38,-0.135c0.05398,0.01176 0.10684,0.02816 0.158,0.049c0.136,0.728 -0.009,1.488 -0.586,2.185c-0.982,1.107 -2.383,0.419 -3.54,-0.099l-0.004,-0.002c-0.023,-0.01 -0.046,-0.025 -0.067,-0.032c-0.03166,-0.01476 -0.06367,-0.02877 -0.096,-0.042c-0.01574,-0.00682 -0.0311,-0.0145 -0.046,-0.023c-0.048,-0.019 -0.096,-0.04 -0.14,-0.059c-0.082,-0.038 -0.161,-0.076 -0.238,-0.11c-0.04,-0.02 -0.082,-0.037 -0.122,-0.056c-0.04005,-0.01678 -0.07973,-0.03446 -0.119,-0.053c-0.054,-0.023 -0.11,-0.046 -0.167,-0.074c-0.01978,-0.00822 -0.03979,-0.01589 -0.06,-0.023c-0.074,-0.03 -0.145,-0.054 -0.216,-0.082c-0.32588,-0.14091 -0.65496,-0.27428 -0.987,-0.4c-0.305,-0.185 -0.61,-0.265 -0.905,-0.408v-0.002c-0.44207,-0.20457 -0.86679,-0.44469 -1.27,-0.718c-0.098,-0.065 -0.196,-0.137 -0.294,-0.207c0,0 -0.005,0 -0.005,0.007c-0.207,-0.15 -0.418,-0.3 -0.627,-0.457l0.002,-0.004c-0.502,-0.38 -0.982,-0.809 -1.31,-1.32c-0.166,-0.253 -0.243,-0.506 -0.185,-0.75" fill="#b16b1a"/><path d="M253.368,208.188c0,0 -0.611,19.861 -4.621,24.489c-1.52,1.751 -8.28,2.263 -8.94,0.033c-1.194,-4.044 -0.657,-17.785 -0.657,-17.785h-0.268c0,0 0.302,13.874 -0.661,17.787c-0.553,2.261 -7.246,1.53 -8.94,-0.05c-4.47,-4.177 -4.562,-24.474 -4.562,-24.474h17.275z" fill="#eeeeed"/><path d="M248.716,222.633c-3.068,3.823 -16.073,3.482 -19.523,0.004c-2.539,-2.556 0,-14.448 0,-14.448h19.523c0,0 2.258,11.636 0,14.444" fill="#f3cb66"/><path d="M271.971,161.167c0.458,5.329 0.368,8.758 -19.247,12.676l8.148,-23.023l-21.838,-4.167l-21.83,4.167l8.156,23.023c-19.619,-3.918 -19.709,-7.347 -19.251,-12.676c1.033,-12.025 6.202,-25.322 8.487,-28.202c4.479,-5.64 18.083,-10.99 24.418,-10.99c6.348,-0.002 20.014,5.331 24.468,10.99c2.463,3.137 7.456,16.177 8.488,28.202" fill="#f7b90b"/><path d="M217.867,149.441v1.255l-0.655,0.124l0.479,1.367l-9.503,-2.735c1.158,-4.518 2.601,-8.652 3.908,-11.722zM206.166,160.543c0.19256,-1.88888 0.46211,-3.76911 0.808,-5.636h11.681l1.995,5.636h-14.484M224.382,171.075h-9.999c-5.296,-1.774 -7.339,-3.554 -8.05,-5.634h16.054zM269.907,149.391l-9.487,2.724l0.464,-1.295l-0.865,-0.166v-1.212l5.898,-11.98c1.347,3.088 2.812,7.301 3.99,11.928zM271.127,154.969c0.33749,1.86597 0.60203,3.7444 0.793,5.631h-14.513l1.995,-5.631h11.725M271.724,165.503c-0.736,2.08 -2.829,3.859 -8.206,5.634h-9.84l1.992,-5.634z" fill="#0c6084"/><path d="M268.835,167.588c1.708,0.73 2.256,3.332 1.214,5.804c-0.669,1.589 -1.827,2.738 -3.023,3.168h0.002c0,0 -3.191,9.119 -5.967,10.129c-2.25,0.823 -10.173,-2.419 -10.173,-2.419c0,0 -0.642,-2.48 -0.974,-3.265c-0.454,-1.072 -2.298,-4.02 -2.298,-4.02l10.85,3.91l5.11,-6.044h0.002c-0.406,-1.139 -0.345,-2.64 0.27,-4.103c1.043,-2.474 3.277,-3.889 4.987,-3.16M222.792,182.281c1.658,-2.132 7.644,-5.296 7.644,-5.296c0,0 -2.781,5.105 -3.285,7.366c-0.067,0.291 -0.224,1.061 -0.374,1.461c-0.178,0.505 -0.688,1.135 -1.483,2.263c-1.578,2.253 -3.063,11.785 -3.063,11.785c0.03793,0.06304 0.07297,0.12777 0.105,0.194c0.4499,0.45588 0.82788,0.97751 1.121,1.547c0.858,1.632 0.947,3.276 0.198,3.674c-0.399,0.217 -0.96,0.03 -1.524,-0.442c-0.604,1.091 -1.558,1.765 -2.553,1.655c-1.526,-0.162 -2.576,-2.08 -2.342,-4.284c0.096,-0.931 0.406,-1.76 0.843,-2.398c-0.002,0.035 -0.007,0.057 -0.007,0.057c0,0 1.307,-13.194 4.72,-17.582" data-paper-data="{&quot;origPos&quot;:null}" fill="#ffdd85"/><path d="M266.176,179.284c-1.305,0.583 -4.828,-1.107 -5.127,-2.509c-0.186,-0.876 2.28,-2.756 2.28,-2.756l4.44,2.198c0,0 0.184,2.275 -1.593,3.067M218.383,196.558c0.855,-0.741 3.875,-0.937 4.512,0c1.121,1.644 -0.524,3.486 -0.524,3.486h-4.439c0.001,-0.061 -1.111,-2.136 0.451,-3.486" fill="#f7b90b"/><path d="M257.054,180.097c0.769,2.573 -1.284,6.16 -1.284,6.16l-4.633,-1.836c2.417,9.478 2.703,23.767 2.703,23.767h-29.581c0,0 0.236,-11.859 2.103,-21.144l-0.418,0.584c0,0 -4.311,0 -5.08,-3.057c0,0 2.084,-4.674 9.58,-7.586l-0.004,0.015c1.844,-1.263 6.906,-1.448 6.906,-1.448l1.633,0.055h0.14l1.633,-0.085c0,0 4.93,0.234 6.833,1.463l-0.008,-0.021c7.642,2.291 9.478,3.133 9.478,3.133" fill="#eeeeed"/><path d="M224.26,208.188c0,0 0.027,-1.406 0.131,-3.488h29.317c0.109,2.082 0.132,3.488 0.132,3.488h-29.58M252.016,177.568c0,0 -12.979,8.258 -25.93,-0.002l9.213,-2.202h7.51l9.206,2.204" fill="#f7b90b"/><path d="M249.729,177.022c0,0 -10.641,6.548 -21.55,0.042l7.12,-1.701h7.509l6.92,1.659" fill="#0c6084"/><path d="M237.572,175.363c-0.425,0.735 -1.842,3.068 -2.685,3.335c-0.922,0.295 -3.776,-0.275 -3.776,-1.255c0,-0.2 3.209,-1.53 4.514,-2.08zM242.491,175.363c1.301,0.55 4.515,1.876 4.515,2.076c0,0.974 -3.116,1.64 -4.04,1.344c-0.843,-0.272 -2.077,-2.685 -2.443,-3.42zM240.743,178.755c-0.491,0.69 -3.237,0.701 -3.707,-0.005c-0.439,-0.659 0.711,-2.715 1.114,-3.387h1.837c0.315,0.672 1.215,2.749 0.755,3.392" fill="#e63744"/><path d="M268.212,155.369c-0.80344,-0.04751 -1.59278,0.22658 -2.19386,0.76182c-0.60108,0.53524 -0.96452,1.28763 -1.01014,2.09118c-0.104,1.682 2.734,4.832 2.734,4.832c0,0 3.2,-2.777 3.3,-4.455c0.103,-1.678 -1.16,-3.124 -2.83,-3.229M272.891,163.045c0,0 0.761,1.868 -0.182,2.979l-3.86,-0.907l-8.307,72.554l-2.291,-0.327l8.211,-72.37l-3.915,0.417c-0.796,-1.222 0.184,-2.976 0.184,-2.976l3.797,1.38c-1.221,-1.678 -3.025,-4.459 -2.923,-6.102c0.149,-2.477 2.265,-4.36 4.722,-4.21c2.457,0.156 4.327,2.28 4.177,4.756c-0.102,1.665 -2.281,4.231 -3.694,5.741h0.012l0.034,-0.019l4.036,-0.916" fill="#8c4514"/><path d="M262.625,171.879c-0.424,-2.194 0.046,-4.133 1.056,-4.333c1.006,-0.196 2.168,1.421 2.59,3.621c0.425,2.194 -0.046,4.133 -1.056,4.326c-1.005,0.2 -2.168,-1.421 -2.59,-3.614M259.983,156.174c1.087,0.701 1.804,1.903 1.804,3.266c0,2.166 -1.815,3.924 -4.052,3.924c-0.065,0 -0.127,-0.004 -0.19,-0.007c-3.626,6.546 -10.574,10.969 -18.544,10.969c-7.979,0 -14.929,-4.432 -18.553,-10.99c-0.148,0.019 -0.299,0.028 -0.445,0.028c-2.242,0 -4.055,-1.758 -4.055,-3.924c0,-1.463 0.826,-2.737 2.049,-3.413c-0.14,-1 -0.217,-2.025 -0.217,-3.067c0,-11.798 9.501,-21.365 21.221,-21.365c11.719,0 21.218,9.567 21.218,21.365c0,1.092 -0.081,2.164 -0.236,3.214" data-paper-data="{&quot;origPos&quot;:null}" fill="#ffdd85"/><path d="M233.95,150.552c0,0 -0.48,1.695 -1.992,1.36c-0.738,-0.164 -0.868,-1.13 -3.238,-0.697c-0.745,0.17 -2.312,1.087 -2.614,1.7c-0.302,0.613 -0.084,-2.248 2.35,-3.312c1.756,-0.634 2.351,-0.603 3.805,-0.603c1.453,0 1.901,0.853 1.69,1.552M244.05,150.552c0,0 0.48,1.695 1.992,1.36c0.738,-0.164 0.868,-1.13 3.238,-0.697c0.745,0.17 2.312,1.087 2.614,1.7c0.302,0.613 0.084,-2.248 -2.35,-3.312c-1.756,-0.634 -2.351,-0.603 -3.805,-0.603c-1.453,0 -1.901,0.853 -1.69,1.552M232,158c0,1.657 -0.895,3 -2,3c-1.105,0 -2,-1.343 -2,-3c0,-1.657 0.895,-3 2,-3c1.105,0 2,1.343 2,3M250,158c0,1.657 -0.895,3 -2,3c-1.105,0 -2,-1.343 -2,-3c0,-1.657 0.895,-3 2,-3c1.105,0 2,1.343 2,3" fill="#2c2c2d"/><path d="M236,161c0,0 0.207,-1.042 0.504,-1.342c0.801,-1.195 2.491,-1.658 2.491,-1.658c0,0 2.175,0.727 2.654,1.641c0.443,0.852 0.341,1.28 0.341,1.28c0,0 -2.125,-1.934 -2.965,-1.816c-1.127,0.158 -3.025,1.895 -3.025,1.895z" fill="#683918"/><path d="M232.2,163.696c0,0 6.897,3.208 13.172,-0.397c0,0 -1.39,5.47 -5.95,5.561c-4.115,0.122 -4.984,-1.492 -5.477,-1.956c-0.492,-0.463 -1.42,-1.772 -1.745,-3.208" fill="#683918"/><path d="M261.063,150.176c0.034,2.51 -0.836,7.941 -2.536,11.177c0,0 -4.176,-11.893 -7.613,-13.777c-4.201,-2.303 -15.278,1.017 -19.032,-1.964c-0.623,-0.497 -0.554,-1.622 -0.554,-1.622c0,0 -0.719,1.432 -1.062,1.83c-1.823,2.085 -6.54,5.104 -8.78,6.725c-1.802,1.303 -1.884,1.286 -1.484,8.808c0,0 -3.312,-6.842 -3.128,-11.411c0.05,-1.315 0.686,-4.237 1.716,-7.202c3.735,-7.545 11.473,-12.73 20.416,-12.73c10.269,0 18.954,6.84 21.804,16.243c0.14354,1.30284 0.22796,2.61152 0.253,3.922" fill="#343434"/><path d="M263.483,132.966c2.463,3.135 -2.61,17.853 -2.61,17.853l-21.837,-4.164l-21.834,4.164c0,0 -4.892,-14.975 -2.607,-17.853c4.48,-5.642 18.084,-10.991 24.42,-10.991c6.348,0 20.012,5.331 24.468,10.991" fill="#f7b90b"/><path d="M242.441,122.337v24.914h-0.23l-3.176,-0.607l-3.175,0.606h-0.11v-24.93c1.215,-0.223 2.335,-0.345 3.285,-0.345c0.982,0 2.128,0.126 3.405,0.362zM222.522,127.06c2.05558,-1.07159 4.17874,-2.00824 6.356,-2.804l3.341,23.046l-6.622,0.973zM222.103,149.504l-3.425,1.032l-1.477,0.284l0.055,0.145l-1.562,0.472l-3.885,-13.049c1.066,-2.589 2.065,-4.52 2.785,-5.421c0.537,-0.677 1.211,-1.354 1.986,-2.017l5.524,18.554zM255.64,127.1l-3.07,21.175l-6.62,-0.972l3.337,-23.017c2.17747,0.79633 4.29978,1.73605 6.353,2.813zM260.831,150.943l0.041,-0.122l-1.227,-0.234l-3.578,-1.082l5.5,-18.497c0.69839,0.5911 1.33955,1.24666 1.915,1.958c0.772,0.983 1.785,2.928 2.852,5.507l-3.858,12.964z" fill="#0c6084"/><path d="M245.242,130.01c0.858,5.035 -4.074,5.762 -4.604,7.93c-0.531,2.167 -1.202,0.985 -1.202,0.985l-0.422,-12.684l-0.427,12.684c0,0 -0.67,1.182 -1.2,-0.985c-0.531,-2.168 -5.462,-2.895 -4.606,-7.93c0.83,-4.895 5.938,-4.226 6.233,-4.18c0.29,-0.046 5.4,-0.715 6.228,4.18" fill="#cb6a22"/><path d="M241.973,129.004c0.274,1.535 -0.37,2.858 -1.302,3.598c-1.046,3.125 -0.344,7.24 0.056,11.716c0.067,0.722 -1.712,2.329 -1.712,2.329c0,0 -1.784,-1.607 -1.717,-2.329c0.395,-4.446 0.93,-8.78 0.004,-11.77c-0.924,-0.769 -1.558,-2.104 -1.282,-3.544c0.44,-2.29 1.332,-4.223 2.978,-4.223c1.643,0 2.568,1.929 2.975,4.223" fill="#f28f11"/><path d="M238.433,127.456c0,0.12 -0.214,0.22 -0.475,0.22c-0.26,0 -0.47,-0.1 -0.47,-0.22c0,-0.12 0.21,-0.217 0.47,-0.217c0.261,0 0.475,0.097 0.475,0.217M240.501,127.456c0,0.12 -0.211,0.22 -0.472,0.22c-0.264,0 -0.471,-0.1 -0.471,-0.22c0,-0.12 0.207,-0.217 0.47,-0.217c0.262,0 0.473,0.097 0.473,0.217" fill="#343434"/><path d="M217.123,152.851c-0.943,-1.282 -0.226,-3.246 -0.226,-3.246c28.355,-10.192 44.167,0.513 44.167,0.513c0.483,1.27 -0.214,2.965 -0.214,2.965c-24.39,-10.982 -43.727,-0.233 -43.727,-0.233" fill="#f7b90b"/><path d="M241.48,146.652c0,2.523 -1.086,4.567 -2.426,4.567c-1.34,0 -2.426,-2.044 -2.426,-4.567c0,-2.522 1.085,-4.568 2.426,-4.568c1.34,0 2.425,2.046 2.425,4.568" fill="#e63744"/><path d="M240.789,146.652c0,1.805 -0.778,3.272 -1.735,3.272c-0.958,0 -1.736,-1.467 -1.736,-3.272c0,-1.808 0.778,-3.273 1.736,-3.273c0.957,0 1.735,1.465 1.735,3.273" fill="#f7b90b"/><path d="M237.346,176.952c-0.992,0 -1.792,-2.143 -1.792,-3.12h7.057c0,0.977 -0.805,3.12 -1.795,3.12h-3.47" data-paper-data="{&quot;origPos&quot;:null}" fill="#ffdd85"/><path d="M236.311,176.116c-0.397,-0.608 -0.677,-1.458 -0.745,-2.068c2.32901,0.37591 4.70395,0.36679 7.03,-0.027l-0.012,0.015l-6.273,2.08" fill="#e2a86e"/></g></g></svg>