<svg xmlns="http://www.w3.org/2000/svg" width="480" height="360"><g fill="none" fill-rule="evenodd"><path fill="#FFF" d="M0 0h480v360H0z"/><g fill-rule="nonzero"><path fill="#86C2E1" d="M31 0v29.666h28.666V0H61v29.666h28.666V0H91v29.666h28.666V0H121v29.666h28.666V0H151v29.666h28.666V0H181v29.666h28.666V0H211v29.666h58.666V0H271v29.666h28.666V0H301v29.666h28.666V0H331v29.666h28.666V0H361v29.666h28.666V0H391v29.666h28.666V0H421v29.666h28.666V0H451v29.666h29V31l-29-.001v28.667h29V61h-29v28.666h29V91l-29-.001v28.667h29V121l-29-.001v28.667h29V151h-29v58.666h29V211h-29v28.666h29V241h-29v28.666h29V271l-29-.001v28.667h29V301l-29-.001v28.667h29V331l-29-.001V360h-1.333l-.001-29.001H421V360h-1.333l-.001-29.001H391V360h-1.333l-.001-29.001H361V360h-1.333l-.001-29.001H331V360h-1.333l-.001-29.001H301V360h-1.333l-.001-29.001H271V360h-1.333l-.001-29.001H211V360h-1.333l-.001-29.001H181V360h-1.333l-.001-29.001H151V360h-1.333l-.001-29.001H121V360h-1.333l-.001-29.001H91V360h-1.333l-.001-29.001H61V360h-1.333l-.001-29.001H31V360h-1.333l-.001-29.001L0 331v-1.333l29.666-.001v-28.667L0 301v-1.333l29.666-.001v-28.667L0 271v-1.333l29.666-.001V241H0v-1.333l29.666-.001V211H0v-1.333l29.666-.001V151H0v-1.333l29.666-.001v-28.667L0 121v-1.333l29.666-.001V90.999L0 91v-1.333l29.666-.001V61H0v-1.333l29.666-.001V30.999L0 31v-1.333l29.666-.001V0H31Zm418.666 329.666v-28.667H421v28.667h28.666Zm-30-28.667H391v28.667h28.666v-28.667Zm-210 0H181v28.667h28.666v-28.667Zm180 0H361v28.667h28.666v-28.667Zm-240 0H121v28.667h28.666v-28.667Zm210 0H331v28.667h28.666v-28.667Zm-30 0H301v28.667h28.666v-28.667Zm-30 0H271v28.667h28.666v-28.667Zm-30 0H211v28.667h58.666v-28.667Zm-90 0H151v28.667h28.666v-28.667Zm-60 0H91v28.667h28.666v-28.667Zm-30 0H61v28.667h28.666v-28.667Zm-30 0H31v28.667h28.666v-28.667Zm390-1.333v-28.667H421v28.667h28.666Zm-60-28.667H361v28.667h28.666v-28.667Zm-30 0H331v28.667h28.666v-28.667Zm-30 0H301v28.667h28.666v-28.667Zm-30 0H271v28.667h28.666v-28.667Zm-30 0H211v28.667h58.666v-28.667Zm-60 0H181v28.667h28.666v-28.667Zm-30 0H151v28.667h28.666v-28.667Zm-30 0H121v28.667h28.666v-28.667Zm-30 0H91v28.667h28.666v-28.667Zm-30 0H61v28.667h28.666v-28.667Zm-30 0H31v28.667h28.666v-28.667Zm360 0H391v28.667h28.666v-28.667Zm30-1.333V241H421v28.666h28.666ZM89.666 241H61v28.666h28.666V241Zm30 0H91v28.666h28.666V241Zm270 0H361v28.666h28.666V241Zm-210 0H151v28.666h28.666V241Zm90 0H211v28.666h58.666V241Zm-60 0H181v28.666h28.666V241Zm90 0H271v28.666h28.666V241Zm-150 0H121v28.666h28.666V241Zm180 0H301v28.666h28.666V241Zm-270 0H31v28.666h28.666V241Zm300 0H331v28.666h28.666V241Zm60 0H391v28.666h28.666V241Zm30-1.334V211H421v28.666h28.666Zm-120-28.666H301v28.666h28.666V211Zm90 0H391v28.666h28.666V211Zm-210 0H181v28.666h28.666V211Zm180 0H361v28.666h28.666V211Zm-240 0H121v28.666h28.666V211Zm210 0H331v28.666h28.666V211Zm-90 0H211v28.666h58.666V211Zm30 0H271v28.666h28.666V211Zm-180 0H91v28.666h28.666V211Zm60 0H151v28.666h28.666V211Zm-90 0H61v28.666h28.666V211Zm-30 0H31v28.666h28.666V211Zm390-1.334V151H421v58.666h28.666Zm-60-58.666H361v58.666h28.666V151Zm-60 0H301v58.666h28.666V151Zm-60 0H211v58.666h58.666V151Zm-210 0H31v58.666h28.666V151Zm30 0H61v58.666h28.666V151Zm30 0H91v58.666h28.666V151Zm30 0H121v58.666h28.666V151Zm30 0H151v58.666h28.666V151Zm30 0H181v58.666h28.666V151Zm90 0H271v58.666h28.666V151Zm60 0H331v58.666h28.666V151Zm60 0H391v58.666h28.666V151Zm30-1.334v-28.667H421v28.667h28.666Zm-390-28.667H31v28.667h28.666v-28.667Zm270 0H301v28.667h28.666v-28.667Zm90 0H391v28.667h28.666v-28.667Zm-120 0H271v28.667h28.666v-28.667Zm90 0H361v28.667h28.666v-28.667Zm-240 0H121v28.667h28.666v-28.667Zm210 0H331v28.667h28.666v-28.667Zm-240 0H91v28.667h28.666v-28.667Zm90 0H181v28.667h28.666v-28.667Zm60 0H211v28.667h58.666v-28.667Zm-90 0H151v28.667h28.666v-28.667Zm-90 0H61v28.667h28.666v-28.667Zm360-1.333V90.999H421v28.667h28.666Zm-180-28.667H211v28.667h58.666V90.999Zm120 0H361v28.667h28.666V90.999Zm-30 0H331v28.667h28.666V90.999Zm-30 0H301v28.667h28.666V90.999Zm-30 0H271v28.667h28.666V90.999Zm-90 0H181v28.667h28.666V90.999Zm-30 0H151v28.667h28.666V90.999Zm-30 0H121v28.667h28.666V90.999Zm-30 0H91v28.667h28.666V90.999Zm-30 0H61v28.667h28.666V90.999Zm-30 0H31v28.667h28.666V90.999Zm360 0H391v28.667h28.666V90.999Zm30-1.333V61H421v28.666h28.666ZM329.666 61H301v28.666h28.666V61Zm-270 0H31v28.666h28.666V61Zm30 0H61v28.666h28.666V61Zm30 0H91v28.666h28.666V61Zm30 0H121v28.666h28.666V61Zm30 0H151v28.666h28.666V61Zm30 0H181v28.666h28.666V61Zm60 0H211v28.666h58.666V61Zm30 0H271v28.666h28.666V61Zm60 0H331v28.666h28.666V61Zm30 0H361v28.666h28.666V61Zm30 0H391v28.666h28.666V61Zm30-1.334V30.999H421v28.667h28.666Zm-360-28.667H61v28.667h28.666V30.999Zm-30 0H31v28.667h28.666V30.999Zm120 0H151v28.667h28.666V30.999Zm210 0H361v28.667h28.666V30.999Zm-60 0H301v28.667h28.666V30.999Zm-60 0H211v28.667h58.666V30.999Zm-150 0H91v28.667h28.666V30.999Zm30 0H121v28.667h28.666V30.999Zm60 0H181v28.667h28.666V30.999Zm90 0H271v28.667h28.666V30.999Zm60 0H331v28.667h28.666V30.999Zm60 0H391v28.667h28.666V30.999Z"/><path fill="#ABABAB" d="m240.667 0-.001 179.333H480v1.334l-239.334-.001V360h-1.333V180.666H0v-1.333h239.333V0h1.334Z"/></g></g></svg>