<svg xmlns="http://www.w3.org/2000/svg" width="87.877" height="116.636"><g fill-rule="evenodd" stroke-miterlimit="10" data-paper-data="{&quot;isPaintingLayer&quot;:true}" style="mix-blend-mode:normal"><path fill="#d7d6d6" d="m41.333 48.626-3.13 14.18-.221-28.548z"/><path fill="#009244" d="M27.77 88.113a2.62 2.62 0 0 1 2.372.89 2.61 2.61 0 0 1-2.013 1.528c-.82.12-1.65-.156-2.233-.746-.392 6.534-1.185 16.581-2.487 20.825l-.272-.082c.839-2.72 1.463-7.841 1.903-12.885a2.629 2.629 0 0 1-2.24.748 2.604 2.604 0 0 1-2.013-1.526 2.613 2.613 0 0 1 2.369-.889c.81.115 1.519.606 1.91 1.325.59-6.85.853-13.45.859-13.565l.28.01c0 .067-.092 2.343-.28 5.58a2.598 2.598 0 0 1 1.846-1.212"/><path fill="#e63744" d="M25.783 81.428a1.276 1.276 0 0 1-.25.359c.285.227.458.566.476.93.098-.204.25-.373.44-.498a1.26 1.26 0 0 1-.226-.69 1.225 1.225 0 0 1-.44-.101m-1.967.453a1.266 1.266 0 0 1-.476-.99 1.279 1.279 0 0 1 1.773-1.176c.205-.433.649-.73 1.166-.73a1.27 1.27 0 0 1 1.275 1.244 1.278 1.278 0 0 1 1.232 1.272c0 .443-.23.831-.57 1.061.143.206.224.45.224.72a1.278 1.278 0 0 1-1.384 1.266 1.289 1.289 0 0 1-1.181.776 1.28 1.28 0 0 1-1.281-1.277v-.005a1.269 1.269 0 0 1-.778-2.161"/><path fill="#a21927" d="M24.509 81.598a1.112 1.112 0 1 1 1.986-.68 1.112 1.112 0 0 1 1.36 1.077c0 .575-.45 1.055-1.02 1.102v.012a1.11 1.11 0 0 1-2.22 0c0-.267.096-.508.253-.699a1.102 1.102 0 0 1-.36-.812"/><path fill="#e63744" d="M24.992 82.181c0-.609.494-1.104 1.11-1.104.61 0 1.11.495 1.11 1.104 0 .609-.5 1.104-1.11 1.104-.616 0-1.11-.494-1.11-1.104"/><path fill="#009244" d="M32.48 87.668c.874-.22 1.8.026 2.449.651a2.611 2.611 0 0 1-1.85 1.718 2.634 2.634 0 0 1-2.298-.516c.268 6.536.496 16.614-.37 20.966l-.281-.055c.557-2.792.66-7.946.59-13.01a2.614 2.614 0 0 1-2.15.967 2.626 2.626 0 0 1-2.157-1.32 2.622 2.622 0 0 1 4.307.004c-.108-6.868-.514-13.461-.52-13.577l.282-.015c.11 1.86.204 3.72.282 5.58a2.602 2.602 0 0 1 1.717-1.393"/><path fill="#e63744" d="M29.828 81.217a1.282 1.282 0 0 1-.21.378c.305.199.51.518.564.878.08-.21.214-.395.388-.537a1.23 1.23 0 0 1-.29-.67 1.32 1.32 0 0 1-.452-.049m-1.911.645a1.268 1.268 0 0 1-.57-.937 1.27 1.27 0 0 1 1.144-1.397c.175-.019.34 0 .5.05a1.27 1.27 0 0 1 1.08-.849 1.281 1.281 0 0 1 1.402 1.115 1.284 1.284 0 0 1 1.354 1.142c.042.442-.144.851-.464 1.115.167.194.27.435.297.69a1.286 1.286 0 0 1-1.15 1.398c-.031 0-.066 0-.1.004a1.284 1.284 0 1 1-2.5-.253v-.006a1.285 1.285 0 0 1-1.271-1.145 1.278 1.278 0 0 1 .278-.927"/><path fill="#a21927" d="M28.575 81.51a1.11 1.11 0 0 1 1.91-.871 1.102 1.102 0 0 1 .558 2.13c.004.005.004.007.004.014a1.108 1.108 0 0 1-.996 1.209c-.608.06-1.151-.38-1.218-.988-.023-.255.041-.51.182-.723a1.106 1.106 0 0 1-.44-.77"/><path fill="#e63744" d="M29.117 82.042a1.1 1.1 0 0 1 .996-1.207 1.104 1.104 0 0 1 1.212.982 1.11 1.11 0 0 1-2.208.225"/><path fill="#009244" d="M24.182 90.744a2.616 2.616 0 0 1 2.514.312 2.591 2.591 0 0 1-1.597 1.953 2.614 2.614 0 0 1-2.343-.198c.74 4.105 1.66 9.632 2.167 14.253l-.268.184c-.22-2.08-.53-4.352-.875-6.602a2.611 2.611 0 0 1-1.997 1.249 2.632 2.632 0 0 1-2.323-1.013 2.614 2.614 0 0 1 2.095-1.418 2.62 2.62 0 0 1 2.177.842 333.766 333.766 0 0 0-2.38-13.384l.278-.056c.365 1.827.714 3.657 1.047 5.49a2.59 2.59 0 0 1 1.505-1.612"/><path fill="#e63744" d="M20.672 84.712c-.03.143-.082.279-.157.403.33.156.576.446.678.796.05-.22.157-.422.31-.587a1.301 1.301 0 0 1-.383-.62 1.35 1.35 0 0 1-.448.008m-1.806.898a1.281 1.281 0 0 1-.698-.849 1.283 1.283 0 0 1 .947-1.541c.164-.038.334-.043.5-.016a1.283 1.283 0 0 1 2.497-.072 1.278 1.278 0 0 1 1.496.948c.105.43-.025.863-.303 1.163a1.273 1.273 0 0 1-.561 2.183c-.031.009-.067.015-.101.021a1.28 1.28 0 0 1-2.507.087v-.008a1.271 1.271 0 0 1-1.27-1.916"/><path fill="#a21927" d="M19.472 85.174a1.105 1.105 0 0 1 .82-1.333c.344-.083.69.004.95.208a1.111 1.111 0 0 1 1.572.73 1.098 1.098 0 0 1-.727 1.306c.006.004.006.008.006.014a1.1 1.1 0 0 1-.82 1.334 1.113 1.113 0 0 1-1.34-.813c-.06-.25-.031-.511.08-.742a1.099 1.099 0 0 1-.541-.704"/><path fill="#e63744" d="M20.077 85.629a1.1 1.1 0 0 1 .82-1.332 1.115 1.115 0 0 1 1.343.814 1.112 1.112 0 0 1-2.162.518"/><path fill="#009244" d="M36.169 90.72a2.617 2.617 0 0 1 2.42.754 2.636 2.636 0 0 1-1.92 1.64 2.627 2.627 0 0 1-2.277-.615c-.006 4.526-.098 10.742-.502 15.572h-.288c.202-2.348.325-5.022.4-7.681a2.61 2.61 0 0 1-2.19.877 2.605 2.605 0 0 1-2.1-1.406 2.621 2.621 0 0 1 4.3.187c.185-6.871.056-13.476.053-13.59l.28-.007c.007.068.047 2.341.047 5.587a2.612 2.612 0 0 1 1.777-1.318"/><path fill="#e63744" d="M33.789 84.162a1.17 1.17 0 0 1-.228.37c.298.21.49.54.526.902.094-.206.232-.389.414-.523a1.226 1.226 0 0 1-.264-.68 1.3 1.3 0 0 1-.448-.069m-1.934.566a1.26 1.26 0 0 1-.535-.962 1.279 1.279 0 0 1 1.707-1.275 1.28 1.28 0 1 1 2.464.371 1.276 1.276 0 0 1 1.3 1.2 1.26 1.26 0 0 1-.507 1.09c.158.202.251.446.268.702a1.274 1.274 0 0 1-1.205 1.346c-.036.004-.07.004-.101.004a1.29 1.29 0 0 1-1.132.841 1.278 1.278 0 0 1-1.354-1.197v-.005a1.285 1.285 0 0 1-1.225-1.2 1.276 1.276 0 0 1 .32-.915"/><path fill="#a21927" d="M32.528 84.402a1.102 1.102 0 0 1 1.046-1.163c.352-.024.68.126.9.373a1.105 1.105 0 0 1 1.413.995 1.098 1.098 0 0 1-.946 1.156v.015a1.11 1.11 0 0 1-2.216.129 1.082 1.082 0 0 1 .21-.711 1.105 1.105 0 0 1-.407-.794"/><path fill="#e63744" d="M33.04 84.961a1.115 1.115 0 0 1 1.048-1.17 1.108 1.108 0 0 1 1.172 1.037 1.106 1.106 0 0 1-1.046 1.167 1.106 1.106 0 0 1-1.174-1.033"/><path fill="#009244" d="M37.284 85.422a2.622 2.622 0 0 1 2.418.749 2.607 2.607 0 0 1-1.923 1.64 2.6 2.6 0 0 1-2.273-.611c-.01 6.543-.204 16.623-1.25 20.936l-.278-.065c.673-2.766.99-7.918 1.138-12.978a2.622 2.622 0 0 1-2.192.875 2.603 2.603 0 0 1-2.1-1.404 2.615 2.615 0 0 1 4.3.184c.187-6.87.055-13.473.055-13.587l.282-.008c0 .07.045 2.342.045 5.59a2.608 2.608 0 0 1 1.778-1.321"/><path fill="#e63744" d="M34.903 78.863a1.22 1.22 0 0 1-.228.37c.297.211.49.54.529.902a1.28 1.28 0 0 1 .408-.518 1.31 1.31 0 0 1-.265-.681 1.249 1.249 0 0 1-.443-.073m-1.94.568a1.274 1.274 0 0 1 1.17-2.237 1.277 1.277 0 0 1 1.118-.803 1.28 1.28 0 0 1 1.354 1.172 1.28 1.28 0 0 1 1.3 1.2 1.27 1.27 0 0 1-.506 1.092 1.274 1.274 0 0 1-.942 2.048c-.033.004-.067.004-.1.004-.177.48-.62.81-1.131.841a1.28 1.28 0 0 1-1.356-1.199v-.008a1.274 1.274 0 0 1-.906-2.11"/><path fill="#a21927" d="M33.643 79.105a1.102 1.102 0 0 1 1.045-1.165c.34-.02.67.117.896.371.079-.02.16-.036.244-.038a1.103 1.103 0 0 1 .223 2.193c0 .006.004.013.004.015a1.105 1.105 0 0 1-1.043 1.165 1.105 1.105 0 0 1-1.174-1.037 1.083 1.083 0 0 1 .209-.71 1.115 1.115 0 0 1-.404-.794"/><path fill="#e63744" d="M34.155 79.659a1.108 1.108 0 0 1 2.211-.128A1.104 1.104 0 0 1 35.33 80.7a1.11 1.11 0 0 1-1.174-1.04"/><path fill="#009244" d="M42.35 87.804c.881-.182 1.793.1 2.417.748a2.603 2.603 0 0 1-1.92 1.64 2.614 2.614 0 0 1-2.273-.61c-.01 6.547-.203 16.623-1.254 20.935l-.277-.062c.673-2.766.993-7.916 1.14-12.978a2.62 2.62 0 0 1-4.293-.531 2.627 2.627 0 0 1 2.316-1.024 2.596 2.596 0 0 1 1.985 1.212c.188-6.873.056-13.475.056-13.591l.28-.008c0 .069.047 2.343.047 5.589a2.606 2.606 0 0 1 1.777-1.32"/><path fill="#e63744" d="M39.97 81.246a1.272 1.272 0 0 1-.227.369c.298.21.491.54.529.904.087-.203.227-.386.407-.52a1.233 1.233 0 0 1-.26-.68 1.28 1.28 0 0 1-.448-.073m-1.94.567a1.274 1.274 0 0 1 1.174-2.236 1.27 1.27 0 0 1 1.114-.803 1.28 1.28 0 0 1 1.354 1.172 1.28 1.28 0 0 1 1.3 1.199 1.27 1.27 0 0 1-.507 1.093c.158.2.25.446.264.701a1.276 1.276 0 0 1-1.306 1.347 1.28 1.28 0 0 1-1.131.841 1.275 1.275 0 0 1-1.354-1.195v-.006a1.277 1.277 0 0 1-.908-2.113"/><path fill="#a21927" d="M38.707 81.488a1.107 1.107 0 0 1 1.045-1.165c.354-.023.682.127.9.371.079-.02.16-.034.243-.038a1.106 1.106 0 0 1 1.176 1.033 1.11 1.11 0 0 1-.948 1.16v.015a1.105 1.105 0 0 1-1.043 1.165 1.103 1.103 0 0 1-.962-1.751 1.087 1.087 0 0 1-.411-.79"/><path fill="#e63744" d="M39.223 82.042a1.11 1.11 0 0 1 1.043-1.165 1.114 1.114 0 0 1 1.177 1.039 1.107 1.107 0 0 1-1.05 1.165 1.108 1.108 0 0 1-1.17-1.039"/><path fill="#009244" d="M47.657 91.444c.882-.182 1.795.1 2.42.75a2.624 2.624 0 0 1-4.198 1.032c-.007 4.802-.112 11.507-.582 16.44l-.287.023c.245-2.547.395-5.575.479-8.57a2.615 2.615 0 0 1-2.19.873 2.61 2.61 0 0 1-2.1-1.404 2.619 2.619 0 0 1 4.299.182c.188-6.868.056-13.473.056-13.587l.28-.006c0 .068.045 2.341.045 5.588a2.602 2.602 0 0 1 1.777-1.321"/><path fill="#e63744" d="M45.278 84.889a1.45 1.45 0 0 1-.224.366c.295.213.486.543.523.906.09-.208.23-.385.41-.518a1.298 1.298 0 0 1-.265-.687 1.289 1.289 0 0 1-.444-.066m-1.94.563a1.28 1.28 0 0 1-.532-.962 1.281 1.281 0 0 1 1.706-1.277 1.266 1.266 0 0 1 1.118-.797 1.273 1.273 0 0 1 1.348 1.166 1.285 1.285 0 0 1 1.303 1.2c.023.444-.18.847-.506 1.094a1.272 1.272 0 0 1-.942 2.046c-.033.004-.067.004-.1.004a1.28 1.28 0 0 1-1.135.841 1.276 1.276 0 0 1-1.352-1.199v-.005a1.282 1.282 0 0 1-1.224-1.2 1.301 1.301 0 0 1 .316-.911"/><path fill="#a21927" d="M44.014 85.13c-.035-.61.43-1.13 1.045-1.172.355-.017.678.13.9.38a.804.804 0 0 1 .244-.04 1.105 1.105 0 0 1 1.173 1.034 1.114 1.114 0 0 1-.95 1.16c0 .001 0 .007.004.01a1.11 1.11 0 0 1-2.079.6 1.107 1.107 0 0 1 .07-1.181 1.122 1.122 0 0 1-.407-.79"/><path fill="#e63744" d="M44.53 85.685a1.106 1.106 0 0 1 1.043-1.168 1.107 1.107 0 0 1 1.174 1.04 1.103 1.103 0 0 1-1.043 1.163 1.105 1.105 0 0 1-1.174-1.035"/><path fill="#009244" d="M51.827 91.998c.892.1 1.67.651 2.06 1.46a2.615 2.615 0 0 1-4.304-.316c-1.61 4.852-4.003 11.712-6.09 16.282l-.26-.106c1.135-2.482 2.359-5.647 3.5-8.799a2.622 2.622 0 0 1-2.358.154 2.584 2.584 0 0 1-1.55-1.986 2.61 2.61 0 0 1 4.027 1.51 316.675 316.675 0 0 0 4.308-12.9l.272.082a293.727 293.727 0 0 1-1.708 5.327 2.631 2.631 0 0 1 2.103-.708"/><path fill="#e63744" d="M51.62 85.03a1.15 1.15 0 0 1-.332.282c.218.294.298.667.22 1.024.152-.169.337-.299.552-.371a1.253 1.253 0 0 1-.037-.727 1.28 1.28 0 0 1-.402-.208m-2.021-.06a1.251 1.251 0 0 1-.2-1.078 1.281 1.281 0 0 1 1.564-.905c.165.043.32.118.456.22a1.281 1.281 0 1 1 2.229 1.115 1.273 1.273 0 0 1 .033 2.423c.088.24.099.503.032.75a1.284 1.284 0 0 1-1.564.906c-.033-.006-.07-.019-.098-.029a1.292 1.292 0 0 1-1.34.448 1.275 1.275 0 0 1-.912-1.557v-.005a1.273 1.273 0 0 1-.2-2.288"/><path fill="#a21927" d="M50.346 84.87c.163-.59.768-.939 1.36-.785.346.09.606.333.738.637.08.004.16.012.243.03a1.105 1.105 0 0 1-.474 2.157l-.002.013a1.114 1.114 0 0 1-2.034.276 1.1 1.1 0 0 1-.111-.841c.065-.251.216-.466.42-.61a1.106 1.106 0 0 1-.14-.876"/><path fill="#e63744" d="M50.66 85.556c.162-.59.77-.94 1.36-.783.59.156.944.76.79 1.35a1.115 1.115 0 0 1-1.361.785 1.108 1.108 0 0 1-.79-1.352"/><path fill="#009244" d="M57.108 87.672a2.623 2.623 0 0 1 2.303 1.042 2.603 2.603 0 0 1-2.112 1.392 2.606 2.606 0 0 1-2.175-.889c-.83 6.492-2.285 16.465-3.866 20.617l-.265-.1c1.017-2.659 1.977-7.731 2.752-12.737a2.604 2.604 0 0 1-2.282.604 2.625 2.625 0 0 1-1.91-1.658 2.625 2.625 0 0 1 2.423-.733 2.594 2.594 0 0 1 1.82 1.452 328.02 328.02 0 0 0 1.756-13.48l.28.03c-.007.065-.247 2.33-.653 5.552a2.61 2.61 0 0 1 1.929-1.092"/><path fill="#e63744" d="M55.567 80.871a1.31 1.31 0 0 1-.274.34c.27.245.421.595.412.96a1.28 1.28 0 0 1 .473-.469 1.22 1.22 0 0 1-.177-.706 1.207 1.207 0 0 1-.434-.126m-1.994.322a1.27 1.27 0 0 1-.411-1.016 1.283 1.283 0 0 1 1.366-1.188c.17.01.337.055.49.13a1.283 1.283 0 0 1 2.4.674c.681.07 1.185.667 1.14 1.351-.028.441-.28.813-.638 1.014a1.281 1.281 0 0 1-1.19 1.924c-.033-.003-.068-.005-.1-.013a1.292 1.292 0 0 1-1.23.695 1.274 1.274 0 0 1-1.191-1.357V83.4a1.272 1.272 0 0 1-.636-2.208"/><path fill="#a21927" d="M54.286 80.953a1.102 1.102 0 0 1 1.18-1.024c.356.02.66.207.846.48.078-.012.163-.016.247-.012.609.04 1.071.565 1.034 1.174a1.112 1.112 0 0 1-1.088 1.034v.015a1.103 1.103 0 0 1-1.18 1.024 1.106 1.106 0 0 1-1.035-1.173c.017-.268.128-.504.3-.681a1.093 1.093 0 0 1-.304-.837"/><path fill="#e63744" d="M54.725 81.57a1.108 1.108 0 0 1 1.182-1.03 1.106 1.106 0 0 1 1.036 1.174 1.106 1.106 0 0 1-1.182 1.028 1.106 1.106 0 0 1-1.036-1.172"/><path fill="#009244" d="M62.13 90.294a2.628 2.628 0 0 1 2.432.706 2.615 2.615 0 0 1-4.174 1.1c.078 4.758.086 11.381-.29 16.307l-.285.048c.198-2.52.286-5.505.322-8.455a2.621 2.621 0 0 1-4.303-.456 2.616 2.616 0 0 1 4.303.112 316.621 316.621 0 0 0-.182-13.589l.285-.01c0 .067.082 2.339.142 5.584a2.602 2.602 0 0 1 1.75-1.347"/><path fill="#e63744" d="M59.636 83.776a1.163 1.163 0 0 1-.217.373c.299.208.496.533.543.894a1.25 1.25 0 0 1 .4-.525 1.252 1.252 0 0 1-.274-.677 1.36 1.36 0 0 1-.452-.065m-1.927.599a1.276 1.276 0 0 1 .632-2.32c.17-.01.34.014.502.067a1.273 1.273 0 0 1 1.099-.822 1.281 1.281 0 0 1 1.377 1.146 1.275 1.275 0 0 1 .833 2.276c.162.2.26.444.278.7a1.28 1.28 0 0 1-1.182 1.367c-.036.003-.067.003-.101.003a1.283 1.283 0 0 1-1.12.856 1.278 1.278 0 0 1-1.375-1.17v-.005a1.272 1.272 0 0 1-1.237-1.178 1.257 1.257 0 0 1 .294-.919"/><path fill="#a21927" d="M58.383 84.04a1.108 1.108 0 0 1 1.926-.828 1.11 1.11 0 0 1 1.434.973 1.1 1.1 0 0 1-.926 1.174l.002.015a1.105 1.105 0 0 1-1.023 1.184 1.11 1.11 0 0 1-1.193-1.017 1.132 1.132 0 0 1 .197-.719 1.1 1.1 0 0 1-.417-.782"/><path fill="#e63744" d="M58.905 84.586a1.109 1.109 0 0 1 2.213-.17 1.11 1.11 0 1 1-2.214.17"/><path fill="#009244" d="M66.538 87.971a2.63 2.63 0 0 1 2.432.706 2.604 2.604 0 0 1-1.892 1.677 2.607 2.607 0 0 1-2.277-.573c.102 6.545.083 16.622-.894 20.952l-.278-.063c.627-2.773.858-7.928.914-12.993a2.633 2.633 0 0 1-2.177.918 2.605 2.605 0 0 1-2.122-1.375 2.6 2.6 0 0 1 2.29-1.062c.818.055 1.562.49 2.013 1.175.066-6.871-.18-13.473-.184-13.587l.283-.014c.002.073.088 2.341.144 5.586a2.595 2.595 0 0 1 1.748-1.348"/><path fill="#e63744" d="M64.049 81.457c-.053.134-.13.262-.222.37.302.206.5.532.544.895.085-.207.222-.39.398-.529a1.28 1.28 0 0 1-.274-.676 1.312 1.312 0 0 1-.446-.061m-1.928.598a1.28 1.28 0 0 1-.552-.95 1.271 1.271 0 0 1 1.182-1.365c.169-.016.339.004.5.059a1.283 1.283 0 0 1 1.104-.822 1.274 1.274 0 0 1 1.37 1.148 1.28 1.28 0 0 1 1.323 1.176c.034.44-.165.847-.49 1.1.162.2.26.443.28.699a1.28 1.28 0 0 1-1.18 1.366c-.04.002-.07.006-.104.006a1.283 1.283 0 0 1-2.493-.322 1.273 1.273 0 0 1-.94-2.095"/><path fill="#a21927" d="M62.79 81.718a1.109 1.109 0 0 1 1.023-1.184 1.11 1.11 0 0 1 .908.356c.08-.02.155-.038.24-.042a1.108 1.108 0 0 1 1.194 1.017c.04.572-.364 1.08-.93 1.17v.015a1.1 1.1 0 0 1-1.02 1.184 1.106 1.106 0 0 1-.997-1.734 1.104 1.104 0 0 1-.417-.782"/><path fill="#e63744" d="M63.316 82.263a1.112 1.112 0 0 1 2.216-.167 1.112 1.112 0 0 1-2.216.167"/><path fill="#009244" d="M71.705 89.881a2.608 2.608 0 0 1 2.328.992 2.622 2.622 0 0 1-4.277.605c-.523 5.105-1.383 12.354-2.446 17.266l-.266-.101c.576-2.668 1.092-6.026 1.522-9.356a2.599 2.599 0 0 1-2.265.655 2.605 2.605 0 0 1-1.95-1.609 2.62 2.62 0 0 1 4.263.617c.877-6.819 1.419-13.4 1.427-13.518l.28.022c-.004.069-.188 2.336-.517 5.567a2.61 2.61 0 0 1 1.9-1.14"/><path fill="#e63744" d="M69.999 83.123c-.068.13-.156.244-.266.343.277.239.436.586.437.952.108-.198.267-.363.46-.479a1.242 1.242 0 0 1-.192-.7 1.305 1.305 0 0 1-.44-.116m-1.985.366a1.259 1.259 0 0 1-.43-1.009 1.281 1.281 0 0 1 1.333-1.22c.169.009.335.051.488.124a1.29 1.29 0 0 1 1.193-.689 1.279 1.279 0 0 1 1.227 1.304 1.27 1.27 0 0 1 .558 2.356c.137.217.203.47.19.727a1.28 1.28 0 0 1-1.331 1.22c-.037-.002-.07-.006-.1-.007a1.289 1.289 0 0 1-2.102.31c-.23-.249-.352-.579-.338-.918v-.004a1.279 1.279 0 0 1-1.095-1.313 1.3 1.3 0 0 1 .408-.881"/><path fill="#a21927" d="M68.722 83.235a1.104 1.104 0 0 1 1.155-1.054c.358.015.666.192.86.46.078-.015.157-.019.243-.015a1.101 1.101 0 1 1 0 2.202v.015a1.102 1.102 0 0 1-1.153 1.056 1.103 1.103 0 0 1-.785-1.838 1.088 1.088 0 0 1-.32-.826"/><path fill="#e63744" d="M69.175 83.839a1.108 1.108 0 0 1 1.156-1.056 1.106 1.106 0 0 1 1.063 1.151 1.107 1.107 0 0 1-1.158 1.055 1.107 1.107 0 0 1-1.062-1.15"/><path fill="#009244" d="M70.093 86.073a2.615 2.615 0 0 1 2.328.989 2.62 2.62 0 0 1-4.278.602c-.668 6.513-1.884 16.516-3.36 20.705l-.272-.093c.95-2.685 1.79-7.777 2.443-12.799a2.61 2.61 0 0 1-2.264.654 2.594 2.594 0 0 1-1.95-1.61 2.617 2.617 0 0 1 4.262.615c.88-6.813 1.415-13.399 1.428-13.513l.28.019a289.99 289.99 0 0 1-.517 5.567 2.591 2.591 0 0 1 1.9-1.136"/><path fill="#e63744" d="M68.389 79.31c-.07.131-.16.248-.268.348.27.232.435.57.435.95a1.32 1.32 0 0 1 .46-.48 1.248 1.248 0 0 1-.19-.706 1.16 1.16 0 0 1-.437-.112m-1.987.369a1.273 1.273 0 0 1-.436-1.009 1.283 1.283 0 0 1 1.827-1.1c.22-.425.68-.705 1.19-.685a1.275 1.275 0 0 1 1.229 1.3 1.275 1.275 0 0 1 1.17 1.322 1.254 1.254 0 0 1-.612 1.033c.137.218.205.473.195.73a1.283 1.283 0 0 1-1.335 1.222l-.105-.014a1.28 1.28 0 0 1-1.208.726 1.268 1.268 0 0 1-1.226-1.323v-.008a1.28 1.28 0 0 1-1.095-1.315c.015-.335.16-.65.406-.879"/><path fill="#a21927" d="M67.11 79.422a1.105 1.105 0 0 1 1.155-1.054c.352.017.663.194.856.462.078-.013.165-.02.247-.019.61.028 1.084.542 1.063 1.152a1.111 1.111 0 0 1-1.063 1.056v.015a1.105 1.105 0 0 1-1.153 1.056 1.108 1.108 0 0 1-.785-1.84 1.082 1.082 0 0 1-.32-.828"/><path fill="#e63744" d="M67.56 80.029a1.111 1.111 0 0 1 1.16-1.057 1.105 1.105 0 1 1-.092 2.207 1.11 1.11 0 0 1-1.067-1.15"/><path fill="#009244" d="M76.2 91.97a2.613 2.613 0 0 1 2.329.99 2.604 2.604 0 0 1-2.078 1.439 2.63 2.63 0 0 1-2.2-.834c-.448 4.393-1.151 10.381-2.014 15.095l-.278-.054c.43-2.4.798-4.811 1.105-7.23-.609.567-1.45.81-2.267.653a2.597 2.597 0 0 1-1.95-1.61 2.622 2.622 0 0 1 4.263.618c.877-6.817 1.419-13.4 1.43-13.514l.28.021c-.008.066-.192 2.331-.52 5.563a2.606 2.606 0 0 1 1.9-1.137"/><path fill="#e63744" d="M74.495 85.211a1.276 1.276 0 0 1-.266.344c.27.23.436.573.436.95.11-.196.268-.36.46-.478a1.258 1.258 0 0 1-.191-.702 1.255 1.255 0 0 1-.44-.115m-1.983.366a1.25 1.25 0 0 1-.433-1.005 1.282 1.282 0 0 1 1.333-1.224c.17.01.337.052.492.122.229-.44.693-.708 1.19-.685a1.274 1.274 0 0 1 1.227 1.302 1.275 1.275 0 0 1 1.174 1.323 1.268 1.268 0 0 1-.613 1.033 1.262 1.262 0 0 1-.263 1.644c-.273.23-.629.335-.982.292a1.293 1.293 0 0 1-1.212.725 1.276 1.276 0 0 1-1.225-1.325v-.008a1.28 1.28 0 0 1-1.096-1.314c.018-.349.17-.657.408-.88"/><path fill="#a21927" d="M73.216 85.324a1.108 1.108 0 0 1 1.157-1.056c.358.015.664.196.86.462a1.101 1.101 0 0 1 .243 2.185v.015a1.102 1.102 0 0 1-1.157 1.057 1.101 1.101 0 0 1-.781-1.836 1.099 1.099 0 0 1-.322-.827"/><path fill="#e63744" d="M73.672 85.925a1.105 1.105 0 0 1 1.157-1.054 1.105 1.105 0 1 1-.092 2.206 1.108 1.108 0 0 1-1.065-1.152"/><path fill="#009244" d="M75.726 85.838a2.621 2.621 0 0 1 2.33.99 2.62 2.62 0 0 1-4.276.605c-.67 6.511-1.888 16.514-3.365 20.701l-.27-.092c.95-2.68 1.79-7.772 2.444-12.8a2.603 2.603 0 0 1-2.267.656 2.596 2.596 0 0 1-1.946-1.608 2.607 2.607 0 0 1 2.405-.79c.805.149 1.491.67 1.852 1.405A314.356 314.356 0 0 0 74.06 81.39l.284.019c-.008.069-.19 2.337-.52 5.567a2.627 2.627 0 0 1 1.9-1.138"/><path fill="#e63744" d="M74.02 79.079a1.282 1.282 0 0 1-.262.343c.266.235.434.575.434.955.106-.2.265-.366.46-.482a1.264 1.264 0 0 1-.194-.7 1.336 1.336 0 0 1-.438-.116m-1.982.369a1.274 1.274 0 0 1 .9-2.228c.169.007.335.046.49.116a1.28 1.28 0 0 1 1.189-.685 1.28 1.28 0 0 1 1.228 1.303 1.272 1.272 0 0 1 .56 2.356c.135.218.203.47.194.727a1.285 1.285 0 0 1-1.334 1.22c-.033-.001-.071-.005-.104-.007a1.285 1.285 0 0 1-1.212.721 1.275 1.275 0 0 1-1.223-1.325v-.007a1.28 1.28 0 0 1-1.096-1.315c.014-.349.168-.657.408-.875"/><path fill="#a21927" d="M72.74 79.192a1.106 1.106 0 0 1 1.157-1.056c.359.013.665.194.86.463a1.106 1.106 0 0 1 1.308 1.132 1.105 1.105 0 0 1-1.063 1.053v.015a1.107 1.107 0 0 1-1.156 1.058 1.103 1.103 0 0 1-.78-1.84 1.084 1.084 0 0 1-.325-.825"/><path fill="#e63744" d="M73.199 79.795c.03-.61.545-1.082 1.155-1.059a1.107 1.107 0 0 1 .704 1.92 1.102 1.102 0 0 1-.794.289 1.102 1.102 0 0 1-1.065-1.15"/><path fill="#009244" d="M81.386 87.125a2.618 2.618 0 0 1 2.329.99 2.61 2.61 0 0 1-2.076 1.441 2.638 2.638 0 0 1-2.202-.836c-.671 6.509-1.887 16.512-3.365 20.705l-.264-.093c.946-2.687 1.785-7.777 2.442-12.8a2.62 2.62 0 0 1-4.217-.957 2.631 2.631 0 0 1 2.403-.791 2.622 2.622 0 0 1 1.859 1.41c.879-6.819 1.419-13.403 1.429-13.519l.282.025c-.006.069-.192 2.33-.52 5.563a2.599 2.599 0 0 1 1.9-1.138"/><path fill="#e63744" d="M79.682 80.366a1.24 1.24 0 0 1-.266.343c.266.233.434.576.434.953.11-.2.269-.362.46-.482a1.261 1.261 0 0 1-.191-.7 1.31 1.31 0 0 1-.437-.114m-1.985.369a1.273 1.273 0 0 1 .9-2.228c.17.007.336.046.49.116a1.28 1.28 0 0 1 1.19-.684c.695.027 1.24.605 1.226 1.3a1.277 1.277 0 0 1 1.176 1.323c-.017.44-.26.822-.615 1.036.136.217.203.47.192.727a1.279 1.279 0 0 1-1.335 1.218c-.034 0-.07-.006-.101-.008a1.285 1.285 0 0 1-1.212.723 1.276 1.276 0 0 1-1.228-1.326v-.008a1.273 1.273 0 0 1-1.091-1.313c.015-.346.168-.659.408-.875"/><path fill="#a21927" d="M78.4 80.48a1.114 1.114 0 0 1 2.016-.597.96.96 0 0 1 .247-.014c.61.023 1.084.54 1.06 1.148a1.11 1.11 0 0 1-1.06 1.056v.016a1.107 1.107 0 0 1-1.157 1.054 1.105 1.105 0 0 1-1.062-1.148c.01-.264.118-.504.28-.687a1.118 1.118 0 0 1-.324-.828"/><path fill="#e63744" d="M78.856 81.083a1.11 1.11 0 0 1 1.156-1.057c.61.023 1.087.537 1.065 1.148a1.115 1.115 0 0 1-1.158 1.059 1.108 1.108 0 0 1-1.063-1.15"/><path fill="#009244" d="M83.415 92.394c.897.061 1.7.58 2.125 1.372a2.622 2.622 0 0 1-4.318-.135c-1.18 4.155-2.856 9.764-4.486 14.217l-.277-.062a155.106 155.106 0 0 0 2.24-6.662 2.624 2.624 0 0 1-2.347.253 2.588 2.588 0 0 1-1.64-1.918 2.615 2.615 0 0 1 2.506-.365 2.59 2.59 0 0 1 1.584 1.7c2.047-6.567 3.719-12.958 3.75-13.07l.27.072c-.474 1.802-.966 3.6-1.475 5.392a2.608 2.608 0 0 1 2.068-.794"/><path fill="#e63744" d="M82.908 85.441a1.271 1.271 0 0 1-.32.296c.231.282.328.65.265 1.01a1.32 1.32 0 0 1 .538-.394 1.215 1.215 0 0 1-.07-.723 1.291 1.291 0 0 1-.413-.189m-2.018.023a1.274 1.274 0 0 1-.25-1.069 1.284 1.284 0 0 1 1.988-.77 1.282 1.282 0 1 1 2.275 1.022c.662.17 1.072.833.928 1.502a1.28 1.28 0 0 1-.79.916c.096.236.12.496.068.746a1.286 1.286 0 0 1-1.626.946 1.28 1.28 0 0 1-1.318.506 1.268 1.268 0 0 1-.978-1.515c0-.002 0-.007.003-.007a1.273 1.273 0 0 1-.854-1.48c.075-.327.274-.612.554-.797"/><path fill="#a21927" d="M81.627 85.333a1.117 1.117 0 0 1 2.09-.237 1.102 1.102 0 0 1-.135 2.194l-.002.017a1.115 1.115 0 0 1-1.325.841 1.105 1.105 0 0 1-.448-1.945 1.102 1.102 0 0 1-.18-.87"/><path fill="#e63744" d="M81.973 86.006a1.11 1.11 0 0 1 1.323-.841 1.102 1.102 0 0 1 .36 2.01 1.11 1.11 0 0 1-.837.146 1.106 1.106 0 0 1-.845-1.315"/><path fill="#009244" d="M22.22 111.592c-2.334-.39-4.088-1.959-4.088-3.833 0-.718.257-1.386.7-1.966-.443-.577-.7-1.249-.7-1.963 0-1.104.608-2.101 1.578-2.814a3.154 3.154 0 0 1-.488-1.662c0-2.171 2.336-3.928 5.212-3.928 1.475 0 2.802.46 3.748 1.2.946-1.002 2.497-1.66 4.253-1.66a6.576 6.576 0 0 1 1.882.27c.904-.568 2.062-.908 3.328-.908 2.258 0 4.176 1.083 4.903 2.598.913-.594 2.098-.954 3.4-.954.8-.002 1.593.142 2.34.424.957-.873 2.405-1.431 4.02-1.431 1.713 0 3.232.626 4.183 1.589a6.485 6.485 0 0 1 2.726-.582c1.074 0 2.075.246 2.91.672.875-1.241 2.606-2.086 4.6-2.086 1.84 0 3.456.719 4.387 1.802.905-.582 2.085-.934 3.373-.934a6.5 6.5 0 0 1 2.57.514c.916-.605 2.113-.975 3.426-.975 2.595 0 4.745 1.435 5.142 3.304 1.359.71 2.252 1.892 2.252 3.232 0 .763-.292 1.473-.793 2.076-.016.739-.3 1.424-.783 2.007.974.711 1.576 1.707 1.576 2.81 0 1.321-.865 2.484-2.185 3.198h-7.865a5.034 5.034 0 0 1-.75-.406c-.295.16-.62.294-.952.406H72c-.02-.008-.041-.012-.06-.02-.021.008-.042.012-.06.02h-4.124a6.31 6.31 0 0 1-.586-.223 4.626 4.626 0 0 1-.452.223h-5.314a5.52 5.52 0 0 1-.718-.39 5.654 5.654 0 0 1-.925.39h-4.125a6.462 6.462 0 0 1-.875-.36c-.18.13-.373.248-.58.36h-6.055a4.886 4.886 0 0 1-1.122-.822 4.886 4.886 0 0 1-1.122.822H39.83a5.814 5.814 0 0 1-.506-.308 5.958 5.958 0 0 1-.767.308h-4.125a5.45 5.45 0 0 1-1.157-.52 4.492 4.492 0 0 1-.785.52h-6.051a4.91 4.91 0 0 1-.607-.383 6.393 6.393 0 0 1-1.36.383H22.22"/><path fill="#035b2b" d="M26.877 101.34c0 .76-.617 1.376-1.384 1.376a1.379 1.379 0 0 1-1.381-1.376c0-.76.618-1.374 1.38-1.374.768 0 1.385.614 1.385 1.374m4.12 6.49a.849.849 0 1 1-1.697 0c0-.464.38-.843.85-.843.467 0 .848.379.848.843m3.756-6.691a.617.617 0 1 1-1.235 0 .617.617 0 0 1 1.235 0m9.27 5.84a.613.613 0 0 1-.616.613.616.616 0 0 1 0-1.231c.343 0 .617.275.617.618m36.114-3.613a.618.618 0 0 1-1.235 0c0-.341.277-.613.618-.613.34 0 .617.272.617.613m-34.27.892a.869.869 0 0 1-.875.866.87.87 0 0 1-.872-.866c0-.48.393-.868.872-.868a.87.87 0 0 1 .875.868m13.935 2.102a.873.873 0 0 1-1.746 0c0-.475.392-.865.875-.865a.87.87 0 0 1 .87.866m9.938-6.681a.871.871 0 1 1-1.743 0 .871.871 0 0 1 1.743 0m7.32 7.983c0 .69-.563 1.252-1.26 1.252-.695 0-1.26-.561-1.26-1.252s.565-1.253 1.26-1.253c.697 0 1.26.562 1.26 1.253"/><path fill="#82a74e" d="M31.684 111.592h-.424v-16.29c0-2.539-2.082-4.606-4.634-4.606h-.244c-2.554 0-4.636 2.067-4.636 4.606v16.29h-.423v-16.29c0-2.773 2.267-5.026 5.06-5.026h.243c2.79 0 5.059 2.253 5.059 5.026v16.29z"/><path fill="#82a74e" d="M36.897 111.592h-.43v-16.29c0-2.539-2.075-4.606-4.632-4.606h-.243c-2.554 0-4.632 2.067-4.632 4.606v16.29h-.423v-16.29c0-2.773 2.267-5.026 5.055-5.026h.243c2.79 0 5.062 2.253 5.062 5.026z"/><path fill="#82a74e" d="M41.62 111.592h-.421v-16.29c0-2.539-2.08-4.606-4.638-4.606h-.243c-2.557 0-4.632 2.067-4.632 4.606v16.29h-.425v-16.29c0-2.773 2.269-5.026 5.057-5.026h.243c2.792 0 5.06 2.253 5.06 5.026v16.29z"/><path fill="#82a74e" d="M46.834 111.592h-.427v-16.29c0-2.539-2.08-4.606-4.632-4.606h-.243c-2.557 0-4.635 2.067-4.635 4.606v16.29h-.428v-16.29c0-2.773 2.27-5.026 5.063-5.026h.243c2.788 0 5.059 2.253 5.059 5.026z"/><path fill="#82a74e" d="M51.557 111.592h-.423v-16.29c0-2.539-2.08-4.606-4.634-4.606h-.243c-2.558 0-4.636 2.067-4.636 4.606v16.29H41.2v-16.29c0-2.773 2.267-5.026 5.057-5.026h.243c2.79 0 5.057 2.253 5.057 5.026z"/><path fill="#82a74e" d="M56.767 111.592h-.423v-16.29c0-2.539-2.08-4.606-4.634-4.606h-.243c-2.555 0-4.632 2.067-4.632 4.606v16.29h-.427v-16.29c0-2.773 2.269-5.026 5.059-5.026h.243c2.79 0 5.057 2.253 5.057 5.026z"/><path fill="#82a74e" d="M61.494 111.592h-.423v-16.29c0-2.539-2.08-4.606-4.634-4.606h-.247c-2.554 0-4.632 2.067-4.632 4.606v16.29h-.423v-16.29c0-2.773 2.273-5.026 5.055-5.026h.247c2.789 0 5.058 2.253 5.058 5.026v16.29z"/><path fill="#82a74e" d="M66.706 111.592h-.425v-16.29c0-2.539-2.075-4.606-4.634-4.606h-.243c-2.554 0-4.636 2.067-4.636 4.606v16.29h-.423v-16.29c0-2.773 2.267-5.026 5.06-5.026h.242c2.79 0 5.06 2.253 5.06 5.026v16.29z"/><path fill="#82a74e" d="M71.434 111.592h-.423v-16.29c0-2.539-2.084-4.606-4.636-4.606h-.246c-2.554 0-4.634 2.067-4.634 4.606v16.29h-.423v-16.29c0-2.773 2.267-5.026 5.057-5.026h.246c2.786 0 5.059 2.253 5.059 5.026z"/><path fill="#82a74e" d="M76.642 111.592h-.421v-16.29c0-2.539-2.08-4.606-4.638-4.606h-.242c-2.554 0-4.634 2.067-4.634 4.606v16.29h-.425v-16.29c0-2.773 2.27-5.026 5.06-5.026h.24c2.793 0 5.06 2.253 5.06 5.026z"/><path fill="#82a74e" d="M81.369 111.592h-.427v-16.29c0-2.539-2.076-4.606-4.634-4.606h-.243c-2.555 0-4.63 2.067-4.63 4.606v16.29h-.424v-16.29c0-2.773 2.268-5.026 5.054-5.026h.243c2.79 0 5.06 2.253 5.06 5.026z"/><path fill="#82a74e" d="M86.58 111.592h-.424v-16.29c0-2.539-2.08-4.606-4.638-4.606h-.24c-2.554 0-4.635 2.067-4.635 4.606v16.29h-.422v-16.29c0-2.773 2.268-5.026 5.058-5.026h.239c2.79 0 5.063 2.253 5.063 5.026z"/><path fill="#f7b90b" d="M65.54 111.231c1.673 1.022 2.885 3.12 1.453 4.822-1.078 1.2-2.668.256-3.875-.25-1.337-.632-2.866-1.074-4.07-1.895-.781-.547-1.697-1.131-2.223-1.94-.165-.249-.245-.495-.182-.737h.004l-.303-10.597h10.172l-.967 10.597h-.008m-10.113 0c.059.234-.02.488-.184.736-.526.81-1.442 1.394-2.225 1.94-1.208.822-2.73 1.264-4.065 1.895-1.208.507-2.798 1.451-3.876.25-1.43-1.701-.216-3.791 1.452-4.821h-.006l-.972-10.597h10.19l-.306 10.597z"/><path fill="#775a4d" d="M26.439 47.185c1.115-.47 2.45-.04 3.532.996.488-.733 1.064-1.142 1.604-1.038 1.006.193 1.473 2.098 1.053 4.258a7.567 7.567 0 0 1-.754 2.158 4.59 4.59 0 0 1-.193.767l5.09 5.944 10.807-3.847s-1.84 2.899-2.288 3.955c-.334.771-.97 3.207-.97 3.207s-7.894 3.19-10.135 2.381c-2.765-.995-5.944-9.961-5.944-9.961h.002c-1.19-.423-2.345-1.551-3.008-3.116-1.04-2.432-.502-4.984 1.204-5.704" data-paper-data="{&quot;origPos&quot;:null}"/><path fill="#dda20c" d="M30.527 47.718c2.139 6.366-4.331 18.765-4.331 18.765s-.084-.241-.228-.671c.372-.72 5.94-11.646 4.004-17.402l-.002.002c-1.231-3.661-4.262-6.098-6.721-5.281-2.233.742-3.38 3.631-2.955 5.81a2.652 2.652 0 0 0-.055-.165c-.797-2.37.47-5.893 3.048-6.753 2.648-.877 5.898 1.713 7.237 5.695z"/><path fill="#f6b90c" d="m12.09 44.641 6.78-1.723 9.383 24.826-12.424 3.152z"/><path fill="#f6b90c" d="M15.654 69.647 5.828 55.386l-2.49-.265L6.988 52l-.025 2.526 7.71 8.258z"/><path fill="#dda20c" d="M5.506 53.949c-1.013.856-2 1.357-2.202 1.115-.207-.236.452-1.125 1.463-1.98 1.017-.856 2-1.355 2.202-1.117.205.238-.452 1.127-1.463 1.982m13.73-10.964a.471.471 0 0 1-.345.575l-6.466 1.64a.474.474 0 0 1-.58-.339l-.002-.017a.47.47 0 0 1 .342-.576l6.467-1.645a.48.48 0 0 1 .58.343z"/><path fill="#6a97c0" d="M3.359 56.424c.238.583.985 1.533 1 1.553.209.234.3.545.3.883 0 .73-.595 1.32-1.33 1.32-.735 0-1.331-.59-1.331-1.32 0-.338.09-.649.302-.883.012-.019.809-.982 1.06-1.553m-2.5 3.251c.15.367.629.975.637.986.136.148.192.344.192.561a.842.842 0 0 1-.843.84.842.842 0 0 1-.845-.84.823.823 0 0 1 .19-.561c.008-.011.513-.626.67-.986"/><path fill="#775a4d" d="M32.708 51.116c-.307 2.056-1.335 3.614-2.296 3.472-.956-.141-1.48-1.927-1.172-3.988.31-2.06 1.336-3.618 2.296-3.477.955.145 1.482 1.928 1.172 3.993M72.307 61.63c3.397 4.317 4.7 17.287 4.7 17.287s-.005-.019-.006-.057c.438.626.744 1.445.84 2.356.23 2.17-.814 4.062-2.332 4.218-.994.106-1.942-.554-2.543-1.625-.563.458-1.12.643-1.52.433-.744-.395-.657-2.011.197-3.614.293-.56.67-1.072 1.116-1.52.034-.067.067-.132.103-.195 0 0-1.474-9.367-3.05-11.584-.79-1.108-1.296-1.732-1.476-2.225-.148-.396-.307-1.154-.372-1.44-.507-2.222-3.272-7.24-3.272-7.24s5.963 3.105 7.615 5.206" data-paper-data="{&quot;origPos&quot;:null}"/><path fill="#82a74e" d="M38.177 59.482s2.243-1.028 9.854-3.285c2.116-1.005 6.383-1.245 6.383-1.245l1.627.053h.136l1.63-.024s4.835.19 6.763 1.368v.01c7.468 2.86 9.66 7.521 9.66 7.521-.767 3.003-5.064 3.005-5.064 3.005l-.42-.61c1.864 9.131 2.098 20.767 2.098 20.767H41.377s.284-14.026 2.693-23.343l-4.62 1.824s-2.044-3.514-1.273-6.041"/><path fill="#0771b7" d="M70.537 80.643c.255 3.749.305 6.393.305 6.393 0 3.803-4.328 13.591-4.328 13.591H56.296l-.138-6.92h-.266l-.14 6.918-10.217.007s-4.16-9.77-4.16-13.59c.057-2.136.161-4.271.312-6.403 4.977-3.972 7.085-12.407 7.085-12.407V55.897a14.954 14.954 0 0 1 2.362-.555v12.892h9.939v-12.91c.789.125 1.635.296 2.36.532v12.362s2.119 8.452 7.105 12.426"/><path fill="#0b4768" d="M69.358 86.614c-2.937 0-6.618-1.15-7.962-3.348-.02-.026-.01-.066.02-.086a.064.064 0 0 1 .085.023c1.323 2.164 4.952 3.293 7.857 3.293a.06.06 0 0 1 .06.061c0 .032-.026.057-.06.057m-26.634 0c2.939 0 6.612-1.15 7.96-3.348.019-.026.009-.066-.017-.086-.03-.015-.068-.007-.083.023-1.325 2.164-4.954 3.293-7.86 3.293a.06.06 0 0 0-.06.061c0 .032.025.057.06.057"/><path fill="#0c6084" d="M61.072 73.053v4.876c0 2.661-2.17 4.82-4.85 4.82h-.24c-2.68 0-4.846-2.159-4.846-4.82v-4.876z"/><path fill="#775a4d" d="M59.688 55.122c-1.047-.11-1.82-.17-1.82-.17l-1.628-.011h-.138l-1.628-.019s-.848.106-1.978.241l3.664 4.96zm17.339-19.055c1.084.693 1.796 1.875 1.796 3.213 0 2.131-1.803 3.854-4.033 3.854h-.195a21.14 21.14 0 0 1-18.47 10.785 21.157 21.157 0 0 1-18.48-10.806 4.318 4.318 0 0 1-.442.021c-2.235 0-4.037-1.723-4.037-3.854 0-1.439.82-2.692 2.04-3.356a21.124 21.124 0 0 1-.217-3.015c0-11.604 9.462-21.007 21.137-21.007 11.678 0 21.138 9.403 21.138 21.007 0 1.074-.08 2.128-.237 3.158" data-paper-data="{&quot;origPos&quot;:null}"/><path fill="#343434" d="M49.913 31.096c-.772-.174-.908-1.201-3.386-.74-.78.18-2.417 1.156-2.732 1.808-.316.652-.088-2.392 2.457-3.522 1.835-.675 2.457-.642 3.977-.642s1.987.907 1.766 1.65c0 0-.503 1.803-2.082 1.446zm13.905 0c.772-.174.908-1.201 3.386-.74.779.18 2.417 1.156 2.732 1.808.316.652.087-2.392-2.457-3.522-1.835-.675-2.457-.642-3.977-.642s-1.987.907-1.766 1.65c0 0 .503 1.803 2.082 1.446zM49.684 37c0 1.657-.895 3-2 3s-2-1.343-2-3 .895-3 2-3 2 1.343 2 3m18 0c0 1.657-.895 3-2 3s-2-1.343-2-3 .895-3 2-3 2 1.343 2 3"/><path fill="#eeac6c" d="M56.704 40.069c-1.125.153-3.02 1.834-3.02 1.834s.207-1.009.503-1.299c.8-1.156 2.487-1.604 2.487-1.604s2.173.703 2.65 1.588c.443.824.34 1.238.34 1.238s-2.121-1.871-2.96-1.756zM49.884 43.696s6.897 3.208 13.172-.397c0 0-1.39 5.47-5.95 5.561-4.115.122-4.984-1.492-5.477-1.956-.492-.463-1.42-1.772-1.745-3.208"/><path fill="#333433" d="M78.104 30.169c.034 2.47-.835 7.809-2.526 10.991 0 0-4.16-11.694-7.582-13.546-4.19-2.265-15.22 1-18.96-1.935-.624-.485-.55-1.589-.55-1.589s-.718 1.406-1.062 1.796c-1.814 2.05-6.514 5.017-8.744 6.612-1.794 1.281-1.876 1.266-1.476 8.662 0 0-3.3-6.724-3.116-11.22.048-1.292.68-4.162 1.708-7.084A22.723 22.723 0 0 1 56.13 10.343c10.229 0 18.884 6.726 21.723 15.968.142 1.281.226 2.569.25 3.858"/><path fill="#775a4d" d="M54.482 56.587c-.988 0-1.791-2.107-1.791-3.07h7.03c0 .963-.798 3.07-1.786 3.07h-3.453" data-paper-data="{&quot;origPos&quot;:null}"/><path fill="#eeac6c" d="M53.45 55.679a5 5 0 0 1-.743-2.034c2.32.373 4.685.365 7.003-.025l-.014.013-6.246 2.047"/><path fill="#ce8f64" d="M29.495 22.967c0-1.415 17.933-10.765 27.025-10.765 11.386 0 26.027 9.7 26.027 10.8 0 1.096-17.864-.206-26.027-.217-8.167-.006-27.025 2.542-27.025.182"/><path fill="#814915" d="M66.248 1.72c0 1.111-4.21 4.002-9.41 4.002-5.195 0-9.41-2.891-9.41-4.002 0-1.118 4.216-1.72 9.41-1.72 5.2 0 9.41.601 9.41 1.719"/><path fill="#ce8f64" d="M73.485 17.014c-2.96 3.643-30.6 3.325-33.932.014l7.876-15.342c1.433.666 2.917.91 4.136 1.566 5.2 2.813 5.2 2.813 9.925.185 1.385-.771 3.116-.977 4.786-1.751l7.21 15.328z"/><path fill="#82a74e" d="M73.485 17.014c-2.96 3.643-30.6 3.325-33.932.014l2.128-4.138c11.354 2.56 18.482 2.56 29.864 0l1.94 4.124"/></g></svg>