<svg version="1.1" xmlns="http://www.w3.org/2000/svg" xmlns:xlink="http://www.w3.org/1999/xlink" width="102.58008" height="112.45161" viewBox="0,0,102.58008,112.45161"><g transform="translate(-189.00046,-123.19795)"><g data-paper-data="{&quot;isPaintingLayer&quot;:true}" fill-rule="evenodd" stroke="none" stroke-width="1" stroke-linecap="butt" stroke-linejoin="miter" stroke-miterlimit="10" stroke-dasharray="" stroke-dashoffset="0" style="mix-blend-mode: normal"><path d="M230.851,166.597c0.007,-0.004 13.319,1.817 17.172,-0.788c2.164,-1.462 1.434,3.15 -1.51,6.507c-2.287,2.608 -1.68,6.925 -9.05,3.731c-2.375,-1.03 -6.477,-5.269 -6.515,-7.951c0,-0.007 -0.629,-1.148 -0.097,-1.5" data-paper-data="{&quot;origPos&quot;:null}" fill="#ffdb8d"/><path d="M232.902,178.187c4.123,6.115 -48.37,-8.931 -43.594,-28.042c6.122,-24.501 36.632,20.379 42.954,27.092z" fill="#98d3d8"/><path d="M220.372,162.613c4.006,4.422 9.902,10.633 12.566,15.851c1.279,2.503 -7.386,1.233 -16.596,-2.589c-1.491,-0.62 7.03,0.86 8.002,-2.008c1.148,-3.384 -4.66,-12.014 -3.972,-11.254" fill="#58bdc1"/><path d="M231.659,179.274l0.82,0.395c5.271,2.539 -36.552,13.008 -40.994,-1.898c-5.695,-19.11 33.165,-0.575 40.175,1.503z" fill="#f5bab6"/><path d="M232.38,179.668c2.548,1.228 -5.905,4.308 -15.822,5.479c-1.606,0.189 6.639,-2.311 6.056,-5.281c-0.688,-3.505 -9.987,-7.567 -9.01,-7.242c7.801,2.594 15.251,5.848 17.957,6.65z" fill="#ee8785"/><path d="M222.024,170.926c0.425,0.076 1.165,1.664 0.174,2.008c-2.723,0.944 -2.082,-1.71 -1.296,-1.926c0.216,-0.06 0.874,-0.127 1.122,-0.082M217.952,169.582c1.877,-0.25 2.505,2.517 -0.008,1.955c-0.426,-0.095 -1.457,-1.76 0.008,-1.955M215.013,167.647c1.877,-0.25 2.505,2.517 -0.008,1.955c-0.426,-0.095 -1.457,-1.76 0.008,-1.955M213.427,165.95c0.32,0.058 0.877,1.254 0.13,1.513c-2.051,0.711 -1.569,-1.287 -0.976,-1.45c0.163,-0.046 0.659,-0.096 0.846,-0.062M209.805,163.657c1.878,-0.25 2.506,2.517 -0.007,1.955c-0.426,-0.095 -1.457,-1.76 0.007,-1.955M208.22,161.96c0.319,0.058 0.877,1.254 0.13,1.513c-2.052,0.712 -1.57,-1.287 -0.977,-1.45c0.163,-0.045 0.66,-0.096 0.847,-0.062M205.717,160.105c0.32,0.057 0.878,1.253 0.131,1.512c-2.052,0.711 -1.569,-1.287 -0.977,-1.45c0.163,-0.046 0.66,-0.096 0.846,-0.062M203.052,157.661c0.32,0.058 0.878,1.254 0.13,1.513c-2.051,0.71 -1.569,-1.288 -0.976,-1.451c0.163,-0.045 0.659,-0.096 0.846,-0.062M200.485,154.924c0.32,0.058 0.877,1.254 0.13,1.513c-2.051,0.71 -1.568,-1.288 -0.976,-1.451c0.163,-0.045 0.659,-0.096 0.846,-0.062M198.017,152.48c0.32,0.058 0.877,1.254 0.13,1.513c-2.051,0.711 -1.569,-1.287 -0.976,-1.45c0.163,-0.046 0.659,-0.096 0.846,-0.062M195.746,149.744c0.32,0.057 0.877,1.253 0.13,1.512c-2.051,0.711 -1.568,-1.287 -0.976,-1.45c0.163,-0.046 0.66,-0.096 0.846,-0.062" fill="#c7e6ea"/><path d="M219.138,178.232c0.31,-0.125 1.46,0.607 0.957,1.24c-1.382,1.737 -2.078,-0.26 -1.656,-0.725c0.117,-0.128 0.518,-0.442 0.7,-0.515M215.914,179.03c1.12,-0.936 2.694,0.613 0.816,1.28c-0.319,0.114 -1.691,-0.55 -0.816,-1.28M213.181,178.976c1.121,-0.936 2.694,0.613 0.817,1.28c-0.319,0.113 -1.692,-0.55 -0.817,-1.28M211.433,178.52c0.233,-0.094 1.1,0.459 0.72,0.935c-1.04,1.309 -1.565,-0.195 -1.247,-0.546c0.088,-0.096 0.39,-0.333 0.527,-0.388M208.105,178.513c1.12,-0.936 2.694,0.613 0.816,1.28c-0.319,0.113 -1.691,-0.55 -0.816,-1.28M206.357,178.058c0.232,-0.094 1.099,0.457 0.72,0.934c-1.041,1.309 -1.565,-0.196 -1.247,-0.546c0.087,-0.096 0.39,-0.333 0.527,-0.388M203.943,177.875c0.233,-0.094 1.1,0.458 0.72,0.935c-1.041,1.308 -1.565,-0.196 -1.247,-0.547c0.088,-0.096 0.39,-0.333 0.527,-0.388M201.175,177.376c0.233,-0.094 1.1,0.458 0.721,0.935c-1.042,1.308 -1.565,-0.196 -1.248,-0.546c0.089,-0.097 0.391,-0.334 0.527,-0.389M198.35,176.645c0.232,-0.094 1.099,0.458 0.72,0.934c-1.041,1.309 -1.565,-0.195 -1.247,-0.546c0.087,-0.096 0.39,-0.333 0.526,-0.388M195.71,176.065c0.234,-0.095 1.1,0.458 0.722,0.934c-1.041,1.309 -1.566,-0.196 -1.248,-0.546c0.088,-0.097 0.39,-0.333 0.527,-0.388M193.078,175.212c0.234,-0.095 1.1,0.458 0.721,0.934c-1.041,1.309 -1.565,-0.196 -1.247,-0.546c0.087,-0.097 0.39,-0.333 0.526,-0.388" fill="#f8d2cf"/><path d="M248.319,176.515c6.321,-6.713 36.832,-51.593 42.954,-27.092c4.776,19.111 -47.717,34.158 -43.595,28.043l0.641,-0.95z" fill="#98d3d8"/><path d="M260.209,161.89c0.688,-0.758 -5.12,7.87 -3.973,11.255c0.973,2.869 9.494,1.389 8.003,2.008c-9.211,3.822 -17.875,5.093 -16.597,2.59c2.665,-5.219 8.56,-11.43 12.567,-15.852" fill="#58bdc1"/><path d="M248.92,178.553c7.01,-2.079 45.87,-20.613 40.176,-1.503c-4.443,14.905 -46.266,4.437 -40.994,1.897l0.819,-0.394z" fill="#f5bab6"/><path d="M249.02,178.552c2.705,-0.802 10.156,-4.056 17.957,-6.65c0.976,-0.324 -8.323,3.737 -9.01,7.242c-0.584,2.97 7.662,5.47 6.056,5.282c-9.917,-1.172 -18.37,-4.252 -15.823,-5.479z" fill="#ee8785"/><path d="M258.556,170.204c0.248,-0.044 0.906,0.022 1.123,0.082c0.785,0.217 1.426,2.87 -1.296,1.926c-0.991,-0.344 -0.251,-1.931 0.173,-2.008M262.629,168.861c1.465,0.195 0.433,1.859 0.008,1.955c-2.514,0.561 -1.885,-2.206 -0.008,-1.956M265.568,166.925c1.464,0.195 0.433,1.86 0.008,1.955c-2.514,0.562 -1.885,-2.205 -0.008,-1.955M267.154,165.229c0.187,-0.034 0.683,0.016 0.846,0.062c0.592,0.163 1.074,2.162 -0.976,1.45c-0.747,-0.259 -0.19,-1.455 0.13,-1.512M270.775,162.935c1.465,0.196 0.433,1.86 0.008,1.955c-2.514,0.562 -1.885,-2.205 -0.008,-1.955M272.361,161.239c0.187,-0.033 0.683,0.017 0.846,0.062c0.593,0.163 1.075,2.161 -0.976,1.451c-0.747,-0.259 -0.19,-1.455 0.13,-1.512M274.863,159.383c0.187,-0.034 0.683,0.017 0.846,0.062c0.593,0.163 1.075,2.162 -0.976,1.45c-0.748,-0.259 -0.19,-1.455 0.13,-1.512M277.529,156.939c0.186,-0.033 0.683,0.017 0.846,0.062c0.592,0.163 1.074,2.162 -0.976,1.451c-0.748,-0.259 -0.19,-1.455 0.13,-1.512M280.096,154.202c0.187,-0.033 0.683,0.017 0.845,0.062c0.593,0.163 1.075,2.162 -0.975,1.451c-0.748,-0.259 -0.19,-1.455 0.13,-1.513M282.564,151.759c0.187,-0.034 0.683,0.016 0.846,0.062c0.592,0.163 1.074,2.161 -0.976,1.45c-0.748,-0.259 -0.19,-1.455 0.13,-1.512M284.835,149.022c0.186,-0.034 0.683,0.016 0.846,0.061c0.592,0.164 1.074,2.163 -0.976,1.452c-0.748,-0.26 -0.19,-1.456 0.13,-1.513" fill="#c7e6ea"/><path d="M261.442,177.51c0.181,0.073 0.583,0.388 0.699,0.516c0.422,0.464 -0.273,2.461 -1.655,0.724c-0.504,-0.632 0.646,-1.365 0.956,-1.24M264.667,178.309c0.874,0.73 -0.498,1.393 -0.816,1.28c-1.878,-0.668 -0.305,-2.216 0.816,-1.28M267.399,178.254c0.875,0.73 -0.498,1.394 -0.816,1.28c-1.878,-0.667 -0.305,-2.216 0.817,-1.28M269.148,177.799c0.136,0.055 0.439,0.292 0.527,0.389c0.317,0.35 -0.207,1.854 -1.247,0.545c-0.38,-0.477 0.487,-1.028 0.72,-0.934M272.476,177.791c0.874,0.73 -0.498,1.394 -0.816,1.28c-1.878,-0.667 -0.305,-2.216 0.816,-1.28M274.224,177.336c0.137,0.055 0.439,0.292 0.527,0.388c0.318,0.351 -0.206,1.856 -1.247,0.546c-0.38,-0.476 0.487,-1.028 0.72,-0.934M276.638,177.154c0.137,0.055 0.439,0.291 0.527,0.388c0.317,0.35 -0.207,1.855 -1.247,0.546c-0.38,-0.477 0.487,-1.029 0.72,-0.934M279.406,176.654c0.136,0.056 0.438,0.293 0.526,0.389c0.318,0.351 -0.206,1.854 -1.247,0.546c-0.379,-0.477 0.487,-1.029 0.721,-0.935M282.231,175.923c0.137,0.055 0.439,0.292 0.527,0.389c0.318,0.35 -0.206,1.854 -1.247,0.546c-0.38,-0.477 0.487,-1.029 0.72,-0.935M284.87,175.343c0.136,0.055 0.439,0.292 0.526,0.388c0.319,0.351 -0.206,1.856 -1.247,0.546c-0.379,-0.476 0.487,-1.028 0.721,-0.934M287.502,174.49c0.137,0.055 0.439,0.291 0.527,0.388c0.318,0.35 -0.207,1.856 -1.247,0.546c-0.38,-0.476 0.487,-1.028 0.72,-0.934" fill="#f8d2cf"/><path d="M258.943,162.9c-2.356,0.887 -5.72,1.441 -5.659,3.211c0.199,5.786 -1.356,8.256 2.567,5.1c5.028,-4.046 21.789,-12.045 24.195,-19.255c0.514,-1.538 -1.088,-2.621 -1.966,-4.09c-0.033,-0.056 -1.482,3.938 -2.335,4.97c-2.059,2.489 -13.649,8.874 -16.802,10.064M222.512,176.426c2.357,-0.888 5.72,-1.442 5.659,-3.212c-0.198,-5.786 1.357,-8.256 -2.566,-5.098c-4.282,3.445 -16.374,9.003 -21.48,14.9v-0.001c-1.256,0.995 -4.018,2.088 -5.546,2.401c-0.466,0.095 -4.638,0.993 -2.504,1.238c0.86,0.098 1.568,0.006 2.476,-0.098c-0.456,0.188 -2.942,1.262 -3.603,1.531c-0.469,0.191 -0.62,0.311 -0.598,0.396c0.254,0.982 4.602,-0.832 4.6,-0.828c-0.694,1.157 -5.587,2.316 -4.311,2.946c0.874,0.431 3.493,-1.425 4.703,-1.667c0.456,-0.091 -4.078,2.326 -3.016,2.896c2.498,-0.684 4.705,-2.398 5.605,-2.708c-0.197,1.113 -0.52,2.878 -0.27,3.176c0.431,0.513 0.828,0.808 1.243,-0.957c0.162,-0.688 0.545,-1.345 0.955,-1.993c0.577,-0.556 1.336,-2.66 2.047,-3.352c2.333,-2.27 13.926,-8.56 16.606,-9.57M226.197,206.987c0.503,-1.684 5.675,-2.317 7.422,-2.317c5.041,0 4.918,17.64 4.918,22.086c0,11.758 -5.827,5.053 -5.655,2.983c0.487,-5.862 -7.085,-21.409 -6.685,-22.752M245.622,208.194c-0.138,-1.751 4.465,-4.171 6.098,-4.789c4.707,-1.781 10.954,14.74 12.557,18.893c4.241,10.983 -3.62,6.779 -4.205,4.785c-1.659,-5.648 -14.34,-17.493 -14.45,-18.889" data-paper-data="{&quot;origPos&quot;:null}" fill="#ffdb8d"/><path d="M216.638,152.518c-1.196,-26.545 43.262,-25.191 44.247,-4.334c1.289,27.244 -43.374,23.717 -44.247,4.334" data-paper-data="{&quot;origPos&quot;:null}" fill="#ffdb8d"/><path d="M252.206,147.924c1.12,0 4.65,1.411 3.363,4.307c-1.285,2.894 -4.671,2.77 -5.913,0.942c-1.215,-1.788 -0.335,-5.249 2.55,-5.249" fill="#fefefe"/><path d="M249.005,150.247c0.231,-0.62 0.436,-1.146 1.231,-1.932c1.598,-1.58 3.905,-0.77 5.281,0.599c1.213,1.206 2.35,-0.367 1.644,0.332c-2.01,1.986 -4.501,-2.116 -6.984,-0.28c-0.068,0.05 -1.178,1.297 -1.172,1.281" fill="#210001"/><path d="M253.506,149.085c0.676,0 2.806,0.852 2.029,2.598c-0.775,1.746 -2.817,1.671 -3.567,0.569c-0.733,-1.079 -0.202,-3.167 1.538,-3.167" fill="#231916"/><path d="M227.516,147.924c2.885,0 3.765,3.461 2.55,5.249c-1.241,1.828 -4.628,1.952 -5.913,-0.942c-1.287,-2.896 2.243,-4.307 3.363,-4.307" fill="#fefefe"/><path d="M228.915,149.085c1.74,0 2.272,2.088 1.539,3.167c-0.749,1.102 -2.792,1.177 -3.567,-0.569c-0.777,-1.746 1.353,-2.598 2.028,-2.598" fill="#231916"/><path d="M230.762,150.247c0.006,0.016 -1.104,-1.231 -1.172,-1.281c-2.483,-1.836 -4.974,2.266 -6.984,0.28c-0.706,-0.699 0.431,0.874 1.644,-0.332c1.376,-1.369 3.683,-2.179 5.28,-0.599c0.796,0.786 1,1.312 1.232,1.932" fill="#210001"/><path d="M238.554,151.226c1.021,0.033 -1.887,-0.407 -2.269,2.458c-0.381,2.864 2.887,4.018 1.037,3.184c-3.193,-1.441 -3.07,-5.782 1.232,-5.642" fill="#f1c28c"/><path d="M250.056,143.417c1.803,-1.456 4.354,-1.453 5.67,0.659c0.236,0.38 -0.094,0.65 -1.258,0.027c-0.99,-0.53 -2.435,-0.769 -3.536,-0.514c-0.306,0.071 -0.654,0.424 -0.939,0.141c0.02,-0.16 -0.092,-0.188 0.063,-0.313M230.586,143.417c-1.803,-1.456 -4.353,-1.453 -5.669,0.659c-0.236,0.38 0.094,0.65 1.258,0.027c0.989,-0.53 2.435,-0.769 3.535,-0.514c0.306,0.071 0.655,0.424 0.94,0.141c-0.02,-0.16 0.092,-0.188 -0.064,-0.313" fill="#a05a22"/><path d="M254.467,149.619c0.313,0 1.296,0.393 0.938,1.2c-0.358,0.807 -1.302,0.773 -1.648,0.263c-0.34,-0.498 -0.094,-1.463 0.71,-1.463M229.458,149.602c0.312,0 1.297,0.393 0.937,1.2c-0.358,0.807 -1.302,0.772 -1.648,0.263c-0.339,-0.498 -0.093,-1.464 0.711,-1.464" fill="#fefefe"/><path d="M234.768,160.608c1.778,-0.153 1.416,0.746 3.193,-0.58c0.966,-0.72 0.806,1.134 1.747,-0.013c0.581,-0.707 0.54,0.453 1.663,0.772c0.655,0.186 2.56,-0.11 1.7,0.17c-0.188,0.06 -1.582,0.543 -1.59,0.55c-2.138,2.27 -3.803,1.053 -4.93,-0.16c-0.224,-0.241 -1.628,-0.753 -1.783,-0.74" fill="#ee8785"/><path d="M238.269,161.223c0.738,0.15 1.069,0.187 1.788,-0.08c-0.212,0.313 -1.018,0.666 -1.788,0.08" fill="#d76b6c"/><path d="M225.15,157.384c-0.033,-1.054 3.726,-1.504 3.54,0.349c-0.052,0.523 -3.487,1.331 -3.54,-0.349M250.231,157.384c-0.033,-1.054 3.725,-1.504 3.54,0.349c-0.052,0.523 -3.487,1.331 -3.54,-0.349" fill="#f5bab6"/><path d="M216.755,153.756c-10.398,-33.103 51.648,-37.043 43.796,-0.497c-0.18,0.837 -0.353,-4.327 -3.065,-8.399c-2.969,-4.459 -8.492,-7.86 -8.492,-6.77c0,0.371 1.239,1.376 1.804,2.666c-1.536,-0.78 -2.673,-1.604 -3.225,-1.304c-0.431,0.234 0.445,0.547 1.988,1.868c-1.332,-0.368 -7.53,-3.148 -6.11,-2.145c0.766,0.542 3.59,3.044 2.571,3.046c-2.94,-1.201 -5.599,-2.884 -7.06,-2.971c-10.305,-0.614 -19.697,3.337 -22.207,14.506" fill="#a05a22"/><path d="M222.449,136.595c-1.471,-0.516 -0.083,-2.118 -2.505,-4.619c-1.137,-1.172 -4.725,-0.41 -5.856,0.634c-1.459,1.346 0.923,11.451 -0.768,14.444c-7.316,12.954 -15.534,-0.9 -13.673,0.61c1.23,0.996 8.59,0.076 8.59,-2.003c-0.08,-0.006 -1.53,0.39 -2.146,0.39c-0.634,0 -4.72,-0.365 -4.617,-1.66c3.393,0.86 4.24,-1.768 4.418,-2.038c0.289,-0.437 0.742,-4.338 -0.814,-7.73c-2.06,-4.484 2.18,-9.99 5.924,-10.28c7.712,-0.596 13.677,11.12 11.659,12.267zM253.236,135.472c1.47,-0.517 0.083,-2.119 2.505,-4.62c1.136,-1.172 4.724,-0.41 5.856,0.634c1.459,1.346 -0.923,11.452 0.768,14.445c7.316,12.953 15.534,-0.9 13.672,0.609c-1.23,0.997 -8.59,0.076 -8.59,-2.003c0.082,-0.006 1.531,0.39 2.147,0.39c0.634,0 4.72,-0.364 4.617,-1.66c-3.393,0.861 -4.24,-1.768 -4.418,-2.037c-0.29,-0.438 -0.743,-4.339 0.814,-7.73c2.059,-4.484 -2.18,-9.99 -5.924,-10.28c-7.712,-0.597 -13.677,11.119 -11.659,12.266z" fill="#a05a22"/><path d="M232.645,167.147c1.924,5.579 3.108,9.176 9.118,8.059c4.19,-0.78 4.533,-8.533 6.679,-8.946c6.707,-1.29 4.419,-6.709 5.073,7.758c0.458,10.125 5.42,21.293 8.998,31.038c-8.3,4.922 -34.626,3.785 -43.218,2.402c-0.639,-7.653 8.22,-23.177 8.22,-40.39c0,-2.108 1.887,-0.793 5.13,0.079" fill="#ec7fa9"/><path d="M262.074,203.872c0.206,0.554 0.47,1.049 0.473,1.458c-1.73,3 -37.183,4.582 -43.44,2.586c0.16,-0.938 0.09,-1.672 0.26,-2.382c3.835,2.328 36.624,1.07 42.707,-1.662" fill="#b7589d"/><path d="M278.678,147.281c2.745,0 3.833,2.646 2.645,4.755c-1.056,1.875 -3.276,2.369 -3.464,1.482c-0.045,-0.213 0.457,-0.585 0.299,-0.765c-0.134,-0.153 -1.145,0.104 -1.323,-0.42c-0.063,-0.189 0.246,-0.493 0.17,-0.683c-0.128,-0.318 -0.739,-0.33 -0.813,-0.684c-0.107,-0.508 0.53,-0.57 0.553,-0.766c0.044,-0.378 -0.975,-0.518 -0.8,-0.892c0.305,-0.649 1.453,-1.855 2.733,-2.027" data-paper-data="{&quot;origPos&quot;:null}" fill="#ffdb8d"/><path d="M230.712,232.4c0.752,-5.771 5.635,0.257 7.343,-2.42c0.343,-0.538 0.413,-0.832 0.42,-1.278c0.017,-1.278 2.11,4.546 2.11,5.457c-1.932,0 -1.066,0.666 -1.498,-0.57c-0.02,-0.006 -9.228,5.353 -8.375,-1.19" fill="#a171ae"/><path d="M258.174,228.999c0.763,6.553 8.398,-0.843 8.418,-0.842c0.72,1.096 -0.283,0.656 1.592,0.196c-0.221,-0.884 -3.669,-6.038 -3.375,-4.794c0.102,0.435 0.106,0.738 -0.097,1.342c-1.006,3.004 -7.212,-1.682 -6.538,4.098M232.645,167.147c-0.135,0.126 2.881,7.96 6.848,8.133c5.603,0.244 6.424,-6.088 8.357,-8.694c2.306,1.603 0.287,11.126 -4.17,11.781c-3.428,0.504 -3.087,-3.553 -3.406,-2.003c-0.375,1.821 -1.613,1.979 -2.88,2.043c-4.955,0.254 -7.387,-8.784 -4.749,-11.26" fill="#a171ae"/></g></g></svg>