<svg xmlns="http://www.w3.org/2000/svg" width="75.009" height="118.733"><g fill-rule="evenodd" stroke-miterlimit="10" data-paper-data="{&quot;isPaintingLayer&quot;:true}" style="mix-blend-mode:normal"><path fill="#35190f" d="M23.5 112.893v.633l-19.212 2.251h-.006l-4.26-2.064.015-.002-.037-.022v-.645l6.063-.04 13.165-1.542 2.971 1.44z"/><path fill="#542811" d="m4.281 115.13-4.26-2.066 19.209-2.251 4.26 2.068z"/><path fill="#75380f" d="m16.749 111.873-.924-.445 3.075-.363.924.448z"/><path fill="#8d5015" d="M16.211 111.381c.764.418 2.704.168 3.446.05l.166.083-3.074.36-.924-.448.386-.045"/><path fill="#75380f" d="m18.065 112.51-.922-.448 3.075-.357.921.442z"/><path fill="#8d5015" d="M17.527 112.02c.764.418 2.704.165 3.445.05l.167.078-3.074.362-.922-.447.384-.043"/><path fill="#75380f" d="m19.381 113.149-.924-.447 3.075-.363.923.448z"/><path fill="#8d5015" d="M18.843 112.655c.764.42 2.704.17 3.445.05l.167.083-3.074.362-.924-.449.386-.046"/><path fill="#75380f" d="m13.076 112.306-.924-.452 3.075-.358.924.447z"/><path fill="#8d5015" d="M12.538 111.811c.764.419 2.704.17 3.446.05l.166.083-3.074.362-.924-.452.386-.043"/><path fill="#75380f" d="m14.392 112.942-.924-.45 3.075-.357.923.445z"/><path fill="#8d5015" d="M13.856 112.45c.762.419 2.702.166 3.446.051l.166.08-3.076.363-.924-.45.388-.044"/><path fill="#75380f" d="m15.708 113.579-.924-.447 3.074-.362.924.447z"/><path fill="#8d5015" d="M15.172 113.085c.762.421 2.701.17 3.445.05l.167.083-3.076.363-.924-.45.388-.046"/><path fill="#75380f" d="m9.403 112.736-.924-.452 3.075-.358.921.447z"/><path fill="#8d5015" d="M8.863 112.241c.764.421 2.705.17 3.445.05l.167.083-3.072.363-.924-.452.384-.044"/><path fill="#75380f" d="m10.719 113.371-.924-.448 3.074-.358.922.448z"/><path fill="#8d5015" d="M10.179 112.881c.764.416 2.705.165 3.445.048l.167.085-3.072.357-.924-.447.384-.043"/><path fill="#75380f" d="m12.035 114.01-.922-.448 3.072-.362.922.452z"/><path fill="#8d5015" d="M11.495 113.516c.763.42 2.705.17 3.445.05l.167.085-3.073.36-.921-.45.382-.045"/><path fill="#75380f" d="m5.728 113.166-.922-.45 3.072-.36.926.448z"/><path fill="#8d5015" d="M5.19 112.672c.765.42 2.705.166 3.445.05l.169.083-3.076.362-.922-.449.384-.046"/><path fill="#75380f" d="m7.044 113.801-.922-.447 3.072-.363.926.452z"/><path fill="#8d5015" d="M6.506 113.311c.763.416 2.705.166 3.445.048l.169.085-3.077.358-.921-.448.383-.043"/><path fill="#75380f" d="m8.359 114.44-.921-.447 3.072-.362.926.451z"/><path fill="#8d5015" d="M7.822 113.948c.765.419 2.705.168 3.444.05l.17.085-3.077.358-.921-.447.384-.046"/><path fill="#75380f" d="m2.055 113.596-.924-.45 3.076-.36.922.448z"/><path fill="#8d5015" d="M1.515 113.105c.766.418 2.705.165 3.447.05l.167.08-3.074.363-.924-.45.384-.044"/><path fill="#75380f" d="m3.371 114.231-.924-.445 3.074-.36.924.447z"/><path fill="#8d5015" d="M2.831 113.739c.765.421 2.703.168 3.447.05l.167.085-3.075.358-.923-.447.384-.046"/><path fill="#75380f" d="m4.686 114.871-.923-.446 3.076-.362.922.45z"/><path fill="#8d5015" d="M4.146 114.379c.766.418 2.706.167 3.448.05l.167.085-3.075.357-.924-.447.384-.046"/><path fill="#f08314" d="M62.381 112.966c.046.063.094.227.074.303-.443.208-.994 1.361-1.511 1.418-.11.013-.35-.111-.38-.218-.058-.185.401-.508.37-.705-.037-.198-.552-.352-.592-.552-.033-.174.351-.475.314-.652-.033-.14-.455-.22-.437-.36.011-.092.239-.155.334-.155.531-.009 1.228.807 1.828.921"/><path fill="#d2751e" d="M61.489 112.493c.301.209.606.416.891.473.046.063.094.225.074.301-.243.116-.522.517-.805.862-.114.046-.206.057-.268.004-.123-.109.314-.43.29-.595-.022-.142-.443-.273-.41-.417.039-.146.544-.037.575-.185.033-.136-.481-.256-.415-.38a.158.158 0 0 1 .068-.063"/><path fill="#f08314" d="M66.234 112.292c.526-.312.901-1.318 1.404-1.488.086-.028.325-.046.366.03.066.13-.305.35-.285.49.022.18.485.329.516.51.033.199-.402.517-.369.714.04.2.58.342.593.543.004.109-.174.31-.281.331-.507.118-1.42-.776-1.907-.822-.048-.066-.057-.231-.037-.308"/><path fill="#d2751e" d="M66.911 111.546a.11.11 0 0 1 .083.035c.105.094-.336.38-.259.498.08.126.518-.144.604-.022.083.12-.268.388-.244.535.037.161.555.314.478.458-.04.07-.133.091-.252.087-.388-.229-.783-.51-1.051-.539-.046-.063-.055-.229-.037-.305.25-.15.465-.452.678-.746"/><path fill="#0771b7" d="M62.162 113.268c-.077-.436.74-1.287 2.056-1.518 1.218-.214 2.256.364 2.324.75.048.266-.788.92-2.111 1.152-1.273.225-2.203-.009-2.27-.384"/><path fill="#176691" d="M66.542 112.501c.046.264-.788.92-2.111 1.15-.608.109-1.137.111-1.531.044 3.12-.269 3-1.314 2.69-1.872.544.163.911.451.952.678"/><path fill="#6daed2" d="M63.891 112.169c.029.065-.162.218-.428.334-.263.124-.502.168-.533.104-.028-.063.163-.213.428-.331.266-.125.505-.17.533-.107"/><path fill="#228e37" d="M69.127 114.948c.019.06.015.2-.022.25-.397.048-1.126.785-1.539.7-.087-.021-.237-.18-.234-.27.008-.162.447-.284.472-.447.026-.162-.334-.417-.31-.576.02-.149.397-.28.413-.424.01-.111-.29-.286-.24-.39.033-.068.226-.057.299-.033.408.133.731.947 1.161 1.189"/><path fill="#287332" d="M68.567 114.351c.176.237.354.482.56.595.02.063.015.201-.022.253-.217.024-.537.26-.847.452-.101.009-.177-.009-.207-.07-.067-.113.356-.247.38-.377.02-.118-.272-.332-.206-.432.068-.103.428.115.492.011.059-.101-.299-.325-.216-.404a.102.102 0 0 1 .066-.028"/><path fill="#228e37" d="M72.27 115.442c.49-.105 1.045-.78 1.475-.78.075 0 .263.046.272.12.02.114-.325.19-.347.302-.028.144.288.38.264.523-.03.162-.448.297-.474.46-.024.158.353.41.311.568-.024.085-.217.19-.305.183-.419-.043-.886-.97-1.25-1.132-.02-.061.022-.196.054-.244"/><path fill="#287332" d="M72.988 115.041c.023.01.043.026.058.046.054.102-.358.21-.334.32.03.118.439.022.47.14.032.116-.312.23-.325.347-.018.135.344.386.243.476-.048.048-.125.039-.217.004-.237-.281-.47-.598-.67-.687-.017-.061.025-.197.058-.245.23-.052.478-.227.717-.401"/><path fill="#f6b90c" d="M68.88 115.122c.055-.358.91-.796 1.984-.626.994.15 1.64.868 1.589 1.182-.035.218-.852.502-1.93.336-1.041-.163-1.689-.584-1.643-.892"/><path fill="#dca61b" d="M72.453 115.678c-.036.22-.852.502-1.929.336-.494-.079-.907-.213-1.19-.373 2.473.613 2.658-.22 2.568-.729.373.266.581.585.551.766"/><path fill="#f9d477" d="M70.5 114.734c.005.055-.18.12-.414.14-.237.026-.433-.002-.444-.057-.002-.057.185-.124.422-.146.237-.024.432.004.436.063"/><path fill="#f08314" d="M61.393 115.612c.028.102.022.331-.038.421-.665.074-1.878 1.309-2.567 1.161-.145-.031-.397-.295-.389-.445.012-.274.742-.476.782-.744.043-.269-.553-.696-.512-.965.033-.244.658-.46.688-.702.023-.193-.486-.483-.4-.653.055-.114.379-.094.498-.054.682.221 1.218 1.573 1.938 1.981"/><path fill="#d2751e" d="M60.458 114.617c.295.399.593.803.935.995.026.102.022.331-.037.421-.366.039-.893.432-1.416.751-.164.013-.289-.016-.344-.112-.108-.194.592-.412.634-.63.03-.199-.452-.554-.34-.72.112-.17.711.19.818.015.096-.164-.502-.542-.364-.672a.175.175 0 0 1 .114-.048"/><path fill="#f08314" d="M66.635 116.43c.814-.166 1.735-1.292 2.455-1.296.127 0 .439.08.459.205.028.188-.547.312-.584.5-.048.24.48.635.439.877-.044.268-.746.49-.786.76-.044.268.588.69.516.948-.037.144-.36.321-.51.308-.7-.07-1.478-1.617-2.084-1.89-.028-.1.035-.322.094-.412"/><path fill="#d2751e" d="M67.832 115.77c.04.017.073.043.093.08.09.166-.597.34-.553.528.048.199.73.04.78.236.053.192-.513.382-.541.578-.033.22.568.644.408.794-.081.077-.213.064-.364.005-.395-.46-.782-.997-1.115-1.148-.029-.102.035-.323.094-.412.386-.079.795-.371 1.198-.661"/><path fill="#e42328" d="M60.981 115.904c.09-.594 1.514-1.331 3.31-1.047 1.652.257 2.73 1.45 2.644 1.976-.055.36-1.416.84-3.215.557-1.736-.269-2.822-.973-2.739-1.486"/><path fill="#c92f36" d="M66.934 116.833c-.054.36-1.415.84-3.214.556-.83-.128-1.508-.355-1.986-.615 4.125 1.015 4.433-.371 4.283-1.221.621.442.966.974.918 1.28"/><path fill="#ec6f78" d="M63.681 115.254c.014.094-.3.2-.695.24-.39.04-.72-.006-.727-.1-.008-.094.299-.203.694-.242.395-.038.72.006.728.102"/><path fill="#563723" d="M36.026 109.814c.064.266-.022.594-.196.866-.577.882-1.575 1.587-2.422 2.18-1.317.895-2.978 1.357-4.435 2.047-1.312.547-3.046 1.544-4.222.237-1.558-1.854-.238-4.213 1.582-5.33zm1.322 0c-.062.266.022.594.202.866.57.882 1.569 1.587 2.42 2.18 1.317.895 2.978 1.357 4.433 2.047 1.314.547 3.044 1.544 4.222.237 1.556-1.854.235-4.213-1.584-5.33z"/><path fill="#332115" d="M47.52 43.731c.1.334.254.561.464.679-.417.715-.783 2.629-.463 3.715.106.352.27.583.494.69.018.009.035.013.052.022-.05.082-.091.157-.12.222-.31.749-.38 2.739.114 3.779.159.332.358.537.599.609.034.01.07.015.106.015.01 0 .017 0 .02-.002-.038.914.524 2.705 1.257 3.5.25.27.507.412.752.412h.007c.114 0 .235-.058.349-.168.393 1.111 1.769 2.976 2.754 2.976.07.001.138-.01.204-.031.128-.032.23-.141.318-.308.007.012.02.027.027.04.51.777 2.385 2.068 3.473 2.068a.905.905 0 0 0 .566-.17.468.468 0 0 0 .152-.27c.619.325 1.777.571 2.703.571.608 0 1.387-.098 1.633-.582.073-.144.046-.349-.07-.596-.264-.534-.91-1.134-1.304-1.213a1.971 1.971 0 0 0-.388-.035c-.211 0-.443.029-.678.062-.34-.435-.78-.965-1.062-1.14-.567-.355-1.833-.645-2.827-.65a1.41 1.41 0 0 0-.127-.25c-.406-.614-1.647-1.543-2.697-1.91a.932.932 0 0 0-.02-.15c-.16-.784-1.097-2.276-2.012-2.939-.024-.818-.426-2.119-.972-2.937.048-.073.09-.15.125-.23.309-.745.382-2.735-.115-3.78a1.662 1.662 0 0 0-.12-.214c.077-.083.143-.161.183-.229.42-.692.807-2.651.48-3.753-.1-.334-.255-.56-.463-.67.415-.72.783-2.633.463-3.722-.103-.349-.272-.582-.496-.691a.4.4 0 0 0-.182-.038c-.555 0-1.52.93-1.613 1.438-.06.328-.022.676.048 1.056-.434.345-.961.792-1.133 1.076-.423.689-.805 2.646-.48 3.748m-21.366 0c-.098.334-.254.561-.458.679.412.715.778 2.629.458 3.715-.105.352-.27.583-.496.69-.015.009-.035.013-.052.022.046.071.087.145.123.222.307.749.379 2.739-.115 3.779-.158.332-.36.537-.598.609a.426.426 0 0 1-.134.013c.046.914-.516 2.705-1.25 3.5-.251.27-.504.412-.751.412h-.01c-.114 0-.23-.058-.344-.168-.396 1.111-1.771 2.976-2.756 2.976a.66.66 0 0 1-.21-.031c-.12-.032-.225-.141-.313-.308a.236.236 0 0 0-.024.04c-.513.777-2.388 2.068-3.478 2.068-.233 0-.426-.06-.566-.17a.488.488 0 0 1-.15-.27c-.618.325-1.78.571-2.703.571-.608 0-1.39-.098-1.632-.582-.075-.144-.05-.349.07-.596.263-.534.908-1.134 1.303-1.213.12-.024.246-.035.386-.035.229.005.457.026.683.062.338-.435.777-.965 1.06-1.14.568-.355 1.834-.645 2.826-.65.04-.098.085-.187.125-.25.404-.614 1.655-1.543 2.699-1.91.004-.05.01-.1.02-.15.16-.784 1.095-2.276 2.013-2.939.024-.818.423-2.119.972-2.937a1.415 1.415 0 0 1-.125-.23c-.308-.745-.382-2.735.11-3.78.036-.074.078-.146.124-.214a1.806 1.806 0 0 1-.182-.229c-.423-.692-.805-2.651-.483-3.753.1-.334.257-.56.463-.67-.414-.72-.783-2.633-.463-3.722.108-.349.273-.582.499-.691a.39.39 0 0 1 .18-.038c.557 0 1.52.93 1.612 1.438.064.328.022.676-.046 1.056.433.345.957.792 1.133 1.076.423.689.805 2.646.48 3.748" data-paper-data="{&quot;origPos&quot;:null}"/><path fill="#9c6c3f" d="M70.008 40.271c1.856.781 2.446 3.567 1.318 6.219-.726 1.701-1.983 2.93-3.28 3.39v.004s-3.461 9.768-6.476 10.853c-2.438.879-11.034-2.595-11.034-2.595s-.695-2.657-1.055-3.497c-.496-1.149-2.494-4.309-2.494-4.309l11.77 4.193 5.543-6.48a4.568 4.568 0 0 1-.204-.831c-.358-.644-.648-1.454-.825-2.354-.461-2.35.05-4.427 1.145-4.639.586-.111 1.218.332 1.749 1.128 1.176-1.126 2.631-1.592 3.843-1.082M18.071 55.944c1.8-2.288 8.3-5.672 8.3-5.672s-3.022 5.47-3.568 7.894c-.07.308-.202.927-.358 1.358-.197.538-.792 1.419-1.654 2.63-1.717 2.415-3.323 12.622-3.323 12.622.038.07.075.137.108.214a6.648 6.648 0 0 1 1.215 1.656c.933 1.743 1.032 3.51.22 3.933-.437.229-1.043.031-1.655-.471-.658 1.165-1.691 1.885-2.771 1.774-1.657-.175-2.792-2.232-2.542-4.595.108-.995.444-1.885.916-2.57l-.005.063s1.416-14.136 5.118-18.836" data-paper-data="{&quot;origPos&quot;:null}"/><path fill="#0771b7" d="M20.667 79.536c-.011-5.558 1.417-18.747 1.637-19.65-.917 1.121 1.499-8.267 1.52-8.28 1.074-.964 3.391-1.842 4.646-2.106 0 0 19.533.845 20.92 1.654v.005s1.977 7.398 1.238 7.064c.774 1.17 2.018 17.86 2.082 21.258.645 1.974 3.864 24.412 3.864 31.017-5.24 4.636-35.725 4.738-40.292-.007 0-6.316 3.652-28.772 4.385-30.956"/><path fill="#eeeeed" d="M20.74 76.812c.294-6.281 1.376-16.147 1.564-16.926-.917 1.121-3.735 13.224-3.928 14.893-1.571.822-4.733.776-6.212 0 .153-4.547 3.937-16.364 5.416-18.35 1.264-1.695 4.184-3.724 6.173-4.784.024-.013.05-.026.072-.04 1.073-.964 3.39-1.839 4.643-2.105 2.706-.654 6.358-.796 6.358-.796l1.76.026h.149l1.773-.026s3.373.129 6.02.711c1.288.218 3.475.93 4.862 1.739v.004l9.331 3.227c1.96-2.1 3.606-4.671 4.946-6.704 2.004.253 4.661 1.344 5.653 2.952-1.696 4.245-5.18 10.226-7.349 10.79-2.528.658-10.604-2.866-11.343-3.2.645.978 1.62 12.733 1.96 18.59-5.456 1.886-25.296 2.284-31.848 0"/><path fill="#563723" d="M52.703 78.317a91.659 91.659 0 0 1-32.037.017c.01-.797.036-1.593.074-2.389a89.29 89.29 0 0 0 31.844-.007c.059.984.099 1.805.119 2.378"/><path fill="#9b1826" d="M29.762 49.083c-2.026-.085-5.642 1.737-6.546 2.477-1.28 2.223.237 6.947-1.28 10.171-.469 4.364-1.183 13.126-1.834 17.468 4.357.495 6.17 2.797 11.837-.026 0 0 .456-2.365 1.325-3.607.018-5.286.081-11.358.218-14.271-6.373-5.012-3.72-12.212-3.72-12.212m13.785.001c.858-.037 2.001.269 3.103.69 1.498.576 2.94 1.023 3.458 1.451 1.282 2.225.026 7.099 1.262 10.507.474 4.364 1.183 13.126 1.834 17.468-3.138.652-5.657 3.583-11.834-.026 0 0-.505-2.267-1.328-3.607-.015-5.286-.081-11.358-.217-14.271 5.63-5.013 3.72-12.213 3.72-12.213"/><path fill="#cb991e" d="M21.935 61.731c.74-2.293-.13-7.972.61-9.741.534-.41.714-.52 1.03-.69-.819 1.523-.073 10.988-1.64 10.431m11.834-.794.189.144-.016.235c-.164 3.476-.208 11.123-.217 14.252l-.002.142-.079.118c-.805 1.152-1.249 3.412-1.253 3.434l-.042.222-.202.103c-1.959.973-3.609 1.427-5.194 1.427-1.343 0-2.48-.319-3.685-.659-.982-.279-2.016-.558-3.24-.698l.144-.928c.367.052.457.072.457.072 1.082.162 1.998.419 2.888.668 1.143.327 2.22.624 3.436.624 1.385 0 2.844-.388 4.578-1.231.138-.617.56-2.338 1.27-3.434.011-3.146.055-10.383.209-13.92-3.274-2.666-4.117-5.908-4.238-8.171-.07-1.266.053-2.535.362-3.765.042-.17.11-.331.2-.48.342-.057.915.004.915.004l-.055.146c-.004.015-.634 1.768-.5 4.078.18 3.068 1.552 5.631 4.075 7.616zm15.802-10.034c.429.166 1.03.532 1.03.532.93 2.304.125 7.432.764 10.233-1.64 1.239-.687-9.251-1.793-10.765m3.726 28.748c-.713.148-1.402.425-2.137.72-1.207.482-2.575 1.036-4.266 1.036h-.004c-1.765 0-3.65-.604-5.76-1.833l-.17-.105-.044-.194c-.005-.024-.5-2.212-1.269-3.471l-.067-.109v-.127c-.012-3.126-.055-10.776-.22-14.252l-.009-.22.165-.141c2.24-1.999 3.526-4.587 3.816-7.689.217-2.317-.23-4.05-.237-4.067l-.04-.153.94.046c.055.153.095.312.12.473.212 1.251.258 2.525.138 3.788-.21 2.252-1.07 5.477-3.96 8.137.158 3.538.2 10.81.21 13.95.681 1.169 1.129 2.864 1.269 3.438 1.889 1.08 3.568 1.613 5.122 1.613 1.511 0 2.734-.5 3.921-.976.632-.251 1.233-.495 1.87-.665 0 0 .243-.08.452-.12z"/><path fill="#cb991e" d="m36.67 67.296 3.063-1.955-3.063-1.955-3.064 1.955zm3.057 2.105-3.057-1.946-3.057 1.946 3.057 1.689 3.056-1.689zm-3.057 1.841-3.125 1.726 3.125 1.333 3.125-1.333zm0 3.206-3.07 1.315h6.14zm0-11.222 2.975-1.898h-5.951zm3.234 2.069-.028.046.028.045-3.114 1.988 3.114 1.988-.028.046.026.05-3.094 1.706 3.094 1.715-.05.085.044.102-3.06 1.31 3.06 1.311-.033.076h.007v.133h-6.4v-.133h.003l-.03-.077 3.06-1.31-3.059-1.31.042-.102-.049-.085 3.097-1.715-3.097-1.706.029-.05-.033-.046 3.114-1.988-3.114-1.988.028-.045-.028-.046 3.114-1.99-3.114-1.99.037-.052v-.068h6.399v.068l.035.052-3.114 1.99z"/><path fill="#cb991e" d="M38.479 77.253c.194-.261.299-.552.255-.687-.101-.31-1.077-.548-1.793-.648.023.062.024.13.002.192.275.694.714 1.53 1.032 1.538l.011.09v-.09c.09 0 .32-.159.493-.395m-3.164.611c.336-.004.799-.818 1.11-1.546a.353.353 0 0 1-.175-.3c0-.01.004-.019.004-.028-.755.12-1.654.354-1.757.666-.053.152.057.48.272.778.188.26.447.43.537.43v.09l.009-.09m3.586-1.355c.077.24-.103.613-.285.856-.082.111-.363.471-.643.471h-.007c-.45 0-.904-.947-1.146-1.542l-.018.01c.012.039.027.083.04.129.025.081.042.164.053.248.015.088.031.182.057.28.012.05.027.098.044.146.015.05.037.099.059.149l.029.076c.017.027.028.052.044.077.026.052.05.104.083.15.058.101.127.195.206.281.077.092.158.186.215.293.033.049.062.1.086.154.026.055.054.105.074.16.02.05.045.1.06.153.018.05.034.102.048.154.027.099.042.197.057.284.01.082.027.163.05.242.025.067.038.127.06.177.039.098.064.151.064.151s-.027-.053-.068-.149c-.027-.048-.047-.107-.073-.174a2.39 2.39 0 0 1-.064-.242 3.256 3.256 0 0 0-.065-.28 1.696 1.696 0 0 0-.055-.144 1.962 1.962 0 0 0-.066-.153c-.022-.052-.049-.096-.079-.15-.029-.046-.055-.098-.09-.144a1.758 1.758 0 0 0-.224-.273c-.038-.047-.081-.089-.118-.137l-.058-.072-.05-.077c-.042-.05-.068-.102-.094-.152-.016-.027-.029-.053-.044-.077-.015-.026-.024-.052-.04-.08-.024-.051-.05-.099-.07-.153a4.277 4.277 0 0 0-.057-.155 5.367 5.367 0 0 1-.068-.285c-.017-.084-.037-.154-.053-.22a.78.78 0 0 0 .024.16c.025.103.058.231.06.373.008.068 0 .138-.002.212v.03l-.003.016v.013l-.008.056c-.005.038-.009.07-.016.11-.015.08-.03.162-.057.242-.026.078-.066.153-.092.231a1.589 1.589 0 0 0-.097.48 1.52 1.52 0 0 0 .042.517c.045.174.062.355.048.535 0 .043-.011.089-.013.132-.008.044-.008.084-.022.13-.01.041-.017.085-.03.126-.014.042-.025.08-.042.12-.029.081-.062.155-.085.232-.027.071-.045.15-.06.22-.02.148-.033.295-.024.425.002.133.033.253.057.358.022.09.034.184.035.277.007.079 0 .138 0 .179l-.002.065v-.065c-.002-.041.004-.1-.004-.179a1.242 1.242 0 0 0-.049-.275c-.024-.102-.061-.222-.066-.36a2.215 2.215 0 0 1 .014-.43c.015-.076.026-.157.051-.234.023-.075.054-.154.08-.23.016-.038.024-.078.04-.118.009-.039.012-.083.022-.122.011-.04.011-.083.015-.127.002-.041.009-.085.009-.126a1.576 1.576 0 0 0-.062-.518 1.763 1.763 0 0 1-.052-.264c-.002-.045-.007-.093-.009-.14l.002-.13c.007-.179.028-.356.088-.519.026-.083.059-.155.081-.229.024-.075.035-.146.048-.216.002-.037.005-.075.009-.112l.007-.056v-.051c0-.067.006-.133-.005-.2-.006-.123-.037-.233-.063-.343a1.325 1.325 0 0 1-.038-.172c-.285.639-.746 1.496-1.198 1.496h-.002c-.206 0-.463-.17-.693-.486-.196-.273-.398-.674-.308-.934.156-.476 1.376-.706 2.013-.796a.355.355 0 0 1 .267-.129c.063.001.126.02.18.052.334.04 1.945.26 2.116.792"/><path fill="#eeeeed" d="M38.578 52.301c-.485-.773 1.172-2.36 2.324-3.38.255.026.707.068 1.227.068 1.163-.284 4.382.257 5.964 1.29v.07c.02 2.604-5.12 6.036-9.515 1.952m-13.259-1.952c1.675-1.305 4.347-1.645 6.31-1.36.342.036.688-.012 1.009-.047 1.154 1.021 2.782 2.594 2.306 3.36-4.273 3.966-9.357.613-9.625-1.953"/><path fill="#a5a4a3" d="M29.762 54.061s.09.013.243.026c.077.013.171.018.277.02.055.004.112.004.173.004.062 0 .125.007.191.004.066-.004.136-.006.204-.008.233-.007.465-.034.694-.081.164-.028.33-.063.5-.107.081-.024.167-.05.248-.076.083-.029.167-.055.252-.088.081-.028.163-.056.248-.096l.12-.045.117-.055c.3-.136.59-.292.869-.465.301-.191.59-.402.863-.63.116-.098.182-.164.182-.164s-.062.068-.176.175c-.156.145-.32.282-.49.41-.214.16-.473.336-.76.497-.187.108-.38.203-.58.286l-.123.057c-.083.03-.167.063-.25.094-.081.028-.167.054-.25.085-.086.024-.171.05-.257.072-.169.046-.336.08-.505.111-.157.023-.315.04-.474.052-.079.005-.153.007-.226.014h-.206a2.673 2.673 0 0 1-.19-.01c-.062-.001-.122-.001-.176-.01a7.039 7.039 0 0 0-.275-.028c-.156-.031-.243-.044-.243-.044m8.816-1.76s.055.057.16.148c.245.213.505.408.777.585.114.076.237.148.364.227.13.078.266.153.408.22.14.072.286.14.435.2.072.031.145.062.222.09.074.029.149.055.223.083.282.097.57.173.863.227l.2.035.186.026c.057.011.116.013.171.018.055.004.108.01.156.015.099.002.182.009.252.009.14.004.224.004.224.004l-.224.009c-.07.004-.153 0-.254 0-.11-.003-.22-.01-.33-.018-.06-.008-.122-.013-.186-.02l-.202-.03a5.014 5.014 0 0 1-.428-.09c-.15-.036-.3-.078-.447-.126-.077-.026-.15-.052-.23-.078-.075-.035-.148-.06-.222-.092a7.255 7.255 0 0 1-.845-.432 5.967 5.967 0 0 1-.68-.471 4.573 4.573 0 0 1-.593-.54"/><path fill="#9c6c3f" d="M36.778 52.476c-4.077 0-5.59-2.322-5.15-3.487a46.1 46.1 0 0 1 3.401-.286l1.762.026h.147l1.773-.026s1.578.061 3.417.286c.303 1.13-1.27 3.487-5.35 3.487" data-paper-data="{&quot;origPos&quot;:null}"/><path fill="#9c6c3f" d="M34.881 50.266c-1.075 0-1.946-2.295-1.946-3.347h7.658c0 1.052-.875 3.347-1.95 3.347h-3.762" data-paper-data="{&quot;origPos&quot;:null}"/><path fill="#eeac6c" d="M33.756 49.397c-.432-.655-.733-1.562-.801-2.219a23.34 23.34 0 0 0 7.619-.028l-.008.015-6.81 2.231"/><path fill="#9c6c3f" d="M13.831 28.032a22.314 22.314 0 0 1-.262-3.442c0-12.644 10.308-22.892 23.022-22.892 12.715 0 23.022 10.248 23.022 22.892 0 1.112-.079 2.208-.232 3.281 1.327.722 2.225 2.088 2.225 3.657 0 2.319-1.966 4.202-4.396 4.202-.166 0-.329-.011-.489-.026a23.039 23.039 0 0 1-20.13 11.773 23.043 23.043 0 0 1-20.118-11.754 3.019 3.019 0 0 1-.202.007c-2.43 0-4.396-1.883-4.396-4.202 0-1.458.777-2.743 1.956-3.496" data-paper-data="{&quot;origPos&quot;:null}"/><path fill="#332115" d="M32.136 23.846s-.503 1.803-2.082 1.446c-.772-.174-.908-1.201-3.386-.74-.779.18-2.417 1.156-2.732 1.808-.316.652-.088-2.392 2.457-3.522 1.835-.675 2.457-.642 3.977-.642s1.987.907 1.766 1.65m9.741 0s.503 1.803 2.082 1.446c.772-.174.908-1.201 3.386-.74.779.18 2.417 1.156 2.732 1.808.316.652.087-2.392-2.457-3.522-1.835-.675-2.457-.642-3.977-.642s-1.987.907-1.766 1.65M29.825 31.196c0 1.657-.895 3-2 3s-2-1.343-2-3 .895-3 2-3 2 1.343 2 3m18 0c0 1.657-.895 3-2 3s-2-1.343-2-3 .895-3 2-3 2 1.343 2 3" data-paper-data="{&quot;origPos&quot;:null}"/><path fill="#eeac6c" d="M36.845 34.265c-1.125.153-3.02 1.834-3.02 1.834s.207-1.009.503-1.299c.8-1.156 2.487-1.604 2.487-1.604s2.173.703 2.65 1.588c.443.824.34 1.238.34 1.238s-2.121-1.871-2.96-1.756zM30.025 37.892s6.897 3.208 13.172-.397c0 0-1.39 5.47-5.95 5.561-4.115.122-4.984-1.492-5.477-1.956-.492-.463-1.42-1.772-1.745-3.208"/><path fill="#332115" d="M60.612 21.602c.04 2.692-1.167 6.43-1.167 6.43s-6.112-7.198-9.844-9.214c-4.556-2.465-6.829 1.165-10.902-2.031-.678-.533-1.935-1.936-1.935-1.936s-1.533 1.539-1.94 1.935c-4.578 4.458-8.013-.745-11.87 1.95-4.907 3.425-9.059 9.13-9.059 9.13s-1.424-1.619-1.229-6.515c.064-1.407.746-4.536 1.868-7.713A24.743 24.743 0 0 1 36.68 0c11.145 0 20.568 7.326 23.658 17.4.159 1.395.25 2.798.274 4.202" data-paper-data="{&quot;origPos&quot;:null}"/><path fill="#eeeeed" d="M21.983 90.79s-6.18-12.72-8.783-16.606c-.73-1.095-2.027-2.293-4.007-1.261-1.365.715-2.05 2.083-1.128 3.824-.265.306-1.167.932-1.476.67-1.354-2.566-.255-5.123 1.729-6.157 2.98-1.56 5.179.716 6.078 2.077 2.594 3.912 8.875 16.776 8.875 16.776-.114.345-.942.788-1.288.677"/><path fill="#e42328" d="M22.192 87.93c.277.554.51 1.028.69 1.389l-1.91-.59c-.206-.419-.438-.884-.691-1.392l1.912.593m-1.483-2.957c.248.484.482.951.704 1.394l-1.918-.593c-.226-.452-.461-.917-.706-1.392l1.92.591m1.03 5.314 1.016.316c-.274.148-.59.244-.774.186 0 0-.086-.182-.242-.503zm-2.541-8.28c.241.469.482.938.716 1.398l-1.93-.597c-.236-.462-.478-.934-.726-1.402l1.94.6m-2.767-2.176c-.257-.483-.509-.954-.761-1.41l1.966.606c.248.463.496.932.744 1.403l-1.949-.6m-.428-3.809c.25.449.513.925.781 1.42l-1.993-.615a50.472 50.472 0 0 0-.836-1.436l2.048.631m-3.138-2.289c-.309-.377-.689-.724-1.145-.951l2.504.308c.06.081.116.164.171.248.204.306.434.67.676 1.076l-2.206-.681m-2.719-2.991c.95-.046 1.781.285 2.473.755l-1.982 1.034c-.395 0-.825.098-1.297.321l.806-2.11m-1.882 2.889a2.414 2.414 0 0 0-.502.851l-1.497-.897a4.316 4.316 0 0 1 1.525-1.998l.474 2.044m-.491 2.42c.075.241.173.475.292.698-.265.306-1.167.932-1.477.67a5.005 5.005 0 0 1-.596-2.103l1.782.735"/><path fill="#9c6c3f" d="M15.155 75.381s1.562.038 2.495-.312c.334.366.735.89 1.174 1.632.977 1.658.974 3.447.193 3.874-.783.425-2.17-.593-3.096-2.275-.597-1.078-.858-2.165-.766-2.919" data-paper-data="{&quot;origPos&quot;:null}"/><path fill="#e9b18b" d="M66.309 50.516c-.237.17-.988.054-1.157-.18l2.381-14.99 1.159.183-2.383 14.986z"/><path fill="#f08314" d="M74.932 32.006c-.535 3.362-3.706 5.658-7.09 5.13-3.382-.537-5.693-3.692-5.155-7.054.533-3.362 3.706-5.655 7.088-5.123 3.382.53 5.693 3.685 5.157 7.047"/><path fill="#f6b90c" d="M68.807 31.066c5.214-2.578.968-6.102.968-6.102s1.843 3.417-.968 6.102m-.966 6.069c-4.165-4.048.968-6.103.968-6.103s-2.811 2.686-.968 6.103"/><path fill="#f6b90c" d="M68.825 31.049c-2.702-2.794-6.138-.962-6.138-.962s3.55-4.224 6.137.962m6.104.959c-3.434 1.835-6.136-.962-6.136-.962s2.065 5.103 6.136.962"/><path fill="#f6b90c" d="M68.818 31.06c.08-3.875-3.654-4.996-3.654-4.996s5.515-.491 3.654 4.996m3.635 4.971c-3.733-1.121-3.654-4.996-3.654-4.996s-2.168 5.061 3.654 4.996"/><path fill="#f6b90c" d="M68.822 31.039c-5.519-1.848-5.025 3.632-5.025 3.632s1.128-3.711 5.025-3.632m4.998-3.614c.066 5.789-5.023 3.633-5.023 3.633s3.895.076 5.023-3.632"/><path fill="#9c6c3f" d="M63.169 44.451c-.336-2.245.235-4.193 1.277-4.346 1.047-.155 2.164 1.541 2.504 3.784.319 2.145-.186 4.012-1.141 4.315 0 0-.66-.214-1.128-.336-.687-.604-1.282-1.883-1.512-3.417" data-paper-data="{&quot;origPos&quot;:null}"/></g></svg>