<svg xmlns="http://www.w3.org/2000/svg" width="89.337" height="119.884"><g fill-rule="evenodd" stroke-miterlimit="10" data-paper-data="{&quot;isPaintingLayer&quot;:true}" style="mix-blend-mode:normal"><path fill="#343434" d="M25.101 113.858c.053.189-.034.516-.207.796-.591.907-1.619 1.539-2.502 2.143-1.354.926-3.066 1.434-4.558 2.135-1.355.573-3.139 1.65-4.353.303-1.603-1.912-.235-4.167 1.635-5.377zM36.44 113.858c1.866 1.21 3.227 3.465 1.619 5.377-1.209 1.347-2.993.27-4.339-.303-1.506-.701-3.212-1.209-4.57-2.135-.866-.604-1.897-1.236-2.49-2.143-.19-.28-.279-.607-.205-.796z"/><path fill="#7f4a25" d="m38.687 86.615-2.047 27.242H26.313l-.39-19.59h-.307l-.386 19.59H14.9l-2.042-27.242z"/><path fill="#9b6e3e" d="M59.157 41.911c1.905.804 2.516 3.676 1.359 6.404-1.162 2.734-3.664 4.291-5.572 3.484-1.027-.433-1.672-1.454-1.88-2.737a8.432 8.432 0 0 1-.84-2.415c-.476-2.429.053-4.564 1.175-4.78.605-.112 1.255.336 1.807 1.162 1.208-1.162 2.707-1.647 3.952-1.118M1.573 80.062c-.26 2.427.91 4.553 2.616 4.732 1.118.118 2.171-.625 2.848-1.823.634.514 1.262.722 1.704.484.838-.437.734-2.255-.229-4.057a6.589 6.589 0 0 0-1.244-1.706c-.04-.074-.095-.179-.143-.25l-4.61.004a5.476 5.476 0 0 0-.942 2.615" data-paper-data="{&quot;origPos&quot;:null}"/><path fill="#6a97c0" d="m53.162 49.891 4.967 2.451s-4.578 9.585-7.685 10.707c-2.256.813-9.63-1.963-11.11-2.543 2.692 10.471 3.007 26.286 3.007 26.286H9.298s.275-13.741 2.488-24.071c-.288.457-.723.967-1.272 1.75-1.773 2.48-3.108 13.006-3.108 13.006l-4.963.007s1.458-14.56 5.265-19.402c1.854-2.356 8.552-5.832 8.552-5.832s0 .023-.008.029c.903-.597 2.468-.97 3.938-1.207.614 2.13 3.447 6.932 5.707 6.98 2.354.051 5.664-4.448 6.41-6.806 1.241.415 2.276.602 3.15 1l12.088 4.364 5.617-6.72z"/><path fill="#e63744" d="M46.094 55.736c.863 2.848-1.435 6.804-1.435 6.804l-5.208-2.055c2.719 10.506 3.035 26.308 3.035 26.308H9.306s.267-13.114 2.368-23.407l-.478.69s-4.836 0-5.703-3.39c0 0 2.465-5.246 10.882-8.477V52.2c2.162-1.324 7.605-1.541 7.605-1.541l1.84.026h.15l1.833-.06s4.812.274 7.193 1.402c8.579 2.542 11.098 3.71 11.098 3.71"/><path fill="#ba72ac" d="M32.557 69.105c.62 1.374.992 2.829.992 4.197 0 1.367-.372 2.497-.992 3.403-.178.229-.347.454-.546.654l-.17.173a9.444 9.444 0 0 1-.313.267c-.008.005-.008.005-.014.015-.02.015-.037.03-.06.04a.316.316 0 0 1-.078.067s-.012.005-.012.016c-.115.083-.234.163-.35.25-.013 0-.013.006-.023.016l-.034.022c-.03.012-.057.034-.087.054a7.386 7.386 0 0 1-.605.339c-.176.087-.371.175-.544.255-.366.15-.741.28-1.123.385-.73.204-1.478.345-2.233.421a52.65 52.65 0 0 1-.546.049 8.118 8.118 0 0 1-.576.033h-.015c-.059 0-.116 0-.173.009h-.19c-.016 0-.03.008-.05.008h-.745c-.194-.008-.368-.017-.543-.021a14.677 14.677 0 0 1-1.122-.086 12.16 12.16 0 0 1-1.111-.166 9.688 9.688 0 0 1-1.109-.268c-.197-.046-.368-.107-.542-.164-.101-.034-.201-.082-.296-.118h-.008c-.02-.006-.047-.017-.07-.025a7.539 7.539 0 0 1-.659-.299 6.93 6.93 0 0 1-.702-.398c-.208-.126-.377-.257-.552-.39a5.099 5.099 0 0 1-1.112-1.212c-.6-.891-.95-2-.95-3.329 0-1.332.35-2.751.95-4.096.301-.683.662-1.346 1.112-1.963.175-.254.344-.501.552-.728.224-.274.455-.533.702-.785.208-.218.428-.425.659-.619.129-.107.251-.211.374-.307.173-.14.354-.27.542-.39a7.203 7.203 0 0 1 1.109-.634c.358-.177.73-.324 1.111-.44a8.48 8.48 0 0 1 1.122-.236c.175-.023.349-.046.543-.05.102-.006.233-.006.35-.006h.184c.059 0 .103 0 .15.006h.057c.03 0 .07.005.112.005.028 0 .057.01.083.01.019 0 .04.006.062.006.044.006.086.006.13.015h.045v.006c.194.018.386.049.576.093.183.037.365.081.545.132.369.116.741.257 1.12.426.383.188.755.399 1.113.631.4.254.775.543 1.124.863.174.167.368.339.544.525.213.21.415.432.605.663.03.036.057.082.087.116.013.013.025.018.034.033.01.009.01.015.01.023.129.152.25.311.362.476 0 0 .007.006.013.006.024.04.051.078.074.113.135.19.261.384.391.57v.008l.17.28c.199.345.368.693.546 1.051"/><path fill="#f7b90b" d="M30.458 60.218c-.646-.293-1.774.43-3.088 2.008-1.372 1.634-2.807 3.994-4.043 6.638-1.231 2.65-2.11 5.265-2.48 7.364-.351 2.023-.173 3.35.468 3.65.641.298 1.775-.433 3.088-2.01 1.375-1.63 2.816-3.99 4.042-6.64 1.24-2.648 2.116-5.267 2.484-7.364.351-2.02.17-3.34-.472-3.646m-9.252 19.897c-.783-.354-1-1.748-.622-3.93.372-2.12 1.257-4.76 2.507-7.428 1.234-2.668 2.682-5.049 4.068-6.703 1.426-1.701 2.641-2.438 3.416-2.074.774.351.99 1.75.613 3.928-.366 2.122-1.259 4.767-2.495 7.428-1.244 2.671-2.687 5.052-4.08 6.71-1.426 1.698-2.633 2.43-3.407 2.069"/><path fill="#f7b90b" d="M22.885 59.966c-.29-.13-.538-.158-.758-.084-.662.242-.937 1.551-.755 3.598.194 2.122.855 4.8 1.868 7.532 1.7 4.623 4.028 8.369 5.646 9.118.29.129.546.16.756.089.665-.249.948-1.558.758-3.602-.19-2.123-.853-4.798-1.856-7.54-1.708-4.614-4.036-8.366-5.66-9.111m5.895 20.406c-1.685-.772-4.064-4.58-5.795-9.265-1.014-2.758-1.678-5.465-1.881-7.608-.2-2.202.133-3.575.942-3.874.277-.097.592-.059.956.097 1.676.777 4.068 4.587 5.788 9.27 1.018 2.755 1.693 5.46 1.875 7.603.205 2.205-.129 3.582-.94 3.872-.27.101-.586.067-.945-.095"/><path fill="#f7b90b" d="M35.558 65.805c-1.624-.75-6.002-.09-10.65 1.606-2.746 1.013-5.222 2.242-6.981 3.463-1.683 1.181-2.51 2.24-2.262 2.91.078.206.26.379.548.511 1.62.748 6.006.084 10.653-1.612 2.745-1.007 5.227-2.238 6.98-3.464 1.682-1.178 2.507-2.237 2.264-2.907-.08-.21-.26-.377-.552-.507m-19.46 8.733c-.342-.168-.58-.387-.681-.66-.292-.811.535-1.946 2.36-3.22 1.765-1.244 4.266-2.484 7.043-3.498 4.704-1.718 9.167-2.38 10.854-1.605.35.169.582.39.68.663.306.8-.532 1.944-2.358 3.217-1.765 1.247-4.27 2.485-7.047 3.497-4.703 1.72-9.164 2.375-10.85 1.606m9.46-13.16c-.315.69-1.083 1.014-1.72.724-.623-.287-.868-1.076-.549-1.77.318-.69 1.086-1.014 1.715-.725.628.286.876 1.088.554 1.77"/><path fill="#f7b90b" d="M34.764 70.126c-.33.695-1.092 1.015-1.723.73-.62-.29-.878-1.085-.556-1.772.321-.69 1.092-1.017 1.712-.726.639.286.88 1.086.567 1.768m-12.876 7.422c-.321.69-1.094 1.012-1.718.726-.628-.289-.882-1.078-.554-1.77.315-.691 1.081-1.018 1.705-.725.635.295.879 1.084.568 1.768m5.113-6.966c-.33.69-1.095 1.012-1.715.726-.626-.295-.886-1.082-.563-1.77.322-.689 1.088-1.015 1.719-.725.628.287.874 1.074.559 1.769"/><path fill="#434344" d="M87.501 43.322h-34.34V24.775a1.85 1.85 0 0 1 1.851-1.849h30.62a1.86 1.86 0 0 1 1.87 1.849v18.547z"/><path fill="#b5b4b4" d="M89.337 44.056c0 .4-.333.725-.741.725H52.037a.733.733 0 0 1-.736-.725v-.01c0-.402.334-.724.736-.724h36.559c.408 0 .74.322.74.724v.01z"/><path fill="#8d8d8c" d="M52.037 44.781h36.559c-.157.114-1.058.478-2.463.554H54.509c-1.445-.076-2.353-.444-2.471-.554zm23.047-1.459-.448.992h-8.573l-.468-.992z"/><path fill="#91d3f0" d="M54.558 24.273h31.537v18.303H54.558z"/><path fill="#c3e5f3" d="M56.928 35.418a.661.661 0 0 1-.928.136.648.648 0 0 1-.144-.918l6.817-9.191a.663.663 0 0 1 1.07.783l-6.816 9.19zm3.901-2.252a.47.47 0 0 1-.658.095.457.457 0 0 1-.104-.657l4.861-6.55a.469.469 0 1 1 .754.556zm-4.815.037a.356.356 0 0 1-.504.072.363.363 0 0 1-.074-.504l.345-.446c.12-.15.338-.19.497-.063.155.12.195.343.07.497z"/><path fill="#9b6e3e" d="M52.132 46.342c-.347-2.324.243-4.339 1.323-4.496 1.079-.158 2.239 1.589 2.592 3.914.35 2.323-.251 4.338-1.333 4.5-1.072.154-2.224-1.591-2.582-3.918m-2.794-17.371c1.217.779 2.019 2.099 2.019 3.604 0 2.402-2.036 4.347-4.544 4.347-.073 0-.137 0-.203-.006a23.786 23.786 0 0 1-20.771 12.146A23.798 23.798 0 0 1 5.04 36.892c-.169.024-.336.03-.503.03C2.03 36.922 0 34.977 0 32.575c0-1.617.922-3.029 2.3-3.775a23.61 23.61 0 0 1-.254-3.391c0-13.061 10.655-23.657 23.793-23.657 13.121 0 23.766 10.596 23.766 23.657a23.32 23.32 0 0 1-.267 3.562" data-paper-data="{&quot;origPos&quot;:null}"/><path fill="#382715" d="M50.545 22.329c.038 2.777-.94 8.784-2.844 12.369 0 0-4.677-13.169-8.522-15.247-4.711-2.555-17.121 1.123-21.33-2.182-.693-.546-.623-1.79-.623-1.79s-.801 1.583-1.191 2.025c-2.04 2.305-7.327 5.644-9.834 7.444-2.026 1.438-2.113 1.423-1.663 9.75 0 0-3.709-7.581-3.51-12.638.07-1.452.777-4.684 1.926-7.962A25.56 25.56 0 0 1 25.838 0c11.502 0 21.23 7.568 24.417 17.979.169 1.444.266 2.896.29 4.35" data-paper-data="{&quot;origPos&quot;:null}"/><path fill="#9b6e3e" d="M23.968 51.917c-1.104 0-2.01-2.334-2.01-3.46h7.916c0 1.126-.908 3.459-2.012 3.459h-3.894" data-paper-data="{&quot;origPos&quot;:null}"/><path fill="#eeac6c" d="M22.81 51.041c-.446-.676-.759-1.61-.832-2.29 1.254.204 2.544.311 3.86.311a23.781 23.781 0 0 0 4.02-.337l-.018.016-7.03 2.3"/><path fill="#303030" d="M41.398 27.872c0-.754-12.495-.754-12.495 0 0 3.124 1.054 7.554 6.239 7.554 5.623 0 6.256-4.43 6.256-7.554zm-18.831 0c0-.754-12.501-.754-12.501 0 0 3.124.62 7.554 6.25 7.554 5.185 0 6.251-4.43 6.251-7.554zm20.744 1.013c-.359 3.726-1.951 7.878-8.169 7.878-5.259 0-7.301-3.489-7.976-6.94-.913-1.311-1.888-1.277-2.893.083-.681 3.426-2.749 6.856-7.958 6.856-6.219 0-7.813-4.151-8.17-7.87l-5.672.62 5.555-2.714v-.012c0-1.09 16.552-1.09 16.552 0v.063h2.304v-.063c0-1.09 16.494-1.09 16.494 0v.006l5.6 2.72z"/><path fill="#382715" d="M21.309 23.648s-.503 1.803-2.082 1.446c-.772-.174-.908-1.201-3.386-.74-.779.18-2.417 1.156-2.732 1.808-.316.652-.088-2.392 2.457-3.522 1.835-.675 2.457-.642 3.977-.642s1.987.907 1.766 1.65m9.741 0s.503 1.803 2.082 1.446c.772-.174.908-1.201 3.386-.74.779.18 2.417 1.156 2.732 1.808.316.652.087-2.392-2.457-3.522-1.835-.675-2.457-.642-3.977-.642s-1.987.907-1.766 1.65M18.998 30.998c0 1.657-.895 3-2 3s-2-1.343-2-3 .895-3 2-3 2 1.343 2 3m18 0c0 1.657-.895 3-2 3s-2-1.343-2-3 .895-3 2-3 2 1.343 2 3" data-paper-data="{&quot;origPos&quot;:null}"/><path fill="#eeac6c" d="M26.018 34.067c-1.125.153-3.02 1.834-3.02 1.834s.207-1.009.503-1.299c.8-1.156 2.487-1.604 2.487-1.604s2.173.703 2.65 1.588c.443.824.34 1.238.34 1.238s-2.121-1.871-2.96-1.756zM19.198 37.694s6.897 3.208 13.172-.397c0 0-1.39 5.47-5.95 5.561-4.115.122-4.984-1.492-5.477-1.956-.492-.463-1.42-1.772-1.745-3.208"/></g></svg>