<svg version="1.1" xmlns="http://www.w3.org/2000/svg" xmlns:xlink="http://www.w3.org/1999/xlink" width="89.337" height="119.88414" viewBox="0,0,89.337,119.88414"><g transform="translate(-195.002,-120.00198)"><g data-paper-data="{&quot;isPaintingLayer&quot;:true}" fill-rule="evenodd" stroke="none" stroke-width="1" stroke-linecap="butt" stroke-linejoin="miter" stroke-miterlimit="10" stroke-dasharray="" stroke-dashoffset="0" style="mix-blend-mode: normal"><path d="M220.103,233.86c0.053,0.189 -0.034,0.516 -0.207,0.796c-0.591,0.907 -1.619,1.539 -2.502,2.143c-1.354,0.926 -3.066,1.434 -4.558,2.135c-1.355,0.573 -3.139,1.65 -4.353,0.303c-1.603,-1.912 -0.235,-4.167 1.635,-5.377z" fill="#343434"/><path d="M231.442,233.86c1.866,1.21 3.227,3.465 1.619,5.377c-1.209,1.347 -2.993,0.27 -4.339,-0.303c-1.506,-0.701 -3.212,-1.209 -4.57,-2.135c-0.866,-0.604 -1.897,-1.236 -2.49,-2.143c-0.19,-0.28 -0.279,-0.607 -0.205,-0.796z" fill="#343434"/><path d="M233.689,206.617l-2.047,27.242h-10.327l-0.39,-19.59h-0.307l-0.386,19.59h-10.33l-2.042,-27.242z" fill="#7f4a25"/><path d="M254.159,161.913c1.905,0.804 2.516,3.676 1.359,6.404c-1.162,2.734 -3.664,4.291 -5.572,3.484c-1.027,-0.433 -1.672,-1.454 -1.88,-2.737c-0.36,-0.663 -0.664,-1.492 -0.84,-2.415c-0.476,-2.429 0.053,-4.564 1.175,-4.78c0.605,-0.112 1.255,0.336 1.807,1.162c1.208,-1.162 2.707,-1.647 3.952,-1.118M196.575,200.064c-0.26,2.427 0.91,4.553 2.616,4.732c1.118,0.118 2.171,-0.625 2.848,-1.823c0.634,0.514 1.262,0.722 1.704,0.484c0.838,-0.437 0.734,-2.255 -0.229,-4.057c-0.32027,-0.63184 -0.74032,-1.2079 -1.244,-1.706c-0.04,-0.074 -0.095,-0.179 -0.143,-0.25l-4.61,0.004c-0.493,0.705 -0.842,1.593 -0.942,2.615" data-paper-data="{&quot;origPos&quot;:null}" fill="#9b6e3e"/><path d="M248.164,169.893l4.967,2.451c0,0 -4.578,9.585 -7.685,10.707c-2.256,0.813 -9.63,-1.963 -11.11,-2.543c2.692,10.471 3.007,26.286 3.007,26.286h-33.043c0,0 0.275,-13.741 2.488,-24.071c-0.288,0.457 -0.723,0.967 -1.272,1.75c-1.773,2.48 -3.108,13.006 -3.108,13.006l-4.963,0.007c0,0 1.458,-14.56 5.265,-19.402c1.854,-2.356 8.552,-5.832 8.552,-5.832c0,0 0,0.023 -0.008,0.029c0.903,-0.597 2.468,-0.97 3.938,-1.207c0.614,2.13 3.447,6.932 5.707,6.98c2.354,0.051 5.664,-4.448 6.41,-6.806c1.241,0.415 2.276,0.602 3.15,1l12.088,4.364l5.617,-6.72z" fill="#6a97c0"/><path d="M241.096,175.738c0.863,2.848 -1.435,6.804 -1.435,6.804l-5.208,-2.055c2.719,10.506 3.035,26.308 3.035,26.308h-33.18c0,0 0.267,-13.114 2.368,-23.407l-0.478,0.69c0,0 -4.836,0 -5.703,-3.39c0,0 2.465,-5.246 10.882,-8.477v-0.009c2.162,-1.324 7.605,-1.541 7.605,-1.541l1.84,0.026h0.15l1.833,-0.06c0,0 4.812,0.274 7.193,1.402c8.579,2.542 11.098,3.71 11.098,3.71" fill="#e63744"/><path d="M227.559,189.107c0.62,1.374 0.992,2.829 0.992,4.197c0,1.367 -0.372,2.497 -0.992,3.403c-0.178,0.229 -0.347,0.454 -0.546,0.654l-0.17,0.173c-0.107,0.095 -0.205,0.179 -0.313,0.267c-0.008,0.005 -0.008,0.005 -0.014,0.015c-0.02,0.015 -0.037,0.03 -0.06,0.04c-0.02217,0.02644 -0.04852,0.04907 -0.078,0.067c0,0 -0.012,0.005 -0.012,0.016c-0.115,0.083 -0.234,0.163 -0.35,0.25c-0.013,0 -0.013,0.006 -0.023,0.016l-0.034,0.022c-0.03,0.012 -0.057,0.034 -0.087,0.054c-0.195,0.119 -0.387,0.232 -0.605,0.339c-0.176,0.087 -0.371,0.175 -0.544,0.255c-0.36637,0.15049 -0.74136,0.27905 -1.123,0.385c-0.73093,0.20389 -1.478,0.34474 -2.233,0.421c-0.178,0.017 -0.369,0.034 -0.546,0.049c-0.19155,0.01782 -0.38367,0.02883 -0.576,0.033h-0.015c-0.059,0 -0.116,0 -0.173,0.009h-0.19c-0.016,0 -0.03,0.008 -0.05,0.008h-0.745c-0.194,-0.008 -0.368,-0.017 -0.543,-0.021c-0.364,-0.012 -0.743,-0.044 -1.122,-0.086c-0.387,-0.044 -0.764,-0.093 -1.111,-0.166c-0.389,-0.074 -0.77,-0.16 -1.109,-0.268c-0.197,-0.046 -0.368,-0.107 -0.542,-0.164c-0.101,-0.034 -0.201,-0.082 -0.296,-0.118h-0.008c-0.02,-0.006 -0.047,-0.017 -0.07,-0.025c-0.233,-0.095 -0.449,-0.189 -0.659,-0.299c-0.247,-0.12 -0.478,-0.255 -0.702,-0.398c-0.208,-0.126 -0.377,-0.257 -0.552,-0.39c-0.449,-0.355 -0.811,-0.755 -1.112,-1.212c-0.6,-0.891 -0.95,-2 -0.95,-3.329c0,-1.332 0.35,-2.751 0.95,-4.096c0.301,-0.683 0.662,-1.346 1.112,-1.963c0.175,-0.254 0.344,-0.501 0.552,-0.728c0.224,-0.274 0.455,-0.533 0.702,-0.785c0.20825,-0.21816 0.42825,-0.4248 0.659,-0.619c0.129,-0.107 0.251,-0.211 0.374,-0.307c0.17304,-0.14028 0.35401,-0.2705 0.542,-0.39c0.339,-0.238 0.719,-0.454 1.109,-0.634c0.35761,-0.17696 0.7292,-0.32412 1.111,-0.44c0.36825,-0.10389 0.7431,-0.18274 1.122,-0.236c0.175,-0.023 0.349,-0.046 0.543,-0.05c0.102,-0.006 0.233,-0.006 0.35,-0.006h0.184c0.059,0 0.103,0 0.15,0.006h0.057c0.03,0 0.07,0.005 0.112,0.005c0.028,0 0.057,0.01 0.083,0.01c0.019,0 0.04,0.006 0.062,0.006c0.044,0.006 0.086,0.006 0.13,0.015h0.045v0.006c0.19392,0.01763 0.38638,0.04871 0.576,0.093c0.18328,0.03705 0.36508,0.08108 0.545,0.132c0.369,0.116 0.741,0.257 1.12,0.426c0.3833,0.18785 0.75497,0.39856 1.113,0.631c0.39918,0.25425 0.77528,0.54303 1.124,0.863c0.174,0.167 0.368,0.339 0.544,0.525c0.21311,0.21028 0.41506,0.43158 0.605,0.663c0.03,0.036 0.057,0.082 0.087,0.116c0.013,0.013 0.025,0.018 0.034,0.033c0.01,0.009 0.01,0.015 0.01,0.023c0.12883,0.15229 0.24966,0.31117 0.362,0.476c0,0 0.007,0.006 0.013,0.006c0.024,0.04 0.051,0.078 0.074,0.113c0.135,0.19 0.261,0.384 0.391,0.57v0.008c0.05589,0.0938 0.11256,0.18714 0.17,0.28c0.199,0.345 0.368,0.693 0.546,1.051" fill="#ba72ac"/><path d="M225.46,180.22c-0.646,-0.293 -1.774,0.43 -3.088,2.008c-1.372,1.634 -2.807,3.994 -4.043,6.638c-1.231,2.65 -2.11,5.265 -2.48,7.364c-0.351,2.023 -0.173,3.35 0.468,3.65c0.641,0.298 1.775,-0.433 3.088,-2.01c1.375,-1.63 2.816,-3.99 4.042,-6.64c1.24,-2.648 2.116,-5.267 2.484,-7.364c0.351,-2.02 0.17,-3.34 -0.472,-3.646M216.207,200.117c-0.783,-0.354 -1,-1.748 -0.622,-3.93c0.372,-2.12 1.257,-4.76 2.507,-7.428c1.234,-2.668 2.682,-5.049 4.068,-6.703c1.426,-1.701 2.641,-2.438 3.416,-2.074c0.774,0.351 0.99,1.75 0.613,3.928c-0.366,2.122 -1.259,4.767 -2.495,7.428c-1.244,2.671 -2.687,5.052 -4.08,6.71c-1.426,1.698 -2.633,2.43 -3.407,2.069" fill="#f7b90b"/><path d="M217.887,179.968c-0.29,-0.13 -0.538,-0.158 -0.758,-0.084c-0.662,0.242 -0.937,1.551 -0.755,3.598c0.194,2.122 0.855,4.8 1.868,7.532c1.7,4.623 4.028,8.369 5.646,9.118c0.29,0.129 0.546,0.16 0.756,0.089c0.665,-0.249 0.948,-1.558 0.758,-3.602c-0.19,-2.123 -0.853,-4.798 -1.856,-7.54c-1.708,-4.614 -4.036,-8.366 -5.66,-9.111M223.781,200.374c-1.685,-0.772 -4.064,-4.58 -5.795,-9.265c-1.014,-2.758 -1.678,-5.465 -1.881,-7.608c-0.2,-2.202 0.133,-3.575 0.942,-3.874c0.277,-0.097 0.592,-0.059 0.956,0.097c1.676,0.777 4.068,4.587 5.788,9.27c1.018,2.755 1.693,5.46 1.875,7.603c0.205,2.205 -0.129,3.582 -0.94,3.872c-0.27,0.101 -0.586,0.067 -0.945,-0.095" fill="#f7b90b"/><path d="M230.56,185.807c-1.624,-0.75 -6.002,-0.09 -10.65,1.606c-2.746,1.013 -5.222,2.242 -6.981,3.463c-1.683,1.181 -2.51,2.24 -2.262,2.91c0.078,0.206 0.26,0.379 0.548,0.511c1.62,0.748 6.006,0.084 10.653,-1.612c2.745,-1.007 5.227,-2.238 6.98,-3.464c1.682,-1.178 2.507,-2.237 2.264,-2.907c-0.08,-0.21 -0.26,-0.377 -0.552,-0.507M211.1,194.54c-0.342,-0.168 -0.58,-0.387 -0.681,-0.66c-0.292,-0.811 0.535,-1.946 2.36,-3.22c1.765,-1.244 4.266,-2.484 7.043,-3.498c4.704,-1.718 9.167,-2.38 10.854,-1.605c0.35,0.169 0.582,0.39 0.68,0.663c0.306,0.8 -0.532,1.944 -2.358,3.217c-1.765,1.247 -4.27,2.485 -7.047,3.497c-4.703,1.72 -9.164,2.375 -10.85,1.606M220.561,181.38c-0.315,0.69 -1.083,1.014 -1.72,0.724c-0.623,-0.287 -0.868,-1.076 -0.549,-1.77c0.318,-0.69 1.086,-1.014 1.715,-0.725c0.628,0.286 0.876,1.088 0.554,1.77" fill="#f7b90b"/><path d="M229.766,190.128c-0.33,0.695 -1.092,1.015 -1.723,0.73c-0.62,-0.29 -0.878,-1.085 -0.556,-1.772c0.321,-0.69 1.092,-1.017 1.712,-0.726c0.639,0.286 0.88,1.086 0.567,1.768M216.89,197.55c-0.321,0.69 -1.094,1.012 -1.718,0.726c-0.628,-0.289 -0.882,-1.078 -0.554,-1.77c0.315,-0.691 1.081,-1.018 1.705,-0.725c0.635,0.295 0.879,1.084 0.568,1.768M222.004,190.583c-0.33,0.69 -1.095,1.012 -1.715,0.726c-0.626,-0.295 -0.886,-1.082 -0.563,-1.77c0.322,-0.689 1.088,-1.015 1.719,-0.725c0.628,0.287 0.874,1.074 0.559,1.769" fill="#f7b90b"/><path d="M282.503,163.324h-34.34v-18.547c0.00027,-0.49065 0.19543,-0.9611 0.54256,-1.30785c0.34713,-0.34675 0.81779,-0.54141 1.30844,-0.54115h30.62c1.02687,-0.00554 1.86394,0.82214 1.87,1.849v18.547z" fill="#434344"/><path d="M284.339,164.058c0,0.4 -0.333,0.725 -0.741,0.725h-36.559c-0.40289,0.00167 -0.73161,-0.32213 -0.736,-0.725v-0.01c0,-0.402 0.334,-0.724 0.736,-0.724h36.559c0.408,0 0.74,0.322 0.74,0.724v0.01z" fill="#b5b4b4"/><path d="M247.039,164.783h36.559c-0.157,0.114 -1.058,0.478 -2.463,0.554h-31.624c-1.445,-0.076 -2.353,-0.444 -2.471,-0.554zM270.086,163.324l-0.448,0.992h-8.573l-0.468,-0.992z" fill="#8d8d8c"/><path d="M249.56,144.275h31.537v18.303h-31.537z" fill="#91d3f0"/><path d="M251.93,155.42c-0.10466,0.14159 -0.26149,0.23557 -0.4357,0.2611c-0.17421,0.02553 -0.35141,-0.0195 -0.4923,-0.1251c-0.14288,-0.10108 -0.2388,-0.25567 -0.26592,-0.42858c-0.02712,-0.17291 0.01685,-0.34944 0.12192,-0.48942l6.817,-9.191c0.21622,-0.29547 0.63103,-0.35972 0.9265,-0.1435c0.29547,0.21622 0.35972,0.63103 0.1435,0.9265l-6.816,9.19zM255.831,153.168c-0.07464,0.09988 -0.18591,0.166 -0.30932,0.18382c-0.12341,0.01782 -0.24884,-0.01413 -0.34868,-0.08882c-0.10401,-0.07096 -0.17413,-0.18169 -0.19381,-0.30605c-0.01969,-0.12436 0.01281,-0.25133 0.08981,-0.35095l4.861,-6.55c0.09568,-0.14431 0.26308,-0.22417 0.43545,-0.20772c0.17236,0.01645 0.32164,0.12653 0.3883,0.28633c0.06666,0.1598 0.03984,0.34333 -0.06975,0.47739zM251.016,153.205c-0.05662,0.07729 -0.142,0.1285 -0.23685,0.14205c-0.09485,0.01355 -0.19116,-0.0117 -0.26715,-0.07005c-0.15819,-0.11958 -0.19114,-0.34399 -0.074,-0.504l0.345,-0.446c0.12,-0.15 0.338,-0.19 0.497,-0.063c0.155,0.12 0.195,0.343 0.07,0.497z" fill="#c3e5f3"/><path d="M247.134,166.344c-0.347,-2.324 0.243,-4.339 1.323,-4.496c1.079,-0.158 2.239,1.589 2.592,3.914c0.35,2.323 -0.251,4.338 -1.333,4.5c-1.072,0.154 -2.224,-1.591 -2.582,-3.918M244.34,148.973c1.217,0.779 2.019,2.099 2.019,3.604c0,2.402 -2.036,4.347 -4.544,4.347c-0.073,0 -0.137,0 -0.203,-0.006c-4.21436,7.5103 -12.15908,12.15603 -20.771,12.146c-8.62629,0.01276 -16.58409,-4.64354 -20.799,-12.17c-0.169,0.024 -0.336,0.03 -0.503,0.03c-2.507,0 -4.537,-1.945 -4.537,-4.347c0,-1.617 0.922,-3.029 2.3,-3.775c-0.161,-1.111 -0.254,-2.241 -0.254,-3.391c0,-13.061 10.655,-23.657 23.793,-23.657c13.121,0 23.766,10.596 23.766,23.657c0.0022,1.19241 -0.08706,2.38324 -0.267,3.562" data-paper-data="{&quot;origPos&quot;:null}" fill="#9b6e3e"/><path d="M245.547,142.331c0.038,2.777 -0.94,8.784 -2.844,12.369c0,0 -4.677,-13.169 -8.522,-15.247c-4.711,-2.555 -17.121,1.123 -21.33,-2.182c-0.693,-0.546 -0.623,-1.79 -0.623,-1.79c0,0 -0.801,1.583 -1.191,2.025c-2.04,2.305 -7.327,5.644 -9.834,7.444c-2.026,1.438 -2.113,1.423 -1.663,9.75c0,0 -3.709,-7.581 -3.51,-12.638c0.07,-1.452 0.777,-4.684 1.926,-7.962c4.34199,-8.65443 13.20145,-14.11242 22.884,-14.098c11.502,0 21.23,7.568 24.417,17.979c0.16885,1.44428 0.26564,2.89608 0.29,4.35" data-paper-data="{&quot;origPos&quot;:null}" fill="#382715"/><path d="M218.97,171.919c-1.104,0 -2.01,-2.334 -2.01,-3.46h7.916c0,1.126 -0.908,3.459 -2.012,3.459h-3.894" data-paper-data="{&quot;origPos&quot;:null}" fill="#9b6e3e"/><path d="M217.812,171.043c-0.446,-0.676 -0.759,-1.61 -0.832,-2.29c1.254,0.204 2.544,0.311 3.86,0.311c1.34713,0.00173 2.69196,-0.11101 4.02,-0.337l-0.018,0.016l-7.03,2.3" fill="#eeac6c"/><path d="M236.4,147.874c0,-0.754 -12.495,-0.754 -12.495,0c0,3.124 1.054,7.554 6.239,7.554c5.623,0 6.256,-4.43 6.256,-7.554zM217.569,147.874c0,-0.754 -12.501,-0.754 -12.501,0c0,3.124 0.62,7.554 6.25,7.554c5.185,0 6.251,-4.43 6.251,-7.554zM238.313,148.887c-0.359,3.726 -1.951,7.878 -8.169,7.878c-5.259,0 -7.301,-3.489 -7.976,-6.94c-0.913,-1.311 -1.888,-1.277 -2.893,0.083c-0.681,3.426 -2.749,6.856 -7.958,6.856c-6.219,0 -7.813,-4.151 -8.17,-7.87l-5.672,0.62l5.555,-2.714v-0.012c0,-1.09 16.552,-1.09 16.552,0v0.063h2.304v-0.063c0,-1.09 16.494,-1.09 16.494,0v0.006l5.6,2.72z" fill="#303030"/><path d="M216.311,143.65c0,0 -0.503,1.803 -2.082,1.446c-0.772,-0.174 -0.908,-1.201 -3.386,-0.74c-0.779,0.18 -2.417,1.156 -2.732,1.808c-0.316,0.652 -0.088,-2.392 2.457,-3.522c1.835,-0.675 2.457,-0.642 3.977,-0.642c1.52,0 1.987,0.907 1.766,1.65M226.052,143.65c0,0 0.503,1.803 2.082,1.446c0.772,-0.174 0.908,-1.201 3.386,-0.74c0.779,0.18 2.417,1.156 2.732,1.808c0.316,0.652 0.087,-2.392 -2.457,-3.522c-1.835,-0.675 -2.457,-0.642 -3.977,-0.642c-1.52,0 -1.987,0.907 -1.766,1.65" data-paper-data="{&quot;origPos&quot;:null}" fill="#382715"/><path d="M214,151c0,1.657 -0.895,3 -2,3c-1.105,0 -2,-1.343 -2,-3c0,-1.657 0.895,-3 2,-3c1.105,0 2,1.343 2,3M232,151c0,1.657 -0.895,3 -2,3c-1.105,0 -2,-1.343 -2,-3c0,-1.657 0.895,-3 2,-3c1.105,0 2,1.343 2,3" data-paper-data="{&quot;origPos&quot;:null}" fill="#382715"/><path d="M221.02,154.069c-1.125,0.153 -3.02,1.834 -3.02,1.834c0,0 0.207,-1.009 0.503,-1.299c0.8,-1.156 2.487,-1.604 2.487,-1.604c0,0 2.173,0.703 2.65,1.588c0.443,0.824 0.34,1.238 0.34,1.238c0,0 -2.121,-1.871 -2.96,-1.756z" fill="#eeac6c"/><path d="M214.2,157.696c0,0 6.897,3.208 13.172,-0.397c0,0 -1.39,5.47 -5.95,5.561c-4.115,0.122 -4.984,-1.492 -5.477,-1.956c-0.492,-0.463 -1.42,-1.772 -1.745,-3.208" fill="#eeac6c"/></g></g></svg>