<svg xmlns="http://www.w3.org/2000/svg" width="93.113" height="117.67"><g fill-rule="evenodd" stroke-miterlimit="10" data-paper-data="{&quot;isPaintingLayer&quot;:true}" style="mix-blend-mode:normal"><path fill="#81461d" d="M57.725 56.644c1.427-3.058 4.806-7.35 4.931-11.29.236-7.393 1.624-10.69 2.754-14.086.162-.484 1.33-.571 2.65-.181l.01.004c1.319.388 2.271 1.112 2.132 1.598l-7.75 26.562c-.147.491-1.336.573-2.657.183l-.006-.004c-1.324-.389-2.514-1.829-2.064-2.785"/><path fill="#b75f22" d="m70.014 57.19-3.754 9.837-6.334-1.677-.04-5.1 5.326-16.665 3.195 3.87z"/><path fill="#b75f22" d="M91.204 47.497c3.62 4.736 3.18 17.517-11.096 15.78-19.168-2.33-14.832-27.402-13.852-31.12 1.019-3.853 6.545-4.882 8.978-.074 2.43 4.809 5.447 8.253 6.798 9 1.354.737 6.889 3.415 9.172 6.415"/><path fill="#f4d2b2" d="M72.438 58.028c-.055-7.128 5.321-12.947 12.016-13 2.202-.018 4.287.59 6.073 1.683.249.252.476.515.676.787 3.623 4.735 3.183 17.516-11.096 15.779-3.007-.364-5.438-1.289-7.394-2.602a13.975 13.975 0 0 1-.275-2.647"/><path fill="#fff" d="M72.493 35.975c-.121-.874.302-1.649.945-1.737.634-.087 1.252.543 1.367 1.417.115.873-.307 1.654-.945 1.74-.635.09-1.248-.545-1.367-1.42"/><path fill="#81461d" d="M72.992 36.349c.075.54.453.934.85.875.396-.05.657-.532.584-1.071-.076-.54-.455-.93-.854-.878-.392.055-.649.537-.58 1.074m2.248-2.72c-1.233-.554-2.97-.769-2.97-.769-.244-.35-.154-1.008.105-1.08.82-.236 2.865 1.849 2.865 1.849"/><path fill="#fff" d="M67.754 36.598c-.121-.874.304-1.649.944-1.742.641-.082 1.254.554 1.371 1.422.117.871-.303 1.653-.945 1.743-.637.086-1.249-.554-1.37-1.424"/><path fill="#81461d" d="M68.255 36.97c.074.543.453.932.85.886.396-.053.657-.539.584-1.08-.075-.541-.453-.93-.853-.88-.393.057-.654.535-.58 1.074m-1.462-2.208c1.044-.87 2.659-1.544 2.659-1.544.142-.4-.117-1.01-.386-1.014-.85-.002-2.273 2.558-2.273 2.558M84.53 50.771s3.42-.04 3.641-.964c.163-.653 0-.98-.636-1.301-.835-.43-3.006 2.265-3.006 2.265m-.659-.002s-3.421.059-3.67-.857c-.183-.646-.029-.977.59-1.32.83-.45 3.08 2.177 3.08 2.177m.405 11.414c-4.554.036-4.59-4.522-4.59-4.522s4.575 3.036 9.106-.075c0 0 .035 4.557-4.516 4.597"/><path fill="#b75f22" d="M77.317 29.587a5.459 5.459 0 0 1-3.882 1.6 5.53 5.53 0 0 1 1.636-3.897 5.428 5.428 0 0 1 3.88-1.602 5.516 5.516 0 0 1-1.634 3.899"/><path fill="#81461d" d="M76.86 29.114a3.216 3.216 0 0 1-2.293.945c.006-.833.327-1.67.96-2.303a3.22 3.22 0 0 1 2.295-.939 3.274 3.274 0 0 1-.962 2.297"/><path fill="#b75f22" d="M63.497 30.676a5.5 5.5 0 0 1-1.954-3.737 5.44 5.44 0 0 1 4.003 1.26 5.532 5.532 0 0 1 1.951 3.745 5.416 5.416 0 0 1-4-1.267"/><path fill="#81461d" d="M63.917 30.169a3.25 3.25 0 0 1-1.155-2.207c.856-.08 1.71.188 2.365.744a3.317 3.317 0 0 1 1.158 2.208c-.857.08-1.71-.19-2.368-.745m10.067-1.376a.882.882 0 0 1-.39.914.974.974 0 0 1 .317.553 1.006 1.006 0 0 1-1.815.78.84.84 0 0 1-1.056-.602 1.025 1.025 0 0 1-.676-.28 1.34 1.34 0 0 1-.892.625c-.206.04-.411.036-.601-.017a1.11 1.11 0 0 1-2.013-.411 1.125 1.125 0 0 1 .87-1.33l.175-.019c.15-.472.543-.825 1.028-.924a1.26 1.26 0 0 1 .59.01.767.767 0 0 1 .59-.886.753.753 0 0 1 .889.594c.013.031.013.056.015.086.1-.08.218-.133.344-.156a.846.846 0 0 1 .991.67c0 .004 0 .023.004.038a.55.55 0 0 1 .132-.065.901.901 0 0 1 .472-.27.878.878 0 0 1 1.026.69m-13.353 76.861c-.471-6.602-.853-19.857-1.331-26.459a1.774 1.774 0 0 1 1.628-1.897l.367-.027a1.762 1.762 0 0 1 1.88 1.638c.478 6.602 2 19.774 2.477 26.377.069.978-1.231 1.865-2.195 1.938l-.372.026c-.968.071-2.381-.617-2.454-1.596m-30.462-.389c.129-6.621.966-19.851 1.093-26.471a1.762 1.762 0 0 1 1.795-1.735l.371.004a1.764 1.764 0 0 1 1.724 1.804c-.133 6.626.175 19.88.042 26.499-.021.979-1.392 1.746-2.365 1.727l-.367-.008c-.975-.02-2.316-.845-2.293-1.82m-4.926-37.908s-.612-2.613-1.202-3.24c-7.939-8.413-12.05-.122-10.986 2.561 4.152 10.508-2.318 12.9-2.318 12.9 4.668 1.497 8.684-2.855 9.27-5.499.61-2.716.207-8.223 3.072-7.612.776.163 1.006 3.06 1.006 3.06z"/><path fill="#b75f22" d="M22.848 68.923c-.052-6.423 4.155-7.606 7.74-6.796 3.49.792 5.854 2.113 8.946 2.013 5.596-.181 16.227-4.777 20.81-4.544 5.239.27 6.025 4.171 5.917 8.978-.32 14.49-11.883 20.404-23.873 20.5-11.99.095-19.471-11.141-19.54-20.151"/><path fill="#b75f22" d="M54.056 111.826c-.052-6.617.416-19.866.366-26.489a1.761 1.761 0 0 1 1.74-1.783l.372-.004a1.768 1.768 0 0 1 1.772 1.754c.052 6.624.726 19.864.776 26.484.008.979-1.34 1.79-2.312 1.8l-.374.002c-.97.008-2.331-.784-2.34-1.764m-29.647-.938c-.05-6.623.359-26.421.307-33.038-.007-.983.777-1.802 1.747-1.81l.371-.002c.966-.009 1.761.796 1.77 1.778.05 6.62.778 26.41.83 33.03.008.985-1.344 1.794-2.312 1.8l-.371.004c-.971.008-2.334-.779-2.342-1.762"/><path fill="#373737" d="M59.07 110.524c.006.438.01.868.012 1.266.009.976-1.341 1.787-2.314 1.797l-.371.003c-.97.008-2.332-.784-2.34-1.765-.004-.4-.006-.831-.006-1.278 1.219.245 3.276.506 5.019-.023m-29.65-.956c.007.466.013.895.015 1.278.009.985-1.346 1.794-2.314 1.8l-.37.004c-.97.009-2.333-.779-2.341-1.762-.002-.377-.002-.808-.006-1.271 1.245.246 3.293.494 5.017-.049m5.794-5.521c-.009.467-.015.907-.021 1.32-.02.978-1.392 1.744-2.365 1.725l-.367-.008c-.975-.017-2.316-.844-2.293-1.819.004-.419.02-.86.03-1.324 1.12.25 3.2.577 5.016.105m30.342.058c.038.41.063.812.096 1.183.069.977-1.231 1.863-2.198 1.937l-.371.025c-.966.071-2.38-.617-2.452-1.596-.027-.436-.06-.893-.088-1.373 1.125.186 3.229.394 5.013-.176"/><path fill="#333433" d="M20.868 59.73c-1.513.612 27.443.343 25.958-.232 2.683 10.179 3.107 25.539 3.107 25.539h.008s.693 14.926-1.771 15.83l-9.896-13.698c-3.349-.365-4.384-4.548-4.384-4.548s-.866 4.2-4.656 4.62l-9.02 13.85c-2.381-.817-2.05-15.785-2.05-15.785s.186-15.36 2.703-25.575"/><path fill="#eeeeed" d="m46.418 85.091-1.824 17.15-9.671.077-.716-9.815-.288.002-.563 9.823-9.667.08-2.096-17.117z"/><path fill="#343434" d="M44.451 111.604c1.809 1.105 3.137 3.376 1.609 5.252-1.154 1.322-2.876.289-4.178-.25-1.448-.68-3.095-1.152-4.405-2.038-.845-.59-1.841-1.219-2.415-2.095-.177-.271-.263-.526-.204-.794h.008l-.092-11.595 10.053-.082-.366 11.602h-.01m-10.902.084c.067.196-.015.522-.185.798-.562.886-1.547 1.53-2.38 2.13-1.298.91-2.936 1.411-4.37 2.114-1.302.564-3.007 1.622-4.18.312-1.557-1.851-.269-4.137 1.52-5.276h-.007l-.546-11.594 10.071-.08.09 11.596z"/><path fill="#d0d0d0" d="m42.992 85.117-17.138.137 8.396-4.985z"/><path fill="#eeeeed" d="M7.38 41.756c1.08.204 1.604 2.288 1.17 4.646-.169.908-.451 1.72-.794 2.366-.183 1.253-.805 2.262-1.79 2.693-1.834.8-4.238-.714-5.376-3.36-1.139-2.659-.58-5.457 1.255-6.253 1.195-.526 2.637-.061 3.81 1.058.518-.81 1.146-1.255 1.725-1.15m49.957 36.881c.27 2.362-.834 4.429-2.47 4.615-1.062.126-2.089-.588-2.747-1.752-.605.512-1.195.71-1.627.488-.806-.418-.723-2.187.183-3.942a6.84 6.84 0 0 1 1.186-1.67c.04-.08.083-.16.127-.238l4.431-.027c.478.673.803 1.528.918 2.526"/><path fill="#333433" d="m2.889 52.043 4.746-2.41 5.464 6.505 11.584-4.352-.01.02c1.999-1.36 7.371-1.602 7.371-1.602l1.757.044.149-.002 1.75-.084s5.272.186 7.332 1.486v-.009s6.459 3.348 8.258 5.63c3.702 4.686 5.215 18.874 5.215 18.874l-4.766.031s-1.371-10.242-3.087-12.648c-.628-.878-1.006-1.47-1.246-1.937 2.256 10.071 2.632 23.578 2.632 23.578l.052 2.05-11.09.09c-3.8-.365-4.727-4.545-4.727-4.545s-.977 4.132-4.31 4.616l-11.753.095.048-2.042h.012s.182-15.377 2.694-25.597c-1.51.614-8.46 3.336-10.61 2.57-2.992-1.07-7.464-10.36-7.464-10.36z"/><path fill="#fff" d="m34.478 68.635-.52.8-.76-1.088-1.958-4.403-2.35-13.524a32.61 32.61 0 0 1 3.053-.334l1.758.048.144-.002 1.755-.057s1.569.044 3.335.297l-2.417 13.53-2.039 4.733z"/><path fill="#d0d0d0" d="M36.044 60.13c.04 1.612-.905 6.391-.905 6.391l-1.18 2.889-1.252-3.009s-.968-4.654-.981-6.234c-.006-1.503.883-5.945.883-5.945-.507-.339-.95-2.261-.95-2.261l2.152-1.737 1.975 1.703s-.389 1.885-.85 2.278c0 0 1.075 4.413 1.108 5.925"/><path fill="#fff" d="M33.778 50.171c.008 1.313-3.504 3.985-3.504 3.985l-.025-.021c-.23.204-.49.332-.81.272-.522-.085-.38-.346-.643-.727-.288-.374-.553-.486-.703-1.01-.174-.676-.184-1.402-.134-2.084 2.004-.386 3.984-.483 3.984-.483l1.758.068h.077"/><path fill="#666767" d="M27.984 50.611c-.048.81-.007 1.475.146 2.048.098.358.252.52.434.714.081.086.173.174.26.286.09.135.136.248.168.345.077.196.127.316.455.369.28.05.53-.034.782-.261l.015-.021.035.025c.282-.217 3.423-2.672 3.471-3.916h-.05l-1.755-.072c-.017.005-1.983.106-3.961.483m1.617 3.842c-.052 0-.108-.002-.165-.01-.37-.06-.428-.218-.503-.411a1.402 1.402 0 0 0-.16-.329c-.09-.111-.176-.2-.253-.29-.19-.192-.346-.367-.457-.737-.148-.583-.194-1.268-.138-2.09l.004-.028.021-.002a32.121 32.121 0 0 1 3.993-.486l1.757.063.115-.002v.037c.008 1.314-3.377 3.906-3.519 4.015l-.02.013-.024-.017c-.215.183-.423.272-.65.274"/><path fill="#fff" d="M39.209 52.808c-.311.876-.828 1.272-1.726 1.278l-.077.013s-3.562-2.617-3.57-3.931h.01l1.755-.082s1.914.042 3.896.377c.223.718-.058 1.705-.287 2.345"/><path fill="#666767" d="M33.87 50.197c.062 1.26 3.324 3.708 3.54 3.872l.068-.013c.885-.01 1.392-.387 1.701-1.258.357-.984.457-1.758.292-2.304a30.234 30.234 0 0 0-3.871-.374l-1.73.078zm3.523 3.937-.005-.006c-.15-.112-3.573-2.644-3.583-3.958v-.036l.04-.002 1.753-.073c.019 0 1.947.044 3.904.37h.02l.008.017c.175.566.075 1.362-.29 2.375-.318.892-.856 1.292-1.758 1.303l-.09.01z"/><path fill="#4f4f4f" d="M33.98 69.45c-4.157-2.708-6.749-12.13-6.749-12.13l1.097-2.18-2.204-.55-.563-3.356c1.16-.454 2.707-.741 3.982-.911 1.033 5.495 4.437 19.126 4.437 19.126"/><path fill="#4f4f4f" d="M33.935 69.449s3.182-13.682 4.13-19.196c1.28.152 2.834.41 3.999.847l-.514 3.367-2.195.583 1.14 2.162s-2.447 9.463-6.56 12.236"/><path fill="#f6b90c" d="M34.717 72.654a.635.635 0 0 1-1.079.458.627.627 0 0 1-.183-.449.626.626 0 0 1 .622-.638.633.633 0 0 1 .64.63m.023 2.834a.635.635 0 0 1-1.078.457.628.628 0 0 1-.185-.447.631.631 0 0 1 .622-.643.64.64 0 0 1 .64.633m.023 2.895a.64.64 0 0 1-.63.648.632.632 0 0 1-.632-.637.629.629 0 0 1 .622-.638c.35-.002.638.28.64.627"/><path fill="#9c6c40" d="M56.209 29.233c1.173.749 1.955 2.035 1.965 3.5.02 2.331-1.913 4.235-4.32 4.255-.064 0-.133-.002-.2-.004-3.84 7.069-11.263 11.894-19.82 11.962-8.566.069-16.072-4.644-20.022-11.664a3.792 3.792 0 0 1-.482.03c-2.402.021-4.364-1.853-4.382-4.183-.013-1.577.866-2.962 2.174-3.692a22.981 22.981 0 0 1-.261-3.3c-.1-12.69 10.024-23.066 22.611-23.168 12.585-.101 22.868 10.112 22.967 22.804.01 1.18-.07 2.33-.23 3.46" data-paper-data="{&quot;origPos&quot;:null}"/><path fill="#5f3415" d="M29.401 25.017s-.503 1.803-2.082 1.446c-.772-.174-.908-1.201-3.386-.74-.779.18-2.417 1.156-2.732 1.808-.316.652-.088-2.392 2.457-3.522 1.835-.675 2.457-.642 3.977-.642s1.987.907 1.766 1.65m9.741 0s.503 1.803 2.082 1.446c.772-.174.908-1.201 3.386-.74.779.18 2.417 1.156 2.732 1.808.316.652.087-2.392-2.457-3.522-1.835-.675-2.457-.642-3.977-.642s-1.987.907-1.766 1.65M26.829 32.367c0 1.657-.895 3-2 3s-2-1.343-2-3 .895-3 2-3 2 1.343 2 3m18 0c0 1.657-.895 3-2 3s-2-1.343-2-3 .895-3 2-3 2 1.343 2 3" data-paper-data="{&quot;origPos&quot;:null}"/><path fill="#eeac6c" d="M34.11 35.436c-1.125.153-3.02 1.834-3.02 1.834s.207-1.009.503-1.299c.8-1.156 2.487-1.604 2.487-1.604s2.173.703 2.65 1.588c.443.824.34 1.238.34 1.238s-2.121-1.871-2.96-1.756zM27.29 39.063s6.897 3.208 13.172-.397c0 0-1.39 5.47-5.95 5.561-4.115.122-4.984-1.492-5.477-1.956-.492-.463-1.42-1.772-1.745-3.208"/><path fill="#5f3415" d="M57.32 22.77c.056 2.702-.835 8.55-2.63 12.05 0 0-4.581-12.762-8.292-14.76-4.535-2.438-16.397 1.225-20.452-1.95-.674-.534-.61-1.734-.61-1.734s-.759 1.543-1.13 1.97c-1.935 2.259-6.981 5.548-9.367 7.312-1.928 1.417-2.011 1.402-1.525 9.492 0 0-3.611-7.336-3.456-12.25.048-1.417.705-4.558 1.788-7.764 3.947-8.15 12.215-13.798 21.813-13.874 11.031-.088 20.416 7.198 23.556 17.29.167 1.4.269 2.807.305 4.217" data-paper-data="{&quot;origPos&quot;:null}"/><path fill="#9c6c40" d="M32.074 51.595c-1.058.007-1.945-2.288-1.953-3.341l7.578-.061c.008 1.053-.835 3.362-1.904 3.369l-3.721.033" data-paper-data="{&quot;origPos&quot;:null}"/><path fill="#eeac6c" d="M31.025 50.872c-.433-.653-.808-1.541-.883-2.198 2.502.393 5.052.364 7.544-.086l-.011.012-6.65 2.272"/><path fill="#1d1d1d" d="m61.801 22.502-55.983.449-.023-2.701 55.983-.451z"/><path fill="#333433" d="m57.333 19.833-47.161.38L10.014.379 57.179 0z"/></g></svg>