<svg version="1.1" xmlns="http://www.w3.org/2000/svg" xmlns:xlink="http://www.w3.org/1999/xlink" width="52.378" height="108" viewBox="0,0,52.378,108"><g transform="translate(-214,-134.99999)"><g data-paper-data="{&quot;isPaintingLayer&quot;:true}" fill-rule="evenodd" stroke-miterlimit="10" stroke-dasharray="" stroke-dashoffset="0" style="mix-blend-mode: normal"><path d="M214,209.673c0,-14.464 11.725,-26.191 26.189,-26.191c14.464,0 26.189,11.726 26.189,26.19v33.328h-52.378z" fill="#e56c1a" stroke="none" stroke-width="1" stroke-linecap="butt" stroke-linejoin="miter"/><path d="M240.22,204.96c-2.83913,0.00471 -5.62214,-0.79069 -8.03,-2.295c-4.293,-2.682 -7.15,-7.45 -7.15,-12.885c0,-8.384 6.796,-15.18 15.18,-15.18c8.384,0 15.18,6.796 15.18,15.18c0,8.384 -6.796,15.18 -15.18,15.18" fill="#e56c1a" stroke="none" stroke-width="1" stroke-linecap="butt" stroke-linejoin="miter"/><path d="M240.22,197.64c-4.34096,0 -7.86,-3.51904 -7.86,-7.86c0,-4.34096 3.51904,-7.86 7.86,-7.86c4.34096,0 7.86,3.51904 7.86,7.86c0,4.34096 -3.51904,7.86 -7.86,7.86" data-paper-data="{&quot;origPos&quot;:null}" fill="#e8ad69" stroke="none" stroke-width="1" stroke-linecap="butt" stroke-linejoin="miter"/><path d="M240.16,188.76l0.36,-9.48" data-paper-data="{&quot;origPos&quot;:null}" fill="#e9c7a1" stroke="#e9c7a1" stroke-width="10.476" stroke-linecap="round" stroke-linejoin="round"/><path d="M250.839,143.76c5.9,0 10.682,4.782 10.682,10.682v10.258c0,11.565 -9.375,20.94 -20.94,20.94c-11.565,0 -20.94,-9.375 -20.94,-20.94v-4.607c4.3367,0 7.85245,-3.5153 7.853,-7.852v-0.596c0,-4.309 3.458,-7.862 7.766,-7.885h15.578" data-paper-data="{&quot;origPos&quot;:null}" fill="#e9c7a1" stroke="none" stroke-width="1" stroke-linecap="butt" stroke-linejoin="miter"/><path d="M252.279,144.6c5.9,0 10.682,4.782 10.682,10.682v10.258c0,11.565 -9.375,20.94 -20.94,20.94c-11.565,0 -20.94,-9.375 -20.94,-20.94v-4.607c4.33654,0 7.852,-3.51546 7.852,-7.852v-0.596c0,-4.309 3.459,-7.862 7.767,-7.885h15.578" data-paper-data="{&quot;origPos&quot;:null}" fill="#e9c7a1" stroke="none" stroke-width="1" stroke-linecap="butt" stroke-linejoin="miter"/><path d="M252.13,135c5.981,0 10.83,4.848 10.83,10.828v11.047c0,-6.101 -4.947,-11.047 -11.049,-11.047h-16.115c-4.456,0.025 -8.033,3.699 -8.033,8.155v0.616c-0.00027,2.15409 -0.85622,4.21984 -2.37958,5.74283c-1.52336,1.52299 -3.58933,2.37844 -5.74342,2.37817v-16.892c0,-0.172 0.005,-0.342 0.013,-0.512c0.002,-0.054 0.007,-0.107 0.01,-0.161c0.01756,-0.28974 0.04692,-0.57865 0.088,-0.866l0.024,-0.167c0.021,-0.133 0.045,-0.266 0.071,-0.398c0.006,-0.03 0.011,-0.062 0.018,-0.092c0.033,-0.162 0.07,-0.322 0.11,-0.48c0.011,-0.045 0.024,-0.088 0.036,-0.133c0.031,-0.115 0.063,-0.229 0.097,-0.342l0.053,-0.166c0.034,-0.103 0.068,-0.206 0.104,-0.308l0.059,-0.163c0.04083,-0.11031 0.08417,-0.21967 0.13,-0.328c0.016,-0.042 0.032,-0.084 0.05,-0.125c0.063,-0.148 0.128,-0.293 0.198,-0.438c0.015,-0.032 0.032,-0.063 0.048,-0.095c0.055,-0.113 0.111,-0.224 0.171,-0.334l0.082,-0.149c0.1326,-0.23872 0.27437,-0.47222 0.425,-0.7l0.088,-0.133c0.08857,-0.13028 0.17992,-0.25864 0.274,-0.385l0.028,-0.036c0.086,-0.115 0.176,-0.228 0.266,-0.339l0.107,-0.126c0.17332,-0.20523 0.35411,-0.40402 0.542,-0.596l0.122,-0.125c0.087,-0.086 0.176,-0.17 0.266,-0.254l0.08,-0.074c0.116,-0.105 0.234,-0.207 0.354,-0.307l0.122,-0.098c0.20908,-0.16964 0.42493,-0.33077 0.647,-0.483c0.051,-0.035 0.101,-0.071 0.153,-0.105c0.09102,-0.06052 0.18304,-0.11952 0.276,-0.177l0.129,-0.081c0.13387,-0.08019 0.26923,-0.15787 0.406,-0.233l0.123,-0.064c0.101,-0.054 0.202,-0.106 0.305,-0.156c0.056,-0.028 0.112,-0.054 0.168,-0.08c0.24407,-0.11406 0.49223,-0.21912 0.744,-0.315l0.163,-0.062c1.18022,-0.42554 2.42541,-0.64277 3.68,-0.642h21.66" data-paper-data="{&quot;origPos&quot;:null}" fill="#212121" stroke="none" stroke-width="1" stroke-linecap="butt" stroke-linejoin="miter"/><path d="M214.36,166.68c0,-3.18116 2.57884,-5.76 5.76,-5.76c3.18116,0 5.76,2.57884 5.76,5.76c0,3.18116 -2.57884,5.76 -5.76,5.76c-3.18116,0 -5.76,-2.57884 -5.76,-5.76" data-paper-data="{&quot;origPos&quot;:null}" fill="#e9c7a1" stroke="none" stroke-width="1" stroke-linecap="butt" stroke-linejoin="miter"/><path d="M216.88,166.462c0,-1.536 1.236,-2.782 2.76,-2.782c1.524,0 2.76,1.246 2.76,2.782v0.556c0,1.536 -1.236,2.782 -2.76,2.782c-1.524,0 -2.76,-1.246 -2.76,-2.782v-0.556" data-paper-data="{&quot;origPos&quot;:null}" fill="#e8ad69" stroke="none" stroke-width="1" stroke-linecap="butt" stroke-linejoin="miter"/><path d="M219.64,155.88h8.76c-0.16004,0.37466 -0.34999,0.73583 -0.568,1.08h-8.192zM219.64,153.72h9.24c-0.03259,0.3641 -0.09311,0.72517 -0.181,1.08h-9.059z" data-paper-data="{&quot;origPos&quot;:null}" fill="#e9c7a1" stroke="none" stroke-width="1" stroke-linecap="butt" stroke-linejoin="miter"/><path d="M233.08,169.08c0,2.31959 -1.88041,4.2 -4.2,4.2c-2.31959,0 -4.2,-1.8804 -4.2,-4.2c0,-2.31959 1.8804,-4.2 4.2,-4.2c2.31959,0 4.2,1.88041 4.2,4.2M261.04,169.08c0,2.31959 -1.88041,4.2 -4.2,4.2c-2.31959,0 -4.2,-1.8804 -4.2,-4.2c0,-2.31959 1.8804,-4.2 4.2,-4.2c2.31959,0 4.2,1.88041 4.2,4.2" data-paper-data="{&quot;origPos&quot;:null}" fill="#e8ad69" stroke="none" stroke-width="1" stroke-linecap="butt" stroke-linejoin="miter"/><path d="M238,159.36c0,2.187 -1.209,3.96 -2.7,3.96c-1.491,0 -2.7,-1.773 -2.7,-3.96c0,-2.187 1.209,-3.96 2.7,-3.96c1.491,0 2.7,1.773 2.7,3.96M255.76,159.36c0,2.187 -1.209,3.96 -2.7,3.96c-1.491,0 -2.7,-1.773 -2.7,-3.96c0,-2.187 1.209,-3.96 2.7,-3.96c1.491,0 2.7,1.773 2.7,3.96" fill="#212121" stroke="none" stroke-width="1" stroke-linecap="butt" stroke-linejoin="miter"/><path d="M249.04,170.52c0,2.916 -2.337,5.28 -5.22,5.28c-2.883,0 -5.22,-2.364 -5.22,-5.28" fill="none" stroke="#212121" stroke-width="2.095" stroke-linecap="round" stroke-linejoin="round"/><path d="M243.88,155.4v6.695l1.12,1.091c0.58792,0.56558 0.92015,1.3462 0.92015,2.162c0,0.8158 -0.33223,1.59642 -0.92015,2.162l-1.12,1.09" data-paper-data="{&quot;origPos&quot;:null}" fill="none" stroke="#e8ad69" stroke-width="2.095" stroke-linecap="round" stroke-linejoin="round"/><path d="M245.43,221.43v-20.57" fill="#ffffff" stroke="none" stroke-width="1" stroke-linecap="butt" stroke-linejoin="miter"/><path d="M245.43,221.43v-20.57" fill="none" stroke="#ffffff" stroke-width="2.095" stroke-linecap="round" stroke-linejoin="round"/><path d="M234.948,221.43v-20.57" fill="#ffffff" stroke="none" stroke-width="1" stroke-linecap="butt" stroke-linejoin="miter"/><path d="M234.948,221.43v-20.57" fill="none" stroke="#ffffff" stroke-width="2.095" stroke-linecap="round" stroke-linejoin="round"/></g></g></svg>