<svg xmlns="http://www.w3.org/2000/svg" xmlns:xlink="http://www.w3.org/1999/xlink" width="120" height="120"><defs><path id="a" d="M0 0h120v120H0z"/></defs><g fill="none" fill-rule="evenodd"><mask id="b" fill="#fff"><use xlink:href="#a"/></mask><path fill="#FF6187" d="M0 11.633v96.734C0 114.792 5.208 120 11.633 120h96.734c6.424 0 11.633-5.208 11.633-11.633V11.633C120 5.207 114.79 0 108.367 0H11.633C5.208 0 0 5.207 0 11.633" mask="url(#b)"/><path fill="#FFFCEE" d="M75.43 67.461 52.997 82.975c-5.713 3.226-12.784-.901-12.784-7.461V44.487c0-6.56 7.071-10.688 12.784-7.462L75.43 52.538c5.808 3.279 5.808 11.645 0 14.923"/></g></svg>