<svg version="1.1" xmlns="http://www.w3.org/2000/svg" xmlns:xlink="http://www.w3.org/1999/xlink" width="55.82922" height="110.60508" viewBox="0,0,55.82922,110.60508"><g transform="translate(-212.14539,-125.26829)"><g data-paper-data="{&quot;isPaintingLayer&quot;:true}" fill-rule="evenodd" stroke-miterlimit="10" stroke-dasharray="" stroke-dashoffset="0" style="mix-blend-mode: normal"><path d="M241.561,164.646c3.011,6.174 8.234,-1.663 11.806,0.663c5.529,3.599 6.87,-3.244 8.996,-2.968c5.05,0.654 7.29,-4.391 4.198,-9.364c-1.336,-2.149 -3.155,-2.541 -4.376,-4.185c-2.204,-2.964 -2.296,-6.135 -4.3,-9.632M238.559,164.646c-3.011,6.174 -8.234,-1.663 -11.806,0.663c-5.529,3.599 -6.87,-3.244 -8.996,-2.968c-5.05,0.654 -7.29,-4.391 -4.198,-9.364c1.336,-2.149 3.155,-2.541 4.377,-4.185c2.203,-2.964 2.258,-8.563 4.65,-11.62" fill="#424242" stroke="none" stroke-width="1" stroke-linecap="butt" stroke-linejoin="miter"/><path d="M251.746,166.551l-2.5,14.877h-18.92l-2.5,-14.877l8.538,-1.719v-5.86h6.843v5.86z" data-paper-data="{&quot;origPos&quot;:null}" fill="#77584b" stroke="none" stroke-width="1" stroke-linecap="butt" stroke-linejoin="miter"/><path d="M239.69,172.979c1.491,-4.538 11.863,-5.151 11.863,-5.151l-0.352,0.821c-4.418,7.545 -10.452,5.272 -11.512,4.799c-1.057,0.473 -7.093,2.746 -11.51,-4.799l-0.353,-0.821c0,0 10.372,0.612 11.864,5.152" fill="#0288d1" stroke="none" stroke-width="1" stroke-linecap="butt" stroke-linejoin="miter"/><path d="M249.246,181.428c0,0 2.333,2.227 5.285,6.33h-30.043c1.695,-2.435 3.629,-4.604 5.837,-6.33l-2.453,-14.606c0.859,3.705 5.895,6.549 11.981,6.549c5.61,0 10.327,-2.417 11.703,-5.697l-2.31,13.754" fill="#4fc3f7" stroke="none" stroke-width="1" stroke-linecap="butt" stroke-linejoin="miter"/><path d="M254.531,187.758c5.093,7.077 12.029,19.74 12.029,36.218c0.015,-0.005 -0.833,2.712 -2.54,3.298c-1.705,0.594 -4.007,-1.035 -3.993,-1.04c0.014,-0.003 -1.071,2.617 -2.813,3.034c-1.741,0.426 -3.872,-1.417 -3.858,-1.42c0.014,-0.002 -1.3,2.501 -3.066,2.75c-1.766,0.257 -3.711,-1.78 -3.696,-1.782c0.014,-0.001 -1.521,2.367 -3.299,2.447c-1.777,0.088 -3.524,-2.124 -3.509,-2.124c0.015,0.001 -1.732,2.212 -3.509,2.124c-1.778,-0.08 -3.314,-2.447 -3.299,-2.447c0.014,0.002 -1.931,2.039 -3.696,1.782c-1.766,-0.249 -3.081,-2.752 -3.066,-2.75c0.014,0.003 -2.117,1.846 -3.858,1.42c-1.743,-0.417 -2.828,-3.037 -2.813,-3.034c0.014,0.005 -2.288,1.634 -3.994,1.04c-1.706,-0.585 -2.554,-3.303 -2.54,-3.298c0,0 1.875,-22.423 11.477,-36.218z" fill="#4fc3f7" stroke="none" stroke-width="1" stroke-linecap="butt" stroke-linejoin="miter"/><path d="M237.504,230.309c-1.183,2.845 -3.833,6.077 -5.2,5.496c-1.367,-0.582 -0.934,-4.756 0.25,-7.601c1.185,-2.845 2.67,-3.284 4.037,-2.702c1.368,0.581 2.098,1.962 0.913,4.807" fill="#0288d1" stroke="none" stroke-width="1" stroke-linecap="butt" stroke-linejoin="miter"/><path d="M242.068,230.309c-1.184,-2.845 -0.454,-4.226 0.911,-4.807c1.368,-0.582 2.854,-0.143 4.039,2.702c1.184,2.845 1.617,7.019 0.25,7.601c-1.367,0.581 -4.016,-2.651 -5.2,-5.496" fill="#0288d1" stroke="none" stroke-width="1" stroke-linecap="butt" stroke-linejoin="miter"/><path d="M266.56,223.975c0.015,-0.004 -0.833,2.713 -2.54,3.299c-1.705,0.594 -4.008,-1.035 -3.993,-1.04c0.014,-0.003 -1.07,2.617 -2.813,3.035c-1.742,0.424 -3.872,-1.417 -3.858,-1.421c0.015,-0.002 -1.3,2.501 -3.066,2.75c-1.766,0.257 -3.711,-1.78 -3.696,-1.782c0.014,0 -1.521,2.367 -3.299,2.447c-1.778,0.088 -3.524,-2.123 -3.51,-2.125c0.016,0.002 -1.73,2.213 -3.508,2.125c-1.778,-0.08 -3.314,-2.448 -3.299,-2.447c0.015,0.002 -1.93,2.039 -3.696,1.782c-1.766,-0.249 -3.08,-2.752 -3.066,-2.75c0.014,0.004 -2.117,1.845 -3.858,1.42c-1.742,-0.417 -2.828,-3.037 -2.813,-3.034c0.014,0.005 -2.288,1.634 -3.993,1.04c-1.707,-0.585 -2.555,-3.303 -2.541,-3.299c0,0 2.593,-31.039 17.314,-42.547l9.239,6.441l9.683,-6.44c0,0 17.313,16.514 17.313,42.545" fill="#fdd835" stroke="none" stroke-width="1" stroke-linecap="butt" stroke-linejoin="miter"/><path d="M239.514,190.391l-10.829,-7.55c0.52539,-0.49515 1.0726,-0.96662 1.64,-1.413l9.239,6.441l9.683,-6.441c0,0 0.548,0.523 1.446,1.526l-11.179,7.436z" fill="#0288d1" stroke="none" stroke-width="1" stroke-linecap="butt" stroke-linejoin="miter"/><path d="M230.748,194.486c0.35822,0.25922 0.68568,0.55849 0.976,0.892c0.843,0.952 1.267,1.957 0.949,2.245c-0.195,0.176 -0.626,0.039 -1.124,-0.312c0.257,1.538 0.35,3.548 -0.454,5.058c0,0 -3.393,-3.164 -3.486,-6.273c-0.079,-2.634 -7.633,-12.508 -1.499,-28.268l2.069,0.821l0.952,5.667c-1.368,4.334 -2.306,11.499 1.617,20.17" data-paper-data="{&quot;origPos&quot;:null}" fill="#77584b" stroke="none" stroke-width="1" stroke-linecap="butt" stroke-linejoin="miter"/><path d="M257.88121,146.622c0,8.855 -8.212,15.719 -18.341,15.719c-10.13,0 -18.341,-6.864 -18.341,-15.719c0,-8.856 8.211,-17.61 18.34,-17.61c10.13,0 18.342,8.754 18.342,17.61" data-paper-data="{&quot;origPos&quot;:null}" fill="#916c5c" stroke="none" stroke-width="1" stroke-linecap="butt" stroke-linejoin="miter"/><path d="M238.934,136.877l-18.532,7.163c0.557,-8.522 4.855,-18.647 19.384,-18.647c13.582,0 19.243,9.166 19.8,17.688z" fill="#424242" stroke="none" stroke-width="1" stroke-linecap="butt" stroke-linejoin="miter"/><path d="M231.444,149.019c0,0.86 -0.69,1.559 -1.542,1.559c-0.41135,-0.00238 -0.80491,-0.16808 -1.09409,-0.46063c-0.28918,-0.29256 -0.4503,-0.68801 -0.44791,-1.09937c0,-0.86 0.69,-1.559 1.542,-1.559c0.852,0 1.542,0.699 1.542,1.56" fill="#5d4037" stroke="none" stroke-width="1" stroke-linecap="butt" stroke-linejoin="miter"/><path d="M229.892,148.791l-1.44,-2.292M229.076,149.123l-2.291,-1.905" fill="none" stroke="#5d4037" stroke-width="0.756" stroke-linecap="round" stroke-linejoin="round"/><path d="M248.128,149.019c0,-0.861 0.69,-1.56 1.542,-1.56c0.852,0 1.542,0.699 1.542,1.559c0.00266,0.41143 -0.15837,0.80704 -0.44761,1.09966c-0.28924,0.29262 -0.68295,0.45823 -1.09439,0.46034c-0.852,0 -1.542,-0.699 -1.542,-1.559" fill="#5d4037" stroke="none" stroke-width="1" stroke-linecap="butt" stroke-linejoin="miter"/><path d="M251.12,146.499l-1.44,2.292M252.786,147.218l-2.29,1.905" fill="none" stroke="#5d4037" stroke-width="0.756" stroke-linecap="round" stroke-linejoin="round"/><path d="M243.207,156.585c-0.684,1.63 -1.958,2.73 -3.421,2.73c-1.463,0 -2.737,-1.1 -3.422,-2.73z" fill="#ef5350" stroke="none" stroke-width="1" stroke-linecap="butt" stroke-linejoin="miter"/><path d="M227.148,152.977c2.717,0 4.92,2.227 4.92,4.973c0.00072,0.93504 -0.26198,1.85137 -0.758,2.644c-3.176,-1.399 -5.804,-3.569 -7.547,-6.247c0.90793,-0.87843 2.12168,-1.36967 3.385,-1.37M255.809,154.347c-1.743,2.678 -4.372,4.847 -7.547,6.247c-0.478,-0.766 -0.758,-1.671 -0.758,-2.644c0,-2.747 2.203,-4.973 4.92,-4.973c1.26332,0.00033 2.47707,0.49157 3.385,1.37" fill="#ffccbc" stroke="none" stroke-width="1" stroke-linecap="butt" stroke-linejoin="miter"/><path d="M248.772,194.486c3.923,-8.671 2.984,-15.836 1.617,-20.17l0.952,-5.667l2.068,-0.821c6.134,15.76 -1.419,25.634 -1.498,28.268c-0.094,3.109 -3.487,6.273 -3.487,6.273c-0.804,-1.51 -0.711,-3.52 -0.453,-5.058c-0.498,0.351 -0.93,0.488 -1.125,0.312c-0.318,-0.288 0.107,-1.293 0.949,-2.245c0.325,-0.368 0.664,-0.671 0.977,-0.892" data-paper-data="{&quot;origPos&quot;:null}" fill="#77584b" stroke="none" stroke-width="1" stroke-linecap="butt" stroke-linejoin="miter"/><path d="M222.586,206.786c0,0 -3.038,5.858 -3.195,16.033M256.085,206.786c0,0 3.039,5.858 3.195,16.033" fill="none" stroke="#fbc02d" stroke-width="1.247" stroke-linecap="round" stroke-linejoin="round"/><path d="M231.536,208.299c0,0 -2.665,6.7 -2.822,16.98M247.881,208.299c0,0 2.666,6.7 2.822,16.98" fill="none" stroke="#fbc02d" stroke-width="1.254" stroke-linecap="round" stroke-linejoin="round"/><path d="M238.934,209.558v17.05" fill="none" stroke="#fbc02d" stroke-width="1.288" stroke-linecap="round" stroke-linejoin="round"/><path d="M251.583,166.809l-1.007,5.755c0.145,0.171 0.617,0.687 1.389,0.806c0.11,0.018 1.315,0.187 1.7,-0.526c0.293,-0.541 0.03,-1.435 -0.763,-1.965c0.22672,0.16247 0.48779,0.27059 0.763,0.316c0.224,0.036 0.768,0.122 1.18,-0.246c0.355,-0.316 0.52,-0.888 0.313,-1.368c-0.243,-0.563 -0.941,-0.868 -1.597,-0.632c0.136,-0.062 0.696,-0.337 0.902,-0.947c0.266,-0.785 -0.144,-1.863 -1.04,-2.105c-0.698,-0.189 -1.487,0.183 -1.84,0.913M228.005,166.866l1.006,5.754c-0.144,0.172 -0.617,0.689 -1.388,0.807c-0.111,0.017 -1.315,0.188 -1.7,-0.526c-0.293,-0.541 -0.03,-1.435 0.763,-1.965c-0.22688,0.16286 -0.48836,0.27102 -0.764,0.316c-0.223,0.036 -0.768,0.122 -1.18,-0.246c-0.354,-0.316 -0.519,-0.888 -0.312,-1.368c0.243,-0.563 0.94,-0.868 1.597,-0.631c-0.137,-0.063 -0.697,-0.338 -0.903,-0.948c-0.266,-0.785 0.144,-1.863 1.041,-2.105c0.698,-0.188 1.487,0.182 1.84,0.912" fill="#0288d1" stroke="none" stroke-width="1" stroke-linecap="butt" stroke-linejoin="miter"/><path d="M221.479,145.467c0,0 -1.032,-13.769 17.455,-8.969c0,0 -3.431,7.408 -17.455,8.969M238.934,136.498c18.119,-6.221 19.962,9.179 19.962,9.179c-17.201,-1.371 -19.962,-9.179 -19.962,-9.179" fill="#424242" stroke="none" stroke-width="1" stroke-linecap="butt" stroke-linejoin="miter"/><path d="M239.786,133.87c-6.408,0 -12.077,2.933 -15.556,7.04c2.466,-5.796 8.499,-10.45 15.556,-10.45c7.056,0 13.09,4.654 15.556,10.45c-3.479,-4.107 -9.148,-7.04 -15.556,-7.04" fill="#ef5350" stroke="none" stroke-width="1" stroke-linecap="butt" stroke-linejoin="miter"/><path d="M240.253,133.138c0,0 2.801,-6.481 6.064,-7.564c3.262,-1.084 3.613,0.854 4.512,3.621c0.9,2.767 2.007,5.315 -1.256,6.398c-3.262,1.084 -9.32,-2.455 -9.32,-2.455" fill="#e53935" stroke="none" stroke-width="1" stroke-linecap="butt" stroke-linejoin="miter"/><path d="M240.83,133.138c0,0 -6.058,3.539 -9.32,2.455c-3.263,-1.083 -2.156,-3.631 -1.256,-6.398c0.899,-2.767 1.25,-4.705 4.512,-3.621c3.263,1.083 6.064,7.564 6.064,7.564" fill="#e53935" stroke="none" stroke-width="1" stroke-linecap="butt" stroke-linejoin="miter"/><path d="M244.22,132.055c0,1.085 -1.584,1.965 -3.537,1.965c-1.954,0 -3.537,-0.88 -3.537,-1.965c0,-1.086 1.583,-1.966 3.537,-1.966c1.953,0 3.536,0.88 3.536,1.966" fill="#ef5350" stroke="none" stroke-width="1" stroke-linecap="butt" stroke-linejoin="miter"/></g></g></svg>