<svg version="1.1" xmlns="http://www.w3.org/2000/svg" xmlns:xlink="http://www.w3.org/1999/xlink" width="63.62873" height="119.36966" viewBox="0,0,63.62873,119.36966"><g transform="translate(-208.37185,-120.42374)"><g data-paper-data="{&quot;isPaintingLayer&quot;:true}" fill-rule="evenodd" stroke-linecap="butt" stroke-linejoin="miter" stroke-miterlimit="10" stroke-dasharray="" stroke-dashoffset="0" style="mix-blend-mode: normal"><path d="M248.4,237.594c-1.46343,0.00111 -2.66604,-1.15468 -2.723,-2.617l-1.291,-34.287c-0.02593,-0.72154 0.23588,-1.42382 0.7278,-1.95231c0.49192,-0.52849 1.17365,-0.83989 1.8952,-0.86569c1.523,-0.076 2.77,1.114 2.826,2.614l1.291,34.286c0.02647,0.72171 -0.23495,1.42436 -0.72672,1.95326c-0.49176,0.5289 -1.17356,0.8407 -1.89529,0.86674c-0.034,0.002 -0.07,0.002 -0.104,0.002" data-paper-data="{&quot;origPos&quot;:null}" fill="#ffdc81" stroke="none" stroke-width="1"/><path d="M247.009,197.871c-0.72154,0.02605 -1.40318,0.3377 -1.89492,0.86638c-0.49174,0.52868 -0.75328,1.23108 -0.72708,1.95262l1.29,34.287c0.05696,1.46232 1.25957,2.61811 2.723,2.617c0.74028,0.00159 1.44928,-0.2984 1.96359,-0.83084c0.51432,-0.53243 0.7896,-1.25138 0.76241,-1.99116l-0.203,-5.404c-1.088,0.663 -2.38,1.197 -3.5,1.205c-2.279,0.017 -1.15,-2.996 -1.117,-4.347c0.083,-3.419 -0.068,-6.842 -0.348,-10.246c-0.064,-0.783 -0.05,-1.666 0.636,-2.186c0.437,-0.332 1.049,-0.396 1.569,-0.514c0.73,-0.164 1.436,-0.33 2.132,-0.57l-0.46,-12.224c-0.056,-1.5 -1.303,-2.689 -2.826,-2.615M229.137,238.943c-0.74756,0.00214 -1.46304,-0.3035 -1.97833,-0.84509c-0.5153,-0.54159 -0.78497,-1.27139 -0.74567,-2.01791c0.327,-6.144 0.656,-12.135 0.983,-18.128c0.327,-5.99 0.655,-11.979 0.983,-18.12c0.03872,-0.72124 0.36271,-1.39746 0.90053,-1.87956c0.53782,-0.4821 1.24531,-0.73051 1.96647,-0.69044c0.72101,0.03697 1.39776,0.35906 1.88113,0.89532c0.48337,0.53626 0.73371,1.24271 0.69587,1.96368c-0.327,6.143 -0.655,12.135 -0.982,18.127c-0.328,5.99 -0.656,11.98 -0.984,18.12c-0.07863,1.44463 -1.27324,2.57555 -2.72,2.575" data-paper-data="{&quot;origPos&quot;:null}" fill="#ffdc81" stroke="none" stroke-width="1"/><path d="M227.396,217.953c0.328,-5.99 0.655,-11.98 0.983,-18.121c0.03872,-0.72124 0.36271,-1.39746 0.90053,-1.87956c0.53782,-0.4821 1.24531,-0.73051 1.96647,-0.69044c0.7211,0.03722 1.39784,0.35953 1.88119,0.89596c0.48335,0.53643 0.73365,1.24297 0.69581,1.96404c-0.241,4.528 -0.483,8.976 -0.725,13.4c-0.727,0.294 -1.484,0.463 -2.295,0.567c-0.49,0.063 -1.013,0.064 -1.473,0.27c-0.626,0.281 -0.898,0.787 -1.033,1.44c-0.3271,1.62306 -0.4197,3.28464 -0.275,4.934c0.148,1.798 0.065,4.788 -0.022,6.583c-0.08,1.64 0.29,2.676 2.534,2.423c0.574,-0.064 1.164,-0.274 1.712,-0.583c-0.13,2.388 -0.259,4.786 -0.389,7.213c-0.03924,0.72105 -0.36338,1.39694 -0.90108,1.87894c-0.5377,0.482 -1.24488,0.73059 -1.96591,0.69106c-0.7211,-0.03722 -1.39784,-0.35953 -1.88119,-0.89596c-0.48335,-0.53643 -0.73365,-1.24297 -0.69581,-1.96404c0.328,-6.142 0.655,-12.135 0.983,-18.126" data-paper-data="{&quot;origPos&quot;:null}" fill="#ffdc81" stroke="none" stroke-width="1"/><path d="M261.966,189.337c-3.236,0 -7.889,-0.468 -10.232,-2.898c-2.779,-2.883 -3.973,-6.601 -4.849,-10.188c-0.631,-2.584 -2.445,-5.562 -3.755,-7.576l6.609,-4.271c1.759,2.705 3.895,6.285 4.799,9.99c0.687,2.812 1.42,4.996 2.733,6.452c0.817,0.381 3.764,0.862 7.119,0.525l0.792,7.814c-0.521,0.052 -1.716,0.152 -3.216,0.152" fill="#ffffdd" stroke="none" stroke-width="1"/><path d="M209.13,158.132c-0.20505,0.08127 -0.43876,0.03317 -0.59505,-0.12247c-0.15628,-0.15563 -0.20537,-0.38916 -0.12495,-0.59454c1.22382,-3.05511 3.3261,-5.6787 6.041,-7.539c3.052,-2.08 7.48,-2.846 11.167,-2.58c0.93,5.634 -1.02,11.665 -5.075,15.697c-0.385,0.383 -1.018,0.757 -1.417,0.389c-0.253,-0.235 -0.231,-0.633 -0.19,-0.975l0.464,-3.83c-1.60746,2.19819 -3.85928,3.84154 -6.443,4.702c-0.438,0.145 -0.847,-0.284 -0.695,-0.718c0.81329,-2.33808 1.99116,-4.53285 3.49,-6.503c-2.25754,0.51941 -4.4715,1.21282 -6.622,2.074" fill="#28355d" stroke="none" stroke-width="1"/><path d="M218.96,162.217c0.03,-0.064 0.059,-0.129 0.09,-0.193c0.506,-1.042 1.224,-1.952 1.825,-2.931c-0.03,1.304 -0.123,2.66 -0.395,3.956c-0.388,0.362 -0.975,0.682 -1.354,0.333c-0.253,-0.235 -0.231,-0.633 -0.19,-0.975l0.023,-0.19M212.241,162.833c1.027,-0.812 2.058,-2.167 3.022,-3.053c1.146,-1.051 2.006,-1.883 3.245,-2.829c-0.407,1.69 -3.25,5.042 -3.478,5.425c-0.6635,0.3603 -1.35712,0.6621 -2.073,0.902c-0.15455,0.04998 -0.32328,0.02936 -0.46124,-0.05638c-0.13796,-0.08575 -0.23115,-0.22791 -0.25476,-0.38862M208.41,157.415l0.02,-0.043c1.678,-1.661 3.816,-2.746 6.18,-2.425c-0.223,0.734 -0.699,1.3 -1.32,1.76c-1.40895,0.40726 -2.79727,0.88282 -4.16,1.425c-0.20505,0.08127 -0.43876,0.03317 -0.59505,-0.12247c-0.15628,-0.15563 -0.20537,-0.38916 -0.12495,-0.59454M222.74,154.704c-0.573,-1.01 -1.431,-1.389 -2.485,-1.82c-1.82,-0.748 -3.406,-1.66 -4.102,-3.613c-0.036,-0.101 -0.065,-0.206 -0.097,-0.31c2.882,-1.384 6.479,-1.888 9.562,-1.666c0.565,3.426 0.059,6.996 -1.332,10.176c-0.704,-0.742 -1.101,-1.986 -1.546,-2.767" fill="#28355d" stroke="none" stroke-width="1"/><path d="M251.218,191.676c0,0 1.363,7.835 1.515,10.94c0.15,3.106 0.454,8.241 -0.758,8.544c-1.212,0.301 -4.392,0.755 -6.513,0.755c-2.12,0 -3.938,0.754 -4.847,0c-0.908,-0.755 -1.06,-5.571 -1.06,-5.571h-1.817v0.889c-0.303,2.718 0.128,3.927 -0.77,4.38c-0.896,0.453 -5.75,0.822 -7.716,0.637c-1.966,-0.184 -5.544,-1.09 -6.103,-2.148c-0.558,-1.057 -0.137,-6.796 0.106,-9.817c0.245,-3.02 2.971,-11.27 2.971,-11.27z" fill="#880e3d" stroke="none" stroke-width="1"/><g fill="#880e3d" stroke="none" stroke-width="1"><path d="M223.255,200.285c0.245,-3.02 2.972,-11.27 2.972,-11.27l24.99,2.662c0,0 1.045,6 1.407,9.58c-1.8,1.777 -5.623,1.622 -7.825,1.534c-2.024,-0.082 -4.048,-0.32 -6.074,-0.308c-0.931,0.005 -1.823,0.025 -2.688,0.398c-1.02,0.439 -1.887,1.127 -2.958,1.473c-1.739,0.561 -3.59,0.413 -5.36,0.14c-0.764,-0.117 -2.443,-0.645 -3.156,-0.152c-1.242,0.86 2.983,2.347 2.885,2.792c-0.098,0.444 -1.636,0.038 -2.456,0.137c-0.206,0.025 -0.342,0.212 -0.237,0.41c0.962,1.808 5.604,2.567 5.57,2.828c-0.035,0.262 -0.5,0.728 -0.757,0.772c-0.186,0.031 -0.234,0.258 -0.163,0.4c0.116,0.235 0.27,0.434 0.453,0.604c-0.22,-0.008 -0.428,-0.018 -0.606,-0.034c-1.966,-0.185 -5.544,-1.091 -6.102,-2.149c-0.559,-1.057 -0.139,-6.796 0.105,-9.817"/><path d="M241.406,205.479c0.725,0 -0.001,1.753 -0.422,2.654c-0.07,0.15 -0.023,0.36 0.163,0.401c0.932,0.2 0.848,0.336 0.868,1.1c0.013,0.486 0.187,0.949 0.423,1.369c0.23267,0.39998 0.51159,0.7712 0.831,1.106c-1.145,0.157 -2.08,0.282 -2.653,-0.194c-0.759,-0.63 -1.005,-4.443 -1.061,-5.571c0.579,-0.459 1.126,-0.865 1.851,-0.865"/></g><path d="M236.473,162.336h7.772c4.614,0 8.467,3.507 8.886,8.088l2.046,27.709c0.06116,0.84711 -0.23308,1.68145 -0.81211,2.30279c-0.57903,0.62133 -1.39058,0.97358 -2.23989,0.97221h-23.531c-0.84948,0.00165 -1.6613,-0.35048 -2.24056,-0.97185c-0.57925,-0.62137 -0.87362,-1.45586 -0.81244,-2.30315l2.046,-27.71c0.42,-4.58 4.273,-8.087 8.886,-8.087" fill="#d11335" stroke="none" stroke-width="1"/><path d="M225.541,198.133l2.046,-27.71c0.42,-4.58 4.273,-8.087 8.886,-8.087h7.772c1.053,0 2.063,0.19 3.005,0.527c0.153,0.816 0.237,1.645 0.197,2.467c-0.04,0.853 -0.197,1.813 -0.82,2.454c-0.914,0.94 -2.543,0.892 -3.753,0.852c-1.28,-0.043 -2.56,-0.248 -3.842,-0.183c-0.43,0.021 -1.025,0.015 -1.39,0.291c-0.354,0.268 -0.432,0.717 -0.621,1.093c-0.348,0.694 -0.867,1.175 -1.413,1.718c-0.474,0.47 -1.05,0.886 -0.529,1.521c0.46,0.56 1.464,0.769 2.113,0.967c1.37,0.418 6.127,1.18 4.703,3.454c-0.085,0.134 -0.02,0.289 0.098,0.373c3.106,2.224 4.576,6.258 4.715,9.961c0.086,2.273 -0.597,4.149 -1.514,6.197c-0.589,1.314 -1.696,2.783 -1.927,4.215c-0.463,2.871 4.619,2.216 6.233,2.385c1.395,0.145 2.834,0.292 4.263,0.303c-0.473,0.3 -1.032,0.477 -1.638,0.477h-23.531c-0.84939,0.00135 -1.66102,-0.35087 -2.24021,-0.97217c-0.57918,-0.6213 -0.87366,-1.45562 -0.81279,-2.30283" fill-opacity="0.1" fill="#28355d" stroke="none" stroke-width="1"/><path d="M252.586,148.084c6.175,2.649 10.8,8.565 11.981,15.15c0.096,0.532 -0.541,0.879 -0.93,0.502l-3.36,-3.257l0.472,7.874c0.029,0.482 -0.54,0.774 -0.907,0.459c-1.67235,-1.43731 -2.99459,-3.23735 -3.866,-5.263c-0.02206,1.48629 -0.19868,2.96625 -0.527,4.416c-0.086,0.38 -0.24,0.82 -0.617,0.926c-0.39,0.109 -0.759,-0.213 -1.022,-0.52c-2.301,-2.69 -3.287,-6.308 -3.369,-9.843c-0.08,-3.534 1.32,-7.006 2.145,-10.444" fill="#28355d" stroke="none" stroke-width="1"/><path d="M257.96,154.623c-0.76,0.7 -1.096,1.808 -1.768,2.597c-1.425,1.67 -3.453,2.802 -5.608,3.192c-0.07703,-0.62543 -0.12475,-1.25412 -0.143,-1.884c-0.081,-3.534 1.32,-7.006 2.145,-10.444c2.834,1.216 5.336,3.126 7.334,5.468c-0.711,0.287 -1.423,0.579 -1.96,1.071M260.666,157.977c0.21,-0.143 0.828,0.198 0.986,0.289c1.209,0.685 1.996,2.19 2.57,3.447c0.134,0.503 0.254,1.008 0.345,1.521c0.02886,0.15408 -0.00914,0.31316 -0.10453,0.43756c-0.09539,0.12439 -0.23917,0.20236 -0.39547,0.21444c-0.324,-0.523 -0.65,-1.045 -0.968,-1.573c-0.524,-0.87 -1.11,-1.7 -1.624,-2.574c-0.137,-0.23 -0.9,-1.701 -0.81,-1.762M254.629,161.687c0.717,0.823 1.1,1.837 1.304,2.925c-0.07277,1.12867 -0.2346,2.24983 -0.484,3.353c-0.086,0.38 -0.24,0.821 -0.617,0.926c-0.05087,0.01359 -0.10334,0.02032 -0.156,0.02c-0.72,-2.42 -0.898,-4.97 -0.047,-7.224M258.37,161.269c0.8828,0.84124 1.60463,1.83654 2.13,2.937l0.249,4.147c0.00948,0.18209 -0.07092,0.35724 -0.21516,0.46877c-0.14425,0.11153 -0.334,0.14524 -0.50784,0.09023c-1.208,-2.426 -1.998,-5.176 -1.657,-7.643" fill="#28355d" stroke="none" stroke-width="1"/><path d="M232.235,122.658c0,0 7.441,-4.308 16.96,-0.96c6.87,2.417 11.11,8.558 12.726,14.7c1.616,6.142 -2.34,16.234 -7.252,17.863c-4.913,1.63 -31.752,-2.145 -31.752,-2.145c0,0 -7.545,-3.333 -6.535,-15.919c1.008,-12.586 10.198,-15.7 15.853,-13.539" fill="#28355d" stroke="none" stroke-width="1"/><path d="M220.889,141.544c0.172,0.003 0.318,-0.178 0.264,-0.346c-0.978,-3.017 -0.72,-5.563 0.582,-8.635c0.96,-2.268 2.706,-5.105 4.76,-6.688c2.16,-1.665 4.114,-2.07 6.685,-2.829c1.691,-0.498 3.137,-0.464 4.733,0.337c0.849,0.425 2.508,1.163 2.577,2.251c0.022,0.35 0.57,0.351 0.547,0c-0.001,-0.018 -0.008,-0.036 -0.01,-0.054c0.02619,-0.02239 0.04791,-0.04953 0.064,-0.08c1.61,-3.228 5.937,-2.318 8.67,-1.27c3.362,1.289 6.67,3.688 8.84,6.552c1.15,1.517 1.968,3.254 2.119,5.164c0.086,1.095 -0.007,2.208 0.16,3.299c0.166,1.084 0.645,1.71 1.31,2.022c-0.585,5.583 -3.773,11.75 -7.521,12.994c-4.913,1.63 -31.752,-2.145 -31.752,-2.145c0,0 -4.406,-1.953 -6.032,-8.494c0.908,-1.26 2.307,-2.109 4.004,-2.078" fill="#28355d" stroke="none" stroke-width="1"/><path d="M254.225,148.956c0.017,-2.623 0.42,-3.273 2.29,-5.283c2.152,-2.312 6.747,-1.576 7.208,2.198c0.291,2.375 -2.505,5.95 -5.472,6.33c-2.968,0.38 -4.042,-0.86 -4.026,-3.245" data-paper-data="{&quot;origPos&quot;:null}" fill="#ffdc81" stroke="none" stroke-width="1"/><path d="M256.515,143.673c1.16,-1.247 3.03,-1.598 4.58,-1.074c0.29,1.113 0.27,2.33 -0.308,3.33c-0.363,0.627 -1.199,0.962 -1.265,1.725c-0.033,0.387 0.198,0.764 0.248,1.14c0.109,0.837 -0.202,1.765 -0.584,2.492c-0.15386,0.29249 -0.33109,0.57207 -0.53,0.836c-0.135,0.03 -0.27,0.061 -0.405,0.079c-2.968,0.38 -4.042,-0.86 -4.026,-3.245c0.018,-2.623 0.42,-3.273 2.29,-5.283M226.494,148.956c0.016,2.385 -1.059,3.625 -4.026,3.245c-2.968,-0.38 -5.763,-3.955 -5.472,-6.33c0.461,-3.774 5.055,-4.51 7.207,-2.198c1.871,2.01 2.273,2.66 2.29,5.283" data-paper-data="{&quot;origPos&quot;:null}" fill="#ffdc81" stroke="none" stroke-width="1"/><path d="M222.468,152.2c-0.007,0 -0.013,-0.002 -0.019,-0.003c-1.122,-1 -2.45,-2.627 -2.397,-4.183c0.04,-1.2 1.241,-1.41 1.126,-2.707c-0.085,-0.945 -0.616,-1.967 -0.647,-2.919c1.325,-0.153 2.732,0.275 3.673,1.285c1.87,2.01 2.272,2.66 2.29,5.283c0.016,2.385 -1.058,3.625 -4.026,3.245" data-paper-data="{&quot;origPos&quot;:null}" fill="#ffdc81" stroke="none" stroke-width="1"/><path d="M221.75447,148.03227c0,-9.954 1.652,-21.346 18.075,-21.346c16.421,0 18.074,11.392 18.074,21.346c0,9.954 -8.093,12.687 -18.074,12.687c-9.983,0 -18.075,-2.733 -18.075,-12.687" data-paper-data="{&quot;origPos&quot;:null}" fill="#ffdc81" stroke="none" stroke-width="1"/><path d="M256.57,148.256c-0.377,-0.598 -0.651,-1.274 -0.918,-1.926c-0.575,-1.402 -1.228,-2.767 -1.786,-4.176c-1.145,-2.89 -1.91,-5.927 -3.051,-8.814c-0.24041,-0.69679 -0.53463,-1.37383 -0.88,-2.025c-0.169,-0.311 -0.625,-0.037 -0.473,0.276c0.313,0.64 0.592,1.292 0.848,1.952c0.52,1.477 0.82,3.022 1.078,4.578c-2.181,0.24 -4.352,-0.028 -6.09,-1.492c-1.671,-1.408 -2.686,-3.45 -3.569,-5.404c-0.107,-0.237 -0.425,-0.128 -0.5,0.064c-0.761,1.958 -1.553,4.492 -3.704,5.329c-1.61,0.627 -1.462,-0.77 -1.694,-1.874c-0.255,-1.212 -0.531,-2.413 -0.73,-3.636c-0.044,-0.277 -0.46,-0.242 -0.527,0c-1.414,5.104 -5.772,16.576 -12.289,16.587c0.008,-9.937 1.692,-21.274 18.074,-21.274c16.422,0 18.075,11.392 18.075,21.347c0,0.058 -0.004,0.113 -0.005,0.171c-0.43,0.912 -1.17,1.41 -1.859,0.317" data-paper-data="{&quot;origPos&quot;:null}" fill="#ffdc81" stroke="none" stroke-width="1"/><path d="M240.428,152.721c-0.108,0 -0.218,-0.004 -0.328,-0.009c-2.844,-0.151 -5.404,-2.262 -6.084,-5.02c-0.03827,-0.15582 -0.01297,-0.32048 0.07033,-0.45762c0.0833,-0.13715 0.21775,-0.2355 0.37367,-0.27338c0.15597,-0.0389 0.32102,-0.01403 0.4586,0.06911c0.13757,0.08315 0.23633,0.2177 0.27441,0.37389c0.547,2.216 2.685,3.98 4.972,4.1c2.28,0.13 4.6,-1.405 5.38,-3.55c0.11377,-0.31453 0.46098,-0.47727 0.7755,-0.3635c0.31453,0.11377 0.47727,0.46098 0.3635,0.7755c-0.934,2.566 -3.529,4.354 -6.256,4.354" fill="#ff7ba1" stroke="none" stroke-width="1"/><path d="M241.081,144.371c0.661,0.034 1.128,0.668 1.186,1.295c0.053,0.583 -0.272,1.473 -0.926,1.588c-0.38,0.066 -0.722,-0.3 -0.514,-0.666c0.183,-0.321 0.512,-0.452 0.489,-0.875c-0.02,-0.365 -0.303,-0.595 -0.504,-0.873c-0.138,-0.19 0.046,-0.48 0.27,-0.469" fill="#ff8c2d" stroke="none" stroke-width="1"/><path d="M247.822,128.515c1.373,2.296 0.965,5.709 3.09,9.032c-6.6,-0.98 -7.32,-2.507 -9.885,-8.648c-0.187,2.408 -1.219,4.58 -3.946,7.123c-0.404,-3.047 -1.24,-5.047 -2.126,-8.345c-1.794,6.268 -6.35,17.966 -12.668,19.636c-0.89,-4.56 0.105,-15.989 3.354,-19.318c3.25,-3.328 7.901,-5.138 12.556,-5.321c4.656,-0.183 9.298,1.182 13.351,3.47c2.692,1.52 5.178,3.472 7.007,5.96c1.827,2.487 2.637,13.089 -0.875,17.283c-3.685,-4.974 -4.699,-17.44 -9.858,-20.872" fill="#28355d" stroke="none" stroke-width="1"/><path d="M255.734,139.072c1.353,3.098 2.03,6.707 1.801,10.106c-0.796,-1.14 -1.468,-2.63 -2.087,-4.298c-0.036,-1.944 -0.032,-3.885 0.286,-5.808M249.395,137.29c-0.536,-1.348 -0.898,-2.765 -1.292,-4.17c-0.462,-1.646 -1.091,-3.68 -0.249,-5.29c0.17,0.344 0.322,0.696 0.459,1.052c-0.15745,-0.13043 -0.32132,-0.25292 -0.491,-0.367c1.373,2.296 0.965,5.709 3.09,9.032c-0.50744,-0.07481 -1.01323,-0.16049 -1.517,-0.257M246.795,136.582c-0.698,-0.267 -1.286,-0.583 -1.793,-0.968c-0.584,-2.333 -1.136,-4.673 -1.082,-7.072c1.687,2.238 2.397,5.238 2.875,8.04M238.345,132.787c0.81,-1.892 1.133,-4.146 2.136,-5.949c0.396,0.79 0.646,1.677 0.778,2.613c-0.077,-0.184 -0.15,-0.36 -0.232,-0.552c-0.187,2.408 -1.22,4.58 -3.946,7.124c-0.02,-0.159 -0.048,-0.305 -0.07,-0.457c0.48016,-0.90887 0.92516,-1.83589 1.334,-2.779M228.941,137.87c1.09,-2.504 1.453,-5.7 3.127,-7.92c0.446,1.713 0.458,3.5 0.189,5.277c-1.489,3.443 -3.408,6.929 -5.683,9.304c0.692,-2.254 1.424,-4.495 2.367,-6.66M223.7,142.822c0.691,-2.78 1.176,-5.742 2.352,-8.38c0.063,2.53 -0.368,5.007 -0.746,7.52c-0.213,1.41 -0.382,2.844 -0.681,4.243c-0.58829,0.41001 -1.22946,0.73834 -1.906,0.976c0.28729,-1.46158 0.61408,-2.91511 0.98,-4.359M235.54,124.77c1.374,2.195 1.402,5.2 0.86,7.923c-0.41,-1.541 -0.916,-3.05 -1.445,-5.016c-0.047,0.165 -0.098,0.336 -0.149,0.509c0.13,-1.166 0.32,-2.318 0.735,-3.416M251.066,128.563c2.046,2.969 2.28,6.32 2.22,9.756c-0.534,-1.634 -1.097,-3.235 -1.74,-4.682c-0.204,-1.688 -0.458,-3.373 -0.48,-5.074" fill="#28355d" stroke="none" stroke-width="1"/><path d="M231.524,141.625c0.073,0 0.143,0.013 0.213,0.022c0.501,-0.397 0.47,-1.329 1.034,-1.706c0.104,-0.069 0.288,-0.05 0.37,0.048c0.475,0.565 0.227,1.515 -0.081,2.117c-0.043,0.083 -0.09,0.163 -0.14,0.24c0.2,0.28 0.32,0.621 0.32,0.991c0,0.945 -0.768,1.711 -1.716,1.711c-0.94622,0.00166 -1.7148,-0.76378 -1.717,-1.71c0,-0.946 0.77,-1.713 1.717,-1.713M249.195,141.625c0.073,0 0.142,0.013 0.213,0.022c0.5,-0.397 0.47,-1.329 1.034,-1.706c0.104,-0.069 0.288,-0.05 0.37,0.048c0.474,0.565 0.226,1.515 -0.081,2.117c-0.04271,0.08225 -0.08943,0.16234 -0.14,0.24c0.2,0.28 0.32,0.621 0.32,0.991c0,0.945 -0.769,1.711 -1.716,1.711c-0.94622,0.00166 -1.71479,-0.76378 -1.717,-1.71c0,-0.946 0.77,-1.713 1.717,-1.713" fill="#955323" stroke="none" stroke-width="1"/><path d="M215.321,188.158c0,-8.085 6.573,-14.639 14.68,-14.639c8.108,0 14.68,6.554 14.68,14.638c0,8.085 -6.572,14.64 -14.68,14.64c-8.107,0 -14.68,-6.555 -14.68,-14.639" fill="#ff8639" stroke="none" stroke-width="1"/><path d="M215.441,190.002c-0.07701,-0.60097 -0.11676,-1.20613 -0.119,-1.812c2.85255,-2.08775 6.1281,-3.52482 9.596,-4.21c-1.073,-2.545 -3.233,-4.662 -5.823,-5.62c0.366,-0.404 0.754,-0.786 1.162,-1.147c2.788,1.25 5.065,3.667 6.173,6.513c0.773,-0.1 1.553,-0.165 2.335,-0.188c0.91123,-0.02442 1.82311,0.0043 2.731,0.086c-0.573,-3.504 -1.73,-6.9 -3.455,-9.971c0.54921,-0.07295 1.10208,-0.11501 1.656,-0.126c1.71644,3.2118 2.87299,6.69263 3.42,10.293c0.87,0.135 1.732,0.314 2.58,0.543c0.355,-1.177 0.918,-2.257 1.677,-3.162c1.016,-1.21 2.396,-2.05 3.863,-2.461c0.352,0.416 0.68,0.852 0.985,1.307c-1.384,0.255 -2.73,0.985 -3.687,2.124c-0.63,0.75 -1.097,1.65 -1.393,2.636c2.73488,0.92415 5.28113,2.33294 7.517,4.159c-0.03415,0.60654 -0.10596,1.21036 -0.215,1.808c-2.21495,-1.98138 -4.80177,-3.50253 -7.61,-4.475c-0.15273,1.32288 -0.04055,2.66293 0.33,3.942c0.747,2.605 2.516,4.896 4.783,6.421c-0.29297,0.40817 -0.60672,0.80102 -0.94,1.177c-2.51,-1.724 -4.467,-4.28 -5.299,-7.184c-0.4515,-1.56314 -0.56569,-3.20439 -0.335,-4.815c-0.67786,-0.185 -1.36393,-0.3385 -2.056,-0.46c0.615,5.92 -0.374,12 -3.006,17.408c-0.103,0.002 -0.206,0.008 -0.31,0.008c-0.457,0 -0.91,-0.024 -1.357,-0.064c2.748,-5.333 3.755,-11.556 3.067,-17.571c-0.96314,-0.10131 -1.93188,-0.1394 -2.9,-0.114c-0.643,0.02 -1.283,0.073 -1.92,0.148c0.156,0.67 0.25,1.355 0.268,2.046c0.121,4.8 -3.294,9.439 -7.831,10.961c-0.37896,-0.39831 -0.73519,-0.81764 -1.067,-1.256c4.225,-1.089 7.494,-5.3 7.384,-9.666c-0.01862,-0.62632 -0.1041,-1.24885 -0.255,-1.857c-3.64127,0.68916 -7.05762,2.26187 -9.949,4.58" fill="#28355d" stroke="none" stroke-width="1"/><path d="M230.002,173.519c0.807,0 1.598,0.067 2.37,0.193c-0.918,0.938 -1.903,1.814 -2.863,2.704c-1.136,1.053 -2.464,2.039 -3.51,3.168c-0.605,0.653 -1.308,3.477 -1.126,4.852c0.33,2.486 6.618,1.81 4.669,4.834c-0.098,0.15 0,0.353 0.163,0.4c1.757,0.508 4.111,0.577 5.515,1.875c0.753,0.697 0.737,1.687 0.314,2.545c-0.152,0.306 -0.302,0.576 -0.366,0.913c-0.047,0.248 0.013,0.506 -0.028,0.749c-0.107,0.643 -0.569,0.894 -1.124,1.192c-0.165,0.089 -0.166,0.302 -0.056,0.429c0.823,0.948 -0.877,1.103 -1.525,1.193c-0.845,0.118 -1.699,0.162 -2.546,0.265c-1.062,0.13 -2.89,0.69 -2.227,2.185c0.392,0.889 1.66,1.41 2.505,1.776c-0.055,0 -0.11,0.005 -0.165,0.005c-8.108,0 -14.68,-6.555 -14.68,-14.64c0,-8.084 6.572,-14.638 14.68,-14.638" fill-opacity="0.05" fill="#ff8639" stroke="none" stroke-width="1"/><path d="M214.137,177.654c2.228,-4.467 5.568,-7.212 9.023,-9.6l0.011,-0.007l0.069,-0.046c0.712,-0.492 1.43,-0.97 2.143,-1.443c1.244,-0.826 2.53,-1.68 3.76,-2.594c1.74359,-1.29695 4.20785,-0.93872 5.51,0.801c0.6244,0.83446 0.89061,1.88332 0.73973,2.91455c-0.15088,1.03124 -0.70643,1.95985 -1.54373,2.58045c-1.396,1.038 -2.77,1.951 -4.1,2.835l-0.024,0.015c-0.699,0.464 -1.39,0.923 -2.065,1.39c-2.808,1.935 -5.041,3.785 -6.471,6.652c-0.588,1.177 -1.48,3.404 -0.862,5.096c0.424,1.158 1.675,2.235 3.347,2.881c0.931,0.36 2.005,0.619 3.379,0.815l-1.118,7.774c-1.98,-0.283 -3.603,-0.685 -5.106,-1.266c-3.813,-1.472 -6.693,-4.211 -7.901,-7.513c-1.223,-3.345 -0.805,-7.249 1.209,-11.285M251.622,230.441c-0.202,-0.604 -5.049,1.61 -6.463,1.359c-0.688,-0.122 0.152,1.36 0.152,2.027c0,1.217 0.555,2.397 0.555,2.397c0,0 1.897,2.574 4.381,2.171c1.463,-0.237 1.275,-1.481 1.223,-3.625c-0.037,-1.499 0.234,-4.08 0.152,-4.329" fill="#ffffdd" stroke="none" stroke-width="1"/><path d="M249.315,234.398c0.124,-0.05 0.25,-0.189 0.191,-0.336c-0.397,-0.975 -0.838,-1.758 0.532,-2.297c0.50091,-0.18547 1.03085,-0.28029 1.565,-0.28c-0.055,0.95 -0.156,2.335 -0.133,3.286c0.052,2.143 0.24,3.388 -1.223,3.624c-2.484,0.403 -4.381,-2.17 -4.381,-2.17c0,0 -0.555,-1.18 -0.555,-2.398c0,-0.022 -0.003,-0.047 -0.005,-0.07c1.171,0.817 2.597,1.2 4.009,0.64" fill="#28355d" stroke="none" stroke-width="1"/><path d="M232.602,230.441c0.082,0.249 -0.189,2.83 -0.152,4.329c0.053,2.144 0.24,3.388 -1.223,3.625c-2.485,0.403 -5.202,-2.171 -5.202,-2.171c0,0 0.451,-1.509 0.353,-2.397c-0.102,-0.919 -1.107,-2.182 -0.239,-2.027c1.414,0.251 6.261,-1.963 6.463,-1.359" fill="#ffffdd" stroke="none" stroke-width="1"/><path d="M226.378,233.827c-0.004,-0.037 -0.012,-0.076 -0.018,-0.113c0.24,0.169 0.497,0.317 0.775,0.439c0.601,0.263 1.88,0.663 2.507,0.221c0.642,-0.452 0.162,-0.922 0.078,-1.51c-0.172,-1.213 1.632,-1.573 2.878,-1.66c-0.049,0.938 -0.174,2.517 -0.148,3.566c0.053,2.144 0.24,3.388 -1.222,3.625c-2.486,0.403 -5.204,-2.17 -5.204,-2.17c0,0 0.452,-1.51 0.354,-2.398" fill="#28355d" stroke="none" stroke-width="1"/><path d="M244.932,234.693c0.959,0.116 1.749,0.63 2.748,0.663c0.976,0.031 1.965,-0.161 2.897,-0.431c1.227,-0.357 1.622,-0.365 2.67,0.375c1.268,0.894 1.8,0.902 3.222,1.529c0.585,0.258 1.35,1.483 0.76,2.338c-0.53,0.771 -5.554,0.681 -7.326,0.507c-0.813,-0.08 -1.676,-0.16 -2.48,-0.291c-0.606,-0.1 -1.459,-0.143 -2.025,-0.413c-1.305,-0.623 -0.824,-2.523 -0.825,-3.646c-0.10499,-0.12384 -0.12127,-0.30015 -0.04071,-0.44112c0.08056,-0.14097 0.24071,-0.21646 0.40071,-0.18888" fill="#d11335" stroke="none" stroke-width="1"/><path d="M247.696,238.372c0.552,0.15 1.658,0.54 2.234,0.212c0.457,-0.261 0.197,-0.671 0.419,-0.904c0.523,-0.55 3.003,0.552 3.664,0.688c0.522,0.107 1.214,0.303 1.735,0.09c0.78,-0.322 0.732,-1.112 0.407,-1.762c0.102,0.042 0.2,0.083 0.314,0.133c0.585,0.258 1.35,1.483 0.76,2.339c-0.53,0.77 -5.554,0.68 -7.326,0.506c-0.813,-0.08 -1.675,-0.16 -2.48,-0.291c-0.606,-0.1 -1.459,-0.143 -2.025,-0.413c-0.865,-0.413 -0.945,-1.386 -0.901,-2.323c0.872,0.818 1.905,1.373 3.199,1.725" fill="#28355d" stroke="none" stroke-width="1"/><path d="M253.2,231.856c0.875,-0.168 1.528,0 1.306,1.01c-0.116,0.524 -0.333,0.964 -0.601,1.434c-0.16481,0.28765 -0.35489,0.56006 -0.568,0.814c-0.181,0.218 -1.652,0.866 -1.725,0.72c-0.167,-0.338 -0.335,-0.909 -0.545,-1.216c-0.201,-0.29 -0.302,-0.632 -0.49,-0.93c-0.107,-0.17 -0.279,-0.337 -0.317,-0.544c-0.21,-1.137 2.313,-1.168 2.94,-1.288" fill="#880e3d" stroke="none" stroke-width="1"/><path d="M225.545,234.693c0.959,0.116 1.749,0.63 2.748,0.663c0.975,0.031 1.965,-0.161 2.897,-0.431c1.226,-0.357 1.622,-0.365 2.67,0.375c1.267,0.894 1.8,0.902 3.221,1.529c0.586,0.258 1.352,1.483 0.762,2.338c-0.532,0.771 -5.555,0.681 -7.327,0.507c-0.813,-0.08 -1.676,-0.16 -2.48,-0.291c-0.607,-0.1 -1.459,-0.143 -2.026,-0.413c-1.304,-0.623 -0.823,-2.523 -0.824,-3.646c-0.10474,-0.12372 -0.12103,-0.29969 -0.04077,-0.44052c0.08025,-0.14084 0.23994,-0.21652 0.39977,-0.18948" fill="#d11335" stroke="none" stroke-width="1"/><path d="M228.41,238.218c0.647,0.213 1.742,0.65 2.443,0.361c0.556,-0.229 0.35,-0.618 0.802,-0.801c0.712,-0.288 1.817,0.531 2.54,0.685c0.604,0.13 1.367,0.201 1.95,-0.041c0.816,-0.34 0.857,-1.031 0.635,-1.72c0.099,0.04 0.193,0.079 0.301,0.127c0.586,0.258 1.352,1.483 0.762,2.339c-0.532,0.77 -5.554,0.68 -7.327,0.506c-0.814,-0.08 -1.676,-0.16 -2.48,-0.291c-0.606,-0.1 -1.46,-0.143 -2.026,-0.413c-0.985,-0.47 -0.952,-1.669 -0.877,-2.711c0.885,0.91 2.007,1.54 3.277,1.959" fill="#28355d" stroke="none" stroke-width="1"/><path d="M233.813,231.856c0.874,-0.168 1.528,0 1.305,1.01c-0.116,0.524 -0.332,0.964 -0.6,1.434c-0.16512,0.28769 -0.35554,0.5601 -0.569,0.814c-0.18,0.218 -1.651,0.866 -1.724,0.72c-0.168,-0.338 -0.335,-0.909 -0.546,-1.216c-0.2,-0.29 -0.301,-0.632 -0.489,-0.93c-0.108,-0.17 -0.28,-0.337 -0.317,-0.544c-0.21,-1.137 2.313,-1.168 2.94,-1.288" fill="#880e3d" stroke="none" stroke-width="1"/><path d="M252.634,147.463c0.383,0.237 0.695,0.602 1.001,0.927c0.317,0.337 0.605,0.646 0.754,1.086c0.1,0.289 -0.242,0.485 -0.48,0.368c-0.403,-0.2 -0.667,-0.534 -0.946,-0.883c-0.268,-0.332 -0.59,-0.673 -0.766,-1.062c-0.122,-0.269 0.142,-0.62 0.437,-0.436M251.312,147.956c0.381,0.514 0.777,1.164 0.875,1.803c0.06,0.39 -0.436,0.832 -0.76,0.44c-0.446,-0.54 -0.689,-1.262 -0.829,-1.943c-0.092,-0.448 0.452,-0.652 0.714,-0.3M231.693,146.862c0.334,0.761 0.83,1.583 0.943,2.412c0.058,0.43 -0.447,0.68 -0.714,0.3c-0.484,-0.687 -0.68,-1.62 -0.955,-2.407c-0.146,-0.418 0.545,-0.72 0.726,-0.305M230.008,146.97c0.084,0.768 0.21,1.544 0.228,2.316c0.015,0.675 -1.067,0.676 -1.051,0c0.018,-0.772 0.143,-1.548 0.227,-2.316c0,-0.16458 0.13342,-0.298 0.298,-0.298c0.16458,0 0.298,0.13342 0.298,0.298" fill="#ff7ba1" stroke="none" stroke-width="1"/><path d="M229.99,196.917c-0.358,-0.003 -0.675,-0.025 -0.863,-0.069c-1.00948,-0.08292 -2.01652,-0.1933 -3.02,-0.331l0.774,-5.38c0.7,0.1 1.408,0.174 2.117,0.24c0.38,-0.035 0.825,-0.025 1.364,0.05c0.684,0.096 1.573,0.312 2.28,0.62c0.545,0.236 0.51,0.876 -0.068,0.947c-0.407,0.05 -0.907,-0.02 -1.095,-0.003c1.32,0.356 2.152,0.405 2.034,1.017c-0.094,0.495 -0.716,0.582 -2.122,0.572c0.672,0.063 1.557,0.231 1.509,0.758c-0.048,0.523 -1.596,0.544 -2.033,0.491c1.202,0.237 1.404,0.508 1.185,0.798c-0.143,0.188 -1.2,0.294 -2.042,0.29h-0.021" data-paper-data="{&quot;origPos&quot;:null}" fill="#ffdc81" stroke="none" stroke-width="1"/><path d="M226.881,191.137c0.264,0.037 0.53,0.069 0.796,0.1c-0.398,1.568 -0.442,3.346 1.118,4.239c0.855,0.49 1.868,0.622 2.9,0.58c0.449,0.178 0.51,0.37 0.356,0.57c-0.143,0.19 -1.198,0.295 -2.04,0.291h-0.021c-0.358,-0.003 -0.675,-0.024 -0.863,-0.069c-1.00917,-0.08267 -2.01588,-0.19305 -3.019,-0.331zM264.515,182.602c0.881,-0.079 1.632,-0.23 2.237,-0.406c0.241,-0.114 0.518,-0.218 0.853,-0.304l0.08,-0.032l-0.002,0.016c0.163,-0.04 0.33,-0.079 0.517,-0.111c0.68,-0.119 1.593,-0.187 2.362,-0.112c0.59,0.058 0.755,0.677 0.226,0.923c-0.371,0.173 -0.869,0.26 -1.042,0.333c1.365,-0.066 2.172,-0.275 2.25,0.343c0.062,0.5 -0.503,0.774 -1.843,1.196c0.659,-0.146 1.552,-0.258 1.67,0.258c0.116,0.512 -1.35,1.007 -1.783,1.09c1.216,-0.142 1.493,0.052 1.373,0.397c-0.111,0.32 -2.08,1.06 -2.722,1.11l-0.164,0.01c-1.01,0.292 -2.195,0.515 -3.469,0.652z" data-paper-data="{&quot;origPos&quot;:null}" fill="#ffdc81" stroke="none" stroke-width="1"/><path d="M265.528,182.47c0.002,1.016 0.036,2.038 0.202,3.018c0.112,0.663 0.355,1.054 1.05,1.148c0.892,0.12 2.024,-0.141 2.898,-0.328c0.516,-0.11 1.048,-0.255 1.51,-0.505c0.236,0.07 0.289,0.208 0.226,0.39c-0.112,0.32 -2.082,1.06 -2.723,1.109l-0.164,0.01c-1.01,0.293 -2.195,0.516 -3.468,0.653l-0.544,-5.363c0.362,-0.032 0.697,-0.079 1.013,-0.132M237.34,162.336v-1.976c0.983,0.063 1.99,0.094 3.02,0.094c1.028,0 2.036,-0.031 3.018,-0.094v1.976h0.867c0.81,0 1.594,0.11 2.342,0.312c0.138,1.588 -0.243,3.181 -1.83,3.992c-1.959,1.002 -4.536,0.4 -6.405,-0.502c-1.691,-0.817 -3.226,-1.999 -4.542,-3.396c0.86203,-0.26921 1.75991,-0.4061 2.663,-0.406z" data-paper-data="{&quot;origPos&quot;:null}" fill="#ffdc81" stroke="#ffdc81" stroke-width="0.5"/><path d="M236.473,162.336h0.867v-1.976c0.983,0.063 1.99,0.094 3.02,0.094c1.028,0 2.036,-0.031 3.018,-0.094v1.604c-0.958,0.31 -2.41,0.304 -2.954,0.412c-0.8,0.159 -1.584,0.378 -1.786,1.24c-0.418,1.785 1.25,2.724 2.748,2.954c1.168,0.18 2.392,0.127 3.598,-0.072c-0.076,0.047 -0.143,0.099 -0.226,0.142c-1.96,1.002 -4.537,0.4 -6.406,-0.502c-1.691,-0.817 -3.226,-1.999 -4.541,-3.396c0.86171,-0.26911 1.75924,-0.406 2.662,-0.406" data-paper-data="{&quot;origPos&quot;:null}" fill="#ffdc81" stroke="none" stroke-width="1"/></g></g></svg>