<svg version="1.1" xmlns="http://www.w3.org/2000/svg" xmlns:xlink="http://www.w3.org/1999/xlink" width="104.52333" height="119.37375" viewBox="0,0,104.52333,119.37375"><g transform="translate(-188.16061,-120)"><g data-paper-data="{&quot;isPaintingLayer&quot;:true}" fill-rule="evenodd" stroke-miterlimit="10" stroke-dasharray="" stroke-dashoffset="0" style="mix-blend-mode: normal"><path d="M219.80805,172.27004c10.031,-2.068 12.165,7.432 12.165,7.432c-5.843,9.544 -21.555,9.636 -21.555,9.636c-6.627,0.214 -15.253,-2.496 -15.253,-2.496l2.08,-5.733c0,0 10.275,1.528 13.803,-1.472c6.691,-5.697 8.76,-7.367 8.76,-7.367" data-paper-data="{&quot;origPos&quot;:null}" fill="#755a4d" stroke="none" stroke-width="1" stroke-linecap="butt" stroke-linejoin="miter"/><path d="M212.103,188.911c5.138,-0.978 12.127,-3.234 16.472,-8.44c1.1056,-1.31881 1.33314,-3.16413 0.581,-4.712c-0.41441,-0.8628 -0.91996,-1.67877 -1.508,-2.434c3.157,2.274 4.01,6.065 4.01,6.065c-4.559,7.451 -15.135,9.141 -19.555,9.522" fill="#fab596" stroke="none" stroke-width="1" stroke-linecap="butt" stroke-linejoin="miter"/><path d="M195.807,180.454c-0.351,0.75 -1.25,1.073 -2,0.72c-0.74779,-0.35654 -1.06794,-1.24956 -0.717,-2l0.54,-1.147c0.35384,-0.75069 1.24887,-1.0729 2,-0.72c0.748,0.351 1.071,1.251 0.719,2.001l-0.542,1.147" data-paper-data="{&quot;origPos&quot;:null}" fill="#9e743f" stroke="none" stroke-width="1" stroke-linecap="butt" stroke-linejoin="miter"/><path d="M193.741,187.865c2.8368,-0.23803 4.94389,-2.7301 4.707,-5.567c-0.25462,-2.82161 -2.73891,-4.90872 -5.56215,-4.6729c-2.82324,0.23582 -4.92685,2.70614 -4.70985,5.5309c0.23648,2.83703 2.72795,4.94526 5.565,4.709M256.436,170.911c0,0 2.66,0.017 11.44,0.3c4.628,0.146 11.699,-6.974 11.699,-6.974l5.39,2.86c0,0 -5.237,7.343 -10.553,11.306c0,0 -12.347,9.727 -22.86,5.906c0,0 -4.25,-8.763 4.884,-13.398" data-paper-data="{&quot;origPos&quot;:null}" fill="#755a4d" stroke="none" stroke-width="1" stroke-linecap="butt" stroke-linejoin="miter"/><path d="M255.519,183.142c6.369,1.155 12.882,-1.295 17.29,-3.6h-0.002c-0.037,0.027 -0.081,0.054 -0.121,0.08l-0.346,0.228c-0.018,0.01 -0.038,0.025 -0.056,0.035c-3.982,2.559 -12.868,7.28 -20.733,4.424c0,0 -2.131,-4.407 -0.117,-8.624c-0.12095,1.17708 -0.06737,2.36558 0.159,3.527c0.373,1.992 1.933,3.57 3.925,3.93" data-paper-data="{&quot;origPos&quot;:null}" fill="#cea997" stroke="none" stroke-width="1" stroke-linecap="butt" stroke-linejoin="miter"/><path d="M281.131,161.705l-0.928,-0.864c-0.60472,-0.56747 -0.63909,-1.51627 -0.077,-2.126c0.5674,-0.60431 1.51588,-0.63824 2.125,-0.076l0.928,0.867c0.58253,0.57029 0.60423,1.50101 0.04891,2.09783c-0.55532,0.59682 -1.48518,0.64215 -2.09591,0.10217" data-paper-data="{&quot;origPos&quot;:null}" fill="#9e743f" stroke="none" stroke-width="1" stroke-linecap="butt" stroke-linejoin="miter"/><path d="M281.417,178.198c1.36065,0.18018 2.61481,-0.76295 2.81933,-2.12016c0.20452,-1.35721 -0.716,-2.62805 -2.06933,-2.85684c-0.89645,-0.15013 -1.80421,0.19472 -2.37487,0.9022c-0.57065,0.70748 -0.71554,1.66766 -0.37905,2.51203c0.33649,0.84436 1.10208,1.44171 2.00292,1.56278M282.471,171.208c2.48298,0.37754 4.1913,2.69438 3.818,5.178c-0.17911,1.19328 -0.82529,2.2664 -1.79616,2.98292c-0.97087,0.71652 -2.18678,1.01767 -3.37984,0.83708c-1.1928,-0.17984 -2.26525,-0.82628 -2.98131,-1.79703c-0.71606,-0.97075 -1.01704,-2.18625 -0.83669,-3.37897c0.37408,-2.48462 2.69132,-4.19569 5.176,-3.822" fill="#668085" stroke="none" stroke-width="1" stroke-linecap="butt" stroke-linejoin="miter"/><path d="M281.417,178.198c1.36065,0.18018 2.61481,-0.76295 2.81933,-2.12016c0.20452,-1.35721 -0.716,-2.62805 -2.06933,-2.85684c-0.89645,-0.15013 -1.80421,0.19472 -2.37487,0.9022c-0.57065,0.70748 -0.71554,1.66766 -0.37905,2.51203c0.33649,0.84436 1.10208,1.44171 2.00292,1.56278M282.317,172.228c1.92208,0.29001 3.24524,2.08312 2.95552,4.00525c-0.28972,1.92213 -2.08264,3.24555 -4.00481,2.95612c-1.92217,-0.28943 -3.24586,-2.08215 -2.95672,-4.00436c0.13866,-0.92357 0.63876,-1.75413 1.39015,-2.30877c0.75139,-0.55463 1.69243,-0.78783 2.61585,-0.64823" fill="#546a6e" stroke="none" stroke-width="1" stroke-linecap="butt" stroke-linejoin="miter"/><path d="M282.184,173.108c-1.05286,-0.16128 -1.77713,-1.14351 -1.62,-2.197l3.27,-21.688c0.16027,-1.05193 1.14168,-1.77569 2.194,-1.618c1.05177,0.16034 1.77625,1.14047 1.621,2.193l-3.27,21.688c-0.16084,1.05246 -1.1417,1.77728 -2.195,1.622" fill="#788d91" stroke="none" stroke-width="1" stroke-linecap="butt" stroke-linejoin="miter"/><path d="M286.028,147.604c1.05182,0.16081 1.77589,1.14144 1.62,2.194l-3.27,21.688c-0.16084,1.05147 -1.14061,1.77568 -2.193,1.621c-0.33,-0.049 -0.62,-0.187 -0.87,-0.375c0.66486,-0.23784 1.14639,-0.82028 1.255,-1.518l3.27,-21.688c0.10174,-0.6992 -0.18672,-1.3981 -0.752,-1.822c0.29976,-0.11259 0.62326,-0.14701 0.94,-0.1" fill="#668085" stroke="none" stroke-width="1" stroke-linecap="butt" stroke-linejoin="miter"/><path d="M292.61,148.82c-0.34331,2.37495 -1.93249,4.38403 -4.16457,5.26497c-2.23208,0.88094 -4.76503,0.49874 -6.6378,-1.00159c-1.87277,-1.50033 -2.79838,-3.88887 -2.42564,-6.25938c0.57619,-3.62842 3.97095,-6.11303 7.60375,-5.56514c3.6328,0.54789 6.1438,3.92318 5.62425,7.56014" fill="#cceff7" stroke="none" stroke-width="1" stroke-linecap="butt" stroke-linejoin="miter"/><path d="M292.074,145.034c1.02503,2.23299 0.74334,4.8482 -0.73371,6.81168c-1.47705,1.96348 -3.91166,2.95914 -6.34129,2.59332c-3.304,-0.498 -5.669,-3.335 -5.684,-6.577c0.9369,2.05343 2.84804,3.49431 5.08,3.83c1.75447,0.26458 3.54218,-0.17885 4.96962,-1.23269c1.42744,-1.05384 2.37762,-2.63172 2.64138,-4.38631c0.053,-0.349 0.07,-0.695 0.068,-1.039" fill="#a5cfd9" stroke="none" stroke-width="1" stroke-linecap="butt" stroke-linejoin="miter"/><path d="M287.356,146.176c-0.242,1.60024 -1.73446,2.70202 -3.335,2.462c-1.56244,-0.2812 -2.61753,-1.75453 -2.38063,-3.3243c0.2369,-1.56977 1.67979,-2.66611 3.25563,-2.4737c1.59988,0.24297 2.70069,1.73578 2.46,3.336" fill="#ffffff" stroke="none" stroke-width="1" stroke-linecap="butt" stroke-linejoin="miter"/><path d="M285.802,167.815c-2.71175,0.80357 -5.56456,-0.72784 -6.39334,-3.432c-0.82878,-2.70415 0.67601,-5.57109 3.37234,-6.425c1.30725,-0.40044 2.72005,-0.26506 3.92746,0.37635c1.20742,0.64141 2.11051,1.73627 2.51054,3.04365c0.40109,1.30672 0.26635,2.71928 -0.37455,3.92661c-0.6409,1.20733 -1.73539,2.11042 -3.04245,2.51039M260.356,195.24c0,16.346 -9.975,17.758 -22.282,17.758c-12.304,0 -22.281,-1.412 -22.281,-17.758c0,-16.347 9.977,-42.553 22.28,-42.553c12.308,0 22.283,26.206 22.283,42.553" data-paper-data="{&quot;origPos&quot;:null}" fill="#755a4d" stroke="none" stroke-width="1" stroke-linecap="butt" stroke-linejoin="miter"/><path d="M238.648,191.165l0.011,0.183c-0.008,0.1 0.024,0.257 0.024,0.417c0,0.158 0.023,0.338 0.008,0.507c0.036,0.177 -0.025,0.349 0.015,0.522c-0.005,0.171 -0.02,0.344 -0.004,0.513c0.007,0.169 -0.03,0.349 -0.011,0.502c0,0.316 -0.043,0.607 -0.043,0.607c0,0 -0.241,-0.09 -0.539,-0.35c-0.161,-0.121 -0.259,-0.32 -0.358,-0.541c-0.036,-0.113 -0.119,-0.225 -0.119,-0.353l-0.033,-0.385c-0.004,-0.524 0.231,-1.01 0.503,-1.274c0.272,-0.275 0.546,-0.348 0.546,-0.348" fill="#d6a28c" stroke="none" stroke-width="1" stroke-linecap="butt" stroke-linejoin="miter"/><path d="M238.074,193.591c8.539,0 16.302,-0.324 22.096,-2.425c0.123,1.408 0.187,2.771 0.187,4.074c0,16.345 -9.977,17.757 -22.283,17.757c-12.304,0 -22.282,-1.412 -22.282,-17.757c0.00414,-1.36005 0.06653,-2.71929 0.187,-4.074c5.795,2.101 13.558,2.424 22.095,2.424" fill="#cceff7" stroke="none" stroke-width="1" stroke-linecap="butt" stroke-linejoin="miter"/><path d="M215.793,195.24c0.00415,-1.36038 0.06654,-2.71996 0.187,-4.075c3.134,1.137 6.845,1.75 10.941,2.076c0.626,0.562 0.796,1.326 0.296,2.442c-0.981,2.195 -7.414,1.146 -11.406,0l-0.01,-0.04c-0.001,-0.14 -0.008,-0.263 -0.008,-0.403M260.356,195.24c0,0.152 -0.007,0.294 -0.01,0.446c-4.092,1.146 -10.689,2.192 -11.695,-0.003c-0.504,-1.101 -0.34,-1.856 0.28,-2.416c4.213,-0.322 8.028,-0.938 11.238,-2.102c0.123,1.409 0.187,2.771 0.187,4.075" fill="#add8e3" stroke="none" stroke-width="1" stroke-linecap="butt" stroke-linejoin="miter"/><path d="M213.46,158.38c0.48302,2.27968 -0.30355,4.64242 -2.0566,6.1777c-1.75305,1.53527 -4.19888,2.0034 -6.39496,1.22396c-2.19607,-0.77943 -3.79953,-2.68474 -4.19245,-4.98166c-0.47169,-2.27522 0.31923,-4.62807 2.06948,-6.15637c1.75026,-1.5283 4.18824,-1.99488 6.37912,-1.22084c2.19088,0.77405 3.79467,2.6686 4.1964,4.9572" data-paper-data="{&quot;origPos&quot;:null}" fill="#755a4d" stroke="none" stroke-width="1" stroke-linecap="butt" stroke-linejoin="miter"/><path d="M210.983,158.854c0.40564,2.1238 -0.9872,4.17432 -3.111,4.57996c-2.1238,0.40565 -4.17432,-0.98719 -4.57997,-3.11098c-0.40565,-2.1238 0.98717,-4.17432 3.11097,-4.57998c1.01989,-0.19481 2.0754,0.02352 2.93431,0.60695c0.85892,0.58343 1.45089,1.48416 1.64569,2.50405" data-paper-data="{&quot;origPos&quot;:null}" fill="#4e3427" stroke="none" stroke-width="1" stroke-linecap="butt" stroke-linejoin="miter"/><path d="M276.481,146.32c0.48942,2.55824 -0.61057,5.15936 -2.78696,6.59025c-2.17639,1.43088 -5.00047,1.40967 -7.15511,-0.05375c-2.15465,-1.46342 -3.21544,-4.08078 -2.68764,-6.63137c0.5278,-2.55059 2.54023,-4.532 5.09872,-5.02012c1.67712,-0.32046 3.41285,0.03855 4.82523,0.99802c1.41239,0.95947 2.3857,2.44079 2.70577,4.11798" data-paper-data="{&quot;origPos&quot;:null}" fill="#755a4d" stroke="none" stroke-width="1" stroke-linecap="butt" stroke-linejoin="miter"/><path d="M274.004,146.795c0.28486,1.38333 -0.19725,2.81287 -1.26168,3.74116c-1.06444,0.92829 -2.54627,1.21148 -3.878,0.74112c-1.33173,-0.47036 -2.307,-1.62139 -2.55232,-3.01228c-0.37187,-2.10844 1.01848,-4.12469 3.1214,-4.52657c2.10293,-0.40189 4.13878,0.95959 4.5706,3.05657" data-paper-data="{&quot;origPos&quot;:null}" fill="#4e3427" stroke="none" stroke-width="1" stroke-linecap="butt" stroke-linejoin="miter"/><path d="M221.114,134.392c0,0 1.83,-5.233 9.745,-7.732c7.915,-2.496 7.215,-6.66 7.215,-6.66c0,0 9.75,2.28 10.28,9.348c0.527,7.066 -27.24,5.044 -27.24,5.044" fill="#d66c00" stroke="none" stroke-width="1" stroke-linecap="butt" stroke-linejoin="miter"/><path d="M234.061,127.86c4.834,-0.924 9.57,-0.967 13.948,-0.27c0.18316,0.5702 0.29894,1.15988 0.345,1.757c0.527,7.067 -27.239,5.046 -27.239,5.046c0,0 0.408,-1.14 1.631,-2.607c3.394,-1.782 7.203,-3.139 11.314,-3.926" fill="#ba5e00" stroke="none" stroke-width="1" stroke-linecap="butt" stroke-linejoin="miter"/><path d="M270.157,147.53c2.533,13.254 -9.519,26.695 -26.922,30.026c-17.4,3.33 -33.562,-4.715 -36.097,-17.965c-2.533,-13.253 9.52,-26.695 26.922,-30.025c17.404,-3.331 33.565,4.712 36.097,17.965" data-paper-data="{&quot;origPos&quot;:null}" fill="#755a4d" stroke="none" stroke-width="1" stroke-linecap="butt" stroke-linejoin="miter"/><path d="M243.235,177.555c5.982,-1.144 11.332,-3.483 15.674,-6.598c0.914,0.019 2.11,0.05 3.66,0.093c-4.717,4.118 -11.003,7.238 -18.214,8.618c-10.679,2.044 -20.884,-0.2 -27.764,-5.298c0.335,-0.284 0.628,-0.526 0.9,-0.752c6.779,4.12 16.069,5.79 25.744,3.937" data-paper-data="{&quot;origPos&quot;:null}" fill="#cea997" stroke="none" stroke-width="1" stroke-linecap="butt" stroke-linejoin="miter"/><path d="M246.787,168.336c0.272,1.424 -1.66,2.994 -4.319,3.505c-2.657,0.509 -5.034,-0.235 -5.306,-1.666c-0.273,-1.425 1.66,-2.995 4.319,-3.504c2.658,-0.508 5.035,0.237 5.306,1.665M240.133,131.656c0.581,1.63 -3.953,4.737 -10.128,6.942c-6.173,2.202 -11.649,2.668 -12.229,1.038c-0.581,-1.627 3.953,-4.735 10.126,-6.94c6.175,-2.201 11.65,-2.667 12.23,-1.04" data-paper-data="{&quot;origPos&quot;:null}" fill="#bfad9d" stroke="none" stroke-width="1" stroke-linecap="butt" stroke-linejoin="miter"/><path d="M215.75,148.594c2.38,-5.287 10.834,-6.508 14.193,-1.534M258.098,140.492c-4.036,-3.917 -11.933,-2.19 -13.622,3.297" data-paper-data="{&quot;origPos&quot;:null}" fill="none" stroke="#c99984" stroke-width="1.108" stroke-linecap="round" stroke-linejoin="round"/><path d="M224.413,163.068c-4.697,-4.718 0.297,-8.811 4.819,-7.612c4.521,1.199 7.95,1.453 9.981,1.063c2.032,-0.388 5.126,-1.889 8.886,-4.674c3.761,-2.783 9.913,-0.824 7.286,5.296c-2.628,6.118 -14.465,8.3 -14.465,8.3c0,0 -11.808,2.341 -16.507,-2.373" fill="#bf4545" stroke="none" stroke-width="1" stroke-linecap="butt" stroke-linejoin="miter"/><path d="M237.626,148.218c4.325,-0.83 3.73,1.91 3.73,1.91c0,0 -0.197,-1.696 -3.565,-1.052c-3.367,0.646 -2.925,2.298 -2.925,2.298c0,0 -1.563,-2.327 2.76,-3.157" fill="#e3ac94" stroke="none" stroke-width="1" stroke-linecap="butt" stroke-linejoin="miter"/><path d="M236.012,150.469c0.204,-0.257 0.5,-0.36 0.667,-0.229c0.165,0.13 0.134,0.443 -0.068,0.7c-0.203,0.256 -0.5,0.36 -0.666,0.229c-0.164,-0.128 -0.135,-0.44 0.067,-0.7M239.958,149.714c0.282,0.166 0.426,0.443 0.32,0.626c-0.106,0.183 -0.42,0.197 -0.702,0.034c-0.283,-0.165 -0.427,-0.445 -0.321,-0.628c0.105,-0.182 0.42,-0.196 0.703,-0.032" fill="#e3ac94" stroke="none" stroke-width="1" stroke-linecap="butt" stroke-linejoin="miter"/><path d="M213.188,154.622c2.518,-0.483 4.872,0.775 5.26,2.805c0.389,2.03 -1.337,4.066 -3.855,4.548c-2.517,0.479 -4.871,-0.777 -5.261,-2.804c-0.388,-2.03 1.338,-4.066 3.855,-4.549M262.703,145.146c2.517,-0.483 4.873,0.775 5.261,2.805c0.389,2.03 -1.338,4.066 -3.855,4.548c-2.518,0.482 -4.873,-0.774 -5.262,-2.804c-0.388,-2.03 1.338,-4.066 3.856,-4.549" fill="#ffa6a6" stroke="none" stroke-width="1" stroke-linecap="butt" stroke-linejoin="miter"/><path d="M216.072,199.186c0,0 6.683,-0.103 15.066,13.55c0,0 -0.092,1.393 -4.942,10.402c0,0 -2.058,6.623 -6.245,11.807c0,0 -0.747,4.311 -4.123,2.755c-3.943,-1.823 -7.69,-2.041 -8.286,-4.165c-0.594,-2.122 1.691,-1.242 1.691,-1.242c0,0 -2.11,-0.385 -1.245,-1.09c0.863,-0.707 3.61,0.234 3.61,0.234c0,0 -2.006,-6.56 0.033,-13.643c0,0 0.513,-11.454 4.44,-18.608" data-paper-data="{&quot;origPos&quot;:null}" fill="#755a4d" stroke="none" stroke-width="1" stroke-linecap="butt" stroke-linejoin="miter"/><path d="M228.355,208.602c0.9857,1.33781 1.91387,2.71707 2.782,4.134c0,0 -0.021,0.306 -0.541,1.559c-0.068,0.169 -0.147,0.351 -0.237,0.554c-0.42569,0.96465 -0.87381,1.91924 -1.344,2.863c-0.90813,1.82488 -1.84794,3.63382 -2.819,5.426c0,0 -0.223,0.695 -0.647,1.805l-0.108,0.272c0.045,-0.13 0.316,-0.867 0.059,-0.275c-0.332,0.769 -0.716,1.605 -1.144,2.471c-0.015,0.034 -0.032,0.063 -0.047,0.096c-0.168,0.338 -0.342,0.678 -0.522,1.018c-0.096,0.184 -0.624,1.487 -0.724,1.67c-0.396,0.724 -0.823,1.455 -1.277,2.17c-0.56211,0.89371 -1.17408,1.75507 -1.833,2.58h-0.001v0.002c0,0.006 -0.005,0.017 -0.01,0.046c-0.006,0.031 -0.015,0.074 -0.029,0.132l-0.002,0.005c-0.06187,0.26086 -0.1407,0.51741 -0.236,0.768c-0.124,0.319 -0.291,0.676 -0.52,1.008c-0.04974,0.07382 -0.10384,0.14461 -0.162,0.212c-0.013,0.017 -0.026,0.037 -0.041,0.054c-0.116,0.138 -0.246,0.266 -0.39,0.38l-0.054,0.044c-0.26035,0.20581 -0.568,0.3433 -0.895,0.4c-0.025,0.006 -0.049,0.009 -0.074,0.014c-0.202,0.031 -0.419,0.034 -0.652,0.002c-0.027,-0.002 -0.058,-0.007 -0.087,-0.01c-0.119,-0.018 -0.242,-0.041 -0.369,-0.078c-0.191,-0.055 -0.392,-0.129 -0.602,-0.226c-0.239,-0.111 -0.477,-0.217 -0.714,-0.314l-0.205,-0.083l-0.008,-0.005c-0.168,-0.068 -0.334,-0.133 -0.5,-0.198c-0.57121,-0.21791 -1.14736,-0.42263 -1.728,-0.614l-0.28,-0.095l-0.282,-0.09c-0.483,-0.161 -0.943,-0.31 -1.374,-0.46l-0.046,-0.017c-0.55,-0.194 -1.046,-0.389 -1.48,-0.605c-0.017,-0.009 -0.032,-0.017 -0.05,-0.024c-0.304,-0.156 -0.575,-0.322 -0.806,-0.508l-0.049,-0.04c-0.071,-0.058 -0.138,-0.12 -0.201,-0.183l-0.043,-0.046c-0.128,-0.134 -0.24,-0.278 -0.328,-0.434c1.301,0.431 2.808,0.896 4.345,1.606c3.375,1.558 4.121,-2.75 4.121,-2.75c4.187,-5.187 6.247,-11.809 6.247,-11.809c2.05,-3.107 4.558,-8.447 5.907,-12.427" data-paper-data="{&quot;origPos&quot;:null}" fill="#cea997" stroke="none" stroke-width="1" stroke-linecap="butt" stroke-linejoin="miter"/><path d="M259.328,203.241c1.095,8.086 -3.143,18.96 -3.143,18.96c-0.641,7.345 -4.27,12.744 -4.27,12.744c0,0 2.901,0.108 3.453,1.078c0.554,0.97 -1.554,0.569 -1.554,0.569c0,0 2.451,0 1.132,1.77c-1.318,1.767 -4.893,0.621 -9.228,0.902c-3.71,0.24 -2.859,-4.05 -2.859,-4.05c-2.042,-6.347 -1.585,-13.264 -1.585,-13.264c-1.288,-10.151 -0.308,-8.985 -0.308,-8.985c12.729,-9.724 18.362,-9.724 18.362,-9.724" data-paper-data="{&quot;origPos&quot;:null}" fill="#755a4d" stroke="none" stroke-width="1" stroke-linecap="butt" stroke-linejoin="miter"/><path d="M241.274,221.95c-1.289,-10.151 -0.308,-8.984 -0.308,-8.984c1.49062,-1.14286 3.01427,-2.242 4.569,-3.296c-0.686,3.723 -1.034,6.97 -0.004,11.66c0,0 -0.458,6.919 1.584,13.263c0,0 -0.85,4.293 2.86,4.053c1.688,-0.112 3.26,-0.006 4.631,0.062c-1.2,0.984 -3.536,0.605 -6.425,0.524c-0.052,0 -0.1,-0.003 -0.152,-0.003c-0.17994,-0.00583 -0.35996,-0.00883 -0.54,-0.009c-0.076,-0.002 -0.15,-0.002 -0.225,-0.002c-0.177,0 -0.357,0.002 -0.538,0.005l-0.23,0.006c-0.25923,0.00581 -0.5183,0.01748 -0.777,0.035c-0.2142,0.01354 -0.42909,0.01153 -0.643,-0.006c-0.594,-0.054 -1.04,-0.247 -1.37,-0.526c-0.10794,-0.09045 -0.20674,-0.19126 -0.295,-0.301c-0.25012,-0.32554 -0.4256,-0.7021 -0.514,-1.103c-0.08436,-0.36963 -0.12497,-0.74789 -0.121,-1.127c0,-0.455 0.053,-0.815 0.075,-0.94l0.009,-0.047c-0.31968,-1.00709 -0.58243,-2.03138 -0.787,-3.068c-0.16359,-0.82534 -0.30033,-1.65578 -0.41,-2.49c-0.027,-0.203 -0.053,-1.607 -0.075,-1.81c-0.04628,-0.37938 -0.08695,-0.75942 -0.122,-1.14l-0.01,-0.107c-0.08424,-0.90356 -0.14426,-1.80922 -0.18,-2.716c-0.033,-0.851 -0.045,0.787 -0.045,0.143c-0.00357,-0.69225 0.01077,-1.38449 0.043,-2.076" data-paper-data="{&quot;origPos&quot;:null}" fill="#cea997" stroke="none" stroke-width="1" stroke-linecap="butt" stroke-linejoin="miter"/><path d="M215.793,195.24c0,0 -0.674,-2.702 0.28,-5.045c0,0 2.989,0.893 5.724,1.387c3.32,0.603 5.699,1.221 4.597,3.658c-0.912,2.016 -6.893,1.052 -10.601,0" fill="#cceff7" stroke="none" stroke-width="1" stroke-linecap="butt" stroke-linejoin="miter"/><path d="M225.602,194.417c-0.00028,0.66053 -0.53597,1.19578 -1.1965,1.1955c-0.66053,-0.00028 -1.19578,-0.53597 -1.1955,-1.1965c0,-0.66053 0.53547,-1.196 1.196,-1.196c0.66053,0 1.196,0.53547 1.196,1.196" fill="#788d91" stroke="none" stroke-width="1" stroke-linecap="butt" stroke-linejoin="miter"/><path d="M260.374,195.24c-3.709,1.052 -9.688,2.016 -10.6,0c-1.101,-2.437 1.275,-3.055 4.597,-3.658c2.735,-0.494 5.724,-1.387 5.724,-1.387c0.954,2.343 0.279,5.045 0.279,5.045" fill="#cceff7" stroke="none" stroke-width="1" stroke-linecap="butt" stroke-linejoin="miter"/><path d="M250.564,194.417c0,-0.663 0.537,-1.196 1.197,-1.196c0.661,0 1.197,0.533 1.197,1.196c0,0.66108 -0.53592,1.197 -1.197,1.197c-0.66108,0 -1.197,-0.53592 -1.197,-1.197" fill="#788d91" stroke="none" stroke-width="1" stroke-linecap="butt" stroke-linejoin="miter"/></g></g></svg>