<svg xmlns="http://www.w3.org/2000/svg" width="84.14" height="114.273"><g fill-rule="evenodd" stroke-miterlimit="10" data-paper-data="{&quot;isPaintingLayer&quot;:true}" style="mix-blend-mode:normal"><path fill="#f7d170" d="m84.14 107.6-83.893.665-.246-30.731 83.897-.665z"/><path fill="#ea5a26" d="m83.908 78.295-83.895.67L0 77.535l83.897-.665zm.232 29.305-83.893.665-.014-1.423 83.897-.667z"/><path fill="#343434" d="m5.091 97.793.037 4.736.974-.01-.035-4.736zm6.208-1.868.056 6.552.972-.004-.052-6.556zm6.244 1.768.037 4.737.97-.006-.04-4.738zm6.224-.05.04 4.738.963-.01-.035-4.735zm6.205-1.866.052 6.553.975-.006-.052-6.554zm6.24 1.768.037 4.736.967-.007-.037-4.74zm6.223-.048.037 4.735.975-.006-.037-4.74zm6.213-1.868.048 6.554.975-.01-.051-6.552zm6.238 1.769.037 4.737.976-.01-.037-4.737zm6.225-.052.037 4.737.97-.008-.038-4.735zm6.206-1.864.054 6.55.976-.005-.054-6.554zm6.242 1.767.035 4.735.974-.008-.038-4.737zm6.225-.05.039 4.735.972-.008-.038-4.736zM8.932 88.984l.499-5.224 5.205-.044.013 1.502-3.673.029-.24 2.18c.172-.127.396-.23.66-.322.262-.083.55-.132.86-.147.868-.01 1.544.247 2.024.793.479.545.73 1.31.735 2.302.009.915-.248 1.665-.76 2.255-.51.59-1.303.89-2.363.897-.86.007-1.595-.21-2.21-.664-.616-.452-.916-1.07-.9-1.871l.013-.031 1.804-.095c.002.39.12.694.356.91.239.214.545.32.922.316.446-.002.769-.15.972-.443.2-.29.294-.707.292-1.245-.006-.537-.118-.968-.344-1.285-.222-.314-.551-.474-.988-.47-.358.002-.634.077-.825.205a1.106 1.106 0 0 0-.395.545zm21.671-.732c-.338.004-.624.056-.856.165-.24.116-.422.265-.557.458l.004.503c.008.713.145 1.268.412 1.664.266.393.611.582 1.04.578.392-.002.7-.166.926-.495.23-.332.344-.742.342-1.235-.008-.514-.126-.915-.358-1.208-.237-.292-.558-.432-.953-.43m.358-4.794c.34-.008.68.021 1.013.087.31.067.615.16.916.288l-.317 1.372a6.58 6.58 0 0 0-.785-.218 4.05 4.05 0 0 0-.804-.066 1.62 1.62 0 0 0-1.318.64c-.329.42-.493 1.007-.486 1.752l.002.299a2.63 2.63 0 0 1 .88-.568c.367-.146.759-.22 1.154-.218.797-.006 1.423.276 1.877.837.453.562.685 1.3.694 2.21.008.939-.286 1.697-.86 2.287-.576.59-1.332.889-2.266.895-.974.01-1.771-.32-2.389-.975-.623-.663-.932-1.573-.94-2.735l-.017-1.95c-.008-1.184.334-2.14 1.017-2.855.686-.717 1.564-1.075 2.63-1.082m37.851 2.336c-.002-.37-.102-.655-.294-.872a.952.952 0 0 0-.752-.32c-.346.005-.632.115-.837.324-.207.215-.31.505-.307.884.005.375.11.688.33.916.217.232.495.348.85.346a.901.901 0 0 0 .734-.35c.187-.236.278-.54.276-.928m.344 4.126c-.006-.412-.137-.75-.396-1.017a1.293 1.293 0 0 0-.959-.39c-.42.005-.766.14-1.044.407-.275.27-.41.61-.406 1.023.002.425.143.766.419 1.015.28.249.633.37 1.064.367.383-.002.7-.13.951-.384.249-.252.37-.596.37-1.02m1.52-4.227c.007.46-.109.873-.347 1.227-.245.366-.583.659-.98.849.512.203.92.5 1.216.889.303.387.458.834.464 1.34.005.866-.292 1.537-.888 2.024-.595.484-1.357.73-2.295.737-.98.01-1.786-.224-2.418-.7-.63-.477-.948-1.144-.957-2.01a2.11 2.11 0 0 1 .456-1.346c.304-.391.725-.698 1.253-.907a2.495 2.495 0 0 1-1.044-.835 2.053 2.053 0 0 1-.381-1.22c-.008-.822.267-1.454.82-1.9.555-.447 1.287-.67 2.182-.68.855-.005 1.555.208 2.104.647.539.438.81 1.065.814 1.885m-18.298-.837c-1.044 1.247-1.752 2.366-2.127 3.354-.367.994-.551 2.127-.543 3.403l.012 1.158-1.874.015-.007-1.156c-.012-1.293.218-2.482.69-3.561.466-1.073 1.148-2.138 2.047-3.196l-4.762.037-.01-1.442 6.566-.051.008 1.44z"/><path fill="#ffdb80" d="M73.232 80.496c-1.062.116-2.084-.586-2.734-1.736-.6.503-1.199.706-1.628.482-.8-.418-.719-2.166.18-3.896a6.785 6.785 0 0 1 1.19-1.648c.03-.073.07-.144.105-.21 0 0-1.657-10.094-3.37-12.468-.579-.815-1.034-1.373-1.299-1.825v.01c2.225 9.924 2.573 23.174 2.573 23.174l-31.576.25s.187-15.25 2.71-25.313c-1.398.562-8.435 3.302-10.595 2.536-2.975-1.051-6.457-10.688-6.457-10.688-1.276-.44-2.524-1.656-3.254-3.33-1.133-2.618-.57-5.377 1.25-6.17 1.188-.512 2.624-.056 3.786 1.05.52-.798 1.135-1.243 1.713-1.135 1.082.2 1.603 2.256 1.162 4.586a8.273 8.273 0 0 1-.785 2.328 4.92 4.92 0 0 1-.205.826l5.512 6.37 11.726-4.31c2.127-1.241 7.136-1.523 7.136-1.523l1.744.089.143-.002 1.753-.083s5.03.137 7.167 1.334h.012s6.631 3.406 8.425 5.659c3.542 4.468 5.06 17.643 5.162 18.546v-.008c.468.673.812 1.55.922 2.535.267 2.337-.84 4.379-2.468 4.57z" data-paper-data="{&quot;origPos&quot;:null}"/><path fill="#e63744" d="m68.548 82.38-31.575.25c.011-.713.214-13.37 2.192-23.038 2.674-2.211 3.525-7.61 4.371-10.204 1.083-.638 2.948-1.02 4.488-1.248 0 0-.178 6.29 4.589 6.25 5.033-.04 4.983-6.237 4.983-6.237 1.399.193 2.921.514 3.87 1.04.845 4.115 1.303 7.699 4.82 11.565.052.197.095.414.135.615 1.773 9.31 2.107 20.36 2.127 21.006z"/><path fill="#0771b7" d="m57.575 54.195.014 1.819a1.752 1.752 0 0 0 3.503-.03l-.013-1.816zm-18.369 5.369c.82-.705 1.51-1.764 2.049-2.93l.207 25.959-2.074.019-.182-23.05s0 .03 0 0m24.88-1.811c.596 1.033 1.301 2 2.102 2.885l.172 21.758-2.078.019-.196-24.662"/><path fill="#eeeeed" d="m62.548 76.594-19.637.155-.102-12.192 19.642-.156z"/><path fill="#99588c" d="m62.471 66.87-19.639.155-.023-2.467 19.642-.155zm.077 9.724-19.637.155-.017-1.555 19.642-.156z"/><path fill="#ffdb80" d="m53.819 104.25-.29-7.723-.025-2.98 10.5-.08-.586 2.982-.276 7.73.007 4.14-8.363.066zm-11.08.09-.406-7.725-.626-2.97 10.498-.086.027 2.98-.163 7.728-.259 4.143-9.019.07z" data-paper-data="{&quot;origPos&quot;:null}"/><path fill="#343434" d="m49.589 82.488 3.176-.026 2.919-.021 9.402-.077-.997 11.294-10.69.085-.435-4.147-.288.002-.369 4.153-10.676.085-1.18-11.275z"/><path fill="#eeeeed" d="m53.819 104.25 9.324-.072.265 3.95h-.015c.317.195.624.443.897.698l.019 2.538-7.586.058a7.622 7.622 0 0 1-.426-.263c-.86-.593-1.873-1.25-2.457-2.132-.176-.275-.263-.563-.2-.82h.016z"/><path fill="#6cc5d8" d="m53.801 104.696 9.37-.075.016.2-9.398.076z"/><path fill="#eeeeed" d="M40.96 109.822c.42-.61.956-1.128 1.58-1.525h-.002l.2-3.956 9.329-.075.23 3.952h.008c.068.26-.019.545-.195.823-.57.895-1.57 1.56-2.425 2.164-.13.098-.276.189-.419.278l-8.294.066z"/><path fill="#6cc5d8" d="m52.104 104.91-9.4.073.01-.201 9.38-.073z"/><path fill="#6e6e6d" d="m63.384 108.128-4.626-.306s1.222-1.711 2.863-1.643c1.576.066 1.787 1.937 1.787 1.937z"/><path fill="#343434" d="m62.789 107.957-3.178-.216s.845-1.17 1.968-1.125c1.088.044 1.228 1.33 1.228 1.33l-.018.01z"/><path fill="#b52c39" d="m63.384 108.128.024-.01v.01h-.014c1.84 1.154 3.19 3.429 1.638 5.324-1.174 1.33-2.924.307-4.256-.247-1.467-.683-3.145-1.153-4.479-2.046-.86-.593-1.872-1.25-2.457-2.132-.176-.275-.263-.563-.2-.82l-.015-1.752s.112-.178.522-.007c.808.353 1.35 1.943 3.068 1.728 4.259-1.216 6.169-.048 6.169-.048"/><path fill="#343434" d="m53.969 109.207.213-.197s2.21 2.208 4.1 2.742l-.162.355a10.92 10.92 0 0 1-1.823-.95c-.8-.548-1.727-1.15-2.328-1.95m9.415-1.08.024-.011v.002h-.014c.056.07.11.07.153.108.288.62.257 1.282-1.164 1.282-1.108-.002-2.682-1.005-3.625-1.686 3.176-.58 4.626.306 4.626.306"/><path fill="#343434" d="M63.456 109.34c.481-.004.95.033 1.399.1.006 0 .012.006.014.012.918 1.179 1.24 2.68.164 4-1.175 1.33-2.925.307-4.257-.247-1.02-.466-2.131-.843-3.167-1.325 1.16-1.498 3.341-2.52 5.847-2.54"/><path fill="#eeeeed" d="M53.672 106.652c.414-.002.756.758.762 1.696.006.456-.07.87-.201 1.179a4.365 4.365 0 0 1-.394-.501c-.176-.274-.263-.562-.2-.82l-.013-1.55c.019-.004.03-.004.046-.004"/><path fill="#b52c39" d="M64.473 109.037c-.022-.002-2.075-.491-4.71.025-.018 0-.037-.007-.041-.025a.037.037 0 0 1 .026-.042c2.65-.518 4.722-.027 4.74-.025a.05.05 0 0 1 .027.046.038.038 0 0 1-.033.02zm-.552-.494c-.018-.012-1.926-.62-4.576.006-.012.003-.029-.008-.033-.027 0-.018.004-.031.023-.037 2.662-.632 4.59-.012 4.609-.006.017 0 .027.023.019.04-.002.012-.017.024-.029.024z"/><path fill="#6e6e6d" d="m42.558 108.296-.025-.014s.179-1.875 1.759-1.966c1.633-.091 2.883 1.595 2.883 1.595l-4.617.386z"/><path fill="#343434" d="m43.147 108.114-.019-.01s.126-1.291 1.21-1.353c1.118-.062 1.982 1.096 1.982 1.096l-3.174.267z"/><path fill="#b52c39" d="M42.558 108.296s1.892-1.201 6.162-.047c1.722.182 2.244-1.413 3.05-1.78.402-.182.522-.004.522-.004l.012 1.753c.068.259-.019.547-.195.822-.567.895-1.568 1.564-2.421 2.168-1.313.918-2.981 1.416-4.439 2.12-1.325.574-3.064 1.626-4.255.317-1.587-1.871-.273-4.172 1.545-5.35h-.002l-.004-.011.025.013"/><path fill="#343434" d="M51.985 109.223c-.582.808-1.505 1.425-2.295 1.986-.549.383-1.167.698-1.805.982l-.174-.356c1.889-.562 4.062-2.805 4.062-2.805l.212.193m-9.427-.927s1.437-.911 4.617-.385c-.93.698-2.486 1.726-3.596 1.746-1.419.02-1.464-.638-1.183-1.265.046-.038.1-.038.143-.108h-.002l-.004-.002.025.015"/><path fill="#343434" d="M42.499 109.508c2.509-.021 4.704.965 5.894 2.444-1.024.502-2.14.896-3.145 1.376-1.325.573-3.061 1.626-4.255.317-1.102-1.307-.802-2.811.098-4.004 0-.005.014-.013.014-.013.46-.077.927-.118 1.394-.12"/><path fill="#eeeeed" d="M52.239 106.664c.019 0 .036 0 .052.004l.013 1.549c.068.259-.019.547-.193.823-.112.178-.24.346-.385.507a3.227 3.227 0 0 1-.217-1.174c-.007-.94.318-1.705.73-1.71"/><path fill="#b52c39" d="M41.47 109.22s-.025-.014-.03-.02c-.006-.02.011-.033.023-.045.023-.002 2.086-.527 4.744-.05.01.004.027.023.025.04 0 .018-.02.026-.02.026-2.66-.476-4.71.046-4.73.05zm.55-.501c-.017 0-.035-.012-.035-.023-.007-.018 0-.041.018-.041.019-.008 1.935-.66 4.61-.068a.03.03 0 0 1 .02.035c-.006.018-.019.03-.042.029-2.653-.58-4.55.056-4.57.068z"/><path fill="#fddfbb" d="M50.91 49.667c-1.06.01-1.938-2.25-1.945-3.293l7.524-.058c.008 1.042-.831 3.314-1.885 3.322l-3.694.029"/><path fill="#eeac6c" d="M49.794 48.833c-.429-.635-.733-1.538-.807-2.18 1.214.186 2.442.275 3.67.267 1.28-.011 2.557-.131 3.817-.36l-.012.014-6.668 2.26"/><path fill="#ffdb80" d="M29.844 27.88a22.414 22.414 0 0 1-.284-3.396C29.461 11.987 39.51 1.78 52.006 1.686c12.491-.1 22.695 9.94 22.794 22.44a22.65 22.65 0 0 1-.205 3.243c1.312.7 2.2 2.047 2.217 3.594.018 2.297-1.902 4.168-4.288 4.189-.16.001-.32-.007-.48-.023-3.81 6.968-11.178 11.724-19.68 11.792-8.496.069-15.937-4.56-19.86-11.455-.064.003-.133.003-.201.003-2.39.02-4.333-1.821-4.35-4.114-.017-1.446.737-2.72 1.891-3.474" data-paper-data="{&quot;origPos&quot;:null}"/><path fill="#80591f" d="M47.557 22.767s-.503 1.803-2.082 1.446c-.772-.174-.908-1.201-3.386-.74-.779.18-2.417 1.156-2.732 1.808-.316.652-.088-2.392 2.457-3.522 1.835-.675 2.457-.642 3.977-.642s1.987.907 1.766 1.65m9.741 0s.503 1.803 2.082 1.446c.772-.174.908-1.201 3.386-.74.779.18 2.417 1.156 2.732 1.808.316.652.087-2.392-2.457-3.522-1.835-.675-2.457-.642-3.977-.642s-1.987.907-1.766 1.65M44.946 30.117c0 1.657-.895 3-2 3s-2-1.343-2-3 .895-3 2-3 2 1.343 2 3m18 0c0 1.657-.895 3-2 3s-2-1.343-2-3 .895-3 2-3 2 1.343 2 3" data-paper-data="{&quot;origPos&quot;:null}"/><path fill="#eeac6c" d="M52.266 33.186c-1.125.153-3.02 1.834-3.02 1.834s.207-1.01.503-1.3c.8-1.155 2.487-1.603 2.487-1.603s2.173.703 2.65 1.588c.443.824.34 1.238.34 1.238s-2.121-1.871-2.96-1.756zM45.446 36.813s6.897 3.208 13.172-.397c0 0-1.39 5.47-5.95 5.56-4.115.123-4.984-1.491-5.477-1.955-.492-.463-1.42-1.772-1.745-3.208"/><path fill="#80591f" d="M75.751 21.167c.06 2.653-.824 8.408-2.608 11.85 0 0-4.548-12.556-8.231-14.516-4.497-2.402-16.278 1.199-20.3-1.922-.669-.524-.605-1.71-.605-1.71s-.753 1.519-1.123 1.942c-1.92 2.227-6.927 5.458-9.299 7.198-1.909 1.394-1.996 1.38-1.508 9.334 0 0-3.587-7.215-3.426-12.048.044-1.395.692-4.49 1.765-7.645C34.339 5.633 42.54.076 52.075 0c10.947-.086 20.259 7.085 23.374 17.01a43.89 43.89 0 0 1 .302 4.157" data-paper-data="{&quot;origPos&quot;:null}"/></g></svg>