<svg version="1.1" xmlns="http://www.w3.org/2000/svg" xmlns:xlink="http://www.w3.org/1999/xlink" width="110.33729" height="118.51148" viewBox="0,0,110.33729,118.51148"><g transform="translate(-185.376,-121.14675)"><g data-paper-data="{&quot;isPaintingLayer&quot;:true}" fill-rule="evenodd" stroke="none" stroke-width="1" stroke-linecap="butt" stroke-linejoin="miter" stroke-miterlimit="10" stroke-dasharray="" stroke-dashoffset="0" style="mix-blend-mode: normal"><path d="M216.642,229.25c-0.047,0.828 -1.255,1.43 -2.085,1.369l-0.322,-0.018c-0.823,-0.053 -1.94,-0.803 -1.888,-1.633c0.365,-5.614 1.574,-7.78 1.94,-13.393c0.05459,-0.83138 0.77145,-1.46193 1.603,-1.41l0.314,0.025c0.39759,0.02619 0.76847,0.20928 1.03104,0.50898c0.26257,0.2997 0.39529,0.69145 0.36896,1.08902c-0.363,5.614 -0.596,7.845 -0.962,13.461M242.723,228.71c0.022,0.83 -1.124,1.538 -1.951,1.562l-0.324,0.011c-0.825,0.024 -2.002,-0.62 -2.026,-1.451c-0.163,-5.627 0.012,-7.856 -0.147,-13.482c-0.0224,-0.82889 0.63113,-1.51912 1.46,-1.542l0.326,-0.012c0.39816,-0.01128 0.78438,0.13669 1.07308,0.41112c0.2887,0.27443 0.45603,0.65266 0.46492,1.05088c0.157,5.624 0.963,7.831 1.124,13.452" fill="#d28d15"/><path d="M248.74,206.813c0,7.66 -6.324,17.254 -16.593,17.254c-10.265,0 -20.2,-4.947 -20.573,-17.254c-0.125,-4.08 0.525,-7.4 5.01,-7.665c3.913,-0.232 13.05,3.602 17.838,3.72c2.65,0.063 4.665,-1.074 7.652,-1.768c3.055,-0.716 6.667,0.254 6.667,5.713" fill="#f7ab0e"/><path d="M222.32,234.444c0,0.834 -1.169,1.517 -2,1.517h-0.315c-0.835,0 -1.992,-0.683 -1.992,-1.517c0,-5.622 0.491,-7.841 0.491,-13.468c0,-0.83 0.666,-1.502 1.501,-1.502h0.315c0.831,0 1.503,0.672 1.503,1.502c0,5.627 0.497,7.846 0.497,13.468M247.685,233.449c0,0.832 -1.16,1.51 -1.99,1.51h-0.324c-0.826,0 -1.99,-0.678 -1.99,-1.51c0,-5.624 0.49,-13.414 0.49,-19.04c0,-0.833 0.674,-1.523 1.5,-1.523h0.324c0.83,0 1.503,0.69 1.503,1.522c0,5.627 0.487,13.417 0.487,19.041" fill="#f7ab0e"/><path d="M216.865,174.429c0,4.44 -2.012,8.038 -4.506,8.038c-2.491,0 -4.505,-3.598 -4.505,-8.038c0,-4.434 2.014,-8.032 4.505,-8.032c2.494,0 4.506,3.598 4.506,8.032" fill="#b75f22"/><path d="M210.314,174.846c1.132,4.288 -0.057,8.327 -2.66,9.017c-2.602,0.687 -5.632,-2.235 -6.762,-6.521c-1.132,-4.295 0.057,-8.333 2.664,-9.022c2.602,-0.684 5.63,2.233 6.758,6.526M213.933,174.164c-1.751,4.078 -1.162,8.248 1.312,9.309c2.472,1.066 5.895,-1.38 7.646,-5.456c1.748,-4.078 1.157,-8.246 -1.313,-9.306c-2.476,-1.069 -5.899,1.377 -7.645,5.453" fill="#b75f22"/><path d="M217.916,178.596c3.348,-2.908 7.494,-3.614 9.257,-1.58c1.764,2.034 0.483,6.045 -2.863,8.958c-3.354,2.908 -7.492,3.614 -9.261,1.58c-1.764,-2.038 -0.481,-6.045 2.867,-8.958" fill="#b75f22"/><path d="M219.068,185.638c5.042,-1.847 10.042,-0.861 11.16,2.21c1.124,3.068 -2.053,7.048 -7.104,8.895c-5.047,1.851 -10.043,0.86 -11.16,-2.207c-1.118,-3.067 2.062,-7.052 7.104,-8.898" fill="#b75f22"/><path d="M220.741,192.91c5.134,1.58 8.513,5.386 7.563,8.512c-0.963,3.122 -5.903,4.371 -11.033,2.789c-5.135,-1.579 -8.524,-5.386 -7.563,-8.511c0.962,-3.123 5.898,-4.374 11.032,-2.79" fill="#b75f22"/><path d="M219.528,200.125c3.25,4.277 3.781,9.354 1.188,11.33c-2.599,1.981 -7.338,0.112 -10.59,-4.165c-3.255,-4.279 -3.792,-9.35 -1.195,-11.327c2.598,-1.981 7.337,-0.118 10.597,4.162" fill="#b75f22"/><path d="M213.745,205.239c0.357,5.359 -1.997,9.89 -5.247,10.102c-3.259,0.217 -6.181,-3.96 -6.535,-9.323c-0.362,-5.366 1.992,-9.888 5.248,-10.108c3.256,-0.212 6.176,3.963 6.534,9.33" fill="#b75f22"/><path d="M205.229,207.097c-2.81,4.588 -7.329,6.929 -10.116,5.223c-2.786,-1.703 -2.768,-6.804 0.03,-11.392c2.802,-4.588 7.331,-6.921 10.117,-5.225c2.781,1.706 2.771,6.807 -0.031,11.394" fill="#b75f22"/><path d="M200.27,204.183c-5.104,1.67 -10.064,0.503 -11.078,-2.607c-1.002,-3.098 2.311,-6.97 7.422,-8.638c5.101,-1.664 10.062,-0.503 11.072,2.607c1.016,3.1 -2.306,6.97 -7.416,8.638" fill="#b75f22"/><path d="M197.5,198.031c-5.302,-0.865 -9.178,-4.174 -8.658,-7.4c0.526,-3.222 5.246,-5.134 10.546,-4.274c5.307,0.863 9.176,4.175 8.652,7.4c-0.52,3.22 -5.241,5.136 -10.54,4.274" fill="#b75f22"/><path d="M198.417,189.519c-4.703,-2.597 -7.233,-7.023 -5.653,-9.883c1.577,-2.855 6.669,-3.069 11.367,-0.472c4.702,2.602 7.231,7.028 5.653,9.885c-1.574,2.856 -6.659,3.067 -11.367,0.47" fill="#b75f22"/><path d="M209.644,176.728c0.582,1.574 0.167,3.185 -0.941,3.59c-1.102,0.414 -2.47,-0.537 -3.052,-2.11c-0.583,-1.574 -0.167,-3.18 0.94,-3.59c1.102,-0.408 2.47,0.537 3.053,2.11" fill="#f7ab0e"/><path d="M208.984,176.968c0.387,1.057 0.106,2.137 -0.627,2.412c-0.739,0.274 -1.658,-0.358 -2.045,-1.412c-0.397,-1.057 -0.114,-2.137 0.62,-2.412c0.745,-0.274 1.665,0.358 2.052,1.412" fill="#f4d2b2"/><path d="M210.834,178.826c0.271,0.726 0.025,1.5 -0.547,1.83l0.004,0.015l-2.648,0.992l-0.01,-0.01l-0.006,0.004c-0.764,0.285 -1.635,-0.169 -1.939,-1.019c-0.321,-0.844 0.043,-1.759 0.811,-2.042c0.609,-0.22 1.295,0.026 1.708,0.578c-0.008,-0.594 0.307,-1.125 0.837,-1.32c0.693,-0.259 1.497,0.177 1.79,0.972" fill="#b75f22"/><path d="M217.279,177.811c0.627,-1.553 2.022,-2.456 3.115,-2.02c1.088,0.441 1.467,2.062 0.837,3.618c-0.633,1.558 -2.022,2.465 -3.119,2.024c-1.082,-0.442 -1.458,-2.063 -0.832,-3.621" fill="#f7ab0e"/><path d="M217.932,178.079c0.416,-1.043 1.35,-1.651 2.088,-1.356c0.733,0.294 0.981,1.377 0.556,2.43c-0.42,1.043 -1.357,1.648 -2.086,1.347c-0.731,-0.293 -0.977,-1.381 -0.558,-2.421" fill="#f4d2b2"/><path d="M216.028,179.879c0.318,-0.787 1.13,-1.2 1.827,-0.923c0.517,0.213 0.814,0.756 0.8,1.346c0.42,-0.537 1.106,-0.773 1.72,-0.525c0.754,0.306 1.092,1.225 0.754,2.063c-0.338,0.832 -1.224,1.263 -1.979,0.96v-0.006l-0.006,0.006l-2.629,-1.06l0.01,-0.018c-0.562,-0.348 -0.784,-1.127 -0.497,-1.843" fill="#b75f22"/><path d="M195.247,194.354c1.945,-2.561 6.659,-4.87 7.81,-5.508c1.153,-0.641 3.71,-3.592 5.763,-7.69c2.047,-4.105 6.785,-3.261 7.677,0c0.873,3.156 4.748,24.424 -11.636,26.528c-12.214,1.576 -12.674,-9.28 -9.614,-13.33" fill="#f7ab0e"/><path d="M211.386,203.168c0,0.774 -0.074,1.527 -0.224,2.255c-1.66,1.131 -3.731,1.934 -6.301,2.262c-12.214,1.576 -12.674,-9.281 -9.615,-13.33c0.18315,-0.23323 0.37668,-0.45812 0.58,-0.674c1.56121,-0.95906 3.35774,-1.46652 5.19,-1.466c5.73,0 10.37,4.904 10.37,10.953" fill="#f4d2b2"/><path d="M211.185,184.442c-0.092,0.741 -0.611,1.284 -1.16,1.213c-0.548,-0.065 -0.911,-0.724 -0.817,-1.467c0.093,-0.746 0.613,-1.285 1.165,-1.216c0.543,0.073 0.912,0.726 0.812,1.47" fill="#ffffff"/><path d="M210.761,184.764c0.059,-0.458 -0.163,-0.865 -0.505,-0.907c-0.334,-0.047 -0.66,0.291 -0.72,0.75c-0.058,0.456 0.168,0.863 0.51,0.913c0.341,0.039 0.656,-0.296 0.714,-0.756M208.821,182.467c0,0 1.742,-1.783 2.442,-1.588c0.22,0.059 0.304,0.618 0.094,0.915c0,0 -1.485,0.193 -2.537,0.673" fill="#ad6922"/><path d="M215.253,184.941c-0.096,0.74 -0.621,1.285 -1.17,1.216c-0.542,-0.07 -0.91,-0.73 -0.819,-1.476c0.1,-0.735 0.62,-1.282 1.168,-1.213c0.548,0.07 0.911,0.731 0.82,1.473" fill="#ffffff"/><path d="M214.827,185.26c-0.061,0.46 -0.381,0.797 -0.717,0.755c-0.344,-0.041 -0.572,-0.456 -0.515,-0.907c0.057,-0.462 0.383,-0.796 0.727,-0.755c0.334,0.041 0.564,0.449 0.505,0.907M216.066,183.373c-0.905,-0.73 -2.29,-1.29 -2.29,-1.29c-0.126,-0.342 0.092,-0.862 0.322,-0.868c0.729,-0.008 1.968,2.158 1.968,2.158M201.282,206.784c3.896,0 3.896,-3.868 3.896,-3.868c0,0 -3.896,2.603 -7.785,0c0,0 0,3.868 3.889,3.868M198.966,193.836c0.878,-1.23 5.552,-0.917 5.99,0.525c0.33,1.082 -2.346,3.053 -3.477,2.915c-1.06,-0.122 -3.13,-2.575 -2.513,-3.44" fill="#ad6922"/><path d="M197.78,197.714c-2.41821,-1.16531 -5.03685,-1.85773 -7.715,-2.04c-2.014,-0.135 -3.334,0.077 -3.346,0.077l-0.012,-0.088c0,0 1.344,-0.213 3.368,-0.077c1.863,0.128 4.726,0.584 7.744,2.054l-0.04,0.074zM196.594,198.29c-2.52104,-0.91277 -5.19201,-1.34029 -7.872,-1.26c-2.014,0.067 -3.306,0.407 -3.318,0.407l-0.028,-0.083c0.014,-0.006 1.315,-0.346 3.346,-0.413c2.6907,-0.08047 5.3723,0.34944 7.903,1.267l-0.031,0.083zM196.962,199.33c-2.56034,-0.79284 -5.24791,-1.09247 -7.92,-0.883c-2.014,0.163 -3.286,0.564 -3.301,0.57l-0.028,-0.082c0.01,-0.006 1.297,-0.413 3.315,-0.57c2.68464,-0.21621 5.38586,0.08317 7.958,0.882zM205.793,199.413l-0.037,-0.077c2.42664,-1.16738 5.05347,-1.86176 7.74,-2.046c2.023,-0.136 3.355,0.07 3.37,0.075l-0.015,0.084c-0.01,0 -1.338,-0.21 -3.35,-0.07c-2.67554,0.1802 -5.29191,0.87061 -7.708,2.034M206.983,199.997l-0.038,-0.083c2.53124,-0.92099 5.21468,-1.35165 7.907,-1.269c2.026,0.067 3.329,0.41 3.344,0.41l-0.025,0.086c-0.01,-0.006 -1.307,-0.346 -3.319,-0.413c-1.86,-0.053 -4.741,0.112 -7.87,1.269M206.61,201.034l-0.031,-0.083c2.57468,-0.79677 5.27695,-1.09876 7.964,-0.89c2.018,0.166 3.305,0.568 3.32,0.572l-0.035,0.084c-0.01,-0.006 -1.281,-0.407 -3.297,-0.568c-1.861,-0.146 -4.736,-0.118 -7.92,0.885" fill="#774414"/><path d="M253.415,218.287c-0.51,0 -0.941,-0.177 -1.26,-0.525c-0.673,-0.726 -0.846,-2.187 -0.508,-4.334c0.086,-0.578 0.251,-1.231 0.418,-1.933c0.409,-1.643 0.87,-3.514 0.452,-4.688c-0.548,-1.539 -2.432,-1.84 -3.816,-2.064c-0.407,-0.065 -0.758,-0.116 -1.033,-0.198l0.202,-0.667c0.222,0.063 0.552,0.116 0.943,0.183c0.715,0.11 1.613,0.251 2.419,0.6c0.984,0.419 1.635,1.06 1.937,1.912c0.482,1.373 0,3.348 -0.422,5.093c-0.171,0.679 -0.33,1.322 -0.415,1.87c-0.292,1.873 -0.176,3.207 0.33,3.754c0.22,0.23 0.513,0.333 0.908,0.297l0.053,0.695c-0.063,0.005 -0.135,0.005 -0.208,0.005" fill="#f7ab0e"/><path d="M257.493,218.937c-3.702,0.834 -3.893,0.202 -4.135,-0.093c-0.135,-0.173 -0.176,-1.111 0.063,-1.351c1.35,-1.37 4.072,1.444 4.072,1.444" fill="#ad6922"/><path d="M215.867,179.515c0.428,0.115 0.745,0.556 0.745,1.08c0,0.613 -0.431,1.11 -0.959,1.11c-0.399,0 -0.741,-0.287 -0.888,-0.694c-0.163,0.309 -0.47,0.523 -0.813,0.523c-0.48,0 -0.881,-0.425 -0.94,-0.968c-0.1691,0.19597 -0.41417,0.30995 -0.673,0.313c-0.386,0 -0.716,-0.269 -0.87,-0.653c-0.16662,0.21523 -0.42282,0.34204 -0.695,0.344c-0.531,0 -0.953,-0.493 -0.953,-1.105c0,-0.614 0.423,-1.11 0.953,-1.11c0.17248,0.00184 0.34055,0.05473 0.483,0.152c0.13,-0.441 0.488,-0.758 0.914,-0.758c0.322,0 0.611,0.18 0.784,0.47c0.175,-0.29 0.458,-0.47 0.782,-0.47c0.395,0 0.729,0.268 0.879,0.663c0.0959,-0.03638 0.19744,-0.05567 0.3,-0.057c0.525,0 0.951,0.496 0.951,1.11v0.051" fill="#b75f22"/><path d="M218.878,236.133c-3.535,4.906 -20.12,4.49 -24.173,0l1.674,-16.299h20.832z" fill="#6d1319"/><path d="M217.187,219.84c0,1.015 -4.655,1.84 -10.406,1.84c-5.751,0 -10.414,-0.825 -10.414,-1.84c0,-1.015 4.663,-1.836 10.414,-1.836c5.751,0 10.406,0.82 10.406,1.836" fill="#e63744"/><path d="M198.474,238.344c-1.625,-0.567 -2.951,-1.302 -3.768,-2.211l3.538,-15.239l0.23,17.45M202.388,221.507l2.116,18.033c-2.188,-0.186 -4.287,-0.588 -6.03,-1.196zM211.553,239.37c-2.236,0.316 -4.69,0.37 -7.048,0.171l3.622,-17.862l3.426,17.691M216.841,237.807c-1.401,0.755 -3.252,1.273 -5.288,1.563l1.47,-18.06zM215.895,220.731l2.982,15.401c-0.469,0.653 -1.165,1.21 -2.035,1.674z" fill="#477747"/><path d="M252.229,233.85h-8.152c-0.061,0.225 0.008,0.5 0.165,0.73c0.481,0.75 1.32,1.346 2.035,1.85c1.109,0.757 2.51,1.152 3.73,1.737c1.108,0.468 2.562,1.308 3.558,0.203c1.313,-1.579 0.193,-3.577 -1.335,-4.52zM242.957,233.85c0.061,0.225 -0.012,0.5 -0.165,0.73c-0.484,0.75 -1.325,1.346 -2.038,1.85c-1.105,0.757 -2.509,1.152 -3.735,1.737c-1.109,0.468 -2.563,1.308 -3.557,0.203c-1.308,-1.579 -0.194,-3.577 1.336,-4.52z" fill="#1b1b1b"/><path d="M233.483,208.935h20.59l3,10.102c0,5.718 -12.548,10.928 -12.548,10.928l-1.18,-8.886l-0.88,8.886c0,0 -12.414,-4.44 -12.414,-10.928z" fill="#6d1319"/><path d="M254.071,211.602l-1.666,22.302h-8.445l-0.32,-16.127h-0.25l-0.314,16.127h-8.447l-1.675,-22.302z" fill="#333433"/><path d="M216.12964,174.788c1.021,-0.433 2.238,-0.036 3.228,0.92c0.448,-0.68 0.984,-1.056 1.474,-0.961c0.923,0.183 1.353,1.947 0.962,3.932c-0.11937,0.6972 -0.35141,1.37033 -0.687,1.993c-0.03784,0.24079 -0.09707,0.47773 -0.177,0.708l4.67,5.498l9.91,-3.558c0,0 -1.684,2.679 -2.099,3.649c-0.307,0.716 -0.894,2.966 -0.894,2.966c0,0 -7.235,2.943 -9.288,2.2c-2.54,-0.919 -5.449,-9.197 -5.449,-9.197c-1.096,-0.39 -2.15,-1.442 -2.763,-2.878c-0.949,-2.249 -0.453,-4.611 1.113,-5.272" data-paper-data="{&quot;origPos&quot;:null}" fill="#795d4d"/><path d="M213.188,181.971c1.047,-1.588 24.245,-25.098 35.143,-26.317c11.797,-1.322 38.015,29.08 45.419,19.796c7.11,-8.906 -25.438,-41.009 -34.451,-34.043c-14.873,11.485 32.615,57.86 21.364,72.919c-1.59,2.116 -10.272,-2.577 -10.272,-2.577c0,0 8.812,4.076 10.019,2.225c10.284,-15.677 -36.536,-61.785 -21.771,-73.324c9.916,-7.747 43.5,25.105 35.989,35.21c-7.129,9.591 -34.272,-19.872 -46.11,-18.302c-10.601,1.41 -33.48,26.53 -33.48,26.53c-1.614,0.334 -1.85,-2.117 -1.85,-2.117" fill="#683a15"/><path d="M222.13,178.413c-0.285,1.906 -1.226,3.344 -2.098,3.21c-0.883,-0.131 -1.364,-1.776 -1.083,-3.68c0.283,-1.906 1.228,-3.342 2.11,-3.209c0.875,0.13 1.358,1.783 1.071,3.679" data-paper-data="{&quot;origPos&quot;:null}" fill="#795d4d"/><path d="M238.279,184.094l5.219,-0.313l0.024,-5.425c-8.098,1.367 -8.778,3.727 -8.472,5.82c2.235,-1.492 3.23,-0.082 3.23,-0.082zM244.04,183.781l-0.012,-5.425c8.093,1.367 8.779,3.727 8.463,5.82c-2.23,-1.492 -3.226,-0.082 -3.226,-0.082z" fill="#343434"/><path d="M252.25,183.333c0.72,0.393 3.657,23.823 3.657,23.823l-24.797,0.004l3.757,-23.805c1.778,-1.161 7.146,-1.35 7.146,-1.35l1.49,0.05h0.121l1.5,-0.05c0,0 5.348,0.178 7.126,1.328" fill="#ffffff"/><path d="M243.675,187.16c-0.28167,0 -0.51,0.22833 -0.51,0.51c0,0.28167 0.22833,0.51 0.51,0.51c0.28232,0.00056 0.51225,-0.22669 0.515,-0.509c-0.00026,-0.13614 -0.05474,-0.26657 -0.15137,-0.36246c-0.09664,-0.09589 -0.22749,-0.14934 -0.36363,-0.14854M243.675,188.24c-0.31096,-0.00438 -0.56058,-0.25801 -0.56,-0.569c0,-0.312 0.255,-0.564 0.56,-0.564c0.15025,-0.00161 0.29485,0.05722 0.40129,0.16329c0.10644,0.10606 0.16579,0.25045 0.16471,0.40071c0.00161,0.15088 -0.05741,0.29608 -0.16382,0.40306c-0.10641,0.10697 -0.2513,0.16676 -0.40218,0.16594M243.675,190.499c-0.28087,0.00275 -0.50664,0.23209 -0.50499,0.51297c0.00165,0.28088 0.23009,0.50755 0.51098,0.50701c0.28088,-0.00054 0.50845,-0.22809 0.50901,-0.50897c0,-0.13622 -0.05438,-0.26681 -0.15108,-0.36275c-0.0967,-0.09595 -0.2277,-0.14931 -0.36392,-0.14825M243.675,191.577c-0.30307,-0.01275 -0.54221,-0.26216 -0.54221,-0.5655c0,-0.30334 0.23914,-0.55275 0.54221,-0.5655c0.15025,-0.00161 0.29485,0.05722 0.40129,0.16329c0.10644,0.10606 0.16579,0.25045 0.16471,0.40071c0.00162,0.15069 -0.05746,0.2957 -0.16393,0.40236c-0.10647,0.10666 -0.25137,0.16599 -0.40207,0.16464" fill="#d0d0d0"/><path d="M252.25,183.333c0.72,0.393 3.651,9.852 3.586,9.759c1.409,8.374 1.236,18.514 1.236,18.514l-10.477,4.67l-2.995,-4.67l-3,4.67l-10.543,-4.67c0,0 -0.271,-12.671 1.721,-21.268c-0.503,0.225 3.089,-6.983 3.089,-6.983l8.714,12.726l8.669,-12.748" fill="#f7b90b"/><path d="M244.25,203.524c0,0.35042 -0.28408,0.6345 -0.6345,0.6345c-0.35042,0 -0.6345,-0.28408 -0.6345,-0.6345c-0.00135,-0.16882 0.06512,-0.33112 0.1845,-0.4505c0.11938,-0.11938 0.28168,-0.18585 0.4505,-0.1845c0.16882,-0.00135 0.33112,0.06512 0.4505,0.1845c0.11938,0.11938 0.18585,0.28168 0.1845,0.4505M244.25,208.303c0.00213,0.1699 -0.06359,0.33363 -0.18261,0.4549c-0.11901,0.12127 -0.28148,0.19005 -0.45139,0.1911c-0.17017,-0.00052 -0.33305,-0.0691 -0.45234,-0.19045c-0.11929,-0.12136 -0.18506,-0.2854 -0.18266,-0.45555c-0.00135,-0.16882 0.06512,-0.33112 0.1845,-0.4505c0.11938,-0.11938 0.28168,-0.18585 0.4505,-0.1845c0.352,0 0.635,0.281 0.635,0.635M244.25,198.742c0,0.35042 -0.28408,0.6345 -0.6345,0.6345c-0.35042,0 -0.6345,-0.28408 -0.6345,-0.6345c0,-0.354 0.281,-0.643 0.635,-0.643c0.35268,0.00275 0.63666,0.29031 0.635,0.643" fill="#cd960b"/><path d="M219.327,153.477c10.166,6.704 42.106,6.704 48.556,0c0,0 3.77,6.704 -10.65,14.577c-6.197,3.386 -21.863,3.024 -28.245,0c-13.609,-6.45 -9.661,-14.577 -9.661,-14.577" fill="#1b1b1b"/><path d="M262.633,164.522c0.999,0.635 1.653,1.729 1.653,2.964c0,1.965 -1.656,3.563 -3.706,3.563c-0.057,0 -0.116,0 -0.171,-0.006c-3.313,5.945 -9.655,9.968 -16.933,9.968c-7.292,0 -13.642,-4.029 -16.952,-9.986c-0.129,0.018 -0.273,0.024 -0.406,0.024c-2.044,0 -3.708,-1.598 -3.708,-3.563c0,-1.324 0.764,-2.486 1.874,-3.098c-0.129,-0.911 -0.192,-1.844 -0.192,-2.784c0,-10.718 8.677,-19.408 19.384,-19.408c10.698,0 19.376,8.691 19.376,19.408c0,0.992 -0.069,1.962 -0.219,2.918" data-paper-data="{&quot;origPos&quot;:null}" fill="#795d4d"/><path d="M237,165c0,1.657 -0.895,3 -2,3c-1.105,0 -2,-1.343 -2,-3c0,-1.657 0.895,-3 2,-3c1.105,0 2,1.343 2,3M255,165c0,1.657 -0.895,3 -2,3c-1.105,0 -2,-1.343 -2,-3c0,-1.657 0.895,-3 2,-3c1.105,0 2,1.343 2,3" fill="#343434"/><path d="M244.02,168.069c-1.125,0.153 -3.02,1.834 -3.02,1.834c0,0 0.207,-1.009 0.503,-1.299c0.8,-1.156 2.487,-1.604 2.487,-1.604c0,0 2.173,0.703 2.65,1.588c0.443,0.824 0.34,1.238 0.34,1.238c0,0 -2.121,-1.871 -2.96,-1.756z" fill="#eeac6c"/><path d="M237.2,171.696c0,0 6.897,3.208 13.172,-0.397c0,0 -1.39,5.47 -5.95,5.561c-4.115,0.122 -4.984,-1.492 -5.477,-1.956c-0.492,-0.463 -1.42,-1.772 -1.745,-3.208" fill="#eeac6c"/><path d="M263.624,159.071c0.031,2.282 -0.767,7.214 -2.315,10.149c0,0 -3.816,-10.795 -6.954,-12.505c-3.837,-2.095 -13.952,0.92 -17.382,-1.785c-0.571,-0.456 -0.504,-1.471 -0.504,-1.471c0,0 -0.665,1.298 -0.98,1.656c-1.661,1.892 -5.97,4.637 -8.01,6.112c-1.651,1.181 -1.725,1.165 -1.362,7.994c0,0 -3.02,-6.21 -2.855,-10.36c0.046,-1.199 0.626,-3.844 1.566,-6.539c3.415,-6.852 10.485,-11.565 18.648,-11.565c9.382,0 17.316,6.216 19.92,14.754c0.12827,1.18274 0.20435,2.37056 0.228,3.56" data-paper-data="{&quot;origPos&quot;:null}" fill="#343434"/><path d="M241.961,183.231c-0.9,0 -1.638,-1.945 -1.638,-2.837h6.445c0,0.892 -0.737,2.837 -1.639,2.837h-3.168" data-paper-data="{&quot;origPos&quot;:null}" fill="#795d4d"/><path d="M241.071,182.613c-0.363,-0.553 -0.67,-1.303 -0.735,-1.855c1.024,0.161 2.065,0.254 3.14,0.254c1.118,0 2.215,-0.097 3.278,-0.28l-0.01,0.011l-5.673,1.87" fill="#eeac6c"/><path d="M262.745,204.077c0.008,0.012 0.008,0.018 0.008,0.018c0,0 0,-0.006 -0.008,-0.018M262.745,204.04c0.402,0.586 0.685,1.341 0.774,2.185c0.21,1.997 -0.749,3.744 -2.14,3.889c-0.906,0.095 -1.778,-0.511 -2.33,-1.502c-0.52,0.424 -1.024,0.596 -1.39,0.401c-0.687,-0.362 -0.603,-1.857 0.177,-3.339c0.27106,-0.5143 0.61532,-0.98656 1.022,-1.402c0.033,-0.061 0.061,-0.12 0.096,-0.178c0,0 -0.025,-0.147 -0.063,-0.4h3.818c0.026,0.198 0.036,0.336 0.036,0.383v-0.037" data-paper-data="{&quot;origPos&quot;:null}" fill="#795d4d"/><path d="M238.822,182.283c2.981,17.747 3.794,24.524 -0.601,30.86c-1.432,2.08 -8.164,5.9 -8.164,5.9v-7.438c0,0 -0.271,-12.67 1.721,-21.267c-0.503,0.225 -6.401,2.559 -8.371,1.845c-2.536,-0.921 -6.283,-8.791 -6.283,-8.791l4.057,-1.993l4.706,5.473l8.98,-3.518c0.833,-0.545 2.465,-0.877 3.955,-1.072M258.588,203.706c0,0 -1.096,-8.268 -2.536,-10.314c-0.081,-0.106 -0.15,-0.208 -0.214,-0.301c1.406,8.375 1.236,18.516 1.236,18.516v7.438c0,0 -6.469,-3.84 -7.796,-5.9c-4.175,-6.468 -2.658,-11.679 -0.61,-30.821c1.385,0.2 2.817,0.514 3.581,1.01c0.722,0.393 4.714,2.646 6.09,4.41c3.112,3.98 4.478,15.968 4.478,15.968l-4.229,-0.006" fill="#e63744"/><path d="M256.585,184.986l-4.429,-0.97l-0.943,0.93c2.482,0.667 4.091,3.204 5.384,2.484c0.534,-0.299 -0.012,-2.445 -0.012,-2.445zM235.447,183.291l0.944,0.932c-2.478,0.665 -4.095,3.207 -5.39,2.482c-0.531,-0.294 0.013,-2.44 0.013,-2.44z" fill="#cd960b"/><path d="M251.426,183.768l3.82,1.386c0.592,0.214 1.234,0.166 1.37,-0.2l0.006,-0.007c0.129,-0.362 -0.309,-0.913 -0.897,-1.126l-4.1,-1.487zM236.809,183.51l-4.453,1.096c-0.617,0.148 -1.251,0.036 -1.341,-0.342v-0.006c-0.097,-0.376 0.39,-0.879 1,-1.026l4.65,-1.15z" fill="#f6b90c"/><path d="M236.468,180.72c-1.462,1.096 -1.582,2.316 -1.417,3.457l3.228,2.197l0.851,-2.191c0,0 0.458,-1.85 1.022,-2.048zM251.074,180.72c1.458,1.096 1.59,2.316 1.417,3.457l-3.227,2.197l-0.754,-2.522c0,0 -0.523,-1.206 -1.554,-1.723z" fill="#343434"/><path d="M240.659,205.53c0.636,-5.774 -7.404,-19.23 -7.404,-19.23l5.826,-2.449h0.006c2.765,16.587 3.393,23.144 -0.865,29.293c-1.44,2.08 -8.173,5.9 -8.173,5.9v-0.822c7.884,-4.446 10.103,-8.19 10.61,-12.692M247.198,205.53c0.519,4.408 2.356,8.247 9.889,12.757h0.018v0.758c0,0 -6.492,-3.84 -7.812,-5.9c-4.074,-6.292 -2.755,-11.398 -0.788,-29.294h0.006l5.108,2.455c0,0 -6.951,14.658 -6.421,19.224" fill="#cd960b"/><path d="M252.956,186.593c0,0 -4.759,10.196 -6.327,16.222c0.072,-4.245 0.875,-9.899 1.842,-18.634h0.005l4.48,2.412M239.131,184.182h0.01c1.401,8.433 2.238,14.248 2.143,18.741c-1.32,-6.01 -7.138,-16.336 -7.138,-16.336z" fill="#343434"/><path d="M239.864,205.804c0,-0.354 -0.287,-0.641 -0.642,-0.641c-0.354,0 -0.637,0.287 -0.637,0.641c-0.00107,0.16936 0.06567,0.33211 0.18533,0.45196c0.11966,0.11985 0.28231,0.18684 0.45167,0.18604c0.1699,0.00107 0.33321,-0.06568 0.45372,-0.18545c0.12051,-0.11976 0.18828,-0.28265 0.18828,-0.45255M248.918,205.804c0,-0.3507 -0.2843,-0.635 -0.635,-0.635c-0.3507,0 -0.635,0.2843 -0.635,0.635c-0.00187,0.16891 0.06405,0.33152 0.18302,0.45143c0.11897,0.11991 0.28106,0.18712 0.44998,0.18657c0.16927,0.00081 0.33181,-0.06622 0.45132,-0.1861c0.11951,-0.11988 0.18602,-0.28263 0.18468,-0.4519M258.588,203.706c0,0 -0.414,-3.096 -1.061,-5.975c0.92,-0.145 3.1,-0.446 4.29,-0.17c0.682,3.342 1,6.151 1,6.151l-4.229,-0.006" fill="#f7b90b"/><path d="M258.588,203.706c0,0 -0.375,-2.872 -0.99,-5.65c0.977,-0.157 3.148,-0.448 4.288,-0.141c0.631,3.185 0.931,5.797 0.931,5.797l-4.229,-0.006" fill="#343434"/><path d="M220.753,189.636c-1.897,-2.612 -3.63,-6.244 -3.63,-6.244l4.06,-1.993l4.336,5.037c-0.623,0.53 -3.257,2.75 -4.767,3.2" fill="#f7b90b"/><path d="M220.557,189.365c-1.82,-2.589 -3.433,-5.972 -3.433,-5.972l4.057,-1.995l4.116,4.788c-0.685,0.585 -3.275,2.749 -4.74,3.179" fill="#343434"/><path d="M242.474,184.029c-0.495,-0.03 -0.943,0.033 -1.285,-0.024c-0.366,-0.059 -0.639,-0.293 -0.824,-0.49c-0.343,-0.342 -0.224,-1.51 -0.117,-2.252l2.226,0.205zM244.525,181.476l2.332,-0.209c0.099,0.732 0.199,1.875 -0.108,2.249c-0.0261,0.03731 -0.05781,0.07037 -0.094,0.098l-0.098,0.097c-0.085,0.069 -0.173,0.151 -0.289,0.186c-0.44,0.136 -1.061,0.211 -1.743,0.25z" fill="#ffffff"/><path d="M244.642,183.393h-2.226v-1.843c-0.387,-0.023 -1.344,-0.088 -2.174,-0.177c0.007,-0.069 0.01,-0.136 0.02,-0.193c1.071,0.118 2.315,0.213 2.315,0.213v1.833h1.894l-0.006,-1.827c0,0 1.293,-0.109 2.38,-0.23c0.012,0.062 0.021,0.129 0.035,0.201c-0.74467,0.07557 -1.49083,0.13558 -2.238,0.18z" data-paper-data="{&quot;origPos&quot;:null}" fill="#cd960b"/><path d="M243.581,184.005c0,0 -2.607,3.29 -3.733,2.926c-1.026,-0.327 -1.085,-3.651 -0.226,-4.3c0.839,-0.632 3.96,1.374 3.96,1.374" fill="#e63744"/><path d="M243.575,184.005c0,0 3.126,-2.006 3.965,-1.374c0.861,0.649 0.802,3.973 -0.22,4.3c-1.135,0.364 -3.745,-2.926 -3.745,-2.926" fill="#e63744"/><path d="M244.028,184.176c0,0.349 -0.189,0.624 -0.434,0.624c-0.234,0 -0.436,-0.275 -0.436,-0.624c0,-0.342 0.202,-0.62 0.436,-0.62c0.245,0 0.434,0.278 0.434,0.62" fill="#e63744"/><path d="M223.861,155.498l-2.763,-29.105c6.985,-6.995 38.078,-6.995 45.058,0l-2.779,29.119c0,0 -21.645,4.048 -39.517,-0.014z" fill="#343434"/><path d="M223.556,152.269c9.223,-3.592 28.647,-3.634 40.167,-0.362l-0.344,3.604c0,0 -21.648,4.05 -39.519,-0.012l-0.304,-3.23" fill="#e63744"/><path d="M267.883,153.477c0.413,0.299 0.835,2.872 0,3.728c-0.813,0.818 -3.204,1.401 -4.352,1.503c-9.96,0.895 -30.047,0.818 -40.012,0c-1.113,-0.089 -3.568,-0.578 -4.193,-1.503c-0.837,-1.224 -0.422,-3.428 0,-3.728c0.916,-0.649 3.146,1.228 4.235,1.503c9.936,2.56 30.422,2.565 40.045,0c1.097,-0.289 3.347,-2.158 4.277,-1.503" fill="#343434"/></g></g></svg>