<svg version="1.1" xmlns="http://www.w3.org/2000/svg" xmlns:xlink="http://www.w3.org/1999/xlink" width="61.44385" height="118.53531" viewBox="0,0,61.44385,118.53531"><g transform="translate(-208.98958,-120.59166)"><g data-paper-data="{&quot;isPaintingLayer&quot;:true}" fill-rule="evenodd" stroke-linecap="butt" stroke-linejoin="miter" stroke-miterlimit="10" stroke-dasharray="" stroke-dashoffset="0" style="mix-blend-mode: normal"><path d="M247.773,233.447c-0.06,0.25 0.022,0.564 0.192,0.827c0.547,0.834 1.485,1.508 2.292,2.073c1.247,0.844 2.82,1.287 4.195,1.941c1.249,0.523 2.888,1.469 4.002,0.225c1.479,-1.766 0.222,-4.003 -1.5,-5.066zM246.518,233.447c0.062,0.25 -0.018,0.564 -0.185,0.827c-0.537,0.834 -1.493,1.508 -2.294,2.073c-1.245,0.844 -2.82,1.287 -4.202,1.941c-1.246,0.523 -2.886,1.469 -4.004,0.225c-1.473,-1.766 -0.215,-4.003 1.5,-5.066z" fill="#333433" stroke="none" stroke-width="1"/><path d="M259.035,208.486l-1.882,25.028h-9.507l-0.354,-18.106h-0.28l-0.36,18.106h-9.507l-1.88,-25.028z" fill="#565657" stroke="none" stroke-width="1"/><path d="M263.952,182.152c3.505,4.471 4.85,17.917 4.85,17.917c0,0 -0.007,-0.021 -0.007,-0.06c0.452,0.648 0.77,1.494 0.869,2.439c0.24,2.249 -0.842,4.204 -2.403,4.366c-1.026,0.116 -2.008,-0.567 -2.63,-1.678c-0.582,0.476 -1.154,0.668 -1.563,0.45c-0.768,-0.41 -0.68,-2.083 0.201,-3.744c0.30165,-0.58008 0.689,-1.11138 1.149,-1.576c0.036,-0.073 0.064,-0.137 0.108,-0.207c0,0 -1.526,-9.702 -3.147,-11.998c-0.82,-1.151 -1.343,-1.8 -1.53,-2.313c-0.152,-0.406 -0.307,-1.186 -0.377,-1.484c-0.522,-2.305 -3.378,-7.506 -3.378,-7.506c0,0 6.151,3.217 7.858,5.394M216.62,167.18c1.141,-0.483 2.518,-0.04 3.63,1.032c0.507,-0.756 1.11,-1.178 1.663,-1.072c1.034,0.201 1.523,2.176 1.088,4.411c-0.16,0.854 -0.436,1.624 -0.785,2.237c-0.037,0.277 -0.101,0.54 -0.198,0.794h0.008l5.254,6.159l11.151,-3.982c0,0 -1.895,3 -2.354,4.096c-0.35,0.793 -1.015,3.321 -1.015,3.321c0,0 -8.14,3.312 -10.451,2.468c-2.86,-1.032 -6.134,-10.32 -6.134,-10.32c-1.23,-0.437 -2.42,-1.61 -3.11,-3.232c-1.068,-2.52 -0.511,-5.162 1.254,-5.911" data-paper-data="{&quot;origPos&quot;:null}" fill="#75594c" stroke="none" stroke-width="1"/><path d="M264.117,199.611c0,0 -1.234,-9.27 -2.86,-11.563c-0.087,-0.124 -0.168,-0.23 -0.246,-0.345c1.592,9.401 1.402,20.774 1.402,20.774v2.172h-30.413v-2.162c0,0 -0.3,-14.222 1.935,-23.876c-0.57,0.261 -7.205,2.881 -9.416,2.078c-2.86,-1.031 -7.075,-9.863 -7.075,-9.863l4.566,-2.246l5.3,6.15l10.097,-3.942c2.007,-1.305 8.052,-1.52 8.052,-1.52l1.668,0.056h0.145l1.688,-0.056c0,0 6.019,0.193 8.021,1.49c0.811,0.445 5.304,2.973 6.856,4.943c3.496,4.473 5.034,17.917 5.034,17.917l-4.753,-0.008" fill="#0771b7" stroke="none" stroke-width="1"/><path d="M212.484,204.336c0,0 -3.716,-5.143 -3.484,-7.106c2.252,-0.546 2.198,-2.706 2.198,-2.706c1.357,-0.813 1.287,-3.877 1.287,-3.877c1.09,-0.704 1.29,-2.892 1.29,-2.892l1.639,-1.925l-2.929,18.505z" fill="#6cc5d8" stroke="none" stroke-width="1"/><path d="M213.638,204.152c0,0 -3.474,-4.816 -3.264,-6.659c2.11,-0.509 2.06,-2.533 2.06,-2.533c1.278,-0.767 1.204,-3.639 1.204,-3.639c1.018,-0.654 1.21,-2.711 1.21,-2.711l1.542,-1.798z" fill="#215b60" stroke="none" stroke-width="1"/><path d="M225.874,204.415c0.77,0.239 1.37,0.747 1.697,1.369c-0.67762,0.33582 -1.46053,0.3901 -2.178,0.151c-0.72082,-0.21894 -1.32805,-0.70996 -1.693,-1.369c0.67751,-0.33095 1.45725,-0.38511 2.174,-0.151" fill="#3e929d" stroke="none" stroke-width="1"/><path d="M225,202.604c0.546,-0.589 1.219,-0.94 1.865,-1.04c-0.048,0.651 -0.355,1.351 -0.895,1.928c-0.553,0.588 -1.228,0.941 -1.87,1.042c0.052,-0.647 0.358,-1.348 0.9,-1.93" fill="#3e929d" stroke="none" stroke-width="1"/><path d="M218.552,171.904c2.246,5.048 6.232,31.274 6.232,32.909c0,2.512 -1.463,5.569 -3.573,7.109c-0.099,0.077 -0.199,-1.415 -0.303,-1.353c-0.094,0.064 -0.203,1.682 -0.31,1.744c-0.66437,0.38491 -1.41721,0.59095 -2.185,0.598c-3.52,0 -6.365,-4.587 -6.365,-8.097c0,-1.636 3.52,-26.552 6.504,-32.91" fill="#3e929d" stroke="none" stroke-width="1"/><path d="M220.399,202.821c4.803,-0.707 -0.517,-26.292 -0.78,-27.558c2.238,8.728 5.166,28.144 5.166,29.55c0,0.396 -0.035,0.809 -0.103,1.215c-0.789,-1.283 -2.106,-2.634 -4.284,-3.208" fill="#6cc5d8" stroke="none" stroke-width="1"/><path d="M221.785,203.37c-0.035,-0.018 -3.465,-1.593 -6.683,0l-0.044,-0.085c3.254,-1.616 6.735,-0.018 6.768,0l-0.04,0.085z" fill="#215b60" stroke="none" stroke-width="1"/><path d="M225.013,163.361c0.107,1.918 -0.502,4.281 -1.84,6.518c-1.221,2.025 -2.802,3.57 -4.381,4.45c-0.008,0.087 -0.008,0.176 -0.008,0.26c-0.081,-0.039 -0.168,-0.078 -0.25,-0.124c-0.079,0.046 -0.162,0.084 -0.242,0.124c0,-0.084 -0.006,-0.173 -0.006,-0.259c-1.586,-0.881 -3.171,-2.426 -4.384,-4.45c-1.337,-2.238 -1.952,-4.601 -1.84,-6.519c1.746,0.812 6.191,4.612 6.472,5.882c0.29,-1.27 4.73,-5.069 6.48,-5.883" data-paper-data="{&quot;origPos&quot;:null}" fill="#3e929d" stroke="none" stroke-width="1"/><path d="M216.977,209.674c0,0.43 -0.35,0.775 -0.784,0.775c-0.42968,0 -0.778,-0.34832 -0.778,-0.778c0,-0.42968 0.34832,-0.778 0.778,-0.778c0.435,0 0.784,0.35 0.784,0.781" fill="#215b60" stroke="none" stroke-width="1"/><path d="M217.375,167.603c-2.583,-1.341 -3.857,-0.803 -4.454,0.32c-0.648,-1.611 -0.941,-3.2 -0.86,-4.562c1.23,0.576 3.802,2.634 5.314,4.242M225.014,163.361c0.081,1.362 -0.213,2.95 -0.863,4.56c-0.598,-1.113 -1.866,-1.658 -4.453,-0.318c1.515,-1.613 4.08,-3.669 5.316,-4.243" fill="#6cc5d8" stroke="none" stroke-width="1"/><path d="M217.951,199.727h-0.097c0.035,-0.598 0.146,-0.896 0.252,-1.187c0.105,-0.298 0.208,-0.577 0.239,-1.157c0.027,-0.583 -0.052,-0.867 -0.134,-1.171c-0.072,-0.298 -0.151,-0.61 -0.118,-1.206c0.023,-0.598 0.132,-0.894 0.24,-1.179c0.11,-0.298 0.21,-0.573 0.239,-1.153c0.03058,-0.39721 -0.00937,-0.79671 -0.118,-1.18c-0.11751,-0.38741 -0.1606,-0.79356 -0.127,-1.197c0.03,-0.594 0.136,-0.898 0.245,-1.18c0.103,-0.305 0.213,-0.581 0.236,-1.164c0.026,-0.58 -0.046,-0.867 -0.12,-1.169c-0.075,-0.298 -0.155,-0.61 -0.136,-1.206c0.04,-0.594 0.144,-0.892 0.25,-1.182c0.115,-0.29 0.21,-0.57 0.24,-1.154c0.03,-0.582 -0.047,-0.873 -0.125,-1.177c-0.076,-0.298 -0.155,-0.6 -0.122,-1.205c0.027,-0.595 0.136,-0.89 0.24,-1.175c0.11,-0.296 0.21,-0.575 0.235,-1.162l0.099,0.014c-0.033,0.592 -0.13,0.888 -0.24,1.175c-0.117,0.296 -0.212,0.575 -0.243,1.155c-0.03,0.583 0.045,0.873 0.118,1.177c0.088,0.302 0.167,0.604 0.128,1.198c-0.01155,0.40706 -0.09483,0.80888 -0.246,1.187c-0.1,0.296 -0.211,0.572 -0.233,1.155c-0.029,0.585 0.043,0.87 0.117,1.171c0.08,0.298 0.16,0.612 0.132,1.206c-0.03,0.594 -0.148,0.896 -0.245,1.186c-0.114,0.29 -0.213,0.565 -0.24,1.15c-0.033,0.58 0.046,0.873 0.126,1.179c0.073,0.296 0.153,0.6 0.12,1.202c-0.025,0.596 -0.13,0.896 -0.239,1.174c-0.104,0.299 -0.213,0.581 -0.236,1.162c-0.035,0.58 0.037,0.863 0.118,1.169c0.078,0.3 0.157,0.61 0.122,1.208c-0.03,0.592 -0.135,0.89 -0.24,1.18c-0.109,0.29 -0.22,0.571 -0.237,1.156" fill="#165480" stroke="none" stroke-width="1"/><path d="M223.067,171.268c-0.322,2.137 -1.381,3.753 -2.362,3.598c-0.991,-0.147 -1.534,-1.995 -1.22,-4.126c0.318,-2.137 1.379,-3.75 2.372,-3.606c0.99,0.153 1.536,2 1.21,4.134" data-paper-data="{&quot;origPos&quot;:null}" fill="#75594c" stroke="none" stroke-width="1"/><path d="M261.543,191.523c0.768,6.422 0.902,15.635 0.902,15.635v12.236h-30.456v-11.154c0,-1.465 -0.08,-9.224 0.803,-16.773c1.939,-0.336 6,-1.329 7.07,-3.776v-11.774c0.778,-0.164 1.606,-0.29 2.384,-0.39v9.727h10.193v-9.698c0.79733,0.09396 1.5891,0.23015 2.372,0.408v11.727c0.976,2.732 4.902,3.577 6.732,3.832" data-paper-data="{&quot;origPos&quot;:null}" fill="#eeeeed" stroke="#eeeeed" stroke-width="0.5"/><path d="M231.99,207.663h30.455v0.807h-30.455v-0.23z" fill="#d0d0d0" stroke="none" stroke-width="1"/><path d="M250.74942,175.41c-1.082,-0.114 -1.874,-0.141 -1.874,-0.141l-1.687,0.06h-0.14l-1.673,-0.091c0,0 -0.877,0.046 -2.044,0.186l3.781,3.892zM268.57642,155.662c1.122,0.72 1.857,1.934 1.857,3.325c0,2.211 -1.859,3.997 -4.165,3.997h-0.198c-3.726,6.67 -10.863,11.176 -19.066,11.176c-8.198,0 -15.341,-4.52 -19.068,-11.196c-0.152,0.013 -0.307,0.021 -0.462,0.021c-2.302,0 -4.162,-1.787 -4.162,-3.997c0,-1.49 0.848,-2.785 2.104,-3.472c-0.145,-1.021 -0.222,-2.067 -0.222,-3.131c0,-12.022 9.77,-21.765 21.81,-21.765c12.053,0 21.828,9.743 21.828,21.765c-0.00609,1.09741 -0.09165,2.19295 -0.256,3.278" data-paper-data="{&quot;origPos&quot;:null}" fill="#75594c" stroke="none" stroke-width="1"/><path d="M240.229,151.096c-0.772,-0.174 -0.908,-1.201 -3.386,-0.74c-0.779,0.18 -2.417,1.156 -2.732,1.808c-0.316,0.652 -0.088,-2.392 2.457,-3.522c1.835,-0.675 2.457,-0.642 3.977,-0.642c1.52,0 1.987,0.907 1.766,1.65c0,0 -0.503,1.803 -2.082,1.446zM254.134,151.096c0.772,-0.174 0.908,-1.201 3.386,-0.74c0.779,0.18 2.417,1.156 2.732,1.808c0.316,0.652 0.087,-2.392 -2.457,-3.522c-1.835,-0.675 -2.457,-0.642 -3.977,-0.642c-1.52,0 -1.987,0.907 -1.766,1.65c0,0 0.503,1.803 2.082,1.446z" data-paper-data="{&quot;origPos&quot;:null}" fill="#333433" stroke="none" stroke-width="1"/><path d="M240,157c0,1.657 -0.895,3 -2,3c-1.105,0 -2,-1.343 -2,-3c0,-1.657 0.895,-3 2,-3c1.105,0 2,1.343 2,3M258,157c0,1.657 -0.895,3 -2,3c-1.105,0 -2,-1.343 -2,-3c0,-1.657 0.895,-3 2,-3c1.105,0 2,1.343 2,3" data-paper-data="{&quot;origPos&quot;:null}" fill="#333433" stroke="none" stroke-width="1"/><path d="M247.02,160.069c-1.125,0.153 -3.02,1.834 -3.02,1.834c0,0 0.207,-1.009 0.503,-1.299c0.8,-1.156 2.487,-1.604 2.487,-1.604c0,0 2.173,0.703 2.65,1.588c0.443,0.824 0.34,1.238 0.34,1.238c0,0 -2.121,-1.871 -2.96,-1.756z" fill="#eeac6c" stroke="none" stroke-width="1"/><path d="M240.2,163.696c0,0 6.897,3.208 13.172,-0.397c0,0 -1.39,5.47 -5.95,5.561c-4.115,0.122 -4.984,-1.492 -5.477,-1.956c-0.492,-0.463 -1.42,-1.772 -1.745,-3.208" data-paper-data="{&quot;origPos&quot;:null}" fill="#a74242" stroke="none" stroke-width="1"/><path d="M269.69042,149.553c0.033,2.555 -0.857,8.087 -2.61,11.387c0,0 -4.286,-12.118 -7.824,-14.038c-4.323,-2.344 -15.709,1.039 -19.57,-2.005c-0.64,-0.504 -0.567,-1.647 -0.567,-1.647c0,0 -0.733,1.453 -1.091,1.865c-1.868,2.124 -6.72,5.203 -9.026,6.846c-1.847,1.332 -1.938,1.319 -1.529,8.979c0,0 -3.403,-6.972 -3.215,-11.625c0.058,-1.343 0.708,-4.322 1.768,-7.343c3.96972,-7.95484 12.09967,-12.97766 20.99,-12.968c10.553,0 19.478,6.968 22.41,16.545c0.15229,1.32965 0.24039,2.66587 0.264,4.004" data-paper-data="{&quot;origPos&quot;:null}" fill="#333433" stroke="none" stroke-width="1"/><path d="M245.553,176.66c-1.022,0 -1.84,-2.187 -1.84,-3.182h7.249c0,0.995 -0.824,3.182 -1.842,3.182h-3.567" data-paper-data="{&quot;origPos&quot;:null}" fill="#75594c" stroke="none" stroke-width="1"/><path d="M244.495,175.985c-0.415,-0.623 -0.708,-1.487 -0.774,-2.112c2.39494,0.38902 4.83758,0.38125 7.23,-0.023l-0.012,0.014l-6.444,2.121" fill="#eeac6c" stroke="none" stroke-width="1"/><path d="M233.118,138.453c0,0 1.249,-12.548 4.625,-14.104l1.22,0.501c0,0 1.907,-2.998 3.284,-4.12c1.371,-1.126 11.128,4.992 11.128,4.992l1.158,-0.755c3.411,1.136 4.968,13.485 4.968,13.485c0,0 -11.444,2.349 -15.313,2.241c-2.826,-0.071 -11.07,-2.241 -11.07,-2.241" fill="#eeeeed" stroke="none" stroke-width="1"/><path d="M254.542,124.996l-9.042,5.625l9.012,-5.68z" fill="#b7b7b6" stroke="none" stroke-width="1"/><path d="M248.106,128.976l-10.38,-4.601l0.027,-0.056l10.43,4.62z" fill="#b7b7b6" stroke="none" stroke-width="1"/></g></g></svg>