<svg version="1.1" xmlns="http://www.w3.org/2000/svg" xmlns:xlink="http://www.w3.org/1999/xlink" width="54.91151" height="117.221" viewBox="0,0,54.91151,117.221"><g transform="translate(-211.99948,-122.26427)"><g data-paper-data="{&quot;isPaintingLayer&quot;:true}" fill-rule="evenodd" stroke="none" stroke-width="1" stroke-linecap="butt" stroke-linejoin="miter" stroke-miterlimit="10" stroke-dasharray="" stroke-dashoffset="0" style="mix-blend-mode: normal"><path d="M259.59999,182.38401l1.17,15.666l-4.546,0.344l-1.238,-15.666l4.015,-0.795z" fill="#823421"/><path d="M234.77,234.09501h-0.006l-0.422,-10.57h9.323v10.57h-0.012c0.057,0.24 -0.018,0.484 -0.182,0.733c-0.527,0.806 -1.439,1.393 -2.218,1.936c-1.209,0.817 -2.73,1.259 -4.061,1.888c-1.206,0.503 -2.793,1.45 -3.871,0.254c-1.425,-1.7 -0.215,-3.79 1.45,-4.811M244.877,234.09501v-10.57h9.3l-0.422,10.57h-0.006c1.664,1.02 2.875,3.11 1.447,4.811c-1.078,1.195 -2.665,0.249 -3.871,-0.254c-1.332,-0.63 -2.855,-1.07 -4.058,-1.888c-0.78,-0.543 -1.694,-1.13 -2.221,-1.936c-0.162,-0.249 -0.24,-0.493 -0.183,-0.733z" data-paper-data="{&quot;origPos&quot;:null}" fill="#ffdd86"/><path d="M244.864,234.09501h0.72c0.023,0.602 1.587,1.804 3.502,2.796c0.09,-0.233 1.081,-2.44 5.753,-1.9c0.333,0.372 0.606,0.784 0.78,1.22c-1.688,-0.255 -4.991,0.232 -5.272,1.284c2.011,0.89 4.118,1.459 5.123,1.024c-0.048,0.108 -0.255,0.362 -0.273,0.382c-1.079,1.198 -2.666,0.254 -3.872,-0.249c-0.36,-0.172 -0.734,-0.328 -1.112,-0.482c-0.112,-0.047 -0.228,-0.093 -0.342,-0.14c-0.91,-0.367 -1.824,-0.738 -2.604,-1.268c-0.78,-0.544 -1.694,-1.128 -2.22,-1.934c-0.163,-0.249 -0.24,-0.493 -0.183,-0.733M243.652,234.08601h-0.72c-0.023,0.659 -1.587,1.807 -3.502,2.796c-0.09,-0.233 -1.081,-2.438 -5.753,-1.897c-0.32954,0.35778 -0.59356,0.77074 -0.78,1.22c1.688,-0.254 4.994,0.233 5.272,1.284c-2.011,0.89 -4.118,1.46 -5.123,1.025c0.048,0.11 0.255,0.36 0.276,0.383c1.076,1.198 2.663,0.251 3.869,-0.249c0.36,-0.172 0.734,-0.328 1.112,-0.482c0.114,-0.048 0.228,-0.093 0.345,-0.14c0.907,-0.367 1.821,-0.739 2.601,-1.268c0.78,-0.544 1.694,-1.133 2.22,-1.939c0.165,-0.249 0.24,-0.495 0.183,-0.733" fill="#5f2517"/><path d="M258.714,205.79301c0,0 -0.265,16.838 -0.545,24.622c-10.429,1.035 -17.871,1.035 -27.819,0c-0.245,-7.424 -0.545,-24.622 -0.545,-24.622z" fill="#9e3818"/><path d="M232.114,225.32301l-0.579,-0.897l0.58,-0.9l0.574,0.9zM232.114,221.47001l-0.579,-0.897l0.58,-0.901l0.574,0.9zM232.114,217.61501l-0.579,-0.899l0.58,-0.898l0.574,0.898zM232.114,213.76101l-0.579,-0.896l0.58,-0.901l0.574,0.9zM232.114,209.90701l-0.579,-0.898l0.58,-0.9l0.574,0.9zM240.192,225.67201l-0.576,-0.896l0.576,-0.901l0.577,0.9zM240.192,221.81901l-0.576,-0.897l0.576,-0.899l0.577,0.899zM240.192,217.96501l-0.576,-0.897l0.576,-0.901l0.577,0.901zM240.192,214.11001l-0.576,-0.896l0.576,-0.9l0.577,0.9zM240.192,210.25701l-0.576,-0.897l0.576,-0.901l0.577,0.901zM249.281,225.67201l-0.577,-0.896l0.577,-0.901l0.58,0.9zM249.281,221.81901l-0.577,-0.897l0.577,-0.899l0.58,0.899zM249.281,217.96501l-0.577,-0.897l0.577,-0.901l0.58,0.901zM249.281,214.11001l-0.577,-0.896l0.577,-0.9l0.58,0.9zM249.281,210.25701l-0.577,-0.897l0.577,-0.901l0.58,0.901zM257.301,225.32301l-0.579,-0.897l0.58,-0.9l0.574,0.9zM257.301,221.47001l-0.579,-0.897l0.58,-0.901l0.574,0.9zM257.301,217.61501l-0.579,-0.899l0.58,-0.898l0.574,0.898zM257.301,213.76101l-0.579,-0.896l0.58,-0.901l0.574,0.9zM257.301,209.90701l-0.579,-0.898l0.58,-0.9l0.574,0.9zM235.88,223.52601l-0.577,-0.897l0.577,-0.901l0.576,0.901zM235.88,219.67201l-0.577,-0.897l0.577,-0.899l0.576,0.899zM235.88,215.81801l-0.577,-0.897l0.577,-0.901l0.576,0.901zM235.88,211.96401l-0.577,-0.897l0.577,-0.899l0.576,0.9zM235.88,208.11001l-0.577,-0.897l0.577,-0.899l0.576,0.9zM244.712,223.87501l-0.579,-0.897l0.58,-0.899l0.574,0.9zM244.712,220.02301l-0.579,-0.899l0.58,-0.899l0.574,0.9zM244.712,216.16701l-0.579,-0.897l0.58,-0.898l0.574,0.898zM244.712,212.31301l-0.579,-0.897l0.58,-0.898l0.574,0.898zM244.712,208.46001l-0.579,-0.897l0.58,-0.9l0.574,0.9zM253.325,223.52601l-0.577,-0.897l0.577,-0.901l0.576,0.901zM253.325,219.67201l-0.577,-0.897l0.577,-0.899l0.576,0.899zM253.325,215.81801l-0.577,-0.897l0.577,-0.901l0.576,0.901zM253.325,211.96401l-0.577,-0.897l0.577,-0.899l0.576,0.9zM253.325,208.11001l-0.577,-0.897l0.577,-0.899l0.576,0.9z" fill="#f2bc43"/><path d="M254.952,230.77001l0.814,-22.871l0.123,0.004l-0.814,22.866z" fill="#772410"/><path d="M230.222,225.97101c8.016,0.815 18.577,0.815 28.08,0c-0.044,1.651 -0.089,3.288 -0.134,4.565c-10.426,1.037 -17.871,1.037 -27.816,0c-0.044,-1.248 -0.085,-2.894 -0.13,-4.565" fill="#f2bc43"/><path d="M230.244,226.73401c13.003,1.15 25.673,0.193 28.04,-0.007l-0.007,0.242c-1.555,0.129 -7.242,0.562 -14.515,0.562c-4.147,0 -8.807,-0.141 -13.513,-0.557c-0.003,-0.082 -0.005,-0.16 -0.005,-0.24M258.192,229.81801l-0.007,0.243c-1.124,0.14 -4.008,0.457 -8.015,0.636c-1.65,0.075 -3.618,0.127 -5.82,0.127c-4.037,0 -8.869,-0.184 -14.017,-0.766c0,-0.079 -0.005,-0.158 -0.005,-0.24c7.951,0.899 15.151,0.847 19.831,0.639c4.047,-0.181 6.941,-0.503 8.033,-0.639" fill="#9e3818"/><path d="M254.95,230.82901v-0.007l0.164,-4.61l0.121,-0.009l-0.164,4.617z" fill="#c59430"/><path d="M255.08,227.19401l0.008,-0.24l0.123,-0.007l-0.009,0.24zM254.968,230.38901l0.007,-0.24l0.123,-0.012l-0.01,0.24z" fill="#772410"/><path d="M213.732,170.36701c1.11,-0.469 2.442,-0.039 3.522,0.99c0.486,-0.73 1.066,-1.136 1.603,-1.034c1.001,0.192 1.47,2.094 1.05,4.247c-0.163,0.822 -0.43,1.563 -0.756,2.154c-0.04103,0.25947 -0.10495,0.5148 -0.191,0.763l5.082,5.93l10.784,-3.838c0,0 -1.833,2.889 -2.284,3.944c-0.33,0.767 -0.967,3.199 -0.967,3.199c0,0 -7.877,3.179 -10.112,2.373c-2.76,-0.994 -5.932,-9.933 -5.932,-9.933c-1.188,-0.42 -2.342,-1.548 -3.005,-3.103c-1.036,-2.43 -0.496,-4.979 1.206,-5.692" data-paper-data="{&quot;origPos&quot;:null}" fill="#ffdd86"/><path d="M261.322,184.71201c3.393,4.302 4.69,17.24 4.69,17.24c0,0 0,-0.021 -0.004,-0.057c0.435,0.625 0.743,1.44 0.841,2.35c0.228,2.162 -0.814,4.046 -2.33,4.205c-0.99,0.104 -1.936,-0.553 -2.54,-1.622c-0.56,0.46 -1.115,0.641 -1.516,0.433c-0.744,-0.392 -0.655,-2.006 0.2,-3.605c0.326,-0.606 0.712,-1.127 1.113,-1.514c0.032,-0.066 0.068,-0.13 0.103,-0.195c0,0 -1.473,-9.344 -3.046,-11.552c-0.787,-1.107 -1.339,-1.915 -1.519,-2.407c-0.144,-0.396 -0.26,-0.962 -0.324,-1.247c-0.504,-2.217 -3.27,-7.22 -3.27,-7.22c0,0 5.954,3.097 7.602,5.191" data-paper-data="{&quot;origPos&quot;:null}" fill="#ffdd86"/><path d="M215.275,179.28201c0,0 2.843,-2.224 3.928,-2.013c0.62,0.122 1.649,1.92 1.649,1.92c0,0 -3.215,3.009 -4.446,2.62c-0.664,-0.211 -1.131,-2.527 -1.131,-2.527" fill="#f6b90c"/><path d="M216.297,179.12701c3.317,-2.486 3.901,-0.125 3.901,-0.125c0,0 -0.625,-1.732 -3.901,0.125" fill="#f9da8e"/><path d="M261.652,201.94901c-0.42,-0.366 -0.267,-2.2 -0.267,-2.2c0,0 3.692,-1.017 4.569,-0.287c0.486,0.4 0.294,2.488 0.294,2.488c0,0 -3.736,0.756 -4.596,0" data-paper-data="{&quot;origPos&quot;:null}" fill="#f6b90c"/><path d="M265.631,201.56501c-4.656,0.802 -3.858,-1.476 -3.858,-1.476c0,0 -0.121,1.861 3.857,1.476" fill="#f9da8e"/><path d="M258.178,189.78901c-0.284,-0.636 -0.574,-1.166 -0.734,-1.47c-0.032,-0.058 -0.107,-0.255 -0.13,-0.33c1.35,6.688 1.608,15.26 1.646,19.487c-1.347,0.877 -6.313,1.228 -13.743,1.21c0,0 -0.967,-0.988 -1.934,-2.68c-0.013,0.352 -0.611,1.88 -1.951,2.66c-6.006,-0.069 -10.536,-0.343 -11.765,-1.19c0.045,-4.483 0.344,-13.849 1.924,-20.676c-0.474,0.21 -1.986,1.107 -3.86,1.73c0,0 -5.104,1.474 -6.644,0.826c-1.35,-0.568 -3.381,-4.786 -3.381,-4.786l4.302,-3.824l2.187,2.585l2.293,-0.84l6.266,-2.164l2.113,-0.745c1.884,-1.277 7.83,-1.499 7.83,-1.499l1.626,0.025h0.134l1.614,-0.025c0,0 5.869,0.215 7.782,1.472l-0.005,-0.009c0,0 1.029,0.512 2.369,1.23c1.824,0.973 4.506,2.825 5.657,4.38c0.38309,0.50838 0.71031,1.05654 0.976,1.635c0,0 2.298,5.257 2.558,9.084l-4.658,0.598c-0.766,-2.783 -2.472,-6.684 -2.472,-6.684" fill="#f6c86d"/><path d="M218.169,185.66101c-0.043,-0.077 -0.079,-0.147 -0.118,-0.22l4.425,-4.023l0.155,0.183l-4.461,4.059M260.407,195.65001c-0.025,-0.076 -0.048,-0.153 -0.073,-0.233l4.85,-0.674l0.03,0.235l-4.807,0.672" fill="#ef8214"/><path d="M247.422,178.26501c0.171,0.021 0.353,0.041 0.545,0.061l-3.824,2.192l-3.358,-2.203c0.178,-0.018 0.342,-0.034 0.504,-0.048c-0.278,-0.609 -0.447,-1.295 -0.447,-1.728h7.022c0,0.433 -0.168,1.119 -0.442,1.726" data-paper-data="{&quot;origPos&quot;:null}" fill="#ffdd86"/><path d="M241.6,178.84201c-0.399,-0.598 -0.675,-1.431 -0.739,-2.028c2.31578,0.37279 4.67694,0.36434 6.99,-0.025l-0.013,0.01l-6.238,2.043" fill="#e2a86e"/><path d="M245.278,208.67601c-0.012,0.03 -0.098,0.02 -0.121,0c-1.158,-1.096 -1.874,-2.67 -1.874,-2.67v-25.676h0.12v25.668c0,0 0.805,1.683 1.875,2.679" fill="#ef8214"/><path d="M247.287,180.32501c-1.323,0.399 -4.169,0.349 -5.53,0.116c-0.399,-0.068 -0.69,-0.322 -0.9,-0.532c-0.554,-0.553 0,-3.118 0,-3.118c1.126,0.186 3.233,1.198 3.463,3.464c0.21,-2.278 2.355,-3.281 3.49,-3.466c0,0 0.495,2.513 0,3.12c-0.029,0.038 -0.066,0.077 -0.1,0.11l-0.111,0.1c-0.093,0.075 -0.187,0.168 -0.313,0.206" fill="#f6c86d"/><path d="M244.26,180.26401c-0.244,-1.56 -1.156,-2.405 -1.88,-2.84c-0.47015,-0.28404 -0.98893,-0.47833 -1.53,-0.573l0.015,-0.12c0.03,0.005 0.766,0.105 1.573,0.59c0.746,0.445 1.688,1.315 1.94,2.924z" fill="#ef8214"/><path d="M244.378,180.26101l-0.12,-0.013c0.307,-2.896 3.508,-3.517 3.543,-3.521l0.02,0.118c-0.032,0.006 -3.144,0.609 -3.443,3.416" fill="#ef8214"/><path d="M240.633,179.28601l0.014,0.095c0.011,0.061 0.027,0.154 0.07,0.263c0.04959,0.13112 0.12664,0.25011 0.226,0.349c0.06,0.056 0.126,0.108 0.203,0.158c0.078,0.045 0.164,0.088 0.256,0.125c0.371,0.147 0.843,0.21 1.35,0.246c0.25,0.018 0.512,0.025 0.779,0.032c0.53898,0.00781 1.07806,0.00647 1.617,-0.004c0.26022,-0.00543 0.52029,-0.01677 0.78,-0.034c0.24176,-0.01763 0.48265,-0.04566 0.722,-0.084c0.226,-0.041 0.44,-0.095 0.623,-0.172c0.182,-0.077 0.337,-0.181 0.444,-0.301c0.0963,-0.10175 0.16933,-0.22322 0.214,-0.356c0.041,-0.11 0.06,-0.201 0.067,-0.265c0.006,-0.03 0.009,-0.054 0.011,-0.07l0.002,-0.027v0.027l-0.004,0.07c-0.01,0.064 -0.016,0.159 -0.053,0.272c-0.04096,0.13862 -0.10893,0.26776 -0.2,0.38c-0.12598,0.14197 -0.28075,0.25548 -0.454,0.333c-0.187,0.088 -0.401,0.15 -0.634,0.197c-0.23,0.045 -0.474,0.08 -0.73,0.102c-0.255,0.02 -0.52,0.034 -0.788,0.043c-0.26996,0.0067 -0.53997,0.01137 -0.81,0.014c-0.271,0 -0.542,-0.003 -0.81,-0.01c-0.268,-0.006 -0.53,-0.02 -0.786,-0.043c-0.24553,-0.01954 -0.48986,-0.05192 -0.732,-0.097c-0.21799,-0.04024 -0.43116,-0.10325 -0.636,-0.188c-0.09095,-0.03903 -0.178,-0.08658 -0.26,-0.142c-0.19829,-0.12865 -0.34652,-0.32134 -0.42,-0.546c-0.038,-0.116 -0.047,-0.208 -0.056,-0.27c-0.005,-0.063 -0.005,-0.097 -0.005,-0.097M244.712,181.52401c0,0.22837 -0.18513,0.4135 -0.4135,0.4135c-0.22837,0 -0.4135,-0.18513 -0.4135,-0.4135c0,-0.22865 0.18535,-0.414 0.414,-0.414c0.22865,0 0.414,0.18535 0.414,0.414M244.712,187.53001c-0.00053,0.10935 -0.04461,0.21399 -0.1225,0.29075c-0.07789,0.07676 -0.18315,0.11932 -0.2925,0.11825c-0.109,0.00027 -0.21365,-0.04278 -0.29091,-0.11967c-0.07727,-0.07689 -0.12082,-0.18132 -0.12109,-0.29033c0,-0.22865 0.18535,-0.414 0.414,-0.414c0.22865,0 0.414,0.18535 0.414,0.414M244.712,193.65601c0,0.22837 -0.18513,0.4135 -0.4135,0.4135c-0.22837,0 -0.4135,-0.18513 -0.4135,-0.4135c0,-0.22837 0.18513,-0.4135 0.4135,-0.4135c0.22837,0 0.4135,0.18513 0.4135,0.4135M244.712,199.48001c0,0.229 -0.187,0.41 -0.415,0.41c-0.109,0.00027 -0.21365,-0.04278 -0.29091,-0.11967c-0.07727,-0.07689 -0.12082,-0.18132 -0.12109,-0.29033c0,-0.22865 0.18535,-0.414 0.414,-0.414c0.22865,0 0.414,0.18535 0.414,0.414M244.712,205.30601c0,0.22837 -0.18513,0.4135 -0.4135,0.4135c-0.22837,0 -0.4135,-0.18513 -0.4135,-0.4135c0,-0.228 0.187,-0.41 0.412,-0.41c0.228,0 0.415,0.182 0.415,0.41" fill="#ef8214"/><path d="M255.651,183.38601c0,0 -1.93,12.027 -1.035,20.692c0,0 -4.68,1.399 -8.333,-0.435c-0.016,-7.63 2.06,-18.85 2.06,-18.85z" fill="#9e3818"/><path d="M246.767,203.86701c0.053,-5.545 1.77,-18.256 1.788,-18.387l0.299,0.038c-0.019,0.136 -1.754,13.012 -1.786,18.467c-0.1,-0.038 -0.201,-0.075 -0.301,-0.118M255.09,183.49401c-0.171,1.191 -1.979,14.241 -0.855,20.683c-0.084,0.022 -0.184,0.043 -0.294,0.068c-1.11,-6.34 0.595,-18.987 0.835,-20.692l0.314,-0.059" fill="#f2bb41"/><path d="M231.126,187.53001c3.714,-4.153 14.68,-8.688 20.435,-9.035c3.473,0.784 8.186,2.95 8.037,3.89c0,0 -22.072,8.964 -29.644,14.088c-0.217,-4.495 1.172,-8.944 1.172,-8.944" fill="#9e3818"/><path d="M247.967,187.35001c0,0 0.119,-0.054 0.326,-0.154c0.208,-0.095 0.502,-0.236 0.862,-0.396c0.358,-0.163 0.773,-0.351 1.222,-0.55c0.226,-0.1 0.459,-0.202 0.691,-0.306l0.716,-0.313c0.23884,-0.10381 0.47818,-0.20648 0.718,-0.308c0.24,-0.1 0.47,-0.199 0.698,-0.294c0.45,-0.192 0.873,-0.367 1.238,-0.516c0.36,-0.15 0.668,-0.27 0.878,-0.356c0.212,-0.083 0.335,-0.133 0.335,-0.133l-0.326,0.154c-0.28551,0.1345 -0.57219,0.26651 -0.86,0.396c-0.63504,0.29264 -1.27342,0.57799 -1.915,0.856c-0.237,0.102 -0.476,0.208 -0.718,0.312c-0.24,0.102 -0.481,0.206 -0.716,0.308l-0.695,0.297c-0.454,0.19 -0.876,0.367 -1.238,0.514c-0.365,0.152 -0.668,0.27 -0.883,0.355z" fill="#772410"/><path d="M252.497,178.73101c-0.924,0.186 -4.075,0.872 -7.91,2.248c-4.013,1.44 -9.574,3.942 -13.796,7.796l0.132,-0.525c4.216,-3.714 9.633,-6.143 13.566,-7.556c2.40542,-0.86381 4.86256,-1.5762 7.357,-2.133c0.21761,0.05298 0.43431,0.10965 0.65,0.17M229.937,195.87601c-0.003,-0.122 -0.005,-0.242 -0.005,-0.362c7.652,-5.221 25.794,-12.598 29.095,-13.923c0.08908,0.06957 0.17452,0.14367 0.256,0.222c-2.889,1.157 -21.708,8.773 -29.346,14.063" fill="#f2bb41"/><path d="M252.225,134.14701c0,5.35 -3.596,9.686 -8.03,9.686c-4.437,0 -8.033,-4.336 -8.033,-9.686c0,-5.348 3.596,-9.684 8.033,-9.684c4.434,0 8.03,4.336 8.03,9.684" data-paper-data="{&quot;origPos&quot;:null}" fill="#80581e"/><path d="M252.225,136.00901c0,5.35 -3.596,13.951 -8.03,13.951c-4.437,0 -8.033,-8.601 -8.033,-13.951c0,-4.09 3.596,-5.423 8.033,-5.423c4.434,0 8.03,1.392 8.03,5.423" fill="#f6b90c"/><path d="M245.721,124.06901c-0.06522,0.0838 -0.14396,0.15613 -0.233,0.214c0.16822,0.2033 0.2391,0.47001 0.194,0.73c0.102,-0.12702 0.23589,-0.22468 0.388,-0.283c-0.06913,-0.16592 -0.08757,-0.34861 -0.053,-0.525c-0.106,-0.028 -0.209,-0.076 -0.296,-0.136M244.257,124.08901c-0.17498,-0.21623 -0.24197,-0.50038 -0.182,-0.772c0.06669,-0.3023 0.27973,-0.55144 0.568,-0.66426c0.28828,-0.11282 0.61383,-0.07447 0.868,0.10226c0.2186,-0.28614 0.58351,-0.41923 0.935,-0.341c0.49335,0.10095 0.81299,0.58085 0.716,1.075c0.48072,0.12184 0.77895,0.6021 0.675,1.087c-0.06627,0.30245 -0.27947,0.55168 -0.568,0.664c0.07068,0.1709 0.08743,0.35932 0.048,0.54c-0.11109,0.49907 -0.60422,0.81487 -1.104,0.707l-0.07,-0.019c-0.21697,0.30039 -0.59017,0.44529 -0.953,0.37c-0.24015,-0.05043 -0.45037,-0.19431 -0.58431,-0.39991c-0.13394,-0.2056 -0.1806,-0.45604 -0.12969,-0.69609l0.002,-0.007c-0.33878,-0.1074 -0.58514,-0.40069 -0.63243,-0.75292c-0.04729,-0.35224 0.11297,-0.70012 0.41143,-0.89308" fill="#ef8214"/><path d="M244.792,123.99401c0.07542,-0.33393 0.35332,-0.58394 0.69334,-0.62374c0.34002,-0.0398 0.66815,0.13926 0.81866,0.44674c0.24412,-0.00494 0.47707,0.10216 0.63225,0.29068c0.15518,0.18852 0.21551,0.4377 0.16375,0.67632c-0.09114,0.40632 -0.47711,0.67607 -0.89,0.622c-0.002,0.005 -0.002,0.007 -0.002,0.012c-0.09389,0.43354 -0.52146,0.70889 -0.955,0.615c-0.43354,-0.09389 -0.70889,-0.52146 -0.615,-0.955c0.03758,-0.1806 0.13826,-0.34191 0.284,-0.455c-0.1298,-0.18246 -0.17698,-0.41106 -0.13,-0.63" fill="#f7b90b"/><path d="M245.305,124.53501c0.03036,-0.13873 0.11473,-0.25965 0.23446,-0.33602c0.11972,-0.07638 0.26494,-0.10192 0.40354,-0.07098c0.2888,0.0615 0.47346,0.34498 0.413,0.634c-0.062,0.287 -0.349,0.471 -0.639,0.407c-0.1388,-0.02928 -0.26024,-0.11258 -0.33753,-0.23153c-0.07729,-0.11894 -0.10409,-0.26375 -0.07447,-0.40247M251.597,129.685c-0.04467,0.05639 -0.098,0.10533 -0.158,0.145c0.11332,0.13938 0.16074,0.32101 0.13,0.498c0.06996,-0.08685 0.16127,-0.15404 0.265,-0.195c-0.04663,-0.11221 -0.05949,-0.23559 -0.037,-0.355c-0.07198,-0.01799 -0.13986,-0.04956 -0.2,-0.093M250.6,129.69801c-0.16833,-0.20727 -0.18666,-0.49849 -0.04565,-0.72523c0.14101,-0.22674 0.41031,-0.33908 0.67065,-0.27977c0.08224,0.01601 0.16044,0.04831 0.23,0.095c0.05013,-0.25423 0.25081,-0.45185 0.50579,-0.49804c0.25498,-0.0462 0.51224,0.06845 0.64837,0.28894c0.13613,0.22049 0.12337,0.50185 -0.03216,0.70911c0.26393,0.06774 0.45407,0.29795 0.47071,0.56993c0.01664,0.27198 -0.14401,0.52366 -0.39771,0.62307c0.04743,0.1173 0.05959,0.24589 0.035,0.37c-0.03913,0.1718 -0.14768,0.31972 -0.29983,0.40858c-0.15215,0.08886 -0.33431,0.11074 -0.50317,0.06042c-0.14748,0.20547 -0.4027,0.30402 -0.65,0.251c-0.16353,-0.03457 -0.30661,-0.13271 -0.39776,-0.27281c-0.09115,-0.1401 -0.12289,-0.31068 -0.08824,-0.47419l0.003,-0.002c-0.30677,-0.09946 -0.48891,-0.41452 -0.422,-0.73c0.03523,-0.16231 0.13341,-0.30401 0.273,-0.394" fill="#ef8214"/><path d="M250.965,129.63401c0.03043,-0.14187 0.11608,-0.2658 0.23803,-0.34441c0.12196,-0.07861 0.27019,-0.10545 0.41197,-0.07459c0.16482,0.03592 0.30411,0.14536 0.378,0.297c0.16618,-0.00331 0.32469,0.0698 0.43003,0.19837c0.10535,0.12856 0.14588,0.29835 0.10997,0.46063c-0.0604,0.27614 -0.32157,0.46052 -0.602,0.425l-0.004,0.007c-0.03015,0.14191 -0.11583,0.26586 -0.23794,0.3442c-0.12211,0.07834 -0.27049,0.10455 -0.41206,0.0728c-0.2061,-0.0436 -0.3685,-0.20228 -0.41687,-0.40731c-0.04837,-0.20503 0.02599,-0.41956 0.19087,-0.55069c-0.086,-0.12 -0.123,-0.274 -0.086,-0.428" fill="#f7b90b"/><path d="M251.312,130.00301c0.04197,-0.19772 0.23628,-0.32397 0.434,-0.282c0.19772,0.04197 0.32397,0.23628 0.282,0.434c-0.04379,0.19574 -0.23697,0.31976 -0.43317,0.27811c-0.1962,-0.04165 -0.32233,-0.23346 -0.28283,-0.43011M249.535,125.19401c-0.114,0.145 -0.249,0.272 -0.404,0.374c0.29133,0.35712 0.41451,0.82252 0.338,1.277c0.17664,-0.22315 0.40967,-0.39507 0.675,-0.498c-0.114,-0.281 -0.153,-0.598 -0.089,-0.917c-0.192,-0.048 -0.37,-0.129 -0.52,-0.236M246.984,125.23101c-0.299,-0.367 -0.434,-0.854 -0.324,-1.35c0.11715,-0.528 0.48977,-0.96288 0.99357,-1.15958c0.5038,-0.1967 1.07251,-0.12936 1.51643,0.17958c0.38322,-0.49921 1.01984,-0.73283 1.635,-0.6c0.85909,0.18199 1.41388,1.01884 1.247,1.881c0.67632,0.17265 1.16384,0.76215 1.2065,1.45885c0.04266,0.6967 -0.3693,1.34127 -1.0195,1.59515c0.119,0.29 0.152,0.619 0.082,0.947c-0.19326,0.87093 -1.05429,1.4217 -1.926,1.232c-0.044,-0.009 -0.085,-0.021 -0.126,-0.032c-0.364,0.509 -1.01,0.783 -1.664,0.643c-0.41894,-0.08808 -0.78555,-0.33938 -1.0188,-0.69835c-0.23325,-0.35897 -0.31393,-0.79606 -0.2242,-1.21465l0.002,-0.009c-0.78603,-0.25325 -1.25272,-1.06044 -1.08,-1.868c0.09036,-0.41504 0.34224,-0.77703 0.7,-1.006" fill="#ef8214"/><path d="M247.914,125.06401c0.1294,-0.584 0.6139,-1.02235 1.2079,-1.09282c0.594,-0.07048 1.16763,0.24232 1.4301,0.77982c0.42622,-0.00782 0.83263,0.17967 1.10331,0.509c0.27068,0.32933 0.37591,0.76436 0.28569,1.181c-0.15835,0.70841 -0.82994,1.17983 -1.55,1.088c0,0.007 -0.003,0.014 -0.005,0.02c-0.07944,0.36262 -0.29974,0.67881 -0.6124,0.87893c-0.31266,0.20012 -0.69204,0.26778 -1.0546,0.18807c-0.52889,-0.11127 -0.94567,-0.51843 -1.06928,-1.04457c-0.12361,-0.52614 0.06828,-1.07629 0.49228,-1.41143c-0.22707,-0.31687 -0.30986,-0.71486 -0.228,-1.096" fill="#f7b90b"/><path d="M248.809,126.01001c0.11063,-0.50412 0.6088,-0.82325 1.113,-0.713c0.24313,0.05014 0.45609,0.1955 0.59136,0.40366c0.13527,0.20816 0.18159,0.4618 0.12864,0.70434c-0.11342,0.50379 -0.61271,0.82115 -1.117,0.71c-0.24171,-0.05107 -0.45308,-0.19641 -0.58728,-0.40382c-0.13421,-0.20741 -0.18017,-0.45977 -0.12772,-0.70118" fill="#ef8214"/><path d="M265.121,159.16301c1.08,0.691 1.79,1.866 1.79,3.199c0,2.127 -1.804,3.847 -4.027,3.847c-0.064,0 -0.125,-0.002 -0.184,-0.004c-3.61,6.417 -10.513,10.757 -18.436,10.757c-7.64632,0.01213 -14.70205,-4.10954 -18.447,-10.776c-0.15,0.014 -0.297,0.023 -0.45,0.023c-2.225,0 -4.029,-1.721 -4.029,-3.847c0,-1.436 0.823,-2.685 2.043,-3.346c-0.141,-0.983 -0.217,-1.984 -0.217,-3.005c0,-11.569 9.447,-20.952 21.1,-20.952c11.648,0 21.094,9.382 21.094,20.952c0,1.072 -0.082,2.124 -0.237,3.152" data-paper-data="{&quot;origPos&quot;:null}" fill="#ffdd86"/><path d="M266.192,153.28201c0.034,2.461 -1.072,5.882 -1.072,5.882c0,0 -5.602,-6.586 -9.017,-8.434c-4.177,-2.255 -6.261,1.069 -9.993,-1.857c-0.62,-0.486 -1.772,-1.77 -1.772,-1.77c0,0 -1.404,1.406 -1.778,1.77c-4.198,4.078 -7.342,-0.683 -10.878,1.782c-4.496,3.137 -8.299,8.357 -8.299,8.357c0,0 -1.307,-1.483 -1.127,-5.964c0.053,-1.288 0.684,-4.152 1.708,-7.061c3.86029,-7.66491 11.7159,-12.49484 20.298,-12.48c10.21,0 18.843,6.706 21.68,15.925c0.14224,1.27883 0.22566,2.56352 0.25,3.85" data-paper-data="{&quot;origPos&quot;:null}" fill="#80581e"/><path d="M239.645,154.47401c0,0 -0.463,1.61 -1.916,1.292c-0.71,-0.156 -0.835,-1.074 -3.114,-0.662c-0.716,0.161 -2.223,1.033 -2.513,1.615c-0.29,0.583 -0.08,-2.136 2.26,-3.146c1.688,-0.602 2.26,-0.573 3.658,-0.573c1.398,0 1.828,0.81 1.625,1.474M249.355,154.47401c0,0 0.463,1.61 1.916,1.292c0.71,-0.156 0.835,-1.074 3.114,-0.662c0.716,0.161 2.223,1.033 2.513,1.615c0.29,0.583 0.08,-2.136 -2.26,-3.146c-1.688,-0.602 -2.26,-0.573 -3.658,-0.573c-1.398,0 -1.828,0.81 -1.625,1.474M237.77,161.55001c0,1.574 -0.862,2.85 -1.924,2.85c-1.062,0 -1.923,-1.276 -1.923,-2.85c0,-1.574 0.86,-2.85 1.923,-2.85c1.062,0 1.923,1.276 1.923,2.85M255.077,161.55001c0,1.574 -0.86,2.85 -1.923,2.85c-1.063,0 -1.923,-1.276 -1.923,-2.85c0,-1.574 0.86,-2.85 1.923,-2.85c1.062,0 1.923,1.276 1.923,2.85" data-paper-data="{&quot;origPos&quot;:null}" fill="#634417"/><path d="M241.615,164.40001c0,0 0.2,-0.99 0.485,-1.275c0.77,-1.135 2.395,-1.575 2.395,-1.575c0,0 2.092,0.69 2.552,1.56c0.427,0.808 0.327,1.215 0.327,1.215c0,0 -2.042,-1.837 -2.85,-1.725c-1.084,0.15 -2.909,1.8 -2.909,1.8z" fill="#e2a86e"/><path d="M237.962,166.96101c0,0 6.633,3.049 12.667,-0.377c0,0 -1.338,5.196 -5.721,5.283c-3.958,0.116 -4.792,-1.417 -5.268,-1.857c-0.473,-0.441 -1.365,-1.684 -1.679,-3.05" fill="#e2a86e"/></g></g></svg>