<svg xmlns="http://www.w3.org/2000/svg" xmlns:xlink="http://www.w3.org/1999/xlink" width="120" height="120"><defs><path id="a" d="M0 .087h61.38v63.95H0z"/><path id="c" d="M0 80.497h119.914V.702H0z"/><path id="e" d="M22.379.718 8.708 16.29.624 29.666h89.695L70.704.718z"/><path id="g" d="M22.379.718 8.708 16.29.624 29.666h89.695L70.704.718z"/><path id="i" d="M22.379.718 8.708 16.29.624 29.666h89.695L70.704.718z"/><path id="k" d="M22.379.718 8.708 16.29.624 29.666h89.695L70.704.718z"/><path id="m" d="M22.379.718 8.708 16.29.624 29.666h89.695L70.704.718z"/><path id="o" d="M22.379.718 8.708 16.29.624 29.666h89.695L70.704.718z"/><path id="q" d="M22.379.718 8.708 16.29.624 29.666h89.695L70.704.718z"/><path id="s" d="M22.379.718 8.708 16.29.624 29.666h89.695L70.704.718z"/><path id="u" d="M22.379.718 8.708 16.29.624 29.666h89.695L70.704.718z"/><path id="w" d="M22.379.718 8.708 16.29.624 29.666h89.695L70.704.718z"/><path id="y" d="M22.379.718 8.708 16.29.624 29.666h89.695L70.704.718z"/><path id="A" d="M22.379.718 8.708 16.29.624 29.666h89.695L70.704.718z"/><path id="C" d="M22.379.718 8.708 16.29.624 29.666h89.695L70.704.718z"/><path id="E" d="M22.379.718 8.708 16.29.624 29.666h89.695L70.704.718z"/><path id="G" d="M22.379.718 8.708 16.29.624 29.666h89.695L70.704.718z"/><path id="I" d="M22.379.718 8.708 16.29.624 29.666h89.695L70.704.718z"/><path id="K" d="M22.379.718 8.708 16.29.624 29.666h89.695L70.704.718z"/><path id="M" d="M22.379.718 8.708 16.29.624 29.666h89.695L70.704.718z"/><path id="O" d="M22.379.718 8.708 16.29.624 29.666h89.695L70.704.718z"/><path id="Q" d="M22.379.718 8.708 16.29.624 29.666h89.695L70.704.718z"/><path id="S" d="M22.379.718 8.708 16.29.624 29.666h89.695L70.704.718z"/><path id="U" d="M22.379.718 8.708 16.29.624 29.666h89.695L70.704.718z"/><path id="W" d="M22.379.718 8.708 16.29.624 29.666h89.695L70.704.718z"/><path id="Y" d="M22.379.718 8.708 16.29.624 29.666h89.695L70.704.718z"/><path id="aa" d="M22.379.718 8.708 16.29.624 29.666h89.695L70.704.718z"/><path id="ac" d="M22.379.718 8.708 16.29.624 29.666h89.695L70.704.718z"/><path id="ae" d="M22.379.718 8.708 16.29.624 29.666h89.695L70.704.718z"/><path id="ag" d="M22.379.718 8.708 16.29.624 29.666h89.695L70.704.718z"/><path id="ai" d="M22.379.718 8.708 16.29.624 29.666h89.695L70.704.718z"/><path id="ak" d="M22.379.718 8.708 16.29.624 29.666h89.695L70.704.718z"/><path id="am" d="M22.379.718 8.708 16.29.624 29.666h89.695L70.704.718z"/><path id="ao" d="M22.379.718 8.708 16.29.624 29.666h89.695L70.704.718z"/><path id="aq" d="M22.379.718 8.708 16.29.624 29.666h89.695L70.704.718z"/><path id="as" d="M22.379.718 8.708 16.29.624 29.666h89.695L70.704.718z"/><path id="au" d="M22.379.718 8.708 16.29.624 29.666h89.695L70.704.718z"/><path id="aw" d="M22.379.718 8.708 16.29.624 29.666h89.695L70.704.718z"/><path id="ay" d="M22.379.718 8.708 16.29.624 29.666h89.695L70.704.718z"/><path id="aA" d="M22.379.718 8.708 16.29.624 29.666h89.695L70.704.718z"/><path id="aC" d="M22.379.718 8.708 16.29.624 29.666h89.695L70.704.718z"/><path id="aE" d="M22.379.718 8.708 16.29.624 29.666h89.695L70.704.718z"/><path id="aG" d="M22.379.718 8.708 16.29.624 29.666h89.695L70.704.718z"/><path id="aI" d="M22.379.718 8.708 16.29.624 29.666h89.695L70.704.718z"/><path id="aK" d="M22.379.718 8.708 16.29.624 29.666h89.695L70.704.718z"/><path id="aM" d="M22.379.718 8.708 16.29.624 29.666h89.695L70.704.718z"/><path id="aO" d="M22.379.718 8.708 16.29.624 29.666h89.695L70.704.718z"/><path id="aQ" d="M22.379.718 8.708 16.29.624 29.666h89.695L70.704.718z"/><path id="aS" d="M22.379.718 8.708 16.29.624 29.666h89.695L70.704.718z"/><path id="aU" d="M22.379.718 8.708 16.29.624 29.666h89.695L70.704.718z"/><path id="aW" d="M22.379.718 8.708 16.29.624 29.666h89.695L70.704.718z"/><path id="aY" d="M22.379.718 8.708 16.29.624 29.666h89.695L70.704.718z"/><path id="ba" d="M22.379.718 8.708 16.29.624 29.666h89.695L70.704.718z"/><path id="bc" d="M22.379.718 8.708 16.29.624 29.666h89.695L70.704.718z"/><path id="be" d="M22.379.718 8.708 16.29.624 29.666h89.695L70.704.718z"/><path id="bg" d="M22.379.718 8.708 16.29.624 29.666h89.695L70.704.718z"/><path id="bi" d="M22.379.718 8.708 16.29.624 29.666h89.695L70.704.718z"/><path id="bk" d="M22.379.718 8.708 16.29.624 29.666h89.695L70.704.718z"/><path id="bm" d="M22.379.718 8.708 16.29.624 29.666h89.695L70.704.718z"/><path id="bo" d="M22.379.718 8.708 16.29.624 29.666h89.695L70.704.718z"/><path id="bq" d="M22.379.718 8.708 16.29.624 29.666h89.695L70.704.718z"/><path id="bs" d="M22.379.718 8.708 16.29.624 29.666h89.695L70.704.718z"/><path id="bu" d="M22.379.718 8.708 16.29.624 29.666h89.695L70.704.718z"/><path id="bw" d="M22.379.718 8.708 16.29.624 29.666h89.695L70.704.718z"/><path id="by" d="M22.379.718 8.708 16.29.624 29.666h89.695L70.704.718z"/><path id="bA" d="M22.379.718 8.708 16.29.624 29.666h89.695L70.704.718z"/><path id="bC" d="M22.379.718 8.708 16.29.624 29.666h89.695L70.704.718z"/><path id="bE" d="M22.379.718 8.708 16.29.624 29.666h89.695L70.704.718z"/><path id="bG" d="M22.379.718 8.708 16.29.624 29.666h89.695L70.704.718z"/><path id="bI" d="M22.379.718 8.708 16.29.624 29.666h89.695L70.704.718z"/><path id="bK" d="M22.379.718 8.708 16.29.624 29.666h89.695L70.704.718z"/><path id="bM" d="M22.379.718 8.708 16.29.624 29.666h89.695L70.704.718z"/><path id="bO" d="M22.379.718 8.708 16.29.624 29.666h89.695L70.704.718z"/><path id="bQ" d="M22.379.718 8.708 16.29.624 29.666h89.695L70.704.718z"/><path id="bS" d="M22.379.718 8.708 16.29.624 29.666h89.695L70.704.718z"/><path id="bU" d="M22.379.718 8.708 16.29.624 29.666h89.695L70.704.718z"/><path id="bW" d="M22.379.718 8.708 16.29.624 29.666h89.695L70.704.718z"/><path id="bY" d="M22.379.718 8.708 16.29.624 29.666h89.695L70.704.718z"/><path id="ca" d="M22.379.718 8.708 16.29.624 29.666h89.695L70.704.718z"/><path id="cc" d="M22.379.718 8.708 16.29.624 29.666h89.695L70.704.718z"/><path id="ce" d="M22.379.718 8.708 16.29.624 29.666h89.695L70.704.718z"/><path id="cg" d="M22.379.718 8.708 16.29.624 29.666h89.695L70.704.718z"/><path id="ci" d="M22.379.718 8.708 16.29.624 29.666h89.695L70.704.718z"/><path id="ck" d="M22.379.718 8.708 16.29.624 29.666h89.695L70.704.718z"/><path id="cm" d="M22.379.718 8.708 16.29.624 29.666h89.695L70.704.718z"/><path id="co" d="M22.379.718 8.708 16.29.624 29.666h89.695L70.704.718z"/><path id="cq" d="M22.379.718 8.708 16.29.624 29.666h89.695L70.704.718z"/><path id="cs" d="M22.379.718 8.708 16.29.624 29.666h89.695L70.704.718z"/><path id="cu" d="M22.379.718 8.708 16.29.624 29.666h89.695L70.704.718z"/><path id="cw" d="M22.379.718 8.708 16.29.624 29.666h89.695L70.704.718z"/><path id="cy" d="M22.379.718 8.708 16.29.624 29.666h89.695L70.704.718z"/><path id="cA" d="M22.379.718 8.708 16.29.624 29.666h89.695L70.704.718z"/><path id="cC" d="M22.379.718 8.708 16.29.624 29.666h89.695L70.704.718z"/><path id="cE" d="M22.379.718 8.708 16.29.624 29.666h89.695L70.704.718z"/><path id="cG" d="M22.379.718 8.708 16.29.624 29.666h89.695L70.704.718z"/><path id="cI" d="M22.379.718 8.708 16.29.624 29.666h89.695L70.704.718z"/><path id="cK" d="M22.379.718 8.708 16.29.624 29.666h89.695L70.704.718z"/><path id="cM" d="M22.379.718 8.708 16.29.624 29.666h89.695L70.704.718z"/><path id="cO" d="M22.379.718 8.708 16.29.624 29.666h89.695L70.704.718z"/><path id="cQ" d="M22.379.718 8.708 16.29.624 29.666h89.695L70.704.718z"/><path id="cS" d="M22.379.718 8.708 16.29.624 29.666h89.695L70.704.718z"/><path id="cU" d="M22.379.718 8.708 16.29.624 29.666h89.695L70.704.718z"/><path id="cW" d="M22.379.718 8.708 16.29.624 29.666h89.695L70.704.718z"/><path id="cY" d="M22.379.718 8.708 16.29.624 29.666h89.695L70.704.718z"/><path id="da" d="M22.379.718 8.708 16.29.624 29.666h89.695L70.704.718z"/><path id="dc" d="M22.379.718 8.708 16.29.624 29.666h89.695L70.704.718z"/><path id="de" d="M22.379.718 8.708 16.29.624 29.666h89.695L70.704.718z"/><path id="dg" d="M22.379.718 8.708 16.29.624 29.666h89.695L70.704.718z"/><path id="di" d="M22.379.718 8.708 16.29.624 29.666h89.695L70.704.718z"/><path id="dk" d="M22.379.718 8.708 16.29.624 29.666h89.695L70.704.718z"/><path id="dm" d="M22.379.718 8.708 16.29.624 29.666h89.695L70.704.718z"/><path id="do" d="M22.379.718 8.708 16.29.624 29.666h89.695L70.704.718z"/><path id="dq" d="M22.379.718 8.708 16.29.624 29.666h89.695L70.704.718z"/><path id="ds" d="M22.379.718 8.708 16.29.624 29.666h89.695L70.704.718z"/><path id="du" d="M22.379.718 8.708 16.29.624 29.666h89.695L70.704.718z"/><path id="dw" d="M22.379.718 8.708 16.29.624 29.666h89.695L70.704.718z"/><path id="dy" d="M22.379.718 8.708 16.29.624 29.666h89.695L70.704.718z"/><path id="dA" d="M22.379.718 8.708 16.29.624 29.666h89.695L70.704.718z"/><path id="dC" d="M22.379.718 8.708 16.29.624 29.666h89.695L70.704.718z"/><path id="dE" d="M22.379.718 8.708 16.29.624 29.666h89.695L70.704.718z"/><path id="dG" d="M22.379.718 8.708 16.29.624 29.666h89.695L70.704.718z"/><path id="dI" d="M22.379.718 8.708 16.29.624 29.666h89.695L70.704.718z"/><path id="dK" d="M22.379.718 8.708 16.29.624 29.666h89.695L70.704.718z"/><path id="dM" d="M22.379.718 8.708 16.29.624 29.666h89.695L70.704.718z"/><path id="dO" d="M22.379.718 8.708 16.29.624 29.666h89.695L70.704.718z"/><path id="dQ" d="M22.379.718 8.708 16.29.624 29.666h89.695L70.704.718z"/><path id="dS" d="M22.379.718 8.708 16.29.624 29.666h89.695L70.704.718z"/><path id="dU" d="M22.379.718 8.708 16.29.624 29.666h89.695L70.704.718z"/><path id="dW" d="M22.379.718 8.708 16.29.624 29.666h89.695L70.704.718z"/><path id="dY" d="M22.379.718 8.708 16.29.624 29.666h89.695L70.704.718z"/><path id="ea" d="M22.379.718 8.708 16.29.624 29.666h89.695L70.704.718z"/><path id="ec" d="M22.379.718 8.708 16.29.624 29.666h89.695L70.704.718z"/><path id="ee" d="M22.379.718 8.708 16.29.624 29.666h89.695L70.704.718z"/><path id="eg" d="M22.379.718 8.708 16.29.624 29.666h89.695L70.704.718z"/><path id="ei" d="M22.379.718 8.708 16.29.624 29.666h89.695L70.704.718z"/><path id="ek" d="M22.379.718 8.708 16.29.624 29.666h89.695L70.704.718z"/><path id="em" d="M22.379.718 8.708 16.29.624 29.666h89.695L70.704.718z"/><path id="eo" d="M22.379.718 8.708 16.29.624 29.666h89.695L70.704.718z"/><path id="eq" d="M22.379.718 8.708 16.29.624 29.666h89.695L70.704.718z"/><path id="es" d="M22.379.718 8.708 16.29.624 29.666h89.695L70.704.718z"/><path id="eu" d="M22.379.718 8.708 16.29.624 29.666h89.695L70.704.718z"/><path id="ew" d="M22.379.718 8.708 16.29.624 29.666h89.695L70.704.718z"/><path id="ey" d="M22.379.718 8.708 16.29.624 29.666h89.695L70.704.718z"/><path id="eA" d="M22.379.718 8.708 16.29.624 29.666h89.695L70.704.718z"/><path id="eC" d="M22.379.718 8.708 16.29.624 29.666h89.695L70.704.718z"/><path id="eE" d="M22.379.718 8.708 16.29.624 29.666h89.695L70.704.718z"/><path id="eG" d="M22.379.718 8.708 16.29.624 29.666h89.695L70.704.718z"/><path id="eI" d="M22.379.718 8.708 16.29.624 29.666h89.695L70.704.718z"/><path id="eK" d="M22.379.718 8.708 16.29.624 29.666h89.695L70.704.718z"/><path id="eM" d="M22.379.718 8.708 16.29.624 29.666h89.695L70.704.718z"/><path id="eO" d="M22.379.718 8.708 16.29.624 29.666h89.695L70.704.718z"/><path id="eQ" d="M22.379.718 8.708 16.29.624 29.666h89.695L70.704.718z"/><path id="eS" d="M22.379.718 8.708 16.29.624 29.666h89.695L70.704.718z"/><path id="eU" d="M22.379.718 8.708 16.29.624 29.666h89.695L70.704.718z"/><path id="eW" d="M22.379.718 8.708 16.29.624 29.666h89.695L70.704.718z"/><path id="eY" d="M22.379.718 8.708 16.29.624 29.666h89.695L70.704.718z"/><path id="fa" d="M22.379.718 8.708 16.29.624 29.666h89.695L70.704.718z"/><path id="fc" d="M22.379.718 8.708 16.29.624 29.666h89.695L70.704.718z"/><path id="fe" d="M22.379.718 8.708 16.29.624 29.666h89.695L70.704.718z"/><path id="fg" d="M22.379.718 8.708 16.29.624 29.666h89.695L70.704.718z"/><path id="fi" d="M22.379.718 8.708 16.29.624 29.666h89.695L70.704.718z"/><path id="fk" d="M22.379.718 8.708 16.29.624 29.666h89.695L70.704.718z"/><path id="fm" d="M22.379.718 8.708 16.29.624 29.666h89.695L70.704.718z"/><path id="fo" d="M22.379.718 8.708 16.29.624 29.666h89.695L70.704.718z"/><path id="fq" d="M22.379.718 8.708 16.29.624 29.666h89.695L70.704.718z"/><path id="fs" d="M22.379.718 8.708 16.29.624 29.666h89.695L70.704.718z"/><path id="fu" d="M22.379.718 8.708 16.29.624 29.666h89.695L70.704.718z"/><path id="fw" d="M22.379.718 8.708 16.29.624 29.666h89.695L70.704.718z"/><path id="fy" d="M22.379.718 8.708 16.29.624 29.666h89.695L70.704.718z"/><path id="fA" d="M22.379.718 8.708 16.29.624 29.666h89.695L70.704.718z"/><path id="fC" d="M22.379.718 8.708 16.29.624 29.666h89.695L70.704.718z"/><path id="fE" d="M22.379.718 8.708 16.29.624 29.666h89.695L70.704.718z"/><path id="fG" d="M22.379.718 8.708 16.29.624 29.666h89.695L70.704.718z"/><path id="fI" d="M22.379.718 8.708 16.29.624 29.666h89.695L70.704.718z"/><path id="fK" d="M22.379.718 8.708 16.29.624 29.666h89.695L70.704.718z"/><path id="fM" d="M22.379.718 8.708 16.29.624 29.666h89.695L70.704.718z"/><path id="fO" d="M22.379.718 8.708 16.29.624 29.666h89.695L70.704.718z"/><path id="fQ" d="M22.379.718 8.708 16.29.624 29.666h89.695L70.704.718z"/><path id="fS" d="M22.379.718 8.708 16.29.624 29.666h89.695L70.704.718z"/><path id="fU" d="M22.379.718 8.708 16.29.624 29.666h89.695L70.704.718z"/><path id="fW" d="M22.379.718 8.708 16.29.624 29.666h89.695L70.704.718z"/><path id="fY" d="M22.379.718 8.708 16.29.624 29.666h89.695L70.704.718z"/><path id="ga" d="M22.379.718 8.708 16.29.624 29.666h89.695L70.704.718z"/><path id="gc" d="M22.379.718 8.708 16.29.624 29.666h89.695L70.704.718z"/><path id="ge" d="M22.379.718 8.708 16.29.624 29.666h89.695L70.704.718z"/><path id="gg" d="M22.379.718 8.708 16.29.624 29.666h89.695L70.704.718z"/><path id="gi" d="M22.379.718 8.708 16.29.624 29.666h89.695L70.704.718z"/><path id="gk" d="M22.379.718 8.708 16.29.624 29.666h89.695L70.704.718z"/><path id="gm" d="M22.379.718 8.708 16.29.624 29.666h89.695L70.704.718z"/><path id="go" d="M22.379.718 8.708 16.29.624 29.666h89.695L70.704.718z"/><path id="gq" d="M22.379.718 8.708 16.29.624 29.666h89.695L70.704.718z"/><path id="gs" d="M22.379.718 8.708 16.29.624 29.666h89.695L70.704.718z"/><path id="gu" d="M22.379.718 8.708 16.29.624 29.666h89.695L70.704.718z"/><path id="gw" d="M22.379.718 8.708 16.29.624 29.666h89.695L70.704.718z"/><path id="gy" d="M22.379.718 8.708 16.29.624 29.666h89.695L70.704.718z"/><path id="gA" d="M22.379.718 8.708 16.29.624 29.666h89.695L70.704.718z"/><path id="gC" d="M22.379.718 8.708 16.29.624 29.666h89.695L70.704.718z"/><path id="gE" d="M22.379.718 8.708 16.29.624 29.666h89.695L70.704.718z"/><path id="gG" d="M22.379.718 8.708 16.29.624 29.666h89.695L70.704.718z"/><path id="gI" d="M22.379.718 8.708 16.29.624 29.666h89.695L70.704.718z"/><path id="gK" d="M22.379.718 8.708 16.29.624 29.666h89.695L70.704.718z"/><path id="gM" d="M22.379.718 8.708 16.29.624 29.666h89.695L70.704.718z"/><path id="gO" d="M22.379.718 8.708 16.29.624 29.666h89.695L70.704.718z"/><path id="gQ" d="M22.379.718 8.708 16.29.624 29.666h89.695L70.704.718z"/><path id="gS" d="M22.379.718 8.708 16.29.624 29.666h89.695L70.704.718z"/><path id="gU" d="M22.379.718 8.708 16.29.624 29.666h89.695L70.704.718z"/><path id="gW" d="M22.379.718 8.708 16.29.624 29.666h89.695L70.704.718z"/><path id="gY" d="M22.379.718 8.708 16.29.624 29.666h89.695L70.704.718z"/><path id="ha" d="M22.379.718 8.708 16.29.624 29.666h89.695L70.704.718z"/><path id="hc" d="M22.379.718 8.708 16.29.624 29.666h89.695L70.704.718z"/><path id="he" d="M22.379.718 8.708 16.29.624 29.666h89.695L70.704.718z"/><path id="hg" d="M22.379.718 8.708 16.29.624 29.666h89.695L70.704.718z"/><path id="hi" d="M22.379.718 8.708 16.29.624 29.666h89.695L70.704.718z"/><path id="hk" d="M22.379.718 8.708 16.29.624 29.666h89.695L70.704.718z"/><path id="hm" d="M22.379.718 8.708 16.29.624 29.666h89.695L70.704.718z"/><path id="ho" d="M22.379.718 8.708 16.29.624 29.666h89.695L70.704.718z"/><path id="hq" d="M22.379.718 8.708 16.29.624 29.666h89.695L70.704.718z"/><path id="hs" d="M22.379.718 8.708 16.29.624 29.666h89.695L70.704.718z"/><path id="hu" d="M22.379.718 8.708 16.29.624 29.666h89.695L70.704.718z"/><path id="hw" d="M22.379.718 8.708 16.29.624 29.666h89.695L70.704.718z"/><path id="hy" d="M22.379.718 8.708 16.29.624 29.666h89.695L70.704.718z"/><path id="hA" d="M22.379.718 8.708 16.29.624 29.666h89.695L70.704.718z"/><path id="hC" d="M22.379.718 8.708 16.29.624 29.666h89.695L70.704.718z"/><path id="hE" d="M22.379.718 8.708 16.29.624 29.666h89.695L70.704.718z"/><path id="hG" d="M22.379.718 8.708 16.29.624 29.666h89.695L70.704.718z"/><path id="hI" d="M22.379.718 8.708 16.29.624 29.666h89.695L70.704.718z"/><path id="hK" d="M22.379.718 8.708 16.29.624 29.666h89.695L70.704.718z"/><path id="hM" d="M0 80.497h119.914V.702H0z"/></defs><g fill="none" fill-rule="evenodd"><g transform="translate(0 19.043)"><g transform="translate(0 16.398)"><mask id="b" fill="#fff"><use xlink:href="#a"/></mask><path fill="#B1D665" d="M18.271 63.578c-3.784.69-8.038.877-11.112-1.436-3.074-2.314-3.557-7.965-.077-9.603-3.78-1.695-7.19-5.194-7.08-9.334.111-4.142 5.372-7.673 8.646-5.135-1.676-4.813-3.228-10.573-.165-14.647 3.026-4.027 8.901-4.191 13.935-3.979-2.317-5.483-.48-12.422 4.247-16.04C31.392-.21 38.57-.172 43.256 3.496c1.37-3.733 6.864-4.366 10.103-2.06 3.24 2.305 4.66 6.373 5.585 10.24 3.89 16.255 2.328 33.257.742 49.896" mask="url(#b)"/></g><path fill="#B1D665" d="M105.077 80.497c5.094 0 8.466-.357 11.512-3.006 1.295-1.126 2.74-2.248 3.193-3.903.454-1.655-.288-3.724-1.925-4.241.995-.37 1.378-1.574 1.461-2.631.19-2.41-.606-4.998-2.498-6.503-1.892-1.505-4.943-1.576-6.597.187 1.084-1.34.477-3.476-.835-4.595-1.313-1.118-3.093-1.474-4.793-1.76-1.06-.18-2.134-.346-3.205-.263-1.426.111-2.791.666-4.009 1.418-2.986 1.844-5.17 4.942-5.902 8.374-.733 3.432-.005 7.152 1.968 10.055 1.267 1.862 3.517 3.498 5.64 2.74"/><mask id="d" fill="#fff"><use xlink:href="#c"/></mask><path fill="#CC7E36" d="M39.28 80.497h65.797V39.305H39.28z" mask="url(#d)"/><path fill="#F89655" d="M100.878 71.54h4.199v-1.46h-4.199z" mask="url(#d)"/><path fill="#4A4B4D" d="m108.903 39.305 3.03 3.031v2.675H22.24v-2.675l19.793-4.458z" mask="url(#d)"/><path fill="#4A4B4D" d="m102.277 39.973 2.8 3.032v2.675H22.239v-2.675l18.28-4.458z" mask="url(#d)"/></g><g transform="translate(21.615 31.714)"><mask id="f" fill="#fff"><use xlink:href="#e"/></mask><path fill="#5D6162" d="M8.708 16.291 22.378.718h48.326l19.615 28.948H.624z" mask="url(#f)"/></g><g transform="translate(21.615 31.714)"><mask id="h" fill="#fff"><use xlink:href="#g"/></mask><path fill="#5D6162" d="M5.813 42.351s1.206 4.807 4.991 4.878c3.785.07 5.212-3.015 5.585-4.847L12.23 40.17l-6.417 2.18z" mask="url(#h)"/></g><g transform="translate(21.615 31.714)"><mask id="j" fill="#fff"><use xlink:href="#i"/></mask><path fill="#505656" d="M6.012 42.456c.238.79 1.543 4.55 4.796 4.61l.122.001c3.953 0 5.046-3.596 5.274-4.6l-3.987-2.12-6.205 2.109zm4.916 4.937c-.042 0-.084 0-.127-.002-3.865-.072-5.133-4.95-5.146-5l-.036-.145 6.627-2.253 4.326 2.303-.024.118c-.492 2.419-2.226 4.979-5.62 4.979z" mask="url(#j)"/></g><g transform="translate(21.615 31.714)"><mask id="l" fill="#fff"><use xlink:href="#k"/></mask><path fill="#5D6162" d="M16.389 42.351s1.206 4.807 4.99 4.878c3.785.07 5.213-3.015 5.585-4.847l-4.157-2.212-6.418 2.181z" mask="url(#l)"/></g><g transform="translate(21.615 31.714)"><mask id="n" fill="#fff"><use xlink:href="#m"/></mask><path fill="#505656" d="M16.588 42.456c.238.79 1.543 4.55 4.795 4.61l.123.001c3.952 0 5.046-3.596 5.274-4.6l-3.987-2.12-6.205 2.109zm4.915 4.937c-.041 0-.083 0-.126-.002-3.865-.072-5.133-4.95-5.146-5l-.037-.145 6.627-2.253 4.327 2.303-.024.118c-.492 2.419-2.226 4.979-5.62 4.979z" mask="url(#n)"/></g><g transform="translate(21.615 31.714)"><mask id="p" fill="#fff"><use xlink:href="#o"/></mask><path fill="#5D6162" d="M26.964 42.351s1.207 4.807 4.992 4.878c3.784.07 5.211-3.015 5.584-4.847l-4.158-2.212-6.418 2.181z" mask="url(#p)"/></g><g transform="translate(21.615 31.714)"><mask id="r" fill="#fff"><use xlink:href="#q"/></mask><path fill="#505656" d="M27.164 42.456c.237.79 1.542 4.55 4.794 4.61l.124.001c3.953 0 5.045-3.596 5.273-4.6l-3.987-2.12-6.204 2.109zm4.916 4.937c-.043 0-.084 0-.128-.002-3.864-.072-5.133-4.95-5.145-5l-.037-.145 6.627-2.253 4.326 2.303-.024.118c-.49 2.419-2.226 4.979-5.62 4.979z" mask="url(#r)"/></g><g transform="translate(21.615 31.714)"><mask id="t" fill="#fff"><use xlink:href="#s"/></mask><path fill="#5D6162" d="M37.54 42.351s1.206 4.807 4.991 4.878c3.785.07 5.212-3.015 5.584-4.847l-4.157-2.212-6.418 2.181z" mask="url(#t)"/></g><g transform="translate(21.615 31.714)"><mask id="v" fill="#fff"><use xlink:href="#u"/></mask><path fill="#505656" d="M37.738 42.456c.238.79 1.544 4.55 4.796 4.61l.124.001c3.952 0 5.045-3.596 5.272-4.6l-3.986-2.12-6.206 2.109zm4.917 4.937c-.042 0-.084 0-.127-.002-3.865-.072-5.134-4.95-5.147-5l-.036-.145 6.627-2.253 4.326 2.303-.023.118c-.49 2.419-2.226 4.979-5.62 4.979z" mask="url(#v)"/></g><g transform="translate(21.615 31.714)"><mask id="x" fill="#fff"><use xlink:href="#w"/></mask><path fill="#5D6162" d="M48.115 42.351s1.206 4.807 4.991 4.878c3.785.07 5.212-3.015 5.585-4.847l-4.158-2.212-6.418 2.181z" mask="url(#x)"/></g><g transform="translate(21.615 31.714)"><mask id="z" fill="#fff"><use xlink:href="#y"/></mask><path fill="#505656" d="M48.314 42.456c.238.79 1.544 4.55 4.796 4.61l.123.001c3.953 0 5.045-3.596 5.273-4.6l-3.986-2.12-6.206 2.109zm4.917 4.937c-.042 0-.084 0-.127-.002-3.865-.072-5.134-4.95-5.147-5l-.037-.145 6.628-2.253 4.326 2.303-.024.118c-.49 2.419-2.225 4.979-5.619 4.979z" mask="url(#z)"/></g><g transform="translate(21.615 31.714)"><mask id="B" fill="#fff"><use xlink:href="#A"/></mask><path fill="#5D6162" d="M58.691 42.351s1.206 4.807 4.99 4.878c3.786.07 5.213-3.015 5.586-4.847l-4.158-2.212-6.418 2.181z" mask="url(#B)"/></g><g transform="translate(21.615 31.714)"><mask id="D" fill="#fff"><use xlink:href="#C"/></mask><path fill="#505656" d="M58.89 42.456c.237.79 1.543 4.55 4.795 4.61l.124.001c3.952 0 5.044-3.596 5.272-4.6l-3.986-2.12-6.205 2.109zm4.917 4.937c-.043 0-.085 0-.128-.002-3.864-.072-5.134-4.95-5.146-5l-.037-.145 6.627-2.253 4.327 2.303-.024.118c-.49 2.419-2.226 4.979-5.62 4.979z" mask="url(#D)"/></g><g transform="translate(21.615 31.714)"><mask id="F" fill="#fff"><use xlink:href="#E"/></mask><path fill="#5D6162" d="M69.267 42.351s1.205 4.807 4.99 4.878c3.785.07 5.213-3.015 5.584-4.847l-4.156-2.212-6.418 2.181z" mask="url(#F)"/></g><g transform="translate(21.615 31.714)"><mask id="H" fill="#fff"><use xlink:href="#G"/></mask><path fill="#505656" d="M69.465 42.456c.238.79 1.544 4.55 4.796 4.61l.123.001c3.953 0 5.045-3.596 5.273-4.6l-3.987-2.12-6.205 2.109zm4.917 4.937c-.042 0-.084 0-.127-.002-3.866-.072-5.134-4.95-5.147-5l-.036-.145 6.627-2.253 4.326 2.303-.024.118c-.49 2.419-2.225 4.979-5.619 4.979z" mask="url(#H)"/></g><g transform="translate(21.615 31.714)"><mask id="J" fill="#fff"><use xlink:href="#I"/></mask><path fill="#5D6162" d="M79.842 42.351s1.207 4.807 4.991 4.878c3.785.07 5.212-3.015 5.584-4.847L86.26 40.17l-6.418 2.181z" mask="url(#J)"/></g><g transform="translate(21.615 31.714)"><mask id="L" fill="#fff"><use xlink:href="#K"/></mask><path fill="#505656" d="M80.04 42.456c.239.79 1.544 4.55 4.796 4.61l.124.001c3.953 0 5.045-3.596 5.273-4.6l-3.987-2.12-6.205 2.109zm4.918 4.937c-.043 0-.084 0-.128-.002-3.865-.072-5.133-4.95-5.146-5l-.037-.145 6.627-2.253 4.327 2.303-.024.118c-.49 2.419-2.226 4.979-5.62 4.979z" mask="url(#L)"/></g><g transform="translate(21.615 31.714)"><mask id="N" fill="#fff"><use xlink:href="#M"/></mask><path fill="#5D6162" d="M.525 38.821s1.207 4.807 4.992 4.878c3.785.07 5.211-3.015 5.584-4.847L6.943 36.64.525 38.82z" mask="url(#N)"/></g><g transform="translate(21.615 31.714)"><mask id="P" fill="#fff"><use xlink:href="#O"/></mask><path fill="#505656" d="M.725 38.926c.237.789 1.542 4.55 4.794 4.61l.123.001c3.953 0 5.046-3.596 5.274-4.6l-3.986-2.12-6.205 2.109zm4.915 4.937-.127-.001C1.65 43.79.38 38.91.368 38.86l-.037-.146 6.627-2.251 4.327 2.301-.024.119c-.492 2.418-2.227 4.98-5.62 4.98z" mask="url(#P)"/></g><g transform="translate(21.615 31.714)"><mask id="R" fill="#fff"><use xlink:href="#Q"/></mask><path fill="#5D6162" d="M11.1 38.821s1.207 4.807 4.992 4.878c3.785.07 5.212-3.015 5.584-4.847L17.52 36.64l-6.418 2.181z" mask="url(#R)"/></g><g transform="translate(21.615 31.714)"><mask id="T" fill="#fff"><use xlink:href="#S"/></mask><path fill="#505656" d="M11.3 38.926c.238.789 1.543 4.55 4.795 4.61l.123.001c3.953 0 5.046-3.596 5.273-4.6l-3.986-2.12-6.205 2.109zm4.916 4.937-.127-.001c-3.865-.072-5.133-4.952-5.146-5.001l-.036-.146 6.626-2.251 4.327 2.301-.024.119c-.492 2.418-2.227 4.98-5.62 4.98z" mask="url(#T)"/></g><g transform="translate(21.615 31.714)"><mask id="V" fill="#fff"><use xlink:href="#U"/></mask><path fill="#5D6162" d="M21.676 38.821s1.206 4.807 4.991 4.878c3.785.07 5.212-3.015 5.585-4.847l-4.157-2.212-6.419 2.181z" mask="url(#V)"/></g><g transform="translate(21.615 31.714)"><mask id="X" fill="#fff"><use xlink:href="#W"/></mask><path fill="#505656" d="M21.875 38.926c.238.789 1.543 4.55 4.796 4.61l.123.001c3.953 0 5.045-3.596 5.273-4.6l-3.986-2.12-6.206 2.109zm4.917 4.937-.128-.001c-3.864-.072-5.133-4.952-5.146-5.001l-.036-.146 6.627-2.251 4.326 2.301-.024.119c-.49 2.418-2.225 4.98-5.619 4.98z" mask="url(#X)"/></g><g transform="translate(21.615 31.714)"><mask id="Z" fill="#fff"><use xlink:href="#Y"/></mask><path fill="#5D6162" d="M32.252 38.821s1.206 4.807 4.99 4.878c3.786.07 5.213-3.015 5.585-4.847L38.67 36.64l-6.418 2.181z" mask="url(#Z)"/></g><g transform="translate(21.615 31.714)"><mask id="ab" fill="#fff"><use xlink:href="#aa"/></mask><path fill="#505656" d="M32.45 38.926c.239.789 1.544 4.55 4.796 4.61l.124.001c3.953 0 5.044-3.596 5.272-4.6l-3.986-2.12-6.205 2.109zm4.918 4.937-.128-.001c-3.864-.072-5.134-4.952-5.146-5.001l-.037-.146 6.628-2.251 4.326 2.301-.024.119c-.49 2.418-2.226 4.98-5.62 4.98z" mask="url(#ab)"/></g><g transform="translate(21.615 31.714)"><mask id="ad" fill="#fff"><use xlink:href="#ac"/></mask><path fill="#5D6162" d="M42.827 38.821s1.207 4.807 4.992 4.878c3.785.07 5.211-3.015 5.584-4.847l-4.158-2.212-6.418 2.181z" mask="url(#ad)"/></g><g transform="translate(21.615 31.714)"><mask id="af" fill="#fff"><use xlink:href="#ae"/></mask><path fill="#505656" d="M43.026 38.926c.238.789 1.544 4.55 4.796 4.61l.124.001c3.952 0 5.044-3.596 5.271-4.6l-3.985-2.12-6.206 2.109zm4.917 4.937-.127-.001c-3.865-.072-5.134-4.952-5.147-5.001l-.036-.146 6.627-2.251 4.326 2.301-.023.119c-.49 2.418-2.226 4.98-5.62 4.98z" mask="url(#af)"/></g><g transform="translate(21.615 31.714)"><mask id="ah" fill="#fff"><use xlink:href="#ag"/></mask><path fill="#5D6162" d="M53.403 38.821s1.207 4.807 4.991 4.878c3.785.07 5.212-3.015 5.585-4.847L59.82 36.64l-6.418 2.181z" mask="url(#ah)"/></g><g transform="translate(21.615 31.714)"><mask id="aj" fill="#fff"><use xlink:href="#ai"/></mask><path fill="#505656" d="M53.602 38.926c.238.789 1.544 4.55 4.796 4.61l.123.001c3.953 0 5.045-3.596 5.272-4.6l-3.986-2.12-6.205 2.109zm4.917 4.937-.128-.001c-3.864-.072-5.133-4.952-5.146-5.001l-.037-.146 6.627-2.251 4.327 2.301-.024.119c-.49 2.418-2.225 4.98-5.619 4.98z" mask="url(#aj)"/></g><g transform="translate(21.615 31.714)"><mask id="al" fill="#fff"><use xlink:href="#ak"/></mask><path fill="#5D6162" d="M63.979 38.821s1.206 4.807 4.991 4.878c3.785.07 5.212-3.015 5.584-4.847l-4.157-2.212-6.418 2.181z" mask="url(#al)"/></g><g transform="translate(21.615 31.714)"><mask id="an" fill="#fff"><use xlink:href="#am"/></mask><path fill="#505656" d="M64.178 38.926c.237.789 1.543 4.55 4.795 4.61l.124.001c3.952 0 5.044-3.596 5.272-4.6l-3.986-2.12-6.205 2.109zm4.917 4.937-.129-.001c-3.864-.072-5.133-4.952-5.145-5.001l-.037-.146 6.627-2.251 4.327 2.301-.024.119c-.491 2.418-2.226 4.98-5.62 4.98z" mask="url(#an)"/></g><g transform="translate(21.615 31.714)"><mask id="ap" fill="#fff"><use xlink:href="#ao"/></mask><path fill="#5D6162" d="M74.554 38.821s1.206 4.807 4.992 4.878c3.785.07 5.211-3.015 5.584-4.847l-4.158-2.212-6.418 2.181z" mask="url(#ap)"/></g><g transform="translate(21.615 31.714)"><mask id="ar" fill="#fff"><use xlink:href="#aq"/></mask><path fill="#505656" d="M74.753 38.926c.238.789 1.544 4.55 4.796 4.61l.124.001c3.952 0 5.044-3.596 5.271-4.6l-3.986-2.12-6.205 2.109zm4.917 4.937-.128-.001c-3.864-.072-5.133-4.952-5.146-5.001l-.036-.146 6.627-2.251 4.326 2.301-.024.119c-.49 2.418-2.225 4.98-5.619 4.98z" mask="url(#ar)"/></g><g transform="translate(21.615 31.714)"><mask id="at" fill="#fff"><use xlink:href="#as"/></mask><path fill="#5D6162" d="M5.813 35.291s1.206 4.807 4.991 4.878c3.785.07 5.212-3.015 5.585-4.847L12.23 33.11l-6.417 2.18z" mask="url(#at)"/></g><g transform="translate(21.615 31.714)"><mask id="av" fill="#fff"><use xlink:href="#au"/></mask><path fill="#505656" d="M6.012 35.395c.238.79 1.543 4.55 4.796 4.611 4.053.086 5.166-3.584 5.396-4.598l-3.987-2.121-6.205 2.108zm4.916 4.938-.127-.001c-3.865-.073-5.133-4.952-5.146-5l-.036-.147 6.627-2.252 4.326 2.302-.024.12c-.492 2.417-2.226 4.978-5.62 4.978z" mask="url(#av)"/></g><g transform="translate(21.615 31.714)"><mask id="ax" fill="#fff"><use xlink:href="#aw"/></mask><path fill="#5D6162" d="M16.389 35.291s1.206 4.807 4.99 4.878c3.785.07 5.213-3.015 5.585-4.847l-4.157-2.212-6.418 2.181z" mask="url(#ax)"/></g><g transform="translate(21.615 31.714)"><mask id="az" fill="#fff"><use xlink:href="#ay"/></mask><path fill="#505656" d="M16.588 35.395c.238.79 1.543 4.55 4.795 4.611h.123c3.952 0 5.046-3.595 5.274-4.598l-3.987-2.121-6.205 2.108zm4.915 4.938-.126-.001c-3.865-.073-5.133-4.952-5.146-5l-.037-.147 6.627-2.252 4.327 2.302-.024.12c-.492 2.417-2.226 4.978-5.62 4.978z" mask="url(#az)"/></g><g transform="translate(21.615 31.714)"><mask id="aB" fill="#fff"><use xlink:href="#aA"/></mask><path fill="#5D6162" d="M26.964 35.291s1.207 4.807 4.992 4.878c3.784.07 5.211-3.015 5.584-4.847l-4.158-2.212-6.418 2.181z" mask="url(#aB)"/></g><g transform="translate(21.615 31.714)"><mask id="aD" fill="#fff"><use xlink:href="#aC"/></mask><path fill="#505656" d="M27.164 35.395c.237.79 1.542 4.55 4.794 4.611h.124c3.953 0 5.045-3.595 5.273-4.598l-3.987-2.121-6.204 2.108zm4.916 4.938-.128-.001c-3.864-.073-5.133-4.952-5.145-5l-.037-.147 6.627-2.252 4.326 2.302-.024.12c-.49 2.417-2.226 4.978-5.62 4.978z" mask="url(#aD)"/></g><g transform="translate(21.615 31.714)"><mask id="aF" fill="#fff"><use xlink:href="#aE"/></mask><path fill="#5D6162" d="M37.54 35.291s1.206 4.807 4.991 4.878c3.785.07 5.212-3.015 5.584-4.847l-4.157-2.212-6.418 2.181z" mask="url(#aF)"/></g><g transform="translate(21.615 31.714)"><mask id="aH" fill="#fff"><use xlink:href="#aG"/></mask><path fill="#505656" d="M37.738 35.395c.238.79 1.544 4.55 4.796 4.611h.124c3.952 0 5.045-3.595 5.272-4.598l-3.986-2.121-6.206 2.108zm4.917 4.938-.127-.001c-3.865-.073-5.134-4.952-5.147-5l-.036-.147 6.627-2.252 4.326 2.302-.023.12c-.49 2.417-2.226 4.978-5.62 4.978z" mask="url(#aH)"/></g><g transform="translate(21.615 31.714)"><mask id="aJ" fill="#fff"><use xlink:href="#aI"/></mask><path fill="#5D6162" d="M48.115 35.291s1.206 4.807 4.991 4.878c3.785.07 5.212-3.015 5.585-4.847l-4.158-2.212-6.418 2.181z" mask="url(#aJ)"/></g><g transform="translate(21.615 31.714)"><mask id="aL" fill="#fff"><use xlink:href="#aK"/></mask><path fill="#505656" d="M48.314 35.395c.238.79 1.544 4.55 4.796 4.611h.123c3.953 0 5.045-3.595 5.273-4.598l-3.986-2.121-6.206 2.108zm4.917 4.938-.127-.001c-3.865-.073-5.134-4.952-5.147-5l-.037-.147 6.628-2.252 4.326 2.302-.024.12c-.49 2.417-2.225 4.978-5.619 4.978z" mask="url(#aL)"/></g><g transform="translate(21.615 31.714)"><mask id="aN" fill="#fff"><use xlink:href="#aM"/></mask><path fill="#5D6162" d="M58.691 35.291s1.206 4.807 4.99 4.878c3.786.07 5.213-3.015 5.586-4.847l-4.158-2.212-6.418 2.181z" mask="url(#aN)"/></g><g transform="translate(21.615 31.714)"><mask id="aP" fill="#fff"><use xlink:href="#aO"/></mask><path fill="#505656" d="M58.89 35.395c.237.79 1.543 4.55 4.795 4.611h.124c3.952 0 5.044-3.595 5.272-4.598l-3.986-2.121-6.205 2.108zm4.917 4.938-.128-.001c-3.864-.073-5.134-4.952-5.146-5l-.037-.147 6.627-2.252 4.327 2.302-.024.12c-.49 2.417-2.226 4.978-5.62 4.978z" mask="url(#aP)"/></g><g transform="translate(21.615 31.714)"><mask id="aR" fill="#fff"><use xlink:href="#aQ"/></mask><path fill="#5D6162" d="M69.267 35.291s1.205 4.807 4.99 4.878c3.785.07 5.213-3.015 5.584-4.847l-4.156-2.212-6.418 2.181z" mask="url(#aR)"/></g><g transform="translate(21.615 31.714)"><mask id="aT" fill="#fff"><use xlink:href="#aS"/></mask><path fill="#505656" d="M69.465 35.395c.238.79 1.544 4.55 4.796 4.611h.123c3.953 0 5.045-3.595 5.273-4.598l-3.987-2.121-6.205 2.108zm4.917 4.938-.127-.001c-3.866-.073-5.134-4.952-5.147-5l-.036-.147 6.627-2.252 4.326 2.302-.024.12c-.49 2.417-2.225 4.978-5.619 4.978z" mask="url(#aT)"/></g><g transform="translate(21.615 31.714)"><mask id="aV" fill="#fff"><use xlink:href="#aU"/></mask><path fill="#5D6162" d="M79.842 35.291s1.207 4.807 4.991 4.878c3.785.07 5.212-3.015 5.584-4.847L86.26 33.11l-6.418 2.181z" mask="url(#aV)"/></g><g transform="translate(21.615 31.714)"><mask id="aX" fill="#fff"><use xlink:href="#aW"/></mask><path fill="#505656" d="M80.04 35.395c.239.79 1.544 4.55 4.796 4.611h.124c3.953 0 5.045-3.595 5.273-4.598l-3.987-2.121-6.205 2.108zm4.918 4.938-.128-.001c-3.865-.073-5.133-4.952-5.146-5l-.037-.147 6.627-2.252 4.327 2.302-.024.12c-.49 2.417-2.226 4.978-5.62 4.978z" mask="url(#aX)"/></g><g transform="translate(21.615 31.714)"><mask id="aZ" fill="#fff"><use xlink:href="#aY"/></mask><path fill="#5D6162" d="M.525 31.761s1.207 4.807 4.992 4.878c3.785.07 5.211-3.015 5.584-4.847L6.943 29.58.525 31.76z" mask="url(#aZ)"/></g><g transform="translate(21.615 31.714)"><mask id="bb" fill="#fff"><use xlink:href="#ba"/></mask><path fill="#505656" d="M.725 31.866c.237.789 1.542 4.55 4.794 4.61l.123.001c3.953 0 5.046-3.596 5.274-4.6l-3.986-2.12-6.205 2.109zm4.915 4.937-.127-.001c-3.864-.072-5.133-4.951-5.145-5l-.037-.147 6.627-2.252 4.327 2.302-.024.119c-.492 2.418-2.227 4.98-5.62 4.98z" mask="url(#bb)"/></g><g transform="translate(21.615 31.714)"><mask id="bd" fill="#fff"><use xlink:href="#bc"/></mask><path fill="#5D6162" d="M11.1 31.761s1.207 4.807 4.992 4.878c3.785.07 5.212-3.015 5.584-4.847L17.52 29.58l-6.418 2.181z" mask="url(#bd)"/></g><g transform="translate(21.615 31.714)"><mask id="bf" fill="#fff"><use xlink:href="#be"/></mask><path fill="#505656" d="M11.3 31.866c.238.789 1.543 4.55 4.795 4.61l.123.001c3.953 0 5.046-3.596 5.273-4.6l-3.986-2.12-6.205 2.109zm4.916 4.937-.127-.001c-3.865-.072-5.133-4.951-5.146-5l-.036-.147 6.626-2.252 4.327 2.302-.024.119c-.492 2.418-2.227 4.98-5.62 4.98z" mask="url(#bf)"/></g><g transform="translate(21.615 31.714)"><mask id="bh" fill="#fff"><use xlink:href="#bg"/></mask><path fill="#5D6162" d="M21.676 31.761s1.206 4.807 4.991 4.878c3.785.07 5.212-3.015 5.585-4.847l-4.157-2.212-6.419 2.181z" mask="url(#bh)"/></g><g transform="translate(21.615 31.714)"><mask id="bj" fill="#fff"><use xlink:href="#bi"/></mask><path fill="#505656" d="M21.875 31.866c.238.789 1.543 4.55 4.796 4.61l.123.001c3.953 0 5.045-3.596 5.273-4.6l-3.986-2.12-6.206 2.109zm4.917 4.937-.128-.001c-3.864-.072-5.133-4.951-5.146-5l-.036-.147 6.627-2.252 4.326 2.302-.024.119c-.49 2.418-2.224 4.98-5.619 4.98z" mask="url(#bj)"/></g><g transform="translate(21.615 31.714)"><mask id="bl" fill="#fff"><use xlink:href="#bk"/></mask><path fill="#5D6162" d="M32.252 31.761s1.206 4.807 4.99 4.878c3.786.07 5.213-3.015 5.585-4.847L38.67 29.58l-6.418 2.181z" mask="url(#bl)"/></g><g transform="translate(21.615 31.714)"><mask id="bn" fill="#fff"><use xlink:href="#bm"/></mask><path fill="#505656" d="M32.45 31.866c.239.789 1.544 4.55 4.796 4.61l.124.001c3.953 0 5.044-3.596 5.272-4.6l-3.986-2.12-6.205 2.109zm4.918 4.937-.128-.001c-3.864-.072-5.134-4.951-5.146-5l-.037-.147 6.628-2.252 4.326 2.302-.024.119c-.49 2.418-2.225 4.98-5.62 4.98z" mask="url(#bn)"/></g><g transform="translate(21.615 31.714)"><mask id="bp" fill="#fff"><use xlink:href="#bo"/></mask><path fill="#5D6162" d="M42.827 31.761s1.207 4.807 4.992 4.878c3.785.07 5.211-3.015 5.584-4.847l-4.158-2.212-6.418 2.181z" mask="url(#bp)"/></g><g transform="translate(21.615 31.714)"><mask id="br" fill="#fff"><use xlink:href="#bq"/></mask><path fill="#505656" d="M43.026 31.866c.238.789 1.544 4.55 4.796 4.61l.124.001c3.953 0 5.044-3.596 5.271-4.6l-3.985-2.12-6.206 2.109zm4.917 4.937-.127-.001c-3.865-.072-5.134-4.951-5.147-5l-.036-.147 6.627-2.252 4.326 2.302-.023.119c-.49 2.418-2.225 4.98-5.62 4.98z" mask="url(#br)"/></g><g transform="translate(21.615 31.714)"><mask id="bt" fill="#fff"><use xlink:href="#bs"/></mask><path fill="#5D6162" d="M53.403 31.761s1.207 4.807 4.991 4.878c3.785.07 5.212-3.015 5.585-4.847L59.82 29.58l-6.418 2.181z" mask="url(#bt)"/></g><g transform="translate(21.615 31.714)"><mask id="bv" fill="#fff"><use xlink:href="#bu"/></mask><path fill="#505656" d="M53.602 31.866c.238.789 1.544 4.55 4.796 4.61l.123.001c3.953 0 5.045-3.596 5.272-4.6l-3.986-2.12-6.205 2.109zm4.917 4.937-.128-.001c-3.864-.072-5.133-4.951-5.146-5l-.037-.147 6.627-2.252 4.327 2.302-.024.119c-.49 2.418-2.225 4.98-5.619 4.98z" mask="url(#bv)"/></g><g transform="translate(21.615 31.714)"><mask id="bx" fill="#fff"><use xlink:href="#bw"/></mask><path fill="#5D6162" d="M63.979 31.761s1.206 4.807 4.991 4.878c3.785.07 5.212-3.015 5.584-4.847l-4.157-2.212-6.418 2.181z" mask="url(#bx)"/></g><g transform="translate(21.615 31.714)"><mask id="bz" fill="#fff"><use xlink:href="#by"/></mask><path fill="#505656" d="M64.178 31.866c.237.789 1.543 4.55 4.795 4.61l.124.001c3.952 0 5.044-3.596 5.272-4.6l-3.986-2.12-6.205 2.109zm4.917 4.937-.129-.001c-3.864-.072-5.133-4.951-5.145-5l-.037-.147 6.627-2.252 4.327 2.302-.024.119c-.491 2.418-2.225 4.98-5.62 4.98z" mask="url(#bz)"/></g><g transform="translate(21.615 31.714)"><mask id="bB" fill="#fff"><use xlink:href="#bA"/></mask><path fill="#5D6162" d="M74.554 31.761s1.206 4.807 4.992 4.878c3.785.07 5.211-3.015 5.584-4.847l-4.158-2.212-6.418 2.181z" mask="url(#bB)"/></g><g transform="translate(21.615 31.714)"><mask id="bD" fill="#fff"><use xlink:href="#bC"/></mask><path fill="#505656" d="M74.753 31.866c.238.789 1.544 4.55 4.796 4.61l.124.001c3.952 0 5.044-3.596 5.271-4.6l-3.986-2.12-6.205 2.109zm4.917 4.937-.128-.001c-3.864-.072-5.133-4.951-5.146-5l-.036-.147 6.627-2.252 4.326 2.302-.024.119c-.49 2.418-2.224 4.98-5.619 4.98z" mask="url(#bD)"/></g><g transform="translate(21.615 31.714)"><mask id="bF" fill="#fff"><use xlink:href="#bE"/></mask><path fill="#5D6162" d="M5.813 28.231s1.206 4.807 4.991 4.878c3.785.07 5.212-3.015 5.585-4.847L12.23 26.05l-6.417 2.18z" mask="url(#bF)"/></g><g transform="translate(21.615 31.714)"><mask id="bH" fill="#fff"><use xlink:href="#bG"/></mask><path fill="#505656" d="M6.012 28.335c.238.79 1.543 4.55 4.796 4.611 4.053.095 5.166-3.585 5.396-4.598l-3.987-2.121-6.205 2.108zm4.916 4.938-.127-.001c-3.865-.073-5.133-4.952-5.146-5l-.036-.147 6.627-2.252 4.326 2.302-.024.12c-.492 2.417-2.226 4.978-5.62 4.978z" mask="url(#bH)"/></g><g transform="translate(21.615 31.714)"><mask id="bJ" fill="#fff"><use xlink:href="#bI"/></mask><path fill="#5D6162" d="M16.389 28.231s1.206 4.807 4.99 4.878c3.785.07 5.213-3.015 5.585-4.847l-4.157-2.212-6.418 2.181z" mask="url(#bJ)"/></g><g transform="translate(21.615 31.714)"><mask id="bL" fill="#fff"><use xlink:href="#bK"/></mask><path fill="#505656" d="M16.588 28.335c.238.79 1.543 4.55 4.795 4.611h.123c3.952 0 5.046-3.595 5.274-4.598l-3.987-2.121-6.205 2.108zm4.915 4.938-.126-.001c-3.865-.073-5.133-4.952-5.146-5l-.037-.147 6.627-2.252 4.327 2.302-.024.12c-.492 2.417-2.226 4.978-5.62 4.978z" mask="url(#bL)"/></g><g transform="translate(21.615 31.714)"><mask id="bN" fill="#fff"><use xlink:href="#bM"/></mask><path fill="#5D6162" d="M26.964 28.231s1.207 4.807 4.992 4.878c3.784.07 5.211-3.015 5.584-4.847l-4.158-2.212-6.418 2.181z" mask="url(#bN)"/></g><g transform="translate(21.615 31.714)"><mask id="bP" fill="#fff"><use xlink:href="#bO"/></mask><path fill="#505656" d="M27.164 28.335c.237.79 1.542 4.55 4.794 4.611h.124c3.953 0 5.045-3.595 5.273-4.598l-3.987-2.121-6.204 2.108zm4.916 4.938-.128-.001c-3.864-.073-5.133-4.952-5.145-5l-.037-.147 6.627-2.252 4.326 2.302-.024.12c-.49 2.417-2.226 4.978-5.62 4.978z" mask="url(#bP)"/></g><g transform="translate(21.615 31.714)"><mask id="bR" fill="#fff"><use xlink:href="#bQ"/></mask><path fill="#5D6162" d="M37.54 28.231s1.206 4.807 4.991 4.878c3.785.07 5.212-3.015 5.584-4.847l-4.157-2.212-6.418 2.181z" mask="url(#bR)"/></g><g transform="translate(21.615 31.714)"><mask id="bT" fill="#fff"><use xlink:href="#bS"/></mask><path fill="#505656" d="M37.738 28.335c.238.79 1.544 4.55 4.796 4.611h.124c3.952 0 5.045-3.595 5.272-4.598l-3.986-2.121-6.206 2.108zm4.917 4.938-.127-.001c-3.865-.073-5.134-4.952-5.147-5l-.036-.147 6.627-2.252 4.326 2.302-.023.12c-.49 2.417-2.226 4.978-5.62 4.978z" mask="url(#bT)"/></g><g transform="translate(21.615 31.714)"><mask id="bV" fill="#fff"><use xlink:href="#bU"/></mask><path fill="#5D6162" d="M48.115 28.231s1.206 4.807 4.991 4.878c3.785.07 5.212-3.015 5.585-4.847l-4.158-2.212-6.418 2.181z" mask="url(#bV)"/></g><g transform="translate(21.615 31.714)"><mask id="bX" fill="#fff"><use xlink:href="#bW"/></mask><path fill="#505656" d="M48.314 28.335c.238.79 1.544 4.55 4.796 4.611h.123c3.953 0 5.045-3.595 5.273-4.598l-3.986-2.121-6.206 2.108zm4.917 4.938-.127-.001c-3.865-.073-5.134-4.952-5.147-5l-.037-.147 6.628-2.252 4.326 2.302-.024.12c-.49 2.417-2.225 4.978-5.619 4.978z" mask="url(#bX)"/></g><g transform="translate(21.615 31.714)"><mask id="bZ" fill="#fff"><use xlink:href="#bY"/></mask><path fill="#5D6162" d="M58.691 28.231s1.206 4.807 4.99 4.878c3.786.07 5.213-3.015 5.586-4.847l-4.158-2.212-6.418 2.181z" mask="url(#bZ)"/></g><g transform="translate(21.615 31.714)"><mask id="cb" fill="#fff"><use xlink:href="#ca"/></mask><path fill="#505656" d="M58.89 28.335c.237.79 1.543 4.55 4.795 4.611h.124c3.952 0 5.044-3.595 5.272-4.598l-3.986-2.121-6.205 2.108zm4.917 4.938-.128-.001c-3.864-.073-5.134-4.952-5.146-5l-.037-.147 6.627-2.252 4.327 2.302-.024.12c-.49 2.417-2.226 4.978-5.62 4.978z" mask="url(#cb)"/></g><g transform="translate(21.615 31.714)"><mask id="cd" fill="#fff"><use xlink:href="#cc"/></mask><path fill="#5D6162" d="M69.267 28.231s1.205 4.807 4.99 4.878c3.785.07 5.213-3.015 5.584-4.847l-4.156-2.212-6.418 2.181z" mask="url(#cd)"/></g><g transform="translate(21.615 31.714)"><mask id="cf" fill="#fff"><use xlink:href="#ce"/></mask><path fill="#505656" d="M69.465 28.335c.238.79 1.544 4.55 4.796 4.611h.123c3.953 0 5.045-3.595 5.273-4.598l-3.987-2.121-6.205 2.108zm4.917 4.938-.127-.001c-3.866-.073-5.134-4.952-5.147-5l-.036-.147 6.627-2.252 4.326 2.302-.024.12c-.49 2.417-2.225 4.978-5.619 4.978z" mask="url(#cf)"/></g><g transform="translate(21.615 31.714)"><mask id="ch" fill="#fff"><use xlink:href="#cg"/></mask><path fill="#5D6162" d="M79.842 28.231s1.207 4.807 4.991 4.878c3.785.07 5.212-3.015 5.584-4.847L86.26 26.05l-6.418 2.181z" mask="url(#ch)"/></g><g transform="translate(21.615 31.714)"><mask id="cj" fill="#fff"><use xlink:href="#ci"/></mask><path fill="#505656" d="M80.04 28.335c.239.79 1.544 4.55 4.796 4.611h.124c3.953 0 5.045-3.595 5.273-4.598l-3.987-2.121-6.205 2.108zm4.918 4.938-.128-.001c-3.865-.073-5.133-4.952-5.146-5l-.037-.147 6.627-2.252 4.327 2.302-.024.12c-.49 2.417-2.226 4.978-5.62 4.978z" mask="url(#cj)"/></g><g transform="translate(21.615 31.714)"><mask id="cl" fill="#fff"><use xlink:href="#ck"/></mask><path fill="#5D6162" d="M.525 24.701s1.207 4.808 4.992 4.878c3.785.07 5.211-3.015 5.584-4.847L6.943 22.52.525 24.701z" mask="url(#cl)"/></g><g transform="translate(21.615 31.714)"><mask id="cn" fill="#fff"><use xlink:href="#cm"/></mask><path fill="#505656" d="M.725 24.806c.237.789 1.542 4.55 4.794 4.61l.123.001c3.953 0 5.046-3.596 5.274-4.6l-3.986-2.12-6.205 2.109zm4.916 4.937-.128-.001C1.65 29.67.38 24.79.368 24.742l-.037-.147 6.627-2.252 4.327 2.302-.024.119c-.492 2.418-2.227 4.979-5.62 4.979z" mask="url(#cn)"/></g><g transform="translate(21.615 31.714)"><mask id="cp" fill="#fff"><use xlink:href="#co"/></mask><path fill="#5D6162" d="M11.1 24.701s1.207 4.808 4.992 4.878c3.785.07 5.212-3.015 5.584-4.847L17.52 22.52l-6.418 2.181z" mask="url(#cp)"/></g><g transform="translate(21.615 31.714)"><mask id="cr" fill="#fff"><use xlink:href="#cq"/></mask><path fill="#505656" d="M11.3 24.806c.238.789 1.543 4.55 4.795 4.61l.123.001c3.953 0 5.046-3.596 5.273-4.6l-3.986-2.12-6.205 2.109zm4.916 4.937-.127-.001c-3.865-.072-5.133-4.952-5.146-5l-.036-.147 6.626-2.252 4.327 2.302-.024.119c-.492 2.418-2.227 4.979-5.62 4.979z" mask="url(#cr)"/></g><g transform="translate(21.615 31.714)"><mask id="ct" fill="#fff"><use xlink:href="#cs"/></mask><path fill="#5D6162" d="M21.676 24.701s1.206 4.808 4.991 4.878c3.785.07 5.212-3.015 5.585-4.847l-4.157-2.212-6.419 2.181z" mask="url(#ct)"/></g><g transform="translate(21.615 31.714)"><mask id="cv" fill="#fff"><use xlink:href="#cu"/></mask><path fill="#505656" d="M21.875 24.806c.238.789 1.543 4.55 4.796 4.61l.123.001c3.953 0 5.045-3.596 5.273-4.6l-3.986-2.12-6.206 2.109zm4.917 4.937-.128-.001c-3.864-.072-5.133-4.952-5.146-5l-.036-.147 6.627-2.252 4.326 2.302-.024.119c-.49 2.418-2.224 4.979-5.619 4.979z" mask="url(#cv)"/></g><g transform="translate(21.615 31.714)"><mask id="cx" fill="#fff"><use xlink:href="#cw"/></mask><path fill="#5D6162" d="M32.252 24.701s1.206 4.808 4.99 4.878c3.786.07 5.213-3.015 5.585-4.847L38.67 22.52l-6.418 2.181z" mask="url(#cx)"/></g><g transform="translate(21.615 31.714)"><mask id="cz" fill="#fff"><use xlink:href="#cy"/></mask><path fill="#505656" d="M32.45 24.806c.239.789 1.544 4.55 4.796 4.61l.124.001c3.953 0 5.044-3.596 5.272-4.6l-3.986-2.12-6.205 2.109zm4.918 4.937-.128-.001c-3.864-.072-5.134-4.952-5.146-5l-.037-.147 6.628-2.252 4.326 2.302-.024.119c-.49 2.418-2.225 4.979-5.62 4.979z" mask="url(#cz)"/></g><g transform="translate(21.615 31.714)"><mask id="cB" fill="#fff"><use xlink:href="#cA"/></mask><path fill="#5D6162" d="M42.827 24.701s1.207 4.808 4.992 4.878c3.785.07 5.211-3.015 5.584-4.847l-4.158-2.212-6.418 2.181z" mask="url(#cB)"/></g><g transform="translate(21.615 31.714)"><mask id="cD" fill="#fff"><use xlink:href="#cC"/></mask><path fill="#505656" d="M43.026 24.806c.238.789 1.544 4.55 4.796 4.61l.124.001c3.953 0 5.044-3.596 5.271-4.6l-3.985-2.12-6.206 2.109zm4.917 4.937-.127-.001c-3.865-.072-5.134-4.952-5.147-5l-.036-.147 6.627-2.252 4.326 2.302-.023.119c-.49 2.418-2.225 4.979-5.62 4.979z" mask="url(#cD)"/></g><g transform="translate(21.615 31.714)"><mask id="cF" fill="#fff"><use xlink:href="#cE"/></mask><path fill="#5D6162" d="M53.403 24.701s1.207 4.808 4.991 4.878c3.785.07 5.212-3.015 5.585-4.847L59.82 22.52l-6.418 2.181z" mask="url(#cF)"/></g><g transform="translate(21.615 31.714)"><mask id="cH" fill="#fff"><use xlink:href="#cG"/></mask><path fill="#505656" d="M53.602 24.806c.238.789 1.544 4.55 4.796 4.61l.123.001c3.953 0 5.045-3.596 5.272-4.6l-3.986-2.12-6.205 2.109zm4.917 4.937-.128-.001c-3.864-.072-5.133-4.952-5.146-5l-.037-.147 6.627-2.252 4.327 2.302-.024.119c-.49 2.418-2.225 4.979-5.619 4.979z" mask="url(#cH)"/></g><g transform="translate(21.615 31.714)"><mask id="cJ" fill="#fff"><use xlink:href="#cI"/></mask><path fill="#5D6162" d="M63.979 24.701s1.206 4.808 4.991 4.878c3.785.07 5.212-3.015 5.584-4.847l-4.157-2.212-6.418 2.181z" mask="url(#cJ)"/></g><g transform="translate(21.615 31.714)"><mask id="cL" fill="#fff"><use xlink:href="#cK"/></mask><path fill="#505656" d="M64.178 24.806c.237.789 1.543 4.55 4.795 4.61l.124.001c3.952 0 5.044-3.596 5.272-4.6l-3.986-2.12-6.205 2.109zm4.917 4.937-.129-.001c-3.864-.072-5.133-4.952-5.145-5l-.037-.147 6.627-2.252 4.327 2.302-.024.119c-.491 2.418-2.225 4.979-5.62 4.979z" mask="url(#cL)"/></g><g transform="translate(21.615 31.714)"><mask id="cN" fill="#fff"><use xlink:href="#cM"/></mask><path fill="#5D6162" d="M74.554 24.701s1.206 4.808 4.992 4.878c3.785.07 5.211-3.015 5.584-4.847l-4.158-2.212-6.418 2.181z" mask="url(#cN)"/></g><g transform="translate(21.615 31.714)"><mask id="cP" fill="#fff"><use xlink:href="#cO"/></mask><path fill="#505656" d="M74.753 24.806c.238.789 1.544 4.55 4.796 4.61l.124.001c3.952 0 5.044-3.596 5.271-4.6l-3.986-2.12-6.205 2.109zm4.917 4.937-.128-.001c-3.864-.072-5.133-4.952-5.146-5l-.036-.147 6.627-2.252 4.326 2.302-.024.119c-.49 2.418-2.224 4.979-5.619 4.979z" mask="url(#cP)"/></g><g transform="translate(21.615 31.714)"><mask id="cR" fill="#fff"><use xlink:href="#cQ"/></mask><path fill="#5D6162" d="M5.813 21.171s1.206 4.807 4.991 4.878c3.785.07 5.212-3.015 5.585-4.847L12.23 18.99l-6.417 2.18z" mask="url(#cR)"/></g><g transform="translate(21.615 31.714)"><mask id="cT" fill="#fff"><use xlink:href="#cS"/></mask><path fill="#505656" d="M6.012 21.275c.238.79 1.543 4.55 4.796 4.611h.123c3.952 0 5.045-3.595 5.273-4.599l-3.987-2.12-6.205 2.108zm4.916 4.938-.127-.001c-3.865-.072-5.133-4.952-5.146-5l-.036-.147 6.627-2.252 4.326 2.302-.024.12c-.492 2.417-2.226 4.978-5.62 4.978z" mask="url(#cT)"/></g><g transform="translate(21.615 31.714)"><mask id="cV" fill="#fff"><use xlink:href="#cU"/></mask><path fill="#5D6162" d="M16.389 21.171s1.206 4.807 4.99 4.878c3.785.07 5.213-3.015 5.585-4.847l-4.157-2.212-6.418 2.181z" mask="url(#cV)"/></g><g transform="translate(21.615 31.714)"><mask id="cX" fill="#fff"><use xlink:href="#cW"/></mask><path fill="#505656" d="M16.588 21.275c.238.79 1.543 4.55 4.795 4.611h.123c3.953 0 5.046-3.595 5.274-4.599l-3.987-2.12-6.205 2.108zm4.916 4.938-.127-.001c-3.865-.072-5.133-4.952-5.146-5l-.037-.147 6.627-2.252 4.327 2.302-.024.12c-.492 2.417-2.226 4.978-5.62 4.978z" mask="url(#cX)"/></g><g transform="translate(21.615 31.714)"><mask id="cZ" fill="#fff"><use xlink:href="#cY"/></mask><path fill="#5D6162" d="M26.964 21.171s1.207 4.807 4.992 4.878c3.784.07 5.211-3.015 5.584-4.847l-4.158-2.212-6.418 2.181z" mask="url(#cZ)"/></g><g transform="translate(21.615 31.714)"><mask id="db" fill="#fff"><use xlink:href="#da"/></mask><path fill="#505656" d="M27.164 21.275c.237.79 1.542 4.55 4.794 4.611h.124c3.953 0 5.045-3.595 5.273-4.599l-3.987-2.12-6.204 2.108zm4.916 4.938-.128-.001c-3.864-.072-5.133-4.952-5.145-5l-.037-.147 6.627-2.252 4.326 2.302-.024.12c-.49 2.417-2.225 4.978-5.62 4.978z" mask="url(#db)"/></g><g transform="translate(21.615 31.714)"><mask id="dd" fill="#fff"><use xlink:href="#dc"/></mask><path fill="#5D6162" d="M37.54 21.171s1.206 4.807 4.991 4.878c3.785.07 5.212-3.015 5.584-4.847l-4.157-2.212-6.418 2.181z" mask="url(#dd)"/></g><g transform="translate(21.615 31.714)"><mask id="df" fill="#fff"><use xlink:href="#de"/></mask><path fill="#505656" d="M37.738 21.275c.238.79 1.544 4.55 4.796 4.611h.124c3.953 0 5.045-3.595 5.272-4.599l-3.986-2.12-6.206 2.108zm4.917 4.938-.127-.001c-3.865-.072-5.134-4.952-5.147-5l-.036-.147 6.627-2.252 4.326 2.302-.023.12c-.49 2.417-2.225 4.978-5.62 4.978z" mask="url(#df)"/></g><g transform="translate(21.615 31.714)"><mask id="dh" fill="#fff"><use xlink:href="#dg"/></mask><path fill="#5D6162" d="M48.115 21.171s1.206 4.807 4.991 4.878c3.785.07 5.212-3.015 5.585-4.847l-4.158-2.212-6.418 2.181z" mask="url(#dh)"/></g><g transform="translate(21.615 31.714)"><mask id="dj" fill="#fff"><use xlink:href="#di"/></mask><path fill="#505656" d="M48.314 21.275c.238.79 1.544 4.55 4.796 4.611h.123c3.954 0 5.045-3.595 5.273-4.599l-3.986-2.12-6.206 2.108zm4.917 4.938-.127-.001c-3.865-.072-5.134-4.952-5.147-5l-.037-.147 6.628-2.252 4.326 2.302-.024.12c-.49 2.417-2.225 4.978-5.619 4.978z" mask="url(#dj)"/></g><g transform="translate(21.615 31.714)"><mask id="dl" fill="#fff"><use xlink:href="#dk"/></mask><path fill="#5D6162" d="M58.691 21.171s1.206 4.807 4.99 4.878c3.786.07 5.213-3.015 5.586-4.847l-4.158-2.212-6.418 2.181z" mask="url(#dl)"/></g><g transform="translate(21.615 31.714)"><mask id="dn" fill="#fff"><use xlink:href="#dm"/></mask><path fill="#505656" d="M58.89 21.275c.237.79 1.543 4.55 4.795 4.611h.124c3.953 0 5.044-3.595 5.272-4.599l-3.986-2.12-6.205 2.108zm4.917 4.938-.128-.001c-3.864-.072-5.134-4.952-5.146-5l-.037-.147 6.627-2.252 4.327 2.302-.024.12c-.49 2.417-2.225 4.978-5.62 4.978z" mask="url(#dn)"/></g><g transform="translate(21.615 31.714)"><mask id="dp" fill="#fff"><use xlink:href="#do"/></mask><path fill="#5D6162" d="M69.267 21.171s1.205 4.807 4.99 4.878c3.785.07 5.213-3.015 5.584-4.847l-4.156-2.212-6.418 2.181z" mask="url(#dp)"/></g><g transform="translate(21.615 31.714)"><mask id="dr" fill="#fff"><use xlink:href="#dq"/></mask><path fill="#505656" d="M69.465 21.275c.238.79 1.544 4.55 4.796 4.611h.123c3.954 0 5.045-3.595 5.273-4.599l-3.987-2.12-6.205 2.108zm4.917 4.938-.127-.001c-3.866-.072-5.134-4.952-5.147-5l-.036-.147 6.627-2.252 4.326 2.302-.024.12c-.49 2.417-2.224 4.978-5.619 4.978z" mask="url(#dr)"/></g><g transform="translate(21.615 31.714)"><mask id="dt" fill="#fff"><use xlink:href="#ds"/></mask><path fill="#5D6162" d="M79.842 21.171s1.207 4.807 4.991 4.878c3.785.07 5.212-3.015 5.584-4.847L86.26 18.99l-6.418 2.181z" mask="url(#dt)"/></g><g transform="translate(21.615 31.714)"><mask id="dv" fill="#fff"><use xlink:href="#du"/></mask><path fill="#505656" d="M80.04 21.275c.239.79 1.544 4.55 4.796 4.611h.124c3.953 0 5.045-3.595 5.273-4.599l-3.987-2.12-6.205 2.108zm4.918 4.938-.128-.001c-3.865-.072-5.133-4.952-5.146-5l-.037-.147 6.627-2.252 4.327 2.302-.024.12c-.49 2.417-2.225 4.978-5.62 4.978z" mask="url(#dv)"/></g><g transform="translate(21.615 31.714)"><mask id="dx" fill="#fff"><use xlink:href="#dw"/></mask><path fill="#5D6162" d="M.525 17.641s1.207 4.807 4.992 4.877c3.785.072 5.211-3.014 5.584-4.846L6.943 15.46.525 17.64z" mask="url(#dx)"/></g><g transform="translate(21.615 31.714)"><mask id="dz" fill="#fff"><use xlink:href="#dy"/></mask><path fill="#505656" d="M.725 17.746c.237.789 1.542 4.55 4.794 4.61l.123.001c3.953 0 5.046-3.596 5.274-4.6l-3.986-2.12-6.205 2.109zm4.915 4.937-.127-.001c-3.864-.073-5.133-4.952-5.145-5l-.037-.147 6.627-2.252 4.327 2.302-.024.119c-.492 2.418-2.227 4.979-5.62 4.979z" mask="url(#dz)"/></g><g transform="translate(21.615 31.714)"><mask id="dB" fill="#fff"><use xlink:href="#dA"/></mask><path fill="#5D6162" d="M11.1 17.641s1.207 4.807 4.992 4.877c3.785.072 5.212-3.014 5.584-4.846L17.52 15.46l-6.418 2.181z" mask="url(#dB)"/></g><g transform="translate(21.615 31.714)"><mask id="dD" fill="#fff"><use xlink:href="#dC"/></mask><path fill="#505656" d="M11.3 17.746c.238.789 1.543 4.55 4.795 4.61l.123.001c3.953 0 5.046-3.596 5.273-4.6l-3.986-2.12-6.205 2.109zm4.916 4.937-.127-.001c-3.865-.073-5.133-4.952-5.146-5l-.036-.147 6.626-2.252 4.327 2.302-.024.119c-.492 2.418-2.227 4.979-5.62 4.979z" mask="url(#dD)"/></g><g transform="translate(21.615 31.714)"><mask id="dF" fill="#fff"><use xlink:href="#dE"/></mask><path fill="#5D6162" d="M21.676 17.641s1.206 4.807 4.991 4.877c3.785.072 5.212-3.014 5.585-4.846l-4.157-2.212-6.419 2.181z" mask="url(#dF)"/></g><g transform="translate(21.615 31.714)"><mask id="dH" fill="#fff"><use xlink:href="#dG"/></mask><path fill="#505656" d="M21.875 17.746c.238.789 1.543 4.55 4.796 4.61l.123.001c3.953 0 5.045-3.596 5.273-4.6l-3.986-2.12-6.206 2.109zm4.917 4.937-.128-.001c-3.864-.073-5.133-4.952-5.146-5l-.036-.147 6.627-2.252 4.326 2.302-.024.119c-.49 2.418-2.224 4.979-5.619 4.979z" mask="url(#dH)"/></g><g transform="translate(21.615 31.714)"><mask id="dJ" fill="#fff"><use xlink:href="#dI"/></mask><path fill="#5D6162" d="M32.252 17.641s1.206 4.807 4.99 4.877c3.786.072 5.213-3.014 5.585-4.846L38.67 15.46l-6.418 2.181z" mask="url(#dJ)"/></g><g transform="translate(21.615 31.714)"><mask id="dL" fill="#fff"><use xlink:href="#dK"/></mask><path fill="#505656" d="M32.45 17.746c.239.789 1.544 4.55 4.796 4.61l.124.001c3.953 0 5.044-3.596 5.272-4.6l-3.986-2.12-6.205 2.109zm4.918 4.937-.128-.001c-3.864-.073-5.134-4.952-5.146-5l-.037-.147 6.628-2.252 4.326 2.302-.024.119c-.49 2.418-2.225 4.979-5.62 4.979z" mask="url(#dL)"/></g><g transform="translate(21.615 31.714)"><mask id="dN" fill="#fff"><use xlink:href="#dM"/></mask><path fill="#5D6162" d="M42.827 17.641s1.207 4.807 4.992 4.877c3.785.072 5.211-3.014 5.584-4.846l-4.158-2.212-6.418 2.181z" mask="url(#dN)"/></g><g transform="translate(21.615 31.714)"><mask id="dP" fill="#fff"><use xlink:href="#dO"/></mask><path fill="#505656" d="M43.026 17.746c.238.789 1.544 4.55 4.796 4.61l.124.001c3.953 0 5.044-3.596 5.271-4.6l-3.985-2.12-6.206 2.109zm4.917 4.937-.127-.001c-3.865-.073-5.134-4.952-5.147-5l-.036-.147 6.627-2.252 4.326 2.302-.023.119c-.49 2.418-2.225 4.979-5.62 4.979z" mask="url(#dP)"/></g><g transform="translate(21.615 31.714)"><mask id="dR" fill="#fff"><use xlink:href="#dQ"/></mask><path fill="#5D6162" d="M53.403 17.641s1.207 4.807 4.991 4.877c3.785.072 5.212-3.014 5.585-4.846L59.82 15.46l-6.418 2.181z" mask="url(#dR)"/></g><g transform="translate(21.615 31.714)"><mask id="dT" fill="#fff"><use xlink:href="#dS"/></mask><path fill="#505656" d="M53.602 17.746c.238.789 1.544 4.55 4.796 4.61l.123.001c3.953 0 5.045-3.596 5.272-4.6l-3.986-2.12-6.205 2.109zm4.917 4.937-.128-.001c-3.864-.073-5.133-4.952-5.146-5l-.037-.147 6.627-2.252 4.327 2.302-.024.119c-.49 2.418-2.225 4.979-5.619 4.979z" mask="url(#dT)"/></g><g transform="translate(21.615 31.714)"><mask id="dV" fill="#fff"><use xlink:href="#dU"/></mask><path fill="#5D6162" d="M63.979 17.641s1.206 4.807 4.991 4.877c3.785.072 5.212-3.014 5.584-4.846l-4.157-2.212-6.418 2.181z" mask="url(#dV)"/></g><g transform="translate(21.615 31.714)"><mask id="dX" fill="#fff"><use xlink:href="#dW"/></mask><path fill="#505656" d="M64.178 17.746c.237.789 1.543 4.55 4.795 4.61l.124.001c3.952 0 5.044-3.596 5.272-4.6l-3.986-2.12-6.205 2.109zm4.917 4.937-.129-.001c-3.864-.073-5.133-4.952-5.145-5l-.037-.147 6.627-2.252 4.327 2.302-.024.119c-.491 2.418-2.225 4.979-5.62 4.979z" mask="url(#dX)"/></g><g transform="translate(21.615 31.714)"><mask id="dZ" fill="#fff"><use xlink:href="#dY"/></mask><path fill="#5D6162" d="M74.554 17.641s1.206 4.807 4.992 4.877c3.785.072 5.211-3.014 5.584-4.846l-4.158-2.212-6.418 2.181z" mask="url(#dZ)"/></g><g transform="translate(21.615 31.714)"><mask id="eb" fill="#fff"><use xlink:href="#ea"/></mask><path fill="#505656" d="M74.753 17.746c.238.789 1.544 4.55 4.796 4.61l.124.001c3.952 0 5.044-3.596 5.271-4.6l-3.986-2.12-6.205 2.109zm4.917 4.937-.128-.001c-3.864-.073-5.133-4.952-5.146-5l-.036-.147 6.627-2.252 4.326 2.302-.024.119c-.49 2.418-2.224 4.979-5.619 4.979z" mask="url(#eb)"/></g><g transform="translate(21.615 31.714)"><mask id="ed" fill="#fff"><use xlink:href="#ec"/></mask><path fill="#5D6162" d="M5.813 14.111s1.206 4.807 4.991 4.878c3.785.07 5.212-3.015 5.585-4.847L12.23 11.93l-6.417 2.18z" mask="url(#ed)"/></g><g transform="translate(21.615 31.714)"><mask id="ef" fill="#fff"><use xlink:href="#ee"/></mask><path fill="#505656" d="M6.012 14.215c.238.79 1.543 4.55 4.796 4.611l.122.002c3.953 0 5.046-3.597 5.274-4.6l-3.987-2.122-6.205 2.11zm4.916 4.938-.127-.001c-3.865-.073-5.133-4.952-5.146-5l-.036-.147 6.627-2.252 4.326 2.302-.024.12c-.492 2.417-2.226 4.978-5.62 4.978z" mask="url(#ef)"/></g><g transform="translate(21.615 31.714)"><mask id="eh" fill="#fff"><use xlink:href="#eg"/></mask><path fill="#5D6162" d="M16.389 14.111s1.206 4.807 4.99 4.878c3.785.07 5.213-3.015 5.585-4.847l-4.157-2.212-6.418 2.181z" mask="url(#eh)"/></g><g transform="translate(21.615 31.714)"><mask id="ej" fill="#fff"><use xlink:href="#ei"/></mask><path fill="#505656" d="M16.588 14.215c.238.79 1.543 4.55 4.795 4.611l.123.002c3.952 0 5.046-3.597 5.274-4.6l-3.987-2.122-6.205 2.11zm4.915 4.938-.126-.001c-3.865-.073-5.133-4.952-5.146-5l-.037-.147 6.627-2.252 4.327 2.302-.024.12c-.492 2.417-2.226 4.978-5.62 4.978z" mask="url(#ej)"/></g><g transform="translate(21.615 31.714)"><mask id="el" fill="#fff"><use xlink:href="#ek"/></mask><path fill="#5D6162" d="M26.964 14.111s1.207 4.807 4.992 4.878c3.784.07 5.211-3.015 5.584-4.847l-4.158-2.212-6.418 2.181z" mask="url(#el)"/></g><g transform="translate(21.615 31.714)"><mask id="en" fill="#fff"><use xlink:href="#em"/></mask><path fill="#505656" d="M27.164 14.215c.237.79 1.542 4.55 4.794 4.611l.124.002c3.953 0 5.045-3.597 5.273-4.6l-3.987-2.122-6.204 2.11zm4.916 4.938-.128-.001c-3.864-.073-5.133-4.952-5.145-5l-.037-.147 6.627-2.252 4.326 2.302-.024.12c-.49 2.417-2.226 4.978-5.62 4.978z" mask="url(#en)"/></g><g transform="translate(21.615 31.714)"><mask id="ep" fill="#fff"><use xlink:href="#eo"/></mask><path fill="#5D6162" d="M37.54 14.111s1.206 4.807 4.991 4.878c3.785.07 5.212-3.015 5.584-4.847l-4.157-2.212-6.418 2.181z" mask="url(#ep)"/></g><g transform="translate(21.615 31.714)"><mask id="er" fill="#fff"><use xlink:href="#eq"/></mask><path fill="#505656" d="M37.738 14.215c.238.79 1.544 4.55 4.796 4.611l.124.002c3.952 0 5.045-3.597 5.272-4.6l-3.986-2.122-6.206 2.11zm4.917 4.938-.127-.001c-3.865-.073-5.134-4.952-5.147-5l-.036-.147 6.627-2.252 4.326 2.302-.023.12c-.49 2.417-2.226 4.978-5.62 4.978z" mask="url(#er)"/></g><g transform="translate(21.615 31.714)"><mask id="et" fill="#fff"><use xlink:href="#es"/></mask><path fill="#5D6162" d="M48.115 14.111s1.206 4.807 4.991 4.878c3.785.07 5.212-3.015 5.585-4.847l-4.158-2.212-6.418 2.181z" mask="url(#et)"/></g><g transform="translate(21.615 31.714)"><mask id="ev" fill="#fff"><use xlink:href="#eu"/></mask><path fill="#505656" d="M48.314 14.215c.238.79 1.544 4.55 4.796 4.611l.123.002c3.953 0 5.045-3.597 5.273-4.6l-3.986-2.122-6.206 2.11zm4.917 4.938-.127-.001c-3.865-.073-5.134-4.952-5.147-5l-.037-.147 6.628-2.252 4.326 2.302-.024.12c-.49 2.417-2.225 4.978-5.619 4.978z" mask="url(#ev)"/></g><g transform="translate(21.615 31.714)"><mask id="ex" fill="#fff"><use xlink:href="#ew"/></mask><path fill="#5D6162" d="M58.691 14.111s1.206 4.807 4.99 4.878c3.786.07 5.213-3.015 5.586-4.847l-4.158-2.212-6.418 2.181z" mask="url(#ex)"/></g><g transform="translate(21.615 31.714)"><mask id="ez" fill="#fff"><use xlink:href="#ey"/></mask><path fill="#505656" d="M58.89 14.215c.237.79 1.543 4.55 4.795 4.611l.124.002c3.952 0 5.044-3.597 5.272-4.6l-3.986-2.122-6.205 2.11zm4.917 4.938-.128-.001c-3.864-.073-5.134-4.952-5.146-5l-.037-.147 6.627-2.252 4.327 2.302-.024.12c-.49 2.417-2.226 4.978-5.62 4.978z" mask="url(#ez)"/></g><g transform="translate(21.615 31.714)"><mask id="eB" fill="#fff"><use xlink:href="#eA"/></mask><path fill="#5D6162" d="M69.267 14.111s1.205 4.807 4.99 4.878c3.785.07 5.213-3.015 5.584-4.847l-4.156-2.212-6.418 2.181z" mask="url(#eB)"/></g><g transform="translate(21.615 31.714)"><mask id="eD" fill="#fff"><use xlink:href="#eC"/></mask><path fill="#505656" d="M69.465 14.215c.238.79 1.544 4.55 4.796 4.611l.123.002c3.953 0 5.045-3.597 5.273-4.6l-3.987-2.122-6.205 2.11zm4.917 4.938-.127-.001c-3.866-.073-5.134-4.952-5.147-5l-.036-.147 6.627-2.252 4.326 2.302-.024.12c-.49 2.417-2.225 4.978-5.619 4.978z" mask="url(#eD)"/></g><g transform="translate(21.615 31.714)"><mask id="eF" fill="#fff"><use xlink:href="#eE"/></mask><path fill="#5D6162" d="M79.842 14.111s1.207 4.807 4.991 4.878c3.785.07 5.212-3.015 5.584-4.847L86.26 11.93l-6.418 2.181z" mask="url(#eF)"/></g><g transform="translate(21.615 31.714)"><mask id="eH" fill="#fff"><use xlink:href="#eG"/></mask><path fill="#505656" d="M80.04 14.215c.239.79 1.544 4.55 4.796 4.611l.124.002c3.953 0 5.045-3.597 5.273-4.6l-3.987-2.122-6.205 2.11zm4.918 4.938-.128-.001c-3.865-.073-5.133-4.952-5.146-5l-.037-.147 6.627-2.252 4.327 2.302-.024.12c-.49 2.417-2.226 4.978-5.62 4.978z" mask="url(#eH)"/></g><g transform="translate(21.615 31.714)"><mask id="eJ" fill="#fff"><use xlink:href="#eI"/></mask><path fill="#5D6162" d="M.525 10.581s1.207 4.807 4.992 4.878c3.785.07 5.211-3.015 5.584-4.847L6.943 8.4.525 10.581z" mask="url(#eJ)"/></g><g transform="translate(21.615 31.714)"><mask id="eL" fill="#fff"><use xlink:href="#eK"/></mask><path fill="#505656" d="M.725 10.686c.237.789 1.542 4.55 4.794 4.61 4.07.087 5.167-3.584 5.397-4.598L6.93 8.576l-6.205 2.11zm4.915 4.937-.127-.002C1.65 15.55.38 10.67.368 10.621l-.037-.146 6.627-2.252 4.327 2.302-.024.119c-.492 2.418-2.227 4.979-5.62 4.979z" mask="url(#eL)"/></g><g transform="translate(21.615 31.714)"><mask id="eN" fill="#fff"><use xlink:href="#eM"/></mask><path fill="#5D6162" d="M11.1 10.581s1.207 4.807 4.992 4.878c3.785.07 5.212-3.015 5.584-4.847L17.52 8.4l-6.418 2.181z" mask="url(#eN)"/></g><g transform="translate(21.615 31.714)"><mask id="eP" fill="#fff"><use xlink:href="#eO"/></mask><path fill="#505656" d="M11.3 10.686c.238.789 1.543 4.55 4.795 4.61 4.07.087 5.167-3.584 5.396-4.598l-3.986-2.122-6.205 2.11zm4.916 4.937-.127-.002c-3.865-.072-5.133-4.951-5.146-5l-.036-.146 6.626-2.252 4.327 2.302-.024.119c-.492 2.418-2.227 4.979-5.62 4.979z" mask="url(#eP)"/></g><g transform="translate(21.615 31.714)"><mask id="eR" fill="#fff"><use xlink:href="#eQ"/></mask><path fill="#5D6162" d="M21.676 10.581s1.206 4.807 4.991 4.878c3.785.07 5.212-3.015 5.585-4.847L28.095 8.4l-6.419 2.181z" mask="url(#eR)"/></g><g transform="translate(21.615 31.714)"><mask id="eT" fill="#fff"><use xlink:href="#eS"/></mask><path fill="#505656" d="M21.875 10.686c.238.789 1.543 4.55 4.796 4.61l.123.001c3.953 0 5.045-3.596 5.273-4.6l-3.986-2.12-6.206 2.109zm4.917 4.937-.128-.002c-3.864-.072-5.133-4.951-5.146-5l-.036-.146 6.627-2.252 4.326 2.302-.024.119c-.49 2.418-2.225 4.979-5.619 4.979z" mask="url(#eT)"/></g><g transform="translate(21.615 31.714)"><mask id="eV" fill="#fff"><use xlink:href="#eU"/></mask><path fill="#5D6162" d="M32.252 10.581s1.206 4.807 4.99 4.878c3.786.07 5.213-3.015 5.585-4.847L38.67 8.4l-6.418 2.181z" mask="url(#eV)"/></g><g transform="translate(21.615 31.714)"><mask id="eX" fill="#fff"><use xlink:href="#eW"/></mask><path fill="#505656" d="M32.45 10.686c.239.789 1.544 4.55 4.796 4.61l.124.001c3.953 0 5.044-3.596 5.272-4.6l-3.986-2.12-6.205 2.109zm4.918 4.937-.128-.002c-3.864-.072-5.134-4.951-5.146-5l-.037-.146 6.628-2.252 4.326 2.302-.024.119c-.49 2.418-2.226 4.979-5.62 4.979z" mask="url(#eX)"/></g><g transform="translate(21.615 31.714)"><mask id="eZ" fill="#fff"><use xlink:href="#eY"/></mask><path fill="#5D6162" d="M42.827 10.581s1.207 4.807 4.992 4.878c3.785.07 5.211-3.015 5.584-4.847L49.245 8.4l-6.418 2.181z" mask="url(#eZ)"/></g><g transform="translate(21.615 31.714)"><mask id="fb" fill="#fff"><use xlink:href="#fa"/></mask><path fill="#505656" d="M43.026 10.686c.238.789 1.544 4.55 4.796 4.61l.124.001c3.952 0 5.044-3.596 5.271-4.6l-3.985-2.12-6.206 2.109zm4.917 4.937-.127-.002c-3.865-.072-5.134-4.951-5.147-5l-.036-.146 6.627-2.252 4.326 2.302-.023.119c-.49 2.418-2.226 4.979-5.62 4.979z" mask="url(#fb)"/></g><g transform="translate(21.615 31.714)"><mask id="fd" fill="#fff"><use xlink:href="#fc"/></mask><path fill="#5D6162" d="M53.403 10.581s1.207 4.807 4.991 4.878c3.785.07 5.212-3.015 5.585-4.847L59.82 8.4l-6.418 2.181z" mask="url(#fd)"/></g><g transform="translate(21.615 31.714)"><mask id="ff" fill="#fff"><use xlink:href="#fe"/></mask><path fill="#505656" d="M53.602 10.686c.238.789 1.544 4.55 4.796 4.61l.123.001c3.953 0 5.045-3.596 5.272-4.6l-3.986-2.12-6.205 2.109zm4.917 4.937-.128-.002c-3.864-.072-5.133-4.951-5.146-5l-.037-.146 6.627-2.252 4.327 2.302-.024.119c-.49 2.418-2.225 4.979-5.619 4.979z" mask="url(#ff)"/></g><g transform="translate(21.615 31.714)"><mask id="fh" fill="#fff"><use xlink:href="#fg"/></mask><path fill="#5D6162" d="M63.979 10.581s1.206 4.807 4.991 4.878c3.785.07 5.212-3.015 5.584-4.847L70.397 8.4l-6.418 2.181z" mask="url(#fh)"/></g><g transform="translate(21.615 31.714)"><mask id="fj" fill="#fff"><use xlink:href="#fi"/></mask><path fill="#505656" d="M64.178 10.686c.237.789 1.543 4.55 4.795 4.61l.124.001c3.952 0 5.044-3.596 5.272-4.6l-3.986-2.12-6.205 2.109zm4.917 4.937-.129-.002c-3.864-.072-5.133-4.951-5.145-5l-.037-.146 6.627-2.252 4.327 2.302-.024.119c-.491 2.418-2.226 4.979-5.62 4.979z" mask="url(#fj)"/></g><g transform="translate(21.615 31.714)"><mask id="fl" fill="#fff"><use xlink:href="#fk"/></mask><path fill="#5D6162" d="M74.554 10.581s1.206 4.807 4.992 4.878c3.785.07 5.211-3.015 5.584-4.847L80.972 8.4l-6.418 2.181z" mask="url(#fl)"/></g><g transform="translate(21.615 31.714)"><mask id="fn" fill="#fff"><use xlink:href="#fm"/></mask><path fill="#505656" d="M74.753 10.686c.238.789 1.544 4.55 4.796 4.61l.124.001c3.952 0 5.044-3.596 5.271-4.6l-3.986-2.12-6.205 2.109zm4.917 4.937-.128-.002c-3.864-.072-5.133-4.951-5.146-5l-.036-.146 6.627-2.252 4.326 2.302-.024.119c-.49 2.418-2.225 4.979-5.619 4.979z" mask="url(#fn)"/></g><g transform="translate(21.615 31.714)"><mask id="fp" fill="#fff"><use xlink:href="#fo"/></mask><path fill="#5D6162" d="M5.813 7.051s1.206 4.807 4.991 4.878c3.785.07 5.212-3.015 5.585-4.847L12.23 4.87 5.813 7.05z" mask="url(#fp)"/></g><g transform="translate(21.615 31.714)"><mask id="fr" fill="#fff"><use xlink:href="#fq"/></mask><path fill="#505656" d="M6.012 7.155c.238.79 1.543 4.55 4.796 4.611 4.053.092 5.166-3.585 5.396-4.599l-3.987-2.12-6.205 2.108zm4.916 4.938-.127-.001c-3.865-.073-5.133-4.952-5.146-5l-.036-.147 6.627-2.252 4.326 2.302-.024.119c-.492 2.418-2.226 4.98-5.62 4.98z" mask="url(#fr)"/></g><g transform="translate(21.615 31.714)"><mask id="ft" fill="#fff"><use xlink:href="#fs"/></mask><path fill="#5D6162" d="M16.389 7.051s1.206 4.807 4.99 4.878c3.785.07 5.213-3.015 5.585-4.847L22.807 4.87l-6.418 2.18z" mask="url(#ft)"/></g><g transform="translate(21.615 31.714)"><mask id="fv" fill="#fff"><use xlink:href="#fu"/></mask><path fill="#505656" d="M16.588 7.155c.238.79 1.543 4.55 4.795 4.611l.123.002c3.952 0 5.046-3.597 5.274-4.6l-3.987-2.121-6.205 2.108zm4.915 4.938-.126-.001c-3.865-.073-5.133-4.952-5.146-5l-.037-.147 6.627-2.252 4.327 2.302-.024.119c-.492 2.418-2.226 4.98-5.62 4.98z" mask="url(#fv)"/></g><g transform="translate(21.615 31.714)"><mask id="fx" fill="#fff"><use xlink:href="#fw"/></mask><path fill="#5D6162" d="M26.964 7.051s1.207 4.807 4.992 4.878c3.784.07 5.211-3.015 5.584-4.847L33.382 4.87l-6.418 2.18z" mask="url(#fx)"/></g><g transform="translate(21.615 31.714)"><mask id="fz" fill="#fff"><use xlink:href="#fy"/></mask><path fill="#505656" d="M27.164 7.155c.237.79 1.542 4.55 4.794 4.611l.124.002c3.953 0 5.045-3.597 5.273-4.6l-3.987-2.121-6.204 2.108zm4.916 4.938-.128-.001c-3.864-.073-5.133-4.952-5.145-5l-.037-.147 6.627-2.252 4.326 2.302-.024.119c-.49 2.418-2.226 4.98-5.62 4.98z" mask="url(#fz)"/></g><g transform="translate(21.615 31.714)"><mask id="fB" fill="#fff"><use xlink:href="#fA"/></mask><path fill="#5D6162" d="M37.54 7.051s1.206 4.807 4.991 4.878c3.785.07 5.212-3.015 5.584-4.847L43.958 4.87 37.54 7.05z" mask="url(#fB)"/></g><g transform="translate(21.615 31.714)"><mask id="fD" fill="#fff"><use xlink:href="#fC"/></mask><path fill="#505656" d="M37.738 7.155c.238.79 1.544 4.55 4.796 4.611l.124.002c3.952 0 5.045-3.597 5.272-4.6l-3.986-2.121-6.206 2.108zm4.917 4.938-.127-.001c-3.865-.073-5.134-4.952-5.147-5l-.036-.147 6.627-2.252 4.326 2.302-.023.119c-.49 2.418-2.226 4.98-5.62 4.98z" mask="url(#fD)"/></g><g transform="translate(21.615 31.714)"><mask id="fF" fill="#fff"><use xlink:href="#fE"/></mask><path fill="#5D6162" d="M48.115 7.051s1.206 4.807 4.991 4.878c3.785.07 5.212-3.015 5.585-4.847L54.533 4.87l-6.418 2.18z" mask="url(#fF)"/></g><g transform="translate(21.615 31.714)"><mask id="fH" fill="#fff"><use xlink:href="#fG"/></mask><path fill="#505656" d="M48.314 7.155c.238.79 1.544 4.55 4.796 4.611l.123.002c3.953 0 5.045-3.597 5.273-4.6L54.52 5.046l-6.206 2.108zm4.917 4.938-.127-.001c-3.865-.073-5.134-4.952-5.147-5l-.037-.147 6.628-2.252 4.326 2.302-.024.119c-.49 2.418-2.225 4.98-5.619 4.98z" mask="url(#fH)"/></g><g transform="translate(21.615 31.714)"><mask id="fJ" fill="#fff"><use xlink:href="#fI"/></mask><path fill="#5D6162" d="M58.691 7.051s1.206 4.807 4.99 4.878c3.786.07 5.213-3.015 5.586-4.847L65.109 4.87l-6.418 2.18z" mask="url(#fJ)"/></g><g transform="translate(21.615 31.714)"><mask id="fL" fill="#fff"><use xlink:href="#fK"/></mask><path fill="#505656" d="M58.89 7.155c.237.79 1.543 4.55 4.795 4.611l.124.002c3.952 0 5.044-3.597 5.272-4.6l-3.986-2.121-6.205 2.108zm4.917 4.938-.128-.001c-3.864-.073-5.134-4.952-5.146-5l-.037-.147 6.627-2.252 4.327 2.302-.024.119c-.49 2.418-2.226 4.98-5.62 4.98z" mask="url(#fL)"/></g><g transform="translate(21.615 31.714)"><mask id="fN" fill="#fff"><use xlink:href="#fM"/></mask><path fill="#5D6162" d="M69.267 7.051s1.205 4.807 4.99 4.878c3.785.07 5.213-3.015 5.584-4.847L75.685 4.87l-6.418 2.18z" mask="url(#fN)"/></g><g transform="translate(21.615 31.714)"><mask id="fP" fill="#fff"><use xlink:href="#fO"/></mask><path fill="#505656" d="M69.465 7.155c.238.79 1.544 4.55 4.796 4.611l.123.002c3.953 0 5.045-3.597 5.273-4.6L75.67 5.046l-6.205 2.108zm4.917 4.938-.127-.001c-3.866-.073-5.134-4.952-5.147-5l-.036-.147 6.627-2.252 4.326 2.302-.024.119c-.49 2.418-2.225 4.98-5.619 4.98z" mask="url(#fP)"/></g><g transform="translate(21.615 31.714)"><mask id="fR" fill="#fff"><use xlink:href="#fQ"/></mask><path fill="#5D6162" d="M79.842 7.051s1.207 4.807 4.991 4.878c3.785.07 5.212-3.015 5.584-4.847L86.26 4.87l-6.418 2.18z" mask="url(#fR)"/></g><g transform="translate(21.615 31.714)"><mask id="fT" fill="#fff"><use xlink:href="#fS"/></mask><path fill="#505656" d="M80.04 7.155c.239.79 1.544 4.55 4.796 4.611l.124.002c3.953 0 5.045-3.597 5.273-4.6l-3.987-2.121-6.205 2.108zm4.918 4.938-.128-.001c-3.865-.073-5.133-4.952-5.146-5l-.037-.147 6.627-2.252 4.327 2.302-.024.119c-.49 2.418-2.226 4.98-5.62 4.98z" mask="url(#fT)"/></g><g transform="translate(21.615 31.714)"><mask id="fV" fill="#fff"><use xlink:href="#fU"/></mask><path fill="#5D6162" d="M.525 3.521S1.732 8.328 5.517 8.4c3.785.07 5.211-3.015 5.584-4.847L6.943 1.34.525 3.521z" mask="url(#fV)"/></g><g transform="translate(21.615 31.714)"><mask id="fX" fill="#fff"><use xlink:href="#fW"/></mask><path fill="#505656" d="M.725 3.626c.237.789 1.542 4.55 4.794 4.61l.123.001c3.953 0 5.046-3.596 5.274-4.6L6.93 1.517.725 3.625zM5.64 8.563l-.127-.002C1.65 8.49.38 3.61.368 3.561L.33 3.415l6.627-2.252 4.327 2.302-.024.119c-.492 2.418-2.227 4.979-5.62 4.979z" mask="url(#fX)"/></g><g transform="translate(21.615 31.714)"><mask id="fZ" fill="#fff"><use xlink:href="#fY"/></mask><path fill="#5D6162" d="M11.1 3.521s1.207 4.807 4.992 4.878c3.785.07 5.212-3.015 5.584-4.847L17.52 1.34l-6.418 2.181z" mask="url(#fZ)"/></g><g transform="translate(21.615 31.714)"><mask id="gb" fill="#fff"><use xlink:href="#ga"/></mask><path fill="#505656" d="M11.3 3.626c.238.789 1.543 4.55 4.795 4.61l.123.001c3.953 0 5.046-3.596 5.273-4.6l-3.986-2.12L11.3 3.625zm4.916 4.937-.127-.002c-3.865-.072-5.133-4.951-5.146-5l-.036-.146 6.626-2.252 4.327 2.302-.024.119c-.492 2.418-2.227 4.979-5.62 4.979z" mask="url(#gb)"/></g><g transform="translate(21.615 31.714)"><mask id="gd" fill="#fff"><use xlink:href="#gc"/></mask><path fill="#5D6162" d="M21.676 3.521s1.206 4.807 4.991 4.878c3.785.07 5.212-3.015 5.585-4.847L28.095 1.34l-6.419 2.181z" mask="url(#gd)"/></g><g transform="translate(21.615 31.714)"><mask id="gf" fill="#fff"><use xlink:href="#ge"/></mask><path fill="#505656" d="M21.875 3.626c.238.789 1.543 4.55 4.796 4.61l.123.001c3.953 0 5.045-3.596 5.273-4.6l-3.986-2.12-6.206 2.109zm4.917 4.937-.128-.002c-3.864-.072-5.133-4.951-5.146-5l-.036-.146 6.627-2.252 4.326 2.302-.024.119c-.49 2.418-2.225 4.979-5.619 4.979z" mask="url(#gf)"/></g><g transform="translate(21.615 31.714)"><mask id="gh" fill="#fff"><use xlink:href="#gg"/></mask><path fill="#5D6162" d="M32.252 3.521s1.206 4.807 4.99 4.878c3.786.07 5.213-3.015 5.585-4.847L38.67 1.34l-6.418 2.181z" mask="url(#gh)"/></g><g transform="translate(21.615 31.714)"><mask id="gj" fill="#fff"><use xlink:href="#gi"/></mask><path fill="#505656" d="M32.45 3.626c.239.789 1.544 4.55 4.796 4.61l.124.001c3.953 0 5.044-3.596 5.272-4.6l-3.986-2.12-6.205 2.109zm4.918 4.937-.128-.002c-3.864-.072-5.134-4.951-5.146-5l-.037-.146 6.628-2.252 4.326 2.302-.024.119c-.49 2.418-2.226 4.979-5.62 4.979z" mask="url(#gj)"/></g><g transform="translate(21.615 31.714)"><mask id="gl" fill="#fff"><use xlink:href="#gk"/></mask><path fill="#5D6162" d="M42.827 3.521S44.034 8.328 47.82 8.4c3.785.07 5.211-3.015 5.584-4.847L49.245 1.34l-6.418 2.181z" mask="url(#gl)"/></g><g transform="translate(21.615 31.714)"><mask id="gn" fill="#fff"><use xlink:href="#gm"/></mask><path fill="#505656" d="M43.026 3.626c.238.789 1.544 4.55 4.796 4.61l.124.001c3.952 0 5.044-3.596 5.271-4.6l-3.985-2.12-6.206 2.109zm4.917 4.937-.127-.002c-3.865-.072-5.134-4.951-5.147-5l-.036-.146 6.627-2.252 4.326 2.302-.023.119c-.49 2.418-2.226 4.979-5.62 4.979z" mask="url(#gn)"/></g><g transform="translate(21.615 31.714)"><mask id="gp" fill="#fff"><use xlink:href="#go"/></mask><path fill="#5D6162" d="M53.403 3.521S54.61 8.328 58.394 8.4c3.785.07 5.212-3.015 5.585-4.847L59.82 1.34l-6.418 2.181z" mask="url(#gp)"/></g><g transform="translate(21.615 31.714)"><mask id="gr" fill="#fff"><use xlink:href="#gq"/></mask><path fill="#505656" d="M53.602 3.626c.238.789 1.544 4.55 4.796 4.61l.123.001c3.953 0 5.045-3.596 5.272-4.6l-3.986-2.12-6.205 2.109zm4.917 4.937-.128-.002c-3.864-.072-5.133-4.951-5.146-5l-.037-.146 6.627-2.252 4.327 2.302-.024.119c-.49 2.418-2.225 4.979-5.619 4.979z" mask="url(#gr)"/></g><g transform="translate(21.615 31.714)"><mask id="gt" fill="#fff"><use xlink:href="#gs"/></mask><path fill="#5D6162" d="M63.979 3.521S65.185 8.328 68.97 8.4c3.785.07 5.212-3.015 5.584-4.847L70.397 1.34l-6.418 2.181z" mask="url(#gt)"/></g><g transform="translate(21.615 31.714)"><mask id="gv" fill="#fff"><use xlink:href="#gu"/></mask><path fill="#505656" d="M64.178 3.626c.237.789 1.543 4.55 4.795 4.61l.124.001c3.952 0 5.044-3.596 5.272-4.6l-3.986-2.12-6.205 2.109zm4.917 4.937-.129-.002c-3.864-.072-5.133-4.951-5.145-5l-.037-.146 6.627-2.252 4.327 2.302-.024.119c-.491 2.418-2.226 4.979-5.62 4.979z" mask="url(#gv)"/></g><g transform="translate(21.615 31.714)"><mask id="gx" fill="#fff"><use xlink:href="#gw"/></mask><path fill="#5D6162" d="M74.554 3.521S75.76 8.328 79.546 8.4c3.785.07 5.211-3.015 5.584-4.847L80.972 1.34l-6.418 2.181z" mask="url(#gx)"/></g><g transform="translate(21.615 31.714)"><mask id="gz" fill="#fff"><use xlink:href="#gy"/></mask><path fill="#505656" d="M74.753 3.626c.238.789 1.544 4.55 4.796 4.61l.124.001c3.952 0 5.044-3.596 5.271-4.6l-3.986-2.12-6.205 2.109zm4.917 4.937-.128-.002c-3.864-.072-5.133-4.951-5.146-5l-.036-.146 6.627-2.252 4.326 2.302-.024.119c-.49 2.418-2.225 4.979-5.619 4.979z" mask="url(#gz)"/></g><g transform="translate(21.615 31.714)"><mask id="gB" fill="#fff"><use xlink:href="#gA"/></mask><path fill="#5D6162" d="M5.813-.009S7.02 4.798 10.804 4.87c3.785.07 5.212-3.015 5.585-4.847L12.23-2.19 5.813-.01z" mask="url(#gB)"/></g><g transform="translate(21.615 31.714)"><mask id="gD" fill="#fff"><use xlink:href="#gC"/></mask><path fill="#505656" d="M6.012.095c.238.79 1.543 4.55 4.796 4.611h.122c3.953 0 5.046-3.595 5.274-4.599l-3.987-2.12L6.012.095zm4.916 4.938-.127-.001C6.936 4.96 5.668.08 5.655.032L5.62-.116l6.627-2.251 4.326 2.301-.024.119c-.492 2.418-2.226 4.98-5.62 4.98z" mask="url(#gD)"/></g><g transform="translate(21.615 31.714)"><mask id="gF" fill="#fff"><use xlink:href="#gE"/></mask><path fill="#5D6162" d="M16.389-.009s1.206 4.807 4.99 4.878c3.785.07 5.213-3.015 5.585-4.847L22.807-2.19 16.389-.01z" mask="url(#gF)"/></g><g transform="translate(21.615 31.714)"><mask id="gH" fill="#fff"><use xlink:href="#gG"/></mask><path fill="#505656" d="M16.588.095c.238.79 1.543 4.55 4.795 4.611h.123c3.952 0 5.046-3.595 5.274-4.599l-3.987-2.12L16.588.095zm4.915 4.938-.126-.001c-3.865-.072-5.133-4.952-5.146-5l-.037-.147 6.627-2.251 4.327 2.301-.024.119c-.492 2.418-2.226 4.98-5.62 4.98z" mask="url(#gH)"/></g><g transform="translate(21.615 31.714)"><mask id="gJ" fill="#fff"><use xlink:href="#gI"/></mask><path fill="#5D6162" d="M26.964-.009s1.207 4.807 4.992 4.878c3.784.07 5.211-3.015 5.584-4.847L33.382-2.19 26.964-.01z" mask="url(#gJ)"/></g><g transform="translate(21.615 31.714)"><mask id="gL" fill="#fff"><use xlink:href="#gK"/></mask><path fill="#505656" d="M27.164.095c.237.79 1.542 4.55 4.794 4.611h.124c3.953 0 5.045-3.595 5.273-4.599l-3.987-2.12L27.164.095zm4.916 4.938-.128-.001c-3.864-.072-5.133-4.952-5.145-5l-.037-.147 6.627-2.251 4.326 2.301-.024.119c-.49 2.418-2.226 4.98-5.62 4.98z" mask="url(#gL)"/></g><g transform="translate(21.615 31.714)"><mask id="gN" fill="#fff"><use xlink:href="#gM"/></mask><path fill="#5D6162" d="M37.54-.009s1.206 4.807 4.991 4.878c3.785.07 5.212-3.015 5.584-4.847L43.958-2.19 37.54-.01z" mask="url(#gN)"/></g><g transform="translate(21.615 31.714)"><mask id="gP" fill="#fff"><use xlink:href="#gO"/></mask><path fill="#505656" d="M37.738.095c.238.79 1.544 4.55 4.796 4.611h.124c3.952 0 5.045-3.595 5.272-4.599l-3.986-2.12L37.738.095zm4.917 4.938-.127-.001c-3.865-.072-5.134-4.952-5.147-5l-.036-.147 6.627-2.251 4.326 2.301-.023.119c-.49 2.418-2.226 4.98-5.62 4.98z" mask="url(#gP)"/></g><g transform="translate(21.615 31.714)"><mask id="gR" fill="#fff"><use xlink:href="#gQ"/></mask><path fill="#5D6162" d="M48.115-.009s1.206 4.807 4.991 4.878c3.785.07 5.212-3.015 5.585-4.847L54.533-2.19 48.115-.01z" mask="url(#gR)"/></g><g transform="translate(21.615 31.714)"><mask id="gT" fill="#fff"><use xlink:href="#gS"/></mask><path fill="#505656" d="M48.314.095c.238.79 1.544 4.55 4.796 4.611h.123c3.953 0 5.045-3.595 5.273-4.599l-3.986-2.12L48.314.095zm4.917 4.938-.127-.001c-3.865-.072-5.134-4.952-5.147-5l-.037-.147 6.628-2.251 4.326 2.301-.024.119c-.49 2.418-2.225 4.98-5.619 4.98z" mask="url(#gT)"/></g><g transform="translate(21.615 31.714)"><mask id="gV" fill="#fff"><use xlink:href="#gU"/></mask><path fill="#5D6162" d="M58.691-.009s1.206 4.807 4.99 4.878c3.786.07 5.213-3.015 5.586-4.847L65.109-2.19 58.691-.01z" mask="url(#gV)"/></g><g transform="translate(21.615 31.714)"><mask id="gX" fill="#fff"><use xlink:href="#gW"/></mask><path fill="#505656" d="M58.89.095c.237.79 1.543 4.55 4.795 4.611h.124c3.952 0 5.044-3.595 5.272-4.599l-3.986-2.12L58.89.095zm4.917 4.938-.128-.001c-3.864-.072-5.134-4.952-5.146-5l-.037-.147 6.627-2.251L69.45-.065l-.024.119c-.49 2.418-2.226 4.98-5.62 4.98z" mask="url(#gX)"/></g><g transform="translate(21.615 31.714)"><mask id="gZ" fill="#fff"><use xlink:href="#gY"/></mask><path fill="#5D6162" d="M69.267-.009s1.205 4.807 4.99 4.878c3.785.07 5.213-3.015 5.584-4.847L75.685-2.19 69.267-.01z" mask="url(#gZ)"/></g><g transform="translate(21.615 31.714)"><mask id="hb" fill="#fff"><use xlink:href="#ha"/></mask><path fill="#505656" d="M69.465.095c.238.79 1.544 4.55 4.796 4.611h.123c3.953 0 5.045-3.595 5.273-4.599l-3.987-2.12L69.465.095zm4.917 4.938-.127-.001c-3.866-.072-5.134-4.952-5.147-5l-.036-.147 6.627-2.251 4.326 2.301-.024.119c-.49 2.418-2.225 4.98-5.619 4.98z" mask="url(#hb)"/></g><g transform="translate(21.615 31.714)"><mask id="hd" fill="#fff"><use xlink:href="#hc"/></mask><path fill="#5D6162" d="M79.842-.009s1.207 4.807 4.991 4.878c3.785.07 5.212-3.015 5.584-4.847L86.26-2.19 79.842-.01z" mask="url(#hd)"/></g><g transform="translate(21.615 31.714)"><mask id="hf" fill="#fff"><use xlink:href="#he"/></mask><path fill="#505656" d="M80.04.095c.239.79 1.544 4.55 4.796 4.611h.124c3.953 0 5.045-3.595 5.273-4.599l-3.987-2.12L80.04.095zm4.918 4.938-.128-.001c-3.865-.072-5.133-4.952-5.146-5l-.037-.147 6.627-2.251 4.327 2.301-.024.119c-.49 2.418-2.226 4.98-5.62 4.98z" mask="url(#hf)"/></g><g transform="translate(21.615 31.714)"><mask id="hh" fill="#fff"><use xlink:href="#hg"/></mask><path fill="#5D6162" d="M.525-3.539S1.732 1.268 5.517 1.34c3.785.07 5.211-3.015 5.584-4.847L6.943-5.72.525-3.539z" mask="url(#hh)"/></g><g transform="translate(21.615 31.714)"><mask id="hj" fill="#fff"><use xlink:href="#hi"/></mask><path fill="#505656" d="M.725-3.434c.237.789 1.542 4.55 4.794 4.61l.123.001c3.953 0 5.046-3.596 5.274-4.6L6.93-5.543.725-3.435zM5.64 1.503 5.513 1.5C1.65 1.43.38-3.45.368-3.499L.33-3.645l6.627-2.252 4.327 2.302-.024.119c-.492 2.418-2.227 4.979-5.62 4.979z" mask="url(#hj)"/></g><g transform="translate(21.615 31.714)"><mask id="hl" fill="#fff"><use xlink:href="#hk"/></mask><path fill="#5D6162" d="M11.1-3.539s1.207 4.807 4.992 4.878c3.785.07 5.212-3.015 5.584-4.847L17.52-5.72l-6.418 2.181z" mask="url(#hl)"/></g><g transform="translate(21.615 31.714)"><mask id="hn" fill="#fff"><use xlink:href="#hm"/></mask><path fill="#505656" d="M11.3-3.434c.238.789 1.543 4.55 4.795 4.61l.123.001c3.953 0 5.046-3.596 5.273-4.6l-3.986-2.12L11.3-3.435zm4.916 4.937-.127-.002c-3.865-.072-5.133-4.951-5.146-5l-.036-.146 6.626-2.252 4.327 2.302-.024.119c-.492 2.418-2.227 4.979-5.62 4.979z" mask="url(#hn)"/></g><g transform="translate(21.615 31.714)"><mask id="hp" fill="#fff"><use xlink:href="#ho"/></mask><path fill="#5D6162" d="M21.676-3.539s1.206 4.807 4.991 4.878c3.785.07 5.212-3.015 5.585-4.847L28.095-5.72l-6.419 2.181z" mask="url(#hp)"/></g><g transform="translate(21.615 31.714)"><mask id="hr" fill="#fff"><use xlink:href="#hq"/></mask><path fill="#505656" d="M21.875-3.434c.238.789 1.543 4.55 4.796 4.61l.123.001c3.953 0 5.045-3.596 5.273-4.6l-3.986-2.12-6.206 2.109zm4.917 4.937-.128-.002c-3.864-.072-5.133-4.951-5.146-5l-.036-.146 6.627-2.252 4.326 2.302-.024.119c-.49 2.418-2.225 4.979-5.619 4.979z" mask="url(#hr)"/></g><g transform="translate(21.615 31.714)"><mask id="ht" fill="#fff"><use xlink:href="#hs"/></mask><path fill="#5D6162" d="M32.252-3.539s1.206 4.807 4.99 4.878c3.786.07 5.213-3.015 5.585-4.847L38.67-5.72l-6.418 2.181z" mask="url(#ht)"/></g><g transform="translate(21.615 31.714)"><mask id="hv" fill="#fff"><use xlink:href="#hu"/></mask><path fill="#505656" d="M32.45-3.434c.239.789 1.544 4.55 4.796 4.61l.124.001c3.953 0 5.044-3.596 5.272-4.6l-3.986-2.12-6.205 2.109zm4.918 4.937L37.24 1.5c-3.864-.072-5.134-4.951-5.146-5l-.037-.146 6.628-2.252 4.326 2.302-.024.119c-.49 2.418-2.226 4.979-5.62 4.979z" mask="url(#hv)"/></g><g transform="translate(21.615 31.714)"><mask id="hx" fill="#fff"><use xlink:href="#hw"/></mask><path fill="#5D6162" d="M42.827-3.539s1.207 4.807 4.992 4.878c3.785.07 5.211-3.015 5.584-4.847L49.245-5.72l-6.418 2.181z" mask="url(#hx)"/></g><g transform="translate(21.615 31.714)"><mask id="hz" fill="#fff"><use xlink:href="#hy"/></mask><path fill="#505656" d="M43.026-3.434c.238.789 1.544 4.55 4.796 4.61l.124.001c3.952 0 5.044-3.596 5.271-4.6l-3.985-2.12-6.206 2.109zm4.917 4.937-.127-.002c-3.865-.072-5.134-4.951-5.147-5l-.036-.146 6.627-2.252 4.326 2.302-.023.119c-.49 2.418-2.226 4.979-5.62 4.979z" mask="url(#hz)"/></g><g transform="translate(21.615 31.714)"><mask id="hB" fill="#fff"><use xlink:href="#hA"/></mask><path fill="#5D6162" d="M53.403-3.539s1.207 4.807 4.991 4.878c3.785.07 5.212-3.015 5.585-4.847L59.82-5.72l-6.418 2.181z" mask="url(#hB)"/></g><g transform="translate(21.615 31.714)"><mask id="hD" fill="#fff"><use xlink:href="#hC"/></mask><path fill="#505656" d="M53.602-3.434c.238.789 1.544 4.55 4.796 4.61l.123.001c3.953 0 5.045-3.596 5.272-4.6l-3.986-2.12-6.205 2.109zm4.917 4.937-.128-.002c-3.864-.072-5.133-4.951-5.146-5l-.037-.146 6.627-2.252 4.327 2.302-.024.119c-.49 2.418-2.225 4.979-5.619 4.979z" mask="url(#hD)"/></g><g transform="translate(21.615 31.714)"><mask id="hF" fill="#fff"><use xlink:href="#hE"/></mask><path fill="#5D6162" d="M63.979-3.539s1.206 4.807 4.991 4.878c3.785.07 5.212-3.015 5.584-4.847L70.397-5.72l-6.418 2.181z" mask="url(#hF)"/></g><g transform="translate(21.615 31.714)"><mask id="hH" fill="#fff"><use xlink:href="#hG"/></mask><path fill="#505656" d="M64.178-3.434c.237.789 1.543 4.55 4.795 4.61l.124.001c3.952 0 5.044-3.596 5.272-4.6l-3.986-2.12-6.205 2.109zm4.917 4.937-.129-.002c-3.864-.072-5.133-4.951-5.145-5l-.037-.146 6.627-2.252 4.327 2.302-.024.119c-.491 2.418-2.226 4.979-5.62 4.979z" mask="url(#hH)"/></g><g transform="translate(21.615 31.714)"><mask id="hJ" fill="#fff"><use xlink:href="#hI"/></mask><path fill="#5D6162" d="M74.554-3.539s1.206 4.807 4.992 4.878c3.785.07 5.211-3.015 5.584-4.847L80.972-5.72l-6.418 2.181z" mask="url(#hJ)"/></g><g transform="translate(21.615 31.714)"><mask id="hL" fill="#fff"><use xlink:href="#hK"/></mask><path fill="#505656" d="M74.753-3.434c.238.789 1.544 4.55 4.796 4.61l.124.001c3.952 0 5.044-3.596 5.271-4.6l-3.986-2.12-6.205 2.109zm4.917 4.937-.128-.002c-3.864-.072-5.133-4.951-5.146-5l-.036-.146 6.627-2.252 4.326 2.302-.024.119c-.49 2.418-2.225 4.979-5.619 4.979z" mask="url(#hL)"/></g><g transform="translate(0 19.043)"><path fill="#F89655" d="M42.21 80.497H14.826V40.464L28.518 26.91 42.21 42.336z"/><path fill="#4A4B4D" d="m14.75 41.786 14.013-14.874 13.448 15.425v2.674L28.846 29.533l-14.02 14.15v-2.137"/><path fill="#4A4B4D" d="M44.683 43.057 29.502 25.795a.936.936 0 0 0-1.371-.036L11.139 43.08a.902.902 0 0 0 .005 1.268.936.936 0 0 0 1.324 0l15.75-15.777a.936.936 0 0 1 1.367.045L43.25 44.262c.323.369.881.46 1.278.173a.937.937 0 0 0 .155-1.378"/><mask id="hN" fill="#fff"><use xlink:href="#hM"/></mask><path fill="#85674D" d="M47.073 76.039h13.505V51.921H47.073z" mask="url(#hN)"/><path fill="#A58A6C" d="M47.786 75.385h11.9V52.693h-11.9z" mask="url(#hN)"/><path fill="#5CA09F" d="M75.441 65.248h18.331V50.037h-18.33z" mask="url(#hN)"/><path fill="#87CCC9" d="M80.498 58.083a.082.082 0 0 1-.06-.025.083.083 0 0 1 .001-.119l2.019-1.962a.084.084 0 0 1 .118.001.084.084 0 0 1-.001.12l-2.018 1.961a.083.083 0 0 1-.059.024m2.479.335a.083.083 0 0 1-.06-.025.085.085 0 0 1 0-.12l2.02-1.961a.085.085 0 0 1 .119.001.085.085 0 0 1-.003.12l-2.017 1.961a.086.086 0 0 1-.06.024m-3.405 1.664a.084.084 0 0 1-.056-.147l6.391-5.717a.084.084 0 1 1 .112.125l-6.39 5.718a.08.08 0 0 1-.057.021m10.26 4.04a.087.087 0 0 1-.06-.025.085.085 0 0 1 .002-.12l2.018-1.961a.085.085 0 0 1 .12.001.085.085 0 0 1-.003.12l-2.018 1.961a.086.086 0 0 1-.059.024m-3.13-.594a.084.084 0 0 1-.056-.147l6.39-5.717a.083.083 0 0 1 .12.006.085.085 0 0 1-.007.119l-6.39 5.717a.084.084 0 0 1-.057.022" mask="url(#hN)"/><path fill="#5A6A8C" d="M80.898 65.248h.618V50.037h-.618zm6.798 0h.618V50.037h-.618z" mask="url(#hN)"/><path fill="#095B73" d="M94.335 66.736H74.878a.525.525 0 0 1-.525-.524v-.44c0-.29.235-.525.525-.525h19.457c.29 0 .525.235.525.526v.439c0 .29-.235.524-.525.524" mask="url(#hN)"/><path fill="#5A6A8C" d="M75.441 57.903h18.331v-.52h-18.33z" mask="url(#hN)"/><path fill="#E3E8E4" d="M67.086 77.695h2.23V45.011h-2.23zm32.811 0h2.23V45.011h-2.23z" mask="url(#hN)"/><path fill="#E3E8E4" d="M68.201 70.079h32.81V68.37h-32.81z" mask="url(#hN)"/><path fill="#E3E8E4" d="M72.065 78.179h1.307v-8.954h-1.307zm5.943 0h1.308v-8.954h-1.308zm5.945 0h1.307v-8.954h-1.307zm5.943 0h1.308v-8.954h-1.308zm5.944 0h1.308v-8.954H95.84z" mask="url(#hN)"/><path fill="#BA692A" d="M65.492 80.497h39.585v-2.802H65.492z" mask="url(#hN)"/><path fill="#CC7E36" d="M23.668 43.99c0-3.507 2.171-6.35 4.85-6.35 2.68 0 4.85 2.843 4.85 6.35" mask="url(#hN)"/><path fill="#BA692A" d="M33.694 43.99h-.651c0-3.321-2.03-6.024-4.525-6.024-2.495 0-4.525 2.703-4.525 6.025h-.651c0-3.68 2.322-6.676 5.176-6.676s5.176 2.995 5.176 6.676" mask="url(#hN)"/><path fill="#E3E8E4" d="M70.177 46.348h-3.952a.668.668 0 1 1 0-1.337h3.952a.668.668 0 1 1 0 1.337m32.811 0h-3.952a.668.668 0 1 1 0-1.337h3.952a.668.668 0 1 1 0 1.337M70.177 77.695h-3.952a.668.668 0 1 1 0-1.337h3.952a.668.668 0 1 1 0 1.337m32.811 0h-3.952a.668.668 0 1 1 0-1.337h3.952a.668.668 0 1 1 0 1.337" mask="url(#hN)"/><path fill="#5D6162" d="M42.21 77.287h23.346v-1.249H42.21z" mask="url(#hN)"/><path fill="#707676" d="M42.21 78.535h23.346v-1.248H42.21z" mask="url(#hN)"/><path fill="#5E6263" d="M42.21 79.784h23.346v-1.249H42.21z" mask="url(#hN)"/><path fill="#707676" d="M42.21 80.497h23.346v-.713H42.21z" mask="url(#hN)"/><path fill="#C4AA90" d="M50.218 61.755a.056.056 0 0 1-.04-.018.056.056 0 0 1 .001-.079l1.343-1.305a.054.054 0 0 1 .078.001.056.056 0 0 1 0 .079l-1.343 1.306a.055.055 0 0 1-.04.016m2.275.465a.056.056 0 0 1-.04-.017.056.056 0 0 1 .002-.08l1.343-1.305a.055.055 0 0 1 .078 0 .056.056 0 0 1 0 .08l-1.344 1.306a.055.055 0 0 1-.039.015m-.727 10.669a.056.056 0 0 1-.04-.016.056.056 0 0 1 .001-.08l1.343-1.305a.055.055 0 0 1 .078 0 .055.055 0 0 1 0 .08l-1.343 1.305a.055.055 0 0 1-.04.016M49.64 63.7a.053.053 0 0 1-.04-.017.055.055 0 0 1 0-.079l4.618-4.58a.056.056 0 0 1 .08 0c.021.02.021.057 0 .079l-4.619 4.58a.058.058 0 0 1-.04.016" mask="url(#hN)"/><path fill="#4A4B4D" d="M42.21 50.41H14.826l.013-3.6 27.373-.09" mask="url(#hN)"/><path fill="#5CA09F" d="M21.385 73.702h14.266v-17.75H21.385z" mask="url(#hN)"/><path fill="#BA692A" d="M42.226 50.037H14.81a.742.742 0 0 1-.743-.742V47.09c0-.409.333-.741.743-.741h27.416c.41 0 .743.332.743.741v2.205c0 .41-.333.742-.743.742" mask="url(#hN)"/><path fill="#CD7F37" d="M14.826 54.16h2.787V52.7h-2.787zm1.394 2.128h2.787v-1.46h-2.788zm20.952 22.978h2.788v-1.46h-2.788zm2.108-1.873h2.788v-1.46H39.28z" mask="url(#hN)"/><path fill="#F89655" d="M54.314 49.19h2.788v-1.46h-2.788zm3.978 1.577h2.788v-1.46h-2.788zm45.391 1.883h1.394v-1.46h-1.394zm0 20.969h1.394v-1.46h-1.394z" mask="url(#hN)"/><path fill="#CD7F37" d="M21.131 78.123h2.789v-1.46h-2.79z" mask="url(#hN)"/><path fill="#87CCC9" d="M25.69 65.066a.083.083 0 0 1-.061-.025.083.083 0 0 1 .001-.119l2.019-1.962a.084.084 0 0 1 .118.001.084.084 0 0 1-.001.12l-2.018 1.961a.083.083 0 0 1-.059.024m2.479.334a.083.083 0 0 1-.06-.025.084.084 0 0 1 .001-.118l2.018-1.963a.085.085 0 0 1 .12.002.085.085 0 0 1-.003.12l-2.017 1.961a.086.086 0 0 1-.059.024m-3.405 1.664a.084.084 0 0 1-.056-.147l6.39-5.717a.084.084 0 1 1 .112.125l-6.39 5.718a.083.083 0 0 1-.056.021" mask="url(#hN)"/><path fill="#5A6A8C" d="M28.21 74.543h.617v-18.59h-.617z" mask="url(#hN)"/><path fill="#5A6A8C" d="M21.415 62.156h14.206v-.618H21.415zm0 5.961h14.206V67.5H21.415z" mask="url(#hN)"/><path fill="#095B73" d="M35.478 75.385h-13.92a.842.842 0 0 1 0-1.683h13.92a.841.841 0 1 1 0 1.683" mask="url(#hN)"/><path fill="#BA692A" d="M34.016 45.16H23.02a.494.494 0 0 1-.495-.495v-.467c0-.273.222-.495.495-.495h10.996c.273 0 .495.222.495.495v.467a.495.495 0 0 1-.495.495" mask="url(#hN)"/></g></g></svg>