<svg xmlns="http://www.w3.org/2000/svg" xmlns:xlink="http://www.w3.org/1999/xlink" width="120" height="120"><defs><path id="a" d="M.575.5h9.061v9.763H.575z"/><path id="c" d="M0 .22h58.814v88.442H0z"/></defs><g fill="none" fill-rule="evenodd"><path fill="#708C00" d="m47.437 30.57-4.823 1.689c-7.705-7.543-7.866-25.145-.889-31.575L49.01 8.7c-4.324 6.1-8.369 10.056-1.573 21.87"/><g transform="translate(40.43 -.736)"><mask id="b" fill="#fff"><use xlink:href="#a"/></mask><path fill="#9EBD24" d="M1.643 1.124C3.257-.194 6.114.645 8.027 2.997c1.912 2.351 2.155 5.325.542 6.644-1.613 1.316-4.47.478-6.383-1.874C.272 5.415.029 2.44 1.643 1.124" mask="url(#b)"/></g><path fill="#FFC205" d="M40.772 22.539c10.61-4.621 27.752 11.314 38.287 35.595 10.535 24.279 10.473 47.71-.137 52.332-10.611 4.62-27.753-11.315-38.287-35.595-10.535-24.28-10.473-47.71.137-52.332"/><path fill="#F59C00" d="M59.084 15.183c20.506-8.931 45.348 2.772 55.488 26.143 9.98 23 1.997 48.73-17.808 58.05 9.967-10.374 11.62-31.049 2.975-50.973-9.338-21.52-27.507-34.835-42.645-32.279a36.19 36.19 0 0 1 1.99-.94"/><path fill="#FFAB00" d="M52.11 17.6c15.915-6.932 37.239 6.86 47.628 30.803 10.39 23.945 5.91 48.977-10.006 55.91a21.473 21.473 0 0 1-5.912 1.613c5.353-9.004 3.775-28.118-4.76-47.793-8.99-20.72-22.792-35.36-33.24-36.337a21.601 21.601 0 0 1 6.29-4.195"/><g transform="translate(0 29.837)"><mask id="d" fill="#fff"><use xlink:href="#c"/></mask><path fill="#F59C00" d="M23.069 1.035C2.564 9.965-5.84 36.153 4.3 59.523c9.98 23 34.202 34.702 54.514 26.549-14.37.225-30.586-12.666-39.23-32.59C10.247 31.961 12.923 9.567 25.114.22a34.8 34.8 0 0 0-2.044.816" mask="url(#d)"/></g><path fill="#FFAB00" d="M29.591 27.41C13.674 34.343 9.195 59.374 19.585 83.32c10.388 23.945 31.712 37.736 47.629 30.803a21.475 21.475 0 0 0 5.209-3.232C62.2 108.67 49.325 94.478 40.79 74.803c-8.99-20.72-10.261-40.818-3.847-49.14a21.598 21.598 0 0 0-7.352 1.747"/></g></svg>