<svg xmlns="http://www.w3.org/2000/svg" xmlns:xlink="http://www.w3.org/1999/xlink" width="120" height="120"><defs><path id="a" d="M.849.416h98.426v17.473H.85z"/><path id="c" d="M.892.307h38.063v69.13H.892z"/><path id="e" d="M0 .596h22.336v33.677H0z"/><path id="g" d="M0 95.693h119.102V1.043H0z"/></defs><g fill="none" fill-rule="evenodd" transform="matrix(-1 0 0 1 120 12)"><g transform="translate(19.826 69.606)"><mask id="b" fill="#fff"><use xlink:href="#a"/></mask><path fill="#11A7BB" d="M90.539 17.889H9.586a8.737 8.737 0 0 1 0-17.473h80.953a8.737 8.737 0 1 1 0 17.473" mask="url(#b)"/></g><path fill="#11A7BB" d="M66.419 95.693a2.544 2.544 0 0 1-2.544-2.543v-6.525a2.545 2.545 0 1 1 5.088 0v6.525a2.544 2.544 0 0 1-2.544 2.543"/><path fill="#FAB52D" d="M84.942 95.651a2.544 2.544 0 0 1-2.544-2.542v-6.524a2.545 2.545 0 1 1 5.09 0v6.524a2.543 2.543 0 0 1-2.546 2.542"/><path fill="#11A7BB" d="M102.182 95.667a2.543 2.543 0 0 1-2.544-2.544v-6.525a2.543 2.543 0 1 1 5.086 0v6.525a2.543 2.543 0 0 1-2.542 2.544"/><path fill="#FAB52D" d="M46.138 95.651a2.544 2.544 0 0 1-2.544-2.542v-6.524a2.545 2.545 0 1 1 5.09 0v6.524a2.545 2.545 0 0 1-2.546 2.542"/><g transform="translate(50.087 .737)"><mask id="d" fill="#fff"><use xlink:href="#c"/></mask><path fill="#11A7BB" d="M37.244 37.887a28.452 28.452 0 0 1-8.281 11.99L6.149 69.437S-13.848 31.585 24.16.308l7.906 9.212c6.952 8.11 8.574 18.994 5.179 28.368" mask="url(#d)"/></g><path fill="#52C2BC" d="M115.313 29.422v12.132c0 15.81-12.81 28.621-28.622 28.621H56.383s9.716-41.757 58.93-40.753"/><g transform="translate(0 21.606)"><mask id="f" fill="#fff"><use xlink:href="#e"/></mask><path fill="#0FACE4" d="m22.336 33.906-1.957.367A155.514 155.514 0 0 0 14.31 11.6c-.984-2.802-2.73-7.37-5.624-8.67C2.976.38-.67 8.571 4.697 10.173l-.569 1.907C.724 11.062-.976 7.19.581 4.161 2.091 1.223 6.425-.26 9.498 1.113c3.528 1.58 5.476 6.367 6.686 9.829a157.087 157.087 0 0 1 6.152 22.964" mask="url(#f)"/></g><path fill="#0FACE4" d="m27.353 54.407-1.95-.394A155.9 155.9 0 0 0 28.28 30.72c.083-1.785.456-7.626-1.96-10.147-1.632-1.695-4.938-1.89-6.676-.391-1.624 1.402-1.548 4.162.26 5.608l-1.242 1.555c-2.773-2.22-2.894-6.447-.316-8.67 2.501-2.16 7.074-1.908 9.408.52 2.68 2.787 2.688 7.958 2.513 11.619a157.295 157.295 0 0 1-2.913 23.594"/><path fill="#FAB52D" d="M46.299 70.022c.38-10.552-8.068-18.801-18.104-18.801-10.017 0-18.136 8.121-18.136 18.137 0 10.019 8.12 18.137 18.136 18.137h31.182V70.022H46.299z"/><path fill="#4B011C" d="M38.656 65.558c1.737 5.557-1.122 11.574-6.637 13.674-5.515 2.099-11.652-.493-14.053-5.796l-.797.304c2.57 5.744 9.198 8.557 15.153 6.29 5.956-2.268 9.035-8.777 7.134-14.776l-.8.304z"/><path fill="#FAB52D" d="M23.993 55.037c0 5.757-4.668 10.424-10.425 10.424-5.756 0-10.423-4.667-10.423-10.424 0-5.756 4.667-10.423 10.423-10.423 5.757 0 10.425 4.667 10.425 10.423"/><path fill="#BFDDF4" d="M22.487 55.037a8.917 8.917 0 0 1-8.92 8.917 8.915 8.915 0 0 1-8.914-8.917 8.914 8.914 0 0 1 8.915-8.916 8.917 8.917 0 0 1 8.919 8.916"/><path fill="#171B1F" d="M17.022 55.037a3.454 3.454 0 1 1-6.905 0 3.454 3.454 0 0 1 6.905 0"/><path fill="#FAB52D" d="M43.4 55.12c0 5.757-4.667 10.423-10.421 10.423-5.758 0-10.424-4.666-10.424-10.423s4.666-10.423 10.424-10.423c5.754 0 10.422 4.666 10.422 10.423"/><path fill="#BFDDF4" d="M41.895 55.12a8.916 8.916 0 0 1-8.917 8.916 8.917 8.917 0 1 1 8.917-8.917"/><path fill="#171B1F" d="M36.43 55.12a3.452 3.452 0 1 1-6.906 0 3.454 3.454 0 0 1 6.907 0"/><mask id="h" fill="#fff"><use xlink:href="#g"/></mask><path fill="#11A7BB" d="M59.27 87.441h18.582V70.023H59.27z" mask="url(#h)"/><path fill="#FAB52D" d="M77.852 87.524H96.43V70.023H77.85z" mask="url(#h)"/></g></svg>