<svg xmlns="http://www.w3.org/2000/svg" width="54.85" height="108"><g fill-rule="evenodd" stroke-miterlimit="10" data-paper-data="{&quot;isPaintingLayer&quot;:true}" style="mix-blend-mode:normal"><path fill="#faac99" d="M26.694 57.092C16.024 55.85 8.382 46.196 9.624 35.527l.49-4.215C11.353 20.642 21.007 13 31.676 14.24c10.67 1.24 18.313 10.895 17.072 21.564l-.49 4.215c-1.24 10.67-10.896 18.312-21.565 17.072"/><path fill="#faac99" d="M26.513 58.65C15.068 57.319 6.87 46.962 8.2 35.517l.526-4.521c1.33-11.445 11.688-19.644 23.133-18.313 11.445 1.33 19.644 11.688 18.312 23.133l-.525 4.52c-1.33 11.446-11.688 19.645-23.133 18.314"/><path fill="#542f19" d="M8.058 70.082V33.157c.001-11.912 9.658-21.568 21.57-21.568s21.57 9.655 21.57 21.568v36.928c0 5.64-4.574 10.212-10.215 10.212h-22.71c-5.642 0-10.215-4.573-10.215-10.215" data-paper-data="{&quot;origPos&quot;:null}"/><path fill="#fc9068" d="M3.607 39.81a5.42 5.42 0 0 1 6.01-4.756l1.174.136A5.42 5.42 0 0 1 9.54 45.958l-1.175-.137a5.42 5.42 0 0 1-4.757-6.01m37.582 4.37a5.42 5.42 0 0 1 6.01-4.756l1.174.136a5.42 5.42 0 0 1-1.252 10.767l-1.175-.136a5.42 5.42 0 0 1-4.757-6.01"/><path fill="#faac99" d="M26.513 58.65C15.068 57.319 6.87 46.962 8.2 35.517l.526-4.521c1.33-11.445 11.688-19.644 23.133-18.313 11.445 1.33 19.644 11.688 18.312 23.133l-.525 4.52c-1.33 11.446-11.688 19.645-23.133 18.314"/><path fill="#c0936a" d="M26.513 58.65C15.068 57.319 6.87 46.962 8.2 35.517l.526-4.521c1.33-11.445 11.688-19.644 23.133-18.313 11.445 1.33 19.644 11.688 18.312 23.133l-.525 4.52c-1.33 11.446-11.688 19.645-23.133 18.314" data-paper-data="{&quot;origPos&quot;:null}"/><path fill="#542f19" d="M30.69 23.088 7.575 35.122c1.376-11.833 12.084-20.31 23.917-18.933 11.833 1.376 20.31 12.084 18.934 23.917z"/><path fill="#c0936a" d="M21.21 50.425h10.607v56.868H21.21z" data-paper-data="{&quot;origPos&quot;:null}"/><path fill="#f1ebe2" d="m33.585 62.032-7.072 2.257 5.304-6.501z"/><path fill="#f1ebe2" d="M34.222 105.525H18.803c-2.87 0-5.395-2.363-5.649-5.38l-2.567-30.563c-.376-4.473 2.303-8.258 6-8.258H36.44c3.696 0 6.374 3.785 5.998 8.258l-2.567 30.564c-.253 3.016-2.779 5.379-5.649 5.379"/><path fill="#135586" d="M43.486 108H9.54l2.121-19.095h29.703z"/><path fill="none" stroke="#f1ebe2" stroke-linecap="round" stroke-width="7.779" d="m13.783 70.165-1.547 14.454c-.303 2.824-4.338 3.025-4.919.244l-1.667-7.98m33.592-6.718 1.548 14.454c.302 2.824 4.338 3.025 4.918.244l1.667-7.98"/><path fill="#135586" d="M38.182 89.259H14.844l-1.06-9.08v-7.54h25.46v6.72zm.176-27.774a.571.571 0 0 0-.398-.542 6.63 6.63 0 0 0-2.05-.326h-.522a.565.565 0 0 0-.566.565v9.478c0 .312.253.565.566.565h2.405a.565.565 0 0 0 .565-.565zm-20.155-.135a.733.733 0 0 0-.733-.733c-.82 0-1.602.15-2.326.422a.736.736 0 0 0-.477.69v8.763c0 .405.328.733.733.733h2.07a.733.733 0 0 0 .733-.733z"/><path fill="#542f19" d="M43.93 22.05c4.696 4.51 7.306 11.087 6.496 18.056l-.344 2.956a1.036 1.036 0 0 1-1.368.856c-4.94-1.708-8.208-6.67-7.578-12.075l1.064-9.158c.098-.84 1.12-1.221 1.73-.635M7.575 35.122c.893-7.68 5.72-13.942 12.23-17.018l-1.292 11.108c-.63 5.429-4.983 9.519-10.213 10.02a.983.983 0 0 1-1.076-1.088l.351-3.022"/><path fill="#c0936a" d="M35.33 24.893a6.57 6.57 0 0 1 5.767 7.285l-.425 3.652a6.57 6.57 0 0 1-7.285 5.767l-9.57-1.113a6.57 6.57 0 0 1-5.768-7.285l.425-3.652a6.57 6.57 0 0 1 7.285-5.767l.72.084a7.293 7.293 0 0 0 4.21-.775 7.293 7.293 0 0 0 3.92 1.72l.721.084" data-paper-data="{&quot;origPos&quot;:null}"/><path fill="#fc9068" d="M30.06 40.396c-.316 2.716-.915 2.385-1.69 2.295-.777-.09-1.436.094-1.12-2.622.316-2.716 1.037-3.44 1.813-3.35.776.09 1.312.96.997 3.677"/><path fill="#542f19" d="M23.546 38.248c-.085.727-1.322-.116-2.639-.27-1.317-.153-2.714.384-2.63-.343a2.652 2.652 0 0 1 5.27.613"/><path fill="none" stroke="#ff5400" stroke-linecap="round" stroke-linejoin="round" stroke-width="1.686" d="M31.764 44.215c-.19 1.643-1.924 2.79-3.87 2.565-1.948-.226-3.37-1.742-3.18-3.385"/><path fill="#542f19" d="M39.351 40.086c-.084.727-1.32-.116-2.638-.27-1.317-.152-2.715.385-2.63-.343a2.652 2.652 0 0 1 5.268.613"/><path fill="#542f19" d="m50.304 41.149-4.76-15.114-18.982-9.73-19.108 19.86.543-4.674c1.377-11.833 12.084-20.31 23.917-18.934 11.834 1.376 20.31 12.085 18.934 23.918l-.544 4.675z"/><path fill="#e50102" d="M44.485 22.22c-1.174-.612-2.214-1.246-3.26-1.842a88.497 88.497 0 0 0-3.11-1.71 70.558 70.558 0 0 0-3.193-1.553c-1.09-.51-2.215-.984-3.396-1.575l-.023-.011a.931.931 0 0 1 .228-1.745c1.39-.288 2.813-.235 4.2.009 1.385.253 2.736.718 3.995 1.363a14.14 14.14 0 0 1 3.435 2.452c1.006.985 1.874 2.116 2.437 3.427a.934.934 0 0 1-1.286 1.198l-.027-.014z"/><path fill="#c0936a" d="m31.817 58.029-5.304 6.5-5.304-6.501z" data-paper-data="{&quot;origPos&quot;:null}"/><path fill="#f1ebe2" d="m21.21 57.788 5.303 6.5-7.072-2.256z"/><path fill="#f1ebe2" d="m21.21 57.788 5.303 6.5-7.072-2.256z"/><path fill="#fc9068" d="M44.82 48.164a4.95 4.95 0 1 1-9.835-1.144 4.95 4.95 0 0 1 9.835 1.144m-23.884-2.778a4.95 4.95 0 1 1-9.835-1.143 4.95 4.95 0 0 1 9.835 1.143M5.712 76.662l-4.42.022-.03-6.422a1.687 1.687 0 0 1 1.677-1.695 2.733 2.733 0 0 1 2.747 2.72z"/><path fill="#c0936a" d="M11.32 76.97c.017 3.418-1.614 5.604-5.03 5.62-3.42.018-6.273-2.035-6.29-5.453a6.188 6.188 0 0 1 6.158-6.218c3.417-.017 5.146 2.634 5.162 6.052" data-paper-data="{&quot;origPos&quot;:null}"/><path fill="#fc9068" d="M47.62 71.677a2.733 2.733 0 0 1 2.706-2.76 1.687 1.687 0 0 1 1.703 1.67l.064 6.422-4.42.044z"/><path fill="#c0936a" d="M41.714 77.832c-.034-3.418 1.656-6.094 5.073-6.128a6.188 6.188 0 0 1 6.25 6.127c.033 3.417-2.79 5.512-6.209 5.546-3.417.034-5.08-2.128-5.114-5.545" data-paper-data="{&quot;origPos&quot;:null}"/><path fill="#f1ebe2" d="M18.026 75.292a1.591 1.591 0 1 1-3.182 0 1.591 1.591 0 0 1 3.182 0m20.156 0a1.592 1.592 0 1 1-3.183 0 1.592 1.592 0 0 1 3.183 0"/><path fill="#e50102" d="M41.861 11.27a13.245 13.245 0 0 1 11.44-1.611c1.354.438 1.957 2.02 1.252 3.258-3.238 5.682-10.469 7.663-16.15 4.425-5.683-3.24-7.664-10.47-4.426-16.152.751-1.316 2.305-1.585 3.441-.583a13.244 13.244 0 0 1 4.444 10.663"/><path fill="#f1ebe2" d="M21.608 77.199h9.81c1.507 0 2.592 1.532 2.005 2.92a7.501 7.501 0 0 1-13.82 0c-.587-1.39.497-2.92 2.004-2.92z"/><path fill="#c0936a" d="M26.512 58.65a20.76 20.76 0 0 1-10.119-4.044h22.85v1.45a20.763 20.763 0 0 1-12.73 2.594" data-paper-data="{&quot;origPos&quot;:null}"/></g></svg>