<svg version="1.1" xmlns="http://www.w3.org/2000/svg" xmlns:xlink="http://www.w3.org/1999/xlink" width="62.97927" height="116.48772" viewBox="0,0,62.97927,116.48772"><g transform="translate(-208.03987,-121.678)"><g data-paper-data="{&quot;isPaintingLayer&quot;:true}" fill-rule="evenodd" stroke="none" stroke-width="1" stroke-linecap="butt" stroke-linejoin="miter" stroke-miterlimit="10" stroke-dasharray="" stroke-dashoffset="0" style="mix-blend-mode: normal"><path d="M208.04,169.62c8.21,12.82 19.163,2.122 15.435,-9.207c-2.704,-8.229 11.976,2.674 11.976,2.674c0,0 -8.597,23.848 -16.053,24.204c-7.458,0.353 -11.384,-11.317 -11.358,-17.67" data-paper-data="{&quot;origPos&quot;:null}" fill="#7d552a"/><path d="M214.352,196.79c-0.002,0.008 -0.002,0.014 -0.002,0.02c0,-0.006 0,-0.012 0.002,-0.02M269.138,161.989c1.848,0.789 2.434,3.592 1.31,6.264c-0.72,1.712 -1.972,2.955 -3.262,3.416c0,0 -3.443,9.835 -6.443,10.932c-2.412,0.881 -11.196,-2.661 -11.286,-2.697c1.665,10.218 -0.078,25.808 -0.078,25.808l-1.71,14.865l-0.454,11.645h-0.01c1.807,1.127 3.121,3.432 1.575,5.3c-1.172,1.319 -2.893,0.288 -4.202,-0.27c-1.446,-0.691 -3.1,-1.18 -4.41,-2.08c-0.845,-0.596 -1.837,-1.247 -2.41,-2.134c-0.176,-0.274 -0.259,-0.551 -0.196,-0.817h0.015v-11.637l-0.528,-7.629h-0.287l-0.5,7.629v11.637h-0.015c0.062,0.266 -0.022,0.54 -0.198,0.815c-0.571,0.889 -1.565,1.543 -2.408,2.138c-1.31,0.9 -2.962,1.385 -4.412,2.077c-1.307,0.557 -3.03,1.592 -4.2,0.274c-1.545,-1.871 -0.235,-4.176 1.575,-5.304h-0.004l-0.46,-11.644l-1.712,-14.861c0,0 -1.492,-14.155 -0.153,-24.338c-0.203,0.542 -1.275,1.5 -2.133,2.713c-1.705,2.434 -3.304,12.718 -3.304,12.718c0.03961,0.06876 0.07631,0.13916 0.11,0.211c0.48571,0.49206 0.89371,1.05517 1.21,1.67c0.926,1.757 1.022,3.532 0.212,3.962c-0.43,0.232 -1.032,0.03 -1.64,-0.476c-0.657,1.177 -1.683,1.899 -2.76,1.785c-1.646,-0.176 -2.779,-2.246 -2.527,-4.626c0.104,-1.001 0.436,-1.896 0.911,-2.586l-0.002,0.04c0.064,-0.645 1.494,-14.325 5.088,-18.945c1.686,-2.168 7.509,-5.312 8.186,-5.674c1.289,-0.939 4.186,-1.359 5.989,-1.526c-0.302,-0.668 -0.487,-1.39 -0.487,-1.922h7.617c0,0.532 -0.178,1.241 -0.477,1.905c1.772,0.174 4.704,0.587 6.034,1.522l3.077,1.11c6.033,1.834 8.565,3.087 8.565,3.087l5.518,-6.522v0.002c-0.094,-0.266 -0.162,-0.547 -0.206,-0.842c-0.354,-0.645 -0.645,-1.462 -0.82,-2.368c-0.46,-2.368 0.049,-4.457 1.139,-4.672c0.583,-0.113 1.209,0.335 1.739,1.138c1.171,-1.136 2.617,-1.605 3.824,-1.092" data-paper-data="{&quot;origPos&quot;:null}" fill="#ffdb80"/><path d="M217.038,200.359c-0.979,-1.819 -1.096,-3.66 -0.262,-4.116c0.835,-0.456 2.306,0.647 3.283,2.464c0.984,1.815 1.101,3.66 0.266,4.114c-0.834,0.457 -2.306,-0.645 -3.287,-2.461M262.342,166.27c-0.334,-2.266 0.234,-4.232 1.278,-4.386c1.037,-0.157 2.154,1.556 2.491,3.818c0.334,2.268 -0.236,4.23 -1.276,4.385c-1.039,0.156 -2.158,-1.55 -2.493,-3.817" data-paper-data="{&quot;origPos&quot;:null}" fill="#ffdb80"/><path d="M249.375,205.757c-0.675,0.287 -9.13,3.952 -12.272,7.262c-0.01227,0.01452 -0.02866,0.02499 -0.047,0.03l-0.006,-0.098h-0.288l-0.008,0.098c-0.017,-0.01 -0.032,-0.017 -0.045,-0.03c-3.687,-3.713 -11.914,-7.127 -12.276,-7.277l-0.004,-0.026c0,0 -1.493,-14.155 -0.153,-24.338c-0.203,0.54 -1.278,1.5 -2.134,2.713c-1.501,2.14 -2.918,10.354 -3.238,12.298c-1.871,-0.643 -3.698,0.203 -4.528,0.175c0.206,-1.907 1.669,-14.355 5.062,-18.72c1.687,-2.168 7.512,-5.312 8.189,-5.674c0.815,-0.594 2.276,-0.979 3.694,-1.228c0.711,-0.111 1.288,-0.188 1.692,-0.238c0.20076,-0.02235 0.40178,-0.04235 0.603,-0.06c0.353,2.068 6.289,2.13 6.653,-0.017c1.771,0.174 4.703,0.587 6.034,1.522c0,0 2.31,0.833 3.076,1.107c6.033,1.837 8.563,3.09 8.563,3.09l5.342,-6.315c0.004,0.005 0.006,0.005 0.006,0.007c1.058,1.159 2.388,1.879 3.658,2.282c-0.826,2.209 -3.673,9.356 -6.204,10.281c-2.412,0.881 -11.196,-2.661 -11.286,-2.697c1.663,10.221 -0.079,25.808 -0.079,25.808z" fill="#0771b7"/><path d="M215.088,191.461c0.1355,-0.81549 0.28319,-1.62892 0.443,-2.44l6.252,-4.299c-0.332,0.682 -0.657,1.618 -0.96,2.672l-5.735,4.067M214.477,195.672c0.074,-0.605 0.18,-1.427 0.323,-2.387l5.467,-3.768c-0.206,0.855 -0.396,1.73 -0.566,2.555l-5.224,3.6M262.295,171.205l2.121,6.872c-0.383,0.726 -0.788,1.432 -1.203,2.066l-2.178,-7.446zM262.226,181.454c-0.492,0.562 -0.992,0.967 -1.482,1.147l-0.023,0.006l-2.153,-7.001l1.367,-1.613l2.291,7.461" fill="#6cc5d8"/><path d="M233.917,171.136c-0.435,-0.662 -0.738,-1.58 -0.808,-2.244c2.52236,0.41609 5.09654,0.40731 7.616,-0.026l-0.015,0.013l-6.793,2.257" fill="#eeac6c"/><path d="M259.733,149.651c1.177,0.76 1.952,2.06 1.952,3.53c0,2.347 -1.963,4.25 -4.386,4.25c-0.07,0 -0.136,-0.002 -0.206,-0.006c-3.926,7.081 -11.444,11.871 -20.075,11.871c-8.635,0 -16.163,-4.798 -20.085,-11.893c-0.158,0.017 -0.321,0.029 -0.483,0.029c-2.423,0 -4.388,-1.904 -4.388,-4.25c0,-1.582 0.894,-2.96 2.22,-3.69c-0.156,-1.084 -0.236,-2.192 -0.236,-3.317c0,-12.77 10.288,-23.122 22.972,-23.122c12.687,0 22.975,10.352 22.975,23.122c0,1.181 -0.09,2.342 -0.26,3.475" data-paper-data="{&quot;origPos&quot;:null}" fill="#ffdb80"/><path d="M232.311,144.65c0,0 -0.503,1.803 -2.082,1.446c-0.772,-0.174 -0.908,-1.201 -3.386,-0.74c-0.779,0.18 -2.417,1.156 -2.732,1.808c-0.316,0.652 -0.088,-2.392 2.457,-3.522c1.835,-0.675 2.457,-0.642 3.977,-0.642c1.52,0 1.987,0.907 1.766,1.65M242.052,144.65c0,0 0.503,1.803 2.082,1.446c0.772,-0.174 0.908,-1.201 3.386,-0.74c0.779,0.18 2.417,1.156 2.732,1.808c0.316,0.652 0.087,-2.392 -2.457,-3.522c-1.835,-0.675 -2.457,-0.642 -3.977,-0.642c-1.52,0 -1.987,0.907 -1.766,1.65" data-paper-data="{&quot;origPos&quot;:null}" fill="#7d552a"/><path d="M230,152c0,1.657 -0.895,3 -2,3c-1.105,0 -2,-1.343 -2,-3c0,-1.657 0.895,-3 2,-3c1.105,0 2,1.343 2,3M248,152c0,1.657 -0.895,3 -2,3c-1.105,0 -2,-1.343 -2,-3c0,-1.657 0.895,-3 2,-3c1.105,0 2,1.343 2,3" data-paper-data="{&quot;origPos&quot;:null}" fill="#7d552a"/><path d="M237.02,155.069c-1.125,0.153 -3.02,1.834 -3.02,1.834c0,0 0.207,-1.009 0.503,-1.299c0.8,-1.156 2.487,-1.604 2.487,-1.604c0,0 2.173,0.703 2.65,1.588c0.443,0.824 0.34,1.238 0.34,1.238c0,0 -2.121,-1.871 -2.96,-1.756z" fill="#eeac6c"/><path d="M230.2,158.696c0,0 6.897,3.208 13.172,-0.397c0,0 -1.39,5.47 -5.95,5.561c-4.115,0.122 -4.984,-1.492 -5.477,-1.956c-0.492,-0.463 -1.42,-1.772 -1.745,-3.208" fill="#eeac6c"/><path d="M213.235,143.39c0.015,-1.203 0.105,-2.664 0.273,-4.226c3.07,-10.124 12.422,-17.486 23.482,-17.486c9.632,0 17.97,5.582 21.989,13.706c1.113,3.19 1.794,6.336 1.85,7.75c0.198,4.92 -1.218,6.551 -1.218,6.551c0,0 -4.118,-5.736 -8.989,-9.182c-3.83,-2.702 -7.238,2.526 -11.786,-1.956c-0.64531,-0.64505 -1.28765,-1.29305 -1.927,-1.944c0,0 -1.247,1.412 -1.918,1.944c-4.045,3.214 -6.302,-0.435 -10.826,2.042c-3.703,2.03 -9.77,9.26 -9.77,9.26c0,0 -1.197,-3.757 -1.16,-6.46" data-paper-data="{&quot;origPos&quot;:null}" fill="#7d552a"/></g></g></svg>