<svg xmlns="http://www.w3.org/2000/svg" width="120" height="120"><g fill="none" fill-rule="evenodd"><path fill="#9FA2A1" d="M68.216 19.205a8.728 8.728 0 1 1-17.455 0 8.728 8.728 0 0 1 17.455 0"/><path fill="#E5E6E3" d="M63.61 19.205a4.121 4.121 0 1 1-8.243 0 4.121 4.121 0 0 1 8.242 0"/><path fill="#CDCECA" d="m35.002 104.298 4.122 15.518 2.909-14.063-7.03-1.455"/><path fill="#159D8F" d="m52.635 24.598-17.633 79.7 7.03 1.455L58.42 27.86a8.71 8.71 0 0 1-5.785-3.263"/><path fill="#CDCECA" d="m83.974 104.298-4.121 15.518-2.91-14.063 7.03-1.455"/><path fill="#159D8F" d="m66.341 24.598 17.633 79.7-7.03 1.455L60.555 27.86a8.71 8.71 0 0 0 5.785-3.263m-6.852-14.12c1.204 0 2.35.244 3.394.685V3.545a3.394 3.394 0 0 0-6.788 0v7.617a8.701 8.701 0 0 1 3.394-.685"/><path fill="#515251" d="M69.905 72.298H49.07l-.867 4.122h22.568l-.867-4.122"/><path fill="#3A3A39" d="M60.965 81.537h-.818a2.258 2.258 0 0 1-2.258-2.259v-9.84a2.257 2.257 0 0 1 2.258-2.258h.818a2.257 2.257 0 0 1 2.258 2.258v9.84a2.258 2.258 0 0 1-2.258 2.26"/></g></svg>