<svg xmlns="http://www.w3.org/2000/svg" width="120" height="120"><g fill="none" fill-rule="evenodd"><path d="M0 0h120v120H0z"/><path fill="#AD6333" fill-rule="nonzero" d="M54 102.13C39.64 113 22.78 106.89 13.22 94.3c-9.56-12.59-10.93-30.48 3.4-41.36 14.33-10.88 38.94-10.64 48.5 1.95 9.56 12.59 3.19 36.36-11.12 47.24z"/><path fill="#AD6333" fill-rule="nonzero" d="M25.734 78.257 96.693 23.73l6.52 8.484-70.96 54.528z"/><circle cx="38.634" cy="75.093" r="11.67" fill="#601C1C" fill-rule="nonzero" transform="rotate(-37.54 38.634 75.093)"/><path stroke="#490606" stroke-width=".973" d="M22.67 83.83a47 47 0 0 1 13.39-14.34L93.63 29.3M24.122 85.707l70.96-54.527 1.858 2.418-70.96 54.528z"/><rect width="5.35" height="18.48" x="20.732" y="77.555" fill="#FFB633" fill-rule="nonzero" rx="1.92" transform="rotate(-37.54 23.407 86.795)"/><path fill="#601C1C" fill-rule="nonzero" d="M93.44 16.57a2.69 2.69 0 0 0 2.64 1L109 34.36a2.69 2.69 0 1 0 1.75-1.36L97.9 16.28a2.69 2.69 0 1 0-4.46.29zm14.37 21.78a2.69 2.69 0 0 0-2.88-.94L92.14 20.77a2.69 2.69 0 1 0-1.73 1.17l12.9 16.79a2.69 2.69 0 1 0 4.5-.37v-.01zm-5.69 4.37a2.69 2.69 0 0 0-2.43-1l-13-16.95a2.69 2.69 0 1 0-2 1.58l12.9 16.79a2.69 2.69 0 1 0 4.53-.42z"/><rect width="26.26" height="17.99" x="84.512" y="20.755" fill="#AD6333" fill-rule="nonzero" rx="4.39" transform="rotate(-37.54 97.642 29.75)"/></g></svg>