<svg xmlns="http://www.w3.org/2000/svg" width="79.578" height="115.806"><g fill-rule="evenodd" stroke-miterlimit="10" data-paper-data="{&quot;isPaintingLayer&quot;:true}" style="mix-blend-mode:normal"><path fill="#533a27" d="m25.42 6.64-3.613 3.818s-1.122-1.463-3.985-3.013c-3.06-1.657-4.96 0-6.266 3.415-1.237 3.239-1.004 13.16-1.507 15.252-.502 2.092-1.707 3.634-2.612 3.51-.903-.122-.25-2.476-.15-3.51.1-1.035.05-2.997.05-2.997s-.2 2.11-.402 2.997c-.2.886-.803 3.03-1.808 3.433-1.005.402-.68-1.885-.58-3.433.1-1.55.68-3.5.68-3.5s-.287 1.507-.853 2.663c-.62 1.266-1.439 1.87-1.959 1.87-.603 0 .257-2.554.507-4.727.284-2.47.095-8.444.497-12.06C3.821 6.74 5.63 1.116 12.763.11 20.677-1.003 25.42 6.64 25.42 6.64z"/><path fill="#533a27" d="M23.16 3.94c1.47 1.43 2.26 2.7 2.26 2.7l-3.613 3.819s-1.122-1.464-3.985-3.014c-3.06-1.656-4.96 0-6.266 3.415-1.238 3.239-1.004 13.16-1.507 15.252-.502 2.092-1.708 3.634-2.612 3.51-.904-.122-.25-2.475-.15-3.51.1-1.034.05-2.996.05-2.996s-.2 2.109-.4 2.996c-.203.887-.805 3.03-1.81 3.434-1.005.4-.68-1.886-.579-3.434.046-.724.198-1.534.346-2.194a9.453 9.453 0 0 1-.52 1.358c-.62 1.265-1.439 1.87-1.959 1.87-.124 0-.184-.112-.202-.303 1.247-1.777 2.001-5.315 3.044-5.9 1.043-.586.21 3.84.227 5.71.003.298.471.382.535.072.327-1.557.69-5.106 1.447-5.033.758.073.397 3.93.75 5.94.053.304.542.23.533-.073-.074-2.833.286-5.661.258-8.5-.024-2.454-.042-4.94.423-7.36.421-2.197 1.36-4.944 3.417-6.141 1.85-1.075 4.792.915 6.867.426 2.075-.487 2.313-1.536 3.446-2.044"/><path fill="#ffdb8d" d="M3.997 102.182a3.315 3.315 0 0 1-2.317-5.686c1.41-1.378 3.987-1.955 10.99-3.251 2.517-.466 6.318-1.17 7.182-1.574 1.065-.52 3.428-3.406 8.623-14.21.344-.714.643-1.336.887-1.826a3.315 3.315 0 0 1 5.938 2.95c-.234.47-.52 1.066-.85 1.75-4.645 9.659-8.062 15.593-11.783 17.338-1.555.73-4.353 1.27-8.79 2.09-2.54.47-6.744 1.25-7.87 1.74a3.308 3.308 0 0 1-2.01.679" data-paper-data="{&quot;origPos&quot;:null}"/><path fill="#ffdb8d" d="M19.864 97.666c-1.219.224-2.37.653-3.543 1.04-2.14.709-4.26.86-6.257-.357-1.542-.942-2.584-2.42-3.64-3.852-2.542.6-3.87 1.146-4.744 1.999a3.315 3.315 0 0 0 4.327 5.007c1.125-.49 5.33-1.27 7.87-1.74 4.437-.82 7.235-1.36 8.79-2.09.226-.107.452-.234.677-.372-1.162.106-2.33.153-3.48.365m13.943-23.524a3.315 3.315 0 0 0-4.445 1.493c-.244.49-.543 1.112-.887 1.828-5.196 10.802-7.558 13.689-8.624 14.208-.767.36-3.856.955-6.3 1.41.837.188 1.681.41 2.56.58.771.15 1.737.315 2.53.14.467-.103.877-.381 1.355-.45.564-.083 1.725.598 1.634-.217-.02-.17.19-.318.344-.262 1.5.537 3.242 1.158 4.867 1.047 2.307-3.013 4.72-7.577 7.61-13.583.33-.685.614-1.28.848-1.75a3.315 3.315 0 0 0-1.492-4.444m26.723 40.02a3.31 3.31 0 0 1-2.596-1.25 73.66 73.66 0 0 1-15.267-35.33 3.315 3.315 0 1 1 6.562-.945 67.02 67.02 0 0 0 13.893 32.146 3.315 3.315 0 0 1-2.592 5.38" data-paper-data="{&quot;origPos&quot;:null}"/><path fill="#ffdb8d" d="M63.122 108.784a3.315 3.315 0 1 1-5.187 4.13 73.656 73.656 0 0 1-15.268-35.33 3.315 3.315 0 0 1 6.563-.947 66.945 66.945 0 0 0 4.065 15.194c-1.638.309-3.66-.306-5.107-.592-.134-.026-.308.037-.336.19-.207 1.163-.066 2.513.67 3.483.34.447.603.436.975.705.426.308.56-.31.54.553-.003.107-.167.215-.17.347-.025.962.227 1.084.927 1.49 1.538.893.911 3.146 1.714 4.555.807 1.419 1.708 2.933 2.8 4.156.742.833 1.351.95 2.377.516 1.275-.541 1.998-1.475 2.41-2.58a66.708 66.708 0 0 0 3.027 4.129" data-paper-data="{&quot;origPos&quot;:null}"/><path fill="#ffc736" d="m16.974 69.915-8.583-3.69c1.73-4.024 3.784-7.91 5.785-10.94 3.91-5.917 9.284-10.471 15.133-12.822l3.484 8.668c-4.045 1.626-7.99 5.017-10.82 9.303-1.68 2.545-3.503 6-4.999 9.48"/><path fill="#ffc736" d="M32.792 51.13c-4.044 1.627-7.988 5.018-10.82 9.304-1.68 2.545-3.502 6-4.998 9.48l-1.228-.527c.671-1.038 1.336-2.09 1.556-3.303.13-.717-.057-1.125-.18-1.785-.105-.563-.205-.965.524-.973.288-.003.593.15.9.15a.276.276 0 0 0 .272-.272c-.032-1.11-1.158-1.935-1.219-2.984-.073-1.251 2.287-.45 3.105-.653.146-.037.224-.196.19-.336-.17-.71-.707-1.857-.466-2.594.285-.875 1.553-1.225 2.281-1.612.885-.47 1.485-1.046 1.812-2.011.561-1.662.437-3.612.356-5.332-.042-.895-.159-1.916-.104-2.894a28.824 28.824 0 0 1 4.536-2.325z"/><path fill="#ffdb8d" d="M15.176 69.142c-.794 1.849-1.437 3.558-1.848 4.902-.032.107-.077.206-.12.306l-.038.17c-.14.623-1.157 2.454-1.49 2.517-.33.062-.48-.2-.249-1.172l-.046.01c-.252.549-.818 1.508-1.232 1.347-.412-.16-.31-.79-.125-1.358l-.043-.01c-.517 1.026-.852 1.449-1.293 1.326-.587-.163-.287-.901-.027-2.183l-.015-.016c-.099.195-.246.605-.449.913-.319.483-.907.23-.878-.36.04-.765.238-1.653.454-2.305.121-.38.277-.748.467-1.1.466-1.466 1.133-3.234 1.948-5.13l4.984 2.143" data-paper-data="{&quot;origPos&quot;:null}"/><path fill="#ffdb8d" d="M15.176 69.142c-.795 1.849-1.436 3.558-1.848 4.902-.316 1.035-.485 1.374-1.178 2.499.46-1.71.796-3.423.937-4.795.246-2.402-1.744-2.723-3.48-3.347.185-.458.38-.925.585-1.401zm18.392-23.356a2.711 2.711 0 0 1-1.506 3.527L30.04 44.28a2.712 2.712 0 0 1 3.528 1.506" data-paper-data="{&quot;origPos&quot;:null}"/><path fill="#ffc736" d="m49.461 52.172-2.874-8.89c6.907-2.231 14.05-4.54 18.11-8.4 2.465-2.344 4.701-5.876 6.134-9.691l8.746 3.286c-1.94 5.165-4.94 9.845-8.445 13.178-5.6 5.323-13.77 7.964-21.673 10.518"/><path fill="#ffc736" d="M76.608 32.939c.853-1.16 1.798-2.294 2.596-3.51-1.94 4.787-4.784 9.098-8.072 12.223-5.6 5.325-13.77 7.965-21.672 10.52l-2.873-8.89c2.916-.942 5.873-1.9 8.623-2.981.387 2.599 1.15 5.617 3.702 5.687 1.272.034 2.556-.566 3.206-1.66.624-1.047 1.091-1.831 2.504-1.843.856-.007 1.683.152 2.541.04.137-.018.282-.11.272-.272-.05-.747-.832-1.992-.185-2.602.74-.698 2.296.045 3.224-.428.42-.215.61-.38.665-.807.032-.247-.18-.63-.16-.937.04-.583-.019-.646.583-.977.927-.511 2.013-.513 2.885-1.146.875-.635 1.526-1.554 2.161-2.416"/><path fill="#ffdb8d" d="M79.36 18.607c.261.214.277 2.309.102 2.924l-.005.017a2.852 2.852 0 0 1-.044.439 38.429 38.429 0 0 1-1.67 5.8l-5.083-1.91a32.648 32.648 0 0 0 1.338-4.536 6.114 6.114 0 0 1 .111-1.262c.123-.676.373-1.55.707-2.243.258-.531.894-.47.942.107.03.358-.033.773-.042.997l.026-.008c.38-1.238.475-2.02 1.065-1.883.44.102.534.622.5 1.742.017.003.031.01.048.015.113-.575.325-1.15.753-1.094.426.056.475 1.1.44 1.714.016.013.031.024.046.038.257-.92.51-1.067.765-.857" data-paper-data="{&quot;origPos&quot;:null}"/><path fill="#ffdb8d" d="M79.578 19.987c0 .86-.038 1.375-.166 2a38.448 38.448 0 0 1-1.669 5.8l-5.082-1.91c.233-.617.45-1.267.655-1.937 1.45 1.29 3.334 2.27 4.677.233.745-1.133 1.165-2.69 1.585-4.186m-30.72 30.32a2.712 2.712 0 1 1-1.669-5.16z" data-paper-data="{&quot;origPos&quot;:null}"/><path fill="#ffc736" d="M53.584 40.894s.166 7.235.467 13.062c.302 5.826-.603 15.168-.503 16.574.101 1.407.704 2.512 2.01 3.717 1.305 1.206 5.223 1.909 5.525 2.914.301 1.004-.1 2.31-2.109 3.314-2.01 1.005-3.818.402-3.818.402s4.32 4.923 1.306 7.434c-3.014 2.51-9.544-1.206-9.544-1.206s-1.306 2.412-2.712 3.616c-1.407 1.206-4.22 2.813-7.434 2.713-3.215-.1-1.808-4.52-1.808-4.52s-2.713 1.607-5.673 2.61c-2.96 1.007-7.186.704-8.723-.903-1.536-1.607 2.843-5.224 2.843-5.224s-3.617.2-5.589 0c-1.972-.2-5.26-1.808-5.964-4.52-.703-2.712 7.735-2.712 8.71-3.515.975-.805 1.134-4.22 1.938-8.137.804-3.918 3.416-10.046 4.32-14.466.905-4.42.436-7.33.558-10.664C27.49 41.19 38.38 41.8 38.38 41.8z"/><path fill="#533a27" d="M43.102 2.925c5.477-1.808 10.95-.302 14.774 5.926 3.916 6.374 2.403 16.575-3.02 19.539-5.426 2.965-27.236 3.064-27.236 3.064s-5.716 1.455-7.826-3.818c-2.11-5.272-3.817-13.763 2.013-19.99C28.633.355 39.79 1.116 43.101 2.925"/><path fill="#533a27" d="M29.452 3.787c-2.8.884-5.233 1.95-7.526 3.74C28.762.367 39.81 1.127 43.1 2.925c3.442-1.136 6.881-.962 9.91.868-1.664-.537-3.377-.857-5.13-.823-.999.018-2.029.099-2.997.356-.666.177-1.338.55-2.046.534-.737-.017-1.346.09-1.994-.192-3.337-1.455-8.006-.951-11.39.119"/><path fill="#533a27" d="M52.098 29.183c-.083.089-.172.173-.256.26-7.922 1.936-24.222 2.01-24.222 2.01s-.347.089-.9.143c-3.378-2.844-6.183-6.548-6.609-11.024-.496-5.238 1.553-10.685 6.232-13.392 4.055-2.344 9.66-3.298 14.29-3.084 1.508.07 2.91.474 4.38.76 1.335.259 2.7.403 3.997.837 2.512.839 4.962 2.877 6.648 4.89 2.16 2.582 3.041 6.304 2.394 9.618-.478 2.454-2.195 4.343-3.822 6.176-.902.679-1.375 1.986-2.132 2.806"/><path fill="#ffdb8d" d="M25.995 27.517c.015 2.38-1.054 3.616-4.006 3.237-2.953-.38-5.734-3.946-5.444-6.314.46-3.766 5.03-4.5 7.17-2.194 1.862 2.005 2.262 2.653 2.28 5.27" data-paper-data="{&quot;origPos&quot;:null}"/><path fill="#ffdb8d" d="M20.28 23.648c-.568-.628-.99-1.616-.975-2.52 1.512-.454 3.292-.087 4.41 1.118 1.862 2.005 2.262 2.654 2.28 5.27.015 2.38-1.054 3.618-4.006 3.238-.068-.01-.136-.028-.204-.04a6.565 6.565 0 0 1-1.108-1.558c-.356-.702-.379-1.505-.709-2.217-.466-1.01-1.622-2.343.192-2.835.205-.056.255-.306.12-.455m33.303 3.867c.018-2.617.418-3.265 2.28-5.27 2.141-2.306 6.711-1.572 7.171 2.194.29 2.368-2.492 5.934-5.445 6.314-2.952.379-4.02-.857-4.005-3.237" data-paper-data="{&quot;origPos&quot;:null}"/><path fill="#ffdb8d" d="M55.47 30.68c-1.36-.371-1.897-1.48-1.886-3.164.018-2.616.418-3.265 2.278-5.27 1.153-1.242 3.007-1.594 4.547-1.075-.149.47-.327.93-.556 1.354-.228.422-.68.835-.796 1.307-.1.413.054.634.21 1.007.327.797.633 1.23.247 2.09-.224.5-.625.919-.99 1.32a12.12 12.12 0 0 1-3.055 2.43" data-paper-data="{&quot;origPos&quot;:null}"/><path fill="#ffdb8d" d="M57.772 26.33c0 9.93-8.05 12.658-17.983 12.658-9.93 0-17.982-2.726-17.982-12.657 0-9.932 1.644-21.297 17.982-21.297S57.772 16.399 57.772 26.33" data-paper-data="{&quot;origPos&quot;:null}"/><path fill="#ffdb8d" d="M26.465 22.578c-1.505.62-3.008 1.43-4.628 1.653.272-9.365 2.756-19.197 17.952-19.197 14.064 0 17.238 8.422 17.85 17.102-2.875-.747-5.57-2.247-8.258-3.454-1.634-.733-3.277-1.451-4.962-2.063-1.388-.504-2.806-1.072-4.308-.872-1.322.176-2.482.868-3.607 1.538-1.614.96-3.269 1.848-4.914 2.754-1.67.922-3.36 1.81-5.125 2.539" data-paper-data="{&quot;origPos&quot;:null}"/><path fill="#ff8eaf" d="M31.555 29.63a3.772 3.772 0 1 1-7.543.123 3.772 3.772 0 0 1 7.543-.123m24.01 0a3.772 3.772 0 1 1-7.543.123 3.772 3.772 0 0 1 7.543-.123"/><path fill="#007951" d="M32.608 18.57c.474.566.227 1.509-.08 2.112-.045.083-.09.163-.14.24.2.279.32.618.32.988a1.708 1.708 0 1 1-1.709-1.707c.073 0 .142.012.213.022.498-.396.467-1.326 1.028-1.702.104-.07.287-.05.368.047m17.5 2.112c-.043.083-.09.163-.14.24.2.28.32.619.32.988a1.708 1.708 0 1 1-1.709-1.707c.072 0 .142.012.212.02.5-.394.468-1.324 1.03-1.7.103-.07.286-.05.367.047.474.566.227 1.509-.08 2.112"/><path fill="#ff8eaf" d="M39.72 31.273c-2.712 0-5.295-1.785-6.224-4.345a.603.603 0 1 1 1.134-.412c.777 2.142 3.08 3.667 5.353 3.544 2.275-.121 4.402-1.88 4.947-4.092a.603.603 0 1 1 1.17.288c-.678 2.75-3.223 4.857-6.053 5.007-.109.006-.218.01-.327.01"/><path fill="#ffab66" d="M40.694 25a.603.603 0 0 1-.584-.755l.223-.857-.704-.193a.603.603 0 1 1 .32-1.163l1.278.352a.604.604 0 0 1 .423.733l-.373 1.432a.603.603 0 0 1-.583.45"/><path fill="#533a27" d="M38.681 3.829c2.235-.11 8.191.2 13.561 4.82 5.104 4.392 7.017 12.686 5.41 12.586-1.608-.101-9.628-5.352-15.958-6.457-6.329-1.107-20.394 10.75-20.895 8.84-.502-1.908-.63-9.836 4.498-14.21 6.552-5.59 11.148-5.47 13.384-5.58"/><path fill="#533a27" d="M26.05 13.63c-.192 3.314-1.492 6.397-2.907 9.388-1.188.643-2.008.966-2.268.725 2.193-3.111 3.002-6.984 5.174-10.113M31 11.536c.195 2.608-.464 5.2-1.42 7.659-.828.486-1.651.979-2.47 1.478 1.54-2.921 2.586-6.095 3.89-9.136m2.032 5.744c.941-2.21 1.681-4.5 2.567-6.732.29 1.846.112 3.726-.173 5.587-.81.355-1.609.737-2.394 1.145m5.873-9.424c1.034 2.197 1.7 4.499 2.11 6.855-.872-.031-1.858.135-2.914.44.09-1.028.277-2.053.424-3.075.2-1.4.193-2.821.38-4.22m4.336 1.78c1.896 1.565 2.82 4.01 3.316 6.573a33.057 33.057 0 0 0-2.66-.91c-.127-1.89-.547-3.763-.656-5.663m12.713 8.965c.213.738.383 1.487.51 2.245a41.846 41.846 0 0 1-1.814-.863c-.366-2.64-1.215-5.197-1.617-7.84 1.483 1.784 2.293 4.303 2.92 6.458m-4.82-1.786c.18.542.338 1.092.473 1.647a84.75 84.75 0 0 0-2.634-1.24c-.667-2.126-1.303-4.261-1.527-6.481 1.864 1.24 3.023 4.116 3.687 6.074"/><path fill="#fff" d="M33.462 49.234a2.712 2.712 0 1 1-5.424 0 2.712 2.712 0 0 1 5.424 0m9.04 6.78a2.712 2.712 0 1 1-5.424 0 2.712 2.712 0 0 1 5.424 0M53 59.272a2.712 2.712 0 1 1-5.424 0 2.712 2.712 0 0 1 5.424 0m-9.594 25.373a2.712 2.712 0 1 1-5.424 0 2.712 2.712 0 0 1 5.424 0m11.1-1.507a2.712 2.712 0 1 1-5.423.104 2.712 2.712 0 0 1 5.423-.104M32.003 85.85a2.712 2.712 0 1 1-5.424 0 2.712 2.712 0 0 1 5.424 0m-8.722-4.521a2.712 2.712 0 1 1-5.424 0 2.712 2.712 0 0 1 5.424 0m29.015-8.982a2.712 2.712 0 1 1-5.423.104 2.712 2.712 0 0 1 5.423-.104m-7.082-6.236a2.713 2.713 0 1 1-5.425 0 2.713 2.713 0 0 1 5.425 0m-10.498-4.128a2.712 2.712 0 1 1-5.424 0 2.712 2.712 0 0 1 5.424 0m-5.424 9.552a2.713 2.713 0 1 1-5.423 0 2.713 2.713 0 0 1 5.422 0M52.296 48.63a2.712 2.712 0 1 1-5.424 0 2.712 2.712 0 0 1 5.424 0M39.488 75.059a2.712 2.712 0 1 1-5.424 0 2.712 2.712 0 0 1 5.424 0"/><path fill="#ffc736" d="M6.926 93.377s3.507 4.972 4.11 7.082c0 0-5.68 1.16-6.23 2.16-.55 1.004-1.606 4.397-2.51 4.358-.904-.04-2.562-3.917-2.26-6.8.301-2.883 1.055-4.24 3.014-4.842 1.96-.603 3.876-1.96 3.876-1.96"/><path fill="#ffc736" d="M7.312 100c-.628-.077-1.236-.262-1.856-.383-.298-.058-.733-.217-1.03-.143-.715.178-.338.76-.067 1.232.127.22-.08.439-.307.4-1.312-.224-.84 1.152-.78 1.745.046.467.04.882-.03 1.349-.147.94-.43 1.844-.756 2.735.858-.38 1.807-3.382 2.32-4.315.55-1.002 6.23-2.161 6.23-2.161a6.744 6.744 0 0 0-.347-.903c-1.022.51-2.238.586-3.377.444m46.653 8.478s2.29.148 4.047-.65c1.758-.798 3.317-2.54 3.317-2.54s1.333 2.703 2.342 3.045c1.008.343 2-.946 2.824-1.237.823-.291 1.653-.592 1.874.304.221.895-2.97 4.852-4.594 6.056-1.624 1.203-3.505 2.577-4.218 2.318-.714-.258-4.258-4.93-5.592-7.296"/><path fill="#ffc736" d="M61.345 107.273c.008-.638.033-1.275.023-1.911.215.423 1.39 2.66 2.302 2.97 1.01.344 2.001-.946 2.825-1.236.804-.284 1.611-.571 1.854.252-1.083.148-2.025.553-2.973 1.297-.573.45-1.042.97-1.57 1.463-1.109 1.039-1.083-.417-1.279-1.174-.064-.247-.365-.242-.498-.065-.842 1.124-.69-1.072-.684-1.596m-1.743 7.25c.475.462 1.082.633 1.74.63-.77.468-1.425.752-1.785.622-.508-.184-2.443-2.597-4-4.827.216.25.447.485.692.707a7.055 7.055 0 0 0 1.785 1.183c.41.185.766.306 1.036.687.225.317.237.71.532.997"/><path fill="#ffdb8d" d="m42.793 41.538 3.335-.2c.264.633.41 1.356.41 2.17 0 3.727-3.022 5.843-6.749 5.843s-6.747-2.116-6.747-5.843a5.81 5.81 0 0 1 .233-1.673c1.169-.073 2.34-.1 3.51-.082v-2.86c.978.065 1.98.095 3.004.095s2.027-.031 3.003-.094v2.643z" data-paper-data="{&quot;origPos&quot;:null}"/><path fill="#ffdb8d" d="M46.128 41.338c.264.633.41 1.356.41 2.17 0 3.15-2.163 5.143-5.08 5.688a10.38 10.38 0 0 0 2.791-2.55c.848-1.112 1.588-3-.11-3.75-.59-.26-1.258-.2-1.883-.183-1.264.034-1.808-.214-1.498-1.658.037-.17-.077-.346-.263-.344-1.006.009-2.58.209-3.71-.192v-1.625c.978.063 1.98.094 3.004.094s2.027-.031 3.003-.094v2.643l3.336-.2" data-paper-data="{&quot;origPos&quot;:null}"/></g></svg>