<svg version="1.1" xmlns="http://www.w3.org/2000/svg" xmlns:xlink="http://www.w3.org/1999/xlink" width="57.59614" height="117.78398" viewBox="0,0,57.59614,117.78398"><g transform="translate(-211.29186,-121.25)"><g data-paper-data="{&quot;isPaintingLayer&quot;:true}" fill-rule="evenodd" stroke="none" stroke-width="1" stroke-linecap="butt" stroke-linejoin="miter" stroke-miterlimit="10" stroke-dasharray="" stroke-dashoffset="0" style="mix-blend-mode: normal"><path d="M261.953,180.157c3.622,4.618 5.006,18.506 5.006,18.506l-0.012,-0.06c0.46,0.678 0.79,1.554 0.9,2.53c0.246,2.316 -0.866,4.34 -2.486,4.512c-1.054,0.11 -2.066,-0.594 -2.712,-1.744c-0.596,0.494 -1.184,0.694 -1.612,0.464c-0.792,-0.416 -0.696,-2.15 0.208,-3.868c0.356,-0.648 0.764,-1.21 1.184,-1.63c0.048,-0.07 0.08,-0.136 0.114,-0.204c0,0 -1.572,-10.034 -3.238,-12.408c-0.85,-1.188 -1.388,-1.852 -1.582,-2.386c-0.156,-0.416 -0.32,-1.228 -0.388,-1.532c-0.534,-2.384 -3.488,-7.758 -3.488,-7.758c0,0 6.344,3.328 8.106,5.578M213.144,164.688c1.18,-0.502 2.598,-0.042 3.75,1.064c0.518,-0.786 1.142,-1.224 1.71,-1.11c1.068,0.21 1.564,2.254 1.122,4.554c-0.172,0.89 -0.456,1.686 -0.806,2.312c-0.05,0.298 -0.118,0.57 -0.204,0.82l5.42,6.376l11.496,-4.126c0,0 -1.952,3.106 -2.43,4.234c-0.358,0.826 -1.034,3.438 -1.034,3.438c0,0 -8.402,3.41 -10.782,2.55c-2.952,-1.07 -6.332,-10.666 -6.332,-10.666c-1.266,-0.448 -2.496,-1.668 -3.2,-3.334c-1.104,-2.608 -0.534,-5.346 1.29,-6.112" data-paper-data="{&quot;origPos&quot;:null}" fill="#77594b"/><path d="M219.792,168.91c-0.33,2.209 -1.422,3.873 -2.442,3.719c-1.022,-0.148 -1.58,-2.062 -1.25,-4.272c0.328,-2.208 1.426,-3.868 2.442,-3.716c1.024,0.148 1.586,2.062 1.25,4.27" data-paper-data="{&quot;origPos&quot;:null}" fill="#77594b"/><path d="M254.744,233.16c1.778,1.095 3.068,3.413 1.546,5.24c-1.15,1.285 -2.838,0.307 -4.124,-0.233c-1.424,-0.678 -3.052,-1.134 -4.334,-2.016c-0.836,-0.584 -1.808,-1.276 -2.368,-2.142c-0.178,-0.268 -0.262,-0.584 -0.19,-0.848h9.47zM234.503,233.16c-1.768,1.095 -3.066,3.413 -1.542,5.24c1.156,1.285 2.834,0.307 4.122,-0.233c1.424,-0.678 3.048,-1.134 4.334,-2.016c0.832,-0.584 1.806,-1.276 2.366,-2.142c0.18,-0.268 0.26,-0.584 0.192,-0.848h-9.472z" fill="#333433"/><path d="M256.882,207.368l-1.942,25.858h-9.806l-0.364,-18.7h-0.292l-0.368,18.7h-9.806l-1.932,-25.858z" fill="#226380"/><path d="M225.599,177.844c0,0 2.376,-1.098 10.49,-3.512c2.244,-1.08 6.794,-1.342 6.794,-1.342l1.718,0.058h0.152l1.726,-0.02c0,0 5.156,0.206 7.202,1.464v0.012c7.956,3.062 10.284,8.054 10.284,8.054c-0.822,3.212 -5.388,3.212 -5.388,3.212l-0.452,-0.648c1.986,9.776 2.238,22.24 2.238,22.24h-31.36c0,0 0.424,-15.022 2.996,-25.002l-5.05,1.956c0,0 -2.17,-3.762 -1.35,-6.472" fill="#565657"/><path d="M255.677,174.731c2.424,7.7 6.606,28.322 4.712,32.89c-1.948,2.148 -14.342,0.086 -15.566,-0.116c-1.218,0.202 -13.628,2.264 -15.57,0.116c-1.892,-4.568 2.286,-25.19 4.714,-32.89c1.368,-1.176 6.508,-1.546 6.508,-1.546l4.348,5.756l4.348,-5.756c0,0 5.132,0.37 6.506,1.546" fill="#e63744"/><path d="M253.926,182.515h3.354v3.61h-3.354zM253.926,189.675h3.354v3.42h-3.354zM253.926,196.637h3.354v3.542h-3.354zM253.926,203.731h3.354v3.356h-3.354zM246.83,182.515h3.62v3.61h-3.62zM246.83,189.675h3.62v3.42h-3.62zM246.83,196.637h3.62v3.542h-3.62zM246.83,203.731h3.62v3.356h-3.62zM239.874,182.515h3.42v3.61h-3.42zM239.874,189.675h3.42v3.42h-3.42zM239.874,196.637h3.42v3.542h-3.42zM239.874,203.731h3.42v3.356h-3.42zM232.776,182.515h3.61v3.61h-3.61zM232.776,189.675h3.61v3.42h-3.61zM232.776,196.637h3.61v3.542h-3.61zM232.776,203.731h3.61v3.356h-3.61zM260.832,203.732v1.878c-0.136,0.836 -0.228,1.518 -0.43,2.012c-1.946,2.146 -14.356,0.094 -15.578,-0.112c-1.22,0.206 -13.63,2.266 -15.57,0.12c-0.068,-0.164 -0.13,-0.352 -0.182,-0.542h0.164v-3.356h-0.46c0.01058,-1.18608 0.07197,-2.37117 0.184,-3.552h0.276v-2.488c0.712,-6.018 2.186,-13.344 3.54,-18.66v0.004h3.61v-3.356h-2.71c0.094,-0.322 0.194,-0.648 0.29,-0.948c1.37,-1.176 6.51,-1.548 6.51,-1.548l1.882,2.496h-2.484v3.356h3.42v-2.106l1.542,2.012l1.996,-2.628v2.722h3.618v-3.356h-3.17l1.892,-2.496c0,0 5.132,0.372 6.506,1.548c0.088,0.3 0.188,0.626 0.286,0.948h-2.036v3.355h2.938c1.856,7.288 3.962,18.378 3.996,24.696h-0.03z" fill="#ba3b4b"/><path d="M231.931,182.516c0.26126,-1.16362 0.53795,-2.32372 0.83,-3.48h0.016v3.48zM239.874,175.681h-3.488v-1.902c1.228,-0.292 2.706,-0.462 3.488,-0.54zM236.358,179.031h3.5v3.5h-3.5zM243.304,179.031h3.502v3.5h-3.502zM253.927,175.68h-3.476v-2.374c0.962,0.116 2.384,0.324 3.476,0.648zM250.45,179.031h3.498v3.5h-3.498zM257.28,180.772c0.137,0.568 0.293,1.162 0.43,1.744h-0.43v-1.744M230.459,189.674c0.21311,-1.18575 0.44247,-2.36853 0.688,-3.548h1.63v3.548zM236.358,186.127h3.5v3.543h-3.5zM243.304,186.127h3.502v3.543h-3.502zM250.45,186.127h3.498v3.543h-3.498zM258.492,186.125c0.234,1.164 0.47,2.324 0.688,3.548h-1.898v-3.548h1.21M232.776,196.639h-3.426c0.152,-1.158 0.33,-2.384 0.52,-3.544h2.907v3.545zM236.358,193.071h3.5v3.546h-3.5zM243.304,193.071h3.502v3.546h-3.502zM250.45,193.071h3.498v3.546h-3.498zM259.767,193.094c0.19342,1.17839 0.36744,2.35988 0.522,3.544h-3.008v-3.544h2.486M229.224,200.215h3.538v3.495h-3.538zM236.358,200.215h3.5v3.495h-3.5zM243.304,200.215h3.502v3.495h-3.502zM250.45,200.215h3.498v3.495h-3.498zM260.831,203.732h-3.55v-3.552h3.4c0.048,0.584 0.084,1.098 0.15,1.602zM229.236,207.086h3.542v1.48c-1.678,-0.082 -2.986,-0.358 -3.516,-0.944c-0.008,-0.036 -0.026,-0.062 -0.026,-0.096zM239.874,208.2c-1.15965,0.13441 -2.32275,0.23711 -3.488,0.308v-1.422h3.488v1.114M243.294,207.087h3.538v0.726c-1.028,-0.142 -1.75,-0.27 -1.996,-0.308c-0.216,0.034 -0.774,0.128 -1.542,0.238zM253.927,208.543c-1.158,-0.054 -2.326,-0.154 -3.476,-0.274v-1.184h3.476v1.458M260.567,207.086c-0.048,0.192 -0.114,0.378 -0.184,0.542c-0.493,0.54 -1.614,0.802 -3.103,0.91v-1.452z" fill="#343434"/><path d="M258.4,198.959l-7.426,-0.642v3.664c-0.0016,0.96233 0.38025,1.88564 1.06109,2.56574c0.68084,0.68009 1.60458,1.06092 2.56691,1.05826h0.174c2.00079,-0.00165 3.62235,-1.62321 3.624,-3.624v-3.021zM230.789,198.959l7.43,-0.642v3.664c-0.0022,2.00057 -1.62343,3.6218 -3.624,3.624h-0.182c-0.96131,0.00053 -1.88339,-0.38111 -2.56314,-1.06086c-0.67975,-0.67975 -1.06139,-1.60183 -1.06086,-2.56314v-3.021z" fill="#9b1826"/><path d="M244.824,178.941l0.164,-0.212v28.8c-0.07,-0.014 -0.12,-0.02 -0.164,-0.024c-0.04,0.004 -0.092,0.01 -0.16,0.024v-28.8z" fill="#343434"/><path d="M267.847,200.88326c0.246,2.312 -0.86,4.328 -2.476,4.5c-1.052,0.11 -2.066,-0.594 -2.702,-1.738c-0.592,0.492 -1.186,0.692 -1.608,0.464c-0.79,-0.414 -0.69,-2.146 0.208,-3.852c0.344,-0.658 0.758,-1.214 1.186,-1.628c0.03966,-0.07924 0.08168,-0.15727 0.126,-0.234l4.378,0.006c0.466,0.67 0.776,1.506 0.888,2.482M244.835,176.95726l3.764,-4.03c-1.128,-0.116 -1.944,-0.152 -1.944,-0.152l-1.738,0.072h-0.134l-1.738,-0.094c0,0 -0.9,0.04 -2.108,0.18l3.898,4.025zM266.98,152.52426c1.156,0.734 1.908,2.002 1.908,3.434c0,2.276 -1.912,4.132 -4.294,4.132c-0.07,0 -0.136,0 -0.206,-0.008c-3.846,6.894 -11.2,11.56 -19.656,11.56c-8.456,0 -15.826,-4.674 -19.666,-11.578c-0.152,0.018 -0.316,0.026 -0.476,0.026c-2.37,0 -4.3,-1.856 -4.3,-4.132c0,-1.536 0.88,-2.882 2.174,-3.59c-0.148,-1.058 -0.226,-2.136 -0.226,-3.228c0,-12.424 10.07,-22.502 22.494,-22.502c12.426,0 22.502,10.078 22.502,22.502c-0.00366,1.13262 -0.08855,2.26352 -0.254,3.384" data-paper-data="{&quot;origPos&quot;:null}" fill="#77594b"/><path d="M238.229,149.096c-0.772,-0.174 -0.908,-1.201 -3.386,-0.74c-0.779,0.18 -2.417,1.156 -2.732,1.808c-0.316,0.652 -0.088,-2.392 2.457,-3.522c1.835,-0.675 2.457,-0.642 3.977,-0.642c1.52,0 1.987,0.907 1.766,1.65c0,0 -0.503,1.803 -2.082,1.446zM252.134,149.096c0.772,-0.174 0.908,-1.201 3.386,-0.74c0.779,0.18 2.417,1.156 2.732,1.808c0.316,0.652 0.087,-2.392 -2.457,-3.522c-1.835,-0.675 -2.457,-0.642 -3.977,-0.642c-1.52,0 -1.987,0.907 -1.766,1.65c0,0 0.503,1.803 2.082,1.446zM236,158c-1.105,0 -2,-1.343 -2,-3c0,-1.657 0.895,-3 2,-3c1.105,0 2,1.343 2,3c0,1.657 -0.895,3 -2,3zM254,158c-1.105,0 -2,-1.343 -2,-3c0,-1.657 0.895,-3 2,-3c1.105,0 2,1.343 2,3c0,1.657 -0.895,3 -2,3z" fill="#343434"/><path d="M245.02,158.069c-1.125,0.153 -3.02,1.834 -3.02,1.834c0,0 0.207,-1.009 0.503,-1.299c0.8,-1.156 2.487,-1.604 2.487,-1.604c0,0 2.173,0.703 2.65,1.588c0.443,0.824 0.34,1.238 0.34,1.238c0,0 -2.121,-1.871 -2.96,-1.756z" fill="#eeac6c"/><path d="M238.2,161.696c0,0 6.897,3.208 13.172,-0.397c0,0 -1.39,5.47 -5.95,5.561c-4.115,0.122 -4.984,-1.492 -5.477,-1.956c-0.492,-0.463 -1.42,-1.772 -1.745,-3.208" data-paper-data="{&quot;origPos&quot;:null}" fill="#9b1826"/><path d="M236.18,154.368c0,1.394 -0.833,2.532 -1.869,2.532c-1.03,0 -1.862,-1.138 -1.862,-2.532c0,-1.394 0.832,-2.52 1.862,-2.52c1.036,0 1.868,1.126 1.868,2.52M256.238,154.368c0,1.394 -0.838,2.532 -1.872,2.532c-1.024,0 -1.858,-1.138 -1.858,-2.532c0,-1.394 0.834,-2.52 1.858,-2.52c1.034,0 1.872,1.126 1.872,2.52" fill="#ffffff"/><path d="M235.468,155.067c0,0.868 -0.518,1.566 -1.156,1.566c-0.634,0 -1.156,-0.698 -1.156,-1.566c0,-0.86 0.522,-1.558 1.156,-1.558c0.638,0 1.156,0.698 1.156,1.558M255.53,155.067c0,0.868 -0.52,1.566 -1.163,1.566c-0.634,0 -1.152,-0.698 -1.152,-1.566c0,-0.86 0.518,-1.558 1.152,-1.558c0.644,0 1.164,0.698 1.164,1.558" fill="#343434"/><path d="M268.122,146.465c0.042,2.648 -0.888,8.364 -2.69,11.766c0,0 -4.422,-12.516 -8.07,-14.498c-4.448,-2.428 -16.194,1.064 -20.176,-2.068c-0.668,-0.53 -0.582,-1.706 -0.582,-1.706c0,0 -0.768,1.502 -1.136,1.92c-1.926,2.196 -6.93,5.376 -9.306,7.086c-1.906,1.368 -1.998,1.352 -1.574,9.266c0,0 -3.5,-7.2 -3.312,-12.01c0.054,-1.39 0.722,-4.458 1.816,-7.58c3.96,-7.946 12.172,-13.406 21.646,-13.406c10.886,0 20.092,7.202 23.116,17.104c0.1581,1.37 0.24754,2.74706 0.268,4.126" fill="#333433"/><path d="M242.71026,174.475c-1.042,0 -1.894,-2.256 -1.894,-3.29h7.478c0,1.034 -0.85,3.29 -1.9,3.29h-3.684" data-paper-data="{&quot;origPos&quot;:null}" fill="#77594b"/><path d="M241.882,173.778c-0.422,-0.634 -0.718,-1.532 -0.79,-2.172c1.184,0.188 2.404,0.298 3.646,0.298c1.304,0 2.574,-0.114 3.804,-0.328l-0.012,0.014l-6.648,2.188" fill="#eeac6c"/><path d="M260.348,151.719c0.388,1.386 1.126,4.928 -0.192,6.704c-2.054,2.756 -11.62,-0.93 -13.758,-3.622c-0.76,-0.964 -0.508,-2.372 -0.252,-3.098h-2.848c0.256,0.726 0.514,2.146 -0.252,3.112c-2.132,2.694 -11.706,6.35 -13.754,3.596c-1.332,-1.778 -0.59,-5.306 -0.194,-6.692l-1.84,-1.334h34.902z" fill="#343434"/><path d="M232.654,151.737c0.08495,0.13312 0.11351,0.29454 0.07937,0.44872c-0.03414,0.15418 -0.12816,0.28847 -0.26137,0.37328l-2.054,1.324c-0.1313,0.08575 -0.29145,0.1154 -0.44474,0.08233c-0.15329,-0.03306 -0.28698,-0.12609 -0.37126,-0.25833l-0.004,-0.008c-0.08649,-0.1306 -0.11637,-0.29066 -0.08283,-0.44367c0.03354,-0.153 0.12764,-0.28589 0.26083,-0.36833l2.058,-1.332c0.27576,-0.17382 0.63986,-0.09567 0.82,0.176zM231.812,154.645c0,0.36 -0.292,0.66 -0.666,0.66c-0.36262,-0.0022 -0.65511,-0.29737 -0.654,-0.66c0,-0.37 0.29,-0.664 0.654,-0.664c0.374,0 0.666,0.294 0.666,0.664" fill="#515151"/><path d="M221.865,143.028c0,0 8.112,-7.262 22.724,-7.262c12.036,0 23.192,7.262 23.192,7.262c0,11.618 -6.09,8.93 -11.528,6.91c-11.664,-4.324 -11.664,-4.324 -23.668,-0.16c-5.206,1.802 -10.72,4.204 -10.72,-6.75" fill="#7f4a1a"/><path d="M221.804,143.056c-2.346,-2.354 5.492,-21.806 23.214,-21.806c17.182,0 25.294,19.27 22.762,21.805c-23.874,-6.188 -45.976,0 -45.976,0" fill="#ad6921"/></g></g></svg>