<svg xmlns="http://www.w3.org/2000/svg" width="55.829" height="110.605"><g fill-rule="evenodd" stroke-miterlimit="10" data-paper-data="{&quot;isPaintingLayer&quot;:true}" style="mix-blend-mode:normal"><path fill="#424242" d="M29.416 39.378c3.01 6.174 8.234-1.663 11.806.663 5.529 3.599 6.87-3.244 8.996-2.968 5.05.654 7.29-4.391 4.198-9.364-1.336-2.15-3.155-2.541-4.376-4.185-2.204-2.964-2.296-6.135-4.3-9.632M26.414 39.378c-3.011 6.174-8.234-1.663-11.806.663-5.53 3.599-6.87-3.244-8.996-2.968-5.05.654-7.29-4.391-4.198-9.364 1.336-2.15 3.155-2.541 4.377-4.185 2.203-2.964 2.258-8.563 4.65-11.62"/><path fill="#a0713e" d="M39.6 41.283 37.1 56.16H18.18l-2.5-14.877 8.539-1.72v-5.86h6.843v5.86z" data-paper-data="{&quot;origPos&quot;:null}"/><path fill="#0288d1" d="M27.545 47.71c1.49-4.537 11.863-5.15 11.863-5.15l-.352.82c-4.418 7.546-10.452 5.273-11.512 4.8-1.057.473-7.093 2.746-11.51-4.8l-.353-.82s10.372.612 11.864 5.152"/><path fill="#4fc3f7" d="M37.1 56.16s2.334 2.227 5.286 6.33H12.343c1.695-2.435 3.629-4.604 5.837-6.33l-2.453-14.606c.859 3.705 5.895 6.549 11.98 6.549 5.61 0 10.328-2.417 11.704-5.697L37.1 56.16M42.386 62.49c5.093 7.077 12.029 19.74 12.029 36.218.015-.005-.833 2.712-2.54 3.298-1.705.594-4.007-1.035-3.993-1.04.014-.003-1.071 2.617-2.813 3.034-1.741.426-3.872-1.417-3.858-1.42.014-.002-1.3 2.5-3.066 2.75-1.766.257-3.711-1.78-3.696-1.782.014-.001-1.521 2.367-3.3 2.447-1.776.088-3.523-2.124-3.508-2.124.015 0-1.732 2.212-3.51 2.124-1.777-.08-3.313-2.447-3.298-2.447.014.002-1.931 2.039-3.696 1.782-1.766-.25-3.081-2.752-3.066-2.75.014.003-2.117 1.846-3.858 1.42-1.743-.417-2.828-3.037-2.813-3.034.014.005-2.288 1.634-3.994 1.04C1.7 101.42.852 98.703.866 98.708c0 0 1.875-22.423 11.477-36.218z"/><path fill="#0288d1" d="M25.359 105.04c-1.183 2.846-3.833 6.078-5.2 5.497-1.367-.582-.934-4.756.25-7.601 1.185-2.845 2.67-3.284 4.037-2.702 1.368.58 2.098 1.962.913 4.807M29.923 105.04c-1.184-2.844-.454-4.225.91-4.806 1.369-.582 2.855-.143 4.04 2.702 1.184 2.845 1.617 7.019.25 7.6-1.367.582-4.016-2.65-5.2-5.495"/><path fill="#fdd835" d="M54.415 98.707c.015-.004-.833 2.713-2.54 3.299-1.705.594-4.008-1.035-3.993-1.04.014-.003-1.07 2.617-2.813 3.035-1.742.424-3.872-1.417-3.858-1.421.015-.002-1.3 2.5-3.066 2.75-1.766.257-3.711-1.78-3.696-1.782.014 0-1.521 2.367-3.3 2.447-1.777.088-3.523-2.123-3.51-2.125.017.002-1.73 2.213-3.507 2.125-1.778-.08-3.314-2.448-3.3-2.447.016.002-1.93 2.039-3.695 1.782-1.766-.25-3.08-2.752-3.066-2.75.014.004-2.117 1.845-3.858 1.42-1.742-.417-2.828-3.037-2.813-3.034.014.005-2.288 1.634-3.993 1.04-1.707-.585-2.555-3.303-2.541-3.3 0 0 2.593-31.038 17.314-42.546l9.239 6.44 9.683-6.44s17.313 16.515 17.313 42.546"/><path fill="#0288d1" d="m27.369 65.123-10.83-7.55a24.28 24.28 0 0 1 1.64-1.413l9.24 6.44 9.683-6.44s.548.523 1.446 1.526l-11.18 7.436z"/><path fill="#a0713e" d="M18.603 69.218c.358.259.685.558.976.892.843.952 1.267 1.957.949 2.245-.195.176-.626.039-1.124-.312.257 1.538.35 3.548-.454 5.058 0 0-3.393-3.164-3.486-6.273-.08-2.634-7.633-12.508-1.5-28.268l2.07.82.952 5.668c-1.368 4.334-2.306 11.499 1.617 20.17" data-paper-data="{&quot;origPos&quot;:null}"/><path fill="#b47f46" d="M45.736 21.354c0 8.855-8.212 15.719-18.341 15.719-10.13 0-18.341-6.864-18.341-15.72 0-8.855 8.21-17.61 18.34-17.61 10.13 0 18.342 8.755 18.342 17.61" data-paper-data="{&quot;origPos&quot;:null}"/><path fill="#424242" d="M26.789 11.609 8.257 18.772C8.814 10.25 13.112.125 27.64.125c13.582 0 19.243 9.166 19.8 17.688z"/><path fill="#5d4037" d="M19.299 23.75c0 .86-.69 1.56-1.542 1.56a1.551 1.551 0 0 1-1.542-1.56c0-.86.69-1.56 1.542-1.56.852 0 1.542.7 1.542 1.56"/><path fill="none" stroke="#5d4037" stroke-linecap="round" stroke-linejoin="round" stroke-width=".756" d="m16.307 21.23 1.44 2.293M14.64 21.95l2.29 1.905"/><path fill="#5d4037" d="M35.983 23.75c0-.86.69-1.56 1.542-1.56.852 0 1.542.7 1.542 1.56a1.55 1.55 0 0 1-1.542 1.56 1.551 1.551 0 0 1-1.542-1.56"/><path fill="none" stroke="#5d4037" stroke-linecap="round" stroke-linejoin="round" stroke-width=".756" d="m38.975 21.23-1.44 2.293m3.106-1.573-2.29 1.905"/><path fill="#ef5350" d="M31.062 31.317c-.684 1.63-1.958 2.73-3.421 2.73-1.463 0-2.737-1.1-3.422-2.73z"/><path fill="#ffccbc" d="M15.003 27.709c2.717 0 4.92 2.227 4.92 4.973 0 .935-.262 1.851-.758 2.644-3.176-1.4-5.804-3.57-7.547-6.247a4.87 4.87 0 0 1 3.385-1.37m28.66 1.37c-1.742 2.678-4.371 4.847-7.546 6.247a4.977 4.977 0 0 1-.758-2.644c0-2.747 2.203-4.973 4.92-4.973a4.87 4.87 0 0 1 3.385 1.37"/><path fill="#a0713e" d="M36.627 69.218c3.923-8.671 2.984-15.836 1.617-20.17l.952-5.667 2.068-.821c6.134 15.76-1.42 25.634-1.498 28.268-.094 3.109-3.487 6.273-3.487 6.273-.804-1.51-.711-3.52-.453-5.058-.498.35-.93.488-1.125.312-.318-.288.107-1.293.949-2.245.325-.368.664-.671.977-.892" data-paper-data="{&quot;origPos&quot;:null}"/><path fill="none" stroke="#fbc02d" stroke-linecap="round" stroke-linejoin="round" stroke-width="1.247" d="M10.44 81.518S7.404 87.376 7.247 97.55M43.94 81.518s3.039 5.858 3.195 16.033"/><path fill="none" stroke="#fbc02d" stroke-linecap="round" stroke-linejoin="round" stroke-width="1.254" d="M19.39 83.03s-2.664 6.7-2.821 16.98m19.167-16.98s2.666 6.7 2.822 16.98"/><path fill="none" stroke="#fbc02d" stroke-linecap="round" stroke-linejoin="round" stroke-width="1.288" d="M26.789 101.34V84.29"/><path fill="#0288d1" d="m39.438 41.54-1.007 5.756c.145.17.617.687 1.389.806.11.018 1.315.187 1.7-.526.293-.541.03-1.435-.763-1.965.226.162.487.27.763.316.224.036.768.122 1.18-.246.355-.316.52-.888.313-1.368-.243-.563-.941-.868-1.597-.632.136-.062.696-.337.902-.947.266-.785-.144-1.863-1.04-2.105-.698-.19-1.487.183-1.84.913m-23.578.056 1.006 5.754c-.144.172-.617.689-1.388.807-.111.017-1.315.188-1.7-.526-.293-.541-.03-1.435.763-1.965a1.81 1.81 0 0 1-.764.316c-.223.036-.768.122-1.18-.246-.354-.316-.52-.888-.312-1.368.243-.563.94-.868 1.597-.631-.137-.063-.697-.338-.903-.948-.266-.785.144-1.863 1.04-2.105.699-.188 1.488.182 1.84.912"/><path fill="#424242" d="M9.334 20.199s-1.032-13.77 17.455-8.97c0 0-3.431 7.409-17.455 8.97m17.455-8.97c18.119-6.22 19.962 9.18 19.962 9.18-17.201-1.371-19.962-9.18-19.962-9.18"/><path fill="#ef5350" d="M27.64 8.602c-6.407 0-12.076 2.933-15.555 7.04 2.466-5.796 8.499-10.45 15.556-10.45 7.056 0 13.09 4.654 15.556 10.45-3.48-4.107-9.148-7.04-15.556-7.04"/><path fill="#e53935" d="M28.108 7.87s2.8-6.481 6.064-7.564c3.262-1.084 3.613.854 4.512 3.62.9 2.768 2.007 5.316-1.256 6.399-3.262 1.084-9.32-2.455-9.32-2.455"/><path fill="#e53935" d="M28.685 7.87s-6.058 3.539-9.32 2.455c-3.263-1.083-2.156-3.631-1.256-6.398.899-2.767 1.25-4.705 4.512-3.621 3.263 1.083 6.064 7.564 6.064 7.564"/><path fill="#ef5350" d="M32.075 6.787c0 1.085-1.584 1.965-3.537 1.965-1.954 0-3.537-.88-3.537-1.965C25 5.7 26.584 4.82 28.538 4.82c1.953 0 3.536.88 3.536 1.966"/></g></svg>