<svg version="1.1" xmlns="http://www.w3.org/2000/svg" xmlns:xlink="http://www.w3.org/1999/xlink" width="73.70972" height="107.99983" viewBox="0,0,73.70972,107.99983"><g transform="translate(-204.00028,-132.00017)"><g data-paper-data="{&quot;isPaintingLayer&quot;:true}" fill-rule="evenodd" stroke-miterlimit="10" stroke-dasharray="" stroke-dashoffset="0" style="mix-blend-mode: normal"><path d="M263.446,240h-42.67v-26.37c0,-10.227 8.29,-18.517 18.516,-18.517h5.637c10.227,0 18.517,8.29 18.517,18.517z" data-paper-data="{&quot;origPos&quot;:null}" fill="#467854" stroke="none" stroke-width="1" stroke-linecap="butt" stroke-linejoin="miter"/><path d="M265.932,217.656h-14.22c-2.93436,-0.00099 -5.35935,-2.28909 -5.53067,-5.21844c-0.17131,-2.92935 1.97043,-5.48452 4.88467,-5.82756h-0.102c-3.03145,-0.04073 -5.46756,-2.50977 -5.46756,-5.5415c0,-3.03173 2.4361,-5.50078 5.46756,-5.5415h14.968c6.495,0 11.778,4.964 11.778,11.065c0,6.1 -5.283,11.064 -11.778,11.064" fill="#467854" stroke="none" stroke-width="1" stroke-linecap="butt" stroke-linejoin="miter"/><path d="M265.025,203.229l-9.256,2.204" fill="none" stroke="#736357" stroke-width="1.108" stroke-linecap="round" stroke-linejoin="round"/><path d="M215.41,219.765c-2.01822,0.00575 -4.00513,-0.49888 -5.776,-1.467c-2.748,-1.51 -4.708,-4.078 -5.377,-7.043c-1.343,-5.95 2.717,-11.955 9.052,-13.385l13.871,-3.133c2.86664,-0.6568 5.74702,1.04035 6.56166,3.86619c0.81464,2.82584 -0.7203,5.79584 -3.49666,6.76581l0.098,-0.022c1.94299,-0.467 3.98693,0.14819 5.34937,1.61005c1.36244,1.46186 1.83237,3.54401 1.22989,5.44935c-0.60247,1.90534 -2.18405,3.33879 -4.13927,3.7516l-14.6,3.297c-0.921,0.207 -1.852,0.31 -2.773,0.31" fill="#467854" stroke="none" stroke-width="1" stroke-linecap="butt" stroke-linejoin="miter"/><path d="M250.146,197.053c0,4.43761 -3.59739,8.035 -8.035,8.035c-4.43761,0 -8.035,-3.59739 -8.035,-8.035c0,-4.43761 3.59739,-8.035 8.035,-8.035c4.43761,0 8.035,3.59739 8.035,8.035" fill="#e7a675" stroke="none" stroke-width="1" stroke-linecap="butt" stroke-linejoin="miter"/><path d="M250.146,197.053c0,4.43761 -3.59739,8.035 -8.035,8.035c-4.43761,0 -8.035,-3.59739 -8.035,-8.035c0,-4.43761 3.59739,-8.035 8.035,-8.035c4.43761,0 8.035,3.59739 8.035,8.035" fill="#ee8d50" stroke="none" stroke-width="1" stroke-linecap="butt" stroke-linejoin="miter"/><path d="M241.834,198.992c-15.303,0 -27.708,-12.405 -27.708,-27.707v-5.542c0,-15.303 12.405,-27.708 27.708,-27.708c15.302,0 27.708,12.405 27.708,27.708v5.542c0,15.302 -12.406,27.707 -27.708,27.707" data-paper-data="{&quot;origPos&quot;:null}" fill="#e6c69f" stroke="none" stroke-width="1" stroke-linecap="butt" stroke-linejoin="miter"/><path d="M233.521,185.416c0.02876,2.2957 -1.1795,4.42943 -3.16298,5.58566c-1.98348,1.15623 -4.43556,1.15623 -6.41904,0c-1.98348,-1.15623 -3.19174,-3.28995 -3.16298,-5.58566c0.0437,-3.4883 2.88393,-6.29317 6.3725,-6.29317c3.48857,0 6.3288,2.80487 6.3725,6.29317M262.892,185.416c0,3.51971 -2.85329,6.373 -6.373,6.373c-3.51971,0 -6.373,-2.85329 -6.373,-6.373c0,-3.51971 2.85329,-6.373 6.373,-6.373c3.51971,0 6.373,2.85329 6.373,6.373" fill="#f18445" stroke="none" stroke-width="1" stroke-linecap="butt" stroke-linejoin="miter"/><path d="M241.834,138.33c1.6052,-3.22692 4.59963,-5.54119 8.127,-6.281c1.239,-0.257 2.402,0.7 2.402,1.965c0,5.816 -4.714,10.53 -10.529,10.53c-5.815,0 -10.529,-4.714 -10.529,-10.529c0,-1.348 1.082,-2.24 2.402,-1.965c3.52724,0.73945 6.52169,3.05336 8.127,6.28" fill="#333333" stroke="none" stroke-width="1" stroke-linecap="butt" stroke-linejoin="miter"/><path d="M208.584,175.553v-1.887c0,-3.12814 2.53586,-5.664 5.664,-5.664c3.12814,0 5.664,2.53586 5.664,5.664v1.887c0,3.12814 -2.53586,5.664 -5.664,5.664c-3.12814,0 -5.664,-2.53586 -5.664,-5.664M263.756,175.553v-1.887c0.04118,-3.09851 2.56471,-5.58874 5.6635,-5.58874c3.09879,0 5.62232,2.49023 5.6635,5.58874v1.887c-0.04118,3.09851 -2.56471,5.58874 -5.6635,5.58874c-3.09879,0 -5.62233,-2.49023 -5.6635,-5.58874" data-paper-data="{&quot;origPos&quot;:null}" fill="#e6c69f" stroke="none" stroke-width="1" stroke-linecap="butt" stroke-linejoin="miter"/><path d="M259.068,143.335c6.379,4.995 10.472,12.696 10.472,21.342v5.453c0,1.071 -0.069,2.125 -0.19,3.163c-4.489,-1.121 -8.172,-6.183 -9.65,-12.943c-1.27798,0.72322 -2.72157,1.10289 -4.19,1.102c-2.6151,0.00566 -5.08601,-1.19768 -6.694,-3.26c-1.543,1.979 -3.964,-9.074 -6.694,-9.074c-2.731,0 -5.151,11.054 -6.694,9.074c-1.60779,2.0627 -4.07872,3.26642 -6.694,3.261c-1.46885,0.00075 -2.91282,-0.37927 -4.191,-1.103c-1.539,7.04 -5.469,12.247 -10.209,13.07c-0.132,-1.08 -0.208,-2.176 -0.208,-3.29v-5.453c0,-6.19 2.099,-11.895 5.629,-16.472c5.389,-6.222 13.407,-10.17 22.367,-10.17c6.05908,-0.01254 11.97558,1.83767 16.948,5.3" fill="#666666" stroke="none" stroke-width="1" stroke-linecap="butt" stroke-linejoin="miter"/><path d="M270.927,174.333c-0.73483,-0.00027 -1.43964,0.29145 -1.95933,0.81096c-0.51969,0.51951 -0.81167,1.22422 -0.81167,1.95904M212.741,174.333c1.52983,0 2.77,1.24017 2.77,2.77" fill="none" stroke="#f18445" stroke-width="1.662" stroke-linecap="round" stroke-linejoin="round"/><path d="M263.169,211.938c0,4.35946 -3.53404,7.8935 -7.8935,7.8935c-4.35946,0 -7.8935,-3.53404 -7.8935,-7.8935c0,-4.35946 3.53404,-7.8935 7.8935,-7.8935c4.35946,0 7.8935,3.53404 7.8935,7.8935" data-paper-data="{&quot;origPos&quot;:null}" fill="#e6c69f" stroke="none" stroke-width="1" stroke-linecap="butt" stroke-linejoin="miter"/><path d="M251.532,177.519h-1.663c0,-4.43 -3.605,-8.035 -8.035,-8.035c-4.43,0 -8.035,3.604 -8.035,8.035h-1.663c0,-5.347 4.35,-9.698 9.698,-9.698c5.347,0 9.698,4.35 9.698,9.698" fill="#42210b" stroke="none" stroke-width="1" stroke-linecap="butt" stroke-linejoin="miter"/><path d="M240.31,173.917c0,4.89684 -3.96966,8.8665 -8.8665,8.8665c-4.89684,0 -8.8665,-3.96966 -8.8665,-8.8665c0,-4.89684 3.96966,-8.8665 8.8665,-8.8665c4.89684,0 8.8665,3.96966 8.8665,8.8665" fill="#5b8ff7" stroke="none" stroke-width="1" stroke-linecap="butt" stroke-linejoin="miter"/><path d="M231.166,183.059c-2.61072,0.00146 -5.08867,-1.15076 -6.77,-3.148l12.488,-12.487c1.99761,1.68114 3.15022,4.15912 3.149,6.77l-8.867,8.866" fill="#feffff" stroke="none" stroke-width="1" stroke-linecap="butt" stroke-linejoin="miter"/><path d="M231.443,165.882c-4.43,0 -8.035,3.604 -8.035,8.035c0,4.43 3.605,8.035 8.035,8.035c4.43,0 8.036,-3.605 8.036,-8.035c0,-4.43 -3.605,-8.035 -8.036,-8.035M231.443,183.615c-5.347,0 -9.697,-4.35 -9.697,-9.698c0,-5.347 4.35,-9.698 9.697,-9.698c5.348,0 9.698,4.35 9.698,9.698c0,5.347 -4.35,9.698 -9.698,9.698" fill="#42210b" stroke="none" stroke-width="1" stroke-linecap="butt" stroke-linejoin="miter"/><path d="M261.09,174.194c0.04805,3.19925 -1.63121,6.17626 -4.39411,7.78992c-2.7629,1.61366 -6.18086,1.61366 -8.94377,0c-2.7629,-1.61366 -4.44216,-4.59067 -4.39411,-7.78992c0.05161,-4.8601 4.00612,-8.77283 8.8665,-8.77283c4.86038,0 8.81488,3.91273 8.8665,8.77283z" fill="none" stroke="#42210b" stroke-width="1.662" stroke-linecap="butt" stroke-linejoin="miter"/><path d="M261.09,174.194c0.04805,3.19925 -1.63121,6.17626 -4.39411,7.78992c-2.7629,1.61366 -6.18086,1.61366 -8.94377,0c-2.7629,-1.61366 -4.44216,-4.59067 -4.39411,-7.78992c0.05161,-4.8601 4.00612,-8.77283 8.8665,-8.77283c4.86038,0 8.81488,3.91273 8.8665,8.77283" fill="#5b8ff7" stroke="none" stroke-width="1" stroke-linecap="butt" stroke-linejoin="miter"/><path d="M252.224,183.059c-2.61072,0.00146 -5.08866,-1.15076 -6.77,-3.148l12.488,-12.487c1.99761,1.68114 3.15022,4.15912 3.149,6.77l-8.867,8.866" fill="#feffff" stroke="none" stroke-width="1" stroke-linecap="butt" stroke-linejoin="miter"/><path d="M252.224,166.159c-4.43,0 -8.035,3.604 -8.035,8.035c0,4.43 3.605,8.035 8.035,8.035c4.43,0 8.036,-3.605 8.036,-8.035c0,-4.43 -3.605,-8.035 -8.036,-8.035M252.224,183.892c-5.347,0 -9.697,-4.35 -9.697,-9.698c0,-5.347 4.35,-9.698 9.697,-9.698c5.348,0 9.698,4.35 9.698,9.698c0,5.347 -4.35,9.698 -9.698,9.698" fill="#42210b" stroke="none" stroke-width="1" stroke-linecap="butt" stroke-linejoin="miter"/><path d="M264.139,175.302h-3.325c-0.76491,0 -1.385,-0.62008 -1.385,-1.385c0,-0.76492 0.62009,-1.385 1.385,-1.385h3.325c0.76491,0 1.385,0.62008 1.385,1.385c0,0.76492 -0.62009,1.385 -1.385,1.385M222.854,175.58h-3.325c-0.76519,0 -1.3855,-0.62031 -1.3855,-1.3855c0,-0.76519 0.62031,-1.3855 1.3855,-1.3855h3.325c0.76492,0 1.385,0.62008 1.385,1.385c0,0.76492 -0.62008,1.385 -1.385,1.385" fill="#42210b" stroke="none" stroke-width="1" stroke-linecap="butt" stroke-linejoin="miter"/><path d="M244.605,185.139c0,1.53038 -1.24062,2.771 -2.771,2.771c-1.53038,0 -2.771,-1.24062 -2.771,-2.771" fill="none" stroke="#42210b" stroke-width="2.771" stroke-linecap="round" stroke-linejoin="miter"/><path d="M271.415,164.081h-5.78c-0.415,0 -0.802,-0.21 -1.028,-0.558l-0.214,-0.33c-0.24443,-0.3761 -0.67473,-0.58869 -1.12196,-0.5543c-0.44723,0.03438 -0.83998,0.31026 -1.02404,0.7193c-0.197,0.44 -0.635,0.723 -1.117,0.723h-12.734c-0.588,0 -1.094,-0.418 -1.204,-0.995l-0.535,-2.788c-0.25,-1.3 -2.095,-1.337 -2.397,-0.05l-0.68,2.888c-0.13,0.553 -0.624,0.945 -1.193,0.945h-30.134c-0.66323,-0.00017 -1.20689,-0.52614 -1.229,-1.189c-0.41,-12.679 11.266,-24.857 30.81,-24.857c19.543,0 31.22,12.177 30.81,24.857c-0.02263,0.66246 -0.56615,1.18785 -1.229,1.188z" fill="#333333" stroke="none" stroke-width="1" stroke-linecap="butt" stroke-linejoin="miter"/><path d="M256.242,210.14h-9.42c-1.52983,0 -2.77,-1.24017 -2.77,-2.77c0,-1.52983 1.24017,-2.77 2.77,-2.77h9.42c1.52983,0 2.77,1.24017 2.77,2.77c0,1.52983 -1.24017,2.77 -2.77,2.77" data-paper-data="{&quot;origPos&quot;:null}" fill="#e6c69f" stroke="none" stroke-width="1" stroke-linecap="butt" stroke-linejoin="miter"/><path d="M241.727,199.292l-0.148,7.154c-0.05084,2.46112 -2.08686,4.41522 -4.548,4.365l-16.971,-0.35c-2.46151,-0.0503 -4.41622,-2.08648 -4.366,-4.548l0.148,-7.153c0.05084,-2.46112 2.08686,-4.41522 4.548,-4.365l16.971,0.349c2.46151,0.0503 4.41622,2.08648 4.366,4.548" fill="#666666" stroke="none" stroke-width="1" stroke-linecap="butt" stroke-linejoin="miter"/><path d="M241.52,200.357l-0.147,7.153c-0.05084,2.46112 -2.08686,4.41522 -4.548,4.365l-16.971,-0.349c-2.46151,-0.0503 -4.41622,-2.08648 -4.366,-4.548l0.148,-7.154c0.05084,-2.46112 2.08686,-4.41522 4.548,-4.365l16.971,0.35c2.46112,0.05084 4.41522,2.08686 4.365,4.548" fill="#cccccc" stroke="none" stroke-width="1" stroke-linecap="butt" stroke-linejoin="miter"/><path d="M220.032,197.053c0.47172,0.00072 0.90627,0.25614 1.13637,0.66794c0.2301,0.4118 0.21985,0.91576 -0.02679,1.31787c-0.24664,0.40211 -0.69122,0.63965 -1.16258,0.6212c-0.71007,-0.02781 -1.26716,-0.61903 -1.25271,-1.3295c0.01444,-0.71048 0.59509,-1.27858 1.30571,-1.2775M222.303,197.456c0.28339,-0.00249 0.54572,0.14932 0.68476,0.39626c0.13905,0.24695 0.13281,0.54997 -0.01628,0.79099c-0.14909,0.24102 -0.41744,0.3819 -0.70049,0.36775c-0.42026,-0.02101 -0.74765,-0.37234 -0.739,-0.79304c0.00866,-0.42069 0.35023,-0.75826 0.771,-0.76197" fill="#666666" stroke="none" stroke-width="1" stroke-linecap="butt" stroke-linejoin="miter"/><path d="M227.149,211.938c0,4.35946 -3.53404,7.8935 -7.8935,7.8935c-4.35946,0 -7.8935,-3.53404 -7.8935,-7.8935c0,-4.35946 3.53404,-7.8935 7.8935,-7.8935c4.35946,0 7.8935,3.53404 7.8935,7.8935" data-paper-data="{&quot;origPos&quot;:null}" fill="#e6c69f" stroke="none" stroke-width="1" stroke-linecap="butt" stroke-linejoin="miter"/><path d="M214.298,194.005c-0.82318,0 -1.4905,-0.66732 -1.4905,-1.4905c0,-0.82318 0.66732,-1.4905 1.4905,-1.4905c0.82318,0 1.4905,0.66732 1.4905,1.4905c0,0.82318 -0.66732,1.4905 -1.4905,1.4905" fill="#ffffff" stroke="none" stroke-width="1" stroke-linecap="butt" stroke-linejoin="miter"/><path d="M210.572,192.515c-0.00027,-0.98837 0.39218,-1.93635 1.09097,-2.63532c0.69879,-0.69897 1.64666,-1.09167 2.63503,-1.09167M207.963,192.515c0,-3.49873 2.83628,-6.335 6.335,-6.335" fill="none" stroke="#ffffff" stroke-width="1.491" stroke-linecap="round" stroke-linejoin="miter"/></g></g></svg>