<svg xmlns="http://www.w3.org/2000/svg" width="58.976" height="116.7"><g fill-rule="evenodd" stroke-miterlimit="10" data-paper-data="{&quot;isPaintingLayer&quot;:true}" style="mix-blend-mode:normal"><path fill="#c09669" d="M33.681 110.768c.062.252-.024.532-.204.806-.578.892-1.574 1.532-2.418 2.136-1.32.892-2.988 1.38-4.446 2.08-1.312.55-3.05 1.588-4.224.27-1.56-1.864-.236-4.162 1.584-5.292h-.01L23.5 99.07H33.68v11.698m11.035 0c1.82 1.124 3.134 3.428 1.58 5.292-1.186 1.318-2.912.28-4.232-.27-1.448-.7-3.118-1.188-4.43-2.08-.858-.604-1.86-1.244-2.434-2.136-.178-.274-.264-.542-.192-.806h-.01V99.07H45.18l-.464 11.698" data-paper-data="{&quot;origPos&quot;:null}"/><path fill="#eeac6c" d="m30.72 104.102-.127-.016c.014-.054.732-5.132.732-6.808h.126c0 1.676-.718 6.778-.732 6.824m-5.324 0c-.014-.046-.736-5.148-.736-6.824h.134c0 1.676.716 6.754.724 6.808zm12.568 0 .13-.016c-.008-.054-.736-5.132-.736-6.808h-.122c0 1.676.728 6.778.728 6.824m5.33 0c.016-.046.732-5.148.732-6.824h-.13c0 1.676-.718 6.754-.722 6.808z"/><path fill="#333433" d="m46.903 84.242-1.118 14.8H34.633l-.144-7.53h-.296l-.142 7.53h-11.16l-1.104-14.8H37.58z"/><path fill="#c09669" d="M57.963 77.857c.246 2.376-.888 4.452-2.54 4.626-1.09.118-2.122-.608-2.782-1.784-.614.506-1.224.702-1.652.472-.818-.43-.726-2.2.206-3.964a7.133 7.133 0 0 1 1.216-1.668c.046-.07.082-.144.12-.212 0 0-1.608-10.284-3.332-12.716-.86-1.216-1.948-2.18-2.148-2.722v-.002c1.356 10.178-.148 24.354-.148 24.354H21.787s-1.756-15.608-.088-25.834v.014s-8.92 3.582-11.36 2.696c-3.016-1.088-6.484-10.93-6.484-10.93v-.008c-1.296-.456-2.554-1.702-3.284-3.418-1.126-2.666-.538-5.464 1.324-6.262 1.212-.512 2.666-.042 3.844 1.096.532-.806 1.168-1.25 1.758-1.138 1.092.214 1.598 2.308 1.14 4.672a8.215 8.215 0 0 1-.824 2.372c-.04.294-.114.572-.208.834l5.554 6.528s5.196-4.812 8.628-3.09l3.092-1.114c1.346-.928 4.29-1.354 6.074-1.522-.292-.664-.476-1.38-.476-1.91h7.664c0 .53-.178 1.26-.484 1.92 1.808.172 4.73.594 6.018 1.532.682.366 6.55 3.508 8.246 5.68 3.706 4.734 5.13 18.972 5.13 18.972s0-.018-.01-.06c.48.682.814 1.588.922 2.586" data-paper-data="{&quot;origPos&quot;:null}"/><path fill="#eeac6c" d="M31.301 49.754c-.438-.652-.738-1.57-.806-2.226 1.208.198 2.462.3 3.734.3 1.328 0 2.63-.114 3.898-.326l-.014.018-6.812 2.234M27.83 63.061c1.592 0 3.586-.24 5.988-.732l-.028-.12c-5.154 1.046-8.366.97-9.828-.228-.644-.524-.958-1.266-.958-2.296h-.13c0 1.03.33 1.844 1.006 2.398.81.656 2.108.977 3.95.977m13.21.001c-1.59 0-3.578-.24-5.978-.732l.026-.12c5.144 1.046 8.358.97 9.82-.228.648-.524.964-1.266.964-2.296h.132c0 1.03-.332 1.844-1.01 2.398-.804.656-2.112.977-3.954.977m-6.72-4.92h.126v2.9h-.126zm-3.71 15.819c.931 0 2.077-.134 3.467-.424l-.012-.07c-2.986.606-4.856.562-5.702-.128-.37-.308-.552-.758-.552-1.334h-.076c0 .576.192 1.07.588 1.388.466.386 1.218.568 2.286.568m7.654 0c-.916 0-2.072-.134-3.46-.424l.014-.07c2.982.606 4.84.562 5.688-.128.382-.308.558-.758.558-1.334h.078c0 .576-.19 1.07-.578 1.388-.468.386-1.234.568-2.3.568m-7.654 3.229c.932 0 2.078-.144 3.468-.426l-.012-.074c-2.986.606-4.856.566-5.702-.13-.37-.308-.552-.752-.552-1.33h-.076c0 .578.192 1.072.588 1.392.466.374 1.218.568 2.286.568m7.654 0c-.916 0-2.072-.144-3.46-.426l.014-.074c2.982.606 4.84.566 5.688-.13.382-.308.558-.752.558-1.33h.078c0 .578-.19 1.072-.578 1.392-.468.374-1.234.568-2.3.568m-7.654 3.289c.932 0 2.078-.146 3.468-.426l-.012-.074c-2.986.61-4.856.566-5.702-.128-.37-.31-.552-.752-.552-1.336h-.076c0 .584.192 1.074.588 1.396.466.372 1.218.568 2.286.568m7.654 0c-.916 0-2.072-.146-3.46-.426l.014-.074c2.982.61 4.84.566 5.688-.128.382-.31.558-.752.558-1.336h.078c0 .584-.19 1.074-.578 1.396-.468.372-1.234.568-2.3.568m-8.098-9.688c1.028 0 2.316-.164 3.874-.482l-.022-.08c-3.328.676-5.41.622-6.352-.15-.414-.342-.614-.852-.614-1.496h-.088c0 .644.21 1.204.648 1.566.518.42 1.37.643 2.554.643m8.536-.001c-1.024 0-2.312-.164-3.856-.482l.014-.08c3.322.676 5.398.622 6.342-.15.428-.342.632-.852.632-1.496h.078c0 .644-.218 1.204-.656 1.566-.516.42-1.362.643-2.555.643M17.344 56.832c1.576 0 3.532-.348 5.054-1.742l-.086-.094c-1.728 1.582-4.042 1.79-5.67 1.68-1.772-.11-3.154-.608-3.172-.618l-.044.128c1.038.342 2.114.55 3.204.62.226.01.464.026.714.026m36.328 8.415-.124.042-1.588-5.244v-.034c.014-.02.412-1.434.498-2.892.034.068.078.128.116.198-.092 1.314-.436 2.53-.484 2.716z"/><path fill="#c09669" d="M57.02 28.238c1.178.756 1.956 2.058 1.956 3.528 0 2.336-1.972 4.228-4.404 4.228-.068 0-.136 0-.204-.006-3.94 7.062-11.486 11.84-20.148 11.84-8.672 0-16.22-4.786-20.16-11.86-.162.02-.322.026-.482.026-2.438 0-4.406-1.892-4.406-4.228 0-1.578.894-2.954 2.22-3.688a24.018 24.018 0 0 1-.228-3.304c0-12.742 10.32-23.064 23.056-23.064 12.74 0 23.062 10.322 23.062 23.064 0 1.172-.096 2.336-.262 3.464" data-paper-data="{&quot;origPos&quot;:null}"/><path fill="#815b22" d="M27.398 24.746c-.772-.174-.908-1.201-3.386-.74-.779.18-2.417 1.156-2.732 1.808-.316.652-.088-2.392 2.457-3.522 1.835-.675 2.457-.642 3.977-.642s1.987.907 1.766 1.65c0 0-.503 1.803-2.082 1.446zm13.905 0c.772-.174.908-1.201 3.386-.74.78.18 2.417 1.156 2.732 1.808.316.652.087-2.392-2.457-3.522-1.835-.675-2.457-.642-3.977-.642s-1.987.907-1.766 1.65c0 0 .503 1.803 2.082 1.446z" data-paper-data="{&quot;origPos&quot;:null}"/><path fill="#343434" d="M25.17 33.65c-1.106 0-2-1.343-2-3s.894-3 2-3c1.104 0 2 1.343 2 3s-.896 3-2 3zm18 0c-1.106 0-2-1.343-2-3s.894-3 2-3c1.104 0 2 1.343 2 3s-.896 3-2 3z"/><path fill="#eeac6c" d="M34.19 33.719c-1.126.153-3.02 1.834-3.02 1.834s.206-1.009.502-1.299c.8-1.156 2.487-1.604 2.487-1.604s2.173.703 2.65 1.588c.443.824.34 1.238.34 1.238s-2.12-1.871-2.96-1.756zM27.37 37.346s6.896 3.208 13.171-.397c0 0-1.39 5.47-5.95 5.561-4.115.122-4.984-1.492-5.477-1.956-.492-.463-1.42-1.772-1.745-3.208"/><path fill="#fff" d="M25.448 29.863c0 1.438-.842 2.59-1.906 2.59-1.06 0-1.912-1.152-1.912-2.59 0-1.43.852-2.586 1.912-2.586 1.064 0 1.906 1.156 1.906 2.586m20.561 0c0 1.438-.857 2.59-1.91 2.59-1.055 0-1.91-1.152-1.91-2.59 0-1.43.855-2.586 1.91-2.586 1.053 0 1.91 1.156 1.91 2.586"/><path fill="#1679af" d="M24.727 30.582c0 .882-.536 1.598-1.186 1.598-.654 0-1.184-.716-1.184-1.598 0-.884.53-1.602 1.184-1.602.65 0 1.186.718 1.186 1.602m20.55 0c0 .882-.529 1.598-1.179 1.598-.652 0-1.186-.716-1.186-1.598 0-.884.534-1.602 1.186-1.602.65 0 1.178.718 1.178 1.602"/><path fill="#815b22" d="M58.197 21.768c.034 2.706-.916 8.568-2.76 12.054 0 0-4.534-12.836-8.274-14.862-4.57-2.482-16.6 1.094-20.674-2.128-.684-.534-.598-1.742-.598-1.742s-.79 1.548-1.164 1.974c-1.982 2.248-7.106 5.506-9.536 7.252-1.958 1.412-2.048 1.388-1.614 9.506 0 0-3.6-7.376-3.402-12.314.056-1.414.746-4.564 1.868-7.766C16.093 5.594 24.503 0 34.23 0c11.16 0 20.593 7.388 23.69 17.528.154 1.409.247 2.823.28 4.24" data-paper-data="{&quot;origPos&quot;:null}"/><path fill="#343434" d="M49.817 27.156c.394 1.39 1.132 4.926-.194 6.708-2.048 2.76-11.618-.926-13.756-3.63-.758-.956-.504-2.36-.246-3.094h-2.856c.26.734.512 2.148-.248 3.114-2.134 2.696-11.704 6.356-13.754 3.598-1.328-1.78-.588-5.306-.196-6.696l-1.832-1.332h34.898z"/><path fill="#515151" d="M22.13 27.176a.602.602 0 0 1-.183.824l-2.056 1.324a.59.59 0 0 1-.818-.172l-.01-.006a.598.598 0 0 1 .18-.822L21.311 27a.588.588 0 0 1 .818.176m-.85 2.906a.653.653 0 0 1-.655.664.657.657 0 0 1-.662-.664c0-.36.292-.656.662-.656.368 0 .656.296.656.656"/></g></svg>