<svg version="1.1" xmlns="http://www.w3.org/2000/svg" xmlns:xlink="http://www.w3.org/1999/xlink" width="69.58837" height="117.13856" viewBox="0,0,69.58837,117.13856"><g transform="translate(-205.734,-120.824)"><g data-paper-data="{&quot;isPaintingLayer&quot;:true}" fill-rule="evenodd" stroke="none" stroke-width="1" stroke-linecap="butt" stroke-linejoin="miter" stroke-miterlimit="10" stroke-dasharray="" stroke-dashoffset="0" style="mix-blend-mode: normal"><path d="M205.734,181.314c11.723,15.17 24.38,0.59 18.467,-13.197c-4.29,-10.013 15.381,2.057 15.381,2.057c0,0 -8.275,30.79 -17.637,32.04c-9.358,1.25 -15.563,-12.943 -16.211,-20.9" fill="#2c2c2d"/><path d="M264.858,139.148c16.156,16.413 -1.516,31.74 -23.795,31.74c-22.36,0 -42.637,-15.214 -23.47,-32.657c0.31882,-1.21662 0.68645,-2.41993 1.102,-3.607c4.076,-8.182 12.526,-13.8 22.287,-13.8c11.206,0 20.69,7.416 23.802,17.605c0.024,0.243 0.05,0.483 0.074,0.718" fill="#2c2c2d"/><path d="M273.424,161.557c1.866,0.788 2.457,3.6 1.32,6.28c-0.728,1.719 -1.988,2.963 -3.288,3.428c0,0 -3.471,9.866 -6.502,10.961c-2.432,0.882 -11.294,-2.666 -11.384,-2.703c1.682,10.247 -0.07,25.887 -0.07,25.887v0.002l-1.736,14.915l-0.471,11.697h-0.006c1.821,1.13 3.15,3.425 1.586,5.3c-1.18,1.322 -2.92,0.268 -4.24,-0.287c-1.459,-0.693 -3.128,-1.177 -4.448,-2.08c-0.853,-0.599 -1.857,-1.242 -2.435,-2.13c-0.179,-0.277 -0.262,-0.539 -0.199,-0.803h-0.005v-11.706l-0.51,-7.616h-0.294l-0.526,7.616v11.706h0.009c0.063,0.263 -0.022,0.528 -0.199,0.803c-0.578,0.888 -1.582,1.527 -2.435,2.125c-1.32,0.903 -2.986,1.394 -4.446,2.09c-1.322,0.554 -3.064,1.602 -4.242,0.282c-1.561,-1.875 -0.24,-4.17 1.589,-5.3h-0.007l-0.467,-11.697l-1.721,-14.917c0,0 -1.504,-14.202 -0.157,-24.412c-0.203,0.543 -1.292,1.503 -2.149,2.723c-1.726,2.437 -3.34,12.75 -3.34,12.75c0.03882,0.07021 0.0755,0.14157 0.11,0.214c0.49026,0.49256 0.90295,1.05664 1.224,1.673c0.934,1.763 1.03,3.546 0.214,3.976c-0.438,0.231 -1.043,0.03 -1.658,-0.478c-0.661,1.18 -1.697,1.905 -2.784,1.793c-1.66,-0.179 -2.804,-2.256 -2.55,-4.64c0.102,-1.004 0.442,-1.905 0.92,-2.599c-0.002,0.02 1.504,-14.326 5.13,-18.957c1.704,-2.176 7.579,-5.33 8.267,-5.7c1.3,-0.935 4.226,-1.365 6.042,-1.535c-0.302,-0.67 -0.49,-1.41 -0.49,-1.94h7.689c0,0.53 -0.183,1.259 -0.48,1.924c1.787,0.175 4.743,0.607 6.087,1.543c0,0 2.333,0.833 3.107,1.112c6.088,1.837 8.642,3.096 8.642,3.096l5.573,-6.541c-0.096,-0.264 -0.164,-0.545 -0.214,-0.842c-0.356,-0.65 -0.648,-1.466 -0.823,-2.374c-0.46,-2.374 0.053,-4.472 1.15,-4.685c0.589,-0.115 1.222,0.335 1.756,1.14c1.181,-1.137 2.64,-1.61 3.86,-1.093" data-paper-data="{&quot;origPos&quot;:null}" fill="#775c4d"/><path d="M237.903,170.838c-0.437,-0.659 -0.742,-1.626 -0.81,-2.284c1.218,0.196 2.472,0.346 3.742,0.346c1.335,0 2.642,-0.111 3.917,-0.331l-0.018,0.015l-6.831,2.254" fill="#e2a86e"/><path d="M240.251,231.998c0.063,0.264 -0.018,0.543 -0.199,0.818c-0.573,0.886 -1.577,1.545 -2.433,2.143c-1.32,0.903 -2.986,1.39 -4.448,2.086c-1.322,0.556 -3.057,1.597 -4.237,0.277c-0.867,-1.036 -0.843,-2.204 -0.343,-3.236c0.973,3.408 9.884,-0.201 11.677,-2.116v0.028h-0.018M252.901,237.322c-1.182,1.32 -2.922,0.276 -4.242,-0.28c-1.457,-0.696 -3.129,-1.182 -4.451,-2.086c-0.855,-0.602 -1.856,-1.254 -2.43,-2.14c-0.177,-0.275 -0.264,-0.554 -0.199,-0.818h0.018v-0.026c1.791,1.922 8.695,5.465 11.655,2.114c0.504,1.027 0.513,2.197 -0.352,3.235" fill="#43b7b2"/><path d="M230.324,231.909c-12.788,-5.136 -1.818,-19.995 -2.544,-32.272c2.103,2.366 6.718,5.826 13.202,6.906c6.277,-0.936 10.095,-3.749 13.067,-6.906c-0.988,12.044 10.043,27.89 -2.476,32.272c-2.054,1.47 -9.806,1.616 -10.094,0c-0.53,-2.979 -0.384,-13.015 -0.384,-13.015h-0.294c0,0 0.166,10.041 -0.384,13.015c-0.295,1.59 -7.754,0.94 -10.093,0" fill="#7ec8c5"/><path d="M240.975,207.21l-0.078,-0.006c-2.902,-0.369 -6.07,-1.673 -9.417,-3.88c-2.47,-1.629 -4.087,-3.139 -4.154,-3.204c-0.12849,-0.11997 -0.20381,-0.28625 -0.20926,-0.46197c-0.00544,-0.17571 0.05944,-0.34633 0.18026,-0.47403c0.12012,-0.12815 0.28623,-0.2033 0.46178,-0.20893c0.17555,-0.00563 0.34614,0.05874 0.47422,0.17893c0.075,0.067 6.33,5.87 12.753,6.721c5.581,-0.65 12.554,-6.676 12.626,-6.737c0.13209,-0.11662 0.30533,-0.17558 0.48114,-0.16375c0.17581,0.01183 0.33959,0.09348 0.45486,0.22675c0.24,0.277 0.21,0.696 -0.065,0.938c-0.297,0.26 -7.423,6.422 -13.431,7.065l-0.077,0.007z" fill="#b0dbdc"/><path d="M227.384,188.333c-0.181,-3.382 0.486,-6.216 0.486,-6.216c0,0 5.566,-5.566 13.109,-0.834c7.075,-5.123 12.942,-0.565 12.942,-0.565c0,0 0.753,3.832 0.526,7.615c0,0 -14.493,4.536 -27.063,0" fill="#7ec8c5"/><path d="M222.858,177.41c1.23,2.932 6.34,5.169 6.34,5.169l-0.235,1.645c0,0 -7.36,-0.083 -8.221,-1.964c-0.264,-1.813 2.116,-4.85 2.116,-4.85M253.597,181.243c1.768,-2.127 1.12,-8.047 1.12,-8.047c0,0 2.578,0.509 4.557,1.512c0.072,5.782 -5.677,8.51 -5.677,8.51c0,0 -0.035,-1.482 0,-1.975" fill="#7ec8c5"/><path d="M263.929,149.183c1.187,0.761 1.973,2.063 1.973,3.543c0,2.352 -1.984,4.259 -4.43,4.259c-0.067,0 -0.137,-0.002 -0.207,-0.007c-3.96,7.102 -11.55,11.904 -20.26,11.904c-8.716,0 -16.312,-4.811 -20.276,-11.925c-0.159,0.015 -0.321,0.028 -0.488,0.028c-2.449,0 -4.43,-1.907 -4.43,-4.259c0,-1.588 0.904,-2.969 2.244,-3.703c-0.158,-1.087 -0.24,-2.199 -0.24,-3.327c0,-12.808 10.382,-23.188 23.19,-23.188c12.805,0 23.185,10.381 23.185,23.188c0,1.183 -0.089,2.35 -0.26,3.487" data-paper-data="{&quot;origPos&quot;:null}" fill="#775c4d"/><path d="M236.311,144.65c0,0 -0.503,1.803 -2.082,1.446c-0.772,-0.174 -0.908,-1.201 -3.386,-0.74c-0.779,0.18 -2.417,1.156 -2.732,1.808c-0.316,0.652 -0.088,-2.392 2.457,-3.522c1.835,-0.675 2.457,-0.642 3.977,-0.642c1.52,0 1.987,0.907 1.766,1.65M246.052,144.65c0,0 0.503,1.803 2.082,1.446c0.772,-0.174 0.908,-1.201 3.386,-0.74c0.779,0.18 2.417,1.156 2.732,1.808c0.316,0.652 0.087,-2.392 -2.457,-3.522c-1.835,-0.675 -2.457,-0.642 -3.977,-0.642c-1.52,0 -1.987,0.907 -1.766,1.65M234,152c0,1.657 -0.895,3 -2,3c-1.105,0 -2,-1.343 -2,-3c0,-1.657 0.895,-3 2,-3c1.105,0 2,1.343 2,3M252,152c0,1.657 -0.895,3 -2,3c-1.105,0 -2,-1.343 -2,-3c0,-1.657 0.895,-3 2,-3c1.105,0 2,1.343 2,3l15.83,1.128" fill="#343434"/><path d="M241.02,155.069c-1.125,0.153 -3.02,1.834 -3.02,1.834c0,0 0.207,-1.009 0.503,-1.299c0.8,-1.156 2.487,-1.604 2.487,-1.604c0,0 2.173,0.703 2.65,1.588c0.443,0.824 0.34,1.238 0.34,1.238c0,0 -2.121,-1.871 -2.96,-1.756z" fill="#683918"/><path d="M234.2,158.696c0,0 6.897,3.208 13.172,-0.397c0,0 -1.39,5.47 -5.95,5.561c-4.115,0.122 -4.984,-1.492 -5.477,-1.956c-0.492,-0.463 -1.42,-1.772 -1.745,-3.208" fill="#683918"/><path d="M216.996,142.903c0.016,-1.206 0.105,-2.677 0.275,-4.239c3.096,-10.152 12.54,-17.537 23.709,-17.537c9.716,0 18.13,5.598 22.19,13.745c1.123,3.203 1.812,6.354 1.869,7.774c0.198,4.935 0.486,6.094 -1.108,6.537c-2.322,-6.832 -20.18,-7.314 -23.036,-13.087c-4.654,6.393 -20.36,5.867 -22.837,12.923c-0.932,-0.473 -1.091,-3.912 -1.06,-6.116" fill="#2c2c2d"/><path d="M245.194,171.74c0.36827,0.11899 0.59461,0.48891 0.53293,0.87097c-0.06168,0.38207 -0.39292,0.66196 -0.77993,0.65903h-0.015c0.31865,0.10867 0.53342,0.40734 0.535,0.744c-0.00078,0.21039 -0.08566,0.41173 -0.23574,0.55918c-0.15008,0.14745 -0.35289,0.22876 -0.56326,0.22582l-0.026,-0.002c0.18589,0.14796 0.29444,0.37241 0.295,0.61c-0.00248,0.2681 -0.14076,0.51664 -0.36726,0.6601c-0.2265,0.14346 -0.5103,0.16225 -0.75374,0.0499c0.18576,0.29008 0.16042,0.66744 -0.06247,0.93008c-0.22289,0.26264 -0.59109,0.34903 -0.90753,0.21292c0.06468,0.2353 0.01566,0.48731 -0.13251,0.68121c-0.14817,0.1939 -0.37846,0.30739 -0.62249,0.30679c-0.29,0 -0.543,-0.157 -0.678,-0.39c0.004,0.022 0.004,0.05 0.004,0.074c0,0.43382 -0.35168,0.7855 -0.7855,0.7855c-0.43382,0 -0.7855,-0.35168 -0.7855,-0.7855c0,-0.024 0.005,-0.052 0.007,-0.074c-0.14173,0.2426 -0.40204,0.39124 -0.683,0.39c-0.432,0 -0.785,-0.346 -0.785,-0.781c0.00188,-0.06993 0.01195,-0.13941 0.03,-0.207c-0.31618,0.13375 -0.6826,0.04652 -0.9046,-0.21535c-0.222,-0.26187 -0.24809,-0.63762 -0.0644,-0.92765c-0.24257,0.11315 -0.52612,0.09455 -0.75183,-0.0493c-0.22571,-0.14386 -0.3623,-0.39304 -0.36217,-0.6607c-0.00139,-0.23691 0.10539,-0.46151 0.29,-0.61l-0.042,0.003c-0.38367,-0.00218 -0.7097,-0.28104 -0.77133,-0.65973c-0.06163,-0.37869 0.15915,-0.74655 0.52233,-0.87027h-0.015c-0.434,0 -0.787,-0.35 -0.787,-0.786c0.00366,-0.33847 0.22176,-0.63731 0.543,-0.744c-0.40405,-0.02366 -0.72368,-0.351 -0.7377,-0.7555c-0.01402,-0.4045 0.28218,-0.75319 0.68363,-0.80476c0.40145,-0.05157 0.77617,0.21092 0.86485,0.60583c0.08868,0.39491 -0.13782,0.79242 -0.52278,0.91744c0.37541,0.02217 0.68235,0.30747 0.73187,0.68025c0.04953,0.37278 -0.17228,0.72832 -0.52887,0.84775h0.018c0.33352,-0.00121 0.6312,0.20897 0.74166,0.52367c0.11046,0.3147 0.00945,0.66483 -0.25166,0.87233c0.013,0 0.042,-0.005 0.042,-0.005c0.20819,0 0.4078,0.0829 0.55473,0.2304c0.14693,0.14749 0.22907,0.34742 0.22827,0.5556c0.00146,0.14897 -0.04022,0.29519 -0.12,0.421c0.10282,-0.05135 0.21607,-0.07838 0.331,-0.079c0.43442,0 0.7869,0.35158 0.788,0.786c-0.00097,0.07001 -0.01105,0.1396 -0.03,0.207c0.09676,-0.03966 0.20043,-0.05971 0.305,-0.059c0.22032,-0.00006 0.43049,0.09258 0.57908,0.25524c0.14859,0.16267 0.22188,0.38035 0.20192,0.59976c0.14192,-0.24137 0.401,-0.38958 0.681,-0.38958c0.28,0 0.53908,0.14821 0.681,0.38958c-0.01991,-0.21889 0.05299,-0.43608 0.20091,-0.59865c0.14793,-0.16257 0.3573,-0.25557 0.57709,-0.25635c0.10621,-0.0009 0.21155,0.01915 0.31,0.059c-0.06481,-0.23584 -0.01598,-0.48842 0.13205,-0.68312c0.14804,-0.1947 0.37836,-0.30927 0.62295,-0.30988c0.11578,0.00154 0.2298,0.02851 0.334,0.079c-0.15384,-0.24375 -0.16212,-0.55209 -0.0216,-0.80374c0.14053,-0.25166 0.40738,-0.40636 0.6956,-0.40326c0.00948,0.00259 0.0192,0.00427 0.029,0.005c-0.179,-0.144 -0.297,-0.365 -0.297,-0.613c0.0011,-0.43371 0.35329,-0.78455 0.787,-0.784h0.016c-0.32013,-0.10822 -0.53598,-0.40807 -0.537,-0.746c0.00378,-0.41295 0.32496,-0.75331 0.737,-0.781c-0.38412,-0.12539 -0.61002,-0.52219 -0.52178,-0.9165c0.08824,-0.39432 0.46172,-0.65698 0.86264,-0.60669c0.40093,0.05029 0.69797,0.39705 0.68609,0.80094c-0.01187,0.40389 -0.32877,0.73261 -0.73196,0.75926M220.133,156.399c0.624,0.053 2.847,3.777 1.955,5.195c-0.703,1.122 -4.324,0.696 -4.914,-0.486c-0.637,-1.27 2.241,-4.77 2.959,-4.708M261.807,156.399c-0.625,0.053 -2.847,3.777 -1.955,5.195c0.703,1.122 4.326,0.696 4.913,-0.486c0.633,-1.27 -2.238,-4.77 -2.958,-4.708" fill="#f6b90c"/><path d="M241.022,124.982c11.834,0 21.706,7.818 23.836,14.165c-3.189,-3.46 -13.926,-10.72 -23.836,-10.72c-10.759,0 -20.47,6.49 -23.66,9.95c2.643,-6.424 10.98,-13.395 23.66,-13.395" fill="#43b7b2"/><path d="M245.128,127.85c0,2.825 -1.802,5.115 -4.023,5.115c-2.226,0 -4.024,-2.29 -4.024,-5.116c0,-2.825 1.798,-5.114 4.024,-5.114c2.22,0 4.023,2.289 4.023,5.114" fill="#f6b90c"/><path d="M241.105,132.567c-2.003,0 -3.626,-2.114 -3.626,-4.719c0,-2.598 1.623,-4.715 3.626,-4.715c1.996,0 3.624,2.117 3.624,4.715c0,2.605 -1.628,4.72 -3.624,4.72" fill="#268d85"/><path d="M238.184,129.65c-1.18,-5.482 3.061,-6.183 3.061,-6.183c0,0 -3.766,1.198 -3.06,6.184M242.017,131.91c1.396,-0.895 2.04,-2.713 2.04,-2.713c0,0 -0.238,1.922 -2.04,2.712" fill="#4eb9b1"/></g></g></svg>