<svg version="1.1" xmlns="http://www.w3.org/2000/svg" xmlns:xlink="http://www.w3.org/1999/xlink" width="62.41218" height="116.35381" viewBox="0,0,62.41218,116.35381"><g transform="translate(-208.95588,-121.527)"><g data-paper-data="{&quot;isPaintingLayer&quot;:true}" fill-rule="evenodd" stroke="none" stroke-width="1" stroke-linecap="butt" stroke-linejoin="miter" stroke-miterlimit="10" stroke-dasharray="" stroke-dashoffset="0" style="mix-blend-mode: normal"><path d="M208.956,169.472c8.206,12.819 19.164,2.123 15.438,-9.21c-2.708,-8.224 11.974,2.678 11.974,2.678c0,0 -8.595,23.844 -16.053,24.202c-7.456,0.354 -11.384,-11.314 -11.359,-17.67" data-paper-data="{&quot;origPos&quot;:null}" fill="#4f2a11"/><path d="M216.128,203.635c-1.652,-0.175 -2.787,-2.253 -2.534,-4.643c0.103,-1.003 0.439,-1.903 0.916,-2.593c0,0.002 0,0.008 -0.007,0.011c0.098,-0.922 1.527,-14.395 5.093,-18.984c1.799,-2.312 8.504,-5.848 8.504,-5.848h0.01c2.154,-1.238 7.264,-1.42 7.264,-1.42l1.774,0.077h0.146l1.77,-0.11c0,0 5.086,0.245 7.251,1.496v0.007l11.932,4.3l5.535,-6.546c-0.089,-0.264 -0.16,-0.547 -0.204,-0.845c-0.356,-0.649 -0.65,-1.467 -0.824,-2.374c-0.462,-2.376 0.051,-4.476 1.143,-4.688c0.585,-0.114 1.216,0.336 1.748,1.142c1.175,-1.138 2.625,-1.614 3.832,-1.097c1.858,0.788 2.446,3.604 1.318,6.285c-0.722,1.718 -1.978,2.966 -3.274,3.426c0,0 -3.456,9.872 -6.464,10.972c-2.189,0.797 -9.347,-1.946 -10.767,-2.508c2.642,10.258 2.949,25.83 2.949,25.83h-32.037c0,0 0.248,-13.535 2.42,-23.688v-0.01c-0.263,0.461 -0.722,1.042 -1.303,1.88c-1.716,2.436 -3.317,12.752 -3.317,12.752c0.0402,0.06929 0.07789,0.14 0.113,0.212c0.48899,0.49291 0.89913,1.05821 1.216,1.676c0.93,1.763 1.028,3.542 0.215,3.977c-0.43,0.229 -1.037,0.028 -1.65,-0.478c-0.659,1.181 -1.687,1.905 -2.769,1.789z" data-paper-data="{&quot;origPos&quot;:null}" fill="#9e733f"/><path d="M271.129,161.731c0,3.362 -2.704,6.09 -6.047,6.09c-3.34,0 -6.055,-2.728 -6.055,-6.09c0,-3.364 2.715,-6.092 6.055,-6.092c3.343,0 6.047,2.728 6.047,6.092" fill="#acacab"/><path d="M269.501,157.571c1.04978,1.13014 1.63161,2.61652 1.628,4.159c0,3.365 -2.703,6.09 -6.046,6.09c-2.145,-0.0015 -4.1285,-1.13977 -5.212,-2.991c1.14102,1.23163 2.74406,1.93149 4.423,1.931c3.337,0 6.05,-2.728 6.05,-6.09c0,-1.132 -0.309,-2.19 -0.844,-3.099" fill="#969595"/><path d="M263.303,155.907c1.224,0.31 2.131,1.421 2.131,2.75c0.00498,1.55816 -1.25384,2.82549 -2.812,2.831c-1.52652,-0.00536 -2.77288,-1.22205 -2.815,-2.748c0.76081,-1.3559 2.01171,-2.36921 3.496,-2.832" fill="#c6c5c6"/><path d="M221.2,205.526c0.017,-0.662 0.269,-11.95 1.989,-21.47c0.045,-0.207 0.064,-0.396 0.106,-0.601c3.539,-3.98 3.999,-7.67 4.827,-11.874c0.958,-0.55 2.502,-0.89 3.92,-1.097c0,0 0,6.334 5.105,6.334c4.83,0 4.6,-6.422 4.6,-6.422c1.576,0.214 3.46,0.59 4.57,1.234c0.877,2.642 1.788,8.147 4.511,10.384c2.086,9.855 2.397,22.781 2.412,23.512z" fill="#e63744"/><path d="M245.86,176.656v1.854c0,0.988 -0.795,1.789 -1.779,1.789c-0.47279,-0.00185 -0.92547,-0.19152 -1.25837,-0.52723c-0.33291,-0.33572 -0.51875,-0.78998 -0.51663,-1.26277v-1.853h3.553z" fill="#f6b90c"/><path d="M250.793,205.525h-2.108v-26.513c0.558,1.195 1.239,2.245 2.108,2.972zM225.531,180.336c-0.59385,1.06155 -1.29953,2.05654 -2.105,2.968v22.223h2.105v-25.19M227.24,187.12h19.935v12.447h-19.935z" fill="#eeeeed"/><path d="M227.24,187.119h19.935v2.514h-19.935zM227.24,197.98h19.935v1.587h-19.935z" fill="#99588c"/><path d="M235.376,231.969h-8.488l-0.022,-4.23l-0.345,-7.888l-0.62,-3.045h10.657v3.045l-0.232,7.888zM247.547,231.969h-9.146l-0.3,-4.23l-0.226,-7.888v-3.045h10.658l-0.62,3.045l-0.347,7.888z" data-paper-data="{&quot;origPos&quot;:null}" fill="#9e733f"/><path d="M249.718,205.482l-1.114,11.52h-10.832l-0.407,-4.236h-0.291l-0.412,4.236h-10.84l-1.105,-11.52h15.723z" fill="#343434"/><path d="M236.326,227.739l0.196,4.039h0.019c0.066,0.266 -0.019,0.558 -0.2,0.838c-0.588,0.911 -1.61,1.586 -2.476,2.199c-0.1414,0.09485 -0.28511,0.18621 -0.431,0.274h-7.7v-2.591c0.275,-0.26 0.585,-0.52 0.905,-0.72h-0.008l0.235,-4.038h9.46z" fill="#eeeeed"/><path d="M236.358,228.395h-9.532l0.013,-0.202h9.506zM236.378,228.793h-9.574l0.013,-0.2h9.551z" fill="#e63744"/><path d="M249.416,235.088h-8.414c-0.146,-0.088 -0.293,-0.184 -0.43,-0.281c-0.868,-0.61 -1.89,-1.279 -2.478,-2.19c-0.179,-0.282 -0.266,-0.574 -0.2,-0.84h0.009l0.2,-4.037h9.463l0.237,4.037h-0.007c0.63741,0.40333 1.18812,0.92957 1.62,1.548z" fill="#eeeeed"/><path d="M238.079,228.193h9.515l0.012,0.201h-9.536zM238.056,228.592h9.562l0.01,0.2h-9.58z" fill="#e63744"/><path d="M226.631,231.763c0,0 0.193,-1.913 1.796,-1.993c1.655,-0.081 2.913,1.652 2.913,1.652l-4.686,0.356z" fill="#6e6e6d"/><path d="M227.251,231.596l-0.017,-0.009c0,0 0.134,-1.315 1.237,-1.371c1.137,-0.056 2.001,1.136 2.001,1.136l-3.222,0.244z" fill="#e63744"/><path d="M226.654,231.778c0,0 1.927,-1.21 6.251,0c1.746,0.206 2.286,-1.425 3.108,-1.79c0.411,-0.181 0.528,0 0.528,0v1.79c0.066,0.266 -0.019,0.558 -0.2,0.838c-0.588,0.911 -1.61,1.584 -2.476,2.196c-1.343,0.926 -3.042,1.419 -4.528,2.133c-1.344,0.569 -3.114,1.63 -4.314,0.278c-1.59,-1.918 -0.243,-4.254 1.616,-5.444h-0.008v-0.01l0.023,0.009" fill="#e63744"/><path d="M236.21,232.803c-0.601,0.819 -1.537,1.438 -2.347,2.008c-0.562,0.386 -1.192,0.701 -1.835,0.984l-0.176,-0.36c1.918,-0.562 4.145,-2.829 4.145,-2.829l0.213,0.197M226.654,231.778c0,0 1.46,-0.919 4.686,-0.356c-0.95,0.707 -2.536,1.745 -3.664,1.753c-1.439,0.011 -1.48,-0.662 -1.195,-1.298c0.052,-0.037 0.105,-0.041 0.158,-0.105h-0.008v-0.009l0.023,0.015" fill="#343434"/><path d="M226.585,233.017c2.545,0 4.763,1.022 5.96,2.543c-1.046,0.502 -2.181,0.892 -3.209,1.385c-1.343,0.57 -3.113,1.63 -4.311,0.278c-1.11,-1.335 -0.792,-2.872 0.13,-4.082c0.002,-0.004 0.004,-0.013 0.01,-0.017c0.46,-0.071 0.933,-0.107 1.42,-0.107" fill="#343434"/><path d="M236.491,230.19c0.014,0 0.031,0.002 0.048,0.004v1.584c0.069,0.265 -0.017,0.557 -0.198,0.838c-0.11832,0.18198 -0.25144,0.35389 -0.398,0.514c-0.13,-0.311 -0.21,-0.735 -0.21,-1.202c0,-0.96 0.338,-1.738 0.757,-1.738" fill="#eeeeed"/><path d="M225.546,232.713c0,0 -0.032,-0.008 -0.034,-0.025c-0.005,-0.017 0.008,-0.035 0.025,-0.039c0.02,-0.006 2.119,-0.52 4.81,-0.015c0.019,0.002 0.027,0.022 0.027,0.037c-0.004,0.019 -0.02,0.03 -0.04,0.027c-2.676,-0.503 -4.76,0.009 -4.784,0.013l-0.004,0.002M226.097,232.203c0,0 -0.026,-0.009 -0.03,-0.022c-0.006,-0.019 0.002,-0.036 0.02,-0.04c0.02,-0.009 1.964,-0.654 4.674,-0.035c0.00867,0.00203 0.01605,0.00768 0.02026,0.01553c0.00421,0.00785 0.00484,0.01712 0.00174,0.02547c-0.002,0.017 -0.02,0.03 -0.036,0.024c-2.69,-0.613 -4.62,0.023 -4.64,0.03c-0.002,0.002 -0.004,0.002 -0.01,0.002" fill="#c12636"/><path d="M247.778,231.778l-4.684,-0.356c0,0 1.254,-1.733 2.913,-1.652c1.603,0.08 1.799,1.993 1.799,1.993z" fill="#6e6e6d"/><path d="M247.183,231.596l-3.22,-0.244c0,0 0.864,-1.192 2.003,-1.136c1.1,0.056 1.234,1.371 1.234,1.371z" fill="#e63744"/><path d="M247.778,231.778l0.028,-0.009v0.01h-0.009c1.855,1.19 3.204,3.526 1.614,5.444c-1.2,1.352 -2.972,0.291 -4.316,-0.278c-1.484,-0.714 -3.182,-1.207 -4.524,-2.133c-0.873,-0.612 -1.892,-1.285 -2.48,-2.196c-0.179,-0.28 -0.264,-0.572 -0.198,-0.838v-1.79c0,0 0.12,-0.181 0.528,0c0.822,0.365 1.362,1.996 3.108,1.79c4.324,-1.21 6.249,0 6.249,0" fill="#e63744"/><path d="M238.224,232.803l0.215,-0.197c0,0 2.223,2.267 4.144,2.829l-0.175,0.36c-0.652,-0.283 -1.273,-0.598 -1.835,-0.984c-0.814,-0.57 -1.748,-1.189 -2.349,-2.008M247.778,231.778l0.028,-0.015v0.009h-0.009c0.05,0.064 0.104,0.068 0.151,0.105c0.29,0.636 0.252,1.309 -1.19,1.298c-1.128,-0.008 -2.714,-1.046 -3.664,-1.753c3.221,-0.563 4.684,0.356 4.684,0.356" fill="#343434"/><path d="M247.849,233.017c0.487,0 0.96,0.036 1.42,0.107l0.01,0.017c0.922,1.21 1.24,2.747 0.13,4.082c-1.198,1.352 -2.97,0.292 -4.313,-0.278c-1.028,-0.493 -2.161,-0.883 -3.206,-1.385c1.196,-1.521 3.414,-2.543 5.959,-2.543" fill="#343434"/><path d="M237.946,230.19c0.417,0 0.756,0.778 0.756,1.738c0,0.467 -0.083,0.891 -0.211,1.202c-0.14655,-0.16063 -0.28029,-0.33249 -0.4,-0.514c-0.18,-0.281 -0.264,-0.573 -0.196,-0.838v-1.584c0.0165,-0.00291 0.03324,-0.00425 0.05,-0.004" fill="#eeeeed"/><path d="M248.888,232.713l-0.008,-0.002c-0.019,-0.004 -2.104,-0.516 -4.778,-0.013c-0.021,0.003 -0.04,-0.008 -0.04,-0.027c-0.002,-0.015 0.006,-0.035 0.025,-0.037c2.691,-0.505 4.789,0.009 4.81,0.015c0.019,0.004 0.032,0.022 0.027,0.039c-0.004,0.017 -0.019,0.025 -0.036,0.025M248.337,232.203c-0.004,0 -0.008,0 -0.01,-0.002c-0.02,-0.007 -1.953,-0.643 -4.64,-0.03c-0.014,0.006 -0.034,-0.007 -0.036,-0.024c-0.00347,-0.00833 -0.00301,-0.01778 0.00125,-0.02573c0.00427,-0.00795 0.01189,-0.01356 0.02075,-0.01527c2.703,-0.619 4.656,0.026 4.673,0.035c0.019,0.004 0.027,0.021 0.023,0.04c-0.004,0.013 -0.022,0.022 -0.032,0.022" fill="#c12636"/><path d="M238.838,171.98h-3.75c-1.07,0 -1.941,-2.32 -1.941,-3.378h7.63c0,1.059 -0.866,3.377 -1.94,3.377" data-paper-data="{&quot;origPos&quot;:null}" fill="#9e733f"/><path d="M233.966,171.119c-0.434,-0.66 -0.734,-1.577 -0.802,-2.239c1.207,0.199 2.448,0.302 3.717,0.302c1.30017,0.00182 2.59805,-0.10927 3.879,-0.332l-0.011,0.015l-6.783,2.254" fill="#eeac6c"/><path d="M214.483,149.502c-0.17579,-1.1503 -0.26338,-2.31235 -0.262,-3.476c0,-12.771 10.29,-23.121 22.974,-23.121c12.687,0 22.975,10.35 22.975,23.121c0,1.127 -0.081,2.233 -0.237,3.32c1.327,0.728 2.219,2.108 2.219,3.687c0,2.347 -1.963,4.25 -4.384,4.25c-0.16272,-0.00056 -0.32529,-0.00991 -0.487,-0.028c-3.924,7.095 -11.446,11.893 -20.086,11.893c-8.63,0 -16.146,-4.79 -20.074,-11.872c-0.066,0.002 -0.137,0.007 -0.205,0.007c-2.423,0 -4.386,-1.903 -4.386,-4.25c0,-1.472 0.773,-2.77 1.953,-3.531" data-paper-data="{&quot;origPos&quot;:null}" fill="#9e733f"/><path d="M233.311,144.65c0,0 -0.503,1.803 -2.082,1.446c-0.772,-0.174 -0.908,-1.201 -3.386,-0.74c-0.779,0.18 -2.417,1.156 -2.732,1.808c-0.316,0.652 -0.088,-2.392 2.457,-3.522c1.835,-0.675 2.457,-0.642 3.977,-0.642c1.52,0 1.987,0.907 1.766,1.65M243.052,144.65c0,0 0.503,1.803 2.082,1.446c0.772,-0.174 0.908,-1.201 3.386,-0.74c0.779,0.18 2.417,1.156 2.732,1.808c0.316,0.652 0.087,-2.392 -2.457,-3.522c-1.835,-0.675 -2.457,-0.642 -3.977,-0.642c-1.52,0 -1.987,0.907 -1.766,1.65" data-paper-data="{&quot;origPos&quot;:null}" fill="#4f2a11"/><path d="M231,152c0,1.657 -0.895,3 -2,3c-1.105,0 -2,-1.343 -2,-3c0,-1.657 0.895,-3 2,-3c1.105,0 2,1.343 2,3M249,152c0,1.657 -0.895,3 -2,3c-1.105,0 -2,-1.343 -2,-3c0,-1.657 0.895,-3 2,-3c1.105,0 2,1.343 2,3" data-paper-data="{&quot;origPos&quot;:null}" fill="#4f2a11"/><path d="M238.02,155.069c-1.125,0.153 -3.02,1.834 -3.02,1.834c0,0 0.207,-1.009 0.503,-1.299c0.8,-1.156 2.487,-1.604 2.487,-1.604c0,0 2.173,0.703 2.65,1.588c0.443,0.824 0.34,1.238 0.34,1.238c0,0 -2.121,-1.871 -2.96,-1.756z" fill="#eeac6c"/><path d="M231.2,158.696c0,0 6.897,3.208 13.172,-0.397c0,0 -1.39,5.47 -5.95,5.561c-4.115,0.122 -4.984,-1.492 -5.477,-1.956c-0.492,-0.463 -1.42,-1.772 -1.745,-3.208" fill="#eeac6c"/><path d="M260.981,143.241c0.034,2.704 -1.159,6.458 -1.159,6.458c0,0 -6.07,-7.231 -9.772,-9.261c-4.524,-2.475 -6.781,1.174 -10.824,-2.038c-0.672,-0.534 -1.922,-1.946 -1.922,-1.946c0,0 -1.521,1.546 -1.925,1.946c-4.547,4.481 -7.958,-0.748 -11.787,1.957c-4.87,3.445 -8.99,9.18 -8.99,9.18c0,0 -1.414,-1.631 -1.216,-6.549c0.053,-1.419 0.737,-4.56 1.85,-7.753c4.022,-8.126 12.353,-13.708 21.987,-13.708c11.062,0 20.413,7.366 23.485,17.486c0.15677,1.40397 0.24754,2.81452 0.272,4.227" data-paper-data="{&quot;origPos&quot;:null}" fill="#4f2a11"/></g></g></svg>