<svg version="1.1" xmlns="http://www.w3.org/2000/svg" xmlns:xlink="http://www.w3.org/1999/xlink" width="89.45178" height="108" viewBox="0,0,89.45178,108"><g transform="translate(-197.28322,-132)"><g data-paper-data="{&quot;isPaintingLayer&quot;:true}" fill-rule="evenodd" stroke-linecap="butt" stroke-linejoin="miter" stroke-miterlimit="10" stroke-dasharray="" stroke-dashoffset="0" style="mix-blend-mode: normal"><path d="M212.353,168.895v-5.93c0,-16.372 13.273,-29.645 29.647,-29.645c16.374,0 29.647,13.273 29.647,29.647v5.93" fill="#6f2d1c" stroke="none" stroke-width="1"/><path d="M215.144,163.909c3.42886,0 6.2085,2.77964 6.2085,6.2085c0,3.42886 -2.77964,6.2085 -6.2085,6.2085h-1.241c-3.38515,-0.06076 -6.09757,-2.8223 -6.09757,-6.208c0,-3.3857 2.71242,-6.14724 6.09757,-6.208h1.241M269.144,163.909c3.42886,0 6.2085,2.77964 6.2085,6.2085c0,3.42886 -2.77964,6.2085 -6.2085,6.2085h-1.241c-3.38515,-0.06076 -6.09757,-2.8223 -6.09757,-6.208c0,-3.3857 2.71242,-6.14724 6.09757,-6.208h1.241" data-paper-data="{&quot;origPos&quot;:null}" fill="#f98e65" stroke="none" stroke-width="1"/><path d="M279.195,164.547v7.326c0,10.225 -8.29,18.514 -18.514,18.514h-37.376c-10.224,0 -18.513,-8.29 -18.513,-18.514v-7.326" fill="none" stroke="#ff5400" stroke-width="13.235"/><path d="M218.796,240l5.208,-23.726h36.52l5.21,23.726h-19.286l-1.998,-9.098h-4.37l-1.998,9.098z" fill="#467854" stroke="none" stroke-width="1"/><path d="M261.588,220.412h-39.176v-23.583l19.588,-13.476l19.588,13.476z" fill="#f7c353" stroke="none" stroke-width="1"/><path d="M242,193.941c-14.62,0 -26.47,-11.851 -26.47,-26.47v-5.295c0,-14.619 11.85,-26.47 26.47,-26.47c14.62,0 26.47,11.851 26.47,26.47v5.295c0,14.619 -11.85,26.47 -26.47,26.47" data-paper-data="{&quot;origPos&quot;:null}" fill="#75584d" stroke="none" stroke-width="1"/><path d="M240.346,168.99c0,1.70546 -1.38254,3.088 -3.088,3.088c-1.70546,0 -3.088,-1.38254 -3.088,-3.088c0,-1.70546 1.38254,-3.088 3.088,-3.088c1.70546,0 3.088,1.38254 3.088,3.088M250.229,175.304c-0.0491,4.39962 -3.62961,7.94039 -8.0295,7.94039c-4.39989,0 -7.9804,-3.54077 -8.0295,-7.94039" fill="#42210b" stroke="none" stroke-width="1"/><path d="M242.199,177.422c2.41321,-0.00243 4.69894,1.08313 6.222,2.955c-1.52295,1.87213 -3.80865,2.95804 -6.222,2.956c-2.413,0.00174 -4.69827,-1.08414 -6.221,-2.956c1.52306,-1.87187 3.80879,-2.95743 6.222,-2.955" fill="#ff5400" stroke="none" stroke-width="1"/><path d="M250.229,168.99c0,1.70573 -1.38277,3.0885 -3.0885,3.0885c-1.70573,0 -3.0885,-1.38277 -3.0885,-3.0885c0,-1.70573 1.38277,-3.0885 3.0885,-3.0885c1.70573,0 3.0885,1.38277 3.0885,3.0885" fill="#42210b" stroke="none" stroke-width="1"/><path d="M232.059,174.023c0,3.12041 -2.52959,5.65 -5.65,5.65c-3.12041,0 -5.65,-2.52959 -5.65,-5.65c0,-3.12041 2.52959,-5.65 5.65,-5.65c3.12041,0 5.65,2.52959 5.65,5.65M263.64,174.023c0,3.12041 -2.52959,5.65 -5.65,5.65c-3.12041,0 -5.65,-2.52959 -5.65,-5.65c0,-3.12041 2.52959,-5.65 5.65,-5.65c3.12041,0 5.65,2.52959 5.65,5.65" fill="#f98e65" stroke="none" stroke-width="1"/><path d="M268.999,162.389l-0.402,-0.301c0.09,0.888 0.137,1.788 0.137,2.699v3.743c-4.888,0 -9.044,-5.14 -10.585,-12.313c-3.36622,1.93457 -7.64508,1.0728 -10,-2.014c-1.46278,1.91771 -3.73658,3.04309 -6.1485,3.04309c-2.41192,0 -4.68572,-1.12538 -6.1485,-3.04309c-2.35492,3.0868 -6.63378,3.94857 -10,2.014c-1.543,7.172 -5.699,12.312 -10.587,12.312v-3.743c0.0005,-0.89336 0.04556,-1.78613 0.135,-2.675l-0.4,0.277c0,-14.912 12.088,-27 27,-27c14.912,0 27,12.088 27,27z" data-paper-data="{&quot;origPos&quot;:null}" fill="#31140c" stroke="none" stroke-width="1"/><path d="M217.252,147.882h-4.9c-1.4619,0 -2.647,-1.1851 -2.647,-2.647c0,-1.4619 1.1851,-2.647 2.647,-2.647h4.9c1.67914,-0.0022 3.0398,-1.36286 3.042,-3.042v-4.899c0,-1.4619 1.1851,-2.647 2.647,-2.647c1.4619,0 2.647,1.1851 2.647,2.647v4.9c0,4.596 -3.74,8.335 -8.336,8.335" fill="#6f2d1c" stroke="none" stroke-width="1"/><path d="M286.735,168.191c0,4.1645 -3.376,7.5405 -7.5405,7.5405c-4.1645,0 -7.5405,-3.376 -7.5405,-7.5405c0,-4.1645 3.376,-7.5405 7.5405,-7.5405c4.1645,0 7.5405,3.376 7.5405,7.5405" data-paper-data="{&quot;origPos&quot;:null}" fill="#75584d" stroke="none" stroke-width="1"/><path d="M212.36522,161.838c0,4.16478 -3.37622,7.541 -7.541,7.541c-4.16478,0 -7.541,-3.37622 -7.541,-7.541c0,-4.16478 3.37622,-7.541 7.541,-7.541c4.16478,0 7.541,3.37622 7.541,7.541" data-paper-data="{&quot;origPos&quot;:null}" fill="#75584d" stroke="none" stroke-width="1"/></g></g></svg>