<svg xmlns="http://www.w3.org/2000/svg" width="57.08" height="110.712"><g fill-rule="evenodd" stroke-miterlimit="10" data-paper-data="{&quot;isPaintingLayer&quot;:true}" style="mix-blend-mode:normal"><path fill="#1d1d1d" d="m30.233 3.771.365 73.185C25.107 81.102 4.07 69.441 4.07 69.441L7.075 5.585z"/><path fill="#1d1d1d" d="m54.075 5.585 3.005 63.856s-21.037 11.661-26.53 7.515l.367-73.185zm-14.442 99.752c1.636 1.004 2.825 3.122 1.422 4.794-1.057 1.177-2.613.284-3.798-.216-1.31-.619-2.803-1.036-3.985-1.838-.765-.535-1.666-1.17-2.18-1.964-.16-.244-.237-.542-.18-.776zm-18.63 0c-1.637 1.004-2.823 3.122-1.422 4.794 1.057 1.177 2.615.284 3.797-.216 1.31-.619 2.804-1.036 3.986-1.838.765-.535 1.665-1.17 2.18-1.964.16-.244.237-.542.18-.776z"/><path fill="#4f4f4f" d="m41.607 81.724-1.78 23.675h-9.024l-.344-17.121h-.262l-.347 17.121h-9.023l-1.783-23.675z"/><path fill="#75594c" d="M51.899 76.01c.226 2.126-.796 3.973-2.284 4.13-.971.102-1.901-.544-2.491-1.595-.551.454-1.092.632-1.482.428-.73-.385-.644-1.971.193-3.538a6.2 6.2 0 0 1 1.09-1.491c.409-.839 1.075-1.412 1.873-1.495 1.488-.156 2.875 1.437 3.1 3.562M6.726 42.634c.985.188 1.444 2.055 1.03 4.168a7.5 7.5 0 0 1-.735 2.112c-.18 1.117-.748 2.012-1.643 2.39-1.67.704-3.844-.658-4.86-3.042C-.5 45.876.03 43.377 1.699 42.673c1.092-.459 2.399-.037 3.455.973.478-.715 1.046-1.114 1.57-1.012" data-paper-data="{&quot;origPos&quot;:null}"/><path fill="#343434" d="m6.905 49.685 4.908 5.865 10.554-3.816-.01.017c1.824-1.204 6.706-1.384 6.706-1.384l1.59.045h.134l1.595-.06s4.78.211 6.648 1.386c-.003-.002-.003-.004-.003-.004s5.839 3.04 7.456 5.096c3.326 4.224 4.598 16.93 4.598 16.93l-4.327-.004s-1.171-9.177-2.716-11.348c-.56-.787-.9-1.321-1.112-1.738 1.97 9.027 2.216 21.107 2.216 21.107l.035 23.967h-10.07c-3.442-.322-5.17-.405-8.207 0H16.233l.06-23.926h.008s.278-13.768 2.629-22.898c-1.376.539-7.7 2.919-9.65 2.217-2.707-.975-6.704-9.325-6.704-9.325z"/><path fill="#75594c" d="M49.334 73.755c.104.75-.127 1.825-.68 2.901-.874 1.691-2.223 2.74-3.01 2.338-.788-.4-.716-2.101.158-3.794a6.817 6.817 0 0 1 .99-1.445z" data-paper-data="{&quot;origPos&quot;:null}"/><path fill="#e2a821" d="M43.442 54.04v32.88h-.298v-1.89h-.356v1.89h-.3v-1.89h-.292v1.89h-.297v-1.89h-.356v1.89h-.3v-1.89h-.354v1.89h-.297v-1.89h-.356v1.89h-.297v-1.89h-.297v1.89h-.295v-1.89h-.36v1.89h-.296v-1.89h-.354v1.89h-.301v-1.89h-.354v1.89h-.295v-1.89h-.3v1.89h-.295v-1.89h-.356v1.89h-.297v-1.89h-.295v1.89h-.3v-1.89h-.354v1.89h-.297v-1.89h-.3v1.89h-.294v-1.89h-.36v1.89h-.294v-1.89h-.238v1.89h-.297v-1.89h-.356v1.89h-.295v-1.89h-.297v1.89h-.297v-1.89h-.357v1.89h-.297V50.191s7.736.706 12.23 3.848"/><path fill="#eeeeed" d="M33.086 82.964V50.445c2.139.337 5.58 1.065 8.43 2.488v30.03h-8.43z"/><path fill="#dba51d" d="M38.272 70.696v.005zm-3.264-1.286c-.061-.083.122-.965.13-1.009h-.001c-.025-.019.015-.154.085-.354.029-.089.057-.174.07-.224 0-.01 0-.02.004-.03a.602.602 0 0 1 .066-.198c.073-.104.31-.234.433-.234.054 0 .087.039.092.063.02.126-.02.21-.05.28a.385.385 0 0 0-.04.095.96.96 0 0 0 0 .16c.006.03.026.082.04.13.015.036.028.069.036.095.005.02.009.05.018.076.012.07.031.138.057.204.056.097.133.18.225.244.019.012.04.02.063.024.068.021.15.045.206.197h.039a.169.169 0 0 0-.01-.015c-.005-.015.023-.039.07-.071.055-.044.135-.099.165-.159h-.007c-.014 0-.02-.009-.024-.013-.002-.006.007-.02.027-.046a.334.334 0 0 0 .073-.141h-.01a.044.044 0 0 1-.01-.013c-.001-.004.006-.017.016-.039a.437.437 0 0 0 .046-.115c-.004.002-.017.002-.017.002a.054.054 0 0 1-.008-.013c-.003-.005.004-.02.01-.048a.347.347 0 0 0 .026-.067c-.01.011-.03.015-.03.015h-.007l-.004-.002v-.002c.045-.113.052-.205.015-.27-.033-.065-.096-.08-.096-.08h-.002c-.077.011-.123.03-.16.043a.239.239 0 0 1-.09.028c-.026 0-.087-.017-.087-.043l-.002-.007.004.005a.27.27 0 0 0 .119-.039c.039-.02.078-.044.12-.044h.008c.005-.045-.144-.135-.205-.158a.195.195 0 0 0-.048-.005l-.042.002h-.037a.285.285 0 0 1-.052-.004l-.018-.009c-.02-.006-.041-.015-.063-.015-.04 0-.06.024-.068.076l-.002.009-.002-.007c-.052-.039-.066-.104-.042-.165a.186.186 0 0 1 .172-.128s.049-.007.09-.007c0 0 .003 0 .005.003.004-.01.01-.013.017-.02.03-.037.077-.091.214-.098.08-.002.19.042.304.083.088.037.179.064.273.082h.01l-.01.009s-.031.037-.091.037h-.007c.035.04.067.082.096.127.005.01.013.019.022.03.009.015.02.03.03.043.022.028.036.046.027.056-.003.003-.013.005-.013.005a.162.162 0 0 1-.055-.024c.015.019.042.052.048.067.009.016.017.033.024.05.009.024.018.05.028.063.004.01.011.018.02.024.024.024.05.054.042.074a.075.075 0 0 1-.022.007c-.007 0-.013 0-.02-.003.007.009.01.016.007.018 0 .002-.005.002-.007.006.002.002.002.005.002.007.005.026.025.065.04.106.028.066.054.124.037.148-.003.004-.013.004-.013.004h-.005s-.002.003-.006 0a.254.254 0 0 0 .042.092c.02.043.039.075.03.095l-.011.007c.004.015.018.052.024.095.007-.043.022-.08.022-.095a.03.03 0 0 0-.004-.007c-.011-.019.006-.052.03-.095.016-.03.03-.06.042-.092-.01.003-.013 0-.013 0-.01 0-.011 0-.016-.004-.013-.024.01-.082.039-.148.018-.041.036-.08.04-.108v-.005c0-.004-.002-.004-.004-.006-.003-.005.002-.008.004-.018-.004.003-.02.003-.02.003-.01 0-.02-.003-.02-.007-.008-.019.02-.05.04-.074a.072.072 0 0 0 .022-.024.246.246 0 0 0 .028-.063c.009-.021.013-.039.022-.05a.406.406 0 0 1 .053-.067 1.18 1.18 0 0 1-.062.024c-.004 0-.008-.002-.008-.005-.01-.01.004-.028.028-.056.007-.014.02-.028.03-.044.007-.01.016-.019.022-.03a.825.825 0 0 1 .094-.126h-.008a.122.122 0 0 1-.092-.036l-.004-.01h.006c.083-.01.179-.047.273-.082.116-.041.22-.085.304-.083.138.007.182.061.212.098.007.007.013.01.02.02l.006-.003c.04 0 .09.007.09.007.087 0 .148.065.172.128a.146.146 0 0 1-.041.165l-.002.007-.005-.009c-.011-.052-.03-.076-.067-.076-.024 0-.044.009-.064.015a.044.044 0 0 0-.017.009.292.292 0 0 1-.052.004h-.04l-.037-.002a.267.267 0 0 0-.05.005c-.062.023-.21.113-.206.158h.009c.04 0 .079.024.12.043.037.02.079.042.116.04l.004-.005v.007c0 .026-.061.043-.087.043h-.002a.222.222 0 0 1-.087-.028c-.04-.013-.086-.033-.16-.043h-.005s-.061.015-.096.08c-.033.065-.028.157.016.27v.002l-.003.002h-.015a.04.04 0 0 1-.02-.015c.007.026.016.047.022.067.01.028.016.043.013.048-.002.009-.018.013-.018.013l-.01-.002c.01.04.026.078.046.114.013.023.022.036.015.04-.002.006-.004.013-.017.013h-.003a.294.294 0 0 0 .077.141c.017.026.028.039.024.046 0 .004-.021.012-.021.012h-.01c.034.062.11.118.164.16.048.034.077.056.075.071-.005.007-.011.015-.018.015h.05c.055-.152.14-.176.206-.197.024-.007.043-.011.065-.024a.83.83 0 0 0 .225-.244 1.33 1.33 0 0 0 .057-.204c.005-.026.013-.056.018-.076l.032-.095c.016-.048.035-.1.042-.13a.642.642 0 0 0 0-.16.308.308 0 0 0-.037-.095c-.03-.07-.07-.154-.053-.28.004-.024.035-.063.094-.063.123 0 .36.13.433.234.03.042.05.133.068.198l.002.03c.021.075.045.15.072.224.063.2.107.334.08.354h-.001c.01.044.192.926.13 1.009-.001.004-.01.006-.01.006h-.012c.006.029.022.183-.005.417l-.002.009-.028-.037c.014.029.023.06.028.092.012.11-.024.252-.048.367a.828.828 0 0 0-.024.128v.009l-.004-.005c0-.004-.011-.011-.02-.026v.005c.008.015.013.03.018.043 0 .026-.01.072-.018.126-.013.096-.035.23-.035.372v.008l-.004-.004c0-.005-.018-.02-.03-.035l.008.02a.078.078 0 0 1 .017.026c.005.048.013.319-.05.402-.013.016-.026.024-.041.026h-.003c-.02 0-.037-.037-.05-.111-.01.018-.024.046-.037.046l-.002-.002c-.026-.005-.04-.061-.046-.096-.004.015-.022.04-.037.04-.024 0-.037-.049-.044-.09-.004.022-.031.054-.031.054-.03 0-.04-.058-.045-.1 0-.01-.003-.019-.003-.026-.015-.05-.041-.121-.067-.197a2.12 2.12 0 0 1-.092-.298c-.002-.015-.007-.031-.004-.044h-.014a.816.816 0 0 0-.024-.08c-.006.03-.017.074-.036.074h-.01l-.015.002-.022-.085a.346.346 0 0 0-.036-.104c-.027-.059-.055-.139-.09-.235 0 .054-.007.189-.04.224-.008.007-.022.009-.022.009-.011 0-.021-.007-.035-.013a.87.87 0 0 1-.115-.256c-.01.052-.028.16-.068.16h-.005c-.072-.006-.135-.239-.18-.441v.599h.03a.657.657 0 0 1 .212.04.92.92 0 0 1 .212.156c.02.018.043.02.06.022.007.002.014.002.016.009.005.002.005.004.005.006-.014.05-.064.07-.16.07h-.026c.004.004.006.009.01.012.023.038.044.075.066.09.009.004.057.043.04.083-.007.013-.024.017-.048.017a.317.317 0 0 1-.084-.011c.04.067.062.133.046.165l.374.413.01-.002c.027 0 .045.009.053.02.003.003.003-.003.003.013h.096c.008-.016.057-.068.08-.074.009-.003.032-.003.032-.003a.12.12 0 0 1 .03.003l.006.004a.11.11 0 0 1 .07-.03c.03 0 .062.017.072.041a.065.065 0 0 1-.006.074l-.002.004-.003-.004c-.01-.018-.026-.025-.057-.025l-.03.02c0 .013-.004.033-.004.037a.036.036 0 0 0 .018.003l.03-.005.006-.002-.005.007c0 .004-.027.043-.08.045a.51.51 0 0 1-.041-.01.073.073 0 0 0-.033.01.094.094 0 0 1-.033.009c-.011 0-.032-.009-.042-.013v.004c.01.018.066.035.09.039a.26.26 0 0 1 .063.009.18.18 0 0 1 .057.043c.005.003.02.005.02.005.01.002.026.005.033.015.008.009.008.017.002.037 0 .004-.004.006-.01.006.036.027.058.057.058.09a.087.087 0 0 1-.052.071l-.01.002.005-.006a.06.06 0 0 0 .002-.044c-.02-.036-.083-.054-.091-.056-.018.017-.033.033-.05.033h-.003c-.024-.005-.024-.031-.026-.048 0-.011-.002-.015-.004-.024-.018-.033-.042-.035-.053-.035v.002l-.002-.002c-.002-.002-.08-.052-.105-.085.009.043.054.066.094.083.024.013.042.02.052.03.005.009.003.024.003.037 0 .013-.003.029.002.037.002.002.015.005.015.005.018.006.037.008.039.032.003.007-.004.011-.013.02-.004.004-.013.008-.013.013 0 .002.009.006.013.008.009.006.016.011.016.016-.003.019-.038.024-.055.024a.137.137 0 0 1-.007.136.11.11 0 0 1-.096.053.05.05 0 0 1-.017-.013v-.003l.004-.002a.094.094 0 0 0 .044-.058c.009-.031-.007-.068-.018-.085l-.024.004c-.085 0-.096-.132-.107-.23a.277.277 0 0 0-.017-.094c-.002-.004-.018-.008-.018-.008-.008-.003-.013-.003-.015-.005-.007-.002-.011-.011-.015-.017-.01-.008-.016-.018-.02-.018-.006-.002-.017.01-.026.02-.01.004-.015.013-.024.018a.175.175 0 0 1-.064.01c-.03 0-.057-.004-.067-.015-.016-.009-.03-.032-.042-.055-.004-.012-.013-.02-.017-.03-.06-.004-.1-.017-.116-.045h-.005l-.008-.002a.067.067 0 0 0-.033-.007s-.018.007-.044.042l-.004.01v-.011a.122.122 0 0 1 .017-.1c.022-.024.057-.024.07-.024h.018a.025.025 0 0 1 .01-.015c.009-.006.044-.008.044-.008.018 0 .03.002.038.008a.195.195 0 0 1 .048.046c.006.002.039.022.052.028l.02.002-.376-.36a.248.248 0 0 1-.037.058c-.02.026-.06.039-.06.039-.027 0-.063-.093-.087-.158-.035.071-.087.134-.126.134-.011 0-.02-.002-.024-.01-.011-.005-.02-.039-.027-.089-.035.03-.072.058-.096.058h-.008c-.018-.004-.031-.028-.04-.052a.881.881 0 0 1-.258.154c.078.07.22.346.238.437.003.008.009.033-.004.038-.018.006-.048.01-.048.01-.007 0-.015 0-.022-.004.079.128.164.304.179.378 0 .011.007.034-.011.041a.14.14 0 0 1-.052.009c-.01 0-.02 0-.033-.002.103.154.234.402.256.488.004.024.009.037 0 .04-.015.004-.03.01-.044.01-.057 0-.094-.034-.14-.084.023.078.024.15.013.171a.127.127 0 0 1-.015.016l-.004.002c-.033 0-.085-.054-.134-.124a.413.413 0 0 1-.008.172c-.003.004-.007.01-.013.01h-.005c-.03 0-.078-.065-.122-.141.002.082-.002.148-.022.172-.003.004-.013.007-.013.007-.04 0-.092-.092-.136-.19.007.095-.006.178-.028.205a.02.02 0 0 1-.013.01c-.002.003-.004.003-.004.003-.018 0-.042-.02-.068-.048-.022.11-.064.2-.11.2-.048 0-.09-.096-.113-.207-.024.033-.048.055-.07.055l-.007-.003s-.008-.002-.013-.01c-.02-.027-.03-.109-.026-.205-.044.099-.096.189-.135.189-.007 0-.011-.002-.013-.007-.018-.023-.027-.088-.02-.17-.048.075-.094.14-.127.14h-.002c-.004-.002-.011-.006-.013-.013a.448.448 0 0 1-.007-.184c-.05.074-.107.132-.142.132h-.004c-.01-.002-.011-.004-.013-.011-.013-.021-.01-.087.008-.165-.041.05-.087.078-.126.078-.018 0-.031-.006-.044-.01-.011-.003-.011-.016-.007-.04.024-.086.15-.332.254-.486l-.024.001a.12.12 0 0 1-.055-.01c-.015-.007-.011-.031-.006-.041.041-.133.101-.26.177-.378-.007.003-.016.003-.024.003a.1.1 0 0 1-.044-.01c-.015-.004-.011-.028-.007-.037.05-.16.132-.308.239-.437a.836.836 0 0 1-.26-.147c-.01.023-.02.041-.035.046h-.01c-.023 0-.06-.029-.095-.06-.01.05-.02.085-.027.09-.004.008-.013.01-.024.01-.038 0-.091-.063-.128-.135-.022.064-.06.16-.086.16-.02 0-.04-.014-.061-.04a.57.57 0 0 1-.037-.058l-.367.36a.078.078 0 0 1 .015-.002l.048-.028a.195.195 0 0 1 .049-.046c.01-.006.02-.008.05-.008a.123.123 0 0 1 .032.008c.003.005.007.009.013.015h.014c.015 0 .048 0 .072.025.02.03.026.066.017.1v.01l-.006-.011c-.023-.034-.053-.041-.053-.041-.01 0-.015.004-.027.007-.003.002-.01.002-.01.002-.017.028-.055.041-.116.046-.007.008-.011.017-.017.03-.016.022-.024.045-.04.054-.015.011-.037.015-.067.015a.15.15 0 0 1-.064-.011c-.008-.004-.017-.013-.024-.016-.011-.012-.02-.023-.028-.02-.002 0-.011.008-.015.017-.005.007-.011.015-.018.017-.004.002-.01.002-.022.005a.055.055 0 0 0-.013.008c-.01.014-.011.048-.017.094-.007.098-.02.23-.105.23-.01 0-.016-.002-.027-.004-.008.017-.026.055-.017.085.004.021.022.043.048.058l.002.002-.002.003c-.004.01-.03.013-.03.013-.022 0-.057-.016-.08-.053-.014-.021-.036-.066-.01-.136-.015 0-.05-.004-.053-.024-.004-.005.007-.009.014-.016.006-.002.013-.006.013-.008 0-.005-.004-.009-.014-.013-.006-.009-.01-.013-.01-.02.002-.024.02-.026.043-.032l.009-.005c.007-.008.002-.024.002-.037 0-.013-.002-.028.007-.037.006-.01.026-.017.048-.03.04-.017.089-.039.096-.083a.588.588 0 0 1-.105.085v.002-.002h-.004a.056.056 0 0 0-.05.035c-.005.009-.005.013-.005.024-.004.018-.006.043-.026.048h-.004c-.018 0-.03-.016-.046-.033-.016.002-.074.02-.094.056a.074.074 0 0 0 0 .044l.004.006-.007-.002c-.03-.013-.05-.039-.05-.071 0-.033.02-.063.057-.09-.006 0-.015-.002-.015-.006-.002-.02-.002-.028.006-.037.007-.011.02-.013.037-.015a.045.045 0 0 0 .013-.005.217.217 0 0 1 .06-.043c.015-.007.065-.008.065-.008.02-.005.079-.022.09-.04v-.004c-.011.004-.035.013-.055.013 0 0-.011-.002-.024-.009a.06.06 0 0 0-.035-.011l-.015.005c-.011.004-.015.006-.024.006-.05-.002-.08-.041-.08-.045l-.005-.007.01.002s.014.005.035.005c0 0 .005 0 .009-.003-.002-.004-.002-.024-.002-.036a.166.166 0 0 0-.045-.02c-.02 0-.03.006-.04.024l-.005.004-.001-.004c-.018-.025-.023-.048-.01-.075a.084.084 0 0 1 .073-.04.116.116 0 0 1 .072.03c0-.002.004-.004.01-.007h.025c.013 0 .026 0 .03.003a.213.213 0 0 1 .083.074h.096c0-.016 0-.009.003-.013.006-.011.023-.018.053-.018h.01l.374-.413c-.018-.03.006-.098.046-.164a.375.375 0 0 1-.086.01c-.026 0-.036-.004-.046-.017-.017-.04.033-.079.04-.083.022-.015.04-.052.068-.089 0-.004.004-.011.004-.013h-.033c-.087 0-.135-.024-.147-.072v-.004c.005-.009.02-.009.02-.009.016-.002.037-.004.057-.022a.92.92 0 0 1 .212-.156.628.628 0 0 1 .208-.039h.013v-.557c-.03.192-.096.392-.162.398h-.002c-.042 0-.06-.108-.068-.161-.037.117-.078.217-.118.257-.01.006-.03.013-.03.013h-.007a.037.037 0 0 1-.015-.009c-.037-.034-.04-.174-.042-.224a2.136 2.136 0 0 1-.092.233.713.713 0 0 0-.038.104c0 .024-.01.087-.04.087v-.002c-.02 0-.031-.044-.035-.074a.643.643 0 0 0-.025.072c0 .002-.01.008-.01.008h-.004c0 .014-.003.029-.005.044-.004.006-.004.013-.004.015-.013.072-.053.176-.086.28-.03.073-.055.149-.072.226-.008.042-.017.1-.043.1h-.005c-.013 0-.024-.032-.03-.054-.007.041-.018.089-.044.093-.015 0-.031-.028-.037-.043-.004.035-.022.091-.046.096l-.007.002c-.015 0-.023-.028-.033-.045-.012.073-.028.11-.05.11a.056.056 0 0 1-.041-.026c-.066-.082-.055-.354-.05-.402a.052.052 0 0 1 .015-.026.088.088 0 0 0 .009-.02c-.011.015-.03.031-.03.035l-.005.004v-.008c.005-.142-.02-.276-.035-.372-.006-.054-.018-.1-.016-.126 0-.013.009-.028.016-.043 0-.003 0-.005.002-.005-.01.016-.02.022-.02.026l-.004.005v-.009c-.002-.03-.014-.076-.024-.128-.026-.115-.06-.257-.052-.367.006-.024.02-.066.03-.092l-.031.038v-.01c-.028-.234-.008-.388-.006-.417h-.015l-.007-.006z"/><path fill="#dba51d" d="M38.474 67.805c.017-.005.059-.02.072-.04.004-.004.004-.008.004-.013v-.002l-.004.002c-.021.003-.061.005-.061.005-.055 0-.088-.016-.118-.029-.013-.004-.03-.008-.04-.015a.334.334 0 0 0-.065-.005.049.049 0 0 0-.02.01c-.011.004-.024.021-.035.037a.039.039 0 0 1-.011.015l-.004.006h.009l.03-.002c.035 0 .07.007.103.02l.037.01a.37.37 0 0 0 .103 0m-2.19-.048a.5.5 0 0 1-.065-.005l-.002-.002v.002c-.003.005 0 .011.002.016.015.019.057.034.072.037a.324.324 0 0 0 .102 0l.04-.009a.327.327 0 0 1 .133-.017h.007l-.005-.007c0-.004-.004-.009-.011-.017-.008-.016-.021-.033-.034-.037-.005-.007-.02-.007-.033-.007-.022 0-.042 0-.052.002a.211.211 0 0 1-.04.016c-.031.013-.066.028-.114.028m.562-1.047-.04-.011a.107.107 0 0 1-.033.033c.03-.009.059-.013.073-.022zm-.35-.178h-.003l.005.002zm.469.128a.133.133 0 0 1-.056.044.944.944 0 0 1 .113-.018.1.1 0 0 1-.057-.026zm.999.04c-.018.006-.033.008-.048.01l.076.02zm.313-.166.002-.002h-.002zm-1.041.133h-.004a.123.123 0 0 1-.094-.04c-.01.007-.031.04-.063.053l.162-.013zm.149-.103c-.013.061-.072.096-.131.1.048-.002.098-.002.15-.002h.079a.14.14 0 0 1-.098-.098zm.303.111a.092.092 0 0 1-.05-.045.2.2 0 0 1-.083.035c.049.002.09.008.134.01zm.158.025a.112.112 0 0 1-.037-.04.196.196 0 0 1-.055.026c.03 0 .062.004.092.013zm-.24-.162c-.011-.011-.02-.024-.02-.034 0-.028.022-.048.05-.048.022 0 .044.019.044.048 0 .013-.01.026-.017.034 0 .009.015.089.076.089h.017a.21.21 0 0 0 .042-.03c.013-.013.02-.028.017-.042 0-.017-.003-.028-.013-.03h-.004s-.015 0-.024.009c.013-.004.024-.004.028.004.009.016.01.026.007.039-.017.022-.057.027-.057.027h-.004s-.035-.003-.04-.059a.072.072 0 0 1 .02-.057c.02-.019.043-.032.063-.032.018 0 .027.004.035.013a.08.08 0 0 0-.021-.059c-.007-.013-.018-.022-.018-.035 0-.008.015-.03.033-.052.034-.043.08-.104.074-.163-.02-.106-.194-.121-.297-.121-.048 0-.092.002-.092.002-.008.158.015.228.022.258.007.012.009.016.007.022-.003.017-.057.039-.057.044h-.004c-.014.015-.04.052-.04.078.022-.007.039-.013.055-.013.063 0 .076.067.078.095a.066.066 0 0 1-.017.052c-.013.018-.035.024-.053.024h-.012s-.03-.004-.04-.054c0-.005 0-.013.004-.015l.018-.009h.004c.004 0 .014.002.024.018 0-.007 0-.011-.004-.016-.007-.008-.014-.013-.024-.013a.019.019 0 0 0-.022.012c-.007.004-.011.014-.01.03.01.058.084.06.093.06 0 0 .042-.004.066-.028a.062.062 0 0 0 .013-.048zm-.538.003c0 .013-.011.032-.024.047-.006.007-.02.016-.033.013-.032-.002-.048-.026-.046-.047 0-.02.013-.026.033-.022a.13.13 0 0 0-.022-.004h-.004c-.01.004-.013.019-.013.028.002.024.035.065.072.071.027.004.074-.028.077-.086a.044.044 0 0 1-.02-.037c0-.028.019-.048.046-.048.023 0 .043.019.043.048a.05.05 0 0 1-.013.034c.013.068.048.072.077.072h.013c.033 0 .079-.017.085-.065 0-.013-.037-.033-.037-.033s-.015.005-.02.016c-.004.003-.004.006-.004.013.006-.018.03-.022.03-.022s.022.008.02.03c0 .02-.02.05-.044.05h-.002c-.07-.008-.074-.045-.074-.074 0-.002 0-.006-.003-.008-.004-.017.005-.039.02-.057a.1.1 0 0 1 .07-.03c.017 0 .033.006.048.015a.12.12 0 0 0-.052-.085h-.004v-.002c-.013-.007-.046-.024-.048-.037 0-.006.002-.011.004-.022a.582.582 0 0 0 .015-.258s-.04-.002-.085-.002c-.098 0-.277.015-.293.121-.007.059.037.12.073.163.019.022.03.044.03.052 0 .013-.007.022-.015.035a.084.084 0 0 0-.027.058.068.068 0 0 1 .04-.01c.046 0 .085.043.087.083zm1.054.117c-.005.004-.014.004-.02.004-.016 0-.035-.015-.037-.03-.003-.037.017-.078.063-.085 0-.002.022-.002.022-.002s.019.002.035.017a.077.077 0 0 0-.018-.028c-.008-.011-.017-.022-.017-.033 0-.026.026-.047.05-.073.026-.027.06-.059.06-.098-.003-.087-.143-.137-.167-.146.046.122-.035.278-.042.285a.174.174 0 0 1-.085.022.09.09 0 0 1 .02.01c.01.011.01.038.007.068-.007.058-.07.063-.07.063s-.02.002-.03-.012c-.008-.006-.01-.016-.01-.03.005-.026.035-.03.035-.03h.007s.007 0 .017.009c0-.005-.002-.007-.006-.009-.005-.004-.018-.006-.018-.006a.056.056 0 0 0-.041.024c-.005.01-.013.023-.005.05.009.023.027.03.04.03l.01-.002h.009s.035-.005.07-.072v-.019c0-.02.015-.04.035-.04a.04.04 0 0 1 .04.039.036.036 0 0 1-.03.037v.003c-.02.026-.027.047-.021.067a.041.041 0 0 0 .022.024l.018.004c.017 0 .04-.009.056-.041zm-1.414-.047c.004.008 0 .03-.01.04-.01.013-.025.016-.045.009.024.026.046.039.06.039.023 0 .034-.024.034-.038a.094.094 0 0 0-.02-.06c-.02-.004-.028-.017-.028-.036 0-.02.015-.04.037-.04s.037.019.037.039c0 .009 0 .016-.006.022.02.044.06.07.094.072.008 0 .019-.007.028-.015.013-.013.015-.032.013-.052-.002-.016-.028-.042-.052-.037a.043.043 0 0 0-.02.01c.009-.004.022-.006.022-.006.022 0 .035.019.037.033 0 .008 0 .019-.01.026-.001.008-.01.015-.022.017h-.01c-.028 0-.07-.035-.074-.085 0-.021.007-.037.015-.043.009-.007.016-.013.027-.015-.037-.002-.08-.007-.094-.022-.007-.007-.086-.163-.04-.285-.026.009-.168.059-.168.146-.002.038.033.071.06.098.025.026.05.047.05.073 0 .011-.01.023-.02.033-.005.008-.01.02-.016.028a.092.092 0 0 1 .048-.017c.038 0 .068.035.073.065zm-.328-.198a.06.06 0 0 1 .017-.04.05.05 0 0 1-.03-.045c0-.02.019-.042.04-.046a.054.054 0 0 1-.016-.039c0-.024.022-.046.053-.046 0 0 .006 0 .01.002 0-.006-.004-.015-.004-.021 0-.026.017-.043.052-.043a.128.128 0 0 1 .022.01c-.002-.004-.002-.009-.002-.013 0-.023.02-.043.052-.043 0 0 .013.004.022.015.002-.024.022-.044.044-.044.024 0 .04.015.044.037l.035-.002c0-.004-.005-.009-.005-.017 0-.024.022-.046.053-.046l.013.004c-.005-.006-.007-.015-.007-.026 0-.024.024-.045.057-.045 0 0 .009.002.017.008l-.002-.008a.048.048 0 0 1 .048-.046c.014 0 .027.008.035.02.004-.022.044-.037.044-.037.02-.001.039.01.046.03a.045.045 0 0 1 .044-.033c.02 0 .04.018.043.044.002-.022.042-.037.042-.037.024 0 .039.015.045.037.005-.02.02-.028.04-.028a.042.042 0 0 1 .042.043v.005h.013a.117.117 0 0 1-.013-.059c0-.054.038-.1.09-.109v-.048h-.03c-.001.016-.034.022-.034.022s-.01-.006-.022-.021c0 0-.01-.01-.01-.02 0-.013.009-.024.019-.026.004-.009.035-.015.035-.015s.01.006.013.015h.03v-.033c-.012-.002-.022-.011-.022-.024 0-.012.01-.019.02-.022.002-.013.022-.023.022-.023.013 0 .022.01.022.024.013.001.024.008.024.021 0 .011-.008.02-.018.024v.033h.024c0-.009.01-.015.036-.015 0 0 .006.006.01.015.01.002.02.013.02.026 0 .011-.01.019-.02.021 0 .014-.024.02-.024.02-.011 0-.022-.006-.022-.022h-.024v.048a.116.116 0 0 1 .088.109c0 .017-.005.03-.01.045l-.001.005v-.002c-.002.006-.006.011-.006.011h.012v-.005a.042.042 0 0 1 .044-.043c.017 0 .033.011.039.028.007-.022.024-.037.044-.037.022 0 .04.015.044.037a.045.045 0 0 1 .046-.044c.017 0 .035.016.04.033.005-.017.025-.03.045-.03.021 0 .04.016.043.037.012-.011.023-.02.04-.02.024 0 .044.024.044.048v.006c.006-.006.028-.008.028-.008.024 0 .048.021.048.045 0 .01-.004.02-.011.026l.018-.004c.028 0 .05.022.05.046 0 .008-.002.013-.007.017l.04.002a.04.04 0 0 1 .04-.037c.027 0 .045.02.047.044.005-.011.016-.015.029-.015.024 0 .046.019.046.043 0 .004 0 .009-.003.013.007-.006.027-.011.027-.011a.043.043 0 0 1 .045.044c0 .006 0 .015-.006.021.007-.002.01-.002.017-.002.027 0 .048.022.048.045a.072.072 0 0 1-.015.04c.02.004.035.026.035.046s-.012.038-.03.045c.013.009.02.023.02.039a.05.05 0 0 1-.047.048l-.01-.002c.008.009.01.02.01.032a.045.045 0 0 1-.022.04h.005c.026.002.04.015.043.028.003.011-.002.017-.01.026-.005.002-.007.002-.022.002l-.022-.002s-.004-.004-.026-.004a.133.133 0 0 0-.046.03l-.002.004c-.005.018-.038.042-.038.042-.032.037-.076.091-.111.095l-.024.002c.005.003.009.01.009.016 0 .008-.005.013-.005.013-.004.006-.006.008-.011.008h-.011v.042c.03.005.046.028.046.045-.004.018-.021.031-.046.033v.037l.007.002c.015.002.02.009.02.017 0 .005 0 .011-.005.016-.004.004-.006.008-.011.008h-.004a2.479 2.479 0 0 0-.67-.087c-.237 0-.471.031-.672.087h-.002c-.011 0-.017-.013-.017-.024 0-.008.004-.015.022-.016v-.04c-.025-.004-.038-.015-.042-.033-.002-.015.009-.037.042-.043v-.044h-.005c-.011 0-.017-.013-.017-.021 0-.006.002-.012.006-.016l-.056-.008a.22.22 0 0 1-.06-.069c-.004-.01-.008-.016-.015-.02h-.004c-.013 0-.03-.024-.035-.042v-.008c-.018-.013-.033-.029-.084-.029l-.03.007c-.01.002-.022-.009-.022-.022 0-.006.007-.028.053-.032a.044.044 0 0 1-.024-.039c0-.012.004-.024.013-.033l-.01.002a.048.048 0 0 1-.05-.048zm-2.44 12.593a.891.891 0 0 1 .893-.884h5.048a.89.89 0 0 1 .89.884c0 .491-.4.887-.89.887h-5.048a.89.89 0 0 1-.892-.887m0 2.422a.89.89 0 0 1 .892-.885h5.048c.49 0 .89.395.89.885 0 .491-.4.884-.89.884h-5.048a.889.889 0 0 1-.892-.884m.892-23.853a.889.889 0 0 0-.891.884c.001.49.4.888.89.887h1.664v1.651a.885.885 0 0 0 .89.887.889.889 0 0 0 .89-.887v-1.651h1.605a.89.89 0 0 0 .89-.887c0-.487-.4-.884-.89-.884h-1.604v-1.595c0-.489-.4-.885-.891-.885a.885.885 0 0 0-.89.885v1.595h-1.663"/><path fill="#9a7417" d="M37.095 58.467a.296.296 0 1 1 .592 0 .296.296 0 0 1-.592 0m0-2.186a.296.296 0 1 1 .592 0 .297.297 0 0 1-.592 0m0 4.489a.296.296 0 1 1 .592 0 .297.297 0 0 1-.592 0m2.553-2.538c.162 0 .294.132.295.295a.296.296 0 0 1-.593 0 .298.298 0 0 1 .298-.295m-4.514 0a.296.296 0 1 1 .002.59.296.296 0 0 1-.002-.59"/><path fill="#e2a821" d="M17.59 53.219c4.386-2.38 12.23-3.028 12.23-3.028v36.728h-.294v-1.888h-.356v1.888h-.3v-1.888h-.297v1.888h-.295v-1.888h-.356v1.888h-.297v-1.888h-.238v1.888h-.295v-1.888h-.356v1.888h-.297v-1.888h-.298v1.888h-.297v-1.888h-.358v1.888h-.295v-1.888h-.297v1.888h-.298v-1.888h-.355v1.888h-.3v-1.888h-.295v1.888h-.295v-1.888h-.356v1.888h-.296v-1.888h-.36v1.888h-.295v-1.888h-.356v1.888h-.3v-1.888h-.292v1.888h-.297v-1.888h-.36v1.888h-.296v-1.888h-.354v1.888h-.3v-1.888h-.356v1.888h-.297v-1.888h-.292v1.888h-.3v-1.888h-.356v1.888h-.298v-33.7"/><path fill="#eeeeed" d="M19.49 52.364c2.85-1.087 6.355-1.676 8.428-1.954v32.553H19.49z"/><path fill="#dba51d" d="m22.76 70.696-.001.005v-.005zm3.133-2.295c.008.044.192.926.13 1.009-.004.004-.011.006-.011.006H26c.003.029.018.183-.007.417v.009l-.03-.037c.009.026.027.068.027.092.01.11-.022.252-.05.367a.596.596 0 0 0-.02.128l-.003.009-.006-.005c0-.004-.007-.011-.015-.026v.005a.095.095 0 0 1 .015.043.788.788 0 0 1-.015.126c-.016.096-.04.23-.033.372v.008l-.007-.004c-.002-.005-.02-.02-.03-.035a.084.084 0 0 0 .008.02.04.04 0 0 1 .016.026c.006.048.015.319-.048.402a.062.062 0 0 1-.042.026c-.024 0-.04-.037-.052-.111-.007.018-.033.046-.033.046s-.007 0-.007-.002c-.024-.005-.04-.061-.046-.096-.007.015-.021.043-.037.043h-.002c-.024-.003-.035-.052-.042-.093-.004.022-.015.054-.03.054-.028 0-.042-.058-.046-.1 0-.01-.004-.024-.004-.028-.015-.05-.04-.122-.065-.198a1.797 1.797 0 0 1-.09-.28v-.015a.082.082 0 0 1-.01-.044h-.012l-.002-.008c-.005-.012-.012-.037-.022-.072-.007.03-.017.074-.037.074h-.002v.002c-.03 0-.038-.063-.04-.087 0-.015-.017-.052-.037-.104a4.725 4.725 0 0 1-.094-.233c0 .05-.004.189-.04.224-.006.007-.022.009-.022.009h-.01l-.02-.013a.75.75 0 0 1-.118-.256c-.01.052-.028.16-.07.16-.064-.006-.134-.206-.164-.398v.556h.016c.07.002.14.015.205.04a.89.89 0 0 1 .215.156c.019.018.045.02.06.022.005 0 .013 0 .018.009v.004c-.013.048-.06.072-.15.072h-.036c.004.002.007.009.009.012.017.034.04.065.07.09.007.004.054.043.037.083-.004.013-.02.017-.05.017a.345.345 0 0 1-.08-.011c.038.067.062.135.045.165l.373.413h.014c.026 0 .043.007.05.018.002.003.002-.003.002.013h.096c.01-.016.057-.068.083-.074.007-.003.017-.003.037-.003h.02c.004.003.006.005.006.007a.112.112 0 0 1 .075-.03c.03 0 .056.016.072.041.013.026.009.05-.01.074l-.003.004-.002-.004c-.007-.018-.038-.025-.038-.025-.017 0-.035.012-.048.02l-.002.037c.005.003.016.003.016.003.015 0 .03-.005.03-.005l.009-.002-.005.007a.106.106 0 0 1-.08.045h-.005a.18.18 0 0 1-.04-.01.065.065 0 0 0-.03.01.098.098 0 0 1-.03.009.12.12 0 0 1-.044-.013v.004c.007.018.066.035.09.039.021 0 .042.004.063.009.02.012.04.026.056.043.003.003.012.005.02.005.009.002.027.005.035.015.005.009.005.017.003.037-.003.004-.014.006-.014.006.037.027.057.057.057.09a.08.08 0 0 1-.05.071l-.01.002.006-.006a.074.074 0 0 0 0-.044c-.02-.036-.08-.054-.094-.056-.013.017-.03.033-.046.033h-.005c-.021-.005-.021-.031-.024-.048 0-.011 0-.015-.006-.024-.018-.033-.042-.035-.05-.035h-.005v.002-.002a.667.667 0 0 1-.107-.085c.01.043.057.066.098.083.022.013.042.02.049.03.008.009.006.024.006.037-.004.013-.004.029.002.037 0 .002.015.005.015.005.016.006.036.008.04.032 0 .007-.01.011-.013.02-.007.004-.013.008-.013.013 0 .002.006.006.013.008.006.006.013.011.013.016 0 .019-.053.024-.053.024.029.069.005.115-.01.136a.101.101 0 0 1-.092.053s-.013-.003-.018-.013l-.002-.003.002-.002a.088.088 0 0 0 .048-.058c.01-.031-.008-.068-.017-.085a.127.127 0 0 1-.026.004c-.088 0-.096-.132-.105-.23a.349.349 0 0 0-.018-.094c-.004-.004-.017-.008-.017-.008-.007-.003-.013-.003-.018-.005-.004-.002-.008-.011-.017-.017-.005-.008-.015-.018-.015-.018-.01-.002-.018.01-.03.02-.005.004-.014.013-.023.018a.169.169 0 0 1-.063.01c-.031 0-.058-.004-.068-.015a.142.142 0 0 1-.037-.055c-.011-.012-.015-.02-.02-.03-.06-.004-.1-.017-.116-.045h-.004l-.01-.002a.167.167 0 0 0-.023-.007c-.013 0-.028.007-.057.042l-.002.01v-.011c-.01-.043 0-.076.02-.1.022-.024.055-.024.072-.024h.014l.01-.015c.013-.006.043-.008.043-.008.018 0 .03.002.04.008a.195.195 0 0 1 .048.046l.05.028.02.002-.376-.36a.246.246 0 0 1-.034.058c-.023.026-.042.039-.06.039-.028 0-.065-.095-.092-.158-.032.071-.083.134-.126.134-.01 0-.016-.002-.022-.01-.01-.005-.02-.039-.026-.089-.031.03-.068.058-.096.058h-.007c-.017-.005-.028-.022-.037-.045a.789.789 0 0 1-.26.147c.083.077.22.346.238.437.004.008.009.033-.007.038a.12.12 0 0 1-.052.01s-.007 0-.018-.004c.078.117.138.244.18.378.004.011.008.034-.007.041a.134.134 0 0 1-.076.009c.1.152.185.315.25.486.005.024.005.037-.001.04-.016.004-.031.01-.046.01-.044 0-.088-.028-.13-.078.019.078.023.144.009.166-.002.006-.006.008-.01.01h-.007c-.035 0-.09-.058-.142-.132.009.087.009.16-.006.184a.025.025 0 0 1-.014.013h-.004c-.03 0-.081-.065-.124-.141a.355.355 0 0 1-.018.172.02.02 0 0 1-.015.007c-.04 0-.092-.092-.134-.19.002.095-.008.178-.028.205-.007.008-.017.01-.017.01 0 .003-.005.003-.005.003-.02 0-.041-.022-.068-.055-.023.111-.063.207-.113.207-.044 0-.085-.09-.114-.2-.022.028-.043.048-.065.048l-.006-.003s-.005-.002-.01-.01c-.021-.027-.032-.109-.028-.205-.042.099-.096.189-.136.189h-.004a.038.038 0 0 1-.008-.007.336.336 0 0 1-.02-.17c-.044.075-.092.14-.124.14h-.01l-.008-.01a.413.413 0 0 1-.01-.172c-.047.069-.1.124-.13.124h-.002l-.005-.002c-.008 0-.012-.009-.012-.016-.016-.021-.012-.093.01-.171-.046.05-.083.084-.14.084-.015 0-.028-.006-.043-.01-.007-.003-.005-.016 0-.04.067-.171.153-.335.255-.488-.013.002-.023.002-.033.002a.148.148 0 0 1-.052-.009c-.015-.007-.013-.031-.01-.041.014-.074.1-.25.18-.378-.008.003-.022.003-.022.003a.15.15 0 0 1-.05-.01c-.011-.004-.006-.028-.006-.037.019-.091.163-.367.243-.437a.84.84 0 0 1-.26-.154c-.007.024-.023.048-.04.053h-.007c-.026 0-.066-.029-.096-.06-.01.05-.017.085-.026.09-.01.008-.014.01-.024.01-.04 0-.092-.063-.13-.135-.021.066-.058.16-.085.16-.02 0-.04-.014-.06-.04a.343.343 0 0 1-.04-.058l-.374.36.02-.002c.016-.006.044-.026.053-.028a.162.162 0 0 1 .048-.046c.007-.006.019-.008.037-.008a.12.12 0 0 1 .044.008c.005.003.01.009.01.015h.018c.013 0 .048 0 .07.025.02.023.024.056.02.1v.01l-.005-.011c-.024-.034-.054-.041-.054-.041a.056.056 0 0 0-.024.007l-.013.002c-.018.028-.057.041-.116.046a.07.07 0 0 0-.018.03c-.013.022-.026.045-.041.054-.013.011-.036.015-.066.015a.152.152 0 0 1-.065-.011c-.007-.004-.016-.013-.024-.016-.01-.012-.02-.023-.033-.02l-.01.017c-.008.007-.01.015-.02.017-.001.002-.005.002-.014.005a.033.033 0 0 0-.017.008c-.011.014-.014.048-.018.094-.01.098-.022.23-.114.23l-.017-.004c-.011.017-.027.055-.017.085a.088.088 0 0 0 .047.058v.005c-.004.01-.015.013-.03.013-.026 0-.06-.016-.08-.053-.016-.021-.036-.066-.01-.136-.017 0-.052-.004-.054-.024 0-.005.006-.009.015-.016.004-.002.013-.006.013-.008 0-.005-.01-.009-.013-.013-.01-.009-.015-.013-.013-.02 0-.024.022-.026.035-.032a.038.038 0 0 0 .02-.005c.004-.008.002-.024.002-.037 0-.013 0-.028.004-.037.007-.01.024-.017.05-.03.04-.017.09-.039.094-.083a.52.52 0 0 1-.105.085v.002-.002h-.01a.056.056 0 0 0-.044.035c-.002.009-.005.013-.005.024-.002.018-.006.043-.026.048h-.004c-.015 0-.031-.016-.044-.033-.016.002-.074.02-.096.056a.074.074 0 0 0 0 .044l.006.006-.01-.002a.083.083 0 0 1-.05-.071c0-.033.02-.063.06-.09-.01 0-.013-.002-.015-.006-.002-.02-.002-.028.005-.037.006-.011.019-.013.042-.015a.101.101 0 0 0 .01-.005.18.18 0 0 1 .057-.043c.015-.007.065-.008.065-.008.02-.005.079-.022.088-.04v-.004a.13.13 0 0 1-.053.013l-.022-.009c-.01-.006-.03-.011-.03-.011-.007 0-.02.005-.02.005-.011.004-.024.006-.024.006h-.004c-.048-.002-.074-.041-.074-.045l-.007-.007.007.002.03.005c.009 0 .013 0 .018-.003-.005-.004-.005-.024-.005-.036a.083.083 0 0 0-.048-.02.035.035 0 0 0-.035.024l-.006.004-.002-.004a.074.074 0 0 1-.007-.075.08.08 0 0 1 .068-.04.122.122 0 0 1 .076.03l.007-.004a.18.18 0 0 1 .04-.003s.014 0 .019.003c.024.006.07.058.08.074h.097c0-.016 0-.009.002-.013.009-.011.026-.02.05-.02l.016.002.373-.413c-.02-.032.004-.098.044-.164a.349.349 0 0 1-.083.01c-.024 0-.042-.004-.046-.017-.02-.04.028-.079.037-.083a.362.362 0 0 0 .07-.089c0-.004.004-.009.004-.013h-.035c-.084 0-.135-.02-.144-.07-.004-.002 0-.004 0-.006.002-.007.009-.007.017-.009.016-.002.04-.004.06-.022a.89.89 0 0 1 .214-.156.63.63 0 0 1 .21-.039h.03v-.6c-.046.202-.107.435-.18.441h-.006c-.038 0-.058-.108-.068-.161a.762.762 0 0 1-.12.257c-.008.006-.02.013-.03.013h-.007a.038.038 0 0 1-.013-.009c-.04-.034-.041-.169-.041-.224a8.009 8.009 0 0 1-.09.235.394.394 0 0 0-.037.104.512.512 0 0 1-.04.085v-.002h-.026s-.01-.044-.014-.074c-.01.035-.02.061-.02.072-.003.002-.007.008-.014.008h-.004c0 .014-.004.029-.007.044l-.004.015c-.011.072-.052.18-.085.283-.03.076-.057.147-.07.197l-.002.026c-.005.042-.016.1-.046.1h-.013a.287.287 0 0 1-.016-.054c-.01.041-.02.09-.043.09h-.002c-.016 0-.031-.025-.04-.04-.004.035-.017.091-.043.096l-.003.002c-.013 0-.028-.028-.037-.045-.01.073-.03.11-.05.11h-.002a.058.058 0 0 1-.04-.026c-.065-.082-.056-.354-.048-.402 0-.01.005-.02.014-.026a.047.047 0 0 1 .01-.02c-.015.015-.032.031-.032.035l-.007.004v-.008c.004-.142-.017-.276-.031-.372a.444.444 0 0 1-.015-.126.09.09 0 0 1 .013-.043c0-.003.003-.005.003-.005-.011.016-.02.022-.02.026l-.007.005v-.009a1.742 1.742 0 0 0-.022-.128c-.026-.115-.061-.257-.052-.367a.56.56 0 0 1 .03-.092l-.03.038v-.01a1.702 1.702 0 0 1-.005-.417h-.015s-.006-.002-.008-.006c-.062-.083.12-.965.13-1.009H21.4c-.026-.019.016-.154.083-.354.03-.089.057-.174.07-.224.003-.01.003-.02.007-.03a.659.659 0 0 1 .063-.198c.073-.104.31-.234.433-.234.059 0 .09.039.094.063.02.126-.02.21-.05.28a.27.27 0 0 0-.04.095.642.642 0 0 0 0 .16c.005.03.027.082.045.13.01.036.025.069.03.095l.017.076c.013.07.032.138.057.204.057.097.134.18.227.244.02.013.037.017.064.024.07.021.15.045.205.197h.043l-.01-.015c-.002-.015.026-.037.074-.071.055-.042.13-.099.167-.159h-.01c-.015 0-.021-.009-.021-.013-.005-.006.004-.02.02-.046a.292.292 0 0 0 .075-.141h-.01s-.005-.007-.007-.013c-.002-.004.002-.017.016-.039.015-.028.039-.072.043-.115-.002.002-.008.002-.008.002-.007 0-.016-.004-.018-.013a.896.896 0 0 0 .035-.115c-.01.011-.031.015-.031.015h-.004l-.004-.002.002-.002c.043-.113.046-.205.013-.27-.033-.065-.096-.08-.096-.08h-.002c-.076.011-.123.03-.156.043a.276.276 0 0 1-.091.028c-.03 0-.09-.017-.09-.043v-.007l.007.005c.035.001.072-.019.113-.039.042-.02.08-.044.12-.044h.009c.005-.045-.142-.135-.205-.158a.27.27 0 0 0-.06-.005l-.027.002h-.04c-.018 0-.035 0-.052-.004a.044.044 0 0 0-.018-.009c-.017-.006-.04-.015-.063-.015-.038 0-.06.024-.068.076v.009l-.007-.007a.138.138 0 0 1-.036-.165.183.183 0 0 1 .17-.128.795.795 0 0 1 .092-.007v.003c.008-.01.015-.013.02-.02.032-.037.08-.091.216-.098.08-.002.19.042.303.083.093.035.188.072.273.082h.007l-.007.009s-.032.037-.094.037h-.006c.035.04.067.082.096.127.004.01.013.019.02.03l.03.043c.027.028.037.046.033.056-.004.003-.01.005-.03.005a.583.583 0 0 0-.042-.024c.015.019.042.052.05.067.005.011.016.029.023.05a.155.155 0 0 0 .03.063c.002.009.008.015.017.024.022.024.052.054.042.074 0 .004-.01.007-.027.007 0 0-.008 0-.015-.003.005.009.01.013.007.018l-.005.006c0 .002.003.005.003.005.007.038.02.074.038.108.027.066.05.124.04.148-.004.004-.01.004-.017.004h-.003s-.004.003-.01 0c.006.027.024.059.042.092.02.043.04.075.03.095l-.01.007c.005.015.02.052.027.095.007-.043.02-.08.024-.095-.001-.002-.006-.005-.011-.007-.006-.019.01-.052.035-.095a.44.44 0 0 0 .039-.092c-.006.003-.01 0-.01 0h-.01s-.003 0-.01-.004c-.011-.024.018-.082.039-.148.02-.041.04-.08.042-.106v-.007c0-.004-.002-.004-.002-.006-.002-.002 0-.008.004-.018-.004.003-.013.003-.031.003l-.01-.007c-.01-.019.017-.05.04-.074.008-.009.019-.015.02-.024a.189.189 0 0 0 .029-.063.38.38 0 0 1 .074-.117c-.017.009-.043.024-.063.024a.031.031 0 0 1-.006-.005c-.01-.01.004-.028.03-.056a.228.228 0 0 1 .03-.044c.005-.01.016-.019.018-.03a.993.993 0 0 1 .096-.126h-.006a.122.122 0 0 1-.092-.036l-.007-.01h.007c.083-.01.179-.047.273-.082.116-.041.219-.085.304-.083.138.007.18.061.214.098a.05.05 0 0 1 .018.02c.002-.003.004-.003.008-.003.037 0 .085.007.085.007a.186.186 0 0 1 .173.128c.024.061.01.126-.037.165l-.004.007v-.009c-.014-.052-.035-.076-.07-.076-.024 0-.046.009-.066.015a.127.127 0 0 0-.015.009.41.41 0 0 1-.064.004h-.028l-.04-.002a.214.214 0 0 0-.05.005c-.061.023-.21.113-.205.158h.009c.04 0 .08.024.12.043.04.02.08.042.118.04l.005-.005v.007c0 .026-.062.043-.09.043a.251.251 0 0 1-.09-.028c-.037-.013-.083-.033-.16-.043h-.002s-.063.015-.096.08c-.034.065-.03.157.016.27v.002l-.003.002h-.007a.045.045 0 0 1-.03-.015c.007.026.018.047.022.067a.229.229 0 0 1 .016.048c-.005.009-.02.013-.02.013s-.007 0-.01-.002c.01.04.026.078.047.114.013.023.02.036.015.04-.002.006-.017.013-.017.013h-.002a.313.313 0 0 0 .076.141c.017.026.026.039.024.046-.004.004-.01.012-.024.012h-.007c.034.062.108.116.164.16.048.032.077.056.07.071-.002.007-.015.015-.015.015h.046c.057-.152.138-.176.205-.197a.16.16 0 0 0 .063-.024.79.79 0 0 0 .23-.244 1.15 1.15 0 0 0 .052-.204l.02-.076c.007-.026.02-.059.033-.095l.042-.13a.77.77 0 0 0 0-.16.234.234 0 0 0-.04-.095c-.03-.07-.068-.154-.05-.28.002-.024.034-.063.094-.063.12 0 .36.13.43.234.033.042.053.133.068.198 0 .01.004.02.004.03.02.076.043.15.07.224.063.2.107.334.083.354h-.002z"/><path fill="#dba51d" d="M22.559 67.804a.287.287 0 0 0 .102 0c.014-.004.027-.008.04-.01a.29.29 0 0 1 .102-.02l.02.002h.018l-.005-.006c-.002-.005-.008-.009-.013-.015-.01-.016-.02-.033-.033-.037-.006-.007-.017-.01-.035-.01a.286.286 0 0 0-.05.005.293.293 0 0 1-.04.015c-.03.013-.063.029-.117.029 0 0-.04-.002-.061-.005l-.003-.002-.002.002c0 .005.002.01.005.013.013.02.056.035.072.04m2.193-.049c-.054 0-.087-.015-.118-.028a.32.32 0 0 1-.041-.016c-.011-.002-.03-.002-.048-.002-.02 0-.026 0-.035.007-.013.004-.026.021-.035.037a.06.06 0 0 1-.013.017l-.005.007h.01c.01 0 .02-.003.02-.003a.31.31 0 0 1 .112.02c.014.002.027.006.04.009a.346.346 0 0 0 .054.004l.049-.004c.015-.003.059-.018.07-.037.004-.005.008-.011.004-.016v-.002l-.005.002a.427.427 0 0 1-.06.005m-.581-1.047s.037-.004.057-.01a.11.11 0 0 0 .03.032c-.028-.008-.057-.013-.087-.022zm.367-.178h.002c-.002 0-.002.002-.002.002zm-.47.128c.007.005.026.03.057.044-.04-.009-.077-.013-.114-.017a.133.133 0 0 0 .057-.027zm-.998.04c.015.006.032.008.048.01a1.268 1.268 0 0 0-.077.02zm-.31-.166s-.003 0-.005-.002h.002l.002.002zm1.037.13a.141.141 0 0 0 .103-.036c.015.023.037.04.063.05l-.166-.013zm-.148-.1c.013.062.076.096.135.1l-.155-.001h-.077a.144.144 0 0 0 .097-.098zm-.252.066a.18.18 0 0 0 .08.035c-.043 0-.086.006-.13.009.03-.011.046-.037.05-.044zm-.175.03c.022.011.04.018.057.024a.426.426 0 0 0-.091.016.114.114 0 0 0 .034-.04zm.206-.121a.05.05 0 0 0 .015-.037.045.045 0 0 0-.046-.046.046.046 0 0 0-.043.046c0 .015.008.028.017.037-.002.008-.013.089-.076.089h-.003s-.037-.013-.056-.03c-.014-.016-.02-.029-.018-.042 0-.017.004-.028.015-.03h.003s.013 0 .024.008c-.013-.004-.024-.004-.03.005-.008.015-.01.026-.001.037.009.024.05.028.05.028h.002s.042-.002.044-.059a.077.077 0 0 0-.02-.058.103.103 0 0 0-.067-.03s-.022.004-.033.012a.1.1 0 0 1 .024-.06c.009-.014.018-.02.018-.033 0-.009-.016-.03-.031-.055-.037-.04-.083-.104-.074-.16.017-.109.192-.124.295-.124.048 0 .085.002.085.002.015.16-.01.23-.015.26-.007.01-.01.014-.007.02.002.02.055.042.057.046h.006c.01.015.04.052.04.078-.022-.006-.04-.013-.057-.013-.066 0-.08.065-.08.096-.001.02.003.037.019.05a.072.072 0 0 0 .052.026h.002s.04-.005.048-.055c.005-.004 0-.013-.002-.015a.03.03 0 0 0-.01-.008h-.007s-.018.002-.03.017c0-.007 0-.01.006-.015a.026.026 0 0 1 .024-.013c.006-.002.015.002.024.01.004.005.006.016.006.031-.01.059-.083.06-.091.06 0 0-.042-.003-.066-.03-.01-.01-.013-.028-.013-.045zm.537.002c0 .013.01.033.024.046.007.006.02.017.033.015.033-.002.048-.026.046-.048 0-.02-.013-.026-.033-.022l.016-.004h.006c.013.004.018.02.018.028 0 .022-.035.065-.072.072-.031.004-.073-.028-.077-.087a.046.046 0 0 0 .02-.04.045.045 0 0 0-.046-.045c-.024 0-.048.02-.048.046 0 .015.009.028.022.037h-.005c-.013.067-.048.072-.076.072h-.01c-.04 0-.084-.02-.086-.066 0-.013.017-.032.017-.032.018 0 .03.004.037.015.005.004.01.006.01.013a.048.048 0 0 0-.032-.022h-.002s-.024.009-.024.03c.002.02.024.05.046.05h.002c.07-.01.072-.045.079-.073v-.009c.002-.02-.007-.039-.022-.056a.095.095 0 0 0-.07-.03.07.07 0 0 0-.044.014c0-.015.007-.058.05-.084v-.003c.016-.006.049-.023.049-.039.004-.006 0-.01-.002-.02a.68.68 0 0 1-.024-.26c.008 0 .043-.002.09-.002.106 0 .28.015.296.124.01.056-.037.12-.072.16a.157.157 0 0 0-.03.055c0 .013.006.02.017.032.01.016.024.035.02.061-.01-.008-.024-.01-.035-.01a.088.088 0 0 0-.088.082zm-1.033.122c.015 0 .037-.016.037-.03.002-.04-.017-.079-.061-.086-.002-.002-.007-.002-.011-.002 0 0-.033.002-.046.018a.073.073 0 0 1 .015-.029c.01-.01.018-.021.018-.034 0-.024-.026-.046-.048-.072-.03-.028-.061-.059-.061-.098 0-.087.14-.137.168-.145-.048.12.035.278.04.284.017.013.05.018.084.02a.035.035 0 0 0-.017.01c-.011.014-.013.04-.011.07.01.059.074.063.074.063s.018.002.029-.01c.006-.007.01-.018.006-.033 0-.024-.033-.028-.033-.028h-.004s-.01 0-.02.008c0-.004.003-.006.007-.008a.034.034 0 0 1 .013-.007h.004c.01 0 .029.007.038.022.01.01.017.026.008.052a.05.05 0 0 1-.028.03c-.015 0-.02-.002-.02-.002h-.002s-.048-.004-.08-.074v-.017c0-.02-.014-.04-.034-.04a.041.041 0 0 0-.041.04.04.04 0 0 0 .03.037l-.002.002h.002c.022.026.029.048.025.065a.043.043 0 0 1-.022.026l-.02.005c-.017 0-.042-.01-.057-.042.007.005.013.005.02.005zm1.403-.011c.008.013.026.013.048.008-.024.027-.048.04-.066.04-.017 0-.028-.026-.033-.04 0-.013.01-.043.025-.058a.04.04 0 0 0 .026-.037c0-.02-.018-.04-.035-.04a.041.041 0 0 0-.042.04c0 .009.002.013.009.02-.02.045-.06.071-.094.073-.01 0-.02-.006-.028-.015a.058.058 0 0 1-.011-.054c.002-.013.026-.04.048-.035 0 0 .015.002.022.01a.13.13 0 0 0-.016-.006c-.028 0-.041.018-.043.03-.003.012 0 .023.008.029.003.009.01.015.024.017h.01c.03 0 .07-.034.07-.084.003-.022-.003-.037-.012-.046a.05.05 0 0 0-.028-.015c.04-.002.076-.005.096-.02.004-.006.09-.165.04-.284.03.008.167.058.167.145 0 .04-.03.07-.06.098-.025.026-.05.048-.05.072 0 .013.008.024.019.034.006.01.015.02.017.029a.092.092 0 0 0-.046-.018c-.037 0-.07.033-.078.066 0 .008 0 .03.013.04zm.3-.278a.05.05 0 0 0 .032-.046c0-.022-.018-.041-.042-.046a.054.054 0 0 0 .018-.039c0-.026-.02-.045-.05-.045 0 0-.011 0-.014.002.003-.007.003-.015.003-.022 0-.026-.016-.046-.042-.046-.01 0-.02.004-.026.013v-.015c0-.021-.022-.041-.042-.041 0 0-.026.004-.035.015-.002-.024-.021-.043-.043-.043-.022 0-.042.015-.044.037l-.035-.003c.002-.004.002-.008.002-.017 0-.026-.017-.046-.043-.046 0 0-.016 0-.02.003.004-.005.006-.013.006-.024a.048.048 0 0 0-.045-.046c-.011 0-.02.002-.027.009v-.007a.047.047 0 0 0-.046-.048s-.028.01-.037.02a.047.047 0 0 0-.048-.037s-.033.013-.041.03a.045.045 0 0 0-.044-.032.04.04 0 0 0-.042.041c-.006-.02-.024-.035-.043-.035a.048.048 0 0 0-.046.035c-.004-.017-.022-.026-.037-.026a.042.042 0 0 0-.044.041v.007l-.002-.002h-.013c.013-.015.017-.033.017-.057 0-.054-.037-.1-.092-.108v-.048h.029a.03.03 0 0 0 .013.02c.022 0 .033-.007.033-.02.015 0 .022-.009.022-.02 0-.013-.007-.024-.022-.026 0-.009-.011-.017-.024-.017 0 0-.02.008-.022.017h-.03v-.032c.015-.003.019-.011.019-.024 0-.013-.007-.02-.018-.022a.043.043 0 0 0-.008-.024c-.027 0-.035.01-.037.024-.011.002-.022.009-.022.022s.01.021.02.024v.032h-.027a.023.023 0 0 0-.022-.017s-.02.008-.022.017c-.013.002-.024.013-.024.026 0 .011.01.02.024.022 0 .01.01.017.01.017.023 0 .032-.006.034-.02h.026v.049a.112.112 0 0 0-.09.108c0 .018.005.03.012.044v.004-.002c.002.006.006.01.006.01h-.01v.003-.007c0-.023-.02-.04-.047-.04a.042.042 0 0 0-.04.025.047.047 0 0 0-.045-.035.044.044 0 0 0-.04.035.045.045 0 0 0-.045-.041c-.017 0-.035.015-.044.033-.004-.018-.024-.03-.043-.03-.02 0-.042.014-.044.036a.05.05 0 0 0-.04-.02c-.023 0-.04.022-.04.046v.009c-.01-.007-.02-.009-.02-.009-.036 0-.06.022-.06.046 0 .01.007.02.01.024-.005-.003-.01-.003-.01-.003-.035 0-.054.02-.054.046 0 .009.002.013.002.017l-.037.003c0-.022-.018-.037-.042-.037a.045.045 0 0 0-.043.043c-.007-.01-.018-.015-.033-.015-.022 0-.044.02-.044.041 0 .005 0 .009.002.015-.006-.008-.017-.013-.017-.013-.035 0-.057.02-.057.046 0 .007.004.015.009.022-.005-.002-.011-.002-.016-.002-.028 0-.048.02-.048.045 0 .015.007.029.016.04a.047.047 0 0 0-.038.045c0 .022.014.04.03.046a.045.045 0 0 0-.021.037c0 .028.024.05.048.05l.01-.003a.043.043 0 0 0-.012.03c0 .016.013.031.022.042-.028.002-.044.015-.046.028-.002.011.002.018.01.024a.022.022 0 0 0 .01.002s.02 0 .026-.002c0 0 .015-.004.024-.004 0 0 .03.006.059.033v.004a.272.272 0 0 0 .024.041c.046.037.09.091.125.096l.015.002c.002.002-.002.009-.002.013 0 .009.002.013.002.013.009.009.013.01.013.01h.01v.042c-.032.005-.047.026-.041.046.003.017.018.03.042.032v.035l-.002.002c-.013.003-.024.009-.024.02 0 .004.002.01.004.015a.042.042 0 0 1 .01.009h.01a2.45 2.45 0 0 1 .666-.087c.236 0 .472.03.673.087h.002c.014 0 .02-.013.02-.024 0-.011-.006-.017-.022-.02v-.037c.024-.004.035-.015.04-.032.002-.018-.01-.037-.04-.044v-.043h.002c.01 0 .02-.013.02-.024 0-.004-.004-.01-.01-.013.017-.002.036-.004.058-.009a.233.233 0 0 0 .06-.071c.006-.01.008-.014.014-.018h.005c.013 0 .028-.024.037-.041v-.009a.083.083 0 0 1 .068-.03s.026.002.046.006c.006.002.02-.006.02-.02 0-.006-.007-.028-.055-.032a.044.044 0 0 0 .026-.041.043.043 0 0 0-.013-.03l.01.002c.03 0 .049-.022.049-.05a.043.043 0 0 0-.02-.037zm2.457 12.632a.89.89 0 0 1-.891.887h-5.048a.887.887 0 0 1-.89-.887c0-.487.398-.884.89-.884H26.2a.89.89 0 0 1 .89.884m0 2.422a.888.888 0 0 1-.89.884h-5.048a.885.885 0 1 1 0-1.769H26.2a.89.89 0 0 1 .89.885m-.89-23.853h-1.664v-1.595a.885.885 0 0 0-.89-.885.888.888 0 0 0-.891.885v1.595H21.15a.888.888 0 0 0-.89.884c0 .489.399.887.89.887h1.604v1.651c0 .491.4.887.892.887.494 0 .89-.396.89-.887v-1.651h1.662a.89.89 0 0 0 .892-.887.89.89 0 0 0-.892-.884"/><path fill="#9a7417" d="M23.937 58.467a.296.296 0 1 1-.592 0 .296.296 0 0 1 .592 0m0-2.186a.297.297 0 0 1-.592 0 .296.296 0 1 1 .592 0m0 4.489a.297.297 0 0 1-.592 0 .296.296 0 1 1 .592 0m-2.552-2.538a.295.295 0 1 1 0 .59.295.295 0 0 1 0-.59m4.51 0a.296.296 0 1 1 .003.592.296.296 0 0 1-.002-.592"/><path fill="#343434" d="M29.104 51.71c-.966 0-1.75-2.027-1.75-3h6.883c0 .973-.787 3-1.753 3h-3.38"/><path fill="#1f2020" d="M28.094 50.934c-.39-.589-.662-1.404-.723-1.993a20.98 20.98 0 0 0 6.848-.026l-.008.013-6.117 2.006"/><path fill="#75594c" d="M51.167 31.74c1.062.679 1.763 1.835 1.763 3.15 0 2.088-1.772 3.783-3.957 3.783-.061 0-.125-.004-.188-.004a20.723 20.723 0 0 1-18.098 10.576 20.723 20.723 0 0 1-18.108-10.596 4.25 4.25 0 0 1-.437.024c-2.186 0-3.958-1.695-3.958-3.783 0-1.411.809-2.641 2.004-3.288a20.953 20.953 0 0 1-.216-2.958c0-11.376 9.278-20.596 20.716-20.596 11.44 0 20.71 9.22 20.71 20.596 0 1.054-.078 2.087-.231 3.097" data-paper-data="{&quot;origPos&quot;:null}"/><path fill="#2c2c2d" d="M26.27 26.126s-.48 1.695-1.992 1.36c-.738-.164-.868-1.13-3.238-.697-.745.17-2.312 1.087-2.614 1.7-.302.613-.084-2.248 2.35-3.312 1.756-.634 2.35-.603 3.805-.603 1.453 0 1.9.853 1.69 1.552m10.099 0s.48 1.695 1.992 1.36c.738-.164.868-1.13 3.238-.697.745.17 2.312 1.087 2.614 1.7.302.613.084-2.248-2.35-3.312-1.756-.634-2.351-.603-3.805-.603-1.453 0-1.901.853-1.69 1.552m-12.05 7.448c0 1.657-.894 3-2 3-1.104 0-2-1.343-2-3s.896-3 2-3c1.106 0 2 1.343 2 3m18 0c0 1.657-.894 3-2 3-1.104 0-2-1.343-2-3s.896-3 2-3c1.106 0 2 1.343 2 3"/><path fill="#e2a86e" d="M28.32 36.574s.207-1.042.504-1.342c.8-1.195 2.49-1.658 2.49-1.658s2.176.727 2.655 1.641c.443.852.34 1.28.34 1.28s-2.124-1.934-2.964-1.816c-1.127.158-3.025 1.895-3.025 1.895z"/><path fill="#a84141" d="M24.52 39.27s6.897 3.208 13.172-.397c0 0-1.39 5.47-5.95 5.561-4.115.122-4.984-1.492-5.477-1.956-.492-.463-1.42-1.772-1.745-3.208" data-paper-data="{&quot;origPos&quot;:null}"/><path fill="#2c2c2d" d="M52.22 25.958c.038 2.419-.815 7.654-2.475 10.774 0 0-4.073-11.46-7.428-13.28-4.1-2.218-14.913.98-18.58-1.895-.608-.48-.538-1.56-.538-1.56s-.701 1.378-1.04 1.763c-1.778 2.01-6.383 4.919-8.57 6.482-1.757 1.256-1.838 1.24-1.45 8.49 0 0-3.23-6.595-3.05-11 .049-1.267.669-4.081 1.675-6.943A22.265 22.265 0 0 1 30.692 6.518c10.026 0 18.502 6.595 21.286 15.657.139 1.257.22 2.519.242 3.783"/><path fill="#343434" d="m55.18 3.724-2.967 22.024H8.989L6.019 3.724c24.633-8.379 49.16 0 49.16 0z"/><path fill="#f6b90c" d="M32.324 5.971h-1.35v3.931h-.741V5.971H28.87v-.737h1.362V3.771h.742v1.464h1.35z"/></g></svg>