<svg xmlns="http://www.w3.org/2000/svg" width="63.952" height="109.887"><g fill-rule="evenodd" stroke-miterlimit="10" data-paper-data="{&quot;isPaintingLayer&quot;:true}" style="mix-blend-mode:normal"><path fill="#be9268" d="M22.705 104.321c-1.72 1.06-2.974 3.206-1.497 4.966 1.115 1.241 2.756.254 4.003-.272 1.377-.652 2.952-1.114 4.2-1.964.807-.562 1.752-1.153 2.295-1.989.169-.256.249-.494.187-.74h-9.188zm19.632 0c1.723 1.06 2.974 3.206 1.497 4.966-1.115 1.241-2.756.254-4.003-.272-1.377-.652-2.952-1.114-4.199-1.964-.806-.562-1.752-1.153-2.296-1.989-.169-.256-.248-.494-.19-.74h9.19z" data-paper-data="{&quot;origPos&quot;:null}"/><path fill="#b16b1a" d="M31.893 104.322c.062.246-.018.48-.186.74-.335.519-.828.929-1.348 1.314 0 .002 0 .002.003.002-.214.161-.43.318-.644.465-.003-.002-.003 0-.005-.002-.103.072-.203.147-.303.215a9.043 9.043 0 0 1-1.304.731v.019c-.305.142-.619.251-.931.437-.339.124-.68.242-1.017.381-.073.031-.145.029-.221.06a.698.698 0 0 1-.061.025l-.175.077c-.039.019-.079.032-.119.05-.043.021-.084.039-.125.057l-.248.111c-.045.023-.093.043-.143.066l-.05.02a1.001 1.001 0 0 0-.094.043c-.025.009-.047.02-.072.032h-.002c-1.189.53-2.63 1.225-3.64.104-.593-.709-.744-1.484-.603-2.222.048-.022.097-.043.146-.062.018 0 .02.005.013.01.908-.506 2.631-.17 3.48.14.564.193 1.181.508 1.564.888.266-.134.557-.281.862-.442a3.615 3.615 0 0 0-.321-.414c-.933-.902-2.319-1.319-3.585-1.35-.277 0-1.114-.012-1.69.065a4.52 4.52 0 0 1 .35-.484 8.88 8.88 0 0 1 2.338-.209c1.263.03 2.649.902 3.641 1.652.09.072.175.149.255.231.482-.26.967-.526 1.42-.8-2.563-2.494-6.707-1.704-6.707-1.704.096-.102.21-.185.335-.247h5.241c1.317.56 2.127 1.309 2.137 1.319.64-.444 1.094-.859 1.174-1.149.019-.07.037-.108.053-.17h.582m1.256.001c-.062.246.018.48.187.74.337.519.828.929 1.347 1.314 0 .002 0 .002-.002.002.212.16.427.315.646.465 0-.002 0 0 .002-.002.103.072.205.147.303.215.415.28.852.524 1.307.731v.019c.302.142.616.251.93.437.339.124.678.242 1.016.381.072.031.147.029.22.06.02.01.04.018.061.025l.178.077c.038.019.078.032.118.05.041.02.083.04.125.057l.246.111.144.066.05.02c.032.013.064.028.096.043l.07.032h.002c1.188.53 2.631 1.225 3.639.104.594-.709.744-1.484.604-2.222a.915.915 0 0 0-.16-.052c-.906-.506-2.628-.17-3.478.14-.566.193-1.181.508-1.565.888-.264-.134-.558-.281-.863-.442.105-.149.211-.296.321-.414.933-.902 2.319-1.319 3.584-1.35.28 0 1.116-.014 1.694.065a5.47 5.47 0 0 0-.353-.487 8.87 8.87 0 0 0-2.337-.206c-1.262.029-2.65.899-3.642 1.649a2.774 2.774 0 0 0-.254.229c-.48-.26-.968-.53-1.42-.804 2.564-2.496 6.72-1.726 6.72-1.726-.144-.123-.235-.154-.348-.216h-5.242c-1.315.623-2.125 1.309-2.137 1.319-.637-.444-1.094-.859-1.174-1.149-.018-.07-.034-.108-.05-.17h-.585"/><path fill="#be9268" d="m12.459 51.808 10.19-3.983s-.843.501-2.176 3.51c-.526 1.182-1.163 3.9-1.163 3.9s-7.21 3.296-9.522 2.463c-2.859-1.031-6.063-10.337-6.063-10.337-1.257-.415-2.48-1.599-3.18-3.245-1.072-2.515-.514-5.159 1.248-5.9 1.149-.485 2.526-.041 3.64 1.029.506-.759 1.105-1.178 1.66-1.074 1.035.202 1.523 2.172 1.085 4.406-.166.849-.443 1.615-.78 2.224a4.059 4.059 0 0 1-.28.999l5.342 6.008zm42.522 21.529c.237 2.243-.84 4.2-2.41 4.366-1.024.108-2.001-.569-2.627-1.679-.58.476-1.155.666-1.565.448-.77-.407-.678-2.079.202-3.737a6.53 6.53 0 0 1 1.152-1.577c.116-.231.248-.458.396-.643h-.003s-2.125-10.043-3.75-12.333a63.37 63.37 0 0 0-1.132-4.965c-.14-.512-.53-1.536-.53-1.536-.723-2.46-2.305-3.955-2.305-3.955s5.15 2.755 6.857 4.925c3.507 4.46 4.55 17.864 4.55 17.864.607.684 1.045 1.685 1.165 2.822" data-paper-data="{&quot;origPos&quot;:null}"/><path fill="#eeeeed" d="M42.69 48.021c5.485 5.765 5.039 31.356 5.039 31.356v25.007H17.326V79.377s-.408-25.557 5.077-31.323c1.475-1.553 8.414-1.78 8.414-1.78l1.68.084h.138l1.666-.084s6.912.193 8.389 1.747"/><path fill="#be9268" d="M35.776 46.328c1.063.08 2.54.229 3.88.497l-6.342 10.37-6.4-10.601a38.973 38.973 0 0 1 2.537-.27c-.289-.619-.464-1.316-.464-1.774h7.256c0 .46-.176 1.16-.467 1.778" data-paper-data="{&quot;origPos&quot;:null}"/><path fill="#eeac6c" d="M29.764 46.875a5.205 5.205 0 0 1-.762-2.107 22.01 22.01 0 0 0 7.225-.025l-.011.014-6.452 2.118"/><path fill="#f6b90c" d="M39.054 71.665c.009-.012.021-.021.032-.032-.096-.025-.212-.025-.294.025a.845.845 0 0 0-.254.258c-.016.027-.035.061-.06.086a.199.199 0 0 1-.011.034c.043-.023.081-.04.121-.063.157-.091.332-.179.467-.308zm-2.134-.202c.004-.088.022-.213-.01-.297-.032-.074-.123-.226-.218-.24-.198-.029-.114.501-.066.578a.798.798 0 0 0 .248.263c.015-.102.036-.204.045-.304zm10.743.422v.808H37.72c.054.746.648 1.591.89 2.216.366.94.63 1.939.47 2.931-.157.94-.63 1.88-.892 2.818-.259.782-.418 2.453-1.203 2.766-.108-2.295 1.567-4.175 1.41-6.419a5.96 5.96 0 0 0-.735-2.66c-.104-.213-.264-.451-.382-.698-.933.852-2.187 2.596-.999 3.724v-.055s.168.365-.146.47c-.733.261-.776-.679-.776-1.149-.05-.625.052-1.411.316-1.933.303-.656 1.15-.975 1.443-1.56a.989.989 0 0 1 .016-.451H17.451v-.808h19.095c-.324-.127-.69-.295-.82-.585-.317-.573.262-1.142.892-1.245 1.188-.137 1.101 1.082.744 1.83h.344c.387-.501 1.315-1.194 1.9-1.058.753.224.53.745.15 1.058h2.199L26.71 46.631v-.009l.321-.048 6.297 10.357 6.204-10.132c.107.022.214.043.319.068l-6.302 10.445 8.848 14.573h5.267z"/><path fill="#744717" d="M62.613 55.266c.526.106 1.545 1.223 1.302 1.701-.467.915-3.18.522-4.167-.018a.471.471 0 0 1-.146.279c-.831.661-3.264-.936-3.846-1.822a.71.71 0 0 1-.05-.093c-.08.175-.182.299-.316.342-.947.286-2.454-1.756-2.83-2.876-.109.113-.227.183-.343.183-1.057.014-1.98-2.689-1.907-3.765a.342.342 0 0 1-.153-.011c-1.017-.306-1.07-3.208-.664-4.184.029-.073.079-.159.138-.249a.463.463 0 0 1-.088-.025c-.956-.462-.556-3.328-.003-4.237-.953-.466-.548-3.332.003-4.24.166-.267.682-.705 1.097-1.036-.064-.373-.108-.715-.048-1.03.095-.525 1.201-1.556 1.684-1.325.958.462.555 3.327.002 4.236.956.466.551 3.332-.002 4.238a1.73 1.73 0 0 1-.187.236c.597.867.576 3.024.234 3.842a1.343 1.343 0 0 1-.12.228c.535.802.913 2.085.938 2.85.876.63 1.787 2.077 1.937 2.827.01.051.016.104.018.156 1.01.347 2.214 1.251 2.603 1.84.05.081.092.167.126.256 1.005-.002 2.203.29 2.728.619.269.172.699.69 1.024 1.112.376-.061.72-.095 1.036-.035" data-paper-data="{&quot;origPos&quot;:null}"/><path fill="#be9268" d="M54.112 26.602c1.117.714 1.85 1.935 1.85 3.316 0 2.205-1.864 3.99-4.167 3.99-.064 0-.125 0-.191-.005a21.83 21.83 0 0 1-19.065 11.152 21.831 21.831 0 0 1-19.081-11.172 4.79 4.79 0 0 1-.464.025c-2.303 0-4.167-1.785-4.167-3.99 0-1.488.851-2.784 2.112-3.47a21.635 21.635 0 0 1-.223-3.113c0-11.997 9.77-21.722 21.823-21.722 12.049 0 21.819 9.725 21.819 21.722 0 1.108-.085 2.2-.246 3.267" data-paper-data="{&quot;origPos&quot;:null}"/><path fill="#744717" d="M26.174 22.491c-.772-.174-.908-1.201-3.386-.74-.779.18-2.417 1.156-2.732 1.808-.316.652-.088-2.392 2.457-3.522 1.835-.675 2.457-.642 3.977-.642s1.987.907 1.766 1.65c0 0-.503 1.803-2.082 1.446zm13.905 0c.772-.174.908-1.201 3.386-.74.779.18 2.417 1.156 2.732 1.808.316.652.087-2.392-2.457-3.522-1.835-.675-2.457-.642-3.977-.642s-1.987.907-1.766 1.65c0 0 .503 1.803 2.082 1.446zM25.945 28.395c0 1.657-.895 3-2 3s-2-1.343-2-3 .895-3 2-3 2 1.343 2 3m18 0c0 1.657-.895 3-2 3s-2-1.343-2-3 .895-3 2-3 2 1.343 2 3" data-paper-data="{&quot;origPos&quot;:null}"/><path fill="#eeac6c" d="M32.965 31.464c-1.125.153-3.02 1.834-3.02 1.834s.207-1.009.503-1.299c.8-1.156 2.487-1.604 2.487-1.604s2.173.703 2.65 1.588c.443.824.34 1.238.34 1.238s-2.121-1.871-2.96-1.756zM26.145 35.091s6.897 3.208 13.172-.397c0 0-1.39 5.47-5.95 5.561-4.115.122-4.984-1.492-5.477-1.956-.492-.463-1.42-1.772-1.745-3.208"/><path fill="#744717" d="M55.221 20.503c.034 2.551-1.107 6.098-1.107 6.098s-5.793-6.827-9.33-8.744c-4.32-2.338-6.477 1.108-10.337-1.928-.64-.5-1.834-1.834-1.834-1.834s-1.45 1.458-1.837 1.835c-4.34 4.231-7.595-.705-11.252 1.85-4.652 3.253-8.585 8.665-8.585 8.665s-1.352-1.538-1.162-6.182c.054-1.337.705-4.306 1.768-7.321A23.443 23.443 0 0 1 32.537 0c10.562 0 19.491 6.954 22.422 16.512a42.33 42.33 0 0 1 .262 3.991" data-paper-data="{&quot;origPos&quot;:null}"/><path fill="#f7b90b" d="m8.326 22.242-.005-3.53c29.161-10.359 47.914.567 47.914.567v2.963c-25.085-11.168-47.91 0-47.91 0z"/></g></svg>