<svg xmlns="http://www.w3.org/2000/svg" width="53.821" height="119.28"><g fill-rule="evenodd" stroke-miterlimit="10" data-paper-data="{&quot;isPaintingLayer&quot;:true}" style="mix-blend-mode:normal"><path fill="#2c2c2d" d="M39.705 56.388c-.277-.958.052-2.65.412-3.25.146-.242.6-.632.97-.928-.059-.336-.094-.637-.04-.921.078-.438.906-1.242 1.38-1.242.061 0 .11.01.16.032.19.093.33.297.42.6.278.943-.039 2.599-.394 3.22.177.099.31.295.394.586.28.953-.049 2.65-.41 3.247-.036.062-.09.128-.157.199.036.056.07.12.104.188.427.899.363 2.626.098 3.275-.03.067-.066.133-.107.195.467.71.81 1.837.832 2.542.784.578 1.585 1.872 1.724 2.55.008.04.012.08.015.13.896.318 1.965 1.124 2.31 1.655.037.054.073.13.11.218.852 0 1.936.252 2.42.559.241.154.62.614.908.99.202-.03.397-.055.582-.055.12 0 .23.012.331.032.341.066.892.588 1.118 1.053.1.21.124.387.058.514-.209.419-.876.505-1.397.507-.79 0-1.785-.215-2.313-.497a.393.393 0 0 1-.134.233c-.117.098-.283.147-.48.147-.937 0-2.54-1.12-2.978-1.79-.007-.013-.012-.025-.02-.037-.077.147-.169.24-.27.27a.692.692 0 0 1-.179.026c-.845 0-2.02-1.616-2.36-2.58-.097.094-.2.148-.294.148h-.008c-.214 0-.428-.125-.645-.357-.628-.69-1.11-2.241-1.074-3.035l-.017.003a.404.404 0 0 1-.095-.012c-.204-.064-.375-.24-.51-.527-.425-.9-.364-2.628-.098-3.274.024-.057.06-.123.104-.191-.014-.008-.03-.013-.043-.02-.195-.093-.336-.294-.427-.597-.275-.946.042-2.601.397-3.223-.177-.1-.31-.297-.397-.583m-19.383 0c.278-.958-.05-2.65-.41-3.25-.15-.242-.6-.632-.97-.928.06-.336.092-.637.041-.921-.08-.438-.908-1.242-1.385-1.242a.351.351 0 0 0-.153.032c-.193.093-.334.297-.422.6-.277.943.037 2.599.395 3.22-.18.099-.312.295-.395.586-.282.953.047 2.65.41 3.247.036.062.092.128.155.199a1.92 1.92 0 0 0-.105.188c-.426.899-.36 2.626-.097 3.275.024.056.061.124.107.195-.467.71-.81 1.837-.832 2.542-.782.578-1.586 1.872-1.724 2.55a.957.957 0 0 0-.015.13c-.896.318-1.962 1.124-2.31 1.655-.037.054-.07.13-.108.218-.854 0-1.938.252-2.422.559-.24.154-.619.614-.908.99a3.794 3.794 0 0 0-.58-.055c-.112 0-.223.01-.333.032-.339.066-.892.588-1.116 1.053-.102.21-.124.387-.06.514.21.419.876.505 1.397.507.791 0 1.785-.215 2.313-.497.017.09.064.173.134.233.117.098.282.147.482.147.935 0 2.537-1.12 2.975-1.79.008-.013.013-.025.022-.037.076.147.168.24.27.27a.692.692 0 0 0 .178.026c.845 0 2.021-1.616 2.36-2.58.1.094.2.148.294.148h.008c.214 0 .428-.125.645-.357.628-.69 1.11-2.241 1.074-3.035 0 0 .012.003.02.003a.42.42 0 0 0 .094-.012c.202-.064.372-.24.51-.527.422-.9.362-2.628.1-3.274a2.275 2.275 0 0 0-.106-.191c.012-.008.03-.013.044-.02.192-.093.336-.294.423-.597.276-.946-.04-2.601-.396-3.223.18-.1.314-.297.396-.583"/><path fill="#bf3550" d="m9.51 63.393 2.774 3.353 24.886-.343 8.73 4.287 4.742 9.75s-7.733 2.846-10.438 3.25c-4.599.688-13.959-.071-18.609-.264C11.478 83.004 4.751 62.56 9.508 63.393z"/><path fill="#775b4f" d="M29.571 114.192c.032.228-.038.417-.178.632-.49.762-1.346 1.313-2.076 1.825-1.125.774-2.547 1.195-3.794 1.79-1.125.477-2.608 1.376-3.618.243-1.305-1.578-.24-3.522 1.27-4.49zm9.514 0c1.51.968 2.571 2.912 1.266 4.492-1.01 1.132-2.493.23-3.618-.248-1.247-.595-2.669-1.011-3.794-1.785-.728-.512-1.584-1.065-2.074-1.827-.14-.218-.212-.404-.18-.632h8.4" data-paper-data="{&quot;origPos&quot;:null}"/><path fill="#9c6c40" d="M29.546 114.178c.053.228-.066.458-.219.693-.492.764-1.388 1.32-2.116 1.832-.73.502-1.583.855-2.433 1.202l-.32.13c-.354.15-.705.294-1.043.458-1.125.475-2.608 1.372-3.616.235a2.35 2.35 0 0 1-.253-.362c.934.414 2.904-.127 4.784-.97-.26-.994-3.35-1.455-4.925-1.217.173-.424.42-.813.73-1.15 4.366-.515 5.293 1.574 5.38 1.796 1.783-.94 3.247-2.02 3.271-2.647 0 0 .526-.742.747-.637l.013.637m1.122-.057c-.054.227.051.506.204.746.49.76 1.347 1.32 2.075 1.832.728.502 1.582.853 2.435 1.2l.316.133c.352.141.7.293 1.042.455 1.127.478 2.608 1.372 3.616.238.017-.022.21-.262.255-.365-.939.414-2.906-.125-4.786-.968.263-.994 3.35-1.457 4.927-1.217a3.945 3.945 0 0 0-.73-1.153c-4.365-.515-5.293 1.574-5.378 1.797-1.787-.94-3.263-2.072-3.285-2.698 0 0-.484-.708-.694-.61l.003.61" data-paper-data="{&quot;origPos&quot;:null}"/><path fill="#775b4f" d="M1.62 53.83c1.04-.442 2.281-.035 3.291.94.453-.69.996-1.076 1.497-.978.935.184 1.374 1.984.98 4.02-.15.778-.4 1.48-.704 2.036a4.2 4.2 0 0 1-.18.723h.002l4.748 5.613 10.08-3.63s-1.714 2.734-2.136 3.73c-.309.728-.905 3.03-.905 3.03s-7.36 3.01-9.45 2.248C6.263 70.619 3.3 62.16 3.3 62.16c-1.113-.401-2.186-1.467-2.81-2.94-.964-2.298-.46-4.71 1.13-5.39m44.473 13.58c3.17 4.07 4.383 16.318 4.383 16.318s-.003-.02-.005-.054c.407.593.694 1.364.784 2.226.214 2.045-.757 3.826-2.177 3.98-.923.096-1.81-.524-2.374-1.538-.523.438-1.042.61-1.414.412-.694-.373-.61-1.9.185-3.41.304-.577.67-1.07 1.04-1.437.033-.061.063-.122.097-.184 0 0-1.378-8.84-2.846-10.934-.738-1.046-1.252-1.813-1.42-2.278-.134-.375-.243-.908-.302-1.18-.472-2.097-3.056-6.833-3.056-6.833s5.562 2.929 7.105 4.913" data-paper-data="{&quot;origPos&quot;:null}"/><path fill="#eeeeed" d="M46.397 83.726s-.999-8.344-2.516-10.658c-.672-1.023-1.202-1.834-1.414-2.243-.029-.057-.1-.24-.122-.314 1.743 8.75 1.536 20.897 1.536 20.897H16.417s-.212-13.236 1.797-22.021c-.979.44-7.105 3.23-9.71 2.199-1.79-.705-5.665-9.127-5.665-9.127l3.71-1.915 4.751 5.515 8-2.792 1.977-.708c1.758-1.21 7.316-1.41 7.316-1.41l1.52.034h.123l1.51-.034s5.483.188 7.273 1.38a.033.033 0 0 1-.007-.01s.962.486 2.215 1.165c1.702.925 4.21 2.67 5.286 4.148 2.613 3.578 4.074 15.894 4.074 15.894h-4.19"/><path fill="#e63250" d="M50.641 80.44c-6.96-10.802-15.493-6.353-19.963-9.636-1.242-.917-1.064-4.808-.353-6.18.621-1.197 3.158-1.956 3.932-3.68 7.567 1.614 14.842 4.459 16.384 19.496"/><path fill="#e63250" d="M26.321 60.944c.543 2.1 3.414 2.45 4.005 3.68.711 1.485-.287 5.406-1.59 6.405-4.104 3.159-14.84 2.628-19.227-7.636 3.058 4.166 11.823-3.123 16.812-2.45"/><path fill="#f6b90c" d="M29.8 66.67a.243.243 0 0 1-.348 0l-.01-.01a.243.243 0 0 1 0-.346l1.393-1.403a.244.244 0 0 1 .346 0l.01.01a.25.25 0 0 1 0 .352l-1.39 1.399z"/><path fill="#f6b90c" d="M31.181 66.67a.243.243 0 0 1-.348 0l-1.393-1.397a.254.254 0 0 1 0-.352l.013-.01a.247.247 0 0 1 .348 0l1.39 1.403a.243.243 0 0 1 0 .348l-.01.01z"/><path fill="#d6aa3b" d="M10.595 64.323c.246.12.506.21.774.267 2.988 5.14 12.664 10.822 18.64 3.39.106.073.145.347 0 .523-4.3 6.863-15.788 3.618-19.414-4.18"/><path fill="#d6aa3b" d="M50.522 79.376c-8.502-11.864-18.616-4.68-20.516-10.884-.09-.091-.1-.433 0-.511 1.875 5.684 12.707-.157 20.38 10.405.048.33.094.66.136.99"/><path fill="#2baae2" d="M43.87 87.762c.63 1.89 6.122 16.687 6.015 23.946-3.91 4.115-34.535 4.024-39.022.005-.93-5.677 5.013-22.24 5.568-23.952H43.87"/><path fill="#1a5f77" d="m45.453 92.35.051.162c-.704.095-1.106.345-1.524.607-.497.306-1.006.622-2.012.662-1.005.03-1.514-.248-2.008-.52-.492-.27-.955-.526-1.912-.502-.956.023-1.422.299-1.913.593-.492.294-1 .597-2.007.612-1.008.012-1.516-.267-2.01-.551-.493-.284-.958-.536-1.904-.536h-.02c-.947 0-1.414.252-1.904.536-.485.279-.984.55-1.975.55h-.033c-1.006-.014-1.515-.317-2.01-.611-.49-.294-.959-.571-1.91-.593-.957-.027-1.423.232-1.917.502-.492.272-1.003.55-2.009.519-1.006-.04-1.514-.355-2.006-.661-.433-.27-.847-.524-1.585-.612l.053-.167c.76.098 1.198.368 1.622.635.494.308.964.597 1.924.634.961.032 1.426-.225 1.921-.495.49-.27.995-.551 2.001-.524.998.017 1.504.32 1.994.617.494.297.962.576 1.924.588.96.009 1.426-.247 1.921-.531.49-.28.995-.556 1.994-.556h.014c.991 0 1.497.276 1.987.556.496.284.964.548 1.926.536.96-.012 1.427-.294 1.921-.59.492-.294.998-.6 1.997-.62.998-.026 1.506.254 1.996.524.494.272.964.527 1.924.495.961-.037 1.43-.326 1.923-.634.414-.258.84-.522 1.566-.624m1.873 5.954c.015.054.03.11.05.164-.785.174-1.248.47-1.698.759-.55.353-1.123.72-2.254.848-1.133.115-1.71-.13-2.26-.368-.529-.227-1.076-.46-2.143-.376-1.069.068-1.617.379-2.147.68-.553.316-1.125.644-2.26.69h-.182c-1.018 0-1.559-.266-2.082-.526-.53-.267-1.079-.536-2.157-.531h-.02c-1.049 0-1.592.269-2.116.53-.554.275-1.127.559-2.264.527-1.135-.046-1.707-.374-2.257-.69-.533-.301-1.08-.612-2.148-.681-1.068-.083-1.614.15-2.142.377-.555.238-1.128.483-2.262.368-1.134-.128-1.702-.495-2.254-.848-.449-.29-.916-.585-1.7-.761.014-.055.03-.109.046-.162.806.176 1.283.482 1.743.779.563.36 1.091.7 2.184.82 1.09.11 1.617-.115 2.175-.352.547-.236 1.113-.478 2.223-.39 1.105.07 1.67.394 2.215.703.56.32 1.09.622 2.184.667 1.091.03 1.622-.233 2.182-.51.545-.272 1.113-.551 2.223-.55 1.108-.006 1.672.278 2.22.549.558.278 1.091.542 2.182.51 1.095-.044 1.624-.346 2.184-.666.545-.31 1.11-.632 2.218-.703 1.108-.088 1.673.154 2.22.39.558.237 1.086.462 2.18.352 1.087-.12 1.62-.46 2.177-.82.462-.297.937-.6 1.74-.78m1.655 6.403c.01.054.024.113.034.166-.835.236-1.334.562-1.816.88-.604.394-1.224.804-2.464 1.004-1.242.18-1.87-.034-2.474-.242-.575-.2-1.172-.405-2.332-.275-1.162.11-1.76.439-2.34.757-.606.33-1.232.676-2.476.75a8.223 8.223 0 0 1-.304.007c-1.05 0-1.622-.255-2.18-.505-.567-.252-1.156-.516-2.282-.516h-.06c-1.164-.008-1.76.259-2.34.516-.606.27-1.234.55-2.48.498-1.248-.074-1.876-.42-2.48-.75-.58-.318-1.176-.647-2.34-.757-1.158-.13-1.755.076-2.332.275-.606.208-1.229.423-2.469.242-1.242-.201-1.865-.61-2.464-1.004-.506-.333-1.027-.676-1.93-.908.01-.057.021-.111.033-.17.933.243 1.47.594 1.987.934.616.404 1.196.786 2.4.982 1.2.174 1.776-.025 2.39-.235.593-.206 1.207-.42 2.405-.285 1.193.114 1.807.449 2.401.774.616.34 1.2.662 2.408.73 1.205.054 1.787-.206 2.4-.48.585-.261 1.191-.531 2.355-.531h.12c1.158 0 1.762.269 2.35.53.612.275 1.197.535 2.402.48 1.207-.067 1.79-.39 2.405-.73.592-.324 1.206-.66 2.403-.773 1.198-.135 1.812.079 2.406.285.614.21 1.191.409 2.391.235 1.203-.196 1.782-.578 2.396-.982.5-.33 1.013-.662 1.877-.902"/><path fill="#775b4f" d="M28.608 62.49c-.922 0-1.67-1.987-1.67-2.9h6.56c0 .913-.748 2.9-1.67 2.9h-3.22" data-paper-data="{&quot;origPos&quot;:null}"/><path fill="#e2a86e" d="M27.646 61.738a4.82 4.82 0 0 1-.692-1.923c2.162.356 4.369.347 6.528-.024l-.007.012-5.829 1.935"/><path fill="#775b4f" d="M49.642 43.229c1.008.654 1.673 1.767 1.673 3.027 0 2.014-1.688 3.644-3.764 3.644-.06 0-.118-.002-.178-.004-3.365 6.07-9.82 10.18-17.224 10.18-7.414 0-13.87-4.117-17.238-10.2a4.175 4.175 0 0 1-.42.024c-2.078 0-3.765-1.631-3.765-3.643 0-1.357.771-2.543 1.908-3.17a20.317 20.317 0 0 1-.202-2.843c0-10.95 8.827-19.827 19.717-19.827 10.89 0 19.715 8.877 19.715 19.827 0 1.014-.076 2.013-.222 2.985" data-paper-data="{&quot;origPos&quot;:null}"/><g data-paper-data="{&quot;origPos&quot;:null}"><path fill="#2c2c2d" d="M25.541 37.847s-.426 1.526-1.762 1.224c-.653-.147-.768-1.017-2.865-.627-.66.153-2.045.979-2.312 1.53-.268.552-.074-2.023 2.08-2.98 1.552-.57 2.08-.543 3.364-.543 1.286 0 1.682.768 1.495 1.396m8.934 0s.426 1.526 1.762 1.224c.653-.147.768-1.017 2.865-.627.66.153 2.045.979 2.312 1.53.268.552.074-2.023-2.079-2.98-1.553-.57-2.08-.543-3.365-.543-1.286 0-1.682.768-1.495 1.396M23.816 44.55c0 1.49-.792 2.7-1.77 2.7-.977 0-1.769-1.21-1.769-2.7 0-1.491.792-2.7 1.77-2.7.977 0 1.77 1.209 1.77 2.7m15.921 0c0 1.49-.79 2.7-1.768 2.7s-1.77-1.21-1.77-2.7c0-1.491.792-2.7 1.77-2.7.977 0 1.77 1.209 1.77 2.7"/><path fill="#683918" d="M27.354 47.25s.184-.937.446-1.207c.708-1.075 2.204-1.492 2.204-1.492s1.924.654 2.347 1.478c.392.765.302 1.15.302 1.15s-1.88-1.74-2.623-1.633c-.997.14-2.676 1.705-2.676 1.705zM23.992 49.677s6.102 2.888 11.654-.357c0 0-1.23 4.922-5.264 5.005-3.64.11-4.408-1.343-4.845-1.76-.436-.417-1.257-1.595-1.545-2.888"/></g><path fill="#343434" d="M50.641 37.658c.032 2.329-.998 5.569-.998 5.569s-5.238-6.232-8.43-7.981c-3.905-2.135-5.848 1.012-9.337-1.758-.579-.463-1.659-1.678-1.659-1.678s-1.312 1.333-1.66 1.678c-3.923 3.859-6.863-.65-10.163 1.685-4.205 2.968-7.756 7.912-7.756 7.912s-1.223-1.403-1.05-5.644c.046-1.22.635-3.93 1.595-6.684 3.47-7.004 10.66-11.816 18.966-11.816 9.54 0 17.61 6.35 20.255 15.077.136 1.21.215 2.424.237 3.64"/><path fill="#594a43" d="M16.52 23.463C20.672 3.817 21.862-2.611 38.402.923c16.383 3.504 15.07 9.724 10.871 29.583-.158.76-32.913-6.274-32.753-7.043"/><path fill="#473931" d="M53.774 32.966a2.029 2.029 0 0 1-2.41 1.575l-38.253-8.177a2.049 2.049 0 0 1-.688-3.716 2.038 2.038 0 0 1 1.533-.29l38.253 8.18a2.041 2.041 0 0 1 1.565 2.428"/><path fill="#deb85f" d="M52.21 30.54a2.045 2.045 0 0 1 1.505 2.647l-42.207-9.025c.01-.073.02-.15.036-.225a2.036 2.036 0 0 1 2.413-1.577l38.253 8.18"/></g></svg>