<svg xmlns="http://www.w3.org/2000/svg" width="105.531" height="119.111"><g fill-rule="evenodd" stroke-miterlimit="10" data-paper-data="{&quot;isPaintingLayer&quot;:true}" style="mix-blend-mode:normal"><path fill="#c0936a" d="M78.165 64.08c3.389 4.32 4.689 17.302 4.689 17.302l-.006-.06c.438.63.746 1.45.842 2.363.231 2.172-.813 4.06-2.332 4.22-.988.102-1.935-.553-2.535-1.631-.564.466-1.123.646-1.52.438-.744-.394-.654-2.013.197-3.62a6.347 6.347 0 0 1 1.112-1.517c.035-.07.071-.132.108-.195 0 0-1.473-9.375-3.052-11.594-.784-1.11-1.293-1.735-1.473-2.225-.143-.4-.302-1.156-.367-1.441-.507-2.227-3.272-7.246-3.272-7.246s5.959 3.105 7.609 5.207M32.356 49.624c1.117-.468 2.446-.04 3.526.993.49-.73 1.071-1.14 1.607-1.036 1 .196 1.47 2.105 1.048 4.263-.163.824-.429 1.567-.756 2.162-.039.26-.103.517-.193.765l5.089 5.95 10.793-3.85s-1.838 2.9-2.29 3.957c-.328.77-.967 3.212-.967 3.212s-7.88 3.19-10.118 2.38c-2.767-.995-5.936-9.97-5.936-9.97-1.191-.418-2.34-1.555-3.006-3.115-1.038-2.436-.497-4.99 1.203-5.71" data-paper-data="{&quot;origPos&quot;:null}"/><path fill="#eeeeed" d="M78.322 80.947s-1.193-8.954-2.767-11.171l-.232-.332c1.538 9.076 1.352 20.065 1.352 20.065v2.094H47.247v-2.09s-.294-13.735 1.868-23.052c-.543.242-6.97 2.779-9.11 2.002-2.765-.995-6.842-9.525-6.842-9.525l4.418-2.164 5.128 5.933 9.774-3.811c1.931-1.256 7.785-1.46 7.785-1.46l1.622.05h.137l1.623-.05s5.831.187 7.77 1.437c.784.428 5.127 2.867 6.629 4.777 3.392 4.316 4.87 17.3 4.87 17.3l-4.597-.003"/><path fill="#989899" d="M62.127 64.374a.552.552 0 1 0-.008 1.104.552.552 0 0 0 .008-1.104m0 1.184a.637.637 0 0 1-.64-.632.637.637 0 0 1 1.271 0c0 .35-.279.632-.63.632m-.001 3.098a.554.554 0 0 0-.556.548.552.552 0 0 0 1.103 0 .549.549 0 0 0-.547-.548m0 1.18a.637.637 0 0 1-.64-.632.64.64 0 0 1 .64-.634.633.633 0 1 1 0 1.266m0 3.1a.553.553 0 0 0-.556.55c0 .305.25.547.556.547a.548.548 0 1 0 0-1.097m0 1.183a.64.64 0 0 1-.64-.633.638.638 0 0 1 1.088-.449.63.63 0 0 1 .183.449.631.631 0 0 1-.63.633m-.001 3.095a.552.552 0 0 0-.556.549.554.554 0 0 0 1.107.001.55.55 0 0 0-.551-.55m0 1.185a.641.641 0 0 1-.64-.636.637.637 0 0 1 1.271 0 .633.633 0 0 1-.63.636m-.001 3.09a.55.55 0 1 0-.012 1.1.55.55 0 0 0 .012-1.098m0 1.184a.637.637 0 0 1-.64-.632.637.637 0 0 1 1.271 0c0 .35-.279.632-.63.632"/><path fill="#d0d0d0" d="M43.202 51.262c0 .47-9.674 1.634-21.603 1.634C9.671 52.896 0 51.732 0 51.262c0-.473 9.67-.852 21.6-.852 11.928 0 21.602.38 21.602.852"/><path fill="#db9256" d="M40.263 47.478c0 4.189-8.355 4.884-18.664 4.884-10.305 0-18.662-.695-18.662-4.884 0-4.19 8.357-10.286 18.662-10.286 10.31 0 18.664 6.096 18.664 10.286"/><path fill="#f3ac5f" d="M7.437 43.339c0-.73.042-1.42.13-2.04a20.989 20.989 0 0 1 2.394-1.394c.262.882.425 2.095.425 3.434 0 2.709-.15 4.903-1.475 4.903-1.474 0-1.474-2.194-1.474-4.903m4.639-1.56c0-1.094.109-2.105.286-2.92a26.064 26.064 0 0 1 2.179-.705c.296.893.483 2.189.483 3.625 0 2.712-.151 4.905-1.474 4.905-1.474 0-1.474-2.193-1.474-4.905m5.576-1.762c-.003-.858.07-1.715.216-2.56a28.188 28.188 0 0 1 2.473-.236c.164.794.26 1.754.26 2.796 0 2.707-.148 4.903-1.475 4.903-1.474 0-1.474-2.196-1.474-4.903m8.043 5.163c-1.474 0-1.474-2.198-1.474-4.905 0-1.095.105-2.103.29-2.924.821.092 1.637.223 2.446.393.136.739.212 1.607.212 2.53 0 2.708-.147 4.906-1.474 4.906m6.566 1.818c-1.474 0-1.474-2.196-1.474-4.905 0-1.186.128-2.275.338-3.125.849.328 1.679.704 2.486 1.125.078.612.128 1.292.128 2 0 2.709-.149 4.905-1.478 4.905"/><path fill="#db9256" d="M16.373 34.063h-.502c0-.596-.248-.848-.535-1.171-.306-.351-.662-.738-.662-1.51 0-.77.356-1.161.662-1.51.287-.323.535-.605.535-1.184 0-.583-.248-.861-.535-1.185-.306-.352-.662-.75-.662-1.516 0-.772.356-1.18.662-1.532.287-.323.535-.605.535-1.203h.502c0 .794-.354 1.182-.664 1.529-.283.328-.534.617-.534 1.198 0 .583.25.867.534 1.193.31.348.664.746.664 1.516s-.354 1.167-.664 1.516c-.283.326-.534.606-.534 1.19 0 .58.25.842.534 1.172.31.346.664.804.664 1.497m4.876 0h-.5c0-.596-.246-.848-.535-1.171-.31-.351-.656-.738-.656-1.51 0-.77.346-1.161.656-1.51.289-.323.535-.605.535-1.184 0-.583-.246-.861-.535-1.185-.31-.352-.656-.75-.656-1.516 0-.772.346-1.18.656-1.532.289-.323.535-.605.535-1.203h.5c0 .794-.352 1.182-.662 1.529-.285.328-.534.617-.534 1.198 0 .583.249.867.534 1.193.31.348.661.746.661 1.516s-.351 1.167-.661 1.516c-.285.326-.534.606-.534 1.19 0 .58.249.842.534 1.172.31.346.661.804.661 1.497m5.278 0h-.5c0-.596-.248-.848-.535-1.171-.306-.351-.657-.738-.657-1.51 0-.77.351-1.161.657-1.51.287-.323.536-.605.536-1.184 0-.583-.249-.861-.536-1.185-.306-.352-.657-.75-.657-1.516 0-.772.351-1.18.657-1.532.287-.323.536-.605.536-1.203h.499c0 .794-.352 1.182-.66 1.529-.289.328-.537.617-.537 1.198 0 .583.248.867.537 1.193.308.348.66.746.66 1.516s-.352 1.167-.66 1.516c-.289.326-.537.606-.537 1.19 0 .58.248.842.537 1.172.308.346.66.804.66 1.497"/><path fill="#c0936a" d="M38.605 53.574c.306-2.065-.216-3.85-1.173-3.995-.956-.143-1.984 1.416-2.292 3.479-.31 2.06.216 3.85 1.172 3.99.954.143 1.983-1.414 2.293-3.474m27.022 3.996c-1.05-.105-1.82-.137-1.82-.137l-1.624.059h-.137l-1.626-.086s-.847.04-1.975.174l3.654 3.76zm17.25-19.07c1.08.69 1.794 1.87 1.794 3.21 0 2.134-1.804 3.866-4.03 3.866-.063 0-.13-.004-.191-.008a21.108 21.108 0 0 1-18.444 10.796 21.109 21.109 0 0 1-18.455-10.815 4.434 4.434 0 0 1-.448.027c-2.224 0-4.031-1.732-4.031-3.865 0-1.436.822-2.69 2.042-3.356a21.001 21.001 0 0 1-.216-3.018c0-11.61 9.448-21.022 21.108-21.022 11.658 0 21.108 9.412 21.108 21.022 0 1.074-.079 2.134-.237 3.164" data-paper-data="{&quot;origPos&quot;:null}"/><path fill="#343434" d="M55.318 33.91c-.772-.174-.908-1.201-3.386-.74-.779.18-2.417 1.156-2.732 1.808-.316.652-.088-2.392 2.457-3.522 1.835-.675 2.457-.642 3.977-.642s1.987.907 1.766 1.65c0 0-.503 1.803-2.082 1.446zm13.905 0c.772-.174.908-1.201 3.386-.74.779.18 2.417 1.156 2.732 1.808.316.652.087-2.392-2.457-3.522-1.835-.675-2.457-.642-3.977-.642s-1.987.907-1.766 1.65c0 0 .503 1.803 2.082 1.446zm-14.134 5.904c0 1.657-.895 3-2 3s-2-1.343-2-3 .895-3 2-3 2 1.343 2 3m18 0c0 1.657-.895 3-2 3s-2-1.343-2-3 .895-3 2-3 2 1.343 2 3"/><path fill="#eeac6c" d="M62.109 42.883c-1.125.153-3.02 1.834-3.02 1.834s.207-1.01.503-1.3c.8-1.155 2.487-1.603 2.487-1.603s2.173.703 2.65 1.588c.443.824.34 1.238.34 1.238s-2.121-1.871-2.96-1.756z"/><path fill="#971e2a" d="M55.289 46.51s6.897 3.208 13.172-.397c0 0-1.39 5.47-5.95 5.56-4.115.123-4.984-1.491-5.477-1.955-.492-.463-1.42-1.772-1.745-3.208" data-paper-data="{&quot;origPos&quot;:null}"/><path fill="#333433" d="M83.952 32.6c.035 2.468-.832 7.809-2.522 10.994 0 0-4.153-11.706-7.571-13.558-4.182-2.265-15.202 1-18.936-1.936-.62-.487-.55-1.59-.55-1.59s-.713 1.408-1.061 1.802c-1.811 2.052-6.504 5.02-8.73 6.614-1.79 1.283-1.872 1.27-1.477 8.668 0 0-3.294-6.733-3.11-11.228.055-1.294.68-4.17 1.705-7.088a22.69 22.69 0 0 1 20.307-12.523c10.219 0 18.859 6.727 21.693 15.98.144 1.284.228 2.573.252 3.865"/><path fill="#c0936a" d="M60.361 58.776c-.987 0-1.789-2.108-1.789-3.074h7.02c0 .966-.799 3.074-1.78 3.074h-3.451" data-paper-data="{&quot;origPos&quot;:null}"/><path fill="#eeac6c" d="M59.33 58.127a5.075 5.075 0 0 1-.738-2.036 21.67 21.67 0 0 0 3.415.273c1.218 0 2.414-.101 3.574-.3l-.01.012-6.242 2.05"/><path fill="#eeeeed" d="M30.989 17.106c0-3.322 6.26-9.44 12.069-8.65C44.172 5.68 52.606.455 58.811.056c10.69-.681 23.293 5.088 23.565 5.228 23.297 12.29 15.742 28.457 2.434 20.31l-.864 8.408c-4.922-2.03-23.638-8.508-44.036.044l-.876-8.39c-4.662-1.002-8.045-3.61-8.045-8.55"/><path fill="#989899" d="M77.758 23.184c-.04-.01-4.184-.953-10.279-1.424-5.626-.436-14.118-.537-22.61 1.425l-.027-.116c8.508-1.97 17.015-1.865 22.649-1.43 6.106.473 10.252 1.422 10.294 1.43l-.027.116z"/><path fill="#ad7144" d="m71.991 117.037-1.583-.438 17.47-62.891 1.586.44z"/><path fill="#db9256" d="M96.772 56.159c-3.585 2.238-14.013-.95-16.306-4.493-3.164-4.9 3.641-23.008 3.641-23.008l21.424 5.903s-3.802 18.509-8.759 21.598"/><path fill="#c0936a" d="M79.958 84.484c-.654 1.565-1.775 2.59-2.5 2.287-.726-.301-.784-1.817-.126-3.381.658-1.566 1.779-2.59 2.503-2.284.725.303.78 1.815.123 3.377" data-paper-data="{&quot;origPos&quot;:null}"/><path fill="#333433" d="M62.511 113.622c-.059.242.015.543.182.796.526.808 1.436 1.459 2.216 1.998 1.209.827 2.731 1.25 4.064 1.882 1.208.51 2.794 1.42 3.874.219 1.427-1.706.212-3.872-1.453-4.895zm-1.217 0c.062.242-.018.543-.178.796-.528.808-1.444 1.459-2.222 1.998-1.205.827-2.729 1.25-4.062 1.882-1.209.51-2.794 1.42-3.876.219-1.423-1.706-.217-3.872 1.453-4.895z"/><path fill="#565657" d="m73.24 91.602-1.654 22.08h-9.202l-.345-17.478h-.27l-.351 17.478h-9.196l-1.656-22.08z"/><path fill="#c12636" d="M47.247 89.506a94.803 94.803 0 0 1 0-3.555h29.409c.037 2.128.019 3.492.019 3.555H47.247"/><path fill="#e63744" d="M76.679 100.079c-2.854 3.518-26.204 3.198-29.417 0V88.242h29.417z"/></g></svg>