<svg xmlns="http://www.w3.org/2000/svg" width="57.029" height="119.196"><g fill-rule="evenodd" stroke-miterlimit="10" data-paper-data="{&quot;isPaintingLayer&quot;:true}" style="mix-blend-mode:normal"><path fill="#c0976a" d="M24.122 55.49s-1.938 3.067-2.412 4.185c-.347.817-1.024 3.396-1.024 3.396s-8.323 3.376-10.683 2.523c-2.92-1.057-6.275-10.547-6.275-10.547l.005-.002c-1.259-.444-2.475-1.644-3.175-3.294-1.098-2.579-.526-5.283 1.275-6.043 1.172-.496 2.58-.04 3.72 1.054.513-.778 1.125-1.208 1.693-1.1 1.057.206 1.557 2.226 1.107 4.51-.168.873-.449 1.658-.792 2.283a4.791 4.791 0 0 1-.206.813h.002l5.37 6.294zM50.206 61c-1.747-2.22-8.035-5.51-8.035-5.51s2.921 5.314 3.451 7.67c.073.3.236 1.1.39 1.518.19.521.73 1.182 1.56 2.357 1.66 2.346 3.22 12.265 3.22 12.265-.04.068-.073.138-.11.206-.422.41-.832.965-1.177 1.612-.9 1.694-.994 3.408-.207 3.823.42.223 1.008.03 1.6-.46.635 1.136 1.638 1.834 2.682 1.725 1.603-.17 2.707-2.167 2.463-4.467-.105-.965-.43-1.83-.89-2.493.004.038-1.367-13.675-4.947-18.245m-7.038 52.425c1.758 1.085 3.04 3.297 1.532 5.1-1.14 1.272-2.817.26-4.09-.275-1.407-.665-3.018-1.135-4.29-2.005-.825-.576-1.79-1.192-2.35-2.05-.17-.263-.25-.514-.19-.77h.004v-11.22h9.835l-.447 11.22h-.004m-10.669 0c.062.256-.018.51-.19.775-.556.854-1.523 1.47-2.346 2.044-1.276.87-2.882 1.341-4.292 2.008-1.268.535-2.95 1.545-4.086.273-1.509-1.803-.228-4.015 1.532-5.1h-.01l-.447-11.22h9.846v11.22z" data-paper-data="{&quot;origPos&quot;:null}"/><path fill="#7f4712" d="M23.806 118.087c.882-.224 1.854-.577 2.812-1.003-.14-.525-.992-.922-2.04-1.159-.34.568-.638 1.522-.772 2.162m8.708-4.615c.061.255-.075.514-.245.781-.558.853-1.573 1.478-2.394 2.053-.826.564-1.793.958-2.753 1.347l-.364.15c-.397.159-.79.33-1.177.51-1.27.535-2.95 1.535-4.09.268-.015-.025-.233-.295-.288-.41.495.217 1.244.2 2.12.025.06-.802.272-1.79.551-2.407-1-.156-2.069-.184-2.827-.069a4.25 4.25 0 0 1 .823-1.29c4.941-.579 5.984 1.764 6.084 2.013 2.02-1.053 3.67-2.269 3.7-2.97 0 0 .594-.829.846-.716l.013.716M39.613 117.08c.876.395 1.78.721 2.707.975-.133-.637-.424-1.556-.753-2.117-1.008.244-1.815.627-1.954 1.141m3.196 1.09c.916.194 1.703.221 2.22-.004-.054.116-.27.385-.29.41-1.139 1.271-2.813.268-4.09-.266a25.267 25.267 0 0 0-1.54-.659c-.959-.392-1.924-.786-2.752-1.35-.822-.573-1.788-1.2-2.346-2.054-.17-.265-.293-.579-.23-.835v-.686c.236-.109.783.686.783.686.027.7 1.693 1.972 3.715 3.023.097-.247 1.144-2.59 6.081-2.013.35.379.63.817.826 1.293-.785-.118-1.897-.084-2.922.086.272.606.485 1.575.544 2.368"/><path fill="#e8cb2f" d="m45.346 87.924-1.918 25.567h-9.712l-.37-18.49h-.28l-.374 18.49H22.98l-1.917-25.567zm5.124-9.185s-1.264-9.474-2.928-11.82l-.242-.35c.953 5.633 1.28 11.964 1.386 16.231.011.42.018.727.025 1.105H17.652c0-.18.005-.604.012-.794.092-5.097.49-13.363 1.96-19.698-.574.26-7.364 2.941-9.62 2.121-2.922-1.057-7.23-10.077-7.23-10.077l4.666-2.29 5.417 6.274 10.327-4.03c2.035-1.329 8.215-1.544 8.215-1.544l1.718.052h.141l1.717-.053s6.154.202 8.204 1.52c.826.455 5.414 3.034 7 5.054 3.58 4.57 5.147 18.303 5.147 18.303l-4.857-.004"/><path fill="#d9bf27" d="m44.2 72.618-3.113.578-3.02-.578v-6.946H44.2z"/><path fill="#222a1d" d="M17.581 83.65c5.172 1.134 25.747 1.064 31.123 0-.04 3.57-.063 23.402-.063 23.402l-23.98.765-.104-.765h-6.976s.057-19.832 0-23.402"/><path fill="#7f7f4e" d="M21.965 84.165v22.886h-2.623l1.296-.299-1.936-.446 1.936-.448-1.936-.444 1.936-.448-1.936-.446 1.936-.446-1.936-.444 1.936-.449-1.936-.446 1.936-.446-1.936-.446 1.936-.448-1.936-.446 1.936-.446-1.936-.446 1.936-.446-1.936-.446 1.936-.444-1.936-.45 1.936-.447-1.936-.446 1.936-.443-1.936-.449 1.936-.446-1.936-.446 1.936-.446-1.936-.448 1.936-.446-1.936-.446 1.936-.446-1.936-.446 1.936-.446-1.936-.444 1.936-.448-1.936-.446 1.936-.449-1.936-.443 1.936-.449-1.936-.446 1.936-.446-1.936-.446 1.936-.446-1.936-.448 1.936-.446-1.936-.446 1.936-.446-1.936-.446 1.936-.444-1.936-.448 3.143-.725z"/><path fill="#222a1d" d="m20.864 84.883-.313.446.313.446-.313.446.313.446-.313.444.313.448-.313.45.313.445-.313.446.313.446-.313.446.313.446-.313.446.313.448-.313.446.313.446-.313.446.313.446-.313.446.313.444-.313.448.313.446-.313.45.313.445-.313.446.313.446-.313.446.313.446-.313.446.313.446-.313.448.313.446-.313.446.313.446-.313.446.313.446-.313.446.313.447-.313.448.313.446-.313.446.313.446-.313.446.313.446-.313.446.313.446-.313.446.313.448-.313.446.21.3h-.08l-.196-.28.023-.02-.023-.02.302-.426-.302-.428.023-.02-.023-.016.302-.43-.302-.428.023-.018-.023-.018.302-.428-.302-.428.023-.018-.023-.018.302-.428-.302-.428.023-.018-.023-.02.302-.426-.302-.43.023-.016-.023-.018.302-.43-.302-.428.023-.019-.023-.02.302-.426-.302-.427.023-.019-.023-.018.302-.428-.302-.426.023-.02-.023-.018.302-.428-.302-.43.023-.016-.023-.018.302-.43-.302-.426.023-.02-.023-.018.302-.428-.302-.428.023-.018-.023-.018.302-.428-.302-.426.023-.02-.023-.018.302-.428-.302-.43.023-.017-.023-.02.302-.428-.302-.426.023-.02-.023-.016.302-.432-.302-.426.023-.018-.023-.02.302-.426-.302-.428.023-.018-.023-.018.302-.428-.302-.43.023-.016-.023-.02.302-.426-.302-.43.023-.018-.023-.016.302-.43-.302-.428.023-.019-.023-.02.302-.425-.302-.428.023-.018-.023-.018.302-.429-.302-.43.023-.016-.023-.02.302-.428-.302-.428.023-.02-.023-.014.302-.43-.302-.428.023-.018-.023-.02.302-.426-.302-.428.023-.018-.023-.018.302-.428-.302-.428.052-.036zm.93-.729.08.006-.234.277.376.446-.376.448.376.444-.376.446.376.446-.376.446.376.446-.376.448.376.446-.376.446.376.446-.376.446.376.45-.376.442.376.45-.376.445.376.448-.376.444.376.446-.376.446.376.446-.376.446.376.446-.376.448.376.446-.376.446.376.446-.376.45.376.442-.376.446.376.447-.376.45.376.444-.376.446.376.446-.376.446.376.446-.376.446.376.446-.376.448.376.446-.376.446.376.45-.376.443.376.446-.376.446.376.448-.376.444.376.448-.376.446.254.3h-.084l-.238-.28.025-.02-.025-.02.363-.426-.363-.426.025-.022-.025-.018.363-.426-.363-.428.025-.02-.025-.019.363-.427-.363-.424.025-.023-.025-.02.363-.423-.363-.429.025-.02-.025-.02.363-.426-.363-.426.025-.02-.025-.02.363-.428-.363-.426.025-.02-.025-.02.363-.426-.363-.426.025-.02-.025-.02.363-.426-.363-.423.025-.023-.025-.023.363-.423-.363-.428.025-.016-.025-.023.363-.428-.363-.423.025-.023-.025-.018.363-.428-.363-.425.025-.018-.025-.023.363-.426-.363-.423.025-.023-.025-.02.363-.426-.363-.428.025-.018-.025-.02.363-.428-.363-.423.025-.023-.025-.018.363-.428-.363-.426.025-.02-.025-.02.363-.426-.363-.424.025-.023-.025-.02.363-.423-.363-.43.025-.019-.025-.02.363-.425-.363-.426.025-.023-.025-.018.363-.425-.363-.429.025-.02-.025-.022.363-.424-.363-.426.025-.02-.025-.02.363-.426-.363-.428.025-.018-.025-.023.363-.425-.363-.426.025-.02-.025-.018.363-.428-.363-.424.025-.022-.025-.023.363-.423-.363-.426.025-.018-.025-.023.363-.425-.363-.427.025-.02-.025-.02.222-.262m-2.286.45.345.28-.345.28-.039-.05.284-.23-.284-.23zm0 .892.345.28-.345.28-.039-.052.284-.229-.284-.23zm0 .892.345.281-.345.278-.039-.049.284-.23-.284-.23zm0 .893.345.28-.345.282-.039-.052.284-.232-.284-.23zm0 .894.345.28-.345.28-.039-.05.284-.23-.284-.23zm0 .893.345.278-.345.28-.039-.05.284-.23-.284-.23zm0 .891.345.281-.345.278-.039-.049.284-.23-.284-.23zm0 .893.345.281-.345.278-.039-.05.284-.228-.284-.233zm0 .894.345.28-.345.28-.039-.05.284-.23-.284-.23zm0 .893.345.278-.345.28-.039-.05.284-.23-.284-.23zm0 .89.345.28-.345.28-.039-.05.284-.23-.284-.232zm0 .894.345.28-.345.28-.039-.05.284-.23-.284-.233zm0 .893.345.28-.345.28-.039-.052.284-.23-.284-.23zm0 .893.345.278-.345.28-.039-.05.284-.23-.284-.23zm0 .891.345.28-.345.28-.039-.052.284-.229-.284-.23zm0 .892.345.281-.345.28-.039-.052.284-.229-.284-.23zm0 .893.345.281-.345.28-.039-.05.284-.23-.284-.23zm0 .893.345.28-.345.28-.039-.05.284-.23-.284-.23zm0 .893.345.28-.345.28-.039-.052.284-.23-.284-.23zm0 .892.345.281-.345.28-.039-.05.284-.23-.284-.232zm0 .895.345.28-.345.28-.039-.052.284-.23-.284-.23zm0 .891.345.28-.345.28-.039-.05.284-.23-.284-.23zm0 .893.345.278-.345.28-.039-.05.284-.23-.284-.23zm0 .892.345.281-.345.28-.039-.05.284-.23-.284-.234zm0 .895.345.28-.345.277-.039-.049.284-.23-.284-.23zm0 .891.165.131h-.104l-.1-.083z"/><path fill="#7f7f4e" d="M22.41 84.196v22.856h-.193v-22.87c.064.007.13.01.192.014zm2.876 1.134-1.407.43-1.407-.43 1.407-.5zm0 .956-1.407.432-1.407-.432 1.407-.496zm.001-1.915-1.407.435-1.407-.435.417-.145c.764.045 1.528.081 2.292.11zm0 3.827-1.408.433-1.407-.433 1.407-.496zm0 .955-1.408.435-1.407-.435 1.407-.495zm0-1.91-1.408.43-1.407-.43 1.407-.498zm0 2.868-1.408.432-1.407-.432 1.407-.498zm0 .955-1.408.435-1.407-.435 1.407-.496zm0 1.915-1.408.432-1.407-.432 1.407-.496zm0 .957-1.408.43-1.407-.43 1.407-.498zm0-1.913-1.408.43-1.407-.43 1.407-.5zm0 2.87-1.408.43-1.407-.43 1.407-.5zm0 .954-1.408.434-1.407-.434 1.407-.496zm0 1.912-1.408.433-1.407-.433 1.407-.496zm0 .96-1.408.43-1.407-.43 1.407-.5zm0-1.915-1.408.432-1.407-.432 1.407-.498zm0 2.87-1.408.43-1.407-.43 1.407-.496zm0 .955-1.408.433-1.407-.433 1.407-.496zm0 1.913-1.408.435-1.407-.435 1.407-.496zm0 .957-1.408.433-1.407-.433 1.407-.498zm0-1.912-1.408.43-1.407-.43 1.407-.499zm0 2.867-1.408.433-1.407-.433 1.407-.496zm0 .958-1.408.432-1.407-.432 1.407-.496zm-.784 1.638h-1.25l.626-.222zm.12.478-.06-.46.723.256zm.663-1.159-1.407.43-1.407-.43 1.407-.498z"/><path fill="#222a1d" d="M48.704 83.65c-.04 3.57-.064 23.402-.064 23.402l-23.979.765-.036-.272-2.617-23.377c8.04.555 22.346.342 26.696-.518"/><path fill="#9cbe85" d="m24.566 107.825-2.585-23.642.198.064 2.58 23.556z"/><path fill="#7f7f4e" d="m31.675 107.592-2.818.09-.447-.1 1.94-.449-1.94-.446 1.94-.446-1.94-.446 1.94-.446-1.94-.446 1.94-.446-1.94-.449 1.94-.446-1.94-.446 1.94-.446-1.94-.446 1.94-.446-1.94-.446 1.94-.446-1.94-.448 1.94-.446-1.94-.446 1.94-.446-1.94-.446 1.94-.446-1.94-.446 1.94-.447-1.94-.448 1.94-.446-1.94-.446 1.94-.446-1.94-.446 1.94-.446-1.94-.446 1.94-.446-1.94-.448 1.94-.446-1.94-.446 1.94-.447-1.94-.446 1.94-.446-1.94-.446 1.94-.448-1.94-.444 1.94-.45-1.94-.444 1.94-.446-1.94-.446 1.94-.446-1.94-.446 1.94-.446-1.936-.449 1.936-.446-1.935-.446 3.26-.75v22.925z"/><path fill="#222a1d" d="m30.457 107.631.036-.05-.297-.43.023-.019-.023-.02.297-.425-.297-.426.023-.02-.023-.018.297-.428-.297-.428.023-.019-.023-.02.297-.426-.297-.43.023-.015-.023-.019.297-.43-.297-.428.023-.018-.023-.02.297-.426-.297-.428.023-.018-.023-.018.297-.428-.297-.428.023-.018-.023-.018.297-.428-.297-.43.023-.016-.023-.018.297-.43-.297-.426.023-.02-.023-.018.297-.428-.297-.428.023-.018-.023-.018.297-.428-.297-.428.023-.018-.023-.019.297-.428-.297-.43.023-.016-.023-.018.297-.43-.297-.426.023-.02-.023-.016.297-.43-.297-.428.023-.018-.023-.02.297-.426-.297-.426.023-.02-.023-.018.297-.428-.297-.43.023-.016-.023-.02.297-.428-.297-.428.023-.018-.023-.016.297-.43-.297-.428.023-.019-.023-.02.297-.426-.297-.427.023-.019-.023-.018.297-.428-.297-.43.023-.018-.023-.018.297-.426-.297-.43.023-.018-.023-.018.297-.428-.297-.428.023-.018-.023-.02.297-.426-.297-.428.023-.018-.023-.018.297-.428-.297-.43.023-.016-.023-.019.297-.43-.297-.427.023-.019-.023-.018.297-.428-.297-.425.05-.039.327.464-.314.446.314.446-.314.45.314.445-.314.446.314.446-.314.446.314.446-.314.446.314.448-.314.444.314.448-.314.446.314.446-.314.446.314.447-.314.446.314.446-.314.448.314.446-.314.446.314.446-.314.446.314.446-.314.446.314.446-.314.448.314.447-.314.446.314.446-.314.446.314.446-.314.446.314.446-.314.448.314.446-.314.446.314.446-.314.446.314.446-.314.446.314.446-.314.45.314.445-.314.446.314.446-.314.446.314.446-.314.446.314.448-.037.048zm1.172-.038.016-.01-.363-.429.02-.02-.02-.02.363-.426-.363-.426.02-.023-.02-.018.363-.425-.363-.428.02-.018-.02-.023.363-.423-.363-.429.02-.02-.02-.02.363-.426-.363-.428.02-.018-.02-.02.363-.428-.363-.424.02-.023-.02-.02.363-.423-.363-.426.02-.02-.02-.023.363-.425-.363-.426.02-.018-.02-.023.363-.425-.363-.426.02-.02-.02-.019.363-.43-.363-.423.02-.02-.02-.023.363-.424-.363-.425.02-.023-.02-.018.363-.428-.363-.426.02-.018-.02-.022.363-.426-.363-.426.02-.022-.02-.018.363-.428-.363-.424.02-.02-.02-.023.363-.423-.363-.426.02-.022-.02-.018.363-.426-.363-.428.02-.018-.02-.023.363-.425-.363-.426.02-.023-.02-.018.363-.426-.363-.427.02-.019-.02-.022.363-.426-.363-.426.02-.02-.02-.02.363-.424-.363-.43.02-.018-.02-.02.363-.426-.363-.426.02-.022-.02-.018.363-.426-.363-.426.02-.02-.02-.023.363-.425-.363-.424.02-.02-.02-.023.363-.423-.363-.429.02-.02-.02-.02.363-.428-.363-.424.02-.02-.02-.02.363-.426-.363-.425.02-.023-.02-.018.277-.326h.081l-.292.344.376.448-.376.446.376.444-.376.448.376.45-.376.445.376.444-.376.448.376.446-.376.444.376.448-.376.446.376.448-.376.444.376.446-.376.448.376.446-.376.444.376.45-.376.447.376.446-.376.444.376.448-.376.446.376.444-.376.446.376.448-.376.448.376.444-.376.446.376.448-.376.447.376.443-.376.45.376.445-.376.448.376.444-.376.448.376.446-.376.444.376.446-.376.448.376.446-.376.446.376.45-.376.445.376.446-.376.443.376.45-.376.445.376.448-.005.01zm-2.41-22.609.345.281-.346.278-.04-.049.281-.23-.28-.23zm0 .893.345.28-.346.282-.04-.052.281-.232-.28-.23zm0 .891.345.283-.346.28-.04-.05.281-.23-.28-.23zm0 .895.345.28-.346.28-.04-.052.281-.229-.28-.23zm0 .892.345.281-.346.278-.04-.049.281-.23-.28-.23zm0 .893.345.281-.346.281-.04-.053.281-.228-.28-.233zm0 .894.345.28-.346.28-.04-.05.281-.23-.28-.23zm0 .893.345.278-.346.28-.04-.05.281-.23-.28-.23zm0 .891.345.28-.346.28-.04-.05.281-.23-.28-.23zm0 .893.345.28-.346.28-.04-.05.281-.232-.28-.23zm0 .894.345.28-.346.28-.04-.05.281-.23-.28-.233zm0 .892.345.278-.346.28-.04-.05.281-.23-.28-.23zm0 .891.345.28-.346.28-.04-.052.281-.229-.28-.23zm0 .893.345.28-.346.28-.04-.052.281-.229-.28-.23zm0 .894.345.28-.346.28-.04-.053.281-.228-.28-.232zm0 .893.345.278-.346.28-.04-.05.281-.23-.28-.23zm0 .891.345.28-.346.28-.04-.052.281-.23-.28-.23zm0 .892.345.28-.346.28-.04-.049.281-.23-.28-.232zm0 .895.345.28-.346.28-.04-.052.281-.23-.28-.23zm0 .891.345.28-.346.28-.04-.05.281-.23-.28-.23zm0 .893.345.28-.346.28-.04-.052.281-.23-.28-.23zm0 .891.345.282-.346.28-.04-.05.281-.23-.28-.23zm0 .894.345.28-.346.28-.04-.05.281-.23-.28-.23zm0 .893.345.28-.346.28-.04-.05.281-.23-.28-.23zm0 .893.345.278-.346.28-.04-.05.281-.23-.28-.23zm.138 1.257.102-.084-.28-.235.04-.048.345.283-.105.082z"/><path fill="#7f7f4e" d="m38.768 85.263-1.934.446 1.934.446-1.934.45 1.934.445-1.934.446 1.934.446-1.934.446 1.934.446-1.934.444 1.934.45-1.934.444 1.934.448-1.934.446 1.934.446-1.934.446 1.934.447-1.934.446 1.934.446-1.934.448 1.934.446-1.934.446 1.934.446-1.934.446 1.934.444-1.934.448 1.934.446-1.934.448 1.934.447-1.934.446 1.934.446-1.934.446 1.934.446-1.934.446 1.934.446-1.934.448 1.934.446-1.934.446 1.934.446-1.934.446 1.934.446-1.934.446 1.934.446-1.934.45 1.934.445-1.934.446 1.934.446-1.938.446 1.938.446-1.938.446 1.118.257-2.437.08V84.512z"/><path fill="#222a1d" d="m36.984 84.838-.297.425.297.428-.023.018.023.02-.297.427.297.43-.023.018.023.016-.297.43.297.428-.023.018.023.018-.297.428.297.426-.023.02.023.018-.297.428.297.428-.023.018.023.018-.297.43.297.426-.023.018.023.018-.297.43.297.428-.023.018.023.02-.297.426.297.426-.023.02.023.02-.297.427.297.43-.023.016.023.018-.297.428.297.428-.023.02.023.016-.297.43.297.428-.023.018.023.02-.297.426.297.426-.023.02.023.018-.297.428.297.43-.023.017.023.02-.297.425.297.43-.023.018.023.017-.297.43.297.427-.023.02.023.017-.297.428.297.428-.023.018.023.018-.297.428.297.428-.023.018.023.02-.297.426.297.43-.023.018.023.016-.297.43.297.428-.023.018.023.018-.297.428.297.428-.023.018.023.018-.297.428.297.426-.023.02.023.018-.297.428.297.43-.023.02.023.015-.297.43.297.426-.023.02.023.018-.297.428.297.428-.023.018.023.02-.297.426.297.426-.023.02.023.018-.193.278-.082.003.212-.299-.314-.446.314-.446-.314-.446.314-.446-.314-.446.314-.446-.314-.449.314-.446-.314-.446.314-.446-.314-.446.314-.446-.314-.446.314-.446-.314-.448.314-.446-.314-.446.314-.446-.314-.446.314-.446-.314-.446.314-.447-.314-.448.314-.446-.314-.446.314-.446-.314-.446.314-.446-.314-.446.314-.446-.314-.448.314-.446-.314-.446.314-.447-.314-.446.314-.446-.314-.446.314-.448-.314-.444.314-.448-.314-.446.314-.446-.314-.446.314-.446-.314-.446.314-.446-.314-.449.314-.446-.314-.446.325-.463zm-1.46-.379c.03-.002.06-.002.086-.002l.286.34-.023.02.023.023-.36.423.36.428-.023.02.023.018-.36.426.36.426-.023.023.023.02-.36.425.36.426-.023.023.023.018-.36.425.36.424-.023.022.023.023-.36.424.36.427-.023.02.023.02-.36.427.36.424-.023.02.023.02-.36.428.36.426-.023.02.023.02-.36.426.36.426-.023.02.023.02-.36.428.36.426-.023.018.023.023-.36.423.36.428-.023.02.023.02-.36.43.36.423-.023.02.023.022-.36.424.36.426-.023.02.023.02-.36.426.36.426-.023.02.023.022-.36.424.36.428-.023.022.023.016-.36.428.36.426-.023.02.023.023-.36.423.36.426-.023.022.023.02-.36.424.36.428-.023.018.023.023-.36.423.36.428-.023.023.023.016-.36.428.36.423-.023.023.023.022-.36.424.36.426-.023.02.023.022-.36.424.36.428-.023.018.023.02-.36.428.36.426-.023.021.023.02-.36.425.36.426-.023.02.023.02-.36.43.36.422-.023.02.023.023-.36.423.36.428-.023.02.023.02-.263.313-.084.003.281-.338-.374-.446.374-.446-.374-.443.374-.449-.374-.446.374-.446-.374-.446.374-.448-.374-.446.374-.446-.374-.446.374-.446-.374-.446.374-.445-.374-.45.374-.446-.374-.446.374-.444-.374-.448.374-.446-.374-.446.374-.444-.374-.45.374-.446-.374-.446.374-.446-.374-.446.374-.446-.374-.444.374-.449-.374-.448.374-.446-.374-.444.374-.448-.374-.446.374-.446-.374-.446.374-.448-.374-.444.374-.448-.374-.446.374-.447-.374-.446.374-.443-.374-.449.374-.446-.374-.448.374-.444-.374-.448.374-.446zm2.437.525-.342.281.343.278.04-.049-.284-.23.284-.23zm0 .893-.342.28.343.282.04-.052-.284-.232.284-.23zm0 .891-.342.283.343.28.04-.05-.284-.23.284-.23zm0 .895-.342.28.343.28.04-.052-.284-.229.284-.23zm0 .892-.342.281.343.278.04-.049-.284-.23.284-.23zm0 .893-.342.281.343.281.04-.053-.284-.228.284-.233zm0 .894-.342.28.343.28.04-.05-.284-.23.284-.23zm0 .893-.342.278.343.28.04-.05-.284-.23.284-.23zm0 .891-.342.28.343.28.04-.05-.284-.23.284-.23zm0 .893-.342.28.343.28.04-.05-.284-.232.284-.23zm0 .894-.342.28.343.28.04-.05-.284-.23.284-.233zm0 .892-.342.278.343.28.04-.05-.284-.23.284-.23zm0 .891-.342.28.343.28.04-.052-.284-.229.284-.23zm0 .893-.342.28.343.28.04-.052-.284-.229.284-.23zm0 .894-.342.28.343.28.04-.053-.284-.228.284-.232zm0 .893-.342.278.343.28.04-.05-.284-.23.284-.23zm0 .891-.342.28.343.28.04-.052-.284-.23.284-.23zm0 .892-.342.28.343.28.04-.049-.284-.23.284-.232zm0 .895-.342.28.343.28.04-.052-.284-.23.284-.23zm0 .891-.342.28.343.28.04-.05-.284-.23.284-.23zm0 .893-.342.28.343.28.04-.052-.284-.23.284-.23zm0 .891-.342.282.343.28.04-.05-.284-.23.284-.23zm0 .894-.342.28.343.28.04-.05-.284-.23.284-.23zm0 .893-.342.28.343.28.04-.05-.284-.23.284-.23zm0 .893-.342.278.343.28.04-.05-.284-.23.284-.23zm.002.89.038.05-.05.043-.106.005z"/><path fill="#7f7f4e" d="M31.93 84.48h.192v23.08h-.193zm3.134-.002h.188v23l-.188.007zm-.072 1.233-1.407.432-1.404-.432 1.404-.496zm0 .957-1.407.43-1.404-.43 1.404-.498zm-2.017-2.194c.404 0 .81-.002 1.214-.004l.803.283-1.407.432-1.404-.432zm2.017 4.107-1.407.43-1.404-.43 1.404-.498zm0 .955-1.407.433-1.404-.433 1.404-.498zm0-1.913-1.407.433-1.404-.433 1.404-.496zm0 2.868-1.407.435-1.404-.435 1.404-.496zm0 .958-1.407.432-1.404-.432 1.404-.499zm0 1.914-1.407.43-1.404-.43 1.404-.498zm0 .955-1.407.43-1.404-.43 1.404-.495zm0-1.912-1.407.432-1.404-.432 1.404-.496zm0 2.868-1.407.432-1.404-.432 1.404-.496zm0 .957-1.407.433-1.404-.433 1.404-.498zm0 1.913-1.407.432-1.404-.432 1.404-.498zm0 .957-1.407.43-1.404-.43 1.404-.496zm0-1.915-1.407.433-1.404-.433 1.404-.496zm0 2.872-1.407.43-1.404-.43 1.404-.498zm0 .956-1.407.43-1.404-.43 1.404-.498zm0 1.912-1.407.433-1.404-.433 1.404-.498zm0 .956-1.407.432-1.404-.432 1.404-.496zm0-1.913-1.407.432-1.404-.432 1.404-.496zm0 2.87-1.407.432-1.404-.432 1.404-.499zm0 .957-1.407.43-1.404-.43 1.404-.496zm-2.402 1.765.996-.35.833.294zm2.402-.809-1.407.432-1.404-.432 1.404-.496zM48.7 83.85c-.036 4.046-.06 23.203-.06 23.203l-2.016.062-1.023-.236 1.938-.446-1.938-.446 1.938-.446-1.938-.448 1.938-.446-1.938-.444 1.938-.446-1.938-.448 1.938-.449-1.938-.444 1.938-.448-1.938-.446 1.938-.444-1.938-.446 1.938-.448-1.938-.446 1.938-.444-1.938-.446 1.938-.45-1.938-.446 1.938-.444-1.938-.446 1.938-.449-1.938-.446 1.938-.444-1.938-.45 1.938-.446-1.938-.444 1.938-.446-1.938-.448 1.938-.446-1.938-.444 1.938-.446-1.938-.45 1.938-.447-1.938-.443 1.938-.449-1.938-.446 1.938-.446-1.938-.443 1.938-.449-1.938-.446 1.938-.446-1.938-.446 1.938-.448-1.938-.446 1.938-.444-1.938-.446 1.938-.45-1.938-.447z"/><path fill="#222a1d" d="m47.763 84.56-.313.447.313.45-.313.446.313.444-.313.446.313.448-.313.446.313.446-.313.446.313.448-.313.444.313.446-.313.448.313.446-.313.444.313.447-.313.45.313.446-.313.444.313.446-.313.448.313.446-.313.444.313.448-.313.448.313.444-.313.446.313.45-.313.445.313.443-.313.447.313.45-.313.446.313.444-.313.446.313.448-.313.446.313.444-.313.448.313.446-.313.444.313.448-.313.45.313.445-.313.443.313.446-.313.45.313.445-.313.446.313.448-.145.202-.08.004.146-.206-.3-.43.027-.018-.027-.018.3-.428-.3-.428.027-.018-.027-.019.3-.43-.3-.426.027-.02-.027-.018.3-.426-.3-.43.027-.016-.027-.02.3-.428-.3-.428.027-.02-.027-.016.3-.428-.3-.43.027-.016-.027-.016.3-.432-.3-.426.027-.018-.027-.02.3-.426-.3-.428.027-.02-.027-.016.3-.43-.3-.428.027-.016-.027-.02.3-.427-.3-.43.027-.02-.027-.016.3-.43-.3-.425.027-.019-.027-.02.3-.425-.3-.429.027-.02-.027-.016.3-.43-.3-.428.027-.016-.027-.02.3-.428-.3-.428.027-.02-.027-.018.3-.426-.3-.428.027-.018-.027-.02.3-.428-.3-.426.027-.02-.027-.018.3-.426-.3-.433.027-.014-.027-.02.3-.43-.3-.426.027-.02-.027-.018.3-.426-.3-.43.027-.016-.027-.02.3-.428-.3-.426.027-.02-.027-.018.3-.426-.3-.432.027-.016-.027-.016.3-.43-.3-.428.027-.018-.027-.02.3-.426-.3-.428.027-.02-.027-.016.3-.43-.3-.426.027-.019-.027-.02.3-.426-.3-.43.027-.02-.027-.013.3-.433-.3-.426.052-.036zm.907 6.541-.136.154.134.156v.1l-.198-.234.025-.022-.025-.016.2-.236zm.004-1.79-.14.16.138.163v.095l-.202-.236.025-.023-.025-.02.205-.24zm-.006 2.686-.134.153.134.152c0 .032 0 .066-.002.097l-.196-.23.025-.019-.025-.02.198-.233zm.004-1.792-.138.16.138.157v.1l-.202-.238.025-.02-.025-.023.202-.235zm-.008 2.686-.13.15.13.152v.097l-.193-.226.025-.023-.025-.017.193-.23zm0 .896-.13.147.13.15v.097l-.193-.226.025-.02-.025-.02.193-.227zm.012-5.373-.14.166.141.16v.102l-.207-.242.025-.02-.025-.023.207-.242zm-.015 6.267-.127.145.127.146c-.002.035-.002.066-.002.1l-.188-.224.025-.022-.025-.016.19-.227zm.03-8.958-.155.18.15.174v.1l-.216-.254.025-.02-.025-.023.22-.258zm.01-1.799-.165.192.161.19v.095l-.227-.265.025-.02-.025-.02.231-.272zm-.02 3.592-.145.17.143.168v.1l-.209-.248.025-.02-.024-.022.21-.247zm.005-.897-.15.174.145.172v.098l-.21-.247.024-.023-.025-.022.216-.249zm.011-1.893c0 .034 0 .064-.003.098l-.158.183.154.183v.098l-.22-.258.025-.023-.025-.018.227-.263m-.05 19.7c0 .031 0 .062-.006.096l-.106.125.106.124v.098l-.17-.202.025-.02-.025-.02.175-.202m0-.796-.11.127.11.122v.1l-.175-.202.025-.02-.025-.023.175-.203zm0-.896-.11.127.11.13v.097l-.175-.207.025-.02-.025-.018.175-.206zm.013-7.155-.125.143.125.14v.1l-.188-.222.025-.018-.025-.02.188-.222zm-.018 9.84-.106.122.106.12v.1l-.17-.202.025-.018-.025-.022.17-.2zm-.002.893-.104.122.104.12v.098l-.168-.2.025-.018-.025-.02.168-.199zm.011-4.57c-.004.033-.004.065-.004.1l-.112.128.112.127v.1l-.175-.207.025-.02-.026-.022.18-.207m.005-4.373-.12.138.12.138v.1l-.184-.218.025-.02-.025-.02.184-.218zm-.005 3.578-.116.133.117.13v.098l-.18-.21.025-.018-.026-.022.18-.209zm.005-2.682-.12.135.12.136v.098l-.184-.214.025-.02-.025-.018.184-.217zm.004-1.789-.125.138.125.14c-.002.034-.002.066-.002.103l-.186-.22.025-.023-.025-.018.188-.22zm-.009 3.577-.116.135.117.13v.097l-.18-.21.025-.018-.026-.02.18-.213zm0-.895-.116.136.117.133v.1l-.18-.215.025-.019-.026-.02.18-.215zm-2.24-14.873.344.28-.346.282-.04-.053.281-.23-.28-.232zm0 .895.344.28-.346.278-.04-.05.281-.229-.28-.23zm0 .891.344.28-.346.28-.04-.052.281-.23-.28-.23zm0 .892.344.28-.346.28-.04-.05.281-.23-.28-.23zm0 .893.344.281-.346.28-.04-.052.281-.228-.28-.234zm0 .893.344.28-.346.28-.04-.05.281-.23-.28-.23zm0 .893.344.28-.346.28-.04-.052.281-.23-.28-.23zm0 .892.344.28-.346.28-.04-.05.281-.23-.28-.23zm0 .893.344.278-.346.28-.04-.049.281-.23-.28-.232zm0 .893.344.28-.346.28-.04-.05.281-.23-.28-.23zm0 .893.344.278-.346.28-.04-.05.281-.23-.28-.23zm0 .892.344.28-.346.28-.04-.05.281-.23-.28-.233zm0 .892.344.28-.346.28-.04-.052.281-.229-.28-.23zm0 .892.344.281-.346.28-.04-.05.281-.23-.28-.234zm0 .895.344.278-.346.28-.04-.05.281-.23-.28-.23zm0 .891.344.28-.346.28-.04-.053.281-.228-.28-.232zm0 .894.344.28-.346.28-.04-.05.281-.23-.28-.233zm0 .892.344.28-.346.28-.04-.052.281-.229-.28-.23zm0 .892.344.281-.346.278-.04-.05.281-.228-.28-.232zm0 .893.344.28-.346.28-.04-.052.281-.23-.28-.23zm0 .892.344.28-.346.281-.04-.05.281-.232-.28-.23zm0 .894.344.28-.346.28-.04-.052.281-.229-.28-.23zm0 .892.344.28-.346.28-.04-.05.281-.23-.28-.23zm0 .893.344.28-.346.277-.04-.049.281-.23-.28-.23zm0 .892.344.28-.346.281-.04-.052.281-.23-.28-.23zm0 .895.344.278-.346.28-.04-.05.281-.23-.28-.23z"/><path fill="#7f7f4e" d="M17.427 81.8H48.74v3.633H17.427z"/><path fill="#222a1d" d="M22.984 81.8v3.633h-1.6l-1.643-.376 1.938-.446-1.938-.446 1.938-.446-1.938-.449 1.938-.443-1.938-.446 1.938-.449-.572-.13z"/><path fill="#7f7f4e" d="m21.682 81.802-.09.13.313.45-.313.445.313.443-.313.45.313.445-.313.446.313.446-.265.376h-.082l.27-.376-.302-.428.027-.019-.027-.02.302-.425-.302-.428.027-.018-.027-.019.302-.43-.302-.425.027-.019-.027-.02.302-.426-.302-.43.027-.018-.027-.015.08-.116zm1.11 0-.115.13.38.45-.38.445.38.443-.38.45.38.445-.38.446.38.446-.318.376h-.082l.318-.376-.363-.426.025-.02-.025-.023.363-.423-.363-.426.025-.02-.025-.02.363-.429-.363-.425.025-.018-.025-.023.363-.423-.363-.429.025-.02-.025-.018.095-.113zm-2.24.3.345.28-.345.278-.043-.05.283-.229-.283-.233zm0 .891.345.28-.345.28-.043-.05.283-.23-.283-.232zm0 .894.345.278-.345.28-.043-.05.283-.23-.283-.23zm0 .892.345.28-.345.281-.043-.052.283-.229-.283-.233z"/><path fill="#222a1d" d="m28.736 81.802-.57.13 1.933.45-1.933.445 1.933.443-1.933.45 1.933.445-1.933.446 1.933.446-1.638.376H26.82v-3.632z"/><path fill="#7f7f4e" d="M28.161 81.8h.076l.08.116-.023.016.023.02-.302.428.302.428-.023.02.023.016-.302.428.302.428-.023.018.023.02-.302.426.302.428-.023.02.023.016-.302.43.27.376h-.08l-.267-.376.316-.446-.316-.448.316-.446-.316-.446.316-.444-.316-.448.316-.449zm-1.11 0h.083l.095.113-.022.018.022.023-.36.426.36.425-.022.023.022.016-.36.428.36.426-.022.02.022.023-.36.423.36.426-.022.022.022.018-.36.428.324.376h-.086l-.32-.376.377-.446-.377-.448.377-.446-.377-.446.377-.444-.377-.448.377-.449zm2.243.301-.342.28.343.28.04-.05-.283-.23.283-.233zm0 .892-.342.28.343.28.04-.05-.283-.23.283-.232zm0 .894-.342.278.343.28.04-.05-.283-.23.283-.23zm0 .892-.342.28.343.281.04-.052-.283-.229.283-.233z"/><path fill="#222a1d" d="M23.238 81.8h.193v3.633h-.192zm3.134 0h.19v3.633h-.19zm-1.944 0h.983l.914.324-1.407.432-1.407-.432zm1.897 1.28-1.406.434-1.407-.434 1.407-.496zm0 .96-1.406.43-1.407-.43 1.407-.499zm0 .954-1.406.43-1.407-.43 1.407-.495zM39.197 81.8v3.633h-1.6l-1.645-.376 1.94-.446-1.94-.446 1.94-.446-1.94-.449 1.94-.443-1.94-.446 1.94-.449-.575-.13z"/><path fill="#7f7f4e" d="m37.893 81.802-.09.13.312.45-.313.445.313.443-.313.45.313.445-.313.446.313.446-.265.376h-.079l.267-.376-.3-.428.026-.019-.027-.02.301-.425-.3-.428.026-.018-.027-.019.301-.43-.3-.425.026-.019-.027-.02.301-.426-.3-.43.026-.018-.028-.015.08-.116zm1.108 0-.11.13.376.45-.377.445.377.443-.377.45.377.445-.377.446.377.446-.316.376h-.083l.317-.376-.36-.426.027-.02-.027-.023.36-.423-.36-.426.027-.02-.027-.02.36-.429-.36-.425.027-.018-.027-.023.36-.423-.36-.429.027-.02-.028-.018.093-.113zm-2.239.3.345.28-.345.278-.043-.05.284-.229-.284-.233zm0 .891.345.28-.345.28-.043-.05.284-.23-.284-.232zm0 .894.345.278-.345.28-.043-.05.284-.23-.284-.23zm0 .892.345.28-.345.281-.043-.052.284-.229-.284-.233z"/><path fill="#222a1d" d="m44.95 81.802-.57.13 1.93.45-1.93.445 1.93.443-1.93.45 1.93.445-1.93.446 1.93.446-1.639.376h-1.64v-3.632z"/><path fill="#7f7f4e" d="M44.371 81.8h.077l.08.116-.023.016.023.02-.3.428.3.428-.023.02.023.016-.3.428.3.428-.023.018.023.02-.3.426.3.428-.023.02.023.016-.3.43.266.376h-.075l-.268-.376.315-.446-.315-.448.315-.446-.315-.446.315-.444-.315-.448.315-.449zm-1.108 0h.081l.096.113-.023.018.023.023-.357.426.357.425-.023.023.023.016-.357.428.357.426-.023.02.023.023-.357.423.357.426-.023.022.023.018-.357.428.32.376h-.084l-.322-.376.377-.446-.377-.448.377-.446-.377-.446.377-.444-.377-.448.377-.449zm2.242.301-.343.28.343.28.041-.05-.284-.23.284-.233zm0 .892-.343.28.343.28.041-.05-.284-.23.284-.232zm0 .894-.343.278.343.28.041-.05-.284-.23.284-.23zm0 .892-.343.28.343.281.041-.052-.284-.229.284-.233z"/><path fill="#222a1d" d="M39.452 81.8h.19v3.633h-.19zm3.132 0h.19v3.633h-.19zm-1.943 0h.982l.913.324-1.405.432-1.407-.432zm1.895 1.28-1.405.434-1.407-.434 1.407-.496zm0 .96-1.405.43-1.407-.43 1.407-.499zm0 .954-1.405.43-1.407-.43 1.407-.495z"/><path fill="#d9bf27" d="M36.27 56.223c-1.399.424-4.4.371-5.84.125-.422-.075-.732-.342-.95-.564-.59-.586 0-3.31 0-3.31 2.432.401 4.912.4 7.343-.005 0 0 .524 2.67 0 3.315a.814.814 0 0 1-.104.115l-.118.107c-.098.08-.198.177-.332.217"/><path fill="#d9bf27" d="M31.675 55.406h2.494v20.848h-2.494z"/><path fill="#eeeeed" d="M33.355 55.398a.435.435 0 1 1-.87-.004.435.435 0 0 1 .87.004m0-1.342a.433.433 0 0 1-.43.437.435.435 0 1 1 .43-.437m0 12.436a.432.432 0 0 1-.74.308.436.436 0 0 1 .309-.743c.238 0 .431.195.431.435m0 6.12a.432.432 0 0 1-.74.308.435.435 0 1 1 .74-.308"/><path fill="#c0976a" d="M55.13 33.854c1.15.735 1.9 1.985 1.9 3.405 0 2.26-1.912 4.093-4.262 4.093-.068 0-.139-.002-.205-.006-3.816 6.824-11.123 11.438-19.51 11.438-8.399 0-15.71-4.626-19.527-11.456a4.848 4.848 0 0 1-.47.024c-2.355 0-4.264-1.833-4.264-4.093 0-1.524.872-2.853 2.158-3.557a22.606 22.606 0 0 1-.228-3.198c0-12.305 9.997-22.28 22.33-22.28 12.332 0 22.33 9.975 22.33 22.28 0 1.138-.084 2.26-.252 3.35" data-paper-data="{&quot;origPos&quot;:null}"/><path fill="#2c2c2d" d="M56.267 27.601c.036 2.617-.88 8.275-2.669 11.651 0 0-4.39-12.398-8.008-14.362-4.423-2.402-16.077 1.057-20.03-2.053-.654-.517-.58-1.687-.58-1.687s-.757 1.492-1.125 1.904c-1.915 2.178-6.878 5.326-9.235 7.017-1.893 1.356-1.984 1.343-1.564 9.181 0 0-3.483-7.132-3.288-11.896.052-1.374.717-4.417 1.806-7.51 3.928-7.868 12.075-13.275 21.48-13.275 10.81 0 19.95 7.13 22.95 16.936.153 1.36.24 2.725.263 4.093"/><path fill="#343434" d="M56.278 27.35H9.758l1.914-23.784c21.776-8.024 42.69 0 42.69 0z"/><path fill="#2c2c2d" d="M28.644 29.474s-.463 1.61-1.916 1.292c-.71-.156-.835-1.074-3.114-.662-.716.161-2.223 1.033-2.513 1.615-.29.583-.08-2.136 2.26-3.146 1.688-.602 2.26-.573 3.658-.573 1.398 0 1.828.81 1.625 1.474m9.71 0s.463 1.61 1.916 1.292c.71-.156.835-1.074 3.114-.662.716.161 2.223 1.033 2.513 1.615.29.583.08-2.136-2.26-3.146-1.688-.602-2.26-.573-3.658-.573-1.398 0-1.828.81-1.625 1.474M26.77 36.55c0 1.574-.862 2.85-1.924 2.85-1.062 0-1.923-1.276-1.923-2.85s.86-2.85 1.923-2.85c1.062 0 1.923 1.276 1.923 2.85m17.308 0c0 1.574-.86 2.85-1.923 2.85-1.063 0-1.923-1.276-1.923-2.85s.86-2.85 1.923-2.85c1.062 0 1.923 1.276 1.923 2.85"/><path fill="#e2a86e" d="M30.614 39.4s.2-.99.485-1.275c.77-1.135 2.395-1.575 2.395-1.575s2.092.69 2.552 1.56c.427.808.327 1.215.327 1.215s-2.042-1.837-2.85-1.725c-1.084.15-2.909 1.8-2.909 1.8z"/><path fill="#853939" d="M26.961 41.961s6.633 3.05 12.667-.377c0 0-1.338 5.196-5.72 5.283-3.959.116-4.793-1.417-5.269-1.857-.473-.44-1.365-1.684-1.679-3.05" data-paper-data="{&quot;origPos&quot;:null}"/></g></svg>