<svg xmlns="http://www.w3.org/2000/svg" width="65.195" height="117.016"><g fill-rule="evenodd" stroke-miterlimit="10" data-paper-data="{&quot;isPaintingLayer&quot;:true}" style="mix-blend-mode:normal"><path fill="#2c2c2d" d="m7.578 18.146 47.996-1.07s7.757 33.805 2.224 41.049c-7.772 10.165-44.784 9.48-53.362 0-5.948-6.578 3.142-39.978 3.142-39.978z"/><path fill="#f08314" d="M23.033 51.177c-2.127-1.447-5.37-2.916-9.058-1.205 1.316-4.123 9.457-11.633 17.482-11.664 8.03-.028 15.942 7.423 16.796 11.664-4.714-1.416-6.646-.681-8.384 1.102-4.208-.09-12.628.035-16.836.103"/><path fill="#9c6f3f" d="M53.871 29.376c1.155.754 1.915 2.032 1.915 3.487 0 2.312-1.932 4.192-4.309 4.192-.068 0-.135-.003-.2-.004-3.86 6.99-11.249 11.72-19.732 11.72-8.492 0-15.888-4.739-19.743-11.743a4.238 4.238 0 0 1-.48.026c-2.386 0-4.314-1.879-4.314-4.19 0-1.567.881-2.929 2.185-3.65a22.963 22.963 0 0 1-.229-3.274c0-12.61 10.11-22.83 22.58-22.83 12.47 0 22.58 10.22 22.58 22.831 0 1.167-.087 2.316-.253 3.435" data-paper-data="{&quot;origPos&quot;:null}"/><path fill="#2c2c2d" d="M26.819 25.681s-.503 1.803-2.082 1.446c-.772-.174-.908-1.201-3.386-.74-.779.18-2.417 1.156-2.732 1.808-.316.652-.088-2.392 2.457-3.522 1.835-.675 2.457-.642 3.977-.642s1.987.907 1.766 1.65m9.741 0s.503 1.803 2.082 1.446c.772-.174.908-1.201 3.386-.74.779.18 2.417 1.156 2.732 1.808.316.652.087-2.392-2.457-3.522-1.835-.675-2.457-.642-3.977-.642s-1.987.907-1.766 1.65m-12.052 7.35c0 1.657-.895 3-2 3s-2-1.343-2-3 .895-3 2-3 2 1.343 2 3m18 0c0 1.657-.895 3-2 3s-2-1.343-2-3 .895-3 2-3 2 1.343 2 3"/><path fill="#eeac6c" d="M31.528 36.1c-1.125.153-3.02 1.834-3.02 1.834s.207-1.009.503-1.299c.8-1.156 2.487-1.604 2.487-1.604s2.173.703 2.65 1.588c.443.824.34 1.238.34 1.238s-2.121-1.871-2.96-1.756zM24.708 39.727s6.897 3.208 13.172-.397c0 0-1.39 5.47-5.95 5.561-4.115.122-4.984-1.492-5.477-1.956-.492-.463-1.42-1.772-1.745-3.208"/><path fill="#2c2c2d" d="M62.394 58.479a.49.49 0 0 1-.007.08c-.004.057-.006.107-.011.162 0 .024-.002.05-.004.077-.002.026-.008.048-.013.074-.008.048-.017.098-.024.148-.006.049-.023.094-.036.142l-.039.14c-.121.359-.307.641-.454.896a3.47 3.47 0 0 0-.342.697c-.015.055-.026.11-.043.158-.017.05-.021.102-.03.148l-.024.138c-.004.041-.006.085-.008.123-.003.039-.005.08-.009.11-.002.038-.004.068-.002.1.002.062.002.113.006.15l.002.127s-.006-.04-.014-.123c-.005-.041-.01-.091-.02-.151a.654.654 0 0 1-.007-.102c0-.033 0-.072-.002-.112 0-.036-.002-.083 0-.126.002-.049.007-.09.008-.145.007-.048.007-.1.02-.153.008-.052.02-.111.028-.168.07-.26.164-.512.283-.753.13-.272.279-.558.357-.89.01-.04.018-.082.024-.124.004-.042.019-.084.022-.13.001-.044.004-.088.01-.131l.007-.067-.002-.066c0-.046-.005-.09-.005-.138l-.001-.065-.01-.072c-.006-.053-.011-.101-.021-.153l-.007-.075-.002-.008v-.005l-.005-.015-.01-.037a2.367 2.367 0 0 0-.482-1.095c-.134-.162-.298-.321-.471-.498a3.848 3.848 0 0 1-.517-.616 3.185 3.185 0 0 1-.355-.824c-.014-.068-.027-.127-.04-.197l-.024-.098-.004-.025-.005-.03v-.013l-.01-.055a2.503 2.503 0 0 0-.026-.227l-.005-.054v-.059l-.002-.117c-.002-.078-.005-.157.005-.24.006-.078.013-.161.023-.24.015-.079.033-.16.047-.241.025-.08.046-.161.07-.24.106-.31.253-.587.367-.837.115-.22.192-.458.228-.703.008-.059.008-.118.01-.177l.002-.046v-.042l-.004-.083v-.078l-.013-.116-.015-.114-.007-.057-.002-.03c-.002-.007.002.043 0 .013l-.002-.014a2.337 2.337 0 0 0-.242-.69c-.117-.205-.277-.38-.495-.592a14.876 14.876 0 0 1-.354-.367c-.061-.07-.124-.149-.187-.225-.058-.083-.116-.164-.17-.25-.007-.008-.011-.017-.017-.03l-2.752 8.192c.048.043.093.09.134.14.106.117.191.25.253.396.059.143.094.294.104.448l.004.052v.018l-.002.032v.042l-.002.065-.005.068c0 .02-.003.04-.01.059a.688.688 0 0 1-.015.112 1.519 1.519 0 0 1-.175.406c-.152.238-.327.38-.474.503-.149.12-.278.213-.373.303a.654.654 0 0 0-.184.252.34.34 0 0 0-.03.137l-.003.022v.004c0 .005-.002-.028 0-.01v.015l.005.063c.006.022 0 .029.008.059a.554.554 0 0 0 .145.26c.095.094.198.18.309.254.129.083.253.172.374.266a1.4 1.4 0 0 1 .329.365c.084.139.134.295.147.457.008.145-.002.302-.052.435a1.057 1.057 0 0 1-.199.336c-.156.188-.323.306-.463.418a2.09 2.09 0 0 0-.345.317.898.898 0 0 0-.173.301.806.806 0 0 0-.035.214c-.003.048-.003.075-.003.075s-.001-.027-.01-.075l-.004-.094c.002-.037.002-.085.013-.131a.835.835 0 0 1 .132-.344c.087-.142.19-.273.308-.39.126-.135.267-.277.37-.443a.78.78 0 0 0 .108-.269.687.687 0 0 0-.01-.295c-.048-.206-.178-.35-.393-.474-.109-.064-.232-.121-.37-.188a2.43 2.43 0 0 1-.437-.26 1.043 1.043 0 0 1-.222-.219 1.102 1.102 0 0 1-.225-.468l-.016-.061-.004-.013c.002.009-.002-.024-.002-.024v-.013l-.008-.044a1.36 1.36 0 0 1 .01-.358 1.47 1.47 0 0 1 .115-.35c.054-.102.116-.199.186-.29.132-.166.27-.3.382-.424.11-.123.195-.232.222-.319a.218.218 0 0 0 .02-.105c.002-.009 0-.022 0-.026s0-.014-.002-.014c0 0-.002 0-.002-.004v-.005l-.004-.03-.007-.033-.004-.017c0-.011.004.044.004.017l-.004-.004a.22.22 0 0 0-.046-.092.442.442 0 0 0-.071-.065 1.937 1.937 0 0 0-.333-.18l-1.798 1.355c.063.052.12.11.173.173.21.234.335.532.354.846l.007.05v.052l-.004.04-.003.065-.002.067c-.002.023-.006.04-.008.06a.784.784 0 0 1-.02.114 1.41 1.41 0 0 1-.171.404c-.153.24-.328.382-.473.505-.151.118-.281.211-.374.301a.675.675 0 0 0-.186.254.416.416 0 0 0-.03.135l-.002.022v.004c0 .007-.002-.026 0-.008v.015l.006.061c.005.022 0 .031.007.059.022.1.072.192.145.264.094.093.197.177.307.25.13.082.254.17.374.266.13.101.242.225.33.365.158.27.191.595.093.892a1.135 1.135 0 0 1-.194.341c-.158.183-.329.301-.467.415a2 2 0 0 0-.344.316.897.897 0 0 0-.171.3c-.011.04-.02.08-.028.122-.004.037-.008.068-.008.094 0 .047-.003.077-.003.077s-.002-.027-.01-.077c-.003-.026-.003-.057-.005-.094.002-.039.002-.085.009-.133.023-.122.068-.24.134-.345.076-.129.186-.256.311-.389s.27-.278.372-.443a.855.855 0 0 0 .108-.27.749.749 0 0 0-.016-.295c-.045-.205-.172-.349-.39-.474-.108-.063-.229-.118-.368-.188a2.42 2.42 0 0 1-.441-.258 1.07 1.07 0 0 1-.218-.218 1.018 1.018 0 0 1-.171-.29c-.026-.053-.041-.123-.058-.18l-.01-.061-.01-.011c.005.011-.002-.026-.002-.026v-.013l-.006-.042a1.424 1.424 0 0 1 .008-.356 1.4 1.4 0 0 1 .117-.352c.051-.104.114-.202.186-.293.134-.166.268-.299.378-.421.115-.125.201-.234.229-.317a.242.242 0 0 0 .018-.109c.004-.009 0-.022 0-.027-.003-.004 0-.012-.003-.012h-.004v-.01l-.004-.028-.004-.033-.003-.02c0-.006.003.044.003.02l-.003-.002a.242.242 0 0 0-.047-.094.593.593 0 0 0-.074-.068 2.27 2.27 0 0 0-.356-.196c-.026-.013-.061-.027-.089-.042 0 0-1.387-.529-1.467-.863l-.045-.223-.02-.11-.005-.03a.135.135 0 0 0-.004-.026l-.002-.017-.007-.062c-.017-.163-.038-.325-.038-.5v-.017c0 .068-.004.136-.013.203a1.84 1.84 0 0 1-.074.314 1.864 1.864 0 0 1-.283.523 2.286 2.286 0 0 1-.262.282l-.051.048c-.1.085-.186.153-.262.211a3.59 3.59 0 0 0-.275.23c-.015.015-.023.015-.03.024-.006.002-.008.007-.013.02-.004.004-.004.013-.006.017.002.031-.007-.035-.007-.026v.009l.005.017.002.04.002.017c0-.002 0-.003-.002-.004 0-.005 0-.005-.002-.005-.006-.008-.005 0-.006 0v.024c0 .018.01.042.04.079.054.072.188.168.353.28a.532.532 0 0 0 .073.047c.002.005.004.01.009.01.021.017.047.03.074.048.004.001.006.008.01.011.023.017.05.036.073.056.003.003.007.003.014.007.038.03.077.065.12.098.009.009.024.018.033.029.013.011.022.021.034.028.011.018.029.028.039.042a.13.13 0 0 1 .025.026 1.43 1.43 0 0 1 .319.474c.06.142.096.294.106.448l.002.046v.094l-.002.07-.004.063-.007.057c-.009.039-.015.079-.024.114a1.46 1.46 0 0 1-.17.406 2.094 2.094 0 0 1-.474.503c-.149.122-.279.218-.376.308a.698.698 0 0 0-.186.244.47.47 0 0 0-.023.142l-.003.018v.004c0 .005-.006-.026-.002-.008l.002.017.003.059c.004.026 0 .033.006.061.024.1.074.19.145.264.095.093.2.177.311.25.117.083.249.164.37.264.13.104.241.229.33.369.084.139.134.295.145.457.027.28-.062.56-.246.774-.158.183-.325.302-.465.412a2.211 2.211 0 0 0-.347.32.841.841 0 0 0-.17.297c-.012.046-.023.087-.03.122-.002.04-.006.068-.006.094v.077a.643.643 0 0 1-.017-.171c0-.039 0-.081.01-.133a.99.99 0 0 1 .134-.345 2.7 2.7 0 0 1 .309-.389c.124-.131.266-.274.372-.444a.697.697 0 0 0 .104-.264.684.684 0 0 0-.009-.295c-.047-.207-.179-.354-.391-.477-.108-.061-.236-.12-.368-.187a2.335 2.335 0 0 1-.44-.26 1.359 1.359 0 0 1-.223-.22 1.052 1.052 0 0 1-.171-.29c-.021-.045-.039-.118-.054-.175l-.013-.063-.004-.015c0 .016-.002-.024-.002-.024l-.002-.013-.005-.04a1.04 1.04 0 0 1 .007-.356c.019-.124.063-.244.114-.354.054-.106.119-.201.184-.286.134-.171.273-.306.383-.426.093-.093.17-.2.227-.319a.308.308 0 0 0 .017-.11c.002-.008 0-.017 0-.026v-.011c-.004 0-.004-.002-.004-.002v-.002l-.003-.031-.006-.037-.002-.015c-.002-.011.002.037 0 .017l-.002-.006a.24.24 0 0 0-.046-.092.77.77 0 0 0-.074-.068 2.292 2.292 0 0 0-.36-.192c-.167-.083-.381-.175-.618-.369a.46.46 0 0 1-.076-.066l-.028-.026a.215.215 0 0 1-.05-.05.508.508 0 0 1-.032-.036.41.41 0 0 1-.069-.08 1.427 1.427 0 0 1-.214-.367.657.657 0 0 1-.048-.136l-.024-.081-.011-.061-.01-.037-.007-.018v-.01l-.006-.044c-.005-.046-.011-.087-.013-.133a1.258 1.258 0 0 1 .007-.28c.001-.033.006-.063.01-.096.002-.009.002-.018.007-.026.004-.029.017-.059.017-.092.067-.116.075-.232.125-.334.085-.162.182-.297.273-.407.08-.097.164-.19.253-.28.146-.155.25-.277.27-.341.008-.025.002-.032-.005-.025l-.026.01c0-.002 0 0-.004.004v-.01l-.004-.018v-.011c0 .016-.005-.05.004.033h-.004c-.005-.004-.007-.007-.009 0-.002 0-.004.005-.004.015-.002.018.004.037-.007.035-.015 0-.043-.022-.1-.048l-.22-.105c-.093-.046-.799-.057-.715.153.047.153.084.308.112.466l.007.072c.006.087.002.03.002.052v.031c0 .011.002.205-.013.302-.033.226-.11.443-.225.64l-.002.008c-.022.029-.039.064-.06.094-.003.005-.005.007-.007.013l-.063.083c-.11.138-.218.245-.315.33-.097.085-.186.153-.262.215a3.254 3.254 0 0 0-.274.225c-.015.017-.023.017-.033.024a.072.072 0 0 0-.013.022c0 .006-.002.013-.004.015.004.033-.004-.035-.002-.024v.011l.002.015.002.039v.018-.004c0-.005-.002-.005-.002-.007-.006-.008-.002 0-.004.002-.002.011-.002.018-.002.024a.165.165 0 0 0 .034.077c.01.01.02.02.028.032.003 0 .009.003.009.005.01.01.02.018.03.026 0 .002.002.007.005.007.006.008.021.019.036.032a2.816 2.816 0 0 1 .052.04c.041.032.091.065.143.102a.286.286 0 0 0 .054.035c.164.117.374.249.57.477.105.118.19.252.253.397.058.143.094.294.106.448l.005.05v.097l-.005.065-.005.063c-.001.025-.008.042-.01.06a.502.502 0 0 1-.022.113 1.23 1.23 0 0 1-.171.407c-.15.236-.323.384-.47.502-.147.121-.279.217-.374.309a.644.644 0 0 0-.186.242.438.438 0 0 0-.028.144l-.002.02v.002c0 .005-.003-.024 0-.011v.016l.004.062c.004.023 0 .034.006.06.02.1.073.193.148.263.093.095.197.179.31.25.12.083.245.169.37.267.13.102.242.226.329.367.084.14.133.297.145.459.01.14-.003.299-.05.433a1.094 1.094 0 0 1-.199.338c-.156.186-.324.302-.463.413a2.632 2.632 0 0 0-.35.319.847.847 0 0 0-.164.304.756.756 0 0 0-.032.118c0 .035-.005.07-.005.094v.074a.797.797 0 0 1-.015-.074l-.004-.094c.002-.037.002-.081.013-.131a.934.934 0 0 1 .127-.345c.076-.129.19-.256.314-.389.125-.134.27-.274.371-.444a.765.765 0 0 0 .106-.266.757.757 0 0 0-.011-.298c-.047-.205-.177-.351-.39-.474a5.536 5.536 0 0 0-.37-.185c-.136-.07-.288-.143-.442-.263a1.755 1.755 0 0 1-.22-.214 1.162 1.162 0 0 1-.168-.295c-.024-.047-.041-.122-.056-.177l-.013-.061-.007-.015c.004.013-.002-.022-.002-.022v-.013l-.006-.044a1.24 1.24 0 0 1 .123-.708c.054-.102.116-.2.186-.291.131-.166.27-.299.38-.421.112-.121.196-.236.226-.322a.21.21 0 0 0 .02-.104c.003-.011 0-.02 0-.027-.002-.006 0-.011-.002-.013l-.004-.004v-.003l-.007-.03-.004-.035-.002-.017c0-.009.002.039.002.017l-.002-.004a.168.168 0 0 0-.048-.09.27.27 0 0 0-.071-.068 2.258 2.258 0 0 0-.359-.194c-.166-.085-.38-.175-.62-.365a1.665 1.665 0 0 1-.339-.38 1.416 1.416 0 0 1-.128-.248.194.194 0 0 1-.017-.06h.002c0-.009-.011-.02-.015-.027 0-.004-.007-.006-.007-.011-.006-.013-.008-.026-.015-.041l-.021-.079-.013-.061-.009-.037-.006-.022-.003-.006c0 .003-.006-.066-.002-.047-.004-.04-.008-.082-.017-.13a1.567 1.567 0 0 1 .011-.283c.023-.23.097-.452.216-.651.004-.012.013-.019.021-.032.011-.024.029-.046.039-.066a1.3 1.3 0 0 1 .08-.111c.024-.035.048-.064.072-.094.09-.11.177-.201.25-.278.15-.153.253-.277.275-.337.011-.03.002-.036-.007-.03l-.023.013c0-.005-.003 0-.007.005v-.014l-.002-.017-.002-.013c.002.017-.005-.046.004.03h-.009c-.002 0-.004.009-.006.023 0 .012.004.032-.009.03-.01-.003-.041-.018-.095-.043l-.222-.11a3.203 3.203 0 0 1-.333-.173 2.223 2.223 0 0 1-.422-.321 1.863 1.863 0 0 1-.401-.551c-.029-.054-.048-.109-.07-.166l-.013-.041-.011-.02-.006-.026c-.008-.035-.022-.072-.028-.105l-.033-.135-.008-.04-.013-.085-.002-.041a1.89 1.89 0 0 1 .052-.705c.059-.22.151-.429.274-.62.098-.14.204-.273.318-.4.021-.021.04-.045.06-.065a3.005 3.005 0 0 1-.335-.186 2.636 2.636 0 0 1-.452-.347 2.22 2.22 0 0 1-.44-.599c-.028-.059-.057-.113-.078-.173l5.537-4.72-1.098-2.604 1.13-1.95-.043-.048-.097-.118c-.03-.035-.065-.074-.097-.12a4.21 4.21 0 0 1-.21-.275c-.034-.053-.069-.101-.104-.153l-.096-.166a2.663 2.663 0 0 1-.18-.339c-.061-.118-.098-.236-.143-.356-.048-.116-.078-.251-.114-.385a2.05 2.05 0 0 1-.05-.198l-.026-.14-.026-.14-.015-.068a.58.58 0 0 0-.009-.068l-.002-.022-.007-.044a4.582 4.582 0 0 1 .089-1.69l.052-.19c.036-.118.076-.235.119-.35l.067-.158.03-.076.03-.075.113-.264c.138-.323.199-.52.216-.741 0-.056.002-.112.006-.168-.002-.05-.006-.094-.006-.14v-.015c0-.007.002-.007 0-.024l-.009-.068-.013-.138-.017-.137c-.004-.053.004.052.002.037l-.002-.013-.004-.024-.009-.048c-.017-.064-.024-.134-.041-.189a1.771 1.771 0 0 1-.052-.17 1.835 1.835 0 0 1-.06-.148c-.022-.048-.05-.09-.072-.136-.024-.043-.056-.083-.082-.131l-.104-.138-.067-.08a.652.652 0 0 0-.071-.085c-.054-.068-.11-.132-.166-.2l-.095-.11-.1-.13c-.034-.046-.067-.085-.104-.131l-.106-.151a4.878 4.878 0 0 1-.196-.321c-.069-.109-.119-.234-.177-.347-.059-.118-.1-.237-.145-.357-.022-.063-.043-.118-.063-.181l-.054-.201-.048-.201-.012-.05-.007-.024-.002-.016-.013-.063c-.013-.086-.033-.17-.048-.256l-.002-.017a.887.887 0 0 1-.011-.077l-.004-.043-.013-.086-.013-.172-.015-.168-.004-.18v-.183c0-.061-.002-.12.004-.184.013-.122.019-.249.031-.376a8.05 8.05 0 0 1 .164-.734l.114-.33.119-.288a8.58 8.58 0 0 1 .106-.249l.043-.099.02-.05.012-.026.009-.02.03-.083c.009-.028.024-.059.028-.081l.022-.067a.188.188 0 0 0 .015-.062c.009-.038.02-.076.026-.118a.962.962 0 0 1 .013-.107c0-.074.007-.161-.002-.205v-.061l-.009-.057c-.008-.077-.013-.155-.021-.227l-.009-.059v-.013c-.004-.066.004.072.002.054l-.002-.015-.013-.07a1.325 1.325 0 0 1-.03-.136 1.802 1.802 0 0 0-.164-.393 3.499 3.499 0 0 0-.312-.395c-.151-.186-.377-.44-.597-.773-.027-.04-.051-.084-.08-.13a6.688 6.688 0 0 1-.153-.26c-.023-.045-.043-.094-.067-.135-.041-.094-.088-.186-.125-.278-.039-.089-.069-.183-.106-.273l-.046-.143c-.012-.045-.027-.095-.04-.15-.033-.105-.05-.203-.078-.306l-.017-.076-.003-.018-.002-.006-.006-.024c-.007-.033-.011-.062-.015-.088-.015-.061-.022-.116-.033-.172l-.008-.046-.005-.02-.011-.09-.002-.013c-.004-.044-.006-.084-.013-.124l-.023-.238c-.003-.044-.009-.083-.009-.118-.002-.044-.002-.087-.002-.127l-.002-.249v-.125l.006-.127a5.02 5.02 0 0 0 .024-.253c.007-.083.021-.169.037-.249.017-.085.03-.164.045-.247.018-.077.038-.155.058-.234l.065-.223c.026-.067.048-.137.072-.203.012-.03.023-.066.036-.1.011-.033.024-.058.033-.088.023-.056.046-.112.071-.168.006-.027.021-.05.031-.077l.03-.068.103-.24c.054-.129.086-.22.106-.29-.899-.767-1.774-1.421-2.542-1.847-4.473-2.456-6.7 1.165-10.696-2.023-.663-.53-1.9-1.93-1.9-1.93s-1.501 1.532-1.901 1.93c-4.492 4.444-7.861-.745-11.643 1.942-.18.127-.355.256-.532.389-.004.431-.013.942-.024.997l-.027.177-.01.05a.724.724 0 0 0-.023.098c-.02.074-.037.148-.053.223a3.74 3.74 0 0 1-.15.494c-.03.085-.057.173-.1.264-.039.092-.084.189-.13.289-.043.1-.099.193-.157.293l-.087.15c-.03.049-.06.093-.093.143-.028.045-.065.091-.095.144-.032.043-.065.083-.097.128a2.46 2.46 0 0 0-.095.13c-.03.039-.065.073-.093.113-.093.118-.192.238-.298.37a.145.145 0 0 1-.028.032l-.022.034a.587.587 0 0 1-.048.06c-.013.02-.024.035-.034.057-.009.018-.026.033-.035.055a1.25 1.25 0 0 0-.116.255c-.009.029-.016.057-.029.086a.222.222 0 0 0-.008.044l-.013.05c-.007.034-.013.069-.022.104l-.013.055v.007l.005-.066-.003.024-.004.043c-.004.06-.013.121-.02.18l-.01.094-.002.02c0 .007-.003.017-.003.017l.003.015c0 .022-.003.039-.003.059l-.001.033v.134c.001.026.006.052.01.08l.003.042.01.048.009.044c.004.015.004.028.011.05.03.127.11.315.231.607.16.365.286.744.376 1.132.092.44.127.89.104 1.34-.007.105-.02.207-.028.312a1.63 1.63 0 0 0-.009.155l-.009.042a.506.506 0 0 0-.008.081l-.003.012-.013.06a3.985 3.985 0 0 1-.043.232l-.008.058-.02.09c-.015.064-.03.125-.047.188-.057.258-.141.472-.223.699-.05.112-.104.223-.156.335-.054.111-.117.214-.177.317-.03.058-.063.1-.097.148l-.093.144c-.032.053-.065.088-.098.134l-.09.122-.026.033-.019.026-.044.052-.086.107c-.05.06-.1.12-.147.18a2.463 2.463 0 0 0-.344.511c-.015.043-.034.085-.052.133a.257.257 0 0 0-.023.072l-.024.077c-.006.026-.02.052-.026.08l-.015.09-.018.09-.01.044-.005.022c-.002.017.007-.101.002-.044l-.002.017c-.006.09-.019.177-.026.265l-.006.067-.004.016v.084c-.003.02-.007.041-.007.063-.002.025 0 .05.004.075.003.05-.004.105.009.153.024.198.076.386.212.708.034.087.071.174.108.262l.061.152.06.16c.044.116.084.235.119.354.034.129.071.253.1.383.023.133.049.265.06.395.013.13.023.261.028.392 0 .128 0 .253-.003.38-.004.126-.02.242-.03.364l-.006.09-.007.046-.004.02a.79.79 0 0 0-.006.074l-.026.135-.026.145-.014.07c-.001.008-.008.028-.01.045l-.011.055c-.032.133-.067.275-.104.407-.045.124-.09.249-.136.371-.049.122-.108.243-.168.367-.063.112-.13.232-.197.336l-.106.16-.051.079-.05.07-.108.135a1.303 1.303 0 0 1-.1.125l-.175.223-.045.05-.035.048-.073.092a.43.43 0 0 0-.057.083l.753 3.091-.459 2-.013.123-.017.174-.011.09c-.008.079-.004.031-.006.052l-.005.02-.004.036-.052.29-.006.017-.007.027-.008.045-.022.094-.052.193c-.008.03-.015.063-.028.094l-.028.085-.063.177-.034.083-.028.063-.327 1.432.819 4.966s3.523 6.906 3.406 7c-.24.192-.451.286-.62.367a2.465 2.465 0 0 0-.356.196.327.327 0 0 0-.074.068.202.202 0 0 0-.047.092l-.003.004c-.002.022.003-.025.003-.015l-.003.013-.006.037-.004.033-.002.005c-.005 0 0 .006-.005.01 0 .009-.002.017 0 .027a.251.251 0 0 0 .02.106c.055.12.132.228.227.32.11.12.248.253.38.428.071.089.133.184.184.286.058.11.097.23.115.354.022.117.025.236.01.354l-.006.044v.011l-.005.022-.005.017-.01.059c-.017.059-.034.131-.057.179-.042.105-.1.21-.17.293a1.663 1.663 0 0 1-.22.217c-.153.118-.307.192-.443.26-.134.065-.26.122-.368.187-.216.122-.346.269-.393.472a.76.76 0 0 0-.009.295.776.776 0 0 0 .106.269c.104.171.247.313.37.443.118.118.223.248.311.39.068.104.113.22.132.343.011.055.011.096.013.135-.002.038-.002.068-.007.094l-.008.077-.003-.079c0-.024-.006-.054-.008-.092-.007-.034-.013-.076-.03-.124a.85.85 0 0 0-.167-.297 2.414 2.414 0 0 0-.344-.317c-.146-.116-.313-.23-.466-.413a1.02 1.02 0 0 1-.199-.343c-.1-.297-.066-.622.093-.892.09-.14.2-.263.33-.367.126-.098.252-.181.372-.264a1.72 1.72 0 0 0 .309-.252.522.522 0 0 0 .145-.264c.009-.026.002-.033.009-.059l.004-.059v-.015c.004-.018-.002.013 0 .008l-.002-.006v-.018a.444.444 0 0 0-.028-.137.639.639 0 0 0-.186-.249c-.095-.09-.224-.186-.374-.306-.145-.123-.322-.269-.471-.505a1.247 1.247 0 0 1-.173-.404c-.011-.04-.015-.074-.022-.114 0-.02-.006-.035-.008-.057l-.003-.068-.004-.065-.002-.042v-.052l.007-.05c.006-.142-4.39-2.148-4.39-2.148-.078.039-.145.072-.195.102-.003.211.014.422.05.63.002.002.002.004.002.006l-.162-.063c.046.06.094.119.145.175.11.122.251.255.378.421.073.09.135.189.186.293.11.219.154.465.125.708l-.006.042-.002.013-.002.026-.003.011-.015.061a2.512 2.512 0 0 1-.052.178 1.205 1.205 0 0 1-.393.51 2.556 2.556 0 0 1-.44.258c-.14.07-.26.125-.37.188-.217.124-.344.269-.389.474a.69.69 0 0 0-.013.295.846.846 0 0 0 .103.269c.106.166.252.311.372.443.12.117.224.248.313.39a.95.95 0 0 1 .132.345c.007.048.007.094.009.133l-.004.094a1.46 1.46 0 0 0-.009.077v-.077c0-.026-.009-.057-.013-.094a.402.402 0 0 0-.026-.122.878.878 0 0 0-.166-.299 2.3 2.3 0 0 0-.348-.317c-.143-.114-.309-.232-.467-.415a1.053 1.053 0 0 1-.247-.776c.013-.162.063-.318.146-.457.086-.146.207-.265.33-.365.121-.1.251-.186.371-.266.12-.081.228-.164.31-.25a.567.567 0 0 0 .145-.263c.004-.03.002-.038.008-.06l.002-.061.003-.015c0-.018-.003.015-.003.008v-.026a.316.316 0 0 0-.032-.135.635.635 0 0 0-.182-.254c-.095-.089-.224-.183-.376-.301-.142-.123-.32-.265-.471-.505a1.192 1.192 0 0 1-.168-.404c-.013-.04-.018-.079-.026-.114l-.007-.059-.006-.068-.002-.065v-.093l.002-.05c.012-.155.047-.306.106-.45.013-.024.023-.05.037-.076l-1.14-.298c.007.166.036.33.085.49l-.707-.281a3.737 3.737 0 0 1-.054-.39l-.295-.275a.116.116 0 0 0-.01.033l-.004.004c0 .024.004-.026.004-.017l-.004.015-.005.037-.006.029v.004c0 .002-.002.002-.002.005v.01l-.003.026a.272.272 0 0 0 .02.11 1.1 1.1 0 0 0 .225.314c.11.125.248.259.382.429.07.09.132.187.186.288.055.11.093.23.113.352.023.118.027.239.011.358l-.005.042-.002.011a.602.602 0 0 0-.004.026l-.005.015-.013.059c-.015.055-.034.129-.056.177a.974.974 0 0 1-.168.293 1.38 1.38 0 0 1-.223.216c-.153.116-.303.193-.439.263-.14.065-.261.122-.367.185-.218.125-.346.269-.393.475a.916.916 0 0 0-.015.295c.022.095.06.185.11.268.101.166.246.308.371.444.117.118.221.248.312.387.067.106.11.224.127.348.013.047.013.093.015.13l-.004.096c-.011.051-.013.077-.013.077 0-.026 0-.051-.002-.077 0-.026-.005-.061-.007-.094-.011-.037-.013-.078-.026-.124a.847.847 0 0 0-.173-.299 2.389 2.389 0 0 0-.345-.317c-.139-.114-.305-.232-.462-.418a1.048 1.048 0 0 1-.2-.336 1.15 1.15 0 0 1-.054-.435c.015-.162.067-.318.152-.457.082-.146.205-.265.328-.365.123-.1.25-.186.37-.266.111-.074.215-.159.311-.252a.518.518 0 0 0 .143-.264c.008-.026.002-.035.008-.059l.004-.061v-.013c.003-.022 0 .011 0 .008v-.008l-.002-.018a.39.39 0 0 0-.028-.137.687.687 0 0 0-.186-.252c-.094-.089-.222-.183-.374-.306-.147-.12-.324-.262-.471-.5a1.38 1.38 0 0 1-.174-.409c-.01-.035-.012-.071-.02-.111-.002-.018-.007-.039-.007-.055l-.006-.07-.002-.067v-.038l-.003-.035v-.017l.005-.05c0-.026.006-.055.008-.079l-.527-.315c0-.021 0-.041.002-.063l.007-.098v-.027a.465.465 0 0 0 .002-.035v-.01l.006-.057c.009-.073.02-.149.028-.223l.009-.057.013-.057.026-.116c.011-.05.022-.103.037-.153l-.635-.598c-.132.08-.27.153-.41.218-.17.079-.293.144-.36.197a.327.327 0 0 0-.074.068.275.275 0 0 0-.047.091v.003c-.004.026 0-.027 0-.018l-.004.018-.005.035-.002.028c0 .004 0 .004-.002.004l-.004.005v.008c0 .014-.003.022-.003.029 0 .038.007.076.022.111.028.083.115.195.227.317.106.12.244.254.378.425.072.09.134.187.186.29.053.11.092.227.117.347.021.12.023.242.006.363l-.004.04-.002.01s-.007.037-.002.029l-.005.012-.015.06c-.015.054-.03.127-.056.177a1.002 1.002 0 0 1-.169.293 1.113 1.113 0 0 1-.222.218 2.595 2.595 0 0 1-.439.258c-.138.07-.261.124-.367.188-.216.124-.346.269-.392.474a.685.685 0 0 0-.008.295.691.691 0 0 0 .101.269c.102.166.247.31.373.443.117.119.22.25.31.39a.854.854 0 0 1 .139.572c-.011.05-.013.076-.013.076v-.076a.794.794 0 0 0-.203-.516 2.162 2.162 0 0 0-.348-.316c-.141-.114-.307-.232-.465-.42a1.105 1.105 0 0 1-.199-.337 1.093 1.093 0 0 1-.047-.435.968.968 0 0 1 .144-.456c.082-.147.208-.265.328-.365.124-.101.252-.186.37-.267.124-.081.232-.164.314-.251a.541.541 0 0 0 .14-.262c.009-.029.002-.038.009-.059l.004-.064.002-.015c.005-.018-.002.013-.002.011V59.4a.39.39 0 0 0-.03-.138.685.685 0 0 0-.184-.251c-.097-.09-.224-.184-.374-.304-.149-.123-.322-.263-.473-.503a1.394 1.394 0 0 1-.171-.404c-.01-.039-.015-.074-.023-.114-.003-.019-.007-.036-.007-.056l-.006-.07v-.14l-.005-.018.005-.05a1.432 1.432 0 0 1 .356-.846c.201-.227.411-.36.575-.478.088-.055.172-.115.253-.179.045-.072.09-.14.13-.21l.002-.037v-.005h-.002c0 .009-.003.018 0 .005a.045.045 0 0 1-.005-.022c-.004-.009-.006-.018-.013-.022-.006-.009-.015-.009-.032-.02a3.241 3.241 0 0 0-.276-.231 5.278 5.278 0 0 1-.26-.21c-.032-.028-.065-.061-.102-.096l.48.028-1.26-3.426-.002.017-.004.042-.005.031-.015.054-.026.112-.021.113-.044.138-.041.14-.023.07-.029.063c-.034.081-.067.167-.11.247-.16.33-.393.605-.611.824-.214.22-.404.397-.554.585a1.893 1.893 0 0 0-.324.617l-.028.083-.017.043-.008.042c-.014.061-.025.12-.04.177l-.008.045-.003.01c-.002.008 0-.027 0-.005l-.002.026-.017.099a2.251 2.251 0 0 1-.022.194c-.014.22.003.442.05.658.057.223.139.44.243.645.1.214.217.434.3.674.025.058.036.121.058.18l.026.09c.007.028.011.063.017.093.013.06.025.12.035.18a5 5 0 0 0 .015.178l.008.09c.003.033 0 .06 0 .09l-.002.175c0 .055-.013.111-.017.166-.006.054-.011.111-.019.164l-.005.041-.002.02c-.002.022-.002.008-.002.018l-.002.008-.018.077c-.008.05-.023.101-.032.151l-.017.072a.962.962 0 0 1-.022.074l-.047.151c-.011.026-.017.054-.027.076l-.03.07a2.58 2.58 0 0 1-.062.136c-.016.048-.046.085-.066.131-.025.039-.047.083-.07.124-.206.317-.454.549-.662.756a3.507 3.507 0 0 0-.495.595c-.03.046-.056.098-.082.14-.03.047-.043.094-.065.137l-.054.125c-.017.042-.03.082-.041.122-.008.035-.024.07-.034.105a.486.486 0 0 0-.027.096c-.012.057-.02.107-.03.149-.019.076-.025.12-.025.12l.01-.125c.009-.039.015-.091.019-.15a.758.758 0 0 1 .02-.097c.006-.039.016-.071.026-.111.007-.037.015-.083.028-.127.016-.044.03-.088.043-.133.02-.048.029-.098.057-.144.02-.054.045-.106.071-.157a3.65 3.65 0 0 1 .456-.66c.188-.23.404-.475.56-.776.015-.04.034-.076.051-.116.018-.038.04-.077.05-.118l.044-.129.024-.059.01-.069c.011-.04.02-.084.03-.13l.016-.065.008-.075c.005-.048.013-.1.02-.15l.008-.076.002-.01v-.057c.024-.39-.027-.8-.207-1.18-.089-.194-.21-.382-.335-.6a3.824 3.824 0 0 1-.35-.726 3.057 3.057 0 0 1-.145-.883l.002-.205.007-.098v-.025c0 .011.004-.03.004-.03v-.013l.009-.059c.006-.073.019-.147.028-.223l.004-.053.015-.061.027-.113c.014-.078.034-.155.06-.23.028-.074.052-.153.082-.227.039-.074.071-.149.104-.223l.127-.215c.177-.277.389-.506.562-.72.163-.187.293-.4.385-.63.023-.054.036-.111.056-.166l.015-.045.009-.04.013-.081.021-.078.015-.114.013-.114.005-.054.008-.029c0-.013-.008.04-.006.01v-.01a2.266 2.266 0 0 0-.067-.733c-.065-.226-.177-.436-.335-.7-.078-.129-.169-.278-.255-.442a6.99 6.99 0 0 1-.126-.26 3.82 3.82 0 0 1-.105-.288c-.026-.098-.059-.201-.082-.304a8.867 8.867 0 0 1-.05-.312l-.02-.335c-.002-.061 0-.091.002-.133l.005-.127.002-.061v-.03l.004-.018c-.004.005.005-.072.002-.05l.02-.149.017-.148.015-.075a.434.434 0 0 1 .013-.076c.026-.101.048-.203.078-.306.032-.105.071-.205.106-.31.047-.096.093-.199.145-.295.054-.092.11-.19.168-.275l.089-.13a.742.742 0 0 0 .045-.06l.046-.06.09-.113.085-.103.16-.19.037-.046.03-.042.065-.08.105-.156c.02-.052.054-.098.076-.148l.028-.072a.216.216 0 0 0 .03-.075l.024-.078a.282.282 0 0 0 .022-.075c.004-.045.014-.085.024-.131l.032-.251v-.048c0-.009-.011-.044-.011.026v-.048l.007-.092.017-.091-.013-.086c-.006-.054-.009-.113-.022-.161-.013-.051-.016-.103-.036-.149-.057-.192-.162-.376-.338-.662l-.067-.12c-.023-.037-.045-.077-.071-.122a3.17 3.17 0 0 1-.147-.28l-.071-.158c-.024-.05-.043-.107-.065-.161-.02-.059-.043-.112-.06-.173l-.05-.177a2.757 2.757 0 0 1-.069-.358l-.013-.09-.009-.046-.002-.048-.013-.201-.004-.201.004-.123.002-.13.002-.062c0 .005.011-.113.009-.071l.002-.02.007-.046c.042-.477.176-.94.395-1.366.056-.112.123-.212.186-.317.032-.05.065-.092.101-.144.031-.042.063-.094.098-.136l.095-.12.05-.061.043-.052.164-.192c.022-.031.049-.066.069-.09l.057-.075.03-.037c.008-.011.013-.024.02-.035l.04-.064c.02-.021.026-.043.035-.06.012-.018.022-.037.032-.055.017-.037.028-.076.046-.111.009-.04.02-.078.032-.116.005-.035.005-.061.015-.088.002-.004.002-.013.004-.021l.009-.062.015-.122.015-.122c.009-.059-.01.063-.008.046v-.028l-.002-.04.002-.075c0-.024.002-.052-.003-.072-.006-.043-.008-.089-.01-.128a.568.568 0 0 1-.026-.11c-.011-.037-.027-.072-.037-.103-.013-.034-.035-.072-.045-.107l-.067-.124c-.054-.098-.122-.203-.212-.356l-.065-.114c-.022-.037-.048-.087-.073-.127a3.572 3.572 0 0 1-.072-.137l-.071-.153c-.024-.055-.05-.1-.074-.16l-.064-.172c-.042-.112-.074-.234-.106-.354-.032-.121-.052-.245-.072-.368-.008-.061-.019-.12-.026-.181-.003-.068-.01-.138-.013-.205a7.217 7.217 0 0 1-.004-.206v-.15l.004-.23v-.015c-.002.059.013-.092.013-.088l.005-.037.008-.083.022-.16.026-.168.037-.168.045-.168.022-.086c.004-.03.016-.055.026-.085.038-.116.077-.229.127-.341.05-.111.106-.223.16-.334.058-.098.121-.199.183-.297.061-.089.126-.179.19-.269.057-.074.12-.149.18-.223.049-.062.099-.123.149-.183l.063-.072.03-.04c.009-.013.022-.023.028-.033l.044-.061.021-.026c.009-.011.013-.022.02-.028.017-.031.041-.064.054-.09a.524.524 0 0 1 .034-.07c.009-.024.013-.046.022-.068.011-.019.013-.046.019-.067l.003-.018.002-.009-.002-.004v-.015c0-.005 0-.009.002-.016l.001-.004.01-.05.023-.199.007-.053.002-.013c.009-.072-.013.086-.011.068v-.013l-.002-.05v-.103a.893.893 0 0 0-.063-.251 4.894 4.894 0 0 0-.198-.346c-.031-.048-.059-.1-.087-.148l-.052-.085-.056-.099a3.575 3.575 0 0 0-.115-.21c-.036-.08-.075-.161-.112-.246l-.03-.062-.026-.067a1.313 1.313 0 0 0-.052-.136c-.015-.048-.032-.092-.048-.14-.015-.041-.028-.096-.041-.14a10.164 10.164 0 0 1-.073-.288l-.05-.282c-.004-.052-.011-.094-.018-.146-.003-.044-.003-.101-.01-.153a8.584 8.584 0 0 1-.011-.315c0-.124.002-.155.002-.212.003-.052.003-.105.007-.155l.002-.039v-.022l.009-.099.002-.011c.006-.043.009-.083.015-.12.01-.077.022-.154.035-.231.006-.037.01-.077.015-.114.01-.04.019-.08.026-.12l.06-.238c.011-.04.022-.079.03-.118.012-.04.029-.079.042-.118.028-.081.054-.158.084-.234.026-.077.065-.153.101-.227l.106-.216a3.5 3.5 0 0 1 .18-.297c.019-.031.036-.064.056-.09l.121-.164c.019-.029.038-.057.058-.082l.054-.07.104-.13.048-.058.041-.05c.028-.034.056-.065.084-.1.024-.026.045-.048.065-.074.162-.201.181-.26.196-.304 0-.013.003-.02.005-.028l.002-.005v-.008c0-.007 0-.011.002-.018 0-.009.002-.017.004-.026-.002 0-.006 0-.006.005l.002-.04c.008-.05.014-.1.018-.149l.01-.076-.028-.005c.405-1.28.968-1.667 1.515-2.038.463-.317.94-.645 1.483-1.735.209-.426.274-1.054.343-1.716.098-.953.212-2.032.794-2.943.473-.735 1.268-1.209 2.042-1.665.635-.376 1.29-.762 1.714-1.272.359-.431.59-1.058.836-1.729.338-.909.681-1.848 1.423-2.512.693-.63 1.638-.857 2.546-1.082.711-.171 1.376-.337 1.898-.664.468-.295.883-.805 1.32-1.34.624-.76 1.268-1.554 2.206-1.922.874-.346 1.842-.217 2.775-.09.718.098 1.401.187 2.01.08.528-.098 1.088-.408 1.682-.74C29.624.498 30.513 0 31.546 0c1.026 0 1.921.498 2.783.976.601.33 1.168.645 1.706.743.607.112 1.288.018 2.012-.081.938-.131 1.906-.264 2.786.079.938.363 1.593 1.136 2.223 1.89.455.534.88 1.04 1.36 1.335.53.326 1.208.472 1.928.632.916.201 1.863.411 2.572 1.016.756.64 1.139 1.567 1.504 2.465.273.664.528 1.291.906 1.709.449.5 1.124.867 1.781 1.217.786.426 1.601.865 2.105 1.578.624.885.789 1.96.936 2.91.102.662.196 1.285.432 1.705.599 1.071 1.091 1.379 1.575 1.671.565.344 1.144.698 1.619 1.956l-.227.088.199-.016s.002.044.002.127c.005.05.008.1.009.151v.157c0 .072-.002.149-.004.232-.007.078-.009.166-.018.252-.01.08-.019.165-.036.25a1.649 1.649 0 0 1-.022.138l-.01.068c-.005.022-.016.048-.02.072a8.07 8.07 0 0 1-.076.294c-.026.104-.066.2-.106.3a1.001 1.001 0 0 1-.058.155c-.024.047-.043.097-.065.147a1.932 1.932 0 0 0-.07.144c-.023.039-.047.085-.07.129-.022.044-.048.087-.07.131-.023.037-.041.07-.062.109-.025.033-.044.07-.065.11a.837.837 0 0 0-.052.083c-.029.05-.059.098-.089.146l-.02.033-.01.024-.026.044c-.006.008-.011.013-.011.017l-.006.013a.322.322 0 0 0-.02.033.079.079 0 0 1-.008.024c-.009.011-.015.015-.015.029l-.007.03c-.004.007-.006.013-.011.017-.002.009-.002.015-.002.025 0 .017-.004.03-.006.05l-.005.024v.101l-.002.035v.007c-.011-.039.009.085-.015-.083l.002.017.002.04c.012.054.016.102.022.157a.803.803 0 0 0 .017.107v.007c-.002.002-.006.002-.006.006a.294.294 0 0 0 .026.107c.004.01.002.013.006.02a.093.093 0 0 1 .009.022l.013.026.004.013.009.017c.039.073.149.206.322.42.242.275.455.575.635.894.255.47.418.983.482 1.514.007.049.011.094.018.149l.004.034c0-.008.015.16.011.09v.068l.006.203v.149c0 .063-.002.127-.004.192a4.504 4.504 0 0 1-.009.193l-.004.046-.007.043-.008.085c-.022.114-.037.226-.065.342a6.055 6.055 0 0 1-.089.34c-.034.107-.077.214-.116.326-.046.1-.091.192-.139.29l-.03.068-.037.059-.065.129c-.013.018-.023.037-.035.05l-.03.058-.06.1c-.032.057-.065.112-.101.172-.119.199-.165.282-.197.387-.009.026-.013.057-.022.083 0 .009-.004.015-.008.024v.027l-.007.05-.006.056v.175c0 .018-.022-.122-.013-.057l.004.018c.01.072.017.149.03.227l.007.055.001.017v.005c.005.013.01.019.01.028.002.01.002.02 0 .029l.012.045c.007.031.013.064.026.094.013.027.022.059.039.088a.2.2 0 0 1 .024.048c.004.015.022.035.03.057l.039.054c.013.02.033.042.048.066.019.024.034.046.056.07l.067.083c.093.112.214.255.344.422.064.085.131.183.198.275.065.104.128.21.189.317.059.113.113.228.162.345.041.112.086.232.123.352.03.115.06.23.086.347.015.061.018.118.028.173l.024.166.009.085.006.042.002.02c.002.027.005.053.009.08l.004.123.003.124.004.059-.004.103a3.803 3.803 0 0 1-.024.406c-.018.125-.035.252-.058.372-.03.122-.065.247-.1.365l-.064.175c-.02.056-.044.113-.07.168l-.071.155a.8.8 0 0 1-.039.074l-.035.07-.074.136c-.025.043-.047.078-.07.12l-.13.21-.028.05-.024.041-.046.086-.075.142c-.017.043-.042.083-.052.125-.011.021-.017.04-.024.06-.005.024-.015.044-.015.066-.005.022-.009.045-.015.065a.223.223 0 0 0-.013.07c-.002.052-.009.101-.015.152.002.056.002.115.002.17v.032c.009.051-.011-.059-.009-.037l.009.064.015.124.018.127a.318.318 0 0 1 .01.052c.007.018.009.035.013.058v.01l.004.018.009.035c.018.045.026.094.048.135.011.02.02.043.026.066.008.019.026.041.034.065l.037.066.047.071c.058.083.119.164.182.243l.074.092.09.102c.029.038.056.069.089.11.065.084.125.157.19.254l.098.133c.03.05.062.096.09.148.029.053.063.101.089.156l.078.161c.054.105.09.219.127.33.043.11.067.219.095.33l.035.166.024.162.021.16.009.08c.013.094.006.033.011.059v.046l.006.256a5.966 5.966 0 0 1-.017.369.92.92 0 0 1-.024.176l-.023.17c-.01.054-.022.111-.04.168l-.047.165c-.03.11-.078.213-.113.32-.045.096-.088.194-.137.286l-.07.127-.037.063-.032.059-.132.217c-.164.271-.264.465-.318.681-.013.055-.021.112-.037.166-.006.06-.008.125-.013.18-.002.017-.006.032-.006.046l.004.048v.098l.002.094c.004.037-.006-.033-.006-.02l.004.016.002.03.007.063c.052.562.219.859.659 1.366l.078.094.084.103c.026.037.052.07.08.107l.082.114c.056.076.104.159.156.244.052.081.091.173.132.26.147.343.24.708.274 1.08v.017c0-.018.007.042.007.042v.03l.002.055.002.116.004.116-.006.144-.009.144-.006.074-.009.068c-.017.089-.027.179-.047.269a3.212 3.212 0 0 1-.396.948c-.158.269-.298.486-.395.706a2 2 0 0 0-.169.677l-.004.09-.007.042.002.046c0 .061.005.12.007.181v.055c0 .008-.007-.027-.002-.005l.002.027.013.1c.008.065.019.134.026.194.041.208.106.431.206.628.11.2.241.388.39.562.149.183.318.366.454.58.039.051.067.108.095.158l.052.083c.014.028.027.056.039.085l.08.166c.015.059.037.113.058.173l.027.083c.01.03.014.055.02.085l.04.17c.015.055.019.114.026.166.008.057.013.112.021.164l.005.042.002.017c.002.027 0 .013 0 .02l.002.011v.077c.004.05.009.102.009.15zm-31.596 53.302-.532 3.37h-.635l-.145-.912c-1.238.774-2.73 1.227-4.048 1.86-1.295.553-2.996 1.589-4.154.28-1.531-1.855 1.238-4.311 3.025-5.43l6.1.183c.054.219.365.426.38.649z" data-paper-data="{&quot;origPos&quot;:null}"/><path fill="#9c6f3f" d="M21.945 114.066s.454-1.986 2.503-2.98l6.004.09s-4.221 4.241-8.507 2.891" data-paper-data="{&quot;origPos&quot;:null}"/><path fill="#2c2c2d" d="M38.702 110.949c1.789 1.119 4.558 3.577 3.026 5.432-1.157 1.311-2.857.273-4.152-.277-1.321-.636-2.81-1.093-4.053-1.864l-.14.912h-.638l-.533-3.37h.013c.015-.223.326-.431.38-.649l6.097-.184"/><path fill="#9c6f3f" d="M41.068 114.067c-4.286 1.35-8.51-2.891-8.51-2.891l6.007-.09c2.049 1.084 2.503 2.98 2.503 2.98" data-paper-data="{&quot;origPos&quot;:null}"/><path fill="#9c6f3f" d="m43.842 84.894-5.162 26.28h-6.12l-.912-19.054h-.286l-.912 19.054h-6.118l-5.164-26.281h15.52zM8.381 78.5c-.247 2.364.875 4.42 2.5 4.597 1.063.112 2.081-.603 2.728-1.774.603.501 1.197.702 1.627.472.798-.426.703-2.189-.214-3.935a6.897 6.897 0 0 0-1.195-1.659c-.447-.935-1.174-1.571-2.049-1.665-1.63-.175-3.149 1.599-3.397 3.964m49.454-37.15c-1.074.214-1.58 2.291-1.128 4.641.172.901.458 1.706.808 2.351.192 1.243.815 2.242 1.795 2.659 1.825.783 4.209-.734 5.32-3.384 1.111-2.653.532-5.437-1.297-6.222-1.191-.511-2.622-.039-3.778 1.085-.523-.796-1.148-1.242-1.72-1.13" data-paper-data="{&quot;origPos&quot;:null}"/><path fill="#b71723" d="M57.638 49.203s4.368.373 6.294 3.395c-4.519 1.947-5.93 8.258-8.894 9.347-2.135.78-9.056-1.871-10.566-2.47 1.544 6.079.519 12.939.674 18.909.009.335.023.67.043 1.005 3.865 5.756 8.972 29.911 8.972 29.911s-22.281 8.708-44.562 0c0 0 3.705-22.94 8.367-29.887l.015-1.025c.112-5.4-1.014-11.191.225-16.961-.232.463-.603 1.057-1.219 1.934-1.688 2.416-2.97 12.63-2.97 12.63s-4.845.985-6.992-.999c2.834-2.23 4.461-14.19 7.287-17.84 1.771-2.288 8.16-5.672 8.16-5.672v.006c2.043-1.308 7.279-1.538 7.279-1.538l1.742.074h.147l1.74-.057s5.347.195 7.344 1.535c-.006-.014-.013-.02-.013-.02l11.555 4.245 5.372-6.522"/><path fill="#f08314" d="M46.629 82.2a54.877 54.877 0 0 1-30.113-.081c.37-1.549.886-3.313 1.474-4.495a50.242 50.242 0 0 0 27.142.086c.471.898 1.184 3.181 1.497 4.49m7.234 25.736c.192.865.298 1.364.298 1.364s-22.281 8.707-44.56 0c0 0 .084-.505.234-1.39a68.155 68.155 0 0 0 44.028.026"/><path fill="#f08314" d="M53.639 106.929a71.765 71.765 0 0 1-43.624-.035l.074-.389a71.39 71.39 0 0 0 43.466.034l.083.39M14.018 75.99s-4.846.986-6.992-.998c.25-.204.47-.443.653-.708 2.003 1.186 4.934 1.015 6.458.815-.08.562-.119.892-.119.892m43.62-26.788s4.368.373 6.294 3.395a7.44 7.44 0 0 0-1.117.605c-1.254-2.069-4.353-2.86-5.897-3.13l.72-.87m-17.769 2.71c0 3.258-2.591 5.948-5.818 5.948h-5.133c-3.227 0-5.885-2.69-5.885-5.948v-.737c2.34-1.029 6.704-1.221 6.704-1.221l1.757.087h.145l1.727-.072s4.163.149 6.503 1.103v.84"/><path fill="#9c6f3f" d="M39.251 51.913c0 2.902-2.33 5.255-5.2 5.255h-5.134c-2.872 0-5.2-2.353-5.2-5.255v-.986c2.395-.812 6.033-.972 6.033-.972l1.744.087h.147l1.74-.072s3.477.122 5.87.874v1.069" data-paper-data="{&quot;origPos&quot;:null}"/><path fill="#9c6f3f" d="M29.778 51.505c-1.055 0-1.908-2.24-1.908-3.308h7.51c0 1.068-.853 3.308-1.908 3.308h-3.694" data-paper-data="{&quot;origPos&quot;:null}"/><path fill="#eeac6c" d="M28.677 50.686a5.554 5.554 0 0 1-.79-2.214 22.618 22.618 0 0 0 7.478-.026l-.01.01-6.679 2.23"/></g></svg>