<svg xmlns="http://www.w3.org/2000/svg" width="110.967" height="116.887"><g fill-rule="evenodd" stroke-miterlimit="10" data-paper-data="{&quot;isPaintingLayer&quot;:true}" style="mix-blend-mode:normal"><path fill="#333433" d="M20.906 47.355c8.193 12.66 19.122 2.095 15.403-9.097-2.7-8.126 11.948 2.642 11.948 2.642s-8.575 23.552-16.015 23.904c-7.442.351-11.36-11.175-11.335-17.45" data-paper-data="{&quot;origPos&quot;:null}"/><path fill="#be9868" d="M49.614 110.973v-11.57H59.72l-.458 11.57h-.01c1.808 1.116 3.124 3.388 1.574 5.235-1.168 1.307-2.89.274-4.199-.275-1.445-.683-3.1-1.163-4.405-2.055-.848-.589-1.84-1.23-2.41-2.106-.178-.272-.26-.546-.197-.8m-10.954.001h-.005l-.46-11.57H48.3v11.57h-.002c.064.261-.02.527-.194.799-.572.876-1.566 1.517-2.409 2.106-1.31.892-2.96 1.372-4.407 2.055-1.31.549-3.03 1.582-4.199.275-1.55-1.847-.236-4.121 1.57-5.235" data-paper-data="{&quot;origPos&quot;:null}"/><path fill="#333433" d="m59.234 111.006.024-.008v.008h-.006c1.81 1.149 3.118 3.399 1.57 5.248-1.17 1.303-2.889.279-4.199-.27-1.447-.686-3.097-1.166-4.407-2.055-.843-.59-1.837-1.239-2.41-2.115-.176-.272-.257-.553-.195-.808v-1.72s.116-.176.516 0c.798.347 1.325 1.917 3.027 1.72 4.205-1.166 6.08 0 6.08 0m-20.562 0-.02-.008v.008h.007c-1.806 1.149-3.12 3.399-1.574 5.248 1.17 1.303 2.89.279 4.2-.27 1.448-.686 3.098-1.166 4.408-2.055.843-.59 1.837-1.239 2.407-2.115.178-.272.26-.553.198-.808v-1.72s-.116-.176-.519 0c-.795.347-1.322 1.917-3.022 1.72-4.21-1.166-6.085 0-6.085 0"/><path fill="#be9868" d="M24.964 77.512c.108-1.014.45-1.92.934-2.619l-.007.069s1.444-14.411 5.206-19.2c1.723-2.197 7.676-5.379 8.371-5.748 1.314-.947 4.28-1.375 6.124-1.547l6.801-.017c1.811.178 4.81.604 6.17 1.547 0 0 2.36.845 3.148 1.125 2.955.936 5.875 1.978 8.754 3.125l5.644-6.603v.003a4.44 4.44 0 0 1-.213-.851 8.438 8.438 0 0 1-.838-2.394c-.467-2.398.053-4.517 1.168-4.731.593-.116 1.236.336 1.776 1.15 1.198-1.146 2.676-1.624 3.91-1.103 1.89.795 2.49 3.634 1.343 6.336-.74 1.736-2.018 2.994-3.338 3.461 0 0-3.52 9.956-6.587 11.064-2.48.893-11.54-2.73-11.54-2.73v-.015c1.702 10.345-.079 26.138-.079 26.138H36.2s-1.525-14.338-.162-24.643v.007c-.198.546-1.3 1.52-2.174 2.751-1.747 2.46-3.384 12.866-3.384 12.866.04.07.078.144.114.216.443.431.876 1.012 1.237 1.689.95 1.78 1.045 3.576.222 4.011-.443.238-1.059.033-1.685-.48-.668 1.19-1.718 1.92-2.817 1.807-1.684-.178-2.842-2.274-2.586-4.684" data-paper-data="{&quot;origPos&quot;:null}"/><path fill="#333433" d="M31.096 55.761c1.725-2.195 7.676-5.379 8.373-5.747 1.312-.948 4.28-1.383 6.122-1.554l6.801-.017c1.811.176 4.812.608 6.171 1.551l3.147 1.125c2.956.936 5.876 1.98 8.756 3.127l5.623-6.579 4.078 1.749-.25.098s-3.518 9.956-6.586 11.064c-2.469.891-11.449-2.694-11.54-2.728.805 4.884.83 10.98.63 16.056l-26.862.36c-.166-4.645-.146-10.208.48-14.929-.203.549-1.304 1.52-2.177 2.75-1.484 2.09-2.887 9.92-3.276 12.224h-4.624c.33-2.856 1.846-14.367 5.133-18.55"/><path fill="#be9868" d="M50.881 49.945h-3.79c-1.082 0-1.96-2.316-1.96-3.375h7.711c0 1.059-.877 3.375-1.96 3.375" data-paper-data="{&quot;origPos&quot;:null}"/><path fill="#eeac6c" d="M45.956 49.088a5.62 5.62 0 0 1-.81-2.24c2.544.413 5.139.404 7.68-.028l-.014.013-6.855 2.255"/><path fill="#6a833c" d="M35.272 59.486c.027-.123.103-.202.17-.341.053.053.316-.124.44-.212 1.153-.789 3.745-3.57 3.764-9.669l.01-.01c1.14-.72 3.27-1.11 4.938-1.314 0 0 .311 11.177 4.31 11.166 3.988-.008 4.225-11.164 4.225-11.164 1.507.176 3.374.504 4.547 1.09.14.072.26.127.38.209 0 0 .01.199.035.533.146 1.742.834 7.168 3.757 7.406 1.94 7.534 1.26 19.046.79 24.405-.164 1.828-.495 2.931-.495 2.931s-2.192 9.75-2.426 14.906H49.614c.04-1.305-.512-7.502-.512-7.502h-.288s-.575 5.807-.512 7.502H38.197c-.273-4.371-2.584-14.906-2.584-14.906s-.36-1.112-.56-2.933c-.539-4.886-1.317-14.855.22-22.097"/><path fill="#eeeeed" d="M57.018 48.755c-.552 3.105 2.624 9.923 5.25 10.322a29.33 29.33 0 0 0-.419-1.897c-2.923-.24-3.613-5.663-3.757-7.405-.028-.337-.036-.534-.036-.534-.12-.084-.24-.138-.38-.208a5.998 5.998 0 0 0-.658-.278M35.11 60.316c2.71.348 6.318-8.16 5.69-11.586-.4.13-.784.306-1.144.523l-.009.013c-.017 6.096-2.609 8.878-3.765 9.666-.124.09-.386.268-.44.213-.067.14-.142.22-.17.34-.056.274-.11.551-.16.831m13.808.199c-4.126.013-5.113-9.099-5.332-12.434.346-.055.684-.102 1.007-.14 0 0 .311 11.176 4.31 11.166 3.99-.008 4.224-11.164 4.224-11.164.324.039.674.084 1.024.137-.198 3.33-1.116 12.427-5.233 12.435"/><path fill="#be9868" d="M26.42 27.629a22.875 22.875 0 0 1-.258-3.434c0-12.61 10.262-22.835 22.922-22.835s22.92 10.226 22.92 22.835c0 1.114-.079 2.207-.234 3.278 1.323.722 2.214 2.083 2.214 3.647 0 2.317-1.956 4.194-4.375 4.194-.164 0-.325-.01-.484-.026a22.923 22.923 0 0 1-20.04 11.743A22.92 22.92 0 0 1 29.057 35.31c-.073.002-.14.004-.209.004-2.417 0-4.375-1.877-4.375-4.194 0-1.457.772-2.736 1.947-3.49" data-paper-data="{&quot;origPos&quot;:null}"/><path fill="#333433" d="M44.413 21.418s-.503 1.803-2.082 1.446c-.772-.174-.908-1.201-3.386-.74-.779.18-2.417 1.156-2.732 1.808-.316.652-.088-2.392 2.457-3.522 1.835-.675 2.457-.642 3.977-.642s1.987.907 1.766 1.65m9.741 0s.503 1.803 2.082 1.446c.772-.174.908-1.201 3.386-.74.78.18 2.417 1.156 2.732 1.808.316.652.087-2.392-2.457-3.522-1.835-.675-2.457-.642-3.977-.642s-1.987.907-1.766 1.65" data-paper-data="{&quot;origPos&quot;:null}"/><path fill="#6172bb" d="M42.102 28.768c0 1.657-.895 3-2 3s-2-1.343-2-3 .895-3 2-3 2 1.343 2 3m18 0c0 1.657-.895 3-2 3s-2-1.343-2-3 .895-3 2-3 2 1.343 2 3"/><path fill="#eeac6c" d="M49.122 31.837c-1.125.153-3.02 1.834-3.02 1.834s.207-1.009.503-1.299c.8-1.156 2.487-1.604 2.487-1.604s2.173.703 2.65 1.588c.443.824.34 1.238.34 1.238s-2.12-1.871-2.96-1.756zM42.302 35.464s6.897 3.208 13.172-.397c0 0-1.39 5.47-5.95 5.561-4.115.122-4.984-1.492-5.477-1.956-.492-.463-1.42-1.772-1.745-3.208"/><path fill="#fff" d="M57.8 29.243c0-1.417.851-2.563 1.901-2.563s1.902 1.146 1.902 2.563c0 1.414-.852 2.563-1.902 2.563-1.049 0-1.9-1.149-1.9-2.563m-20.435 0c0-1.417.851-2.563 1.901-2.563 1.052 0 1.904 1.146 1.904 2.563 0 1.414-.852 2.563-1.904 2.563-1.049 0-1.9-1.149-1.9-2.563"/><path fill="#ad6920" d="M58.524 29.95c0-.876.527-1.585 1.177-1.585.652 0 1.177.709 1.177 1.585s-.525 1.586-1.177 1.586c-.65 0-1.177-.709-1.177-1.586m-20.434 0c0-.876.527-1.585 1.177-1.585.652 0 1.18.709 1.18 1.585s-.528 1.586-1.18 1.586c-.65 0-1.177-.709-1.177-1.586"/><path fill="#333433" d="M72.818 21.445c.035 2.669-1.157 6.38-1.157 6.38s-6.057-7.142-9.75-9.144c-4.519-2.449-6.767 1.158-10.804-2.016-.669-.53-1.915-1.92-1.915-1.92s-1.516 1.526-1.92 1.92c-4.537 4.423-7.939-.741-11.762 1.931-4.859 3.405-8.97 9.066-8.97 9.066s-1.412-1.611-1.216-6.467c.055-1.399.74-4.502 1.845-7.656C31.185 5.513 39.503 0 49.113 0c11.034 0 20.37 7.275 23.432 17.271.155 1.387.246 2.78.273 4.175" data-paper-data="{&quot;origPos&quot;:null}"/><path fill="#343434" d="m73.624 25.595-8.776 1.335c.394 1.393 1.137 4.952-.193 6.735-2.072 2.769-11.708-.93-13.856-3.638-.773-.965-.812-3.107-1.7-3.105-.89.002-.919 2.151-1.686 3.118-2.15 2.706-11.789 6.377-13.859 3.612-1.334-1.785-.585-5.327-.194-6.72l-9.06-1.337h49.322z"/><path fill="#515151" d="M36.946 28.056a.588.588 0 0 1-.179.821l-2.075 1.333a.595.595 0 0 1-.824-.178l-.005-.004a.596.596 0 0 1 .18-.823l2.075-1.33a.6.6 0 0 1 .826.175zm-.85 2.913a.666.666 0 0 1-1.332 0 .666.666 0 0 1 1.331 0"/><path fill="#0771b7" d="m73.624 25.572-8.776 1.348c.004.022.04.082.017.077-5.97-1.232-15.504 0-15.504 0a.5.5 0 0 0-.527 0s-8.909-1.401-15.494 0c-.02.005.014-.053.02-.075l-9.062-1.35z"/><path fill="#c6c5c6" d="m81.31 39.062 1.452 1.976-59.486 43.361-1.45-1.978z"/><path fill="#ef8214" d="M82.762 41.039c-.568-.233-1.47-1.367-1.452-1.978 7.163-7.352 8.322-16.281 14.805-18.572 6.481-2.282 14.321-1.253 14.827 3.182.606 5.345-10.144 13.333-15.16 15.326-3.059 1.213-7.29-.246-13.02 2.042"/><path fill="#cb6f1a" d="m84.416 39.589-1.1-1.496c7.202-5.25 22.837-15.041 22.837-15.041S91.94 34.585 84.416 39.588z"/><path fill="#f3ab6c" d="m84.416 39.588-.52-.709 22.257-15.827S91.94 34.585 84.416 39.589"/><path fill="#cb6f1a" d="m22.228 83.195-.51-.697 4.022-2.931.51.694z"/><path fill="#ef8214" d="M27.23 81.542c-4.185 4.395-4.693 8.001-6.924 10.348-3.65 3.848-14.527 11.665-18.66 10.555-3.43-.921-1.11-7.414 3.37-12.415 4.485-5.01 12.27-4.922 21.18-9.896.508.058 1.071.919 1.033 1.408"/><path fill="#cb6f1a" d="M25.351 82.737C18.218 88.277 3.047 98.5 3.047 98.5S17.381 86.91 24.57 81.67l.78 1.067z"/><path fill="#f3ab6c" d="M25.352 82.737C18.218 88.276 3.047 98.5 3.047 98.5l21.934-16.269.37.506"/><path fill="#ef8214" d="M80.376 42.778c.258.514.344.909.198 1.016-.15.107-.5-.092-.914-.495zm-1.456-1.975-.71.518c-.249-.503-.333-.891-.186-.998.146-.105.494.09.896.48"/><path fill="#ef8214" d="M79.66 43.299a7.57 7.57 0 0 1-.796-.923 7.337 7.337 0 0 1-.654-1.055l.35-.334c.184.317.418.737.691 1.108.267.364.583.733.841.973zM30.276 79.297c.256.512.347.906.198 1.015-.15.105-.503-.096-.914-.497zm-1.454-1.976-.71.517c-.248-.504-.334-.892-.188-1 .146-.106.492.093.9.483"/><path fill="#ef8214" d="M29.56 79.816a6.957 6.957 0 0 1-.793-.926 7.355 7.355 0 0 1-.657-1.052l.351-.337c.185.32.415.742.688 1.11.27.362.585.733.844.975z"/><path fill="#be9868" d="M75.011 44.161c-.342-2.264.235-4.228 1.287-4.384 1.051-.156 2.178 1.554 2.518 3.818.34 2.27-.238 4.23-1.288 4.386-1.05.157-2.179-1.553-2.516-3.82M29.125 78.575c-.978-1.901-1.058-3.803-.176-4.253l.888-.01c.815.29 1.781 1.275 2.478 2.63.98 1.898 1.061 3.805.18 4.258-.883.45-2.39-.725-3.37-2.625" data-paper-data="{&quot;origPos&quot;:null}"/></g></svg>