<svg xmlns="http://www.w3.org/2000/svg" width="65.467" height="116.557"><g fill-rule="evenodd" stroke-miterlimit="10" data-paper-data="{&quot;isPaintingLayer&quot;:true}" style="mix-blend-mode:normal"><path fill="#333433" d="M42.86 110.973c-.063.245.016.554.186.812.536.821 1.47 1.483 2.265 2.04 1.227.83 2.781 1.264 4.144 1.907 1.23.515 2.845 1.445 3.944.22 1.458-1.736.224-3.934-1.476-4.979zm-10.309 0h9.073c.061.245-.02.554-.184.812-.538.821-1.475 1.483-2.265 2.04-1.232.83-2.789 1.264-4.15 1.907-1.23.515-2.854 1.445-3.95.22-1.452-1.736-.225-3.934 1.477-4.979z"/><path fill="#565657" d="m53.962 86.428-1.843 24.61h-9.388l-.348-17.804h-.278l-.36 17.804h-9.378l-1.86-24.61z"/><path fill="#864e1a" d="m60.717 111.573.437.83-.374-.157-.22.22-.208-.227-.27.227-.307-.219-.363.07.643-.744z"/><path fill="#c87d36" d="M62.358 109.926a1.9 1.9 0 0 1-1.905 1.892h-.013a1.9 1.9 0 0 1-1.912-1.892v-7.133c0-1.047.853-1.9 1.912-1.9h.013c1.047 0 1.905.853 1.905 1.9z"/><path fill="#c87d36" d="M62.17 99.371c0 1.05-.85 1.89-1.906 1.89h-.01a1.888 1.888 0 0 1-1.902-1.89v-7.137a1.89 1.89 0 0 1 1.9-1.892h.012c1.055 0 1.905.845 1.905 1.892z"/><path fill="#864e1a" d="m60.055 80.344-.643-.76.363.062.307-.227.27.227.208-.227.22.227.374-.148-.437.846z"/><path fill="#c87d36" d="M62.358 89.12a1.906 1.906 0 0 1-1.905 1.9h-.013a1.904 1.904 0 0 1-1.912-1.9v-7.13a1.899 1.899 0 0 1 1.912-1.894h.013a1.9 1.9 0 0 1 1.905 1.893z"/><path fill="#a06f41" d="M58.832 60.531c3.456 4.4 4.774 17.62 4.774 17.62v-.058c.445.637.76 1.467.862 2.396.23 2.211-.829 4.134-2.378 4.294-1.007.116-1.977-.558-2.592-1.65-.576.468-1.135.658-1.544.441-.757-.402-.674-2.048.2-3.679a6.412 6.412 0 0 1 1.132-1.55c.038-.073.065-.136.107-.203 0 0-1.5-9.54-3.107-11.8-.804-1.13-1.328-1.77-1.514-2.274-.14-.4-.299-1.165-.367-1.458-.525-2.269-3.337-7.38-3.337-7.38s6.074 3.16 7.764 5.302m-46.726-14.72c1.13-.476 2.49-.04 3.59 1.012.5-.742 1.09-1.157 1.636-1.053 1.02.196 1.505 2.14 1.072 4.338-.163.84-.436 1.597-.77 2.198a3.385 3.385 0 0 1-.2.78l5.201 6.058 11.001-3.916s-1.868 2.95-2.335 4.027c-.332.782-.99 3.266-.99 3.266s-8.032 3.256-10.318 2.426c-2.822-1.012-6.052-10.147-6.052-10.147-1.22-.43-2.393-1.583-3.073-3.178-1.047-2.476-.497-5.074 1.237-5.81" data-paper-data="{&quot;origPos&quot;:null}"/><path fill="#9b1826" d="M58.985 77.7s-1.21-9.115-2.823-11.37c-.08-.122-.159-.227-.236-.339 1.57 9.242 1.377 20.427 1.377 20.427v2.134H27.29v-2.124s-.299-13.985 1.91-23.476c-.563.255-7.113 2.832-9.296 2.042-2.819-1.017-6.98-9.699-6.98-9.699l4.505-2.208 5.226 6.047 9.976-3.877c1.98-1.283 7.944-1.494 7.944-1.494l1.648.055h.145l1.654-.055s5.95.19 7.924 1.465c.802.438 5.237 2.924 6.767 4.862 3.457 4.398 4.967 17.62 4.967 17.62l-4.694-.01"/><path fill="#864e1a" d="M16.095 56.084c-2.898-1.958-2.616-13.67-2.616-13.67l1.952-.372 2.623 13.67c-.239.435-1.545.65-1.959.372"/><path fill="#eeeeed" d="M10.978 26.792c.184-.27.253-.602.19-.923a1.242 1.242 0 0 0-1.443-.98 1.24 1.24 0 0 0-.988 1.44 1.236 1.236 0 0 0 1.451.978c.322-.06.606-.244.79-.515zm1.243-4.27 3.987 20.83-10.653 2.761C.856 43.61-1.709 28.22 1.288 23.847z"/><path fill="#d0d0d0" d="M3.068 23.632c-1.847 6.348.004 16.8 3.658 22.18l-1.17.3c-4.7-2.5-7.264-17.89-4.268-22.266z"/><path fill="#a06f41" d="M18.466 49.571c-.31 2.1-1.357 3.69-2.33 3.538-.976-.145-1.518-1.962-1.2-4.058.31-2.1 1.361-3.688 2.345-3.548.972.153 1.503 1.967 1.185 4.068" data-paper-data="{&quot;origPos&quot;:null}"/><path fill="#eeeeed" stroke="#eeeeed" stroke-width=".5" d="M56.446 69.747c.756 6.314.892 15.374.892 15.374v12.032H27.276V86.185c0-1.439-.076-9.07.794-16.492 1.915-.33 5.922-1.307 6.982-3.715V54.401a30.192 30.192 0 0 1 2.345-.383v9.567H47.46v-9.54c.79.094 1.574.23 2.35.404v11.53c.96 2.687 4.834 3.518 6.637 3.768" data-paper-data="{&quot;origPos&quot;:null}"/><path fill="#d0d0d0" d="M27.276 85.617h30.062v.794H27.276v-.227z"/><path fill="#a06f41" d="m42.448 57.743 3.59-3.84c-1.066-.11-1.859-.14-1.859-.14l-1.652.06h-.14l-1.655-.089s-.86.043-2.014.18l3.731 3.83zm21.19-23.259c1.101.707 1.83 1.902 1.83 3.27 0 2.174-1.849 3.93-4.113 3.93h-.196a21.54 21.54 0 0 1-18.82 10.99 21.527 21.527 0 0 1-18.814-11.012 4.698 4.698 0 0 1-.46.023c-2.27 0-4.112-1.757-4.112-3.93 0-1.468.841-2.739 2.08-3.415a22.31 22.31 0 0 1-.219-3.077c0-11.824 9.638-21.404 21.524-21.404 11.901 0 21.538 9.581 21.538 21.404a22.26 22.26 0 0 1-.238 3.222" data-paper-data="{&quot;origPos&quot;:null}"/><path fill="#333433" d="M64.736 28.478c.03 2.51-.854 7.952-2.579 11.197 0 0-4.236-11.918-7.72-13.806-4.27-2.305-15.504 1.022-19.32-1.97-.629-.495-.562-1.622-.562-1.622s-.723 1.431-1.072 1.837c-1.85 2.088-6.638 5.116-8.915 6.732-1.824 1.31-1.912 1.294-1.504 8.828 0 0-3.364-6.857-3.178-11.43.058-1.32.703-4.25 1.75-7.223A23.122 23.122 0 0 1 42.35 8.271c10.421 0 19.235 6.85 22.122 16.27.15 1.307.238 2.621.264 3.937"/><path fill="#a06f41" d="M40.666 55.131c-1.008 0-1.82-2.15-1.82-3.13h7.16c0 .98-.816 3.13-1.817 3.13h-3.524" data-paper-data="{&quot;origPos&quot;:null}"/><path fill="#eeac6c" d="M39.62 54.47c-.404-.614-.695-1.465-.758-2.08 2.363.385 4.773.378 7.133-.022l-.016.013-6.358 2.088"/><path fill="#eeeeed" d="M28.391 17.56S29.623 5.22 32.956 3.69l1.207.495s1.882-2.947 3.235-4.05c1.36-1.108 10.99 4.908 10.99 4.908l1.133-.743c3.37 1.115 4.913 13.26 4.913 13.26S43.14 19.87 39.32 19.763c-2.787-.07-10.928-2.203-10.928-2.203"/><path fill="#b7b7b6" d="m49.541 4.33-8.928 5.528L49.5 4.276z"/><path fill="#b7b7b6" d="m43.191 8.241-10.25-4.524.03-.053 10.285 4.541z"/><path fill="#6cc5d8" d="M47.391 13.63c.213 1.08-2.2 2.447-5.377 3.04-3.18.596-5.915.21-6.126-.87-.208-1.084 2.208-2.443 5.383-3.042 3.182-.596 5.914-.206 6.12.871"/><path fill="#fff" d="M45.31 15.564c.21.092.341.272.28.417-.053.137-.279.175-.5.082a.523.523 0 0 1-.269-.239c-.387.012-.974.13-.974.13l-.42-.028-.065-.526.484-.07s.557.064.952.034a.49.49 0 0 1 .291-.297c.222-.087.448-.049.502.087.06.134-.072.32-.28.41"/><path fill="#ad6921" d="M38.506 12.148c3.802 0 4.108 3.182 5.34 3.182l-.275.153.276.163-.276.137.276.172c-.668-.06-1.666 1.63-5.34 1.63z"/><path fill="#fddfbb" d="M39.766 14.87c0 1.501-.574 2.717-1.275 2.717-.704 0-1.27-1.216-1.27-2.718 0-1.503.566-2.72 1.27-2.72.7 0 1.275 1.217 1.275 2.72"/><path fill="#c12636" d="M39.644 14.87c0 1.364-.518 2.468-1.154 2.468-.64 0-1.156-1.104-1.156-2.469 0-1.368.517-2.474 1.156-2.474.636 0 1.154 1.106 1.154 2.474"/><path fill="#fddfbb" d="M38.704 14.87c0 .252-.094.46-.212.46-.119 0-.222-.208-.222-.46 0-.256.103-.46.222-.46.118 0 .212.204.212.46"/><path fill="#343434" d="M38.598 14.87c0 .127-.046.24-.108.24-.065 0-.116-.113-.116-.24 0-.13.051-.243.116-.243.062 0 .108.113.108.242"/><path fill="#333433" d="M37.622 28.741s-.503 1.803-2.082 1.446c-.772-.174-.908-1.2-3.386-.74-.779.18-2.417 1.156-2.732 1.808-.316.652-.088-2.392 2.457-3.522 1.835-.675 2.457-.642 3.977-.642s1.987.907 1.766 1.65m9.741 0s.503 1.803 2.082 1.446c.772-.174.908-1.2 3.386-.74.78.18 2.417 1.156 2.732 1.808.316.652.087-2.392-2.457-3.522-1.835-.675-2.457-.642-3.977-.642s-1.987.907-1.766 1.65m-12.052 7.35c0 1.657-.895 3-2 3s-2-1.343-2-3 .895-3 2-3 2 1.343 2 3m18 0c0 1.657-.895 3-2 3s-2-1.343-2-3 .895-3 2-3 2 1.343 2 3"/><path fill="#eeac6c" d="M42.331 39.16c-1.125.153-3.02 1.834-3.02 1.834s.207-1.009.503-1.299c.8-1.156 2.487-1.604 2.487-1.604s2.173.703 2.65 1.588c.443.824.34 1.238.34 1.238s-2.12-1.87-2.96-1.756z"/><path fill="#8b323b" d="M35.511 42.787s6.897 3.208 13.172-.397c0 0-1.39 5.47-5.95 5.561-4.115.122-4.984-1.492-5.477-1.956-.492-.463-1.42-1.772-1.745-3.208" data-paper-data="{&quot;origPos&quot;:null}"/></g></svg>