<svg xmlns="http://www.w3.org/2000/svg" width="480" height="360"><g fill="none" fill-rule="evenodd"><path fill="#BAF4FF" d="M0 348h479.657V-5H0z"/><path fill="#FFE300" d="M393.258 63.531c0 11.464-9.286 20.758-20.743 20.758-11.456 0-20.743-9.294-20.743-20.758 0-11.464 9.287-20.758 20.743-20.758 11.457 0 20.743 9.294 20.743 20.758m5.055.305c0-.707.573-1.28 1.278-1.28h4.766a1.278 1.278 0 0 1 0 2.558h-4.766a1.278 1.278 0 0 1-1.278-1.278"/><path fill="#FFF" d="M141.243 99.42a6.105 6.105 0 0 1-6.103 6.107H64.067a6.105 6.105 0 0 1-6.102-6.106 6.104 6.104 0 0 1 6.102-6.107h71.073a6.104 6.104 0 0 1 6.103 6.107"/><path fill="#FFF" d="M107.665 107.737a4.2 4.2 0 0 1-4.198 4.201h-51.75a4.2 4.2 0 0 1-4.198-4.2 4.2 4.2 0 0 1 4.198-4.202h51.75a4.2 4.2 0 0 1 4.198 4.201m8.085-70.845a3.748 3.748 0 0 1-3.748 3.75H51.245a3.748 3.748 0 0 1-3.748-3.75 3.749 3.749 0 0 1 3.748-3.75h60.757a3.748 3.748 0 0 1 3.748 3.75"/><path fill="#FFF" d="M77.594 30.836A2.764 2.764 0 0 1 74.83 33.6H30.02a2.764 2.764 0 0 1-2.763-2.765 2.764 2.764 0 0 1 2.763-2.766h44.81a2.764 2.764 0 0 1 2.764 2.766"/><path fill="#013D3D" d="M275.902 237.77h110.44l3.217-132.036z"/><path fill="#114E4F" d="M479.657 211.544 388.7 105.615l-.102.119-3.21 132.036h94.27z"/><path fill="#C9EBFC" d="M354.287 146.477s2.82 7.1 14.868 1.093c0 0 3.991 12.306 19.2 7.548l1.204-49.385-35.272 40.744z"/><path fill="#FFF" d="m389.661 105.615-.102.118-1.204 49.385c1.592-.498 3.306-1.182 5.152-2.088 0 0 9.74 4.916 16.917-3.003 0 0 8.289 4.369 14.013-4.005l-34.776-40.407z"/><path fill="#114E4F" d="m.86 193.795 64.426-75.028-16.738 105.51H.86v-30.482zm64.83-75.312 91.068 105.793H48.666l16.78-105.51.244-.283z"/><path fill="#C9EBFC" d="M37.372 151.194s2.257 5.683 11.902.874c0 0 2.176 6.706 9.776 6.913l6.396-40.216-28.074 32.429z"/><path fill="#FFF" d="m65.69 118.483-.244.282-6.396 40.216c2.575.07 5.771-.605 9.718-2.541 0 0 7.798 3.935 13.543-2.405 0 0 6.635 3.498 11.218-3.206l-27.84-32.346z"/><path fill="#013D3D" d="m206.223 87.1.34-.395L346.44 249.2H182.092l24.131-162.1-24.13 162.1H66.686L206.223 87.1z"/><path fill="#C9EBFC" d="M163.068 136.948s3.467 8.73 18.28 1.343c0 0 3.469 10.684 15.673 10.624l9.203-61.818-43.156 49.85z"/><path fill="#FFF" d="m206.563 86.705-.34.392-9.202 61.818c3.839-.019 8.539-1.098 14.27-3.91 0 0 11.977 6.044 20.802-3.693 0 0 10.191 5.373 17.23-4.924l-42.76-49.683z"/><path fill="#114E4F" d="m301.595 137.709.059-.066 113.76 126.137H187.893l113.7-126.071z"/><path fill="#C9EBFC" d="M266.28 176.645s2.82 6.776 14.867 1.042c0 0 3.517 10.343 16.522 7.862l3.926-47.84-35.316 38.936z"/><path fill="#FFF" d="m301.654 137.643-.06.065-3.925 47.841c2.302-.44 4.9-1.277 7.83-2.65 0 0 9.74 4.692 16.918-2.866 0 0 8.288 4.17 14.013-3.823l-34.776-38.567z"/><path fill="#E1DC52" d="M0 310.86V215.7s194.885-11.265 352.402 96.497L0 310.86z"/><path fill="#825E42" d="M17.381 225.668h3.384v-14.192H17.38z"/><path fill="#7DA619" d="M19.073 187.862 5.698 216.055h26.75z"/><path fill="#7DA619" d="m19.073 172.3-9.007 28.194H28.08z"/><path fill="#825E42" d="M52.7 225.641h1.897v-7.958H52.7z"/><path fill="#7DA619" d="m53.648 204.44-7.5 15.81H61.15z"/><path fill="#7DA619" d="m53.648 195.712-5.051 15.811H58.7z"/><path fill="#825E42" d="M65.367 224.064h1.486v-6.232h-1.486z"/><path fill="#7DA619" d="m66.11 207.46-5.874 12.383h11.748z"/><path fill="#7DA619" d="m66.11 200.626-3.956 12.382h7.912z"/><path fill="#825E42" d="M32.157 257.157h5.068V235.9h-5.068z"/><path fill="#7DA619" d="m34.69 200.527-20.034 42.232h40.07z"/><path fill="#7DA619" d="M34.69 177.216 21.199 219.45h26.985z"/><path fill="#825E42" d="M169.73 238.686h1.535v-6.436h-1.534z"/><path fill="#7DA619" d="m170.498 221.54-6.066 12.787h12.132z"/><path fill="#7DA619" d="m170.498 214.482-4.085 12.787h8.17z"/><path fill="#825E42" d="M203.357 249.877h1.898v-7.959h-1.898z"/><path fill="#7DA619" d="m204.306 228.675-7.501 15.811h15.002z"/><path fill="#7DA619" d="m204.306 219.947-5.052 15.812h10.104z"/><path fill="#825E42" d="M216.024 248.3h1.486v-6.233h-1.486z"/><path fill="#7DA619" d="m216.767 231.695-5.874 12.383h11.749z"/><path fill="#7DA619" d="m216.767 224.861-3.956 12.383h7.913z"/><path fill="#825E42" d="M187.235 250.26h3.052v-12.8h-3.052z"/><path fill="#7DA619" d="M188.761 216.163 176.7 241.591h24.125z"/><path fill="#7DA619" d="m188.761 202.129-8.123 25.427h16.247z"/><path fill="#E1DC52" d="M479.657 310.946v-89.05s-194.884-10.542-352.401 90.301l352.401-1.25z"/><path fill="#825E42" d="M467.298 225.201h2.279v-9.557h-2.279z"/><path fill="#7DA619" d="m468.438 199.74-9.008 18.988h18.015z"/><path fill="#7DA619" d="m468.438 189.26-6.066 18.988h12.132z"/><path fill="#825E42" d="M410.947 227.25h1.898v-7.958h-1.898z"/><path fill="#7DA619" d="m411.896 206.049-7.501 15.811h15.002z"/><path fill="#7DA619" d="m411.896 197.322-5.051 15.811h10.103z"/><path fill="#825E42" d="M423.615 225.674h1.485v-6.232h-1.485z"/><path fill="#7DA619" d="m424.358 209.07-5.875 12.382h11.749z"/><path fill="#7DA619" d="m424.358 202.235-3.957 12.383h7.913z"/><path fill="#825E42" d="M445.09 249.581h4.304v-18.048h-4.303z"/><path fill="#7DA619" d="m447.243 201.499-17.011 35.858h34.022z"/><path fill="#7DA619" d="m447.243 181.707-11.457 35.858H458.7z"/><path fill="#825E42" d="M270.084 251.279h1.534v-6.436h-1.534z"/><path fill="#7DA619" d="m270.851 234.132-6.066 12.787h12.132z"/><path fill="#7DA619" d="m270.851 227.074-4.085 12.787h8.17z"/><path fill="#825E42" d="M302.943 250.033h1.898v-7.959h-1.898z"/><path fill="#7DA619" d="m303.892 228.83-7.501 15.812h15.002z"/><path fill="#7DA619" d="m303.892 220.103-5.052 15.812h10.103z"/><path fill="#825E42" d="M317.011 242.772h1.487v-6.233h-1.487z"/><path fill="#7DA619" d="m317.755 226.168-5.875 12.382h11.75z"/><path fill="#7DA619" d="m317.755 219.333-3.957 12.382h7.913z"/><path fill="#C6C345" d="M443.749 310.86s-23.138-63.839-147.813-63.839c-124.674 0-175.727 65.176-175.727 65.176l323.54-1.337z"/><path fill="#949D38" d="M0 333.43h479.657v-23.053H0zm3.933-28.271L0 310.377h7.865zm7.865 0-3.933 5.218h7.865zm7.865 0-3.933 5.218h7.865z"/><path fill="#949D38" d="m27.528 301.318-3.933 9.06h7.865zm7.865 3.841-3.933 5.218h7.865zm7.865 0-3.933 5.218h7.865z"/><path fill="#949D38" d="m51.123 301.714-3.933 8.663h7.865zm7.865 3.445-3.933 5.218h7.865z"/><path fill="#949D38" d="m66.853 305.159-3.933 5.218h7.866zm7.865 0-3.932 5.218h7.865zm7.865-4.039-3.932 9.257h7.865zm7.865 4.039-3.932 5.218h7.865zm7.865 0-3.932 5.218h7.865zm7.865-3.643-3.932 8.861h7.865zm7.865 3.643-3.932 5.218h7.865zm7.865 0-3.932 5.218h7.865zm7.865-3.248-3.932 8.466h7.865zm7.866 3.248-3.933 5.218h7.865zm7.865-3.445-3.933 8.663h7.865zm7.865 3.445-3.933 5.218h7.865zm7.865 0-3.933 5.218h7.865zm7.865 0-3.933 5.218h7.865zm7.865-2.457-3.933 7.675h7.865zm7.865 2.457-3.933 5.218h7.865z"/><path fill="#949D38" d="m192.694 305.159-3.933 5.218h7.865zm7.865 0-3.933 5.218h7.865zm7.865 0-3.933 5.218h7.865z"/><path fill="#949D38" d="m216.289 305.159-3.933 5.218h7.865zm7.865 0-3.933 5.218h7.866z"/><path fill="#949D38" d="m232.02 302.488-3.934 7.89h7.866zm7.864 2.671-3.932 5.218h7.865z"/><path fill="#949D38" d="m247.75 305.159-3.934 5.218h7.866z"/><path fill="#949D38" d="m255.614 305.159-3.933 5.218h7.866zm7.866 0-3.933 5.218h7.865z"/><path fill="#949D38" d="m271.344 305.159-3.932 5.218h7.865zm7.866-2.827-3.933 8.045h7.865zm7.864 2.827-3.932 5.218h7.865zm7.866 0-3.933 5.218h7.865zm7.864 0-3.932 5.218h7.865zm7.866 0-3.933 5.218h7.865zm7.865-1.739-3.933 6.957h7.865zm7.865 1.739-3.933 5.218h7.865zm7.865-4.379-3.933 9.597h7.865zm7.865 4.379-3.933 5.218h7.865zm7.865 0-3.933 5.218h7.866z"/><path fill="#949D38" d="m357.86 305.159-3.933 5.218h7.866zm7.865-2.982-3.932 8.2h7.865z"/><path fill="#949D38" d="m373.59 305.159-3.932 5.218h7.865zm7.865 0-3.932 5.218h7.865zm7.865 0-3.932 5.218h7.865zm7.865 0-3.932 5.218h7.865zm7.865-4.279-3.932 9.497h7.865zm7.866 4.279-3.933 5.218h7.865z"/><path fill="#949D38" d="m420.78 305.159-3.932 5.218h7.865zm7.866-3.668-3.933 8.886h7.865zm7.864 3.668-3.932 5.218h7.865zm7.866 0-3.933 5.218h7.865zm7.864-5.045-3.932 10.263h7.866z"/><path fill="#949D38" d="m460.106 305.159-3.933 5.218h7.866z"/><path fill="#949D38" d="m467.97 305.159-3.932 5.218h7.866z"/><path fill="#949D38" d="m475.836 305.159-3.933 5.218h7.866z"/><path fill="#FFD698" d="M0 366.894h479.657v-41.515H0z"/><path fill="#FEC987" d="M142.542 338.068H48.21c-3.572 0-6.494-2.197-6.494-4.882 0-2.686 2.922-4.883 6.494-4.883h94.33c3.572 0 6.495 2.197 6.495 4.883 0 2.685-2.923 4.882-6.494 4.882m62.461 7.195h-47.85c-2.443 0-4.442-1.503-4.442-3.34 0-1.838 1.999-3.341 4.443-3.341h47.849c2.444 0 4.443 1.503 4.443 3.34 0 1.838-2 3.341-4.443 3.341m62.545-1.349H225.85c-1.457 0-2.649-.896-2.649-1.991 0-1.096 1.192-1.992 2.65-1.992h41.696c1.457 0 2.649.896 2.649 1.992 0 1.095-1.192 1.991-2.649 1.991m-124.322.964H78.202c-1.457 0-2.649-.896-2.649-1.992 0-1.095 1.192-1.991 2.649-1.991h65.023c1.457 0 2.649.896 2.649 1.991 0 1.096-1.192 1.992-2.649 1.992m-75.618 0H46.673c-1.457 0-2.649-.896-2.649-1.992 0-1.095 1.192-1.991 2.649-1.991h20.934c1.457 0 2.648.896 2.648 1.991 0 1.096-1.191 1.992-2.648 1.992m117.657-10.793H164.33c-1.457 0-2.649-.896-2.649-1.992 0-1.095 1.192-1.991 2.649-1.991h20.934c1.457 0 2.649.896 2.649 1.991 0 1.096-1.192 1.992-2.649 1.992m131.646-.964h-24.56a1.996 1.996 0 0 1-1.99-1.991c0-1.096.895-1.992 1.99-1.992h24.558c1.095 0 1.99.896 1.99 1.992a1.997 1.997 0 0 1-1.99 1.991m38.195 0h-29.942a1.997 1.997 0 0 1-1.99-1.991c0-1.096.896-1.992 1.99-1.992h29.942c1.094 0 1.99.896 1.99 1.992a1.997 1.997 0 0 1-1.99 1.991m75.217 9.829h-49.131c-1.457 0-2.65-.896-2.65-1.991 0-1.096 1.193-1.992 2.65-1.992h49.13c1.457 0 2.649.896 2.649 1.992 0 1.095-1.192 1.992-2.649 1.992m-154.484-6.939h-73.14c-2.444 0-4.443-1.503-4.443-3.34 0-1.838 1.999-3.341 4.443-3.341h73.14c2.444 0 4.443 1.503 4.443 3.34 0 1.838-1.999 3.341-4.443 3.341m156.956-1.542h-60.995a3.35 3.35 0 0 1-3.339-3.34 3.35 3.35 0 0 1 3.339-3.341h60.995a3.35 3.35 0 0 1 3.339 3.34 3.35 3.35 0 0 1-3.339 3.341m-69.213 10.793h-75.003c-2.683 0-4.879-2.197-4.879-4.882 0-2.686 2.196-4.883 4.88-4.883h75.002c2.684 0 4.88 2.197 4.88 4.883 0 2.685-2.196 4.882-4.88 4.882"/><path fill="#FFF" d="M465.69 67.583a6.18 6.18 0 0 1-6.176 6.181h-67.683a6.179 6.179 0 0 1-6.177-6.181 6.179 6.179 0 0 1 6.177-6.182h67.683a6.179 6.179 0 0 1 6.177 6.182"/><path fill="#FFF" d="M424.308 74.9a4.375 4.375 0 0 1-4.374 4.377h-40.907a4.375 4.375 0 0 1-4.374-4.376 4.375 4.375 0 0 1 4.374-4.377h40.907a4.375 4.375 0 0 1 4.374 4.377m-12.151-15.98a4.375 4.375 0 0 1-4.374 4.377h-40.907a4.375 4.375 0 0 1-4.374-4.377 4.375 4.375 0 0 1 4.374-4.377h40.907a4.375 4.375 0 0 1 4.374 4.377m-75.516 65.69a4.44 4.44 0 0 1-4.438 4.442h-48.637a4.44 4.44 0 0 1-4.439-4.442 4.44 4.44 0 0 1 4.44-4.442h48.636a4.44 4.44 0 0 1 4.438 4.442"/><path fill="#FFF" d="M298.173 118.387a3.144 3.144 0 0 1-3.143 3.145h-29.396a3.144 3.144 0 0 1-3.143-3.145 3.144 3.144 0 0 1 3.143-3.145h29.396a3.144 3.144 0 0 1 3.143 3.145"/><path fill="#A17641" d="M189.499 294.569V256.52c0-1.498-.914-2.903-2.343-3.35-2.377-.743-4.56 1.014-4.56 3.281v38.117h6.903zm94.701 0V256.62c0-1.694-.87-3.263-2.142-3.564-1.67-.396-3.123 1.277-3.123 3.395v38.117h5.266z"/><path fill="#7A573C" d="M174.84 293.084v17.762h6.693v-13.08h105.085v13.08h6.693v-17.762z"/><path fill="#DBA058" d="M171.29 294.007h126.06v-6.908H171.29z"/><path fill="#BC8A4B" d="M171.29 294.569h126.06v-4.94H171.29z"/><path fill="#DBA058" d="M297.35 260.668a3.452 3.452 0 0 1-3.452 3.453H174.74a3.452 3.452 0 0 1-3.451-3.453 3.452 3.452 0 0 1 3.451-3.454h119.158a3.452 3.452 0 0 1 3.451 3.454"/><path fill="#A17641" d="M187.746 260.668a1.7 1.7 0 1 1-3.399 0 1.7 1.7 0 0 1 3.4 0m95.519 0a1.7 1.7 0 1 1-3.399 0 1.7 1.7 0 0 1 3.4 0"/><path fill="#DBA058" d="M297.35 271.26a3.452 3.452 0 0 1-3.452 3.454H174.74a3.452 3.452 0 0 1-3.451-3.454 3.453 3.453 0 0 1 3.451-3.454h119.158a3.453 3.453 0 0 1 3.451 3.454"/><path fill="#A17641" d="M187.746 271.26a1.7 1.7 0 1 1-3.399 0 1.7 1.7 0 0 1 3.4 0m95.519 0a1.7 1.7 0 1 1-3.398 0 1.7 1.7 0 0 1 3.398 0"/><path fill="#DBA058" d="M297.35 281.446a3.452 3.452 0 0 1-3.452 3.453H174.74a3.452 3.452 0 0 1-3.451-3.453 3.452 3.452 0 0 1 3.451-3.454h119.158a3.452 3.452 0 0 1 3.451 3.454"/><path fill="#A17641" d="M187.746 281.446a1.7 1.7 0 1 1-3.399 0 1.7 1.7 0 0 1 3.4 0m95.519 0a1.7 1.7 0 1 1-3.399 0 1.7 1.7 0 0 1 3.4 0"/></g></svg>