<svg version="1.1" xmlns="http://www.w3.org/2000/svg" xmlns:xlink="http://www.w3.org/1999/xlink" width="71.74819" height="112.72075" viewBox="0,0,71.74819,112.72075"><g transform="translate(-204.13117,-124.07709)"><g data-paper-data="{&quot;isPaintingLayer&quot;:true}" fill-rule="evenodd" stroke="none" stroke-width="1" stroke-linecap="butt" stroke-linejoin="miter" stroke-miterlimit="10" stroke-dasharray="" stroke-dashoffset="0" style="mix-blend-mode: normal"><path d="M256.737,170.947c0.72,3.01 5.915,16.296 8.051,19.11c0.651,0.859 2.826,1.966 3.347,2.663c0.646,0.53 1.305,1.031 2.028,1.302c1.855,0.692 1.48,1.074 0.864,1.464c-0.36,0.226 -2.227,-0.369 -3.406,-0.737c0.21,1.007 1.759,3.609 2.151,6.377c-0.766,1.055 -2.752,-4.134 -2.717,-3.634c0.093,1.329 1.738,4.391 1.148,5.266c-0.86,1.275 -1.432,-4.121 -2.59,-5.027c-0.004,-0.002 1.353,4.905 0.254,5.037c-0.095,0.012 -0.205,-0.167 -0.346,-0.695c-0.198,-0.745 -1.015,-3.556 -1.156,-4.07c-0.014,0.986 -0.013,1.756 -0.24,2.663c-0.564,2.247 -0.953,-2.34 -0.992,-2.854c-0.125,-1.677 -0.923,-4.786 -1.827,-6.27h0.001c-5.568,-6.17 -22.59,-28.565 -7.26,-27.1c1.926,0.184 2.056,3.86 2.69,6.505M249.696,208.97c0.386,1.304 -6.919,16.399 -6.448,22.089c0.166,2.01 -5.454,8.52 -5.454,-2.896c0,-4.316 -0.12,-21.443 4.742,-21.443c1.686,0 6.675,0.615 7.16,2.25M230.959,210.142c-0.106,1.356 -12.339,12.856 -13.939,18.338c-0.564,1.936 -8.147,6.018 -4.056,-4.646c1.546,-4.03 7.572,-20.07 12.113,-18.34c1.575,0.6 6.014,2.948 5.882,4.648" data-paper-data="{&quot;origPos&quot;:null}" fill="#a06e3f"/><path d="M245.341,233.643c-0.725,-5.603 -5.436,0.25 -7.083,-2.349c-0.331,-0.522 -0.399,-0.808 -0.404,-1.242c-0.017,-1.24 -2.036,4.414 -2.036,5.299c1.864,0 1.028,0.646 1.445,-0.553c0.019,-0.007 8.9,5.196 8.078,-1.155M218.851,230.34c0.65,-5.612 -5.336,-1.061 -6.307,-3.978c-0.195,-0.587 -0.192,-0.88 -0.093,-1.303c0.284,-1.208 -3.042,3.796 -3.256,4.655c1.81,0.447 0.842,0.874 1.537,-0.19c0.02,-0.002 7.383,7.179 8.12,0.817M255.754,166.077c5.27,9.874 -3.694,49.868 -11.128,58.106c-2.947,3.267 -3.407,4.075 -9.932,2.576c-0.161,-0.777 -1.707,-3.29 -1.707,-7.81c0,-15.523 -5.583,-2.48 -11.772,3.374c-2.703,2.555 -1.603,3.78 -8.364,-2.83c-1.903,-1.86 16.664,-48.586 22.56,-52.279c5.094,-3.19 15.502,-7.708 19.912,-2.162c0.322,0.405 0.257,0.7 0.431,1.025" fill="#210001"/><path d="M234.8,226.652c2.159,0.495 3.535,0.705 4.59,0.705c2.21,0 3.04,-0.923 4.86,-2.946l0.282,-0.312c3.47,-3.846 7.608,-15.252 10.297,-28.38c2.225,-10.867 3.607,-24.345 0.812,-29.582c-0.06409,-0.12853 -0.11179,-0.26459 -0.142,-0.405c-0.05,-0.193 -0.097,-0.376 -0.276,-0.6c-1.354,-1.704 -3.395,-2.567 -6.068,-2.567c-4.484,0 -10.004,2.457 -13.676,4.757c-5.336,3.342 -21.797,43.622 -22.608,51.138c-0.078,0.714 0.022,0.897 0.069,0.942c3.523,3.445 4.988,4.843 5.85,4.843c0.452,0 0.807,-0.391 1.344,-0.984c0.277,-0.304 0.59,-0.65 0.993,-1.03c1.678,-1.587 3.34,-3.742 4.805,-5.642c2.112,-2.737 3.935,-5.101 5.245,-5.101c1.34,0 1.938,2.3 1.938,7.46c0,3.482 0.92,5.754 1.413,6.975c0.127,0.313 0.223,0.55 0.272,0.73M239.39,227.612c-1.088,0 -2.501,-0.219 -4.725,-0.73l-0.08,-0.018l-0.016,-0.08c-0.034,-0.163 -0.141,-0.429 -0.278,-0.766c-0.5,-1.237 -1.432,-3.54 -1.432,-7.07c0,-4.849 -0.55,-7.206 -1.682,-7.206c-1.184,0 -2.972,2.318 -5.043,5.001c-1.471,1.909 -3.14,4.071 -4.83,5.672c-0.34019,0.32571 -0.66712,0.66498 -0.98,1.017c-0.584,0.643 -0.969,1.067 -1.534,1.067c-0.952,0 -2.293,-1.263 -6.03,-4.915c-0.165,-0.162 -0.21,-0.528 -0.144,-1.151c0.815,-7.54 17.36,-47.965 22.727,-51.327c3.702,-2.318 9.274,-4.795 13.812,-4.795c2.754,0 4.863,0.895 6.268,2.662c0.213,0.268 0.271,0.496 0.323,0.696c0.03,0.12 0.06,0.235 0.12,0.349c2.827,5.297 1.447,18.841 -0.788,29.751c-2.696,13.17 -6.859,24.623 -10.356,28.5l-0.282,0.312c-1.815,2.018 -2.726,3.03 -5.05,3.03" fill="#231916"/><path d="M256.158,161.003c-2.322,6.37 -41.132,47 -42.835,46.385c-20.617,-7.46 -5.082,-59.572 31.933,-53.975c3.778,0.572 11.791,5.15 10.902,7.59" fill="#d40311"/><path d="M256.84,161.265c-0.001,6.777 -22.564,58.168 -24.374,58.168c-21.935,0 -25.183,-54.266 11.526,-61.594c3.747,-0.748 12.847,0.83 12.847,3.426" fill="#e62a10"/><path d="M240.542,177.416c0.841,-2.369 2.591,-5.282 1.191,-6.389c-11.149,-8.802 -9.23,17.075 -8.02,24.643h-0.001c-0.046,1.601 -0.993,4.411 -1.741,5.775c-0.228,0.417 -2.238,4.168 -0.668,2.708c0.633,-0.589 1.019,-1.187 1.527,-1.944c-0.15,0.469 -0.933,3.056 -1.153,3.733c-0.157,0.48 -0.163,0.673 -0.083,0.712c0.92,0.448 2.338,-4.036 2.34,-4.032c0.442,1.28 -1.832,5.751 -0.522,5.192c0.897,-0.383 1.163,-3.579 1.76,-4.657c0.225,-0.405 -0.848,4.611 0.278,4.177c1.089,-2.343 1.199,-5.135 1.543,-6.02c0.729,0.874 1.878,2.27 2.27,2.274c0.673,0.006 1.157,-0.103 0.067,-1.567c-0.424,-0.572 -0.683,-1.289 -0.916,-2.024c-0.053,-0.801 -1.181,-2.746 -1.255,-3.738c-0.237,-3.25 2.425,-16.15 3.383,-18.843M232.619,153.253c-1.16,-25.913 41.959,-24.59 42.916,-4.23c1.25,26.594 -42.069,23.151 -42.916,4.231" data-paper-data="{&quot;origPos&quot;:null}" fill="#a06e3f"/><path d="M267.117,148.769c1.086,0 4.509,1.378 3.262,4.204c-1.247,2.826 -4.532,2.704 -5.737,0.92c-1.178,-1.745 -0.324,-5.123 2.475,-5.123" fill="#fefefe"/><path d="M264.011,151.037c0.225,-0.606 0.424,-1.119 1.195,-1.886c1.55,-1.542 3.787,-0.752 5.122,0.584c1.176,1.178 2.28,-0.357 1.594,0.325c-1.95,1.938 -4.366,-2.066 -6.774,-0.274c-0.066,0.05 -1.142,1.267 -1.137,1.251" fill="#210001"/><path d="M266.135,150.802c0.655,0 2.72,0.831 1.968,2.536c-0.753,1.705 -2.734,1.631 -3.46,0.555c-0.711,-1.053 -0.196,-3.091 1.492,-3.091" fill="#231916"/><path d="M243.17,148.77c2.797,0 3.652,3.378 2.473,5.123c-1.204,1.784 -4.489,1.906 -5.736,-0.92c-1.248,-2.826 2.176,-4.204 3.262,-4.204" fill="#fefefe"/><path d="M241.94,150.622c1.688,0 2.203,2.038 1.492,3.091c-0.727,1.076 -2.708,1.15 -3.46,-0.554c-0.753,-1.706 1.313,-2.537 1.968,-2.537" fill="#231916"/><path d="M246.318,151.037c0.005,0.016 -1.071,-1.201 -1.137,-1.251c-2.408,-1.792 -4.825,2.212 -6.773,0.274c-0.687,-0.682 0.417,0.853 1.593,-0.325c1.335,-1.336 3.573,-2.126 5.122,-0.584c0.772,0.767 0.97,1.28 1.195,1.886" fill="#210001"/><path d="M253.875,151.992c0.991,0.033 -1.83,-0.396 -2.2,2.4c-0.37,2.795 2.799,3.922 1.006,3.108c-3.098,-1.407 -2.979,-5.645 1.194,-5.507" fill="#f1c28c"/><path d="M265.056,144.759c-0.131,0.142 -0.019,0.155 -0.015,0.311c0.311,0.235 0.597,-0.155 0.88,-0.265c1.021,-0.398 2.443,-0.366 3.467,0.01c1.204,0.442 1.483,0.135 1.203,-0.2c-1.558,-1.86 -4.007,-1.511 -5.535,0.144M246.033,145.17c0.108,0.16 -0.004,0.155 -0.032,0.31c-0.344,0.184 -0.567,-0.245 -0.83,-0.396c-0.947,-0.55 -2.357,-0.736 -3.427,-0.52c-1.258,0.252 -1.486,-0.094 -1.158,-0.382c1.825,-1.6 4.192,-0.882 5.447,0.988" fill="#210001"/><path d="M265.719,151.742c0.303,0 1.258,0.384 0.91,1.172c-0.348,0.788 -1.263,0.754 -1.599,0.256c-0.328,-0.486 -0.09,-1.428 0.69,-1.428M241.293,152.151c0.303,0 1.257,0.384 0.91,1.172c-0.348,0.787 -1.263,0.753 -1.6,0.257c-0.328,-0.487 -0.09,-1.43 0.69,-1.43" fill="#fefefe"/><path d="M240.875,158.004c-0.032,-1.029 3.613,-1.468 3.434,0.34c-0.051,0.511 -3.383,1.3 -3.434,-0.34M265.2,158.004c-0.031,-1.029 3.614,-1.468 3.434,0.34c-0.05,0.511 -3.382,1.3 -3.433,-0.34" fill="#d76b6c"/><path d="M232.733,154.462c-10.086,-32.315 50.093,-36.161 42.478,-0.485c-0.175,0.818 -0.344,-4.224 -2.974,-8.2c-2.879,-4.351 -7.437,-7.315 -8.235,-6.608c-12.928,11.45 -26.067,-8.005 -31.269,15.293" fill="#210001"/><path d="M240.562,137.451c-1.427,-0.504 -1.534,-3.133 -4.737,-4.25c-4.954,-1.727 -6.11,14.16 -6.424,14.72c-7.096,12.644 -15.067,-0.88 -13.26,0.594c1.192,0.973 8.33,0.074 8.33,-1.955c-0.079,-0.006 -1.485,0.382 -2.082,0.382c-0.615,0 -4.578,-0.357 -4.478,-1.623c3.292,0.842 4.113,-1.725 4.285,-1.988c0.28,-0.427 0.72,-4.235 -0.79,-7.545c-1.996,-4.378 3.983,-11.376 7.614,-11.658c11.018,-0.858 12.02,9.358 11.542,13.323" fill="#210001"/><path d="M261.222,160.603c-0.687,1.219 -7.944,6.762 -13.25,-0.358c-0.299,-0.402 3.184,-0.026 6.708,0.139c2.919,0.137 6.819,-0.274 6.542,0.219" data-paper-data="{&quot;origPos&quot;:null}" fill="#ee8785"/><path d="M256.875,163.277c-0.73,0.258 -1.804,0.601 -2.852,0.523c-1.028,-0.075 -1.941,-0.462 -2.652,-0.831c1.074,-1.425 5.167,-1.291 5.504,0.308" fill="#d76b6c"/><path d="M250.708,161.133c-0.71,-0.073 -1.71,-0.146 -1.64,-1.04c0.003,-0.025 9.814,0.078 11.664,0.288c-0.344,0.371 -0.929,0.909 -0.95,0.932c-0.251,0.275 -4.795,0.366 -5.103,-0.93c-0.158,1.176 -3.42,0.806 -3.97,0.75" fill="#fefefe"/><path d="M233.823,164.098c0.777,0 0.702,1.233 0.597,1.527c-1.074,3.01 -4.931,-1.527 -0.597,-1.527M225.161,172.456c0.778,0 0.702,1.234 0.598,1.527c-1.075,3.01 -4.931,-1.527 -0.598,-1.527M229.374,183.144c0.778,0 0.703,1.233 0.598,1.526c-1.074,3.01 -4.931,-1.526 -0.598,-1.526M220.948,186.006c0.777,0 0.702,1.234 0.597,1.527c-1.074,3.01 -4.93,-1.527 -0.597,-1.527M223.604,196.307c0.777,0 0.702,1.233 0.597,1.526c-1.074,3.01 -4.931,-1.526 -0.597,-1.526M226.693,207.674c0.778,0 0.702,1.234 0.598,1.527c-1.075,3.01 -4.932,-1.527 -0.598,-1.527" fill="#210001"/><path d="M229.757,157.762c0.778,0 0.703,1.234 0.598,1.527c-1.074,3.009 -4.931,-1.527 -0.598,-1.527M220.441,164.766c0.778,0 0.703,1.234 0.598,1.527c-1.074,3.01 -4.931,-1.527 -0.598,-1.527M214.628,173.792c0.777,0 0.702,1.234 0.597,1.527c-1.074,3.01 -4.931,-1.527 -0.597,-1.527M210.797,186.465c0.778,0 0.703,-1.234 0.598,-1.527c-1.074,-3.009 -4.931,1.527 -0.598,1.527M210.697,197.4c0.778,0 0.703,-1.234 0.598,-1.527c-1.074,-3.01 -4.931,1.527 -0.598,1.527" fill="#231916"/><path d="M233.577,174.374c-3.407,0.537 5.96,-12.862 9.637,-3.36c0.868,2.243 -0.45,5.107 -1.108,5.107c-0.035,0 -4.254,-2.421 -8.529,-1.747" fill="#d40311"/></g></g></svg>