<svg version="1.1" xmlns="http://www.w3.org/2000/svg" xmlns:xlink="http://www.w3.org/1999/xlink" width="113.02482" height="118.22961" viewBox="0,0,113.02482,118.22961"><g transform="translate(-184.1,-121.01421)"><g data-paper-data="{&quot;isPaintingLayer&quot;:true}" fill-rule="evenodd" stroke-linecap="butt" stroke-linejoin="miter" stroke-miterlimit="10" stroke-dasharray="" stroke-dashoffset="0" style="mix-blend-mode: normal"><path d="M240.98483,201.52948c0,0 6.89374,-2.064 7.58442,0.47c0.68867,2.518 -2.41336,0.797 -2.07003,3.315c0.34634,2.534 2.17913,7.01 -2.41236,8.73c-4.6055,1.72 -6.78463,-0.922 -6.20507,-3.91c-10.92067,1.845 -18.27086,-4.005 -18.27086,-4.005c0,0 7.35019,-7.917 17.23685,-10.215zM290.40614,165.50148c0.26225,-0.178 3.84776,-2.602 5.61248,1.158c1.84681,3.894 1.37935,8.494 -8.27309,9.181c0,0 -4.64655,7.351 -12.17691,12.61c0.74573,-4.294 -0.81379,-13.133 -1.02099,-14.221c1.57295,-1.38273 2.90149,-3.02031 3.92984,-4.844h0.01401c1.81227,-0.37961 3.6336,-0.71471 5.46234,-1.005c0,0 2.41336,-6.54 5.85873,-5.742c1.84881,0.551 0.7187,2.631 0.59358,2.863M266.31559,154.61247c0.00026,1.00463 0.4002,1.96796 1.11175,2.67787c0.71155,0.70991 1.67635,1.10819 2.68196,1.10713c1.00518,0.00053 1.96935,-0.39801 2.68031,-1.10789c0.71096,-0.70988 1.1104,-1.67292 1.1104,-2.67711c0,-0.152 -0.02703,-0.289 -0.04104,-0.426l2.56551,-0.745l-3.01995,-0.66c-0.08408,-0.153 -0.16516,-0.302 -0.27527,-0.442l1.48946,-2.091l-2.56551,1.128c-0.57957,-0.343 -1.2272,-0.55 -1.9439,-0.55c-1.00579,-0.00106 -1.97074,0.39735 -2.68232,1.10748c-0.71157,0.71013 -1.1114,1.67372 -1.1114,2.67852M268.84006,177.67148c0,0 -0.35835,0.991 -1.63961,2.327c-1.00799,1.045 -2.59454,2.284 -5.03492,3.414c-3.10303,1.432 -7.58442,2.656 -14.00969,3.028c0,0 6.27414,-11.632 -5.68156,-16.23c-11.95569,-4.584 -19.99555,2.823 -19.99555,2.823c-8.43925,-3.622 -5.86073,-12.227 -0.68968,-12.75c5.17206,-0.51 4.30321,5.507 6.72958,5.507c2.39935,0 5.15705,-16.685 5.15705,-16.685c0,0 0.35834,3.277 3.97188,3.097c3.61253,-0.179 4.48138,-9.127 4.48138,-9.127c0,0 7.58442,6.194 10.34111,5.686c2.64959,-0.497 0.67766,-4.173 0.52551,-4.46c17.67829,7.214 13.47217,-1.653 13.27999,-2.066c0.35635,0.138 6.12198,2.588 9.16897,2.493c-0.15115,0.481 -0.27527,1.597 0.97996,3.001c0.90989,0.991 2.67561,4.265 3.62655,8.301c-1.19917,0.441 -11.69443,4.86 -11.21096,21.642M271.06023,148.56848c-0.35935,-0.372 -4.01392,-3.827 -5.48836,1.748c1.95792,-2.766 5.12802,-1.858 5.48836,-1.748M248.95562,154.70747c-2.93787,-5.066 -5.59948,-0.536 -5.76564,-0.232c0.23523,-0.152 3.11704,-1.955 5.76564,0.233M244.70747,156.38748c-0.6585,0.18866 -1.25685,0.54456 -1.7367,1.033l-2.77271,-0.413l1.98694,1.624c-0.07007,0.167 -0.11111,0.331 -0.15215,0.497l-2.7587,1.431l2.67462,0.04c0.02803,0.152 0.04205,0.291 0.08408,0.428c0.25782,0.9721 0.89371,1.801 1.7663,2.3024c0.87258,0.5014 1.90951,0.63374 2.88025,0.3676c2.01297,-0.537 3.21314,-2.615 2.67662,-4.638c-0.55515,-2.0125 -2.62797,-3.20397 -4.64854,-2.672M260.98037,161.19348c1.28125,-0.262 2.39934,0.688 2.41235,0.702c0.21997,0.17708 0.53979,0.15301 0.73072,-0.055c0.09223,-0.10331 0.13846,-0.23964 0.12808,-0.37768c-0.01038,-0.13804 -0.07648,-0.26594 -0.18313,-0.35432c-0.05406,-0.054 -1.51648,-1.277 -3.29523,-0.934c-1.25522,0.262 -2.31726,1.252 -3.13106,2.932c-0.06218,0.12195 -0.07238,0.26383 -0.02827,0.3934c0.04411,0.12957 0.13879,0.23582 0.2625,0.2946c0.06793,0.03767 0.14453,0.05697 0.22221,0.056c0.19738,-0.00328 0.37713,-0.11417 0.46846,-0.289c0.67566,-1.378 1.48745,-2.176 2.41336,-2.368M266.17846,176.22548c1.24021,-2.421 1.37935,-5.96 0.42642,-8.535l-13.09881,3.896c-0.44043,0.138 1.1161,4.627 1.28125,4.957c2.53848,5.176 8.86767,4.557 11.39113,-0.318" data-paper-data="{&quot;origPos&quot;:null}" fill="#c0976a" stroke="#c0976a" stroke-width="0.5"/><path d="M283.579,203.45c0,0 2.879,-5.052 5.056,-3.896c2.176,1.143 1.611,5.038 0.688,8.137c-0.922,3.097 -1.488,5.974 -8.375,4.13c3.209,-2.52 2.632,-8.371 2.632,-8.371M231.808,235.802c0,0 0.068,2.078 -3.817,3.016c0.4,-0.398 1.999,-2.409 -0.55,-6.568c-2.742,-4.501 -5.373,-7.308 -7.7,-6.263c0.675,-0.456 1.515,-0.717 2.535,-0.743c7.466,-0.222 9.532,10.558 9.532,10.558" fill="#cb4e88" stroke="none" stroke-width="1"/><path d="M218.06,228.188c0.316,-0.92 0.854,-1.666 1.611,-2.16c0.027,-0.015 0.04,-0.027 0.07,-0.041c2.327,-1.047 4.958,1.763 7.7,6.263c2.549,4.159 0.95,6.168 0.55,6.568c-1.018,0.232 -2.327,0.4 -3.994,0.425c-4.133,0.055 -5.276,-2.643 -6.076,-6.65c-0.33,-1.665 -0.302,-3.177 0.139,-4.405M204.875,147.72c-1.19271,-2.01403 -0.62045,-4.60782 1.309,-5.933c0.88361,0.8096 2.03959,1.25692 3.238,1.253c0.88583,-0.00075 1.75382,-0.2491 2.506,-0.717c0.82573,0.83597 1.28669,1.96499 1.282,3.14c0,2.464 -2.011,4.46 -4.477,4.46c-0.482,0 -0.938,-0.069 -1.378,-0.219c-1.04278,-0.33336 -1.92586,-1.03983 -2.48,-1.984" fill="#eb77aa" stroke="none" stroke-width="1"/><path d="M211.928,142.324c-0.75213,0.468 -1.62015,0.71635 -2.506,0.717c-1.19877,0.00387 -2.35496,-0.44425 -3.238,-1.255c-0.977,-0.879 -1.584,-2.146 -1.584,-3.564c-0.00044,-0.81899 0.20851,-1.62449 0.607,-2.34c0.85358,-1.52751 2.46518,-2.47535 4.215,-2.479c1.70779,-0.00373 3.288,0.90338 4.146,2.38v0.015c0.441,0.717 0.675,1.544 0.675,2.425c0.00778,1.68018 -0.87246,3.23952 -2.315,4.101" fill="#eb77aa" stroke="none" stroke-width="1"/><path d="M246.838,160.675c-0.38169,0.10588 -0.78984,0.0551 -1.13395,-0.14108c-0.34411,-0.19618 -0.59572,-0.52154 -0.69905,-0.90392c-0.2069,-0.79869 0.26691,-1.61528 1.063,-1.832c0.79399,-0.21258 1.61088,0.25478 1.83,1.047c0.208,0.797 -0.26,1.625 -1.06,1.83" fill="#fefefe" stroke="none" stroke-width="1"/><path d="M270.561,155.375c0.82095,-0.0011 1.48635,-0.66605 1.488,-1.487c-0.0022,-0.82056 -0.66744,-1.4849 -1.488,-1.486c-0.827,0 -1.502,0.662 -1.502,1.486c0.00159,0.39632 0.16068,0.77574 0.44224,1.05467c0.28155,0.27892 0.66245,0.43446 1.05876,0.43233M270.092,150.79c0.68596,0.00288 1.35799,0.1938 1.943,0.552l2.563,-1.129l-1.488,2.092c0.10475,0.13878 0.19678,0.28671 0.275,0.442l3.017,0.661l-2.562,0.742c0.013,0.137 0.04,0.275 0.04,0.427c0,1.00436 -0.39919,1.96755 -1.10966,2.67746c-0.71047,0.70991 -1.67397,1.10834 -2.67834,1.10754c-1.37335,0.03157 -2.65611,-0.68306 -3.35206,-1.86743c-0.69595,-1.18438 -0.69595,-2.65276 0,-3.83714c0.69595,-1.18438 1.97871,-1.899 3.35206,-1.86743" fill="#3f3a3a" stroke="none" stroke-width="1"/><path d="M269.059,153.888c0,-0.825 0.675,-1.487 1.502,-1.487c0.82017,0.0022 1.48435,0.66683 1.486,1.487c-0.00165,0.82017 -0.66583,1.4848 -1.486,1.487c-0.827,0 -1.502,-0.66 -1.502,-1.487" fill="#fefefe" stroke="none" stroke-width="1"/><path d="M247.899,158.844c-0.219,-0.79359 -1.03872,-1.26047 -1.833,-1.044c-0.79567,0.21573 -1.26876,1.03247 -1.06,1.83c0.10284,0.38243 0.35427,0.70789 0.69833,0.90396c0.34407,0.19607 0.75223,0.24649 1.13367,0.14004c0.799,-0.204 1.267,-1.032 1.061,-1.83M249.359,159.024c0.537,2.023 -0.663,4.101 -2.673,4.638c-0.9699,0.26589 -2.00583,0.13345 -2.87764,-0.36789c-0.87182,-0.50135 -1.50733,-1.33008 -1.76536,-2.30211c-0.041,-0.138 -0.054,-0.277 -0.082,-0.427l-2.673,-0.041l2.755,-1.432c0.03831,-0.16854 0.08912,-0.334 0.152,-0.495l-1.983,-1.624l2.768,0.412c0.48011,-0.48852 1.07853,-0.8444 1.737,-1.033c2.01795,-0.53071 4.08739,0.66049 4.642,2.672" fill="#3f3a3a" stroke="none" stroke-width="1"/><path d="M257.638,163.07c0.813,-1.678 1.873,-2.67 3.128,-2.931c1.777,-0.344 3.236,0.879 3.293,0.936c0.10579,0.08848 0.17123,0.21604 0.18141,0.35358c0.01017,0.13754 -0.03579,0.27334 -0.12741,0.37642c-0.193,0.207 -0.511,0.233 -0.731,0.055c-0.011,-0.014 -1.129,-0.965 -2.411,-0.702c-0.922,0.191 -1.734,0.992 -2.41,2.368c-0.09108,0.17545 -0.27134,0.28652 -0.469,0.289c-0.07697,0.0009 -0.15283,-0.01841 -0.22,-0.056c-0.12406,-0.05856 -0.21902,-0.16497 -0.26314,-0.29487c-0.04412,-0.1299 -0.0336,-0.27214 0.02914,-0.39413" data-paper-data="{&quot;origPos&quot;:null}" fill="#947451" stroke="none" stroke-width="1"/><path d="M253.506,171.551l13.087,-3.895c0.95,2.573 0.813,6.113 -0.427,8.535c-2.522,4.875 -8.845,5.493 -11.379,0.316c-0.166,-0.329 -1.722,-4.817 -1.281,-4.957z" fill="#e50113" stroke="none" stroke-width="1"/><path d="M247.402,186.736c-1.253,0.511 -3.981,1.487 -7.576,1.914c-1.667,0.207 -3.512,0.289 -5.484,0.152c-4.669,-0.304 -10.043,-1.804 -15.277,-5.837c4.132,-3.263 3.444,-9.968 3.444,-9.968c0,0 8.032,-7.406 19.976,-2.822c11.944,4.598 5.675,16.231 5.675,16.231c0,0 -0.261,0.124 -0.758,0.33M268.825,177.635c-0.482,-16.78 10.001,-21.2 11.2,-21.64c0.855,3.635 1.032,7.901 -0.688,11.661c-0.277,0.606 -0.567,1.168 -0.87,1.694h-0.013c-1.02784,1.82336 -2.35501,3.46086 -3.926,4.844c-2.948,2.617 -5.703,3.442 -5.703,3.442" data-paper-data="{&quot;origPos&quot;:null}" fill="#c0976a" stroke="#c0976a" stroke-width="0.5"/><path d="M271.042,148.533c-0.357,-0.109 -3.526,-1.019 -5.482,1.747c1.474,-5.575 5.125,-2.119 5.482,-1.747M248.96,154.673c-2.647,-2.187 -5.525,-0.386 -5.76,-0.232c0.166,-0.306 2.825,-4.835 5.76,0.232" fill="#cd7c41" stroke="none" stroke-width="1"/><path d="M184.1,139.433c13.267,-9.636 21.024,-3.606 21.024,-3.606l0.082,0.055c-0.387,0.687 -0.607,1.499 -0.607,2.34c-0.00428,1.36 0.57241,2.6571 1.585,3.565c-1.92857,1.32577 -2.50067,3.91881 -1.309,5.933c-16.296,8.193 -20.775,-8.287 -20.775,-8.287" fill="#c16c36" stroke="none" stroke-width="1"/><path d="M266.262,142.199c0.193,0.413 4.396,9.28 -13.267,2.067c0.152,0.288 2.122,3.964 -0.523,4.46c-2.755,0.509 -10.333,-5.685 -10.333,-5.685c0,0 -0.866,8.946 -4.476,9.126c-3.61,0.181 -3.967,-3.097 -3.967,-3.097c0,0 -2.756,16.686 -5.153,16.686c-2.424,0 -1.556,-6.017 -6.723,-5.507c-5.166,0.523 -7.743,9.128 0.689,12.748c0,0 0.688,6.705 -3.443,9.967c0,0 -1.847,-0.593 -4.078,-2.863c-3.749,-3.785 -8.582,-12.238 -7.632,-30.398c0.441,0.152 0.895,0.22 1.377,0.22c2.465,0 4.478,-1.996 4.478,-4.461c0.00405,-1.17479 -0.45724,-2.30338 -1.283,-3.139c1.44223,-0.8613 2.32243,-2.42017 2.315,-4.1c0,-0.881 -0.233,-1.708 -0.675,-2.425v-0.015c0.277,-0.562 4.175,-7.915 22.552,-12.87c8.955,-2.918 25.486,-2.066 26.506,-0.166c1.046,1.887 -2.399,3.085 -2.399,3.085c0,0 5.843,-0.331 11.533,5.175c5.687,5.508 7.066,11.523 5.165,13.246c-0.332,0.287 -0.855,0.425 -1.503,0.44c-3.044,0.095 -8.801,-2.354 -9.16,-2.493" fill="#cd7c41" stroke="none" stroke-width="1"/><path d="M244.785,196.223c-0.634,0 -1.157,-0.511 -1.157,-1.144c0,-0.634 0.523,-1.156 1.157,-1.156c0.633,0 1.143,0.522 1.143,1.156c0.00107,0.30356 -0.11898,0.59501 -0.33354,0.80975c-0.21456,0.21474 -0.5059,0.33505 -0.80946,0.33425M265.105,189.104c-0.00053,-0.30321 0.11975,-0.59415 0.33425,-0.80846c0.2145,-0.21431 0.50554,-0.33434 0.80875,-0.33354c0.30339,-0.00106 0.59468,0.11885 0.8094,0.33319c0.21472,0.21434 0.33514,0.50543 0.3346,0.80881c0,0.633 -0.511,1.157 -1.144,1.157c-0.634,0 -1.143,-0.524 -1.143,-1.157" fill="#fefefe" stroke="none" stroke-width="1"/><path d="M268.894,190.371l-0.152,0.606l-0.083,-0.027l-3.787,1.72l-2.179,-2.987c0.166,-0.952 0.18,-1.873 0.125,-2.712c-0.109,-1.681 -0.523,-3.042 -0.661,-3.594c2.438,-1.13 4.023,-2.368 5.028,-3.414l0.096,0.083c3.335,5.164 1.613,10.324 1.613,10.324zM267.392,189.104c0,-0.632 -0.509,-1.142 -1.143,-1.142c-0.635,0 -1.145,0.51 -1.145,1.142c-0.00167,0.63501 0.51001,1.15205 1.145,1.157c0.633,0 1.143,-0.524 1.143,-1.157zM247.499,190.371c0.139,1.321 0.455,2.836 1.075,4.241l-1.613,3.676l-5.51,-1.033c0,0 -0.936,-2.257 -1.391,-4.915c-0.22,-1.17 -0.331,-2.423 -0.22,-3.58l-0.014,-0.11c3.596,-0.426 6.323,-1.404 7.576,-1.914c-0.042,0.469 -0.11,1.888 0.098,3.634M244.784,196.223c0.635,0 1.145,-0.51 1.145,-1.143c0,-0.634 -0.511,-1.156 -1.145,-1.156c-0.633,0 -1.156,0.522 -1.156,1.156c0,0.633 0.523,1.143 1.156,1.143" fill="#a97db5" stroke="none" stroke-width="1"/><path d="M283.579,203.45c0,0 0.578,5.851 -2.631,8.371c0,0 -10.113,5.395 -21.243,3.909c0,0 -5.056,4.928 -12.288,6.54c0,0 -7.343,8.823 -15.609,13.533c0,0 -2.066,-10.781 -9.533,-10.559c-1.019,0.026 -1.859,0.287 -2.535,0.743c-0.028,0.014 -0.042,0.026 -0.07,0.041c-0.756,0.494 -1.294,1.24 -1.61,2.16c-6.378,-10.654 -5.594,-25.413 -5.347,-28.428c2.55,4.17 6.93,6.333 6.93,6.333c0,0 7.344,5.851 18.254,4.007c-0.579,2.988 1.599,5.629 6.199,3.908c4.587,-1.721 2.755,-6.194 2.41,-8.728c-0.343,-2.518 2.756,-0.797 2.068,-3.317c-0.689,-2.532 -7.578,-0.468 -7.578,-0.468l-4.133,-5.615l3.197,-3.54c0.455,2.658 1.391,4.915 1.391,4.915l5.511,1.033l1.612,-3.676c-0.619,-1.405 -0.937,-2.919 -1.075,-4.241c7.384,0.193 14.438,-2.988 15.318,-3.401c0.055,0.84 0.043,1.763 -0.123,2.713l2.177,2.986l3.788,-1.72l0.083,0.028l-0.317,1.226c0,0 9.422,2.409 15.155,11.247" fill="#a97db5" stroke="none" stroke-width="1"/><path d="M267.186,179.963c1.28,-1.337 1.638,-2.327 1.638,-2.327c0,0 2.756,-0.825 5.703,-3.441c0.207,1.087 1.765,9.926 1.02,14.22c-2.149,1.502 -4.546,2.838 -7.122,3.788l0.317,-1.226l0.152,-0.606c0,0 1.721,-5.163 -1.612,-10.324l-0.096,-0.084M248.161,186.406c6.419,-0.373 10.896,-1.597 13.996,-3.029c0.138,0.551 0.551,1.913 0.661,3.593c-0.882,0.414 -7.934,3.593 -15.319,3.4c-0.207,-1.747 -0.138,-3.165 -0.097,-3.634c0.498,-0.206 0.758,-0.33 0.758,-0.33" fill="#efee87" stroke="none" stroke-width="1"/><path d="M239.84,188.759c-0.11,1.158 0,2.411 0.22,3.58l-3.197,3.54l-2.52,-7.076c1.82834,0.12516 3.66448,0.07393 5.483,-0.153z" fill="#e5e481" stroke="none" stroke-width="1"/><path d="M212.714,199.746c-0.55,-0.922 -1.033,-1.94 -1.336,-3.07c-3.128,-9.251 2.52,-15.488 3.609,-16.575c2.233,2.271 4.078,2.863 4.078,2.863c5.235,4.033 10.608,5.535 15.277,5.839l2.522,7.075c-9.877,2.299 -17.22,10.216 -17.22,10.216c0,0 -4.38,-2.163 -6.93,-6.333v-0.015" fill="#efee87" stroke="none" stroke-width="1"/><path d="M253.616,145.749c-0.23,-0.749 -0.562,-1.372 -0.62,-1.484c3.98,1.627 6.843,2.43 8.898,2.704c-1.71,0.335 -4.511,0.387 -8.278,-1.22M266.816,144.184c-0.082,-0.981 -0.497,-1.86 -0.555,-1.985c0.236,0.092 2.799,1.177 5.392,1.885c-1.304,0.273 -2.928,0.378 -4.837,0.1" data-paper-data="{&quot;origPos&quot;:null}" fill="#947451" stroke="none" stroke-width="1"/><path d="M207.355,149.704c0.44,0.152 0.895,0.22 1.377,0.22c2.467,0 4.478,-1.998 4.478,-4.461c0.00502,-1.17459 -0.4556,-2.3033 -1.281,-3.139c1.4427,-0.86181 2.32294,-2.42152 2.315,-4.102c0,-0.881 -0.234,-1.708 -0.677,-2.438c0.237,-0.483 3.151,-5.962 15.574,-10.64c-4.92,1.854 -10.225,10 -9.827,15.163c0.227,2.952 2.399,6.122 4.9,7.66c1.93,1.191 5.554,1.293 6.561,-1.421c2.295,-6.196 6.199,-0.688 7.577,-2.294c1.378,-1.606 -0.46,-4.361 4.59,-3.673c5.052,0.688 7.808,5.05 6.2,2.525c-1.607,-2.526 1.149,-2.525 7.349,-0.46c6.198,2.067 7.805,0.46 6.428,-1.606c-1.377,-2.064 1.149,-1.835 1.149,-1.835c9,1.757 11.512,-0.448 11.566,-3.398c2.327,3.834 2.641,7.224 1.292,8.447c-0.332,0.289 -0.855,0.425 -1.502,0.44c-3.045,0.096 -8.804,-2.354 -9.163,-2.492c0.193,0.413 4.396,9.28 -13.265,2.066c0.15,0.287 2.12,3.963 -0.524,4.46c-2.754,0.508 -10.332,-5.686 -10.332,-5.686c0,0 -0.868,8.948 -4.478,9.127c-3.61,0.18 -3.967,-3.097 -3.967,-3.097c0,0 -2.754,16.685 -5.153,16.685c-2.424,0 -1.555,-6.017 -6.721,-5.507c-5.167,0.523 -7.743,9.128 0.689,12.75c0,0 0.688,6.704 -3.445,9.965c0,0 -1.845,-0.59 -4.078,-2.861c-3.747,-3.786 -8.582,-12.24 -7.632,-30.398" fill="#c16c36" stroke="none" stroke-width="1"/><path d="M232.152,130.713c17.009,0.298 25.87,-3.375 29.991,-5.983c-0.769,0.699 -1.915,1.101 -1.915,1.101c0,0 5.842,-0.33 11.53,5.176c1.13896,1.09785 2.17125,2.30124 3.083,3.594c-22.075,3.786 -42.689,-3.888 -42.689,-3.888" data-paper-data="{&quot;origPos&quot;:null}" fill="#e98e45" stroke="none" stroke-width="1"/><path d="M275.11,177.84c1.206,1.931 3.211,3.108 6.408,0.14c6.428,-5.966 6.428,-3.671 9.872,-5.737c1.672,-1.002 3.989,-2.6 5.016,-4.555c1.25,3.627 0.082,7.491 -8.694,8.117c0,0 -4.642,7.352 -12.165,12.61c0.476,-2.742 0.012,-7.327 -0.438,-10.574M219.643,206.093c0,0 5.571,-6 13.531,-9.07c-2.447,2.434 -5.123,5.786 -3.777,7.803c2.295,3.442 9.873,1.375 11.25,4.59c0.776,1.808 3.81,1.433 6.437,-0.88c0.254,2.13 -0.044,4.368 -2.988,5.473c-4.6,1.72 -6.778,-0.922 -6.199,-3.909c-10.91,1.844 -18.254,-4.007 -18.254,-4.007" data-paper-data="{&quot;origPos&quot;:null}" fill="#a57e54" stroke="none" stroke-width="1"/><path d="M214.987,180.101c2.233,2.271 4.078,2.863 4.078,2.863c1.49895,1.15314 3.1073,2.15661 4.802,2.996c-4.22,0.029 -7.787,0.992 -7.787,4.18c0,7.803 1.148,11.704 19.976,5.739c0.255,-0.082 0.48,-0.16 0.723,-0.24l0.085,0.24c-9.877,2.297 -17.221,10.214 -17.221,10.214c0,0 -4.38,-2.162 -6.928,-6.333v-0.014c-0.55,-0.923 -1.034,-1.941 -1.338,-3.07c-3.127,-9.252 2.522,-15.487 3.61,-16.575M255.117,185.554c2.896,-0.568 5.215,-1.333 7.04,-2.178c0.137,0.553 0.55,1.914 0.66,3.595c-0.129,0.061 -0.407,0.187 -0.786,0.348c-2.237,-0.54 -5.136,-1.257 -6.914,-1.765M247.95,190.37c-0.15,0 -0.299,0.005 -0.45,0c-0.208,-1.746 -0.14,-3.165 -0.098,-3.634c0.497,-0.205 0.758,-0.33 0.758,-0.33c1.68,-0.099 3.22,-0.255 4.642,-0.459c-1.866,0.944 -3.777,3.084 -4.851,4.424M268.825,177.636c0,0 0.632,-0.195 1.6,-0.67c-1.078,1.545 -2.075,3.194 -2.41,4.391c-0.215,-0.434 -0.45,-0.873 -0.733,-1.31l-0.096,-0.084c1.28,-1.337 1.639,-2.327 1.639,-2.327M268.894,190.37c0,0 1.106,-3.33 -0.186,-7.316c1.619,0.354 5.258,-0.889 6.626,-3.464c0.355,3 0.608,6.549 0.213,8.826c-2.15,1.5 -4.545,2.836 -7.122,3.787l0.317,-1.226l0.152,-0.606z" fill="#e5e481" stroke="none" stroke-width="1"/><path d="M247.09,197.992l0.905,3.163c0,0 0.014,0.033 0.019,0.04c-1.81,-1.26 -7.017,0.3 -7.017,0.3l-4.134,-5.617l3.198,-3.54c0.29868,1.68147 0.76432,3.32895 1.39,4.918l5.51,1.031l0.13,-0.295zM263.608,193.812l-2.066,-2.295c0,0 1.148,-2.523 -2.526,-1.835c-2.99,0.56 -9.021,2.184 -11.162,2.77c-0.16431,-0.68537 -0.2829,-1.3809 -0.355,-2.082c7.384,0.193 14.438,-2.986 15.318,-3.4c0.057,0.84 0.043,1.761 -0.123,2.712l2.177,2.988l3.788,-1.721l0.083,0.029l-0.302,1.168z" fill="#976fa1" stroke="none" stroke-width="1"/><path d="M212.714,199.76c2.55,4.17 6.93,6.333 6.93,6.333c0,0 7.343,5.851 18.252,4.007c-0.577,2.987 1.6,5.63 6.2,3.909c4.588,-1.721 2.754,-6.195 2.411,-8.728c-0.29,-2.133 1.877,-1.237 2.134,-2.435c0.28,0.938 0.497,2.114 0.272,3.127c-0.459,2.064 2.754,11.93 7.807,9.407c5.05,-2.523 27.313,-1.835 26.86,-11.93c0,0 0.577,5.85 -2.633,8.37c0,0 -10.11,5.397 -21.242,3.91c0,0 -5.057,4.929 -12.288,6.539c0,0 -7.343,8.825 -15.608,13.534c0,0 -2.068,-10.78 -9.534,-10.56c-1.02,0.027 -1.86,0.289 -2.534,0.744c-0.029,0.012 -0.042,0.026 -0.07,0.041c-0.757,0.494 -1.295,1.238 -1.61,2.16c-6.38,-10.654 -5.594,-25.414 -5.347,-28.427" fill="#976fa1" stroke="none" stroke-width="1"/><path d="M246.68,206.262c-0.07,-0.35 -0.132,-0.68 -0.173,-0.981c-0.292,-2.133 1.877,-1.236 2.134,-2.435c0.066,0.22 0.127,0.454 0.18,0.694c-0.806,0.776 -1.68,1.76 -2.14,2.722M261.95,215.935c-0.75076,-0.039 -1.49968,-0.10772 -2.245,-0.206c0.524,-0.302 1.307,-0.185 2.245,0.206M212.714,199.76c2.55,4.17 6.93,6.333 6.93,6.333c0,0 7.343,5.851 18.252,4.007c-0.577,2.987 1.6,5.63 6.2,3.909c0.59743,-0.21535 1.15174,-0.53534 1.637,-0.945c-0.761,1.592 -2.166,2.897 -4.627,3.004c-5.28,0.231 -20.664,-8.49 -21.812,-2.523c-0.667,3.47 -0.551,8.561 0.516,12.401c-0.023,0.016 -0.047,0.026 -0.069,0.041c-0.029,0.012 -0.042,0.026 -0.07,0.041c-0.757,0.494 -1.295,1.238 -1.61,2.16c-6.38,-10.654 -5.594,-25.414 -5.347,-28.427M248.684,219.97c4.592,0 8.036,-2.514 11.02,-4.24c0,0 -5.056,4.928 -12.286,6.54c0,0 -7.345,8.824 -15.61,13.533c0,0 -0.64,-3.318 -2.481,-6.234c6.564,-3.146 16.007,-9.599 19.357,-9.599" fill="#876290" stroke="none" stroke-width="1"/><path d="M205.206,135.881c0.078,-0.14 0.17,-0.27 0.259,-0.399c-0.57,2.254 0.117,5.096 4.128,4.984c3.554,-0.099 4.218,-2.4 4.142,-4.35c0.33422,0.65168 0.50836,1.37361 0.508,2.106c0.00778,1.68018 -0.87246,3.23952 -2.315,4.101c-1.81833,1.1292 -4.16599,0.91012 -5.744,-0.536c-1.01222,-0.90808 -1.58853,-2.20516 -1.584,-3.565c0,-0.841 0.22,-1.652 0.606,-2.34" fill="#cf6997" stroke="none" stroke-width="1"/><path d="M207.183,135.647c0,-0.761 0.964,-1.376 2.152,-1.376c1.189,0 2.154,0.616 2.154,1.376c0,0.761 -0.965,1.376 -2.154,1.376c-1.188,0 -2.152,-0.615 -2.152,-1.376" fill="#fefefe" stroke="none" stroke-width="1"/><path d="M206.184,141.787c0,0 -3.134,5.39 2.032,6.25c3.426,0.57 4.425,-2.184 4.71,-4.108c0.175,0.481 0.285,0.992 0.285,1.534c0,2.464 -2.013,4.46 -4.478,4.46c-0.482,0 -0.936,-0.067 -1.377,-0.22c-1.04271,-0.33295 -1.92582,-1.03908 -2.48,-1.983c-1.19271,-2.01403 -0.62045,-4.60782 1.309,-5.933M211.76,142.413c0.055,-0.032 0.115,-0.056 0.168,-0.09c0.026,0.026 0.044,0.058 0.07,0.085c-0.07896,0.00323 -0.15797,0.00489 -0.237,0.005" fill="#cf6997" stroke="none" stroke-width="1"/><path d="M207.011,144.941c0,-0.666 0.808,-1.207 1.807,-1.207c1,0 1.809,0.541 1.809,1.207c0,0.664 -0.809,1.204 -1.809,1.204c-0.998,0 -1.808,-0.541 -1.808,-1.205" fill="#fefefe" stroke="none" stroke-width="1"/></g></g></svg>