<svg version="1.1" xmlns="http://www.w3.org/2000/svg" xmlns:xlink="http://www.w3.org/1999/xlink" width="58.97646" height="116.70017" viewBox="0,0,58.97646,116.70017"><g transform="translate(-210.83054,-121.35)"><g data-paper-data="{&quot;isPaintingLayer&quot;:true}" fill-rule="evenodd" stroke="none" stroke-width="1" stroke-linecap="butt" stroke-linejoin="miter" stroke-miterlimit="10" stroke-dasharray="" stroke-dashoffset="0" style="mix-blend-mode: normal"><path d="M244.512,232.118c0.062,0.252 -0.024,0.532 -0.204,0.806c-0.578,0.892 -1.574,1.532 -2.418,2.136c-1.32,0.892 -2.988,1.38 -4.446,2.08c-1.312,0.55 -3.05,1.588 -4.224,0.27c-1.56,-1.864 -0.236,-4.162 1.584,-5.292h-0.01l-0.464,-11.698h10.181v11.698M255.546,232.118c1.82,1.124 3.134,3.428 1.58,5.292c-1.186,1.318 -2.912,0.28 -4.232,-0.27c-1.448,-0.7 -3.118,-1.188 -4.43,-2.08c-0.858,-0.604 -1.86,-1.244 -2.434,-2.136c-0.178,-0.274 -0.264,-0.542 -0.192,-0.806h-0.01v-11.698h10.182l-0.464,11.698" data-paper-data="{&quot;origPos&quot;:null}" fill="#ffdc83"/><path d="M241.55,225.452l-0.126,-0.016c0.014,-0.054 0.732,-5.132 0.732,-6.808h0.126c0,1.676 -0.718,6.778 -0.732,6.824M236.226,225.452c-0.014,-0.046 -0.736,-5.148 -0.736,-6.824h0.134c0,1.676 0.716,6.754 0.724,6.808zM248.794,225.452l0.13,-0.016c-0.008,-0.054 -0.736,-5.132 -0.736,-6.808h-0.122c0,1.676 0.728,6.778 0.728,6.824M254.124,225.452c0.016,-0.046 0.732,-5.148 0.732,-6.824h-0.13c0,1.676 -0.718,6.754 -0.722,6.808z" fill="#eeac6c"/><path d="M257.734,205.592l-1.118,14.8h-11.152l-0.144,-7.53h-0.296l-0.142,7.53h-11.16l-1.104,-14.8h15.792z" fill="#333433"/><path d="M268.794,199.207c0.246,2.376 -0.888,4.452 -2.54,4.626c-1.09,0.118 -2.122,-0.608 -2.782,-1.784c-0.614,0.506 -1.224,0.702 -1.652,0.472c-0.818,-0.43 -0.726,-2.2 0.206,-3.964c0.356,-0.67 0.788,-1.238 1.216,-1.668c0.046,-0.07 0.082,-0.144 0.12,-0.212c0,0 -1.608,-10.284 -3.332,-12.716c-0.86,-1.216 -1.948,-2.18 -2.148,-2.722v-0.002c1.356,10.178 -0.148,24.354 -0.148,24.354h-25.116c0,0 -1.756,-15.608 -0.088,-25.834v0.014c0,0 -8.92,3.582 -11.36,2.696c-3.016,-1.088 -6.484,-10.93 -6.484,-10.93v-0.008c-1.296,-0.456 -2.554,-1.702 -3.284,-3.418c-1.126,-2.666 -0.538,-5.464 1.324,-6.262c1.212,-0.512 2.666,-0.042 3.844,1.096c0.532,-0.806 1.168,-1.25 1.758,-1.138c1.092,0.214 1.598,2.308 1.14,4.672c-0.172,0.908 -0.47,1.722 -0.824,2.372c-0.04,0.294 -0.114,0.572 -0.208,0.834l5.554,6.528c0,0 5.196,-4.812 8.628,-3.09l3.092,-1.114c1.346,-0.928 4.29,-1.354 6.074,-1.522c-0.292,-0.664 -0.476,-1.38 -0.476,-1.91h7.664c0,0.53 -0.178,1.26 -0.484,1.92c1.808,0.172 4.73,0.594 6.018,1.532c0.682,0.366 6.55,3.508 8.246,5.68c3.706,4.734 5.13,18.972 5.13,18.972c0,0 0,-0.018 -0.01,-0.06c0.48,0.682 0.814,1.588 0.922,2.586" data-paper-data="{&quot;origPos&quot;:null}" fill="#ffdc83"/><path d="M242.132,171.104c-0.438,-0.652 -0.738,-1.57 -0.806,-2.226c1.208,0.198 2.462,0.3 3.734,0.3c1.328,0 2.63,-0.114 3.898,-0.326l-0.014,0.018l-6.812,2.234M238.66,184.411c1.592,0 3.586,-0.24 5.988,-0.732l-0.028,-0.12c-5.154,1.046 -8.366,0.97 -9.828,-0.228c-0.644,-0.524 -0.958,-1.266 -0.958,-2.296h-0.13c0,1.03 0.33,1.844 1.006,2.398c0.81,0.656 2.108,0.977 3.95,0.977M251.87,184.411c-1.59,0 -3.578,-0.24 -5.978,-0.732l0.026,-0.12c5.144,1.046 8.358,0.97 9.82,-0.228c0.648,-0.524 0.964,-1.266 0.964,-2.296h0.132c0,1.03 -0.332,1.844 -1.01,2.398c-0.804,0.656 -2.112,0.977 -3.954,0.977M245.15,179.49h0.126v2.9h-0.126zM241.439,195.309c0.932,0 2.078,-0.134 3.468,-0.424l-0.012,-0.07c-2.986,0.606 -4.856,0.562 -5.702,-0.128c-0.37,-0.308 -0.552,-0.758 -0.552,-1.334h-0.076c0,0.576 0.192,1.07 0.588,1.388c0.466,0.386 1.218,0.568 2.286,0.568M249.093,195.309c-0.916,0 -2.072,-0.134 -3.46,-0.424l0.014,-0.07c2.982,0.606 4.84,0.562 5.688,-0.128c0.382,-0.308 0.558,-0.758 0.558,-1.334h0.078c0,0.576 -0.19,1.07 -0.578,1.388c-0.468,0.386 -1.234,0.568 -2.3,0.568M241.439,198.538c0.932,0 2.078,-0.144 3.468,-0.426l-0.012,-0.074c-2.986,0.606 -4.856,0.566 -5.702,-0.13c-0.37,-0.308 -0.552,-0.752 -0.552,-1.33h-0.076c0,0.578 0.192,1.072 0.588,1.392c0.466,0.374 1.218,0.568 2.286,0.568M249.093,198.538c-0.916,0 -2.072,-0.144 -3.46,-0.426l0.014,-0.074c2.982,0.606 4.84,0.566 5.688,-0.13c0.382,-0.308 0.558,-0.752 0.558,-1.33h0.078c0,0.578 -0.19,1.072 -0.578,1.392c-0.468,0.374 -1.234,0.568 -2.3,0.568M241.439,201.827c0.932,0 2.078,-0.146 3.468,-0.426l-0.012,-0.074c-2.986,0.61 -4.856,0.566 -5.702,-0.128c-0.37,-0.31 -0.552,-0.752 -0.552,-1.336h-0.076c0,0.584 0.192,1.074 0.588,1.396c0.466,0.372 1.218,0.568 2.286,0.568M249.093,201.827c-0.916,0 -2.072,-0.146 -3.46,-0.426l0.014,-0.074c2.982,0.61 4.84,0.566 5.688,-0.128c0.382,-0.31 0.558,-0.752 0.558,-1.336h0.078c0,0.584 -0.19,1.074 -0.578,1.396c-0.468,0.372 -1.234,0.568 -2.3,0.568M240.995,192.139c1.028,0 2.316,-0.164 3.874,-0.482l-0.022,-0.08c-3.328,0.676 -5.41,0.622 -6.352,-0.15c-0.414,-0.342 -0.614,-0.852 -0.614,-1.496h-0.088c0,0.644 0.21,1.204 0.648,1.566c0.518,0.42 1.37,0.643 2.554,0.643M249.531,192.139c-1.024,0 -2.312,-0.164 -3.856,-0.482l0.014,-0.08c3.322,0.676 5.398,0.622 6.342,-0.15c0.428,-0.342 0.632,-0.852 0.632,-1.496h0.078c0,0.644 -0.218,1.204 -0.656,1.566c-0.516,0.42 -1.362,0.643 -2.555,0.643M228.175,178.182c1.576,0 3.532,-0.348 5.054,-1.742l-0.086,-0.094c-1.728,1.582 -4.042,1.79 -5.67,1.68c-1.772,-0.11 -3.154,-0.608 -3.172,-0.618l-0.044,0.128c1.03733,0.34194 2.114,0.55029 3.204,0.62c0.226,0.01 0.464,0.026 0.714,0.026M264.503,186.597l-0.124,0.042l-1.588,-5.244v-0.034c0.014,-0.02 0.412,-1.434 0.498,-2.892c0.034,0.068 0.078,0.128 0.116,0.198c-0.092,1.314 -0.436,2.53 -0.484,2.716z" fill="#eeac6c"/><path d="M267.851,149.588c1.178,0.756 1.956,2.058 1.956,3.528c0,2.336 -1.972,4.228 -4.404,4.228c-0.068,0 -0.136,0 -0.204,-0.006c-3.94,7.062 -11.486,11.84 -20.148,11.84c-8.672,0 -16.22,-4.786 -20.16,-11.86c-0.162,0.02 -0.322,0.026 -0.482,0.026c-2.438,0 -4.406,-1.892 -4.406,-4.228c0,-1.578 0.894,-2.954 2.22,-3.688c-0.15,-1.078 -0.228,-2.186 -0.228,-3.304c0,-12.742 10.32,-23.064 23.056,-23.064c12.74,0 23.062,10.322 23.062,23.064c0,1.172 -0.096,2.336 -0.262,3.464" data-paper-data="{&quot;origPos&quot;:null}" fill="#ffdc83"/><path d="M238.229,146.096c-0.772,-0.174 -0.908,-1.201 -3.386,-0.74c-0.779,0.18 -2.417,1.156 -2.732,1.808c-0.316,0.652 -0.088,-2.392 2.457,-3.522c1.835,-0.675 2.457,-0.642 3.977,-0.642c1.52,0 1.987,0.907 1.766,1.65c0,0 -0.503,1.803 -2.082,1.446zM252.134,146.096c0.772,-0.174 0.908,-1.201 3.386,-0.74c0.779,0.18 2.417,1.156 2.732,1.808c0.316,0.652 0.087,-2.392 -2.457,-3.522c-1.835,-0.675 -2.457,-0.642 -3.977,-0.642c-1.52,0 -1.987,0.907 -1.766,1.65c0,0 0.503,1.803 2.082,1.446z" data-paper-data="{&quot;origPos&quot;:null}" fill="#815b22"/><path d="M236,155c-1.105,0 -2,-1.343 -2,-3c0,-1.657 0.895,-3 2,-3c1.105,0 2,1.343 2,3c0,1.657 -0.895,3 -2,3zM254,155c-1.105,0 -2,-1.343 -2,-3c0,-1.657 0.895,-3 2,-3c1.105,0 2,1.343 2,3c0,1.657 -0.895,3 -2,3z" fill="#343434"/><path d="M245.02,155.069c-1.125,0.153 -3.02,1.834 -3.02,1.834c0,0 0.207,-1.009 0.503,-1.299c0.8,-1.156 2.487,-1.604 2.487,-1.604c0,0 2.173,0.703 2.65,1.588c0.443,0.824 0.34,1.238 0.34,1.238c0,0 -2.121,-1.871 -2.96,-1.756z" fill="#eeac6c"/><path d="M238.2,158.696c0,0 6.897,3.208 13.172,-0.397c0,0 -1.39,5.47 -5.95,5.561c-4.115,0.122 -4.984,-1.492 -5.477,-1.956c-0.492,-0.463 -1.42,-1.772 -1.745,-3.208" fill="#eeac6c"/><path d="M236.279,151.213c0,1.438 -0.842,2.59 -1.906,2.59c-1.06,0 -1.912,-1.152 -1.912,-2.59c0,-1.43 0.852,-2.586 1.912,-2.586c1.064,0 1.906,1.156 1.906,2.586M256.84,151.213c0,1.438 -0.857,2.59 -1.91,2.59c-1.055,0 -1.91,-1.152 -1.91,-2.59c0,-1.43 0.855,-2.586 1.91,-2.586c1.053,0 1.91,1.156 1.91,2.586" fill="#ffffff"/><path d="M235.558,151.932c0,0.882 -0.536,1.598 -1.186,1.598c-0.654,0 -1.184,-0.716 -1.184,-1.598c0,-0.884 0.53,-1.602 1.184,-1.602c0.65,0 1.186,0.718 1.186,1.602M256.107,151.932c0,0.882 -0.528,1.598 -1.178,1.598c-0.652,0 -1.186,-0.716 -1.186,-1.598c0,-0.884 0.534,-1.602 1.186,-1.602c0.65,0 1.178,0.718 1.178,1.602" fill="#1679af"/><path d="M269.028,143.118c0.034,2.706 -0.916,8.568 -2.76,12.054c0,0 -4.534,-12.836 -8.274,-14.862c-4.57,-2.482 -16.6,1.094 -20.674,-2.128c-0.684,-0.534 -0.598,-1.742 -0.598,-1.742c0,0 -0.79,1.548 -1.164,1.974c-1.982,2.248 -7.106,5.506 -9.536,7.252c-1.958,1.412 -2.048,1.388 -1.614,9.506c0,0 -3.6,-7.376 -3.402,-12.314c0.056,-1.414 0.746,-4.564 1.868,-7.766c4.05,-8.148 12.46,-13.742 22.186,-13.742c11.159,0 20.593,7.388 23.689,17.528c0.15434,1.40865 0.24775,2.8233 0.28,4.24" data-paper-data="{&quot;origPos&quot;:null}" fill="#815b22"/><path d="M260.648,148.506c0.394,1.39 1.132,4.926 -0.194,6.708c-2.048,2.76 -11.618,-0.926 -13.756,-3.63c-0.758,-0.956 -0.504,-2.36 -0.246,-3.094h-2.856c0.26,0.734 0.512,2.148 -0.248,3.114c-2.134,2.696 -11.704,6.356 -13.754,3.598c-1.328,-1.78 -0.588,-5.306 -0.196,-6.696l-1.832,-1.332h34.898z" fill="#343434"/><path d="M232.96,148.526c0.17421,0.27833 0.09324,0.64493 -0.182,0.824l-2.056,1.324c-0.1312,0.08595 -0.29122,0.11612 -0.44472,0.08384c-0.15349,-0.03227 -0.28781,-0.12434 -0.37329,-0.25584l-0.01,-0.006c-0.17554,-0.27701 -0.09524,-0.64371 0.18,-0.822l2.068,-1.324c0.13153,-0.08612 0.29207,-0.11597 0.44577,-0.0829c0.1537,0.03307 0.28776,0.12631 0.37223,0.2589M232.11,151.432c0.00295,0.17543 -0.06481,0.34468 -0.18803,0.46959c-0.12321,0.12491 -0.29152,0.19497 -0.46697,0.19441c-0.17633,0.00135 -0.34581,-0.06824 -0.47031,-0.19312c-0.1245,-0.12488 -0.19358,-0.29456 -0.19169,-0.47089c0,-0.36 0.292,-0.656 0.662,-0.656c0.368,0 0.656,0.296 0.656,0.656" fill="#515151"/></g></g></svg>