<svg version="1.1" xmlns="http://www.w3.org/2000/svg" xmlns:xlink="http://www.w3.org/1999/xlink" width="76.19199" height="120.00035" viewBox="0,0,76.19199,120.00035"><g transform="translate(-202.00125,-120)"><g data-paper-data="{&quot;isPaintingLayer&quot;:true}" fill-rule="evenodd" stroke-linejoin="miter" stroke-miterlimit="10" stroke-dasharray="" stroke-dashoffset="0" style="mix-blend-mode: normal"><path d="M240.85301,183.197c-9.073,0 -17.637,-3.031 -24.115,-8.537c-6.699,-5.693 -10.389,-13.33 -10.389,-21.5h9.506c0,11.321 11.214,20.532 24.998,20.532z" data-paper-data="{&quot;origPos&quot;:null}" fill="#584239" stroke="none" stroke-width="1" stroke-linecap="butt"/><path d="M265.74201,201.607c-0.564,-4.938 -3.316,-9.552 -7.751,-12.992c-4.661,-3.616 -10.748,-5.608 -17.138,-5.608v-9.505c8.49,0 16.645,2.7 22.964,7.602c6.475,5.023 10.513,11.921 11.37,19.425zM235.42201,239.335l-12.902,-1.295l3.493,-25.798l11.261,0.983z" data-paper-data="{&quot;origPos&quot;:null}" fill="#a0764c" stroke="none" stroke-width="1" stroke-linecap="butt"/><path d="M235.18264,239.335l-12.902,-1.295l3.493,-25.798l11.261,0.983zM245.97764,239.32l-1.88,-26.652l11.228,-0.954l3.556,26.342z" data-paper-data="{&quot;origPos&quot;:null}" fill="#584239" stroke="none" stroke-width="1" stroke-linecap="butt"/><path d="M257.29801,224.665l1.822,13.376l-12.901,1.294l-1.053,-14.67zM224.33101,224.665l-1.81,13.376l12.902,1.294l1.04,-14.67z" fill="#ffffff" stroke="none" stroke-width="1" stroke-linecap="butt"/><path d="M235.36701,230.516h-0.91c-0.387,0 -0.762,0.165 -1.052,0.46c-1.02,1.042 -2.792,1.741 -4.779,1.741c-2.269,0 -4.137,-0.91 -4.878,-2.2c-2.863,0.015 -5.511,2.605 -5.936,5.917l-0.256,1.993c-0.064,0.5 0.236,0.908 0.672,0.908h16.462c0.413,0 0.764,-0.369 0.804,-0.842l0.601,-7.093c0.04,-0.479 -0.294,-0.884 -0.728,-0.884M246.10201,230.516h0.91c0.387,0 0.762,0.165 1.052,0.46c1.02,1.042 2.792,1.741 4.779,1.741c2.269,0 4.137,-0.91 4.878,-2.2c2.863,0.015 5.512,2.605 5.936,5.917l0.256,1.993c0.064,0.5 -0.236,0.908 -0.671,0.908h-16.462c-0.413,0 -0.765,-0.369 -0.805,-0.842l-0.601,-7.093c-0.04,-0.479 0.294,-0.884 0.728,-0.884" fill="#534741" stroke="none" stroke-width="1" stroke-linecap="butt"/><path d="M235.54401,237.897l-0.05,0.596c-0.04,0.473 -0.391,0.842 -0.804,0.842h-16.462c-0.436,0 -0.736,-0.408 -0.672,-0.908l0.068,-0.53zM245.92501,237.897l0.05,0.596c0.04,0.473 0.392,0.842 0.805,0.842h16.462c0.435,0 0.735,-0.408 0.671,-0.908l-0.068,-0.53z" fill="#ffffff" stroke="none" stroke-width="1" stroke-linecap="butt"/><path d="M239.77701,213.684h-15.066l0.76,-13.344h16.674z" fill="#e6e6e6" stroke="none" stroke-width="1" stroke-linecap="butt"/><path d="M256.99501,213.684h-15.065l-2.368,-13.344h16.293z" fill="#e6e6e6" stroke="none" stroke-width="1" stroke-linecap="butt"/><path d="M233.62901,170.08c0,-3.98998 3.23452,-7.2245 7.2245,-7.2245c3.98998,0 7.2245,3.23452 7.2245,7.2245c0,3.98971 -3.23429,7.224 -7.224,7.224c-3.98971,0 -7.224,-3.23429 -7.224,-7.224" fill="#ecba97" stroke="none" stroke-width="1" stroke-linecap="butt"/><path d="M258.26901,203.624c0.04915,0.4143 -0.08129,0.82984 -0.35839,1.14172c-0.27711,0.31189 -0.6744,0.49033 -1.09161,0.49028h-32.67c-0.476,0 -0.842,-0.508 -0.775,-1.076l3.21,-27.08c0.08716,-0.73471 0.71013,-1.28808 1.45,-1.288h25.641c0.74,0 1.363,0.554 1.45,1.289z" fill="#e3544f" stroke="none" stroke-width="1" stroke-linecap="butt"/><path d="M257.813,188.946c-0.10855,-0.00009 -0.21377,-0.03752 -0.298,-0.106c-4.553,-3.455 -10.469,-5.357 -16.662,-5.357c-2.132,0 -3.445,-0.923 -4.17,-1.697c-0.92835,-1.00545 -1.44422,-2.32351 -1.445,-3.692c0,-1.347 0.496,-2.59 1.395,-3.5c1.013,-1.026 2.472,-1.568 4.22,-1.568c7.216,0 14.131,1.888 19.997,5.459c0.184,0.112 0.27,0.334 0.209,0.54c-1.064,3.598 -2.664,9.044 -2.774,9.51c-0.03249,0.23572 -0.23406,0.41123 -0.472,0.411" fill="#e3544f" stroke="none" stroke-width="1" stroke-linecap="butt"/><path d="M240.85301,172.551c7.304,0 14.304,1.912 20.244,5.528c0.36846,0.22376 0.54007,0.66756 0.418,1.081c-1.041,3.52 -2.613,8.867 -2.763,9.463c-0.03604,0.22284 -0.15018,0.42559 -0.322,0.572c-0.34572,0.29562 -0.85268,0.30401 -1.208,0.02c-4.469,-3.39 -10.281,-5.257 -16.369,-5.257c-3.955,0 -6.09,-3.021 -6.09,-5.864c0,-1.473 0.544,-2.835 1.532,-3.835c1.104,-1.118 2.68,-1.708 4.558,-1.708M240.85301,173.502c-7.159,0 -6.54,9.505 0,9.505c6.54,0 12.5,2.074 16.96,5.463c-0.012,-0.102 2.79,-9.579 2.79,-9.579c-5.75,-3.501 -12.59,-5.389 -19.75,-5.389" fill="#e3544f" stroke="none" stroke-width="1" stroke-linecap="butt"/><path d="M240.83601,183.433c-7.21,-0.003 -14.118,-1.89 -19.98,-5.458c-0.18373,-0.11206 -0.26941,-0.33345 -0.209,-0.54c0.929,-3.18 2.692,-9.221 2.782,-9.552c0.03588,-0.15851 0.15031,-0.28767 0.30333,-0.34239c0.15303,-0.05472 0.32341,-0.02742 0.45167,0.07239c4.549,3.456 10.462,5.36 16.652,5.364c0.263,0 0.475,0.213 0.475,0.475v9.506c-0.00055,0.26211 -0.21289,0.47445 -0.475,0.475z" fill="#e3544f" stroke="none" stroke-width="1" stroke-linecap="butt"/><path d="M223.89301,167.038c0.21461,-0.00006 0.42292,0.07255 0.591,0.206c4.465,3.388 10.272,5.254 16.352,5.258c0.52467,0 0.95,0.42533 0.95,0.95v9.506c0,0.25213 -0.10023,0.49392 -0.2786,0.67211c-0.17838,0.17819 -0.42027,0.27816 -0.6724,0.27789c-7.296,-0.003 -14.29,-1.914 -20.226,-5.527c-0.36757,-0.22353 -0.53905,-0.66618 -0.418,-1.079c1.07,-3.664 2.681,-9.188 2.779,-9.54c0.02137,-0.08763 0.05504,-0.1718 0.1,-0.25c0.17015,-0.29348 0.48376,-0.4741 0.823,-0.474M223.89301,167.988c-0.01,0.061 -2.79,9.58 -2.79,9.58c5.746,3.498 12.58,5.387 19.733,5.39v-9.506c-6.533,-0.003 -12.488,-2.077 -16.943,-5.463M223.89301,167.988" data-paper-data="{&quot;origPos&quot;:null}" fill="#e3544f" stroke="none" stroke-width="1" stroke-linecap="butt"/><path d="M240.85001,179.635c-2.31,0 -4.494,-0.617 -6.15,-1.737c-1.688,-1.143 -2.638,-2.68 -2.675,-4.328c-0.03,-1.273 0.492,-2.5 1.505,-3.547c1.613,-1.667 4.3,-2.68 7.188,-2.712h0.138c2.31,0 4.495,0.616 6.15,1.736c1.689,1.143 2.64,2.68 2.676,4.328c0.029,1.273 -0.492,2.5 -1.505,3.547c-1.613,1.668 -4.3,2.681 -7.189,2.712h-0.137" fill="#e3544f" stroke="none" stroke-width="1" stroke-linecap="butt"/><path d="M240.85601,167.026c2.367,0 4.608,0.634 6.31,1.785c1.767,1.196 2.762,2.815 2.801,4.558c0.031,1.351 -0.518,2.648 -1.586,3.751c-1.664,1.722 -4.427,2.768 -7.39,2.8h-0.14c-2.367,0 -4.608,-0.634 -6.31,-1.786c-1.767,-1.196 -2.762,-2.814 -2.802,-4.558c-0.03,-1.351 0.518,-2.648 1.586,-3.751c1.664,-1.721 4.427,-2.767 7.391,-2.799h0.14M240.85601,167.596l-0.135,0.001c-4.718,0.05 -8.484,2.721 -8.411,5.966c0.072,3.215 3.883,5.786 8.541,5.786h0.134c4.719,-0.05 8.485,-2.722 8.412,-5.967c-0.072,-3.214 -3.883,-5.786 -8.541,-5.786" fill="#ffffff" stroke="none" stroke-width="1" stroke-linecap="butt"/><path d="M240.85101,177.823c-1.907,0 -3.711,-0.51 -5.079,-1.434c-1.4,-0.948 -2.189,-2.225 -2.22,-3.596c-0.023,-1.059 0.409,-2.079 1.25,-2.949c1.334,-1.379 3.555,-2.217 5.94,-2.242h0.113c1.908,0 3.712,0.509 5.08,1.434c1.4,0.948 2.188,2.225 2.22,3.595c0.023,1.06 -0.41,2.08 -1.251,2.95c-1.334,1.378 -3.554,2.216 -5.94,2.242h-0.113" data-paper-data="{&quot;origPos&quot;:null}" fill="#584239" stroke="none" stroke-width="1" stroke-linecap="butt"/><path d="M240.85601,167.316c1.963,0 3.824,0.527 5.238,1.484c1.479,1.001 2.312,2.359 2.345,3.825c0.026,1.137 -0.434,2.228 -1.331,3.153c-1.385,1.433 -3.68,2.304 -6.14,2.33l-0.117,0.001c-1.964,0 -3.824,-0.528 -5.238,-1.484c-1.48,-1.001 -2.313,-2.36 -2.345,-3.825c-0.026,-1.138 0.434,-2.228 1.33,-3.154c1.385,-1.433 3.681,-2.303 6.141,-2.33h0.117M240.85501,167.887h-0.11c-3.875,0.041 -6.967,2.235 -6.907,4.9c0.059,2.639 3.188,4.751 7.014,4.751h0.11c3.875,-0.042 6.967,-2.235 6.907,-4.9c-0.059,-2.64 -3.189,-4.752 -7.013,-4.752" fill="#ffffff" stroke="none" stroke-width="1" stroke-linecap="butt"/><path d="M241.46101,122.19c4.98852,0.04569 9.85123,1.57111 13.972,4.383l0.032,-3.1c0.01325,-1.24872 1.03628,-2.25025 2.285,-2.237c1.24872,0.01325 2.25025,1.03628 2.237,2.285l-0.044,4.184c-0.01389,1.4342 1.13583,2.60897 2.57,2.626l4.184,0.044c1.24844,0.01325 2.24975,1.03606 2.2365,2.2845c-0.01325,1.24844 -1.03606,2.24975 -2.2845,2.2365l-3.523,-0.037c2.27046,3.9233 3.44056,8.38641 3.387,12.919l-0.053,5.064l-50.64,-0.535l0.054,-5.064c0.148,-13.984 11.603,-25.2 25.587,-25.052" fill="#42210b" stroke="none" stroke-width="1" stroke-linecap="butt"/><path d="M216.39701,151.742l49.498,0.523l0.047,-4.493c0.04802,-4.42955 -1.09518,-8.79062 -3.31,-12.627l-0.502,-0.868l4.526,0.048c0.9321,0.00723 1.69492,-0.73995 1.707,-1.672c0.00622,-0.44835 -0.16737,-0.88052 -0.482,-1.2c-0.31297,-0.32124 -0.74152,-0.50382 -1.19,-0.507l-4.184,-0.045c-1.74851,-0.02087 -3.15056,-1.45244 -3.135,-3.201l0.044,-4.184c0.00589,-0.44829 -0.16765,-0.88034 -0.482,-1.2c-0.31293,-0.32142 -0.74142,-0.50434 -1.19,-0.508h-0.018c-0.924,0 -1.68,0.747 -1.69,1.672l-0.044,4.166l-0.881,-0.6c-4.02788,-2.74755 -8.78046,-4.23813 -13.656,-4.283l0.006,-0.571l-0.006,0.57h-0.268c-6.512,0 -12.649,2.502 -17.309,7.065c-4.70509,4.58192 -7.38162,10.85572 -7.433,17.423l-0.048,4.493zM267.02501,153.419l-51.781,-0.547l0.06,-5.635c0.072,-6.916 2.834,-13.389 7.775,-18.227c4.875,-4.773 11.296,-7.392 18.107,-7.392l0.28,0.002h0.001c4.74306,0.04385 9.38201,1.39581 13.406,3.907l0.022,-2.06c0.01805,-1.55088 1.27902,-2.79937 2.83,-2.802h0.03c0.75186,0.00636 1.47004,0.31272 1.995,0.851c0.529,0.54 0.816,1.255 0.808,2.01l-0.045,4.185c-0.01055,1.11961 0.88741,2.03636 2.007,2.049l4.184,0.044c0.757,0.008 1.465,0.31 1.994,0.85c0.529,0.54 0.816,1.255 0.808,2.011c-0.01806,1.55127 -1.27963,2.79992 -2.831,2.802h-0.03l-2.545,-0.027c2,3.791 3.03,8.038 2.984,12.344l-0.06,5.635z" fill="#42210b" stroke="none" stroke-width="1" stroke-linecap="butt"/><path d="M264.38701,150.162c2.8949,0.01705 5.24117,2.35261 5.27147,5.2474c0.0303,2.89479 -2.26657,5.27895 -5.16047,5.3566l-1.06,0.012c-0.27,0.002 -0.533,-0.021 -0.793,-0.058c-3.001,8.832 -11.313,15.231 -21.17,15.335c-9.918,0.105 -18.406,-6.196 -21.545,-15.05c-0.50144,0.15948 -1.02384,0.2434 -1.55,0.249l-1.06,0.011c-1.90531,0.03685 -3.6839,-0.95145 -4.6589,-2.58881c-0.97501,-1.63736 -0.99649,-3.67197 -0.05629,-5.32956c0.94021,-1.65759 2.69752,-2.68323 4.60319,-2.68663l1.06,-0.011c0.112,-0.001 0.22,0.007 0.33,0.013l-0.016,-1.496c-0.132,-12.486 9.882,-22.714 22.368,-22.846c12.486,-0.132 22.714,9.883 22.846,22.368l0.015,1.48l0.576,-0.006" data-paper-data="{&quot;origPos&quot;:null}" fill="#75574c" stroke="none" stroke-width="1" stroke-linecap="butt"/><path d="M234.69101,160.052l12.303,-0.13c0.59724,-0.00548 1.16163,0.27286 1.52085,0.75004c0.35921,0.47718 0.4706,1.09653 0.30015,1.66896c-1.03589,3.5011 -4.23452,5.91685 -7.88544,5.95543c-3.65093,0.03859 -6.8999,-2.30901 -8.00956,-5.78743c-0.18255,-0.5688 -0.08423,-1.19048 0.26494,-1.67518c0.34917,-0.4847 0.90772,-0.77484 1.50506,-0.78182z" fill="#42210b" stroke="none" stroke-width="1" stroke-linecap="butt"/><path d="M240.86501,164.271c2.598,-0.028 4.928,-0.95 6.472,0.9c-1.5557,1.9541 -3.90937,3.10284 -6.407,3.127c-2.49734,0.02826 -4.87442,-1.07047 -6.471,-2.991c1.504,-1.883 3.809,-1.009 6.406,-1.037" fill="#e3544f" stroke="none" stroke-width="1" stroke-linecap="butt"/><path d="M240.95001,161.808c2.457,-0.026 4.65,-0.268 6.154,-1.887l-12.367,0.131c1.54,1.586 3.756,1.782 6.213,1.756M239.31701,151.974c0.039,3.726 -2.35,6.226 -5.334,6.257c-2.985,0.032 -5.437,-2.416 -5.476,-6.143c-0.04,-3.727 2.348,-6.226 5.333,-6.258c2.985,-0.031 5.437,2.417 5.477,6.144M253.20001,151.974c0.04,3.726 -2.348,6.226 -5.333,6.257c-2.986,0.032 -5.437,-2.416 -5.477,-6.143c-0.04,-3.727 2.349,-6.226 5.334,-6.258c2.985,-0.031 5.437,2.417 5.476,6.144" fill="#ffffff" stroke="none" stroke-width="1" stroke-linecap="butt"/><path d="M238.08101,152.098c0.03,2.737 -1.724,4.402 -3.916,4.425c-2.192,0.023 -3.992,-1.604 -4.021,-4.34c-0.03,-2.737 1.724,-4.402 3.916,-4.426c2.192,-0.023 3.992,1.605 4.021,4.341M251.56301,152.098c0.029,2.737 -1.724,4.402 -3.916,4.425c-2.192,0.023 -3.993,-1.604 -4.022,-4.34c-0.028,-2.737 1.725,-4.402 3.917,-4.426c2.192,-0.023 3.992,1.605 4.021,4.341" fill="#42210b" stroke="none" stroke-width="1" stroke-linecap="butt"/><path d="M232.19401,161.267c0.04142,2.66505 -2.08545,4.85908 -4.7505,4.9005c-2.66505,0.04142 -4.85908,-2.08545 -4.9005,-4.7505c-0.00632,-2.64057 2.11072,-4.79593 4.75098,-4.83697c2.64026,-0.04104 4.82327,2.04748 4.89902,4.68697M259.164,160.85c0.04989,1.73857 -0.83958,3.36949 -2.32822,4.26898c-1.48864,0.89948 -3.34612,0.92835 -4.862,0.07558c-1.51588,-0.85278 -2.45561,-2.45527 -2.45978,-4.19455c-0.00632,-2.64057 2.11072,-4.79593 4.75098,-4.83697c2.64026,-0.04104 4.82327,2.04748 4.89902,4.68697" fill="#ecba97" stroke="none" stroke-width="1" stroke-linecap="butt"/><path d="M264.72001,145.85c0.08872,0.79071 0.13778,1.58538 0.147,2.381l0.034,3.303c-4.314,0.046 -8.03,-4.451 -9.457,-10.767c-2.95276,1.73828 -6.73667,1.01778 -8.844,-1.684c-1.273,1.70632 -3.2693,2.7209 -5.39804,2.74346c-2.12874,0.02256 -4.14609,-0.9495 -5.45496,-2.62846c-2.04962,2.74568 -5.81746,3.5458 -8.806,1.87c-1.294,6.345 -4.915,10.919 -9.229,10.965l-0.035,-3.303c-0.00772,-0.7884 0.02365,-1.5767 0.094,-2.362l-0.35,0.248c-0.139,-13.16 10.417,-23.941 23.577,-24.08c13.16,-0.139 23.94,10.416 24.08,23.576z" fill="#42210b" stroke="none" stroke-width="1" stroke-linecap="butt"/><path d="M218.45001,145.188l-0.11,1.23c-0.06856,0.76635 -0.09926,1.53562 -0.092,2.305l0.029,2.703c3.68,-0.423 6.893,-4.533 8.104,-10.472l0.157,-0.766l0.682,0.382c0.955,0.535 2.036,0.81 3.122,0.8c1.95237,-0.0164 3.78406,-0.94743 4.948,-2.515l0.447,-0.595l0.459,0.586c1.18222,1.52359 3.00354,2.41357 4.932,2.41h0.068c1.95216,-0.01711 3.78338,-0.94845 4.947,-2.516l0.447,-0.595l0.46,0.586c1.19677,1.54266 3.04771,2.43482 5,2.41c1.09247,-0.01312 2.16253,-0.31166 3.104,-0.866l0.674,-0.396l0.172,0.762c1.337,5.912 4.636,9.953 8.324,10.299l-0.028,-2.703c-0.00912,-0.77656 -0.05685,-1.55218 -0.143,-2.324l-0.143,-1.292l0.456,0.334c-0.733,-12.197 -10.89,-21.85 -23.212,-21.85l-0.25,0.001c-6.17165,0.04852 -12.06738,2.5641 -16.373,6.986c-4.088,4.174 -6.416,9.61 -6.625,15.41zM217.14801,152.61l-0.042,-3.874c-0.004,-0.4 0.003,-0.804 0.019,-1.211l-0.263,0.186l-0.011,-1.09c-0.086,-6.47425 2.42165,-12.71385 6.964,-17.328c4.58036,-4.70434 10.87317,-7.34934 17.439,-7.33c13.335,0 24.253,10.776 24.395,24.143l0.012,1.141l-0.265,-0.194c0.023,0.394 0.037,0.785 0.041,1.172l0.041,3.874l-0.57,0.006h-0.07c-4.28,0 -8.144,-4.176 -9.778,-10.495c-0.94157,0.4317 -1.96326,0.66097 -2.999,0.673c-2.06166,0.02754 -4.04001,-0.8125 -5.452,-2.315c-1.37966,1.53189 -3.33947,2.41365 -5.401,2.43c-2.06144,0.02642 -4.03937,-0.81343 -5.452,-2.315c-1.37997,1.53205 -3.34015,2.4138 -5.402,2.43c-1.03563,0.00974 -2.06177,-0.19808 -3.012,-0.61c-1.508,6.386 -5.317,10.655 -9.624,10.7z" fill="#42210b" stroke="none" stroke-width="1" stroke-linecap="butt"/><path d="M265.938,139.662c0.58585,1.85293 0.96089,3.76602 1.118,5.703h-51.607c0.16167,-1.93744 0.54106,-3.8505 1.131,-5.703h49.358" fill="#ffffff" stroke="none" stroke-width="1" stroke-linecap="butt"/><path d="M266.48201,141.658c0.13055,0.56608 0.24194,1.1364 0.334,1.71h-51.12c0.09279,-0.57361 0.20486,-1.14393 0.336,-1.71h50.45" fill="#e3544f" stroke="none" stroke-width="1" stroke-linecap="butt"/><path d="M246.67901,137.182c-1.27273,1.70707 -3.26935,2.7222 -5.39853,2.74476c-2.12918,0.02256 -4.14686,-0.95004 -5.45547,-2.62976" fill="#42210b" stroke="none" stroke-width="1" stroke-linecap="butt"/><path d="M246.67901,137.182c-1.27273,1.70707 -3.26935,2.7222 -5.39853,2.74476c-2.12918,0.02256 -4.14686,-0.95004 -5.45547,-2.62976" fill="none" stroke="#42210b" stroke-width="1.142" stroke-linecap="butt"/><path d="M238.23501,139.083c-1.27276,1.70668 -3.26914,2.72155 -5.39803,2.74411c-2.12889,0.02256 -4.14633,-0.94978 -5.45497,-2.62911" fill="#42210b" stroke="none" stroke-width="1" stroke-linecap="butt"/><path d="M238.23501,139.083c-1.27276,1.70668 -3.26914,2.72155 -5.39803,2.74411c-2.12889,0.02256 -4.14633,-0.94978 -5.45497,-2.62911" fill="none" stroke="#42210b" stroke-width="1.142" stroke-linecap="butt"/><path d="M257.05601,139.083c-1.27276,1.70668 -3.26914,2.72155 -5.39803,2.74411c-2.12889,0.02256 -4.14633,-0.94978 -5.45497,-2.62911" fill="#42210b" stroke="none" stroke-width="1" stroke-linecap="butt"/><path d="M257.05601,139.083c-1.27276,1.70668 -3.26914,2.72155 -5.39803,2.74411c-2.12889,0.02256 -4.14633,-0.94978 -5.45497,-2.62911" fill="none" stroke="#42210b" stroke-width="1.142" stroke-linecap="butt"/><path d="M238.06401,150.533c0.01998,0.54498 -0.25937,1.05734 -0.7283,1.33576c-0.46892,0.27842 -1.05249,0.27842 -1.52141,0c-0.46892,-0.27842 -0.74827,-0.79078 -0.7283,-1.33576c0.02937,-0.80113 0.68734,-1.43542 1.489,-1.43542c0.80166,0 1.45963,0.63429 1.489,1.43542M251.62501,150.533c0.01998,0.54498 -0.25937,1.05734 -0.7283,1.33576c-0.46892,0.27842 -1.05249,0.27842 -1.52141,0c-0.46892,-0.27842 -0.74827,-0.79078 -0.7283,-1.33576c0.02937,-0.80113 0.68734,-1.43542 1.489,-1.43542c0.80166,0 1.45963,0.63429 1.489,1.43542" fill="#ffffff" stroke="none" stroke-width="1" stroke-linecap="butt"/><path d="M212.93001,143.857c1.225,-0.367 2.453,0.583 2.73,2.057l0.669,3.868c0.661,3.508 -1.521,5.716 -4.482,6.603c-2.962,0.887 -5.998,0.241 -7.374,-3.053l-1.568,-3.597c-0.578,-1.385 -0.075,-2.853 1.15,-3.22c1.226,-0.367 2.624,0.532 3.102,1.946c-0.478,-1.414 -1.112,-3.286 0.955,-4.036c2.067,-0.748 2.919,1.318 3.297,2.762c-0.379,-1.444 0.295,-2.963 1.521,-3.33" data-paper-data="{&quot;origPos&quot;:null}" fill="#584239" stroke="none" stroke-width="1" stroke-linecap="butt"/><path d="M216.51465,168.22936c-3.555,-4.167 -5.652,-9.29 -5.652,-14.83" data-paper-data="{&quot;origPos&quot;:null}" fill="none" stroke="#584239" stroke-width="9.506" stroke-linecap="butt"/><path d="M216.07101,152.607c-1.28268,0.38384 -2.63366,-0.34482 -3.0175,-1.6275c-0.38384,-1.28268 0.34482,-2.63366 1.6275,-3.0175l2.262,-0.678c1.28268,-0.38439 2.63411,0.34382 3.0185,1.6265c0.38439,1.28268 -0.34382,2.63411 -1.6265,3.0185l-2.263,0.678M272.02601,198.337c0.119,-1.254 1.529,-2.147 3.149,-1.994c1.62,0.153 2.459,1.258 2.341,2.513c-0.119,1.254 -1.15,2.183 -2.77,2.03c-1.62,-0.153 -2.838,-1.294 -2.72,-2.549" data-paper-data="{&quot;origPos&quot;:null}" fill="#584239" stroke="none" stroke-width="1" stroke-linecap="butt"/><path d="M276.10001,195.694c-1.809,6.089 -8.212,9.559 -14.3,7.75c-6.09,-1.81 -9.56,-8.213 -7.75,-14.302c1.809,-6.09 8.212,-9.559 14.301,-7.75c6.09,1.81 9.559,8.213 7.75,14.302" fill="#9d6345" stroke="none" stroke-width="1" stroke-linecap="butt"/><path d="M269.36501,189.845c-1.09299,-0.0014 -2.18056,-0.1535 -3.232,-0.452l-0.782,2.63l10.869,3.23c-0.03678,0.14743 -0.07646,0.29413 -0.119,0.44c-0.03,0.099 -0.063,0.194 -0.095,0.29l-10.872,-3.23l-1.303,4.385c2.84361,0.88301 5.25012,2.805 6.74,5.383c-0.223,0.122 -0.452,0.233 -0.682,0.34c-1.39474,-2.38916 -3.63272,-4.1702 -6.274,-4.993l-1.669,5.615c-0.049,-0.014 -0.098,-0.025 -0.146,-0.04c-0.197,-0.058 -0.39,-0.121 -0.58,-0.188l1.66,-5.59c-0.858,-0.205 -1.722,-0.306 -2.572,-0.306c-1.72494,0.0021 -3.42576,0.4054 -4.968,1.178c-0.137,-0.217 -0.267,-0.437 -0.389,-0.662c2.51523,-1.27944 5.40601,-1.61404 8.147,-0.943l1.306,-4.396l-10.434,-3.1c0.027,-0.098 0.05,-0.196 0.08,-0.294c0.043,-0.147 0.092,-0.291 0.141,-0.435l10.43,3.099l0.786,-2.643c-3.02505,-1.07014 -5.48739,-3.32034 -6.825,-6.237c0.212,-0.145 0.429,-0.282 0.649,-0.412c1.23611,2.76077 3.54502,4.89776 6.393,5.917l2.139,-7.196c0.19734,0.04719 0.3934,0.09954 0.588,0.157c0.049,0.015 0.097,0.032 0.145,0.048l-2.146,7.221c3.064,0.86436 6.35163,0.37202 9.028,-1.352c0.11449,0.23035 0.22122,0.46448 0.32,0.702c-1.873,1.177 -4.065,1.834 -6.333,1.834" fill="#603813" stroke="none" stroke-width="1" stroke-linecap="butt"/><path d="M273.09701,195.873c0,0 1.439,2.05 1.456,2.077l0.003,-0.003c1.733,2.461 0.528,4.914 -1.89,6.616c-2.418,1.703 -5.134,2.009 -6.866,-0.451l0.004,-0.003c-0.02,-0.025 -1.465,-2.071 -1.465,-2.071c-0.56747,-0.80634 -0.37384,-1.92003 0.4325,-2.4875c0.80634,-0.56747 1.92003,-0.37384 2.4875,0.4325c-0.53922,-0.80554 -0.33698,-1.89419 0.45556,-2.45234c0.79254,-0.55815 1.88568,-0.38176 2.46244,0.39734c-0.56747,-0.80634 -0.37384,-1.92003 0.4325,-2.4875c0.80634,-0.56747 1.92003,-0.37384 2.4875,0.4325" data-paper-data="{&quot;origPos&quot;:null}" fill="#584239" stroke="none" stroke-width="1" stroke-linecap="butt"/><text transform="translate(204.00001,136.4256)" font-size="13.688" xml:space="preserve" fill="#ffffff" fill-rule="evenodd" stroke="none" stroke-width="1" stroke-linecap="butt" stroke-linejoin="miter" stroke-miterlimit="10" stroke-dasharray="" stroke-dashoffset="0" font-family="PingFangSC-Semibold, PingFang SC" font-weight="500" text-anchor="start" style="mix-blend-mode: normal"><tspan x="0" dy="0">11</tspan></text><path d="M244.62801,205.663c-1.018,0.67 -2.425,1.083 -3.979,1.083c-1.295,0 -2.489,-0.288 -3.44,-0.771" fill="#e6e6e6" stroke="none" stroke-width="1" stroke-linecap="butt"/><path d="M244.62801,205.663c-1.018,0.67 -2.425,1.083 -3.979,1.083c-1.295,0 -2.489,-0.288 -3.44,-0.771" fill="none" stroke="#e6e6e6" stroke-width="0.951" stroke-linecap="round"/><path d="M229.96401,213.712l-1.075,-0.056l0.736,-14.205l1.074,0.056zM227.59601,213.712l-1.074,-0.056l0.735,-14.205l1.075,0.056zM255.14901,213.735l-1.356,-14.205l1.07,-0.102l1.357,14.205zM252.78101,213.735l-1.356,-14.205l1.071,-0.102l1.356,14.205z" fill="#e3544f" stroke="none" stroke-width="1" stroke-linecap="butt"/><path d="M220.51101,164.033c-0.371,-0.726 -0.704,-1.471 -0.998,-2.233c-0.168,0.034 -0.338,0.06 -0.508,0.08c0.45272,0.75091 0.95587,1.47023 1.506,2.153zM257.72601,120h0.037c0.92846,0.00712 1.81544,0.3856 2.463,1.051c0.65089,0.66119 1.01025,1.55527 0.998,2.483l-0.044,4.184c-0.00722,0.75162 0.5954,1.36721 1.347,1.376l4.184,0.045c0.92792,0.00734 1.81439,0.3854 2.462,1.05c0.65123,0.66137 1.01063,1.55591 0.998,2.484c-0.02671,1.91375 -1.58207,3.4531 -3.496,3.46h-0.038l-1.454,-0.016c0.84155,1.72162 1.49467,3.5291 1.948,5.391l0.005,0.022c0.06864,0.29986 0.13198,0.60091 0.19,0.903l0.006,0.034c0.046,0.24 0.088,0.477 0.126,0.706l0.005,0.03l0.01,0.06c0.10858,0.67924 0.19098,1.36242 0.247,2.048c0.00786,0.09491 -0.00476,0.19039 -0.037,0.28c0.05211,0.73213 0.0748,1.46605 0.068,2.2l-0.029,2.688c1.65625,1.09401 2.66324,2.93722 2.689,4.922c0.02106,1.58341 -0.59216,3.10944 -1.703,4.238c-1.10499,1.13488 -2.61808,1.78052 -4.202,1.793l-1.06,0.011h-0.05c-0.097,0 -0.195,-0.003 -0.297,-0.008c-1.879,5.132 -5.567,9.49 -10.299,12.212c3.03144,0.92139 5.93541,2.21918 8.644,3.863c0.55345,0.3374 0.85213,0.97254 0.759,1.614c0.56775,0.37902 1.12432,0.77452 1.669,1.186c1.56031,-0.15577 3.13602,-0.00771 4.64,0.436c0.04464,0.013 0.08899,0.027 0.133,0.042l0.05,0.016c3.28521,1.02663 5.98306,3.39465 7.427,6.519l0.06,0.132l0.006,0.013l0.008,0.019c0.04008,0.08819 0.07908,0.17686 0.117,0.266v0.002l0.002,0.006c1.09632,2.65111 1.22273,5.60389 0.357,8.339c1.044,0.56 1.621,1.608 1.507,2.818c-0.123,1.301 -1.022,2.282 -2.296,2.565c-0.362,1.324 -1.333,2.568 -2.834,3.624c-1.353,0.954 -2.74,1.457 -4.01,1.457c-1.488,0 -2.771,-0.684 -3.719,-1.981c-1.20396,0.02273 -2.40465,-0.13296 -3.563,-0.462l-0.014,-0.004l-0.01,-0.002l-0.036,-0.01c-0.99803,-0.28697 -1.95492,-0.70138 -2.847,-1.233l0.08,0.674c0.06735,0.57174 -0.09994,1.14637 -0.46365,1.59262c-0.36371,0.44625 -0.89278,0.72601 -1.46635,0.77538l0.658,7.713c0.01597,0.18567 -0.04669,0.36952 -0.17274,0.50679c-0.12605,0.13726 -0.3039,0.21534 -0.49026,0.21521h-0.403l2.105,15.597c2.837,0.519 5.206,3.175 5.62,6.404l0.256,1.993c0.013,0.1 0.017,0.201 0.013,0.3c-0.03,0.598 -0.391,1.102 -0.92,1.283c-0.146,0.05 -0.284,0.074 -0.424,0.074h-16.462c-0.03076,-0.00002 -0.06149,-0.00202 -0.092,-0.006c-0.054,-0.004 -0.108,-0.011 -0.163,-0.021l-0.24,0.023c-0.18166,0.01831 -0.36287,-0.03875 -0.50125,-0.15785c-0.13838,-0.1191 -0.2218,-0.28979 -0.23075,-0.47215l-0.007,-0.095c-0.132,-0.218 -0.212,-0.463 -0.234,-0.722l-0.601,-7.093c-0.028,-0.326 0.047,-0.646 0.209,-0.916l-0.418,-5.828c-0.00336,-0.05077 -0.00101,-0.10175 0.007,-0.152l-0.72,-10.21h-1.86c-0.322,0 -0.598,-0.232 -0.655,-0.55l-0.421,-2.373l-0.421,2.373c-0.05627,0.31765 -0.33241,0.54909 -0.655,0.549h-1.915l-0.735,10.363l-0.436,6.146c0.06134,0.19301 0.0841,0.3962 0.067,0.598l-0.601,7.092c-0.005,0.06 -0.014,0.112 -0.023,0.154l-0.048,0.68c-0.01262,0.1794 -0.09736,0.34605 -0.2349,0.46192c-0.13754,0.11587 -0.31615,0.1711 -0.4951,0.15308l-0.356,-0.036c-0.08102,0.01972 -0.16372,0.03177 -0.247,0.036l-0.064,0.003h-16.461c-0.107,0 -0.212,-0.012 -0.314,-0.038c-0.584,-0.142 -0.998,-0.672 -1.03,-1.32c-0.00493,-0.10016 -0.00092,-0.20056 0.012,-0.3l0.068,-0.53l0.187,-1.462c0.21578,-1.69254 0.97354,-3.2698 2.16,-4.496c1.038,-1.063 2.313,-1.739 3.638,-1.939l0.723,-5.34l1.384,-10.226h-0.345c-0.18289,-0.00027 -0.35762,-0.07573 -0.4832,-0.20869c-0.12558,-0.13296 -0.19096,-0.31171 -0.1808,-0.49431l0.44,-7.725h-0.337c-0.392,0 -0.759,-0.169 -1.032,-0.477c-0.316,-0.355 -0.464,-0.845 -0.405,-1.342l2.674,-22.554c-1.77183,-0.73429 -3.48483,-1.60317 -5.124,-2.599c-0.48226,-0.29437 -0.77603,-0.819 -0.775,-1.384c-1.10498,-0.73788 -2.16672,-1.53853 -3.18,-2.398c-4.745,-4.032 -8.072,-9.102 -9.62,-14.662l-0.006,-0.022c-0.153,-0.547 -0.289,-1.106 -0.405,-1.657l-0.012,-0.054l-0.019,-0.09l-0.076,-0.386l-0.002,-0.012c-0.06444,-0.34126 -0.12279,-0.68365 -0.175,-1.027l-0.01,-0.06l-0.036,-0.252c-0.026,-0.18 -0.048,-0.36 -0.07,-0.54l-0.006,-0.055l-0.012,-0.093c-0.856,-0.644 -1.528,-1.538 -1.998,-2.663l-1.566,-3.594l-0.002,-0.008c-0.388,-0.927 -0.389,-1.926 -0.003,-2.742c0.3032,-0.66243 0.87653,-1.16256 1.574,-1.373c0.24562,-0.07336 0.50065,-0.11042 0.757,-0.11c0.4879,0.00356 0.96752,0.12647 1.397,0.358c0.072,-1.105 0.717,-1.908 1.868,-2.325c0.363,-0.132 0.719,-0.199 1.057,-0.199c0.635,0 1.41,0.235 2.08,1.112c0.361,-0.715 0.959,-1.267 1.716,-1.493c0.237,-0.071 0.48,-0.107 0.724,-0.107c0.5229,0.00323 1.03271,0.16387 1.463,0.461c0.37891,-2.58108 1.14027,-5.09131 2.259,-7.448c1.34645,-2.83181 3.1846,-5.40231 5.429,-7.592c4.95221,-4.87194 11.62506,-7.59577 18.572,-7.581c4.56573,-0.00341 9.05497,1.17221 13.033,3.413l0.01,-0.906c0.02618,-1.91398 1.58185,-3.45363 3.496,-3.46zM220.36501,164.908l0.005,-0.004c-0.95853,-1.11941 -1.78964,-2.34192 -2.478,-3.645l0.49,-0.005c0.52549,-0.00575 1.04721,-0.08967 1.548,-0.249c0.7961,2.24044 1.94122,4.34101 3.393,6.224c-0.10222,0.07679 -0.18792,0.17337 -0.252,0.284h-0.001l-0.02,0.044c-0.982,-0.819 -1.88,-1.705 -2.685,-2.649zM254.89401,123.467l-0.022,2.059c-4.10469,-2.56159 -8.8476,-3.91591 -13.686,-3.908c-6.811,0 -13.232,2.619 -18.107,7.392c-4.439,4.347 -7.118,10.013 -7.67,16.134c-0.4,-0.832 -1.143,-1.366 -1.946,-1.366c-0.18095,0.00041 -0.36087,0.02736 -0.534,0.08c-1.225,0.366 -1.898,1.885 -1.52,3.33c-0.323,-1.234 -0.991,-2.922 -2.467,-2.922c-0.252,0 -0.528,0.05 -0.83,0.16c-2.067,0.749 -1.433,2.621 -0.955,4.035c-0.406,-1.2 -1.473,-2.028 -2.536,-2.028c-0.19,0 -0.38,0.026 -0.566,0.081c-1.225,0.368 -1.728,1.836 -1.15,3.22l1.568,3.599c0.488,1.169 1.187,2.004 2.017,2.555l0.024,0.238l0.024,0.201c0.02058,0.17588 0.04292,0.35156 0.067,0.527l0.046,0.305c0.04998,0.3345 0.10699,0.6679 0.171,1c0.025,0.13 0.049,0.26 0.075,0.388l0.03,0.14c0.11516,0.54332 0.24723,1.08291 0.396,1.618l0.005,0.022c1.507,5.408 4.72,10.347 9.41,14.333c1.1007,0.93405 2.25971,1.79712 3.47,2.584l-0.017,0.058c-0.12105,0.41282 0.05043,0.85547 0.418,1.079c1.75319,1.06538 3.59224,1.98256 5.498,2.742l-2.733,23.057c-0.067,0.568 0.299,1.076 0.776,1.076h1.04l-0.48,8.428h1.108l-1.487,10.98l-0.793,5.86c-2.781,0.137 -5.312,2.68 -5.726,5.91l-0.188,1.463l-0.068,0.53c-0.00776,0.06067 -0.0101,0.12191 -0.007,0.183c0.017,0.354 0.224,0.633 0.522,0.706c0.05139,0.01256 0.1041,0.01893 0.157,0.019h16.461l0.015,-0.002c0.0795,-0.0027 0.15796,-0.01893 0.232,-0.048l0.486,0.05l0.052,-0.724c0.008,-0.038 0.016,-0.078 0.02,-0.118l0.601,-7.093c0.01282,-0.15193 -0.01406,-0.30458 -0.078,-0.443l0.445,-6.293l0.78,-10.98h2.535l1.076,-6.066l1.076,6.066h2.48l0.774,10.98h-0.017l0.436,6.073c-0.16808,0.17777 -0.25119,0.41946 -0.228,0.663l0.601,7.093c0.01658,0.20099 0.09402,0.39215 0.222,0.548l0.02,0.278h0.001l0.001,0.016l0.354,-0.036c0.05736,0.01829 0.11686,0.02905 0.177,0.032c0.01,0.001 0.02,0.004 0.03,0.004h16.461c0.07168,-0.00124 0.14265,-0.01442 0.21,-0.039c0.269,-0.092 0.453,-0.354 0.47,-0.686c0.002,-0.059 0,-0.12 -0.008,-0.183l-0.256,-1.993c-0.405,-3.162 -2.839,-5.665 -5.551,-5.897l-2.275,-16.853h1.164l-0.72,-8.428h0.544c0.41721,0.00005 0.8145,-0.17839 1.09161,-0.49028c0.27711,-0.31189 0.40754,-0.72742 0.35839,-1.14172l-0.252,-2.124c1.12813,0.87861 2.41095,1.53799 3.782,1.944l0.117,0.03l0.03,0.01c1.20638,0.34216 2.4606,0.48471 3.713,0.422c0.0481,0.06784 0.09643,0.1355 0.145,0.203l-0.004,0.003c0.881,1.251 2.017,1.787 3.238,1.787c1.18,0 2.44,-0.499 3.628,-1.336c1.435,-1.01 2.443,-2.285 2.663,-3.67c1.282,-0.094 2.083,-0.941 2.187,-2.037c0.1,-1.07 -0.497,-2.029 -1.68,-2.384c1.03585,-2.73494 0.98612,-5.76255 -0.139,-8.462c-0.038,-0.09 -0.078,-0.18 -0.118,-0.27c-1.3422,-3.02303 -3.92407,-5.31949 -7.083,-6.3c-0.049,-0.016 -0.095,-0.033 -0.145,-0.048l-0.02,-0.005c-1.50714,-0.44607 -3.08985,-0.5778 -4.65,-0.387c-0.72583,-0.55685 -1.47377,-1.08428 -2.242,-1.581l0.077,-0.259c0.12207,-0.41344 -0.04954,-0.85724 -0.418,-1.081c-3.13479,-1.89989 -6.53126,-3.32977 -10.081,-4.244c5.477,-2.63694 9.66649,-7.36178 11.629,-13.115c0.245,0.035 0.495,0.057 0.75,0.057h0.044l1.06,-0.01c2.39766,-0.02651 4.47922,-1.65861 5.07696,-3.98072c0.59774,-2.32211 -0.43709,-4.7564 -2.52396,-5.93728l0.032,-3.064c0.009,-0.81 -0.021,-1.617 -0.088,-2.42h0.06c-0.055,-0.671 -0.137,-1.336 -0.243,-1.996h0.003c-0.04251,-0.25967 -0.08885,-0.5187 -0.139,-0.777c-0.005,-0.031 -0.01,-0.062 -0.017,-0.094c-0.053,-0.274 -0.112,-0.547 -0.174,-0.82l-0.005,-0.02c-0.155,-0.674 -0.335,-1.34 -0.543,-1.996h-0.073c-0.46242,-1.45688 -1.05341,-2.86977 -1.766,-4.222l2.545,0.027h0.03c1.55099,-0.00208 2.8124,-1.25012 2.831,-2.801c0.008,-0.757 -0.279,-1.472 -0.808,-2.012c-0.53,-0.54 -1.237,-0.842 -1.994,-0.85l-4.184,-0.044c-1.11959,-0.01264 -2.01755,-0.92939 -2.007,-2.049l0.045,-4.185c0.008,-0.755 -0.279,-1.47 -0.809,-2.01c-0.529,-0.541 -1.237,-0.842 -1.993,-0.851h-0.03c-1.55176,0.00154 -2.81394,1.25034 -2.832,2.802z" data-paper-data="{&quot;origPos&quot;:null}" fill="#1a1a1a" stroke="none" stroke-width="1" stroke-linecap="butt"/></g></g></svg>