<svg xmlns="http://www.w3.org/2000/svg" xmlns:xlink="http://www.w3.org/1999/xlink" width="120" height="120"><defs><path id="a" d="M.093.155h45.54v76.427H.093z"/></defs><g fill="none" fill-rule="evenodd"><path fill="#759B68" d="M45.844 0c-10.413 0-45.68 71.026-.098 76.389l.27.038C91.145 70.84 56.256 0 45.843 0"/><path fill="#6F5037" d="m43.8 17.57-.947 92.352 8.515.946-5.085-70.673-1.342-21.942z"/><path fill="#6F5037" d="M47.11 67.866s11.826-10.879 12.771-12.298c.947-1.42 2.366-.315 2.366-.315L47.583 72.596l-.473-4.73zm-2.659-12.862L32.447 40.747l-.246 1.272 11.76 16.783zm-.179 11.128-14.978-8.83.013 1.242L44.78 68.853zm2.208-19.551 10.405-14.664.316 1.893L46.48 51.311z"/><g transform="translate(50.874 8.543)"><mask id="b" fill="#fff"><use xlink:href="#a"/></mask><path fill="#ABB33A" d="M22.938.155c-10.414 0-45.68 71.026-.1 76.388l.27.039C68.238 70.994 33.351.155 22.938.155" mask="url(#b)"/></g><path fill="#A0713F" d="m71.766 26.268-.946 92.352 8.515.947-5.085-70.673-1.342-21.943z"/><path fill="#A0713F" d="M75.078 76.564s11.824-10.879 12.77-12.298c.946-1.42 2.366-.315 2.366-.315L75.55 81.294l-.472-4.73zm-2.66-12.862L60.414 49.445l-.247 1.272L71.928 67.5zM72.24 74.83 57.26 66l.015 1.242L72.748 77.55zm2.207-19.55 10.405-14.664.316 1.892-10.721 17.5z"/></g></svg>