<svg xmlns="http://www.w3.org/2000/svg" width="60.823" height="117.614"><g fill-rule="evenodd" stroke-miterlimit="10" data-paper-data="{&quot;isPaintingLayer&quot;:true}" style="mix-blend-mode:normal"><path fill="#000001" d="M45.059 111.637c1.795 1.112 3.103 3.472 1.564 5.33-1.164 1.314-2.878.31-4.18-.237-1.434-.69-3.08-1.153-4.377-2.05-.842-.593-1.83-1.3-2.4-2.178-.174-.273-.255-.604-.194-.864h9.587zm-20.478 0c-1.798 1.112-3.103 3.472-1.564 5.33 1.163 1.314 2.878.31 4.174-.237 1.44-.69 3.084-1.153 4.383-2.05.839-.593 1.829-1.3 2.394-2.178.18-.273.26-.604.198-.864H24.58z"/><path fill="#bc1718" d="m47.239 85.332-2.18 26.3h-9.586l-.49-19.007h-.286l-.535 19.008h-9.58l-2.143-26.3z"/><path fill="#2c1f0b" d="M24.365 45.495c.326-1.102-.052-3.063-.47-3.752-.173-.283-.695-.73-1.12-1.075.065-.385.103-.731.044-1.062-.09-.507-1.044-1.435-1.595-1.435a.43.43 0 0 0-.182.038c-.218.107-.38.34-.486.693-.32 1.084.043 3 .457 3.718-.205.117-.358.342-.457.674-.324 1.108.054 3.064.475 3.757.04.065.103.147.18.228-.045.07-.085.142-.12.218-.492 1.04-.423 3.034-.114 3.785.029.06.07.138.126.224-.543.822-.936 2.12-.966 2.937-.902.67-1.827 2.158-1.986 2.948a.829.829 0 0 0-.02.147c-1.031.365-2.27 1.3-2.667 1.913a1.265 1.265 0 0 0-.126.25c-.983 0-2.236.292-2.794.65-.282.176-.716.708-1.051 1.143a4.5 4.5 0 0 0-.673-.066c-.14 0-.263.01-.38.038-.392.077-1.028.68-1.292 1.216-.117.243-.141.449-.067.594.24.482 1.012.584 1.615.584.914 0 2.06-.247 2.669-.573a.5.5 0 0 0 .153.272c.14.11.326.167.558.167 1.078 0 2.932-1.288 3.438-2.067l.025-.045c.085.167.19.276.31.317a.775.775 0 0 0 .207.027c.972 0 2.33-1.87 2.723-2.98.114.109.234.168.344.168h.007c.247 0 .497-.138.744-.41.725-.797 1.283-2.59 1.24-3.503h.02a.375.375 0 0 0 .11-.018c.235-.068.433-.276.59-.607.486-1.041.416-3.031.113-3.78a1.642 1.642 0 0 0-.122-.225c.02-.004.036-.011.052-.018.223-.111.387-.342.488-.695.322-1.087-.045-3.002-.454-3.72.207-.116.36-.342.454-.675m21.129 0c-.322-1.102.059-3.063.477-3.752.173-.283.693-.73 1.118-1.075-.067-.385-.105-.731-.05-1.062.095-.507 1.052-1.435 1.6-1.435.068 0 .127.013.178.038.223.107.387.34.489.693.32 1.084-.043 3-.455 3.718.205.117.358.342.455.674.328 1.108-.054 3.064-.475 3.757-.04.065-.104.147-.178.228.04.066.08.136.122.218.488 1.04.416 3.034.112 3.785-.03.06-.072.138-.124.224.54.822.936 2.12.96 2.937.908.67 1.83 2.158 1.992 2.948.01.048.014.098.014.147 1.037.365 2.27 1.3 2.67 1.913.043.062.084.148.127.25.983 0 2.236.292 2.796.65.277.176.714.708 1.047 1.143a4.5 4.5 0 0 1 .672-.066c.14 0 .266.01.383.038.39.077 1.028.68 1.29 1.216.116.243.14.449.069.594-.243.482-1.01.584-1.618.584-.91 0-2.06-.247-2.666-.573a.502.502 0 0 1-.155.272c-.14.11-.324.167-.558.167-1.078 0-2.93-1.288-3.434-2.067a.223.223 0 0 1-.03-.045c-.082.167-.188.276-.31.317a.754.754 0 0 1-.202.027c-.977 0-2.336-1.87-2.725-2.98-.117.109-.232.168-.342.168h-.011c-.243 0-.493-.138-.745-.41-.724-.797-1.28-2.59-1.235-3.503h-.023a.352.352 0 0 1-.11-.018c-.234-.068-.434-.276-.59-.607-.49-1.041-.418-3.031-.112-3.78.025-.066.07-.141.12-.225a.349.349 0 0 1-.052-.018c-.223-.111-.387-.342-.49-.695-.318-1.087.046-3.002.458-3.72-.21-.116-.358-.342-.46-.675" data-paper-data="{&quot;origPos&quot;:null}"/><path fill="#77584e" d="M1.87 42.03c1.199-.511 2.637-.042 3.8 1.085.528-.797 1.152-1.24 1.73-1.13 1.08.21 1.586 2.292 1.134 4.644-.175.9-.463 1.71-.815 2.352a4.746 4.746 0 0 1-.207.834l5.486 6.486 11.637-4.195s-1.978 3.16-2.466 4.31c-.358.843-1.042 3.499-1.042 3.499s-8.503 3.48-10.915 2.597c-2.98-1.09-6.4-10.861-6.4-10.861-1.285-.462-2.527-1.694-3.245-3.396-1.116-2.656-.533-5.44 1.303-6.224m51.36 15.687c3.657 4.705 5.056 18.854 5.056 18.854s0-.023-.004-.064c.47.686.803 1.574.904 2.57.252 2.366-.873 4.424-2.51 4.596-1.067.116-2.09-.602-2.741-1.772-.605.502-1.206.704-1.634.475-.805-.43-.708-2.192.214-3.942a6.6 6.6 0 0 1 1.202-1.657c.033-.07.07-.145.11-.213 0 0-1.59-10.216-3.287-12.632-.85-1.211-1.443-2.096-1.638-2.633-.156-.43-.282-1.05-.35-1.363-.544-2.423-3.527-7.897-3.527-7.897s6.424 3.387 8.206 5.678" data-paper-data="{&quot;origPos&quot;:null}"/><path fill="#bcbbbb" d="M50.66 81.328c.727 2.187 4.34 24.66 4.34 30.985-4.518 4.75-34.663 4.644-39.842.004 0-6.61 3.178-29.064 3.82-31.043.06-3.401 1.289-20.105 2.056-21.275-.731.334-8.716 3.859-11.214 3.2-2.146-.566-5.596-6.548-7.27-10.795.979-1.613 3.607-2.702 5.589-2.957 1.328 2.037 2.955 4.605 4.892 6.71l9.228-3.232c1.372-.811 3.534-1.522 4.81-1.74 2.619-.586 5.954-.715 5.954-.715l1.75.027h.145l1.74-.027s3.61.14 6.289.797c1.237.269 3.535 1.146 4.59 2.107.027.014.049.028.074.04 1.967 1.068 4.854 3.094 6.104 4.79 1.463 1.983 5.202 13.816 5.355 18.363-1.462.78-4.594.826-6.142 0-.191-1.673-2.977-13.78-3.888-14.903.22.904 1.63 14.104 1.62 19.664"/><path fill="#9b1826" d="m17.518 112.622-1.24-.05c.457-11.71 2.606-26.928 4.34-34.307l1.207.283c-1.721 7.327-3.854 22.436-4.307 34.074m3.393.975-1.24-.032c.304-13.028 2.316-27.15 3.947-35.282l1.213.249c-1.618 8.08-3.616 22.116-3.92 35.065m3.459 1.043-1.24-.016c.144-12.425 2.353-28.73 3.88-36.341l1.214.249c-1.512 7.562-3.713 23.764-3.854 36.108m2.808.124c-.04-13.621 1.527-28.662 3.093-36.48l1.218.247c-1.553 7.755-3.108 22.694-3.072 36.23l-1.24.003zm4.438.332c-.054-8.104.455-28.43 1.586-36.772l1.23.167c-1.122 8.287-1.63 28.524-1.58 36.596zm22.074-2.474h-1.24c0-11.887-2.77-26.86-4.63-34.044l1.199-.31c1.876 7.247 4.67 22.333 4.67 34.354m-4.57.985c-.645-15.17-2.54-26.243-4.31-35.076l1.217-.25c1.78 8.879 3.685 20.014 4.333 35.275l-1.24.052zm-2.608 1.05h-1.24c0-12.48-2.077-27.241-3.855-36.117l1.215-.24c1.79 8.935 3.882 23.812 3.882 36.358m-5.288.106c-.02-13.17-1.575-28.766-3.072-36.233l1.215-.247c1.72 8.586 3.083 24.61 3.096 36.478l-1.24.002zm-3.197.332-1.242-.01c.056-8.07-.455-28.308-1.575-36.595l1.228-.167c1.13 8.343 1.638 28.668 1.589 36.772"/><path fill="#721f2b" d="M15.165 111.655c10.858 4.182 28.874 4.182 39.818-.002.009.235.016.455.016.659-4.518 4.752-34.661 4.646-39.843.004 0-.22.002-.44.009-.661"/><path fill="#eeeeed" d="M50.59 78.602H19.097c.338-5.858 1.3-17.63 1.938-18.603-.732.333-8.717 3.859-11.215 3.2-2.146-.566-5.593-6.548-7.27-10.796.98-1.612 3.608-2.701 5.59-2.956 1.33 2.037 2.954 4.605 4.894 6.71l9.225-3.233c1.374-.811 3.534-1.521 4.81-1.737 2.619-.588 5.954-.717 5.954-.717l1.752.027h.145l1.74-.027s3.61.14 6.29.797c1.235.269 3.532 1.145 4.59 2.107.024.014.047.028.072.04 1.966 1.068 4.853 3.094 6.106 4.79 1.46 1.983 5.2 13.815 5.355 18.365-1.465.778-4.595.824-6.145 0-.191-1.676-2.976-13.783-3.885-14.903.188.774 1.26 10.65 1.548 16.936z"/><path fill="#bc1718" d="M41.666 50.85s-.44 15.48-6.745 20.496c.17 3.61.227 3.812.225 9.622 5.602 2.824 11.765.52 16.074.023-.646-4.345-1.35-13.112-1.814-17.482-.28-2.615-.002-7.954-1.264-10.18-.893-.74-4.47-2.562-6.476-2.478m-13.627 0s1.179 15.48 6.746 20.495c-.167 3.61-.225 3.812-.221 9.622-6.11 3.612-12.973.675-16.076.023.646-4.345 1.348-13.112 1.813-17.482.28-2.615-.018-8.286 1.245-10.517.515-.425 1.944-.876 3.426-1.45 1.085-.422 2.217-.725 3.067-.691"/><path fill="#77584e" d="M34.796 54.33c-4.16 0-3.945-3.701-3.945-3.701a34.057 34.057 0 0 1 2.13-.193l1.754.098h.148l1.75-.064s.83.032 1.965.15c0 0-.083 3.71-3.802 3.71" data-paper-data="{&quot;origPos&quot;:null}"/><path fill="#77584e" d="M32.885 52.032c-1.064 0-1.924-2.297-1.924-3.35h7.568c0 1.053-.862 3.349-1.925 3.349h-3.72" data-paper-data="{&quot;origPos&quot;:null}"/><path fill="#eeac6c" d="M31.774 51.164c-.427-.654-.73-1.561-.801-2.221 2.498.41 5.047.401 7.542-.027l-.013.016-6.728 2.232" data-paper-data="{&quot;origPos&quot;:null}"/><path fill="#d8a31f" d="M33.537 59.295c-.33-.596-.765-2.31-.786-2.38l.066-.02c.004.02.452 1.782.776 2.366zm2.342 0-.056-.034c.326-.584.77-2.346.778-2.366l.065.02c-.02.07-.46 1.784-.787 2.38"/><path fill="#d8a31f" d="m33.752 61.924-.97-1.742.97-1.738h1.937l.968 1.738-.968 1.742z"/><path fill="#e9b43e" d="M35.193 60.197a.46.46 0 0 1-.456.46.461.461 0 0 1 0-.922c.25 0 .456.208.456.462"/><path fill="#9f191b" d="M34.41 58.815a.457.457 0 0 1-.912 0c0-.25.204-.458.454-.458a.46.46 0 0 1 .459.458m1.499 0a.456.456 0 1 1-.912 0 .456.456 0 0 1 .912 0m-1.5 2.695a.457.457 0 1 1-.912 0c0-.253.204-.46.454-.46a.46.46 0 0 1 .459.46m1.499 0a.456.456 0 0 1-.912 0 .46.46 0 0 1 .457-.46c.252 0 .455.207.455.46m.786-1.313a.46.46 0 0 1-.456.46.461.461 0 0 1 0-.922c.25 0 .456.208.456.462m-3.005 0c0 .253-.203.46-.455.46a.457.457 0 0 1-.455-.46c0-.254.203-.462.455-.462s.454.208.454.462"/><path fill="#d8a31f" d="M36.635 56.93a3.061 3.061 0 0 1-3.85 0v-.063a3.067 3.067 0 0 0 3.85 0v.063z"/><path fill="#9f191b" d="M34.077 57.437a.255.255 0 1 1-.511 0 .255.255 0 1 1 .51 0m.983.2a.258.258 0 0 1-.515 0 .258.258 0 0 1 .515-.001m.912-.2a.257.257 0 1 1-.513-.031.257.257 0 0 1 .513.032"/><path fill="#eeeeed" d="M34.75 54.319s3.604.048 3.88-4.26c.482-.157 2.748.083 3.5.708 1.79 1.486 2.267 7.803-5.31 7.413-1.108-1.152-2.07-3.86-2.07-3.86"/><path fill="#eeeeed" d="M34.818 54.32s-1.017 2.918-2.007 3.86c-7.774.358-6.7-6.072-5.313-7.413.633-.61 2.858-.862 3.31-.708.079 4.075 4.01 4.26 4.01 4.26"/><path fill="#727272" d="M28.993 57.614c.148.067.3.124.457.172.076.027.152.05.233.07.077.023.156.04.232.062.079.02.158.034.24.052.077.02.156.034.24.047.079.015.158.028.238.039.079.01.16.025.238.034l.24.027c.084.01.165.013.244.02.08.007.162.014.24.018l.246.012c.158.006.324.002.482.006.085 0 .166-.004.245-.006l.24-.01-.01.01c.065-.061.123-.127.182-.193.058-.068.112-.136.162-.21.05-.07.103-.145.148-.22.05-.072.097-.15.142-.226.18-.308.342-.623.495-.945.301-.645.578-1.302.828-1.97l.03-.085.033.086c.117.337.245.674.387 1 .14.333.288.66.452.976.16.322.335.634.527.935.05.077.099.154.153.225.05.074.103.144.155.217.054.07.11.14.166.21l.178.2-.013-.01c.177.014.357.026.533.028.175.004.35 0 .53-.005a9.252 9.252 0 0 0 2.096-.342c.17-.052.337-.106.504-.167.167-.06.332-.13.492-.208a5.04 5.04 0 0 1-.49.217 9.19 9.19 0 0 1-1.541.423 9.136 9.136 0 0 1-2.127.1h-.01l-.003-.007a5.062 5.062 0 0 1-.182-.201c-.06-.066-.113-.138-.17-.21l-.16-.218a11.676 11.676 0 0 1-.69-1.157 17.517 17.517 0 0 1-.851-1.988l.064.004a26.977 26.977 0 0 1-.844 1.97c-.155.322-.32.64-.504.947-.043.077-.092.15-.137.226-.052.075-.1.15-.155.222a3.122 3.122 0 0 1-.165.213 1.901 1.901 0 0 1-.19.192l-.003.007h-.01l-.242.004c-.08.005-.16.007-.245.007-.158-.002-.324 0-.484-.011l-.245-.011c-.08-.003-.16-.014-.241-.02-.08-.01-.162-.014-.243-.023l-.24-.03c-.08-.011-.16-.025-.242-.038-.08-.011-.161-.025-.24-.043-.08-.014-.16-.03-.24-.048-.078-.02-.16-.038-.235-.06-.081-.021-.16-.037-.234-.062-.08-.025-.155-.048-.234-.075a3.073 3.073 0 0 1-.227-.084 2.79 2.79 0 0 1-.225-.095"/><path fill="#77584e" d="M57.426 29.78c1.165.755 1.93 2.039 1.93 3.499 0 2.323-1.947 4.207-4.348 4.207-.067 0-.134-.002-.2-.005-3.892 7.017-11.342 11.765-19.896 11.765-8.56 0-16.016-4.757-19.904-11.785-.16.014-.32.025-.481.025-2.406 0-4.352-1.884-4.352-4.207 0-1.57.89-2.936 2.205-3.661a23.374 23.374 0 0 1-.232-3.283c0-12.654 10.19-22.91 22.764-22.91 12.573 0 22.767 10.256 22.767 22.91 0 1.168-.087 2.323-.254 3.446" data-paper-data="{&quot;origPos&quot;:null}"/><path fill="#2c1f0b" d="M30.15 24.719s-.48 1.695-1.991 1.36c-.738-.164-.868-1.13-3.238-.697-.745.17-2.312 1.087-2.614 1.7-.302.613-.084-2.248 2.35-3.312 1.756-.634 2.35-.603 3.805-.603 1.453 0 1.9.853 1.69 1.552m10.099 0s.48 1.695 1.992 1.36c.738-.164.868-1.13 3.238-.697.745.17 2.312 1.087 2.614 1.7.302.613.084-2.248-2.35-3.312-1.756-.634-2.351-.603-3.805-.603-1.453 0-1.901.853-1.69 1.552M28.2 32.167c0 1.657-.894 3-2 3-1.104 0-2-1.343-2-3s.896-3 2-3c1.106 0 2 1.343 2 3m18 0c0 1.657-.894 3-2 3-1.104 0-2-1.343-2-3s.896-3 2-3c1.106 0 2 1.343 2 3" data-paper-data="{&quot;origPos&quot;:null}"/><path fill="#e2a86e" d="M32.2 35.167s.208-1.042.505-1.342c.8-1.195 2.49-1.658 2.49-1.658s2.176.727 2.655 1.64c.443.853.34 1.28.34 1.28s-2.124-1.933-2.964-1.815c-1.127.158-3.025 1.895-3.025 1.895z"/><path fill="#9b1826" d="M28.4 37.863s6.898 3.208 13.173-.397c0 0-1.39 5.47-5.95 5.56-4.115.123-4.984-1.491-5.477-1.955-.492-.463-1.42-1.772-1.745-3.208" data-paper-data="{&quot;origPos&quot;:null}"/><path fill="#2c1f0b" d="M11.16 23.347c.024-1.406.115-2.81.272-4.207C14.49 9.058 23.807 1.724 34.825 1.724c9.594 0 17.899 5.556 21.904 13.648 1.102 3.184 1.786 6.315 1.84 7.723.196 4.9-1.212 6.52-1.212 6.52s-4.102-5.711-8.955-9.141c-3.816-2.693-7.21 2.513-11.741-1.948a365.025 365.025 0 0 1-1.917-1.938s-1.244 1.409-1.912 1.938c-4.028 3.2-6.273-.434-10.782 2.036-3.693 2.015-9.734 9.22-9.734 9.22s-1.19-3.745-1.156-6.435" data-paper-data="{&quot;origPos&quot;:null}"/><path fill="#9f191b" d="M58.576 21.27H11.065l1.308-19.373c21.35-4.268 44.898 0 44.898 0z"/><path fill="#d8a31f" d="M57.458 4.655a189.802 189.802 0 0 0-45.265-.052l.18-2.706c21.35-4.267 44.898 0 44.898 0l.187 2.757"/><path fill="#d8a31f" d="M27.815 5.099a.98.98 0 0 1-.934.973.898.898 0 0 1-.934-.905c0-.52.417-.958.934-.974a.896.896 0 0 1 .934.906m2.092 3.164a.968.968 0 0 1-.936.962.908.908 0 0 1-.934-.915c0-.518.419-.95.934-.964a.912.912 0 0 1 .936.917m1.894 3.184a.955.955 0 0 1-.936.953.914.914 0 0 1-.932-.92c0-.52.419-.948.932-.957a.917.917 0 0 1 .936.924m1.896 3.2c0 .518-.417.94-.934.946a.926.926 0 0 1-.934-.93c0-.52.417-.943.934-.95a.93.93 0 0 1 .934.933m2.026 3.217a.935.935 0 1 1-1.87 0 .94.94 0 0 1 .936-.942.94.94 0 0 1 .934.942M23.855 8.477c0 .519.42.917.936.897a.988.988 0 0 0 .932-.978.888.888 0 0 0-.932-.901.993.993 0 0 0-.936.982m-1.891 3.319c0 .518.418.915.933.888a.995.995 0 0 0 .934-.988.878.878 0 0 0-.934-.89 1 1 0 0 0-.933.99m-1.893 3.337c0 .518.42.91.935.878.515-.032.93-.475.93-.994a.869.869 0 0 0-.93-.883 1.01 1.01 0 0 0-.934.999m-2.024 3.36c0 .519.419.906.932.872.517-.036.933-.484.933-1.005a.861.861 0 0 0-.933-.874 1.025 1.025 0 0 0-.932 1.007m-3.871-9.326c0 .519-.42.978-.93 1.026a.83.83 0 0 1-.933-.845c0-.518.418-.982.933-1.03.51-.052.93.33.93.85m1.889 3.049c0 .518-.418.973-.931 1.018a.84.84 0 0 1-.934-.854c0-.518.416-.975.934-1.02a.843.843 0 0 1 .93.855m1.893 3.067c0 .518-.42.97-.934 1.012a.845.845 0 0 1-.93-.863c0-.518.413-.973.93-1.016a.854.854 0 0 1 .934.867m37.507-6.116c0 .519.419.978.934 1.026a.827.827 0 0 0 .927-.845c0-.518-.416-.982-.927-1.03a.835.835 0 0 0-.934.85m-1.89 3.049c0 .518.419.973.934 1.018a.837.837 0 0 0 .93-.854 1.04 1.04 0 0 0-.93-1.02.843.843 0 0 0-.933.855m-1.892 3.067c0 .518.418.97.934 1.012a.848.848 0 0 0 .93-.863c0-.518-.415-.973-.93-1.016a.854.854 0 0 0-.934.867m-2.02 3.074c0 .518.419.966.93 1a.855.855 0 0 0 .933-.867c0-.52-.416-.971-.933-1.01a.865.865 0 0 0-.93.876M43.63 5.165c0 .518-.42.92-.934.903a.974.974 0 0 1-.936-.97.9.9 0 0 1 .936-.91c.513.02.934.458.934.977m2.09 3.31a.89.89 0 0 1-.934.897.993.993 0 0 1-.936-.983c0-.516.418-.92.936-.9.52.035.927.464.933.986m1.892 3.319a.878.878 0 0 1-.934.887 1 1 0 0 1-.933-.987c0-.518.42-.92.933-.892.516.027.934.473.934.992m1.892 3.334a.867.867 0 0 1-.93.88 1.008 1.008 0 0 1-.935-.995.87.87 0 0 1 .936-.883c.513.03.929.48.929.998M39.67 8.26c0 .518.419.946.934.962a.906.906 0 0 0 .934-.915.963.963 0 0 0-.934-.962.908.908 0 0 0-.934.915m-1.894 3.186c0 .516.419.942.934.953a.918.918 0 0 0 .934-.924.958.958 0 0 0-.934-.955.92.92 0 0 0-.934.926m-1.898 3.2c0 .518.42.94.934.943.52.005.936-.41.936-.928a.947.947 0 0 0-.936-.95.93.93 0 0 0-.934.934"/></g></svg>