<svg version="1.1" xmlns="http://www.w3.org/2000/svg" xmlns:xlink="http://www.w3.org/1999/xlink" width="65.87" height="116.20836" viewBox="0,0,65.87,116.20836"><g transform="translate(-207.869,-121.001)"><g data-paper-data="{&quot;isPaintingLayer&quot;:true}" fill-rule="evenodd" stroke="none" stroke-width="1" stroke-linecap="butt" stroke-linejoin="miter" stroke-miterlimit="10" stroke-dasharray="" stroke-dashoffset="0" style="mix-blend-mode: normal"><path d="M226.371,180.13l-1.713,41.34h-16.25c6.53,-11.989 17.962,-41.34 17.962,-41.34zM225.245,218.49l0.089,-1.042l22.742,0.29l0.03,1.04z" fill="#eeeeed"/><path d="M225.695,222.814h-1.036l2.201,-54.893h1.034z" fill="#a5d8e5"/><path d="M255.732,227.712c0,0 -31.855,2.815 -45.401,0c-1.636,-0.34 -2.462,-6.244 -2.462,-6.244c0,0 29.2,-1.033 40.006,0c2.494,0.24 4.608,4.095 7.857,6.244" fill="#dbdbdb"/><path d="M227.9,167.923c17.767,5.064 20.178,49.817 20.178,49.817h-22.166z" fill="#eeeeed"/><path d="M249.319,231.456c0.062,0.246 -0.021,0.517 -0.192,0.784c-0.554,0.857 -1.518,1.487 -2.34,2.062c-1.274,0.876 -2.881,1.346 -4.284,2.018c-1.272,0.539 -2.943,1.547 -4.083,0.27c-1.506,-1.814 -0.226,-4.037 1.53,-5.134h-0.009l-0.447,-11.343h9.826v11.343M259.968,231.456c1.758,1.089 3.034,3.32 1.529,5.134c-1.139,1.277 -2.81,0.269 -4.084,-0.269c-1.405,-0.673 -3.01,-1.143 -4.282,-2.019c-0.822,-0.575 -1.786,-1.205 -2.343,-2.062c-0.171,-0.267 -0.251,-0.528 -0.191,-0.784h-0.002v-11.343h9.825l-0.446,11.343h-0.006" data-paper-data="{&quot;origPos&quot;:null}" fill="#e7c49f"/><path d="M249.32,231.437c0.01605,0.06369 0.02279,0.12938 0.02,0.195c-0.004,0.192 -0.081,0.402 -0.213,0.602c-0.554,0.859 -1.518,1.497 -2.34,2.079c-0.132,0.091 -0.268,0.137 -0.41,0.267h-0.004c-1.196,0.7 -2.611,1.143 -3.87,1.743c-1.272,0.538 -2.942,1.537 -4.082,0.257c-1.408,-1.694 -0.383,-3.727 1.187,-4.904l0.02,-0.015c0.10057,-0.07761 0.20504,-0.15004 0.313,-0.217c2.957,0.66 9.379,-0.007 9.379,-0.007M261.526,232.899c0.764,1.116 0.978,2.486 -0.017,3.683c-1.139,1.277 -2.825,0.28 -4.096,-0.259c-1.257,-0.6 -2.673,-1.043 -3.87,-1.743h-0.003c-0.032,-0.066 -0.057,-0.045 -0.09,-0.064c-0.109,-0.068 -0.212,-0.143 -0.318,-0.215c-0.823,-0.578 -1.784,-1.211 -2.34,-2.073c-0.173,-0.267 -0.249,-0.54 -0.185,-0.79c0,0 7.416,1.316 9.368,0.005c0.01,0.005 0.024,0.02 0.04,0.03c0.023,0.015 0.05,0.027 0.072,0.045c0.34994,0.23347 0.67115,0.50736 0.957,0.816c0.037,0.04 0.076,0.08 0.111,0.12c0.01654,0.01792 0.03222,0.0366 0.047,0.056c0.04622,0.05181 0.09026,0.10552 0.132,0.161c0.01,0.011 0.023,0.021 0.029,0.029c0.043,0.058 0.095,0.118 0.133,0.178c0.007,0.007 -0.032,0.015 0.03,0.022" fill="#333433"/><path d="M272.756,199.544c0.244,2.306 -0.856,4.318 -2.456,4.488c-1.042,0.112 -2.046,-0.592 -2.68,-1.733c-0.59,0.491 -1.175,0.686 -1.6,0.462c-0.783,-0.416 -0.69,-2.139 0.21,-3.846c0.343,-0.648 0.753,-1.206 1.175,-1.616c0.033,-0.072 0.07,-0.14 0.109,-0.21c0,0 -1.553,-9.972 -3.213,-12.332c-0.832,-1.178 -1.88,-2.11 -2.07,-2.636v-0.006c1.298,9.879 -0.153,23.617 -0.153,23.617h-24.241c0,0 -1.696,-15.133 -0.076,-25.045v0.01c0,0 -8.609,3.474 -10.968,2.617c-2.914,-1.064 -6.259,-10.604 -6.259,-10.604h0.003c-1.255,-0.447 -2.469,-1.65 -3.172,-3.312c-1.092,-2.59 -0.523,-5.31 1.274,-6.076c1.172,-0.497 2.575,-0.04 3.715,1.06c0.513,-0.778 1.125,-1.213 1.69,-1.103c1.055,0.207 1.551,2.237 1.106,4.531c-0.169,0.88 -0.451,1.669 -0.793,2.296c-0.04374,0.2775 -0.112,0.55057 -0.204,0.816l5.366,6.324l11.308,-4.07c1.296,-0.905 4.143,-1.315 5.863,-1.485c-0.289,-0.643 -0.466,-1.339 -0.466,-1.85h7.402c0,0.511 -0.177,1.221 -0.472,1.867c1.753,0.165 4.571,0.575 5.821,1.485c0.659,0.35 6.316,3.401 7.956,5.506c3.573,4.588 4.943,18.398 4.943,18.398l-0.006,-0.064c0.462,0.668 0.785,1.538 0.888,2.511" data-paper-data="{&quot;origPos&quot;:null}" fill="#e7c49f"/><path d="M266.931,178.698c2.883,3.704 4.335,13.414 4.785,17.024c-1.308,0.18 -2.881,0.494 -4.278,0.894c-0.332,-2.004 -1.696,-9.807 -3.135,-11.858c-0.057,-0.073 -0.107,-0.145 -0.16,-0.217c-0.008,-0.013 -0.017,-0.021 -0.025,-0.036c-0.02,-0.022 -0.036,-0.05 -0.056,-0.07c-0.008,-0.015 -0.02,-0.027 -0.03,-0.039c-0.017,-0.023 -0.033,-0.046 -0.052,-0.069l-0.014,-0.016c-0.021,-0.031 -0.046,-0.056 -0.066,-0.085l-0.015,-0.019c-0.7,-0.884 -1.436,-1.586 -1.633,-2.03c-0.005,-0.02 -0.013,-0.034 -0.02,-0.05v-0.002c0.038,0.302 0.077,0.606 0.11,0.915c0.006,0.068 0.016,0.132 0.023,0.2c0.002,0.011 0.002,0.021 0.002,0.034c0.008,0.058 0.014,0.12 0.02,0.18v0.001c0.004,0.011 0.004,0.02 0.004,0.03c0.002,0.004 0.002,0.01 0.004,0.02l0.013,0.154c0.004,0.01 0.004,0.018 0.004,0.024l0.002,0.003c0.00463,0.07114 0.01097,0.14216 0.019,0.213l0.006,0.082c0.004,0.052 0.012,0.108 0.016,0.16l0.006,0.072c0.007,0.05 0.011,0.104 0.015,0.154c0.002,0.029 0.004,0.058 0.008,0.084l0.012,0.143l0.009,0.104l0.01,0.155v0.013c0.00833,0.07482 0.01466,0.14984 0.019,0.225c0,0.002 0,0.004 0.002,0.006c0,0.01 0,0.021 0.004,0.03v0.053c0.00612,0.05148 0.01012,0.10319 0.012,0.155c0.002,0.025 0.004,0.05 0.009,0.075l0.01,0.166l0.002,0.024l0.002,0.036c0,0.006 0,0.012 0.002,0.018l0.012,0.164l0.002,0.062l0.002,0.016l0.009,0.164c0.00243,0.0256 0.00376,0.05129 0.004,0.077v0.004c0.004,0.052 0.01,0.107 0.012,0.163l0.004,0.069v0.004l0.008,0.17l0.002,0.01v0.018c0,0.015 0.005,0.029 0.005,0.046l0.008,0.17l0.004,0.074c0.004,0.058 0.008,0.116 0.01,0.172c0.002,0.027 0.002,0.052 0.002,0.075c0.00402,0.05494 0.00702,0.10995 0.009,0.165c0,0.025 0.004,0.054 0.006,0.079c0.002,0.058 0.004,0.116 0.004,0.174l0.002,0.031v0.037c0.006,0.058 0.006,0.118 0.01,0.178c0,0.019 0,0.035 0.002,0.054l0.006,0.195c0,0.014 0,0.031 0.003,0.047c0.002,0.069 0.006,0.133 0.006,0.199c0,0.013 0,0.029 0.004,0.043c0.002,0.067 0.002,0.135 0.006,0.203v0.033l0.004,0.216c0,0.004 -0.002,0.008 0,0.014c0,0.077 0.085,3.689 0.043,4.112v0.255c0,0.045 0,0.086 -0.004,0.13v0.122c-0.002,0.04 -0.002,0.08 -0.002,0.12l-0.002,0.12c0,0.033 0,0.07 -0.002,0.106v0.132c-0.002,0.038 -0.002,0.07 -0.002,0.108l-0.002,0.058v0.076l-0.002,0.102c-0.004,0.047 -0.004,0.095 -0.004,0.142v0.067c-0.004,0.062 -0.004,0.12 -0.006,0.18c0.00032,0.02502 -0.00035,0.05004 -0.002,0.075c0.00001,0.05335 -0.00099,0.10669 -0.003,0.16l-0.002,0.07v0.07c-0.002,0.041 -0.004,0.078 -0.004,0.118v0.036c-0.004,0.036 -0.004,0.07 -0.006,0.1c0,0.034 0,0.064 -0.002,0.094v0.02c-0.043,1.689 -0.119,3.275 -0.201,4.685c-0.197,3.389 -0.44,5.68 -0.44,5.68c0,0 -1.393,10.117 -1.657,14.403l-0.234,6.107l-9.576,0.614v-6.721c0.066,-1.663 -0.513,-7.343 -0.513,-7.343h-0.282c0,0 -0.54,6.063 -0.479,7.343v6.721l-9.598,-0.701l-0.247,-6.02c-0.227,-5.053 -1.663,-14.403 -1.663,-14.403c0,0 -0.105,-0.9 -0.235,-2.415c-0.14,-1.689 -0.354,-4.112 -0.416,-6.859v-0.002c0,-0.07 -0.01,-0.139 -0.01,-0.209c0,-0.015 -0.007,-0.029 -0.009,-0.039c-0.013,-0.302 -0.023,-0.609 -0.033,-0.922c-0.00014,-0.05938 -0.00214,-0.11874 -0.006,-0.178l-0.014,-0.526l-0.004,-0.053c0,-0.06 -0.002,-0.125 -0.005,-0.185l-0.002,-0.051l-0.006,-0.17c0,-0.023 -0.004,-0.048 -0.006,-0.075c0,-0.058 -0.012,-0.118 -0.015,-0.178c0,-0.016 -0.02,-0.029 -0.02,-0.043c0,-0.006 0.021,-0.011 0.021,-0.015c-0.002,-0.06 0.016,-0.126 0.016,-0.186v-0.006c-0.00423,-0.0926 -0.00623,-0.1853 -0.006,-0.278c0,-0.066 -0.004,-0.132 -0.004,-0.2v-0.048c0,-0.069 -0.004,-0.133 -0.004,-0.199v-0.01c-0.039,-2.768 0.014,-5.687 0.241,-8.428v-0.016c0.008,-0.073 0.012,-0.141 0.018,-0.209c0,-0.007 0.002,-0.009 0.002,-0.013v-0.016c0.009,-0.071 0.015,-0.137 0.019,-0.207c0,-0.009 0,-0.021 0.004,-0.034c0.004,-0.064 0.01,-0.132 0.017,-0.202v-0.007c0,-0.004 0,-0.008 0.004,-0.01v-0.014c0.00565,-0.06843 0.01231,-0.13677 0.02,-0.205l0.003,-0.027l0.02,-0.207c0.002,-0.009 0.005,-0.016 0.005,-0.026c0.02515,-0.26719 0.05515,-0.5339 0.09,-0.8v-0.013c0.047,-0.387 0.097,-0.768 0.152,-1.143c0.002,-0.012 0.004,-0.016 0.004,-0.026c0.029,-0.189 0.056,-0.348 0.087,-0.543c-0.091,0 -8.62,3.457 -10.967,2.6c-2.373,-0.863 -5.036,-7.374 -5.936,-9.75c1.18,-0.882 2.586,-1.609 3.647,-2.244l5.016,5.916l6.513,-2.347l0.006,-0.002l4.789,-1.723c0.04153,-0.0274 0.08354,-0.05407 0.126,-0.08c0.013,-0.011 0.029,-0.019 0.043,-0.029c0.029,-0.017 0.056,-0.036 0.089,-0.052l0.06,-0.033l0.08,-0.044c0.022,-0.01 0.047,-0.025 0.074,-0.037c0.022,-0.013 0.047,-0.025 0.072,-0.037c0.027,-0.01 0.055,-0.025 0.085,-0.04c0.02305,-0.00947 0.04573,-0.01981 0.068,-0.031l0.096,-0.041c0.024,-0.008 0.042,-0.019 0.064,-0.027c0.037,-0.015 0.07,-0.029 0.105,-0.041c0.023,-0.009 0.042,-0.017 0.062,-0.023c0.03727,-0.01649 0.07532,-0.03117 0.114,-0.044c0.0193,-0.00577 0.03832,-0.01244 0.057,-0.02c0.04163,-0.01539 0.08365,-0.02973 0.126,-0.043l0.047,-0.02c0.048,-0.011 0.091,-0.028 0.138,-0.041c0.12802,-0.06583 0.26695,-0.10785 0.41,-0.124c0.056,-0.015 0.112,-0.031 0.178,-0.046l0.012,-0.006l0.177,-0.043c0.007,0 0.011,-0.002 0.017,-0.004c0.062,-0.015 0.123,-0.032 0.185,-0.046c0.002,-0.002 0.006,-0.002 0.006,-0.002l0.194,-0.044h0.004c0.334,-0.076 0.676,-0.142 1.016,-0.198c0.006,-0.002 0.025,-0.004 0.025,-0.004c0.10201,-0.01918 0.20436,-0.03651 0.307,-0.052l0.016,-0.002l0.009,0.006c0.655,-0.104 1.279,-0.178 1.801,-0.228c-0.289,-0.644 -0.464,-1.333 -0.464,-1.845h7.4c0,0.512 -0.178,1.212 -0.473,1.86c0.54164,0.05011 1.08184,0.1148 1.62,0.194l0.004,-0.002c0.62349,0.08828 1.24251,0.20574 1.855,0.352c0.027,0.011 0.052,0.015 0.082,0.025c0.34633,0.08411 0.68839,0.1849 1.025,0.302c0.23736,0.08327 0.46974,0.1801 0.696,0.29c0.01,0.002 0.021,0.01 0.033,0.015c0.035,0.018 0.076,0.039 0.111,0.06c0.021,0.01 0.042,0.02 0.062,0.033c0.02661,0.01319 0.05264,0.02754 0.078,0.043c0.03,0.017 0.054,0.033 0.08,0.05l0.05,0.031c0.043,0.027 0.083,0.055 0.126,0.085c0.008,0.006 0.018,0.01 0.03,0.018v0.003c0.01387,0.00388 0.02728,0.00924 0.04,0.016c0,0.002 0.002,0.002 0.006,0.004c0.013,0.006 0.027,0.017 0.043,0.023c0.002,0.002 0.007,0.004 0.009,0.008c0.0156,0.00643 0.03065,0.01412 0.045,0.023l0.012,0.007c0.01385,0.00834 0.02861,0.01505 0.044,0.02c0.004,0.002 0.008,0.008 0.012,0.01c0.021,0.009 0.039,0.021 0.062,0.033c0.006,0.002 0.01,0.007 0.014,0.009c0.02,0.008 0.033,0.018 0.05,0.027l0.026,0.012c0.017,0.011 0.035,0.019 0.05,0.031c0.011,0.002 0.014,0.006 0.021,0.008c0.026,0.015 0.049,0.03 0.073,0.04c0.00957,0.00554 0.01961,0.01022 0.03,0.014c0.018,0.013 0.037,0.023 0.052,0.033c0.01059,0.00416 0.02065,0.00952 0.03,0.016c0.02554,0.01166 0.05026,0.02502 0.074,0.04c0.005,0.002 0.008,0.006 0.015,0.008c0.03,0.017 0.057,0.034 0.087,0.05c0.01036,0.00386 0.02039,0.00854 0.03,0.014l0.068,0.04c0.008,0.004 0.021,0.01 0.031,0.019l0.095,0.053c0.008,0.003 0.012,0.007 0.02,0.009c0.02655,0.017 0.05391,0.03269 0.082,0.047c0.011,0.007 0.028,0.013 0.04,0.023c0.02621,0.01309 0.05159,0.02779 0.076,0.044l0.029,0.016l0.107,0.06c0.013,0.006 0.021,0.015 0.033,0.019c0.029,0.014 0.054,0.031 0.08,0.047c0.014,0.009 0.031,0.015 0.044,0.025c0.029,0.017 0.057,0.031 0.087,0.05c0.01,0.004 0.018,0.01 0.03,0.017l0.115,0.066c0.015,0.006 0.025,0.016 0.04,0.022c0.031,0.017 0.057,0.036 0.086,0.05c0.01392,0.00958 0.02864,0.01794 0.044,0.025l0.103,0.06c0.00684,0.00569 0.0142,0.01072 0.022,0.015c0.041,0.022 0.083,0.049 0.126,0.072c0.01372,0.0088 0.02772,0.01714 0.042,0.025c0.028,0.019 0.061,0.037 0.09,0.054c0.014,0.01 0.029,0.016 0.043,0.024c0.04238,0.02818 0.08574,0.05487 0.13,0.08c0.006,0.003 0.012,0.008 0.021,0.01c0.039,0.022 0.074,0.05 0.115,0.07l0.043,0.027c0.033,0.021 0.066,0.039 0.1,0.058c0.011,0.01 0.026,0.017 0.04,0.027c0.04479,0.0279 0.09013,0.05491 0.136,0.081l0.029,0.02c0.035,0.021 0.072,0.042 0.107,0.066c0.01677,0.0089 0.03312,0.01858 0.049,0.029c0.036,0.021 0.073,0.042 0.11,0.067c0.008,0.006 0.021,0.012 0.031,0.02l0.14,0.085c0.01239,0.01078 0.02661,0.01925 0.042,0.025c0.034,0.023 0.063,0.044 0.1,0.065c0.017,0.012 0.033,0.02 0.05,0.03c0.03881,0.02495 0.07715,0.05062 0.115,0.077c0.01072,0.00208 0.02071,0.0069 0.029,0.014l0.138,0.088l0.047,0.03c0.031,0.023 0.069,0.042 0.099,0.065c0.017,0.012 0.033,0.021 0.05,0.031l0.14,0.093l0.012,0.006c0.05845,0.03885 0.11746,0.07685 0.177,0.114c0.03463,0.02614 0.07032,0.05083 0.107,0.074l0.04,0.023c0.047,0.033 0.092,0.066 0.144,0.095c0.00681,0.00812 0.01535,0.01461 0.025,0.019c0.039,0.029 0.075,0.052 0.115,0.08c0.017,0.009 0.029,0.021 0.043,0.03c0.0386,0.02342 0.07598,0.04878 0.112,0.076c0.01,0.009 0.023,0.015 0.033,0.023l0.138,0.093c0.012,0.011 0.024,0.017 0.037,0.027l0.105,0.074l0.043,0.03l0.122,0.087l0.018,0.014c0.046,0.029 0.089,0.064 0.136,0.097l0.035,0.025c0.037,0.027 0.068,0.052 0.103,0.075l0.042,0.031l0.131,0.097c0.833,0.625 1.552,1.249 1.988,1.809" fill="#333433"/><path d="M240.551,216.53c-0.923,-13.88 -3.688,-14.794 -1.716,-35.04c-0.694,21.16 3.62,25.908 1.716,35.04M259.389,216.53c0.92,-13.88 3.686,-14.794 1.714,-35.04c0.695,21.16 -3.62,25.908 -1.714,35.04" fill="#616160"/><path d="M271.849,151.18724c1.14,0.735 1.89,1.994 1.89,3.418c0,2.267 -1.902,4.105 -4.249,4.105c-0.068,0 -0.134,0 -0.202,-0.004c-3.802,6.846 -11.086,11.48 -19.446,11.48c-8.368,0 -15.655,-4.64 -19.458,-11.5c-0.153,0.016 -0.312,0.024 -0.47,0.024c-2.345,0 -4.248,-1.838 -4.248,-4.105c0,-1.531 0.866,-2.861 2.15,-3.571c-0.151,-1.045 -0.227,-2.117 -0.227,-3.207c0,-12.348 9.961,-22.36 22.253,-22.36c12.291,0 22.254,10.012 22.254,22.36c0,1.143 -0.084,2.265 -0.247,3.36" data-paper-data="{&quot;origPos&quot;:null}" fill="#e7c49f"/><path d="M236.578,149.939c0,0 2.769,-3.689 4.1,-3.499c0.42,0.06 0.702,1.064 0.385,1.66c0,0 -2.67,0.712 -4.486,1.839M262.335,149.939c0,0 -2.769,-3.689 -4.1,-3.499c-0.42,0.06 -0.703,1.064 -0.385,1.66c0,0 2.67,0.712 4.487,1.839" fill="#f7b90b"/><path d="M272.98,145.155c0.037,2.627 -0.88,8.306 -2.66,11.693c0,0 -4.377,-12.442 -7.983,-14.415c-4.406,-2.408 -16.021,1.064 -19.963,-2.06c-0.654,-0.517 -0.579,-1.691 -0.579,-1.691c0,0 -0.753,1.497 -1.117,1.913c-1.91,2.182 -6.858,5.341 -9.205,7.036c-1.89,1.362 -1.976,1.348 -1.558,9.216c0,0 -3.472,-7.16 -3.28,-11.94c0.055,-1.377 0.717,-4.432 1.8,-7.535c3.918,-7.896 12.035,-13.32 21.41,-13.32c10.773,0 19.879,7.156 22.869,16.996c0.15257,1.36411 0.24134,2.7346 0.266,4.107" data-paper-data="{&quot;origPos&quot;:null}" fill="#e0ce72"/><path d="M227.19,142.61c0,0 8.011,-7.204 22.444,-7.204c11.879,0 22.891,7.204 22.891,7.204c0,11.514 -6,8.854 -11.383,6.85c-11.508,-4.291 -11.508,-4.291 -23.361,-0.165c-5.141,1.79 -10.591,4.177 -10.591,-6.685" fill="#dbdbdb"/><path d="M230.65,150.722l-2.102,-9.159c0.84535,-0.58755 1.72161,-1.12933 2.625,-1.623l2.147,10.735c-0.959,0.187 -1.863,0.24 -2.67,0.045zM266.023,151.051l2.168,-10.83c0.90116,0.44002 1.79016,0.90453 2.666,1.393l-2.188,9.53c-0.808,0.159 -1.704,0.096 -2.646,-0.094z" fill="#6cc5d8"/><path d="M227.097,142.632c-2.318,-2.329 5.419,-21.631 22.922,-21.631c16.967,0 24.973,19.114 22.469,21.631c-23.567,-6.138 -45.391,0 -45.391,0M259.369,173.406l0.01,0.004c0.266,3.778 1.83,7.364 2.948,9.492c0.003,0.046 0.011,0.093 0.015,0.136c0.006,0.071 0.016,0.135 0.023,0.203c0.002,0.011 0.002,0.021 0.002,0.034c0.00792,0.05985 0.01458,0.11987 0.02,0.18c0.004,0.01 0.004,0.018 0.004,0.028l0.004,0.023l0.013,0.153c0.004,0.011 0.004,0.019 0.004,0.025l0.002,0.002l0.002,0.054c0.00408,0.05283 0.00975,0.10552 0.017,0.158l0.006,0.082c0.004,0.054 0.012,0.108 0.016,0.162l0.006,0.072c0.007,0.05 0.011,0.103 0.015,0.153c0.0069,0.07531 0.01357,0.15065 0.02,0.226l0.007,0.106l0.012,0.153v0.012c0.00186,0.02148 0.00486,0.04284 0.009,0.064c0.00436,0.0546 0.0077,0.10928 0.01,0.164l0.002,0.004c0,0.011 0,0.021 0.004,0.032v0.051c0.00612,0.05215 0.01012,0.10453 0.012,0.157c0.002,0.023 0.004,0.05 0.009,0.075l0.01,0.165l0.002,0.025l0.002,0.034c0,0.006 0,0.014 0.002,0.02l0.01,0.164l0.002,0.06c0,0.004 0.003,0.01 0.003,0.016l0.01,0.164c0.002,0.026 0.004,0.052 0.004,0.076v0.005c0.004,0.053 0.01,0.109 0.012,0.163l0.004,0.07v0.005l0.008,0.17l0.002,0.01v0.016c0,0.015 0.005,0.031 0.005,0.048l0.008,0.17l0.004,0.074c0.00436,0.05727 0.0077,0.11461 0.01,0.172c0.002,0.027 0.002,0.05 0.002,0.075c0.004,0.053 0.006,0.109 0.009,0.163c0,0.027 0.004,0.056 0.004,0.079c0.00193,0.058 0.00393,0.116 0.006,0.174l0.002,0.033v0.035c0.006,0.06 0.006,0.12 0.01,0.178c0,0.019 0,0.037 0.002,0.056l0.006,0.194c0,0.013 0,0.029 0.003,0.048c0.002,0.066 0.006,0.13 0.006,0.199c0,0.012 0,0.027 0.004,0.041c0.002,0.066 0.002,0.136 0.006,0.206v0.03c0.002,0.075 0.002,0.145 0.005,0.218c0,0.004 -0.003,0.008 0,0.015c0,0.076 0.084,3.688 0.04,4.11v0.256c0,0.045 0,0.086 -0.004,0.13v0.242l-0.002,0.118c0,0.035 0,0.072 -0.002,0.105v0.135c-0.002,0.035 -0.002,0.07 -0.002,0.105l-0.002,0.06v0.077l-0.002,0.101c-0.004,0.048 -0.004,0.096 -0.004,0.143v0.065c-0.004,0.064 -0.004,0.122 -0.006,0.18c0,0.024 0,0.049 -0.002,0.074c0,0.056 0,0.11 -0.003,0.162l-0.002,0.07v0.07c-0.002,0.04 -0.004,0.079 -0.004,0.116v0.039c0,0.036 -0.004,0.067 -0.006,0.1c0,0.034 0,0.062 -0.002,0.094v0.02c-0.045,1.689 -0.119,3.275 -0.201,4.683c-0.04,0.679 -0.081,1.316 -0.12,1.896c-5.146,3.821 -18.76,3.48 -24.909,0.081c-0.16095,-1.85272 -0.26533,-3.70992 -0.313,-5.569v-0.003c0,-0.07 -0.008,-0.138 -0.008,-0.21c0,-0.013 -0.007,-0.028 -0.009,-0.038c-0.013,-0.304 -0.023,-0.608 -0.033,-0.921c-0.00014,-0.05938 -0.00214,-0.11874 -0.006,-0.178l-0.014,-0.526l-0.004,-0.056c0,-0.058 -0.002,-0.122 -0.005,-0.183l-0.002,-0.05l-0.008,-0.17c0,-0.025 -0.002,-0.048 -0.004,-0.075c0,-0.058 -0.012,-0.12 -0.015,-0.178c0,-0.016 -0.02,-0.031 -0.02,-0.045c0,-0.007 0.021,-0.009 0.021,-0.013c-0.002,-0.062 0.016,-0.126 0.016,-0.186v-0.006c-0.002,-0.019 -0.002,-0.036 -0.002,-0.052c-0.00286,-0.0753 -0.00419,-0.15065 -0.004,-0.226c0,-0.066 -0.004,-0.133 -0.004,-0.203v-0.046c0,-0.067 -0.004,-0.134 -0.004,-0.2v-0.01c-0.039,-2.768 0.014,-5.687 0.241,-8.426v-0.019c0.008,-0.07 0.012,-0.138 0.018,-0.207l0.002,-0.012v-0.016c0.00781,-0.06981 0.01348,-0.13984 0.017,-0.21c0.002,-0.008 0.002,-0.018 0.006,-0.031c0.00481,-0.06774 0.01048,-0.13541 0.017,-0.203v-0.008c0,-0.004 0,-0.008 0.004,-0.01v-0.015c0.00566,-0.06743 0.01232,-0.13477 0.02,-0.202l0.003,-0.03l0.02,-0.205c0.002,-0.008 0.005,-0.016 0.005,-0.024c0.00487,-0.07149 0.01154,-0.14285 0.02,-0.214l0.037,-0.316c1.356,-1.89 2.975,-5.046 3.208,-9.496l0.136,-0.05c0.04038,-0.02811 0.08174,-0.0548 0.124,-0.08l0.045,-0.03c0.029,-0.018 0.056,-0.037 0.089,-0.051c0.018,-0.011 0.039,-0.024 0.06,-0.034c0.026,-0.014 0.053,-0.031 0.08,-0.045c0.022,-0.008 0.047,-0.023 0.072,-0.035c0.024,-0.013 0.049,-0.025 0.074,-0.04c0.02891,-0.01096 0.05728,-0.02331 0.085,-0.037c0.02305,-0.00947 0.04573,-0.01981 0.068,-0.031l0.096,-0.041c0.021,-0.009 0.042,-0.019 0.064,-0.027c0.037,-0.014 0.07,-0.031 0.105,-0.044c0.02036,-0.0076 0.04104,-0.01427 0.062,-0.02c0.037,-0.017 0.076,-0.031 0.114,-0.046c0.018,-0.006 0.037,-0.012 0.057,-0.021c0.041,-0.012 0.081,-0.027 0.126,-0.041l0.047,-0.019c0.046,-0.014 0.091,-0.031 0.138,-0.041c0.06212,-0.02367 0.12556,-0.0437 0.19,-0.06c0.01174,-0.00587 0.02417,-0.01024 0.037,-0.013l0.157,-0.043l0.026,-0.008c0.056,-0.016 0.112,-0.033 0.178,-0.046l0.012,-0.006c0.05931,-0.01411 0.11832,-0.02945 0.177,-0.046c0.007,0 0.011,-0.002 0.017,-0.004l0.185,-0.043c0.002,-0.002 0.006,-0.002 0.006,-0.002c0.0649,-0.01435 0.12957,-0.02968 0.194,-0.046h0.004c0.334,-0.074 0.676,-0.141 1.016,-0.196c0.006,-0.003 0.022,-0.005 0.022,-0.005c0.949,1.673 3.578,6.008 5.35,6.066c1.84,0.06 4.826,-4.161 6.003,-5.939c0.2425,0.0477 0.4842,0.09938 0.725,0.155c0.027,0.01 0.052,0.017 0.082,0.027c0.34633,0.08411 0.68839,0.1849 1.025,0.302c0.23731,0.08262 0.4697,0.17877 0.696,0.288c0.01,0.004 0.021,0.012 0.033,0.016l0.111,0.058c0.02072,0.01075 0.04076,0.02278 0.06,0.036c0.02736,0.01227 0.05406,0.02595 0.08,0.041c0.03,0.017 0.054,0.035 0.08,0.051c0.01589,0.01124 0.0326,0.02127 0.05,0.03c0.043,0.029 0.083,0.058 0.126,0.085c0.008,0.006 0.018,0.01 0.03,0.018v0.002c0.01394,0.00497 0.02734,0.01134 0.04,0.019c0,0.002 0.002,0.002 0.006,0.004c0.013,0.006 0.027,0.017 0.043,0.022c0.002,0.003 0.007,0.005 0.009,0.01c0.015,0.005 0.028,0.012 0.045,0.02l0.01,0.006c0.01467,0.00893 0.03006,0.01662 0.046,0.023c0.004,0.002 0.008,0.008 0.012,0.01c0.021,0.008 0.039,0.021 0.062,0.033l0.014,0.006c0.02,0.009 0.033,0.019 0.05,0.027c0.00825,0.00569 0.01695,0.0107 0.026,0.015" fill="#eeeeed"/><path d="M247.323,198.628c-1.31314,-0.06542 -2.62428,-0.16612 -3.932,-0.302c0.031,-0.28 0.048,-0.42 0.076,-0.698c0.6597,-0.55505 1.30653,-1.1252 1.94,-1.71c0.282,-0.269 0.482,-0.503 0.603,-0.697c0.10981,-0.1641 0.17778,-0.35259 0.198,-0.549c0.02282,-0.19067 -0.02406,-0.38317 -0.132,-0.542c-0.105,-0.14 -0.266,-0.216 -0.49,-0.234c-0.235,-0.019 -0.425,0.05 -0.567,0.207c-0.144,0.16 -0.23,0.366 -0.255,0.625c-0.35793,-0.03062 -0.71531,-0.06729 -1.072,-0.11l-0.006,-0.02c0.0303,-0.45289 0.25036,-0.87196 0.606,-1.154c0.36,-0.296 0.812,-0.418 1.36,-0.376c0.548,0.043 0.964,0.209 1.252,0.509c0.291,0.296 0.43,0.68 0.406,1.155c-0.014,0.32 -0.115,0.61 -0.305,0.867c-0.193,0.257 -0.519,0.609 -0.993,1.046c-0.404,0.397 -0.61,0.594 -1.024,0.987l0.004,0.019c0.79,0.068 1.579,0.116 2.368,0.151c-0.017,0.331 -0.023,0.497 -0.037,0.826M250.784,195.15c-0.004,-0.345 -0.076,-0.61 -0.212,-0.8c-0.12485,-0.18327 -0.33544,-0.28913 -0.557,-0.28c-0.2213,-0.00916 -0.4316,0.09675 -0.556,0.28c-0.134,0.188 -0.204,0.455 -0.208,0.8c-0.00617,0.56335 -0.01384,1.12669 -0.023,1.69c-0.004,0.352 0.062,0.623 0.2,0.814c0.136,0.19 0.338,0.287 0.596,0.287c0.23055,0.00995 0.45028,-0.09823 0.583,-0.287c0.138,-0.19 0.202,-0.46 0.198,-0.814l-0.021,-1.69M251.942,196.716c0.017,0.627 -0.142,1.126 -0.495,1.497c-0.35,0.364 -0.828,0.552 -1.423,0.552c-0.604,0 -1.086,-0.19 -1.437,-0.554c-0.352,-0.369 -0.515,-0.868 -0.496,-1.5c0.022,-0.59 0.03,-0.887 0.051,-1.477c0.02,-0.628 0.204,-1.114 0.548,-1.468c0.338,-0.354 0.78,-0.526 1.325,-0.526c0.546,0 0.983,0.172 1.327,0.526c0.342,0.356 0.53,0.842 0.55,1.47c0.02,0.59 0.027,0.886 0.05,1.48M256.787,198.315c-1.30721,0.13558 -2.61763,0.23828 -3.93,0.308l-0.033,-0.704c0.567,-0.65 1.117,-1.31 1.655,-1.985c0.237,-0.31 0.398,-0.574 0.488,-0.787c0.08579,-0.17764 0.12567,-0.37396 0.116,-0.571c-0.021,-0.22 -0.093,-0.391 -0.219,-0.514c-0.12,-0.122 -0.292,-0.173 -0.517,-0.159c-0.237,0.023 -0.412,0.118 -0.532,0.296c-0.117,0.18 -0.169,0.396 -0.154,0.656c-0.427,0.027 -0.643,0.04 -1.074,0.058l-0.006,-0.02c-0.04236,-0.45265 0.1096,-0.90198 0.418,-1.236c0.311,-0.346 0.74,-0.536 1.286,-0.578c0.548,-0.043 0.985,0.058 1.317,0.307c0.334,0.25 0.53,0.608 0.579,1.08c0.033,0.321 -0.025,0.621 -0.173,0.905c-0.149,0.281 -0.42,0.679 -0.818,1.184c-0.338,0.457 -0.513,0.683 -0.862,1.134c0.00151,0.00724 0.00459,0.01406 0.009,0.02c0.7879,-0.05704 1.57469,-0.12838 2.36,-0.214l0.09,0.82" fill="#333433"/><path d="M243,154c0,1.657 -0.895,3 -2,3c-1.105,0 -2,-1.343 -2,-3c0,-1.657 0.895,-3 2,-3c1.105,0 2,1.343 2,3M261,154c0,1.657 -0.895,3 -2,3c-1.105,0 -2,-1.343 -2,-3c0,-1.657 0.895,-3 2,-3c1.105,0 2,1.343 2,3" data-paper-data="{&quot;origPos&quot;:null}" fill="#70422b"/><path d="M250.02,157.069c-1.125,0.153 -3.02,1.834 -3.02,1.834c0,0 0.207,-1.009 0.503,-1.299c0.8,-1.156 2.487,-1.604 2.487,-1.604c0,0 2.173,0.703 2.65,1.588c0.443,0.824 0.34,1.238 0.34,1.238c0,0 -2.121,-1.871 -2.96,-1.756z" fill="#eeac6c"/><path d="M243.2,160.696c0,0 6.897,3.208 13.172,-0.397c0,0 -1.39,5.47 -5.95,5.561c-4.115,0.122 -4.984,-1.492 -5.477,-1.956c-0.492,-0.463 -1.42,-1.772 -1.745,-3.208" fill="#eeac6c"/></g></g></svg>