<svg version="1.1" xmlns="http://www.w3.org/2000/svg" xmlns:xlink="http://www.w3.org/1999/xlink" width="79.57825" height="115.80649" viewBox="0,0,79.57825,115.80649"><g transform="translate(-200.14775,-122.54308)"><g data-paper-data="{&quot;isPaintingLayer&quot;:true}" fill-rule="evenodd" stroke="none" stroke-width="1" stroke-linecap="butt" stroke-linejoin="miter" stroke-miterlimit="10" stroke-dasharray="" stroke-dashoffset="0" style="mix-blend-mode: normal"><path d="M225.568,129.184l-3.613,3.817c0,0 -1.122,-1.463 -3.985,-3.013c-3.06,-1.657 -4.96,0 -6.266,3.415c-1.237,3.239 -1.004,13.16 -1.507,15.252c-0.502,2.092 -1.707,3.634 -2.612,3.51c-0.903,-0.122 -0.25,-2.476 -0.15,-3.51c0.1,-1.035 0.05,-2.997 0.05,-2.997c0,0 -0.201,2.11 -0.402,2.997c-0.201,0.886 -0.803,3.031 -1.808,3.433c-1.005,0.402 -0.68,-1.885 -0.58,-3.433c0.1,-1.549 0.68,-3.499 0.68,-3.499c0,0 -0.287,1.506 -0.853,2.662c-0.62,1.266 -1.439,1.871 -1.959,1.871c-0.603,0 0.257,-2.555 0.507,-4.728c0.284,-2.47 0.095,-8.444 0.497,-12.06c0.402,-3.617 2.21,-9.242 9.344,-10.247c7.914,-1.114 12.656,6.53 12.656,6.53z" fill="#533a27"/><path d="M223.307,126.484c1.471,1.43 2.26,2.7 2.26,2.7l-3.612,3.818c0,0 -1.122,-1.464 -3.985,-3.014c-3.061,-1.656 -4.96,0 -6.266,3.415c-1.238,3.239 -1.004,13.16 -1.507,15.252c-0.502,2.092 -1.708,3.634 -2.612,3.51c-0.904,-0.122 -0.251,-2.475 -0.15,-3.51c0.1,-1.034 0.05,-2.996 0.05,-2.996c0,0 -0.201,2.109 -0.401,2.996c-0.202,0.887 -0.804,3.031 -1.809,3.434c-1.005,0.401 -0.68,-1.886 -0.579,-3.434c0.046,-0.724 0.198,-1.534 0.346,-2.194c-0.134,0.436 -0.307,0.922 -0.521,1.358c-0.619,1.265 -1.438,1.871 -1.958,1.871c-0.124,0 -0.184,-0.113 -0.202,-0.304c1.247,-1.777 2.001,-5.315 3.044,-5.9c1.043,-0.586 0.21,3.84 0.227,5.71c0.003,0.298 0.471,0.382 0.535,0.072c0.327,-1.557 0.69,-5.106 1.447,-5.033c0.758,0.073 0.397,3.93 0.75,5.94c0.053,0.304 0.542,0.23 0.533,-0.073c-0.074,-2.833 0.286,-5.661 0.258,-8.5c-0.024,-2.454 -0.042,-4.94 0.423,-7.36c0.421,-2.197 1.359,-4.944 3.417,-6.141c1.849,-1.075 4.792,0.915 6.867,0.426c2.075,-0.487 2.313,-1.536 3.446,-2.044" fill="#533a27"/><path d="M204.145,224.725c-1.3478,0.00008 -2.56149,-0.81589 -3.0701,-2.06404c-0.50861,-1.24815 -0.2109,-2.68 0.7531,-3.62196c1.41,-1.378 3.987,-1.955 10.99,-3.251c2.517,-0.466 6.318,-1.17 7.182,-1.574c1.065,-0.52 3.428,-3.406 8.623,-14.209c0.344,-0.715 0.643,-1.337 0.887,-1.827c0.8149,-1.63974 2.80477,-2.30839 4.4445,-1.4935c1.63974,0.8149 2.3084,2.80476 1.4935,4.4445c-0.234,0.47 -0.52,1.065 -0.85,1.75c-4.645,9.658 -8.062,15.592 -11.783,17.337c-1.555,0.73 -4.353,1.27 -8.79,2.091c-2.541,0.47 -6.744,1.249 -7.87,1.74c-0.57741,0.44052 -1.28374,0.67877 -2.01,0.678" data-paper-data="{&quot;origPos&quot;:null}" fill="#75564a"/><path d="M220.012,220.209c-1.219,0.224 -2.37,0.653 -3.543,1.041c-2.14,0.708 -4.261,0.859 -6.257,-0.358c-1.542,-0.942 -2.584,-2.42 -3.641,-3.852c-2.541,0.6 -3.87,1.146 -4.743,1.999c-1.25331,1.22452 -1.33722,3.21293 -0.19152,4.53868c1.1457,1.32575 3.12528,1.53092 4.51852,0.46832c1.125,-0.49 5.329,-1.269 7.87,-1.74c4.437,-0.82 7.235,-1.36 8.79,-2.09c0.226,-0.107 0.452,-0.234 0.677,-0.372c-1.162,0.106 -2.33,0.153 -3.48,0.365M233.955,196.685c-0.7874,-0.39164 -1.69815,-0.45435 -2.5318,-0.17434c-0.83365,0.28001 -1.52187,0.87979 -1.91321,1.66734c-0.244,0.49 -0.543,1.112 -0.887,1.828c-5.196,10.802 -7.558,13.689 -8.624,14.208c-0.767,0.36 -3.856,0.955 -6.3,1.41c0.837,0.188 1.681,0.41 2.56,0.581c0.771,0.15 1.737,0.314 2.53,0.14c0.467,-0.104 0.877,-0.382 1.355,-0.451c0.564,-0.083 1.725,0.598 1.634,-0.217c-0.02,-0.17 0.19,-0.318 0.344,-0.262c1.5,0.537 3.242,1.158 4.867,1.047c2.307,-3.013 4.72,-7.577 7.61,-13.583c0.329,-0.685 0.614,-1.28 0.848,-1.75c0.81502,-1.63919 0.14707,-3.62873 -1.492,-4.444M260.678,236.706c-1.01081,0.00157 -1.96692,-0.45881 -2.596,-1.25c-8.13011,-10.21555 -13.39897,-22.40844 -15.267,-35.33c-0.26123,-1.81205 0.99595,-3.49277 2.808,-3.754c1.81205,-0.26123 3.49277,0.99595 3.754,2.808c1.70015,11.75725 6.49484,22.85133 13.893,32.146c0.79281,0.99562 0.94562,2.35725 0.39321,3.50384c-0.55241,1.14659 -1.71249,1.87568 -2.98521,1.87616" data-paper-data="{&quot;origPos&quot;:null}" fill="#75564a"/><path d="M263.01265,231.58435c0.79281,0.99562 0.94562,2.35725 0.39321,3.50384c-0.55241,1.14659 -1.71249,1.87568 -2.98521,1.87616c-1.01052,0.00156 -1.96633,-0.45884 -2.595,-1.25c-8.13064,-10.21535 -13.39986,-22.40829 -15.268,-35.33c-0.2615,-1.81232 0.99568,-3.49349 2.808,-3.755c1.81232,-0.2615 3.49349,0.99568 3.755,2.808c0.75326,5.2068 2.11768,10.30665 4.065,15.194c-1.638,0.309 -3.66,-0.306 -5.107,-0.592c-0.134,-0.026 -0.308,0.037 -0.336,0.19c-0.207,1.163 -0.066,2.513 0.67,3.483c0.34,0.447 0.603,0.436 0.975,0.705c0.426,0.308 0.56,-0.31 0.54,0.553c-0.003,0.107 -0.167,0.215 -0.17,0.347c-0.025,0.962 0.227,1.084 0.927,1.49c1.538,0.893 0.911,3.146 1.714,4.555c0.807,1.419 1.708,2.933 2.8,4.156c0.742,0.833 1.351,0.95 2.377,0.516c1.275,-0.541 1.998,-1.475 2.41,-2.579c0.95581,1.41422 1.96556,2.79123 3.027,4.128" data-paper-data="{&quot;origPos&quot;:null}" fill="#75564a"/><path d="M217.122,192.458l-8.583,-3.689c1.73,-4.025 3.784,-7.91 5.785,-10.94c3.91,-5.918 9.284,-10.472 15.133,-12.823l3.484,8.668c-4.045,1.626 -7.99,5.017 -10.82,9.303c-1.68,2.545 -3.503,6 -4.999,9.48" fill="#ffc736"/><path d="M232.94,173.674c-4.044,1.626 -7.988,5.017 -10.82,9.303c-1.68,2.545 -3.502,6 -4.998,9.48l-1.228,-0.527c0.671,-1.038 1.336,-2.089 1.556,-3.303c0.13,-0.717 -0.057,-1.125 -0.18,-1.785c-0.105,-0.563 -0.205,-0.965 0.524,-0.973c0.288,-0.003 0.593,0.15 0.9,0.15c0.14932,-0.00215 0.26985,-0.12268 0.272,-0.272c-0.032,-1.11 -1.158,-1.935 -1.219,-2.984c-0.073,-1.251 2.287,-0.449 3.105,-0.653c0.146,-0.037 0.224,-0.196 0.19,-0.336c-0.171,-0.709 -0.707,-1.857 -0.466,-2.594c0.285,-0.875 1.553,-1.225 2.281,-1.612c0.885,-0.47 1.485,-1.046 1.812,-2.011c0.561,-1.662 0.437,-3.612 0.356,-5.332c-0.042,-0.895 -0.159,-1.916 -0.104,-2.894c1.44037,-0.90743 2.9583,-1.68547 4.536,-2.325z" fill="#ffc736"/><path d="M215.324,191.685c-0.794,1.849 -1.437,3.558 -1.848,4.902c-0.032,0.107 -0.077,0.206 -0.121,0.306c-0.012,0.056 -0.024,0.115 -0.037,0.17c-0.14,0.623 -1.157,2.454 -1.49,2.517c-0.331,0.062 -0.48,-0.2 -0.249,-1.172l-0.046,0.011c-0.252,0.548 -0.818,1.507 -1.232,1.346c-0.412,-0.16 -0.31,-0.79 -0.125,-1.358l-0.043,-0.01c-0.517,1.026 -0.852,1.449 -1.293,1.326c-0.587,-0.163 -0.287,-0.901 -0.027,-2.183c-0.005,-0.006 -0.011,-0.01 -0.015,-0.016c-0.099,0.195 -0.246,0.605 -0.449,0.913c-0.319,0.483 -0.907,0.231 -0.878,-0.359c0.039,-0.766 0.238,-1.654 0.454,-2.306c0.12086,-0.38017 0.27721,-0.74812 0.467,-1.099c0.466,-1.467 1.133,-3.235 1.948,-5.131l4.984,2.143" data-paper-data="{&quot;origPos&quot;:null}" fill="#75564a"/><path d="M215.324,191.685c-0.795,1.849 -1.436,3.558 -1.848,4.902c-0.316,1.035 -0.485,1.374 -1.178,2.499c0.459,-1.71 0.796,-3.423 0.937,-4.795c0.246,-2.402 -1.744,-2.723 -3.48,-3.347c0.185,-0.458 0.38,-0.925 0.585,-1.401zM233.716,168.329c0.26823,0.6674 0.26022,1.41404 -0.02223,2.07554c-0.28245,0.6615 -0.81621,1.18363 -1.48377,1.45146l-2.022,-5.033c0.66754,-0.26826 1.41431,-0.26029 2.07597,0.02215c0.66166,0.28244 1.18399,0.81621 1.45203,1.48385" data-paper-data="{&quot;origPos&quot;:null}" fill="#75564a"/><path d="M249.609,174.715l-2.874,-8.89c6.907,-2.231 14.05,-4.54 18.11,-8.4c2.465,-2.344 4.701,-5.876 6.134,-9.691l8.746,3.286c-1.94,5.165 -4.94,9.845 -8.445,13.178c-5.6,5.323 -13.77,7.964 -21.673,10.518" fill="#ffc736"/><path d="M276.756,155.482c0.853,-1.16 1.798,-2.294 2.596,-3.509c-1.941,4.786 -4.784,9.097 -8.072,12.222c-5.6,5.325 -13.77,7.965 -21.672,10.521l-2.873,-8.89c2.916,-0.943 5.873,-1.9 8.623,-2.982c0.387,2.599 1.149,5.617 3.702,5.687c1.272,0.034 2.556,-0.566 3.206,-1.66c0.624,-1.047 1.091,-1.831 2.504,-1.843c0.856,-0.007 1.683,0.152 2.541,0.04c0.137,-0.018 0.282,-0.11 0.272,-0.272c-0.05,-0.747 -0.832,-1.992 -0.185,-2.602c0.739,-0.698 2.296,0.045 3.224,-0.428c0.42,-0.215 0.61,-0.38 0.665,-0.807c0.032,-0.247 -0.181,-0.629 -0.161,-0.937c0.04,-0.583 -0.018,-0.646 0.584,-0.977c0.927,-0.511 2.013,-0.513 2.885,-1.146c0.875,-0.635 1.526,-1.554 2.161,-2.416" fill="#ffc736"/><path d="M279.507,141.15c0.262,0.214 0.278,2.309 0.103,2.924l-0.005,0.017c-0.006,0.146 -0.015,0.292 -0.044,0.439c-0.40375,1.97412 -0.96213,3.91344 -1.67,5.8l-5.083,-1.91c0.55507,-1.47767 1.00224,-2.99365 1.338,-4.536c-0.009,-0.359 0.021,-0.772 0.111,-1.262c0.123,-0.676 0.373,-1.55 0.707,-2.243c0.258,-0.531 0.894,-0.47 0.942,0.107c0.03,0.358 -0.033,0.773 -0.042,0.997l0.026,-0.008c0.38,-1.238 0.475,-2.02 1.065,-1.883c0.44,0.102 0.534,0.622 0.5,1.742c0.017,0.003 0.031,0.011 0.048,0.015c0.113,-0.575 0.325,-1.15 0.753,-1.094c0.426,0.056 0.475,1.101 0.44,1.714c0.016,0.013 0.031,0.024 0.046,0.038c0.257,-0.919 0.51,-1.067 0.765,-0.857" data-paper-data="{&quot;origPos&quot;:null}" fill="#75564a"/><path d="M279.726,142.53c0,0.861 -0.038,1.375 -0.166,2.001c-0.40355,1.97374 -0.9616,3.91271 -1.669,5.799l-5.082,-1.91c0.233,-0.617 0.45,-1.267 0.655,-1.937c1.449,1.29 3.334,2.271 4.677,0.233c0.745,-1.133 1.165,-2.69 1.585,-4.186M249.005,172.851c-0.92427,0.30634 -1.94183,0.09366 -2.66604,-0.55721c-0.72421,-0.65088 -1.0439,-1.64005 -0.8376,-2.59166c0.2063,-0.95161 0.90692,-1.71959 1.83565,-2.01213z" data-paper-data="{&quot;origPos&quot;:null}" fill="#75564a"/><path d="M253.732,163.437c0,0 0.166,7.235 0.467,13.062c0.302,5.826 -0.603,15.168 -0.503,16.574c0.101,1.407 0.704,2.512 2.009,3.717c1.306,1.206 5.224,1.909 5.526,2.914c0.301,1.004 -0.101,2.31 -2.109,3.314c-2.01,1.005 -3.818,0.402 -3.818,0.402c0,0 4.32,4.923 1.306,7.434c-3.014,2.511 -9.544,-1.206 -9.544,-1.206c0,0 -1.306,2.412 -2.712,3.616c-1.407,1.206 -4.22,2.813 -7.434,2.713c-3.215,-0.1 -1.808,-4.52 -1.808,-4.52c0,0 -2.713,1.607 -5.673,2.611c-2.96,1.006 -7.186,0.703 -8.723,-0.904c-1.536,-1.607 2.843,-5.224 2.843,-5.224c0,0 -3.617,0.201 -5.589,0c-1.972,-0.2 -5.261,-1.808 -5.964,-4.52c-0.703,-2.712 7.735,-2.712 8.71,-3.515c0.975,-0.805 1.134,-4.219 1.938,-8.137c0.804,-3.918 3.416,-10.046 4.32,-14.466c0.905,-4.42 0.436,-7.33 0.558,-10.664c0.105,-2.904 10.995,-2.294 10.995,-2.294z" fill="#ffc736"/><path d="M243.25,125.468c5.477,-1.808 10.95,-0.302 14.774,5.926c3.916,6.374 2.403,16.575 -3.021,19.539c-5.425,2.965 -27.235,3.064 -27.235,3.064c0,0 -5.716,1.455 -7.826,-3.818c-2.11,-5.272 -3.817,-13.763 2.013,-19.99c6.826,-7.291 17.982,-6.53 21.294,-4.721" fill="#533a27"/><path d="M229.6,126.33c-2.8,0.884 -5.233,1.95 -7.526,3.74c6.836,-7.16 17.883,-6.4 21.174,-4.602c3.442,-1.136 6.881,-0.962 9.91,0.868c-1.664,-0.537 -3.377,-0.857 -5.131,-0.823c-0.998,0.018 -2.028,0.099 -2.996,0.356c-0.666,0.177 -1.338,0.551 -2.046,0.534c-0.737,-0.017 -1.346,0.091 -1.994,-0.192c-3.337,-1.455 -8.006,-0.951 -11.391,0.119" fill="#533a27"/><path d="M252.246,151.726c-0.083,0.089 -0.172,0.173 -0.256,0.261c-7.922,1.935 -24.222,2.01 -24.222,2.01c0,0 -0.347,0.088 -0.901,0.142c-3.377,-2.844 -6.182,-6.548 -6.608,-11.024c-0.496,-5.238 1.553,-10.685 6.232,-13.392c4.055,-2.344 9.66,-3.298 14.29,-3.084c1.508,0.07 2.909,0.474 4.379,0.76c1.336,0.259 2.701,0.403 3.998,0.837c2.512,0.839 4.962,2.877 6.648,4.891c2.16,2.581 3.041,6.303 2.394,9.617c-0.478,2.454 -2.195,4.343 -3.822,6.176c-0.902,0.679 -1.375,1.986 -2.132,2.806" fill="#533a27"/><path d="M226.143,150.06c0.015,2.38 -1.054,3.616 -4.006,3.237c-2.953,-0.38 -5.734,-3.946 -5.444,-6.314c0.459,-3.766 5.03,-4.5 7.17,-2.194c1.862,2.005 2.262,2.653 2.28,5.27" data-paper-data="{&quot;origPos&quot;:null}" fill="#75564a"/><path d="M220.428,146.191c-0.568,-0.628 -0.99,-1.616 -0.975,-2.52c1.512,-0.454 3.292,-0.087 4.41,1.118c1.862,2.005 2.262,2.654 2.28,5.27c0.015,2.38 -1.054,3.618 -4.006,3.238c-0.068,-0.01 -0.136,-0.028 -0.204,-0.04c-0.44338,-0.46248 -0.81667,-0.98738 -1.108,-1.558c-0.356,-0.702 -0.379,-1.505 -0.709,-2.217c-0.466,-1.009 -1.622,-2.343 0.192,-2.835c0.205,-0.056 0.255,-0.306 0.12,-0.455M253.731,150.059c0.018,-2.617 0.418,-3.265 2.28,-5.27c2.141,-2.306 6.711,-1.572 7.171,2.194c0.289,2.368 -2.492,5.934 -5.445,6.314c-2.952,0.379 -4.021,-0.857 -4.005,-3.237" data-paper-data="{&quot;origPos&quot;:null}" fill="#75564a"/><path d="M255.617,153.223c-1.359,-0.371 -1.896,-1.479 -1.885,-3.164c0.018,-2.616 0.418,-3.265 2.278,-5.27c1.153,-1.242 3.007,-1.594 4.547,-1.075c-0.149,0.471 -0.327,0.93 -0.556,1.354c-0.228,0.422 -0.68,0.835 -0.796,1.307c-0.101,0.413 0.054,0.634 0.209,1.007c0.328,0.797 0.634,1.23 0.248,2.09c-0.224,0.5 -0.625,0.919 -0.99,1.321c-0.88034,0.96976 -1.91205,1.7904 -3.055,2.43" data-paper-data="{&quot;origPos&quot;:null}" fill="#75564a"/><path d="M257.92,148.874c0,9.93 -8.051,12.657 -17.983,12.657c-9.931,0 -17.982,-2.726 -17.982,-12.657c0,-9.932 1.644,-21.297 17.982,-21.297c16.338,0 17.983,11.365 17.983,21.297" data-paper-data="{&quot;origPos&quot;:null}" fill="#75564a"/><path d="M226.613,145.121c-1.505,0.621 -3.008,1.43 -4.628,1.653c0.272,-9.365 2.756,-19.197 17.952,-19.197c14.064,0 17.238,8.422 17.849,17.102c-2.874,-0.747 -5.569,-2.247 -8.257,-3.454c-1.634,-0.733 -3.277,-1.451 -4.962,-2.063c-1.388,-0.504 -2.806,-1.072 -4.308,-0.872c-1.322,0.176 -2.482,0.868 -3.607,1.538c-1.614,0.961 -3.269,1.848 -4.914,2.754c-1.671,0.922 -3.36,1.811 -5.125,2.539" data-paper-data="{&quot;origPos&quot;:null}" fill="#75564a"/><path d="M231.703,152.173c0.02218,1.36207 -0.69178,2.63027 -1.8678,3.31778c-1.17603,0.68751 -2.63137,0.68751 -3.8074,0c-1.17603,-0.68751 -1.88998,-1.95571 -1.8678,-3.31778c0.03353,-2.059 1.71222,-3.71059 3.7715,-3.71059c2.05928,0 3.73797,1.65159 3.7715,3.71059M255.713,152.173c0.02218,1.36207 -0.69177,2.63027 -1.8678,3.31778c-1.17603,0.68751 -2.63137,0.68751 -3.8074,0c-1.17603,-0.68751 -1.88998,-1.95571 -1.8678,-3.31778c0.03353,-2.059 1.71222,-3.71059 3.7715,-3.71059c2.05928,0 3.73797,1.65159 3.7715,3.71059" fill="#ff8eaf"/><path d="M232.756,141.113c0.474,0.566 0.227,1.509 -0.081,2.112c-0.044,0.083 -0.09,0.163 -0.14,0.24c0.2,0.279 0.32,0.618 0.32,0.988c0.00041,0.69091 -0.41548,1.31402 -1.05369,1.5787c-0.6382,0.26468 -1.37301,0.1188 -1.8617,-0.36961c-0.48869,-0.48841 -0.635,-1.22312 -0.3707,-1.86148c0.26431,-0.63836 0.88717,-1.05461 1.57808,-1.05461c0.073,0 0.142,0.012 0.213,0.022c0.498,-0.396 0.467,-1.326 1.028,-1.702c0.104,-0.07 0.287,-0.05 0.368,0.047M250.255,143.225c-0.042,0.083 -0.09,0.163 -0.14,0.24c0.2,0.28 0.32,0.619 0.32,0.988c0.00041,0.69091 -0.41548,1.31402 -1.05369,1.5787c-0.6382,0.26468 -1.37301,0.1188 -1.8617,-0.36961c-0.48869,-0.48841 -0.635,-1.22312 -0.37069,-1.86148c0.26431,-0.63836 0.88717,-1.05461 1.57808,-1.05461c0.072,0 0.142,0.012 0.212,0.021c0.5,-0.395 0.468,-1.325 1.03,-1.701c0.103,-0.07 0.286,-0.05 0.367,0.047c0.474,0.566 0.227,1.509 -0.081,2.112" fill="#007951"/><path d="M239.868,153.816c-2.712,0 -5.295,-1.785 -6.224,-4.345c-0.11377,-0.31314 0.04785,-0.65923 0.361,-0.773c0.31314,-0.11377 0.65923,0.04785 0.773,0.361c0.777,2.142 3.079,3.667 5.353,3.544c2.275,-0.121 4.402,-1.88 4.947,-4.092c0.04381,-0.21713 0.20315,-0.39276 0.41501,-0.45744c0.21186,-0.06468 0.44212,-0.008 0.59974,0.14763c0.15762,0.15563 0.21723,0.38515 0.15525,0.59781c-0.678,2.751 -3.223,4.857 -6.053,5.007c-0.10889,0.00632 -0.21793,0.00965 -0.327,0.01" fill="#ff8eaf"/><path d="M240.842,147.543c-0.18681,0.00015 -0.36314,-0.0863 -0.47744,-0.23407c-0.11429,-0.14776 -0.15365,-0.34015 -0.10656,-0.52093l0.223,-0.857l-0.704,-0.193c-0.32116,-0.08837 -0.50986,-0.42034 -0.4215,-0.7415c0.08837,-0.32116 0.42034,-0.50987 0.7415,-0.4215l1.278,0.352c0.31722,0.0882 0.50536,0.41422 0.423,0.733l-0.373,1.432c-0.06952,0.26504 -0.309,0.44988 -0.583,0.45" fill="#ffab66"/><path d="M238.829,126.372c2.235,-0.109 8.191,0.201 13.561,4.821c5.104,4.391 7.017,12.685 5.409,12.585c-1.607,-0.101 -9.627,-5.352 -15.957,-6.457c-6.329,-1.107 -20.394,10.75 -20.895,8.84c-0.502,-1.908 -0.63,-9.836 4.498,-14.21c6.552,-5.589 11.148,-5.47 13.384,-5.579" fill="#533a27"/><path d="M226.197,136.173c-0.191,3.314 -1.491,6.397 -2.906,9.388c-1.188,0.643 -2.008,0.966 -2.268,0.725c2.193,-3.111 3.002,-6.984 5.174,-10.113M231.146,134.079c0.196,2.608 -0.463,5.201 -1.42,7.659c-0.82732,0.48597 -1.65068,0.97866 -2.47,1.478c1.54,-2.921 2.587,-6.095 3.89,-9.136M233.179,139.824c0.941,-2.209 1.681,-4.499 2.567,-6.732c0.29,1.846 0.112,3.726 -0.173,5.587c-0.81041,0.35516 -1.60885,0.73704 -2.394,1.145M239.052,130.4c1.034,2.197 1.7,4.499 2.11,6.855c-0.872,-0.031 -1.858,0.135 -2.914,0.441c0.09,-1.029 0.277,-2.054 0.424,-3.076c0.2,-1.4 0.193,-2.821 0.38,-4.22M243.388,132.18c1.896,1.565 2.819,4.011 3.316,6.573c-0.888,-0.344 -1.78,-0.653 -2.66,-0.91c-0.127,-1.889 -0.547,-3.763 -0.656,-5.663M256.101,141.145c0.21271,0.73799 0.38299,1.48754 0.51,2.245c-0.501,-0.218 -1.114,-0.515 -1.814,-0.863c-0.366,-2.639 -1.215,-5.197 -1.617,-7.839c1.483,1.783 2.293,4.302 2.92,6.457M251.279,139.359c0.18059,0.54225 0.33872,1.09171 0.474,1.647c-0.838,-0.41 -1.722,-0.832 -2.634,-1.24c-0.667,-2.126 -1.303,-4.261 -1.527,-6.481c1.864,1.241 3.023,4.116 3.687,6.074" fill="#533a27"/><path d="M233.61,171.777c0,1.49779 -1.21421,2.712 -2.712,2.712c-1.49779,0 -2.712,-1.21421 -2.712,-2.712c0,-1.49779 1.2142,-2.712 2.712,-2.712c1.49779,0 2.712,1.2142 2.712,2.712M242.65,178.558c0,1.49779 -1.21421,2.712 -2.712,2.712c-1.49779,0 -2.712,-1.21421 -2.712,-2.712c0,-1.49779 1.2142,-2.712 2.712,-2.712c1.49779,0 2.712,1.2142 2.712,2.712M253.148,181.814c0,1.49779 -1.2142,2.712 -2.712,2.712c-1.49779,0 -2.712,-1.21421 -2.712,-2.712c0,-1.49779 1.21421,-2.712 2.712,-2.712c1.49779,0 2.712,1.2142 2.712,2.712M243.554,207.187c0,1.49779 -1.2142,2.712 -2.712,2.712c-1.49779,0 -2.712,-1.2142 -2.712,-2.712c0,-1.49779 1.21421,-2.712 2.712,-2.712c1.49779,0 2.712,1.21421 2.712,2.712M254.654,205.68c0.01884,0.98114 -0.49381,1.89592 -1.3405,2.39201c-0.84669,0.49609 -1.89532,0.49609 -2.74201,0c-0.84669,-0.49609 -1.35934,-1.41087 -1.3405,-2.39201c0.02837,-1.47723 1.234,-2.65993 2.7115,-2.65993c1.4775,0 2.68313,1.1827 2.7115,2.65993M232.151,208.393c0,1.49779 -1.21421,2.712 -2.712,2.712c-1.49779,0 -2.712,-1.2142 -2.712,-2.712c0,-1.49779 1.2142,-2.712 2.712,-2.712c1.49779,0 2.712,1.2142 2.712,2.712M223.429,203.872c0,1.49779 -1.2142,2.712 -2.712,2.712c-1.49779,0 -2.712,-1.2142 -2.712,-2.712c0,-1.49779 1.21421,-2.712 2.712,-2.712c1.49779,0 2.712,1.21421 2.712,2.712M252.444,194.89c0.01884,0.98114 -0.4938,1.89592 -1.34049,2.39201c-0.84669,0.49609 -1.89532,0.49609 -2.74201,0c-0.84669,-0.49609 -1.35934,-1.41087 -1.3405,-2.39201c0.02837,-1.47723 1.234,-2.65992 2.7115,-2.65992c1.4775,0 2.68313,1.1827 2.7115,2.65992M245.362,188.654c0,1.49807 -1.21443,2.7125 -2.7125,2.7125c-1.49807,0 -2.7125,-1.21443 -2.7125,-2.7125c0,-1.49807 1.21443,-2.7125 2.7125,-2.7125c1.49807,0 2.7125,1.21443 2.7125,2.7125M234.864,184.526c0,1.49779 -1.21421,2.712 -2.712,2.712c-1.49779,0 -2.712,-1.2142 -2.712,-2.712c0,-1.49779 1.2142,-2.712 2.712,-2.712c1.49779,0 2.712,1.21421 2.712,2.712M229.44,194.078c0,1.49807 -1.21443,2.7125 -2.7125,2.7125c-1.49807,0 -2.7125,-1.21443 -2.7125,-2.7125c0,-1.49779 1.21421,-2.712 2.712,-2.712c1.49779,0 2.712,1.2142 2.712,2.712M252.444,171.174c0,1.49779 -1.2142,2.712 -2.712,2.712c-1.49779,0 -2.712,-1.2142 -2.712,-2.712c0,-1.49779 1.2142,-2.712 2.712,-2.712c1.49779,0 2.712,1.21421 2.712,2.712M239.636,197.602c0,1.49779 -1.2142,2.712 -2.712,2.712c-1.49779,0 -2.712,-1.2142 -2.712,-2.712c0,-1.49779 1.21421,-2.712 2.712,-2.712c1.49779,0 2.712,1.21421 2.712,2.712" fill="#ffffff"/><path d="M207.074,215.92c0,0 3.507,4.972 4.11,7.082c0,0 -5.68,1.16 -6.23,2.161c-0.55,1.003 -1.606,4.396 -2.51,4.357c-0.904,-0.04 -2.562,-3.917 -2.26,-6.8c0.301,-2.883 1.055,-4.239 3.014,-4.842c1.959,-0.603 3.876,-1.959 3.876,-1.959" fill="#ffc736"/><path d="M207.46,222.543c-0.628,-0.077 -1.236,-0.262 -1.856,-0.383c-0.298,-0.058 -0.733,-0.217 -1.03,-0.143c-0.715,0.178 -0.338,0.76 -0.067,1.232c0.127,0.22 -0.081,0.439 -0.307,0.4c-1.312,-0.224 -0.84,1.152 -0.781,1.745c0.047,0.467 0.04,0.882 -0.03,1.349c-0.146,0.94 -0.43,1.844 -0.755,2.735c0.858,-0.38 1.807,-3.382 2.32,-4.315c0.55,-1.002 6.23,-2.161 6.23,-2.161c-0.0939,-0.30892 -0.20987,-0.6107 -0.347,-0.903c-1.022,0.51 -2.238,0.586 -3.377,0.444M254.113,231.021c0,0 2.29,0.148 4.047,-0.65c1.758,-0.798 3.317,-2.54 3.317,-2.54c0,0 1.333,2.703 2.342,3.045c1.008,0.343 2,-0.946 2.824,-1.237c0.823,-0.291 1.653,-0.592 1.874,0.304c0.221,0.895 -2.97,4.852 -4.594,6.056c-1.624,1.203 -3.505,2.577 -4.218,2.318c-0.714,-0.258 -4.258,-4.929 -5.592,-7.296" fill="#ffc736"/><path d="M261.493,229.816c0.008,-0.638 0.033,-1.275 0.023,-1.911c0.215,0.423 1.389,2.661 2.302,2.971c1.009,0.343 2.001,-0.947 2.825,-1.237c0.804,-0.284 1.611,-0.571 1.854,0.252c-1.083,0.148 -2.025,0.553 -2.973,1.297c-0.573,0.45 -1.042,0.97 -1.57,1.463c-1.109,1.039 -1.083,-0.417 -1.279,-1.174c-0.064,-0.247 -0.365,-0.242 -0.498,-0.065c-0.842,1.124 -0.691,-1.072 -0.684,-1.596M259.75,237.066c0.475,0.462 1.082,0.633 1.739,0.63c-0.769,0.468 -1.424,0.752 -1.784,0.622c-0.508,-0.184 -2.443,-2.597 -4.001,-4.827c0.21675,0.24923 0.44815,0.48531 0.693,0.707c0.53134,0.48287 1.13327,0.88179 1.785,1.183c0.409,0.185 0.766,0.306 1.036,0.687c0.225,0.317 0.237,0.711 0.532,0.997" fill="#ffc736"/><path d="M242.941,164.081l3.335,-0.2c0.264,0.633 0.409,1.356 0.409,2.17c0,3.727 -3.021,5.843 -6.748,5.843c-3.727,0 -6.747,-2.116 -6.747,-5.843c-0.00424,-0.56604 0.07425,-1.12966 0.233,-1.673c1.16851,-0.07244 2.33938,-0.09979 3.51,-0.082v-2.859c0.978,0.064 1.98,0.094 3.004,0.094c1.024,0 2.027,-0.031 3.003,-0.094v2.643z" data-paper-data="{&quot;origPos&quot;:null}" fill="#75564a"/><path d="M246.16387,163.99312c0.264,0.633 0.409,1.356 0.409,2.17c0,3.15 -2.162,5.143 -5.08,5.688c1.07894,-0.67189 2.02531,-1.53623 2.792,-2.55c0.848,-1.112 1.588,-2.999 -0.11,-3.749c-0.59,-0.26 -1.258,-0.201 -1.883,-0.184c-1.264,0.034 -1.808,-0.214 -1.498,-1.658c0.037,-0.169 -0.077,-0.346 -0.263,-0.344c-1.006,0.009 -2.58,0.209 -3.71,-0.192v-1.625c0.978,0.063 1.98,0.094 3.004,0.094c1.024,0 2.027,-0.031 3.003,-0.094v2.643l3.336,-0.199" data-paper-data="{&quot;origPos&quot;:null}" fill="#75564a"/></g></g></svg>