<svg version="1.1" xmlns="http://www.w3.org/2000/svg" xmlns:xlink="http://www.w3.org/1999/xlink" width="58.21731" height="114.54529" viewBox="0,0,58.21731,114.54529"><g transform="translate(-210.31083,-122.93324)"><g data-paper-data="{&quot;isPaintingLayer&quot;:true}" fill-rule="evenodd" stroke="none" stroke-width="1" stroke-linecap="butt" stroke-linejoin="miter" stroke-miterlimit="10" stroke-dasharray="" stroke-dashoffset="0" style="mix-blend-mode: normal"><path d="M244.17962,231.614c0.064,0.249 -0.016,0.518 -0.188,0.783c-0.546,0.865 -1.508,1.499 -2.325,2.083c-1.267,0.879 -2.876,1.364 -4.279,2.047c-1.272,0.546 -2.94,1.567 -4.086,0.3c-1.525,-1.799 -0.269,-4.03 1.487,-5.14h-0.004l-0.54,-11.318l9.846,-0.078l0.089,11.323M254.85162,231.527c1.769,1.079 3.071,3.294 1.573,5.116c-1.128,1.284 -2.813,0.29 -4.093,-0.236c-1.413,-0.659 -3.026,-1.12 -4.311,-1.979c-0.826,-0.572 -1.802,-1.188 -2.357,-2.044c-0.176,-0.262 -0.262,-0.521 -0.202,-0.78l-0.09,-11.324l9.849,-0.078l-0.359,11.325h-0.01" data-paper-data="{&quot;origPos&quot;:null}" fill="#755a4d"/><path d="M244.461,231.651h0.018c0.071,0.248 -0.01,0.524 -0.181,0.788c-0.549,0.866 -1.511,1.506 -2.33,2.09c-0.133,0.093 -0.269,0.184 -0.406,0.261l-7.305,0.06l-0.023,-2.443c0.26245,-0.25579 0.54988,-0.4846 0.858,-0.683h-0.006l-0.186,-3.808l9.534,-0.074z" fill="#343434"/><path d="M244.434,228.279l0.005,0.184l-9.509,0.077l-0.009,-0.184zM244.44,228.655v0.186l-9.488,0.077l-0.01,-0.188z" fill="#5a5a5a"/><path d="M256.706,233.012l0.012,1.66l-7.977,0.062c-0.143,-0.077 -0.276,-0.17 -0.412,-0.259c-0.83,-0.567 -1.802,-1.192 -2.365,-2.049c-0.176,-0.261 -0.263,-0.535 -0.194,-0.787h0.007l-0.03,-3.809l9.538,-0.075l-0.122,3.809h-0.009c0.61021,0.37196 1.13828,0.8643 1.552,1.447z" fill="#343434"/><path d="M245.749,228.268l9.521,-0.076l-0.002,0.186l-9.517,0.074zM245.753,228.642l9.507,-0.074l-0.007,0.186l-9.5,0.076z" fill="#5a5a5a"/><path d="M235.109,231.724c0,0 1.821,-1.158 5.924,-0.046c1.657,0.176 2.16,-1.366 2.932,-1.71c0.391,-0.178 0.502,-0.007 0.502,-0.007l0.013,1.69c0.068,0.249 -0.013,0.519 -0.184,0.789c-0.547,0.866 -1.509,1.505 -2.33,2.086c-1.266,0.887 -2.868,1.365 -4.275,2.05c-1.27,0.547 -2.94,1.559 -4.09,0.292c-1.521,-1.793 -0.261,-4.008 1.492,-5.144h-0.006l-0.002,-0.009l0.025,0.009" fill="#e63744"/><path d="M244.179,232.616c-0.562,0.78 -1.446,1.37 -2.212,1.91c-0.533,0.37 -1.123,0.671 -1.733,0.944l-0.172,-0.338c1.821,-0.546 3.906,-2.695 3.906,-2.695l0.212,0.178" fill="#333433"/><path d="M235.055,232.888c2.404,-0.019 4.523,0.927 5.666,2.356c-0.986,0.482 -2.058,0.857 -3.03,1.331c-1.271,0.549 -2.938,1.559 -4.088,0.294c-1.066,-1.252 -0.774,-2.701 0.09,-3.851c0.005,-0.006 0.007,-0.006 0.009,-0.016c0.44762,-0.07093 0.89983,-0.10904 1.353,-0.114" fill="#9b1d2b"/><path d="M244.424,230.153c-0.396,0.002 -0.714,0.737 -0.708,1.64c0.002,0.442 0.085,0.842 0.215,1.138c0.13,-0.157 0.26,-0.319 0.364,-0.493c0.172,-0.267 0.255,-0.538 0.185,-0.787l-0.013,-1.496l-0.043,-0.002M255.136,231.566l0.031,-0.01l-0.004,0.008h-0.01c1.775,1.105 3.07,3.306 1.578,5.121c-1.133,1.284 -2.816,0.298 -4.094,-0.227c-1.42,-0.663 -3.031,-1.116 -4.308,-1.984c-0.83,-0.565 -1.802,-1.192 -2.367,-2.05c-0.176,-0.264 -0.262,-0.533 -0.192,-0.786l-0.02,-1.685c0,0 0.115,-0.174 0.508,-0.004c0.776,0.335 1.302,1.867 2.953,1.662c4.092,-1.173 5.925,-0.045 5.925,-0.045" fill="#e63744"/><path d="M246.089,232.599l0.202,-0.182c0,0 2.125,2.12 3.954,2.635l-0.167,0.342c-0.615,-0.265 -1.213,-0.56 -1.749,-0.92c-0.771,-0.527 -1.665,-1.103 -2.24,-1.875" fill="#333433"/><path d="M255.213,232.728c0.468,-0.002 0.915,0.031 1.35,0.091c0,0.009 0.011,0.009 0.011,0.02c0.882,1.136 1.194,2.576 0.158,3.846c-1.134,1.283 -2.816,0.3 -4.095,-0.226c-0.983,-0.464 -2.056,-0.82 -3.058,-1.286c1.122,-1.447 3.226,-2.424 5.634,-2.445" fill="#9b1d2b"/><path d="M245.802,230.14c0.395,-0.001 0.728,0.73 0.734,1.63c0.004,0.443 -0.07,0.845 -0.196,1.14c-0.1396,-0.14998 -0.26575,-0.31194 -0.377,-0.484c-0.176,-0.265 -0.263,-0.534 -0.195,-0.787l-0.014,-1.496l0.048,-0.002" fill="#e63744"/><path d="M267.93962,198.682c0.27,2.353 -0.843,4.412 -2.48,4.602c-1.077,0.118 -2.102,-0.585 -2.76,-1.745c-0.606,0.501 -1.208,0.708 -1.634,0.484c-0.815,-0.417 -0.734,-2.182 0.18,-3.927c0.30771,-0.61353 0.70882,-1.17556 1.189,-1.666c0.03294,-0.07189 0.06966,-0.14199 0.11,-0.21c0,0 -1.678,-10.176 -3.395,-12.566c-0.861,-1.202 -1.947,-2.142 -2.145,-2.675v-0.01c1.413,10.078 0.037,24.118 0.037,24.118l-24.857,0.196c0,0 -1.862,-15.439 -0.283,-25.57l0.006,0.006c0,0 -8.805,3.623 -11.228,2.764c-2.996,-1.062 -6.503,-10.778 -6.503,-10.778c-1.293,-0.449 -2.545,-1.664 -3.271,-3.36c-1.146,-2.63 -0.586,-5.415 1.25,-6.21c1.194,-0.522 2.64,-0.064 3.814,1.051c0.526,-0.796 1.15,-1.246 1.73,-1.136c1.087,0.196 1.603,2.269 1.173,4.616c-0.171,0.897 -0.457,1.706 -0.8,2.35c-0.044,0.288 -0.106,0.572 -0.198,0.832l5.55,6.418c0,0 5.096,-4.803 8.508,-3.128c0.765,-0.284 3.054,-1.124 3.054,-1.124c1.32,-0.934 4.237,-1.375 6.002,-1.563c-0.304,-0.654 -0.491,-1.358 -0.494,-1.884l7.59,-0.06c0.004,0.528 -0.172,1.244 -0.472,1.911c1.8,0.153 4.69,0.55 5.98,1.465c0.681,0.357 6.507,3.427 8.203,5.557c3.706,4.661 5.222,18.751 5.222,18.751c0,0 0,-0.025 -0.006,-0.066c0.474,0.679 0.815,1.565 0.928,2.557" data-paper-data="{&quot;origPos&quot;:null}" fill="#755a4d"/><path d="M241.631,171.067c-0.42611,-0.66677 -0.70499,-1.41682 -0.818,-2.2c2.5083,0.37847 5.06131,0.34841 7.56,-0.089l-0.02,0.01l-6.722,2.28M238.31,184.269c1.572,-0.012 3.533,-0.269 5.911,-0.772l-0.029,-0.122c-5.082,1.074 -8.266,1.029 -9.722,-0.143c-0.648,-0.519 -0.967,-1.248 -0.975,-2.273l-0.13,0.003c0.012,1.022 0.347,1.823 1.024,2.37c0.803,0.643 2.096,0.954 3.921,0.938M251.38,184.166c-1.576,0.012 -3.544,-0.213 -5.925,-0.679l0.024,-0.122c5.096,0.994 8.28,0.898 9.718,-0.296c0.638,-0.532 0.944,-1.267 0.936,-2.29h0.125c0.007,1.023 -0.31,1.828 -0.98,2.387c-0.788,0.656 -2.078,0.986 -3.898,1M244.811,179.342h-0.126l0.023,2.873h0.128zM227.88,178.18c1.56,-0.01 3.49,-0.373 4.988,-1.768l-0.09,-0.087c-1.693,1.58 -3.98,1.802 -5.6,1.712c-1.756,-0.101 -3.128,-0.582 -3.14,-0.588l-0.044,0.12c0.015,0.008 1.401,0.492 3.178,0.592c0.23569,0.01489 0.47185,0.02123 0.708,0.019M263.89,186.232l-0.124,0.035l-1.602,-5.167v-0.038c0.008,-0.026 0.394,-1.428 0.458,-2.87c0.04375,0.06454 0.08414,0.13129 0.121,0.2c-0.078,1.304 -0.399,2.501 -0.45,2.687z" fill="#eeac6c"/><path d="M257.581,183.329c1.035,7.277 1.343,14.622 0.857,19.41c-0.18,1.789 -0.524,2.882 -0.524,2.882c0,0 -2.166,10.324 -2.394,14.6l-9.848,0.08c0.044,-1.661 -0.561,-7.337 -0.561,-7.337l-0.275,0.002c0,0 -0.492,6.066 -0.445,7.344l-9.846,0.08c-0.267,-5.044 -2.474,-14.564 -2.474,-14.564c0,0 -0.335,-1.083 -0.504,-2.867c-0.5,-5.245 -0.63,-12.305 0.28,-20.255c2.845,-0.257 3.767,-9.204 3.897,-10.91c0.024,-0.328 0.03,-0.528 0.03,-0.528c0.11984,-0.07532 0.24481,-0.14215 0.374,-0.2c1.136,-0.586 2.949,-0.92 4.42,-1.104c0,0 0.314,10.91 4.206,10.894c3.892,-0.025 4.109,-10.96 4.109,-10.96c1.633,0.184 3.705,0.551 4.825,1.246l0.002,0.008c0.068,5.969 1.966,12.229 3.871,12.18M235.778,171.266h-0.004zM235.778,171.266c0,-0.006 0,-0.004 0,0" data-paper-data="{&quot;origPos&quot;:null}" fill="#e63744"/><path d="M236.966,220.398l-4.976,-14.84l3.563,14.853zM253.249,220.269l4.74,-14.918l-3.333,14.907zM236.782,170.78c-0.21643,0.08438 -0.42838,0.17984 -0.635,0.286c-0.137,0.067 -0.259,0.123 -0.372,0.2c0,0 -0.007,0.198 -0.031,0.527c-0.129,1.706 -0.872,9.54 -3.718,9.792c-0.147,0.596 -0.058,0.422 -0.174,1.062c2.555,-0.41 5.49,-8.827 4.93,-11.866M257.676,184.027c-0.052,-0.274 -0.037,-0.43 -0.095,-0.698c-1.457,-0.18 -3.803,-6.21 -3.871,-12.179l-0.002,-0.008c-0.35434,-0.21028 -0.73057,-0.38129 -1.122,-0.51c-0.585,3.363 2.458,13.761 5.09,13.395M244.77,182.234c-4.01,0.022 -4.983,-8.87 -5.198,-12.132c0.341,-0.054 0.674,-0.101 0.997,-0.14c0,0 0.313,10.911 4.204,10.893c3.894,-0.025 4.11,-10.96 4.11,-10.96c0.314,0.035 0.645,0.073 0.982,0.129c-0.184,3.266 -1.08,12.185 -5.096,12.21" fill="#0771b7"/><path d="M222.3,150.386c-0.17449,-1.10503 -0.26808,-2.22134 -0.28,-3.34c-0.095,-12.308 9.795,-22.363 22.086,-22.462c12.298,-0.098 22.35,9.802 22.449,22.105c0.00738,1.06967 -0.0628,2.13847 -0.21,3.198c1.296,0.694 2.17,2.01 2.183,3.536c0.019,2.259 -1.868,4.108 -4.216,4.128c-0.162,0 -0.319,-0.008 -0.474,-0.025c-3.745,6.865 -11.003,11.548 -19.378,11.616c-8.359,0.066 -15.683,-4.488 -19.543,-11.284c-0.065,0 -0.133,0.006 -0.199,0.006c-2.346,0.018 -4.268,-1.8 -4.283,-4.058c-0.012,-1.416 0.73,-2.674 1.864,-3.42" data-paper-data="{&quot;origPos&quot;:null}" fill="#755a4d"/><path d="M237.229,146.096c-0.772,-0.174 -0.908,-1.201 -3.386,-0.74c-0.779,0.18 -2.417,1.156 -2.732,1.808c-0.316,0.652 -0.088,-2.392 2.457,-3.522c1.835,-0.675 2.457,-0.642 3.977,-0.642c1.52,0 1.987,0.907 1.766,1.65c0,0 -0.503,1.803 -2.082,1.446zM251.134,146.096c0.772,-0.174 0.908,-1.201 3.386,-0.74c0.779,0.18 2.417,1.156 2.732,1.808c0.316,0.652 0.087,-2.392 -2.457,-3.522c-1.835,-0.675 -2.457,-0.642 -3.977,-0.642c-1.52,0 -1.987,0.907 -1.766,1.65c0,0 0.503,1.803 2.082,1.446zM237,152c0,1.657 -0.895,3 -2,3c-1.105,0 -2,-1.343 -2,-3c0,-1.657 0.895,-3 2,-3c1.105,0 2,1.343 2,3M255,152c0,1.657 -0.895,3 -2,3c-1.105,0 -2,-1.343 -2,-3c0,-1.657 0.895,-3 2,-3c1.105,0 2,1.343 2,3" data-paper-data="{&quot;origPos&quot;:null}" fill="#353233"/><path d="M244.02,155.069c-1.125,0.153 -3.02,1.834 -3.02,1.834c0,0 0.207,-1.009 0.503,-1.299c0.8,-1.156 2.487,-1.604 2.487,-1.604c0,0 2.173,0.703 2.65,1.588c0.443,0.824 0.34,1.238 0.34,1.238c0,0 -2.121,-1.871 -2.96,-1.756z" fill="#eeac6c"/><path d="M237.2,158.696c0,0 6.897,3.208 13.172,-0.397c0,0 -1.39,5.47 -5.95,5.561c-4.115,0.122 -4.984,-1.492 -5.477,-1.956c-0.492,-0.463 -1.42,-1.772 -1.745,-3.208" data-paper-data="{&quot;origPos&quot;:null}" fill="#963a45"/><path d="M267.485,143.773c0.058,2.625 -0.811,8.286 -2.567,11.675c0,0 -4.475,-12.367 -8.098,-14.301c-4.432,-2.36 -16.024,1.19 -19.984,-1.89c-0.662,-0.511 -0.596,-1.678 -0.596,-1.678c0,0 -0.743,1.494 -1.109,1.912c-1.887,2.189 -6.811,5.375 -9.147,7.085c-1.879,1.374 -1.968,1.358 -1.49,9.193c0,0 -3.527,-7.105 -3.372,-11.87c0.041,-1.373 0.683,-4.416 1.744,-7.519c3.852,-7.9 11.93,-13.369 21.312,-13.446c10.772,-0.085 19.942,6.972 23.012,16.748c0.16223,1.35797 0.26067,2.7228 0.295,4.09" data-paper-data="{&quot;origPos&quot;:null}" fill="#353233"/></g></g></svg>