<svg xmlns="http://www.w3.org/2000/svg" xmlns:xlink="http://www.w3.org/1999/xlink" width="120" height="120"><defs><path id="a" d="M0 108.774h119.908V0H0z"/></defs><g fill="none" fill-rule="evenodd" transform="translate(0 5)"><path fill="#E95035" d="M25.635 70.066H14.24v-2.31a2.252 2.252 0 0 1 2.256-2.247h6.883a2.252 2.252 0 0 1 2.256 2.248v2.309z"/><path fill="#3E3A39" d="M111.941 108.773H7.966c-4.4 0-7.966-3.553-7.966-7.938V77.132c0-4.385 3.566-7.94 7.966-7.94H111.94c4.4 0 7.966 3.555 7.966 7.94v23.703c0 4.385-3.566 7.938-7.966 7.938"/><path fill="#3E3A39" d="M84.911 71.972H34.996v-3.66a3.57 3.57 0 0 1 3.576-3.565h42.763a3.57 3.57 0 0 1 3.576 3.564v3.66z"/><path fill="#3E3A39" d="M76.698 65.78H43.209v-1.282a3.57 3.57 0 0 1 3.577-3.565h26.336a3.57 3.57 0 0 1 3.576 3.565v1.283z"/><mask id="b" fill="#fff"><use xlink:href="#a"/></mask><path fill="#3E3A39" d="M56.997 77.53h5.914V25.844h-5.914z" mask="url(#b)"/><path fill="#E95035" d="M75.29 15.283C75.29 6.843 68.424 0 59.954 0S44.616 6.843 44.616 15.283c0 8.441 6.868 15.284 15.338 15.284 8.47 0 15.336-6.843 15.336-15.284" mask="url(#b)"/><path fill="#ED7B57" d="M63.695 12.167c0-3.876-3.153-7.018-7.043-7.018-3.889 0-7.043 3.142-7.043 7.018s3.154 7.018 7.043 7.018c3.89 0 7.043-3.142 7.043-7.018" mask="url(#b)"/></g></svg>