<svg version="1.1" xmlns="http://www.w3.org/2000/svg" xmlns:xlink="http://www.w3.org/1999/xlink" width="62.23862" height="119.8225" viewBox="0,0,62.23862,119.8225"><g transform="translate(-209.36234,-119.99984)"><g data-paper-data="{&quot;isPaintingLayer&quot;:true}" fill-rule="evenodd" stroke="none" stroke-width="1" stroke-linecap="butt" stroke-linejoin="miter" stroke-miterlimit="10" stroke-dasharray="" stroke-dashoffset="0" style="mix-blend-mode: normal"><path d="M246.372,182.697c2.42,-1.337 12.62,-8.955 14.531,-11.452c0.583,-0.762 1.014,-2.882 1.49,-3.494c0.3,-0.678 0.574,-1.36 0.633,-2.042c0.15,-1.749 0.57,-1.52 1.053,-1.089c0.282,0.252 0.219,1.989 0.185,3.083c0.817,-0.42 2.687,-2.366 4.978,-3.365c1.093,0.4 -2.9,3.34 -2.478,3.19c1.123,-0.398 3.366,-2.536 4.261,-2.243c1.306,0.428 -3.207,2.21 -3.708,3.415c-0.002,0.004 3.9,-2.331 4.279,-1.425c0.033,0.079 -0.094,0.215 -0.516,0.463c-0.593,0.347 -2.82,1.719 -3.228,1.961c0.853,-0.224 1.516,-0.41 2.352,-0.433c2.072,-0.058 -1.788,1.375 -2.22,1.53c-1.416,0.51 -3.903,1.936 -4.964,3.062c-3.977,6.23 -19.18,26.123 -21.605,12.694c-0.306,-1.688 2.83,-2.68 4.957,-3.855M253.33,212.365c0.6,1.052 -2.693,15.587 -1.134,20.421c0.55,1.707 -3.016,8.47 -5.324,-1.417c-0.872,-3.737 -4.438,-18.547 -0.215,-19.52c1.465,-0.337 5.922,-0.803 6.674,0.516M237.292,217.13c0.182,1.195 -8.119,13.604 -8.4,18.672c-0.1,1.79 -5.861,6.842 -4.464,-3.212c0.529,-3.8 2.52,-18.898 6.815,-18.31c1.49,0.205 5.82,1.351 6.049,2.85" data-paper-data="{&quot;origPos&quot;:null}" fill="#be9269"/><path d="M254.537,234.605c-1.764,-4.708 -4.672,1.304 -6.628,-0.616c-0.393,-0.387 -0.51,-0.62 -0.603,-0.995c-0.265,-1.071 -0.875,4.23 -0.696,4.996c1.618,-0.373 1.023,0.354 1.143,-0.768c0.015,-0.009 8.782,2.72 6.784,-2.617M230.858,237.047c-0.57,-4.99 -4.85,0.149 -6.283,-2.184c-0.288,-0.469 -0.345,-0.723 -0.344,-1.109c0.002,-1.103 -1.875,3.896 -1.888,4.683c1.662,0.025 0.908,0.588 1.297,-0.472c0.016,-0.006 7.864,4.74 7.218,-0.918M249.922,174.004c6.574,7.496 8.2,46.236 3.409,54.858c-1.9,3.42 -0.488,2.5 -6.46,2.507c-0.296,-0.64 -3.21,-4.676 -4.125,-8.591c-3.138,-13.443 -7.263,0.544 -11.456,6.851c-1.83,2.755 -0.254,5.948 -7.464,1.576c-2.028,-1.23 4.28,-47.767 8.655,-52.145c3.78,-3.784 11.908,-9.779 16.86,-5.858c0.361,0.286 0.365,0.554 0.581,0.802" fill="#210001"/><path d="M239.633,217.024c1.269,0 2.324,1.874 3.224,5.728c0.721,3.093 2.691,6.248 3.637,7.764c0.15654,0.24223 0.30594,0.489 0.448,0.74c1.274,0 2.218,0.043 2.908,0.073c0.42,0.02 0.752,0.034 1.024,0.034c1.027,0 1.122,-0.183 1.737,-1.383c0.16,-0.315 0.36,-0.705 0.62,-1.173c2.203,-3.963 3.224,-15.131 2.544,-27.79c-0.559,-10.387 -2.413,-22.918 -5.939,-26.939c-0.094,-0.107 -0.15,-0.216 -0.206,-0.322c-0.081,-0.158 -0.159,-0.306 -0.36,-0.466c-1.052,-0.832 -2.317,-1.254 -3.759,-1.254c-4.32,0 -9.675,3.826 -12.95,7.103c-3.937,3.941 -9.803,44 -8.933,51.124c0.081,0.673 0.207,0.816 0.258,0.846c2.437,1.478 3.933,2.137 4.85,2.137c0.938,0 1.198,-0.726 1.558,-1.731c0.216,-0.603 0.461,-1.285 0.902,-1.948c0.978,-1.473 1.965,-3.388 2.918,-5.238c1.936,-3.757 3.764,-7.305 5.519,-7.305M228.736,233.472c-0.961,0 -2.494,-0.67 -4.969,-2.17c-0.178,-0.108 -0.294,-0.429 -0.366,-1.012c-0.87,-7.145 5.039,-47.346 9,-51.31c3.304,-3.308 8.72,-7.17 13.11,-7.17c1.495,0 2.808,0.438 3.9,1.303c0.24,0.189 0.336,0.375 0.422,0.539c0.051,0.098 0.099,0.191 0.175,0.278c3.563,4.064 5.433,16.651 5.993,27.075c0.57,10.567 -0.006,23.295 -2.57,27.912c-0.258,0.464 -0.457,0.853 -0.617,1.165c-0.625,1.218 -0.773,1.507 -1.94,1.507c-0.277,0 -0.612,-0.014 -1.034,-0.034c-0.688,-0.03 -1.629,-0.072 -2.898,-0.072h-0.143l-0.03,-0.066c-0.059,-0.125 -0.23,-0.402 -0.469,-0.782c-0.952,-1.527 -2.935,-4.702 -3.665,-7.832c-0.86,-3.685 -1.871,-5.553 -3.002,-5.553c-1.616,0 -3.497,3.651 -5.316,7.182c-0.957,1.856 -1.946,3.776 -2.932,5.259c-0.426,0.64 -0.666,1.31 -0.876,1.9c-0.378,1.051 -0.675,1.881 -1.773,1.881" fill="#231916"/><path d="M249.247,169.528c-0.729,5.981 -26.228,48.939 -27.831,48.746c-19.418,-2.334 -16.459,-50.577 16.826,-53.137c3.398,-0.262 11.285,2.1 11.005,4.39" fill="#6c2600"/><path d="M249.892,169.618c1.37,5.87 -7.84,54.894 -9.413,55.257c-19.054,4.39 -32.846,-41.958 -2.44,-55.653c3.104,-1.398 11.328,-1.851 11.853,0.396" fill="#5d1b00"/><path d="M239,186.868c-0.287,2.525 0.008,14.23 0.872,16.997c0.263,0.844 1.637,2.303 1.845,2.987c0.351,0.589 0.72,1.159 1.205,1.569c1.243,1.05 0.845,1.241 0.259,1.37c-0.342,0.076 -1.622,-0.903 -2.432,-1.515c-0.12,0.836 0.35,3.276 -0.124,5.523c-0.89,0.602 -0.971,-3.957 -1.085,-3.562c-0.3,1.053 0.114,3.874 -0.588,4.386c-1.025,0.746 0.047,-3.581 -0.595,-4.602c-0.003,-0.003 -0.329,4.164 -1.218,3.96c-0.076,-0.017 -0.112,-0.185 -0.072,-0.632c0.055,-0.63 0.211,-3.028 0.247,-3.464c-0.288,0.757 -0.503,1.352 -0.934,1.989c-1.068,1.58 -0.081,-2.073 0.033,-2.48c0.374,-1.33 0.628,-3.953 0.345,-5.35c-2.58,-6.312 -9.479,-28.34 1.984,-22.947c1.442,0.678 0.51,3.552 0.258,5.771" data-paper-data="{&quot;origPos&quot;:null}" fill="#be9269"/><path d="M232.336,185.628c-2.852,1.147 2.576,-12.333 7.691,-4.839c1.207,1.768 0.642,4.513 0.07,4.645c-0.031,0.007 -4.184,-1.246 -7.761,0.194" fill="#6c2600"/><path d="M228.267,163.067c-5.375,-22.434 32.612,-28.461 36.875,-10.841c5.568,23.015 -32.951,27.224 -36.875,10.841" data-paper-data="{&quot;origPos&quot;:null}" fill="#be9269"/><path d="M257.727,153.406c0.951,-0.181 4.181,0.452 3.564,3.129c-0.617,2.674 -3.514,3.115 -4.869,1.758c-1.325,-1.327 -1.146,-4.421 1.305,-4.887" fill="#fefefe"/><path d="M255.693,157.008c-0.01,-0.639 -0.245,-1.212 0.192,-2.195c0.875,-1.974 3.463,-2.014 5.178,-1.259c1.512,0.666 1.978,-1.142 1.59,-0.269c-1.102,2.482 -4.78,-0.347 -6.36,2.164c-0.043,0.07 -0.6,1.575 -0.6,1.559" fill="#210001"/><path d="M258.303,154.249c0.683,-0.13 3.003,0.324 2.56,2.246c-0.444,1.92 -2.524,2.237 -3.497,1.262c-0.951,-0.953 -0.823,-3.174 0.937,-3.508" fill="#231916"/><path d="M236.753,157.394c2.45,-0.466 3.767,2.343 3.03,4.062c-0.756,1.76 -3.612,2.412 -5.18,0.153c-1.568,-2.26 1.199,-4.034 2.15,-4.215" fill="#fefefe"/><path d="M237.216,158.507c1.691,-0.322 2.6,1.616 2.09,2.803c-0.52,1.214 -2.492,1.665 -3.573,0.105c-1.083,-1.56 0.826,-2.784 1.483,-2.908" fill="#231916"/><path d="M240.137,159.931c0.004,0.014 -0.876,-1.133 -0.932,-1.181c-2.028,-1.74 -4.432,1.659 -6.043,-0.183c-0.565,-0.648 0.318,0.783 1.44,-0.188c1.272,-1.1 3.312,-1.661 4.592,-0.196c0.637,0.729 0.782,1.197 0.943,1.748" fill="#210001"/><path d="M246.672,158.426c0.873,-0.136 -1.67,-0.041 -1.524,2.462c0.147,2.502 3.112,2.959 1.404,2.546c-2.95,-0.712 -3.558,-4.433 0.12,-5.008" fill="#f1c28c"/><path d="M254.385,150.183c1.293,-1.532 3.46,-1.942 4.924,-0.354c0.265,0.286 0.029,0.57 -1.063,0.227c-0.927,-0.292 -2.195,-0.262 -3.088,0.133c-0.247,0.11 -0.486,0.467 -0.774,0.272c-0.01,-0.14 -0.11,-0.146 0.001,-0.278M238.621,153.056c-1.77,-0.95 -3.937,-0.535 -4.707,1.478c-0.139,0.362 0.186,0.54 1.072,-0.18c0.753,-0.611 1.942,-1.049 2.92,-1.009c0.27,0.011 0.625,0.255 0.82,-0.031c-0.043,-0.133 0.048,-0.176 -0.105,-0.258" data-paper-data="{&quot;origPos&quot;:null}" fill="#6b4915"/><path d="M257.786,155.554c0.265,-0.05 1.165,0.126 0.993,0.873c-0.172,0.745 -0.979,0.868 -1.357,0.49c-0.369,-0.371 -0.319,-1.233 0.364,-1.363M237.518,159.701c0.265,-0.051 1.165,0.126 0.993,0.872c-0.172,0.745 -0.979,0.868 -1.357,0.49c-0.369,-0.37 -0.319,-1.233 0.364,-1.363" fill="#fefefe"/><path d="M232.454,143.403c5.9,-5.021 15.254,-6.704 22.604,-4.245c0.526,-2.224 5.682,-5.894 8.899,-1.129c0.941,1.395 1.532,4.528 0.137,5.73c-0.401,0.347 -0.776,0.643 -1.13,0.893c2.225,2.952 3.45,6.939 3.07,12.05c-9.229,-19.137 -16.71,0.342 -30.254,-6.987c-0.836,-0.453 -4.196,3.026 -5.818,7.372c-1.481,3.969 -0.608,8.369 -0.925,7.696c-2.41,-5.119 -2.785,-9.609 -1.778,-13.377c-0.655,-0.191 -1.399,-0.533 -2.273,-1.03c-1.603,-0.91 -1.636,-4.097 -0.985,-5.648c1.973,-4.694 6.735,-3.178 8.453,-1.325" data-paper-data="{&quot;origPos&quot;:null}" fill="#6b4915"/><path d="M257.142,138.402c1.77,1.185 3.298,2.814 4.44,4.952c0.447,0.838 2.405,4.632 1.875,8c-1.095,-3.545 -6.892,-10.671 -11.202,-11.88c-10.882,-3.052 -21.969,5.151 -22.456,16.631c-0.063,1.479 -1.689,-7.218 1.552,-12.49c0.003,-5.378 -0.865,-18.576 -0.232,-18.548c0.059,0.002 2.106,-2.883 2.514,-1.78c0.18,0.486 -1.723,1.539 -1.893,2.802c-0.291,2.157 3.336,-0.825 2.876,0.708c0.108,0.387 -1.579,2.338 -1.752,3.565c-0.144,1.021 3.63,-2.3 4.003,-1.102c0.714,2.289 0.34,6.781 -1.032,10.206c4.528,-2.871 10.521,-4.284 15.796,-3.273c-2.22,-2.858 -3.812,-6.863 -3.81,-9.188c0.002,-1.254 4.594,0.813 4.152,-0.121c-0.528,-1.122 -2.72,-2.492 -2.732,-2.892c-0.895,-1.33 3.457,0.456 2.537,-1.52c-0.538,-1.156 -2.668,-1.605 -2.64,-2.122c0.062,-1.174 2.874,0.982 2.93,0.962c0.571,-0.202 3.426,11.575 5.073,17.09" fill="#231916"/><path d="M259.553,160.163c0.057,-0.08 -0.097,-0.56 -0.352,-0.25c-0.189,0.228 0.176,0.5 0.352,0.25M260.38,161.465c0.057,-0.08 -0.097,-0.56 -0.353,-0.25c-0.188,0.227 0.176,0.5 0.353,0.25M258.963,161.385c-0.096,-0.024 -0.294,-0.488 0.103,-0.418c0.292,0.052 0.194,0.493 -0.103,0.418M258.075,160.662c-0.095,-0.024 -0.293,-0.489 0.104,-0.418c0.292,0.051 0.194,0.492 -0.104,0.418M258.163,161.804c-0.096,-0.024 -0.294,-0.488 0.103,-0.418c0.292,0.051 0.194,0.492 -0.103,0.418M258.589,162.553c-0.096,-0.025 -0.294,-0.489 0.103,-0.419c0.292,0.051 0.194,0.493 -0.103,0.419M259.437,162.241c-0.095,-0.024 -0.293,-0.488 0.104,-0.418c0.292,0.051 0.194,0.493 -0.104,0.418M260.737,162.125c-0.095,-0.024 -0.293,-0.488 0.104,-0.418c0.292,0.051 0.194,0.493 -0.104,0.418M257.692,163.018c-0.096,-0.024 -0.293,-0.488 0.103,-0.419c0.293,0.052 0.195,0.493 -0.103,0.419M257.043,161.312c-0.095,-0.024 -0.293,-0.488 0.104,-0.418c0.292,0.051 0.193,0.493 -0.104,0.418M257.266,162.201c-0.096,-0.024 -0.294,-0.489 0.104,-0.419c0.291,0.051 0.193,0.493 -0.104,0.419M261.409,161.177c-0.096,-0.024 -0.293,-0.488 0.103,-0.418c0.292,0.051 0.194,0.493 -0.103,0.418M256.465,162.633c-0.096,-0.024 -0.294,-0.488 0.104,-0.418c0.292,0.051 0.194,0.493 -0.104,0.418M260.698,160.241c0.095,0.024 0.293,0.488 -0.104,0.418c-0.292,-0.051 -0.194,-0.493 0.104,-0.418M237.776,163.987c0.057,-0.08 -0.097,-0.56 -0.353,-0.25c-0.188,0.227 0.177,0.5 0.353,0.25M238.603,165.289c0.056,-0.08 -0.098,-0.56 -0.353,-0.25c-0.188,0.227 0.176,0.499 0.353,0.25M237.185,165.209c-0.095,-0.024 -0.293,-0.488 0.104,-0.418c0.292,0.051 0.194,0.493 -0.104,0.418M236.298,164.485c-0.096,-0.024 -0.293,-0.488 0.103,-0.418c0.293,0.051 0.195,0.493 -0.103,0.418M236.385,165.628c-0.095,-0.024 -0.293,-0.488 0.104,-0.419c0.292,0.052 0.194,0.493 -0.104,0.419M236.812,166.376c-0.096,-0.024 -0.294,-0.488 0.103,-0.418c0.292,0.051 0.194,0.493 -0.103,0.418M237.661,166.065c-0.096,-0.024 -0.294,-0.488 0.103,-0.418c0.292,0.051 0.194,0.492 -0.103,0.418M238.96,165.949c-0.096,-0.024 -0.293,-0.488 0.103,-0.418c0.293,0.05 0.194,0.492 -0.103,0.418M235.915,166.842c-0.096,-0.024 -0.293,-0.488 0.103,-0.42c0.293,0.052 0.195,0.494 -0.103,0.42M235.265,165.136c-0.095,-0.024 -0.292,-0.488 0.104,-0.418c0.292,0.051 0.194,0.493 -0.103,0.418M235.488,166.024c-0.095,-0.024 -0.293,-0.488 0.104,-0.418c0.292,0.051 0.194,0.493 -0.104,0.418M239.632,165.001c-0.096,-0.024 -0.294,-0.488 0.103,-0.418c0.292,0.051 0.194,0.492 -0.103,0.418M234.688,166.457c-0.096,-0.025 -0.293,-0.488 0.103,-0.419c0.293,0.052 0.194,0.493 -0.103,0.419M238.921,164.064c0.095,0.024 0.292,0.488 -0.104,0.419c-0.293,-0.052 -0.194,-0.494 0.104,-0.419" fill="#aa3e0a"/><path d="M242.39,166.844c-0.335,-0.376 3.143,-0.746 5.661,-1.41c3.042,-0.8 6.008,-1.776 5.822,-1.371c-3.284,7.178 -10.654,3.712 -11.483,2.78" fill="#ee8785"/><path d="M246.683,168.357c-0.007,-1.452 3.535,-2.331 4.74,-1.292c-0.55,0.452 -1.273,0.959 -2.155,1.216c-0.899,0.263 -1.9,0.165 -2.585,0.076" fill="#d76b6c"/><path d="M251.655,165.344c-0.468,0.151 -3.243,1.082 -3.603,0.09c-0.023,1.183 -4.002,1.951 -4.273,1.759c-0.023,-0.016 -0.634,-0.376 -1.003,-0.633c1.573,-0.527 10.106,-2.447 10.113,-2.425c0.229,0.764 -0.629,1.014 -1.234,1.21" fill="#fefefe"/></g></g></svg>