<svg version="1.1" xmlns="http://www.w3.org/2000/svg" xmlns:xlink="http://www.w3.org/1999/xlink" width="68.30989" height="119.81798" viewBox="0,0,68.30989,119.81798"><g transform="translate(-206.32229,-120.06602)"><g data-paper-data="{&quot;isPaintingLayer&quot;:true}" fill-rule="evenodd" stroke="none" stroke-width="1" stroke-linecap="butt" stroke-linejoin="miter" stroke-miterlimit="10" stroke-dasharray="" stroke-dashoffset="0" style="mix-blend-mode: normal"><path d="M234.934,185.204c2.292,3.469 -26.89,-5.065 -24.236,-15.904c3.404,-13.895 20.366,11.558 23.88,15.365z" fill="#98d3d8"/><path d="M227.968,176.371c2.227,2.509 5.505,6.031 6.987,8.99c0.71,1.42 -4.107,0.7 -9.227,-1.468c-0.829,-0.351 3.909,0.488 4.449,-1.139c0.638,-1.92 -2.591,-6.813 -2.209,-6.383" fill="#86ccd1"/><path d="M234.244,185.821l0.455,0.223c2.93,1.44 -20.32,7.378 -22.79,-1.076c-3.166,-10.838 18.438,-0.326 22.335,0.852z" fill="#98d3d8"/><path d="M234.189,185.821l0.455,0.223c1.417,0.696 -3.283,2.443 -8.796,3.108c-0.893,0.107 3.691,-1.312 3.367,-2.996c-0.383,-1.987 -5.552,-4.291 -5.009,-4.107c4.337,1.471 8.479,3.317 9.983,3.771z" fill="#86ccd1"/><path d="M249.898,185.402c3.513,-3.808 20.476,-29.261 23.879,-15.366c2.655,10.84 -26.528,19.373 -24.235,15.904z" fill="#98d3d8"/><path d="M256.508,177.107c0.382,-0.43 -2.847,4.464 -2.21,6.384c0.541,1.626 5.28,0.787 4.45,1.138c-5.12,2.168 -9.938,2.888 -9.227,1.469c1.481,-2.96 4.76,-6.482 6.987,-8.99" fill="#86ccd1"/><path d="M250.232,186.557c3.897,-1.179 25.501,-11.69 22.335,-0.852c-2.47,8.454 -25.72,2.516 -22.79,1.076z" fill="#98d3d8"/><path d="M250.287,186.557c1.504,-0.455 5.646,-2.3 9.983,-3.772c0.543,-0.184 -4.627,2.12 -5.01,4.108c-0.323,1.684 4.26,3.103 3.368,2.995c-5.514,-0.665 -10.213,-2.411 -8.797,-3.107z" fill="#86ccd1"/><path d="M249.852,169.117c0.525,0.354 -0.094,1.5 -0.094,1.507c-0.038,2.695 -3.495,8.624 -5.835,9.658c-7.256,3.21 -7.244,-2.798 -9.496,-5.418c-2.9,-3.373 0.133,-6.197 2.403,-6.537c4.545,-0.684 13.016,0.787 13.022,0.79" data-paper-data="{&quot;origPos&quot;:null}" fill="#ffdb8f"/><path d="M244.54,209.375c0.878,-1.525 5.976,-0.921 7.648,-0.508c4.823,1.191 0.537,18.379 -0.513,22.718c-2.777,11.476 -6.767,3.556 -6.114,1.576c1.851,-5.606 -1.721,-22.569 -1.021,-23.786" data-paper-data="{&quot;origPos&quot;:null}" fill="#ffdb8f"/><path d="M242.856,235.246c2.083,-5.456 5.33,1.582 7.597,-0.627c0.455,-0.444 0.592,-0.714 0.703,-1.15c0.318,-1.243 0.945,4.937 0.73,5.826c-1.848,-0.456 -1.177,0.398 -1.299,-0.91c-0.016,-0.01 -10.092,3.045 -7.731,-3.14" fill="#210001"/><path d="M225.519,180.048c1.659,-1.866 4.276,-3.851 3.494,-5.444c-1.809,-3.686 -3.6,-2.845 -6.265,0.655c-3.331,4.375 -7.825,12.382 -10.335,19.043h-0.001c-0.646,1.46 -2.569,3.694 -3.764,4.668c-0.366,0.298 -3.61,2.998 -1.63,2.246c0.798,-0.304 1.376,-0.708 2.124,-1.214c-0.313,0.375 -2.002,2.467 -2.459,3.007c-0.324,0.384 -0.401,0.56 -0.343,0.626c0.668,0.762 3.652,-2.837 3.652,-2.833c-0.081,1.35 -3.84,4.612 -2.436,4.594c0.961,-0.012 2.411,-2.862 3.361,-3.629c0.358,-0.289 -2.513,3.934 -1.324,3.96c1.877,-1.748 3.03,-4.285 3.677,-4.97c0.334,1.084 0.853,2.808 1.209,2.96c0.611,0.262 1.092,0.345 0.653,-1.42c-0.172,-0.689 -0.135,-1.449 -0.072,-2.216c0.255,-0.759 -0.039,-2.984 0.269,-3.926c1.01,-3.09 8.302,-13.984 10.19,-16.107M230.538,209.965c0.878,-1.525 5.976,-0.922 7.648,-0.509c4.822,1.191 0.537,18.379 -0.513,22.718c-2.777,11.476 -6.767,3.556 -6.114,1.576c1.851,-5.605 -1.721,-22.569 -1.021,-23.785M221.062,149.065c7.09,-25.72 48.287,-10.679 42.76,9.545c-7.218,26.415 -47.936,9.235 -42.76,-9.545" data-paper-data="{&quot;origPos&quot;:null}" fill="#ffdb8f"/><path d="M255.778,155.677c1.048,0.346 3.916,2.785 1.816,5.154c-2.098,2.365 -5.23,1.2 -5.827,-0.93c-0.584,-2.083 1.311,-5.116 4.011,-4.224" fill="#fefefe"/><path d="M251.753,158.194c0.344,-0.653 0.43,-1.365 1.41,-2.117c1.967,-1.512 4.567,-0.112 5.857,1.607c1.138,1.517 2.605,-0.056 1.735,0.613c-2.476,1.9 -4.571,-3.012 -7.538,-1.348c-0.083,0.045 -1.472,1.261 -1.464,1.245" fill="#210001"/><path d="M255.886,156.852c0.752,0.248 2.812,2 1.304,3.7c-1.507,1.699 -3.755,0.862 -4.184,-0.668c-0.42,-1.495 0.94,-3.672 2.88,-3.032" fill="#231916"/><path d="M232.666,148.042c2.7,0.892 2.454,4.47 0.764,5.801c-1.727,1.362 -4.936,0.433 -5.245,-2.728c-0.308,-3.164 3.433,-3.42 4.48,-3.073" fill="#fefefe"/><path d="M232.51,149.426c1.864,0.616 1.694,3.085 0.527,4.004c-1.192,0.94 -3.406,0.299 -3.62,-1.883c-0.212,-2.183 2.37,-2.36 3.093,-2.12" fill="#231916"/><path d="M234.631,152.496c-0.004,0.016 -0.244,-1.636 -0.274,-1.716c-1.055,-2.892 -5.336,-0.787 -5.919,-3.549c-0.205,-0.972 -0.119,0.97 1.537,0.611c1.879,-0.407 4.223,0.162 4.685,2.358c0.231,1.093 0.115,1.646 -0.03,2.296" fill="#210001"/><path d="M241.977,154.609c0.946,0.348 -1.641,-0.972 -2.884,1.646c-1.242,2.616 1.46,4.729 -0.013,3.36c-2.544,-2.363 -1.087,-6.471 2.897,-5.006" fill="#f1c28c"/><path d="M254.237,150.552c-0.184,0.072 -0.088,0.134 -0.156,0.28c0.179,0.358 0.615,0.129 0.923,0.156c1.109,0.097 2.388,0.772 3.151,1.584c0.897,0.955 1.289,0.799 1.185,0.363c-0.578,-2.424 -2.965,-3.215 -5.103,-2.383M236.934,144.687c0.107,0.167 -0.008,0.161 -0.038,0.319c-0.353,0.182 -0.571,-0.263 -0.835,-0.425c-0.952,-0.583 -2.379,-0.803 -3.469,-0.603c-1.283,0.235 -1.508,-0.125 -1.168,-0.415c1.884,-1.61 4.273,-0.823 5.51,1.124" fill="#a05a22"/><path d="M254.646,157.886c0.292,0.097 1.091,0.777 0.505,1.437c-0.584,0.659 -1.457,0.334 -1.624,-0.259c-0.163,-0.581 0.366,-1.426 1.119,-1.178M232.149,150.804c0.292,0.097 1.091,0.777 0.505,1.437c-0.584,0.659 -1.457,0.334 -1.624,-0.26c-0.163,-0.58 0.366,-1.426 1.119,-1.177" fill="#fefefe"/><path d="M235.913,161.676c0.074,-0.606 2.087,0.811 3.803,1.386c2.071,0.695 4.218,1.151 3.86,1.515c-6.341,6.443 -7.846,-1.401 -7.663,-2.901" fill="#ee8785"/><path d="M237.062,165.8c0.773,-1.272 3.138,-0.37 3.226,1.106c-0.537,0.135 -1.195,0.237 -1.804,0.046c-0.62,-0.195 -1.103,-0.753 -1.422,-1.153" fill="#d76b6c"/><path d="M227.142,164.842c0.013,-0.883 -7.751,-2.469 -9.624,-11.529c-2.951,-14.283 8.072,-29.604 35.154,-24.503c18.242,3.436 26.116,44.406 17.51,59.394c-0.427,0.742 -17.354,-14.122 -22.672,-15.222c4.256,-4.762 8.104,-1.302 12.562,-8.258c10.698,-16.69 -9.557,-21.116 -11.67,-27.727c-5.292,4.595 -16.327,4.124 -19.872,7.129c-3.967,3.362 -10.605,9.218 -1.389,20.716" fill="#aa3e0a"/><path d="M228.854,235.835c2.082,-5.456 5.33,1.582 7.596,-0.627c0.456,-0.444 0.593,-0.714 0.704,-1.149c0.319,-1.243 0.945,4.936 0.73,5.825c-1.848,-0.456 -1.177,0.399 -1.299,-0.91c-0.017,-0.01 -10.093,3.045 -7.731,-3.139" fill="#210001"/><path d="M254.77,179.767c-1.714,-1.817 -4.568,-3.822 -3.65,-5.34c1.607,-2.655 0.591,-1.822 3.887,-2.145c1.032,-0.101 3.004,2.256 4.767,5.114c3.142,5.096 7.219,11.408 8.504,16.236c0.688,1.441 2.674,3.617 3.897,4.556c0.374,0.287 3.694,2.891 1.694,2.197c-0.808,-0.279 -1.396,-0.667 -2.158,-1.151c0.324,0.366 2.072,2.408 2.544,2.934c0.335,0.375 0.417,0.548 0.361,0.616c-0.647,0.781 -3.731,-2.73 -3.731,-2.724c0.119,1.346 3.969,4.497 2.565,4.52c-0.962,0.015 -2.491,-2.79 -3.463,-3.53c-0.365,-0.278 2.625,3.859 1.437,3.919c-1.926,-1.692 -3.151,-4.193 -3.818,-4.86c-0.303,1.094 -0.772,2.832 -1.124,2.995c-0.603,0.279 -1.081,0.376 -0.693,-1.401c0.151,-0.693 0.094,-1.452 0.007,-2.217c-0.275,-0.752 -0.045,-2.984 -0.38,-3.916c-1.098,-3.06 -8.698,-13.736 -10.646,-15.803" data-paper-data="{&quot;origPos&quot;:null}" fill="#ffdb8f"/><path d="M241.894,164.653c-0.582,-0.156 -5.124,-1.575 -5.198,-2.1c-0.004,-0.025 -0.161,-0.542 -0.22,-0.942c1.122,0.282 6.733,2.546 6.725,2.569c-0.286,0.774 -0.879,0.588 -1.307,0.473" fill="#fefefe"/><path d="M262.787,156.657c0.875,-4.2 -0.948,-14.646 -4.572,-18.27c-9.151,-9.15 -24.75,-7.012 -31.604,4.347c-0.98,1.625 3.078,-10.539 10.624,-12.713c11.36,-3.274 28.368,3.22 28.12,17.489c-0.018,1.097 -0.171,6.031 -2.568,9.147" fill="#210001"/><path d="M259.871,138.179c-0.043,0.093 -0.607,-0.843 -0.53,-1.053c3.379,-9.19 5.753,-7.053 5.177,-6.453c-3.563,3.719 -2.548,2.783 -4.648,7.506M240.577,131.805c-0.021,0.101 0.982,-0.318 1.042,-0.534c2.652,-9.43 -0.513,-9.123 -0.4,-8.296c0.698,5.127 0.428,3.767 -0.642,8.83" fill="#210001"/><path d="M266.211,128.39c0.738,0.281 1.41,3.617 -3.094,2.13c0.42,-4.737 2.954,-2.183 3.094,-2.13M241.055,120.08c-0.76,-0.214 -3.252,2.077 1.25,3.564c2.432,-4.071 -1.106,-3.524 -1.25,-3.564" fill="#210001"/><path d="M248.462,172.04c3.024,-0.537 6.116,-0.469 8.574,0.538c6.76,2.768 11.918,7.857 5.677,14.883c-1.458,1.64 -2.074,2.57 -3.38,1.946c1.09,15.185 0.825,37.204 -8.38,43.714c-1.36,0.45 -3.844,0.1 -5.581,-0.801c-4.681,-2.432 -3.089,-19.903 -4.479,-17.415c-1.338,2.395 -0.209,16.202 -3.028,16.405c-2.55,0.185 -4.228,1.896 -5.892,0.721c-5.219,-3.683 -11.253,-28.514 -9.946,-45.508c-1.252,0.195 -1.673,-0.833 -2.707,-2.655c-5.642,-9.936 10.133,-15.995 15.144,-14.363c0.792,1.77 1.616,4.8 5.417,6.204c4.003,1.48 8.414,-3.64 8.581,-3.669" fill="#f9c000"/><path d="M222.027,186.523c0.374,-0.068 9.853,5.61 18.616,5.61c8.67,0 15.82,-2.726 18.69,-2.726c0.103,1.525 0.14,2.126 0.186,2.901c-0.94,1.165 -6.755,2.15 -10.836,2.427c-2.501,0.169 -7.566,1.253 -12.43,0.572c-5.575,-0.78 -11.023,-3.495 -14.373,-6.023zM221.902,194.474c0.374,-0.069 10.074,5.81 18.838,5.81c8.67,0 16.115,-2.973 18.985,-2.973c0.104,1.526 0.006,2.325 0.052,3.1c-0.94,1.165 -6.916,2.198 -10.997,2.475c-2.5,0.17 -7.566,1.253 -12.43,0.573c-5.574,-0.78 -11.023,-3.495 -14.373,-6.023z" fill="#231916"/><path d="M222.57,202.8c0.373,-0.07 10.477,5.931 19.24,5.931c8.67,0 15.042,-3.638 17.913,-3.638c0.103,1.526 -0.065,3.382 -0.02,4.157c-1.738,2.155 -10.886,3.541 -16.22,3.51c-8.914,-0.054 -15.547,-3.188 -20.436,-6.878zM234.863,169.63c1.07,-0.196 2.963,5.692 6.106,6.327c2.975,0.6 6.114,-3.19 7.493,-3.917c1.512,8.767 -14.512,14.724 -13.6,-2.41" fill="#231916"/><path d="M250.938,162.26c0.105,0.336 0.595,0.163 0.47,-0.154c-0.17,-0.43 -0.504,0.046 -0.47,0.154M249.588,163.408c0.106,0.336 0.595,0.163 0.47,-0.154c-0.169,-0.431 -0.503,0.045 -0.47,0.154M251.154,163.814c-0.349,-0.022 -0.302,-0.543 0.033,-0.497c0.455,0.061 0.079,0.504 -0.033,0.497M252.369,163.325c-0.349,-0.021 -0.302,-0.543 0.033,-0.498c0.454,0.062 0.079,0.505 -0.033,0.498M251.877,164.555c-0.349,-0.022 -0.302,-0.543 0.033,-0.498c0.455,0.062 0.079,0.505 -0.033,0.498M251.154,165.232c-0.349,-0.022 -0.301,-0.543 0.033,-0.498c0.455,0.062 0.079,0.505 -0.033,0.498M250.341,164.592c-0.348,-0.021 -0.302,-0.542 0.033,-0.497c0.455,0.061 0.079,0.504 -0.033,0.497M248.971,164.011c-0.348,-0.021 -0.302,-0.543 0.034,-0.498c0.454,0.062 0.078,0.505 -0.034,0.498M251.965,166.058c-0.349,-0.022 -0.302,-0.543 0.033,-0.498c0.455,0.062 0.079,0.505 -0.033,0.498M253.262,164.404c-0.348,-0.022 -0.301,-0.544 0.034,-0.498c0.454,0.061 0.078,0.504 -0.034,0.498M252.712,165.305c-0.349,-0.021 -0.302,-0.543 0.033,-0.497c0.455,0.061 0.079,0.504 -0.033,0.497M248.572,162.731c-0.348,-0.022 -0.302,-0.543 0.034,-0.498c0.455,0.062 0.078,0.505 -0.034,0.498M253.43,166.062c-0.349,-0.022 -0.301,-0.543 0.033,-0.498c0.455,0.062 0.079,0.505 -0.033,0.497M249.67,161.945c0.348,0.022 0.302,0.544 -0.034,0.498c-0.454,-0.061 -0.078,-0.505 0.034,-0.498M230.345,155.884c0.105,0.337 0.595,0.164 0.47,-0.153c-0.17,-0.431 -0.503,0.045 -0.47,0.153M228.996,157.032c0.105,0.337 0.595,0.164 0.47,-0.153c-0.17,-0.431 -0.504,0.045 -0.47,0.153M230.561,157.438c-0.348,-0.021 -0.301,-0.542 0.033,-0.497c0.455,0.062 0.079,0.504 -0.033,0.497M231.776,156.95c-0.349,-0.022 -0.302,-0.543 0.033,-0.498c0.455,0.062 0.079,0.505 -0.033,0.498M231.284,158.18c-0.349,-0.022 -0.301,-0.544 0.033,-0.498c0.455,0.062 0.079,0.505 -0.033,0.498M230.561,158.856c-0.348,-0.021 -0.301,-0.542 0.033,-0.497c0.455,0.062 0.079,0.504 -0.033,0.497M229.748,158.217c-0.348,-0.022 -0.301,-0.543 0.034,-0.497c0.455,0.061 0.078,0.504 -0.034,0.497M228.378,157.636c-0.348,-0.022 -0.301,-0.544 0.034,-0.498c0.455,0.061 0.079,0.504 -0.034,0.498M231.372,159.682c-0.349,-0.021 -0.301,-0.542 0.033,-0.497c0.455,0.062 0.079,0.505 -0.033,0.497M232.67,158.028c-0.349,-0.021 -0.302,-0.543 0.033,-0.498c0.454,0.062 0.079,0.505 -0.033,0.498M232.119,158.93c-0.348,-0.022 -0.301,-0.543 0.033,-0.497c0.455,0.061 0.079,0.504 -0.032,0.497M227.98,156.356c-0.349,-0.022 -0.302,-0.544 0.033,-0.498c0.455,0.062 0.079,0.505 -0.034,0.498M232.838,159.687c-0.35,-0.022 -0.302,-0.544 0.032,-0.498c0.455,0.061 0.08,0.504 -0.032,0.497M229.077,155.57c0.349,0.022 0.302,0.543 -0.034,0.498c-0.455,-0.062 -0.078,-0.505 0.035,-0.498" fill="#aa3e0a"/></g></g></svg>