<svg version="1.1" xmlns="http://www.w3.org/2000/svg" xmlns:xlink="http://www.w3.org/1999/xlink" width="103.81292" height="115.77873" viewBox="0,0,103.81292,115.77873"><g transform="translate(-188.55693,-122.22)"><g data-paper-data="{&quot;isPaintingLayer&quot;:true}" fill-rule="evenodd" stroke="none" stroke-width="1" stroke-linecap="butt" stroke-linejoin="miter" stroke-miterlimit="10" stroke-dasharray="" stroke-dashoffset="0" style="mix-blend-mode: normal"><path d="M240.083,220.708l-0.576,7.672h-9.133l-0.153,-7.672h-1.448l-0.162,7.672h-9.125l-0.576,-7.672z" data-paper-data="{&quot;origPos&quot;:null}" fill="#75574c"/><path d="M239.541,232.303c1.761,1.083 3.035,3.286 1.531,5.083c-1.137,1.263 -2.813,0.267 -4.092,-0.273c-1.408,-0.659 -3.015,-1.125 -4.295,-1.986c-0.81,-0.573 -1.79,-1.198 -2.34,-2.048c-0.173,-0.259 -0.254,-0.521 -0.193,-0.776h0.008v-3.924c0,0 7.89,-1.697 9.543,0l-0.163,3.924M228.875,232.303c0.061,0.246 -0.022,0.516 -0.195,0.776c-0.552,0.85 -1.521,1.475 -2.348,2.048c-1.27,0.861 -2.877,1.327 -4.28,1.986c-1.27,0.541 -2.956,1.536 -4.091,0.273c-1.502,-1.797 -0.229,-3.993 1.531,-5.083h-0.014l-0.146,-3.924c1.65,-1.703 9.547,0 9.547,0v3.924z" fill="#ad6921"/><path d="M241.64,206.824c0,0 1.84,13.884 -1.26,16.744c-1.936,1.774 -10.549,0 -10.549,0l-0.193,-9.707h-0.283l-0.198,9.707c0,0 -8.608,1.774 -10.546,0c-3.101,-2.859 -1.261,-16.744 -1.261,-16.744h24.29" fill="#999a72"/><path d="M216.43,210.997h4.784v9.7h-4.785zM237.827,210.997h4.79v9.7h-4.79z" fill="#888553"/><path d="M212.291,180.006c1.743,-2.218 8.053,-5.485 8.053,-5.485c0,0 -2.913,5.283 -3.448,7.629c-0.069,0.297 -0.235,1.095 -0.382,1.512c-0.194,0.52 -0.731,1.178 -1.567,2.347c-1.659,2.332 -3.214,12.207 -3.214,12.207c0.035,0.067 0.067,0.133 0.103,0.2c0.42,0.413 0.828,0.964 1.183,1.609c0.893,1.689 0.986,3.391 0.202,3.805c-0.419,0.224 -1.011,0.028 -1.599,-0.456c-0.64,1.129 -1.641,1.819 -2.685,1.715c-1.607,-0.171 -2.721,-2.157 -2.473,-4.445c0.099,-0.961 0.418,-1.821 0.878,-2.485c0,0.039 -0.028,0.067 -0.028,0.067v-0.01c0,0 1.391,-13.667 4.977,-18.21M260.718,164.778c1.799,0.759 2.364,3.45 1.27,6.016c-0.706,1.642 -1.919,2.836 -3.179,3.284h0.008c0,0 -3.356,9.442 -6.271,10.495c-2.374,0.853 -10.696,-2.51 -10.696,-2.51c0,0 -0.676,-2.571 -1.024,-3.381c-0.482,-1.111 -2.418,-4.161 -2.418,-4.161l11.399,4.045l5.38,-6.264c-0.097,-0.249 -0.162,-0.525 -0.202,-0.808c-0.345,-0.619 -0.628,-1.404 -0.801,-2.271c-0.443,-2.274 0.054,-4.286 1.11,-4.486c0.573,-0.11 1.178,0.318 1.698,1.091c1.132,-1.091 2.543,-1.538 3.726,-1.05" data-paper-data="{&quot;origPos&quot;:null}" fill="#75574c"/><path d="M263.423,171.515c-1.343,0.78 -4.59,1.253 -5.798,0.96c-1.272,-0.9 -2.318,-13.76 -2.318,-13.76l5.798,-0.964c0,0 4.88,11.385 2.318,13.764" fill="#21221f"/><path d="M269.952,166.83c-1.286,1.567 -4.415,3.65 -6.53,4.686l-2.317,-13.766l6.638,-4.051c1.516,2.7 2.693,9.97 2.21,13.13" fill="#333433"/><path d="M255.307,158.714c0,0 5.87,-3.556 8.024,-4.288c1.056,-0.354 4.41,-0.727 4.41,-0.727l-6.636,4.053l-5.798,0.962" fill="#333433"/><path d="M263,159.246c0.09,0.552 0,1.02 -0.209,1.062c-0.206,0.033 -0.46,-0.394 -0.545,-0.94c-0.099,-0.553 0,-1.023 0.206,-1.064c0.212,-0.032 0.458,0.39 0.547,0.942" fill="#9b1826"/><path d="M261.023,156.075l0.134,0.79v0.017c0.048,0.266 -0.517,0.582 -1.268,0.712c-0.734,0.119 -1.369,-0.009 -1.424,-0.271l-0.135,-0.804z" fill="#727272"/><path d="M259.595,155.797c0.74,-0.122 1.39,0 1.429,0.268c0.052,0.271 -0.52,0.592 -1.268,0.716c-0.741,0.118 -1.387,0.006 -1.427,-0.262c-0.047,-0.28 0.517,-0.594 1.266,-0.722" fill="#565657"/><path d="M267.534,154.762l0.087,0.535l-1.479,1.233l-0.13,-0.805zM273.935,165.085l-7.068,1.164h-0.058c-0.757,0.13 -1.668,-1.461 -2.008,-3.54c-0.35,-2.066 -0.009,-3.841 0.74,-3.986l-0.004,-0.036l7.128,-1.174z" fill="#727272"/><path d="M278.246,165.26l-8.8,1.462c-0.024,0.006 -0.05,0.015 -0.068,0.021c-0.947,0.152 -2.064,-1.805 -2.498,-4.378c-0.438,-2.554 -0.028,-4.752 0.91,-4.942v-0.004l8.88,-1.475z" fill="#565657"/><path d="M291.151,163.523l-14.383,2.386c-0.028,0.008 -0.05,0.012 -0.068,0.02c-1.03,0.165 -2.243,-1.958 -2.708,-4.748c-0.468,-2.761 -0.026,-5.149 0.988,-5.349l-0.01,-0.006l14.483,-2.402z" fill="#565657"/><path d="M272.175,161.484c0.408,2.459 1.444,4.36 2.366,4.384c-0.04014,0.01614 -0.08213,0.02722 -0.125,0.033c-0.951,0.162 -2.065,-1.799 -2.499,-4.375c-0.438,-2.573 -0.013,-4.787 0.937,-4.939c0.034,-0.012 0.078,-0.012 0.12,-0.012c-0.851,0.323 -1.223,2.449 -0.799,4.909M287.17,158.998c0.447,2.662 1.573,4.719 2.567,4.75c-0.04158,0.01721 -0.08532,0.02865 -0.13,0.034c-1.023,0.177 -2.241,-1.949 -2.707,-4.736c-0.475,-2.791 -0.02,-5.194 1.003,-5.361c0.045,-0.004 0.091,-0.004 0.142,-0.004c-0.927,0.346 -1.321,2.655 -0.875,5.318M275.263,160.972c0.45,2.665 1.572,4.72 2.568,4.754c-0.049,0.013 -0.089,0.027 -0.135,0.033c-1.026,0.171 -2.242,-1.951 -2.71,-4.735c-0.468,-2.795 -0.018,-5.193 1.01,-5.36c0.04416,-0.0107 0.08988,-0.0134 0.135,-0.008c-0.928,0.349 -1.316,2.656 -0.868,5.316" fill="#21221f"/><path d="M292.185,158.172c0.468,2.783 0.016,5.18 -1.002,5.36c-1.033,0.165 -2.245,-1.961 -2.713,-4.748c-0.475,-2.789 -0.016,-5.186 1.005,-5.36c1.028,-0.169 2.243,1.957 2.71,4.748" fill="#333224"/><path d="M291.167,158.339c0.377,2.246 0.016,4.179 -0.814,4.323c-0.204,0.032 -0.424,-0.053 -0.64,-0.232c-0.535,-0.865 -0.999,-2.163 -1.242,-3.647c-0.256,-1.484 -0.242,-2.863 -0.016,-3.85c0.137,-0.235 0.321,-0.393 0.532,-0.425c0.821,-0.133 1.802,1.582 2.18,3.832" fill="#21221f"/><path d="M288.591,156.4c-0.047,-0.379 0.383,-1.39 0.76,-1.333c1.371,0.199 1.581,5.269 1.581,5.269c0,0 -0.686,-6.576 -2.34,-3.936" fill="#eeeeed"/><path d="M254.133,168.921c-0.327,-2.17 0.224,-4.057 1.228,-4.2c1.019,-0.15 2.107,1.481 2.432,3.655c0.321,2.172 -0.234,4.048 -1.247,4.2c-1.006,0.151 -2.086,-1.491 -2.413,-3.654" data-paper-data="{&quot;origPos&quot;:null}" fill="#75574c"/><path d="M248.329,177.741c0.808,2.663 -1.352,6.38 -1.352,6.38l-4.87,-1.918c2.548,9.822 2.843,24.633 2.843,24.633h-31.092c0,0 0.245,-12.29 2.213,-21.907l-0.44,0.61c0,0 -4.537,0 -5.336,-3.159c0,0 2.305,-4.91 10.185,-7.926c2.033,-1.237 7.137,-1.424 7.137,-1.424l1.718,0.06h0.138l1.72,-0.09c0,0 4.505,0.218 6.73,1.28c8.053,2.37 10.407,3.46 10.407,3.46" fill="#f7b90b"/><path d="M238.391,174.43c0,0 0.294,7.444 3.694,7.721c2.54,9.816 2.841,24.611 2.841,24.611h0.01l0.065,1.963c0,0 -8.854,1.124 -11.494,0c-1.419,-0.598 -4.254,-2.258 -4.254,-2.258c0,0 -3.111,1.668 -4.586,2.258c-2.512,1.014 -10.851,0 -10.851,0l0.04,-1.977c0,0 0.258,-13.004 2.382,-22.701c-0.22,0.436 4.177,-1.77 4.203,-9.59v-0.002c1.112,-0.7 3.18,-1.085 4.822,-1.282c0,0 0.298,14.919 4.2,14.913c3.889,-0.013 4.117,-14.913 4.117,-14.913c1.649,0.197 3.739,0.565 4.825,1.282c-0.014,-0.017 -0.014,-0.025 -0.014,-0.025" fill="#7b7b3e"/><path d="M222.594,188.637c0,0.645 -0.528,1.17 -1.177,1.17c-0.3126,0.0024 -0.61333,-0.11956 -0.83597,-0.33901c-0.22264,-0.21945 -0.34892,-0.51839 -0.35103,-0.83099v-5.647c0,-0.643 0.529,-1.166 1.187,-1.166c0.65,0 1.177,0.523 1.177,1.166v5.648z" fill="#565541"/><path d="M221.297,186.13c-0.357,0 -0.747,-0.073 -1.1,-0.295l0.068,-0.108c0.983,0.617 2.29,0.006 2.298,0l0.058,0.116c-0.04,0.012 -0.622,0.287 -1.324,0.287M221.6,185.022c-0.00165,0.10896 -0.09103,0.19611 -0.2,0.195c-0.10747,-0.00055 -0.19445,-0.08753 -0.195,-0.195c0,-0.108 0.089,-0.197 0.196,-0.197c0.1093,-0.00001 0.19836,0.08772 0.2,0.197" fill="#393828"/><path d="M225.345,188.637c-0.0055,0.65131 -0.53768,1.17499 -1.189,1.17c-0.31223,0.0024 -0.61255,-0.11969 -0.83455,-0.33925c-0.222,-0.21956 -0.34739,-0.51852 -0.34845,-0.83075v-5.647c0,-0.643 0.525,-1.166 1.183,-1.166c0.658,0 1.19,0.523 1.19,1.166v5.648z" fill="#565541"/><path d="M224.045,186.13c-0.357,0 -0.75,-0.073 -1.096,-0.295l0.065,-0.108c0.98,0.617 2.287,0.006 2.299,0l0.055,0.116c-0.04,0.012 -0.62,0.287 -1.323,0.287M224.347,185.022c0.00083,0.05214 -0.01959,0.10237 -0.05656,0.13915c-0.03697,0.03678 -0.08731,0.05694 -0.13944,0.05585c-0.105,0 -0.203,-0.087 -0.203,-0.195c0,-0.108 0.098,-0.197 0.203,-0.197c0.113,0 0.196,0.089 0.196,0.197" fill="#393828"/><path d="M235.945,188.637c-0.0055,0.65131 -0.53768,1.17499 -1.189,1.17c-0.64721,0.00056 -1.1728,-0.52279 -1.175,-1.17v-5.647c0,-0.643 0.528,-1.166 1.175,-1.166c0.658,0 1.19,0.523 1.19,1.166v5.648z" fill="#565541"/><path d="M234.649,186.13c-0.353,0 -0.743,-0.073 -1.102,-0.295l0.07,-0.108c0.982,0.617 2.29,0.006 2.298,0l0.063,0.116c-0.04,0.012 -0.628,0.287 -1.33,0.287M234.947,185.022c0.00135,0.05125 -0.01807,0.10087 -0.05385,0.13759c-0.03578,0.03672 -0.08488,0.05742 -0.13615,0.05741c-0.1091,0.00059 -0.19874,-0.08595 -0.202,-0.195c0,-0.108 0.095,-0.197 0.202,-0.197c0.05163,-0.00004 0.10105,0.02094 0.13689,0.0581c0.03584,0.03716 0.05502,0.08731 0.05311,0.1389" fill="#393828"/><path d="M238.693,188.637c0,0.645 -0.535,1.17 -1.185,1.17c-0.65,0 -1.173,-0.525 -1.173,-1.17v-5.647c0,-0.643 0.523,-1.166 1.173,-1.166c0.65,0 1.185,0.523 1.185,1.166v5.648z" fill="#565541"/><path d="M237.402,186.13c-0.362,0 -0.747,-0.073 -1.113,-0.295l0.075,-0.108c0.98,0.617 2.28,0.006 2.299,0l0.059,0.116c-0.038,0.012 -0.63,0.287 -1.32,0.287M237.697,185.022c0,0.10742 -0.08708,0.1945 -0.1945,0.1945c-0.10742,0 -0.1945,-0.08708 -0.1945,-0.1945c0,-0.108 0.09,-0.197 0.196,-0.197c0.105,0 0.193,0.089 0.193,0.197" fill="#393828"/><path d="M243.266,200.389l-7.356,-0.632v3.61c0,1.962 1.607,3.557 3.586,3.557h0.18c1.98,0 3.59,-1.595 3.59,-3.557v-2.977zM215.908,200.389l7.363,-0.632v3.61c0,1.962 -1.61,3.557 -3.59,3.557h-0.183c-1.985,0 -3.59,-1.595 -3.59,-3.557v-2.977zM226.477,192.053h6.07v1.264h-6.07zM226.477,196.107h6.07v1.27h-6.07zM226.477,200.227h6.07v1.27h-6.07z" fill="#565541"/><path d="M210.658,225.157c-2.189,-3.678 3.062,-18.786 3.062,-18.786l5.692,-0.08c0,0 0.591,17.145 -2.867,19.712c-1.193,0.881 -5.117,0.424 -5.887,-0.846" fill="#2b2a1a"/><path d="M216.676,207.111c8.521,-6.761 16.506,-29.753 17.163,-33.903c0.013,-0.075 1.378,-0.185 1.54,0.234c-1.421,4.761 -8.466,27.11 -16.981,33.669c-0.345,0.264 -1.722,0 -1.722,0" fill="#393828"/><path d="M241.898,217.089c-1.207,0.125 -3.674,-0.58 -4.435,-1.169c-0.612,-1.056 2.826,-10.537 2.826,-10.537l4.436,1.17c0,0 -0.228,9.66 -2.827,10.536" fill="#21221f"/><path d="M248.07,215.842c-1.424,0.7 -4.327,1.178 -6.172,1.247l2.828,-10.535l6.027,-0.765c0.206,2.413 -1.318,7.959 -2.683,10.053" fill="#333224"/><path d="M240.288,205.384c0,0 5.324,-0.651 7.097,-0.486c0.869,0.085 3.369,0.891 3.369,0.891l-6.03,0.765l-4.436,-1.17" fill="#333224"/><path d="M245.584,208.22c-0.111,0.426 -0.331,0.727 -0.498,0.69c-0.15,-0.045 -0.196,-0.42 -0.08,-0.844c0.118,-0.423 0.334,-0.731 0.496,-0.686c0.165,0.043 0.195,0.419 0.082,0.84" fill="#e63744"/><path d="M245.21,205.33l-0.164,0.606c0,0.006 0,0.006 -0.004,0.01c-0.052,0.21 -0.559,0.254 -1.126,0.102c-0.568,-0.143 -0.98,-0.442 -0.935,-0.651l0.163,-0.617z" fill="#6b6952"/><path d="M244.281,204.68c0.573,0.15 0.99,0.441 0.938,0.644c-0.06,0.206 -0.573,0.255 -1.142,0.106c-0.568,-0.153 -0.988,-0.443 -0.933,-0.651c0.056,-0.2 0.569,-0.248 1.137,-0.098M248.875,206.674l-0.17,0.628l1.454,-0.411l0.111,-0.411z" fill="#565541"/><path d="M251.469,215.871l-5.414,-1.431c-0.012,0 -0.015,-0.004 -0.035,-0.016c-0.585,-0.152 -0.71,-1.569 -0.282,-3.162c0.424,-1.584 1.241,-2.74 1.829,-2.602l0.008,-0.024l5.445,1.44z" fill="#6b6952"/><path d="M253.337,213.263c-0.428,1.593 -1.238,2.757 -1.827,2.602c-0.588,-0.156 -0.71,-1.568 -0.293,-3.16c0.436,-1.59 1.249,-2.752 1.831,-2.593c0.589,0.154 0.717,1.564 0.29,3.15" fill="#333224"/><path d="M256.379,210.246l-1.908,7.131l-6.732,-1.774c-0.015,0 -0.029,-0.006 -0.05,-0.006c-0.726,-0.196 -0.887,-1.946 -0.357,-3.916c0.529,-1.955 1.532,-3.393 2.243,-3.223v-0.008l6.805,1.796z" fill="#565541"/><path d="M253.214,213.234c-0.508,1.878 -0.384,3.563 0.266,3.873c-0.035,0 -0.068,-0.006 -0.1,-0.01c-0.723,-0.193 -0.89,-1.945 -0.36,-3.912c0.526,-1.973 1.541,-3.412 2.27,-3.227c0.03119,0.01351 0.06288,0.02586 0.095,0.037c-0.713,-0.041 -1.666,1.357 -2.171,3.239" fill="#333224"/><path d="M256.757,214.172c-0.53,1.967 -1.544,3.406 -2.271,3.22c-0.721,-0.193 -0.884,-1.945 -0.353,-3.914c0.53,-1.977 1.542,-3.414 2.267,-3.227c0.723,0.194 0.888,1.949 0.357,3.921" fill="#333224"/><path d="M256.039,213.976c-0.428,1.591 -1.247,2.756 -1.827,2.6c-0.147,-0.037 -0.272,-0.159 -0.353,-0.342c-0.093,-0.718 -0.014,-1.707 0.274,-2.755c0.281,-1.056 0.701,-1.957 1.143,-2.535c0.167,-0.116 0.331,-0.164 0.477,-0.124c0.585,0.156 0.716,1.569 0.286,3.156" fill="#21221f"/><path d="M254.931,211.944c0.08,-0.263 0.665,-0.8 0.89,-0.653c0.845,0.539 -0.54,3.928 -0.54,3.928c0,0 1.523,-4.515 -0.349,-3.275" fill="#eeeeed"/><path d="M240.812,207.111c0,0 -0.424,0.264 -0.77,0c-8.513,-6.559 -15.558,-28.908 -16.988,-33.669c0.162,-0.419 0.634,-0.309 0.648,-0.234c0.664,4.15 8.588,27.142 17.11,33.903" fill="#393828"/><path d="M227.648,174.397c-1.04,0 -1.892,-2.218 -1.892,-3.235h7.408c0,1.017 -0.844,3.235 -1.878,3.235h-3.638" data-paper-data="{&quot;origPos&quot;:null}" fill="#75574c"/><path d="M226.634,173.714c-0.418,-0.635 -0.787,-1.506 -0.858,-2.143c1.19223,0.19329 2.39821,0.28928 3.606,0.287c1.26289,0.0007 2.52363,-0.10433 3.769,-0.314l-0.012,0.01l-6.505,2.16" fill="#eeac6c"/><path d="M215.602,185.834c-1.054,1.05 -5.524,-0.578 -6.067,-1.96c-0.487,-1.226 0.787,-3.041 1.687,-3.23c1.345,-0.289 3.964,0.464 4.8,1.558c0.543,0.723 0.91,2.314 -0.42,3.632M250.404,178.876c0.775,1.272 -0.501,5.292 -1.894,5.835c-1.235,0.486 -3.254,-0.458 -3.51,-1.351c-0.449,-1.554 0.735,-5.237 2.107,-6.091c0.774,-0.483 2.233,-0.126 3.297,1.607" fill="#d69d0b"/><path d="M217.493,142.188c0,0 -4.652,16.878 -18.808,17.773c-3.056,0.185 -10.823,-7.165 -10.078,-10.107c1.161,-4.61 17.647,-7.341 17.647,-7.341z" fill="#565541"/><path d="M251.435,153.068c1.144,0.724 1.899,1.969 1.899,3.383c0,2.242 -1.916,4.067 -4.264,4.067c-0.068,0 -0.129,0 -0.195,-0.008c-3.9659,7.03352 -11.41843,11.37972 -19.493,11.368c-8.08371,0.01153 -15.5432,-4.34424 -19.506,-11.39c-0.151,0.016 -0.315,0.03 -0.468,0.03c-2.354,0 -4.26,-1.825 -4.26,-4.067c0,-1.512 0.866,-2.838 2.152,-3.536c-0.149,-1.039 -0.222,-2.101 -0.222,-3.174c0,-12.231 9.983,-22.145 22.304,-22.145c12.31,0 22.303,9.914 22.303,22.145c-0.00099,1.11365 -0.08455,2.2257 -0.25,3.327" data-paper-data="{&quot;origPos&quot;:null}" fill="#75574c"/><path d="M223.229,149.096c-0.772,-0.174 -0.908,-1.201 -3.386,-0.74c-0.779,0.18 -2.417,1.156 -2.732,1.808c-0.316,0.652 -0.088,-2.392 2.457,-3.522c1.835,-0.675 2.457,-0.642 3.977,-0.642c1.52,0 1.987,0.907 1.766,1.65c0,0 -0.503,1.803 -2.082,1.446zM237.134,149.096c0.772,-0.174 0.908,-1.201 3.386,-0.74c0.779,0.18 2.417,1.156 2.732,1.808c0.316,0.652 0.087,-2.392 -2.457,-3.522c-1.835,-0.675 -2.457,-0.642 -3.977,-0.642c-1.52,0 -1.987,0.907 -1.766,1.65c0,0 0.503,1.803 2.082,1.446z" data-paper-data="{&quot;origPos&quot;:null}" fill="#343434"/><path d="M221,158c-1.105,0 -2,-1.343 -2,-3c0,-1.657 0.895,-3 2,-3c1.105,0 2,1.343 2,3c0,1.657 -0.895,3 -2,3zM239,158c-1.105,0 -2,-1.343 -2,-3c0,-1.657 0.895,-3 2,-3c1.105,0 2,1.343 2,3c0,1.657 -0.895,3 -2,3z" fill="#343434"/><path d="M230.02,158.069c-1.125,0.153 -3.02,1.834 -3.02,1.834c0,0 0.207,-1.009 0.503,-1.299c0.8,-1.156 2.487,-1.604 2.487,-1.604c0,0 2.173,0.703 2.65,1.588c0.443,0.824 0.34,1.238 0.34,1.238c0,0 -2.121,-1.871 -2.96,-1.756z" fill="#eeac6c"/><path d="M223.2,161.696c0,0 6.897,3.208 13.172,-0.397c0,0 -1.39,5.47 -5.95,5.561c-4.115,0.122 -4.984,-1.492 -5.477,-1.956c-0.492,-0.463 -1.42,-1.772 -1.745,-3.208" data-paper-data="{&quot;origPos&quot;:null}" fill="#9e4646"/><path d="M252.575,146.848c0.032,2.604 -0.882,8.231 -2.673,11.586c0,0 -4.389,-12.323 -8.005,-14.274c-4.417,-2.383 -16.05,1.05 -20.003,-2.043c-0.656,-0.51 -0.576,-1.674 -0.576,-1.674c0,0 -0.756,1.477 -1.12,1.896c-1.913,2.156 -6.878,5.284 -9.228,6.966c-1.892,1.349 -1.972,1.337 -1.562,9.13c0,0 -3.476,-7.095 -3.286,-11.83c0.05,-1.36 0.716,-4.388 1.8,-7.46c4.08459,-8.09981 12.38859,-13.20294 21.46,-13.188c10.795,0 19.928,7.084 22.918,16.822c0.15697,1.35113 0.24874,2.70904 0.275,4.069" data-paper-data="{&quot;origPos&quot;:null}" fill="#343434"/><path d="M206.667,143.658c-2.327,-2.307 5.43,-21.438 23,-21.438c17.025,0 25.06,18.942 22.542,21.437c-23.647,-6.084 -45.543,0 -45.543,0" fill="#7b7b3e"/><path d="M208.263,143.267l-1.597,0.39c0,0 -10.161,6.944 -14.043,6.691c-0.99,-0.071 -2.124,-1.383 -3.84,-0.97c2.11,-4.316 17.47,-6.866 17.47,-6.866l2.01,0.756z" fill="#63602f"/><path d="M238.562,139.085c0,-3.61 2.96,-6.031 6.598,-5.392c3.656,0.639 6.606,4.087 6.606,7.703l-13.204,-2.31zM248.2,141.7c0.00028,0.16707 -0.13493,0.30272 -0.302,0.303c-0.16707,0.00028 -0.30272,-0.13493 -0.303,-0.302c0,-0.16707 0.13543,-0.3025 0.3025,-0.3025c0.16707,0 0.3025,0.13543 0.3025,0.3025M249.537,141.955c-0.00164,0.16302 -0.13397,0.29446 -0.297,0.295c-0.07957,0.00134 -0.15641,-0.02899 -0.21361,-0.08432c-0.0572,-0.05533 -0.09008,-0.13111 -0.09139,-0.21068c-0.00925,-0.11339 0.04601,-0.22237 0.14296,-0.2819c0.09695,-0.05954 0.21913,-0.05954 0.31608,0c0.09695,0.05954 0.15221,0.16851 0.14296,0.2819M250.946,142.206c0.00001,0.08044 -0.03228,0.15751 -0.08963,0.21392c-0.05735,0.05641 -0.13494,0.08742 -0.21537,0.08608c-0.0801,0.00053 -0.15712,-0.03078 -0.21413,-0.08704c-0.05701,-0.05626 -0.08934,-0.13287 -0.08987,-0.21296c0.00274,-0.1653 0.13869,-0.29723 0.304,-0.295c0.07957,-0.00134 0.15641,0.02899 0.21361,0.08432c0.0572,0.05533 0.09008,0.13111 0.09139,0.21068" fill="#565541"/></g></g></svg>