<svg xmlns="http://www.w3.org/2000/svg" width="103.813" height="115.779"><g fill-rule="evenodd" stroke-miterlimit="10" data-paper-data="{&quot;isPaintingLayer&quot;:true}" style="mix-blend-mode:normal"><path fill="#75574c" d="m51.526 98.488-.576 7.672h-9.133l-.153-7.672h-1.448l-.162 7.672H30.93l-.576-7.672z" data-paper-data="{&quot;origPos&quot;:null}"/><path fill="#ad6921" d="M50.984 110.083c1.761 1.083 3.035 3.286 1.531 5.083-1.137 1.263-2.813.267-4.092-.273-1.408-.659-3.015-1.125-4.295-1.986-.81-.573-1.79-1.198-2.34-2.048-.173-.259-.254-.521-.193-.776h.008v-3.924s7.89-1.697 9.543 0l-.163 3.924m-10.665 0c.061.246-.022.516-.195.776-.552.85-1.52 1.475-2.348 2.048-1.27.861-2.877 1.327-4.28 1.986-1.27.541-2.956 1.536-4.09.273-1.503-1.797-.23-3.993 1.53-5.083h-.014l-.146-3.924c1.65-1.703 9.547 0 9.547 0v3.924z"/><path fill="#999a72" d="M53.083 84.604s1.84 13.884-1.26 16.744c-1.936 1.774-10.549 0-10.549 0l-.193-9.707h-.283l-.198 9.707s-8.608 1.774-10.546 0c-3.1-2.859-1.26-16.744-1.26-16.744h24.29"/><path fill="#888553" d="M27.873 88.777h4.784v9.7h-4.785zm21.397 0h4.79v9.7h-4.79z"/><path fill="#75574c" d="M23.734 57.786c1.743-2.218 8.053-5.485 8.053-5.485s-2.913 5.283-3.448 7.629c-.069.297-.235 1.095-.382 1.512-.194.52-.73 1.178-1.567 2.347-1.659 2.332-3.214 12.207-3.214 12.207.035.067.067.133.103.2.42.413.828.964 1.183 1.609.893 1.689.986 3.391.202 3.805-.419.224-1.01.028-1.599-.456-.64 1.129-1.64 1.819-2.685 1.715-1.607-.171-2.72-2.157-2.473-4.445.1-.961.418-1.821.878-2.485a.104.104 0 0 1-.028.067v-.01s1.391-13.667 4.977-18.21m48.427-15.228c1.8.759 2.364 3.45 1.27 6.016-.706 1.642-1.919 2.836-3.179 3.284h.008s-3.356 9.442-6.27 10.495c-2.375.853-10.697-2.51-10.697-2.51s-.676-2.571-1.024-3.381c-.482-1.111-2.418-4.161-2.418-4.161l11.4 4.045 5.38-6.264a3.65 3.65 0 0 1-.203-.808c-.345-.619-.628-1.404-.8-2.271-.444-2.274.053-4.286 1.11-4.486.572-.11 1.177.318 1.697 1.091 1.132-1.091 2.543-1.538 3.726-1.05" data-paper-data="{&quot;origPos&quot;:null}"/><path fill="#21221f" d="M74.866 49.295c-1.343.78-4.59 1.253-5.798.96-1.272-.9-2.318-13.76-2.318-13.76l5.798-.964s4.88 11.385 2.318 13.764"/><path fill="#333433" d="M81.395 44.61c-1.286 1.567-4.415 3.65-6.53 4.686L72.548 35.53l6.638-4.051c1.516 2.7 2.693 9.97 2.21 13.13"/><path fill="#333433" d="M66.75 36.494s5.87-3.556 8.024-4.288c1.056-.354 4.41-.727 4.41-.727l-6.636 4.053-5.798.962"/><path fill="#9b1826" d="M74.443 37.026c.09.552 0 1.02-.209 1.062-.206.033-.46-.394-.545-.94-.099-.553 0-1.023.206-1.064.212-.032.458.39.547.942"/><path fill="#727272" d="m72.466 33.855.134.79v.017c.048.266-.517.582-1.268.712-.734.119-1.369-.009-1.424-.271l-.135-.804z"/><path fill="#565657" d="M71.038 33.577c.74-.122 1.39 0 1.43.268.051.271-.52.592-1.269.716-.74.118-1.387.006-1.427-.262-.047-.28.517-.594 1.266-.722"/><path fill="#727272" d="m78.977 32.542.087.535-1.479 1.233-.13-.805zm6.401 10.323-7.068 1.164h-.058c-.757.13-1.668-1.461-2.008-3.54-.35-2.066-.009-3.841.74-3.986l-.004-.036 7.128-1.174z"/><path fill="#565657" d="m89.69 43.04-8.8 1.462c-.025.006-.05.015-.069.021-.947.152-2.064-1.805-2.498-4.378-.438-2.554-.028-4.752.91-4.942v-.004l8.88-1.475z"/><path fill="#565657" d="m102.594 41.303-14.383 2.386c-.028.008-.05.012-.068.02-1.03.165-2.243-1.958-2.708-4.748-.468-2.761-.026-5.149.988-5.349l-.01-.006 14.483-2.402z"/><path fill="#21221f" d="M83.618 39.264c.408 2.459 1.444 4.36 2.366 4.384a.522.522 0 0 1-.125.033c-.95.162-2.065-1.799-2.499-4.375-.438-2.573-.013-4.787.937-4.939.034-.012.078-.012.12-.012-.85.323-1.223 2.449-.799 4.909m14.995-2.486c.447 2.662 1.573 4.719 2.567 4.75a.493.493 0 0 1-.13.034c-1.023.177-2.24-1.949-2.707-4.736-.475-2.791-.02-5.194 1.003-5.361.045-.004.091-.004.142-.004-.927.346-1.32 2.655-.875 5.318m-11.907 1.973c.45 2.665 1.572 4.72 2.568 4.754-.049.013-.089.027-.135.033-1.026.171-2.242-1.951-2.71-4.735-.468-2.795-.018-5.193 1.01-5.36a.381.381 0 0 1 .135-.008c-.928.349-1.316 2.656-.868 5.316"/><path fill="#333224" d="M103.628 35.952c.468 2.783.016 5.18-1.002 5.36-1.033.165-2.245-1.961-2.713-4.748-.475-2.789-.016-5.186 1.005-5.36 1.028-.169 2.243 1.957 2.71 4.748"/><path fill="#21221f" d="M102.61 36.119c.377 2.246.016 4.179-.814 4.323-.204.032-.424-.053-.64-.232-.535-.865-.999-2.163-1.242-3.647-.256-1.484-.242-2.863-.016-3.85.137-.235.321-.393.532-.425.821-.133 1.802 1.582 2.18 3.832"/><path fill="#eeeeed" d="M100.034 34.18c-.047-.379.383-1.39.76-1.333 1.371.199 1.581 5.269 1.581 5.269s-.686-6.576-2.34-3.936"/><path fill="#75574c" d="M65.576 46.701c-.327-2.17.224-4.057 1.228-4.2 1.02-.15 2.107 1.481 2.432 3.655.321 2.172-.234 4.048-1.247 4.2-1.006.151-2.086-1.491-2.413-3.654" data-paper-data="{&quot;origPos&quot;:null}"/><path fill="#f7b90b" d="M59.772 55.521c.808 2.663-1.352 6.38-1.352 6.38l-4.87-1.918c2.548 9.822 2.843 24.633 2.843 24.633H25.301s.245-12.29 2.213-21.907l-.44.61s-4.537 0-5.336-3.159c0 0 2.305-4.91 10.185-7.926 2.033-1.237 7.137-1.424 7.137-1.424l1.718.06h.138l1.72-.09s4.505.218 6.73 1.28c8.053 2.37 10.407 3.46 10.407 3.46"/><path fill="#7b7b3e" d="M49.834 52.21s.294 7.444 3.694 7.721c2.54 9.816 2.841 24.611 2.841 24.611h.01l.065 1.963s-8.854 1.124-11.494 0c-1.419-.598-4.254-2.258-4.254-2.258s-3.11 1.668-4.586 2.258c-2.512 1.014-10.85 0-10.85 0l.04-1.977s.257-13.004 2.381-22.701c-.22.436 4.177-1.77 4.203-9.59v-.002c1.112-.7 3.18-1.085 4.822-1.282 0 0 .298 14.919 4.2 14.913 3.89-.013 4.117-14.913 4.117-14.913 1.65.197 3.74.565 4.825 1.282-.014-.017-.014-.025-.014-.025"/><path fill="#565541" d="M34.037 66.417c0 .645-.528 1.17-1.177 1.17a1.178 1.178 0 0 1-1.187-1.17V60.77c0-.643.53-1.166 1.187-1.166.65 0 1.177.523 1.177 1.166v5.648z"/><path fill="#393828" d="M32.74 63.91c-.357 0-.747-.073-1.1-.295l.068-.108c.983.617 2.29.006 2.298 0l.058.116c-.04.012-.622.287-1.324.287m.303-1.108a.198.198 0 0 1-.395 0 .198.198 0 0 1 .396 0"/><path fill="#565541" d="M36.788 66.417a1.18 1.18 0 0 1-1.189 1.17 1.174 1.174 0 0 1-1.183-1.17V60.77c0-.643.525-1.166 1.183-1.166s1.19.523 1.19 1.166v5.648z"/><path fill="#393828" d="M35.488 63.91c-.357 0-.75-.073-1.096-.295l.065-.108c.98.617 2.287.006 2.3 0l.054.116c-.04.012-.62.287-1.323.287m.302-1.108a.192.192 0 0 1-.196.195c-.105 0-.203-.087-.203-.195 0-.108.098-.197.203-.197.113 0 .196.089.196.197"/><path fill="#565541" d="M47.388 66.417a1.18 1.18 0 0 1-1.189 1.17 1.174 1.174 0 0 1-1.175-1.17V60.77c0-.643.528-1.166 1.175-1.166.658 0 1.19.523 1.19 1.166v5.648z"/><path fill="#393828" d="M46.092 63.91c-.353 0-.743-.073-1.102-.295l.07-.108c.982.617 2.29.006 2.298 0l.063.116c-.04.012-.628.287-1.33.287m.3-1.108a.19.19 0 0 1-.19.195.201.201 0 0 1-.203-.195c0-.108.095-.197.202-.197a.19.19 0 0 1 .19.197"/><path fill="#565541" d="M50.136 66.417c0 .645-.535 1.17-1.185 1.17a1.17 1.17 0 0 1-1.173-1.17V60.77c0-.643.523-1.166 1.173-1.166s1.185.523 1.185 1.166v5.648z"/><path fill="#393828" d="M48.845 63.91c-.362 0-.747-.073-1.113-.295l.075-.108c.98.617 2.28.006 2.3 0l.058.116c-.038.012-.63.287-1.32.287m.295-1.108a.194.194 0 1 1-.389 0c0-.108.09-.197.196-.197.105 0 .193.089.193.197"/><path fill="#565541" d="m54.71 78.169-7.357-.632v3.61c0 1.962 1.607 3.557 3.586 3.557h.18c1.98 0 3.59-1.595 3.59-3.557V78.17zm-27.359 0 7.363-.632v3.61c0 1.962-1.61 3.557-3.59 3.557h-.183c-1.985 0-3.59-1.595-3.59-3.557V78.17zm10.57-8.336h6.07v1.264h-6.07zm0 4.054h6.07v1.27h-6.07zm0 4.12h6.07v1.27h-6.07z"/><path fill="#2b2a1a" d="M22.101 102.937c-2.189-3.678 3.062-18.786 3.062-18.786l5.692-.08s.591 17.145-2.867 19.712c-1.193.881-5.117.424-5.887-.846"/><path fill="#393828" d="M28.12 84.891c8.52-6.761 16.505-29.753 17.162-33.903.013-.075 1.378-.185 1.54.234-1.42 4.761-8.466 27.11-16.98 33.669-.346.264-1.723 0-1.723 0"/><path fill="#21221f" d="M53.341 94.869c-1.207.125-3.674-.58-4.435-1.169-.612-1.056 2.826-10.537 2.826-10.537l4.436 1.17s-.228 9.66-2.827 10.536"/><path fill="#333224" d="M59.513 93.622c-1.424.7-4.327 1.178-6.172 1.247l2.828-10.535 6.027-.765c.206 2.413-1.318 7.959-2.683 10.053"/><path fill="#333224" d="M51.731 83.164s5.324-.651 7.097-.486c.87.085 3.37.891 3.37.891l-6.03.765-4.437-1.17"/><path fill="#e63744" d="M57.027 86c-.11.426-.33.727-.498.69-.15-.045-.196-.42-.08-.844.118-.423.334-.731.496-.686.165.043.195.419.082.84"/><path fill="#6b6952" d="m56.653 83.11-.164.606c0 .006 0 .006-.004.01-.052.21-.559.254-1.126.102-.568-.143-.98-.442-.935-.651l.163-.617z"/><path fill="#565541" d="M55.724 82.46c.573.15.99.441.938.644-.06.206-.573.255-1.142.106-.568-.153-.988-.443-.933-.651.056-.2.57-.248 1.137-.098m4.594 1.993-.17.628 1.454-.411.111-.411z"/><path fill="#6b6952" d="m62.912 93.651-5.414-1.431c-.012 0-.015-.004-.035-.016-.585-.152-.71-1.569-.282-3.162.424-1.584 1.241-2.74 1.83-2.602l.007-.024 5.445 1.44z"/><path fill="#333224" d="M64.78 91.043c-.428 1.593-1.238 2.757-1.827 2.602-.588-.156-.71-1.568-.293-3.16.436-1.59 1.25-2.752 1.831-2.593.59.154.717 1.564.29 3.15"/><path fill="#565541" d="m67.822 88.026-1.908 7.131-6.732-1.774c-.015 0-.029-.006-.05-.006-.726-.196-.887-1.946-.357-3.916.53-1.955 1.532-3.393 2.243-3.223v-.008l6.805 1.796z"/><path fill="#333224" d="M64.657 91.014c-.508 1.878-.384 3.563.266 3.873-.035 0-.068-.006-.1-.01-.723-.193-.89-1.945-.36-3.912.526-1.973 1.541-3.412 2.27-3.227.031.014.063.026.095.037-.713-.041-1.666 1.357-2.17 3.239"/><path fill="#333224" d="M68.2 91.952c-.53 1.967-1.544 3.406-2.27 3.22-.722-.193-.885-1.945-.354-3.914.53-1.977 1.542-3.414 2.267-3.227.723.194.888 1.949.357 3.921"/><path fill="#21221f" d="M67.482 91.756c-.428 1.591-1.247 2.756-1.827 2.6-.147-.037-.272-.159-.353-.342-.093-.718-.014-1.707.274-2.755.281-1.056.701-1.957 1.143-2.535.167-.116.331-.164.477-.124.585.156.716 1.569.286 3.156"/><path fill="#eeeeed" d="M66.374 89.724c.08-.263.665-.8.89-.653.845.539-.54 3.928-.54 3.928s1.523-4.515-.349-3.275"/><path fill="#393828" d="M52.255 84.891s-.424.264-.77 0c-8.513-6.559-15.558-28.908-16.988-33.669.162-.419.634-.309.648-.234.664 4.15 8.588 27.142 17.11 33.903"/><path fill="#75574c" d="M39.091 52.177c-1.04 0-1.892-2.218-1.892-3.235h7.408c0 1.017-.844 3.235-1.878 3.235h-3.638" data-paper-data="{&quot;origPos&quot;:null}"/><path fill="#eeac6c" d="M38.077 51.494c-.418-.635-.787-1.506-.858-2.143a22.27 22.27 0 0 0 3.606.287c1.263 0 2.524-.104 3.77-.314l-.013.01-6.505 2.16"/><path fill="#d69d0b" d="M27.045 63.614c-1.054 1.05-5.524-.578-6.067-1.96-.487-1.226.787-3.041 1.687-3.23 1.345-.289 3.964.464 4.8 1.558.543.723.91 2.314-.42 3.632m34.802-6.958c.775 1.272-.5 5.292-1.894 5.835-1.235.486-3.254-.458-3.51-1.351-.449-1.554.735-5.237 2.107-6.091.774-.483 2.233-.126 3.297 1.607"/><path fill="#565541" d="M28.936 19.968s-4.652 16.878-18.808 17.773C7.072 37.926-.695 30.576.05 27.634c1.161-4.61 17.647-7.341 17.647-7.341z"/><path fill="#75574c" d="M62.878 30.848c1.144.724 1.9 1.969 1.9 3.383 0 2.242-1.917 4.067-4.265 4.067-.068 0-.129 0-.195-.008a22.341 22.341 0 0 1-19.493 11.368 22.343 22.343 0 0 1-19.506-11.39c-.15.016-.315.03-.468.03-2.354 0-4.26-1.825-4.26-4.067 0-1.512.866-2.838 2.152-3.536a22.374 22.374 0 0 1-.222-3.174c0-12.231 9.983-22.145 22.304-22.145 12.31 0 22.303 9.914 22.303 22.145a22.53 22.53 0 0 1-.25 3.327" data-paper-data="{&quot;origPos&quot;:null}"/><path fill="#343434" d="M34.672 26.876c-.772-.174-.908-1.201-3.386-.74-.779.18-2.417 1.156-2.732 1.808-.316.652-.088-2.392 2.457-3.522 1.835-.675 2.457-.642 3.977-.642s1.987.907 1.766 1.65c0 0-.503 1.803-2.082 1.446zm13.905 0c.772-.174.908-1.201 3.386-.74.78.18 2.417 1.156 2.732 1.808.316.652.087-2.392-2.457-3.522-1.835-.675-2.457-.642-3.977-.642s-1.987.907-1.766 1.65c0 0 .503 1.803 2.082 1.446z" data-paper-data="{&quot;origPos&quot;:null}"/><path fill="#343434" d="M32.443 35.78c-1.105 0-2-1.343-2-3s.895-3 2-3 2 1.343 2 3-.895 3-2 3zm18 0c-1.105 0-2-1.343-2-3s.895-3 2-3 2 1.343 2 3-.895 3-2 3z"/><path fill="#eeac6c" d="M41.463 35.849c-1.125.153-3.02 1.834-3.02 1.834s.207-1.009.503-1.299c.8-1.156 2.487-1.604 2.487-1.604s2.173.703 2.65 1.588c.443.824.34 1.238.34 1.238s-2.12-1.871-2.96-1.756z"/><path fill="#9e4646" d="M34.643 39.476s6.897 3.208 13.172-.397c0 0-1.39 5.47-5.95 5.561-4.115.122-4.984-1.492-5.477-1.956-.492-.463-1.42-1.772-1.745-3.208" data-paper-data="{&quot;origPos&quot;:null}"/><path fill="#343434" d="M64.018 24.628c.032 2.604-.882 8.231-2.673 11.586 0 0-4.389-12.323-8.005-14.274-4.417-2.383-16.05 1.05-20.003-2.043-.656-.51-.576-1.674-.576-1.674s-.756 1.477-1.12 1.896c-1.913 2.156-6.878 5.284-9.228 6.966-1.892 1.349-1.972 1.337-1.562 9.13 0 0-3.476-7.095-3.286-11.83.05-1.36.716-4.388 1.8-7.46a23.99 23.99 0 0 1 21.46-13.188c10.795 0 19.928 7.084 22.918 16.822.157 1.351.249 2.709.275 4.069" data-paper-data="{&quot;origPos&quot;:null}"/><path fill="#7b7b3e" d="M18.11 21.438C15.783 19.131 23.54 0 41.11 0c17.025 0 25.06 18.942 22.542 21.437-23.647-6.084-45.543 0-45.543 0"/><path fill="#63602f" d="m19.706 21.047-1.597.39S7.95 28.381 4.066 28.128c-.99-.071-2.124-1.383-3.84-.97 2.11-4.316 17.47-6.866 17.47-6.866l2.01.756z"/><path fill="#565541" d="M50.005 16.865c0-3.61 2.96-6.031 6.598-5.392 3.656.639 6.606 4.087 6.606 7.703l-13.204-2.31zm9.638 2.615a.302.302 0 1 1-.302-.302c.167 0 .302.136.302.303m1.337.254a.298.298 0 0 1-.297.295.3.3 0 0 1-.305-.295.302.302 0 1 1 .602 0m1.41.251a.3.3 0 0 1-.306.3.302.302 0 0 1-.304-.3.3.3 0 0 1 .304-.295.3.3 0 0 1 .305.295"/></g></svg>