<svg version="1.1" xmlns="http://www.w3.org/2000/svg" xmlns:xlink="http://www.w3.org/1999/xlink" width="117.6947" height="99.97899" viewBox="0,0,117.6947,99.97899"><g transform="translate(-181.89038,-130.21131)"><g data-paper-data="{&quot;isPaintingLayer&quot;:true}" fill-rule="evenodd" stroke-linecap="butt" stroke-linejoin="miter" stroke-miterlimit="10" stroke-dasharray="" stroke-dashoffset="0" style="mix-blend-mode: normal"><path d="M261.113,168.006c0.86478,0.01816 1.55726,0.72269 1.56052,1.58765c0.00326,0.86496 -0.68391,1.57468 -1.54852,1.59935c-0.57866,0.01651 -1.12078,-0.282 -1.41623,-0.77982c-0.29545,-0.49782 -0.29778,-1.11669 -0.00609,-1.61672c0.29169,-0.50003 0.83156,-0.80261 1.41032,-0.79046" fill="#fefefe" stroke="none" stroke-width="1"/><path d="M181.997,208.105c0.088,-0.399 0.354,-0.753 0.72,-1.093c-0.411,0.723 3.234,0.591 7.246,-0.383c4.041,-0.975 1.837,-2.215 1.837,-2.215v-0.014c2.204,0.178 2.204,2.11 2.204,2.11c-4.408,1.478 -2.82,5.288 -2.82,5.288c-8.818,-0.371 -9.671,-1.597 -9.187,-3.693" fill="#b4b5b5" stroke="none" stroke-width="1"/><path d="M182.718,207.012c0.015,0 0.015,-0.015 0.015,-0.015c1.632,-1.417 5.495,-2.287 8.082,-2.583c0.32712,-0.04114 0.65778,-0.04617 0.986,-0.015v0.015c0,0 2.203,1.241 -1.837,2.215c-4.012,0.974 -7.658,1.106 -7.246,0.383" fill="#c8c9c9" stroke="none" stroke-width="1"/><path d="M218.946,216.993c-1.44,2.377 -4.026,4.429 -8.656,3.425c-9.553,-2.096 -19.105,-8.62 -19.105,-8.62c0,0 -1.59,-3.81 2.82,-5.288l2.69,-0.855c0,0 -2.558,-38.727 29.204,-37.649c-0.456,9.05 1.498,15.531 3.41,18.794c0.027,0.061 0.042,0.103 0.087,0.149c6.203,12.977 19.121,15.028 29.144,16.121c0.337,0.045 0.69,0.075 1.03,0.105c5.231,0.368 10.553,-0.578 14.388,-1.552c0.487,1.787 2.367,9.434 1.617,16.331c0,0 -1.352,2.701 -6.011,1.846l-5.748,-7.385c0,0 -5.143,1.109 -10.17,1.729c0,0 0,6.024 -1.719,8.857c0,0 -4.409,2.955 -8.818,1.226c0,0 -4.16,-4.059 -7.583,-9.714l-0.618,-0.99c0,0 -8.937,-0.487 -14.213,-1.963c0,0 -0.221,2.893 -1.749,5.433" fill="#ceeafa" stroke="none" stroke-width="1"/><path d="M220.695,211.56c5.276,1.476 14.213,1.963 14.213,1.963l0.619,0.99c0,0 -0.972,5.122 -16.58,2.48c1.528,-2.54 1.748,-5.433 1.748,-5.433" fill="#b8daec" stroke="none" stroke-width="1"/><path d="M225.899,168.006c0.13267,-2.60228 0.44171,-5.19256 0.925,-7.753c2.455,-13.288 12.861,-16.241 12.861,-16.241c1.955,-7.883 17.387,-20.182 40.782,-9.846c23.4,10.335 18.74,31.861 18.74,31.861c-0.175,-0.442 -0.368,-0.87 -0.587,-1.27c-2.424,-4.813 -6.393,-6.6 -6.393,-6.6c1.351,2.953 0.25,6.156 0.25,6.156c-8.701,-10.215 -21.444,-9.595 -21.444,-9.595c2.455,1.963 2.572,5.535 2.572,5.535c-13.961,-7.011 -25.469,-2.346 -25.469,-2.346c-1.721,1.725 -3.308,4.93 -4.043,9.595c-0.735,4.681 -3.057,5.671 -3.791,1.359c-0.735,-4.31 -5.277,-7.87 -8.82,-1.965c-3.555,5.907 4.044,10.574 4.044,10.574l-0.413,0.633l-5.717,8.845c-0.045,-0.044 -0.06,-0.088 -0.088,-0.148c-1.911,-3.263 -3.865,-9.744 -3.41,-18.794" data-paper-data="{&quot;origPos&quot;:null}" fill="#6d4631" stroke="none" stroke-width="1"/><path d="M235.276,178.207c0,0 14.079,-1.844 20.692,4.682c6.511,6.42 4.601,17.392 3.601,20.286c-0.339,-0.03 -0.692,-0.058 -1.03,-0.106c-10.022,-1.092 -22.941,-3.143 -29.142,-16.12l5.715,-8.846z" data-paper-data="{&quot;origPos&quot;:null}" fill="#c09969" stroke="#c09969" stroke-width="0.5"/><path d="M281.937,164.92c3.794,-2.452 7.35,-0.976 7.35,-0.976c-4.659,-3.822 -7.349,0.976 -7.349,0.976M281.821,171.076c0,2.583 2.073,4.68 4.644,4.68c2.572,0 4.66,-2.097 4.66,-4.68c0,-2.584 -2.088,-4.68 -4.66,-4.68c-2.571,0 -4.644,2.096 -4.644,4.68M272.135,196.176c5.321,0.104 6.969,-1.95 7.379,-2.614c1.277,0.074 2.557,-0.102 3.645,-0.59c3.556,-1.595 3.924,-6.644 0.984,-8.859c-0.999,-0.753 -2.293,-1.02 -3.587,-1.047c-0.174,-0.546 -1.602,-4.133 -6.584,-4.24c-5.378,-0.117 -8.818,3.694 -9.053,8.24c-0.248,4.563 0.853,8.99 7.216,9.11M263.685,164.92c0,0 -1.338,-4.549 -6.848,-1.714c0,0 4.041,-0.738 6.848,1.714M255.366,171.076c0,2.583 2.072,4.68 4.645,4.68c2.571,0 4.66,-2.097 4.66,-4.68c0,-2.584 -2.089,-4.68 -4.659,-4.68c-2.574,0 -4.647,2.096 -4.647,4.68M273.958,201.624c-3.835,0.973 -9.156,1.92 -14.389,1.55c0.999,-2.893 2.909,-13.865 -3.601,-20.286c-6.613,-6.526 -20.692,-4.68 -20.692,-4.68l-0.164,-0.105l0.413,-0.633c0,0 -7.599,-4.666 -4.043,-10.573c3.542,-5.905 8.084,-2.347 8.82,1.965c0.734,4.311 3.056,3.321 3.79,-1.359c0.735,-4.666 2.324,-7.87 4.043,-9.596c0,0 11.509,-4.666 25.469,2.347c0,0 -0.116,-3.574 -2.572,-5.537c0,0 12.745,-0.621 21.445,9.597c0,0 1.102,-3.205 -0.25,-6.157c0,0 3.968,1.786 6.392,6.6c-0.264,0.915 -0.998,3.588 -0.998,5.698c0,1.214 0.338,4.224 0.456,7.516h-0.09c-0.131,0 -12.637,1.831 -12.373,20.066c-1.72,0.708 -3.705,1.342 -5.998,1.83c0,0 -2.248,0.885 -5.658,1.756" data-paper-data="{&quot;origPos&quot;:null}" fill="#c09969" stroke="#c09969" stroke-width="0.5"/><path d="M243.109,224.228c4.409,1.729 8.817,-1.227 8.817,-1.227c0,0 4.41,1.478 2.94,2.452c-1.469,0.989 -3.306,0.134 -4.409,1.846c-1.101,1.727 -3.792,3.204 -6.114,2.834c-2.336,-0.369 -4.542,-3.07 -1.233,-5.905" data-paper-data="{&quot;origPos&quot;:null}" fill="#c09969" stroke="none" stroke-width="1"/><path d="M259.525,169.6c0,0.88089 0.71411,1.595 1.595,1.595c0.88089,0 1.595,-0.71411 1.595,-1.595c0,-0.88089 -0.71411,-1.595 -1.595,-1.595c-0.88089,0 -1.595,0.71411 -1.595,1.595M260.011,166.396c2.572,0 4.66,2.096 4.66,4.68c0,2.583 -2.088,4.68 -4.66,4.68c-2.574,0 -4.644,-2.097 -4.644,-4.68c0,-2.584 2.071,-4.68 4.644,-4.68" fill="#3f3a3a" stroke="none" stroke-width="1"/><path d="M256.836,163.206c5.51,-2.834 6.85,1.714 6.85,1.714c-2.809,-2.452 -6.85,-1.714 -6.85,-1.714" data-paper-data="{&quot;origPos&quot;:null}" fill="#6d4631" stroke="none" stroke-width="1"/><path d="M264.919,187.066c0.237,-4.547 3.674,-8.357 9.053,-8.24c4.982,0.106 6.409,3.693 6.586,4.239c-2.514,-0.059 -4.984,0.811 -4.984,0.811c-3.924,0.976 -4.408,3.928 -2.938,6.394c1.014,1.699 3.983,3.116 6.877,3.292c-0.41,0.665 -2.058,2.718 -7.378,2.614c-6.363,-0.118 -7.464,-4.547 -7.216,-9.11" fill="#ceeafa" stroke="none" stroke-width="1"/><path d="M269.564,219.799c4.658,0.855 6.011,-1.845 6.011,-1.845c4.409,-1.108 5.995,1.845 3.423,4.178c-2.572,2.347 -4.291,0.738 -5.878,0.132c-1.586,-0.619 -3.556,1.478 -4.408,0.856c-0.854,-0.62 0.852,-3.32 0.852,-3.32" data-paper-data="{&quot;origPos&quot;:null}" fill="#c09969" stroke="none" stroke-width="0"/><path d="M280.557,183.064c1.294,0.03 2.588,0.297 3.587,1.05c2.938,2.214 2.572,7.264 -0.986,8.858c-1.086,0.488 -2.365,0.664 -3.645,0.59c-2.895,-0.176 -5.864,-1.592 -6.878,-3.292c-1.469,-2.466 -0.984,-5.418 2.94,-6.394c0,0 2.469,-0.87 4.982,-0.811" fill="#ceeafa" stroke="none" stroke-width="1"/><path d="M285.862,169.482c0,0.87675 0.71075,1.5875 1.5875,1.5875c0.87675,0 1.5875,-0.71075 1.5875,-1.5875c0,-0.886 -0.707,-1.61 -1.587,-1.61c-0.881,0 -1.588,0.724 -1.588,1.61M286.465,166.395c2.572,0 4.66,2.098 4.66,4.682c0,2.582 -2.088,4.68 -4.66,4.68c-2.572,0 -4.644,-2.098 -4.644,-4.68c0,-2.584 2.072,-4.682 4.644,-4.682" fill="#3f3a3a" stroke="none" stroke-width="1"/><path d="M289.288,163.944c0,0 -3.557,-1.476 -7.35,0.976c0,0 2.69,-4.799 7.35,-0.976" data-paper-data="{&quot;origPos&quot;:null}" fill="#6d4631" stroke="none" stroke-width="1"/><path d="M297.987,177.971h0.09c0.148,3.764 -0.016,7.914 -1.324,10.084c-1.926,3.204 -4.702,7.263 -11.14,9.981c-0.265,-18.234 12.243,-20.066 12.375,-20.066z" data-paper-data="{&quot;origPos&quot;:null}" fill="#c09969" stroke="#c09969" stroke-width="0.5"/><path d="M287.45,167.872c0.881,0 1.588,0.724 1.588,1.61c0,0.87675 -0.71075,1.5875 -1.5875,1.5875c-0.87675,0 -1.5875,-0.71075 -1.5875,-1.5875c0,-0.886 0.705,-1.61 1.587,-1.61" fill="#fefefe" stroke="none" stroke-width="1"/><path d="M248.748,144.132c16.269,-2.582 23.91,-8.377 26.872,-11.822c1.64605,0.53765 3.26438,1.15675 4.849,1.855c7.286,3.218 11.85,7.522 14.68,11.922c-16.796,4.626 -46.4,-1.955 -46.4,-1.955" data-paper-data="{&quot;origPos&quot;:null}" fill="#9c6446" stroke="none" stroke-width="1"/><path d="M292.822,160.297c-0.0889,-0.73933 -0.28952,-1.46088 -0.595,-2.14c0,0 2.377,1.08 4.574,3.795zM292.477,164.313c0,0 -10.807,-6.791 -20.053,-7.97c-0.3622,-0.62147 -0.83379,-1.17233 -1.392,-1.626c0,0 12.745,-0.62 21.445,9.596" data-paper-data="{&quot;origPos&quot;:null}" fill="#947046" stroke="#947046" stroke-width="0.5"/><path d="M264.919,187.066c0.237,-4.547 3.674,-8.357 9.053,-8.24c4.982,0.106 6.409,3.693 6.586,4.239c-1.564,-0.038 -3.107,0.287 -4.053,0.534c-3.47,-5.216 -8.953,-1.876 -10.365,2.858c-1.47,4.92 4.163,6.643 4.652,1.967c0.22,-2.085 1.46,-3.139 2.768,-3.67c-1.994,1.34 -2.083,3.571 -0.924,5.516c1.014,1.7 3.983,3.116 6.877,3.292c-0.41,0.665 -2.057,2.718 -7.378,2.613c-6.363,-0.117 -7.464,-4.546 -7.216,-9.11" fill="#c2ddec" stroke="none" stroke-width="1"/><path d="M284.266,186.948c0,1.23 -2.205,2.462 -4.165,2.214c-1.958,-0.246 -4.9,-1.476 -4.9,-2.46c0,-0.985 2.205,-2.215 5.144,-2.215c2.941,0 3.921,2.461 3.921,2.461" fill="#fefefe" stroke="none" stroke-width="1"/><path d="M254.87,206.633c-9.554,-0.492 -21.799,-5.411 -28.66,-15.256c-6.67,-9.573 -11.5,-18.647 -21.001,-15.286c4.349,-4.948 10.877,-8.42 20.69,-8.085c-0.456,9.05 1.498,15.53 3.408,18.794c0.03,0.06 0.044,0.104 0.09,0.148c6.2,12.979 19.12,15.03 29.143,16.12c0.338,0.048 0.69,0.076 1.029,0.107c5.233,0.37 10.553,-0.578 14.39,-1.551v0.007c-3.085,1.567 -11.468,5.393 -19.088,5.002" fill="#b8daec" stroke="none" stroke-width="1"/><path d="M233.438,194.514c-4.443,-4.936 -17.438,-20.424 -7.578,-26.421c-0.804,0.49 0.534,8.445 0.696,9.518c0.477,3.19 1.304,6.339 2.68,9.261c2.932,6.22 8.15,10.618 14.53,12.979c3.78,1.403 7.933,2.364 11.929,2.88c-8.214,-0.37 -16.977,-2.349 -22.257,-8.217" fill="#a7c7d7" stroke="none" stroke-width="1"/></g></g></svg>