<svg version="1.1" xmlns="http://www.w3.org/2000/svg" xmlns:xlink="http://www.w3.org/1999/xlink" width="51.07226" height="112.93882" viewBox="0,0,51.07226,112.93882"><g transform="translate(-213.99974,-123.77497)"><g data-paper-data="{&quot;isPaintingLayer&quot;:true}" fill-rule="evenodd" stroke="none" stroke-width="1" stroke-linecap="butt" stroke-linejoin="miter" stroke-miterlimit="10" stroke-dasharray="" stroke-dashoffset="0" style="mix-blend-mode: normal"><path d="M263.382,159.846c1.018,0.661 1.69,1.786 1.69,3.064c0,2.034 -1.706,3.682 -3.806,3.682c-0.06,0 -0.117,-0.002 -0.177,-0.004c-3.406,6.138 -9.934,10.291 -17.426,10.291c-7.501,0 -14.032,-4.161 -17.437,-10.312c-0.141,0.016 -0.283,0.025 -0.424,0.025c-2.105,0 -3.809,-1.648 -3.809,-3.682c0,-1.372 0.779,-2.572 1.929,-3.204c-0.134,-0.941 -0.202,-1.898 -0.202,-2.875c0,-11.071 8.929,-20.047 19.943,-20.047c11.013,0 19.941,8.976 19.941,20.047c0.00082,1.00915 -0.07372,2.01695 -0.223,3.015" data-paper-data="{&quot;origPos&quot;:null}" fill="#bb9367"/><path d="M237.229,154.096c-0.772,-0.174 -0.908,-1.201 -3.386,-0.74c-0.779,0.18 -2.417,1.156 -2.732,1.808c-0.316,0.652 -0.088,-2.392 2.457,-3.522c1.835,-0.675 2.457,-0.642 3.977,-0.642c1.52,0 1.987,0.907 1.766,1.65c0,0 -0.503,1.803 -2.082,1.446zM251.134,154.096c0.772,-0.174 0.908,-1.201 3.386,-0.74c0.779,0.18 2.417,1.156 2.732,1.808c0.316,0.652 0.087,-2.392 -2.457,-3.522c-1.835,-0.675 -2.457,-0.642 -3.977,-0.642c-1.52,0 -1.987,0.907 -1.766,1.65c0,0 0.503,1.803 2.082,1.446z" data-paper-data="{&quot;origPos&quot;:null}" fill="#804e19"/><path d="M237,160c0,1.657 -0.895,3 -2,3c-1.105,0 -2,-1.343 -2,-3c0,-1.657 0.895,-3 2,-3c1.105,0 2,1.343 2,3M255,160c0,1.657 -0.895,3 -2,3c-1.105,0 -2,-1.343 -2,-3c0,-1.657 0.895,-3 2,-3c1.105,0 2,1.343 2,3" data-paper-data="{&quot;origPos&quot;:null}" fill="#804e19"/><path d="M244.02,163.069c-1.125,0.153 -3.02,1.834 -3.02,1.834c0,0 0.207,-1.009 0.503,-1.299c0.8,-1.156 2.487,-1.604 2.487,-1.604c0,0 2.173,0.703 2.65,1.588c0.443,0.824 0.34,1.238 0.34,1.238c0,0 -2.121,-1.871 -2.96,-1.756z" fill="#eeac6c"/><path d="M237.2,166.696c0,0 6.897,3.208 13.172,-0.397c0,0 -1.39,5.47 -5.95,5.561c-4.115,0.122 -4.984,-1.492 -5.477,-1.956c-0.492,-0.463 -1.42,-1.772 -1.745,-3.208" fill="#eeac6c"/><path d="M264.395,154.219c0.031,2.354 -0.791,7.45 -2.386,10.486c0,0 -3.923,-11.16 -7.153,-12.926c-3.948,-2.16 -14.36,0.953 -17.89,-1.847c-0.585,-0.464 -0.52,-1.518 -0.52,-1.518c0,0 -0.674,1.341 -1,1.715c-1.71,1.957 -6.145,4.79 -8.25,6.31c-1.691,1.221 -1.77,1.209 -1.395,8.266c0,0 -3.112,-6.422 -2.94,-10.706c0.05,-1.236 0.647,-3.975 1.617,-6.76c3.506,-7.08 10.78,-11.943 19.183,-11.943c9.654,0 17.816,6.417 20.497,15.239c0.13445,1.2238 0.21353,2.45306 0.237,3.684" data-paper-data="{&quot;origPos&quot;:null}" fill="#804e19"/><path d="M222.82,153.543v-25.212c0,-2.536 2.065,-4.556 4.593,-4.556h32.414c1.20952,-0.00481 2.37085,0.47374 3.22583,1.32929c0.85499,0.85555 1.33278,2.01719 1.32717,3.22671v25.212z" fill="#343434"/><path d="M243.715,145.096l0.936,1.907l2.094,0.307l-1.514,1.485l0.356,2.095l-1.872,-0.99l-1.872,0.99l0.355,-2.096l-1.514,-1.484l2.095,-0.307z" fill="#e63744"/><path d="M233.887,223.366l-1.103,-14.768h21.724l-1.1,14.768h-9.466l-0.169,-8.447h-0.252l-0.168,8.447z" fill="#343434"/><path d="M243.317,224.481l-0.24,7.075c0.052,0.222 -0.018,0.455 -0.172,0.695c-0.497,0.769 -1.365,1.333 -2.099,1.853c-1.14,0.783 -2.577,1.208 -3.84,1.81c-1.14,0.481 -2.638,1.392 -3.658,0.245c-1.346,-1.625 -0.204,-3.611 1.372,-4.594l-0.615,-6.359h-0.364c-1.011,0 -1.83,-0.823 -1.83,-1.84c0,-1.016 0.819,-1.838 1.83,-1.838h8.176c0.69899,-0.00096 1.3372,0.3972 1.64365,1.02544c0.30646,0.62823 0.22738,1.37629 -0.20365,1.92656z" fill="#515151"/><path d="M253.232,225.206l-0.613,6.358c1.572,0.985 2.718,2.965 1.37,4.59c-1.019,1.145 -2.518,0.24 -3.658,-0.245c-1.261,-0.602 -2.7,-1.023 -3.84,-1.807c-0.734,-0.518 -1.602,-1.078 -2.099,-1.848c-0.154,-0.238 -0.227,-0.473 -0.17,-0.696l-0.25,-7.245c-0.171,-0.28 -0.268,-0.605 -0.268,-0.955c0,-1.017 0.82,-1.83 1.83,-1.83h8.174c0.48641,0.00106 0.95247,0.1953 1.29566,0.53999c0.34319,0.34469 0.5354,0.8116 0.53434,1.29801c0,1.016 -0.819,1.84 -1.83,1.84z" fill="#515151"/><path d="M259.15,200.396c0,0 -1.129,-8.94 -2.616,-11.056l-0.217,-0.314c1.45,8.653 1.273,19.533 1.273,19.533l0.006,4.138l-8.43,4.655l-5.008,-11.668l-6.112,11.668l-8.247,-4.688l-0.01,-4.103c0,0 -0.221,-13.44 1.824,-22.324c-0.514,0.234 -6.645,2.994 -8.665,2.256c-2.613,-0.951 -6.467,-9.083 -6.467,-9.083l4.175,-2.064l4.732,5.713l9.352,-3.689c1.821,-1.198 7.35,-1.394 7.35,-1.394l1.533,0.048h0.131l1.535,-0.048c0,0 5.506,0.179 7.339,1.371c0.74,0.41 4.844,2.734 6.26,4.554c3.207,4.115 4.435,16.5 4.435,16.5l-4.173,-0.005" fill="#e63744"/><path d="M215.639,170.511c1.05,-0.447 2.306,-0.038 3.33,0.95c0.46,-0.701 1.006,-1.088 1.512,-0.992c0.948,0.186 1.393,2.005 0.994,4.067c-0.13239,0.7162 -0.37208,1.40833 -0.711,2.053c-0.17,1.092 -0.718,1.966 -1.581,2.332c-1.608,0.686 -3.707,-0.642 -4.686,-2.965c-0.98,-2.323 -0.466,-4.761 1.142,-5.445M264.112,202.996c-0.218,-2.07 -1.558,-3.624 -2.99,-3.471c-0.772,0.082 -1.409,0.64 -1.806,1.46c-0.377,0.37 -0.745,0.865 -1.053,1.448c-0.807,1.531 -0.89,3.074 -0.185,3.448c0.375,0.203 0.899,0.025 1.43,-0.414c0.571,1.023 1.466,1.652 2.402,1.552c1.433,-0.15 2.419,-1.955 2.202,-4.023" data-paper-data="{&quot;origPos&quot;:null}" fill="#bb9367"/><path d="M251.622,215.993l-2.455,1.354l-14.121,-32.944l0.075,-0.043l-0.077,-0.12l6.196,-4.138c-0.357,-0.136 -0.65,-0.307 -0.85,-0.506c-0.525,-0.526 0,-2.986 0,-2.986c1.065,0.178 2.159,0.268 3.271,0.268c1.126,0 2.228,-0.092 3.303,-0.272c0,0 0.468,2.407 0,2.99c-0.031,0.034 -0.062,0.069 -0.097,0.105l0.01,0.016l-0.116,0.078c-0.0913,0.07497 -0.18939,0.14125 -0.293,0.198l-7.99,5.334z" fill="#f7b90b"/><path d="M257.571,204.805c0.045,2.298 0.02,3.79 0.02,3.79h-27.802c0,0 -0.025,-1.492 0.017,-3.79h27.766" fill="#343434"/><path d="M217.98,182.29c-1.67,-0.743 -1.499,-2.88 -1.499,-2.88l4.175,-2.066c0,0 2.317,1.764 2.142,2.586c-0.28,1.318 -3.592,2.904 -4.817,2.36M262.898,197.142c1.466,1.267 0.42,3.236 0.424,3.293h-0.915l-3.257,-0.021c0,0 -1.548,-1.73 -0.491,-3.272c0.599,-0.878 3.436,-0.694 4.239,0" fill="#f7b90b"/></g></g></svg>