<svg version="1.1" xmlns="http://www.w3.org/2000/svg" xmlns:xlink="http://www.w3.org/1999/xlink" width="79.713" height="115.84974" viewBox="0,0,79.713,115.84974"><g transform="translate(-200.153,-122.971)"><g data-paper-data="{&quot;isPaintingLayer&quot;:true}" fill-rule="evenodd" stroke-linecap="butt" stroke-linejoin="miter" stroke-miterlimit="10" stroke-dasharray="" stroke-dashoffset="0" style="mix-blend-mode: normal"><path d="M244.014,205.703c0.377,1.424 1.188,5.41 -1.231,6.716c-2.643,1.436 -4.857,0.526 -5.308,0.31c2.686,-2.003 0.591,-7.947 0.591,-7.947c0,0 -3.237,-1.2 -1.218,-3.47c0,0 1.479,-1.48 4.457,-0.407c0,0 0.668,-5.089 2.018,-8.304c0,0 7.954,-0.535 13.351,4.96c0,0 -1.532,2.057 -4.427,4.082c-2.103,1.467 -4.92,2.924 -8.384,3.546c0,0 0.065,0.19 0.151,0.514M236.848,175.73c3.917,-0.537 3.636,-6.964 3.636,-6.964h-7.683c0,0 0.128,7.498 4.047,6.964M223.896,153.19c0,0 2.515,-0.18 4.048,1.694c0,0 1.166,0.623 1.802,0.268c0.626,-0.353 -1.446,-3.482 -5.85,-1.962M225.7,156.49c-0.561,0 -1.079,0.162 -1.522,0.429l-2.007,-0.879l1.166,1.63c-0.08232,0.10679 -0.15462,0.22094 -0.216,0.341l-2.373,0.515l2.016,0.579c-0.01,0.107 -0.033,0.212 -0.033,0.332c0,1.628 1.329,2.945 2.969,2.945c0.78414,0.00345 1.53748,-0.30501 2.09402,-0.85742c0.55654,-0.55241 0.8706,-1.30343 0.87298,-2.08758c-0.00185,-0.78449 -0.31568,-1.53603 -0.87227,-2.08887c-0.55659,-0.55284 -1.31024,-0.86158 -2.09473,-0.85813M214.993,153.9c3.508,-0.536 16.998,-4.683 23.872,-10.84c0,0 1.218,2.013 -4.176,7.369c0,0 -0.94,0.792 1.08,0.536c2.017,-0.277 8.901,-0.407 12.142,-6.3c0,0 -0.67,4.017 -2.431,5.893c-1.758,1.875 -1.077,1.734 0.401,1.478c1.489,-0.278 7.966,-0.942 10.663,-7.497c0,0 3.907,2.14 4.047,7.09c0,0 0.69,-0.385 1.618,-0.535v-0.012c1.123,-0.192 2.613,-0.053 3.638,1.49c1.899,2.806 0.95,7.499 -4.036,8.292l0.032,0.128l-0.032,0.01c0,0 -15.1,3.998 -12.076,18.383c-0.53,0.03 -1.08,0.107 -1.675,0.299c-0.64441,0.19513 -1.2554,0.48713 -1.812,0.866c-3.097,2.11 -5.872,2.646 -8.17,2.497c-3.41,-0.225 -5.796,-1.97 -6.67,-2.366c-1.015,-0.452 -2.732,-1.416 -4.49,-2.015c-0.24135,-0.08542 -0.48624,-0.16049 -0.734,-0.225l0.01,-0.033c-0.614,-13.925 -14.169,-17.803 -14.169,-17.803l-0.81,-0.277c-4.447,-0.536 -5.935,-5.89 -3.777,-8.43c1.002,-1.202 2.116,-1.589 3.001,-1.683c1.003,-0.087 1.725,0.214 1.725,0.214c0,0 -0.68,4.008 2.829,3.471M251.601,153.19c-4.414,-1.519 -6.476,1.61 -5.85,1.963c0.626,0.355 1.802,-0.268 1.802,-0.268c1.522,-1.874 4.048,-1.694 4.048,-1.694M249.798,156.492c-0.78458,-0.00345 -1.53833,0.30525 -2.09508,0.85807c-0.55675,0.55281 -0.8708,1.30435 -0.87292,2.08893c0.00265,0.78424 0.31693,1.53526 0.87363,2.08764c0.5567,0.55238 1.31014,0.86081 2.09437,0.85736c1.64,0 2.969,-1.317 2.969,-2.945c0,-0.12 -0.022,-0.225 -0.035,-0.332l2.01,-0.579l-2.365,-0.515c-0.06519,-0.11795 -0.13697,-0.23213 -0.215,-0.342l1.164,-1.629l-2.006,0.879c-0.45914,-0.27814 -0.98519,-0.42642 -1.522,-0.429" data-paper-data="{&quot;origPos&quot;:null}" fill="#9c6f3e" stroke="#9c6f3e" stroke-width="0.5"/><path d="M257.754,233.04c0,0 3.777,0.664 3.235,3.75c-0.538,3.086 -6.333,2.014 -8.892,0.942c-2.568,-1.07 -3.108,-2.817 -1.76,-4.028c1.351,1.747 4.457,1.21 4.457,1.21c1.339,-1.337 2.96,-1.874 2.96,-1.874" fill="#7f4f21" stroke="none" stroke-width="1"/><path d="M221.058,234.914c0,0 3.108,0.537 4.457,-1.209c1.348,1.21 0.809,2.957 -1.759,4.028c-2.558,1.072 -8.354,2.142 -8.893,-0.943c-0.54,-3.085 3.236,-3.75 3.236,-3.75c0,0 1.62,0.537 2.959,1.874" fill="#7f4f21" stroke="none" stroke-width="1"/><path d="M230.22,226.633c-1.46978,2.42121 -3.03912,4.78056 -4.704,7.072c-1.35,1.746 -4.458,1.21 -4.458,1.21c-0.84428,-0.82467 -1.85191,-1.46338 -2.958,-1.875l1.62,-0.664c-2.18,-2.346 -3.573,-5.645 -4.446,-8.559c0.376,0.193 7.273,3.793 14.947,2.816M260.677,223.902c-0.69,2.497 -2.017,5.754 -4.544,8.474l1.621,0.665c0,0 -1.62,0.535 -2.96,1.873c0,0 -3.107,0.537 -4.456,-1.21c0,0 -2.234,-2.311 -4.91,-7.059l0.053,-0.033c7.221,0.974 14.01,-2.13 15.196,-2.71" fill="#595757" stroke="none" stroke-width="1"/><path d="M216.795,199.65c2.05547,1.79667 4.42712,3.19544 6.994,4.125l-0.032,0.075c-7.89,-1.502 -14.16,-3.483 -14.16,-3.483l1.079,-2.807c0,0 2.698,1.33 6.064,2.144zM264.822,201.975c-6.336,2.678 -13.631,3.675 -20.808,3.728c-0.087,-0.323 -0.15,-0.515 -0.15,-0.515c3.464,-0.62 6.28,-2.078 8.384,-3.545c1.78,-0.224 8.602,-1.17 11.98,-2.217z" fill="#6a3908" stroke="none" stroke-width="1"/><path d="M216.342,212.687c0,0 6.205,9.909 19.287,3.878c0,0 12.151,9.511 18.756,-1.07c0,0 12.477,2.667 17.504,-9.278c1.157,1.392 1.794,2.593 1.794,2.593c-2.17,8.067 -7.846,10.442 -12.294,11.01c-3.303,0.409 -5.924,-0.168 -5.924,-0.168c-3.357,4.743 -7.426,5.674 -11.019,5.161c-4.934,-0.686 -8.948,-4.092 -8.948,-4.092c-0.928,0.544 -1.834,0.997 -2.707,1.35c-10.837,4.424 -16.849,-5.099 -16.849,-5.099c-0.7,0.076 -1.382,0.13 -2.03,0.16c-13.026,0.525 -13.759,-9.802 -13.759,-9.802c0.41,-0.845 0.896,-1.595 1.425,-2.248c0.43,1.585 3.076,8.923 14.764,7.605" data-paper-data="{&quot;origPos&quot;:null}" fill="#e0b36e" stroke="none" stroke-width="1"/><path d="M264.822,201.975c3.075,0.204 5.525,2.399 7.068,4.242c-5.028,11.946 -17.505,9.278 -17.505,9.278c-6.606,10.582 -18.756,1.07 -18.756,1.07c-13.082,6.031 -19.287,-3.877 -19.287,-3.877c-11.688,1.317 -14.334,-6.022 -14.764,-7.607c3.172,-3.931 8.018,-4.714 8.018,-4.714c0,0 6.27,1.981 14.16,3.483l0.034,-0.075c1.833,0.673 3.928,1.179 6.312,1.413c0,0 0.508,8.183 5.223,8.183c0.141,0 0.292,-0.009 0.443,-0.019c0.713,-0.075 1.272,-0.301 1.705,-0.623c0.453,0.217 2.666,1.126 5.31,-0.31c2.419,-1.306 1.608,-5.291 1.231,-6.716c7.177,-0.053 14.472,-1.05 20.808,-3.728" fill="#7f4f21" stroke="none" stroke-width="1"/><path d="M259.554,136.276c-0.756,0.655 -1.812,0.849 -2.697,0.407l-2.806,-1.401c-1.057,-0.515 -1.522,-1.759 -1.188,-2.926c0.04558,-0.18868 0.11095,-0.37203 0.195,-0.547l1.111,-2.206c0.23569,-0.46262 0.58969,-0.85457 1.026,-1.136c0.722,-0.45 1.608,-0.536 2.375,-0.16l2.805,1.403c1.207,0.6 1.652,2.152 0.982,3.47l-1.112,2.209c-0.1656,0.34057 -0.40064,0.64271 -0.69,0.887" fill="#8ed2f4" stroke="none" stroke-width="1"/><path d="M245.363,126.528v-0.321c0,-1.79 1.337,-3.236 2.979,-3.236h3.809c1.339,0 2.46,0.966 2.84,2.283c0.085,0.3 0.127,0.62 0.127,0.953v2.12l0.077,0.14c-0.43631,0.28143 -0.79031,0.67338 -1.026,1.136l-1.111,2.206c-0.08417,0.17492 -0.14953,0.35828 -0.195,0.547c-0.182,0.022 -0.54,0.076 -0.712,0.076h-3.81c-1.64,0 -2.978,-1.446 -2.978,-3.225z" fill="#8ed2f4" stroke="none" stroke-width="1"/><path d="M239.093,195.366c0,0.793 -0.637,1.435 -1.435,1.435c-0.78977,0 -1.43,-0.64023 -1.43,-1.43c0,-0.78977 0.64023,-1.43 1.43,-1.43c0.37926,-0.00133 0.74351,0.14806 1.01263,0.4153c0.26912,0.26724 0.42105,0.63044 0.42237,1.0097M237.658,186.623c0.798,0 1.435,0.632 1.435,1.426c0,0.792 -0.637,1.423 -1.435,1.423c-0.8,0 -1.436,-0.631 -1.436,-1.423c0,-0.794 0.636,-1.426 1.436,-1.426" fill="#fefefe" stroke="none" stroke-width="1"/><path d="M213.104,195.28c0,0 1.1,2.09 3.691,4.37l-0.055,0.055c-3.366,-0.815 -6.065,-2.144 -6.065,-2.144l0.52,-2.989c1.066,0.602 1.909,0.707 1.909,0.707M256.674,197.56c0,0 3.604,0.353 6.746,-1.756l0.01,0.012c0.669,2.409 0.798,3.61 0.798,3.61c-3.377,1.048 -10.199,1.992 -11.98,2.217c2.893,-2.026 4.426,-4.082 4.426,-4.082" fill="#da9ab6" stroke="none" stroke-width="1"/><path d="M243.323,192.602c-1.35,3.213 -2.018,8.302 -2.018,8.302c-2.979,-1.071 -4.457,0.408 -4.457,0.408c-0.94,-1.073 -3.24,-0.537 -3.24,-0.537l-2.837,-8.709c0,0 2.43,-1.329 0.96,-7.049c3.41,0.483 6.335,-1.918 6.335,-1.918c0,0 2.084,2.401 4.804,2.572c-0.216,0.718 -0.95,3.674 0.453,6.93M237.658,196.801c0.52365,0.01959 1.01612,-0.2486 1.28376,-0.69911c0.26764,-0.45051 0.26764,-1.01127 0,-1.46178c-0.26764,-0.45051 -0.76011,-0.7187 -1.28376,-0.69911c-0.78977,0 -1.43,0.64023 -1.43,1.43c0,0.78977 0.64023,1.43 1.43,1.43M237.658,186.623c-0.78673,0 -1.4245,0.63777 -1.4245,1.4245c0,0.78673 0.63777,1.4245 1.4245,1.4245c0.798,0 1.435,-0.63 1.435,-1.423c0,-0.794 -0.637,-1.426 -1.435,-1.426" fill="#f6c8dc" stroke="none" stroke-width="1"/><path d="M243.323,192.602c-1.35,3.213 -2.018,8.302 -2.018,8.302c-2.979,-1.071 -4.457,0.408 -4.457,0.408c-0.94,-1.073 -3.24,-0.537 -3.24,-0.537l-2.837,-8.709c0,0 2.43,-1.329 0.96,-7.049c3.41,0.483 6.335,-1.918 6.335,-1.918c0,0 2.084,2.401 4.804,2.572c-0.216,0.718 -0.95,3.674 0.453,6.93M237.658,196.801c0.52365,0.01959 1.01612,-0.2486 1.28376,-0.69911c0.26764,-0.45051 0.26764,-1.01127 0,-1.46178c-0.26764,-0.45051 -0.76011,-0.7187 -1.28376,-0.69911c-0.78977,0 -1.43,0.64023 -1.43,1.43c0,0.78977 0.64023,1.43 1.43,1.43M237.658,186.623c-0.78673,0 -1.4245,0.63777 -1.4245,1.4245c0,0.78673 0.63777,1.4245 1.4245,1.4245c0.798,0 1.435,-0.63 1.435,-1.423c0,-0.794 -0.637,-1.426 -1.435,-1.426" fill="#ebb5cd" stroke="none" stroke-width="1"/><path d="M249.735,179.384c1.314,-0.068 2.384,0.224 2.987,0.224c1.383,0 6.002,-0.44 8.603,-4.2l0.075,0.054c4.189,0.802 6.745,5.892 6.606,10.445c-0.174,5.42 -2.257,8.343 -4.586,9.897c-3.142,2.109 -6.746,1.757 -6.746,1.757c-5.397,-5.494 -13.35,-4.959 -13.35,-4.959c-1.404,-3.257 -0.67,-6.212 -0.454,-6.932c0.80461,0.06157 1.61146,-0.08623 2.342,-0.429c3.67,-1.701 2.99,-5.013 2.848,-5.558c0.54293,-0.17235 1.106,-0.2732 1.675,-0.3" fill="#f6c8dc" stroke="none" stroke-width="1"/><path d="M238.078,183.046c2.298,0.15 5.073,-0.386 8.17,-2.497c0.5566,-0.37887 1.16759,-0.67087 1.812,-0.866c0.141,0.545 0.822,3.857 -2.849,5.56c-0.73087,0.34165 -1.53759,0.48874 -2.342,0.427c-2.719,-0.17 -4.802,-2.57 -4.802,-2.57z" fill="#fefefe" stroke="none" stroke-width="1"/><path d="M226.919,178.665c1.757,0.6 3.474,1.563 4.49,2.014c0.873,0.397 3.26,2.143 6.67,2.367l-0.012,0.053c0,0 -2.925,2.401 -6.336,1.918c-0.56171,-0.07195 -1.11026,-0.22382 -1.629,-0.451c-4.047,-1.744 -3.239,-5.751 -3.239,-5.751z" fill="#fefefe" stroke="none" stroke-width="1"/><path d="M226.184,178.44c0.247,0.063 0.487,0.139 0.734,0.225l-0.055,0.15c0,0 -0.808,4.006 3.24,5.75c0.549,0.239 1.1,0.387 1.628,0.452c1.47,5.72 -0.96,7.05 -0.96,7.05c-9.843,-1.074 -17.667,3.212 -17.667,3.212c0,0 -0.843,-0.106 -1.91,-0.706c-1.792,-0.985 -4.21,-3.332 -4.297,-8.795c-0.119,-8.035 6.303,-11.055 7.297,-11.474c4.058,3.826 7.964,3.696 10.328,3.836c0.56337,0.03839 1.12076,0.139 1.662,0.3" fill="#f6c8dc" stroke="none" stroke-width="1"/><path d="M263.39645,169.633v0.013c-0.141,2.484 -0.83,4.358 -1.814,5.762c-2.601,3.76 -7.22,4.2 -8.603,4.2c-0.603,0 -1.673,-0.292 -2.988,-0.224c-3.022,-14.386 12.077,-18.384 12.077,-18.384l0.031,-0.01l0.595,2.151c0.603,2.53 0.798,4.672 0.702,6.491M212.28245,160.605c0,0 13.555,3.877 14.17,17.803l-0.01,0.031c-0.5413,-0.16075 -1.09866,-0.26136 -1.662,-0.3c-2.364,-0.138 -6.272,-0.01 -10.33,-3.835c-0.11081,-0.1 -0.21853,-0.20338 -0.323,-0.31c-5.266,-5.763 -2.03,-12.726 -2.03,-12.726z" data-paper-data="{&quot;origPos&quot;:null}" fill="#9c6f3e" stroke="#9c6f3e" stroke-width="0.5"/><path d="M240.484,168.767c0,0 0.28,6.427 -3.636,6.964c-3.918,0.534 -4.047,-6.964 -4.047,-6.964z" fill="#e50113" stroke="none" stroke-width="1"/><path d="M223.896,153.19c4.405,-1.52 6.476,1.609 5.85,1.962c-0.637,0.354 -1.803,-0.268 -1.803,-0.268c-1.53,-1.874 -4.047,-1.694 -4.047,-1.694M251.6,153.19c0,0 -2.525,-0.18 -4.046,1.694c0,0 -1.176,0.622 -1.801,0.268c-0.628,-0.353 1.435,-3.482 5.847,-1.962" data-paper-data="{&quot;origPos&quot;:null}" fill="#6f441d" stroke="none" stroke-width="1"/><path d="M254.86156,128.328v-2.121c0,-0.332 -0.043,-0.653 -0.13,-0.953c1.242,-0.792 8.322,-4.703 17.614,1.606c10.252,6.963 6.065,20.355 3.778,26.503c-2.3,6.17 -2.979,9.513 -1.62,10.711c1.34,1.21 3.357,1.48 5.105,-1.305c-0.14,0.695 -3.27,14.685 -16.727,6.876v-0.012c0.096,-1.819 -0.098,-3.962 -0.702,-6.491l-0.594,-2.15l-0.031,-0.13c4.984,-0.793 5.933,-5.484 4.035,-8.292c-1.025,-1.542 -2.516,-1.681 -3.638,-1.488c0.756,-9.793 -2.277,-14.292 -2.655,-14.806c0.282,-0.236 0.518,-0.535 0.69,-0.887l1.113,-2.21c0.67,-1.317 0.226,-2.868 -0.981,-3.469l-2.806,-1.404c-0.768,-0.375 -1.653,-0.288 -2.375,0.16z" data-paper-data="{&quot;origPos&quot;:null}" fill="#794b1f" stroke="none" stroke-width="1"/><path d="M210.406,150.02c0,0 1.467,-29.962 34.957,-23.491v2.68c0,1.777 1.337,3.223 2.978,3.223h3.81c0.173,0 0.53,-0.053 0.713,-0.076c-0.335,1.167 0.13,2.411 1.187,2.926l2.806,1.403c0.885,0.44 1.942,0.247 2.697,-0.408c0.378,0.515 3.41,5.014 2.656,14.805v0.012c-0.93,0.15 -1.619,0.535 -1.619,0.535c-0.14,-4.95 -4.047,-7.091 -4.047,-7.091c-2.698,6.556 -9.174,7.22 -10.664,7.498c-1.477,0.256 -2.157,0.397 -0.4,-1.478c1.76,-1.875 2.43,-5.893 2.43,-5.893c-3.24,5.893 -10.123,6.022 -12.141,6.3c-2.02,0.255 -1.08,-0.536 -1.08,-0.536c5.395,-5.357 4.176,-7.37 4.176,-7.37c-6.874,6.157 -20.365,10.304 -23.872,10.841c-3.508,0.536 -2.829,-3.472 -2.829,-3.472c0,0 -0.721,-0.3 -1.726,-0.215l-0.032,-0.192z" data-paper-data="{&quot;origPos&quot;:null}" fill="#794b1f" stroke="none" stroke-width="1"/><path d="M244.446,224.814c3.594,0.512 7.662,-0.419 11.02,-5.164c0,0 2.62,0.58 5.924,0.17l0.01,0.098c0,0 -0.097,1.66 -0.723,3.984c-1.187,0.58 -7.975,3.685 -15.196,2.71l-0.053,0.033c-0.34084,-0.603 -0.66825,-1.21348 -0.982,-1.831M215.264,223.807c-1.059,-3.568 -1.35,-6.568 -1.35,-6.568v-0.107c0.67714,-0.0327 1.35312,-0.08606 2.027,-0.16c0,0 6.013,9.523 16.85,5.099c-0.8056,1.5492 -1.66274,3.07105 -2.57,4.563c-7.674,0.975 -14.57,-2.624 -14.947,-2.816c0,-0.011 -0.01,-0.011 -0.01,-0.011" data-paper-data="{&quot;origPos&quot;:null}" fill="#9c6f3e" stroke="none" stroke-width="1"/><path d="M237.474,212.73c-0.433,0.321 -0.993,0.547 -1.705,0.622c-0.14808,0.01123 -0.2965,0.01756 -0.445,0.019c-4.714,0 -5.221,-8.183 -5.221,-8.183c-2.385,-0.234 -4.48,-0.74 -6.314,-1.413c-2.56688,-0.92956 -4.93853,-2.32833 -6.994,-4.125c-2.59,-2.28 -3.692,-4.371 -3.692,-4.371c0,0 7.826,-4.286 17.669,-3.213l2.836,8.71c0,0 2.3,-0.537 3.24,0.535c-2.019,2.271 1.22,3.472 1.22,3.472c0,0 2.094,5.944 -0.594,7.947" data-paper-data="{&quot;origPos&quot;:null}" fill="#9c6f3e" stroke="none" stroke-width="1"/><path d="M239.217,164.581c-0.13068,-0.00038 -0.25332,-0.06318 -0.33,-0.169c-0.799,-1.113 -1.618,-1.677 -2.415,-1.637c-1.277,0.04 -2.208,1.511 -2.217,1.528c-0.11941,0.18694 -0.36608,0.24461 -0.556,0.13c-0.09183,-0.05469 -0.15766,-0.14418 -0.18252,-0.24814c-0.02486,-0.10395 -0.00664,-0.21354 0.05052,-0.30386c0.044,-0.074 1.162,-1.852 2.875,-1.91c1.089,-0.063 2.138,0.628 3.104,1.974c0.12918,0.18205 0.08669,0.43431 -0.095,0.564c-0.06938,0.04617 -0.15067,0.07118 -0.234,0.072" fill="#f9cda5" stroke="none" stroke-width="1"/><path d="M215.788,153.75c-0.364,3.449 -0.159,6.332 0.371,8.712c-2.324,-1.336 -4.134,-1.857 -4.134,-1.857l-0.809,-0.279c-4.447,-0.535 -5.936,-5.89 -3.778,-8.43c1.003,-1.2 2.116,-1.588 3,-1.682c1.004,-0.087 1.726,0.215 1.726,0.215c0,0 -0.679,4.007 2.829,3.471c0.225,-0.036 0.494,-0.085 0.795,-0.15M237.723,146.853c-7.22,4.191 -13.802,5.441 -17.808,5.781c5.613,-1.75 13.994,-5.135 18.951,-9.575c0,0 0.647,1.094 -1.143,3.794M246.809,148.393c-3.759,2.674 -8.11,2.558 -9.646,2.412c2.837,-0.325 8.051,-1.233 10.747,-6.142c0,0 -0.322,1.924 -1.1,3.73M249.337,175.551c-0.00748,1.28836 0.12598,2.57367 0.398,3.833c-0.56863,0.02646 -1.13137,0.12697 -1.674,0.299c-0.64476,0.19503 -1.25609,0.48704 -1.813,0.866c-3.097,2.111 -5.872,2.647 -8.169,2.498c-3.41,-0.225 -5.798,-1.971 -6.67,-2.368c-1.016,-0.45 -2.732,-1.415 -4.49,-2.015c-0.248,-0.085 -0.487,-0.161 -0.735,-0.225l0.01,-0.032c-0.05304,-1.2572 -0.22379,-2.50666 -0.51,-3.732c9.287,5.471 17.809,3.73 23.653,0.876M265.846,152.569c1.898,2.807 0.949,7.499 -4.035,8.293l0.03,0.128l-0.03,0.01c0,0 -1.704,0.455 -3.846,1.597c-0.26,-5.335 -1.78,-11.18 -2.32,-12.038c-0.493,-0.784 -3.04,-0.332 -5.24,0.236c2.24,-0.987 4.714,-2.797 6.138,-6.257c0,0 3.908,2.14 4.048,7.09c0.50797,-0.262 1.05397,-0.44253 1.618,-0.535v-0.012c1.122,-0.191 2.613,-0.053 3.638,1.489M238.067,204.783c0,0 2.095,5.944 -0.593,7.947c-0.433,0.321 -0.993,0.547 -1.706,0.621c-0.151,0.01 -0.302,0.02 -0.445,0.02c-4.713,0 -5.22,-8.183 -5.22,-8.183c-2.384,-0.233 -4.48,-0.74 -6.314,-1.413c-2.56724,-0.92945 -4.93923,-2.32823 -6.995,-4.125c-2.589,-2.28 -3.69,-4.372 -3.69,-4.372c0,0 4.02,-2.187 9.907,-3.04c-2.447,1.308 -4.224,3.157 -2.082,5.453c4.497,4.82 8.634,5 9.353,6.606c0.719,1.607 2.518,7.855 5.575,6.605c2.461,-1.006 1.546,-4.436 1.656,-6.39c0.311,0.178 0.554,0.271 0.554,0.271" data-paper-data="{&quot;origPos&quot;:null}" fill="#8b6338" stroke="none" stroke-width="1"/><path d="M241.306,200.904c-1.71,-0.479 -3.449,1.202 -4.07,3.437c-0.796,-0.539 -1.698,-1.557 -0.388,-3.03c0,0 1.478,-1.479 4.457,-0.407M238.917,210.366c4.137,3.749 5.037,-2.499 4.945,-5.177c0.05625,0.16963 0.10695,0.34106 0.152,0.514c0.376,1.424 1.187,5.41 -1.23,6.716c-2.645,1.436 -4.858,0.526 -5.31,0.31c0.785,-0.584 1.153,-1.51 1.295,-2.52c0.053,0.05 0.091,0.107 0.148,0.157M248.825,193.219c2.499,0.633 5.429,1.878 7.849,4.342c0,0 -1.532,2.056 -4.427,4.082c-2.104,1.466 -4.92,2.925 -8.384,3.546c-0.09,-2.679 8.186,-5.177 9.442,-7.677c0.653,-1.297 -1.884,-2.974 -4.48,-4.293" data-paper-data="{&quot;origPos&quot;:null}" fill="#8b6338" stroke="none" stroke-width="1"/><path d="M230.103,191.978c0.49024,-0.24111 0.97155,-0.49995 1.443,-0.776c-0.377,0.64 -0.775,0.864 -0.775,0.864c-9.842,-1.072 -17.667,3.214 -17.667,3.214c0,0 -0.844,-0.106 -1.91,-0.707c-1.791,-0.985 -4.21,-3.331 -4.296,-8.796c-0.119,-8.033 6.303,-11.054 7.296,-11.472c4.057,3.824 7.965,3.696 10.33,3.834c0.56252,0.03994 1.11908,0.14053 1.66,0.3c0.24792,0.0651 0.49312,0.14016 0.735,0.225l-0.055,0.15c0,0 -0.155,0.78 0.014,1.797c-2.088,-1.54 -7.813,-2.576 -12.067,-0.953c-3.591,1.373 -2.854,6.497 -1.457,9.151c1.687,3.197 5.117,2.276 8.102,2.29c1.933,0.009 3.885,0.242 5.8,0.479c0.559,0.067 2.338,0.65 2.847,0.4M261.401,175.462c4.188,0.802 6.745,5.892 6.605,10.445c-0.173,5.42 -2.257,8.343 -4.587,9.897c-3.14,2.109 -6.745,1.757 -6.745,1.757c-5.396,-5.494 -13.35,-4.959 -13.35,-4.959c5.844,-5.089 20.236,4.019 21.494,-4.195c1.26,-8.215 -7.374,-7.319 -10.072,-6.785c-2.085,0.413 -5.448,0.827 -6.875,0.993c0.533,-1.34 0.272,-2.612 0.19,-2.932c0.54255,-0.17232 1.10534,-0.27284 1.674,-0.299c1.315,-0.068 2.385,0.224 2.989,0.224c1.382,0 6,-0.44 8.6,-4.2l0.077,0.054" fill="#ebb5cd" stroke="none" stroke-width="1"/><path d="M242.869,185.671c-0.216,0.718 -0.948,3.675 0.454,6.93c-1.349,3.215 -2.018,8.304 -2.018,8.304c-2.979,-1.073 -4.457,0.407 -4.457,0.407c-0.94,-1.074 -3.24,-0.537 -3.24,-0.537l-2.837,-8.708c0,0 2.429,-1.33 0.96,-7.05c0.1,0.014 0.196,0.018 0.296,0.028c0.552,2.106 1.59,6.69 0.774,8.718c0,0 0.539,5 3.777,5c3.237,0 4.496,-1.966 5.575,-6.071c0,0 -1.444,-2.793 0.717,-7.022" fill="#da9ab6" stroke="none" stroke-width="1"/><path d="M252.151,132.431c0.172,0 0.531,-0.053 0.712,-0.076c0,0 -8.012,6.063 -7.651,-5.187c0.006,-0.232 -0.018,-0.449 -0.035,-0.669c0.063,0.012 0.122,0.018 0.186,0.028v2.68c0,1.778 1.338,3.224 2.979,3.224z" data-paper-data="{&quot;origPos&quot;:null}" fill="#8f5620" stroke="none" stroke-width="1"/><path d="M259.554,136.276c0.378,0.514 3.411,5.013 2.655,14.806v0.01c-0.927,0.151 -1.617,0.536 -1.617,0.536c-0.141,-4.949 -4.049,-7.09 -4.049,-7.09c-2.697,6.554 -9.173,7.219 -10.663,7.498c-1.477,0.255 -2.157,0.395 -0.4,-1.479c1.761,-1.875 2.43,-5.892 2.43,-5.892c-3.239,5.892 -10.123,6.021 -12.14,6.3c-2.021,0.254 -1.08,-0.537 -1.08,-0.537c5.394,-5.356 4.176,-7.37 4.176,-7.37c-6.875,6.158 -20.366,10.305 -23.872,10.84c-3.509,0.537 -2.829,-3.47 -2.829,-3.47c0,0 -0.723,-0.3 -1.726,-0.215l-0.032,-0.192c0,0 0.129,-2.519 1.116,-5.934c1.184,3.936 6.751,7.03 27.754,-3.17c0,0 3.418,3.032 8.993,0.178c5.576,-2.856 2.351,-4.98 4.593,-8.739c-0.334,1.167 0.131,2.411 1.188,2.926l2.806,1.401c0.885,0.442 1.941,0.248 2.697,-0.407" data-paper-data="{&quot;origPos&quot;:null}" fill="#6f441d" stroke="none" stroke-width="1"/><path d="M242.694,133.774c0,0 -11.918,9.932 -30.331,7.817c1.301,-3.41 3.461,-7.246 7.041,-10.31c3.509,2.033 11.727,5.528 23.29,2.493" data-paper-data="{&quot;origPos&quot;:null}" fill="#8f5620" stroke="none" stroke-width="1"/><path d="M274.761,164.074c1.339,1.21 3.357,1.481 5.105,-1.304c-0.14,0.694 -3.27,14.684 -16.727,6.876v-0.013c0.096,-1.82 -0.098,-3.961 -0.702,-6.491l-0.595,-2.151l-0.03,-0.128c4.984,-0.793 5.933,-5.486 4.035,-8.292c-1.025,-1.543 -2.516,-1.682 -3.638,-1.49c0.756,-9.791 -2.277,-14.29 -2.654,-14.804c0.28976,-0.24471 0.52484,-0.54759 0.69,-0.889l1.112,-2.208c0.34054,-0.65894 0.3997,-1.42771 0.164,-2.131c2.546,0.224 5.98,1.758 6.536,8.26c0,0 1.078,8.57 1.798,5c0.718,-3.571 1.437,-8.214 0.54,-10.356c-0.901,-2.143 1.437,-1.963 3.237,0.713c1.798,2.678 1.798,-1.963 -0.72,-4.64c-2.517,-2.679 -10.433,-6.07 -14.21,-3.571c0,0 2.385,-3.346 9.922,-1.752c1.39596,0.58239 2.72914,1.3051 3.979,2.157c10.252,6.963 6.065,20.353 3.778,26.503c-2.3,6.171 -2.98,9.513 -1.62,10.711" data-paper-data="{&quot;origPos&quot;:null}" fill="#6f441d" stroke="none" stroke-width="1"/><path d="M255.119,128.327l0.076,0.14c-0.43662,0.28106 -0.7907,0.67311 -1.026,1.136l-1.111,2.206c-0.087,0.183 -0.152,0.363 -0.194,0.547c-0.183,0.022 -0.541,0.076 -0.713,0.076h-3.808c-1.642,0 -2.98,-1.446 -2.98,-3.225v-3c0.00287,-0.26276 0.03507,-0.52438 0.096,-0.78c0.433,1.885 1.575,4.9 4.428,4.778c4.139,-0.179 3.238,-3.037 2.879,-4.465c-0.192,-0.769 -1.949,-2.151 -3.756,-2.769h3.141c1.339,0 2.46,0.966 2.838,2.283c0.087,0.3 0.13,0.621 0.13,0.953v2.121z" fill="#82c1e0" stroke="none" stroke-width="1"/><path d="M251.231,127.122c-0.398,0.683 -1.52,0.778 -2.51,0.212c-0.989,-0.563 -1.472,-1.577 -1.076,-2.26c0.398,-0.685 1.522,-0.78 2.511,-0.216c0.99,0.566 1.474,1.58 1.075,2.264M259.51,131.99c0,0.74 -0.684,1.34 -1.527,1.34c-0.847,0 -1.53,-0.6 -1.53,-1.34c0,-0.74 0.683,-1.34 1.53,-1.34c0.843,0 1.527,0.6 1.527,1.34" fill="#fefefe" stroke="none" stroke-width="1"/><path d="M264.822,201.975c1.444,3.391 2.333,5.537 -0.185,3.394c-2.516,-2.144 -5.216,0.178 -3.418,2.676c1.799,2.501 -3.237,0 -4.317,-1.07c-1.077,-1.071 -3.597,-0.535 -2.697,3.928c0.899,4.462 -4.317,-1.429 -5.756,-3.928c-1.438,-2.502 -2.518,3.928 -2.518,3.928c-1.618,5.713 -8.273,2.856 -8.273,2.856c-0.912,0.544 -1.684,0.718 -2.224,0.76l0.024,0.251c-6.82,-0.738 -9.926,-8.383 -11.112,-9.223c-1.258,-0.894 -3.958,-1.786 -5.576,1.428c-1.618,3.214 -1.978,-0.894 -1.618,-3.214c0.358,-2.319 -5.038,-1.07 -9.174,1.072c-3.042,1.576 0.336,-2.16 2.334,-4.247c4.42545,1.30649 8.91214,2.39579 13.444,3.264l0.034,-0.075c1.833,0.673 3.928,1.179 6.312,1.413c0,0 0.508,8.183 5.223,8.183c0.141,0 0.292,-0.009 0.443,-0.019c0.713,-0.075 1.272,-0.301 1.705,-0.623c0.453,0.217 2.666,1.126 5.31,-0.31c2.419,-1.306 1.608,-5.291 1.231,-6.716c7.177,-0.053 14.472,-1.05 20.808,-3.728" fill="#6e4319" stroke="none" stroke-width="1"/><path d="M220.574,225.817c2.66,0.727 6.064,1.272 9.646,0.817c-2.439,4.017 -4.705,7.07 -4.705,7.07c-1.349,1.747 -4.457,1.21 -4.457,1.21c-1.339,-1.337 -2.959,-1.873 -2.959,-1.873l0.52,-0.214c0.111,0.071 0.22,0.15 0.33,0.215c5.975,3.47 2.978,-4.19 1.625,-7.225M250.986,226.652c0.169,2.889 1.205,8.393 6.767,6.388c-1.10633,0.41114 -2.11406,1.04991 -2.958,1.875c0,0 -3.107,0.536 -4.457,-1.21c0,0 -2.235,-2.312 -4.91,-7.06l0.052,-0.033c1.899,0.259 3.763,0.227 5.506,0.04" fill="#3f3a3a" stroke="none" stroke-width="1"/><path d="M225.516,233.705c1.348,1.209 0.808,2.957 -1.759,4.027c-2.559,1.072 -8.355,2.144 -8.893,-0.942c-0.116,-0.654 -0.027,-1.193 0.168,-1.647c0.193,0.81 1.281,1.609 3.198,2.004c2.722,0.564 4.226,-1.001 4.966,-2.235c0.843,-0.131 1.74,-0.458 2.32,-1.207" fill="#6e4319" stroke="none" stroke-width="1"/><path d="M259.602,233.778c0.866,0.554 1.655,1.485 1.387,3.011c-0.538,3.087 -6.333,2.015 -8.891,0.943c-2.568,-1.07 -3.109,-2.818 -1.76,-4.028c0.941,1.217 2.732,1.327 3.734,1.28c1.902,1.505 4.447,3.059 5.71,1.807c1.06,-1.052 0.704,-2.167 -0.18,-3.013" fill="#6e4319" stroke="none" stroke-width="1"/><path d="M251.758,160.233c-0.34616,0.00266 -0.67909,-0.13285 -0.925,-0.3765c-0.24591,-0.24365 -0.38448,-0.57532 -0.385,-0.9215c0.00026,-0.34635 0.13871,-0.67827 0.38464,-0.92214c0.24594,-0.24387 0.57902,-0.37952 0.92536,-0.37686c0.34634,-0.00266 0.67942,0.13299 0.92536,0.37686c0.24594,0.24387 0.38439,0.5758 0.38464,0.92214c0,0.72 -0.585,1.298 -1.31,1.298M226.203,158.73c-0.00549,0.72511 -0.59487,1.31002 -1.32,1.31c-0.717,0 -1.312,-0.59 -1.312,-1.31c0,-0.72 0.595,-1.3 1.312,-1.3c0.725,0 1.32,0.58 1.32,1.3" fill="#fefefe" stroke="none" stroke-width="1"/><path d="M247.679,159.032c0,0.723 0.583,1.299 1.31,1.299c0.47625,0.01869 0.92454,-0.22473 1.16822,-0.63434c0.24368,-0.40961 0.24368,-0.91972 0,-1.32933c-0.24368,-0.40961 -0.69197,-0.65303 -1.16822,-0.63434c-0.34651,-0.00267 -0.67975,0.13312 -0.92571,0.37721c-0.24596,0.24409 -0.3843,0.57627 -0.38429,0.92279M249.935,162.775c-1.841,0 -3.334,-1.483 -3.334,-3.31c0,-1.83 1.493,-3.31 3.334,-3.31c0.63,0 1.2,0.182 1.71,0.483l2.253,-0.986l-1.308,1.827c0.084,0.12 0.169,0.254 0.24,0.386l2.658,0.576l-2.256,0.651c0.013,0.12 0.037,0.24 0.037,0.374c0,1.826 -1.494,3.309 -3.334,3.309M228.628,159.332c0,1.827 -1.49,3.309 -3.334,3.309c-1.841,0 -3.334,-1.482 -3.334,-3.31c0,-0.132 0.023,-0.253 0.035,-0.373l-2.264,-0.649l2.666,-0.577c0.072,-0.133 0.145,-0.266 0.242,-0.387l-1.31,-1.827l2.254,0.985c0.498,-0.3 1.08,-0.482 1.71,-0.482c1.845,0 3.335,1.482 3.335,3.31M224.883,157.431c-0.717,0 -1.311,0.578 -1.311,1.298c0,0.722 0.594,1.312 1.31,1.312c0.727,0 1.32,-0.59 1.32,-1.312c-0.00605,-0.72311 -0.59689,-1.30455 -1.32,-1.299" fill="#3f3a3a" stroke="none" stroke-width="1"/><path d="M249.03,157.697c0.72311,-0.00555 1.31395,0.57589 1.32,1.299c0,0.723 -0.595,1.313 -1.32,1.313c-0.717,0 -1.31,-0.59 -1.31,-1.313c0,-0.72 0.593,-1.299 1.31,-1.299" fill="#fefefe" stroke="none" stroke-width="1"/></g></g></svg>