<svg version="1.1" xmlns="http://www.w3.org/2000/svg" xmlns:xlink="http://www.w3.org/1999/xlink" width="113.3232" height="118.23343" viewBox="0,0,113.3232,118.23343"><g transform="translate(-184.6209,-121.071)"><g data-paper-data="{&quot;isPaintingLayer&quot;:true}" fill-rule="evenodd" stroke-miterlimit="10" stroke-dasharray="" stroke-dashoffset="0" style="mix-blend-mode: normal"><path d="M221.031,176.004c8.79,8.665 0.704,17.162 0.704,17.162c-13.47,0.538 -24.085,-15.147 -24.085,-15.147c-4.652,-6.495 -9.282,-12.752 -9.282,-12.752l10.035,-5.955c0,0 5.119,6.964 10.719,11.51c8.22,6.672 11.908,5.182 11.908,5.182" fill="#cceff7" stroke="none" stroke-width="1" stroke-linecap="butt" stroke-linejoin="miter"/><path d="M199.1,179.947c4.42,4.493 11.363,9.984 19.485,10.852c2.06184,0.2258 4.06376,-0.78162 5.111,-2.572c0.58581,-0.99234 1.06258,-2.04513 1.422,-3.14c-0.158,4.686 -3.385,8.078 -3.385,8.078c-10.515,0.418 -19.29,-9.048 -22.633,-13.218" fill="#add8e3" stroke="none" stroke-width="1" stroke-linecap="butt" stroke-linejoin="miter"/><path d="M264.383,176.63c0,0 2.5,-0.743 11.562,-6.216c5.593,-3.38 11.206,-11.775 11.206,-11.775l8.989,3.333c0,0 -4.164,7.975 -8.292,14.819c0,0 -9.342,16.471 -22.81,17.003c0,0 -8.735,-7.83 -0.655,-17.163" fill="#cceff7" stroke="none" stroke-width="1" stroke-linecap="butt" stroke-linejoin="miter"/><path d="M287.91999,158.047l-1.527,-0.105c-0.99743,-0.07014 -1.74914,-0.93557 -1.679,-1.933c0.07014,-0.99743 0.93557,-1.74914 1.933,-1.679l1.524,0.105c0.99743,0.06959 1.74959,0.93457 1.68,1.932c-0.06959,0.99743 -0.93457,1.74959 -1.932,1.68" fill="#ffc2a6" stroke="none" stroke-width="1" stroke-linecap="butt" stroke-linejoin="miter"/><path d="M296.925,160.233c-0.92058,1.36597 -2.34637,2.31 -3.96336,2.62417c-1.61699,0.31417 -3.29254,-0.02729 -4.65764,-0.94917c-1.3658,-0.92043 -2.30986,-2.34587 -2.62439,-3.96256c-0.31452,-1.61669 0.02628,-3.2921 0.94739,-4.65744c1.93617,-2.7947 5.75948,-3.51332 8.57823,-1.61234c2.81876,1.90098 3.58526,5.71498 1.71977,8.55734" data-paper-data="{&quot;origPos&quot;:null}" fill="#e6c79f" stroke="none" stroke-width="1" stroke-linecap="butt" stroke-linejoin="miter"/><path d="M268.931,190.688c7.631,-1.615 13.783,-7.318 17.65,-11.898c0,0.002 -0.002,0.002 -0.002,0.002c-0.033,0.046 -0.067,0.098 -0.1,0.143c-0.088,0.137 -0.184,0.27 -0.284,0.415l-0.045,0.063c-3.275,4.67 -11.038,13.985 -21.113,14.382c0,0 -4.387,-3.942 -4.06,-9.56c0.425,1.492 1.095,2.8 1.782,3.862c1.325,2.05 3.785,3.096 6.171,2.591" fill="#add8e3" stroke="none" stroke-width="1" stroke-linecap="butt" stroke-linejoin="miter"/><path d="M270.395,205.7c0,19.693 -12.021,19.393 -26.851,19.393c-14.832,0 -26.853,0.3 -26.853,-19.393c0,-19.692 12.021,-51.259 26.853,-51.259c14.83,0 26.852,31.567 26.852,51.259" fill="#cceff7" stroke="none" stroke-width="1" stroke-linecap="butt" stroke-linejoin="miter"/><path d="M275.945,170.413c2.039,-1.23 4.079,-3.13 5.852,-5.045c-3.515,14.228 -20.503,24.175 -40.103,22.733c-14.21,-1.041 -26.187,-7.808 -32.235,-17.011c7.98,6.355 11.572,4.913 11.572,4.913c0.50796,0.4997 0.98485,1.03002 1.428,1.588c4.918,-12.658 12.535,-23.15 21.085,-23.15c8.355,0 15.821,10.027 20.746,22.3c0.032,-0.036 0.059,-0.073 0.094,-0.111c0,0 2.5,-0.743 11.561,-6.217M253.436,200.793c0,-5.464 -4.43,-9.894 -9.894,-9.894c-5.465,0 -9.891,4.43 -9.891,9.893c0,5.464 4.426,9.894 9.891,9.894c5.464,0 9.894,-4.43 9.894,-9.893" fill="#add8e3" stroke="none" stroke-width="1" stroke-linecap="butt" stroke-linejoin="miter"/><path d="M243.543,203.716c10.29,0 19.645,-0.389 26.628,-2.924c0.147,1.697 0.224,3.34 0.224,4.907c0,19.695 -12.022,19.395 -26.852,19.395c-14.83,0 -26.851,0.3 -26.851,-19.395c0.00334,-1.63808 0.07707,-3.27525 0.221,-4.907c6.985,2.535 16.34,2.924 26.63,2.924" fill="#cceff7" stroke="none" stroke-width="1" stroke-linecap="butt" stroke-linejoin="miter"/><path d="M243.543,220.272c13.943,0 25.403,-1.509 26.723,-18.059c0.07997,1.16067 0.12299,2.32359 0.129,3.487c0,19.693 -12.022,19.393 -26.852,19.393c-14.83,0 -26.852,0.3 -26.852,-19.393c0.00616,-1.16337 0.04851,-2.32627 0.127,-3.487c1.322,16.55 12.78,18.059 26.725,18.059" fill="#add8e3" stroke="none" stroke-width="1" stroke-linecap="butt" stroke-linejoin="miter"/><path d="M273.936,208.118c4.178,3.049 6.065,8.342 4.826,13.364c-1.55,6.288 -7.561,8.453 -13.983,7.641c-9.392,-1.186 -15.885,-4.141 -15.885,-4.141c8.763,-19.839 21.402,-19.282 21.402,-19.282c1.24813,0.75235 2.46263,1.55913 3.64,2.418" fill="#add8e3" stroke="none" stroke-width="1" stroke-linecap="butt" stroke-linejoin="miter"/><path d="M278.333,213.942c0,0 2.977,5.263 1.082,15.282c-0.617,3.26 -5.007,6.71 -8.298,7.101c-4.404,0.525 -9.76,-1.19 -8.93,-7.127c0,0 0.206,-9.348 16.146,-15.256" fill="#add8e3" stroke="none" stroke-width="1" stroke-linecap="butt" stroke-linejoin="miter"/><path d="M265.596,237.85c-3.982,-1.364 -3.22,-7.413 0.988,-7.698c0.187,-0.01 0.382,-0.018 0.582,-0.022c6.431,-0.08 11.136,-4.36 14.551,-2.848c3.414,1.508 6.54,11.424 -4.506,11.972c-5.187,0.258 -9.012,-0.514 -11.615,-1.404" fill="#788d91" stroke="none" stroke-width="1" stroke-linecap="butt" stroke-linejoin="miter"/><path d="M213.029,154.197c-0.14992,2.05234 -1.1093,3.96098 -2.66693,5.30574c-1.55763,1.34476 -3.58582,2.01539 -5.63807,1.86426c-4.27275,-0.31397 -7.48197,-4.03225 -7.168,-8.305c0.31397,-4.27275 4.03225,-7.48197 8.305,-7.168c4.27174,0.31434 7.48045,4.03112 7.168,8.303" data-paper-data="{&quot;origPos&quot;:null}" fill="#e6b371" stroke="none" stroke-width="1" stroke-linecap="butt" stroke-linejoin="miter"/><path d="M209.997,153.976c-0.19137,2.59933 -2.45367,4.55137 -5.053,4.36c-2.59933,-0.19137 -4.55137,-2.45367 -4.36,-5.053c0.19137,-2.59933 2.45367,-4.55137 5.053,-4.36c2.59933,0.19137 4.55137,2.45367 4.36,5.053" data-paper-data="{&quot;origPos&quot;:null}" fill="#b9843f" stroke="none" stroke-width="1" stroke-linecap="butt" stroke-linejoin="miter"/><path d="M290.14799,159.864c-0.31536,4.27288 -4.03399,7.48164 -8.307,7.168c-2.78876,-0.17141 -5.26993,-1.82916 -6.49567,-4.33996c-1.22574,-2.51081 -1.00667,-5.48677 0.57351,-7.79102c1.58018,-2.30426 4.27735,-3.58082 7.06115,-3.34202c4.273,0.311 7.48,4.031 7.168,8.305" data-paper-data="{&quot;origPos&quot;:null}" fill="#e6b371" stroke="none" stroke-width="1" stroke-linecap="butt" stroke-linejoin="miter"/><path d="M287.114,159.37726c-0.08559,1.70977 -1.09061,3.23903 -2.6261,3.99592c-1.53549,0.7569 -3.36051,0.62266 -4.76873,-0.35076c-1.40822,-0.97342 -2.17867,-2.63327 -2.01317,-4.33716c0.24722,-2.55132 2.48625,-4.43851 5.0426,-4.25021c2.55635,0.1883 4.49468,2.3832 4.3654,4.94321" data-paper-data="{&quot;origPos&quot;:null}" fill="#b9843f" stroke="none" stroke-width="1" stroke-linecap="butt" stroke-linejoin="miter"/><path d="M217.703,140.693c0,0 -9.528,-7.703 -16.973,-3.89c0,0 7.853,-9.175 17.78,0.678z" fill="#87623e" stroke="none" stroke-width="1" stroke-linecap="butt" stroke-linejoin="miter"/><path d="M216.662,136.916c-1.975,-13.848 10.075,-14.663 10.075,-14.663c-7.505,3.694 -7.015,15.935 -7.015,15.935z" fill="#87623e" stroke="none" stroke-width="1" stroke-linecap="butt" stroke-linejoin="miter"/><path d="M217.89,139.184c0,0 -10.143,-7.076 -5.798,-18.113c0,0 0.079,9.518 10.347,13.958l-4.548,4.155z" fill="#87623e" stroke="none" stroke-width="1" stroke-linecap="butt" stroke-linejoin="miter"/><path d="M220.858,129.983c-0.41,1.315 -0.679,2.623 -0.847,3.793c0.77971,0.47211 1.59058,0.89074 2.427,1.253l-2.724,2.489c-0.001,0.425 0.007,0.67 0.007,0.67l-0.51,-0.212l-1.072,0.98l-0.436,1.737c0,0 -2.745,-2.217 -6.439,-3.687c2.924,-2.998 6.192,-5.373 9.594,-7.023" fill="#61462d" stroke="none" stroke-width="1" stroke-linecap="butt" stroke-linejoin="miter"/><path d="M282.409,159.55874c-1.19,16.208 -19.419,28.083 -40.715,26.517c-21.295,-1.567 -37.594,-15.973 -36.404,-32.184c1.193,-16.208 19.423,-28.081 40.717,-26.518c21.295,1.567 37.595,15.973 36.402,32.185" data-paper-data="{&quot;origPos&quot;:null}" fill="#e6c79f" stroke="none" stroke-width="1" stroke-linecap="butt" stroke-linejoin="miter"/><path d="M248.81198,176.194c-0.13,1.747 -2.87,2.969 -6.124,2.73c-3.252,-0.24 -5.785,-1.85 -5.655,-3.594c0.128,-1.745 2.868,-2.965 6.12,-2.729c3.253,0.239 5.785,1.849 5.658,3.593M252.52398,131.444c0.168,2.076 -6.08,4.271 -13.955,4.906c-7.875,0.635 -14.393,-0.533 -14.562,-2.61c-0.166,-2.075 6.08,-4.275 13.957,-4.908c7.873,-0.634 14.392,0.535 14.56,2.611" data-paper-data="{&quot;origPos&quot;:null}" fill="#ffdeba" stroke="none" stroke-width="1" stroke-linecap="butt" stroke-linejoin="miter"/><path d="M252.513,146.01c1.841,-2.26 4.988,-3.632 8.453,-3.377c5.258,0.385 9.252,4.37 8.92,8.895M236.808,144.855c-1.49,-2.503 -4.405,-4.322 -7.868,-4.575c-5.258,-0.387 -9.792,2.97 -10.123,7.496" fill="none" stroke="#a37c6b" stroke-width="1.341" stroke-linecap="round" stroke-linejoin="round"/><path d="M227.733,163.733c-3.205,-6.554 2.633,-9.657 6.608,-7.042c3.975,2.617 7.165,3.872 9.197,4.022c2.035,0.148 5.373,-0.63 9.688,-2.634c4.315,-2.006 9.637,1.917 5.507,7.93c-4.129,6.012 -15.955,5.052 -15.955,5.052c0,0 -11.84,-0.777 -15.045,-7.328" fill="#bf4545" stroke="none" stroke-width="1" stroke-linecap="butt" stroke-linejoin="miter"/><path d="M254.784,160.801c0.03,1.39 -3.647,1.73 -4.449,0.565c-0.298,-0.431 -0.323,-1.193 -0.241,-1.98c1.06096,-0.39267 2.10549,-0.82836 3.131,-1.306c0.21,-0.097 0.422,-0.179 0.637,-0.249c0.443,1.02 0.908,2.247 0.922,2.97" fill="#ffffff" stroke="none" stroke-width="1" stroke-linecap="butt" stroke-linejoin="miter"/><path d="M243.117,166.465c0,0 6.182,0.406 10.82,3.105c-4.983,1.991 -11.158,1.491 -11.158,1.491c0,0 -6.182,-0.406 -10.822,-3.105c4.983,-1.993 11.16,-1.491 11.16,-1.491" fill="#ff5c5c" stroke="none" stroke-width="1" stroke-linecap="butt" stroke-linejoin="miter"/><path d="M244.331,149.927c5.29,0.389 3.743,3.389 3.743,3.389c0,0 0.3,-2.034 -3.821,-2.339c-4.122,-0.3 -4.122,1.757 -4.122,1.757c0,0 -1.09,-3.195 4.2,-2.807" fill="#e3ac94" stroke="none" stroke-width="1" stroke-linecap="butt" stroke-linejoin="miter"/><path d="M241.75,152.042c0.315,-0.233 0.693,-0.261 0.845,-0.06c0.151,0.204 0.02,0.56 -0.297,0.794c-0.315,0.236 -0.695,0.265 -0.845,0.061c-0.153,-0.205 -0.018,-0.558 0.297,-0.795M246.577,152.398c0.277,0.278 0.355,0.648 0.175,0.83c-0.178,0.177 -0.55,0.097 -0.827,-0.183c-0.276,-0.279 -0.356,-0.65 -0.176,-0.83c0.18,-0.177 0.55,-0.097 0.828,0.183" fill="#e3ac94" stroke="none" stroke-width="1" stroke-linecap="butt" stroke-linejoin="miter"/><path d="M213.885,149.74c3.08,0.225 5.43,2.424 5.247,4.907c-0.182,2.483 -2.829,4.313 -5.907,4.087c-3.082,-0.229 -5.43,-2.424 -5.248,-4.907c0.181,-2.483 2.825,-4.313 5.908,-4.087M274.478,154.192c3.081,0.225 5.431,2.423 5.246,4.905c-0.181,2.483 -2.827,4.313 -5.907,4.088c-3.08,-0.228 -5.429,-2.425 -5.248,-4.908c0.182,-2.482 2.827,-4.312 5.909,-4.085" fill="#ffa6a6" stroke="none" stroke-width="1" stroke-linecap="butt" stroke-linejoin="miter"/><path d="M213.05,208.118c1.17779,-0.85925 2.39298,-1.66604 3.642,-2.418c0,0 12.636,-0.557 21.4,19.282c0,0 -6.494,2.955 -15.884,4.141c-6.425,0.812 -12.435,-1.353 -13.985,-7.641c-1.24,-5.022 0.649,-10.315 4.827,-13.364" fill="#add8e3" stroke="none" stroke-width="1" stroke-linecap="butt" stroke-linejoin="miter"/><path d="M208.652,213.942c15.94,5.908 16.147,15.256 16.147,15.256c0.832,5.937 -4.527,7.652 -8.928,7.127c-3.295,-0.391 -7.682,-3.841 -8.299,-7.101c-1.896,-10.019 1.08,-15.282 1.08,-15.282" fill="#add8e3" stroke="none" stroke-width="1" stroke-linecap="butt" stroke-linejoin="miter"/><path d="M221.388,237.85c-2.601,0.89 -6.428,1.662 -11.613,1.404c-11.045,-0.548 -7.92,-10.464 -4.507,-11.972c3.415,-1.512 8.122,2.768 14.552,2.848c0.202,0.004 0.395,0.012 0.582,0.022c4.208,0.285 4.968,6.334 0.986,7.698" fill="#788d91" stroke="none" stroke-width="1" stroke-linecap="butt" stroke-linejoin="miter"/><path d="M199.093,157.846c-0.59,0.804 -1.728,0.979 -2.53,0.392c-0.8041,-0.59319 -0.97832,-1.72434 -0.39,-2.532l1.849,-2.521c0.59386,-0.80389 1.72528,-0.97764 2.533,-0.389c0.80324,0.5927 0.97624,1.72321 0.387,2.529l-1.849,2.521" data-paper-data="{&quot;origPos&quot;:null}" fill="#e6c79f" stroke="none" stroke-width="1" stroke-linecap="butt" stroke-linejoin="miter"/><path d="M189.464,164.079c-2.87906,-1.86534 -3.70084,-5.71144 -1.8355,-8.5905c1.86534,-2.87906 5.71144,-3.70084 8.5905,-1.8355c2.87934,1.86507 3.70157,5.71116 1.8365,8.5905c-1.86507,2.87934 -5.71116,3.70157 -8.5905,1.8365" fill="#ffc2a6" stroke="none" stroke-width="1" stroke-linecap="butt" stroke-linejoin="miter"/><path d="M195.46,164.49893c-3.086,1.575 -6.901,0.34 -8.475,-2.747l-1.678,-3.29c-1.577,-3.084 -0.342,-6.9 2.747,-8.473c3.085,-1.577 6.898,-0.342 8.475,2.745l1.678,3.291c1.577,3.085 0.34,6.9 -2.746,8.474" data-paper-data="{&quot;origPos&quot;:null}" fill="#e6c79f" stroke="none" stroke-width="1" stroke-linecap="butt" stroke-linejoin="miter"/></g></g></svg>