<svg version="1.1" xmlns="http://www.w3.org/2000/svg" xmlns:xlink="http://www.w3.org/1999/xlink" width="87.55847" height="117.91642" viewBox="0,0,87.55847,117.91642"><g transform="translate(-197.168,-120.576)"><g data-paper-data="{&quot;isPaintingLayer&quot;:true}" fill-rule="evenodd" stroke="none" stroke-width="1" stroke-linecap="butt" stroke-linejoin="miter" stroke-miterlimit="10" stroke-dasharray="" stroke-dashoffset="0" style="mix-blend-mode: normal"><path d="M260.651,232.409h-9.758c-0.072,0.261 0.01,0.6 0.198,0.877c0.575,0.901 1.578,1.615 2.438,2.219c1.323,0.913 2.999,1.379 4.453,2.083c1.336,0.568 3.065,1.578 4.26,0.248c1.568,-1.894 0.229,-4.296 -1.592,-5.426zM239.795,232.409h9.756c0.073,0.261 -0.012,0.6 -0.192,0.877c-0.582,0.901 -1.584,1.615 -2.442,2.219c-1.325,0.913 -3.001,1.379 -4.468,2.083c-1.324,0.568 -3.062,1.578 -4.244,0.248c-1.573,-1.894 -0.24,-4.296 1.59,-5.426z" fill="#333433"/><path d="M281.845,171.718c0,0 -4.476,9.45 -7.514,10.56c-2.193,0.803 -9.329,-1.942 -10.827,-2.534c2.634,10.34 2.94,25.914 2.94,25.914h0.016c0,0 0.585,15.14 -1.93,16.032l-9.962,-13.96c-3.398,-0.405 -4.423,-4.655 -4.423,-4.655c0,0 -0.91,4.25 -4.762,4.655l-9.292,13.96c-2.417,-0.85 -1.954,-16.02 -1.954,-16.02c0,0 0.311,-15.572 2.947,-25.91c-1.537,0.612 -8.625,3.321 -10.805,2.526c-3.041,-1.112 -7.513,-10.562 -7.513,-10.562l4.844,-2.402l5.5,6.636l11.92,-4.34v-0.008c2.112,-1.306 7.404,-1.552 7.404,-1.552l1.778,0.047h0.157l1.776,-0.024c0,0 5.316,0.213 7.426,1.521l11.918,4.357l5.503,-6.637z" fill="#343434"/><path d="M262.845,205.68l-1.994,26.793h-10.1l-0.382,-19.375h-0.295l-0.38,19.375h-10.103l-1.994,-26.792z" fill="#4f4f4f"/><path d="M223.228,164.888c1.133,2.705 0.542,5.538 -1.325,6.331c-1.867,0.8 -4.304,-0.742 -5.447,-3.45c-1.14,-2.698 -0.55,-5.53 1.325,-6.325c1.871,-0.799 4.31,0.743 5.447,3.444" data-paper-data="{&quot;origPos&quot;:null}" fill="#ffdc83"/><path d="M223.062,168.004l-2.287,0.405l-4.982,-33.586l0.59,-0.106z" fill="#8c521a"/><path d="M224.564,166.12c0.465,-2.396 -0.047,-4.515 -1.153,-4.727c-1.099,-0.212 -2.371,1.552 -2.826,3.948c-0.467,2.392 0.052,4.509 1.155,4.723c1.096,0.219 2.368,-1.548 2.824,-3.944M277.38,164.888c1.136,-2.701 3.582,-4.243 5.445,-3.444c1.867,0.795 2.459,3.627 1.327,6.325c-1.14,2.708 -3.574,4.25 -5.45,3.45c-1.871,-0.793 -2.465,-3.626 -1.322,-6.331" data-paper-data="{&quot;origPos&quot;:null}" fill="#ffdc83"/><path d="M276.042,166.12c-0.465,-2.396 0.053,-4.515 1.153,-4.727c1.099,-0.212 2.369,1.552 2.835,3.948c0.458,2.392 -0.06,4.509 -1.16,4.723c-1.094,0.219 -2.364,-1.548 -2.828,-3.944" data-paper-data="{&quot;origPos&quot;:null}" fill="#ffdc83"/><path d="M250.144,203.102c0,0 1.028,4.194 4.426,4.655h-9.188c3.854,-0.411 4.762,-4.655 4.762,-4.655" fill="#ffffff"/><path d="M244.802,206.222h11.098v3.538h-11.098z" fill="#4f4f4f"/><path d="M281.845,171.718c0,0 -4.476,9.45 -7.514,10.56c-2.193,0.803 -9.329,-1.942 -10.827,-2.534c2.634,10.34 2.94,25.914 2.94,25.914h0.016l0.063,2.072h-11.955c-3.398,-0.405 -4.423,-4.655 -4.423,-4.655c0,0 -0.91,4.25 -4.762,4.655h-11.286l0.04,-2.06c0,0 0.311,-15.572 2.947,-25.91c-1.537,0.612 -8.625,3.321 -10.805,2.526c-3.041,-1.112 -7.513,-10.562 -7.513,-10.562l4.844,-2.402l5.5,6.636l11.92,-4.34v-0.008c2.112,-1.306 7.404,-1.552 7.404,-1.552l1.778,0.047h0.157l1.776,-0.024c0,0 5.316,0.213 7.426,1.521l11.918,4.357l5.503,-6.637z" fill="#343434"/><path d="M250.861,188.909l-0.532,0.799l-0.767,-1.104l-1.952,-4.487l-2.281,-13.733c1.675,-0.25 3.105,-0.313 3.105,-0.313l1.778,0.063h0.157l1.776,-0.047c0,0 1.606,0.063 3.395,0.33l-2.563,13.7l-2.116,4.793z" fill="#ffffff"/><path d="M250.424,175.662c-0.1616,0.00106 -0.31614,0.06641 -0.42946,0.18161c-0.11333,0.11521 -0.17614,0.27079 -0.17454,0.43239c0,0.334 0.267,0.61 0.604,0.61c0.33749,-0.00053 0.61171,-0.27252 0.615,-0.61c-0.00164,-0.33881 -0.27619,-0.61291 -0.615,-0.614M250.424,176.957c-0.37269,-0.0049 -0.67285,-0.30729 -0.675,-0.68c0.01398,-0.36351 0.31273,-0.65098 0.6765,-0.65098c0.36378,0 0.66252,0.28748 0.6765,0.65098c0,0.37477 -0.30323,0.6789 -0.678,0.68M250.424,179.672c-0.1616,0.00106 -0.31614,0.06641 -0.42946,0.18161c-0.11333,0.11521 -0.17614,0.27079 -0.17454,0.43239c0,0.332 0.267,0.609 0.604,0.609c0.33711,-0.00053 0.61117,-0.27192 0.615,-0.609c-0.00164,-0.33881 -0.27619,-0.61291 -0.615,-0.614M250.424,180.968c-0.37347,-0.00492 -0.67394,-0.3085 -0.675,-0.682c0,-0.374 0.31,-0.679 0.675,-0.679c0.37555,0 0.68,0.30445 0.68,0.68c0,0.37555 -0.30445,0.68 -0.68,0.68" fill="#666767"/><path d="M250.3,170.17c0,1.33 -3.593,4.016 -3.593,4.016l-0.03,-0.018c-0.236,0.205 -0.503,0.323 -0.823,0.268c-0.526,-0.091 -0.384,-0.358 -0.649,-0.744c-0.294,-0.383 -0.555,-0.497 -0.706,-1.025c-0.174,-0.69 -0.174,-1.426 -0.124,-2.12c2.043,-0.376 4.058,-0.461 4.058,-0.461l1.777,0.085h0.09" fill="#ffffff"/><path d="M244.412,170.576c-0.065,0.82 -0.033,1.501 0.117,2.075c0.107,0.362 0.26,0.53 0.445,0.722c0.085,0.091 0.168,0.183 0.25,0.305c0.104,0.124 0.144,0.246 0.179,0.346c0.079,0.197 0.121,0.321 0.455,0.376c0.283,0.05 0.536,-0.026 0.79,-0.256l0.029,-0.019l0.03,0.019c0.28,-0.22 3.5,-2.679 3.558,-3.94h-0.054l-1.778,-0.081c-0.023,0 -2.025,0.081 -4.021,0.453M246.016,174.483c-0.05742,0.00071 -0.11465,-0.0067 -0.17,-0.022c-0.373,-0.053 -0.435,-0.216 -0.506,-0.415c-0.0392,-0.11698 -0.09367,-0.22827 -0.162,-0.331c-0.093,-0.114 -0.178,-0.206 -0.253,-0.295c-0.192,-0.193 -0.352,-0.37 -0.459,-0.749c-0.15,-0.594 -0.188,-1.29 -0.125,-2.125v-0.029h0.028c1.34356,-0.23925 2.70096,-0.39289 4.064,-0.46l1.778,0.078h0.123v0.037c0,1.34 -3.463,3.93 -3.61,4.043l-0.017,0.016l-0.03,-0.022c-0.21,0.183 -0.435,0.274 -0.661,0.274" fill="#666767"/><path d="M255.801,172.89c-0.323,0.895 -0.85,1.283 -1.77,1.283l-0.074,0.013c0,0 -3.603,-2.685 -3.603,-4.015h0.014l1.776,-0.065c0,0 1.958,0.059 3.965,0.411c0.22,0.73 -0.063,1.73 -0.308,2.373" fill="#ffffff"/><path d="M250.393,170.2c0.054,1.281 3.35,3.791 3.568,3.952l0.07,-0.008c0.897,0 1.419,-0.383 1.734,-1.261c0.376,-0.997 0.48,-1.784 0.324,-2.337c-1.98,-0.346 -3.914,-0.405 -3.945,-0.411zM253.949,174.223l-0.014,-0.008c-0.146,-0.114 -3.605,-2.703 -3.605,-4.044v-0.036h0.038l1.776,-0.063c0.03,0 1.99,0.063 3.973,0.41h0.024l0.008,0.023c0.166,0.571 0.07,1.381 -0.317,2.402c-0.332,0.895 -0.88,1.302 -1.8,1.302z" fill="#666767"/><path d="M250.343,189.721c-4.211,-2.778 -6.766,-12.345 -6.766,-12.345l1.143,-2.214l-2.241,-0.57l-0.546,-3.41c1.183,-0.451 2.759,-0.728 4.055,-0.888c1.008,5.587 4.355,19.427 4.355,19.427" fill="#4f4f4f"/><path d="M250.3,189.721c0,0 3.352,-13.84 4.35,-19.427c1.314,0.16 2.885,0.437 4.07,0.888l-0.552,3.41l-2.233,0.57l1.133,2.214c0,0 -2.557,9.567 -6.768,12.344M251.072,192.982c-0.00165,0.35488 -0.2901,0.64154 -0.64499,0.64099c-0.35489,-0.00055 -0.64245,-0.2881 -0.643,-0.64299c-0.00055,-0.35489 0.28611,-0.64334 0.64099,-0.64499c0.352,0 0.647,0.283 0.647,0.647M251.072,195.849c0,0.36 -0.295,0.655 -0.647,0.655c-0.35898,0 -0.65,-0.29101 -0.65,-0.65c0,-0.35898 0.29102,-0.65 0.65,-0.65c0.35587,0.00163 0.64426,0.28913 0.647,0.645M251.072,198.797c-0.00382,0.35509 -0.2919,0.64138 -0.647,0.643c-0.35788,0 -0.648,-0.29012 -0.648,-0.648c0,-0.35788 0.29012,-0.648 0.648,-0.648c0.352,0 0.647,0.291 0.647,0.653" fill="#4f4f4f"/><path d="M273.251,149.123c1.194,0.765 1.972,2.079 1.972,3.557c0,2.368 -1.978,4.284 -4.424,4.284l-0.21,-0.002c-3.958,7.139 -11.547,11.961 -20.255,11.961c-8.716,0 -16.308,-4.831 -20.268,-11.984c-0.162,0.023 -0.324,0.025 -0.49,0.025c-2.441,0 -4.427,-1.916 -4.427,-4.284c0,-1.592 0.9,-2.979 2.242,-3.718c-0.153,-1.091 -0.24,-2.211 -0.24,-3.341c0,-12.873 10.383,-23.315 23.183,-23.315c12.8,0 23.182,10.442 23.182,23.315c0,1.187 -0.091,2.357 -0.265,3.502" data-paper-data="{&quot;origPos&quot;:null}" fill="#ffdc83"/><path d="M243.229,146.096c-0.772,-0.174 -0.908,-1.201 -3.386,-0.74c-0.779,0.18 -2.417,1.156 -2.732,1.808c-0.316,0.652 -0.088,-2.392 2.457,-3.522c1.835,-0.675 2.457,-0.642 3.977,-0.642c1.52,0 1.987,0.907 1.766,1.65c0,0 -0.503,1.803 -2.082,1.446zM257.134,146.096c0.772,-0.174 0.908,-1.201 3.386,-0.74c0.779,0.18 2.417,1.156 2.732,1.808c0.316,0.652 0.087,-2.392 -2.457,-3.522c-1.835,-0.675 -2.457,-0.642 -3.977,-0.642c-1.52,0 -1.987,0.907 -1.766,1.65c0,0 0.503,1.803 2.082,1.446z" fill="#ad6921"/><path d="M243,152c0,1.657 -0.895,3 -2,3c-1.105,0 -2,-1.343 -2,-3c0,-1.657 0.895,-3 2,-3c1.105,0 2,1.343 2,3M261,152c0,1.657 -0.895,3 -2,3c-1.105,0 -2,-1.343 -2,-3c0,-1.657 0.895,-3 2,-3c1.105,0 2,1.343 2,3" fill="#343434"/><path d="M250.02,155.069c-1.125,0.153 -3.02,1.834 -3.02,1.834c0,0 0.207,-1.009 0.503,-1.299c0.8,-1.156 2.487,-1.604 2.487,-1.604c0,0 2.173,0.703 2.65,1.588c0.443,0.824 0.34,1.238 0.34,1.238c0,0 -2.121,-1.871 -2.96,-1.756z" fill="#eeac6c"/><path d="M243.2,158.696c0,0 6.897,3.208 13.172,-0.397c0,0 -1.39,5.47 -5.95,5.561c-4.115,0.122 -4.984,-1.492 -5.477,-1.956c-0.492,-0.463 -1.42,-1.772 -1.745,-3.208" fill="#eeac6c"/><path d="M274.435,142.581c0.038,2.74 -0.919,8.66 -2.77,12.19c0,0 -4.557,-12.971 -8.317,-15.025c-4.588,-2.516 -16.688,1.104 -20.788,-2.156c-0.685,-0.537 -0.608,-1.761 -0.608,-1.761c0,0 -0.779,1.567 -1.168,1.997c-1.982,2.274 -7.142,5.569 -9.583,7.34c-1.966,1.414 -2.068,1.402 -1.625,9.605c0,0 -3.618,-7.467 -3.414,-12.448c0.057,-1.436 0.749,-4.617 1.875,-7.853c4.08,-8.23 12.533,-13.893 22.307,-13.894c11.214,0 20.702,7.46 23.815,17.72c0.15976,1.42315 0.25153,2.8531 0.275,4.285" fill="#ad6921"/><path d="M248.526,171.602c-1.08,0 -1.962,-2.339 -1.962,-3.409h7.712c0,1.07 -0.88,3.409 -1.96,3.409h-3.79" data-paper-data="{&quot;origPos&quot;:null}" fill="#ffdc83"/><path d="M247.467,170.859c-0.441,-0.667 -0.817,-1.568 -0.883,-2.233c1.223,0.199 2.475,0.297 3.76,0.297c1.31069,0.00066 2.61907,-0.11006 3.911,-0.331l-0.01,0.02l-6.778,2.248" fill="#eeac6c"/><path d="M250.312,172.537c0,0 -3.121,3.951 -4.478,3.52c-1.22,-0.394 -1.293,-4.39 -0.263,-5.172c1.01,-0.759 4.74,1.652 4.74,1.652" fill="#343434"/><path d="M250.306,172.537c0,0 3.742,-2.411 4.745,-1.652c1.027,0.782 0.957,4.778 -0.273,5.172c-1.351,0.431 -4.472,-3.52 -4.472,-3.52" fill="#343434"/><path d="M250.847,172.75c0,0.409 -0.229,0.745 -0.518,0.745c-0.287,0 -0.528,-0.336 -0.528,-0.745c0,-0.413 0.241,-0.742 0.528,-0.742c0.29,0 0.518,0.33 0.518,0.742" fill="#343434"/><path d="M197.86,183.282c0,0 0.222,-0.32 -0.298,-0.73c5.72,-0.22 9.195,-2.945 12.484,-0.55c2.986,-2.863 6.918,-0.199 13.229,-0.646c0.526,0.616 0,0.976 0,0.976l-25.416,0.95z" fill="#d0d0d0"/><path d="M229.391,198.175l-26.843,-0.736l-5.38,-14.433l26.84,-1.202z" fill="#343434"/><path d="M216.568,236.86v-0.47h7.3l0.944,0.47z" fill="#333433"/><path d="M215.764,197.57h1.2v40.897h-1.2zM216.965,197.57h-1.2l-4.917,-12.163l1.137,-0.465zM215.177,236.795v-0.602l-5.851,-2.608h-1z" fill="#4f4f4f"/><path d="M215.765,238.467l-1.193,-0.677v-40.22h1.193zM209.65,185.407l4.923,12.163h1.191l-4.924,-12.153z" fill="#929091"/><path d="M215.765,238.468l-7.438,-3.947v-0.952l7.46,3.295z" fill="#929091"/><path d="M215.766,236.86h9.048v1.61h-9.048z" fill="#4f4f4f"/></g></g></svg>