<svg xmlns="http://www.w3.org/2000/svg" width="87.558" height="117.916"><g fill-rule="evenodd" stroke-miterlimit="10" data-paper-data="{&quot;isPaintingLayer&quot;:true}" style="mix-blend-mode:normal"><path fill="#333433" d="M63.483 111.833h-9.758c-.072.261.01.6.198.877.575.901 1.578 1.615 2.438 2.219 1.323.913 2.999 1.379 4.453 2.083 1.336.568 3.065 1.578 4.26.248 1.568-1.894.229-4.296-1.592-5.426zm-20.856 0h9.756c.073.261-.012.6-.192.877-.582.901-1.584 1.615-2.442 2.219-1.325.913-3.001 1.379-4.468 2.083-1.324.568-3.062 1.578-4.244.248-1.573-1.894-.24-4.296 1.59-5.426z"/><path fill="#343434" d="M84.677 51.142s-4.476 9.45-7.514 10.56c-2.193.803-9.329-1.942-10.827-2.534 2.634 10.34 2.94 25.914 2.94 25.914h.016s.585 15.14-1.93 16.032L57.4 87.154c-3.398-.405-4.423-4.655-4.423-4.655s-.91 4.25-4.762 4.655l-9.292 13.96c-2.417-.85-1.954-16.02-1.954-16.02s.311-15.572 2.947-25.91c-1.537.612-8.625 3.321-10.805 2.526-3.041-1.112-7.513-10.562-7.513-10.562l4.844-2.402 5.5 6.636 11.92-4.34v-.008c2.112-1.306 7.404-1.552 7.404-1.552l1.778.047h.157l1.776-.024s5.316.213 7.426 1.521l11.918 4.357 5.503-6.637z"/><path fill="#4f4f4f" d="m65.677 85.104-1.994 26.793h-10.1l-.382-19.375h-.295l-.38 19.375H42.423l-1.994-26.792z"/><path fill="#ffdc83" d="M26.06 44.312c1.133 2.705.542 5.538-1.325 6.331-1.867.8-4.304-.742-5.447-3.45-1.14-2.698-.55-5.53 1.325-6.325 1.871-.799 4.31.743 5.447 3.444" data-paper-data="{&quot;origPos&quot;:null}"/><path fill="#8c521a" d="m25.894 47.428-2.287.405-4.982-33.586.59-.106z"/><path fill="#ffdc83" d="M27.396 45.544c.465-2.396-.047-4.515-1.153-4.727-1.099-.212-2.371 1.552-2.826 3.948-.467 2.392.052 4.509 1.155 4.723 1.096.219 2.368-1.548 2.824-3.944m52.816-1.232c1.136-2.701 3.582-4.243 5.445-3.444 1.867.795 2.459 3.627 1.327 6.325-1.14 2.708-3.574 4.25-5.45 3.45-1.871-.793-2.465-3.626-1.322-6.331" data-paper-data="{&quot;origPos&quot;:null}"/><path fill="#ffdc83" d="M78.874 45.544c-.465-2.396.053-4.515 1.153-4.727 1.099-.212 2.369 1.552 2.835 3.948.458 2.392-.06 4.509-1.16 4.723-1.094.219-2.364-1.548-2.828-3.944" data-paper-data="{&quot;origPos&quot;:null}"/><path fill="#fff" d="M52.976 82.526s1.028 4.194 4.426 4.655h-9.188c3.854-.411 4.762-4.655 4.762-4.655"/><path fill="#4f4f4f" d="M47.634 85.646h11.098v3.538H47.634z"/><path fill="#343434" d="M84.677 51.142s-4.476 9.45-7.514 10.56c-2.193.803-9.329-1.942-10.827-2.534 2.634 10.34 2.94 25.914 2.94 25.914h.016l.063 2.072H57.4c-3.398-.405-4.423-4.655-4.423-4.655s-.91 4.25-4.762 4.655H36.929l.04-2.06s.311-15.572 2.947-25.91c-1.537.612-8.625 3.321-10.805 2.526-3.041-1.112-7.513-10.562-7.513-10.562l4.844-2.402 5.5 6.636 11.92-4.34v-.008c2.112-1.306 7.404-1.552 7.404-1.552l1.778.047h.157l1.776-.024s5.316.213 7.426 1.521l11.918 4.357 5.503-6.637z"/><path fill="#fff" d="m53.693 68.333-.532.799-.767-1.104-1.952-4.487-2.281-13.733c1.675-.25 3.105-.313 3.105-.313l1.778.063h.157l1.776-.047s1.606.063 3.395.33l-2.563 13.7-2.116 4.793z"/><path fill="#666767" d="M53.256 55.086a.608.608 0 0 0-.604.614c0 .334.267.61.604.61a.616.616 0 0 0 .615-.61.617.617 0 0 0-.615-.614m0 1.295a.684.684 0 0 1-.675-.68.677.677 0 0 1 1.353 0 .68.68 0 0 1-.678.68m0 2.715a.608.608 0 0 0-.604.614c0 .332.267.609.604.609a.616.616 0 0 0 .615-.609.617.617 0 0 0-.615-.614m0 1.296a.684.684 0 0 1-.675-.682c0-.374.31-.679.675-.679a.68.68 0 0 1 0 1.36"/><path fill="#fff" d="M53.132 49.594c0 1.33-3.593 4.016-3.593 4.016l-.03-.018c-.236.205-.503.323-.823.268-.526-.091-.384-.358-.649-.744-.294-.383-.555-.497-.706-1.025-.174-.69-.174-1.426-.124-2.12a33.288 33.288 0 0 1 4.058-.461l1.777.085h.09"/><path fill="#666767" d="M47.244 50c-.065.82-.033 1.501.117 2.075.107.362.26.53.445.722.085.091.168.183.25.305.104.124.144.246.179.346.079.197.121.321.455.376.283.05.536-.026.79-.256l.029-.019.03.019c.28-.22 3.5-2.679 3.558-3.94h-.054l-1.778-.081c-.023 0-2.025.081-4.021.453m1.604 3.907a.61.61 0 0 1-.17-.022c-.373-.053-.435-.216-.506-.415a1.402 1.402 0 0 0-.162-.331c-.093-.114-.178-.206-.253-.295-.192-.193-.352-.37-.459-.749-.15-.594-.188-1.29-.125-2.125v-.029h.028a32.219 32.219 0 0 1 4.064-.46l1.778.078h.123v.037c0 1.34-3.463 3.93-3.61 4.043l-.017.016-.03-.022c-.21.183-.435.274-.661.274"/><path fill="#fff" d="M58.633 52.314c-.323.895-.85 1.283-1.77 1.283l-.074.013s-3.603-2.685-3.603-4.015h.014l1.776-.065s1.958.059 3.965.411c.22.73-.063 1.73-.308 2.373"/><path fill="#666767" d="M53.225 49.624c.054 1.281 3.35 3.791 3.568 3.952l.07-.008c.897 0 1.419-.383 1.734-1.261.376-.997.48-1.784.324-2.337-1.98-.346-3.914-.405-3.945-.411zm3.556 4.023-.014-.008c-.146-.114-3.605-2.703-3.605-4.044v-.036h.038l1.776-.063c.03 0 1.99.063 3.973.41h.024l.008.023c.166.571.07 1.381-.317 2.402-.332.895-.88 1.302-1.8 1.302z"/><path fill="#4f4f4f" d="M53.175 69.145C48.964 66.367 46.409 56.8 46.409 56.8l1.143-2.214-2.241-.57-.546-3.41c1.183-.451 2.759-.728 4.055-.888 1.008 5.587 4.355 19.427 4.355 19.427"/><path fill="#4f4f4f" d="M53.132 69.145s3.352-13.84 4.35-19.427c1.314.16 2.885.437 4.07.888L61 54.016l-2.233.57L59.9 56.8s-2.557 9.567-6.768 12.344m.772 3.262a.644.644 0 1 1-1.288-.006.644.644 0 0 1 1.288.006m0 2.867c0 .36-.295.655-.647.655a.65.65 0 0 1 0-1.3.65.65 0 0 1 .647.645m0 2.948a.648.648 0 1 1-.647-.653c.352 0 .647.291.647.653"/><path fill="#ffdc83" d="M76.083 28.547c1.194.765 1.972 2.079 1.972 3.557 0 2.368-1.978 4.284-4.424 4.284l-.21-.002c-3.958 7.139-11.547 11.961-20.255 11.961-8.716 0-16.308-4.831-20.268-11.984a3.467 3.467 0 0 1-.49.025c-2.441 0-4.427-1.916-4.427-4.284 0-1.592.9-2.979 2.242-3.718a24.095 24.095 0 0 1-.24-3.341c0-12.873 10.383-23.315 23.183-23.315s23.182 10.442 23.182 23.315c0 1.187-.091 2.357-.265 3.502" data-paper-data="{&quot;origPos&quot;:null}"/><path fill="#ad6921" d="M46.061 25.52c-.772-.174-.908-1.201-3.386-.74-.779.18-2.417 1.156-2.732 1.808-.316.652-.088-2.392 2.457-3.522 1.835-.675 2.457-.642 3.977-.642s1.987.907 1.766 1.65c0 0-.503 1.803-2.082 1.446zm13.905 0c.772-.174.908-1.201 3.386-.74.779.18 2.417 1.156 2.732 1.808.316.652.087-2.392-2.457-3.522-1.835-.675-2.457-.642-3.977-.642s-1.987.907-1.766 1.65c0 0 .503 1.803 2.082 1.446z"/><path fill="#343434" d="M45.832 31.424c0 1.657-.895 3-2 3s-2-1.343-2-3 .895-3 2-3 2 1.343 2 3m18 0c0 1.657-.895 3-2 3s-2-1.343-2-3 .895-3 2-3 2 1.343 2 3"/><path fill="#eeac6c" d="M52.852 34.493c-1.125.153-3.02 1.834-3.02 1.834s.207-1.009.503-1.299c.8-1.156 2.487-1.604 2.487-1.604s2.173.703 2.65 1.588c.443.824.34 1.238.34 1.238s-2.121-1.871-2.96-1.756zM46.032 38.12s6.897 3.208 13.172-.397c0 0-1.39 5.47-5.95 5.561-4.115.122-4.984-1.492-5.477-1.956-.492-.463-1.42-1.772-1.745-3.208"/><path fill="#ad6921" d="M77.267 22.005c.038 2.74-.919 8.66-2.77 12.19 0 0-4.557-12.971-8.317-15.025-4.588-2.516-16.688 1.104-20.788-2.156-.685-.537-.608-1.761-.608-1.761s-.779 1.567-1.168 1.997c-1.982 2.274-7.142 5.569-9.583 7.34-1.966 1.414-2.068 1.402-1.625 9.605 0 0-3.618-7.467-3.414-12.448.057-1.436.749-4.617 1.875-7.853C34.949 5.664 43.402.001 53.176 0 64.39 0 73.878 7.46 76.991 17.72c.16 1.423.252 2.853.275 4.285"/><path fill="#ffdc83" d="M51.358 51.026c-1.08 0-1.962-2.339-1.962-3.409h7.712c0 1.07-.88 3.409-1.96 3.409h-3.79" data-paper-data="{&quot;origPos&quot;:null}"/><path fill="#eeac6c" d="M50.299 50.283c-.441-.667-.817-1.568-.883-2.233 1.223.199 2.475.297 3.76.297 1.31 0 2.62-.11 3.911-.331l-.01.02-6.778 2.248"/><path fill="#343434" d="M53.144 51.961s-3.121 3.951-4.478 3.52c-1.22-.394-1.293-4.39-.263-5.172 1.01-.759 4.74 1.652 4.74 1.652"/><path fill="#343434" d="M53.138 51.961s3.742-2.411 4.745-1.652c1.027.782.957 4.778-.273 5.172-1.351.431-4.472-3.52-4.472-3.52"/><path fill="#343434" d="M53.679 52.174c0 .409-.229.745-.518.745-.287 0-.528-.336-.528-.745 0-.413.241-.742.528-.742.29 0 .518.33.518.742"/><path fill="#d0d0d0" d="M.692 62.706s.222-.32-.298-.73c5.72-.22 9.195-2.945 12.484-.55 2.986-2.863 6.918-.199 13.229-.646.526.616 0 .976 0 .976l-25.416.95z"/><path fill="#343434" d="M32.223 77.599 5.38 76.863 0 62.43l26.84-1.202z"/><path fill="#333433" d="M19.4 116.284v-.47h7.3l.944.47z"/><path fill="#4f4f4f" d="M18.596 76.994h1.2v40.897h-1.2zm1.201 0h-1.2L13.68 64.831l1.137-.465zm-1.788 39.225v-.602l-5.851-2.608h-1z"/><path fill="#929091" d="m18.597 117.891-1.193-.677v-40.22h1.193zm-6.115-53.06 4.923 12.163h1.191l-4.924-12.153z"/><path fill="#929091" d="m18.597 117.892-7.438-3.947v-.952l7.46 3.295z"/><path fill="#4f4f4f" d="M18.598 116.284h9.048v1.61h-9.048z"/></g></svg>