<svg version="1.1" xmlns="http://www.w3.org/2000/svg" xmlns:xlink="http://www.w3.org/1999/xlink" width="104.64438" height="119.7494" viewBox="0,0,104.64438,119.7494"><g transform="translate(-188.13043,-120.1346)"><g data-paper-data="{&quot;isPaintingLayer&quot;:true}" fill-rule="evenodd" stroke="none" stroke-width="1" stroke-linecap="butt" stroke-linejoin="miter" stroke-miterlimit="10" stroke-dasharray="" stroke-dashoffset="0" style="mix-blend-mode: normal"><path d="M232.522,182.86c2.122,9.47 -4.604,25.032 -11.54,25.66c-58.6,5.317 -14.455,-44.28 11.54,-25.66" fill="#f5bab6"/><path d="M232.385,181.945c0.393,9.698 -21.709,8.058 -28.645,7.423c-25.061,-2.295 -12.51,-18.178 -12.159,-29.184c0.543,-16.877 14.19,-27.59 26.42,-12.287c9.18,11.485 10.447,29.975 14.383,34.048" fill="#ec7fa9"/><path d="M202.8,143.909c4.206,-3.705 12.068,1.484 12.796,7.501c2.033,16.798 -36.802,13.65 -12.796,-7.501" fill="#f5bab6"/><path d="M203.607,146.645c2.852,-2.513 8.186,1.007 8.68,5.09c1.379,11.395 -24.965,9.259 -8.68,-5.09" fill="#ec7fa9"/><path d="M204.594,149.998c1.196,-1.054 3.432,0.422 3.639,2.133c0.578,4.778 -10.466,3.882 -3.639,-2.133" fill="#f5bab6"/><path d="M203.102,198.357c1.216,2.47 -2.218,5.56 -5.145,5.15c-8.171,-1.147 -1.8,-19.246 5.145,-5.15" fill="#ec898c"/><path d="M201.71,198.397c0.826,1.674 -1.504,3.772 -3.49,3.493c-5.542,-0.778 -1.22,-13.055 3.49,-3.493" fill="#ec7fa9"/><path d="M200.007,198.445c0.346,0.702 -0.63,1.581 -1.463,1.464c-2.324,-0.326 -0.512,-5.473 1.463,-1.464" fill="#ec898c"/><path d="M248.382,182.86c25.996,-18.62 70.14,30.977 11.54,25.66c-6.936,-0.628 -13.662,-16.19 -11.54,-25.66" fill="#f5bab6"/><path d="M248.52,181.945c3.935,-4.073 5.203,-22.563 14.383,-34.048c12.23,-15.303 25.877,-4.59 26.42,12.287c0.353,11.005 12.903,26.888 -12.158,29.184c-6.936,0.635 -29.037,2.274 -28.645,-7.423" fill="#ec7fa9"/><path d="M278.104,143.909c24.006,21.151 -14.829,24.299 -12.796,7.501c0.728,-6.017 8.59,-11.206 12.796,-7.501" fill="#f5bab6"/><path d="M277.298,146.645c16.285,14.349 -10.06,16.485 -8.68,5.09c0.494,-4.083 5.827,-7.603 8.68,-5.09" fill="#ec7fa9"/><path d="M276.311,149.998c6.827,6.015 -4.218,6.911 -3.64,2.133c0.208,-1.711 2.443,-3.187 3.639,-2.133" fill="#f5bab6"/><path d="M277.802,198.357c6.944,-14.096 13.316,4.003 5.146,5.15c-2.927,0.41 -6.362,-2.68 -5.146,-5.15" fill="#ec898c"/><path d="M279.193,198.397c4.71,-9.562 9.034,2.715 3.49,3.493c-1.985,0.279 -4.315,-1.819 -3.49,-3.493" fill="#ec7fa9"/><path d="M280.897,198.445c1.974,-4.009 3.787,1.138 1.464,1.464c-0.834,0.117 -1.81,-0.762 -1.464,-1.464" fill="#ec898c"/><path d="M229.766,174.425c0.006,-0.004 11.748,1.796 16.524,0.054c2.383,-0.869 1.47,2.266 -1.377,5.562c-2.212,2.561 -1.626,6.802 -8.752,3.665c-2.297,-1.012 -6.265,-5.175 -6.302,-7.809c0,-0.007 -0.608,-1.127 -0.093,-1.472" data-paper-data="{&quot;origPos&quot;:null}" fill="#795b4d"/><path d="M255.99,170.81c2.592,-0.992 13.804,-7.167 16.06,-9.397c0.688,-0.68 1.42,-2.746 1.98,-3.292c0.397,-0.637 0.767,-1.282 0.924,-1.958c0.4,-1.733 0.785,-1.443 1.201,-0.94c0.243,0.293 -0.07,2.026 -0.26,3.12c0.87,-0.305 3.005,-1.988 5.42,-2.66c1.027,0.56 -3.357,2.933 -2.917,2.844c1.171,-0.238 3.704,-2.06 4.55,-1.637c1.233,0.618 -3.5,1.756 -4.17,2.893c-0.002,0.004 4.203,-1.777 4.448,-0.813c0.021,0.084 -0.124,0.201 -0.578,0.39c-0.639,0.263 -3.044,1.318 -3.484,1.503c0.878,-0.102 1.562,-0.193 2.394,-0.096c2.064,0.24 -1.97,1.122 -2.422,1.215c-1.477,0.308 -4.149,1.38 -5.363,2.358c-4.939,5.79 -16.633,11.25 -20.774,14.633c-3.794,3.1 -2.29,0.675 -2.482,-5.008c-0.06,-1.738 3.193,-2.282 5.472,-3.154" data-paper-data="{&quot;origPos&quot;:null}" fill="#795b4d"/><path d="M260.734,159.644c-0.11,19.054 -43.14,24.2 -42.926,-2.585c0.163,-20.506 43.076,-23.51 42.926,2.585" data-paper-data="{&quot;origPos&quot;:null}" fill="#795b4d"/><path d="M226.186,156.477c2.788,-0.11 3.77,3.255 2.664,5.055c-1.131,1.84 -4.399,2.09 -5.751,-0.702c-1.353,-2.793 2.005,-4.311 3.087,-4.353" fill="#fefefe"/><path d="M229.317,159.93c0.004,0.018 -0.985,-1.501 -1.05,-1.566c-2.36,-2.366 -5.646,1.686 -7.478,-0.77c-0.645,-0.864 0.323,1.011 1.801,-0.107c1.676,-1.268 4.505,-1.88 5.96,0.073c0.725,0.971 0.617,1.664 0.767,2.37" fill="#210001"/><path d="M225.772,157.552c2.002,-0.078 2.707,2.337 1.913,3.629c-0.813,1.322 -3.159,1.501 -4.13,-0.504c-0.971,-2.005 1.44,-3.095 2.217,-3.125" fill="#231916"/><path d="M250.047,155.545c1.082,-0.041 4.547,1.21 3.414,4.1c-1.133,2.889 -4.41,2.895 -5.68,1.148c-1.241,-1.708 -0.522,-5.139 2.266,-5.247" fill="#fefefe"/><path d="M249.826,156.889c0.747,-0.028 3.138,0.835 2.356,2.83c-0.783,1.993 -3.044,1.997 -3.92,0.791c-0.857,-1.178 -0.36,-3.545 1.564,-3.62" fill="#231916"/><path d="M247.006,159.202c0.035,-0.65 0.074,-1.201 0.583,-2.167c1.021,-1.94 3.387,-1.84 5.052,-0.95c1.469,0.785 2.067,-1.017 1.615,-0.159c-1.286,2.44 -4.769,-0.697 -6.535,1.737c-0.05,0.067 -0.716,1.555 -0.715,1.539" fill="#210001"/><path d="M239.505,159.202c4.153,-0.3 4.436,3.956 1.404,5.49c-1.755,0.889 1.358,-0.367 0.881,-3.162c-0.477,-2.798 -3.271,-2.256 -2.285,-2.328" fill="#f1c28c"/><path d="M229.006,152.075c-1.798,-1.36 -4.262,-1.262 -5.454,0.86c-0.215,0.382 0.115,0.636 1.216,-0.02c0.936,-0.557 2.324,-0.846 3.398,-0.637c0.298,0.058 0.648,0.39 0.912,0.102c-0.025,-0.155 0.083,-0.188 -0.072,-0.305M246.909,151.238c1.687,-1.496 4.152,-1.59 5.504,0.433c0.243,0.365 -0.066,0.642 -1.214,0.075c-0.976,-0.483 -2.383,-0.663 -3.437,-0.371c-0.292,0.08 -0.616,0.44 -0.901,0.173c0.012,-0.157 -0.097,-0.18 0.048,-0.31" data-paper-data="{&quot;origPos&quot;:null}" fill="#231916"/><path d="M226.668,158.86c0.777,-0.03 1.05,0.907 0.742,1.409c-0.315,0.513 -1.225,0.582 -1.602,-0.196c-0.378,-0.779 0.558,-1.202 0.86,-1.214M249.8,158.282c0.778,-0.03 1.051,0.907 0.743,1.41c-0.315,0.513 -1.226,0.582 -1.603,-0.196c-0.377,-0.779 0.559,-1.202 0.86,-1.214" fill="#fefefe"/><path d="M243.399,166.958c-0.134,-0.037 -0.053,1.48 -0.69,2.815c-1.482,3.107 -7.07,2.565 -7.425,-1.775c-0.023,-0.282 9.476,-0.672 8.115,-1.04" fill="#ee8785"/><path d="M241.168,171.051c-0.408,0.29 -1.012,0.684 -1.65,0.7c-0.626,0.014 -1.22,-0.259 -1.69,-0.53c0.475,-1.365 2.948,-1.574 3.34,-0.17" fill="#d76b6c"/><path d="M252.692,164.741c0.012,1.65 -3.338,0.987 -3.408,0.475c-0.249,-1.811 3.4,-1.512 3.408,-0.476M228.453,165.686c0.012,1.651 -3.337,0.987 -3.408,0.476c-0.249,-1.812 3.4,-1.512 3.408,-0.476" fill="#ec7fa9"/><path d="M256.445,169.04c0.262,-3.988 -0.025,-22.121 -4.865,-24.36c0.078,1.427 0.094,1.267 0.792,3.78c-6.505,0.982 -24.471,2.734 -29.132,1.654c0.36,-1.737 0.597,-3.74 1.593,-5.125c-5.9,9.344 -4.618,17.725 -0.313,26.535c-0.768,-0.074 -2.134,1.339 -3.684,1.151c-1.032,-0.125 -2.106,-1.888 -3.29,-1.878c-0.897,0.008 -2.194,1.4 -2.956,1.135c-1.317,-0.46 -0.705,-1.966 -1.169,-3.356c-0.273,-0.82 -1.892,-1.488 -1.886,-2.181c0.015,-1.555 2.204,-1.58 2.025,-2.333c-0.204,-0.862 -1.768,-1.563 -1.763,-2.355c0.008,-1.065 1.348,-1.612 1.284,-2.73c-0.062,-1.086 -1.965,-2.491 -1.764,-3.602c0.218,-1.21 2.042,-1.824 2.42,-3.004c3.303,-10.284 10.985,-19.637 22.534,-20.313c11.891,-0.695 21.389,6.795 26.303,16.56c0.44,0.873 2.045,0.23 2.498,1.79c0.507,1.752 -0.64,2.59 -0.368,3.461c0.225,0.715 1.719,0.235 2.327,1.856c0.692,1.842 -1.289,2.28 -1.14,3.272c0.111,0.742 2.061,0.436 2.432,1.904c0.337,1.336 -2.072,2.172 -2.084,3.09c-0.006,0.492 0.332,1.745 -1.315,2.716c-1.669,0.985 -2.848,-1.25 -3.256,-0.302c-1.262,2.934 -3.523,2.675 -5.223,2.634" data-paper-data="{&quot;origPos&quot;:null}" fill="#231916"/><path d="M236.909,168.668c-0.434,-0.008 -1.044,0.007 -1.108,-0.799c-0.002,-0.023 5.901,-0.635 7.037,-0.596c-0.163,0.359 -0.45,0.803 -0.46,0.825c-0.209,0.474 -4.877,0.58 -5.468,0.57" fill="#fefefe"/><path d="M219.306,155.504c-1.434,-3.578 -0.266,-8.258 0.009,-9.295c3.564,-13.48 21.356,-14.988 31.213,-8.84c6.549,4.084 7.144,16.616 6.65,14.824c-3.449,-12.531 -17.612,-18.759 -28.691,-12.629c-4.387,2.427 -8.891,11.754 -9.181,15.94" fill="#1ca9e2"/><path d="M226.98,138.913c-0.727,-8.641 -0.018,-6.65 -2.393,-14.345c-0.383,-1.243 2.427,-3.602 3.172,12.884c0.017,0.377 -0.765,1.633 -0.78,1.461M246.897,137.572c0.338,-8.713 -0.28,-6.632 1.744,-14.624c0.327,-1.29 -2.58,-3.264 -2.586,13.271c0,0.379 0.835,1.527 0.842,1.353" fill="#1ca9e2"/><path d="M223.596,121.611c-0.772,0.077 -2.293,3.582 2.355,3.366c0.864,-5.415 -2.209,-3.38 -2.355,-3.366M249.567,120.41c0.775,0.005 2.519,3.358 -2.13,3.573c-1.212,-5.32 1.983,-3.575 2.131,-3.573" fill="#1ca9e2"/><path d="M223.54,173.19c2.279,0.872 5.532,1.416 5.472,3.154c-0.192,5.682 1.312,8.108 -2.482,5.008c-4.141,-3.384 -15.835,-8.843 -20.774,-14.634v0.001c-1.213,-0.978 -3.886,-2.051 -5.363,-2.358c-0.452,-0.094 -4.486,-0.976 -2.422,-1.216c0.832,-0.097 1.516,-0.006 2.394,0.096c-0.44,-0.185 -2.844,-1.24 -3.484,-1.503c-0.454,-0.188 -0.598,-0.306 -0.578,-0.39c0.245,-0.964 4.451,0.817 4.449,0.813c-0.671,-1.136 -5.404,-2.274 -4.17,-2.892c0.846,-0.424 3.378,1.399 4.549,1.636c0.44,0.09 -3.944,-2.284 -2.917,-2.844c2.415,0.673 4.551,2.356 5.421,2.66c-0.19,-1.093 -0.504,-2.827 -0.26,-3.12c0.415,-0.503 0.8,-0.793 1.2,0.94c0.157,0.676 0.527,1.321 0.924,1.958c0.56,0.546 1.292,2.612 1.98,3.292c2.256,2.23 13.468,8.406 16.061,9.399M235.704,210.055c-1.008,-1.395 -5.929,-0.299 -7.522,0.27c-4.595,1.639 1.282,17.926 2.735,22.04c3.842,10.883 6.961,2.782 6.128,0.922c-2.359,-5.266 -0.537,-22.119 -1.341,-23.231M244.353,209.551c0.959,-1.43 5.915,-0.509 7.527,0.003c4.648,1.476 -0.655,17.96 -1.963,22.123c-3.459,11.013 -6.859,3.027 -6.092,1.139c2.174,-5.346 -0.237,-22.125 0.528,-23.266" data-paper-data="{&quot;origPos&quot;:null}" fill="#795b4d"/><path d="M239.893,235.044c2.915,5.778 -7.229,3.813 -7.245,3.826c0.01,1.284 0.582,0.385 -1.178,1.014c-0.299,-0.843 -0.294,-6.915 0.14,-5.738c0.151,0.412 0.31,0.661 0.8,1.048c2.431,1.922 4.912,-5.247 7.483,-0.15" fill="#1ca9e2"/><path d="M241.224,233.142c3,-4.854 4.854,2.503 7.442,0.8c0.52,-0.342 0.7,-0.576 0.887,-0.973c0.534,-1.135 0.014,4.914 -0.355,5.728c-1.7,-0.779 -1.208,0.165 -1.087,-1.113c-0.015,-0.014 -10.29,1.06 -6.887,-4.442" fill="#1ca9e2"/><path d="M246.397,174.126c1.81,-0.494 7.959,-3.705 10.737,-3.818c2.083,-0.085 1.455,4.591 2.042,5.763c1.43,2.851 -5.352,1.76 -6.474,7.388c-0.151,0.755 0.624,1.839 -2.303,3.626c9.126,5.918 9.093,24.406 8.901,26.743c-0.745,0.121 -1.151,4.753 -2.145,4.867c-0.977,0.111 -2.54,-4.295 -3.71,-4.199c-1.744,0.143 -2.685,5.226 -4.73,5.313c-1.208,0.052 -3.451,-4.87 -4.721,-4.845c-1.255,0.024 -2.923,5.027 -4.207,5.021c-1.304,-0.007 -2.224,-5.024 -3.525,-5.068c-1.853,-0.062 -4.164,5.497 -5.933,5.345c-1.695,-0.146 -2.855,-6 -4.388,-6.242c-2.003,-0.316 -4.597,4.368 -6.161,3.862c-1.178,-0.382 -1.441,-5.908 -2.278,-6.412c0.732,-2.026 -0.711,-19.082 10.603,-24.3c-2.161,-1.403 -1.991,-4.375 -2.056,-4.503c-0.477,-0.94 -6.045,-1.704 -6.497,-2.59c-0.272,-0.532 0.678,-6.278 2.6,-8.51c0.834,-0.969 3.091,0.825 5.187,1.651c0.419,0.165 2.116,1.301 4.701,1.501c0.835,1.391 1.479,6.669 5.53,7.434c5.811,1.097 6.967,-2.547 8.827,-8.027" fill="#63c4ef"/><path d="M232.026,174.728c-0.13,0.113 2.786,7.174 6.622,7.33c5.419,0.22 6.213,-5.487 8.083,-7.836c2.23,1.445 0.277,10.029 -4.033,10.619c-3.315,0.454 -2.986,-3.203 -3.294,-1.806c-0.363,1.642 -1.56,1.784 -2.786,1.842c-4.792,0.228 -7.144,-7.918 -4.592,-10.15M226.67,187.699c5.28,6.626 23.544,4.151 24.312,0.032c-0.332,-0.256 -0.351,-0.269 -0.935,-0.674c-4.283,3.731 -21.825,2.085 -22.293,0.085z" fill="#1ca9e2"/></g></g></svg>