<svg xmlns="http://www.w3.org/2000/svg" width="69.588" height="117.139"><g fill-rule="evenodd" stroke-miterlimit="10" data-paper-data="{&quot;isPaintingLayer&quot;:true}" style="mix-blend-mode:normal"><path fill="#2c2c2d" d="M0 60.49c11.723 15.17 24.38.59 18.467-13.197-4.29-10.013 15.381 2.057 15.381 2.057s-8.275 30.79-17.637 32.04C6.853 82.64.648 68.447 0 60.49"/><path fill="#2c2c2d" d="M59.124 18.324c16.156 16.413-1.516 31.74-23.795 31.74-22.36 0-42.637-15.214-23.47-32.657a46.9 46.9 0 0 1 1.102-3.607C17.037 5.618 25.487 0 35.248 0c11.206 0 20.69 7.416 23.802 17.605.024.243.05.483.074.718"/><path fill="#ffdd85" d="M67.69 40.733c1.866.788 2.457 3.6 1.32 6.28-.728 1.719-1.988 2.963-3.288 3.428 0 0-3.471 9.866-6.502 10.961-2.432.882-11.294-2.666-11.384-2.703 1.682 10.247-.07 25.887-.07 25.887v.002L46.03 99.503l-.471 11.697h-.006c1.821 1.13 3.15 3.425 1.586 5.3-1.18 1.322-2.92.268-4.24-.287-1.459-.693-3.128-1.177-4.448-2.08-.853-.599-1.857-1.242-2.435-2.13-.179-.277-.262-.539-.199-.803h-.005V99.494l-.51-7.616h-.294l-.526 7.616V111.2h.009c.063.263-.022.528-.199.803-.578.888-1.582 1.527-2.435 2.125-1.32.903-2.986 1.394-4.446 2.09-1.322.554-3.064 1.602-4.242.282-1.561-1.875-.24-4.17 1.589-5.3h-.007l-.467-11.697-1.721-14.917s-1.504-14.202-.157-24.412c-.203.543-1.292 1.503-2.149 2.723-1.726 2.437-3.34 12.75-3.34 12.75.039.07.075.142.11.214.49.493.903 1.057 1.224 1.673.934 1.763 1.03 3.546.214 3.976-.438.231-1.043.03-1.658-.478-.661 1.18-1.697 1.905-2.784 1.793-1.66-.179-2.804-2.256-2.55-4.64.102-1.004.442-1.905.92-2.599-.002.02 1.504-14.326 5.13-18.957 1.704-2.176 7.579-5.33 8.267-5.7 1.3-.935 4.226-1.365 6.042-1.535-.302-.67-.49-1.41-.49-1.94h7.689c0 .53-.183 1.259-.48 1.924 1.787.175 4.743.607 6.087 1.543 0 0 2.333.833 3.107 1.112 6.088 1.837 8.642 3.096 8.642 3.096l5.573-6.541a4.781 4.781 0 0 1-.214-.842c-.356-.65-.648-1.466-.823-2.374-.46-2.374.053-4.472 1.15-4.685.589-.115 1.222.335 1.756 1.14 1.181-1.137 2.64-1.61 3.86-1.093" data-paper-data="{&quot;origPos&quot;:null}"/><path fill="#e2a86e" d="M32.169 50.014c-.437-.659-.742-1.626-.81-2.284 1.218.196 2.472.346 3.742.346 1.335 0 2.642-.111 3.917-.331L39 47.76l-6.831 2.254"/><path fill="#43b7b2" d="M34.517 111.174c.063.264-.018.543-.199.818-.573.886-1.577 1.545-2.433 2.143-1.32.903-2.986 1.39-4.448 2.086-1.322.556-3.057 1.597-4.237.277-.867-1.036-.843-2.204-.343-3.236.973 3.408 9.884-.201 11.677-2.116v.028h-.018m12.651 5.324c-1.182 1.32-2.922.276-4.242-.28-1.457-.696-3.129-1.182-4.451-2.086-.855-.602-1.856-1.254-2.43-2.14-.177-.275-.264-.554-.199-.818h.018v-.026c1.791 1.922 8.695 5.465 11.655 2.114.504 1.027.513 2.197-.352 3.235"/><path fill="#7ec8c5" d="M24.59 111.085c-12.788-5.136-1.818-19.995-2.544-32.272 2.103 2.366 6.718 5.826 13.202 6.906 6.277-.936 10.095-3.749 13.067-6.906-.988 12.044 10.043 27.89-2.476 32.272-2.054 1.47-9.806 1.616-10.094 0-.53-2.979-.384-13.015-.384-13.015h-.294s.166 10.041-.384 13.015c-.295 1.59-7.754.94-10.093 0"/><path fill="#b0dbdc" d="m35.241 86.386-.078-.006c-2.902-.369-6.07-1.673-9.417-3.88-2.47-1.629-4.087-3.139-4.154-3.204a.66.66 0 0 1-.029-.936.662.662 0 0 1 .936-.03c.075.067 6.33 5.87 12.753 6.721 5.581-.65 12.554-6.676 12.626-6.737a.66.66 0 0 1 .936.063c.24.277.21.696-.065.938-.297.26-7.423 6.422-13.431 7.065l-.077.007z"/><path fill="#7ec8c5" d="M21.65 67.509c-.181-3.382.486-6.216.486-6.216s5.566-5.566 13.109-.834c7.075-5.123 12.942-.565 12.942-.565s.753 3.832.526 7.615c0 0-14.493 4.536-27.063 0"/><path fill="#7ec8c5" d="M17.124 56.586c1.23 2.932 6.34 5.169 6.34 5.169l-.235 1.645s-7.36-.083-8.221-1.964c-.264-1.813 2.116-4.85 2.116-4.85m30.739 3.833c1.768-2.127 1.12-8.047 1.12-8.047s2.578.509 4.557 1.512c.072 5.782-5.677 8.51-5.677 8.51s-.035-1.482 0-1.975"/><path fill="#ffdd85" d="M58.195 28.359c1.187.761 1.973 2.063 1.973 3.543 0 2.352-1.984 4.259-4.43 4.259-.067 0-.137-.002-.207-.007-3.96 7.102-11.55 11.904-20.26 11.904-8.716 0-16.312-4.811-20.276-11.925a5.163 5.163 0 0 1-.488.028c-2.449 0-4.43-1.907-4.43-4.259 0-1.588.904-2.969 2.244-3.703a23.131 23.131 0 0 1-.24-3.327c0-12.808 10.382-23.188 23.19-23.188 12.805 0 23.185 10.381 23.185 23.188 0 1.183-.089 2.35-.26 3.487" data-paper-data="{&quot;origPos&quot;:null}"/><path fill="#343434" d="M30.577 23.826s-.503 1.803-2.082 1.446c-.772-.174-.908-1.201-3.386-.74-.779.18-2.417 1.156-2.732 1.808-.316.652-.088-2.392 2.457-3.522 1.835-.675 2.457-.642 3.977-.642s1.987.907 1.766 1.65m9.741 0s.503 1.803 2.082 1.446c.772-.174.908-1.201 3.386-.74.779.18 2.417 1.156 2.732 1.808.316.652.087-2.392-2.457-3.522-1.835-.675-2.457-.642-3.977-.642s-1.987.907-1.766 1.65m-12.052 7.35c0 1.657-.895 3-2 3s-2-1.343-2-3 .895-3 2-3 2 1.343 2 3m18 0c0 1.657-.895 3-2 3s-2-1.343-2-3 .895-3 2-3 2 1.343 2 3l15.83 1.128"/><path fill="#683918" d="M35.286 34.245c-1.125.153-3.02 1.834-3.02 1.834s.207-1.009.503-1.299c.8-1.156 2.487-1.604 2.487-1.604s2.173.703 2.65 1.588c.443.824.34 1.238.34 1.238s-2.121-1.871-2.96-1.756zM28.466 37.872s6.897 3.208 13.172-.397c0 0-1.39 5.47-5.95 5.561-4.115.122-4.984-1.492-5.477-1.956-.492-.463-1.42-1.772-1.745-3.208"/><path fill="#2c2c2d" d="M11.262 22.079c.016-1.206.105-2.677.275-4.239C14.633 7.688 24.077.303 35.246.303c9.716 0 18.13 5.598 22.19 13.745 1.123 3.203 1.812 6.354 1.869 7.774.198 4.935.486 6.094-1.108 6.537-2.322-6.832-20.18-7.314-23.036-13.087-4.654 6.393-20.36 5.867-22.837 12.923-.932-.473-1.091-3.912-1.06-6.116"/><path fill="#f6b90c" d="M39.46 50.916a.784.784 0 0 1-.247 1.53h-.015a.79.79 0 0 1 .535.744.788.788 0 0 1-.799.785l-.026-.002a.782.782 0 0 1 .295.61.79.79 0 0 1-1.121.71.784.784 0 0 1-.97 1.143.781.781 0 0 1-.755.988.782.782 0 0 1-.678-.39.785.785 0 1 1-1.567.074c0-.024.005-.052.007-.074a.787.787 0 0 1-.683.39.782.782 0 0 1-.755-.988.785.785 0 0 1-.969-1.143.783.783 0 0 1-.824-1.32l-.042.003a.786.786 0 0 1-.249-1.53h-.015a.786.786 0 0 1-.787-.786.793.793 0 0 1 .543-.744.784.784 0 1 1 .288-.037.785.785 0 0 1 .203 1.528h.018a.783.783 0 0 1 .49 1.396c.013 0 .042-.005.042-.005a.783.783 0 0 1 .783.786.772.772 0 0 1-.12.421.75.75 0 0 1 .331-.079c.434 0 .787.352.788.786a.806.806 0 0 1-.03.207.79.79 0 0 1 1.086.796.79.79 0 0 1 1.362 0 .784.784 0 0 1 .778-.855c.106 0 .212.02.31.059a.785.785 0 0 1 .755-.993.79.79 0 0 1 .334.079.787.787 0 0 1 .674-1.207c.01.003.02.004.029.005a.788.788 0 0 1-.297-.613.786.786 0 0 1 .787-.784h.016a.79.79 0 0 1-.537-.746.79.79 0 0 1 .737-.781.784.784 0 1 1 .295.037M14.399 35.575c.624.053 2.847 3.777 1.955 5.195-.703 1.122-4.324.696-4.914-.486-.637-1.27 2.241-4.77 2.959-4.708m41.674-.001c-.625.053-2.847 3.777-1.955 5.195.703 1.122 4.326.696 4.913-.486.633-1.27-2.238-4.77-2.958-4.708"/><path fill="#43b7b2" d="M35.288 4.158c11.834 0 21.706 7.818 23.836 14.165-3.189-3.46-13.926-10.72-23.836-10.72-10.759 0-20.47 6.49-23.66 9.95 2.643-6.424 10.98-13.395 23.66-13.395"/><path fill="#f6b90c" d="M39.394 7.026c0 2.825-1.802 5.115-4.023 5.115-2.226 0-4.024-2.29-4.024-5.116 0-2.825 1.798-5.114 4.024-5.114 2.22 0 4.023 2.289 4.023 5.114"/><path fill="#268d85" d="M35.371 11.743c-2.003 0-3.626-2.114-3.626-4.719 0-2.598 1.623-4.715 3.626-4.715 1.996 0 3.624 2.117 3.624 4.715 0 2.605-1.628 4.72-3.624 4.72"/><path fill="#4eb9b1" d="M32.45 8.826c-1.18-5.482 3.061-6.183 3.061-6.183s-3.766 1.198-3.06 6.184m3.832 2.259c1.396-.895 2.04-2.713 2.04-2.713s-.238 1.922-2.04 2.712"/></g></svg>