<svg xmlns="http://www.w3.org/2000/svg" width="70.648" height="118.089"><g fill-rule="evenodd" stroke-miterlimit="10" data-paper-data="{&quot;isPaintingLayer&quot;:true}" style="mix-blend-mode:normal"><path fill="#ffdf8d" d="M69.843 79.643c.263 2.332-.825 4.372-2.443 4.56-1.054.122-2.067-.583-2.72-1.732-.595.505-1.185.704-1.615.48-.79-.413-.709-2.153.185-3.888a6.513 6.513 0 0 1 1.18-1.65c.027-.07.068-.137.103-.21 0 0-1.642-10.077-3.337-12.45-.577-.81-1.027-1.376-1.29-1.825 2.205 9.912 2.547 23.139 2.547 23.139l-31.335.25s.183-15.22 2.685-25.28c-1.384.567-8.36 3.323-10.51 2.553-2.95-1.05-6.41-10.675-6.41-10.675-1.266-.446-2.503-1.654-3.223-3.33-1.123-2.611-.573-5.367 1.237-6.155 1.178-.513 2.603-.064 3.758 1.039.514-.791 1.131-1.233 1.698-1.126 1.073.2 1.59 2.245 1.157 4.575a8.088 8.088 0 0 1-.785 2.333 4.677 4.677 0 0 1-.199.826l5.471 6.36 11.635-4.298c2.114-1.242 7.08-1.51 7.08-1.51l1.73.107.145-.002 1.718-.097s4.983.115 7.098 1.305h-.018s6.61 3.412 8.388 5.654c3.526 4.46 5.055 17.63 5.152 18.53v-.014c.472.67.807 1.549.916 2.532z" data-paper-data="{&quot;origPos&quot;:null}"/><path fill="#f6b90c" d="M21.81 40.512c.048 6.064-4.791 11.017-10.816 11.067C4.969 51.624.048 46.752 0 40.688-.05 34.626 4.795 29.67 10.819 29.62c6.025-.048 10.946 4.83 10.99 10.89"/><path fill="#0771b7" d="M10.995 51.578a10.373 10.373 0 0 1-1.71-.124l.318-.122.49-.213.614-.294.637-.32.633-.34.55-.29.453-.27.4-.23.423-.25.419-.255.306-.19.173-.143.284-.046.402-.06.42-.051.44-.03.378-.026.358-.02.326-.04.327-.002.36-.002.35.008-.305.418-.288.356-.226.28a10.828 10.828 0 0 1-6.532 2.256m-.175-21.956c.946-.006 1.866.105 2.746.33l.607.45.84.689.726.635.56.542.499.51.415.429.403.439.36.453.244.296-4.197.03-.638-.51-.437-.296-.975-.608-.744-.391-.6-.331-.78-.342-.795-.325-.797-.29-.765-.214-.477-.13-.532-.115-.465-.088a10.832 10.832 0 0 1 4.802-1.163M2.245 47.238l-.103-13.163v-.012c.09-.12.185-.238.277-.362l.019-.004.35-.002.7-.035.637.016.833.023.658.047.13 16.52.012.005c-1.378-.75-2.603-1.783-3.513-3.033"/><path fill="#0771b7" d="m18.699 48.254-1.112.015-1.213.064-1.284.132-.833.13-1.605.295-1.094.242-1.007.283-1.034.319-.228-1.04-.18-1.033-.17-1.082-.162-.962-.064-.675-.055-.753 12.6-.101a11.128 11.128 0 0 1-2.56 4.166m2.98-9.348-13.094.105.045-.64.07-.632.05-.422.168-.98.156-.783.138-.583.146-.518 10.529-.084v.002a10.908 10.908 0 0 1 1.794 4.53z"/><path fill="#eeeeed" d="M21.678 38.89h.002c.08.53.126 1.07.13 1.622a10.99 10.99 0 0 1-.56 3.57l-.01.01-12.563.098-.048-.49-.078-.937-.008-1.163-.012-1.322.063-1.283zM2.109 34.099l.105 13.123H2.21A10.937 10.937 0 0 1 0 40.689a11.023 11.023 0 0 1 2.11-6.59"/><path fill="#727371" d="M18.728 48.244c-.021.029-.044.044-.06.064-.095-.002-.19 0-.285-.004-.127.17-.386.5-.76.94a5.21 5.21 0 0 1-.263.2c.475-.542.8-.96.942-1.14l-.315-.001c-1.33.01-2.103.07-3.256.25 0 0-1.944 1.307-4.152 2.37-.374.183-.785.367-1.23.545a1.476 1.476 0 0 1-.13-.023c.482-.187.93-.385 1.329-.577 1.949-.942 3.797-2.06 4.092-2.297-2.965.385-5.14 1.196-5.14 1.196-.167.06-1.501.48-3.304.735l-.105-.052c1.814-.244 3.172-.673 3.38-.737-.062-.281-.567-2.458-.835-5.284-.238-2.464-.335-5.892.403-8.894.082-.362.17-.716.272-1.076a24.595 24.595 0 0 0-3.692-.658l.13 16.473c-.021-.008-.044-.021-.064-.031l-.13-16.452a20.845 20.845 0 0 0-2.035-.092c-.378.003-.756.018-1.132.046.018-.021.03-.048.05-.068.35-.025.708-.044 1.083-.048 3.002-.024 5.742.756 5.87.786l4.575-.033c-.367-.291-1.687-1.273-3.566-2.153-1.17-.553-2.705-1.13-4.434-1.42.035-.016.064-.031.099-.045 1.702.292 3.21.858 4.368 1.402a19.906 19.906 0 0 1 3.638 2.214l4.097-.035c-.38-.466-2.307-2.74-4.707-4.42.06.013.12.032.183.05.597.423 1.17.88 1.716 1.368a27.61 27.61 0 0 1 2.888 3.002l1.612-.012.043.066-10.49.085c-.115.345-.22.7-.312 1.063a23.256 23.256 0 0 0-.458 3.41l13.03-.104a.28.28 0 0 1 .01.066l-13.04.104c-.116 1.779-.052 3.544.08 5.116l12.54-.103c-.005.025-.012.046-.018.066l-12.516.102c.257 2.96.752 5.192.822 5.492.399-.14 4.22-1.423 8.437-1.46.254-.002.499.002.74.008M2.085 34.14c.018-.024.04-.06.06-.084l.105 13.226c-.023-.031-.042-.062-.06-.084L2.085 34.14"/><path fill="#ffdf8d" d="M21.547 47.669c.315-2.22-.26-4.136-1.28-4.28-1.015-.144-2.095 1.538-2.405 3.756-.313 2.218.26 4.132 1.28 4.283 1.02.138 2.097-1.54 2.406-3.76m24.805 64.555c.06.252-.02.522-.19.792-.546.87-1.512 1.508-2.33 2.096-1.277.893-2.88 1.376-4.288 2.063-1.273.554-2.944 1.578-4.1.303-1.528-1.814-.26-4.063 1.495-5.18h-.008L34.844 89.24s4.292-1.322 5.685-.942c1.933.522 6.175 5.129 6.175 5.129l-.351 18.795m10.69-.087c1.777 1.09 3.08 3.316 1.584 5.158-1.135 1.29-2.824.296-4.103-.24-1.421-.666-3.036-1.12-4.321-1.992-.824-.576-1.802-1.2-2.37-2.06-.172-.268-.26-.527-.195-.79h-.002l-.654-18.785s4.228-4.712 6.173-5.26c1.369-.385 5.624.88 5.624.88l-1.727 23.089h-.008" data-paper-data="{&quot;origPos&quot;:null}"/><path fill="#343434" d="m43.638 86.199 3.15-.025 2.894-.02 9.33-.08-.826 13.426-11.182.09-.015-6.29-.285.002.078 6.29-11.18.093-1.04-13.414z"/><path fill="#b52836" d="m35.602 99.685-1.04-13.413 1.394.045 1.243 13.352zm22.173-13.58 1.237-.01-.808 13.404-1.547.015z"/><path fill="#ffdf8d" d="M44.946 53.42c-1.051.009-1.918-2.254-1.927-3.287l7.466-.06c.008 1.033-.822 3.309-1.87 3.317l-3.67.03" data-paper-data="{&quot;origPos&quot;:null}"/><path fill="#eeac6c" d="M43.844 52.586a5.375 5.375 0 0 1-.804-2.185c1.202.191 2.418.281 3.636.27a22.093 22.093 0 0 0 3.797-.354l-.013.018-6.616 2.252"/><path fill="#e63744" d="M37.507 53.668c.026-.336.03-.53.03-.53s.004-.02 0 0a3.36 3.36 0 0 1 .372-.21c1.147-.595 2.979-.928 4.459-1.115 0 0 .32 11.063 4.238 11.045 3.928-.02 4.146-11.123 4.146-11.123 1.645.196 3.735.565 4.86 1.272l.006.013c.068 6.047 2.637 8.789 3.772 9.563.128.082.386.262.438.21.065.139.145.214.168.334 2.146 9.854 2.512 22.812 2.512 22.812l.05 2.015-31.4.253-.006-2.003s.247-15.112 2.72-25.157c2.872-.262 3.507-5.648 3.634-7.38"/><path fill="#eeeeed" d="m47.163 74.785-1.13.009-.036-4.705-1.17.008-.008-.873 2.298-.22zm-.561-10.53c-4.046.022-5.02-8.998-5.242-12.302.345-.054.687-.1 1.007-.14 0 0 .32 11.064 4.239 11.045 3.928-.02 4.148-11.123 4.148-11.123.314.044.647.085.985.14-.19 3.309-1.086 12.36-5.137 12.38m-12.486 23.93h-.063l.906-27.554h.064zm26.481-.214-1.892-25.928.066-.004 1.883 25.932z"/><path fill="#ffdf8d" d="M24.048 31.658a22.073 22.073 0 0 1-.28-3.401c-.1-12.474 9.868-22.67 22.263-22.767 12.395-.1 22.529 9.935 22.627 22.409a22.855 22.855 0 0 1-.207 3.248c1.297.706 2.185 2.038 2.197 3.59.019 2.29-1.887 4.163-4.25 4.183-.16 0-.32-.007-.478-.022-3.778 6.96-11.09 11.708-19.53 11.774-8.431.068-15.815-4.556-19.704-11.441-.07 0-.134.006-.201.008-2.37.019-4.303-1.825-4.32-4.113-.011-1.442.735-2.72 1.884-3.468" data-paper-data="{&quot;origPos&quot;:null}"/><path fill="#343434" d="M40.187 27.513c-.772-.174-.908-1.201-3.386-.74-.78.18-2.417 1.156-2.732 1.808-.316.652-.088-2.392 2.457-3.522 1.835-.675 2.457-.642 3.977-.642s1.987.907 1.766 1.65c0 0-.503 1.803-2.082 1.446zm13.905 0c.772-.174.908-1.201 3.386-.74.779.18 2.417 1.156 2.732 1.808.316.652.087-2.392-2.457-3.522-1.835-.675-2.457-.642-3.977-.642s-1.987.907-1.766 1.65c0 0 .503 1.803 2.082 1.446zm-14.134 5.904c0 1.657-.895 3-2 3s-2-1.343-2-3 .895-3 2-3 2 1.343 2 3m18 0c0 1.657-.895 3-2 3s-2-1.343-2-3 .895-3 2-3 2 1.343 2 3"/><path fill="#eeac6c" d="M46.978 36.486c-1.125.153-3.02 1.834-3.02 1.834s.207-1.01.503-1.3c.8-1.155 2.487-1.603 2.487-1.603s2.173.703 2.65 1.588c.443.824.34 1.238.34 1.238s-2.121-1.871-2.96-1.756zM40.157 40.113s6.898 3.208 13.173-.397c0 0-1.39 5.47-5.95 5.56-4.116.123-4.985-1.491-5.478-1.955-.492-.463-1.42-1.772-1.745-3.208"/><path fill="#343434" d="M69.6 24.95c.056 2.655-.82 8.403-2.588 11.837 0 0-4.518-12.534-8.168-14.501-4.463-2.396-16.153 1.204-20.149-1.923-.666-.515-.594-1.7-.594-1.7s-.75 1.516-1.118 1.938c-1.906 2.22-6.87 5.456-9.224 7.183-1.893 1.395-1.983 1.377-1.5 9.33 0 0-3.556-7.206-3.4-12.04.04-1.392.69-4.485 1.755-7.628 3.89-8.011 12.028-13.558 21.483-13.634 10.867-.088 20.11 7.069 23.202 16.992.163 1.376.263 2.76.3 4.146"/><path fill="#075983" d="M23.401 22.066s8.04-7.366 22.627-7.48c12.004-.095 23.182 7.112 23.182 7.112.093 11.655-5.987 9.015-11.443 7.03-11.661-4.253-11.661-4.253-23.61.02-5.178 1.852-10.668 4.314-10.755-6.683"/><path fill="#eeeeed" d="m26.966 30.249-2.192-9.254a30.032 30.032 0 0 1 2.63-1.668l2.257 10.855c-.964.196-1.883.26-2.694.068zm37.845-10.936c.916.438 1.818.901 2.707 1.39l-2.13 9.662c-.82.172-1.722.116-2.678-.07z"/><path fill="#0771b7" d="M23.346 22.085C20.982 19.749 28.648.144 46.338 0 63.48-.133 71.722 19.15 69.21 21.717c-23.861-6.022-45.864.368-45.864.368"/></g></svg>