<svg xmlns="http://www.w3.org/2000/svg" width="62.412" height="116.354"><g fill-rule="evenodd" stroke-miterlimit="10" data-paper-data="{&quot;isPaintingLayer&quot;:true}" style="mix-blend-mode:normal"><path fill="#7e501e" d="M0 47.945c8.206 12.819 19.164 2.123 15.438-9.21-2.708-8.224 11.974 2.678 11.974 2.678S18.817 65.257 11.36 65.615C3.903 65.969-.025 54.301 0 47.945" data-paper-data="{&quot;origPos&quot;:null}"/><path fill="#ffdc83" d="M7.172 82.108c-1.652-.175-2.787-2.253-2.534-4.643.103-1.003.44-1.903.916-2.593 0 .002 0 .008-.007.011.098-.922 1.527-14.395 5.093-18.984 1.8-2.312 8.504-5.848 8.504-5.848h.01c2.154-1.238 7.264-1.42 7.264-1.42l1.774.077h.146l1.77-.11s5.086.245 7.251 1.496v.007l11.932 4.3 5.535-6.546a4.878 4.878 0 0 1-.204-.845c-.356-.649-.65-1.467-.824-2.374-.462-2.376.051-4.476 1.143-4.688.585-.114 1.216.336 1.748 1.142 1.175-1.138 2.625-1.614 3.832-1.097 1.858.788 2.446 3.604 1.318 6.285-.722 1.718-1.978 2.966-3.274 3.426 0 0-3.456 9.872-6.464 10.972-2.189.797-9.347-1.946-10.767-2.508 2.642 10.258 2.95 25.83 2.95 25.83H12.245s.248-13.535 2.42-23.688v-.01c-.263.461-.722 1.042-1.303 1.88-1.716 2.436-3.317 12.752-3.317 12.752.04.07.078.14.113.212a6.76 6.76 0 0 1 1.216 1.676c.93 1.763 1.028 3.542.215 3.977-.43.229-1.037.028-1.65-.478-.659 1.181-1.687 1.905-2.769 1.789z" data-paper-data="{&quot;origPos&quot;:null}"/><path fill="#acacab" d="M62.173 40.204c0 3.362-2.704 6.09-6.047 6.09-3.34 0-6.055-2.728-6.055-6.09 0-3.364 2.715-6.092 6.055-6.092 3.343 0 6.047 2.728 6.047 6.092"/><path fill="#969595" d="M60.545 36.044a6.09 6.09 0 0 1 1.628 4.159c0 3.365-2.703 6.09-6.046 6.09a6.044 6.044 0 0 1-5.212-2.991 6.027 6.027 0 0 0 4.423 1.931c3.337 0 6.05-2.728 6.05-6.09 0-1.132-.309-2.19-.844-3.099"/><path fill="#c6c5c6" d="M54.347 34.38a2.833 2.833 0 0 1 2.131 2.75 2.822 2.822 0 0 1-2.812 2.831 2.826 2.826 0 0 1-2.815-2.748 6.086 6.086 0 0 1 3.496-2.832"/><path fill="#e63744" d="M12.244 83.999c.017-.662.27-11.95 1.99-21.47.044-.207.063-.396.105-.601 3.54-3.98 4-7.67 4.827-11.874.958-.55 2.502-.89 3.92-1.097 0 0 0 6.334 5.105 6.334 4.83 0 4.6-6.422 4.6-6.422 1.576.214 3.46.59 4.57 1.234.877 2.642 1.788 8.147 4.511 10.384 2.086 9.855 2.397 22.781 2.412 23.512z"/><path fill="#f6b90c" d="M36.904 55.129v1.854c0 .988-.795 1.789-1.779 1.789a1.782 1.782 0 0 1-1.775-1.79v-1.853h3.553z"/><path fill="#eeeeed" d="M41.837 83.998H39.73V57.485c.558 1.195 1.24 2.245 2.108 2.972zM16.575 58.809a17.06 17.06 0 0 1-2.105 2.968V84h2.105V58.81m1.71 6.783h19.934V78.04H18.284z"/><path fill="#99588c" d="M18.284 65.592H38.22v2.514H18.284zm0 10.861H38.22v1.587H18.284z"/><path fill="#ffdc83" d="M26.42 110.442h-8.488l-.022-4.23-.345-7.888-.62-3.045h10.657v3.045l-.232 7.888zm12.171 0h-9.146l-.3-4.23-.226-7.888v-3.045h10.658l-.62 3.045-.347 7.888z" data-paper-data="{&quot;origPos&quot;:null}"/><path fill="#343434" d="m40.762 83.955-1.114 11.52H28.816l-.407-4.236h-.29l-.413 4.236h-10.84l-1.105-11.52h15.723z"/><path fill="#eeeeed" d="m27.37 106.212.196 4.039h.02c.065.266-.02.558-.2.838-.589.911-1.61 1.586-2.477 2.199-.141.095-.285.186-.43.274h-7.7v-2.591c.274-.26.584-.52.904-.72h-.008l.235-4.038h9.46z"/><path fill="#e63744" d="M27.402 106.868H17.87l.013-.202h9.506zm.02.398h-9.574l.013-.2h9.551z"/><path fill="#eeeeed" d="M40.46 113.561h-8.414a7.063 7.063 0 0 1-.43-.281c-.868-.61-1.89-1.279-2.478-2.19-.179-.282-.266-.574-.2-.84h.01l.2-4.037h9.462l.237 4.037h-.007c.638.403 1.188.93 1.62 1.548z"/><path fill="#e63744" d="M29.123 106.666h9.515l.012.201h-9.536zm-.023.399h9.562l.01.2h-9.58z"/><path fill="#6e6e6d" d="M17.675 110.236s.193-1.913 1.796-1.993c1.655-.081 2.913 1.652 2.913 1.652l-4.686.356z"/><path fill="#e63744" d="m18.295 110.069-.017-.009s.134-1.315 1.237-1.371c1.137-.056 2.001 1.136 2.001 1.136l-3.222.244z"/><path fill="#e63744" d="M17.698 110.251s1.927-1.21 6.251 0c1.746.206 2.286-1.425 3.108-1.79.411-.181.528 0 .528 0v1.79c.066.266-.019.558-.2.838-.588.911-1.61 1.584-2.476 2.196-1.343.926-3.042 1.419-4.528 2.133-1.344.569-3.114 1.63-4.314.278-1.59-1.918-.243-4.254 1.616-5.444h-.008v-.01l.023.009"/><path fill="#343434" d="M27.254 111.276c-.6.819-1.537 1.438-2.347 2.008-.562.386-1.192.701-1.835.984l-.176-.36c1.918-.562 4.145-2.829 4.145-2.829l.213.197m-9.556-1.025s1.46-.919 4.686-.356c-.95.707-2.536 1.745-3.664 1.753-1.439.011-1.48-.662-1.195-1.298.052-.037.105-.041.158-.105h-.008v-.009l.023.015"/><path fill="#343434" d="M17.63 111.49c2.544 0 4.762 1.022 5.96 2.543-1.047.502-2.182.892-3.21 1.385-1.343.57-3.113 1.63-4.31.278-1.11-1.335-.793-2.872.13-4.082.001-.004.003-.013.01-.017.46-.071.932-.107 1.42-.107"/><path fill="#eeeeed" d="M27.535 108.663c.014 0 .031.002.048.004v1.584c.07.265-.017.557-.198.838a3.95 3.95 0 0 1-.398.514c-.13-.311-.21-.735-.21-1.202 0-.96.338-1.738.757-1.738"/><path fill="#c12636" d="M16.59 111.186s-.032-.008-.034-.025c-.005-.017.008-.035.025-.039.02-.006 2.12-.52 4.81-.015.02.002.027.022.027.037-.004.019-.02.03-.04.027-2.676-.503-4.76.009-4.784.013l-.004.002m.551-.51s-.026-.009-.03-.022c-.006-.019.002-.036.02-.04.02-.009 1.964-.654 4.674-.035a.031.031 0 0 1 .022.041c-.002.017-.02.03-.036.024-2.69-.613-4.62.023-4.64.03-.002.002-.004.002-.01.002"/><path fill="#6e6e6d" d="m38.822 110.251-4.684-.356s1.254-1.733 2.913-1.652c1.603.08 1.8 1.993 1.8 1.993z"/><path fill="#e63744" d="m38.227 110.069-3.22-.244s.864-1.192 2.003-1.136c1.1.056 1.234 1.371 1.234 1.371z"/><path fill="#e63744" d="m38.822 110.251.028-.009v.01h-.009c1.855 1.19 3.204 3.526 1.614 5.444-1.2 1.352-2.972.291-4.316-.278-1.484-.714-3.182-1.207-4.524-2.133-.873-.612-1.892-1.285-2.48-2.196-.179-.28-.264-.572-.198-.838v-1.79s.12-.181.528 0c.822.365 1.362 1.996 3.108 1.79 4.324-1.21 6.25 0 6.25 0"/><path fill="#343434" d="m29.268 111.276.215-.197s2.223 2.267 4.144 2.829l-.175.36c-.652-.283-1.273-.598-1.835-.984-.814-.57-1.748-1.189-2.349-2.008m9.554-1.025.028-.015v.009h-.009c.05.064.104.068.151.105.29.636.252 1.309-1.19 1.298-1.128-.008-2.714-1.046-3.664-1.753 3.221-.563 4.684.356 4.684.356"/><path fill="#343434" d="M38.893 111.49c.487 0 .96.036 1.42.107l.01.017c.922 1.21 1.24 2.747.13 4.082-1.198 1.352-2.97.292-4.313-.278-1.028-.493-2.16-.883-3.206-1.385 1.196-1.521 3.414-2.543 5.96-2.543"/><path fill="#eeeeed" d="M28.99 108.663c.417 0 .756.778.756 1.738 0 .467-.083.891-.21 1.202a4.165 4.165 0 0 1-.4-.514c-.18-.281-.265-.573-.197-.838v-1.584a.265.265 0 0 1 .05-.004"/><path fill="#c12636" d="m39.932 111.186-.008-.002c-.019-.004-2.104-.516-4.778-.013-.02.003-.04-.008-.04-.027-.002-.015.006-.035.025-.037 2.691-.505 4.79.009 4.81.015.02.004.032.022.027.039-.004.017-.019.025-.036.025m-.55-.51c-.005 0-.009 0-.01-.002-.02-.007-1.954-.643-4.64-.03-.015.006-.035-.007-.037-.024a.03.03 0 0 1 .022-.041c2.703-.619 4.656.026 4.673.035.02.004.027.021.023.04-.004.013-.022.022-.032.022"/><path fill="#ffdc83" d="M29.882 50.453h-3.75c-1.07 0-1.94-2.32-1.94-3.378h7.63c0 1.059-.867 3.377-1.94 3.377" data-paper-data="{&quot;origPos&quot;:null}"/><path fill="#eeac6c" d="M25.01 49.592a5.518 5.518 0 0 1-.802-2.239c1.207.199 2.448.302 3.717.302 1.3.002 2.598-.11 3.88-.332l-.012.015-6.783 2.254"/><path fill="#ffdc83" d="M5.527 27.975a22.83 22.83 0 0 1-.262-3.476c0-12.771 10.29-23.121 22.974-23.121 12.687 0 22.975 10.35 22.975 23.121 0 1.127-.08 2.233-.237 3.32 1.327.728 2.22 2.108 2.22 3.687 0 2.347-1.964 4.25-4.385 4.25a4.52 4.52 0 0 1-.487-.028C44.401 42.823 36.88 47.621 28.24 47.621c-8.63 0-16.146-4.79-20.074-11.872-.066.002-.137.007-.205.007-2.423 0-4.386-1.903-4.386-4.25 0-1.472.773-2.77 1.953-3.531" data-paper-data="{&quot;origPos&quot;:null}"/><path fill="#7e501e" d="M24.355 23.123s-.503 1.803-2.082 1.446c-.772-.174-.908-1.201-3.386-.74-.779.18-2.417 1.156-2.732 1.808-.316.652-.088-2.392 2.457-3.522 1.835-.675 2.457-.642 3.977-.642s1.987.907 1.766 1.65m9.741 0s.503 1.803 2.082 1.446c.772-.174.908-1.201 3.386-.74.78.18 2.417 1.156 2.732 1.808.316.652.087-2.392-2.457-3.522-1.835-.675-2.457-.642-3.977-.642s-1.987.907-1.766 1.65M22.044 30.473c0 1.657-.895 3-2 3s-2-1.343-2-3 .895-3 2-3 2 1.343 2 3m18 0c0 1.657-.895 3-2 3s-2-1.343-2-3 .895-3 2-3 2 1.343 2 3" data-paper-data="{&quot;origPos&quot;:null}"/><path fill="#eeac6c" d="M29.064 33.542c-1.125.153-3.02 1.834-3.02 1.834s.207-1.009.503-1.299c.8-1.156 2.487-1.604 2.487-1.604s2.173.703 2.65 1.588c.443.824.34 1.238.34 1.238s-2.12-1.871-2.96-1.756zM22.244 37.169s6.897 3.208 13.172-.397c0 0-1.39 5.47-5.95 5.561-4.115.122-4.984-1.492-5.477-1.956-.492-.463-1.42-1.772-1.745-3.208"/><path fill="#7e501e" d="M52.025 21.714c.034 2.704-1.159 6.458-1.159 6.458s-6.07-7.231-9.772-9.261c-4.524-2.475-6.78 1.174-10.824-2.038-.672-.534-1.922-1.946-1.922-1.946s-1.52 1.546-1.925 1.946c-4.547 4.481-7.958-.748-11.787 1.957-4.87 3.445-8.99 9.18-8.99 9.18s-1.414-1.631-1.216-6.549c.053-1.419.737-4.56 1.85-7.753C10.302 5.582 18.633 0 28.267 0 39.33 0 48.68 7.366 51.752 17.486c.157 1.404.248 2.815.272 4.227" data-paper-data="{&quot;origPos&quot;:null}"/></g></svg>