<svg version="1.1" xmlns="http://www.w3.org/2000/svg" xmlns:xlink="http://www.w3.org/1999/xlink" width="110.96689" height="116.88728" viewBox="0,0,110.96689,116.88728"><g transform="translate(-183.8977,-121.232)"><g data-paper-data="{&quot;isPaintingLayer&quot;:true}" fill-rule="evenodd" stroke="none" stroke-width="1" stroke-linecap="butt" stroke-linejoin="miter" stroke-miterlimit="10" stroke-dasharray="" stroke-dashoffset="0" style="mix-blend-mode: normal"><path d="M204.804,168.587c8.193,12.66 19.122,2.095 15.403,-9.097c-2.7,-8.126 11.948,2.642 11.948,2.642c0,0 -8.575,23.552 -16.015,23.904c-7.442,0.351 -11.36,-11.175 -11.335,-17.45" data-paper-data="{&quot;origPos&quot;:null}" fill="#333433"/><path d="M233.512,232.205v-11.57h10.105l-0.458,11.57h-0.01c1.808,1.116 3.124,3.388 1.574,5.235c-1.168,1.307 -2.891,0.274 -4.199,-0.275c-1.445,-0.683 -3.1,-1.163 -4.405,-2.055c-0.848,-0.589 -1.841,-1.23 -2.41,-2.106c-0.178,-0.272 -0.26,-0.546 -0.197,-0.8M222.558,232.205h-0.005l-0.46,-11.57h10.105v11.57h-0.002c0.064,0.261 -0.02,0.527 -0.194,0.799c-0.572,0.876 -1.566,1.517 -2.409,2.106c-1.31,0.892 -2.96,1.372 -4.407,2.055c-1.31,0.549 -3.03,1.582 -4.199,0.275c-1.55,-1.847 -0.236,-4.121 1.57,-5.235" data-paper-data="{&quot;origPos&quot;:null}" fill="#9e733f"/><path d="M243.132,232.238l0.024,-0.008v0.008h-0.006c1.809,1.149 3.118,3.399 1.57,5.248c-1.17,1.303 -2.889,0.279 -4.199,-0.27c-1.447,-0.686 -3.097,-1.166 -4.407,-2.055c-0.843,-0.59 -1.837,-1.239 -2.41,-2.115c-0.176,-0.272 -0.257,-0.553 -0.195,-0.808v-1.72c0,0 0.116,-0.176 0.516,0c0.798,0.347 1.325,1.917 3.027,1.72c4.205,-1.166 6.08,0 6.08,0M222.57,232.238l-0.021,-0.008v0.008h0.008c-1.806,1.149 -3.12,3.399 -1.574,5.248c1.17,1.303 2.89,0.279 4.2,-0.27c1.448,-0.686 3.098,-1.166 4.408,-2.055c0.843,-0.59 1.837,-1.239 2.407,-2.115c0.178,-0.272 0.26,-0.553 0.198,-0.808v-1.72c0,0 -0.116,-0.176 -0.519,0c-0.795,0.347 -1.322,1.917 -3.022,1.72c-4.21,-1.166 -6.085,0 -6.085,0" fill="#333433"/><path d="M208.862,198.744c0.108,-1.014 0.45,-1.92 0.934,-2.619l-0.007,0.069c0,0 1.444,-14.411 5.206,-19.2c1.723,-2.197 7.676,-5.379 8.371,-5.748c1.314,-0.947 4.28,-1.375 6.124,-1.547l6.801,-0.017c1.811,0.178 4.81,0.604 6.169,1.547c0,0 2.36,0.845 3.149,1.125c2.95462,0.93609 5.87452,1.97843 8.754,3.125l5.644,-6.603v0.003c-0.09892,-0.27594 -0.17027,-0.561 -0.213,-0.851c-0.39836,-0.75122 -0.68089,-1.55834 -0.838,-2.394c-0.467,-2.398 0.053,-4.517 1.168,-4.731c0.593,-0.116 1.236,0.336 1.776,1.15c1.198,-1.146 2.676,-1.624 3.91,-1.103c1.89,0.795 2.49,3.634 1.343,6.336c-0.74,1.736 -2.018,2.994 -3.338,3.461c0,0 -3.52,9.956 -6.587,11.064c-2.48,0.893 -11.54,-2.73 -11.54,-2.73v-0.015c1.702,10.345 -0.079,26.138 -0.079,26.138h-25.512c0,0 -1.525,-14.338 -0.162,-24.643v0.007c-0.198,0.546 -1.301,1.52 -2.174,2.751c-1.747,2.46 -3.384,12.866 -3.384,12.866c0.039,0.07 0.078,0.144 0.114,0.216c0.443,0.431 0.876,1.012 1.237,1.689c0.949,1.78 1.045,3.576 0.222,4.011c-0.443,0.238 -1.059,0.033 -1.685,-0.48c-0.668,1.19 -1.718,1.92 -2.817,1.807c-1.684,-0.178 -2.842,-2.274 -2.586,-4.684" data-paper-data="{&quot;origPos&quot;:null}" fill="#9e733f"/><path d="M214.994,176.993c1.725,-2.195 7.676,-5.379 8.373,-5.747c1.312,-0.948 4.28,-1.383 6.122,-1.554l6.801,-0.017c1.811,0.176 4.812,0.608 6.171,1.551l3.147,1.125c2.95544,0.93634 5.87602,1.97935 8.756,3.127l5.623,-6.579l4.078,1.749c-0.084,0.034 -0.17,0.066 -0.251,0.098c0,0 -3.517,9.956 -6.585,11.064c-2.469,0.891 -11.449,-2.694 -11.54,-2.728c0.805,4.884 0.829,10.98 0.63,16.056l-26.862,0.36c-0.166,-4.645 -0.146,-10.208 0.48,-14.929c-0.203,0.549 -1.304,1.52 -2.177,2.75c-1.484,2.09 -2.887,9.92 -3.276,12.224h-4.624c0.33,-2.856 1.846,-14.367 5.133,-18.55" fill="#333433"/><path d="M234.779,171.177h-3.79c-1.082,0 -1.96,-2.316 -1.96,-3.375h7.711c0,1.059 -0.877,3.375 -1.961,3.375" data-paper-data="{&quot;origPos&quot;:null}" fill="#9e733f"/><path d="M229.854,170.32c-0.42695,-0.68021 -0.70315,-1.44404 -0.81,-2.24c2.54376,0.41337 5.13832,0.40391 7.679,-0.028l-0.013,0.013l-6.855,2.255" fill="#eeac6c"/><path d="M219.17,180.718c0.027,-0.123 0.103,-0.202 0.17,-0.341c0.053,0.053 0.316,-0.124 0.44,-0.212c1.153,-0.789 3.745,-3.57 3.764,-9.669l0.009,-0.01c1.14,-0.72 3.27,-1.11 4.939,-1.314c0,0 0.311,11.177 4.31,11.166c3.988,-0.008 4.225,-11.164 4.225,-11.164c1.507,0.176 3.374,0.504 4.547,1.09c0.14,0.072 0.26,0.127 0.38,0.209c0,0 0.009,0.199 0.035,0.533c0.146,1.742 0.834,7.168 3.757,7.406c1.94,7.534 1.259,19.046 0.79,24.405c-0.164,1.828 -0.495,2.931 -0.495,2.931c0,0 -2.192,9.75 -2.426,14.906h-10.103c0.04,-1.305 -0.512,-7.502 -0.512,-7.502h-0.288c0,0 -0.575,5.807 -0.512,7.502h-10.105c-0.273,-4.371 -2.584,-14.906 -2.584,-14.906c0,0 -0.361,-1.112 -0.561,-2.933c-0.538,-4.886 -1.316,-14.855 0.22,-22.097" fill="#6a833c"/><path d="M240.916,169.987c-0.552,3.105 2.624,9.923 5.249,10.322c-0.121,-0.654 -0.263,-1.288 -0.418,-1.897c-2.923,-0.24 -3.613,-5.663 -3.757,-7.405c-0.028,-0.337 -0.036,-0.534 -0.036,-0.534c-0.12,-0.084 -0.24,-0.138 -0.38,-0.208c-0.2,-0.101 -0.423,-0.193 -0.658,-0.278M219.007,181.548c2.709,0.348 6.318,-8.16 5.69,-11.586c-0.40005,0.13009 -0.78388,0.30557 -1.144,0.523l-0.009,0.013c-0.017,6.096 -2.609,8.878 -3.765,9.666c-0.124,0.09 -0.386,0.268 -0.44,0.213c-0.067,0.14 -0.142,0.22 -0.17,0.34c-0.056,0.274 -0.111,0.551 -0.161,0.831M232.817,181.747c-4.126,0.013 -5.113,-9.099 -5.332,-12.434c0.346,-0.055 0.684,-0.102 1.007,-0.14c0,0 0.311,11.176 4.31,11.166c3.99,-0.008 4.224,-11.164 4.224,-11.164c0.324,0.039 0.674,0.084 1.024,0.137c-0.198,3.33 -1.116,12.427 -5.233,12.435" fill="#eeeeed"/><path d="M210.318,148.861c-0.17216,-1.13656 -0.25841,-2.28448 -0.258,-3.434c0,-12.61 10.262,-22.835 22.922,-22.835c12.659,0 22.92,10.226 22.92,22.835c0,1.114 -0.079,2.207 -0.234,3.278c1.323,0.722 2.214,2.083 2.214,3.647c0,2.317 -1.956,4.194 -4.375,4.194c-0.164,0 -0.325,-0.01 -0.484,-0.026c-4.05561,7.25941 -11.72453,11.75323 -20.04,11.743c-8.30673,0.01097 -15.96923,-4.47336 -20.028,-11.721c-0.073,0.002 -0.14,0.004 -0.209,0.004c-2.417,0 -4.375,-1.877 -4.375,-4.194c0,-1.457 0.772,-2.736 1.947,-3.49" data-paper-data="{&quot;origPos&quot;:null}" fill="#9e733f"/><path d="M228.311,142.65c0,0 -0.503,1.803 -2.082,1.446c-0.772,-0.174 -0.908,-1.201 -3.386,-0.74c-0.779,0.18 -2.417,1.156 -2.732,1.808c-0.316,0.652 -0.088,-2.392 2.457,-3.522c1.835,-0.675 2.457,-0.642 3.977,-0.642c1.52,0 1.987,0.907 1.766,1.65M238.052,142.65c0,0 0.503,1.803 2.082,1.446c0.772,-0.174 0.908,-1.201 3.386,-0.74c0.779,0.18 2.417,1.156 2.732,1.808c0.316,0.652 0.087,-2.392 -2.457,-3.522c-1.835,-0.675 -2.457,-0.642 -3.977,-0.642c-1.52,0 -1.987,0.907 -1.766,1.65" data-paper-data="{&quot;origPos&quot;:null}" fill="#333433"/><path d="M226,150c0,1.657 -0.895,3 -2,3c-1.105,0 -2,-1.343 -2,-3c0,-1.657 0.895,-3 2,-3c1.105,0 2,1.343 2,3M244,150c0,1.657 -0.895,3 -2,3c-1.105,0 -2,-1.343 -2,-3c0,-1.657 0.895,-3 2,-3c1.105,0 2,1.343 2,3" fill="#6172bb"/><path d="M233.02,153.069c-1.125,0.153 -3.02,1.834 -3.02,1.834c0,0 0.207,-1.009 0.503,-1.299c0.8,-1.156 2.487,-1.604 2.487,-1.604c0,0 2.173,0.703 2.65,1.588c0.443,0.824 0.34,1.238 0.34,1.238c0,0 -2.121,-1.871 -2.96,-1.756z" fill="#eeac6c"/><path d="M226.2,156.696c0,0 6.897,3.208 13.172,-0.397c0,0 -1.39,5.47 -5.95,5.561c-4.115,0.122 -4.984,-1.492 -5.477,-1.956c-0.492,-0.463 -1.42,-1.772 -1.745,-3.208" fill="#eeac6c"/><path d="M241.698,150.475c0,-1.417 0.851,-2.563 1.901,-2.563c1.05,0 1.902,1.146 1.902,2.563c0,1.414 -0.852,2.563 -1.902,2.563c-1.049,0 -1.901,-1.149 -1.901,-2.563M221.264,150.475c0,-1.417 0.851,-2.563 1.901,-2.563c1.052,0 1.904,1.146 1.904,2.563c0,1.414 -0.852,2.563 -1.904,2.563c-1.049,0 -1.901,-1.149 -1.901,-2.563" fill="#ffffff"/><path d="M242.422,151.182c0,-0.876 0.527,-1.585 1.177,-1.585c0.652,0 1.177,0.709 1.177,1.585c0,0.876 -0.525,1.586 -1.177,1.586c-0.65,0 -1.177,-0.709 -1.177,-1.586M221.988,151.182c0,-0.876 0.527,-1.585 1.177,-1.585c0.652,0 1.179,0.709 1.179,1.585c0,0.876 -0.527,1.586 -1.179,1.586c-0.65,0 -1.177,-0.709 -1.177,-1.586" fill="#ad6920"/><path d="M256.716,142.677c0.035,2.669 -1.157,6.38 -1.157,6.38c0,0 -6.057,-7.142 -9.75,-9.144c-4.519,-2.449 -6.767,1.158 -10.804,-2.016c-0.669,-0.53 -1.915,-1.92 -1.915,-1.92c0,0 -1.516,1.526 -1.92,1.92c-4.537,4.423 -7.939,-0.741 -11.762,1.931c-4.859,3.405 -8.971,9.066 -8.971,9.066c0,0 -1.411,-1.611 -1.215,-6.467c0.055,-1.399 0.739,-4.502 1.845,-7.656c4.016,-8.026 12.334,-13.539 21.944,-13.539c11.034,0 20.369,7.275 23.432,17.271c0.15475,1.38676 0.24585,2.77989 0.273,4.175" data-paper-data="{&quot;origPos&quot;:null}" fill="#333433"/><path d="M257.522,146.827l-8.776,1.335c0.394,1.393 1.137,4.952 -0.193,6.735c-2.072,2.769 -11.708,-0.93 -13.856,-3.638c-0.773,-0.965 -0.812,-3.107 -1.7,-3.105c-0.891,0.002 -0.919,2.151 -1.686,3.118c-2.151,2.706 -11.789,6.377 -13.859,3.612c-1.334,-1.785 -0.585,-5.327 -0.194,-6.72l-9.061,-1.337h49.323z" fill="#343434"/><path d="M220.844,149.288c0.08681,0.13213 0.11676,0.29366 0.08308,0.44813c-0.03368,0.15447 -0.12814,0.28887 -0.26208,0.37287l-2.075,1.333c-0.13279,0.08596 -0.29434,0.1155 -0.44896,0.0821c-0.15462,-0.0334 -0.28957,-0.12699 -0.37504,-0.2601l-0.005,-0.004c-0.17757,-0.27674 -0.09748,-0.64501 0.179,-0.823l2.076,-1.33c0.27674,-0.17804 0.64524,-0.09997 0.826,0.175zM219.993,152.201c-0.01386,0.35751 -0.30772,0.6402 -0.6655,0.6402c-0.35778,0 -0.65164,-0.28268 -0.6655,-0.6402c0.01386,-0.35751 0.30772,-0.6402 0.6655,-0.6402c0.35778,0 0.65164,0.28268 0.6655,0.6402" fill="#515151"/><path d="M257.522,146.804l-8.776,1.348c0.004,0.022 0.039,0.082 0.017,0.077c-5.971,-1.232 -15.504,0 -15.504,0c-0.16141,-0.10009 -0.36559,-0.10009 -0.527,0c0,0 -8.909,-1.401 -15.494,0c-0.02,0.005 0.014,-0.053 0.02,-0.075l-9.062,-1.35z" fill="#0771b7"/><path d="M265.208,160.294l1.452,1.976l-59.486,43.361l-1.45,-1.978z" fill="#c6c5c6"/><path d="M266.66,162.271c-0.568,-0.233 -1.47,-1.367 -1.452,-1.978c7.163,-7.352 8.322,-16.281 14.805,-18.572c6.481,-2.282 14.321,-1.253 14.827,3.182c0.606,5.345 -10.144,13.333 -15.16,15.326c-3.059,1.213 -7.29,-0.246 -13.02,2.042" fill="#ef8214"/><path d="M268.314,160.821l-1.1,-1.496c7.202,-5.25 22.837,-15.041 22.837,-15.041c0,0 -14.213,11.533 -21.737,16.536z" fill="#cb6f1a"/><path d="M268.314,160.82l-0.521,-0.709l22.258,-15.827c0,0 -14.213,11.533 -21.737,16.537" fill="#f3ab6c"/><path d="M206.126,204.427l-0.51,-0.697l4.022,-2.931l0.51,0.694z" fill="#cb6f1a"/><path d="M211.127,202.774c-4.184,4.395 -4.692,8.001 -6.923,10.348c-3.651,3.848 -14.527,11.665 -18.66,10.555c-3.43,-0.921 -1.11,-7.414 3.37,-12.415c4.485,-5.01 12.27,-4.922 21.18,-9.896c0.508,0.058 1.071,0.919 1.033,1.408" fill="#ef8214"/><path d="M209.249,203.969c-7.133,5.54 -22.304,15.763 -22.304,15.763c0,0 14.334,-11.59 21.523,-16.83l0.78,1.067z" fill="#cb6f1a"/><path d="M209.25,203.969c-7.134,5.539 -22.305,15.763 -22.305,15.763l21.934,-16.269l0.37,0.506" fill="#f3ab6c"/><path d="M264.274,164.01c0.258,0.514 0.344,0.909 0.198,1.016c-0.15,0.107 -0.501,-0.092 -0.914,-0.495zM262.818,162.035l-0.71,0.518c-0.249,-0.503 -0.333,-0.891 -0.186,-0.998c0.146,-0.105 0.494,0.09 0.896,0.48" fill="#ef8214"/><path d="M263.558,164.531c-0.28971,-0.28577 -0.55591,-0.59444 -0.796,-0.923c-0.24741,-0.33256 -0.46619,-0.68549 -0.654,-1.055l0.35,-0.334c0.184,0.317 0.418,0.737 0.691,1.108c0.267,0.364 0.583,0.733 0.841,0.973zM214.174,200.529c0.256,0.512 0.347,0.906 0.198,1.015c-0.15,0.105 -0.503,-0.096 -0.914,-0.497zM212.72,198.553l-0.711,0.517c-0.247,-0.504 -0.333,-0.892 -0.187,-1c0.146,-0.106 0.492,0.093 0.899,0.483" data-paper-data="{&quot;origPos&quot;:null}" fill="none"/><path d="M213.458,201.048c-0.29092,-0.28487 -0.55627,-0.59472 -0.793,-0.926c-0.24823,-0.33154 -0.46801,-0.68346 -0.657,-1.052l0.351,-0.337c0.185,0.32 0.415,0.742 0.688,1.11c0.27,0.362 0.585,0.733 0.844,0.975z" fill="#ef8214"/><path d="M258.909,165.393c-0.342,-2.264 0.235,-4.228 1.287,-4.384c1.051,-0.156 2.178,1.554 2.518,3.818c0.34,2.27 -0.238,4.23 -1.288,4.386c-1.05,0.157 -2.179,-1.553 -2.516,-3.82M213.023,199.807c-0.978,-1.901 -1.058,-3.803 -0.176,-4.253l0.888,-0.01c0.815,0.29 1.781,1.275 2.478,2.63c0.979,1.898 1.061,3.805 0.179,4.258c-0.882,0.45 -2.39,-0.725 -3.369,-2.625" data-paper-data="{&quot;origPos&quot;:null}" fill="#9e733f"/></g></g></svg>