<svg version="1.1" xmlns="http://www.w3.org/2000/svg" xmlns:xlink="http://www.w3.org/1999/xlink" width="62.705" height="118.70834" viewBox="0,0,62.705,118.70834"><g transform="translate(-209.385,-119.99998)"><g data-paper-data="{&quot;isPaintingLayer&quot;:true}" fill-rule="evenodd" stroke="none" stroke-width="1" stroke-linecap="butt" stroke-linejoin="miter" stroke-miterlimit="10" stroke-dasharray="" stroke-dashoffset="0" style="mix-blend-mode: normal"><path d="M209.385,233.921h10.354v3.808h-10.354z" fill="#994c34"/><path d="M221.577,232.213v3.806l-1.837,1.71v-3.806z" fill="#6b2c1e"/><path d="M221.578,232.213l-1.838,1.71h-10.355l1.842,-1.71z" fill="#af5a41"/><path d="M212.316,233.438c0,0.108 -0.335,0.189 -0.737,0.189c-0.398,0 -0.729,-0.08 -0.729,-0.189c0,-0.102 0.331,-0.181 0.73,-0.181c0.401,0 0.736,0.079 0.736,0.181M214.6,233.438c0,0.108 -0.332,0.189 -0.734,0.189c-0.405,0 -0.726,-0.08 -0.726,-0.189c0,-0.102 0.32,-0.181 0.726,-0.181c0.402,0 0.733,0.079 0.733,0.181M217.079,233.438c0,0.108 -0.331,0.189 -0.735,0.189c-0.404,0 -0.727,-0.08 -0.727,-0.189c0,-0.102 0.323,-0.181 0.727,-0.181c0.404,0 0.735,0.079 0.735,0.181M219.427,233.438c0,0.108 -0.329,0.189 -0.736,0.189c-0.402,0 -0.733,-0.08 -0.733,-0.189c0,-0.102 0.33,-0.181 0.733,-0.181c0.407,0 0.736,0.079 0.736,0.181M213.206,232.746c0,0.1 -0.328,0.181 -0.732,0.181c-0.408,0 -0.737,-0.08 -0.737,-0.18c0,-0.11 0.329,-0.188 0.737,-0.188c0.404,0 0.733,0.077 0.733,0.187M215.49,232.746c0,0.1 -0.331,0.181 -0.735,0.181c-0.404,0 -0.727,-0.08 -0.727,-0.18c0,-0.11 0.323,-0.188 0.727,-0.188c0.404,0 0.735,0.077 0.735,0.187M217.963,232.746c0,0.1 -0.33,0.181 -0.73,0.181c-0.406,0 -0.73,-0.08 -0.73,-0.18c0,-0.11 0.324,-0.188 0.73,-0.188c0.4,0 0.73,0.077 0.73,0.187M220.318,232.746c0,0.1 -0.323,0.181 -0.735,0.181c-0.396,0 -0.725,-0.08 -0.725,-0.18c0,-0.11 0.33,-0.188 0.725,-0.188c0.412,0 0.735,0.077 0.735,0.187" fill="#6b2c1e"/><path d="M219.9,233.921h10.356v3.808h-10.356z" fill="#994c34"/><path d="M232.103,236.02l-1.847,1.71v-3.807l1.847,-1.712z" fill="#6b2c1e"/><path d="M221.744,232.212h10.359l-1.848,1.71h-10.355z" fill="#af5a41"/><path d="M222.838,233.438c0,0.108 -0.324,0.189 -0.73,0.189c-0.403,0 -0.732,-0.08 -0.732,-0.189c0,-0.102 0.329,-0.181 0.733,-0.181c0.405,0 0.729,0.079 0.729,0.181M225.123,233.438c0,0.108 -0.33,0.189 -0.735,0.189c-0.4,0 -0.733,-0.08 -0.733,-0.189c0,-0.102 0.333,-0.181 0.733,-0.181c0.406,0 0.735,0.079 0.735,0.181M227.604,233.438c0,0.108 -0.33,0.189 -0.736,0.189c-0.402,0 -0.733,-0.08 -0.733,-0.189c0,-0.102 0.33,-0.181 0.733,-0.181c0.405,0 0.736,0.079 0.736,0.181M229.943,233.438c0,0.108 -0.325,0.189 -0.727,0.189c-0.403,0 -0.726,-0.08 -0.726,-0.189c0,-0.102 0.323,-0.181 0.726,-0.181c0.402,0 0.727,0.079 0.727,0.181M223.724,232.746c0,0.1 -0.325,0.181 -0.728,0.181c-0.406,0 -0.735,-0.08 -0.735,-0.18c0,-0.11 0.329,-0.188 0.734,-0.188c0.404,0 0.73,0.077 0.73,0.187M226.011,232.746c0,0.1 -0.326,0.181 -0.73,0.181c-0.406,0 -0.739,-0.08 -0.739,-0.18c0,-0.11 0.333,-0.188 0.739,-0.188c0.404,0 0.73,0.077 0.73,0.187M228.489,232.746c0,0.1 -0.33,0.181 -0.735,0.181c-0.404,0 -0.732,-0.08 -0.732,-0.18c0,-0.11 0.328,-0.188 0.732,-0.188c0.404,0 0.735,0.077 0.735,0.187M230.832,232.746c0,0.1 -0.32,0.181 -0.727,0.181c-0.402,0 -0.727,-0.08 -0.727,-0.18c0,-0.11 0.325,-0.188 0.727,-0.188c0.408,0 0.727,0.077 0.727,0.187" fill="#6b2c1e"/><path d="M214.498,230.116h10.353v3.806h-10.353z" fill="#994c34"/><path d="M226.696,232.212l-1.845,1.71v-3.805l1.845,-1.71z" fill="#6b2c1e"/><path d="M216.345,228.409h10.35l-1.843,1.707h-10.353z" fill="#af5a41"/><path d="M217.432,229.63c0,0.106 -0.32,0.193 -0.726,0.193c-0.404,0 -0.735,-0.087 -0.735,-0.193c0,-0.1 0.33,-0.18 0.735,-0.18c0.405,0 0.726,0.08 0.726,0.18M219.725,229.63c0,0.106 -0.33,0.193 -0.734,0.193c-0.396,0 -0.735,-0.087 -0.735,-0.193c0,-0.1 0.339,-0.18 0.735,-0.18c0.403,0 0.734,0.08 0.734,0.18M222.2,229.63c0,0.106 -0.328,0.193 -0.732,0.193c-0.404,0 -0.735,-0.087 -0.735,-0.193c0,-0.1 0.331,-0.18 0.735,-0.18c0.404,0 0.733,0.08 0.733,0.18M224.542,229.63c0,0.106 -0.32,0.193 -0.723,0.193c-0.408,0 -0.727,-0.087 -0.727,-0.193c0,-0.1 0.32,-0.18 0.727,-0.18c0.404,0 0.723,0.08 0.723,0.18M218.327,228.939c0,0.1 -0.325,0.183 -0.727,0.183c-0.406,0 -0.733,-0.083 -0.733,-0.183c0,-0.108 0.327,-0.19 0.733,-0.19c0.402,0 0.727,0.082 0.727,0.19M220.614,228.939c0,0.1 -0.333,0.183 -0.73,0.183c-0.405,0 -0.741,-0.083 -0.741,-0.183c0,-0.108 0.336,-0.19 0.74,-0.19c0.398,0 0.73,0.082 0.73,0.19M223.091,228.939c0,0.1 -0.33,0.183 -0.736,0.183c-0.402,0 -0.733,-0.083 -0.733,-0.183c0,-0.108 0.33,-0.19 0.733,-0.19c0.406,0 0.736,0.082 0.736,0.19M225.434,228.939c0,0.1 -0.325,0.183 -0.73,0.183c-0.402,0 -0.727,-0.083 -0.727,-0.183c0,-0.108 0.325,-0.19 0.727,-0.19c0.405,0 0.73,0.082 0.73,0.19" fill="#6b2c1e"/><path d="M217.044,165.58c1.158,-0.491 2.559,-0.04 3.69,1.05c0.511,-0.776 1.122,-1.207 1.685,-1.095c1.058,0.207 1.548,2.218 1.103,4.482c-0.171,0.875 -0.445,1.658 -0.794,2.272c-0.041,0.293 -0.11,0.56 -0.202,0.808h0.003l5.342,6.27l11.326,-4.058c0,0 -1.924,3.055 -2.399,4.164c-0.35,0.813 -1.022,3.382 -1.022,3.382c0,0 -8.271,3.354 -10.619,2.51c-2.903,-1.052 -6.228,-10.491 -6.228,-10.491c-1.253,-0.44 -2.462,-1.643 -3.158,-3.28c-1.08,-2.567 -0.52,-5.26 1.273,-6.013" data-paper-data="{&quot;origPos&quot;:null}" fill="#75584a"/><path d="M258.011,232.931h-9.328c-0.061,0.261 0.02,0.573 0.195,0.833c0.551,0.855 1.511,1.533 2.328,2.11c1.265,0.865 2.863,1.316 4.263,1.983c1.266,0.53 2.928,1.49 4.061,0.23c1.501,-1.798 0.229,-4.078 -1.519,-5.157zM238.076,232.931h9.336c0.067,0.261 -0.021,0.573 -0.191,0.833c-0.551,0.855 -1.516,1.533 -2.324,2.11c-1.27,0.865 -2.87,1.316 -4.274,1.983c-1.271,0.53 -2.936,1.49 -4.066,0.23c-1.497,-1.798 -0.224,-4.078 1.519,-5.157z" fill="#684516"/><path d="M260.116,207.56l-1.905,25.437h-9.658l-0.364,-18.394h-0.284l-0.366,18.394h-9.651l-1.913,-25.437z" fill="#0771b7"/><path d="M265.12,180.798c3.557,4.54 4.918,18.202 4.918,18.202c0,0 -0.004,-0.021 -0.004,-0.06c0.455,0.668 0.782,1.528 0.882,2.49c0.24,2.278 -0.856,4.267 -2.444,4.436c-1.034,0.108 -2.035,-0.584 -2.665,-1.714c-0.593,0.484 -1.168,0.681 -1.59,0.457c-0.78,-0.41 -0.693,-2.117 0.201,-3.805c0.341,-0.64 0.755,-1.19 1.172,-1.603c0.032,-0.069 0.065,-0.136 0.11,-0.2c0,0 -1.553,-9.872 -3.2,-12.207c-0.83,-1.169 -1.36,-1.822 -1.556,-2.345c-0.146,-0.411 -0.311,-1.21 -0.378,-1.507c-0.538,-2.347 -3.433,-7.633 -3.433,-7.633c0,0 6.25,3.276 7.989,5.489" data-paper-data="{&quot;origPos&quot;:null}" fill="#75584a"/><path d="M229.34,178.533c0,0 2.349,-1.084 10.326,-3.459c2.224,-1.064 6.695,-1.312 6.695,-1.312l1.71,0.057h0.136l1.706,-0.031c0,0 5.074,0.202 7.09,1.448v0.007c7.832,3.012 10.123,7.922 10.123,7.922c-0.804,3.16 -5.307,3.168 -5.307,3.168l-0.437,-0.646c1.952,9.612 2.204,21.874 2.204,21.874h-30.896c0,0 0.299,-14.774 2.83,-24.584l-4.841,1.916c0,0 -2.147,-3.695 -1.34,-6.36" fill="#e63744"/><path d="M258.815,175.317c2.387,7.57 6.508,27.861 4.647,32.345c-1.919,2.12 -14.125,0.094 -15.332,-0.104c-1.2,0.198 -13.416,2.224 -15.34,0.104c-1.864,-4.484 2.255,-24.775 4.642,-32.345c1.348,-1.157 6.41,-1.529 6.41,-1.529l4.288,5.672l4.276,-5.672c0,0 5.062,0.372 6.409,1.529" fill="#f08314"/><path d="M263.909,202.97c0.035,1.11 0.016,2.097 -0.069,2.916h-31.432c-0.08551,-0.96952 -0.10822,-1.94355 -0.068,-2.916h7.945v-28.696c1.106,-0.22 2.245,-0.356 2.92,-0.424v29.118h9.847v-29.12c0.98097,0.09573 1.95653,0.24058 2.923,0.434v28.688h7.934" fill="#eeeeed"/><path d="M248.13,179.46l0.155,-0.209v28.33c-0.061,-0.012 -0.115,-0.02 -0.155,-0.023c-0.05241,0.0046 -0.1045,0.01228 -0.156,0.023v-28.33z" fill="#a55516"/><path d="M270.058,153.873c1.141,0.724 1.888,1.972 1.888,3.378c0,2.241 -1.902,4.067 -4.23,4.067c-0.069,0 -0.136,0 -0.203,-0.01c-3.783,6.782 -11.034,11.37 -19.362,11.37c-8.324,0 -15.58,-4.595 -19.36,-11.388c-0.167,0.017 -0.311,0.027 -0.473,0.027c-2.341,0 -4.231,-1.826 -4.231,-4.066c0,-1.509 0.865,-2.833 2.14,-3.531c-0.146,-1.039 -0.226,-2.101 -0.226,-3.173c0,-12.223 9.92,-22.133 22.15,-22.133c12.242,0 22.165,9.911 22.165,22.133c-0.00321,1.11354 -0.08945,2.22529 -0.258,3.326" data-paper-data="{&quot;origPos&quot;:null}" fill="#75584a"/><path d="M241.229,150.096c-0.772,-0.174 -0.908,-1.201 -3.386,-0.74c-0.779,0.18 -2.417,1.156 -2.732,1.808c-0.316,0.652 -0.088,-2.392 2.457,-3.522c1.835,-0.675 2.457,-0.642 3.977,-0.642c1.52,0 1.987,0.907 1.766,1.65c0,0 -0.503,1.803 -2.082,1.446zM255.134,150.096c0.772,-0.174 0.908,-1.201 3.386,-0.74c0.779,0.18 2.417,1.156 2.732,1.808c0.316,0.652 0.087,-2.392 -2.457,-3.522c-1.835,-0.675 -2.457,-0.642 -3.977,-0.642c-1.52,0 -1.987,0.907 -1.766,1.65c0,0 0.503,1.803 2.082,1.446z" data-paper-data="{&quot;origPos&quot;:null}" fill="#523415"/><path d="M239,159c-1.105,0 -2,-1.343 -2,-3c0,-1.657 0.895,-3 2,-3c1.105,0 2,1.343 2,3c0,1.657 -0.895,3 -2,3zM257,159c-1.105,0 -2,-1.343 -2,-3c0,-1.657 0.895,-3 2,-3c1.105,0 2,1.343 2,3c0,1.657 -0.895,3 -2,3z" fill="#343434"/><path d="M248.02,159.069c-1.125,0.153 -3.02,1.834 -3.02,1.834c0,0 0.207,-1.009 0.503,-1.299c0.8,-1.156 2.487,-1.604 2.487,-1.604c0,0 2.173,0.703 2.65,1.588c0.443,0.824 0.34,1.238 0.34,1.238c0,0 -2.121,-1.871 -2.96,-1.756z" fill="#eeac6c"/><path d="M241.2,162.696c0,0 6.897,3.208 13.172,-0.397c0,0 -1.39,5.47 -5.95,5.561c-4.115,0.122 -4.984,-1.492 -5.477,-1.956c-0.492,-0.463 -1.42,-1.772 -1.745,-3.208" fill="#eeac6c"/><path d="M271.193,147.657c0.032,2.604 -0.876,8.227 -2.651,11.573c0,0 -4.353,-12.311 -7.946,-14.259c-4.39,-2.39 -15.952,1.047 -19.878,-2.036c-0.646,-0.519 -0.574,-1.676 -0.574,-1.676c0,0 -0.748,1.477 -1.11,1.887c-1.895,2.16 -6.829,5.288 -9.169,6.97c-1.869,1.347 -1.968,1.33 -1.548,9.113c0,0 -3.455,-7.08 -3.268,-11.81c0.061,-1.368 0.719,-4.385 1.796,-7.458c3.893,-7.816 11.978,-13.186 21.32,-13.186c10.722,0 19.784,7.083 22.752,16.823c0.15916,1.34759 0.25128,2.70226 0.276,4.059" data-paper-data="{&quot;origPos&quot;:null}" fill="#343434"/><path d="M246.428,175.209c-1.04,0 -1.873,-2.221 -1.873,-3.236h7.368c0,1.015 -0.839,3.237 -1.873,3.237h-3.622" data-paper-data="{&quot;origPos&quot;:null}" fill="#75584a"/><path d="M245.351,174.523c-0.42,-0.623 -0.715,-1.509 -0.78,-2.136c1.172,0.183 2.369,0.291 3.595,0.291c1.25353,-0.00035 2.50474,-0.10774 3.74,-0.321l-0.012,0.012l-6.544,2.154" data-paper-data="{&quot;origPos&quot;:null}" fill="#eeac6c"/><path d="M224.176,145.824c0,0 7.899,-10.497 23.719,-10.497c13.02,0 24.194,10.497 24.194,10.497c-6.622,8.07 -42.925,8 -47.913,0" fill="#dda20c"/><path d="M224.176,145.824c0,-13.261 10.74,-23.925 23.964,-23.925c13.23,0 23.95,10.664 23.95,23.925h-47.915z" fill="#f6b90c"/><path d="M252.293,143.034h-9.205l-1.587,-21.694c2.5,-1.824 10.386,-1.749 12.38,0zM229.92,129.287l6.136,13.72l-2.927,-16.947c0,0 -3.009,2.104 -3.209,3.227M266.225,129.287l-6.142,13.72l2.925,-16.947c0,0 3.012,2.103 3.217,3.226" fill="#dda20c"/></g></g></svg>