<svg xmlns="http://www.w3.org/2000/svg" width="120" height="120"><g fill="none" fill-rule="evenodd"><path fill="#EDA93A" d="m40.827 78.1 27.315-19.516-15.514 36.032-11.8-16.516zm-22.503-2.466 35.892 50.23 47.603-109.89-83.495 59.66z"/><path fill="#484543" d="m26.209 75.783-.408.29-2.735-3.828.407-.29 2.736 3.828m4.46-3.186-.408.29-2.736-3.828.408-.291 2.736 3.829m4.459-3.187-.407.29-2.736-3.827.408-.29 2.735 3.827m4.459-3.188-.407.292-2.735-3.828.407-.29 2.735 3.826m4.46-3.185-.407.29-2.735-3.826.407-.292 2.735 3.828m4.459-3.187-.407.29-2.735-3.827.407-.291 2.735 3.828m4.461-3.186-.408.29-2.736-3.827.408-.292 2.736 3.829m4.459-3.187-.408.291-2.735-3.828.408-.29 2.735 3.827m4.46-3.186-.408.29-2.735-3.827.407-.291 2.736 3.828m4.459-3.187-.407.291-2.735-3.828.407-.291 2.735 3.828m4.459-3.187-.407.291-2.735-3.827.407-.292 2.735 3.828m4.46-3.187-.407.293-2.736-3.83.408-.29 2.735 3.828m4.46-3.186-.408.29-2.735-3.828.408-.29 2.735 3.828m4.46-3.187-.408.29-2.736-3.828.408-.29 2.736 3.828m4.459-3.187-.407.292-2.735-3.828.407-.292 2.735 3.828m4.459-3.187-.407.291-2.735-3.827.407-.29 2.735 3.826m4.46-3.186-.407.292-2.735-3.828.407-.291 2.735 3.827"/></g></svg>