<svg xmlns="http://www.w3.org/2000/svg" width="77.375" height="117.494"><g fill-rule="evenodd" stroke-miterlimit="10" data-paper-data="{&quot;isPaintingLayer&quot;:true}" style="mix-blend-mode:normal"><path fill="#814915" d="M52.242 112.051c1.676 1.029 2.894 3.136 1.454 4.856-1.079 1.209-2.671.257-3.881-.25-1.338-.636-2.865-1.088-4.075-1.914-.79-.542-1.701-1.142-2.232-1.952-.164-.252-.243-.502-.183-.74h.006l-.304-10.676h10.197l-.967 10.676h-.015m-10.126 0h-.01c.055.231-.022.488-.182.741-.529.808-1.446 1.408-2.226 1.951-1.214.825-2.744 1.278-4.083 1.915-1.21.506-2.808 1.458-3.892.25-1.427-1.72-.213-3.821 1.457-4.857l-.98-10.676h10.215l-.298 10.676z"/><path fill="#ffdc83" d="M13.049 47.528c1.113-.476 2.445-.038 3.537 1.006.479-.739 1.067-1.151 1.602-1.05 1.012.2 1.48 2.117 1.056 4.29a7.426 7.426 0 0 1-.752 2.175c-.043.262-.108.52-.194.772l5.106 5.988 10.833-3.874s-1.842 2.922-2.293 3.981c-.334.781-.98 3.236-.98 3.236s-7.906 3.21-10.158 2.398c-2.774-1-5.957-10.032-5.957-10.032v-.006c-1.195-.419-2.349-1.562-3.01-3.133-1.046-2.459-.502-5.03 1.21-5.751m45.983 14.556c3.4 4.34 4.71 17.41 4.71 17.41s0-.019-.01-.057c.44.636.747 1.455.846 2.373.232 2.187-.82 4.09-2.34 4.253-.99.1-1.941-.562-2.549-1.642-.567.463-1.123.65-1.52.438-.748-.392-.657-2.028.194-3.64a6.198 6.198 0 0 1 1.118-1.531c.038-.067.065-.13.103-.194 0 0-1.478-9.442-3.057-11.671-.792-1.122-1.3-1.748-1.482-2.247-.15-.397-.301-1.157-.364-1.446-.51-2.24-3.287-7.295-3.287-7.295s5.974 3.13 7.638 5.249" data-paper-data="{&quot;origPos&quot;:null}"/><path fill="#e63744" d="M24.824 59.896s2.239-1.042 9.877-3.311c2.116-1.009 6.4-1.215 6.4-1.215l1.63.09h.137l1.627-.059s4.853.175 6.782 1.358c7.49 2.88 9.687 7.569 9.687 7.569-.772 3.025-5.075 3.025-5.075 3.025l-.428-.581c1.872 9.204 2.108 20.962 2.108 20.962H44.723l-1.89-2.366-1.875 2.366h-12.93s.283-14.164 2.705-23.556l-4.635 1.821s-2.05-3.553-1.274-6.103"/><path fill="#ba3b4b" d="M29.033 61.581h2.494v2.31h-2.494zm-.003 16.927v-2.487h2.495v2.487h-2.494zm.003 2.427h2.494v2.31h-2.494zm4.922-19.354h2.304v2.31h-2.304zm0 4.736h2.304v2.49h-2.304zm0 4.91h2.304v2.37h-2.304zm0 4.797h2.304v2.486h-2.304zm0 4.911h2.304v2.31h-2.304zm4.737-24.267h2.49v2.49h-2.49zm0 4.913h2.49v2.31h-2.49zm0 4.736h2.49v2.49h-2.49zm0 4.91h2.49v2.37h-2.49zm0 4.797h2.49v2.486h-2.49zm0 4.911h2.49v2.31h-2.49zm4.921-21.777v-2.49h2.371v2.49h-2.372zm0 4.733v-2.31h2.371v2.31h-2.372zm0 4.916v-2.49h2.371v2.49h-2.372zm0 4.79v-2.37h2.371v2.37h-2.372zm0 4.913v-2.486h2.371v2.486h-2.372zm0 4.735v-2.31h2.371v2.31h-2.372zm4.8-24.087v-2.49h2.491v2.49h-2.492zm0 4.733v-2.31h2.491v2.31h-2.492zm0 4.916v-2.49h2.491v2.49h-2.492zm0 4.79v-2.37h2.491v2.37h-2.492zm0 4.913v-2.486h2.491v2.486h-2.492zm0 4.735v-2.31h2.491v2.31h-2.492zm4.92-21.664h2.31v2.31h-2.31zm0 9.647h2.31v2.368h-2.31zm0 4.796h2.31v2.486h-2.31zm0 4.911h2.31v2.31h-2.31zM24.815 59.898s1.06-.497 4.218-1.545v.806h2.492v-1.608c.727-.23 1.574-.476 2.43-.747v2.354h2.302v-2.49h-1.84c.091 0 .185-.053.283-.084 2.118-1.007 6.4-1.215 6.4-1.215l1.631.09h.135l1.63-.056s4.85.175 6.78 1.355c.701.263 1.388.563 2.057.9v1.5h2.311v-.202c1.177.75 2.265 1.63 3.244 2.625h-.818v2.31h2.499v-.23c.3.418.39.668.39.668-.234.907-.782 1.543-1.438 1.987h-1.45v.676c-1.152.36-2.192.36-2.192.36l-.235-.32v-.716h-2.31v2.49h2.311v-1.09c1.701 9.044 1.926 20.017 1.926 20.017h-1.927V85.67h-2.31v2.063h-2.429V85.67h-2.491v2.063h-2.429V85.67h-2.371v.686l-.783-.99-1.65 2.07V85.67h-2.488v2.063h-2.435V85.67h-2.302v2.063h-2.43V85.67h-2.492v2.063h-1.005c.133-4.725.476-9.442 1.03-14.137h2.467v-2.368h-2.155c.112-.785.24-1.63.382-2.422h1.773v-2.49h-1.295c.156-.727.321-1.448.502-2.137l-4.636 1.822s-.514-.893-.927-2.11h1.436v-2.31h-1.947c-.044-.604-.004-1.151.156-1.684z"/><path fill="#9b1826" d="M50.904 59.158h2.429v2.423h-2.429zm4.739 2.423h2.426v-.77a18.934 18.934 0 0 0-2.116-1.653h-.31zm.001 2.31h2.426v2.425h-2.426zm-4.74 0h2.429v2.425h-2.429zm-4.92-4.733h2.429v2.423h-2.429zm0 4.733h2.429v2.425h-2.429zm-4.804 0h2.43v2.425h-2.43zm-4.923-4.733h2.433v2.423h-2.433zm0 4.733h2.433v2.425h-2.433zm-4.732-4.733h2.428v2.423h-2.428zm0 4.733h2.428v2.425h-2.428zm-4.811-4.733c-.037 0-.048.027-.107.04v2.383h2.427v-2.423h-2.32m2.318 4.733h-2.424v1.905l2.424-.953zm7.226-7.848v.626h2.433v-1.076c-.819.105-1.631.256-2.433.451zm14.872.625c-.069-.033-.165-.07-.225-.11v.11h.225m-.226 12.139h2.429v2.421h-2.429zm-4.92 0h2.429v2.421h-2.429zm-4.804 0h2.43v2.421h-2.43zm-4.923 0h2.433v2.421h-2.433zm-4.732 0h2.428v2.421h-2.428zm19.379 4.791h2.429v2.426h-2.429zm-4.92 0h2.429v2.426h-2.429zm-4.804 0h2.43v2.426h-2.43zm-4.923 0h2.433v2.426h-2.433zm-4.732 0h2.428v2.426h-2.428zm19.379 4.912h2.429v2.425h-2.429zm-4.92 0h2.429v2.425h-2.429zm-4.804 0h2.43v2.425h-2.43zm-4.923 0h2.433v2.425h-2.433zm-4.732 0h2.428v2.425h-2.428zm19.379 4.734h2.429v2.426h-2.429zm-4.92 0h2.429v2.426h-2.429zm-4.803 2.424h1.414l.239-.3.24.301h.537v-2.425H41.18zm-4.924-2.424h2.433v2.426h-2.433zm-4.732 0h2.428v2.426h-2.428zm24.118-12.017h.584c-.12-.806-.243-1.625-.378-2.42h-.206zm0 4.795h1.174c-.086-.8-.172-1.608-.272-2.425h-.902zm0 4.912h1.592c-.06-.765-.118-1.581-.188-2.426h-1.404zm0 2.309v2.426h1.853c-.022-.676-.062-1.499-.112-2.425h-1.741zm-26.611-9.55c-.063.786-.166 1.544-.246 2.329h.246v-2.328m-.669 7.241h.668v-2.426h-.48c-.074.851-.139 1.64-.188 2.425zm-.271 4.734h.94v-2.425h-.818c-.051.907-.087 1.755-.123 2.425zm13.679-26.51h-.59v2.423h2.43v-2.225l-.835 1.183zm4.548-3.623-.335.472v.66h2.428v-.833a24.178 24.178 0 0 0-2.092-.299z"/><path fill="#ffdc83" d="m42.788 60.54-3.672-4.996c.66-.081 1.32-.14 1.984-.175l1.632.09h.134l1.63-.056s.78.025 1.83.133z" data-paper-data="{&quot;origPos&quot;:null}"/><path fill="#9b1826" d="M55.913 67.634c-1.26-1.26-.913-2.782-.397-3.465.787-1.05 3.27-1.77 4.56-1.498.846.178 2.066 1.915 1.6 3.084-.52 1.326-4.756 2.882-5.763 1.88M22.85 60.984c1.008-1.66 2.388-2 3.13-1.535 1.303.815 2.423 4.339 1.999 5.819-.249.855-2.159 1.754-3.335 1.293-1.322-.522-2.534-4.367-1.794-5.577"/><path fill="#343434" d="M42.642 60.554h.37v24.813h-.369z"/><path fill="#fddfbb" d="M43.396 63.809a.402.402 0 0 1 .396-.405.404.404 0 1 1 0 .809.401.401 0 0 1-.396-.404m-.001 4.128a.405.405 0 1 1 .808 0 .405.405 0 0 1-.807 0m0 3.639a.404.404 0 1 1 .687.289.408.408 0 0 1-.291.117.406.406 0 0 1-.396-.406m0 4.067a.402.402 0 0 1 .396-.405.404.404 0 0 1 .414.405.405.405 0 1 1-.81 0m0 3.698a.399.399 0 0 1 .396-.404.401.401 0 0 1 .413.404.402.402 0 0 1-.413.402.4.4 0 0 1-.396-.402"/><path fill="#0771b7" d="M57.255 81.231c.258 3.783.308 6.446.308 6.446 0 3.831-4.339 13.69-4.339 13.69l-10.243-.006-.139-6.966h-.27l-.143 6.966-10.239.013s-4.175-9.845-4.175-13.693c0 0 .057-2.667.315-6.45 4.992-4 7.103-12.499 7.103-12.499V56.308a14.75 14.75 0 0 1 2.37-.56v12.984h9.959V55.729c.791.12 1.651.297 2.368.535v12.459s2.127 8.508 7.125 12.508"/><path fill="#0b4768" d="M56.072 87.252c-2.948 0-6.637-1.16-7.98-3.377-.021-.027-.008-.065.017-.085.025-.011.065-.005.084.02 1.328 2.181 4.967 3.318 7.878 3.318.036 0 .063.025.063.061a.062.062 0 0 1-.063.063m-26.701 0c2.947 0 6.632-1.16 7.983-3.377a.07.07 0 0 0-.025-.085c-.025-.011-.066-.005-.078.02-1.326 2.181-4.973 3.318-7.88 3.318a.059.059 0 0 0-.06.061c0 .036.026.063.06.063"/><path fill="#0c6084" d="M47.762 73.584v4.914a4.852 4.852 0 0 1-4.859 4.855h-.242a4.859 4.859 0 0 1-4.858-4.855v-4.913h9.96z"/><path fill="#9b1826" d="m43.95 58.894 3.187-4.909s1.19 1.07 1.32 1.384c.116.311-3.86 6.002-3.66 5.17.207-.829-.847-1.646-.847-1.646zm-5.547-4.909s-1.191 1.07-1.316 1.384c-.12.311 3.86 6.002 3.656 5.17-.198-.829.847-1.646.847-1.646z" data-paper-data="{&quot;origPos&quot;:null}"/><path fill="#ffdc83" d="M63.758 36.331c1.088.695 1.803 1.886 1.803 3.236 0 2.141-1.809 3.884-4.042 3.884-.064 0-.128 0-.194-.006-3.619 6.484-10.557 10.871-18.517 10.871-7.967 0-14.911-4.393-18.529-10.89a3.48 3.48 0 0 1-.45.025c-2.229 0-4.044-1.743-4.044-3.885 0-1.452.822-2.713 2.048-3.38a21.469 21.469 0 0 1-.22-3.038c0-11.686 9.495-21.164 21.195-21.164 11.702 0 21.195 9.478 21.195 21.164 0 1.08-.085 2.141-.245 3.183" data-paper-data="{&quot;origPos&quot;:null}"/><path fill="#2c2c2d" d="M37.95 31.076s-.48 1.695-1.992 1.36c-.738-.164-.868-1.13-3.238-.697-.745.17-2.312 1.087-2.614 1.7-.302.613-.084-2.248 2.35-3.312 1.756-.634 2.351-.603 3.805-.603 1.453 0 1.901.853 1.69 1.552m10.099 0s.48 1.695 1.992 1.36c.738-.164.868-1.13 3.238-.697.745.17 2.312 1.087 2.614 1.7.302.613.084-2.248-2.35-3.312-1.756-.634-2.351-.603-3.805-.603-1.453 0-1.901.853-1.69 1.552M36 38.524c0 1.657-.895 3-2 3s-2-1.343-2-3 .895-3 2-3 2 1.343 2 3m18 0c0 1.657-.895 3-2 3s-2-1.343-2-3 .895-3 2-3 2 1.343 2 3"/><path fill="#e2a86e" d="M40 41.524s.207-1.042.504-1.342c.801-1.195 2.491-1.658 2.491-1.658s2.175.727 2.654 1.641c.443.852.341 1.28.341 1.28s-2.125-1.934-2.965-1.816C41.898 39.787 40 41.524 40 41.524zM36.2 44.22s6.897 3.208 13.172-.397c0 0-1.39 5.47-5.95 5.561-4.115.122-4.984-1.492-5.477-1.956-.492-.463-1.42-1.772-1.745-3.208"/><path fill="#333433" d="M64.841 30.389c.034 2.488-.837 7.863-2.538 11.067 0 0-4.162-11.777-7.602-13.642-4.191-2.282-15.254 1.006-19.002-1.945-.625-.497-.555-1.602-.555-1.602s-.716 1.414-1.06 1.804c-1.819 2.066-6.529 5.059-8.766 6.666-1.8 1.285-1.886 1.273-1.49 8.72 0 0-3.301-6.78-3.116-11.3.051-1.305.684-4.193 1.714-7.133 3.729-7.473 11.458-12.612 20.388-12.612 10.256 0 18.926 6.779 21.774 16.088.148 1.292.233 2.59.253 3.89"/><path fill="#ffdc83" d="M41.152 56.738c-.983 0-1.79-2.122-1.79-3.092h7.045c0 .97-.794 3.092-1.79 3.092h-3.465" data-paper-data="{&quot;origPos&quot;:null}"/><path fill="#eeac6c" d="M40.122 56.085a5.244 5.244 0 0 1-.746-2.053c1.119.187 2.268.284 3.436.284 1.2-.003 2.4-.104 3.584-.303l-.013.013-6.261 2.058"/><path fill="#f7b90b" d="M77.375 20.139c0 3.593-15.522 6.507-34.673 6.507-19.147 0-34.67-2.914-34.67-6.507 0-3.596 15.523-6.516 34.67-6.516 19.15 0 34.673 2.92 34.673 6.516"/><path fill="#d29b0d" d="M52.95 1.724c0 1.124-4.216 4.038-9.425 4.038-5.218 0-9.436-2.914-9.436-4.038C34.089.604 38.307 0 43.525 0c5.209 0 9.425.604 9.425 1.724"/><path fill="#f7b90b" d="M60.209 17.135c-2.968 3.672-30.675 3.352-34.025.017l7.903-15.453c1.438.661 2.924.914 4.14 1.575 5.22 2.83 5.22 2.83 9.957.187 1.392-.778 3.127-.987 4.794-1.762z"/><path fill="#e63744" d="M60.209 17.135c-2.968 3.672-30.675 3.352-34.025.017l2.14-4.175c11.386 2.588 18.528 2.588 29.941 0l1.944 4.158"/><path fill="#ad7144" d="M30.154 116.876c-.168.337-1.168.524-1.48.32L12.686 44.057l1.482-.322z"/><path fill="#d0d0d0" d="m15.276 47.09-2.19.484-1.145-4.103 2.667-.577z"/><path fill="#d0d0d0" d="M16.795 20.433c.182-.358.411-.386.766-.166 0 0 5.43 18.665 4.587 20.987C18.06 43.968 10.163 45.3 4.579 45.08 2.835 43.925 0 24.1 0 24.1c.219-.347.445-.427.765-.176 0 0 4.362 16.157 4.889 16.26.643.129 2.294.047 2.557-.551.181-.406-2.875-16.699-2.875-16.699.224-.347.694-.473 1.014-.223 0 0 3.857 16.265 4.347 16.372.784.188 2.491-.225 3.151-.68.355-.244-2.875-16.702-2.875-16.702.219-.344.689-.47 1.014-.22 0 0 3.83 16.272 4.346 16.375.709.144 2.174-.251 2.8-.606.47-.27-2.338-16.817-2.338-16.817"/><path fill="#ffdc83" d="M19.328 51.484c-.308 2.077-1.34 3.648-2.298 3.5-.968-.143-1.49-1.945-1.18-4.014.31-2.078 1.336-3.647 2.295-3.506.968.15 1.499 1.946 1.183 4.02" data-paper-data="{&quot;origPos&quot;:null}"/></g></svg>