<svg xmlns="http://www.w3.org/2000/svg" width="102.738" height="118.432"><g fill-rule="evenodd" stroke-miterlimit="10" data-paper-data="{&quot;isPaintingLayer&quot;:true}" style="mix-blend-mode:normal"><path fill="#ff83af" d="M65.552 54.874s2.493.167 12.459-1.713c6.153-1.164 13.994-6.807 13.994-6.807l6.96 5.97s-6.402 5.75-12.393 10.503c0 0-13.891 11.63-26.165 7.624 0 0-5.227-9.912 5.145-15.577"/><path fill="#c29b6b" d="m92.895 47.069-1.337-.603a1.729 1.729 0 0 1-.86-2.287 1.74 1.74 0 0 1 2.294-.86l1.334.6a1.73 1.73 0 0 1 .863 2.29 1.74 1.74 0 0 1-2.294.86" data-paper-data="{&quot;origPos&quot;:null}"/><path fill="#c29b6b" d="M100.253 52.02c-2.672 1.906-6.39 1.294-8.301-1.37a5.913 5.913 0 0 1 1.37-8.272 5.966 5.966 0 0 1 8.304 1.37 5.917 5.917 0 0 1-1.373 8.272" data-paper-data="{&quot;origPos&quot;:null}"/><path fill="#f0719e" d="M64.941 68.967c7.396 1.094 14.823-1.962 19.823-4.774-.045.032-.092.065-.137.099-.128.089-.255.178-.394.273-.02.012-.042.028-.062.042-4.499 3.089-14.584 8.842-23.764 5.845 0 0-2.623-4.985-.452-9.907-.117 1.479.048 2.87.31 4.05.506 2.275 2.366 4.03 4.676 4.372"/><path fill="#ff83af" d="M69.811 83.07c0 18.799-11.517 18.512-25.728 18.512-14.207 0-25.728.287-25.728-18.51 0-18.802 11.52-48.934 25.728-48.934 14.21 0 25.728 30.132 25.728 48.934"/><path fill="#e06a94" d="M44.084 81.175c9.858 0 18.822-.372 25.512-2.79.142 1.618.216 3.187.216 4.686 0 18.797-11.518 18.512-25.728 18.512-14.209 0-25.728.285-25.728-18.512.004-1.565.076-3.128.216-4.686 6.689 2.418 15.654 2.79 25.512 2.79"/><path fill="#cc5c84" d="M44.084 96.979c13.362 0 24.342-1.441 25.606-17.238a54.01 54.01 0 0 1 .122 3.33c0 18.798-11.518 18.51-25.728 18.51-14.209 0-25.728.288-25.728-18.51.006-1.111.047-2.222.123-3.33 1.265 15.797 12.245 17.238 25.605 17.238"/><path fill="#bf4772" d="M44.084 99.79c13.968 0 25.33.262 25.71-17.586.006.289.018.583.018.868 0 18.797-11.518 18.51-25.728 18.51-14.209 0-25.728.287-25.728-18.51 0-.285.012-.578.018-.868.382 17.847 11.742 17.587 25.71 17.587"/><path fill="#cc5c84" d="M14.868 85.379a46.05 46.05 0 0 1 3.488-2.307s12.109-.536 20.506 18.403c0 0-6.221 2.82-15.217 3.954-6.158.773-11.916-1.291-13.402-7.293-1.186-4.794.623-9.847 4.625-12.757"/><path fill="#bf4772" d="M23.644 102.777c6.82-.858 12.439-2.194 14.569-3.028.353.713.305.948.648 1.725 0 0-6.221 2.822-15.217 3.955-6.156.774-11.916-1.29-13.401-7.294a12.26 12.26 0 0 1-.28-4.26c.059.542.152 1.08.28 1.61 1.485 6.002 7.245 8.068 13.401 7.292"/><path fill="#cc5c84" d="M11.054 89.983c15.275 5.64 19.643 12.95 19.643 12.95.795 5.668-6.646 8.594-10.861 8.094-3.155-.375-8.732-4.494-9.756-9.444-1.601-7.753.974-11.6.974-11.6"/><path fill="#91415e" d="M35.407 105.755c-.918 2.46-2.671 5.752-6.012 9.426-7.116 7.82-12.565-.486-11.609-3.922.956-3.432 6.984-4.318 10.95-9.015.124-.147.246-.287.37-.417 2.767-2.934 7.71.165 6.301 3.928"/><path fill="#cc5c84" d="M73.228 85.379c4.003 2.91 5.809 7.963 4.627 12.757-1.486 6.002-7.245 8.066-13.4 7.293-8.998-1.133-15.223-3.954-15.223-3.954 8.4-18.94 20.51-18.403 20.51-18.403a46.01 46.01 0 0 1 3.486 2.307"/><path fill="#bf4772" d="M77.854 95.484c.13-.53.223-1.068.28-1.61.152 1.4.07 2.843-.28 4.263-1.485 6.002-7.243 8.066-13.4 7.292-8.996-1.132-15.22-3.954-15.22-3.954.344-.776.463-1.036.817-1.746 2.129.834 7.581 2.19 14.403 3.048 6.157.775 11.915-1.291 13.4-7.293"/><path fill="#cc5c84" d="M77.04 89.983s2.578 3.847.976 11.6c-1.021 4.95-6.601 9.069-9.755 9.444-4.217.5-12.533-1.168-11.738-6.835 0 0 5.247-8.57 20.517-14.21"/><path fill="#91415e" d="M52.688 105.755c-1.408-3.763 3.536-6.862 6.303-3.928.122.13.246.27.37.417 3.966 4.697 9.994 5.583 10.949 9.015.957 3.436-4.492 11.742-11.606 3.922-3.343-3.674-5.095-6.965-6.016-9.426"/><path fill="#b68c5a" d="M14.848 34.61c-.3 4.079-3.862 7.144-7.958 6.844-4.094-.3-7.168-3.85-6.87-7.93.303-4.078 3.865-7.143 7.96-6.843 4.095.3 7.17 3.85 6.868 7.93" data-paper-data="{&quot;origPos&quot;:null}"/><path fill="#aa743b" d="M11.943 33.693c-.183 2.48-2.35 4.344-4.84 4.16-2.489-.182-4.359-2.34-4.177-4.82a4.514 4.514 0 0 1 4.84-4.162 4.507 4.507 0 0 1 4.177 4.822" data-paper-data="{&quot;origPos&quot;:null}"/><path fill="#b68c5a" d="M88.736 40.019c-.3 4.079-3.863 7.144-7.958 6.844-4.095-.3-7.17-3.85-6.868-7.93.301-4.078 3.864-7.143 7.959-6.843 4.093.3 7.167 3.85 6.866 7.93" data-paper-data="{&quot;origPos&quot;:null}"/><path fill="#aa743b" d="M85.832 39.1c-.183 2.48-2.351 4.346-4.842 4.163a4.51 4.51 0 0 1-4.175-4.822 4.515 4.515 0 0 1 4.839-4.161 4.51 4.51 0 0 1 4.178 4.82" data-paper-data="{&quot;origPos&quot;:null}"/><path fill="#e4c626" d="M76.223 14.884c1.329 1.925-.71 5.628-4.56 8.269-3.846 2.642-8.046 3.224-9.376 1.299-.646-.932-.496-2.282.264-3.724a2.344 2.344 0 0 1-.042-.17c-1.309 1.044-2.665 1.494-3.872 1.124-1.191-.367-2.05-1.47-2.545-3.03a2.35 2.35 0 0 1-1.127.355c-.474.017-.935-.128-1.372-.398-.404.818-.977 1.383-1.7 1.586-2.257.632-5.115-2.49-6.38-6.971-1.265-4.483-.461-8.63 1.799-9.261 1.189-.334 2.543.38 3.746 1.78.695-2.125 1.89-3.537 3.3-3.586 1.455-.053 2.788 1.353 3.635 3.54C60.031 1.772 62.952-.594 65.306.13c2.384.733 3.458 4.41 2.875 8.879 1.709-1.23 3.401-1.645 4.541-.92 1.349.858 1.575 3.088.783 5.665 1.218.009 2.191.372 2.717 1.13"/><path fill="#c7ad21" d="M48.543 6.96c11.219.82 20.981 5.354 27.315 11.835-.829 1.483-2.288 3.05-4.195 4.359-3.847 2.64-8.047 3.223-9.377 1.298-.645-.932-.495-2.281.265-3.725a3.523 3.523 0 0 1-.042-.17c-1.312 1.045-2.665 1.495-3.872 1.125-1.191-.367-2.049-1.47-2.545-3.03a2.35 2.35 0 0 1-1.128.355c-.473.017-.933-.128-1.37-.398-.405.818-.978 1.383-1.7 1.586-2.258.632-5.116-2.49-6.38-6.97-.674-2.387-.756-4.674-.35-6.39 1.127.003 2.254.044 3.379.125"/><path fill="#c29b6b" d="M81.324 38.77c-1.143 15.477-18.607 26.809-39.01 25.315-20.406-1.495-36.02-15.25-34.878-30.723 1.14-15.473 18.607-26.807 39.01-25.313C66.848 9.54 82.462 23.298 81.323 38.77" data-paper-data="{&quot;origPos&quot;:null}"/><path fill="#c2ab8e" d="M49.74 58.779c-.122 1.666-2.747 2.834-5.863 2.605-3.117-.228-5.545-1.763-5.421-3.43.122-1.667 2.748-2.833 5.866-2.604 3.116.228 5.542 1.763 5.418 3.43m3.559-45.186c.16 1.983-5.826 4.08-13.37 4.685-7.547.606-13.791-.51-13.952-2.492-.159-1.982 5.826-4.08 13.37-4.685 7.545-.606 13.791.51 13.952 2.492" data-paper-data="{&quot;origPos&quot;:null}"/><path fill="#bf4545" d="M29.645 46.882c-3.073-6.256 2.521-9.217 6.331-6.72 3.806 2.495 6.862 3.695 8.814 3.837 1.947.143 5.144-.6 9.28-2.513 4.133-1.914 9.232 1.828 5.276 7.569-3.956 5.742-15.288 4.824-15.288 4.824s-11.343-.744-14.413-6.998"/><path fill="#fff" d="M55.562 44.083c.029 1.328-3.494 1.654-4.261.542-.288-.414-.311-1.14-.234-1.891a39.973 39.973 0 0 0 3.002-1.247c.2-.094.405-.17.61-.236.425.972.869 2.145.883 2.832"/><path fill="#ff5c5c" d="M44.383 49.49s5.923.39 10.368 2.966c-4.774 1.9-10.693 1.423-10.693 1.423s-5.923-.39-10.367-2.965c4.775-1.901 10.692-1.423 10.692-1.423"/><path fill="#e3ac94" d="M45.075 38.92c-5.068-.37-3.585-3.237-3.585-3.237s-.29 1.943 3.66 2.233c3.947.287 3.95-1.675 3.95-1.675s1.045 3.05-4.025 2.68"/><path fill="#ffa6a6" d="M15.346 33.764c2.951.217 5.202 2.313 5.027 4.685-.174 2.369-2.71 4.117-5.66 3.9-2.951-.216-5.202-2.313-5.027-4.683.175-2.371 2.708-4.117 5.66-3.902m58.056 4.25c2.951.216 5.2 2.313 5.025 4.684-.172 2.37-2.707 4.118-5.66 3.9-2.949-.216-5.2-2.312-5.027-4.682.174-2.372 2.708-4.118 5.662-3.901"/><path fill="#c2ab8e" d="M35.713 33.018c-.008.02-.012.039-.018.056a1.282 1.282 0 0 1-.959.85c-12.92 2.694-17.515-1.891-17.515-1.891-.857-2.062.202-4.53.202-4.53s1.389-3.502 5.76-4.754a14.883 14.883 0 0 1 5.326-.543c5.307.429 8.832 5.762 7.204 10.812" data-paper-data="{&quot;origPos&quot;:null}"/><path fill="#74b4c4" d="M31.419 30.339c-.077 3.362-2.245 6.04-4.84 5.98-2.596-.06-4.638-2.835-4.56-6.197.078-3.361 2.246-6.038 4.84-5.978 2.598.06 4.639 2.834 4.56 6.195"/><path fill="#426770" d="M29.814 30.303c-.052 2.212-1.48 3.974-3.187 3.936-1.71-.04-3.053-1.867-3.002-4.08.051-2.213 1.478-3.974 3.187-3.934 1.708.038 3.052 1.864 3.002 4.078"/><path fill="#fff" d="M27.049 28.428c-.286 1.483-1.448 2.509-2.594 2.289-1.146-.22-1.841-1.602-1.554-3.085.287-1.483 1.449-2.507 2.594-2.287 1.146.22 1.84 1.6 1.554 3.084M29.719 32.699c-.196 1.023-.997 1.73-1.788 1.577-.789-.151-1.27-1.103-1.072-2.126.198-1.023 1-1.73 1.789-1.58.792.15 1.27 1.106 1.071 2.129"/><path fill="#c2ab8e" d="M52.946 33.03c-1.153-5.193 2.878-10.173 8.213-10.096 1.595.022 3.359.308 5.224 1.032 4.234 1.654 5.289 5.27 5.289 5.27s.824 2.553-.223 4.529c0 0-5.001 4.138-17.617.26a1.286 1.286 0 0 1-.874-.937c-.004-.02-.009-.037-.012-.057" data-paper-data="{&quot;origPos&quot;:null}"/><path fill="#74b4c4" d="M57.471 30.76c.235-3.353 2.525-5.926 5.117-5.743 2.591.18 4.498 3.046 4.263 6.4-.236 3.355-2.528 5.928-5.12 5.748-2.588-.184-4.497-3.048-4.26-6.404"/><path fill="#426770" d="M59.074 30.874c.155-2.21 1.663-3.901 3.37-3.783 1.702.12 2.96 2.006 2.802 4.214-.154 2.209-1.663 3.903-3.368 3.783-1.703-.12-2.96-2.006-2.804-4.214"/><path fill="#fff" d="M58.682 28.997c.225-1.496 1.344-2.566 2.495-2.396 1.152.173 1.907 1.524 1.684 3.017-.224 1.496-1.342 2.567-2.496 2.394-1.153-.171-1.907-1.521-1.683-3.015M62.841 32.5c.198-1.024.999-1.73 1.788-1.578.791.152 1.271 1.105 1.072 2.128-.196 1.023-.998 1.729-1.788 1.578-.788-.152-1.27-1.104-1.072-2.127"/><path fill="#c08041" d="M38.862 65.919s4.192 19.058-7.981 17.74c-12.173-1.32-11.858-13.585-.278-20.222l8.26 2.482z"/><path fill="#ab713a" d="M28.056 65.158a7.007 7.007 0 0 0 3.942 3.605c2.452.899 5.2.367 7.142-1.38-.08-.49-.173-.98-.278-1.465l-8.26-2.481c-.89.51-1.74 1.086-2.546 1.72m4.743 14.82c1.094.292 2.04.883 2.858 1.633.329 2.793-.54 7.163-2.664 10.547a1.723 1.723 0 0 1-1.545.79c-.96-.054-2.394-.47-3.621-2.2a1.752 1.752 0 0 1-.232-1.561c.463-1.4 1.918-5.468 1.621-8.853 1.066-.506 2.265-.71 3.583-.356"/><path fill="#85592d" d="M30.629 89.903c1.172.62 1.894 1.546 1.616 2.065-.277.52-1.45.437-2.619-.185-1.171-.62-1.895-1.545-1.618-2.065.277-.52 1.451-.435 2.621.185"/><path fill="#ab713a" d="M23.482 77.089c1.193.657 1.918 1.634 2.331 2.732-2.568 2.234-4.15 5.114-4.788 6.44a1.762 1.762 0 0 1-1.255.963c-2.089.397-3.41-.295-4.138-.918a1.71 1.71 0 0 1-.565-1.64c.829-3.905 3.037-6.595 5.22-8.377 1.109.023 2.202.255 3.195.8"/><path fill="#85592d" d="M18.34 84.679c1.275.36 2.179 1.114 2.015 1.68-.16.566-1.327.73-2.6.368-1.277-.362-2.18-1.114-2.017-1.68.16-.565 1.328-.73 2.602-.368"/><path fill="#ff83af" d="M26.357 66.013c4.878 3.91 12.908 8.208 12.908 8.208l.023 8.445s-3.632-.285-14.668-3.457c0 0-4.319-1.15-8.5-3.873-7.585-4.944-6.397-18.33 2.847-19.61a38.93 38.93 0 0 0 4.605 2.96c-.397 1.972-.263 4.883 2.785 7.327"/><path fill="#f0719e" d="m78.011 53.16.145-.032c-6.476 9.38-19.925 15.269-34.984 14.168-10.711-.785-20.098-4.95-26.438-10.967a8.998 8.998 0 0 1 2.234-.604c6.129 4.595 14.262 7.695 23.344 8.36 12.806.938 24.452-3.18 31.632-10.197 1.358-.229 2.714-.471 4.067-.727M25.907 77.738c7.438 2.139 11.51 2.965 13.377 3.275l.005 1.653s-3.634-.285-14.668-3.457c0 0-4.319-1.15-8.5-3.874-6.024-3.925-6.51-13.166-1.827-17.451-3.24 4.662-2.29 12.459 3.11 15.98 4.181 2.726 8.503 3.874 8.503 3.874"/><path fill="#c29b6b" d="m40.054 74.709-.417-1.4a1.732 1.732 0 0 1 1.172-2.148 1.74 1.74 0 0 1 2.156 1.168l.415 1.399a1.734 1.734 0 1 1-3.326.98" data-paper-data="{&quot;origPos&quot;:null}"/><path fill="#c29b6b" d="M41.11 83.492c-3.194-.764-5.163-3.967-4.394-7.15.769-3.185 3.982-5.145 7.177-4.377 3.196.764 5.163 3.966 4.394 7.147-.769 3.186-3.98 5.146-7.177 4.38" data-paper-data="{&quot;origPos&quot;:null}"/><path fill="#ab713a" d="M38.616 66.257s4.344 5.364 1.808 11.634a1.303 1.303 0 0 1-1.051.793c-.726.088-1.856-.033-3.005-1.166a1.333 1.333 0 0 1-.383-1.14c.198-1.357.499-4.79-.892-7.77 0 0 .037-3.824 3.523-2.351"/><path fill="#85592d" d="M38.352 76.514c.959.31 1.625.909 1.487 1.33-.137.428-1.03.52-1.987.21-.96-.308-1.624-.905-1.487-1.331.139-.425 1.028-.52 1.987-.21"/><path fill="#ab713a" d="M29.594 63.437c2.348 2.957-1.342 4.007-1.342 4.007-3.251-.541-6.494.654-7.756 1.207-.39.167-.836.144-1.206-.067-1.4-.803-1.817-1.857-1.925-2.577a1.29 1.29 0 0 1 .492-1.22c5.391-4.1 11.737-1.35 11.737-1.35"/><path fill="#85592d" d="M19.736 66.41c.555.84.7 1.72.324 1.965-.375.246-1.127-.234-1.681-1.073-.556-.84-.701-1.72-.326-1.964.375-.245 1.127.232 1.683 1.072"/><path fill="#ab713a" d="M40.602 58.39a2.883 2.883 0 0 1 3.076-2.671 2.877 2.877 0 0 1 2.682 3.065 2.881 2.881 0 0 1-3.074 2.672 2.881 2.881 0 0 1-2.684-3.064"/><path fill="#85592d" d="M41.734 58.74a1.751 1.751 0 0 1 1.868-1.625 1.75 1.75 0 0 1 1.632 1.864 1.753 1.753 0 0 1-1.871 1.626 1.748 1.748 0 0 1-1.63-1.863"/><path fill="#ab713a" d="M28.469 54.22a2.879 2.879 0 0 1 3.075-2.67 2.879 2.879 0 0 1 2.683 3.063 2.884 2.884 0 0 1-3.075 2.674 2.88 2.88 0 0 1-2.683-3.066"/><path fill="#85592d" d="M29.597 54.572a1.754 1.754 0 0 1 1.872-1.626 1.75 1.75 0 1 1-.238 3.49 1.755 1.755 0 0 1-1.634-1.864"/><path fill="#c08041" d="M42.051 63.127c-1.342 3.636-5.386 5.502-9.034 4.165-3.648-1.337-5.519-5.366-4.177-9.002 1.34-3.635 5.384-5.498 9.031-4.163 3.65 1.337 5.52 5.366 4.18 9"/><path fill="#4a3119" d="M34.701 61.778c-.138.375-.871.452-1.637.17-.764-.28-1.274-.81-1.135-1.185.138-.374.871-.451 1.637-.173.764.279 1.272.81 1.135 1.188"/><path fill="#fff" d="M33.606 61.17c-.048.13-.373.13-.725 0-.355-.13-.602-.337-.554-.47.046-.126.374-.126.726 0 .352.133.6.34.552.47"/><path fill="none" stroke="#4a3119" stroke-linecap="round" stroke-linejoin="round" stroke-width=".55" d="M30.378 57.887a1.432 1.432 0 0 1 2.64-.11c.16.344.175.737.045 1.092m3.398 1.244a1.75 1.75 0 0 1 3.227-.133c.195.42.215.899.055 1.333m-6.728.378c-.536 1.452-2.647 1.526-3.186.077a2.64 2.64 0 0 1-.15-.674m3.336.597c-.536 1.452 1.024 2.87 2.38 2.112.182-.1.365-.237.55-.414"/></g></svg>