<svg xmlns="http://www.w3.org/2000/svg" width="76.95" height="117.502"><g fill-rule="evenodd" stroke-miterlimit="10" data-paper-data="{&quot;isPaintingLayer&quot;:true}" style="mix-blend-mode:normal"><path fill="#9e6d3e" d="M35.282 35.821c.01.132.01.263.03.393a2.847 2.847 0 0 0 3.334 2.254c.32-.055.595-.176.858-.317-1.202 1.574-3.67 2.012-3.67 2.012 3.55.447 4.676-2.735 4.676-2.735l.075-.338c.32-.569.464-1.236.332-1.914-.286-1.53-1.777-2.547-3.33-2.252a2.8 2.8 0 0 0-1.844 1.224L34.3 34.05l1.124.788a2.09 2.09 0 0 0-.098.34l-1.71.436zm6.903 16.817c.862-3.214 2.605-5.357 3.397-6.385.18-.242.31-.415.376-.536.32-.634-.32-.634-.828 0-2.482 2.963-3.86 6.474-3.905 9.11-.044 2.481-1.058 4.68-1.19 4.952 1.741-1.837 1.92-6.266 2.15-7.14zm6.166-3.323c.596.732 1.7 2.143 3.805 2.285 2.118.131 2.946-1.323 3.221-1.914.232-.514.42-.96.784-1.148.254-.12.674-.175.64-.71v-.01s-.089-.46-.64-.46c-.552 0-.74-.133-1.104-.547-.364-.406-.97-.36-1.334.141-.364.493-.828.68-1.468.175-.65-.502-1.2-.677-1.93-.175-.737.493-1.378.864-1.93.766-.342-.054-.75-.164-1.047-.164-.188 0-.32.044-.376.164-.142.328.784.874 1.38 1.597zM60.42 50.54c-.652-5.239-3.475-6.147-3.475-6.147-1.38-.404.23.69.23.69.818.481 1.546 1.597 2.097 2.69.64 1.27 1.06 2.514 1.148 2.767zm2.116-13.342c-.22 0-2.568-.033-3.97-1.3.287.1.584.163.905.163a2.835 2.835 0 0 0 2.845-2.832c0-.13-.023-.262-.043-.404l1.61-.504-1.765-.107a2.943 2.943 0 0 0-.155-.317l.95-.985-1.402.36a2.861 2.861 0 0 0-2.04-.863c-1.578 0-2.846 1.268-2.846 2.82 0 .7.264 1.334.683 1.827l.143.317s1.7 2.91 5.085 1.825zm-4.169-9.982c-1.742 1.005-1.564 1.738-1.29 2.1.276.36 1.38-.187 1.93-.82.553-.635 1.38-1.28 2.946-1.28 0 0-1.843-.996-3.586 0zm-5.38 13.447c-2.572 0-4.039 2.822-3.588 2.68.355-.098.708-.59.961-.819.43-.394.872-.777 1.434-.964.75-.24 1.721-.273 2.394.22.363.274.496.646.694 1.038.166.34.375.754.496.12 0 0 .187-2.275-2.392-2.275zM38.081 29.588c-1.908-.667-3.53.655-3.53.655 1.534-.294 2.47.186 3.133.712.66.525 1.841.865 2.051.448.198-.404.244-1.16-1.654-1.815zm-23.37 4.921c3.861-.186 4.777 2.275 4.777 2.275 7.632-4.736 9.65-15.123 9.65-15.123 9.651 11.022 34.833 2.734 34.833 2.734s-.64 4.1.274 6.014c.663 1.377 3.18 3.543 4.645 7.03v.012c-.54.153-5.957 2.022-6.707 13.274-.087 1.4-.11 2.941-.044 4.648 0 0-.705.667-1.885 1.574-1.202.92-2.9 2.1-4.865 3.094-1.73.876-3.673 1.608-5.658 1.891-.54.08-1.07.143-1.588.197-.719.066-1.403.12-2.042.143-4.377.186-7.126-.514-7.126-.514s-.12-.667-.44-1.728c-1.368-4.417-6.276-15.527-20.615-11.438 0-1.837-1.5-3.333-3.354-3.333-.728 0-1.4.228-1.94.61-4.292-3.344-1.734-11.174 2.083-11.36zm24.122 71.928.01.01a62.144 62.144 0 0 0 3.265 4.79s2.846.984 4.568 1.27c1.664.273 1.432-.777.89-1.237-.032-.022-.043-.033-.043-.033-.57-.427-.285-1.41.43-2.263 2.88-4.406 3.598-10.257 3.686-11.187-3.2.57-7.169 1.15-11.197 1.411a24.249 24.249 0 0 1-1.609 7.24" data-paper-data="{&quot;origPos&quot;:null}"/><path fill="#00807a" d="M31.31 111.96s2.856.995 4.566 1.28c1.666.261 1.434-.788.892-1.248.408.296 3.916 2.898 3.453 4.43-.496 1.616-4.697 1.124-5.846.413-1.135-.698-1.357-1.126-1.357-1.126l-.496 1.062s-.639.284-1.5-.077c0 0-1.068-3.816.287-4.735m10.8-.72s2.844.983 4.567 1.267c1.664.273 1.432-.776.891-1.237.41.296 3.915 2.9 3.453 4.42-.497 1.628-4.708 1.135-5.846.425-1.147-.71-1.357-1.127-1.357-1.127l-.496 1.062s-.64.273-1.5-.077c0 0-1.069-3.816.287-4.734"/><path fill="#fefefe" d="M49.443 64.307c.266.195.53.393.806.59l-.022.02s-.994 2.702-2.207 1.914c-1.17-.765.21-2.088 1.423-2.525m3.242 2.538c.243.185.475.382.697.59-.078.49-.475 2.34-1.534 1.89-1.07-.448-.32-1.836.837-2.48m-2.59-3.532c.551-1.532 1.59-1.882 2.24-1.05.615.763-1.205 1.606-1.392 1.693a15.358 15.358 0 0 0-.872-.62l.023-.024m3.374 2.69c.034-.175.42-2.274 1.8-1.422 1.445.886-1.005 2.088-1.005 2.088l-.024.022c-.24-.229-.494-.459-.77-.689"/><path fill="#fefefe" d="M49.443 64.306c-1.157-.82-2.316-1.552-3.343-2.034.64-.022 1.324-.077 2.042-.142.664.368 1.308.77 1.93 1.203.298.198.588.406.871.623A35.454 35.454 0 0 1 53.47 66c.265.222.523.452.772.69 1.708 1.563 2.835 2.81 2.835 2.81l.077.066c-.197.24-.387.492-.55.732-.366-.338-1.61-1.509-3.22-2.864a8.55 8.55 0 0 0-.698-.59 63.518 63.518 0 0 0-2.436-1.947c-.276-.197-.539-.395-.806-.59"/><path fill="#c4b1a3" d="M68.89 37.44c-1.466-3.489-3.983-5.654-4.646-7.03-.914-1.916-.274-6.016-.274-6.016s-25.182 8.29-34.833-2.733c0 0-2.018 10.388-9.65 15.122 0 0-.916-2.459-4.778-2.273-3.817.185-6.375 8.014-2.084 11.36a3.336 3.336 0 0 0-1.413 2.722c0 1.837 1.5 3.325 3.354 3.325.507 0 .992-.11 1.422-.317-.186 3.664 1.566 8.507 5.88 11.154-1.798.787-3.332.852-4.588.545-3-.71-4.5-3.454-4.5-3.454s-3.86 1.094-5.98-1.28c-4.599-3.368-2.119-9.109-2.119-9.109s-2.932.176-4.41-5.837c-1.467-6.016 3.496-10.75 3.496-10.75s-3.772-7.294 1.654-15.494C10.848 9.173 20.952 9 20.952 9S29.502-2.308 45.958.426 64.07 17.56 64.07 17.56c9.276 1.455 6.616 10.475 6.616 10.475 0 .1 5.33.92 6.156 6.66.828 5.74-3.398 8.835-3.398 8.835s.73 6.375-5.89 8.2c1.964-2.437 2.56-5.64 2.395-9.567a13.463 13.463 0 0 0-1.06-4.712v-.012" data-paper-data="{&quot;origPos&quot;:null}"/><path fill="#6cbc88" d="M12.625 45.87a3.349 3.349 0 0 1 1.94-.61c1.854 0 3.354 1.496 3.354 3.332a3.298 3.298 0 0 1-1.93 3.008c-.43.208-.916.317-1.424.317-1.853 0-3.352-1.488-3.352-3.325.001-1.082.528-2.097 1.412-2.722"/><path fill="#9e6d3e" stroke="#9e6d3e" stroke-width=".5" d="M38.314 62.25c-1.489 1.027-5.46 3.15-11.57 2.242-1.888-.284-3.507-.897-4.865-1.738h-.01c-4.315-2.647-6.067-7.49-5.88-11.154a3.298 3.298 0 0 0 1.93-3.007c14.34-4.09 19.248 7.02 20.616 11.437.318 1.061.44 1.728.44 1.728s-.22.196-.66.492" data-paper-data="{&quot;origPos&quot;:null}"/><path fill="#00807a" d="M17.28 63.3c1.256.306 2.79.24 4.59-.546h.01c1.357.841 2.976 1.454 4.864 1.738 6.11.908 10.08-1.215 11.57-2.242-.122.524-1.07 5.107.66 8.803 1.833 3.914 7.447 6.648 7.447 6.648.088 3.28-2.206 5.926-2.206 5.926S25.088 87.084 19.02 72.234c0 0-1.806-4.769-1.74-8.935"/><path fill="#00807a" d="M40.442 99.198c-3.21.197-6.45.197-9.376-.174l-3.308-6.65-1.84 7.01s-.509.077-1.26.143c-1.498.12-3.98.164-5.448-.69 0 0-7.909-11.842-.19-26.603 6.068 14.85 25.195 11.393 25.195 11.393 2.295 3.368 5.24 3.368 6.893 2.187.155-.109.277-.23.365-.37 6.893.37 5.791-5.83 5.791-5.83 1.91-.612 3.496-1.289 4.82-2.01.231.807 1.036 4.384-1.148 7.117 0 0 1.292 6.288-2.206 11.568 0 0-2.889.744-7.092 1.5-3.199.567-7.168 1.147-11.196 1.41"/><path fill="#9e6d3e" d="m27.758 92.375 3.308 6.648c2.925.372 6.167.372 9.375.176-.03.567-.23 3.783-1.608 7.237a18.286 18.286 0 0 1-1.678 3.26c-.716.853-.99 1.838-.43 2.263 0 0 .01.01.044.033.54.46.772 1.508-.893 1.247-1.708-.284-4.568-1.28-4.568-1.28s-6-7.85-6.649-12.433c.751-.064 1.258-.14 1.258-.14z" data-paper-data="{&quot;origPos&quot;:null}"/><path fill="#c4b1a3" d="M34.553 30.244s1.62-1.323 3.53-.656c1.896.656 1.852 1.411 1.653 1.816-.21.415-1.39.077-2.052-.449-.662-.525-1.599-1.005-3.132-.71" data-paper-data="{&quot;origPos&quot;:null}"/><path fill="#fefefe" d="M38.655 33.798a1.1 1.1 0 0 1 1.291.863 1.097 1.097 0 0 1-.883 1.28 1.103 1.103 0 0 1-1.29-.875 1.092 1.092 0 0 1 .882-1.268"/><path fill="#00807a" d="M38.315 62.25c.44-.296.66-.492.66-.492s2.748.7 7.124.515c1.027.481 2.187 1.213 3.344 2.033-1.214.437-2.593 1.761-1.423 2.525 1.213.788 2.208-1.914 2.208-1.914l.02-.02a62.546 62.546 0 0 1 2.437 1.947c-1.158.644-1.908 2.032-.838 2.48 1.06.45 1.458-1.399 1.534-1.89 1.612 1.355 2.856 2.526 3.222 2.865-2.293 3.083-3.563 6.221-3.563 6.221s-1.38-.186-1.844.908l-4.775.273s-5.615-2.734-7.446-6.648c-1.73-3.696-.783-8.278-.66-8.803"/><path fill="#b87e48" d="M41.225 54.826c.045-2.635 1.423-6.146 3.905-9.109.508-.634 1.148-.634.828 0-.066.121-.197.294-.376.536-.792 1.028-2.535 3.171-3.397 6.386-.23.874-.409 5.303-2.15 7.14.132-.273 1.146-2.47 1.19-4.953" data-paper-data="{&quot;origPos&quot;:null}"/><path fill="#9e6d3e" d="M51.197 77.428s1.842-.087 1.842 1.18c0 1.28-2.206 1.192-2.118 2.187.078.92 1.533 3.325.552 4.647-.088.142-.21.263-.364.372-1.654 1.181-4.6 1.181-6.894-2.187 0 0 2.294-2.646 2.206-5.926z" data-paper-data="{&quot;origPos&quot;:null}"/><path fill="#e50113" d="M46.972 47.718s1.148.645 2.063.874c.928.22 2.945.908 4.048.723 1.104-.176 1.831-.909 2.338-1.05 1.06-.132 1.38-.438 1.38-.438.033.536-.386.591-.64.711-.363.187-.553.634-.783 1.148-.276.591-1.105 2.045-3.222 1.914-2.107-.142-3.209-1.553-3.805-2.285-.595-.723-1.52-1.269-1.379-1.597"/><path fill="#e50113" d="M47.348 47.554c.297 0 .706.11 1.047.164.552.1 1.193-.273 1.93-.765.728-.503 1.28-.328 1.931.174.64.504 1.102.318 1.467-.174.364-.503.971-.547 1.334-.142.364.414.552.547 1.104.547s.64.46.64.46v.01s-.32.306-1.38.436c-.507.142-1.234.875-2.338 1.051-1.103.185-3.12-.503-4.048-.723-.915-.228-2.063-.874-2.063-.874.055-.12.19-.165.376-.165"/><path fill="#00807a" d="M49.73 61.933c1.986-.284 3.927-1.016 5.658-1.892 4.171 1.663 4.358 6.813 4.358 6.813-.96.808-1.82 1.738-2.593 2.711l-.076-.065a46.475 46.475 0 0 0-2.837-2.81l.023-.02s2.45-1.205 1.006-2.09c-1.38-.854-1.766 1.246-1.8 1.42a35.771 35.771 0 0 0-2.526-2.044c.188-.088 2.007-.929 1.391-1.695-.65-.83-1.688-.48-2.24 1.05l-.022.023a21.792 21.792 0 0 0-1.93-1.204 42.427 42.427 0 0 0 1.588-.197"/><path fill="#f9cda5" d="M52.985 40.665c2.58 0 2.393 2.275 2.393 2.275-.123.634-.332.22-.497-.12-.199-.394-.33-.765-.695-1.04-.673-.49-1.644-.458-2.394-.218-.562.186-1.003.568-1.433.963-.254.228-.606.72-.96.82-.452.14 1.014-2.68 3.586-2.68"/><path fill="#9e6d3e" d="M53.04 78.607c0-1.266-1.843-1.18-1.843-1.18.462-1.093 1.842-.907 1.842-.907 2.294.821 4.225 3.095 4.225 3.095s1.103 6.2-5.79 5.828c.981-1.323-.476-3.729-.552-4.647-.088-.996 2.118-.908 2.118-2.188" data-paper-data="{&quot;origPos&quot;:null}"/><path fill="#00807a" d="M56.602 70.3c.173-.253.357-.498.552-.735.771-.972 1.632-1.902 2.593-2.712 0 0-.188-5.149-4.358-6.812 1.964-.994 3.662-2.176 4.864-3.094.618.306 8.217 4.232 7.951 12.192-.142 2.778-1.409 5.883-6.119 8.465-1.324.72-2.912 1.398-4.82 2.01 0 0-1.932-2.273-4.226-3.095 0 0 1.27-3.138 3.563-6.22"/><path fill="#b87e48" d="M56.944 44.393s2.823.91 3.475 6.147c-.089-.253-.508-1.498-1.148-2.768-.55-1.092-1.279-2.208-2.097-2.69 0 0-1.61-1.093-.23-.689" data-paper-data="{&quot;origPos&quot;:null}"/><path fill="#c4b1a3" d="M58.367 27.215c1.743-.995 3.584 0 3.584 0-1.565 0-2.392.646-2.945 1.28-.552.634-1.654 1.181-1.93.82-.275-.36-.45-1.094 1.291-2.099" data-paper-data="{&quot;origPos&quot;:null}"/><path fill="#3f3a3a" d="M59.15 32.738a1.096 1.096 0 0 0 1.103 1.094c.606 0 1.102-.494 1.102-1.094 0-.613-.496-1.094-1.102-1.094-.617 0-1.103.481-1.103 1.094m-2.525.492a2.834 2.834 0 0 1 2.846-2.822 2.86 2.86 0 0 1 2.04.864l1.4-.36-.948.984c.054.1.11.207.154.317l1.764.11-1.61.502c.022.143.043.273.043.405a2.836 2.836 0 0 1-2.844 2.832 2.72 2.72 0 0 1-.905-.165c1.402 1.27 3.75 1.302 3.97 1.302-3.386 1.083-5.084-1.826-5.084-1.826l-.143-.317a2.813 2.813 0 0 1-.683-1.826"/><path fill="#fefefe" d="M60.253 31.644c.606 0 1.102.481 1.102 1.094a1.1 1.1 0 0 1-1.102 1.093 1.096 1.096 0 0 1-1.104-1.093c0-.613.487-1.094 1.104-1.094"/><path fill="#9e6d3e" stroke="#9e6d3e" stroke-width=".5" d="M62.183 50.725c.75-11.252 6.166-13.12 6.706-13.274a13.492 13.492 0 0 1 1.06 4.713c.166 3.924-.43 7.127-2.394 9.567-1.226 1.52-2.979 2.733-5.417 3.641a46.074 46.074 0 0 1 .045-4.647" data-paper-data="{&quot;origPos&quot;:null}"/><path fill="#be000a" d="M46.972 47.718s1.148.645 2.063.874c.928.22 2.945.908 4.048.723 1.104-.176 1.831-.909 2.338-1.05.286-.036.514-.084.701-.135-.69.74-1.698 1.61-2.719 1.69-1.79.135-3.447.271-2.62.681.702.348 2.897.98 5.061-1.68-.177.227-.316.528-.466.865-.276.591-1.105 2.045-3.222 1.914-2.107-.142-3.209-1.553-3.805-2.285-.595-.723-1.52-1.269-1.379-1.597"/><path fill="#fefefe" d="M54.23 47.312a.32.32 0 0 1 .321-.318.32.32 0 0 1 .228.546.32.32 0 0 1-.228.092.32.32 0 0 1-.32-.319"/><path fill="#a79384" d="M3.767 32.87s-3.772-7.294 1.655-15.496c2.75-4.156 6.7-6.246 9.928-7.302-9.034 3.8-11.992 16.724-2.208 20.43 10.112 3.826 15.994-9.478 15.994-9.478 25.727 4.506 33.124.46 34.945-3.462 9.262 1.46 6.606 10.474 6.606 10.474 0 .097 5.328.918 6.156 6.66.827 5.74-3.398 8.834-3.398 8.834s.728 6.375-5.89 8.2c1.964-2.439 2.56-5.642 2.393-9.567a13.436 13.436 0 0 0-1.06-4.713v-.01c-1.465-3.488-3.982-5.654-4.643-7.032-.916-1.913-.275-6.014-.275-6.014s-25.182 8.29-34.834-2.733c0 0-2.017 10.388-9.65 15.123 0 0-.916-2.46-4.777-2.275-3.816.187-6.376 8.016-2.084 11.36a3.335 3.335 0 0 0-1.412 2.724c0 1.836 1.5 3.324 3.354 3.324.505 0 .992-.11 1.422-.317-.188 3.664 1.564 8.506 5.88 11.154-1.799.786-3.332.851-4.59.546-3-.71-4.5-3.456-4.5-3.456S8.92 60.938 6.8 58.565c-4.6-3.368-2.117-9.108-2.117-9.108s-2.935.175-4.412-5.839C-1.196 37.603 3.767 32.87 3.767 32.87" data-paper-data="{&quot;origPos&quot;:null}"/><path fill="#dbc6b6" d="M29.321 11.364c14.945 1.632 23.257-3.395 26.984-6.68C60.921 8.18 62.84 12.78 63.6 15.431c-20.082 5.528-34.28-4.068-34.28-4.068" data-paper-data="{&quot;origPos&quot;:null}"/><path fill="#006763" d="M38.314 62.25c.441-.296.661-.492.661-.492s2.707.688 7.025.517c-2.14.41-5.1 1.52-5.1 3.853 0 3.264 9.353 11.632 14.453 6-1.5 2.382-2.313 4.392-2.313 4.392s-1.38-.186-1.844.908l-4.775.273s-5.615-2.734-7.446-6.648c-1.73-3.696-.783-8.278-.66-8.803m18.028-.222c-.652-.75-1.348-1.214-2.046-1.477.372-.164.738-.33 1.092-.51 4.17 1.663 4.358 6.812 4.358 6.812-.96.81-1.823 1.74-2.593 2.712l-.078-.064-.004-.004c.854-1.873 1.487-4.927-.729-7.47m.041-2.529a33.456 33.456 0 0 0 3.87-2.55c.413.205 3.978 2.054 6.194 5.66-3.598-4.473-7.666-3.99-10.064-3.11"/><path fill="#006763" d="M68.182 68.237c.011.3.033.592.023.902-.143 2.778-1.41 5.883-6.12 8.465-1.324.721-2.912 1.398-4.82 2.01 0 0-1.932-2.273-4.226-3.094 5.03 2.068 14.098-2.494 15.143-8.283m-46.314-5.484h.011c1.357.842 2.978 1.455 4.864 1.74 4.491.666 7.822-.304 9.866-1.272-1.906 1.386-4.859 2.807-8.667 2.36-6.987-.82-7.078 2.37-4.78 5.56 2.298 3.187 17.38 16.948 23.26 6.56.087 3.28-2.207 5.926-2.207 5.926S25.088 87.083 19.02 72.234c0 0-1.807-4.769-1.742-8.935 1.258.307 2.79.242 4.59-.545"/><path fill="#006763" d="M59.378 80.89c-.964.15-1.63.37-2.12.593.15-1.036.006-1.868.006-1.868 1.91-.613 3.497-1.29 4.82-2.012.198.696.817 3.44-.402 5.933-.15-1.395-.68-2.898-2.304-2.647M19.02 72.233c6.07 14.85 25.194 11.394 25.194 11.394 2.295 3.37 5.24 3.37 6.895 2.187.154-.108.275-.23.364-.372 1.91.104 3.192-.307 4.067-.942-.474 1.272-1.337 2.704-2.873 2.95-2.85.456-4.229 2.46-7.814.546-3.583-1.913-11.949-.818-17.188-2.64-5.238-1.824-7.718-1.46-8.364 2.824-.643 4.283.55 8.838 2.666 9.385 2.114.546 3.584-.547 5.514-5.74 0 0 .093-1.823 3.401 3.92 1.19 2.187 26.158 5.688 30.22-6.675-.17 2.148-.76 4.788-2.372 7.22 0 0-2.89.743-7.09 1.497-3.2.57-7.17 1.148-11.197 1.411-3.21.197-6.453.197-9.377-.174l-3.308-6.65-1.84 7.011s-.508.077-1.259.142c-1.5.12-3.982.164-5.45-.689 0 0-7.909-11.842-.188-26.604"/><path fill="#004f4f" d="M61.767 79.523c-.633-.907-3.26.056-4.457.558a4.699 4.699 0 0 0-.046-.466c1.91-.613 3.497-1.29 4.82-2.012.134.466.441 1.85.274 3.457-.118-.6-.326-1.156-.59-1.536m-42.748-7.29c6.07 14.85 25.194 11.393 25.194 11.393 2.295 3.37 5.24 3.37 6.895 2.187.154-.108.275-.23.364-.372 1.91.104 3.192-.307 4.067-.942a8.53 8.53 0 0 1-.31.711c-.713.54-1.88 1.055-3.758 1.055 0 0-4.044 3.373-8.089-1.732 0 0-13.274 4.467-22.717-7.488-2.58-1.89-4.008 1.065-4.008 1.065.346-2.188 2.363-5.877 2.363-5.877"/><path fill="#865c34" d="M51.735 84.88c-.003.018-.012.037-.016.054.004-.017.013-.036.016-.054m.072-.646v.113-.113m-5.386-6.533c.395 4.92-1.635 7.243 2.156 7.381 1.841.066 2.581-.96 2.867-2.037-.126-.444-.477-1.588-.506-2.166-.003-.026-.014-.06-.017-.083-.04-.438.37-.666.836-.893a1.776 1.776 0 0 0-.39.345c.547-.373 1.407-.863 1.187-1.454-.3-.797-1.448-.456-1.357-1.367 0 0 .04-.086.122-.203.097-.15.206-.28.334-.374.005.004.006.008.012.011.292-.23.73-.425 1.374-.342 0 0-.762.863-.187 1.136.574.274 1.242 1.368.184 2.142-1.058.774-1.735 1.974-1.178 3.596 1.098 1.79 3.054-.985 3.408-1.997.16-.457.823-2.963.357-3.34a14.06 14.06 0 0 1 1.641 1.56s1.102 6.2-5.79 5.826c-.089.143-.21.264-.365.373-1.654 1.18-4.6 1.18-6.894-2.188 0 0 2.294-2.645 2.206-5.927M25.917 99.385l1.841-7.01 3.308 6.648c2.804.358 5.902.365 8.982.194-1.82.442-4.313.957-6.775 1.173-4.688.41-4.688 4.237-2.207 8.611 2.482 4.374 5.24 3.417 5.102 2.46 0 0 .106-.044.264-.116.011.252.1.468.293.614 0 0 .01.01.044.033.54.46.772 1.508-.893 1.247-1.709-.284-4.568-1.28-4.568-1.28s-6-7.85-6.649-12.433c.75-.064 1.258-.14 1.258-.14m14.525-.188c3.53-.23 7.018-.704 9.98-1.2-1.604.888-3.706 1.982-5.706 2.802-3.998 1.64-4.135 5.057-2.619 7.928 1.516 2.87 5.841 3.718 5.47 2.542.542.46.772 1.51-.89 1.236-1.723-.284-4.568-1.268-4.568-1.268s-1.622-2.11-3.266-4.79l-.01-.01c1.377-3.456 1.577-6.67 1.61-7.24" data-paper-data="{&quot;origPos&quot;:null}"/><path fill="#006763" d="M42.108 111.238s.816.28 1.834.586c.387 1.14 1.522 3.173 4.774 3.465 1.39.125 2.057-.043 2.25-.382.093.277.128.543.054.78-.497 1.63-4.708 1.138-5.846.427-1.147-.71-1.357-1.127-1.357-1.127l-.496 1.062s-.64.273-1.5-.077c0 0-1.069-3.816.287-4.734m-10.799.721s.967.336 2.11.674c.68 1.097 2.534 3.663 4.817 3.34 1.063-.15 1.523-.566 1.542-1.088.37.547.58 1.088.443 1.536-.496 1.617-4.697 1.125-5.846.414-1.135-.698-1.357-1.126-1.357-1.126l-.495 1.062s-.64.284-1.5-.077c0 0-1.069-3.816.286-4.735"/><path fill="#707f62" d="M50.3 63.76s.828-1.915 1.38-1.436c.551.48-1.38 1.435-1.38 1.435m3.516 2.53s.828-1.915 1.38-1.437c.552.48-1.38 1.436-1.38 1.436m-.758.89s-.413 1.708-1.102 1.502c-.69-.205 1.102-1.503 1.102-1.503m-3.24-2.529s-.688 1.913-1.24 1.502c-.553-.409.205-.956 1.24-1.502"/><path fill="#56996e" d="M12.625 45.87c.055-.038.117-.068.173-.104-1.18 1.518-.91 4.243 1.723 4.462 2.7.222 3.105-2.01 3.164-2.84.145.376.234.778.234 1.204a3.298 3.298 0 0 1-1.93 3.008c-.43.208-.916.317-1.424.317-1.853 0-3.352-1.488-3.352-3.325 0-1.114.55-2.11 1.412-2.722"/><path fill="#fefefe" d="M13.97 47.767c0-.604.493-1.093 1.102-1.093.611 0 1.104.49 1.104 1.093 0 .604-.494 1.094-1.104 1.094a1.097 1.097 0 0 1-1.102-1.094"/><path fill="#3f3a3a" d="M37.841 34.856a1.26 1.26 0 0 0 1.475 1 1.251 1.251 0 0 0 1.006-1.462 1.256 1.256 0 0 0-1.473-.986c-.678.123-1.13.771-1.008 1.45zm-2.795.127a2.03 2.03 0 0 1 .113-.387l-1.285-.9 1.65.111a3.196 3.196 0 0 1 2.105-1.397c1.774-.337 3.478.823 3.803 2.573.152.773-.013 1.535-.378 2.185l-.087.387s-1.287 3.634-5.342 3.122c0 0 2.822-.5 4.195-2.297a3.214 3.214 0 0 1-.982.362 3.25 3.25 0 0 1-3.806-2.574c-.025-.149-.025-.298-.036-.448l-1.905-.239z"/></g></svg>