<svg version="1.1" xmlns="http://www.w3.org/2000/svg" xmlns:xlink="http://www.w3.org/1999/xlink" width="78.414" height="119.4294" viewBox="0,0,78.414,119.4294"><g transform="translate(-201.41,-120.3776)"><g data-paper-data="{&quot;isPaintingLayer&quot;:true}" fill-rule="evenodd" stroke="none" stroke-width="1" stroke-linecap="butt" stroke-linejoin="miter" stroke-miterlimit="10" stroke-dasharray="" stroke-dashoffset="0" style="mix-blend-mode: normal"><path d="M229.245,128.716c0,0 -5.566,8.641 -6.493,14.271c-0.928,5.63 -3.712,20.818 -12.062,20.735c-8.352,-0.084 -9.28,-8.427 -9.28,-8.427c1.459,1.963 5.038,4.582 6.23,1.492c1.193,-3.09 -2.518,-5.682 -1.85,-9.105c0.669,-3.423 7.02,-5.742 5.562,-14.515c-1.458,-8.772 6.098,-14.271 11.798,-12.437c5.7,1.833 6.096,7.987 6.096,7.987M251.989,128.717c0,0 5.567,8.641 6.494,14.271c0.928,5.63 3.712,20.818 12.063,20.735c8.351,-0.084 9.278,-8.427 9.278,-8.427c-1.458,1.963 -5.037,4.582 -6.23,1.492c-1.193,-3.09 2.519,-5.682 1.849,-9.105c-0.667,-3.423 -7.018,-5.742 -5.56,-14.515c1.458,-8.772 -6.098,-14.271 -11.798,-12.437c-5.699,1.832 -6.096,7.986 -6.096,7.986" data-paper-data="{&quot;origPos&quot;:null}" fill="#8d3a19"/><path d="M240.484,126.822c0,0 24.936,-2.227 21.978,29.92c0,0 -0.564,8.211 -7.185,10.994c-6.623,2.783 -11.553,4.453 -11.553,8.489c0,0 -0.047,2.273 -3.241,2.273c-3.193,0 -3.24,-2.272 -3.24,-2.272c0,-4.037 -4.931,-5.707 -11.553,-8.49c-6.622,-2.784 -7.186,-10.994 -7.186,-10.994c-2.958,-32.147 21.98,-29.92 21.98,-29.92" data-paper-data="{&quot;origPos&quot;:null}" fill="#9e753f"/><path d="M215.362,147.697c1.69,-1.486 3.668,2.222 3.668,2.222v0.001c-0.06564,1.5322 -0.05663,3.06668 0.027,4.598l-0.027,0.044c-2.813,-0.742 -5.359,-5.381 -3.668,-6.865M266.095,147.697c-1.69,-1.486 -3.669,2.222 -3.669,2.222v0.001c0.067,1.44 0.059,2.974 -0.025,4.598l0.025,0.044c2.813,-0.742 5.36,-5.381 3.67,-6.865" data-paper-data="{&quot;origPos&quot;:null}" fill="#9e753f"/><path d="M216.938,149.535c0,0 -0.02,-24.353 23.546,-24.353c23.566,0 23.434,24.353 23.434,24.353c0,0 -19.22,1.702 -32.873,-9.558c0,0 -7.005,9.165 -14.107,9.558" data-paper-data="{&quot;origPos&quot;:null}" fill="#6b2b0d"/><path d="M219.588,146.633c0,0 -0.018,-20.368 19.694,-20.368c19.71,0 23.311,21.416 23.311,21.416c0,0 -20.848,0.376 -32.267,-9.041c0,0 -4.798,7.665 -10.738,7.993" data-paper-data="{&quot;origPos&quot;:null}" fill="#8d3a19"/><path d="M253.445,154.515c0,1.256 -0.651,2.273 -1.456,2.273c-0.803,0 -1.456,-1.017 -1.456,-2.273c0,-1.255 0.653,-2.272 1.456,-2.272c0.805,0 1.456,1.017 1.456,2.272M230.058,154.515c0,1.256 -0.653,2.273 -1.456,2.273c-0.804,0 -1.456,-1.017 -1.456,-2.273c0,-1.255 0.652,-2.272 1.456,-2.272c0.803,0 1.456,1.017 1.456,2.272" fill="#2b2629"/><path d="M238.042,158.087c0,0 2.629,1.485 4.508,0c0,0 -1.127,3.062 -4.508,0" fill="#efb1a0"/><path d="M228.602,161.149c0,1.733 -1.735,3.139 -3.875,3.139c-2.14,0 -3.876,-1.406 -3.876,-3.14c0,-1.732 1.735,-3.138 3.876,-3.138c2.14,0 3.875,1.406 3.875,3.139M259.74,161.149c0,1.733 -1.735,3.139 -3.875,3.139c-2.14,0 -3.876,-1.406 -3.876,-3.14c0,-1.732 1.736,-3.138 3.876,-3.138c2.14,0 3.875,1.406 3.875,3.139" fill="#f4af9f"/><path d="M232.635,161.149h15.695c0,0 -7.002,7.554 -15.696,0" fill="#f8f1eb"/><path d="M230.993,211.711h8.077c0.376,2.413 0,11.32 0,11.32c1.324,2.631 -2.254,14.286 -2.254,14.286h-3.005c0,0 -1.128,-12.803 -1.128,-14.473c0,-1.67 -1.69,-11.132 -1.69,-11.132z" data-paper-data="{&quot;origPos&quot;:null}" fill="#9e753f"/><path d="M237.074,234.42c0,0 2.053,2.033 1.804,5.122l-13.023,-0.058c0,0 -0.047,-2.662 3.962,-3.124l3.132,-1.956z" fill="#00b3b0"/><path d="M232.266,234.829l0.317,-0.198l1.018,0.563c0.194,0.108 0.006,0.379 -0.188,0.271l-1.147,-0.635zM231.687,235.191l0.318,-0.198c0.37,0.205 0.74,0.408 1.11,0.614c0.195,0.106 0.008,0.378 -0.187,0.273l-1.241,-0.69zM232.442,236.291c-0.443,-0.246 -0.888,-0.493 -1.333,-0.738l0.318,-0.198c0.402,0.22 0.803,0.443 1.203,0.664c0.194,0.108 0.007,0.379 -0.188,0.272M231.957,236.703l-1.426,-0.788l0.318,-0.2l1.296,0.718c0.194,0.107 0.008,0.379 -0.188,0.27M231.472,237.117l-1.52,-0.843l0.319,-0.198l1.388,0.77c0.195,0.107 0.008,0.378 -0.187,0.271M225.854,239.751c-0.14083,-0.00939 -0.25003,-0.12677 -0.24923,-0.26791c0.00079,-0.14114 0.1113,-0.25728 0.25223,-0.26509l13.022,0.057c0.38,0.003 0.376,0.534 -0.001,0.532c-4.341,-0.017 -8.684,-0.037 -13.024,-0.057M232.948,234.67c-0.38,-0.003 -0.378,-0.536 0.002,-0.533c1.375,0.006 2.751,0.011 4.125,0.018c0.13796,0.01248 0.24345,0.1284 0.24293,0.26692c-0.00052,0.13852 -0.10689,0.25364 -0.24493,0.26508l-4.125,-0.017" fill="#ffffff"/><path d="M250.886,211.712c0,0 -1.69,9.462 -1.69,11.132c0,1.67 -1.128,14.473 -1.128,14.473h-3.005c0,0 -3.577,-11.655 -2.254,-14.286c0,0 -0.376,-8.907 0,-11.32h8.077z" data-paper-data="{&quot;origPos&quot;:null}" fill="#9e753f"/><path d="M248.902,234.404l3.132,1.956c4.009,0.462 3.962,3.124 3.962,3.124l-13.023,0.058c-0.248,-3.089 1.805,-5.122 1.805,-5.122z" fill="#00b3b0"/><path d="M249.587,234.83l-1.148,0.635c-0.194,0.108 -0.382,-0.163 -0.187,-0.271l1.017,-0.563l0.318,0.198zM250.165,235.19c-0.415,0.23 -0.828,0.459 -1.241,0.69c-0.195,0.105 -0.382,-0.167 -0.187,-0.273c0.37,-0.206 0.74,-0.409 1.11,-0.614l0.318,0.198zM249.41,236.291c-0.196,0.107 -0.383,-0.164 -0.189,-0.272c0.402,-0.221 0.803,-0.444 1.204,-0.664l0.317,0.198l-1.333,0.738M249.894,236.703c-0.194,0.109 -0.382,-0.163 -0.187,-0.27l1.296,-0.718l0.318,0.2c-0.477,0.263 -0.952,0.527 -1.427,0.788M250.38,237.117c-0.195,0.107 -0.382,-0.164 -0.189,-0.271l1.39,-0.77l0.319,0.198l-1.52,0.843M255.998,239.75c-4.34,0.02 -8.682,0.04 -13.024,0.057c-0.379,0.002 -0.38,-0.529 0,-0.532l13.02,-0.057c0.14096,0.00751 0.25172,0.12346 0.25278,0.26462c0.00106,0.14116 -0.10795,0.25875 -0.24878,0.26838M248.903,234.67l-4.124,0.017c-0.13805,-0.01145 -0.24441,-0.12656 -0.24493,-0.26508c-0.00052,-0.13852 0.10498,-0.25443 0.24293,-0.26692l4.124,-0.018c0.38,-0.003 0.382,0.53 0.002,0.533" fill="#ffffff"/><path d="M228.233,180.6466c1.361,-2.331 5.014,-0.229 3.65,2.107c-4.028,6.895 -5.902,15.368 -5.232,23.309c0,0 2.163,0.792 1.74,1.349c-0.422,0.556 -1.74,0 -1.74,0c0,0 0.87,2.643 0.495,3.061c-0.374,0.417 -3.403,1.044 -3.827,0.417c-0.422,-0.626 -0.841,-4.287 -0.841,-4.287c-0.88,-8.788 1.295,-18.322 5.755,-25.956M252.451,180.6466c4.459,7.634 6.635,17.168 5.755,25.956c0,0 -0.42,3.661 -0.842,4.287c-0.423,0.627 -3.452,0 -3.827,-0.418c-0.374,-0.417 0.496,-3.06 0.496,-3.06c0,0 -1.318,0.556 -1.74,0c-0.424,-0.558 1.74,-1.348 1.74,-1.348c0.671,-7.942 -1.205,-16.415 -5.232,-23.31c-1.364,-2.337 2.289,-4.438 3.649,-2.107" data-paper-data="{&quot;origPos&quot;:null}" fill="#9e753f"/><path d="M250.061,201.645c0.248,6.284 4.96,17.152 4.96,17.152c-5.13,2.357 -14.726,2.487 -14.726,2.487c0,0 -9.594,-0.131 -14.724,-2.487c0,0 4.711,-10.868 4.96,-17.152c0.249,-6.285 1.991,-16.229 -1.929,-21.207c0,0 3.308,-3.709 8.64,-4.213c0,0 0.04,1.46 3.053,1.46c3.015,0 3.43,-1.46 3.43,-1.46c5.332,0.504 8.265,4.213 8.265,4.213c-3.92,4.978 -2.178,14.922 -1.93,21.207" fill="#00b3b0"/><path d="M249.699,196.277c0.06,0.848 0.125,1.678 0.185,2.478h-19.176c0.059,-0.8 0.124,-1.629 0.184,-2.478h18.807" fill="#078983"/><path d="M231.776,177.997c2.321,4.763 -1.394,10.62 -1.394,10.62c0,0 -0.666,-1.261 -1.525,-1.767c-0.859,-0.506 -2.121,-0.59 -2.452,-1.572c-0.331,-0.981 -1.723,-1.178 -1.723,-1.178c1.657,-4.844 7.094,-6.103 7.094,-6.103M248.974,177.997c-2.322,4.763 1.393,10.62 1.393,10.62c0,0 0.665,-1.261 1.525,-1.767c0.858,-0.506 2.121,-0.59 2.452,-1.572c0.331,-0.981 1.723,-1.178 1.723,-1.178c-1.657,-4.844 -7.093,-6.103 -7.093,-6.103" fill="#00b3b0"/></g></g></svg>