<svg xmlns="http://www.w3.org/2000/svg" width="78.414" height="119.429"><g fill-rule="evenodd" stroke-miterlimit="10" data-paper-data="{&quot;isPaintingLayer&quot;:true}" style="mix-blend-mode:normal"><path fill="#8d3a19" d="M27.835 8.338s-5.566 8.641-6.493 14.271c-.928 5.63-3.712 20.818-12.062 20.735C.928 43.26 0 34.917 0 34.917 1.459 36.88 5.038 39.5 6.23 36.41c1.193-3.09-2.518-5.682-1.85-9.105.669-3.423 7.02-5.742 5.562-14.515C8.484 4.017 16.04-1.48 21.74.352c5.7 1.833 6.096 7.987 6.096 7.987m22.743 0s5.567 8.641 6.494 14.271c.928 5.63 3.712 20.818 12.063 20.735 8.351-.084 9.278-8.427 9.278-8.427-1.458 1.963-5.037 4.582-6.23 1.492-1.193-3.09 2.519-5.682 1.849-9.105-.667-3.423-7.018-5.742-5.56-14.515C69.931 4.018 62.375-1.48 56.675.353c-5.699 1.832-6.096 7.986-6.096 7.986" data-paper-data="{&quot;origPos&quot;:null}"/><path fill="#9e753f" d="M39.074 6.444s24.936-2.227 21.978 29.92c0 0-.564 8.211-7.185 10.994-6.623 2.783-11.553 4.453-11.553 8.49 0 0-.047 2.272-3.241 2.272-3.193 0-3.24-2.272-3.24-2.272 0-4.037-4.931-5.707-11.553-8.49-6.622-2.784-7.186-10.994-7.186-10.994-2.958-32.147 21.98-29.92 21.98-29.92" data-paper-data="{&quot;origPos&quot;:null}"/><path fill="#9e753f" d="M13.952 27.32c1.69-1.487 3.668 2.221 3.668 2.221v.001a47.24 47.24 0 0 0 .027 4.598l-.027.044c-2.813-.742-5.359-5.38-3.668-6.865m50.733 0c-1.69-1.486-3.669 2.222-3.669 2.222v.001c.067 1.44.059 2.974-.025 4.598l.025.044c2.813-.742 5.36-5.38 3.67-6.865" data-paper-data="{&quot;origPos&quot;:null}"/><path fill="#6b2b0d" d="M15.528 29.157s-.02-24.353 23.546-24.353 23.434 24.353 23.434 24.353-19.22 1.702-32.873-9.558c0 0-7.005 9.165-14.107 9.558" data-paper-data="{&quot;origPos&quot;:null}"/><path fill="#8d3a19" d="M18.178 26.255S18.16 5.887 37.872 5.887c19.71 0 23.311 21.416 23.311 21.416s-20.848.376-32.267-9.04c0 0-4.798 7.664-10.738 7.992" data-paper-data="{&quot;origPos&quot;:null}"/><path fill="#2b2629" d="M52.035 34.137c0 1.256-.651 2.273-1.456 2.273-.803 0-1.456-1.017-1.456-2.273 0-1.255.653-2.272 1.456-2.272.805 0 1.456 1.017 1.456 2.272m-23.387 0c0 1.256-.653 2.273-1.456 2.273-.804 0-1.456-1.017-1.456-2.273 0-1.255.652-2.272 1.456-2.272.803 0 1.456 1.017 1.456 2.272"/><path fill="#efb1a0" d="M36.632 37.71s2.629 1.484 4.508 0c0 0-1.127 3.061-4.508 0"/><path fill="#f4af9f" d="M27.192 40.771c0 1.733-1.735 3.14-3.875 3.14-2.14 0-3.876-1.407-3.876-3.14s1.735-3.139 3.876-3.139c2.14 0 3.875 1.406 3.875 3.14m31.138 0c0 1.732-1.735 3.138-3.875 3.138-2.14 0-3.876-1.406-3.876-3.14 0-1.732 1.736-3.138 3.876-3.138 2.14 0 3.875 1.406 3.875 3.14"/><path fill="#f8f1eb" d="M31.225 40.771H46.92s-7.002 7.554-15.696 0"/><path fill="#9e753f" d="M29.583 91.333h8.077c.376 2.413 0 11.32 0 11.32 1.324 2.631-2.254 14.286-2.254 14.286h-3.005s-1.128-12.803-1.128-14.473-1.69-11.132-1.69-11.132z" data-paper-data="{&quot;origPos&quot;:null}"/><path fill="#00b3b0" d="M35.664 114.042s2.053 2.033 1.804 5.122l-13.023-.058s-.047-2.662 3.962-3.124l3.132-1.956z"/><path fill="#fff" d="m30.856 114.451.317-.198 1.018.563c.194.108.006.38-.188.271l-1.147-.635zm-.579.362.318-.198c.37.205.74.408 1.11.614.195.106.008.378-.187.273l-1.241-.69zm.755 1.1c-.443-.246-.888-.493-1.333-.738l.318-.198c.402.22.803.443 1.203.664.194.108.007.38-.188.272m-.485.412-1.426-.788.318-.2 1.296.718c.194.107.008.38-.188.27m-.485.414-1.52-.843.319-.198 1.388.77c.195.107.008.378-.187.271m-5.618 2.634a.267.267 0 0 1 .003-.533l13.022.057c.38.003.376.534-.001.532-4.341-.017-8.684-.037-13.024-.057m7.094-5.08c-.38-.003-.378-.536.002-.533 1.375.006 2.751.011 4.125.018a.267.267 0 0 1-.002.532l-4.125-.017"/><path fill="#9e753f" d="M49.476 91.334s-1.69 9.462-1.69 11.132-1.128 14.473-1.128 14.473h-3.005s-3.577-11.655-2.254-14.286c0 0-.376-8.907 0-11.32h8.077z" data-paper-data="{&quot;origPos&quot;:null}"/><path fill="#00b3b0" d="m47.492 114.026 3.132 1.956c4.009.462 3.962 3.124 3.962 3.124l-13.023.058c-.248-3.089 1.805-5.122 1.805-5.122z"/><path fill="#fff" d="m48.177 114.452-1.148.635c-.194.108-.382-.163-.187-.27l1.017-.564.318.198zm.578.36-1.241.69c-.195.105-.382-.167-.187-.273.37-.206.74-.409 1.11-.614l.318.198zM48 115.913c-.196.107-.383-.164-.189-.272.402-.22.803-.444 1.204-.664l.317.198-1.333.738m.485.412c-.194.11-.382-.163-.187-.27l1.296-.718.318.2c-.477.263-.952.527-1.427.788m.486.414c-.195.107-.382-.164-.189-.27l1.39-.77.319.197-1.52.843m5.618 2.633c-4.34.02-8.682.04-13.024.057-.379.002-.38-.529 0-.532l13.02-.057a.267.267 0 0 1 .004.533m-7.095-5.08-4.124.016a.267.267 0 0 1-.002-.532l4.124-.018c.38-.003.382.53.002.533"/><path fill="#9e753f" d="M26.823 60.269c1.361-2.331 5.014-.229 3.65 2.107-4.028 6.895-5.902 15.368-5.232 23.309 0 0 2.163.792 1.74 1.349-.422.556-1.74 0-1.74 0s.87 2.643.495 3.061c-.374.417-3.403 1.044-3.827.417-.422-.626-.841-4.287-.841-4.287-.88-8.788 1.295-18.322 5.755-25.956m24.218 0c4.459 7.634 6.635 17.168 5.755 25.956 0 0-.42 3.661-.842 4.287-.423.627-3.452 0-3.827-.418-.374-.417.496-3.06.496-3.06s-1.318.556-1.74 0c-.424-.558 1.74-1.348 1.74-1.348.671-7.942-1.205-16.415-5.232-23.31-1.364-2.337 2.289-4.438 3.649-2.107" data-paper-data="{&quot;origPos&quot;:null}"/><path fill="#00b3b0" d="M48.651 81.267c.248 6.284 4.96 17.152 4.96 17.152-5.13 2.357-14.726 2.487-14.726 2.487s-9.594-.13-14.724-2.487c0 0 4.711-10.868 4.96-17.152.249-6.285 1.991-16.229-1.929-21.207 0 0 3.308-3.709 8.64-4.213 0 0 .04 1.46 3.053 1.46 3.015 0 3.43-1.46 3.43-1.46 5.332.504 8.265 4.213 8.265 4.213-3.92 4.978-2.178 14.922-1.93 21.207"/><path fill="#078983" d="M48.289 75.9c.06.847.125 1.677.185 2.477H29.298c.059-.8.124-1.629.184-2.478h18.807"/><path fill="#00b3b0" d="M30.366 57.62c2.321 4.762-1.394 10.62-1.394 10.62s-.666-1.262-1.525-1.768c-.859-.506-2.121-.59-2.452-1.572-.331-.98-1.723-1.178-1.723-1.178 1.657-4.844 7.094-6.103 7.094-6.103m17.198 0c-2.322 4.763 1.393 10.62 1.393 10.62s.665-1.26 1.525-1.767c.858-.506 2.121-.59 2.452-1.572.331-.98 1.723-1.178 1.723-1.178-1.657-4.844-7.093-6.103-7.093-6.103"/></g></svg>