<svg xmlns="http://www.w3.org/2000/svg" width="78.492" height="112.18"><g fill-rule="evenodd" stroke-miterlimit="10" data-paper-data="{&quot;isPaintingLayer&quot;:true}" style="mix-blend-mode:normal"><path fill="#343434" d="M.001 46.304c8.095 12.263 18.677 1.893 14.96-8.97-2.698-7.886 11.682 2.48 11.682 2.48S18.46 62.804 11.198 63.2C3.938 63.599.024 52.41 0 46.305"/><path fill="#ffdc81" d="m28.506 106.2.07-3.86-.846-14.601s4.15-4.593 6.068-5.14c1.381-.394 5.674.833 5.674.833l-1.676 18.835-.04 3.862h-.01c1.767 1.066 3.063 3.26 1.571 5.065-1.127 1.279-2.81.29-4.086-.234-1.408-.65-3.022-1.102-4.302-1.96-.821-.564-1.728-1.241-2.29-2.082-.178-.266-.194-.471-.133-.717m-10.782.085-.09-3.86-1.99-18.806s4.21-1.314 5.583-.952c1.942.51 6.221 5.074 6.221 5.074l-.6 14.612-.068 3.86h-.007c.07.255.306.51.138.776-.547.856-1.51 1.484-2.322 2.06-1.27.877-2.871 1.355-4.269 2.028-1.269.546-2.931 1.558-4.081.3-1.521-1.786-.261-3.995 1.485-5.092" data-paper-data="{&quot;origPos&quot;:null}"/><path fill="#e63744" d="M39.657 80.669s.23 2.207-.185 2.763C34.652 83.4 27.73 87.74 27.73 87.74l-.282.002s-6.792-4.357-11.803-4.122c-.428-.55-.234-2.758-.234-2.758z"/><path fill="#eeeeed" d="M18.719 83.937c1.399.322 2.815.845 4.079 1.386-1.534-1.435-4.07-3.505-4.94-4.453l-2.449.02s-.036.394-.042.906c.832.474 2.171 1.256 3.352 2.14m20.998-2.332c-.019-.512-.06-.906-.06-.906l-2.44.02c-.894.959-3.551 3.235-5.04 4.697 1.273-.57 2.691-1.136 4.101-1.51 1.193-.945 2.583-1.796 3.438-2.301M27.068 106.23h.02c.067.26-.016.537-.194.812-.562.88-1.546 1.54-2.387 2.13a6.117 6.117 0 0 1-.419.266l-7.501.058-.018-2.483c.266-.264.559-.5.873-.704h-.009l.2-3.883 9.214-.072z"/><path fill="#0771b7" d="m26.883 102.98-9.28.075.012-.188 9.258-.074z"/><path fill="#eeeeed" d="m39.655 109.316-8.197.063a5.975 5.975 0 0 1-.42-.262c-.851-.586-1.852-1.216-2.428-2.09-.18-.273-.266-.548-.203-.805l.007-.002.162-3.878 9.221-.074.261 3.878h-.009a5.632 5.632 0 0 1 1.593 1.478z"/><path fill="#0771b7" d="m28.559 102.78 9.266-.074.01.188-9.287.074z"/><path fill="#6e6e6d" d="m17.46 106.307-.027-.01s.176-1.845 1.737-1.927c1.613-.096 2.849 1.558 2.849 1.558l-4.559.38z"/><path fill="#b52c39" d="M18.024 106.122s.12-1.263 1.193-1.328c1.109-.065 1.957 1.073 1.957 1.073l-3.132.264z"/><path fill="#e63744" d="M17.46 106.308s1.868-1.178 6.086-.047c1.701.185 2.218-1.388 3.008-1.742.403-.176.52-.004.52-.004l.014 1.716c.067.258-.018.535-.194.81-.562.88-1.545 1.53-2.387 2.128-1.305.903-2.954 1.39-4.396 2.09-1.301.554-3.02 1.594-4.197.297-1.566-1.833-.267-4.084 1.529-5.248h-.01v-.007l.027.007"/><path fill="#343434" d="M26.774 107.22c-.576.79-1.485 1.397-2.268 1.949-.546.379-1.154.682-1.782.959l-.175-.34c1.867-.561 4.014-2.753 4.014-2.753l.211.186m-9.314-.914s1.415-.891 4.559-.38c-.918.69-2.453 1.704-3.553 1.72-1.406.02-1.445-.631-1.166-1.236.045-.036.097-.047.143-.106h-.01v-.008l.027.01"/><path fill="#343434" d="M17.403 107.5c2.477-.02 4.644.945 5.823 2.4-1.015.488-2.115.872-3.116 1.359-1.301.555-3.02 1.595-4.197.295-1.089-1.27-.794-2.75.093-3.925.004-.002.009-.007.013-.018.458-.07.92-.106 1.384-.111"/><path fill="#eeeeed" d="M27.025 104.705c.018 0 .036.005.052.005l.011 1.522c.067.257-.016.534-.194.809a3.038 3.038 0 0 1-.38.499c-.126-.298-.202-.71-.207-1.155-.007-.926.311-1.675.718-1.68m-10.64 2.512h.01c.022-.008 2.043-.511 4.657-.05.018.004.036-.007.036-.03.003-.017-.006-.031-.024-.033-2.626-.465-4.665.047-4.683.05-.02.004-.031.019-.027.037.007.018.018.027.032.027zm.539-.495c.004 0 .004 0 .007-.004.018-.002 1.899-.628 4.515-.058.019.004.034-.01.039-.027.007-.018-.007-.036-.023-.036-2.644-.574-4.531.058-4.55.063-.017.009-.03.024-.02.04.002.016.016.022.032.022"/><path fill="#6e6e6d" d="m38.033 106.146-4.567-.31s1.208-1.673 2.824-1.601c1.566.056 1.768 1.9 1.768 1.9z"/><path fill="#b52c39" d="m37.453 105.978-3.143-.217s.835-1.15 1.946-1.102c1.069.047 1.21 1.31 1.21 1.31z"/><path fill="#e63744" d="m38.033 106.146.025-.007v.007h-.009c1.814 1.136 3.15 3.366 1.611 5.222-1.154 1.314-2.885.304-4.2-.233-1.45-.673-3.108-1.135-4.429-2.018-.843-.586-1.847-1.218-2.423-2.088-.18-.275-.266-.55-.207-.807l-.014-1.714s.117-.177.52-.005c.801.34 1.339 1.902 3.035 1.69 4.208-1.198 6.091-.047 6.091-.047"/><path fill="#343434" d="m28.736 107.205.205-.188s2.185 2.16 4.057 2.689l-.171.342c-.628-.268-1.238-.561-1.796-.932-.785-.54-1.71-1.13-2.295-1.911m9.297-1.06.025-.01v.009h-.009c.052.056.106.065.15.1.284.602.255 1.252-1.151 1.252-1.096.002-2.65-.983-3.582-1.66 3.136-.562 4.567.31 4.567.31"/><path fill="#343434" d="M38.11 107.336a9.72 9.72 0 0 1 1.381.09.083.083 0 0 0 .014.017c.904 1.16 1.228 2.638.153 3.925-1.152 1.315-2.882.302-4.199-.232-1.005-.47-2.108-.836-3.127-1.308 1.143-1.475 3.3-2.472 5.778-2.492"/><path fill="#eeeeed" d="M28.442 104.694c.41-.002.743.743.752 1.668.004.447-.07.858-.198 1.158a5.34 5.34 0 0 1-.39-.492c-.177-.273-.263-.548-.207-.805l-.009-1.522c.016-.002.034-.007.052-.007m10.679 2.345a.03.03 0 0 0 .03-.027c.006-.018-.005-.033-.023-.036-.023-.004-2.068-.485-4.683.023-.018.002-.031.015-.027.033.005.023.023.036.04.03 2.604-.506 4.636-.032 4.654-.023zm-.541-.487c.014 0 .027-.007.032-.022.004-.016-.005-.032-.023-.04-.018-.005-1.924-.61-4.554.008a.024.024 0 0 0-.022.034c.006.018.022.03.036.027 2.614-.61 4.502-.014 4.52-.011.002.004.007.004.011.004"/><path fill="#ffdc81" d="M4.685 74.828c.095-.963.412-1.826.867-2.488-.005.04-.005.058-.005.058s1.258-13.666 4.8-18.23c1.624-2.097 7.256-5.16 7.913-5.513 1.242-.908 4.056-1.334 5.805-1.513-.295-.637-.48-1.333-.484-1.84l7.402-.058c.003.505-.164 1.194-.45 1.835 1.72.15 4.575.534 5.875 1.424 0 0 2.252.773 3 1.033 1.919.505 8.345 2.9 8.345 2.9l5.314-6.302a4.15 4.15 0 0 1-.21-.798 8.023 8.023 0 0 1-.814-2.265c-.46-2.27.016-4.28 1.074-4.495.56-.116 1.179.315 1.696 1.08 1.127-1.098 2.531-1.565 3.71-1.082 1.8.749 2.392 3.429 1.319 6.002-.689 1.647-1.89 2.852-3.141 3.303 0 0-3.27 9.46-6.176 10.533-2.352.872-10.992-2.497-10.992-2.497v-.013c1.7 9.79.124 24.767.124 24.767l-24.246.192s-1.561-13.573-.337-23.354v.009c-.19.52-1.229 1.45-2.05 2.626-1.64 2.34-3.116 12.218-3.116 12.218.04.07.074.132.108.208.427.403.839.95 1.188 1.585.91 1.68 1.021 3.389.238 3.804-.414.224-1.006.032-1.602-.444-.625 1.135-1.622 1.833-2.664 1.732-1.602-.154-2.718-2.135-2.49-4.417" data-paper-data="{&quot;origPos&quot;:null}"/><path fill="#eeac6c" d="M24.393 47.725c-.421-.625-.718-1.502-.796-2.135 1.195.182 2.402.27 3.61.262a22.93 22.93 0 0 0 3.762-.344l-.016.007-6.56 2.21"/><path fill="#0771b7" d="M34.228 47.649c.713 9.383 5.784 11.95 5.784 11.95v.002c.228 2.5.313 5.154.31 7.698l-25.71.204V67.5c-.022-2.325.018-4.74.178-7.045l.018-.054s5.832-2.534 5.994-12.724v-.01a23.658 23.658 0 0 1 2.284-.41h.11s-1.136 9.113 4.14 9.073c6.174-.05 5.092-9.026 5.092-9.03.604.094 1.205.21 1.8.349"/><path fill="#eeeeed" d="M16.197 59.476c.256-.215.535-.474.825-.778l.07 8.816-.832.006-.063-8.044m21.574-1.845c.298.35.584.653.84.9l.07 8.812-.833.008-.076-9.72"/><path fill="#ffdc81" d="M5.226 27.064a23.19 23.19 0 0 1-.277-3.337c-.097-12.274 9.837-22.304 22.192-22.4 12.355-.1 22.453 9.77 22.552 22.046a22.571 22.571 0 0 1-.205 3.19c1.298.695 2.18 2.01 2.191 3.532.018 2.258-1.88 4.097-4.239 4.117-.158 0-.315-.009-.472-.024a22.378 22.378 0 0 1-19.472 11.585A22.407 22.407 0 0 1 7.856 34.52c-.063.004-.133.004-.196.006-2.36.018-4.286-1.792-4.304-4.05-.011-1.415.734-2.673 1.87-3.413" data-paper-data="{&quot;origPos&quot;:null}"/><path fill="#343434" d="M23.039 21.07s-.503 1.804-2.082 1.447c-.772-.174-.908-1.201-3.386-.74-.779.18-2.417 1.156-2.732 1.808-.316.652-.088-2.392 2.457-3.522 1.835-.675 2.457-.642 3.977-.642s1.987.907 1.766 1.65m9.741 0s.503 1.803 2.082 1.446c.772-.174.908-1.201 3.386-.74.779.18 2.417 1.156 2.732 1.808.316.652.087-2.392-2.457-3.522-1.835-.675-2.457-.642-3.977-.642s-1.987.907-1.766 1.65m-12.052 7.35c0 1.657-.895 3-2 3s-2-1.343-2-3 .895-3 2-3 2 1.343 2 3m18 0c0 1.657-.895 3-2 3s-2-1.343-2-3 .895-3 2-3 2 1.343 2 3"/><path fill="#eeac6c" d="M27.748 31.49c-1.125.153-3.02 1.834-3.02 1.834s.207-1.01.503-1.3c.8-1.155 2.487-1.603 2.487-1.603s2.173.703 2.65 1.588c.443.824.34 1.238.34 1.238s-2.121-1.871-2.96-1.756zM20.928 35.117s6.897 3.208 13.172-.397c0 0-1.39 5.47-5.95 5.56-4.115.123-4.984-1.491-5.477-1.955-.492-.463-1.42-1.772-1.745-3.208"/><path fill="#343434" d="M50.463 20.69c.056 2.594-1.078 6.22-1.078 6.22s-5.967-6.905-9.591-8.83c-4.422-2.345-6.59 1.178-10.56-1.88-.657-.503-1.881-1.851-1.881-1.851s-1.469 1.494-1.86 1.882c-4.392 4.344-7.756-.654-11.46 1.976-4.72 3.347-8.687 8.888-8.687 8.888s-1.393-1.551-1.235-6.286c.041-1.361.681-4.388 1.741-7.468A23.932 23.932 0 0 1 27.158 0c10.776-.085 19.94 6.925 23.005 16.63.163 1.348.263 2.703.3 4.06"/><path fill="#c6c5c6" d="M69.373 13.35c-1.908 2.254-3.202 4.28-3.877 6.079-.675 1.792-1.008 3.846-.99 6.167l.018 2.083-3.413.027-.018-2.086c-.018-2.35.4-4.504 1.255-6.446.85-1.95 2.097-3.876 3.744-5.796l-8.685.067-.022-2.61 11.965-.093zm5.058 8.519.05-.003 1.28-2.678 2.576-.02-2.516 4.17 2.671 4.23-2.572.02-1.41-2.78-1.357 2.8-2.583.023 2.603-4.271-2.594-4.131 2.565-.02z"/></g></svg>