<svg version="1.1" xmlns="http://www.w3.org/2000/svg" xmlns:xlink="http://www.w3.org/1999/xlink" width="63.95182" height="109.88665" viewBox="0,0,63.95182,109.88665"><g transform="translate(-208.05502,-125.60497)"><g data-paper-data="{&quot;isPaintingLayer&quot;:true}" fill-rule="evenodd" stroke="none" stroke-width="1" stroke-linecap="butt" stroke-linejoin="miter" stroke-miterlimit="10" stroke-dasharray="" stroke-dashoffset="0" style="mix-blend-mode: normal"><path d="M230.76,229.926c-1.72,1.06 -2.974,3.206 -1.497,4.966c1.115,1.241 2.756,0.254 4.003,-0.272c1.377,-0.652 2.952,-1.114 4.2,-1.964c0.807,-0.562 1.752,-1.153 2.295,-1.989c0.169,-0.256 0.249,-0.494 0.187,-0.74h-9.188zM250.392,229.926c1.723,1.06 2.974,3.206 1.497,4.966c-1.115,1.241 -2.756,0.254 -4.003,-0.272c-1.377,-0.652 -2.952,-1.114 -4.199,-1.964c-0.806,-0.562 -1.752,-1.153 -2.296,-1.989c-0.169,-0.256 -0.248,-0.494 -0.19,-0.74h9.19z" data-paper-data="{&quot;origPos&quot;:null}" fill="#79594c"/><path d="M239.948,229.927c0.062,0.246 -0.018,0.48 -0.186,0.74c-0.335,0.519 -0.828,0.929 -1.348,1.314c0,0.002 0,0.002 0.003,0.002c-0.214,0.161 -0.43,0.318 -0.644,0.465c-0.003,-0.002 -0.003,0 -0.005,-0.002c-0.103,0.072 -0.203,0.147 -0.303,0.215c-0.407,0.276 -0.846,0.521 -1.304,0.731v0.019c-0.305,0.142 -0.619,0.251 -0.931,0.437c-0.339,0.124 -0.68,0.242 -1.017,0.381c-0.073,0.031 -0.145,0.029 -0.221,0.06c-0.01993,0.00929 -0.04028,0.01763 -0.061,0.025l-0.175,0.077c-0.039,0.019 -0.079,0.032 -0.119,0.05c-0.043,0.021 -0.084,0.039 -0.125,0.057l-0.248,0.111c-0.045,0.023 -0.093,0.043 -0.143,0.066l-0.05,0.02c-0.032,0.013 -0.064,0.027 -0.094,0.043c-0.025,0.009 -0.047,0.02 -0.072,0.032h-0.002c-1.189,0.53 -2.63,1.225 -3.64,0.104c-0.593,-0.709 -0.744,-1.484 -0.603,-2.222c0.04789,-0.02245 0.09659,-0.04313 0.146,-0.062c0.018,0 0.02,0.005 0.013,0.01c0.908,-0.506 2.631,-0.17 3.48,0.14c0.564,0.193 1.181,0.508 1.564,0.888c0.266,-0.134 0.557,-0.281 0.862,-0.442c-0.104,-0.149 -0.209,-0.296 -0.321,-0.414c-0.933,-0.902 -2.319,-1.319 -3.585,-1.35c-0.277,0 -1.114,-0.012 -1.69,0.065c0.10587,-0.16887 0.22279,-0.33056 0.35,-0.484c0.76665,-0.17282 1.55285,-0.2431 2.338,-0.209c1.263,0.03 2.649,0.902 3.641,1.652c0.08959,0.07178 0.17475,0.14892 0.255,0.231c0.482,-0.26 0.967,-0.526 1.42,-0.8c-2.563,-2.494 -6.707,-1.704 -6.707,-1.704c0.09608,-0.10161 0.20952,-0.18526 0.335,-0.247h5.241c1.317,0.56 2.127,1.309 2.137,1.319c0.64,-0.444 1.094,-0.859 1.174,-1.149c0.019,-0.07 0.037,-0.108 0.053,-0.17h0.582M241.204,229.927c-0.062,0.246 0.018,0.48 0.187,0.74c0.337,0.519 0.828,0.929 1.347,1.314c0,0.002 0,0.002 -0.002,0.002c0.21208,0.15946 0.42746,0.3145 0.646,0.465c0,-0.002 0,0 0.002,-0.002c0.103,0.072 0.205,0.147 0.303,0.215c0.41468,0.27943 0.85185,0.52394 1.307,0.731v0.019c0.302,0.142 0.616,0.251 0.93,0.437c0.339,0.124 0.678,0.242 1.016,0.381c0.072,0.031 0.147,0.029 0.22,0.06c0.01993,0.00929 0.04028,0.01763 0.061,0.025l0.178,0.077c0.038,0.019 0.078,0.032 0.118,0.05c0.04103,0.02036 0.08272,0.03937 0.125,0.057l0.246,0.111l0.144,0.066l0.05,0.02c0.03242,0.01338 0.06443,0.02772 0.096,0.043l0.07,0.032h0.002c1.188,0.53 2.631,1.225 3.639,0.104c0.594,-0.709 0.744,-1.484 0.604,-2.222c-0.05162,-0.02221 -0.10518,-0.03962 -0.16,-0.052c-0.906,-0.506 -2.628,-0.17 -3.478,0.14c-0.566,0.193 -1.181,0.508 -1.565,0.888c-0.264,-0.134 -0.558,-0.281 -0.863,-0.442c0.105,-0.149 0.211,-0.296 0.321,-0.414c0.933,-0.902 2.319,-1.319 3.584,-1.35c0.28,0 1.116,-0.014 1.694,0.065c-0.107,-0.167 -0.226,-0.33 -0.353,-0.487c-0.76644,-0.17184 -1.55232,-0.24111 -2.337,-0.206c-1.262,0.029 -2.65,0.899 -3.642,1.649c-0.079,0.061 -0.166,0.141 -0.254,0.229c-0.48,-0.26 -0.968,-0.53 -1.42,-0.804c2.564,-2.496 6.72,-1.726 6.72,-1.726c-0.144,-0.123 -0.235,-0.154 -0.348,-0.216h-5.242c-1.315,0.623 -2.125,1.309 -2.137,1.319c-0.637,-0.444 -1.094,-0.859 -1.174,-1.149c-0.018,-0.07 -0.034,-0.108 -0.05,-0.17h-0.585" fill="#b16b1a"/><path d="M220.514,177.413l10.19,-3.983c0,0 -0.843,0.501 -2.176,3.51c-0.526,1.182 -1.163,3.9 -1.163,3.9c0,0 -7.21,3.296 -9.522,2.463c-2.859,-1.031 -6.063,-10.337 -6.063,-10.337c-1.257,-0.415 -2.48,-1.599 -3.18,-3.245c-1.072,-2.515 -0.514,-5.159 1.248,-5.9c1.149,-0.485 2.526,-0.041 3.64,1.029c0.506,-0.759 1.105,-1.178 1.66,-1.074c1.035,0.202 1.523,2.172 1.085,4.406c-0.166,0.849 -0.443,1.615 -0.78,2.224c-0.055,0.359 -0.148,0.694 -0.28,0.999l5.342,6.008zM263.036,198.942c0.237,2.243 -0.84,4.2 -2.41,4.366c-1.024,0.108 -2.001,-0.569 -2.627,-1.679c-0.58,0.476 -1.155,0.666 -1.565,0.448c-0.77,-0.407 -0.678,-2.079 0.202,-3.737c0.30278,-0.58044 0.69112,-1.11205 1.152,-1.577c0.116,-0.231 0.248,-0.458 0.396,-0.643h-0.003c0,0 -2.125,-10.043 -3.75,-12.333c-0.31066,-1.6695 -0.68829,-3.32584 -1.132,-4.965c-0.14,-0.512 -0.53,-1.536 -0.53,-1.536c-0.723,-2.46 -2.305,-3.955 -2.305,-3.955c0,0 5.15,2.755 6.857,4.925c3.507,4.46 4.55,17.864 4.55,17.864c0.607,0.684 1.045,1.685 1.165,2.822" data-paper-data="{&quot;origPos&quot;:null}" fill="#79594c"/><path d="M250.745,173.626c5.485,5.765 5.039,31.356 5.039,31.356v25.007h-30.403v-25.007c0,0 -0.408,-25.557 5.077,-31.323c1.475,-1.553 8.414,-1.78 8.414,-1.78l1.68,0.084h0.138l1.666,-0.084c0,0 6.912,0.193 8.389,1.747" fill="#eeeeed"/><path d="M243.831,171.933c1.063,0.08 2.54,0.229 3.88,0.497l-6.342,10.37l-6.4,-10.601c0.933,-0.132 1.832,-0.218 2.537,-0.27c-0.289,-0.619 -0.464,-1.316 -0.464,-1.774h7.256c0,0.46 -0.176,1.16 -0.467,1.778" data-paper-data="{&quot;origPos&quot;:null}" fill="#79594c"/><path d="M237.819,172.48c-0.41,-0.619 -0.696,-1.484 -0.762,-2.107c2.39327,0.3897 4.83449,0.38126 7.225,-0.025l-0.011,0.014l-6.452,2.118" fill="#eeac6c"/><path d="M247.109,197.27c0.009,-0.012 0.021,-0.021 0.032,-0.032c-0.096,-0.025 -0.212,-0.025 -0.294,0.025c-0.107,0.063 -0.184,0.158 -0.254,0.258c-0.016,0.027 -0.035,0.061 -0.06,0.086c-0.00264,0.01164 -0.00632,0.02302 -0.011,0.034c0.043,-0.023 0.081,-0.04 0.121,-0.063c0.157,-0.091 0.332,-0.179 0.467,-0.308zM244.975,197.068c0.004,-0.088 0.022,-0.213 -0.01,-0.297c-0.032,-0.074 -0.123,-0.226 -0.218,-0.24c-0.198,-0.029 -0.114,0.501 -0.066,0.578c0.06146,0.10548 0.1463,0.19546 0.248,0.263c0.015,-0.102 0.036,-0.204 0.045,-0.304zM255.718,197.49v0.808h-9.943c0.054,0.746 0.648,1.591 0.89,2.216c0.366,0.94 0.63,1.939 0.47,2.931c-0.157,0.94 -0.63,1.88 -0.892,2.818c-0.259,0.782 -0.418,2.453 -1.203,2.766c-0.108,-2.295 1.567,-4.175 1.41,-6.419c-0.03352,-0.93196 -0.28527,-1.84305 -0.735,-2.66c-0.104,-0.213 -0.264,-0.451 -0.382,-0.698c-0.933,0.852 -2.187,2.596 -0.999,3.724v-0.055c0,0 0.168,0.365 -0.146,0.47c-0.733,0.261 -0.776,-0.679 -0.776,-1.149c-0.05,-0.625 0.052,-1.411 0.316,-1.933c0.303,-0.656 1.15,-0.975 1.443,-1.56c-0.0295,-0.14956 -0.02402,-0.30391 0.016,-0.451h-19.681v-0.808h19.095c-0.324,-0.127 -0.69,-0.295 -0.82,-0.585c-0.317,-0.573 0.262,-1.142 0.892,-1.245c1.188,-0.137 1.101,1.082 0.744,1.83h0.344c0.387,-0.501 1.315,-1.194 1.9,-1.058c0.753,0.224 0.53,0.745 0.15,1.058h2.199l-15.245,-25.254v-0.009l0.321,-0.048l6.297,10.357l6.204,-10.132c0.107,0.022 0.214,0.043 0.319,0.068l-6.302,10.445l8.848,14.573h5.267z" data-paper-data="{&quot;origPos&quot;:null}" fill="#f6b90c"/><path d="M270.668,180.871c0.526,0.106 1.545,1.223 1.302,1.701c-0.467,0.915 -3.18,0.522 -4.167,-0.018c-0.01522,0.107 -0.06677,0.2055 -0.146,0.279c-0.831,0.661 -3.264,-0.936 -3.846,-1.822c-0.01895,-0.02972 -0.03566,-0.0608 -0.05,-0.093c-0.08,0.175 -0.182,0.299 -0.316,0.342c-0.947,0.286 -2.454,-1.756 -2.83,-2.876c-0.109,0.113 -0.227,0.183 -0.343,0.183c-1.057,0.014 -1.98,-2.689 -1.907,-3.765c-0.05118,0.00797 -0.10349,0.0042 -0.153,-0.011c-1.017,-0.306 -1.07,-3.208 -0.664,-4.184c0.029,-0.073 0.079,-0.159 0.138,-0.249c-0.031,-0.005 -0.058,-0.014 -0.088,-0.025c-0.956,-0.462 -0.556,-3.328 -0.003,-4.237c-0.953,-0.466 -0.548,-3.332 0.003,-4.24c0.166,-0.267 0.682,-0.705 1.097,-1.036c-0.064,-0.373 -0.108,-0.715 -0.048,-1.03c0.095,-0.525 1.201,-1.556 1.684,-1.325c0.958,0.462 0.555,3.327 0.002,4.236c0.956,0.466 0.551,3.332 -0.002,4.238c-0.05536,0.08395 -0.11793,0.16292 -0.187,0.236c0.597,0.867 0.576,3.024 0.234,3.842c-0.024,0.068 -0.068,0.142 -0.12,0.228c0.535,0.802 0.913,2.085 0.938,2.85c0.876,0.63 1.787,2.077 1.937,2.827c0.01027,0.05142 0.01629,0.10359 0.018,0.156c1.01,0.347 2.214,1.251 2.603,1.84c0.04959,0.08138 0.09176,0.16706 0.126,0.256c1.005,-0.002 2.203,0.29 2.728,0.619c0.269,0.172 0.699,0.69 1.024,1.112c0.376,-0.061 0.72,-0.095 1.036,-0.035" data-paper-data="{&quot;origPos&quot;:null}" fill="#331f0a"/><path d="M262.167,152.207c1.117,0.714 1.85,1.935 1.85,3.316c0,2.205 -1.864,3.99 -4.167,3.99c-0.064,0 -0.125,0 -0.191,-0.005c-3.86691,6.8952 -11.15951,11.16098 -19.065,11.152c-7.91535,0.01051 -15.21633,-4.26424 -19.081,-11.172c-0.154,0.015 -0.309,0.025 -0.464,0.025c-2.303,0 -4.167,-1.785 -4.167,-3.99c0,-1.488 0.851,-2.784 2.112,-3.47c-0.148,-1.017 -0.223,-2.059 -0.223,-3.113c0,-11.997 9.77,-21.722 21.823,-21.722c12.049,0 21.819,9.725 21.819,21.722c0,1.108 -0.085,2.2 -0.246,3.267" data-paper-data="{&quot;origPos&quot;:null}" fill="#79594c"/><path d="M234.229,148.09599c-0.772,-0.174 -0.908,-1.201 -3.386,-0.74c-0.779,0.18 -2.417,1.156 -2.732,1.808c-0.316,0.652 -0.088,-2.392 2.457,-3.522c1.835,-0.675 2.457,-0.642 3.977,-0.642c1.52,0 1.987,0.907 1.766,1.65c0,0 -0.503,1.803 -2.082,1.446zM248.134,148.09599c0.772,-0.174 0.908,-1.201 3.386,-0.74c0.779,0.18 2.417,1.156 2.732,1.808c0.316,0.652 0.087,-2.392 -2.457,-3.522c-1.835,-0.675 -2.457,-0.642 -3.977,-0.642c-1.52,0 -1.987,0.907 -1.766,1.65c0,0 0.503,1.803 2.082,1.446z" data-paper-data="{&quot;origPos&quot;:null}" fill="#331f0a"/><path d="M233.75581,154c0,1.657 -0.895,3 -2,3c-1.105,0 -2,-1.343 -2,-3c0,-1.657 0.895,-3 2,-3c1.105,0 2,1.343 2,3M251.75581,154c0,1.657 -0.895,3 -2,3c-1.105,0 -2,-1.343 -2,-3c0,-1.657 0.895,-3 2,-3c1.105,0 2,1.343 2,3" data-paper-data="{&quot;origPos&quot;:null}" fill="#331f0a"/><path d="M241.02,157.069c-1.125,0.153 -3.02,1.834 -3.02,1.834c0,0 0.207,-1.009 0.503,-1.299c0.8,-1.156 2.487,-1.604 2.487,-1.604c0,0 2.173,0.703 2.65,1.588c0.443,0.824 0.34,1.238 0.34,1.238c0,0 -2.121,-1.871 -2.96,-1.756z" fill="#eeac6c"/><path d="M234.2,160.696c0,0 6.897,3.208 13.172,-0.397c0,0 -1.39,5.47 -5.95,5.561c-4.115,0.122 -4.984,-1.492 -5.477,-1.956c-0.492,-0.463 -1.42,-1.772 -1.745,-3.208" fill="#eeac6c"/><path d="M263.276,146.10799c0.034,2.551 -1.107,6.098 -1.107,6.098c0,0 -5.793,-6.827 -9.33,-8.744c-4.32,-2.338 -6.477,1.108 -10.337,-1.928c-0.64,-0.5 -1.834,-1.834 -1.834,-1.834c0,0 -1.45,1.458 -1.837,1.835c-4.34,4.231 -7.595,-0.705 -11.252,1.85c-4.652,3.253 -8.585,8.665 -8.585,8.665c0,0 -1.352,-1.538 -1.162,-6.182c0.054,-1.337 0.705,-4.306 1.768,-7.321c3.97965,-7.94324 12.1076,-12.95429 20.992,-12.942c10.562,0 19.491,6.954 22.422,16.512c0.15017,1.32546 0.2376,2.65728 0.262,3.991" data-paper-data="{&quot;origPos&quot;:null}" fill="#331f0a"/><path d="M216.381,147.847l-0.005,-3.53c29.161,-10.359 47.914,0.567 47.914,0.567v2.963c-25.085,-11.168 -47.91,0 -47.91,0z" fill="#f7b90b"/></g></g></svg>