<svg version="1.1" xmlns="http://www.w3.org/2000/svg" xmlns:xlink="http://www.w3.org/1999/xlink" width="62.41298" height="115.64275" viewBox="0,0,62.41298,115.64275"><g transform="translate(-209.28989,-122.16425)"><g data-paper-data="{&quot;isPaintingLayer&quot;:true}" fill-rule="evenodd" stroke="none" stroke-width="1" stroke-linecap="butt" stroke-linejoin="miter" stroke-miterlimit="10" stroke-dasharray="" stroke-dashoffset="0" style="mix-blend-mode: normal"><path d="M220.415,181.509c-4.512,7.613 -6.714,17.122 -5.824,25.886c0,0 0.424,3.651 0.852,4.275c0.428,0.626 3.493,0 3.871,-0.416c0.38,-0.417 -0.5,-3.053 -0.5,-3.053c0,0 1.334,0.555 1.762,0c0.428,-0.555 -1.762,-1.345 -1.762,-1.345c-0.678,-7.92 1.219,-16.37 5.294,-23.247c1.381,-2.329 -2.316,-4.424 -3.693,-2.1M271.697,162.819c0.095,0.745 -0.995,3.89 -0.995,3.89c-0.7579,2.5722 -1.61318,5.1147 -2.564,7.622c-1.135,2.98 -2.296,6.974 -4.981,9.022c-2.327,1.775 -6.68,0.251 -9.162,-0.405c-2.782,-0.734 -5.542,-1.567 -8.262,-2.5c-2.577,-0.882 -1.547,-4.928 1.059,-4.035c2.3431,0.80639 4.71167,1.53677 7.102,2.19c1.401,0.38 6.245,2.086 7.04,1.086c2.998,-3.778 4.21,-9.427 5.532,-14.038c0,0 -1.593,-1.661 -0.956,-1.971c0.639,-0.309 1.575,0.769 1.575,0.769c0,0 0.429,-2.741 0.96,-2.948c0.529,-0.207 3.557,0.574 3.652,1.319" data-paper-data="{&quot;origPos&quot;:null}" fill="#f3d7b4"/><path d="M243.916,232.42l3.169,1.95c4.057,0.46 4.01,3.116 4.01,3.116l-13.178,0.057c-0.252,-3.08 1.826,-5.108 1.826,-5.108z" fill="#91875d"/><path d="M244.608,232.843l-1.16,0.634c-0.197,0.108 -0.387,-0.162 -0.19,-0.27l1.029,-0.561zM245.193,233.204c-0.418,0.228 -0.837,0.456 -1.255,0.686c-0.197,0.106 -0.387,-0.165 -0.19,-0.271l1.123,-0.612zM244.43,234.301c-0.198,0.107 -0.387,-0.164 -0.19,-0.271c0.405,-0.22 0.81,-0.443 1.217,-0.662l0.322,0.197c-0.45,0.244 -0.9,0.491 -1.35,0.736M244.92,234.712c-0.198,0.108 -0.386,-0.163 -0.19,-0.27l1.312,-0.715l0.322,0.199l-1.444,0.786M245.411,235.124c-0.197,0.107 -0.386,-0.163 -0.19,-0.27c0.468,-0.256 0.938,-0.51 1.406,-0.767l0.323,0.198l-1.539,0.84M251.096,237.751c-4.392,0.02 -8.786,0.039 -13.179,0.056c-0.13746,-0.01195 -0.24296,-0.12702 -0.24296,-0.265c0,-0.13798 0.1055,-0.25305 0.24296,-0.265l13.176,-0.057c0.13585,0.01366 0.2395,0.12762 0.24027,0.26415c0.00077,0.13653 -0.10159,0.25165 -0.23727,0.26685M243.917,232.685c-1.391,0.005 -2.782,0.01 -4.173,0.017c-0.13581,-0.01393 -0.23924,-0.12808 -0.23975,-0.2646c-0.00051,-0.13653 0.10205,-0.25145 0.23775,-0.2664c1.39,-0.007 2.782,-0.012 4.174,-0.018c0.13802,0.01171 0.24416,0.12703 0.24442,0.26554c0.00026,0.13851 -0.10545,0.25423 -0.24342,0.26646" fill="#ffffff"/><path d="M231.947,232.435c0,0 2.078,2.028 1.825,5.108l-13.177,-0.057c0,0 -0.048,-2.656 4.009,-3.116l3.169,-1.95z" fill="#91875d"/><path d="M227.403,232.646l1.028,0.561c0.198,0.108 0.008,0.378 -0.19,0.27l-1.16,-0.634zM226.818,233.007l1.124,0.612c0.197,0.106 0.007,0.377 -0.19,0.271c-0.419,-0.23 -0.837,-0.458 -1.256,-0.686zM227.26,234.301c-0.449,-0.245 -0.898,-0.492 -1.348,-0.736l0.32,-0.197c0.407,0.219 0.813,0.442 1.218,0.662c0.197,0.107 0.008,0.378 -0.19,0.271M226.769,234.712l-1.443,-0.786l0.322,-0.199l1.311,0.715c0.197,0.107 0.008,0.378 -0.189,0.27M226.278,235.125l-1.538,-0.84l0.323,-0.198c0.468,0.257 0.938,0.511 1.405,0.767c0.197,0.107 0.007,0.377 -0.19,0.27M220.593,237.751c-0.13569,-0.0152 -0.23805,-0.13032 -0.23727,-0.26685c0.00077,-0.13653 0.10442,-0.25049 0.24027,-0.26415l13.177,0.057c0.13744,0.01221 0.24272,0.12748 0.24246,0.26546c-0.00026,0.13798 -0.10598,0.25285 -0.24346,0.26454c-4.393,-0.017 -8.787,-0.036 -13.179,-0.056M227.772,232.685c-0.13796,-0.01248 -0.24345,-0.1284 -0.24293,-0.26692c0.00052,-0.13852 0.10689,-0.25364 0.24493,-0.26508c1.391,0.006 2.784,0.011 4.174,0.018c0.13569,0.0152 0.23805,0.13032 0.23727,0.26685c-0.00077,0.13653 -0.10442,0.25049 -0.24027,0.26415c-1.391,-0.007 -2.781,-0.012 -4.173,-0.017" fill="#ffffff"/><path d="M235.755,207.402h0.001l12.18,-1.69c0,0 -1.21,21.168 -1.874,28.134h-7.93c0,0 -0.503,-4.52 -2.376,-22.016v-0.001v0.001c-1.963,17.627 -2.377,22.016 -2.377,22.016h-7.93c-0.663,-6.966 -1.874,-28.134 -1.874,-28.134z" fill="#333e40"/><path d="M223.94,211.901c3.168,-0.877 4.198,-3.487 4.505,-5.513l-4.869,-0.675c0,0 0.145,2.558 0.364,6.188M247.571,211.901c-3.168,-0.877 -4.197,-3.487 -4.505,-5.513l4.87,-0.675c0,0 -0.146,2.558 -0.365,6.188" fill="#192223"/><path d="M224.31,184.704l-4.535,-2.617c2.687,-8.75 12.702,-7.69 12.702,-7.69c0.723,2.117 3.273,2.083 3.279,2.083c0.006,0 2.556,0.034 3.279,-2.082c0,0 5.845,-1.592 15.234,3.448l-2.548,5.745l-5.956,-1.749c0,0 1.062,17.54 2.537,23.71c0,0 -3.636,1.852 -12.368,1.852c-0.062,0 -0.117,-0.003 -0.178,-0.003c-0.061,0 -0.117,0.003 -0.178,0.003c-8.732,0 -12.368,-1.851 -12.368,-1.851c1.474,-6.171 2.537,-23.711 2.537,-23.711l-1.436,2.862z" fill="#fed614"/><path d="M226.188,206.45c0.002,-0.03 1.899,-24.21 3.675,-25.775c1.627,-1.433 5.358,-1.119 5.983,-1.055c0.626,-0.064 4.357,-0.378 5.983,1.055c1.776,1.566 3.673,25.745 3.676,25.776c-1.996,0.471 -5.117,0.952 -9.57,0.952h-0.177c-4.453,0 -7.574,-0.481 -9.57,-0.952" fill="#ffe67b"/><path d="M261.177,145.947c1.711,1.48 -0.867,6.107 -3.713,6.847l-0.026,-0.043c0.0842,-1.52731 0.09288,-3.05784 0.026,-4.586v-0.002c0,0 2.002,-3.696 3.713,-2.216" data-paper-data="{&quot;origPos&quot;:null}" fill="#f3d7b4"/><path d="M235.755,125.13c0,0 25.235,-2.222 22.242,29.837c0,0 -0.57,8.188 -7.272,10.964c-6.7,2.776 -11.69,4.442 -11.69,8.466c0,0 -0.048,2.267 -3.28,2.267c-3.231,0 -3.278,-2.267 -3.278,-2.267c0,-4.024 -4.99,-5.69 -11.69,-8.466c-6.701,-2.776 -7.271,-10.964 -7.271,-10.964c-2.994,-32.06 22.24,-29.839 22.24,-29.839" data-paper-data="{&quot;origPos&quot;:null}" fill="#f3d7b4"/><path d="M209.839,145.947c1.71,-1.48 3.712,2.216 3.712,2.216v0.002c-0.06687,1.52816 -0.05819,3.05869 0.026,4.586l-0.026,0.043c-2.846,-0.74 -5.422,-5.367 -3.712,-6.847" data-paper-data="{&quot;origPos&quot;:null}" fill="#f3d7b4"/><path d="M222.64,152.747c0,-1.251 0.659,-2.266 1.472,-2.266c0.814,0 1.474,1.015 1.474,2.266c0,1.252 -0.66,2.267 -1.474,2.267c-0.812,0 -1.472,-1.015 -1.472,-2.267M246.306,152.747c0,-1.251 0.66,-2.266 1.473,-2.266c0.813,0 1.473,1.015 1.473,2.266c0,1.252 -0.66,2.267 -1.473,2.267c-0.813,0 -1.473,-1.015 -1.473,-2.267" fill="#2b2629"/><path d="M238.227,156.31c-3.422,3.053 -4.562,0 -4.562,0c1.9,1.48 4.562,0 4.562,0" fill="#964a3e"/><path d="M245.727,159.435c-3.778,4.745 -12.206,4.178 -15.292,3.003c-3.084,-1.175 -4.27,-4.249 -4.27,-4.249c8.471,3.716 19.562,1.246 19.562,1.246" fill="#ffffff"/><path d="M211.434,141.677c0,0 -1.953,-3.165 1.12,-3.918c0,0 -1.911,-3.425 1.61,-3.917c0,0 -1.646,-4.109 3.233,-4.57c0,0 0.693,-4.7 5.973,-3.656c0,0 2.597,-5.092 8.5,-2.22c0,0 3.075,-2.938 8.42,0.261c0,0 6.365,-2.48 9.435,3.657c0,0 6.557,-0.131 5.751,5.092c0,0 5.366,0.783 3.488,6.006c0,0 4.456,1.94 1.398,6.382c0.61,0.842 1.129,2.157 -0.37,3.237c-1.312,0.947 -2.251,0.426 -2.839,-0.246c-0.7,0.338 -1.57,0.47 -1.945,-0.67c-0.67,-2.043 0,-2.957 0,-2.957c0,0 -1.609,0.348 -2.817,-0.827c-1.207,-1.175 0.269,-3.613 0.269,-3.613c0,0 -1.37,0.914 -2.593,-0.13c-1.223,-1.045 -0.904,-3.395 -0.904,-3.395c0,0 -1.393,2.437 -3.3,2.176c-1.905,-0.261 -2.738,-2.176 -2.738,-2.176c0,0 -1.493,3.786 -4.898,1.566c0,0 -0.858,2.873 -3.675,1.045c0,0 -1.475,2.873 -3.89,1.175c0,0 -2.165,3.395 -4.838,1.045c0,0 -0.708,3.395 -4.44,1.828c0,0 -0.482,4.554 -3.987,2.22c0,0 -0.133,5.308 -3.846,3.091c0,0 -2.97,0.31 -2.117,-2.37c0,0 -3.091,-2.52 0,-4.116" fill="#2b2629"/></g></g></svg>