<svg version="1.1" xmlns="http://www.w3.org/2000/svg" xmlns:xlink="http://www.w3.org/1999/xlink" width="73.24711" height="116.42915" viewBox="0,0,73.24711,116.42915"><g transform="translate(-203.00089,-121.462)"><g data-paper-data="{&quot;isPaintingLayer&quot;:true}" fill-rule="evenodd" stroke="none" stroke-width="1" stroke-linecap="butt" stroke-linejoin="miter" stroke-miterlimit="10" stroke-dasharray="" stroke-dashoffset="0" style="mix-blend-mode: normal"><path d="M229.307,231.971l-0.512,-19.213c0,0 4.326,-4.75 6.31,-5.3c1.43,-0.397 5.855,0.912 5.855,0.912l-1.96,23.6h-0.008c1.815,1.125 3.135,3.416 1.579,5.282c-1.174,1.314 -2.906,0.277 -4.22,-0.276c-1.452,-0.692 -3.113,-1.178 -4.426,-2.079c-0.851,-0.59 -1.85,-1.238 -2.422,-2.123c-0.176,-0.274 -0.261,-0.55 -0.197,-0.804M218.3,231.971h-0.007l-1.958,-23.601c0,0 4.365,-1.327 5.775,-0.943c2.008,0.55 6.392,5.331 6.392,5.331l-0.514,19.213h-0.003c0.065,0.264 -0.019,0.53 -0.197,0.804c-0.576,0.885 -1.572,1.532 -2.419,2.123c-1.316,0.9 -2.979,1.387 -4.43,2.08c-1.313,0.552 -3.042,1.59 -4.219,0.276c-1.555,-1.867 -0.235,-4.162 1.58,-5.283M205.08,199.134c0.108,-0.999 0.442,-1.89 0.918,-2.58c-0.005,0.04 -0.005,0.062 -0.005,0.062c0,0 1.417,-14.207 5.113,-18.93c1.693,-2.162 7.539,-5.3 8.224,-5.664c1.29,-0.934 4.203,-1.354 6.013,-1.525c-0.304,-0.667 -0.486,-1.393 -0.486,-1.92h7.648c0,0.527 -0.178,1.24 -0.48,1.903c1.778,0.173 4.37,0.758 6.06,1.525c0.748,0.34 2.318,0.834 3.092,1.108c2.33,0.812 8.6,3.084 8.6,3.084l5.543,-6.51c-0.09664,-0.27252 -0.16631,-0.55387 -0.208,-0.84c-0.354,-0.648 -0.647,-1.455 -0.823,-2.36c-0.459,-2.365 0.051,-4.45 1.144,-4.665c0.585,-0.111 1.215,0.335 1.747,1.136c1.178,-1.13 2.63,-1.6 3.84,-1.088c1.858,0.786 2.445,3.585 1.32,6.248c-0.729,1.71 -1.985,2.949 -3.283,3.411h0.004c0,0 -3.456,9.815 -6.47,10.908c-2.438,0.883 -11.337,-2.692 -11.337,-2.692v-0.013c1.674,10.2 -0.077,25.772 -0.077,25.772h-25.059c0,0 -1.5,-14.134 -0.158,-24.297v0.006c-0.197,0.54 -1.282,1.498 -2.139,2.71c-1.714,2.427 -3.321,12.69 -3.321,12.69c0.038,0.068 0.077,0.141 0.111,0.214c0.435,0.424 0.86,0.996 1.213,1.663c0.934,1.757 1.03,3.527 0.219,3.958c-0.433,0.229 -1.04,0.03 -1.65,-0.476c-0.658,1.174 -1.693,1.896 -2.771,1.78c-1.654,-0.175 -2.792,-2.24 -2.542,-4.617" data-paper-data="{&quot;origPos&quot;:null}" fill="#c0936a"/><path d="M225.676,171.105c-0.435,-0.658 -0.735,-1.569 -0.807,-2.229c1.215,0.2 2.46,0.3 3.728,0.3c1.327,0 2.627,-0.113 3.894,-0.33l-0.015,0.015l-6.8,2.244" fill="#eeac6c"/><path d="M253.801,158.376c0,-6.202 5.027,-11.223 11.222,-11.223c6.202,0 11.225,5.021 11.225,11.223c0,6.197 -5.023,11.222 -11.225,11.222c-6.195,0 -11.222,-5.025 -11.222,-11.222" fill="#f7b90b"/><path d="M257.036,166.258c0.253,-0.01 0.502,-0.017 0.761,-0.017c4.346,0 8.282,1.286 8.694,1.425c0.07,-0.313 0.57,-2.597 0.803,-5.627h-12.878c-0.011,-0.021 -0.015,-0.045 -0.024,-0.066h12.909c0.122,-1.605 0.169,-3.412 0.045,-5.23h-13.426c0.00227,-0.02248 0.00561,-0.04484 0.01,-0.067h13.41c-0.08137,-1.17195 -0.25018,-2.33619 -0.505,-3.483c-0.097,-0.37 -0.202,-0.73 -0.326,-1.086h-10.795c0.015,-0.021 0.028,-0.045 0.045,-0.066h1.657c0.214,-0.268 1.36,-1.67 2.948,-3.093c0.515,-0.46 1.108,-0.95 1.755,-1.416l0.191,-0.05c-2.462,1.732 -4.425,4.083 -4.809,4.559h4.218c0.261,-0.21 1.665,-1.308 3.728,-2.289c1.187,-0.568 2.732,-1.161 4.479,-1.479l0.1,0.054c-1.778,0.309 -3.349,0.909 -4.551,1.483c-1.2928,0.61318 -2.51754,1.36062 -3.654,2.23h4.708c0.129,-0.036 2.951,-0.848 6.041,-0.848c0.384,0 0.752,0.01 1.11,0.036l0.058,0.071c-0.38873,-0.02761 -0.77829,-0.04195 -1.168,-0.043c-0.724,0 -1.434,0.045 -2.096,0.116v16.815l-0.066,0.039v-16.848c-1.27983,0.13708 -2.547,0.3738 -3.79,0.708c0.104,0.362 0.198,0.73 0.286,1.101c0.789,3.058 0.714,6.56 0.493,9.088c-0.15954,1.81629 -0.43443,3.6206 -0.823,5.402c0.215,0.069 1.62,0.495 3.485,0.73c-0.035,0.02 -0.069,0.037 -0.108,0.054c-1.15354,-0.14785 -2.29302,-0.39 -3.407,-0.724c0,0 -2.243,-0.812 -5.293,-1.183c0.305,0.24 2.214,1.37 4.224,2.317c0.414,0.192 0.874,0.39 1.371,0.578c-0.045,0.009 -0.087,0.015 -0.128,0.022c-0.42989,-0.16525 -0.85352,-0.34637 -1.27,-0.543c-2.283,-1.07 -4.293,-2.387 -4.293,-2.387c-1.19,-0.182 -1.989,-0.233 -3.358,-0.233l-0.321,0.002c0.145,0.186 0.486,0.615 0.975,1.161c-0.08985,-0.06564 -0.17918,-0.13198 -0.268,-0.199c-0.386,-0.446 -0.656,-0.79 -0.789,-0.958c-0.098,0 -0.195,0.004 -0.293,0.007c-0.02115,-0.02152 -0.04282,-0.04253 -0.065,-0.063M274.052,151.702v13.346c-0.024,0.028 -0.045,0.06 -0.069,0.088v-13.524l0.069,0.09" fill="#727371"/><path d="M254.22,166.36332c-0.339,-2.267 0.238,-4.228 1.283,-4.385c1.048,-0.156 2.169,1.554 2.51,3.817c0.338,2.269 -0.236,4.232 -1.283,4.386c-1.049,0.157 -2.172,-1.549 -2.51,-3.818" data-paper-data="{&quot;origPos&quot;:null}" fill="#c0936a"/><path d="M241.442,181.007c1.558,6.66 -0.045,26.79 -0.482,27.365c-4.974,-0.075 -12.165,4.386 -12.165,4.386h-0.294c0,0 -6.983,-4.59 -12.167,-4.386c-0.435,-0.575 -1.862,-19.65 -0.51,-26.015c0,0 6.444,-3.872 7.196,-11.558c0.79,-0.197 1.547,-0.22 1.547,-0.22c0,0 0.302,5.892 4.224,5.892c4.056,0 4.153,-5.88 4.153,-5.88c0,0 0.949,0.096 1.699,0.328c0.383,7.714 6.8,10.088 6.8,10.088" fill="#82a74d"/><path d="M221.298,203.319c7.078,0 12.165,4.446 13.963,6.281c-0.812,0.302 -1.596,0.636 -2.322,0.973c-1.181,-1.44 -5.115,-5.69 -11.64,-7.254M225.603,201.662c7.785,0 13.162,5.383 14.4,6.745c-0.92939,0.0927 -1.84827,0.27078 -2.745,0.532c-1.155,-1.419 -5.095,-5.7 -11.655,-7.277M230.349,171.632c1.266,0.255 -0.596,-1.112 -0.724,-1.3l0.06,0.505c0.017,-0.077 0.188,0.699 0.665,0.795M227.296,171.673c0.22,-0.285 0.158,-1.202 0.158,-1.202c-0.078,-0.018 -0.618,0.204 -0.758,0.502c-0.401,0.743 -0.052,1.474 0.6,0.7M231.72,171.313c0.575,0.572 0.656,1.444 -0.55,1.554c-0.922,0.028 -1.897,-1.41 -2.542,-2.18c-0.471,-0.565 -0.516,-0.107 -0.516,-0.107c0.302,1.267 0.06,3.133 -1.693,2.563c-0.915,-0.353 -1.611,-1.397 -0.958,-2.173c0.283,-0.396 0.947,-0.586 1.457,-0.826c0.348,-0.166 0.96,-0.5 1.093,-0.86c0.084,-0.217 0.022,-0.459 0.112,-0.675c-0.266,-0.975 0.372,-0.221 0.775,0.853c0.296,0.792 1.5,0.531 2.823,1.851" fill="#f6b90c"/><path d="M206.144,149.524c-0.17363,-1.15052 -0.26055,-2.31245 -0.26,-3.476c0,-12.77 10.35,-23.121 23.12,-23.121c12.771,0 23.121,10.352 23.121,23.12c0,1.126 -0.08,2.236 -0.236,3.318c1.333,0.73 2.235,2.109 2.235,3.69c0,2.346 -1.978,4.25 -4.416,4.25c-0.163,0 -0.326,-0.011 -0.487,-0.026c-3.949,7.092 -11.522,11.89 -20.217,11.89c-8.685,0 -16.252,-4.789 -20.203,-11.869c-0.071,0.002 -0.14,0.004 -0.208,0.004c-2.44,0 -4.417,-1.903 -4.417,-4.249c0,-1.472 0.78,-2.77 1.968,-3.531" data-paper-data="{&quot;origPos&quot;:null}" fill="#c0936a"/><path d="M224.311,144.65c0,0 -0.503,1.803 -2.082,1.446c-0.772,-0.174 -0.908,-1.201 -3.386,-0.74c-0.779,0.18 -2.417,1.156 -2.732,1.808c-0.316,0.652 -0.088,-2.392 2.457,-3.522c1.835,-0.675 2.457,-0.642 3.977,-0.642c1.52,0 1.987,0.907 1.766,1.65M234.052,144.65c0,0 0.503,1.803 2.082,1.446c0.772,-0.174 0.908,-1.201 3.386,-0.74c0.779,0.18 2.417,1.156 2.732,1.808c0.316,0.652 0.087,-2.392 -2.457,-3.522c-1.835,-0.675 -2.457,-0.642 -3.977,-0.642c-1.52,0 -1.987,0.907 -1.766,1.65" fill="#ad6920"/><path d="M222,152c0,1.657 -0.895,3 -2,3c-1.105,0 -2,-1.343 -2,-3c0,-1.657 0.895,-3 2,-3c1.105,0 2,1.343 2,3M240,152c0,1.657 -0.895,3 -2,3c-1.105,0 -2,-1.343 -2,-3c0,-1.657 0.895,-3 2,-3c1.105,0 2,1.343 2,3" data-paper-data="{&quot;origPos&quot;:null}" fill="#ad6920"/><path d="M229.02,155.069c-1.125,0.153 -3.02,1.834 -3.02,1.834c0,0 0.207,-1.009 0.503,-1.299c0.8,-1.156 2.487,-1.604 2.487,-1.604c0,0 2.173,0.703 2.65,1.588c0.443,0.824 0.34,1.238 0.34,1.238c0,0 -2.121,-1.871 -2.96,-1.756z" fill="#eeac6c"/><path d="M222.2,158.696c0,0 6.897,3.208 13.172,-0.397c0,0 -1.39,5.47 -5.95,5.561c-4.115,0.122 -4.984,-1.492 -5.477,-1.956c-0.492,-0.463 -1.42,-1.772 -1.745,-3.208" data-paper-data="{&quot;origPos&quot;:null}" fill="#bb5050"/><path d="M252.943,143.262c0.173,2.698 -1.167,6.46 -1.167,6.46c0,0 -6.11,-7.23 -9.836,-9.26c-4.554,-2.477 -6.825,1.172 -10.894,-2.042c-0.675,-0.532 -1.933,-1.942 -1.933,-1.942c0,0 -1.532,1.545 -1.937,1.942c-4.578,4.48 -8.008,-0.746 -11.863,1.956c-4.905,3.448 -9.047,9.182 -9.047,9.182c0,0 -1.425,-1.631 -1.228,-6.551c0.058,-1.414 0.743,-4.557 1.863,-7.75c4.047,-8.124 12.436,-13.708 22.13,-13.708c11.132,0 23.057,8.411 23.912,21.714" fill="#ad6920"/><path d="M206.026,149.838c-0.602,-2.561 -1.103,-5.107 -1.009,-6.645c0.877,-13.995 12.909,-21.731 24.04,-21.731c9.695,0 18.084,5.58 22.132,13.703c1.119,3.198 1.807,6.339 1.862,7.755c0.082,2.013 -0.467,4.434 -1.15,6.594c1.29,0.733 2.153,2.087 2.153,3.634c0,2.332 -1.967,4.224 -4.393,4.224c-0.163,0 -0.325,-0.009 -0.484,-0.026c-1.11535,2.00035 -2.52208,3.82363 -4.174,5.41c1.888,-19.49 -3.377,-24.633 -15.94,-24.633c-11.752,0 -16.818,5.766 -15.93,24.739c-2.032,-1.96 -3.042,-3.33 -4.173,-5.494c-0.067,0.004 -0.135,0.004 -0.206,0.004c-2.426,0 -4.393,-1.892 -4.393,-4.224c0,-1.341 0.652,-2.537 1.665,-3.31" fill="#82a74d"/><path d="M248.005,150.978c1.476,-4.41 3.87,-7.584 5.346,-7.09c1.481,0.496 3.002,5.198 1.528,9.61c-1.474,4.408 -5.394,6.853 -6.872,6.36c-1.474,-0.497 -1.474,-4.47 -0.002,-8.88" fill="#768d4b"/><path d="M251.14,145.912c0.222,-0.72 0.829,-1.17 1.352,-1.009c0.523,0.162 0.764,0.876 0.544,1.596c-0.225,0.717 -0.829,1.167 -1.352,1.007c-0.524,-0.163 -0.767,-0.876 -0.544,-1.594M248.49,151.937c0.222,-0.718 0.829,-1.168 1.352,-1.008c0.523,0.164 0.765,0.877 0.547,1.594c-0.225,0.72 -0.832,1.17 -1.352,1.01c-0.525,-0.165 -0.77,-0.877 -0.547,-1.597M247.787,157.415c-0.062,-0.752 0.328,-1.397 0.876,-1.442c0.547,-0.047 1.042,0.525 1.102,1.273c0.064,0.75 -0.328,1.392 -0.872,1.442c-0.549,0.045 -1.044,-0.525 -1.106,-1.273" fill="#667c3e"/><path d="M210.475,150.978c1.477,4.41 1.472,8.383 -0.004,8.88c-1.476,0.493 -5.396,-1.952 -6.868,-6.36c-1.476,-4.412 0.045,-9.114 1.524,-9.61c1.476,-0.494 3.872,2.68 5.348,7.09" fill="#768d4b"/><path d="M207.34,145.912c0.223,0.718 -0.02,1.431 -0.546,1.594c-0.52,0.16 -1.13,-0.29 -1.35,-1.007c-0.225,-0.72 0.022,-1.434 0.544,-1.596c0.525,-0.161 1.13,0.289 1.353,1.009M209.99,151.936c0.223,0.72 -0.022,1.432 -0.547,1.597c-0.523,0.16 -1.129,-0.29 -1.35,-1.01c-0.225,-0.717 0.02,-1.43 0.545,-1.594c0.522,-0.16 1.129,0.29 1.352,1.008M210.693,157.415c-0.062,0.748 -0.56,1.318 -1.106,1.273c-0.544,-0.05 -0.936,-0.692 -0.874,-1.442c0.062,-0.748 0.557,-1.32 1.106,-1.273c0.544,0.045 0.936,0.69 0.874,1.442" fill="#667c3e"/><path d="M229.058,136.095c9.694,0 19.041,0 16.971,25.614c-0.184,0.23 -0.505,0.58 -1.026,1.048c1.888,-19.492 -3.377,-24.635 -15.94,-24.635c-11.752,0 -16.818,5.767 -15.93,24.74c-0.423,-0.382 -0.599,-0.519 -0.911,-0.911c-2.52,-24.11 5.704,-25.856 16.836,-25.856" fill="#f6b90c"/></g></g></svg>