<svg version="1.1" xmlns="http://www.w3.org/2000/svg" xmlns:xlink="http://www.w3.org/1999/xlink" width="108.20126" height="118.17846" viewBox="0,0,108.20126,118.17846"><g transform="translate(-186.3815,-121.01449)"><g data-paper-data="{&quot;isPaintingLayer&quot;:true}" fill-rule="evenodd" stroke-linecap="butt" stroke-linejoin="miter" stroke-miterlimit="10" stroke-dasharray="" stroke-dashoffset="0" style="mix-blend-mode: normal"><path d="M202.64303,204.92015c6.1,-2.455 13.795,3.791 13.795,3.791c-1.098,8.083 1.717,6.863 3.55,6.613c1.831,-0.235 2.198,2.206 2.198,2.206c0,0 0.249,0.867 -0.849,1.35c-1.1,0.487 -1.717,1.956 -1.1,3.794c0.705,2.145 0.733,6.98 -5.997,6.98c-6.713,0 -7.198,-9.421 -7.198,-9.421c-5.748,-5.643 -4.399,-15.313 -4.399,-15.313M260.07103,209.46015c-5.191,-1.823 -8.446,-4.79 -8.446,-4.79c-0.91656,0.25224 -1.85349,0.42356 -2.8,0.512c-1.993,0.164 -3.458,-0.174 -4.53,-0.704c-1.906,-0.955 -2.64,-2.513 -3.05,-2.983c-0.733,-0.867 -0.484,-3.675 -0.116,-5.277c0.367,-1.587 1.216,-2.572 1.334,-4.157c0.131,-1.59 1.716,-1.958 2.933,-1.59c2.447,0.972 5.013,-0.368 5.013,-0.368c3.915,1.471 4.882,3.793 4.882,3.793h6.729c9.281,-2.454 13.679,3.056 14.163,7.965c0.5,4.896 -3.298,9.923 -11.23,8.82c-1.66614,-0.23214 -3.30275,-0.64145 -4.882,-1.221M262.13903,150.78915c0.615,-1.234 -0.851,-2.335 -3.547,-2.088c-2.686,0.25 -3.784,2.69 -3.784,2.69c-0.367,1.353 0.982,0.619 2.565,-0.85c1.584,-1.472 4.15,1.468 4.766,0.248M258.66503,153.36115c-1.21681,-0.00053 -2.384,0.48234 -3.24479,1.34238c-0.86079,0.86004 -1.34468,2.02681 -1.34521,3.24362c-0.00213,1.21874 0.48033,2.38833 1.34108,3.25114c0.86075,0.86281 2.02918,1.34806 3.24793,1.34886c2.521,0 4.575,-2.059 4.575,-4.601c0,-2.528 -2.055,-4.585 -4.575,-4.585M259.69103,147.59915c0,0 0.982,-2.925 -0.836,-6.232c0.455,0.164 7.653,2.911 10.365,6.232c0,0 0,0.015 0.015,0.031c0.087,0.292 0.836,2.805 2.684,6.833c1.084,2.381 2.285,6.848 2.272,11.627h-0.205c0,0 -9.75,0 -14.062,11.757c-0.689,-5.702 -8.225,-9.597 -13.912,-7.584c-2.494,0.882 -4.809,2.865 -6.29,5.025c-2.229,3.279 -1.48,7.423 0.924,10.393c1.085,1.338 2.814,2.599 4.69,3.439c-0.938,0.352 -3.827,1.322 -7.14,1.22c0,0 -1.422,0.704 -3.783,1.396l-0.013,-0.044c-0.735,-25.104 -24.06,-15.801 -24.06,-15.801c0,0 -7.331,-0.984 -5.747,-9.066c1.584,-8.086 7.698,-7.717 9.897,-5.747c2.198,1.954 3.182,2.204 3.548,-1.97c0.366,-4.16 4.765,-11.626 10.38,-13.463c0,0 2.932,3.057 8.064,4.527c0,0 -1.1,-4.41 0,-6.864c0,0 9.896,1.234 12.462,4.909c0,0 2.198,-3.438 -1.218,-7.114c0,0 10.133,3.308 11.964,6.496M227.06903,160.76815c0.00221,2.53342 2.05658,4.586 4.59,4.586c2.522,0 4.573,-2.058 4.573,-4.586c0,-2.541 -2.051,-4.6 -4.573,-4.6c-1.21884,0.00133 -2.38723,0.48685 -3.24804,1.34973c-0.86082,0.86289 -1.34355,2.03242 -1.34196,3.25127M226.99503,153.74215c0.691,1.179 3.035,-1.938 4.736,-0.586c1.688,1.352 3.079,1.983 2.61,0.662c0,0 -1.275,-2.368 -3.973,-2.412c-2.697,-0.044 -4.075,1.162 -3.373,2.336" data-paper-data="{&quot;origPos&quot;:null}" fill="#ffc2a6" stroke="#ffc2a6" stroke-width="0.5"/><path d="M282.599,224.772c6.143,-6.069 9.457,-6.233 10.673,-5.967c3.577,1.985 -1.085,8.878 -3.093,11.228c-2.157,2.528 -6.422,4.264 -9.897,3.204v-0.015c-3.049,-1.587 -0.614,-5.143 2.317,-8.45" fill="#c8c9c9" stroke="none" stroke-width="1"/><path d="M284.431,220.729c0,0 5.132,-3.922 8.797,-1.954c0.014,0.015 0.029,0.015 0.044,0.03c-1.217,-0.266 -4.53,-0.103 -10.673,5.967c-2.932,3.307 -5.367,6.864 -2.317,8.45v0.015c-1.13038,-0.33238 -2.1455,-0.9738 -2.931,-1.852c-2.684,-4.775 7.08,-10.655 7.08,-10.655" fill="#888889" stroke="none" stroke-width="1"/><path d="M244.48,204.122c1.071,0.529 2.537,0.868 4.529,0.706l-0.131,1.941c0,0 -2.069,1.469 -4.514,-0.369l0.116,-2.278M245.784,188.881c1.6,0.691 3.3,1.058 4.81,0.866c0,0 -2.565,1.338 -5.015,0.368l0.206,-1.234" fill="#604c3f" stroke="none" stroke-width="1"/><path d="M195.365,238.984c-4.032,-0.985 -10.996,-13.962 -8.43,-16.299c5.498,-2.204 10.028,8.333 11.361,12.125c1.349,3.806 -2.066,4.29 -2.066,4.29v0.048c-0.278,-0.048 -0.571,-0.091 -0.865,-0.164" fill="#c8c9c9" stroke="none" stroke-width="1"/><path d="M186.935,222.685c2.302,-2.087 9.457,1.764 10.879,2.557l-0.046,0.074c1.159,0.705 4.943,3.687 3.593,11.83c0,0 -1.687,2.41 -5.131,2v-0.046c0,0 3.415,-0.484 2.065,-4.29c-1.332,-3.791 -5.863,-14.329 -11.36,-12.125" fill="#888889" stroke="none" stroke-width="1"/><path d="M198.063,225.388c0,0 4.882,-4.172 9.162,-5.51c0,0 0.485,9.42 7.199,9.42c6.729,0 6.701,-4.834 5.996,-6.981c-0.616,-1.836 0,-3.306 1.1,-3.792c1.1,-0.484 0.849,-1.35 0.849,-1.35c0,0 20.775,-4.278 26.025,-5.747c5.248,-1.471 17.228,3.423 21.01,3.54c1.92,0.074 2.52,-0.808 2.653,-1.689c0.805,0.189 7.449,1.836 12.375,7.45c0,0 -9.766,5.88 -7.082,10.656c0,0 -13.928,0 -18.077,-0.485c-4.164,-0.499 -6.964,-0.133 -10.028,1.103c-3.049,1.219 -33.721,6.73 -47.884,5.144c1.349,-8.144 -2.435,-11.126 -3.593,-11.832l0.045,-0.073c0.16,0.088 0.25,0.146 0.25,0.146" fill="#74b9be" stroke="none" stroke-width="1"/><path d="M265.137,210.325c7.931,1.102 11.729,-3.924 11.231,-8.818c-0.483,-4.911 -4.883,-10.421 -14.163,-7.967h-6.731c0,0 -0.965,-2.322 -4.88,-3.792c7.082,-0.867 6.715,-4.174 6.715,-4.174c1.187,-0.073 2.537,-0.221 3.957,-0.631c1.686,-0.088 8.256,-0.088 13.636,4.672c6.231,5.513 6.964,19.108 -2.434,21.813l-0.617,0.131c-3.547,0.72 -8.707,0.647 -11.596,-2.455c1.57925,0.57954 3.21586,0.98886 4.882,1.221" fill="#cae2ad" stroke="none" stroke-width="1"/><path d="M271.852,211.559c0.044,0.131 0.322,0.926 0.206,1.72c-0.133,0.88 -0.733,1.763 -2.655,1.69c-3.782,-0.118 -15.761,-5.011 -21.008,-3.542c-5.25,1.47 -26.025,5.747 -26.025,5.747c0,0 -0.366,-2.44 -2.198,-2.205c-1.833,0.25 -4.648,1.469 -3.55,-6.614c0,0 -7.695,-6.245 -13.795,-3.79c-1.233,1.101 -1.1,-1.221 -0.616,-2.455c3.153,-8.688 9.558,-11.686 10.967,-12.244c8.254,4.264 16.7,2.895 21.42,1.515c2.361,-0.693 3.784,-1.398 3.784,-1.398c3.31,0.104 6.201,-0.866 7.14,-1.219c0.08456,0.04592 0.17248,0.08536 0.263,0.118l-0.205,1.232c-1.217,-0.366 -2.802,0 -2.933,1.59c-0.118,1.586 -0.967,2.571 -1.334,4.157c-0.366,1.604 -0.617,4.411 0.116,5.277c0.411,0.47 1.144,2.029 3.051,2.984l-0.117,2.278c2.448,1.838 4.516,0.368 4.516,0.368l0.13,-1.941c0.837,-0.073 1.76,-0.235 2.8,-0.513c0,0 3.256,2.967 8.446,4.79c2.887,3.102 8.05,3.175 11.597,2.455" data-paper-data="{&quot;origPos&quot;:null}" fill="#cae2ad" stroke="#cae2ad" stroke-width="0.5"/><path d="M209.909,184.721c-0.118,-4.775 0.614,-9.185 0.614,-9.185c0,0 23.327,-9.303 24.06,15.8l0.015,0.044c-4.72,1.381 -13.166,2.75 -21.42,-1.513c-1.60262,-0.8335 -3.11583,-1.82868 -4.516,-2.97c0.808,-0.03 1.276,-0.705 1.248,-2.176M261.266,184.943c-1.422,0.41 -2.771,0.559 -3.957,0.632c0,0 -0.236,-0.734 -0.852,-0.971c1.32,-0.412 2.156,-1.44 2.771,-2.63c0.793,-1.559 1.042,-3.074 0.88,-4.484c4.311,-11.757 14.061,-11.757 14.061,-11.757h0.205c-0.015,3.821 -0.791,7.833 -3.006,11.155c-3.431,5.116 -6.978,7.187 -10.102,8.055" data-paper-data="{&quot;origPos&quot;:null}" fill="#ffc2a6" stroke="none" stroke-width="1"/><path d="M260.108,177.49c0.162,1.411 -0.087,2.926 -0.88,4.484c-0.614,1.19 -1.451,2.219 -2.771,2.63c0.617,0.236 0.853,0.97 0.853,0.97c0,0 0.365,3.307 -6.717,4.174c-1.507,0.192 -3.209,-0.177 -4.807,-0.867l0.044,-0.235c0,0 -0.106,0.043 -0.31,0.118c-1.876,-0.838 -3.605,-2.102 -4.691,-3.44c-2.404,-2.969 -3.153,-7.114 -0.924,-10.391c1.482,-2.16 3.797,-4.145 6.29,-5.027c5.688,-2.012 13.224,1.883 13.913,7.584" fill="#e95515" stroke="none" stroke-width="1"/><path d="M243.159,165.528c1.044,-1.706 2.259,-2.647 3.622,-2.794c1.908,-0.205 3.329,1.25 3.388,1.308c0.20677,0.22622 0.20018,0.57476 -0.015,0.793c-0.22303,0.20542 -0.56975,0.19339 -0.778,-0.027c-0.015,0 -1.1,-1.134 -2.475,-0.972c-1.013,0.104 -1.952,0.868 -2.801,2.266c-0.11326,0.18043 -0.3177,0.28265 -0.53,0.265c-0.073,-0.017 -0.161,-0.032 -0.234,-0.09c-0.1246,-0.07428 -0.2137,-0.19595 -0.24688,-0.33716c-0.03318,-0.14121 -0.0076,-0.28984 0.07088,-0.41183" fill="#fce2ae" stroke="none" stroke-width="1"/><path d="M231.417,161.206c0,-0.939 0.762,-1.72 1.7,-1.72c0.955,0 1.715,0.781 1.715,1.72c0,0.94303 -0.76447,1.7075 -1.7075,1.7075c-0.94303,0 -1.7075,-0.76448 -1.7075,-1.7075M260.123,160.104c-0.939,0 -1.715,-0.764 -1.715,-1.72c0.03846,-0.91956 0.79513,-1.64524 1.7155,-1.64524c0.92037,0 1.67704,0.72568 1.7155,1.64524c0,0.94837 -0.76763,1.7178 -1.716,1.72" fill="#fefefe" stroke="none" stroke-width="1"/><path d="M231.843,155.814c2.523,0 4.573,2.059 4.573,4.6c0,2.528 -2.051,4.586 -4.573,4.586c-2.53459,0.00055 -4.58989,-2.0534 -4.591,-4.588c-0.00133,-1.21867 0.48152,-2.38796 1.34231,-3.25062c0.86079,-0.86266 2.02902,-1.34805 3.24769,-1.34938M233.118,162.927c0.4563,0.00161 0.89432,-0.17921 1.21659,-0.50224c0.32227,-0.32303 0.50208,-0.76147 0.49941,-1.21776c0,-0.94 -0.762,-1.72 -1.716,-1.72c-0.938,0 -1.7,0.78 -1.7,1.72c0,0.956 0.762,1.72 1.7,1.72M261.838,158.384c-0.02248,-0.93077 -0.78347,-1.67359 -1.7145,-1.67359c-0.93104,0 -1.69202,0.74282 -1.7145,1.67359c-0.0011,0.94765 0.76535,1.71725 1.713,1.72c0.94837,-0.00221 1.716,-0.77163 1.716,-1.72M258.847,162.191c-2.536,0 -4.59,-2.059 -4.59,-4.6c0.00221,-2.53342 2.05657,-4.586 4.59,-4.586c2.522,0 4.575,2.058 4.575,4.587c0,2.54 -2.053,4.6 -4.575,4.6" fill="#3f3a3a" stroke="none" stroke-width="1"/><path d="M230.551,151.05c2.699,0.044 3.974,2.412 3.974,2.412c0.469,1.321 -0.923,0.69 -2.61,-0.662c-1.702,-1.352 -4.046,1.765 -4.736,0.585c-0.704,-1.174 0.676,-2.378 3.372,-2.335M262.323,150.433c-0.616,1.221 -3.182,-1.721 -4.766,-0.248c-1.583,1.469 -2.932,2.203 -2.565,0.851c0,0 1.098,-2.44 3.784,-2.69c2.697,-0.248 4.162,0.853 3.547,2.087" data-paper-data="{&quot;origPos&quot;:null}" fill="#cc9b85" stroke="none" stroke-width="1"/><path d="M259.037,141.012c1.818,3.306 0.838,6.232 0.838,6.232c-1.833,-3.188 -11.966,-6.496 -11.966,-6.496c3.417,3.676 1.219,7.113 1.219,7.113c-2.566,-3.674 -12.463,-4.91 -12.463,-4.91c-1.1,2.456 0,6.866 0,6.866c-5.131,-1.472 -8.062,-4.527 -8.062,-4.527c-5.617,1.837 -10.015,9.303 -10.38,13.461c-0.368,4.175 -1.35,3.924 -3.55,1.97c-2.198,-1.97 -8.311,-2.337 -9.896,5.747c-1.583,8.084 5.747,9.068 5.747,9.068c0,0 -0.733,4.409 -0.615,9.185c0.028,1.471 -0.441,2.146 -1.247,2.176c-1.773,0.075 -5.16,-3.042 -8.034,-7.437c-10.029,-17.033 -0.25,-36.742 -0.25,-36.742c-2.198,-0.252 -3.915,1.837 -3.915,1.837c1.833,-11.273 12.463,-14.213 12.463,-14.213c4.033,-10.288 15.893,-9.302 15.893,-9.302c-2.565,0.233 -4.033,4.276 -4.033,4.276c6.232,-4.043 20.028,-5.379 27.725,-2.94c27.622,8.702 23.458,26.089 22.725,26.337c-0.675,0.237 -1.655,-1.22 -1.818,-1.44c-0.015,-0.015 -0.015,-0.029 -0.015,-0.029c-2.713,-3.322 -9.911,-6.068 -10.366,-6.232" fill="#b18247" stroke="none" stroke-width="1"/><path d="M259.875,147.243c0,0 -5.638,-2.778 -10.163,-3.178c-0.203,-1.015 -0.72,-2.155 -1.802,-3.318c0,0 10.132,3.308 11.965,6.496M259.815,142.97c-0.17861,-0.68177 -0.43953,-1.33927 -0.777,-1.958c0.353,0.126 4.762,1.813 7.99,4.114c-1.95,-0.75 -4.66,-1.677 -7.213,-2.155M249.128,147.86c0,0 -8.428,-3.132 -12.943,-2.378c0.026,-0.903 0.153,-1.802 0.48,-2.53c0,0 9.897,1.234 12.463,4.909" data-paper-data="{&quot;origPos&quot;:null}" fill="#cc9b85" stroke="none" stroke-width="1"/><path d="M246.9,163.836c-1.012,0.104 -1.95,0.868 -2.8,2.264c-0.11333,0.18047 -0.31758,0.28299 -0.53,0.266c-0.073,-0.016 -0.16,-0.03 -0.233,-0.089c-0.125,-0.07414 -0.21453,-0.19584 -0.24809,-0.33724c-0.03356,-0.1414 -0.00826,-0.29036 0.07009,-0.41276c1.043,-1.705 2.26,-2.646 3.623,-2.793c1.906,-0.205 3.328,1.25 3.387,1.308c0.20553,0.22654 0.1994,0.57386 -0.014,0.793c-0.2235,0.2062 -0.5713,0.19416 -0.78,-0.027c-0.014,0 -1.098,-1.134 -2.475,-0.972" data-paper-data="{&quot;origPos&quot;:null}" fill="#e3ac94" stroke="none" stroke-width="1"/><path d="M200.379,142.717c-2.199,-0.25 -3.915,1.838 -3.915,1.838c1.833,-11.272 12.462,-14.215 12.462,-14.215c-10.511,24.5 5.38,18.128 12.954,12.984c7.577,-5.144 18.573,-3.428 22.727,-1.47c4.154,1.96 2.93,-1.958 2.93,-1.958c0.326,0.36 0.622,0.694 0.937,1.044l-0.564,-0.193c3.416,3.676 1.218,7.114 1.218,7.114c-2.566,-3.675 -12.462,-4.909 -12.462,-4.909c-1.1,2.454 0,6.865 0,6.865c-5.131,-1.471 -8.064,-4.528 -8.064,-4.528c-5.615,1.837 -10.014,9.303 -10.38,13.463c-0.366,4.174 -1.35,3.924 -3.548,1.97c-2.199,-1.97 -8.313,-2.338 -9.897,5.746c-1.584,8.083 5.746,9.068 5.746,9.068c0,0 -0.733,4.409 -0.613,9.185c0.027,1.472 -0.442,2.147 -1.247,2.176c-1.775,0.074 -5.16,-3.042 -8.035,-7.437c-10.028,-17.034 -0.25,-36.743 -0.25,-36.743" fill="#a57942" stroke="none" stroke-width="1"/><path d="M220.171,129.852c19.46,-0.18 26.913,-4.672 29.52,-7.078c7.086,2.375 11.989,5.332 15.328,8.395c-23.844,9.673 -44.849,-1.317 -44.849,-1.317" fill="#c6954b" stroke="none" stroke-width="1"/><path d="M239.905,174.933c1.482,-2.16 3.798,-4.145 6.291,-5.027c-6.965,7.965 -3.117,12.978 4.764,15.183c2.42,0.678 4.337,0.413 5.833,-0.27c0.363,0.309 0.516,0.755 0.516,0.755c0,0 0.366,3.308 -6.716,4.174c-1.508,0.191 -3.21,-0.177 -4.808,-0.866l0.044,-0.237c0,0 -0.104,0.044 -0.307,0.119c-1.877,-0.839 -3.608,-2.102 -4.693,-3.44c-2.404,-2.97 -3.153,-7.114 -0.924,-10.391" fill="#d14b11" stroke="none" stroke-width="1"/><path d="M254.992,170.944c0,0 5.496,7.532 1.65,11.205c-2.906,2.775 -6.321,1.203 -8.797,-1.288c-0.61,-0.61 -0.861,-2.433 0.312,-2.39c0.886,0.031 1.83,2.74 2.693,3.25c2.608,1.545 5.785,-0.671 6.352,-3.355c0.506,-2.394 -0.902,-5.454 -2.21,-7.422" fill="#d14b11" stroke="none" stroke-width="1"/><path d="M255.541,175.169c1.466,4.593 -1.1,5.143 -2.382,5.143c-1.283,0 -1.099,-1.654 -0.916,-3.857c0.183,-2.204 -2.016,-2.94 -3.481,-3.124c-1.467,-0.183 -1.283,-1.469 0.365,-1.837c4.582,-0.183 6.414,3.675 6.414,3.675" fill="#fefefe" stroke="none" stroke-width="1"/><path d="M239.905,174.933c0.351,-0.51 0.752,-1.01 1.186,-1.489c-0.007,0.024 -0.018,0.046 -0.028,0.071c-1.156,3.6 -1.44,7.494 0.926,10.63c1.78,2.363 4.8,3.84 7.71,4.088c1.365,0.117 2.62,-0.013 3.858,-0.629c1.172,-0.58 1.994,-2.243 3.02,-2.697c0.072,-0.03 0.147,-0.056 0.216,-0.087c0.363,0.308 0.516,0.754 0.516,0.754c0,0 0.366,3.308 -6.716,4.174c-1.508,0.191 -3.21,-0.177 -4.808,-0.866l0.044,-0.237c0,0 -0.104,0.044 -0.307,0.119c-1.877,-0.839 -3.608,-2.102 -4.693,-3.44c-2.404,-2.97 -3.153,-7.114 -0.924,-10.391" fill="#b84109" stroke="none" stroke-width="1"/><path d="M244.546,190.05c-0.334,0 -0.703,0.1 -1.088,0.27c0.527,-0.328 1.226,-0.396 1.87,-0.259c-0.2606,-0.00753 -0.5213,-0.01119 -0.782,-0.011M268.554,196.48c-6.966,0.55 -15.028,-1.103 -16.678,-3.675c-0.86,-1.341 -2.22,-2.025 -3.634,-2.379c1.348,-0.156 2.35,-0.678 2.35,-0.678c3.916,1.47 4.883,3.792 4.883,3.792h6.73c8.393,-2.219 12.78,2.075 13.903,6.55c-1.31,-1.869 -3.658,-3.919 -7.554,-3.61M202.827,204.564c2.978,-1.199 6.332,-0.321 8.991,0.888c-3.237,0.091 -6.674,1.032 -5.759,4.807c1.652,6.796 1.1,11.94 4.583,14.145c3.273,2.073 8.001,2.032 9.776,-2.1l0.003,0.013c0.705,2.146 0.733,6.981 -5.997,6.981c-6.713,0 -7.198,-9.421 -7.198,-9.421c-5.748,-5.643 -4.399,-15.313 -4.399,-15.313" data-paper-data="{&quot;origPos&quot;:null}" fill="#fab596" stroke="#fab596" stroke-width="0.5"/><path d="M242.648,191.703c-0.1,1.358 -0.724,2.295 -1.134,3.526c-3.355,-0.164 -9.051,-0.403 -13.645,-0.403c-4.953,0 -14.45,-4.918 -20.51,-0.95c2.547,-2.552 5.01,-3.689 5.82,-4.01c8.253,4.263 16.697,2.895 21.418,1.515c2.361,-0.693 3.783,-1.398 3.783,-1.398c3.313,0.103 6.202,-0.866 7.14,-1.218c0.088,0.044 0.177,0.086 0.264,0.117l-0.205,1.234c-1.215,-0.368 -2.8,0 -2.931,1.587M202.211,204.011c-0.037,0.27 -0.073,0.505 -0.108,0.757c-0.398,-0.327 -0.241,-1.767 0.108,-2.659c0.294,-0.81 0.623,-1.553 0.967,-2.265c-0.44613,1.35733 -0.76976,2.75191 -0.967,4.167M218.705,204.196c0.916,-3.86 3.666,-5.328 4.214,-1.104c0.55,4.228 6.6,10.29 15.578,9.371c7,-0.716 3.201,-3.107 3.876,-10.044c0.57261,0.71207 1.29149,1.29283 2.108,1.703l-0.118,2.278c2.447,1.837 4.514,0.368 4.514,0.368l0.131,-1.94c0.838,-0.074 1.76,-0.236 2.802,-0.515c0,0 3.255,2.968 8.446,4.79c2.887,3.103 8.048,3.176 11.595,2.456c0.046,0.13 0.324,0.925 0.206,1.72c-0.133,0.882 -0.733,1.763 -2.653,1.69c-3.782,-0.119 -15.761,-5.011 -21.009,-3.542c-5.25,1.47 -26.024,5.747 -26.024,5.747c0,0 -0.368,-2.44 -2.2,-2.205c-1.752,0.238 -4.395,1.344 -3.66,-5.632c0.614,-0.902 1.596,-2.622 2.194,-5.14M271.302,187.295c-7.934,-3.125 -14.756,1.864 -17.45,4.294c-0.743,-0.621 -1.793,-1.29 -3.259,-1.84c7.082,-0.867 6.717,-4.175 6.717,-4.175c1.185,-0.071 2.534,-0.22 3.956,-0.63c1.429,-0.075 6.356,-0.075 11.099,2.813c-0.34916,-0.16564 -0.70369,-0.31973 -1.063,-0.462" data-paper-data="{&quot;origPos&quot;:null}" fill="#b2c799" stroke="#b2c799" stroke-width="0.5"/><path d="M197.769,225.316l0.044,-0.073c0.161,0.087 0.25,0.146 0.25,0.146c0,0 4.88,-4.173 9.163,-5.512c0,0 0.485,9.421 7.198,9.421c6.73,0 6.7,-4.834 5.997,-6.98c-0.617,-1.836 0,-3.307 1.1,-3.792c1.098,-0.485 0.849,-1.353 0.849,-1.353c0,0 20.775,-4.276 26.025,-5.745c2.483,-0.697 6.474,0.036 10.39,1.012c-2.208,0.245 -4.284,0.851 -4.893,2.228c-1.466,3.306 8.43,2.938 11.73,6.428c2.864,3.034 14.144,-1.962 18.51,-0.686c0.098,0.109 0.202,0.21 0.3,0.32c0,0 -9.765,5.88 -7.081,10.655c0,0 -13.928,0 -18.078,-0.485c-4.165,-0.499 -6.964,-0.133 -10.029,1.103c-3.048,1.22 -33.72,6.73 -47.882,5.144c1.349,-8.144 -2.435,-11.126 -3.593,-11.831" fill="#68a7ac" stroke="none" stroke-width="1"/><path d="M197.769,225.316l0.044,-0.073c0.161,0.087 0.25,0.146 0.25,0.146c0,0 4.88,-4.173 9.163,-5.512c0,0 0.485,9.421 7.198,9.421c6.73,0 6.7,-4.834 5.997,-6.98c-0.617,-1.836 0,-3.307 1.1,-3.792c1.098,-0.485 0.849,-1.353 0.849,-1.353c0,0 7.645,-1.574 14.83,-3.14c-2.096,1.027 -4.026,2.239 -5.116,3.573c-3.298,4.041 -8.981,1.838 -8.981,6.064c0,4.226 -2.383,8.267 -8.43,8.635c-6.046,0.366 -9.53,4.224 -3.848,4.04c5.681,-0.184 38.853,-10.287 46.915,-8.083c7.384,2.019 20.735,-7.028 26.316,-7.866c0.024,0.006 0.053,0.008 0.076,0.014c0.098,0.109 0.202,0.21 0.3,0.32c0,0 -9.765,5.88 -7.081,10.655c0,0 -13.928,0 -18.078,-0.485c-4.165,-0.499 -6.964,-0.133 -10.029,1.103c-3.048,1.22 -33.72,6.73 -47.882,5.144c1.349,-8.144 -2.435,-11.126 -3.593,-11.831" fill="#609ba0" stroke="none" stroke-width="1"/></g></g></svg>