<svg xmlns="http://www.w3.org/2000/svg" width="54.571" height="118.182"><g fill-rule="evenodd" stroke-miterlimit="10" data-paper-data="{&quot;isPaintingLayer&quot;:true}" style="mix-blend-mode:normal"><path fill="#afafaf" d="M4.086 50.64c1.074-.467 2.367-.058 3.412.941.467-.716 1.025-1.117 1.54-1.02.97.18 1.44 2.035 1.05 4.139a7.374 7.374 0 0 1-.714 2.109 3.857 3.857 0 0 1-.18.746l4.959 5.756 10.388-3.83s-1.75 2.835-2.175 3.868c-.311.754-.91 3.139-.91 3.139s-7.585 3.165-9.752 2.396c-2.677-.95-5.81-9.662-5.81-9.662-1.15-.397-2.274-1.496-2.924-3.011-1.023-2.368-.52-4.858 1.116-5.57"/><path fill="#dbdbdb" d="M11.733 52.982c.18 2.368-2.456 2.494-5.687 2.74-3.237.243-5.862.51-6.037-1.859-.176-2.368 2.307-4.483 5.546-4.728 3.237-.24 6.003 1.48 6.178 3.847"/><path fill="#afafaf" d="m1.91.434 4.224 49.19-1.113.082z"/><path fill="#afafaf" d="M2.334.386a.417.417 0 0 1-.384.452.412.412 0 0 1-.44-.39.416.416 0 0 1 .38-.447.415.415 0 0 1 .444.385"/><path fill="#eeeeed" d="M42.24 112.693c1.616.984 2.803 3.084 1.44 4.755-1.033 1.181-2.571.298-3.742-.184-1.293-.606-2.766-1.01-3.94-1.8-.756-.52-1.643-1.147-2.156-1.935-.157-.242-.236-.532-.183-.767l8.583-.07zm-18.335.147c-1.598 1.01-2.753 3.126-1.36 4.776 1.052 1.162 2.575.255 3.734-.242 1.283-.628 2.752-1.052 3.91-1.862.75-.532 1.629-1.174 2.129-1.969.16-.244.228-.538.172-.772l-8.585.07z"/><path fill="#eeeeed" d="m43.988 89.2-1.56 23.547-8.888.073-.47-17.018-.258.004-.203 17.02-8.882.072-1.941-23.52z"/><path fill="#75584d" d="M48.43 64.366c3.308 4.174 4.663 16.807 4.663 16.807l-.007-.054c.43.607.732 1.404.829 2.293.242 2.11-.75 3.958-2.214 4.123-.954.11-1.876-.523-2.464-1.567-.54.459-1.075.637-1.462.438-.722-.375-.647-1.953.16-3.523a5.97 5.97 0 0 1 1.067-1.489c.03-.067.065-.133.093-.189 0 0-1.491-9.124-3.031-11.269-.77-1.078-1.262-1.68-1.438-2.16-.142-.382-.3-1.12-.367-1.397-.508-2.161-3.215-7.029-3.215-7.029s5.776 2.983 7.387 5.016" data-paper-data="{&quot;origPos&quot;:null}"/><path fill="#eeeeed" d="M48.714 80.793s-1.226-8.708-2.76-10.855c-.08-.114-.155-.22-.228-.32 1.554 8.829 1.464 19.588 1.464 19.588l-28.418.229s-.39-13.435 1.63-22.517c-.525.242-6.713 2.754-8.785 2.023-2.675-.958-6.677-9.227-6.677-9.227l4.244-2.143 4.999 5.739 9.412-3.788c1.85-1.233 7.502-1.48 7.502-1.48l1.566.034h.139l1.563-.06s5.629.142 7.51 1.336c.762.415 4.977 2.753 6.439 4.605 3.31 4.174 4.84 16.81 4.84 16.81l-4.44.026"/><path fill="#fddfbb" d="M52.747 39.45c1.05.67.043 6.891-2.1 6.91-.067 0-.128 0-.188-.004-3.433 6.3-10.07 10.594-17.73 10.654-7.662.058-14.372-4.131-17.902-10.388a4.713 4.713 0 0 1-.43.027c-2.151.017-3.148-6.357-1.98-7.019a20.735 20.735 0 0 1-.23-2.93c-.09-11.31 8.965-20.546 20.22-20.634 11.257-.092 20.456 9.001 20.544 20.308a21.184 21.184 0 0 1-.204 3.076"/><path fill="#eeac6c" d="M32.693 55.132c-6.815.052-6.871-6.743-6.871-6.743 6.825 2.117 13.632-.107 13.632-.107s.054 6.795-6.761 6.85m-.074-9.144a5.241 5.241 0 0 0 1.192-.155c1.074-.274 1.779-.793 1.804-.818l-.243-.328c-.022.021-2.664 1.958-5.365.045l-.235.328c1.007.718 2 .936 2.847.928"/><path fill="#fff" d="M24.857 41.122c.013 1.27-.741 2.303-1.675 2.312-.933.006-1.697-1.016-1.708-2.285-.007-1.266.738-2.303 1.67-2.309.934-.009 1.703 1.015 1.713 2.282m18.17-.144c.01 1.268-.74 2.301-1.674 2.307-.935.01-1.7-1.013-1.708-2.28-.011-1.268.735-2.305 1.672-2.31.932-.008 1.7 1.016 1.71 2.283"/><path fill="#343434" d="M24.215 41.761c.007.79-.452 1.43-1.034 1.435-.575.003-1.053-.627-1.06-1.416-.006-.786.459-1.425 1.037-1.43.58-.008 1.05.63 1.057 1.411m18.173-.144c.005.79-.46 1.428-1.038 1.432-.575.006-1.053-.624-1.06-1.413-.006-.786.462-1.427 1.039-1.431.577-.006 1.05.628 1.059 1.412"/><path fill="#ad6921" d="M20.434 38.345c1.652-1.048 4.096-1.717 4.096-1.717.287-.548.018-1.466-.366-1.517-1.221-.163-3.73 3.234-3.73 3.234m23.594-.189c-1.672-1.02-4.127-1.652-4.127-1.652-.293-.544-.041-1.464.347-1.52 1.217-.184 3.78 3.172 3.78 3.172"/><path fill="#ad6921" d="M53.74 33.699c.05 2.404-.744 7.615-2.35 10.729 0 0-4.096-11.366-7.416-13.14-4.054-2.179-14.672 1.087-18.298-1.744-.602-.469-.54-1.542-.54-1.542s-.686 1.37-1.016 1.76c-1.732 2.012-6.24 4.937-8.375 6.508-1.723 1.265-1.805 1.25-1.365 8.452 0 0-3.23-6.53-3.087-10.907.037-1.265.625-4.065 1.594-6.915 3.532-7.261 10.924-12.286 19.512-12.356 9.865-.078 18.258 6.411 21.069 15.392.149 1.25.24 2.506.273 3.764"/><path fill="#fddfbb" d="M31.162 59.372c-.954.007-1.742-2.04-1.75-2.98l6.78-.054c.006.939-.746 2.998-1.698 3.005l-3.332.028"/><path fill="#eeac6c" d="M30.163 58.745c-.39-.577-.661-1.395-.732-1.976 1.076.167 2.179.25 3.306.24a21.045 21.045 0 0 0 3.446-.317l-.011.008-6.01 2.045"/><path fill="#dbdbdb" d="M45.589 64.566c-4.406 5.57-19.485 5.183-24.538.195-1.894-1.879-2.01-10.67-2.01-10.67l28.336-.227s-.13 8.608-1.788 10.702"/><path fill="#afafaf" d="M54.57 35.45c.144 18.365-9.434 24.073-22.241 24.176-12.806.1-21.551-7.067-21.684-23.826-.106-13.472 8.5-23.66 21.308-23.762 12.804-.103 22.492 7.572 22.617 23.412"/><path fill="#d0d0d0" d="M49.415 37.223c.142 17.85-7.338 23.383-17.35 23.462-10.006.077-16.857-6.9-16.986-23.186-.12-15.192 6.61-22.97 16.62-23.052 10.012-.08 17.596 7.392 17.716 22.776"/><path fill="#afafaf" d="M47.029 17.075h-.06l.295 37.555h.06zm.274 5.276h-.057l.255 32.276h.058zm.236-.003h-.062l.254 32.277h.063zm.23-.001h-.052l.222 28.112h.052zm.237-.002h-.058l.222 28.114.058-.002zm.235-.005h-.063l.222 28.116h.063zm.23 0h-.058l.222 28.116.058-.002zm.237-.001h-.06l.223 28.115h.06zm.233-.003h-.056l.222 28.116h.056zm.232-.002h-.058l.222 28.116h.058zm.233-.003h-.058l.222 28.118h.058zm.235 0h-.056l.222 28.116h.056zm.237-.002-.063.002.222 28.111h.064zm.23-.003-.057.004.22 28.111h.06zm.237-.002-.06.002.222 28.114h.06zm.229.001h-.056l.223 28.112h.057zm.234-.004h-.06l.224 28.114h.059zm-9.417-8.435h-.053l.35 44.312h.054zm.237-.002h-.061l.35 44.192h.06zm.258 3.232h-.056l.325 40.905.056-.001zm.235-.003h-.063L42.38 57.9l.066-.002zm.232-.001h-.058l.32 40.61.059-.002zm.235-.005h-.06l.319 40.613h.06zm.229 0h-.054l.32 40.318h.054zm.238-.002-.06.002.32 40.316h.056zm.235-.001-.06.002.319 40.314h.06zm.233-.003-.058.003.318 39.96h.058zm.232.001h-.058l.315 39.96h.059zm.232-.002h-.056l.313 39.313h.054zm.238-.001h-.058l.31 39.313h.058zm.23-.002H44.4l.31 39.313h.054zm.237-.003h-.058l.31 39.315H45zm.233-.005h-.06l.312 39.317h.06zm.235 0h-.058l.312 39.317.056-.004zm.232-.002h-.058l.295 37.556.06-.003zm.233-.002h-.058l.297 37.555h.058zm.238-.002h-.06l.296 37.554h.058zm.229-.001h-.056l.297 37.554h.056zm.235-.002-.06.002.295 37.553h.062zm.235-.003-.057.002.294 37.553h.06zm.234-.001-.058.001.297 37.553h.058zM17.13 19.832h-.056l.256 32.398h.058zm.238-.001-.06.002.257 32.393h.06zm.23-.003-.057.004.256 32.392h.058zm.236-.003-.062.002.28 35.035h.059zm.235 0h-.06l.28 35.034h.058zm.232 0h-.06l.28 35.032h.057zm.233-.002h-.06l.28 35.032h.057zm.237-.003h-.064l.28 35.034h.06zm.23-.003h-.057l.28 35.034h.057zm.234-.001h-.062l.29 36.33.06-.002zm.235-.001h-.06l.29 36.328h.06zm.208-3.349h-.056l.313 39.677.056-.004zm.23-.004h-.055l.315 39.677h.056zm.236-.002h-.058l.314 39.677h.058zm.235-.003-.056.003.319 40.5h.059zm.236 0h-.06l.32 40.5h.06zm.229-.003-.057.002.32 40.5h.058zm.235 0h-.057l.32 40.5h.059zm.235-.001h-.058l.325 40.97h.058zm.232-.003h-.052l.324 40.97h.053zm.235-.001h-.058l.327 41.201h.058zm.233-.001h-.058l.329 41.314h.058zm.232-.004h-.058l.328 41.436h.058zm.235-.002h-.056l.328 41.672.06-.002zm9.51-1.994h.053l.366 46.228h-.052zm.23-.002c.02.004.04.004.06.004l.367 46.226h-.06zm.659 46.222-.056.002-.365-46.22c.016.007.036.007.056.01zm-.188-46.204h.058l.366 46.193-.058.002zm.597 46.185-.366-46.175c.02.005.038.005.06.005l.366 46.163c-.02 0-.037.008-.06.008zm-.13-46.159c.018-.002.037.002.057.002l.366 46.138h-.056zm.598 46.125-.366-46.107c.019 0 .04-.003.06.002l.367 46.104c-.021 0-.04 0-.06.002zm-.126-46.086c.019 0 .035 0 .05.003l.364 46.062h-.05zm.23.023c.02 0 .04.003.059.008l.362 46.01c-.018.005-.04.005-.056.005zm.235.022c.018.008.038.008.058.01l.362 45.962c-.02 0-.038.006-.058.006zm.599 45.952-.364-45.92c.017.002.033.002.058.008l.362 45.903a.232.232 0 0 1-.056.01zm-.133-45.887c.018.006.038.01.058.01l.362 45.846-.058.002zm.236.037c.016 0 .039.008.056.01l.362 45.772c-.02 0-.036.008-.058.009zm.595 45.757-.362-45.718c.015.008.04.008.06.013l.362 45.698c-.02 0-.04.003-.06.008zm-.127-45.673a.232.232 0 0 1 .056.01l.36 45.617c-.016.007-.04.007-.054.007zm.232.044c.02.006.04.01.06.012l.36 45.527c-.02.007-.038.007-.06.013zm.237.052c.018 0 .037.007.057.01l.359 45.437c-.02.008-.036.01-.056.013zm.594 45.414-.356-45.36c.01.002.03.01.058.01l.355 45.34c-.022.002-.043.008-.058.01zm-.13-45.304c.02.001.04.007.058.015l.359 45.229c-.02.003-.038.005-.058.013zm.596 45.205-.36-45.145a.65.65 0 0 1 .06.014l.356 45.114c-.02.006-.037.009-.056.016zm-.123-45.081c.015.007.038.011.058.017l.356 44.992c-.018.007-.041.007-.058.015zm.59 44.968-.355-44.902c.014.007.035.018.054.02l.353 44.867c-.015.004-.038.005-.053.015zm-.124-44.825c.02.003.04.009.058.017l.355 44.728a.277.277 0 0 1-.06.013zm.237.072c.017.012.038.012.06.02l.353 44.585c-.02.007-.041.01-.06.017zm.236.081a.765.765 0 0 0 .054.025l.35 44.43a.2.2 0 0 1-.054.017zm.229.087c.02.007.04.014.06.023l.35 44.271a.229.229 0 0 1-.06.018zm.589 44.235-.35-44.149c.017.009.037.016.054.026l.347 44.106a.335.335 0 0 0-.052.017zm-.123-44.055c.02.009.048.017.06.029l.35 43.923c-.015.008-.04.015-.06.023zm.586 43.889-.35-43.795c.02.014.042.02.062.03l.343 43.742c-.02.012-.037.017-.056.023zm-.111-43.685c.017.008.04.015.06.025l.343 43.551a.165.165 0 0 0-.058.02zm.229.105.06.026.344 43.348c-.02.008-.034.019-.056.024zm.237.111c.02.009.04.017.06.032l.34 43.13a.224.224 0 0 1-.058.025zm.235.118a.248.248 0 0 0 .06.028l.34 42.913c-.02.008-.038.018-.058.028zm.236.125a.38.38 0 0 1 .056.03l.336 42.68a.227.227 0 0 1-.052.026zm.23.125c.022.015.045.023.06.033l.337 42.433a.223.223 0 0 1-.057.034zm.575 42.378-.334-42.241c.018.007.039.02.06.03l.33 42.18a.284.284 0 0 1-.056.032zm-.103-42.103c.022.009.043.024.062.033l.332 41.918-.06.028zm.565 41.85-.33-41.71c.025.015.039.03.059.042l.33 41.634a.253.253 0 0 1-.058.034zm-.096-41.553c.022.01.043.024.06.041l.33 41.342c-.02.009-.038.028-.06.032zm.237.155a.76.76 0 0 0 .058.043l.324 41.042c-.016.009-.036.025-.056.035zm-16.598-1.055c.012-.008.032-.017.052-.028l.342 43.176c-.02-.014-.04-.022-.053-.032zm.227-.112a.445.445 0 0 1 .06-.03l.342 43.393a.33.33 0 0 0-.058-.028zm.235-.113c.02-.005.04-.019.06-.025l.344 43.607c-.018-.015-.038-.02-.058-.033zm.583 43.65-.35-43.76.059-.026.345 43.808c-.02-.006-.04-.017-.054-.023zm-.12-43.856a.214.214 0 0 1 .06-.023l.347 43.993c-.018-.007-.037-.014-.057-.024zm.238-.099.056-.024.35 44.178a.314.314 0 0 0-.057-.022zm.233-.097c.015-.005.037-.01.059-.02l.35 44.356-.06-.022zm.233-.084c.015-.009.036-.009.054-.02l.353 44.516a.204.204 0 0 0-.056-.018zm.582 44.554-.35-44.639c.018-.007.035-.015.058-.016l.353 44.671c-.021-.006-.038-.009-.06-.016zm-.115-44.712a.868.868 0 0 0 .058-.023l.352 44.822c-.018-.004-.04-.013-.057-.02zm.588 44.846-.355-44.921c.013-.009.036-.013.058-.019l.355 44.957c-.02-.007-.045-.013-.06-.017zm.23.062-.353-45.055a.213.213 0 0 0 .056-.017l.356 45.088c-.018-.009-.038-.009-.058-.017zm.238.057-.358-45.181c.017 0 .037-.008.054-.01l.358 45.208c-.014-.006-.035-.015-.053-.016zm-.127-45.237a.332.332 0 0 1 .062-.016l.357 45.322a.212.212 0 0 0-.062-.011zm.234-.061a.518.518 0 0 0 .058-.013l.358 45.428c-.018-.002-.038-.01-.058-.012zm.234-.054c.018-.008.04-.008.06-.013l.36 45.528c-.02 0-.04-.007-.06-.007zm.23-.049c.023-.008.045-.008.057-.015l.362 45.625a.224.224 0 0 0-.056-.01zm.234-.052c.019-.002.04-.004.06-.01l.362 45.71c-.02 0-.04-.008-.06-.008zm.235-.039c.017-.006.038-.006.058-.011l.362 45.785c-.02-.001-.04-.007-.056-.007zm.233-.04c.02-.009.038-.009.058-.009l.362 45.855c-.018 0-.035-.008-.058-.008zm.234-.036c.018-.006.035-.006.058-.01l.36 45.919a.317.317 0 0 1-.058-.006zm.235-.036c.018-.002.038-.002.058-.005l.362 45.98c-.018-.005-.038-.005-.058-.005zm.233-.03c.019 0 .036-.006.06-.006l.364 46.035c-.023.002-.04-.008-.06-.008zm.232-.025c.024-.004.039-.008.056-.008l.365 46.082c-.018-.004-.031-.004-.057-.006zm.233-.022c.017 0 .04-.008.06-.013l.366 46.123h-.06zm.603 46.125-.366-46.145c.017 0 .035-.006.054-.008l.368 46.152h-.056zm.233.008-.366-46.17c.017-.002.036-.008.054-.008l.366 46.185a.135.135 0 0 1-.054-.008zm-.134-46.188h.056l.367 46.2h-.057zm.233-.01h.058l.366 46.215h-.058zm.235-.011h.06l.366 46.23h-.06zm.599 46.23-.366-46.23c.018-.002.038-.002.058-.002l.364 46.23h-.057zm-.133-46.235h.06l.367 46.235h-.06zm-8.768 43.711L22.66 17.26c.02-.014.043-.024.06-.04l.325 40.975c-.017-.017-.04-.025-.058-.035zm-.091-41.059a.46.46 0 0 1 .054-.042l.326 41.292c-.014-.008-.037-.019-.054-.034zm.23-.16c.018-.013.04-.029.06-.037l.33 41.597c-.021-.011-.042-.019-.06-.036zm.233-.159a.152.152 0 0 0 .057-.034l.333 41.895c-.02-.008-.04-.023-.06-.034zm.234-.14c.023-.016.036-.026.06-.036l.333 42.176c-.021-.017-.038-.024-.06-.04zm.568 42.232-.338-42.37a.364.364 0 0 0 .06-.04l.336 42.442a.608.608 0 0 1-.058-.031zm-.107-42.508c.025-.011.045-.018.06-.033l.338 42.697-.06-.032zm.236-.122a.25.25 0 0 1 .06-.033l.34 42.937c-.02-.012-.04-.017-.06-.032zm-10.177 6.316h-.057l.214 27.057h.058zm.238 0-.06.001.214 27.053h.058zm.235-.001-.064.001.215 27.052h.063zm.23-.004-.06.004.218 27.05h.056zm.235 0h-.06l.214 27.053h.06zm.236 0h-.06l.235 29.69h.06zm.228-.001h-.054l.233 29.688h.056zm.237-.002h-.06l.235 29.691.06-.002zm.213-2.709h-.058l.256 32.397h.057zm.233-.001h-.062l.258 32.398.062-.002zm.23 0h-.056l.257 32.396h.056zm.237-.003h-.058l.257 32.396h.058zm.235-.002h-.06l.257 32.396h.06z"/><path fill="#afafaf" d="M31.953 12.038c12.804-.103 22.492 7.571 22.617 23.411.11 13.703-5.192 20.359-13.21 22.9 4.993-3.066 8.147-9.471 8.054-21.126-.12-15.384-7.702-22.856-17.714-22.776-10.01.081-16.741 7.862-16.62 23.052.082 10.511 2.968 17.152 7.695 20.511-7.413-2.952-12.033-10.068-12.13-22.21-.106-13.47 8.5-23.66 21.308-23.762"/></g></svg>