<svg version="1.1" xmlns="http://www.w3.org/2000/svg" xmlns:xlink="http://www.w3.org/1999/xlink" width="62.21348" height="118.66927" viewBox="0,0,62.21348,118.66927"><g transform="translate(-208.00042,-120.00011)"><g data-paper-data="{&quot;isPaintingLayer&quot;:true}" fill-rule="evenodd" stroke="none" stroke-width="1" stroke-linecap="butt" stroke-linejoin="miter" stroke-miterlimit="10" stroke-dasharray="" stroke-dashoffset="0" style="mix-blend-mode: normal"><path d="M224.124,232.637h9.806c0.066,0.265 -0.022,0.6 -0.2,0.875c-0.581,0.887 -1.593,1.6 -2.451,2.2c-1.33,0.899 -3.01,1.37 -4.48,2.066c-1.332,0.556 -3.081,1.56 -4.274,0.24c-1.576,-1.875 -0.237,-4.254 1.6,-5.381z" fill="#000001"/><path d="M245.07,232.637c1.84,1.127 3.176,3.506 1.602,5.381c-1.19,1.32 -2.942,0.316 -4.271,-0.24c-1.472,-0.696 -3.15,-1.167 -4.485,-2.066c-0.86,-0.6 -1.87,-1.313 -2.449,-2.2c-0.18,-0.275 -0.263,-0.61 -0.199,-0.875z" fill="#000001"/><path d="M247.261,206.102l-2.19,26.534h-9.801l-0.543,-19.181h-0.294l-0.503,19.181h-9.806l-2.228,-26.534z" fill="#bc1718"/><path d="M245.29,165.904c-0.332,-1.117 0.057,-3.092 0.483,-3.788c0.176,-0.282 0.711,-0.739 1.145,-1.085c-0.066,-0.386 -0.107,-0.739 -0.047,-1.07c0.097,-0.51 1.069,-1.45 1.633,-1.45c0.071,0 0.13,0.014 0.182,0.04c0.226,0.109 0.399,0.344 0.503,0.697c0.322,1.099 -0.047,3.03 -0.467,3.755c0.211,0.115 0.367,0.344 0.467,0.68c0.33,1.115 -0.06,3.092 -0.488,3.786c-0.05356,0.08385 -0.11483,0.16253 -0.183,0.235c0.043,0.066 0.083,0.137 0.126,0.217c0.5,1.051 0.426,3.06 0.111,3.816c-0.03311,0.08102 -0.07503,0.15815 -0.125,0.23c0.554,0.831 0.955,2.14 0.986,2.965c0.924,0.673 1.87,2.18 2.036,2.972c0.00872,0.04954 0.0134,0.0997 0.014,0.15c1.06,0.37 2.323,1.311 2.73,1.928c0.041,0.066 0.086,0.155 0.129,0.256c1.002,0 2.287,0.294 2.86,0.652c0.283,0.179 0.728,0.715 1.072,1.155c0.24,-0.037 0.472,-0.065 0.688,-0.065c0.142,0 0.27,0.011 0.39,0.035c0.401,0.08 1.053,0.69 1.319,1.226c0.12,0.251 0.147,0.456 0.073,0.6c-0.249,0.491 -1.038,0.593 -1.654,0.593c-0.932,0 -2.105,-0.252 -2.731,-0.577c-0.02067,0.10433 -0.07472,0.1991 -0.154,0.27c-0.16727,0.11859 -0.36913,0.17837 -0.574,0.17c-1.1,0 -2.996,-1.301 -3.515,-2.087c-0.01,-0.012 -0.017,-0.028 -0.024,-0.042c-0.09,0.167 -0.197,0.277 -0.317,0.315c-0.06807,0.02242 -0.13934,0.03356 -0.211,0.033c-1,0 -2.39,-1.887 -2.788,-3.01c-0.116,0.111 -0.237,0.172 -0.348,0.172h-0.01c-0.254,0 -0.507,-0.146 -0.763,-0.416c-0.74,-0.802 -1.31,-2.614 -1.264,-3.537l-0.023,0.003c-0.038,0.00036 -0.07582,-0.00537 -0.112,-0.017c-0.24,-0.07 -0.443,-0.277 -0.604,-0.614c-0.5,-1.047 -0.427,-3.059 -0.114,-3.814c0.026,-0.066 0.071,-0.141 0.121,-0.228c-0.01851,-0.00246 -0.03626,-0.00895 -0.052,-0.019c-0.23,-0.108 -0.396,-0.344 -0.5,-0.696c-0.327,-1.102 0.045,-3.031 0.467,-3.756c-0.211,-0.117 -0.368,-0.343 -0.467,-0.68M223.676,165.904c0.332,-1.117 -0.057,-3.092 -0.486,-3.788c-0.173,-0.282 -0.708,-0.739 -1.142,-1.085c0.066,-0.386 0.106,-0.739 0.047,-1.07c-0.095,-0.51 -1.069,-1.45 -1.63,-1.45c-0.06491,-0.00131 -0.12924,0.01238 -0.188,0.04c-0.225,0.109 -0.396,0.344 -0.498,0.697c-0.324,1.099 0.045,3.03 0.467,3.755c-0.21,0.115 -0.37,0.344 -0.467,0.68c-0.332,1.115 0.057,3.092 0.486,3.786c0.04,0.07 0.105,0.15 0.185,0.235c-0.047,0.066 -0.083,0.137 -0.125,0.217c-0.5,1.051 -0.427,3.06 -0.117,3.816c0.029,0.068 0.071,0.146 0.128,0.23c-0.552,0.831 -0.955,2.14 -0.983,2.965c-0.925,0.673 -1.873,2.18 -2.036,2.972c-0.012,0.043 -0.015,0.097 -0.02,0.15c-1.057,0.37 -2.32,1.311 -2.728,1.928c-0.04,0.066 -0.083,0.155 -0.128,0.256c-1.005,0 -2.285,0.294 -2.86,0.652c-0.283,0.179 -0.728,0.715 -1.072,1.155c-0.228,-0.0393 -0.45867,-0.06103 -0.69,-0.065c-0.14,0 -0.268,0.011 -0.386,0.035c-0.403,0.08 -1.058,0.69 -1.318,1.226c-0.121,0.251 -0.147,0.456 -0.074,0.6c0.25,0.491 1.036,0.593 1.655,0.593c0.931,0 2.105,-0.252 2.73,-0.577c0.031,0.12 0.079,0.212 0.152,0.27c0.145,0.111 0.337,0.17 0.571,0.17c1.105,0 2.999,-1.301 3.518,-2.087l0.026,-0.042c0.09,0.167 0.197,0.277 0.318,0.315c0.068,0.024 0.14,0.033 0.21,0.033c0.996,0 2.385,-1.887 2.784,-3.01c0.118,0.111 0.237,0.172 0.35,0.172h0.012c0.25,0 0.505,-0.146 0.759,-0.416c0.742,-0.802 1.315,-2.614 1.268,-3.537l0.021,0.003c0.03865,0.00032 0.07712,-0.00541 0.114,-0.017c0.24,-0.07 0.44,-0.277 0.604,-0.614c0.5,-1.047 0.427,-3.059 0.112,-3.814c-0.03443,-0.07899 -0.07489,-0.15521 -0.121,-0.228c0.01869,-0.00171 0.03661,-0.00826 0.052,-0.019c0.23,-0.108 0.398,-0.344 0.5,-0.696c0.327,-1.102 -0.047,-3.031 -0.464,-3.756c0.21,-0.117 0.367,-0.343 0.464,-0.68" data-paper-data="{&quot;origPos&quot;:null}" fill="#2c2c2d"/><path d="M268.3,162.407c1.88,0.788 2.477,3.6 1.332,6.28c-0.732,1.717 -2.002,2.962 -3.318,3.426h0.003c0,0 -3.5,9.86 -6.55,10.96c-2.468,0.887 -11.159,-2.619 -11.159,-2.619c0,0 -0.705,-2.683 -1.07,-3.533c-0.5,-1.161 -2.522,-4.35 -2.522,-4.35l11.903,4.233l5.608,-6.541c-0.092,-0.263 -0.161,-0.548 -0.208,-0.842c-0.36,-0.652 -0.657,-1.471 -0.832,-2.372c-0.467,-2.379 0.05,-4.478 1.157,-4.689c0.592,-0.113 1.232,0.334 1.768,1.141c1.195,-1.137 2.662,-1.612 3.887,-1.094" data-paper-data="{&quot;origPos&quot;:null}" fill="#9e713e"/><path d="M215.769,178.237c1.82,-2.311 8.393,-5.73 8.393,-5.73c0,0 -3.053,5.52 -3.61,7.967c-0.07,0.315 -0.199,0.941 -0.36,1.377c-0.197,0.544 -0.806,1.434 -1.673,2.654c-1.736,2.438 -3.362,12.748 -3.362,12.748c0.038,0.068 0.074,0.141 0.112,0.215c0.44,0.425 0.87,1 1.23,1.67c0.941,1.764 1.038,3.546 0.218,3.976c-0.438,0.231 -1.05,0.031 -1.671,-0.477c-0.666,1.18 -1.709,1.905 -2.804,1.79c-1.674,-0.174 -2.826,-2.254 -2.57,-4.64c0.107,-1.007 0.444,-1.901 0.925,-2.593l-0.005,0.064c0,0 1.434,-14.273 5.177,-19.022" data-paper-data="{&quot;origPos&quot;:null}" fill="#9e713e"/><path d="M218.394,202.058c-0.01,-5.612 1.434,-18.93 1.657,-19.845c-0.93,1.136 1.514,-8.346 1.538,-8.358c1.081,-0.976 3.428,-1.859 4.696,-2.13c0,0 19.757,0.857 21.16,1.671v0.003c0,0 2.005,7.473 1.254,7.139c0.782,1.178 2.04,18.033 2.105,21.466c0.654,1.992 3.909,24.654 3.909,31.32c-5.303,4.684 -36.139,4.788 -40.754,-0.005c0,-6.379 3.693,-29.057 4.435,-31.261" fill="#663977"/><path d="M234.211,234.105c-6.80951,0.00168 -13.59227,-0.852 -20.189,-2.541c0.06039,-0.94002 0.13806,-1.87884 0.233,-2.816c13.17969,3.45725 27.03148,3.43106 40.198,-0.076c0.08092,0.9416 0.1476,1.88438 0.2,2.828c-6.67647,1.73081 -13.54583,2.60615 -20.443,2.605M234.21,225.068c-6.48152,0.00038 -12.95475,-0.46347 -19.37,-1.388c0.114,-0.9 0.235,-1.824 0.363,-2.76c12.74415,1.83757 25.68736,1.81837 38.426,-0.057c0.112,0.937 0.218,1.861 0.322,2.767c-6.554,0.958 -13.146,1.438 -19.741,1.438M234.211,215.992c-6.06843,-0.00002 -12.13437,-0.24522 -18.183,-0.735c0.144,-0.934 0.289,-1.861 0.433,-2.755c12.00492,0.9573 24.06762,0.94158 36.07,-0.047c0.126,0.899 0.252,1.822 0.379,2.762c-6.207,0.515 -12.453,0.775 -18.7,0.775M234.211,207.485c-5.627,0 -11.257,-0.108 -16.856,-0.315c0.1606,-0.92404 0.33061,-1.84642 0.51,-2.767c11.112,0.404 22.319,0.395 33.424,-0.026c0.135,0.781 0.29,1.713 0.455,2.765c-5.84187,0.22868 -11.68766,0.34303 -17.534,0.343" fill="#3e1f51"/><path d="M221.794,199.176h24.967c0,0 3.376,15.605 3.369,27.5c-5.86,2.78 -26.221,2.208 -31.939,0c0.308,-12.264 3.603,-27.5 3.603,-27.5" fill="#e1e1e1"/><path d="M218.227,225.61c10.54552,1.90128 21.34457,1.91821 31.896,0.05c0.002,0.112 0.005,0.223 0.005,0.336c-5.21,0.915 -10.525,1.379 -15.813,1.379c-5.39881,-0.00129 -10.78699,-0.47847 -16.102,-1.426l0.014,-0.339M222.042,224.551l0.46,0.517c0.08,0.095 0.08,0.224 0,0.297c-0.04292,0.03384 -0.09798,0.04833 -0.152,0.04c-0.05695,-0.00834 -0.10907,-0.0367 -0.147,-0.08c-0.152,-0.172 -0.306,-0.346 -0.457,-0.52c-0.152,0.132 -0.306,0.261 -0.458,0.393c-0.04281,0.03407 -0.09797,0.04858 -0.152,0.04c-0.052,-0.01 -0.107,-0.038 -0.147,-0.082c-0.083,-0.097 -0.083,-0.229 0,-0.3c0.152,-0.129 0.306,-0.258 0.46,-0.39c-0.154,-0.172 -0.308,-0.35 -0.46,-0.522c-0.083,-0.094 -0.083,-0.226 0,-0.299c0.083,-0.066 0.214,-0.047 0.299,0.047l0.458,0.52l0.457,-0.393c0.085,-0.07 0.216,-0.054 0.299,0.04c0.08,0.092 0.08,0.224 0,0.294c-0.154,0.137 -0.308,0.267 -0.46,0.397M219.986,224.245c0.152,0.177 0.306,0.35 0.455,0.53c0.083,0.094 0.083,0.225 0,0.294c-0.03933,0.03463 -0.09285,0.04838 -0.144,0.037c-0.057,-0.007 -0.109,-0.034 -0.152,-0.084c-0.152,-0.174 -0.305,-0.351 -0.455,-0.529l-0.458,0.38c-0.04302,0.03272 -0.09784,0.04579 -0.151,0.036c-0.05697,-0.01128 -0.10824,-0.04204 -0.145,-0.087c-0.085,-0.094 -0.085,-0.229 0,-0.294c0.15,-0.129 0.304,-0.255 0.455,-0.379c-0.151,-0.177 -0.305,-0.356 -0.455,-0.534c-0.085,-0.099 -0.085,-0.229 0,-0.299c0.083,-0.066 0.214,-0.043 0.296,0.052c0.152,0.178 0.306,0.354 0.458,0.534l0.455,-0.386c0.083,-0.068 0.213,-0.044 0.296,0.046c0.083,0.097 0.083,0.23 0,0.3c-0.149,0.127 -0.303,0.253 -0.455,0.383" fill="#bc1718"/><path d="M226.174,225.017c0.152,0.165 0.306,0.335 0.46,0.497c0.083,0.089 0.083,0.221 0,0.296c-0.04036,0.03678 -0.09484,0.05396 -0.149,0.047c-0.05794,-0.00421 -0.11186,-0.03118 -0.15,-0.075c-0.154,-0.165 -0.308,-0.329 -0.46,-0.496c-0.152,0.138 -0.306,0.275 -0.46,0.411c-0.04098,0.0371 -0.0962,0.05429 -0.151,0.047c-0.053,-0.005 -0.107,-0.03 -0.145,-0.075c-0.083,-0.092 -0.083,-0.221 0,-0.296c0.149,-0.134 0.303,-0.276 0.458,-0.41c-0.155,-0.169 -0.308,-0.336 -0.458,-0.503c-0.083,-0.09 -0.083,-0.224 0,-0.294c0.081,-0.076 0.216,-0.064 0.296,0.026c0.154,0.171 0.308,0.336 0.46,0.501l0.46,-0.414c0.09014,-0.07354 0.22233,-0.06249 0.299,0.025c0.083,0.087 0.083,0.222 0,0.297l-0.46,0.416M224.107,224.808c0.151,0.17 0.308,0.339 0.46,0.508c0.082,0.09 0.082,0.222 0,0.297c-0.04241,0.03265 -0.09578,0.04769 -0.149,0.042c-0.05803,-0.00621 -0.11159,-0.03406 -0.15,-0.078c-0.152,-0.166 -0.306,-0.336 -0.458,-0.51c-0.151,0.139 -0.308,0.271 -0.461,0.405c-0.04069,0.03675 -0.09591,0.05294 -0.15,0.044c-0.05641,-0.00828 -0.10792,-0.03669 -0.145,-0.08c-0.083,-0.094 -0.083,-0.226 0,-0.296c0.152,-0.134 0.304,-0.27 0.455,-0.4l-0.455,-0.515c-0.083,-0.09 -0.083,-0.224 0,-0.294c0.081,-0.071 0.214,-0.057 0.294,0.037c0.154,0.17 0.311,0.339 0.462,0.508c0.152,-0.132 0.307,-0.268 0.457,-0.402c0.086,-0.075 0.217,-0.059 0.3,0.03c0.082,0.09 0.082,0.227 0,0.3c-0.152,0.134 -0.309,0.268 -0.46,0.404M230.306,225.291l0.463,0.475c0.03988,0.03912 0.06236,0.09263 0.06236,0.1485c0,0.05587 -0.02247,0.10938 -0.06236,0.1485c-0.04015,0.03853 -0.09442,0.05879 -0.15,0.056c-0.05798,-0.00298 -0.11251,-0.02845 -0.152,-0.071c-0.154,-0.157 -0.306,-0.317 -0.457,-0.475c-0.154,0.148 -0.311,0.292 -0.463,0.435c-0.04149,0.0368 -0.09559,0.05615 -0.151,0.054c-0.05672,-0.00481 -0.10988,-0.02962 -0.15,-0.07c-0.083,-0.085 -0.083,-0.221 0,-0.296c0.152,-0.144 0.308,-0.288 0.463,-0.433c-0.155,-0.16 -0.311,-0.32 -0.462,-0.48c-0.084,-0.087 -0.084,-0.219 0,-0.297c0.08802,-0.07675 0.22121,-0.0692 0.3,0.017c0.153,0.157 0.309,0.32 0.463,0.477c0.151,-0.141 0.303,-0.289 0.458,-0.435c0.04134,-0.03827 0.0962,-0.05851 0.15249,-0.05626c0.05629,0.00225 0.10936,0.02681 0.14751,0.06826c0.03957,0.03908 0.06185,0.09238 0.06185,0.148c0,0.05562 -0.02227,0.10892 -0.06185,0.148l-0.462,0.437M228.234,225.178l0.46,0.485c0.085,0.086 0.085,0.221 0,0.296c-0.03951,0.03724 -0.09287,0.05611 -0.147,0.052c-0.057,-0.002 -0.112,-0.023 -0.152,-0.071c-0.152,-0.162 -0.308,-0.324 -0.46,-0.487c-0.151,0.143 -0.305,0.28 -0.46,0.423c-0.04172,0.03601 -0.09603,0.054 -0.151,0.05c-0.052,-0.004 -0.107,-0.028 -0.147,-0.073c-0.083,-0.086 -0.083,-0.221 0,-0.296c0.151,-0.139 0.306,-0.28 0.46,-0.423c-0.154,-0.16 -0.309,-0.325 -0.46,-0.49c-0.083,-0.089 -0.083,-0.219 0,-0.296c0.083,-0.076 0.215,-0.064 0.298,0.023c0.155,0.165 0.309,0.327 0.46,0.489c0.15458,-0.14032 0.30792,-0.28199 0.46,-0.425c0.085,-0.078 0.216,-0.069 0.299,0.018c0.085,0.087 0.085,0.219 0,0.297c-0.152,0.143 -0.308,0.285 -0.46,0.428M234.456,225.373c0.154,0.151 0.311,0.304 0.462,0.455c0.03971,0.0386 0.06212,0.09162 0.06212,0.147c0,0.05538 -0.0224,0.1084 -0.06212,0.147c-0.0378,0.04134 -0.09099,0.06522 -0.147,0.066c-0.0574,-0.00056 -0.1123,-0.02352 -0.153,-0.064c-0.15,-0.151 -0.306,-0.304 -0.46,-0.454l-0.462,0.454c-0.03878,0.04147 -0.09323,0.0647 -0.15,0.064c-0.052,0 -0.107,-0.024 -0.152,-0.066c-0.07797,-0.08249 -0.07797,-0.21151 0,-0.294c0.15547,-0.15016 0.30948,-0.30184 0.462,-0.455c-0.151,-0.153 -0.305,-0.308 -0.461,-0.456c-0.07813,-0.08435 -0.07813,-0.21465 0,-0.299c0.08423,-0.08022 0.21685,-0.07933 0.3,0.002c0.154,0.153 0.311,0.306 0.463,0.46c0.154,-0.154 0.31,-0.307 0.46,-0.46c0.08336,-0.08082 0.21557,-0.0817 0.3,-0.002c0.04,0.03946 0.06252,0.09331 0.06252,0.1495c0,0.05619 -0.02252,0.11004 -0.06252,0.1495c-0.152,0.148 -0.308,0.303 -0.462,0.456M232.382,225.358c0.154,0.155 0.311,0.31 0.462,0.46c0.04031,0.0395 0.06303,0.09356 0.06303,0.15c0,0.05644 -0.02272,0.1105 -0.06303,0.15c-0.08474,0.08111 -0.219,0.07888 -0.301,-0.005c-0.149,-0.156 -0.308,-0.313 -0.46,-0.466c-0.151,0.15 -0.308,0.294 -0.461,0.445c-0.04028,0.03833 -0.09446,0.05855 -0.15,0.056c-0.052,-0.002 -0.107,-0.026 -0.152,-0.066c-0.07797,-0.08249 -0.07797,-0.21151 0,-0.294c0.157,-0.151 0.311,-0.296 0.462,-0.448l-0.461,-0.47c-0.07797,-0.08249 -0.07797,-0.21151 0,-0.294c0.08616,-0.07858 0.21926,-0.07414 0.3,0.01l0.463,0.468c0.151,-0.148 0.31,-0.297 0.46,-0.445c0.04017,-0.03966 0.09461,-0.06148 0.15105,-0.06054c0.05644,0.00094 0.11013,0.02456 0.14895,0.06554c0.03971,0.0386 0.06212,0.09162 0.06212,0.147c0,0.05538 -0.0224,0.1084 -0.06212,0.147c-0.152,0.149 -0.308,0.301 -0.462,0.449M238.607,225.263c0.151,0.146 0.308,0.289 0.46,0.433c0.083,0.077 0.083,0.209 0,0.297c-0.03909,0.0401 -0.09122,0.06493 -0.147,0.07c-0.055,0.002 -0.107,-0.016 -0.152,-0.056l-0.46,-0.433c-0.154,0.157 -0.308,0.317 -0.46,0.475c-0.0406,0.04174 -0.0958,0.06611 -0.154,0.068c-0.05337,0.00249 -0.10542,-0.01703 -0.144,-0.054c-0.03957,-0.03908 -0.06185,-0.09238 -0.06185,-0.148c0,-0.05562 0.02227,-0.10892 0.06185,-0.148c0.151,-0.16 0.303,-0.318 0.46,-0.476c-0.157,-0.147 -0.309,-0.291 -0.46,-0.437c-0.04,-0.03946 -0.06252,-0.09331 -0.06252,-0.1495c0,-0.05619 0.02252,-0.11004 0.06252,-0.1495c0.07973,-0.08396 0.21178,-0.08927 0.298,-0.012c0.152,0.148 0.306,0.294 0.46,0.438c0.154,-0.158 0.309,-0.32 0.459,-0.478c0.086,-0.085 0.217,-0.094 0.3,-0.016c0.083,0.077 0.083,0.209 0,0.296c-0.152,0.158 -0.309,0.32 -0.46,0.48M236.532,225.341c0.15391,0.14774 0.30724,0.29607 0.46,0.445c0.03971,0.0386 0.06212,0.09162 0.06212,0.147c0,0.05538 -0.0224,0.1084 -0.06212,0.147c-0.03735,0.04164 -0.09009,0.0662 -0.146,0.068c-0.0564,0.00188 -0.11118,-0.01903 -0.152,-0.058c-0.152,-0.149 -0.306,-0.294 -0.46,-0.443c-0.154,0.153 -0.308,0.311 -0.46,0.467c-0.04147,0.03944 -0.09678,0.06099 -0.154,0.06c-0.052,0 -0.107,-0.016 -0.145,-0.056c-0.04,-0.03946 -0.06252,-0.09331 -0.06252,-0.1495c0,-0.05619 0.02252,-0.11004 0.06252,-0.1495c0.152,-0.151 0.304,-0.308 0.458,-0.461l-0.458,-0.452c-0.03971,-0.0386 -0.06212,-0.09162 -0.06212,-0.147c0,-0.05538 0.0224,-0.1084 0.06212,-0.147c0.03893,-0.04042 0.09235,-0.06368 0.14846,-0.06461c0.05611,-0.00094 0.11028,0.02051 0.15054,0.05961c0.152,0.151 0.306,0.297 0.46,0.447c0.154,-0.155 0.309,-0.313 0.459,-0.467c0.086,-0.086 0.219,-0.09 0.3,-0.01c0.03971,0.0386 0.06212,0.09162 0.06212,0.147c0,0.05538 -0.0224,0.1084 -0.06212,0.147c-0.152,0.157 -0.306,0.315 -0.46,0.47M242.751,224.962c0.149,0.137 0.305,0.273 0.46,0.41c0.082,0.072 0.082,0.206 0,0.296c-0.03935,0.04222 -0.09261,0.06885 -0.15,0.075c-0.05401,0.00723 -0.10847,-0.00958 -0.149,-0.046c-0.152,-0.135 -0.306,-0.276 -0.46,-0.41c-0.154,0.165 -0.308,0.329 -0.46,0.496c-0.03891,0.04195 -0.09201,0.06796 -0.149,0.073c-0.057,0.005 -0.11,-0.009 -0.15,-0.047c-0.083,-0.076 -0.083,-0.209 0,-0.296c0.152,-0.167 0.308,-0.332 0.46,-0.5c-0.152,-0.133 -0.308,-0.274 -0.46,-0.41c-0.083,-0.079 -0.083,-0.21 0,-0.3c0.083,-0.086 0.216,-0.101 0.299,-0.026c0.152,0.142 0.306,0.276 0.46,0.416l0.46,-0.5c0.085,-0.09 0.215,-0.104 0.298,-0.034c0.083,0.076 0.083,0.21 0,0.3c-0.154,0.167 -0.31,0.333 -0.46,0.503M240.681,225.135c0.151,0.143 0.308,0.282 0.46,0.423c0.083,0.075 0.083,0.21 0,0.297c-0.03897,0.04187 -0.09203,0.06787 -0.149,0.073c-0.055,0.002 -0.107,-0.013 -0.15,-0.053c-0.152,-0.14 -0.306,-0.28 -0.462,-0.42c-0.152,0.16 -0.306,0.322 -0.458,0.487c-0.04067,0.04017 -0.09406,0.06492 -0.151,0.07c-0.0541,0.00386 -0.10736,-0.01498 -0.147,-0.052c-0.083,-0.077 -0.083,-0.209 0,-0.296c0.151,-0.162 0.308,-0.325 0.46,-0.485l-0.46,-0.428c-0.03957,-0.03908 -0.06185,-0.09238 -0.06185,-0.148c0,-0.05562 0.02227,-0.10892 0.06185,-0.148c0.08,-0.085 0.215,-0.097 0.298,-0.022c0.152,0.146 0.306,0.287 0.458,0.429c0.156,-0.165 0.31,-0.327 0.462,-0.49c0.085,-0.087 0.216,-0.099 0.298,-0.023c0.084,0.075 0.084,0.206 0,0.296c-0.15274,0.16389 -0.30608,0.32722 -0.46,0.49M246.868,224.468l0.455,0.388c0.086,0.071 0.086,0.203 0,0.299c-0.03616,0.04443 -0.08743,0.07398 -0.144,0.083c-0.05373,0.00853 -0.10861,-0.00519 -0.152,-0.038c-0.152,-0.134 -0.306,-0.263 -0.457,-0.393c-0.152,0.172 -0.307,0.346 -0.457,0.518c-0.03726,0.04569 -0.0913,0.07451 -0.15,0.08c-0.052,0.007 -0.107,-0.005 -0.147,-0.04c-0.083,-0.071 -0.083,-0.203 0,-0.297c0.149,-0.172 0.306,-0.343 0.457,-0.517c-0.151,-0.132 -0.307,-0.262 -0.457,-0.396c-0.083,-0.073 -0.083,-0.204 0,-0.296c0.078,-0.094 0.213,-0.111 0.296,-0.038l0.458,0.393c0.151,-0.176 0.305,-0.348 0.457,-0.522c0.083,-0.094 0.214,-0.113 0.296,-0.048c0.086,0.074 0.086,0.208 0,0.3c-0.151,0.176 -0.303,0.35 -0.455,0.524M244.806,224.739c0.152,0.132 0.308,0.266 0.46,0.4c0.083,0.071 0.083,0.205 0,0.297c-0.03933,0.0431 -0.0923,0.07135 -0.15,0.08c-0.056,0.007 -0.106,-0.007 -0.151,-0.043c-0.152,-0.136 -0.304,-0.268 -0.455,-0.404c-0.152,0.171 -0.309,0.341 -0.462,0.508c-0.03726,0.04569 -0.0913,0.07451 -0.15,0.08c-0.052,0.005 -0.107,-0.009 -0.145,-0.045c-0.085,-0.073 -0.085,-0.206 0,-0.296c0.15,-0.17 0.304,-0.337 0.456,-0.508l-0.456,-0.405c-0.085,-0.073 -0.085,-0.207 0,-0.299c0.081,-0.089 0.214,-0.104 0.294,-0.031l0.463,0.405c0.151,-0.172 0.303,-0.341 0.455,-0.51c0.085,-0.095 0.215,-0.108 0.301,-0.038c0.083,0.07 0.083,0.204 0,0.294l-0.46,0.516M248.926,224.148c0.15264,0.1247 0.30365,0.25138 0.453,0.38c0.085,0.065 0.085,0.2 0,0.294c-0.03635,0.04641 -0.08882,0.07747 -0.147,0.087c-0.05254,0.01052 -0.10706,-0.00265 -0.149,-0.036c-0.15,-0.127 -0.304,-0.254 -0.456,-0.381c-0.151,0.18 -0.303,0.356 -0.454,0.53c-0.0374,0.04618 -0.09109,0.07624 -0.15,0.084c-0.0521,0.01313 -0.10732,-0.00077 -0.147,-0.037c-0.085,-0.069 -0.085,-0.2 0,-0.294c0.152,-0.18 0.306,-0.353 0.458,-0.53c-0.152,-0.129 -0.306,-0.253 -0.458,-0.383c-0.085,-0.071 -0.085,-0.203 0,-0.299c0.081,-0.092 0.211,-0.115 0.296,-0.047l0.455,0.386c0.152,-0.179 0.306,-0.356 0.456,-0.534c0.087,-0.095 0.218,-0.12 0.296,-0.053c0.085,0.071 0.085,0.2 0,0.3c-0.14988,0.17895 -0.30088,0.35695 -0.453,0.534" fill="#bc1718"/><path d="M222.042,222.281l0.46,0.52c0.08,0.091 0.08,0.224 0,0.294c-0.04272,0.03433 -0.09771,0.04953 -0.152,0.042c-0.052,-0.009 -0.104,-0.032 -0.147,-0.082c-0.152,-0.172 -0.306,-0.344 -0.457,-0.52c-0.152,0.134 -0.306,0.263 -0.458,0.39c-0.04183,0.03608 -0.09747,0.05182 -0.152,0.043c-0.052,-0.01 -0.107,-0.038 -0.147,-0.083c-0.083,-0.094 -0.083,-0.227 0,-0.297c0.152,-0.13 0.306,-0.258 0.46,-0.39c0.097,-0.082 0.199,-0.169 0.297,-0.256c0.096,0.113 0.196,0.226 0.296,0.338" fill="#e63744"/><path d="M222.042,221.419l0.46,0.52c0.08,0.094 0.08,0.224 0,0.297c-0.04292,0.03384 -0.09798,0.04833 -0.152,0.04c-0.05695,-0.00834 -0.10907,-0.0367 -0.147,-0.08c-0.152,-0.175 -0.306,-0.346 -0.457,-0.52c-0.152,0.131 -0.306,0.261 -0.458,0.388c-0.04151,0.03663 -0.09757,0.05212 -0.152,0.042c-0.052,-0.009 -0.107,-0.035 -0.147,-0.085c-0.083,-0.091 -0.083,-0.224 0,-0.294l0.46,-0.39c0.097,-0.083 0.199,-0.167 0.297,-0.254l0.296,0.337M219.986,221.975c0.152,0.179 0.306,0.353 0.455,0.532c0.083,0.094 0.083,0.224 0,0.294c-0.04026,0.03286 -0.09276,0.04672 -0.144,0.038c-0.057,-0.007 -0.109,-0.035 -0.152,-0.085c-0.152,-0.177 -0.305,-0.353 -0.455,-0.532c-0.152,0.13 -0.306,0.257 -0.458,0.384c-0.04318,0.03237 -0.09798,0.04507 -0.151,0.035c-0.05697,-0.01128 -0.10824,-0.04204 -0.145,-0.087c-0.085,-0.097 -0.085,-0.228 0,-0.297c0.15,-0.127 0.304,-0.251 0.455,-0.378c0.099,-0.08 0.197,-0.163 0.299,-0.247c0.097,0.113 0.194,0.228 0.296,0.343" fill="#e63744"/><path d="M219.986,221.113c0.152,0.179 0.306,0.353 0.455,0.532c0.083,0.094 0.083,0.224 0,0.294c-0.04078,0.03184 -0.09282,0.04558 -0.144,0.038c-0.05941,-0.00795 -0.11366,-0.03793 -0.152,-0.084c-0.152,-0.175 -0.305,-0.354 -0.455,-0.53l-0.458,0.381c-0.04368,0.03128 -0.09802,0.04388 -0.151,0.035c-0.05697,-0.01128 -0.10824,-0.04204 -0.145,-0.087c-0.085,-0.094 -0.085,-0.23 0,-0.294c0.15,-0.129 0.304,-0.254 0.455,-0.381c0.099,-0.08 0.197,-0.162 0.299,-0.247c0.09723,0.11557 0.1959,0.22991 0.296,0.343M226.174,222.749c0.1523,0.16596 0.30563,0.33096 0.46,0.495c0.083,0.091 0.083,0.223 0,0.298c-0.04088,0.03586 -0.09494,0.05291 -0.149,0.047c-0.05752,-0.00497 -0.11106,-0.03138 -0.15,-0.074c-0.154,-0.166 -0.308,-0.33 -0.46,-0.5c-0.152,0.141 -0.306,0.276 -0.46,0.414c-0.04098,0.0371 -0.0962,0.05429 -0.151,0.047c-0.0564,-0.00619 -0.10828,-0.03375 -0.145,-0.077c-0.083,-0.09 -0.083,-0.219 0,-0.294c0.149,-0.139 0.303,-0.273 0.458,-0.413c0.101,-0.088 0.198,-0.178 0.298,-0.27c0.097,0.108 0.202,0.219 0.299,0.328" fill="#e63744"/><path d="M226.174,221.888c0.152,0.164 0.306,0.332 0.46,0.494c0.083,0.092 0.083,0.223 0,0.296c-0.04052,0.03672 -0.09453,0.05485 -0.149,0.05c-0.0578,-0.00549 -0.11138,-0.03264 -0.15,-0.076c-0.154,-0.164 -0.308,-0.329 -0.46,-0.496l-0.46,0.412c-0.04156,0.03607 -0.09631,0.05311 -0.151,0.047c-0.05687,-0.0054 -0.10915,-0.03353 -0.145,-0.078c-0.083,-0.089 -0.083,-0.219 0,-0.296c0.149,-0.137 0.303,-0.273 0.458,-0.41c0.101,-0.089 0.198,-0.178 0.298,-0.268c0.097,0.105 0.202,0.215 0.299,0.325M224.107,222.538c0.151,0.172 0.308,0.341 0.46,0.508c0.082,0.092 0.082,0.224 0,0.297c-0.04165,0.03425 -0.09542,0.05013 -0.149,0.044c-0.05803,-0.00621 -0.11159,-0.03406 -0.15,-0.078c-0.152,-0.166 -0.306,-0.338 -0.458,-0.51c-0.151,0.134 -0.308,0.273 -0.461,0.402c-0.04051,0.0371 -0.09575,0.05368 -0.15,0.045c-0.05641,-0.00828 -0.10792,-0.03669 -0.145,-0.08c-0.083,-0.092 -0.083,-0.224 0,-0.294c0.152,-0.136 0.304,-0.27 0.456,-0.4c0.09909,-0.08902 0.1991,-0.17703 0.3,-0.264c0.097,0.111 0.197,0.222 0.297,0.33" fill="#e63744"/><path d="M224.107,221.679l0.46,0.505c0.082,0.092 0.082,0.224 0,0.297c-0.0415,0.03461 -0.09528,0.05085 -0.149,0.045c-0.05754,-0.00779 -0.11058,-0.03537 -0.15,-0.078c-0.152,-0.167 -0.306,-0.336 -0.458,-0.511c-0.151,0.137 -0.308,0.271 -0.461,0.403c-0.04016,0.03782 -0.09544,0.05515 -0.15,0.047c-0.05671,-0.00941 -0.10817,-0.03886 -0.145,-0.083c-0.083,-0.091 -0.083,-0.224 0,-0.294c0.152,-0.134 0.304,-0.27 0.456,-0.4c0.099,-0.087 0.198,-0.176 0.3,-0.263c0.097,0.11 0.197,0.221 0.297,0.332M230.306,223.023l0.463,0.475c0.03971,0.0386 0.06212,0.09162 0.06212,0.147c0,0.05538 -0.0224,0.1084 -0.06212,0.147c-0.03978,0.03942 -0.09402,0.06076 -0.15,0.059c-0.0577,-0.00407 -0.11185,-0.02936 -0.152,-0.071c-0.154,-0.157 -0.306,-0.317 -0.457,-0.475c-0.154,0.144 -0.311,0.29 -0.463,0.435c-0.04168,0.03626 -0.09583,0.05491 -0.151,0.052c-0.052,-0.002 -0.11,-0.028 -0.15,-0.07c-0.03971,-0.0386 -0.06212,-0.09162 -0.06212,-0.147c0,-0.05538 0.0224,-0.1084 0.06212,-0.147c0.152,-0.146 0.308,-0.288 0.463,-0.433c0.097,-0.095 0.199,-0.189 0.301,-0.282c0.096,0.1 0.199,0.206 0.296,0.31" fill="#e63744"/><path d="M230.306,222.161c0.154,0.158 0.308,0.318 0.463,0.475c0.04002,0.03863 0.06263,0.09187 0.06263,0.1475c0,0.05563 -0.02261,0.10887 -0.06263,0.1475c-0.03995,0.03906 -0.09417,0.06002 -0.15,0.058c-0.05783,-0.00272 -0.11234,-0.02782 -0.152,-0.07c-0.154,-0.158 -0.306,-0.318 -0.457,-0.475c-0.154,0.145 -0.311,0.289 -0.463,0.435c-0.04168,0.03626 -0.09583,0.05491 -0.151,0.052c-0.052,-0.003 -0.11,-0.026 -0.15,-0.069c-0.083,-0.086 -0.083,-0.221 0,-0.296c0.152,-0.146 0.308,-0.287 0.463,-0.433c0.097,-0.094 0.199,-0.188 0.301,-0.282c0.096,0.103 0.199,0.207 0.296,0.31M228.234,222.91c0.152,0.16 0.308,0.322 0.46,0.485c0.085,0.086 0.085,0.221 0,0.296c-0.03975,0.0375 -0.09353,0.0564 -0.148,0.052c-0.056,-0.003 -0.11,-0.028 -0.15,-0.073c-0.153,-0.16 -0.309,-0.32 -0.46,-0.484c-0.152,0.14 -0.306,0.282 -0.46,0.42c-0.04221,0.03737 -0.09767,0.05619 -0.15391,0.05224c-0.05623,-0.00395 -0.10852,-0.03034 -0.14509,-0.07324c-0.083,-0.087 -0.083,-0.223 0,-0.298c0.151,-0.137 0.306,-0.28 0.46,-0.422c0.099,-0.091 0.198,-0.183 0.298,-0.273c0.099,0.104 0.199,0.21 0.299,0.318" fill="#e63744"/><path d="M228.234,222.046c0.152,0.163 0.308,0.327 0.46,0.487c0.085,0.085 0.085,0.222 0,0.297c-0.03951,0.03724 -0.09287,0.05611 -0.147,0.052c-0.057,-0.003 -0.112,-0.029 -0.152,-0.073c-0.152,-0.16 -0.308,-0.323 -0.46,-0.485l-0.46,0.423c-0.04172,0.03601 -0.09603,0.054 -0.151,0.05c-0.052,-0.005 -0.107,-0.028 -0.147,-0.073c-0.083,-0.089 -0.083,-0.224 0,-0.296l0.46,-0.424c0.099,-0.089 0.198,-0.183 0.298,-0.273l0.299,0.315M234.456,223.106c0.154,0.151 0.311,0.301 0.462,0.451c0.03988,0.03912 0.06236,0.09263 0.06236,0.1485c0,0.05587 -0.02247,0.10938 -0.06236,0.1485c-0.03811,0.04053 -0.09137,0.06336 -0.147,0.063c-0.05701,0.00046 -0.11194,-0.02144 -0.153,-0.061l-0.46,-0.456c-0.152,0.153 -0.309,0.306 -0.462,0.457c-0.03934,0.0402 -0.09379,0.06198 -0.15,0.06c-0.052,0 -0.107,-0.021 -0.152,-0.063c-0.07836,-0.08349 -0.07836,-0.21351 0,-0.297c0.157,-0.151 0.311,-0.301 0.462,-0.451l0.302,-0.297c0.099,0.099 0.201,0.195 0.298,0.297" fill="#e63744"/><path d="M234.456,222.244l0.462,0.452c0.03957,0.03908 0.06185,0.09238 0.06185,0.148c0,0.05562 -0.02227,0.10892 -0.06185,0.148c-0.03793,0.0409 -0.09122,0.0641 -0.147,0.064c-0.05716,0.00019 -0.1121,-0.02208 -0.153,-0.062l-0.46,-0.456c-0.152,0.153 -0.309,0.306 -0.462,0.456c-0.03899,0.04094 -0.09348,0.06346 -0.15,0.062c-0.052,0 -0.107,-0.022 -0.152,-0.064c-0.07774,-0.08336 -0.07774,-0.21264 0,-0.296c0.157,-0.149 0.311,-0.302 0.462,-0.452c0.105,-0.101 0.202,-0.198 0.302,-0.3c0.099,0.102 0.201,0.199 0.298,0.3M232.382,223.087l0.463,0.464c0.03969,0.03942 0.06202,0.09306 0.06202,0.149c0,0.05594 -0.02232,0.10958 -0.06202,0.149c-0.0404,0.03846 -0.09422,0.05963 -0.15,0.059c-0.05762,-0.00188 -0.1122,-0.02629 -0.152,-0.068c-0.149,-0.153 -0.308,-0.308 -0.46,-0.464c-0.151,0.149 -0.308,0.297 -0.461,0.445c-0.0395,0.03965 -0.09414,0.06041 -0.15,0.057c-0.052,-0.003 -0.107,-0.024 -0.152,-0.064c-0.07774,-0.08336 -0.07774,-0.21264 0,-0.296c0.157,-0.151 0.311,-0.295 0.463,-0.445c0.101,-0.094 0.2,-0.193 0.3,-0.287c0.10092,0.09908 0.20059,0.19942 0.299,0.301" fill="#e63744"/><path d="M232.382,222.225l0.463,0.464c0.03957,0.03908 0.06185,0.09238 0.06185,0.148c0,0.05562 -0.02227,0.10892 -0.06185,0.148c-0.03947,0.04022 -0.09364,0.06261 -0.15,0.062c-0.05694,-0.00133 -0.11126,-0.0242 -0.152,-0.064c-0.149,-0.155 -0.308,-0.313 -0.46,-0.468c-0.151,0.15 -0.308,0.296 -0.461,0.445c-0.03908,0.04021 -0.09413,0.06077 -0.15,0.056c-0.052,-0.002 -0.107,-0.024 -0.152,-0.064c-0.07823,-0.08316 -0.07823,-0.21284 0,-0.296c0.157,-0.148 0.311,-0.295 0.463,-0.445c0.101,-0.094 0.2,-0.193 0.3,-0.286c0.10092,0.09875 0.20059,0.19876 0.299,0.3M238.607,222.995c0.151,0.146 0.308,0.287 0.46,0.433c0.083,0.078 0.083,0.207 0,0.295c-0.0378,0.04188 -0.09066,0.06705 -0.147,0.07c-0.05584,0.00295 -0.11054,-0.01648 -0.152,-0.054c-0.152,-0.143 -0.306,-0.292 -0.46,-0.433l-0.46,0.475c-0.04123,0.04083 -0.09605,0.06504 -0.154,0.068c-0.052,0.003 -0.107,-0.016 -0.145,-0.056c-0.03971,-0.0386 -0.06212,-0.09162 -0.06212,-0.147c0,-0.05538 0.0224,-0.1084 0.06212,-0.147c0.152,-0.16 0.304,-0.318 0.46,-0.476c0.099,-0.103 0.199,-0.209 0.299,-0.31l0.299,0.282" fill="#e63744"/><path d="M238.607,222.134c0.151,0.146 0.308,0.287 0.46,0.433c0.083,0.077 0.083,0.206 0,0.296c-0.03794,0.04141 -0.09088,0.0659 -0.147,0.068c-0.055,0.003 -0.107,-0.014 -0.152,-0.054l-0.46,-0.433l-0.46,0.476c-0.0406,0.04174 -0.0958,0.06611 -0.154,0.068c-0.05411,0.00173 -0.10655,-0.01888 -0.145,-0.057c-0.03971,-0.0386 -0.06212,-0.09162 -0.06212,-0.147c0,-0.05538 0.0224,-0.1084 0.06212,-0.147c0.152,-0.16 0.304,-0.317 0.46,-0.476l0.299,-0.31l0.299,0.283M236.532,223.073c0.155,0.149 0.309,0.295 0.46,0.443c0.03957,0.03908 0.06185,0.09238 0.06185,0.148c0,0.05562 -0.02227,0.10892 -0.06185,0.148c-0.03756,0.04109 -0.09034,0.06495 -0.146,0.066c-0.055,0.002 -0.11,-0.016 -0.152,-0.056c-0.152,-0.149 -0.306,-0.299 -0.46,-0.445l-0.46,0.463c-0.04016,0.04211 -0.09581,0.06596 -0.154,0.066c-0.052,0 -0.107,-0.016 -0.145,-0.056c-0.04,-0.03946 -0.06252,-0.09331 -0.06252,-0.1495c0,-0.05619 0.02252,-0.11004 0.06252,-0.1495c0.152,-0.153 0.304,-0.311 0.458,-0.463c0.101,-0.102 0.199,-0.202 0.301,-0.302c0.099,0.094 0.199,0.193 0.299,0.287" fill="#e63744"/><path d="M236.532,222.212l0.46,0.442c0.03988,0.03912 0.06236,0.09263 0.06236,0.1485c0,0.05587 -0.02247,0.10938 -0.06236,0.1485c-0.03832,0.03988 -0.09072,0.06321 -0.146,0.065c-0.055,0.005 -0.11,-0.016 -0.152,-0.056l-0.46,-0.445l-0.46,0.469c-0.04131,0.0398 -0.09664,0.06172 -0.154,0.061c-0.05457,0.00208 -0.10739,-0.01941 -0.145,-0.059c-0.03988,-0.03912 -0.06236,-0.09263 -0.06236,-0.1485c0,-0.05587 0.02247,-0.10938 0.06236,-0.1485c0.152,-0.153 0.304,-0.31 0.458,-0.464c0.101,-0.1 0.199,-0.201 0.301,-0.3c0.099,0.094 0.199,0.193 0.299,0.287M242.751,222.692c0.149,0.139 0.305,0.272 0.46,0.412c0.082,0.073 0.082,0.206 0,0.296c-0.03987,0.04169 -0.0928,0.06851 -0.15,0.076c-0.0542,0.00564 -0.10828,-0.01178 -0.149,-0.048l-0.46,-0.412c-0.154,0.168 -0.308,0.332 -0.46,0.5c-0.03956,0.04106 -0.09231,0.0669 -0.149,0.073c-0.057,0.004 -0.11,-0.01 -0.15,-0.05c-0.083,-0.073 -0.083,-0.209 0,-0.296c0.152,-0.165 0.308,-0.33 0.46,-0.497l0.299,-0.322l0.298,0.268" fill="#e63744"/><path d="M242.751,221.83c0.149,0.139 0.305,0.273 0.46,0.412c0.082,0.074 0.082,0.207 0,0.294c-0.03911,0.04305 -0.0923,0.07071 -0.15,0.078c-0.05406,0.00591 -0.10812,-0.01114 -0.149,-0.047c-0.152,-0.137 -0.306,-0.275 -0.46,-0.41c-0.154,0.165 -0.308,0.33 -0.46,0.497c-0.03956,0.04106 -0.09231,0.0669 -0.149,0.073c-0.057,0.005 -0.11,-0.01 -0.15,-0.05c-0.083,-0.073 -0.083,-0.206 0,-0.296c0.152,-0.165 0.308,-0.329 0.46,-0.497l0.299,-0.32l0.298,0.266M240.681,222.867c0.151,0.14 0.308,0.282 0.46,0.42c0.083,0.076 0.083,0.213 0,0.3c-0.03897,0.04187 -0.09203,0.06787 -0.149,0.073c-0.055,0.005 -0.107,-0.015 -0.15,-0.055c-0.152,-0.136 -0.306,-0.28 -0.462,-0.418l-0.458,0.484c-0.04038,0.04106 -0.09374,0.06686 -0.151,0.073c-0.05444,0.00415 -0.10812,-0.01471 -0.148,-0.052c-0.03957,-0.03908 -0.06185,-0.09238 -0.06185,-0.148c0,-0.05562 0.02227,-0.10892 0.06185,-0.148c0.152,-0.165 0.309,-0.325 0.46,-0.485l0.297,-0.317c0.10142,0.08943 0.20143,0.18044 0.3,0.273" fill="#e63744"/><path d="M240.681,222.005c0.151,0.141 0.308,0.283 0.46,0.423c0.083,0.073 0.083,0.207 0,0.297c-0.03897,0.04187 -0.09203,0.06787 -0.149,0.073c-0.05503,0.0041 -0.10932,-0.01471 -0.15,-0.052c-0.152,-0.141 -0.306,-0.285 -0.462,-0.421c-0.152,0.16 -0.306,0.322 -0.458,0.485c-0.04038,0.04106 -0.09374,0.06686 -0.151,0.073c-0.05444,0.00415 -0.10812,-0.01471 -0.148,-0.052c-0.03988,-0.03912 -0.06236,-0.09263 -0.06236,-0.1485c0,-0.05587 0.02247,-0.10938 0.06236,-0.1485c0.152,-0.162 0.309,-0.324 0.46,-0.487c0.1,-0.105 0.2,-0.209 0.297,-0.315c0.102,0.089 0.201,0.183 0.3,0.273M246.868,222.198c0.152,0.132 0.304,0.259 0.455,0.39c0.086,0.069 0.086,0.203 0,0.297c-0.03569,0.04482 -0.08725,0.07418 -0.144,0.082c-0.05359,0.00882 -0.10846,-0.00454 -0.152,-0.037c-0.152,-0.133 -0.306,-0.262 -0.457,-0.393c-0.152,0.174 -0.307,0.346 -0.457,0.517c-0.03694,0.04655 -0.09094,0.07643 -0.15,0.083c-0.052,0.007 -0.107,-0.007 -0.147,-0.043c-0.083,-0.068 -0.083,-0.202 0,-0.294c0.149,-0.172 0.306,-0.346 0.457,-0.52c0.097,-0.113 0.197,-0.223 0.297,-0.336c0.099,0.084 0.198,0.172 0.298,0.254" fill="#e63744"/><path d="M246.868,221.337l0.455,0.39c0.086,0.07 0.086,0.202 0,0.294c-0.03537,0.0457 -0.0869,0.07612 -0.144,0.085c-0.057,0.01 -0.109,-0.005 -0.152,-0.04c-0.152,-0.129 -0.306,-0.259 -0.457,-0.389c-0.152,0.172 -0.307,0.344 -0.457,0.518c-0.03795,0.04484 -0.09162,0.07347 -0.15,0.08c-0.052,0.007 -0.107,-0.005 -0.147,-0.04c-0.083,-0.071 -0.083,-0.202 0,-0.296c0.149,-0.172 0.306,-0.349 0.457,-0.52c0.097,-0.111 0.197,-0.226 0.297,-0.335c0.099,0.085 0.198,0.17 0.298,0.252M244.806,222.471c0.152,0.132 0.308,0.264 0.46,0.4c0.083,0.071 0.083,0.203 0,0.294c-0.03933,0.0431 -0.0923,0.07135 -0.15,0.08c-0.056,0.008 -0.106,-0.007 -0.151,-0.042c-0.152,-0.132 -0.304,-0.271 -0.455,-0.402c-0.152,0.169 -0.309,0.341 -0.462,0.508c-0.03795,0.04484 -0.09162,0.07347 -0.15,0.08c-0.052,0.005 -0.107,-0.007 -0.145,-0.047c-0.085,-0.071 -0.085,-0.205 0,-0.297c0.15,-0.167 0.304,-0.334 0.456,-0.508c0.101,-0.108 0.201,-0.216 0.301,-0.326c0.096,0.086 0.196,0.17 0.296,0.26" fill="#e63744"/><path d="M244.806,221.61c0.15407,0.13248 0.30741,0.26581 0.46,0.4c0.083,0.07 0.083,0.202 0,0.294c-0.03923,0.04359 -0.09213,0.07251 -0.15,0.082c-0.05439,0.00654 -0.10906,-0.00976 -0.151,-0.045l-0.455,-0.402c-0.152,0.172 -0.309,0.341 -0.462,0.508c-0.03795,0.04484 -0.09162,0.07347 -0.15,0.08c-0.05291,0.00658 -0.10601,-0.01063 -0.145,-0.047c-0.085,-0.073 -0.085,-0.204 0,-0.296l0.456,-0.506l0.301,-0.33c0.096,0.085 0.196,0.175 0.296,0.262M248.926,221.879c0.152,0.127 0.303,0.251 0.453,0.378c0.085,0.069 0.085,0.2 0,0.297c-0.03635,0.04641 -0.08882,0.07747 -0.147,0.087c-0.05237,0.00961 -0.10638,-0.00307 -0.149,-0.035c-0.15,-0.127 -0.304,-0.254 -0.456,-0.384c-0.151,0.179 -0.303,0.355 -0.454,0.532c-0.03722,0.04655 -0.09094,0.07699 -0.15,0.085c-0.05225,0.01113 -0.10669,-0.00294 -0.147,-0.038c-0.085,-0.071 -0.085,-0.2 0,-0.294c0.152,-0.179 0.306,-0.353 0.458,-0.532c0.097,-0.115 0.196,-0.231 0.293,-0.343c0.1,0.084 0.199,0.167 0.299,0.247" fill="#e63744"/><path d="M248.926,221.017c0.152,0.127 0.303,0.251 0.453,0.381c0.085,0.064 0.085,0.2 0,0.294c-0.03635,0.04641 -0.08882,0.07747 -0.147,0.087c-0.05234,0.00844 -0.10589,-0.00414 -0.149,-0.035c-0.15,-0.127 -0.304,-0.254 -0.456,-0.382c-0.151,0.177 -0.303,0.356 -0.454,0.53c-0.03722,0.04655 -0.09094,0.07699 -0.15,0.085c-0.05217,0.00869 -0.10558,-0.00512 -0.147,-0.038c-0.085,-0.07 -0.085,-0.2 0,-0.294c0.152,-0.179 0.306,-0.352 0.458,-0.532c0.097,-0.115 0.196,-0.228 0.293,-0.341c0.1,0.083 0.199,0.165 0.299,0.245" fill="#e63744"/><path d="M218.616,219.827c10.37512,1.10898 20.83923,1.10261 31.213,-0.019l0.043,0.532c-10.40509,1.11819 -20.89977,1.12355 -31.306,0.016c0.02,-0.176 0.033,-0.355 0.05,-0.529" fill="#bc1718"/><path d="M218.468,199.31c0.294,-6.344 1.391,-16.31 1.583,-17.097c-0.931,1.137 -3.783,13.353 -3.975,15.043c-1.586,0.83 -4.788,0.785 -6.284,0c0.157,-4.589 3.985,-16.525 5.476,-18.53c1.282,-1.713 4.236,-3.76 6.246,-4.835c0.026,-0.014 0.052,-0.024 0.073,-0.035c1.081,-0.977 3.43,-1.86 4.698,-2.13c2.736,-0.663 6.433,-0.802 6.433,-0.802l1.778,0.023h0.15l1.792,-0.023c0,0 3.413,0.127 6.09,0.72c1.303,0.216 3.514,0.939 4.918,1.753v0.002l9.434,3.264c1.986,-2.127 3.652,-4.72 5.006,-6.775c2.029,0.257 4.717,1.358 5.72,2.984c-1.714,4.285 -5.241,10.325 -7.436,10.896c-2.556,0.664 -10.721,-2.896 -11.47,-3.23c0.651,0.983 1.635,12.856 1.981,18.772z" data-paper-data="{&quot;origPos&quot;:null}" fill="#eeeeed"/><path d="M227.593,171.304c-2.045,-0.082 -5.708,1.755 -6.625,2.501c-1.292,2.247 0.241,7.019 -1.292,10.273c-0.477,4.41 -1.195,13.257 -1.852,17.64c4.405,0.501 6.237,2.826 11.968,-0.023c0,0 0.467,-2.391 1.342,-3.645c0.019,-5.337 0.083,-11.473 0.223,-14.412c-6.45,-5.061 -3.764,-12.334 -3.764,-12.334M241.536,171.304c0.864,-0.035 2.023,0.273 3.14,0.701c1.514,0.579 2.972,1.031 3.501,1.463c1.292,2.248 0.021,7.17 1.273,10.61c0.476,4.41 1.194,13.257 1.853,17.64c-3.174,0.654 -5.724,3.619 -11.97,-0.023c0,0 -0.512,-2.292 -1.342,-3.645c-0.019,-5.337 -0.08,-11.473 -0.222,-14.412c5.693,-5.061 3.766,-12.334 3.766,-12.334" fill="#8b549c"/><path d="M219.677,184.077c0.746,-2.313 -0.134,-8.049 0.62,-9.834c0.534,-0.417 0.711,-0.528 1.039,-0.7c-0.83,1.541 -0.076,11.099 -1.66,10.534M231.833,183.422l-0.012,0.24c-0.165,3.508 -0.208,11.23 -0.22,14.39v0.146l-0.083,0.118c-0.811,1.16 -1.259,3.442 -1.263,3.465l-0.045,0.226l-0.204,0.104c-1.979,0.981 -3.648,1.44 -5.255,1.44c-1.357,0 -2.511,-0.325 -3.727,-0.666c-0.993,-0.278 -2.04,-0.562 -3.273,-0.706l0.14,-0.932c0.374,0.047 0.462,0.073 0.462,0.073c1.095,0.16 2.025,0.421 2.925,0.674c1.154,0.324 2.24,0.63 3.473,0.63c1.401,0 2.88,-0.396 4.634,-1.247c0.137,-0.621 0.564,-2.36 1.282,-3.469c0.014,-3.176 0.055,-10.484 0.213,-14.056c-3.316,-2.692 -4.164,-5.964 -4.292,-8.254c-0.088,-1.658 0.17,-3.035 0.37,-3.798c0.04247,-0.17046 0.11022,-0.3336 0.201,-0.484c0.348,-0.059 0.927,0.004 0.927,0.004l-0.052,0.143c-0.008,0.02 -0.645,1.784 -0.508,4.12c0.178,3.1 1.567,5.685 4.12,7.69zM247.63,173.145c0.434,0.166 1.041,0.536 1.041,0.536c0.941,2.324 0.125,7.504 0.775,10.334c-1.66,1.25 -0.695,-9.34 -1.816,-10.87M251.4,202.174c-0.724,0.147 -1.42,0.43 -2.164,0.727c-1.216,0.489 -2.603,1.045 -4.314,1.045c-1.79,0 -3.698,-0.605 -5.824,-1.85l-0.178,-0.104l-0.045,-0.197c-0.005,-0.021 -0.505,-2.234 -1.282,-3.504l-0.07,-0.11v-0.127c-0.009,-3.16 -0.054,-10.883 -0.22,-14.394l-0.012,-0.22l0.169,-0.146c2.27,-2.019 3.567,-4.633 3.864,-7.763c0.215,-2.343 -0.235,-4.089 -0.24,-4.108l-0.047,-0.158l0.95,0.05c0,0 0.083,0.188 0.123,0.477c0.21454,1.26294 0.26261,2.54856 0.143,3.824c-0.211,2.278 -1.084,5.531 -4.006,8.221c0.156,3.57 0.201,10.911 0.211,14.087c0.687,1.181 1.14,2.89 1.282,3.473c1.912,1.087 3.608,1.623 5.182,1.623c1.526,0 2.768,-0.5 3.968,-0.98c0.637,-0.257 1.246,-0.504 1.891,-0.673c0,0 0.247,-0.08 0.455,-0.12z" fill="#cb991e"/><path d="M234.58,189.698l3.096,-1.974l-3.096,-1.976l-3.098,1.976zM234.579,189.855l-3.09,1.97l3.091,1.708l3.091,-1.708zM237.742,195.422l-3.162,-1.74l-3.16,1.741l3.16,1.355l3.162,-1.355zM234.58,196.919l-3.108,1.33h6.213zM234.58,185.589l3.008,-1.92h-6.016zM234.703,185.67l3.15,2.004l-0.028,0.05l0.028,0.047l-3.15,2.007l3.15,2.007l-0.028,0.047l0.024,0.047l-3.132,1.727l3.132,1.727l-0.05,0.09l0.045,0.103l-3.093,1.325l3.093,1.32l-0.034,0.078h0.01v0.131h-6.481v-0.131h0.01l-0.033,-0.078l3.093,-1.32l-3.093,-1.325l0.045,-0.103l-0.049,-0.09l3.13,-1.727l-3.131,-1.727l0.024,-0.047l-0.029,-0.047l3.15,-2.007l-3.15,-2.007l0.029,-0.047l-0.029,-0.049l3.15,-2.005l-3.15,-2.01l0.034,-0.056v-0.064h6.48v0.064l0.033,0.056l-3.15,2.009z" fill="#cb991e"/><path d="M236.408,199.756c0.196,-0.267 0.305,-0.558 0.26,-0.7c-0.101,-0.312 -1.09,-0.551 -1.813,-0.651c0.02068,0.06325 0.02137,0.13134 0.002,0.195c0.278,0.699 0.721,1.544 1.045,1.55l0.01,0.09v-0.089c0.088,0 0.325,-0.158 0.496,-0.396M233.21,200.372c0.341,-0.003 0.804,-0.826 1.124,-1.563c-0.103,-0.061 -0.173,-0.173 -0.173,-0.303l0.002,-0.026c-0.768,0.118 -1.676,0.353 -1.783,0.668c-0.052,0.158 0.06,0.488 0.278,0.788c0.192,0.262 0.453,0.436 0.54,0.436v0.09l0.012,-0.09M236.837,199.005c0.078,0.24 -0.107,0.616 -0.285,0.861c-0.085,0.11 -0.372,0.473 -0.654,0.473h-0.007c-0.455,0 -0.915,-0.953 -1.159,-1.555c-0.005,0.004 -0.01,0.009 -0.017,0.011c0.01325,0.04335 0.02758,0.08637 0.043,0.129c0.02103,0.08252 0.03838,0.16594 0.052,0.25c0.01353,0.09502 0.03256,0.18918 0.057,0.282c0.01,0.052 0.026,0.099 0.04,0.149c0.019,0.05 0.043,0.1 0.065,0.15c0.00855,0.02588 0.01856,0.05126 0.03,0.076l0.04,0.077c0.02447,0.05364 0.05219,0.10573 0.083,0.156c0.055,0.096 0.135,0.19 0.209,0.282c0.08133,0.09175 0.15492,0.19009 0.22,0.294c0.034,0.052 0.058,0.106 0.088,0.158c0.026,0.054 0.052,0.106 0.074,0.16c0.019,0.051 0.045,0.103 0.061,0.155l0.05,0.155c0.02206,0.09643 0.03941,0.19388 0.052,0.292c0.012,0.09 0.033,0.17 0.052,0.24c0.026,0.066 0.038,0.132 0.062,0.179c0.043,0.099 0.063,0.155 0.063,0.155l-0.07,-0.153c-0.024,-0.047 -0.045,-0.108 -0.069,-0.177c-0.026,-0.07 -0.047,-0.15 -0.064,-0.24c-0.02854,-0.14759 -0.06969,-0.29245 -0.123,-0.433c-0.019,-0.049 -0.045,-0.1 -0.067,-0.15c-0.023,-0.052 -0.052,-0.101 -0.08,-0.153c-0.029,-0.047 -0.057,-0.098 -0.093,-0.148c-0.059,-0.098 -0.142,-0.186 -0.22,-0.278c-0.043,-0.044 -0.085,-0.087 -0.125,-0.134l-0.06,-0.073l-0.05,-0.08c-0.037,-0.049 -0.067,-0.101 -0.097,-0.153c-0.014,-0.023 -0.026,-0.051 -0.043,-0.075c-0.016,-0.028 -0.023,-0.054 -0.038,-0.082c-0.021,-0.052 -0.051,-0.099 -0.071,-0.156c-0.019,-0.051 -0.04,-0.104 -0.057,-0.154c-0.033,-0.102 -0.049,-0.203 -0.071,-0.29c-0.014,-0.085 -0.033,-0.156 -0.054,-0.217c0.00593,0.05321 0.01529,0.10599 0.028,0.158c0.022,0.102 0.055,0.23 0.057,0.372c0.008,0.073 -0.002,0.146 -0.002,0.218v0.048l-0.005,0.014l-0.002,0.051l-0.017,0.116c-0.016,0.08 -0.034,0.162 -0.064,0.24c-0.024,0.082 -0.059,0.16 -0.087,0.235c-0.062,0.149 -0.086,0.318 -0.1,0.489c-0.01502,0.17397 0.0002,0.34923 0.045,0.518c0.04263,0.17628 0.05714,0.35819 0.043,0.539c0,0.049 -0.01,0.092 -0.012,0.136c-0.005,0.043 -0.005,0.085 -0.02,0.13c-0.011,0.042 -0.016,0.087 -0.03,0.127c-0.017,0.042 -0.026,0.085 -0.04,0.125c-0.031,0.08 -0.067,0.152 -0.093,0.23c-0.0659,0.21145 -0.09466,0.43273 -0.085,0.654c0.00905,0.12098 0.02947,0.24085 0.061,0.358c0.01998,0.09219 0.03269,0.18582 0.038,0.28c0.005,0.082 -0.004,0.143 -0.002,0.186l-0.002,0.063v-0.063c-0.003,-0.043 0.005,-0.104 -0.005,-0.184c-0.005,-0.077 -0.021,-0.172 -0.046,-0.277c-0.028,-0.106 -0.063,-0.223 -0.07,-0.363c-0.00994,-0.14505 -0.00592,-0.29072 0.012,-0.435c0.014,-0.078 0.03,-0.158 0.054,-0.235c0.023,-0.078 0.055,-0.158 0.083,-0.236c0.01446,-0.0382 0.02649,-0.07728 0.036,-0.117c0.009,-0.04 0.016,-0.083 0.023,-0.123c0.01,-0.04 0.012,-0.084 0.014,-0.127c0.005,-0.047 0.015,-0.084 0.01,-0.131c0.01102,-0.17367 -0.00827,-0.34794 -0.057,-0.515c-0.04016,-0.13306 -0.0617,-0.27103 -0.064,-0.41v-0.132c0.00219,-0.18012 0.03187,-0.35884 0.088,-0.53c0.028,-0.082 0.062,-0.157 0.085,-0.23c0.022,-0.073 0.033,-0.146 0.047,-0.216c0.005,-0.04 0.005,-0.078 0.01,-0.116l0.005,-0.054v-0.013c0,0 0.002,-0.008 0,-0.01l0.002,-0.029c-0.002,-0.068 0.005,-0.136 -0.005,-0.202c-0.007,-0.125 -0.042,-0.235 -0.064,-0.343c-0.016,-0.064 -0.03,-0.118 -0.035,-0.175c-0.289,0.643 -0.759,1.509 -1.216,1.509h-0.005c-0.206,0 -0.467,-0.174 -0.697,-0.492c-0.199,-0.275 -0.398,-0.678 -0.31,-0.944c0.159,-0.477 1.389,-0.712 2.034,-0.802c0.06803,-0.0805 0.16762,-0.12755 0.273,-0.129c0.0639,0.00062 0.12631,0.01935 0.18,0.054c0.336,0.037 1.967,0.259 2.14,0.8" fill="#cb991e"/><path d="M239.077,170.7c0.32379,0.10297 0.54403,0.40324 0.545,0.743c-0.00079,0.20889 -0.08481,0.40886 -0.23345,0.55563c-0.14865,0.14677 -0.34966,0.22824 -0.55855,0.22637h-0.012c0.31877,0.10576 0.53368,0.40414 0.533,0.74c-0.00193,0.21462 -0.0912,0.41919 -0.24724,0.56655c-0.15604,0.14736 -0.36538,0.2248 -0.57976,0.21445c0.18763,0.14697 0.29776,0.37166 0.299,0.61c-0.00098,0.27014 -0.14028,0.52094 -0.36908,0.66455c-0.2288,0.14361 -0.51522,0.16001 -0.75892,0.04345c0.08163,0.12454 0.1254,0.27009 0.126,0.419c0,0.433 -0.356,0.783 -0.79,0.783c-0.108,0 -0.216,-0.023 -0.308,-0.06c0.02008,0.06719 0.03051,0.13688 0.031,0.207c0,0.431 -0.356,0.781 -0.792,0.781c-0.28169,-0.00091 -0.54204,-0.15028 -0.685,-0.393c0.005,0.025 0.005,0.049 0.005,0.075c0,0.434 -0.353,0.784 -0.789,0.784c-0.434,0 -0.79,-0.351 -0.79,-0.784c0,-0.025 0,-0.049 0.005,-0.075c-0.135,0.233 -0.391,0.393 -0.684,0.393c-0.24417,0.00012 -0.47453,-0.11323 -0.6234,-0.30677c-0.14887,-0.19353 -0.19935,-0.44526 -0.1366,-0.68123c-0.24271,0.10377 -0.5213,0.07879 -0.74167,-0.06652c-0.22037,-0.1453 -0.35309,-0.39152 -0.35333,-0.65548c-0.00054,-0.14896 0.04219,-0.29487 0.123,-0.42c-0.24323,0.11568 -0.52872,0.09894 -0.75677,-0.04438c-0.22804,-0.14331 -0.36696,-0.39329 -0.36823,-0.66262c0.00007,-0.23793 0.10914,-0.46271 0.296,-0.61l-0.04,0.002c-0.437,0 -0.787,-0.353 -0.787,-0.783c-0.00059,-0.33566 0.2131,-0.63426 0.531,-0.742h-0.012c-0.436,0 -0.79,-0.348 -0.79,-0.781c0.00205,-0.33972 0.2224,-0.63957 0.546,-0.743c0.23885,-0.07976 0.50149,-0.03977 0.70579,0.10746c0.2043,0.14723 0.32531,0.38373 0.32521,0.63554c-0.00159,0.33481 -0.21329,0.63254 -0.529,0.744c0,0 0.005,-0.005 0.009,-0.005c0.20881,-0.00106 0.40945,0.081 0.55767,0.22809c0.14821,0.14709 0.23181,0.3471 0.23233,0.55591c-0.00048,0.23879 -0.11074,0.4641 -0.299,0.611h0.045c0.43166,-0.00111 0.7828,0.34734 0.785,0.779c0.00183,0.14883 -0.04101,0.29478 -0.123,0.419c0.27719,-0.1322 0.60598,-0.09086 0.84181,0.10585c0.23583,0.1967 0.3355,0.51274 0.25519,0.80915c0.09769,-0.03995 0.20247,-0.05968 0.308,-0.058c0.20809,-0.00133 0.40813,0.08033 0.55584,0.22691c0.14771,0.14658 0.2309,0.34599 0.23116,0.55409c0,0.023 0,0.049 -0.002,0.073c0.1425,-0.24312 0.40319,-0.39249 0.685,-0.39249c0.28181,0 0.5425,0.14937 0.685,0.39249c-0.0203,-0.21956 0.05303,-0.4375 0.20194,-0.60012c0.14891,-0.16262 0.35956,-0.25482 0.58006,-0.25388c0.10551,-0.00143 0.21024,0.01829 0.308,0.058c-0.0779,-0.29556 0.02215,-0.60951 0.2567,-0.80551c0.23455,-0.19599 0.56128,-0.23867 0.8383,-0.10949c-0.15177,-0.24157 -0.15994,-0.54663 -0.02132,-0.79598c0.13862,-0.24935 0.40203,-0.40342 0.68732,-0.40202h0.043c-0.34222,-0.00196 -0.64342,-0.22621 -0.74341,-0.55351c-0.09999,-0.3273 0.02446,-0.68159 0.30716,-0.87446c0.2827,-0.19287 0.65798,-0.17952 0.92625,0.03297l0.02,0.005c-0.313,-0.106 -0.538,-0.4 -0.538,-0.744c0.00096,-0.41558 0.32604,-0.75821 0.741,-0.781c0.09827,-0.00802 0.19712,0.00494 0.29,0.038" fill="#bc1718"/><path d="M240.732,172.402c0.30855,0.10477 0.51634,0.39414 0.517,0.72c-0.00127,0.40731 -0.32302,0.74141 -0.73,0.758c0.30573,0.00518 0.5785,0.19332 0.69196,0.47727c0.11345,0.28395 0.04544,0.60825 -0.17255,0.82269c-0.21798,0.21444 -0.54336,0.27713 -0.82541,0.15903h-0.038c0.30013,0.20793 0.41119,0.59915 0.26507,0.93376c-0.14612,0.3346 -0.50856,0.51906 -0.86507,0.44024c0.1318,0.14034 0.20542,0.32547 0.206,0.518c-0.00223,0.25022 -0.12653,0.48357 -0.33294,0.62503c-0.20641,0.14146 -0.46889,0.17318 -0.70306,0.08497c0.14932,0.1433 0.23412,0.34104 0.235,0.548c0,0.422 -0.346,0.76 -0.766,0.76c-0.15877,0.00138 -0.31413,-0.0461 -0.445,-0.136c0.09235,0.12623 0.14209,0.2786 0.142,0.435c0,0.421 -0.346,0.763 -0.77,0.763c-0.22635,-0.00125 -0.44097,-0.10089 -0.588,-0.273c0.05241,0.22682 -0.00145,0.46516 -0.14631,0.64739c-0.14486,0.18224 -0.3649,0.28849 -0.59769,0.28861c-0.2332,0.00137 -0.45422,-0.10398 -0.6,-0.286c0.09204,0.31403 -0.02503,0.65189 -0.29162,0.84167c-0.2666,0.18977 -0.62416,0.18977 -0.89076,0c-0.2666,-0.18977 -0.38366,-0.52763 -0.29162,-0.84167c-0.22244,0.28009 -0.60942,0.36836 -0.93132,0.21245c-0.3219,-0.15591 -0.49255,-0.51428 -0.41068,-0.86245c-0.14907,0.17224 -0.36522,0.27175 -0.593,0.273c-0.419,0 -0.766,-0.342 -0.766,-0.763c0.00145,-0.15585 0.05028,-0.30756 0.14,-0.435c-0.1284,0.08959 -0.28144,0.13711 -0.438,0.136c-0.424,0 -0.768,-0.338 -0.768,-0.76c0.00088,-0.20635 0.08445,-0.40374 0.232,-0.548c-0.23382,0.08747 -0.49561,0.05534 -0.70134,-0.08606c-0.20573,-0.14141 -0.32953,-0.3743 -0.33166,-0.62394c-0.00052,-0.18596 0.06788,-0.36552 0.192,-0.504c-0.34903,0.04186 -0.68158,-0.15985 -0.80574,-0.48873c-0.12416,-0.32888 -0.00788,-0.70003 0.28174,-0.89927c-0.35589,-0.0118 -0.65601,-0.2688 -0.72243,-0.61864c-0.06642,-0.34983 0.11863,-0.69895 0.44543,-0.84036c-0.35829,-0.01829 -0.65499,-0.28463 -0.7117,-0.63888c-0.05671,-0.35425 0.14203,-0.6999 0.4767,-0.82912c-0.358,-0.066 -0.624,-0.374 -0.624,-0.748c0.00026,-0.2028 0.08115,-0.39717 0.22483,-0.54029c0.14368,-0.14312 0.33837,-0.22324 0.54117,-0.22271c0.20263,-0.00027 0.39706,0.07997 0.54052,0.22306c0.14347,0.14309 0.22421,0.33731 0.22448,0.53994c0.00101,0.31532 -0.19454,0.59787 -0.49,0.708c0.36212,0.0665 0.62531,0.38182 0.626,0.75c-0.00102,0.30364 -0.18153,0.57794 -0.46,0.699c0.40592,0.01717 0.7259,0.35172 0.725,0.758c0.00092,0.25261 -0.1244,0.48899 -0.334,0.63c0.41042,0.01507 0.73528,0.3523 0.735,0.763c0.00006,0.18498 -0.06833,0.36344 -0.192,0.501c0.031,-0.002 0.062,-0.002 0.095,-0.002c0.20271,-0.00133 0.39761,0.07806 0.5417,0.22064c0.14409,0.14259 0.22551,0.33665 0.2263,0.53936c-0.00061,0.20556 -0.08556,0.40185 -0.235,0.543c0.0863,-0.02943 0.17682,-0.04463 0.268,-0.045c0.20235,-0.00106 0.39679,0.07851 0.54034,0.22112c0.14355,0.14261 0.2244,0.33653 0.22466,0.53888c0.0002,0.15642 -0.04878,0.30894 -0.14,0.436c0.12952,-0.08894 0.28288,-0.13669 0.44,-0.137c0.23345,-0.0015 0.4548,0.10368 0.60108,0.28562c0.14629,0.18193 0.20149,0.4207 0.14992,0.64838c0.18169,-0.21641 0.46777,-0.31522 0.74429,-0.25707c0.27652,0.05815 0.49857,0.26381 0.57771,0.53507c0.14661,-0.17994 0.3664,-0.28437 0.5985,-0.28437c0.2321,0 0.45189,0.10443 0.5985,0.28437c0.08077,-0.27069 0.30328,-0.47543 0.57974,-0.53343c0.27647,-0.05801 0.5625,0.04003 0.74526,0.25543c-0.05255,-0.22679 0.00146,-0.46517 0.14663,-0.64717c0.14517,-0.182 0.36557,-0.28765 0.59837,-0.28683c0.15827,-0.0012 0.31303,0.04666 0.443,0.137c-0.088,-0.123 -0.142,-0.273 -0.142,-0.436c0.00105,-0.20332 0.08311,-0.39784 0.22801,-0.54049c0.1449,-0.14264 0.34068,-0.22165 0.54399,-0.21951c0.08988,0.00028 0.1791,0.01549 0.264,0.045c-0.143,-0.136 -0.233,-0.327 -0.233,-0.543c0.00053,-0.20279 0.08187,-0.39701 0.22601,-0.53965c0.14414,-0.14264 0.3392,-0.22194 0.54199,-0.22035c0.05806,-0.00062 0.11604,0.00474 0.173,0.016c-0.128,-0.135 -0.206,-0.315 -0.206,-0.515c0.0011,-0.42243 0.34357,-0.76445 0.766,-0.765l0.04,0.002c-0.21309,-0.13864 -0.34145,-0.37578 -0.341,-0.63c0.0018,-0.40692 0.32341,-0.74043 0.73,-0.757c-0.273,-0.118 -0.465,-0.39 -0.465,-0.7c0.00301,-0.35127 0.24455,-0.65547 0.586,-0.738c-0.30815,-0.10494 -0.51525,-0.39447 -0.515,-0.72c0,-0.4236 0.3434,-0.767 0.767,-0.767c0.4236,0 0.767,0.3434 0.767,0.767c-0.00159,0.35076 -0.24213,0.65525 -0.583,0.738" fill="#bc1718"/><path d="M232.771,172.501c-1.085,0 -1.965,-2.32 -1.965,-3.381h7.742c0,1.061 -0.882,3.381 -1.975,3.381h-3.802" data-paper-data="{&quot;origPos&quot;:null}" fill="#9e713e"/><path d="M231.634,171.621c-0.435,-0.658 -0.739,-1.578 -0.815,-2.238c2.55532,0.41214 5.16096,0.402 7.713,-0.03l-0.014,0.014l-6.884,2.254" data-paper-data="{&quot;origPos&quot;:null}" fill="#eeac6c"/><path d="M230.54,170.038l0.476,0.05l0.837,0.538l0.372,-0.056l0.694,-0.516l0.437,-0.098l0.51,0.251l0.523,0.38l0.34,0.018l0.547,-0.322l0.606,-0.325l0.522,0.094l0.348,0.353l0.572,0.223l0.523,-0.14l0.275,-0.325l0.342,-0.165l0.223,0.056c0,0 0.381,1.772 0,2.153c-1.444,1.429 -6.709,1.429 -8.147,0c-0.384,-0.383 0,-2.17 0,-2.17" fill="#eeeeed"/><path d="M237.327,170.85c-0.377,0 -0.574,-0.191 -0.747,-0.358c-0.168,-0.165 -0.31,-0.304 -0.61,-0.304c-0.298,0 -0.442,0.139 -0.608,0.304c-0.171,0.167 -0.368,0.357 -0.75,0.357c-0.381,0 -0.575,-0.19 -0.75,-0.357c-0.164,-0.165 -0.311,-0.304 -0.608,-0.304c-0.296,0 -0.438,0.139 -0.606,0.304c-0.171,0.167 -0.37,0.357 -0.75,0.357c-0.379,0 -0.578,-0.19 -0.748,-0.357c-0.169,-0.165 -0.311,-0.304 -0.61,-0.304v-0.2c0.382,0 0.576,0.193 0.752,0.36c0.163,0.16 0.31,0.304 0.607,0.304c0.296,0 0.44,-0.144 0.606,-0.304c0.176,-0.167 0.37,-0.36 0.75,-0.36c0.381,0 0.578,0.193 0.75,0.36c0.167,0.16 0.309,0.304 0.608,0.304c0.298,0 0.443,-0.144 0.609,-0.304c0.175,-0.167 0.37,-0.36 0.749,-0.36c0.38,0 0.576,0.193 0.747,0.36c0.165,0.16 0.31,0.304 0.609,0.304c0.3,0 0.443,-0.144 0.611,-0.304c0.17,-0.167 0.368,-0.36 0.747,-0.36v0.2c-0.299,0 -0.443,0.139 -0.61,0.304c-0.172,0.167 -0.367,0.357 -0.748,0.357" fill="#9f9e9e"/><path d="M237.327,170.716c-0.377,0 -0.574,-0.188 -0.747,-0.36c-0.168,-0.163 -0.31,-0.301 -0.61,-0.301c-0.298,0 -0.442,0.138 -0.608,0.3c-0.171,0.173 -0.368,0.36 -0.75,0.36c-0.381,0 -0.575,-0.187 -0.75,-0.36c-0.164,-0.162 -0.311,-0.3 -0.608,-0.3c-0.296,0 -0.438,0.138 -0.606,0.3c-0.171,0.173 -0.37,0.36 -0.75,0.36c-0.379,0 -0.578,-0.187 -0.748,-0.36c-0.169,-0.162 -0.311,-0.3 -0.61,-0.3v-0.198c0.382,0 0.576,0.188 0.752,0.358c0.163,0.162 0.31,0.303 0.607,0.303c0.296,0 0.44,-0.141 0.606,-0.303c0.176,-0.17 0.37,-0.358 0.75,-0.358c0.381,0 0.578,0.188 0.75,0.358c0.167,0.162 0.309,0.303 0.608,0.303c0.298,0 0.443,-0.141 0.609,-0.303c0.175,-0.17 0.37,-0.358 0.749,-0.358c0.38,0 0.576,0.188 0.747,0.358c0.165,0.162 0.31,0.303 0.609,0.303c0.3,0 0.443,-0.141 0.611,-0.303c0.17,-0.17 0.368,-0.358 0.747,-0.358v0.198c-0.299,0 -0.443,0.138 -0.61,0.3c-0.172,0.173 -0.367,0.36 -0.748,0.36" data-paper-data="{&quot;origPos&quot;:null}" fill="#eeeeed"/><path d="M230.387,171.106c0,0 0,0.043 -0.005,0.12c0,0.08 -0.002,0.196 0.005,0.344c0.004,0.075 0.01,0.155 0.021,0.242c0.012,0.087 0.026,0.184 0.057,0.278c0.021,0.045 0.04,0.099 0.078,0.132c0.04,0.033 0.088,0.068 0.133,0.103c0.047,0.035 0.095,0.066 0.147,0.101c0.047,0.03 0.107,0.06 0.159,0.09c0.223,0.117 0.479,0.223 0.756,0.308c0.277,0.087 0.576,0.158 0.886,0.212c0.65424,0.11593 1.31757,0.17282 1.982,0.17c0.676,0 1.356,-0.053 1.98,-0.168c0.312,-0.054 0.61,-0.122 0.888,-0.21c0.277,-0.086 0.536,-0.188 0.759,-0.305c0.15564,-0.08231 0.30299,-0.17942 0.44,-0.29c0.03762,-0.03578 0.06491,-0.08103 0.079,-0.131c0.03257,-0.08915 0.05472,-0.18176 0.066,-0.276c0.00872,-0.08109 0.01439,-0.16248 0.017,-0.244c0.012,-0.144 0.007,-0.262 0.004,-0.34c0,-0.082 -0.002,-0.122 -0.002,-0.122c0,0 0.002,0.04 0.01,0.123c0,0.077 0.004,0.195 0,0.339c0,0.073 -0.008,0.157 -0.015,0.244c-0.00504,0.09766 -0.02321,0.19419 -0.054,0.287c-0.01739,0.05115 -0.04571,0.0979 -0.083,0.137c-0.048,0.038 -0.088,0.073 -0.135,0.108c-0.09795,0.07407 -0.20161,0.14027 -0.31,0.198c-0.451,0.244 -1.025,0.426 -1.655,0.54c-0.628,0.119 -1.309,0.173 -1.989,0.175c-0.66759,0.00095 -1.33393,-0.05795 -1.991,-0.176c-0.30138,-0.05601 -0.59896,-0.13082 -0.891,-0.224c-0.28,-0.09 -0.536,-0.2 -0.761,-0.322c-0.05541,-0.02824 -0.10798,-0.06173 -0.157,-0.1c-0.05337,-0.02773 -0.10394,-0.06055 -0.151,-0.098c-0.043,-0.038 -0.09,-0.07 -0.13,-0.11c-0.03906,-0.04014 -0.06698,-0.08977 -0.081,-0.144c-0.031,-0.097 -0.04,-0.195 -0.053,-0.282c-0.01505,-0.19596 -0.01872,-0.39262 -0.011,-0.589l0.007,-0.12" fill="#9f9e9e"/><path d="M211.477,150.045c-0.17533,-1.15003 -0.26324,-2.31169 -0.263,-3.475c0,-12.765 10.425,-23.118 23.287,-23.118c12.861,0 23.286,10.353 23.286,23.118c0,1.124 -0.08,2.23 -0.237,3.313c1.346,0.729 2.257,2.11 2.257,3.694c0,2.343 -1.992,4.244 -4.45,4.244c-0.168,0 -0.331,-0.009 -0.495,-0.028c-4.13385,7.35755 -11.92168,11.9061 -20.361,11.892c-8.43019,0.01435 -16.21139,-4.5236 -20.35,-11.868c-0.06797,0.00254 -0.13598,0.00387 -0.204,0.004c-2.456,0 -4.447,-1.9 -4.447,-4.244c0,-1.47 0.782,-2.77 1.977,-3.532" data-paper-data="{&quot;origPos&quot;:null}" fill="#9e713e"/><path d="M258.79699,143.557c0.037,2.715 -1.179,6.489 -1.179,6.489c0,0 -6.181,-7.263 -9.955,-9.303c-4.615,-2.49 -6.912,1.179 -11.032,-2.05c-0.685,-0.536 -1.958,-1.952 -1.958,-1.952c0,0 -1.548,1.55 -1.96,1.952c-4.632,4.502 -8.106,-0.755 -12.006,1.968c-4.966,3.456 -9.161,9.221 -9.161,9.221c0,0 -1.444,-1.638 -1.242,-6.579c0.056,-1.423 0.753,-4.583 1.886,-7.793c4.25912,-8.46101 12.93049,-13.79203 22.403,-13.773c11.271,0 20.797,7.398 23.926,17.572c0.16145,1.41032 0.25423,2.82766 0.278,4.247" data-paper-data="{&quot;origPos&quot;:null}" fill="#2c2c2d"/><path d="M211.632,121.913c0,0 24.088,-4.304 45.928,0l1.333,19.548h-48.595z" fill="#bc1718"/><path d="M211.512,123.671c20.738,-2.784 41.27,-0.584 46.17,0.023l1.074,15.713h-48.318l1.074,-15.737" fill="#cb991e"/><path d="M210.875,137.74c1.43629,-1.44879 2.8673,-2.9028 4.293,-4.362c1.441,1.459 2.885,2.93 4.333,4.405c-2.875,-0.015 -5.75,-0.026 -8.626,-0.043M217.28,131.008c1.456,1.47 2.911,2.955 4.369,4.442c1.434,-1.478 2.875,-2.962 4.312,-4.445c-1.45194,-1.4893 -2.90862,-2.97397 -4.37,-4.454c-1.433,1.492 -2.874,2.974 -4.31,4.457M221.649,137.784c-2.20745,-2.2604 -4.42314,-4.51275 -6.647,-6.757c2.198,-2.257 4.395,-4.527 6.59,-6.81c2.219,2.243 4.43,4.504 6.646,6.777c-2.19137,2.26847 -4.38805,4.53181 -6.59,6.79" fill="#8b549c"/><path d="M221.632,133.377l2.307,-2.379c-0.776,-0.793 -1.555,-1.584 -2.333,-2.372c-0.765,0.795 -1.533,1.589 -2.301,2.379c0.775,0.788 1.552,1.579 2.327,2.372M211.466,124.36c2.676,-0.07 5.354,-0.136 8.03,-0.186c-1.44033,1.49556 -2.88367,2.98823 -4.33,4.478c-1.24188,-1.24712 -2.48789,-2.49013 -3.738,-3.729l0.037,-0.563M210.859,133.243c0.699,-0.713 1.4,-1.428 2.1,-2.146c-0.61,-0.612 -1.221,-1.219 -1.828,-1.826l0.145,-2.158c1.323,1.309 2.64,2.633 3.963,3.963c-1.51234,1.55058 -3.02868,3.09725 -4.549,4.64zM258.611,137.309l0.029,0.47c-2.728,-0.012 -5.454,-0.024 -8.182,-0.038c1.42588,-1.45904 2.85589,-2.91405 4.29,-4.365c1.28414,1.31413 2.57181,2.6248 3.863,3.932zM257.949,127.651l0.147,2.155l-1.235,1.24l1.423,1.456l0.165,2.473c-1.2923,-1.31441 -2.5823,-2.63108 -3.87,-3.95c1.128,-1.132 2.247,-2.257 3.371,-3.375zM257.81,125.594c-1.02394,1.01672 -2.04495,2.03639 -3.063,3.059c-1.43299,-1.47611 -2.86299,-2.95511 -4.29,-4.437c2.423,0.025 4.846,0.056 7.266,0.1z" fill="#8b549c"/><path d="M243.861,130.95c1.453,1.504 2.909,3.002 4.364,4.499c1.43367,-1.46856 2.87268,-2.9319 4.317,-4.39c-1.456,-1.5 -2.911,-3 -4.367,-4.507c-1.438,1.46 -2.88,2.928 -4.314,4.398M248.225,137.783c-2.218,-2.27 -4.428,-4.553 -6.646,-6.84c2.197,-2.256 4.4,-4.501 6.596,-6.725c2.20863,2.29188 4.42196,4.57922 6.64,6.862c-2.20607,2.22507 -4.40275,4.45943 -6.59,6.703" fill="#8b549c"/><path d="M248.211,133.377c-0.778,-0.803 -1.553,-1.6 -2.33,-2.403c0.773,-0.783 1.538,-1.567 2.309,-2.348c0.772,0.802 1.55,1.602 2.325,2.4c-0.768,0.781 -1.538,1.565 -2.304,2.35M237.225,137.74c1.431,-1.473 2.858,-2.948 4.29,-4.419c1.446,1.492 2.885,2.98 4.33,4.462c-2.874,-0.015 -5.747,-0.026 -8.62,-0.043M237.225,124.105c1.431,1.48 2.858,2.958 4.29,4.435c1.446,-1.477 2.887,-2.952 4.33,-4.42c-2.8733,-0.01794 -5.74666,-0.02294 -8.62,-0.015M230.628,130.936l4.366,4.5c1.436,-1.485 2.875,-2.968 4.314,-4.448c-1.456,-1.5 -2.909,-3.004 -4.364,-4.506c-1.43991,1.48346 -2.87858,2.96813 -4.316,4.454M234.994,137.784c-2.217,-2.283 -4.428,-4.565 -6.647,-6.84c2.2,-2.271 4.397,-4.544 6.597,-6.81c2.212,2.285 4.428,4.577 6.642,6.859c-2.2,2.259 -4.395,4.525 -6.592,6.79" fill="#8b549c"/><path d="M234.977,133.35c-0.775,-0.8 -1.552,-1.6 -2.325,-2.403c0.768,-0.79 1.533,-1.584 2.304,-2.377l2.328,2.4l-2.307,2.38M223.991,137.74c1.432,-1.468 2.861,-2.94 4.293,-4.419c1.443,1.485 2.887,2.975 4.33,4.462c-2.872,-0.015 -5.745,-0.026 -8.623,-0.043M223.991,124.16c1.43475,1.45632 2.86575,2.91633 4.293,4.38c1.443,-1.49 2.884,-2.984 4.33,-4.476c-2.875,0.02 -5.748,0.05 -8.623,0.096" fill="#8b549c"/><path d="M230.311,145.65c0,0 -0.503,1.803 -2.082,1.446c-0.772,-0.174 -0.908,-1.201 -3.386,-0.74c-0.779,0.18 -2.417,1.156 -2.732,1.808c-0.316,0.652 -0.088,-2.392 2.457,-3.522c1.835,-0.675 2.457,-0.642 3.977,-0.642c1.52,0 1.987,0.907 1.766,1.65M240.052,145.65c0,0 0.503,1.803 2.082,1.446c0.772,-0.174 0.908,-1.201 3.386,-0.74c0.779,0.18 2.417,1.156 2.732,1.808c0.316,0.652 0.087,-2.392 -2.457,-3.522c-1.835,-0.675 -2.457,-0.642 -3.977,-0.642c-1.52,0 -1.987,0.907 -1.766,1.65" data-paper-data="{&quot;origPos&quot;:null}" fill="#2c2c2d"/><path d="M228,153c0,1.657 -0.895,3 -2,3c-1.105,0 -2,-1.343 -2,-3c0,-1.657 0.895,-3 2,-3c1.105,0 2,1.343 2,3M246,153c0,1.657 -0.895,3 -2,3c-1.105,0 -2,-1.343 -2,-3c0,-1.657 0.895,-3 2,-3c1.105,0 2,1.343 2,3" data-paper-data="{&quot;origPos&quot;:null}" fill="#2c2c2d"/><path d="M235.02,154.069c-1.125,0.153 -3.02,1.834 -3.02,1.834c0,0 0.207,-1.009 0.503,-1.299c0.8,-1.156 2.487,-1.604 2.487,-1.604c0,0 2.173,0.703 2.65,1.588c0.443,0.824 0.34,1.238 0.34,1.238c0,0 -2.121,-1.871 -2.96,-1.756z" fill="#eeac6c"/><path d="M228.2,158.696c0,0 6.897,3.208 13.172,-0.397c0,0 -1.39,5.47 -5.95,5.561c-4.115,0.122 -4.984,-1.492 -5.477,-1.956c-0.492,-0.463 -1.42,-1.772 -1.745,-3.208" fill="#eeac6c"/></g></g></svg>