<svg xmlns="http://www.w3.org/2000/svg" width="65.728" height="119.765"><g fill-rule="evenodd" stroke-miterlimit="10" data-paper-data="{&quot;isPaintingLayer&quot;:true}" style="mix-blend-mode:normal"><path fill="#333433" d="M46.781 114.098h-9.319c-.06.264.015.49.195.762.548.844 1.507 1.444 2.331 2.018 1.26.863 2.852 1.333 4.256 2.003 1.264.53 2.93 1.538 4.06.275 1.498-1.798.225-4.008-1.524-5.058zm-11.627 0c.071.264-.014.49-.187.762-.556.844-1.514 1.444-2.332 2.018-1.267.863-2.86 1.333-4.26 2.003-1.269.53-2.93 1.538-4.069.275-1.492-1.798-.219-4.008 1.523-5.058z"/><path fill="#4f4f4f" d="M34.568 88.942h2.08a7.572 7.572 0 0 0 1.114-2.385s.272 1.252 1.118 2.385h10.85l-1.902 25.37h-9.65l-.364-18.393h-.282l-.365 18.392h-9.646l-1.903-25.37h8.95z"/><path fill="#9c7040" d="M58.461 82.526c.24 2.278-.85 4.267-2.436 4.434-1.042.114-2.039-.582-2.672-1.712-.587.485-1.173.68-1.586.455-.783-.405-.69-2.107.205-3.795.348-.647.748-1.19 1.164-1.6.446-.902 1.155-1.524 2.008-1.608 1.59-.166 3.08 1.546 3.316 3.826M11.138 45.404c1.051.2 1.551 2.203 1.108 4.477-.17.867-.456 1.651-.796 2.267-.19 1.203-.796 2.165-1.75 2.57-1.789.76-4.123-.707-5.204-3.267-1.09-2.563-.525-5.248 1.267-6.008 1.168-.49 2.561-.039 3.693 1.047.512-.772 1.117-1.195 1.682-1.086" data-paper-data="{&quot;origPos&quot;:null}"/><path fill="#343434" d="m5.913 55.395 4.631-2.28 5.251 6.295 11.3-4.098s-.006.004-.006.01c1.943-1.289 7.163-1.48 7.163-1.48l1.712.052h.144l1.703-.067s5.12.23 7.118 1.485v-.004s6.242 3.267 7.97 5.477c3.557 4.543 4.915 18.183 4.915 18.183H53.19s-1.253-9.857-2.9-12.187c-.603-.85-.968-1.423-1.193-1.873 2.105 9.7 2.367 22.672 2.367 22.672l.037 1.97H40.717c-3.675-.355-4.547-4.417-4.547-4.417s-.972 3.977-4.22 4.417H20.525l.07-1.918h.004s.294-14.794 2.814-24.6c-1.474.582-8.236 3.133-10.322 2.38-2.899-1.047-7.179-10.017-7.179-10.017z"/><path fill="#fff" d="m35.995 72.934-2.012-4.536L31.53 55.41c1.717-.263 3.234-.314 3.234-.314l1.713.05h.143l1.705-.064s1.366.061 2.962.295l-2.17 13.021-1.874 4.25-.727 1.048z"/><path fill="#e63744" d="M35.471 64.654c.024-1.45 1.038-5.724 1.038-5.724-.453-.372-.845-2.192-.845-2.192l1.912-1.656 2.104 1.656s-.418 1.863-.908 2.192c0 0 .902 4.284.908 5.728.01 1.53-.908 6.022-.908 6.022l-1.196 2.913-1.175-2.78s-.952-4.6-.93-6.159"/><path fill="#fff" d="M37.441 55.198h.081l1.703-.116s1.925.067 3.872.425c.047.653.047 1.345-.115 1.99-.147.512-.398.613-.673.982-.255.366-.123.61-.62.7-.309.056-.567-.062-.789-.255l-.028.053s-3.43-2.56-3.43-3.779"/><path fill="#666767" d="m39.262 55.155-1.703.092h-.053c.06 1.218 3.126 3.512 3.403 3.718l.032-.04.018.025c.242.212.48.295.758.245.316-.057.361-.167.438-.364.027-.092.08-.2.163-.328.085-.112.166-.197.243-.28.177-.184.327-.346.427-.688.138-.553.174-1.196.11-1.97a29.443 29.443 0 0 0-3.836-.41m1.675 3.86-.028.013-.017-.014c-.136-.102-3.45-2.563-3.45-3.832v-.02h.106l1.714-.08c.016 0 1.95.073 3.88.43l.022.007v.02c.063.794.025 1.45-.118 2.018-.097.352-.255.513-.432.704-.079.09-.16.173-.24.28-.09.117-.12.224-.16.32-.07.19-.122.334-.489.395-.053.004-.104.012-.16.012a.942.942 0 0 1-.628-.254"/><path fill="#fff" d="M31.9 57.69c-.232-.62-.506-1.56-.295-2.254a26.656 26.656 0 0 1 3.778-.354l1.712.092h.012c0 1.218-3.439 3.781-3.439 3.781l-.077-.035c-.877 0-1.38-.39-1.692-1.23"/><path fill="#666767" d="M35.424 55.133c-.02.008-1.872.063-3.766.394-.147.52-.055 1.268.308 2.207.303.846.8 1.202 1.66 1.202l.068.01c.21-.162 3.352-2.534 3.407-3.75zm-1.799 3.86c-.877 0-1.409-.376-1.724-1.23-.363-.968-.455-1.735-.298-2.28l.016-.013.016-.004c1.254-.21 2.52-.338 3.79-.384l1.702.065h.027v.023c0 1.267-3.3 3.73-3.44 3.83l-.008.014-.08-.02z"/><path fill="#1d1d1d" d="M37.441 73.51s3.202-13.128 4.16-18.428c1.238.155 2.75.42 3.88.848l-.524 3.236-2.14.54 1.086 2.094s-2.442 9.07-6.462 11.71"/><path fill="#1d1d1d" d="M37.591 73.51c-4.012-2.64-6.458-11.71-6.458-11.71l1.08-2.095-2.128-.539-.526-3.236c1.133-.429 2.633-.693 3.884-.848.954 5.3 4.147 18.427 4.147 18.427m-2.119 1.857a.612.612 0 0 1 .614-.612.616.616 0 0 1 .435 1.047.61.61 0 0 1-.435.18.607.607 0 0 1-.615-.615m.001 3.936A.613.613 0 1 1 36.7 79.3a.613.613 0 0 1-1.229.002m.001 1.966a.614.614 0 0 1 1.227 0 .618.618 0 0 1-.613.613.615.615 0 0 1-.615-.613"/><path fill="#eeeeed" d="m45.324 85.74 2.45-16.888 1.48.211-2.464 16.894z"/><path fill="#0b4768" d="m49.826 68.856-2.452 16.9-.08-.01 2.46-16.894z"/><path fill="#e63744" d="m49.827 68.858-2.46 16.895-.073-.016 2.456-16.885z"/><path fill="#9d9d9d" d="M23.65 80.383c-.013-.045.014-.1.068-.108l6.372-1.586a.103.103 0 0 1 .11.07c.011.046-.02.1-.066.115l-6.377 1.576c-.055.016-.102-.018-.106-.067"/><path fill="#1d1d1d" d="M25.887 79.977c.02.095.126.156.222.13a.178.178 0 0 0 .132-.214l-.266-1.065a.177.177 0 0 0-.217-.133.175.175 0 0 0-.134.22zm1.71-.839a.286.286 0 0 1 .215-.35l.354-.09a.288.288 0 1 1 .135.56l-.353.09a.294.294 0 0 1-.35-.21m-3.944 1.963a.298.298 0 0 1 .211-.348l.357-.088a.29.29 0 0 1 .35.21.3.3 0 0 1-.21.348l-.355.088a.287.287 0 0 1-.353-.21"/><path fill="#343434" d="M27.596 73.151a.3.3 0 0 1 .446-.32c.068.04.115.107.133.183a.297.297 0 1 1-.579.137"/><path fill="#1d1d1d" d="m27.693 73.29-.105-.503.197.216.057.287-.069.05z"/><path fill="#9d9d9d" d="m21.862 75.325-.109-.018-.077-.553.214.478z"/><path fill="#cccbcb" d="m27.602 82.532.422 1.014-.008-8.719-.146-2.04h-.282zm-1.127.837.106 1.103-4.083-7.715-.822-1.873.244-.13z"/><path fill="#1d1d1d" d="M21.686 75.13a.297.297 0 0 1 .215-.367.309.309 0 0 1 .366.212.307.307 0 0 1-.222.364.296.296 0 0 1-.359-.21"/><path fill="#343434" d="m26.878 86.088.325 1.287a.18.18 0 0 0 .213.133h.008a.175.175 0 0 0 .126-.224l-.31-1.29a.794.794 0 0 0 .405-.886l-.477-1.892a.784.784 0 0 0-.956-.569.784.784 0 0 0-.57.955l.465 1.89c.09.351.408.597.77.596m23.795-4.803v2.975c0 1.97-1.6 3.562-3.57 3.562h-.18a3.565 3.565 0 0 1-3.569-3.562v-3.604l7.32.63z"/><path fill="#000001" d="M43.422 80.73v3.57c0 1.95 1.59 3.531 3.537 3.531h.181a3.53 3.53 0 0 0 3.53-3.53v-2.946l-7.248-.627zm3.718 7.17h-.18a3.608 3.608 0 0 1-3.607-3.599v-3.645l.041.008 7.345.635v3.002A3.607 3.607 0 0 1 47.14 87.9z"/><path fill="#343434" d="m23.648 81.286 7.32-.63v3.604a3.567 3.567 0 0 1-3.577 3.562h-.175a3.567 3.567 0 0 1-3.569-3.562v-2.975z"/><path fill="#000001" d="M23.714 81.356v2.945a3.534 3.534 0 0 0 3.531 3.531h.178a3.539 3.539 0 0 0 3.54-3.53v-3.573zm3.71 6.543h-.179a3.604 3.604 0 0 1-3.598-3.598V81.3l.03-.004 7.352-.64v3.646a3.604 3.604 0 0 1-3.606 3.598z"/><path fill="#9e9e9f" d="m10.243 15.738-.437 7.088L.88 18.492 0 16.623z"/><path fill="#d0d0d0" d="M10.646 16.724c.066.754-2.266 1.568-5.204 1.808-2.94.251-5.376-.157-5.44-.909-.062-.757 2.27-1.562 5.214-1.814 2.936-.245 5.361.162 5.43.915"/><path fill="#eeeeed" d="M19.217 82.643c0 .006.008.006.008.006h-.008c.012.735-2.642 2.544-6.065 2.824-3.433.29-6.359-1.046-6.468-1.774v-.02a.252.252 0 0 1 .016-.135c.262-2.097 3.084-25.076 2.36-32.963C8.241 41.618 0 15.738 0 15.738c2.495 1.904 7.847 2.835 11.668.545 0 0-2.075 25.686-1.092 34.172.916 7.89 7.926 29.957 8.598 32.032a.413.413 0 0 1 .043.144v.012"/><path fill="#9c7040" d="M11.616 49.457c-.323 2.172-1.403 3.805-2.416 3.655-.995-.147-1.549-2.028-1.225-4.2.327-2.173 1.4-3.806 2.406-3.657 1.007.144 1.558 2.03 1.235 4.202" data-paper-data="{&quot;origPos&quot;:null}"/><path fill="#0b4768" d="M57.147 91.7c0-.67.315-1.208.7-1.208.394 0 .697.537.697 1.208 0 .665-.303 1.206-.697 1.206-.385 0-.7-.54-.7-1.206m-1.97-10.61a.427.427 0 0 1 .433-.434.436.436 0 0 1 .441.433v4.975a.44.44 0 0 1-.44.432.432.432 0 0 1-.435-.432z"/><path fill="#6a97c0" d="M52.032 89.288a2.725 2.725 0 1 1 5.45-.008l.784 17.551c0 1.505-1.223 2.747-2.723 2.747h-1.57a2.75 2.75 0 0 1-2.738-2.747z"/><path fill="#0b4768" d="M53.91 89.012c0-1.353.851-2.455 2.195-2.455 1.367 0 2.201 1.102 2.201 2.455l.711 15.783c0 1.352-.845 2.47-2.193 2.47h-1.417c-1.36 0-2.2-1.118-2.2-2.47z"/><path fill="#f6a965" d="m63.587 32.8-.528-.579.254-.746 2.4.201z"/><path fill="#be723f" d="m45.83 35.251 18.594-3.768c.337-.067-.056.303.013.646l.012.076c.074.338.582.531.234.598l-18.58 3.762c-.337.076-.676-.154-.75-.498l-.017-.073a.635.635 0 0 1 .494-.744z"/><path fill="#303030" d="M65.12 31.851a.5.5 0 0 1-.082-.376l.69.061-.609.315z"/><path fill="#f39611" d="M46.03 36.092c.045.211.045.43.045.63-.319.041-.658-.173-.725-.498l-.014-.07c-.069-.325.152-.648.455-.744.091.21.194.435.24.682"/><path fill="#9c7040" d="M57.774 33.293c1.135.728 1.873 1.973 1.873 3.38 0 2.242-1.88 4.058-4.22 4.058-.059 0-.13-.008-.197-.008-3.788 6.777-11.028 11.35-19.344 11.35-8.329 0-15.575-4.59-19.365-11.367a5.302 5.302 0 0 1-.468.026c-2.332 0-4.23-1.817-4.23-4.06 0-1.514.87-2.834 2.15-3.53a22.266 22.266 0 0 1-.222-3.17c0-12.21 9.908-22.103 22.135-22.103 12.232 0 22.142 9.893 22.142 22.104 0 1.13-.093 2.24-.254 3.32" data-paper-data="{&quot;origPos&quot;:null}"/><path fill="#f7b90b" d="M23.647 32.974c1.807-1.108 4.467-1.816 4.467-1.816.316-.586.03-1.584-.388-1.643-1.326-.187-4.079 3.46-4.079 3.46m26.28 0c-1.813-1.109-4.467-1.817-4.467-1.817-.318-.586-.036-1.584.386-1.643 1.326-.187 4.081 3.46 4.081 3.46"/><path fill="#1d1d1d" d="M59.906 28.73c.035 2.594-.87 8.21-2.645 11.56 0 0-4.353-12.299-7.939-14.25-4.387-2.38-15.947 1.052-19.86-2.038-.65-.51-.577-1.666-.577-1.666s-.75 1.475-1.116 1.888c-1.898 2.156-6.814 5.276-9.158 6.952-1.875 1.353-1.968 1.338-1.55 9.113 0 0-3.449-7.075-3.26-11.8.052-1.363.716-4.382 1.79-7.452C19.487 13.228 27.564 7.87 36.893 7.87c10.714 0 19.773 7.074 22.756 16.798a45.18 45.18 0 0 1 .257 4.063" data-paper-data="{&quot;origPos&quot;:null}"/><path fill="#9c7040" d="M35.37 56.335c-1.034 0-1.87-2.18-1.87-3.22h7.352c0 1.04-.829 3.22-1.868 3.22H35.37" data-paper-data="{&quot;origPos&quot;:null}"/><path fill="#eeac6c" d="M34.272 55.28c-.415-.635-.705-1.506-.772-2.14 1.163.191 2.365.285 3.585.285 1.278 0 2.532-.11 3.742-.31l-.015.014-6.54 2.151"/><path fill="#6a97c0" d="M46.186 40.31c5.236 0 5.82-4.14 5.82-7.06 0-.698-11.646-.698-11.646 0 0 2.92.993 7.06 5.827 7.06zm-11.722-7.06c0-.698-11.635-.698-11.635 0 0 2.92.587 7.06 5.823 7.06 4.828 0 5.812-4.14 5.812-7.06zm24.597 1.533-5.28-.579c-.327 3.484-1.809 7.36-7.595 7.36-4.894 0-6.804-3.256-7.43-6.486-.858-1.23-1.76-1.194-2.688.073-.643 3.204-2.56 6.413-7.427 6.413-5.778 0-7.272-3.876-7.603-7.36l-5.273.58 5.171-2.533v-.016c0-1.013 15.41-1.013 15.41 0v.07h2.148v-.07c0-1.013 15.36-1.013 15.36 0v.004l5.206 2.544z"/><path fill="#b96316" d="M11.824 26.225s7.894-10.487 23.716-10.487c13.027 0 24.212 10.487 24.212 10.487-6.627 8.081-42.953 8.006-47.928 0"/><path fill="#f08314" d="M11.824 25.883c0-13.252 10.725-23.916 23.958-23.916 13.244 0 23.97 10.664 23.97 23.916z"/><path fill="#b96316" d="M40.362 23.033h-9.215L29.56 1.336c2.506-1.816 10.397-1.747 12.385 0l-1.582 21.697zM17.735 9.128l6.15 13.713-2.93-16.94s-3.017 2.11-3.22 3.227m37.678 0L49.265 22.84 52.2 5.901s3.01 2.11 3.212 3.227"/><path fill="#1d1d1d" d="M30 36c0 1.657-.895 3-2 3s-2-1.343-2-3 .895-3 2-3 2 1.343 2 3m18 0c0 1.657-.895 3-2 3s-2-1.343-2-3 .895-3 2-3 2 1.343 2 3" data-paper-data="{&quot;origPos&quot;:null}"/><path fill="#eeac6c" d="M37.02 39.07c-1.125.152-3.02 1.833-3.02 1.833s.207-1.009.503-1.299C35.303 38.448 36.99 38 36.99 38s2.173.703 2.65 1.588c.443.824.34 1.238.34 1.238s-2.12-1.87-2.96-1.756z"/><path fill="#a5513c" d="M30.2 42.696s6.897 3.208 13.172-.397c0 0-1.39 5.47-5.95 5.561-4.115.122-4.984-1.492-5.477-1.956-.492-.463-1.42-1.772-1.745-3.208" data-paper-data="{&quot;origPos&quot;:null}"/></g></svg>