<svg xmlns="http://www.w3.org/2000/svg" width="67.181" height="116.221"><g fill-rule="evenodd" stroke-miterlimit="10" data-paper-data="{&quot;isPaintingLayer&quot;:true}" style="mix-blend-mode:normal"><path fill="#be9969" d="M23.29 110.714c-1.676 1.1-2.893 3.174-1.456 4.91 1.083 1.22 2.678.26 3.89-.256 1.34-.642 2.87-1.09 4.084-1.926.785-.554 1.702-1.154 2.234-1.979.163-.253.24-.505.18-.75H23.29zm19.45 0c1.677 1.04 2.894 3.174 1.457 4.91-1.08 1.22-2.678.26-3.89-.256-1.34-.642-2.872-1.09-4.082-1.926-.784-.554-1.706-1.154-2.237-1.979-.164-.253-.24-.505-.18-.75h8.932z" data-paper-data="{&quot;origPos&quot;:null}"/><path fill="#b16b1a" d="M32.223 110.714c.058.244-.019.497-.182.75-.328.511-.809.94-1.31 1.32 0 0 .004 0 .004.004-.21.157-.423.307-.63.457 0-.007-.002-.007-.002-.007l-.292.207a9.119 9.119 0 0 1-1.27.718v.002c-.297.143-.602.223-.907.408-.329.122-.659.261-.985.4-.07.028-.145.052-.22.082l-.057.023c-.058.028-.114.051-.17.074-.04.019-.08.036-.12.053-.035.019-.077.036-.117.056a5.771 5.771 0 0 0-.24.11c-.046.019-.09.04-.14.059-.017.008-.032.017-.049.023-.03.015-.062.028-.094.042-.025.007-.046.022-.068.032v.002c-1.157.518-2.558 1.206-3.54.099-.578-.697-.728-1.457-.59-2.185.047-.021.094-.04.142-.059.02 0 .021.006.016.01.88-.499 2.558-.166 3.38.135.552.192 1.15.499 1.524.874.26-.131.541-.272.837-.432-.103-.148-.204-.295-.31-.408-.908-.885-2.256-1.299-3.486-1.326-.272 0-1.085-.015-1.644.06.102-.168.216-.328.34-.48a8.478 8.478 0 0 1 2.27-.204c1.234.03 2.58.887 3.544 1.623.086.068.168.141.245.219.47-.257.945-.528 1.382-.795-2.49-2.457-6.522-1.702-6.522-1.702.11-.122.218-.122.33-.244h5.09c1.282.611 2.073 1.299 2.083 1.308.623-.434 1.061-.83 1.141-1.12.02-.064.034-.129.05-.187h.567M33.807 110.715h.568c.02.058.033.123.052.187.078.29.52.686 1.144 1.12.008-.009.8-.697 2.078-1.308h5.096c.107.06.2.116.34.236 0 0-4.045-.745-6.533 1.712.437.267.91.536 1.38.798.083-.089.17-.163.244-.224.966-.736 2.313-1.593 3.542-1.623a8.727 8.727 0 0 1 2.271.204c.125.154.24.316.343.48-.558-.075-1.374-.06-1.646-.06-1.23.027-2.576.441-3.485 1.326-.109.113-.21.26-.312.408.295.16.58.301.84.432.373-.375.971-.682 1.521-.874.826-.301 2.5-.634 3.38-.135a.961.961 0 0 1 .158.049c.136.728-.009 1.488-.586 2.185-.982 1.107-2.383.419-3.54-.099l-.004-.002c-.023-.01-.046-.025-.067-.032a2.192 2.192 0 0 0-.096-.042.47.47 0 0 1-.046-.023c-.048-.019-.096-.04-.14-.059-.082-.038-.16-.076-.238-.11-.04-.02-.082-.037-.122-.056a2.939 2.939 0 0 1-.119-.053c-.054-.023-.11-.046-.167-.074a1.156 1.156 0 0 0-.06-.023c-.074-.03-.145-.054-.216-.082-.326-.14-.655-.274-.987-.4-.305-.185-.61-.265-.905-.408v-.002a9 9 0 0 1-1.27-.718c-.098-.065-.196-.137-.294-.207 0 0-.005 0-.005.007-.207-.15-.418-.3-.627-.457l.002-.004c-.502-.38-.982-.809-1.31-1.32-.166-.253-.243-.506-.185-.75"/><path fill="#eeeeed" d="M47.368 86.213s-.61 19.861-4.62 24.489c-1.52 1.751-8.28 2.263-8.94.033-1.195-4.044-.658-17.785-.658-17.785h-.268s.302 13.874-.66 17.787c-.554 2.261-7.247 1.53-8.94-.05-4.47-4.177-4.563-24.474-4.563-24.474h17.275z" data-paper-data="{&quot;origPos&quot;:null}"/><path fill="#f3cb66" d="M42.716 100.658c-3.068 3.823-16.073 3.482-19.523.004-2.539-2.556 0-14.448 0-14.448h19.523s2.258 11.636 0 14.444"/><path fill="#f7b90b" d="M65.971 39.192c.458 5.329.368 8.758-19.247 12.676l8.148-23.023-21.838-4.167-21.83 4.167 8.156 23.023C-.259 47.95-.349 44.521.11 39.192 1.141 27.167 6.31 13.87 8.595 10.99 13.076 5.35 26.68 0 33.014 0c6.348-.002 20.014 5.331 24.468 10.99 2.463 3.137 7.456 16.177 8.488 28.202"/><path fill="#0c6084" d="M11.867 27.466v1.255l-.655.124.48 1.367-9.504-2.735c1.158-4.518 2.601-8.652 3.908-11.722zM.167 38.568a69.79 69.79 0 0 1 .807-5.636h11.681l1.995 5.636H.166M18.382 49.1H8.383c-5.296-1.774-7.339-3.554-8.05-5.634h16.054zm45.525-21.684L54.42 30.14l.464-1.295-.865-.166v-1.212l5.898-11.98c1.347 3.088 2.812 7.301 3.99 11.928zm1.22 5.578c.338 1.866.602 3.744.793 5.631H51.407l1.995-5.631h11.725m.597 10.534c-.736 2.08-2.829 3.859-8.206 5.634h-9.84l1.992-5.634z"/><path fill="#be9969" d="M62.835 45.613c1.708.73 2.256 3.332 1.214 5.804-.669 1.589-1.827 2.738-3.023 3.168h.002s-3.19 9.119-5.967 10.129c-2.25.823-10.173-2.419-10.173-2.419s-.642-2.48-.974-3.265c-.454-1.072-2.298-4.02-2.298-4.02l10.85 3.91 5.11-6.044h.002c-.406-1.139-.345-2.64.27-4.103 1.043-2.474 3.277-3.889 4.987-3.16M16.792 60.306c1.658-2.132 7.644-5.296 7.644-5.296s-2.78 5.105-3.285 7.366c-.067.291-.224 1.061-.374 1.461-.178.505-.688 1.135-1.483 2.263-1.578 2.253-3.063 11.785-3.063 11.785.038.063.073.128.105.194.45.456.828.978 1.121 1.547.858 1.632.947 3.276.198 3.674-.399.217-.96.03-1.524-.442-.604 1.091-1.558 1.765-2.553 1.655-1.526-.162-2.576-2.08-2.342-4.284.096-.931.406-1.76.843-2.398-.002.035-.007.057-.007.057s1.307-13.194 4.72-17.582" data-paper-data="{&quot;origPos&quot;:null}"/><path fill="#f7b90b" d="M60.176 57.309c-1.305.583-4.828-1.107-5.127-2.509-.186-.876 2.28-2.756 2.28-2.756l4.44 2.198s.184 2.275-1.593 3.067M12.383 74.583c.855-.741 3.875-.937 4.512 0 1.121 1.644-.524 3.486-.524 3.486h-4.439c.001-.061-1.11-2.136.451-3.486"/><path fill="#eeeeed" d="M51.054 58.122c.77 2.573-1.284 6.16-1.284 6.16l-4.633-1.836c2.417 9.478 2.703 23.767 2.703 23.767H18.26s.235-11.859 2.102-21.144l-.418.584s-4.31 0-5.08-3.057c0 0 2.084-4.674 9.58-7.586l-.004.015c1.844-1.263 6.906-1.448 6.906-1.448l1.633.055h.14l1.633-.085s4.93.234 6.833 1.463l-.008-.021c7.642 2.291 9.478 3.133 9.478 3.133"/><path fill="#f7b90b" d="M18.26 86.213s.027-1.406.131-3.488h29.317c.11 2.082.132 3.488.132 3.488H18.26m27.756-30.62s-12.979 8.258-25.93-.002l9.213-2.202h7.51l9.206 2.204"/><path fill="#0c6084" d="M43.73 55.047s-10.642 6.548-21.55.042l7.12-1.701h7.508l6.92 1.659"/><path fill="#e63744" d="M31.572 53.388c-.425.735-1.842 3.068-2.685 3.335-.922.295-3.776-.275-3.776-1.255 0-.2 3.21-1.53 4.514-2.08zm4.92 0c1.3.55 4.514 1.876 4.514 2.076 0 .974-3.116 1.64-4.04 1.344-.843-.272-2.077-2.685-2.443-3.42zm-1.749 3.392c-.49.69-3.237.701-3.707-.005-.439-.659.711-2.715 1.114-3.387h1.837c.315.672 1.215 2.749.755 3.392"/><path fill="#8c4514" d="M62.212 33.394a3.03 3.03 0 0 0-3.204 2.853c-.104 1.682 2.734 4.832 2.734 4.832s3.2-2.777 3.3-4.455c.103-1.678-1.16-3.124-2.83-3.229m4.68 7.675s.76 1.868-.183 2.979l-3.86-.907-8.307 72.554-2.29-.327 8.21-72.37-3.915.417c-.796-1.222.184-2.976.184-2.976l3.797 1.38c-1.22-1.678-3.025-4.459-2.923-6.102.15-2.477 2.265-4.36 4.722-4.21 2.457.156 4.327 2.28 4.177 4.756-.102 1.665-2.28 4.231-3.694 5.741h.012l.034-.019 4.036-.916"/><path fill="#be9969" d="M56.625 49.904c-.424-2.194.046-4.133 1.056-4.333 1.006-.196 2.168 1.421 2.59 3.621.425 2.194-.046 4.133-1.056 4.326-1.005.2-2.168-1.421-2.59-3.614m-2.642-15.705c1.087.701 1.804 1.903 1.804 3.266 0 2.166-1.815 3.924-4.052 3.924-.065 0-.127-.004-.19-.007-3.626 6.546-10.574 10.969-18.544 10.969-7.979 0-14.929-4.432-18.553-10.99a3.522 3.522 0 0 1-.445.028c-2.242 0-4.055-1.758-4.055-3.924 0-1.463.826-2.737 2.05-3.413-.14-1-.218-2.025-.218-3.067 0-11.798 9.501-21.365 21.221-21.365S54.22 19.187 54.22 30.985c0 1.092-.08 2.164-.236 3.214" data-paper-data="{&quot;origPos&quot;:null}"/><path fill="#2c2c2d" d="M27.95 28.577s-.48 1.695-1.992 1.36c-.738-.164-.868-1.13-3.238-.697-.745.17-2.312 1.087-2.614 1.7-.302.613-.084-2.248 2.35-3.312 1.756-.634 2.351-.603 3.805-.603 1.453 0 1.901.853 1.69 1.552m10.1 0s.48 1.695 1.991 1.36c.738-.164.868-1.13 3.238-.697.745.17 2.312 1.087 2.614 1.7.302.613.084-2.248-2.35-3.312-1.756-.634-2.35-.603-3.805-.603-1.453 0-1.9.853-1.69 1.552M26 36.025c0 1.657-.895 3-2 3s-2-1.343-2-3 .895-3 2-3 2 1.343 2 3m18 0c0 1.657-.895 3-2 3s-2-1.343-2-3 .895-3 2-3 2 1.343 2 3"/><path fill="#683918" d="M30 39.025s.207-1.042.504-1.342c.801-1.195 2.491-1.658 2.491-1.658s2.175.727 2.654 1.641c.443.852.341 1.28.341 1.28s-2.125-1.934-2.965-1.816C31.898 37.288 30 39.025 30 39.025zM26.2 41.721s6.897 3.208 13.172-.397c0 0-1.39 5.47-5.95 5.561-4.115.122-4.984-1.492-5.477-1.956-.492-.463-1.42-1.772-1.745-3.208"/><path fill="#343434" d="M55.063 28.201c.034 2.51-.836 7.941-2.536 11.177 0 0-4.176-11.893-7.613-13.777-4.2-2.303-15.278 1.017-19.032-1.964-.623-.497-.554-1.622-.554-1.622s-.719 1.432-1.062 1.83c-1.823 2.085-6.54 5.104-8.78 6.725-1.802 1.303-1.884 1.286-1.484 8.808 0 0-3.312-6.842-3.128-11.411.05-1.315.686-4.237 1.716-7.202 3.735-7.545 11.473-12.73 20.416-12.73 10.27 0 18.954 6.84 21.804 16.243.144 1.303.228 2.612.253 3.922"/><path fill="#f7b90b" d="M57.483 10.991c2.463 3.135-2.61 17.853-2.61 17.853L33.036 24.68l-21.834 4.164S6.31 13.869 8.595 10.991C13.075 5.349 26.68 0 33.015 0c6.348 0 20.012 5.331 24.468 10.991"/><path fill="#0c6084" d="M36.441.362v24.914h-.23l-3.176-.607-3.175.606h-.11V.345C30.965.122 32.085 0 33.035 0c.982 0 2.128.126 3.405.362zM16.522 5.085a53.417 53.417 0 0 1 6.356-2.804l3.341 23.046-6.622.973zm-.419 22.444-3.425 1.032-1.477.284.055.145-1.562.472L5.81 16.413c1.066-2.589 2.065-4.52 2.785-5.421.537-.677 1.211-1.354 1.986-2.017l5.524 18.554zM49.64 5.125 46.57 26.3l-6.62-.972 3.337-23.017a52.49 52.49 0 0 1 6.353 2.813zm5.191 23.843.041-.122-1.227-.234-3.578-1.082 5.5-18.497c.699.591 1.34 1.247 1.915 1.958.772.983 1.785 2.928 2.852 5.507l-3.858 12.964z"/><path fill="#cb6a22" d="M39.242 8.035c.858 5.035-4.074 5.762-4.604 7.93-.53 2.167-1.202.985-1.202.985l-.422-12.684-.427 12.684s-.67 1.182-1.2-.985c-.53-2.168-5.462-2.895-4.606-7.93.83-4.895 5.938-4.226 6.233-4.18.29-.046 5.4-.715 6.228 4.18"/><path fill="#f28f11" d="M35.973 7.029c.274 1.535-.37 2.858-1.302 3.598-1.046 3.125-.344 7.24.056 11.716.067.722-1.712 2.329-1.712 2.329s-1.784-1.607-1.717-2.329c.395-4.446.93-8.78.004-11.77-.924-.769-1.558-2.104-1.282-3.544.44-2.29 1.332-4.223 2.978-4.223 1.643 0 2.568 1.929 2.975 4.223"/><path fill="#343434" d="M32.433 5.481c0 .12-.214.22-.475.22-.26 0-.47-.1-.47-.22s.21-.217.47-.217c.261 0 .475.097.475.217m2.068 0c0 .12-.21.22-.472.22-.264 0-.47-.1-.47-.22s.206-.217.47-.217c.261 0 .472.097.472.217"/><path fill="#f7b90b" d="M11.123 30.876c-.943-1.282-.226-3.246-.226-3.246 28.355-10.192 44.167.513 44.167.513.483 1.27-.214 2.965-.214 2.965-24.39-10.982-43.727-.233-43.727-.233"/><path fill="#e63744" d="M35.48 24.677c0 2.523-1.086 4.567-2.426 4.567s-2.426-2.044-2.426-4.567c0-2.522 1.085-4.568 2.426-4.568 1.34 0 2.425 2.046 2.425 4.568"/><path fill="#f7b90b" d="M34.79 24.677c0 1.805-.779 3.272-1.736 3.272-.958 0-1.736-1.467-1.736-3.272 0-1.808.778-3.273 1.736-3.273.957 0 1.735 1.465 1.735 3.273"/><path fill="#be9969" d="M31.346 54.977c-.992 0-1.792-2.143-1.792-3.12h7.057c0 .977-.805 3.12-1.795 3.12h-3.47" data-paper-data="{&quot;origPos&quot;:null}"/><path fill="#e2a86e" d="M30.311 54.141a5.243 5.243 0 0 1-.745-2.068c2.33.376 4.704.367 7.03-.027l-.012.015-6.273 2.08"/></g></svg>