<svg xmlns="http://www.w3.org/2000/svg" width="54.912" height="117.221"><g fill-rule="evenodd" stroke-miterlimit="10" data-paper-data="{&quot;isPaintingLayer&quot;:true}" style="mix-blend-mode:normal"><path fill="#823421" d="m47.6 60.12 1.17 15.666-4.545.344-1.238-15.666 4.015-.795z"/><path fill="#f7dcbb" d="M22.77 111.83h-.005l-.422-10.57h9.323v10.57h-.012c.057.24-.018.485-.182.734-.527.806-1.44 1.393-2.218 1.936-1.21.817-2.73 1.259-4.061 1.888-1.206.503-2.793 1.45-3.871.254-1.425-1.7-.215-3.79 1.45-4.811m10.106 0v-10.57h9.3l-.422 10.57h-.006c1.664 1.02 2.875 3.11 1.447 4.81-1.078 1.196-2.665.25-3.871-.253-1.332-.63-2.855-1.07-4.058-1.888-.78-.543-1.694-1.13-2.221-1.936-.162-.25-.24-.493-.183-.733z" data-paper-data="{&quot;origPos&quot;:null}"/><path fill="#5f2517" d="M32.865 111.83h.72c.023.603 1.587 1.805 3.502 2.797.09-.233 1.08-2.44 5.753-1.9.333.372.606.784.78 1.22-1.688-.255-4.991.232-5.272 1.284 2.01.89 4.118 1.459 5.123 1.024-.048.108-.255.362-.273.382-1.08 1.198-2.666.254-3.872-.25-.36-.171-.734-.327-1.112-.481-.112-.047-.228-.093-.342-.14-.91-.367-1.824-.738-2.604-1.268-.78-.544-1.694-1.128-2.22-1.934-.163-.25-.24-.493-.183-.733m-1.212-.01h-.72c-.023.66-1.587 1.808-3.502 2.797-.09-.233-1.081-2.438-5.753-1.897-.33.358-.594.77-.78 1.22 1.688-.254 4.994.233 5.272 1.284-2.011.89-4.118 1.46-5.123 1.025.048.11.255.36.276.383 1.076 1.198 2.663.25 3.869-.25.36-.171.734-.327 1.112-.481.114-.048.228-.093.345-.14.907-.367 1.82-.74 2.6-1.268.78-.544 1.695-1.133 2.22-1.94.166-.248.24-.494.184-.732"/><path fill="#9e3818" d="M46.715 83.529s-.265 16.838-.545 24.622c-10.43 1.035-17.871 1.035-27.82 0-.244-7.424-.544-24.622-.544-24.622z"/><path fill="#f2bc43" d="m20.115 103.059-.58-.897.58-.9.575.9zm0-3.853-.58-.897.58-.901.575.9zm0-3.855-.58-.9.58-.897.575.898zm0-3.854-.58-.896.58-.901.575.9zm0-3.854-.58-.898.58-.9.575.9zm8.078 15.765-.576-.896.576-.901.577.9zm0-3.853-.576-.897.576-.9.577.9zm0-3.854-.576-.897.576-.901.577.9zm0-3.855-.576-.896.576-.9.577.9zm0-3.853-.576-.897.576-.901.577.9zm9.089 15.415-.577-.896.577-.901.58.9zm0-3.853-.577-.897.577-.9.58.9zm0-3.854-.577-.897.577-.901.58.9zm0-3.855-.577-.896.577-.9.58.9zm0-3.853-.577-.897.577-.901.58.9zm8.02 15.066-.58-.897.58-.9.575.9zm0-3.853-.58-.897.58-.901.575.9zm0-3.855-.58-.9.58-.897.575.898zm0-3.854-.58-.896.58-.901.575.9zm0-3.854-.58-.898.58-.9.575.9zM23.88 101.262l-.577-.897.577-.901.576.9zm0-3.854-.577-.897.577-.9.576.9zm0-3.854-.577-.897.577-.901.576.9zm0-3.854-.577-.897.577-.9.576.9zm0-3.854-.577-.897.577-.9.576.9zm8.832 15.765-.58-.897.58-.9.575.9zm0-3.852-.58-.9.58-.898.575.9zm0-3.856-.58-.897.58-.898.575.898zm0-3.854-.58-.897.58-.898.575.898zm0-3.853-.58-.897.58-.9.575.9zm8.613 15.066-.577-.897.577-.901.576.9zm0-3.854-.577-.897.577-.9.576.9zm0-3.854-.577-.897.577-.901.576.9zm0-3.854-.577-.897.577-.9.576.9zm0-3.854-.577-.897.577-.9.576.9z"/><path fill="#772410" d="m42.953 108.506.814-22.871.123.004-.814 22.866z"/><path fill="#f2bc43" d="M18.223 103.707c8.016.815 18.577.815 28.08 0a578.48 578.48 0 0 1-.134 4.565c-10.426 1.037-17.871 1.037-27.816 0-.044-1.248-.085-2.894-.13-4.565"/><path fill="#9e3818" d="M18.245 104.47c13.003 1.15 25.673.193 28.04-.007l-.007.242c-1.555.129-7.242.562-14.515.562-4.147 0-8.807-.141-13.513-.557a6.495 6.495 0 0 1-.005-.24m27.948 3.084-.007.243c-1.124.14-4.008.457-8.015.636-1.65.075-3.618.127-5.82.127-4.037 0-8.87-.184-14.017-.766 0-.08-.005-.158-.005-.24 7.95.899 15.15.847 19.83.639 4.048-.181 6.942-.503 8.034-.64"/><path fill="#c59430" d="M42.95 108.565v-.007l.165-4.61.12-.01-.163 4.618z"/><path fill="#772410" d="m43.08 104.93.009-.24.123-.007-.01.24zm-.111 3.195.007-.24.123-.012-.01.24z"/><path fill="#f7dcbb" d="M1.733 48.103c1.11-.47 2.442-.04 3.522.99.486-.73 1.066-1.136 1.603-1.034 1 .192 1.47 2.094 1.05 4.247-.163.822-.43 1.563-.756 2.154-.042.26-.105.515-.191.763l5.082 5.93 10.784-3.838s-1.833 2.889-2.284 3.944c-.33.767-.967 3.199-.967 3.199s-7.877 3.179-10.112 2.373c-2.76-.994-5.932-9.933-5.932-9.933-1.188-.42-2.342-1.548-3.005-3.103-1.036-2.43-.496-4.98 1.206-5.692M49.323 62.448c3.393 4.302 4.69 17.24 4.69 17.24s0-.021-.004-.057c.435.625.743 1.44.84 2.35.229 2.162-.813 4.046-2.33 4.205-.99.104-1.935-.553-2.54-1.622-.56.46-1.114.64-1.515.433-.744-.392-.655-2.006.2-3.605.326-.606.712-1.127 1.113-1.514.032-.066.068-.13.103-.195 0 0-1.473-9.344-3.046-11.552-.787-1.107-1.34-1.915-1.52-2.407-.143-.396-.26-.962-.323-1.247-.504-2.217-3.27-7.22-3.27-7.22s5.954 3.097 7.602 5.19" data-paper-data="{&quot;origPos&quot;:null}"/><path fill="#f6b90c" d="M3.276 57.018s2.843-2.224 3.928-2.013c.62.122 1.649 1.92 1.649 1.92s-3.215 3.009-4.446 2.62c-.664-.211-1.131-2.527-1.131-2.527"/><path fill="#f9da8e" d="M4.298 56.863c3.317-2.486 3.9-.125 3.9-.125s-.624-1.732-3.9.125"/><path fill="#f6b90c" d="M49.653 79.685c-.42-.366-.267-2.2-.267-2.2s3.692-1.017 4.569-.287c.486.4.294 2.488.294 2.488s-3.736.756-4.596 0"/><path fill="#f9da8e" d="M53.632 79.3c-4.656.803-3.858-1.475-3.858-1.475s-.121 1.86 3.857 1.476"/><path fill="#f6c86d" d="M46.179 67.525c-.284-.636-.574-1.166-.734-1.47a2.872 2.872 0 0 1-.13-.33c1.35 6.688 1.608 15.26 1.646 19.487-1.347.877-6.313 1.228-13.743 1.21 0 0-.967-.988-1.934-2.68-.013.352-.611 1.88-1.951 2.66-6.006-.07-10.536-.343-11.765-1.19.045-4.483.344-13.85 1.924-20.676-.474.21-1.986 1.107-3.86 1.73 0 0-5.104 1.474-6.644.826-1.35-.568-3.381-4.786-3.381-4.786l4.302-3.824 2.187 2.585 2.293-.84 6.266-2.164 2.113-.745c1.884-1.277 7.83-1.5 7.83-1.5l1.626.026h.134l1.614-.025s5.869.215 7.782 1.472l-.005-.01s1.029.513 2.369 1.23c1.824.974 4.506 2.826 5.657 4.38.383.51.71 1.057.976 1.636 0 0 2.298 5.257 2.558 9.084l-4.658.598c-.766-2.783-2.472-6.684-2.472-6.684"/><path fill="#ef8214" d="M6.17 63.397c-.043-.077-.08-.147-.118-.22l4.425-4.023.155.183-4.461 4.059m42.237 9.99c-.025-.076-.048-.153-.073-.233l4.85-.674.03.235-4.807.672"/><path fill="#f7dcbb" d="M35.423 56c.17.022.353.042.545.062l-3.824 2.192-3.358-2.203c.178-.018.342-.034.504-.048-.278-.61-.447-1.295-.447-1.728h7.022c0 .433-.168 1.119-.442 1.726" data-paper-data="{&quot;origPos&quot;:null}"/><path fill="#e2a86e" d="M29.6 56.578a4.99 4.99 0 0 1-.738-2.028c2.315.373 4.676.364 6.99-.025l-.013.01-6.238 2.043"/><path fill="#ef8214" d="M33.279 86.412c-.012.03-.098.02-.121 0-1.158-1.096-1.874-2.67-1.874-2.67V58.066h.12v25.668s.805 1.683 1.875 2.679"/><path fill="#f6c86d" d="M35.288 58.06c-1.323.4-4.17.35-5.53.117-.4-.068-.69-.322-.9-.532-.554-.553 0-3.118 0-3.118 1.126.186 3.233 1.198 3.463 3.464.21-2.278 2.355-3.281 3.49-3.466 0 0 .495 2.513 0 3.12a1.044 1.044 0 0 1-.1.11l-.111.1c-.093.075-.187.168-.313.206"/><path fill="#ef8214" d="M32.26 58c-.243-1.56-1.155-2.405-1.88-2.84a4.438 4.438 0 0 0-1.53-.573l.016-.12c.03.005.766.105 1.573.59.746.445 1.688 1.315 1.94 2.924z"/><path fill="#ef8214" d="m32.379 57.997-.12-.013c.307-2.896 3.508-3.517 3.543-3.521l.02.118c-.032.006-3.144.609-3.443 3.416"/><path fill="#ef8214" d="m28.634 57.022.014.095c.01.06.027.154.07.263a.983.983 0 0 0 .429.507c.078.045.164.088.256.125.37.147.843.21 1.35.246.25.018.512.025.779.032.538.008 1.078.006 1.617-.004.26-.006.52-.017.78-.034a8.45 8.45 0 0 0 .722-.084c.226-.041.44-.095.623-.172.182-.077.337-.181.444-.301a.966.966 0 0 0 .214-.356c.04-.11.06-.201.067-.265.006-.03.009-.054.01-.07l.003-.027v.027l-.004.07c-.01.064-.016.159-.053.272a1.096 1.096 0 0 1-.2.38c-.126.142-.281.255-.454.333-.187.088-.401.15-.634.197-.23.045-.474.08-.73.102-.255.02-.52.034-.788.043-.27.006-.54.011-.81.014-.271 0-.542-.003-.81-.01-.268-.006-.53-.02-.786-.043a7.059 7.059 0 0 1-.732-.097 3.168 3.168 0 0 1-.636-.188 1.57 1.57 0 0 1-.26-.142 1.034 1.034 0 0 1-.42-.546c-.038-.116-.047-.208-.056-.27-.005-.063-.005-.097-.005-.097m4.079 2.238a.413.413 0 1 1-.83 0 .413.413 0 0 1 .83 0m0 6.006a.411.411 0 0 1-.415.409.411.411 0 0 1-.412-.41.414.414 0 1 1 .828 0m-.001 6.127a.413.413 0 1 1-.827 0 .413.413 0 0 1 .827 0m0 5.824c0 .229-.187.41-.415.41a.411.411 0 0 1-.412-.41.414.414 0 1 1 .828 0m-.001 5.826a.413.413 0 1 1-.827 0c0-.228.187-.41.412-.41.228 0 .415.182.415.41"/><path fill="#9e3818" d="M43.652 61.122s-1.93 12.027-1.035 20.692c0 0-4.68 1.399-8.333-.435-.016-7.63 2.06-18.85 2.06-18.85z"/><path fill="#f2bb41" d="M34.768 81.603c.053-5.545 1.77-18.256 1.788-18.387l.299.038c-.02.136-1.754 13.012-1.786 18.467-.1-.038-.201-.075-.301-.118M43.09 61.23c-.171 1.19-1.98 14.24-.855 20.683-.084.022-.184.043-.294.068-1.11-6.34.595-18.987.835-20.692l.314-.06"/><path fill="#9e3818" d="M19.127 65.266c3.714-4.153 14.68-8.688 20.435-9.035 3.473.784 8.186 2.95 8.037 3.89 0 0-22.072 8.964-29.644 14.088-.217-4.495 1.172-8.944 1.172-8.944"/><path fill="#772410" d="M35.968 65.086s.119-.054.326-.154c.208-.095.502-.236.862-.396.358-.163.773-.351 1.222-.55.226-.1.459-.202.69-.306l.717-.313c.238-.104.478-.207.718-.308.24-.1.47-.2.698-.294.45-.192.873-.367 1.238-.516.36-.15.668-.27.878-.356.212-.083.335-.133.335-.133l-.326.154c-.286.134-.573.266-.86.396-.636.292-1.274.578-1.915.856-.237.102-.476.208-.718.312-.24.102-.481.206-.716.308l-.695.297c-.454.19-.876.367-1.238.514-.365.152-.668.27-.883.355z"/><path fill="#f2bb41" d="M40.498 56.467c-.924.186-4.075.872-7.91 2.248-4.013 1.44-9.574 3.942-13.796 7.796l.132-.525c4.216-3.714 9.633-6.143 13.566-7.556a61.246 61.246 0 0 1 7.357-2.133c.217.053.434.11.65.17m-22.56 17.145a14.7 14.7 0 0 1-.004-.362c7.652-5.221 25.794-12.598 29.095-13.923.089.07.174.143.256.222-2.89 1.157-21.708 8.773-29.346 14.063"/><path fill="#80581e" d="M40.226 11.883c0 5.35-3.596 9.686-8.03 9.686-4.437 0-8.033-4.336-8.033-9.686 0-5.348 3.596-9.684 8.033-9.684 4.434 0 8.03 4.336 8.03 9.684" data-paper-data="{&quot;origPos&quot;:null}"/><path fill="#f6b90c" d="M40.226 13.745c0 5.35-3.596 13.95-8.03 13.95-4.437 0-8.033-8.6-8.033-13.95 0-4.09 3.596-5.423 8.033-5.423 4.434 0 8.03 1.392 8.03 5.423"/><path fill="#ef8214" d="M33.722 1.805a.954.954 0 0 1-.233.214c.168.203.239.47.194.73a.92.92 0 0 1 .388-.283.91.91 0 0 1-.053-.525.963.963 0 0 1-.296-.136m-1.464.02a.914.914 0 0 1-.182-.772.928.928 0 0 1 1.436-.562.924.924 0 0 1 .935-.341c.493.1.812.58.716 1.075a.922.922 0 0 1 .107 1.75c.07.172.087.36.048.54a.93.93 0 0 1-1.104.708l-.07-.02a.94.94 0 0 1-.953.37.924.924 0 0 1-.714-1.095l.002-.007a.918.918 0 0 1-.221-1.646"/><path fill="#f7b90b" d="M32.793 1.73a.807.807 0 0 1 1.512-.177.798.798 0 1 1-.094 1.589c-.002.005-.002.007-.002.012a.803.803 0 1 1-1.286-.795.798.798 0 0 1-.13-.63"/><path fill="#ef8214" d="M33.306 2.27a.534.534 0 0 1 .638-.406.536.536 0 0 1 .413.634.536.536 0 0 1-.64.407.534.534 0 0 1-.411-.634m6.292 5.15a.68.68 0 0 1-.158.145c.113.14.16.32.13.498a.644.644 0 0 1 .265-.195.624.624 0 0 1-.037-.355.583.583 0 0 1-.2-.093m-.997.013a.626.626 0 0 1 .625-1.005c.082.016.16.048.23.095a.63.63 0 1 1 1.122.5.628.628 0 0 1 .073 1.193.65.65 0 0 1 .035.37.637.637 0 0 1-.803.469.636.636 0 0 1-1.048-.022.63.63 0 0 1-.088-.474l.003-.002a.627.627 0 0 1-.149-1.124"/><path fill="#f7b90b" d="M38.966 7.37a.546.546 0 0 1 1.028-.122.542.542 0 0 1 .54.659.546.546 0 0 1-.602.425l-.004.007a.543.543 0 0 1-.65.417.544.544 0 0 1-.226-.958c-.086-.12-.123-.274-.086-.428"/><path fill="#ef8214" d="M39.313 7.739a.366.366 0 1 1 .716.152.366.366 0 0 1-.716-.152m-1.777-4.81a1.712 1.712 0 0 1-.404.375 1.6 1.6 0 0 1 .338 1.277c.176-.223.41-.395.675-.498a1.598 1.598 0 0 1-.09-.917 1.542 1.542 0 0 1-.52-.236m-2.55.037a1.582 1.582 0 0 1-.324-1.35 1.622 1.622 0 0 1 2.51-.98c.383-.5 1.02-.733 1.635-.6a1.61 1.61 0 0 1 1.247 1.88 1.607 1.607 0 0 1 .187 3.055c.119.29.152.619.082.947a1.62 1.62 0 0 1-1.926 1.232c-.044-.01-.085-.021-.126-.032a1.627 1.627 0 0 1-2.683-.056 1.61 1.61 0 0 1-.224-1.214l.002-.01a1.609 1.609 0 0 1-1.08-1.867c.09-.415.342-.777.7-1.006"/><path fill="#f7b90b" d="M35.915 2.8a1.407 1.407 0 0 1 2.638-.313 1.395 1.395 0 0 1 1.389 1.69 1.406 1.406 0 0 1-1.55 1.088c0 .007-.003.014-.005.02a1.399 1.399 0 0 1-1.667 1.067 1.393 1.393 0 0 1-.577-2.456 1.383 1.383 0 0 1-.228-1.096"/><path fill="#ef8214" d="M36.81 3.746a.935.935 0 0 1 1.113-.713.929.929 0 0 1 .72 1.108.938.938 0 0 1-1.117.71.928.928 0 0 1-.715-1.105"/><path fill="#f7dcbb" d="M53.122 36.899c1.08.69 1.79 1.866 1.79 3.199 0 2.127-1.804 3.847-4.027 3.847-.064 0-.125-.002-.184-.004a21.123 21.123 0 0 1-18.436 10.757 21.12 21.12 0 0 1-18.447-10.776 4.79 4.79 0 0 1-.45.023c-2.225 0-4.03-1.721-4.03-3.847 0-1.436.824-2.685 2.044-3.346a21.13 21.13 0 0 1-.217-3.005c0-11.57 9.447-20.952 21.1-20.952 11.648 0 21.094 9.382 21.094 20.952 0 1.072-.082 2.124-.237 3.152" data-paper-data="{&quot;origPos&quot;:null}"/><path fill="#80581e" d="M54.193 31.018c.034 2.46-1.072 5.882-1.072 5.882s-5.602-6.586-9.017-8.434c-4.177-2.255-6.261 1.069-9.993-1.857-.62-.486-1.772-1.77-1.772-1.77s-1.404 1.406-1.778 1.77c-4.198 4.078-7.342-.683-10.878 1.782-4.496 3.137-8.3 8.357-8.3 8.357s-1.306-1.483-1.126-5.964c.053-1.288.684-4.152 1.708-7.061a22.683 22.683 0 0 1 20.298-12.48c10.21 0 18.843 6.706 21.68 15.925.142 1.279.225 2.563.25 3.85" data-paper-data="{&quot;origPos&quot;:null}"/><path fill="#634417" d="M27.646 32.21s-.463 1.61-1.916 1.292c-.71-.156-.835-1.074-3.114-.662-.716.16-2.223 1.033-2.513 1.615-.29.583-.08-2.136 2.26-3.146 1.688-.602 2.26-.573 3.658-.573 1.398 0 1.828.81 1.625 1.474m9.71 0s.463 1.61 1.916 1.292c.71-.156.835-1.074 3.114-.662.716.16 2.223 1.033 2.513 1.615.29.583.08-2.136-2.26-3.146-1.688-.602-2.26-.573-3.658-.573-1.398 0-1.828.81-1.625 1.474M25.77 39.286c0 1.574-.862 2.85-1.924 2.85-1.062 0-1.923-1.276-1.923-2.85s.86-2.85 1.923-2.85c1.062 0 1.923 1.276 1.923 2.85m17.308 0c0 1.574-.86 2.85-1.923 2.85-1.063 0-1.923-1.276-1.923-2.85s.86-2.85 1.923-2.85c1.062 0 1.923 1.276 1.923 2.85" data-paper-data="{&quot;origPos&quot;:null}"/><path fill="#e2a86e" d="M29.616 42.136s.2-.99.485-1.275c.77-1.135 2.395-1.575 2.395-1.575s2.092.69 2.552 1.56c.427.808.327 1.215.327 1.215s-2.042-1.837-2.85-1.725c-1.084.15-2.91 1.8-2.91 1.8zM25.963 44.697s6.633 3.049 12.667-.377c0 0-1.338 5.196-5.721 5.283-3.958.116-4.792-1.417-5.268-1.857-.473-.441-1.365-1.684-1.68-3.05"/></g></svg>