<svg version="1.1" xmlns="http://www.w3.org/2000/svg" xmlns:xlink="http://www.w3.org/1999/xlink" width="53.13015" height="116.17321" viewBox="0,0,53.13015,116.17321"><g transform="translate(-213.248,-122.06803)"><g data-paper-data="{&quot;isPaintingLayer&quot;:true}" fill-rule="evenodd" stroke="none" stroke-width="1" stroke-linecap="butt" stroke-linejoin="miter" stroke-miterlimit="10" stroke-dasharray="" stroke-dashoffset="0" style="mix-blend-mode: normal"><path d="M214.574,203.003c0.224,-2.163 1.61,-3.787 3.095,-3.627c0.799,0.085 1.46,0.668 1.87,1.525c0.39,0.387 0.77,0.905 1.09,1.514c0.835,1.6 0.921,3.213 0.193,3.604c-0.39,0.212 -0.932,0.026 -1.482,-0.433c-0.59,1.069 -1.518,1.726 -2.485,1.622c-1.486,-0.158 -2.505,-2.041 -2.281,-4.205M259.666,169.011c0.525,-0.102 1.092,0.304 1.57,1.036c1.055,-1.031 2.356,-1.46 3.446,-0.992c1.667,0.715 2.195,3.263 1.18,5.69c-1.014,2.426 -3.185,3.813 -4.85,3.099c-0.896,-0.385 -1.46,-1.298 -1.637,-2.437c-0.319,-0.59 -0.58,-1.328 -0.739,-2.148c-0.411,-2.152 0.05,-4.053 1.03,-4.248" data-paper-data="{&quot;origPos&quot;:null}" fill="#e7c79f"/><path d="M263.847,178.339l-0.013,0.028c-0.039,0.085 -4.026,8.522 -6.709,9.508c-0.237,0.087 -0.557,0.135 -0.937,0.135c-2.486,0 -7.357,-1.859 -8.657,-2.375c0.00016,0.01007 0.00255,0.01997 0.007,0.029c0.685,2.74 1.26,6.166 1.708,10.154c0.764,6.792 0.892,13.006 0.894,13.069v0.07h-28.849v-0.07c0.002,-0.063 0.129,-6.288 0.894,-13.08c0.347,-3.094 0.769,-5.841 1.262,-8.196c-0.213,0.395 -0.53,0.893 -1.001,1.571c-1.519,2.181 -2.693,11.463 -2.706,11.555l-0.001,0.052l-4.35,0.062h-0.03l0.003,-0.086c0.004,-0.035 0.327,-3.332 1.051,-7.062c0.667,-3.446 1.828,-8.018 3.543,-10.243c1.46,-1.89 6.403,-4.616 7.312,-5.11c1.732,-1.268 6.571,-1.48 6.789,-1.488l1.593,0.083h0.13l1.59,-0.075c0.217,0.009 4.921,0.173 6.715,1.388l10.496,3.87l4.898,-5.97z" fill="#eeeeed"/><path d="M256.107,157.908c1.055,0.691 1.751,1.866 1.751,3.202c0,2.126 -1.766,3.848 -3.944,3.848c-0.06,0 -0.121,-0.003 -0.181,-0.005c-3.53,6.416 -10.289,10.756 -18.045,10.756c-7.767,0 -14.532,-4.348 -18.057,-10.778c-0.145,0.017 -0.291,0.027 -0.44,0.027c-2.177,0 -3.943,-1.722 -3.943,-3.848c0,-1.434 0.805,-2.688 1.998,-3.348c-0.138,-0.981 -0.208,-1.985 -0.208,-3.005c0,-11.571 9.244,-20.951 20.65,-20.951c11.403,0 20.649,9.381 20.649,20.952c0.00117,1.05424 -0.0757,2.10711 -0.23,3.15" data-paper-data="{&quot;origPos&quot;:null}" fill="#e7c79f"/><path d="M229.229,154.096c-0.772,-0.174 -0.908,-1.201 -3.386,-0.74c-0.779,0.18 -2.417,1.156 -2.732,1.808c-0.316,0.652 -0.088,-2.392 2.457,-3.522c1.835,-0.675 2.457,-0.642 3.977,-0.642c1.52,0 1.987,0.907 1.766,1.65c0,0 -0.503,1.803 -2.082,1.446zM243.134,154.096c0.772,-0.174 0.908,-1.201 3.386,-0.74c0.779,0.18 2.417,1.156 2.732,1.808c0.316,0.652 0.087,-2.392 -2.457,-3.522c-1.835,-0.675 -2.457,-0.642 -3.977,-0.642c-1.52,0 -1.987,0.907 -1.766,1.65c0,0 0.503,1.803 2.082,1.446z" data-paper-data="{&quot;origPos&quot;:null}" fill="#855c20"/><path d="M229,160c0,1.657 -0.895,3 -2,3c-1.105,0 -2,-1.343 -2,-3c0,-1.657 0.895,-3 2,-3c1.105,0 2,1.343 2,3M247,160c0,1.657 -0.895,3 -2,3c-1.105,0 -2,-1.343 -2,-3c0,-1.657 0.895,-3 2,-3c1.105,0 2,1.343 2,3" data-paper-data="{&quot;origPos&quot;:null}" fill="#6d4b19"/><path d="M236.02,163.069c-1.125,0.153 -3.02,1.834 -3.02,1.834c0,0 0.207,-1.009 0.503,-1.299c0.8,-1.156 2.487,-1.604 2.487,-1.604c0,0 2.173,0.703 2.65,1.588c0.443,0.824 0.34,1.238 0.34,1.238c0,0 -2.121,-1.871 -2.96,-1.756z" fill="#eeac6c"/><path d="M229.2,166.696c0,0 6.897,3.208 13.172,-0.397c0,0 -1.39,5.47 -5.95,5.561c-4.115,0.122 -4.984,-1.492 -5.477,-1.956c-0.492,-0.463 -1.42,-1.772 -1.745,-3.208" fill="#eeac6c"/><path d="M257.155,152.027c0.031,2.461 -0.817,7.786 -2.469,10.959c0,0 -4.062,-11.663 -7.407,-13.509c-4.09,-2.257 -14.87,0.996 -18.525,-1.93c-0.607,-0.485 -0.539,-1.586 -0.539,-1.586c0,0 -0.7,1.401 -1.038,1.792c-1.77,2.045 -6.362,5.006 -8.54,6.595c-1.753,1.276 -1.833,1.263 -1.447,8.638c0,0 -3.22,-6.711 -3.043,-11.188c0.053,-1.292 0.667,-4.155 1.673,-7.065c3.634,-7.399 11.163,-12.482 19.867,-12.482c9.996,0 18.448,6.706 21.22,15.926c0.14208,1.27881 0.22483,2.56353 0.248,3.85" data-paper-data="{&quot;origPos&quot;:null}" fill="#855c20"/><path d="M234.074,178.266c-0.965,0 -1.747,-2.101 -1.747,-3.061h6.867c0,0.959 -0.78,3.061 -1.747,3.061h-3.373" data-paper-data="{&quot;origPos&quot;:null}" fill="#e7c79f"/><path d="M233.065,177.464c-0.39,-0.597 -0.659,-1.428 -0.722,-2.028c1.088,0.179 2.203,0.273 3.345,0.273c1.1706,-0.00103 2.33904,-0.10038 3.493,-0.297l-0.01,0.009l-6.106,2.043" fill="#eeac6c"/><path d="M246.919,208.838l-1.001,13.452h-9.985l-0.132,-6.847h-0.258l-0.135,6.847h-9.99l-0.993,-13.452h14.148z" fill="#814915"/><path d="M227.503,222.29h-1.54l-1.008,-13.452h1.54zM243.842,222.29h1.538l1.006,-13.452h-1.538z" fill="#ac6b32"/><path d="M226.384,232.86c-1.63,1.022 -2.815,3.103 -1.417,4.8c1.053,1.2 2.608,0.25 3.789,-0.255c1.303,-0.63 2.791,-1.073 3.971,-1.893c0.765,-0.541 1.66,-1.12 2.174,-1.925c0.159,-0.251 0.234,-0.487 0.178,-0.727zM244.961,232.86c1.63,1.022 2.815,3.103 1.42,4.8c-1.058,1.2 -2.609,0.25 -3.791,-0.255c-1.303,-0.63 -2.792,-1.073 -3.974,-1.893c-0.763,-0.541 -1.659,-1.12 -2.173,-1.925c-0.158,-0.251 -0.233,-0.487 -0.177,-0.727z" fill="#814915"/><path d="M235.084,232.86h-8.706l-0.414,-10.57h9.12zM244.965,232.86h-8.697v-10.57h9.111z" data-paper-data="{&quot;origPos&quot;:null}" fill="#e7c79f"/><path d="M235.084,232.921h-8.648l-0.413,-6.367h9.06z" fill="#ffffff"/><path d="M226.05,226.554h9.033v1.263h-8.941z" data-paper-data="{&quot;origPos&quot;:null}" fill="#c6c4c4"/><path d="M236.21,226.554h9.142l-0.415,6.367h-8.727z" fill="#ffffff"/><path d="M245.233,227.817h-8.965v-1.263h9.055z" fill="#c6c4c4"/><path d="M240.532,177.204c0.766,0.126 1.598,0.297 2.306,0.528v31.107h-2.306v-11.953h-9.71v11.953h-2.307v-31.058c0.651,-0.245 1.477,-0.424 2.307,-0.558v12.875h9.71v-12.894" fill="#814915"/><path d="M236.058,193.473c0,0.297 -0.24,0.54 -0.535,0.54c-0.14216,-0.00106 -0.27807,-0.05854 -0.37784,-0.15981c-0.09977,-0.10127 -0.15522,-0.23803 -0.15416,-0.38019c0,-0.3 0.237,-0.542 0.532,-0.542c0.296,0 0.535,0.243 0.535,0.542M235.807,191.542c0,0.688 -0.133,1.247 -0.295,1.247c-0.161,0 -0.29,-0.559 -0.29,-1.247c0,-0.686 0.129,-1.246 0.29,-1.246c0.162,0 0.295,0.56 0.295,1.246M235.807,195.447c0,0.686 -0.133,1.245 -0.295,1.245c-0.161,0 -0.29,-0.559 -0.29,-1.245c0,-0.688 0.129,-1.248 0.29,-1.248c0.162,0 0.295,0.56 0.295,1.248M237.438,193.793c-0.677,0 -1.228,-0.135 -1.228,-0.3c0,-0.163 0.551,-0.296 1.228,-0.296c0.676,0 1.227,0.133 1.227,0.297c0,0.164 -0.551,0.3 -1.227,0.3M233.59,193.793c-0.678,0 -1.23,-0.135 -1.23,-0.3c0,-0.163 0.552,-0.296 1.23,-0.296c0.677,0 1.226,0.133 1.226,0.297c0,0.164 -0.55,0.3 -1.226,0.3M237.082,192.325c-0.48,0.487 -0.963,0.787 -1.077,0.673c-0.116,-0.118 0.181,-0.608 0.661,-1.093c0.478,-0.49 0.96,-0.789 1.077,-0.673c0.114,0.118 -0.18,0.606 -0.661,1.093M234.36,195.084c-0.48,0.49 -0.96,0.789 -1.077,0.673c-0.114,-0.116 0.181,-0.607 0.662,-1.09c0.48,-0.49 0.962,-0.791 1.079,-0.673c0.112,0.116 -0.181,0.603 -0.664,1.09M234.36,191.904c0.483,0.488 0.776,0.975 0.664,1.093c-0.117,0.116 -0.599,-0.186 -1.08,-0.673c-0.48,-0.485 -0.775,-0.975 -0.66,-1.093c0.116,-0.113 0.596,0.184 1.076,0.673M237.082,194.666c0.48,0.485 0.775,0.974 0.661,1.09c-0.116,0.118 -0.599,-0.183 -1.077,-0.673c-0.48,-0.485 -0.777,-0.974 -0.661,-1.09c0.114,-0.116 0.597,0.183 1.077,0.673" fill="#ac6b32"/><path d="M235.322,143.231v-0.002v0.002v-0.004l-15.7,-5.214c0,0 10.649,-17.777 15.716,-15.79c5.067,-1.987 15.67,15.79 15.67,15.79l-15.686,5.214z" fill="#2da840"/><path d="M217.344,132.252c0,-3.32 1.189,-6.265 3.028,-8.125c1.839,1.86 3.029,4.805 3.029,8.125c0,3.317 -1.189,6.264 -3.029,8.124c-1.839,-1.86 -3.028,-4.807 -3.028,-8.124" fill="#e63744"/><path d="M256.497,138.384c1.216,0.711 -0.01,2.555 -0.01,2.555l-21.172,4.582l-21.164,-4.582c0,0 -1.227,-1.845 -0.01,-2.555c4.705,-2.74 21.175,4.847 21.175,4.847c0,0 16.472,-7.587 21.18,-4.847" fill="#228e37"/></g></g></svg>