<svg version="1.1" xmlns="http://www.w3.org/2000/svg" xmlns:xlink="http://www.w3.org/1999/xlink" width="77.53922" height="118.62069" viewBox="0,0,77.53922,118.62069"><g transform="translate(-202.0452,-121.2242)"><g data-paper-data="{&quot;isPaintingLayer&quot;:true}" fill-rule="evenodd" stroke-linecap="butt" stroke-linejoin="miter" stroke-miterlimit="10" stroke-dasharray="" stroke-dashoffset="0" style="mix-blend-mode: normal"><path d="M231.386,156.826c0.00221,-0.66235 0.54065,-1.19766 1.203,-1.196c0.668,0 1.214,0.538 1.214,1.196c0,0.656 -0.546,1.184 -1.214,1.184c-0.31681,0.00347 -0.62193,-0.11955 -0.84775,-0.3418c-0.22582,-0.22224 -0.35367,-0.52537 -0.35525,-0.8422M253.048,154.726c-0.66517,0.00334 -1.20831,-0.53087 -1.216,-1.196c0,-0.655 0.548,-1.183 1.216,-1.183c0.31647,-0.0032 0.62118,0.1198 0.84674,0.3418c0.22556,0.222 0.35341,0.52471 0.35525,0.84119c-0.00221,0.66196 -0.54003,1.1971 -1.202,1.196" fill="#fefefe" stroke="none" stroke-width="1"/><path d="M232.218,154.35c1.695,0 3.073,1.356 3.073,3.026c0,1.668 -1.378,3.013 -3.073,3.013c-1.697,0 -3.063,-1.345 -3.063,-3.013c0,-1.67 1.366,-3.026 3.063,-3.026M232.589,158.01c0.668,0 1.214,-0.528 1.214,-1.184c0,-0.658 -0.546,-1.196 -1.214,-1.196c-0.66235,-0.00166 -1.20079,0.53365 -1.203,1.196c0.00158,0.31683 0.12944,0.61996 0.35525,0.8422c0.22582,0.22224 0.53093,0.34526 0.84775,0.3418M251.832,153.53c0.00714,0.66553 0.55044,1.20034 1.216,1.197c0.66235,0.0011 1.20034,-0.53465 1.202,-1.197c-0.00185,-0.31649 -0.12969,-0.61919 -0.35525,-0.84119c-0.22556,-0.222 -0.53027,-0.345 -0.84674,-0.3418c-0.668,0 -1.216,0.527 -1.216,1.183M249.601,154.08c0,-1.669 1.378,-3.026 3.075,-3.026c1.695,0 3.063,1.357 3.063,3.026c0,1.669 -1.368,3.015 -3.063,3.015c-1.697,0 -3.075,-1.345 -3.075,-3.015" fill="#3f3a3a" stroke="none" stroke-width="1"/><path d="M226.89,168.811c1.466,1.928 2.57,4.78 2.911,8.97v0.022c-2.44,0.237 -5.35,0 -8.83,-1.574c-0.67744,-0.33534 -1.30044,-0.7709 -1.848,-1.292c-2.691,-2.52 -3.303,-6.718 -3.348,-9.69c0.317,-0.086 7.067,-1.82 11.115,3.564M257.521,164.341c2.1,-3.898 5.47,-5.587 5.47,-5.587c1.159,3.907 1.412,8.033 -0.186,10.52c-1.575,2.466 -3.664,3.521 -5.36,3.951c-0.46297,0.12421 -0.93515,0.21116 -1.412,0.26l-0.011,-0.097c-0.514,-3.813 0.286,-6.796 1.499,-9.047" data-paper-data="{&quot;origPos&quot;:null}" fill="#9e723f" stroke="#9e723f" stroke-width="0.5"/><path d="M226.31,233.105c3.216,1.517 7.396,0 7.396,0c0,0 3.489,2.885 2.515,5.222c-0.983,2.327 -6.422,1.917 -9.352,-0.83c-2.922,-2.745 -0.559,-4.39 -0.559,-4.39" fill="#877359" stroke="none" stroke-width="1"/><path d="M249.185,228.164c3.348,0.549 6.422,-0.678 6.422,-0.678c0,0 4.037,2.056 3.764,3.972c-0.286,1.928 -4.606,1.788 -7.112,1.648c-2.515,-0.129 -4.332,-1.367 -3.074,-4.942" fill="#877359" stroke="none" stroke-width="1"/><path d="M251.176,215.833c3.196,-0.129 6.072,-0.676 8.61,-1.496c-0.11,0.539 -1.499,7.732 -4.18,13.149c0,0 -3.073,1.228 -6.42,0.678l-2.233,-6.591l-7.11,1.787c0,0 -3.491,7.14 -6.138,9.746c0,0 -4.179,1.517 -7.395,0c0,0 -9.77,-12.825 -8.545,-25.412c0.055,0.097 0.11,0.194 0.175,0.29c0,0 11.444,11.124 31.53,8.098v-0.204c0.56898,0.0018 1.1379,-0.0132 1.706,-0.045" fill="#628baa" stroke="none" stroke-width="1"/><path d="M249.469,215.877v0.205c-20.086,3.025 -31.53,-8.098 -31.53,-8.098c-0.066,-0.096 -0.119,-0.193 -0.174,-0.29c-0.963,-1.724 0.043,-3.694 0.043,-3.694c12.187,8.744 22.974,11.833 31.662,11.877z" fill="#626c82" stroke="none" stroke-width="1"/><path d="M253.649,206.617c0.60668,0 1.0985,0.49182 1.0985,1.0985c0,0.60668 -0.49182,1.0985 -1.0985,1.0985c-0.612,0 -1.117,-0.495 -1.117,-1.099c0,-0.613 0.505,-1.098 1.117,-1.098M256.023,193.985c0.611,0 1.116,0.486 1.116,1.099c0,0.603 -0.505,1.098 -1.116,1.098c-0.612,0 -1.117,-0.495 -1.117,-1.098c0,-0.613 0.505,-1.099 1.117,-1.099M250.159,183.553c0.623,0 1.116,0.483 1.116,1.097c0,0.604 -0.493,1.097 -1.116,1.097c-0.61033,0.00334 -1.10886,-0.4867 -1.116,-1.097c0,-0.614 0.503,-1.097 1.116,-1.097M246.953,177.231l-4.036,5.083l-6.564,-3.845l0.011,-0.063c2.701,0.259 6.399,0.139 10.567,-1.218zM252.391,178.75l-5.438,-1.519l-0.022,-0.043v-0.01c2.386,-0.764 4.913,-1.939 7.505,-3.694z" fill="#ced2a6" stroke="none" stroke-width="1"/><path d="M265.78,176.413c0,0 -1.716,3.725 -0.47,6.977c-2.845,-3.305 -6.727,-7.289 -10.875,-9.906c0,0 0.635,0.086 1.598,0c0.4769,-0.04745 0.94913,-0.13374 1.412,-0.258c0.864,0.603 4.988,3.316 8.335,3.187" fill="#868d69" stroke="none" stroke-width="1"/><path d="M246.953,177.231l5.437,1.518l2.046,-5.265c4.147,2.616 8.031,6.601 10.875,9.906c2.758,3.221 4.518,5.794 4.518,5.794c0,0 4.879,7.269 2.089,15.504c-1.137,3.383 -5.426,7.464 -12.132,9.65c-2.538,0.818 -5.415,1.365 -8.61,1.495c1.236,-0.795 8.632,-6.06 8.895,-16.495c0.274,-11.393 -13.118,-22.108 -13.118,-22.108z" fill="#9ba37a" stroke="none" stroke-width="1"/><path d="M250.159,183.553c-0.613,0 -1.116,0.483 -1.116,1.097c0.00714,0.6103 0.50567,1.10034 1.116,1.097c0.623,0 1.116,-0.493 1.116,-1.097c0,-0.614 -0.493,-1.097 -1.116,-1.097M254.765,207.715c-0.00024,-0.29453 -0.11857,-0.57667 -0.32852,-0.78324c-0.20995,-0.20657 -0.49398,-0.32031 -0.78848,-0.31576c-0.612,0 -1.115,0.485 -1.115,1.099c0.00659,0.61062 0.50435,1.10169 1.115,1.1c0.624,0 1.117,-0.497 1.117,-1.1M260.07,199.338c-0.262,10.435 -7.658,15.699 -8.895,16.495c-0.557,0.034 -1.125,0.044 -1.705,0.044c-8.687,-0.044 -19.474,-3.133 -31.66,-11.877l0.24,-2.015c1.839,1.326 4.365,2.48 7.845,3.253c0.699,3.705 6.836,4.125 8.511,1.506c1.673,-2.605 -0.7,-5.35 -0.7,-5.35c0,0 2.373,-0.677 1.673,-2.336c-0.699,-1.636 -4.605,0.548 -4.605,0.548c-6.27,-2.465 -3.623,-6.578 -3.623,-6.578l-13.52,-1.981l-0.57,-0.086c0.701,-10.435 7.91,-14.732 7.91,-14.732c3.479,1.574 6.389,1.811 8.829,1.574c0.688,-0.066 1.345,-0.163 1.957,-0.292c0,0 1.74,0.646 4.607,0.894l-0.012,0.064l6.564,3.845l4.038,-5.083c0,0 13.39,10.713 13.116,22.107M256.022,193.986c-0.611,0 -1.115,0.486 -1.115,1.098c0.00768,0.60968 0.50528,1.09924 1.115,1.097c0.612,0 1.117,-0.494 1.117,-1.097c0,-0.612 -0.505,-1.098 -1.117,-1.098" fill="#9ba37a" stroke="none" stroke-width="1"/><path d="M218.05,201.986c-6.258,-4.478 -4.43,-10.886 -4.43,-10.886l0.01,-0.054l13.522,1.982c0,0 -2.647,4.112 3.621,6.579c0,0 3.907,-2.186 4.605,-0.55c0.701,1.66 -1.673,2.338 -1.673,2.338c0,0 2.374,2.744 0.7,5.35c-1.674,2.618 -7.811,2.198 -8.51,-1.507c-3.479,-0.774 -6.007,-1.926 -7.845,-3.252M265.781,176.413c3.774,-0.141 5.306,-2.476 5.021,-5.352c0,0 -4.463,-1.788 -3.347,-4.124c0.427,-1.239 2.373,-0.549 2.373,-0.549c0,0 -0.415,-4.533 4.88,-4.533c5.305,0 6.422,6.46 2.658,10.165c0,0 3.764,15.096 -7.538,17.164c0,0 -1.761,-2.574 -4.518,-5.794c-1.246,-3.252 0.47,-6.977 0.47,-6.977" data-paper-data="{&quot;origPos&quot;:null}" fill="#9e723f" stroke="none" stroke-width="1"/><path d="M253.506,148.405c0.93,0 1.302,-0.366 1.302,-1.001c0,-0.647 -0.832,-1.013 -3.162,-0.829c-2.319,0.183 -3.719,1.098 -4.55,2.013c-0.832,0.916 0,1.465 1.488,0.734c1.488,-0.734 4.922,-0.917 4.922,-0.917M252.675,151.054c-1.695,0 -3.075,1.357 -3.075,3.027c0,1.669 1.38,3.013 3.075,3.013c1.696,0 3.064,-1.344 3.064,-3.013c0,-1.67 -1.368,-3.027 -3.063,-3.027M256.942,161.24c-2.888,3.533 -6.783,0.797 -7.615,-0.203c-2.134,-2.379 -5.294,-0.635 -5.294,-0.635c-4.464,-2.113 -6.236,3.295 -9.114,4.295c-2.888,1.002 -7.252,-0.28 -7.252,-0.28c0,0 0.437,2.326 2.023,4.222l-2.8,0.172c-4.049,-5.384 -10.798,-3.65 -11.115,-3.564c-0.044,-2.025 0.176,-3.479 0.176,-3.479c-5.208,-1.281 -5.766,-5.858 -4.465,-8.055c1.302,-2.195 5.393,-1.28 5.393,-1.28l0.93,3.294c2.232,4.944 3.533,-0.55 3.533,-0.55l1.303,-6.04c6.881,-1.28 7.253,-7.688 7.253,-7.688c8.369,2.013 13.204,-3.66 13.204,-3.66c3.523,5.491 12.45,4.942 12.45,4.942c1.674,2.379 2.231,6.773 2.231,6.773c0.51837,0.45548 0.99095,0.96054 1.411,1.508c1.523,1.948 2.922,4.782 3.798,7.743c0,0 -3.37,1.688 -5.471,5.587l-1.597,-0.484c0.69,-1.294 0.985,-2.455 1.018,-2.618M234.362,151.592c1.64,0.237 2.264,-0.548 1.17,-1.15c-1.083,-0.615 -2.703,-1.046 -4.967,-0.498c-2.264,0.539 -2.942,1.154 -2.735,1.757c0.208,0.613 0.679,0.838 1.554,0.56c0,0 3.326,-0.905 4.978,-0.668M232.217,154.35c-1.695,0 -3.062,1.356 -3.062,3.026c0,1.668 1.367,3.013 3.062,3.013c1.695,0 3.075,-1.345 3.075,-3.013c0,-1.67 -1.379,-3.026 -3.075,-3.026" fill="#ece0ac" stroke="none" stroke-width="1"/><path d="M235.292,171.007c6.323,-0.365 8.642,-6.126 8.642,-6.126c6.958,5.427 10.448,1.873 11.99,-1.023c0.69,-1.294 0.985,-2.455 1.018,-2.618c-2.889,3.533 -6.783,0.797 -7.614,-0.203c-2.134,-2.38 -5.295,-0.635 -5.295,-0.635c-4.465,-2.113 -6.237,3.295 -9.114,4.295c-2.887,1.002 -7.253,-0.28 -7.253,-0.28c0,0 0.439,2.326 2.024,4.222c1.16,1.377 2.933,2.518 5.602,2.368M252.676,151.054c-1.696,0 -3.075,1.357 -3.075,3.027c0,1.669 1.379,3.013 3.075,3.013c1.695,0 3.063,-1.344 3.063,-3.013c0,-1.67 -1.368,-3.027 -3.063,-3.027M251.646,146.574c-2.318,0.183 -3.72,1.099 -4.55,2.014c-0.832,0.916 0,1.465 1.488,0.734c1.488,-0.734 4.922,-0.917 4.922,-0.917c0.93,0 1.303,-0.366 1.303,-1.001c0,-0.647 -0.832,-1.013 -3.163,-0.83M229.154,157.377c0,1.668 1.368,3.013 3.064,3.013c1.695,0 3.074,-1.345 3.074,-3.013c0,-1.67 -1.379,-3.026 -3.074,-3.026c-1.696,0 -3.064,1.356 -3.064,3.026M235.532,150.443c-1.082,-0.615 -2.703,-1.046 -4.966,-0.498c-2.265,0.54 -2.943,1.154 -2.737,1.756c0.209,0.614 0.68,0.84 1.554,0.561c0,0 3.326,-0.905 4.979,-0.668c1.64,0.236 2.264,-0.549 1.17,-1.151M211.487,153.714c1.302,-2.196 5.393,-1.28 5.393,-1.28l0.929,3.293c2.231,4.945 3.534,-0.548 3.534,-0.548l1.303,-6.04c6.881,-1.281 7.252,-7.69 7.252,-7.69c8.369,2.014 13.205,-3.66 13.205,-3.66c3.522,5.492 12.45,4.943 12.45,4.943c1.673,2.38 2.23,6.773 2.23,6.773c0.471,0.41 0.953,0.916 1.412,1.508c1.521,1.948 2.922,4.782 3.797,7.743c0,0 -3.37,1.688 -5.47,5.587c-1.214,2.25 -2.014,5.233 -1.5,9.045l0.012,0.097c-0.963,0.086 -1.598,0 -1.598,0c-2.592,1.755 -5.119,2.929 -7.505,3.693v0.011c-4.168,1.357 -7.865,1.477 -10.568,1.217c-2.865,-0.248 -4.606,-0.894 -4.606,-0.894c-0.611,0.129 -1.268,0.227 -1.957,0.292v-0.022c-0.34,-4.19 -1.444,-7.042 -2.91,-8.97c-4.048,-5.384 -10.798,-3.65 -11.115,-3.564c-0.044,-2.025 0.175,-3.479 0.175,-3.479c-5.207,-1.28 -5.766,-5.858 -4.463,-8.055" data-paper-data="{&quot;origPos&quot;:null}" fill="#9e723f" stroke="#9e723f" stroke-width="0.5"/><path d="M255.924,163.858c-1.543,2.896 -5.032,6.449 -11.99,1.022c0,0 -2.319,5.761 -8.642,6.126c-2.671,0.151 -4.442,-0.99 -5.601,-2.367c-1.587,-1.896 -2.025,-4.222 -2.025,-4.222c0,0 4.366,1.281 7.253,0.28c2.878,-1 4.65,-6.407 9.114,-4.295c0,0 3.16,-1.745 5.294,0.635c0.833,1.001 4.727,3.737 7.615,0.204c-0.033,0.162 -0.328,1.324 -1.018,2.617M248.584,149.322c-1.488,0.731 -2.319,0.182 -1.488,-0.734c0.831,-0.914 2.231,-1.832 4.551,-2.014c2.33,-0.182 3.161,0.182 3.161,0.831c0,0.633 -0.372,1 -1.302,1c0,0 -3.434,0.183 -4.922,0.917M229.384,152.261c-0.875,0.279 -1.346,0.052 -1.554,-0.56c-0.207,-0.604 0.471,-1.217 2.735,-1.756c2.264,-0.549 3.884,-0.118 4.967,0.496c1.094,0.602 0.471,1.387 -1.171,1.152c-1.651,-0.236 -4.977,0.669 -4.977,0.669" data-paper-data="{&quot;origPos&quot;:null}" fill="#46340f" stroke="none" stroke-width="1"/><path d="M215.5114,165.247c0.045,2.971 0.657,7.17 3.347,9.69l-0.01,0.012c-9.113,-1.831 -8.926,-8.97 -8.926,-8.97c-7.626,-3.663 -4.278,-11.898 -4.278,-11.898c0,0 -5.393,-4.394 -2.976,-12.45c2.461,-8.193 9.486,-9.152 9.486,-9.152c0,0 0.93,-6.955 9.67,-9.884c9.79,-3.285 15.435,0.366 15.435,0.366c13.193,-2.745 15.983,7.505 15.983,7.505c0,0 5.208,1.282 7.068,6.772c2.351,8.26 -0.755,12.935 -1.379,13.774c-0.459,-0.593 -0.941,-1.098 -1.412,-1.508c0,0 -0.557,-4.394 -2.23,-6.773c0,0 -8.928,0.548 -12.45,-4.942c0,0 -4.835,5.673 -13.205,3.66c0,0 -0.371,6.408 -7.252,7.688l-1.303,6.04c0,0 -1.303,5.494 -3.534,0.55l-0.929,-3.294c0,0 -4.091,-0.915 -5.393,1.28c-1.301,2.197 -0.744,6.774 4.463,8.055c0,0 -0.219,1.453 -0.175,3.478" data-paper-data="{&quot;origPos&quot;:null}" fill="#46340f" stroke="none" stroke-width="1"/><path d="M270.836,183.842c5.332,0 5.879,-8.478 5.196,-11.304c0,0 3.295,-5.651 2.478,-8.962c1.708,2.175 1.403,5.937 -1.144,8.443c0,0 3.763,15.097 -7.537,17.165c0,0 -1.761,-2.574 -4.518,-5.795c-0.985,-2.567 -0.123,-5.422 0.284,-6.514c0.262,2.37 1.28,6.967 5.24,6.967M213.62,191.1l0.01,-0.054l13.522,1.983c0,0 -0.592,0.933 -0.545,2.177c-1.436,-0.793 -3.49,-1.472 -5.957,-0.998c-4.924,0.942 -1.506,8.478 5.879,9.42c0,0 3.585,4.916 8.4,0.354c0.157,0.847 0.087,1.813 -0.523,2.764c-1.675,2.618 -7.811,2.198 -8.51,-1.508c-3.48,-0.774 -6.007,-1.926 -7.846,-3.252c-6.257,-4.48 -4.43,-10.886 -4.43,-10.886" data-paper-data="{&quot;origPos&quot;:null}" fill="#8d6638" stroke="none" stroke-width="1"/><path d="M258.202,133.334c1.07144,1.10834 1.88153,2.44221 2.371,3.904c2.353,8.26 -0.754,12.935 -1.378,13.774c-0.46,-0.593 -0.94,-1.098 -1.411,-1.507c0,0 -0.559,-4.395 -2.232,-6.774c0,0 -8.927,0.548 -12.45,-4.942c17.75,6.055 17.056,-0.22 15.1,-4.455M202.932,141.632c2.462,-8.193 9.484,-9.152 9.484,-9.152c-5.087,7.86 -0.793,14.751 7.55,13.945c8.34,-0.809 9.435,-7.268 9.435,-7.268c6.29,1.614 13.7,-1.37 13.7,-1.37c0,0 -4.834,5.675 -13.203,3.662c0,0 -0.372,6.407 -7.253,7.687l-1.303,6.042c0,0 -1.301,5.492 -3.533,0.549l-0.93,-3.294c0,0 -4.091,-0.916 -5.392,1.28c-1.302,2.197 -0.744,6.773 4.464,8.055c0,0 -0.22,1.453 -0.176,3.48c0.044,2.97 0.657,7.17 3.348,9.69l-0.011,0.01c-9.114,-1.83 -8.927,-8.969 -8.927,-8.969c-7.626,-3.662 -4.278,-11.898 -4.278,-11.898c0,0 -5.393,-4.393 -2.975,-12.45" data-paper-data="{&quot;origPos&quot;:null}" fill="#36280c" stroke="none" stroke-width="1"/><path d="M235.554,130.54c8.24,1.55 14.026,-0.724 16.91,-2.356c0.771,1.288 1.042,2.282 1.042,2.282c0,0 2.346,0.585 4.45,2.624c-11.704,5.733 -22.402,-2.55 -22.402,-2.55M228.443,129.464c-6.29,4.576 -13.472,4.434 -16.118,3.031l0.091,-0.016c0,0 0.364,-2.713 2.767,-5.464c2.184,4.873 13.26,2.45 13.26,2.45" data-paper-data="{&quot;origPos&quot;:null}" fill="#6d5017" stroke="none" stroke-width="1"/><path d="M242.528,163.922c0.685,-1.75 2.326,-0.672 2.326,-0.672c7.807,4.611 10.937,0.564 11.987,-1.631c-0.22936,0.77552 -0.53625,1.52598 -0.916,2.24c-1.543,2.895 -5.034,6.449 -11.99,1.022c0,0 -2.32,5.76 -8.643,6.126c-2.67,0.15 -4.442,-0.99 -5.602,-2.367c-1.586,-1.897 -2.023,-4.223 -2.023,-4.223c5.376,6.553 14.177,1.255 14.861,-0.495" data-paper-data="{&quot;origPos&quot;:null}" fill="#36280c" stroke="none" stroke-width="1"/><path d="M233.705,201.394c0,0 0.123,-0.037 0.301,-0.108c0.065,0.274 0.133,0.55 0.204,0.833c-0.27,-0.452 -0.505,-0.725 -0.505,-0.725M225.895,205.238c0.7,3.706 6.836,4.126 8.51,1.508c0.35031,-0.53798 0.55246,-1.15889 0.586,-1.8c1.39,4.484 3.746,9.102 8.905,10.393c0.28,0.069 0.558,0.143 0.836,0.217c-7.759,-0.979 -16.862,-4.337 -26.922,-11.556l0.24,-2.014c1.839,1.326 4.366,2.478 7.845,3.252M220.972,176.229c3.478,1.573 6.388,1.81 8.828,1.573c0.65726,-0.05985 1.31062,-0.15667 1.957,-0.29c0,0 1.74,0.645 4.606,0.894l-0.01,0.062l6.563,3.845l3.029,-3.812l-3.28,5.88c0,0 -8.34,-4.98 -10.94,-5.249c-2.599,-0.27 -12.855,-0.808 -17.366,7.267c0,0 -2.052,3.77 13.264,6.193c0,0 1.64,-8.75 3.145,-8.345c1.504,0.403 0.684,8.345 2.188,12.92c0.135,0.413 0.265,0.893 0.396,1.404c-1.248,0.295 -2.58,1.035 -2.58,1.035c-6.267,-2.465 -3.62,-6.577 -3.62,-6.577l-13.522,-1.983l-0.57,-0.085c0.7,-10.434 7.91,-14.732 7.91,-14.732M246.953,177.23l5.437,1.52l2.036,-4.867l-0.957,5.787l-2.599,-0.27c0,0 13.128,6.865 11.487,22.344c-1.371,12.93 6.797,9.138 10.083,0.949c-0.12996,0.67608 -0.30434,1.34285 -0.522,1.996c-1.137,3.382 -5.426,7.463 -12.131,9.649c-2.539,0.818 -5.416,1.365 -8.61,1.495c1.235,-0.796 8.63,-6.06 8.894,-16.495c0.274,-11.393 -13.118,-22.107 -13.118,-22.107" fill="#868d69" stroke="none" stroke-width="1"/><path d="M217.766,207.694c0.055,0.098 0.108,0.194 0.175,0.29c0,0 1.118,1.087 3.268,2.488c-0.004,0.009 -0.01,0.014 -0.014,0.02c-4.239,7.943 5.608,22.75 5.608,22.75c8.203,-0.406 12.17,-9.559 11.214,-9.559c-0.958,0 -2.6,0.136 -0.685,-1.075c1.914,-1.212 0.41,-2.693 -1.64,-2.693c-2.052,0 0.409,-1.077 3.554,-1.48c2.207,-0.284 -2.254,-1.629 -5.678,-2.824c4.442,0.996 9.767,1.395 15.901,0.472v-0.206c0.58,0 1.15,-0.01 1.708,-0.044c3.194,-0.129 6.071,-0.677 8.61,-1.495c-0.11,0.539 -1.499,7.731 -4.18,13.148c0,0 -3.074,1.227 -6.422,0.679l-2.231,-6.592l-7.112,1.787c0,0 -3.49,7.14 -6.136,9.746c0,0 -4.18,1.518 -7.396,0c0,0 -9.77,-12.826 -8.544,-25.412" fill="#547893" stroke="none" stroke-width="1"/><path d="M249.185,228.164c0.653,0.107 1.294,0.145 1.904,0.14c-0.131,1.51 0.16,3.967 3.61,3.59c2.522,-0.275 4.11,-0.852 4.341,-1.643c0.248,0.394 0.388,0.803 0.33,1.207c-0.285,1.928 -4.605,1.788 -7.11,1.648c-2.516,-0.13 -4.333,-1.367 -3.075,-4.942" fill="#6c5c46" stroke="none" stroke-width="1"/><path d="M226.31,233.107c0.60527,0.27905 1.2475,0.46967 1.907,0.566c0.352,1.02 1.346,2.883 4.056,3.74c3.829,1.213 5.328,-0.673 1.433,-4.306c0,0 3.49,2.885 2.515,5.221c-0.983,2.328 -6.421,1.918 -9.352,-0.829c-2.922,-2.745 -0.559,-4.392 -0.559,-4.392" fill="#6c5c46" stroke="none" stroke-width="1"/></g></g></svg>