<svg xmlns="http://www.w3.org/2000/svg" width="59.525" height="117.375"><g fill-rule="evenodd" stroke-miterlimit="10" data-paper-data="{&quot;isPaintingLayer&quot;:true}" style="mix-blend-mode:normal"><path fill="#9b6d3c" d="M57.736 45.69c1.76.749 2.315 3.39 1.243 5.91-.687 1.623-1.875 2.795-3.1 3.233 0 0-3.278 9.288-6.132 10.32-2.303.844-10.445-2.468-10.445-2.468s-.66-2.528-.998-3.321c-.465-1.096-2.358-4.096-2.358-4.096l11.137 3.982 5.25-6.16a4.93 4.93 0 0 1-.199-.793c-.333-.613-.61-1.383-.777-2.237-.438-2.236.047-4.21 1.085-4.411.55-.106 1.145.315 1.65 1.072 1.117-1.072 2.49-1.515 3.644-1.031" data-paper-data="{&quot;origPos&quot;:null}"/><path fill="#333433" d="M17.691 111.695h9.176c.056.25-.017.564-.184.827-.546.834-1.492 1.508-2.294 2.073-1.246.844-2.82 1.287-4.196 1.941-1.246.523-2.879 1.469-3.999.225-1.473-1.765-.225-4.003 1.497-5.065zm19.598 0h-9.17c-.06.25.024.564.192.827.543.834 1.482 1.508 2.295 2.073 1.241.844 2.812 1.287 4.19 1.941 1.244.523 2.875 1.469 3.991.225 1.48-1.765.23-4.003-1.497-5.065z"/><path fill="#333433" d="m39.358 86.735-1.868 25.027h-9.498l-.364-18.106h-.27l-.366 18.106h-9.495l-1.876-25.027z"/><path fill="#9b6d3c" d="M10.706 60.4c1.703-2.177 7.861-5.394 7.861-5.394s-2.866 5.201-3.38 7.506c-.07.298-.232 1.078-.388 1.485-.187.512-.71 1.161-1.52 2.312-1.624 2.296-3.149 11.998-3.149 11.998.035.07.076.134.107.208.42.405.817.94 1.155 1.575.877 1.661.973 3.334.203 3.744-.409.218-.988.026-1.564-.45-.623 1.111-1.604 1.794-2.62 1.678C5.842 84.9 4.76 82.945 5 80.696c.096-.945.415-1.79.87-2.439-.009.039-.009.06-.009.06s1.34-13.446 4.844-17.917" data-paper-data="{&quot;origPos&quot;:null}"/><path fill="#eeeeed" d="m10.545 77.871-4.755.01s1.535-13.442 5.038-17.917c1.548-1.976 6.027-4.502 6.833-4.943 2.01-1.297 8.025-1.489 8.025-1.489l1.68.047h.138l1.683-.047s6.04.211 8.026 1.51l10.094 3.944 5.295-6.143 4.56 2.241s-4.207 8.828-7.06 9.867c-2.214.8-8.85-1.819-9.406-2.078 2.234 9.648 1.934 23.87 1.934 23.87l-30.386-.004s-.192-11.375 1.387-20.773c-.07.11-.147.222-.234.342-1.62 2.298-2.852 11.563-2.852 11.563"/><path fill="#f7b90b" d="m10.656 77.058-4.745-.1c.022-.166.05-.346.08-.555l4.757.095c-.043.207-.066.394-.092.561zm-4.61-1.031c.02-.177.05-.361.081-.56l4.766.1c-.03.198-.066.382-.089.56l-4.759-.099m45.17-21.569 5.06 2.388c-.087.157-.174.328-.265.498l-5.18-2.443zm.634-.736 4.853 2.29c-.076.155-.166.325-.256.502l-4.98-2.35z"/><path fill="#333433" d="M35.386 63.338a.203.203 0 1 0 .407 0 .203.203 0 0 0-.407 0m1.87 1.871c.004.161.182.682.147.889a.309.309 0 0 1-.227.265c-.257.706-.865 1.208-1.575 1.208-.707 0-1.31-.494-1.554-1.206-.13-.008-.236-.117-.266-.267-.026-.207.148-.729.16-.889.126.542.37.557.408.767.016.133-.023.253-.12.325.216.568.68.987 1.24 1.038v-2.95h-.494c-.029.074-.08.124-.147.124-.093 0-.157-.124-.157-.27 0-.147.064-.263.158-.263.07 0 .13.06.16.167h.48v-.416a.417.417 0 0 1-.282-.393.402.402 0 1 1 .804 0 .41.41 0 0 1-.275.393v.416h.492c.025-.107.087-.167.157-.167.093 0 .164.116.164.263 0 .146-.07.27-.164.27-.066 0-.115-.051-.146-.125h-.504v2.96c.572-.046 1.045-.459 1.26-1.035a.345.345 0 0 1-.136-.337c.04-.209.283-.225.417-.767"/><path fill="#f6b90c" d="M33.811 68.04h3.623v.187h-3.623zm0 .377h3.623v.188h-3.623z"/><path fill="#333433" d="M12.244 86.738s-.023-1.104 0-2.904h30.394c.01 1.8-.008 2.91-.008 2.91l-30.386-.006"/><path fill="#f7b90b" d="M30.191 87.137c-.938.939-4.277.832-5.305 0-.706-.565-.64-2.946 0-3.575.934-.938 4.471-1.03 5.305 0 .565.697.637 2.942 0 3.575"/><path fill="#333433" d="M29.252 86.492c-.61.61-2.782.545-3.443 0-.46-.362-.409-1.903 0-2.315.608-.606 2.9-.666 3.443 0 .364.45.41 1.908 0 2.315"/><path fill="#d69d0b" d="M30.024 85.366c0 .081-.068.147-.165.147h-1.058a.153.153 0 0 1-.15-.147c0-.091.073-.16.15-.16h1.058c.097 0 .165.069.165.16"/><path fill="#9b6d3c" d="M23.523 53.625c1.088-.113 1.881-.14 1.881-.14l1.683.06h.13l1.68-.093c.683.043 1.365.103 2.044.18l-3.778 3.896zm25.143-19.714c1.12.72 1.85 1.934 1.85 3.326 0 2.21-1.85 3.996-4.16 3.996h-.2c-3.722 6.67-10.844 11.176-19.034 11.176-8.197 0-15.337-4.52-19.057-11.197a4.948 4.948 0 0 1-.458.021c-2.3 0-4.167-1.786-4.167-3.996 0-1.491.848-2.786 2.104-3.473a22.882 22.882 0 0 1-.22-3.131c0-12.022 9.76-21.765 21.798-21.765 12.032 0 21.793 9.743 21.793 21.765 0 1.12-.083 2.212-.248 3.278" data-paper-data="{&quot;origPos&quot;:null}"/><path fill="#ad6921" d="M21.56 30.792c-.772-.174-.908-1.201-3.386-.74-.779.18-2.417 1.156-2.732 1.808-.316.652-.088-2.392 2.457-3.522 1.835-.675 2.457-.642 3.977-.642s1.987.907 1.766 1.65c0 0-.503 1.803-2.082 1.446zm13.905 0c.772-.174.908-1.201 3.386-.74.78.18 2.417 1.156 2.732 1.808.316.652.087-2.392-2.457-3.522-1.835-.675-2.457-.642-3.977-.642s-1.987.907-1.766 1.65c0 0 .503 1.803 2.082 1.446z"/><path fill="#343434" d="M19.331 39.696c-1.105 0-2-1.343-2-3s.895-3 2-3 2 1.343 2 3-.895 3-2 3zm18 0c-1.105 0-2-1.343-2-3s.895-3 2-3 2 1.343 2 3-.895 3-2 3z"/><path fill="#eeac6c" d="M28.351 39.765c-1.125.153-3.02 1.834-3.02 1.834s.207-1.009.503-1.299c.8-1.156 2.487-1.604 2.487-1.604s2.173.703 2.65 1.588c.443.824.34 1.238.34 1.238s-2.12-1.871-2.96-1.756zM21.531 43.392s6.897 3.208 13.172-.397c0 0-1.39 5.47-5.95 5.561-4.115.122-4.984-1.492-5.477-1.956-.492-.463-1.42-1.772-1.745-3.208"/><path fill="#ad6921" d="M14.391 32.458c1.773-1.094 4.395-1.79 4.395-1.79.306-.575.03-1.555-.382-1.613-1.298-.186-4.012 3.403-4.012 3.403m25.225 0c-1.783-1.094-4.39-1.79-4.39-1.79-.318-.575-.04-1.555.368-1.613 1.317-.186 4.022 3.403 4.022 3.403"/><path fill="#492c0e" d="M50.035 27.801c.04 2.555-.859 8.087-2.604 11.387 0 0-4.284-12.118-7.814-14.038-4.31-2.345-15.692 1.039-19.546-2.005-.647-.504-.57-1.647-.57-1.647s-.74 1.453-1.096 1.865c-1.868 2.124-6.717 5.203-9.009 6.846-1.853 1.332-1.942 1.319-1.529 8.979 0 0-3.399-6.972-3.216-11.625.054-1.343.705-4.322 1.765-7.343 3.842-7.69 11.79-12.968 20.967-12.968 10.546 0 19.464 6.968 22.396 16.545.148 1.33.234 2.666.256 4.004" data-paper-data="{&quot;origPos&quot;:null}"/><path fill="#9b6d3c" d="M25.68 54.908c-1.013 0-1.843-2.187-1.843-3.182h7.25c0 .995-.83 3.182-1.844 3.182H25.68" data-paper-data="{&quot;origPos&quot;:null}"/><path fill="#eeac6c" d="M24.685 54.213c-.415-.622-.766-1.467-.83-2.092a21.9 21.9 0 0 0 7.212-.023l-.002.013-6.38 2.102"/><path fill="#333433" d="m40.743 57.648-7.11-2.576c-.666-.234-1.152-.851-1.003-1.262v-.007c.15-.41.88-.461 1.544-.225l7.103 2.574z"/><path fill="#f6b90c" d="m40.195 55.756.463.169-.523 1.496-.469-.163zm-.77-.281.476.175-.53 1.501-.475-.172zm-5.195-1.167a.325.325 0 0 0-.322-.334.33.33 0 0 0 0 .658.322.322 0 0 0 .322-.324"/><path fill="#333433" d="m14.074 56.152 7.105-2.574c.667-.236 1.386-.185 1.544.225v.007c.146.411-.337 1.028-1 1.262l-7.116 2.576z"/><path fill="#f6b90c" d="m14.722 55.915.475-.174.53 1.506-.476.168zm.77-.281.467-.162.525 1.492-.465.174zm5.626-1.326a.327.327 0 0 1 .327-.334.326.326 0 0 1 .322.334.325.325 0 0 1-.649 0"/><path fill="#333433" d="M30.058 76.363c.03 1.534-2.569 2.566-2.569 2.566s-2.577-1.059-2.565-2.559c0-1.428 1.387-15.818 1.387-15.818-.493-.327-.893-2.157-.893-2.157l1.071-.847 1.835-.058 1.151.954s-.488 1.744-.937 2.108c0 0 1.5 14.382 1.52 15.811"/><path fill="#eeeeed" d="M27.48 57.512s-2.02.844-1.813 1.696c.214.865-3.886-4.996-3.762-5.317.126-.32 1.36-1.417 1.36-1.417z"/><path fill="#565657" d="M23.258 52.512c-.175.159-1.215 1.103-1.316 1.392-.037.087.343.78 1.27 2.142 1.106 1.65 2.253 3.157 2.437 3.215 0-.006-.008-.017-.01-.045-.203-.816 1.496-1.587 1.784-1.71zm2.398 6.815c-.27 0-2.127-2.698-2.206-2.812-.384-.568-1.657-2.426-1.576-2.63.134-.324 1.312-1.39 1.364-1.439l.028-.02 4.262 5.103-.039.02c-.023.007-1.99.833-1.784 1.654.013.052.013.087-.01.104-.008.018-.02.02-.039.02z"/><path fill="#eeeeed" d="M31.616 52.474s1.224 1.097 1.352 1.417c.126.321-3.97 6.182-3.757 5.317.207-.852-1.81-1.696-1.81-1.696z"/><path fill="#565657" d="M27.45 57.505c.293.124 1.991.896 1.793 1.71-.014.028-.014.041-.014.047.182-.06 1.328-1.566 2.434-3.209.926-1.37 1.313-2.061 1.277-2.15-.11-.287-1.145-1.233-1.32-1.392zm1.775 1.821c-.023 0-.034-.002-.038-.02-.022-.017-.022-.05-.014-.104.213-.82-1.76-1.645-1.782-1.655l-.04-.02 4.258-5.101.027.02c.052.048 1.242 1.114 1.362 1.437.085.208-1.19 2.077-1.58 2.642-.08.116-1.927 2.801-2.193 2.801z"/><path fill="#333433" d="M5 26.234S12.861 19.2 27.022 19.2c11.652 0 22.453 7.034 22.453 7.034C45.164 36.726 8.973 36.61 5 26.234"/><path fill="#eeeeed" d="M4.94 19.289S-.218 17.437.007 15.562C.92 7.841 21.691 0 27.023 0c5.181 0 26.306 7.775 27.453 15.562.297 1.987-5 4.287-5 4.287l-44.537-.56"/><path fill="#333433" d="M27.011 4.291a.424.424 0 0 0 .847 0 .427.427 0 0 0-.42-.426.425.425 0 0 0-.427.426m3.82 3.821c.01.325.384 1.395.314 1.815-.052.29-.248.494-.484.54-.505 1.448-1.745 2.486-3.195 2.486-1.447 0-2.693-1.03-3.195-2.478-.26-.027-.477-.246-.53-.548-.069-.42.3-1.49.313-1.815.263 1.105.771 1.138.843 1.572.038.263-.056.523-.242.663.424 1.168 1.378 2.008 2.528 2.126V6.44h-1.008c-.06.143-.17.245-.29.245-.19 0-.34-.245-.34-.543 0-.302.15-.55.34-.55.144 0 .267.133.314.335h.984v-.844a.834.834 0 0 1-.58-.792.831.831 0 0 1 .836-.828c.46 0 .833.369.837.828a.847.847 0 0 1-.585.792v.844h1c.057-.202.177-.329.322-.329.186 0 .345.242.345.544 0 .298-.159.543-.344.543-.117 0-.226-.102-.29-.245H27.69v6.04c1.156-.093 2.137-.933 2.575-2.104-.208-.137-.32-.41-.273-.692.065-.434.57-.467.837-1.573"/><path fill="#565657" d="M4.94 19.288c29.121-10.385 44.536.56 44.536.56v6.408c-25.046-11.195-44.53 0-44.53 0z"/><path fill="#f7b90b" d="M4.94 24.469c27.66-10.217 44.536.56 44.536.56v1.227c-25.046-11.195-44.53 0-44.53 0z"/><path fill="#f6b90c" d="M6.127 26.234c0 1.105-.508 2.007-1.128 2.007-.624 0-1.12-.902-1.12-2.007 0-1.111.496-2.013 1.12-2.013.62 0 1.128.902 1.128 2.013m44.475 0c0 1.105-.5 2.007-1.125 2.007-.618 0-1.118-.902-1.118-2.007 0-1.111.5-2.013 1.118-2.013.625 0 1.125.902 1.125 2.013"/></g></svg>