<svg version="1.1" xmlns="http://www.w3.org/2000/svg" xmlns:xlink="http://www.w3.org/1999/xlink" width="59.52497" height="117.37498" viewBox="0,0,59.52497,117.37498"><g transform="translate(-209.66885,-121.304)"><g data-paper-data="{&quot;isPaintingLayer&quot;:true}" fill-rule="evenodd" stroke="none" stroke-width="1" stroke-linecap="butt" stroke-linejoin="miter" stroke-miterlimit="10" stroke-dasharray="" stroke-dashoffset="0" style="mix-blend-mode: normal"><path d="M267.40516,166.99383c1.759,0.749 2.315,3.391 1.243,5.911c-0.687,1.622 -1.875,2.794 -3.1,3.232c0,0 -3.278,9.288 -6.132,10.32c-2.303,0.844 -10.445,-2.468 -10.445,-2.468c0,0 -0.661,-2.528 -0.998,-3.321c-0.465,-1.096 -2.358,-4.096 -2.358,-4.096l11.137,3.982l5.249,-6.159c-0.088,-0.254 -0.151,-0.517 -0.198,-0.794c-0.333,-0.613 -0.61,-1.383 -0.777,-2.237c-0.438,-2.236 0.047,-4.21 1.085,-4.411c0.549,-0.106 1.145,0.315 1.649,1.072c1.118,-1.072 2.49,-1.515 3.645,-1.031" data-paper-data="{&quot;origPos&quot;:null}" fill="#9b6d3c"/><path d="M227.36,232.999h9.176c0.056,0.25 -0.017,0.564 -0.184,0.827c-0.546,0.834 -1.492,1.508 -2.294,2.073c-1.246,0.844 -2.821,1.287 -4.196,1.941c-1.246,0.523 -2.879,1.469 -3.999,0.225c-1.473,-1.765 -0.225,-4.003 1.497,-5.065zM246.958,232.999h-9.17c-0.06,0.25 0.024,0.564 0.192,0.827c0.543,0.834 1.482,1.508 2.295,2.073c1.241,0.844 2.812,1.287 4.19,1.941c1.244,0.523 2.875,1.469 3.991,0.225c1.48,-1.765 0.229,-4.003 -1.497,-5.065z" fill="#333433"/><path d="M249.027,208.039l-1.868,25.027h-9.498l-0.364,-18.106h-0.271l-0.365,18.106h-9.495l-1.876,-25.027z" fill="#333433"/><path d="M220.375,181.704c1.703,-2.177 7.861,-5.394 7.861,-5.394c0,0 -2.866,5.201 -3.38,7.506c-0.07,0.298 -0.232,1.078 -0.388,1.485c-0.187,0.512 -0.71,1.161 -1.52,2.312c-1.624,2.296 -3.149,11.998 -3.149,11.998c0.035,0.07 0.076,0.134 0.107,0.208c0.42,0.405 0.817,0.94 1.155,1.575c0.877,1.661 0.973,3.334 0.203,3.744c-0.409,0.218 -0.988,0.026 -1.564,-0.45c-0.623,1.111 -1.604,1.794 -2.621,1.678c-1.567,-0.162 -2.649,-2.117 -2.41,-4.366c0.097,-0.945 0.416,-1.79 0.87,-2.439c-0.008,0.039 -0.008,0.06 -0.008,0.06c0,0 1.339,-13.446 4.844,-17.917" data-paper-data="{&quot;origPos&quot;:null}" fill="#9b6d3c"/><path d="M220.214,199.175l-4.755,0.01c0,0 1.535,-13.442 5.038,-17.917c1.548,-1.976 6.027,-4.502 6.833,-4.943c2.01,-1.297 8.025,-1.489 8.025,-1.489l1.68,0.047h0.138l1.683,-0.047c0,0 6.04,0.211 8.026,1.51l10.094,3.944l5.295,-6.143l4.56,2.241c0,0 -4.207,8.828 -7.06,9.867c-2.214,0.8 -8.85,-1.819 -9.406,-2.078c2.234,9.648 1.934,23.87 1.934,23.87l-30.386,-0.004c0,0 -0.192,-11.375 1.387,-20.773c-0.071,0.11 -0.147,0.222 -0.234,0.342c-1.62,2.298 -2.852,11.563 -2.852,11.563" fill="#eeeeed"/><path d="M220.325,198.362l-4.745,-0.1c0.022,-0.166 0.049,-0.346 0.08,-0.555l4.757,0.095c-0.043,0.207 -0.066,0.394 -0.092,0.561zM215.714,197.331c0.02,-0.177 0.051,-0.361 0.082,-0.56l4.766,0.1c-0.031,0.198 -0.066,0.382 -0.089,0.56l-4.759,-0.099M260.883,175.763l5.06,2.388c-0.086,0.157 -0.173,0.328 -0.264,0.498l-5.181,-2.443zM261.518,175.027l4.853,2.29c-0.076,0.155 -0.166,0.325 -0.256,0.502l-4.981,-2.35z" fill="#f7b90b"/><path d="M245.055,184.642c0,0.11239 0.09111,0.2035 0.2035,0.2035c0.11239,0 0.2035,-0.09111 0.2035,-0.2035c0,-0.11239 -0.09111,-0.2035 -0.2035,-0.2035c-0.11239,0 -0.2035,0.09111 -0.2035,0.2035M246.925,186.513c0.004,0.161 0.182,0.682 0.147,0.889c-0.01378,0.12669 -0.10393,0.23193 -0.227,0.265c-0.257,0.706 -0.865,1.208 -1.575,1.208c-0.707,0 -1.311,-0.494 -1.554,-1.206c-0.131,-0.008 -0.236,-0.117 -0.266,-0.267c-0.026,-0.207 0.148,-0.729 0.16,-0.889c0.126,0.542 0.37,0.557 0.408,0.767c0.016,0.133 -0.023,0.253 -0.12,0.325c0.216,0.568 0.68,0.987 1.24,1.038v-2.95h-0.494c-0.029,0.074 -0.081,0.124 -0.147,0.124c-0.093,0 -0.157,-0.124 -0.157,-0.27c0,-0.147 0.064,-0.263 0.158,-0.263c0.07,0 0.129,0.06 0.16,0.167h0.48v-0.416c-0.162,-0.057 -0.282,-0.208 -0.282,-0.393c0,-0.22202 0.17998,-0.402 0.402,-0.402c0.22202,0 0.402,0.17998 0.402,0.402c0.00252,0.17655 -0.10827,0.33488 -0.275,0.393v0.416h0.492c0.025,-0.107 0.087,-0.167 0.157,-0.167c0.093,0 0.164,0.116 0.164,0.263c0,0.146 -0.071,0.27 -0.164,0.27c-0.066,0 -0.115,-0.051 -0.146,-0.125h-0.504v2.96c0.572,-0.046 1.045,-0.459 1.26,-1.035c-0.10562,-0.07742 -0.1583,-0.20796 -0.136,-0.337c0.039,-0.209 0.283,-0.225 0.417,-0.767" fill="#333433"/><path d="M243.48,189.344h3.623v0.187h-3.623zM243.48,189.721h3.623v0.188h-3.623z" fill="#f6b90c"/><path d="M221.913,208.042c0,0 -0.023,-1.104 0,-2.904h30.394c0.009,1.8 -0.008,2.91 -0.008,2.91l-30.386,-0.006" fill="#333433"/><path d="M239.86,208.441c-0.938,0.939 -4.277,0.832 -5.305,0c-0.706,-0.565 -0.64,-2.946 0,-3.575c0.934,-0.938 4.471,-1.03 5.305,0c0.565,0.697 0.637,2.942 0,3.575" fill="#f7b90b"/><path d="M238.921,207.796c-0.61,0.61 -2.782,0.545 -3.443,0c-0.46,-0.362 -0.409,-1.903 0,-2.315c0.608,-0.606 2.899,-0.666 3.443,0c0.364,0.45 0.409,1.908 0,2.315" fill="#333433"/><path d="M239.693,206.67c0,0.081 -0.068,0.147 -0.165,0.147h-1.058c-0.08105,-0.00153 -0.14684,-0.066 -0.15,-0.147c0,-0.091 0.073,-0.16 0.15,-0.16h1.058c0.097,0 0.165,0.069 0.165,0.16" fill="#d69d0b"/><path d="M233.19217,174.929c1.088,-0.113 1.881,-0.14 1.881,-0.14l1.683,0.06h0.13l1.68,-0.093c0.68274,0.04278 1.36429,0.1028 2.044,0.18l-3.778,3.896zM258.33517,155.215c1.12,0.72 1.85,1.934 1.85,3.326c0,2.21 -1.851,3.996 -4.16,3.996h-0.2c-3.722,6.67 -10.844,11.176 -19.034,11.176c-8.197,0 -15.337,-4.52 -19.057,-11.197c-0.148,0.014 -0.306,0.021 -0.458,0.021c-2.301,0 -4.167,-1.786 -4.167,-3.996c0,-1.491 0.848,-2.786 2.104,-3.473c-0.141,-1.021 -0.221,-2.067 -0.221,-3.131c0,-12.022 9.761,-21.765 21.799,-21.765c12.032,0 21.793,9.743 21.793,21.765c0,1.12 -0.083,2.212 -0.248,3.278" data-paper-data="{&quot;origPos&quot;:null}" fill="#9b6d3c"/><path d="M231.229,152.096c-0.772,-0.174 -0.908,-1.201 -3.386,-0.74c-0.779,0.18 -2.417,1.156 -2.732,1.808c-0.316,0.652 -0.088,-2.392 2.457,-3.522c1.835,-0.675 2.457,-0.642 3.977,-0.642c1.52,0 1.987,0.907 1.766,1.65c0,0 -0.503,1.803 -2.082,1.446zM245.134,152.096c0.772,-0.174 0.908,-1.201 3.386,-0.74c0.779,0.18 2.417,1.156 2.732,1.808c0.316,0.652 0.087,-2.392 -2.457,-3.522c-1.835,-0.675 -2.457,-0.642 -3.977,-0.642c-1.52,0 -1.987,0.907 -1.766,1.65c0,0 0.503,1.803 2.082,1.446z" fill="#ad6921"/><path d="M229,161c-1.105,0 -2,-1.343 -2,-3c0,-1.657 0.895,-3 2,-3c1.105,0 2,1.343 2,3c0,1.657 -0.895,3 -2,3zM247,161c-1.105,0 -2,-1.343 -2,-3c0,-1.657 0.895,-3 2,-3c1.105,0 2,1.343 2,3c0,1.657 -0.895,3 -2,3z" fill="#343434"/><path d="M238.02,161.069c-1.125,0.153 -3.02,1.834 -3.02,1.834c0,0 0.207,-1.009 0.503,-1.299c0.8,-1.156 2.487,-1.604 2.487,-1.604c0,0 2.173,0.703 2.65,1.588c0.443,0.824 0.34,1.238 0.34,1.238c0,0 -2.121,-1.871 -2.96,-1.756z" fill="#eeac6c"/><path d="M231.2,164.696c0,0 6.897,3.208 13.172,-0.397c0,0 -1.39,5.47 -5.95,5.561c-4.115,0.122 -4.984,-1.492 -5.477,-1.956c-0.492,-0.463 -1.42,-1.772 -1.745,-3.208" fill="#eeac6c"/><path d="M224.06,153.762c1.773,-1.094 4.395,-1.79 4.395,-1.79c0.306,-0.575 0.029,-1.555 -0.382,-1.613c-1.298,-0.186 -4.012,3.403 -4.012,3.403M249.286,153.762c-1.783,-1.094 -4.39,-1.79 -4.39,-1.79c-0.318,-0.575 -0.04,-1.555 0.368,-1.613c1.317,-0.186 4.022,3.403 4.022,3.403" fill="#ad6921"/><path d="M259.704,149.105c0.04,2.555 -0.859,8.087 -2.604,11.387c0,0 -4.284,-12.118 -7.814,-14.038c-4.311,-2.345 -15.692,1.039 -19.546,-2.005c-0.647,-0.504 -0.571,-1.647 -0.571,-1.647c0,0 -0.739,1.453 -1.095,1.865c-1.868,2.124 -6.717,5.203 -9.009,6.846c-1.853,1.332 -1.942,1.319 -1.529,8.979c0,0 -3.399,-6.972 -3.216,-11.625c0.054,-1.343 0.705,-4.322 1.765,-7.343c3.842,-7.69 11.789,-12.968 20.967,-12.968c10.546,0 19.464,6.968 22.396,16.545c0.14797,1.32992 0.2334,2.66606 0.256,4.004" data-paper-data="{&quot;origPos&quot;:null}" fill="#492c0e"/><path d="M235.349,176.212c-1.013,0 -1.843,-2.187 -1.843,-3.182h7.25c0,0.995 -0.831,3.182 -1.844,3.182h-3.563" data-paper-data="{&quot;origPos&quot;:null}" fill="#9b6d3c"/><path d="M234.354,175.517c-0.415,-0.622 -0.766,-1.467 -0.83,-2.092c1.16633,0.1907 2.34618,0.28668 3.528,0.287c1.23458,0.0016 2.46705,-0.10211 3.684,-0.31l-0.002,0.013l-6.38,2.102" fill="#eeac6c"/><path d="M250.412,178.952l-7.11,-2.576c-0.666,-0.234 -1.152,-0.851 -1.003,-1.262v-0.007c0.15,-0.41 0.88,-0.461 1.544,-0.225l7.103,2.574z" fill="#333433"/><path d="M249.864,177.06l0.463,0.169l-0.523,1.496l-0.469,-0.163zM249.094,176.779l0.476,0.175l-0.53,1.501l-0.475,-0.172zM243.899,175.612c0,-0.187 -0.142,-0.334 -0.322,-0.334c-0.17178,0.0134 -0.30433,0.1567 -0.30433,0.329c0,0.1723 0.13255,0.3156 0.30433,0.329c0.08575,0 0.16795,-0.0342 0.2284,-0.09502c0.06044,-0.06082 0.09413,-0.14324 0.0936,-0.22898" fill="#f6b90c"/><path d="M223.743,177.456l7.105,-2.574c0.667,-0.236 1.386,-0.185 1.544,0.225v0.007c0.146,0.411 -0.337,1.028 -1.001,1.262l-7.115,2.576z" fill="#333433"/><path d="M224.391,177.219l0.475,-0.174l0.53,1.506l-0.476,0.168zM225.161,176.938l0.467,-0.162l0.525,1.492l-0.465,0.174zM230.787,175.612c-0.00188,-0.08793 0.03174,-0.17292 0.09327,-0.23576c0.06153,-0.06285 0.14578,-0.09826 0.23373,-0.09824c0.08717,0.00104 0.17029,0.03696 0.23079,0.09971c0.0605,0.06276 0.09335,0.14714 0.09121,0.23429c-0.00956,0.17223 -0.15201,0.30698 -0.3245,0.30698c-0.17249,0 -0.31494,-0.13475 -0.3245,-0.30698" fill="#f6b90c"/><path d="M239.727,197.667c0.029,1.534 -2.569,2.566 -2.569,2.566c0,0 -2.577,-1.059 -2.565,-2.559c0,-1.428 1.387,-15.818 1.387,-15.818c-0.493,-0.327 -0.893,-2.157 -0.893,-2.157l1.071,-0.847l1.835,-0.058l1.151,0.954c0,0 -0.488,1.744 -0.937,2.108c0,0 1.5,14.382 1.52,15.811" fill="#333433"/><path d="M237.148,178.816c0,0 -2.019,0.844 -1.812,1.696c0.214,0.865 -3.886,-4.996 -3.762,-5.317c0.126,-0.32 1.36,-1.417 1.36,-1.417z" fill="#eeeeed"/><path d="M232.927,173.816c-0.175,0.159 -1.215,1.103 -1.316,1.392c-0.037,0.087 0.343,0.78 1.27,2.142c1.106,1.65 2.253,3.157 2.437,3.215c0,-0.006 -0.008,-0.017 -0.01,-0.045c-0.203,-0.816 1.496,-1.587 1.784,-1.71zM235.325,180.631c-0.27,0 -2.127,-2.698 -2.206,-2.812c-0.384,-0.568 -1.657,-2.426 -1.576,-2.63c0.134,-0.324 1.312,-1.39 1.364,-1.439l0.028,-0.02l4.262,5.103l-0.039,0.02c-0.023,0.007 -1.991,0.833 -1.784,1.654c0.013,0.052 0.013,0.087 -0.01,0.104c-0.008,0.018 -0.02,0.02 -0.039,0.02z" fill="#565657"/><path d="M241.285,173.778c0,0 1.224,1.097 1.352,1.417c0.126,0.321 -3.97,6.182 -3.757,5.317c0.207,-0.852 -1.811,-1.696 -1.811,-1.696z" fill="#eeeeed"/><path d="M237.118,178.809c0.294,0.124 1.992,0.896 1.794,1.71c-0.014,0.028 -0.014,0.041 -0.014,0.047c0.182,-0.06 1.328,-1.566 2.434,-3.209c0.926,-1.37 1.313,-2.061 1.277,-2.15c-0.11,-0.287 -1.145,-1.233 -1.32,-1.392zM238.894,180.63c-0.023,0 -0.034,-0.002 -0.038,-0.02c-0.022,-0.017 -0.022,-0.05 -0.014,-0.104c0.213,-0.82 -1.761,-1.645 -1.782,-1.655l-0.04,-0.02l4.258,-5.101l0.027,0.02c0.052,0.048 1.242,1.114 1.362,1.437c0.085,0.208 -1.19,2.077 -1.58,2.642c-0.08,0.116 -1.927,2.801 -2.193,2.801z" fill="#565657"/><path d="M214.668,147.538c0,0 7.863,-7.034 22.024,-7.034c11.652,0 22.453,7.034 22.453,7.034c-4.312,10.492 -40.503,10.376 -44.477,0" fill="#333433"/><path d="M214.609,140.593c0,0 -5.158,-1.852 -4.933,-3.727c0.912,-7.721 21.684,-15.562 27.016,-15.562c5.181,0 26.306,7.775 27.453,15.562c0.297,1.987 -5,4.287 -5,4.287l-44.537,-0.56" fill="#eeeeed"/><path d="M236.68,125.595c0,0.23389 0.18961,0.4235 0.4235,0.4235c0.23389,0 0.4235,-0.18961 0.4235,-0.4235c0,-0.236 -0.195,-0.426 -0.42,-0.426c-0.237,0 -0.427,0.19 -0.427,0.426M240.499,129.416c0.011,0.325 0.385,1.395 0.315,1.815c-0.052,0.29 -0.248,0.494 -0.484,0.54c-0.505,1.448 -1.745,2.486 -3.195,2.486c-1.447,0 -2.693,-1.03 -3.195,-2.478c-0.26,-0.027 -0.477,-0.246 -0.531,-0.548c-0.068,-0.42 0.301,-1.49 0.314,-1.815c0.263,1.105 0.771,1.138 0.843,1.572c0.038,0.263 -0.056,0.523 -0.242,0.663c0.424,1.168 1.378,2.008 2.528,2.126v-6.033h-1.008c-0.06,0.143 -0.17,0.245 -0.29,0.245c-0.19,0 -0.34,-0.245 -0.34,-0.543c0,-0.302 0.15,-0.55 0.34,-0.55c0.144,0 0.267,0.133 0.314,0.335h0.984v-0.844c-0.339,-0.107 -0.581,-0.426 -0.581,-0.792c0.00079,-0.22092 0.08952,-0.43243 0.24657,-0.5878c0.15706,-0.15537 0.36951,-0.2418 0.59043,-0.2402c0.45899,-0.00057 0.83261,0.36903 0.837,0.828c-0.00577,0.36187 -0.24082,0.6801 -0.585,0.792v0.844h1c0.057,-0.202 0.177,-0.329 0.322,-0.329c0.186,0 0.345,0.242 0.345,0.544c0,0.298 -0.159,0.543 -0.344,0.543c-0.117,0 -0.226,-0.102 -0.29,-0.245h-1.034v6.04c1.156,-0.093 2.137,-0.933 2.575,-2.104c-0.208,-0.137 -0.32,-0.41 -0.273,-0.692c0.065,-0.434 0.569,-0.467 0.837,-1.573" fill="#333433"/><path d="M214.608,140.592c29.122,-10.385 44.537,0.56 44.537,0.56v6.408c-25.046,-11.195 -44.53,0 -44.53,0z" fill="#565657"/><path d="M214.608,145.773c27.661,-10.217 44.537,0.56 44.537,0.56v1.227c-25.046,-11.195 -44.53,0 -44.53,0z" fill="#f7b90b"/><path d="M215.796,147.538c0,1.105 -0.508,2.007 -1.128,2.007c-0.624,0 -1.12,-0.902 -1.12,-2.007c0,-1.111 0.496,-2.013 1.12,-2.013c0.62,0 1.128,0.902 1.128,2.013M260.271,147.538c0,1.105 -0.5,2.007 -1.125,2.007c-0.618,0 -1.118,-0.902 -1.118,-2.007c0,-1.111 0.5,-2.013 1.118,-2.013c0.625,0 1.125,0.902 1.125,2.013" fill="#f6b90c"/></g></g></svg>