<svg xmlns="http://www.w3.org/2000/svg" width="93.473" height="117.717"><g fill-rule="evenodd" stroke-miterlimit="10" data-paper-data="{&quot;isPaintingLayer&quot;:true}" style="mix-blend-mode:normal"><path fill="#333433" d="M67.242 111.644c-.065.271.02.602.205.875.58.898 1.583 1.612 2.44 2.22 1.33.906 3.003 1.378 4.473 2.081 1.328.562 3.069 1.569 4.255.242 1.571-1.891.243-4.288-1.593-5.418zm-1.333 0c.064.271-.02.602-.2.875-.578.898-1.588 1.612-2.437 2.22-1.332.906-3.013 1.378-4.481 2.081-1.326.562-3.078 1.569-4.263.242-1.566-1.891-.238-4.288 1.592-5.418z"/><path fill="#343434" d="M53.387 59.071c-1.54.615 27.966.579 26.47-.021 2.644 10.335 2.95 25.883 2.95 25.883h.016s.58 15.12-1.933 16.009l-9.983-13.94c-3.4-.403-4.436-4.643-4.436-4.643s-.915 4.24-4.779 4.644l-9.31 13.94c-2.417-.851-1.954-15.997-1.954-15.997s.308-15.553 2.96-25.875"/><path fill="#4f4f4f" d="m79.229 84.961-1.997 26.754H67.106l-.378-19.35h-.297l-.386 19.35H55.923l-2-26.754z"/><path fill="#d0d0d0" d="M75.736 84.961H58.268l8.594-4.973z"/><path fill="#9b6c40" d="M39.782 40.777c1.103.214 1.615 2.324 1.157 4.71a8.315 8.315 0 0 1-.827 2.392c-.196 1.268-.84 2.277-1.85 2.71-1.871.79-4.31-.749-5.448-3.447-1.144-2.694-.549-5.533 1.332-6.323 1.214-.515 2.685-.041 3.872 1.107.531-.818 1.178-1.268 1.764-1.148" data-paper-data="{&quot;origPos&quot;:null}"/><path fill="#d0d0d0" d="M47.539 41.838c0 .518-10.646 1.805-23.777 1.805C10.642 43.643 0 42.356 0 41.838c0-.523 10.642-.951 23.762-.951 13.13 0 23.777.428 23.777.951"/><path fill="#eeeeed" d="M18.603 41.352c.048 0 0 .206 0 .206h-5.956s-.04-.206 0-.206c1.742-.007 2.572-.385 2.572-.385.227-.909.121-6.186 0-6.406-.762-1.349-4.346-4.645-4.346-4.645h9.5s-3.585 3.296-4.335 4.645c-.13.22-.23 5.497 0 6.406 0 0 .831.378 2.565.385"/><path fill="#c1263d" d="M15.631 33.817c-.395 0-1.566-1.169-2.468-2.156h4.94c-.907.987-2.065 2.156-2.473 2.156"/><path fill="#66651f" d="M29.623 16.483c1.766 1.014 3.034 3.888 3.034 5.837v19.483c-1.723.871-6.768.785-8.653 0V22.32c0-2.011 1.367-5.017 3.215-5.93.323-2.557.25-6.207.25-6.207h1.797s.072 3.778.357 6.3"/><path fill="#4f4f4f" d="M29.593 10.911s-1.966.424-2.39 0c-.489-.48 0-2.729 0-2.729h2.39v2.73z"/><path fill="#9b1826" d="M32.657 41.804c-1.722.871-6.766.784-8.652 0V23.386h8.652v18.418"/><path fill="#811525" d="M32.657 23.357c0 .23-1.933.435-4.32.435-2.392 0-4.332-.205-4.332-.435 0-.24 1.94-.436 4.331-.436 2.388 0 4.32.196 4.32.436"/><path fill="#d0d0d0" d="M28.123 12.143s.198 3.321-.304 5.99c0 0-1.385 1.767-1.714 4.893-.467 4.349.248 18.042.248 18.042-.643-.091-1.206-.226-1.603-.41V23.09c0-1.812 1.147-4.522 2.712-5.346.271-2.307.213-5.6.213-5.6h.448"/><path fill="#9b6c40" d="M40.974 45.168c.341-2.278-.238-4.256-1.303-4.411-1.043-.161-2.171 1.564-2.509 3.844-.345 2.289.235 4.264 1.286 4.422 1.058.159 2.187-1.571 2.526-3.855m49.438 33.35c.256 2.386-.896 4.473-2.555 4.653-1.09.114-2.127-.618-2.788-1.796-.617.511-1.23.714-1.666.478-.812-.437-.711-2.222.227-3.987.349-.678.77-1.253 1.215-1.682.039-.072.092-.169.14-.242l4.52.008c.471.694.8 1.558.907 2.568" data-paper-data="{&quot;origPos&quot;:null}"/><path fill="#343434" d="m35.123 51.151 4.862-2.392 5.508 6.625 11.848-4.313s0 .003-.008.02c2.044-1.366 7.531-1.56 7.531-1.56l1.789.054h.144l1.795-.073s5.366.232 7.462 1.562c-.009 0-.009-.004-.009-.004s6.557 3.437 8.377 5.765c3.73 4.779 5.168 19.15 5.168 19.15l-4.86-.007s-1.32-10.375-3.053-12.838c-.633-.893-1.012-1.491-1.253-1.967 2.218 10.214 2.494 23.894 2.494 23.894l.029 2.076H71.651c-3.867-.404-4.777-4.647-4.777-4.647s-1.037 4.179-4.438 4.647H50.453l.064-2.069h.016s.306-15.561 2.95-25.885c-1.543.606-8.639 3.304-10.83 2.505-3.05-1.1-7.53-10.544-7.53-10.544z"/><path fill="#eeeeed" d="M89.394 92.033c1.46-11.381 1.722-15.416-5.126-16.01-.628-1.262-1.665-7.74-1.665-7.74s7.272 1.06 9.389 3.87c2.21 2.931 2.398 20.232-2.598 19.88"/><path fill="#d0d0d0" d="m84.303 76.039-.068-.033c.665-1.231 5.167-.62 5.355-.594l-.01.062c-.052-.006-4.651-.618-5.277.565"/><path fill="#fff" d="m66.66 69.012-.783-1.111-1.952-4.471-2.282-13.713c1.677-.248 3.104-.312 3.104-.312l1.796.064h.15l1.787-.045a33.5 33.5 0 0 1 3.4.33L69.31 63.43l-2.117 4.786z"/><path fill="#666767" d="M66.753 54.988a.604.604 0 0 0-.601.606c0 .341.264.62.601.62a.613.613 0 1 0 0-1.227m0 1.286a.676.676 0 0 1-.673-.68c0-.376.305-.667.673-.667a.67.67 0 0 1 .483 1.15.677.677 0 0 1-.483.197m0 2.717a.604.604 0 0 0-.601.607c0 .34.264.618.601.618a.613.613 0 0 0 0-1.225m0 1.29a.681.681 0 0 1 .004-1.36.678.678 0 0 1 .479 1.16.681.681 0 0 1-.483.199"/><path fill="#fff" d="M66.626 49.502c0 1.335-3.607 4.01-3.607 4.01l-.02-.017c-.235.205-.506.325-.832.267-.531-.089-.378-.356-.651-.741-.297-.382-.555-.504-.704-1.034-.169-.683-.178-1.417-.128-2.106 2.047-.378 4.064-.458 4.064-.458l1.793.079h.085"/><path fill="#666767" d="M60.717 49.91c-.058.811-.019 1.494.13 2.07.1.363.26.529.444.723.076.093.169.182.254.294.09.137.142.25.171.356.077.197.128.319.454.372.296.054.55-.035.804-.26l.025-.015.02.025c.294-.223 3.517-2.675 3.577-3.941h-.056l-1.792-.077c-.013 0-2.016.085-4.031.453m1.619 3.896c-.054 0-.114 0-.17-.016-.376-.065-.437-.218-.508-.416-.043-.102-.086-.207-.169-.331a2.883 2.883 0 0 0-.252-.292c-.184-.207-.353-.375-.454-.751-.153-.592-.192-1.285-.124-2.12v-.028h.025a33.459 33.459 0 0 1 4.064-.465l1.792.083h.12v.033c0 1.332-3.47 3.927-3.616 4.04l-.025.017-.02-.023c-.215.184-.434.27-.663.27"/><path fill="#fff" d="M72.137 52.222c-.325.885-.85 1.281-1.77 1.281l-.08.01s-3.608-2.677-3.608-4.01h.013l1.788-.068a32.73 32.73 0 0 1 3.97.412c.221.734-.068 1.723-.312 2.375"/><path fill="#666767" d="M66.713 49.535c.055 1.28 3.36 3.782 3.585 3.943l.066-.014c.898 0 1.419-.373 1.74-1.25.375-1 .482-1.78.323-2.334a32.067 32.067 0 0 0-3.949-.41zm3.572 4.013-.01-.006c-.15-.112-3.622-2.706-3.622-4.04v-.032h.039l1.786-.064c.03 0 1.991.064 3.978.408h.016l.019.025c.167.573.064 1.376-.32 2.4-.337.893-.884 1.299-1.803 1.299z"/><path fill="#4f4f4f" d="M66.672 69.024C62.457 66.243 59.896 56.7 59.896 56.7l1.14-2.21-2.245-.572-.545-3.401c1.182-.453 2.763-.728 4.062-.89 1.012 5.572 4.364 19.397 4.364 19.397"/><path fill="#4f4f4f" d="M66.626 69.024s3.364-13.825 4.366-19.397c1.307.162 2.88.437 4.068.89l-.543 3.401-2.247.572 1.138 2.21s-2.557 9.543-6.782 12.324m.78 3.257a.65.65 0 1 1-1.299 0c0-.364.296-.654.647-.654.35 0 .652.29.652.654m0 2.861a.65.65 0 0 1-1.299 0c0-.354.296-.646.647-.646.35 0 .652.292.652.646m0 2.936c0 .362-.301.65-.652.65a.65.65 0 0 1-.647-.65.65.65 0 0 1 .647-.644c.35 0 .652.29.652.644"/><path fill="#9b6c40" d="M89.66 28.492c1.19.772 1.972 2.073 1.972 3.557 0 2.362-1.989 4.272-4.432 4.272h-.21c-3.97 7.124-11.576 11.944-20.31 11.944-8.72 0-16.33-4.829-20.297-11.963a5.72 5.72 0 0 1-.493.02c-2.452 0-4.436-1.91-4.436-4.272 0-1.589.906-2.982 2.242-3.718a24.16 24.16 0 0 1-.237-3.337c0-12.85 10.402-23.27 23.221-23.27 12.84 0 23.242 10.42 23.242 23.27a24.34 24.34 0 0 1-.262 3.498" data-paper-data="{&quot;origPos&quot;:null}"/><path fill="#3b2711" d="M60.229 25.106c-.772-.174-.908-1.201-3.386-.74-.779.18-2.417 1.156-2.732 1.808-.316.652-.088-2.392 2.457-3.522 1.835-.675 2.457-.642 3.977-.642s1.987.907 1.766 1.65c0 0-.503 1.803-2.082 1.446zm13.905 0c.772-.174.908-1.201 3.386-.74.779.18 2.417 1.156 2.732 1.808.316.652.087-2.392-2.457-3.522-1.835-.675-2.457-.642-3.977-.642s-1.987.907-1.766 1.65c0 0 .503 1.803 2.082 1.446z" data-paper-data="{&quot;origPos&quot;:null}"/><path fill="#343434" d="M58 34.01c-1.105 0-2-1.343-2-3s.895-3 2-3 2 1.343 2 3-.895 3-2 3zm18 0c-1.105 0-2-1.343-2-3s.895-3 2-3 2 1.343 2 3-.895 3-2 3z"/><path fill="#eeac6c" d="M67.02 34.079c-1.125.153-3.02 1.834-3.02 1.834s.207-1.009.503-1.299c.8-1.156 2.487-1.604 2.487-1.604s2.173.703 2.65 1.588c.443.824.34 1.238.34 1.238s-2.121-1.871-2.96-1.756zM60.2 37.706s6.897 3.208 13.172-.397c0 0-1.39 5.47-5.95 5.561-4.115.122-4.984-1.492-5.477-1.956-.492-.463-1.42-1.772-1.745-3.208"/><path fill="#3b2711" d="M90.842 21.956c.037 2.737-.915 8.652-2.78 12.174 0 0-4.57-12.95-8.332-15-4.598-2.514-16.725 1.111-20.84-2.142-.677-.538-.6-1.762-.6-1.762s-.785 1.555-1.163 1.984c-1.986 2.271-7.162 5.561-9.616 7.33-1.963 1.42-2.061 1.4-1.623 9.59 0 0-3.622-7.449-3.422-12.427.056-1.429.754-4.607 1.884-7.841C48.433 5.64 56.898 0 66.703 0c11.239 0 20.739 7.447 23.856 17.689.177 1.572.274 3.051.283 4.268" data-paper-data="{&quot;origPos&quot;:null}"/><path fill="#9b6c40" d="M64.877 50.933c-1.088 0-1.962-2.334-1.962-3.404h7.724c0 1.07-.875 3.404-1.962 3.404h-3.8" data-paper-data="{&quot;origPos&quot;:null}"/><path fill="#eeac6c" d="M63.82 50.191c-.44-.656-.82-1.562-.892-2.226 1.231.196 2.487.3 3.775.3 1.328 0 2.644-.109 3.922-.329l-.016.015-6.789 2.24"/><path fill="#d0d0d0" d="M71.387 50.221c1.033.776.963 4.767-.27 5.154-1.028.331-3.073-1.862-4.011-2.935-.082.227-.252.38-.446.38-.208 0-.388-.165-.468-.405-.915 1.063-2.997 3.291-4.04 2.96-1.229-.387-1.293-4.378-.26-5.154.797-.601 3.354.805 4.358 1.399.088-.178.237-.292.41-.292.153 0 .306.11.398.276 1.009-.598 3.53-1.985 4.33-1.383"/></g></svg>