<svg xmlns="http://www.w3.org/2000/svg" width="62.603" height="116.886"><g fill-rule="evenodd" stroke-miterlimit="10" data-paper-data="{&quot;isPaintingLayer&quot;:true}" style="mix-blend-mode:normal"><path fill="#815b22" d="M0 47.352c8.126 12.663 18.963 2.096 15.277-9.094-2.675-8.126 11.853 2.64 11.853 2.64S18.622 64.45 11.243 64.804C3.866 65.154-.02 53.629 0 47.352" data-paper-data="{&quot;origPos&quot;:null}"/><path fill="#c09669" d="M28.665 110.973h-.007V99.401h10.025l-.454 11.572h-.009c1.794 1.116 3.095 3.385 1.56 5.237-1.159 1.3-2.868.274-4.163-.274-1.433-.688-3.076-1.168-4.37-2.06-.84-.589-1.825-1.23-2.392-2.106-.173-.272-.258-.546-.19-.797m-10.869 0h-.002l-.46-11.572h10.024v11.572h-.002c.066.261-.02.525-.192.797-.57.876-1.556 1.517-2.392 2.106-1.297.892-2.933 1.372-4.37 2.06-1.298.548-3.005 1.575-4.163.274-1.536-1.852-.233-4.125 1.557-5.237" data-paper-data="{&quot;origPos&quot;:null}"/><path fill="#eeeeed" d="M28.675 107.117h9.705l-.154 3.888h-.006c.311.191.604.442.872.697v2.492H31.66a8.105 8.105 0 0 1-.418-.264c-.839-.589-1.822-1.238-2.388-2.119-.172-.27-.26-.548-.198-.806h.02v-3.889z"/><path fill="#5a5a5a" d="m38.363 107.56-.009.192h-9.679v-.192zm-.017.385-.006.19h-9.664v-.19z"/><path fill="#eeeeed" d="M16.232 112.497a5.46 5.46 0 0 1 1.561-1.49h-.006l-.154-3.892h9.711v3.892h.01c.065.255-.02.536-.196.806-.565.878-1.55 1.523-2.387 2.11a8.073 8.073 0 0 1-.416.27h-8.123v-1.697z"/><path fill="#5a5a5a" d="M27.344 107.752h-9.683l-.009-.193h9.692zm0 .383h-9.666l-.009-.19h9.675z"/><path fill="#0771b7" d="m38.202 111.007.024-.011v.01h-.007c1.792 1.149 3.094 3.397 1.56 5.246-1.16 1.305-2.87.278-4.169-.27-1.43-.686-3.07-1.166-4.369-2.055-.838-.59-1.822-1.239-2.387-2.115-.173-.272-.26-.55-.198-.806v-1.723s.115-.175.516 0c.791.35 1.31 1.918 2.997 1.723 4.175-1.168 6.033 0 6.033 0"/><path fill="#333433" d="m28.98 111.994.204-.19s2.15 2.185 4 2.723l-.164.35c-.627-.275-1.233-.575-1.777-.95-.78-.549-1.685-1.147-2.264-1.933"/><path fill="#0e618e" d="M38.27 112.197c.47 0 .93.039 1.373.105.002.006.006.01.008.015.888 1.17 1.195 2.649.128 3.936-1.16 1.303-2.87.277-4.168-.27-.99-.475-2.084-.852-3.09-1.332 1.15-1.466 3.295-2.454 5.748-2.454"/><path fill="#e63744" d="M28.71 109.477c.402 0 .73.748.73 1.671 0 .45-.077.86-.205 1.16a4.244 4.244 0 0 1-.38-.496c-.174-.272-.26-.55-.198-.805v-1.526c.017-.004.034-.004.052-.004"/><path fill="#0771b7" d="M17.811 111.006s1.86-1.168 6.03 0c1.688.195 2.21-1.373 3-1.723.401-.175.516 0 .516 0v1.723c.062.256-.02.534-.198.806-.565.876-1.55 1.525-2.387 2.115-1.3.889-2.938 1.369-4.372 2.055-1.297.548-3.003 1.575-4.162.27-1.538-1.849-.236-4.097 1.556-5.246h-.007v-.01l.024.011"/><path fill="#333433" d="M27.034 111.994c-.578.786-1.485 1.384-2.264 1.933-.544.375-1.148.675-1.775.95l-.168-.35c1.856-.538 4-2.723 4-2.723l.207.19"/><path fill="#0e618e" d="M17.742 112.197c2.455 0 4.602.988 5.754 2.454-1.007.48-2.1.857-3.096 1.332-1.295.547-3.004 1.573-4.162.27-1.07-1.287-.764-2.766.126-3.936 0-.005.006-.009.008-.015a9.28 9.28 0 0 1 1.37-.105"/><path fill="#e63744" d="M27.304 109.477c.02 0 .037 0 .052.004v1.526c.063.255-.02.533-.197.805a4.036 4.036 0 0 1-.384.496c-.126-.3-.2-.71-.2-1.16 0-.923.326-1.671.73-1.671"/><path fill="#c09669" d="M4.211 77.514c.108-1.016.445-1.923.928-2.623-.003.047-.009.068-.009.068s1.432-14.41 5.163-19.198c1.71-2.198 7.616-5.38 8.31-5.749 1.298-.945 4.238-1.376 6.066-1.547-.307-.673-.493-1.412-.493-1.948H31.9c0 .536-.177 1.26-.48 1.933 1.796.176 4.766.604 6.12 1.547l3.117 1.123c3.456-1.74 8.685 3.126 8.685 3.126l5.598-6.602v.002a4.658 4.658 0 0 1-.21-.852c-.357-.656-.65-1.477-.833-2.394-.463-2.398.055-4.517 1.158-4.731.587-.116 1.23.338 1.765 1.15 1.188-1.144 2.653-1.624 3.878-1.103 1.87.797 2.466 3.636 1.33 6.336-.735 1.736-2.002 2.994-3.314 3.46l.006.003s-3.494 9.954-6.534 11.061c-2.462.898-11.45-2.73-11.45-2.73v-.015c1.69 10.346-.079 26.141-.079 26.141H15.36s-1.516-14.338-.162-24.645v.007c-.198.546-1.293 1.519-2.159 2.751-1.734 2.46-3.353 12.868-3.353 12.868.038.07.077.141.11.214.442.433.87 1.012 1.227 1.69.941 1.78 1.04 3.575.22 4.012-.442.236-1.05.03-1.67-.482-.664 1.192-1.707 1.922-2.797 1.807-1.666-.176-2.816-2.274-2.564-4.68" data-paper-data="{&quot;origPos&quot;:null}"/><path fill="#eeac6c" d="m31.073 49.083-6.87-2.276-.01-.012c2.544.434 5.143.443 7.69.028-.07.668-.375 1.594-.81 2.26m3.49 13.462c1.856 0 3.17-.328 3.978-.992.69-.564 1.018-1.384 1.018-2.43h-.13c0 1.046-.316 1.791-.969 2.33-1.474 1.21-4.71 1.28-9.898.224l-.022.127c2.422.495 4.42.741 6.023.741m-13.302 0c-1.859 0-3.173-.328-3.98-.992-.688-.564-1.02-1.384-1.02-2.43h.13c0 1.046.317 1.791.97 2.33 1.474 1.21 4.71 1.28 9.9.224l.024.127c-2.425.495-4.424.741-6.024.741m6.64-2.048h.13v-2.938h-.13zm17.226-4.261c.25 0 .495-.007.72-.024 1.1-.071 2.185-.283 3.23-.63l-.046-.12c-.013.005-1.406.504-3.193.622-1.645.107-3.973-.103-5.716-1.704l-.087.097c1.536 1.407 3.51 1.759 5.092 1.759m-35.004 3.237c-.049-.18-.39-1.41-.486-2.739.042-.07.087-.137.123-.205.068.99.233 1.97.495 2.927v.038l-1.595 5.3-.12-.037z"/><path fill="#0771b7" d="M14.936 61.737c1.941.037 3.823-6.377 3.844-12.471l.002-.013c1.13-.718 3.243-1.11 4.9-1.314 0 0 .308 11.178 4.273 11.167 3.962-.009 4.188-11.162 4.188-11.162 1.502.175 3.35.499 4.514 1.086.141.073.256.13.376.208 0 0 .006.2.034.534.147 1.744 1.163 10.88 4.06 11.119.99 8.12.915 15.334.448 20.696-.156 1.825-.489 2.927-.489 2.927s-2.174 9.752-2.402 14.907H28.66c.041-1.304-.503-7.504-.503-7.504h-.288s-.567 5.807-.51 7.504H17.34c-.27-4.373-2.56-14.907-2.56-14.907s-.363-1.108-.559-2.932c-.533-4.888-.277-12.398.715-19.845"/><path fill="#e63744" d="m37.034 49.238-.005-.004s.005 0 .005.003zm-.005-.004c0-.004 0-.002 0 0m.625 50.215 3.51-15.204-4.945 15.204zm-19.44 0L14.7 84.245l4.945 15.204zm17.792-50.696c-.548 3.107 2.511 11.685 5.114 12.081-.124-.656-.03-.478-.188-1.086-2.899-.238-3.718-8.231-3.865-9.975-.028-.337-.034-.534-.034-.534-.12-.079-.236-.135-.376-.208a6.811 6.811 0 0 0-.65-.278M14.841 62.455c2.687.347 5.7-10.301 5.077-13.725a5.296 5.296 0 0 0-1.137.523l-.002.013c-.02 6.094-2.364 12.281-3.844 12.471-.056.274-.04.438-.094.718m13.13-1.937c-4.095.008-5.072-9.101-5.29-12.44.344-.051.681-.101 1-.139 0 0 .308 11.179 4.272 11.168 3.964-.01 4.19-11.164 4.19-11.164.34.039.678.084 1.015.135-.192 3.33-1.107 12.426-5.188 12.439"/><path fill="#c09669" d="M5.473 27.627a23.06 23.06 0 0 1-.256-3.435c0-12.608 10.176-22.834 22.73-22.834 12.558 0 22.736 10.226 22.736 22.834 0 1.115-.08 2.21-.23 3.279 1.31.722 2.192 2.083 2.192 3.647 0 2.317-1.94 4.194-4.337 4.194-.166 0-.324-.009-.482-.026-3.882 7.007-11.328 11.747-19.878 11.747-8.538 0-15.98-4.731-19.866-11.726a6.382 6.382 0 0 1-.2.005c-2.4 0-4.344-1.877-4.344-4.194 0-1.457.766-2.736 1.935-3.49" data-paper-data="{&quot;origPos&quot;:null}"/><path fill="#815b22" d="M24.24 21.417s-.503 1.803-2.082 1.446c-.772-.174-.908-1.201-3.386-.74-.779.18-2.417 1.156-2.732 1.808-.316.652-.088-2.392 2.457-3.522 1.835-.675 2.457-.642 3.977-.642s1.987.907 1.766 1.65m9.741 0s.503 1.803 2.082 1.446c.772-.174.908-1.201 3.386-.74.78.18 2.417 1.156 2.732 1.808.316.652.087-2.392-2.457-3.522-1.835-.675-2.457-.642-3.977-.642s-1.987.907-1.766 1.65M21.93 28.767c0 1.657-.896 3-2 3-1.106 0-2-1.343-2-3s.894-3 2-3c1.104 0 2 1.343 2 3m18 0c0 1.657-.896 3-2 3-1.106 0-2-1.343-2-3s.894-3 2-3c1.104 0 2 1.343 2 3" data-paper-data="{&quot;origPos&quot;:null}"/><path fill="#eeac6c" d="M28.95 31.836c-1.126.153-3.02 1.834-3.02 1.834s.206-1.009.502-1.299c.8-1.156 2.487-1.604 2.487-1.604s2.173.703 2.65 1.588c.443.824.34 1.238.34 1.238s-2.12-1.871-2.96-1.756zM22.13 35.463s6.896 3.208 13.171-.397c0 0-1.39 5.47-5.95 5.561-4.115.122-4.984-1.492-5.477-1.956-.492-.463-1.42-1.772-1.745-3.208"/><path fill="#815b22" d="M51.49 21.443c.032 2.668-1.152 6.38-1.152 6.38s-6.004-7.14-9.664-9.144c-4.482-2.449-6.716 1.157-10.718-2.016-.663-.53-1.9-1.92-1.9-1.92s-1.505 1.526-1.906 1.92c-4.497 4.425-7.872-.742-11.663 1.933C9.67 21.999 5.59 27.66 5.59 27.66s-1.397-1.607-1.205-6.465c.057-1.401.736-4.504 1.83-7.659C10.195 5.511 18.442 0 27.977 0c10.945 0 20.2 7.273 23.24 17.269.155 1.387.246 2.78.273 4.175" data-paper-data="{&quot;origPos&quot;:null}"/></g></svg>