<svg xmlns="http://www.w3.org/2000/svg" width="58.685" height="117.467"><g fill-rule="evenodd" stroke-miterlimit="10" data-paper-data="{&quot;isPaintingLayer&quot;:true}" style="mix-blend-mode:normal"><path fill="#795a4c" d="M50.279 59.101c3.576 4.579 4.95 18.352 4.95 18.352l-.006-.062c.461.666.784 1.535.887 2.503.244 2.303-.858 4.306-2.457 4.475-1.046.112-2.046-.587-2.683-1.73-.593.493-1.178.69-1.6.466-.787-.418-.692-2.137.207-3.838.343-.645.755-1.2 1.178-1.614.033-.068.07-.138.106-.204 0 0-1.555-9.946-3.212-12.3-.833-1.18-1.37-1.84-1.56-2.363-.153-.42-.32-1.22-.389-1.527-.533-2.359-3.451-7.686-3.451-7.686s6.287 3.298 8.03 5.528M1.937 43.765c1.174-.498 2.581-.04 3.72 1.056.515-.776 1.127-1.21 1.69-1.103 1.059.207 1.555 2.232 1.11 4.523-.169.873-.452 1.663-.795 2.292a4.751 4.751 0 0 1-.205.811l5.37 6.313 11.385-4.085s-1.933 3.077-2.412 4.196c-.345.818-1.021 3.408-1.021 3.408s-8.316 3.387-10.678 2.528C7.182 62.644 3.836 53.13 3.836 53.13l.003-.002c-1.257-.445-2.472-1.647-3.175-3.307-1.095-2.582-.52-5.296 1.273-6.055" data-paper-data="{&quot;origPos&quot;:null}"/><path fill="#616160" d="M34.016 111.648c-.06.257.02.578.194.84.554.859 1.522 1.548 2.342 2.125 1.275.871 2.88 1.323 4.29 1.993 1.271.535 2.947 1.508 4.084.233 1.506-1.81.23-4.107-1.53-5.191zm-1.28 0c.062.257-.017.578-.192.84-.552.859-1.519 1.548-2.342 2.125-1.275.871-2.881 1.323-4.288 1.993-1.273.535-2.947 1.508-4.086.233-1.507-1.81-.229-4.107 1.529-5.191z"/><path fill="#333433" d="m45.511 86.075-1.917 25.638H33.89l-.372-18.54h-.282l-.372 18.54h-9.703l-1.915-25.639z"/><path fill="#f6b90c" d="M14.532 56.812s2.364-1.095 10.385-3.487c2.23-1.067 6.729-1.324 6.729-1.324l1.715.056h.145l1.713-.023s5.103.205 7.13 1.455v.006c7.874 3.04 10.178 7.982 10.178 7.982-.808 3.188-5.336 3.193-5.336 3.193l-.44-.648c1.961 9.693 2.211 22.047 2.211 22.047H17.907s.295-14.888 2.837-24.78l-4.864 1.936s-2.157-3.726-1.347-6.413"/><path fill="#795a4c" d="M55.514 31.962c1.141.734 1.893 1.988 1.893 3.407 0 2.264-1.903 4.097-4.255 4.097-.067 0-.133 0-.197-.005-3.81 6.833-11.1 11.45-19.47 11.45-8.376 0-15.671-4.626-19.478-11.47a4.244 4.244 0 0 1-.472.025c-2.345 0-4.25-1.833-4.25-4.097 0-1.524.868-2.853 2.153-3.558a22.38 22.38 0 0 1-.227-3.199c0-12.318 9.974-22.301 22.274-22.301 12.305 0 22.279 9.983 22.279 22.301 0 1.138-.085 2.257-.25 3.35" data-paper-data="{&quot;origPos&quot;:null}"/><path fill="#fff" d="M25.016 33.54c0 1.384-.826 2.503-1.85 2.503-1.018 0-1.845-1.119-1.845-2.503 0-1.382.827-2.504 1.846-2.504 1.023 0 1.85 1.122 1.85 2.504m19.857 0c0 1.384-.827 2.503-1.848 2.503-1.02 0-1.847-1.119-1.847-2.503 0-1.382.826-2.504 1.847-2.504s1.848 1.122 1.848 2.504"/><path fill="#343434" d="M24.312 34.231c0 .854-.51 1.55-1.145 1.55-.63 0-1.143-.696-1.143-1.55 0-.859.513-1.55 1.143-1.55.634 0 1.145.691 1.145 1.55m19.859 0c0 .854-.512 1.55-1.145 1.55-.63 0-1.144-.696-1.144-1.55 0-.859.514-1.55 1.144-1.55.633 0 1.145.691 1.145 1.55"/><path fill="#4f2a11" d="M20.207 30.475c1.817-1.122 4.49-1.833 4.49-1.833.32-.592.034-1.598-.386-1.658-1.333-.19-4.104 3.49-4.104 3.49m25.787.001c-1.819-1.122-4.493-1.833-4.493-1.833-.316-.592-.033-1.598.388-1.658 1.333-.19 4.105 3.49 4.105 3.49" data-paper-data="{&quot;origPos&quot;:null}"/><path fill="#ad6920" d="M56.648 25.701c.036 2.622-.88 8.288-2.664 11.668 0 0-4.38-12.412-7.99-14.38-4.41-2.402-16.039 1.061-19.983-2.052-.654-.518-.58-1.689-.58-1.689s-.754 1.492-1.118 1.908c-1.912 2.174-6.865 5.328-9.213 7.018-1.893 1.364-1.98 1.344-1.563 9.194 0 0-3.474-7.141-3.281-11.911.054-1.374.719-4.419 1.804-7.516 3.918-7.879 12.044-13.287 21.431-13.287 10.782 0 19.9 7.14 22.89 16.953.153 1.36.242 2.726.267 4.094"/><path fill="#795a4c" d="M31.749 53.472c-1.039 0-1.882-2.239-1.882-3.263h7.406c0 1.024-.841 3.263-1.884 3.263H31.75" data-paper-data="{&quot;origPos&quot;:null}"/><path fill="#eeac6c" d="M30.662 52.781a5.375 5.375 0 0 1-.78-2.158c1.174.188 2.379.29 3.608.29 1.263 0 2.525-.106 3.77-.319l-.012.014-6.587 2.173"/><path fill="#dbdbdb" d="M48.836 31.474c.376 1.347 1.093 4.782-.186 6.502-1.991 2.672-11.251-.897-13.318-3.51-.739-.934-.777-3.003-1.629-2.998-.853 0-.882 2.075-1.62 3.008-2.066 2.611-11.327 6.159-13.315 3.486-1.282-1.719-.565-5.141-.188-6.484l-8.705-1.295h47.393z"/><path fill="#c4c4c4" d="M22.027 32.56a.572.572 0 0 1-.171.794l-1.992 1.29a.578.578 0 0 1-.792-.172l-.006-.007a.575.575 0 0 1 .171-.794l1.995-1.287a.573.573 0 0 1 .791.172zm-.817 2.817a.641.641 0 1 1-1.282-.002.641.641 0 0 1 1.282.002"/><path fill="#333433" d="m57.268 30.164-8.432 1.301c.005.019.038.076.015.074-5.735-1.193-14.895 0-14.895 0a.478.478 0 0 0-.508 0s-8.558-1.357-14.884 0c-.021.002.012-.055.016-.072l-8.704-1.303z"/><path fill="#cc3a48" d="M10.82 22.295s8.035-7.198 22.51-7.198c11.915 0 22.957 7.198 22.957 7.198 0 11.51-6.016 8.853-11.414 6.848-11.541-4.289-11.541-4.289-23.426-.163-5.158 1.789-10.627 4.175-10.627-6.685"/><path fill="#2aa73f" d="M12.186 21.251a28.445 28.445 0 0 1 2.63-1.622l2.154 10.727c-.966.188-1.87.24-2.676.048zm39.756-1.342a56.94 56.94 0 0 1 2.672 1.394l-2.192 9.523c-.811.16-1.708.097-2.656-.093z"/><path fill="#e63744" d="M10.727 22.321C8.404 19.993 16.163.701 33.719.701c17.017 0 25.043 19.103 22.533 21.619-23.639-6.134-45.525 0-45.525 0"/><path fill="#333433" d="M10.728 28.01C8.405 25.682 8.94 0 33.72 0c24.184 0 25.044 25.494 22.53 28.01-.572-.149-1.71 1.301-1.71 1.301 5.064-35.898-46.935-36.209-42.287.044l-1.526-1.345"/><path fill="#0c5d89" d="M15.28 33.376c-1.424-4.26-3.732-7.322-5.156-6.844-1.428.476-2.895 5.019-1.473 9.277 1.421 4.254 5.201 6.617 6.627 6.139 1.424-.478 1.424-4.316.002-8.572m36.195 0c1.424-4.26 3.737-7.322 5.159-6.844 1.426.476 2.893 5.019 1.471 9.277-1.422 4.254-5.202 6.617-6.623 6.139-1.428-.478-1.428-4.316-.007-8.572m-7.179 20.26c2.398 7.632 6.542 28.077 4.67 32.6-1.925 2.131-14.205.097-15.41-.11-1.207.207-13.497 2.241-15.423.11-1.873-4.523 2.265-24.968 4.662-32.6 1.354-1.168 6.451-1.538 6.451-1.538l4.31 5.715 4.299-5.715s5.088.371 6.442 1.537"/><path fill="#373737" d="M47.79 68.572c.023.115.044.231.064.351v17.916a.58.58 0 0 1-.064.016zm.254 1.43c.023.124.044.25.064.37v16.38a.78.78 0 0 1-.064.025zm.257 16.677V71.518c.02.132.044.265.064.395V86.65c-.021.007-.044.02-.065.03zm.254-.127V73.147c.023.142.043.285.062.428v12.941c-.019.01-.039.025-.062.037zm.258-11.617.062.481v10.91l-.062.056zm.253 11.019v-8.963c.022.199.046.391.066.584v8.165c-.021.076-.044.147-.066.215zm.258-6.245c.022.349.043.689.062 1.024v3.323a17.39 17.39 0 0 1-.062.653zm-9.708-27.423c.02.005.041.009.062.01v34.649c-.02-.004-.042-.006-.062-.008zm.257.039c.02.002.042.004.062.01v34.632a.666.666 0 0 1-.062-.004zm.254 34.659V52.361c.021.003.041.005.064.01v34.62l-.064-.006zm.256-34.584c.021.002.044.004.062.01v34.602l-.062-.004zm.254.042c.024 0 .044.008.064.012v34.579l-.064-.004zm.255.042c.023.006.044.008.064.014v34.554c-.021 0-.041 0-.064-.002zm.256.049c.021.004.041.01.064.013v34.53c-.023-.006-.044-.006-.064-.006zm.254 34.553V52.582c.023.004.044.006.065.013v34.497c-.021-.003-.042-.003-.065-.005zm.259.019V52.637l.062.012v34.459l-.063-.003zm.254-34.413c.021.007.044.008.064.017v34.415l-.064-.002zm.256.061c.021.006.042.014.062.016v34.37c-.02 0-.042 0-.062-.002zm.255.067c.022.008.044.01.064.018v34.316c-.021-.002-.042-.002-.064-.006zm.256.071c.021.008.042.012.062.018v34.256c-.021-.002-.042-.002-.062-.002zm.254.081a.474.474 0 0 1 .064.02v34.181h-.064zm.257.086c.02.004.041.014.062.021v34.102h-.062zm.252 34.134V53.155l.066.03v34.006h-.066zm.258.004V53.268l.064.03v33.9c-.023-.003-.044-.003-.064-.003zm.254-33.798c.023.015.044.03.065.04V87.2h-.065zm.257.169a.778.778 0 0 1 .064.052v33.582h-.064zm.254.628c.023.071.044.142.064.214V87.2h-.064zm.256 33.003V55.07c.021.072.044.148.064.225v31.902h-.064zm.255-31.214.064.234v30.975h-.064zm.258.954.062.244v30h-.062zm.252 30.237V57.933l.066.252v28.987c-.02.003-.043.003-.065.003zm.259-28.217.062.265v27.933c-.021.002-.042.002-.062.002zM46 60.025c.025.088.043.18.066.27v26.843c-.021.002-.041.002-.066.002zm.258 1.097.062.28v25.713l-.062.004zm.252 1.135c.023.094.044.193.067.29v24.538l-.067.004zm.259 24.802v-23.63l.062.296V87.05a.646.646 0 0 1-.062.01zm.252-22.416c.025.101.043.205.066.308v22.06c-.023.002-.041.008-.066.01zm.258 22.332V65.901l.064.322v20.74l-.063.012zm.255-19.767c.023.111.043.223.062.335v19.363c-.019.005-.039.011-.062.015zM31.442 86.455V55.01l.062.085v31.351c-.018.002-.039.008-.062.01zm.255-.036v-31.07l.062.083V86.41a.276.276 0 0 0-.062.01zm.256-30.731.062.083v30.6c-.019.002-.039.008-.062.01zm.254.341.064.082v30.222c-.02.002-.044.008-.064.01zm.257.334.062.087v29.845c-.019 0-.04.004-.062.008zm.256.341.062.083v29.466a.319.319 0 0 1-.062.008zm.254 29.517v-29.18l.064.085v29.087c-.02.003-.041.007-.064.009zm.257-.04V57.379l.062.085v28.705c-.019.006-.042.008-.063.012zm.254-.041V57.718l.062.087v28.321c-.02.005-.041.01-.062.013zm.256-28.575.062-.083v28.684l-.062-.008zm.255 28.635V57.227l.064-.083v29.065c-.024-.003-.044-.005-.064-.01zm.256-29.313.062-.085v29.45c-.019-.004-.042-.01-.062-.01zm.256-.341.062-.083v29.829c-.021-.004-.042-.007-.062-.013zm.254-.338.065-.085V86.33l-.065-.008zm.257-.339.062-.083v30.583l-.062-.008zm.254-.342.064-.08v30.96l-.064-.009zm.256 30.908V55.191l.062-.086v31.338c-.018-.002-.041-.004-.061-.008zm.255.033V54.85l.064-.085v31.717c-.021-.005-.044-.007-.064-.013zm.256-31.956.062-.085v32.09a.617.617 0 0 1-.062-.01zm.256 32.03v-32.37l.062-.085v32.466c-.018-.002-.041-.008-.062-.01zm.255.036V53.835l.064-.083v32.835a.731.731 0 0 0-.065-.01zm.256-33.084.062-.084v33.21l-.062-.008zm.254-.339.064-.085v33.585c-.02-.007-.044-.007-.064-.01zm.256-.342.062-.08v33.953c-.018-.004-.041-.004-.062-.006zm.255-.336.064-.083v34.324c-.023-.004-.044-.006-.064-.008zm.256-.338.027-.04.035.002V86.75l-.062-.008V52.138zm.256-.022c.017.002.042.004.062.008v34.654l-.062-.009zm.255.023a.601.601 0 0 0 .064.008v34.66c-.021-.004-.044-.004-.064-.007zm.256.028c.02.003.041.005.062.005v34.665a.32.32 0 0 1-.062-.01zm.254 34.689V52.196l.064.006v34.661l-.063-.006zm.257-34.632.062.006v34.66c-.022-.002-.042-.002-.062-.006zm.254.033c.021.002.044.002.064.006v34.651c-.021 0-.044 0-.064-.004z"/><path fill="#1d1d1d" d="m33.395 57.599.16.213.162-.213v28.556a3.173 3.173 0 0 0-.162-.027c-.039.006-.095.014-.161.027V57.599z"/><path fill="#0c5d89" d="M44.022 69.717a3.897 3.897 0 1 1-7.793 0v-5.622a3.9 3.9 0 0 1 3.897-3.902 3.898 3.898 0 0 1 3.896 3.902v5.623z"/><path fill="#5a5a5a" d="m3.343 31.141 8.335 53.985-1.37 1.527-8.54-55.27z"/><path fill="#333433" d="m1.571 30.102 8.538 55.27-2.604.401-.959-6.203.928-.844L0 30.345z"/><path fill="#c16c17" d="M10.165 80.529s-2.153-1.208-3.391.526L4.052 66.45a1.948 1.948 0 1 1 3.848-.596l2.264 14.675"/><path fill="#5a5a5a" d="m3.754 31.077 7.903 54.097-.012.002-8.347-54.029z"/><path fill="#333433" d="m4.293 34.766-.426.066-.3-1.947.441-.066zm.549 3.771-.393.065-.3-1.95.408-.061zm.553 3.774-.362.056-.301-1.947.378-.056zm.551 3.772-.333.052-.301-1.947.349-.05zm.551 3.772-.302.048-.3-1.947.317-.05zm.551 3.772-.27.04-.3-1.945.287-.041zm.551 3.775-.238.035-.303-1.947.256-.04zm.551 3.772-.209.03-.3-1.946.224-.033zm.553 3.769-.18.027-.297-1.943.19-.033zM6.915 88.741c.574-.09 1.17.664 1.329 1.688.157 1.02-.182 1.922-.76 2.01-.575.09-1.17-.665-1.33-1.687-.159-1.022.184-1.924.761-2.01m-.02-.115c-.61.096-.97 1.051-.803 2.133.166 1.087.798 1.887 1.408 1.792.612-.095.973-1.05.808-2.135-.17-1.084-.802-1.885-1.414-1.79"/><path fill="#333433" d="m8.214 90.114.09.47.033.571-.135.021c-1.231.757-1.451-.487-1.395-.76.454 1.153 1.222.855 1.244-.277l.164-.024z"/><path fill="#c16c17" d="M6.249 116.575c-3.427-3.191 1.118-13.703-1.356-18.692 3.265-.796 3.342-7.388 3.342-7.388l2.604-.406c-1.372 8.382 1.903 25.482 1.903 25.482s-5.29 2.125-6.493 1.003"/><path fill="#333433" d="M11.305 87.898c.138.573.888.862 1.173 1.16.356.37.831 1.627-.18 2.05.151-.738-.152-1.348-.479-1.607-.198-.155-.746-.31-.855-.536-.127-.252.272-1.336.34-1.067"/><path fill="#a5a4a3" d="m8.511 81.888 1.034-.162.562 3.646s.851.292 1.57-.246c0 0 .058 4.082-.839 4.963-.47.464-2.604.406-2.604.406L6.941 82.13a.795.795 0 0 1 1.57-.242"/><path fill="#333433" d="M12.178 112.319a1.005 1.005 0 0 1-.233.066l-.02.004a.978.978 0 0 1-1.115-.813l-1.874-12.15c-.083-.532 1.455-1.054 1.668-.847.27 5.06 1.037 10.421 1.574 13.74"/><path fill="#795a4c" d="M8.844 47.928c-.324 2.187-1.41 3.836-2.418 3.685-1.008-.15-1.566-2.045-1.238-4.234.327-2.186 1.408-3.838 2.418-3.686 1.013.15 1.565 2.046 1.238 4.235" data-paper-data="{&quot;origPos&quot;:null}"/><path fill="#eeac6c" d="M33.43 38.334c-1.125.153-3.02 1.834-3.02 1.834s.207-1.009.503-1.299c.8-1.156 2.487-1.604 2.487-1.604s2.173.703 2.65 1.588c.443.824.34 1.238.34 1.238s-2.121-1.871-2.96-1.756zM26.61 41.961s6.897 3.208 13.172-.397c0 0-1.39 5.47-5.95 5.561-4.115.122-4.984-1.492-5.477-1.956-.492-.463-1.42-1.772-1.745-3.208"/></g></svg>