<svg version="1.1" xmlns="http://www.w3.org/2000/svg" xmlns:xlink="http://www.w3.org/1999/xlink" width="58.68472" height="117.46731" viewBox="0,0,58.68472,117.46731"><g transform="translate(-210.59,-120.735)"><g data-paper-data="{&quot;isPaintingLayer&quot;:true}" fill-rule="evenodd" stroke="none" stroke-width="1" stroke-linecap="butt" stroke-linejoin="miter" stroke-miterlimit="10" stroke-dasharray="" stroke-dashoffset="0" style="mix-blend-mode: normal"><path d="M260.86896,179.836c3.576,4.579 4.95,18.352 4.95,18.352l-0.006,-0.062c0.461,0.666 0.784,1.535 0.887,2.503c0.244,2.303 -0.858,4.306 -2.457,4.475c-1.046,0.112 -2.046,-0.587 -2.683,-1.73c-0.593,0.493 -1.178,0.69 -1.6,0.466c-0.787,-0.418 -0.692,-2.137 0.207,-3.838c0.343,-0.645 0.755,-1.2 1.178,-1.614c0.033,-0.068 0.07,-0.138 0.106,-0.204c0,0 -1.555,-9.946 -3.212,-12.3c-0.833,-1.18 -1.37,-1.84 -1.56,-2.363c-0.153,-0.42 -0.32,-1.22 -0.389,-1.527c-0.533,-2.359 -3.451,-7.686 -3.451,-7.686c0,0 6.287,3.298 8.03,5.528M212.52696,164.5c1.174,-0.498 2.581,-0.04 3.72,1.056c0.515,-0.776 1.127,-1.21 1.69,-1.103c1.059,0.207 1.555,2.232 1.11,4.523c-0.169,0.873 -0.452,1.663 -0.795,2.292c-0.04436,0.27583 -0.11295,0.54722 -0.205,0.811l5.37,6.313l11.385,-4.085c0,0 -1.933,3.077 -2.412,4.196c-0.345,0.818 -1.021,3.408 -1.021,3.408c0,0 -8.316,3.387 -10.678,2.528c-2.919,-1.06 -6.265,-10.574 -6.265,-10.574l0.003,-0.002c-1.257,-0.445 -2.472,-1.647 -3.175,-3.307c-1.095,-2.582 -0.52,-5.296 1.273,-6.055" data-paper-data="{&quot;origPos&quot;:null}" fill="#795a4c"/><path d="M244.606,232.383c-0.06,0.257 0.02,0.578 0.194,0.84c0.554,0.859 1.522,1.548 2.342,2.125c1.275,0.871 2.88,1.323 4.29,1.993c1.271,0.535 2.947,1.508 4.084,0.233c1.506,-1.81 0.23,-4.107 -1.53,-5.191zM243.326,232.383c0.062,0.257 -0.017,0.578 -0.192,0.84c-0.552,0.859 -1.519,1.548 -2.342,2.125c-1.275,0.871 -2.881,1.323 -4.288,1.993c-1.273,0.535 -2.947,1.508 -4.086,0.233c-1.507,-1.81 -0.229,-4.107 1.529,-5.191z" fill="#616160"/><path d="M256.101,206.81l-1.917,25.638h-9.704l-0.372,-18.54h-0.282l-0.372,18.54h-9.703l-1.915,-25.639z" fill="#333433"/><path d="M225.122,177.547c0,0 2.364,-1.095 10.385,-3.487c2.23,-1.067 6.729,-1.324 6.729,-1.324l1.715,0.056h0.145l1.713,-0.023c0,0 5.103,0.205 7.13,1.455v0.006c7.874,3.04 10.178,7.982 10.178,7.982c-0.808,3.188 -5.336,3.193 -5.336,3.193l-0.44,-0.648c1.961,9.693 2.211,22.047 2.211,22.047h-31.055c0,0 0.295,-14.888 2.837,-24.78l-4.864,1.936c0,0 -2.157,-3.726 -1.347,-6.413" fill="#f6b90c"/><path d="M266.104,152.697c1.141,0.734 1.893,1.988 1.893,3.407c0,2.264 -1.903,4.097 -4.255,4.097c-0.067,0 -0.133,0 -0.197,-0.005c-3.81,6.833 -11.1,11.45 -19.47,11.45c-8.376,0 -15.671,-4.626 -19.478,-11.47c-0.153,0.017 -0.308,0.025 -0.472,0.025c-2.345,0 -4.25,-1.833 -4.25,-4.097c0,-1.524 0.868,-2.853 2.153,-3.558c-0.151,-1.045 -0.227,-2.115 -0.227,-3.199c0,-12.318 9.974,-22.301 22.274,-22.301c12.305,0 22.279,9.983 22.279,22.301c0,1.138 -0.085,2.257 -0.25,3.35" data-paper-data="{&quot;origPos&quot;:null}" fill="#795a4c"/><path d="M235.606,154.275c0,1.384 -0.826,2.503 -1.85,2.503c-1.018,0 -1.845,-1.119 -1.845,-2.503c0,-1.382 0.827,-2.504 1.846,-2.504c1.023,0 1.85,1.122 1.85,2.504M255.464,154.275c0,1.384 -0.827,2.503 -1.848,2.503c-1.02,0 -1.847,-1.119 -1.847,-2.503c0,-1.382 0.826,-2.504 1.847,-2.504c1.021,0 1.848,1.122 1.848,2.504" fill="#ffffff"/><path d="M234.902,154.966c0,0.854 -0.51,1.55 -1.145,1.55c-0.63,0 -1.143,-0.696 -1.143,-1.55c0,-0.859 0.513,-1.55 1.143,-1.55c0.634,0 1.145,0.691 1.145,1.55M254.761,154.966c0,0.854 -0.512,1.55 -1.145,1.55c-0.63,0 -1.144,-0.696 -1.144,-1.55c0,-0.859 0.514,-1.55 1.144,-1.55c0.633,0 1.145,0.691 1.145,1.55" fill="#343434"/><path d="M230.797,151.21c1.817,-1.122 4.49,-1.833 4.49,-1.833c0.32,-0.592 0.034,-1.598 -0.386,-1.658c-1.333,-0.19 -4.104,3.49 -4.104,3.49M256.584,151.21c-1.819,-1.122 -4.493,-1.833 -4.493,-1.833c-0.316,-0.592 -0.033,-1.598 0.388,-1.658c1.333,-0.19 4.105,3.49 4.105,3.49" data-paper-data="{&quot;origPos&quot;:null}" fill="#4f2a11"/><path d="M267.238,146.436c0.036,2.622 -0.88,8.288 -2.664,11.668c0,0 -4.38,-12.412 -7.99,-14.38c-4.41,-2.402 -16.039,1.061 -19.983,-2.052c-0.654,-0.518 -0.58,-1.689 -0.58,-1.689c0,0 -0.754,1.492 -1.118,1.908c-1.912,2.174 -6.865,5.328 -9.213,7.018c-1.893,1.364 -1.98,1.344 -1.563,9.194c0,0 -3.474,-7.141 -3.281,-11.911c0.054,-1.374 0.719,-4.419 1.804,-7.516c3.918,-7.879 12.044,-13.287 21.431,-13.287c10.782,0 19.9,7.14 22.89,16.953c0.15299,1.35974 0.24209,2.72591 0.267,4.094" fill="#ad6920"/><path d="M242.339,174.207c-1.039,0 -1.882,-2.239 -1.882,-3.263h7.406c0,1.024 -0.841,3.263 -1.884,3.263h-3.639" data-paper-data="{&quot;origPos&quot;:null}" fill="#795a4c"/><path d="M241.252,173.516c-0.418,-0.635 -0.712,-1.521 -0.78,-2.158c1.174,0.188 2.379,0.29 3.608,0.29c1.26342,0.00023 2.52459,-0.10648 3.77,-0.319l-0.012,0.014l-6.587,2.173" fill="#eeac6c"/><path d="M259.426,152.209c0.376,1.347 1.093,4.782 -0.186,6.502c-1.991,2.672 -11.251,-0.897 -13.318,-3.51c-0.739,-0.934 -0.777,-3.003 -1.629,-2.998c-0.853,0 -0.882,2.075 -1.62,3.008c-2.066,2.611 -11.327,6.159 -13.315,3.486c-1.282,-1.719 -0.565,-5.141 -0.188,-6.484l-8.705,-1.295h47.393z" fill="#dbdbdb"/><path d="M232.617,153.295c0.08324,0.12779 0.112,0.28353 0.07989,0.43262c-0.03211,0.14909 -0.12243,0.27918 -0.25089,0.36138l-1.992,1.29c-0.26671,0.16836 -0.61915,0.09182 -0.792,-0.172l-0.006,-0.007c-0.17164,-0.26655 -0.09514,-0.62173 0.171,-0.794l1.995,-1.287c0.26599,-0.17058 0.61986,-0.09363 0.791,0.172zM231.8,156.112c0,0.35 -0.285,0.64 -0.64,0.64c-0.35429,0 -0.6415,-0.28721 -0.6415,-0.6415c0,-0.35429 0.28721,-0.6415 0.6415,-0.6415c0.17026,0 0.3335,0.06784 0.45361,0.18851c0.12011,0.12067 0.18719,0.28423 0.18639,0.45449" fill="#c4c4c4"/><path d="M267.858,150.899l-8.432,1.301c0.005,0.019 0.038,0.076 0.015,0.074c-5.735,-1.193 -14.895,0 -14.895,0c-0.15532,-0.09743 -0.35268,-0.09743 -0.508,0c0,0 -8.558,-1.357 -14.884,0c-0.021,0.002 0.012,-0.055 0.016,-0.072l-8.704,-1.303z" fill="#333433"/><path d="M221.41,143.03c0,0 8.035,-7.198 22.51,-7.198c11.915,0 22.957,7.198 22.957,7.198c0,11.51 -6.016,8.853 -11.414,6.848c-11.541,-4.289 -11.541,-4.289 -23.426,-0.163c-5.158,1.789 -10.627,4.175 -10.627,-6.685" fill="#cc3a48"/><path d="M222.776,141.986c0.84663,-0.58792 1.72459,-1.12938 2.63,-1.622l2.154,10.727c-0.966,0.188 -1.87,0.24 -2.676,0.048zM262.532,140.644c0.90281,0.44101 1.79379,0.90584 2.672,1.394l-2.192,9.523c-0.811,0.16 -1.708,0.097 -2.656,-0.093z" fill="#2aa73f"/><path d="M221.317,143.056c-2.323,-2.328 5.436,-21.62 22.992,-21.62c17.017,0 25.043,19.103 22.533,21.619c-23.639,-6.134 -45.525,0 -45.525,0" fill="#e63744"/><path d="M221.318,148.745c-2.323,-2.328 -1.788,-28.01 22.992,-28.01c24.184,0 25.044,25.494 22.53,28.01c-0.572,-0.149 -1.71,1.301 -1.71,1.301c5.064,-35.898 -46.935,-36.209 -42.287,0.044l-1.526,-1.345" fill="#333433"/><path d="M225.87,154.111c-1.424,-4.26 -3.732,-7.322 -5.156,-6.844c-1.428,0.476 -2.895,5.019 -1.473,9.277c1.421,4.254 5.201,6.617 6.627,6.139c1.424,-0.478 1.424,-4.316 0.002,-8.572M262.065,154.111c1.424,-4.26 3.737,-7.322 5.159,-6.844c1.426,0.476 2.893,5.019 1.471,9.277c-1.422,4.254 -5.202,6.617 -6.623,6.139c-1.428,-0.478 -1.428,-4.316 -0.007,-8.572M254.886,174.371c2.398,7.632 6.542,28.077 4.67,32.6c-1.925,2.131 -14.205,0.097 -15.41,-0.11c-1.207,0.207 -13.497,2.241 -15.423,0.11c-1.873,-4.523 2.265,-24.968 4.662,-32.6c1.354,-1.168 6.451,-1.538 6.451,-1.538l4.31,5.715l4.299,-5.715c0,0 5.088,0.371 6.442,1.537" fill="#0c5d89"/><path d="M258.38,189.307c0.023,0.115 0.044,0.231 0.064,0.351v17.916c-0.02101,0.00654 -0.04238,0.01189 -0.064,0.016zM258.634,190.737c0.023,0.124 0.044,0.25 0.064,0.37v16.38c-0.02095,0.00927 -0.04231,0.01761 -0.064,0.025zM258.891,207.414v-15.161c0.02,0.132 0.044,0.265 0.064,0.395v14.737c-0.021,0.007 -0.044,0.02 -0.065,0.03zM259.145,207.287v-13.405c0.02283,0.14234 0.0435,0.28503 0.062,0.428v12.941c-0.019,0.01 -0.039,0.025 -0.062,0.037zM259.403,195.67l0.062,0.481v10.91l-0.062,0.056zM259.656,206.689v-8.963c0.022,0.199 0.046,0.391 0.066,0.584v8.165c-0.021,0.076 -0.044,0.147 -0.066,0.215zM259.914,200.444c0.022,0.349 0.043,0.689 0.062,1.024v3.323c-0.019,0.231 -0.037,0.446 -0.062,0.653zM250.206,173.021c0.02029,0.00534 0.04106,0.00869 0.062,0.01v34.649c-0.02,-0.004 -0.042,-0.006 -0.062,-0.008zM250.463,173.06c0.02,0.002 0.042,0.004 0.062,0.01v34.632c-0.019,0 -0.042,-0.002 -0.062,-0.004zM250.717,207.719v-34.623c0.021,0.003 0.041,0.005 0.064,0.01v34.62l-0.064,-0.006zM250.973,173.135c0.021,0.002 0.044,0.004 0.062,0.01v34.602l-0.062,-0.004zM251.227,173.177c0.024,0 0.044,0.008 0.064,0.012v34.579l-0.064,-0.004zM251.482,173.219c0.023,0.006 0.044,0.008 0.064,0.014v34.554c-0.021,0 -0.041,0 -0.064,-0.002zM251.738,173.268c0.021,0.004 0.041,0.01 0.064,0.013v34.53c-0.023,-0.006 -0.044,-0.006 -0.064,-0.006zM251.992,207.821v-34.504c0.023,0.004 0.044,0.006 0.065,0.013v34.497c-0.021,-0.003 -0.042,-0.003 -0.065,-0.005zM252.251,207.84v-34.468l0.062,0.012v34.459l-0.063,-0.003zM252.505,173.427c0.021,0.007 0.044,0.008 0.064,0.017v34.415l-0.064,-0.002zM252.761,173.488c0.021,0.006 0.042,0.014 0.062,0.016v34.37c-0.02,0 -0.042,0 -0.062,-0.002zM253.016,173.555c0.022,0.008 0.044,0.01 0.064,0.018v34.316c-0.021,-0.002 -0.042,-0.002 -0.064,-0.006zM253.272,173.626c0.021,0.008 0.042,0.012 0.062,0.018v34.256c-0.021,-0.002 -0.042,-0.002 -0.062,-0.002zM253.526,173.707c0.02178,0.00515 0.04316,0.01183 0.064,0.02v34.181h-0.064zM253.783,173.793c0.02,0.004 0.041,0.014 0.062,0.021v34.102h-0.062zM254.035,207.927v-34.037l0.066,0.03v34.006h-0.066zM254.293,207.931v-33.928l0.064,0.03v33.9c-0.023,-0.003 -0.044,-0.003 -0.064,-0.003zM254.547,174.133c0.023,0.015 0.044,0.03 0.065,0.04v33.762h-0.065zM254.804,174.302c0.02224,0.01619 0.0436,0.03355 0.064,0.052v33.582h-0.064zM255.058,174.93c0.02257,0.07096 0.04391,0.1423 0.064,0.214v32.791h-0.064zM255.314,207.933v-32.128c0.021,0.072 0.044,0.148 0.064,0.225v31.902h-0.064zM255.569,176.719l0.064,0.234v30.975h-0.064zM255.827,177.673l0.062,0.244v30h-0.062zM256.079,207.91v-29.242c0.02328,0.08366 0.04528,0.16767 0.066,0.252v28.987c-0.02,0.003 -0.043,0.003 -0.065,0.003zM256.338,179.693l0.062,0.265v27.933c-0.021,0.002 -0.042,0.002 -0.062,0.002zM256.59,180.76c0.025,0.088 0.043,0.18 0.066,0.27v26.843c-0.021,0.002 -0.041,0.002 -0.066,0.002zM256.848,181.857l0.062,0.28v25.713l-0.062,0.004zM257.1,182.992c0.023,0.094 0.044,0.193 0.067,0.29v24.538l-0.067,0.004zM257.359,207.794v-23.63l0.062,0.296v23.325c-0.02049,0.00434 -0.04118,0.00767 -0.062,0.01zM257.611,185.378c0.025,0.101 0.043,0.205 0.066,0.308v22.06c-0.023,0.002 -0.041,0.008 -0.066,0.01zM257.869,207.71v-21.074l0.064,0.322v20.74l-0.063,0.012zM258.124,187.943c0.02266,0.11129 0.04333,0.22297 0.062,0.335v19.363c-0.019,0.005 -0.039,0.011 -0.062,0.015zM242.032,207.19v-31.445l0.062,0.085v31.351c-0.018,0.002 -0.039,0.008 -0.062,0.01zM242.287,207.154v-31.07l0.062,0.083v30.978c-0.02098,0.00096 -0.04178,0.00432 -0.062,0.01zM242.543,176.423l0.062,0.083v30.6c-0.019,0.002 -0.039,0.008 -0.062,0.01zM242.797,176.764l0.064,0.082v30.222c-0.02,0.002 -0.044,0.008 -0.064,0.01zM243.054,177.098l0.062,0.087v29.845c-0.019,0 -0.04,0.004 -0.062,0.008zM243.31,177.439l0.062,0.083v29.466c-0.019,0.004 -0.042,0.008 -0.062,0.008zM243.564,206.956v-29.18l0.064,0.085v29.087c-0.02,0.003 -0.041,0.007 -0.064,0.009zM243.821,206.916v-28.802l0.062,0.085v28.705c-0.019,0.006 -0.042,0.008 -0.063,0.012zM244.075,206.875v-28.422l0.062,0.087v28.321c-0.02054,0.00493 -0.04121,0.00927 -0.062,0.013zM244.331,178.3l0.062,-0.083v28.684l-0.062,-0.008zM244.586,206.935v-28.973l0.064,-0.083v29.065c-0.024,-0.003 -0.044,-0.005 -0.064,-0.01zM244.842,177.622l0.062,-0.085v29.45c-0.019,-0.004 -0.042,-0.01 -0.062,-0.01zM245.098,177.281l0.062,-0.083v29.829c-0.021,-0.004 -0.042,-0.007 -0.062,-0.013zM245.352,176.943l0.065,-0.085v30.207l-0.065,-0.008zM245.609,176.604l0.062,-0.083v30.583l-0.062,-0.008zM245.863,176.262l0.064,-0.08v30.96l-0.064,-0.009zM246.119,207.17v-31.244l0.062,-0.086v31.338c-0.018,-0.002 -0.041,-0.004 -0.061,-0.008zM246.374,207.203v-31.618l0.064,-0.085v31.717c-0.021,-0.005 -0.044,-0.007 -0.064,-0.013zM246.63,175.247l0.062,-0.085v32.09c-0.021,-0.002 -0.042,-0.006 -0.062,-0.01zM246.886,207.277v-32.37l0.062,-0.085v32.466c-0.018,-0.002 -0.041,-0.008 -0.062,-0.01zM247.141,207.313v-32.743l0.064,-0.083v32.835c-0.02151,-0.00431 -0.04319,-0.00764 -0.065,-0.01zM247.397,174.229l0.062,-0.084v33.21l-0.062,-0.008zM247.651,173.89l0.064,-0.085v33.585c-0.02,-0.007 -0.044,-0.007 -0.064,-0.01zM247.907,173.548l0.062,-0.08v33.953c-0.018,-0.004 -0.041,-0.004 -0.062,-0.006zM248.162,173.212l0.064,-0.083v34.324c-0.023,-0.004 -0.044,-0.006 -0.064,-0.008zM248.418,172.874l0.027,-0.04l0.035,0.002v34.649l-0.062,-0.008v-34.604zM248.674,172.852c0.017,0.002 0.042,0.004 0.062,0.008v34.654l-0.062,-0.009zM248.929,172.875c0.02117,0.00381 0.04254,0.00648 0.064,0.008v34.66c-0.021,-0.004 -0.044,-0.004 -0.064,-0.007zM249.185,172.903c0.02052,0.00311 0.04124,0.00478 0.062,0.005v34.665c-0.02094,-0.00129 -0.04171,-0.00464 -0.062,-0.01zM249.439,207.592v-34.661l0.064,0.006v34.661l-0.063,-0.006zM249.696,172.96l0.062,0.006v34.66c-0.022,-0.002 -0.042,-0.002 -0.062,-0.006zM249.95,172.993c0.021,0.002 0.044,0.002 0.064,0.006v34.651c-0.021,0 -0.044,0 -0.064,-0.004z" fill="#373737"/><path d="M243.985,178.334l0.16,0.213l0.162,-0.213v28.556c-0.067,-0.013 -0.12,-0.021 -0.162,-0.027c-0.039,0.006 -0.095,0.014 -0.161,0.027v-28.556z" fill="#1d1d1d"/><path d="M254.612,190.452c0.02254,1.40696 -0.71516,2.7168 -1.93001,3.42687c-1.21485,0.71007 -2.71814,0.71007 -3.93299,0c-1.21485,-0.71007 -1.95255,-2.01991 -1.93001,-3.42687v-5.622c-0.00111,-2.15352 1.74348,-3.90034 3.897,-3.902c1.03416,0.00053 2.02572,0.41199 2.75642,1.14382c0.7307,0.73182 1.14064,1.72402 1.13958,2.75818v5.623z" fill="#0c5d89"/><path d="M213.933,151.876l8.335,53.985l-1.37,1.527l-8.54,-55.27z" fill="#5a5a5a"/><path d="M212.161,150.837l8.538,55.27l-2.604,0.401l-0.959,-6.203l0.928,-0.844l-7.474,-48.381z" fill="#333433"/><path d="M220.755,201.264c0,0 -2.153,-1.208 -3.391,0.526l-2.722,-14.605c-0.16395,-1.06355 0.56464,-2.05887 1.628,-2.224c1.0624,-0.16269 2.05583,0.56583 2.22,1.628l2.264,14.675" fill="#c16c17"/><path d="M214.344,151.812l7.903,54.097l-0.012,0.002l-8.347,-54.029z" fill="#5a5a5a"/><path d="M214.883,155.501l-0.426,0.066l-0.3,-1.947l0.441,-0.066zM215.432,159.272l-0.393,0.065l-0.3,-1.95l0.408,-0.061zM215.985,163.046l-0.362,0.056l-0.301,-1.947l0.378,-0.056zM216.536,166.818l-0.333,0.052l-0.301,-1.947l0.349,-0.05zM217.087,170.59l-0.302,0.048l-0.3,-1.947l0.317,-0.05zM217.638,174.362l-0.27,0.04l-0.3,-1.945l0.287,-0.041zM218.189,178.137l-0.238,0.035l-0.303,-1.947l0.256,-0.04zM218.74,181.909l-0.209,0.03l-0.3,-1.946l0.224,-0.033zM219.293,185.678l-0.18,0.027l-0.297,-1.943l0.19,-0.033zM217.505,209.476c0.574,-0.09 1.17,0.664 1.329,1.688c0.157,1.02 -0.182,1.922 -0.76,2.01c-0.575,0.09 -1.17,-0.665 -1.33,-1.687c-0.159,-1.022 0.184,-1.924 0.761,-2.01M217.485,209.362c-0.61,0.096 -0.97,1.051 -0.803,2.133c0.166,1.087 0.798,1.887 1.408,1.792c0.612,-0.095 0.973,-1.05 0.808,-2.135c-0.17,-1.084 -0.802,-1.885 -1.414,-1.79" fill="#333433"/><path d="M218.804,210.849l0.09,0.47l0.033,0.571l-0.135,0.021c-1.231,0.757 -1.451,-0.487 -1.395,-0.76c0.454,1.153 1.222,0.855 1.244,-0.277l0.164,-0.024z" fill="#333433"/><path d="M216.839,237.31c-3.427,-3.191 1.118,-13.703 -1.356,-18.692c3.265,-0.796 3.342,-7.388 3.342,-7.388l2.604,-0.406c-1.372,8.382 1.903,25.482 1.903,25.482c0,0 -5.29,2.125 -6.493,1.003" fill="#c16c17"/><path d="M221.895,208.633c0.138,0.573 0.888,0.862 1.173,1.16c0.356,0.37 0.831,1.627 -0.18,2.05c0.151,-0.738 -0.152,-1.348 -0.479,-1.607c-0.198,-0.155 -0.746,-0.31 -0.855,-0.536c-0.127,-0.252 0.272,-1.336 0.34,-1.067" fill="#333433"/><path d="M219.101,202.623l1.034,-0.162l0.562,3.646c0,0 0.851,0.292 1.57,-0.246c0,0 0.058,4.082 -0.839,4.963c-0.47,0.464 -2.604,0.406 -2.604,0.406l-1.293,-8.365c-0.04679,-0.42325 0.24822,-0.8082 0.66908,-0.87307c0.42086,-0.06487 0.81809,0.21338 0.90092,0.63107" fill="#a5a4a3"/><path d="M222.768,233.054c-0.07472,0.03131 -0.15296,0.05347 -0.233,0.066l-0.02,0.004c-0.53209,0.0821 -1.03046,-0.28129 -1.115,-0.813l-1.874,-12.15c-0.083,-0.532 1.455,-1.054 1.668,-0.847c0.27,5.06 1.037,10.421 1.574,13.74" fill="#333433"/><path d="M219.434,168.663c-0.324,2.187 -1.41,3.836 -2.418,3.685c-1.008,-0.15 -1.566,-2.045 -1.238,-4.234c0.327,-2.186 1.408,-3.838 2.418,-3.686c1.013,0.15 1.565,2.046 1.238,4.235" data-paper-data="{&quot;origPos&quot;:null}" fill="#795a4c"/><path d="M244.02,159.069c-1.125,0.153 -3.02,1.834 -3.02,1.834c0,0 0.207,-1.009 0.503,-1.299c0.8,-1.156 2.487,-1.604 2.487,-1.604c0,0 2.173,0.703 2.65,1.588c0.443,0.824 0.34,1.238 0.34,1.238c0,0 -2.121,-1.871 -2.96,-1.756z" fill="#eeac6c"/><path d="M237.2,162.696c0,0 6.897,3.208 13.172,-0.397c0,0 -1.39,5.47 -5.95,5.561c-4.115,0.122 -4.984,-1.492 -5.477,-1.956c-0.492,-0.463 -1.42,-1.772 -1.745,-3.208" fill="#eeac6c"/></g></g></svg>