<svg version="1.1" xmlns="http://www.w3.org/2000/svg" xmlns:xlink="http://www.w3.org/1999/xlink" width="73.0047" height="117.67841" viewBox="0,0,73.0047,117.67841"><g transform="translate(-203.02897,-121.17329)"><g data-paper-data="{&quot;isPaintingLayer&quot;:true}" fill-rule="evenodd" stroke="none" stroke-width="1" stroke-linecap="butt" stroke-linejoin="miter" stroke-miterlimit="10" stroke-dasharray="" stroke-dashoffset="0" style="mix-blend-mode: normal"><path d="M276.033,214.514c0.092,11.707 -9.305,21.277 -20.995,21.37c-11.685,0.094 -21.236,-9.324 -21.328,-21.033c-0.095,-11.712 9.306,-21.282 20.99,-21.374c11.69,-0.095 21.24,9.328 21.333,21.037" fill="#303030"/><path d="M267.572,214.581c0.055,7.027 -5.585,12.769 -12.603,12.827c-7.017,0.055 -12.747,-5.597 -12.8,-12.626c-0.057,-7.036 5.583,-12.777 12.598,-12.833c7.017,-0.055 12.75,5.596 12.805,12.632" fill="#d6d8d6"/><path d="M257.471,214.66c0.01221,1.43861 -1.14242,2.61561 -2.581,2.631c-1.43771,0.00831 -2.61054,-1.1493 -2.621,-2.587c-0.00639,-0.69063 0.26184,-1.35552 0.74569,-1.84837c0.48385,-0.49285 1.14368,-0.7733 1.83431,-0.77963c0.69068,-0.00612 1.35539,0.26294 1.84735,0.74776c0.49196,0.48483 0.77069,1.14554 0.77465,1.83624" fill="#303030"/><path d="M255.54,210.795c0.00108,0.38649 -0.31086,0.70095 -0.69735,0.70296c-0.38649,0.00201 -0.70169,-0.30918 -0.70462,-0.69567c-0.00294,-0.38648 0.3075,-0.70243 0.69398,-0.70629c0.38775,-0.00002 0.70316,0.31227 0.707,0.7M255.6,218.588c0.00331,0.3866 -0.3074,0.70269 -0.694,0.706c-0.3866,0.00331 -0.70269,-0.3074 -0.706,-0.694c-0.0028,-0.38794 0.30711,-0.70589 0.695,-0.713c0.38735,0.00108 0.70171,0.31366 0.705,0.701M251.68,214.719c0.01573,0.25881 -0.11269,0.50516 -0.33386,0.64048c-0.22117,0.13532 -0.49898,0.1375 -0.72225,0.00567c-0.22327,-0.13183 -0.35554,-0.37613 -0.34388,-0.63516c-0.00059,-0.38477 0.30826,-0.69853 0.693,-0.704c0.38616,-0.00278 0.70206,0.30686 0.707,0.693M252.17,212.794c0.00222,0.38787 -0.31013,0.70425 -0.698,0.707c-0.18535,0.00187 -0.36373,-0.07059 -0.49527,-0.20119c-0.13154,-0.1306 -0.20528,-0.30845 -0.20473,-0.49381c-0.00348,-0.186 0.06723,-0.36574 0.1965,-0.49951c0.12928,-0.13378 0.30648,-0.21059 0.4925,-0.21349c0.38863,-0.00003 0.70507,0.3124 0.71,0.701M253.574,211.365c0.00222,0.38787 -0.31013,0.70425 -0.698,0.707c-0.18511,0.00106 -0.36302,-0.07166 -0.49438,-0.20208c-0.13136,-0.13042 -0.20536,-0.30781 -0.20562,-0.49292c-0.00504,-0.38614 0.30193,-0.70426 0.688,-0.713c0.38863,-0.00003 0.70507,0.3124 0.71,0.701M259.46,214.656c0.00278,0.38782 -0.3082,0.70506 -0.696,0.71c-0.38693,0.00055 -0.70135,-0.31208 -0.703,-0.699c-0.00331,-0.38605 0.30695,-0.70169 0.693,-0.705c0.38605,-0.00331 0.70169,0.30695 0.705,0.693M257.538,212.751c0.005,0.388 0.32,0.7 0.708,0.697c0.38536,-0.00657 0.69335,-0.3226 0.69,-0.708c-0.0011,-0.38692 -0.31508,-0.7 -0.702,-0.7c-0.38819,0.00494 -0.69934,0.32279 -0.696,0.711M256.113,211.345c0.004,0.388 0.32,0.7 0.707,0.697c0.38583,-0.00549 0.69445,-0.32216 0.69,-0.708c0,-0.186 -0.07402,-0.36435 -0.20573,-0.49568c-0.13171,-0.13133 -0.31027,-0.20485 -0.49627,-0.20432c-0.3878,0.00549 -0.69834,0.32318 -0.695,0.711M252.2,216.641c-0.00275,-0.38842 -0.31958,-0.70122 -0.708,-0.699c-0.38614,0.00658 -0.69446,0.32383 -0.69,0.71c0.00078,0.18484 0.07538,0.36172 0.20721,0.49129c0.13183,0.12957 0.30996,0.20111 0.49479,0.19871c0.1852,0 0.36273,-0.0739 0.49322,-0.20533c0.13048,-0.13142 0.20312,-0.30948 0.20178,-0.49467M253.625,218.043c-0.00548,-0.38623 -0.32073,-0.69613 -0.707,-0.695c-0.38743,0.00331 -0.69881,0.32007 -0.6955,0.7075c0.00331,0.38743 0.32007,0.69881 0.7075,0.6955c0.18618,-0.00132 0.36416,-0.07675 0.49459,-0.20962c0.13043,-0.13286 0.20255,-0.31221 0.20041,-0.49838M257.57,216.598c-0.00223,-0.3876 0.30843,-0.70452 0.696,-0.71c0.38621,0 0.69945,0.31279 0.7,0.699c0.00186,0.18441 -0.06974,0.36197 -0.19901,0.4935c-0.12927,0.13152 -0.30557,0.20619 -0.48999,0.2075c-0.18538,0.00267 -0.36418,-0.06863 -0.49685,-0.19811c-0.13268,-0.12949 -0.2083,-0.3065 -0.21015,-0.49189M256.167,218.023c-0.00005,-0.38566 0.30939,-0.69999 0.695,-0.706c0.38427,-0.00001 0.69671,0.30975 0.7,0.694c0.00331,0.38522 -0.30628,0.70019 -0.6915,0.7035c-0.38522,0.00331 -0.70019,-0.30628 -0.7035,-0.6915" fill="#9b9a9a"/><path d="M254.644,178.639c3.713,4.675 5.235,18.819 5.235,18.819c0,0 -0.005,-0.02 -0.007,-0.065c0.479,0.681 0.82,1.574 0.933,2.566c0.27,2.364 -0.843,4.431 -2.49,4.62c-1.07,0.125 -2.103,-0.588 -2.768,-1.753c-0.604,0.51 -1.205,0.713 -1.64,0.487c-0.808,-0.418 -0.728,-2.188 0.187,-3.942c0.30961,-0.61324 0.71089,-1.17569 1.19,-1.668c0.037,-0.074 0.074,-0.141 0.109,-0.215c0,0 -1.672,-10.212 -3.397,-12.616c-0.869,-1.2 -1.426,-1.874 -1.622,-2.412c-0.161,-0.429 -0.338,-1.257 -0.412,-1.562c-0.569,-2.425 -3.609,-7.876 -3.609,-7.876c0,0 6.488,3.334 8.291,5.617M204.882,163.271c1.2,-0.521 2.648,-0.062 3.827,1.055c0.523,-0.805 1.145,-1.253 1.727,-1.142c1.092,0.196 1.613,2.277 1.175,4.633c-0.164,0.898 -0.447,1.713 -0.797,2.359c-0.046,0.298 -0.11,0.577 -0.205,0.835l5.564,6.448l11.663,-4.29c0,0 -1.965,3.17 -2.441,4.332c-0.355,0.846 -1.023,3.512 -1.023,3.512c0,0 -8.514,3.547 -10.946,2.687c-3.006,-1.07 -6.522,-10.82 -6.522,-10.82l0.007,-0.003c-1.3,-0.45 -2.557,-1.673 -3.29,-3.367c-1.144,-2.651 -0.58,-5.444 1.26,-6.24" fill="#005784"/><path d="M254.963,197.022c0,0 -1.374,-9.75 -3.097,-12.16c-0.088,-0.122 -0.175,-0.242 -0.253,-0.358c0.317,9.61 -1.91,21.898 -1.91,21.898l-24.918,0.199c0,0 -2.882,-14.823 -1.596,-25.118c-0.585,0.27 -7.532,3.086 -9.862,2.26c-3.001,-1.064 -7.494,-10.325 -7.494,-10.325l4.765,-2.4l5.61,6.425l10.569,-4.237c2.077,-1.387 8.413,-1.657 8.413,-1.657l1.761,0.037h0.15l1.76,-0.067c0,0 6.317,0.152 8.431,1.498c0.855,0.464 5.58,3.08 7.223,5.148c3.714,4.678 5.43,18.819 5.43,18.819l-4.982,0.037" fill="#f08314"/><path d="M255.359,197.017c0,0 -1.384,-10.21 -3.104,-12.616c-0.088,-0.123 -0.177,-0.245 -0.253,-0.358c0.009,0.351 0.023,0.713 0.024,1.071c-0.047,-0.095 -0.107,-0.173 -0.16,-0.252c-0.088,-0.122 -0.175,-0.242 -0.254,-0.358c0.238,7.115 -0.925,15.7 -1.545,19.676l-25.234,0.025c-0.723,-4.35 -2.257,-15.148 -1.26,-23.19c-0.585,0.277 -7.524,3.092 -9.852,2.269c-2.741,-0.972 -6.7,-8.726 -7.395,-10.113l2.445,-1.232c1.541,2.852 4.565,8.107 6,8.202c1.971,0.138 8.235,-2.402 11.008,-3.102c5.861,-1.472 22.194,-0.919 24.164,-0.219c4.981,1.749 6.812,8.91 7.581,20.185l-2.164,0.012" fill="#ffffff"/><path d="M254.963,197.022c0,0 -1.374,-9.75 -3.097,-12.16c-0.088,-0.122 -0.175,-0.242 -0.253,-0.358c0.246,7.406 -1.018,16.406 -1.615,20.142l-25.561,0.021c-0.716,-4.346 -2.253,-15.146 -1.248,-23.184c-0.585,0.27 -7.532,3.086 -9.862,2.26c-3.001,-1.064 -7.494,-10.325 -7.494,-10.325l2.434,-1.223c1.504,2.795 4.643,8.31 6.118,8.409c1.973,0.139 8.235,-2.402 11.01,-3.103c5.856,-1.477 22.191,-0.914 24.161,-0.222c4.975,1.754 6.805,8.455 7.579,19.728l-2.172,0.014" fill="#0771b7"/><path d="M207.938,177.32c-1.23,-2.102 -2.105,-3.9 -2.105,-3.9l4.765,-2.4l2.94,3.365l-5.6,2.935M254.963,197.021c0,0 -0.257,-1.832 -0.69,-4.1l4.905,-0.815c0.521,2.813 0.767,4.878 0.767,4.878l-4.982,0.037" fill="#565657"/><path d="M235.401,185.271l-9.963,0.078c0,0 -0.66,-2.97 -0.027,-3.611c1.745,-1.784 9.96,-0.079 9.96,-0.079z" fill="#e63744"/><path d="M249.874,190.15l-10.163,0.08l-0.019,-2.23c0,0 8.35,-1.872 10.163,-0.081c0.399,0.39 0.019,2.231 0.019,2.231" fill="#2baae2"/><path d="M249.874,190.15l-10.163,0.08l-0.005,-0.46l10.246,-0.081zM235.765,189.341l-10.559,0.083l-0.023,-2.624l10.56,-0.083z" fill="#f7b90b"/><path d="M236.74,188.084c0.00533,0.57525 -0.2183,1.129 -0.62159,1.53924c-0.40329,0.41023 -0.95316,0.64327 -1.52841,0.64776c-1.19381,0.00445 -2.16701,-0.95623 -2.178,-2.15c0.01317,-1.17844 0.96689,-2.12967 2.14536,-2.13974c1.17847,-0.01008 2.14832,0.9247 2.18164,2.10274M242.31,184.014l-0.12,-0.39c-0.034,-0.111 -0.064,-0.25 -0.099,-0.358h-0.004c-0.028,0.108 -0.053,0.247 -0.08,0.36l-0.11,0.392zM241.843,184.334l-0.132,0.48l-0.435,0.003l0.555,-1.865l0.548,-0.005l0.592,1.856l-0.454,0.004l-0.145,-0.477l-0.53,0.004zM243.633,184.498c0.046,0.01 0.092,0.007 0.163,0.007c0.19,0 0.355,-0.074 0.355,-0.272c-0.002,-0.19 -0.17,-0.259 -0.375,-0.259l-0.148,0.002zM243.626,183.674l0.136,-0.002c0.22,0 0.336,-0.095 0.336,-0.233c-0.002,-0.136 -0.108,-0.215 -0.302,-0.213c-0.087,0 -0.138,0.012 -0.175,0.017zM243.202,182.966c0.18017,-0.03264 0.3629,-0.04903 0.546,-0.049c0.253,-0.002 0.412,0.026 0.548,0.102c0.13889,0.07156 0.22612,0.21476 0.226,0.371c0,0.162 -0.095,0.316 -0.302,0.397v0.005c0.212,0.055 0.37,0.212 0.373,0.454c0.00213,0.15441 -0.06865,0.30079 -0.191,0.395c-0.138,0.11 -0.36,0.168 -0.728,0.173c-0.205,0 -0.366,-0.007 -0.456,-0.023zM246.242,184.723c-0.072,0.04 -0.247,0.079 -0.47,0.081c-0.64,0.005 -0.981,-0.388 -0.986,-0.914c-0.004,-0.639 0.45,-0.994 1.009,-0.999c0.15655,-0.00659 0.3127,0.02035 0.458,0.079l-0.083,0.336c-0.11236,-0.04954 -0.23424,-0.07378 -0.357,-0.071c-0.327,0.002 -0.585,0.21 -0.582,0.623c0.004,0.37 0.225,0.607 0.598,0.605c0.127,0 0.268,-0.03 0.35,-0.067zM247.517,185.436l-1.094,-1.833l1.064,-1.846l2.149,-0.016l1.091,1.828l-1.061,1.848z" fill="#f08314"/><path d="M218.461,176.538l2.133,-0.859l1.763,3.739l-2.07,0.985zM252.243,181.856l-1.189,-1.97l3.254,-1.964c0.0712,0.0782 0.13958,0.15891 0.205,0.242c0.374,0.474 0.728,1.041 1.06,1.674z" fill="#c12636"/><path d="M247.737,232.705c1.822,1.105 3.146,3.452 1.615,5.324c-1.159,1.32 -2.884,0.332 -4.196,-0.203c-1.451,-0.681 -3.105,-1.131 -4.42,-2.017c-0.847,-0.582 -1.85,-1.286 -2.427,-2.167c-0.178,-0.27 -0.263,-0.598 -0.2,-0.86zM227.165,232.87c-1.798,1.13 -3.095,3.503 -1.531,5.346c1.179,1.304 2.89,0.287 4.194,-0.27c1.441,-0.701 3.083,-1.181 4.387,-2.086c0.84,-0.595 1.826,-1.313 2.393,-2.204c0.172,-0.272 0.25,-0.602 0.188,-0.863l-9.63,0.076z" fill="#565657"/><path d="M249.703,206.403l-1.76,26.363l-9.965,0.079l-0.534,-19.05l-0.288,0.002l-0.228,19.057l-9.97,0.078l-2.174,-26.33z" fill="#0771b7"/><path d="M225.304,206.578l4.468,-0.034c0,0 2.409,17.259 1.574,21.062c-0.252,1.129 -4.66,2.167 -4.66,2.167zM243.446,227.517c-0.942,-5.25 1.24,-21.095 1.24,-21.095l4.49,-0.035l-1.011,23.22c0,0 -4.512,-0.948 -4.719,-2.09" fill="#ffffff"/><path d="M224.783,206.584l4.46,-0.037c0,0 2.411,17.262 1.577,21.063c-0.249,1.128 -4.134,2.03 -4.134,2.03zM243.972,227.513c-0.946,-5.25 1.237,-21.093 1.237,-21.093l4.493,-0.034l-1.54,23.093c0,0 -3.987,-0.824 -4.19,-1.966" fill="#f08314"/><path d="M224.779,206.584c-0.019,-0.132 -0.302,-1.579 -0.645,-3.88l26.185,-0.207c-0.331,2.308 -0.598,3.756 -0.617,3.888l-24.923,0.198" fill="#565657"/><path d="M259.79251,150.703c1.177,0.748 0.051,7.715 -2.36,7.735c-0.069,0 -0.141,0 -0.205,-0.004c-3.858,7.052 -11.306,11.857 -19.896,11.928c-8.602,0.067 -16.136,-4.624 -20.096,-11.631c-0.159,0.017 -0.323,0.028 -0.484,0.028c-2.416,0.021 -3.537,-7.117 -2.222,-7.855c-0.162,-1.072 -0.249,-2.162 -0.258,-3.282c-0.102,-12.662 10.059,-23.003 22.696,-23.104c12.632,-0.1 22.957,10.077 23.055,22.74c0.01,1.172 -0.068,2.321 -0.23,3.445" data-paper-data="{&quot;origPos&quot;:null}" fill="#795b4c"/><path d="M232.311,146.65c0,0 -0.503,1.803 -2.082,1.446c-0.772,-0.174 -0.908,-1.201 -3.386,-0.74c-0.779,0.18 -2.417,1.156 -2.732,1.808c-0.316,0.652 -0.088,-2.392 2.457,-3.522c1.835,-0.675 2.457,-0.642 3.977,-0.642c1.52,0 1.987,0.907 1.766,1.65M242.052,146.65c0,0 0.503,1.803 2.082,1.446c0.772,-0.174 0.908,-1.201 3.386,-0.74c0.779,0.18 2.417,1.156 2.732,1.808c0.316,0.652 0.087,-2.392 -2.457,-3.522c-1.835,-0.675 -2.457,-0.642 -3.977,-0.642c-1.52,0 -1.987,0.907 -1.766,1.65" data-paper-data="{&quot;origPos&quot;:null}" fill="#36260f"/><path d="M230,154c0,1.657 -0.895,3 -2,3c-1.105,0 -2,-1.343 -2,-3c0,-1.657 0.895,-3 2,-3c1.105,0 2,1.343 2,3M248,154c0,1.657 -0.895,3 -2,3c-1.105,0 -2,-1.343 -2,-3c0,-1.657 0.895,-3 2,-3c1.105,0 2,1.343 2,3" data-paper-data="{&quot;origPos&quot;:null}" fill="#36260f"/><path d="M237.02,157.069c-1.125,0.153 -3.02,1.834 -3.02,1.834c0,0 0.207,-1.009 0.503,-1.299c0.8,-1.156 2.487,-1.604 2.487,-1.604c0,0 2.173,0.703 2.65,1.588c0.443,0.824 0.34,1.238 0.34,1.238c0,0 -2.121,-1.871 -2.96,-1.756z" fill="#eeac6c"/><path d="M230.2,160.696c0,0 6.897,3.208 13.172,-0.397c0,0 -1.39,5.47 -5.95,5.561c-4.115,0.122 -4.984,-1.492 -5.477,-1.956c-0.492,-0.463 -1.42,-1.772 -1.745,-3.208" fill="#eeac6c"/><path d="M237.025,168.258c-7.648,0.06 -7.708,-7.548 -7.708,-7.548c7.65,2.37 15.298,-0.12 15.298,-0.12c0,0 0.06,7.608 -7.59,7.668M236.94,158.02c0.4512,-0.00557 0.90022,-0.06362 1.338,-0.173c1.204,-0.306 1.992,-0.888 2.024,-0.916l-0.272,-0.367c-0.03,0.023 -2.989,2.19 -6.022,0.049l-0.263,0.371c1.129,0.801 2.245,1.043 3.195,1.036" fill="#eeac6c"/><path d="M260.648,144.262c0.051,2.691 -0.838,8.525 -2.644,12.012c0,0 -4.601,-12.725 -8.321,-14.712c-4.546,-2.439 -16.464,1.218 -20.536,-1.952c-0.677,-0.524 -0.61,-1.729 -0.61,-1.729c0,0 -0.763,1.537 -1.133,1.973c-1.944,2.248 -7.008,5.528 -9.408,7.288c-1.923,1.415 -2.018,1.399 -1.525,9.462c0,0 -3.625,-7.311 -3.47,-12.21c0.046,-1.42 0.707,-4.553 1.791,-7.745c3.966,-8.128 12.262,-13.756 21.904,-13.835c11.067,-0.087 20.488,7.176 23.643,17.237c0.16714,1.39824 0.27058,2.80336 0.31,4.211" fill="#333433"/><path d="M234.338,174.066c-0.405,-0.146 -0.748,-0.338 -0.978,-0.568c-0.611,-0.603 -0.028,-3.413 -0.028,-3.413c1.24396,0.19521 2.50186,0.28785 3.761,0.277c1.285,-0.012 2.549,-0.124 3.784,-0.344c0,0 0.552,2.748 0.027,3.42c-0.036,0.037 -0.073,0.083 -0.115,0.118l0.012,0.023l-0.129,0.092c-0.099,0.078 -0.212,0.155 -0.336,0.221z" fill="#565657"/><path d="M246.77,158.559c0,0 5.675,-1.38 6.582,-2.936c1.433,-2.466 -1.091,-11.36 -1.091,-11.36l-30.49,0.242c0,0 -2.732,8.871 -1.35,11.379c0.795,1.45 5.956,2.837 5.956,2.837l10.592,-3.912l9.801,3.75M236.533,121.174c13.832,-0.11 25.137,12.426 25.26,27.988c0.124,15.57 -19.613,28.35 -24.813,28.389c-5.557,0.046 -25.135,-12.42 -25.26,-27.99c-0.122,-15.565 10.986,-28.276 24.813,-28.387" fill="#005784"/><path d="M256.72,144.226c0,0 2.061,10.464 0.088,12.944c-6.163,7.768 -32.538,7.276 -39.592,0.316c-2.257,-2.222 -0.104,-12.944 -0.104,-12.944l4.623,-0.037c0,0 -2.699,8.876 -1.315,11.38c0.799,1.449 5.955,2.836 5.955,2.836c0,0 7.773,-3.932 10.594,-3.912c2.623,0.016 9.802,3.75 9.802,3.75c0,0 5.67,-1.38 6.582,-2.937c1.432,-2.459 -1.069,-11.359 -1.069,-11.359l4.436,-0.037" fill="#02405a"/><path d="M235.052,174.041c0.09346,0.00091 0.1869,-0.00276 0.28,-0.011l-0.01,-0.132c-2.397,0.183 -5.829,-1.846 -9.935,-5.866c-3.109,-3.039 -5.533,-6.178 -5.553,-6.212l-0.105,0.081c0.025,0.032 2.452,3.17 5.57,6.226c1.829,1.795 3.533,3.2 5.069,4.19c1.805,1.157 3.379,1.736 4.685,1.724M239.321,174.007c-0.094,0 -0.189,0.003 -0.283,-0.007l0.012,-0.131c2.402,0.141 5.794,-1.941 9.836,-6.023c3.061,-3.09 5.438,-6.268 5.458,-6.3l0.104,0.078c-0.023,0.03 -2.4,3.21 -5.465,6.314c-1.802,1.823 -3.487,3.256 -5.012,4.269c-1.782,1.187 -3.346,1.789 -4.65,1.8" fill="#f08314"/><path d="M255.699,130.7c2.484,3.034 7.768,17.346 4.254,15.616c-13.862,-6.817 -35.205,-6.406 -46.63,0.616c-3.344,2.054 1.193,-13.128 3.946,-15.925c9.039,-9.207 30.247,-10.287 38.43,-0.307" fill="#67b1d2"/><path d="M215.49,142.214c1.46,-14.405 11.225,-15.677 21.39,-15.674c-9.561,1.587 -16.45,5.127 -21.39,15.674" fill="#eeeeed"/><path d="M214.145,148.028c0.01,1.151 -0.483,2.088 -1.1,2.093c-0.618,0.007 -1.124,-0.925 -1.136,-2.077c-0.009,-1.154 0.484,-2.088 1.103,-2.093c0.615,-0.007 1.124,0.923 1.133,2.077M261.56,147.65c0.009,1.15 -0.486,2.09 -1.103,2.095c-0.618,0.004 -1.127,-0.926 -1.136,-2.077c-0.009,-1.154 0.484,-2.09 1.101,-2.096c0.62,-0.004 1.129,0.924 1.138,2.077" fill="#f08314"/></g></g></svg>