<svg version="1.1" xmlns="http://www.w3.org/2000/svg" xmlns:xlink="http://www.w3.org/1999/xlink" width="73.081" height="119.42236" viewBox="0,0,73.081,119.42236"><g transform="translate(-203.574,-120.49358)"><g data-paper-data="{&quot;isPaintingLayer&quot;:true}" fill-rule="evenodd" stroke="none" stroke-width="1" stroke-linecap="butt" stroke-linejoin="miter" stroke-miterlimit="10" stroke-dasharray="" stroke-dashoffset="0" style="mix-blend-mode: normal"><path d="M204.012,222.439h2.819v14.398h-2.819z" fill="#864e1a"/><path d="M203.574,221.56l0.44,0.816v14.461l-0.44,-0.818z" fill="#ad6921"/><path d="M203.574,221.62h27.221l8.78,15.705l-26.788,0.34z" fill="#5f3311"/><path d="M204.012,209.239h26.784v5.529h-26.784z" fill="#ad6921"/><path d="M204.014,208.42v6.348l-0.44,-0.82v-5.528z" fill="#5f3311"/><path d="M204.012,216.843h26.784v5.533h-26.784z" fill="#ad6921"/><path d="M204.014,216.029v6.347l-0.44,-0.817v-5.53z" fill="#5f3311"/><path d="M238.759,225.648v5.533l-9.222,-17.193v-5.528z" fill="#ad6921"/><path d="M238.76,225.648l-9.223,-17.189h0.823l9.215,17.189z" fill="#864e1a"/><path d="M230.36,208.42l0.435,0.818h-26.781l-0.44,-0.818z" fill="#864e1a"/><path d="M238.759,233.254v5.533l-9.222,-17.184v-5.533z" fill="#ad6921"/><path d="M238.76,233.254l-9.224,-17.184h0.823l9.215,17.184z" fill="#864e1a"/><path d="M230.36,216.029l0.435,0.814h-26.781l-0.44,-0.814z" fill="#864e1a"/><path d="M229.977,214.77h0.819v2.073h-0.819zM229.536,213.95l0.44,0.818v2.075l-0.44,-0.814z" fill="#ad6921"/><path d="M224.002,213.65c1.715,0 3.097,1.246 3.097,2.786c0,1.538 -1.382,2.786 -3.097,2.786c-0.892,0 -1.689,-0.334 -2.25,-0.866c-0.558,0.755 -1.515,1.252 -2.59,1.252c-1.718,0 -3.108,-1.246 -3.108,-2.786c0,-1.538 1.39,-2.79 3.108,-2.79c0.83109,-0.00696 1.63384,0.30184 2.246,0.864c0.554,-0.753 1.508,-1.246 2.594,-1.246M214.665,226.862c1.194,0.386 2.044,1.416 2.044,2.625c0,1.54 -1.385,2.786 -3.1,2.786c-1.708,0 -3.11,-1.246 -3.11,-2.786c0.00248,-0.23444 0.03783,-0.46738 0.105,-0.692c-1.2,-0.388 -2.057,-1.42 -2.057,-2.627c0.0014,-0.3028 0.05589,-0.60302 0.161,-0.887c-1.299,-0.332 -2.248,-1.406 -2.248,-2.68c-0.00024,-0.28846 0.04984,-0.57475 0.148,-0.846c-0.69,-0.511 -1.117,-1.288 -1.117,-2.145c0,-0.393 0.09,-0.775 0.25,-1.113c-0.8,-0.508 -1.325,-1.34 -1.325,-2.295c0,-1.538 1.391,-2.784 3.108,-2.784c1.715,0 3.099,1.246 3.099,2.784c0.00117,0.3884 -0.08675,0.7719 -0.257,1.121c0.801,0.507 1.337,1.34 1.337,2.287c0,0.299 -0.057,0.576 -0.15,0.846c0.681,0.513 1.118,1.285 1.118,2.145c-0.00131,0.30285 -0.05721,0.60298 -0.165,0.886c1.297,0.334 2.249,1.409 2.249,2.681c0,0.24 -0.031,0.472 -0.09,0.694M231.38,212.182c0.089,-0.954 -0.146,-2.025 -0.133,-2.697c0.028,-1.268 -0.453,-2.348 -1.7,-2.454c-1.267,-0.112 -1.85,0.868 -2.061,2.114c-0.111,0.671 -0.588,1.68 -0.666,2.631c-0.10946,1.25733 0.81558,2.36763 2.072,2.487c1.26143,0.11156 2.37484,-0.81971 2.488,-2.081" fill="#71b96c"/><path d="M228.655,207.051c-0.229,-0.26 -0.331,-0.581 -0.319,-0.901c0.67321,0.08014 1.17294,0.66242 1.15,1.34c-0.313,-0.031 -0.618,-0.184 -0.831,-0.439" fill="#477747"/><path d="M230.449,207.117c-0.29187,0.31481 -0.69193,0.50769 -1.12,0.54c0,-0.411 0.158,-0.832 0.456,-1.16c0.29229,-0.31445 0.69446,-0.50425 1.123,-0.53c-0.007,0.41 -0.153,0.825 -0.46,1.15" fill="#477747"/><path d="M228.833,210.884c0.357,1.21194 -0.33269,2.4845 -1.543,2.847c-1.21183,0.355 -2.48232,-0.33796 -2.84,-1.549c-0.281,-0.91 -0.211,-2.024 -0.353,-2.692c-0.259,-1.23 -0.072,-2.367 1.14,-2.727c1.209,-0.36 2.049,0.467 2.486,1.656c0.233,0.632 0.851,1.547 1.11,2.465" fill="#8bc276"/><path d="M224.412,207.113c-0.302,-0.155 -0.511,-0.421 -0.618,-0.714c0.31307,-0.08925 0.64853,-0.05377 0.936,0.099c0.29276,0.14927 0.51483,0.408 0.618,0.72c-0.296,0.078 -0.637,0.055 -0.936,-0.105" fill="#477747"/><path d="M226.115,206.518c-0.15596,0.39862 -0.4582,0.72268 -0.845,0.906c-0.15914,-0.39802 -0.15914,-0.84198 0,-1.24c0.166,-0.412 0.47,-0.733 0.845,-0.912c0.15102,0.40161 0.15102,0.84439 0,1.246" fill="#477747"/><path d="M224.319,206.043c1.216,0.976 1.658,6.022 1.658,6.022c0.29118,1.96989 -1.06685,3.80385 -3.036,4.1l-0.009,0.006c-1.96864,0.28674 -3.79821,-1.07325 -4.091,-3.041c0,0 -1.11,-5.058 -0.107,-6.251c0.916,-1.08 4.488,-1.722 5.585,-0.836" fill="#c4aa3a"/><path d="M225.386,208.398c0.0108,0.04549 0.0208,0.09116 0.03,0.137l-1.456,-0.436l-1.316,0.803l-1.483,-0.443l-1.323,0.798l-1.476,-0.445l-0.045,0.024c0,-0.044 0,-0.1 0.006,-0.144l0.02,-0.015l1.482,0.447l1.317,-0.807l1.477,0.447l1.33,-0.798l1.437,0.432M225.71,210.344l-1.484,-0.439l-1.317,0.799l-1.485,-0.445l-1.323,0.805l-1.473,-0.445l-0.183,0.104c0,-0.037 -0.018,-0.087 -0.018,-0.133l0.185,-0.113l1.478,0.447l1.317,-0.799l1.484,0.446l1.322,-0.806l1.475,0.446l0.046,-0.029c0.00592,0.04455 0.01326,0.08891 0.022,0.133zM225.938,211.905l-1.478,-0.447l-1.323,0.801l-1.478,-0.448l-1.318,0.808l-1.49,-0.448l-0.174,0.112c-0.01104,-0.0436 -0.01807,-0.08812 -0.021,-0.133l0.185,-0.114l1.473,0.44l1.328,-0.8l1.478,0.447l1.318,-0.807l1.483,0.447l0.017,-0.013c0.017,0.055 0.017,0.098 0.017,0.14zM225.915,213.428c-0.007,0.044 -0.011,0.083 -0.028,0.122l-1.17,-0.353l-1.32,0.807l-1.485,-0.447l-1.316,0.801l-1.476,-0.448l-0.054,0.033c-0.018,-0.04 -0.031,-0.079 -0.053,-0.12l0.087,-0.046l1.483,0.447l1.316,-0.807l1.476,0.447l1.33,-0.8l1.21,0.364" fill="#635416"/><path d="M219.154,205.892c-0.6797,-0.49258 -1.1483,-1.22369 -1.312,-2.047c0.83235,-0.1043 1.67307,0.11357 2.35,0.609c0.67985,0.48776 1.14773,1.21677 1.308,2.038c-0.799,0.098 -1.636,-0.09 -2.346,-0.6" fill="#71b96c"/><path d="M223.694,204.98c-0.54111,0.96062 -1.42511,1.68139 -2.475,2.018c-0.2531,-1.07296 -0.09392,-2.20186 0.446,-3.163c0.53774,-0.96104 1.42071,-1.68171 2.47,-2.016c0.25749,1.07155 0.09994,2.20084 -0.441,3.161" fill="#71b96c"/><path d="M210.316,205.031c1.2,0.995 1.57,6.04 1.57,6.04c0.26392,1.97646 -1.1237,3.79289 -3.1,4.058h-0.006c-0.94822,0.12802 -1.90838,-0.12693 -2.6682,-0.70847c-0.75982,-0.58154 -1.2567,-1.44178 -1.3808,-2.39053c0,0 -1.038,-5.072 -0.013,-6.25c0.93,-1.067 4.514,-1.654 5.598,-0.749" fill="#c4aa3a"/><path d="M211.341,207.396c0.011,0.048 0.026,0.094 0.041,0.142l-1.452,-0.461l-1.338,0.78l-1.468,-0.467l-1.34,0.785l-1.467,-0.462l-0.046,0.026c0,-0.055 0,-0.101 0.007,-0.155l0.019,-0.013l1.47,0.467l1.338,-0.779l1.469,0.462l1.335,-0.775l1.431,0.45M211.641,209.351l-1.473,-0.465l-1.335,0.785l-1.47,-0.466l-1.337,0.778l-1.467,-0.466l-0.185,0.106c-0.008,-0.045 -0.015,-0.093 -0.015,-0.133l0.185,-0.113l1.471,0.466l1.334,-0.78l1.472,0.467l1.334,-0.779l1.467,0.467l0.05,-0.029c0.004,0.05 0.013,0.09 0.013,0.136zM211.846,210.913l-1.471,-0.47l-1.334,0.779l-1.472,-0.463l-1.336,0.786l-1.467,-0.467l-0.181,0.107c-0.013,-0.05 -0.013,-0.087 -0.026,-0.135l0.185,-0.114l1.476,0.468l1.33,-0.78l1.478,0.467l1.327,-0.783l1.478,0.471l0.027,-0.02c-0.00038,0.04619 0.00296,0.09234 0.01,0.138zM211.804,212.437c-0.01406,0.03887 -0.02411,0.07908 -0.03,0.12l-1.165,-0.364l-1.327,0.777l-1.48,-0.467l-1.328,0.787l-1.48,-0.47l-0.052,0.03c-0.011,-0.042 -0.024,-0.081 -0.037,-0.12l0.078,-0.046l1.469,0.466l1.339,-0.78l1.467,0.467l1.338,-0.788l1.208,0.388" fill="#635416"/><path d="M205.149,204.797c-0.696,-0.519 -1.136,-1.264 -1.282,-2.064c0.83376,-0.09174 1.67117,0.13745 2.342,0.641c0.67429,0.50109 1.13463,1.23821 1.289,2.064c-0.83556,0.09087 -1.67452,-0.13817 -2.348,-0.641" fill="#71b96c"/><path d="M209.704,203.96c-0.5549,0.94821 -1.44688,1.65237 -2.498,1.972c-0.23862,-1.07535 -0.06331,-2.20113 0.491,-3.153c0.5524,-0.95202 1.4467,-1.65788 2.501,-1.974c0.23599,1.0761 0.05971,2.20158 -0.494,3.154" fill="#71b96c"/><path d="M215.809,208.419c0.222,0.395 -0.307,1.171 -0.495,1.665c-0.27,0.706 -0.914,1.433 -1.82,1.946c-0.935,0.539 -1.927,0.726 -2.685,0.574c-0.479,-0.1 -1.25,-0.107 -1.462,-0.48c-0.203,-0.354 0.17,-1.006 0.302,-1.45c0.242,-0.752 0.912,-1.535 1.878,-2.09c0.817,-0.475 1.685,-0.674 2.395,-0.612c0.611,0.043 1.628,0 1.887,0.447M219.258,209.103c0.446,0.043 0.797,0.914 1.1,1.348c0.424,0.626 0.65,1.575 0.574,2.605c-0.092,1.082 -0.497,2.012 -1.056,2.546c-0.352,0.34 -0.796,0.974 -1.22,0.939c-0.4,-0.03 -0.73,-0.71 -1.02,-1.08c-0.485,-0.61 -0.75,-1.617 -0.659,-2.725c0.074,-0.947 0.4,-1.772 0.845,-2.326c0.393,-0.478 0.925,-1.349 1.436,-1.307" fill="#f7b90b"/><path d="M216.82,205.645c0.45,0.04 0.795,0.914 1.106,1.353c0.42,0.62 0.65,1.566 0.57,2.607c-0.094,1.082 -0.498,2.005 -1.051,2.544c-0.361,0.342 -0.799,0.969 -1.223,0.934c-0.407,-0.03 -0.732,-0.707 -1.021,-1.074c-0.481,-0.62 -0.749,-1.616 -0.664,-2.725c0.072,-0.947 0.4,-1.778 0.847,-2.326c0.398,-0.482 0.929,-1.352 1.436,-1.313" fill="#dda20c"/><path d="M219.53,217.462c1.158,4.086 -0.168,8.04 -2.956,8.834c-2.788,0.785 -5.983,-1.88 -7.136,-5.967c-1.156,-4.087 0.165,-8.038 2.953,-8.832c2.793,-0.795 5.986,1.88 7.14,5.965" fill="#68a369"/><path d="M211.115,219.863c0.821,2.886 2.488,5.112 4.225,5.93c-1.896,-0.364 -3.846,-2.66 -4.73,-5.784c-0.885,-3.133 -0.422,-6.111 0.995,-7.418c-1.051,1.612 -1.304,4.388 -0.49,7.272M217.49,218.047c0.82,2.887 0.568,5.662 -0.484,7.275c1.413,-1.302 1.877,-4.288 0.995,-7.412c-0.892,-3.127 -2.842,-5.426 -4.734,-5.795c1.741,0.82 3.409,3.055 4.223,5.932" fill="#477747"/><path d="M212.552,219.456c0.77,2.697 2.07,4.852 3.35,5.72c-1.345,-0.464 -2.864,-2.694 -3.698,-5.62c-0.823,-2.933 -0.705,-5.633 0.2,-6.733c-0.624,1.407 -0.613,3.933 0.148,6.633M216.14,218.435c0.766,2.699 0.77,5.219 0.148,6.633c0.901,-1.1 1.023,-3.807 0.2,-6.733c-0.829,-2.926 -2.342,-5.157 -3.685,-5.627c1.265,0.875 2.58,3.031 3.337,5.727" fill="#477747"/><path d="M234.746,219.322c-0.496,4.221 -3.219,7.368 -6.092,7.04c-2.877,-0.333 -4.82,-4.027 -4.335,-8.24c0.48,-4.218 3.206,-7.37 6.092,-7.037c2.87,0.332 4.812,4.017 4.335,8.237" fill="#68a369"/><path d="M226.049,218.33c0.344,-2.98 1.628,-5.445 3.219,-6.532c-1.811,0.666 -3.372,3.247 -3.746,6.472c-0.366,3.233 0.566,6.1 2.174,7.158c-1.299,-1.418 -1.987,-4.119 -1.647,-7.097M232.63,219.09c0.348,-2.98 -0.353,-5.673 -1.65,-7.102c1.61,1.062 2.542,3.933 2.176,7.16c-0.372,3.234 -1.933,5.813 -3.746,6.478c1.594,-1.09 2.873,-3.558 3.22,-6.537" fill="#477747"/><path d="M227.539,218.501c0.318,-2.784 1.26,-5.125 2.379,-6.185c-1.25,0.674 -2.394,3.122 -2.743,6.146c-0.341,3.02 0.21,5.666 1.282,6.61c-0.853,-1.29 -1.242,-3.785 -0.918,-6.57M231.233,218.93c0.32,-2.787 -0.065,-5.28 -0.916,-6.566c1.07,0.94 1.623,3.585 1.28,6.605c-0.349,3.026 -1.494,5.476 -2.743,6.153c1.119,-1.067 2.059,-3.408 2.379,-6.192" fill="#477747"/><path d="M225.475,218.043c-1.156,2.926 1.596,6.596 1.236,6.718c-0.492,-0.087 -0.97,-0.26 -1.423,-0.512c-2.479,-1.393 -3.176,-4.862 -1.569,-7.74c1.617,-2.88 4.936,-4.084 7.42,-2.687l0.16,0.1c0.433,0.821 -4.466,0.72 -5.824,4.121" fill="#f7b531"/><path d="M223.651,219.294c1.187,2.926 5.709,3.668 5.535,4.001c-0.42025,0.287 -0.88821,0.49694 -1.382,0.62c-2.751,0.713 -5.652,-1.307 -6.475,-4.505c-0.82,-3.201 0.74,-6.365 3.494,-7.078c0.065,-0.016 0.134,-0.029 0.2,-0.042c0.881,0.294 -2.738,3.62 -1.372,7.004" fill="#efc15a"/><path d="M219.851,217.538c0.28,-3.65 -4.174,-5.716 -3.43,-6.26c0.067,-0.006 0.133,-0.015 0.2,-0.021c2.843,-0.16 5.291,2.38 5.487,5.679c0.19,3.292 -1.963,6.098 -4.797,6.264c-0.51156,0.02681 -1.02406,-0.03062 -1.517,-0.17c-0.259,-0.264 3.818,-2.348 4.057,-5.492" fill="#edae2d"/><path d="M237.724,224.414c0,1.77891 -1.44209,3.221 -3.221,3.221c-1.77891,0 -3.221,-1.44209 -3.221,-3.221c0,-1.77891 1.44209,-3.221 3.221,-3.221c1.77891,0 3.221,1.44209 3.221,3.221" fill="#f29221"/><path d="M233.586,221.007c-0.28305,-0.39073 -0.40773,-0.87411 -0.349,-1.353c0.47048,0.09635 0.88766,0.36579 1.169,0.755c0.28382,0.3878 0.40998,0.86882 0.353,1.346c-0.455,-0.085 -0.875,-0.344 -1.173,-0.748" fill="#71b96c"/><path d="M236.221,221.322c-0.46314,0.42654 -1.07037,0.66229 -1.7,0.66c0.04415,-0.6303 0.32876,-1.21956 0.795,-1.646c0.46576,-0.42288 1.07291,-0.65618 1.702,-0.654c-0.04548,0.62866 -0.33081,1.2158 -0.797,1.64" fill="#71b96c"/><path d="M238.536,231.554c0,1.78029 -1.44321,3.2235 -3.2235,3.2235c-1.78029,0 -3.2235,-1.44321 -3.2235,-3.2235c0,-1.78029 1.44321,-3.2235 3.2235,-3.2235c1.78029,0 3.2235,1.44321 3.2235,3.2235" fill="#f29221"/><path d="M234.398,228.147c-0.294,-0.406 -0.412,-0.893 -0.352,-1.353c0.4718,0.09378 0.89016,0.36375 1.17,0.755c0.303,0.397 0.405,0.886 0.355,1.346c-0.455,-0.088 -0.879,-0.348 -1.173,-0.748" fill="#68a369"/><path d="M237.033,228.462c-0.46391,0.42576 -1.07236,0.6592 -1.702,0.653c0.10135,-1.30211 1.193,-2.30377 2.499,-2.293c-0.05117,0.62712 -0.33554,1.21228 -0.797,1.64" fill="#68a369"/><path d="M233.696,233.968c0.29,1.758 -0.888,3.43 -2.64,3.729c-0.84341,0.14433 -1.70956,-0.0534 -2.40678,-0.54943c-0.69722,-0.49603 -1.16802,-1.24947 -1.30822,-2.09357c-0.14698,-0.84345 0.04789,-1.71071 0.54155,-2.41021c0.49367,-0.6995 1.24551,-1.17368 2.08945,-1.31779c1.75761,-0.29742 3.42403,0.88482 3.724,2.642" fill="#f29221"/><path d="M229.033,231.309c-0.353,-0.354 -0.553,-0.807 -0.566,-1.275c0.47833,0.0148 0.93398,0.20732 1.278,0.54c0.34329,0.33737 0.54742,0.79131 0.572,1.272c-0.468,-0.011 -0.924,-0.192 -1.284,-0.537" fill="#68a369"/><path d="M231.686,231.173c-0.38709,0.49824 -0.94763,0.83241 -1.57,0.936c-0.0568,-0.63052 0.12919,-1.25895 0.52,-1.757c0.38361,-0.5003 0.94512,-0.83369 1.568,-0.931c0.05596,0.62858 -0.12922,1.25491 -0.518,1.752" fill="#68a369"/><path d="M233.496,225.626c0.29605,1.75557 -0.88119,3.42069 -2.635,3.727c-1.74475,0.27037 -3.3836,-0.90944 -3.68081,-2.64981c-0.29721,-1.74038 0.85722,-3.39721 2.59281,-3.72119c1.756,-0.303 3.414,0.886 3.723,2.644" fill="#d77917"/><path d="M228.84,222.961c-0.359,-0.354 -0.553,-0.807 -0.573,-1.272c0.48057,0.01441 0.93788,0.2102 1.28,0.548c0.34417,0.33368 0.54804,0.78613 0.57,1.265c-0.465,-0.015 -0.918,-0.192 -1.277,-0.542" fill="#71b96c"/><path d="M231.486,222.829c-0.398,0.519 -0.97,0.83 -1.57,0.931c-0.05601,-0.6289 0.12996,-1.25549 0.52,-1.752c0.4,-0.519 0.974,-0.831 1.568,-0.931c0.05566,0.62855 -0.12949,1.25477 -0.518,1.752" fill="#71b96c"/><path d="M212.012,221.354c0.244,-0.425 1.548,-0.724 1.91,-0.392c1.009,1.53 0.822,8.845 0.822,8.845c0,0 -2.94,-6.487 -2.732,-8.453" fill="#f29221"/><path d="M213.028,219.31c0.255,1.199 0.279,2.207 0.072,2.244c-0.204,0.05 -0.577,-0.893 -0.823,-2.084c-0.243,-1.202 -0.274,-2.208 -0.074,-2.254c0.214,-0.039 0.586,0.893 0.825,2.095" fill="#71b96c"/><path d="M212.31,219.35c0.587,1.073 0.905,2.026 0.718,2.133c-0.191,0.098 -0.812,-0.694 -1.397,-1.767c-0.57,-1.08 -0.89,-2.034 -0.703,-2.138c0.187,-0.1 0.807,0.691 1.382,1.771" fill="#71b96c"/><path d="M212.952,219.217c0.102,-1.222 0.361,-2.195 0.574,-2.173c0.216,0.013 0.301,1.021 0.196,2.239c-0.106,1.219 -0.363,2.192 -0.572,2.171c-0.215,-0.02 -0.309,-1.017 -0.198,-2.237" fill="#71b96c"/><path d="M215.609,220.783c0.237,-0.419 1.556,-0.707 1.902,-0.369c0.999,1.55 0.703,8.867 0.703,8.867c0,0 -2.843,-6.532 -2.605,-8.498" fill="#f29221"/><path d="M216.659,218.757c0.226,1.198 0.237,2.206 0.034,2.243c-0.204,0.041 -0.568,-0.897 -0.792,-2.1c-0.224,-1.206 -0.246,-2.21 -0.041,-2.25c0.213,-0.04 0.568,0.905 0.799,2.107" fill="#71b96c"/><path d="M215.94,218.785c0.562,1.077 0.866,2.044 0.675,2.136c-0.187,0.1 -0.801,-0.699 -1.363,-1.787c-0.561,-1.087 -0.864,-2.045 -0.672,-2.143c0.191,-0.094 0.796,0.703 1.36,1.794" fill="#71b96c"/><path d="M216.578,218.657c0.122,-1.215 0.394,-2.189 0.607,-2.16c0.213,0.019 0.285,1.021 0.155,2.238c-0.122,1.22 -0.392,2.187 -0.599,2.165c-0.213,-0.016 -0.292,-1.023 -0.163,-2.243" fill="#71b96c"/><path d="M213.904,220.896c0.31,-0.388 1.637,-0.506 1.944,-0.122c0.798,1.654 -0.405,8.88 -0.405,8.88c0,0 -2.002,-6.838 -1.539,-8.758" fill="#d77917"/><path d="M215.21,219.017c0.073,1.22 -0.04,2.219 -0.251,2.232c-0.216,0.01 -0.438,-0.969 -0.52,-2.186c-0.083,-1.22 0.026,-2.221 0.24,-2.234c0.212,-0.011 0.45,0.968 0.53,2.188" fill="#71b96c"/><path d="M214.49,218.95c0.427,1.146 0.6,2.137 0.401,2.213c-0.2,0.072 -0.703,-0.8 -1.125,-1.946c-0.422,-1.148 -0.603,-2.132 -0.407,-2.217c0.2,-0.072 0.71,0.803 1.132,1.95" fill="#71b96c"/><path d="M215.137,218.908c0.272,-1.193 0.664,-2.118 0.87,-2.072c0.213,0.047 0.162,1.051 -0.117,2.247c-0.274,1.191 -0.668,2.118 -0.877,2.073c-0.203,-0.046 -0.148,-1.052 0.124,-2.248" fill="#71b96c"/><path d="M223.296,223.39c0,1.4 -1.28,2.537 -2.85,2.537c-1.563,0 -2.841,-1.137 -2.841,-2.538c0,-1.41 1.278,-2.548 2.84,-2.548c1.572,0 2.851,1.139 2.851,2.548" fill="#e42328"/><path d="M219.53,221.388c-0.355,-0.353 -0.551,-0.807 -0.572,-1.273c0.99636,0.02906 1.80285,0.81943 1.852,1.815c-0.466,-0.016 -0.919,-0.195 -1.28,-0.542" fill="#71b96c"/><path d="M222.18,221.256c-0.4,0.52 -0.972,0.831 -1.57,0.932c-0.05202,-0.62881 0.13431,-1.2542 0.522,-1.752c0.393,-0.52 0.966,-0.834 1.567,-0.934c0.05209,0.6288 -0.13266,1.25438 -0.518,1.754" fill="#71b96c"/><path d="M228.268,224.062c0,1.399 -1.28,2.538 -2.845,2.538c-1.578,0 -2.85,-1.139 -2.85,-2.538c0,-1.407 1.272,-2.546 2.85,-2.546c1.565,0 2.845,1.14 2.845,2.546" fill="#e42328"/><path d="M224.497,222.064c-0.357,-0.356 -0.548,-0.808 -0.57,-1.274c0.47941,0.01346 0.93656,0.2053 1.282,0.538c0.34334,0.33763 0.54837,0.7912 0.575,1.272c-0.466,-0.01 -0.93,-0.194 -1.287,-0.536" fill="#71b96c"/><path d="M227.154,221.93c-0.38846,0.49628 -0.94915,0.82855 -1.571,0.931c-0.06046,-0.62822 0.12324,-1.25561 0.513,-1.752c0.403,-0.52 0.969,-0.84 1.568,-0.934c0.05708,0.62835 -0.12505,1.2551 -0.51,1.755" fill="#71b96c"/><path d="M229.027,230.706c0,1.403 -1.27,2.542 -2.847,2.542c-1.567,0 -2.845,-1.14 -2.845,-2.542c0,-1.407 1.278,-2.544 2.845,-2.544c1.578,0 2.847,1.137 2.847,2.544" fill="#b91922"/><path d="M225.262,228.707c-0.356,-0.353 -0.544,-0.805 -0.572,-1.273c0.47922,0.01344 0.93597,0.20613 1.28,0.54c0.3435,0.33784 0.54703,0.79275 0.57,1.274c-0.457,-0.015 -0.916,-0.194 -1.278,-0.541" fill="#71b96c"/><path d="M227.91,228.573c-0.38661,0.49781 -0.94635,0.83194 -1.568,0.936c-0.11634,-1.30312 0.79209,-2.47539 2.083,-2.688c0.05935,0.62827 -0.12463,1.25537 -0.514,1.752" fill="#71b96c"/><path d="M224.854,231.614c0,1.402 -1.28,2.537 -2.85,2.537c-1.568,0 -2.841,-1.135 -2.841,-2.537c0,-1.408 1.273,-2.547 2.84,-2.547c1.572,0 2.851,1.14 2.851,2.547" fill="#e42328"/><path d="M221.088,229.615c-0.357,-0.356 -0.551,-0.807 -0.572,-1.273c0.99494,0.02792 1.80127,0.81596 1.852,1.81c-0.468,-0.011 -0.923,-0.194 -1.28,-0.537" fill="#71b96c"/><path d="M223.732,229.48c-0.398,0.52 -0.966,0.834 -1.569,0.932c-0.05004,-0.62829 0.1353,-1.25274 0.52,-1.752c0.38519,-0.49985 0.94683,-0.83361 1.57,-0.933c0.05521,0.62944 -0.13065,1.25636 -0.52,1.754" fill="#71b96c"/><path d="M220.246,233.919c0,1.4 -1.27,2.542 -2.842,2.542c-1.567,0 -2.847,-1.141 -2.847,-2.542c0,-1.407 1.28,-2.538 2.847,-2.538c1.571,0 2.842,1.13 2.842,2.538" fill="#e42328"/><path d="M216.489,231.92c-0.364,-0.355 -0.558,-0.804 -0.575,-1.274c0.47903,0.01478 0.93464,0.2106 1.275,0.548c0.34676,0.33298 0.55196,0.78671 0.573,1.267c-0.466,-0.015 -0.925,-0.194 -1.273,-0.541" fill="#71b96c"/><path d="M219.133,231.786c-0.4,0.52 -0.969,0.836 -1.572,0.936c-0.05417,-0.63043 0.13273,-1.25794 0.523,-1.756c0.38368,-0.49991 0.94457,-0.83351 1.567,-0.932c0.05355,0.62834 -0.13138,1.25381 -0.518,1.752" fill="#71b96c"/><path d="M218.363,231.852c0,1.403 -1.28,2.542 -2.849,2.542c-1.573,0 -2.842,-1.139 -2.842,-2.542c0,-1.407 1.269,-2.544 2.842,-2.544c1.57,0 2.85,1.137 2.85,2.544" fill="#b91922"/><path d="M214.593,229.854c-0.353,-0.354 -0.553,-0.805 -0.575,-1.275c0.48097,0.01527 0.93919,0.20839 1.286,0.542c0.34076,0.33963 0.54471,0.79272 0.573,1.273c-0.468,-0.015 -0.927,-0.193 -1.284,-0.54" fill="#71b96c"/><path d="M217.245,229.72c-0.407,0.52 -0.97,0.835 -1.569,0.935c-0.05776,-0.62906 0.1268,-1.25643 0.516,-1.754c0.402,-0.521 0.966,-0.84 1.569,-0.934c0.05323,0.62799 -0.13089,1.25311 -0.516,1.752" fill="#71b96c"/><path d="M212.788,225.649h26.788v5.533h-26.788z" fill="#ad6921"/><path d="M212.788,231.181l-0.437,-0.82v-5.533h0.437z" fill="#5f3311"/><path d="M239.575,225.648h-26.788l-0.437,-0.82h26.784z" fill="#864e1a"/><path d="M212.788,233.254h26.788v5.534h-26.788z" fill="#ad6921"/><path d="M212.788,238.788l-0.437,-0.82v-5.534h0.437z" fill="#5f3311"/><path d="M239.575,233.254h-26.788l-0.437,-0.82h26.784z" fill="#864e1a"/><path d="M212.787,233.254v5.533l-9.213,-17.184v-5.533z" fill="#ad6921"/><path d="M212.788,233.254l-9.213,-17.184h0.812l9.222,17.184z" fill="#864e1a"/><path d="M204.012,214.768h0.812v2.072h-0.812zM203.574,213.951l0.438,0.819v2.071l-0.438,-0.811z" fill="#ad6921"/><path d="M212.787,225.648v5.533l-9.213,-17.193v-5.528z" fill="#ad6921"/><path d="M212.788,225.648l-9.213,-17.189h0.812l9.222,17.189z" fill="#864e1a"/><path d="M212.788,231.182h0.82v2.072h-0.82z" fill="#ad6921"/><path d="M212.35,230.361l0.438,0.82v2.073l-0.438,-0.814zM238.759,231.182h0.817v2.072h-0.816zM238.321,230.361l0.438,0.82v2.073l-0.438,-0.814z" fill="#ad6921"/><path d="M262.896,234.194c1.724,1.071 2.982,3.325 1.504,5.105c-1.117,1.25 -2.767,0.3 -4.014,-0.229c-1.386,-0.657 -2.968,-1.104 -4.22,-1.957c-0.803,-0.567 -1.752,-1.246 -2.298,-2.086c-0.168,-0.266 -0.246,-0.582 -0.187,-0.833zM243.214,234.194c-1.726,1.071 -2.982,3.325 -1.502,5.105c1.12,1.25 2.76,0.3 4.012,-0.229c1.384,-0.657 2.958,-1.104 4.207,-1.957c0.81,-0.567 1.758,-1.246 2.3,-2.086c0.177,-0.266 0.255,-0.582 0.194,-0.833h-9.21z" fill="#333433"/><path d="M264.972,209.045l-1.882,25.218h-9.538l-0.36,-18.242h-0.277l-0.364,18.242h-9.537l-1.874,-25.218z" fill="#565657"/><path d="M269.904,182.516c3.517,4.504 4.87,18.048 4.87,18.048c0,0 0,-0.015 -0.01,-0.059c0.455,0.653 0.77,1.508 0.875,2.46c0.237,2.264 -0.845,4.232 -2.423,4.4c-1.023,0.111 -2.009,-0.574 -2.633,-1.693c-0.575,0.478 -1.156,0.672 -1.565,0.454c-0.775,-0.415 -0.684,-2.101 0.204,-3.773c0.34,-0.641 0.734,-1.18 1.156,-1.588c0.033,-0.072 0.072,-0.14 0.107,-0.205c0,0 -1.528,-9.779 -3.16,-12.092c-0.821,-1.16 -1.343,-1.813 -1.53,-2.328c-0.153,-0.41 -0.318,-1.198 -0.384,-1.496c-0.518,-2.322 -3.39,-7.56 -3.39,-7.56c0,0 6.176,3.24 7.883,5.432M222.431,167.433c1.154,-0.489 2.53,-0.041 3.657,1.039c0.505,-0.762 1.105,-1.187 1.66,-1.08c1.04,0.2 1.524,2.19 1.084,4.446c-0.14458,0.78603 -0.40651,1.54585 -0.777,2.254c-0.04347,0.27161 -0.11038,0.53894 -0.2,0.799l5.267,6.205l11.185,-4.013c0,0 -1.9,3.02 -2.368,4.126c-0.335,0.8 -1.003,3.347 -1.003,3.347c0,0 -8.173,3.334 -10.487,2.485c-2.866,-1.038 -6.157,-10.396 -6.157,-10.396c-1.232,-0.44 -2.422,-1.621 -3.11,-3.258c-1.08,-2.537 -0.52,-5.201 1.25,-5.954" data-paper-data="{&quot;origPos&quot;:null}" fill="#ffdb7e"/><path d="M270.071,200.105c0,0 -1.236,-9.338 -2.864,-11.651c-0.084,-0.12 -0.167,-0.231 -0.244,-0.347c1.596,9.474 1.402,20.93 1.402,20.93v2.187h-30.508v-2.178c0,0 -0.298,-14.326 1.94,-24.052c-0.558,0.259 -7.22,2.902 -9.438,2.094c-2.868,-1.04 -7.09,-9.938 -7.09,-9.938l4.572,-2.26l5.324,6.191l10.129,-3.97c1.994,-1.314 8.059,-1.527 8.059,-1.527l1.69,0.052h0.141l1.683,-0.052c0,0 6.037,0.194 8.05,1.498c0.812,0.448 5.313,2.992 6.869,4.98c3.515,4.505 5.055,18.05 5.055,18.05l-4.77,-0.007" fill="#eeeeed"/><path d="M228.91,171.55c-0.32,2.153 -1.393,3.78 -2.386,3.628c-0.99,-0.148 -1.534,-2.014 -1.205,-4.16c0.317,-2.154 1.38,-3.78 2.368,-3.633c0.994,0.152 1.54,2.016 1.223,4.165" data-paper-data="{&quot;origPos&quot;:null}" fill="#ffdb7e"/><path d="M267.491,191.955c0.766,6.471 0.903,15.757 0.903,15.757v12.323h-30.544v-11.236c0,-1.476 -0.081,-9.293 0.803,-16.896c1.95,-0.34 6.014,-1.342 7.104,-3.81v-11.856c0.77,-0.168 1.604,-0.295 2.378,-0.395v9.799h10.23v-9.77c0.79839,0.09529 1.59117,0.23281 2.375,0.412v11.81c0.975,2.754 4.908,3.609 6.751,3.862" fill="#68a369"/><path d="M237.849,208.216h30.545v0.814h-30.544v-0.232z" fill="#477747"/><path d="M253.256,179.657l3.66,-3.932c-1.093,-0.113 -1.892,-0.142 -1.892,-0.142l-1.682,0.059h-0.137l-1.694,-0.094c-0.68291,0.04465 -1.36449,0.10767 -2.044,0.189l3.79,3.92zM274.795,155.828c1.122,0.726 1.86,1.952 1.86,3.35c0,2.228 -1.87,4.028 -4.181,4.028h-0.196c-3.746,6.72 -10.896,11.256 -19.116,11.256c-8.231,0 -15.398,-4.551 -19.133,-11.278c-0.146,0.016 -0.309,0.022 -0.459,0.022c-2.31,0 -4.184,-1.8 -4.184,-4.028c0,-1.498 0.858,-2.803 2.112,-3.497c-0.144,-1.035 -0.216,-2.081 -0.216,-3.155c0,-12.109 9.792,-21.927 21.88,-21.927c12.082,0 21.878,9.818 21.878,21.928c0.00243,1.10467 -0.07981,2.2079 -0.246,3.3" data-paper-data="{&quot;origPos&quot;:null}" fill="#ffdb7e"/><path d="M246.229,152.096c-0.772,-0.174 -0.908,-1.201 -3.386,-0.74c-0.779,0.18 -2.417,1.156 -2.732,1.808c-0.316,0.652 -0.088,-2.392 2.457,-3.522c1.835,-0.675 2.457,-0.642 3.977,-0.642c1.52,0 1.987,0.907 1.766,1.65c0,0 -0.503,1.803 -2.082,1.446zM260.134,152.096c0.772,-0.174 0.908,-1.201 3.386,-0.74c0.779,0.18 2.417,1.156 2.732,1.808c0.316,0.652 0.087,-2.392 -2.457,-3.522c-1.835,-0.675 -2.457,-0.642 -3.977,-0.642c-1.52,0 -1.987,0.907 -1.766,1.65c0,0 0.503,1.803 2.082,1.446z" data-paper-data="{&quot;origPos&quot;:null}" fill="#864e1a"/><path d="M246.26538,158c0,1.657 -0.895,3 -2,3c-1.105,0 -2,-1.343 -2,-3c0,-1.657 0.895,-3 2,-3c1.105,0 2,1.343 2,3M264.26538,158c0,1.657 -0.895,3 -2,3c-1.105,0 -2,-1.343 -2,-3c0,-1.657 0.895,-3 2,-3c1.105,0 2,1.343 2,3" data-paper-data="{&quot;origPos&quot;:null}" fill="#864e1a"/><path d="M253.02,161.069c-1.125,0.153 -3.02,1.834 -3.02,1.834c0,0 0.207,-1.009 0.503,-1.299c0.8,-1.156 2.487,-1.604 2.487,-1.604c0,0 2.173,0.703 2.65,1.588c0.443,0.824 0.34,1.238 0.34,1.238c0,0 -2.121,-1.871 -2.96,-1.756z" fill="#eeac6c"/><path d="M246.2,164.696c0,0 6.897,3.208 13.172,-0.397c0,0 -1.39,5.47 -5.95,5.561c-4.115,0.122 -4.984,-1.492 -5.477,-1.956c-0.492,-0.463 -1.42,-1.772 -1.745,-3.208" fill="#eeac6c"/><path d="M275.909,149.674c0.035,2.574 -0.862,8.147 -2.612,11.472c0,0 -4.309,-12.21 -7.855,-14.145c-4.327,-2.358 -15.751,1.05 -19.621,-2.018c-0.644,-0.506 -0.57,-1.658 -0.57,-1.658c0,0 -0.744,1.464 -1.106,1.878c-1.871,2.138 -6.741,5.241 -9.041,6.897c-1.863,1.342 -1.939,1.329 -1.534,9.046c0,0 -3.411,-7.026 -3.228,-11.71c0.057,-1.353 0.705,-4.353 1.77,-7.401c3.856,-7.745 11.835,-13.062 21.051,-13.062c10.592,0 19.549,7.019 22.485,16.667c0.14739,1.34006 0.23414,2.6861 0.26,4.034" data-paper-data="{&quot;origPos&quot;:null}" fill="#864e1a"/><path d="M251.452,176.983c-1.014,0 -1.847,-2.206 -1.847,-3.208h7.273c0,1.002 -0.832,3.208 -1.852,3.208h-3.574" data-paper-data="{&quot;origPos&quot;:null}" fill="#ffdb7e"/><path d="M250.385,176.303c-0.413,-0.627 -0.694,-1.499 -0.761,-2.127c1.169,0.19071 2.35154,0.28636 3.536,0.286c1.24285,0.00124 2.48359,-0.10246 3.709,-0.31l-0.013,0.013l-6.471,2.138" fill="#eeac6c"/><path d="M238.98,138.489c0,0 1.258,-12.644 4.643,-14.21l1.214,0.506c0,0 1.917,-3.02 3.3,-4.152c1.386,-1.135 11.162,5.033 11.162,5.033l1.151,-0.76c3.429,1.141 4.992,13.584 4.992,13.584c0,0 -11.481,2.365 -15.358,2.26c-2.831,-0.074 -11.104,-2.26 -11.104,-2.26" fill="#eeeeed"/><path d="M260.464,124.932l-9.071,5.669l9.043,-5.72z" fill="#b7b7b6"/><path d="M254.028,128.945l-10.423,-4.637l0.03,-0.054l10.457,4.651z" fill="#b7b7b6"/></g></g></svg>