<svg version="1.1" xmlns="http://www.w3.org/2000/svg" xmlns:xlink="http://www.w3.org/1999/xlink" width="60.51951" height="112.54523" viewBox="0,0,60.51951,112.54523"><g transform="translate(-209.47386,-123.595)"><g data-paper-data="{&quot;isPaintingLayer&quot;:true}" fill-rule="evenodd" stroke="none" stroke-width="1" stroke-linecap="butt" stroke-linejoin="miter" stroke-miterlimit="10" stroke-dasharray="" stroke-dashoffset="0" style="mix-blend-mode: normal"><path d="M209.474,169.97c7.957,12.399 18.58,2.054 14.968,-8.909c-2.624,-7.955 11.61,2.591 11.61,2.591c0,0 -8.334,23.063 -15.564,23.41c-7.232,0.342 -11.041,-10.944 -11.014,-17.092" data-paper-data="{&quot;origPos&quot;:null}" fill="#e6c834"/><path d="M213.969,198.524c0.102,-0.97 0.426,-1.841 0.888,-2.508v0.01c0.091,-0.892 1.478,-13.925 4.934,-18.362c1.742,-2.237 8.242,-5.657 8.242,-5.657h0.012c2.092,-1.198 7.044,-1.374 7.044,-1.374l1.723,0.075h0.14l1.717,-0.106c0,0 4.93,0.237 7.034,1.447v0.006l11.567,4.16l5.37,-6.332c-0.088,-0.255 -0.159,-0.529 -0.202,-0.817c-0.345,-0.628 -0.627,-1.42 -0.797,-2.297c-0.446,-2.298 0.049,-4.33 1.109,-4.535c0.565,-0.11 1.179,0.325 1.695,1.105c1.137,-1.101 2.543,-1.561 3.716,-1.062c1.798,0.764 2.372,3.487 1.276,6.08c-0.7,1.662 -1.916,2.869 -3.176,3.314h0.005c0,0 -3.353,9.549 -6.27,10.613c-2.123,0.771 -9.063,-1.882 -10.443,-2.425c2.562,9.922 2.864,24.984 2.864,24.984h-31.069c0,0 0.244,-13.091 2.347,-22.914v-0.008c-0.254,0.446 -0.7,1.008 -1.267,1.818c-1.663,2.356 -3.213,12.335 -3.213,12.335c0.037,0.068 0.075,0.132 0.109,0.205c0.47304,0.47756 0.87089,1.02411 1.18,1.621c0.9,1.706 0.993,3.426 0.21,3.847c-0.423,0.221 -1.009,0.027 -1.602,-0.462c-0.636,1.141 -1.637,1.842 -2.682,1.73c-1.604,-0.17 -2.704,-2.181 -2.461,-4.491z" data-paper-data="{&quot;origPos&quot;:null}" fill="#e7c79f"/><path d="M221.347,204.844c0.014,-0.64 0.258,-11.56 1.93,-20.767c0.04,-0.2 0.06,-0.383 0.101,-0.582c3.434,-3.85 3.875,-7.418 4.68,-11.485c0.932,-0.533 2.426,-0.86 3.8,-1.061c0,0 0,6.127 4.952,6.127c4.687,0 4.462,-6.212 4.462,-6.212c1.525,0.207 3.356,0.57 4.434,1.194c0.847,2.555 1.73,7.88 4.369,10.044c2.025,9.532 2.326,22.035 2.34,22.742h-31.067z" fill="#0771b7"/><path d="M245.258,176.919v1.793c0,0.955 -0.772,1.73 -1.722,1.73h-0.004c-0.947,0 -1.72,-0.775 -1.72,-1.73v-1.793z" fill="#f6b90c"/><path d="M250.04,182.073v22.77h-2.04v-25.646c0.542,1.157 1.2,2.173 2.04,2.875zM225.547,180.48c-0.527,0.946 -1.192,1.9 -2.042,2.87v21.494h2.042v-24.364M227.204,187.04h19.328v12.04h-19.328z" fill="#eeeeed"/><path d="M227.204,187.04h19.328v2.43h-19.328zM227.204,197.544h19.328v1.536h-19.328z" fill="#99588c"/><path d="M234.492,195.373h-0.77v-3.19h-0.797v-0.59l1.567,-0.142zM237.597,195.373h-0.77v-3.19h-0.797v-0.59l1.567,-0.142zM241.49,195.373h-2.583v-0.508l1.191,-1.353c0.178,-0.212 0.306,-0.388 0.38,-0.535c0.06832,-0.12338 0.10668,-0.26108 0.112,-0.402c0.00671,-0.13662 -0.03509,-0.27121 -0.118,-0.38c-0.08,-0.099 -0.2,-0.147 -0.36,-0.147c-0.15111,-0.00615 -0.29538,0.06319 -0.385,0.185c-0.09562,0.13536 -0.1441,0.29839 -0.138,0.464h-0.75l-0.004,-0.016c-0.01,-0.345 0.103,-0.633 0.334,-0.873c0.236,-0.236 0.554,-0.357 0.944,-0.357c0.394,0 0.704,0.104 0.923,0.305c0.217,0.203 0.326,0.475 0.326,0.817c0,0.232 -0.06,0.441 -0.182,0.634c-0.19317,0.27858 -0.4057,0.54324 -0.636,0.792l-0.633,0.767l0.004,0.01h1.575z" fill="#333433"/><path d="M235.09,230.1709h-8.226l-0.025,-4.092l-0.332,-7.63l-0.601,-2.945h10.333v2.946l-0.227,7.63zM246.893,230.1709h-8.869l-0.291,-4.092l-0.219,-7.63v-2.945h10.337l-0.6,2.946l-0.337,7.63z" data-paper-data="{&quot;origPos&quot;:null}" fill="#e7c79f"/><path d="M248.998,204.801l-1.078,11.143h-10.505l-0.396,-4.097h-0.28l-0.4,4.097h-10.51l-1.071,-11.143h15.246z" fill="#343434"/><path d="M236.013,226.33l0.19,3.908h0.02c0.063,0.256 -0.021,0.538 -0.197,0.81c-0.57,0.881 -1.558,1.534 -2.4,2.126c-0.137,0.094 -0.275,0.181 -0.417,0.266h-7.468v-2.506c0.26932,-0.26031 0.56338,-0.49375 0.878,-0.697h-0.009l0.23,-3.907h9.172z" fill="#eeeeed"/><path d="M236.045,226.964h-9.243l0.01,-0.194h9.224zM236.063,227.349h-9.282l0.01,-0.193h9.261z" fill="#e63744"/><path d="M248.706,233.438h-8.157c-0.145,-0.085 -0.283,-0.178 -0.419,-0.271c-0.843,-0.591 -1.832,-1.238 -2.399,-2.118c-0.178,-0.274 -0.26,-0.556 -0.199,-0.813h0.012l0.19,-3.905h9.18l0.227,3.905h-0.005c0.61759,0.38974 1.15132,0.89865 1.57,1.497z" fill="#eeeeed"/><path d="M237.714,226.769h9.228l0.009,0.195h-9.249zM237.694,227.156h9.268l0.014,0.192h-9.292z" fill="#e63744"/><path d="M226.61,230.222c0,0 0.188,-1.851 1.743,-1.927c1.606,-0.079 2.826,1.598 2.826,1.598l-4.546,0.344z" fill="#6e6e6d"/><path d="M227.214,230.061l-0.017,-0.009c0,0 0.13,-1.272 1.196,-1.326c1.107,-0.054 1.947,1.098 1.947,1.098l-3.126,0.236z" fill="#e63744"/><path d="M226.633,230.237c0,0 1.868,-1.171 6.064,0c1.692,0.199 2.217,-1.378 3.012,-1.73c0.4,-0.177 0.514,0 0.514,0v1.73c0.063,0.257 -0.021,0.539 -0.197,0.81c-0.57,0.881 -1.558,1.532 -2.4,2.125c-1.303,0.895 -2.949,1.372 -4.39,2.062c-1.304,0.552 -3.017,1.578 -4.187,0.27c-1.537,-1.855 -0.23,-4.115 1.57,-5.267h-0.009v-0.008l0.023,0.008" fill="#e63744"/><path d="M235.899,231.229c-0.58,0.792 -1.49,1.39 -2.274,1.942c-0.546,0.373 -1.153,0.678 -1.78,0.951l-0.17,-0.348c1.862,-0.543 4.015,-2.736 4.015,-2.736l0.21,0.191M226.633,230.237c0,0 1.418,-0.889 4.546,-0.344c-0.923,0.684 -2.461,1.687 -3.551,1.695c-1.402,0.011 -1.437,-0.64 -1.158,-1.256c0.049,-0.035 0.099,-0.039 0.149,-0.101h-0.009v-0.009l0.023,0.015" fill="#343434"/><path d="M226.566,231.435c2.468,0 4.621,0.989 5.78,2.46c-1.014,0.485 -2.113,0.863 -3.11,1.339c-1.305,0.552 -3.018,1.578 -4.185,0.27c-1.071,-1.291 -0.764,-2.778 0.126,-3.949c0.005,-0.004 0.008,-0.012 0.015,-0.016c0.445,-0.069 0.902,-0.104 1.375,-0.104" fill="#343434"/><path d="M236.171,228.701c0.01674,0.00001 0.03347,0.00135 0.05,0.004v1.532c0.066,0.257 -0.019,0.538 -0.194,0.81c-0.114,0.174 -0.242,0.34 -0.384,0.497c-0.126,-0.3 -0.202,-0.711 -0.202,-1.162c0,-0.929 0.326,-1.682 0.73,-1.682" fill="#eeeeed"/><path d="M225.559,231.142c-0.015,0 -0.03,-0.009 -0.031,-0.025c-0.00243,-0.00797 -0.00144,-0.01658 0.00273,-0.02379c0.00417,-0.0072 0.01116,-0.01235 0.01927,-0.01421c0.02,-0.006 2.054,-0.503 4.664,-0.014c0.019,0.002 0.029,0.02 0.027,0.035c-0.00444,0.01793 -0.02172,0.02959 -0.04,0.027c-2.594,-0.487 -4.614,0.008 -4.634,0.013c-0.002,0.002 -0.006,0.002 -0.008,0.002M226.095,230.648c-0.01378,0.00041 -0.02627,-0.00805 -0.031,-0.021c-0.00314,-0.00794 -0.00276,-0.01684 0.00106,-0.02447c0.00382,-0.00763 0.01071,-0.01329 0.01895,-0.01553c0.02,-0.008 1.908,-0.632 4.53,-0.033c0.019,0.005 0.031,0.023 0.027,0.04c-0.00183,0.00861 -0.00724,0.01604 -0.01487,0.02043c-0.00763,0.00439 -0.01676,0.00532 -0.02513,0.00257c-2.605,-0.593 -4.475,0.022 -4.496,0.029c-0.004,0.002 -0.006,0.002 -0.01,0.002" fill="#c12636"/><path d="M247.12,230.237l-4.543,-0.344c0,0 1.218,-1.677 2.826,-1.598c1.553,0.076 1.743,1.927 1.743,1.927l-0.027,0.015z" fill="#6e6e6d"/><path d="M246.54,230.06l-3.123,-0.236c0,0 0.84,-1.152 1.942,-1.098c1.068,0.054 1.198,1.326 1.198,1.326l-0.017,0.009z" fill="#e63744"/><path d="M247.12,230.237l0.026,-0.008v0.008h-0.01c1.802,1.152 3.109,3.412 1.567,5.267c-1.167,1.308 -2.88,0.282 -4.185,-0.27c-1.441,-0.69 -3.085,-1.167 -4.391,-2.062c-0.84,-0.593 -1.828,-1.244 -2.397,-2.125c-0.178,-0.271 -0.263,-0.553 -0.199,-0.81v-1.73c0,0 0.116,-0.177 0.512,0c0.797,0.352 1.322,1.929 3.017,1.73c4.193,-1.171 6.06,0 6.06,0" fill="#e63744"/><path d="M237.855,231.229l0.206,-0.191c0,0 2.158,2.193 4.02,2.736l-0.171,0.348c-0.626,-0.273 -1.237,-0.578 -1.782,-0.951c-0.78,-0.552 -1.693,-1.15 -2.273,-1.942M247.12,230.237l0.026,-0.015v0.009h-0.01c0.051,0.062 0.1,0.066 0.15,0.101c0.277,0.616 0.242,1.267 -1.16,1.256c-1.09,-0.008 -2.63,-1.011 -3.549,-1.695c3.128,-0.545 4.542,0.344 4.542,0.344" fill="#343434"/><path d="M247.188,231.435c0.472,0 0.93,0.035 1.377,0.104c0.004,0.004 0.006,0.012 0.012,0.016c0.89,1.171 1.197,2.658 0.124,3.949c-1.164,1.308 -2.878,0.282 -4.183,-0.27c-0.997,-0.476 -2.095,-0.854 -3.107,-1.339c1.156,-1.471 3.312,-2.46 5.777,-2.46" fill="#343434"/><path d="M237.583,228.7c0.404,0 0.733,0.753 0.733,1.682c0,0.451 -0.077,0.862 -0.203,1.162c-0.14085,-0.15533 -0.26924,-0.32151 -0.384,-0.497c-0.177,-0.272 -0.262,-0.553 -0.196,-0.81v-1.532c0.01656,-0.00247 0.03326,-0.00381 0.05,-0.004" fill="#eeeeed"/><path d="M248.198,231.142c-0.005,0 -0.007,0 -0.008,-0.002c-0.021,-0.005 -2.04,-0.5 -4.64,-0.013c-0.015,0.003 -0.031,-0.008 -0.035,-0.027c-0.005,-0.015 0.009,-0.033 0.025,-0.035c2.61,-0.489 4.645,0.008 4.664,0.014c0.01704,0.00397 0.02774,0.0209 0.024,0.038c-0.004,0.016 -0.03,0.025 -0.03,0.025M247.661,230.648c-0.0041,0.00029 -0.00822,-0.00039 -0.012,-0.002c-0.016,-0.007 -1.889,-0.622 -4.499,-0.029c-0.014,0.006 -0.033,-0.007 -0.037,-0.023c-0.00195,-0.01752 0.0084,-0.03408 0.025,-0.04c2.624,-0.599 4.515,0.025 4.532,0.033c0.021,0.005 0.029,0.021 0.021,0.04c-0.005,0.012 -0.03,0.021 -0.03,0.021" fill="#c12636"/><path d="M238.1999,172.395h-3.636c-1.042,0 -1.883,-2.243 -1.883,-3.267h7.4c0,1.024 -0.843,3.267 -1.881,3.267" data-paper-data="{&quot;origPos&quot;:null}" fill="#e7c79f"/><path d="M233.722,171.563c-0.417,-0.638 -0.708,-1.526 -0.776,-2.166c1.17,0.192 2.376,0.292 3.604,0.292c1.26124,0.00168 2.52026,-0.10572 3.763,-0.321l-0.01,0.015l-6.581,2.18" data-paper-data="{&quot;origPos&quot;:null}" fill="#eeac6c"/><path d="M214.83,150.653c-0.16699,-1.11254 -0.25055,-2.236 -0.25,-3.361c0,-12.354 9.975,-22.365 22.277,-22.365c12.3,0 22.276,10.011 22.276,22.365c0,1.09 -0.078,2.16 -0.227,3.21c1.284,0.705 2.151,2.04 2.151,3.567c0,2.27 -1.905,4.11 -4.255,4.11c-0.157,0 -0.316,-0.01 -0.468,-0.026c-3.803,6.862 -11.1,11.503 -19.477,11.503c-8.37,0 -15.66,-4.632 -19.466,-11.483c-0.068,0.002 -0.132,0.007 -0.2,0.007c-2.35,0 -4.254,-1.841 -4.254,-4.11c0,-1.425 0.752,-2.68 1.894,-3.417" data-paper-data="{&quot;origPos&quot;:null}" fill="#e7c79f"/><path d="M259.919,144.598c0.038,2.616 -1.125,6.247 -1.125,6.247c0,0 -5.884,-6.995 -9.474,-8.958c-4.387,-2.394 -6.573,1.136 -10.498,-1.971c-0.65,-0.516 -1.86,-1.882 -1.86,-1.882c0,0 -1.474,1.494 -1.868,1.882c-4.41,4.334 -7.715,-0.723 -11.427,1.892c-4.724,3.333 -8.719,8.88 -8.719,8.88c0,0 -1.373,-1.577 -1.181,-6.334c0.056,-1.373 0.714,-4.411 1.794,-7.499c3.898,-7.86 11.983,-13.26 21.323,-13.26c10.726,0 19.794,7.124 22.771,16.912c0.15247,1.35842 0.24091,2.72326 0.265,4.09" data-paper-data="{&quot;origPos&quot;:null}" fill="#e6c834"/><path d="M232.311,145.65c0,0 -0.503,1.803 -2.082,1.446c-0.772,-0.174 -0.908,-1.201 -3.386,-0.74c-0.779,0.18 -2.417,1.156 -2.732,1.808c-0.316,0.652 -0.088,-2.392 2.457,-3.522c1.835,-0.675 2.457,-0.642 3.977,-0.642c1.52,0 1.987,0.907 1.766,1.65M242.052,145.65c0,0 0.503,1.803 2.082,1.446c0.772,-0.174 0.908,-1.201 3.386,-0.74c0.779,0.18 2.417,1.156 2.732,1.808c0.316,0.652 0.087,-2.392 -2.457,-3.522c-1.835,-0.675 -2.457,-0.642 -3.977,-0.642c-1.52,0 -1.987,0.907 -1.766,1.65" data-paper-data="{&quot;origPos&quot;:null}" fill="#eeac6c"/><path d="M229.7499,153c0,1.657 -0.895,3 -2,3c-1.105,0 -2,-1.343 -2,-3c0,-1.657 0.895,-3 2,-3c1.105,0 2,1.343 2,3M247.7499,153c0,1.657 -0.895,3 -2,3c-1.105,0 -2,-1.343 -2,-3c0,-1.657 0.895,-3 2,-3c1.105,0 2,1.343 2,3" data-paper-data="{&quot;origPos&quot;:null}" fill="#6b4813"/><path d="M237.02,156.069c-1.125,0.153 -3.02,1.834 -3.02,1.834c0,0 0.207,-1.009 0.503,-1.299c0.8,-1.156 2.487,-1.604 2.487,-1.604c0,0 2.173,0.703 2.65,1.588c0.443,0.824 0.34,1.238 0.34,1.238c0,0 -2.121,-1.871 -2.96,-1.756z" fill="#eeac6c"/><path d="M230.2,159.696c0,0 6.897,3.208 13.172,-0.397c0,0 -1.39,5.47 -5.95,5.561c-4.115,0.122 -4.984,-1.492 -5.477,-1.956c-0.492,-0.463 -1.42,-1.772 -1.745,-3.208" fill="#eeac6c"/></g></g></svg>