<svg xmlns="http://www.w3.org/2000/svg" width="60.52" height="112.545"><g fill-rule="evenodd" stroke-miterlimit="10" data-paper-data="{&quot;isPaintingLayer&quot;:true}" style="mix-blend-mode:normal"><path fill="#e6c834" d="M0 46.375c7.957 12.399 18.58 2.054 14.968-8.909-2.624-7.955 11.61 2.591 11.61 2.591s-8.334 23.063-15.564 23.41C3.782 63.809-.026 52.523 0 46.375" data-paper-data="{&quot;origPos&quot;:null}"/><path fill="#e7c79f" d="M4.495 74.929c.102-.97.426-1.841.888-2.508v.01c.091-.892 1.478-13.925 4.934-18.362 1.742-2.237 8.242-5.657 8.242-5.657h.012c2.092-1.198 7.044-1.374 7.044-1.374l1.723.075h.14l1.717-.106s4.93.237 7.034 1.447v.006l11.567 4.16 5.37-6.332a4.583 4.583 0 0 1-.202-.817c-.345-.628-.627-1.42-.797-2.297-.446-2.298.05-4.33 1.11-4.535.564-.11 1.178.325 1.694 1.105 1.137-1.101 2.543-1.561 3.716-1.062 1.798.764 2.372 3.487 1.276 6.08-.7 1.662-1.916 2.869-3.176 3.314h.005s-3.353 9.549-6.27 10.613c-2.123.771-9.063-1.882-10.443-2.425 2.562 9.922 2.864 24.984 2.864 24.984H11.874s.244-13.091 2.347-22.914v-.008c-.254.446-.7 1.008-1.267 1.818-1.663 2.356-3.213 12.335-3.213 12.335.037.068.075.132.11.205.472.478.87 1.024 1.18 1.621.9 1.706.992 3.426.21 3.847-.424.221-1.01.027-1.603-.462-.636 1.141-1.637 1.842-2.682 1.73-1.604-.17-2.704-2.181-2.46-4.491z" data-paper-data="{&quot;origPos&quot;:null}"/><path fill="#0771b7" d="M11.873 81.249c.014-.64.258-11.56 1.93-20.767.04-.2.06-.383.101-.582 3.434-3.85 3.875-7.418 4.68-11.485.932-.533 2.426-.86 3.8-1.061 0 0 0 6.127 4.952 6.127 4.687 0 4.462-6.212 4.462-6.212 1.525.207 3.356.57 4.434 1.194.847 2.555 1.73 7.88 4.37 10.044 2.024 9.532 2.325 22.035 2.34 22.742H11.873z"/><path fill="#f6b90c" d="M35.784 53.324v1.793c0 .955-.772 1.73-1.722 1.73h-.004c-.947 0-1.72-.775-1.72-1.73v-1.793z"/><path fill="#eeeeed" d="M40.566 58.478v22.77h-2.04V55.602c.542 1.157 1.2 2.173 2.04 2.875zm-24.493-1.593c-.527.946-1.192 1.9-2.042 2.87v21.494h2.042V56.885m1.657 6.56h19.328v12.04H17.73z"/><path fill="#99588c" d="M17.73 63.445h19.328v2.43H17.73zm0 10.504h19.328v1.536H17.73z"/><path fill="#333433" d="M25.018 71.778h-.77v-3.19h-.797v-.59l1.567-.142zm3.105 0h-.77v-3.19h-.797v-.59l1.567-.142zm3.893 0h-2.583v-.508l1.191-1.353c.178-.212.306-.388.38-.535a.9.9 0 0 0 .112-.402.58.58 0 0 0-.118-.38c-.08-.099-.2-.147-.36-.147a.455.455 0 0 0-.385.185.756.756 0 0 0-.138.464h-.75l-.004-.016c-.01-.345.103-.633.334-.873.236-.236.554-.357.944-.357.394 0 .704.104.923.305.217.203.326.475.326.817 0 .232-.06.441-.182.634a7.23 7.23 0 0 1-.636.792l-.633.767.004.01h1.575z"/><path fill="#e7c79f" d="M25.616 106.576H17.39l-.025-4.092-.332-7.63-.6-2.945h10.332v2.946l-.227 7.63zm11.803 0H28.55l-.29-4.092-.22-7.63v-2.945h10.337l-.6 2.946-.337 7.63z" data-paper-data="{&quot;origPos&quot;:null}"/><path fill="#343434" d="m39.524 81.206-1.078 11.143H27.941l-.396-4.097h-.28l-.4 4.097h-10.51l-1.07-11.143H30.53z"/><path fill="#eeeeed" d="m26.54 102.735.19 3.908h.02c.062.256-.022.538-.198.81-.57.881-1.558 1.534-2.4 2.126a7.937 7.937 0 0 1-.417.266h-7.468v-2.506c.27-.26.564-.494.878-.697h-.009l.23-3.907h9.172z"/><path fill="#e63744" d="M26.571 103.369h-9.243l.01-.194h9.224zm.018.385h-9.282l.01-.193h9.261z"/><path fill="#eeeeed" d="M39.232 109.843h-8.157a7.154 7.154 0 0 1-.419-.271c-.843-.591-1.832-1.238-2.399-2.118-.178-.274-.26-.556-.199-.813h.012l.19-3.905h9.18l.227 3.905h-.005c.618.39 1.151.899 1.57 1.497z"/><path fill="#e63744" d="M28.24 103.174h9.228l.01.195h-9.25zm-.02.387h9.268l.014.192H28.21z"/><path fill="#6e6e6d" d="M17.136 106.627s.188-1.851 1.743-1.927c1.606-.079 2.826 1.598 2.826 1.598l-4.546.344z"/><path fill="#e63744" d="m17.74 106.466-.017-.009s.13-1.272 1.196-1.326c1.107-.054 1.947 1.098 1.947 1.098l-3.126.236z"/><path fill="#e63744" d="M17.16 106.642s1.867-1.171 6.063 0c1.692.199 2.217-1.378 3.012-1.73.4-.177.514 0 .514 0v1.73c.063.257-.02.539-.197.81-.57.881-1.558 1.532-2.4 2.125-1.303.895-2.949 1.372-4.39 2.062-1.304.552-3.017 1.578-4.187.27-1.537-1.855-.23-4.115 1.57-5.267h-.009v-.008l.023.008"/><path fill="#343434" d="M26.425 107.634c-.58.792-1.49 1.39-2.274 1.942-.546.373-1.153.678-1.78.951l-.17-.348c1.862-.543 4.015-2.736 4.015-2.736l.21.191m-9.267-.992s1.418-.889 4.546-.344c-.923.684-2.46 1.687-3.55 1.695-1.403.011-1.438-.64-1.159-1.256.05-.035.1-.039.15-.101h-.01v-.009l.023.015"/><path fill="#343434" d="M17.092 107.84c2.468 0 4.621.989 5.78 2.46-1.014.485-2.113.863-3.11 1.339-1.305.552-3.018 1.578-4.185.27-1.07-1.291-.764-2.778.126-3.949.005-.004.008-.012.015-.016a8.95 8.95 0 0 1 1.375-.104"/><path fill="#eeeeed" d="M26.697 105.106c.017 0 .034.001.05.004v1.532c.066.257-.019.538-.194.81-.114.174-.242.34-.384.497-.126-.3-.202-.711-.202-1.162 0-.929.326-1.682.73-1.682"/><path fill="#c12636" d="M16.085 107.547c-.015 0-.03-.009-.03-.025a.03.03 0 0 1 .021-.038c.02-.006 2.054-.503 4.664-.014.02.002.03.02.027.035a.036.036 0 0 1-.04.027c-2.594-.487-4.614.008-4.634.013-.002.002-.006.002-.008.002m.536-.494a.032.032 0 0 1-.03-.021.03.03 0 0 1 .02-.04c.02-.008 1.907-.632 4.53-.033.018.005.03.023.026.04a.031.031 0 0 1-.04.023c-2.605-.593-4.475.022-4.496.029-.004.002-.006.002-.01.002"/><path fill="#6e6e6d" d="m37.646 106.642-4.543-.344s1.218-1.677 2.826-1.598c1.553.076 1.743 1.927 1.743 1.927l-.027.015z"/><path fill="#e63744" d="m37.066 106.465-3.123-.236s.84-1.152 1.942-1.098c1.068.054 1.198 1.326 1.198 1.326l-.017.009z"/><path fill="#e63744" d="m37.646 106.642.026-.008v.008h-.01c1.802 1.152 3.11 3.412 1.567 5.267-1.167 1.308-2.88.282-4.185-.27-1.44-.69-3.085-1.167-4.39-2.062-.84-.593-1.829-1.244-2.398-2.125-.178-.271-.263-.553-.199-.81v-1.73s.116-.177.512 0c.797.352 1.322 1.929 3.017 1.73 4.193-1.171 6.06 0 6.06 0"/><path fill="#343434" d="m28.381 107.634.206-.191s2.158 2.193 4.02 2.736l-.17.348c-.627-.273-1.238-.578-1.783-.951-.78-.552-1.693-1.15-2.273-1.942m9.265-.992.026-.015v.009h-.01c.051.062.1.066.15.101.277.616.242 1.267-1.16 1.256-1.09-.008-2.63-1.011-3.549-1.695 3.128-.545 4.542.344 4.542.344"/><path fill="#343434" d="M37.714 107.84c.472 0 .93.035 1.377.104.004.004.006.012.012.016.89 1.171 1.197 2.658.124 3.949-1.164 1.308-2.878.282-4.183-.27-.997-.476-2.095-.854-3.107-1.339 1.156-1.471 3.312-2.46 5.777-2.46"/><path fill="#eeeeed" d="M28.11 105.105c.403 0 .732.753.732 1.682 0 .451-.077.862-.203 1.162a3.994 3.994 0 0 1-.384-.497c-.177-.272-.262-.553-.196-.81v-1.532a.367.367 0 0 1 .05-.004"/><path fill="#c12636" d="M38.724 107.547c-.005 0-.007 0-.008-.002-.02-.005-2.04-.5-4.64-.013-.015.003-.03-.008-.035-.027-.005-.015.01-.033.025-.035 2.61-.489 4.645.008 4.664.014.017.004.028.02.024.038-.004.016-.03.025-.03.025m-.537-.494c-.004 0-.008 0-.012-.002-.016-.007-1.889-.622-4.499-.029-.014.006-.033-.007-.037-.023a.038.038 0 0 1 .025-.04c2.624-.599 4.515.025 4.532.033.021.005.03.021.021.04-.005.012-.03.021-.03.021"/><path fill="#e7c79f" d="M28.726 48.8H25.09c-1.042 0-1.883-2.243-1.883-3.267h7.4c0 1.024-.843 3.267-1.881 3.267" data-paper-data="{&quot;origPos&quot;:null}"/><path fill="#eeac6c" d="M24.248 47.968a5.414 5.414 0 0 1-.776-2.166 22.263 22.263 0 0 0 7.367-.029l-.01.015-6.58 2.18" data-paper-data="{&quot;origPos&quot;:null}"/><path fill="#e7c79f" d="M5.356 27.058a22.568 22.568 0 0 1-.25-3.361c0-12.354 9.975-22.365 22.277-22.365 12.3 0 22.276 10.011 22.276 22.365 0 1.09-.078 2.16-.227 3.21 1.284.705 2.151 2.04 2.151 3.567 0 2.27-1.905 4.11-4.255 4.11-.157 0-.316-.01-.468-.026-3.803 6.862-11.1 11.503-19.477 11.503-8.37 0-15.66-4.632-19.466-11.483-.068.002-.132.007-.2.007-2.35 0-4.254-1.841-4.254-4.11 0-1.425.752-2.68 1.894-3.417" data-paper-data="{&quot;origPos&quot;:null}"/><path fill="#e6c834" d="M50.445 21.003c.038 2.616-1.125 6.247-1.125 6.247s-5.884-6.995-9.474-8.958c-4.387-2.394-6.573 1.136-10.498-1.971-.65-.516-1.86-1.882-1.86-1.882s-1.474 1.494-1.868 1.882c-4.41 4.334-7.715-.723-11.427 1.892-4.724 3.333-8.719 8.88-8.719 8.88s-1.373-1.577-1.18-6.334c.055-1.373.713-4.411 1.793-7.499C9.985 5.4 18.07 0 27.41 0c10.726 0 19.794 7.124 22.771 16.912.153 1.358.241 2.723.265 4.09" data-paper-data="{&quot;origPos&quot;:null}"/><path fill="#eeac6c" d="M22.837 22.055s-.503 1.803-2.082 1.446c-.772-.174-.908-1.201-3.386-.74-.779.18-2.417 1.156-2.732 1.808-.316.652-.088-2.392 2.457-3.522 1.835-.675 2.457-.642 3.977-.642s1.987.907 1.766 1.65m9.741 0s.503 1.803 2.082 1.446c.772-.174.908-1.201 3.386-.74.78.18 2.417 1.156 2.732 1.808.316.652.087-2.392-2.457-3.522-1.835-.675-2.457-.642-3.977-.642s-1.987.907-1.766 1.65" data-paper-data="{&quot;origPos&quot;:null}"/><path fill="#6b4813" d="M20.276 29.405c0 1.657-.895 3-2 3s-2-1.343-2-3 .895-3 2-3 2 1.343 2 3m18 0c0 1.657-.895 3-2 3s-2-1.343-2-3 .895-3 2-3 2 1.343 2 3" data-paper-data="{&quot;origPos&quot;:null}"/><path fill="#eeac6c" d="M27.546 32.474c-1.125.153-3.02 1.834-3.02 1.834s.207-1.009.503-1.299c.8-1.156 2.487-1.604 2.487-1.604s2.173.703 2.65 1.588c.443.824.34 1.238.34 1.238s-2.12-1.871-2.96-1.756zM20.726 36.101s6.897 3.208 13.172-.397c0 0-1.39 5.47-5.95 5.561-4.115.122-4.984-1.492-5.477-1.956-.492-.463-1.42-1.772-1.745-3.208"/></g></svg>