<svg version="1.1" xmlns="http://www.w3.org/2000/svg" xmlns:xlink="http://www.w3.org/1999/xlink" width="53.7467" height="115.36725" viewBox="0,0,53.7467,115.36725"><g transform="translate(-213.14948,-122.294)"><g data-paper-data="{&quot;isPaintingLayer&quot;:true}" fill-rule="evenodd" stroke-miterlimit="10" stroke-dasharray="" stroke-dashoffset="0" style="mix-blend-mode: normal"><path d="M247.00301,127.352c0,2.794 -3.125,5.06 -6.98,5.06c-3.855,0 -6.98,-2.266 -6.98,-5.06c0,-2.793 3.125,-5.058 6.98,-5.058c3.855,0 6.98,2.265 6.98,5.058" data-paper-data="{&quot;origPos&quot;:null}" fill="#2c2c2d" stroke="none" stroke-width="1" stroke-linecap="butt" stroke-linejoin="miter"/><path d="M247.00301,127.352c0,2.794 -3.125,5.059 -6.98,5.059c-3.855,0 -6.98,-2.265 -6.98,-5.058c0,-0.038 0.007,-0.073 0.008,-0.11c2.01,-0.619 4.315,-0.969 6.969,-0.969c2.64,0 4.95,0.373 6.98,1.03l0.003,0.048" fill="#757575" stroke="none" stroke-width="1" stroke-linecap="butt" stroke-linejoin="miter"/><path d="M237.85801,230.02537l-5.004,-0.881l-0.224,-17.615h6.61z" data-paper-data="{&quot;origPos&quot;:null}" fill="#75594c" stroke="none" stroke-width="1" stroke-linecap="butt" stroke-linejoin="miter"/><path d="M232.85401,229.14437c0.555,-1.116 5.131,-0.824 5.004,0.881c-0.128,1.705 -4.516,5.732 -4.516,5.732c-2.64,-1.593 -0.488,-6.613 -0.488,-6.613" data-paper-data="{&quot;origPos&quot;:null}" fill="#75594c" stroke="none" stroke-width="1" stroke-linecap="butt" stroke-linejoin="miter"/><path d="M233.45301,233.631c1.112,0.471 3.07,-1.562 4.404,-3.862c-0.022,0.639 -0.202,1.408 -0.59,2.337c-1.189,2.84 -3.847,6.067 -5.219,5.487c-1.372,-0.581 -0.938,-4.749 0.25,-7.589c0.179,-0.427 0.365,-0.793 0.555,-1.116c-0.434,2.213 -0.352,4.341 0.6,4.743" fill="#757575" stroke="none" stroke-width="1" stroke-linecap="butt" stroke-linejoin="miter"/><path d="M240.80501,211.273h6.611l-0.224,17.615l-5.005,0.881z" data-paper-data="{&quot;origPos&quot;:null}" fill="#75594c" stroke="none" stroke-width="1" stroke-linecap="butt" stroke-linejoin="miter"/><path d="M247.19201,228.888c0,0 2.151,5.02 -0.488,6.613c0,0 -4.39,-4.027 -4.517,-5.732c-0.127,-1.705 4.45,-1.997 5.005,-0.881" data-paper-data="{&quot;origPos&quot;:null}" fill="#75594c" stroke="none" stroke-width="1" stroke-linecap="butt" stroke-linejoin="miter"/><path d="M246.59301,233.631c0.95,-0.402 1.033,-2.53 0.599,-4.743c0.19,0.323 0.376,0.689 0.555,1.116c1.188,2.84 1.623,7.008 0.25,7.589c-1.371,0.58 -4.03,-2.647 -5.219,-5.487c-0.388,-0.929 -0.568,-1.698 -0.59,-2.337c1.334,2.3 3.292,4.333 4.405,3.862" data-paper-data="{&quot;origPos&quot;:null}" fill="#757575" stroke="none" stroke-width="1" stroke-linecap="butt" stroke-linejoin="miter"/><path d="M252.02601,168.447l-2.508,14.853h-18.99l-2.508,-14.853l8.569,-1.717v-5.85h6.869v5.85z" data-paper-data="{&quot;origPos&quot;:null}" fill="#75594c" stroke="none" stroke-width="1" stroke-linecap="butt" stroke-linejoin="miter"/><path d="M254.82201,189.62c5.111,7.066 12.073,6.011 12.073,22.463c0.014,-0.005 -0.837,2.709 -2.55,3.294c-1.711,0.592 -4.022,-1.034 -4.008,-1.039c0.015,-0.003 -1.074,2.613 -2.823,3.03c-1.748,0.424 -3.887,-1.415 -3.872,-1.418c0.014,-0.003 -1.305,2.496 -3.077,2.746c-1.772,0.256 -3.725,-1.777 -3.71,-1.78c0.015,-0.001 -1.527,2.363 -3.311,2.443c-1.784,0.088 -3.536,-2.12 -3.522,-2.12c0.015,0 -1.738,2.208 -3.521,2.12c-1.785,-0.08 -3.326,-2.443 -3.312,-2.443c0.015,0.002 -1.937,2.036 -3.708,1.78c-1.773,-0.249 -3.093,-2.749 -3.078,-2.746c0.014,0.003 -2.124,1.842 -3.872,1.418c-1.749,-0.417 -2.838,-3.033 -2.824,-3.03c0.015,0.005 -2.296,1.631 -4.007,1.039c-1.713,-0.584 -2.564,-3.299 -2.55,-3.294c0,0 1.883,-8.689 11.52,-22.463z" fill="#4fc3f7" stroke="none" stroke-width="1" stroke-linecap="butt" stroke-linejoin="miter"/><path d="M239.64101,189.621l0.16,0.11l0.167,-0.111h-0.327zM266.89601,212.084c0.014,-0.005 -0.837,2.708 -2.55,3.293c-1.711,0.593 -4.022,-1.033 -4.008,-1.039c0.015,-0.003 -1.075,2.613 -2.823,3.03c-1.748,0.424 -3.887,-1.415 -3.872,-1.418c0.014,-0.002 -1.305,2.497 -3.078,2.746c-1.771,0.256 -3.723,-1.777 -3.709,-1.78c0.015,0 -1.527,2.363 -3.311,2.443c-1.784,0.088 -3.536,-2.12 -3.522,-2.12c0.015,0 -1.738,2.208 -3.521,2.12c-1.785,-0.079 -3.326,-2.443 -3.312,-2.443c0.015,0.003 -1.938,2.036 -3.708,1.78c-1.773,-0.249 -3.093,-2.748 -3.078,-2.746c0.014,0.003 -2.124,1.843 -3.872,1.419c-1.749,-0.418 -2.838,-3.033 -2.824,-3.03c0.015,0.005 -2.296,1.631 -4.007,1.038c-1.713,-0.584 -2.564,-3.298 -2.55,-3.293c0,0 -0.515,-24.074 17.377,-28.784l-2.462,-14.583c0.863,3.699 5.917,6.538 12.025,6.538c5.63,0 10.365,-2.413 11.747,-5.688l-2.32,13.733c0,0 17.378,2.793 17.378,28.784z" fill="#80deea" stroke="none" stroke-width="1" stroke-linecap="butt" stroke-linejoin="miter"/><path d="M239.64101,189.621l0.16,0.11l0.167,-0.111h-0.327zM266.89601,212.084c0.014,-0.005 -0.837,2.708 -2.55,3.293c-1.711,0.593 -4.022,-1.033 -4.008,-1.039c0.015,-0.003 -1.075,2.613 -2.823,3.03c-1.748,0.424 -3.887,-1.415 -3.872,-1.418c0.014,-0.002 -1.305,2.497 -3.078,2.746c-1.771,0.256 -3.723,-1.777 -3.709,-1.78c0.015,0 -1.527,2.363 -3.311,2.443c-1.784,0.088 -3.536,-2.12 -3.522,-2.12c0.015,0 -1.738,2.208 -3.521,2.12c-1.785,-0.079 -3.326,-2.443 -3.312,-2.443c0.015,0.003 -1.938,2.036 -3.708,1.78c-1.773,-0.249 -3.093,-2.748 -3.078,-2.746c0.014,0.003 -2.124,1.843 -3.872,1.419c-1.749,-0.418 -2.838,-3.033 -2.824,-3.03c0.015,0.005 -2.296,1.631 -4.007,1.038c-1.713,-0.584 -2.564,-3.298 -2.55,-3.293c0,0 -0.515,-24.074 17.377,-28.784l-2.462,-14.583c0.863,3.699 5.917,6.538 12.025,6.538c5.63,0 10.365,-2.413 11.747,-5.688l-2.32,13.733c0,0 17.378,2.793 17.378,28.784z" fill="#80deea" stroke="none" stroke-width="1" stroke-linecap="butt" stroke-linejoin="miter"/><path d="M239.64101,189.621l0.16,0.11l0.167,-0.111h-0.327zM266.89601,212.084c0.014,-0.005 -0.837,2.708 -2.55,3.293c-1.711,0.593 -4.022,-1.033 -4.008,-1.039c0.015,-0.003 -1.075,2.613 -2.823,3.03c-1.748,0.424 -3.887,-1.415 -3.872,-1.418c0.014,-0.002 -1.305,2.497 -3.078,2.746c-1.771,0.256 -3.723,-1.777 -3.709,-1.78c0.015,0 -1.527,2.363 -3.311,2.443c-1.784,0.088 -3.536,-2.12 -3.522,-2.12c0.015,0 -1.738,2.208 -3.521,2.12c-1.785,-0.079 -3.326,-2.443 -3.312,-2.443c0.015,0.003 -1.938,2.036 -3.708,1.78c-1.773,-0.249 -3.093,-2.748 -3.078,-2.746c0.014,0.003 -2.124,1.843 -3.872,1.419c-1.749,-0.418 -2.838,-3.033 -2.824,-3.03c0.015,0.005 -2.296,1.631 -4.007,1.038c-1.713,-0.584 -2.564,-3.298 -2.55,-3.293c0,0 -0.515,-24.074 17.377,-28.784l-2.462,-14.583c0.863,3.699 5.917,6.538 12.025,6.538c5.63,0 10.365,-2.413 11.747,-5.688l-2.32,13.733c0,0 17.378,2.793 17.378,28.784z" fill="#80deea" stroke="none" stroke-width="1" stroke-linecap="butt" stroke-linejoin="miter"/><path d="M257.40001,200.957c0.009,-0.003 -0.541,1.751 -1.649,2.13c-1.107,0.383 -2.6,-0.669 -2.591,-0.672c0.009,-0.002 -0.696,1.69 -1.827,1.96c-1.13,0.274 -2.512,-0.916 -2.503,-0.918c0.01,-0.001 -0.844,1.615 -1.99,1.776c-1.146,0.165 -2.408,-1.15 -2.398,-1.151c0.009,0 -0.988,1.528 -2.142,1.58c-1.153,0.057 -2.286,-1.371 -2.277,-1.372c0.01,0.001 -1.123,1.429 -2.277,1.372c-1.154,-0.052 -2.15,-1.58 -2.141,-1.58c0.009,0.001 -1.253,1.316 -2.399,1.15c-1.146,-0.16 -2,-1.776 -1.99,-1.775c0.01,0.002 -1.374,1.192 -2.503,0.917c-1.131,-0.27 -1.836,-1.96 -1.826,-1.959c0.01,0.003 -1.485,1.055 -2.592,0.672c-1.108,-0.378 -1.658,-2.133 -1.648,-2.13c0,0 -0.334,-15.567 11.236,-18.613c0,0 4.176,1.272 5.996,1.292c1.88,0.02 6.284,-1.292 6.284,-1.292c0,0 11.237,1.806 11.237,18.613M264.34601,211.246c-1.711,0.592 -4.022,-1.034 -4.008,-1.038c0.015,-0.004 -1.075,2.612 -2.823,3.029c-1.748,0.424 -3.887,-1.415 -3.872,-1.419c0.014,-0.002 -1.305,2.498 -3.078,2.747c-1.771,0.256 -3.723,-1.778 -3.709,-1.78c0.015,0 -1.527,2.363 -3.311,2.443c-1.783,0.088 -3.536,-2.12 -3.522,-2.12c0.015,0 -1.738,2.208 -3.521,2.12c-1.785,-0.08 -3.326,-2.444 -3.312,-2.443c0.015,0.002 -1.937,2.036 -3.708,1.78c-1.773,-0.249 -3.093,-2.749 -3.078,-2.746c0.014,0.003 -2.124,1.842 -3.872,1.418c-1.749,-0.417 -2.838,-3.033 -2.824,-3.03c0.015,0.005 -2.296,1.631 -4.007,1.039c-1.25,-0.427 -2.04,-1.984 -2.37,-2.795c-0.21,2.213 -0.18,3.633 -0.18,3.633c-0.014,-0.005 0.837,2.709 2.55,3.293c1.711,0.593 4.022,-1.033 4.007,-1.038c-0.014,-0.003 1.075,2.613 2.824,3.03c1.748,0.424 3.886,-1.416 3.872,-1.42c-0.015,-0.001 1.305,2.498 3.078,2.747c1.77,0.256 3.723,-1.777 3.708,-1.78c-0.014,0 1.527,2.364 3.312,2.443c1.783,0.088 3.536,-2.12 3.521,-2.12c-0.014,0 1.739,2.208 3.522,2.12c1.784,-0.08 3.326,-2.443 3.311,-2.443c-0.014,0.003 1.938,2.036 3.709,1.78c1.773,-0.249 3.092,-2.748 3.078,-2.746c-0.015,0.003 2.124,1.842 3.872,1.418c1.748,-0.416 2.838,-3.033 2.823,-3.03c-0.014,0.006 2.297,1.632 4.008,1.039c1.713,-0.585 2.564,-3.298 2.55,-3.293c0,-1.312 -0.047,-2.561 -0.13,-3.757c-0.296,0.762 -1.102,2.469 -2.42,2.919" fill="#757575" stroke="none" stroke-width="1" stroke-linecap="butt" stroke-linejoin="miter"/><path d="M230.95201,196.338c-3.937,-8.657 -2.995,-15.811 -1.623,-20.138l-0.955,-5.659l-2.076,-0.82c-6.157,15.737 1.424,25.594 1.504,28.224c0.094,3.105 3.5,6.264 3.5,6.264c0.806,-1.509 0.713,-3.515 0.454,-5.05c0.5,0.35 0.932,0.487 1.129,0.311c0.319,-0.287 -0.107,-1.29 -0.952,-2.241c-0.29179,-0.33324 -0.62058,-0.63216 -0.98,-0.891M258.43101,148.548c0,8.842 -8.242,15.695 -18.408,15.695c-10.166,0 -18.408,-6.853 -18.408,-15.695c0,-8.841 8.242,-17.581 18.408,-17.581c10.166,0 18.408,8.74 18.408,17.581" data-paper-data="{&quot;origPos&quot;:null}" fill="#75594c" stroke="none" stroke-width="1" stroke-linecap="butt" stroke-linejoin="miter"/><path d="M258.31101,146.703c0,0 -3.414,-9.24 -19.143,-9.24c-12.303,0 -17.365,9.932 -17.365,9.932c0.558,-8.509 3.639,-20.043 18.22,-20.043c13.631,0 17.73,10.84 18.288,19.35" data-paper-data="{&quot;origPos&quot;:null}" fill="#2c2c2d" stroke="none" stroke-width="1" stroke-linecap="butt" stroke-linejoin="miter"/><path d="M231.65101,150.941c0,0.86 -0.693,1.557 -1.548,1.557c-0.41179,-0.00106 -0.80628,-0.16573 -1.09662,-0.45775c-0.29033,-0.29202 -0.45271,-0.68746 -0.45138,-1.09925c0,-0.86 0.693,-1.556 1.548,-1.556c0.855,0 1.548,0.697 1.548,1.556" data-paper-data="{&quot;origPos&quot;:null}" fill="#2c2c2d" stroke="none" stroke-width="1" stroke-linecap="butt" stroke-linejoin="miter"/><path d="M228.64801,148.425l1.446,2.29M226.97401,149.143l2.3,1.903" data-paper-data="{&quot;origPos&quot;:null}" fill="none" stroke="#2c2c2d" stroke-width="0.756" stroke-linecap="round" stroke-linejoin="round"/><path d="M248.39501,150.941c0,-0.859 0.693,-1.556 1.548,-1.556c0.855,0 1.548,0.696 1.548,1.556c0,0.86 -0.693,1.557 -1.548,1.557c-0.855,0 -1.548,-0.697 -1.548,-1.557" data-paper-data="{&quot;origPos&quot;:null}" fill="#2c2c2d" stroke="none" stroke-width="1" stroke-linecap="butt" stroke-linejoin="miter"/><path d="M251.39901,148.425l-1.446,2.29M253.07201,149.143l-2.299,1.903" data-paper-data="{&quot;origPos&quot;:null}" fill="none" stroke="#2c2c2d" stroke-width="0.756" stroke-linecap="round" stroke-linejoin="round"/><path d="M243.45701,158.496c-0.686,1.628 -1.965,2.726 -3.434,2.726c-1.468,0 -2.747,-1.098 -3.433,-2.726z" fill="#ef5350" stroke="none" stroke-width="1" stroke-linecap="butt" stroke-linejoin="miter"/><path d="M227.33901,154.893c2.728,0 4.938,2.224 4.938,4.966c0,0.971 -0.281,1.874 -0.76,2.639c-3.188,-1.397 -5.825,-3.562 -7.575,-6.237c0.91328,-0.87805 2.13109,-1.36833 3.398,-1.368M256.10501,156.261c-1.75,2.674 -4.388,4.84 -7.575,6.238c-0.48,-0.765 -0.76,-1.669 -0.76,-2.64c0,-2.743 2.21,-4.966 4.938,-4.966c1.26656,-0.00007 2.48397,0.49019 3.397,1.368" fill="#ffccbc" stroke="none" stroke-width="1" stroke-linecap="butt" stroke-linejoin="miter"/><path d="M249.29838,196.338c3.937,-8.657 2.995,-15.811 1.623,-20.138l0.955,-5.659l2.076,-0.82c6.157,15.737 -1.424,25.594 -1.504,28.224c-0.094,3.105 -3.499,6.264 -3.499,6.264c-0.807,-1.509 -0.714,-3.515 -0.455,-5.05c-0.5,0.35 -0.932,0.487 -1.129,0.311c-0.319,-0.287 0.107,-1.29 0.953,-2.241c0.2917,-0.33333 0.62049,-0.63226 0.98,-0.891" data-paper-data="{&quot;origPos&quot;:null}" fill="#75594c" stroke="none" stroke-width="1" stroke-linecap="butt" stroke-linejoin="miter"/><path d="M251.86301,168.704l-1.01,5.746c0.145,0.171 0.62,0.687 1.394,0.805c0.111,0.017 1.32,0.187 1.706,-0.525c0.294,-0.54 0.03,-1.432 -0.766,-1.962c0.22777,0.16241 0.48987,0.2702 0.766,0.315c0.225,0.035 0.771,0.122 1.185,-0.245c0.356,-0.316 0.521,-0.886 0.313,-1.366c-0.244,-0.562 -0.944,-0.867 -1.602,-0.631c0.136,-0.062 0.699,-0.336 0.905,-0.946c0.268,-0.784 -0.144,-1.86 -1.045,-2.101c-0.699,-0.189 -1.492,0.182 -1.846,0.91M228.20001,168.76l1.01,5.747c-0.146,0.171 -0.62,0.687 -1.394,0.805c-0.111,0.017 -1.32,0.187 -1.706,-0.525c-0.294,-0.54 -0.03,-1.432 0.765,-1.962c-0.22761,0.16202 -0.4893,0.26978 -0.765,0.315c-0.225,0.035 -0.772,0.122 -1.185,-0.245c-0.357,-0.317 -0.522,-0.887 -0.314,-1.367c0.244,-0.562 0.945,-0.866 1.603,-0.63c-0.136,-0.062 -0.699,-0.336 -0.906,-0.946c-0.267,-0.784 0.145,-1.86 1.045,-2.101c0.7,-0.189 1.492,0.182 1.847,0.91" fill="#80deea" stroke="none" stroke-width="1" stroke-linecap="butt" stroke-linejoin="miter"/><path d="M252.02601,168.447l-0.194,1.154c-4.787,9.79 -10.8,6.508 -11.905,5.79c-1.084,0.703 -6.878,3.87 -11.615,-5.214l-0.292,-1.73l4.225,-0.847c0.28452,0.09974 0.56691,0.20543 0.847,0.317c2.047,0.695 7.567,2.125 13.67,0c0.307,-0.122 0.614,-0.237 0.916,-0.342zM249.54701,183.127c-3.682,0.47 -7.062,0.665 -10.12,0.665c-3.363,0 -6.337,-0.232 -8.914,-0.58l-0.566,-3.352c4.992,0.76 11.778,1.11 20.158,-0.036z" fill="#757575" stroke="none" stroke-width="1" stroke-linecap="butt" stroke-linejoin="miter"/><path d="M249.16901,145.542c0,0 -11.239,0.428 -17.518,-4.444c-1.83,-1.42 -4.676,-5.213 -4.676,-5.213c0,0 25.175,-5.423 21.42,-0.424c-3.63,4.833 0.774,10.08 0.774,10.08" data-paper-data="{&quot;origPos&quot;:null}" fill="#2c2c2d" stroke="none" stroke-width="1" stroke-linecap="butt" stroke-linejoin="miter"/><path d="M252.51701,144.24c0,0 -10.367,-5.786 -10.009,-14.846c0.084,-2.13 -3.194,-0.286 -3.194,-0.286c0,0 20.013,9.185 14.695,8.988c-4.056,-0.15 -1.492,6.144 -1.492,6.144" data-paper-data="{&quot;origPos&quot;:null}" fill="#2c2c2d" stroke="none" stroke-width="1" stroke-linecap="butt" stroke-linejoin="miter"/><path d="M240.36001,136.962c-6.432,0 -12.121,2.251 -15.612,6.351c2.474,-5.787 8.53,-10.434 15.612,-10.434c7.083,0 13.138,4.647 15.613,10.434c-3.491,-4.101 -9.181,-6.351 -15.613,-6.351" fill="#757575" stroke="none" stroke-width="1" stroke-linecap="butt" stroke-linejoin="miter"/></g></g></svg>