<svg version="1.1" xmlns="http://www.w3.org/2000/svg" xmlns:xlink="http://www.w3.org/1999/xlink" width="74.49479" height="118.54489" viewBox="0,0,74.49479,118.54489"><g transform="translate(-202.402,-121.311)"><g data-paper-data="{&quot;isPaintingLayer&quot;:true}" fill-rule="evenodd" stroke="none" stroke-width="1" stroke-linecap="butt" stroke-linejoin="miter" stroke-miterlimit="10" stroke-dasharray="" stroke-dashoffset="0" style="mix-blend-mode: normal"><path d="M249.62813,233.829c0.063,0.26 -0.022,0.543 -0.202,0.822c-0.582,0.9 -1.592,1.554 -2.454,2.16c-1.331,0.919 -3.011,1.408 -4.484,2.112c-1.331,0.566 -3.085,1.622 -4.275,0.284c-1.577,-1.902 -0.242,-4.23 1.598,-5.378h-0.006l-1.985,-24.028c0,0 4.482,-1.334 5.93,-0.93c2.011,0.561 6.397,5.396 6.397,5.396l-0.518,19.562M260.78013,233.828c1.842,1.141 3.177,3.476 1.602,5.378c-1.192,1.338 -2.944,0.282 -4.277,-0.284c-1.47,-0.704 -3.155,-1.193 -4.487,-2.112c-0.859,-0.606 -1.871,-1.26 -2.451,-2.16c-0.18,-0.279 -0.267,-0.552 -0.2,-0.822h-0.004l-0.522,-19.562c0,0 4.446,-4.866 6.48,-5.424c1.429,-0.393 5.852,0.958 5.852,0.958l-1.987,24.029h-0.007" data-paper-data="{&quot;origPos&quot;:null}" fill="#9e743f"/><path d="M246.949,227.37187c0.006,-0.052 0.736,-5.23 0.736,-6.932h-0.132c0,1.702 -0.726,6.858 -0.734,6.912l0.13,0.019M241.559,227.37187l0.13,-0.02c-0.009,-0.054 -0.739,-5.21 -0.739,-6.911h-0.13c0,1.701 0.73,6.879 0.739,6.93zM254.271,227.37187c-0.008,-0.052 -0.738,-5.23 -0.738,-6.932h0.13c0,1.702 0.73,6.858 0.736,6.912l-0.128,0.019M259.661,227.37187l-0.13,-0.02c0.006,-0.054 0.736,-5.21 0.736,-6.911h0.133c0,1.701 -0.732,6.879 -0.738,6.93z" data-paper-data="{&quot;origPos&quot;:null}" fill="#eeac6c"/><path d="M237.912,206.882h25.39c0,0 0.223,2.337 -0.217,2.92c-5.253,-0.205 -12.332,4.466 -12.332,4.466h-0.295c0,0 -7.29,-4.541 -12.327,-4.466c-0.446,-0.583 -0.22,-2.92 -0.22,-2.92z" fill="#e63744"/><path d="M259.863,210.168c-1.466,0.349 -2.94,0.914 -4.26,1.501c1.596,-1.536 4.237,-3.748 5.137,-4.763h2.563c0,0 0.043,0.422 0.05,0.962c-0.862,0.506 -2.259,1.346 -3.49,2.3" fill="#f7b90b"/><path d="M258.637,210.504c-1.643,0.507 -3.235,1.227 -4.553,1.888c1.351,-1.455 4.794,-4.338 5.854,-5.485h3.364c0,0 0.021,0.198 0.037,0.512c-0.367,0.201 -2.839,1.558 -4.702,3.085" fill="#e63744"/><path d="M237.858,207.87c0.009,-0.543 0.053,-0.962 0.053,-0.962h2.56c0.938,1.012 3.741,3.397 5.311,4.935c-1.336,-0.596 -2.827,-1.183 -4.304,-1.564c-1.262,-0.991 -2.725,-1.885 -3.62,-2.409" fill="#f7b90b"/><path d="M237.873,207.421c0.019,-0.314 0.039,-0.515 0.039,-0.515h3.362c1.094,1.213 4.736,4.224 5.986,5.627c-1.307,-0.645 -2.894,-1.355 -4.521,-1.885c-1.874,-1.575 -4.469,-3.009 -4.866,-3.227" fill="#e63744"/><path d="M274.487,200.398c0.254,2.416 -0.896,4.521 -2.573,4.7c-1.092,0.116 -2.141,-0.617 -2.807,-1.815c-0.619,0.517 -1.234,0.72 -1.675,0.484c-0.82,-0.435 -0.723,-2.242 0.222,-4.025c0.32234,-0.62455 0.73737,-1.1967 1.231,-1.697c0.03375,-0.07496 0.07146,-0.14807 0.113,-0.219c0,0 -1.628,-10.444 -3.368,-12.916c-0.868,-1.237 -1.967,-2.21 -2.167,-2.762v-0.005c1.362,10.347 -0.158,24.74 -0.158,24.74h-25.393c0,0 -1.774,-15.857 -0.083,-26.241v0.014c0,0 -9.015,3.639 -11.484,2.74c-3.053,-1.113 -6.556,-11.108 -6.556,-11.108h0.002c-1.316,-0.471 -2.586,-1.73 -3.324,-3.473c-1.14,-2.712 -0.547,-5.56 1.337,-6.362c1.227,-0.52 2.697,-0.04 3.889,1.11c0.542,-0.816 1.177,-1.272 1.772,-1.154c1.108,0.218 1.625,2.338 1.16,4.748c-0.15546,0.83873 -0.43663,1.64919 -0.834,2.404c-0.048,0.299 -0.115,0.587 -0.211,0.855v-0.005l5.618,6.63c0,0 5.246,-4.886 8.714,-3.14c0.784,-0.28 3.134,-1.126 3.134,-1.126c1.356,-0.947 4.338,-1.377 6.14,-1.554c-0.304,-0.674 -0.486,-1.4 -0.486,-1.937h7.746c0,0.537 -0.182,1.276 -0.49,1.955c1.834,0.173 4.785,0.6 6.093,1.553c0.692,0.369 6.618,3.565 8.334,5.769c3.745,4.809 5.181,19.274 5.181,19.274c-0.00087,-0.02213 -0.0032,-0.04418 -0.007,-0.066c0.484,0.701 0.823,1.61 0.929,2.63" data-paper-data="{&quot;origPos&quot;:null}" fill="#9e743f"/><path d="M247.53,171.858c-0.437,-0.668 -0.745,-1.597 -0.817,-2.271c2.55705,0.41852 5.16583,0.40973 7.72,-0.026l-0.013,0.013l-6.89,2.284" fill="#eeac6c"/><path d="M225.148,158.895c0,6.314 -5.09,11.428 -11.372,11.428c-6.284,0 -11.374,-5.114 -11.374,-11.428c0,-6.312 5.09,-11.426 11.374,-11.426c6.282,0 11.372,5.114 11.372,11.426" fill="#f7b90b"/><path d="M221.869,166.922l-0.062,0.064c-0.1,-0.002 -0.198,-0.007 -0.3,-0.009c-0.13,0.172 -0.407,0.524 -0.797,0.977c-0.091,0.068 -0.18,0.138 -0.274,0.203c0.498,-0.558 0.845,-0.995 0.988,-1.18c-0.106,-0.002 -0.217,-0.007 -0.325,-0.007c-1.388,0 -2.193,0.053 -3.403,0.238c0,0 -2.035,1.343 -4.347,2.433c-0.391,0.184 -0.821,0.371 -1.286,0.554l-0.132,-0.026c0.501,-0.189 0.97,-0.389 1.39,-0.589c2.034,-0.962 3.973,-2.112 4.282,-2.356c-3.093,0.377 -5.366,1.204 -5.366,1.204c-0.178,0.059 -1.573,0.489 -3.453,0.735c-0.037,-0.015 -0.076,-0.035 -0.108,-0.052c1.891,-0.242 3.311,-0.674 3.531,-0.742c-0.066,-0.29 -0.574,-2.561 -0.832,-5.503c-0.228,-2.574 -0.3,-6.139 0.497,-9.254c0.087,-0.378 0.183,-0.751 0.293,-1.12c-0.345,-0.096 -1.891,-0.512 -3.845,-0.722v17.157c-0.022,-0.014 -0.044,-0.029 -0.068,-0.04v-17.123c-0.668,-0.07 -1.387,-0.115 -2.121,-0.115c-0.408,0 -0.801,0.015 -1.184,0.043c0.02096,-0.02291 0.04065,-0.04694 0.059,-0.072c0.363,-0.026 0.738,-0.036 1.124,-0.036c3.132,0 5.99,0.822 6.12,0.86h4.771c-1.15119,-0.88461 -2.39237,-1.64548 -3.703,-2.27c-1.216,-0.58 -2.809,-1.194 -4.612,-1.51c0.03479,-0.01676 0.06914,-0.03444 0.103,-0.053c1.771,0.326 3.339,0.928 4.54,1.504c2.091,0.999 3.513,2.118 3.778,2.33h4.273c-0.39,-0.484 -2.377,-2.876 -4.872,-4.638c0.065,0.017 0.13,0.032 0.193,0.05c0.656,0.473 1.256,0.97 1.776,1.44c1.07482,0.97223 2.07435,2.02459 2.99,3.148h1.679l0.045,0.07h-10.942c-0.123,0.362 -0.232,0.728 -0.33,1.104c-0.26,1.157 -0.423,2.354 -0.508,3.547h13.589l0.007,0.068h-13.602c-0.11168,1.77416 -0.09631,3.55403 0.046,5.326h13.08c-0.011,0.022 -0.015,0.043 -0.022,0.067h-13.052c0.239,3.086 0.745,5.411 0.812,5.728c0.417,-0.142 4.408,-1.449 8.81,-1.449c0.25709,0.00009 0.51416,0.00575 0.771,0.017zM204.632,152.101c0.021,-0.032 0.045,-0.059 0.065,-0.091v13.771c-0.02,-0.031 -0.044,-0.062 -0.065,-0.09v-13.589" fill="#727371"/><path d="M224.726,166.721c-0.345,2.306 -1.481,4.045 -2.545,3.886c-1.057,-0.16 -1.642,-2.156 -1.3,-4.464c0.345,-2.309 1.485,-4.047 2.542,-3.89c1.064,0.159 1.644,2.16 1.303,4.468" data-paper-data="{&quot;origPos&quot;:null}" fill="#9e743f"/><path d="M244.027,185.369c1.607,0 3.615,-0.245 6.045,-0.742l-0.026,-0.124c-5.202,1.06 -8.452,0.986 -9.932,-0.227c-0.656,-0.539 -0.973,-1.29 -0.973,-2.337h-0.132c0,1.047 0.336,1.874 1.025,2.437c0.81,0.668 2.134,0.993 3.993,0.993M257.38,185.369c-1.607,0 -3.618,-0.245 -6.048,-0.742l0.029,-0.124c5.202,1.06 8.449,0.986 9.93,-0.227c0.655,-0.539 0.972,-1.29 0.972,-2.337h0.133c0,1.047 -0.335,1.874 -1.023,2.437c-0.812,0.668 -2.134,0.993 -3.993,0.993M250.586,180.364h0.128v2.95h-0.128zM246.832,196.44c0.932,0 2.098,-0.142 3.505,-0.43l-0.015,-0.076c-3.014,0.617 -4.897,0.576 -5.757,-0.129c-0.38,-0.312 -0.566,-0.765 -0.566,-1.355h-0.074c0,0.589 0.195,1.087 0.595,1.412c0.467,0.388 1.233,0.578 2.312,0.578M254.572,196.44c-0.932,0 -2.095,-0.142 -3.502,-0.43l0.015,-0.076c3.014,0.617 4.899,0.576 5.757,-0.129c0.38,-0.312 0.564,-0.765 0.564,-1.355h0.074c0,0.589 -0.193,1.087 -0.593,1.412c-0.469,0.388 -1.233,0.578 -2.315,0.578M246.832,199.715c0.932,0 2.098,-0.142 3.505,-0.428l-0.015,-0.074c-3.014,0.615 -4.897,0.572 -5.757,-0.135c-0.38,-0.31 -0.566,-0.762 -0.566,-1.353h-0.074c0,0.591 0.195,1.086 0.595,1.414c0.467,0.386 1.233,0.576 2.312,0.576M254.572,199.715c-0.932,0 -2.095,-0.142 -3.502,-0.428l0.015,-0.074c3.014,0.615 4.899,0.572 5.757,-0.135c0.38,-0.31 0.564,-0.762 0.564,-1.353h0.074c0,0.591 -0.193,1.086 -0.593,1.414c-0.469,0.386 -1.233,0.576 -2.315,0.576M246.832,203.055c0.932,0 2.098,-0.141 3.505,-0.427l-0.015,-0.077c-3.014,0.618 -4.897,0.574 -5.757,-0.128c-0.38,-0.314 -0.566,-0.768 -0.566,-1.357h-0.074c0,0.589 0.195,1.086 0.595,1.416c0.467,0.383 1.233,0.573 2.312,0.573M254.572,203.055c-0.932,0 -2.095,-0.141 -3.502,-0.427l0.015,-0.077c3.014,0.618 4.899,0.574 5.757,-0.128c0.38,-0.314 0.564,-0.768 0.564,-1.357h0.074c0,0.589 -0.193,1.086 -0.593,1.416c-0.469,0.383 -1.233,0.573 -2.315,0.573M246.387,193.214c1.04,0 2.336,-0.162 3.909,-0.482l-0.017,-0.083c-3.362,0.685 -5.462,0.635 -6.42,-0.153c-0.421,-0.345 -0.627,-0.862 -0.627,-1.516h-0.085c0,0.654 0.215,1.217 0.66,1.582c0.524,0.429 1.38,0.652 2.58,0.652M255.018,193.214c-1.041,0 -2.337,-0.162 -3.909,-0.482l0.018,-0.083c3.363,0.685 5.463,0.635 6.42,-0.153c0.422,-0.345 0.63,-0.862 0.63,-1.516h0.083c0,0.654 -0.215,1.217 -0.662,1.582c-0.524,0.429 -1.375,0.652 -2.58,0.652M233.426,179.041c1.588,0 3.572,-0.354 5.11,-1.77l-0.087,-0.095c-1.748,1.607 -4.085,1.817 -5.735,1.71c-1.796,-0.116 -3.194,-0.62 -3.207,-0.626l-0.046,0.122c1.04808,0.35058 2.13712,0.56402 3.24,0.635c0.23,0.013 0.471,0.023 0.725,0.023M270.147,187.594l-0.124,0.035l-1.6,-5.319v-0.037c0.006,-0.024 0.412,-1.458 0.495,-2.939c0.044,0.067 0.082,0.135 0.124,0.205c-0.098,1.335 -0.437,2.57 -0.487,2.751z" fill="#eeac6c"/><path d="M252.329,172.393c1.282,0.262 -0.608,-1.13 -0.738,-1.32l0.065,0.515c0.015,-0.081 0.189,0.707 0.673,0.805M249.23,172.434c0.228,-0.288 0.163,-1.224 0.163,-1.224c-0.076,-0.015 -0.623,0.208 -0.771,0.515c-0.402,0.755 -0.047,1.497 0.608,0.709M253.719,172.07c0.582,0.58 0.666,1.471 -0.558,1.584c-0.938,0.024 -1.922,-1.44 -2.576,-2.221c-0.48,-0.576 -0.525,-0.109 -0.525,-0.109c0.306,1.287 0.061,3.19 -1.713,2.607c-0.932,-0.356 -1.633,-1.42 -0.973,-2.212c0.289,-0.404 0.96,-0.598 1.474,-0.84c0.356,-0.168 0.973,-0.511 1.11,-0.875c0.085,-0.221 0.024,-0.465 0.115,-0.689c-0.269,-0.991 0.378,-0.223 0.782,0.87c0.299,0.805 1.524,0.541 2.864,1.885" fill="#e63744"/><path d="M273.535,150.30587c1.196,0.773 1.98,2.086 1.98,3.578c0,2.376 -1.994,4.303 -4.452,4.303c-0.067,0 -0.139,-0.004 -0.206,-0.007c-3.987,7.174 -11.615,12.024 -20.372,12.024c-8.764,0 -16.399,-4.859 -20.379,-12.043c-0.163,0.015 -0.328,0.026 -0.495,0.026c-2.456,0 -4.45,-1.927 -4.45,-4.302c0,-1.604 0.908,-3 2.252,-3.74c-0.156,-1.096 -0.238,-2.221 -0.238,-3.36c0,-12.936 10.437,-23.424 23.31,-23.424c12.874,0 23.312,10.488 23.312,23.424c0,1.195 -0.091,2.371 -0.263,3.521" data-paper-data="{&quot;origPos&quot;:null}" fill="#9e743f"/><path d="M274.721,143.42c0.037,2.749 -0.921,8.7 -2.788,12.25c0,0 -4.584,-13.036 -8.362,-15.1c-4.615,-2.527 -16.781,1.113 -20.907,-2.157c-0.684,-0.544 -0.608,-1.772 -0.608,-1.772c0,0 -0.79,1.566 -1.17,2.005c-2,2.282 -7.183,5.592 -9.639,7.368c-1.983,1.429 -2.075,1.414 -1.635,9.656c0,0 -3.636,-7.498 -3.436,-12.51c0.057,-1.44 0.756,-4.641 1.887,-7.891c4.102,-8.274 12.603,-13.958 22.427,-13.958c11.282,0 20.822,7.499 23.952,17.804c0.16069,1.42982 0.25413,2.8664 0.28,4.305" fill="#333433"/><path d="M273.831,150.204c1.027,0.788 1.683,2.001 1.683,3.369c0,2.378 -1.993,4.304 -4.449,4.304c-0.069,0 -0.141,-0.004 -0.209,-0.006c-1.12993,2.03071 -2.55363,3.88336 -4.225,5.498c0.899,-19.318 -4.237,-25.093 -16.147,-25.093c-12.729,0 -18.064,5.239 -16.153,25.084c-1.67227,-1.61896 -3.09629,-3.47599 -4.226,-5.511c-0.163,0.018 -0.328,0.028 -0.493,0.028c-2.458,0 -4.451,-1.926 -4.451,-4.304c0,-1.576 0.877,-2.952 2.184,-3.698c-0.693,-2.2 -1.251,-4.665 -1.168,-6.714c0.057,-1.442 0.756,-4.641 1.887,-7.894c4.104,-8.273 12.605,-13.955 22.427,-13.955c11.28,0 20.821,7.497 23.95,17.802c0.16069,1.4305 0.25413,2.86774 0.28,4.307c0.02,1.566 -0.282,4.173 -0.89,6.783" fill="#e63744"/><path d="M231.291,151.365c1.494,4.486 1.494,8.533 -0.002,9.04c-1.496,0.501 -5.47,-1.988 -6.962,-6.476c-1.496,-4.49 0.048,-9.277 1.546,-9.781c1.496,-0.506 3.924,2.725 5.418,7.217" fill="#cc3a48"/><path d="M228.114,146.205c0.228,0.733 -0.02,1.462 -0.549,1.625c-0.534,0.164 -1.144,-0.294 -1.372,-1.027c-0.224,-0.73 0.021,-1.458 0.553,-1.622c0.53,-0.165 1.145,0.293 1.368,1.024M230.799,152.341c0.226,0.733 -0.022,1.455 -0.552,1.623c-0.532,0.166 -1.144,-0.292 -1.37,-1.025c-0.226,-0.731 0.022,-1.458 0.554,-1.626c0.53,-0.163 1.144,0.295 1.368,1.028M231.512,157.917c-0.061,0.762 -0.563,1.342 -1.119,1.296c-0.556,-0.048 -0.949,-0.705 -0.886,-1.466c0.063,-0.764 0.565,-1.344 1.119,-1.296c0.553,0.046 0.949,0.7 0.886,1.466" fill="#a53647"/><path d="M269.323,151.365c1.494,-4.492 3.924,-7.723 5.417,-7.217c1.499,0.504 3.043,5.291 1.547,9.781c-1.492,4.488 -5.466,6.977 -6.962,6.476c-1.494,-0.507 -1.498,-4.554 -0.002,-9.04" fill="#cc3a48"/><path d="M272.499,146.205c0.224,-0.731 0.838,-1.189 1.368,-1.024c0.532,0.164 0.778,0.892 0.554,1.622c-0.226,0.733 -0.841,1.191 -1.371,1.027c-0.529,-0.163 -0.779,-0.892 -0.55,-1.625M269.815,152.341c0.223,-0.733 0.84,-1.191 1.368,-1.028c0.532,0.168 0.779,0.895 0.553,1.626c-0.225,0.733 -0.838,1.191 -1.37,1.025c-0.529,-0.168 -0.779,-0.89 -0.551,-1.623M269.102,157.917c-0.063,-0.766 0.333,-1.42 0.887,-1.466c0.553,-0.048 1.055,0.532 1.12,1.296c0.063,0.761 -0.335,1.418 -0.887,1.466c-0.555,0.046 -1.059,-0.534 -1.12,-1.296" fill="#a53647"/><path d="M250.49,136.212c11.281,0 19.615,1.662 17.059,26.21c-0.317,0.397 -0.488,0.557 -0.918,0.947c0.899,-19.318 -4.237,-25.093 -16.147,-25.093c-12.729,0 -18.064,5.238 -16.153,25.084c-0.526,-0.475 -0.849,-0.835 -1.038,-1.068c-2.096,-26.08 7.376,-26.08 17.197,-26.08" fill="#eeeeed"/><path d="M246.311,145.65c0,0 -0.503,1.803 -2.082,1.446c-0.772,-0.174 -0.908,-1.201 -3.386,-0.74c-0.779,0.18 -2.417,1.156 -2.732,1.808c-0.316,0.652 -0.088,-2.392 2.457,-3.522c1.835,-0.675 2.457,-0.642 3.977,-0.642c1.52,0 1.987,0.907 1.766,1.65M256.052,145.65c0,0 0.503,1.803 2.082,1.446c0.772,-0.174 0.908,-1.201 3.386,-0.74c0.779,0.18 2.417,1.156 2.732,1.808c0.316,0.652 0.087,-2.392 -2.457,-3.522c-1.835,-0.675 -2.457,-0.642 -3.977,-0.642c-1.52,0 -1.987,0.907 -1.766,1.65M244,153c0,1.657 -0.895,3 -2,3c-1.105,0 -2,-1.343 -2,-3c0,-1.657 0.895,-3 2,-3c1.105,0 2,1.343 2,3M262,153c0,1.657 -0.895,3 -2,3c-1.105,0 -2,-1.343 -2,-3c0,-1.657 0.895,-3 2,-3c1.105,0 2,1.343 2,3" fill="#333433"/><path d="M251.02,156.069c-1.125,0.153 -3.02,1.834 -3.02,1.834c0,0 0.207,-1.009 0.503,-1.299c0.8,-1.156 2.487,-1.604 2.487,-1.604c0,0 2.173,0.703 2.65,1.588c0.443,0.824 0.34,1.238 0.34,1.238c0,0 -2.121,-1.871 -2.96,-1.756z" fill="#eeac6c"/><path d="M244.2,159.696c0,0 6.897,3.208 13.172,-0.397c0,0 -1.39,5.47 -5.95,5.561c-4.115,0.122 -4.984,-1.492 -5.477,-1.956c-0.492,-0.463 -1.42,-1.772 -1.745,-3.208" data-paper-data="{&quot;origPos&quot;:null}" fill="#a53647"/></g></g></svg>