<svg xmlns="http://www.w3.org/2000/svg" width="74.495" height="118.545"><g fill-rule="evenodd" stroke-miterlimit="10" data-paper-data="{&quot;isPaintingLayer&quot;:true}" style="mix-blend-mode:normal"><path fill="#9e743f" d="M47.226 112.518c.063.26-.022.543-.202.822-.582.9-1.592 1.554-2.454 2.16-1.33.919-3.01 1.408-4.484 2.112-1.33.566-3.085 1.622-4.275.284-1.577-1.902-.242-4.23 1.598-5.378h-.006L35.418 88.49s4.482-1.334 5.93-.93c2.011.561 6.397 5.396 6.397 5.396l-.518 19.562m11.151-.001c1.842 1.141 3.177 3.476 1.602 5.378-1.192 1.338-2.944.282-4.277-.284-1.47-.704-3.155-1.193-4.487-2.112-.859-.606-1.87-1.26-2.45-2.16-.18-.279-.268-.552-.2-.822h-.005l-.522-19.562s4.446-4.866 6.48-5.424c1.43-.393 5.852.958 5.852.958l-1.987 24.029h-.007" data-paper-data="{&quot;origPos&quot;:null}"/><path fill="#eeac6c" d="M44.547 106.06c.006-.051.736-5.23.736-6.931h-.132c0 1.702-.726 6.858-.734 6.912l.13.019m-5.39 0 .13-.02c-.009-.053-.739-5.21-.739-6.91h-.13c0 1.7.73 6.879.739 6.93zm12.712 0c-.008-.051-.738-5.23-.738-6.931h.13c0 1.702.73 6.858.736 6.912l-.128.019m5.39 0-.13-.02c.006-.053.736-5.21.736-6.91h.133c0 1.7-.732 6.879-.738 6.93z" data-paper-data="{&quot;origPos&quot;:null}"/><path fill="#e63744" d="M35.51 85.571H60.9s.223 2.337-.217 2.92c-5.253-.205-12.332 4.466-12.332 4.466h-.295s-7.29-4.541-12.327-4.466c-.446-.583-.22-2.92-.22-2.92z"/><path fill="#f7b90b" d="M57.461 88.857c-1.466.349-2.94.914-4.26 1.501 1.596-1.536 4.237-3.748 5.137-4.763h2.563s.043.422.05.962c-.862.506-2.259 1.346-3.49 2.3"/><path fill="#e63744" d="M56.235 89.193c-1.643.507-3.235 1.227-4.553 1.888 1.351-1.455 4.794-4.338 5.854-5.485H60.9s.021.198.037.512c-.367.201-2.839 1.558-4.702 3.085"/><path fill="#f7b90b" d="M35.456 86.559c.009-.543.053-.962.053-.962h2.56c.938 1.012 3.741 3.397 5.311 4.935-1.336-.596-2.827-1.183-4.304-1.564-1.262-.991-2.725-1.885-3.62-2.409"/><path fill="#e63744" d="M35.471 86.11c.019-.314.039-.515.039-.515h3.362c1.094 1.213 4.736 4.224 5.986 5.627-1.307-.645-2.894-1.355-4.521-1.885-1.874-1.575-4.469-3.009-4.866-3.227"/><path fill="#9e743f" d="M72.085 79.087c.254 2.416-.896 4.521-2.573 4.7-1.092.116-2.141-.617-2.807-1.815-.619.517-1.234.72-1.675.484-.82-.435-.723-2.242.222-4.025a6.963 6.963 0 0 1 1.231-1.697 2.31 2.31 0 0 1 .113-.219s-1.628-10.444-3.368-12.916c-.868-1.237-1.967-2.21-2.167-2.762v-.005c1.362 10.347-.158 24.74-.158 24.74H35.51s-1.774-15.857-.083-26.241v.014s-9.015 3.639-11.484 2.74c-3.053-1.113-6.556-11.108-6.556-11.108h.002c-1.316-.471-2.586-1.73-3.324-3.473-1.14-2.712-.547-5.56 1.337-6.362 1.227-.52 2.697-.04 3.889 1.11.542-.816 1.177-1.272 1.772-1.154 1.108.218 1.625 2.338 1.16 4.748a8.477 8.477 0 0 1-.834 2.404 4.794 4.794 0 0 1-.211.855V49.1l5.618 6.63s5.246-4.886 8.714-3.14c.784-.28 3.134-1.126 3.134-1.126 1.356-.947 4.338-1.377 6.14-1.554-.304-.674-.486-1.4-.486-1.937h7.746c0 .537-.182 1.276-.49 1.955 1.834.173 4.785.6 6.093 1.553.692.369 6.618 3.565 8.334 5.769 3.745 4.809 5.181 19.274 5.181 19.274a.499.499 0 0 0-.007-.066c.484.701.823 1.61.929 2.63" data-paper-data="{&quot;origPos&quot;:null}"/><path fill="#eeac6c" d="M45.128 50.547c-.437-.668-.745-1.597-.817-2.271 2.557.419 5.166.41 7.72-.026l-.013.013-6.89 2.284"/><path fill="#f7b90b" d="M22.746 37.584c0 6.314-5.09 11.428-11.372 11.428C5.09 49.012 0 43.898 0 37.584c0-6.312 5.09-11.426 11.374-11.426 6.282 0 11.372 5.114 11.372 11.426"/><path fill="#727371" d="m19.467 45.611-.062.064c-.1-.002-.198-.007-.3-.009-.13.172-.407.524-.797.977-.091.068-.18.138-.274.203.498-.558.845-.995.988-1.18-.106-.002-.217-.007-.325-.007-1.388 0-2.193.053-3.403.238 0 0-2.035 1.343-4.347 2.433-.391.184-.821.371-1.286.554l-.132-.026c.501-.189.97-.389 1.39-.589 2.034-.962 3.973-2.112 4.282-2.356-3.093.377-5.366 1.204-5.366 1.204-.178.059-1.573.489-3.453.735a1.206 1.206 0 0 1-.108-.052 22.054 22.054 0 0 0 3.531-.742 43.647 43.647 0 0 1-.832-5.503c-.228-2.574-.3-6.139.497-9.254.087-.378.183-.751.293-1.12a25.03 25.03 0 0 0-3.845-.722v17.157c-.022-.014-.044-.029-.068-.04V30.453a20.474 20.474 0 0 0-2.121-.115c-.408 0-.801.015-1.184.043a.855.855 0 0 0 .059-.072c.363-.026.738-.036 1.124-.036 3.132 0 5.99.822 6.12.86h4.771a20.67 20.67 0 0 0-3.703-2.27c-1.216-.58-2.809-1.194-4.612-1.51.035-.017.07-.034.103-.053 1.771.326 3.339.928 4.54 1.504 2.091.999 3.513 2.118 3.778 2.33h4.273c-.39-.484-2.377-2.876-4.872-4.638.065.017.13.032.193.05.656.473 1.256.97 1.776 1.44a28.664 28.664 0 0 1 2.99 3.148h1.679l.045.07H9.867c-.123.362-.232.728-.33 1.104a24.032 24.032 0 0 0-.508 3.547h13.589l.007.068H9.023a37.277 37.277 0 0 0 .046 5.326h13.08c-.011.022-.015.043-.022.067H9.075c.239 3.086.745 5.411.812 5.728.417-.142 4.408-1.449 8.81-1.449.257 0 .514.006.771.017zM2.23 30.79c.021-.032.045-.059.065-.091V44.47c-.02-.031-.044-.062-.065-.09V30.791"/><path fill="#9e743f" d="M22.324 45.41c-.345 2.306-1.481 4.045-2.545 3.886-1.057-.16-1.642-2.156-1.3-4.464.345-2.309 1.485-4.047 2.542-3.89 1.064.159 1.644 2.16 1.303 4.468" data-paper-data="{&quot;origPos&quot;:null}"/><path fill="#eeac6c" d="M41.625 64.058c1.607 0 3.615-.245 6.045-.742l-.026-.124c-5.202 1.06-8.452.986-9.932-.227-.656-.539-.973-1.29-.973-2.337h-.132c0 1.047.336 1.874 1.025 2.437.81.668 2.134.993 3.993.993m13.353 0c-1.607 0-3.618-.245-6.048-.742l.029-.124c5.202 1.06 8.449.986 9.93-.227.655-.539.972-1.29.972-2.337h.133c0 1.047-.335 1.874-1.023 2.437-.812.668-2.134.993-3.993.993m-6.794-5.005h.128v2.95h-.128zM44.43 75.129c.932 0 2.098-.142 3.505-.43l-.015-.076c-3.014.617-4.897.576-5.757-.129-.38-.312-.566-.765-.566-1.355h-.074c0 .589.195 1.087.595 1.412.467.388 1.233.578 2.312.578m7.74 0c-.932 0-2.095-.142-3.502-.43l.015-.076c3.014.617 4.899.576 5.757-.129.38-.312.564-.765.564-1.355h.074c0 .589-.193 1.087-.593 1.412-.469.388-1.233.578-2.315.578m-7.74 3.275c.932 0 2.098-.142 3.505-.428l-.015-.074c-3.014.615-4.897.572-5.757-.135-.38-.31-.566-.762-.566-1.353h-.074c0 .591.195 1.086.595 1.414.467.386 1.233.576 2.312.576m7.74 0c-.932 0-2.095-.142-3.502-.428l.015-.074c3.014.615 4.899.572 5.757-.135.38-.31.564-.762.564-1.353h.074c0 .591-.193 1.086-.593 1.414-.469.386-1.233.576-2.315.576m-7.74 3.34c.932 0 2.098-.141 3.505-.427l-.015-.077c-3.014.618-4.897.574-5.757-.128-.38-.314-.566-.768-.566-1.357h-.074c0 .589.195 1.086.595 1.416.467.383 1.233.573 2.312.573m7.74 0c-.932 0-2.095-.141-3.502-.427l.015-.077c3.014.618 4.899.574 5.757-.128.38-.314.564-.768.564-1.357h.074c0 .589-.193 1.086-.593 1.416-.469.383-1.233.573-2.315.573m-8.185-9.841c1.04 0 2.336-.162 3.909-.482l-.017-.083c-3.362.685-5.462.635-6.42-.153-.421-.345-.627-.862-.627-1.516h-.085c0 .654.215 1.217.66 1.582.524.429 1.38.652 2.58.652m8.631 0c-1.041 0-2.337-.162-3.909-.482l.018-.083c3.363.685 5.463.635 6.42-.153.422-.345.63-.862.63-1.516h.083c0 .654-.215 1.217-.662 1.582-.524.429-1.375.652-2.58.652M31.024 57.73c1.588 0 3.572-.354 5.11-1.77l-.087-.095c-1.748 1.607-4.085 1.817-5.735 1.71a12.777 12.777 0 0 1-3.207-.626l-.046.122c1.048.35 2.137.564 3.24.635.23.013.471.023.725.023m36.721 8.554-.124.035-1.6-5.319v-.037c.006-.024.412-1.458.495-2.939.044.067.082.135.124.205a15.344 15.344 0 0 1-.487 2.751z"/><path fill="#e63744" d="M49.927 51.082c1.282.262-.608-1.13-.738-1.32l.065.515c.015-.081.189.707.673.805m-3.099.041c.228-.288.163-1.224.163-1.224-.076-.015-.623.208-.771.515-.402.755-.047 1.497.608.709m4.489-.364c.582.58.666 1.471-.558 1.584-.938.024-1.922-1.44-2.576-2.221-.48-.576-.525-.109-.525-.109.306 1.287.061 3.19-1.713 2.607-.932-.356-1.633-1.42-.973-2.212.289-.404.96-.598 1.474-.84.356-.168.973-.511 1.11-.875.085-.221.024-.465.115-.689-.269-.991.378-.223.782.87.299.805 1.524.541 2.864 1.885"/><path fill="#9e743f" d="M71.133 28.995c1.196.773 1.98 2.086 1.98 3.578 0 2.376-1.994 4.303-4.452 4.303-.067 0-.139-.004-.206-.007-3.987 7.174-11.615 12.024-20.372 12.024-8.764 0-16.399-4.86-20.379-12.043a5.395 5.395 0 0 1-.495.026c-2.456 0-4.45-1.927-4.45-4.302 0-1.604.908-3 2.252-3.74a23.868 23.868 0 0 1-.238-3.36c0-12.936 10.437-23.424 23.31-23.424 12.874 0 23.312 10.488 23.312 23.424 0 1.195-.091 2.37-.263 3.52" data-paper-data="{&quot;origPos&quot;:null}"/><path fill="#333433" d="M72.319 22.109c.037 2.749-.921 8.7-2.788 12.25 0 0-4.584-13.036-8.362-15.1-4.615-2.527-16.781 1.113-20.907-2.157-.684-.544-.608-1.772-.608-1.772s-.79 1.566-1.17 2.005c-2 2.282-7.183 5.592-9.639 7.368-1.983 1.429-2.075 1.414-1.635 9.656 0 0-3.636-7.498-3.436-12.51.057-1.44.756-4.641 1.887-7.891C29.763 5.684 38.264 0 48.088 0 59.37 0 68.91 7.499 72.04 17.804c.16 1.43.254 2.866.28 4.305"/><path fill="#e63744" d="M71.429 28.893c1.027.788 1.683 2.001 1.683 3.369 0 2.378-1.993 4.304-4.449 4.304-.069 0-.141-.004-.209-.006a23.598 23.598 0 0 1-4.225 5.498c.899-19.318-4.237-25.093-16.147-25.093-12.729 0-18.064 5.239-16.153 25.084a23.642 23.642 0 0 1-4.226-5.511 4.498 4.498 0 0 1-.493.028c-2.458 0-4.451-1.926-4.451-4.304 0-1.576.877-2.952 2.184-3.698-.693-2.2-1.251-4.665-1.168-6.714.057-1.442.756-4.641 1.887-7.894C29.766 5.683 38.267.001 48.089.001c11.28 0 20.821 7.497 23.95 17.802.16 1.43.254 2.868.28 4.307.02 1.566-.282 4.173-.89 6.783"/><path fill="#cc3a48" d="M28.889 30.054c1.494 4.486 1.494 8.533-.002 9.04-1.496.501-5.47-1.988-6.962-6.476-1.496-4.49.048-9.277 1.546-9.781 1.496-.506 3.924 2.725 5.418 7.217"/><path fill="#a53647" d="M25.712 24.894c.228.733-.02 1.462-.549 1.625-.534.164-1.144-.294-1.372-1.027-.224-.73.021-1.458.553-1.622.53-.165 1.145.293 1.368 1.024m2.685 6.136c.226.733-.022 1.455-.552 1.623-.532.166-1.144-.292-1.37-1.025-.226-.731.022-1.458.554-1.626.53-.163 1.144.295 1.368 1.028m.713 5.576c-.061.762-.563 1.342-1.119 1.296-.556-.048-.949-.705-.886-1.466.063-.764.565-1.344 1.119-1.296.553.046.949.7.886 1.466"/><path fill="#cc3a48" d="M66.921 30.054c1.494-4.492 3.924-7.723 5.417-7.217 1.499.504 3.043 5.291 1.547 9.781-1.492 4.488-5.466 6.977-6.962 6.476-1.494-.507-1.498-4.554-.002-9.04"/><path fill="#a53647" d="M70.097 24.894c.224-.731.838-1.189 1.368-1.024.532.164.778.892.554 1.622-.226.733-.841 1.191-1.371 1.027-.529-.163-.779-.892-.55-1.625m-2.685 6.136c.223-.733.84-1.191 1.368-1.028.532.168.779.895.553 1.626-.225.733-.838 1.191-1.37 1.025-.529-.168-.779-.89-.551-1.623m-.713 5.576c-.063-.766.333-1.42.887-1.466.553-.048 1.055.532 1.12 1.296.063.761-.335 1.418-.887 1.466-.555.046-1.059-.534-1.12-1.296"/><path fill="#eeeeed" d="M48.088 14.901c11.281 0 19.615 1.662 17.059 26.21-.317.397-.488.557-.918.947.899-19.318-4.237-25.093-16.147-25.093-12.729 0-18.064 5.238-16.153 25.084a9.715 9.715 0 0 1-1.038-1.068c-2.096-26.08 7.376-26.08 17.197-26.08"/><path fill="#333433" d="M43.909 24.339s-.503 1.803-2.082 1.446c-.772-.174-.908-1.201-3.386-.74-.779.18-2.417 1.156-2.732 1.808-.316.652-.088-2.392 2.457-3.522 1.835-.675 2.457-.642 3.977-.642s1.987.907 1.766 1.65m9.741 0s.503 1.803 2.082 1.446c.772-.174.908-1.201 3.386-.74.779.18 2.417 1.156 2.732 1.808.316.652.087-2.392-2.457-3.522-1.835-.675-2.457-.642-3.977-.642s-1.987.907-1.766 1.65m-12.052 7.35c0 1.657-.895 3-2 3s-2-1.343-2-3 .895-3 2-3 2 1.343 2 3m18 0c0 1.657-.895 3-2 3s-2-1.343-2-3 .895-3 2-3 2 1.343 2 3"/><path fill="#eeac6c" d="M48.618 34.758c-1.125.153-3.02 1.834-3.02 1.834s.207-1.009.503-1.299c.8-1.156 2.487-1.604 2.487-1.604s2.173.703 2.65 1.588c.443.824.34 1.238.34 1.238s-2.121-1.871-2.96-1.756z"/><path fill="#a53647" d="M41.798 38.385s6.897 3.208 13.172-.397c0 0-1.39 5.47-5.95 5.561-4.115.122-4.984-1.492-5.477-1.956-.492-.463-1.42-1.772-1.745-3.208" data-paper-data="{&quot;origPos&quot;:null}"/></g></svg>