<svg xmlns="http://www.w3.org/2000/svg" xmlns:xlink="http://www.w3.org/1999/xlink" width="120" height="120"><defs><path id="a" d="M0 119.68h50.763V0H0z"/></defs><g fill="none" fill-rule="evenodd" transform="translate(35)"><path fill="#DB472A" d="M11.476 35.21c0-.555-.45-1.004-1.005-1.004H7.225a1.005 1.005 0 1 0 0 2.007h3.246c.555 0 1.005-.449 1.005-1.003"/><mask id="b" fill="#fff"><use xlink:href="#a"/></mask><path fill="#DB472A" d="M8.324 34.708h1.048V0H8.324z" mask="url(#b)"/><path fill="#E28A32" d="M0 119.68h50.763V35.21H0z" mask="url(#b)"/><path fill="#E28A32" d="M0 110.647h50.763V35.21H0z" mask="url(#b)"/><path fill="#71E5FF" d="M9.172 40.4a.618.618 0 0 1-.618.617H3.886a.618.618 0 0 1-.62-.617v-2.315a.62.62 0 0 1 .62-.617h4.668c.342 0 .618.276.618.617V40.4zm7.728 0a.618.618 0 0 1-.618.617h-4.67a.618.618 0 0 1-.618-.617v-2.315c0-.34.277-.617.619-.617h4.669c.34 0 .618.276.618.617V40.4zm7.728 0a.618.618 0 0 1-.619.617h-4.668a.618.618 0 0 1-.62-.617v-2.315a.62.62 0 0 1 .62-.617h4.668c.342 0 .619.276.619.617V40.4zm7.727 0a.618.618 0 0 1-.618.617h-4.67a.618.618 0 0 1-.618-.617v-2.315c0-.34.277-.617.619-.617h4.669c.34 0 .618.276.618.617V40.4zm7.728 0a.618.618 0 0 1-.619.617h-4.668a.618.618 0 0 1-.62-.617v-2.315a.62.62 0 0 1 .62-.617h4.668c.342 0 .619.276.619.617V40.4zm7.727 0a.618.618 0 0 1-.618.617h-4.67a.618.618 0 0 1-.618-.617v-2.315c0-.34.277-.617.619-.617h4.669c.34 0 .618.276.618.617V40.4zM9.172 92.235c0 .34-.276.617-.618.617H3.886a.618.618 0 0 1-.62-.617V89.92a.62.62 0 0 1 .62-.618h4.668c.342 0 .618.277.618.618v2.315zm7.728 0c0 .34-.277.617-.618.617h-4.67a.618.618 0 0 1-.618-.617V89.92c0-.341.277-.618.619-.618h4.669c.34 0 .618.277.618.618v2.315zm7.728 0c0 .34-.277.617-.619.617h-4.668a.618.618 0 0 1-.62-.617V89.92a.62.62 0 0 1 .62-.618h4.668c.342 0 .619.277.619.618v2.315zm7.727 0c0 .34-.277.617-.618.617h-4.67a.618.618 0 0 1-.618-.617V89.92c0-.341.277-.618.619-.618h4.669c.34 0 .618.277.618.618v2.315zm7.728 0c0 .34-.277.617-.619.617h-4.668a.618.618 0 0 1-.62-.617V89.92a.62.62 0 0 1 .62-.618h4.668c.342 0 .619.277.619.618v2.315zm7.727 0c0 .34-.277.617-.618.617h-4.67a.618.618 0 0 1-.618-.617V89.92c0-.341.277-.618.619-.618h4.669c.34 0 .618.277.618.618v2.315zM9.172 97.503a.618.618 0 0 1-.618.618H3.886a.618.618 0 0 1-.62-.618V95.19a.62.62 0 0 1 .62-.618h4.668c.342 0 .618.277.618.618v2.314zm7.728 0a.618.618 0 0 1-.618.618h-4.67a.618.618 0 0 1-.618-.618V95.19c0-.341.277-.618.619-.618h4.669c.34 0 .618.277.618.618v2.314zm7.728 0a.618.618 0 0 1-.619.618h-4.668a.618.618 0 0 1-.62-.618V95.19a.62.62 0 0 1 .62-.618h4.668c.342 0 .619.277.619.618v2.314zm7.727 0a.618.618 0 0 1-.618.618h-4.67a.618.618 0 0 1-.618-.618V95.19c0-.341.277-.618.619-.618h4.669c.34 0 .618.277.618.618v2.314zm7.728 0a.618.618 0 0 1-.619.618h-4.668a.618.618 0 0 1-.62-.618V95.19a.62.62 0 0 1 .62-.618h4.668c.342 0 .619.277.619.618v2.314zm7.727 0a.618.618 0 0 1-.618.618h-4.67a.618.618 0 0 1-.618-.618V95.19c0-.341.277-.618.619-.618h4.669c.34 0 .618.277.618.618v2.314zm-38.638 5.269a.617.617 0 0 1-.618.617H3.886a.618.618 0 0 1-.62-.617v-2.314a.62.62 0 0 1 .62-.618h4.668c.342 0 .618.277.618.618v2.314zm7.728 0a.618.618 0 0 1-.618.617h-4.67a.618.618 0 0 1-.618-.617v-2.314c0-.341.277-.618.619-.618h4.669c.34 0 .618.277.618.618v2.314zm7.728 0a.618.618 0 0 1-.619.617h-4.668a.618.618 0 0 1-.62-.617v-2.314a.62.62 0 0 1 .62-.618h4.668c.342 0 .619.277.619.618v2.314zm7.727 0a.618.618 0 0 1-.618.617h-4.67a.618.618 0 0 1-.618-.617v-2.314c0-.341.277-.618.619-.618h4.669c.34 0 .618.277.618.618v2.314zm7.728 0a.618.618 0 0 1-.619.617h-4.668a.618.618 0 0 1-.62-.617v-2.314a.62.62 0 0 1 .62-.618h4.668c.342 0 .619.277.619.618v2.314zm7.727 0a.618.618 0 0 1-.618.617h-4.67a.618.618 0 0 1-.618-.617v-2.314c0-.341.277-.618.619-.618h4.669c.34 0 .618.277.618.618v2.314zm-38.638 5.269a.617.617 0 0 1-.618.617H3.886a.618.618 0 0 1-.62-.617v-2.314a.62.62 0 0 1 .62-.618h4.668c.342 0 .618.277.618.618v2.314zm7.728 0a.618.618 0 0 1-.618.617h-4.67a.618.618 0 0 1-.618-.617v-2.314c0-.341.277-.618.619-.618h4.669c.34 0 .618.277.618.618v2.314zm7.728 0a.618.618 0 0 1-.619.617h-4.668a.618.618 0 0 1-.62-.617v-2.314a.62.62 0 0 1 .62-.618h4.668c.342 0 .619.277.619.618v2.314zm7.727 0a.618.618 0 0 1-.618.617h-4.67a.618.618 0 0 1-.618-.617v-2.314c0-.341.277-.618.619-.618h4.669c.34 0 .618.277.618.618v2.314zm7.728 0a.618.618 0 0 1-.619.617h-4.668a.618.618 0 0 1-.62-.617v-2.314a.62.62 0 0 1 .62-.618h4.668c.342 0 .619.277.619.618v2.314zm7.727 0a.618.618 0 0 1-.618.617h-4.67a.618.618 0 0 1-.618-.617v-2.314c0-.341.277-.618.619-.618h4.669c.34 0 .618.277.618.618v2.314zM9.172 85.274a.618.618 0 0 1-.618.618H3.886a.618.618 0 0 1-.62-.618V44.423c0-.341.278-.617.62-.617h4.668c.342 0 .618.276.618.617v40.851z" mask="url(#b)"/><path stroke="#E28A32" stroke-linecap="round" stroke-width="1.003" d="M3.267 47.17h5.905m-5.905 4.432h5.905m-5.905 4.432h5.905m-5.905 4.433h5.905M3.267 64.9h5.905m-5.905 4.432h5.905m-5.905 4.433h5.905m-5.905 4.432h5.905M3.267 82.63h5.905" mask="url(#b)"/><path fill="#71E5FF" d="M16.9 85.274a.618.618 0 0 1-.618.618h-4.67a.618.618 0 0 1-.618-.618V44.423c0-.341.277-.617.619-.617h4.669c.34 0 .618.276.618.617v40.851z" mask="url(#b)"/><path stroke="#E28A32" stroke-linecap="round" stroke-width="1.003" d="M10.994 47.17H16.9m-5.906 4.432H16.9m-5.906 4.432H16.9m-5.906 4.433H16.9M10.994 64.9H16.9m-5.906 4.432H16.9m-5.906 4.433H16.9m-5.906 4.432H16.9m-5.906 4.433H16.9" mask="url(#b)"/><path fill="#71E5FF" d="M24.628 85.274a.618.618 0 0 1-.619.618h-4.668a.618.618 0 0 1-.62-.618V44.423c0-.341.278-.617.62-.617h4.668c.342 0 .619.276.619.617v40.851z" mask="url(#b)"/><path stroke="#E28A32" stroke-linecap="round" stroke-width="1.003" d="M18.722 47.17h5.906m-5.906 4.432h5.906m-5.906 4.432h5.906m-5.906 4.433h5.906M18.722 64.9h5.906m-5.906 4.432h5.906m-5.906 4.433h5.906m-5.906 4.432h5.906m-5.906 4.433h5.906" mask="url(#b)"/><path fill="#71E5FF" d="M32.355 85.274a.618.618 0 0 1-.618.618h-4.67a.618.618 0 0 1-.618-.618V44.423c0-.341.277-.617.619-.617h4.669c.34 0 .618.276.618.617v40.851z" mask="url(#b)"/><path stroke="#E28A32" stroke-linecap="round" stroke-width="1.003" d="M26.45 47.17h5.905m-5.905 4.432h5.905m-5.905 4.432h5.905m-5.905 4.433h5.905M26.45 64.9h5.905m-5.905 4.432h5.905m-5.905 4.433h5.905m-5.905 4.432h5.905M26.45 82.63h5.905" mask="url(#b)"/><path fill="#71E5FF" d="M40.083 85.274a.618.618 0 0 1-.619.618h-4.668a.618.618 0 0 1-.62-.618V44.423c0-.341.278-.617.62-.617h4.668c.342 0 .619.276.619.617v40.851z" mask="url(#b)"/><path stroke="#E28A32" stroke-linecap="round" stroke-width="1.003" d="M34.177 47.17h5.906m-5.906 4.432h5.906m-5.906 4.432h5.906m-5.906 4.433h5.906M34.177 64.9h5.906m-5.906 4.432h5.906m-5.906 4.433h5.906m-5.906 4.432h5.906m-5.906 4.433h5.906" mask="url(#b)"/><path fill="#71E5FF" d="M47.81 85.274a.618.618 0 0 1-.618.618h-4.67a.618.618 0 0 1-.618-.618V44.423c0-.341.277-.617.619-.617h4.669c.34 0 .618.276.618.617v40.851z" mask="url(#b)"/><path stroke="#E28A32" stroke-linecap="round" stroke-width="1.003" d="M41.904 47.17h5.906m-5.906 4.432h5.906m-5.906 4.432h5.906m-5.906 4.433h5.906M41.904 64.9h5.906m-5.906 4.432h5.906m-5.906 4.433h5.906m-5.906 4.432h5.906m-5.906 4.433h5.906" mask="url(#b)"/><path fill="#D03E21" d="M20.104 119.68v-5.52h10.555v5.52" mask="url(#b)"/><path stroke="#FFC876" stroke-width="1.003" d="M0 87.48h50.763M0 42.235h50.763" mask="url(#b)"/><path fill="#834F1B" d="M25.381 119.68h25.382V35.126H25.38z" mask="url(#b)" opacity=".272"/></g></svg>