<svg xmlns="http://www.w3.org/2000/svg" width="118.679" height="119.165"><g fill-rule="evenodd" stroke-miterlimit="10" data-paper-data="{&quot;isPaintingLayer&quot;:true}" style="mix-blend-mode:normal"><path fill="#ffdc81" d="M75.749 94.622c1.52 8.057 2.62 16.765-3.258 23.383-.783.883-2.145.175-2.397-.78a276.846 276.846 0 0 1-4.632-20.828c-.072-.399.01-.735.178-1.005.015-.58.356-1.109 1.122-1.184l7.268-.712c.77-.075 1.562.293 1.72 1.126" data-paper-data="{&quot;origPos&quot;:null}"/><path fill="#f28e77" d="M77.952 107.27c.005.023.014.043.017.07.545 3.9-.686 8.802-4.173 11.097-4.95 3.26-6.581-5.3-7.067-8.445a1.47 1.47 0 0 1 .05-.689 1.625 1.625 0 0 1 .017-.586c-.001-.599.303-1.177 1.013-1.325l8.537-1.78c1.052-.22 1.678.777 1.606 1.657"/><path fill="#ffdc81" d="m50.659 60.167.002-.01a.924.924 0 0 1-.017-.187c.028-.617.554-1.324 1.25-1.25.04.005.076.013.115.018a1.21 1.21 0 0 1 .554-.105l14.997.528c.74.026 1.136.572 1.194 1.147.18.198.298.465.294.813-.056 5.23-4.08 9.67-9.462 9.57-5.365-.1-9.267-4.683-9.098-9.914.008-.24.07-.442.17-.61" data-paper-data="{&quot;origPos&quot;:null}"/><path fill="#7b97c2" d="M1.4 66.862c2.933-5.623 9.278-8.236 15.33-9.263-3.53-4.322-8.411-8.08-7.858-14.24.584-6.523 7.06-7.566 12.244-5.589C33.4 42.46 44.088 51.731 51.678 62.395c.654.07 1.217.523 1.13 1.375-.007.07-.018.138-.026.207l.034.048c.47.7.22 1.375-.29 1.77-2.327 13.72-13.706 24.34-27.901 24.957-7.085.308-14.484-1.878-19.57-6.973C.62 79.332-1.655 72.72 1.4 66.862M113.622 83.78c-5.085 5.096-12.484 7.281-19.568 6.973-14.196-.617-25.576-11.237-27.902-24.957-.51-.395-.76-1.072-.29-1.77l.033-.048c-.007-.069-.018-.137-.026-.207-.086-.852.477-1.306 1.13-1.375 7.59-10.664 18.279-19.936 30.564-24.625 5.183-1.977 11.66-.935 12.244 5.59.553 6.16-4.33 9.916-7.857 14.24 6.052 1.026 12.395 3.64 15.329 9.261 3.056 5.858.78 12.471-3.656 16.918"/><path fill="#33170c" d="M20.404 43.061c6.823-2.38 6.442-10.878 5.796-17.282 10-.479 20-1.122 30.002-1.382 7.52-.196 15.103-.067 22.606-.63 3.585-.27 7.808-.953 11.71-.604l.024.748c.215 6.65-.601 15.991 5.937 19.7.48.273.68.697.684 1.13.336.508.378 1.197-.192 1.74-8.786 8.37-22.443 9.58-33.773 9.722-12.175.155-24.308-2.078-35.726-6.484-2.872-.67-5.418-2.054-7.678-4.23-.806-.776-.33-2.1.61-2.428"/><path fill="#ffdc81" d="M19.378 62.825c1.926-2.284 5.2-3.3 8.008-3.955 6.615-1.54 13.479-.294 19.333 3.038.499.284.676.7.64 1.111a2.03 2.03 0 0 1 .105 1.774c-.05 1.175 2.014 6.605-7.475 3.52-6.527-2.124-12.762-.415-18.994 2.334-.623.274-1.277.025-1.714-.448-1.962-2.12-1.716-5.222.097-7.374M99.55 51.353c-.175 2.981-2.19 5.757-4.048 7.96-4.376 5.193-10.62 8.302-17.305 9.136-.57.072-.96-.155-1.177-.507a2.031 2.031 0 0 1-1.147-1.358c-.663-.97-3.271-2.327-2.78-3.362.03-.137 4.93-3.163 6.66-3.93 6.277-2.78 10.473-7.306 13.819-13.237.334-.593 1.01-.785 1.64-.668 2.843.524 4.502 3.157 4.338 5.966M45.23 85.898a35.482 35.482 0 0 1 7.647 5.778c.85.84.294 1.958-.564 2.314-.013.03-.02.06-.037.088-3.768 6.894-9.97 11.88-17.468 14.186-1.293.398-2.125-1.117-1.594-2.16l10.02-19.712c.365-.716 1.35-.857 1.996-.494" data-paper-data="{&quot;origPos&quot;:null}"/><path fill="#f5a992" d="M36.915 79.543c1.125-3.512 1.749-7.084 1.82-10.773.01-.538.309-.904.69-1.096.085-.089.187-.172.32-.24 3.696-1.88 6.344-4.96 7.475-8.97.174-.62.78-1.11 1.455-.94l3.668.926c.215.054.386.152.522.273.4.14.72.478.734 1.037.1 3.69 2.703 6.79 6.525 6.88 3.954.093 6.874-3.103 6.866-6.974-.001-.495.295-1.105.83-1.23l2.89-.667c.633-.414 1.54-.338 1.726.59.794 4.011 3.167 7.326 6.79 9.253.5.085.95.438 1.006 1.086a70.932 70.932 0 0 0 2.394 13.161c.215.764-.265 1.562-1.09 1.614a206.92 206.92 0 0 1-43.618-1.837c-.716-.106-.99-.67-.93-1.225-.137-.228-.185-.52-.073-.868"/><path fill="#ffdc81" d="M32.02 23.917c.046-.744.54-1.187 1.11-1.337.097-.642.554-1.256 1.368-1.343 17.257-1.827 34.609-2.537 51.799-.79.258.026.416 2.5.602 2.62.748.153 1.39.806 1.11 1.751-2.28 7.694.387 15.876-1.897 23.562-2.04 6.868-8.134 11.254-14.9 12.865-7.187 1.712-15.398 1.227-22.56-.478-6.222-1.482-12.317-4.682-15.383-10.542-4.242-8.106-1.775-17.67-1.248-26.308" data-paper-data="{&quot;origPos&quot;:null}"/><path fill="#050000" d="M57.49 49.372c2.103 3.968 7.328 4.508 9.924.66 1.04-1.542 3.56-.09 2.51 1.467-3.738 5.54-11.753 5.36-14.944-.66-.875-1.65 1.633-3.122 2.51-1.467"/><path fill="#f28e77" d="M23.547 81.974a152.255 152.255 0 0 1 14.715-7.446c.222-.097.434-.14.633-.139.156-.025.322-.032.507-.002l42.94 6.924c.638.103 1.02.493 1.184.956a81.698 81.698 0 0 1 8.668 13.614c.628 1.243-1.175 2.77-2.285 1.73-3.297-3.088-6.595-1.968-9.936.185-1.94 1.25-3.943 2.28-6.362 1.876-2.41-.402-4.22-2.078-6.06-3.5-1.363-1.054-2.675-2.019-4.488-2.03-1.792-.01-3.486.908-5.181 1.364-2.57.692-4.906.353-7.166-1.055-3.217-2.004-6.027-6.806-10.43-5.104-2.236.864-4.39 1.905-6.6.29-1.067-.78-1.653-2.035-2.68-2.863-1.712-1.378-3.852-1.876-6.028-1.638-.944.104-1.535-.536-1.668-1.238-.524-.574-.627-1.428.237-1.924m12.6 15.055c.386-.642 1.349-.94 1.995-.494a54.767 54.767 0 0 1 7.189 5.922c.176.172.283.356.348.542.34.424.356.963.158 1.422a1.36 1.36 0 0 1-.453.824c-1.95 1.784-4.29 3.073-6.692 4.155-1.81.814-3.96 1.31-5.704.044-1.658-1.2-1.765-3.313-1.093-5.087.972-2.563 2.847-4.983 4.253-7.327"/><path fill="#401f0f" d="M24.243 27.525C28.538 12.355 30.363.64 58.78.015 84.168-.543 92.335 14.383 92.292 29.37c-.005 1.766-3.558 1.881-4.131 1.803-4.71-.65-11.33-3.24-17.895-10.81-10.767 10.054-33.055 13.398-44.638 9.58-.371-.123-.56-.437-.673-.714-.558-.306-.937-.908-.712-1.704"/><path fill="#f1bc35" d="M61.104 42.566c.75.197 3.07.947 3.433-.264.174-.583-.607-1.146-.963-1.5-1.162-1.162-2.067-2.29-1.734-4.028.352-1.836 3.155-1.058 2.803.772-.1.515 1.434 1.632 1.74 1.995.76.904 1.278 1.997 1.04 3.206-.662 3.37-4.517 3.298-7.092 2.621-1.807-.475-1.041-3.28.773-2.802" data-paper-data="{&quot;origPos&quot;:null}"/><path fill="#fafcf8" d="M36.928 15.695c1.259-.69 2.774.01 3.899.648.03.017.058.04.09.058-.175-2.273.343-4.635 2.68-4.864 2.464-.24 2.699 2.104 2.452 4.405 1.459-.604 3.007-.687 4.233.328 1.36 1.127.848 3.043-.545 3.87-.811.482-1.793.747-2.802.88a8.107 8.107 0 0 1 1.595 5.09c-.038 1.15-1.192 1.743-2.186 1.254a7.717 7.717 0 0 1-3.242-3.018c-1.547 1.65-3.64 2.854-5.242 1.03-1.08-1.23-.595-3.006.478-4.048.275-.268.57-.499.88-.706-.885-.329-1.725-.789-2.41-1.399-1.098-.977-1.33-2.734.12-3.528"/><path fill="#fcbf2c" d="M43.62 16.994c.14.006.28.04.415.083.175.03.348.086.53.164.988.425 1.424 1.713 1.16 2.697-.315 1.187-1.534 1.8-2.692 1.558-1.04-.218-1.86-1.203-1.78-2.28.09-1.204 1.113-2.28 2.367-2.222"/><path fill="#fafcf8" d="M42.634 34.032c1.136-2.24 3.568-3.366 5.937-3.18.283-.157.636-.206 1.048-.067 3.154 1.06 5.242 4.493 4.19 7.784-1.034 3.238-5.04 5.03-8.147 3.7-3.035-1.3-4.531-5.273-3.028-8.237"/><path fill="#401f0f" d="M47 32.907c.169-.144.38-.258.65-.32 2.79-.655 5.709 1.981 4.646 4.86-1.008 2.728-4.672 3.516-6.505 1.15-1.413-1.827-.865-4.878 1.21-5.69"/><path fill="#fafcf8" d="M49.83 34.955c2.044 0 2.044 2.906 0 2.906-2.042 0-2.042-2.906 0-2.906m22.546-2.3c2.349-3.138 6.777-3.11 9.593-.67.383.33.505.721.462 1.091 1.228 1.693 1.637 3.923.692 6.023-1.55 3.445-5.751 4.853-9.008 2.877-3.26-1.977-4.01-6.288-1.74-9.32"/><path fill="#401f0f" d="M76.326 32.76c.458-.26.946-.405 1.433-.45.26-.112.57-.143.92-.049.306.083.6.195.88.33.34.144.65.341.929.58 1.48 1.161 2.228 3.1 1.372 5.006-1.087 2.425-4.177 2.714-6.073 1.066-1.97-1.713-1.784-5.162.539-6.483"/><path fill="#fafcf8" d="M79.454 34.761c2.042 0 2.042 2.906 0 2.906-2.043 0-2.043-2.906 0-2.906"/><path fill="#f5da6a" d="M104.938 28.594a369.008 369.008 0 0 0-8.194 24.346c-.536 1.797-3.282.844-2.748-.946a369.519 369.519 0 0 1 8.194-24.347c.658-1.75 3.407-.808 2.748.947"/><path fill="#dd8d00" d="M101.503 19.425c1.034.39 2.062.79 3.087 1.2.985-.863 3.584-3.118 3.975-3.173.455-.144.887.007 1.206.313.38.287.62.75.516 1.355l-.63 3.644c1.53.673 1.857.853 3.398 1.502.998.42 1.476 2.164-.528 2.76-1.314.391-3.802 1.144-3.802 1.144l-.622 3.6c-.203 1.173-2.024 1.676-2.64.533l-1.912-3.548-4.136.467c-1.243.14-2.04-1.496-1.197-2.403a85.719 85.719 0 0 1 2.76-2.838l-1.316-2.443c-.694-1.287.463-2.632 1.84-2.113"/></g></svg>