<svg version="1.1" xmlns="http://www.w3.org/2000/svg" xmlns:xlink="http://www.w3.org/1999/xlink" width="64.31488" height="119.44034" viewBox="0,0,64.31488,119.44034"><g transform="translate(-207.00008,-120.00046)"><g data-paper-data="{&quot;isPaintingLayer&quot;:true}" fill-rule="evenodd" stroke="none" stroke-width="1" stroke-linecap="butt" stroke-linejoin="miter" stroke-miterlimit="10" stroke-dasharray="" stroke-dashoffset="0" style="mix-blend-mode: normal"><path d="M229.141,225.214c-2.991,-2.483 -2.955,-15.328 -2.955,-15.328h26.14c0,0 0.256,12.83 -2.71,15.328c-1.893,1.599 -9.883,0 -9.883,0l-0.358,-1.81l-0.36,1.81c0,0 -7.968,1.58 -9.874,0" fill="#515151"/><path d="M238.831,233.961c0.058,0.236 -0.017,0.493 -0.18,0.748c-0.53,0.816 -1.446,1.414 -2.23,1.963c-1.205,0.834 -2.734,1.282 -4.07,1.922c-1.206,0.512 -2.798,1.475 -3.88,0.255c-1.43,-1.725 -0.217,-3.844 1.457,-4.888l-0.844,-8.747h10.043z" fill="#2c2c2d"/><path d="M248.831,233.96c1.671,1.043 2.883,3.163 1.456,4.888c-1.081,1.219 -2.673,0.257 -3.883,-0.255c-1.337,-0.641 -2.864,-1.089 -4.07,-1.923c-0.782,-0.548 -1.7,-1.146 -2.23,-1.962c-0.161,-0.258 -0.236,-0.513 -0.181,-0.748l-0.292,-8.746h10.04l-0.839,8.746" fill="#2c2c2d"/><path d="M223.239,184.347c1.637,-2.102 7.578,-5.203 7.578,-5.203c0,0 -2.78,5.017 -3.28,7.245c-0.066,0.285 -0.221,1.042 -0.364,1.439c-0.179,0.492 -0.686,1.118 -1.463,2.23c-1.561,2.22 -3.021,11.608 -3.021,11.608c0.036,0.065 0.068,0.13 0.102,0.195c0.4429,0.44989 0.81543,0.96401 1.105,1.525c0.844,1.603 0.931,3.226 0.192,3.618c-0.39,0.212 -0.943,0.027 -1.501,-0.435c-0.594,1.075 -1.533,1.735 -2.514,1.632c-1.506,-0.16 -2.54,-2.05 -2.308,-4.227c0.093,-0.913 0.4,-1.732 0.832,-2.36c-0.004,0.036 -0.008,0.056 -0.008,0.056c0,0 1.29,-12.998 4.65,-17.323M268.624,169.872c1.686,0.72 2.225,3.279 1.196,5.72c-0.658,1.562 -1.799,2.698 -2.98,3.118l0.002,0.002c0,0 -3.143,8.981 -5.885,9.981c-2.216,0.808 -10.025,-2.387 -10.025,-2.387c0,0 -0.631,-2.441 -0.959,-3.214c-0.447,-1.059 -2.418,-3.999 -2.418,-3.999l10.845,3.892l5.04,-5.957c-0.086,-0.24 -0.147,-0.5 -0.19,-0.77c-0.324,-0.591 -0.588,-1.335 -0.748,-2.16c-0.416,-2.162 0.048,-4.073 1.04,-4.268c0.532,-0.103 1.107,0.304 1.59,1.041c1.072,-1.037 2.392,-1.468 3.492,-0.999" data-paper-data="{&quot;origPos&quot;:null}" fill="#be966b"/><path d="M267.792,179.194c0,0 -4.097,8.657 -6.839,9.656c-2.12,0.777 -8.457,-1.708 -8.967,-2.066c1.379,5.993 1.75,13.755 1.841,18.581c0.002,0.06 0.737,8.065 0.667,12.728c-6.153,2.514 -23.935,1.89 -30.456,0c-0.177,-4.79 0.679,-12.825 0.683,-13.02c0.098,-4.043 0.403,-10.032 1.297,-15.362c-0.07,0.105 -0.148,0.214 -0.228,0.33c-0.234,0.332 -0.46,0.821 -0.677,1.404c-1.214,3.308 -2.067,9.784 -2.067,9.784l-4.616,0.004c0,0 0.786,-6.686 2.467,-12.062c0.667,-2.121 1.47,-4.039 2.423,-5.263c1.484,-1.911 5.789,-4.354 6.566,-4.787c1.921,-1.25 7.698,-1.44 7.698,-1.44l1.61,0.04h0.134l1.61,-0.04c0,0 5.797,0.212 7.709,1.47l9.69,3.692l4.781,-6.013z" fill="#2c2c2d"/><path d="M233.345,219.48l-0.12,-0.006l0.063,-33.664zM236.177,192.85c0.0008,0.21924 -0.0856,0.42981 -0.24016,0.5853c-0.15456,0.1555 -0.3646,0.24317 -0.58384,0.2437c-0.21862,-0.00132 -0.42774,-0.08957 -0.5812,-0.24529c-0.15346,-0.15571 -0.23866,-0.36609 -0.2368,-0.58471c0,-0.456 0.367,-0.827 0.818,-0.827c0.456,0 0.824,0.371 0.824,0.827M243.67,192.85c0.00133,0.21906 -0.08462,0.42963 -0.23886,0.58518c-0.15424,0.15556 -0.36408,0.24329 -0.58314,0.24382c-0.21889,-0.00106 -0.42836,-0.08916 -0.5822,-0.24488c-0.15384,-0.15571 -0.2394,-0.36624 -0.2378,-0.58512c0,-0.456 0.367,-0.827 0.82,-0.827c0.456,0 0.822,0.371 0.822,0.827M236.177,200.695c0,0.458 -0.368,0.83 -0.824,0.83c-0.21862,-0.00132 -0.42774,-0.08957 -0.5812,-0.24529c-0.15346,-0.15571 -0.23866,-0.36609 -0.2368,-0.58471c0,-0.457 0.367,-0.827 0.818,-0.827c0.456,0 0.824,0.37 0.824,0.827M243.67,200.695c0,0.458 -0.366,0.83 -0.822,0.83c-0.21889,-0.00106 -0.42836,-0.08916 -0.5822,-0.24488c-0.15384,-0.15571 -0.2394,-0.36624 -0.2378,-0.58512c0,-0.457 0.367,-0.827 0.82,-0.827c0.456,0 0.822,0.37 0.822,0.827M236.177,209.75c0,0.45557 -0.36843,0.82535 -0.824,0.827c-0.4543,-0.0033 -0.82022,-0.37369 -0.818,-0.828c0,-0.458 0.367,-0.829 0.818,-0.829c0.456,0 0.824,0.37 0.824,0.83M243.67,209.75c0.00111,0.45525 -0.36676,0.82535 -0.822,0.827c-0.45485,-0.00275 -0.82166,-0.37314 -0.82,-0.828c0,-0.458 0.367,-0.829 0.82,-0.829c0.456,0 0.822,0.37 0.822,0.83" fill="#131313"/><path d="M239.298,180.823c-3.822,0 -3.624,-3.038 -3.624,-3.038c1.118,-0.133 1.959,-0.176 1.959,-0.176l1.61,0.088h0.136l1.607,-0.056c0,0 0.762,0.023 1.805,0.133c0,0 -0.076,3.05 -3.493,3.05" data-paper-data="{&quot;origPos&quot;:null}" fill="#be966b"/><path d="M237.541,179.076c-0.975,0 -1.77,-2.113 -1.77,-3.08h6.96c0,0.967 -0.796,3.08 -1.773,3.08h-3.418" data-paper-data="{&quot;origPos&quot;:null}" fill="#be966b"/><path d="M236.522,178.274c-0.396,-0.6 -0.669,-1.438 -0.732,-2.038c2.29387,0.37497 4.63413,0.36585 6.925,-0.027l-0.013,0.012l-6.18,2.053" fill="#eeac6c"/><path d="M239.258,180.813c0,0 2.565,-0.465 3.445,-4.515c0.443,-0.148 3.278,0.711 3.338,1.613c0.097,1.53 -0.262,2.499 -3.083,4.397c-1.017,-1.058 -3.7,-1.495 -3.7,-1.495" fill="#eeeeed"/><path d="M239.316,180.813c0,0 -2.727,0.63 -3.638,1.495c-2.334,-1.268 -2.791,-3.092 -3.08,-4.397c-0.18,-0.788 2.797,-1.761 3.214,-1.613c0.886,3.627 3.504,4.515 3.504,4.515" fill="#eeeeed"/><path d="M240.755,181.782c1.993,0.552 5.312,1.675 5.374,3.015c0.024,0.546 -1.636,1.641 -1.846,1.137c-0.442,-1.071 -2.402,-2.646 -3.732,-3.63c-0.241,0.414 -0.647,0.746 -1.069,0.375c-0.781,0.326 -1.071,-0.117 -1.141,-0.585c-1.316,0.956 -3.541,2.69 -4.018,3.84c-0.21,0.504 -1.871,-0.591 -1.846,-1.137c0.069,-1.453 3.971,-2.651 5.849,-3.146c0.00836,-0.0829 0.02545,-0.16469 0.051,-0.244c0.104,-0.303 1.254,-0.247 1.254,-0.247c0,0 1.078,0.124 1.128,0.42c0.01029,0.06706 0.00894,0.1354 -0.004,0.202M253.816,203.363c0.189,-0.019 0.33,3.952 0.209,3.962c-9.759,0.913 -19.802,0.907 -29.559,-0.011c-0.06,-0.004 0.144,-3.968 0.304,-3.955c9.66166,0.8863 19.3841,0.88764 29.046,0.004" fill="#487f66"/><path d="M224.654,203.892c9.739,0.9 19.54,0.9 29.28,0c0.01,0.056 0.014,0.118 0.02,0.18c-9.751,0.903 -19.566,0.903 -29.317,-0.002c0.005,-0.062 0.013,-0.124 0.017,-0.178M224.469,206.59c9.845,0.921 19.754,0.923 29.6,0.006c0.00213,0.06065 0.00213,0.12135 0,0.182c-9.84757,0.91533 -19.75893,0.91266 -29.606,-0.008c0.002,-0.056 0.002,-0.116 0.007,-0.18" fill="#2d5441"/><path d="M254.049,207.264c-9.84265,0.91494 -19.74916,0.91059 -29.591,-0.013c0,-0.039 -0.002,-0.103 0,-0.18c9.844,0.923 19.757,0.925 29.604,0.008c-0.004,0.08 -0.009,0.14 -0.012,0.185M224.721,203.474c9.69611,0.89313 19.45376,0.8938 29.15,0.002c0.01377,0.05873 0.02445,0.11815 0.032,0.178c-9.716,0.895 -19.496,0.895 -29.216,-0.002c0.013,-0.071 0.023,-0.131 0.033,-0.178" fill="#9f191b"/><path d="M224.554,205.026c9.803,0.915 19.666,0.915 29.47,0.007c0.00126,0.0601 0.00459,0.12013 0.01,0.18c-9.80898,0.9105 -19.68127,0.90916 -29.49,-0.004c0.004,-0.06 0.011,-0.123 0.011,-0.183" fill="#eeeeed"/><path d="M224.521,205.51c9.82005,0.91467 19.70383,0.91533 29.524,0.002c0,0.06 0.004,0.122 0.004,0.18c-9.821,0.915 -19.713,0.913 -29.536,-0.002c0.004,-0.06 0.008,-0.122 0.008,-0.18" fill="#eeeeed"/><path d="M223.833,203.235c0.907,1.646 1.026,3.322 0.272,3.744c-0.757,0.418 -2.103,-0.572 -3.007,-2.218c-0.793,-1.442 -0.987,-2.91 -0.51,-3.532l1.505,-0.002c0.597,0.38 1.238,1.093 1.74,2.008" data-paper-data="{&quot;origPos&quot;:null}" fill="#be966b"/><path d="M207.379,144.722l13.631,0.273l-1.517,11.722c0,0 -15.046,-7.53 -12.114,-11.996z" fill="#2c2c2d"/><path d="M270.936,144.721c2.932,4.466 -12.112,11.996 -12.112,11.996l-1.518,-11.722z" fill="#2c2c2d"/><path d="M259.846,158.622c1.073,0.695 1.78,1.875 1.78,3.219c0,2.134 -1.789,3.866 -3.997,3.866c-0.061,0 -0.123,-0.002 -0.187,-0.005c-3.575,6.446 -10.417,10.809 -18.276,10.809c-7.864,0 -14.716,-4.37 -18.286,-10.83c-0.145,0.017 -0.291,0.026 -0.443,0.026c-2.205,0 -3.993,-1.732 -3.993,-3.866c0,-1.44 0.813,-2.698 2.02,-3.362c-0.141,-0.986 -0.215,-1.995 -0.215,-3.019c0,-11.625 9.365,-21.054 20.917,-21.054c11.55,0 20.914,9.429 20.914,21.054c0,1.073 -0.081,2.132 -0.234,3.162" data-paper-data="{&quot;origPos&quot;:null}" fill="#be966b"/><path d="M260.806,152.552c0.034,2.47 -0.826,7.822 -2.501,11.012c0,0 -4.114,-11.717 -7.499,-13.573c-4.143,-2.269 -15.06,0.999 -18.763,-1.941c-0.615,-0.487 -0.545,-1.59 -0.545,-1.59c0,0 -0.709,1.405 -1.052,1.797c-1.794,2.058 -6.444,5.03 -8.65,6.628c-1.773,1.282 -1.856,1.269 -1.463,8.679c0,0 -3.264,-6.744 -3.084,-11.244c0.051,-1.296 0.677,-4.174 1.692,-7.096c3.684,-7.434 11.31,-12.54 20.124,-12.54c10.123,0 18.682,6.736 21.492,16c0.14054,1.28498 0.22362,2.5756 0.249,3.868" data-paper-data="{&quot;origPos&quot;:null}" fill="#7e581e"/><path d="M270.94,144.721c0,1.052 -14.226,2.45 -31.778,2.45c-17.554,0 -31.782,-1.398 -31.782,-2.45c0,-1.05 14.228,-1.905 31.782,-1.905c17.552,0 31.778,0.855 31.778,1.905" fill="#333433"/><path d="M258.374,143.336c-3.273,4.075 -35.197,3.705 -38.88,0l4.106,-21.403c5.853,-2.53 25.49,-2.623 31.557,0z" fill="#2c2c2d"/><path d="M219.985,140.781c12.52018,2.74053 25.48571,2.73371 38.003,-0.02l0.383,2.57c-12.79929,2.8766 -26.07775,2.8742 -38.876,-0.007l0.49,-2.544" fill="#721f2b"/><path d="M235.17197,153.65c0,0 -0.503,1.803 -2.082,1.446c-0.772,-0.174 -0.908,-1.201 -3.386,-0.74c-0.779,0.18 -2.417,1.156 -2.732,1.808c-0.316,0.652 -0.088,-2.392 2.457,-3.522c1.835,-0.675 2.457,-0.642 3.977,-0.642c1.52,0 1.987,0.907 1.766,1.65M244.91297,153.65c0,0 0.503,1.803 2.082,1.446c0.772,-0.174 0.908,-1.201 3.386,-0.74c0.779,0.18 2.417,1.156 2.732,1.808c0.316,0.652 0.087,-2.392 -2.457,-3.522c-1.835,-0.675 -2.457,-0.642 -3.977,-0.642c-1.52,0 -1.987,0.907 -1.766,1.65" data-paper-data="{&quot;origPos&quot;:null}" fill="#7e581e"/><path d="M233,161c0,1.657 -0.895,3 -2,3c-1.105,0 -2,-1.343 -2,-3c0,-1.657 0.895,-3 2,-3c1.105,0 2,1.343 2,3M251,161c0,1.657 -0.895,3 -2,3c-1.105,0 -2,-1.343 -2,-3c0,-1.657 0.895,-3 2,-3c1.105,0 2,1.343 2,3" data-paper-data="{&quot;origPos&quot;:null}" fill="#5e4116"/><path d="M240.02,162.069c-1.125,0.153 -3.02,1.834 -3.02,1.834c0,0 0.207,-1.009 0.503,-1.299c0.8,-1.156 2.487,-1.604 2.487,-1.604c0,0 2.173,0.703 2.65,1.588c0.443,0.824 0.34,1.238 0.34,1.238c0,0 -2.121,-1.871 -2.96,-1.756z" fill="#eeac6c"/><path d="M233.2,166.696c0,0 6.897,3.208 13.172,-0.397c0,0 -1.39,5.47 -5.95,5.561c-4.115,0.122 -4.984,-1.492 -5.477,-1.956c-0.492,-0.463 -1.42,-1.772 -1.745,-3.208" data-paper-data="{&quot;origPos&quot;:null}" fill="#944040"/></g></g></svg>