<svg xmlns="http://www.w3.org/2000/svg" width="480" height="360" style="background:#fff"><g fill="none"><path fill="#FFCBB0" d="M-2.346-4.358h484.863V359.29H-2.346z"/><path fill="#FFF" d="M-2.346-4.358h484.863V359.29H-2.346z"/><path fill="#FFB764" d="M-2.346-4.358h484.863V359.29H-2.346z"/><path fill="#FFD994" d="M-2.346 241.625h484.863V360H-2.346z"/><path fill="#FFC788" d="M407.342 155.685h75.2v43.562h-84.9zM90.197 128.932H-12.789v43.562h116.27z"/><path fill="#FFD9AE" d="M129.83 162.788H-12.79v78.074h161.017z"/><path fill="#FFA745" d="M379.628 197.353h109.045v43.562h-123.11zm-245.536-34.565H-8.528v78.074h161.016z"/><g fill="#FFD9AE" transform="matrix(-1 0 0 1 441.139 117.805)"><rect width="10.18" height="38.117" x="7.155" rx="5.09"/><g transform="translate(9.168 10.806)"><rect width="5.564" height="16.149" x="10.654" rx="2.782"/><rect width="5.564" height="16.149" x="5.327" y="5.225" rx="2.782" transform="rotate(90 8.109 13.3)"/></g><g transform="matrix(-1 0 0 1 13.311 18.88)"><rect width="4.261" height="12.231" x="8.049" rx="2.131"/><rect width="4.261" height="12.231" x="4.025" y="3.919" rx="2.131" transform="rotate(90 6.155 10.034)"/></g></g><g fill="#FFD9AE" transform="translate(132.548 191.671)"><rect width="17.283" height="49.954" x="11.417" rx="8.641"/><g transform="translate(14.968 3.551)"><rect width="9.503" height="27.463" x="18.197" rx="4.751"/><rect width="9.503" height="27.463" x="9.098" y="8.885" rx="4.751" transform="rotate(90 13.85 22.617)"/></g><g transform="matrix(-1 0 0 1 22.07 17.283)"><rect width="7.294" height="20.834" x="13.777" rx="3.647"/><rect width="7.294" height="20.834" x="6.889" y="6.675" rx="3.647" transform="rotate(90 10.535 17.092)"/></g></g></g></svg>