<svg version="1.1" xmlns="http://www.w3.org/2000/svg" xmlns:xlink="http://www.w3.org/1999/xlink" width="65.1945" height="117.01604" viewBox="0,0,65.1945,117.01604"><g transform="translate(-207.492,-121.969)"><g data-paper-data="{&quot;isPaintingLayer&quot;:true}" fill-rule="evenodd" stroke="none" stroke-width="1" stroke-linecap="butt" stroke-linejoin="miter" stroke-miterlimit="10" stroke-dasharray="" stroke-dashoffset="0" style="mix-blend-mode: normal"><path d="M215.07,140.115l47.996,-1.07c0,0 7.757,33.805 2.224,41.049c-7.772,10.165 -44.784,9.48 -53.362,0c-5.948,-6.578 3.142,-39.978 3.142,-39.978z" fill="#2c2c2d"/><path d="M230.525,173.146c-2.127,-1.447 -5.37,-2.916 -9.058,-1.205c1.316,-4.123 9.457,-11.633 17.482,-11.664c8.03,-0.028 15.942,7.423 16.796,11.664c-4.714,-1.416 -6.646,-0.681 -8.384,1.102c-4.208,-0.09 -12.628,0.035 -16.836,0.103" fill="#f08314"/><path d="M261.363,151.345c1.155,0.754 1.915,2.032 1.915,3.487c0,2.312 -1.932,4.192 -4.309,4.192c-0.068,0 -0.135,-0.003 -0.2,-0.004c-3.86,6.99 -11.249,11.72 -19.732,11.72c-8.492,0 -15.888,-4.739 -19.743,-11.743c-0.158,0.018 -0.318,0.026 -0.48,0.026c-2.386,0 -4.314,-1.879 -4.314,-4.19c0,-1.567 0.881,-2.929 2.185,-3.65c-0.154,-1.071 -0.229,-2.161 -0.229,-3.274c0,-12.61 10.11,-22.83 22.58,-22.83c12.47,0 22.58,10.22 22.58,22.831c0,1.167 -0.087,2.316 -0.253,3.435" data-paper-data="{&quot;origPos&quot;:null}" fill="#ffdd85"/><path d="M234.311,147.65c0,0 -0.503,1.803 -2.082,1.446c-0.772,-0.174 -0.908,-1.201 -3.386,-0.74c-0.779,0.18 -2.417,1.156 -2.732,1.808c-0.316,0.652 -0.088,-2.392 2.457,-3.522c1.835,-0.675 2.457,-0.642 3.977,-0.642c1.52,0 1.987,0.907 1.766,1.65M244.052,147.65c0,0 0.503,1.803 2.082,1.446c0.772,-0.174 0.908,-1.201 3.386,-0.74c0.779,0.18 2.417,1.156 2.732,1.808c0.316,0.652 0.087,-2.392 -2.457,-3.522c-1.835,-0.675 -2.457,-0.642 -3.977,-0.642c-1.52,0 -1.987,0.907 -1.766,1.65M232,155c0,1.657 -0.895,3 -2,3c-1.105,0 -2,-1.343 -2,-3c0,-1.657 0.895,-3 2,-3c1.105,0 2,1.343 2,3M250,155c0,1.657 -0.895,3 -2,3c-1.105,0 -2,-1.343 -2,-3c0,-1.657 0.895,-3 2,-3c1.105,0 2,1.343 2,3" fill="#2c2c2d"/><path d="M239.02,158.069c-1.125,0.153 -3.02,1.834 -3.02,1.834c0,0 0.207,-1.009 0.503,-1.299c0.8,-1.156 2.487,-1.604 2.487,-1.604c0,0 2.173,0.703 2.65,1.588c0.443,0.824 0.34,1.238 0.34,1.238c0,0 -2.121,-1.871 -2.96,-1.756z" fill="#eeac6c"/><path d="M232.2,161.696c0,0 6.897,3.208 13.172,-0.397c0,0 -1.39,5.47 -5.95,5.561c-4.115,0.122 -4.984,-1.492 -5.477,-1.956c-0.492,-0.463 -1.42,-1.772 -1.745,-3.208" fill="#eeac6c"/><path d="M269.886,180.448c-0.00014,0.02681 -0.00248,0.05357 -0.007,0.08c-0.004,0.057 -0.006,0.107 -0.011,0.162c0,0.024 -0.002,0.05 -0.004,0.077c-0.002,0.026 -0.008,0.048 -0.013,0.074c-0.008,0.048 -0.017,0.098 -0.024,0.148c-0.006,0.049 -0.023,0.094 -0.036,0.142l-0.039,0.14c-0.121,0.359 -0.307,0.641 -0.454,0.896c-0.13971,0.21881 -0.25443,0.4526 -0.342,0.697c-0.015,0.055 -0.026,0.11 -0.043,0.158c-0.017,0.05 -0.021,0.102 -0.03,0.148l-0.024,0.138c-0.004,0.041 -0.006,0.085 -0.008,0.123c-0.003,0.039 -0.005,0.08 -0.009,0.11c-0.002,0.038 -0.004,0.068 -0.002,0.1c0.002,0.062 0.002,0.113 0.006,0.15l0.002,0.127c0,0 -0.006,-0.04 -0.014,-0.123c-0.005,-0.041 -0.01,-0.091 -0.02,-0.151c-0.005,-0.032 -0.007,-0.065 -0.007,-0.102c0,-0.033 0,-0.072 -0.002,-0.112c0,-0.036 -0.002,-0.083 0,-0.126c0.002,-0.049 0.007,-0.09 0.008,-0.145c0.007,-0.048 0.007,-0.1 0.02,-0.153c0.008,-0.052 0.02,-0.111 0.028,-0.168c0.0693,-0.25971 0.16409,-0.51194 0.283,-0.753c0.13,-0.272 0.279,-0.558 0.357,-0.89c0.01026,-0.04086 0.01827,-0.08226 0.024,-0.124c0.004,-0.042 0.019,-0.084 0.022,-0.13c0.0011,-0.04381 0.00444,-0.08753 0.01,-0.131l0.007,-0.067l-0.002,-0.066c0,-0.046 -0.005,-0.09 -0.005,-0.138l-0.001,-0.065l-0.01,-0.072c-0.006,-0.053 -0.011,-0.101 -0.021,-0.153l-0.007,-0.075l-0.002,-0.008v-0.005l-0.005,-0.015l-0.01,-0.037c-0.069,-0.387 -0.216,-0.769 -0.482,-1.095c-0.134,-0.162 -0.298,-0.321 -0.471,-0.498c-0.175,-0.175 -0.359,-0.374 -0.517,-0.616c-0.155,-0.247 -0.265,-0.514 -0.355,-0.824c-0.014,-0.068 -0.027,-0.127 -0.04,-0.197l-0.024,-0.098l-0.004,-0.025l-0.005,-0.03v-0.013l-0.01,-0.055c-0.006,-0.077 -0.013,-0.15 -0.026,-0.227l-0.005,-0.054v-0.059l-0.002,-0.117c-0.002,-0.078 -0.005,-0.157 0.005,-0.24c0.006,-0.078 0.013,-0.161 0.023,-0.24c0.015,-0.079 0.033,-0.16 0.047,-0.241c0.025,-0.08 0.046,-0.161 0.07,-0.24c0.106,-0.31 0.253,-0.587 0.367,-0.837c0.11468,-0.21998 0.19174,-0.45759 0.228,-0.703c0.008,-0.059 0.008,-0.118 0.01,-0.177l0.002,-0.046v-0.042l-0.004,-0.083v-0.078l-0.013,-0.116l-0.015,-0.114l-0.007,-0.057l-0.002,-0.03c-0.002,-0.007 0.002,0.043 0,0.013l-0.002,-0.014c-0.052,-0.255 -0.127,-0.487 -0.242,-0.69c-0.117,-0.205 -0.277,-0.38 -0.495,-0.592c-0.108,-0.109 -0.229,-0.232 -0.354,-0.367c-0.061,-0.07 -0.124,-0.149 -0.187,-0.225c-0.058,-0.083 -0.116,-0.164 -0.17,-0.25c-0.007,-0.008 -0.011,-0.017 -0.017,-0.03l-2.752,8.192c0.04791,0.04345 0.09269,0.09023 0.134,0.14c0.10577,0.11701 0.19128,0.25085 0.253,0.396c0.05892,0.14265 0.09405,0.29399 0.104,0.448l0.004,0.052v0.018l-0.002,0.032v0.042l-0.002,0.065l-0.005,0.068c0.00002,0.02009 -0.00336,0.04004 -0.01,0.059c-0.00192,0.03768 -0.00694,0.07514 -0.015,0.112c-0.039,0.148 -0.102,0.288 -0.175,0.406c-0.152,0.238 -0.327,0.38 -0.474,0.503c-0.149,0.12 -0.278,0.213 -0.373,0.303c-0.08077,0.06792 -0.1439,0.15438 -0.184,0.252c-0.01941,0.04309 -0.02963,0.08974 -0.03,0.137l-0.003,0.022v0.004c0,0.005 -0.002,-0.028 0,-0.01v0.015l0.005,0.063c0.006,0.022 0,0.029 0.008,0.059c0.02371,0.09827 0.07385,0.18819 0.145,0.26c0.0947,0.09428 0.19817,0.17933 0.309,0.254c0.12852,0.08312 0.2533,0.17188 0.374,0.266c0.13033,0.10132 0.24171,0.22489 0.329,0.365c0.08363,0.13894 0.13395,0.29536 0.147,0.457c0.008,0.145 -0.002,0.302 -0.052,0.435c-0.048,0.131 -0.119,0.246 -0.199,0.336c-0.156,0.188 -0.323,0.306 -0.463,0.418c-0.12652,0.0924 -0.24224,0.19874 -0.345,0.317c-0.0767,0.08812 -0.13546,0.19037 -0.173,0.301c-0.02125,0.06943 -0.03303,0.14142 -0.035,0.214c-0.003,0.048 -0.003,0.075 -0.003,0.075c0,0 -0.001,-0.027 -0.01,-0.075l-0.004,-0.094c0.002,-0.037 0.002,-0.085 0.013,-0.131c0.01784,-0.12307 0.06293,-0.24059 0.132,-0.344c0.087,-0.14164 0.19038,-0.27254 0.308,-0.39c0.126,-0.135 0.267,-0.277 0.37,-0.443c0.05249,-0.08213 0.08912,-0.17337 0.108,-0.269c0.01808,-0.0979 0.01467,-0.19855 -0.01,-0.295c-0.048,-0.206 -0.178,-0.35 -0.393,-0.474c-0.109,-0.064 -0.232,-0.121 -0.37,-0.188c-0.137,-0.066 -0.287,-0.145 -0.437,-0.26c-0.08,-0.057 -0.153,-0.129 -0.222,-0.219c-0.11121,-0.13585 -0.18835,-0.2963 -0.225,-0.468l-0.016,-0.061l-0.004,-0.013c0.002,0.009 -0.002,-0.024 -0.002,-0.024v-0.013l-0.008,-0.044c-0.01247,-0.11925 -0.00911,-0.23963 0.01,-0.358c0.0235,-0.12103 0.06214,-0.23862 0.115,-0.35c0.05361,-0.1018 0.11584,-0.19882 0.186,-0.29c0.132,-0.166 0.27,-0.3 0.382,-0.424c0.11,-0.123 0.195,-0.232 0.222,-0.319c0.01528,-0.0328 0.02215,-0.06888 0.02,-0.105c0.002,-0.009 0,-0.022 0,-0.026c0,-0.004 0,-0.014 -0.002,-0.014c0,0 -0.002,0 -0.002,-0.004v-0.005l-0.004,-0.03l-0.007,-0.033l-0.004,-0.017c0,-0.011 0.004,0.044 0.004,0.017l-0.004,-0.004c-0.00785,-0.03387 -0.02361,-0.0654 -0.046,-0.092c-0.02123,-0.02419 -0.04504,-0.04598 -0.071,-0.065c-0.065,-0.048 -0.177,-0.11 -0.333,-0.18l-1.798,1.355c0.06299,0.05208 0.12092,0.11001 0.173,0.173c0.20997,0.23405 0.33471,0.53216 0.354,0.846l0.007,0.05v0.052l-0.004,0.04l-0.003,0.065l-0.002,0.067c-0.002,0.023 -0.006,0.04 -0.008,0.06c-0.00385,0.03844 -0.01053,0.07654 -0.02,0.114c-0.03557,0.14276 -0.09327,0.27908 -0.171,0.404c-0.153,0.24 -0.328,0.382 -0.473,0.505c-0.151,0.118 -0.281,0.211 -0.374,0.301c-0.08115,0.06882 -0.14489,0.15586 -0.186,0.254c-0.01746,0.04301 -0.0276,0.08864 -0.03,0.135l-0.002,0.022v0.004c0,0.007 -0.002,-0.026 0,-0.008v0.015l0.006,0.061c0.005,0.022 0,0.031 0.007,0.059c0.02184,0.10015 0.0722,0.19184 0.145,0.264c0.0941,0.09296 0.19691,0.17668 0.307,0.25c0.12922,0.08209 0.25406,0.17087 0.374,0.266c0.13064,0.10128 0.24236,0.22484 0.33,0.365c0.15755,0.27022 0.19142,0.5951 0.093,0.892c-0.048,0.133 -0.117,0.249 -0.194,0.341c-0.158,0.183 -0.329,0.301 -0.467,0.415c-0.12662,0.09154 -0.24207,0.19759 -0.344,0.316c-0.07589,0.08798 -0.13397,0.18987 -0.171,0.3c-0.01145,0.04015 -0.0208,0.08087 -0.028,0.122c-0.004,0.037 -0.008,0.068 -0.008,0.094c0,0.047 -0.003,0.077 -0.003,0.077c0,0 -0.002,-0.027 -0.01,-0.077c-0.003,-0.026 -0.003,-0.057 -0.005,-0.094c0.002,-0.039 0.002,-0.085 0.009,-0.133c0.02283,-0.12233 0.06828,-0.23933 0.134,-0.345c0.076,-0.129 0.186,-0.256 0.311,-0.389c0.125,-0.133 0.27,-0.278 0.372,-0.443c0.05115,-0.08317 0.08768,-0.17449 0.108,-0.27c0.01431,-0.09842 0.00887,-0.1987 -0.016,-0.295c-0.045,-0.205 -0.172,-0.349 -0.39,-0.474c-0.108,-0.063 -0.229,-0.118 -0.368,-0.188c-0.138,-0.065 -0.287,-0.142 -0.441,-0.258c-0.075,-0.056 -0.151,-0.128 -0.218,-0.218c-0.071,-0.085 -0.131,-0.184 -0.171,-0.29c-0.026,-0.053 -0.041,-0.123 -0.058,-0.18l-0.01,-0.061l-0.01,-0.011c0.005,0.011 -0.002,-0.026 -0.002,-0.026v-0.013l-0.006,-0.042c-0.011,-0.111 -0.011,-0.236 0.008,-0.356c0.02321,-0.122 0.06256,-0.24038 0.117,-0.352c0.05147,-0.10397 0.11382,-0.20218 0.186,-0.293c0.134,-0.166 0.268,-0.299 0.378,-0.421c0.115,-0.125 0.201,-0.234 0.229,-0.317c0.01432,-0.03446 0.02048,-0.07176 0.018,-0.109c0.004,-0.009 0,-0.022 0,-0.027c-0.003,-0.004 0,-0.012 -0.003,-0.012h-0.004v-0.01l-0.004,-0.028l-0.004,-0.033l-0.003,-0.02c0,-0.006 0.003,0.044 0.003,0.02l-0.003,-0.002c-0.015,-0.044 -0.026,-0.072 -0.047,-0.094c-0.0227,-0.02472 -0.04745,-0.04747 -0.074,-0.068c-0.065,-0.05 -0.188,-0.116 -0.356,-0.196c-0.026,-0.013 -0.061,-0.027 -0.089,-0.042c0,0 -1.387,-0.529 -1.467,-0.863l-0.045,-0.223l-0.02,-0.11l-0.005,-0.03c0.003,0.009 -0.004,-0.026 -0.004,-0.026l-0.002,-0.017l-0.007,-0.062c-0.017,-0.163 -0.038,-0.325 -0.038,-0.5v-0.017c0.00039,0.06789 -0.00395,0.13572 -0.013,0.203c-0.01543,0.10663 -0.04019,0.2117 -0.074,0.314c-0.069,0.203 -0.177,0.385 -0.283,0.523c-0.089,0.113 -0.177,0.205 -0.262,0.282l-0.051,0.048c-0.1,0.085 -0.186,0.153 -0.262,0.211c-0.09544,0.07204 -0.18722,0.1488 -0.275,0.23c-0.015,0.015 -0.023,0.015 -0.03,0.024c-0.006,0.002 -0.008,0.007 -0.013,0.02c-0.004,0.004 -0.004,0.013 -0.006,0.017c0.002,0.031 -0.007,-0.035 -0.007,-0.026v0.009l0.005,0.017l0.002,0.04l0.002,0.017c-0.00021,-0.00152 -0.00091,-0.00292 -0.002,-0.004c0,-0.005 0,-0.005 -0.002,-0.005c-0.006,-0.008 -0.005,0 -0.006,0v0.024c0,0.018 0.01,0.042 0.04,0.079c0.054,0.072 0.188,0.168 0.353,0.28c0.02301,0.01763 0.04743,0.03335 0.073,0.047c0.002,0.005 0.004,0.01 0.009,0.01c0.021,0.017 0.047,0.03 0.074,0.048c0.004,0.001 0.006,0.008 0.01,0.011c0.023,0.017 0.05,0.036 0.073,0.056c0.003,0.003 0.007,0.003 0.014,0.007c0.038,0.03 0.077,0.065 0.12,0.098c0.009,0.009 0.024,0.018 0.033,0.029c0.013,0.011 0.022,0.021 0.034,0.028c0.011,0.018 0.029,0.028 0.039,0.042c0.0095,0.00746 0.01792,0.01621 0.025,0.026c0.0244,0.02294 0.04776,0.04696 0.07,0.072c0.10473,0.11925 0.18888,0.25511 0.249,0.402c0.0599,0.14243 0.09572,0.29383 0.106,0.448l0.002,0.046v0.094l-0.002,0.07l-0.004,0.063l-0.007,0.057c-0.009,0.039 -0.015,0.079 -0.024,0.114c-0.03582,0.14315 -0.09314,0.28004 -0.17,0.406c-0.154,0.238 -0.327,0.383 -0.474,0.503c-0.149,0.122 -0.279,0.218 -0.376,0.308c-0.07933,0.06653 -0.14286,0.14988 -0.186,0.244c-0.013,0.042 -0.023,0.088 -0.023,0.142l-0.003,0.018v0.004c0,0.005 -0.006,-0.026 -0.002,-0.008l0.002,0.017l0.003,0.059c0.004,0.026 0,0.033 0.006,0.061c0.02415,0.09927 0.07418,0.19036 0.145,0.264c0.09523,0.09332 0.19939,0.17706 0.311,0.25c0.117,0.083 0.249,0.164 0.37,0.264c0.1297,0.10385 0.24123,0.22855 0.33,0.369c0.08403,0.13862 0.13374,0.2953 0.145,0.457c0.02735,0.28079 -0.06156,0.56052 -0.246,0.774c-0.158,0.183 -0.325,0.302 -0.465,0.412c-0.143,0.112 -0.261,0.215 -0.347,0.32c-0.07642,0.0863 -0.13429,0.1874 -0.17,0.297c-0.012,0.046 -0.023,0.087 -0.03,0.122c-0.002,0.04 -0.006,0.068 -0.006,0.094v0.077c-0.01329,-0.05598 -0.01901,-0.1135 -0.017,-0.171c0,-0.039 0,-0.081 0.01,-0.133c0.02258,-0.1224 0.06804,-0.23945 0.134,-0.345c0.09083,-0.13889 0.19426,-0.2691 0.309,-0.389c0.124,-0.131 0.266,-0.274 0.372,-0.444c0.0524,-0.07994 0.0878,-0.1698 0.104,-0.264c0.0185,-0.09782 0.01543,-0.19849 -0.009,-0.295c-0.047,-0.207 -0.179,-0.354 -0.391,-0.477c-0.108,-0.061 -0.236,-0.12 -0.368,-0.187c-0.138,-0.066 -0.289,-0.143 -0.44,-0.26c-0.078,-0.062 -0.153,-0.132 -0.223,-0.22c-0.067,-0.08 -0.13,-0.183 -0.171,-0.29c-0.021,-0.045 -0.039,-0.118 -0.054,-0.175l-0.013,-0.063l-0.004,-0.015c0,0.016 -0.002,-0.024 -0.002,-0.024l-0.002,-0.013l-0.005,-0.04c-0.01815,-0.11819 -0.01578,-0.23862 0.007,-0.356c0.019,-0.124 0.063,-0.244 0.114,-0.354c0.054,-0.106 0.119,-0.201 0.184,-0.286c0.134,-0.171 0.273,-0.306 0.383,-0.426c0.09328,-0.09263 0.17006,-0.20051 0.227,-0.319c0.0123,-0.03533 0.01806,-0.07261 0.017,-0.11c0.002,-0.008 0,-0.017 0,-0.026v-0.011c-0.004,0 -0.004,-0.002 -0.004,-0.002v-0.002l-0.003,-0.031l-0.006,-0.037l-0.002,-0.015c-0.002,-0.011 0.002,0.037 0,0.017l-0.002,-0.006c-0.0085,-0.03363 -0.0242,-0.06502 -0.046,-0.092c-0.02316,-0.02425 -0.04788,-0.04697 -0.074,-0.068c-0.066,-0.048 -0.19,-0.115 -0.36,-0.192c-0.167,-0.083 -0.381,-0.175 -0.618,-0.369c-0.02767,-0.01915 -0.05316,-0.04129 -0.076,-0.066l-0.028,-0.026c-0.02,-0.015 -0.039,-0.033 -0.05,-0.05c-0.01123,-0.01149 -0.02191,-0.0235 -0.032,-0.036c-0.02635,-0.02358 -0.04955,-0.05047 -0.069,-0.08c-0.08925,-0.11097 -0.16138,-0.23467 -0.214,-0.367c-0.02094,-0.04343 -0.03704,-0.08904 -0.048,-0.136l-0.024,-0.081l-0.011,-0.061l-0.01,-0.037l-0.007,-0.018v-0.01l-0.006,-0.044c-0.005,-0.046 -0.011,-0.087 -0.013,-0.133c-0.007,-0.09 -0.007,-0.184 0.007,-0.28c0.001,-0.033 0.006,-0.063 0.01,-0.096c0.002,-0.009 0.002,-0.018 0.007,-0.026c0.004,-0.029 0.017,-0.059 0.017,-0.092c0.067,-0.116 0.075,-0.232 0.125,-0.334c0.085,-0.162 0.182,-0.297 0.273,-0.407c0.07962,-0.09749 0.16406,-0.19094 0.253,-0.28c0.146,-0.155 0.25,-0.277 0.27,-0.341c0.008,-0.025 0.002,-0.032 -0.005,-0.025l-0.026,0.01c0,-0.002 0,0 -0.004,0.004v-0.01l-0.004,-0.018v-0.011c0,0.016 -0.005,-0.05 0.004,0.033h-0.004c-0.005,-0.004 -0.007,-0.007 -0.009,0c-0.002,0 -0.004,0.005 -0.004,0.015c-0.002,0.018 0.004,0.037 -0.007,0.035c-0.015,0 -0.043,-0.022 -0.1,-0.048l-0.22,-0.105c-0.093,-0.046 -0.799,-0.057 -0.715,0.153c0.04697,0.15286 0.08438,0.30849 0.112,0.466l0.007,0.072c0.006,0.087 0.002,0.03 0.002,0.052v0.031c0,0.011 0.002,0.205 -0.013,0.302c-0.03323,0.2258 -0.10962,0.44308 -0.225,0.64l-0.002,0.008c-0.022,0.029 -0.039,0.064 -0.06,0.094c-0.003,0.005 -0.005,0.007 -0.007,0.013l-0.063,0.083c-0.11,0.138 -0.218,0.245 -0.315,0.33c-0.097,0.085 -0.186,0.153 -0.262,0.215c-0.151,0.113 -0.246,0.198 -0.274,0.225c-0.015,0.017 -0.023,0.017 -0.033,0.024c-0.00561,0.0065 -0.01001,0.01395 -0.013,0.022c0,0.006 -0.002,0.013 -0.004,0.015c0.004,0.033 -0.004,-0.035 -0.002,-0.024v0.011l0.002,0.015l0.002,0.039v0.018v-0.004c0,-0.005 -0.002,-0.005 -0.002,-0.007c-0.006,-0.008 -0.002,0 -0.004,0.002c-0.002,0.011 -0.002,0.018 -0.002,0.024c0.00449,0.02817 0.0162,0.0547 0.034,0.077c0.01043,0.00966 0.01981,0.02038 0.028,0.032c0.003,0 0.009,0.003 0.009,0.005c0.00913,0.00962 0.01918,0.01833 0.03,0.026c0,0.002 0.002,0.007 0.005,0.007c0.006,0.008 0.021,0.019 0.036,0.032c0,0 0.002,0 0.002,0.003c0.0168,0.01215 0.03347,0.02448 0.05,0.037c0.041,0.032 0.091,0.065 0.143,0.102c0.01663,0.01366 0.03474,0.0254 0.054,0.035c0.164,0.117 0.374,0.249 0.57,0.477c0.10474,0.11816 0.19013,0.25215 0.253,0.397c0.05849,0.14289 0.09425,0.29405 0.106,0.448l0.005,0.05v0.097l-0.005,0.065l-0.005,0.063c-0.001,0.025 -0.008,0.042 -0.01,0.06c-0.00298,0.03839 -0.01036,0.0763 -0.022,0.113c-0.03199,0.14487 -0.08992,0.28276 -0.171,0.407c-0.15,0.236 -0.323,0.384 -0.47,0.502c-0.147,0.121 -0.279,0.217 -0.374,0.309c-0.0805,0.0646 -0.14429,0.14759 -0.186,0.242c-0.01736,0.04608 -0.02683,0.09477 -0.028,0.144l-0.002,0.02v0.002c0,0.005 -0.003,-0.024 0,-0.011v0.016l0.004,0.062c0.004,0.023 0,0.034 0.006,0.06c0.02088,0.10089 0.0726,0.19279 0.148,0.263c0.09345,0.09489 0.19746,0.17877 0.31,0.25c0.12,0.083 0.245,0.169 0.37,0.267c0.13042,0.10201 0.2418,0.22625 0.329,0.367c0.08373,0.13948 0.13341,0.29673 0.145,0.459c0.01,0.14 -0.003,0.299 -0.05,0.433c-0.048,0.133 -0.121,0.247 -0.199,0.338c-0.156,0.186 -0.324,0.302 -0.463,0.413c-0.142,0.114 -0.261,0.215 -0.35,0.319c-0.07497,0.08899 -0.1308,0.19248 -0.164,0.304c-0.01383,0.0384 -0.02454,0.07787 -0.032,0.118c0,0.035 -0.005,0.07 -0.005,0.094v0.074c-0.00617,-0.02442 -0.01117,-0.04911 -0.015,-0.074l-0.004,-0.094c0.002,-0.037 0.002,-0.081 0.013,-0.131c0.01906,-0.12228 0.06223,-0.23955 0.127,-0.345c0.076,-0.129 0.19,-0.256 0.314,-0.389c0.125,-0.134 0.27,-0.274 0.371,-0.444c0.05176,-0.0812 0.08772,-0.17145 0.106,-0.266c0.018,-0.097 0.011,-0.188 -0.011,-0.298c-0.047,-0.205 -0.177,-0.351 -0.39,-0.474c-0.109,-0.061 -0.234,-0.122 -0.37,-0.185c-0.136,-0.07 -0.288,-0.143 -0.442,-0.263c-0.073,-0.059 -0.148,-0.131 -0.22,-0.214c-0.067,-0.089 -0.129,-0.188 -0.168,-0.295c-0.024,-0.047 -0.041,-0.122 -0.056,-0.177l-0.013,-0.061l-0.007,-0.015c0.004,0.013 -0.002,-0.022 -0.002,-0.022v-0.013l-0.006,-0.044c-0.02978,-0.24297 0.01302,-0.48931 0.123,-0.708c0.05413,-0.10181 0.11633,-0.19912 0.186,-0.291c0.131,-0.166 0.27,-0.299 0.38,-0.421c0.112,-0.121 0.196,-0.236 0.226,-0.322c0.01544,-0.03239 0.02233,-0.06819 0.02,-0.104c0.003,-0.011 0,-0.02 0,-0.027c-0.002,-0.006 0,-0.011 -0.002,-0.013l-0.004,-0.004v-0.003l-0.007,-0.03l-0.004,-0.035l-0.002,-0.017c0,-0.009 0.002,0.039 0.002,0.017l-0.002,-0.004c-0.008,-0.044 -0.028,-0.068 -0.048,-0.09c-0.01931,-0.02682 -0.04337,-0.04987 -0.071,-0.068c-0.067,-0.052 -0.192,-0.115 -0.359,-0.194c-0.166,-0.085 -0.38,-0.175 -0.62,-0.365c-0.119,-0.098 -0.239,-0.225 -0.339,-0.38c-0.05,-0.077 -0.093,-0.16 -0.128,-0.248c-0.00887,-0.01895 -0.01461,-0.03921 -0.017,-0.06h0.002c0,-0.009 -0.011,-0.02 -0.015,-0.027c0,-0.004 -0.007,-0.006 -0.007,-0.011c-0.006,-0.013 -0.008,-0.026 -0.015,-0.041l-0.021,-0.079l-0.013,-0.061l-0.009,-0.037l-0.006,-0.022l-0.003,-0.006c0,0.003 -0.006,-0.066 -0.002,-0.047c-0.004,-0.04 -0.008,-0.082 -0.017,-0.13c-0.00488,-0.09447 -0.0012,-0.18919 0.011,-0.283c0.02343,-0.23021 0.09717,-0.45245 0.216,-0.651c0.004,-0.012 0.013,-0.019 0.021,-0.032c0.011,-0.024 0.029,-0.046 0.039,-0.066c0.0247,-0.03838 0.0514,-0.07543 0.08,-0.111c0.024,-0.035 0.048,-0.064 0.072,-0.094c0.09,-0.11 0.177,-0.201 0.25,-0.278c0.15,-0.153 0.253,-0.277 0.275,-0.337c0.011,-0.03 0.002,-0.036 -0.007,-0.03l-0.023,0.013c0,-0.005 -0.003,0 -0.007,0.005v-0.014l-0.002,-0.017l-0.002,-0.013c0.002,0.017 -0.005,-0.046 0.004,0.03h-0.009c-0.002,0 -0.004,0.009 -0.006,0.023c0,0.012 0.004,0.032 -0.009,0.03c-0.01,-0.003 -0.041,-0.018 -0.095,-0.043l-0.222,-0.11c-0.095,-0.043 -0.208,-0.098 -0.333,-0.173c-0.128,-0.076 -0.27,-0.174 -0.422,-0.321c-0.151,-0.138 -0.296,-0.334 -0.401,-0.551c-0.029,-0.054 -0.048,-0.109 -0.07,-0.166l-0.013,-0.041l-0.011,-0.02l-0.006,-0.026c-0.008,-0.035 -0.022,-0.072 -0.028,-0.105l-0.033,-0.135l-0.008,-0.04l-0.013,-0.085l-0.002,-0.041c-0.02716,-0.23618 -0.00952,-0.47536 0.052,-0.705c0.05886,-0.21954 0.15128,-0.42868 0.274,-0.62c0.09822,-0.13934 0.2044,-0.27289 0.318,-0.4c0.021,-0.021 0.04,-0.045 0.06,-0.065c-0.095,-0.046 -0.203,-0.101 -0.335,-0.186c-0.136,-0.085 -0.292,-0.192 -0.452,-0.347c-0.16,-0.155 -0.324,-0.363 -0.44,-0.599c-0.028,-0.059 -0.057,-0.113 -0.078,-0.173l5.537,-4.72l-1.098,-2.604l1.13,-1.95l-0.043,-0.048l-0.097,-0.118c-0.03,-0.035 -0.065,-0.074 -0.097,-0.12c-0.072,-0.087 -0.14,-0.175 -0.21,-0.275c-0.034,-0.053 -0.069,-0.101 -0.104,-0.153l-0.096,-0.166c-0.068,-0.105 -0.126,-0.221 -0.18,-0.339c-0.061,-0.118 -0.098,-0.236 -0.143,-0.356c-0.048,-0.116 -0.078,-0.251 -0.114,-0.385c-0.02,-0.063 -0.037,-0.135 -0.05,-0.198l-0.026,-0.14l-0.026,-0.14l-0.015,-0.068c-0.00166,-0.02282 -0.00466,-0.04553 -0.009,-0.068l-0.002,-0.022l-0.007,-0.044c-0.07553,-0.56397 -0.04534,-1.13708 0.089,-1.69l0.052,-0.19c0.03591,-0.11791 0.0756,-0.23464 0.119,-0.35l0.067,-0.158l0.03,-0.076l0.03,-0.075l0.113,-0.264c0.138,-0.323 0.199,-0.52 0.216,-0.741c-0.00015,-0.05606 0.00185,-0.1121 0.006,-0.168c-0.002,-0.05 -0.006,-0.094 -0.006,-0.14v-0.015c0,-0.007 0.002,-0.007 0,-0.024l-0.009,-0.068l-0.013,-0.138l-0.017,-0.137c-0.004,-0.053 0.004,0.052 0.002,0.037l-0.002,-0.013l-0.004,-0.024l-0.009,-0.048c-0.017,-0.064 -0.024,-0.134 -0.041,-0.189c-0.02,-0.056 -0.037,-0.11 -0.052,-0.17c-0.022,-0.05 -0.043,-0.098 -0.06,-0.148c-0.022,-0.048 -0.05,-0.09 -0.072,-0.136c-0.024,-0.043 -0.056,-0.083 -0.082,-0.131l-0.104,-0.138l-0.067,-0.08c-0.021,-0.029 -0.041,-0.055 -0.071,-0.085c-0.054,-0.068 -0.11,-0.132 -0.166,-0.2l-0.095,-0.11l-0.1,-0.13c-0.034,-0.046 -0.067,-0.085 -0.104,-0.131l-0.106,-0.151c-0.066,-0.098 -0.134,-0.211 -0.196,-0.321c-0.069,-0.109 -0.119,-0.234 -0.177,-0.347c-0.059,-0.118 -0.1,-0.237 -0.145,-0.357c-0.022,-0.063 -0.043,-0.118 -0.063,-0.181l-0.054,-0.201l-0.048,-0.201l-0.012,-0.05l-0.007,-0.024l-0.002,-0.016l-0.013,-0.063c-0.013,-0.086 -0.033,-0.17 -0.048,-0.256l-0.002,-0.017c-0.00479,-0.02549 -0.00846,-0.05118 -0.011,-0.077l-0.004,-0.043l-0.013,-0.086l-0.013,-0.172l-0.015,-0.168l-0.004,-0.18v-0.183c0,-0.061 -0.002,-0.12 0.004,-0.184c0.013,-0.122 0.019,-0.249 0.031,-0.376c0.0432,-0.24709 0.09793,-0.49202 0.164,-0.734l0.114,-0.33l0.119,-0.288c0.03402,-0.08355 0.06936,-0.16656 0.106,-0.249l0.043,-0.099l0.02,-0.05l0.012,-0.026l0.009,-0.02l0.03,-0.083c0.009,-0.028 0.024,-0.059 0.028,-0.081l0.022,-0.067c0.007,-0.018 0.015,-0.042 0.015,-0.062c0.009,-0.038 0.02,-0.076 0.026,-0.118c0.00233,-0.03588 0.00667,-0.0716 0.013,-0.107c0,-0.074 0.007,-0.161 -0.002,-0.205v-0.061l-0.009,-0.057c-0.008,-0.077 -0.013,-0.155 -0.021,-0.227l-0.009,-0.059v-0.013c-0.004,-0.066 0.004,0.072 0.002,0.054l-0.002,-0.015l-0.013,-0.07c-0.013,-0.044 -0.022,-0.092 -0.03,-0.136c-0.05,-0.161 -0.102,-0.29 -0.164,-0.393c-0.065,-0.103 -0.154,-0.212 -0.312,-0.395c-0.151,-0.186 -0.377,-0.44 -0.597,-0.773c-0.027,-0.04 -0.051,-0.084 -0.08,-0.13c-0.05295,-0.08551 -0.10396,-0.17219 -0.153,-0.26c-0.023,-0.045 -0.043,-0.094 -0.067,-0.135c-0.041,-0.094 -0.088,-0.186 -0.125,-0.278c-0.039,-0.089 -0.069,-0.183 -0.106,-0.273l-0.046,-0.143c-0.012,-0.045 -0.027,-0.095 -0.04,-0.15c-0.033,-0.105 -0.05,-0.203 -0.078,-0.306l-0.017,-0.076l-0.003,-0.018l-0.002,-0.006l-0.006,-0.024c-0.007,-0.033 -0.011,-0.062 -0.015,-0.088c-0.015,-0.061 -0.022,-0.116 -0.033,-0.172l-0.008,-0.046l-0.005,-0.02l-0.011,-0.09l-0.002,-0.013c-0.004,-0.044 -0.006,-0.084 -0.013,-0.124l-0.023,-0.238c-0.003,-0.044 -0.009,-0.083 -0.009,-0.118c-0.002,-0.044 -0.002,-0.087 -0.002,-0.127l-0.002,-0.249v-0.125l0.006,-0.127c0.01013,-0.08412 0.01814,-0.16848 0.024,-0.253c0.007,-0.083 0.021,-0.169 0.037,-0.249c0.017,-0.085 0.03,-0.164 0.045,-0.247c0.018,-0.077 0.038,-0.155 0.058,-0.234l0.065,-0.223c0.026,-0.067 0.048,-0.137 0.072,-0.203c0.012,-0.03 0.023,-0.066 0.036,-0.1c0.011,-0.033 0.024,-0.058 0.033,-0.088c0.0227,-0.0564 0.04637,-0.11241 0.071,-0.168c0.006,-0.027 0.021,-0.05 0.031,-0.077l0.03,-0.068l0.103,-0.24c0.054,-0.129 0.086,-0.22 0.106,-0.29c-0.899,-0.767 -1.774,-1.421 -2.542,-1.847c-4.473,-2.456 -6.7,1.165 -10.696,-2.023c-0.663,-0.53 -1.9,-1.93 -1.9,-1.93c0,0 -1.501,1.532 -1.901,1.93c-4.492,4.444 -7.861,-0.745 -11.643,1.942c-0.18,0.127 -0.355,0.256 -0.532,0.389c-0.004,0.431 -0.013,0.942 -0.024,0.997l-0.027,0.177l-0.01,0.05c-0.00993,0.03209 -0.01762,0.06484 -0.023,0.098c-0.01974,0.07383 -0.03741,0.14819 -0.053,0.223c-0.03856,0.16793 -0.08868,0.33299 -0.15,0.494c-0.03,0.085 -0.057,0.173 -0.1,0.264c-0.039,0.092 -0.084,0.189 -0.13,0.289c-0.043,0.1 -0.099,0.193 -0.157,0.293l-0.087,0.15c-0.03,0.049 -0.06,0.093 -0.093,0.143c-0.028,0.045 -0.065,0.091 -0.095,0.144c-0.032,0.043 -0.065,0.083 -0.097,0.128c-0.03308,0.04229 -0.06476,0.08564 -0.095,0.13c-0.03,0.039 -0.065,0.073 -0.093,0.113c-0.093,0.118 -0.192,0.238 -0.298,0.37c-0.00771,0.01198 -0.01714,0.02277 -0.028,0.032l-0.022,0.034c-0.01467,0.02103 -0.03071,0.04107 -0.048,0.06c-0.013,0.02 -0.024,0.035 -0.034,0.057c-0.009,0.018 -0.026,0.033 -0.035,0.055c-0.0481,0.08038 -0.08701,0.16592 -0.116,0.255c-0.009,0.029 -0.016,0.057 -0.029,0.086c-0.00414,0.01436 -0.00682,0.0291 -0.008,0.044l-0.013,0.05c-0.007,0.034 -0.013,0.069 -0.022,0.104l-0.013,0.055v0.007l0.005,-0.066l-0.003,0.024l-0.004,0.043c-0.004,0.06 -0.013,0.121 -0.02,0.18l-0.01,0.094l-0.002,0.02c0,0.007 -0.003,0.017 -0.003,0.017l0.003,0.015c0,0.022 -0.003,0.039 -0.003,0.059l-0.001,0.033v0.134c0.001,0.026 0.006,0.052 0.01,0.08l0.003,0.042l0.01,0.048l0.009,0.044c0.004,0.015 0.004,0.028 0.011,0.05c0.03,0.127 0.11,0.315 0.231,0.607c0.16022,0.36483 0.2861,0.74381 0.376,1.132c0.09182,0.44038 0.12678,0.89072 0.104,1.34c-0.007,0.105 -0.02,0.207 -0.028,0.312c-0.005,0.053 -0.009,0.103 -0.009,0.155l-0.009,0.042c-0.00484,0.02674 -0.00751,0.05383 -0.008,0.081l-0.003,0.012l-0.013,0.06c-0.01204,0.07774 -0.02638,0.15511 -0.043,0.232l-0.008,0.058l-0.02,0.09c-0.015,0.064 -0.03,0.125 -0.047,0.188c-0.057,0.258 -0.141,0.472 -0.223,0.699c-0.05,0.112 -0.104,0.223 -0.156,0.335c-0.054,0.111 -0.117,0.214 -0.177,0.317c-0.03,0.058 -0.063,0.1 -0.097,0.148l-0.093,0.144c-0.032,0.053 -0.065,0.088 -0.098,0.134l-0.09,0.122l-0.026,0.033l-0.019,0.026l-0.044,0.052l-0.086,0.107c-0.05,0.06 -0.1,0.12 -0.147,0.18c-0.177,0.218 -0.262,0.343 -0.344,0.511c-0.015,0.043 -0.034,0.085 -0.052,0.133c-0.01117,0.02274 -0.01892,0.047 -0.023,0.072l-0.024,0.077c-0.006,0.026 -0.02,0.052 -0.026,0.08l-0.015,0.09l-0.018,0.09l-0.01,0.044l-0.005,0.022c-0.002,0.017 0.007,-0.101 0.002,-0.044l-0.002,0.017c-0.006,0.09 -0.019,0.177 -0.026,0.265l-0.006,0.067l-0.004,0.016v0.084c-0.003,0.02 -0.007,0.041 -0.007,0.063c-0.00185,0.02507 -0.0005,0.05027 0.004,0.075c0.003,0.05 -0.004,0.105 0.009,0.153c0.024,0.198 0.076,0.386 0.212,0.708c0.034,0.087 0.071,0.174 0.108,0.262l0.061,0.152l0.06,0.16c0.0442,0.11643 0.08389,0.23452 0.119,0.354c0.034,0.129 0.071,0.253 0.1,0.383c0.023,0.133 0.049,0.265 0.06,0.395c0.01349,0.13034 0.02283,0.26107 0.028,0.392c0,0.128 0,0.253 -0.003,0.38c-0.004,0.126 -0.02,0.242 -0.03,0.364l-0.006,0.09l-0.007,0.046l-0.004,0.02c-0.00316,0.02456 -0.00516,0.04925 -0.006,0.074l-0.026,0.135l-0.026,0.145l-0.014,0.07c-0.001,0.008 -0.008,0.028 -0.01,0.045l-0.011,0.055c-0.032,0.133 -0.067,0.275 -0.104,0.407c-0.045,0.124 -0.09,0.249 -0.136,0.371c-0.049,0.122 -0.108,0.243 -0.168,0.367c-0.063,0.112 -0.13,0.232 -0.197,0.336l-0.106,0.16l-0.051,0.079l-0.05,0.07l-0.108,0.135c-0.035,0.048 -0.063,0.085 -0.1,0.125l-0.175,0.223l-0.045,0.05l-0.035,0.048l-0.073,0.092c-0.02218,0.02534 -0.04132,0.0532 -0.057,0.083l0.753,3.091l-0.459,2l-0.013,0.123l-0.017,0.174l-0.011,0.09c-0.008,0.079 -0.004,0.031 -0.006,0.052l-0.005,0.02l-0.004,0.036l-0.052,0.29l-0.006,0.017l-0.007,0.027l-0.008,0.045l-0.022,0.094l-0.052,0.193c-0.008,0.03 -0.015,0.063 -0.028,0.094l-0.028,0.085l-0.063,0.177l-0.034,0.083l-0.028,0.063l-0.327,1.432l0.819,4.966c0,0 3.523,6.906 3.406,7c-0.24,0.192 -0.451,0.286 -0.62,0.367c-0.166,0.081 -0.291,0.146 -0.356,0.196c-0.02802,0.01872 -0.05298,0.04166 -0.074,0.068c-0.02338,0.02607 -0.03957,0.05778 -0.047,0.092l-0.003,0.004c-0.002,0.022 0.003,-0.025 0.003,-0.015l-0.003,0.013l-0.006,0.037l-0.004,0.033l-0.002,0.005c-0.005,0 0,0.006 -0.005,0.01c0,0.009 -0.002,0.017 0,0.027c-0.00109,0.03637 0.00573,0.07253 0.02,0.106c0.05549,0.11963 0.13243,0.22809 0.227,0.32c0.11,0.12 0.248,0.253 0.38,0.428c0.07122,0.0886 0.13289,0.18446 0.184,0.286c0.05791,0.11072 0.09679,0.23039 0.115,0.354c0.02158,0.11678 0.02495,0.23619 0.01,0.354l-0.006,0.044v0.011l-0.005,0.022l-0.005,0.017l-0.01,0.059c-0.017,0.059 -0.034,0.131 -0.057,0.179c-0.042,0.105 -0.1,0.21 -0.17,0.293c-0.069,0.083 -0.145,0.155 -0.22,0.217c-0.153,0.118 -0.307,0.192 -0.443,0.26c-0.134,0.065 -0.26,0.122 -0.368,0.187c-0.216,0.122 -0.346,0.269 -0.393,0.472c-0.02225,0.0968 -0.02531,0.19702 -0.009,0.295c0.01817,0.09552 0.05413,0.18677 0.106,0.269c0.104,0.171 0.247,0.313 0.37,0.443c0.11831,0.11762 0.22266,0.24848 0.311,0.39c0.06784,0.10367 0.11284,0.2206 0.132,0.343c0.011,0.055 0.011,0.096 0.013,0.135c-0.002,0.038 -0.002,0.068 -0.007,0.094l-0.008,0.077l-0.003,-0.079c0,-0.024 -0.006,-0.054 -0.008,-0.092c-0.007,-0.034 -0.013,-0.076 -0.03,-0.124c-0.03505,-0.10926 -0.09186,-0.21029 -0.167,-0.297c-0.086,-0.105 -0.207,-0.206 -0.344,-0.317c-0.146,-0.116 -0.313,-0.23 -0.466,-0.413c-0.08,-0.094 -0.154,-0.206 -0.199,-0.343c-0.10043,-0.29668 -0.06647,-0.62241 0.093,-0.892c0.08943,-0.13938 0.20088,-0.26332 0.33,-0.367c0.126,-0.098 0.252,-0.181 0.372,-0.264c0.119,-0.082 0.229,-0.162 0.309,-0.252c0.07322,-0.07184 0.12366,-0.16366 0.145,-0.264c0.009,-0.026 0.002,-0.033 0.009,-0.059l0.004,-0.059v-0.015c0.004,-0.018 -0.002,0.013 0,0.008l-0.002,-0.006v-0.018c-0.00204,-0.04686 -0.01149,-0.0931 -0.028,-0.137c-0.031,-0.083 -0.086,-0.158 -0.186,-0.249c-0.095,-0.09 -0.224,-0.186 -0.374,-0.306c-0.145,-0.123 -0.322,-0.269 -0.471,-0.505c-0.076,-0.114 -0.139,-0.256 -0.173,-0.404c-0.011,-0.04 -0.015,-0.074 -0.022,-0.114c0,-0.02 -0.006,-0.035 -0.008,-0.057l-0.003,-0.068l-0.004,-0.065l-0.002,-0.042v-0.052l0.007,-0.05c0.006,-0.142 -4.39,-2.148 -4.39,-2.148c-0.078,0.039 -0.145,0.072 -0.195,0.102c-0.00318,0.2111 0.01357,0.42204 0.05,0.63c0.002,0.002 0.002,0.004 0.002,0.006l-0.162,-0.063c0.04552,0.06061 0.09391,0.119 0.145,0.175c0.11,0.122 0.251,0.255 0.378,0.421c0.07293,0.09029 0.13533,0.18859 0.186,0.293c0.11033,0.21859 0.1538,0.46484 0.125,0.708l-0.006,0.042l-0.002,0.013l-0.002,0.026l-0.003,0.011l-0.015,0.061c-0.015,0.057 -0.034,0.127 -0.052,0.178c-0.08232,0.2025 -0.21817,0.37879 -0.393,0.51c-0.153,0.116 -0.307,0.193 -0.44,0.258c-0.14,0.07 -0.26,0.125 -0.37,0.188c-0.217,0.124 -0.344,0.269 -0.389,0.474c-0.02557,0.09624 -0.03,0.19688 -0.013,0.295c0.0187,0.0949 0.05354,0.18588 0.103,0.269c0.106,0.166 0.252,0.311 0.372,0.443c0.11939,0.11716 0.22446,0.24808 0.313,0.39c0.06615,0.10526 0.111,0.22247 0.132,0.345c0.007,0.048 0.007,0.094 0.009,0.133l-0.004,0.094c-0.007,0.051 -0.009,0.077 -0.009,0.077v-0.077c0,-0.026 -0.009,-0.057 -0.013,-0.094c-0.00227,-0.04177 -0.01104,-0.08293 -0.026,-0.122c-0.0352,-0.10958 -0.0916,-0.21118 -0.166,-0.299c-0.088,-0.105 -0.208,-0.208 -0.348,-0.317c-0.143,-0.114 -0.309,-0.232 -0.467,-0.415c-0.18307,-0.21507 -0.27207,-0.49468 -0.247,-0.776c0.01292,-0.16152 0.06288,-0.3179 0.146,-0.457c0.086,-0.146 0.207,-0.265 0.33,-0.365c0.121,-0.1 0.251,-0.186 0.371,-0.266c0.12,-0.081 0.228,-0.164 0.31,-0.25c0.07109,-0.07304 0.12118,-0.16389 0.145,-0.263c0.004,-0.03 0.002,-0.038 0.008,-0.06l0.002,-0.061l0.003,-0.015c0,-0.018 -0.003,0.015 -0.003,0.008v-0.026c-0.002,-0.05 -0.012,-0.098 -0.032,-0.135c-0.03856,-0.0985 -0.10112,-0.18581 -0.182,-0.254c-0.095,-0.089 -0.224,-0.183 -0.376,-0.301c-0.142,-0.123 -0.32,-0.265 -0.471,-0.505c-0.078,-0.118 -0.136,-0.256 -0.168,-0.404c-0.013,-0.04 -0.018,-0.079 -0.026,-0.114l-0.007,-0.059l-0.006,-0.068l-0.002,-0.065v-0.093l0.002,-0.05c0.01158,-0.15462 0.04734,-0.30647 0.106,-0.45c0.013,-0.024 0.023,-0.05 0.037,-0.076l-1.14,-0.298c0.00739,0.16628 0.03595,0.33094 0.085,0.49l-0.707,-0.281c-0.026,-0.127 -0.041,-0.256 -0.054,-0.39l-0.295,-0.275c-0.00496,0.01044 -0.00833,0.02156 -0.01,0.033l-0.004,0.004c0,0.024 0.004,-0.026 0.004,-0.017l-0.004,0.015l-0.005,0.037l-0.006,0.029v0.004c0,0.002 -0.002,0.002 -0.002,0.005v0.01l-0.003,0.026c-0.00102,0.03766 0.00579,0.07511 0.02,0.11c0.05589,0.11712 0.13207,0.22342 0.225,0.314c0.11,0.125 0.248,0.259 0.382,0.429c0.06991,0.09065 0.13213,0.18699 0.186,0.288c0.05539,0.11089 0.09349,0.22959 0.113,0.352c0.02288,0.11797 0.0266,0.23885 0.011,0.358l-0.005,0.042l-0.002,0.011c-0.00152,0.00864 -0.00286,0.01731 -0.004,0.026l-0.005,0.015l-0.013,0.059c-0.015,0.055 -0.034,0.129 -0.056,0.177c-0.03851,0.1067 -0.09536,0.20586 -0.168,0.293c-0.06597,0.08016 -0.14078,0.15262 -0.223,0.216c-0.153,0.116 -0.303,0.193 -0.439,0.263c-0.14,0.065 -0.261,0.122 -0.367,0.185c-0.218,0.125 -0.346,0.269 -0.393,0.475c-0.02093,0.09687 -0.02599,0.1965 -0.015,0.295c0.02202,0.09467 0.05916,0.18516 0.11,0.268c0.101,0.166 0.246,0.308 0.371,0.444c0.11663,0.11829 0.22115,0.24793 0.312,0.387c0.0668,0.10555 0.11011,0.22424 0.127,0.348c0.013,0.047 0.013,0.093 0.015,0.13l-0.004,0.096c-0.011,0.051 -0.013,0.077 -0.013,0.077c-0.00012,-0.02568 -0.00078,-0.05135 -0.002,-0.077c0,-0.026 -0.005,-0.061 -0.007,-0.094c-0.011,-0.037 -0.013,-0.078 -0.026,-0.124c-0.028,-0.089 -0.082,-0.195 -0.173,-0.299c-0.084,-0.103 -0.205,-0.204 -0.345,-0.317c-0.139,-0.114 -0.305,-0.232 -0.462,-0.418c-0.08,-0.091 -0.152,-0.203 -0.2,-0.336c-0.04572,-0.1402 -0.06406,-0.28788 -0.054,-0.435c0.01468,-0.16203 0.06671,-0.31845 0.152,-0.457c0.082,-0.146 0.205,-0.265 0.328,-0.365c0.123,-0.1 0.25,-0.186 0.37,-0.266c0.11127,-0.07415 0.21539,-0.15852 0.311,-0.252c0.07268,-0.07195 0.12244,-0.16381 0.143,-0.264c0.008,-0.026 0.002,-0.035 0.008,-0.059l0.004,-0.061v-0.013c0.003,-0.022 0,0.011 0,0.008v-0.008l-0.002,-0.018c-0.001,-0.04698 -0.01049,-0.09339 -0.028,-0.137c-0.04177,-0.0972 -0.10542,-0.18344 -0.186,-0.252c-0.094,-0.089 -0.222,-0.183 -0.374,-0.306c-0.147,-0.12 -0.324,-0.262 -0.471,-0.5c-0.075,-0.118 -0.138,-0.26 -0.174,-0.409c-0.01,-0.035 -0.012,-0.071 -0.02,-0.111c-0.002,-0.018 -0.007,-0.039 -0.007,-0.055l-0.006,-0.07l-0.002,-0.067v-0.038l-0.003,-0.035v-0.017l0.005,-0.05c0,-0.026 0.006,-0.055 0.008,-0.079l-0.527,-0.315c0,-0.021 0,-0.041 0.002,-0.063l0.007,-0.098v-0.027c0.00111,-0.01164 0.00177,-0.02331 0.002,-0.035v-0.01l0.006,-0.057c0.009,-0.073 0.02,-0.149 0.028,-0.223l0.009,-0.057l0.013,-0.057l0.026,-0.116c0.011,-0.05 0.022,-0.103 0.037,-0.153l-0.635,-0.598c-0.13233,0.08054 -0.26923,0.15333 -0.41,0.218c-0.17,0.079 -0.293,0.144 -0.36,0.197c-0.02802,0.01872 -0.05298,0.04166 -0.074,0.068c-0.02123,0.02712 -0.03717,0.05799 -0.047,0.091v0.003c-0.004,0.026 0,-0.027 0,-0.018l-0.004,0.018l-0.005,0.035l-0.002,0.028c0,0.004 0,0.004 -0.002,0.004l-0.004,0.005v0.008c0,0.014 -0.003,0.022 -0.003,0.029c-0.00094,0.03817 0.00657,0.07607 0.022,0.111c0.028,0.083 0.115,0.195 0.227,0.317c0.106,0.12 0.244,0.254 0.378,0.425c0.07186,0.08997 0.13419,0.18716 0.186,0.29c0.05277,0.11056 0.09205,0.22706 0.117,0.347c0.02138,0.1199 0.0234,0.24246 0.006,0.363l-0.004,0.04l-0.002,0.01c0,0 -0.007,0.037 -0.002,0.029l-0.005,0.012l-0.015,0.06c-0.015,0.054 -0.03,0.127 -0.056,0.177c-0.039,0.109 -0.099,0.207 -0.169,0.293c-0.067,0.089 -0.144,0.159 -0.222,0.218c-0.154,0.114 -0.301,0.192 -0.439,0.258c-0.138,0.07 -0.261,0.124 -0.367,0.188c-0.216,0.124 -0.346,0.269 -0.392,0.474c-0.02407,0.09658 -0.0268,0.19725 -0.008,0.295c0.01445,0.09575 0.04886,0.1874 0.101,0.269c0.102,0.166 0.247,0.31 0.373,0.443c0.11656,0.11892 0.22045,0.24962 0.31,0.39c0.0938,0.14098 0.14358,0.30666 0.143,0.476c0,0.036 -0.002,0.07 -0.004,0.096c-0.011,0.05 -0.013,0.076 -0.013,0.076v-0.076c-0.00136,-0.07428 -0.01315,-0.148 -0.035,-0.219c-0.03609,-0.10901 -0.09316,-0.20991 -0.168,-0.297c-0.087,-0.105 -0.206,-0.207 -0.348,-0.316c-0.141,-0.114 -0.307,-0.232 -0.465,-0.42c-0.076,-0.09 -0.151,-0.203 -0.199,-0.337c-0.045,-0.133 -0.06,-0.29 -0.047,-0.435c0.00911,-0.16165 0.05862,-0.31843 0.144,-0.456c0.082,-0.147 0.208,-0.265 0.328,-0.365c0.124,-0.101 0.252,-0.186 0.37,-0.267c0.124,-0.081 0.232,-0.164 0.314,-0.251c0.0702,-0.07256 0.11869,-0.16331 0.14,-0.262c0.009,-0.029 0.002,-0.038 0.009,-0.059l0.004,-0.064l0.002,-0.015c0.005,-0.018 -0.002,0.013 -0.002,0.011v-0.026c-0.00152,-0.04744 -0.01169,-0.09421 -0.03,-0.138c-0.04126,-0.09668 -0.10422,-0.18256 -0.184,-0.251c-0.097,-0.09 -0.224,-0.184 -0.374,-0.304c-0.149,-0.123 -0.322,-0.263 -0.473,-0.503c-0.073,-0.118 -0.136,-0.257 -0.171,-0.404c-0.01,-0.039 -0.015,-0.074 -0.023,-0.114c-0.003,-0.019 -0.007,-0.036 -0.007,-0.056l-0.006,-0.07v-0.14l-0.005,-0.018l0.005,-0.05c0.01,-0.144 0.045,-0.3 0.108,-0.45c0.05973,-0.14505 0.14358,-0.27894 0.248,-0.396c0.201,-0.227 0.411,-0.36 0.575,-0.478c0.08764,-0.05485 0.17211,-0.11461 0.253,-0.179c0.045,-0.072 0.09,-0.14 0.13,-0.21l0.002,-0.037v-0.005h-0.002c0,0.009 -0.003,0.018 0,0.005c-0.003,-0.005 -0.005,-0.013 -0.005,-0.022c-0.004,-0.009 -0.006,-0.018 -0.013,-0.022c-0.006,-0.009 -0.015,-0.009 -0.032,-0.02c-0.028,-0.031 -0.123,-0.111 -0.276,-0.231c-0.074,-0.055 -0.16,-0.125 -0.26,-0.21c-0.032,-0.028 -0.065,-0.061 -0.102,-0.096l0.48,0.028l-1.26,-3.426l-0.002,0.017l-0.004,0.042l-0.005,0.031l-0.015,0.054l-0.026,0.112l-0.021,0.113l-0.044,0.138l-0.041,0.14l-0.023,0.07l-0.029,0.063c-0.034,0.081 -0.067,0.167 -0.11,0.247c-0.16,0.33 -0.393,0.605 -0.611,0.824c-0.214,0.22 -0.404,0.397 -0.554,0.585c-0.149,0.188 -0.253,0.392 -0.324,0.617l-0.028,0.083l-0.017,0.043l-0.008,0.042c-0.014,0.061 -0.025,0.12 -0.04,0.177l-0.008,0.045l-0.003,0.01c-0.002,0.008 0,-0.027 0,-0.005l-0.002,0.026l-0.017,0.099c-0.004,0.065 -0.013,0.135 -0.022,0.194c-0.01352,0.22059 0.0033,0.44199 0.05,0.658c0.05703,0.22328 0.13852,0.43959 0.243,0.645c0.1,0.214 0.217,0.434 0.3,0.674c0.025,0.058 0.036,0.121 0.058,0.18l0.026,0.09c0.007,0.028 0.011,0.063 0.017,0.093c0.01292,0.05975 0.02459,0.11976 0.035,0.18c0.00394,0.05942 0.00894,0.11876 0.015,0.178l0.008,0.09c0.003,0.033 0,0.06 0,0.09l-0.002,0.175c0,0.055 -0.013,0.111 -0.017,0.166c-0.006,0.054 -0.011,0.111 -0.019,0.164l-0.005,0.041l-0.002,0.02c-0.002,0.022 -0.002,0.008 -0.002,0.018l-0.002,0.008l-0.018,0.077c-0.008,0.05 -0.023,0.101 -0.032,0.151l-0.017,0.072c-0.00634,0.02495 -0.01368,0.04964 -0.022,0.074l-0.047,0.151c-0.011,0.026 -0.017,0.054 -0.027,0.076l-0.03,0.07c-0.01935,0.04592 -0.04002,0.09127 -0.062,0.136c-0.016,0.048 -0.046,0.085 -0.066,0.131c-0.025,0.039 -0.047,0.083 -0.07,0.124c-0.206,0.317 -0.454,0.549 -0.662,0.756c-0.205,0.205 -0.374,0.402 -0.495,0.595c-0.03,0.046 -0.056,0.098 -0.082,0.14c-0.03,0.047 -0.043,0.094 -0.065,0.137l-0.054,0.125c-0.017,0.042 -0.03,0.082 -0.041,0.122c-0.008,0.035 -0.024,0.07 -0.034,0.105c-0.01227,0.03099 -0.02132,0.06316 -0.027,0.096c-0.012,0.057 -0.02,0.107 -0.03,0.149c-0.019,0.076 -0.025,0.12 -0.025,0.12c0.00368,-0.04164 0.00701,-0.08331 0.01,-0.125c0.009,-0.039 0.015,-0.091 0.019,-0.15c0.00454,-0.03273 0.01123,-0.06514 0.02,-0.097c0.006,-0.039 0.016,-0.071 0.026,-0.111c0.007,-0.037 0.015,-0.083 0.028,-0.127c0.01594,-0.0438 0.03028,-0.08816 0.043,-0.133c0.02,-0.048 0.029,-0.098 0.057,-0.144c0.02093,-0.05353 0.04463,-0.10593 0.071,-0.157c0.12729,-0.23609 0.28021,-0.45742 0.456,-0.66c0.188,-0.23 0.404,-0.475 0.56,-0.776c0.015,-0.04 0.034,-0.076 0.051,-0.116c0.018,-0.038 0.04,-0.077 0.05,-0.118l0.044,-0.129l0.024,-0.059l0.01,-0.069c0.011,-0.04 0.02,-0.084 0.03,-0.13l0.016,-0.065l0.008,-0.075c0.005,-0.048 0.013,-0.1 0.02,-0.15l0.008,-0.076l0.002,-0.01v-0.057c0.024,-0.39 -0.027,-0.8 -0.207,-1.18c-0.089,-0.194 -0.21,-0.382 -0.335,-0.6c-0.125,-0.215 -0.26,-0.453 -0.35,-0.726c-0.091,-0.275 -0.136,-0.566 -0.145,-0.883l0.002,-0.205l0.007,-0.098v-0.025c0,0.011 0.004,-0.03 0.004,-0.03v-0.013l0.009,-0.059c0.006,-0.073 0.019,-0.147 0.028,-0.223l0.004,-0.053l0.015,-0.061l0.027,-0.113c0.01435,-0.07803 0.03441,-0.1549 0.06,-0.23c0.028,-0.074 0.052,-0.153 0.082,-0.227c0.039,-0.074 0.071,-0.149 0.104,-0.223l0.127,-0.215c0.177,-0.277 0.389,-0.506 0.562,-0.72c0.16261,-0.18703 0.29275,-0.39997 0.385,-0.63c0.023,-0.054 0.036,-0.111 0.056,-0.166l0.015,-0.045l0.009,-0.04l0.013,-0.081l0.021,-0.078l0.015,-0.114l0.013,-0.114l0.005,-0.054l0.008,-0.029c0,-0.013 -0.008,0.04 -0.006,0.01v-0.01c0.015,-0.264 -0.005,-0.507 -0.067,-0.733c-0.065,-0.226 -0.177,-0.436 -0.335,-0.7c-0.078,-0.129 -0.169,-0.278 -0.255,-0.442c-0.043,-0.083 -0.085,-0.172 -0.126,-0.26c-0.038,-0.096 -0.075,-0.19 -0.105,-0.288c-0.026,-0.098 -0.059,-0.201 -0.082,-0.304c-0.018,-0.102 -0.035,-0.205 -0.05,-0.312l-0.02,-0.335c-0.002,-0.061 0,-0.091 0.002,-0.133l0.005,-0.127l0.002,-0.061v-0.03l0.004,-0.018c-0.004,0.005 0.005,-0.072 0.002,-0.05l0.02,-0.149l0.017,-0.148l0.015,-0.075c0.00207,-0.02567 0.00642,-0.0511 0.013,-0.076c0.026,-0.101 0.048,-0.203 0.078,-0.306c0.032,-0.105 0.071,-0.205 0.106,-0.31c0.047,-0.096 0.093,-0.199 0.145,-0.295c0.054,-0.092 0.11,-0.19 0.168,-0.275l0.089,-0.13c0.016,-0.01923 0.03102,-0.03925 0.045,-0.06l0.046,-0.06l0.09,-0.113l0.085,-0.103l0.16,-0.19l0.037,-0.046l0.03,-0.042l0.065,-0.08l0.105,-0.156c0.02,-0.052 0.054,-0.098 0.076,-0.148l0.028,-0.072c0.01463,-0.02289 0.02481,-0.04834 0.03,-0.075l0.024,-0.078c0.01078,-0.02386 0.01818,-0.0491 0.022,-0.075c0.004,-0.045 0.014,-0.085 0.024,-0.131l0.032,-0.251v-0.048c0,-0.009 -0.011,-0.044 -0.011,0.026v-0.048l0.007,-0.092l0.017,-0.091l-0.013,-0.086c-0.006,-0.054 -0.009,-0.113 -0.022,-0.161c-0.013,-0.051 -0.016,-0.103 -0.036,-0.149c-0.057,-0.192 -0.162,-0.376 -0.338,-0.662l-0.067,-0.12c-0.023,-0.037 -0.045,-0.077 -0.071,-0.122c-0.052,-0.09 -0.099,-0.175 -0.147,-0.28l-0.071,-0.158c-0.024,-0.05 -0.043,-0.107 -0.065,-0.161c-0.02,-0.059 -0.043,-0.112 -0.06,-0.173l-0.05,-0.177c-0.033,-0.12 -0.052,-0.236 -0.069,-0.358l-0.013,-0.09l-0.009,-0.046l-0.002,-0.048l-0.013,-0.201l-0.004,-0.201l0.004,-0.123l0.002,-0.13l0.002,-0.062c0,0.005 0.011,-0.113 0.009,-0.071l0.002,-0.02l0.007,-0.046c0.04231,-0.47655 0.17644,-0.94041 0.395,-1.366c0.056,-0.112 0.123,-0.212 0.186,-0.317c0.032,-0.05 0.065,-0.092 0.101,-0.144c0.031,-0.042 0.063,-0.094 0.098,-0.136l0.095,-0.12l0.05,-0.061l0.043,-0.052l0.164,-0.192c0.022,-0.031 0.049,-0.066 0.069,-0.09l0.057,-0.075l0.03,-0.037c0.008,-0.011 0.013,-0.024 0.02,-0.035l0.04,-0.064c0.02,-0.021 0.026,-0.043 0.035,-0.06c0.012,-0.018 0.022,-0.037 0.032,-0.055c0.017,-0.037 0.028,-0.076 0.046,-0.111c0.00862,-0.0392 0.0193,-0.07792 0.032,-0.116c0.005,-0.035 0.005,-0.061 0.015,-0.088c0.002,-0.004 0.002,-0.013 0.004,-0.021l0.009,-0.062l0.015,-0.122l0.015,-0.122c0.009,-0.059 -0.01,0.063 -0.008,0.046v-0.028l-0.002,-0.04l0.002,-0.075c0,-0.024 0.002,-0.052 -0.003,-0.072c-0.006,-0.043 -0.008,-0.089 -0.01,-0.128c-0.0123,-0.03571 -0.02101,-0.07256 -0.026,-0.11c-0.011,-0.037 -0.027,-0.072 -0.037,-0.103c-0.013,-0.034 -0.035,-0.072 -0.045,-0.107l-0.067,-0.124c-0.054,-0.098 -0.122,-0.203 -0.212,-0.356l-0.065,-0.114c-0.022,-0.037 -0.048,-0.087 -0.073,-0.127c-0.026,-0.047 -0.048,-0.089 -0.072,-0.137l-0.071,-0.153c-0.024,-0.055 -0.05,-0.1 -0.074,-0.16l-0.064,-0.172c-0.042,-0.112 -0.074,-0.234 -0.106,-0.354c-0.032,-0.121 -0.052,-0.245 -0.072,-0.368c-0.008,-0.061 -0.019,-0.12 -0.026,-0.181c-0.003,-0.068 -0.01,-0.138 -0.013,-0.205c-0.002,-0.068 -0.004,-0.14 -0.004,-0.206v-0.15l0.004,-0.23v-0.015c-0.002,0.059 0.013,-0.092 0.013,-0.088l0.005,-0.037l0.008,-0.083l0.022,-0.16l0.026,-0.168l0.037,-0.168l0.045,-0.168l0.022,-0.086c0.004,-0.03 0.016,-0.055 0.026,-0.085c0.038,-0.116 0.077,-0.229 0.127,-0.341c0.05,-0.111 0.106,-0.223 0.16,-0.334c0.058,-0.098 0.121,-0.199 0.183,-0.297c0.061,-0.089 0.126,-0.179 0.19,-0.269c0.057,-0.074 0.12,-0.149 0.18,-0.223c0.04893,-0.0616 0.0986,-0.1226 0.149,-0.183l0.063,-0.072l0.03,-0.04c0.009,-0.013 0.022,-0.023 0.028,-0.033l0.044,-0.061l0.021,-0.026c0.009,-0.011 0.013,-0.022 0.02,-0.028c0.017,-0.031 0.041,-0.064 0.054,-0.09c0.00958,-0.02414 0.02095,-0.04754 0.034,-0.07c0.009,-0.024 0.013,-0.046 0.022,-0.068c0.011,-0.019 0.013,-0.046 0.019,-0.067l0.003,-0.018l0.002,-0.009l-0.002,-0.004v-0.015c0,-0.005 0,-0.009 0.002,-0.016l0.001,-0.004l0.01,-0.05l0.023,-0.199l0.007,-0.053l0.002,-0.013c0.009,-0.072 -0.013,0.086 -0.011,0.068v-0.013l-0.002,-0.05v-0.103c-0.0087,-0.08628 -0.02992,-0.17084 -0.063,-0.251c-0.034,-0.068 -0.086,-0.162 -0.198,-0.346c-0.031,-0.048 -0.059,-0.1 -0.087,-0.148l-0.052,-0.085l-0.056,-0.099c-0.035,-0.07 -0.075,-0.142 -0.115,-0.21c-0.036,-0.08 -0.075,-0.161 -0.112,-0.246l-0.03,-0.062l-0.026,-0.067c-0.015,-0.046 -0.032,-0.092 -0.052,-0.136c-0.015,-0.048 -0.032,-0.092 -0.048,-0.14c-0.015,-0.041 -0.028,-0.096 -0.041,-0.14c-0.026,-0.098 -0.051,-0.194 -0.073,-0.288l-0.05,-0.282c-0.004,-0.052 -0.011,-0.094 -0.018,-0.146c-0.003,-0.044 -0.003,-0.101 -0.01,-0.153c-0.006,-0.107 -0.009,-0.212 -0.011,-0.315c0,-0.124 0.002,-0.155 0.002,-0.212c0.003,-0.052 0.003,-0.105 0.007,-0.155l0.002,-0.039v-0.022l0.009,-0.099l0.002,-0.011c0.006,-0.043 0.009,-0.083 0.015,-0.12c0.01017,-0.07722 0.02184,-0.15423 0.035,-0.231c0.006,-0.037 0.01,-0.077 0.015,-0.114c0.01016,-0.03966 0.01883,-0.07969 0.026,-0.12l0.06,-0.238c0.011,-0.04 0.022,-0.079 0.03,-0.118c0.012,-0.04 0.029,-0.079 0.042,-0.118c0.028,-0.081 0.054,-0.158 0.084,-0.234c0.026,-0.077 0.065,-0.153 0.101,-0.227l0.106,-0.216c0.05505,-0.10192 0.11512,-0.20104 0.18,-0.297c0.019,-0.031 0.036,-0.064 0.056,-0.09l0.121,-0.164c0.019,-0.029 0.038,-0.057 0.058,-0.082l0.054,-0.07l0.104,-0.13l0.048,-0.058l0.041,-0.05c0.028,-0.034 0.056,-0.065 0.084,-0.1c0.024,-0.026 0.045,-0.048 0.065,-0.074c0.162,-0.201 0.181,-0.26 0.196,-0.304c0,-0.013 0.003,-0.02 0.005,-0.028l0.002,-0.005v-0.008c0,-0.007 0,-0.011 0.002,-0.018c0.00046,-0.00878 0.0018,-0.01749 0.004,-0.026c-0.002,0 -0.006,0 -0.006,0.005l0.002,-0.04c0.00835,-0.04936 0.01435,-0.09908 0.018,-0.149l0.01,-0.076l-0.028,-0.005c0.405,-1.28 0.968,-1.667 1.515,-2.038c0.463,-0.317 0.94,-0.645 1.483,-1.735c0.209,-0.426 0.274,-1.054 0.343,-1.716c0.098,-0.953 0.212,-2.032 0.794,-2.943c0.473,-0.735 1.268,-1.209 2.042,-1.665c0.635,-0.376 1.29,-0.762 1.714,-1.272c0.359,-0.431 0.59,-1.058 0.836,-1.729c0.338,-0.909 0.681,-1.848 1.423,-2.512c0.693,-0.63 1.638,-0.857 2.546,-1.082c0.711,-0.171 1.376,-0.337 1.898,-0.664c0.468,-0.295 0.883,-0.805 1.32,-1.34c0.624,-0.76 1.268,-1.554 2.206,-1.922c0.874,-0.346 1.842,-0.217 2.775,-0.09c0.718,0.098 1.401,0.187 2.01,0.08c0.528,-0.098 1.088,-0.408 1.682,-0.74c0.862,-0.481 1.751,-0.979 2.784,-0.979c1.026,0 1.921,0.498 2.783,0.976c0.601,0.33 1.168,0.645 1.706,0.743c0.607,0.112 1.288,0.018 2.012,-0.081c0.938,-0.131 1.906,-0.264 2.786,0.079c0.938,0.363 1.593,1.136 2.223,1.89c0.455,0.534 0.88,1.04 1.36,1.335c0.53,0.326 1.208,0.472 1.928,0.632c0.916,0.201 1.863,0.411 2.572,1.016c0.756,0.64 1.139,1.567 1.504,2.465c0.273,0.664 0.528,1.291 0.906,1.709c0.449,0.5 1.124,0.867 1.781,1.217c0.786,0.426 1.601,0.865 2.105,1.578c0.624,0.885 0.789,1.96 0.936,2.91c0.102,0.662 0.196,1.285 0.432,1.705c0.599,1.071 1.091,1.379 1.575,1.671c0.565,0.344 1.144,0.698 1.619,1.956l-0.227,0.088l0.199,-0.016c0,0 0.002,0.044 0.002,0.127c0.00479,0.05021 0.0078,0.10058 0.009,0.151v0.157c0,0.072 -0.002,0.149 -0.004,0.232c-0.007,0.078 -0.009,0.166 -0.018,0.252c-0.01,0.08 -0.019,0.165 -0.036,0.25c-0.005,0.046 -0.013,0.092 -0.022,0.138l-0.01,0.068c-0.005,0.022 -0.016,0.048 -0.02,0.072c-0.022,0.094 -0.048,0.192 -0.076,0.294c-0.026,0.104 -0.066,0.2 -0.106,0.3c-0.015,0.053 -0.037,0.112 -0.058,0.155c-0.024,0.047 -0.043,0.097 -0.065,0.147c-0.024,0.044 -0.048,0.094 -0.07,0.144c-0.023,0.039 -0.047,0.085 -0.07,0.129c-0.022,0.044 -0.048,0.087 -0.07,0.131c-0.023,0.037 -0.041,0.07 -0.062,0.109c-0.025,0.033 -0.044,0.07 -0.065,0.11c-0.01894,0.02663 -0.0363,0.05434 -0.052,0.083c-0.029,0.05 -0.059,0.098 -0.089,0.146l-0.02,0.033l-0.01,0.024l-0.026,0.044c-0.006,0.008 -0.011,0.013 -0.011,0.017l-0.006,0.013c-0.00732,0.01059 -0.014,0.02161 -0.02,0.033c-0.00136,0.00838 -0.00406,0.01648 -0.008,0.024c-0.009,0.011 -0.015,0.015 -0.015,0.029l-0.007,0.03c-0.004,0.007 -0.006,0.013 -0.011,0.017c-0.002,0.009 -0.002,0.015 -0.002,0.025c0,0.017 -0.004,0.03 -0.006,0.05l-0.005,0.024v0.101l-0.002,0.035v0.007c-0.011,-0.039 0.009,0.085 -0.015,-0.083l0.002,0.017l0.002,0.04c0.012,0.054 0.016,0.102 0.022,0.157c0.00325,0.03601 0.00893,0.07176 0.017,0.107v0.007c-0.002,0.002 -0.006,0.002 -0.006,0.006c0.00344,0.00686 0.00548,0.01434 0.006,0.022c0.0032,0.01513 0.00488,0.03054 0.005,0.046c0.00407,0.01334 0.00908,0.02637 0.015,0.039c0.004,0.01 0.002,0.013 0.006,0.02c0.00393,0.00692 0.00695,0.01431 0.009,0.022l0.013,0.026l0.004,0.013l0.009,0.017c0.039,0.073 0.149,0.206 0.322,0.42c0.24181,0.2754 0.4546,0.57498 0.635,0.894c0.25477,0.46973 0.41831,0.98344 0.482,1.514c0.007,0.049 0.011,0.094 0.018,0.149l0.004,0.034c0,-0.008 0.015,0.16 0.011,0.09v0.068l0.006,0.203v0.149c0,0.063 -0.002,0.127 -0.004,0.192c-0.00162,0.06439 -0.00462,0.12874 -0.009,0.193l-0.004,0.046l-0.007,0.043l-0.008,0.085c-0.022,0.114 -0.037,0.226 -0.065,0.342c-0.02637,0.11417 -0.05605,0.22755 -0.089,0.34c-0.034,0.107 -0.077,0.214 -0.116,0.326c-0.046,0.1 -0.091,0.192 -0.139,0.29l-0.03,0.068l-0.037,0.059l-0.065,0.129c-0.013,0.018 -0.023,0.037 -0.035,0.05l-0.03,0.058l-0.06,0.1c-0.032,0.057 -0.065,0.112 -0.101,0.172c-0.119,0.199 -0.165,0.282 -0.197,0.387c-0.009,0.026 -0.013,0.057 -0.022,0.083c0,0.009 -0.004,0.015 -0.008,0.024v0.027l-0.007,0.05l-0.006,0.056v0.175c0,0.018 -0.022,-0.122 -0.013,-0.057l0.004,0.018c0.01,0.072 0.017,0.149 0.03,0.227l0.007,0.055l0.001,0.017v0.005c0.005,0.013 0.01,0.019 0.01,0.028c0.00229,0.00953 0.00229,0.01947 0,0.029l0.012,0.045c0.007,0.031 0.013,0.064 0.026,0.094c0.013,0.027 0.022,0.059 0.039,0.088c0.01013,0.01484 0.0182,0.03099 0.024,0.048c0.004,0.015 0.022,0.035 0.03,0.057l0.039,0.054c0.013,0.02 0.033,0.042 0.048,0.066c0.019,0.024 0.034,0.046 0.056,0.07l0.067,0.083c0.093,0.112 0.214,0.255 0.344,0.422c0.064,0.085 0.131,0.183 0.198,0.275c0.06508,0.10441 0.12809,0.2101 0.189,0.317c0.05877,0.1127 0.11282,0.2278 0.162,0.345c0.041,0.112 0.086,0.232 0.123,0.352c0.03069,0.11515 0.05937,0.23084 0.086,0.347c0.015,0.061 0.018,0.118 0.028,0.173l0.024,0.166l0.009,0.085l0.006,0.042l0.002,0.02c0.00213,0.02676 0.00513,0.05344 0.009,0.08l0.004,0.123l0.003,0.124l0.004,0.059l-0.004,0.103c-0.003,0.138 -0.007,0.277 -0.024,0.406c-0.018,0.125 -0.035,0.252 -0.058,0.372c-0.03,0.122 -0.065,0.247 -0.1,0.365l-0.064,0.175c-0.02,0.056 -0.044,0.113 -0.07,0.168l-0.071,0.155c-0.0117,0.02533 -0.02472,0.05003 -0.039,0.074l-0.035,0.07l-0.074,0.136c-0.025,0.043 -0.047,0.078 -0.07,0.12l-0.13,0.21l-0.028,0.05l-0.024,0.041l-0.046,0.086l-0.075,0.142c-0.017,0.043 -0.042,0.083 -0.052,0.125c-0.011,0.021 -0.017,0.04 -0.024,0.06c-0.005,0.024 -0.015,0.044 -0.015,0.066c-0.005,0.022 -0.009,0.045 -0.015,0.065c-0.007,0.022 -0.013,0.044 -0.013,0.07c-0.002,0.052 -0.009,0.101 -0.015,0.152c0.002,0.056 0.002,0.115 0.002,0.17v0.032c0.009,0.051 -0.011,-0.059 -0.009,-0.037l0.009,0.064l0.015,0.124l0.018,0.127c0.00477,0.01703 0.00812,0.03442 0.01,0.052c0.007,0.018 0.009,0.035 0.013,0.058v0.01l0.004,0.018l0.009,0.035c0.018,0.045 0.026,0.094 0.048,0.135c0.01147,0.02079 0.02021,0.04297 0.026,0.066c0.008,0.019 0.026,0.041 0.034,0.065l0.037,0.066l0.047,0.071c0.05829,0.08275 0.11898,0.16379 0.182,0.243l0.074,0.092l0.09,0.102c0.029,0.038 0.056,0.069 0.089,0.11c0.065,0.084 0.125,0.157 0.19,0.254l0.098,0.133c0.03,0.05 0.062,0.096 0.09,0.148c0.029,0.053 0.063,0.101 0.089,0.156l0.078,0.161c0.054,0.105 0.09,0.219 0.127,0.33c0.043,0.11 0.067,0.219 0.095,0.33l0.035,0.166l0.024,0.162l0.021,0.16l0.009,0.08c0.013,0.094 0.006,0.033 0.011,0.059v0.046l0.006,0.256c-0.002,0.116 -0.007,0.245 -0.017,0.369c-0.0023,0.0593 -0.01034,0.11824 -0.024,0.176l-0.023,0.17c-0.01,0.054 -0.022,0.111 -0.04,0.168l-0.047,0.165c-0.03,0.11 -0.078,0.213 -0.113,0.32c-0.045,0.096 -0.088,0.194 -0.137,0.286l-0.07,0.127l-0.037,0.063l-0.032,0.059l-0.132,0.217c-0.164,0.271 -0.264,0.465 -0.318,0.681c-0.013,0.055 -0.021,0.112 -0.037,0.166c-0.006,0.06 -0.008,0.125 -0.013,0.18c-0.002,0.017 -0.006,0.032 -0.006,0.046l0.004,0.048v0.098l0.002,0.094c0.004,0.037 -0.006,-0.033 -0.006,-0.02l0.004,0.016l0.002,0.03l0.007,0.063c0.052,0.562 0.219,0.859 0.659,1.366l0.078,0.094l0.084,0.103c0.026,0.037 0.052,0.07 0.08,0.107l0.082,0.114c0.056,0.076 0.104,0.159 0.156,0.244c0.052,0.081 0.091,0.173 0.132,0.26c0.14741,0.3434 0.23987,0.70786 0.274,1.08v0.017c0,-0.018 0.007,0.042 0.007,0.042v0.03l0.002,0.055l0.002,0.116l0.004,0.116l-0.006,0.144l-0.009,0.144l-0.006,0.074l-0.009,0.068c-0.017,0.089 -0.027,0.179 -0.047,0.269c-0.078,0.358 -0.238,0.684 -0.396,0.948c-0.158,0.269 -0.298,0.486 -0.395,0.706c-0.09557,0.21402 -0.15277,0.44317 -0.169,0.677l-0.004,0.09l-0.007,0.042l0.002,0.046c0,0.061 0.005,0.12 0.007,0.181v0.055c0,0.008 -0.007,-0.027 -0.002,-0.005l0.002,0.027l0.013,0.1c0.008,0.065 0.019,0.134 0.026,0.194c0.041,0.208 0.106,0.431 0.206,0.628c0.11079,0.19996 0.24145,0.38824 0.39,0.562c0.149,0.183 0.318,0.366 0.454,0.58c0.039,0.051 0.067,0.108 0.095,0.158l0.052,0.083c0.01382,0.02795 0.02683,0.05629 0.039,0.085l0.08,0.166c0.015,0.059 0.037,0.113 0.058,0.173l0.027,0.083c0.01,0.03 0.014,0.055 0.02,0.085l0.04,0.17c0.015,0.055 0.019,0.114 0.026,0.166c0.008,0.057 0.013,0.112 0.021,0.164l0.005,0.042l0.002,0.017c0.002,0.027 0,0.013 0,0.02l0.002,0.011v0.077c0.004,0.05 0.009,0.102 0.009,0.15zM238.29,233.75l-0.532,3.37h-0.635l-0.145,-0.912c-1.238,0.774 -2.73,1.227 -4.048,1.86c-1.295,0.553 -2.996,1.589 -4.154,0.28c-1.531,-1.855 1.238,-4.311 3.025,-5.43l6.1,0.183c0.054,0.219 0.365,0.426 0.38,0.649z" fill="#2c2c2d"/><path d="M229.437,236.035c0,0 0.454,-1.986 2.503,-2.98l6.004,0.09c0,0 -4.221,4.241 -8.507,2.891" data-paper-data="{&quot;origPos&quot;:null}" fill="#ffdd85"/><path d="M246.194,232.918c1.789,1.119 4.558,3.577 3.026,5.432c-1.157,1.311 -2.857,0.273 -4.152,-0.277c-1.321,-0.636 -2.81,-1.093 -4.053,-1.864l-0.14,0.912h-0.638l-0.533,-3.37h0.013c0.015,-0.223 0.326,-0.431 0.38,-0.649l6.097,-0.184" fill="#2c2c2d"/><path d="M248.56,236.036c-4.286,1.35 -8.51,-2.891 -8.51,-2.891l6.007,-0.09c2.049,1.084 2.503,2.98 2.503,2.98" data-paper-data="{&quot;origPos&quot;:null}" fill="#ffdd85"/><path d="M251.334,206.863l-5.162,26.28h-6.12l-0.912,-19.054h-0.286l-0.912,19.054h-6.118l-5.164,-26.281h15.52zM215.873,200.469c-0.247,2.364 0.875,4.42 2.5,4.597c1.063,0.112 2.081,-0.603 2.728,-1.774c0.603,0.501 1.197,0.702 1.627,0.472c0.798,-0.426 0.703,-2.189 -0.214,-3.935c-0.352,-0.667 -0.767,-1.233 -1.195,-1.659c-0.447,-0.935 -1.174,-1.571 -2.049,-1.665c-1.63,-0.175 -3.149,1.599 -3.397,3.964M265.327,163.319c-1.074,0.214 -1.58,2.291 -1.128,4.641c0.172,0.901 0.458,1.706 0.808,2.351c0.192,1.243 0.815,2.242 1.795,2.659c1.825,0.783 4.209,-0.734 5.32,-3.384c1.111,-2.653 0.532,-5.437 -1.297,-6.222c-1.191,-0.511 -2.622,-0.039 -3.778,1.085c-0.523,-0.796 -1.148,-1.242 -1.72,-1.13" data-paper-data="{&quot;origPos&quot;:null}" fill="#ffdd85"/><path d="M265.13,171.172c0,0 4.368,0.373 6.294,3.395c-4.519,1.947 -5.93,8.258 -8.894,9.347c-2.135,0.78 -9.056,-1.871 -10.566,-2.47c1.544,6.079 0.519,12.939 0.674,18.909c0.00891,0.33521 0.02325,0.67025 0.043,1.005c3.865,5.756 8.972,29.911 8.972,29.911c0,0 -22.281,8.708 -44.562,0c0,0 3.705,-22.94 8.367,-29.887l0.015,-1.025c0.112,-5.4 -1.014,-11.191 0.225,-16.961c-0.232,0.463 -0.603,1.057 -1.219,1.934c-1.688,2.416 -2.97,12.63 -2.97,12.63c0,0 -4.845,0.985 -6.992,-0.999c2.834,-2.23 4.461,-14.19 7.287,-17.84c1.771,-2.288 8.16,-5.672 8.16,-5.672v0.006c2.043,-1.308 7.279,-1.538 7.279,-1.538l1.742,0.074h0.147l1.74,-0.057c0,0 5.347,0.195 7.344,1.535c-0.006,-0.014 -0.013,-0.02 -0.013,-0.02l11.555,4.245l5.372,-6.522" fill="#b71723"/><path d="M254.121,204.169c-9.84885,2.78143 -20.27925,2.75338 -30.113,-0.081c0.37,-1.549 0.886,-3.313 1.474,-4.495c8.86811,2.51822 18.25811,2.54797 27.142,0.086c0.471,0.898 1.184,3.181 1.497,4.49M261.355,229.905c0.192,0.865 0.298,1.364 0.298,1.364c0,0 -22.281,8.707 -44.56,0c0,0 0.084,-0.505 0.234,-1.39c14.26897,4.8793 29.75328,4.88845 44.028,0.026" fill="#f08314"/><path d="M261.131,228.898c-14.19267,4.51533 -29.43859,4.5031 -43.624,-0.035l0.074,-0.389c14.13293,4.52901 29.326,4.5409 43.466,0.034l0.083,0.39M221.51,197.959c0,0 -4.846,0.986 -6.992,-0.998c0.2497,-0.20431 0.46951,-0.44263 0.653,-0.708c2.003,1.186 4.934,1.015 6.458,0.815c-0.08,0.562 -0.119,0.892 -0.119,0.892M265.13,171.172c0,0 4.368,0.373 6.294,3.395c-0.3889,0.16945 -0.7626,0.37186 -1.117,0.605c-1.254,-2.069 -4.353,-2.86 -5.897,-3.13l0.72,-0.87M247.361,173.882c0,3.258 -2.591,5.948 -5.818,5.948h-5.133c-3.227,0 -5.885,-2.69 -5.885,-5.948v-0.737c2.34,-1.029 6.704,-1.221 6.704,-1.221l1.757,0.087h0.145l1.727,-0.072c0,0 4.163,0.149 6.503,1.103v0.84" fill="#f08314"/><path d="M246.743,173.882c0,2.902 -2.33,5.255 -5.2,5.255h-5.134c-2.872,0 -5.2,-2.353 -5.2,-5.255v-0.986c2.395,-0.812 6.033,-0.972 6.033,-0.972l1.744,0.087h0.147l1.74,-0.072c0,0 3.477,0.122 5.87,0.874v1.069" data-paper-data="{&quot;origPos&quot;:null}" fill="#ffdd85"/><path d="M237.27,173.474c-1.055,0 -1.908,-2.24 -1.908,-3.308h7.51c0,1.068 -0.853,3.308 -1.908,3.308h-3.694" data-paper-data="{&quot;origPos&quot;:null}" fill="#ffdd85"/><path d="M236.169,172.655c-0.426,-0.654 -0.72,-1.561 -0.79,-2.214c1.191,0.195 2.412,0.299 3.658,0.299c1.28022,-0.00052 2.5581,-0.10924 3.82,-0.325l-0.01,0.01l-6.679,2.23" fill="#eeac6c"/></g></g></svg>