<svg xmlns="http://www.w3.org/2000/svg" width="120" height="120"><g fill="none" fill-rule="evenodd" transform="translate(0 17)"><path fill="#FF6464" d="M21.64 26.984h-3.092a2.063 2.063 0 0 1-2.06-2.065v-2.064c0-1.14.922-2.065 2.06-2.065h3.092a3.094 3.094 0 0 1 3.091 3.097 3.094 3.094 0 0 1-3.091 3.097z"/><path fill="#736F7B" d="M21.64 26.984h-1.03V20.79h1.03a3.094 3.094 0 0 1 3.091 3.097 3.094 3.094 0 0 1-3.091 3.097z"/><path fill="#625D6B" d="M74.193 16.661a2.062 2.062 0 0 1-2.061-2.064V9.258c0-1.103.429-2.139 1.208-2.92l1.457-1.459a2.058 2.058 0 0 1 2.914 0 2.066 2.066 0 0 1 0 2.92l-1.457 1.459v5.339c0 1.14-.922 2.064-2.061 2.064z"/><path fill="#625D6B" d="M76.254 37.512 70.07 2.21H40.273a6.186 6.186 0 0 0-6.098 5.175l-3.261 19.599v30.968h45.34v-20.44z"/><path fill="#736F7B" d="M51.523 49.694h22.67L66.28 10.063a2.062 2.062 0 0 0-2.021-1.66H51.523v41.29zM47.4 8.403h-6.182l-4.121 20.645 2.06 20.646h8.244z"/><path fill="#96E178" d="M30.916 29.048a2.064 2.064 0 0 1-2.035-2.404l3.26-19.598a8.223 8.223 0 0 1 8.131-6.9h31.86c1.14 0 2.061.924 2.061 2.064 0 1.14-.922 2.065-2.06 2.065h-31.86a4.11 4.11 0 0 0-4.066 3.45l-3.26 19.599a2.062 2.062 0 0 1-2.031 1.724z"/><path fill="#504B5A" d="M53.584 57.952h24.731v8.258H53.584z"/><path fill="#96E178" d="M78.315 68.274h37.096l3.25-11.393c.578-2.029.872-4.129.872-6.239v-9.394a2.063 2.063 0 0 0-1.866-2.055L78.51 35.457a2.062 2.062 0 0 0-2.256 2.055V66.21c0 1.14.923 2.064 2.06 2.064z"/><ellipse cx="28.853" cy="57.952" fill="#625D6B" rx="28.853" ry="28.903"/><ellipse cx="98.924" cy="70.339" fill="#625D6B" rx="16.487" ry="16.516"/><ellipse cx="98.924" cy="70.339" fill="#FFDC5A" rx="10.305" ry="10.323"/><ellipse cx="98.924" cy="70.339" fill="#FFC84B" rx="6.183" ry="6.194"/><ellipse cx="28.853" cy="57.952" fill="#FFDC5A" rx="18.548" ry="18.581"/><ellipse cx="28.853" cy="57.952" fill="#FFC84B" rx="12.366" ry="12.387"/><ellipse cx="28.853" cy="57.952" fill="#736F7B" rx="4.122" ry="4.129"/><path fill="#8CCD73" d="M59.767 60.016a2.062 2.062 0 0 1-2.061-2.064c0-15.938-12.943-28.904-28.853-28.904a28.6 28.6 0 0 0-11.54 2.405 2.065 2.065 0 0 1-1.65-3.784 32.724 32.724 0 0 1 13.19-2.75c18.182 0 32.975 14.819 32.975 33.033 0 1.14-.922 2.064-2.061 2.064zm22.669-16.383v6.06c0 1.14.923 2.065 2.062 2.065h28.852a2.063 2.063 0 0 0 2.061-2.065V45.44c0-1.09-.846-1.992-1.932-2.06l-28.853-1.806a2.062 2.062 0 0 0-2.19 2.06z"/><path fill="#504B5A" d="M74.193 53.823h-2.061a2.063 2.063 0 0 1-2.061-2.065V12.532c0-1.14.923-2.064 2.06-2.064h2.062c1.138 0 2.06.924 2.06 2.064v39.226c0 1.14-.922 2.065-2.06 2.065z"/><path fill="#625D6B" d="M100.985 51.758h-4.122v-4.129c0-1.14.923-2.065 2.061-2.065s2.061.925 2.061 2.065v4.129zm6.182 0h-4.121v-4.129c0-1.14.923-2.065 2.06-2.065 1.139 0 2.062.925 2.062 2.065v4.129zm-12.365 0H90.68v-4.129c0-1.14.923-2.065 2.061-2.065s2.061.925 2.061 2.065v4.129z"/><ellipse cx="98.924" cy="70.339" fill="#736F7B" rx="2.061" ry="2.065"/></g></svg>