<svg xmlns="http://www.w3.org/2000/svg" width="52.05" height="108"><g fill-rule="evenodd" stroke-miterlimit="10" data-paper-data="{&quot;isPaintingLayer&quot;:true}" style="mix-blend-mode:normal"><path fill="#3a934d" d="M0 75.733C0 61.73 11.352 50.378 25.355 50.378S50.71 61.73 50.71 75.733V108H0z"/><path fill="#fff" d="M25.355 60.256a7.607 7.607 0 1 1 0-15.214 7.607 7.607 0 0 1 0 15.214"/><path fill="#e8b074" d="M25.366 56.705a5.071 5.071 0 0 1-5.07-5.288l.392-9.129c.12-2.798 2.485-4.978 5.283-4.848a5.07 5.07 0 0 1 4.85 5.283l-.392 9.128a5.071 5.071 0 0 1-5.063 4.854" data-paper-data="{&quot;origPos&quot;:null}"/><path fill="#80611f" d="M47.447 29.222c0 11.202-9.082 20.284-20.284 20.284-11.203 0-20.284-9.082-20.284-20.284v-7.307c0-11.203 9.081-20.285 20.284-20.285h20.284z" data-paper-data="{&quot;origPos&quot;:null}"/><path fill="#e8b074" d="M.305 30.337a5.578 5.578 0 0 1 5.578-5.578h9.128a5.578 5.578 0 1 1 0 11.156H5.883a5.578 5.578 0 0 1-5.578-5.578" data-paper-data="{&quot;origPos&quot;:null}"/><path fill="#cf8d78" d="M2.838 30.337a2.957 2.957 0 0 1 2.957-2.957h4.838a2.957 2.957 0 1 1 0 5.914H5.795a2.957 2.957 0 0 1-2.957-2.957" data-paper-data="{&quot;origPos&quot;:null}"/><path fill="#e8b074" d="M52.05 30.337a5.578 5.578 0 0 1-5.579 5.578h-9.128a5.578 5.578 0 1 1 0-11.156h9.128a5.578 5.578 0 0 1 5.578 5.578" data-paper-data="{&quot;origPos&quot;:null}"/><path fill="#cf8d78" d="M49.515 30.337a2.957 2.957 0 0 1-2.956 2.957H41.72a2.957 2.957 0 0 1 0-5.914h4.838a2.957 2.957 0 0 1 2.956 2.957" data-paper-data="{&quot;origPos&quot;:null}"/><path fill="#e7c5a0" d="M27.163 1.631c11.202 0 20.284 9.081 20.284 20.284v7.307c0 11.202-9.082 20.284-20.284 20.284-11.203 0-20.284-9.082-20.284-20.284v-7.307c0-11.203 9.081-20.285 20.284-20.285" data-paper-data="{&quot;origPos&quot;:null}"/><path fill="#feac94" d="M17.496 30.54a4.057 4.057 0 1 1-8.114 0 4.057 4.057 0 0 1 8.114 0m27.447 0a4.057 4.057 0 1 1-8.113.127 4.057 4.057 0 0 1 8.113-.127"/><path fill="none" stroke="#212121" stroke-linecap="round" stroke-linejoin="round" stroke-width="2.028" d="M32.934 34.996c0 1.4-2.536 2.1-5.072 2.1-2.535 0-5.07-.7-5.07-2.1"/><path fill="#e8b074" stroke="#e8b074" stroke-linecap="round" stroke-linejoin="round" stroke-width="3.043" d="M27.863 23.451v6.66" data-paper-data="{&quot;origPos&quot;:null}"/><path fill="#212121" d="M21.8 23.214c0 2.11-1.158 3.822-2.587 3.822-1.428 0-2.586-1.711-2.586-3.822 0-2.111 1.158-3.823 2.586-3.823 1.429 0 2.586 1.712 2.586 3.823m17.3 0c0 2.11-1.158 3.822-2.586 3.822-1.429 0-2.587-1.711-2.587-3.822 0-2.111 1.158-3.823 2.587-3.823 1.428 0 2.586 1.712 2.586 3.823" data-paper-data="{&quot;origPos&quot;:null}"/><path fill="#80611f" d="M47.357 0c1.87 0 3.206 1.833 2.61 3.606-1.505 4.474-5.734 7.696-10.715 7.696H15.488c-1.536-.004-2.796 1.21-2.796 2.746v3.249a8.477 8.477 0 0 1-8.477 8.477V11.302C4.215 5.06 9.275 0 15.517 0h3.393z" data-paper-data="{&quot;origPos&quot;:null}"/></g></svg>