<svg version="1.1" xmlns="http://www.w3.org/2000/svg" xmlns:xlink="http://www.w3.org/1999/xlink" width="85.692" height="109.85085" viewBox="0,0,85.692,109.85085"><g transform="translate(-197,-125.023)"><g data-paper-data="{&quot;isPaintingLayer&quot;:true}" fill-rule="evenodd" stroke-miterlimit="10" stroke-dasharray="" stroke-dashoffset="0" style="mix-blend-mode: normal"><path d="M228.465,125.845c2.404,1.432 2.73,5.276 0.73,8.587c-2.002,3.31 -5.574,4.834 -7.978,3.402c-2.404,-1.431 -2.73,-5.276 -0.729,-8.586c2.001,-3.31 5.573,-4.834 7.977,-3.403M251.227,125.845c-2.404,1.432 -2.73,5.276 -0.73,8.587c2.003,3.31 5.574,4.834 7.978,3.402c2.404,-1.431 2.73,-5.276 0.729,-8.586c-2.002,-3.31 -5.573,-4.834 -7.977,-3.403" fill="#fdd835" stroke="none" stroke-width="1" stroke-linecap="butt" stroke-linejoin="miter"/><path d="M221.606,138.03c1.41,-4.355 3.846,-8.539 7.99,-11.145c1.314,1.814 1.225,4.857 -0.402,7.547c-1.897,3.138 -5.202,4.665 -7.589,3.598M250.05,126.957c4.075,2.612 6.578,6.763 8.024,11.079c-2.386,1.056 -5.683,-0.472 -7.576,-3.604c-1.606,-2.655 -1.71,-5.653 -0.448,-7.475" fill="#7cb342" stroke="none" stroke-width="1" stroke-linecap="butt" stroke-linejoin="miter"/><path d="M245.78,169.167c0,0 10.805,-20.78 36.912,-13.527c0,0 -10.735,2.431 -12.736,11.68c-3.515,16.25 -18.953,24.062 -26.695,8.55" fill="#80deea" stroke="none" stroke-width="1" stroke-linecap="butt" stroke-linejoin="miter"/><path d="M244.611,173.167c0,0 6.165,-15.477 25.173,-12.18c0,0 -7.429,2.478 -8.183,9.169c-1.327,11.756 -11.701,18.376 -18.294,7.936" fill="#26c6da" stroke="none" stroke-width="1" stroke-linecap="butt" stroke-linejoin="miter"/><path d="M236.431,175.87c-7.742,15.512 -23.18,7.7 -26.695,-8.55c-2.001,-9.249 -12.736,-11.681 -12.736,-11.681c26.106,-7.252 36.912,13.528 36.912,13.528" fill="#80deea" stroke="none" stroke-width="1" stroke-linecap="butt" stroke-linejoin="miter"/><path d="M236.385,178.092c-6.593,10.44 -16.967,3.82 -18.293,-7.936c-0.755,-6.691 -8.184,-9.169 -8.184,-9.169c19.007,-3.297 25.172,12.18 25.172,12.18" fill="#26c6da" stroke="none" stroke-width="1" stroke-linecap="butt" stroke-linejoin="miter"/><path d="M237.66,227.014l-5.049,-0.877l-0.226,-25.303h6.67z" data-paper-data="{&quot;origPos&quot;:null}" fill="#f5e1d7" stroke="none" stroke-width="1" stroke-linecap="butt" stroke-linejoin="miter"/><path d="M232.611,226.137c0.56,-1.111 5.178,-0.82 5.05,0.877c-0.128,1.698 -4.558,5.709 -4.558,5.709c-2.663,-1.586 -0.492,-6.586 -0.492,-6.586" data-paper-data="{&quot;origPos&quot;:null}" fill="#f5e1d7" stroke="none" stroke-width="1" stroke-linecap="butt" stroke-linejoin="miter"/><path d="M233.216,230.86c1.122,0.469 3.098,-1.556 4.445,-3.846c-0.023,0.636 -0.205,1.402 -0.596,2.327c-1.2,2.829 -3.883,6.042 -5.267,5.465c-1.384,-0.578 -0.946,-4.729 0.254,-7.558c0.18,-0.425 0.367,-0.79 0.56,-1.112c-0.439,2.204 -0.356,4.324 0.604,4.724" fill="#7cb342" stroke="none" stroke-width="1" stroke-linecap="butt" stroke-linejoin="miter"/><path d="M240.635,200.834h6.671l-0.226,25.303l-5.05,0.877z" data-paper-data="{&quot;origPos&quot;:null}" fill="#f5e1d7" stroke="none" stroke-width="1" stroke-linecap="butt" stroke-linejoin="miter"/><path d="M247.08,226.137c0,0 2.171,5 -0.493,6.586c0,0 -4.429,-4.011 -4.557,-5.709c-0.13,-1.697 4.49,-1.988 5.05,-0.877" data-paper-data="{&quot;origPos&quot;:null}" fill="#f5e1d7" stroke="none" stroke-width="1" stroke-linecap="butt" stroke-linejoin="miter"/><path d="M246.475,230.86c0.96,-0.4 1.042,-2.52 0.604,-4.724c0.192,0.322 0.38,0.687 0.56,1.112c1.2,2.829 1.638,6.98 0.253,7.558c-1.384,0.577 -4.067,-2.636 -5.266,-5.465c-0.393,-0.925 -0.574,-1.691 -0.597,-2.327c1.347,2.29 3.324,4.315 4.446,3.846" fill="#7cb342" stroke="none" stroke-width="1" stroke-linecap="butt" stroke-linejoin="miter"/><path d="M239.46,187.032h0.33l-0.17,0.112z" fill="#80deea" stroke="none" stroke-width="1" stroke-linecap="butt" stroke-linejoin="miter"/><path d="M239.46,187.032h0.33l-0.17,0.112z" fill="#80deea" stroke="none" stroke-width="1" stroke-linecap="butt" stroke-linejoin="miter"/><path d="M265.561,190.501c1.572,2.67 0.342,7.146 0.342,7.146c-1.493,-0.844 -2.482,-2.587 -3.078,-4.02c-0.241,0.562 -0.539,0.907 -0.799,0.862c-0.427,-0.072 -0.597,-1.146 -0.38,-2.398c0.084,-0.482 0.214,-0.919 0.364,-1.272c-1.242,-9.4 -8.232,-15.887 -11.71,-18.81l-0.873,8.73h-19.164l-1.043,-8.674c-3.478,2.924 -10.298,9.354 -11.54,18.754c0.16948,0.40872 0.29161,0.8355 0.364,1.272c0.216,1.252 0.047,2.326 -0.379,2.398c-0.262,0.045 -0.559,-0.301 -0.8,-0.862c-0.596,1.433 -1.585,3.176 -3.078,4.021c0,0 -1.231,-4.477 0.343,-7.147c1.295,-2.2 0.164,-13.945 12.66,-23.798c0.60131,-0.47237 1.30524,-0.79676 2.055,-0.947l7.535,-1.519v-5.826h6.932v5.826l7.853,1.583c0.53895,0.11037 1.04512,0.34378 1.479,0.682c12.768,9.893 11.613,21.784 12.918,23.999" data-paper-data="{&quot;origPos&quot;:null}" fill="#f5e1d7" stroke="none" stroke-width="1" stroke-linecap="butt" stroke-linejoin="miter"/><path d="M239.492,187.033l0.148,0.11l0.155,-0.111h-0.303zM250.007,180.74c0,0 9.591,4.57 14.745,21.576c0.013,-0.005 -2.363,3.28 -2.363,3.28c0,0 -3.728,-1.029 -3.715,-1.034c0.013,-0.003 -2.617,3.017 -2.617,3.017c0,0 -3.602,-1.409 -3.588,-1.412c0.013,-0.002 -2.853,2.734 -2.853,2.734c0,0 -3.452,-1.769 -3.438,-1.772c0.014,0 -3.069,2.433 -3.069,2.433c0,0 -3.278,-2.112 -3.264,-2.112c0.014,0.002 -3.264,2.112 -3.264,2.112c0,0 -3.083,-2.433 -3.069,-2.433c0.014,0.002 -3.438,1.772 -3.438,1.772c-0.95349,-0.90839 -1.90416,-1.81972 -2.852,-2.734c0.013,0.003 -3.589,1.412 -3.589,1.412c-0.87541,-1.00299 -1.74775,-2.00866 -2.617,-3.017c0.013,0.005 -3.715,1.034 -3.715,1.034c0,0 -2.376,-3.285 -2.363,-3.28c0,0 2.142,-11.766 15.088,-21.577l-1.19,-8.347c5.57,-6.063 11.072,0.335 11.072,0.335c0,0 4.442,-5.807 10.934,-0.257l-0.835,8.269z" fill="#7cb342" stroke="none" stroke-width="1" stroke-linecap="butt" stroke-linejoin="miter"/><path d="M230.025,183.606c-9.638,7.306 -13.285,15.691 -14.521,19.5c-0.328,-0.456 -0.569,-0.792 -0.565,-0.791c0,0 2.108,-11.535 14.719,-21.288l0.367,2.58M239.492,189.901h0.302l-0.154,0.111zM250.282,180.885c1.594,0.89 9.829,6.118 14.471,21.431c0.004,-0.001 -0.274,0.386 -0.641,0.895c-5.268,-15.384 -14.105,-19.604 -14.105,-19.604zM239.908,175.596c0,0 -5.27,-6.12 -10.715,-0.7l-0.357,-2.504c5.57,-6.063 11.072,0.335 11.072,0.335c0,0 4.443,-5.807 10.934,-0.256l-0.268,2.65c-6.345,-5.165 -10.666,0.474 -10.666,0.474" fill="#689f38" stroke="none" stroke-width="1" stroke-linecap="butt" stroke-linejoin="miter"/><path d="M258.421,146.131c0,8.805 -8.316,15.63 -18.575,15.63c-10.259,0 -18.575,-6.825 -18.575,-15.63c0,-8.805 8.316,-17.509 18.575,-17.509c10.259,0 18.575,8.704 18.575,17.509" data-paper-data="{&quot;origPos&quot;:null}" fill="#ffe7db" stroke="none" stroke-width="1" stroke-linecap="butt" stroke-linejoin="miter"/><path d="M238.983,136.441l-17.698,10.295c0.563,-8.473 3.847,-21.713 18.561,-21.713c13.755,0 17.891,12.286 18.454,20.76z" fill="#fdd835" stroke="none" stroke-width="1" stroke-linecap="butt" stroke-linejoin="miter"/><path d="M231.398,148.514c0,0.856 -0.7,1.55 -1.562,1.55c-0.41268,0.00159 -0.80909,-0.16081 -1.10202,-0.4515c-0.29293,-0.29068 -0.45839,-0.68583 -0.45998,-1.0985c0,-0.856 0.699,-1.55 1.562,-1.55c0.862,0 1.562,0.694 1.562,1.55" fill="#5d4037" stroke="none" stroke-width="1" stroke-linecap="butt" stroke-linejoin="miter"/><path d="M229.826,148.288l-1.46,-2.28M229,148.618l-2.321,-1.895" fill="none" stroke="#5d4037" stroke-width="0.756" stroke-linecap="round" stroke-linejoin="round"/><path d="M248.294,148.514c0,-0.856 0.7,-1.55 1.562,-1.55c0.862,0 1.562,0.694 1.562,1.55c0,0.856 -0.699,1.55 -1.562,1.55c-0.862,0 -1.562,-0.694 -1.562,-1.55" fill="#5d4037" stroke="none" stroke-width="1" stroke-linecap="butt" stroke-linejoin="miter"/><path d="M249.866,148.288l1.46,-2.28M250.693,148.618l2.32,-1.895" fill="none" stroke="#5d4037" stroke-width="0.756" stroke-linecap="round" stroke-linejoin="round"/><path d="M236.381,156.037h6.93c-0.692,1.622 -1.983,2.715 -3.465,2.715c-1.482,0 -2.772,-1.093 -3.466,-2.715z" fill="#ef5350" stroke="none" stroke-width="1" stroke-linecap="butt" stroke-linejoin="miter"/><path d="M227.046,152.449c2.753,0 4.983,2.215 4.983,4.946c-0.00018,0.93117 -0.26628,1.84292 -0.767,2.628c-3.216,-1.391 -5.878,-3.548 -7.644,-6.211c0.92621,-0.87605 2.15312,-1.36352 3.428,-1.362M256.074,153.812c-1.765,2.663 -4.428,4.82 -7.644,6.211c-0.484,-0.762 -0.768,-1.661 -0.768,-2.628c0,-2.732 2.232,-4.946 4.984,-4.946c1.27502,-0.00125 2.50195,0.48659 3.428,1.363" fill="#ffccbc" stroke="none" stroke-width="1" stroke-linecap="butt" stroke-linejoin="miter"/><path d="M222.264,144.982c0,0 -2.004,-13.69 16.72,-8.917c0,0 -2.516,7.365 -16.72,8.917" fill="#fdd835" stroke="none" stroke-width="1" stroke-linecap="butt" stroke-linejoin="miter"/><path d="M238.982,136.064c18.351,-6.185 18.938,9.126 18.938,9.126c-17.42,-1.362 -18.937,-9.125 -18.937,-9.125" fill="#fdd835" stroke="none" stroke-width="1" stroke-linecap="butt" stroke-linejoin="miter"/></g></g></svg>