<svg xmlns="http://www.w3.org/2000/svg" width="85.692" height="109.851"><g fill-rule="evenodd" stroke-miterlimit="10" data-paper-data="{&quot;isPaintingLayer&quot;:true}" style="mix-blend-mode:normal"><path fill="#fdd835" d="M31.465.822c2.404 1.432 2.73 5.276.73 8.587-2.002 3.31-5.574 4.834-7.978 3.402-2.404-1.431-2.73-5.276-.729-8.586C25.489.915 29.061-.609 31.465.822m22.762 0c-2.404 1.432-2.73 5.276-.73 8.587 2.003 3.31 5.574 4.834 7.978 3.402 2.404-1.431 2.73-5.276.729-8.586C60.202.915 56.631-.609 54.227.822"/><path fill="#7cb342" d="M24.606 13.007c1.41-4.355 3.846-8.539 7.99-11.145 1.314 1.814 1.225 4.857-.402 7.547-1.897 3.138-5.202 4.665-7.589 3.598M53.05 1.934c4.075 2.612 6.578 6.763 8.024 11.079-2.386 1.056-5.683-.472-7.576-3.604-1.606-2.655-1.71-5.653-.448-7.475"/><path fill="#80deea" d="M48.78 44.144s10.805-20.78 36.912-13.527c0 0-10.735 2.431-12.736 11.68-3.515 16.25-18.953 24.062-26.695 8.55"/><path fill="#26c6da" d="M47.611 48.144s6.165-15.477 25.173-12.18c0 0-7.429 2.478-8.183 9.169-1.327 11.756-11.701 18.376-18.294 7.936"/><path fill="#80deea" d="M39.431 50.847c-7.742 15.512-23.18 7.7-26.695-8.55C10.735 33.048 0 30.616 0 30.616c26.106-7.252 36.912 13.528 36.912 13.528"/><path fill="#26c6da" d="M39.385 53.069c-6.593 10.44-16.967 3.82-18.293-7.936-.755-6.691-8.184-9.169-8.184-9.169 19.007-3.297 25.172 12.18 25.172 12.18"/><path fill="#f5e1d7" d="m40.66 101.991-5.049-.877-.226-25.303h6.67z" data-paper-data="{&quot;origPos&quot;:null}"/><path fill="#f5e1d7" d="M35.611 101.114c.56-1.111 5.178-.82 5.05.877-.128 1.698-4.558 5.709-4.558 5.709-2.663-1.586-.492-6.586-.492-6.586" data-paper-data="{&quot;origPos&quot;:null}"/><path fill="#7cb342" d="M36.216 105.837c1.122.469 3.098-1.556 4.445-3.846-.023.636-.205 1.402-.596 2.327-1.2 2.829-3.883 6.042-5.267 5.465-1.384-.578-.946-4.729.254-7.558.18-.425.367-.79.56-1.112-.439 2.204-.356 4.324.604 4.724"/><path fill="#f5e1d7" d="M43.635 75.811h6.671l-.226 25.303-5.05.877z" data-paper-data="{&quot;origPos&quot;:null}"/><path fill="#f5e1d7" d="M50.08 101.114s2.171 5-.493 6.586c0 0-4.429-4.011-4.557-5.709-.13-1.697 4.49-1.988 5.05-.877" data-paper-data="{&quot;origPos&quot;:null}"/><path fill="#7cb342" d="M49.475 105.837c.96-.4 1.042-2.52.604-4.724.192.322.38.687.56 1.112 1.2 2.829 1.638 6.98.253 7.558-1.384.577-4.067-2.636-5.266-5.465-.393-.925-.574-1.691-.597-2.327 1.347 2.29 3.324 4.315 4.446 3.846"/><path fill="#80deea" d="M42.46 62.009h.33l-.17.112z"/><path fill="#80deea" d="M42.46 62.009h.33l-.17.112z"/><path fill="#f5e1d7" d="M68.561 65.478c1.572 2.67.342 7.146.342 7.146-1.493-.844-2.482-2.587-3.078-4.02-.241.562-.539.907-.799.862-.427-.072-.597-1.146-.38-2.398.084-.482.214-.919.364-1.272-1.242-9.4-8.232-15.887-11.71-18.81l-.873 8.73H33.263l-1.043-8.674c-3.478 2.924-10.298 9.354-11.54 18.754.17.409.292.836.364 1.272.216 1.252.047 2.326-.379 2.398-.262.045-.559-.301-.8-.862-.596 1.433-1.585 3.176-3.078 4.021 0 0-1.231-4.477.343-7.147 1.295-2.2.164-13.945 12.66-23.798a4.878 4.878 0 0 1 2.055-.947l7.535-1.519v-5.826h6.932v5.826l7.853 1.583c.539.11 1.045.344 1.479.682 12.768 9.893 11.613 21.784 12.918 23.999" data-paper-data="{&quot;origPos&quot;:null}"/><path fill="#7cb342" d="m42.492 62.01.148.11.155-.111h-.303zm10.515-6.293s9.591 4.57 14.745 21.576c.013-.005-2.363 3.28-2.363 3.28s-3.728-1.029-3.715-1.034c.013-.003-2.617 3.017-2.617 3.017s-3.602-1.409-3.588-1.412c.013-.002-2.853 2.734-2.853 2.734s-3.452-1.769-3.438-1.772c.014 0-3.069 2.433-3.069 2.433s-3.278-2.112-3.264-2.112c.014.002-3.264 2.112-3.264 2.112s-3.083-2.433-3.069-2.433c.014.002-3.438 1.772-3.438 1.772-.953-.908-1.904-1.82-2.852-2.734.013.003-3.589 1.412-3.589 1.412a651.68 651.68 0 0 1-2.617-3.017c.013.005-3.715 1.034-3.715 1.034s-2.376-3.285-2.363-3.28c0 0 2.142-11.766 15.088-21.577l-1.19-8.347c5.57-6.063 11.072.335 11.072.335s4.442-5.807 10.934-.257l-.835 8.269z"/><path fill="#689f38" d="M33.025 58.583c-9.638 7.306-13.285 15.691-14.521 19.5a56.28 56.28 0 0 1-.565-.791s2.108-11.535 14.719-21.288l.367 2.58m9.467 6.294h.302l-.154.111zm10.79-9.016c1.594.89 9.829 6.118 14.471 21.431.004-.001-.274.386-.641.895-5.268-15.384-14.105-19.604-14.105-19.604zm-10.374-5.289s-5.27-6.12-10.715-.7l-.357-2.504c5.57-6.063 11.072.335 11.072.335s4.443-5.807 10.934-.256l-.268 2.65c-6.345-5.165-10.666.474-10.666.474"/><path fill="#ffe7db" d="M61.421 21.108c0 8.805-8.316 15.63-18.575 15.63-10.259 0-18.575-6.825-18.575-15.63S32.587 3.599 42.846 3.599c10.259 0 18.575 8.704 18.575 17.509" data-paper-data="{&quot;origPos&quot;:null}"/><path fill="#fdd835" d="M41.983 11.418 24.285 21.713C24.848 13.24 28.132 0 42.846 0 56.601 0 60.737 12.286 61.3 20.76z"/><path fill="#5d4037" d="M34.398 23.491c0 .856-.7 1.55-1.562 1.55a1.556 1.556 0 0 1-1.562-1.55c0-.856.699-1.55 1.562-1.55.862 0 1.562.694 1.562 1.55"/><path fill="none" stroke="#5d4037" stroke-linecap="round" stroke-linejoin="round" stroke-width=".756" d="m32.826 23.265-1.46-2.28m.634 2.61L29.679 21.7"/><path fill="#5d4037" d="M51.294 23.491c0-.856.7-1.55 1.562-1.55.862 0 1.562.694 1.562 1.55 0 .856-.699 1.55-1.562 1.55a1.556 1.556 0 0 1-1.562-1.55"/><path fill="none" stroke="#5d4037" stroke-linecap="round" stroke-linejoin="round" stroke-width=".756" d="m52.866 23.265 1.46-2.28m-.633 2.61 2.32-1.895"/><path fill="#ef5350" d="M39.381 31.014h6.93c-.692 1.622-1.983 2.715-3.465 2.715-1.482 0-2.772-1.093-3.466-2.715z"/><path fill="#ffccbc" d="M30.046 27.426c2.753 0 4.983 2.215 4.983 4.946 0 .931-.266 1.843-.767 2.628-3.216-1.391-5.878-3.548-7.644-6.211a4.98 4.98 0 0 1 3.428-1.362m29.028 1.362c-1.765 2.663-4.428 4.82-7.644 6.211a4.883 4.883 0 0 1-.768-2.628c0-2.732 2.232-4.946 4.984-4.946a4.98 4.98 0 0 1 3.428 1.363"/><path fill="#fdd835" d="M25.264 19.959s-2.004-13.69 16.72-8.917c0 0-2.516 7.365-16.72 8.917"/><path fill="#fdd835" d="M41.982 11.041c18.351-6.185 18.938 9.126 18.938 9.126-17.42-1.362-18.937-9.125-18.937-9.125"/></g></svg>