<svg xmlns="http://www.w3.org/2000/svg" xmlns:xlink="http://www.w3.org/1999/xlink" width="120" height="120"><defs><path id="a" d="M.394.583h69.56v41.151H.394z"/><path id="c" d="M0 .584h15.801v37.83H0z"/><path id="e" d="M.684.584h15.802v37.83H.684z"/><path id="g" d="M0 104.417h119.9V.854H0z"/></defs><g fill="none" fill-rule="evenodd" transform="translate(0 7)"><g transform="translate(39.429 .27)"><mask id="b" fill="#fff"><use xlink:href="#a"/></mask><path fill="#4D4D4D" d="M63.794.583H6.555C3.152.583.395 3.331.395 6.72v15.244h6.592V8.106a.96.96 0 0 1 .961-.958h54.453c.53 0 .962.43.962.958v33.628h6.591V6.72c0-3.39-2.758-6.137-6.16-6.137" mask="url(#b)"/></g><g transform="translate(0 66.002)"><mask id="d" fill="#fff"><use xlink:href="#c"/></mask><path fill="#40607A" d="M3.67 38.415H0L12.133.585H15.8z" mask="url(#d)"/></g><g transform="translate(68.571 66.002)"><mask id="f" fill="#fff"><use xlink:href="#e"/></mask><path fill="#40607A" d="M12.816 38.415h3.67L4.353.585H.684z" mask="url(#f)"/></g><mask id="h" fill="#fff"><use xlink:href="#g"/></mask><path fill="#FFB832" d="M34.271 31.734h16.515v-9.5H34.27z" mask="url(#h)"/><path fill="#40607A" d="M100.005 65.142h12.211V39.748h-12.21z" mask="url(#h)"/><path fill="#736357" d="M92.32 104.417h27.58V66.541H92.32z" mask="url(#h)"/><path fill="#871417" d="M92.32 66.686s0-6.503 13.791-6.503c13.79 0 13.79 6.503 13.79 6.503H92.32zm-14.101-2.187c0 19.63-15.978 35.543-35.69 35.543-19.712 0-35.69-15.913-35.69-35.543 0-19.632 15.978-35.548 35.69-35.548 19.712 0 35.69 15.916 35.69 35.548" mask="url(#h)"/><path fill="#40607A" d="M13.988 104.417h-3.67l10.778-37.83h3.67zm57.082 0h3.668L63.96 66.587h-3.67z" mask="url(#h)"/><path fill="#FFB832" d="M3.105 67.279h78.846v-5.562H3.105z" mask="url(#h)"/></g></svg>