<svg xmlns="http://www.w3.org/2000/svg" width="70.408" height="115.791"><g fill-rule="evenodd" stroke-miterlimit="10" data-paper-data="{&quot;isPaintingLayer&quot;:true}" style="mix-blend-mode:normal"><path fill="#be9268" d="M63.567 57.911c3.574 4.536 4.937 18.195 4.937 18.195s0-.02-.004-.057c.453.664.779 1.52.883 2.477.239 2.285-.85 4.274-2.447 4.445-1.048.104-2.038-.59-2.67-1.716-.583.482-1.18.68-1.602.458-.781-.411-.687-2.12.217-3.804a6.292 6.292 0 0 1 1.17-1.599c.033-.069.072-.136.106-.204 0 0-1.544-9.866-3.201-12.198-.836-1.17-1.37-1.825-1.552-2.344-.152-.418-.32-1.21-.39-1.514-.527-2.337-3.44-7.622-3.44-7.622s6.27 3.271 7.993 5.483M15.436 42.704c1.17-.497 2.574-.04 3.706 1.05.51-.773 1.116-1.203 1.688-1.097 1.052.208 1.547 2.212 1.105 4.482-.178.871-.458 1.654-.797 2.273a3.76 3.76 0 0 1-.203.808l5.347 6.256 11.34-4.048s-1.927 3.054-2.406 4.16c-.345.816-1.014 3.378-1.014 3.378s-8.281 3.358-10.638 2.509c-2.895-1.044-6.236-10.483-6.236-10.483v-.004c-1.247-.44-2.46-1.632-3.164-3.274-1.086-2.57-.512-5.257 1.272-6.01" data-paper-data="{&quot;origPos&quot;:null}"/><path fill="#f08314" d="M63.746 75.653s-1.262-9.423-2.913-11.757c-.085-.122-.167-.234-.246-.344 1.623 9.542 1.42 21.104 1.42 21.104H31.082s-.303-14.442 1.963-24.242c-.566.258-7.321 2.918-9.57 2.104-2.905-1.048-7.19-10.013-7.19-10.013l4.636-2.279 5.394 6.234 10.276-4.006c2.02-1.317 8.173-1.535 8.173-1.535l1.71.053h.14l1.707-.053s6.13.2 8.169 1.51c.822.456 5.39 3.02 6.962 5.025 3.566 4.546 5.12 18.202 5.12 18.202l-4.826-.004"/><path fill="#b96316" d="M19.48 108.741h-2.23V32.226c.342-.442 1.912-.454 2.23 0v76.515z"/><path fill="#b96316" d="M35.82 108.931H.786v-2.15c2.42-.689 32.1-.634 35.036 0z"/><path fill="#6e6e6d" d="M36.403 112.99c-.515.625-35.62.804-36.193 0-.7-.987.574-4.819.574-4.819H35.82s1.34 3.877.582 4.82"/><path fill="#333433" d="m1.305 113.199-.053-.006.48-4.039.07.006zm1.553.098h-.07l.135-4.142h.065zm1.344.063h-.07l.192-4.074h.06zm1.614.054-.061-.007.073-4.121h.06zm1.448.032-.06-.006.18-3.973h.066zm1.467.082-.027-4.062h.07l.027 4.062zm1.284-.041h-.062l.058-4.02h.059zm1.2.006h.067v-4.052h-.067zm1.416 0h-.06l.05-4.026h.06zm1.4-.006h-.058l.075-4.046h.065zm1.592.013-.067-.006.134-4.029h.06zm1.528 0-.06-.006.14-4.029h.058zm1.527.028-.028-4.062h.063l.024 4.062zm1.69-.035-.11-4.026h.069l.1 4.026zm1.85-.006-.083-4.046h.069l.083 4.046zm1.498 0-.04-4.046h.066l.04 4.046zm2.022-.041-.165-4.005h.067l.158 4zm1.69-.032-.137-4.128h.062l.132 4.12zm1.873-.016-.234-4.111h.065l.233 4.105zm1.826-.101-.21-4.01h.064l.208 4.01zm2.219-.027-.37-3.984.068-.006.36 3.986zm1.72-.183-.418-3.8.05-.006.433 3.798z"/><path fill="#be9268" d="M22.002 46.858c-.321 2.163-1.402 3.804-2.418 3.653-.994-.151-1.546-2.027-1.225-4.2.326-2.166 1.405-3.804 2.41-3.655 1 .148 1.557 2.031 1.233 4.202" data-paper-data="{&quot;origPos&quot;:null}"/><path fill="#333433" d="M56.462 110.019c1.753 1.077 3.025 3.352 1.525 5.151-1.133 1.26-2.801.3-4.071-.236-1.404-.666-3.002-1.11-4.27-1.976-.81-.572-1.785-1.252-2.337-2.105-.168-.262-.253-.584-.19-.834zm-19.953 0c-1.752 1.077-3.022 3.352-1.527 5.151 1.136 1.26 2.809.3 4.079-.236 1.394-.666 2.997-1.11 4.258-1.976.818-.572 1.787-1.252 2.339-2.105.17-.262.248-.584.195-.834z"/><path fill="#f08314" d="m58.567 84.66-1.907 25.42h-9.658l-.375-18.381h-.282l-.37 18.38h-9.67l-1.9-25.419z"/><path fill="#eeeeed" d="M56.964 106.014H46.92l-.054-2.475H57.15zm-21.144-2.476h10.29l-.054 2.476H36.01zm20.994 4.506H46.96l-.03-1.264h9.982zm-20.751-1.265h9.978l-.03 1.264h-9.85z"/><path fill="#b96316" d="M31.083 84.655c-.012-.093-.034-1.523 0-3.743h30.91c.04 2.235.014 3.677.014 3.743H31.083"/><path fill="#eeeeed" d="M60.61 63.664c.14.822.264 1.647.369 2.475H32.047c.108-.827.229-1.652.363-2.475h28.2m.463 3.235c.057.425.106.85.15 1.27h-29.42c.043-.42.097-.845.14-1.27h29.13M28.365 55.661l2.328-.904 1.583 5.967c-.776.294-1.558.569-2.347.824zm.836 6.111c-.397.122-.807.242-1.217.348l-1.521-5.712 1.19-.471zm36.816 1.242c.245.792.47 1.59.674 2.393l-4.834.89c-.305-.991-.635-1.815-.982-2.335l5.142-.948m.855 3.133c.103.41.197.823.282 1.237l-4.761.873a62.013 62.013 0 0 0-.32-1.23l4.799-.88"/><path fill="#be9268" d="M50.402 51.067a32.569 32.569 0 0 0-1.92-.148l-1.7.056h-.144l-1.71-.087c-.693.04-1.384.1-2.073.183l3.834 3.954zm18.13-20.065c1.13.728 1.876 1.972 1.876 3.384 0 2.233-1.888 4.056-4.23 4.056-.07 0-.14 0-.197-.006a22.191 22.191 0 0 1-19.39 11.36c-8.34 0-15.602-4.589-19.395-11.376a4.432 4.432 0 0 1-.461.022c-2.347 0-4.243-1.823-4.243-4.056 0-1.522.864-2.839 2.14-3.538a23.172 23.172 0 0 1-.216-3.17c0-12.214 9.92-22.117 22.175-22.117 12.262 0 22.184 9.903 22.184 22.117a22.57 22.57 0 0 1-.243 3.324" data-paper-data="{&quot;origPos&quot;:null}"/><path fill="#333433" d="M42.312 25.65s-.503 1.803-2.082 1.446c-.772-.174-.908-1.201-3.386-.74-.78.18-2.417 1.156-2.732 1.808-.316.652-.088-2.392 2.457-3.522 1.835-.675 2.457-.642 3.977-.642s1.987.907 1.766 1.65m9.74 0s.504 1.803 2.083 1.446c.772-.174.908-1.201 3.386-.74.779.18 2.417 1.156 2.732 1.808.316.652.087-2.392-2.457-3.522-1.835-.675-2.457-.642-3.977-.642s-1.987.907-1.766 1.65M40 33c0 1.657-.895 3-2 3s-2-1.343-2-3 .895-3 2-3 2 1.343 2 3m18 0c0 1.657-.895 3-2 3s-2-1.343-2-3 .895-3 2-3 2 1.343 2 3"/><path fill="#eeac6c" d="M47.02 36.069c-1.124.153-3.02 1.834-3.02 1.834s.208-1.009.504-1.299C45.304 35.448 46.99 35 46.99 35s2.173.703 2.65 1.588c.443.824.34 1.238.34 1.238s-2.121-1.871-2.96-1.756z"/><path fill="#8d3737" d="M40.2 39.696s6.898 3.208 13.173-.397c0 0-1.39 5.47-5.95 5.561-4.115.122-4.984-1.492-5.477-1.956-.492-.463-1.42-1.772-1.745-3.208" data-paper-data="{&quot;origPos&quot;:null}"/><path fill="#333433" d="M69.66 24.795c.032 2.599-.877 8.218-2.654 11.563 0 0-4.368-12.305-7.952-14.255-4.394-2.383-15.98 1.05-19.901-2.033-.657-.519-.583-1.675-.583-1.675s-.755 1.481-1.11 1.888c-1.907 2.154-6.837 5.284-9.174 6.964-1.888 1.342-1.971 1.327-1.553 9.111 0 0-3.461-7.08-3.277-11.807.052-1.362.723-4.382 1.802-7.451 3.904-7.81 11.99-13.183 21.334-13.183 10.743 0 19.823 7.086 22.803 16.812.15 1.35.24 2.707.266 4.066"/><path fill="#be9268" d="M44.866 52.328c-1.032 0-1.876-2.218-1.876-3.23h7.376c0 1.012-.84 3.23-1.876 3.23h-3.624" data-paper-data="{&quot;origPos&quot;:null}"/><path fill="#eeac6c" d="M43.777 51.644c-.408-.631-.702-1.508-.773-2.145 1.172.197 2.373.297 3.588.297a23.1 23.1 0 0 0 3.765-.318l-.014.016-6.566 2.15"/><path fill="#f08314" d="M50.93 49.889s1.255 1.115 1.38 1.444c.122.324-4.044 6.271-3.827 5.404.213-.875-1.844-1.72-1.844-1.72z"/><path fill="#b96316" d="M46.689 55.002c.296.126 2.02.917 1.82 1.742 0 .02-.005.04-.005.048.19-.07 1.35-1.599 2.487-3.276.929-1.384 1.32-2.088 1.288-2.178-.115-.285-1.166-1.247-1.343-1.404zm1.766 1.839a.157.157 0 0 1-.01-.11c.21-.832-1.797-1.677-1.817-1.687l-.037-.014 4.33-5.189.03.03c.054.04 1.26 1.119 1.387 1.449.079.208-1.203 2.104-1.602 2.678-.084.116-1.97 2.853-2.242 2.853a.105.105 0 0 1-.04-.01z" data-paper-data="{&quot;origPos&quot;:null}"/><path fill="#f08314" d="M46.716 55.017s-2.05.845-1.834 1.72c.213.867-3.956-5.08-3.828-5.404.119-.329 1.375-1.444 1.375-1.444z"/><path fill="#b96316" d="m42.422 49.935 4.236 5.068c-.29.126-2.016.915-1.813 1.742.006.018.006.038.006.045-.185-.066-1.341-1.592-2.473-3.264-.94-1.393-1.323-2.097-1.3-2.19.11-.283 1.17-1.244 1.343-1.401zm2.439 6.916a.071.071 0 0 0 .044-.011c.02-.024.02-.057.005-.109-.203-.833 1.79-1.676 1.82-1.686l.04-.014-4.341-5.189-.027.028c-.048.041-1.255 1.121-1.383 1.451-.08.208 1.21 2.111 1.61 2.685.084.116 1.964 2.845 2.232 2.845zM24.036 21.413s8.005-7.137 22.414-7.137c11.865 0 22.864 7.137 22.864 7.137-4.388 10.668-41.231 10.544-45.278 0"/><path fill="#f08314" d="M23.98 21.44C21.664 19.126 29.39 0 46.88 0c16.943 0 24.938 18.947 22.434 21.44-23.541-6.083-45.332 0-45.332 0"/></g></svg>