<svg version="1.1" xmlns="http://www.w3.org/2000/svg" xmlns:xlink="http://www.w3.org/1999/xlink" width="70.40764" height="115.79103" viewBox="0,0,70.40764,115.79103"><g transform="translate(-204.99936,-122)"><g data-paper-data="{&quot;isPaintingLayer&quot;:true}" fill-rule="evenodd" stroke="none" stroke-width="1" stroke-linecap="butt" stroke-linejoin="miter" stroke-miterlimit="10" stroke-dasharray="" stroke-dashoffset="0" style="mix-blend-mode: normal"><path d="M268.566,179.911c3.574,4.536 4.937,18.195 4.937,18.195c0,0 0,-0.02 -0.004,-0.057c0.453,0.664 0.779,1.52 0.883,2.477c0.239,2.285 -0.85,4.274 -2.447,4.445c-1.048,0.104 -2.038,-0.59 -2.67,-1.716c-0.583,0.482 -1.18,0.68 -1.602,0.458c-0.781,-0.411 -0.687,-2.12 0.217,-3.804c0.30311,-0.59145 0.698,-1.13114 1.17,-1.599c0.033,-0.069 0.072,-0.136 0.106,-0.204c0,0 -1.544,-9.866 -3.201,-12.198c-0.836,-1.17 -1.369,-1.825 -1.552,-2.344c-0.152,-0.418 -0.32,-1.21 -0.39,-1.514c-0.527,-2.337 -3.44,-7.622 -3.44,-7.622c0,0 6.27,3.271 7.993,5.483M220.435,164.704c1.17,-0.497 2.574,-0.04 3.706,1.05c0.511,-0.773 1.116,-1.203 1.688,-1.097c1.052,0.208 1.547,2.212 1.105,4.482c-0.178,0.871 -0.458,1.654 -0.797,2.273c-0.03753,0.27602 -0.10561,0.54702 -0.203,0.808l5.347,6.256l11.34,-4.048c0,0 -1.927,3.054 -2.406,4.16c-0.345,0.816 -1.014,3.378 -1.014,3.378c0,0 -8.281,3.358 -10.638,2.509c-2.895,-1.044 -6.236,-10.483 -6.236,-10.483v-0.004c-1.247,-0.44 -2.46,-1.632 -3.164,-3.274c-1.086,-2.57 -0.512,-5.257 1.272,-6.01" data-paper-data="{&quot;origPos&quot;:null}" fill="#be9268"/><path d="M268.745,197.653c0,0 -1.262,-9.423 -2.913,-11.757c-0.085,-0.122 -0.167,-0.234 -0.246,-0.344c1.623,9.542 1.42,21.104 1.42,21.104h-30.925c0,0 -0.303,-14.442 1.963,-24.242c-0.566,0.258 -7.321,2.918 -9.57,2.104c-2.905,-1.048 -7.19,-10.013 -7.19,-10.013l4.636,-2.279l5.394,6.234l10.276,-4.006c2.021,-1.317 8.173,-1.535 8.173,-1.535l1.711,0.053h0.14l1.706,-0.053c0,0 6.13,0.2 8.169,1.51c0.822,0.456 5.39,3.02 6.962,5.025c3.566,4.546 5.12,18.202 5.12,18.202l-4.826,-0.004" fill="#f08314"/><path d="M224.48,230.741h-2.23v-76.515c0.341,-0.442 1.911,-0.454 2.229,0v76.515z" fill="#b96316"/><path d="M240.82,230.931h-35.036v-2.15c2.42,-0.689 32.1,-0.634 35.036,0z" fill="#b96316"/><path d="M241.402,234.99c-0.515,0.625 -35.619,0.804 -36.193,0c-0.699,-0.987 0.574,-4.819 0.574,-4.819h35.037c0,0 1.341,3.877 0.582,4.82" fill="#6e6e6d"/><path d="M206.304,235.199l-0.053,-0.006l0.481,-4.039l0.07,0.006zM207.857,235.297h-0.07l0.135,-4.142h0.065zM209.201,235.36h-0.069l0.191,-4.074h0.061zM210.815,235.414l-0.061,-0.007l0.073,-4.121h0.06zM212.263,235.446l-0.059,-0.006l0.18,-3.973h0.065zM213.73,235.528l-0.027,-4.062h0.07l0.027,4.062zM215.014,235.487h-0.062l0.058,-4.02h0.059zM216.214,235.493h0.067v-4.052h-0.067zM217.63,235.493h-0.06l0.05,-4.026h0.06zM219.031,235.487h-0.059l0.075,-4.046h0.065zM220.622,235.5l-0.067,-0.006l0.134,-4.029h0.061zM222.15,235.5l-0.06,-0.006l0.14,-4.029h0.058zM223.677,235.528l-0.028,-4.062h0.063l0.024,4.062zM225.368,235.493l-0.11,-4.026h0.068l0.1,4.026zM227.217,235.487l-0.083,-4.046h0.069l0.083,4.046zM228.715,235.487l-0.04,-4.046h0.066l0.04,4.046zM230.737,235.446l-0.165,-4.005h0.067l0.158,4zM232.427,235.414l-0.137,-4.128h0.062l0.132,4.12zM234.3,235.398l-0.234,-4.111h0.065l0.233,4.105zM236.126,235.297l-0.209,-4.01h0.063l0.208,4.01zM238.345,235.27l-0.37,-3.984l0.068,-0.006l0.361,3.986zM240.065,235.087l-0.418,-3.8l0.051,-0.006l0.432,3.798z" fill="#333433"/><path d="M227.001,168.858c-0.321,2.163 -1.402,3.804 -2.418,3.653c-0.994,-0.151 -1.546,-2.027 -1.225,-4.2c0.326,-2.166 1.405,-3.804 2.41,-3.655c1,0.148 1.557,2.031 1.233,4.202" data-paper-data="{&quot;origPos&quot;:null}" fill="#be9268"/><path d="M261.461,232.019c1.753,1.077 3.025,3.352 1.525,5.151c-1.133,1.26 -2.801,0.3 -4.071,-0.236c-1.404,-0.666 -3.002,-1.11 -4.27,-1.976c-0.81,-0.572 -1.785,-1.252 -2.337,-2.105c-0.168,-0.262 -0.253,-0.584 -0.19,-0.834zM241.508,232.019c-1.752,1.077 -3.022,3.352 -1.527,5.151c1.136,1.26 2.809,0.3 4.079,-0.236c1.394,-0.666 2.997,-1.11 4.258,-1.976c0.818,-0.572 1.787,-1.252 2.339,-2.105c0.171,-0.262 0.248,-0.584 0.195,-0.834z" fill="#333433"/><path d="M263.566,206.66l-1.907,25.42h-9.658l-0.375,-18.381h-0.282l-0.37,18.38h-9.67l-1.9,-25.419z" fill="#f08314"/><path d="M261.963,228.014h-10.044l-0.054,-2.475h10.285zM240.819,225.538h10.29l-0.054,2.476h-10.046zM261.813,230.044h-9.853l-0.03,-1.264h9.982zM241.062,228.779h9.978l-0.03,1.264h-9.85z" fill="#eeeeed"/><path d="M236.082,206.655c-0.012,-0.093 -0.034,-1.523 0,-3.743h30.911c0.039,2.235 0.013,3.677 0.013,3.743h-30.924" fill="#b96316"/><path d="M265.61,185.664c0.14019,0.8223 0.26289,1.64749 0.368,2.475h-28.932c0.10828,-0.82682 0.2293,-1.65191 0.363,-2.475h28.201M266.072,188.899c0.057,0.425 0.106,0.85 0.15,1.27h-29.42c0.043,-0.42 0.097,-0.845 0.14,-1.27h29.13M233.364,177.661l2.328,-0.904l1.583,5.967c-0.77534,0.29419 -1.55792,0.56894 -2.347,0.824zM234.2,183.772c-0.397,0.122 -0.807,0.242 -1.217,0.348l-1.521,-5.712l1.19,-0.471zM271.016,185.014c0.24493,0.79182 0.46967,1.58975 0.674,2.393l-4.834,0.89c-0.305,-0.991 -0.635,-1.815 -0.982,-2.335l5.142,-0.948M271.871,188.147c0.10358,0.41009 0.1976,0.82254 0.282,1.237l-4.761,0.873c-0.103,-0.417 -0.213,-0.836 -0.319,-1.23l4.798,-0.88" fill="#eeeeed"/><path d="M255.401,173.067c-1.103,-0.116 -1.92,-0.148 -1.92,-0.148l-1.7,0.056h-0.144l-1.71,-0.087c-0.69274,0.03939 -1.38408,0.10042 -2.073,0.183l3.834,3.954zM273.531,153.002c1.13,0.728 1.876,1.972 1.876,3.384c0,2.233 -1.888,4.056 -4.229,4.056c-0.071,0 -0.14,0 -0.198,-0.006c-3.92643,7.02136 -11.34535,11.36788 -19.39,11.36c-8.34,0 -15.602,-4.589 -19.395,-11.376c-0.151,0.016 -0.309,0.022 -0.461,0.022c-2.347,0 -4.243,-1.823 -4.243,-4.056c0,-1.522 0.864,-2.839 2.14,-3.538c-0.143,-1.035 -0.216,-2.095 -0.216,-3.17c0,-12.214 9.92,-22.117 22.175,-22.117c12.262,0 22.184,9.903 22.184,22.117c0.00103,1.11247 -0.08019,2.2235 -0.243,3.324" data-paper-data="{&quot;origPos&quot;:null}" fill="#be9268"/><path d="M247.311,147.65c0,0 -0.503,1.803 -2.082,1.446c-0.772,-0.174 -0.908,-1.201 -3.386,-0.74c-0.779,0.18 -2.417,1.156 -2.732,1.808c-0.316,0.652 -0.088,-2.392 2.457,-3.522c1.835,-0.675 2.457,-0.642 3.977,-0.642c1.52,0 1.987,0.907 1.766,1.65M257.052,147.65c0,0 0.503,1.803 2.082,1.446c0.772,-0.174 0.908,-1.201 3.386,-0.74c0.779,0.18 2.417,1.156 2.732,1.808c0.316,0.652 0.087,-2.392 -2.457,-3.522c-1.835,-0.675 -2.457,-0.642 -3.977,-0.642c-1.52,0 -1.987,0.907 -1.766,1.65M245,155c0,1.657 -0.895,3 -2,3c-1.105,0 -2,-1.343 -2,-3c0,-1.657 0.895,-3 2,-3c1.105,0 2,1.343 2,3M263,155c0,1.657 -0.895,3 -2,3c-1.105,0 -2,-1.343 -2,-3c0,-1.657 0.895,-3 2,-3c1.105,0 2,1.343 2,3" fill="#333433"/><path d="M252.02,158.069c-1.125,0.153 -3.02,1.834 -3.02,1.834c0,0 0.207,-1.009 0.503,-1.299c0.8,-1.156 2.487,-1.604 2.487,-1.604c0,0 2.173,0.703 2.65,1.588c0.443,0.824 0.34,1.238 0.34,1.238c0,0 -2.121,-1.871 -2.96,-1.756z" fill="#eeac6c"/><path d="M245.2,161.696c0,0 6.897,3.208 13.172,-0.397c0,0 -1.39,5.47 -5.95,5.561c-4.115,0.122 -4.984,-1.492 -5.477,-1.956c-0.492,-0.463 -1.42,-1.772 -1.745,-3.208" data-paper-data="{&quot;origPos&quot;:null}" fill="#8d3737"/><path d="M274.66,146.795c0.031,2.599 -0.878,8.218 -2.655,11.563c0,0 -4.368,-12.305 -7.952,-14.255c-4.394,-2.383 -15.979,1.05 -19.901,-2.033c-0.657,-0.519 -0.583,-1.675 -0.583,-1.675c0,0 -0.755,1.481 -1.11,1.888c-1.907,2.154 -6.837,5.284 -9.174,6.964c-1.888,1.342 -1.971,1.327 -1.553,9.111c0,0 -3.461,-7.08 -3.277,-11.807c0.052,-1.362 0.723,-4.382 1.802,-7.451c3.904,-7.81 11.991,-13.183 21.334,-13.183c10.743,0 19.823,7.086 22.803,16.812c0.15119,1.35052 0.23995,2.7073 0.266,4.066" fill="#333433"/><path d="M249.865,174.328c-1.032,0 -1.876,-2.218 -1.876,-3.23h7.376c0,1.012 -0.84,3.23 -1.876,3.23h-3.624" data-paper-data="{&quot;origPos&quot;:null}" fill="#be9268"/><path d="M248.776,173.644c-0.408,-0.631 -0.702,-1.508 -0.773,-2.145c1.172,0.197 2.373,0.297 3.588,0.297c1.26158,-0.00301 2.52079,-0.10937 3.765,-0.318l-0.014,0.016l-6.566,2.15" fill="#eeac6c"/><path d="M255.93,171.889c0,0 1.254,1.115 1.38,1.444c0.121,0.324 -4.045,6.271 -3.828,5.404c0.213,-0.875 -1.844,-1.72 -1.844,-1.72z" fill="#f08314"/><path d="M251.688,177.002c0.296,0.126 2.02,0.917 1.82,1.742c0,0.02 -0.005,0.04 -0.005,0.048c0.19,-0.07 1.35,-1.599 2.487,-3.276c0.929,-1.384 1.321,-2.088 1.288,-2.178c-0.115,-0.285 -1.166,-1.247 -1.343,-1.404zM253.454,178.841c-0.01655,-0.03425 -0.0201,-0.07333 -0.01,-0.11c0.21,-0.832 -1.797,-1.677 -1.817,-1.687l-0.037,-0.014l4.33,-5.189l0.03,0.03c0.054,0.04 1.26,1.119 1.387,1.449c0.079,0.208 -1.203,2.104 -1.602,2.678c-0.084,0.116 -1.97,2.853 -2.242,2.853c-0.01386,-0.00066 -0.02746,-0.00406 -0.04,-0.01z" data-paper-data="{&quot;origPos&quot;:null}" fill="#b96316"/><path d="M251.715,177.017c0,0 -2.05,0.845 -1.834,1.72c0.213,0.867 -3.956,-5.08 -3.828,-5.404c0.119,-0.329 1.375,-1.444 1.375,-1.444z" fill="#f08314"/><path d="M247.421,171.935l4.236,5.068c-0.29,0.126 -2.016,0.915 -1.813,1.742c0.006,0.018 0.006,0.038 0.006,0.045c-0.185,-0.066 -1.341,-1.592 -2.473,-3.264c-0.94,-1.393 -1.323,-2.097 -1.3,-2.19c0.111,-0.283 1.17,-1.244 1.343,-1.401zM249.86,178.851c0.01547,0.00124 0.03093,-0.00262 0.044,-0.011c0.021,-0.024 0.021,-0.057 0.005,-0.109c-0.203,-0.833 1.791,-1.676 1.82,-1.686l0.04,-0.014l-4.341,-5.189l-0.027,0.028c-0.048,0.041 -1.255,1.121 -1.383,1.451c-0.08,0.208 1.21,2.111 1.61,2.685c0.084,0.116 1.964,2.845 2.232,2.845zM229.035,143.413c0,0 8.005,-7.137 22.414,-7.137c11.865,0 22.864,7.137 22.864,7.137c-4.388,10.668 -41.231,10.544 -45.278,0" fill="#b96316"/><path d="M228.98,143.44c-2.318,-2.314 5.41,-21.44 22.899,-21.44c16.943,0 24.938,18.947 22.434,21.44c-23.541,-6.083 -45.332,0 -45.332,0" fill="#f08314"/></g></g></svg>