<svg xmlns="http://www.w3.org/2000/svg" width="58.048" height="117.012"><g fill-rule="evenodd" stroke-miterlimit="10" data-paper-data="{&quot;isPaintingLayer&quot;:true}" style="mix-blend-mode:normal"><path fill="#eeac6c" d="M5.395 80.494c3.573 0 4.213 2.91 4.213 6.486l-.002 7.52H8.079v-7.52c0-2.733.047-4.955-2.684-4.955-2.734 0-2.794 2.224-3.545 4.944-.21.767-.96 1.154-1.527 0-1.295-2.638 1.494-6.475 5.072-6.475"/><path fill="#2e6684" d="M8.865 116.895 4.283 90.143c2.397 2.26 4.582 0 4.582 0s2.218 2.54 4.582 0l-4.582 26.754z"/><path fill="#343434" d="M16.783 111.54c-1.68 1.04-2.904 3.153-1.462 4.882 1.09 1.218 2.69.253 3.91-.262 1.344-.64 2.88-1.091 4.1-1.923.786-.55 1.71-1.14 2.24-1.96.166-.253.244-.493.184-.737zm19.167 0c1.685 1.04 2.905 3.153 1.465 4.882-1.09 1.218-2.692.253-3.91-.262-1.346-.64-2.884-1.091-4.1-1.923-.788-.55-1.71-1.14-2.242-1.96-.164-.253-.242-.493-.184-.737z"/><path fill="#fff" d="M26.28 84.81s.938 3.827 4.065 4.253h-8.452c3.547-.366 4.387-4.253 4.387-4.253"/><path fill="#4f4f4f" d="m37.974 87.11-1.834 24.429h-9.284l-.353-17.713h-.27l-.353 17.714h-9.284l-1.833-24.43h14.596z"/><path fill="#e9c7a1" d="M4.598 81.177c.23-2.2 1.665-3.85 3.193-3.69.825.088 1.507.681 1.93 1.55.402.396.795.922 1.126 1.54.86 1.63.949 3.27.198 3.667-.4.213-.962.027-1.53-.44-.61 1.087-1.566 1.755-2.564 1.649-1.53-.162-2.584-2.078-2.353-4.276m46.525-34.568c.54-.104 1.125.31 1.62 1.051 1.088-1.046 2.432-1.484 3.554-1.009 1.72.73 2.267 3.32 1.22 5.787-1.046 2.469-3.286 3.88-5.006 3.153-.923-.393-1.51-1.32-1.69-2.477a7.777 7.777 0 0 1-.762-2.185c-.424-2.189.052-4.122 1.065-4.32" data-paper-data="{&quot;origPos&quot;:null}"/><path fill="#343434" d="m50.938 53.914 4.46 2.198s-4.12 8.645-6.91 9.655c-2.004.727-8.517-1.742-9.936-2.3 2.425 9.456 2.71 23.702 2.71 23.702h.006l.065 1.894h-10.99c-3.126-.427-4.064-4.254-4.064-4.254s-.84 3.887-4.384 4.254H11.524l.033-1.902s.254-12.524 2.285-21.874c-.218.434-.571.987-1.147 1.802-1.59 2.247-2.796 11.752-2.796 11.752l-4.46.004s1.314-13.158 4.738-17.533c1.667-2.129 7.678-5.278 7.678-5.278v.007c1.924-1.216 6.847-1.433 6.847-1.433l1.642.07h.135l1.638-.056s5.029.185 6.909 1.43c-.01-.011-.011-.019-.011-.019l10.869 3.95 5.053-6.069z"/><path fill="#fff" d="m26.44 72.549-.702-1.014-1.798-4.096-2.096-12.55c1.538-.227 2.858-.28 2.858-.28l1.64.068h.138l1.638-.053s1.469.045 3.117.293l-2.36 12.52-1.94 4.378z"/><path fill="#0771b7" d="M28.467 63.901c.023 1.502-.896 5.938-.896 5.938l-1.13 2.68-1.154-2.809s-.877-4.336-.87-5.803c.004-1.397.87-5.524.87-5.524-.475-.318-.871-2.114-.871-2.114l2.027-1.59 1.836 1.591s-.376 1.753-.812 2.113c0 0 .978 4.116 1 5.518"/><path fill="#fff" d="M26.419 54.739c0 1.22-3.307 3.648-3.307 3.648l-.024-.044c-.218.189-.46.298-.758.242-.487-.08-.351-.32-.594-.671-.27-.351-.517-.455-.65-.942-.158-.627-.163-1.293-.113-1.925 1.877-.346 3.73-.408 3.73-.408l1.64.1h.076"/><path fill="#666767" d="M21.003 55.06c-.058.746-.02 1.366.113 1.897.093.332.235.485.404.66.078.08.158.167.24.274.082.122.122.226.158.32.067.182.109.293.418.344.26.05.493-.029.733-.235l.018-.018.024.031c.267-.2 3.222-2.433 3.276-3.596h-.045l-1.642-.086c-.015.002-1.853.073-3.698.409m1.478 3.569a.939.939 0 0 1-.155-.014c-.345-.058-.398-.2-.465-.382a1.283 1.283 0 0 0-.151-.307 2.893 2.893 0 0 0-.233-.264c-.174-.185-.325-.342-.42-.689-.136-.544-.174-1.178-.114-1.942l.003-.022.02-.003a28.976 28.976 0 0 1 3.737-.413l1.64.084h.09v.012c0 1.222-3.174 3.595-3.31 3.695l-.015.016-.022-.02c-.196.169-.392.249-.605.249"/><path fill="#fff" d="M31.475 57.178c-.297.811-.786 1.182-1.622 1.182l-.075.027s-3.307-2.429-3.307-3.649h.009l1.638-.085c1.22.033 2.438.15 3.644.349.205.669-.064 1.58-.287 2.176"/><path fill="#666767" d="M26.5 54.717c.053 1.166 3.084 3.46 3.286 3.61l.06-.008c.827-.002 1.304-.347 1.6-1.151.342-.911.44-1.631.289-2.136a28.844 28.844 0 0 0-3.616-.373zm3.27 3.675-.015-.009c-.136-.1-3.322-2.473-3.322-3.695v-.011h.046l1.64-.07c.018 0 1.82.054 3.647.372h.018l.004.016c.16.522.065 1.26-.284 2.193-.305.824-.811 1.191-1.651 1.191l-.083.013z"/><path fill="#4f4f4f" d="M26.46 72.56c-3.867-2.54-6.22-11.287-6.22-11.287l1.047-2.018-2.058-.524-.502-3.116c1.086-.413 2.533-.666 3.73-.815.923 5.104 4.003 17.76 4.003 17.76"/><path fill="#4f4f4f" d="M26.42 72.56S29.5 59.904 30.424 54.8c1.198.149 2.642.402 3.73.815l-.501 3.116-2.058.524 1.047 2.018s-2.353 8.747-6.22 11.287m.705 2.979a.59.59 0 1 1-1.18-.003.59.59 0 0 1 1.18.003m0 2.624a.593.593 0 0 1-.59.593.592.592 0 0 1 0-1.182.59.59 0 0 1 .59.589m0 2.689a.592.592 0 1 1-1.184-.004.592.592 0 0 1 1.184.004"/><path fill="#e9c7a1" d="M47.45 35.318c1.089.702 1.807 1.898 1.807 3.255 0 2.163-1.82 3.914-4.07 3.914-.062 0-.122-.002-.188-.005-3.64 6.525-10.614 10.938-18.616 10.938-8.013 0-14.993-4.422-18.632-10.96-.148.017-.3.027-.45.027-2.25 0-4.07-1.751-4.07-3.914 0-1.46.83-2.733 2.06-3.404-.141-1-.215-2.02-.215-3.056 0-11.768 9.54-21.306 21.307-21.306S47.69 20.345 47.69 32.113c0 1.073-.08 2.144-.24 3.205" data-paper-data="{&quot;origPos&quot;:null}"/><path fill="#815a20" d="M19.912 31.351c-.772-.174-.908-1.201-3.386-.74-.78.18-2.417 1.156-2.732 1.808-.316.652-.088-2.392 2.457-3.522 1.835-.675 2.457-.642 3.977-.642s1.987.907 1.766 1.65c0 0-.503 1.803-2.082 1.446zm13.905 0c.772-.174.908-1.201 3.386-.74.779.18 2.417 1.156 2.732 1.808.316.652.087-2.392-2.457-3.522-1.835-.675-2.457-.642-3.977-.642s-1.987.907-1.766 1.65c0 0 .503 1.803 2.082 1.446z" data-paper-data="{&quot;origPos&quot;:null}"/><path fill="#74501c" d="M19.683 37.255c0 1.657-.895 3-2 3s-2-1.343-2-3 .895-3 2-3 2 1.343 2 3m18 0c0 1.657-.895 3-2 3s-2-1.343-2-3 .895-3 2-3 2 1.343 2 3" data-paper-data="{&quot;origPos&quot;:null}"/><path fill="#eeac6c" d="M26.703 40.324c-1.125.153-3.02 1.834-3.02 1.834s.207-1.009.503-1.299c.8-1.156 2.487-1.604 2.487-1.604s2.173.703 2.65 1.588c.443.824.34 1.238.34 1.238s-2.121-1.871-2.96-1.756zM19.883 43.951s6.897 3.208 13.172-.397c0 0-1.39 5.47-5.95 5.561-4.115.122-4.984-1.492-5.477-1.956-.492-.463-1.42-1.772-1.745-3.208M12.595 43.343a.475.475 0 1 1-.946.002.475.475 0 0 1 .946-.002m2.016-.488a.474.474 0 1 1 0-.001m-.488 1.529a.475.475 0 0 1-.947 0c0-.26.214-.474.474-.474s.473.214.473.474m24.768-.734a.47.47 0 0 0 .806.335c.089-.089.14-.21.14-.335a.474.474 0 0 0-.946 0m-2.016-.488c0 .26.213.473.473.473a.475.475 0 0 0 0-.947.475.475 0 0 0-.473.474m.49 1.525c0 .263.21.476.47.476a.474.474 0 0 0 0-.947c-.26 0-.47.211-.47.471"/><path fill="#815a20" d="M48.532 29.336c.033 2.504-.84 7.918-2.547 11.146 0 0-4.19-11.86-7.642-13.74C34.125 24.447 23 27.758 19.229 24.78c-.625-.493-.555-1.611-.555-1.611s-.722 1.425-1.07 1.822c-1.826 2.078-6.564 5.089-8.812 6.705-1.807 1.3-1.892 1.286-1.492 8.786 0 0-3.324-6.824-3.14-11.38.054-1.312.689-4.224 1.725-7.182 3.748-7.526 11.52-12.695 20.498-12.695 10.312 0 19.032 6.821 21.894 16.194a41 41 0 0 1 .254 3.916" data-paper-data="{&quot;origPos&quot;:null}"/><path fill="#e9c7a1" d="M24.717 56.021c-.992 0-1.802-2.138-1.802-3.113h7.087c0 .975-.807 3.113-1.805 3.113h-3.48" data-paper-data="{&quot;origPos&quot;:null}"/><path fill="#eeac6c" d="M23.676 55.205a5.13 5.13 0 0 1-.745-2.064c2.337.378 4.72.37 7.056-.024l-.011.01-6.3 2.078"/><path fill="#343434" d="M6.747 20.611C8.104 10.931 6.553 0 26.477 0c19.74 0 18.398 10.953 19.74 20.657.123.9-39.6.867-39.47-.046"/><path fill="#5c5c5c" d="M45.707 16.199c.162 1.464.305 2.993.51 4.458H6.767v-.147c.182-1.429.33-2.907.48-4.311h38.46"/><path fill="#343434" d="M49.887 21.205a2.197 2.197 0 0 1-2.2 2.198H5.422a2.197 2.197 0 1 1 0-4.395h42.265c1.215 0 2.2.984 2.2 2.197"/></g></svg>