<svg version="1.1" xmlns="http://www.w3.org/2000/svg" xmlns:xlink="http://www.w3.org/1999/xlink" width="58.04832" height="117.01163" viewBox="0,0,58.04832,117.01163"><g transform="translate(-211.31745,-121.745)"><g data-paper-data="{&quot;isPaintingLayer&quot;:true}" fill-rule="evenodd" stroke="none" stroke-width="1" stroke-linecap="butt" stroke-linejoin="miter" stroke-miterlimit="10" stroke-dasharray="" stroke-dashoffset="0" style="mix-blend-mode: normal"><path d="M216.712,202.239c3.573,0 4.213,2.91 4.213,6.486l-0.002,7.52h-1.527v-7.52c0,-2.733 0.047,-4.955 -2.684,-4.955c-2.734,0 -2.794,2.224 -3.545,4.944c-0.209,0.767 -0.96,1.154 -1.527,0c-1.295,-2.638 1.494,-6.475 5.072,-6.475" fill="#eeac6c"/><path d="M220.182,238.64l-4.582,-26.752c2.397,2.26 4.582,0 4.582,0c0,0 2.218,2.54 4.582,0l-4.582,26.754z" fill="#2e6684"/><path d="M228.1,233.285c-1.68,1.04 -2.904,3.153 -1.462,4.882c1.09,1.218 2.691,0.253 3.91,-0.262c1.344,-0.64 2.881,-1.091 4.1,-1.923c0.786,-0.55 1.71,-1.14 2.241,-1.96c0.165,-0.253 0.243,-0.493 0.183,-0.737zM247.267,233.285c1.685,1.04 2.905,3.153 1.465,4.882c-1.09,1.218 -2.692,0.253 -3.91,-0.262c-1.346,-0.64 -2.884,-1.091 -4.1,-1.923c-0.788,-0.55 -1.71,-1.14 -2.242,-1.96c-0.164,-0.253 -0.242,-0.493 -0.184,-0.737z" fill="#343434"/><path d="M237.597,206.555c0,0 0.938,3.827 4.065,4.253h-8.452c3.547,-0.366 4.387,-4.253 4.387,-4.253" fill="#ffffff"/><path d="M249.291,208.855l-1.834,24.429h-9.284l-0.353,-17.713h-0.269l-0.354,17.714h-9.284l-1.833,-24.43h14.596z" fill="#4f4f4f"/><path d="M215.915,202.922c0.231,-2.2 1.665,-3.85 3.193,-3.69c0.825,0.088 1.507,0.681 1.93,1.55c0.402,0.396 0.795,0.922 1.126,1.54c0.86,1.63 0.949,3.27 0.198,3.667c-0.4,0.213 -0.962,0.027 -1.53,-0.44c-0.61,1.087 -1.566,1.755 -2.564,1.649c-1.53,-0.162 -2.584,-2.078 -2.353,-4.276M262.44,168.354c0.54,-0.104 1.125,0.31 1.62,1.051c1.088,-1.046 2.432,-1.484 3.554,-1.009c1.72,0.73 2.267,3.32 1.22,5.787c-1.046,2.469 -3.286,3.88 -5.006,3.153c-0.923,-0.393 -1.51,-1.32 -1.69,-2.477c-0.36154,-0.68626 -0.61839,-1.42274 -0.762,-2.185c-0.424,-2.189 0.052,-4.122 1.065,-4.32" data-paper-data="{&quot;origPos&quot;:null}" fill="#e9c7a1"/><path d="M262.255,175.659l4.46,2.198c0,0 -4.119,8.645 -6.91,9.655c-2.004,0.727 -8.517,-1.742 -9.936,-2.3c2.425,9.456 2.71,23.702 2.71,23.702h0.006l0.065,1.894h-10.989c-3.127,-0.427 -4.065,-4.254 -4.065,-4.254c0,0 -0.84,3.887 -4.384,4.254h-10.371l0.033,-1.902c0,0 0.254,-12.524 2.285,-21.874c-0.218,0.434 -0.571,0.987 -1.147,1.802c-1.589,2.247 -2.796,11.752 -2.796,11.752l-4.46,0.004c0,0 1.314,-13.158 4.738,-17.533c1.667,-2.129 7.678,-5.278 7.678,-5.278v0.007c1.924,-1.216 6.847,-1.433 6.847,-1.433l1.642,0.07h0.135l1.638,-0.056c0,0 5.029,0.185 6.909,1.43c-0.009,-0.011 -0.011,-0.019 -0.011,-0.019l10.869,3.95l5.053,-6.069z" fill="#343434"/><path d="M237.757,194.294l-0.702,-1.014l-1.798,-4.096l-2.096,-12.55c1.538,-0.227 2.858,-0.28 2.858,-0.28l1.64,0.068h0.138l1.638,-0.053c0,0 1.469,0.045 3.117,0.293l-2.36,12.52l-1.94,4.378z" fill="#ffffff"/><path d="M239.784,185.646c0.023,1.502 -0.896,5.938 -0.896,5.938l-1.13,2.68l-1.154,-2.809c0,0 -0.877,-4.336 -0.87,-5.803c0.004,-1.397 0.87,-5.524 0.87,-5.524c-0.475,-0.318 -0.871,-2.114 -0.871,-2.114l2.027,-1.59l1.836,1.591c0,0 -0.376,1.753 -0.812,2.113c0,0 0.978,4.116 1,5.518" fill="#0771b7"/><path d="M237.736,176.484c0,1.22 -3.307,3.648 -3.307,3.648l-0.024,-0.044c-0.218,0.189 -0.46,0.298 -0.758,0.242c-0.487,-0.08 -0.351,-0.32 -0.594,-0.671c-0.27,-0.351 -0.517,-0.455 -0.65,-0.942c-0.158,-0.627 -0.163,-1.293 -0.113,-1.925c1.877,-0.346 3.73,-0.408 3.73,-0.408l1.64,0.1h0.076" fill="#ffffff"/><path d="M232.32,176.805c-0.058,0.746 -0.02,1.366 0.113,1.897c0.093,0.332 0.235,0.485 0.404,0.66c0.078,0.08 0.158,0.167 0.24,0.274c0.082,0.122 0.122,0.226 0.158,0.32c0.067,0.182 0.109,0.293 0.418,0.344c0.26,0.05 0.493,-0.029 0.733,-0.235l0.018,-0.018l0.024,0.031c0.267,-0.2 3.222,-2.433 3.276,-3.596h-0.045l-1.642,-0.086c-0.015,0.002 -1.853,0.073 -3.698,0.409M233.797,180.374c-0.05197,-0.00037 -0.10381,-0.00505 -0.155,-0.014c-0.345,-0.058 -0.398,-0.2 -0.465,-0.382c-0.0364,-0.10862 -0.08719,-0.21187 -0.151,-0.307c-0.07223,-0.09265 -0.15005,-0.18081 -0.233,-0.264c-0.174,-0.185 -0.325,-0.342 -0.42,-0.689c-0.136,-0.544 -0.174,-1.178 -0.114,-1.942l0.003,-0.022l0.02,-0.003c1.23541,-0.21842 2.48371,-0.35638 3.737,-0.413l1.64,0.084h0.09v0.012c0,1.222 -3.174,3.595 -3.31,3.695l-0.015,0.016l-0.022,-0.02c-0.196,0.169 -0.392,0.249 -0.605,0.249" fill="#666767"/><path d="M242.792,178.923c-0.297,0.811 -0.786,1.182 -1.622,1.182l-0.075,0.027c0,0 -3.307,-2.429 -3.307,-3.649h0.009l1.638,-0.085c1.2212,0.03318 2.4387,0.14978 3.644,0.349c0.205,0.669 -0.064,1.58 -0.287,2.176" fill="#ffffff"/><path d="M237.818,176.462c0.052,1.166 3.083,3.46 3.285,3.61l0.06,-0.008c0.827,-0.002 1.304,-0.347 1.6,-1.151c0.342,-0.911 0.44,-1.631 0.289,-2.136c-1.19629,-0.20024 -2.40402,-0.32482 -3.616,-0.373zM241.088,180.137l-0.016,-0.009c-0.136,-0.1 -3.322,-2.473 -3.322,-3.695v-0.011h0.046l1.64,-0.07c0.018,0 1.82,0.054 3.647,0.372h0.018l0.004,0.016c0.16,0.522 0.065,1.26 -0.284,2.193c-0.305,0.824 -0.811,1.191 -1.651,1.191l-0.083,0.013z" fill="#666767"/><path d="M237.777,194.305c-3.867,-2.54 -6.22,-11.287 -6.22,-11.287l1.047,-2.018l-2.058,-0.524l-0.502,-3.116c1.086,-0.413 2.533,-0.666 3.731,-0.815c0.922,5.104 4.002,17.76 4.002,17.76" fill="#4f4f4f"/><path d="M237.738,194.305c0,0 3.078,-12.656 4.002,-17.76c1.198,0.149 2.642,0.402 3.731,0.815l-0.502,3.116l-2.058,0.524l1.047,2.018c0,0 -2.353,8.747 -6.22,11.287M238.443,197.284c-0.00083,0.32585 -0.26565,0.58933 -0.5915,0.5885c-0.32585,-0.00083 -0.58933,-0.26565 -0.5885,-0.5915c0.00083,-0.32585 0.26565,-0.58933 0.5915,-0.5885c0.32585,0.00083 0.58933,0.26565 0.5885,0.5915M238.443,199.908c0,0.32634 -0.26367,0.59135 -0.59,0.593c-0.31306,-0.01822 -0.55761,-0.27741 -0.55761,-0.591c0,-0.31359 0.24454,-0.57278 0.55761,-0.591c0.32546,0 0.58945,0.26354 0.59,0.589M238.443,202.597c-0.0011,0.32539 -0.26461,0.5889 -0.59,0.59c-0.32695,0 -0.592,-0.26505 -0.592,-0.592c0,-0.32695 0.26505,-0.592 0.592,-0.592c0.326,0 0.59,0.27 0.59,0.594" fill="#4f4f4f"/><path d="M258.767,157.063c1.089,0.702 1.807,1.898 1.807,3.255c0,2.163 -1.82,3.914 -4.07,3.914c-0.062,0 -0.122,-0.002 -0.188,-0.005c-3.64,6.525 -10.614,10.938 -18.616,10.938c-8.013,0 -14.993,-4.422 -18.632,-10.96c-0.148,0.017 -0.3,0.027 -0.45,0.027c-2.249,0 -4.069,-1.751 -4.069,-3.914c0,-1.46 0.829,-2.733 2.06,-3.404c-0.142,-1 -0.216,-2.02 -0.216,-3.056c0,-11.768 9.54,-21.306 21.307,-21.306c11.767,0 21.307,9.538 21.307,21.306c-0.00019,1.07282 -0.08041,2.14412 -0.24,3.205" data-paper-data="{&quot;origPos&quot;:null}" fill="#e9c7a1"/><path d="M231.229,153.096c-0.772,-0.174 -0.908,-1.201 -3.386,-0.74c-0.779,0.18 -2.417,1.156 -2.732,1.808c-0.316,0.652 -0.088,-2.392 2.457,-3.522c1.835,-0.675 2.457,-0.642 3.977,-0.642c1.52,0 1.987,0.907 1.766,1.65c0,0 -0.503,1.803 -2.082,1.446zM245.134,153.096c0.772,-0.174 0.908,-1.201 3.386,-0.74c0.779,0.18 2.417,1.156 2.732,1.808c0.316,0.652 0.087,-2.392 -2.457,-3.522c-1.835,-0.675 -2.457,-0.642 -3.977,-0.642c-1.52,0 -1.987,0.907 -1.766,1.65c0,0 0.503,1.803 2.082,1.446z" data-paper-data="{&quot;origPos&quot;:null}" fill="#815a20"/><path d="M231,159c0,1.657 -0.895,3 -2,3c-1.105,0 -2,-1.343 -2,-3c0,-1.657 0.895,-3 2,-3c1.105,0 2,1.343 2,3M249,159c0,1.657 -0.895,3 -2,3c-1.105,0 -2,-1.343 -2,-3c0,-1.657 0.895,-3 2,-3c1.105,0 2,1.343 2,3" data-paper-data="{&quot;origPos&quot;:null}" fill="#74501c"/><path d="M238.02,162.069c-1.125,0.153 -3.02,1.834 -3.02,1.834c0,0 0.207,-1.009 0.503,-1.299c0.8,-1.156 2.487,-1.604 2.487,-1.604c0,0 2.173,0.703 2.65,1.588c0.443,0.824 0.34,1.238 0.34,1.238c0,0 -2.121,-1.871 -2.96,-1.756z" fill="#eeac6c"/><path d="M231.2,165.696c0,0 6.897,3.208 13.172,-0.397c0,0 -1.39,5.47 -5.95,5.561c-4.115,0.122 -4.984,-1.492 -5.477,-1.956c-0.492,-0.463 -1.42,-1.772 -1.745,-3.208" fill="#eeac6c"/><path d="M223.912,165.088c0.00001,0.26172 -0.21128,0.47435 -0.473,0.476c-0.26234,0 -0.475,-0.21266 -0.475,-0.475c0,-0.26234 0.21266,-0.475 0.475,-0.475c0.26,0 0.473,0.214 0.473,0.474M225.928,164.6c0.00783,0.17436 -0.0808,0.33892 -0.2307,0.42834c-0.1499,0.08941 -0.3368,0.08922 -0.48651,-0.00051c-0.14971,-0.08973 -0.23799,-0.25448 -0.22979,-0.42882c0.01163,-0.25305 0.22018,-0.45223 0.4735,-0.45223c0.25332,0 0.46187,0.19918 0.4735,0.45223M225.44,166.128c0,0.26 -0.213,0.473 -0.473,0.473c-0.26117,-0.00055 -0.4729,-0.21184 -0.474,-0.473c0,-0.26 0.214,-0.474 0.474,-0.474c0.26,0 0.473,0.214 0.473,0.474M250.208,165.394c0,0.262 0.21,0.473 0.47,0.473c0.12589,0.00053 0.24681,-0.04904 0.33611,-0.13777c0.0893,-0.08873 0.13963,-0.20934 0.13989,-0.33523c-0.01622,-0.24931 -0.22316,-0.44323 -0.473,-0.44323c-0.24984,0 -0.45678,0.19392 -0.473,0.44323M248.192,164.906c0,0.26 0.213,0.473 0.473,0.473c0.26,0 0.473,-0.213 0.473,-0.473c-0.00055,-0.26117 -0.21184,-0.4729 -0.473,-0.474c-0.26116,0.0011 -0.47245,0.21283 -0.473,0.474M248.682,166.431c0,0.263 0.211,0.476 0.471,0.476c0.25305,-0.01163 0.45223,-0.22018 0.45223,-0.4735c0,-0.25332 -0.19918,-0.46187 -0.45223,-0.4735c-0.25974,0.00055 -0.47,0.21126 -0.47,0.471" fill="#eeac6c"/><path d="M259.849,151.081c0.033,2.504 -0.84,7.918 -2.547,11.146c0,0 -4.189,-11.86 -7.642,-13.74c-4.218,-2.295 -15.343,1.016 -19.114,-1.962c-0.625,-0.493 -0.555,-1.611 -0.555,-1.611c0,0 -0.722,1.425 -1.069,1.822c-1.827,2.078 -6.565,5.089 -8.813,6.705c-1.807,1.3 -1.892,1.286 -1.492,8.786c0,0 -3.324,-6.824 -3.14,-11.38c0.054,-1.312 0.689,-4.224 1.725,-7.182c3.748,-7.526 11.52,-12.695 20.498,-12.695c10.312,0 19.032,6.821 21.894,16.194c0.14712,1.30053 0.23189,2.60736 0.254,3.916" data-paper-data="{&quot;origPos&quot;:null}" fill="#815a20"/><path d="M236.034,177.766c-0.992,0 -1.802,-2.138 -1.802,-3.113h7.087c0,0.975 -0.807,3.113 -1.805,3.113h-3.48" data-paper-data="{&quot;origPos&quot;:null}" fill="#e9c7a1"/><path d="M234.993,176.95c-0.39429,-0.62621 -0.64844,-1.33032 -0.745,-2.064c2.33747,0.37818 4.72116,0.37007 7.056,-0.024l-0.011,0.01l-6.3,2.078" fill="#eeac6c"/><path d="M218.064,142.356c1.357,-9.68 -0.194,-20.611 19.73,-20.611c19.74,0 18.398,10.953 19.74,20.657c0.123,0.9 -39.6,0.867 -39.47,-0.046" fill="#343434"/><path d="M257.024,137.944c0.162,1.464 0.305,2.993 0.51,4.458h-39.45v-0.147c0.182,-1.429 0.33,-2.907 0.48,-4.311h38.46" fill="#5c5c5c"/><path d="M261.204,142.95c0.00027,0.58337 -0.2315,1.1429 -0.64419,1.55522c-0.4127,0.41232 -0.97243,0.64357 -1.55581,0.64278h-42.265c-1.21365,0 -2.1975,-0.98385 -2.1975,-2.1975c0,-1.21365 0.98385,-2.1975 2.1975,-2.1975h42.265c1.215,0 2.2,0.984 2.2,2.197" fill="#343434"/></g></g></svg>