<svg xmlns="http://www.w3.org/2000/svg" width="58.692" height="118.648"><g fill-rule="evenodd" stroke-miterlimit="10" data-paper-data="{&quot;isPaintingLayer&quot;:true}" style="mix-blend-mode:normal"><path fill="#fcda80" d="M56.87 45.52c1.789.752 2.356 3.442 1.271 6.012-.699 1.639-1.903 2.831-3.15 3.273 0 0-3.325 9.449-6.22 10.497-2.348.85-10.602-2.508-10.602-2.508s-.675-2.567-1.019-3.381c-.474-1.108-2.393-4.163-2.393-4.163l11.306 4.048 5.33-6.261a4.987 4.987 0 0 1-.203-.805c-.344-.626-.621-1.404-.783-2.276-.446-2.27.042-4.273 1.098-4.481.56-.108 1.164.324 1.683 1.094 1.127-1.09 2.519-1.547 3.682-1.049" data-paper-data="{&quot;origPos&quot;:null}"/><path fill="#333433" d="M15.971 112.874c-1.748 1.074-3.018 3.354-1.526 5.152 1.137 1.26 2.797.303 4.062-.234 1.386-.671 2.993-1.114 4.253-1.98.822-.572 1.772-1.253 2.33-2.106.17-.26.255-.585.192-.832h-9.31zm19.892 0c1.752 1.074 3.017 3.354 1.52 5.152-1.127 1.26-2.792.303-4.053-.234-1.396-.671-3-1.114-4.264-1.98-.818-.572-1.77-1.253-2.32-2.106-.18-.26-.26-.585-.193-.832z"/><path fill="#333433" d="m37.958 87.503-1.9 25.433h-9.636l-.37-18.394h-.277l-.366 18.394H15.77l-1.903-25.433z"/><path fill="#fcda80" d="M8.873 60.737c1.735-2.213 7.975-5.487 7.975-5.487s-2.902 5.286-3.432 7.629c-.069.301-.23 1.096-.381 1.513-.19.523-.722 1.174-1.55 2.343-1.646 2.333-3.19 12.204-3.19 12.204.04.065.076.133.105.203.47.47.865 1.01 1.17 1.601.888 1.69.983 3.396.2 3.807-.411.223-.993.029-1.586-.457-.63 1.13-1.624 1.82-2.66 1.716-1.587-.168-2.681-2.156-2.443-4.448.101-.96.425-1.814.883-2.479-.005.042-.005.057-.005.057s1.362-13.66 4.914-18.202" data-paper-data="{&quot;origPos&quot;:null}"/><path fill="#eeeeed" d="M8.71 78.498H3.884s1.56-13.664 5.11-18.204c1.569-2.01 6.131-4.58 6.95-5.028 2.029-1.313 8.135-1.515 8.135-1.515l1.708.055h.141l1.7-.055s6.133.214 8.155 1.544l10.248 4.003 5.375-6.24 4.628 2.274s-4.268 8.977-7.169 10.027c-2.25.81-8.981-1.849-9.55-2.11 2.272 9.808 1.959 24.261 1.959 24.261H10.439s-.195-11.565 1.41-21.124a5.624 5.624 0 0 1-.24.348C9.961 69.069 8.71 78.498 8.71 78.498"/><path fill="#884e2d" d="M10.438 87.51s-.02-1.124 0-2.96h30.85c.016 1.836-.014 2.96-.014 2.96H10.438"/><path fill="#f7b90b" d="M28.655 87.906c-.954.954-4.346.848-5.396 0-.708-.573-.638-2.988 0-3.632.953-.954 4.55-1.046 5.396 0 .572.707.641 2.99 0 3.632"/><path fill="#884e2d" d="M27.7 87.255c-.621.62-2.822.55-3.5 0-.46-.372-.415-1.94 0-2.357.62-.616 2.954-.677 3.5 0 .372.458.412 1.938 0 2.357"/><path fill="#d69d0b" d="M28.484 86.103c0 .085-.075.163-.155.163h-1.084c-.088 0-.153-.078-.153-.163 0-.089.065-.153.153-.153h1.084c.08 0 .155.064.155.153"/><path fill="#fcda80" d="m25.839 57.813-3.691-3.96a25.612 25.612 0 0 1 1.912-.148l1.698.059h.14l1.706-.085s.885.038 2.068.18l-3.832 3.954zm21.834-24c1.13.724 1.884 1.97 1.884 3.376 0 2.245-1.896 4.068-4.225 4.068-.066 0-.139-.006-.196-.006-3.788 6.777-11.026 11.357-19.337 11.357-8.323 0-15.562-4.586-19.338-11.376a3.808 3.808 0 0 1-.466.025c-2.34 0-4.234-1.823-4.234-4.067 0-1.512.873-2.832 2.143-3.53a22.403 22.403 0 0 1-.22-3.176c0-12.22 9.896-22.13 22.115-22.13 12.221 0 22.119 9.911 22.119 22.131a22.18 22.18 0 0 1-.245 3.328" data-paper-data="{&quot;origPos&quot;:null}"/><path fill="#ad6921" d="M21.619 28.65c.229-.743-.256-1.65-1.832-1.65s-2.221-.033-4.124.642c-2.638 1.13-2.876 4.174-2.548 3.522.327-.652 2.026-1.628 2.834-1.808 2.57-.461 2.71.566 3.51.74 1.638.357 2.16-1.446 2.16-1.446m10.101 0c-.229-.743.256-1.65 1.832-1.65s2.221-.033 4.125.642c2.638 1.13 2.875 4.174 2.548 3.522-.328-.652-2.026-1.628-2.835-1.808-2.569-.461-2.71.566-3.51.74-1.638.357-2.16-1.446-2.16-1.446"/><path fill="#333433" d="M19.222 36c0 1.657-.928 3-2.074 3s-2.074-1.343-2.074-3 .928-3 2.074-3 2.074 1.343 2.074 3m18.667 0c0 1.657-.928 3-2.074 3s-2.074-1.343-2.074-3 .928-3 2.074-3 2.074 1.343 2.074 3"/><path fill="#eeac6c" d="M26.501 37.069c-1.167.153-3.132 1.834-3.132 1.834s.215-1.009.522-1.299C24.72 36.448 26.47 36 26.47 36s2.254.703 2.749 1.588c.459.824.353 1.238.353 1.238s-2.2-1.871-3.07-1.756zM19.429 41.696s7.153 3.208 13.662-.397c0 0-1.443 5.47-6.171 5.561-4.268.122-5.168-1.492-5.68-1.956-.511-.463-1.474-1.772-1.811-3.208"/><path fill="#ad6921" d="M48.798 27.602c.031 2.601-.865 8.223-2.643 11.57 0 0-4.356-12.313-7.934-14.263-4.378-2.386-15.93 1.051-19.845-2.048-.642-.505-.577-1.67-.577-1.67s-.749 1.485-1.107 1.897c-1.908 2.157-6.816 5.286-9.151 6.967-1.884 1.344-1.961 1.33-1.548 9.117 0 0-3.453-7.088-3.262-11.816.051-1.363.713-4.381 1.793-7.455C8.418 12.085 16.482 6.714 25.8 6.714c10.72 0 19.761 7.079 22.732 16.824.151 1.35.24 2.706.266 4.064"/><path fill="#fcda80" d="M24.08 55.148c-1.036 0-1.868-2.219-1.868-3.236h7.351c0 1.017-.837 3.236-1.872 3.236H24.08" data-paper-data="{&quot;origPos&quot;:null}"/><path fill="#eeac6c" d="M23.064 54.446c-.415-.632-.773-1.488-.843-2.12 1.164.189 2.36.282 3.578.282a22.38 22.38 0 0 0 3.75-.315l-.01.02-6.475 2.132"/><path fill="#333433" d="M28.521 76.967c.023 1.554-2.612 2.599-2.612 2.599s-2.606-1.076-2.606-2.595c.004-1.452 1.408-16.078 1.408-16.078-.482-.326-.903-2.191-.903-2.191l1.092-.87 1.856-.057 1.165.966s-.494 1.772-.944 2.152c0 0 1.523 14.613 1.543 16.074"/><path fill="#eeeeed" d="M25.893 57.809s-2.043.846-1.829 1.72c.217.867-3.947-5.084-3.817-5.409.118-.33 1.369-1.447 1.369-1.447z"/><path fill="#565657" d="M21.616 52.724c-.173.155-1.237 1.117-1.341 1.404-.028.087.354.793 1.292 2.178 1.127 1.674 2.283 3.207 2.472 3.274 0-.006 0-.026-.006-.048-.208-.824 1.522-1.613 1.806-1.737zm2.435 6.919c-.266 0-2.165-2.743-2.244-2.859-.393-.572-1.672-2.469-1.59-2.675.127-.33 1.336-1.415 1.38-1.46l.02-.02 4.334 5.184-.042.02c-.02.012-2.02.855-1.817 1.688.018.053.018.09 0 .108-.012.006-.027.014-.041.014z"/><path fill="#eeeeed" d="M30.104 52.673s1.244 1.117 1.368 1.447c.122.325-4.035 6.276-3.815 5.409.214-.874-1.829-1.72-1.829-1.72z"/><path fill="#565657" d="M25.874 57.795c.295.123 2.016.912 1.807 1.739v.047c.187-.067 1.346-1.592 2.469-3.27.932-1.389 1.323-2.097 1.298-2.181-.118-.288-1.173-1.252-1.346-1.407zm1.796 1.847a.074.074 0 0 1-.042-.014c-.01-.026-.01-.053 0-.108.2-.83-1.8-1.676-1.809-1.686l-.045-.022 4.32-5.183.022.02c.053.047 1.265 1.129 1.385 1.459.08.207-1.202 2.113-1.597 2.691-.085.114-1.965 2.843-2.234 2.843z"/><path fill="#3e898e" d="M1.882 32.346a1.67 1.67 0 0 1 .504-.066v6.186C1.046 38.466 0 37.083 0 35.373c0-.751.2-1.443.55-1.985V21.963h1.332v10.384"/><path fill="#53abb6" d="M6.519 42.191c-2.915 0-5.222-3.053-5.222-6.818 0-3.763 2.307-6.81 5.222-6.81V42.19z"/><path fill="#333433" d="M7.458 42.332a.881.881 0 0 1-.885.884h-.012a.873.873 0 0 1-.875-.884v-13.78c0-.482.387-.877.875-.877h.012c.487 0 .885.395.885.877z"/><path fill="#3e898e" d="M51.279 33.424c.325.539.522 1.208.522 1.948 0 1.709-1.035 3.094-2.363 3.094v-6.187c.173.002.344.027.51.075v-10.39h1.332v11.46"/><path fill="#53abb6" d="M45.27 42.19V28.563c2.915 0 5.23 3.047 5.23 6.81 0 3.765-2.315 6.818-5.23 6.818z"/><path fill="#333433" d="M46.075 42.332a.874.874 0 0 1-.881.884h-.02a.876.876 0 0 1-.875-.884v-13.78c0-.482.393-.877.875-.877h.02c.493 0 .88.395.88.877v13.78z"/><path fill="#333433" d="M51.708 35.813a.264.264 0 0 1 .19.3c-.554 2.522-1.776 4.735-3.63 6.577-1.477 1.465-3.365 2.702-5.595 3.672-2.877 1.242-5.619 1.722-6.789 1.883-.201.545-1.31.963-2.647.963-1.489 0-2.693-.512-2.693-1.15 0-.635 1.203-1.155 2.693-1.155 1.221 0 2.255.359 2.581.837 1.134-.154 3.83-.616 6.67-1.852 4.944-2.151 7.949-5.472 8.913-9.881a.26.26 0 0 1 .307-.195M25.909 0c14.266 0 25.828 11.57 25.828 25.835 0 0-.242 1.108-1.359 1.108-1.075 0-1.385-1.108-1.385-1.108 0-12.755-10.338-21.124-23.085-21.124-12.745 0-23.09 8.369-23.09 21.124 0 0-.228 1.108-1.355 1.108-1.076 0-1.386-1.108-1.386-1.108C.077 11.57 11.642 0 25.909 0"/></g></svg>