<svg xmlns="http://www.w3.org/2000/svg" width="62.413" height="115.643"><g fill-rule="evenodd" stroke-miterlimit="10" data-paper-data="{&quot;isPaintingLayer&quot;:true}" style="mix-blend-mode:normal"><path fill="#c0936a" d="M11.125 59.345C6.613 66.958 4.411 76.467 5.301 85.23c0 0 .424 3.65.852 4.275.428.626 3.493 0 3.871-.416.38-.417-.5-3.053-.5-3.053s1.334.555 1.762 0c.428-.555-1.762-1.345-1.762-1.345-.678-7.92 1.22-16.37 5.294-23.247 1.381-2.33-2.316-4.424-3.693-2.1m51.282-18.69c.095.745-.995 3.89-.995 3.89a105.943 105.943 0 0 1-2.564 7.622c-1.135 2.98-2.296 6.974-4.98 9.022-2.328 1.775-6.68.25-9.163-.405a119.202 119.202 0 0 1-8.262-2.5c-2.577-.882-1.547-4.928 1.06-4.035 2.342.806 4.71 1.537 7.101 2.19 1.401.38 6.245 2.086 7.04 1.086 2.998-3.778 4.21-9.427 5.532-14.038 0 0-1.593-1.661-.956-1.971.64-.31 1.575.769 1.575.769s.43-2.741.96-2.948c.53-.207 3.557.574 3.652 1.319" data-paper-data="{&quot;origPos&quot;:null}"/><path fill="#91875d" d="m34.626 110.256 3.17 1.95c4.056.46 4.01 3.116 4.01 3.116l-13.179.057c-.252-3.08 1.826-5.108 1.826-5.108z"/><path fill="#fff" d="m35.318 110.679-1.16.634c-.197.108-.387-.162-.19-.27l1.03-.561zm.585.36c-.418.229-.837.457-1.255.687-.197.106-.387-.165-.19-.271l1.123-.612zm-.763 1.098c-.198.107-.387-.164-.19-.271.405-.22.81-.443 1.217-.662l.322.197c-.45.244-.9.49-1.35.736m.491.41c-.198.109-.386-.162-.19-.27l1.312-.714.322.199-1.444.786m.491.412c-.197.107-.386-.163-.19-.27.468-.256.938-.51 1.406-.767l.323.198-1.539.84m5.685 2.626c-4.392.02-8.786.039-13.179.056a.266.266 0 0 1 0-.53l13.176-.057a.267.267 0 0 1 .003.53m-7.179-5.065c-1.39.005-2.782.01-4.173.017a.267.267 0 0 1-.002-.531c1.39-.007 2.782-.012 4.174-.018a.267.267 0 0 1 .001.532"/><path fill="#91875d" d="M22.657 110.27s2.078 2.029 1.825 5.109l-13.177-.057s-.048-2.656 4.01-3.116l3.168-1.95z"/><path fill="#fff" d="m18.113 110.482 1.028.56c.198.109.008.379-.19.27l-1.16-.633zm-.585.36 1.124.613c.197.106.007.377-.19.27-.419-.23-.837-.457-1.256-.685zm.442 1.295c-.449-.245-.898-.492-1.348-.736l.32-.197c.407.219.813.442 1.218.662.197.107.008.378-.19.27m-.49.412-1.444-.786.322-.2 1.311.716c.197.107.008.378-.189.27m-.492.413-1.538-.84.323-.198c.468.257.938.51 1.405.767.197.107.007.377-.19.27m-5.685 2.627a.267.267 0 0 1 .003-.531l13.177.057a.266.266 0 0 1 0 .53c-4.394-.017-8.788-.036-13.18-.056m7.18-5.066a.267.267 0 0 1 .001-.532c1.391.006 2.784.01 4.174.018a.267.267 0 0 1-.003.53l-4.173-.016"/><path fill="#333e40" d="M26.465 85.238h.001l12.18-1.69s-1.21 21.168-1.874 28.134h-7.93s-.503-4.52-2.376-22.016v-.001c-1.963 17.628-2.377 22.017-2.377 22.017h-7.93c-.663-6.966-1.874-28.134-1.874-28.134z"/><path fill="#192223" d="M14.65 89.737c3.168-.877 4.198-3.487 4.505-5.513l-4.869-.675s.145 2.558.364 6.188m23.631 0c-3.168-.877-4.197-3.487-4.505-5.513l4.87-.675s-.146 2.558-.365 6.188"/><path fill="#fed614" d="m15.02 62.54-4.535-2.617c2.687-8.75 12.702-7.69 12.702-7.69.723 2.117 3.273 2.083 3.28 2.083.005 0 2.555.034 3.278-2.082 0 0 5.845-1.592 15.234 3.448l-2.548 5.745-5.956-1.75s1.062 17.54 2.537 23.71c0 0-3.636 1.853-12.368 1.853-.062 0-.117-.003-.178-.003-.06 0-.117.003-.178.003-8.732 0-12.368-1.851-12.368-1.851 1.474-6.171 2.537-23.711 2.537-23.711l-1.436 2.862z"/><path fill="#ffe67b" d="M16.898 84.286c.002-.03 1.9-24.21 3.675-25.775 1.627-1.433 5.358-1.12 5.983-1.055.626-.064 4.357-.378 5.983 1.055 1.776 1.566 3.673 25.745 3.676 25.776-1.996.47-5.117.952-9.57.952h-.177c-4.453 0-7.574-.481-9.57-.952"/><path fill="#c0936a" d="M51.887 23.783c1.711 1.48-.867 6.107-3.713 6.847l-.026-.043c.084-1.528.093-3.058.026-4.586v-.002s2.002-3.696 3.713-2.216" data-paper-data="{&quot;origPos&quot;:null}"/><path fill="#c0936a" d="M26.465 2.966S51.7.744 48.707 32.803c0 0-.57 8.188-7.272 10.964-6.7 2.776-11.69 4.442-11.69 8.466 0 0-.048 2.267-3.28 2.267-3.23 0-3.278-2.267-3.278-2.267 0-4.024-4.99-5.69-11.69-8.466-6.7-2.776-7.27-10.964-7.27-10.964-2.995-32.06 22.24-29.84 22.24-29.84" data-paper-data="{&quot;origPos&quot;:null}"/><path fill="#c0936a" d="M.55 23.783c1.71-1.48 3.711 2.216 3.711 2.216V26a46.438 46.438 0 0 0 .026 4.586l-.026.043C1.415 29.89-1.16 25.263.55 23.783" data-paper-data="{&quot;origPos&quot;:null}"/><path fill="#2b2629" d="M13.35 30.583c0-1.251.66-2.266 1.472-2.266.814 0 1.474 1.015 1.474 2.266 0 1.252-.66 2.267-1.474 2.267-.812 0-1.472-1.015-1.472-2.267m23.666 0c0-1.251.66-2.266 1.473-2.266.813 0 1.473 1.015 1.473 2.266 0 1.252-.66 2.267-1.473 2.267-.813 0-1.473-1.015-1.473-2.267"/><path fill="#964a3e" d="M28.937 34.146c-3.422 3.053-4.562 0-4.562 0 1.9 1.48 4.562 0 4.562 0"/><path fill="#fff" d="M36.437 37.27c-3.778 4.746-12.206 4.179-15.292 3.004-3.084-1.175-4.27-4.25-4.27-4.25 8.471 3.717 19.562 1.247 19.562 1.247"/><path fill="#2b2629" d="M2.144 19.513s-1.953-3.165 1.12-3.918c0 0-1.91-3.425 1.61-3.917 0 0-1.646-4.11 3.233-4.57 0 0 .693-4.7 5.973-3.656 0 0 2.597-5.092 8.5-2.22 0 0 3.075-2.938 8.42.26 0 0 6.365-2.48 9.435 3.658 0 0 6.557-.131 5.751 5.092 0 0 5.366.783 3.488 6.006 0 0 4.456 1.94 1.398 6.382.61.842 1.13 2.157-.37 3.237-1.312.947-2.25.426-2.839-.246-.7.338-1.57.47-1.945-.67-.67-2.043 0-2.957 0-2.957s-1.609.348-2.817-.827c-1.207-1.175.27-3.613.27-3.613s-1.37.914-2.594-.13c-1.223-1.045-.904-3.395-.904-3.395s-1.393 2.437-3.3 2.176c-1.905-.261-2.738-2.176-2.738-2.176s-1.493 3.786-4.898 1.566c0 0-.858 2.873-3.675 1.045 0 0-1.475 2.873-3.89 1.175 0 0-2.165 3.395-4.838 1.045 0 0-.708 3.395-4.44 1.828 0 0-.482 4.554-3.987 2.22 0 0-.133 5.308-3.846 3.09 0 0-2.97.31-2.117-2.37 0 0-3.09-2.52 0-4.115"/></g></svg>