<svg xmlns="http://www.w3.org/2000/svg" width="82.179" height="117.73"><g fill-rule="evenodd" stroke-miterlimit="10" data-paper-data="{&quot;isPaintingLayer&quot;:true}" style="mix-blend-mode:normal"><path fill="#f29700" d="M21.405 112.143c-.542.448-.772 1.519.912 1.254 1.729-.3 4.613-1.3 4.613-1.3 1.36.93.288 4.819.288 4.819-.864.355-1.522.067-1.522.067l-.497-1.08s-.217.438-1.372 1.15c-1.153.725-5.41 1.219-5.918-.425-.46-1.553 3.036-4.163 3.496-4.485M46.922 112.096s2.883 1.002 4.613 1.3c1.684.266 1.454-.806.912-1.254.463.323 3.957 2.933 3.482 4.487-.506 1.645-4.751 1.15-5.905.425-1.154-.712-1.374-1.15-1.374-1.15l-.505 1.08s-.647.287-1.513-.068c0 0-1.082-3.89.29-4.82"/><path fill="#fefefe" d="M18.37 98.343c.024-.965 2.239-.6 2.55-.54-.045-.483-.22-2.633.716-2.623.98.023.61 2.244.553 2.554.485-.058 2.64-.218 2.62.713-.023.966-2.238.598-2.55.539.023.3.104 1.208-.058 1.876-.451-.14-.888-.276-1.315-.414a6.9 6.9 0 0 1 .103-1.392c-.483.057-2.641.218-2.618-.713m37.906.54c-.116.046-.232.092-.358.139l-.036-.104c-.483.045-2.64.219-2.618-.713.023-.977 2.24-.61 2.55-.552-.046-.484-.22-2.633.715-2.61.98.024.612 2.23.554 2.542.31-.024 1.339-.115 2.007.09l.01.012c-.931.42-1.873.82-2.824 1.196m6.147-9.165c.012-.965 2.238-.598 2.55-.54-.023-.265-.093-.99 0-1.61.784 2.024 1.22 3.898.68 5.428l-.058-.023c-.98-.011-.611-2.231-.553-2.541-.484.056-2.643.216-2.618-.714m-7.787-9.555c.012-.967 2.238-.6 2.55-.553-.046-.471-.22-2.622.714-2.61.97.022.6 2.23.555 2.554.473-.06 2.629-.231 2.617.7-.022.978-2.248.609-2.56.552.058.483.232 2.634-.704 2.61-.98-.023-.611-2.231-.552-2.541-.485.045-2.644.219-2.62-.712m-8.732 9.06c.024-.977 2.25-.608 2.56-.552-.046-.482-.218-2.633.704-2.61.98.013.613 2.232.554 2.543.485-.047 2.642-.22 2.63.713-.022.965-2.25.596-2.56.55.045.472.219 2.623-.715 2.612-.97-.025-.601-2.231-.543-2.555-.484.059-2.642.23-2.63-.7m-10.38 8.475c.023-.966 2.25-.598 2.56-.553-.046-.471-.22-2.621.703-2.608.98.02.612 2.23.553 2.553.485-.058 2.642-.232 2.63.7-.022.978-2.248.609-2.56.55.046.485.219 2.636-.715 2.61-.97-.021-.6-2.228-.542-2.54-.484.048-2.642.22-2.63-.712m-7.926-9.2c.024-.966 2.238-.598 2.55-.552-.046-.471-.22-2.622.714-2.61.98.023.61 2.23.555 2.554.485-.06 2.64-.231 2.619.7-.023.978-2.238.609-2.55.552.047.484.22 2.634-.715 2.61-.98-.023-.61-2.231-.554-2.541-.485.047-2.642.219-2.618-.712m-7.141-10.857c.023-.965 2.238-.598 2.56-.54-.056-.482-.23-2.633.705-2.621.98.02.61 2.242.553 2.553.486-.058 2.642-.218 2.62.712-.024.966-2.24.598-2.551.54.048.483.22 2.634-.714 2.61-.97-.01-.613-2.23-.553-2.54-.474.057-2.644.217-2.62-.713m-3.715-9.74c.463-1.277 1.199-2.427 1.813-3.243.16.689-.012 1.678-.048 1.874.486-.046 2.643-.217 2.62.713-.023.977-2.237.61-2.551.552.048.483.219 2.633-.715 2.61-.968-.022-.611-2.23-.553-2.54-.104.01-.324.02-.566.034m12.009 1.046c.023-.967 2.238-.6 2.549-.553-.024-.298-.116-1.298.08-1.965l.036-.025c.343.383.78.669 1.269.829v.01c-.011.496-.093.956-.115 1.096.484-.058 2.642-.232 2.618.7-.022.978-2.238.609-2.55.55.047.485.22 2.636-.715 2.61-.98-.021-.61-2.228-.554-2.54-.485.047-2.641.219-2.618-.711m8.457 9.395c.022-.98 2.248-.61 2.56-.554-.046-.482-.22-2.632.703-2.608.98.02.61 2.229.555 2.54.483-.045 2.64-.218 2.628.715-.022.963-2.248.595-2.56.55.047.483.22 2.622-.704 2.61-.981-.023-.61-2.231-.554-2.553-.484.057-2.64.23-2.63-.7m10.025-7.27c.046-.976 2.26-.551 2.573-.481-.035-.483-.162-2.646.772-2.6.98.047.554 2.243.485 2.553.484-.034 2.652-.148 2.606.782-.045.965-2.25.553-2.56.483.034.482.149 2.633-.784 2.6-.97-.046-.554-2.255-.485-2.566-.485.036-2.641.16-2.607-.77"/><path fill="#f29700" d="M57.257 80.875c-.058.31-.427 2.518.554 2.54.934.024.76-2.126.703-2.61.312.059 2.537.427 2.562-.551.01-.932-2.146-.76-2.62-.702.047-.322.417-2.53-.553-2.552-.935-.012-.761 2.139-.715 2.61-.312-.047-2.538-.414-2.55.553-.023.93 2.134.757 2.619.712m-7.417-9.027c-.07.31-.485 2.519.485 2.565.933.034.818-2.117.784-2.6.31.069 2.515.483 2.56-.483.046-.931-2.122-.817-2.606-.781.069-.311.495-2.507-.485-2.553-.934-.047-.807 2.116-.772 2.599-.313-.07-2.527-.495-2.573.482-.034.93 2.122.805 2.607.77m-1.305 18.078c-.056.322-.425 2.53.544 2.554.934.01.76-2.141.715-2.611.31.046 2.538.415 2.56-.552.012-.933-2.145-.76-2.63-.713.059-.311.426-2.53-.554-2.542-.923-.022-.75 2.128-.703 2.61-.311-.056-2.537-.425-2.562.554-.01.93 2.147.757 2.63.7m-8.697-10.88c-.056.323-.426 2.53.554 2.555.924.012.75-2.128.704-2.611.312.046 2.538.414 2.56-.551.012-.933-2.145-.76-2.628-.713.055-.312.425-2.52-.555-2.542-.923-.023-.75 2.127-.703 2.61-.311-.057-2.538-.425-2.561.553-.011.93 2.145.757 2.629.7m-1.683 19.366c-.058.31-.428 2.519.542 2.542.933.022.76-2.128.715-2.61.312.056 2.538.425 2.56-.554.013-.93-2.145-.757-2.63-.7.059-.323.428-2.53-.553-2.553-.922-.013-.75 2.138-.703 2.61-.311-.046-2.538-.414-2.561.552-.012.93 2.145.759 2.63.713m-7.938-9.2c-.056.31-.426 2.519.555 2.54.934.024.762-2.126.714-2.61.313.059 2.528.428 2.55-.551.022-.931-2.133-.758-2.618-.701.056-.322.426-2.53-.554-2.552-.934-.012-.762 2.139-.714 2.609-.312-.046-2.528-.414-2.55.553-.023.932 2.133.758 2.617.712m-7.14-10.855c-.06.31-.414 2.53.556 2.542.933.02.76-2.13.713-2.612.31.059 2.526.425 2.55-.54.023-.931-2.134-.77-2.62-.713.059-.31.428-2.53-.551-2.553-.936-.01-.763 2.139-.706 2.623-.323-.06-2.537-.427-2.56.54-.023.93 2.146.77 2.619.713m18.445 24.32a49.19 49.19 0 0 1-5.848.369 42.11 42.11 0 0 1-3.45-.15c-3.61-.332-7.048-1.114-10.024-2.034.162-.667.082-1.576.057-1.876.314.06 2.528.426 2.55-.54.022-.931-2.133-.77-2.618-.713.057-.311.426-2.53-.554-2.553-.935-.011-.761 2.14-.715 2.624-.312-.06-2.528-.427-2.55.54-.023.93 2.135.77 2.617.713a7.07 7.07 0 0 0-.102 1.39 59.186 59.186 0 0 1-3.38-1.242c-3.645-1.46-5.917-2.782-5.917-2.782s-4.223-1.128-.831-5.175c.45.587 1.176.977 2.284 1.012 5.04.138 4.037-3.588 4.464-4.738.427-1.15 3.172-2.162 3.034-3.887-.15-1.725-3.76-.713-3.76-.713l-.14-2.875 1.292-6.475s-2.155-2.012-1.43-4.887c.07-.264.15-.525.242-.782.243-.011.463-.022.566-.034-.057.31-.415 2.519.553 2.542.936.022.762-2.127.716-2.61.312.056 2.527.423 2.55-.554.022-.93-2.135-.758-2.62-.713.036-.195.207-1.184.047-1.874.612-.794 1.108-1.287 1.108-1.287.3-1.875-.277-4.75-.277-4.75l.023-.092a12.27 12.27 0 0 0 2.284.242c.484 0 1.257-.184 2.214-.231a3.02 3.02 0 0 0-1.937 2.807 3.025 3.025 0 0 0 4.36 2.714 3.02 3.02 0 0 0 2.86 2.035 2.87 2.87 0 0 0 1.684-.53c.131.309.315.592.543.839l-.036.025c-.196.667-.104 1.666-.08 1.966-.311-.047-2.526-.415-2.55.552-.021.93 2.134.759 2.619.713-.056.312-.426 2.518.554 2.542.935.023.762-2.128.715-2.612.312.058 2.528.427 2.55-.552.024-.93-2.134-.757-2.618-.7.022-.138.104-.6.115-1.094v-.011a3.015 3.015 0 0 0 3.01-.632l.023-.012a3.057 3.057 0 0 0 2.549 1.38c1.2 0 2.286-.709 2.77-1.806a2.98 2.98 0 0 0 1.418.357 3.03 3.03 0 0 0 2.735-1.724c.39.195.842.298 1.302.298a3.03 3.03 0 0 0 3.022-2.91c.15.024.29.036.44.036a3.031 3.031 0 0 0 3.022-3.024c0-.76-.278-1.46-.75-1.99v-.045c.518-.024 1.095-.047 1.718-.092.01-.013.023 0 .035 0 .173.02.485.092.935.228-.221.76-.82 3.22-.347 6.072 0 0 4.465 2.3 4.315 5.889-.138 1.437-1.868 2.437-1.868 2.437l.01.012c.208.298 3.506 5.186 5.468 10.062.785 1.943 1.776 3.933 2.48 5.796-.093.62-.023 1.344 0 1.61-.312-.057-2.538-.425-2.55.54-.022.93 2.135.77 2.619.713-.057.31-.427 2.53.553 2.542l.058.023c-.242.7-.703 1.322-1.43 1.85-1.084.782-2.85 1.795-5.121 2.84l-.013-.01c-.668-.207-1.695-.115-2.007-.093.058-.31.428-2.517-.552-2.54-.936-.024-.763 2.127-.717 2.61-.31-.058-2.525-.425-2.55.552-.02.932 2.135.759 2.62.713l.034.103c-4.037 1.565-9.042 3.002-14.395 3.656"/><path fill="#be9969" stroke="#be9969" stroke-width=".5" d="M10.759 91.248c-1.651-2.093.114-6.75.114-6.75s-5.628-5.462-5.19-14.226c.416-8.222 9.805-12.143 10.98-12.603h.013a12.75 12.75 0 0 0 2.735.86l-.025.094s.577 2.875.278 4.749c-.395.406-.764.836-1.107 1.288-.613.817-1.351 1.967-1.813 3.245a9.415 9.415 0 0 0-.241.78c-.727 2.875 1.43 4.888 1.43 4.888l-1.731 1 .439 5.474.138 2.875s3.61-1.012 3.762.713c.137 1.725-2.608 2.737-3.034 3.887-.428 1.149.576 4.876-4.465 4.737-1.107-.034-1.833-.425-2.283-1.011m36.647-55.773a3.175 3.175 0 0 0 3.172 3.173 3.175 3.175 0 0 0 3.17-3.173c0-.116-.02-.231-.033-.36l2.147-.62-2.528-.551a2.243 2.243 0 0 0-.241-.355l1.257-1.748-2.157.93a3.163 3.163 0 0 0-4.786 2.703m-1.154-4.6c.668.392 1.914-.275 1.914-.275 1.638-2.024 4.326-1.83 4.326-1.83-4.706-1.62-6.92 1.726-6.24 2.106M32.57 46.697c.508.139.727.576 1.235 2.3.497 1.726.138 4.6 3.887 4.6s3.968-3.243 4.257-4.393c.288-1.15 1.003-1.655 1.73-2.012 1.004-.425.426-1-.07-1-.507 0-.876 0-2.03-.725-1.152-.712-2.307-.424-2.734.08-.427.496-.864.426-1.58 0-.726-.436-1.638-.597-2.606-.08-.786.439-1.293.357-1.293.357-1.66 0-1.292.725-.796.873m-5.353-16.098s1.247.666 1.915.276c.68-.381-1.533-3.726-6.24-2.105 0 0 2.687-.195 4.325 1.829m-5.548 4.518c-.011.127-.034.242-.034.358a3.176 3.176 0 0 0 3.173 3.173 3.175 3.175 0 0 0 3.17-3.173 3.164 3.164 0 0 0-3.17-3.153c-.57.004-1.127.16-1.617.45l-2.156-.931 1.258 1.748a2.376 2.376 0 0 0-.243.355l-2.527.553 2.146.62m25.297 23.586c-.991.459-1.867.93-2.504 1.219-.157.074-.31.154-.46.24-.841.472-2.283 1.335-4.2 1.876a11.98 11.98 0 0 1-3.46.425c-1.291-.012-2.7-.253-4.21-.828a16.615 16.615 0 0 1-3.22-1.667c-.103-.058-.193-.127-.3-.197-1.35-.884-2.64-1.183-3.747-1.242C27.958 43.846 15.246 39.626 14 39.246c.126-.322.196-.668.196-1.036a2.88 2.88 0 0 0-2.885-2.875 2.851 2.851 0 0 0-2.11.92c-.403-.483-2.225-2.875-1.615-5.726.088-.425.224-.837.404-1.231 1.59-3.6 6.92-2.3 6.92-2.3 1.293-3.3 8.075-8.336 8.075-8.336 8.94 7.91 24.363 6.185 29.277 5.61 4.89-.574 8.652 1.864 8.652 1.864s4.452-1.484 6.182 1.427c.061.095.116.194.163.298 1.579 3.31-.44 6.463-.44 6.463l-.126.264a2.878 2.878 0 0 0-2.043-.84 2.88 2.88 0 0 0-2.882 2.875 2.84 2.84 0 0 0 1.683 2.61l-.023.058s-12.76 3.013-13.404 17.963l.069.24c-1.062.278-2.145.75-3.126 1.21" data-paper-data="{&quot;origPos&quot;:null}"/><path fill="#f8f074" d="M9.202 36.256a2.854 2.854 0 0 1 2.11-.92 2.881 2.881 0 0 1 2.884 2.875c0 .369-.07.713-.195 1.035a2.896 2.896 0 0 1-2.69 1.84A2.872 2.872 0 0 1 8.43 38.21a2.81 2.81 0 0 1 .772-1.955"/><path fill="#be9969" stroke="#be9969" stroke-width=".5" d="M16.432 57.669h-.013c-1.786-.805-3.61-2.151-4.786-4.44-1.384-2.62-1.915-6.485-.565-12.143a2.893 2.893 0 0 0 2.688-1.84c1.246.38 13.958 4.6 10.866 19.286a8.282 8.282 0 0 0-.946 0l-.011.01c-.957.046-1.732.23-2.216.23a12.21 12.21 0 0 1-2.283-.241 12.82 12.82 0 0 1-2.733-.863zm4.21 42.779c.437.141.875.28 1.314.415 2.977.918 6.414 1.7 10.024 2.033l-.011.093c-1.014 3.162-5.283 9.107-5.283 9.107s-2.884 1.002-4.614 1.3c-1.684.266-1.453-.806-.911-1.254l.046-.046c.576-.424.289-1.437-.438-2.3-3-4.635-3.461-10.027-3.507-10.59 1.114.447 2.241.861 3.38 1.242" data-paper-data="{&quot;origPos&quot;:null}"/><path fill="#3f3a3a" d="M25.384 36.348a1.26 1.26 0 0 0 1.258-1.253 1.25 1.25 0 0 0-1.258-1.242 1.24 1.24 0 0 0-1.246 1.242 1.25 1.25 0 0 0 1.246 1.253zm-3.334-2.403c.07-.126.15-.242.244-.356l-1.258-1.75 2.157.933a3.22 3.22 0 0 1 1.615-.45c1.753 0 3.173 1.416 3.173 3.152a3.176 3.176 0 0 1-3.173 3.174 3.175 3.175 0 0 1-3.172-3.174c0-.116.023-.23.035-.356l-2.146-.622z"/><path fill="#f8f074" d="M24.866 58.53c1.107.058 2.398.359 3.748 1.243.105.068.197.138.3.195l-.08.116a3.023 3.023 0 0 0-2.675 2.99c-.002.337.056.672.172.989a3.024 3.024 0 0 1-4.36-2.714 3.018 3.018 0 0 1 1.937-2.807l.013-.011a8.67 8.67 0 0 1 .945 0"/><path fill="#49230a" d="M22.893 28.77c4.707-1.622 6.92 1.725 6.24 2.105-.668.39-1.915-.277-1.915-.277-1.638-2.023-4.325-1.828-4.325-1.828" data-paper-data="{&quot;origPos&quot;:null}"/><path fill="#fefefe" d="M25.385 33.853a1.25 1.25 0 0 1 1.256 1.242 1.25 1.25 0 1 1-2.137-.88 1.24 1.24 0 0 1 .88-.362"/><path fill="#f8f074" d="M26.33 64.063a2.817 2.817 0 0 1-.172-.99c0-1.54 1.176-2.816 2.676-2.99l.08-.114a16.545 16.545 0 0 0 3.219 1.668l-.058.16a3.02 3.02 0 0 0-1.454 2.576c0 .411.087.819.253 1.196a2.875 2.875 0 0 1-1.683.53 3.02 3.02 0 0 1-2.86-2.036"/><path fill="#f8f074" d="M30.875 65.569a2.985 2.985 0 0 1-.253-1.195 3.024 3.024 0 0 1 1.452-2.577l.058-.162c1.512.576 2.92.818 4.212.829v.16a3.02 3.02 0 0 0-1.107 2.324c0 .583.168 1.154.483 1.645l-.022.01a3.015 3.015 0 0 1-3.01.633 2.921 2.921 0 0 1-1.27-.83 2.94 2.94 0 0 1-.543-.837"/><path fill="#c30f23" d="M34.383 46.904c.315.394.515.868.577 1.37.068.794.576 3.094 2.663 3.23 2.089.15 2.665-1.931 2.954-2.656.289-.724 1.222-1.793 1.222-1.793s-1.581-.22-2.525.218c-.934.426-2.158.357-3.023-.15-.865-.507-1.868-.22-1.868-.22m-1.016-1.08s.508.082 1.293-.356c.969-.516 1.879-.357 2.607.08.714.426 1.153.495 1.579 0 .428-.504 1.58-.792 2.734-.08 1.155.726 1.524.726 2.03.726.497 0 1.074.574.07 1-.728.356-1.441.86-1.731 2.01-.287 1.15-.506 4.395-4.256 4.395s-3.39-2.876-3.888-4.6c-.508-1.724-.727-2.162-1.233-2.3-.498-.15-.865-.874.795-.874"/><path fill="#5c0000" d="M36.25 47.123c.867.506 2.09.576 3.024.15.945-.438 2.525-.218 2.525-.218s-.933 1.069-1.222 1.794c-.29.725-.865 2.806-2.954 2.655-2.087-.137-2.595-2.437-2.664-3.23a2.733 2.733 0 0 0-.576-1.37s1.003-.287 1.868.219"/><path fill="#f8f074" d="M35.237 64.948a3.02 3.02 0 0 1 1.108-2.324v-.16c1.278.035 2.43-.15 3.46-.425v.012c-.243.424-.382.93-.382 1.46a2.997 2.997 0 0 0 1.617 2.655 3.027 3.027 0 0 1-2.77 1.806 3.054 3.054 0 0 1-2.55-1.38 3.048 3.048 0 0 1-.483-1.644"/><path fill="#f8f074" d="M41.039 66.167a3 3 0 0 1-1.617-2.656c-.001-.512.13-1.015.382-1.46v-.013c1.916-.54 3.358-1.402 4.199-1.874l.058.115a2.922 2.922 0 0 0-.6 1.794 3.017 3.017 0 0 0 1.73 2.726 3.029 3.029 0 0 1-4.152 1.368"/><path fill="#f8f074" d="M45.192 64.799a3.015 3.015 0 0 1-1.73-2.726 2.93 2.93 0 0 1 .598-1.794l-.057-.116c.15-.087.305-.167.462-.24.635-.288 1.51-.76 2.503-1.218a2.212 2.212 0 0 0-.047.493 3.025 3.025 0 0 0 2.595 2.989 3.03 3.03 0 0 1-3.023 2.91c-.46 0-.91-.103-1.302-.298"/><path fill="#be9969" d="M41.522 102.678c5.353-.655 10.36-2.092 14.397-3.657.126-.045.242-.092.358-.138-.104 1.312-.681 6.659-3.437 10.913-.73.863-1.016 1.875-.44 2.3l.046.046c.542.448.773 1.519-.911 1.254-1.73-.298-4.613-1.3-4.613-1.3s-4.28-6.198-5.4-9.418" data-paper-data="{&quot;origPos&quot;:null}"/><path fill="#49230a" d="M52.493 28.77s-2.688-.195-4.326 1.828c0 0-1.246.667-1.914.277-.68-.381 1.534-3.727 6.24-2.105" data-paper-data="{&quot;origPos&quot;:null}"/><path fill="#f8f074" d="M49.517 62.188a3.025 3.025 0 0 1-2.596-2.99 2.32 2.32 0 0 1 .046-.494c.982-.46 2.065-.932 3.126-1.208a8.021 8.021 0 0 1 1.73-.31c.127-.012.266-.012.404-.022v.044c.473.53.75 1.23.75 1.99a3.031 3.031 0 0 1-3.021 3.025c-.151 0-.29-.012-.44-.036"/><path fill="#3f3a3a" d="M49.713 34.9a1.25 1.25 0 0 0 1.246 1.253 1.25 1.25 0 0 0 0-2.5c-.688 0-1.246.558-1.246 1.247m.865-2.577a3.212 3.212 0 0 1 1.614.448l2.159-.93-1.26 1.748c.093.11.174.23.244.357l2.526.55-2.145.62c.01.128.034.243.034.358a3.175 3.175 0 0 1-3.172 3.174 3.175 3.175 0 0 1-3.171-3.174 3.163 3.163 0 0 1 3.17-3.151"/><path fill="#be9969" stroke="#be9969" stroke-width=".5" d="M64.856 50.277c-.461.908-1.084 1.804-1.88 2.69-3.391 3.381-6.703 4.117-9.24 4.347-.012 0-.023-.012-.033 0-.623.046-1.2.07-1.72.093-.137.011-.277.011-.404.021a8.097 8.097 0 0 0-1.73.31l-.07-.24c.647-14.95 13.405-17.962 13.405-17.962l.023-.059c.369.173.773.266 1.199.266.29 0 .577-.042.854-.127.474 1.206 2.03 5.945-.403 10.66" data-paper-data="{&quot;origPos&quot;:null}"/><path fill="#fefefe" d="M50.958 33.658c.693 0 1.246.562 1.246 1.242a1.25 1.25 0 0 1-1.246 1.253 1.25 1.25 0 0 1-1.246-1.253c0-.68.554-1.242 1.246-1.242"/><path fill="#be9969" d="M54.916 57.3c1.29.404 3.725 1.427 7 4.048 0 0 5.34 1.012 9.228 3.025 0 0 5.192-4.175 9.806-1.15 1.44 1.3 1.88 4.174-.15 5.174-2.008 1.002-4.464 1.15-4.037 2.589.438 1.436-1.004 5.175-4.314-.575 0 0-8.941 5.738-15.423 1.298l-.012-.01s1.73-1.001 1.87-2.44c.149-3.586-4.315-5.886-4.315-5.886-.473-2.852.127-5.314.347-6.072" data-paper-data="{&quot;origPos&quot;:null}"/><path fill="#f8f074" d="M65.504 39.373c-.265.08-.553.127-.853.127-.427 0-.83-.093-1.2-.265a2.843 2.843 0 0 1-1.684-2.61 2.88 2.88 0 0 1 2.884-2.876 2.874 2.874 0 0 1 2.884 2.876 2.865 2.865 0 0 1-2.031 2.748"/><path fill="#994e26" d="M4.968 32.323a7.72 7.72 0 0 0 .76-2.184c.67-3.623-1.037-7.326 1.973-14.64 3.61-8.773 14.27-8.475 14.27-8.475S28.89-2.324 43.888.549c14.995 2.876 21.34 12.364 22.355 18.113.634 3.588.922 6.175 1.972 8.349.624 1.299 1.522 2.448 2.93 3.588 3.75 3.013 6.77 7.75 4.037 14.513-2.502 6.196-9.01 5.14-10.081 4.92 2.434-4.714.876-9.453.403-10.66a2.865 2.865 0 0 0 2.03-2.748 2.87 2.87 0 0 0-.841-2.035l.127-.264s2.019-3.151.438-6.463a2.382 2.382 0 0 0-.162-.298c-1.73-2.91-6.183-1.426-6.183-1.426s-3.76-2.44-8.65-1.864c-4.916.575-20.337 2.3-29.278-5.612 0 0-6.783 5.037-8.074 8.337 0 0-5.33-1.3-6.922 2.3a5.76 5.76 0 0 0-.402 1.23c-.612 2.852 1.21 5.244 1.614 5.727a2.808 2.808 0 0 0-.772 1.956 2.873 2.873 0 0 0 2.882 2.875c-1.35 5.657-.818 9.52.567 12.142l-.14.07c-5.155 1.426-10.232-2.99-11.43-7.636-1.408-5.52 2.34-8.89 4.66-13.34" data-paper-data="{&quot;origPos&quot;:null}"/><path fill="#a5855b" d="M59.132 25.258c1.118.453 1.78.878 1.78.878s4.453-1.483 6.184 1.427c.058.092.116.195.162.3 1.58 3.31-.438 6.462-.438 6.462l-.127.264a2.871 2.871 0 0 0-2.043-.84 2.88 2.88 0 0 0-2.883 2.876c0 1.172.693 2.172 1.684 2.61l-.023.058s-1.215.29-2.912 1.123c1.857-5.663.987-11.02-1.384-15.158m-8.723 28.625a24.203 24.203 0 0 0-.386 3.37l.07.242c-1.061.277-2.146.749-3.126 1.21-.991.459-1.868.93-2.503 1.218-.157.073-.31.153-.46.24-.842.473-2.284 1.335-4.2 1.875-1.127.31-2.292.454-3.46.426-1.292-.011-2.7-.253-4.211-.83-1.028-.39-2.1-.93-3.218-1.666-.104-.057-.196-.127-.302-.195-1.35-.885-2.64-1.185-3.748-1.242.253-1.191.407-2.4.46-3.616 7.17 4.094 17.504 4.55 25.084-1.032M7.587 30.53a5.86 5.86 0 0 1 .402-1.232c1.592-3.6 6.922-2.3 6.922-2.3 1.292-3.3 8.074-8.337 8.074-8.337 8.94 7.912 24.363 6.186 29.277 5.612a13.253 13.253 0 0 1 3.786.11c-2.555.514-6.321 1.255-8.55 1.609-3.604.575-17.303 1.869-25.234-3.881 0 0-5.7 7.379-5.437 18.333-1.4-.738-2.502-1.1-2.827-1.198.127-.322.195-.667.195-1.035a2.88 2.88 0 0 0-2.883-2.876c-.841 0-1.592.356-2.11.92-.405-.483-2.226-2.875-1.615-5.726" data-paper-data="{&quot;origPos&quot;:null}"/><path fill="#fac899" d="M35.29 42.188a.437.437 0 0 1-.427-.36.428.428 0 0 1 .075-.322c1.032-1.446 2.153-2.188 3.318-2.12 1.83.06 3.023 1.968 3.073 2.05a.43.43 0 0 1-.141.592.437.437 0 0 1-.595-.14c-.01-.017-1.006-1.597-2.37-1.64-.852-.043-1.73.563-2.58 1.759a.437.437 0 0 1-.354.18" data-paper-data="{&quot;origPos&quot;:null}"/><path fill="#fefefe" d="M39.783 45.83c0-.2.324-.36.722-.36.398 0 .722.16.722.359 0 .2-.324.36-.722.36-.398 0-.722-.16-.722-.36"/><path fill="#804220" d="M4.968 32.323a7.72 7.72 0 0 0 .76-2.184c.67-3.623-1.632-6.59.243-11.765.932-2.567.865-2.443 3.028-5.175-2.308 4.888 0 9.056 2.162 9.919 4.852 1.935 11.536-5.75 11.536-5.75 6.2 7.474 26.819 6.038 37.922 4.169 4.767-.802 5.224-3.804 4.198-6.967.733 1.465 1.21 2.866 1.426 4.092.634 3.588.922 6.175 1.972 8.349.624 1.299 1.522 2.448 2.93 3.588 3.75 3.013 6.77 7.75 4.037 14.513-2.502 6.196-9.01 5.14-10.081 4.92 2.434-4.714.876-9.453.403-10.66a2.865 2.865 0 0 0 2.03-2.748 2.87 2.87 0 0 0-.841-2.035l.127-.264s2.019-3.151.438-6.463a2.382 2.382 0 0 0-.162-.298c-1.73-2.91-6.183-1.426-6.183-1.426s-3.76-2.44-8.65-1.864c-4.916.575-20.337 2.3-29.278-5.612 0 0-6.783 5.037-8.074 8.337 0 0-5.33-1.3-6.922 2.3a5.76 5.76 0 0 0-.402 1.23c-.612 2.852 1.21 5.244 1.614 5.727a2.808 2.808 0 0 0-.772 1.956 2.873 2.873 0 0 0 2.882 2.875c-1.35 5.657-.818 9.52.567 12.142l-.14.07c-5.155 1.426-10.232-2.99-11.43-7.636-1.408-5.52 2.34-8.89 4.66-13.34" data-paper-data="{&quot;origPos&quot;:null}"/><path fill="#b6531d" d="M29.042 10.18c13.883 5.005 24.99-.003 29.822-2.94 3.382 2.8 5.486 5.958 6.583 8.729-24.096 7.137-36.405-5.788-36.405-5.788m-4.471 1.293c-8.978 4.52-13.13 2.54-15.436 1.466 1.54-2.146 3.563-3.52 5.557-4.388 3.098 2.92 9.879 2.922 9.879 2.922" data-paper-data="{&quot;origPos&quot;:null}"/><path fill="#a5855b" d="M54.569 63.373c-.472-2.853.127-5.313.346-6.073.228.07.504.17.8.286.5 1.435 1.182 3.638 1.444 5.637.433 3.306 5.912 7.474 14.563 5.03 0 0 8.023.526 10.424-2.55.105 1.08-.257 2.159-1.346 2.694-2.007 1.002-4.464 1.15-4.037 2.588.438 1.438-1.004 5.176-4.315-.574 0 0-8.94 5.737-15.421 1.299l-.012-.011s1.73-1.002 1.869-2.438c.15-3.59-4.315-5.888-4.315-5.888M14.91 82.34c-1.442-4.311-2.451-11.5.29-15.38 1.9-2.694 2.827-6.563 3.218-8.68.338.095.68.19.99.25l-.022.092s.577 2.875.277 4.75c0 0-.496.493-1.108 1.287-.612.817-1.35 1.967-1.812 3.244-.092.253-.17.517-.242.78-.725 2.876 1.43 4.888 1.43 4.888l-1.73 1 .439 5.475.139 2.875s3.61-1.012 3.76.713c.138 1.725-2.607 2.737-3.034 3.887-.427 1.15.577 4.876-4.464 4.737 5.34-.286 3.31-5.605 1.87-9.918" data-paper-data="{&quot;origPos&quot;:null}"/><path fill="#f5d748" d="M46.345 62.169c.558-1.187-.303-2.263-.817-2.764.437-.22.92-.461 1.439-.7a2.327 2.327 0 0 0-.046.493 3.024 3.024 0 0 0 2.595 2.99 3.03 3.03 0 0 1-3.022 2.91c-.461 0-.912-.104-1.302-.3a3.014 3.014 0 0 1-1.705-2.356c.77.788 2.346.813 2.858-.273"/><path fill="#f5d748" d="M46.92 59.198c0-.173.013-.334.047-.494a3.779 3.779 0 0 0-.046.5zm3.943.768c-.193-1.628-1.924-1.917-1.924-1.917s-.028-.062-.076-.152c.409-.152.82-.294 1.23-.401a7.918 7.918 0 0 1 1.73-.31c.126-.011.266-.011.404-.022v.044c.472.53.75 1.23.75 1.99a3.03 3.03 0 0 1-3.022 3.024c-.15 0-.288-.01-.44-.035a3.016 3.016 0 0 1-2.301-1.722c.94 1.496 3.799.778 3.649-.5m-10.321 5.199c.975 0 1.766-.788 1.766-1.761 0-.858-.616-1.57-1.43-1.727 1.378-.513 2.45-1.135 3.125-1.511l.058.115c-.38.494-.6 1.115-.6 1.793 0 1.196.704 2.243 1.73 2.725a3.027 3.027 0 0 1-2.734 1.726 2.98 2.98 0 0 1-1.418-.357 3 3 0 0 1-1.196-1.147c.214.092.45.144.699.144"/><path fill="#f5d748" d="M36.287 66.457c.934 0 1.694-.756 1.694-1.69 0-.931-.76-1.687-1.694-1.687-.15 0-.291.025-.431.06.144-.19.305-.364.488-.515v-.16c1.28.034 2.433-.15 3.46-.427v.013a2.949 2.949 0 0 0-.381 1.46 3 3 0 0 0 1.615 2.656 3.028 3.028 0 0 1-2.768 1.805 3.053 3.053 0 0 1-2.55-1.38c-.06-.1-.117-.204-.167-.31.224.109.47.175.734.175"/><path fill="#f5d748" d="M31.925 65.667c.876 0 1.586-.708 1.586-1.581 0-.874-.71-1.581-1.586-1.581-.286 0-.552.08-.784.214a3.04 3.04 0 0 1 .933-.922l.059-.161c1.512.576 2.92.817 4.21.828v.16a3.02 3.02 0 0 0-1.106 2.325c0 .609.183 1.17.484 1.643l-.025.012a3.017 3.017 0 0 1-3.008.632 2.925 2.925 0 0 1-1.27-.828 2.91 2.91 0 0 1-.543-.84 2.96 2.96 0 0 1-.147-.457 1.57 1.57 0 0 0 1.197.556"/><path fill="#f5d748" d="M28.032 64.517c.916 0 1.659-.74 1.659-1.653s-.743-1.654-1.66-1.654c-.915 0-1.657.74-1.657 1.654 0 .913.742 1.653 1.658 1.653m.802-4.433.08-.115a16.535 16.535 0 0 0 3.22 1.666l-.06.16a3.022 3.022 0 0 0-1.453 2.578c0 .425.093.828.253 1.196a2.866 2.866 0 0 1-1.683.529 3.021 3.021 0 0 1-2.86-2.034 2.837 2.837 0 0 1-.173-.99 3.024 3.024 0 0 1 2.676-2.99"/><path fill="#f5d748" d="M22.157 60.327a1.79 1.79 0 0 0-.11.596 1.8 1.8 0 0 0 1.803 1.797 1.8 1.8 0 0 0 1.802-1.797 1.799 1.799 0 0 0-3.421-.775 3.038 3.038 0 0 1 1.677-1.605l.013-.013c.288-.01.61-.021.945 0a7.422 7.422 0 0 1 3.748 1.242c.105.07.197.139.3.197l-.08.114a3.024 3.024 0 0 0-2.675 2.99c0 .346.056.68.17.99a3.025 3.025 0 0 1-4.36-2.715c.002-.36.07-.701.188-1.021"/><path fill="#fefefe" d="M47.787 59.1a.865.865 0 1 1 1.73 0 .865.865 0 0 1-1.73 0m-3.942 2.494a.865.865 0 1 1 1.73 0 .865.865 0 0 1-1.73 0m-4.133 1.629a.865.865 0 1 1 1.732 0 .865.865 0 0 1-1.733 0m-3.94 1.245a.865.865 0 1 1 1.73 0 .865.865 0 0 1-1.73 0m-5.096-.287a.865.865 0 1 1 1.73 0 .865.865 0 0 1-1.73 0m-3.94-1.34a.865.865 0 1 1 1.73 0 .865.865 0 0 1-1.73 0M22.6 60.635a.865.865 0 1 1 1.73 0 .865.865 0 0 1-1.73 0"/><path fill="#f5d748" d="M62.254 35.029c-.014 1.422 1.088 3.018 3.22 2.032 1.326-.614 1.53-1.507 1.397-2.256a2.859 2.859 0 0 1-1.367 4.568c-.264.08-.553.126-.854.126-.426 0-.83-.092-1.2-.264a2.842 2.842 0 0 1-1.682-2.61c0-.591.179-1.14.486-1.596M8.686 37.035c.03 1.54 2.097 3.459 3.822 2.23 1.596-1.136.25-3.046-.385-3.798a2.866 2.866 0 0 1 2.072 2.744c0 .368-.07.714-.195 1.036a2.897 2.897 0 0 1-2.69 1.84 2.873 2.873 0 0 1-2.882-2.876c0-.42.097-.817.258-1.176"/><path fill="#fefefe" d="M9.527 37.158c0-.582.473-1.054 1.058-1.054.584 0 1.057.472 1.057 1.054 0 .58-.473 1.053-1.057 1.053a1.055 1.055 0 0 1-1.058-1.053m53.928-1.437c0-.53.43-.96.96-.96a.96.96 0 1 1 0 1.918.96.96 0 0 1-.961-.958"/><path fill="#e18000" d="M31.262 67.63c-.451-.341-.875-.828-1.21-1.532 0 0-2.452 1.294-5.048-1.724.46-.001.914-.108 1.327-.311a3.02 3.02 0 0 0 2.86 2.035c.622 0 1.2-.184 1.684-.53.128.312.323.598.543.84l-.036.024c-.104.357-.126.81-.12 1.199m3.259.623s-.154.042-.4.076a6.64 6.64 0 0 0-1.252-.017 2.979 2.979 0 0 1-.284-.06c.03-.188.09-.578.102-1.005v-.012a3.019 3.019 0 0 0 3.01-.632l.023-.012a3.05 3.05 0 0 0 2.493 1.373c-.91.583-2.356 1.177-3.692.289M16.779 82.922l-.137-2.875 1.29-6.475s2.89 1.87 8.082-.287c0 0-.97.464-2.183 1.232-.036-.008-.064-.035-.106-.035-.283-.004-.452.198-.568.48-1.698 1.163-3.607 2.823-4.065 4.649-.332 1.327-.407 2.308-.377 3.02-.957.02-1.936.29-1.936.29m23.208-15.488a3.075 3.075 0 0 0 1.05-1.266c.428.23.913.356 1.419.356.248 0 .486-.037.718-.092-.415.535-1.35 1.285-3.187 1.002M21.98 61.228a2.93 2.93 0 0 0-2.285-.31c-.1-1.244-.31-2.295-.31-2.295l.024-.092a12.21 12.21 0 0 0 2.283.24c.484 0 1.259-.183 2.216-.23a3.018 3.018 0 0 0-1.928 2.687m.209 36.505c.02-.112.08-.48.105-.9 3.844 1.272 9.747 2.824 15.768 3.175.048.503.21.934.634.946.405.009.595-.395.685-.89 4.19.117 8.366-.398 11.865-2.054 9.674-4.582 10.625-10.376 7.788-17.13.757.083 2.022.11 2.04-.626.012-.931-2.146-.76-2.618-.701.046-.323.415-2.53-.555-2.553-.273-.003-.445.189-.558.46-.11-.193-.217-.387-.33-.58-.932-1.046-3.01-2.82-5.972-3.396a3.64 3.64 0 0 0 .054-.36c2.18-.277 5.422-1.044 7.574-3.155-.492 1.043-1.655 1.73-1.655 1.73l.012.01c.207.299 3.505 5.187 5.466 10.063.785 1.944 1.777 3.933 2.48 5.796-.092.62-.022 1.345 0 1.61-.311-.06-2.536-.425-2.55.54-.022.932 2.136.77 2.619.713-.057.31-.426 2.53.554 2.542l.058.023c-.243.7-.703 1.322-1.43 1.85-1.084.782-2.85 1.795-5.122 2.84l-.011-.01c-.67-.206-1.695-.115-2.007-.092.057-.31.426-2.518-.554-2.542-.934-.023-.762 2.128-.716 2.61-.31-.057-2.525-.424-2.548.553-.023.932 2.133.76 2.618.714l.034.102c-4.036 1.565-9.043 3.002-14.396 3.657a49.19 49.19 0 0 1-5.848.368c-1.164 0-2.32-.057-3.45-.15-3.61-.332-7.046-1.115-10.023-2.034.162-.667.08-1.576.059-1.875.31.058 2.526.425 2.549-.54.02-.932-2.135-.77-2.62-.714m-11.43-6.485c.45.586 1.176.977 2.283 1.01 5.04.14 4.037-3.587 4.465-4.736.3-.81 1.748-1.552 2.53-2.523.328.506.466 1.274-.224 2.373-1.442 2.3-4.181 6.613-1.586 7.906.448.223 1.387.615 2.68 1.078-.04.481-.035.966.013 1.447-.312-.06-2.526-.425-2.55.54-.02.932 2.135.77 2.619.713-.033.16-.126.793-.103 1.39a59.65 59.65 0 0 1-3.38-1.241c-3.644-1.46-5.918-2.783-5.918-2.783s-4.221-1.128-.83-5.174m33.254-25.16c.509-.305.925-.75 1.18-1.29.39.196.84.299 1.302.299a3.029 3.029 0 0 0 2.704-1.687c-.15.775-1.014 3.654-5.186 2.68m10.424-3.851c-.815.876-2.41 1.862-5.158.998.138-.326.225-.678.239-1.05.15.024.288.036.438.036a3.031 3.031 0 0 0 3.022-3.025c0-.76-.277-1.46-.75-1.99v-.044c.52-.024 1.097-.047 1.719-.092.01-.013.023 0 .036 0 .17.02.483.092.934.228-.19.656-.66 2.587-.48 4.94m-5.64 11.045s.345.004.898-.028c0 .023.005.043.005.064-.298-.017-.59-.047-.903-.036"/><path fill="#a5855b" d="M55.919 99.02c.127-.046.242-.091.357-.137-.038.486-.142 1.53-.398 2.865-.714-.421-1.96-.717-3.861.287-3.23 1.704-8.132 10.69.814 10.915-.037.334-.374.59-1.296.446-1.73-.298-4.613-1.3-4.613-1.3s-4.28-6.198-5.4-9.418c5.354-.655 10.36-2.092 14.397-3.657m-31.204 4.164c-2.176-1.627-4.846-1.473-6.753-1.032a23.608 23.608 0 0 1-.456-2.948c1.016.415 2.158.829 3.38 1.242.426.139.865.277 1.314.415 2.977.92 6.413 1.702 10.024 2.034l-.01.093c-1.016 3.162-5.284 9.107-5.284 9.107s-2.883 1-4.614 1.3c-.94.148-1.27-.122-1.297-.466 6.598-.407 7.475-6.92 3.696-9.745" data-paper-data="{&quot;origPos&quot;:null}"/><path fill="#e18000" d="M46.922 112.097s1.162.402 2.452.773c.51 1.277 1.847 3.923 4.18 3.923 1.396 0 2.09-.655 2.078-1.506.279.478.419.945.298 1.34-.506 1.645-4.751 1.152-5.905.426-1.155-.712-1.374-1.15-1.374-1.15l-.506 1.082s-.647.287-1.512-.068c0 0-1.083-3.89.289-4.82M18.277 115.19c-.22.564-.108 1.079.67 1.41 2.05.875 4.203-2.124 5.119-3.614 1.444-.398 2.864-.89 2.864-.89 1.36.93.288 4.82.288 4.82-.864.355-1.522.068-1.522.068l-.496-1.08s-.218.437-1.372 1.149c-1.154.726-5.41 1.22-5.92-.425-.123-.424.048-.924.369-1.437"/></g></svg>