<svg xmlns="http://www.w3.org/2000/svg" width="73.339" height="116.955"><g fill-rule="evenodd" stroke-miterlimit="10" data-paper-data="{&quot;isPaintingLayer&quot;:true}" style="mix-blend-mode:normal"><path fill="#343434" d="M44.346 111.019c1.81 1.121 3.12 3.394 1.574 5.261-1.17 1.315-2.891.269-4.199-.289-1.445-.69-3.096-1.18-4.405-2.08-.847-.595-1.838-1.222-2.408-2.107-.177-.271-.26-.521-.198-.785h-.134l-.38-19.13h-.288l-.38 19.13h-.134c.065.264-.019.514-.195.785-.571.885-1.561 1.512-2.409 2.107-1.308.9-2.96 1.39-4.404 2.081-1.309.557-3.029 1.603-4.199.287-1.549-1.866-.237-4.14 1.573-5.26h-.205l-1.967-26.386h24.931l-1.97 26.386h-.203"/><path fill="#9e723f" d="M7.351 44.321c1.124 2.664.537 5.464-1.31 6.25-1.846.786-4.254-.738-5.379-3.404-1.122-2.666-.534-5.465 1.31-6.25 1.848-.787 4.252.737 5.379 3.404m53.465 0c-1.124 2.664-.54 5.464 1.308 6.25 1.848.786 4.254-.738 5.378-3.404 1.122-2.666.535-5.465-1.31-6.25-1.846-.787-4.254.737-5.376 3.404" data-paper-data="{&quot;origPos&quot;:null}"/><path fill="#fff" d="m43.33 50.983 11.675 4.268 5.429-6.557 4.79 2.371s-4.423 9.334-7.419 10.426c-2.423.883-10.968-2.609-10.968-2.609s-.695-2.669-1.053-3.516c-.49-1.154-2.454-4.382-2.454-4.382"/><path fill="#1679af" d="M45.2 53.52c-.564-.463-.664-1.243-1.056-1.716l.084-.492 1.33.487-.358 1.72zm1.359 3.497s-.385-1.176-.774-1.65l.554-3.285 1.275.468zm1.734 2.428c-.611-.226-1.067-.406-1.299-.497l1.42-6.106 1.533.56zm2.481.869c-.461-.148-.91-.302-1.323-.448l1.602-6.06 1.54.561-1.82 5.947zm4.41-5.281-1.096 6.224a29.92 29.92 0 0 1-1.36-.35l.842-6.18 1.435.525.179-.218zm.326-.39 1.268-1.534 2.258 7.574c-.42.377-.828.658-1.213.802l-2.313-6.843zm5.849 3.232-4.316-5.084 1.084-1.312 4.056 5.138c-.267.424-.542.844-.824 1.258m2.38-3.929-5.199-2.961 1.081-1.308 4.806 2.976c-.2.384-.432.823-.688 1.293"/><path fill="#fff" d="M24.835 50.984s-1.965 3.228-2.452 4.382c-.36.847-1.052 3.516-1.052 3.516s-8.546 3.492-10.969 2.609c-2.999-1.092-7.419-10.426-7.419-10.426l4.788-2.371 5.428 6.557 11.675-4.268"/><path fill="#fff" d="M43.759 51.359c5.75 6.108 6.295 33.273 6.295 33.273H18.145s.542-27.129 6.295-33.237c1.549-1.644 7.825-1.942 7.825-1.942l1.762.087h.145l1.762-.058s6.275.23 7.825 1.877"/><path fill="#1679af" d="M49.852 79.751c.034.593.063 1.188.089 1.716H18.259c.024-.528.053-1.123.086-1.716h31.507m-31.393-1.847c.038-.593.074-1.121.122-1.716h31.037c.043.596.086 1.123.121 1.716h-31.28m.27-3.56c.045-.573.097-1.145.155-1.716h30.429c.057.528.107 1.121.157 1.716H18.729m.331-3.431c.062-.593.129-1.188.199-1.716h29.683c.071.571.137 1.143.196 1.716H19.06m.411-3.366c.076-.593.157-1.186.246-1.716h28.764c.092.57.174 1.143.246 1.716H19.471m.554-3.626c.095-.574.2-1.146.318-1.716h27.514c.116.57.222 1.142.318 1.716h-28.15m2.984-10.439c-.016.015-.028.027-.043.038l-.36-1.72 1.332-.487.083.492a1.89 1.89 0 0 0-.202.312c.065-.091.132-.181.202-.269h20.162c.373.463.726 1.058 1.053 1.715h-22.27l.043-.08"/><path fill="#1679af" d="M21.732 56.663c-.079.209-.127.353-.127.353l-1.055-4.467 1.275-.465.554 3.261h23.63c.214.565.41 1.138.587 1.716H21.605c.041-.134.084-.264.127-.398"/><path fill="#1679af" d="M21.061 58.99c-.249.101-.664.259-1.189.453l-1.654-6.04 1.53-.562 1.398 6h25.953c.036.132.07.243.1.375.005.019.01.016.015.033.033.132.064.267.095.399v.007c.071.292.138.584.201.878a.09.09 0 0 1 .002.022H20.689v-.019c.066-.293.13-.6.2-.888l.002-.007c.03-.127.063-.254.096-.38.004-.021.009-.028.014-.048.019-.079.04-.151.06-.223m-3.947-5.185 1.602 6.06c-.415.147-.86.298-1.325.45l-1.819-5.948 1.542-.561zm-2.519.922.842 6.18c-.458.129-.916.246-1.36.35l-1.096-6.224.179.219zM9.13 60.682l2.258-7.571 1.27 1.53-2.313 6.842c-.387-.143-.795-.424-1.215-.8zm1.993-7.891-4.318 5.083c-.279-.41-.554-.835-.819-1.257l4.048-5.139zm-1.496-1.807-5.2 2.962c-.258-.471-.49-.91-.69-1.294l4.805-2.976z"/><path fill="#e63744" d="M51.044 75.837c2.175-.315 0 8.861 0 8.861H19.825a24.006 24.006 0 0 1-.171 2.152c-.387 3.738-1.917 7.258-2.937 10.788-1.024-.405-1.723.411-2.745.615-.064-.341-.064-.816-.064-1.224 0-3.055-.636-6.384-.256-9.307.256-1.834.896-3.598 1.468-5.364.227-.72 1.101-4.464 2.402-3.963 2.487.007 16.349-.077 33.522-2.558"/><path fill="#ad6922" d="M5.906 90.727c1.902.575 3.215 2.318 3.215 4.375v17.231c0 2.529-2.038 4.622-4.554 4.622h-.012c-2.516 0-4.555-2.092-4.555-4.622V95.101c0-2.153 1.508-3.96 3.478-4.445V34.633h-.341c-.463 0-.84-.401-.84-.866v-.03a.823.823 0 0 1 .84-.82h2.848a.822.822 0 0 1 .84.821v.028c0 .467-.375.867-.84.867h-.079v56.094"/><path fill="#d38014" d="M61.483 46.116c-.703-1.874 2.979-6.394 4.967-6.262l6.889 11.458-11.856-5.196"/><path fill="#fabf68" d="m67.214 41.143 6.124 10.168-10.539-4.61c-.621-1.663 2.652-5.671 4.416-5.558z"/><path fill="#d38014" d="M66.59 45.755c0 .782-.546 1.418-1.217 1.418-.67 0-1.215-.636-1.215-1.418 0-.782.544-1.418 1.215-1.418.67 0 1.217.636 1.217 1.418"/><path fill="#e52f2c" d="m66.59 42.137.258 1.126-.706.367-.13-.727zm1.573 5.013.258 1.128-.707.365-.128-.727z"/><path fill="#4ba534" d="M67.366 44.686s.22-.257.664-.35c.447-.089.807 1.418.807 1.418s-.578.451-.609.06c-.031-.391-.862-1.128-.862-1.128"/><path fill="#d38014" d="M70.952 49.285c-.671 0-1.218-.636-1.218-1.419 0-.588.306-1.089.743-1.305l1.365 2.268c-.222.278-.54.456-.89.456"/><path fill="#9e723f" d="M8.671 45.535c.458-2.362-.051-4.452-1.139-4.664-1.089-.211-2.337 1.532-2.793 3.896-.458 2.364.05 4.449 1.136 4.665 1.089.211 2.34-1.533 2.796-3.897m50.824 0c-.457-2.362.052-4.452 1.14-4.664 1.086-.211 2.337 1.532 2.793 3.896.458 2.364-.052 4.449-1.138 4.665-1.086.211-2.34-1.533-2.796-3.897m-2.8-16.861c1.175.758 1.945 2.049 1.945 3.518 0 2.333-1.954 4.227-4.37 4.227-.067 0-.136-.003-.205-.005-3.91 7.046-11.403 11.813-20 11.813-8.607 0-16.105-4.776-20.01-11.835-.16.017-.323.027-.485.027-2.413 0-4.368-1.894-4.368-4.227 0-1.574.89-2.949 2.208-3.674a23.552 23.552 0 0 1-.232-3.303c0-12.708 10.248-23.013 22.888-23.013 12.639 0 22.887 10.305 22.887 23.013a23.26 23.26 0 0 1-.258 3.458" data-paper-data="{&quot;origPos&quot;:null}"/><path fill="#353334" d="M28.163 25.289c-.772-.174-.908-1.201-3.386-.74-.779.18-2.417 1.156-2.732 1.808-.316.652-.088-2.392 2.457-3.522 1.835-.675 2.457-.642 3.977-.642s1.987.907 1.766 1.65c0 0-.503 1.803-2.082 1.446zm13.905 0c.772-.174.908-1.201 3.386-.74.779.18 2.417 1.156 2.732 1.808.316.652.087-2.392-2.457-3.522-1.835-.675-2.457-.642-3.977-.642s-1.987.907-1.766 1.65c0 0 .503 1.803 2.082 1.446zM27.934 31.193c0 1.657-.895 3-2 3s-2-1.343-2-3 .895-3 2-3 2 1.343 2 3m18 0c0 1.657-.895 3-2 3s-2-1.343-2-3 .895-3 2-3 2 1.343 2 3" data-paper-data="{&quot;origPos&quot;:null}"/><path fill="#eeac6c" d="M34.954 34.262c-1.125.153-3.02 1.834-3.02 1.834s.207-1.009.503-1.299c.8-1.156 2.487-1.604 2.487-1.604s2.173.703 2.65 1.588c.443.824.34 1.238.34 1.238s-2.121-1.871-2.96-1.756z"/><path fill="#a84444" d="M28.134 37.889s6.897 3.208 13.172-.397c0 0-1.39 5.47-5.95 5.561-4.115.122-4.984-1.492-5.477-1.956-.492-.463-1.42-1.772-1.745-3.208" data-paper-data="{&quot;origPos&quot;:null}"/><path fill="#353334" d="M57.86 22.218c.035 2.702-.902 8.548-2.735 12.033 0 0-4.5-12.806-8.21-14.836-4.531-2.477-16.478 1.094-20.531-2.12-.671-.53-.597-1.737-.597-1.737s-.773 1.535-1.148 1.965c-1.962 2.244-7.052 5.496-9.467 7.243-1.941 1.405-2.032 1.388-1.605 9.485 0 0-3.568-7.368-3.37-12.288.057-1.416.74-4.562 1.852-7.757C16.076 6.078 24.424.495 34.068.495c11.08 0 20.445 7.368 23.52 17.492.158 1.405.249 2.816.272 4.23" data-paper-data="{&quot;origPos&quot;:null}"/><path fill="#9e723f" d="M32.283 50.991c-1.069 0-1.939-2.244-1.939-3.298h7.613c0 1.054-.867 3.298-1.938 3.298h-3.736" data-paper-data="{&quot;origPos&quot;:null}"/><path fill="#eeac6c" d="M31.164 50.157a5.536 5.536 0 0 1-.803-2.232c2.51.413 5.072.404 7.58-.027l-.012.015-6.765 2.244"/><path fill="#e63744" d="M39.819 49.847c.903.878 1.236 1.668.036 2.923-.482.502-1.757.456-2.647.389.071.39.106.785.105 1.181 0 1.893-.769 3.427-1.753 3.427-.918 0 0-.07 0-1.966 0-.624-.1-1.372-.2-2.09-1.045.437-1.215.504-2.821.497-1.743-.01-3.896-1.57-5.034-2.813-.777-.868-.777-1.411.3-1.898.837-.382 1.599-1.572 2.557-1.572-.048 2.361 2.461 3.511 4.793 3.727.014-.451.124-.737.406-.737.303 0 .585.146.828.398.674-.933 1.599-2.155 1.354-3.338.334.096 1.799 1.601 2.076 1.872" data-paper-data="{&quot;origPos&quot;:null}"/><path fill="#fabf68" d="M64.167 14.117v1.584H4v-1.584h7.152V0h45.797v14.117z"/><path fill="#e63744" d="M66.563 27.228c.638.923 1.416 1.917 2.332 2.63-2.191-.499-4.592 2.128-6.077 3.338-1.062-1.845-2.335-3.621-2.829-5.685-.424-2.06-.424-4.193-.424-6.255 0-1.829.26-3.705-.16-5.51-.19-.807-.526-1.649-1.24-2.124-.286-.192-.756-.281-1.215-.416v.91H11.154v-4.35h45.795v1.35c.79-.076 1.738.245 2.263.414 1.347.438 2.702 1.242 3.25 2.62 1.766 4.265 1.415 9.167 4.1 13.077"/></g></svg>