<svg xmlns="http://www.w3.org/2000/svg" xmlns:xlink="http://www.w3.org/1999/xlink" width="120" height="120"><defs><path id="a" d="M0 64.274h119.447V0H0z"/></defs><g fill="none" fill-rule="evenodd" transform="translate(0 28)"><path fill="#F2480D" d="M90.851 6.321c3.507 0 6.349-2.832 6.349-6.32H84.503c0 3.488 2.84 6.32 6.348 6.32"/><path fill="#B6360A" d="M90.851 3.16c1.75 0 3.17-1.412 3.17-3.153h-6.336a3.16 3.16 0 0 0 3.166 3.152"/><path fill="#F2C53D" d="M101.5 9.07c3.063 1.697 6.93.6 8.632-2.452L99.036.472c-1.704 3.05-.602 6.899 2.463 8.598"/><path fill="#F29D35" d="M103.042 6.308c1.529.845 3.458.3 4.31-1.224l-5.538-3.066a3.146 3.146 0 0 0 1.228 4.29"/><path fill="#B6B6B6" d="M109.202 16.385c1.845 2.97 5.755 3.887 8.738 2.048l-6.68-10.749a6.302 6.302 0 0 0-2.058 8.7"/><path fill="#898989" d="M111.901 14.723a3.175 3.175 0 0 0 4.36 1.024l-3.333-5.366a3.145 3.145 0 0 0-1.026 4.341"/><path fill="#1AB2D6" d="M80.62 9.66c-2.943 1.898-6.874 1.06-8.78-1.87L82.502.919a6.304 6.304 0 0 1-1.881 8.742"/><path fill="#1967CC" d="M78.895 7.008a3.177 3.177 0 0 1-4.38-.933l5.32-3.429a3.145 3.145 0 0 1-.94 4.362"/><mask id="b" fill="#fff"><use xlink:href="#a"/></mask><path fill="#2E1D0A" d="M0 64.272h59.724v-3.98H0z" mask="url(#b)"/><path fill="#000" d="M119.446 60.292H59.723v3.98l59.723.001z" mask="url(#b)"/><path fill="#F2C53D" d="M59.724 55.474H4.837C2.165 55.474 0 57.632 0 60.291h59.724v-4.817z" mask="url(#b)"/><path fill="#F29D35" d="M119.446 60.292c0-2.66-2.165-4.815-4.838-4.817H59.723v4.817h59.723z" mask="url(#b)"/><path fill="#198F7A" d="M60.462 28.134s-19.979 20.027-31.09 20.027c-11.11 0-20.72-8.966-20.72-20.027 0-11.06 9.61-20.027 20.72-20.027 11.111 0 31.09 20.027 31.09 20.027" mask="url(#b)"/><path fill="#1967CC" d="M100.793 55.465h4.12v-43.16h-4.12zm-7.826 0h4.12V8.517h-4.12zm-7.762 0h4.12V8.517h-4.12zm-7.793 0h4.12v-43.16h-4.12zm-7.844 0h4.12v-37.13h-4.12zm-7.87 0h4.12v-31.09h-4.12zm-7.87 0h4.12v-31.09h-4.12zm-7.871 0h4.12V16.826h-4.12zm-7.895 0h4.12v-43.16h-4.12zm-7.884 0h4.12V7.691h-4.12zm-7.846 0h4.12V9.125h-4.12zm-7.868 0h4.118v-43.16h-4.118zm-7.872 0h4.12V29.743h-4.12z" mask="url(#b)"/><path fill="#21BFA2" d="M29.372 10.566c-10.115 0-18.66 8.233-18.66 17.976 0 9.745 8.545 17.977 18.66 17.977 7.741 0 21.763-11.873 28.15-17.977-6.39-6.1-20.416-17.976-28.15-17.976m0 40.055c-12.35 0-22.78-10.11-22.78-22.079 0-11.967 10.43-22.078 22.78-22.078 11.834 0 31.711 19.791 32.551 20.634l1.443 1.444-1.443 1.445c-.84.843-20.717 20.634-32.55 20.634" mask="url(#b)"/><path fill="#21BFA2" d="m112.706 55.474-4.12-.017.114-26.923c0-9.904-8.1-17.968-18.057-17.968-8.381 0-23.548 13.997-28.686 19.389l-2.99-2.823c.804-.843 19.815-20.668 31.676-20.668 12.228 0 22.178 9.905 22.178 22.078l-.115 26.932z" mask="url(#b)"/></g></svg>