<svg xmlns="http://www.w3.org/2000/svg" width="63.528" height="117.934"><g fill-rule="evenodd" stroke-miterlimit="10" data-paper-data="{&quot;isPaintingLayer&quot;:true}" style="mix-blend-mode:normal"><path fill="#f9d075" d="m11.058 113.566.442-1.933 1.694-.249v1.402l-.37.794z"/><path fill="#c38b0b" d="M12.532 112.646c.143-.211.195-.758.217-1.198l.445-.064v1.402l-.37.793-1.406-.011c.346-.184.814-.493 1.114-.922"/><path fill="#f9d075" d="m15.804 112.471.35-1.526 1.337-.198v1.109l-.292.626z"/><path fill="#c38b0b" d="M16.968 111.746c.115-.167.156-.6.172-.947l.35-.053v1.108l-.293.63-1.107-.01c.273-.146.643-.391.878-.728"/><path fill="#f9d075" d="m20.666 111.187.26-1.158 1.013-.149v.84l-.22.473z"/><path fill="#c38b0b" d="M21.544 110.634c.088-.124.12-.451.13-.715l.266-.037v.84l-.22.47-.842-.004c.209-.111.488-.296.666-.554"/><path fill="#f9d075" d="m25.336 109.94.179-.778.682-.1v.565l-.148.317z"/><path fill="#c38b0b" d="M25.927 109.569c.06-.085.08-.302.09-.482l.179-.025v.565l-.145.317-.57-.004c.175-.088.328-.215.446-.372"/><path fill="#f9d075" d="m16.427 117.908.871-3.836 3.368-.493v2.784l-.735 1.571z"/><path fill="#c38b0b" d="M19.346 116.085c.291-.42.394-1.503.427-2.378l.893-.127v2.782l-.734 1.572-2.794-.02c.69-.369 1.614-.979 2.208-1.829"/><path fill="#f9d075" d="m11.82 116.876.665-2.92 2.563-.376v2.118l-.559 1.198z"/><path fill="#c38b0b" d="M14.044 115.486c.22-.32.299-1.145.326-1.807l.678-.1v2.118l-.56 1.2-2.124-.018c.523-.28 1.229-.743 1.68-1.393"/><path fill="#f9d075" d="m9.064 115.743.484-2.129 1.87-.278v1.547l-.41.873z"/><path fill="#c38b0b" d="M10.686 114.728c.158-.23.222-.833.238-1.32l.495-.071v1.545l-.412.874-1.546-.01c.383-.204.897-.544 1.225-1.018"/><path fill="#e8a74a" d="M60.944 60.286c3.023 0 .526 17.644 0 23.493-.365 4.076-.816 16.405-2.93 16.1-4.439-.635-1.267-13.557-.983-18.071.345-5.46 1.854-21.522 3.913-21.522"/><path fill="#e19631" d="M61.041 62.925c1.73.803-.44 15.004-.966 20.853-.365 4.078.01 15.314-2.06 14.782-1.877-.482.424-12.24.71-16.753.346-5.46.961-19.513 2.316-18.882"/><path fill="#efb875" d="M59.937 63.407s1.47 2.203 1.687 3.05c.04.157 0 .657 0 .657l-1.687-3.706m-.425 3.706s1.366 1.903 1.57 2.643c.082.302 0 1.247 0 1.247l-1.571-3.89m-.403 4.528s1.331 1.434 1.548 2.098c.069.211.462 1.389.462 1.389l-2.01-3.487m-.528 4s1.862 1.818 2.17 2.611c.066.156.04.667.04.667l-2.211-3.278m-.206 4.443s1.437 1.09 1.74 1.6c.108.183.203.818.203.818l-1.943-2.418m-.709 3.751s1.645 1.19 2.022 1.74c.107.158.25.716.25.716l-2.272-2.456m-.017 3.79s1.604 1.595 1.85 2.293c.092.269 0 1.147 0 1.147l-1.85-3.44m-.591 4.735s1.291 1.4 1.534 1.98c.147.342.21 1.477.21 1.477l-1.744-3.457"/><path fill="#77594e" d="M6.329 40.883c1.217-.52 2.673-.042 3.852 1.107.53-.816 1.164-1.27 1.754-1.154 1.093.218 1.61 2.334 1.146 4.725-.176.92-.469 1.742-.825 2.397a5.14 5.14 0 0 1-.207.85l5.562 6.597 11.798-4.269s-2.008 3.218-2.501 4.387c-.36.858-1.063 3.564-1.063 3.564s-8.615 3.538-11.057 2.64c-3.025-1.109-6.492-11.055-6.492-11.055h.002c-1.305-.467-2.563-1.722-3.291-3.456-1.13-2.702-.54-5.535 1.322-6.333m50.08 16.033c3.712 4.786 5.133 19.182 5.133 19.182l-.009-.062c.48.698.816 1.602.922 2.615.248 2.41-.891 4.503-2.548 4.678-1.082.116-2.123-.613-2.778-1.804-.616.513-1.224.715-1.66.484-.813-.438-.714-2.231.216-4.011a6.85 6.85 0 0 1 1.22-1.687c.034-.075.074-.144.114-.215 0 0-1.615-10.396-3.333-12.858-.863-1.231-1.42-1.924-1.617-2.469-.157-.438-.33-1.278-.399-1.593-.554-2.47-3.579-8.04-3.579-8.04s6.514 3.45 8.318 5.78" data-paper-data="{&quot;origPos&quot;:null}"/><path fill="#dcdcdc" d="M17.739 55.121s3.848-1.733 12.164-4.235c2.31-1.118 6.972-1.383 6.972-1.383l1.775.058h.148l1.777-.022s5.285.211 7.386 1.515v.01c6.459 3.13 8.903 5.402 10.148 8.344 1.56 3.693 3.747 12.989 3.85 16.622h-5.293s-1.236-11.213-4.142-13.96l2.288 23.044H22.639s.308-15.562 2.939-25.904c0 0-8.279 3.998-10.886 2.922-2.978-1.229-6.575-11.186-6.575-11.186l4.136-2.25z"/><path fill="#696969" d="M38.418 63.01a.642.642 0 0 1 1.283 0c0 .358-.286.65-.64.65a.647.647 0 0 1-.643-.649m0 3.543a.645.645 0 0 1 .643-.65.643.643 0 0 1 .64.649.642.642 0 0 1-1.283 0m0-7.458c0-.356.287-.645.643-.647a.644.644 0 0 1 .64.646c0 .358-.286.65-.64.65a.647.647 0 0 1-.643-.649"/><path fill="#ce8f64" d="M54.811 85.111c0 3.213-1.573 10.813-4.046 13.463-.372.9-.625 1.49-.672 1.6l-11.16.044h-.004l-.009-.44-.145-7.244h-.284l-.145 7.677-11.163.007h-.006s-.263-.629-.663-1.644c-2.626-3.003-3.874-10.232-3.874-13.449 0 0-.017-7.111.264-11.274 5.93-2.493 7.819-9.606 7.819-9.606V50.558a15.988 15.988 0 0 1 2.581-.62v14.327h10.848v-14.35c.863.14 1.788.332 2.583.59v13.724s.807 6.676 7.315 9.647c.601 4.278.761 11.235.761 11.235"/><path fill="#ad6920" d="M53.186 84.64a.067.067 0 0 0 .069-.066.068.068 0 0 0-.069-.067c-3.165 0-7.13-1.255-8.577-3.653a.062.062 0 0 0-.088-.022.065.065 0 0 0-.025.093c1.47 2.438 5.485 3.715 8.69 3.715m-29.078 0a.065.065 0 0 1-.066-.066c0-.036.028-.067.065-.067 3.169 0 7.135-1.255 8.58-3.653.018-.034.062-.04.09-.022.034.02.042.06.025.093-1.472 2.438-5.487 3.715-8.695 3.715"/><path fill="#eeeeed" d="M37.247 79.931s-1.872-9.846-2.924-12.984c-.299-.882-.959-1.94-2.479-1.593-1.052.242-1.76 1.057-1.452 2.42-.238.162-.957.428-1.118.188-.45-2.002.755-3.555 2.277-3.906 2.3-.53 3.369 1.43 3.732 2.529 1.038 3.155 2.952 13.117 2.952 13.117-.139.218-.779.37-.988.23"/><path fill="#e42328" d="m37.903 78.008.213 1.078-1.179-.751c-.066-.322-.139-.684-.216-1.08l1.182.753m-.462-2.296c.07.361.144.723.22 1.083l-1.186-.754c-.075-.351-.15-.713-.224-1.086l1.19.757m.358 4.233c-.213.053-.442.062-.552-.013 0 0-.029-.14-.077-.387zm-.846-6.543c.079.367.154.734.228 1.089l-1.19-.757c-.078-.363-.156-.727-.238-1.094l1.2.762m-1.474-1.995c-.086-.376-.169-.747-.257-1.107l1.218.776c.082.36.165.729.247 1.1l-1.208-.769m.402-2.691c.086.356.178.728.27 1.118l-1.234-.787a82.483 82.483 0 0 0-.301-1.133l1.265.802m-1.702-2.14a2.587 2.587 0 0 0-.602-.86l1.634.667c.026.067.05.134.072.202.092.286.18.573.26.862l-1.364-.871m-1.295-2.546c.649.144 1.15.52 1.533.966l-1.527.349a2.091 2.091 0 0 0-.935-.013l.929-1.302m-1.795 1.642a1.755 1.755 0 0 0-.49.489l-.851-.884c.346-.495.83-.876 1.392-1.095l-.05 1.49m-.771 1.568c.008.18.032.358.072.534-.235.16-.955.428-1.117.188a3.56 3.56 0 0 1-.022-1.548l1.067.826"/><path fill="#eeeeed" d="M37.434 78.917s2.06-11.016 2.24-14.716c.05-1.04-.205-2.415-1.93-2.682-1.19-.187-2.261.367-2.497 1.913-.31.07-1.166.045-1.238-.269.345-2.269 2.23-3.386 3.96-3.117 2.602.402 2.917 2.886 2.851 4.177-.2 3.711-2.264 14.87-2.264 14.87-.233.164-.959.06-1.122-.176"/><path fill="#e42328" d="M38.899 77.192c-.083.482-.158.896-.215 1.206l-.924-1.266.215-1.214.924 1.274m.452-2.582c-.073.422-.146.833-.214 1.216l-.926-1.274c.071-.393.141-.804.211-1.222l.929 1.28m-1.345 4.549c-.244-.029-.486-.12-.572-.242 0 0 .032-.153.082-.433zm1.778-7.154c-.068.415-.134.829-.202 1.231l-.933-1.282c.068-.411.137-.825.198-1.236l.937 1.287m-.721-2.686.185-1.256.95 1.31c-.062.409-.128.826-.194 1.244l-.941-1.298m1.508-2.63c-.048.405-.107.831-.167 1.273l-.968-1.328c.059-.467.107-.907.147-1.307l.988 1.362m-.898-2.932c-.019-.384-.095-.789-.279-1.144l1.434 1.373c-.004.08-.009.162-.009.236-.013.293-.041.626-.081 1.004l-1.065-1.468m-.312-3.186c.616.415.988 1.017 1.202 1.64l-1.727-.267a2.33 2.33 0 0 0-.968-.405l1.493-.968m-2.533.963a1.87 1.87 0 0 0-.708.304l-.526-1.275a3.433 3.433 0 0 1 1.897-.558l-.663 1.529m-1.435 1.311a3.26 3.26 0 0 0-.144.586c-.311.069-1.17.045-1.24-.268a4.03 4.03 0 0 1 .608-1.618l.777 1.3"/><path fill="#eeeeed" d="M38.717 79.839c-.183.1-.686-.064-.786-.247 0 0 2.185-7.924 3.23-10.402.361-.864 1.355-2.375 3.175-1.8 1.21.382 2.083 1.718 1.588 3.309-.145.18-.713-.084-.889-.231.332-1.077-.187-1.784-1.018-2.047-1.21-.382-1.809.431-2.104 1.127-1.051 2.462-3.196 10.291-3.196 10.291"/><path fill="#e42328" d="m38.308 78.244 1.004-.531c-.088.313-.172.6-.245.86l-.998.527c.06-.22.14-.512.24-.856m.522-1.824 1.01-.533c-.086.295-.172.582-.251.862l-1.008.531c.077-.271.163-.562.249-.86m-.03 3.112c-.053.198-.084.307-.084.307-.095.053-.28.033-.449-.027zm.571-4.946 1.014-.535c-.083.286-.171.577-.255.866l-1.016.534c.085-.285.171-.571.257-.865m1.317-1.514-1.025.54c.092-.294.183-.587.27-.874l1.037-.542c-.095.284-.187.578-.282.876m-.148-2.201 1.073-.562c-.103.269-.206.57-.316.893l-1.05.553c.101-.306.198-.602.293-.884m1.513-1.615-1.158.61c.097-.254.183-.48.266-.676a2.61 2.61 0 0 1 .07-.16l1.36-.43c-.223.18-.406.403-.539.656m1.21-1.974.664 1.113a1.703 1.703 0 0 0-.756-.049l-1.208-.382c.336-.338.765-.61 1.3-.682m1.343 1.444.055-1.205c.431.21.803.547 1.054.974l-.746.66a1.354 1.354 0 0 0-.363-.43m.52 1.318.915-.595c.05.386.022.81-.117 1.25-.145.18-.713-.084-.889-.23a2.26 2.26 0 0 0 .09-.425"/><path fill="#ad6920" d="M44.144 69.59v5.413c0 2.953-2.372 5.347-5.296 5.347h-.264c-2.919 0-5.293-2.394-5.293-5.347V69.59zm-11.488-4.4c0 .366-.293.66-.653.66a.657.657 0 0 1-.654-.66c0-.363.295-.658.654-.658.36 0 .653.295.653.658m13.432 0a.656.656 0 0 1-1.311 0 .656.656 0 0 1 1.311 0"/><path fill="#542811" d="m35.384 91.011-7.71 2.52-5.536-17.271 7.711-2.52z"/><path fill="#75380f" d="m25.53 78.881-1.67.547-.884-2.765 1.672-.547z"/><path fill="#8d5015" d="M23.746 79.083c1.558-.427.913-2.185.597-2.869l.303-.096.885 2.762-1.67.547-.115-.344"/><path fill="#75380f" d="m27.912 78.103-1.672.547-.886-2.765 1.672-.547z"/><path fill="#8d5015" d="M26.129 78.304c1.558-.427.913-2.185.596-2.867l.299-.098.889 2.765-1.672.544-.112-.344"/><path fill="#75380f" d="m30.293 77.324-1.672.546-.887-2.764 1.672-.549z"/><path fill="#8d5015" d="M28.509 77.525c1.56-.425.916-2.187.597-2.869l.298-.098.89 2.767-1.672.544-.113-.344"/><path fill="#75380f" d="m26.589 82.184-1.672.549-.885-2.767 1.672-.547z"/><path fill="#8d5015" d="M24.808 82.384c1.557-.423.911-2.183.594-2.865l.301-.1.887 2.765-1.672.548-.11-.348"/><path fill="#75380f" d="m28.969 81.404-1.672.546-.884-2.764 1.672-.547z"/><path fill="#8d5015" d="M27.19 81.606c1.556-.425.912-2.183.592-2.867l.302-.098.886 2.762-1.672.547-.108-.344"/><path fill="#75380f" d="m31.352 80.626-1.672.546-.882-2.764 1.667-.547z"/><path fill="#8d5015" d="M29.571 80.828c1.558-.425.911-2.185.594-2.867l.299-.098.889 2.762-1.672.547-.11-.344"/><path fill="#75380f" d="m27.648 85.488-1.672.547-.887-2.767 1.672-.544z"/><path fill="#8d5015" d="M25.865 85.686c1.557-.422.913-2.18.596-2.862l.299-.1.889 2.765-1.672.544-.113-.347"/><path fill="#75380f" d="m30.031 84.708-1.672.548-.887-2.767 1.672-.547z"/><path fill="#8d5015" d="M28.249 84.911c1.554-.425.911-2.187.59-2.869l.303-.098.89 2.764-1.672.547-.11-.344"/><path fill="#75380f" d="m32.409 83.928-1.672.55-.882-2.767 1.67-.547z"/><path fill="#8d5015" d="M30.63 84.129c1.558-.424.911-2.184.592-2.866l.301-.098.887 2.764-1.672.547-.108-.347"/><path fill="#75380f" d="m28.707 88.79-1.674.546-.882-2.764 1.67-.547z"/><path fill="#8d5015" d="M26.924 88.99c1.558-.424.911-2.184.594-2.866l.301-.098.889 2.764-1.674.545-.11-.345"/><path fill="#75380f" d="m31.088 88.012-1.672.546-.885-2.764 1.67-.547z"/><path fill="#8d5015" d="M29.307 88.212c1.557-.426.913-2.184.596-2.866l.296-.098.89 2.764-1.672.545-.11-.345"/><path fill="#75380f" d="m33.468 87.233-1.672.546-.88-2.764 1.666-.547z"/><path fill="#8d5015" d="M31.687 87.434c1.558-.426.911-2.184.594-2.868l.299-.096.889 2.762-1.672.547-.11-.345"/><path fill="#75380f" d="m29.764 92.094-1.67.546-.886-2.766 1.672-.547z"/><path fill="#8d5015" d="M27.985 92.296c1.556-.425.912-2.187.592-2.869l.302-.098.886 2.764-1.67.547-.11-.344"/><path fill="#75380f" d="m32.144 91.314-1.671.546-.885-2.762 1.672-.549z"/><path fill="#8d5015" d="M30.366 91.516c1.557-.427.911-2.185.593-2.867l.3-.098.887 2.762-1.672.547-.108-.344"/><path fill="#75380f" d="m34.527 90.535-1.67.549-.884-2.767 1.67-.547z"/><path fill="#8d5015" d="M32.744 90.735c1.56-.422.913-2.182.596-2.864l.302-.1.886 2.764-1.67.55-.114-.35"/><path fill="#ce8f64" d="M24.108 84.64a.065.065 0 0 1-.066-.066c0-.036.028-.067.065-.067 3.169 0 7.135-1.255 8.58-3.653.018-.034.062-.04.09-.022.034.02.042.06.025.093l3.218 10.327-8.747 2.915s-3.06-9.527-3.165-9.527"/><path fill="#ad6920" d="M24.108 84.64a.065.065 0 0 1-.066-.066c0-.036.028-.067.065-.067 3.169 0 7.135-1.255 8.58-3.653.018-.034.062-.04.09-.022.034.02.042.06.025.093-1.472 2.438-5.487 3.715-8.695 3.715"/><path fill="#f9d075" d="M50.787 87.253c-.11.058-.41-.033-.467-.142l1.853-6.107.464.143z"/><path fill="#e42328" d="M53.979 81.564a1.647 1.647 0 0 1-2.061 1.105 1.667 1.667 0 0 1-1.091-2.076 1.647 1.647 0 0 1 2.057-1.109 1.668 1.668 0 0 1 1.095 2.08"/><path fill="#c42d35" d="M53.524 79.855c.464.437.64 1.1.455 1.709a1.642 1.642 0 0 1-3.15.002c.179.172.396.3.634.372a1.646 1.646 0 0 0 2.061-1.107 1.681 1.681 0 0 0 0-.976"/><path fill="#ec6f78" d="M51.99 80.494a.402.402 0 0 1-.502.272.406.406 0 0 1 .236-.776c.213.067.33.293.266.504m.41-.367a.139.139 0 0 1-.176.095.14.14 0 0 1-.097-.18.147.147 0 0 1 .18-.098.147.147 0 0 1 .093.183"/><path fill="#f9d075" d="M48.106 88.322c-.137.138-.638.138-.775 0V78.189h.775z"/><path fill="#f08314" d="M51.794 75.221c0 2.273-1.824 4.115-4.079 4.115-2.248 0-4.072-1.842-4.072-4.115 0-2.271 1.824-4.118 4.072-4.118 2.255 0 4.08 1.847 4.08 4.118"/><path fill="#f6b90c" d="M47.717 75.232c3.121-2.236 0-4.122 0-4.122s1.55 2.06 0 4.122m0 4.104c-3.122-2.236 0-4.125 0-4.125s-1.55 2.065 0 4.125"/><path fill="#f6b90c" d="M47.727 75.221c-2.041-1.565-4.083 0-4.083 0s1.87-3.153 4.083 0m4.065 0c-2.044 1.564-4.083 0-4.083 0s1.863 3.151 4.083 0"/><path fill="#f6b90c" d="M47.725 75.229c.64-3.811-2.886-2.916-2.886-2.916s2.541.353 2.886 2.915m2.873 2.903c-3.773.649-2.887-2.915-2.887-2.915s.347 2.562 2.887 2.915"/><path fill="#f6b90c" d="M47.725 75.216c-2.539.35-2.886 2.915-2.886 2.915s-.887-3.564 2.886-2.915"/><path fill="#f6b90c" d="M50.598 72.313c.643 3.811-2.887 2.915-2.887 2.915s2.537-.348 2.887-2.915"/><path fill="#ce8f64" d="M53.187 84.64c-.047 0-3.29 5.643-3.29 5.643l-9.512-2.587s4.138-6.733 4.111-6.771a.065.065 0 0 1 .025-.093.062.062 0 0 1 .088.022c1.447 2.398 5.412 3.653 8.577 3.653a.068.068 0 0 1 .069.067.067.067 0 0 1-.069.066"/><path fill="#ad6920" d="M53.186 84.64c-3.205 0-7.22-1.277-8.69-3.715a.065.065 0 0 1 .025-.093.062.062 0 0 1 .088.022c1.447 2.398 5.412 3.653 8.577 3.653a.068.068 0 0 1 .069.067.067.067 0 0 1-.069.066"/><path fill="#eeeeed" d="m27.149 99.751 1.105 12.096h9.715l.374-12.099zm22.972 0-1.109 12.096h-9.715l-.372-12.099z"/><path fill="#965122" d="M38.921 98.573s7.711 1.435 11.845 0c.358.455-.253 1.817-.732 2.14-2.304 1.553-11.08 0-11.08 0l-.033-2.14m-.607 2.14s-8.795 1.582-11.081 0c-.469-.325-1.08-1.696-.72-2.14 3.112 1.16 11.832 0 11.832 0z"/><path fill="#563723" d="M49.012 111.846s-2.455-3.664-5.66 0h-4.055c-.066.267.018.605.196.88.576.898 1.579 1.616 2.426 2.22 1.32.912 2.988 1.385 4.444 2.085 1.32.56 3.058 1.575 4.235.245 1.56-1.892.238-4.292-1.586-5.43m-20.758 0s2.811-3.737 5.858 0h3.857c.064.267-.02.605-.2.88-.572.898-1.573 1.616-2.427 2.22-1.32.912-2.985 1.385-4.442 2.085-1.317.56-3.053 1.575-4.232.245-1.562-1.892-.238-4.292 1.586-5.43"/><path fill="#77594e" d="m39.036 55.244-3.992-5.505c1.23-.15 2.158-.269 2.158-.269l1.778.023h.147l1.778.01s.84.07 1.99.187l-3.858 5.554z" data-paper-data="{&quot;origPos&quot;:null}"/><path fill="#c9c9c9" d="M37.847 53.828s-1.146.898-.922 1.813c.222.918-4.114-5.355-3.982-5.698.13-.342 1.432-1.52 1.432-1.52zm1.907 0s1.145.898.918 1.813c-.224.918 4.116-5.355 3.986-5.698-.132-.342-1.436-1.52-1.436-1.52z" data-paper-data="{&quot;origPos&quot;:null}"/><path fill="#77594e" d="M36.944 51.029c-1.078 0-1.951-2.337-1.951-3.406h7.676c0 1.069-.876 3.406-1.954 3.406h-3.771" data-paper-data="{&quot;origPos&quot;:null}"/><path fill="#eeac6c" d="M35.819 50.312a5.67 5.67 0 0 1-.812-2.26c1.22.2 2.468.307 3.74.307a23.06 23.06 0 0 0 3.904-.336l-.01.016-6.822 2.273"/><path fill="#77594e" d="M61.563 28.547c1.182.769 1.965 2.078 1.965 3.564 0 2.362-1.976 4.28-4.407 4.28-.072 0-.141-.002-.211-.004-3.944 7.14-11.497 11.971-20.168 11.971-8.678 0-16.24-4.84-20.18-11.992-.16.017-.319.026-.486.026-2.435 0-4.408-1.918-4.408-4.28 0-1.598.899-2.986 2.23-3.724a23.935 23.935 0 0 1-.235-3.345c0-12.875 10.333-23.313 23.08-23.313 12.747 0 23.08 10.438 23.08 23.313a23.61 23.61 0 0 1-.259 3.505" data-paper-data="{&quot;origPos&quot;:null}"/><path fill="#362316" d="M62.741 22.003c.035 2.742-.913 8.662-2.76 12.195 0 0-4.54-12.975-8.28-15.03-4.567-2.512-16.619 1.11-20.702-2.15-.678-.54-.602-1.762-.602-1.762s-.782 1.56-1.16 1.993c-1.978 2.276-7.113 5.569-9.544 7.339-1.96 1.421-2.05 1.406-1.617 9.61 0 0-3.599-7.466-3.401-12.451.057-1.433.744-4.62 1.87-7.857C20.607 5.656 29.023 0 38.747 0c11.172 0 20.617 7.465 23.716 17.723.16 1.421.253 2.85.278 4.28" data-paper-data="{&quot;origPos&quot;:null}"/><path fill="#b97b11" d="M.447 37.853s1.197-5.75 6.032-5.75c5.595 0 6.587 5.75 6.587 5.75H.447"/><path fill="#9f6917" d="M1.003 36.204c2.798.744 8.444.773 9.11-3.049 2.427 1.662 2.953 4.698 2.953 4.698H.447a9.25 9.25 0 0 1 .557-1.649"/><path fill="#eda503" d="M11.249 45.625c-1.078.784-7.755 1.004-8.846 0C1.65 44.922 2.035 39.9 0 37.769c.126-.267.97-.58 1.375-.073a.719.719 0 0 1 1.336-.211c.1-.614 1.11-.623 1.307-.145.167-.6 1.053-.644 1.386-.135.193-.62 1.128-.516 1.262 0 .124-.516 1.07-.62 1.263 0 .332-.51 1.217-.465 1.388.135.196-.478 1.204-.469 1.303.145a.72.72 0 0 1 1.337.21c.407-.506 1.41-.193 1.538.074-2.037 2.465-1.672 7.113-2.246 7.856"/><path fill="#ce9013" d="M6.471 46.296c-.272 0-.546-.004-.812-.013.033-1.791.143-8.229-.011-8.525.205-.422.654-.415.832 0-.167.274-.044 6.765-.009 8.538m1.263-.029c-.27.011-.541.022-.812.027.033-1.78.146-8.24-.013-8.536.207-.422.649-.416.832 0-.165.269-.049 6.689-.007 8.509m1.057-.078c-.259.027-.53.047-.807.062.103-1.96.42-8.087.277-8.38.216-.415.665-.391.83.029-.17.253-.269 6.231-.3 8.288m1.04-.132c-.249.04-.524.079-.807.109.18-2.053.686-7.976.558-8.266.229-.411.678-.371.828.055-.172.24-.469 5.902-.579 8.102m.926-.209a7.072 7.072 0 0 1-.814.187c.314-2.265 1.052-7.634.944-7.918.25-.398.693-.336.82.1-.171.218-.704 5.216-.95 7.632m.492-.223a1.078 1.078 0 0 1-.176.102c.102-1.229.482-5.245 1.162-7.037.294-.34.613-.37.838-.33-1.567 2.547-1.294 6.578-1.824 7.265m-6.155-7.753c-.143.295.174 6.46.277 8.398-.277-.014-.55-.032-.807-.059-.032-2.037-.132-8.055-.302-8.31.165-.423.614-.445.832-.029m-1.32.025c-.134.292.381 6.259.56 8.29a7.716 7.716 0 0 1-.81-.127c-.11-2.189-.407-7.864-.58-8.107.153-.426.597-.466.83-.055m-.363 8.139a3.132 3.132 0 0 1-.822-.28c-.249-2.449-.773-7.327-.946-7.542.132-.436.574-.498.822-.1-.107.286.632 5.66.946 7.922m-1.155-.632c-.513-1.089-.396-4.895-1.804-7.057.202.004.444.082.662.342.638 1.655 1.005 5.222 1.142 6.715"/><path fill="#e42328" d="M8.474 31.698c0 .97-.78 1.762-1.741 1.762a1.75 1.75 0 0 1-1.74-1.762c0-.97.776-1.758 1.74-1.758.961 0 1.74.789 1.74 1.758"/><path fill="#c42d35" d="M7.492 30.116c.58.284.98.886.98 1.582 0 .972-.778 1.762-1.74 1.762a1.74 1.74 0 0 1-1.441-.773c.237.114.497.174.76.173.96 0 1.74-.786 1.74-1.758 0-.366-.113-.704-.3-.986"/><path fill="#ec6f78" d="M6.138 31.242a.424.424 0 1 1-.847 0c0-.236.19-.427.425-.427.233 0 .422.191.422.427m.303-.502a.152.152 0 1 1-.304 0c0-.087.068-.156.15-.156.086 0 .154.069.154.156"/><path fill="#77594e" d="M13.172 45.274c-.339 2.29-1.459 4.014-2.508 3.858-1.045-.16-1.62-2.144-1.28-4.429.34-2.287 1.456-4.013 2.505-3.853 1.05.155 1.62 2.14 1.283 4.424" data-paper-data="{&quot;origPos&quot;:null}"/><path fill="#362316" d="M33.915 24.708s-.503 1.803-2.082 1.446c-.772-.174-.908-1.201-3.386-.74-.779.18-2.417 1.156-2.732 1.808-.316.652-.088-2.392 2.457-3.522 1.835-.675 2.457-.642 3.977-.642s1.987.907 1.766 1.65m9.741 0s.503 1.803 2.082 1.446c.772-.174.908-1.201 3.386-.74.779.18 2.417 1.156 2.732 1.808.316.652.087-2.392-2.457-3.522-1.835-.675-2.457-.642-3.977-.642s-1.987.907-1.766 1.65M31.604 32.058c0 1.657-.895 3-2 3s-2-1.343-2-3 .895-3 2-3 2 1.343 2 3m18 0c0 1.657-.895 3-2 3s-2-1.343-2-3 .895-3 2-3 2 1.343 2 3" data-paper-data="{&quot;origPos&quot;:null}"/><path fill="#eeac6c" d="M38.624 35.127c-1.125.153-3.02 1.834-3.02 1.834s.207-1.009.503-1.299c.8-1.156 2.487-1.604 2.487-1.604s2.173.703 2.65 1.588c.443.824.34 1.238.34 1.238s-2.121-1.871-2.96-1.756z"/><path fill="#9b4646" d="M31.804 38.754s6.897 3.208 13.172-.397c0 0-1.39 5.47-5.95 5.561-4.115.122-4.984-1.492-5.477-1.956-.492-.463-1.42-1.772-1.745-3.208" data-paper-data="{&quot;origPos&quot;:null}"/></g></svg>