<svg version="1.1" xmlns="http://www.w3.org/2000/svg" xmlns:xlink="http://www.w3.org/1999/xlink" width="63.528" height="117.934" viewBox="0,0,63.528,117.934"><g transform="translate(-208.396,-120.942)"><g data-paper-data="{&quot;isPaintingLayer&quot;:true}" fill-rule="evenodd" stroke="none" stroke-width="1" stroke-linecap="butt" stroke-linejoin="miter" stroke-miterlimit="10" stroke-dasharray="" stroke-dashoffset="0" style="mix-blend-mode: normal"><path d="M219.454,234.508l0.442,-1.933l1.694,-0.249v1.402l-0.37,0.794z" fill="#f9d075"/><path d="M220.928,233.588c0.143,-0.211 0.195,-0.758 0.217,-1.198l0.445,-0.064v1.402l-0.37,0.793l-1.406,-0.011c0.346,-0.184 0.814,-0.493 1.114,-0.922" fill="#c38b0b"/><path d="M224.2,233.413l0.35,-1.526l1.337,-0.198v1.109l-0.292,0.626z" fill="#f9d075"/><path d="M225.364,232.688c0.115,-0.167 0.156,-0.6 0.172,-0.947l0.35,-0.053v1.108l-0.293,0.63l-1.107,-0.01c0.273,-0.146 0.643,-0.391 0.878,-0.728" fill="#c38b0b"/><path d="M229.062,232.129l0.26,-1.158l1.013,-0.149v0.84l-0.22,0.473z" fill="#f9d075"/><path d="M229.94,231.576c0.088,-0.124 0.12,-0.451 0.13,-0.715l0.266,-0.037v0.84l-0.22,0.47l-0.842,-0.004c0.209,-0.111 0.488,-0.296 0.666,-0.554" fill="#c38b0b"/><path d="M233.732,230.882l0.179,-0.778l0.682,-0.1v0.565l-0.148,0.317z" fill="#f9d075"/><path d="M234.323,230.511c0.06,-0.085 0.08,-0.302 0.09,-0.482l0.179,-0.025v0.565l-0.145,0.317l-0.57,-0.004c0.17536,-0.08795 0.32801,-0.21527 0.446,-0.372" fill="#c38b0b"/><path d="M224.823,238.85l0.871,-3.836l3.368,-0.493v2.784l-0.735,1.571z" fill="#f9d075"/><path d="M227.742,237.027c0.291,-0.42 0.394,-1.503 0.427,-2.378l0.893,-0.127v2.782l-0.734,1.572l-2.794,-0.02c0.69,-0.369 1.614,-0.979 2.208,-1.829" fill="#c38b0b"/><path d="M220.216,237.818l0.665,-2.92l2.563,-0.376v2.118l-0.559,1.198z" fill="#f9d075"/><path d="M222.44,236.428c0.22,-0.32 0.299,-1.145 0.326,-1.807l0.678,-0.1v2.118l-0.56,1.2l-2.124,-0.018c0.523,-0.28 1.229,-0.743 1.68,-1.393" fill="#c38b0b"/><path d="M217.46,236.685l0.484,-2.129l1.87,-0.278v1.547l-0.41,0.873z" fill="#f9d075"/><path d="M219.082,235.67c0.158,-0.23 0.222,-0.833 0.238,-1.32l0.495,-0.071v1.545l-0.412,0.874l-1.546,-0.01c0.383,-0.204 0.897,-0.544 1.225,-1.018" fill="#c38b0b"/><path d="M269.34,181.228c3.023,0 0.526,17.644 0,23.493c-0.365,4.076 -0.816,16.405 -2.93,16.1c-4.439,-0.635 -1.267,-13.557 -0.983,-18.071c0.345,-5.46 1.854,-21.522 3.913,-21.522" fill="#e8a74a"/><path d="M269.437,183.867c1.73,0.803 -0.44,15.004 -0.966,20.853c-0.365,4.078 0.01,15.314 -2.06,14.782c-1.877,-0.482 0.424,-12.24 0.71,-16.753c0.346,-5.46 0.961,-19.513 2.316,-18.882" fill="#e19631"/><path d="M268.333,184.349c0,0 1.47,2.203 1.687,3.05c0.04,0.157 0,0.657 0,0.657l-1.687,-3.706M267.908,188.056c0,0 1.366,1.903 1.57,2.643c0.082,0.302 0,1.247 0,1.247l-1.571,-3.89M267.504,192.584c0,0 1.331,1.434 1.548,2.098c0.069,0.211 0.462,1.389 0.462,1.389l-2.01,-3.487M266.976,196.584c0,0 1.862,1.818 2.17,2.611c0.066,0.156 0.04,0.667 0.04,0.667l-2.211,-3.278M266.769,201.027c0,0 1.437,1.09 1.74,1.6c0.108,0.183 0.203,0.818 0.203,0.818l-1.943,-2.418M266.06,204.778c0,0 1.645,1.19 2.022,1.74c0.107,0.158 0.25,0.716 0.25,0.716l-2.272,-2.456M266.043,208.568c0,0 1.604,1.595 1.85,2.293c0.092,0.269 0,1.147 0,1.147l-1.85,-3.44M265.452,213.303c0,0 1.291,1.4 1.534,1.98c0.147,0.342 0.21,1.477 0.21,1.477l-1.744,-3.457" fill="#efb875"/><path d="M214.725,161.825c1.217,-0.52 2.673,-0.042 3.852,1.107c0.53,-0.816 1.164,-1.27 1.754,-1.154c1.093,0.218 1.61,2.334 1.146,4.725c-0.176,0.92 -0.469,1.742 -0.825,2.397c-0.04472,0.2887 -0.11397,0.57306 -0.207,0.85l5.562,6.597l11.798,-4.269c0,0 -2.008,3.218 -2.501,4.387c-0.36,0.858 -1.063,3.564 -1.063,3.564c0,0 -8.615,3.538 -11.057,2.64c-3.025,-1.109 -6.492,-11.055 -6.492,-11.055h0.002c-1.305,-0.467 -2.563,-1.722 -3.291,-3.456c-1.13,-2.702 -0.54,-5.535 1.322,-6.333M264.805,177.858c3.712,4.786 5.133,19.182 5.133,19.182l-0.009,-0.062c0.48,0.698 0.816,1.602 0.922,2.615c0.248,2.41 -0.891,4.503 -2.548,4.678c-1.082,0.116 -2.123,-0.613 -2.778,-1.804c-0.616,0.513 -1.224,0.715 -1.66,0.484c-0.813,-0.438 -0.714,-2.231 0.216,-4.011c0.31834,-0.62121 0.72975,-1.19011 1.22,-1.687c0.034,-0.075 0.074,-0.144 0.114,-0.215c0,0 -1.615,-10.396 -3.333,-12.858c-0.863,-1.231 -1.42,-1.924 -1.617,-2.469c-0.157,-0.438 -0.33,-1.278 -0.399,-1.593c-0.554,-2.47 -3.579,-8.04 -3.579,-8.04c0,0 6.514,3.45 8.318,5.78" data-paper-data="{&quot;origPos&quot;:null}" fill="#77594e"/><path d="M226.135,176.063c0,0 3.848,-1.733 12.164,-4.235c2.31,-1.118 6.972,-1.383 6.972,-1.383l1.775,0.058h0.148l1.777,-0.022c0,0 5.285,0.211 7.386,1.515v0.01c6.459,3.13 8.903,5.402 10.148,8.344c1.56,3.693 3.747,12.989 3.85,16.622h-5.293c0,0 -1.236,-11.213 -4.142,-13.96l2.288,23.044h-32.173c0,0 0.308,-15.562 2.939,-25.904c0,0 -8.279,3.998 -10.886,2.922c-2.978,-1.229 -6.575,-11.186 -6.575,-11.186l4.136,-2.25z" fill="#dcdcdc"/><path d="M246.814,183.952c0,-0.35429 0.28721,-0.6415 0.6415,-0.6415c0.35429,0 0.6415,0.28721 0.6415,0.6415c0,0.358 -0.286,0.65 -0.64,0.65c-0.355,0 -0.643,-0.292 -0.643,-0.649M246.814,187.496c-0.00133,-0.17158 0.06576,-0.33662 0.18643,-0.45861c0.12067,-0.12199 0.28498,-0.19086 0.45657,-0.19139c0.17106,0.00079 0.33475,0.06971 0.45486,0.19151c0.12011,0.1218 0.18674,0.28644 0.18514,0.45749c0,0.35429 -0.28721,0.6415 -0.6415,0.6415c-0.35429,0 -0.6415,-0.28721 -0.6415,-0.6415M246.814,180.037c-0.00055,-0.356 0.28701,-0.64535 0.643,-0.647c0.35489,0.0022 0.64111,0.29111 0.64,0.646c0,0.358 -0.286,0.65 -0.64,0.65c-0.355,0 -0.643,-0.292 -0.643,-0.649" fill="#696969"/><path d="M263.207,206.053c0,3.213 -1.573,10.813 -4.046,13.463c-0.372,0.9 -0.625,1.49 -0.672,1.6l-11.16,0.044h-0.004l-0.009,-0.44l-0.145,-7.244h-0.284l-0.145,7.677l-11.163,0.007h-0.006c0,0 -0.263,-0.629 -0.663,-1.644c-2.626,-3.003 -3.874,-10.232 -3.874,-13.449c0,0 -0.017,-7.111 0.264,-11.274c5.93,-2.493 7.819,-9.606 7.819,-9.606v-13.687c0.794,-0.269 1.657,-0.471 2.581,-0.62v14.327h10.848v-14.35c0.863,0.14 1.788,0.332 2.583,0.59v13.724c0,0 0.807,6.676 7.315,9.647c0.601,4.278 0.761,11.235 0.761,11.235" fill="#ce8f64"/><path d="M261.582,205.582c0.01794,0.00054 0.03535,-0.00615 0.04832,-0.01855c0.01297,-0.01241 0.02042,-0.0295 0.02068,-0.04745c-0.00026,-0.01804 -0.00768,-0.03523 -0.02062,-0.04779c-0.01294,-0.01257 -0.03034,-0.01947 -0.04838,-0.01921c-3.165,0 -7.13,-1.255 -8.577,-3.653c-0.00833,-0.01505 -0.02253,-0.02597 -0.03922,-0.03014c-0.01669,-0.00417 -0.03436,-0.00122 -0.04878,0.00814c-0.01632,0.00837 -0.02834,0.02325 -0.03311,0.04096c-0.00476,0.01771 -0.00182,0.03661 0.00811,0.05204c1.47,2.438 5.485,3.715 8.69,3.715M232.504,205.582c-0.01759,0.00027 -0.03453,-0.00659 -0.04697,-0.01903c-0.01244,-0.01244 -0.0193,-0.02938 -0.01903,-0.04697c0,-0.036 0.028,-0.067 0.065,-0.067c3.169,0 7.135,-1.255 8.58,-3.653c0.018,-0.034 0.062,-0.04 0.09,-0.022c0.034,0.02 0.042,0.06 0.025,0.093c-1.472,2.438 -5.487,3.715 -8.695,3.715" fill="#ad6920"/><path d="M245.643,200.873c0,0 -1.872,-9.846 -2.924,-12.984c-0.299,-0.882 -0.959,-1.94 -2.479,-1.593c-1.052,0.242 -1.76,1.057 -1.452,2.42c-0.238,0.162 -0.957,0.428 -1.118,0.188c-0.45,-2.002 0.755,-3.555 2.277,-3.906c2.3,-0.53 3.369,1.43 3.732,2.529c1.038,3.155 2.952,13.117 2.952,13.117c-0.139,0.218 -0.779,0.37 -0.988,0.23" fill="#eeeeed"/><path d="M246.299,198.95l0.213,1.078l-1.179,-0.751c-0.066,-0.322 -0.139,-0.684 -0.216,-1.08l1.182,0.753M245.837,196.654c0.07091,0.36149 0.14425,0.7225 0.22,1.083l-1.186,-0.754c-0.075,-0.351 -0.15,-0.713 -0.224,-1.086l1.19,0.757M246.195,200.887c-0.213,0.053 -0.442,0.062 -0.552,-0.013c0,0 -0.029,-0.14 -0.077,-0.387zM245.349,194.344c0.079,0.367 0.154,0.734 0.228,1.089l-1.19,-0.757c-0.078,-0.363 -0.156,-0.727 -0.238,-1.094l1.2,0.762M243.875,192.349c-0.086,-0.376 -0.169,-0.747 -0.257,-1.107l1.218,0.776c0.082,0.36 0.165,0.729 0.247,1.1l-1.208,-0.769M244.277,189.658c0.086,0.356 0.178,0.728 0.27,1.118l-1.234,-0.787c-0.105,-0.407 -0.207,-0.789 -0.301,-1.133l1.265,0.802M242.575,187.518c-0.142,-0.313 -0.336,-0.62 -0.602,-0.86l1.634,0.667c0.02602,0.06659 0.05004,0.13396 0.072,0.202c0.09237,0.28558 0.17906,0.57297 0.26,0.862l-1.364,-0.871M241.28,184.972c0.649,0.144 1.15,0.52 1.533,0.966l-1.527,0.349c-0.264,-0.069 -0.574,-0.083 -0.935,-0.013l0.929,-1.302M239.485,186.614c-0.195,0.132 -0.362,0.294 -0.49,0.489l-0.851,-0.884c0.34557,-0.49457 0.82997,-0.87561 1.392,-1.095l-0.05,1.49M238.715,188.182c0.00809,0.17979 0.03219,0.35849 0.072,0.534c-0.235,0.16 -0.955,0.428 -1.117,0.188c-0.1208,-0.50814 -0.12831,-1.03663 -0.022,-1.548l1.067,0.826" fill="#e42328"/><path d="M245.83,199.859c0,0 2.06,-11.016 2.24,-14.716c0.05,-1.04 -0.205,-2.415 -1.93,-2.682c-1.19,-0.187 -2.261,0.367 -2.497,1.913c-0.31,0.07 -1.166,0.045 -1.238,-0.269c0.345,-2.269 2.23,-3.386 3.96,-3.117c2.602,0.402 2.917,2.886 2.851,4.177c-0.2,3.711 -2.264,14.87 -2.264,14.87c-0.233,0.164 -0.959,0.06 -1.122,-0.176" fill="#eeeeed"/><path d="M247.295,198.134c-0.083,0.482 -0.158,0.896 -0.215,1.206l-0.924,-1.266l0.215,-1.214l0.924,1.274M247.747,195.552c-0.073,0.422 -0.146,0.833 -0.214,1.216l-0.926,-1.274c0.071,-0.393 0.141,-0.804 0.211,-1.222l0.929,1.28M246.402,200.101c-0.244,-0.029 -0.486,-0.12 -0.572,-0.242c0,0 0.032,-0.153 0.082,-0.433zM248.18,192.947c-0.068,0.415 -0.134,0.829 -0.202,1.231l-0.933,-1.282c0.068,-0.411 0.137,-0.825 0.198,-1.236l0.937,1.287M247.459,190.261l0.185,-1.256l0.95,1.31c-0.062,0.409 -0.128,0.826 -0.194,1.244l-0.941,-1.298M248.967,187.631c-0.048,0.405 -0.107,0.831 -0.167,1.273l-0.968,-1.328c0.059,-0.467 0.107,-0.907 0.147,-1.307l0.988,1.362M248.069,184.699c-0.019,-0.384 -0.095,-0.789 -0.279,-1.144l1.434,1.373c-0.004,0.08 -0.009,0.162 -0.009,0.236c-0.013,0.293 -0.041,0.626 -0.081,1.004l-1.065,-1.468M247.757,181.514c0.616,0.415 0.988,1.017 1.202,1.64l-1.727,-0.267c-0.251,-0.187 -0.566,-0.327 -0.968,-0.405l1.493,-0.968M245.224,182.477c-0.25454,0.05109 -0.49566,0.15462 -0.708,0.304l-0.526,-1.275c0.56392,-0.36802 1.22363,-0.56207 1.897,-0.558l-0.663,1.529M243.789,183.788c-0.06601,0.19046 -0.11422,0.38663 -0.144,0.586c-0.311,0.069 -1.17,0.045 -1.24,-0.268c0.08326,-0.57696 0.2907,-1.12899 0.608,-1.618l0.777,1.3" fill="#e42328"/><path d="M247.113,200.781c-0.183,0.1 -0.686,-0.064 -0.786,-0.247c0,0 2.185,-7.924 3.23,-10.402c0.361,-0.864 1.355,-2.375 3.175,-1.8c1.21,0.382 2.083,1.718 1.588,3.309c-0.145,0.18 -0.713,-0.084 -0.889,-0.231c0.332,-1.077 -0.187,-1.784 -1.018,-2.047c-1.21,-0.382 -1.809,0.431 -2.104,1.127c-1.051,2.462 -3.196,10.291 -3.196,10.291" fill="#eeeeed"/><path d="M246.704,199.186l1.004,-0.531c-0.088,0.313 -0.172,0.6 -0.245,0.86l-0.998,0.527c0.06,-0.22 0.14,-0.512 0.24,-0.856M247.227,197.362l1.01,-0.533c-0.086,0.295 -0.172,0.582 -0.251,0.862l-1.008,0.531c0.077,-0.271 0.163,-0.562 0.249,-0.86M247.197,200.474c-0.053,0.198 -0.084,0.307 -0.084,0.307c-0.095,0.053 -0.28,0.033 -0.449,-0.027zM247.768,195.528l1.014,-0.535c-0.083,0.286 -0.171,0.577 -0.255,0.866l-1.016,0.534c0.085,-0.285 0.171,-0.571 0.257,-0.865M249.085,194.014l-1.025,0.54c0.092,-0.294 0.183,-0.587 0.27,-0.874l1.037,-0.542c-0.095,0.284 -0.187,0.578 -0.282,0.876M248.937,191.813l1.073,-0.562c-0.103,0.269 -0.206,0.57 -0.316,0.893l-1.05,0.553c0.101,-0.306 0.198,-0.602 0.293,-0.884M250.45,190.198l-1.158,0.61c0.097,-0.254 0.183,-0.48 0.266,-0.676c0.02154,-0.0541 0.04489,-0.10746 0.07,-0.16l1.36,-0.43c-0.22282,0.17932 -0.4063,0.40263 -0.539,0.656M251.659,188.224l0.664,1.113c-0.24512,-0.07289 -0.50352,-0.08964 -0.756,-0.049l-1.208,-0.382c0.336,-0.338 0.765,-0.61 1.3,-0.682M253.002,189.668l0.055,-1.205c0.431,0.21 0.803,0.547 1.054,0.974l-0.746,0.66c-0.08955,-0.16717 -0.21322,-0.31367 -0.363,-0.43M253.522,190.985l0.915,-0.595c0.05,0.386 0.022,0.81 -0.117,1.25c-0.145,0.18 -0.713,-0.084 -0.889,-0.23c0.04358,-0.13845 0.07372,-0.28077 0.09,-0.425" fill="#e42328"/><path d="M252.54,190.532v5.413c0,2.953 -2.372,5.347 -5.296,5.347h-0.264c-2.919,0 -5.293,-2.394 -5.293,-5.347v-5.413zM241.052,186.132c0,0.366 -0.293,0.66 -0.653,0.66c-0.17425,-0.00079 -0.34104,-0.07078 -0.46369,-0.19455c-0.12265,-0.12377 -0.1911,-0.2912 -0.19031,-0.46545c0,-0.363 0.295,-0.658 0.654,-0.658c0.36,0 0.653,0.295 0.653,0.658M254.484,186.132c0,0.36202 -0.29348,0.6555 -0.6555,0.6555c-0.36202,0 -0.6555,-0.29348 -0.6555,-0.6555c0.01375,-0.35207 0.30316,-0.63039 0.6555,-0.63039c0.35234,0 0.64175,0.27833 0.6555,0.63039" fill="#ad6920"/><path d="M243.78,211.953l-7.71,2.52l-5.536,-17.271l7.711,-2.52z" fill="#542811"/><path d="M233.926,199.823l-1.67,0.547l-0.884,-2.765l1.672,-0.547z" fill="#75380f"/><path d="M232.142,200.025c1.558,-0.427 0.913,-2.185 0.597,-2.869l0.303,-0.096l0.885,2.762l-1.67,0.547l-0.115,-0.344" fill="#8d5015"/><path d="M236.308,199.045l-1.672,0.547l-0.886,-2.765l1.672,-0.547z" fill="#75380f"/><path d="M234.525,199.246c1.558,-0.427 0.913,-2.185 0.596,-2.867l0.299,-0.098l0.889,2.765l-1.672,0.544l-0.112,-0.344" fill="#8d5015"/><path d="M238.689,198.266l-1.672,0.546l-0.887,-2.764l1.672,-0.549z" fill="#75380f"/><path d="M236.905,198.467c1.56,-0.425 0.916,-2.187 0.597,-2.869l0.298,-0.098l0.89,2.767l-1.672,0.544l-0.113,-0.344" fill="#8d5015"/><path d="M234.985,203.126l-1.672,0.549l-0.885,-2.767l1.672,-0.547z" fill="#75380f"/><path d="M233.204,203.326c1.557,-0.423 0.911,-2.183 0.594,-2.865l0.301,-0.1l0.887,2.765l-1.672,0.548l-0.11,-0.348" fill="#8d5015"/><path d="M237.365,202.346l-1.672,0.546l-0.884,-2.764l1.672,-0.547z" fill="#75380f"/><path d="M235.586,202.548c1.556,-0.425 0.912,-2.183 0.592,-2.867l0.302,-0.098l0.886,2.762l-1.672,0.547l-0.108,-0.344" fill="#8d5015"/><path d="M239.748,201.568l-1.672,0.546l-0.882,-2.764l1.667,-0.547z" fill="#75380f"/><path d="M237.967,201.77c1.558,-0.425 0.911,-2.185 0.594,-2.867l0.299,-0.098l0.889,2.762l-1.672,0.547l-0.11,-0.344" fill="#8d5015"/><path d="M236.044,206.43l-1.672,0.547l-0.887,-2.767l1.672,-0.544z" fill="#75380f"/><path d="M234.261,206.628c1.557,-0.422 0.913,-2.18 0.596,-2.862l0.299,-0.1l0.889,2.765l-1.672,0.544l-0.113,-0.347" fill="#8d5015"/><path d="M238.427,205.65l-1.672,0.548l-0.887,-2.767l1.672,-0.547z" fill="#75380f"/><path d="M236.645,205.853c1.554,-0.425 0.911,-2.187 0.59,-2.869l0.303,-0.098l0.89,2.764l-1.672,0.547l-0.11,-0.344" fill="#8d5015"/><path d="M240.805,204.87l-1.672,0.55l-0.882,-2.767l1.67,-0.547z" fill="#75380f"/><path d="M239.026,205.071c1.558,-0.424 0.911,-2.184 0.592,-2.866l0.301,-0.098l0.887,2.764l-1.672,0.547l-0.108,-0.347" fill="#8d5015"/><path d="M237.103,209.732l-1.674,0.546l-0.882,-2.764l1.67,-0.547z" fill="#75380f"/><path d="M235.32,209.932c1.558,-0.424 0.911,-2.184 0.594,-2.866l0.301,-0.098l0.889,2.764l-1.674,0.545l-0.11,-0.345" fill="#8d5015"/><path d="M239.484,208.954l-1.672,0.546l-0.885,-2.764l1.67,-0.547z" fill="#75380f"/><path d="M237.703,209.154c1.557,-0.426 0.913,-2.184 0.596,-2.866l0.296,-0.098l0.89,2.764l-1.672,0.545l-0.11,-0.345" fill="#8d5015"/><path d="M241.864,208.175l-1.672,0.546l-0.88,-2.764l1.666,-0.547z" fill="#75380f"/><path d="M240.083,208.376c1.558,-0.426 0.911,-2.184 0.594,-2.868l0.299,-0.096l0.889,2.762l-1.672,0.547l-0.11,-0.345" fill="#8d5015"/><path d="M238.16,213.036l-1.67,0.546l-0.886,-2.766l1.672,-0.547z" fill="#75380f"/><path d="M236.381,213.238c1.556,-0.425 0.912,-2.187 0.592,-2.869l0.302,-0.098l0.886,2.764l-1.67,0.547l-0.11,-0.344" fill="#8d5015"/><path d="M240.54,212.256l-1.671,0.546l-0.885,-2.762l1.672,-0.549z" fill="#75380f"/><path d="M238.762,212.458c1.557,-0.427 0.911,-2.185 0.593,-2.867l0.3,-0.098l0.887,2.762l-1.672,0.547l-0.108,-0.344" fill="#8d5015"/><path d="M242.923,211.477l-1.67,0.549l-0.884,-2.767l1.67,-0.547z" fill="#75380f"/><path d="M241.14,211.677c1.56,-0.422 0.913,-2.182 0.596,-2.864l0.302,-0.1l0.886,2.764l-1.67,0.55l-0.114,-0.35" fill="#8d5015"/><path d="M232.504,205.582c-0.01759,0.00027 -0.03453,-0.00659 -0.04697,-0.01903c-0.01244,-0.01244 -0.0193,-0.02938 -0.01903,-0.04697c0,-0.036 0.028,-0.067 0.065,-0.067c3.169,0 7.135,-1.255 8.58,-3.653c0.018,-0.034 0.062,-0.04 0.09,-0.022c0.034,0.02 0.042,0.06 0.025,0.093l3.218,10.327l-8.747,2.915c0,0 -3.06,-9.527 -3.165,-9.527" fill="#ce8f64"/><path d="M232.504,205.582c-0.01759,0.00027 -0.03453,-0.00659 -0.04697,-0.01903c-0.01244,-0.01244 -0.0193,-0.02938 -0.01903,-0.04697c0,-0.036 0.028,-0.067 0.065,-0.067c3.169,0 7.135,-1.255 8.58,-3.653c0.018,-0.034 0.062,-0.04 0.09,-0.022c0.034,0.02 0.042,0.06 0.025,0.093c-1.472,2.438 -5.487,3.715 -8.695,3.715" fill="#ad6920"/><path d="M259.183,208.195c-0.11,0.058 -0.41,-0.033 -0.467,-0.142l1.853,-6.107l0.464,0.143z" fill="#f9d075"/><path d="M262.375,202.506c-0.12524,0.42086 -0.41336,0.77429 -0.80035,0.98177c-0.38699,0.20748 -0.84081,0.25184 -1.26065,0.12323c-0.87125,-0.27595 -1.35788,-1.20193 -1.091,-2.076c0.12445,-0.42068 0.41159,-0.77432 0.79774,-0.98251c0.38615,-0.20819 0.83941,-0.25372 1.25926,-0.12649c0.87452,0.27467 1.36353,1.20357 1.095,2.08" fill="#e42328"/><path d="M261.92,200.797c0.46434,0.43678 0.64069,1.09916 0.455,1.709c-0.2054,0.69846 -0.84621,1.17828 -1.57425,1.17874c-0.72804,0.00046 -1.36946,-0.47854 -1.57575,-1.17674c0.17892,0.17242 0.39621,0.29992 0.634,0.372c0.42011,0.12882 0.87429,0.08431 1.2614,-0.12361c0.38711,-0.20792 0.67501,-0.562 0.7996,-0.98339c0.101,-0.326 0.092,-0.666 0,-0.976" fill="#c42d35"/><path d="M260.386,201.436c-0.0301,0.1029 -0.10006,0.18952 -0.19432,0.2406c-0.09427,0.05108 -0.20503,0.06238 -0.30768,0.0314c-0.20418,-0.0728 -0.31515,-0.29316 -0.25208,-0.50055c0.06307,-0.20739 0.27794,-0.32865 0.48808,-0.27545c0.213,0.067 0.33,0.293 0.266,0.504M260.796,201.069c-0.01016,0.03632 -0.03465,0.06695 -0.06783,0.08486c-0.03319,0.01791 -0.07223,0.02157 -0.10817,0.01014c-0.03747,-0.00988 -0.06917,-0.03485 -0.08755,-0.06896c-0.01838,-0.03411 -0.0218,-0.07431 -0.00945,-0.11104c0.02358,-0.076 0.10336,-0.11944 0.18,-0.098c0.07551,0.02567 0.11678,0.10687 0.093,0.183" fill="#ec6f78"/><path d="M256.502,209.264c-0.137,0.138 -0.638,0.138 -0.775,0v-10.133h0.775z" fill="#f9d075"/><path d="M260.19,196.163c0,2.273 -1.824,4.115 -4.079,4.115c-2.248,0 -4.072,-1.842 -4.072,-4.115c0,-2.271 1.824,-4.118 4.072,-4.118c2.255,0 4.08,1.847 4.08,4.118" fill="#f08314"/><path d="M256.113,196.174c3.121,-2.236 0,-4.122 0,-4.122c0,0 1.55,2.06 0,4.122M256.113,200.278c-3.122,-2.236 0,-4.125 0,-4.125c0,0 -1.55,2.065 0,4.125" fill="#f6b90c"/><path d="M256.123,196.163c-2.041,-1.565 -4.083,0 -4.083,0c0,0 1.87,-3.153 4.083,0M260.188,196.163c-2.044,1.564 -4.083,0 -4.083,0c0,0 1.863,3.151 4.083,0" fill="#f6b90c"/><path d="M256.121,196.171c0.64,-3.811 -2.886,-2.916 -2.886,-2.916c0,0 2.541,0.353 2.886,2.915M258.994,199.073c-3.773,0.649 -2.887,-2.915 -2.887,-2.915c0,0 0.347,2.562 2.887,2.915" fill="#f6b90c"/><path d="M256.121,196.158c-2.539,0.35 -2.886,2.915 -2.886,2.915c0,0 -0.887,-3.564 2.886,-2.915" fill="#f6b90c"/><path d="M258.994,193.255c0.643,3.811 -2.887,2.915 -2.887,2.915c0,0 2.537,-0.348 2.887,-2.915" fill="#f6b90c"/><path d="M261.583,205.582c-0.047,0 -3.29,5.643 -3.29,5.643l-9.512,-2.587c0,0 4.138,-6.733 4.111,-6.771c-0.00992,-0.01543 -0.01287,-0.03433 -0.00811,-0.05204c0.00476,-0.01771 0.01679,-0.03259 0.03311,-0.04096c0.01443,-0.00936 0.0321,-0.01231 0.04878,-0.00814c0.01669,0.00417 0.03089,0.01509 0.03922,0.03014c1.447,2.398 5.412,3.653 8.577,3.653c0.01804,-0.00027 0.03544,0.00664 0.04838,0.01921c0.01294,0.01257 0.02036,0.02976 0.02062,0.04779c-0.00026,0.01795 -0.00771,0.03504 -0.02068,0.04745c-0.01297,0.01241 -0.03038,0.01909 -0.04832,0.01855" fill="#ce8f64"/><path d="M261.582,205.582c-3.205,0 -7.22,-1.277 -8.69,-3.715c-0.00992,-0.01543 -0.01287,-0.03433 -0.00811,-0.05204c0.00476,-0.01771 0.01679,-0.03259 0.03311,-0.04096c0.01443,-0.00936 0.0321,-0.01231 0.04878,-0.00814c0.01669,0.00417 0.03089,0.01509 0.03922,0.03014c1.447,2.398 5.412,3.653 8.577,3.653c0.01804,-0.00027 0.03544,0.00664 0.04838,0.01921c0.01294,0.01257 0.02036,0.02976 0.02062,0.04779c-0.00026,0.01795 -0.00771,0.03504 -0.02068,0.04745c-0.01297,0.01241 -0.03038,0.01909 -0.04832,0.01855" fill="#ad6920"/><path d="M235.545,220.693l1.105,12.096h9.715l0.374,-12.099zM258.517,220.693l-1.109,12.096h-9.715l-0.372,-12.099z" fill="#eeeeed"/><path d="M247.317,219.515c0,0 7.711,1.435 11.845,0c0.358,0.455 -0.253,1.817 -0.732,2.14c-2.304,1.553 -11.08,0 -11.08,0l-0.033,-2.14M246.71,221.655c0,0 -8.795,1.582 -11.081,0c-0.469,-0.325 -1.08,-1.696 -0.72,-2.14c3.112,1.16 11.832,0 11.832,0z" fill="#965122"/><path d="M257.408,232.788c0,0 -2.455,-3.664 -5.66,0h-4.055c-0.066,0.267 0.018,0.605 0.196,0.88c0.576,0.898 1.579,1.616 2.426,2.22c1.32,0.912 2.988,1.385 4.444,2.085c1.32,0.56 3.058,1.575 4.235,0.245c1.56,-1.892 0.238,-4.292 -1.586,-5.43M236.65,232.788c0,0 2.811,-3.737 5.858,0h3.857c0.064,0.267 -0.02,0.605 -0.2,0.88c-0.572,0.898 -1.573,1.616 -2.427,2.22c-1.32,0.912 -2.985,1.385 -4.442,2.085c-1.317,0.56 -3.053,1.575 -4.232,0.245c-1.562,-1.892 -0.238,-4.292 1.586,-5.43" fill="#563723"/><path d="M247.43208,176.186l-3.992,-5.505c1.23,-0.15 2.158,-0.269 2.158,-0.269l1.778,0.023h0.147l1.778,0.01c0,0 0.84,0.07 1.99,0.187l-3.858,5.554z" data-paper-data="{&quot;origPos&quot;:null}" fill="#77594e"/><path d="M246.243,174.77c0,0 -1.146,0.898 -0.922,1.813c0.222,0.918 -4.114,-5.355 -3.982,-5.698c0.13,-0.342 1.432,-1.52 1.432,-1.52zM248.15,174.77c0,0 1.145,0.898 0.918,1.813c-0.224,0.918 4.116,-5.355 3.986,-5.698c-0.132,-0.342 -1.436,-1.52 -1.436,-1.52z" data-paper-data="{&quot;origPos&quot;:null}" fill="#c9c9c9"/><path d="M245.34,171.971c-1.078,0 -1.951,-2.337 -1.951,-3.406h7.676c0,1.069 -0.876,3.406 -1.954,3.406h-3.771" data-paper-data="{&quot;origPos&quot;:null}" fill="#77594e"/><path d="M244.215,171.254c-0.42892,-0.68672 -0.7058,-1.45733 -0.812,-2.26c1.22,0.2 2.468,0.307 3.74,0.307c1.30851,-0.00103 2.61456,-0.11344 3.904,-0.336l-0.01,0.016l-6.822,2.273" fill="#eeac6c"/><path d="M269.959,149.489c1.182,0.769 1.965,2.078 1.965,3.564c0,2.362 -1.976,4.28 -4.407,4.28c-0.072,0 -0.141,-0.002 -0.211,-0.004c-3.944,7.14 -11.497,11.971 -20.168,11.971c-8.678,0 -16.24,-4.84 -20.18,-11.992c-0.16,0.017 -0.319,0.026 -0.486,0.026c-2.435,0 -4.408,-1.918 -4.408,-4.28c0,-1.598 0.899,-2.986 2.23,-3.724c-0.154,-1.091 -0.235,-2.209 -0.235,-3.345c0,-12.875 10.333,-23.313 23.08,-23.313c12.747,0 23.08,10.438 23.08,23.313c0.00087,1.17315 -0.08571,2.34472 -0.259,3.505" data-paper-data="{&quot;origPos&quot;:null}" fill="#77594e"/><path d="M271.137,142.945c0.035,2.742 -0.913,8.662 -2.76,12.195c0,0 -4.54,-12.975 -8.28,-15.03c-4.567,-2.512 -16.619,1.11 -20.702,-2.15c-0.678,-0.54 -0.602,-1.762 -0.602,-1.762c0,0 -0.782,1.56 -1.16,1.993c-1.978,2.276 -7.113,5.569 -9.544,7.339c-1.96,1.421 -2.05,1.406 -1.617,9.61c0,0 -3.599,-7.466 -3.401,-12.451c0.057,-1.433 0.744,-4.62 1.87,-7.857c4.062,-8.234 12.478,-13.89 22.202,-13.89c11.172,0 20.617,7.465 23.716,17.723c0.16002,1.42149 0.25279,2.84975 0.278,4.28" data-paper-data="{&quot;origPos&quot;:null}" fill="#362316"/><path d="M208.843,158.795c0,0 1.197,-5.75 6.032,-5.75c5.595,0 6.587,5.75 6.587,5.75h-12.619" fill="#b97b11"/><path d="M209.399,157.146c2.798,0.744 8.444,0.773 9.11,-3.049c2.427,1.662 2.953,4.698 2.953,4.698h-12.619c0.13343,-0.56595 0.31992,-1.11806 0.557,-1.649" fill="#9f6917"/><path d="M219.645,166.567c-1.078,0.784 -7.755,1.004 -8.846,0c-0.753,-0.703 -0.368,-5.725 -2.403,-7.856c0.126,-0.267 0.97,-0.58 1.375,-0.073c0.05716,-0.29751 0.29468,-0.52728 0.59392,-0.57454c0.29925,-0.04726 0.59601,0.09812 0.74208,0.36354c0.1,-0.614 1.11,-0.623 1.307,-0.145c0.167,-0.6 1.053,-0.644 1.386,-0.135c0.193,-0.62 1.128,-0.516 1.262,0c0.124,-0.516 1.07,-0.62 1.263,0c0.332,-0.51 1.217,-0.465 1.388,0.135c0.196,-0.478 1.204,-0.469 1.303,0.145c0.14634,-0.2651 0.44291,-0.41031 0.74206,-0.36333c0.29914,0.04699 0.53692,0.27612 0.59494,0.57333c0.407,-0.506 1.41,-0.193 1.538,0.074c-2.037,2.465 -1.672,7.113 -2.246,7.856" fill="#eda503"/><path d="M214.867,167.238c-0.272,0 -0.546,-0.004 -0.812,-0.013c0.033,-1.791 0.143,-8.229 -0.011,-8.525c0.205,-0.422 0.654,-0.415 0.832,0c-0.167,0.274 -0.044,6.765 -0.009,8.538M216.13,167.209c-0.27,0.011 -0.541,0.022 -0.812,0.027c0.033,-1.78 0.146,-8.24 -0.013,-8.536c0.207,-0.422 0.649,-0.416 0.832,0c-0.165,0.269 -0.049,6.689 -0.007,8.509M217.187,167.131c-0.259,0.027 -0.53,0.047 -0.807,0.062c0.103,-1.96 0.42,-8.087 0.277,-8.38c0.216,-0.415 0.665,-0.391 0.83,0.029c-0.17,0.253 -0.269,6.231 -0.3,8.288M218.227,166.998c-0.249,0.04 -0.524,0.079 -0.807,0.109c0.18,-2.053 0.686,-7.976 0.558,-8.266c0.229,-0.411 0.678,-0.371 0.828,0.055c-0.172,0.24 -0.469,5.902 -0.579,8.102M219.153,166.789c-0.229,0.069 -0.504,0.133 -0.814,0.187c0.314,-2.265 1.052,-7.634 0.944,-7.918c0.25,-0.398 0.693,-0.336 0.82,0.1c-0.171,0.218 -0.704,5.216 -0.95,7.632M219.645,166.567c-0.046,0.035 -0.108,0.069 -0.176,0.102c0.102,-1.229 0.482,-5.245 1.162,-7.037c0.294,-0.34 0.613,-0.37 0.838,-0.33c-1.567,2.547 -1.294,6.578 -1.824,7.265M213.49,158.814c-0.143,0.295 0.174,6.46 0.277,8.398c-0.277,-0.014 -0.55,-0.032 -0.807,-0.059c-0.032,-2.037 -0.132,-8.055 -0.302,-8.31c0.165,-0.423 0.614,-0.445 0.832,-0.029M212.17,158.839c-0.134,0.292 0.381,6.259 0.56,8.29c-0.293,-0.031 -0.564,-0.074 -0.81,-0.127c-0.11,-2.189 -0.407,-7.864 -0.58,-8.107c0.153,-0.426 0.597,-0.466 0.83,-0.055M211.807,166.979c-0.338,-0.073 -0.62,-0.169 -0.822,-0.28c-0.249,-2.449 -0.773,-7.327 -0.946,-7.542c0.132,-0.436 0.574,-0.498 0.822,-0.1c-0.107,0.286 0.632,5.66 0.946,7.922M210.652,166.347c-0.513,-1.089 -0.396,-4.895 -1.804,-7.057c0.202,0.004 0.444,0.082 0.662,0.342c0.638,1.655 1.005,5.222 1.142,6.715" fill="#ce9013"/><path d="M216.87,152.64c0,0.97 -0.78,1.762 -1.741,1.762c-0.46448,-0.00264 -0.90885,-0.18983 -1.23523,-0.52033c-0.32637,-0.3305 -0.50797,-0.77719 -0.50477,-1.24167c0,-0.97 0.776,-1.758 1.74,-1.758c0.961,0 1.74,0.789 1.74,1.758" fill="#e42328"/><path d="M215.888,151.058c0.58,0.284 0.98,0.886 0.98,1.582c0,0.972 -0.778,1.762 -1.74,1.762c-0.601,0 -1.126,-0.309 -1.441,-0.773c0.23699,0.1144 0.49684,0.17355 0.76,0.173c0.96,0 1.74,-0.786 1.74,-1.758c0,-0.366 -0.113,-0.704 -0.3,-0.986" fill="#c42d35"/><path d="M214.534,152.184c0.00759,0.15621 -0.07142,0.30392 -0.20558,0.3843c-0.13416,0.08038 -0.30167,0.08038 -0.43583,0c-0.13416,-0.08038 -0.21318,-0.22809 -0.20558,-0.3843c0,-0.236 0.19,-0.427 0.425,-0.427c0.233,0 0.422,0.191 0.422,0.427M214.837,151.682c0,0.08395 -0.06805,0.152 -0.152,0.152c-0.08395,0 -0.152,-0.06805 -0.152,-0.152c0,-0.087 0.068,-0.156 0.15,-0.156c0.086,0 0.154,0.069 0.154,0.156" fill="#ec6f78"/><path d="M221.568,166.216c-0.339,2.29 -1.459,4.014 -2.508,3.858c-1.045,-0.16 -1.62,-2.144 -1.28,-4.429c0.34,-2.287 1.456,-4.013 2.505,-3.853c1.05,0.155 1.62,2.14 1.283,4.424" data-paper-data="{&quot;origPos&quot;:null}" fill="#77594e"/><path d="M242.311,145.65c0,0 -0.503,1.803 -2.082,1.446c-0.772,-0.174 -0.908,-1.201 -3.386,-0.74c-0.779,0.18 -2.417,1.156 -2.732,1.808c-0.316,0.652 -0.088,-2.392 2.457,-3.522c1.835,-0.675 2.457,-0.642 3.977,-0.642c1.52,0 1.987,0.907 1.766,1.65M252.052,145.65c0,0 0.503,1.803 2.082,1.446c0.772,-0.174 0.908,-1.201 3.386,-0.74c0.779,0.18 2.417,1.156 2.732,1.808c0.316,0.652 0.087,-2.392 -2.457,-3.522c-1.835,-0.675 -2.457,-0.642 -3.977,-0.642c-1.52,0 -1.987,0.907 -1.766,1.65" data-paper-data="{&quot;origPos&quot;:null}" fill="#362316"/><path d="M240,153c0,1.657 -0.895,3 -2,3c-1.105,0 -2,-1.343 -2,-3c0,-1.657 0.895,-3 2,-3c1.105,0 2,1.343 2,3M258,153c0,1.657 -0.895,3 -2,3c-1.105,0 -2,-1.343 -2,-3c0,-1.657 0.895,-3 2,-3c1.105,0 2,1.343 2,3" data-paper-data="{&quot;origPos&quot;:null}" fill="#362316"/><path d="M247.02,156.069c-1.125,0.153 -3.02,1.834 -3.02,1.834c0,0 0.207,-1.009 0.503,-1.299c0.8,-1.156 2.487,-1.604 2.487,-1.604c0,0 2.173,0.703 2.65,1.588c0.443,0.824 0.34,1.238 0.34,1.238c0,0 -2.121,-1.871 -2.96,-1.756z" fill="#eeac6c"/><path d="M240.2,159.696c0,0 6.897,3.208 13.172,-0.397c0,0 -1.39,5.47 -5.95,5.561c-4.115,0.122 -4.984,-1.492 -5.477,-1.956c-0.492,-0.463 -1.42,-1.772 -1.745,-3.208" data-paper-data="{&quot;origPos&quot;:null}" fill="#9b4646"/></g></g></svg>