<svg version="1.1" xmlns="http://www.w3.org/2000/svg" xmlns:xlink="http://www.w3.org/1999/xlink" width="93.47277" height="117.71738" viewBox="0,0,93.47277,117.71738"><g transform="translate(-193,-120.99)"><g data-paper-data="{&quot;isPaintingLayer&quot;:true}" fill-rule="evenodd" stroke="none" stroke-width="1" stroke-linecap="butt" stroke-linejoin="miter" stroke-miterlimit="10" stroke-dasharray="" stroke-dashoffset="0" style="mix-blend-mode: normal"><path d="M260.242,232.634c-0.065,0.271 0.02,0.602 0.205,0.875c0.58,0.898 1.583,1.612 2.44,2.22c1.33,0.906 3.003,1.378 4.473,2.081c1.328,0.562 3.069,1.569 4.255,0.242c1.571,-1.891 0.243,-4.288 -1.593,-5.418zM258.909,232.634c0.064,0.271 -0.02,0.602 -0.2,0.875c-0.578,0.898 -1.588,1.612 -2.437,2.22c-1.332,0.906 -3.013,1.378 -4.481,2.081c-1.326,0.562 -3.078,1.569 -4.263,0.242c-1.566,-1.891 -0.238,-4.288 1.592,-5.418z" fill="#333433"/><path d="M246.387,180.061c-1.54,0.615 27.966,0.579 26.47,-0.021c2.644,10.335 2.95,25.883 2.95,25.883h0.016c0,0 0.58,15.12 -1.933,16.009l-9.983,-13.94c-3.4,-0.403 -4.436,-4.643 -4.436,-4.643c0,0 -0.915,4.24 -4.779,4.644l-9.31,13.94c-2.417,-0.851 -1.954,-15.997 -1.954,-15.997c0,0 0.308,-15.553 2.96,-25.875" fill="#343434"/><path d="M272.229,205.951l-1.997,26.754h-10.126l-0.378,-19.35h-0.297l-0.386,19.35h-10.122l-2,-26.754z" fill="#4f4f4f"/><path d="M268.736,205.951h-17.468l8.594,-4.973z" fill="#d0d0d0"/><path d="M232.782,161.767c1.103,0.214 1.615,2.324 1.157,4.71c-0.174,0.916 -0.469,1.732 -0.827,2.392c-0.196,1.268 -0.84,2.277 -1.85,2.71c-1.871,0.79 -4.31,-0.749 -5.448,-3.447c-1.144,-2.694 -0.549,-5.533 1.332,-6.323c1.214,-0.515 2.685,-0.041 3.872,1.107c0.531,-0.818 1.178,-1.268 1.764,-1.148" data-paper-data="{&quot;origPos&quot;:null}" fill="#be9269"/><path d="M240.539,162.828c0,0.518 -10.646,1.805 -23.777,1.805c-13.12,0 -23.762,-1.287 -23.762,-1.805c0,-0.523 10.642,-0.951 23.762,-0.951c13.13,0 23.777,0.428 23.777,0.951" fill="#d0d0d0"/><path d="M211.603,162.342c0.048,0 0,0.206 0,0.206h-5.956c0,0 -0.04,-0.206 0,-0.206c1.742,-0.007 2.572,-0.385 2.572,-0.385c0.227,-0.909 0.121,-6.186 0,-6.406c-0.762,-1.349 -4.346,-4.645 -4.346,-4.645h9.5c0,0 -3.585,3.296 -4.335,4.645c-0.13,0.22 -0.23,5.497 0,6.406c0,0 0.831,0.378 2.565,0.385" fill="#eeeeed"/><path d="M208.631,154.807c-0.395,0 -1.566,-1.169 -2.468,-2.156h4.94c-0.907,0.987 -2.065,2.156 -2.473,2.156" fill="#c1263d"/><path d="M222.623,137.473c1.766,1.014 3.034,3.888 3.034,5.837v19.483c-1.723,0.871 -6.768,0.785 -8.653,0v-19.483c0,-2.011 1.367,-5.017 3.215,-5.93c0.323,-2.557 0.25,-6.207 0.25,-6.207h1.797c0,0 0.072,3.778 0.357,6.3" fill="#66651f"/><path d="M222.593,131.901c0,0 -1.966,0.424 -2.39,0c-0.489,-0.48 0,-2.729 0,-2.729h2.39v2.73z" fill="#4f4f4f"/><path d="M225.657,162.794c-1.722,0.871 -6.766,0.784 -8.652,0v-18.418h8.652v18.418" fill="#9b1826"/><path d="M225.657,144.347c0,0.23 -1.933,0.435 -4.32,0.435c-2.392,0 -4.332,-0.205 -4.332,-0.435c0,-0.24 1.94,-0.436 4.331,-0.436c2.388,0 4.32,0.196 4.32,0.436" fill="#811525"/><path d="M221.123,133.133c0,0 0.198,3.321 -0.304,5.99c0,0 -1.385,1.767 -1.714,4.893c-0.467,4.349 0.248,18.042 0.248,18.042c-0.643,-0.091 -1.206,-0.226 -1.603,-0.41v-17.568c0,-1.812 1.147,-4.522 2.712,-5.346c0.271,-2.307 0.213,-5.6 0.213,-5.6h0.448" fill="#d0d0d0"/><path d="M233.974,166.158c0.341,-2.278 -0.238,-4.256 -1.303,-4.411c-1.043,-0.161 -2.171,1.564 -2.509,3.844c-0.345,2.289 0.235,4.264 1.286,4.422c1.058,0.159 2.187,-1.571 2.526,-3.855M283.412,199.508c0.256,2.386 -0.896,4.473 -2.555,4.653c-1.09,0.114 -2.127,-0.618 -2.788,-1.796c-0.617,0.511 -1.23,0.714 -1.666,0.478c-0.812,-0.437 -0.711,-2.222 0.227,-3.987c0.349,-0.678 0.77,-1.253 1.215,-1.682c0.039,-0.072 0.092,-0.169 0.14,-0.242l4.52,0.008c0.471,0.694 0.8,1.558 0.907,2.568" data-paper-data="{&quot;origPos&quot;:null}" fill="#be9269"/><path d="M228.123,172.141l4.862,-2.392l5.508,6.625l11.848,-4.313c0,0 0,0.003 -0.008,0.02c2.044,-1.366 7.531,-1.56 7.531,-1.56l1.789,0.054h0.144l1.795,-0.073c0,0 5.366,0.232 7.462,1.562c-0.009,0 -0.009,-0.004 -0.009,-0.004c0,0 6.557,3.437 8.377,5.765c3.73,4.779 5.168,19.15 5.168,19.15l-4.86,-0.007c0,0 -1.32,-10.375 -3.053,-12.838c-0.633,-0.893 -1.012,-1.491 -1.253,-1.967c2.218,10.214 2.494,23.894 2.494,23.894l0.029,2.076h-11.296c-3.867,-0.404 -4.777,-4.647 -4.777,-4.647c0,0 -1.037,4.179 -4.438,4.647h-11.983l0.064,-2.069h0.016c0,0 0.306,-15.561 2.95,-25.885c-1.543,0.606 -8.639,3.304 -10.83,2.505c-3.05,-1.1 -7.53,-10.544 -7.53,-10.544z" fill="#343434"/><path d="M282.394,213.023c1.46,-11.381 1.722,-15.416 -5.126,-16.01c-0.628,-1.262 -1.665,-7.74 -1.665,-7.74c0,0 7.272,1.06 9.389,3.87c2.21,2.931 2.398,20.232 -2.598,19.88" fill="#eeeeed"/><path d="M277.303,197.029l-0.068,-0.033c0.665,-1.231 5.167,-0.62 5.355,-0.594l-0.01,0.062c-0.052,-0.006 -4.651,-0.618 -5.277,0.565" fill="#d0d0d0"/><path d="M259.66,190.002l-0.783,-1.111l-1.952,-4.471l-2.282,-13.713c1.677,-0.248 3.104,-0.312 3.104,-0.312l1.796,0.064h0.15l1.787,-0.045c1.13821,0.05211 2.27302,0.16225 3.4,0.33l-2.57,13.676l-2.117,4.786z" fill="#ffffff"/><path d="M259.753,175.978c-0.33319,0.00165 -0.60211,0.27281 -0.601,0.606c0,0.341 0.264,0.62 0.601,0.62c0.33883,0 0.6135,-0.27467 0.6135,-0.6135c0,-0.33883 -0.27467,-0.6135 -0.6135,-0.6135M259.753,177.263c-0.17946,-0.00079 -0.35124,-0.07291 -0.47748,-0.20047c-0.12624,-0.12755 -0.19658,-0.30007 -0.19552,-0.47953c0,-0.376 0.305,-0.667 0.673,-0.667c0.17942,-0.00321 0.35263,0.06568 0.48083,0.19124c0.1282,0.12557 0.20067,0.29731 0.20117,0.47676c0.00054,0.18077 -0.07124,0.35424 -0.19934,0.48178c-0.1281,0.12754 -0.30189,0.19855 -0.48266,0.19722M259.753,179.98c-0.16019,0.00079 -0.31351,0.06519 -0.42622,0.17903c-0.11271,0.11384 -0.17558,0.26778 -0.17478,0.42797c0,0.34 0.264,0.618 0.601,0.618c0.33827,0 0.6125,-0.27423 0.6125,-0.6125c0,-0.33827 -0.27423,-0.6125 -0.6125,-0.6125M259.753,181.27c-0.37376,-0.00439 -0.67412,-0.30922 -0.673,-0.683c0,-0.37417 0.30333,-0.6775 0.6775,-0.6775c0.37417,0 0.6775,0.30333 0.6775,0.6775c0.00027,0.18096 -0.0715,0.35458 -0.19946,0.48254c-0.12796,0.12796 -0.30158,0.19973 -0.48254,0.19946" fill="#666767"/><path d="M259.626,170.492c0,1.335 -3.607,4.01 -3.607,4.01l-0.02,-0.017c-0.235,0.205 -0.506,0.325 -0.832,0.267c-0.531,-0.089 -0.378,-0.356 -0.651,-0.741c-0.297,-0.382 -0.555,-0.504 -0.704,-1.034c-0.169,-0.683 -0.178,-1.417 -0.128,-2.106c2.047,-0.378 4.064,-0.458 4.064,-0.458l1.793,0.079h0.085" fill="#ffffff"/><path d="M253.717,170.9c-0.058,0.811 -0.019,1.494 0.13,2.07c0.1,0.363 0.26,0.529 0.444,0.723c0.076,0.093 0.169,0.182 0.254,0.294c0.09,0.137 0.142,0.25 0.171,0.356c0.077,0.197 0.128,0.319 0.454,0.372c0.296,0.054 0.55,-0.035 0.804,-0.26l0.025,-0.015l0.02,0.025c0.294,-0.223 3.517,-2.675 3.577,-3.941h-0.056l-1.792,-0.077c-0.013,0 -2.016,0.085 -4.031,0.453M255.336,174.796c-0.054,0 -0.114,0 -0.17,-0.016c-0.376,-0.065 -0.437,-0.218 -0.508,-0.416c-0.043,-0.102 -0.086,-0.207 -0.169,-0.331c-0.07739,-0.10285 -0.16157,-0.2004 -0.252,-0.292c-0.184,-0.207 -0.353,-0.375 -0.454,-0.751c-0.153,-0.592 -0.192,-1.285 -0.124,-2.12v-0.028h0.025c1.34392,-0.23774 2.70112,-0.39303 4.064,-0.465l1.792,0.083h0.12v0.033c0,1.332 -3.47,3.927 -3.616,4.04l-0.025,0.017l-0.02,-0.023c-0.215,0.184 -0.434,0.27 -0.663,0.27" fill="#666767"/><path d="M265.137,173.212c-0.325,0.885 -0.85,1.281 -1.77,1.281l-0.08,0.01c0,0 -3.608,-2.677 -3.608,-4.01h0.013l1.788,-0.068c1.33048,0.05644 2.65628,0.19403 3.97,0.412c0.221,0.734 -0.068,1.723 -0.312,2.375" fill="#ffffff"/><path d="M259.713,170.525c0.055,1.28 3.36,3.782 3.585,3.943l0.066,-0.014c0.898,0 1.419,-0.373 1.74,-1.25c0.375,-1 0.482,-1.78 0.323,-2.334c-1.3066,-0.2181 -2.62546,-0.35503 -3.949,-0.41zM263.285,174.538l-0.01,-0.006c-0.15,-0.112 -3.622,-2.706 -3.622,-4.04v-0.032h0.039l1.786,-0.064c0.03,0 1.991,0.064 3.978,0.408h0.016l0.019,0.025c0.167,0.573 0.064,1.376 -0.32,2.4c-0.337,0.893 -0.884,1.299 -1.803,1.299z" fill="#666767"/><path d="M259.672,190.014c-4.215,-2.781 -6.776,-12.324 -6.776,-12.324l1.14,-2.21l-2.245,-0.572l-0.545,-3.401c1.182,-0.453 2.763,-0.728 4.062,-0.89c1.012,5.572 4.364,19.397 4.364,19.397" fill="#4f4f4f"/><path d="M259.626,190.014c0,0 3.364,-13.825 4.366,-19.397c1.307,0.162 2.88,0.437 4.068,0.89l-0.543,3.401l-2.247,0.572l1.138,2.21c0,0 -2.557,9.543 -6.782,12.324M260.406,193.271c0.00935,0.23812 -0.11236,0.46227 -0.31717,0.58411c-0.2048,0.12184 -0.45986,0.12184 -0.66466,0c-0.2048,-0.12184 -0.32651,-0.34599 -0.31717,-0.58411c0,-0.364 0.296,-0.654 0.647,-0.654c0.35,0 0.652,0.29 0.652,0.654M260.406,196.132c-0.00384,0.35703 -0.29495,0.64412 -0.652,0.643c-0.356,0.00055 -0.64535,-0.28701 -0.647,-0.643c0,-0.354 0.296,-0.646 0.647,-0.646c0.35,0 0.652,0.292 0.652,0.646M260.406,199.068c0,0.362 -0.301,0.65 -0.652,0.65c-0.35781,-0.00165 -0.647,-0.29218 -0.647,-0.65c0.00328,-0.35547 0.29151,-0.64237 0.647,-0.644c0.35,0 0.652,0.29 0.652,0.644" fill="#4f4f4f"/><path d="M282.66,149.482c1.19,0.772 1.972,2.073 1.972,3.557c0,2.362 -1.989,4.272 -4.432,4.272h-0.21c-3.97,7.124 -11.576,11.944 -20.31,11.944c-8.72,0 -16.33,-4.829 -20.297,-11.963c-0.165,0.014 -0.323,0.02 -0.493,0.02c-2.452,0 -4.436,-1.91 -4.436,-4.272c0,-1.589 0.906,-2.982 2.242,-3.718c-0.152,-1.091 -0.237,-2.204 -0.237,-3.337c0,-12.85 10.402,-23.27 23.221,-23.27c12.84,0 23.242,10.42 23.242,23.27c-0.00309,1.17078 -0.09065,2.33982 -0.262,3.498" data-paper-data="{&quot;origPos&quot;:null}" fill="#be9269"/><path d="M253.229,146.096c-0.772,-0.174 -0.908,-1.201 -3.386,-0.74c-0.779,0.18 -2.417,1.156 -2.732,1.808c-0.316,0.652 -0.088,-2.392 2.457,-3.522c1.835,-0.675 2.457,-0.642 3.977,-0.642c1.52,0 1.987,0.907 1.766,1.65c0,0 -0.503,1.803 -2.082,1.446zM267.134,146.096c0.772,-0.174 0.908,-1.201 3.386,-0.74c0.779,0.18 2.417,1.156 2.732,1.808c0.316,0.652 0.087,-2.392 -2.457,-3.522c-1.835,-0.675 -2.457,-0.642 -3.977,-0.642c-1.52,0 -1.987,0.907 -1.766,1.65c0,0 0.503,1.803 2.082,1.446z" data-paper-data="{&quot;origPos&quot;:null}" fill="#805425"/><path d="M251,155c-1.105,0 -2,-1.343 -2,-3c0,-1.657 0.895,-3 2,-3c1.105,0 2,1.343 2,3c0,1.657 -0.895,3 -2,3zM269,155c-1.105,0 -2,-1.343 -2,-3c0,-1.657 0.895,-3 2,-3c1.105,0 2,1.343 2,3c0,1.657 -0.895,3 -2,3z" fill="#343434"/><path d="M260.02,155.069c-1.125,0.153 -3.02,1.834 -3.02,1.834c0,0 0.207,-1.009 0.503,-1.299c0.8,-1.156 2.487,-1.604 2.487,-1.604c0,0 2.173,0.703 2.65,1.588c0.443,0.824 0.34,1.238 0.34,1.238c0,0 -2.121,-1.871 -2.96,-1.756z" fill="#eeac6c"/><path d="M253.2,158.696c0,0 6.897,3.208 13.172,-0.397c0,0 -1.39,5.47 -5.95,5.561c-4.115,0.122 -4.984,-1.492 -5.477,-1.956c-0.492,-0.463 -1.42,-1.772 -1.745,-3.208" fill="#eeac6c"/><path d="M283.842,142.946c0.037,2.737 -0.915,8.652 -2.78,12.174c0,0 -4.57,-12.95 -8.332,-15c-4.598,-2.514 -16.725,1.111 -20.84,-2.142c-0.677,-0.538 -0.6,-1.762 -0.6,-1.762c0,0 -0.785,1.555 -1.163,1.984c-1.986,2.271 -7.162,5.561 -9.616,7.33c-1.963,1.42 -2.061,1.4 -1.623,9.59c0,0 -3.622,-7.449 -3.422,-12.427c0.056,-1.429 0.754,-4.607 1.884,-7.841c4.083,-8.222 12.548,-13.862 22.353,-13.862c11.239,0 20.739,7.447 23.856,17.689c0.177,1.572 0.274,3.051 0.283,4.268" data-paper-data="{&quot;origPos&quot;:null}" fill="#805425"/><path d="M257.877,171.923c-1.088,0 -1.962,-2.334 -1.962,-3.404h7.724c0,1.07 -0.875,3.404 -1.962,3.404h-3.8" data-paper-data="{&quot;origPos&quot;:null}" fill="#be9269"/><path d="M256.82,171.181c-0.44,-0.656 -0.82,-1.562 -0.892,-2.226c1.231,0.196 2.487,0.3 3.775,0.3c1.328,0 2.644,-0.109 3.922,-0.329l-0.016,0.015l-6.789,2.24" fill="#eeac6c"/><path d="M264.387,171.211c1.033,0.776 0.963,4.767 -0.27,5.154c-1.028,0.331 -3.073,-1.862 -4.011,-2.935c-0.082,0.227 -0.252,0.38 -0.446,0.38c-0.208,0 -0.388,-0.165 -0.468,-0.405c-0.915,1.063 -2.997,3.291 -4.04,2.96c-1.229,-0.387 -1.293,-4.378 -0.26,-5.154c0.797,-0.601 3.354,0.805 4.358,1.399c0.088,-0.178 0.237,-0.292 0.41,-0.292c0.153,0 0.306,0.11 0.398,0.276c1.009,-0.598 3.53,-1.985 4.33,-1.383" fill="#d0d0d0"/></g></g></svg>