<svg version="1.1" xmlns="http://www.w3.org/2000/svg" xmlns:xlink="http://www.w3.org/1999/xlink" width="79.21147" height="119.65968" viewBox="0,0,79.21147,119.65968"><g transform="translate(-200.39876,-119.99946)"><g data-paper-data="{&quot;isPaintingLayer&quot;:true}" fill-rule="evenodd" stroke="none" stroke-width="1" stroke-linecap="butt" stroke-linejoin="miter" stroke-miterlimit="10" stroke-dasharray="" stroke-dashoffset="0" style="mix-blend-mode: normal"><path d="M231.255,214.476l6.791,0.89c0.715,0.095 1.02,0.6 1.015,1.143c0.15,0.257 0.216,0.574 0.136,0.945c-1.41292,6.51049 -3.07682,12.96397 -4.988,19.346c-0.266,0.888 -1.564,1.508 -2.27,0.658c-5.307,-6.376 -4.005,-14.49 -2.33,-21.982c0.173,-0.774 0.926,-1.095 1.646,-1" data-paper-data="{&quot;origPos&quot;:null}" fill="#926e5e"/><path d="M201.86,197.905c10.616,0.58 8.835,-15.158 9.125,-20.989l1.295,-25.985c0.047,-0.933 0.995,-1.344 1.8,-1.226c0.039,-0.016 0.072,-0.036 0.114,-0.05c17.837,-5.817 38.118,-4.087 54.405,4.568c0.257,0.137 0.428,0.31 0.54,0.5c0.451,0.18 0.799,0.55 0.803,1.12c0.06,8.173 0.137,16.347 0.234,24.521c0.067,5.592 -2.18,20.722 8.082,20.382c1.68,-0.055 1.777,1.739 0.389,2.54c-14.947,8.62 -55.642,13.606 -77.82,-3.174c-0.948,-0.716 -0.197,-2.274 1.033,-2.207" fill="#ce7f00"/><path d="M233.038,186.861l0.001,-0.01c-0.01082,-0.05735 -0.01585,-0.11564 -0.015,-0.174c0.026,-0.579 0.52,-1.24 1.172,-1.17c0.038,0.004 0.072,0.012 0.108,0.017c0.16319,-0.07333 0.34125,-0.10757 0.52,-0.1l14.066,0.496c0.694,0.024 1.065,0.535 1.12,1.073c0.169,0.185 0.28,0.435 0.276,0.76c-0.052,4.898 -3.827,9.056 -8.875,8.961c-5.032,-0.093 -8.692,-4.384 -8.534,-9.282c0.008,-0.224 0.067,-0.414 0.16,-0.571M209.88,173.568c0.594,-0.11 1.226,0.07 1.54,0.625c3.139,5.553 6.921,10.165 12.96,12.393c6.19,2.284 4.263,5.919 3.641,6.828c-0.14434,0.56593 -0.54068,1.03417 -1.075,1.27c-0.205,0.33 -0.571,0.542 -1.105,0.476c-6.27,-0.781 -12.126,-3.693 -16.232,-8.554c-1.742,-2.063 -3.632,-4.661 -3.795,-7.453c-0.155,-2.63 1.402,-5.095 4.067,-5.585M278.895,178.609c-0.164,2.791 -2.053,5.39 -3.796,7.452c-4.105,4.862 -9.962,7.773 -16.232,8.554c-0.533,0.067 -0.9,-0.144 -1.104,-0.475c-0.53452,-0.23583 -0.93117,-0.70401 -1.076,-1.27c-0.621,-0.91 -3.068,-2.18 -2.608,-3.148c0.029,-0.128 4.625,-2.963 6.249,-3.68c5.887,-2.602 9.822,-6.84 12.96,-12.394c0.314,-0.555 0.946,-0.734 1.54,-0.625c2.665,0.491 4.222,2.956 4.067,5.586M242.265,216.273c3.00902,-0.09249 6.01669,0.22304 8.941,0.938c1.09,0.263 1.185,1.428 0.669,2.128c0.002,0.03 0.01,0.057 0.012,0.088c0.312,7.35 -2.255,14.343 -7.162,19.817c-0.846,0.943 -2.248,0.132 -2.328,-0.962l-1.495,-20.648c-0.054,-0.75 0.67,-1.34 1.363,-1.361" data-paper-data="{&quot;origPos&quot;:null}" fill="#926e5e"/><path d="M213.194,218.275c2.926,-4.446 6.418,-8.765 10.453,-11.954c0.655,-0.517 1.293,-0.149 1.581,0.46c0.121,-0.05 0.253,-0.086 0.403,-0.092c11.42142,-0.50155 22.86481,0.01348 34.195,1.539c0.586,0.079 0.947,0.514 1.085,1.008c0.047,0.043 0.094,0.084 0.138,0.139c2.6,3.188 4.856,6.663 6.619,10.464c1.414,3.048 3.53,7.177 2.581,10.652c-0.748,2.738 -3.27,4.377 -5.79,4.683c-3.148,0.382 -5.998,-1.297 -8.571,-3.092c-4.49,5.244 -11.946,5.16 -16.238,-0.245c-4.372,4.453 -11.194,3.516 -14.358,-1.955c-3.81,3.512 -9.693,2.405 -12.236,-2.58c-0.133,-0.26 -2.652,-4.786 0.138,-9.027" fill="#f5bcd3"/><path d="M215.39,211.012c2.77,-3.897 6.075,-7.682 9.894,-10.476c0.62,-0.454 1.224,-0.131 1.497,0.403c0.115,-0.043 0.239,-0.075 0.381,-0.081c10.80741,-0.43963 21.63266,0.01156 32.366,1.349c0.555,0.07 0.897,0.45 1.027,0.883c0.044,0.038 0.09,0.074 0.131,0.122c2.46,2.794 4.596,5.84 6.265,9.17c1.339,2.672 3.342,6.29 2.443,9.336c-0.708,2.4 -3.095,3.836 -5.48,4.104c-2.98,0.335 -5.677,-1.136 -8.113,-2.71c-4.25,4.596 -11.307,4.523 -15.37,-0.214c-4.138,3.902 -10.595,3.08 -13.59,-1.714c-3.606,3.078 -9.175,2.108 -11.58,-2.26c-0.127,-0.229 -2.511,-4.195 0.13,-7.912" fill="#e194b2"/><path d="M220.146,205.002c1.056,-3.288 1.641,-6.633 1.709,-10.087c0.01,-0.502 0.288,-0.846 0.645,-1.025c0.08,-0.083 0.176,-0.16 0.302,-0.225c3.466,-1.76 5.949,-4.644 7.01,-8.399c0.164,-0.58 0.731,-1.039 1.365,-0.88l3.44,0.868c0.202,0.05 0.362,0.142 0.49,0.255c0.376,0.13 0.674,0.448 0.689,0.971c0.094,3.456 2.535,6.356 6.12,6.44c3.709,0.089 6.447,-2.904 6.44,-6.527c-0.002,-0.465 0.276,-1.036 0.778,-1.151c0.904,-0.21 1.808,-0.417 2.712,-0.626c0.592,-0.388 1.445,-0.316 1.617,0.552c0.745,3.756 2.97,6.86 6.37,8.663c0.468,0.08 0.89,0.41 0.943,1.017c0.35802,4.16935 1.11005,8.29543 2.246,12.323c0.201,0.714 -0.25,1.462 -1.024,1.51c-13.65916,0.86852 -27.37185,0.29232 -40.91,-1.719c-0.672,-0.1 -0.93,-0.627 -0.872,-1.147c-0.13,-0.214 -0.174,-0.487 -0.07,-0.813" fill="#f5bcd3"/><path d="M215.556,152.922c0.042,-0.697 0.507,-1.112 1.04,-1.252c0.092,-0.601 0.52,-1.176 1.283,-1.257c16.187,-1.71 32.404,-0.138 48.527,1.498c0.243,0.025 0.448,0.103 0.624,0.213c0.701,0.145 1.302,0.757 1.04,1.641c-2.137,7.204 0.364,14.864 -1.779,22.06c-1.914,6.43 -7.63,10.537 -13.975,12.046c-6.742,1.603 -14.443,1.148 -21.161,-0.448c-5.835,-1.387 -11.552,-4.384 -14.428,-9.87c-3.979,-7.59 -1.665,-16.544 -1.171,-24.63" data-paper-data="{&quot;origPos&quot;:null}" fill="#926e5e"/><path d="M239.445,176.755c1.972,3.714 6.873,4.22 9.308,0.618c0.976,-1.445 3.339,-0.085 2.354,1.373c-3.506,5.186 -11.023,5.018 -14.016,-0.618c-0.821,-1.546 1.531,-2.923 2.354,-1.373" fill="#050000"/><path d="M208.504,156.328c3.996,-14.094 5.696,-24.98 32.146,-25.56c23.633,-0.518 31.234,13.35 31.194,27.274c-0.005,1.641 -3.315,1.772 -3.845,1.675c-9.267,-1.686 -17.492,-2.689 -23.603,-9.722c-10.022,9.342 -23.822,12.127 -34.603,8.58c-0.345,-0.115 -0.52,-0.406 -0.627,-0.664c-0.52,-0.284 -0.871,-0.843 -0.662,-1.583" fill="#dd8d00"/><path d="M242.835,170.382c0.705,0.185 2.88,0.886 3.22,-0.247c0.163,-0.546 -0.57,-1.072 -0.903,-1.406c-1.09,-1.086 -1.94,-2.142 -1.627,-3.77c0.33,-1.718 2.959,-0.99 2.63,0.723c-0.093,0.482 1.343,1.528 1.63,1.868c0.714,0.846 1.2,1.87 0.978,3.001c-0.622,3.157 -4.238,3.088 -6.653,2.455c-1.696,-0.445 -0.977,-3.07 0.725,-2.624" data-paper-data="{&quot;origPos&quot;:null}" fill="#77594c"/><path d="M227.492,165.442c1.337,2.327 4.427,2.527 5.92,0.216c0.948,-1.467 3.31,-0.105 2.354,1.373c-2.57,3.979 -8.24,3.943 -10.628,-0.215c-0.874,-1.523 1.481,-2.895 2.354,-1.374M254.337,165.718c1.079,2.548 4.171,2.625 5.31,0.077c0.714,-1.596 3.065,-0.214 2.355,1.373c-1.924,4.3 -8.174,4.281 -10.02,-0.076c-0.674,-1.595 1.673,-2.983 2.355,-1.374" fill="#060000"/><path d="M227.768,121.28c-0.025,-1.39 1.932,-1.737 2.562,-0.6c1.14,2.054 2.188,6.829 3.329,8.884c0.65,-1.751 1.395,-6.222 2.047,-7.973c0.487,-1.309 2.2,-1.18 2.627,0.089c0.943,2.801 2.167,4.916 3.618,7.464c0.933,-2.556 1.641,-4.621 2.169,-7.311c0.253,-1.29 1.913,-1.074 2.5,-0.24c1.705,2.416 3.41,4.832 5.113,7.248c1.18086,-2.34225 2.11134,-4.80253 2.776,-7.34c0.351,-1.33 2.315,-1.171 2.628,0.089c1.23946,4.95732 1.66001,10.08396 1.245,15.177c-0.01785,0.28825 -0.12793,0.56312 -0.314,0.784c0.042,0.594 -0.254,1.208 -0.994,1.405c-9.607,2.545 -20.767,4.787 -28.813,-2.693c-0.536,-0.498 -0.414,-10.651 -0.493,-14.984" fill="#f5da6a"/></g></g></svg>