<svg version="1.1" xmlns="http://www.w3.org/2000/svg" xmlns:xlink="http://www.w3.org/1999/xlink" width="53.84388" height="116.838" viewBox="0,0,53.84388,116.838"><g transform="translate(-213.88982,-121.966)"><g data-paper-data="{&quot;isPaintingLayer&quot;:true}" fill-rule="evenodd" stroke="none" stroke-width="1" stroke-linecap="butt" stroke-linejoin="miter" stroke-miterlimit="10" stroke-dasharray="" stroke-dashoffset="0" style="mix-blend-mode: normal"><path d="M257.662,134.029c0,6.663 -5.4,12.065 -12.055,12.065c-6.659,0 -12.052,-5.402 -12.052,-12.065c0,-6.66 5.393,-12.063 12.052,-12.063c6.656,0 12.055,5.402 12.055,12.063" data-paper-data="{&quot;origPos&quot;:null}" fill="#815b21"/><path d="M258.41,141.436c-2.666,-4.535 -7.798,-7.09 -12.926,-7.063c-5.132,-0.027 -10.264,2.528 -12.928,7.063c-0.66746,-0.39714 -1.34087,-0.78418 -2.02,-1.161c2.983,-5.233 8.967,-8.245 14.948,-8.21c5.979,-0.035 11.962,2.977 14.943,8.21c-0.682,0.378 -1.356,0.767 -2.016,1.16" fill="#30a7df"/><path d="M244.9,234.006l-0.487,3.03h-0.578l-0.129,-0.819c-1.125,0.694 -2.482,1.102 -3.68,1.674c-1.178,0.496 -2.729,1.429 -3.78,0.25c-1.392,-1.668 1.128,-3.879 2.752,-4.886l5.548,0.163c0.049,0.197 0.33,0.384 0.344,0.584z" fill="#b3dff5"/><path d="M239.022,233.345c-1.293,0.803 -2.863,2.18 -3.068,3.449c-0.08,0.476 0.041,0.91 0.36,1.292c0.322,0.362 0.715,0.537 1.199,0.537c0.656,0 1.38,-0.324 2.014,-0.612c0.164,-0.074 0.315,-0.14 0.462,-0.2c0.45,-0.217 0.934,-0.411 1.4,-0.604c0.776,-0.311 1.574,-0.634 2.272,-1.065l0.114,-0.066l0.136,0.873h0.428l0.462,-2.915v-0.028c-0.004,-0.077 -0.08,-0.17 -0.155,-0.264c-0.06547,-0.07154 -0.12098,-0.15159 -0.165,-0.238zM237.512,238.8c-0.536,0 -0.972,-0.195 -1.332,-0.598c-0.34418,-0.39411 -0.49224,-0.92243 -0.403,-1.438c0.28,-1.72 2.693,-3.287 3.173,-3.584l0.023,-0.012l5.645,0.163l0.014,0.067c0.016,0.07 0.084,0.152 0.151,0.234c0.08,0.097 0.161,0.197 0.187,0.31l0.026,0.011l-0.508,3.173h-0.729l-0.118,-0.765c-0.682,0.403 -1.444,0.712 -2.185,1.013c-0.47177,0.18396 -0.93736,0.3834 -1.396,0.598c-0.15,0.061 -0.299,0.13 -0.458,0.203c-0.654,0.293 -1.395,0.625 -2.09,0.625z" fill="#f2f1f1"/><path d="M236.85,236.06c0,0 0.412,-1.787 2.272,-2.682h5.521c0,0 -3.898,3.897 -7.793,2.682" data-paper-data="{&quot;origPos&quot;:null}" fill="#ffdd85"/><path d="M252.088,233.254c1.626,1.008 4.141,3.22 2.748,4.89c-1.05,1.18 -2.599,0.247 -3.776,-0.25c-1.199,-0.573 -2.555,-0.984 -3.683,-1.677l-0.126,0.819h-0.58l-0.485,-3.03l0.008,-0.004c0.015,-0.2 0.298,-0.387 0.347,-0.584l5.547,-0.163" fill="#b3dff5"/><path d="M247.31,236.075l0.116,0.067c0.696,0.43 1.502,0.757 2.277,1.072c0.465,0.19 0.945,0.384 1.397,0.602c0.144,0.059 0.293,0.128 0.454,0.197c0.637,0.289 1.36,0.615 2.017,0.615c0.46201,0.00897 0.90363,-0.19 1.203,-0.542c0.30899,-0.35452 0.44031,-0.83016 0.357,-1.293c-0.206,-1.267 -1.777,-2.644 -3.068,-3.448l-5.46,0.159c-0.0412,0.08757 -0.09624,0.16794 -0.163,0.238c-0.075,0.094 -0.152,0.187 -0.157,0.264l-0.002,0.027l0.465,2.915h0.429l0.136,-0.873zM253.57,238.804c-0.693,0 -1.436,-0.333 -2.089,-0.628c-0.159,-0.07 -0.306,-0.14 -0.454,-0.197c-0.45,-0.216 -0.93,-0.41 -1.39,-0.6c-0.742,-0.3 -1.505,-0.613 -2.19,-1.017l-0.12,0.764h-0.73l-0.509,-3.174l0.027,-0.011c0.026,-0.113 0.107,-0.21 0.187,-0.307c0.067,-0.083 0.136,-0.166 0.15,-0.234l0.017,-0.07l5.641,-0.163l0.022,0.012c1.33,0.823 2.958,2.255 3.174,3.587c0.09206,0.51443 -0.05475,1.0428 -0.399,1.436c-0.361,0.405 -0.8,0.602 -1.336,0.602z" fill="#f2f1f1"/><path d="M254.236,236.06c-3.898,1.215 -7.791,-2.682 -7.791,-2.682h5.517c1.861,0.976 2.274,2.682 2.274,2.682" data-paper-data="{&quot;origPos&quot;:null}" fill="#ffdd85"/><path d="M256.759,209.798l-4.694,23.66h-5.56l-0.833,-17.152h-0.258l-0.831,17.152h-5.562l-4.696,-23.66h14.11zM215.669,170.617c-1.661,0.702 -2.19,3.217 -1.18,5.607c0.651,1.532 1.775,2.642 2.939,3.057c0,0 3.097,8.809 5.8,9.787c2.182,0.792 9.8,-2.263 9.8,-2.263c0,0 1.244,-0.277 1.741,-2.661c0.441,-1.037 1.522,-4.45 1.522,-4.45l-10.54,3.777l-4.97,-5.843c0.0848,-0.24379 0.14706,-0.49484 0.186,-0.75c0.35174,-0.66512 0.59993,-1.38001 0.736,-2.12c0.414,-2.12 -0.046,-3.992 -1.024,-4.182c-0.525,-0.105 -1.093,0.299 -1.567,1.015c-1.054,-1.014 -2.354,-1.434 -3.444,-0.974M262.188,184.749c-1.104,-1.415 -4.19,-3.293 -6.02,-4.338c-0.837,-0.476 -1.553,-0.846 -1.553,-0.846l-3.591,9.057c0,0 6.388,-0.248 7.245,-0.645c0.177,0.484 0.714,1.279 1.486,2.371c1.535,2.173 2.972,11.38 2.972,11.38c-0.032,0.061 -0.065,0.123 -0.096,0.193c-0.392,0.38 -0.773,0.89 -1.089,1.49c-0.835,1.575 -0.922,3.166 -0.195,3.55c0.39,0.206 0.934,0.025 1.48,-0.428c0.59,1.053 1.515,1.702 2.485,1.6c1.482,-0.157 2.502,-2.013 2.274,-4.143c-0.097,-0.895 -0.393,-1.698 -0.82,-2.315l0.004,0.057c0,0 -1.266,-12.746 -4.582,-16.983" data-paper-data="{&quot;origPos&quot;:null}" fill="#ffdd85"/><path d="M215.668,170.498c1.09,-0.46 2.33,-0.096 3.383,0.919c0.48,-0.72 1.223,-1.063 1.745,-0.96c0.977,0.19 1.44,2.181 1.025,4.302c-0.13539,0.73985 -0.38362,1.45452 -0.736,2.119c-0.04054,0.25536 -0.10344,0.50666 -0.188,0.751l4.91,5.664l1.906,-0.705c0,0 2.027,5.711 -0.847,6.392c-1.502,0.356 -2.95,0.48 -3.701,0.206c-2.699,-0.981 -5.855,-9.904 -5.855,-9.904c-1.164,-0.416 -2.288,-1.527 -2.937,-3.06c-1.012,-2.39 -0.365,-5.022 1.295,-5.724M264.267,188.622c1.91,5.421 2.62,13.11 2.62,13.11c0,0 0,-0.02 -0.004,-0.058c0.427,0.618 0.725,1.42 0.822,2.316c0.226,2.132 -0.912,4.103 -2.394,4.263c-0.97,0.098 -1.895,-0.545 -2.483,-1.6c-0.548,0.453 -1.15,0.634 -1.539,0.427c-0.729,-0.384 -0.7,-2.152 0.132,-3.728c0.318,-0.6 0.7,-1.052 1.089,-1.432c0.03212,-0.06495 0.06546,-0.1293 0.1,-0.193c0,0 -1.437,-9.086 -2.976,-11.262c1.89,-0.502 3.283,-1.09 4.633,-1.843" fill="#c0e4f4"/><path d="M249.366,196.334h-7.194l-8.007,-15.899l2.066,-0.735c1.839,-1.26 7.651,-1.47 7.651,-1.47l1.588,0.037h0.136l1.574,-0.037c0,0 5.74,0.198 7.607,1.44l-0.004,-0.012z" data-paper-data="{&quot;origPos&quot;:null}" fill="#ffdd85"/><path d="M228.573,214.123c0.332,0.426 2.223,-0.04 2.223,-0.04l4.291,-4.07l-3.924,-4.027c0,0 -6.008,3.766 -2.59,8.136M262.507,214.123c-0.334,0.426 -2.223,-0.04 -2.223,-0.04l-4.293,-4.07l3.923,-4.027c0,0 6.013,3.766 2.593,8.136" fill="#c0e4f4"/><path d="M259.862,206.019c0.66,1.968 6.404,18.109 6.292,25.663c-4.091,4.28 -36.121,4.186 -40.816,0.004c-0.973,-5.908 5.245,-23.937 5.825,-25.716c0.058,-3.067 0.228,-7.613 0.728,-12.112c0.035,-0.335 0.772,-6.163 1.138,-7.055c-0.624,-1.48 1.076,-4.414 1.136,-6.37c0.396,-0.237 0.866,-0.463 1.366,-0.67c1.008,6.205 2.364,8.886 9.981,8.886c7.445,0 8.825,-2.733 10.397,-8.574c0.458,0.247 0.865,0.514 1.158,0.79c0.193,2.161 1.572,5.555 1.201,7.111c0.387,0.87 0.845,5.548 0.884,5.882c0.496,4.527 0.659,9.096 0.71,12.162" fill="#7dcdf4"/><path d="M232.381,234.356c0,0 -1.217,-10.39 3.047,-19.004c-3.703,8.957 -2.188,18.52 -2.188,18.52c0,0 3.278,0.844 10.645,0.964c-8.043,0.802 -11.504,-0.48 -11.504,-0.48M258.503,234.356c0,0 1.217,-10.39 -3.047,-19.004c3.703,8.957 2.188,18.52 2.188,18.52c0,0 -3.001,0.895 -10.645,0.981c8.094,0.705 11.504,-0.497 11.504,-0.497" fill="#30a7df"/><path d="M245.694,205.988c-6.108,13.832 -14.562,6.51 -16.852,7.238c1.065,-3.427 1.03,-5.081 2.321,-7.24c2.402,-1.624 11.666,-2.15 14.531,0.002" fill="#c0e4f4"/><path d="M245.382,205.988c2.869,-2.152 12.131,-1.626 14.533,-0.002c1.291,2.159 1.258,3.813 2.325,7.24c-2.292,-0.728 -10.75,6.594 -16.858,-7.238M255.622,180.107c0.18031,0.10282 0.36165,0.20383 0.544,0.303c1.588,4.424 2.506,9.474 2.506,9.474c2.287,0.189 5.39,-14.787 2.227,-15.477c-2.48,-0.544 -5.277,5.7 -5.277,5.7M235.949,179.798c0,0 -0.605,0.209 -0.848,0.313c-1.587,4.423 -2.67,9.773 -2.67,9.773c-2.282,0.191 -5.387,-14.788 -2.225,-15.478c2.479,-0.543 5.744,5.392 5.744,5.392" fill="#c0e4f4"/><path d="M243.9,179.627c-0.963,0 -1.746,-2.069 -1.746,-3.018h6.86c0,0.948 -0.782,3.018 -1.745,3.018h-3.369" data-paper-data="{&quot;origPos&quot;:null}" fill="#ffdd85"/><path d="M242.892,178.843c-0.387,-0.59 -0.659,-1.408 -0.719,-2c2.26114,0.36786 4.56751,0.35976 6.826,-0.024l-0.012,0.014l-6.095,2.01" fill="#eeac6c"/><path d="M248.006,179.227c-1.6056,0.24201 -3.2384,0.24201 -4.844,0c-0.345,-0.375 -0.63,-0.967 -0.805,-1.532c2.124,0.476 4.33,0.476 6.454,0v0.004c-0.177,0.561 -0.46,1.153 -0.805,1.528" fill="#30a7df"/><path d="M242.36,177.699c0.96721,0.21251 1.95292,0.32973 2.943,0.35l-2.41,0.794c-0.223,-0.338 -0.407,-0.745 -0.533,-1.145" fill="#3699c0"/><path d="M265.899,159.83764c1.053,0.681 1.751,1.842 1.751,3.156c0,2.091 -1.763,3.787 -3.939,3.787c-0.061,0 -0.121,-0.002 -0.181,-0.004c-3.526,6.32 -10.272,10.597 -18.02,10.597c-7.754,0 -14.507,-4.285 -18.031,-10.615c-0.142,0.014 -0.287,0.022 -0.439,0.022c-2.174,0 -3.935,-1.696 -3.935,-3.788c0,-1.418 0.805,-2.647 1.995,-3.3c-0.138,-0.964 -0.208,-1.952 -0.208,-2.959c0,-11.396 9.228,-20.638 20.618,-20.638c11.389,0 20.623,9.242 20.623,20.638c0,1.056 -0.083,2.094 -0.234,3.104" data-paper-data="{&quot;origPos&quot;:null}" fill="#ffdd85"/><path d="M241.311,153.65c0,0 -0.503,1.803 -2.082,1.446c-0.772,-0.174 -0.908,-1.201 -3.386,-0.74c-0.779,0.18 -2.417,1.156 -2.732,1.808c-0.316,0.652 -0.088,-2.392 2.457,-3.522c1.835,-0.675 2.457,-0.642 3.977,-0.642c1.52,0 1.987,0.907 1.766,1.65M251.052,153.65c0,0 0.503,1.803 2.082,1.446c0.772,-0.174 0.908,-1.201 3.386,-0.74c0.779,0.18 2.417,1.156 2.732,1.808c0.316,0.652 0.087,-2.392 -2.457,-3.522c-1.835,-0.675 -2.457,-0.642 -3.977,-0.642c-1.52,0 -1.987,0.907 -1.766,1.65" data-paper-data="{&quot;origPos&quot;:null}" fill="#815b21"/><path d="M239,161c0,1.657 -0.895,3 -2,3c-1.105,0 -2,-1.343 -2,-3c0,-1.657 0.895,-3 2,-3c1.105,0 2,1.343 2,3M257,161c0,1.657 -0.895,3 -2,3c-1.105,0 -2,-1.343 -2,-3c0,-1.657 0.895,-3 2,-3c1.105,0 2,1.343 2,3" data-paper-data="{&quot;origPos&quot;:null}" fill="#82591b"/><path d="M246.02,164.069c-1.125,0.153 -3.02,1.834 -3.02,1.834c0,0 0.207,-1.009 0.503,-1.299c0.8,-1.156 2.487,-1.604 2.487,-1.604c0,0 2.173,0.703 2.65,1.588c0.443,0.824 0.34,1.238 0.34,1.238c0,0 -2.121,-1.871 -2.96,-1.756z" fill="#eeac6c"/><path d="M239.2,167.696c0,0 6.897,3.208 13.172,-0.397c0,0 -1.39,5.47 -5.95,5.561c-4.115,0.122 -4.984,-1.492 -5.477,-1.956c-0.492,-0.463 -1.42,-1.772 -1.745,-3.208" fill="#eeac6c"/><path d="M227.321,167.167c0,1 -0.467,1.812 -1.043,1.812c-0.574,0 -1.042,-0.813 -1.042,-1.812c0,-1 0.468,-1.81 1.042,-1.81c0.576,0 1.043,0.81 1.043,1.81M265.8,167.167c0,1 -0.463,1.812 -1.039,1.812c-0.578,0 -1.046,-0.813 -1.046,-1.812c0,-1 0.468,-1.81 1.046,-1.81c0.576,0 1.04,0.81 1.04,1.81" fill="#eeeeed"/><path d="M266.947,153.784c0.033,2.424 -1.048,5.794 -1.048,5.794c0,0 -5.472,-6.486 -8.815,-8.306c-4.083,-2.221 -6.119,1.053 -9.765,-1.831c-0.607,-0.478 -1.734,-1.745 -1.734,-1.745c0,0 -1.372,1.389 -1.737,1.745c-4.104,4.021 -7.178,-0.675 -10.632,1.758c-4.396,3.089 -8.111,8.233 -8.111,8.233c0,0 -1.278,-1.464 -1.103,-5.874c0.051,-1.273 0.668,-4.092 1.671,-6.958c3.628,-7.288 11.15,-12.295 19.838,-12.295c9.983,0 18.421,6.608 21.188,15.689c0.14294,1.25867 0.2257,2.52344 0.248,3.79" data-paper-data="{&quot;origPos&quot;:null}" fill="#815b21"/></g></g></svg>