<svg version="1.1" xmlns="http://www.w3.org/2000/svg" xmlns:xlink="http://www.w3.org/1999/xlink" width="62.60321" height="116.88592" viewBox="0,0,62.60321,116.88592"><g transform="translate(-208.07092,-121.233)"><g data-paper-data="{&quot;isPaintingLayer&quot;:true}" fill-rule="evenodd" stroke="none" stroke-width="1" stroke-linecap="butt" stroke-linejoin="miter" stroke-miterlimit="10" stroke-dasharray="" stroke-dashoffset="0" style="mix-blend-mode: normal"><path d="M208.071,168.585c8.126,12.663 18.963,2.096 15.277,-9.094c-2.675,-8.126 11.853,2.64 11.853,2.64c0,0 -8.508,23.552 -15.887,23.906c-7.377,0.35 -11.264,-11.175 -11.243,-17.452" data-paper-data="{&quot;origPos&quot;:null}" fill="#815b22"/><path d="M236.736,232.206h-0.007v-11.572h10.025l-0.454,11.572h-0.009c1.794,1.116 3.095,3.385 1.56,5.237c-1.159,1.3 -2.868,0.274 -4.163,-0.274c-1.433,-0.688 -3.076,-1.168 -4.37,-2.06c-0.84,-0.589 -1.825,-1.23 -2.392,-2.106c-0.173,-0.272 -0.258,-0.546 -0.19,-0.797M225.867,232.206h-0.002l-0.46,-11.572h10.024v11.572h-0.002c0.066,0.261 -0.02,0.525 -0.192,0.797c-0.57,0.876 -1.556,1.517 -2.392,2.106c-1.297,0.892 -2.933,1.372 -4.371,2.06c-1.297,0.548 -3.004,1.575 -4.162,0.274c-1.536,-1.852 -0.233,-4.125 1.557,-5.237" data-paper-data="{&quot;origPos&quot;:null}" fill="#ffdc83"/><path d="M236.746,228.35h9.705l-0.154,3.888h-0.006c0.311,0.191 0.604,0.442 0.872,0.697v2.492h-7.432c-0.14199,-0.08373 -0.28138,-0.17177 -0.418,-0.264c-0.839,-0.589 -1.822,-1.238 -2.388,-2.119c-0.172,-0.27 -0.26,-0.548 -0.198,-0.806h0.02v-3.889z" fill="#eeeeed"/><path d="M246.434,228.793l-0.009,0.192h-9.679v-0.192zM246.417,229.178l-0.006,0.19h-9.664v-0.19z" fill="#5a5a5a"/><path d="M224.303,233.73c0.41602,-0.59557 0.94672,-1.10213 1.561,-1.49h-0.006l-0.154,-3.892h9.711v3.892h0.009c0.066,0.255 -0.02,0.536 -0.195,0.806c-0.565,0.878 -1.55,1.523 -2.387,2.11c-0.13587,0.09424 -0.2746,0.18428 -0.416,0.27h-8.123v-1.697z" fill="#eeeeed"/><path d="M235.415,228.985h-9.683l-0.009,-0.193h9.692zM235.415,229.368h-9.666l-0.009,-0.19h9.675z" fill="#5a5a5a"/><path d="M246.273,232.24l0.024,-0.011v0.01h-0.007c1.792,1.149 3.094,3.397 1.56,5.246c-1.16,1.305 -2.87,0.278 -4.169,-0.27c-1.431,-0.686 -3.07,-1.166 -4.369,-2.055c-0.838,-0.59 -1.822,-1.239 -2.387,-2.115c-0.173,-0.272 -0.26,-0.55 -0.198,-0.806v-1.723c0,0 0.115,-0.175 0.516,0c0.791,0.35 1.31,1.918 2.997,1.723c4.175,-1.168 6.033,0 6.033,0" fill="#0771b7"/><path d="M237.05,233.227l0.205,-0.19c0,0 2.149,2.185 4,2.723l-0.164,0.35c-0.627,-0.275 -1.233,-0.575 -1.777,-0.95c-0.78,-0.549 -1.685,-1.147 -2.264,-1.933" fill="#333433"/><path d="M246.34,233.43c0.47,0 0.93,0.039 1.374,0.105c0.002,0.006 0.006,0.01 0.008,0.015c0.888,1.17 1.195,2.649 0.128,3.936c-1.16,1.303 -2.871,0.277 -4.168,-0.27c-0.99,-0.475 -2.084,-0.852 -3.09,-1.332c1.149,-1.466 3.295,-2.454 5.748,-2.454" fill="#0e618e"/><path d="M236.78,230.71c0.403,0 0.73,0.748 0.73,1.671c0,0.45 -0.076,0.86 -0.204,1.16c-0.13903,-0.15574 -0.26637,-0.32152 -0.381,-0.496c-0.173,-0.272 -0.26,-0.55 -0.197,-0.805v-1.526c0.017,-0.004 0.034,-0.004 0.052,-0.004" fill="#e63744"/><path d="M225.882,232.239c0,0 1.86,-1.168 6.03,0c1.688,0.195 2.21,-1.373 3,-1.723c0.401,-0.175 0.516,0 0.516,0v1.723c0.062,0.256 -0.021,0.534 -0.198,0.806c-0.565,0.876 -1.551,1.525 -2.387,2.115c-1.3,0.889 -2.938,1.369 -4.372,2.055c-1.297,0.548 -3.003,1.575 -4.162,0.27c-1.538,-1.849 -0.236,-4.097 1.556,-5.246h-0.007v-0.01l0.024,0.011" fill="#0771b7"/><path d="M235.105,233.227c-0.578,0.786 -1.485,1.384 -2.264,1.933c-0.544,0.375 -1.148,0.675 -1.775,0.95l-0.168,-0.35c1.856,-0.538 4,-2.723 4,-2.723l0.207,0.19" fill="#333433"/><path d="M225.813,233.43c2.455,0 4.602,0.988 5.754,2.454c-1.007,0.48 -2.1,0.857 -3.096,1.332c-1.295,0.547 -3.004,1.573 -4.162,0.27c-1.071,-1.287 -0.764,-2.766 0.126,-3.936c0,-0.005 0.006,-0.009 0.008,-0.015c0.45344,-0.06881 0.91137,-0.1039 1.37,-0.105" fill="#0e618e"/><path d="M235.375,230.71c0.02,0 0.037,0 0.052,0.004v1.526c0.063,0.255 -0.02,0.533 -0.197,0.805c-0.113,0.174 -0.243,0.339 -0.384,0.496c-0.126,-0.3 -0.201,-0.71 -0.201,-1.16c0,-0.923 0.327,-1.671 0.73,-1.671" fill="#e63744"/><path d="M212.282,198.747c0.108,-1.016 0.445,-1.923 0.928,-2.623c-0.003,0.047 -0.009,0.068 -0.009,0.068c0,0 1.432,-14.41 5.163,-19.198c1.709,-2.198 7.616,-5.38 8.31,-5.749c1.298,-0.945 4.238,-1.376 6.066,-1.547c-0.307,-0.673 -0.493,-1.412 -0.493,-1.948h7.723c0,0.536 -0.177,1.26 -0.48,1.933c1.796,0.176 4.766,0.604 6.119,1.547l3.118,1.123c3.456,-1.74 8.685,3.126 8.685,3.126l5.598,-6.602v0.002c-0.09699,-0.27673 -0.16764,-0.56199 -0.211,-0.852c-0.356,-0.656 -0.65,-1.477 -0.832,-2.394c-0.463,-2.398 0.055,-4.517 1.158,-4.731c0.587,-0.116 1.23,0.338 1.765,1.15c1.188,-1.144 2.653,-1.624 3.878,-1.103c1.87,0.797 2.466,3.636 1.33,6.336c-0.735,1.736 -2.002,2.994 -3.314,3.46l0.006,0.003c0,0 -3.494,9.954 -6.534,11.061c-2.462,0.898 -11.45,-2.73 -11.45,-2.73v-0.015c1.69,10.346 -0.079,26.141 -0.079,26.141h-25.297c0,0 -1.516,-14.338 -0.162,-24.645v0.007c-0.198,0.546 -1.293,1.519 -2.159,2.751c-1.734,2.46 -3.353,12.868 -3.353,12.868c0.038,0.07 0.077,0.141 0.11,0.214c0.442,0.433 0.869,1.012 1.227,1.69c0.941,1.78 1.04,3.575 0.22,4.012c-0.442,0.236 -1.05,0.03 -1.67,-0.482c-0.664,1.192 -1.707,1.922 -2.797,1.807c-1.666,-0.176 -2.816,-2.274 -2.564,-4.68" data-paper-data="{&quot;origPos&quot;:null}" fill="#ffdc83"/><path d="M239.144,170.316l-6.87,-2.276l-0.01,-0.012c2.54422,0.43365 5.14269,0.44311 7.69,0.028c-0.07,0.668 -0.375,1.594 -0.81,2.26M242.634,183.778c1.856,0 3.17,-0.328 3.978,-0.992c0.69,-0.564 1.018,-1.384 1.018,-2.43h-0.13c0,1.046 -0.316,1.791 -0.969,2.33c-1.474,1.21 -4.71,1.28 -9.898,0.224l-0.022,0.127c2.422,0.495 4.42,0.741 6.023,0.741M229.332,183.778c-1.859,0 -3.173,-0.328 -3.981,-0.992c-0.687,-0.564 -1.02,-1.384 -1.02,-2.43h0.13c0,1.046 0.318,1.791 0.97,2.33c1.475,1.21 4.711,1.28 9.9,0.224l0.025,0.127c-2.425,0.495 -4.424,0.741 -6.024,0.741M235.972,181.73h0.13v-2.938h-0.13zM253.198,177.469c0.25,0 0.495,-0.007 0.72,-0.024c1.09914,-0.07132 2.18463,-0.28304 3.23,-0.63l-0.046,-0.12c-0.013,0.005 -1.406,0.504 -3.193,0.622c-1.645,0.107 -3.973,-0.103 -5.716,-1.704l-0.087,0.097c1.536,1.407 3.51,1.759 5.092,1.759M218.194,180.706c-0.049,-0.18 -0.39,-1.41 -0.486,-2.739c0.042,-0.07 0.087,-0.137 0.123,-0.205c0.06755,0.98966 0.23337,1.97016 0.495,2.927v0.038l-1.595,5.3l-0.12,-0.037z" fill="#eeac6c"/><path d="M223.007,182.97c1.941,0.037 3.823,-6.377 3.844,-12.471l0.002,-0.013c1.13,-0.718 3.243,-1.11 4.9,-1.314c0,0 0.308,11.178 4.273,11.167c3.962,-0.009 4.188,-11.162 4.188,-11.162c1.502,0.175 3.35,0.499 4.514,1.086c0.141,0.073 0.256,0.13 0.376,0.208c0,0 0.006,0.2 0.034,0.534c0.147,1.744 1.163,10.88 4.06,11.119c0.99,8.12 0.915,15.334 0.448,20.696c-0.156,1.825 -0.489,2.927 -0.489,2.927c0,0 -2.174,9.752 -2.402,14.907h-10.025c0.041,-1.304 -0.503,-7.504 -0.503,-7.504h-0.288c0,0 -0.567,5.807 -0.51,7.504h-10.018c-0.27,-4.373 -2.56,-14.907 -2.56,-14.907c0,0 -0.363,-1.108 -0.559,-2.932c-0.533,-4.888 -0.277,-12.398 0.715,-19.845" fill="#0771b7"/><path d="M245.105,170.471l-0.005,-0.004c0,0 0.005,0 0.005,0.003zM245.1,170.467c0,-0.004 0,-0.002 0,0M245.725,220.682l3.51,-15.204l-4.945,15.204zM226.284,220.682l-3.512,-15.204l4.945,15.204zM244.077,169.986c-0.548,3.107 2.511,11.685 5.114,12.081c-0.124,-0.656 -0.03,-0.478 -0.188,-1.086c-2.899,-0.238 -3.718,-8.231 -3.865,-9.975c-0.028,-0.337 -0.034,-0.534 -0.034,-0.534c-0.12,-0.079 -0.236,-0.135 -0.376,-0.208c-0.198,-0.098 -0.421,-0.193 -0.651,-0.278M222.913,183.688c2.687,0.347 5.7,-10.301 5.077,-13.725c-0.435,0.148 -0.825,0.323 -1.137,0.523l-0.002,0.013c-0.021,6.094 -2.364,12.281 -3.844,12.471c-0.056,0.274 -0.041,0.438 -0.094,0.718M236.042,181.751c-4.094,0.008 -5.071,-9.101 -5.289,-12.44c0.344,-0.051 0.681,-0.101 0.999,-0.139c0,0 0.309,11.179 4.273,11.168c3.964,-0.01 4.19,-11.164 4.19,-11.164c0.3391,0.039 0.67749,0.084 1.015,0.135c-0.192,3.33 -1.107,12.426 -5.188,12.439" fill="#e63744"/><path d="M213.544,148.86c-0.17085,-1.13702 -0.25642,-2.28522 -0.256,-3.435c0,-12.608 10.176,-22.834 22.73,-22.834c12.558,0 22.736,10.226 22.736,22.834c0,1.115 -0.081,2.21 -0.23,3.279c1.31,0.722 2.192,2.083 2.192,3.647c0,2.317 -1.941,4.194 -4.337,4.194c-0.166,0 -0.324,-0.009 -0.482,-0.026c-3.882,7.007 -11.328,11.747 -19.878,11.747c-8.538,0 -15.981,-4.731 -19.866,-11.726c-0.06664,0.00271 -0.13331,0.00438 -0.2,0.005c-2.4,0 -4.344,-1.877 -4.344,-4.194c0,-1.457 0.766,-2.736 1.935,-3.49" data-paper-data="{&quot;origPos&quot;:null}" fill="#ffdc83"/><path d="M232.311,142.65c0,0 -0.503,1.803 -2.082,1.446c-0.772,-0.174 -0.908,-1.201 -3.386,-0.74c-0.779,0.18 -2.417,1.156 -2.732,1.808c-0.316,0.652 -0.088,-2.392 2.457,-3.522c1.835,-0.675 2.457,-0.642 3.977,-0.642c1.52,0 1.987,0.907 1.766,1.65M242.052,142.65c0,0 0.503,1.803 2.082,1.446c0.772,-0.174 0.908,-1.201 3.386,-0.74c0.779,0.18 2.417,1.156 2.732,1.808c0.316,0.652 0.087,-2.392 -2.457,-3.522c-1.835,-0.675 -2.457,-0.642 -3.977,-0.642c-1.52,0 -1.987,0.907 -1.766,1.65" data-paper-data="{&quot;origPos&quot;:null}" fill="#815b22"/><path d="M230,150c0,1.657 -0.895,3 -2,3c-1.105,0 -2,-1.343 -2,-3c0,-1.657 0.895,-3 2,-3c1.105,0 2,1.343 2,3M248,150c0,1.657 -0.895,3 -2,3c-1.105,0 -2,-1.343 -2,-3c0,-1.657 0.895,-3 2,-3c1.105,0 2,1.343 2,3" data-paper-data="{&quot;origPos&quot;:null}" fill="#815b22"/><path d="M237.02,153.069c-1.125,0.153 -3.02,1.834 -3.02,1.834c0,0 0.207,-1.009 0.503,-1.299c0.8,-1.156 2.487,-1.604 2.487,-1.604c0,0 2.173,0.703 2.65,1.588c0.443,0.824 0.34,1.238 0.34,1.238c0,0 -2.121,-1.871 -2.96,-1.756z" fill="#eeac6c"/><path d="M230.2,156.696c0,0 6.897,3.208 13.172,-0.397c0,0 -1.39,5.47 -5.95,5.561c-4.115,0.122 -4.984,-1.492 -5.477,-1.956c-0.492,-0.463 -1.42,-1.772 -1.745,-3.208" fill="#eeac6c"/><path d="M259.561,142.676c0.032,2.668 -1.152,6.38 -1.152,6.38c0,0 -6.004,-7.14 -9.664,-9.144c-4.482,-2.449 -6.716,1.157 -10.718,-2.016c-0.663,-0.53 -1.901,-1.92 -1.901,-1.92c0,0 -1.504,1.526 -1.905,1.92c-4.497,4.425 -7.872,-0.742 -11.663,1.933c-4.818,3.403 -8.898,9.064 -8.898,9.064c0,0 -1.397,-1.607 -1.205,-6.465c0.057,-1.401 0.736,-4.504 1.83,-7.659c3.981,-8.025 12.228,-13.536 21.763,-13.536c10.945,0 20.2,7.273 23.24,17.269c0.15521,1.38672 0.2463,2.77987 0.273,4.175" data-paper-data="{&quot;origPos&quot;:null}" fill="#815b22"/></g></g></svg>