<svg version="1.1" xmlns="http://www.w3.org/2000/svg" xmlns:xlink="http://www.w3.org/1999/xlink" width="53.74534" height="114.6382" viewBox="0,0,53.74534,114.6382"><g transform="translate(-213.14583,-123.023)"><g data-paper-data="{&quot;isPaintingLayer&quot;:true}" fill-rule="evenodd" stroke-miterlimit="10" stroke-dasharray="" stroke-dashoffset="0" style="mix-blend-mode: normal"><path d="M225.836,150.689c-1.098,3.742 -4,6.179 -6.48,5.44c-2.48,-0.737 -3.6,-4.369 -2.501,-8.111c1.098,-3.742 4,-6.178 6.48,-5.44c2.48,0.737 3.6,4.369 2.501,8.111" fill="#fdd835" stroke="none" stroke-width="1" stroke-linecap="butt" stroke-linejoin="miter"/><path d="M230.8,145.467c-1.098,3.742 -4.803,5.939 -8.274,4.907c-3.471,-1.032 -5.395,-4.903 -4.296,-8.646c1.098,-3.742 4.803,-5.94 8.274,-4.907c3.471,1.032 5.395,4.903 4.296,8.646M230.089,157.263c1.331,2.937 13.997,2.272 7.322,10.833c-0.974,1.25 -2.451,-4.407 -8.505,-3.278c-3.407,0.636 -8.299,-1.63 -8.618,-4.011c-0.5,-3.722 0.115,-6.545 2.468,-7.626c2.352,-1.08 6.001,1.145 7.333,4.082M259.797,159.902c1.332,2.937 0.505,6.194 -1.848,7.275c-2.353,1.081 -5.34,-0.423 -6.671,-3.36c-1.332,-2.937 -0.504,-6.195 1.848,-7.276c2.353,-1.08 5.34,0.424 6.671,3.36" fill="#fdd835" stroke="none" stroke-width="1" stroke-linecap="butt" stroke-linejoin="miter"/><path d="M262.59,160.767c0.564,3.178 -1.042,6.125 -3.588,6.583c-2.546,0.458 -5.067,-1.747 -5.631,-4.925c-0.565,-3.178 1.042,-6.126 3.587,-6.584c2.547,-0.458 5.068,1.747 5.632,4.926" fill="#fdd835" stroke="none" stroke-width="1" stroke-linecap="butt" stroke-linejoin="miter"/><path d="M262.658,170.04c-0.135,2.772 -2.044,4.93 -4.265,4.82c-2.22,-0.11 -3.91,-2.445 -3.775,-5.217c0.135,-2.772 2.044,-4.93 4.264,-4.82c2.221,0.11 3.912,2.445 3.776,5.217" fill="#fdd835" stroke="none" stroke-width="1" stroke-linecap="butt" stroke-linejoin="miter"/><path d="M262.442,177.934c-0.903,2.622 -3.337,4.155 -5.438,3.422c-2.1,-0.732 -3.072,-3.451 -2.17,-6.074c0.902,-2.622 3.337,-4.155 5.437,-3.423c2.101,0.733 3.073,3.452 2.17,6.075" fill="#fdd835" stroke="none" stroke-width="1" stroke-linecap="butt" stroke-linejoin="miter"/><path d="M257.873,185.622c-1.615,2.25 -4.385,3.01 -6.187,1.7c-1.802,-1.31 -1.953,-4.197 -0.339,-6.446c1.615,-2.25 4.385,-3.011 6.187,-1.7c1.801,1.31 1.953,4.196 0.339,6.446M224.852,195.843c-1.617,2.248 -4.203,3.14 -5.777,1.993c-1.573,-1.147 -1.537,-3.899 0.08,-6.147c1.617,-2.247 4.203,-3.14 5.777,-1.992c1.574,1.147 1.538,3.899 -0.08,6.146M259.797,160.47c1.332,2.937 0.505,6.194 -1.848,7.275c-2.353,1.081 -5.34,-0.423 -6.671,-3.36c-1.332,-2.938 -0.504,-6.195 1.848,-7.275c2.353,-1.082 5.34,0.423 6.671,3.36" fill="#fdd835" stroke="none" stroke-width="1" stroke-linecap="butt" stroke-linejoin="miter"/><path d="M253.242,157.828c1.332,2.937 0.505,6.194 -1.848,7.275c-2.353,1.081 -5.34,-0.423 -6.671,-3.36c-1.332,-2.937 -0.505,-6.195 1.848,-7.276c2.353,-1.08 5.34,0.424 6.671,3.361" fill="#fdd835" stroke="none" stroke-width="1" stroke-linecap="butt" stroke-linejoin="miter"/><path d="M246.624,164.563c-2.019,2.509 -5.285,3.214 -7.294,1.575c-2.01,-1.639 -2.002,-5 0.017,-7.51c2.02,-2.508 5.285,-3.213 7.294,-1.574c2.01,1.638 2.002,5 -0.017,7.509M262.666,156.613c-1.84,3.763 -4.537,5.813 -6.857,4.664c-2.32,-1.15 -6.24,-6.497 -4.4,-10.26c1.839,-3.764 7.22,-6.25 7.22,-6.25c0,0 5.877,8.082 4.037,11.846" fill="#fdd835" stroke="none" stroke-width="1" stroke-linecap="butt" stroke-linejoin="miter"/><path d="M237.728,232.1c1.188,-2.844 0.456,-4.223 -0.916,-4.804c-1.372,-0.581 -2.864,-0.143 -4.052,2.7c-1.188,2.844 -1.623,7.015 -0.251,7.597c1.372,0.58 4.031,-2.65 5.219,-5.493M242.308,232.1c-1.188,-2.844 -0.456,-4.223 0.916,-4.804c1.373,-0.581 2.864,-0.143 4.053,2.7c1.188,2.844 1.622,7.015 0.251,7.597c-1.373,0.58 -4.031,-2.65 -5.22,-5.493" fill="#ab47bc" stroke="none" stroke-width="1" stroke-linecap="butt" stroke-linejoin="miter"/><path d="M266.89,225.77c0.015,-0.004 -0.836,2.712 -2.55,3.297c-1.71,0.594 -4.021,-1.034 -4.007,-1.04c0.014,-0.002 -1.075,2.616 -2.823,3.033c-1.748,0.425 -3.887,-1.416 -3.872,-1.42c0.014,-0.002 -1.305,2.5 -3.078,2.75c-1.772,0.255 -3.724,-1.78 -3.709,-1.782c0.015,0 -1.527,2.365 -3.31,2.446c-1.785,0.088 -3.537,-2.123 -3.523,-2.123c0.015,0 -1.738,2.21 -3.522,2.123c-1.784,-0.08 -3.325,-2.447 -3.31,-2.446c0.014,0.002 -1.938,2.037 -3.71,1.781c-1.772,-0.248 -3.092,-2.75 -3.077,-2.748c0.014,0.003 -2.125,1.844 -3.872,1.42c-1.749,-0.418 -2.838,-3.036 -2.824,-3.033c0.014,0.005 -2.296,1.633 -4.007,1.04c-1.713,-0.586 -2.564,-3.302 -2.55,-3.298c0,0 2.602,-31.02 17.377,-42.521h18.99c0,0 17.378,16.506 17.378,42.521" fill="#f06292" stroke="none" stroke-width="1" stroke-linecap="butt" stroke-linejoin="miter"/><path d="M252.021,168.381l-2.508,14.868h-18.99l-2.508,-14.868l8.569,-1.718v-5.856h6.868v5.856z" data-paper-data="{&quot;origPos&quot;:null}" fill="#ffdbcf" stroke="none" stroke-width="1" stroke-linecap="butt" stroke-linejoin="miter"/><path d="M249.513,183.248c0,0 17.378,16.506 17.378,42.522c0.014,-0.005 -0.837,2.711 -2.55,3.297c-1.712,0.592 -4.022,-1.035 -4.008,-1.04c0.014,-0.004 -1.075,2.615 -2.823,3.032c-1.748,0.425 -3.887,-1.416 -3.872,-1.42c0.015,-0.001 -1.305,2.5 -3.078,2.749c-1.771,0.256 -3.724,-1.778 -3.71,-1.781c0.015,-0.001 -1.526,2.365 -3.31,2.445c-1.784,0.088 -3.537,-2.121 -3.522,-2.123c0.015,0.002 -1.738,2.211 -3.522,2.123c-1.784,-0.08 -3.325,-2.445 -3.31,-2.445c0.014,0.002 -1.938,2.037 -3.71,1.782c-1.772,-0.25 -3.092,-2.752 -3.077,-2.75c0.014,0.004 -2.125,1.845 -3.872,1.42c-1.749,-0.417 -2.838,-3.035 -2.824,-3.032c0.014,0.005 -2.297,1.632 -4.007,1.039c-1.714,-0.585 -2.564,-3.301 -2.55,-3.296c0,0 2.602,-31.02 17.377,-42.521l-2.508,-14.868l4.257,-0.854c0.798,3.453 4.074,6.126 7.746,6.126c3.672,0 6.949,-2.673 7.746,-6.126l4.258,0.854l-2.509,14.868" fill="#f06292" stroke="none" stroke-width="1" stroke-linecap="butt" stroke-linejoin="miter"/><path d="M239.993,186.749c-5.869,0 -9.89,-2.769 -9.95,-2.812l-0.2,-0.141c0.227,-0.182 0.447,-0.367 0.68,-0.547l-0.197,-1.168l0.677,0.478c0.338,0.237 8.257,5.637 18.094,-0.041l0.597,-0.344l-0.181,1.075c0,0 0.302,0.17 0.814,0.5l-0.398,0.23c-3.598,2.076 -6.998,2.77 -9.936,2.77" fill="#ec407a" stroke="none" stroke-width="1" stroke-linecap="butt" stroke-linejoin="miter"/><path d="M250.124,183.866c1.819,1.901 7.356,8.139 11.576,17.707c-2.878,5.963 -8.507,1.837 -8.507,1.837c-2.866,8.898 -9.364,1.515 -9.364,1.515c-6.535,7.962 -10.468,-0.748 -10.468,-0.748c-7.102,6.194 -8.47,-2.156 -8.47,-2.156c-3.176,2.482 -5.417,2.614 -7,1.55c2.527,-7.443 6.327,-15.036 11.962,-19.768l0.19,0.134c0.06,0.042 4.081,2.812 9.95,2.812c2.938,0 6.338,-0.694 9.936,-2.77l0.195,-0.113" fill="#ab47bc" stroke="none" stroke-width="1" stroke-linecap="butt" stroke-linejoin="miter"/><path d="M230.947,196.299c-3.937,-8.666 -2.996,-15.826 -1.623,-20.157l-0.955,-5.665l-2.076,-0.82c-6.157,15.751 1.424,25.618 1.504,28.25c0.094,3.108 3.499,6.27 3.499,6.27c0.806,-1.51 0.714,-3.518 0.455,-5.055c0.5,0.35 0.932,0.488 1.128,0.312c0.32,-0.288 -0.107,-1.292 -0.951,-2.244c-0.29163,-0.33339 -0.62043,-0.63233 -0.98,-0.891M249.037,196.299c3.937,-8.666 2.995,-15.826 1.622,-20.157l0.956,-5.665l2.076,-0.82c6.157,15.751 -1.425,25.618 -1.504,28.25c-0.094,3.108 -3.5,6.27 -3.5,6.27c-0.806,-1.51 -0.713,-3.518 -0.454,-5.055c-0.5,0.35 -0.933,0.488 -1.129,0.312c-0.32,-0.288 0.107,-1.292 0.952,-2.244c0.326,-0.367 0.667,-0.67 0.98,-0.891" data-paper-data="{&quot;origPos&quot;:null}" fill="#ffdbcf" stroke="none" stroke-width="1" stroke-linecap="butt" stroke-linejoin="miter"/><path d="M228.194,168.696c-0.354,-0.73 -1.146,-1.1 -1.846,-0.912c-0.9,0.242 -1.312,1.319 -1.045,2.104c0.207,0.61 0.77,0.885 0.906,0.947c-0.659,-0.236 -1.359,0.068 -1.603,0.631c-0.208,0.48 -0.043,1.051 0.314,1.367c0.413,0.368 0.96,0.282 1.184,0.246c0.358,-0.057 0.62,-0.212 0.766,-0.315c-0.795,0.53 -1.06,1.422 -0.766,1.963c0.387,0.713 1.595,0.543 1.707,0.526c0.774,-0.118 1.248,-0.635 1.393,-0.806l-1.01,-5.751M251.858,168.639c0.354,-0.73 1.146,-1.1 1.847,-0.912c0.9,0.242 1.311,1.319 1.045,2.104c-0.208,0.61 -0.77,0.885 -0.906,0.947c0.658,-0.236 1.358,0.069 1.602,0.631c0.208,0.48 0.043,1.051 -0.313,1.368c-0.414,0.367 -0.96,0.28 -1.185,0.245c-0.27622,-0.04507 -0.53834,-0.1532 -0.766,-0.316c0.796,0.53 1.06,1.423 0.766,1.964c-0.387,0.713 -1.595,0.543 -1.707,0.526c-0.774,-0.119 -1.248,-0.634 -1.393,-0.806l1.01,-5.751" data-paper-data="{&quot;origPos&quot;:null}" fill="#ec407a" stroke="none" stroke-width="1" stroke-linecap="butt" stroke-linejoin="miter"/><path d="M258.426,148.464c0,8.85 -8.241,15.709 -18.408,15.709c-10.166,0 -18.408,-6.86 -18.408,-15.71c0,-8.849 8.242,-17.597 18.408,-17.597c10.167,0 18.408,8.748 18.408,17.598" data-paper-data="{&quot;origPos&quot;:null}" fill="#ffece6" stroke="none" stroke-width="1" stroke-linecap="butt" stroke-linejoin="miter"/><path d="M258.392,147.309c0,0 -3.01,0.658 -5.616,-1.965c-1.623,-1.634 -3.076,-5.644 -3.076,-5.644c0,0 -9.43,10.472 -20.689,5.016c-4.381,-2.123 -7.367,2.594 -7.367,2.594c-3.543,-8.29 1.715,-9.853 4.435,-13.895c2.425,-3.603 5.885,-6.167 10.505,-6.167c2.784,0 6.886,3.007 10.414,2.5c3.507,-0.505 7.843,1.118 8.539,5.553c0.547,3.476 4.047,6.563 2.855,12.009" fill="#fdd835" stroke="none" stroke-width="1" stroke-linecap="butt" stroke-linejoin="miter"/><path d="M231.646,150.86c0,0.86 -0.693,1.557 -1.548,1.557c-0.41188,-0.00132 -0.80637,-0.16621 -1.09667,-0.4584c-0.29031,-0.29218 -0.45265,-0.68772 -0.45133,-1.0996c0,-0.86 0.693,-1.558 1.548,-1.558c0.855,0 1.548,0.698 1.548,1.558" fill="#5d4037" stroke="none" stroke-width="1" stroke-linecap="butt" stroke-linejoin="miter"/><path d="M230.089,150.632l-1.447,-2.291M229.27,150.964l-2.3,-1.905" fill="none" stroke="#5d4037" stroke-width="0.756" stroke-linecap="round" stroke-linejoin="round"/><path d="M248.39,150.859c0,-0.86 0.693,-1.558 1.548,-1.558c0.855,0 1.548,0.698 1.548,1.558c0,0.861 -0.693,1.558 -1.548,1.558c-0.855,0 -1.548,-0.697 -1.548,-1.557" fill="#5d4037" stroke="none" stroke-width="1" stroke-linecap="butt" stroke-linejoin="miter"/><path d="M249.948,150.632l1.446,-2.291M250.767,150.964l2.3,-1.905" fill="none" stroke="#5d4037" stroke-width="0.756" stroke-linecap="round" stroke-linejoin="round"/><path d="M243.452,158.421c-0.686,1.629 -1.965,2.729 -3.434,2.729c-1.468,0 -2.747,-1.099 -3.434,-2.729z" fill="#ef5350" stroke="none" stroke-width="1" stroke-linecap="butt" stroke-linejoin="miter"/><path d="M227.334,154.815c2.728,0 4.938,2.225 4.938,4.971c0,0.971 -0.281,1.875 -0.76,2.641c-3.188,-1.398 -5.825,-3.566 -7.575,-6.242c0.9126,-0.87872 2.13012,-1.36974 3.397,-1.37M256.1,156.184c-1.75,2.677 -4.388,4.845 -7.576,6.243c-0.478,-0.765 -0.76,-1.669 -0.76,-2.642c0,-2.745 2.211,-4.971 4.938,-4.971c1.26721,0.0001 2.48509,0.49113 3.398,1.37" fill="#ffccbc" stroke="none" stroke-width="1" stroke-linecap="butt" stroke-linejoin="miter"/><path d="M222.756,208.592c0,0 -3.05,5.854 -3.207,16.023M256.377,208.592c0,0 3.05,5.854 3.207,16.023" fill="none" stroke="#f48fb1" stroke-width="1.247" stroke-linecap="round" stroke-linejoin="round"/><path d="M228.907,227.073c0.157,-10.274 2.832,-16.97 2.832,-16.97M250.975,227.073c-0.157,-10.274 -2.832,-16.97 -2.832,-16.97" fill="none" stroke="#f48fb1" stroke-width="1.254" stroke-linecap="round" stroke-linejoin="round"/><path d="M239.163,211.362v17.04" fill="none" stroke="#f48fb1" stroke-width="1.288" stroke-linecap="round" stroke-linejoin="round"/><path d="M222.006,201.415c-0.874,2.632 -3.077,4.263 -4.92,3.642c-1.842,-0.62 -2.626,-3.257 -1.751,-5.888c0.874,-2.632 3.077,-4.263 4.92,-3.643c1.841,0.62 2.626,3.257 1.751,5.889" fill="#fdd835" stroke="none" stroke-width="1" stroke-linecap="butt" stroke-linejoin="miter"/><path d="M221.168,207.574c-0.027,2.37 -1.394,4.274 -3.053,4.255c-1.658,-0.02 -2.98,-1.956 -2.953,-4.325c0.027,-2.37 1.393,-4.275 3.052,-4.256c1.659,0.02 2.98,1.956 2.954,4.326" fill="#fdd835" stroke="none" stroke-width="1" stroke-linecap="butt" stroke-linejoin="miter"/><path d="M221.356,211.292c0.716,1.411 0.368,3.032 -0.777,3.62c-1.144,0.59 -2.653,-0.077 -3.369,-1.488c-0.716,-1.411 -0.368,-3.032 0.776,-3.621c1.145,-0.589 2.654,0.078 3.37,1.489M224.806,216.2c0.716,1.41 3.55,5.824 2.406,6.412c-1.145,0.589 -5.835,-2.87 -6.551,-4.28c-0.716,-1.411 -0.37,-3.032 0.776,-3.621c1.144,-0.589 2.653,0.078 3.369,1.489" fill="#fdd835" stroke="none" stroke-width="1" stroke-linecap="butt" stroke-linejoin="miter"/><path d="M236.089,133.41l-8.687,3.086l-6.645,-7.948l5.978,1.839l0.94,-7.042l4.694,5.04l3.935,-5.362zM221.742,215.647c-0.948,0.759 -1.99,1.03 -2.327,0.603c-0.336,-0.426 0.16,-1.387 1.109,-2.146c0.948,-0.76 1.99,-1.029 2.327,-0.603c0.336,0.426 -0.16,1.387 -1.109,2.146" fill="#ab47bc" stroke="none" stroke-width="1" stroke-linecap="butt" stroke-linejoin="miter"/></g></g></svg>